<?xml version="1.0" encoding="UTF-8" standalone="no"?>
<!-- Created with Inkscape (http://www.inkscape.org/) -->

<svg
   xmlns:dc="http://purl.org/dc/elements/1.1/"
   xmlns:cc="http://creativecommons.org/ns#"
   xmlns:rdf="http://www.w3.org/1999/02/22-rdf-syntax-ns#"
   xmlns:svg="http://www.w3.org/2000/svg"
   xmlns="http://www.w3.org/2000/svg"
   xmlns:xlink="http://www.w3.org/1999/xlink"
   xmlns:sodipodi="http://sodipodi.sourceforge.net/DTD/sodipodi-0.dtd"
   xmlns:inkscape="http://www.inkscape.org/namespaces/inkscape"
   width="256"
   height="256"
   viewBox="0 0 67.733332 67.733335"
   version="1.1"
   id="svg1037"
   inkscape:version="0.92.3 (unknown)"
   sodipodi:docname="application-octet-stream1.svg">
  <defs
     id="defs1031">
    <linearGradient
       gradientUnits="userSpaceOnUse"
       y2="119.09284"
       x2="-35.310345"
       y1="401.58368"
       x1="529.65515"
       id="linearGradient4226"
       xlink:href="#linearGradient4338"
       inkscape:collect="always"
       gradientTransform="matrix(0,-0.11988932,0.11988589,0,0.36277965,292.5483)" />
    <linearGradient
       inkscape:collect="always"
       id="linearGradient4338">
      <stop
         style="stop-color:#f2f2f2;stop-opacity:1"
         offset="0"
         id="stop4340" />
      <stop
         style="stop-color:#f9f9f9;stop-opacity:1"
         offset="1"
         id="stop4342" />
    </linearGradient>
    <linearGradient
       inkscape:collect="always"
       xlink:href="#linearGradient4360"
       id="linearGradient4358"
       x1="88"
       y1="88"
       x2="488"
       y2="488"
       gradientUnits="userSpaceOnUse" />
    <linearGradient
       id="linearGradient4360"
       inkscape:collect="always">
      <stop
         id="stop4362"
         offset="0"
         style="stop-color:#000000;stop-opacity:0.58823532" />
      <stop
         style="stop-color:#000000;stop-opacity:0"
         offset="0.88"
         id="stop4364" />
      <stop
         id="stop4366"
         offset="1"
         style="stop-color:#000000;stop-opacity:1" />
    </linearGradient>
    <filter
       inkscape:collect="always"
       style="color-interpolation-filters:sRGB"
       id="filter4380"
       x="-0.052999184"
       width="1.1059984"
       y="-0.043862626"
       height="1.0877253">
      <feGaussianBlur
         inkscape:collect="always"
         stdDeviation="8.4801079"
         id="feGaussianBlur4382" />
    </filter>
    <filter
       inkscape:collect="always"
       style="color-interpolation-filters:sRGB"
       id="filter4346"
       x="-0.013249796"
       width="1.0264996"
       y="-0.010965657"
       height="1.0219313">
      <feGaussianBlur
         inkscape:collect="always"
         stdDeviation="2.120027"
         id="feGaussianBlur4348" />
    </filter>
  </defs>
  <sodipodi:namedview
     id="base"
     pagecolor="#ffffff"
     bordercolor="#666666"
     borderopacity="1.0"
     inkscape:pageopacity="0.0"
     inkscape:pageshadow="2"
     inkscape:zoom="3.4065192"
     inkscape:cx="127.33084"
     inkscape:cy="127.82523"
     inkscape:document-units="px"
     inkscape:current-layer="text1501"
     showgrid="true"
     units="px"
     inkscape:window-width="1920"
     inkscape:window-height="1013"
     inkscape:window-x="0"
     inkscape:window-y="34"
     inkscape:window-maximized="1">
    <inkscape:grid
       type="xygrid"
       id="grid1672" />
  </sodipodi:namedview>
  <metadata
     id="metadata1034">
    <rdf:RDF>
      <cc:Work
         rdf:about="">
        <dc:format>image/svg+xml</dc:format>
        <dc:type
           rdf:resource="http://purl.org/dc/dcmitype/StillImage" />
        <dc:title></dc:title>
      </cc:Work>
    </rdf:RDF>
  </metadata>
  <g
     inkscape:label="Livello 1"
     inkscape:groupmode="layer"
     id="layer1"
     transform="translate(0,-229.26665)">
    <path
       sodipodi:nodetypes="scccssscsss"
       inkscape:connector-curvature="0"
       id="path1163"
       d="m 20.705011,233.28164 c -9.338925,0 -10.343783,0.95922 -10.298012,10.31704 v 19.31629 19.3163 c -0.04577,9.35781 0.959087,10.31704 10.298012,10.31704 h 25.970643 c 9.338924,0 10.298012,-0.95912 10.298012,-10.31704 v -19.3163 -19.31629 c 0,-9.35793 -0.959088,-10.31704 -10.298012,-10.31704 z"
       style="color:#000000;display:inline;overflow:visible;visibility:visible;opacity:0.2;fill:none;fill-opacity:1;fill-rule:nonzero;stroke:#000000;stroke-width:1.05833328;stroke-miterlimit:4;stroke-dasharray:none;stroke-opacity:1;marker:none;enable-background:accumulate" />
    <path
       style="color:#000000;display:inline;overflow:visible;visibility:visible;opacity:0.1;fill:#000000;fill-opacity:1;fill-rule:nonzero;stroke:none;stroke-width:2;marker:none;filter:url(#filter4346);enable-background:accumulate"
       d="M 189.84323,74 C 119.24979,74 111.65402,81.250835 112,151.98706 V 298 444.01294 C 111.65402,514.74917 119.24979,522 189.84323,522 H 386.15677 C 456.75021,522 462.16345,514.72616 464,444.01294 V 298 151.98706 C 464,81.249993 456.75021,74 386.15677,74 Z"
       id="rect4158-9"
       inkscape:connector-curvature="0"
       sodipodi:nodetypes="scccssscsss"
       transform="matrix(0.13229167,0,0,0.13229167,-4.4096684,223.75664)" />
    <path
       sodipodi:nodetypes="scccssscsss"
       inkscape:connector-curvature="0"
       id="path4350"
       d="M 189.84323,74 C 119.24979,74 111.65402,81.250835 112,151.98706 V 298 444.01294 C 111.65402,514.74917 119.24979,522 189.84323,522 H 386.15677 C 456.75021,522 464,514.75001 464,444.01294 V 298 151.98706 C 464,81.249993 456.75021,74 386.15677,74 Z"
       style="color:#000000;display:inline;overflow:visible;visibility:visible;opacity:0.3;fill:url(#linearGradient4358);fill-opacity:1;fill-rule:nonzero;stroke:none;stroke-width:2;marker:none;filter:url(#filter4380);enable-background:accumulate"
       transform="matrix(0.13229167,0,0,0.13229167,-4.4096684,223.75664)" />
    <path
       style="color:#000000;display:inline;overflow:visible;visibility:visible;fill:url(#linearGradient4226);fill-opacity:1;fill-rule:nonzero;stroke:none;stroke-width:0.26458332;marker:none;enable-background:accumulate"
       d="m 20.705011,233.28164 c -9.338924,0 -10.343782,0.95922 -10.298012,10.31704 v 19.31629 19.3163 c -0.04577,9.35781 0.959088,10.31704 10.298012,10.31704 h 25.970643 c 9.338924,0 10.298012,-0.95912 10.298012,-10.31704 v -19.3163 -19.31629 c 0,-9.35793 -0.959088,-10.31704 -10.298012,-10.31704 z"
       id="rect4158"
       inkscape:connector-curvature="0"
       sodipodi:nodetypes="scccssscsss" />
    <path
       style="color:#000000;display:inline;overflow:visible;visibility:visible;opacity:0.1;fill:#ffffff;fill-opacity:1;fill-rule:nonzero;stroke:none;stroke-width:0.26458332;marker:none;enable-background:accumulate"
       d="m 33.690332,233.28164 v 59.26667 h 12.985253 c 9.338924,0 10.055122,-0.96217 10.298081,-10.31695 v -19.31639 -19.31639 c 0,-9.35792 -0.959157,-10.31694 -10.298081,-10.31694 z"
       id="path4231"
       inkscape:connector-curvature="0"
       sodipodi:nodetypes="ccsscssc" />
    <path
       inkscape:connector-curvature="0"
       style="color:#000000;display:inline;overflow:visible;visibility:visible;opacity:0.2;fill:#ffffff;fill-opacity:1;fill-rule:nonzero;stroke:none;stroke-width:0.26458332;marker:none;enable-background:accumulate"
       d="m 10.406999,262.91497 v 19.31639 c -0.04577,9.35782 0.959155,10.31695 10.29808,10.31695 h 25.970506 c 9.338924,0 10.055122,-0.96217 10.298081,-10.31695 v -19.31639 z"
       id="path4255"
       sodipodi:nodetypes="ccssscc" />
    <path
       style="color:#000000;display:inline;overflow:visible;visibility:visible;opacity:0.4;fill:#ffffff;fill-opacity:1;fill-rule:nonzero;stroke:none;stroke-width:2.11666656;stroke-linecap:butt;stroke-linejoin:miter;stroke-miterlimit:4;stroke-dasharray:none;stroke-dashoffset:0;stroke-opacity:1;marker:none;enable-background:accumulate"
       d="m 41.098666,292.54831 15.875,-15.875 v 5.94886 c -0.01384,8.99472 -1.006126,9.92614 -10.100231,9.92614 z"
       id="path4254"
       inkscape:connector-curvature="0"
       sodipodi:nodetypes="cccsc" />
    <path
       style="color:#000000;display:inline;overflow:visible;visibility:visible;opacity:0.6;fill:#ffffff;fill-opacity:1;fill-rule:nonzero;stroke:none;stroke-width:0.26458332;marker:none;enable-background:accumulate"
       d="m 20.705079,233.28164 c -9.338926,0 -10.343851,0.95939 -10.29808,10.3172 v 0.52916 c -0.04577,-9.35781 0.959154,-10.3172 10.29808,-10.3172 h 25.970506 c 9.338927,0 10.298081,0.95928 10.298081,10.3172 v -0.52916 c 0,-9.35793 -0.959154,-10.3172 -10.298081,-10.3172 z"
       id="path931"
       inkscape:connector-curvature="0" />
    <g
       id="g1478"
       transform="translate(0.10956769,0.02312)">
      <path
         sodipodi:nodetypes="cccccccc"
         inkscape:connector-curvature="0"
         style="color:#000000;font-style:normal;font-variant:normal;font-weight:normal;font-stretch:normal;font-size:medium;line-height:normal;font-family:sans-serif;font-variant-ligatures:normal;font-variant-position:normal;font-variant-caps:normal;font-variant-numeric:normal;font-variant-alternates:normal;font-feature-settings:normal;text-indent:0;text-align:start;text-decoration:none;text-decoration-line:none;text-decoration-style:solid;text-decoration-color:#000000;letter-spacing:normal;word-spacing:normal;text-transform:none;writing-mode:lr-tb;direction:ltr;text-orientation:mixed;dominant-baseline:auto;baseline-shift:baseline;text-anchor:start;white-space:normal;shape-padding:0;clip-rule:nonzero;display:inline;overflow:visible;visibility:visible;opacity:1;isolation:auto;mix-blend-mode:normal;color-interpolation:sRGB;color-interpolation-filters:linearRGB;solid-color:#000000;solid-opacity:1;vector-effect:none;fill:#ff0000;fill-opacity:1;fill-rule:nonzero;stroke:none;stroke-width:2.46944427px;stroke-linecap:butt;stroke-linejoin:miter;stroke-miterlimit:4;stroke-dasharray:none;stroke-dashoffset:0;stroke-opacity:1;color-rendering:auto;image-rendering:auto;shape-rendering:auto;text-rendering:auto;enable-background:accumulate"
         d="m 15.168787,244.39414 v 1.23471 14.81666 h 2.46945 v -13.58196 h 13.538532 v -2.46941 z"
         id="path1466" />
      <path
         id="path1468"
         d="m 15.168787,281.38957 v -1.23471 -14.81666 h 2.46945 v 13.58196 h 13.538532 v 2.46941 z"
         style="color:#000000;font-style:normal;font-variant:normal;font-weight:normal;font-stretch:normal;font-size:medium;line-height:normal;font-family:sans-serif;font-variant-ligatures:normal;font-variant-position:normal;font-variant-caps:normal;font-variant-numeric:normal;font-variant-alternates:normal;font-feature-settings:normal;text-indent:0;text-align:start;text-decoration:none;text-decoration-line:none;text-decoration-style:solid;text-decoration-color:#000000;letter-spacing:normal;word-spacing:normal;text-transform:none;writing-mode:lr-tb;direction:ltr;text-orientation:mixed;dominant-baseline:auto;baseline-shift:baseline;text-anchor:start;white-space:normal;shape-padding:0;clip-rule:nonzero;display:inline;overflow:visible;visibility:visible;opacity:1;isolation:auto;mix-blend-mode:normal;color-interpolation:sRGB;color-interpolation-filters:linearRGB;solid-color:#000000;solid-opacity:1;vector-effect:none;fill:#ffde00;fill-opacity:1;fill-rule:nonzero;stroke:none;stroke-width:2.46944427px;stroke-linecap:butt;stroke-linejoin:miter;stroke-miterlimit:4;stroke-dasharray:none;stroke-dashoffset:0;stroke-opacity:1;color-rendering:auto;image-rendering:auto;shape-rendering:auto;text-rendering:auto;enable-background:accumulate"
         inkscape:connector-curvature="0"
         sodipodi:nodetypes="cccccccc" />
      <path
         id="path1470"
         d="m 51.991315,244.39414 v 1.23471 14.81666 h -2.46945 V 246.86355 H 35.983333 v -2.46941 z"
         style="color:#000000;font-style:normal;font-variant:normal;font-weight:normal;font-stretch:normal;font-size:medium;line-height:normal;font-family:sans-serif;font-variant-ligatures:normal;font-variant-position:normal;font-variant-caps:normal;font-variant-numeric:normal;font-variant-alternates:normal;font-feature-settings:normal;text-indent:0;text-align:start;text-decoration:none;text-decoration-line:none;text-decoration-style:solid;text-decoration-color:#000000;letter-spacing:normal;word-spacing:normal;text-transform:none;writing-mode:lr-tb;direction:ltr;text-orientation:mixed;dominant-baseline:auto;baseline-shift:baseline;text-anchor:start;white-space:normal;shape-padding:0;clip-rule:nonzero;display:inline;overflow:visible;visibility:visible;opacity:1;isolation:auto;mix-blend-mode:normal;color-interpolation:sRGB;color-interpolation-filters:linearRGB;solid-color:#000000;solid-opacity:1;vector-effect:none;fill:#46cc2e;fill-opacity:1;fill-rule:nonzero;stroke:none;stroke-width:2.46944427px;stroke-linecap:butt;stroke-linejoin:miter;stroke-miterlimit:4;stroke-dasharray:none;stroke-dashoffset:0;stroke-opacity:1;color-rendering:auto;image-rendering:auto;shape-rendering:auto;text-rendering:auto;enable-background:accumulate"
         inkscape:connector-curvature="0"
         sodipodi:nodetypes="cccccccc" />
      <path
         sodipodi:nodetypes="cccccccc"
         inkscape:connector-curvature="0"
         style="color:#000000;font-style:normal;font-variant:normal;font-weight:normal;font-stretch:normal;font-size:medium;line-height:normal;font-family:sans-serif;font-variant-ligatures:normal;font-variant-position:normal;font-variant-caps:normal;font-variant-numeric:normal;font-variant-alternates:normal;font-feature-settings:normal;text-indent:0;text-align:start;text-decoration:none;text-decoration-line:none;text-decoration-style:solid;text-decoration-color:#000000;letter-spacing:normal;word-spacing:normal;text-transform:none;writing-mode:lr-tb;direction:ltr;text-orientation:mixed;dominant-baseline:auto;baseline-shift:baseline;text-anchor:start;white-space:normal;shape-padding:0;clip-rule:nonzero;display:inline;overflow:visible;visibility:visible;opacity:1;isolation:auto;mix-blend-mode:normal;color-interpolation:sRGB;color-interpolation-filters:linearRGB;solid-color:#000000;solid-opacity:1;vector-effect:none;fill:#2262cb;fill-opacity:1;fill-rule:nonzero;stroke:none;stroke-width:2.46944427px;stroke-linecap:butt;stroke-linejoin:miter;stroke-miterlimit:4;stroke-dasharray:none;stroke-dashoffset:0;stroke-opacity:1;color-rendering:auto;image-rendering:auto;shape-rendering:auto;text-rendering:auto;enable-background:accumulate"
         d="m 51.991315,281.38957 v -1.23471 -14.81666 h -2.46945 v 13.58196 H 35.983333 v 2.46941 z"
         id="path1472" />
      <g
         aria-label="C::B"
         style="font-style:normal;font-weight:normal;font-size:10.58333302px;line-height:1.25;font-family:sans-serif;letter-spacing:0px;word-spacing:0px;fill:#000000;fill-opacity:1;stroke:none;stroke-width:0.26458332"
         id="text1501"
         transform="translate(-0.69849862,3.2278834)">
        <g
           id="g1516"
           transform="translate(2.1834236,-0.5675734)">
          <path
             inkscape:connector-curvature="0"
             id="path1503"
             style="font-style:normal;font-variant:normal;font-weight:500;font-stretch:normal;font-family:ubuntu;-inkscape-font-specification:'ubuntu Medium';stroke-width:0.26458332"
             d="m 26.518098,264.06271 q -0.8255,0 -1.481667,-0.254 -0.656167,-0.254 -1.11125,-0.74083 -0.455083,-0.49742 -0.6985,-1.2065 -0.243417,-0.70909 -0.243417,-1.62984 0,-0.92075 0.275167,-1.62983 0.28575,-0.70908 0.772583,-1.19592 0.486834,-0.49741 1.143,-0.75141 0.656167,-0.254 1.407584,-0.254 0.455083,0 0.8255,0.0741 0.370416,0.0635 0.645583,0.14817 0.275167,0.0847 0.455083,0.17991 0.179917,0.0952 0.254,0.13759 l -0.391583,1.09008 q -0.254,-0.15875 -0.73025,-0.29633 -0.465667,-0.14817 -1.016,-0.14817 -0.47625,0 -0.889,0.16933 -0.41275,0.15875 -0.719667,0.48684 -0.296333,0.32808 -0.465666,0.8255 -0.169334,0.49741 -0.169334,1.15358 0,0.58208 0.127,1.06892 0.137584,0.48683 0.41275,0.84666 0.275167,0.34925 0.6985,0.55034 0.423334,0.1905 1.016,0.1905 0.709084,0 1.153584,-0.13759 0.4445,-0.14816 0.687916,-0.27516 l 0.359834,1.09008 q -0.127,0.0847 -0.34925,0.16933 -0.211667,0.0847 -0.508,0.16934 -0.296334,0.0741 -0.66675,0.11641 -0.370417,0.0529 -0.79375,0.0529 z" />
          <path
             inkscape:connector-curvature="0"
             id="path1505"
             style="font-style:normal;font-variant:normal;font-weight:500;font-stretch:normal;font-family:ubuntu;-inkscape-font-specification:'ubuntu Medium';stroke-width:0.26458332"
             d="m 31.393542,259.24729 q 0,0.37042 -0.254,0.60325 -0.243417,0.23284 -0.592667,0.23284 -0.359833,0 -0.60325,-0.23284 -0.243417,-0.23283 -0.243417,-0.60325 0,-0.37041 0.243417,-0.60325 0.243417,-0.24341 0.60325,-0.24341 0.34925,0 0.592667,0.24341 0.254,0.23284 0.254,0.60325 z m 0,3.95817 q 0,0.37042 -0.254,0.60325 -0.243417,0.23283 -0.592667,0.23283 -0.359833,0 -0.60325,-0.23283 -0.243417,-0.23283 -0.243417,-0.60325 0,-0.37042 0.243417,-0.60325 0.243417,-0.24342 0.60325,-0.24342 0.34925,0 0.592667,0.24342 0.254,0.23283 0.254,0.60325 z" />
          <path
             inkscape:connector-curvature="0"
             id="path1507"
             style="font-style:normal;font-variant:normal;font-weight:500;font-stretch:normal;font-family:ubuntu;-inkscape-font-specification:'ubuntu Medium';stroke-width:0.26458332"
             d="m 34.204739,259.24729 q 0,0.37042 -0.254,0.60325 -0.243417,0.23284 -0.592667,0.23284 -0.359833,0 -0.60325,-0.23284 -0.243416,-0.23283 -0.243416,-0.60325 0,-0.37041 0.243416,-0.60325 0.243417,-0.24341 0.60325,-0.24341 0.34925,0 0.592667,0.24341 0.254,0.23284 0.254,0.60325 z m 0,3.95817 q 0,0.37042 -0.254,0.60325 -0.243417,0.23283 -0.592667,0.23283 -0.359833,0 -0.60325,-0.23283 -0.243416,-0.23283 -0.243416,-0.60325 0,-0.37042 0.243416,-0.60325 0.243417,-0.24342 0.60325,-0.24342 0.34925,0 0.592667,0.24342 0.254,0.23283 0.254,0.60325 z" />
          <path
             inkscape:connector-curvature="0"
             id="path1509"
             style="font-style:normal;font-variant:normal;font-weight:500;font-stretch:normal;font-family:ubuntu;-inkscape-font-specification:'ubuntu Medium';stroke-width:0.26458332"
             d="m 37.852021,263.98863 q -0.582084,0 -1.17475,-0.0423 -0.592667,-0.0317 -1.037167,-0.14816 v -7.12259 q 0.232833,-0.0423 0.497417,-0.0741 0.264583,-0.0423 0.53975,-0.0635 0.275166,-0.0212 0.53975,-0.0317 0.275166,-0.0106 0.518583,-0.0106 0.66675,0 1.23825,0.10583 0.5715,0.0953 0.98425,0.32808 0.423333,0.23284 0.656166,0.61384 0.232834,0.381 0.232834,0.94191 0,0.51859 -0.254,0.889 -0.243417,0.37042 -0.687917,0.59267 0.66675,0.22225 0.98425,0.65617 0.3175,0.43391 0.3175,1.10066 0,1.13242 -0.8255,1.70392 -0.8255,0.56092 -2.529416,0.56092 z m -0.899584,-3.38667 v 2.23308 q 0.22225,0.0212 0.47625,0.0317 0.254,0.0106 0.465667,0.0106 0.41275,0 0.762,-0.0529 0.359833,-0.0529 0.613833,-0.17992 0.264583,-0.13758 0.41275,-0.35983 0.15875,-0.22225 0.15875,-0.5715 0,-0.62442 -0.455083,-0.86783 -0.455084,-0.24342 -1.259417,-0.24342 z m 0,-1.04775 h 0.941917 q 0.762,0 1.195916,-0.21167 0.433917,-0.22225 0.433917,-0.78316 0,-0.52917 -0.455083,-0.75142 -0.4445,-0.22225 -1.164167,-0.22225 -0.306916,0 -0.550333,0.0106 -0.232833,0.0106 -0.402167,0.0317 z" />
        </g>
      </g>
    </g>
  </g>
</svg>
