<?xml version="1.0" encoding="UTF-8" standalone="no"?>
<!-- Created with Inkscape (http://www.inkscape.org/) -->

<svg
   xmlns:dc="http://purl.org/dc/elements/1.1/"
   xmlns:cc="http://creativecommons.org/ns#"
   xmlns:rdf="http://www.w3.org/1999/02/22-rdf-syntax-ns#"
   xmlns:svg="http://www.w3.org/2000/svg"
   xmlns="http://www.w3.org/2000/svg"
   xmlns:xlink="http://www.w3.org/1999/xlink"
   xmlns:sodipodi="http://sodipodi.sourceforge.net/DTD/sodipodi-0.dtd"
   xmlns:inkscape="http://www.inkscape.org/namespaces/inkscape"
   width="256"
   height="256"
   viewBox="0 0 67.733332 67.733335"
   version="1.1"
   id="svg1037"
   inkscape:version="0.92.2 (unknown)"
   sodipodi:docname="2.svg">
  <defs
     id="defs1031">
    <radialGradient
       r="12.671875"
       fy="9.9571075"
       fx="6.2001843"
       cy="9.9571075"
       cx="6.7304144"
       gradientTransform="matrix(0,12.656524,-15.538168,0,189.51232,125.054)"
       gradientUnits="userSpaceOnUse"
       id="radialGradient4147-1"
       xlink:href="#linearGradient2867-449-88-871-390-598-476-591-434-148-57-177-8-3-3-6-4-8-8-8-5" />
    <linearGradient
       id="linearGradient2867-449-88-871-390-598-476-591-434-148-57-177-8-3-3-6-4-8-8-8-5">
      <stop
         id="stop3750-1-0-7-6-6-1-3-9-3"
         style="stop-color:#919caf;stop-opacity:1;"
         offset="0" />
      <stop
         id="stop3752-3-7-4-0-32-8-923-0-7"
         style="stop-color:#68758e;stop-opacity:1;"
         offset="0.26238" />
      <stop
         id="stop3754-1-8-5-2-7-6-7-1-9"
         style="stop-color:#485a6c;stop-opacity:1;"
         offset="0.704952" />
      <stop
         id="stop3756-1-6-2-6-6-1-96-6-0"
         style="stop-color:#444c5c;stop-opacity:1;"
         offset="1" />
    </linearGradient>
    <linearGradient
       gradientUnits="userSpaceOnUse"
       y2="119.09284"
       x2="-35.310345"
       y1="401.58368"
       x1="529.65515"
       id="linearGradient4226"
       xlink:href="#linearGradient2867-449-88-871-390-598-476-591-434-148-57-177-8-3-3-6-4-8-8-8-5"
       inkscape:collect="always"
       gradientTransform="matrix(0,-0.11988932,-0.11988589,0,67.016455,292.81288)" />
    <linearGradient
       inkscape:collect="always"
       xlink:href="#linearGradient4360"
       id="linearGradient4358"
       x1="88"
       y1="88"
       x2="488"
       y2="488"
       gradientUnits="userSpaceOnUse" />
    <linearGradient
       id="linearGradient4360"
       inkscape:collect="always">
      <stop
         id="stop4362"
         offset="0"
         style="stop-color:#000000;stop-opacity:0.58823532" />
      <stop
         style="stop-color:#000000;stop-opacity:0"
         offset="0.88"
         id="stop4364" />
      <stop
         id="stop4366"
         offset="1"
         style="stop-color:#000000;stop-opacity:1" />
    </linearGradient>
    <filter
       inkscape:collect="always"
       style="color-interpolation-filters:sRGB"
       id="filter4380"
       x="-0.052999184"
       width="1.1059984"
       y="-0.043862626"
       height="1.0877253">
      <feGaussianBlur
         inkscape:collect="always"
         stdDeviation="8.4801079"
         id="feGaussianBlur4382" />
    </filter>
    <filter
       inkscape:collect="always"
       style="color-interpolation-filters:sRGB"
       id="filter4346"
       x="-0.013249796"
       width="1.0264996"
       y="-0.010965657"
       height="1.0219313">
      <feGaussianBlur
         inkscape:collect="always"
         stdDeviation="2.120027"
         id="feGaussianBlur4348" />
    </filter>
  </defs>
  <sodipodi:namedview
     id="base"
     pagecolor="#ffffff"
     bordercolor="#666666"
     borderopacity="1.0"
     inkscape:pageopacity="0.0"
     inkscape:pageshadow="2"
     inkscape:zoom="3.2421875"
     inkscape:cx="44.234425"
     inkscape:cy="110.76297"
     inkscape:document-units="px"
     inkscape:current-layer="layer1"
     showgrid="true"
     units="px"
     inkscape:window-width="1920"
     inkscape:window-height="1013"
     inkscape:window-x="0"
     inkscape:window-y="34"
     inkscape:window-maximized="1">
    <inkscape:grid
       type="xygrid"
       id="grid1672" />
  </sodipodi:namedview>
  <metadata
     id="metadata1034">
    <rdf:RDF>
      <cc:Work
         rdf:about="">
        <dc:format>image/svg+xml</dc:format>
        <dc:type
           rdf:resource="http://purl.org/dc/dcmitype/StillImage" />
        <dc:title></dc:title>
      </cc:Work>
    </rdf:RDF>
  </metadata>
  <g
     inkscape:label="Livello 1"
     inkscape:groupmode="layer"
     id="layer1"
     transform="translate(0,-229.26665)">
    <path
       style="color:#000000;display:inline;overflow:visible;visibility:visible;opacity:0.1;fill:#000000;fill-opacity:1;fill-rule:nonzero;stroke:none;stroke-width:2;marker:none;filter:url(#filter4346);enable-background:accumulate"
       d="M 189.84323,74 C 119.24979,74 111.65402,81.250835 112,151.98706 V 298 444.01294 C 111.65402,514.74917 119.24979,522 189.84323,522 H 386.15677 C 456.75021,522 462.16345,514.72616 464,444.01294 V 298 151.98706 C 464,81.249993 456.75021,74 386.15677,74 Z"
       id="rect4158-9"
       inkscape:connector-curvature="0"
       sodipodi:nodetypes="scccssscsss"
       transform="matrix(0.13229167,0,0,0.13229167,-4.4096684,224.02122)" />
    <path
       sodipodi:nodetypes="scccssscsss"
       inkscape:connector-curvature="0"
       id="path4350"
       d="M 189.84323,74 C 119.24979,74 111.65402,81.250835 112,151.98706 V 298 444.01294 C 111.65402,514.74917 119.24979,522 189.84323,522 H 386.15677 C 456.75021,522 464,514.75001 464,444.01294 V 298 151.98706 C 464,81.249993 456.75021,74 386.15677,74 Z"
       style="color:#000000;display:inline;overflow:visible;visibility:visible;opacity:0.3;fill:url(#linearGradient4358);fill-opacity:1;fill-rule:nonzero;stroke:none;stroke-width:2;marker:none;filter:url(#filter4380);enable-background:accumulate"
       transform="matrix(0.13229167,0,0,0.13229167,-4.4096684,224.02122)" />
    <path
       style="color:#000000;display:inline;overflow:visible;visibility:visible;fill:url(#linearGradient4226);fill-opacity:1.0;fill-rule:nonzero;stroke:none;stroke-width:0.26458332;marker:none;enable-background:accumulate"
       d="m 46.674225,233.54622 c 9.338927,0 10.343782,0.95922 10.298012,10.31704 v 19.31629 19.3163 c 0.04577,9.35781 -0.959085,10.31704 -10.298012,10.31704 H 20.703582 c -9.338923,0 -10.298011,-0.95912 -10.298011,-10.31704 v -19.3163 -19.31629 c 0,-9.35793 0.959088,-10.31704 10.298011,-10.31704 z"
       id="rect4158"
       inkscape:connector-curvature="0"
       sodipodi:nodetypes="scccssscsss" />
    <path
       style="color:#000000;display:inline;overflow:visible;visibility:visible;opacity:0.07999998;fill:#ffffff;fill-opacity:1;fill-rule:nonzero;stroke:none;stroke-width:2.11666656;stroke-linecap:butt;stroke-linejoin:miter;stroke-miterlimit:4;stroke-dasharray:none;stroke-dashoffset:0;stroke-opacity:1;marker:none;enable-background:accumulate"
       d="m 41.098666,292.81289 15.875,-15.875 v 5.94886 c -0.01384,8.99472 -1.006126,9.92614 -10.100231,9.92614 z"
       id="path4254"
       inkscape:connector-curvature="0"
       sodipodi:nodetypes="cccsc" />
    <path
       style="color:#000000;display:inline;overflow:visible;visibility:visible;opacity:0.2;fill:#000000;fill-opacity:1;fill-rule:nonzero;stroke:none;stroke-width:0.26458332;marker:none;enable-background:accumulate"
       d="m 10.406999,281.96652 v 0.52917 c -0.04577,9.35781 0.959154,10.3172 10.29808,10.3172 h 25.970506 c 9.338924,0 10.055122,-0.96243 10.298081,-10.3172 v -0.52917 c -0.242959,9.35477 -0.959157,10.3172 -10.298081,10.3172 H 20.705079 c -9.338926,0 -10.343851,-0.95939 -10.29808,-10.3172 z"
       id="path945"
       inkscape:connector-curvature="0" />
    <path
       style="color:#000000;display:inline;overflow:visible;visibility:visible;opacity:0.4;fill:#ffffff;fill-opacity:1;fill-rule:nonzero;stroke:none;stroke-width:0.26458332;marker:none;enable-background:accumulate"
       d="m 20.705079,233.54622 c -9.338926,0 -10.343851,0.95939 -10.29808,10.3172 v 0.52916 c -0.04577,-9.35781 0.959154,-10.3172 10.29808,-10.3172 h 25.970506 c 9.338927,0 10.298081,0.95928 10.298081,10.3172 v -0.52916 c 0,-9.35793 -0.959154,-10.3172 -10.298081,-10.3172 z"
       id="path931"
       inkscape:connector-curvature="0" />
    <path
       style="color:#000000;clip-rule:nonzero;display:inline;overflow:visible;visibility:visible;opacity:1;isolation:auto;mix-blend-mode:normal;color-interpolation:sRGB;color-interpolation-filters:linearRGB;solid-color:#000000;solid-opacity:1;fill:#001939;fill-opacity:1;fill-rule:nonzero;stroke:none;stroke-width:0.77818555;stroke-linecap:butt;stroke-linejoin:miter;stroke-miterlimit:4;stroke-dasharray:none;stroke-dashoffset:0;stroke-opacity:1;marker:none;color-rendering:auto;image-rendering:auto;shape-rendering:auto;text-rendering:auto;enable-background:accumulate"
       d="m 31.799738,249.95041 c -0.340115,0 -0.623541,1.31361 -0.789911,3.19098 a 10.394336,10.394336 0 0 0 -2.511843,1.05569 c -1.450998,-1.21609 -2.584438,-1.95015 -2.825588,-1.70899 l -2.674254,2.67425 c -0.241147,0.24118 0.492925,1.37459 1.70901,2.8256 a 10.394336,10.394336 0 0 0 -1.046446,2.5118 c -1.882636,0.16618 -3.200245,0.44925 -3.200245,0.78993 v 3.77975 c 0,0.34011 1.31364,0.62357 3.191019,0.78991 a 10.394336,10.394336 0 0 0 1.051981,2.51739 c -1.21332,1.4484 -1.946181,2.5792 -1.705319,2.82005 l 2.674254,2.67426 c 0.240646,0.2406 1.370001,-0.49046 2.816362,-1.70164 a 10.394336,10.394336 0 0 0 2.521069,1.03909 c 0.166205,1.88261 0.449228,3.20023 0.789911,3.20023 h 3.779757 c 0.340114,0 0.623541,-1.31364 0.789911,-3.19102 a 10.394336,10.394336 0 0 0 2.511843,-1.05568 c 1.451001,1.21608 2.584442,1.95017 2.825591,1.70902 l 2.674252,-2.67426 c 0.241149,-0.24117 -0.492924,-1.37459 -1.709012,-2.82558 a 10.394336,10.394336 0 0 0 1.046445,-2.51186 c 1.882638,-0.16616 3.200249,-0.44919 3.200249,-0.78991 v -3.77975 c 0,-0.34009 -1.31364,-0.62353 -3.191018,-0.78993 a 10.394336,10.394336 0 0 0 -1.051985,-2.51737 c 1.213323,-1.4484 1.946182,-2.57919 1.705321,-2.82003 l -2.674252,-2.67426 c -0.240647,-0.2406 -1.370002,0.49047 -2.816365,1.70161 a 10.394336,10.394336 0 0 0 -2.521069,-1.03906 c -0.166206,-1.88265 -0.449229,-3.20022 -0.789911,-3.20022 z m 1.889879,8.50443 a 4.7246982,4.7246982 0 0 1 4.724698,4.7247 4.7246982,4.7246982 0 0 1 -4.724698,4.7247 4.7246982,4.7246982 0 0 1 -4.724698,-4.7247 4.7246982,4.7246982 0 0 1 4.724698,-4.7247 z"
       id="path4690"
       inkscape:connector-curvature="0" />
    <path
       style="color:#000000;display:inline;overflow:visible;visibility:visible;opacity:0.07999998;fill:#ffffff;fill-opacity:1;fill-rule:nonzero;stroke:none;stroke-width:0.26458332;marker:none;enable-background:accumulate"
       d="m 33.690332,233.54622 v 59.26667 h 12.985253 c 9.338924,0 10.055122,-0.96217 10.298081,-10.31695 v -19.31639 -19.31639 c 0,-9.35792 -0.959157,-10.31694 -10.298081,-10.31694 z"
       id="path4231"
       inkscape:connector-curvature="0"
       sodipodi:nodetypes="ccsscssc" />
    <path
       inkscape:connector-curvature="0"
       style="color:#000000;display:inline;overflow:visible;visibility:visible;opacity:0.07999998;fill:#ffffff;fill-opacity:1;fill-rule:nonzero;stroke:none;stroke-width:0.26458332;marker:none;enable-background:accumulate"
       d="m 10.406999,263.17955 v 19.31639 c -0.04577,9.35782 0.959155,10.31695 10.29808,10.31695 h 25.970506 c 9.338924,0 10.055122,-0.96217 10.298081,-10.31695 v -19.31639 z"
       id="path4255"
       sodipodi:nodetypes="ccssscc" />
  </g>
</svg>
