<?xml version="1.0" encoding="UTF-8" standalone="no"?>
<!-- Created with Inkscape (http://www.inkscape.org/) -->

<svg
   xmlns:dc="http://purl.org/dc/elements/1.1/"
   xmlns:cc="http://creativecommons.org/ns#"
   xmlns:rdf="http://www.w3.org/1999/02/22-rdf-syntax-ns#"
   xmlns:svg="http://www.w3.org/2000/svg"
   xmlns="http://www.w3.org/2000/svg"
   xmlns:xlink="http://www.w3.org/1999/xlink"
   xmlns:sodipodi="http://sodipodi.sourceforge.net/DTD/sodipodi-0.dtd"
   xmlns:inkscape="http://www.inkscape.org/namespaces/inkscape"
   width="256"
   height="256"
   viewBox="0 0 67.733332 67.733335"
   version="1.1"
   id="svg1037"
   inkscape:version="0.92.3 (2405546, 2018-03-11)"
   sodipodi:docname="application-illustrator.svg">
  <defs
     id="defs1031">
    <radialGradient
       r="12.671875"
       fy="9.9571075"
       fx="6.2001843"
       cy="9.9571075"
       cx="6.7304144"
       gradientTransform="matrix(0,12.656524,-15.538168,0,189.51232,125.054)"
       gradientUnits="userSpaceOnUse"
       id="radialGradient4147-1"
       xlink:href="#linearGradient2867-449-88-871-390-598-476-591-434-148-57-177-8-3-3-6-4-8-8-8-5" />
    <linearGradient
       id="linearGradient2867-449-88-871-390-598-476-591-434-148-57-177-8-3-3-6-4-8-8-8-5">
      <stop
         id="stop3750-1-0-7-6-6-1-3-9-3"
         style="stop-color:#919caf;stop-opacity:1;"
         offset="0" />
      <stop
         id="stop3752-3-7-4-0-32-8-923-0-7"
         style="stop-color:#68758e;stop-opacity:1;"
         offset="0.26238" />
      <stop
         id="stop3754-1-8-5-2-7-6-7-1-9"
         style="stop-color:#485a6c;stop-opacity:1;"
         offset="0.704952" />
      <stop
         id="stop3756-1-6-2-6-6-1-96-6-0"
         style="stop-color:#444c5c;stop-opacity:1;"
         offset="1" />
    </linearGradient>
    <linearGradient
       inkscape:collect="always"
       xlink:href="#linearGradient4338"
       id="linearGradient1144"
       x1="208"
       y1="28"
       x2="96"
       y2="284"
       gradientUnits="userSpaceOnUse"
       gradientTransform="matrix(-0.26458333,0,0,0.26458333,73.905961,221.63997)" />
    <linearGradient
       inkscape:collect="always"
       id="linearGradient4338">
      <stop
         style="stop-color:#261300;stop-opacity:1"
         offset="0"
         id="stop4340" />
      <stop
         style="stop-color:#4e2e0e;stop-opacity:1"
         offset="1"
         id="stop4342" />
    </linearGradient>
    <linearGradient
       gradientUnits="userSpaceOnUse"
       y2="119.09284"
       x2="-35.310345"
       y1="401.58368"
       x1="529.65515"
       id="linearGradient4226"
       xlink:href="#linearGradient7723"
       inkscape:collect="always"
       gradientTransform="matrix(0,-0.11988932,-0.11988589,0,67.016455,292.5483)" />
    <linearGradient
       id="linearGradient7723">
      <stop
         id="stop7721"
         style="stop-color:#ff7c00;stop-opacity:1"
         offset="0" />
      <stop
         id="stop7715"
         style="stop-color:#ffb977;stop-opacity:1"
         offset="1" />
    </linearGradient>
    <linearGradient
       inkscape:collect="always"
       xlink:href="#linearGradient4360"
       id="linearGradient4358"
       x1="88"
       y1="88"
       x2="488"
       y2="488"
       gradientUnits="userSpaceOnUse" />
    <linearGradient
       id="linearGradient4360"
       inkscape:collect="always">
      <stop
         id="stop4362"
         offset="0"
         style="stop-color:#000000;stop-opacity:0.58823532" />
      <stop
         style="stop-color:#000000;stop-opacity:0"
         offset="0.88"
         id="stop4364" />
      <stop
         id="stop4366"
         offset="1"
         style="stop-color:#000000;stop-opacity:1" />
    </linearGradient>
    <filter
       inkscape:collect="always"
       style="color-interpolation-filters:sRGB"
       id="filter4380"
       x="-0.052999184"
       width="1.1059984"
       y="-0.043862626"
       height="1.0877253">
      <feGaussianBlur
         inkscape:collect="always"
         stdDeviation="8.4801079"
         id="feGaussianBlur4382" />
    </filter>
    <filter
       inkscape:collect="always"
       style="color-interpolation-filters:sRGB"
       id="filter4346"
       x="-0.013249796"
       width="1.0264996"
       y="-0.010965657"
       height="1.0219313">
      <feGaussianBlur
         inkscape:collect="always"
         stdDeviation="2.120027"
         id="feGaussianBlur4348" />
    </filter>
  </defs>
  <sodipodi:namedview
     id="base"
     pagecolor="#ffffff"
     bordercolor="#666666"
     borderopacity="1.0"
     inkscape:pageopacity="0.0"
     inkscape:pageshadow="2"
     inkscape:zoom="3.2421875"
     inkscape:cx="-100.08675"
     inkscape:cy="191.84778"
     inkscape:document-units="px"
     inkscape:current-layer="layer1"
     showgrid="true"
     units="px"
     inkscape:window-width="1920"
     inkscape:window-height="1009"
     inkscape:window-x="0"
     inkscape:window-y="34"
     inkscape:window-maximized="1">
    <inkscape:grid
       type="xygrid"
       id="grid1672" />
  </sodipodi:namedview>
  <metadata
     id="metadata1034">
    <rdf:RDF>
      <cc:Work
         rdf:about="">
        <dc:format>image/svg+xml</dc:format>
        <dc:type
           rdf:resource="http://purl.org/dc/dcmitype/StillImage" />
        <dc:title></dc:title>
      </cc:Work>
    </rdf:RDF>
  </metadata>
  <g
     inkscape:label="Livello 1"
     inkscape:groupmode="layer"
     id="layer1"
     transform="translate(0,-229.26665)">
    <path
       style="color:#000000;display:inline;overflow:visible;visibility:visible;opacity:0.1;fill:#000000;fill-opacity:1;fill-rule:nonzero;stroke:none;stroke-width:2;marker:none;filter:url(#filter4346);enable-background:accumulate"
       d="M 189.84323,74 C 119.24979,74 111.65402,81.250835 112,151.98706 V 298 444.01294 C 111.65402,514.74917 119.24979,522 189.84323,522 H 386.15677 C 456.75021,522 462.16345,514.72616 464,444.01294 V 298 151.98706 C 464,81.249993 456.75021,74 386.15677,74 Z"
       id="rect4158-9"
       inkscape:connector-curvature="0"
       sodipodi:nodetypes="scccssscsss"
       transform="matrix(0.13229167,0,0,0.13229167,-4.4096684,223.75664)" />
    <path
       sodipodi:nodetypes="scccssscsss"
       inkscape:connector-curvature="0"
       id="path4350"
       d="M 189.84323,74 C 119.24979,74 111.65402,81.250835 112,151.98706 V 298 444.01294 C 111.65402,514.74917 119.24979,522 189.84323,522 H 386.15677 C 456.75021,522 464,514.75001 464,444.01294 V 298 151.98706 C 464,81.249993 456.75021,74 386.15677,74 Z"
       style="color:#000000;display:inline;overflow:visible;visibility:visible;opacity:0.3;fill:url(#linearGradient4358);fill-opacity:1;fill-rule:nonzero;stroke:none;stroke-width:2;marker:none;filter:url(#filter4380);enable-background:accumulate"
       transform="matrix(0.13229167,0,0,0.13229167,-4.4096684,223.75664)" />
    <path
       style="color:#000000;display:inline;overflow:visible;visibility:visible;fill:url(#linearGradient4226);fill-opacity:1;fill-rule:nonzero;stroke:none;stroke-width:0.26458332;marker:none;enable-background:accumulate"
       d="m 46.674225,233.28164 c 9.338927,0 10.343782,0.95922 10.298012,10.31704 v 19.31629 19.3163 c 0.04577,9.35781 -0.959085,10.31704 -10.298012,10.31704 H 20.703582 c -9.338923,0 -10.298011,-0.95912 -10.298011,-10.31704 v -19.3163 -19.31629 c 0,-9.35793 0.959088,-10.31704 10.298011,-10.31704 z"
       id="rect4158"
       inkscape:connector-curvature="0"
       sodipodi:nodetypes="scccssscsss" />
    <path
       style="color:#000000;font-style:normal;font-variant:normal;font-weight:normal;font-stretch:normal;font-size:medium;line-height:normal;font-family:sans-serif;font-variant-ligatures:normal;font-variant-position:normal;font-variant-caps:normal;font-variant-numeric:normal;font-variant-alternates:normal;font-feature-settings:normal;text-indent:0;text-align:start;text-decoration:none;text-decoration-line:none;text-decoration-style:solid;text-decoration-color:#000000;letter-spacing:normal;word-spacing:normal;text-transform:none;writing-mode:lr-tb;direction:ltr;text-orientation:mixed;dominant-baseline:auto;baseline-shift:baseline;text-anchor:start;white-space:normal;shape-padding:0;clip-rule:nonzero;display:inline;overflow:visible;visibility:visible;opacity:1;isolation:auto;mix-blend-mode:normal;color-interpolation:sRGB;color-interpolation-filters:linearRGB;solid-color:#000000;solid-opacity:1;vector-effect:none;fill:url(#linearGradient1144);fill-opacity:1;fill-rule:nonzero;stroke:none;stroke-width:4.23333311;stroke-linecap:butt;stroke-linejoin:miter;stroke-miterlimit:4;stroke-dasharray:none;stroke-dashoffset:0;stroke-opacity:1;marker:none;color-rendering:auto;image-rendering:auto;shape-rendering:auto;text-rendering:auto;enable-background:accumulate"
       d="m 46.674548,235.3983 c 2.298502,0 4.03334,0.07 5.204852,0.26666 1.171514,0.19665 1.676542,0.47317 1.968354,0.76429 0.291814,0.29113 0.566095,0.78897 0.760161,1.95647 0.194067,1.16749 0.259305,2.90139 0.248047,5.20278 v 0.005 19.3213 19.3213 0.005 c 0.01125,2.3014 -0.05398,4.03529 -0.248047,5.20278 -0.194066,1.1675 -0.468347,1.66535 -0.760161,1.95648 -0.291812,0.29112 -0.79684,0.56764 -1.968354,0.76429 -1.171512,0.19666 -2.90635,0.26666 -5.204852,0.26666 H 33.689295 20.705074 c -2.298498,0 -4.033337,-0.07 -5.204848,-0.26665 -1.171515,-0.19665 -1.676546,-0.47317 -1.968358,-0.7643 -0.291814,-0.29112 -0.566091,-0.78897 -0.760158,-1.95647 -0.187719,-1.12931 -0.253008,-2.80069 -0.247015,-4.99091 -2.1e-5,-0.0105 -4.5e-4,-0.0199 -5.03e-4,-0.03 -5.02e-4,-0.0647 -0.0016,-0.12395 -0.0016,-0.19223 v -19.31614 -15.875 l 0.001,-0.001 v -3.44527 -0.005 c -0.01125,-2.30139 0.05398,-4.03528 0.248047,-5.20278 0.194067,-1.1675 0.468344,-1.66534 0.760159,-1.95647 0.291811,-0.29112 0.796843,-0.56764 1.968357,-0.76429 1.171511,-0.19666 2.90635,-0.26666 5.204848,-0.26666 h 12.984291 z"
       id="path1117"
       inkscape:connector-curvature="0" />
    <path
       style="color:#000000;display:inline;overflow:visible;visibility:visible;opacity:0.2;fill:#000000;fill-opacity:1;fill-rule:nonzero;stroke:none;stroke-width:0.26458332;marker:none;enable-background:accumulate"
       d="m 10.406999,281.70194 v 0.52917 c -0.04577,9.35781 0.959154,10.3172 10.29808,10.3172 h 25.970506 c 9.338924,0 10.055122,-0.96243 10.298081,-10.3172 v -0.52917 c -0.242959,9.35477 -0.959157,10.3172 -10.298081,10.3172 H 20.705079 c -9.338926,0 -10.343851,-0.95939 -10.29808,-10.3172 z"
       id="path945"
       inkscape:connector-curvature="0" />
    <path
       style="display:inline;fill:#ff7c00;stroke-width:0.19402778;enable-background:new"
       inkscape:connector-curvature="0"
       id="path8"
       d="m 26.568799,266.18699 -1.532821,5.82083 c -0.0388,0.15522 -0.09701,0.19403 -0.291042,0.19403 h -2.852208 c -0.194027,0 -0.232834,-0.0582 -0.194027,-0.29104 l 5.51039,-19.28637 c 0.09701,-0.34925 0.15522,-0.65969 0.194027,-1.61043 0,-0.13582 0.05821,-0.19402 0.155223,-0.19402 h 4.074583 c 0.135819,0 0.194027,0.0388 0.232833,0.19402 l 6.170084,20.9356 c 0.0388,0.15523 0,0.25224 -0.155223,0.25224 h -3.22086 c -0.155223,0 -0.252238,-0.0388 -0.291042,-0.17463 l -1.610432,-5.84023 z m 5.393971,-3.14325 c -0.543277,-2.15371 -1.823861,-6.84919 -2.308929,-9.11931 h -0.03881 c -0.407458,2.27012 -1.435806,6.11188 -2.250723,9.11931 z m 8.73125,-10.78795 c 0,-1.24178 0.873125,-1.97908 1.979083,-1.97908 1.183572,0 1.979084,0.79551 1.979084,1.97908 0,1.28059 -0.834319,1.97909 -2.017887,1.97909 -1.125363,0 -1.94028,-0.6985 -1.94028,-1.97909 z m 0.232833,4.40443 c 0,-0.15522 0.05821,-0.23283 0.232834,-0.23283 h 3.046238 c 0.15522,0 0.232833,0.0582 0.232833,0.23283 v 15.30879 c 0,0.15523 -0.03881,0.23284 -0.232833,0.23284 h -3.007432 c -0.194027,0 -0.252235,-0.097 -0.252235,-0.25224 v -15.28939 z"
       class="st1" />
    <path
       inkscape:connector-curvature="0"
       style="color:#000000;display:inline;overflow:visible;visibility:visible;opacity:0.05;fill:#ffffff;fill-opacity:1;fill-rule:nonzero;stroke:none;stroke-width:0.26458332;marker:none;enable-background:accumulate"
       d="m 10.406999,262.91497 v 19.31639 c -0.04577,9.35782 0.959155,10.31695 10.29808,10.31695 h 25.970506 c 9.338924,0 10.055122,-0.96217 10.298081,-10.31695 v -19.31639 z"
       id="path4255"
       sodipodi:nodetypes="ccssscc" />
    <path
       style="color:#000000;display:inline;overflow:visible;visibility:visible;opacity:0.05;fill:#ffffff;fill-opacity:1;fill-rule:nonzero;stroke:none;stroke-width:0.26458332;marker:none;enable-background:accumulate"
       d="m 33.688972,233.28164 v 59.26667 h 12.985253 c 9.338924,0 10.055122,-0.96217 10.298081,-10.31695 v -19.31639 -19.31639 c 0,-9.35793 -0.959157,-10.31694 -10.298081,-10.31694 z"
       id="path4231"
       inkscape:connector-curvature="0"
       sodipodi:nodetypes="ccsscssc" />
    <path
       style="color:#000000;display:inline;overflow:visible;visibility:visible;opacity:0.1;fill:#ffffff;fill-opacity:1;fill-rule:nonzero;stroke:none;stroke-width:2.11666656;stroke-linecap:butt;stroke-linejoin:miter;stroke-miterlimit:4;stroke-dasharray:none;stroke-dashoffset:0;stroke-opacity:1;marker:none;enable-background:accumulate"
       d="m 41.098666,292.54831 15.875,-15.875 v 5.94886 c -0.01384,8.99472 -1.006126,9.92614 -10.100231,9.92614 z"
       id="path4254"
       inkscape:connector-curvature="0"
       sodipodi:nodetypes="cccsc" />
    <path
       style="color:#000000;display:inline;overflow:visible;visibility:visible;opacity:0.4;fill:#ffffff;fill-opacity:1;fill-rule:nonzero;stroke:none;stroke-width:0.26458332;marker:none;enable-background:accumulate"
       d="m 20.705079,233.28164 c -9.338926,0 -10.343851,0.95939 -10.29808,10.3172 v 0.52916 c -0.04577,-9.35781 0.959154,-10.3172 10.29808,-10.3172 h 25.970506 c 9.338927,0 10.298081,0.95928 10.298081,10.3172 v -0.52916 c 0,-9.35793 -0.959154,-10.3172 -10.298081,-10.3172 z"
       id="path931"
       inkscape:connector-curvature="0" />
  </g>
</svg>
