<?xml version="1.0" encoding="UTF-8" standalone="no"?>
<!-- Created with Inkscape (http://www.inkscape.org/) -->

<svg
   xmlns:dc="http://purl.org/dc/elements/1.1/"
   xmlns:cc="http://creativecommons.org/ns#"
   xmlns:rdf="http://www.w3.org/1999/02/22-rdf-syntax-ns#"
   xmlns:svg="http://www.w3.org/2000/svg"
   xmlns="http://www.w3.org/2000/svg"
   xmlns:xlink="http://www.w3.org/1999/xlink"
   xmlns:sodipodi="http://sodipodi.sourceforge.net/DTD/sodipodi-0.dtd"
   xmlns:inkscape="http://www.inkscape.org/namespaces/inkscape"
   width="256"
   height="256"
   viewBox="0 0 67.733332 67.733335"
   version="1.1"
   id="svg969"
   inkscape:version="0.92.3 (2405546, 2018-03-11)"
   sodipodi:docname="text-less.svg">
  <defs
     id="defs963">
    <linearGradient
       x1="640"
       y1="632.99835"
       x2="640"
       y2="688.52026"
       id="linearGradient21626"
       xlink:href="#linearGradient13214"
       gradientUnits="userSpaceOnUse"
       gradientTransform="matrix(2,0,0,2,-711,-2873.64)" />
    <linearGradient
       id="linearGradient13214">
      <stop
         id="stop13216"
         style="stop-color:#18a303;stop-opacity:1"
         offset="0" />
      <stop
         id="stop13218"
         style="stop-color:#106802;stop-opacity:1"
         offset="1" />
    </linearGradient>
    <linearGradient
       id="linearGradient8074-2">
      <stop
         id="stop8076-1"
         style="stop-color:#000000;stop-opacity:0"
         offset="0" />
      <stop
         id="stop8078-94"
         style="stop-color:#000000;stop-opacity:1"
         offset="0.49305555" />
      <stop
         id="stop8080-0"
         style="stop-color:#000000;stop-opacity:0"
         offset="1" />
    </linearGradient>
    <linearGradient
       id="linearGradient8903">
      <stop
         id="stop8905"
         style="stop-color:#008000;stop-opacity:1"
         offset="0" />
      <stop
         id="stop8907"
         style="stop-color:#00ff00;stop-opacity:0"
         offset="1" />
    </linearGradient>
    <linearGradient
       x1="152"
       y1="-1192.6378"
       x2="113.88176"
       y2="-1230.7561"
       id="linearGradient21634"
       xlink:href="#linearGradient8586-6"
       gradientUnits="userSpaceOnUse"
       gradientTransform="matrix(0.731707,0,0,0.731707,-637.22,-625.976)" />
    <linearGradient
       id="linearGradient8586-6">
      <stop
         id="stop8588-3"
         style="stop-color:#125a00;stop-opacity:1"
         offset="0" />
      <stop
         id="stop8592-6"
         style="stop-color:#69ce00;stop-opacity:0"
         offset="1" />
    </linearGradient>
    <linearGradient
       x1="-17"
       y1="-1194.6378"
       x2="144"
       y2="-1194.6378"
       id="linearGradient21636"
       xlink:href="#linearGradient8074-2"
       gradientUnits="userSpaceOnUse"
       gradientTransform="matrix(0.73913,0,0,1,538.565,-303)" />
    <radialGradient
       cx="-1535.3044"
       cy="-853"
       r="10"
       fx="-1535.3044"
       fy="-853"
       id="radialGradient21638"
       xlink:href="#linearGradient7770"
       gradientUnits="userSpaceOnUse"
       gradientTransform="matrix(-3.31574,0,0,-4.65,-3490.73,-4550.95)" />
    <linearGradient
       id="linearGradient7770">
      <stop
         id="stop7772"
         style="stop-color:#ffffff;stop-opacity:1"
         offset="0" />
      <stop
         id="stop7774"
         style="stop-color:#f5ffaa;stop-opacity:0"
         offset="1" />
    </linearGradient>
    <linearGradient
       x1="-17"
       y1="-1194.6378"
       x2="144"
       y2="-1194.6378"
       id="linearGradient21640"
       xlink:href="#linearGradient8074-2"
       gradientUnits="userSpaceOnUse"
       gradientTransform="matrix(0.484472,0,0,1,583.236,-297)" />
    <linearGradient
       x1="652.25"
       y1="-1491.6378"
       x2="652.25"
       y2="-1548.1383"
       id="linearGradient21642"
       xlink:href="#linearGradient14610"
       gradientUnits="userSpaceOnUse" />
    <linearGradient
       id="linearGradient14610">
      <stop
         id="stop14612"
         style="stop-color:#808080;stop-opacity:1"
         offset="0" />
      <stop
         id="stop14614"
         style="stop-color:#b3b3b3;stop-opacity:1"
         offset="1" />
    </linearGradient>
    <linearGradient
       x1="714"
       y1="-1063.6378"
       x2="714"
       y2="-1083.6378"
       id="linearGradient21644"
       xlink:href="#linearGradient4338"
       gradientUnits="userSpaceOnUse"
       gradientTransform="matrix(1.89744,0,0,2.6,-777.769,1271.82)" />
    <linearGradient
       inkscape:collect="always"
       id="linearGradient4338">
      <stop
         style="stop-color:#f2f2f2;stop-opacity:1"
         offset="0"
         id="stop4340" />
      <stop
         style="stop-color:#ffffff;stop-opacity:1"
         offset="1"
         id="stop4342" />
    </linearGradient>
    <radialGradient
       inkscape:collect="always"
       xlink:href="#linearGradient16134-3-1"
       id="radialGradient1976"
       gradientUnits="userSpaceOnUse"
       gradientTransform="matrix(0,0.377844,-0.665,-9.14811e-5,85.1409,-1556.34)"
       cx="152.3331"
       cy="-754.6377"
       fx="152.3331"
       fy="-754.6377"
       r="15" />
    <linearGradient
       id="linearGradient16134-3-1">
      <stop
         id="stop16136-6-3"
         style="stop-color:#000000;stop-opacity:0.50196099"
         offset="0" />
      <stop
         id="stop16138-4-6"
         style="stop-color:#000000;stop-opacity:0"
         offset="1" />
    </linearGradient>
    <radialGradient
       inkscape:collect="always"
       xlink:href="#linearGradient16134-3-1"
       id="radialGradient1821"
       gradientUnits="userSpaceOnUse"
       gradientTransform="matrix(0,0.377844,-0.665,-9.14811e-5,85.1409,-1556.34)"
       cx="152.3331"
       cy="-754.6377"
       fx="152.3331"
       fy="-754.6377"
       r="15" />
    <radialGradient
       inkscape:collect="always"
       xlink:href="#linearGradient16134-3-1"
       id="radialGradient1829"
       gradientUnits="userSpaceOnUse"
       gradientTransform="matrix(0,0.377844,-0.665,-9.14811e-5,85.1409,-1556.34)"
       cx="152.3331"
       cy="-754.6377"
       fx="152.3331"
       fy="-754.6377"
       r="15" />
    <radialGradient
       inkscape:collect="always"
       xlink:href="#linearGradient16134-3-1"
       id="radialGradient1837"
       gradientUnits="userSpaceOnUse"
       gradientTransform="matrix(0,0.377844,-0.665,-9.14811e-5,85.1409,-1556.34)"
       cx="152.3331"
       cy="-754.6377"
       fx="152.3331"
       fy="-754.6377"
       r="15" />
    <linearGradient
       x1="152"
       y1="-1192.6378"
       x2="113.88176"
       y2="-1230.7561"
       id="linearGradient21646"
       xlink:href="#linearGradient7931-2"
       gradientUnits="userSpaceOnUse"
       gradientTransform="matrix(0.609756,0,0,0.609756,557.317,-767.42)" />
    <linearGradient
       id="linearGradient7931-2">
      <stop
         id="stop7933-1"
         style="stop-color:#000000;stop-opacity:1"
         offset="0" />
      <stop
         id="stop7968-3"
         style="stop-color:#000000;stop-opacity:0.36078399"
         offset="0.45461464" />
      <stop
         id="stop7935-7"
         style="stop-color:#000000;stop-opacity:0"
         offset="1" />
    </linearGradient>
    <radialGradient
       inkscape:collect="always"
       xlink:href="#linearGradient16134-3-1"
       id="radialGradient1899"
       gradientUnits="userSpaceOnUse"
       gradientTransform="matrix(0,0.377844,-0.665,-9.14811e-5,85.1409,-1556.34)"
       cx="152.3331"
       cy="-754.6377"
       fx="152.3331"
       fy="-754.6377"
       r="15" />
    <linearGradient
       x1="525.63947"
       y1="-1078.6444"
       x2="525.63947"
       y2="-1068.7872"
       id="linearGradient21652"
       xlink:href="#linearGradient9364"
       gradientUnits="userSpaceOnUse"
       gradientTransform="matrix(1.71429,0,0,3.33333,-316.429,5092.43)" />
    <linearGradient
       id="linearGradient9364">
      <stop
         id="stop9366"
         style="stop-color:#63bbee;stop-opacity:1"
         offset="0" />
      <stop
         id="stop9368"
         style="stop-color:#aadcf7;stop-opacity:1"
         offset="1" />
    </linearGradient>
    <linearGradient
       x1="525.63947"
       y1="-1078.6444"
       x2="525.63947"
       y2="-1068.7872"
       id="linearGradient21654"
       xlink:href="#linearGradient6989-5"
       gradientUnits="userSpaceOnUse"
       gradientTransform="matrix(1.71429,0,0,4.44444,-298.429,6290.36)" />
    <linearGradient
       id="linearGradient6989-5">
      <stop
         id="stop6991-5"
         offset="0"
         style="stop-color: rgb(240, 158, 111); stop-opacity: 1;" />
      <stop
         id="stop6993-1"
         offset="1"
         style="stop-color: rgb(249, 207, 181); stop-opacity: 1;" />
    </linearGradient>
    <linearGradient
       x1="525.63947"
       y1="-1078.6444"
       x2="525.63947"
       y2="-1068.7872"
       id="linearGradient21656"
       xlink:href="#linearGradient6975-88"
       gradientUnits="userSpaceOnUse"
       gradientTransform="matrix(1.71429,0,0,2,-280.429,3654.91)" />
    <linearGradient
       id="linearGradient6975-88">
      <stop
         id="stop6977-8"
         offset="0"
         style="stop-color: rgb(245, 206, 83); stop-opacity: 1;" />
      <stop
         id="stop6979-6"
         offset="1"
         style="stop-color: rgb(253, 233, 169); stop-opacity: 1;" />
    </linearGradient>
    <linearGradient
       x1="525.63947"
       y1="-1078.6444"
       x2="525.63947"
       y2="-1068.7872"
       id="linearGradient21658"
       xlink:href="#linearGradient13220"
       gradientUnits="userSpaceOnUse"
       gradientTransform="matrix(1.71429,0,0,2.88889,-262.429,4613.26)" />
    <linearGradient
       id="linearGradient13220">
      <stop
         id="stop13222"
         style="stop-color:#8ee780;stop-opacity:1"
         offset="0" />
      <stop
         id="stop13224"
         style="stop-color:#ccf4c6;stop-opacity:1"
         offset="1" />
    </linearGradient>
    <linearGradient
       x1="529.25"
       y1="-1568.6378"
       x2="535"
       y2="-1574.6379"
       id="linearGradient21660"
       xlink:href="#linearGradient8989"
       gradientUnits="userSpaceOnUse"
       gradientTransform="matrix(0.833333,0,0,2.33333,141.167,2160.52)" />
    <linearGradient
       id="linearGradient8989">
      <stop
         id="stop8991"
         style="stop-color:#4a00ff;stop-opacity:1"
         offset="0" />
      <stop
         id="stop8993"
         style="stop-color:#00a0c1;stop-opacity:0"
         offset="1" />
    </linearGradient>
    <linearGradient
       x1="529.25"
       y1="-1568.6378"
       x2="535"
       y2="-1574.6378"
       id="linearGradient21662"
       xlink:href="#linearGradient9109"
       gradientUnits="userSpaceOnUse"
       gradientTransform="matrix(0.833333,0,0,3.16667,159.167,3467.72)" />
    <linearGradient
       id="linearGradient9109">
      <stop
         id="stop9111"
         style="stop-color:#800000;stop-opacity:1"
         offset="0" />
      <stop
         id="stop9113"
         style="stop-color:#ffc600;stop-opacity:0"
         offset="1" />
    </linearGradient>
    <linearGradient
       id="linearGradient9014">
      <stop
         id="stop9016"
         style="stop-color:#ffffff;stop-opacity:0"
         offset="0" />
      <stop
         id="stop9018"
         style="stop-color:#ffffff;stop-opacity:1"
         offset="0.49305555" />
      <stop
         id="stop9020"
         style="stop-color:#ffffff;stop-opacity:0"
         offset="1" />
    </linearGradient>
    <linearGradient
       x1="-17"
       y1="-1194.6378"
       x2="144"
       y2="-1194.6378"
       id="linearGradient21666"
       xlink:href="#linearGradient8074-2"
       gradientUnits="userSpaceOnUse"
       gradientTransform="matrix(0.459627,0,0,1,584.814,-303)" />
    <linearGradient
       x1="-17"
       y1="-1194.6378"
       x2="144"
       y2="-1194.6378"
       id="linearGradient21668"
       xlink:href="#linearGradient9014"
       gradientUnits="userSpaceOnUse"
       gradientTransform="matrix(0.459627,0,0,1,584.814,-300)" />
    <linearGradient
       x1="529.25"
       y1="-1568.6378"
       x2="535"
       y2="-1574.6379"
       id="linearGradient21670"
       xlink:href="#linearGradient9103"
       gradientUnits="userSpaceOnUse"
       gradientTransform="matrix(0.833333,0,0,2,195.167,1637.64)" />
    <linearGradient
       id="linearGradient9103">
      <stop
         id="stop9105"
         style="stop-color:#003362;stop-opacity:1"
         offset="0" />
      <stop
         id="stop9107"
         style="stop-color:#00ff8c;stop-opacity:0"
         offset="1" />
    </linearGradient>
    <linearGradient
       x1="529.25"
       y1="-1568.6378"
       x2="535"
       y2="-1574.6379"
       id="linearGradient21672"
       xlink:href="#linearGradient9119"
       gradientUnits="userSpaceOnUse"
       gradientTransform="matrix(0.833333,0,0,1.33333,177.167,591.879)" />
    <linearGradient
       id="linearGradient9119">
      <stop
         id="stop9121"
         style="stop-color:#ff0000;stop-opacity:1"
         offset="0" />
      <stop
         id="stop9123"
         style="stop-color:#d3d300;stop-opacity:0"
         offset="1" />
    </linearGradient>
    <linearGradient
       id="linearGradient7723">
      <stop
         id="stop7721"
         style="stop-color:#2e851b;stop-opacity:1"
         offset="0" />
      <stop
         id="stop7715"
         style="stop-color:#18a003;stop-opacity:1"
         offset="1" />
    </linearGradient>
    <linearGradient
       x1="298"
       y1="-1587.6377"
       x2="298"
       y2="-1507.6377"
       id="linearGradient8652-8-2"
       xlink:href="#linearGradient19846-7"
       gradientUnits="userSpaceOnUse" />
    <linearGradient
       id="linearGradient19846-7">
      <stop
         id="stop19848-1"
         style="stop-color:#259dd2;stop-opacity:1"
         offset="0" />
      <stop
         id="stop19850-7"
         style="stop-color:#025583;stop-opacity:1"
         offset="1" />
    </linearGradient>
    <linearGradient
       x1="298"
       y1="-1571.1794"
       x2="298"
       y2="-1497.5724"
       id="linearGradient8652-2"
       xlink:href="#linearGradient19846"
       gradientUnits="userSpaceOnUse" />
    <linearGradient
       id="linearGradient19846">
      <stop
         id="stop19848"
         style="stop-color:#259dd2;stop-opacity:1"
         offset="0" />
      <stop
         id="stop19850"
         style="stop-color:#065d8d;stop-opacity:1"
         offset="1" />
    </linearGradient>
    <linearGradient
       x1="516.04974"
       y1="192.9848"
       x2="495.66605"
       y2="192.9848"
       id="linearGradient8648-3-3"
       xlink:href="#linearGradient8642-9"
       gradientUnits="userSpaceOnUse"
       gradientTransform="translate(-123,-1753.64)" />
    <linearGradient
       id="linearGradient8642-9">
      <stop
         id="stop8644-6"
         style="stop-color:#000061;stop-opacity:1"
         offset="0" />
      <stop
         id="stop8646-5"
         style="stop-color:#006f86;stop-opacity:0"
         offset="1" />
    </linearGradient>
    <linearGradient
       x1="230"
       y1="-581.63782"
       x2="230"
       y2="-577.57336"
       id="linearGradient19761-6-6"
       xlink:href="#linearGradient19796"
       gradientUnits="userSpaceOnUse"
       gradientTransform="matrix(9.81802,0,0,8,-1867.87,3054.46)" />
    <linearGradient
       id="linearGradient19796">
      <stop
         id="stop19798"
         style="stop-color:#44adeb;stop-opacity:1"
         offset="0" />
      <stop
         id="stop19800"
         style="stop-color:#aadcf7;stop-opacity:1"
         offset="1" />
    </linearGradient>
    <linearGradient
       x1="345"
       y1="1173"
       x2="345"
       y2="1178"
       id="linearGradient8608-1"
       xlink:href="#linearGradient10292"
       gradientUnits="userSpaceOnUse"
       gradientTransform="matrix(-8.86632,0,0,8.1065,3447.88,-11110.2)" />
    <linearGradient
       id="linearGradient10292">
      <stop
         id="stop10294"
         style="stop-color:#666666;stop-opacity:1"
         offset="0" />
      <stop
         id="stop10296"
         style="stop-color:#333333;stop-opacity:1"
         offset="1" />
    </linearGradient>
    <linearGradient
       x1="346.69568"
       y1="-1313.5192"
       x2="361.36813"
       y2="-1303.7965"
       id="linearGradient8680-9"
       xlink:href="#linearGradient8984"
       gradientUnits="userSpaceOnUse"
       gradientTransform="translate(0,-263)" />
    <linearGradient
       id="linearGradient8984">
      <stop
         id="stop8986"
         style="stop-color:#ffffff;stop-opacity:1"
         offset="0" />
      <stop
         id="stop8988"
         style="stop-color:#ffffff;stop-opacity:0"
         offset="1" />
    </linearGradient>
    <linearGradient
       x1="345"
       y1="1173.9109"
       x2="345"
       y2="1178"
       id="linearGradient8604-2"
       xlink:href="#linearGradient8655"
       gradientUnits="userSpaceOnUse"
       gradientTransform="matrix(8.86632,0,0,8.1065,-2745.88,-11107.7)" />
    <linearGradient
       id="linearGradient8655">
      <stop
         id="stop8657"
         style="stop-color:#666666;stop-opacity:1"
         offset="0" />
      <stop
         id="stop8659"
         style="stop-color:#1a1a1a;stop-opacity:1"
         offset="1" />
    </linearGradient>
    <linearGradient
       x1="298.1875"
       y1="-631.14911"
       x2="298.1875"
       y2="-634.26807"
       id="linearGradient9085-3"
       xlink:href="#linearGradient13214"
       gradientUnits="userSpaceOnUse"
       gradientTransform="matrix(2.53328,0,0,2.53328,-398.851,44.4122)" />
    <linearGradient
       x1="345"
       y1="1173"
       x2="345"
       y2="1178"
       id="linearGradient8598-9"
       xlink:href="#linearGradient9153"
       gradientUnits="userSpaceOnUse"
       gradientTransform="matrix(8.86632,0,0,8.1065,-2745.88,-11097.6)" />
    <linearGradient
       id="linearGradient9153">
      <stop
         id="stop9155"
         style="stop-color:#0369a3;stop-opacity:1"
         offset="0" />
      <stop
         id="stop9157"
         style="stop-color:#047fc6;stop-opacity:1"
         offset="1" />
    </linearGradient>
    <linearGradient
       x1="337.37491"
       y1="-1311.3585"
       x2="337.37491"
       y2="-1304.4017"
       id="linearGradient8633-8"
       xlink:href="#linearGradient8627"
       gradientUnits="userSpaceOnUse"
       gradientTransform="translate(0,-263)" />
    <linearGradient
       id="linearGradient8627">
      <stop
         id="stop8629"
         style="stop-color:#666666;stop-opacity:1"
         offset="0" />
      <stop
         id="stop8631"
         style="stop-color:#666666;stop-opacity:0.5"
         offset="1" />
    </linearGradient>
    <radialGradient
       cx="-1535.3044"
       cy="-842.90808"
       r="10"
       fx="-1535.3044"
       fy="-842.90808"
       id="radialGradient8546-3"
       xlink:href="#linearGradient8548"
       gradientUnits="userSpaceOnUse"
       gradientTransform="matrix(-3.31574,0,0,-7.58441,-3491.73,-6782.31)" />
    <linearGradient
       id="linearGradient8548">
      <stop
         id="stop8550"
         style="stop-color:#ffffff;stop-opacity:1"
         offset="0" />
      <stop
         id="stop8552"
         style="stop-color:#00a8ff;stop-opacity:0"
         offset="1" />
    </linearGradient>
    <linearGradient
       x1="337.37491"
       y1="-1311.3585"
       x2="337.37491"
       y2="-1299.649"
       id="linearGradient8633-1-2"
       xlink:href="#linearGradient8627"
       gradientUnits="userSpaceOnUse"
       gradientTransform="translate(0,-263)" />
    <linearGradient
       x1="349.55026"
       y1="-1308.946"
       x2="349.55026"
       y2="-1302.7262"
       id="linearGradient8641-9"
       xlink:href="#linearGradient8635"
       gradientUnits="userSpaceOnUse"
       gradientTransform="translate(0,-263)" />
    <linearGradient
       id="linearGradient8635">
      <stop
         id="stop8637"
         style="stop-color:#808080;stop-opacity:1"
         offset="0" />
      <stop
         id="stop8639"
         style="stop-color:#666666;stop-opacity:1"
         offset="1" />
    </linearGradient>
    <linearGradient
       x1="349.55026"
       y1="-1307.696"
       x2="349.55026"
       y2="-1301.2262"
       id="linearGradient8641-8-9"
       xlink:href="#linearGradient8635"
       gradientUnits="userSpaceOnUse"
       gradientTransform="translate(0,-263)" />
    <linearGradient
       x1="337.375"
       y1="-1293.6378"
       x2="337.375"
       y2="-1287.5115"
       id="linearGradient9159-4"
       xlink:href="#linearGradient9153"
       gradientUnits="userSpaceOnUse"
       gradientTransform="translate(0,-263)" />
    <linearGradient
       x1="445.69522"
       y1="1103.5776"
       x2="441.38797"
       y2="1099.8198"
       id="linearGradient10761-4"
       xlink:href="#linearGradient10755"
       gradientUnits="userSpaceOnUse" />
    <linearGradient
       id="linearGradient10755">
      <stop
         id="stop10757"
         style="stop-color:#e9b913;stop-opacity:1"
         offset="0" />
      <stop
         id="stop10759"
         style="stop-color:#ffff00;stop-opacity:1"
         offset="1" />
    </linearGradient>
    <linearGradient
       x1="-17"
       y1="-1194.6378"
       x2="144"
       y2="-1194.6378"
       id="linearGradient7410-3"
       xlink:href="#linearGradient8074-2"
       gradientUnits="userSpaceOnUse"
       gradientTransform="matrix(0.524068,0,0,1,318.409,-356)" />
    <linearGradient
       x1="-17"
       y1="-1194.6378"
       x2="144"
       y2="-1194.6378"
       id="linearGradient7414-6"
       xlink:href="#linearGradient8074-2"
       gradientUnits="userSpaceOnUse"
       gradientTransform="matrix(0.524068,0,0,1,318.409,-405)" />
    <linearGradient
       x1="387.49451"
       y1="192.9848"
       x2="405.17218"
       y2="192.9848"
       id="linearGradient8648-32"
       xlink:href="#linearGradient8642-9"
       gradientUnits="userSpaceOnUse"
       gradientTransform="translate(-123,-1753.64)" />
    <linearGradient
       x1="-17"
       y1="-1194.6378"
       x2="144"
       y2="-1194.6378"
       id="linearGradient20129-0"
       xlink:href="#linearGradient8074-2"
       gradientUnits="userSpaceOnUse"
       gradientTransform="matrix(0.298137,0,0,1,-1593.57,881.638)" />
    <linearGradient
       x1="-17"
       y1="-1194.6378"
       x2="144"
       y2="-1194.6378"
       id="linearGradient20133-6"
       xlink:href="#linearGradient8074-2"
       gradientUnits="userSpaceOnUse"
       gradientTransform="matrix(0.298137,0,0,1,-1593.57,804.638)" />
    <linearGradient
       x1="-17"
       y1="-1194.6378"
       x2="144"
       y2="-1194.6378"
       id="linearGradient20141-1"
       xlink:href="#linearGradient8074-2"
       gradientUnits="userSpaceOnUse"
       gradientTransform="matrix(0.298137,0,0,1,-1593.57,884.638)" />
    <linearGradient
       x1="-17"
       y1="-1194.6378"
       x2="144"
       y2="-1194.6378"
       id="linearGradient20145-5"
       xlink:href="#linearGradient8074-2"
       gradientUnits="userSpaceOnUse"
       gradientTransform="matrix(0.524068,0,0,1,318.409,-353)" />
    <linearGradient
       x1="-17"
       y1="-1194.6378"
       x2="144"
       y2="-1194.6378"
       id="linearGradient20149-5"
       xlink:href="#linearGradient8074-2"
       gradientUnits="userSpaceOnUse"
       gradientTransform="matrix(0.298137,0,0,1,-1593.57,801.638)" />
    <linearGradient
       gradientUnits="userSpaceOnUse"
       y2="119.09284"
       x2="-35.310345"
       y1="401.58368"
       x1="529.65515"
       id="linearGradient4226"
       xlink:href="#linearGradient4338-5"
       inkscape:collect="always"
       gradientTransform="matrix(0,-0.11988932,0.11988589,0,0.36277965,292.54831)" />
    <linearGradient
       inkscape:collect="always"
       id="linearGradient4338-5">
      <stop
         style="stop-color:#f2f2f2;stop-opacity:1"
         offset="0"
         id="stop4340-3" />
      <stop
         style="stop-color:#f9f9f9;stop-opacity:1"
         offset="1"
         id="stop4342-5" />
    </linearGradient>
    <linearGradient
       inkscape:collect="always"
       xlink:href="#linearGradient4360"
       id="linearGradient4358"
       x1="88"
       y1="88"
       x2="488"
       y2="488"
       gradientUnits="userSpaceOnUse" />
    <linearGradient
       id="linearGradient4360"
       inkscape:collect="always">
      <stop
         id="stop4362"
         offset="0"
         style="stop-color:#000000;stop-opacity:0.58823532" />
      <stop
         style="stop-color:#000000;stop-opacity:0"
         offset="0.88"
         id="stop4364" />
      <stop
         id="stop4366"
         offset="1"
         style="stop-color:#000000;stop-opacity:1" />
    </linearGradient>
    <filter
       inkscape:collect="always"
       style="color-interpolation-filters:sRGB"
       id="filter4380"
       x="-0.052999184"
       width="1.1059984"
       y="-0.043862626"
       height="1.0877253">
      <feGaussianBlur
         inkscape:collect="always"
         stdDeviation="8.4801079"
         id="feGaussianBlur4382" />
    </filter>
    <filter
       inkscape:collect="always"
       style="color-interpolation-filters:sRGB"
       id="filter4346"
       x="-0.013249796"
       width="1.0264996"
       y="-0.010965657"
       height="1.0219313">
      <feGaussianBlur
         inkscape:collect="always"
         stdDeviation="2.120027"
         id="feGaussianBlur4348" />
    </filter>
  </defs>
  <sodipodi:namedview
     id="base"
     pagecolor="#ffffff"
     bordercolor="#666666"
     borderopacity="1.0"
     inkscape:pageopacity="0.0"
     inkscape:pageshadow="2"
     inkscape:zoom="3.2421875"
     inkscape:cx="-55.363146"
     inkscape:cy="161.25711"
     inkscape:document-units="px"
     inkscape:current-layer="layer1"
     showgrid="false"
     units="px"
     inkscape:window-width="1920"
     inkscape:window-height="1009"
     inkscape:window-x="0"
     inkscape:window-y="34"
     inkscape:window-maximized="1" />
  <metadata
     id="metadata966">
    <rdf:RDF>
      <cc:Work
         rdf:about="">
        <dc:format>image/svg+xml</dc:format>
        <dc:type
           rdf:resource="http://purl.org/dc/dcmitype/StillImage" />
        <dc:title></dc:title>
      </cc:Work>
    </rdf:RDF>
  </metadata>
  <g
     inkscape:label="Livello 1"
     inkscape:groupmode="layer"
     id="layer1"
     transform="translate(0,-229.26666)">
    <path
       sodipodi:nodetypes="scccssscsss"
       inkscape:connector-curvature="0"
       id="path1163"
       d="m 20.70501,233.28165 c -9.338925,0 -10.343782,0.95922 -10.298012,10.31704 v 19.31629 19.3163 c -0.04577,9.35781 0.959087,10.31704 10.298012,10.31704 h 25.970644 c 9.338924,0 10.298012,-0.95912 10.298012,-10.31704 v -19.3163 -19.31629 c 0,-9.35793 -0.959088,-10.31704 -10.298012,-10.31704 z"
       style="color:#000000;display:inline;overflow:visible;visibility:visible;opacity:0.2;fill:none;fill-opacity:1;fill-rule:nonzero;stroke:#000000;stroke-width:1.05833328;stroke-miterlimit:4;stroke-dasharray:none;stroke-opacity:1;marker:none;enable-background:accumulate" />
    <path
       style="color:#000000;display:inline;overflow:visible;visibility:visible;opacity:0.1;fill:#000000;fill-opacity:1;fill-rule:nonzero;stroke:none;stroke-width:2;marker:none;filter:url(#filter4346);enable-background:accumulate"
       d="M 189.84323,74 C 119.24979,74 111.65402,81.250835 112,151.98706 V 298 444.01294 C 111.65402,514.74917 119.24979,522 189.84323,522 H 386.15677 C 456.75021,522 462.16345,514.72616 464,444.01294 V 298 151.98706 C 464,81.249993 456.75021,74 386.15677,74 Z"
       id="rect4158-9"
       inkscape:connector-curvature="0"
       sodipodi:nodetypes="scccssscsss"
       transform="matrix(0.13229167,0,0,0.13229167,-4.4096684,223.75665)" />
    <path
       sodipodi:nodetypes="scccssscsss"
       inkscape:connector-curvature="0"
       id="path4350"
       d="M 189.84323,74 C 119.24979,74 111.65402,81.250835 112,151.98706 V 298 444.01294 C 111.65402,514.74917 119.24979,522 189.84323,522 H 386.15677 C 456.75021,522 464,514.75001 464,444.01294 V 298 151.98706 C 464,81.249993 456.75021,74 386.15677,74 Z"
       style="color:#000000;display:inline;overflow:visible;visibility:visible;opacity:0.3;fill:url(#linearGradient4358);fill-opacity:1;fill-rule:nonzero;stroke:none;stroke-width:2;marker:none;filter:url(#filter4380);enable-background:accumulate"
       transform="matrix(0.13229167,0,0,0.13229167,-4.4096684,223.75665)" />
    <path
       style="color:#000000;display:inline;overflow:visible;visibility:visible;fill:url(#linearGradient4226);fill-opacity:1;fill-rule:nonzero;stroke:none;stroke-width:0.26458332;marker:none;enable-background:accumulate"
       d="m 20.70501,233.28165 c -9.338925,0 -10.343782,0.95922 -10.298012,10.31704 v 19.31629 19.3163 c -0.04577,9.35781 0.959087,10.31704 10.298012,10.31704 h 25.970644 c 9.338924,0 10.298012,-0.95912 10.298012,-10.31704 v -19.3163 -19.31629 c 0,-9.35793 -0.959088,-10.31704 -10.298012,-10.31704 z"
       id="rect4158"
       inkscape:connector-curvature="0"
       sodipodi:nodetypes="scccssscsss" />
    <path
       style="color:#000000;display:inline;overflow:visible;visibility:visible;opacity:0.6;fill:#ffffff;fill-opacity:1;fill-rule:nonzero;stroke:none;stroke-width:0.26458332;marker:none;enable-background:accumulate"
       d="m 20.705078,233.28165 c -9.338925,0 -10.34385,0.95939 -10.29808,10.3172 v 0.52916 c -0.04577,-9.35781 0.959155,-10.3172 10.29808,-10.3172 h 25.970507 c 9.338927,0 10.298081,0.95928 10.298081,10.3172 v -0.52916 c 0,-9.35793 -0.959154,-10.3172 -10.298081,-10.3172 z"
       id="path931"
       inkscape:connector-curvature="0" />
    <path
       style="display:inline;fill:#234db8;stroke-width:0.07495124;enable-background:new"
       d="m 18.607164,270.73899 c -0.936717,-0.20657 -1.459637,-0.57572 -1.758434,-1.24138 -0.140245,-0.31243 -0.158064,-0.53274 -0.195715,-2.41976 -0.03934,-1.97158 -0.05007,-2.09386 -0.213328,-2.43009 -0.213408,-0.43953 -0.627209,-0.66575 -1.321158,-0.72226 l -0.478911,-0.039 v -0.9229 -0.92289 l 0.502295,-0.0515 c 0.689774,-0.0707 1.098548,-0.2829 1.301404,-0.67564 0.142024,-0.27496 0.164289,-0.45471 0.183694,-1.48301 0.05338,-2.82859 0.07099,-3.12552 0.203729,-3.4349 0.17315,-0.40358 0.451025,-0.69297 0.877208,-0.91358 0.697513,-0.36106 1.095526,-0.42225 3.012101,-0.46309 l 1.801628,-0.0384 0.02151,5.19933 c 0.0208,5.02694 0.02646,5.20917 0.170347,5.49642 0.265404,0.52981 0.448612,0.60881 1.411923,0.60881 h 0.842616 l 0.04475,0.33138 c 0.02461,0.18225 0.04475,0.52695 0.04475,0.76599 v 0.43462 l -0.648626,0.0934 c -0.364519,0.0525 -0.943067,0.0754 -1.320847,0.0522 -1.189514,-0.073 -1.918199,-0.48231 -2.31193,-1.29873 -0.368808,-0.76474 -0.401268,-1.22782 -0.404088,-5.76475 l -0.0027,-4.17804 -0.390676,0.0526 c -0.559146,0.0752 -0.841432,0.23143 -0.998523,0.55249 -0.116766,0.23863 -0.140891,0.54019 -0.173183,2.16457 -0.03509,1.76494 -0.04842,1.90974 -0.205611,2.23336 -0.218045,0.44891 -0.405566,0.62083 -1.055677,0.96789 l -0.534562,0.28536 0.432681,0.16063 c 0.555827,0.20635 0.932866,0.5261 1.151536,0.97657 0.165106,0.34012 0.176038,0.45829 0.21132,2.28373 0.04021,2.08057 0.06546,2.21806 0.462,2.51574 0.122761,0.0922 0.362762,0.16486 0.613917,0.18599 l 0.578527,0.0347 v 0.85882 0.85881 l -0.779998,-0.006 c -0.337656,-0.003 -0.820957,-0.0516 -1.074008,-0.10746 z m 28.312335,-0.7547 v -0.86816 l 0.518118,-1.4e-4 c 0.486267,-1.6e-4 0.841407,-0.19682 1.022273,-0.56608 0.132297,-0.2701 0.151972,-0.50516 0.186402,-2.22702 0.03614,-1.80753 0.04865,-1.94438 0.204869,-2.24152 0.19974,-0.37993 0.504098,-0.627 1.12403,-0.91249 l 0.462854,-0.21315 -0.426061,-0.17915 c -0.507146,-0.21324 -0.943438,-0.59365 -1.165085,-1.01583 -0.149717,-0.28516 -0.164023,-0.44471 -0.200168,-2.23221 -0.03552,-1.75651 -0.05217,-1.94825 -0.190108,-2.18928 -0.178052,-0.31109 -0.528577,-0.50667 -1.019006,-0.56853 l -0.518118,-0.0446 v -0.87433 -0.87433 l 0.905317,0.0518 c 1.639369,0.0937 2.4555,0.55035 2.808031,1.49735 0.09508,0.25543 0.129122,0.75932 0.16455,2.43583 0.04087,1.9341 0.05742,2.13625 0.194738,2.37801 0.193636,0.34091 0.714844,0.60541 1.298856,0.65913 l 0.448627,0.0413 v 0.92284 0.92283 l -0.477343,0.0389 c -0.617421,0.0503 -1.056669,0.29295 -1.265158,0.69897 -0.142367,0.27726 -0.158723,0.47189 -0.199869,2.37801 -0.04812,2.22948 -0.08658,2.4706 -0.47693,2.98978 -0.37362,0.49693 -1.471411,0.85656 -2.622253,0.85902 l -0.778566,10e-4 z m -18.290038,-1.96884 c -0.102319,-0.0184 -0.386953,-0.0694 -0.632518,-0.11337 -0.61178,-0.10949 -1.564105,-0.58953 -1.9862,-1.00118 -0.764197,-0.74529 -1.183283,-1.66993 -1.330378,-2.93527 -0.166209,-1.42972 0.131812,-2.86878 0.799383,-3.85995 0.561784,-0.83412 1.418021,-1.41606 2.390632,-1.62481 0.504311,-0.10824 1.604592,-0.10887 2.113478,-10e-4 1.022549,0.21633 1.886336,0.88642 2.377348,1.84425 0.38505,0.75113 0.509857,1.34763 0.509857,2.43682 v 0.91996 h -3.046296 -3.046299 l 0.03698,0.2831 c 0.121039,0.92657 0.348681,1.41252 0.886791,1.89304 0.465026,0.41527 0.872519,0.54159 1.747131,0.54159 0.817671,0 1.633228,-0.18059 2.34806,-0.51993 l 0.451861,-0.2145 0.148939,0.77738 0.148937,0.77738 -0.494157,0.23107 c -0.271785,0.12709 -0.755409,0.29886 -1.074719,0.38171 -0.556083,0.14428 -1.958642,0.25411 -2.348831,0.18392 z m 2.213941,-6.18472 c -0.07731,-0.97705 -0.590433,-1.65326 -1.404974,-1.8515 -1.268844,-0.30879 -2.338825,0.53453 -2.565109,2.02176 l -0.04882,0.32084 h 2.028881 2.028877 z m 4.726478,6.15535 c -1.102956,-0.12731 -2.284477,-0.52459 -2.222493,-0.7473 0.01884,-0.0678 0.07484,-0.43742 0.124412,-0.82149 0.04957,-0.38407 0.103447,-0.69831 0.11973,-0.69831 0.01627,0 0.159792,0.0674 0.31891,0.14974 0.863995,0.44716 2.573224,0.72503 3.272145,0.53194 0.664435,-0.18355 1.030234,-0.81711 0.797727,-1.38164 -0.152721,-0.37081 -0.493173,-0.58005 -1.849578,-1.13676 -1.288084,-0.52868 -1.768063,-0.80989 -2.207197,-1.2932 -0.745194,-0.82015 -0.70957,-2.50241 0.06974,-3.29301 0.674087,-0.68385 1.55384,-0.9314 3.11939,-0.87774 1.070872,0.0367 1.642221,0.14724 2.444501,0.4729 l 0.29205,0.11855 -0.257275,0.73025 c -0.141502,0.40164 -0.264004,0.73708 -0.27223,0.74542 -0.0082,0.008 -0.282335,-0.0808 -0.609132,-0.19814 -1.852097,-0.6649 -3.309437,-0.40674 -3.309437,0.58625 0,0.46797 0.429736,0.77273 1.835983,1.30208 1.542624,0.58068 2.24722,1.05491 2.613221,1.75886 0.183896,0.3537 0.201676,0.46111 0.201676,1.21831 0,0.75458 -0.01884,0.86931 -0.206164,1.25631 -0.347199,0.71724 -1.004519,1.22758 -1.878634,1.45856 -0.530942,0.1403 -1.705266,0.1983 -2.397345,0.11842 z m 7.14375,0 c -0.698085,-0.0806 -1.214763,-0.20584 -1.772862,-0.42978 l -0.450707,-0.18086 0.108574,-0.80935 c 0.05971,-0.44515 0.116967,-0.82022 0.127233,-0.8335 0.01027,-0.0133 0.153432,0.0456 0.318146,0.13086 0.868362,0.44942 2.579645,0.73136 3.274192,0.53943 0.46282,-0.12789 0.830291,-0.49458 0.881152,-0.87926 0.0894,-0.67621 -0.290721,-0.99821 -1.960152,-1.66048 -2.147261,-0.85183 -2.774331,-1.56219 -2.687757,-3.04474 0.07308,-1.25155 0.749956,-1.99037 2.123004,-2.31731 0.38558,-0.0918 0.754766,-0.11116 1.581962,-0.0829 1.079257,0.0368 1.487347,0.11233 2.323658,0.42976 l 0.4239,0.1609 -0.259567,0.72746 c -0.142764,0.4001 -0.267041,0.73433 -0.276172,0.74274 -0.0091,0.008 -0.353965,-0.0994 -0.766294,-0.23963 -1.309026,-0.4451 -2.360692,-0.4299 -2.880908,0.0417 -0.201597,0.18274 -0.238932,0.26939 -0.238932,0.55456 0,0.56574 0.264472,0.75417 1.980785,1.41129 2.125101,0.81363 2.72719,1.50443 2.654699,3.04582 -0.04064,0.86405 -0.233516,1.34562 -0.726181,1.81313 -0.415025,0.39383 -0.807476,0.61041 -1.380429,0.76181 -0.530942,0.1403 -1.705266,0.1983 -2.397344,0.11842 z"
       id="path1076"
       inkscape:connector-curvature="0"
       sodipodi:nodetypes="ccscccccscsccccscsccsccccccccscccccsccccccccccccscccccccccccsccccccccccccccccccccccscccccsccccscccccccccccccsscccccscccccsccscscssccccscscccccccccsccccs" />
    <path
       style="color:#000000;display:inline;overflow:visible;visibility:visible;opacity:0.1;fill:#ffffff;fill-opacity:1;fill-rule:nonzero;stroke:none;stroke-width:0.26458332;marker:none;enable-background:accumulate"
       d="m 33.690332,233.28165 v 59.26667 h 12.985253 c 9.338924,0 10.055122,-0.96217 10.298081,-10.31695 v -19.31639 -19.31639 c 0,-9.35792 -0.959157,-10.31694 -10.298081,-10.31694 z"
       id="path4231"
       inkscape:connector-curvature="0"
       sodipodi:nodetypes="ccsscssc" />
    <path
       inkscape:connector-curvature="0"
       style="color:#000000;display:inline;overflow:visible;visibility:visible;opacity:0.2;fill:#ffffff;fill-opacity:1;fill-rule:nonzero;stroke:none;stroke-width:0.26458332;marker:none;enable-background:accumulate"
       d="m 10.406998,262.91498 v 19.31639 c -0.04577,9.35782 0.959155,10.31695 10.29808,10.31695 h 25.970507 c 9.338924,0 10.055122,-0.96217 10.298081,-10.31695 v -19.31639 z"
       id="path4255"
       sodipodi:nodetypes="ccssscc" />
    <path
       style="color:#000000;display:inline;overflow:visible;visibility:visible;opacity:0.4;fill:#ffffff;fill-opacity:1;fill-rule:nonzero;stroke:none;stroke-width:2.11666656;stroke-linecap:butt;stroke-linejoin:miter;stroke-miterlimit:4;stroke-dasharray:none;stroke-dashoffset:0;stroke-opacity:1;marker:none;enable-background:accumulate"
       d="m 41.098666,292.54832 15.875,-15.875 v 5.94886 c -0.01384,8.99472 -1.006126,9.92614 -10.100231,9.92614 z"
       id="path4254"
       inkscape:connector-curvature="0"
       sodipodi:nodetypes="cccsc" />
  </g>
</svg>
