<?xml version="1.0" standalone="no"?><!-- Generator: Gravit.io --><svg xmlns="http://www.w3.org/2000/svg" xmlns:xlink="http://www.w3.org/1999/xlink" style="isolation:isolate" viewBox="0 0 256 256" width="256" height="256"><defs><filter id="5WssSdCWg2oYuJ0Prrg7Quw5PJGHxYs6" x="-7.324" y="2.947" width="270.648" height="254.338" filterUnits="userSpaceOnUse"><feGaussianBlur xmlns="http://www.w3.org/2000/svg" in="SourceGraphic" stdDeviation="4.293609062839028"/><feOffset xmlns="http://www.w3.org/2000/svg" dx="0" dy="4" result="pf_100_offsetBlur"/><feFlood xmlns="http://www.w3.org/2000/svg" flood-color="#000000" flood-opacity="0.4"/><feComposite xmlns="http://www.w3.org/2000/svg" in2="pf_100_offsetBlur" operator="in" result="pf_100_dropShadow"/><feBlend xmlns="http://www.w3.org/2000/svg" in="SourceGraphic" in2="pf_100_dropShadow" mode="normal"/></filter></defs><g filter="url(#5WssSdCWg2oYuJ0Prrg7Quw5PJGHxYs6)"><linearGradient id="_lgradient_42" x1="0.30606436140977306" y1="-0.14014161924743024" x2="0.7285077053441862" y2="1.056781145998693" gradientTransform="matrix(244.648,0,0,228.338,5.676,11.947)" gradientUnits="userSpaceOnUse"><stop offset="0%" stop-opacity="1" style="stop-color:rgb(88,192,244)"/><stop offset="100%" stop-opacity="1" style="stop-color:rgb(128,203,250)"/></linearGradient><path d=" M 165.685 11.947 C 239.74 11.947 250.324 22.504 250.324 96.491 L 250.324 155.742 C 250.324 229.728 239.74 240.285 165.685 240.285 L 90.315 240.285 C 16.26 240.285 5.676 229.728 5.676 155.742 L 5.676 96.491 C 5.676 22.504 16.26 11.947 90.315 11.947 L 165.685 11.947 Z " id="shape" fill="url(#_lgradient_42)"/></g><g id="photo"><path d=" M 5.675 183.205 C 9.128 232.442 25.914 240.29 89.801 240.29 L 165.413 240.29 C 229.301 240.29 246.087 232.442 249.54 183.205 L 29.945 183.205 L 5.675 183.205 Z " id="path1031" fill="rgb(143,191,58)"/><g opacity="0.1"><path d=" M 64.901 239.694 C 72.284 240.125 80.544 240.29 89.802 240.29 L 165.414 240.29 C 174.7 240.29 182.992 240.126 190.392 239.692 C 194.093 239.476 197.569 239.192 200.837 238.828 C 204.104 238.465 207.162 238.021 210.022 237.484 C 212.883 236.948 215.548 236.318 218.028 235.583 C 220.508 234.848 222.804 234.008 224.929 233.049 C 227.054 232.089 229.007 231.009 230.803 229.799 C 232.599 228.589 234.236 227.25 235.728 225.764 C 237.221 224.278 238.57 222.646 239.785 220.858 C 241 219.07 242.083 217.126 243.047 215.01 C 244.011 212.895 244.857 210.609 245.595 208.14 C 246.334 205.67 246.966 203.018 247.505 200.17 C 248.044 197.321 248.49 194.275 248.855 191.021 C 249.22 187.768 249.506 184.305 249.724 180.62 C 250.159 173.251 250.325 164.994 250.325 155.745 L 250.325 96.494 C 250.325 87.246 250.159 78.989 249.724 71.619 C 249.506 67.934 249.22 64.472 248.855 61.218 C 248.49 57.965 248.044 54.92 247.505 52.072 C 246.966 49.223 246.334 46.571 245.595 44.102 C 244.857 41.633 244.011 39.347 243.047 37.231 C 242.083 35.116 241 33.17 239.785 31.382 C 238.57 29.594 237.221 27.964 235.728 26.478 C 234.236 24.992 232.599 23.65 230.803 22.44 C 229.007 21.231 227.054 20.153 224.929 19.193 C 222.804 18.234 220.508 17.392 218.028 16.657 C 215.548 15.922 212.883 15.292 210.022 14.755 C 207.162 14.219 204.104 13.775 200.837 13.411 C 197.569 13.048 194.093 12.766 190.392 12.549 C 188.574 12.443 186.182 12.478 184.255 12.402 L 64.901 239.694 Z " id="path1130" fill="rgb(255,255,255)"/></g><path d=" M 184.283 12.402 C 178.358 12.169 172.429 11.95 165.414 11.95 L 135.433 11.95 L 45.796 183.205 L 94.883 183.205 L 184.283 12.402 Z " id="path1121" fill="rgb(182,226,243)"/><path d=" M 243.824 39.324 C 243.552 38.647 243.34 37.876 243.047 37.231 C 242.083 35.116 241 33.17 239.785 31.382 C 238.57 29.594 237.221 27.964 235.728 26.478 C 234.236 24.992 232.599 23.65 230.803 22.44 C 229.007 21.231 227.054 20.153 224.929 19.193 C 222.804 18.234 220.508 17.392 218.028 16.657 C 215.548 15.922 212.883 15.292 210.022 14.755 C 207.162 14.219 204.104 13.775 200.837 13.411 C 197.569 13.048 194.093 12.766 190.392 12.549 C 188.582 12.443 186.201 12.477 184.283 12.402 L 94.883 183.205 L 168.513 183.205 L 243.824 39.324 Z " id="path1124" fill="rgb(255,218,100)"/><path d=" M 250.325 120.683 L 250.325 96.494 C 250.325 87.246 250.159 78.989 249.724 71.619 C 249.506 67.934 249.22 64.472 248.855 61.218 C 248.49 57.965 248.044 54.92 247.505 52.072 C 246.966 49.223 246.334 46.571 245.595 44.102 C 245.082 42.385 244.444 40.868 243.824 39.324 L 168.513 183.205 L 217.6 183.205 L 250.325 120.683 Z " id="path1127" fill="rgb(182,226,243)"/><defs><filter id="Z7CdSrqgrmFIduuNHGzyGXsqLp7MR2Vf" x="44.165" y="59.25" width="166.884" height="125.585" filterUnits="userSpaceOnUse"><feGaussianBlur xmlns="http://www.w3.org/2000/svg" stdDeviation="0.7"/></filter></defs><g opacity="0.1" filter="url(#Z7CdSrqgrmFIduuNHGzyGXsqLp7MR2Vf)"><linearGradient id="_lgradient_43" x1="0.35000000875000015" y1="0.06666666388888898" x2="1.2000000300000004" y2="0.5666666763888891" gradientTransform="matrix(163.623,0,0,122.325,45.796,60.88)" gradientUnits="userSpaceOnUse"><stop offset="0%" stop-opacity="0" style="stop-color:rgb(0,0,0)"/><stop offset="42.311791%" stop-opacity="1" style="stop-color:rgb(0,0,0)"/><stop offset="100%" stop-opacity="0" style="stop-color:rgb(0,0,0)"/></linearGradient><path d=" M 184.875 60.88 C 171.32 60.88 160.332 71.834 160.332 85.345 C 160.332 98.857 171.32 109.81 184.875 109.81 C 198.43 109.81 209.419 98.857 209.419 85.345 C 209.419 71.834 198.43 60.88 184.875 60.88 Z  M 94.509 89.801 L 45.796 183.205 L 143.223 183.205 L 168.513 183.205 L 131.698 112.868 L 119.097 136.945 L 94.509 89.801 Z " id="path1115" fill="url(#_lgradient_43)"/></g><defs><filter id="XLcEmHt9tUrvCoq6zZ1DoMX5PRro1vXP" x="29.493" y="75.536" width="155.324" height="126.011" filterUnits="userSpaceOnUse"><feGaussianBlur xmlns="http://www.w3.org/2000/svg" stdDeviation="7"/></filter></defs><g opacity="0.3" filter="url(#XLcEmHt9tUrvCoq6zZ1DoMX5PRro1vXP)"><linearGradient id="_lgradient_44" x1="0.46666668222222285" y1="-0.22232163286010742" x2="0.9462003648733457" y2="0.05975695987584595" gradientTransform="matrix(122.717,0,0,93.404,45.796,91.84)" gradientUnits="userSpaceOnUse"><stop offset="0%" stop-opacity="0" style="stop-color:rgb(0,0,0)"/><stop offset="100%" stop-opacity="1" style="stop-color:rgb(0,0,0)"/></linearGradient><path d=" M 94.509 91.84 L 45.796 185.244 L 143.223 185.244 L 168.513 185.244 L 131.698 114.907 L 119.097 138.984 L 94.509 91.84 Z " id="path1078" fill="url(#_lgradient_44)"/></g><path d=" M 45.796 183.205 L 94.51 89.802 L 143.223 183.205 L 45.796 183.205 Z " id="path4244-2" fill="rgb(242,242,242)"/><path d=" M 94.883 183.205 L 131.698 112.868 L 168.513 183.205 L 94.883 183.205 Z " id="path4246-6" fill="rgb(249,249,249)"/><defs><filter id="5ezFbXBxv0LeUDGiMIJhc35QJEC5yjNq" x="157.537" y="60.124" width="54.677" height="54.52" filterUnits="userSpaceOnUse"><feGaussianBlur xmlns="http://www.w3.org/2000/svg" stdDeviation="1.2"/></filter></defs><g opacity="0.1" filter="url(#5ezFbXBxv0LeUDGiMIJhc35QJEC5yjNq)"><ellipse vector-effect="non-scaling-stroke" cx="0" cy="0" rx="1" ry="1" transform="matrix(24.543,0,0,24.465,184.875,87.384)" id="circle967" fill="rgb(0,0,0)"/></g><ellipse vector-effect="non-scaling-stroke" cx="0" cy="0" rx="1" ry="1" transform="matrix(24.543,0,0,24.465,184.875,85.345)" id="path1076" fill="rgb(249,249,249)"/><path d=" M 184.875 60.88 C 178.366 60.88 172.123 63.458 167.521 68.046 C 162.918 72.634 160.332 78.857 160.332 85.345 C 160.338 85.487 160.345 85.629 160.354 85.771 C 160.677 72.5 171.558 61.908 184.875 61.9 C 198.257 61.91 209.164 72.602 209.397 85.939 C 209.407 85.741 209.414 85.543 209.419 85.345 C 209.419 78.857 206.833 72.634 202.23 68.046 C 197.627 63.458 191.385 60.88 184.875 60.88 L 184.875 60.88 Z  M 94.509 89.801 L 45.796 183.205 L 46.327 183.205 L 94.509 90.82 L 119.097 137.964 L 131.698 113.888 L 167.98 183.205 L 168.513 183.205 L 131.698 112.868 L 119.097 136.945 L 94.509 89.801 Z " id="path1105" fill="rgb(255,255,255)"/></g><g opacity="0.4"><linearGradient id="_lgradient_45" x1="0.5166666666666668" y1="0" x2="0.5166666666666666" y2="1.0000000000000002"><stop offset="0%" stop-opacity="1" style="stop-color:rgb(255,255,255)"/><stop offset="12.5%" stop-opacity="0.09803922" style="stop-color:rgb(255,255,255)"/><stop offset="92.500001%" stop-opacity="0.09803922" style="stop-color:rgb(0,0,0)"/><stop offset="100%" stop-opacity="0.49803922" style="stop-color:rgb(0,0,0)"/></linearGradient><path d=" M 165.685 11.947 C 239.74 11.947 250.324 22.504 250.324 96.491 L 250.324 155.742 C 250.324 229.728 239.74 240.285 165.685 240.285 L 90.315 240.285 C 16.26 240.285 5.676 229.728 5.676 155.742 L 5.676 96.491 C 5.676 22.504 16.26 11.947 90.315 11.947 L 165.685 11.947 Z " id="highlight" fill="none" vector-effect="non-scaling-stroke" stroke-width="4.077" stroke="url(#_lgradient_45)" stroke-linejoin="round" stroke-linecap="round" stroke-miterlimit="4"/></g><g opacity="0.1"><path d=" M 5.676 126.116 L 5.676 155.742 C 5.676 229.728 16.26 240.285 90.315 240.285 L 165.685 240.285 C 239.74 240.285 250.324 229.728 250.324 155.742 L 250.324 126.116 L 5.676 126.116 Z " id="bottom glass" fill="rgb(255,255,255)"/></g></svg>