<svg xmlns="http://www.w3.org/2000/svg" width="16" height="16">
 <g color="#000" transform="translate(-572 -32)">
  <path fill="#808080" fill-rule="evenodd" d="M585.514 32.041a2.748 2.748 0 0 0-.41.016l-7.21 1.125c-.813.082-.901.462-.894.935v9.52c-.413-.272-.856-.465-1.445-.465-.76 0-1.213.29-1.487.674-.274.383-.365.865-.365 1.238 0 .45.155.93.488 1.295.334.366.846.623 1.582.623.832 0 1.416-.232 1.747-.686.26-.357.405-.835.457-1.423.007-.072.01-.146.015-.221.004-.06.003-.102.004-.172H578v-7.703c.022-.62.584-.711.584-.711l5.854-.914c.561-.172.562.523.562.523v6.942c-.413-.272-.856-.465-1.445-.465-.76 0-1.213.29-1.487.674-.274.383-.365.865-.365 1.238 0 .45.155.93.488 1.295.334.366.846.623 1.582.623.832 0 1.416-.232 1.747-.686.26-.357.405-.835.457-1.423.007-.072.01-.146.015-.221.004-.06.003-.102.004-.172H586V32.932c.012-.686-.14-.867-.486-.891z" font-family="sans-serif" font-weight="400" overflow="visible"/>
 </g>
</svg>
