<?xml version="1.0" encoding="UTF-8" standalone="no"?>
<!-- Created with Inkscape (http://www.inkscape.org/) -->

<svg
   xmlns:dc="http://purl.org/dc/elements/1.1/"
   xmlns:cc="http://creativecommons.org/ns#"
   xmlns:rdf="http://www.w3.org/1999/02/22-rdf-syntax-ns#"
   xmlns:svg="http://www.w3.org/2000/svg"
   xmlns="http://www.w3.org/2000/svg"
   xmlns:xlink="http://www.w3.org/1999/xlink"
   xmlns:sodipodi="http://sodipodi.sourceforge.net/DTD/sodipodi-0.dtd"
   xmlns:inkscape="http://www.inkscape.org/namespaces/inkscape"
   version="1.1"
   width="16"
   height="16"
   id="svg3738"
   inkscape:version="0.92.3 (2405546, 2018-03-11)"
   sodipodi:docname="applications-3D-symbolic.svg">
  <metadata
     id="metadata13">
    <rdf:RDF>
      <cc:Work
         rdf:about="">
        <dc:format>image/svg+xml</dc:format>
        <dc:type
           rdf:resource="http://purl.org/dc/dcmitype/StillImage" />
        <dc:title></dc:title>
      </cc:Work>
    </rdf:RDF>
  </metadata>
  <sodipodi:namedview
     pagecolor="#ffffff"
     bordercolor="#666666"
     borderopacity="1"
     objecttolerance="10"
     gridtolerance="10"
     guidetolerance="10"
     inkscape:pageopacity="0"
     inkscape:pageshadow="2"
     inkscape:window-width="1920"
     inkscape:window-height="1009"
     id="namedview11"
     showgrid="false"
     inkscape:zoom="13.409091"
     inkscape:cx="-20.137895"
     inkscape:cy="11"
     inkscape:window-x="0"
     inkscape:window-y="34"
     inkscape:window-maximized="1"
     inkscape:current-layer="svg3738" />
  <defs
     id="defs3740">
    <linearGradient
       x1="40.497971"
       y1="6.1016951"
       x2="40.497971"
       y2="21.101694"
       id="linearGradient2860-8"
       xlink:href="#linearGradient3587-6-5-9"
       gradientUnits="userSpaceOnUse"
       gradientTransform="translate(-28.497469,6.8983051)" />
    <linearGradient
       id="linearGradient3587-6-5-9">
      <stop
         id="stop3589-9-2-0"
         style="stop-color:#000000;stop-opacity:1"
         offset="0" />
      <stop
         id="stop3591-7-4-6"
         style="stop-color:#363636;stop-opacity:1"
         offset="1" />
    </linearGradient>
    <linearGradient
       id="linearGradient3678">
      <stop
         style="stop-color:#ffffff;stop-opacity:1;"
         offset="0"
         id="stop3680" />
      <stop
         style="stop-color:#e6e6e6;stop-opacity:1;"
         offset="1"
         id="stop3682" />
    </linearGradient>
    <linearGradient
       gradientTransform="matrix(-0.4100229,0,0,0.5447147,78.029995,-3.8459034)"
       gradientUnits="userSpaceOnUse"
       xlink:href="#linearGradient3678"
       id="linearGradient2388"
       y2="38.279892"
       x2="159.68553"
       y1="14.403693"
       x1="159.68553" />
    <linearGradient
       x1="0"
       y1="0"
       x2="1"
       y2="0"
       gradientUnits="userSpaceOnUse"
       gradientTransform="matrix(19.078465,0,0,19.078465,-23.184996,12.942266)"
       spreadMethod="pad"
       id="linearGradient170">
      <stop
         style="stop-opacity:1;stop-color:#469edd"
         offset="0"
         id="stop156" />
      <stop
         style="stop-opacity:1;stop-color:#3a7ec9"
         offset="0.33"
         id="stop158" />
      <stop
         style="stop-opacity:1;stop-color:#387ac7"
         offset="0.4"
         id="stop160" />
      <stop
         style="stop-opacity:1;stop-color:#3574c3"
         offset="0.42"
         id="stop162" />
      <stop
         style="stop-opacity:1;stop-color:#98dcf7"
         offset="0.5"
         id="stop164" />
      <stop
         style="stop-opacity:1;stop-color:#2f67ba"
         offset="0.54"
         id="stop166" />
      <stop
         style="stop-opacity:1;stop-color:#2e358b"
         offset="1"
         id="stop168" />
    </linearGradient>
  </defs>
  <path
     style="fill:#808080;fill-opacity:1;fill-rule:evenodd;stroke:none;stroke-width:0.00758876"
     d="M 7.249702,1.185978 C 5.218727,1.1862819 3.077966,1.7543895 1.572278,1.9734 0.90675,2.070151 0.5,2.7972356 0.5,3.6778347 v 0.8355404 c 0,0.2679592 0.03631,0.4729782 0.112601,0.6147348 0.07588,0.1409347 0.1842,0.2126867 0.329867,0.2126867 0.4441,0 0.64719,0.05446 1.092962,0.05446 0.129328,0 0.234055,-0.06036 0.309652,-0.180956 0.07486,-0.119598 0.112397,-0.2803866 0.112397,-0.4696497 0,-0.099342 0.03753,-0.195501 0.11566,-0.2968152 0.07731,-0.1001774 0.218817,-0.1478899 0.279687,-0.1478899 h 0.002 c 1.049288,0 2.098413,-2.958e-4 3.149394,-2.958e-4 0.144015,0 0.253596,0.070661 0.330173,0.2115038 0.07649,0.1406897 0.115253,0.3467103 0.116069,0.6144411 3.87e-4,0.1699827 9.18e-4,0.3385587 0.0013,0.5056627 6.73e-4,0.271982 -0.03692,0.478021 -0.112805,0.61887 -0.07588,0.140771 -0.18522,0.211208 -0.329439,0.211208 -0.678195,0 -1.354595,2.96e-4 -2.031056,2.96e-4 -0.135856,0 -0.230281,0.05395 -0.283093,0.155866 -0.05283,0.1023 -0.08098,0.29029 -0.08057,0.559389 5.5e-4,0.534703 0.0018,1.067855 0.002,1.601118 3.06e-4,0.270464 0.02815,0.457695 0.082,0.567503 0.05263,0.106849 0.148094,0.158967 0.284276,0.158967 h 2.146329 c 0.141159,0 0.249945,0.06711 0.322646,0.202947 0.07221,0.134692 0.110561,0.3344224 0.111173,0.5954004 4.69e-4,0.187831 0.0011,0.375889 0.0016,0.562192 6.12e-4,0.269326 -0.03611,0.474497 -0.108113,0.617392 -0.0718,0.142893 -0.180732,0.212685 -0.321912,0.212685 -1.091656,0 -2.183353,1.49e-4 -3.275009,1.49e-4 -0.113009,0 -0.202355,-0.04371 -0.269365,-0.131204 -0.06609,-0.08629 -0.121782,-0.225259 -0.16156,-0.419911 -0.0102,-0.04955 -0.01836,-0.109867 -0.03182,-0.187892 -0.05895,-0.359935 -0.194807,-0.538726 -0.39245,-0.538726 -0.435002,0 -0.533507,-0.0067 -0.967061,-0.0067 -0.146259,0 -0.254351,0.06646 -0.330459,0.204569 -0.0765,0.13918 -0.113008,0.345115 -0.113008,0.614441 v 0.599533 c 0,0.717669 0.351265,2.570527 0.989479,2.570527 1.901973,0 3.803926,0.599384 5.7059,0.599384 h 0.0061 0.276157 0.458869 V 15 c 1.731318,-0.01224 4.697981,-0.779118 7.040321,-1.115529 0.232362,-0.03347 0.427149,-0.192482 0.427149,-0.427289 V 3.543597 c 0,-0.2348725 -0.197052,-0.6158098 -0.427149,-0.6625575 C 12.724146,2.4039346 9.021824,1.1992555 8.030734,1.1860514 h -0.70198 -0.07446 z m 2.110611,4.1195436 2.441989,0.357919 c 0.232443,0.03401 0.427352,0.192278 0.427128,0.426994 l -0.0041,4.6970824 c -2.45e-4,0.234797 -0.19236,0.421151 -0.427006,0.426995 l -2.437399,0.06126 z"
     id="path172"
     inkscape:connector-curvature="0" />
</svg>
