<?xml version="1.0" encoding="UTF-8" standalone="no"?>
<!-- Created with Inkscape (http://www.inkscape.org/) -->
<svg id="svg7384" xmlns:rdf="http://www.w3.org/1999/02/22-rdf-syntax-ns#" xmlns="http://www.w3.org/2000/svg" height="16" width="16" version="1.1" xmlns:cc="http://creativecommons.org/ns#" xmlns:dc="http://purl.org/dc/elements/1.1/">
 <metadata id="metadata90">
  <rdf:RDF>
   <cc:Work rdf:about="">
    <dc:format>image/svg+xml</dc:format>
    <dc:type rdf:resource="http://purl.org/dc/dcmitype/StillImage"/>
    <dc:title>Gnome Symbolic Icon Theme</dc:title>
   </cc:Work>
  </rdf:RDF>
 </metadata>
 <title id="title9167">Gnome Symbolic Icon Theme</title>
 <g id="layer12" transform="translate(-341 -827)">
  <path id="path67" style="color:#000000;fill:#bebebe" d="m7.955 15.205c-0.73608 0-1.8727-4.2463-2.3932-4.7668-0.5205-0.5202-4.7668-1.6569-4.7668-2.393-0.00005-0.736 4.2463-1.8727 4.7667-2.3932 0.5205-0.5205 1.6572-4.7668 2.3933-4.7668 0.73608 1e-8 1.8727 4.2463 2.3932 4.7668 0.52049 0.52049 4.7668 1.6571 4.7668 2.3932 0 0.73608-4.2463 1.8727-4.7668 2.3932-0.52049 0.52049-1.6571 4.7668-2.3932 4.7668z" transform="matrix(.97765 0 0 .97765 341.22 827.13)"/>
 </g>
</svg>
