<svg xmlns="http://www.w3.org/2000/svg" style="isolation:isolate" width="256" height="256"><defs><filter id="a" width="270.648" height="254.338" x="-7.32" y="2.95" filterUnits="userSpaceOnUse"><feGaussianBlur xmlns="http://www.w3.org/2000/svg" in="SourceGraphic" stdDeviation="4.294"/><feOffset xmlns="http://www.w3.org/2000/svg" dy="4" result="pf_100_offsetBlur"/><feFlood xmlns="http://www.w3.org/2000/svg" flood-opacity=".4"/><feComposite xmlns="http://www.w3.org/2000/svg" in2="pf_100_offsetBlur" operator="in" result="pf_100_dropShadow"/><feBlend xmlns="http://www.w3.org/2000/svg" in="SourceGraphic" in2="pf_100_dropShadow"/></filter></defs><path fill="#1A7FD4" d="M165.685 11.947c74.055 0 84.639 10.557 84.639 84.544v59.251c0 73.986-10.584 84.543-84.639 84.543h-75.37c-74.055 0-84.639-10.557-84.639-84.543V96.491c0-73.987 10.584-84.544 84.639-84.544h75.37z" filter="url(#a)"/><path fill="#FFF" d="M5.676 126.116v29.626c0 73.986 10.584 84.543 84.639 84.543h75.37c74.055 0 84.639-10.557 84.639-84.543v-29.626H5.676z" opacity=".1"/><path fill="#FFF" d="M128 11.947v228.338h37.685c74.055 0 84.639-10.557 84.639-84.543V96.491c0-73.987-10.584-84.544-84.639-84.544H128z" opacity=".2"/><defs><filter id="b" width="150.916" height="160.159" x="68.54" y="47.41" filterUnits="userSpaceOnUse"><feGaussianBlur xmlns="http://www.w3.org/2000/svg" stdDeviation="9.064"/></filter></defs><g opacity=".4" filter="url(#b)"><linearGradient id="c" x1=".455" x2=".455" y2=".988" gradientTransform="matrix(108.695 0 0 117.938 89.653 68.522)" gradientUnits="userSpaceOnUse"><stop offset="0%" stop-opacity="0"/><stop offset="50.477%"/><stop offset="100%" stop-opacity="0"/></linearGradient><path fill="url(#c)" d="M89.653 68.522V186.46s59.816-24.176 108.694-59.006c0-.011-.005-.019-.012-.032a.307.307 0 0 0-.022-.038.213.213 0 0 1-.025-.039.084.084 0 0 1-.012-.037C146.719 91.367 89.653 68.522 89.653 68.522z"/></g><defs><filter id="d" width="113.972" height="123.216" x="87.01" y="65.88" filterUnits="userSpaceOnUse"><feGaussianBlur xmlns="http://www.w3.org/2000/svg" stdDeviation="1.133"/></filter></defs><path d="M89.653 68.522V186.46s59.816-24.176 108.694-59.006c0-.011-.005-.019-.012-.032a.307.307 0 0 0-.022-.038.213.213 0 0 1-.025-.039.084.084 0 0 1-.012-.037C146.719 91.367 89.653 68.522 89.653 68.522z" opacity=".1" filter="url(#d)"/><radialGradient id="e" cx=".5" cy=".5" r="14.914" fx=".5" fy=".5" gradientTransform="matrix(108.695 0 0 117.938 89.653 67.54)" gradientUnits="userSpaceOnUse"><stop offset="0%" stop-color="#f5f5f5"/><stop offset="100%" stop-color="#fbfbfb"/></radialGradient><path fill="url(#e)" d="M89.653 67.54v117.938s59.816-24.176 108.694-59.007c0-.011-.006-.018-.012-.032a.187.187 0 0 0-.022-.039c-.01-.015-.019-.026-.025-.039a.084.084 0 0 1-.012-.037C146.719 90.384 89.653 67.54 89.653 67.54z"/><path fill="#FFF" d="M89.652 67.54v.982s56.679 22.683 108.058 58.397c.212-.15.426-.297.638-.448 0-.011-.006-.018-.013-.033a.208.208 0 0 0-.022-.038c-.01-.015-.019-.026-.025-.039-.007-.014-.013-.025-.013-.037C146.719 90.384 89.652 67.54 89.652 67.54z"/><g opacity=".4"><linearGradient id="f" x1=".517" x2=".517" y2="1"><stop offset="0%" stop-color="#fff"/><stop offset="12.5%" stop-opacity=".098" stop-color="#fff"/><stop offset="92.5%" stop-opacity=".098"/><stop offset="100%" stop-opacity=".498"/></linearGradient><path fill="none" stroke="url(#f)" stroke-linecap="round" stroke-linejoin="round" stroke-width="4.077" d="M165.685 11.947c74.055 0 84.639 10.557 84.639 84.544v59.251c0 73.986-10.584 84.543-84.639 84.543h-75.37c-74.055 0-84.639-10.557-84.639-84.543V96.491c0-73.987 10.584-84.544 84.639-84.544h75.37z" vector-effect="non-scaling-stroke"/></g></svg>