<svg xmlns="http://www.w3.org/2000/svg" style="isolation:isolate" width="16" height="16" viewBox="0 0 16 16">
 <path fill="#5c616c" d="M 3.35 0 C 2.878 0 2.431 0.178 2.125 0.525 C 1.825 0.866 1.709 1.334 1.775 1.775 L 1.775 1.8 L 2.4 6.4 L 1.6 13.5 L 1.6 14.4 C 1.6 14.818 1.747 15.247 2.05 15.55 C 2.353 15.853 2.782 16 3.2 16 L 12.8 16 C 13.218 16 13.647 15.853 13.95 15.55 C 14.253 15.247 14.4 14.818 14.4 14.4 L 14.4 13.5 L 13.6 6.4 L 14.225 1.8 L 14.225 1.775 C 14.356 0.89 13.641 0 12.725 0 L 3.35 0 Z M 4 6.4 L 12 6.4 L 12 6.5 L 12.8 13.6 L 3.2 13.6 L 4 6.5 L 4 6.4 Z M 4.55 8.8 L 4.325 10.4 L 11.6 10.4 L 11.45 8.8 L 4.55 8.8 Z"/>
</svg>
