<?xml version="1.0" encoding="UTF-8" standalone="no"?>
<!-- Created with Inkscape (http://www.inkscape.org/) -->

<svg
   xmlns:dc="http://purl.org/dc/elements/1.1/"
   xmlns:cc="http://creativecommons.org/ns#"
   xmlns:rdf="http://www.w3.org/1999/02/22-rdf-syntax-ns#"
   xmlns:svg="http://www.w3.org/2000/svg"
   xmlns="http://www.w3.org/2000/svg"
   xmlns:xlink="http://www.w3.org/1999/xlink"
   xmlns:sodipodi="http://sodipodi.sourceforge.net/DTD/sodipodi-0.dtd"
   xmlns:inkscape="http://www.inkscape.org/namespaces/inkscape"
   width="16"
   height="16"
   viewBox="0 0 4.2333333 4.2333334"
   version="1.1"
   id="svg1037"
   inkscape:version="0.92.3 (2405546, 2018-03-11)"
   sodipodi:docname="application-x-wine-extension-its-symbolic.svg">
  <defs
     id="defs1031">
    <radialGradient
       cx="5.6491151"
       cy="9.9571075"
       r="12.671875"
       fx="5.118885"
       fy="9.9571075"
       id="radialGradient3107-17"
       xlink:href="#linearGradient2867-449-88-871-390-598-476-591-434-148-57-177-8-3"
       gradientUnits="userSpaceOnUse"
       gradientTransform="matrix(-1.9132589e-7,7.8004159,-9.5764203,-2.3414749e-7,129.08903,164.10192)" />
    <linearGradient
       id="linearGradient2867-449-88-871-390-598-476-591-434-148-57-177-8-3">
      <stop
         offset="0"
         style="stop-color:#90dbec;stop-opacity:1"
         id="stop3750-1-0" />
      <stop
         offset="0.26238"
         style="stop-color:#55c1ec;stop-opacity:1"
         id="stop3752-3-7" />
      <stop
         offset="0.704952"
         style="stop-color:#3689e6;stop-opacity:1"
         id="stop3754-1-8" />
      <stop
         offset="1"
         style="stop-color:#2b63a0;stop-opacity:1"
         id="stop3756-1-6" />
    </linearGradient>
  </defs>
  <sodipodi:namedview
     id="base"
     pagecolor="#ffffff"
     bordercolor="#666666"
     borderopacity="1.0"
     inkscape:pageopacity="0.0"
     inkscape:pageshadow="2"
     inkscape:zoom="51.875041"
     inkscape:cx="4.1638578"
     inkscape:cy="6.9156462"
     inkscape:document-units="px"
     inkscape:current-layer="layer1"
     showgrid="true"
     units="px"
     inkscape:window-width="1920"
     inkscape:window-height="1009"
     inkscape:window-x="0"
     inkscape:window-y="34"
     inkscape:window-maximized="1">
    <inkscape:grid
       type="xygrid"
       id="grid1672" />
  </sodipodi:namedview>
  <metadata
     id="metadata1034">
    <rdf:RDF>
      <cc:Work
         rdf:about="">
        <dc:format>image/svg+xml</dc:format>
        <dc:type
           rdf:resource="http://purl.org/dc/dcmitype/StillImage" />
        <dc:title></dc:title>
      </cc:Work>
    </rdf:RDF>
  </metadata>
  <g
     inkscape:label="Livello 1"
     inkscape:groupmode="layer"
     id="layer1"
     transform="translate(0,-292.76665)">
    <path
       style="color:#000000;font-style:normal;font-variant:normal;font-weight:normal;font-stretch:normal;font-size:medium;line-height:normal;font-family:sans-serif;font-variant-ligatures:normal;font-variant-position:normal;font-variant-caps:normal;font-variant-numeric:normal;font-variant-alternates:normal;font-feature-settings:normal;text-indent:0;text-align:start;text-decoration:none;text-decoration-line:none;text-decoration-style:solid;text-decoration-color:#000000;letter-spacing:normal;word-spacing:normal;text-transform:none;writing-mode:lr-tb;direction:ltr;text-orientation:mixed;dominant-baseline:auto;baseline-shift:baseline;text-anchor:start;white-space:normal;shape-padding:0;clip-rule:nonzero;display:inline;overflow:visible;visibility:visible;opacity:1;isolation:auto;mix-blend-mode:normal;color-interpolation:sRGB;color-interpolation-filters:linearRGB;solid-color:#000000;solid-opacity:1;vector-effect:none;fill:#808080;fill-opacity:1;fill-rule:nonzero;stroke:none;stroke-width:0.19843264;stroke-linecap:square;stroke-linejoin:round;stroke-miterlimit:4;stroke-dasharray:none;stroke-dashoffset:0;stroke-opacity:1;color-rendering:auto;image-rendering:auto;shape-rendering:auto;text-rendering:auto;enable-background:new"
       d="m 2.1165697,292.89894 c -1.094738,0 -1.98427803,0.88973 -1.98427803,1.98447 0,1.09474 0.88954003,1.98428 1.98427803,1.98428 1.0947381,0 1.9844239,-0.88954 1.9844239,-1.98428 0,-1.09474 -0.8896858,-1.98447 -1.9844239,-1.98447 z m 0,0.19848 c 0.617186,0 1.1605018,0.31193 1.481221,0.78695 -0.01094,-0.0162 -0.02358,-0.0311 -0.03503,-0.0469 H 3.4084136 l -0.159725,0.15973 -0.1064818,-0.10649 H 2.8227565 l -0.1597248,0.15973 v 0.13313 h 0.1597248 v -0.0799 h 0.1064832 v 0.10648 l -0.05324,0.0532 -0.212966,0.004 -0.07989,0.0762 h -0.106484 v 0.10648 l -0.07984,0.0798 v 0.15973 h 0.159725 l 0.106483,-0.10649 h 0.106483 v 0.0532 l 0.1064829,0.10648 h 0.05324 v -0.0532 l -0.1064829,-0.10649 h 0.1064829 l 0.1064832,0.10649 h 0.1330798 l -0.07984,-0.0798 0.07984,-0.0799 h 0.07989 l 0.07984,0.0799 h -0.07984 l -0.07989,0.0798 0.07843,0.0784 0.00151,0.0813 h -0.106492 l 0.319449,0.31945 h 0.05324 l 0.05324,-0.0532 0.1064829,-0.10648 -0.1064829,-0.10649 h 0.333402 c 6.59e-5,-0.006 9.789e-4,-0.0125 9.789e-4,-0.0189 0,0.9875 -0.798445,1.7858 -1.785943,1.7858 -0.281482,0 -0.547461,-0.0651 -0.78409,-0.18071 l -4.841e-4,-0.0954 0.346046,-0.31945 v -0.10649 l 0.1597249,-0.15972 v -0.0798 l 0.07988,-0.0799 V 295.435 l -0.1064826,-0.10648 h -0.213002 l -0.106483,-0.10649 h -0.266208 l -0.106483,0.10649 v 0.2662 l 0.213693,0.18725 -7.276e-4,0.23869 -0.07989,0.0799 v 0.34605 l 6.297e-4,6.9e-4 c -0.55000813,-0.30409 -0.92196513,-0.88966 -0.92196513,-1.56359 0,-0.12344 0.01248,-0.2439 0.03624,-0.36024 -0.0088,0.043 -0.01437,0.0872 -0.02001,0.13133 v 0.0615 l 0.292852,0.29281 h 0.159725 l 0.26620803,0.2662 v -0.31945 l 0.159725,-0.15972 h 0.106483 l 0.159725,-0.15972 h 0.159724 l -0.07989,-0.0798 0.159724,-0.18637 -0.159724,-0.15973 h -0.239563 v 0.21297 h -0.106483 l -0.106483,-0.10648 v -0.10649 l 0.159724,-0.15972 h 0.13308 v -0.10649 l -0.159725,-0.15972 H 0.98589367 v 0.15972 h -0.133079 l -0.149891,-0.14989 c -0.02294,0.0298 -0.04642,0.0591 -0.06748,0.0903 0.08463,-0.12537 0.185028,-0.23911 0.29794,-0.33902 l 0.13240103,0.1324 h 0.266208 v -0.26621 h -0.227645 c 0.287576,-0.19802 0.636078,-0.31412 1.012219,-0.31412 z m 1.02564,1.75164 h -0.31945 l -0.05324,-0.0532 h -0.319449 l -0.18637,0.18637 v 0.26621 l 0.133128,0.13308 h 0.186322 l 0.07989,0.0799 v 0.0798 l 0.05324,0.0532 v 0.31945 l 0.2021629,0.2137 0.3338381,-0.33384 -0.0036,-0.30579 0.2662089,-0.26621 H 3.4084067 l -0.2662071,-0.26621 z m -1.437523,-1.43752 -0.18637,0.21297 0.159725,0.15972 v 0.16694 l 0.18637,0.20575 h 0.106483 v -0.10648 l 0.159724,-0.15973 v -0.10648 l 0.106484,-0.10648 v -0.15973 l -0.106484,-0.10648 z m 0.399287,0.69214 v 0.0799 h 0.159725 l -0.07984,-0.0799 z m 0.479175,0.0266 -0.07984,0.0798 v 0.0799 h 0.07984 z m -0.825221,0.29281 -0.07989,0.0799 h 0.07989 l 0.0266,0.0266 h 0.02665 l 0.0266,-0.0266 z m -0.452577,0.55906 -0.07984,0.0798 h 0.159724 v -0.0798 z m 2.1296631,0.61225 -0.1064832,0.0993 v 0.16689 h 0.1064832 z"
       id="circle1001"
       inkscape:connector-curvature="0" />
  </g>
</svg>
