<?xml version="1.0" encoding="UTF-8" standalone="no"?>
<svg
   xmlns:dc="http://purl.org/dc/elements/1.1/"
   xmlns:cc="http://creativecommons.org/ns#"
   xmlns:rdf="http://www.w3.org/1999/02/22-rdf-syntax-ns#"
   xmlns:svg="http://www.w3.org/2000/svg"
   xmlns="http://www.w3.org/2000/svg"
   xmlns:sodipodi="http://sodipodi.sourceforge.net/DTD/sodipodi-0.dtd"
   xmlns:inkscape="http://www.inkscape.org/namespaces/inkscape"
   height="16"
   width="16"
   version="1.1"
   id="svg6"
   sodipodi:docname="mate-eiciel-symbolic.svg"
   inkscape:version="0.92.3 (2405546, 2018-03-11)">
  <metadata
     id="metadata12">
    <rdf:RDF>
      <cc:Work
         rdf:about="">
        <dc:format>image/svg+xml</dc:format>
        <dc:type
           rdf:resource="http://purl.org/dc/dcmitype/StillImage" />
        <dc:title></dc:title>
      </cc:Work>
    </rdf:RDF>
  </metadata>
  <defs
     id="defs10" />
  <sodipodi:namedview
     pagecolor="#ffffff"
     bordercolor="#666666"
     borderopacity="1"
     objecttolerance="10"
     gridtolerance="10"
     guidetolerance="10"
     inkscape:pageopacity="0"
     inkscape:pageshadow="2"
     inkscape:window-width="1564"
     inkscape:window-height="819"
     id="namedview8"
     showgrid="false"
     inkscape:zoom="14.75"
     inkscape:cx="8"
     inkscape:cy="8"
     inkscape:window-x="0"
     inkscape:window-y="34"
     inkscape:window-maximized="0"
     inkscape:current-layer="svg6" />
  <path
     inkscape:connector-curvature="0"
     id="text21678"
     d="m 13.904348,11.97213 v 2.71776 C 12.240573,15.22996 10.646504,15.5 9.1221233,15.5 6.7266383,15.5 4.8407583,14.81184 3.464448,13.43553 2.088155,12.06795 1.4,10.19513 1.4,7.8170698 c 0,-2.22123 0.601045,-3.99388 1.803134,-5.31793 1.1933783,-1.33274 2.7874473,-1.99912002 4.7822243,-1.99914002 2.3170677,2e-5 3.9329057,0.84932002 4.8475657,2.54792002 0.688136,1.28049 1.045273,3.18815 1.071424,5.7229798 H 5.4766473 c 0.113297,0.83624 0.265678,1.4677904 0.457321,1.8946104 0.679426,1.47213 1.959915,2.20819 3.841466,2.20819 1.1846497,0 2.5609597,-0.30052 4.1289137,-0.90157 M 5.4374563,6.5888498 H 10.10209 c -0.02619,-1.1411 -0.1612177,-1.98605 -0.4050557,-2.53483 -0.348442,-0.75783 -0.910295,-1.13675 -1.685543,-1.13677 -0.871087,2e-5 -1.533109,0.44861 -1.986066,1.34582 -0.261332,0.52266 -0.457321,1.29792 -0.587969,2.32578"
     style="font-style:normal;font-variant:normal;font-weight:bold;font-stretch:normal;font-size:15.02164364px;font-family:'Luxi Sans';writing-mode:lr-tb;text-anchor:start;clip-rule:evenodd;fill:#808080;fill-opacity:1;fill-rule:evenodd;stroke:none;stroke-width:0.35628015;stroke-linecap:butt;stroke-linejoin:miter;stroke-miterlimit:4;stroke-opacity:1;image-rendering:optimizeQuality;shape-rendering:geometricPrecision;text-rendering:geometricPrecision" />
</svg>
