<?xml version="1.0" standalone="no"?><!-- Generator: Gravit.io --><svg xmlns="http://www.w3.org/2000/svg" xmlns:xlink="http://www.w3.org/1999/xlink" style="isolation:isolate" viewBox="0 0 256 256" width="256" height="256"><defs><filter id="vqBQPD73lfYo0zsYLRUF3wzfovZ0t9UL" x="-7.324" y="2.947" width="270.648" height="254.338" filterUnits="userSpaceOnUse"><feGaussianBlur xmlns="http://www.w3.org/2000/svg" in="SourceGraphic" stdDeviation="4.293609062839028"/><feOffset xmlns="http://www.w3.org/2000/svg" dx="0" dy="4" result="pf_100_offsetBlur"/><feFlood xmlns="http://www.w3.org/2000/svg" flood-color="#000000" flood-opacity="0.4"/><feComposite xmlns="http://www.w3.org/2000/svg" in2="pf_100_offsetBlur" operator="in" result="pf_100_dropShadow"/><feBlend xmlns="http://www.w3.org/2000/svg" in="SourceGraphic" in2="pf_100_dropShadow" mode="normal"/></filter></defs><g filter="url(#vqBQPD73lfYo0zsYLRUF3wzfovZ0t9UL)"><radialGradient id="_rgradient_3" fx="0.5" fy="0.5" cx="0.5" cy="0.5" r="0.5" gradientTransform="matrix(244.648,0,0,228.338,5.676,11.947)" gradientUnits="userSpaceOnUse"><stop offset="0%" stop-opacity="1" style="stop-color:rgb(51,51,51)"/><stop offset="100%" stop-opacity="1" style="stop-color:rgb(0,0,0)"/></radialGradient><path d=" M 165.685 11.947 C 239.74 11.947 250.324 22.504 250.324 96.491 L 250.324 155.742 C 250.324 229.728 239.74 240.285 165.685 240.285 L 90.315 240.285 C 16.26 240.285 5.676 229.728 5.676 155.742 L 5.676 96.491 C 5.676 22.504 16.26 11.947 90.315 11.947 L 165.685 11.947 Z " id="shape" fill="url(#_rgradient_3)"/></g><g opacity="0.2"><path d=" M 226.499 22.25 L 29.956 231.898 C 42.535 238.491 61.75 240.148 90.904 240.148 L 165.551 240.148 C 238.896 240.148 249.379 229.692 249.379 156.415 L 249.379 97.733 C 249.379 53.583 245.566 32.244 226.499 22.25 Z " id="right angle highlight" fill="rgb(255,255,255)"/></g><g opacity="0.4"><linearGradient id="_lgradient_169" x1="0.5166666666666668" y1="0" x2="0.5166666666666666" y2="1.0000000000000002"><stop offset="0%" stop-opacity="1" style="stop-color:rgb(255,255,255)"/><stop offset="12.5%" stop-opacity="0.09803922" style="stop-color:rgb(255,255,255)"/><stop offset="92.500001%" stop-opacity="0.09803922" style="stop-color:rgb(0,0,0)"/><stop offset="100%" stop-opacity="0.49803922" style="stop-color:rgb(0,0,0)"/></linearGradient><path d=" M 165.685 11.947 C 239.74 11.947 250.324 22.504 250.324 96.491 L 250.324 155.742 C 250.324 229.728 239.74 240.285 165.685 240.285 L 90.315 240.285 C 16.26 240.285 5.676 229.728 5.676 155.742 L 5.676 96.491 C 5.676 22.504 16.26 11.947 90.315 11.947 L 165.685 11.947 Z " id="highlight" fill="none" vector-effect="non-scaling-stroke" stroke-width="4.077" stroke="url(#_lgradient_169)" stroke-linejoin="round" stroke-linecap="round" stroke-miterlimit="4"/></g><g id="Group"><radialGradient id="_rgradient_4" fx="0.500000198822919" fy="0.4999985798347879" cx="0.5" cy="0.5" r="2.5" gradientTransform="matrix(46.573,0,0,46.573,126.164,68.42)" gradientUnits="userSpaceOnUse"><stop offset="0%" stop-opacity="1" style="stop-color:rgb(255,255,255)"/><stop offset="100%" stop-opacity="0" style="stop-color:rgb(255,255,255)"/></radialGradient><path d=" M 149.489 68.42 L 146.124 88.38 L 126.164 91.199 L 146.124 95.033 L 149.783 114.993 L 152.778 95.033 L 172.738 91.934 L 152.778 88.38 L 149.489 68.42 Z " fill-rule="evenodd" id="path18004" fill="url(#_rgradient_4)"/><radialGradient id="_rgradient_5" fx="0.49999913167145027" fy="0.49999898559545386" cx="0.5" cy="0.5" r="2.5" gradientTransform="matrix(46.573,0,0,46.573,42.324,61.113)" gradientUnits="userSpaceOnUse"><stop offset="0%" stop-opacity="1" style="stop-color:rgb(255,255,255)"/><stop offset="100%" stop-opacity="0" style="stop-color:rgb(255,255,255)"/></radialGradient><path d=" M 65.649 61.113 L 62.284 81.073 L 42.324 83.892 L 62.284 87.727 L 65.943 107.686 L 68.938 87.727 L 88.898 84.627 L 68.938 81.073 L 65.649 61.113 Z " fill-rule="evenodd" id="path18910" fill="url(#_rgradient_5)"/><radialGradient id="_rgradient_6" fx="0.5000001176706885" fy="0.4999989855971023" cx="0.5" cy="0.5" r="2.5" gradientTransform="matrix(46.573,0,0,46.573,79.591,95.033)" gradientUnits="userSpaceOnUse"><stop offset="0%" stop-opacity="1" style="stop-color:rgb(255,255,255)"/><stop offset="100%" stop-opacity="0" style="stop-color:rgb(255,255,255)"/></radialGradient><path d=" M 102.915 95.033 L 99.551 114.993 L 79.591 117.812 L 99.551 121.646 L 103.21 141.606 L 106.204 121.646 L 126.164 118.547 L 106.204 114.993 L 102.915 95.033 Z " fill-rule="evenodd" id="path18914" fill="url(#_rgradient_6)"/><radialGradient id="_rgradient_7" fx="0.5000005437195343" fy="0.4999965510469373" cx="0.5" cy="0.5" r="2.5" gradientTransform="matrix(46.573,0,0,46.573,23,132.99)" gradientUnits="userSpaceOnUse"><stop offset="0%" stop-opacity="1" style="stop-color:rgb(255,255,255)"/><stop offset="100%" stop-opacity="0" style="stop-color:rgb(255,255,255)"/></radialGradient><path d=" M 46.324 132.99 L 42.96 152.95 L 23 155.769 L 42.96 159.604 L 46.618 179.564 L 49.613 159.604 L 69.573 156.505 L 49.613 152.95 L 46.324 132.99 Z " fill-rule="evenodd" id="path18918" fill="url(#_rgradient_7)"/><g opacity="0.7"><path d=" M 204.723 97.997 C 207.314 104.119 208.674 110.896 208.674 117.958 C 208.674 146.206 185.774 169.105 157.526 169.105 C 149.276 169.105 141.559 167.171 134.655 163.699 C 142.428 182.064 160.666 194.887 181.852 194.887 C 210.101 194.887 233 171.987 233 143.739 C 233 123.741 221.458 106.415 204.723 97.997 L 204.723 97.997 Z " id="path23408" fill="rgb(238,238,236)"/></g></g></svg>