<svg xmlns="http://www.w3.org/2000/svg" style="isolation:isolate" width="256" height="256"><defs><filter id="a" width="270.648" height="254.338" x="-7.32" y="2.95" filterUnits="userSpaceOnUse"><feGaussianBlur xmlns="http://www.w3.org/2000/svg" in="SourceGraphic" stdDeviation="4.294"/><feOffset xmlns="http://www.w3.org/2000/svg" dy="4" result="pf_100_offsetBlur"/><feFlood xmlns="http://www.w3.org/2000/svg" flood-opacity=".4"/><feComposite xmlns="http://www.w3.org/2000/svg" in2="pf_100_offsetBlur" operator="in" result="pf_100_dropShadow"/><feBlend xmlns="http://www.w3.org/2000/svg" in="SourceGraphic" in2="pf_100_dropShadow"/></filter></defs><g filter="url(#a)"><linearGradient id="b" x1=".233" x2=".933" y1="-.071" y2=".995" gradientTransform="matrix(244.648 0 0 228.338 5.676 11.947)" gradientUnits="userSpaceOnUse"><stop offset="0%" stop-color="#e8e8e8"/><stop offset="100%" stop-color="#f5f5f5"/></linearGradient><path fill="url(#b)" d="M165.685 11.947c74.055 0 84.639 10.557 84.639 84.544v59.251c0 73.986-10.584 84.543-84.639 84.543h-75.37c-74.055 0-84.639-10.557-84.639-84.543V96.491c0-73.987 10.584-84.544 84.639-84.544h75.37z"/></g><g opacity=".4"><linearGradient id="c" x1=".517" x2=".517" y2="1"><stop offset="0%" stop-color="#fff"/><stop offset="12.5%" stop-opacity=".098" stop-color="#fff"/><stop offset="92.5%" stop-opacity=".098"/><stop offset="100%" stop-opacity=".498"/></linearGradient><path fill="none" stroke="url(#c)" stroke-linecap="round" stroke-linejoin="round" stroke-width="4.077" d="M165.685 11.947c74.055 0 84.639 10.557 84.639 84.544v59.251c0 73.986-10.584 84.543-84.639 84.543h-75.37c-74.055 0-84.639-10.557-84.639-84.543V96.491c0-73.987 10.584-84.544 84.639-84.544h75.37z" vector-effect="non-scaling-stroke"/></g><defs><filter id="d" width="186" height="179.574" x="35" y="42.21" filterUnits="userSpaceOnUse"><feGaussianBlur xmlns="http://www.w3.org/2000/svg" in="SourceGraphic" stdDeviation="4.294"/><feOffset xmlns="http://www.w3.org/2000/svg" dy="4" result="pf_100_offsetBlur"/><feFlood xmlns="http://www.w3.org/2000/svg" flood-opacity=".4"/><feComposite xmlns="http://www.w3.org/2000/svg" in2="pf_100_offsetBlur" operator="in" result="pf_100_dropShadow"/><feBlend xmlns="http://www.w3.org/2000/svg" in="SourceGraphic" in2="pf_100_dropShadow"/></filter></defs><path fill="#76C22B" d="M167.412 53.738c-2.768-1.333-5.4-2.136-7.894-2.408-2.541-.259-4.856-.088-6.948.513-2.092.6-3.939 1.587-5.541 2.96-1.602 1.373-2.876 3.047-3.826 5.019-.601 1.247-1.043 2.41-1.327 3.489-.298 1.107-.494 2.084-.589 2.932-.109.877-.149 1.609-.118 2.196.031.586.017 1.106.061 1.342l.267 2.63c.124 1.214-.006 2.155-.39 2.819-.361.682-1.052 1.077-2.074 1.181a5.152 5.152 0 0 1-.773.011 5.65 5.65 0 0 1-.754-.085L96.213 56.452 82.756 84.396a5.492 5.492 0 0 0-.085.753c-.015.282-.011.539.013.774.104 1.022.498 1.713 1.181 2.074.663.384 1.605.514 2.819.39l2.63-.267c.235-.044.756-.03 1.342-.061.587-.03 1.319.008 2.196.118.848.094 1.825.291 2.932.589 1.078.284 2.241.726 3.489 1.327 1.972.949 3.646 2.224 5.019 3.826 1.372 1.601 2.36 3.449 2.96 5.541.601 2.091.768 4.405.51 6.946-.272 2.494-1.072 5.128-2.405 7.895-1.333 2.768-2.853 5.071-4.562 6.913-1.722 1.796-3.559 3.128-5.511 3.991a13.689 13.689 0 0 1-6.09 1.183c-2.108-.075-4.221-.624-6.339-1.643a25.101 25.101 0 0 1-3.281-1.874 24.88 24.88 0 0 1-2.462-1.891c-.676-.6-1.225-1.139-1.64-1.613-.4-.506-.553-.834-.68-1.091l-1.429-2.226c-.66-1.026-1.349-1.682-2.063-1.96-.708-.308-1.495-.183-2.36.373a5.117 5.117 0 0 0-.612.471 5.475 5.475 0 0 0-.534.534L48 156.572l41.293 19.885c.22.042.473.071.754.086s.539.011.773-.012c1.023-.104 1.714-.498 2.074-1.181.385-.663.514-1.605.391-2.819l-.268-2.63c-.043-.235-.029-.755-.06-1.342-.031-.587.009-1.319.118-2.196.094-.847.291-1.825.589-2.932.284-1.078.726-2.241 1.326-3.488.95-1.973 2.225-3.647 3.826-5.019 1.602-1.373 3.449-2.36 5.541-2.961 2.092-.601 4.408-.771 6.948-.513 2.495.272 5.126 1.076 7.894 2.408 2.767 1.333 5.071 2.853 6.913 4.562 1.796 1.723 3.128 3.559 3.991 5.511a13.689 13.689 0 0 1 1.183 6.09c-.075 2.108-.624 4.222-1.644 6.339a25.001 25.001 0 0 1-1.873 3.282 24.972 24.972 0 0 1-1.892 2.461c-.6.676-1.139 1.225-1.613 1.64-.506.4-.833.553-1.09.68l-2.226 1.429c-1.026.661-1.682 1.349-1.961 2.063-.308.708-.183 1.495.373 2.36.128.198.285.402.472.613.187.211.364.388.534.534l27.755 13.365 19.793-41.104c.146-.17.323-.347.534-.534.211-.187.415-.344.613-.472.865-.556 1.652-.682 2.36-.373.714.279 1.402.935 2.063 1.961l1.429 2.226c.127.257.28.584.68 1.09.415.474.964 1.013 1.64 1.613a25.181 25.181 0 0 0 5.743 3.765c2.117 1.019 4.231 1.569 6.339 1.643 2.108.075 4.138-.32 6.09-1.182 1.952-.863 3.789-2.195 5.511-3.991 1.709-1.842 3.229-4.146 4.562-6.913 1.332-2.768 2.132-5.401 2.405-7.896.258-2.54.091-4.854-.51-6.946-.601-2.092-1.588-3.939-2.961-5.541-1.372-1.602-3.046-2.876-5.019-3.826-1.247-.601-2.41-1.043-3.488-1.327-1.107-.298-2.085-.494-2.932-.589-.877-.108-1.609-.149-2.196-.117-.587.03-1.107.019-1.342.06l-2.63.267c-1.214.124-2.156-.007-2.819-.39-.682-.362-1.077-1.051-1.181-2.074a5.126 5.126 0 0 1-.014-.773c.015-.281.044-.534.086-.754l13.456-27.944-27.754-13.365a5.475 5.475 0 0 1-.534-.534 5.137 5.137 0 0 1-.472-.613c-.556-.864-.682-1.652-.373-2.359.279-.715.934-1.403 1.961-2.063l2.226-1.43c.257-.126.584-.28 1.09-.679.474-.415 1.013-.965 1.613-1.64.6-.676 1.23-1.494 1.892-2.462a25.166 25.166 0 0 0 1.873-3.281c1.02-2.118 1.569-4.231 1.643-6.339a13.682 13.682 0 0 0-1.182-6.09c-.863-1.953-2.195-3.789-3.991-5.512-1.842-1.708-4.146-3.228-6.913-4.561z" filter="url(#d)"/></svg>