<svg xmlns="http://www.w3.org/2000/svg" style="enable-background:new" width="16" height="16" version="1.1">
 <g transform="translate(-4,-4)" style="fill:#808080">
  <path class="ColorScheme-ButtonBackground" d="M 12,4 A 8,8 0 0 0 6.3965,6.293 l 2.7558,4.773 A 3,3 0 0 1 12,9 h 7.412 A 8,8 0 0 0 12,4 Z M 5.6992,7.0859 A 8,8 0 0 0 4,12 8,8 0 0 0 9.8652,19.701 L 12.617,14.934 A 3,3 0 0 1 12,15 3,3 0 0 1 9.4062,13.498 L 9.4023,13.5 Z M 14.23,10 a 3,3 0 0 1 0.77,2 3,3 0 0 1 -0.404,1.498 l 0.002,0.002 -3.7035,6.414 A 8,8 0 0 0 12,20 8,8 0 0 0 20,12 8,8 0 0 0 19.74,10 Z" style="fill:#808080"/>
  <path class="ColorScheme-ButtonBackground" d="M 11.999823,10 A 1.9999646,1.9999646 0 0 0 10,11.999823 1.9999646,1.9999646 0 0 0 11.999823,14 1.9999646,1.9999646 0 0 0 14,11.999823 1.9999646,1.9999646 0 0 0 11.999823,10 Z" style="fill:#808080"/>
 </g>
</svg>
