<svg xmlns="http://www.w3.org/2000/svg" width="24" height="24" version="1">
 <path style="opacity:0.5;fill:#ffffff;fill-rule:evenodd" d="M 12,1 C 5.9280001,1 0.9999997,5.9280001 1,12 c 0,1.233375 0.2266195,2.416178 0.6015625,3.523438 L 8.132813,13.417969 C 7.9678502,12.972256 7.875,12.502838 7.875,12 7.8750001,9.723 9.723,7.875 12,7.875 Z M 1.7304688,15.910156 c 0.1520385,0.39967 0.3198794,0.784315 0.515625,1.160157 -0.1994845,-0.37684 -0.3651929,-0.769074 -0.515625,-1.160157 z m 1.5039062,2.707032 c 0.2035407,0.269035 0.4176443,0.524485 0.6445313,0.773437 C 3.6568475,19.146069 3.4339376,18.881031 3.234375,18.617188 Z m 7.433594,4.296874 C 11.10665,22.967345 11.547013,23 12,23 11.546638,23 11.10705,22.96745 10.667969,22.91406 Z"/>
 <path style="fill:#ffffff" d="m 12,1 v 6.875 c 2.277,1e-7 4.125,1.848 4.125,4.125 0,2.277 -1.848,4.125 -4.125,4.125 -1.357829,0 -2.556775,-0.662381 -3.308594,-1.675781 C 8.449813,14.122082 8.264008,13.781574 8.132813,13.417969 L 1.5585938,15.523438 C 1.9146363,16.577261 2.452627,17.589063 3.1484375,18.53125 5.1525894,21.241308 8.373101,23 12,23 18.072,23 23,18.072 23,12 23,5.9280001 18.072,1.0000003 12,1 Z"/>
</svg>
