<svg xmlns="http://www.w3.org/2000/svg" width="24" height="24" version="1">
 <path style="opacity:0.5;fill:#ffffff;fill-rule:evenodd" d="M 12,1 C 9.554899,1 7.2957555,1.797324 5.46875,3.1484375 L 9.550781,8.6914062 C 10.236795,8.1824692 11.080829,7.875 12,7.875 Z M 5.3828125,3.234375 C 5.1137774,3.4379157 4.8583271,3.6520193 4.609375,3.8789062 4.8539315,3.6568475 5.1189697,3.4339375 5.3828125,3.234375 Z m -4.296875,7.433594 C 1.0326546,11.10665 1,11.547013 1,12 c 0,-0.453362 0.032555,-0.89295 0.085937,-1.332031 z"/>
 <path style="fill:#ffffff" d="m 12,1 v 6.875 c 2.277,0 4.125,1.848 4.125,4.125 0,2.277 -1.848,4.125 -4.125,4.125 -2.277,0 -4.125,-1.848 -4.125,-4.125 0,-1.357829 0.662382,-2.5567754 1.675781,-3.3085938 L 5.46875,3.1484375 C 2.7586917,5.1525894 1.0000001,8.3731006 1,12 1,18.072 5.9280003,23 12,23 18.072,23 23,18.072 23,12 23,5.9280001 18.072,1.0000003 12,1 Z"/>
</svg>
