<svg xmlns="http://www.w3.org/2000/svg" width="24" height="24" version="1">
 <path style="opacity:0.5;fill:#ffffff;fill-rule:evenodd" d="M 12,1 C 5.9280001,1 0.99999973,5.9280001 1,12 c 0,6.072 4.9280003,11 11,11 3.648549,0 6.893032,-1.774081 8.894531,-4.511719 L 15.308594,14.449219 C 14.556775,15.462619 13.357829,16.125 12,16.125 9.723,16.125 7.875,14.277 7.875,12 7.8750001,9.723 9.723,7.875 12,7.875 Z m 4.125,11 c 0,0.284625 -0.03096,0.54796 -0.08594,0.816406 C 16.091763,12.555545 16.125,12.276244 16.125,12 Z m -0.08594,0.816406 c -0.05497,0.268447 -0.153397,0.526711 -0.257812,0.773438 0.107222,-0.251533 0.202411,-0.499212 0.257812,-0.773438 z m 6.273438,3.007813 c -0.122733,0.332927 -0.276546,0.628475 -0.429688,0.945312 0.150419,-0.311313 0.308596,-0.618543 0.429688,-0.945312 z"/>
 <path style="fill:#ffffff" d="m 12,1 v 6.875 c 2.277,0 4.125,1.848 4.125,4.125 0,0.918276 -0.306822,1.765431 -0.816406,2.449219 l 5.585937,4.039062 C 22.222667,16.669933 23,14.422008 23,12 23,5.9280001 18.072,1.0000003 12,1 Z"/>
</svg>
