<svg xmlns="http://www.w3.org/2000/svg" width="24" height="24" version="1">
 <path style="opacity:0.5;fill:#ffffff;fill-rule:evenodd" d="m 12,1 c 0.453362,0 0.89295,0.032556 1.332031,0.085937 C 12.89335,1.0326546 12.452987,1 12,1 Z m 0,0 C 5.9280001,1 0.9999997,5.9280001 1,12 1,18.072 5.9280003,23 12,23 18.072,23 23,18.072 23,12 23,9.5548994 22.202676,7.2957555 20.851562,5.46875 L 15.308594,9.5507813 C 15.817531,10.236795 16.125,11.080829 16.125,12 16.125,14.277 14.277,16.125 12,16.125 9.723,16.125 7.875,14.277 7.875,12 7.8750001,9.723 9.723,7.875 12,7.875 Z m 8.121094,3.609375 c 0.222058,0.2445565 0.444969,0.5095947 0.644531,0.7734375 C 20.562084,5.1137774 20.347981,4.8583271 20.121094,4.609375 Z"/>
 <path style="fill:#ffffff" d="m 12,1 v 6.875 c 1.357829,0 2.556775,0.6623815 3.308594,1.6757813 L 20.851562,5.46875 C 18.847411,2.7586918 15.626899,1.0000001 12,1 Z"/>
</svg>
