<svg xmlns="http://www.w3.org/2000/svg" width="24" height="24" version="1">
 <path style="opacity:0.5;fill:#ffffff;fill-rule:evenodd" d="M 12,1 C 5.9280001,1 0.99999973,5.9280001 1,12 c 0,6.072 4.9280003,11 11,11 2.445101,0 4.704245,-0.797324 6.53125,-2.148438 L 14.449219,15.308594 C 13.763205,15.817531 12.919171,16.125 12,16.125 9.723,16.125 7.875,14.277 7.875,12 7.8750001,9.723 9.723,7.875 12,7.875 Z m 11,11 c 0,0.453362 -0.03256,0.89295 -0.08594,1.332031 C 22.967345,12.89335 23,12.452987 23,12 Z m -3.609375,8.121094 c -0.244556,0.222058 -0.509594,0.444969 -0.773438,0.644531 0.269036,-0.203541 0.524486,-0.417644 0.773438,-0.644531 z"/>
 <path style="fill:#ffffff" d="m 12,1 v 6.875 c 2.277,0 4.125,1.848 4.125,4.125 0,1.357829 -0.662382,2.556775 -1.675781,3.308594 l 4.082031,5.542968 C 21.241308,18.847411 23,15.626899 23,12 23,5.9280001 18.072,1.0000003 12,1 Z"/>
</svg>
