<svg xmlns="http://www.w3.org/2000/svg" width="24" height="24" version="1">
 <path style="opacity:0.5;fill:#ffffff;fill-rule:evenodd" d="M 12,1 C 5.9280001,1 0.9999997,5.9280001 1,12 c 0,6.072 4.9280003,11 11,11 1.233375,0 2.416177,-0.226619 3.523437,-0.601563 L 13.417969,15.867188 C 12.972256,16.03215 12.502837,16.125 12,16.125 9.723,16.125 7.875,14.277 7.875,12 7.8750001,9.723 9.723,7.875 12,7.875 Z m 11,11 c 0,0.453362 -0.03256,0.89295 -0.08594,1.332031 C 22.967345,12.89335 23,12.452987 23,12 Z m -3.609375,8.121094 c -0.244556,0.222058 -0.509594,0.444969 -0.773438,0.644531 0.269036,-0.203541 0.524486,-0.417644 0.773438,-0.644531 z m -2.320313,1.632812 c -0.376839,0.199485 -0.769073,0.365193 -1.160156,0.515625 0.39967,-0.152039 0.784315,-0.31988 1.160156,-0.515625 z"/>
 <path style="fill:#ffffff" d="m 12,1 v 6.875 c 2.277,0 4.125,1.848 4.125,4.125 0,1.357829 -0.662382,2.556775 -1.675781,3.308594 -0.327138,0.241593 -0.667645,0.427398 -1.03125,0.558594 l 2.105468,6.574218 C 16.577261,22.085364 17.589063,21.547373 18.53125,20.851562 21.241308,18.847411 23,15.626899 23,12 23,5.9280001 18.072,1.0000003 12,1 Z"/>
</svg>
