<svg xmlns="http://www.w3.org/2000/svg" xmlns:xlink="http://www.w3.org/1999/xlink" width="24" height="24" version="1.1" viewBox="0 0 24 24">
 <defs>
  <linearGradient id="linearGradient4947">
   <stop offset="0" style="stop-color:#dbdee0"/>
   <stop offset="1" style="stop-color:#dbdee0;stop-opacity:0"/>
  </linearGradient>
  <linearGradient id="linearGradient3768">
   <stop offset="0" style="stop-color:#dbdee0"/>
   <stop offset="1" style="stop-color:#dbdee0;stop-opacity:0"/>
  </linearGradient>
  <linearGradient id="linearGradient3816" x1="5.875" x2="3.875" y1="31.125" y2="4.125" gradientTransform="matrix(-0.8660254,-0.5,-0.5,0.8660254,500.34655,375.43694)" gradientUnits="userSpaceOnUse" xlink:href="#linearGradient3768"/>
  <linearGradient id="linearGradient3819" x1="12" x2="23" y1="6" y2="10" gradientTransform="matrix(0.8660254,0.5,-0.5,0.8660254,479.6077,363.6077)" gradientUnits="userSpaceOnUse" xlink:href="#linearGradient4947"/>
 </defs>
 <g transform="translate(-472.00001,-368.00002)">
  <path d="m 488,373.0718 c -3.81608,-2.20322 -8.72499,-0.88788 -10.9282,2.9282 -2.20322,3.81608 -0.88788,8.72499 2.9282,10.9282 l 1,-1.73205 c -2.88001,-1.66277 -3.85893,-5.31614 -2.19615,-8.19615 1.66277,-2.88001 5.31614,-3.85893 8.19615,-2.19615 0.47829,0.27614 1.08988,0.11226 1.36602,-0.36603 0.27615,-0.47829 0.11227,-1.08988 -0.36602,-1.36602 z" style="fill:url(#linearGradient3819)"/>
  <path d="m 488,373.0718 c 3.81608,2.20321 5.13142,7.11212 2.9282,10.9282 -2.20321,3.81608 -7.11212,5.13142 -10.9282,2.9282 l 1,-1.73205 c 2.88001,1.66278 6.53338,0.68386 8.19615,-2.19615 1.66278,-2.88001 0.68386,-6.53338 -2.19615,-8.19615 z" style="fill:url(#linearGradient3816)"/>
 </g>
</svg>
