<svg xmlns="http://www.w3.org/2000/svg" xmlns:xlink="http://www.w3.org/1999/xlink" width="24" height="24" version="1.1" viewBox="0 0 24 24">
 <defs>
  <linearGradient id="linearGradient4947">
   <stop offset="0" style="stop-color:#dbdee0"/>
   <stop offset="1" style="stop-color:#dbdee0;stop-opacity:0"/>
  </linearGradient>
  <linearGradient id="linearGradient3768">
   <stop offset="0" style="stop-color:#dbdee0"/>
   <stop offset="1" style="stop-color:#dbdee0;stop-opacity:0"/>
  </linearGradient>
  <linearGradient id="linearGradient3816" x1="5.875" x2="3.875" y1="31.125" y2="4.125" gradientTransform="matrix(0,-1,-1,0,544.125,391.875)" gradientUnits="userSpaceOnUse" xlink:href="#linearGradient3768"/>
  <linearGradient id="linearGradient3819" x1="12" x2="23" y1="6" y2="10" gradientTransform="matrix(0,1,-1,0,544,368)" gradientUnits="userSpaceOnUse" xlink:href="#linearGradient4947"/>
 </defs>
 <g transform="translate(-520.00001,-368.00002)">
  <path d="m 540,380 c 0,-4.40643 -3.59357,-8 -8,-8 -4.40643,0 -8,3.59357 -8,8 l 2,0 c 0,-3.32555 2.67445,-6 6,-6 3.32555,0 6,2.67445 6,6 0,0.55228 0.44772,1 1,1 0.55228,0 1,-0.44772 1,-1 z" style="fill:url(#linearGradient3819)"/>
  <path d="m 540,380 c 0,4.40643 -3.59357,8 -8,8 -4.40643,0 -8,-3.59357 -8,-8 l 2,0 c 0,3.32555 2.67445,6 6,6 3.32555,0 6,-2.67445 6,-6 z" style="fill:url(#linearGradient3816)"/>
 </g>
</svg>
