<svg xmlns="http://www.w3.org/2000/svg" width="256" height="256" version="1.1">
  <defs>
   <linearGradient id="gradients" x1="971.138" x2="975.537" y1="-1487.17" y2="19.037" gradientTransform="matrix(.11988932 0 0 .11988932 3.1009196 232.21778)" gradientUnits="userSpaceOnUse">
    <stop style="stop-color:#0abdc6" offset="0"/>
    <stop style="stop-color:#ea00d9" offset="1"/>
   </linearGradient>
   <radialGradient id="b" cx=".5" cy=".5" r=".272" fx=".5" fy=".136" gradientTransform="matrix(230 0 0 60.62 13 21)" gradientUnits="userSpaceOnUse">
    <stop offset="0%" stop-color="#ffffff"/>
    <stop offset="100%" stop-color="#ffffff" stop-opacity=".204"/>
   </radialGradient>
   <radialGradient id="c" cx=".5" cy=".5" r=".272" fx=".482" fy=".211" gradientTransform="matrix(230 0 0 58.565 13 53.922)" gradientUnits="userSpaceOnUse">
    <stop offset="0%" stop-color="#ffffff"/>
    <stop offset="100%" stop-color="#ffffff" stop-opacity=".204"/>
   </radialGradient>
  </defs>
  <path fill="#133e7c" d="M53.039 21C16.724 21 13 23.055 13 59.371v52.167h230V79.563c0-36.316-3.724-42.102-40.039-42.102h-89.336L97.198 21H53.039z"/>
  <path d="M 53.039,70.384 C 16.722,70.384 13,74.114 13,110.429 v 84.524 C 13,231.269 16.722,235 53.039,235 H 202.961 C 239.278,235 243,231.269 243,194.953 V 93.969 C 243,57.653 239.278,53.922 202.961,53.922 H 119.53 l -16.438,16.462 z" style="fill:url(#gradients)"/>
  <g opacity="0.4">
   <path fill="url(#b)" d="M 53.039,21 C 16.724,21 13,23.055 13,59.371 V 61.43 C 13,25.114 16.724,23.057 53.039,23.057 h 44.159 l 16.427,16.461 h 89.336 C 239.276,39.518 243,45.304 243,81.62 V 79.563 C 243,43.247 239.276,37.461 202.961,37.461 H 113.625 L 97.198,21 Z"/>
  </g>
  <g opacity="0.4">
   <path fill="url(#c)" d="M 119.53,53.922 103.092,70.384 H 53.039 C 16.724,70.384 13,74.112 13,110.427 v 2.06 C 13,76.171 16.724,72.441 53.039,72.441 h 50.053 l 16.438,-16.46 h 83.431 c 36.315,0 40.039,3.727 40.039,40.043 v -2.057 c 0,-36.316 -3.724,-40.045 -40.039,-40.045 z"/>
  </g>
  <path fill="#ffffff" opacity=".1" d="m 243,167.096 -65.715,65.845 h 25.676 c 36.315,0 40.039,-3.727 40.039,-40.043 z"/>
  <path opacity="0.2" d="m 13,192.898 v 2.057 C 13,231.271 16.724,235 53.039,235 H 202.961 C 239.276,235 243,231.271 243,194.955 v -2.057 c 0,36.316 -3.724,40.043 -40.039,40.043 H 53.039 C 16.724,232.941 13,229.214 13,192.898 Z"/>
  <path fill="#d7d7d5" d="M163.574 92c-22.853 0-27.137 35.617-14.279 35.617 12.853 0 37.137-35.617 14.279-35.617zm-35.202 5.478c-.36 0-.742.037-1.152.079-12.956 1.675-8.397 24.157-1.503 24.577 6.665.406 13.974-24.614 2.642-24.656h.013zm-22.452 8.299c-.792-.051-1.67.101-2.646.512-10.41 4.385-1.58 22.482 4.248 21.268 5.288-1.103 6.049-21.272-1.602-21.78zm-16.989 14.797c-.905-.028-1.886.295-2.93 1.089-8.33 6.379 2.809 21.789 7.709 19.399 4.289-2.091 1.553-20.253-4.783-20.488h.004zm49.212 14.709c-18.051-.318-41.872 9.074-45.936 27.96C87.81 183.662 110.317 212 133.791 212c11.552 0 24.878-10.828 27.371-24.54 1.904-10.454-22.403-6.263-21.534.651 1.048 8.294-5.86 12.392-12.624 7.047-21.543-17.016 35.666-25.509 31.89-48.761-1.175-7.237-9.932-10.92-20.76-11.114h.009z"/>
</svg>