<?xml version="1.0" encoding="UTF-8" standalone="no"?>
<svg
   xmlns:dc="http://purl.org/dc/elements/1.1/"
   xmlns:cc="http://creativecommons.org/ns#"
   xmlns:rdf="http://www.w3.org/1999/02/22-rdf-syntax-ns#"
   xmlns:svg="http://www.w3.org/2000/svg"
   xmlns="http://www.w3.org/2000/svg"
   xmlns:sodipodi="http://sodipodi.sourceforge.net/DTD/sodipodi-0.dtd"
   xmlns:inkscape="http://www.inkscape.org/namespaces/inkscape"
   height="24"
   width="24"
   version="1.1"
   id="svg2"
   sodipodi:docname="dropboxstatus-idle.svg"
   inkscape:version="0.92.3 (unknown)">
  <metadata
     id="metadata8">
    <rdf:RDF>
      <cc:Work
         rdf:about="">
        <dc:format>image/svg+xml</dc:format>
        <dc:type
           rdf:resource="http://purl.org/dc/dcmitype/StillImage" />
      </cc:Work>
    </rdf:RDF>
  </metadata>
  <sodipodi:namedview
     pagecolor="#ffffff"
     bordercolor="#666666"
     borderopacity="1"
     objecttolerance="10"
     gridtolerance="10"
     guidetolerance="10"
     inkscape:pageopacity="0"
     inkscape:pageshadow="2"
     inkscape:window-width="1264"
     inkscape:window-height="763"
     id="namedview6"
     showgrid="false"
     inkscape:zoom="9.8333333"
     inkscape:cx="-43.932204"
     inkscape:cy="12"
     inkscape:window-x="0"
     inkscape:window-y="34"
     inkscape:window-maximized="0"
     inkscape:current-layer="svg2" />
  <defs
     id="defs8">
    <style
       type="text/css"
       id="current-color-scheme">
   .ColorScheme-Text { color:#5c616c; } .ColorScheme-Highlight { color:#5294e2; } .ColorScheme-ButtonBackground { color:#d3dae3; }
  </style>
  </defs>
  <path
     style="color:#d3dae3;fill:#ffffff;fill-opacity:1;stroke-width:1.15729785"
     d="M 6.7978306,2.8259372 1.0113415,6.2978307 5.6405328,9.75167 1,13.232359 6.7978306,16.713511 11.427022,13.241617 5.6405328,9.769724 11.427022,6.2978307 l 5.786489,3.4899473 -5.786489,3.453839 2.056865,1.543836 a 5.7864891,5.7864891 0 0 1 4.887269,-2.696504 5.7864891,5.7864891 0 0 1 3.449326,1.150516 l 0.03391,-0.02037 L 17.214784,9.781922 21.843975,6.3100286 16.057486,2.8381352 11.428295,6.2919748 6.7991036,2.8381352 Z M 18.370809,13.241617 A 4.6291913,4.6291913 0 0 0 13.741617,17.870809 4.6291913,4.6291913 0 0 0 18.370809,22.5 4.6291913,4.6291913 0 0 0 23,17.870809 4.6291913,4.6291913 0 0 0 18.370809,13.241617 Z m 0,0.569611 a 4.0505424,4.0505424 0 0 1 0.628378,0.05428 c -0.229516,-0.03611 -0.461288,-0.05613 -0.693928,-0.05196 a 4.0505424,4.0505424 0 0 1 0.06597,-0.01157 z m -0.07911,0.0023 c -0.185897,0.0035 -0.37118,0.02199 -0.556047,0.05196 A 4.0505424,4.0505424 0 0 1 18.2917,13.81352 Z m -0.585431,0.05648 c -0.190699,0.0324 -0.380739,0.07742 -0.567342,0.13788 a 4.0505424,4.0505424 0 0 1 0.567342,-0.13788 z m 1.471504,0.0294 a 4.0505424,4.0505424 0 0 1 0.465628,0.124318 c -0.152174,-0.05069 -0.308559,-0.09224 -0.465628,-0.124318 z m -2.047838,0.110753 c -0.177368,0.05798 -0.351066,0.131089 -0.522138,0.214737 a 4.0505424,4.0505424 0 0 1 0.522138,-0.214737 z m 2.689791,0.07685 a 4.0505424,4.0505424 0 0 1 0.427205,0.196648 c -0.139269,-0.0736 -0.281107,-0.140195 -0.427205,-0.196648 z m -3.261728,0.162739 c -0.174219,0.08819 -0.343821,0.187529 -0.508574,0.302889 -0.229469,0.160678 -0.438548,0.342536 -0.623854,0.537969 -0.177413,0.1871 -0.332132,0.388991 -0.467896,0.601251 a 4.0505424,4.0505424 0 0 1 0.467896,-0.601251 4.0505424,4.0505424 0 0 1 1.132439,-0.840858 z m 3.867457,0.133368 a 4.0505424,4.0505424 0 0 1 0.488242,0.334528 C 20.759217,14.591571 20.59414,14.483653 20.425452,14.383118 Z m -8.999147,0 -4.6291909,3.471893 -1.1572988,-0.693916 v 0.693928 l 5.7864887,3.471893 1.708866,-1.023942 a 5.7864891,5.7864891 0 0 1 -0.552031,-2.453472 5.7864891,5.7864891 0 0 1 0.45829,-2.25673 l -1.615588,-1.215163 z m 9.488916,0.318719 a 4.0505424,4.0505424 0 0 1 0.501792,0.488241 4.0505424,4.0505424 0 0 1 0.0023,0.0023 4.0505424,4.0505424 0 0 1 0.825027,1.498585 4.0505424,4.0505424 0 0 1 0.12206,0.506318 4.0505424,4.0505424 0 0 1 0.04973,0.533443 c -0.0058,-0.177065 -0.02199,-0.35529 -0.05092,-0.532357 -0.02777,-0.173593 -0.06944,-0.342559 -0.121516,-0.505738 -0.05208,-0.164337 -0.113415,-0.322886 -0.182853,-0.480279 l -3.68206,4.206547 -0.39782,0.470152 -0.454332,-0.433988 -1.738261,-1.73826 c -0.218174,-0.218151 -0.218163,-0.615891 0,-0.834065 0.218173,-0.21815 0.615902,-0.218173 0.834064,0 l 1.304275,1.304275 3.489947,-3.996266 c -0.15568,-0.179474 -0.322747,-0.34198 -0.501793,-0.48824 z m -5.996655,1.035238 c -0.125439,0.204147 -0.22992,0.416836 -0.316451,0.637417 a 4.0505424,4.0505424 0 0 1 0.316451,-0.637417 z m -0.336797,0.691671 c -0.08333,0.221044 -0.146976,0.449031 -0.189796,0.680491 a 4.0505424,4.0505424 0 0 1 0.189866,-0.680364 z m -0.203429,0.75722 c -0.03918,0.234422 -0.05903,0.47352 -0.05651,0.712004 a 4.0505424,4.0505424 0 0 1 -0.0023,-0.05196 4.0505424,4.0505424 0 0 1 0.05877,-0.660019 z m 8.040095,0.587687 a 4.0505424,4.0505424 0 0 1 0.0023,0.07232 4.0505424,4.0505424 0 0 1 -0.02486,0.440769 c 0.0183,-0.170227 0.02597,-0.341217 0.0226,-0.5131 z m -8.092058,0.20343 c 0.0065,0.215813 0.0308,0.430098 0.07233,0.644198 a 4.0505424,4.0505424 0 0 1 -0.07233,-0.644198 z m 0.10624,0.797899 c 0.04842,0.205895 0.112408,0.410898 0.194391,0.610301 A 4.0505424,4.0505424 0 0 1 14.43262,18.77497 Z m 0.259941,0.75722 c 0.09334,0.203522 0.20226,0.403075 0.332271,0.594469 a 4.0505424,4.0505424 0 0 1 -0.33227,-0.594481 z m 7.318982,0.07453 c -0.0039,0.0081 -0.0073,0.01666 -0.01134,0.02488 a 4.0505424,4.0505424 0 0 1 -0.08589,0.174047 c -0.0042,0.0081 -0.0093,0.01493 -0.01356,0.02257 0.0404,-0.07221 0.07502,-0.14722 0.110754,-0.221518 z m -0.223775,0.404603 c -0.0081,0.0125 -0.01451,0.02592 -0.0226,0.03842 a 4.0505424,4.0505424 0 0 1 -0.117535,0.169532 c 0.04927,-0.06816 0.09551,-0.137336 0.140136,-0.207955 z m -6.679344,0.2283 c 0.126932,0.173606 0.265993,0.331855 0.413641,0.479191 a 4.0505424,4.0505424 0 0 1 -0.413641,-0.479191 z m 6.383192,0.18534 c -0.0047,0.0058 -0.0087,0.01228 -0.01356,0.01805 a 4.0505424,4.0505424 0 0 1 -0.19439,0.21021 c 0.07174,-0.07441 0.142833,-0.149522 0.207955,-0.228299 z m -5.829425,0.429473 c 0.145009,0.131296 0.299277,0.24772 0.458845,0.354875 A 4.0505424,4.0505424 0 0 1 15.660431,20.85519 Z m 4.954623,0.359389 a 4.0505424,4.0505424 0 0 1 -0.535701,0.300631 c -0.0083,0.0035 -0.01657,0.0069 -0.02486,0.01157 0.191811,-0.08853 0.379478,-0.190758 0.560572,-0.311938 z m -4.285589,0.128841 c 0.14516,0.08495 0.296453,0.158122 0.449807,0.223776 A 4.0505424,4.0505424 0 0 1 16.331225,21.34267 Z m 3.566792,0.253158 c -0.0053,0.0023 -0.01053,0.0046 -0.01582,0.0069 a 4.0505424,4.0505424 0 0 1 -0.528918,0.169555 c 0.183582,-0.04641 0.366493,-0.103116 0.54474,-0.176315 z m -2.805059,0.08819 c 0.155935,0.05196 0.311672,0.1008 0.472409,0.133367 a 4.0505424,4.0505424 0 0 1 -0.472409,-0.133367 z m 1.980021,0.146931 a 4.0505424,4.0505424 0 0 1 -0.499536,0.05879 c -0.0053,2.67e-4 -0.01053,-2.42e-4 -0.01582,0 0.172656,-0.0081 0.343797,-0.02835 0.515355,-0.05879 z m -1.265852,0.02488 c 0.159117,0.02234 0.320444,0.03287 0.481459,0.03611 -0.0068,-1.5e-4 -0.01354,1.74e-4 -0.02035,0 a 4.0505424,4.0505424 0 0 1 -0.443025,-0.03391 c -0.006,-8.22e-4 -0.01205,-0.0012 -0.01809,-0.0023 z"
     id="path4"
     class="ColorScheme-ButtonBackground"
     inkscape:connector-curvature="0" />
</svg>
