<svg xmlns="http://www.w3.org/2000/svg" width="256" height="256" version="1.1">
  <defs>
   <linearGradient id="gradients" x1="971.138" x2="975.537" y1="-1487.17" y2="19.037" gradientTransform="matrix(.11988932 0 0 .11988932 3.1009196 232.21778)" gradientUnits="userSpaceOnUse">
    <stop style="stop-color:#1ad6ab" offset="0"/>
    <stop style="stop-color:#329db6" offset="1"/>
   </linearGradient>
   <radialGradient id="b" cx=".5" cy=".5" r=".272" fx=".5" fy=".136" gradientTransform="matrix(230 0 0 60.62 13 21)" gradientUnits="userSpaceOnUse">
    <stop offset="0%" stop-color="#ffffff"/>
    <stop offset="100%" stop-color="#ffffff" stop-opacity=".204"/>
   </radialGradient>
   <radialGradient id="c" cx=".5" cy=".5" r=".272" fx=".482" fy=".211" gradientTransform="matrix(230 0 0 58.565 13 53.922)" gradientUnits="userSpaceOnUse">
    <stop offset="0%" stop-color="#ffffff"/>
    <stop offset="100%" stop-color="#ffffff" stop-opacity=".204"/>
   </radialGradient>
  </defs>
  <path fill="#16a085" d="M53.039 21C16.724 21 13 23.055 13 59.371v52.167h230V79.563c0-36.316-3.724-42.102-40.039-42.102h-89.336L97.198 21H53.039z"/>
  <path d="M 53.039,70.384 C 16.722,70.384 13,74.114 13,110.429 v 84.524 C 13,231.269 16.722,235 53.039,235 H 202.961 C 239.278,235 243,231.269 243,194.953 V 93.969 C 243,57.653 239.278,53.922 202.961,53.922 H 119.53 l -16.438,16.462 z" style="fill:url(#gradients)"/>
  <g opacity="0.4">
   <path fill="url(#b)" d="M 53.039,21 C 16.724,21 13,23.055 13,59.371 V 61.43 C 13,25.114 16.724,23.057 53.039,23.057 h 44.159 l 16.427,16.461 h 89.336 C 239.276,39.518 243,45.304 243,81.62 V 79.563 C 243,43.247 239.276,37.461 202.961,37.461 H 113.625 L 97.198,21 Z"/>
  </g>
  <g opacity="0.4">
   <path fill="url(#c)" d="M 119.53,53.922 103.092,70.384 H 53.039 C 16.724,70.384 13,74.112 13,110.427 v 2.06 C 13,76.171 16.724,72.441 53.039,72.441 h 50.053 l 16.438,-16.46 h 83.431 c 36.315,0 40.039,3.727 40.039,40.043 v -2.057 c 0,-36.316 -3.724,-40.045 -40.039,-40.045 z"/>
  </g>
  <path fill="#ffffff" opacity=".1" d="m 243,167.096 -65.715,65.845 h 25.676 c 36.315,0 40.039,-3.727 40.039,-40.043 z"/>
  <path opacity="0.2" d="m 13,192.898 v 2.057 C 13,231.271 16.724,235 53.039,235 H 202.961 C 239.276,235 243,231.271 243,194.955 v -2.057 c 0,36.316 -3.724,40.043 -40.039,40.043 H 53.039 C 16.724,232.941 13,229.214 13,192.898 Z"/>
  <path fill="#a7ffeb" fill-rule="evenodd" d="M121.785 145.355h25.366v6.396h-25.366v-6.396zm-51.984-38.586c-2.445 24.73-2.382 63.198.082 89.855.647 7 6.86 13.145 13.866 13.714 26.674 2.168 64.786 2.232 88.763.098 7.002-.623 13.203-6.813 13.838-13.813.708-7.787 1.649-27.638 1.649-46.891 0-19.091-.925-37.596-1.477-42.87-.73-6.992-7.02-13.02-14.035-13.455-29.83-1.848-67.814-1.817-88.731-.259-7.01.522-13.263 6.626-13.955 13.621zm32.96 25.796v6.395h3.171c1.776.064 3.171-1.407 3.171-3.197 0-1.791-1.395-3.198-3.171-3.198h-3.171zm-6.341-6.395v-6.395h-3.171c-1.775 0-3.17 1.407-3.17 3.197 0 1.791 1.395 3.198 3.17 3.198h3.171zm6.341-12.79v-6.395H96.42v6.395h-3.171c-5.263 0-9.512 4.284-9.512 9.592 0 5.308 4.249 9.593 9.512 9.593h3.171v6.395H84.308c1.332 3.709 4.82 6.395 8.941 6.395h3.171v6.396h6.341v-6.396h3.171c5.263 0 9.512-4.284 9.512-9.592 0-5.308-4.249-9.593-9.512-9.593h-3.171v-6.395h12.112c-1.331-3.709-4.819-6.395-8.941-6.395h-3.171z"/>
</svg>