<?xml version="1.0" standalone="no"?><!-- Generator: Gravit.io --><svg xmlns="http://www.w3.org/2000/svg" xmlns:xlink="http://www.w3.org/1999/xlink" style="isolation:isolate" viewBox="0 0 256 256" width="256" height="256"><g id="Group" filter="url(#ra3NypmxBolCD4krabRXe17vr0zHSkm6)"><path d=" M 165.685 11.947 C 239.74 11.947 250.324 22.504 250.324 96.491 L 250.324 155.742 C 250.324 229.728 239.74 240.285 165.685 240.285 L 90.315 240.285 C 16.26 240.285 5.676 229.728 5.676 155.742 L 5.676 96.491 C 5.676 22.504 16.26 11.947 90.315 11.947 L 165.685 11.947 L 165.685 11.947 Z " id="shape" fill="rgb(55,166,230)"/></g><defs><filter id="ra3NypmxBolCD4krabRXe17vr0zHSkm6" x="-200%" y="-200%" width="400%" height="400%" filterUnits="objectBoundingBox" color-interpolation-filters="sRGB"><feGaussianBlur xmlns="http://www.w3.org/2000/svg" in="SourceGraphic" stdDeviation="4.293609062839028"/><feOffset xmlns="http://www.w3.org/2000/svg" dx="0" dy="4" result="pf_100_offsetBlur"/><feFlood xmlns="http://www.w3.org/2000/svg" flood-color="#000000" flood-opacity="0.4"/><feComposite xmlns="http://www.w3.org/2000/svg" in2="pf_100_offsetBlur" operator="in" result="pf_100_dropShadow"/><feBlend xmlns="http://www.w3.org/2000/svg" in="SourceGraphic" in2="pf_100_dropShadow" mode="normal"/></filter></defs><g id="google-chrome-stable"><path d=" M 90.316 11.95 C 81.06 11.95 72.795 12.114 65.418 12.548 C 58.041 12.981 51.551 13.682 45.848 14.755 C 40.145 15.828 35.229 17.273 30.992 19.192 C 28.874 20.152 26.927 21.228 25.137 22.438 C 23.347 23.648 21.715 24.991 20.227 26.477 C 18.739 27.963 17.395 29.592 16.184 31.38 C 14.972 33.167 13.891 35.115 12.93 37.231 C 11.008 41.462 9.563 46.374 8.489 52.071 C 7.414 57.768 6.712 64.248 6.278 71.617 C 5.844 78.987 5.676 87.244 5.676 96.492 L 5.676 155.742 C 5.676 164.99 5.844 173.247 6.278 180.617 C 6.712 187.986 7.414 194.47 8.489 200.167 C 9.563 205.864 11.008 210.776 12.93 215.007 C 13.891 217.123 14.972 219.067 16.184 220.855 C 17.395 222.642 18.739 224.275 20.227 225.761 C 21.715 227.247 23.347 228.586 25.137 229.796 C 26.927 231.006 28.874 232.086 30.992 233.046 C 35.229 234.965 40.145 236.407 45.848 237.479 C 51.551 238.552 58.041 239.253 65.418 239.686 C 72.795 240.12 81.06 240.288 90.316 240.288 L 165.687 240.288 C 174.944 240.288 183.209 240.12 190.586 239.686 C 197.963 239.253 204.449 238.552 210.152 237.479 C 215.855 236.407 220.775 234.965 225.011 233.046 C 227.13 232.086 229.077 231.006 230.867 229.796 C 232.657 228.586 234.289 227.247 235.777 225.761 C 237.265 224.275 238.609 222.642 239.82 220.855 C 241.032 219.067 242.109 217.123 243.07 215.007 C 244.992 210.776 246.441 205.864 247.515 200.167 C 248.59 194.47 249.292 187.986 249.726 180.617 C 250.16 173.247 250.324 164.99 250.324 155.742 L 250.324 96.492 C 250.324 87.244 250.16 78.987 249.726 71.617 C 249.292 64.248 248.59 57.768 247.515 52.071 C 246.441 46.374 244.992 41.462 243.07 37.231 C 242.109 35.115 241.032 33.167 239.82 31.38 C 238.609 29.592 237.265 27.963 235.777 26.477 C 234.289 24.991 232.657 23.648 230.867 22.438 C 229.077 21.228 227.13 20.152 225.011 19.192 C 220.775 17.273 215.855 15.828 210.152 14.755 C 204.449 13.682 197.963 12.981 190.586 12.548 C 183.209 12.114 174.944 11.95 165.687 11.95 L 90.316 11.95 L 90.316 11.95 Z " id="path987" fill="rgb(162,188,254)"/><path d=" M 249.418 68.903 C 248.978 62.768 248.441 56.976 247.515 52.071 C 246.441 46.374 244.992 41.462 243.07 37.231 C 242.109 35.115 241.032 33.167 239.82 31.38 C 238.609 29.592 237.265 27.963 235.777 26.477 C 234.289 24.991 232.657 23.648 230.867 22.438 C 229.077 21.228 227.13 20.152 225.011 19.192 C 220.775 17.273 215.855 15.828 210.152 14.755 C 204.449 13.682 197.963 12.981 190.586 12.548 C 183.209 12.114 174.944 11.95 165.687 11.95 L 90.316 11.95 C 81.06 11.95 72.795 12.114 65.418 12.548 C 58.041 12.981 51.551 13.682 45.848 14.755 C 40.145 15.828 35.229 17.273 30.992 19.192 C 28.874 20.152 26.927 21.228 25.137 22.438 C 23.347 23.648 21.715 24.991 20.227 26.477 C 18.739 27.963 17.395 29.592 16.184 31.38 C 15.578 32.273 15.1 33.331 14.559 34.305 C 34.237 71.459 79.922 155.109 79.922 155.109 L 125.395 175.007 L 173.301 155.668 L 173.711 121.953 L 123.027 68.903 L 249.418 68.903 L 249.418 68.903 Z " id="path980" fill="rgb(96,138,181)"/><path d=" M 113.887 240.288 L 165.687 240.288 C 174.944 240.288 183.209 240.12 190.586 239.686 C 197.963 239.253 204.449 238.552 210.152 237.479 C 215.855 236.407 220.775 234.965 225.011 233.046 C 227.13 232.086 229.077 231.006 230.867 229.796 C 232.657 228.586 234.289 227.247 235.777 225.761 C 237.265 224.275 238.609 222.642 239.82 220.855 C 241.032 219.067 242.109 217.123 243.07 215.007 C 244.992 210.776 246.441 205.864 247.515 200.167 C 248.59 194.47 249.292 187.986 249.726 180.617 C 250.16 173.247 250.324 164.99 250.324 155.742 L 250.324 96.492 C 250.324 87.244 250.16 78.987 249.726 71.617 C 249.666 70.594 249.489 69.892 249.418 68.903 L 123.027 68.903 L 173.711 121.953 L 173.301 155.668 L 159.187 161.363 L 159.652 161.855 L 113.887 240.288 L 113.887 240.288 Z  M 173.238 160.675 L 173.238 160.796 L 169.578 166.957 L 173.238 160.675 L 173.238 160.675 Z " id="rect877-5-9" fill="rgb(207,221,255)"/><circle vector-effect="non-scaling-stroke" cx="128.001" cy="126.592" r="50.227000000000004" id="path1577" fill="rgb(54,90,125)"/><path d=" M 128 184.35 C 112.69 184.35 97.99 178.26 87.16 167.44 C 76.33 156.61 70.24 141.91 70.24 126.59 C 70.24 111.28 76.33 96.58 87.16 85.75 C 97.99 74.92 112.69 68.83 128 68.83 C 143.31 68.83 158.02 74.92 168.84 85.75 C 179.67 96.58 185.76 111.28 185.76 126.59 C 185.76 141.91 179.67 156.61 168.84 167.44 C 158.02 178.26 143.31 184.35 128 184.35 Z  M 128 169.29 C 116.68 169.29 105.82 164.78 97.81 156.78 C 89.81 148.78 85.31 137.91 85.31 126.59 C 85.31 115.27 89.81 104.41 97.81 96.4 C 105.82 88.4 116.68 83.9 128 83.9 C 139.32 83.9 150.19 88.4 158.19 96.4 C 166.19 104.41 170.69 115.27 170.69 126.59 C 170.69 137.91 166.19 148.78 158.19 156.78 C 150.19 164.78 139.32 169.29 128 169.29 C 128 169.29 128 169.29 128 169.29 L 128 169.29 L 128 169.29 Z " fill-rule="evenodd" id="Compound Path" fill="rgb(243,243,243)"/></g><g opacity="0.4"><linearGradient id="_lgradient_80" x1="0.5166666666666668" y1="0" x2="0.5166666666666666" y2="1.0000000000000002" gradientTransform="matrix(244.65,0,0,228.34,5.68,11.95)" gradientUnits="userSpaceOnUse"><stop offset="0%" stop-opacity="1" style="stop-color:rgb(255,255,255)"/><stop offset="12.5%" stop-opacity="0.09803922" style="stop-color:rgb(255,255,255)"/><stop offset="92.500001%" stop-opacity="0.09803922" style="stop-color:rgb(0,0,0)"/><stop offset="100%" stop-opacity="0.49803922" style="stop-color:rgb(0,0,0)"/></linearGradient><path d=" M 165.06803 11.951234 C 169.395994 11.941409 173.723944 11.990533 178.051908 12.088781 C 181.927398 12.167379 185.802873 12.31475 189.678362 12.540721 C 193.1309 12.737216 196.583423 13.022134 200.026115 13.395476 C 203.085193 13.729518 206.144271 14.181458 209.173842 14.741469 C 211.888645 15.242533 214.57394 15.881143 217.219897 16.6573 C 219.619947 17.354858 221.970814 18.219439 224.242988 19.241215 C 226.357793 20.184394 228.384061 21.304417 230.302129 22.591462 C 232.141505 23.829383 233.862851 25.244151 235.436659 26.80629 C 237.000621 28.378252 238.417046 30.087764 239.656409 31.924995 C 240.944972 33.840824 242.066305 35.864728 243.020409 37.967229 C 244.043389 40.246576 244.908985 42.584873 245.617197 44.972292 C 246.394255 47.615155 247.033606 50.297317 247.535265 53.008956 C 248.095924 56.034984 248.548399 59.080665 248.882828 62.13617 C 249.256611 65.574836 249.541856 69.013506 249.738578 72.462003 C 249.964823 76.323139 250.112361 80.194101 250.200884 84.055237 C 250.289421 88.378131 250.338591 92.701032 250.32876 97.014106 L 250.32876 155.225886 C 250.338591 159.54878 250.289421 163.861854 250.200884 168.184747 C 250.112361 172.05571 249.964823 175.916853 249.738578 179.777981 C 249.541856 183.226485 249.256611 186.674975 248.882828 190.103826 C 248.548399 193.15933 248.095924 196.214835 247.535265 199.240851 C 247.033606 201.942664 246.394255 204.624837 245.617197 207.267703 C 244.908985 209.655115 244.043389 212.003235 243.020409 214.272755 C 242.066305 216.38509 240.944972 218.399156 239.656409 220.314999 C 238.417046 222.152226 237.000621 223.871561 235.436659 225.433697 C 233.862851 226.995832 232.141505 228.410601 230.302129 229.648532 C 228.384061 230.935575 226.357793 232.055598 224.242988 232.998768 C 221.970814 234.020552 219.619947 234.885137 217.219897 235.592507 C 214.57394 236.368672 211.888645 237.007276 209.173842 237.498515 C 206.144271 238.068354 203.085193 238.510465 200.026115 238.844519 C 196.583423 239.21785 193.1309 239.502777 189.678362 239.699269 C 185.802873 239.925235 181.927398 240.072615 178.051908 240.161035 C 173.723944 240.249454 169.395994 240.298581 165.06803 240.288762 L 90.941963 240.288762 C 86.614006 240.298581 82.286049 240.249454 77.9581 240.161035 C 74.08261 240.072615 70.20712 239.925235 66.331638 239.699269 C 62.879108 239.502777 59.426578 239.21785 55.983886 238.844519 C 52.924808 238.510465 49.865733 238.068354 46.836162 237.498515 C 44.121356 237.007276 41.436057 236.368672 38.7901 235.592507 C 36.390053 234.885137 34.039187 234.020552 31.767009 232.998768 C 29.652213 232.055598 27.625943 230.935575 25.707871 229.648532 C 23.868489 228.410601 22.147143 226.995832 20.573343 225.433697 C 19.009377 223.871561 17.592955 222.152226 16.353586 220.314999 C 15.065036 218.399156 13.943701 216.38509 12.989584 214.272755 C 11.966612 212.003235 11.101021 209.655115 10.392811 207.267703 C 9.615746 204.624837 8.976389 201.942664 8.47474 199.240851 C 7.914072 196.214835 7.461604 193.15933 7.127172 190.103826 C 6.753394 186.674975 6.468142 183.226485 6.271417 179.777981 C 6.045183 175.916853 5.897639 172.05571 5.809112 168.184747 C 5.720586 163.861854 5.671405 159.54878 5.681241 155.225886 L 5.681241 97.014106 C 5.671405 92.701032 5.720586 88.378131 5.809112 84.055237 C 5.897639 80.194101 6.045183 76.323139 6.271417 72.462003 C 6.468142 69.013506 6.753394 65.574836 7.127172 62.13617 C 7.461604 59.080665 7.914072 56.034984 8.47474 53.008956 C 8.976389 50.297317 9.615746 47.615155 10.392811 44.972292 C 11.101021 42.584873 11.966612 40.246576 12.989584 37.967229 C 13.943701 35.864728 15.065036 33.840824 16.353586 31.924995 C 17.592955 30.087764 19.009377 28.378252 20.573343 26.80629 C 22.147143 25.244151 23.868489 23.829383 25.707871 22.591462 C 27.625943 21.304417 29.652213 20.184394 31.767009 19.241215 C 34.039187 18.219439 36.390053 17.354858 38.7901 16.6573 C 41.436057 15.881143 44.121356 15.242533 46.836162 14.741469 C 49.865733 14.181458 52.924808 13.729518 55.983886 13.395476 C 59.426578 13.022134 62.879108 12.737216 66.331638 12.540721 C 70.20712 12.31475 74.08261 12.167379 77.9581 12.088781 C 82.286049 11.990533 86.614006 11.941409 90.941963 11.951234 L 165.06803 11.951234 Z  M 165.077876 15.959741 C 169.376317 15.949916 173.674759 15.99904 177.973216 16.087463 C 181.799522 16.175886 185.625827 16.323257 189.452133 16.539402 C 192.835809 16.735898 196.219486 17.010992 199.583486 17.384332 C 202.554026 17.698726 205.514751 18.131016 208.445953 18.681203 C 211.023049 19.152792 213.580483 19.761928 216.098564 20.498786 C 218.321569 21.147221 220.495374 21.952852 222.600334 22.896029 C 224.508571 23.750785 226.338116 24.762737 228.069293 25.922059 C 229.692286 27.012609 231.207063 28.260355 232.59398 29.645648 C 233.980897 31.030941 235.230091 32.543956 236.331763 34.165043 C 237.492434 35.894202 238.505568 37.711787 239.361333 39.607968 C 240.305606 41.720292 241.112187 43.891565 241.761369 46.102139 C 242.508934 48.617282 243.108947 51.161898 243.590914 53.735987 C 244.131912 56.663768 244.564709 59.6112 244.889308 62.578282 C 245.263091 65.938355 245.538505 69.308252 245.735227 72.687976 C 245.951626 76.509812 246.10901 80.321821 246.187687 84.143656 C 246.276225 88.437084 246.325394 92.720685 246.325394 97.014106 C 246.325394 97.014106 246.325394 97.014106 246.325394 97.014106 L 246.325394 155.225886 C 246.325394 155.225886 246.325394 155.225886 246.325394 155.225886 C 246.325394 159.519306 246.276225 163.802907 246.187687 168.096328 C 246.10901 171.918164 245.951626 175.739999 245.735227 179.552015 C 245.538505 182.931739 245.263091 186.301629 244.889308 189.671533 C 244.564709 192.628784 244.131912 195.576216 243.590914 198.503994 C 243.108947 201.078094 242.508934 203.622706 241.761369 206.137845 C 241.112187 208.358253 240.305606 210.5197 239.361333 212.63202 C 238.505568 214.528209 237.492434 216.355617 236.331763 218.074952 C 235.230091 219.705853 233.980897 221.218876 232.59398 222.604172 C 231.207063 223.979634 229.692286 225.227385 228.069293 226.317935 C 226.338116 227.477251 224.508571 228.489201 222.600334 229.343951 C 220.495374 230.296956 218.321569 231.092775 216.098564 231.741198 C 213.580483 232.478056 211.023049 233.087202 208.445953 233.558787 C 205.514751 234.108972 202.554026 234.541264 199.583486 234.865483 C 196.219486 235.228995 192.835809 235.513922 189.452133 235.70058 C 185.625827 235.916726 181.799522 236.073926 177.973216 236.152526 C 173.674759 236.25078 169.376317 236.290072 165.077876 236.290072 C 165.077876 236.290072 165.077876 236.290072 165.06803 236.290072 L 90.941963 236.290072 C 90.932125 236.290072 90.932125 236.290072 90.932125 236.290072 C 86.633683 236.290072 82.335234 236.25078 78.036784 236.152526 C 74.210479 236.073926 70.384173 235.916726 66.557868 235.70058 C 63.174195 235.513922 59.790522 235.228995 56.426518 234.865483 C 53.455967 234.541264 50.495253 234.108972 47.564048 233.558787 C 44.986944 233.087202 42.429517 232.478056 39.911433 231.741198 C 37.688439 231.092775 35.514626 230.296956 33.409665 229.343951 C 31.501429 228.489201 29.671886 227.477251 27.940703 226.317935 C 26.31772 225.227385 24.802935 223.979634 23.416022 222.604172 C 22.029109 221.218876 20.779904 219.705853 19.678243 218.074952 C 18.517564 216.355617 17.504428 214.528209 16.648674 212.63202 C 15.704392 210.5197 14.897819 208.358253 14.248626 206.137845 C 13.50107 203.622706 12.901057 201.078094 12.419081 198.503994 C 11.878086 195.576216 11.445291 192.628784 11.120694 189.671533 C 10.746916 186.301629 10.471501 182.931739 10.274776 179.552015 C 10.058378 175.739999 9.900997 171.918164 9.822307 168.096328 C 9.733781 163.802907 9.6846 159.519306 9.6846 155.225886 C 9.6846 155.225886 9.6846 155.225886 9.6846 155.225886 L 9.6846 97.014106 C 9.6846 97.014106 9.6846 97.014106 9.6846 97.014106 C 9.6846 92.720685 9.733781 88.437084 9.822307 84.143656 C 9.900997 80.321821 10.058378 76.509812 10.274776 72.687976 C 10.471501 69.308252 10.746916 65.938355 11.120694 62.578282 C 11.445291 59.6112 11.878086 56.663768 12.419081 53.735987 C 12.901057 51.161898 13.50107 48.617282 14.248626 46.102139 C 14.897819 43.891565 15.704392 41.720292 16.648674 39.607968 C 17.504428 37.711787 18.517564 35.894202 19.678243 34.165043 C 20.779904 32.543956 22.029109 31.030941 23.416022 29.645648 C 24.802935 28.260355 26.31772 27.012609 27.940703 25.922059 C 29.671886 24.762737 31.501429 23.750785 33.409665 22.896029 C 35.514626 21.952852 37.688439 21.147221 39.911433 20.498786 C 42.429517 19.761928 44.986944 19.152792 47.564048 18.681203 C 50.495253 18.131016 53.455967 17.698726 56.426518 17.384332 C 59.790522 17.010992 63.174195 16.735898 66.557868 16.539402 C 70.384173 16.323257 74.210479 16.175886 78.036784 16.087463 C 82.335234 15.99904 86.633683 15.949916 90.932125 15.959741 C 90.932125 15.959741 90.932125 15.959741 90.941963 15.959741 L 165.06803 15.959741 C 165.077876 15.959741 165.077876 15.959741 165.077876 15.959741 Z " fill-rule="evenodd" id="highlight" fill="url(#_lgradient_80)"/></g></svg>