<svg xmlns="http://www.w3.org/2000/svg" style="isolation:isolate" width="256" height="256"><defs><filter id="a" width="270.648" height="254.338" x="-7.32" y="2.95" filterUnits="userSpaceOnUse"><feGaussianBlur xmlns="http://www.w3.org/2000/svg" in="SourceGraphic" stdDeviation="4.294"/><feOffset xmlns="http://www.w3.org/2000/svg" dy="4" result="pf_100_offsetBlur"/><feFlood xmlns="http://www.w3.org/2000/svg" flood-opacity=".4"/><feComposite xmlns="http://www.w3.org/2000/svg" in2="pf_100_offsetBlur" operator="in" result="pf_100_dropShadow"/><feBlend xmlns="http://www.w3.org/2000/svg" in="SourceGraphic" in2="pf_100_dropShadow"/></filter></defs><g filter="url(#a)"><linearGradient id="b" x1="-.033" x2="1.033" y1="-.071" y2=".995" gradientTransform="matrix(244.648 0 0 228.338 5.676 11.947)" gradientUnits="userSpaceOnUse"><stop offset="0%" stop-color="#e72662"/><stop offset="48.272%" stop-color="#ec3c50"/><stop offset="100%" stop-color="#ff7b66"/></linearGradient><path fill="url(#b)" d="M165.685 11.947c74.055 0 84.639 10.557 84.639 84.544v59.251c0 73.986-10.584 84.543-84.639 84.543h-75.37c-74.055 0-84.639-10.557-84.639-84.543V96.491c0-73.987 10.584-84.544 84.639-84.544h75.37z"/></g><g opacity=".5"><linearGradient id="c" x1=".5" x2=".5" y1="1.077" gradientTransform="matrix(16.31 0 0 106.014 119.845 17.908)" gradientUnits="userSpaceOnUse"><stop offset="0%" stop-color="#fff4f0"/><stop offset="100%" stop-opacity="0" stop-color="#fffefd"/></linearGradient><path fill="url(#c)" d="M119.845 17.908v8.155h16.31v-8.155h-16.31zm0 12.233v8.155h16.31v-8.155h-16.31zm0 12.232v8.155h16.31v-8.155h-16.31zm0 12.233v8.154h16.31v-8.154h-16.31zm0 12.232v8.155h16.31v-8.155h-16.31zm0 12.232v8.155h16.31V79.07h-16.31zm0 12.233v8.155h16.31v-8.155h-16.31zm0 12.232v8.155h16.31v-8.155h-16.31zm0 12.233v8.155h16.31v-8.155h-16.31z"/><linearGradient id="d" x1=".5" x2=".51" y1="1.375" y2="-.347" gradientTransform="matrix(16.31 0 0 106.014 99.458 17.908)" gradientUnits="userSpaceOnUse"><stop offset="0%" stop-color="#fff4f0"/><stop offset="100%" stop-opacity="0" stop-color="#fffefd"/></linearGradient><path fill="url(#d)" d="M99.458 17.908v8.155h16.31v-8.155h-16.31zm0 12.233v8.155h16.31v-8.155h-16.31zm0 12.232v8.155h16.31v-8.155h-16.31zm0 12.233v8.154h16.31v-8.154h-16.31zm0 12.232v8.155h16.31v-8.155h-16.31zm0 12.232v8.155h16.31V79.07h-16.31zm0 12.233v8.155h16.31v-8.155h-16.31zm0 12.232v8.155h16.31v-8.155h-16.31zm0 12.233v8.155h16.31v-8.155h-16.31z"/><linearGradient id="e" x1=".55" x2=".542" y1="1.077" y2=".46" gradientTransform="matrix(16.31 0 0 106.014 79.07 17.908)" gradientUnits="userSpaceOnUse"><stop offset="0%" stop-color="#fff4f0"/><stop offset="100%" stop-opacity="0" stop-color="#fffefd"/></linearGradient><path fill="url(#e)" d="M79.07 17.908v8.155h16.31v-8.155H79.07zm0 12.233v8.155h16.31v-8.155H79.07zm0 12.232v8.155h16.31v-8.155H79.07zm0 12.233v8.154h16.31v-8.154H79.07zm0 12.232v8.155h16.31v-8.155H79.07zm0 12.232v8.155h16.31V79.07H79.07zm0 12.233v8.155h16.31v-8.155H79.07zm0 12.232v8.155h16.31v-8.155H79.07zm0 12.233v8.155h16.31v-8.155H79.07z"/><linearGradient id="f" x1=".5" x2=".5" y1="1.308" y2=".192" gradientTransform="matrix(16.31 0 0 106.014 58.683 17.908)" gradientUnits="userSpaceOnUse"><stop offset="0%" stop-color="#fff4f0"/><stop offset="100%" stop-opacity="0" stop-color="#fffefd"/></linearGradient><path fill="url(#f)" d="M58.683 17.908v8.155h16.31v-8.155h-16.31zm0 12.233v8.155h16.31v-8.155h-16.31zm0 12.232v8.155h16.31v-8.155h-16.31zm0 12.233v8.154h16.31v-8.154h-16.31zm0 12.232v8.155h16.31v-8.155h-16.31zm0 12.232v8.155h16.31V79.07h-16.31zm0 12.233v8.155h16.31v-8.155h-16.31zm0 12.232v8.155h16.31v-8.155h-16.31zm0 12.233v8.155h16.31v-8.155h-16.31z"/><linearGradient id="g" x1=".525" x2=".525" y1="1.5" y2=".588" gradientTransform="matrix(16.31 0 0 106.014 38.296 17.908)" gradientUnits="userSpaceOnUse"><stop offset="0%" stop-color="#fff4f0"/><stop offset="100%" stop-opacity="0" stop-color="#fffefd"/></linearGradient><path fill="url(#g)" d="M38.296 17.908v8.155h16.31v-8.155h-16.31zm0 12.233v8.155h16.31v-8.155h-16.31zm0 12.232v8.155h16.31v-8.155h-16.31zm0 12.233v8.154h16.31v-8.154h-16.31zm0 12.232v8.155h16.31v-8.155h-16.31zm0 12.232v8.155h16.31V79.07h-16.31zm0 12.233v8.155h16.31v-8.155h-16.31zm0 12.232v8.155h16.31v-8.155h-16.31zm0 12.233v8.155h16.31v-8.155h-16.31z"/><linearGradient id="h" x1=".5" x2=".5" y1="1.538" y2=".692" gradientTransform="matrix(16.31 0 0 106.014 17.908 17.908)" gradientUnits="userSpaceOnUse"><stop offset="0%" stop-color="#fff4f0"/><stop offset="100%" stop-opacity="0" stop-color="#fffefd"/></linearGradient><path fill="url(#h)" d="M17.908 17.908v8.155h16.31v-8.155h-16.31zm0 12.233v8.155h16.31v-8.155h-16.31zm0 12.232v8.155h16.31v-8.155h-16.31zm0 12.233v8.154h16.31v-8.154h-16.31zm0 12.232v8.155h16.31v-8.155h-16.31zm0 12.232v8.155h16.31V79.07h-16.31zm0 12.233v8.155h16.31v-8.155h-16.31zm0 12.232v8.155h16.31v-8.155h-16.31zm0 12.233v8.155h16.31v-8.155h-16.31z"/><linearGradient id="i" x1=".5" x2=".5" y1="1.154" y2=".154" gradientTransform="matrix(16.31 0 0 106.014 140.232 17.908)" gradientUnits="userSpaceOnUse"><stop offset="0%" stop-color="#fff4f0"/><stop offset="100%" stop-opacity="0" stop-color="#fffefd"/></linearGradient><path fill="url(#i)" d="M140.232 17.908v8.155h16.31v-8.155h-16.31zm0 12.233v8.155h16.31v-8.155h-16.31zm0 12.232v8.155h16.31v-8.155h-16.31zm0 12.233v8.154h16.31v-8.154h-16.31zm0 12.232v8.155h16.31v-8.155h-16.31zm0 12.232v8.155h16.31V79.07h-16.31zm0 12.233v8.155h16.31v-8.155h-16.31zm0 12.232v8.155h16.31v-8.155h-16.31zm0 12.233v8.155h16.31v-8.155h-16.31z"/><linearGradient id="j" x1=".5" x2=".5" y1="1.192" y2=".538" gradientTransform="matrix(16.31 0 0 106.014 160.62 17.908)" gradientUnits="userSpaceOnUse"><stop offset="0%" stop-color="#fff4f0"/><stop offset="100%" stop-opacity="0" stop-color="#fffefd"/></linearGradient><path fill="url(#j)" d="M160.62 17.908v8.155h16.31v-8.155h-16.31zm0 12.233v8.155h16.31v-8.155h-16.31zm0 12.232v8.155h16.31v-8.155h-16.31zm0 12.233v8.154h16.31v-8.154h-16.31zm0 12.232v8.155h16.31v-8.155h-16.31zm0 12.232v8.155h16.31V79.07h-16.31zm0 12.233v8.155h16.31v-8.155h-16.31zm0 12.232v8.155h16.31v-8.155h-16.31zm0 12.233v8.155h16.31v-8.155h-16.31z"/><linearGradient id="k" x1=".5" x2=".5" y1="1.269" y2=".269" gradientTransform="matrix(16.31 0 0 106.014 181.007 17.908)" gradientUnits="userSpaceOnUse"><stop offset="0%" stop-color="#fff4f0"/><stop offset="100%" stop-opacity="0" stop-color="#fffefd"/></linearGradient><path fill="url(#k)" d="M181.007 17.908v8.155h16.31v-8.155h-16.31zm0 12.233v8.155h16.31v-8.155h-16.31zm0 12.232v8.155h16.31v-8.155h-16.31zm0 12.233v8.154h16.31v-8.154h-16.31zm0 12.232v8.155h16.31v-8.155h-16.31zm0 12.232v8.155h16.31V79.07h-16.31zm0 12.233v8.155h16.31v-8.155h-16.31zm0 12.232v8.155h16.31v-8.155h-16.31zm0 12.233v8.155h16.31v-8.155h-16.31z"/><linearGradient id="l" x1=".5" x2=".5" y1="1.423" y2=".423" gradientTransform="matrix(16.31 0 0 106.014 201.394 17.908)" gradientUnits="userSpaceOnUse"><stop offset="0%" stop-color="#fff4f0"/><stop offset="100%" stop-opacity="0" stop-color="#fffefd"/></linearGradient><path fill="url(#l)" d="M201.394 17.908v8.155h16.31v-8.155h-16.31zm0 12.233v8.155h16.31v-8.155h-16.31zm0 12.232v8.155h16.31v-8.155h-16.31zm0 12.233v8.154h16.31v-8.154h-16.31zm0 12.232v8.155h16.31v-8.155h-16.31zm0 12.232v8.155h16.31V79.07h-16.31zm0 12.233v8.155h16.31v-8.155h-16.31zm0 12.232v8.155h16.31v-8.155h-16.31zm0 12.233v8.155h16.31v-8.155h-16.31z"/><linearGradient id="m" x1=".5" x2=".5" y1="1.577" y2=".731" gradientTransform="matrix(16.31 0 0 106.014 221.782 17.908)" gradientUnits="userSpaceOnUse"><stop offset="0%" stop-color="#fff4f0"/><stop offset="100%" stop-opacity="0" stop-color="#fffefd"/></linearGradient><path fill="url(#m)" d="M221.782 17.908v8.155h16.31v-8.155h-16.31zm0 12.233v8.155h16.31v-8.155h-16.31zm0 12.232v8.155h16.31v-8.155h-16.31zm0 12.233v8.154h16.31v-8.154h-16.31zm0 12.232v8.155h16.31v-8.155h-16.31zm0 12.232v8.155h16.31V79.07h-16.31zm0 12.233v8.155h16.31v-8.155h-16.31zm0 12.232v8.155h16.31v-8.155h-16.31zm0 12.233v8.155h16.31v-8.155h-16.31z"/></g><g opacity=".5"><g opacity=".467"><linearGradient id="n" x1=".5" x2=".5" y1="-.154" y2=".654" gradientTransform="matrix(16.31 0 0 106.014 119.845 132.077)" gradientUnits="userSpaceOnUse"><stop offset="0%" stop-color="#fff4f0"/><stop offset="100%" stop-opacity="0" stop-color="#fffefd"/></linearGradient><path fill="url(#n)" d="M119.845 132.077v8.155h16.31v-8.155h-16.31zm0 12.233v8.155h16.31v-8.155h-16.31zm0 12.232v8.155h16.31v-8.155h-16.31zm0 12.233v8.155h16.31v-8.155h-16.31zm0 12.232v8.155h16.31v-8.155h-16.31zm0 12.233v8.154h16.31v-8.154h-16.31zm0 12.232v8.155h16.31v-8.155h-16.31zm0 12.232v8.155h16.31v-8.155h-16.31zm0 12.233v8.155h16.31v-8.155h-16.31z"/></g><g opacity=".467"><linearGradient id="o" x1=".5" x2=".5" y1="-.154" y2="1" gradientTransform="matrix(16.31 0 0 106.014 99.458 132.077)" gradientUnits="userSpaceOnUse"><stop offset="0%" stop-color="#fff4f0"/><stop offset="100%" stop-opacity="0" stop-color="#fffefd"/></linearGradient><path fill="url(#o)" d="M99.458 132.077v8.155h16.31v-8.155h-16.31zm0 12.233v8.155h16.31v-8.155h-16.31zm0 12.232v8.155h16.31v-8.155h-16.31zm0 12.233v8.155h16.31v-8.155h-16.31zm0 12.232v8.155h16.31v-8.155h-16.31zm0 12.233v8.154h16.31v-8.154h-16.31zm0 12.232v8.155h16.31v-8.155h-16.31zm0 12.232v8.155h16.31v-8.155h-16.31zm0 12.233v8.155h16.31v-8.155h-16.31z"/></g><g opacity=".467"><linearGradient id="p" x1=".5" x2=".5" y1="-.308" y2=".654" gradientTransform="matrix(16.31 0 0 106.014 79.07 132.077)" gradientUnits="userSpaceOnUse"><stop offset="0%" stop-color="#fff4f0"/><stop offset="100%" stop-opacity="0" stop-color="#fffefd"/></linearGradient><path fill="url(#p)" d="M79.07 132.077v8.155h16.31v-8.155H79.07zm0 12.233v8.155h16.31v-8.155H79.07zm0 12.232v8.155h16.31v-8.155H79.07zm0 12.233v8.155h16.31v-8.155H79.07zm0 12.232v8.155h16.31v-8.155H79.07zm0 12.233v8.154h16.31v-8.154H79.07zm0 12.232v8.155h16.31v-8.155H79.07zm0 12.232v8.155h16.31v-8.155H79.07zm0 12.233v8.155h16.31v-8.155H79.07z"/></g><g opacity=".467"><linearGradient id="q" x1=".5" x2=".5" y1="-.538" y2=".5" gradientTransform="matrix(16.31 0 0 106.014 58.683 132.077)" gradientUnits="userSpaceOnUse"><stop offset="0%" stop-color="#fff4f0"/><stop offset="100%" stop-opacity="0" stop-color="#fffefd"/></linearGradient><path fill="url(#q)" d="M58.683 132.077v8.155h16.31v-8.155h-16.31zm0 12.233v8.155h16.31v-8.155h-16.31zm0 12.232v8.155h16.31v-8.155h-16.31zm0 12.233v8.155h16.31v-8.155h-16.31zm0 12.232v8.155h16.31v-8.155h-16.31zm0 12.233v8.154h16.31v-8.154h-16.31zm0 12.232v8.155h16.31v-8.155h-16.31zm0 12.232v8.155h16.31v-8.155h-16.31zm0 12.233v8.155h16.31v-8.155h-16.31z"/></g><g opacity=".467"><linearGradient id="r" x1=".5" x2=".5" y1="-.731" y2=".692" gradientTransform="matrix(16.31 0 0 106.014 38.296 132.077)" gradientUnits="userSpaceOnUse"><stop offset="0%" stop-color="#fff4f0"/><stop offset="100%" stop-opacity="0" stop-color="#fffefd"/></linearGradient><path fill="url(#r)" d="M38.296 132.077v8.155h16.31v-8.155h-16.31zm0 12.233v8.155h16.31v-8.155h-16.31zm0 12.232v8.155h16.31v-8.155h-16.31zm0 12.233v8.155h16.31v-8.155h-16.31zm0 12.232v8.155h16.31v-8.155h-16.31zm0 12.233v8.154h16.31v-8.154h-16.31zm0 12.232v8.155h16.31v-8.155h-16.31zm0 12.232v8.155h16.31v-8.155h-16.31zm0 12.233v8.155h16.31v-8.155h-16.31z"/></g><g opacity=".467"><linearGradient id="s" x1=".5" x2=".5" y1="-.5" y2=".231" gradientTransform="matrix(16.31 0 0 106.014 17.908 132.077)" gradientUnits="userSpaceOnUse"><stop offset="0%" stop-color="#fff4f0"/><stop offset="100%" stop-opacity="0" stop-color="#fffefd"/></linearGradient><path fill="url(#s)" d="M17.908 132.077v8.155h16.31v-8.155h-16.31zm0 12.233v8.155h16.31v-8.155h-16.31zm0 12.232v8.155h16.31v-8.155h-16.31zm0 12.233v8.155h16.31v-8.155h-16.31zm0 12.232v8.155h16.31v-8.155h-16.31zm0 12.233v8.154h16.31v-8.154h-16.31zm0 12.232v8.155h16.31v-8.155h-16.31zm0 12.232v8.155h16.31v-8.155h-16.31zm0 12.233v8.155h16.31v-8.155h-16.31z"/></g><g opacity=".467"><linearGradient id="t" x1=".5" x2=".5" y1="-.5" y2="1.346" gradientTransform="matrix(16.31 0 0 106.014 140.232 132.077)" gradientUnits="userSpaceOnUse"><stop offset="0%" stop-color="#fff4f0"/><stop offset="100%" stop-opacity="0" stop-color="#fffefd"/></linearGradient><path fill="url(#t)" d="M140.232 132.077v8.155h16.31v-8.155h-16.31zm0 12.233v8.155h16.31v-8.155h-16.31zm0 12.232v8.155h16.31v-8.155h-16.31zm0 12.233v8.155h16.31v-8.155h-16.31zm0 12.232v8.155h16.31v-8.155h-16.31zm0 12.233v8.154h16.31v-8.154h-16.31zm0 12.232v8.155h16.31v-8.155h-16.31zm0 12.232v8.155h16.31v-8.155h-16.31zm0 12.233v8.155h16.31v-8.155h-16.31z"/></g><g opacity=".467"><linearGradient id="u" x1=".5" x2=".5" y1="-.269" y2=".923" gradientTransform="matrix(16.31 0 0 106.014 160.62 132.077)" gradientUnits="userSpaceOnUse"><stop offset="0%" stop-color="#fff4f0"/><stop offset="100%" stop-opacity="0" stop-color="#fffefd"/></linearGradient><path fill="url(#u)" d="M160.62 132.077v8.155h16.31v-8.155h-16.31zm0 12.233v8.155h16.31v-8.155h-16.31zm0 12.232v8.155h16.31v-8.155h-16.31zm0 12.233v8.155h16.31v-8.155h-16.31zm0 12.232v8.155h16.31v-8.155h-16.31zm0 12.233v8.154h16.31v-8.154h-16.31zm0 12.232v8.155h16.31v-8.155h-16.31zm0 12.232v8.155h16.31v-8.155h-16.31zm0 12.233v8.155h16.31v-8.155h-16.31z"/></g><g opacity=".467"><linearGradient id="v" x1=".5" x2=".5" y1="-.423" y2=".5" gradientTransform="matrix(16.31 0 0 106.014 181.007 132.077)" gradientUnits="userSpaceOnUse"><stop offset="0%" stop-color="#fff4f0"/><stop offset="100%" stop-opacity="0" stop-color="#fffefd"/></linearGradient><path fill="url(#v)" d="M181.007 132.077v8.155h16.31v-8.155h-16.31zm0 12.233v8.155h16.31v-8.155h-16.31zm0 12.232v8.155h16.31v-8.155h-16.31zm0 12.233v8.155h16.31v-8.155h-16.31zm0 12.232v8.155h16.31v-8.155h-16.31zm0 12.233v8.154h16.31v-8.154h-16.31zm0 12.232v8.155h16.31v-8.155h-16.31zm0 12.232v8.155h16.31v-8.155h-16.31zm0 12.233v8.155h16.31v-8.155h-16.31z"/></g><g opacity=".467"><linearGradient id="w" x1=".5" x2=".5" y1="-.375" y2=".538" gradientTransform="matrix(16.31 0 0 106.014 201.394 132.077)" gradientUnits="userSpaceOnUse"><stop offset="0%" stop-color="#fff4f0"/><stop offset="100%" stop-opacity="0" stop-color="#fffefd"/></linearGradient><path fill="url(#w)" d="M201.394 132.077v8.155h16.31v-8.155h-16.31zm0 12.233v8.155h16.31v-8.155h-16.31zm0 12.232v8.155h16.31v-8.155h-16.31zm0 12.233v8.155h16.31v-8.155h-16.31zm0 12.232v8.155h16.31v-8.155h-16.31zm0 12.233v8.154h16.31v-8.154h-16.31zm0 12.232v8.155h16.31v-8.155h-16.31zm0 12.232v8.155h16.31v-8.155h-16.31zm0 12.233v8.155h16.31v-8.155h-16.31z"/></g><g opacity=".467"><linearGradient id="x" x1=".5" x2=".5" y1="-.654" y2=".423" gradientTransform="matrix(16.31 0 0 106.014 221.782 132.077)" gradientUnits="userSpaceOnUse"><stop offset="0%" stop-color="#fff4f0"/><stop offset="100%" stop-opacity="0" stop-color="#fffefd"/></linearGradient><path fill="url(#x)" d="M221.782 132.077v8.155h16.31v-8.155h-16.31zm0 12.233v8.155h16.31v-8.155h-16.31zm0 12.232v8.155h16.31v-8.155h-16.31zm0 12.233v8.155h16.31v-8.155h-16.31zm0 12.232v8.155h16.31v-8.155h-16.31zm0 12.233v8.154h16.31v-8.154h-16.31zm0 12.232v8.155h16.31v-8.155h-16.31zm0 12.232v8.155h16.31v-8.155h-16.31zm0 12.233v8.155h16.31v-8.155h-16.31z"/></g></g><defs><filter id="y" width="137.302" height="170.959" x="49.64" y="45.18" filterUnits="userSpaceOnUse"><feGaussianBlur xmlns="http://www.w3.org/2000/svg" stdDeviation="4.294"/></filter></defs><g opacity=".4" filter="url(#y)"><linearGradient id="z" x1=".652" x2=".652" y1="-.058" y2="1.023" gradientTransform="matrix(117.302 0 0 150.959 59.643 55.182)" gradientUnits="userSpaceOnUse"><stop offset="0%" stop-opacity="0"/><stop offset="51.875%"/><stop offset="100%" stop-opacity="0"/></linearGradient><path fill="url(#z)" d="M171.14 55.183c-1.915-.021-4.461.277-7.848.786l-54.304 8.619C95.38 67.486 95.426 68.387 95.38 79.885V173.173c-.567-.398-1.127-.798-1.714-1.191v.004c-4.324-2.897-8.932-4.959-15.121-4.959-7.753 0-12.377 2.968-15.175 6.879-2.799 3.91-3.727 8.838-3.727 12.648 0 4.594 1.568 9.497 4.971 13.234 3.403 3.736 8.634 6.353 16.157 6.353 8.494 0 14.469-2.372 17.847-7.004 2.659-3.647 4.13-8.52 4.654-14.53v-.016c.074-.73.127-1.479.174-2.25.071-1.188.055-3.411.055-3.411v-71.429c0-10.204 0-10.813 13.612-13.14l38.022-6.288c13.637-1.784 13.64-.533 13.64 7.12v65.552c-.553-.387-1.098-.776-1.669-1.158v.004c-4.323-2.898-8.929-4.96-15.119-4.96-7.753 0-12.378 2.969-15.177 6.879-2.799 3.91-3.727 8.838-3.727 12.648 0 4.595 1.57 9.498 4.973 13.234 3.403 3.737 8.635 6.355 16.157 6.355 8.494 0 14.469-2.373 17.847-7.006 2.659-3.647 4.128-8.517 4.653-14.528V172.195a57.98 57.98 0 0 0 .173-2.248c.071-1.188.058-3.412.058-3.412V67.16c0-8.949-.059-11.913-5.804-11.977z"/></g><defs><filter id="A" width="121.302" height="154.959" x="57.64" y="52.16" filterUnits="userSpaceOnUse"><feGaussianBlur xmlns="http://www.w3.org/2000/svg" stdDeviation=".859"/></filter></defs><path d="M171.14 54.164c-1.915-.022-4.461.277-7.848.786l-54.304 8.619C95.38 66.467 95.426 67.368 95.38 78.865v93.288c-.567-.397-1.127-.797-1.714-1.19v.004c-4.324-2.898-8.932-4.96-15.121-4.96-7.753 0-12.377 2.969-15.175 6.879-2.799 3.91-3.727 8.839-3.727 12.649 0 4.594 1.568 9.497 4.971 13.234 3.403 3.736 8.634 6.353 16.157 6.353 8.494 0 14.469-2.372 17.847-7.004 2.659-3.648 4.13-8.52 4.654-14.53v-.017c.074-.729.127-1.478.174-2.25.071-1.188.055-3.41.055-3.41v-71.429c0-10.205 0-10.814 13.612-13.141l38.022-6.287c13.637-1.784 13.64-.533 13.64 7.12v65.552c-.553-.387-1.098-.776-1.669-1.159v.004c-4.323-2.897-8.929-4.959-15.119-4.959-7.753 0-12.378 2.968-15.177 6.878-2.799 3.911-3.727 8.839-3.727 12.649 0 4.594 1.57 9.497 4.973 13.234 3.403 3.736 8.635 6.355 16.157 6.355 8.494 0 14.469-2.374 17.847-7.006 2.659-3.647 4.128-8.518 4.653-14.528V171.176c.073-.73.126-1.477.173-2.248.071-1.188.058-3.413.058-3.413V66.141c0-8.95-.059-11.913-5.804-11.977z" opacity=".1" filter="url(#A)"/><path fill="#FEF8F8" d="M171.14 53.144c-1.915-.023-4.461.278-7.848.787l-54.304 8.618c-13.608 2.898-13.562 3.8-13.608 15.297V171.134c-.567-.398-1.127-.797-1.714-1.191v.004c-4.324-2.897-8.932-4.959-15.121-4.959-7.753 0-12.377 2.968-15.175 6.878-2.799 3.911-3.727 8.839-3.727 12.649 0 4.594 1.568 9.497 4.971 13.234 3.403 3.736 8.634 6.353 16.157 6.353 8.494 0 14.469-2.372 17.847-7.004 2.659-3.647 4.13-8.52 4.654-14.53v-.019c.074-.729.127-1.478.174-2.25.071-1.188.055-3.41.055-3.41v-71.43c0-10.204 0-10.813 13.613-13.14l38.021-6.287c13.637-1.785 13.64-.534 13.64 7.119v65.553c-.553-.387-1.098-.777-1.669-1.159v.004c-4.323-2.898-8.929-4.96-15.119-4.96-7.753 0-12.378 2.969-15.177 6.879-2.799 3.91-3.727 8.839-3.727 12.648 0 4.595 1.571 9.498 4.973 13.234 3.403 3.737 8.635 6.355 16.157 6.355 8.494 0 14.469-2.373 17.847-7.006 2.659-3.647 4.128-8.517 4.653-14.528v-.019c.073-.729.127-1.476.173-2.247.071-1.188.058-3.413.058-3.413V65.118c0-8.95-.059-11.914-5.804-11.978v.004z"/><g opacity=".1"><linearGradient id="B" x1=".965" x2=".409" y1=".478" y2=".478" gradientTransform="matrix(117.302 0 0 137.943 59.643 66.159)" gradientUnits="userSpaceOnUse"><stop offset="0%" stop-opacity="0" stop-color="#45c9ef"/><stop offset="98.696%" stop-color="#e82b5d"/></linearGradient><path fill="url(#B)" d="M97.962 66.159c-2.546 1.999-2.555 5.104-2.582 11.687V171.134c-.567-.398-1.127-.797-1.714-1.191v.004c-4.324-2.897-8.932-4.959-15.121-4.959-7.753 0-12.377 2.968-15.175 6.878-2.799 3.911-3.727 8.839-3.727 12.649 0 4.594 1.568 9.497 4.971 13.234 3.403 3.736 8.634 6.353 16.157 6.353 8.494 0 14.469-2.372 17.847-7.004 2.659-3.647 4.13-8.52 4.654-14.53v-.019c.074-.729.127-1.478.174-2.25.071-1.188.055-3.41.055-3.41v-71.43c0-10.204 0-10.813 13.613-13.14l38.021-6.287c3.471-.455 6.05-.71 7.979-.715L97.962 66.159zm69.809 20.531c.989 1.209 1.004 3.274 1.004 6.464V158.706c-.553-.387-1.098-.776-1.669-1.158v.004c-4.323-2.898-8.929-4.96-15.119-4.96-7.753 0-12.378 2.969-15.177 6.879-2.799 3.91-3.727 8.838-3.727 12.648 0 4.595 1.57 9.498 4.973 13.234 3.403 3.737 8.635 6.355 16.157 6.355 8.494 0 14.469-2.374 17.847-7.006 2.659-3.647 4.128-8.518 4.653-14.528v-.019a57.98 57.98 0 0 0 .173-2.248c.071-1.188.058-3.412.058-3.412V89.386l-9.173-2.696z"/></g><path fill="#FFF" d="M171.14 53.144c-1.915-.023-4.461.278-7.848.787l-54.304 8.618c-13.608 2.898-13.562 3.8-13.608 15.297v2.039c.046-11.498 0-12.399 13.608-15.297l54.304-8.619c3.387-.509 5.933-.807 7.848-.786 5.745.064 5.804 3.028 5.804 11.977v-2.038c0-8.95-.059-11.914-5.804-11.978zm-19.153 99.448c-7.753 0-12.378 2.969-15.177 6.879-2.799 3.91-3.727 8.839-3.727 12.649 0 .285.024.573.036.86.175-3.612 1.171-7.95 3.691-11.47 2.799-3.91 7.424-6.879 15.177-6.879 6.19 0 10.796 2.062 15.119 4.959v-.003c.571.382 1.116.771 1.669 1.158v-2.038c-.553-.387-1.098-.777-1.669-1.159v.004c-4.323-2.898-8.929-4.96-15.119-4.96zm-73.442 12.396c-7.753 0-12.377 2.969-15.175 6.879-2.799 3.91-3.727 8.838-3.727 12.648 0 .285.023.573.036.86.175-3.611 1.171-7.949 3.691-11.47 2.799-3.91 7.422-6.878 15.175-6.878 6.189 0 10.797 2.062 15.121 4.959v-.004c.587.394 1.147.793 1.714 1.191v-2.039c-.567-.397-1.127-.797-1.714-1.19v.003c-4.324-2.897-8.932-4.959-15.121-4.959z"/><g opacity=".4"><linearGradient id="C" x1=".517" x2=".517" y2="1"><stop offset="0%" stop-color="#fff"/><stop offset="12.5%" stop-opacity=".098" stop-color="#fff"/><stop offset="92.5%" stop-opacity=".098"/><stop offset="100%" stop-opacity=".498"/></linearGradient><path fill="none" stroke="url(#C)" stroke-linecap="round" stroke-linejoin="round" stroke-width="4.077" d="M165.685 11.947c74.055 0 84.639 10.557 84.639 84.544v59.251c0 73.986-10.584 84.543-84.639 84.543h-75.37c-74.055 0-84.639-10.557-84.639-84.543V96.491c0-73.987 10.584-84.544 84.639-84.544h75.37z" vector-effect="non-scaling-stroke"/></g></svg>