<svg xmlns="http://www.w3.org/2000/svg" width="256" height="256" version="1.1">
  <defs>
   <linearGradient id="gradients" x1="971.138" x2="975.537" y1="-1487.17" y2="19.037" gradientTransform="matrix(.11988932 0 0 .11988932 3.1009196 232.21778)" gradientUnits="userSpaceOnUse">
    <stop style="stop-color:#0abdc6" offset="0"/>
    <stop style="stop-color:#fbfd54" offset="1"/>
   </linearGradient>
   <radialGradient id="b" cx=".5" cy=".5" r=".272" fx=".5" fy=".136" gradientTransform="matrix(230 0 0 60.62 13 21)" gradientUnits="userSpaceOnUse">
    <stop offset="0%" stop-color="#ffffff"/>
    <stop offset="100%" stop-color="#ffffff" stop-opacity=".204"/>
   </radialGradient>
   <radialGradient id="c" cx=".5" cy=".5" r=".272" fx=".482" fy=".211" gradientTransform="matrix(230 0 0 58.565 13 53.922)" gradientUnits="userSpaceOnUse">
    <stop offset="0%" stop-color="#ffffff"/>
    <stop offset="100%" stop-color="#ffffff" stop-opacity=".204"/>
   </radialGradient>
  </defs>
  <path fill="#f618c7" d="M53.039 21C16.724 21 13 23.055 13 59.371v52.167h230V79.563c0-36.316-3.724-42.102-40.039-42.102h-89.336L97.198 21H53.039z"/>
  <path d="M 53.039,70.384 C 16.722,70.384 13,74.114 13,110.429 v 84.524 C 13,231.269 16.722,235 53.039,235 H 202.961 C 239.278,235 243,231.269 243,194.953 V 93.969 C 243,57.653 239.278,53.922 202.961,53.922 H 119.53 l -16.438,16.462 z" style="fill:url(#gradients)"/>
  <g opacity="0.4">
   <path fill="url(#b)" d="M 53.039,21 C 16.724,21 13,23.055 13,59.371 V 61.43 C 13,25.114 16.724,23.057 53.039,23.057 h 44.159 l 16.427,16.461 h 89.336 C 239.276,39.518 243,45.304 243,81.62 V 79.563 C 243,43.247 239.276,37.461 202.961,37.461 H 113.625 L 97.198,21 Z"/>
  </g>
  <g opacity="0.4">
   <path fill="url(#c)" d="M 119.53,53.922 103.092,70.384 H 53.039 C 16.724,70.384 13,74.112 13,110.427 v 2.06 C 13,76.171 16.724,72.441 53.039,72.441 h 50.053 l 16.438,-16.46 h 83.431 c 36.315,0 40.039,3.727 40.039,40.043 v -2.057 c 0,-36.316 -3.724,-40.045 -40.039,-40.045 z"/>
  </g>
  <path fill="#ffffff" opacity=".1" d="m 243,167.096 -65.715,65.845 h 25.676 c 36.315,0 40.039,-3.727 40.039,-40.043 z"/>
  <path opacity="0.2" d="m 13,192.898 v 2.057 C 13,231.271 16.724,235 53.039,235 H 202.961 C 239.276,235 243,231.271 243,194.955 v -2.057 c 0,36.316 -3.724,40.043 -40.039,40.043 H 53.039 C 16.724,232.941 13,229.214 13,192.898 Z"/>
 <path fill="#164daf" d="M121.195 106.999c-21.175 0-21.645 14.135-27.765 23.65 7.5-3.535 15.86-6.555 24.88-8.885 8.205-2.115 16.475-3.515 24.505-4.15-5.095-4.14-8.65-10.615-21.62-10.615zm29.06 20.245c-9.335.18-19.46 1.62-29.445 4.2-32.895 8.495-56.346 26.981-52.371 41.281 2.29 8.17 13.335 15.57 29.786 16.55-.01-.06-.025-.115-.03-.175v-.02c-.02-.145-.07-.275-.09-.42-.96-8.72 4.03-15.49 9.77-20.265 5.735-4.775 13.095-8.23 21.425-10.085 4.045-.905 8.12-1.36 12.13-1.31h.01c6.01.075 11.56 1.195 16.446 3.965 4.03 2.285 7.715 6.255 9.285 11.16 15.015-9.175 22.775-21.536 20.41-30.166-2.625-9.47-16.94-15.115-37.326-14.715zM141.31 167c-3.155-.04-6.495.33-9.835 1.075-13.78 3.07-24.275 11.8-23.425 19.49.85 7.695 12.71 11.435 26.495 8.36 13.78-3.075 24.256-11.8 23.406-19.49-.615-5.595-7.171-9.315-16.641-9.435z"/>
</svg>