<svg xmlns="http://www.w3.org/2000/svg" width="256" height="256" version="1.1">
  <defs>
   <linearGradient id="gradients" x1="971.138" x2="975.537" y1="-1487.17" y2="19.037" gradientTransform="matrix(.11988932 0 0 .11988932 3.1009196 232.21778)" gradientUnits="userSpaceOnUse">
    <stop style="stop-color:#0abdc6" offset="0"/>
    <stop style="stop-color:#fbfd54" offset="1"/>
   </linearGradient>
   <radialGradient id="b" cx=".5" cy=".5" r=".272" fx=".5" fy=".136" gradientTransform="matrix(230 0 0 60.62 13 21)" gradientUnits="userSpaceOnUse">
    <stop offset="0%" stop-color="#ffffff"/>
    <stop offset="100%" stop-color="#ffffff" stop-opacity=".204"/>
   </radialGradient>
   <radialGradient id="c" cx=".5" cy=".5" r=".272" fx=".482" fy=".211" gradientTransform="matrix(230 0 0 58.565 13 53.922)" gradientUnits="userSpaceOnUse">
    <stop offset="0%" stop-color="#ffffff"/>
    <stop offset="100%" stop-color="#ffffff" stop-opacity=".204"/>
   </radialGradient>
  </defs>
  <path fill="#f618c7" d="M53.039 21C16.724 21 13 23.055 13 59.371v52.167h230V79.563c0-36.316-3.724-42.102-40.039-42.102h-89.336L97.198 21H53.039z"/>
  <path d="M 53.039,70.384 C 16.722,70.384 13,74.114 13,110.429 v 84.524 C 13,231.269 16.722,235 53.039,235 H 202.961 C 239.278,235 243,231.269 243,194.953 V 93.969 C 243,57.653 239.278,53.922 202.961,53.922 H 119.53 l -16.438,16.462 z" style="fill:url(#gradients)"/>
  <g opacity="0.4">
   <path fill="url(#b)" d="M 53.039,21 C 16.724,21 13,23.055 13,59.371 V 61.43 C 13,25.114 16.724,23.057 53.039,23.057 h 44.159 l 16.427,16.461 h 89.336 C 239.276,39.518 243,45.304 243,81.62 V 79.563 C 243,43.247 239.276,37.461 202.961,37.461 H 113.625 L 97.198,21 Z"/>
  </g>
  <g opacity="0.4">
   <path fill="url(#c)" d="M 119.53,53.922 103.092,70.384 H 53.039 C 16.724,70.384 13,74.112 13,110.427 v 2.06 C 13,76.171 16.724,72.441 53.039,72.441 h 50.053 l 16.438,-16.46 h 83.431 c 36.315,0 40.039,3.727 40.039,40.043 v -2.057 c 0,-36.316 -3.724,-40.045 -40.039,-40.045 z"/>
  </g>
  <path fill="#ffffff" opacity=".1" d="m 243,167.096 -65.715,65.845 h 25.676 c 36.315,0 40.039,-3.727 40.039,-40.043 z"/>
  <path opacity="0.2" d="m 13,192.898 v 2.057 C 13,231.271 16.724,235 53.039,235 H 202.961 C 239.276,235 243,231.271 243,194.955 v -2.057 c 0,36.316 -3.724,40.043 -40.039,40.043 H 53.039 C 16.724,232.941 13,229.214 13,192.898 Z"/>
  <path fill="#164daf" d="M128 92c-33.102 0-60 26.898-60 60 0 33.102 26.898 60 60 60 33.102 0 60-26.898 60-60 0-33.102-26.898-60-60-60zm0 6c.075 0 .15.004.225.005 9.154 9.384 15.564 19.661 19.395 29.995h-39.24c3.831-10.334 10.241-20.611 19.395-29.995.075-.001.15-.005.225-.005zm9.042.764c17.311 2.911 31.801 14.031 39.345 29.236h-22.423c-3.414-10.046-9.024-20.002-16.922-29.236zm-18.084.002C111.06 108 105.448 117.954 102.034 128H79.611c7.544-15.205 22.036-26.322 39.347-29.234zM77.075 134h23.168c-1.564 6.187-2.313 12.359-2.243 18.363.068 5.825.835 11.735 2.311 17.637H77.075A53.993 53.993 0 0 1 74 152a53.993 53.993 0 0 1 3.075-18zm29.381 0h43.085c1.71 6.2 2.528 12.359 2.459 18.293A70.717 70.717 0 0 1 149.518 170h-43.036A70.717 70.717 0 0 1 104 152.293c-.069-5.934.747-12.093 2.456-18.293zm49.299 0h23.168A54.02 54.02 0 0 1 182 152a54.02 54.02 0 0 1-3.077 18h-23.234c1.476-5.902 2.243-11.812 2.311-17.637.07-6.004-.681-12.176-2.245-18.363zm-76.142 42h22.453c3.371 10.031 8.916 19.931 16.885 29.231-17.307-2.913-31.794-14.029-39.338-29.231zm28.784 0h39.206c-3.77 10.302-10.09 20.482-19.378 29.995-.075.001-.15.005-.225.005-.075 0-.15-.005-.225-.005-9.288-9.513-15.608-19.693-19.378-29.995zm45.534 0h22.456c-7.544 15.202-22.031 26.318-39.338 29.231 7.969-9.3 13.512-19.201 16.882-29.231z"/>
</svg>