<svg xmlns="http://www.w3.org/2000/svg" xmlns:xlink="http://www.w3.org/1999/xlink" style="isolation:isolate" width="16" height="16" viewBox="0 0 16 16">
  <g>
   <path fill="#5c616c" d="M 11.714286 0.571143 C 9.34743 0.571143 7.428571 2.352857 7.428571 4.550572 C 7.428571 5.237429 7.616572 5.885428 7.946286 6.449428 C 7.947429 6.451144 7.945142 6.455715 7.946286 6.457999 L 0 13.836857 L 0 15.428857 L 1.714286 15.428857 L 2.285714 14.897999 L 2.285714 13.836857 L 3.428571 13.836857 L 4 13.306 L 5.142857 13.306 L 5.714286 12.775142 L 5.714286 11.714 L 6.285714 11.183143 L 7.428571 11.183143 L 7.428571 10.122001 L 9.66057 8.04943 C 9.662857 8.050572 9.667428 8.048285 9.669715 8.04943 C 10.277143 8.355715 10.974858 8.530572 11.714286 8.530572 C 14.081142 8.530572 16 6.748858 16 4.551143 L 16 4.534572 C 15.992571 2.341428 14.076 0.571714 11.714286 0.571714 L 11.714286 0.571143 Z M 12.571429 2.693429 C 13.201144 2.693429 13.711999 3.17 13.714286 3.754571 C 13.714286 4.340857 13.202857 4.815714 12.571429 4.815714 C 11.94 4.815714 11.428571 4.340857 11.428571 3.754571 C 11.428571 3.168286 11.94 2.693429 12.571429 2.693429 Z"/>
  </g>
</svg>
