<svg xmlns="http://www.w3.org/2000/svg" width="16" height="16" version="1.1">
 <defs>
  <style id="current-color-scheme" type="text/css">
   .ColorScheme-Text { color:#5c616c; } .ColorScheme-Highlight { color:#5294e2; }
  </style>
  <linearGradient id="arrongin" x1="0%" x2="0%" y1="0%" y2="100%">
   <stop id="stop3" offset="0%" style="stop-color:#dd9b44"/>
   <stop id="stop5" offset="100%" style="stop-color:#ad6c16"/>
  </linearGradient>
  <linearGradient id="aurora" x1="0%" x2="0%" y1="0%" y2="100%">
   <stop id="stop8" offset="0%" style="stop-color:#09D4DF"/>
   <stop id="stop10" offset="100%" style="stop-color:#9269F4"/>
  </linearGradient>
  <linearGradient id="fitdance" x1="0%" x2="0%" y1="0%" y2="100%">
   <stop id="stop13" offset="0%" style="stop-color:#1AD6AB"/>
   <stop id="stop15" offset="100%" style="stop-color:#329DB6"/>
  </linearGradient>
  <linearGradient id="oomox" x1="0%" x2="0%" y1="0%" y2="100%">
   <stop id="stop18" offset="0%" style="stop-color:#efefe7"/>
   <stop id="stop20" offset="100%" style="stop-color:#8f8f8b"/>
  </linearGradient>
  <linearGradient id="rainblue" x1="0%" x2="0%" y1="0%" y2="100%">
   <stop id="stop23" offset="0%" style="stop-color:#00F260"/>
   <stop id="stop25" offset="100%" style="stop-color:#0575E6"/>
  </linearGradient>
  <linearGradient id="sunrise" x1="0%" x2="0%" y1="0%" y2="100%">
   <stop id="stop28" offset="0%" style="stop-color:#FF8501"/>
   <stop id="stop30" offset="100%" style="stop-color:#FFCB01"/>
  </linearGradient>
  <linearGradient id="telinkrin" x1="0%" x2="0%" y1="0%" y2="100%">
   <stop id="stop33" offset="0%" style="stop-color:#b2ced6"/>
   <stop id="stop35" offset="100%" style="stop-color:#6da5b7"/>
  </linearGradient>
  <linearGradient id="60spsycho" x1="0%" x2="0%" y1="0%" y2="100%">
   <stop id="stop38" offset="0%" style="stop-color:#df5940"/>
   <stop id="stop40" offset="25%" style="stop-color:#d8d15f"/>
   <stop id="stop42" offset="50%" style="stop-color:#e9882a"/>
   <stop id="stop44" offset="100%" style="stop-color:#279362"/>
  </linearGradient>
  <linearGradient id="90ssummer" x1="0%" x2="0%" y1="0%" y2="100%">
   <stop id="stop47" offset="0%" style="stop-color:#f618c7"/>
   <stop id="stop49" offset="20%" style="stop-color:#94ffab"/>
   <stop id="stop51" offset="50%" style="stop-color:#fbfd54"/>
   <stop id="stop53" offset="100%" style="stop-color:#0f83ae"/>
  </linearGradient>
  <linearGradient id="cyberneon" x1="0%" x2="0%" y1="0%" y2="100%">
   <stop id="stop56" offset="0" style="stop-color:#0abdc6"/>
   <stop id="stop58" offset="1" style="stop-color:#ea00d9"/>
  </linearGradient>
 </defs>
 <path fill="currentColor" class="ColorScheme-Text" d="M 7.6054688 0.0078125 C 6.8422689 1.0575721 6.2530125 2.5447658 6.2578125 4.703125 C 6.2642125 7.5209906 6.9105409 10.870754 7.7441406 13.824219 L 8.2558594 13.824219 C 9.0894591 10.869154 9.7341876 7.5193906 9.7421875 4.703125 C 9.7469875 2.5447658 9.159331 1.0575721 8.3945312 0.0078125 C 8.1321313 -0.0036275 7.8678686 -0.0036275 7.6054688 0.0078125 z M 7.0957031 0.04296875 C 6.8029033 0.07072874 6.5079968 0.11277524 6.2167969 0.16992188 C 4.5847976 0.83112161 3.2782156 2.1958415 3.2910156 4.5566406 C 3.3038156 7.1050396 5.4247663 11.08142 7.3847656 13.824219 L 7.5800781 13.824219 C 6.0888786 11.048754 4.8158875 7.6267531 4.8046875 4.9296875 C 4.7934875 2.4824618 5.7741037 0.92947507 7.0957031 0.04296875 z M 8.9042969 0.04296875 C 10.225897 0.92947507 11.206512 2.4824618 11.195312 4.9296875 C 11.184112 7.6267531 9.9111213 11.048754 8.4199219 13.824219 L 8.6152344 13.824219 C 10.576834 11.08142 12.696184 7.1050396 12.708984 4.5566406 C 12.721784 2.1958415 11.415202 0.83112161 9.7832031 0.16992188 C 9.4920032 0.11277524 9.1970968 0.07072874 8.9042969 0.04296875 z M 4.671875 0.64257812 C 3.1487423 1.3103112 1.9888 2.5414496 2 4.5429688 C 2.0176 7.6269675 4.9136915 11.70022 7.2128906 13.824219 L 7.2519531 13.824219 C 5.058354 11.466754 2.5667813 7.528853 2.5507812 4.4921875 C 2.5411813 2.6310016 3.4287288 1.3968445 4.671875 0.64257812 z M 11.328125 0.64257812 C 12.571325 1.3968445 13.458819 2.6310016 13.449219 4.4921875 C 13.433219 7.528853 10.943246 11.466754 8.7480469 13.824219 L 8.7851562 13.824219 C 11.084355 11.698487 13.9824 7.6253675 14 4.5429688 C 14.0112 2.5414496 12.851191 1.3103112 11.328125 0.64257812 z M 7.4941406 14.494141 C 7.3117407 14.494141 7.1621094 14.647851 7.1621094 14.833984 L 7.1621094 15.660156 C 7.1621094 15.84789 7.3117407 16 7.4941406 16 L 8.5039062 16 C 8.6879063 16 8.8359375 15.84629 8.8359375 15.660156 L 8.8359375 14.833984 C 8.8359375 14.646251 8.6879062 14.494141 8.5039062 14.494141 L 7.4941406 14.494141 z"/>
</svg>
