<svg xmlns="http://www.w3.org/2000/svg" width="16" height="16" version="1.1">
 <defs>
  <style id="current-color-scheme" type="text/css">
   .ColorScheme-Text { color:#5c616c; } .ColorScheme-Highlight { color:#5294e2; }
  </style>
  <linearGradient id="arrongin" x1="0%" x2="0%" y1="0%" y2="100%">
   <stop id="stop3" offset="0%" style="stop-color:#dd9b44"/>
   <stop id="stop5" offset="100%" style="stop-color:#ad6c16"/>
  </linearGradient>
  <linearGradient id="aurora" x1="0%" x2="0%" y1="0%" y2="100%">
   <stop id="stop8" offset="0%" style="stop-color:#09D4DF"/>
   <stop id="stop10" offset="100%" style="stop-color:#9269F4"/>
  </linearGradient>
  <linearGradient id="fitdance" x1="0%" x2="0%" y1="0%" y2="100%">
   <stop id="stop13" offset="0%" style="stop-color:#1AD6AB"/>
   <stop id="stop15" offset="100%" style="stop-color:#329DB6"/>
  </linearGradient>
  <linearGradient id="oomox" x1="0%" x2="0%" y1="0%" y2="100%">
   <stop id="stop18" offset="0%" style="stop-color:#efefe7"/>
   <stop id="stop20" offset="100%" style="stop-color:#8f8f8b"/>
  </linearGradient>
  <linearGradient id="rainblue" x1="0%" x2="0%" y1="0%" y2="100%">
   <stop id="stop23" offset="0%" style="stop-color:#00F260"/>
   <stop id="stop25" offset="100%" style="stop-color:#0575E6"/>
  </linearGradient>
  <linearGradient id="sunrise" x1="0%" x2="0%" y1="0%" y2="100%">
   <stop id="stop28" offset="0%" style="stop-color:#FF8501"/>
   <stop id="stop30" offset="100%" style="stop-color:#FFCB01"/>
  </linearGradient>
  <linearGradient id="telinkrin" x1="0%" x2="0%" y1="0%" y2="100%">
   <stop id="stop33" offset="0%" style="stop-color:#b2ced6"/>
   <stop id="stop35" offset="100%" style="stop-color:#6da5b7"/>
  </linearGradient>
  <linearGradient id="60spsycho" x1="0%" x2="0%" y1="0%" y2="100%">
   <stop id="stop38" offset="0%" style="stop-color:#df5940"/>
   <stop id="stop40" offset="25%" style="stop-color:#d8d15f"/>
   <stop id="stop42" offset="50%" style="stop-color:#e9882a"/>
   <stop id="stop44" offset="100%" style="stop-color:#279362"/>
  </linearGradient>
  <linearGradient id="90ssummer" x1="0%" x2="0%" y1="0%" y2="100%">
   <stop id="stop47" offset="0%" style="stop-color:#f618c7"/>
   <stop id="stop49" offset="20%" style="stop-color:#94ffab"/>
   <stop id="stop51" offset="50%" style="stop-color:#fbfd54"/>
   <stop id="stop53" offset="100%" style="stop-color:#0f83ae"/>
  </linearGradient>
  <linearGradient id="cyberneon" x1="0%" x2="0%" y1="0%" y2="100%">
   <stop id="stop56" offset="0" style="stop-color:#0abdc6"/>
   <stop id="stop58" offset="1" style="stop-color:#ea00d9"/>
  </linearGradient>
 </defs>
 <path fill="currentColor" class="ColorScheme-Text" d="M 4.0390625 0 L 4.0390625 1.3710938 L 4.5 1.3710938 L 4.5 2.2851562 L 3.5859375 2.2851562 L 3.5859375 3.6640625 L 4.5 3.6640625 L 4.5 7.7695312 L 1.296875 7.7695312 L 1.296875 8.2265625 L 4.5 8.2265625 L 4.5 11.878906 L 3.5859375 11.878906 L 3.5859375 13.257812 L 4.5 13.257812 L 4.5 14.171875 L 3.8144531 14.171875 L 4.7285156 16 L 5.6425781 14.171875 L 4.9570312 14.171875 L 4.9570312 13.257812 L 9.0722656 13.257812 C 12.111363 13.257812 14.556641 10.810558 14.556641 7.7714844 C 14.556641 4.7323704 12.111363 2.2851562 9.0722656 2.2851562 L 4.9570312 2.2851562 L 4.9570312 1.3710938 L 5.4101562 1.3710938 L 5.4101562 0 L 4.0390625 0 z M 4.9570312 3.6640625 L 9.0722656 3.6640625 C 11.371673 3.6640625 13.177734 5.4720724 13.177734 7.7714844 C 13.177734 10.070897 11.371673 11.878906 9.0722656 11.878906 L 4.9570312 11.878906 L 4.9570312 8.2265625 L 6.328125 8.2265625 L 5.4140625 10.056641 L 9.9863281 10.056641 L 9.0703125 8.2265625 L 10.443359 8.2265625 L 10.443359 8.9140625 L 12.271484 8 L 10.443359 7.0859375 L 10.443359 7.7695312 L 8.8417969 7.7695312 L 7.6992188 5.4863281 L 6.5585938 7.7695312 L 4.9570312 7.7695312 L 4.9570312 3.6640625 z"/>
</svg>
