<svg xmlns="http://www.w3.org/2000/svg" width="16" height="16" version="1.1">
 <defs>
  <style id="current-color-scheme" type="text/css">
   .ColorScheme-Text { color:#5c616c; } .ColorScheme-Highlight { color:#5294e2; }
  </style>
  <linearGradient id="arrongin" x1="0%" x2="0%" y1="0%" y2="100%">
   <stop id="stop3" offset="0%" style="stop-color:#dd9b44"/>
   <stop id="stop5" offset="100%" style="stop-color:#ad6c16"/>
  </linearGradient>
  <linearGradient id="aurora" x1="0%" x2="0%" y1="0%" y2="100%">
   <stop id="stop8" offset="0%" style="stop-color:#09D4DF"/>
   <stop id="stop10" offset="100%" style="stop-color:#9269F4"/>
  </linearGradient>
  <linearGradient id="fitdance" x1="0%" x2="0%" y1="0%" y2="100%">
   <stop id="stop13" offset="0%" style="stop-color:#1AD6AB"/>
   <stop id="stop15" offset="100%" style="stop-color:#329DB6"/>
  </linearGradient>
  <linearGradient id="oomox" x1="0%" x2="0%" y1="0%" y2="100%">
   <stop id="stop18" offset="0%" style="stop-color:#efefe7"/>
   <stop id="stop20" offset="100%" style="stop-color:#8f8f8b"/>
  </linearGradient>
  <linearGradient id="rainblue" x1="0%" x2="0%" y1="0%" y2="100%">
   <stop id="stop23" offset="0%" style="stop-color:#00F260"/>
   <stop id="stop25" offset="100%" style="stop-color:#0575E6"/>
  </linearGradient>
  <linearGradient id="sunrise" x1="0%" x2="0%" y1="0%" y2="100%">
   <stop id="stop28" offset="0%" style="stop-color:#FF8501"/>
   <stop id="stop30" offset="100%" style="stop-color:#FFCB01"/>
  </linearGradient>
  <linearGradient id="telinkrin" x1="0%" x2="0%" y1="0%" y2="100%">
   <stop id="stop33" offset="0%" style="stop-color:#b2ced6"/>
   <stop id="stop35" offset="100%" style="stop-color:#6da5b7"/>
  </linearGradient>
  <linearGradient id="60spsycho" x1="0%" x2="0%" y1="0%" y2="100%">
   <stop id="stop38" offset="0%" style="stop-color:#df5940"/>
   <stop id="stop40" offset="25%" style="stop-color:#d8d15f"/>
   <stop id="stop42" offset="50%" style="stop-color:#e9882a"/>
   <stop id="stop44" offset="100%" style="stop-color:#279362"/>
  </linearGradient>
  <linearGradient id="90ssummer" x1="0%" x2="0%" y1="0%" y2="100%">
   <stop id="stop47" offset="0%" style="stop-color:#f618c7"/>
   <stop id="stop49" offset="20%" style="stop-color:#94ffab"/>
   <stop id="stop51" offset="50%" style="stop-color:#fbfd54"/>
   <stop id="stop53" offset="100%" style="stop-color:#0f83ae"/>
  </linearGradient>
  <linearGradient id="cyberneon" x1="0%" x2="0%" y1="0%" y2="100%">
   <stop id="stop56" offset="0" style="stop-color:#0abdc6"/>
   <stop id="stop58" offset="1" style="stop-color:#ea00d9"/>
  </linearGradient>
 </defs>
 <path fill="currentColor" class="ColorScheme-Text" d="M 14.69721,2.116916 H 13.858517 V 0.84489299 c 0,-0.48167405 -0.375039,-0.8448949434979 -0.872466,-0.8448949434979 H 1.3029252 C 0.80702441,-1.9534979e-6 0.41854545,0.37109848 0.41854545,0.84489299 V 3.9340182 c 0,0.4910775 0.39674976,0.8905878 0.88437975,0.8905878 H 12.986051 c 0.481082,0 0.872466,-0.3995103 0.872466,-0.8905878 V 2.9046101 h 0.838693 c 0.04578,0 0.07562,0.00363 0.09359,0.00756 0.0016,0.011732 0.0031,0.028543 0.0031,0.051401 V 6.2319 c 0,0.1471473 -0.05854,0.2665801 -0.09669,0.2665801 H 7.8982096 c -0.6155313,0 -1.0796775,0.37898 -1.0796775,0.8815774 V 7.8769399 H 6.5774 c -0.1258828,0 -0.237932,0.079751 -0.2791372,0.1986938 L 5.5547316,10.222141 c -0.010782,0.03108 -0.016243,0.0638 -0.016243,0.09669 v 5.385785 c 0,0.163148 0.1322826,0.295383 0.2953836,0.295383 h 2.9046091 c 0.1631507,0 0.2953837,-0.132235 0.2953837,-0.295383 V 10.31883 c 0,-0.03181 -0.00514,-0.06336 -0.015215,-0.09349 L 8.3024428,8.0788327 C 8.2622227,7.9582691 8.1493843,7.8769399 8.0222709,7.8769399 H 7.6057794 l -6.652e-4,-0.495111 c 0.013884,-0.026366 0.1250948,-0.095655 0.2929714,-0.095655 h 6.7989874 c 0.512443,0 0.884381,-0.443377 0.884381,-1.0542743 v -3.268329 c 9.7e-5,-0.5301184 -0.330535,-0.8466184 -0.884283,-0.8466184 z"/>
</svg>
