<svg xmlns="http://www.w3.org/2000/svg" width="16" height="16" version="1.1" viewBox="0 0 16 16" style="isolation:isolate">
 <defs>
  <style id="current-color-scheme" type="text/css">
   .ColorScheme-Text { color:#5c616c; } .ColorScheme-Highlight { color:#5294e2; }
  </style>
  <linearGradient id="arrongin" x1="0%" x2="0%" y1="0%" y2="100%">
   <stop style="stop-color:#dd9b44" id="stop3" offset="0%"/>
   <stop style="stop-color:#ad6c16" id="stop5" offset="100%"/>
  </linearGradient>
  <linearGradient id="aurora" x1="0%" x2="0%" y1="0%" y2="100%">
   <stop style="stop-color:#09D4DF" id="stop8" offset="0%"/>
   <stop style="stop-color:#9269F4" id="stop10" offset="100%"/>
  </linearGradient>
  <linearGradient id="fitdance" x1="0%" x2="0%" y1="0%" y2="100%">
   <stop style="stop-color:#1AD6AB" id="stop13" offset="0%"/>
   <stop style="stop-color:#329DB6" id="stop15" offset="100%"/>
  </linearGradient>
  <linearGradient id="oomox" x1="0%" x2="0%" y1="0%" y2="100%">
   <stop style="stop-color:#efefe7" id="stop18" offset="0%"/>
   <stop style="stop-color:#8f8f8b" id="stop20" offset="100%"/>
  </linearGradient>
  <linearGradient id="rainblue" x1="0%" x2="0%" y1="0%" y2="100%">
   <stop style="stop-color:#00F260" id="stop23" offset="0%"/>
   <stop style="stop-color:#0575E6" id="stop25" offset="100%"/>
  </linearGradient>
  <linearGradient id="sunrise" x1="0%" x2="0%" y1="0%" y2="100%">
   <stop style="stop-color:#FF8501" id="stop28" offset="0%"/>
   <stop style="stop-color:#FFCB01" id="stop30" offset="100%"/>
  </linearGradient>
  <linearGradient id="telinkrin" x1="0%" x2="0%" y1="0%" y2="100%">
   <stop style="stop-color:#b2ced6" id="stop33" offset="0%"/>
   <stop style="stop-color:#6da5b7" id="stop35" offset="100%"/>
  </linearGradient>
  <linearGradient id="60spsycho" x1="0%" x2="0%" y1="0%" y2="100%">
   <stop style="stop-color:#df5940" id="stop38" offset="0%"/>
   <stop style="stop-color:#d8d15f" id="stop40" offset="25%"/>
   <stop style="stop-color:#e9882a" id="stop42" offset="50%"/>
   <stop style="stop-color:#279362" id="stop44" offset="100%"/>
  </linearGradient>
  <linearGradient id="90ssummer" x1="0%" x2="0%" y1="0%" y2="100%">
   <stop style="stop-color:#f618c7" id="stop47" offset="0%"/>
   <stop style="stop-color:#94ffab" id="stop49" offset="20%"/>
   <stop style="stop-color:#fbfd54" id="stop51" offset="50%"/>
   <stop style="stop-color:#0f83ae" id="stop53" offset="100%"/>
  </linearGradient>
  <linearGradient id="cyberneon" x1="0%" x2="0%" y1="0%" y2="100%">
   <stop style="stop-color:#0abdc6" id="stop56" offset="0"/>
   <stop style="stop-color:#ea00d9" id="stop58" offset="1"/>
  </linearGradient>
 </defs>
 <path fill="currentColor" class="ColorScheme-Text" d="m 7.999999,7.5e-5 c -0.2688,5.33e-4 -0.537334,0.01461 -0.804667,0.04219 -0.254267,0.02557 -0.5048,0.06356 -0.7516,0.112493 -0.01093,0.0015 -0.02187,0.0031 -0.0328,0.0047 -0.231867,0.047 -0.458533,0.108333 -0.6828,0.175 -0.03187,0.0081 -0.0636,0.01647 -0.09533,0.025 C 5.379868,0.438068 5.132135,0.527351 4.890668,0.629764 4.652002,0.730858 4.418402,0.843498 4.190628,0.967271 3.738895,1.213111 3.311922,1.501951 2.915628,1.829764 2.717868,1.992951 2.528068,2.165538 2.346882,2.346951 2.174095,2.520044 2.009348,2.700964 1.853135,2.889138 c -0.0092,0.01108 -0.01896,0.02169 -0.02813,0.03281 -0.126334,0.156347 -0.246734,0.3174 -0.360934,0.482813 -0.04056,0.05751 -0.0828,0.11328 -0.121866,0.17188 -0.08683,0.13292 -0.16968,0.2684 -0.24844,0.406254 -0.05547,0.09492 -0.112454,0.188586 -0.164067,0.285933 -0.06421,0.123867 -0.125173,0.249467 -0.182813,0.376533 -0.05353,0.1152 -0.106547,0.2304 -0.15468,0.3484 -0.04776,0.1208 -0.09256,0.2428 -0.134374,0.365734 -0.04551,0.129333 -0.09077,0.258266 -0.129693,0.390533 -0.03284,0.116 -0.06305,0.232667 -0.09063,0.35 -0.03416,0.139333 -0.06857,0.2784 -0.09531,0.4204 -0.02376,0.134267 -0.04408,0.2692 -0.06095,0.404667 -0.01701,0.1256 -0.03421,0.2508 -0.04531,0.378133 -0.02211,0.2316 -0.03409,0.464133 -0.03593,0.6968 5.33e-4,0.2688 0.0146,0.537333 0.04217,0.804667 0.137547,1.3672 0.621947,2.6332 1.362507,3.710933 0.0068,0.0099 0.01347,0.01987 0.02031,0.02973 0.05732,0.08227 0.116186,0.1636 0.17656,0.243734 4.26e-4,-0.0025 0.0011,-0.0052 0.0016,-0.0079 1.46088,1.9488 3.78124,3.2188 6.39684,3.2188 1.5024,0 2.905066,-0.424133 4.107866,-1.1484 l 0.0016,0.0016 c 0.01613,-0.01093 0.03227,-0.02187 0.0484,-0.0328 0.1908,-0.116933 0.3764,-0.24 0.556267,-0.371867 0.04147,-0.0304 0.08253,-0.06107 0.123333,-0.09227 0.158,-0.120534 0.310934,-0.2464 0.459467,-0.378134 0.06013,-0.05373 0.1196,-0.1084 0.178133,-0.164 0.1236,-0.116533 0.2432,-0.236933 0.359334,-0.360933 0.06907,-0.0732 0.1368,-0.147733 0.203066,-0.223467 0.109067,-0.125733 0.212934,-0.2552 0.314134,-0.387466 0.05533,-0.07147 0.1096,-0.143867 0.162533,-0.2172 0.106267,-0.1492 0.205467,-0.302934 0.301467,-0.459467 0.04,-0.06347 0.07907,-0.127467 0.1172,-0.192133 0.0952,-0.1652 0.182266,-0.335467 0.265733,-0.507867 0.03267,-0.0656 0.0644,-0.131733 0.0952,-0.1984 0.0748,-0.166 0.1412,-0.336 0.2048,-0.507733 0.03093,-0.08133 0.06067,-0.163067 0.08893,-0.245334 0.0552,-0.165733 0.102534,-0.3344 0.146934,-0.504666 0.02333,-0.0856 0.0452,-0.1716 0.0656,-0.257867 0.03613,-0.160933 0.06427,-0.324667 0.09067,-0.489067 0.01827,-0.108 0.03453,-0.2164 0.0484,-0.325066 0.01653,-0.1408 0.0252,-0.283467 0.0344,-0.426534 0.01427,-0.17 0.02307,-0.3404 0.02653,-0.510933 0,-0.269733 -0.0144,-0.535467 -0.04067,-0.7984 l -0.0016,-0.0063 c -0.0256,-0.254266 -0.06347,-0.5048 -0.1124,-0.7516 -0.0023,-0.01067 -0.0025,-0.022 -0.0048,-0.0328 -0.04707,-0.231866 -0.1084,-0.458533 -0.175067,-0.6828 -0.0089,-0.03027 -0.014,-0.062 -0.02333,-0.09213 l -0.0032,-0.01093 c -0.078,-0.2504 -0.167333,-0.4952 -0.2688,-0.7344 -0.101067,-0.238667 -0.2136,-0.472267 -0.337467,-0.700027 -0.245866,-0.451733 -0.534666,-0.878707 -0.862533,-1.275 -0.163067,-0.19776 -0.335733,-0.38756 -0.517067,-0.568747 -0.1732,-0.172786 -0.354,-0.337533 -0.542266,-0.493746 -0.0088,-0.0078 -0.01773,-0.01564 -0.02653,-0.02344 -0.002,-0.0017 -0.0043,-0.003 -0.0063,-0.0047 -0.156267,-0.126333 -0.317334,-0.246733 -0.4828,-0.360933 -0.05747,-0.04056 -0.1132,-0.0828 -0.171867,-0.12188 -0.132933,-0.08681 -0.2684,-0.169667 -0.406267,-0.248427 -0.0948,-0.05547 -0.188533,-0.11244 -0.285866,-0.164067 -0.123867,-0.0642 -0.249467,-0.12516 -0.376534,-0.182813 -0.1152,-0.05353 -0.2304,-0.106547 -0.348533,-0.15468 -0.120667,-0.04775 -0.242533,-0.09253 -0.365467,-0.134347 -0.129466,-0.04549 -0.2584,-0.09077 -0.390666,-0.129693 -0.116,-0.03284 -0.232667,-0.06305 -0.35,-0.09063 C 9.760628,0.203338 9.621695,0.168928 9.479695,0.142188 9.345295,0.118428 9.210362,0.098108 9.075028,0.081258 8.949428,0.064248 8.824228,0.047028 8.696895,0.035938 8.465162,0.013828 8.232628,0.001848 7.999962,8e-6 Z m -1.2156,1.15468 1.080666,2.537507 1.8492,-1.57032 v 4.387466 l 4.285734,3.490667 -1.3172,0.875867 -3.660934,-0.03747 2.05,2.780267 c -0.9112,0.497733 -1.957066,0.781333 -3.071866,0.781333 -2.6668,0 -4.942294,-1.6176 -5.90624,-3.928133 0.504546,-1.949334 1.258133,-3.831334 2.33744,-4.8812 0.460533,-1.6946 1.359066,-3.0972 2.3532,-4.435974 z m 1.2728,6.04532 6.66e-4,0.6812 1.542134,0.1188 c -0.1984,-0.4796 -0.629867,-0.700533 -1.5428,-0.8 z"/>
</svg>
