<svg xmlns="http://www.w3.org/2000/svg" width="16" height="16" version="1.1">
 <path style="solid-color:#5c616c;fill:#5c616c;fill-rule:evenodd" d="m 11.758722,1.5800211 0.13527,0.1802834 -0.658371,2.5365921 -0.250318,0.041953 L 9.388909,1.8022197 9.503958,1.5799835 Z m -5.262599,0 L 6.607052,1.8079266 4.728812,4.4854573 4.478608,4.4204493 4.102091,1.7429186 4.241367,1.580021 Z m 6.685452,0.050646 2.818461,3.6639873 -0.108321,0.2313071 H 11.945869 L 11.812225,5.3403864 12.939609,1.6763612 Z m -5.07323,0 2.818462,3.6639873 -0.108321,0.2313071 H 5.181562 L 5.073241,5.2946541 7.891702,1.6306668 Z m -5.289846,0 0.241928,0.045732 L 4.187814,5.3403865 4.05417,5.5259613 H 0.108321 L 0,5.2946541 Z M 15.89173,6.0895265 15.994949,6.3265029 8.666948,14.500032 8.434242,14.348473 11.816394,6.1749439 11.945881,6.0895269 Z m -5.073229,0 0.130053,0.1950237 -2.818462,7.0461338 H 7.869985 L 5.051523,6.2845502 5.181577,6.0895265 Z m -6.764308,0 L 4.18368,6.1749435 7.565835,14.348473 7.33313,14.500032 0.005129,6.3265029 0.108347,6.0895265 Z"/>
</svg>
