<svg xmlns="http://www.w3.org/2000/svg" style="isolation:isolate" width="256" height="256" viewBox="0 0 256 256">
 <defs>
  <filter id="h6cQKPI1cuiP0Kzq1RsN1MrtGoQJVXFN" width="270.648" height="254.338" x="-7.32" y="2.95" filterUnits="userSpaceOnUse">
   <feGaussianBlur xmlns="http://www.w3.org/2000/svg" in="SourceGraphic" stdDeviation="4.294"/>
   <feOffset xmlns="http://www.w3.org/2000/svg" dx="0" dy="4" result="pf_100_offsetBlur"/>
   <feFlood xmlns="http://www.w3.org/2000/svg" flood-opacity=".4"/>
   <feComposite xmlns="http://www.w3.org/2000/svg" in2="pf_100_offsetBlur" operator="in" result="pf_100_dropShadow"/>
   <feBlend xmlns="http://www.w3.org/2000/svg" in="SourceGraphic" in2="pf_100_dropShadow" mode="normal"/>
  </filter>
 </defs>
 <g filter="url(#h6cQKPI1cuiP0Kzq1RsN1MrtGoQJVXFN)">
  <path fill="#FDC92B" d="M 165.685 11.947 C 239.74 11.947 250.324 22.504 250.324 96.491 L 250.324 155.742 C 250.324 229.728 239.74 240.285 165.685 240.285 L 90.315 240.285 C 16.26 240.285 5.676 229.728 5.676 155.742 L 5.676 96.491 C 5.676 22.504 16.26 11.947 90.315 11.947 L 165.685 11.947 Z"/>
 </g>
 <path fill="#F9F9F9" d="M 133.25 52 C 193.25 62 192.75 62.25 249.749 72.029 C 250.165 79.293 250.324 87.415 250.324 96.491 L 250.324 155.742 C 250.324 229.728 239.74 240.285 165.685 240.285 L 90.315 240.285 C 16.26 240.285 5.676 229.728 5.676 155.742 L 5.676 96.491 C 5.676 65.054 7.587 45.068 15.466 32.478 C 65.25 40.75 77.5 43 133.25 52 Z"/>
 <path fill="#2F8925" d="M 39.75 42.75 C 137.75 59.792 207.75 70.75 250.028 78.008 C 250.238 83.681 250.324 89.829 250.324 96.491 L 250.324 155.742 C 250.324 229.728 239.74 240.285 165.685 240.285 L 90.315 240.285 C 16.26 240.285 5.676 229.728 5.676 155.742 L 5.676 96.491 C 5.676 69.434 7.091 50.86 12.509 38.183 C 19.25 39.75 26.75 41 39.75 42.75 Z"/>
 <path fill="#F9F9F9" d="M 218 174.25 C 231.358 172.668 249.5 172.376 250.119 171.496 C 248.355 231.268 234.127 240.285 165.685 240.285 L 90.315 240.285 C 32.499 240.285 13.37 233.851 7.76 195.822 C 3.523 195.085 157.154 181.457 218 174.25 Z"/>
 <path fill="#83C643" d="M 211.5 182 C 232.999 179.782 250.226 178.589 249.879 177.732 C 247.265 231.903 231.673 240.285 165.685 240.285 L 90.315 240.285 C 35.743 240.285 15.639 234.552 8.837 201.93 C 7.817 200.777 144.331 188.931 211.5 182 Z"/>
 <g>
  <path fill="#F9F9F9" d="M 128.668 42.333 C 100.806 42.333 77.667 65.472 77.667 93.334 C 77.667 111.042 82.133 124.429 82.133 124.429 L 83.096 127.334 L 94.667 127.334 C 101.396 127.334 107.259 131.201 112.115 140.914 C 116.971 150.627 120.167 166.009 120.167 186.834 L 137.167 186.834 C 137.167 166.009 140.363 150.627 145.219 140.914 C 150.075 131.201 155.938 127.334 162.667 127.334 L 174.238 127.334 L 175.201 124.429 C 175.201 124.429 179.667 111.042 179.667 93.334 C 179.667 65.472 156.528 42.333 128.666 42.333 L 128.668 42.333 Z"/>
  <path fill="#37A6E6" d="M 128.668 50.833 C 105.529 50.833 86.167 70.195 86.167 93.334 C 86.167 107.959 89.122 116.683 89.786 118.834 L 94.667 118.834 C 104.938 118.834 113.95 125.591 119.719 137.128 C 125.488 148.666 128.668 165.159 128.668 186.834 C 128.668 165.159 131.847 148.667 137.616 137.128 C 143.384 125.591 152.396 118.834 162.668 118.834 L 167.549 118.834 C 168.213 116.683 171.168 107.959 171.168 93.334 C 171.168 70.195 151.806 50.833 128.668 50.833 Z"/>
 </g>
 <g opacity=".4">
  <linearGradient id="_lgradient_1" x1=".517" x2=".517" y1="0" y2="1">
   <stop offset="0%" style="stop-color:rgb(255,255,255)"/>
   <stop offset="12.5%" stop-opacity=".098" style="stop-color:rgb(255,255,255)"/>
   <stop offset="92.5%" stop-opacity=".098" style="stop-color:rgb(0,0,0)"/>
   <stop offset="100%" stop-opacity=".498" style="stop-color:rgb(0,0,0)"/>
  </linearGradient>
  <path fill="none" stroke="url(#_lgradient_1)" stroke-linecap="round" stroke-linejoin="round" stroke-width="4.077" d="M 165.685 11.947 C 239.74 11.947 250.324 22.504 250.324 96.491 L 250.324 155.742 C 250.324 229.728 239.74 240.285 165.685 240.285 L 90.315 240.285 C 16.26 240.285 5.676 229.728 5.676 155.742 L 5.676 96.491 C 5.676 22.504 16.26 11.947 90.315 11.947 L 165.685 11.947 Z" vector-effect="non-scaling-stroke"/>
 </g>
</svg>
