<svg xmlns="http://www.w3.org/2000/svg" style="isolation:isolate" width="256" height="256"><defs><filter id="a" width="270.648" height="254.338" x="-7.32" y="2.95" filterUnits="userSpaceOnUse"><feGaussianBlur xmlns="http://www.w3.org/2000/svg" in="SourceGraphic" stdDeviation="4.294"/><feOffset xmlns="http://www.w3.org/2000/svg" dy="4" result="pf_100_offsetBlur"/><feFlood xmlns="http://www.w3.org/2000/svg" flood-opacity=".4"/><feComposite xmlns="http://www.w3.org/2000/svg" in2="pf_100_offsetBlur" operator="in" result="pf_100_dropShadow"/><feBlend xmlns="http://www.w3.org/2000/svg" in="SourceGraphic" in2="pf_100_dropShadow"/></filter></defs><g filter="url(#a)"><linearGradient id="b" x1=".533" x2=".533" y1="1" gradientTransform="matrix(244.648 0 0 228.338 5.676 11.947)" gradientUnits="userSpaceOnUse"><stop offset="0%" stop-color="#8ac249"/><stop offset="100%" stop-color="#aae961"/></linearGradient><path fill="url(#b)" d="M165.685 11.947c74.055 0 84.639 10.557 84.639 84.544v59.251c0 73.986-10.584 84.543-84.639 84.543h-75.37c-74.055 0-84.639-10.557-84.639-84.543V96.491c0-73.987 10.584-84.544 84.639-84.544h75.37z"/></g><g opacity=".4"><linearGradient id="c" x1=".517" x2=".517" y2="1"><stop offset="0%" stop-color="#fff"/><stop offset="12.5%" stop-opacity=".098" stop-color="#fff"/><stop offset="92.5%" stop-opacity=".098"/><stop offset="100%" stop-opacity=".498"/></linearGradient><path fill="none" stroke="url(#c)" stroke-linecap="round" stroke-linejoin="round" stroke-width="4.077" d="M165.685 11.947c74.055 0 84.639 10.557 84.639 84.544v59.251c0 73.986-10.584 84.543-84.639 84.543h-75.37c-74.055 0-84.639-10.557-84.639-84.543V96.491c0-73.987 10.584-84.544 84.639-84.544h75.37z" vector-effect="non-scaling-stroke"/></g><path fill="#F9F9F9" d="M111.167 74.008c-3.396.096-6.888.654-10.314 1.878-14.648 5.155-25.761 20.156-29.043 38.794-9.631 2.412-17.954 11.131-20.84 23.816-4.008 17.978 4.428 36.729 18.728 41.794.234.072.378.138.612.186 1.968.912 4.338 1.524 6.54 1.524h3.187s6-5.929 6-12.001V98.016c0-6 5.815-12.001 5.815-12.001h17.977s-5.79 6.001-5.79 12.001v18.002h48.124V98.016c0-3 1.362-6 2.814-8.25-.822.186-1.596.444-2.436.75-2.742.96-5.202 2.37-7.501 4.314-7.878-13.339-20.509-21.212-33.915-20.816M93.736 92.016c-.912 1.83-1.686 3.912-1.686 6h6c0-2.088.75-4.17 1.662-6m60.186 0c-.912 1.83-1.686 3.912-1.686 6h6c0-2.088.75-4.17 1.662-6m5.815.564c-.822 1.71-1.5 3.492-1.5 5.436v71.983c0 6.12-5.977 12.001-5.977 12.001h16.478c3.702 0 7.008-1.428 9.913-3.75 11.629-6.937 18.001-23.648 14.437-39.73-2.646-11.881-10.129-20.414-18.914-23.438-.138-.396-.138-.726-.186-1.128-2.178-9.703-7.524-17.3-14.251-21.47m-79.627 11.533v6.001h6v-6.001m60.126 0v6.001h6v-6.001m-72.126 11.977v6.001h6v-6.001m60.126 0v6.001h6v-6.001m-60.125 6.001v30.002h48.124v-30.002m-60.125 6v6.001h6v-6.001m60.126 0v6.001h6v-6.001m-72.126 11.977v6.001h6v-6.001m60.126 0v6.001h6v-6.001m-72.126 12.001v6.001h6v-6.001m60.126 0v6.001h6v-6.001m-60.125 6.001v11.977c0 5.88-6.001 12.001-6.001 12.001h48.125s6-6.001 6-12.001v-11.977m-60.125 6v5.977h6v-5.977m60.126 0v5.977h6v-5.977m-73.836 11.977c-1.783 3.445-4.315 6.001-4.315 6.001h6.001s2.532-2.556 4.314-6.001m60.126 0c-1.783 3.445-4.315 6.001-4.315 6.001h6.001s2.532-2.556 4.314-6.001"/></svg>