<svg xmlns="http://www.w3.org/2000/svg" style="isolation:isolate" width="256" height="256" viewBox="0 0 256 256">
 <defs>
  <filter id="QugbkPSH2s7y1enr4BNn3JOG3DjC39Ne" width="270.648" height="254.338" x="-7.32" y="2.95" filterUnits="userSpaceOnUse">
   <feGaussianBlur xmlns="http://www.w3.org/2000/svg" in="SourceGraphic" stdDeviation="4.294"/>
   <feOffset xmlns="http://www.w3.org/2000/svg" dx="0" dy="4" result="pf_100_offsetBlur"/>
   <feFlood xmlns="http://www.w3.org/2000/svg" flood-opacity=".4"/>
   <feComposite xmlns="http://www.w3.org/2000/svg" in2="pf_100_offsetBlur" operator="in" result="pf_100_dropShadow"/>
   <feBlend xmlns="http://www.w3.org/2000/svg" in="SourceGraphic" in2="pf_100_dropShadow" mode="normal"/>
  </filter>
 </defs>
 <g filter="url(#QugbkPSH2s7y1enr4BNn3JOG3DjC39Ne)">
  <linearGradient id="_lgradient_6" x1=".533" x2=".533" y1="1" y2="0" gradientTransform="matrix(244.648,0,0,228.338,5.676,11.947)" gradientUnits="userSpaceOnUse">
   <stop offset="0%" style="stop-color:rgb(138,194,73)"/>
   <stop offset="100%" style="stop-color:rgb(170,233,97)"/>
  </linearGradient>
  <path fill="url(#_lgradient_6)" d="M 165.685 11.947 C 239.74 11.947 250.324 22.504 250.324 96.491 L 250.324 155.742 C 250.324 229.728 239.74 240.285 165.685 240.285 L 90.315 240.285 C 16.26 240.285 5.676 229.728 5.676 155.742 L 5.676 96.491 C 5.676 22.504 16.26 11.947 90.315 11.947 L 165.685 11.947 Z"/>
 </g>
 <g opacity=".4">
  <linearGradient id="_lgradient_7" x1=".517" x2=".517" y1="0" y2="1">
   <stop offset="0%" style="stop-color:rgb(255,255,255)"/>
   <stop offset="12.5%" stop-opacity=".098" style="stop-color:rgb(255,255,255)"/>
   <stop offset="92.5%" stop-opacity=".098" style="stop-color:rgb(0,0,0)"/>
   <stop offset="100%" stop-opacity=".498" style="stop-color:rgb(0,0,0)"/>
  </linearGradient>
  <path fill="none" stroke="url(#_lgradient_7)" stroke-linecap="round" stroke-linejoin="round" stroke-width="4.077" d="M 165.685 11.947 C 239.74 11.947 250.324 22.504 250.324 96.491 L 250.324 155.742 C 250.324 229.728 239.74 240.285 165.685 240.285 L 90.315 240.285 C 16.26 240.285 5.676 229.728 5.676 155.742 L 5.676 96.491 C 5.676 22.504 16.26 11.947 90.315 11.947 L 165.685 11.947 Z" vector-effect="non-scaling-stroke"/>
 </g>
 <path fill="#F9F9F9" d="M 111.167 74.008 C 107.771 74.104 104.279 74.662 100.853 75.886 C 86.205 81.041 75.092 96.042 71.81 114.68 C 62.179 117.092 53.856 125.811 50.97 138.496 C 46.962 156.474 55.398 175.225 69.698 180.29 C 69.932 180.362 70.076 180.428 70.31 180.476 C 72.278 181.388 74.648 182 76.85 182 L 80.037 182 C 80.037 182 86.037 176.071 86.037 169.999 L 86.037 98.016 C 86.037 92.016 91.852 86.015 91.852 86.015 L 109.829 86.015 C 109.829 86.015 104.039 92.016 104.039 98.016 L 104.039 116.018 L 152.163 116.018 L 152.163 98.016 C 152.163 95.016 153.525 92.016 154.977 89.766 C 154.155 89.952 153.381 90.21 152.541 90.516 C 149.799 91.476 147.339 92.886 145.04 94.83 C 137.162 81.491 124.531 73.618 111.125 74.014 M 93.736 92.016 C 92.824 93.846 92.05 95.928 92.05 98.016 L 98.05 98.016 C 98.05 95.928 98.8 93.846 99.712 92.016 M 159.898 92.016 C 158.986 93.846 158.212 95.928 158.212 98.016 L 164.212 98.016 C 164.212 95.928 164.962 93.846 165.874 92.016 M 171.689 92.58 C 170.867 94.29 170.189 96.072 170.189 98.016 L 170.189 169.999 C 170.189 176.119 164.212 182 164.212 182 L 180.69 182 C 184.392 182 187.698 180.572 190.603 178.25 C 202.232 171.313 208.604 154.602 205.04 138.52 C 202.394 126.639 194.911 118.106 186.126 115.082 C 185.988 114.686 185.988 114.356 185.94 113.954 C 183.762 104.251 178.416 96.654 171.689 92.484 M 92.062 104.017 L 92.062 110.018 L 98.062 110.018 L 98.062 104.017 M 158.188 104.017 L 158.188 110.018 L 164.188 110.018 L 164.188 104.017 M 92.062 115.994 L 92.062 121.995 L 98.062 121.995 L 98.062 115.994 M 158.188 115.994 L 158.188 121.995 L 164.188 121.995 L 164.188 115.994 M 104.063 121.995 L 104.063 151.997 L 152.187 151.997 L 152.187 121.995 M 92.062 127.995 L 92.062 133.996 L 98.062 133.996 L 98.062 127.995 M 158.188 127.995 L 158.188 133.996 L 164.188 133.996 L 164.188 127.995 M 92.062 139.972 L 92.062 145.973 L 98.062 145.973 L 98.062 139.972 M 158.188 139.972 L 158.188 145.973 L 164.188 145.973 L 164.188 139.972 M 92.062 151.973 L 92.062 157.974 L 98.062 157.974 L 98.062 151.973 M 158.188 151.973 L 158.188 157.974 L 164.188 157.974 L 164.188 151.973 M 104.063 157.974 L 104.063 169.951 C 104.063 175.831 98.062 181.952 98.062 181.952 L 146.187 181.952 C 146.187 181.952 152.187 175.951 152.187 169.951 L 152.187 157.974 M 92.062 163.974 L 92.062 169.951 L 98.062 169.951 L 98.062 163.974 M 158.188 163.974 L 158.188 169.951 L 164.188 169.951 L 164.188 163.974 M 90.352 175.951 C 88.569 179.396 86.037 181.952 86.037 181.952 L 92.038 181.952 C 92.038 181.952 94.57 179.396 96.352 175.951 M 156.478 175.951 C 154.695 179.396 152.163 181.952 152.163 181.952 L 158.164 181.952 C 158.164 181.952 160.696 179.396 162.478 175.951"/>
</svg>
