<?xml version="1.0" standalone="no"?><!-- Generator: Gravit.io --><svg xmlns="http://www.w3.org/2000/svg" xmlns:xlink="http://www.w3.org/1999/xlink" style="isolation:isolate" viewBox="0 0 256 256" width="256" height="256"><defs><clipPath id="_clipPath_5srnkLHornKrs2hBLSNEMh6CYIH2wCCi"><rect width="256" height="256"/></clipPath></defs><g clip-path="url(#_clipPath_5srnkLHornKrs2hBLSNEMh6CYIH2wCCi)"><rect width="256" height="256" style="fill:rgba(0,0,0,0)"/><g id="icon"><g id="drop shadow"><defs><filter id="oLd8SRO2X7pfx8Lgam6v6XDiUcwfhxTZ" x="-200%" y="-200%" width="400%" height="400%"><feGaussianBlur xmlns="http://www.w3.org/2000/svg" stdDeviation="2.32"/></filter></defs><g opacity="0.2" filter="url(#oLd8SRO2X7pfx8Lgam6v6XDiUcwfhxTZ)"><path d=" M 165.035 14.849 C 239.091 14.849 249.675 25.407 249.675 99.394 L 249.675 158.645 C 249.675 232.632 239.091 243.189 165.035 243.189 L 89.665 243.189 C 15.609 243.189 5.025 232.632 5.025 158.645 L 5.025 99.394 C 5.025 25.407 15.609 14.849 89.665 14.849 L 165.035 14.849 Z " fill="rgb(0,0,0)"/></g><defs><filter id="xMjwr2UOhJf7zG6T67TMZwOBIy43eREO" x="-200%" y="-200%" width="400%" height="400%"><feGaussianBlur xmlns="http://www.w3.org/2000/svg" stdDeviation="1.16"/></filter></defs><g opacity="0.1" filter="url(#xMjwr2UOhJf7zG6T67TMZwOBIy43eREO)"><path d=" M 165.035 13.83 C 239.091 13.83 249.675 24.387 249.675 98.374 L 249.675 157.626 C 249.675 231.612 239.091 242.17 165.035 242.17 L 89.665 242.17 C 15.609 242.17 5.025 231.612 5.025 157.626 L 5.025 98.374 C 5.025 24.387 15.609 13.83 89.665 13.83 L 165.035 13.83 Z " fill="rgb(0,0,0)"/></g></g><path d=" M 165.035 12.83 C 239.091 12.83 249.675 23.387 249.675 97.374 L 249.675 156.626 C 249.675 230.612 239.091 241.17 165.035 241.17 L 89.665 241.17 C 15.609 241.17 5.025 230.612 5.025 156.626 L 5.025 97.374 C 5.025 23.387 15.609 12.83 89.665 12.83 L 165.035 12.83 Z " fill="rgb(255,255,255)"/><clipPath id="_clipPath_gxqrVaWA8nv9toM3bowb8DW5bihGfIrU"><path d=" M 165.035 12.83 C 239.091 12.83 249.675 23.387 249.675 97.374 L 249.675 156.626 C 249.675 230.612 239.091 241.17 165.035 241.17 L 89.665 241.17 C 15.609 241.17 5.025 230.612 5.025 156.626 L 5.025 97.374 C 5.025 23.387 15.609 12.83 89.665 12.83 L 165.035 12.83 Z " fill="rgb(255,255,255)"/></clipPath><g clip-path="url(#_clipPath_gxqrVaWA8nv9toM3bowb8DW5bihGfIrU)"><path d=" M 165.035 12.83 C 239.091 12.83 249.675 23.387 249.675 97.374 L 249.675 156.626 C 249.675 230.612 239.091 241.17 165.035 241.17 L 89.665 241.17 C 15.609 241.17 5.025 230.612 5.025 156.626 L 5.025 97.374 C 5.025 23.387 15.609 12.83 89.665 12.83 L 165.035 12.83 Z " fill="rgb(236,236,236)"/><g id="67F8_NewShortcut1_4E956BBDAB1B4156AEF14A08F107E9D7.0"><g opacity="0.1"><path d=" M 83 188.597 L 83 68.024 L 118.167 68.024 L 118.167 112.632 C 118.744 118.691 125.19 115.999 125.652 113.208 L 133.239 68.024 L 172.192 68.024 L 158.384 123.488 L 143.308 127.099 L 159.615 130.721 L 173.43 188.596 L 133.239 188.596 L 125.652 139.746 C 125.229 135.965 118.283 135.932 118.167 140.366 C 118.052 144.793 118.167 188.596 118.167 188.596" fill="rgb(0,0,0)"/></g><path d=" M 83 183.573 L 83 63 L 118.167 63 L 118.167 107.608 C 118.744 113.667 125.19 110.975 125.652 108.184 L 133.239 63 L 172.192 63 L 158.384 118.464 L 143.308 122.075 L 159.615 125.697 L 173.43 183.572 L 133.239 183.572 L 125.652 134.722 C 125.229 130.941 118.283 130.908 118.167 135.342 C 118.052 139.769 118.167 183.572 118.167 183.572" fill="rgb(51,51,51)"/></g><linearGradient id="_lgradient_32" x1="26.70141017780502%" y1="-0.3634930366996625%" x2="88.12803432994095%" y2="99.3235389031985%"><stop offset="0%" stop-opacity="0" style="stop-color:rgb(40,133,30)"/><stop offset="98.26086956521739%" stop-opacity="0.2" style="stop-color:rgb(255,255,255)"/></linearGradient><path d=" M 165.035 12.83 C 239.091 12.83 249.675 23.387 249.675 97.374 L 249.675 156.626 C 249.675 230.612 239.091 241.17 165.035 241.17 L 89.665 241.17 C 15.609 241.17 5.025 230.612 5.025 156.626 L 5.025 97.374 C 5.025 23.387 15.609 12.83 89.665 12.83 L 165.035 12.83 Z " fill="url(#_lgradient_32)"/></g><g id="highlight"><clipPath id="_clipPath_dWLeCPEAQWhSm4hTheqRzdZ5p6mqjpgN"><path d=" M 165.035 12.811 C 239.091 12.811 249.675 23.368 249.675 97.355 L 249.675 156.606 C 249.675 230.593 239.091 241.151 165.035 241.151 L 89.665 241.151 C 15.609 241.151 5.025 230.593 5.025 156.606 L 5.025 97.355 C 5.025 23.368 15.609 12.811 89.665 12.811 L 165.035 12.811 Z " fill="rgb(255,255,255)"/></clipPath><g clip-path="url(#_clipPath_dWLeCPEAQWhSm4hTheqRzdZ5p6mqjpgN)"><g opacity="0.4"><linearGradient id="_lgradient_33" x1="51.666666666666686%" y1="0%" x2="51.66666666666666%" y2="100.00000000000003%"><stop offset="0%" stop-opacity="1" style="stop-color:rgb(255,255,255)"/><stop offset="12.5%" stop-opacity="0.09803922" style="stop-color:rgb(255,255,255)"/><stop offset="92.500001%" stop-opacity="0.09803922" style="stop-color:rgb(0,0,0)"/><stop offset="100%" stop-opacity="0.49803922" style="stop-color:rgb(0,0,0)"/></linearGradient><path d=" M 165.035 12.811 C 239.091 12.811 249.675 23.368 249.675 97.355 L 249.675 156.606 C 249.675 230.593 239.091 241.151 165.035 241.151 L 89.665 241.151 C 15.609 241.151 5.025 230.593 5.025 156.606 L 5.025 97.355 C 5.025 23.368 15.609 12.811 89.665 12.811 L 165.035 12.811 Z " fill="none" vector-effect="non-scaling-stroke" stroke-width="4" stroke="url(#_lgradient_33)" stroke-linejoin="round" stroke-linecap="round" stroke-miterlimit="4"/></g></g></g></g></g></svg>