<?xml version="1.0" standalone="no"?><!-- Generator: Gravit.io --><svg xmlns="http://www.w3.org/2000/svg" xmlns:xlink="http://www.w3.org/1999/xlink" style="isolation:isolate" viewBox="0 0 256 256" width="256" height="256"><defs><clipPath id="_clipPath_0ubZdReb7eE9XBicwXZFUIydgb4qkAff"><rect width="256" height="256"/></clipPath></defs><g clip-path="url(#_clipPath_0ubZdReb7eE9XBicwXZFUIydgb4qkAff)"><rect width="256" height="256" style="fill:rgba(0,0,0,0)"/><g id="icon"><g id="drop shadow"><defs><filter id="BzMVQQyXqKKYSwtC4oycN9wwdIeQmk5K" x="-200%" y="-200%" width="400%" height="400%"><feGaussianBlur xmlns="http://www.w3.org/2000/svg" stdDeviation="2.32"/></filter></defs><g opacity="0.2" filter="url(#BzMVQQyXqKKYSwtC4oycN9wwdIeQmk5K)"><path d=" M 165.035 14.849 C 239.091 14.849 249.675 25.407 249.675 99.394 L 249.675 158.645 C 249.675 232.632 239.091 243.189 165.035 243.189 L 89.665 243.189 C 15.609 243.189 5.025 232.632 5.025 158.645 L 5.025 99.394 C 5.025 25.407 15.609 14.849 89.665 14.849 L 165.035 14.849 Z " fill="rgb(0,0,0)"/></g><defs><filter id="78zQdhXRCj7DynV2gM1tPCJ0msYoxWe6" x="-200%" y="-200%" width="400%" height="400%"><feGaussianBlur xmlns="http://www.w3.org/2000/svg" stdDeviation="1.16"/></filter></defs><g opacity="0.1" filter="url(#78zQdhXRCj7DynV2gM1tPCJ0msYoxWe6)"><path d=" M 165.035 13.83 C 239.091 13.83 249.675 24.387 249.675 98.374 L 249.675 157.626 C 249.675 231.612 239.091 242.17 165.035 242.17 L 89.665 242.17 C 15.609 242.17 5.025 231.612 5.025 157.626 L 5.025 98.374 C 5.025 24.387 15.609 13.83 89.665 13.83 L 165.035 13.83 Z " fill="rgb(0,0,0)"/></g></g><path d=" M 165.035 12.83 C 239.091 12.83 249.675 23.387 249.675 97.374 L 249.675 156.626 C 249.675 230.612 239.091 241.17 165.035 241.17 L 89.665 241.17 C 15.609 241.17 5.025 230.612 5.025 156.626 L 5.025 97.374 C 5.025 23.387 15.609 12.83 89.665 12.83 L 165.035 12.83 Z " fill="rgb(255,255,255)"/><clipPath id="_clipPath_DVYdC8qepffoY4iKSjOaOWIQ5dtuTBcK"><path d=" M 165.035 12.83 C 239.091 12.83 249.675 23.387 249.675 97.374 L 249.675 156.626 C 249.675 230.612 239.091 241.17 165.035 241.17 L 89.665 241.17 C 15.609 241.17 5.025 230.612 5.025 156.626 L 5.025 97.374 C 5.025 23.387 15.609 12.83 89.665 12.83 L 165.035 12.83 Z " fill="rgb(255,255,255)"/></clipPath><g clip-path="url(#_clipPath_DVYdC8qepffoY4iKSjOaOWIQ5dtuTBcK)"><path d=" M 165.035 12.83 C 239.091 12.83 249.675 23.387 249.675 97.374 L 249.675 156.626 C 249.675 230.612 239.091 241.17 165.035 241.17 L 89.665 241.17 C 15.609 241.17 5.025 230.612 5.025 156.626 L 5.025 97.374 C 5.025 23.387 15.609 12.83 89.665 12.83 L 165.035 12.83 Z " fill="rgb(179,179,179)"/><g opacity="0.1"><path d=" M 89.666 242.149 C 15.61 242.149 5.027 231.592 5.027 157.605 L 5.027 127.98 L 249.675 127.98 L 249.675 157.605 C 249.675 231.592 239.091 242.149 165.036 242.149 L 89.666 242.149 Z " fill="rgb(255,255,255)"/></g><g opacity="0.1"><path d=" M 127.351 13.811 L 127.351 242.149 L 165.036 242.149 C 239.091 242.149 249.675 231.592 249.675 157.605 L 249.675 98.354 C 249.675 24.368 239.091 13.811 165.036 13.811 L 127.351 13.811 Z " fill="rgb(255,255,255)"/></g><linearGradient id="_lgradient_26" x1="26.70141017780502%" y1="-0.3634930366996625%" x2="88.12803432994095%" y2="99.3235389031985%"><stop offset="0%" stop-opacity="0" style="stop-color:rgb(40,133,30)"/><stop offset="98.26086956521739%" stop-opacity="0.2" style="stop-color:rgb(255,255,255)"/></linearGradient><path d=" M 165.035 12.83 C 239.091 12.83 249.675 23.387 249.675 97.374 L 249.675 156.626 C 249.675 230.612 239.091 241.17 165.035 241.17 L 89.665 241.17 C 15.609 241.17 5.025 230.612 5.025 156.626 L 5.025 97.374 C 5.025 23.387 15.609 12.83 89.665 12.83 L 165.035 12.83 Z " fill="url(#_lgradient_26)"/><g id="8-ball-pool" filter="url(#lAdKJznzFNps0zOzm7ryBFcERZZwIJjY)"><radialGradient id="_rgradient_4" fx="50.221323569594%" fy="49.69123995846765%" cx="50%" cy="50%" r="50%" gradientTransform="matrix(1.2887169603560917 0.8622222222222228 -0.5732568547790896 1.3288888888888897 -0.01326485834871951 -0.9155555555555556)"><stop offset="2.1739130434782608%" stop-opacity="1" style="stop-color:rgb(100,99,99)"/><stop offset="100%" stop-opacity="1" style="stop-color:rgb(51,51,51)"/><stop offset="100%" stop-opacity="1" style="stop-color:rgb(2,2,2)"/><stop offset="100%" stop-opacity="1" style="stop-color:rgb(155,155,155)"/></radialGradient><path d=" M 203.01 128.01 C 202.99 169.441 169.411 203 128 203 C 86.589 203 53.01 169.441 52.99 128.01 C 52.97 86.579 86.569 53 128 53 C 169.431 53 203.01 86.599 203.01 128.01 Z " fill="url(#_rgradient_4)"/><path d=" M 168.005 128.01 C 168.005 150.103 150.093 168.015 128 168.015 C 105.907 168.015 87.995 150.103 87.995 128.01 C 87.995 105.917 105.907 88.005 128 88.005 C 150.093 88.005 168.005 105.917 168.005 128.01 Z " fill="rgb(249,249,249)"/><path d=" M 127.925 155 L 127.925 155 L 127.925 155 Q 119.423 155 114.239 150.45 L 114.239 150.45 L 114.239 150.45 Q 109.055 145.901 109.055 138.591 L 109.055 138.591 L 109.055 138.591 Q 109.055 134.116 111.554 130.685 L 111.554 130.685 L 111.554 130.685 Q 114.052 127.254 118.378 125.464 L 118.378 125.464 L 118.378 125.464 Q 115.246 123.972 113.232 121.175 L 113.232 121.175 L 113.232 121.175 Q 111.218 118.378 111.218 114.724 L 111.218 114.724 L 111.218 114.724 Q 111.218 108.682 115.805 104.841 L 115.805 104.841 L 115.805 104.841 Q 120.392 101 127.925 101 L 127.925 101 L 127.925 101 Q 135.533 101 140.157 104.841 L 140.157 104.841 L 140.157 104.841 Q 144.782 108.682 144.782 114.724 L 144.782 114.724 L 144.782 114.724 Q 144.782 118.378 142.731 121.175 L 142.731 121.175 L 142.731 121.175 Q 140.68 123.972 137.472 125.39 L 137.472 125.39 L 137.472 125.39 Q 141.798 127.18 144.372 130.685 L 144.372 130.685 L 144.372 130.685 Q 146.945 134.191 146.945 138.591 L 146.945 138.591 L 146.945 138.591 Q 146.945 145.901 141.724 150.45 L 141.724 150.45 L 141.724 150.45 Q 136.503 155 127.925 155 Z  M 122.182 119.982 L 122.182 119.982 L 122.182 119.982 Q 124.345 121.809 127.925 121.809 L 127.925 121.809 L 127.925 121.809 Q 131.506 121.809 133.743 119.982 L 133.743 119.982 L 133.743 119.982 Q 135.981 118.155 135.981 115.395 L 135.981 115.395 L 135.981 115.395 Q 135.981 112.486 133.743 110.696 L 133.743 110.696 L 133.743 110.696 Q 131.506 108.906 127.925 108.906 L 127.925 108.906 L 127.925 108.906 Q 124.345 108.906 122.182 110.696 L 122.182 110.696 L 122.182 110.696 Q 120.019 112.486 120.019 115.395 L 120.019 115.395 L 120.019 115.395 Q 120.019 118.155 122.182 119.982 Z  M 120.728 144.595 L 120.728 144.595 L 120.728 144.595 Q 123.525 147.019 127.925 147.019 L 127.925 147.019 L 127.925 147.019 Q 132.326 147.019 135.16 144.595 L 135.16 144.595 L 135.16 144.595 Q 137.994 142.171 137.994 138.293 L 137.994 138.293 L 137.994 138.293 Q 137.994 134.564 135.16 132.102 L 135.16 132.102 L 135.16 132.102 Q 132.326 129.641 127.925 129.641 L 127.925 129.641 L 127.925 129.641 Q 123.525 129.641 120.728 132.102 L 120.728 132.102 L 120.728 132.102 Q 117.931 134.564 117.931 138.293 L 117.931 138.293 L 117.931 138.293 Q 117.931 142.171 120.728 144.595 Z " fill-rule="evenodd" fill="rgb(51,51,51)"/></g><defs><filter id="lAdKJznzFNps0zOzm7ryBFcERZZwIJjY" x="-200%" y="-200%" width="400%" height="400%"><feOffset xmlns="http://www.w3.org/2000/svg" in="SourceAlpha" result="offOut" dx="0" dy="4"/><feGaussianBlur xmlns="http://www.w3.org/2000/svg" in="offOut" result="blurOut" stdDeviation="5"/><feComponentTransfer xmlns="http://www.w3.org/2000/svg" in="blurOut" result="opacOut"><feFuncA xmlns="http://www.w3.org/2000/svg" type="table" tableValues="0 0.5"/></feComponentTransfer><feBlend xmlns="http://www.w3.org/2000/svg" in="SourceGraphic" in2="opacOut" mode="normal"/></filter></defs></g><g id="highlight"><clipPath id="_clipPath_akP8Q8DJkQwDyG7pD2mwOUG9I4EYwAN6"><path d=" M 165.035 12.811 C 239.091 12.811 249.675 23.368 249.675 97.355 L 249.675 156.606 C 249.675 230.593 239.091 241.151 165.035 241.151 L 89.665 241.151 C 15.609 241.151 5.025 230.593 5.025 156.606 L 5.025 97.355 C 5.025 23.368 15.609 12.811 89.665 12.811 L 165.035 12.811 Z " fill="rgb(255,255,255)"/></clipPath><g clip-path="url(#_clipPath_akP8Q8DJkQwDyG7pD2mwOUG9I4EYwAN6)"><g opacity="0.4"><linearGradient id="_lgradient_27" x1="51.666666666666686%" y1="0%" x2="51.66666666666666%" y2="100.00000000000003%"><stop offset="0%" stop-opacity="1" style="stop-color:rgb(255,255,255)"/><stop offset="12.5%" stop-opacity="0.09803922" style="stop-color:rgb(255,255,255)"/><stop offset="92.500001%" stop-opacity="0.09803922" style="stop-color:rgb(0,0,0)"/><stop offset="100%" stop-opacity="0.49803922" style="stop-color:rgb(0,0,0)"/></linearGradient><path d=" M 165.035 12.811 C 239.091 12.811 249.675 23.368 249.675 97.355 L 249.675 156.606 C 249.675 230.593 239.091 241.151 165.035 241.151 L 89.665 241.151 C 15.609 241.151 5.025 230.593 5.025 156.606 L 5.025 97.355 C 5.025 23.368 15.609 12.811 89.665 12.811 L 165.035 12.811 Z " fill="none" vector-effect="non-scaling-stroke" stroke-width="4" stroke="url(#_lgradient_27)" stroke-linejoin="round" stroke-linecap="round" stroke-miterlimit="4"/></g></g></g></g></g></svg>