<svg xmlns="http://www.w3.org/2000/svg" style="isolation:isolate" width="256" height="256"><defs><filter id="a" width="270.648" height="254.338" x="-7.32" y="2.95" filterUnits="userSpaceOnUse"><feGaussianBlur xmlns="http://www.w3.org/2000/svg" in="SourceGraphic" stdDeviation="4.294"/><feOffset xmlns="http://www.w3.org/2000/svg" dy="4" result="pf_100_offsetBlur"/><feFlood xmlns="http://www.w3.org/2000/svg" flood-opacity=".4"/><feComposite xmlns="http://www.w3.org/2000/svg" in2="pf_100_offsetBlur" operator="in" result="pf_100_dropShadow"/><feBlend xmlns="http://www.w3.org/2000/svg" in="SourceGraphic" in2="pf_100_dropShadow"/></filter></defs><g filter="url(#a)"><linearGradient id="b" x1=".567" x2=".567" y1="1.071" y2="-.071" gradientTransform="matrix(244.648 0 0 228.338 5.676 11.947)" gradientUnits="userSpaceOnUse"><stop offset="0%" stop-color="#a0a0a0"/><stop offset="100%" stop-color="#dfdfdf"/></linearGradient><path fill="url(#b)" d="M165.685 11.947c74.055 0 84.639 10.557 84.639 84.544v59.251c0 73.986-10.584 84.543-84.639 84.543h-75.37c-74.055 0-84.639-10.557-84.639-84.543V96.491c0-73.987 10.584-84.544 84.639-84.544h75.37z"/></g><g opacity=".4"><linearGradient id="c" x1=".517" x2=".517" y2="1"><stop offset="0%" stop-color="#fff"/><stop offset="12.5%" stop-opacity=".098" stop-color="#fff"/><stop offset="92.5%" stop-opacity=".098"/><stop offset="100%" stop-opacity=".498"/></linearGradient><path fill="none" stroke="url(#c)" stroke-linecap="round" stroke-linejoin="round" stroke-width="4.077" d="M165.685 11.947c74.055 0 84.639 10.557 84.639 84.544v59.251c0 73.986-10.584 84.543-84.639 84.543h-75.37c-74.055 0-84.639-10.557-84.639-84.543V96.491c0-73.987 10.584-84.544 84.639-84.544h75.37z" vector-effect="non-scaling-stroke"/></g><g filter="url(#KnjRXA6CLCqJgNXZJkUXbGoBVDkegfbc)"><radialGradient id="d" cx=".5" cy=".5" r=".5" fx=".502" fy=".497" gradientTransform="matrix(193.333 129.333 -86 199.333 51 -86.333)" gradientUnits="userSpaceOnUse"><stop offset="2.174%" stop-color="#646363"/><stop offset="100%" stop-color="#333"/><stop offset="100%" stop-color="#020202"/><stop offset="100%" stop-color="#9b9b9b"/></radialGradient><path fill="url(#d)" d="M203.01 126.01C202.99 167.441 169.411 201 128 201c-41.411 0-74.99-33.559-75.01-74.99C52.97 84.579 86.569 51 128 51c41.431 0 75.01 33.599 75.01 75.01z"/><path fill="#F9F9F9" d="M168.005 126.01c0 22.093-17.912 40.005-40.005 40.005-22.093 0-40.005-17.912-40.005-40.005 0-22.093 17.912-40.005 40.005-40.005 22.093 0 40.005 17.912 40.005 40.005z"/><path fill="#333" fill-rule="evenodd" d="M127.925 153q-8.502 0-13.686-4.55-5.184-4.549-5.184-11.859 0-4.475 2.499-7.906 2.498-3.431 6.824-5.221-3.132-1.492-5.146-4.289-2.014-2.797-2.014-6.451 0-6.042 4.587-9.883Q120.392 99 127.925 99q7.608 0 12.232 3.841 4.625 3.841 4.625 9.883 0 3.654-2.051 6.451-2.051 2.797-5.259 4.215 4.326 1.79 6.9 5.295 2.573 3.506 2.573 7.906 0 7.31-5.221 11.859-5.221 4.55-13.799 4.55zm-5.743-35.018q2.163 1.827 5.743 1.827 3.581 0 5.818-1.827 2.238-1.827 2.238-4.587 0-2.909-2.238-4.699-2.237-1.79-5.818-1.79-3.58 0-5.743 1.79-2.163 1.79-2.163 4.699 0 2.76 2.163 4.587zm-1.454 24.613q2.797 2.424 7.197 2.424 4.401 0 7.235-2.424 2.834-2.424 2.834-6.302 0-3.729-2.834-6.191-2.834-2.461-7.235-2.461-4.4 0-7.197 2.461-2.797 2.462-2.797 6.191 0 3.878 2.797 6.302z"/></g><defs><filter id="KnjRXA6CLCqJgNXZJkUXbGoBVDkegfbc" width="210.02" height="210" x="22.99" y="25" filterUnits="userSpaceOnUse"><feGaussianBlur xmlns="http://www.w3.org/2000/svg" in="SourceGraphic" stdDeviation="4.294"/><feOffset xmlns="http://www.w3.org/2000/svg" dy="4" result="pf_100_offsetBlur"/><feFlood xmlns="http://www.w3.org/2000/svg" flood-opacity=".4"/><feComposite xmlns="http://www.w3.org/2000/svg" in2="pf_100_offsetBlur" operator="in" result="pf_100_dropShadow"/><feBlend xmlns="http://www.w3.org/2000/svg" in="SourceGraphic" in2="pf_100_dropShadow"/></filter></defs></svg>