<?xml version="1.0" standalone="no"?><!-- Generator: Gravit.io --><svg xmlns="http://www.w3.org/2000/svg" xmlns:xlink="http://www.w3.org/1999/xlink" style="isolation:isolate" viewBox="0 0 256 256" width="256" height="256"><defs><filter id="zyO2Dk1pWYDvtKxGP07rCeiJ5bsbGoOi" x="-7.324" y="2.947" width="270.648" height="254.338" filterUnits="userSpaceOnUse"><feGaussianBlur xmlns="http://www.w3.org/2000/svg" in="SourceGraphic" stdDeviation="4.293609062839028"/><feOffset xmlns="http://www.w3.org/2000/svg" dx="0" dy="4" result="pf_100_offsetBlur"/><feFlood xmlns="http://www.w3.org/2000/svg" flood-color="#000000" flood-opacity="0.4"/><feComposite xmlns="http://www.w3.org/2000/svg" in2="pf_100_offsetBlur" operator="in" result="pf_100_dropShadow"/><feBlend xmlns="http://www.w3.org/2000/svg" in="SourceGraphic" in2="pf_100_dropShadow" mode="normal"/></filter></defs><g filter="url(#zyO2Dk1pWYDvtKxGP07rCeiJ5bsbGoOi)"><linearGradient id="_lgradient_14" x1="0.7333333039805784" y1="1.0714286580680752" x2="0.26666665461658845" y2="0.0047620309503841884" gradientTransform="matrix(244.648,0,0,228.338,5.676,11.947)" gradientUnits="userSpaceOnUse"><stop offset="0%" stop-opacity="1" style="stop-color:rgb(243,126,64)"/><stop offset="100%" stop-opacity="1" style="stop-color:rgb(243,79,23)"/></linearGradient><path d=" M 165.685 11.947 C 239.74 11.947 250.324 22.504 250.324 96.491 L 250.324 155.742 C 250.324 229.728 239.74 240.285 165.685 240.285 L 90.315 240.285 C 16.26 240.285 5.676 229.728 5.676 155.742 L 5.676 96.491 C 5.676 22.504 16.26 11.947 90.315 11.947 L 165.685 11.947 Z " id="shape" fill="url(#_lgradient_14)"/></g><g opacity="0.4"><linearGradient id="_lgradient_15" x1="0.5166666666666668" y1="0" x2="0.5166666666666666" y2="1.0000000000000002"><stop offset="0%" stop-opacity="1" style="stop-color:rgb(255,255,255)"/><stop offset="12.5%" stop-opacity="0.09803922" style="stop-color:rgb(255,255,255)"/><stop offset="92.500001%" stop-opacity="0.09803922" style="stop-color:rgb(0,0,0)"/><stop offset="100%" stop-opacity="0.49803922" style="stop-color:rgb(0,0,0)"/></linearGradient><path d=" M 165.685 11.947 C 239.74 11.947 250.324 22.504 250.324 96.491 L 250.324 155.742 C 250.324 229.728 239.74 240.285 165.685 240.285 L 90.315 240.285 C 16.26 240.285 5.676 229.728 5.676 155.742 L 5.676 96.491 C 5.676 22.504 16.26 11.947 90.315 11.947 L 165.685 11.947 Z " id="highlight" fill="none" vector-effect="non-scaling-stroke" stroke-width="4.077" stroke="url(#_lgradient_15)" stroke-linejoin="round" stroke-linecap="round" stroke-miterlimit="4"/></g><g id="origin" filter="url(#tDS5QYtSxjrIT5Fao0fHA1Onw2SMa8Wh)"><linearGradient id="_lgradient_16" x1="0.23333335660955284" y1="-0.07142834499305195" x2="0.9333333977034091" y2="0.9952383842928247" gradientTransform="matrix(106.155,0,0,138,74.923,59)" gradientUnits="userSpaceOnUse"><stop offset="0%" stop-opacity="1" style="stop-color:rgb(232,232,232)"/><stop offset="100%" stop-opacity="1" style="stop-color:rgb(245,245,245)"/></linearGradient><path d=" M 127.109 59.013 C 126.211 58.94 125.157 59.161 124.009 59.781 C 92.855 76.59 74.65 106.944 74.926 127.182 C 75.325 156.618 97.914 180.714 131.599 179.895 C 130.051 187.744 125.398 190.342 126.084 194.076 C 126.355 195.553 128.516 198.086 131.444 196.491 C 161.345 180.202 180.467 151.113 181.056 130.168 C 181.861 101.548 160.087 74.401 124.24 76.221 C 125.089 72.26 127.079 68.747 129.568 64.642 C 131.12 62.082 129.804 59.233 127.111 59.014 L 127.109 59.013 Z  M 128.001 106.771 C 139.725 106.771 149.23 116.276 149.23 128.002 C 149.23 139.727 139.725 149.232 128.001 149.232 C 116.276 149.232 106.771 139.727 106.771 128.002 C 106.771 116.276 116.276 106.771 128.001 106.771 Z " fill-rule="evenodd" id="Compound Path" fill="url(#_lgradient_16)"/></g><defs><filter id="tDS5QYtSxjrIT5Fao0fHA1Onw2SMa8Wh" x="44.923" y="33" width="166.155" height="198" filterUnits="userSpaceOnUse"><feGaussianBlur xmlns="http://www.w3.org/2000/svg" in="SourceGraphic" stdDeviation="4.293609062839028"/><feOffset xmlns="http://www.w3.org/2000/svg" dx="0" dy="4" result="pf_100_offsetBlur"/><feFlood xmlns="http://www.w3.org/2000/svg" flood-color="#000000" flood-opacity="0.4"/><feComposite xmlns="http://www.w3.org/2000/svg" in2="pf_100_offsetBlur" operator="in" result="pf_100_dropShadow"/><feBlend xmlns="http://www.w3.org/2000/svg" in="SourceGraphic" in2="pf_100_dropShadow" mode="normal"/></filter></defs></svg>