<svg xmlns="http://www.w3.org/2000/svg" style="isolation:isolate" width="256" height="256" viewBox="0 0 256 256">
 <defs>
  <filter id="AEJshP0qaOvuAVEwe0d0a358coy32xuj" width="270.648" height="254.338" x="-7.32" y="2.95" filterUnits="userSpaceOnUse">
   <feGaussianBlur xmlns="http://www.w3.org/2000/svg" in="SourceGraphic" stdDeviation="4.294"/>
   <feOffset xmlns="http://www.w3.org/2000/svg" dx="0" dy="4" result="pf_100_offsetBlur"/>
   <feFlood xmlns="http://www.w3.org/2000/svg" flood-opacity=".4"/>
   <feComposite xmlns="http://www.w3.org/2000/svg" in2="pf_100_offsetBlur" operator="in" result="pf_100_dropShadow"/>
   <feBlend xmlns="http://www.w3.org/2000/svg" in="SourceGraphic" in2="pf_100_dropShadow" mode="normal"/>
  </filter>
 </defs>
 <g filter="url(#AEJshP0qaOvuAVEwe0d0a358coy32xuj)">
  <path fill="#4D4D4D" d="M 165.685 11.947 C 239.74 11.947 250.324 22.504 250.324 96.491 L 250.324 155.742 C 250.324 229.728 239.74 240.285 165.685 240.285 L 90.315 240.285 C 16.26 240.285 5.676 229.728 5.676 155.742 L 5.676 96.491 C 5.676 22.504 16.26 11.947 90.315 11.947 L 165.685 11.947 Z"/>
 </g>
 <g opacity=".1">
  <path fill="#FFFFFF" d="M 5.676 126.116 L 5.676 155.742 C 5.676 229.728 16.26 240.285 90.315 240.285 L 165.685 240.285 C 239.74 240.285 250.324 229.728 250.324 155.742 L 250.324 126.116 L 5.676 126.116 Z"/>
 </g>
 <g>
  <path fill="#81E9C0" d="M 250.325 125.02 L 250.325 129.02 L 201.625 129.02 L 197.965 114.24 L 186.275 173.19 L 177.965 96.69 L 177.965 143.41 L 171.225 116.18 L 165.375 165.6 L 155.275 113.76 L 148.455 233.15 L 142.005 81.43 L 133.215 125.4 L 128.295 104.64 L 122.345 229.54 L 115.685 76.72 L 105.545 233.03 L 94.365 112.67 L 88.445 180.42 L 82.495 76.16 L 74.235 129.02 L 5.675 129.02 L 5.675 125.02 L 70.815 125.02 L 84.345 38.37 L 89.275 124.91 L 94.245 68.13 L 104.835 182.17 L 116.475 19.85 L 122.525 141.71 L 125.645 76.15 L 132.885 106.67 L 144.595 48.08 L 149.045 152.75 L 153.105 81.69 L 164.415 139.72 L 169.825 93.91 L 173.965 110.63 L 173.965 22.84 L 187.435 146.78 L 197.525 95.85 L 204.755 125.02 L 250.325 125.02 Z"/>
  <g>
   <defs>
    <filter id="b621DKy9EHbpwj4aIbYtmkOstQiAHJvF" width="162.664" height="134.533" x="46.67" y="59.87" filterUnits="userSpaceOnUse">
     <feGaussianBlur xmlns="http://www.w3.org/2000/svg" stdDeviation="2.719"/>
    </filter>
   </defs>
   <g opacity=".3" filter="url(#b621DKy9EHbpwj4aIbYtmkOstQiAHJvF)">
    <path fill="#0F0000" d="M 128.739 66.209 C 127.075 66.189 125.416 66.238 123.767 66.354 L 123.767 66.356 C 103.974 67.743 85.56 78.781 75.226 96.68 L 83.347 101.365 C 95.026 81.134 118.778 71.296 141.341 77.342 C 158.411 81.915 171.52 94.704 176.896 110.774 L 159.253 117.565 C 164.892 122.897 170.897 128.224 177.267 133.549 C 183.619 138.805 189.959 143.791 196.286 148.506 C 197.897 140.734 199.293 132.768 200.48 124.61 C 201.632 116.391 202.475 108.43 202.999 100.727 L 185.648 107.405 C 179.201 88.61 163.764 73.643 143.771 68.285 C 138.779 66.948 133.734 66.269 128.739 66.209 Z M 59.712 105.772 C 58.101 113.543 56.705 121.512 55.519 129.67 C 54.367 137.889 53.524 145.849 52.999 153.553 L 70.347 146.875 C 76.793 165.672 92.231 180.641 112.226 185.998 C 118.881 187.782 125.632 188.387 132.23 187.924 C 152.023 186.536 170.44 175.503 180.775 157.604 L 172.65 152.918 C 160.971 173.149 137.219 182.987 114.655 176.942 C 97.584 172.368 84.475 159.577 79.101 143.504 L 96.743 136.713 C 91.105 131.381 85.101 126.053 78.732 120.729 C 72.38 115.473 66.04 110.486 59.712 105.772 Z"/>
   </g>
   <path fill="#FFFFFF" d="M 128.739 66.209 C 127.075 66.19 125.416 66.24 123.767 66.354 L 123.767 66.356 C 103.974 67.743 85.56 78.781 75.226 96.68 L 83.347 101.365 C 95.026 81.134 118.778 71.296 141.341 77.342 C 158.411 81.915 171.52 94.704 176.896 110.774 L 159.253 117.565 C 164.892 122.897 170.897 128.224 177.267 133.549 C 183.619 138.805 189.959 143.791 196.286 148.506 C 197.897 140.734 199.293 132.768 200.48 124.61 C 201.632 116.391 202.475 108.43 202.999 100.727 L 185.648 107.404 C 179.201 88.61 163.764 73.642 143.771 68.285 C 138.779 66.948 133.734 66.269 128.739 66.209 L 128.739 66.209 Z M 59.712 105.772 C 58.101 113.543 56.705 121.512 55.519 129.67 C 54.367 137.889 53.524 145.849 52.999 153.553 L 70.347 146.875 C 76.793 165.672 92.231 180.641 112.226 185.998 C 118.881 187.781 125.632 188.387 132.23 187.924 C 152.023 186.536 170.44 175.503 180.775 157.604 L 172.65 152.918 C 160.971 173.149 137.219 182.987 114.655 176.942 C 97.584 172.368 84.475 159.577 79.101 143.504 L 96.743 136.713 C 91.105 131.381 85.101 126.053 78.732 120.729 C 72.38 115.473 66.04 110.486 59.712 105.772 Z"/>
  </g>
 </g>
 <g opacity=".4">
  <linearGradient id="_lgradient_49" x1=".517" x2=".517" y1="0" y2="1">
   <stop offset="0%" style="stop-color:rgb(255,255,255)"/>
   <stop offset="12.5%" stop-opacity=".098" style="stop-color:rgb(255,255,255)"/>
   <stop offset="92.5%" stop-opacity=".098" style="stop-color:rgb(0,0,0)"/>
   <stop offset="100%" stop-opacity=".498" style="stop-color:rgb(0,0,0)"/>
  </linearGradient>
  <path fill="none" stroke="url(#_lgradient_49)" stroke-linecap="round" stroke-linejoin="round" stroke-width="4.077" d="M 165.685 11.947 C 239.74 11.947 250.324 22.504 250.324 96.491 L 250.324 155.742 C 250.324 229.728 239.74 240.285 165.685 240.285 L 90.315 240.285 C 16.26 240.285 5.676 229.728 5.676 155.742 L 5.676 96.491 C 5.676 22.504 16.26 11.947 90.315 11.947 L 165.685 11.947 Z" vector-effect="non-scaling-stroke"/>
 </g>
</svg>
