<?xml version="1.0" standalone="no"?>
<!--Generator: Gravit.io-->
<svg xmlns="http://www.w3.org/2000/svg" xmlns:xlink="http://www.w3.org/1999/xlink" width="256" height="256" style="isolation:isolate" viewBox="0 0 256 256">
    <defs>
        <clipPath id="_clipPath_wSS5c8qOsWRYF4CBmnIHRScvN2xJ4tAs">
            <rect width="256" height="256"/>
        </clipPath>
    </defs>
    <g clip-path="url(#_clipPath_wSS5c8qOsWRYF4CBmnIHRScvN2xJ4tAs)">
        <rect width="256" height="256" style="fill:rgba(0,0,0,0)"/>
        <g id="icon">
            <g id="drop shadow">
                <defs>
                    <filter id="z11qWTLbNi927yPrsR2T6gvBNf74nJuM" width="400%" height="400%" x="-200%" y="-200%">
                        <feGaussianBlur xmlns="http://www.w3.org/2000/svg" stdDeviation="2.32"/>
                    </filter>
                </defs>
                <g filter="url(#z11qWTLbNi927yPrsR2T6gvBNf74nJuM)" opacity="0.2">
                    <path fill="rgb(0,0,0)" d=" M 165.685 15.849 C 239.741 15.849 250.325 26.407 250.325 100.394 L 250.325 159.645 C 250.325 233.632 239.741 244.189 165.685 244.189 L 90.315 244.189 C 16.259 244.189 5.675 233.632 5.675 159.645 L 5.675 100.394 C 5.675 26.407 16.259 15.849 90.315 15.849 L 165.685 15.849 Z "/>
                </g>
                <defs>
                    <filter id="pxL7dLyIS8zgeTNfwDOiIInosIXqBuTh" width="400%" height="400%" x="-200%" y="-200%">
                        <feGaussianBlur xmlns="http://www.w3.org/2000/svg" stdDeviation="1.16"/>
                    </filter>
                </defs>
                <g filter="url(#pxL7dLyIS8zgeTNfwDOiIInosIXqBuTh)" opacity="0.1">
                    <path fill="rgb(0,0,0)" d=" M 165.685 14.83 C 239.741 14.83 250.325 25.387 250.325 99.374 L 250.325 158.626 C 250.325 232.612 239.741 243.17 165.685 243.17 L 90.315 243.17 C 16.259 243.17 5.675 232.612 5.675 158.626 L 5.675 99.374 C 5.675 25.387 16.259 14.83 90.315 14.83 L 165.685 14.83 Z "/>
                </g>
            </g>
            <path fill="rgb(255,255,255)" d=" M 165.685 13.83 C 239.741 13.83 250.325 24.387 250.325 98.374 L 250.325 157.626 C 250.325 231.612 239.741 242.17 165.685 242.17 L 90.315 242.17 C 16.259 242.17 5.675 231.612 5.675 157.626 L 5.675 98.374 C 5.675 24.387 16.259 13.83 90.315 13.83 L 165.685 13.83 Z "/>
            <clipPath id="_clipPath_qRwG2Ky78j2iIfkcTwMDRicrupKHjovn">
                <path fill="rgb(255,255,255)" d=" M 165.685 13.83 C 239.741 13.83 250.325 24.387 250.325 98.374 L 250.325 157.626 C 250.325 231.612 239.741 242.17 165.685 242.17 L 90.315 242.17 C 16.259 242.17 5.675 231.612 5.675 157.626 L 5.675 98.374 C 5.675 24.387 16.259 13.83 90.315 13.83 L 165.685 13.83 Z "/>
            </clipPath>
            <g clip-path="url(#_clipPath_qRwG2Ky78j2iIfkcTwMDRicrupKHjovn)">
                <path fill="rgb(98,35,124)" d=" M 165.685 13.83 C 239.741 13.83 250.325 24.387 250.325 98.374 L 250.325 157.626 C 250.325 231.612 239.741 242.17 165.685 242.17 L 90.315 242.17 C 16.259 242.17 5.675 231.612 5.675 157.626 L 5.675 98.374 C 5.675 24.387 16.259 13.83 90.315 13.83 L 165.685 13.83 Z "/>
                <path fill="none" stroke="rgb(236,236,236)" stroke-linecap="square" stroke-linejoin="miter" stroke-miterlimit="3" stroke-width="7" d=" M 64 112 C 64 76.677 92.677 48 128 48 C 163.323 48 192 76.677 192 112 C 192 147.323 163.323 176 128 176 C 92.677 176 64 147.323 64 112 Z " vector-effect="non-scaling-stroke"/>
                <path fill="rgb(98,35,124)" stroke="rgb(98,35,124)" stroke-linecap="square" stroke-linejoin="miter" stroke-miterlimit="3" stroke-width="10" d=" M 165.462 118.561 C 163.591 118.561 162.059 120.092 162.059 121.964 L 162.059 149.189 C 162.059 167.962 146.774 183.248 128 183.248 C 109.226 183.248 93.941 167.962 93.941 149.189 L 93.941 121.964 C 93.941 120.092 92.409 118.561 90.538 118.561 C 88.666 118.561 87.135 120.092 87.135 121.964 L 87.135 149.189 C 87.135 170.571 103.64 188.154 124.597 189.884 L 124.597 203.638 L 112.431 203.638 C 110.559 203.638 109.028 205.169 109.028 207.041 C 109.028 208.913 110.559 210.444 112.431 210.444 L 143.569 210.444 C 145.441 210.444 146.972 208.913 146.972 207.041 C 146.972 205.169 145.441 203.638 143.569 203.638 L 131.403 203.638 L 131.403 189.884 C 152.332 188.154 168.865 170.543 168.865 149.189 L 168.865 121.964 C 168.865 120.092 167.334 118.561 165.462 118.561 L 165.462 118.561 Z  M 114.388 104.949 C 116.267 104.949 117.791 106.472 117.791 108.352 C 117.791 110.231 116.267 111.755 114.388 111.755 C 112.508 111.755 110.985 110.231 110.985 108.352 C 110.985 106.472 112.508 104.949 114.388 104.949 Z  M 141.641 104.949 C 143.52 104.949 145.044 106.472 145.044 108.352 C 145.044 110.231 143.52 111.755 141.641 111.755 C 139.761 111.755 138.238 110.231 138.238 108.352 C 138.238 106.472 139.761 104.949 141.641 104.949 Z  M 134.806 98.142 C 136.686 98.142 138.209 99.666 138.209 101.545 C 138.209 103.425 136.686 104.949 134.806 104.949 C 132.927 104.949 131.403 103.425 131.403 101.545 C 131.403 99.666 132.927 98.142 134.806 98.142 Z  M 121.194 98.142 C 123.073 98.142 124.597 99.666 124.597 101.545 C 124.597 103.425 123.073 104.949 121.194 104.949 C 119.314 104.949 117.791 103.425 117.791 101.545 C 117.791 99.666 119.314 98.142 121.194 98.142 Z  M 134.806 84.53 C 136.686 84.53 138.209 86.054 138.209 87.933 C 138.209 89.813 136.686 91.336 134.806 91.336 C 132.927 91.336 131.403 89.813 131.403 87.933 C 131.403 86.054 132.927 84.53 134.806 84.53 Z  M 121.194 84.53 C 123.073 84.53 124.597 86.054 124.597 87.933 C 124.597 89.813 123.073 91.336 121.194 91.336 C 119.314 91.336 117.791 89.813 117.791 87.933 C 117.791 86.054 119.314 84.53 121.194 84.53 Z  M 128 104.949 C 129.879 104.949 131.403 106.472 131.403 108.352 C 131.403 110.231 129.879 111.755 128 111.755 C 126.121 111.755 124.597 110.231 124.597 108.352 C 124.597 106.472 126.121 104.949 128 104.949 Z  M 114.388 91.336 C 116.267 91.336 117.791 92.86 117.791 94.739 C 117.791 96.619 116.267 98.142 114.388 98.142 C 112.508 98.142 110.985 96.619 110.985 94.739 C 110.985 92.86 112.508 91.336 114.388 91.336 Z  M 141.641 91.336 C 143.52 91.336 145.044 92.86 145.044 94.739 C 145.044 96.619 143.52 98.142 141.641 98.142 C 139.761 98.142 138.238 96.619 138.238 94.739 C 138.238 92.86 139.761 91.336 141.641 91.336 Z  M 128 91.336 C 129.879 91.336 131.403 92.86 131.403 94.739 C 131.403 96.619 129.879 98.142 128 98.142 C 126.121 98.142 124.597 96.619 124.597 94.739 C 124.597 92.86 126.121 91.336 128 91.336 Z  M 155.253 94.739 C 155.253 79.709 143.03 67.515 128.028 67.515 C 113.026 67.515 100.804 79.737 100.804 94.739 L 100.804 149.189 C 100.804 164.219 112.998 176.413 128.028 176.413 C 143.059 176.413 155.253 164.219 155.253 149.189 L 155.253 94.739 L 155.253 94.739 Z  M 148.447 118.561 L 107.581 118.561 L 107.581 94.739 C 107.581 83.481 116.741 74.321 128 74.321 C 139.259 74.321 148.419 83.481 148.419 94.739 L 148.419 118.561 L 148.447 118.561 L 148.447 118.561 Z " vector-effect="non-scaling-stroke"/>
                <path fill="rgb(236,236,236)" d=" M 165.462 118.561 C 163.591 118.561 162.059 120.092 162.059 121.964 L 162.059 149.189 C 162.059 167.962 146.774 183.248 128 183.248 C 109.226 183.248 93.941 167.962 93.941 149.189 L 93.941 121.964 C 93.941 120.092 92.409 118.561 90.538 118.561 C 88.666 118.561 87.135 120.092 87.135 121.964 L 87.135 149.189 C 87.135 170.571 103.64 188.154 124.597 189.884 L 124.597 203.638 L 112.431 203.638 C 110.559 203.638 109.028 205.169 109.028 207.041 C 109.028 208.913 110.559 210.444 112.431 210.444 L 143.569 210.444 C 145.441 210.444 146.972 208.913 146.972 207.041 C 146.972 205.169 145.441 203.638 143.569 203.638 L 131.403 203.638 L 131.403 189.884 C 152.332 188.154 168.865 170.543 168.865 149.189 L 168.865 121.964 C 168.865 120.092 167.334 118.561 165.462 118.561 L 165.462 118.561 Z  M 114.388 104.949 C 116.267 104.949 117.791 106.472 117.791 108.352 C 117.791 110.231 116.267 111.755 114.388 111.755 C 112.508 111.755 110.985 110.231 110.985 108.352 C 110.985 106.472 112.508 104.949 114.388 104.949 Z  M 141.641 104.949 C 143.52 104.949 145.044 106.472 145.044 108.352 C 145.044 110.231 143.52 111.755 141.641 111.755 C 139.761 111.755 138.238 110.231 138.238 108.352 C 138.238 106.472 139.761 104.949 141.641 104.949 Z  M 134.806 98.142 C 136.686 98.142 138.209 99.666 138.209 101.545 C 138.209 103.425 136.686 104.949 134.806 104.949 C 132.927 104.949 131.403 103.425 131.403 101.545 C 131.403 99.666 132.927 98.142 134.806 98.142 Z  M 121.194 98.142 C 123.073 98.142 124.597 99.666 124.597 101.545 C 124.597 103.425 123.073 104.949 121.194 104.949 C 119.314 104.949 117.791 103.425 117.791 101.545 C 117.791 99.666 119.314 98.142 121.194 98.142 Z  M 134.806 84.53 C 136.686 84.53 138.209 86.054 138.209 87.933 C 138.209 89.813 136.686 91.336 134.806 91.336 C 132.927 91.336 131.403 89.813 131.403 87.933 C 131.403 86.054 132.927 84.53 134.806 84.53 Z  M 121.194 84.53 C 123.073 84.53 124.597 86.054 124.597 87.933 C 124.597 89.813 123.073 91.336 121.194 91.336 C 119.314 91.336 117.791 89.813 117.791 87.933 C 117.791 86.054 119.314 84.53 121.194 84.53 Z  M 128 104.949 C 129.879 104.949 131.403 106.472 131.403 108.352 C 131.403 110.231 129.879 111.755 128 111.755 C 126.121 111.755 124.597 110.231 124.597 108.352 C 124.597 106.472 126.121 104.949 128 104.949 Z  M 114.388 91.336 C 116.267 91.336 117.791 92.86 117.791 94.739 C 117.791 96.619 116.267 98.142 114.388 98.142 C 112.508 98.142 110.985 96.619 110.985 94.739 C 110.985 92.86 112.508 91.336 114.388 91.336 Z  M 141.641 91.336 C 143.52 91.336 145.044 92.86 145.044 94.739 C 145.044 96.619 143.52 98.142 141.641 98.142 C 139.761 98.142 138.238 96.619 138.238 94.739 C 138.238 92.86 139.761 91.336 141.641 91.336 Z  M 128 91.336 C 129.879 91.336 131.403 92.86 131.403 94.739 C 131.403 96.619 129.879 98.142 128 98.142 C 126.121 98.142 124.597 96.619 124.597 94.739 C 124.597 92.86 126.121 91.336 128 91.336 Z  M 155.253 94.739 C 155.253 79.709 143.03 67.515 128.028 67.515 C 113.026 67.515 100.804 79.737 100.804 94.739 L 100.804 149.189 C 100.804 164.219 112.998 176.413 128.028 176.413 C 143.059 176.413 155.253 164.219 155.253 149.189 L 155.253 94.739 L 155.253 94.739 Z  M 148.447 118.561 L 107.581 118.561 L 107.581 94.739 C 107.581 83.481 116.741 74.321 128 74.321 C 139.259 74.321 148.419 83.481 148.419 94.739 L 148.419 118.561 L 148.447 118.561 L 148.447 118.561 Z "/>
                <g opacity="0.1">
                    <path fill="rgb(0,0,0)" d=" M 0 159 L 206 0 L -1 0 L 0 159 Z "/>
                </g>
            </g>
            <g id="highlight">
                <clipPath id="_clipPath_xVGXXFB8ExF6HkvIKsqRKOYJeLj1EMx1">
                    <path fill="rgb(255,255,255)" d=" M 165.685 13.811 C 239.741 13.811 250.325 24.368 250.325 98.355 L 250.325 157.606 C 250.325 231.593 239.741 242.151 165.685 242.151 L 90.315 242.151 C 16.259 242.151 5.675 231.593 5.675 157.606 L 5.675 98.355 C 5.675 24.368 16.259 13.811 90.315 13.811 L 165.685 13.811 Z "/>
                </clipPath>
                <g clip-path="url(#_clipPath_xVGXXFB8ExF6HkvIKsqRKOYJeLj1EMx1)">
                    <g opacity="0.4">
                        <linearGradient id="_lgradient_50" x1="51.666666666666686%" x2="51.66666666666666%" y1="0%" y2="100.00000000000003%">
                            <stop offset="0%" stop-opacity="1" style="stop-color:rgb(255,255,255)"/>
                            <stop offset="12.5%" stop-opacity="0.09803922" style="stop-color:rgb(255,255,255)"/>
                            <stop offset="92.500001%" stop-opacity="0.09803922" style="stop-color:rgb(0,0,0)"/>
                            <stop offset="100%" stop-opacity="0.49803922" style="stop-color:rgb(0,0,0)"/>
                        </linearGradient>
                        <path fill="none" stroke="url(#_lgradient_50)" stroke-linecap="round" stroke-linejoin="round" stroke-miterlimit="4" stroke-width="4" d=" M 165.685 13.811 C 239.741 13.811 250.325 24.368 250.325 98.355 L 250.325 157.606 C 250.325 231.593 239.741 242.151 165.685 242.151 L 90.315 242.151 C 16.259 242.151 5.675 231.593 5.675 157.606 L 5.675 98.355 C 5.675 24.368 16.259 13.811 90.315 13.811 L 165.685 13.811 Z " vector-effect="non-scaling-stroke"/>
                    </g>
                </g>
            </g>
        </g>
    </g>
</svg>
