<?xml version="1.0" standalone="no"?><!-- Generator: Gravit.io --><svg xmlns="http://www.w3.org/2000/svg" xmlns:xlink="http://www.w3.org/1999/xlink" style="isolation:isolate" viewBox="0 0 256 256" width="256" height="256"><defs><clipPath id="_clipPath_01xxTcIxInS6uQI8nlxJAbAUMNDG2iPT"><rect width="256" height="256"/></clipPath></defs><g clip-path="url(#_clipPath_01xxTcIxInS6uQI8nlxJAbAUMNDG2iPT)"><rect width="256" height="256" style="fill:rgba(0,0,0,0)"/><g id="icon"><g id="drop shadow"><defs><filter id="saSSrKUAzqAnFj8G5DE0gIIQKHawKz9s" x="-200%" y="-200%" width="400%" height="400%"><feGaussianBlur xmlns="http://www.w3.org/2000/svg" stdDeviation="2.32"/></filter></defs><g opacity="0.2" filter="url(#saSSrKUAzqAnFj8G5DE0gIIQKHawKz9s)"><path d=" M 166.185 15.849 C 240.241 15.849 250.825 26.407 250.825 100.394 L 250.825 159.645 C 250.825 233.632 240.241 244.189 166.185 244.189 L 90.815 244.189 C 16.759 244.189 6.175 233.632 6.175 159.645 L 6.175 100.394 C 6.175 26.407 16.759 15.849 90.815 15.849 L 166.185 15.849 Z " fill="rgb(0,0,0)"/></g><defs><filter id="kxCBwV4wTRJ4mWZg0VoWgxsEHYlkagBC" x="-200%" y="-200%" width="400%" height="400%"><feGaussianBlur xmlns="http://www.w3.org/2000/svg" stdDeviation="1.16"/></filter></defs><g opacity="0.1" filter="url(#kxCBwV4wTRJ4mWZg0VoWgxsEHYlkagBC)"><path d=" M 166.185 14.83 C 240.241 14.83 250.825 25.387 250.825 99.374 L 250.825 158.626 C 250.825 232.612 240.241 243.17 166.185 243.17 L 90.815 243.17 C 16.759 243.17 6.175 232.612 6.175 158.626 L 6.175 99.374 C 6.175 25.387 16.759 14.83 90.815 14.83 L 166.185 14.83 Z " fill="rgb(0,0,0)"/></g></g><path d=" M 166.685 13.33 C 240.741 13.33 251.325 23.887 251.325 97.874 L 251.325 157.126 C 251.325 231.112 240.741 241.67 166.685 241.67 L 91.315 241.67 C 17.259 241.67 6.675 231.112 6.675 157.126 L 6.675 97.874 C 6.675 23.887 17.259 13.33 91.315 13.33 L 166.685 13.33 Z " fill="rgb(255,255,255)"/><clipPath id="_clipPath_msYBznvfMwlG1OPtaIIqakN5vRCD3Tog"><path d=" M 166.685 13.33 C 240.741 13.33 251.325 23.887 251.325 97.874 L 251.325 157.126 C 251.325 231.112 240.741 241.67 166.685 241.67 L 91.315 241.67 C 17.259 241.67 6.675 231.112 6.675 157.126 L 6.675 97.874 C 6.675 23.887 17.259 13.33 91.315 13.33 L 166.685 13.33 Z " fill="rgb(255,255,255)"/></clipPath><g clip-path="url(#_clipPath_msYBznvfMwlG1OPtaIIqakN5vRCD3Tog)"><path d=" M 166.685 13.33 C 240.741 13.33 251.325 23.887 251.325 97.874 L 251.325 157.126 C 251.325 231.112 240.741 241.67 166.685 241.67 L 91.315 241.67 C 17.259 241.67 6.675 231.112 6.675 157.126 L 6.675 97.874 C 6.675 23.887 17.259 13.33 91.315 13.33 L 166.685 13.33 Z " fill="rgb(143,118,228)"/><g id="Group"><g opacity="0.1"><rect x="88.225" y="13.331" width="81.549" height="228.338" transform="matrix(1,0,0,1,0,0)" fill="rgb(255,255,255)"/></g><g opacity="0.1"><path d=" M 6.676 127.5 L 6.676 157.125 C 6.676 231.112 17.26 241.669 91.315 241.669 L 166.685 241.669 C 240.74 241.669 251.324 231.112 251.324 157.125 L 251.324 127.5 L 6.676 127.5 Z " fill="rgb(255,255,255)"/></g></g><linearGradient id="_lgradient_65" x1="26.70141017780502%" y1="-0.3634930366996625%" x2="88.12803432994095%" y2="99.3235389031985%"><stop offset="0%" stop-opacity="0" style="stop-color:rgb(40,133,30)"/><stop offset="98.26086956521739%" stop-opacity="0.2" style="stop-color:rgb(255,255,255)"/></linearGradient><path d=" M 166.685 13.33 C 240.741 13.33 251.325 23.887 251.325 97.874 L 251.325 157.126 C 251.325 231.112 240.741 241.67 166.685 241.67 L 91.315 241.67 C 17.259 241.67 6.675 231.112 6.675 157.126 L 6.675 97.874 C 6.675 23.887 17.259 13.33 91.315 13.33 L 166.685 13.33 Z " fill="url(#_lgradient_65)"/><g id="Acetino2"><g id="g23"><g id="g25"><g id="g27"><g id="g29" style="opacity:0.1;"><g id="g31" style="opacity:0.1;"><g opacity="0.1"><path d=" M 128.407 57.736 C 112.102 57.736 98.891 70.947 98.891 87.252 C 98.891 88.497 98.998 89.725 99.145 90.929 C 95.267 96.608 92.988 103.468 92.988 110.864 C 92.988 111.041 93.006 111.218 93.012 111.395 C 84.777 112.771 77.51 116.968 72.245 122.983 C 60.645 124.483 51.667 134.27 51.667 146.283 C 51.667 158.278 60.651 168.083 72.257 169.582 C 73.29 170.763 74.399 171.866 75.58 172.905 C 75.462 173.868 75.279 174.806 75.279 175.798 C 75.279 188.826 85.84 199.41 98.891 199.41 C 111.919 199.41 122.504 188.826 122.504 175.798 C 122.504 174.8 122.321 173.856 122.203 172.894 C 124.564 170.822 126.659 168.46 128.407 165.839 C 130.154 168.466 132.244 170.833 134.611 172.905 C 134.493 173.868 134.31 174.806 134.31 175.798 C 134.31 188.826 144.87 199.41 157.922 199.41 C 170.95 199.41 181.534 188.826 181.534 175.798 C 181.534 174.8 181.351 173.856 181.233 172.894 C 182.408 171.861 183.512 170.763 184.545 169.582 C 196.139 168.083 205.147 158.278 205.147 146.283 C 205.147 134.27 196.144 124.483 184.557 122.983 C 179.291 116.968 172.036 112.777 163.802 111.395 C 163.802 111.218 163.825 111.041 163.825 110.864 C 163.825 103.473 161.547 96.608 157.668 90.929 C 157.816 89.725 157.922 88.497 157.922 87.252 C 157.922 70.947 144.711 57.736 128.407 57.736 L 128.407 57.736 Z " fill="rgb(0,0,0)"/></g></g></g></g></g></g><g id="g35"><g id="g37"><g id="g39"><path d=" M 122.504 169.895 C 122.504 182.923 111.919 193.507 98.891 193.507 C 85.84 193.507 75.279 182.923 75.279 169.895 C 75.279 156.843 85.84 146.283 98.891 146.283 C 111.919 146.283 122.504 156.843 122.504 169.895 Z " fill="rgb(204,204,204)"/><path d=" M 134.31 140.379 C 134.31 159.936 118.442 175.798 98.891 175.798 C 79.317 175.798 63.473 159.93 63.473 140.379 C 63.473 120.805 79.317 104.961 98.891 104.961 C 118.448 104.961 134.31 120.805 134.31 140.379 Z " fill="rgb(59,59,59)"/><path d=" M 134.31 169.895 C 134.31 182.923 144.87 193.507 157.922 193.507 C 170.95 193.507 181.534 182.923 181.534 169.895 C 181.534 156.843 170.95 146.283 157.922 146.283 C 144.87 146.283 134.31 156.843 134.31 169.895 Z " fill="rgb(204,204,204)"/><path d=" M 193.341 140.379 C 193.341 159.936 177.473 175.798 157.922 175.798 C 138.347 175.798 122.504 159.93 122.504 140.379 C 122.504 120.805 138.347 104.961 157.922 104.961 C 177.479 104.961 193.341 120.805 193.341 140.379 Z " fill="rgb(59,59,59)"/><path d=" M 163.825 104.961 C 163.825 124.518 147.958 140.379 128.407 140.379 C 108.85 140.379 92.988 124.512 92.988 104.961 C 92.988 85.404 108.856 69.543 128.407 69.543 C 147.964 69.543 163.825 85.41 163.825 104.961 Z " fill="rgb(77,77,77)"/><path d=" M 98.891 140.379 C 98.891 153.408 88.307 163.992 75.279 163.992 C 62.227 163.992 51.667 153.408 51.667 140.379 C 51.667 127.328 62.227 116.767 75.279 116.767 C 88.307 116.767 98.891 127.328 98.891 140.379 Z " fill="rgb(236,236,236)"/><path d=" M 157.922 140.379 C 157.922 153.408 168.483 163.992 181.534 163.992 C 194.562 163.992 205.147 153.408 205.147 140.379 C 205.147 127.328 194.562 116.767 181.534 116.767 C 168.483 116.767 157.922 127.328 157.922 140.379 Z " fill="rgb(236,236,236)"/><path d=" M 157.922 81.349 C 157.922 97.653 144.711 110.864 128.407 110.864 C 112.102 110.864 98.891 97.653 98.891 81.349 C 98.891 65.044 112.102 51.833 128.407 51.833 C 144.711 51.833 157.922 65.044 157.922 81.349 Z " fill="rgb(120,57,183)"/></g></g></g></g></g><g id="highlight"><clipPath id="_clipPath_qBV8R9Pq4O2jwIORBgLB69ZEBEiNZB3y"><path d=" M 166.185 13.811 C 240.241 13.811 250.825 24.368 250.825 98.355 L 250.825 157.606 C 250.825 231.593 240.241 242.151 166.185 242.151 L 90.815 242.151 C 16.759 242.151 6.175 231.593 6.175 157.606 L 6.175 98.355 C 6.175 24.368 16.759 13.811 90.815 13.811 L 166.185 13.811 Z " fill="rgb(255,255,255)"/></clipPath><g clip-path="url(#_clipPath_qBV8R9Pq4O2jwIORBgLB69ZEBEiNZB3y)"><g opacity="0.4"><linearGradient id="_lgradient_66" x1="51.666666666666686%" y1="0%" x2="51.66666666666666%" y2="100.00000000000003%"><stop offset="0%" stop-opacity="1" style="stop-color:rgb(255,255,255)"/><stop offset="12.5%" stop-opacity="0.09803922" style="stop-color:rgb(255,255,255)"/><stop offset="92.500001%" stop-opacity="0.09803922" style="stop-color:rgb(0,0,0)"/><stop offset="100%" stop-opacity="0.49803922" style="stop-color:rgb(0,0,0)"/></linearGradient><path d=" M 166.185 13.811 C 240.241 13.811 250.825 24.368 250.825 98.355 L 250.825 157.606 C 250.825 231.593 240.241 242.151 166.185 242.151 L 90.815 242.151 C 16.759 242.151 6.175 231.593 6.175 157.606 L 6.175 98.355 C 6.175 24.368 16.759 13.811 90.815 13.811 L 166.185 13.811 Z " fill="none" vector-effect="non-scaling-stroke" stroke-width="4" stroke="url(#_lgradient_66)" stroke-linejoin="round" stroke-linecap="round" stroke-miterlimit="4"/></g></g></g></g></g></svg>