<svg xmlns="http://www.w3.org/2000/svg" style="isolation:isolate" width="256" height="256"><switch><g><defs><filter id="a" width="270.648" height="254.338" x="-7.32" y="2.95" filterUnits="userSpaceOnUse"><feGaussianBlur xmlns="http://www.w3.org/2000/svg" in="SourceGraphic" stdDeviation="4.294"/><feOffset xmlns="http://www.w3.org/2000/svg" dy="4" result="pf_100_offsetBlur"/><feFlood xmlns="http://www.w3.org/2000/svg" flood-opacity=".4"/><feComposite xmlns="http://www.w3.org/2000/svg" in2="pf_100_offsetBlur" operator="in" result="pf_100_dropShadow"/><feBlend xmlns="http://www.w3.org/2000/svg" in="SourceGraphic" in2="pf_100_dropShadow"/></filter></defs><path fill="#EAB305" d="M165.685 11.947c74.055 0 84.639 10.557 84.639 84.544v59.251c0 73.986-10.584 84.543-84.639 84.543h-75.37c-74.055 0-84.639-10.557-84.639-84.543V96.491c0-73.987 10.584-84.544 84.639-84.544h75.37z" filter="url(#a)"/><path fill="#FFF" d="M87.22 11.83h81.549v228.338H87.22z" opacity=".1"/><path fill="#FFF" d="M5.676 126.116v29.626c0 73.986 10.584 84.543 84.639 84.543h75.37c74.055 0 84.639-10.557 84.639-84.543v-29.626H5.676z" opacity=".1"/><g opacity=".4"><linearGradient id="b" x1=".517" x2=".517" y2="1"><stop offset="0%" stop-color="#fff"/><stop offset="12.5%" stop-opacity=".098" stop-color="#fff"/><stop offset="92.5%" stop-opacity=".098"/><stop offset="100%" stop-opacity=".498"/></linearGradient><path fill="none" stroke="url(#b)" stroke-linecap="round" stroke-linejoin="round" stroke-width="4.077" d="M165.685 11.947c74.055 0 84.639 10.557 84.639 84.544v59.251c0 73.986-10.584 84.543-84.639 84.543h-75.37c-74.055 0-84.639-10.557-84.639-84.543V96.491c0-73.987 10.584-84.544 84.639-84.544h75.37z" vector-effect="non-scaling-stroke"/></g><path fill="#FFF4C9" fill-rule="evenodd" d="M73.332 169.06H55.5V86.94h57.249v16.893H73.332v14.43h24.753v16.893H73.332v33.904zm77.896 0h-15.016l-17.245-59.948h16.776l6.217 24.636q.235.939.822 4.224.586 3.284.938 4.575.235-.821.939-4.223.703-3.402 1.055-4.576l6.335-24.636H167.3l6.218 24.636q.234.939.938 4.224.704 3.284 1.056 4.575.235-1.056.763-4.399.528-3.344.88-4.4l6.569-24.636H200.5l-17.362 59.948h-15.017l-6.335-27.217q0-.352-.879-4.106-.88-3.754-1.115-5.631-.235 1.408-.704 3.461t-.938 3.93l-.587 2.346-6.335 27.217z"/></g></switch> </svg>