<?xml version="1.0" standalone="no"?><!-- Generator: Gravit.io --><svg xmlns="http://www.w3.org/2000/svg" xmlns:xlink="http://www.w3.org/1999/xlink" style="isolation:isolate" viewBox="0 0 256 256" width="256" height="256"><defs><clipPath id="_clipPath_npvHJjXrG5yB6tVGsfMDDV7pJeazYlAU"><rect width="256" height="256"/></clipPath></defs><g clip-path="url(#_clipPath_npvHJjXrG5yB6tVGsfMDDV7pJeazYlAU)"><rect width="256" height="256" style="fill:rgba(0,0,0,0)"/><g id="icon"><g id="drop shadow"><defs><filter id="hsFab3ESk2PUCdxIfQZ48zs2c0IdZh1a" x="-200%" y="-200%" width="400%" height="400%"><feGaussianBlur xmlns="http://www.w3.org/2000/svg" stdDeviation="2.32"/></filter></defs><g opacity="0.2" filter="url(#hsFab3ESk2PUCdxIfQZ48zs2c0IdZh1a)"><path d=" M 166.185 15.849 C 240.241 15.849 250.825 26.407 250.825 100.394 L 250.825 159.645 C 250.825 233.632 240.241 244.189 166.185 244.189 L 90.815 244.189 C 16.759 244.189 6.175 233.632 6.175 159.645 L 6.175 100.394 C 6.175 26.407 16.759 15.849 90.815 15.849 L 166.185 15.849 Z " fill="rgb(0,0,0)"/></g><defs><filter id="zWo2gB3KVUtZYF2TFm2fQSC4WZBSvzW6" x="-200%" y="-200%" width="400%" height="400%"><feGaussianBlur xmlns="http://www.w3.org/2000/svg" stdDeviation="1.16"/></filter></defs><g opacity="0.1" filter="url(#zWo2gB3KVUtZYF2TFm2fQSC4WZBSvzW6)"><path d=" M 166.185 14.83 C 240.241 14.83 250.825 25.387 250.825 99.374 L 250.825 158.626 C 250.825 232.612 240.241 243.17 166.185 243.17 L 90.815 243.17 C 16.759 243.17 6.175 232.612 6.175 158.626 L 6.175 99.374 C 6.175 25.387 16.759 14.83 90.815 14.83 L 166.185 14.83 Z " fill="rgb(0,0,0)"/></g></g><path d=" M 166.685 13.33 C 240.741 13.33 251.325 23.887 251.325 97.874 L 251.325 157.126 C 251.325 231.112 240.741 241.67 166.685 241.67 L 91.315 241.67 C 17.259 241.67 6.675 231.112 6.675 157.126 L 6.675 97.874 C 6.675 23.887 17.259 13.33 91.315 13.33 L 166.685 13.33 Z " fill="rgb(255,255,255)"/><clipPath id="_clipPath_yFVgVkEYMtzwSkk3hVWMSHdbf7jXBV2X"><path d=" M 166.685 13.33 C 240.741 13.33 251.325 23.887 251.325 97.874 L 251.325 157.126 C 251.325 231.112 240.741 241.67 166.685 241.67 L 91.315 241.67 C 17.259 241.67 6.675 231.112 6.675 157.126 L 6.675 97.874 C 6.675 23.887 17.259 13.33 91.315 13.33 L 166.685 13.33 Z " fill="rgb(255,255,255)"/></clipPath><g clip-path="url(#_clipPath_yFVgVkEYMtzwSkk3hVWMSHdbf7jXBV2X)"><path d=" M 167.185 13.33 C 241.241 13.33 251.825 23.887 251.825 97.874 L 251.825 157.126 C 251.825 231.112 241.241 241.67 167.185 241.67 L 91.815 241.67 C 17.759 241.67 7.175 231.112 7.175 157.126 L 7.175 97.874 C 7.175 23.887 17.759 13.33 91.815 13.33 L 167.185 13.33 Z " fill="rgb(35,77,184)"/><g id="En" filter="url(#LJ36EnB2VkBoJRqK3B2ZtACsuiiTR4vL)"><path d=" M 65.246 80.5 L 65.246 174.5 L 122.022 174.5 L 122.022 160.4 L 82.417 160.4 L 82.417 132.789 L 117.836 132.789 L 117.836 118.858 L 82.417 118.858 L 82.417 94.575 L 119.916 94.575 L 119.916 80.5" fill="rgb(162,188,254)"/><path d=" M 150.799 116.753 L 150.404 116.753 L 149.646 106.569 L 135.815 106.569 C 136.21 112.422 136.329 118.977 136.329 126.792 L 136.329 174.5 L 152.19 174.5 L 152.19 134.6 C 152.19 132.664 152.315 130.558 152.829 129.042 C 154.496 123.878 158.851 118.984 165.118 118.984 C 173.684 118.984 177.012 126.378 177.012 136.142 L 177.012 174.5 L 192.754 174.5 L 192.754 134.18 C 192.754 112.711 181.493 105.053 170.626 105.053 C 160.274 105.053 153.468 111.464 150.799 116.753 Z " fill="rgb(162,188,254)"/></g><defs><filter id="LJ36EnB2VkBoJRqK3B2ZtACsuiiTR4vL" x="-200%" y="-200%" width="400%" height="400%"><feOffset xmlns="http://www.w3.org/2000/svg" in="SourceAlpha" result="offOut" dx="0" dy="2"/><feGaussianBlur xmlns="http://www.w3.org/2000/svg" in="offOut" result="blurOut" stdDeviation="5"/><feComponentTransfer xmlns="http://www.w3.org/2000/svg" in="blurOut" result="opacOut"><feFuncA xmlns="http://www.w3.org/2000/svg" type="table" tableValues="0 0.5"/></feComponentTransfer><feBlend xmlns="http://www.w3.org/2000/svg" in="SourceGraphic" in2="opacOut" mode="normal"/></filter></defs></g><g id="highlight"><clipPath id="_clipPath_987VwFqDGK6hVHUPhz0WSPuAJCT8Hxls"><path d=" M 166.185 13.811 C 240.241 13.811 250.825 24.368 250.825 98.355 L 250.825 157.606 C 250.825 231.593 240.241 242.151 166.185 242.151 L 90.815 242.151 C 16.759 242.151 6.175 231.593 6.175 157.606 L 6.175 98.355 C 6.175 24.368 16.759 13.811 90.815 13.811 L 166.185 13.811 Z " fill="rgb(255,255,255)"/></clipPath><g clip-path="url(#_clipPath_987VwFqDGK6hVHUPhz0WSPuAJCT8Hxls)"><g opacity="0.4"><linearGradient id="_lgradient_92" x1="51.666666666666686%" y1="0%" x2="51.66666666666666%" y2="100.00000000000003%"><stop offset="0%" stop-opacity="1" style="stop-color:rgb(255,255,255)"/><stop offset="12.5%" stop-opacity="0.09803922" style="stop-color:rgb(255,255,255)"/><stop offset="92.500001%" stop-opacity="0.09803922" style="stop-color:rgb(0,0,0)"/><stop offset="100%" stop-opacity="0.49803922" style="stop-color:rgb(0,0,0)"/></linearGradient><path d=" M 166.185 13.811 C 240.241 13.811 250.825 24.368 250.825 98.355 L 250.825 157.606 C 250.825 231.593 240.241 242.151 166.185 242.151 L 90.815 242.151 C 16.759 242.151 6.175 231.593 6.175 157.606 L 6.175 98.355 C 6.175 24.368 16.759 13.811 90.815 13.811 L 166.185 13.811 Z " fill="none" vector-effect="non-scaling-stroke" stroke-width="4" stroke="url(#_lgradient_92)" stroke-linejoin="round" stroke-linecap="round" stroke-miterlimit="4"/></g></g></g></g></g></svg>