<?xml version="1.0" standalone="no"?><!-- Generator: Gravit.io --><svg xmlns="http://www.w3.org/2000/svg" xmlns:xlink="http://www.w3.org/1999/xlink" style="isolation:isolate" viewBox="0 0 256 256" width="256" height="256"><defs><clipPath id="_clipPath_HCcxsiUSUV1qdyyb3SP07C6wOH6CFds0"><rect width="256" height="256"/></clipPath></defs><g clip-path="url(#_clipPath_HCcxsiUSUV1qdyyb3SP07C6wOH6CFds0)"><rect width="256" height="256" style="fill:rgba(0,0,0,0)"/><g id="icon"><g id="drop shadow"><defs><filter id="FAKJD48OPYpK9TnFoxsaYcIpEaXvUKBV" x="-200%" y="-200%" width="400%" height="400%"><feGaussianBlur xmlns="http://www.w3.org/2000/svg" stdDeviation="2.32"/></filter></defs><g opacity="0.2" filter="url(#FAKJD48OPYpK9TnFoxsaYcIpEaXvUKBV)"><path d=" M 166.185 15.849 C 240.241 15.849 250.825 26.407 250.825 100.394 L 250.825 159.645 C 250.825 233.632 240.241 244.189 166.185 244.189 L 90.815 244.189 C 16.759 244.189 6.175 233.632 6.175 159.645 L 6.175 100.394 C 6.175 26.407 16.759 15.849 90.815 15.849 L 166.185 15.849 Z " fill="rgb(0,0,0)"/></g><defs><filter id="DR4ztg8AEH56ok3Mkdi0cg6AqFQBSRGr" x="-200%" y="-200%" width="400%" height="400%"><feGaussianBlur xmlns="http://www.w3.org/2000/svg" stdDeviation="1.16"/></filter></defs><g opacity="0.1" filter="url(#DR4ztg8AEH56ok3Mkdi0cg6AqFQBSRGr)"><path d=" M 166.185 14.83 C 240.241 14.83 250.825 25.387 250.825 99.374 L 250.825 158.626 C 250.825 232.612 240.241 243.17 166.185 243.17 L 90.815 243.17 C 16.759 243.17 6.175 232.612 6.175 158.626 L 6.175 99.374 C 6.175 25.387 16.759 14.83 90.815 14.83 L 166.185 14.83 Z " fill="rgb(0,0,0)"/></g></g><path d=" M 166.685 13.33 C 240.741 13.33 251.325 23.887 251.325 97.874 L 251.325 157.126 C 251.325 231.112 240.741 241.67 166.685 241.67 L 91.315 241.67 C 17.259 241.67 6.675 231.112 6.675 157.126 L 6.675 97.874 C 6.675 23.887 17.259 13.33 91.315 13.33 L 166.685 13.33 Z " fill="rgb(255,255,255)"/><clipPath id="_clipPath_Pdd39afkOnryAT2BPuDlJRN2VtHfjZ4H"><path d=" M 166.685 13.33 C 240.741 13.33 251.325 23.887 251.325 97.874 L 251.325 157.126 C 251.325 231.112 240.741 241.67 166.685 241.67 L 91.315 241.67 C 17.259 241.67 6.675 231.112 6.675 157.126 L 6.675 97.874 C 6.675 23.887 17.259 13.33 91.315 13.33 L 166.685 13.33 Z " fill="rgb(255,255,255)"/></clipPath><g clip-path="url(#_clipPath_Pdd39afkOnryAT2BPuDlJRN2VtHfjZ4H)"><path d=" M 167.185 13.33 C 241.241 13.33 251.825 23.887 251.825 97.874 L 251.825 157.126 C 251.825 231.112 241.241 241.67 167.185 241.67 L 91.815 241.67 C 17.759 241.67 7.175 231.112 7.175 157.126 L 7.175 97.874 C 7.175 23.887 17.759 13.33 91.815 13.33 L 167.185 13.33 Z " fill="rgb(243,79,23)"/><g id="AI" filter="url(#2qjmQp0L26EU3JcBAgfgbSaNMh9TJ9oz)"><path d=" M 105.901 82.681 L 76.479 174.5 L 93.788 174.5 L 101.696 148.481 L 130.849 148.481 L 139.146 174.5 L 157.137 174.5 L 127.295 82.681 M 111.485 113.206 C 113.127 107.747 114.493 101.33 115.865 96.023 L 116.135 96.023 C 117.482 101.337 118.998 107.603 120.759 113.206 L 127.979 135.797 L 104.403 135.797 L 111.478 113.181" fill="rgb(254,197,137)"/><path d=" M 162.721 89.631 C 162.721 94.675 166.393 98.617 171.977 98.617 C 177.83 98.617 181.521 94.675 181.521 89.631 C 181.377 84.442 177.824 80.5 172.121 80.5 C 166.537 80.5 162.721 84.442 162.721 89.631 Z  M 163.673 174.5 L 180.562 174.5 L 180.562 108.161 L 163.673 108.161" fill="rgb(254,197,137)"/></g><defs><filter id="2qjmQp0L26EU3JcBAgfgbSaNMh9TJ9oz" x="-200%" y="-200%" width="400%" height="400%"><feOffset xmlns="http://www.w3.org/2000/svg" in="SourceAlpha" result="offOut" dx="0" dy="2"/><feGaussianBlur xmlns="http://www.w3.org/2000/svg" in="offOut" result="blurOut" stdDeviation="5"/><feComponentTransfer xmlns="http://www.w3.org/2000/svg" in="blurOut" result="opacOut"><feFuncA xmlns="http://www.w3.org/2000/svg" type="table" tableValues="0 0.5"/></feComponentTransfer><feBlend xmlns="http://www.w3.org/2000/svg" in="SourceGraphic" in2="opacOut" mode="normal"/></filter></defs></g><g id="highlight"><clipPath id="_clipPath_LFTUxH1dyW6Z39Muxf9zYZClO9pO3h9R"><path d=" M 166.185 13.811 C 240.241 13.811 250.825 24.368 250.825 98.355 L 250.825 157.606 C 250.825 231.593 240.241 242.151 166.185 242.151 L 90.815 242.151 C 16.759 242.151 6.175 231.593 6.175 157.606 L 6.175 98.355 C 6.175 24.368 16.759 13.811 90.815 13.811 L 166.185 13.811 Z " fill="rgb(255,255,255)"/></clipPath><g clip-path="url(#_clipPath_LFTUxH1dyW6Z39Muxf9zYZClO9pO3h9R)"><g opacity="0.4"><linearGradient id="_lgradient_96" x1="51.666666666666686%" y1="0%" x2="51.66666666666666%" y2="100.00000000000003%"><stop offset="0%" stop-opacity="1" style="stop-color:rgb(255,255,255)"/><stop offset="12.5%" stop-opacity="0.09803922" style="stop-color:rgb(255,255,255)"/><stop offset="92.500001%" stop-opacity="0.09803922" style="stop-color:rgb(0,0,0)"/><stop offset="100%" stop-opacity="0.49803922" style="stop-color:rgb(0,0,0)"/></linearGradient><path d=" M 166.185 13.811 C 240.241 13.811 250.825 24.368 250.825 98.355 L 250.825 157.606 C 250.825 231.593 240.241 242.151 166.185 242.151 L 90.815 242.151 C 16.759 242.151 6.175 231.593 6.175 157.606 L 6.175 98.355 C 6.175 24.368 16.759 13.811 90.815 13.811 L 166.185 13.811 Z " fill="none" vector-effect="non-scaling-stroke" stroke-width="4" stroke="url(#_lgradient_96)" stroke-linejoin="round" stroke-linecap="round" stroke-miterlimit="4"/></g></g></g></g></g></svg>