<?xml version="1.0" standalone="no"?><!-- Generator: Gravit.io --><svg xmlns="http://www.w3.org/2000/svg" xmlns:xlink="http://www.w3.org/1999/xlink" style="isolation:isolate" viewBox="0 0 256 256" width="256" height="256"><defs><clipPath id="_clipPath_m0CgWyBz39DtRip8z0c61L5gvg6woMgl"><rect width="256" height="256"/></clipPath></defs><g clip-path="url(#_clipPath_m0CgWyBz39DtRip8z0c61L5gvg6woMgl)"><rect width="256" height="256" style="fill:rgba(0,0,0,0)"/><g id="icon"><g id="drop shadow"><defs><filter id="BRVKZP7ICAN3H14Lh3TefMF9ogY8OPeq" x="-200%" y="-200%" width="400%" height="400%"><feGaussianBlur xmlns="http://www.w3.org/2000/svg" stdDeviation="2.32"/></filter></defs><g opacity="0.2" filter="url(#BRVKZP7ICAN3H14Lh3TefMF9ogY8OPeq)"><path d=" M 166.185 15.849 C 240.241 15.849 250.825 26.407 250.825 100.394 L 250.825 159.645 C 250.825 233.632 240.241 244.189 166.185 244.189 L 90.815 244.189 C 16.759 244.189 6.175 233.632 6.175 159.645 L 6.175 100.394 C 6.175 26.407 16.759 15.849 90.815 15.849 L 166.185 15.849 Z " fill="rgb(0,0,0)"/></g><defs><filter id="be6vKCWwdt3PBR5SHA4f86hQlJIi6jZN" x="-200%" y="-200%" width="400%" height="400%"><feGaussianBlur xmlns="http://www.w3.org/2000/svg" stdDeviation="1.16"/></filter></defs><g opacity="0.1" filter="url(#be6vKCWwdt3PBR5SHA4f86hQlJIi6jZN)"><path d=" M 166.185 14.83 C 240.241 14.83 250.825 25.387 250.825 99.374 L 250.825 158.626 C 250.825 232.612 240.241 243.17 166.185 243.17 L 90.815 243.17 C 16.759 243.17 6.175 232.612 6.175 158.626 L 6.175 99.374 C 6.175 25.387 16.759 14.83 90.815 14.83 L 166.185 14.83 Z " fill="rgb(0,0,0)"/></g></g><path d=" M 166.685 13.33 C 240.741 13.33 251.325 23.887 251.325 97.874 L 251.325 157.126 C 251.325 231.112 240.741 241.67 166.685 241.67 L 91.315 241.67 C 17.259 241.67 6.675 231.112 6.675 157.126 L 6.675 97.874 C 6.675 23.887 17.259 13.33 91.315 13.33 L 166.685 13.33 Z " fill="rgb(255,255,255)"/><clipPath id="_clipPath_GwGlXi454IMffHr0DhPchl4k8CyYroSk"><path d=" M 166.685 13.33 C 240.741 13.33 251.325 23.887 251.325 97.874 L 251.325 157.126 C 251.325 231.112 240.741 241.67 166.685 241.67 L 91.315 241.67 C 17.259 241.67 6.675 231.112 6.675 157.126 L 6.675 97.874 C 6.675 23.887 17.259 13.33 91.315 13.33 L 166.685 13.33 Z " fill="rgb(255,255,255)"/></clipPath><g clip-path="url(#_clipPath_GwGlXi454IMffHr0DhPchl4k8CyYroSk)"><path d=" M 167.185 13.33 C 241.241 13.33 251.825 23.887 251.825 97.874 L 251.825 157.126 C 251.825 231.112 241.241 241.67 167.185 241.67 L 91.815 241.67 C 17.759 241.67 7.175 231.112 7.175 157.126 L 7.175 97.874 C 7.175 23.887 17.759 13.33 91.815 13.33 L 167.185 13.33 Z " fill="rgb(40,133,30)"/><g id="Dw" filter="url(#6fm5k0gKQMi62YHikz4x78wGT7taZurs)"><path d=" M 49.027 82.424 L 49.027 173.278 C 53.972 173.961 60.678 174.5 69.615 174.5 C 85.873 174.5 99.142 170.263 107.471 161.902 C 115.431 153.968 120.52 141.633 120.52 125.181 C 120.52 109.412 115.55 98.469 107.471 91.199 C 99.781 84.072 88.988 80.5 73.37 80.5 C 64.313 80.5 55.739 81.183 49.058 82.437 M 72.73 161.1 C 69.647 161.1 66.4 161.1 64.307 160.705 L 64.307 94.652 C 66.413 94.088 69.891 93.699 74.736 93.699 C 93.833 93.699 104.507 105.326 104.362 125.745 C 104.362 149.054 92.736 161.144 73.075 161.144 L 72.73 161.144" fill="rgb(166,215,79)"/><path d=" M 194.433 106.811 L 187.946 136.437 C 186.379 144.247 185.057 151.492 184.079 158.769 L 183.859 158.769 C 182.537 151.498 180.97 144.253 179.159 136.437 L 171.838 106.811 L 159.817 106.811 L 152.227 137.24 C 150.56 144.096 148.63 151.486 147.426 158.762 L 147.182 158.762 C 146.104 151.492 144.782 144.247 143.459 137.121 L 137.336 106.811 L 122.181 106.811 L 139.492 173.572 L 153.299 173.572 L 160.764 146.422 C 162.456 139.86 163.998 133.272 165.195 125.049 L 165.439 125.049 C 166.762 133.128 168.109 139.446 169.895 146.422 L 176.871 173.572 L 190.584 173.572 L 208.973 106.811" fill="rgb(166,215,79)"/></g><defs><filter id="6fm5k0gKQMi62YHikz4x78wGT7taZurs" x="-200%" y="-200%" width="400%" height="400%"><feOffset xmlns="http://www.w3.org/2000/svg" in="SourceAlpha" result="offOut" dx="0" dy="2"/><feGaussianBlur xmlns="http://www.w3.org/2000/svg" in="offOut" result="blurOut" stdDeviation="5"/><feComponentTransfer xmlns="http://www.w3.org/2000/svg" in="blurOut" result="opacOut"><feFuncA xmlns="http://www.w3.org/2000/svg" type="table" tableValues="0 0.5"/></feComponentTransfer><feBlend xmlns="http://www.w3.org/2000/svg" in="SourceGraphic" in2="opacOut" mode="normal"/></filter></defs></g><g id="highlight"><clipPath id="_clipPath_W0YdmdWZwyNTXOpdZOBwxkPA4m7N050e"><path d=" M 166.185 13.811 C 240.241 13.811 250.825 24.368 250.825 98.355 L 250.825 157.606 C 250.825 231.593 240.241 242.151 166.185 242.151 L 90.815 242.151 C 16.759 242.151 6.175 231.593 6.175 157.606 L 6.175 98.355 C 6.175 24.368 16.759 13.811 90.815 13.811 L 166.185 13.811 Z " fill="rgb(255,255,255)"/></clipPath><g clip-path="url(#_clipPath_W0YdmdWZwyNTXOpdZOBwxkPA4m7N050e)"><g opacity="0.4"><linearGradient id="_lgradient_88" x1="51.666666666666686%" y1="0%" x2="51.66666666666666%" y2="100.00000000000003%"><stop offset="0%" stop-opacity="1" style="stop-color:rgb(255,255,255)"/><stop offset="12.5%" stop-opacity="0.09803922" style="stop-color:rgb(255,255,255)"/><stop offset="92.500001%" stop-opacity="0.09803922" style="stop-color:rgb(0,0,0)"/><stop offset="100%" stop-opacity="0.49803922" style="stop-color:rgb(0,0,0)"/></linearGradient><path d=" M 166.185 13.811 C 240.241 13.811 250.825 24.368 250.825 98.355 L 250.825 157.606 C 250.825 231.593 240.241 242.151 166.185 242.151 L 90.815 242.151 C 16.759 242.151 6.175 231.593 6.175 157.606 L 6.175 98.355 C 6.175 24.368 16.759 13.811 90.815 13.811 L 166.185 13.811 Z " fill="none" vector-effect="non-scaling-stroke" stroke-width="4" stroke="url(#_lgradient_88)" stroke-linejoin="round" stroke-linecap="round" stroke-miterlimit="4"/></g></g></g></g></g></svg>