<?xml version="1.0" standalone="no"?><!-- Generator: Gravit.io --><svg xmlns="http://www.w3.org/2000/svg" xmlns:xlink="http://www.w3.org/1999/xlink" style="isolation:isolate" viewBox="0 0 256 256" width="256" height="256"><defs><clipPath id="_clipPath_6G7wwt5l00sXNObL846n87DOG0Jugqmb"><rect width="256" height="256"/></clipPath></defs><g clip-path="url(#_clipPath_6G7wwt5l00sXNObL846n87DOG0Jugqmb)"><rect width="256" height="256" style="fill:rgba(0,0,0,0)"/><g id="icon"><g id="drop shadow"><defs><filter id="PIeUPLvk2Gcw7cGRmd97iuSlz32i2Y9Y" x="-200%" y="-200%" width="400%" height="400%"><feGaussianBlur xmlns="http://www.w3.org/2000/svg" stdDeviation="2.32"/></filter></defs><g opacity="0.2" filter="url(#PIeUPLvk2Gcw7cGRmd97iuSlz32i2Y9Y)"><path d=" M 166.185 15.849 C 240.241 15.849 250.825 26.407 250.825 100.394 L 250.825 159.645 C 250.825 233.632 240.241 244.189 166.185 244.189 L 90.815 244.189 C 16.759 244.189 6.175 233.632 6.175 159.645 L 6.175 100.394 C 6.175 26.407 16.759 15.849 90.815 15.849 L 166.185 15.849 Z " fill="rgb(0,0,0)"/></g><defs><filter id="Vzqjh3lc65DZeA3EdyuVB0DOeNv0EsjG" x="-200%" y="-200%" width="400%" height="400%"><feGaussianBlur xmlns="http://www.w3.org/2000/svg" stdDeviation="1.16"/></filter></defs><g opacity="0.1" filter="url(#Vzqjh3lc65DZeA3EdyuVB0DOeNv0EsjG)"><path d=" M 166.185 14.83 C 240.241 14.83 250.825 25.387 250.825 99.374 L 250.825 158.626 C 250.825 232.612 240.241 243.17 166.185 243.17 L 90.815 243.17 C 16.759 243.17 6.175 232.612 6.175 158.626 L 6.175 99.374 C 6.175 25.387 16.759 14.83 90.815 14.83 L 166.185 14.83 Z " fill="rgb(0,0,0)"/></g></g><path d=" M 166.685 13.33 C 240.741 13.33 251.325 23.887 251.325 97.874 L 251.325 157.126 C 251.325 231.112 240.741 241.67 166.685 241.67 L 91.315 241.67 C 17.259 241.67 6.675 231.112 6.675 157.126 L 6.675 97.874 C 6.675 23.887 17.259 13.33 91.315 13.33 L 166.685 13.33 Z " fill="rgb(255,255,255)"/><clipPath id="_clipPath_jA9b5g7RTUNPhQV6U5F7wDYgfjMAo3TI"><path d=" M 166.685 13.33 C 240.741 13.33 251.325 23.887 251.325 97.874 L 251.325 157.126 C 251.325 231.112 240.741 241.67 166.685 241.67 L 91.315 241.67 C 17.259 241.67 6.675 231.112 6.675 157.126 L 6.675 97.874 C 6.675 23.887 17.259 13.33 91.315 13.33 L 166.685 13.33 Z " fill="rgb(255,255,255)"/></clipPath><g clip-path="url(#_clipPath_jA9b5g7RTUNPhQV6U5F7wDYgfjMAo3TI)"><path d=" M 167.185 13.33 C 241.241 13.33 251.825 23.887 251.825 97.874 L 251.825 157.126 C 251.825 231.112 241.241 241.67 167.185 241.67 L 91.815 241.67 C 17.759 241.67 7.175 231.112 7.175 157.126 L 7.175 97.874 C 7.175 23.887 17.759 13.33 91.815 13.33 L 167.185 13.33 Z " fill="rgb(120,57,183)"/><g id="Group"><g opacity="0.1"><path d=" M 136.45 67.367 L 133.967 69.85 L 133.967 72.334 L 136.45 73.575 L 133.967 82.267 L 138.933 87.234 L 142.231 87.234 L 146.383 89.717 L 143.9 97.167 L 133.967 112.067 L 118.727 119.468 C 117.799 117.961 116.114 117.034 114.294 117.033 C 111.444 117.032 109.133 119.257 109.133 122 C 109.133 124.743 111.443 126.967 114.294 126.967 C 117.144 126.967 119.455 124.743 119.455 122 L 136.45 114.55 L 143.9 107.1 L 143.9 122 L 138.128 126.967 L 106.155 154.283 L 95.227 186.567 L 89.267 186.567 L 79.333 181.6 L 79.333 186.567 L 89.267 196.5 L 96.717 196.5 L 111.617 156.767 L 129 146.833 L 119.067 171.667 L 149.86 186.567 L 138.933 194.017 L 138.933 196.5 L 158.8 196.5 L 158.8 191.533 L 156.317 184.083 L 126.517 169.183 L 158.8 131.933 L 158.8 107.1 L 163.767 112.067 L 170.848 132.835 C 169.523 133.765 168.734 135.281 168.733 136.9 C 168.733 139.643 170.957 141.867 173.7 141.867 C 176.443 141.867 178.667 139.643 178.667 136.9 C 178.667 134.157 176.443 131.933 173.7 131.933 L 168.733 109.583 L 158.8 97.167 L 153.833 88.096 L 148.867 82.267 L 148.867 72.333 L 144.395 67.367 L 136.45 67.367 Z " fill="rgb(0,0,0)"/></g><path d=" M 136.45 62.4 L 133.967 64.884 L 133.967 67.367 L 136.45 68.609 L 133.967 77.3 L 138.933 82.267 L 142.231 82.267 L 146.383 84.75 L 143.9 92.2 L 133.967 107.1 L 118.727 114.502 C 117.799 112.994 116.114 112.068 114.294 112.067 C 111.444 112.065 109.133 114.29 109.133 117.033 C 109.133 119.776 111.443 122 114.294 122 C 117.144 122 119.455 119.776 119.455 117.033 L 136.45 109.583 L 143.9 102.133 L 143.9 117.033 L 138.128 122 L 106.155 149.317 L 95.227 181.6 L 89.267 181.6 L 79.333 176.633 L 79.333 181.6 L 89.267 191.533 L 96.717 191.533 L 111.617 151.8 L 129 141.867 L 119.067 166.7 L 149.86 181.6 L 138.933 189.05 L 138.933 191.533 L 158.8 191.533 L 158.8 186.567 L 156.317 179.117 L 126.517 164.217 L 158.8 126.967 L 158.8 102.133 L 163.767 107.1 L 170.848 127.869 C 169.523 128.798 168.734 130.315 168.733 131.933 C 168.733 134.676 170.957 136.9 173.7 136.9 C 176.443 136.9 178.667 134.676 178.667 131.933 C 178.667 129.19 176.443 126.967 173.7 126.967 L 168.733 104.617 L 158.8 92.2 L 153.833 83.13 L 148.867 77.3 L 148.867 67.367 L 144.395 62.4 L 136.45 62.4 Z " fill="rgb(249,249,249)"/></g></g><g id="highlight"><clipPath id="_clipPath_u3uZZhZDd7vtwKShyDVPPPNBzs2oPbv1"><path d=" M 166.185 13.811 C 240.241 13.811 250.825 24.368 250.825 98.355 L 250.825 157.606 C 250.825 231.593 240.241 242.151 166.185 242.151 L 90.815 242.151 C 16.759 242.151 6.175 231.593 6.175 157.606 L 6.175 98.355 C 6.175 24.368 16.759 13.811 90.815 13.811 L 166.185 13.811 Z " fill="rgb(255,255,255)"/></clipPath><g clip-path="url(#_clipPath_u3uZZhZDd7vtwKShyDVPPPNBzs2oPbv1)"><g opacity="0.4"><linearGradient id="_lgradient_108" x1="51.666666666666686%" y1="0%" x2="51.66666666666666%" y2="100.00000000000003%"><stop offset="0%" stop-opacity="1" style="stop-color:rgb(255,255,255)"/><stop offset="12.5%" stop-opacity="0.09803922" style="stop-color:rgb(255,255,255)"/><stop offset="92.500001%" stop-opacity="0.09803922" style="stop-color:rgb(0,0,0)"/><stop offset="100%" stop-opacity="0.49803922" style="stop-color:rgb(0,0,0)"/></linearGradient><path d=" M 166.185 13.811 C 240.241 13.811 250.825 24.368 250.825 98.355 L 250.825 157.606 C 250.825 231.593 240.241 242.151 166.185 242.151 L 90.815 242.151 C 16.759 242.151 6.175 231.593 6.175 157.606 L 6.175 98.355 C 6.175 24.368 16.759 13.811 90.815 13.811 L 166.185 13.811 Z " fill="none" vector-effect="non-scaling-stroke" stroke-width="4" stroke="url(#_lgradient_108)" stroke-linejoin="round" stroke-linecap="round" stroke-miterlimit="4"/></g></g></g></g></g></svg>