<svg xmlns="http://www.w3.org/2000/svg" style="isolation:isolate" width="256" height="256"><defs><filter id="a" width="270.648" height="254.338" x="-7.32" y="2.95" filterUnits="userSpaceOnUse"><feGaussianBlur xmlns="http://www.w3.org/2000/svg" in="SourceGraphic" stdDeviation="4.294"/><feOffset xmlns="http://www.w3.org/2000/svg" dy="4" result="pf_100_offsetBlur"/><feFlood xmlns="http://www.w3.org/2000/svg" flood-opacity=".4"/><feComposite xmlns="http://www.w3.org/2000/svg" in2="pf_100_offsetBlur" operator="in" result="pf_100_dropShadow"/><feBlend xmlns="http://www.w3.org/2000/svg" in="SourceGraphic" in2="pf_100_dropShadow"/></filter></defs><path fill="#F22C42" d="M165.685 11.947c74.055 0 84.639 10.557 84.639 84.544v59.251c0 73.986-10.584 84.543-84.639 84.543h-75.37c-74.055 0-84.639-10.557-84.639-84.543V96.491c0-73.987 10.584-84.544 84.639-84.544h75.37z" filter="url(#a)"/><path fill="#FFF" d="M198.486 13.148c14.681 1.415 25.315 4.29 32.974 9.7C203.333 56.333 84.667 205 57.347 239.068c-13.863-1.349-24.105-4.01-31.637-8.892C63.667 183.333 187.333 26.333 198.486 13.148z"/><path fill="#FFF" d="M58.562 13.063c-14.519 1.195-26.024 4.055-33.684 9.465C53.005 56.013 172.504 205 199.823 239.068c13.863-1.349 24.106-4.01 31.637-8.892C193.504 183.333 69.715 26.247 58.562 13.063z"/><path fill="#FFF" d="M250.324 112v31H5.676v-31h244.648z"/><path fill="#FFF" d="M128 11.947v228.338h37.685c74.055 0 84.639-10.557 84.639-84.543V96.491c0-73.987-10.584-84.544-84.639-84.544H128z" opacity=".2"/><defs><filter id="b" width="208.295" height="145.805" x="23.85" y="55.1" filterUnits="userSpaceOnUse"><feGaussianBlur xmlns="http://www.w3.org/2000/svg" stdDeviation="4.294"/></filter></defs><path d="M128 65.104c-17.366-.241-34.448 6.769-47.342 18.035-16.509 13.152-32.3 27.247-46.805 42.594 16.476 19.448 34.524 37.746 54.803 53.231 25.572 17.829 63.114 15.514 86.004-5.777 17.308-14.25 33.047-30.323 47.487-47.454-17.286-18.062-36.096-34.981-56.227-49.606C154.695 68.88 141.35 65.08 128 65.104z" opacity=".4" filter="url(#b)"/><path fill="#F0F3F4" d="M128 65.104c-17.366-.241-34.448 6.769-47.342 18.035-16.509 13.152-32.3 27.247-46.805 42.594 16.476 19.448 34.524 37.746 54.803 53.231 25.572 17.829 63.114 15.514 86.004-5.777 17.308-14.25 33.047-30.323 47.487-47.454-17.286-18.062-36.096-34.981-56.227-49.606C154.695 68.88 141.35 65.08 128 65.104z"/><circle fill="#3CA6E0" r="1" transform="matrix(39.7 0 0 39.7 128 126.527)" vector-effect="non-scaling-stroke"/><circle fill="#34495E" r="1" transform="translate(128 126.527) scale(16.666)" vector-effect="non-scaling-stroke"/><ellipse fill="#F8F7F7" rx="1" ry="1" transform="matrix(6.127 5.417 -3.111 .835 148.499 103.241)" vector-effect="non-scaling-stroke"/><g opacity=".4"><linearGradient id="c" x1=".517" x2=".517" y2="1"><stop offset="0%" stop-color="#fff"/><stop offset="12.5%" stop-opacity=".098" stop-color="#fff"/><stop offset="92.5%" stop-opacity=".098"/><stop offset="100%" stop-opacity=".498"/></linearGradient><path fill="none" stroke="url(#c)" stroke-linecap="round" stroke-linejoin="round" stroke-width="4.077" d="M165.685 11.947c74.055 0 84.639 10.557 84.639 84.544v59.251c0 73.986-10.584 84.543-84.639 84.543h-75.37c-74.055 0-84.639-10.557-84.639-84.543V96.491c0-73.987 10.584-84.544 84.639-84.544h75.37z" vector-effect="non-scaling-stroke"/></g></svg>