<svg xmlns="http://www.w3.org/2000/svg" style="isolation:isolate" width="256" height="256" viewBox="0 0 256 256">
 <defs>
  <filter id="JXhK2srMqcgI4x30m7950DyoMIlgM4m4" width="270.648" height="254.338" x="-7.32" y="2.95" filterUnits="userSpaceOnUse">
   <feGaussianBlur xmlns="http://www.w3.org/2000/svg" in="SourceGraphic" stdDeviation="4.294"/>
   <feOffset xmlns="http://www.w3.org/2000/svg" dx="0" dy="4" result="pf_100_offsetBlur"/>
   <feFlood xmlns="http://www.w3.org/2000/svg" flood-opacity=".4"/>
   <feComposite xmlns="http://www.w3.org/2000/svg" in2="pf_100_offsetBlur" operator="in" result="pf_100_dropShadow"/>
   <feBlend xmlns="http://www.w3.org/2000/svg" in="SourceGraphic" in2="pf_100_dropShadow" mode="normal"/>
  </filter>
 </defs>
 <g filter="url(#JXhK2srMqcgI4x30m7950DyoMIlgM4m4)">
  <path fill="#F22C42" d="M 165.685 11.947 C 239.74 11.947 250.324 22.504 250.324 96.491 L 250.324 155.742 C 250.324 229.728 239.74 240.285 165.685 240.285 L 90.315 240.285 C 16.26 240.285 5.676 229.728 5.676 155.742 L 5.676 96.491 C 5.676 22.504 16.26 11.947 90.315 11.947 L 165.685 11.947 Z"/>
 </g>
 <path fill="#FFFFFF" d="M 198.486 13.148 C 213.167 14.563 223.801 17.438 231.46 22.848 C 203.333 56.333 84.667 205 57.347 239.068 C 43.484 237.719 33.242 235.058 25.71 230.176 C 63.667 183.333 187.333 26.333 198.486 13.148 Z"/>
 <path fill="#FFFFFF" d="M 58.562 13.063 C 44.043 14.258 32.538 17.118 24.878 22.528 C 53.005 56.013 172.504 205 199.823 239.068 C 213.686 237.719 223.929 235.058 231.46 230.176 C 193.504 183.333 69.715 26.247 58.562 13.063 Z"/>
 <path fill="#FFFFFF" d="M 250.324 112 L 250.324 143 L 5.676 143 L 5.676 112 L 250.324 112 Z"/>
 <g opacity=".2">
  <path fill="#FFFFFF" d="M 128 11.947 L 128 240.285 L 165.685 240.285 C 239.74 240.285 250.324 229.728 250.324 155.742 L 250.324 96.491 C 250.324 22.504 239.74 11.947 165.685 11.947 L 128 11.947 Z"/>
 </g>
 <g>
  <defs>
   <filter id="qv3ar4r4ez196gmS4Tol8AEZR4Umt2ab" width="208.295" height="145.805" x="23.85" y="55.1" filterUnits="userSpaceOnUse">
    <feGaussianBlur xmlns="http://www.w3.org/2000/svg" stdDeviation="4.294"/>
   </filter>
  </defs>
  <g opacity=".4" filter="url(#qv3ar4r4ez196gmS4Tol8AEZR4Umt2ab)">
   <path d="M 128 65.104 C 110.634 64.863 93.552 71.873 80.658 83.139 C 64.149 96.291 48.358 110.386 33.853 125.733 C 50.329 145.181 68.377 163.479 88.656 178.964 C 114.228 196.793 151.77 194.478 174.66 173.187 C 191.968 158.937 207.707 142.864 222.147 125.733 C 204.861 107.671 186.051 90.752 165.92 76.127 C 154.695 68.88 141.35 65.08 128 65.104 L 128 65.104 Z"/>
  </g>
  <path fill="#F0F3F4" d="M 128 65.104 C 110.634 64.863 93.552 71.873 80.658 83.139 C 64.149 96.291 48.358 110.386 33.853 125.733 C 50.329 145.181 68.377 163.479 88.656 178.964 C 114.228 196.793 151.77 194.478 174.66 173.187 C 191.968 158.937 207.707 142.864 222.147 125.733 C 204.861 107.671 186.051 90.752 165.92 76.127 C 154.695 68.88 141.35 65.08 128 65.104 L 128 65.104 Z"/>
  <circle fill="#3CA6E0" cx="0" cy="0" r="1" transform="matrix(39.7,0,0,39.7,128,126.527)" vector-effect="non-scaling-stroke"/>
  <circle fill="#34495E" cx="0" cy="0" r="1" transform="matrix(16.666,0,0,16.666,128,126.527)" vector-effect="non-scaling-stroke"/>
  <ellipse fill="#F8F7F7" cx="0" cy="0" rx="1" ry="1" transform="matrix(6.127,5.417,-3.111,0.835,148.499,103.241)" vector-effect="non-scaling-stroke"/>
 </g>
 <g opacity=".4">
  <linearGradient id="_lgradient_32" x1=".517" x2=".517" y1="0" y2="1">
   <stop offset="0%" style="stop-color:rgb(255,255,255)"/>
   <stop offset="12.5%" stop-opacity=".098" style="stop-color:rgb(255,255,255)"/>
   <stop offset="92.5%" stop-opacity=".098" style="stop-color:rgb(0,0,0)"/>
   <stop offset="100%" stop-opacity=".498" style="stop-color:rgb(0,0,0)"/>
  </linearGradient>
  <path fill="none" stroke="url(#_lgradient_32)" stroke-linecap="round" stroke-linejoin="round" stroke-width="4.077" d="M 165.685 11.947 C 239.74 11.947 250.324 22.504 250.324 96.491 L 250.324 155.742 C 250.324 229.728 239.74 240.285 165.685 240.285 L 90.315 240.285 C 16.26 240.285 5.676 229.728 5.676 155.742 L 5.676 96.491 C 5.676 22.504 16.26 11.947 90.315 11.947 L 165.685 11.947 Z" vector-effect="non-scaling-stroke"/>
 </g>
</svg>
