<?xml version="1.0" standalone="no"?><!-- Generator: Gravit.io --><svg xmlns="http://www.w3.org/2000/svg" xmlns:xlink="http://www.w3.org/1999/xlink" style="isolation:isolate" viewBox="0 0 256 256" width="256" height="256"><defs><clipPath id="_clipPath_gfUHZe3GIcNT2A5r98krrDUoL3Rtp2DK"><rect width="256" height="256"/></clipPath></defs><g clip-path="url(#_clipPath_gfUHZe3GIcNT2A5r98krrDUoL3Rtp2DK)"><rect width="256" height="256" style="fill:rgba(0,0,0,0)"/><g id="icon"><g id="drop shadow"><defs><filter id="8LbdDQ5RhfLvzqVwedVbBeYAD3qhtTqy" x="-200%" y="-200%" width="400%" height="400%"><feGaussianBlur xmlns="http://www.w3.org/2000/svg" stdDeviation="2.32"/></filter></defs><g opacity="0.2" filter="url(#8LbdDQ5RhfLvzqVwedVbBeYAD3qhtTqy)"><path d=" M 166.185 15.849 C 240.241 15.849 250.825 26.407 250.825 100.394 L 250.825 159.645 C 250.825 233.632 240.241 244.189 166.185 244.189 L 90.815 244.189 C 16.759 244.189 6.175 233.632 6.175 159.645 L 6.175 100.394 C 6.175 26.407 16.759 15.849 90.815 15.849 L 166.185 15.849 Z " fill="rgb(0,0,0)"/></g><defs><filter id="aAnuSBnERJg7xjYNnAFBp7vcm7dxGX9d" x="-200%" y="-200%" width="400%" height="400%"><feGaussianBlur xmlns="http://www.w3.org/2000/svg" stdDeviation="1.16"/></filter></defs><g opacity="0.1" filter="url(#aAnuSBnERJg7xjYNnAFBp7vcm7dxGX9d)"><path d=" M 166.185 14.83 C 240.241 14.83 250.825 25.387 250.825 99.374 L 250.825 158.626 C 250.825 232.612 240.241 243.17 166.185 243.17 L 90.815 243.17 C 16.759 243.17 6.175 232.612 6.175 158.626 L 6.175 99.374 C 6.175 25.387 16.759 14.83 90.815 14.83 L 166.185 14.83 Z " fill="rgb(0,0,0)"/></g></g><path d=" M 166.685 13.33 C 240.741 13.33 251.325 23.887 251.325 97.874 L 251.325 157.126 C 251.325 231.112 240.741 241.67 166.685 241.67 L 91.315 241.67 C 17.259 241.67 6.675 231.112 6.675 157.126 L 6.675 97.874 C 6.675 23.887 17.259 13.33 91.315 13.33 L 166.685 13.33 Z " fill="rgb(255,255,255)"/><clipPath id="_clipPath_fGfX9yEy4aLIDVKHpaXvmBMh4NY3bO07"><path d=" M 166.685 13.33 C 240.741 13.33 251.325 23.887 251.325 97.874 L 251.325 157.126 C 251.325 231.112 240.741 241.67 166.685 241.67 L 91.315 241.67 C 17.259 241.67 6.675 231.112 6.675 157.126 L 6.675 97.874 C 6.675 23.887 17.259 13.33 91.315 13.33 L 166.685 13.33 Z " fill="rgb(255,255,255)"/></clipPath><g clip-path="url(#_clipPath_fGfX9yEy4aLIDVKHpaXvmBMh4NY3bO07)"><path d=" M 167.185 13.33 C 241.241 13.33 251.825 23.887 251.825 97.874 L 251.825 157.126 C 251.825 231.112 241.241 241.67 167.185 241.67 L 91.815 241.67 C 17.759 241.67 7.175 231.112 7.175 157.126 L 7.175 97.874 C 7.175 23.887 17.759 13.33 91.815 13.33 L 167.185 13.33 Z " fill="rgb(51,51,51)"/><g id="Group"><g opacity="0.1"><rect x="88.225" y="13.331" width="81.549" height="228.338" transform="matrix(1,0,0,1,0,0)" fill="rgb(255,255,255)"/></g><g opacity="0.1"><path d=" M 6.676 127.5 L 6.676 157.125 C 6.676 231.112 17.26 241.669 91.315 241.669 L 166.685 241.669 C 240.74 241.669 251.324 231.112 251.324 157.125 L 251.324 127.5 L 6.676 127.5 Z " fill="rgb(255,255,255)"/></g></g><g id="agave" filter="url(#tGEi9bBRVM6VACKmnzFEphUWbUmHX4yz)"><path d=" M 56.478 148.92 C 61.062 163.188 69.76 176.902 82.813 186.688 C 99.438 199.313 112.899 200.804 128.046 202.362 C 122.22 188.284 112.783 175.438 99.705 165.668 C 86.605 155.877 71.631 150.479 56.454 148.917" fill="rgb(88,132,244)"/><path d=" M 73.701 103.975 C 71.564 122.718 74.431 142.959 84.331 160.95 C 96.857 184.051 111.525 192.74 128.093 202.38 C 128.708 183.21 124.543 163.583 114.605 145.595 C 104.654 127.573 90.275 113.618 73.675 103.959" fill="rgb(118,194,43)"/><path d=" M 199.647 148.92 C 195.062 163.188 186.365 176.902 173.312 186.688 C 156.687 199.312 143.226 200.804 128.079 202.362 C 133.905 188.284 143.342 175.438 156.42 165.668 C 169.52 155.877 184.494 150.479 199.671 148.917" fill="rgb(242,44,66)"/><path d=" M 128.062 60.406 C 115.648 81.186 108.483 105.426 108.483 131.406 C 108.483 157.386 115.648 181.603 128.062 202.406 C 140.475 181.603 147.847 157.41 147.847 131.406 C 147.847 105.426 140.475 81.186 128.062 60.406 Z " fill="rgb(255,218,100)"/><path d=" M 182.517 103.881 C 184.654 122.624 181.787 142.865 171.887 160.857 C 159.361 183.957 144.693 192.647 128.125 202.287 C 127.51 183.116 131.675 163.489 141.613 145.501 C 151.564 127.479 165.943 113.524 182.543 103.865" fill="rgb(251,124,56)"/></g><defs><filter id="tGEi9bBRVM6VACKmnzFEphUWbUmHX4yz" x="-200%" y="-200%" width="400%" height="400%"><feOffset xmlns="http://www.w3.org/2000/svg" in="SourceAlpha" result="offOut" dx="0" dy="4"/><feGaussianBlur xmlns="http://www.w3.org/2000/svg" in="offOut" result="blurOut" stdDeviation="5"/><feComponentTransfer xmlns="http://www.w3.org/2000/svg" in="blurOut" result="opacOut"><feFuncA xmlns="http://www.w3.org/2000/svg" type="table" tableValues="0 0.5"/></feComponentTransfer><feBlend xmlns="http://www.w3.org/2000/svg" in="SourceGraphic" in2="opacOut" mode="normal"/></filter></defs></g><g id="highlight"><clipPath id="_clipPath_HFYd3aR7L71829SGEploBOjAmdWgwQUc"><path d=" M 166.185 13.811 C 240.241 13.811 250.825 24.368 250.825 98.355 L 250.825 157.606 C 250.825 231.593 240.241 242.151 166.185 242.151 L 90.815 242.151 C 16.759 242.151 6.175 231.593 6.175 157.606 L 6.175 98.355 C 6.175 24.368 16.759 13.811 90.815 13.811 L 166.185 13.811 Z " fill="rgb(255,255,255)"/></clipPath><g clip-path="url(#_clipPath_HFYd3aR7L71829SGEploBOjAmdWgwQUc)"><g opacity="0.4"><linearGradient id="_lgradient_110" x1="51.666666666666686%" y1="0%" x2="51.66666666666666%" y2="100.00000000000003%"><stop offset="0%" stop-opacity="1" style="stop-color:rgb(255,255,255)"/><stop offset="12.5%" stop-opacity="0.09803922" style="stop-color:rgb(255,255,255)"/><stop offset="92.500001%" stop-opacity="0.09803922" style="stop-color:rgb(0,0,0)"/><stop offset="100%" stop-opacity="0.49803922" style="stop-color:rgb(0,0,0)"/></linearGradient><path d=" M 166.185 13.811 C 240.241 13.811 250.825 24.368 250.825 98.355 L 250.825 157.606 C 250.825 231.593 240.241 242.151 166.185 242.151 L 90.815 242.151 C 16.759 242.151 6.175 231.593 6.175 157.606 L 6.175 98.355 C 6.175 24.368 16.759 13.811 90.815 13.811 L 166.185 13.811 Z " fill="none" vector-effect="non-scaling-stroke" stroke-width="4" stroke="url(#_lgradient_110)" stroke-linejoin="round" stroke-linecap="round" stroke-miterlimit="4"/></g></g></g></g></g></svg>