<?xml version="1.0" standalone="no"?><!-- Generator: Gravit.io --><svg xmlns="http://www.w3.org/2000/svg" xmlns:xlink="http://www.w3.org/1999/xlink" style="isolation:isolate" viewBox="0 0 256 256" width="256" height="256"><defs><clipPath id="_clipPath_qmUIpjtfs2V1Xm2mC45fisaoAf0I803Z"><rect width="256" height="256"/></clipPath></defs><g clip-path="url(#_clipPath_qmUIpjtfs2V1Xm2mC45fisaoAf0I803Z)"><rect width="256" height="256" style="fill:rgba(0,0,0,0)"/><g id="icon"><g id="drop shadow"><defs><filter id="qdCzoA8ck6PqjWsViDV4dD5deuvSO2aE" x="-200%" y="-200%" width="400%" height="400%"><feGaussianBlur xmlns="http://www.w3.org/2000/svg" stdDeviation="2.32"/></filter></defs><g opacity="0.2" filter="url(#qdCzoA8ck6PqjWsViDV4dD5deuvSO2aE)"><path d=" M 166.185 15.849 C 240.241 15.849 250.825 26.407 250.825 100.394 L 250.825 159.645 C 250.825 233.632 240.241 244.189 166.185 244.189 L 90.815 244.189 C 16.759 244.189 6.175 233.632 6.175 159.645 L 6.175 100.394 C 6.175 26.407 16.759 15.849 90.815 15.849 L 166.185 15.849 Z " fill="rgb(0,0,0)"/></g><defs><filter id="znOlhAWig1tQhizwNIV6uUXlpV2HZFF9" x="-200%" y="-200%" width="400%" height="400%"><feGaussianBlur xmlns="http://www.w3.org/2000/svg" stdDeviation="1.16"/></filter></defs><g opacity="0.1" filter="url(#znOlhAWig1tQhizwNIV6uUXlpV2HZFF9)"><path d=" M 166.185 14.83 C 240.241 14.83 250.825 25.387 250.825 99.374 L 250.825 158.626 C 250.825 232.612 240.241 243.17 166.185 243.17 L 90.815 243.17 C 16.759 243.17 6.175 232.612 6.175 158.626 L 6.175 99.374 C 6.175 25.387 16.759 14.83 90.815 14.83 L 166.185 14.83 Z " fill="rgb(0,0,0)"/></g></g><path d=" M 166.685 13.33 C 240.741 13.33 251.325 23.887 251.325 97.874 L 251.325 157.126 C 251.325 231.112 240.741 241.67 166.685 241.67 L 91.315 241.67 C 17.259 241.67 6.675 231.112 6.675 157.126 L 6.675 97.874 C 6.675 23.887 17.259 13.33 91.315 13.33 L 166.685 13.33 Z " fill="rgb(255,255,255)"/><clipPath id="_clipPath_edkL0tEfvzgp7eYoZjhgzqN4RScY32wu"><path d=" M 166.685 13.33 C 240.741 13.33 251.325 23.887 251.325 97.874 L 251.325 157.126 C 251.325 231.112 240.741 241.67 166.685 241.67 L 91.315 241.67 C 17.259 241.67 6.675 231.112 6.675 157.126 L 6.675 97.874 C 6.675 23.887 17.259 13.33 91.315 13.33 L 166.685 13.33 Z " fill="rgb(255,255,255)"/></clipPath><g clip-path="url(#_clipPath_edkL0tEfvzgp7eYoZjhgzqN4RScY32wu)"><path d=" M 167.185 13.33 C 241.241 13.33 251.825 23.887 251.825 97.874 L 251.825 157.126 C 251.825 231.112 241.241 241.67 167.185 241.67 L 91.815 241.67 C 17.759 241.67 7.175 231.112 7.175 157.126 L 7.175 97.874 C 7.175 23.887 17.759 13.33 91.815 13.33 L 167.185 13.33 Z " fill="rgb(204,204,204)"/><g id="Group"><g opacity="0.1"><rect x="88.225" y="13.331" width="81.549" height="228.338" transform="matrix(1,0,0,1,0,0)" fill="rgb(255,255,255)"/></g><g opacity="0.1"><path d=" M 6.676 127.5 L 6.676 157.125 C 6.676 231.112 17.26 241.669 91.315 241.669 L 166.685 241.669 C 240.74 241.669 251.324 231.112 251.324 157.125 L 251.324 127.5 L 6.676 127.5 Z " fill="rgb(255,255,255)"/></g></g><g id="Group"><g opacity="0.1"><path d=" M 197.386 59.358 C 196.46 59.504 195.539 59.819 194.646 60.324 C 189.682 62.683 181.619 71.1 172.91 81.657 C 161 71.229 145.462 64.901 128.56 64.901 C 91.752 64.901 61.177 94.751 61.177 132.284 C 61.177 169.816 91.752 199.667 128.56 199.667 C 165.368 199.667 195.943 169.816 195.943 132.284 C 195.943 117.819 191.373 104.522 183.691 93.611 C 191.356 83.796 198.903 75.474 205.416 70.791 C 210.391 65.434 203.878 58.348 197.386 59.364 L 197.386 59.358 Z  M 128.555 76.26 C 143.048 76.26 156.126 81.516 166.126 90.079 C 149.691 111.35 132.744 137.669 129.341 148.22 L 110.541 122.249 C 103.696 112.333 90.096 123.456 96.548 132.997 L 121.356 165.885 C 128.768 173.432 137.169 173.432 139.999 165.885 C 147.242 149.04 161.848 123.496 176.947 102.495 C 182.517 111.165 185.752 121.379 185.752 132.284 C 185.752 162.881 160.506 188.285 128.544 188.285 C 96.542 188.285 71.318 162.887 71.318 132.284 C 71.318 101.686 96.565 76.26 128.544 76.26 L 128.555 76.26 Z " fill="rgb(0,0,0)"/></g><path d=" M 128.544 59.302 C 91.736 59.302 61.161 89.153 61.161 126.685 C 61.161 164.218 91.736 194.068 128.544 194.068 C 165.351 194.068 195.927 164.218 195.927 126.685 C 195.927 89.13 165.374 59.302 128.544 59.302 Z  M 128.544 70.684 C 160.522 70.684 185.752 96.105 185.752 126.708 C 185.752 157.305 160.506 182.709 128.544 182.709 C 96.542 182.709 71.318 157.311 71.318 126.708 C 71.318 96.11 96.565 70.684 128.544 70.684 Z " fill="rgb(153,153,153)"/><path d=" M 96.542 127.415 L 121.35 160.315 C 128.763 167.862 137.163 167.862 139.993 160.315 C 151.993 132.368 184.146 80.472 205.399 65.187 C 211.082 59.066 201.778 50.688 194.629 54.726 C 179.255 62.031 135.057 124.872 129.33 142.638 L 110.53 116.668 C 103.685 106.751 90.085 117.875 96.537 127.415" fill-rule="evenodd" fill="rgb(51,51,51)"/><path d=" M 99.063 66.147 C 76.732 77.046 61.161 99.895 61.161 126.685 C 61.161 134.934 62.677 142.739 65.372 150.022 L 74.323 144.581 C 72.369 138.898 71.341 132.935 71.341 126.68 C 71.341 105.993 82.942 87.766 100.293 78.074" fill="rgb(43,137,143)"/></g><g opacity="0.5"><linearGradient id="_lgradient_111" x1="5.143292260833429%" y1="1.162245321775357%" x2="95.68927113971715%" y2="94.9265365053084%"><stop offset="3.0434782608695654%" stop-opacity="0" style="stop-color:rgb(255,255,255)"/><stop offset="97.3913043478261%" stop-opacity="1" style="stop-color:rgb(255,255,255)"/></linearGradient><path d=" M 166.352 13.33 C 240.408 13.33 250.992 23.887 250.992 97.874 L 250.992 157.126 C 250.992 231.112 240.408 241.67 166.352 241.67 L 90.982 241.67 C 16.925 241.67 6.342 231.112 6.342 157.126 L 6.342 97.874 C 6.342 23.887 16.925 13.33 90.982 13.33 L 166.352 13.33 Z " fill="url(#_lgradient_111)"/></g></g><g id="highlight"><clipPath id="_clipPath_7wQpfyPeMy4FaMa3Sb0pUnjMREe0Eh3e"><path d=" M 166.185 13.811 C 240.241 13.811 250.825 24.368 250.825 98.355 L 250.825 157.606 C 250.825 231.593 240.241 242.151 166.185 242.151 L 90.815 242.151 C 16.759 242.151 6.175 231.593 6.175 157.606 L 6.175 98.355 C 6.175 24.368 16.759 13.811 90.815 13.811 L 166.185 13.811 Z " fill="rgb(255,255,255)"/></clipPath><g clip-path="url(#_clipPath_7wQpfyPeMy4FaMa3Sb0pUnjMREe0Eh3e)"><g opacity="0.4"><linearGradient id="_lgradient_112" x1="51.666666666666686%" y1="0%" x2="51.66666666666666%" y2="100.00000000000003%"><stop offset="0%" stop-opacity="1" style="stop-color:rgb(255,255,255)"/><stop offset="12.5%" stop-opacity="0.09803922" style="stop-color:rgb(255,255,255)"/><stop offset="92.500001%" stop-opacity="0.09803922" style="stop-color:rgb(0,0,0)"/><stop offset="100%" stop-opacity="0.49803922" style="stop-color:rgb(0,0,0)"/></linearGradient><path d=" M 166.185 13.811 C 240.241 13.811 250.825 24.368 250.825 98.355 L 250.825 157.606 C 250.825 231.593 240.241 242.151 166.185 242.151 L 90.815 242.151 C 16.759 242.151 6.175 231.593 6.175 157.606 L 6.175 98.355 C 6.175 24.368 16.759 13.811 90.815 13.811 L 166.185 13.811 Z " fill="none" vector-effect="non-scaling-stroke" stroke-width="4" stroke="url(#_lgradient_112)" stroke-linejoin="round" stroke-linecap="round" stroke-miterlimit="4"/></g></g></g></g></g></svg>