<svg xmlns="http://www.w3.org/2000/svg" style="isolation:isolate" width="256" height="256"><switch><g><defs><filter id="a" width="270.648" height="254.338" x="-7.32" y="2.95" filterUnits="userSpaceOnUse"><feGaussianBlur xmlns="http://www.w3.org/2000/svg" in="SourceGraphic" stdDeviation="4.294"/><feOffset xmlns="http://www.w3.org/2000/svg" dy="4" result="pf_100_offsetBlur"/><feFlood xmlns="http://www.w3.org/2000/svg" flood-opacity=".4"/><feComposite xmlns="http://www.w3.org/2000/svg" in2="pf_100_offsetBlur" operator="in" result="pf_100_dropShadow"/><feBlend xmlns="http://www.w3.org/2000/svg" in="SourceGraphic" in2="pf_100_dropShadow"/></filter></defs><path fill="#D9D9D9" d="M165.685 11.947c74.055 0 84.639 10.557 84.639 84.544v59.251c0 73.986-10.584 84.543-84.639 84.543h-75.37c-74.055 0-84.639-10.557-84.639-84.543V96.491c0-73.987 10.584-84.544 84.639-84.544h75.37z" filter="url(#a)"/><path fill="#999" d="M128.377 58.635c-36.808 0-67.383 29.851-67.383 67.383 0 37.533 30.575 67.383 67.383 67.383 36.807 0 67.383-29.85 67.383-67.383 0-37.555-30.553-67.383-67.383-67.383zm0 11.382c31.978 0 57.208 25.421 57.208 56.024 0 30.597-25.246 56.001-57.208 56.001-32.002 0-57.226-25.398-57.226-56.001 0-30.598 25.247-56.024 57.226-56.024z"/><path fill="#333" fill-rule="evenodd" d="M96.375 126.748l24.808 32.9c7.413 7.547 15.813 7.547 18.643 0 12-27.947 44.153-79.843 65.406-95.128 5.683-6.121-3.621-14.499-10.77-10.461-15.374 7.305-59.572 70.146-65.299 87.912l-18.8-25.97c-6.845-9.917-20.445 1.207-13.993 10.747"/><path fill="#2B898F" d="M98.896 65.48c-22.331 10.899-37.902 33.748-37.902 60.538 0 8.249 1.516 16.054 4.211 23.337l8.951-5.441a54.681 54.681 0 0 1-2.982-17.901c0-20.687 11.601-38.914 28.952-48.606"/><g opacity=".4"><linearGradient id="b" x1=".517" x2=".517" y2="1"><stop offset="0%" stop-color="#fff"/><stop offset="12.5%" stop-opacity=".098" stop-color="#fff"/><stop offset="92.5%" stop-opacity=".098"/><stop offset="100%" stop-opacity=".498"/></linearGradient><path fill="none" stroke="url(#b)" stroke-linecap="round" stroke-linejoin="round" stroke-width="4.077" d="M165.685 11.947c74.055 0 84.639 10.557 84.639 84.544v59.251c0 73.986-10.584 84.543-84.639 84.543h-75.37c-74.055 0-84.639-10.557-84.639-84.543V96.491c0-73.987 10.584-84.544 84.639-84.544h75.37z" vector-effect="non-scaling-stroke"/></g></g></switch> </svg>