<?xml version="1.0" encoding="UTF-8" standalone="no"?>
<svg
   xmlns:dc="http://purl.org/dc/elements/1.1/"
   xmlns:cc="http://creativecommons.org/ns#"
   xmlns:rdf="http://www.w3.org/1999/02/22-rdf-syntax-ns#"
   xmlns:svg="http://www.w3.org/2000/svg"
   xmlns="http://www.w3.org/2000/svg"
   xmlns:xlink="http://www.w3.org/1999/xlink"
   xmlns:sodipodi="http://sodipodi.sourceforge.net/DTD/sodipodi-0.dtd"
   xmlns:inkscape="http://www.inkscape.org/namespaces/inkscape"
   viewBox="0 0 256 256"
   version="1.1"
   id="svg16"
   sodipodi:docname="almanah.svg"
   width="256"
   height="256"
   inkscape:version="0.92.3 (2405546, 2018-03-11)">
  <metadata
     id="metadata20">
    <rdf:RDF>
      <cc:Work
         rdf:about="">
        <dc:format>image/svg+xml</dc:format>
        <dc:type
           rdf:resource="http://purl.org/dc/dcmitype/StillImage" />
        <dc:title />
      </cc:Work>
    </rdf:RDF>
  </metadata>
  <sodipodi:namedview
     pagecolor="#ffffff"
     bordercolor="#666666"
     borderopacity="1"
     objecttolerance="10"
     gridtolerance="10"
     guidetolerance="10"
     inkscape:pageopacity="0"
     inkscape:pageshadow="2"
     inkscape:window-width="1920"
     inkscape:window-height="1009"
     id="namedview18"
     showgrid="true"
     inkscape:zoom="3.4628042"
     inkscape:cx="70.216998"
     inkscape:cy="127.84507"
     inkscape:window-x="0"
     inkscape:window-y="34"
     inkscape:window-maximized="1"
     inkscape:current-layer="g1701">
    <inkscape:grid
       type="xygrid"
       id="grid177" />
  </sodipodi:namedview>
  <defs
     id="defs3">
    <path
       id="a"
       d="M 44.5,20 H 24 v 8.5 H 35.8 C 34.7,33.9 30.1,37 24,37 16.8,37 11,31.2 11,24 c 0,-7.2 5.8,-13 13,-13 3.1,0 5.9,1.1 8.1,2.9 L 38.5,7.5 C 34.6,4.1 29.6,2 24,2 11.8,2 2,11.8 2,24 c 0,12.2 9.8,22 22,22 11,0 21,-8 21,-22 0,-1.3 -0.2,-2.7 -0.5,-4 z"
       inkscape:connector-curvature="0" />
    <linearGradient
       inkscape:collect="always"
       xlink:href="#linearGradient1013"
       id="linearGradient1108"
       x1="296"
       y1="-212"
       x2="296"
       y2="236"
       gradientUnits="userSpaceOnUse" />
    <linearGradient
       id="linearGradient1013"
       inkscape:collect="always">
      <stop
         id="stop1005"
         offset="0"
         style="stop-color:#ffffff;stop-opacity:1;" />
      <stop
         style="stop-color:#ffffff;stop-opacity:0.09803922"
         offset="0.125"
         id="stop1007" />
      <stop
         style="stop-color:#000000;stop-opacity:0.09803922"
         offset="0.92500001"
         id="stop1009" />
      <stop
         id="stop1011"
         offset="1"
         style="stop-color:#000000;stop-opacity:0.49803922" />
    </linearGradient>
    <clipPath
       clipPathUnits="userSpaceOnUse"
       id="clipPath1082-3-361">
      <path
         sodipodi:nodetypes="sssssssss"
         inkscape:connector-curvature="0"
         id="path1084-6-29"
         d="M 361.9375,-212 C 507.2348,-212 528,-191.28677 528,-46.125 V 70.125 C 528,215.28618 507.2348,236 361.9375,236 H 214.0625 C 68.7652,236 48,215.28618 48,70.125 V -46.125 C 48,-191.28677 68.7652,-212 214.0625,-212 Z"
         style="display:inline;opacity:1;fill:#8c59d9;fill-opacity:1;stroke:none;stroke-width:2;stroke-linecap:round;stroke-linejoin:round;stroke-miterlimit:4;stroke-dasharray:none;stroke-dashoffset:0;stroke-opacity:1;enable-background:new" />
    </clipPath>
    <filter
       inkscape:collect="always"
       style="color-interpolation-filters:sRGB"
       id="filter4569"
       x="-0.0116"
       width="1.0232"
       y="-0.012428571"
       height="1.024857">
      <feGaussianBlur
         inkscape:collect="always"
         stdDeviation="1.16"
         id="feGaussianBlur4571" />
    </filter>
    <filter
       inkscape:collect="always"
       style="color-interpolation-filters:sRGB"
       id="filter939"
       x="-0.0232"
       width="1.0464"
       y="-0.024857143"
       height="1.0497143">
      <feGaussianBlur
         inkscape:collect="always"
         stdDeviation="2.32"
         id="feGaussianBlur941" />
    </filter>
    <clipPath
       clipPathUnits="userSpaceOnUse"
       id="clipPath1205-3">
      <path
         id="path1207-6"
         d="M 115.03125,44 C 42.3826,44 32,54.356615 32,126.9375 v 58.125 c 0,13.772 0.379014,25.29352 1.482422,34.9375 H 270.51758 C 271.62099,210.35602 272,198.8345 272,185.0625 v -58.125 C 272,54.356615 261.6174,44 188.96875,44 Z"
         style="opacity:1;fill:#f1f0e9;fill-opacity:1;stroke:none;stroke-width:2;stroke-linecap:round;stroke-linejoin:round;stroke-miterlimit:4;stroke-dasharray:none;stroke-dashoffset:0;stroke-opacity:1"
         inkscape:connector-curvature="0" />
    </clipPath>
    <linearGradient
       inkscape:collect="always"
       id="linearGradient1072">
      <stop
         style="stop-color:#000000;stop-opacity:1;"
         offset="0"
         id="stop1068" />
      <stop
         style="stop-color:#000000;stop-opacity:0;"
         offset="1"
         id="stop1070" />
    </linearGradient>
    <clipPath
       clipPathUnits="userSpaceOnUse"
       id="clipPath1082-3-06-2">
      <path
         sodipodi:nodetypes="sssssssss"
         inkscape:connector-curvature="0"
         id="path1084-6-1-9"
         d="M 361.9375,-212 C 507.2348,-212 528,-191.28677 528,-46.125 V 70.125 C 528,215.28618 507.2348,236 361.9375,236 H 214.0625 C 68.7652,236 48,215.28618 48,70.125 V -46.125 C 48,-191.28677 68.7652,-212 214.0625,-212 Z"
         style="display:inline;opacity:1;fill:#8c59d9;fill-opacity:1;stroke:none;stroke-width:2;stroke-linecap:round;stroke-linejoin:round;stroke-miterlimit:4;stroke-dasharray:none;stroke-dashoffset:0;stroke-opacity:1;enable-background:new" />
    </clipPath>
    <linearGradient
       inkscape:collect="always"
       xlink:href="#linearGradient1072"
       id="linearGradient1074-3"
       x1="13.666614"
       y1="261.94717"
       x2="17.827751"
       y2="261.94717"
       gradientUnits="userSpaceOnUse"
       gradientTransform="matrix(3.7795275,0,0,3.7795275,1.4291888,-865.70462)" />
    <radialGradient
       inkscape:collect="always"
       xlink:href="#linearGradient4398"
       id="radialGradient4404"
       cx="-256"
       cy="-256.20001"
       fx="-256"
       fy="-256.20001"
       r="96"
       gradientUnits="userSpaceOnUse"
       gradientTransform="matrix(0,-0.9072059,-0.9072059,0,1.4637989,12.873503)" />
    <linearGradient
       inkscape:collect="always"
       id="linearGradient4398">
      <stop
         id="stop4402"
         offset="0"
         style="stop-color:#000000;stop-opacity:0;" />
      <stop
         style="stop-color:#000000;stop-opacity:0"
         offset="0.89867342"
         id="stop4408" />
      <stop
         id="stop4410"
         offset="0.94933045"
         style="stop-color:#000000;stop-opacity:0.26165804" />
      <stop
         id="stop4400"
         offset="1"
         style="stop-color:#000000;stop-opacity:1;" />
    </linearGradient>
    <filter
       inkscape:collect="always"
       style="color-interpolation-filters:sRGB"
       id="filter1013"
       x="-0.059999999"
       width="1.12"
       y="-0.059999999"
       height="1.12">
      <feGaussianBlur
         inkscape:collect="always"
         stdDeviation="3.4"
         id="feGaussianBlur1015" />
    </filter>
    <filter
       inkscape:collect="always"
       style="color-interpolation-filters:sRGB"
       id="filter4323"
       x="-0.012"
       width="1.024"
       y="-0.012"
       height="1.024">
      <feGaussianBlur
         inkscape:collect="always"
         stdDeviation="1.7599998"
         id="feGaussianBlur4325" />
    </filter>
  </defs>
  <clipPath
     id="b">
    <use
       xlink:href="#a"
       overflow="visible"
       id="use5"
       style="overflow:visible"
       x="0"
       y="0"
       width="100%"
       height="100%" />
  </clipPath>
  <path
     style="display:inline;opacity:0.2;fill:#000000;fill-opacity:1;stroke:none;stroke-width:2;stroke-linecap:round;stroke-linejoin:round;stroke-miterlimit:4;stroke-dasharray:none;stroke-dashoffset:0;stroke-opacity:1;filter:url(#filter939);enable-background:new"
     d="m 162.53675,5.5680001 c 72.64865,0 83.03125,10.3566149 83.03125,82.9375049 v 58.125005 c 0,72.58059 -10.3826,82.9375 -83.03125,82.9375 H 88.599254 C 15.9506,229.56801 5.568,219.2111 5.568,146.63051 V 88.505505 c 0,-72.58089 10.3826,-82.9375049 83.031254,-82.9375049 z"
     id="path937"
     inkscape:connector-curvature="0"
     sodipodi:nodetypes="sssssssss"
     transform="matrix(1.019368,0,0,1.019368,-7.2181772e-8,8.3098661)" />
  <path
     sodipodi:nodetypes="sssssssss"
     inkscape:connector-curvature="0"
     id="path4558"
     d="m 165.68477,11.946967 c 74.05571,0 84.6394,10.557203 84.6394,84.543835 v 59.250778 c 0,73.98633 -10.58369,84.54383 -84.6394,84.54383 H 90.315249 c -74.055717,0 -84.6394076,-10.5575 -84.6394076,-84.54383 V 96.490802 c 0,-73.986632 10.5836906,-84.543835 84.6394076,-84.543835 z"
     style="display:inline;opacity:0.1;fill:none;fill-opacity:1;stroke:#000000;stroke-width:4.07747173;stroke-linecap:round;stroke-linejoin:round;stroke-miterlimit:4;stroke-dasharray:none;stroke-dashoffset:0;stroke-opacity:1;enable-background:new" />
  <path
     sodipodi:nodetypes="sssssssss"
     inkscape:connector-curvature="0"
     id="path4567"
     d="m 162.53675,3.5680001 c 72.64865,0 83.03125,10.3566149 83.03125,82.9375049 v 58.125005 c 0,72.58059 -10.3826,82.9375 -83.03125,82.9375 H 88.599254 C 15.9506,227.56801 5.568,217.2111 5.568,144.63051 V 86.505505 c 0,-72.58089 10.3826,-82.9375049 83.031254,-82.9375049 z"
     style="display:inline;opacity:0.1;fill:#000000;fill-opacity:1;stroke:none;stroke-width:2;stroke-linecap:round;stroke-linejoin:round;stroke-miterlimit:4;stroke-dasharray:none;stroke-dashoffset:0;stroke-opacity:1;filter:url(#filter4569);enable-background:new"
     transform="matrix(1.019368,0,0,1.019368,-7.2181772e-8,8.3098661)" />
  <path
     style="display:inline;opacity:1;fill:#bc2219;fill-opacity:1;stroke:none;stroke-width:2.03873587;stroke-linecap:round;stroke-linejoin:round;stroke-miterlimit:4;stroke-dasharray:none;stroke-dashoffset:0;stroke-opacity:1;enable-background:new"
     d="m 165.68476,11.946967 c 74.05571,0 84.6394,10.557203 84.6394,84.543835 v 59.250778 c 0,73.98633 -10.58369,84.54383 -84.6394,84.54383 H 90.315238 c -74.055712,0 -84.6394026,-10.5575 -84.6394026,-84.54383 V 96.490802 c 0,-73.986632 10.5836906,-84.543835 84.6394026,-84.543835 z"
     id="rect877"
     inkscape:connector-curvature="0"
     sodipodi:nodetypes="sssssssss" />
  <g
     transform="matrix(2.372035,0,0,2.372035,-20.736914,115.42106)"
     id="g983" />
  <g
     style="display:inline;enable-background:new"
     id="g1201"
     clip-path="url(#clipPath1205-3)"
     transform="matrix(0,-1.3780094,-1.019368,0,-23.522491,386.65882)" />
  <g
     id="g128"
     transform="translate(-0.6596034,-1.346584)">
    <path
       id="path1079-5"
       d="m 68.810049,13.293551 c -0.83109,0.04121 -1.92287,0.01887 -2.73242,0.06641 -3.68838,0.216589 -7.15505,0.499672 -10.41211,0.863281 -0.91848,0.102536 -1.69654,0.263363 -2.58203,0.378906 V 239.26035 c 0.88549,0.11555 1.66355,0.27637 2.58203,0.3789 3.25706,0.36361 6.72373,0.6467 10.41211,0.86329 0.80955,0.0475 1.90133,0.0252 2.73242,0.0664 z"
       style="opacity:0.1;fill:url(#linearGradient1074-3);fill-opacity:1;stroke:none;stroke-width:5.04098415;stroke-linecap:round;stroke-linejoin:miter;stroke-miterlimit:4;stroke-dasharray:none;stroke-opacity:1"
       inkscape:connector-curvature="0" />
    <path
       id="path972-3"
       d="m 53.995599,14.467379 c -2.60106,0.321496 -5.15479,0.660994 -7.48633,1.099609 -2.85158,0.536445 -5.50661,1.167247 -7.97852,1.902344 -2.47191,0.735097 -4.76083,1.57559 -6.8789,2.535155 -2.11807,0.959566 -4.06542,2.038195 -5.85547,3.248047 -1.79006,1.209852 -3.42425,2.551156 -4.91211,4.037109 -1.48786,1.485954 -2.82953,3.116425 -4.04102,4.904298 -1.21149,1.787873 -2.291,3.732049 -3.25195,5.847656 -0.96095,2.115608 -1.80479,4.401935 -2.54102,6.871094 -0.73623,2.469159 -1.3650002,5.122176 -1.9023402,7.970702 -0.53734,2.848527 -0.98339,5.892773 -1.34766,9.146485 -0.36426,3.253711 -0.64821,6.715678 -0.86523,10.40039 -0.43404,7.369426 -0.59961,15.626671 -0.59961,24.874998 v 59.251954 c 0,9.24829 0.16557,17.5056 0.59961,24.875 0.21702,3.6847 0.50097,7.14668 0.86523,10.40039 0.36427,3.2537 0.81032,6.29796 1.34766,9.14648 0.53734,2.84853 1.1661102,5.50155 1.9023402,7.97071 0.73623,2.46915 1.58007,4.75548 2.54102,6.87109 0.96095,2.11561 2.04046,4.05978 3.25195,5.84766 1.21149,1.78787 2.55316,3.41833 4.04102,4.90429 1.48786,1.48596 3.12205,2.82725 4.91211,4.03711 1.79005,1.20986 3.7374,2.28848 5.85547,3.24805 2.11807,0.95958 4.40699,1.80005 6.8789,2.53515 2.47191,0.73511 5.12694,1.3659 7.97852,1.90235 2.33154,0.43862 4.88527,0.77811 7.48633,1.09962 z"
       style="display:inline;opacity:1;fill:#69340c;fill-opacity:1;stroke:none;stroke-width:2.0387361;stroke-linecap:round;stroke-linejoin:round;stroke-miterlimit:4;stroke-dasharray:none;stroke-dashoffset:0;stroke-opacity:1;enable-background:new"
       inkscape:connector-curvature="0" />
    <path
       id="path1003-3"
       d="M 235.89208,26.844331 53.995599,239.39511 c 0.58014,0.0717 1.07594,0.17783 1.66992,0.24414 3.25706,0.36361 6.72373,0.64669 10.41211,0.86328 7.37676,0.43319 15.64147,0.59766 24.89843,0.59766 h 75.369151 c 9.25696,0 17.52167,-0.16447 24.89843,-0.59766 3.68838,-0.21659 7.15505,-0.49967 10.41211,-0.86328 3.25707,-0.36362 6.30468,-0.8073 9.15625,-1.34375 2.85158,-0.53645 5.50661,-1.16724 7.97852,-1.90235 2.47191,-0.7351 4.76083,-1.57558 6.8789,-2.53515 2.11807,-0.95957 4.06542,-2.03819 5.85547,-3.24805 1.79006,-1.20986 3.4223,-2.55115 4.91016,-4.03711 1.48786,-1.48596 2.83148,-3.11642 4.04297,-4.90429 1.21149,-1.78788 2.291,-3.73205 3.25195,-5.84766 0.96095,-2.11561 1.80283,-4.40194 2.53906,-6.87109 0.73623,-2.46916 1.36697,-5.12218 1.9043,-7.97071 0.53734,-2.84852 0.98144,-5.89278 1.3457,-9.14648 0.36427,-3.25371 0.65017,-6.71569 0.86719,-10.40039 0.43404,-7.36941 0.59766,-15.62671 0.59766,-24.875 V 97.305266 c 0,-9.248327 -0.16362,-17.505572 -0.59766,-24.874998 -0.21702,-3.684712 -0.50292,-7.146679 -0.86719,-10.40039 -0.36426,-3.253712 -0.80836,-6.297958 -1.3457,-9.146485 -0.53733,-2.848526 -1.16807,-5.501543 -1.9043,-7.970702 -0.73623,-2.469159 -1.57811,-4.755486 -2.53906,-6.871094 -0.96095,-2.115607 -2.04046,-4.059783 -3.25195,-5.847656 -1.21149,-1.787873 -2.55511,-3.418344 -4.04297,-4.904298 -0.16436,-0.164152 -0.37506,-0.284669 -0.54297,-0.445312 z"
       style="opacity:0.05;fill:#ffffff;fill-opacity:1;stroke:none;stroke-width:0.99999994px;stroke-linecap:butt;stroke-linejoin:miter;stroke-opacity:1"
       inkscape:connector-curvature="0" />
    <g
       transform="matrix(0.50968399,0,0,0.50968399,21.660149,-4.3903559)"
       style="display:inline;stroke-width:2;enable-background:new"
       id="g1045">
      <g
         id="g1701"
         transform="translate(22.109893,11.704499)">
        <circle
           style="color:#000000;display:inline;overflow:visible;visibility:visible;opacity:0.1;fill:#000000;fill-opacity:0.99607843;stroke:none;stroke-width:4.95999956;marker:none;filter:url(#filter4323);enable-background:accumulate"
           id="circle4305"
           transform="matrix(0,-0.54432265,-0.54432265,0,94.543513,105.77163)"
           cx="-258.00003"
           cy="-256"
           r="175.99998" />
        <circle
           r="95.800781"
           cy="-233.89011"
           cx="-245.11818"
           transform="matrix(0,-1,-1,0,0,0)"
           id="path4389-5"
           style="color:#000000;display:inline;overflow:visible;visibility:visible;fill:#f7f7f7;fill-opacity:1;stroke:none;stroke-width:2.69984031;marker:none;enable-background:accumulate" />
        <circle
           r="87.091621"
           cy="-233.89011"
           cx="-246.20686"
           transform="matrix(0,-1,-1,0,0,0)"
           id="circle4191"
           style="color:#000000;display:inline;overflow:visible;visibility:visible;opacity:1;fill:#ffffff;fill-opacity:1;stroke:none;stroke-width:2.17729044;marker:none;enable-background:accumulate" />
        <circle
           style="color:#000000;display:inline;overflow:visible;visibility:visible;fill:#e68673;fill-opacity:1;stroke:none;stroke-width:2.17729044;marker:none;enable-background:accumulate"
           id="circle4371"
           transform="matrix(0,-1,-1,0,0,0)"
           cx="-245.11818"
           cy="-233.89011"
           r="87.091621" />
        <circle
           r="68"
           cy="-152"
           cx="-157"
           transform="matrix(0,-1.0886453,-1.0886453,0,68.41602,75.289599)"
           id="circle1011"
           style="color:#000000;display:inline;overflow:visible;visibility:visible;opacity:0.1;fill:#000000;fill-opacity:1;stroke:none;stroke-width:1.99999976;marker:none;filter:url(#filter1013);enable-background:accumulate" />
        <path
           inkscape:connector-curvature="0"
           id="circle4396"
           d="m 233.88934,158.02585 a 87.091771,87.091771 0 0 0 -87.09085,87.09238 87.091771,87.091771 0 0 0 87.09085,87.09238 87.091771,87.091771 0 0 0 87.0924,-87.09238 87.091771,87.091771 0 0 0 -87.0924,-87.09238 z m 0,31.15983 a 55.93256,55.93256 0 0 1 55.93254,55.93255 55.93256,55.93256 0 0 1 -55.93254,55.93256 55.93256,55.93256 0 0 1 -55.93253,-55.93256 55.93256,55.93256 0 0 1 55.93253,-55.93255 z"
           style="color:#000000;display:inline;overflow:visible;visibility:visible;opacity:0.05;fill:url(#radialGradient4404);fill-opacity:1;stroke:none;stroke-width:2.17729044;marker:none;enable-background:accumulate" />
        <circle
           style="color:#000000;display:inline;overflow:visible;visibility:visible;opacity:1;fill:#f7f7f7;fill-opacity:1;stroke:none;stroke-width:2.17729044;marker:none;enable-background:accumulate"
           id="circle4269"
           transform="matrix(0,-1,-1,0,0,0)"
           cx="-245.11818"
           cy="-233.89011"
           r="74.027878" />
        <circle
           r="65.318726"
           cy="-233.89011"
           cx="-245.11818"
           transform="matrix(0,-1,-1,0,0,0)"
           id="circle4201"
           style="color:#000000;display:inline;overflow:visible;visibility:visible;opacity:0.1;fill:#000000;fill-opacity:1;stroke:none;stroke-width:2.17729044;marker:none;enable-background:accumulate" />
        <circle
           style="color:#000000;display:inline;overflow:visible;visibility:visible;opacity:0.1;fill:#000000;fill-opacity:1;stroke:none;stroke-width:2.17729044;marker:none;enable-background:accumulate"
           id="circle1084"
           transform="matrix(0,-1,-1,0,0,0)"
           cx="-245.11818"
           cy="-233.89014"
           r="34.836655" />
        <path
           inkscape:connector-curvature="0"
           id="circle1021"
           d="m 233.8901,149.31746 a 95.800781,95.800781 0 0 0 -95.80077,95.80077 95.800781,95.800781 0 0 0 0.0446,0.90367 95.800781,95.800781 0 0 1 95.75614,-94.52717 95.800781,95.800781 0 0 1 95.75614,94.89714 95.800781,95.800781 0 0 0 0.0446,-1.27364 95.800781,95.800781 0 0 0 -95.80078,-95.80077 z"
           style="color:#000000;display:inline;overflow:visible;visibility:visible;opacity:1;fill:#ffffff;fill-opacity:1;stroke:none;stroke-width:2.69984031;marker:none;enable-background:accumulate" />
        <path
           sodipodi:nodetypes="ccccccccccc"
           id="rect3030"
           d="m 225.18094,201.57242 h 17.41833 v 46.26743 l -5.80612,5.44319 5.80612,5.44323 v 29.93777 h -17.41833 v -46.26742 l 5.8061,-5.44324 -5.8061,-5.44323 z"
           style="display:inline;fill:#3b3b3b;fill-opacity:1;stroke:none;stroke-width:1.08864546;enable-background:new"
           inkscape:connector-curvature="0" />
        <path
           inkscape:connector-curvature="0"
           id="circle1017"
           d="m 233.8901,171.09035 a 74.027886,74.027886 0 0 0 -74.02787,74.02788 74.027886,74.027886 0 0 0 0.0446,0.90153 74.027886,74.027886 0 0 1 73.98321,-72.7521 74.027886,74.027886 0 0 1 73.98324,73.12635 74.027886,74.027886 0 0 0 0.0446,-1.27578 74.027886,74.027886 0 0 0 -74.02787,-74.02788 z"
           style="color:#000000;display:inline;overflow:visible;visibility:visible;opacity:1;fill:#ffffff;fill-opacity:1;stroke:none;stroke-width:2.17729044;marker:none;enable-background:accumulate" />
      </g>
    </g>
  </g>
  <path
     sodipodi:nodetypes="sssssssss"
     inkscape:connector-curvature="0"
     id="path1068"
     d="M 361.9375,-212 C 507.2348,-212 528,-191.28677 528,-46.125 V 70.125 C 528,215.28618 507.2348,236 361.9375,236 H 214.0625 C 68.7652,236 48,215.28618 48,70.125 V -46.125 C 48,-191.28677 68.7652,-212 214.0625,-212 Z"
     style="display:inline;opacity:0.4;fill:none;fill-opacity:1;stroke:url(#linearGradient1108);stroke-width:8;stroke-linecap:round;stroke-linejoin:round;stroke-miterlimit:4;stroke-dasharray:none;stroke-dashoffset:0;stroke-opacity:1;enable-background:new"
     clip-path="url(#clipPath1082-3-361)"
     transform="matrix(0.50968403,0,0,0.50968403,-18.788999,120)" />
</svg>
