<svg xmlns="http://www.w3.org/2000/svg" style="isolation:isolate" width="256" height="256" viewBox="0 0 256 256">
 <defs>
  <filter id="joJiGuC2awRD2iS3F8B171OCwtlQhU6I" width="270.648" height="254.338" x="-7.32" y="2.95" filterUnits="userSpaceOnUse">
   <feGaussianBlur xmlns="http://www.w3.org/2000/svg" in="SourceGraphic" stdDeviation="4.294"/>
   <feOffset xmlns="http://www.w3.org/2000/svg" dx="0" dy="4" result="pf_100_offsetBlur"/>
   <feFlood xmlns="http://www.w3.org/2000/svg" flood-opacity=".4"/>
   <feComposite xmlns="http://www.w3.org/2000/svg" in2="pf_100_offsetBlur" operator="in" result="pf_100_dropShadow"/>
   <feBlend xmlns="http://www.w3.org/2000/svg" in="SourceGraphic" in2="pf_100_dropShadow" mode="normal"/>
  </filter>
 </defs>
 <g filter="url(#joJiGuC2awRD2iS3F8B171OCwtlQhU6I)">
  <linearGradient id="_lgradient_71" x1=".5" x2=".5" y1="-.036" y2="1.036" gradientTransform="matrix(244.648,0,0,228.338,5.676,11.947)" gradientUnits="userSpaceOnUse">
   <stop offset="0%" style="stop-color:rgb(0,0,0)"/>
   <stop offset="100%" style="stop-color:rgb(51,51,51)"/>
  </linearGradient>
  <path fill="url(#_lgradient_71)" d="M 165.685 11.947 C 239.74 11.947 250.324 22.504 250.324 96.491 L 250.324 155.742 C 250.324 229.728 239.74 240.285 165.685 240.285 L 90.315 240.285 C 16.26 240.285 5.676 229.728 5.676 155.742 L 5.676 96.491 C 5.676 22.504 16.26 11.947 90.315 11.947 L 165.685 11.947 Z"/>
 </g>
 <linearGradient id="_lgradient_72" x1=".5" x2=".5" y1="-.036" y2="1.036" gradientTransform="matrix(244.648,0,0,228.338,5.676,11.947)" gradientUnits="userSpaceOnUse">
  <stop offset="0%" style="stop-color:rgb(0,0,0)"/>
  <stop offset="100%" style="stop-color:rgb(51,51,51)"/>
 </linearGradient>
 <path fill="url(#_lgradient_72)" d="M 165.685 11.947 C 239.74 11.947 250.324 22.504 250.324 96.491 L 250.324 155.742 C 250.324 229.728 239.74 240.285 165.685 240.285 L 90.315 240.285 C 16.26 240.285 5.676 229.728 5.676 155.742 L 5.676 96.491 C 5.676 22.504 16.26 11.947 90.315 11.947 L 165.685 11.947 Z"/>
 <clipPath id="_clipPath_UirPPCi6TVK61Ijelnkzt222qdRF7Qnh">
  <path fill="url(#_lgradient_72)" d="M 165.685 11.947 C 239.74 11.947 250.324 22.504 250.324 96.491 L 250.324 155.742 C 250.324 229.728 239.74 240.285 165.685 240.285 L 90.315 240.285 C 16.26 240.285 5.676 229.728 5.676 155.742 L 5.676 96.491 C 5.676 22.504 16.26 11.947 90.315 11.947 L 165.685 11.947 Z"/>
 </clipPath>
 <g clip-path="url(#_clipPath_UirPPCi6TVK61Ijelnkzt222qdRF7Qnh)">
  <g>
   <path fill="#E4C82F" d="M 89.182 172.497 L 111.188 172.497 C 111.255 172.497 111.299 172.519 111.299 172.519 L 111.299 183.597 C 111.299 183.597 111.255 183.62 111.188 183.62 L 89.182 183.62 C 89.115 183.62 89.054 183.597 89.054 183.597 L 89.054 172.519 C 89.054 172.519 89.121 172.497 89.182 172.497 Z"/>
   <path fill="#E4C82F" fill-opacity=".902" d="M 89.182 155.724 L 111.188 155.724 C 111.255 155.724 111.299 155.746 111.299 155.746 L 111.299 166.824 C 111.299 166.824 111.255 166.846 111.188 166.846 L 89.182 166.846 C 89.115 166.846 89.054 166.824 89.054 166.824 L 89.054 155.746 C 89.054 155.746 89.121 155.724 89.182 155.724 Z"/>
   <path fill="#E4C82F" fill-opacity=".8" d="M 89.182 139.24 L 111.188 139.24 C 111.255 139.24 111.299 139.24 111.299 139.262 L 111.299 150.19 C 111.299 150.212 111.255 150.212 111.188 150.212 L 89.182 150.212 C 89.115 150.212 89.054 150.212 89.054 150.19 L 89.054 139.262 C 89.054 139.24 89.121 139.24 89.182 139.24 Z"/>
   <path fill="#E4C82F" fill-opacity=".702" d="M 89.182 122.445 L 111.188 122.445 C 111.255 122.445 111.299 122.467 111.299 122.467 L 111.299 133.328 C 111.299 133.328 111.255 133.35 111.188 133.35 L 89.182 133.35 C 89.115 133.35 89.054 133.328 89.054 133.328 L 89.054 122.467 C 89.054 122.467 89.121 122.445 89.182 122.445 Z"/>
   <path fill="#E4C82F" fill-opacity=".6" d="M 89.182 105.76 L 111.188 105.76 C 111.255 105.76 111.299 105.76 111.299 105.783 L 111.299 116.577 C 111.299 116.577 111.255 116.6 111.188 116.6 L 89.182 116.6 C 89.115 116.6 89.054 116.577 89.054 116.577 L 89.054 105.783 C 89.054 105.76 89.121 105.76 89.182 105.76 Z"/>
   <path fill="#3D8DEC" d="M 144.795 172.552 L 166.824 172.552 C 166.891 172.552 166.935 172.552 166.935 172.575 L 166.935 183.569 C 166.935 183.569 166.891 183.592 166.824 183.592 L 144.795 183.592 C 144.729 183.592 144.684 183.569 144.684 183.569 L 144.684 172.575 C 144.684 172.552 144.729 172.552 144.795 172.552 Z"/>
   <path fill="#3D8DEC" fill-opacity=".902" d="M 144.795 155.924 L 166.824 155.924 C 166.891 155.924 166.935 155.946 166.935 155.946 L 166.935 166.874 C 166.935 166.897 166.891 166.897 166.824 166.897 L 144.795 166.897 C 144.729 166.897 144.684 166.897 144.684 166.874 L 144.684 155.946 C 144.684 155.946 144.729 155.924 144.795 155.924 Z"/>
   <path fill="#3D8DEC" fill-opacity=".8" d="M 144.795 139.407 L 166.824 139.407 C 166.891 139.407 166.935 139.429 166.935 139.429 L 166.935 150.313 C 166.935 150.313 166.891 150.335 166.824 150.335 L 144.795 150.335 C 144.729 150.335 144.684 150.313 144.684 150.313 L 144.684 139.429 C 144.684 139.429 144.729 139.407 144.795 139.407 Z"/>
   <path fill="#3D8DEC" fill-opacity=".702" d="M 144.795 122.723 L 166.824 122.723 C 166.891 122.723 166.935 122.723 166.935 122.745 L 166.935 133.539 C 166.935 133.539 166.891 133.562 166.824 133.562 L 144.795 133.562 C 144.729 133.562 144.684 133.539 144.684 133.539 L 144.684 122.745 C 144.684 122.723 144.729 122.723 144.795 122.723 Z"/>
   <path fill="#3D8DEC" fill-opacity=".6" d="M 144.795 106.094 L 166.824 106.094 C 166.891 106.094 166.935 106.116 166.935 106.116 L 166.935 116.828 C 166.935 116.85 166.891 116.85 166.824 116.85 L 144.795 116.85 C 144.729 116.85 144.684 116.85 144.684 116.828 L 144.684 106.116 C 144.684 106.116 144.729 106.094 144.795 106.094 Z"/>
   <path fill="#3D8DEC" fill-opacity=".502" d="M 144.795 89.076 L 166.824 89.076 C 166.891 89.076 166.935 89.099 166.935 89.099 L 166.935 100.177 C 166.935 100.199 166.891 100.199 166.824 100.199 L 144.795 100.199 C 144.729 100.199 144.684 100.199 144.684 100.177 L 144.684 89.099 C 144.684 89.099 144.729 89.076 144.795 89.076 Z"/>
   <path fill="#DB4CDB" d="M 172.602 172.497 L 194.631 172.497 C 194.697 172.497 194.742 172.519 194.742 172.519 L 194.742 183.597 C 194.742 183.597 194.697 183.62 194.631 183.62 L 172.602 183.62 C 172.535 183.62 172.491 183.597 172.491 183.597 L 172.491 172.519 C 172.491 172.519 172.535 172.497 172.602 172.497 Z"/>
   <path fill="#DB4CDB" fill-opacity=".902" d="M 172.602 155.813 L 194.631 155.813 C 194.697 155.813 194.742 155.813 194.742 155.835 L 194.742 166.846 C 194.742 166.846 194.697 166.869 194.631 166.869 L 172.602 166.869 C 172.535 166.869 172.491 166.846 172.491 166.846 L 172.491 155.835 C 172.491 155.813 172.535 155.813 172.602 155.813 Z"/>
   <path fill="#DB4CDB" fill-opacity=".8" d="M 172.602 139.24 L 194.631 139.24 C 194.697 139.24 194.742 139.24 194.742 139.262 L 194.742 150.19 C 194.742 150.212 194.697 150.212 194.631 150.212 L 172.602 150.212 C 172.535 150.212 172.491 150.212 172.491 150.19 L 172.491 139.262 C 172.491 139.24 172.535 139.24 172.602 139.24 Z"/>
   <path fill="#DB4CDB" fill-opacity=".702" d="M 172.602 122.445 L 194.631 122.445 C 194.697 122.445 194.742 122.467 194.742 122.467 L 194.742 133.328 C 194.742 133.328 194.697 133.35 194.631 133.35 L 172.602 133.35 C 172.535 133.35 172.491 133.328 172.491 133.328 L 172.491 122.467 C 172.491 122.467 172.535 122.445 172.602 122.445 Z"/>
   <path fill="#DB4CDB" fill-opacity=".6" d="M 172.602 105.76 L 194.631 105.76 C 194.697 105.76 194.742 105.76 194.742 105.783 L 194.742 116.577 C 194.742 116.577 194.697 116.6 194.631 116.6 L 172.602 116.6 C 172.535 116.6 172.491 116.577 172.491 116.577 L 172.491 105.783 C 172.491 105.76 172.535 105.76 172.602 105.76 Z"/>
   <path fill="#7FCF5B" d="M 116.988 172.497 L 138.995 172.497 C 139.062 172.497 139.106 172.519 139.106 172.519 L 139.106 183.597 C 139.106 183.597 139.062 183.62 138.995 183.62 L 116.988 183.62 C 116.922 183.62 116.861 183.597 116.861 183.597 L 116.861 172.519 C 116.861 172.519 116.927 172.497 116.988 172.497 Z"/>
   <path fill="#7FCF5B" fill-opacity=".902" d="M 116.988 155.813 L 138.995 155.813 C 139.062 155.813 139.106 155.813 139.106 155.835 L 139.106 166.846 C 139.106 166.846 139.062 166.869 138.995 166.869 L 116.988 166.869 C 116.922 166.869 116.861 166.846 116.861 166.846 L 116.861 155.835 C 116.861 155.813 116.927 155.813 116.988 155.813 Z"/>
   <path fill="#7FCF5B" fill-opacity=".8" d="M 116.988 139.24 L 138.995 139.24 C 139.062 139.24 139.106 139.24 139.106 139.262 L 139.106 150.19 C 139.106 150.212 139.062 150.212 138.995 150.212 L 116.988 150.212 C 116.922 150.212 116.861 150.212 116.861 150.19 L 116.861 139.262 C 116.861 139.24 116.927 139.24 116.988 139.24 Z"/>
   <path fill="#C52F2F" d="M 61.375 172.497 L 83.381 172.497 C 83.448 172.497 83.492 172.519 83.492 172.519 L 83.492 183.597 C 83.492 183.597 83.448 183.62 83.381 183.62 L 61.375 183.62 C 61.308 183.62 61.247 183.597 61.247 183.597 L 61.247 172.519 C 61.247 172.519 61.314 172.497 61.375 172.497 Z"/>
   <path fill="#C52F2F" fill-opacity=".902" d="M 61.375 155.924 L 83.381 155.924 C 83.448 155.924 83.492 155.946 83.492 155.946 L 83.492 166.897 C 83.492 166.897 83.448 166.897 83.381 166.897 L 61.375 166.897 C 61.308 166.897 61.247 166.897 61.247 166.897 L 61.247 155.946 C 61.247 155.946 61.314 155.924 61.375 155.924 Z"/>
   <path fill="#C52F2F" fill-opacity=".8" d="M 61.375 139.351 L 83.381 139.351 C 83.448 139.351 83.492 139.351 83.492 139.351 L 83.492 150.235 C 83.492 150.257 83.448 150.257 83.381 150.257 L 61.375 150.257 C 61.308 150.257 61.247 150.257 61.247 150.235 L 61.247 139.351 C 61.247 139.351 61.314 139.351 61.375 139.351 Z"/>
   <path fill="#C52F2F" fill-opacity=".702" d="M 61.375 122.723 L 83.381 122.723 C 83.448 122.723 83.492 122.723 83.492 122.745 L 83.492 133.539 C 83.492 133.539 83.448 133.562 83.381 133.562 L 61.375 133.562 C 61.308 133.562 61.247 133.539 61.247 133.539 L 61.247 122.745 C 61.247 122.723 61.314 122.723 61.375 122.723 Z"/>
   <path fill="#C52F2F" fill-opacity=".6" d="M 61.375 106.094 L 83.381 106.094 C 83.448 106.094 83.492 106.116 83.492 106.116 L 83.492 116.85 C 83.492 116.85 83.448 116.85 83.381 116.85 L 61.375 116.85 C 61.308 116.85 61.247 116.85 61.247 116.85 L 61.247 106.116 C 61.247 106.116 61.314 106.094 61.375 106.094 Z"/>
   <path fill="#C52F2F" fill-opacity=".502" d="M 61.375 89.076 L 83.381 89.076 C 83.448 89.076 83.492 89.076 83.492 89.099 L 83.492 100.155 C 83.492 100.177 83.448 100.177 83.381 100.177 L 61.375 100.177 C 61.308 100.177 61.247 100.177 61.247 100.155 L 61.247 89.099 C 61.247 89.076 61.314 89.076 61.375 89.076 Z"/>
   <path fill="#C52F2F" fill-opacity=".4" d="M 61.375 72.392 L 83.381 72.392 C 83.448 72.392 83.492 72.414 83.492 72.414 L 83.492 83.493 C 83.492 83.493 83.448 83.515 83.381 83.515 L 61.375 83.515 C 61.308 83.515 61.247 83.493 61.247 83.493 L 61.247 72.414 C 61.247 72.414 61.314 72.392 61.375 72.392 Z"/>
   <path fill="#DB4CDB" d="M 33.568 172.497 L 55.574 172.497 C 55.641 172.497 55.686 172.519 55.686 172.519 L 55.686 183.597 C 55.686 183.597 55.641 183.62 55.574 183.62 L 33.568 183.62 C 33.501 183.62 33.44 183.597 33.44 183.597 L 33.44 172.519 C 33.44 172.519 33.507 172.497 33.568 172.497 Z"/>
   <path fill="#DB4CDB" fill-opacity=".902" d="M 33.568 155.813 L 55.574 155.813 C 55.641 155.813 55.686 155.813 55.686 155.835 L 55.686 166.846 C 55.686 166.846 55.641 166.869 55.574 166.869 L 33.568 166.869 C 33.501 166.869 33.44 166.846 33.44 166.846 L 33.44 155.835 C 33.44 155.813 33.507 155.813 33.568 155.813 Z"/>
   <path fill="#DB4CDB" fill-opacity=".8" d="M 33.568 139.24 L 55.574 139.24 C 55.641 139.24 55.686 139.24 55.686 139.262 L 55.686 150.19 C 55.686 150.212 55.641 150.212 55.574 150.212 L 33.568 150.212 C 33.501 150.212 33.44 150.212 33.44 150.19 L 33.44 139.262 C 33.44 139.24 33.507 139.24 33.568 139.24 Z"/>
   <path fill="#DB4CDB" fill-opacity=".702" d="M 33.568 122.445 L 55.574 122.445 C 55.641 122.445 55.686 122.467 55.686 122.467 L 55.686 133.328 C 55.686 133.328 55.641 133.35 55.574 133.35 L 33.568 133.35 C 33.501 133.35 33.44 133.328 33.44 133.328 L 33.44 122.467 C 33.44 122.467 33.507 122.445 33.568 122.445 Z"/>
   <path fill="#DB4CDB" fill-opacity=".6" d="M 33.568 105.76 L 55.574 105.76 C 55.641 105.76 55.686 105.76 55.686 105.783 L 55.686 116.577 C 55.686 116.577 55.641 116.6 55.574 116.6 L 33.568 116.6 C 33.501 116.6 33.44 116.577 33.44 116.577 L 33.44 105.783 C 33.44 105.76 33.507 105.76 33.568 105.76 Z"/>
   <path fill="#3D8DEC" fill-opacity=".502" d="M 5.65 89.076 L 5.65 100.199 L 27.723 100.199 C 27.79 100.199 27.895 100.199 27.895 100.199 L 27.895 89.076 C 27.895 89.054 27.784 89.076 27.723 89.076 M 5.65 105.76 L 5.65 116.883 L 27.723 116.883 C 27.79 116.883 27.895 116.883 27.895 116.883 L 27.895 106.105 C 27.895 106.083 27.784 106.105 27.723 106.105 M 5.65 122.445 C 5.65 128.006 5.65 129.524 5.65 133.567 L 27.723 133.567 C 27.79 133.567 27.895 133.567 27.895 133.567 L 27.895 122.789 C 27.895 122.767 27.784 122.789 27.723 122.789 M 5.65 139.129 C 5.65 142.888 5.65 147.081 5.65 150.251 L 27.723 150.251 C 27.79 150.251 27.895 150.251 27.895 150.251 L 27.895 139.301 C 27.895 139.279 27.784 139.301 27.723 139.301 M 5.65 155.813 C 5.65 161.374 5.65 163.587 5.65 166.935 L 27.723 166.935 C 27.79 166.935 27.895 166.935 27.895 166.935 L 27.895 155.985 C 27.895 155.963 27.784 155.985 27.723 155.985 M 5.65 172.497 C 5.65 176.301 5.65 179.732 5.65 183.62 L 27.723 183.62 C 27.79 183.62 27.895 183.62 27.895 183.62 L 27.895 172.497 C 27.895 172.475 27.784 172.497 27.723 172.497"/>
   <path fill="#C52F2F" d="M 200.409 172.497 L 222.438 172.497 C 222.504 172.497 222.549 172.519 222.549 172.519 L 222.549 183.597 C 222.549 183.597 222.504 183.62 222.438 183.62 L 200.409 183.62 C 200.342 183.62 200.298 183.597 200.298 183.597 L 200.298 172.519 C 200.298 172.519 200.342 172.497 200.409 172.497 Z"/>
   <path fill="#C52F2F" fill-opacity=".902" d="M 200.409 155.924 L 222.438 155.924 C 222.504 155.924 222.549 155.946 222.549 155.946 L 222.549 166.897 C 222.549 166.897 222.504 166.897 222.438 166.897 L 200.409 166.897 C 200.342 166.897 200.298 166.897 200.298 166.897 L 200.298 155.946 C 200.298 155.946 200.342 155.924 200.409 155.924 Z"/>
   <path fill="#C52F2F" fill-opacity=".8" d="M 200.409 139.351 L 222.438 139.351 C 222.504 139.351 222.549 139.351 222.549 139.351 L 222.549 150.235 C 222.549 150.257 222.504 150.257 222.438 150.257 L 200.409 150.257 C 200.342 150.257 200.298 150.257 200.298 150.235 L 200.298 139.351 C 200.298 139.351 200.342 139.351 200.409 139.351 Z"/>
   <path fill="#C52F2F" fill-opacity=".702" d="M 200.409 122.723 L 222.438 122.723 C 222.504 122.723 222.549 122.723 222.549 122.745 L 222.549 133.539 C 222.549 133.539 222.504 133.562 222.438 133.562 L 200.409 133.562 C 200.342 133.562 200.298 133.539 200.298 133.539 L 200.298 122.745 C 200.298 122.723 200.342 122.723 200.409 122.723 Z"/>
   <path fill="#C52F2F" fill-opacity=".6" d="M 200.409 106.094 L 222.438 106.094 C 222.504 106.094 222.549 106.116 222.549 106.116 L 222.549 116.85 C 222.549 116.85 222.504 116.85 222.438 116.85 L 200.409 116.85 C 200.342 116.85 200.298 116.85 200.298 116.85 L 200.298 106.116 C 200.298 106.116 200.342 106.094 200.409 106.094 Z"/>
   <path fill="#C52F2F" fill-opacity=".502" d="M 200.409 89.076 L 222.438 89.076 C 222.504 89.076 222.549 89.076 222.549 89.099 L 222.549 100.155 C 222.549 100.177 222.504 100.177 222.438 100.177 L 200.409 100.177 C 200.342 100.177 200.298 100.177 200.298 100.155 L 200.298 89.099 C 200.298 89.076 200.342 89.076 200.409 89.076 Z"/>
   <path fill="#C52F2F" fill-opacity=".4" d="M 200.409 72.392 L 222.438 72.392 C 222.504 72.392 222.549 72.414 222.549 72.414 L 222.549 83.493 C 222.549 83.493 222.504 83.515 222.438 83.515 L 200.409 83.515 C 200.342 83.515 200.298 83.493 200.298 83.493 L 200.298 72.414 C 200.298 72.414 200.342 72.392 200.409 72.392 Z"/>
   <path fill="#F9F9F9" stroke="#F9F9F9" stroke-width=".624" d="M 61.29 107.406 L 69.724 107.406 C 71.852 107.406 73.547 109.14 73.547 111.466 L 73.547 144.551 C 73.547 146.679 71.852 148.591 69.724 148.591 L 61.29 148.591 C 59.162 148.591 57.447 146.679 57.447 144.551 L 57.447 111.466 C 57.447 109.14 59.162 107.406 61.29 107.406 Z" vector-effect="non-scaling-stroke"/>
   <path fill="#F9F9F9" stroke="#F9F9F9" stroke-linecap="round" stroke-linejoin="round" stroke-width=".454" d="M 71.892 109.298 L 119.461 66.064 L 119.461 120.806 L 125.254 129.713 L 119.461 136.295 L 119.461 189.736 L 71.714 147.96" vector-effect="non-scaling-stroke"/>
   <path fill="#F9F9F9" d="M 132.15 105.75 C 131.42 104.98 131.02 103.95 131.05 102.89 C 131.08 101.83 131.52 100.82 132.29 100.09 C 133.06 99.36 134.09 98.97 135.15 98.99 C 136.21 99.02 137.22 99.47 137.95 100.24 C 141.52 103.99 144.31 108.41 146.17 113.25 C 147.98 117.95 148.91 122.95 148.91 127.99 C 148.91 133.03 147.98 138.03 146.17 142.74 C 144.31 147.58 141.52 152 137.95 155.76 C 137.22 156.53 136.21 156.98 135.15 157 C 134.09 157.03 133.06 156.64 132.29 155.91 C 131.52 155.18 131.08 154.17 131.05 153.11 C 131.02 152.05 131.42 151.02 132.15 150.25 C 134.99 147.25 137.22 143.72 138.71 139.87 C 140.17 136.08 140.91 132.05 140.91 127.99 C 140.91 123.93 140.17 119.91 138.71 116.12 C 137.22 112.27 135 108.74 132.15 105.75 Z"/>
   <path fill="#F9F9F9" d="M 149.51 88.28 C 148.78 87.51 148.38 86.49 148.41 85.43 C 148.44 84.37 148.89 83.36 149.66 82.63 C 150.43 81.9 151.46 81.51 152.52 81.53 C 153.58 81.56 154.58 82.01 155.31 82.78 C 161.11 88.9 165.65 96.1 168.67 103.97 C 171.61 111.64 173.12 119.78 173.11 128 C 173.12 136.22 171.61 144.37 168.67 152.04 C 165.65 159.91 161.11 167.11 155.31 173.23 C 154.58 174 153.58 174.45 152.52 174.48 C 151.46 174.51 150.43 174.12 149.66 173.39 C 148.89 172.66 148.44 171.65 148.41 170.59 C 148.38 169.53 148.78 168.5 149.5 167.73 C 154.58 162.37 158.55 156.07 161.2 149.17 C 163.79 142.42 165.12 135.24 165.11 128 C 165.12 120.76 163.79 113.59 161.2 106.83 C 158.56 99.94 154.58 93.64 149.51 88.28 Z"/>
   <path fill="#F9F9F9" d="M 167.6 69.83 C 166.87 69.06 166.47 68.03 166.5 66.97 C 166.53 65.91 166.97 64.9 167.74 64.17 C 168.51 63.44 169.54 63.04 170.6 63.07 C 171.66 63.1 172.67 63.54 173.4 64.31 C 181.58 72.92 188 83.05 192.27 94.13 C 196.43 104.94 198.56 116.42 198.54 128 C 198.56 139.58 196.43 151.06 192.27 161.87 C 188 172.95 181.58 183.08 173.4 191.69 C 172.67 192.45 171.66 192.9 170.6 192.93 C 169.54 192.95 168.51 192.56 167.74 191.83 C 166.97 191.1 166.53 190.09 166.5 189.03 C 166.47 187.97 166.87 186.94 167.6 186.17 C 175.06 178.33 180.91 169.09 184.8 158.99 C 188.61 149.1 190.56 138.59 190.54 128 C 190.56 117.4 188.61 106.9 184.8 97.01 C 180.91 86.91 175.06 77.67 167.6 69.83 Z"/>
   <path fill="#E4C82F" fill-opacity=".6" d="M 228.105 105.76 L 228.105 116.538 C 228.105 116.561 228.216 116.538 228.277 116.538 L 250.35 116.889 L 250.35 105.766 L 228.277 105.766 C 228.21 105.766 228.105 105.766 228.105 105.766 M 228.105 122.45 L 228.105 133.4 C 228.105 133.423 228.216 133.4 228.277 133.4 L 250.35 133.4 L 250.35 122.45 L 228.277 122.45 C 228.21 122.45 228.105 122.428 228.105 122.45 Z M 228.105 139.134 L 228.105 150.084 C 228.105 150.107 228.216 150.084 228.277 150.084 L 250.35 150.257 L 250.35 139.134 L 228.277 139.134 C 228.21 139.134 228.105 139.112 228.105 139.134 Z M 228.105 155.818 L 228.105 166.769 C 228.105 166.791 228.216 166.769 228.277 166.769 L 250.35 166.941 L 250.35 155.818 L 228.277 155.818 C 228.21 155.818 228.105 155.796 228.105 155.818 Z M 228.105 172.502 L 228.105 183.625 C 228.105 183.625 228.216 183.625 228.277 183.625 L 250.35 183.625 L 250.35 172.502 L 228.277 172.502 C 228.21 172.502 228.105 172.48 228.105 172.502 Z"/>
  </g>
 </g>
 <g opacity=".4">
  <linearGradient id="_lgradient_73" x1=".517" x2=".517" y1="0" y2="1">
   <stop offset="0%" style="stop-color:rgb(255,255,255)"/>
   <stop offset="12.5%" stop-opacity=".098" style="stop-color:rgb(255,255,255)"/>
   <stop offset="92.5%" stop-opacity=".098" style="stop-color:rgb(0,0,0)"/>
   <stop offset="100%" stop-opacity=".498" style="stop-color:rgb(0,0,0)"/>
  </linearGradient>
  <path fill="none" stroke="url(#_lgradient_73)" stroke-linecap="round" stroke-linejoin="round" stroke-width="4.077" d="M 165.685 11.947 C 239.74 11.947 250.324 22.504 250.324 96.491 L 250.324 155.742 C 250.324 229.728 239.74 240.285 165.685 240.285 L 90.315 240.285 C 16.26 240.285 5.676 229.728 5.676 155.742 L 5.676 96.491 C 5.676 22.504 16.26 11.947 90.315 11.947 L 165.685 11.947 Z" vector-effect="non-scaling-stroke"/>
 </g>
</svg>
