<svg xmlns="http://www.w3.org/2000/svg" style="isolation:isolate" width="256" height="256"><switch><g><defs><filter id="a" width="270.648" height="254.338" x="-7.32" y="2.95" filterUnits="userSpaceOnUse"><feGaussianBlur xmlns="http://www.w3.org/2000/svg" in="SourceGraphic" stdDeviation="4.294"/><feOffset xmlns="http://www.w3.org/2000/svg" dy="4" result="pf_100_offsetBlur"/><feFlood xmlns="http://www.w3.org/2000/svg" flood-opacity=".4"/><feComposite xmlns="http://www.w3.org/2000/svg" in2="pf_100_offsetBlur" operator="in" result="pf_100_dropShadow"/><feBlend xmlns="http://www.w3.org/2000/svg" in="SourceGraphic" in2="pf_100_dropShadow"/></filter></defs><path fill="#D9D9D9" d="M165.685 11.947c74.055 0 84.639 10.557 84.639 84.544v59.251c0 73.986-10.584 84.543-84.639 84.543h-75.37c-74.055 0-84.639-10.557-84.639-84.543V96.491c0-73.987 10.584-84.544 84.639-84.544h75.37z" filter="url(#a)"/><path fill="#DE2910" d="M65.375 78.625L40 89.825V15.938C52.797 13.141 69.407 11.839 89.8 12v77.825l-24.425-11.2z"/><path fill="#FFDE00" d="M44.98 57.375l13.513-4.391-8.351 11.495V50.271l8.351 11.495-13.513-4.391zM42.689 43.951l4.718.415-4.062 2.437 1.854-4.358 1.062 4.615-3.572-3.109zM48.226 38.158l4.187 2.214-4.689.67 3.4-3.298-.812 4.666-2.086-4.252zM56.576 37.606l2.92 3.729-4.554-1.301 4.449-1.624-2.645 3.929-.17-4.733zM60.08 44.046l4.731.22-3.956 2.603 1.671-4.431 1.253 4.567-3.699-2.959z"/><g opacity=".4"><linearGradient id="b" x1=".517" x2=".517" y2="1"><stop offset="0%" stop-color="#fff"/><stop offset="12.5%" stop-opacity=".098" stop-color="#fff"/><stop offset="92.5%" stop-opacity=".098"/><stop offset="100%" stop-opacity=".498"/></linearGradient><path fill="none" stroke="url(#b)" stroke-linecap="round" stroke-linejoin="round" stroke-width="4.077" d="M165.685 11.947c74.055 0 84.639 10.557 84.639 84.544v59.251c0 73.986-10.584 84.543-84.639 84.543h-75.37c-74.055 0-84.639-10.557-84.639-84.543V96.491c0-73.987 10.584-84.544 84.639-84.544h75.37z" vector-effect="non-scaling-stroke"/></g><g fill-rule="evenodd"><path fill="#201F1F" d="M136.09 118.046c0 5.943.152 10.886-2.717 16.152-2.309 4.278-5.978 6.912-10.069 6.912-5.587 0-8.831-4.447-8.831-11.021 0-12.973 11.109-15.334 21.621-15.334v3.295m14.674 37.09c-.952.9-2.344.97-3.431.374-4.821-4.195-5.691-6.148-8.356-10.156-7.982 8.526-13.621 11.073-23.981 11.073-12.243 0-21.782-7.895-21.782-23.707 0-12.348 6.404-20.769 15.504-24.882 7.882-3.635 18.921-4.278 27.359-5.282v-1.97c0-3.617.274-7.895-1.747-11.021-1.783-2.804-5.178-3.957-8.17-3.957-5.552 0-10.495 2.974-11.699 9.139-.257 1.374-1.205 2.717-2.531 2.787L97.822 95.96c-1.187-.287-2.496-1.291-2.174-3.191C98.909 74.904 114.365 69.5 128.186 69.5c7.082 0 16.338 1.969 21.912 7.574 7.083 6.912 6.404 16.134 6.404 26.173v23.707c0 7.135 2.818 10.256 5.487 14.113.935 1.361 1.139 3.021-.035 4.043a695.957 695.957 0 0 0-11.156 10.104l-.052-.052"/><path fill="#F34F17" d="M173.654 168.166c-12.382 9.339-30.316 14.334-45.768 14.334-21.651 0-41.151-8.204-55.907-21.869-1.156-1.069-.117-2.53 1.274-1.7 15.913 9.496 35.612 15.2 55.942 15.2 13.703 0 28.803-2.904 42.663-8.952 2.104-.9 3.857 1.409 1.8 2.974"/><path fill="#F34F17" d="M178.801 162.131c-1.578-2.074-10.46-.987-14.434-.491-1.222.152-1.408-.935-.304-1.717 7.065-5.096 18.682-3.635 20.021-1.918 1.361 1.718-.339 13.639-6.996 19.326-1.017.882-1.986.408-1.53-.748 1.478-3.822 4.839-12.382 3.243-14.452z"/></g></g></switch> </svg>