<svg xmlns="http://www.w3.org/2000/svg" style="isolation:isolate" width="256" height="256"><switch><g><defs><filter id="a" width="270.648" height="254.338" x="-7.32" y="2.95" filterUnits="userSpaceOnUse"><feGaussianBlur xmlns="http://www.w3.org/2000/svg" in="SourceGraphic" stdDeviation="4.294"/><feOffset xmlns="http://www.w3.org/2000/svg" dy="4" result="pf_100_offsetBlur"/><feFlood xmlns="http://www.w3.org/2000/svg" flood-opacity=".4"/><feComposite xmlns="http://www.w3.org/2000/svg" in2="pf_100_offsetBlur" operator="in" result="pf_100_dropShadow"/><feBlend xmlns="http://www.w3.org/2000/svg" in="SourceGraphic" in2="pf_100_dropShadow"/></filter></defs><path fill="#C8C4B7" d="M165.685 11.947c74.055 0 84.639 10.557 84.639 84.544v59.251c0 73.986-10.584 84.543-84.639 84.543h-75.37c-74.055 0-84.639-10.557-84.639-84.543V96.491c0-73.987 10.584-84.544 84.639-84.544h75.37z" filter="url(#a)"/><path fill="#FFF" d="M5.676 126.116v29.626c0 73.986 10.584 84.543 84.639 84.543h75.37c74.055 0 84.639-10.557 84.639-84.543v-29.626H5.676z" opacity=".1"/><path fill="#895C33" d="M199.818 19.513c-2.207.281-5.126 5.578-7.379 10.265-5.135 10.684-10.445 22.328-15.205 36.72-4.734 14.312-5.431 13.768-.661 41.691 4.993-.429 15.857.691 20.811 2.35.51-1.259.899-3.266 1.345-4.605 6.999-21.03 4.858-51.238 4.285-75.357-.202-8.477-1.479-11.285-3.196-11.064zM96.155 72.105c-7.209 1.497 12.017 26.765 17.52 33.102 4.992 5.747 16.686 15.093 26.054 22.667a429.326 429.326 0 0 0 5.485 4.349s1.135 1.173 1.676.525c3.056-3.669 12.706-17.6 16.817-19.892l-.705-.827c-14.448-16.043-36.205-28.769-62.021-38.982-2.226-.881-3.796-1.156-4.826-.942z"/><path fill="#C37E3F" d="M163.015 240.453h2.535c9.257 0 17.522-.165 24.898-.598 3.689-.217 7.155-.5 10.413-.863 1.959-.219 3.698-.529 5.509-.809 2.447-.53 5.274-1.14 7.118-1.504a46.55 46.55 0 0 0 4.777-1.213c4.878-1.506 9.583-3.806 13.806-6.687l.03-.002c.204-.144.376-.318.578-.463.402-.283.757-.612 1.152-.902.588-.509 1.261-.939 1.809-1.487a33.316 33.316 0 0 0 4.043-4.904 39.552 39.552 0 0 0 3.252-5.848c.961-2.115 1.803-4.402 2.539-6.871.736-2.469 1.367-5.122 1.904-7.97.418-2.218.735-4.66 1.047-7.122-1.127-4.015-3.234-8.043-6.641-11.957-13.941-16.017-29.423-35.911-33.414-59.4-.834-3.386-2.478-6.209-4.72-8.498-7.582-7.001-20.842-7.781-29.854-6.545l.002.006c-16.201 3.858-25.822 14.118-30.486 27.408-.56 3.234-.613 6.743-.08 10.496 1.842 12.982 7.321 22.434 8.031 35.787.962 18.099-10.919 30.794-2.67 46.106.18.378.268.733.471 1.115 1.714 3.241 4.661 6.432 8.66 9.891.647.56 1.388 1.023 2.142 1.474.938.574 2.072.936 3.149 1.36z"/><path fill="none" d="M208.38 121.904c-6.975-28.311-70.859-17.678-65.112 22.825 1.839 12.962 7.321 22.403 8.028 35.737 1.177 22.19-17.071 36.242 6.444 56.988 11.876 10.477 42.683 1.798 55.751-.795 25.058-4.97 48.527-32.202 28.279-55.445-13.932-15.991-29.405-35.856-33.39-59.31z"/><path fill="#8E8E8E" d="M233.554 227.64c.685-.58 1.454-1.083 2.086-1.715a33.316 33.316 0 0 0 4.043-4.904 39.552 39.552 0 0 0 3.252-5.848c.961-2.115 1.803-4.402 2.539-6.871.736-2.469 1.367-5.122 1.904-7.97.408-2.16.714-4.545 1.02-6.936-1.159-3.766-3.239-7.536-6.489-11.201-3.669-5.193-8.627-8.406-14.285-10.25 2.062 1.745 3.579 4.427 4.201 8.812.944 6.653-8.023 17.88-9.806 27.438 2.147 7.689 5.769 15.091 10.086 20.582.511-.35.953-.771 1.449-1.137zM162.738 240.453h2.812c6.537 0 11.998-.221 17.582-.422-.541-4.309-.915-8.64-1.59-12.725-.068-.414-.14-.828-.215-1.236-2.635-10.811-23.096-10.055-25.283-25.465-.453-3.196.214-6.099 1.717-8.729.229-.4.64-.737.906-1.125-4.491 3.303-8.288 6.539-10.119 9.229-.026 4.411-6.254 14.861.559 27.746 1.713 3.241 4.659 6.425 8.656 9.885 1.4 1.211 3.105 2.116 4.975 2.842z"/><path fill="#E4E4E4" d="M183.132 240.031c2.324-.084 5.149-.049 7.316-.176 3.689-.217 7.155-.5 10.413-.863 2.037-.228 3.85-.547 5.726-.84 2.347-.512 5.126-1.116 6.906-1.467a46.199 46.199 0 0 0 4.776-1.211c4.886-1.509 9.605-3.809 13.834-6.699-4.317-5.491-7.937-12.893-10.084-20.582a59.513 59.513 0 0 1-1.615-7.633c-1.127-7.939-.129-22.309 2.466-30.947-4.3-.847-9.772.058-15.707.9-13.831 1.963-41.937 8.292-49.404 21.361 7.273 7.05 13.14 13.662 18.703 21.477 2.644 3.715 4.003 8.058 4.863 12.717.097.396.167.808.215 1.236.675 4.086 1.051 8.417 1.592 12.727z"/><path fill="#3F3F3F" d="M176.462 213.351c-5.563-7.815-11.43-14.428-18.702-21.477-1.503 2.63-2.169 5.533-1.716 8.728 2.187 15.41 22.646 14.655 25.282 25.466-.86-4.658-2.22-9.003-4.864-12.717zM222.871 169.614c-2.595 8.638-3.593 23.008-2.466 30.947.36 2.537.907 5.101 1.615 7.633 1.783-9.558 10.749-20.784 9.805-27.437-1.032-7.274-4.312-10.229-8.954-11.143z"/><path fill="#FFF" d="M195.354 134.495c-3.033 1.34-6.189 15.809-5.556 20.305.826 5.875 3.003 7.863 6.932 10.029 3.928 2.167 21.474 3.009 20.628-3.251-.833-6.166-1.801-11.365-3.12-14.711-1.319-3.346-3.934-9.668-7.731-12.012-2.385-1.473-8.12-1.699-11.153-.36z"/><circle fill="#3F3F3F" r="1" transform="matrix(5.59 -.793 .793 5.59 199.258 154.51)" vector-effect="non-scaling-stroke"/><path fill="#FFF" d="M177.999 153.663c-1.269-4.515-8.413-11.444-12.581-13.371-10.528-4.869-15.46 6.882-13.376 15.778 1.549 6.611 7.753 24.567 15.424 19.508 7.671-5.059 13.789-10.328 10.533-21.915z"/><circle fill="#3F3F3F" r="1" transform="matrix(5.59 -.793 .793 5.59 169.454 158.739)" vector-effect="non-scaling-stroke"/><g opacity=".4"><linearGradient id="b" x1=".517" x2=".517" y2="1"><stop offset="0%" stop-color="#fff"/><stop offset="12.5%" stop-opacity=".098" stop-color="#fff"/><stop offset="92.5%" stop-opacity=".098"/><stop offset="100%" stop-opacity=".498"/></linearGradient><path fill="none" stroke="url(#b)" stroke-linecap="round" stroke-linejoin="round" stroke-width="4.077" d="M165.685 11.947c74.055 0 84.639 10.557 84.639 84.544v59.251c0 73.986-10.584 84.543-84.639 84.543h-75.37c-74.055 0-84.639-10.557-84.639-84.543V96.491c0-73.987 10.584-84.544 84.639-84.544h75.37z" vector-effect="non-scaling-stroke"/></g></g></switch> </svg>