<?xml version="1.0" standalone="no"?><!-- Generator: Gravit.io --><svg xmlns="http://www.w3.org/2000/svg" xmlns:xlink="http://www.w3.org/1999/xlink" style="isolation:isolate" viewBox="0 0 256 256" width="256" height="256"><defs><clipPath id="_clipPath_n58L1s4JmFSHd2etCH4gNVJvMmfiTyDi"><rect width="256" height="256"/></clipPath></defs><g clip-path="url(#_clipPath_n58L1s4JmFSHd2etCH4gNVJvMmfiTyDi)"><rect width="256" height="256" style="fill:rgba(0,0,0,0)"/><g id="icon"><g id="drop shadow"><defs><filter id="ZbFFIkZBuXyNlTRHmkocAoGcm4xQCuvY" x="-200%" y="-200%" width="400%" height="400%"><feGaussianBlur xmlns="http://www.w3.org/2000/svg" stdDeviation="2.32"/></filter></defs><g opacity="0.2" filter="url(#ZbFFIkZBuXyNlTRHmkocAoGcm4xQCuvY)"><path d=" M 165.685 15.849 C 239.741 15.849 250.325 26.407 250.325 100.394 L 250.325 159.645 C 250.325 233.632 239.741 244.189 165.685 244.189 L 90.315 244.189 C 16.259 244.189 5.675 233.632 5.675 159.645 L 5.675 100.394 C 5.675 26.407 16.259 15.849 90.315 15.849 L 165.685 15.849 Z " fill="rgb(0,0,0)"/></g><defs><filter id="Ha7opPLyP7nhwgxXYpfgGOD2izqnpYTn" x="-200%" y="-200%" width="400%" height="400%"><feGaussianBlur xmlns="http://www.w3.org/2000/svg" stdDeviation="1.16"/></filter></defs><g opacity="0.1" filter="url(#Ha7opPLyP7nhwgxXYpfgGOD2izqnpYTn)"><path d=" M 165.685 14.83 C 239.741 14.83 250.325 25.387 250.325 99.374 L 250.325 158.626 C 250.325 232.612 239.741 243.17 165.685 243.17 L 90.315 243.17 C 16.259 243.17 5.675 232.612 5.675 158.626 L 5.675 99.374 C 5.675 25.387 16.259 14.83 90.315 14.83 L 165.685 14.83 Z " fill="rgb(0,0,0)"/></g></g><path d=" M 165.685 13.811 C 239.741 13.811 250.325 24.368 250.325 98.355 L 250.325 157.606 C 250.325 231.593 239.741 242.151 165.685 242.151 L 90.315 242.151 C 16.259 242.151 5.675 231.593 5.675 157.606 L 5.675 98.355 C 5.675 24.368 16.259 13.811 90.315 13.811 L 165.685 13.811 Z " fill="rgb(255,255,255)"/><clipPath id="_clipPath_XlHIpALg9i0KjI1Xr7TPMSSsj1lXtaWy"><path d=" M 165.685 13.811 C 239.741 13.811 250.325 24.368 250.325 98.355 L 250.325 157.606 C 250.325 231.593 239.741 242.151 165.685 242.151 L 90.315 242.151 C 16.259 242.151 5.675 231.593 5.675 157.606 L 5.675 98.355 C 5.675 24.368 16.259 13.811 90.315 13.811 L 165.685 13.811 Z " fill="rgb(255,255,255)"/></clipPath><g clip-path="url(#_clipPath_XlHIpALg9i0KjI1Xr7TPMSSsj1lXtaWy)"><path d=" M 165.81 13.811 C 239.866 13.811 250.45 24.368 250.45 98.355 L 250.45 157.606 C 250.45 231.593 239.866 242.151 165.81 242.151 L 90.44 242.151 C 16.384 242.151 5.8 231.593 5.8 157.606 L 5.8 98.355 C 5.8 24.368 16.384 13.811 90.44 13.811 L 165.81 13.811 Z " fill="rgb(51,51,51)"/><g id="holds"><g opacity="0.1"><rect x="88.225" y="12.997" width="81.549" height="228.338" transform="matrix(1,0,0,1,0,0)" fill="rgb(255,255,255)"/></g><g opacity="0.1"><path d=" M 6.676 127.167 L 6.676 156.792 C 6.676 230.778 17.26 241.336 91.315 241.336 L 166.685 241.336 C 240.74 241.336 251.324 230.778 251.324 156.792 L 251.324 127.167 L 6.676 127.167 Z " fill="rgb(255,255,255)"/></g></g><path d=" M 100.823 52.988 L 100.834 53 C 99.513 53.057 98.734 54.505 99.415 55.636 L 104.878 65.034 C 94.073 71.506 87.635 82.087 87.629 93.382 L 168.394 93.382 C 168.371 82.092 161.927 71.518 151.122 65.057 L 156.608 55.636 C 157.295 54.482 156.476 53.017 155.131 53 C 154.491 52.988 153.903 53.334 153.585 53.888 L 148.053 63.384 C 141.955 60.372 135.032 58.757 127.994 58.751 C 120.956 58.745 114.039 60.355 107.936 63.361 L 102.415 53.871 C 102.092 53.294 101.474 52.953 100.817 52.982 L 100.823 52.988 Z  M 107.809 76.064 C 109.401 76.064 110.693 77.356 110.693 78.948 C 110.693 80.541 109.401 81.833 107.809 81.833 C 106.216 81.833 104.924 80.541 104.924 78.948 C 104.924 77.356 106.216 76.064 107.809 76.064 Z  M 148.191 76.064 C 149.784 76.064 151.076 77.356 151.076 78.948 C 151.076 80.541 149.784 81.833 148.191 81.833 C 146.599 81.833 145.307 80.541 145.307 78.948 C 145.307 77.356 146.599 76.064 148.191 76.064 Z  M 73.195 99.14 C 68.401 99.14 64.542 102.999 64.542 107.793 L 64.542 148.176 C 64.542 152.97 68.401 156.829 73.195 156.829 C 77.989 156.829 81.848 152.97 81.848 148.176 L 81.848 107.793 C 81.848 102.999 77.989 99.14 73.195 99.14 Z  M 87.617 99.14 L 87.617 162.598 C 87.617 168.99 92.763 174.136 99.155 174.136 L 104.924 174.136 L 104.924 194.327 C 104.924 199.121 108.784 202.981 113.578 202.981 C 118.372 202.981 122.231 199.121 122.231 194.327 L 122.231 174.136 L 133.769 174.136 L 133.769 194.327 C 133.769 199.121 137.628 202.981 142.422 202.981 C 147.216 202.981 151.076 199.121 151.076 194.327 L 151.076 174.136 L 156.845 174.136 C 163.237 174.136 168.383 168.99 168.383 162.598 L 168.383 99.14 L 87.617 99.14 Z  M 182.805 99.14 C 178.011 99.14 174.152 102.999 174.152 107.793 L 174.152 148.176 C 174.152 152.97 178.011 156.829 182.805 156.829 C 187.599 156.829 191.458 152.97 191.458 148.176 L 191.458 107.793 C 191.458 102.999 187.599 99.14 182.805 99.14 Z  M 128.012 104.909 C 141.719 104.903 153.528 114.554 156.268 127.984 L 137.98 127.984 C 135.921 124.419 132.125 122.215 128.006 122.215 C 125.981 122.215 123.996 122.758 122.248 123.773 L 113.595 108.797 C 117.974 106.259 122.946 104.914 128.006 104.909 M 108.893 112.189 L 118.008 127.996 C 116.999 129.75 116.468 131.734 116.462 133.753 C 116.468 137.872 118.666 141.674 122.231 143.734 L 113.589 158.698 C 104.67 153.552 99.155 144.045 99.155 133.753 C 99.155 125.504 102.709 117.652 108.893 112.189 Z  M 128.006 127.984 C 131.19 127.984 133.775 130.569 133.775 133.753 C 133.775 136.938 131.19 139.522 128.006 139.522 C 124.821 139.522 122.237 136.938 122.237 133.753 C 122.237 130.569 124.821 127.984 128.006 127.984 Z  M 139.544 133.753 L 156.85 133.753 C 156.85 149.681 143.934 162.598 128.006 162.598 C 124.908 162.598 121.827 162.079 118.891 161.087 L 128.006 145.291 C 134.38 145.291 139.544 140.128 139.544 133.753 Z " fill="rgb(253,201,43)"/><path d=" M 98 134 C 98 117.443 111.443 104 128 104 C 144.557 104 158 117.443 158 134 C 158 150.557 144.557 164 128 164 C 111.443 164 98 150.557 98 134 Z " fill="rgb(255,255,255)"/><clipPath id="_clipPath_S2WlabEyNxRTR0ceEyfGo2rzuUw3dzC7"><path d=" M 98 134 C 98 117.443 111.443 104 128 104 C 144.557 104 158 117.443 158 134 C 158 150.557 144.557 164 128 164 C 111.443 164 98 150.557 98 134 Z " fill="rgb(255,255,255)"/></clipPath><g clip-path="url(#_clipPath_S2WlabEyNxRTR0ceEyfGo2rzuUw3dzC7)"><g id="Chrome"><path d=" M 118.096 103.995 C 115.663 103.995 113.491 104.038 111.553 104.152 C 109.614 104.266 107.908 104.45 106.409 104.732 C 104.911 105.014 103.619 105.394 102.505 105.898 C 101.949 106.151 101.437 106.433 100.966 106.751 C 100.496 107.069 100.067 107.422 99.676 107.813 C 99.285 108.203 98.932 108.631 98.613 109.101 C 98.295 109.571 98.011 110.083 97.758 110.639 C 97.253 111.751 96.873 113.042 96.591 114.539 C 96.309 116.036 96.124 117.74 96.01 119.676 C 95.896 121.613 95.852 123.783 95.852 126.214 L 95.852 141.785 C 95.852 144.216 95.896 146.386 96.01 148.323 C 96.124 150.259 96.309 151.964 96.591 153.461 C 96.873 154.958 97.253 156.249 97.758 157.361 C 98.011 157.917 98.295 158.428 98.613 158.898 C 98.932 159.368 99.285 159.797 99.676 160.187 C 100.067 160.578 100.496 160.93 100.966 161.248 C 101.437 161.566 101.949 161.849 102.505 162.102 C 103.619 162.606 104.911 162.985 106.409 163.267 C 107.908 163.549 109.614 163.733 111.553 163.847 C 113.491 163.961 115.663 164.005 118.096 164.005 L 137.905 164.005 C 140.338 164.005 142.51 163.961 144.448 163.847 C 146.387 163.733 148.092 163.549 149.591 163.267 C 151.089 162.985 152.382 162.606 153.496 162.102 C 154.052 161.849 154.564 161.566 155.035 161.248 C 155.505 160.93 155.934 160.578 156.325 160.187 C 156.716 159.797 157.069 159.368 157.388 158.898 C 157.706 158.428 157.989 157.917 158.242 157.361 C 158.747 156.249 159.128 154.958 159.41 153.461 C 159.693 151.964 159.877 150.259 159.991 148.323 C 160.105 146.386 160.148 144.216 160.148 141.785 L 160.148 126.214 C 160.148 123.783 160.105 121.613 159.991 119.676 C 159.877 117.74 159.693 116.036 159.41 114.539 C 159.128 113.042 158.747 111.751 158.242 110.639 C 157.989 110.083 157.706 109.571 157.388 109.101 C 157.069 108.631 156.716 108.203 156.325 107.813 C 155.934 107.422 155.505 107.069 155.035 106.751 C 154.564 106.433 154.052 106.151 153.496 105.898 C 152.382 105.394 151.089 105.014 149.591 104.732 C 148.092 104.45 146.387 104.266 144.448 104.152 C 142.51 104.038 140.338 103.995 137.905 103.995 L 118.096 103.995 Z " fill="rgb(113,211,117)"/><path d=" M 159.91 118.963 C 159.794 117.35 159.653 115.829 159.41 114.539 C 159.128 113.042 158.747 111.751 158.242 110.639 C 157.989 110.083 157.706 109.571 157.388 109.101 C 157.069 108.631 156.716 108.203 156.325 107.813 C 155.934 107.422 155.505 107.069 155.035 106.751 C 154.564 106.433 154.052 106.151 153.496 105.898 C 152.382 105.394 151.089 105.014 149.591 104.732 C 148.092 104.45 146.387 104.266 144.448 104.152 C 142.51 104.038 140.338 103.995 137.905 103.995 L 118.096 103.995 C 115.663 103.995 113.491 104.038 111.553 104.152 C 109.614 104.266 107.908 104.45 106.409 104.732 C 104.911 105.014 103.619 105.394 102.505 105.898 C 101.949 106.151 101.437 106.433 100.966 106.751 C 100.496 107.069 100.067 107.422 99.676 107.813 C 99.285 108.203 98.932 108.631 98.613 109.101 C 98.454 109.336 98.329 109.614 98.186 109.87 C 103.358 119.635 115.365 141.619 115.365 141.619 L 127.315 146.848 L 139.906 141.766 L 140.013 132.905 L 126.693 118.963 L 159.91 118.963 Z " fill="rgb(224,77,43)"/><path d=" M 124.291 164.005 L 137.905 164.005 C 140.338 164.005 142.51 163.961 144.448 163.847 C 146.387 163.733 148.092 163.549 149.591 163.267 C 151.089 162.985 152.382 162.606 153.496 162.102 C 154.052 161.849 154.564 161.566 155.035 161.248 C 155.505 160.93 155.934 160.578 156.325 160.187 C 156.716 159.797 157.069 159.368 157.388 158.898 C 157.706 158.428 157.989 157.917 158.242 157.361 C 158.747 156.249 159.128 154.958 159.41 153.461 C 159.693 151.964 159.877 150.259 159.991 148.323 C 160.105 146.386 160.148 144.216 160.148 141.785 L 160.148 126.214 C 160.148 123.783 160.105 121.613 159.991 119.676 C 159.975 119.407 159.929 119.223 159.91 118.963 L 126.693 118.963 L 140.013 132.905 L 139.906 141.766 L 136.196 143.263 L 136.319 143.392 L 124.291 164.005 Z  M 139.889 143.082 L 139.889 143.114 L 138.927 144.733 L 139.889 143.082 Z " fill="rgb(249,219,70)"/><path d=" M 114.8 134.124 C 114.8 126.839 120.715 120.924 128 120.924 C 135.286 120.924 141.201 126.839 141.201 134.124 C 141.201 141.41 135.286 147.325 128 147.325 C 120.715 147.325 114.8 141.41 114.8 134.124 Z " fill="rgb(0,165,255)"/><path d=" M 127.999 149.304 M 127.999 149.304 C 123.975 149.304 120.112 147.703 117.266 144.86 C 114.419 142.013 112.819 138.15 112.819 134.124 C 112.819 130.1 114.419 126.237 117.266 123.391 C 120.112 120.544 123.975 118.944 127.999 118.944 C 132.025 118.944 135.889 120.544 138.735 123.391 C 141.581 126.237 143.182 130.1 143.182 134.124 C 143.182 138.15 141.581 142.013 138.735 144.86 C 135.889 147.703 132.025 149.304 127.999 149.304 Z  M 127.999 145.346 C 125.027 145.346 122.17 144.161 120.067 142.058 C 117.962 139.956 116.779 137.099 116.779 134.124 C 116.779 131.149 117.962 128.295 120.067 126.189 C 122.17 124.087 125.027 122.904 127.999 122.904 C 130.974 122.904 133.831 124.087 135.933 126.189 C 138.038 128.295 139.221 131.149 139.221 134.124 C 139.221 137.099 138.038 139.956 135.933 142.058 C 133.831 144.161 130.974 145.346 127.999 145.346 C 127.999 145.346 127.999 145.346 127.999 145.346 L 127.999 145.346 Z " fill-rule="evenodd" fill="rgb(243,243,243)"/></g></g></g><g id="highlight"><clipPath id="_clipPath_QqHIvCLh2QndO3FY9h2meJa3H7m11pK4"><path d=" M 165.685 13.811 C 239.741 13.811 250.325 24.368 250.325 98.355 L 250.325 157.606 C 250.325 231.593 239.741 242.151 165.685 242.151 L 90.315 242.151 C 16.259 242.151 5.675 231.593 5.675 157.606 L 5.675 98.355 C 5.675 24.368 16.259 13.811 90.315 13.811 L 165.685 13.811 Z " fill="rgb(255,255,255)"/></clipPath><g clip-path="url(#_clipPath_QqHIvCLh2QndO3FY9h2meJa3H7m11pK4)"><g opacity="0.4"><linearGradient id="_lgradient_18" x1="51.666666666666686%" y1="0%" x2="51.66666666666666%" y2="100.00000000000003%"><stop offset="0%" stop-opacity="1" style="stop-color:rgb(255,255,255)"/><stop offset="12.5%" stop-opacity="0.09803922" style="stop-color:rgb(255,255,255)"/><stop offset="92.500001%" stop-opacity="0.09803922" style="stop-color:rgb(0,0,0)"/><stop offset="100%" stop-opacity="0.49803922" style="stop-color:rgb(0,0,0)"/></linearGradient><path d=" M 165.685 13.811 C 239.741 13.811 250.325 24.368 250.325 98.355 L 250.325 157.606 C 250.325 231.593 239.741 242.151 165.685 242.151 L 90.315 242.151 C 16.259 242.151 5.675 231.593 5.675 157.606 L 5.675 98.355 C 5.675 24.368 16.259 13.811 90.315 13.811 L 165.685 13.811 Z " fill="none" vector-effect="non-scaling-stroke" stroke-width="4" stroke="url(#_lgradient_18)" stroke-linejoin="round" stroke-linecap="round" stroke-miterlimit="4"/></g></g></g></g></g></svg>