<svg xmlns="http://www.w3.org/2000/svg" style="isolation:isolate" width="256" height="256"><switch><g><defs><filter id="a" width="270.648" height="254.338" x="-7.32" y="2.95" filterUnits="userSpaceOnUse"><feGaussianBlur xmlns="http://www.w3.org/2000/svg" in="SourceGraphic" stdDeviation="4.294"/><feOffset xmlns="http://www.w3.org/2000/svg" dy="4" result="pf_100_offsetBlur"/><feFlood xmlns="http://www.w3.org/2000/svg" flood-opacity=".4"/><feComposite xmlns="http://www.w3.org/2000/svg" in2="pf_100_offsetBlur" operator="in" result="pf_100_dropShadow"/><feBlend xmlns="http://www.w3.org/2000/svg" in="SourceGraphic" in2="pf_100_dropShadow"/></filter></defs><path fill="#76C22B" d="M165.685 11.947c74.055 0 84.639 10.557 84.639 84.544v59.251c0 73.986-10.584 84.543-84.639 84.543h-75.37c-74.055 0-84.639-10.557-84.639-84.543V96.491c0-73.987 10.584-84.544 84.639-84.544h75.37z" filter="url(#a)"/><path fill="#FFF" d="M5.676 126.116v29.626c0 73.986 10.584 84.543 84.639 84.543h75.37c74.055 0 84.639-10.557 84.639-84.543v-29.626H5.676z" opacity=".1"/><path fill="#FFF" d="M128 11.947v228.338h37.685c74.055 0 84.639-10.557 84.639-84.543V96.491c0-73.987-10.584-84.544-84.639-84.544H128z" opacity=".2"/><path fill="#E1E1E1" d="M203.068 194.48c-.085-.851-.341-1.617-.766-2.384l-27.249-47.259-9.026-15.753-16.86-29.122-12.858 12.858 15.838 27.504 8.686 15.072 26.312 45.471a4.909 4.909 0 0 0 1.703 1.788l13.113 8.941c.511.34 1.107.34 1.618.085.511-.341.766-.852.766-1.448l-1.277-15.753z"/><path fill="#F1F1F1" d="M178.118 96.385c0 12.432-4.598 23.843-12.176 32.699-3.917 4.513-8.515 8.345-13.795 11.24-7.153 4.002-15.412 6.216-24.183 6.216a49.714 49.714 0 0 1-24.098-6.216l15.838-27.504-12.858-12.858-53.22 92.134c-.426.767-.681 1.533-.766 2.384l-1.192 15.839c-.085.596.255 1.107.766 1.447.511.341 1.107.256 1.618-.085l13.113-8.856c.682-.511 1.278-1.107 1.703-1.788l26.312-45.556a67.045 67.045 0 0 0 32.869 8.6 67.045 67.045 0 0 0 32.869-8.6 66.527 66.527 0 0 0 14.135-10.559c12.603-12.262 20.522-29.463 20.522-48.452l-17.457-.085z"/><path fill="#646464" d="M144.313 61.558h-5.45V44.017H117.15v17.541h-5.535c-5.365 0-9.793 4.428-9.793 9.793v22.224h.085c-.085.852.426 1.788 1.533 2.895l19.67 19.671c1.363 1.362 3.151 2.043 4.854 2.043v-.085l.085.085c1.788 0 3.576-.681 4.854-2.043l19.67-19.671c1.107-1.107 1.533-2.128 1.533-2.895h.085V71.436c-.085-5.45-4.428-9.878-9.878-9.878zm-16.264 34.827h-.085c-7.153 0-13.028-5.875-13.028-13.113 0-7.238 5.875-13.114 13.028-13.114v-.17l.085.17c7.153.085 13.028 5.876 13.028 13.114s-5.875 13.028-13.028 13.113z"/><g opacity=".4"><linearGradient id="b" x1=".517" x2=".517" y2="1"><stop offset="0%" stop-color="#fff"/><stop offset="12.5%" stop-opacity=".098" stop-color="#fff"/><stop offset="92.5%" stop-opacity=".098"/><stop offset="100%" stop-opacity=".498"/></linearGradient><path fill="none" stroke="url(#b)" stroke-linecap="round" stroke-linejoin="round" stroke-width="4.077" d="M165.685 11.947c74.055 0 84.639 10.557 84.639 84.544v59.251c0 73.986-10.584 84.543-84.639 84.543h-75.37c-74.055 0-84.639-10.557-84.639-84.543V96.491c0-73.987 10.584-84.544 84.639-84.544h75.37z" vector-effect="non-scaling-stroke"/></g></g></switch> </svg>