<?xml version="1.0" standalone="no"?><!-- Generator: Gravit.io --><svg xmlns="http://www.w3.org/2000/svg" xmlns:xlink="http://www.w3.org/1999/xlink" style="isolation:isolate" viewBox="0 0 256 256" width="256" height="256"><defs><filter id="WYO84Agyr19XNecUtXs1ulP4h7IexfzH" x="-7.324" y="2.947" width="270.648" height="254.338" filterUnits="userSpaceOnUse"><feGaussianBlur xmlns="http://www.w3.org/2000/svg" in="SourceGraphic" stdDeviation="4.293609062839028"/><feOffset xmlns="http://www.w3.org/2000/svg" dx="0" dy="4" result="pf_100_offsetBlur"/><feFlood xmlns="http://www.w3.org/2000/svg" flood-color="#000000" flood-opacity="0.4"/><feComposite xmlns="http://www.w3.org/2000/svg" in2="pf_100_offsetBlur" operator="in" result="pf_100_dropShadow"/><feBlend xmlns="http://www.w3.org/2000/svg" in="SourceGraphic" in2="pf_100_dropShadow" mode="normal"/></filter></defs><g filter="url(#WYO84Agyr19XNecUtXs1ulP4h7IexfzH)"><path d=" M 165.685 11.947 C 239.74 11.947 250.324 22.504 250.324 96.491 L 250.324 155.742 C 250.324 229.728 239.74 240.285 165.685 240.285 L 90.315 240.285 C 16.26 240.285 5.676 229.728 5.676 155.742 L 5.676 96.491 C 5.676 22.504 16.26 11.947 90.315 11.947 L 165.685 11.947 Z " id="shape" fill="rgb(250,147,129)"/></g><g opacity="0.4"><linearGradient id="_lgradient_181" x1="0.5166666666666668" y1="0" x2="0.5166666666666666" y2="1.0000000000000002"><stop offset="0%" stop-opacity="1" style="stop-color:rgb(255,255,255)"/><stop offset="12.5%" stop-opacity="0.09803922" style="stop-color:rgb(255,255,255)"/><stop offset="92.500001%" stop-opacity="0.09803922" style="stop-color:rgb(0,0,0)"/><stop offset="100%" stop-opacity="0.49803922" style="stop-color:rgb(0,0,0)"/></linearGradient><path d=" M 165.685 11.947 C 239.74 11.947 250.324 22.504 250.324 96.491 L 250.324 155.742 C 250.324 229.728 239.74 240.285 165.685 240.285 L 90.315 240.285 C 16.26 240.285 5.676 229.728 5.676 155.742 L 5.676 96.491 C 5.676 22.504 16.26 11.947 90.315 11.947 L 165.685 11.947 Z " id="highlight" fill="none" vector-effect="non-scaling-stroke" stroke-width="4.077" stroke="url(#_lgradient_181)" stroke-linejoin="round" stroke-linecap="round" stroke-miterlimit="4"/></g><g id="glass"><path d=" M 155.1 163.67 L 163.59 155.18 L 175.59 167.18 L 167.1 175.67 L 155.1 163.67 Z " id="Path" fill="rgb(136,136,136)"/><path d=" M 161.69 173.08 L 173 161.77 L 204.5 193.27 L 193.19 204.58 L 161.69 173.08 Z " id="Path" fill="rgb(188,25,56)"/><path d=" M 55.568 115.423 C 55.568 82.345 82.423 55.491 115.5 55.491 C 148.577 55.491 175.432 82.345 175.432 115.423 C 175.432 148.5 148.577 175.355 115.5 175.355 C 82.423 175.355 55.568 148.5 55.568 115.423 Z " id="Path" fill="rgb(162,188,254)" fill-opacity="0.5"/><path d=" M 51.5 115.42 C 51.49 106.87 53.21 98.4 56.53 90.52 C 59.76 82.92 64.41 76.01 70.25 70.18 C 76.09 64.34 83 59.68 90.6 56.46 C 98.48 53.13 106.95 51.42 115.5 51.42 C 124.05 51.42 132.52 53.13 140.4 56.46 C 148 59.68 154.91 64.34 160.75 70.18 C 166.59 76.01 171.24 82.92 174.47 90.52 C 177.79 98.4 179.51 106.87 179.5 115.42 C 179.51 123.98 177.79 132.45 174.47 140.33 C 171.24 147.93 166.59 154.83 160.75 160.67 C 154.91 166.51 148 171.17 140.4 174.39 C 132.52 177.72 124.05 179.43 115.5 179.42 C 106.95 179.43 98.48 177.72 90.6 174.39 C 83 171.17 76.09 166.51 70.25 160.67 C 64.41 154.83 59.76 147.93 56.53 140.33 C 53.21 132.45 51.49 123.98 51.5 115.42 Z  M 59.64 115.42 C 59.63 107.96 61.12 100.56 64.03 93.69 C 66.84 87.05 70.91 81.02 76.01 75.93 C 81.1 70.83 87.13 66.76 93.77 63.95 C 100.64 61.05 108.03 59.55 115.5 59.56 C 122.97 59.55 130.36 61.05 137.23 63.95 C 143.87 66.76 149.9 70.83 154.99 75.93 C 160.09 81.02 164.16 87.05 166.97 93.69 C 169.88 100.57 171.37 107.96 171.36 115.42 C 171.37 122.89 169.88 130.28 166.97 137.16 C 164.16 143.79 160.09 149.82 154.99 154.92 C 149.9 160.02 143.87 164.08 137.23 166.9 C 130.36 169.8 122.97 171.29 115.5 171.29 C 108.03 171.29 100.64 169.8 93.77 166.9 C 87.13 164.08 81.1 160.02 76.01 154.92 C 70.91 149.82 66.84 143.79 64.03 137.16 C 61.12 130.28 59.63 122.89 59.64 115.42 Z " fill-rule="evenodd" id="Compound Path" fill="rgb(102,102,102)"/></g></svg>