<svg xmlns="http://www.w3.org/2000/svg" style="isolation:isolate" width="256" height="256"><defs><filter id="a" width="270.648" height="254.338" x="-7.32" y="2.95" filterUnits="userSpaceOnUse"><feGaussianBlur xmlns="http://www.w3.org/2000/svg" in="SourceGraphic" stdDeviation="4.294"/><feOffset xmlns="http://www.w3.org/2000/svg" dy="4" result="pf_100_offsetBlur"/><feFlood xmlns="http://www.w3.org/2000/svg" flood-opacity=".4"/><feComposite xmlns="http://www.w3.org/2000/svg" in2="pf_100_offsetBlur" operator="in" result="pf_100_dropShadow"/><feBlend xmlns="http://www.w3.org/2000/svg" in="SourceGraphic" in2="pf_100_dropShadow"/></filter></defs><path fill="#FA9381" d="M165.685 11.947c74.055 0 84.639 10.557 84.639 84.544v59.251c0 73.986-10.584 84.543-84.639 84.543h-75.37c-74.055 0-84.639-10.557-84.639-84.543V96.491c0-73.987 10.584-84.544 84.639-84.544h75.37z" filter="url(#a)"/><g opacity=".4"><linearGradient id="b" x1=".517" x2=".517" y2="1"><stop offset="0%" stop-color="#fff"/><stop offset="12.5%" stop-opacity=".098" stop-color="#fff"/><stop offset="92.5%" stop-opacity=".098"/><stop offset="100%" stop-opacity=".498"/></linearGradient><path fill="none" stroke="url(#b)" stroke-linecap="round" stroke-linejoin="round" stroke-width="4.077" d="M165.685 11.947c74.055 0 84.639 10.557 84.639 84.544v59.251c0 73.986-10.584 84.543-84.639 84.543h-75.37c-74.055 0-84.639-10.557-84.639-84.543V96.491c0-73.987 10.584-84.544 84.639-84.544h75.37z" vector-effect="non-scaling-stroke"/></g><path fill="#888" d="M155.1 163.67l8.49-8.49 12 12-8.49 8.49-12-12z"/><path fill="#BC1938" d="M161.69 173.08L173 161.77l31.5 31.5-11.31 11.31-31.5-31.5z"/><path fill="#A2BCFE" fill-opacity=".5" d="M55.568 115.423c0-33.078 26.855-59.932 59.932-59.932s59.932 26.854 59.932 59.932c0 33.077-26.855 59.932-59.932 59.932S55.568 148.5 55.568 115.423z"/><path fill="#666" fill-rule="evenodd" d="M51.5 115.42a63.964 63.964 0 0 1 5.03-24.9c3.23-7.6 7.88-14.51 13.72-20.34A64.207 64.207 0 0 1 90.6 56.46a63.973 63.973 0 0 1 24.9-5.04c8.55 0 17.02 1.71 24.9 5.04 7.6 3.22 14.51 7.88 20.35 13.72a64.218 64.218 0 0 1 13.72 20.34 63.964 63.964 0 0 1 5.03 24.9c.01 8.56-1.71 17.03-5.03 24.91a64.33 64.33 0 0 1-13.72 20.34 64.207 64.207 0 0 1-20.35 13.72 63.783 63.783 0 0 1-24.9 5.03c-8.55.01-17.02-1.7-24.9-5.03a64.207 64.207 0 0 1-20.35-13.72 64.33 64.33 0 0 1-13.72-20.34 63.976 63.976 0 0 1-5.03-24.91zm8.14 0a55.55 55.55 0 0 1 4.39-21.73 55.84 55.84 0 0 1 11.98-17.76 55.84 55.84 0 0 1 17.76-11.98c6.87-2.9 14.26-4.4 21.73-4.39 7.47-.01 14.86 1.49 21.73 4.39a55.84 55.84 0 0 1 17.76 11.98 55.84 55.84 0 0 1 11.98 17.76c2.91 6.88 4.4 14.27 4.39 21.73a55.6 55.6 0 0 1-4.39 21.74 56.063 56.063 0 0 1-11.98 17.76 56.005 56.005 0 0 1-17.76 11.98 55.874 55.874 0 0 1-21.73 4.39c-7.47 0-14.86-1.49-21.73-4.39a56.005 56.005 0 0 1-17.76-11.98c-5.1-5.1-9.17-11.13-11.98-17.76a55.6 55.6 0 0 1-4.39-21.74z"/></svg>