<svg xmlns="http://www.w3.org/2000/svg" style="isolation:isolate" width="256" height="256"><switch><g><defs><filter id="a" width="270.648" height="254.338" x="-7.32" y="2.95" filterUnits="userSpaceOnUse"><feGaussianBlur xmlns="http://www.w3.org/2000/svg" in="SourceGraphic" stdDeviation="4.294"/><feOffset xmlns="http://www.w3.org/2000/svg" dy="4" result="pf_100_offsetBlur"/><feFlood xmlns="http://www.w3.org/2000/svg" flood-opacity=".4"/><feComposite xmlns="http://www.w3.org/2000/svg" in2="pf_100_offsetBlur" operator="in" result="pf_100_dropShadow"/><feBlend xmlns="http://www.w3.org/2000/svg" in="SourceGraphic" in2="pf_100_dropShadow"/></filter></defs><path fill="#2B898F" d="M165.685 11.947c74.055 0 84.639 10.557 84.639 84.544v59.251c0 73.986-10.584 84.543-84.639 84.543h-75.37c-74.055 0-84.639-10.557-84.639-84.543V96.491c0-73.987 10.584-84.544 84.639-84.544h75.37z" filter="url(#a)"/><path fill="#FFF" d="M249.643 83.58L44.234 236.61c11.562 2.311 26.426 3.019 45.523 3.019h75.37c74.055 0 84.639-10.558 84.639-84.544V95.834c0-4.303-.041-8.37-.123-12.254z" opacity=".1"/><g fill="#ECECEC"><path d="M167.751 63.675c-3.231.891-8.652 8.032-11.402 8.557-3.157.6-12.562-5.614-14.752-3.31-2.171 2.324 4.722 11.422 4.336 14.574-.407 3.137-9.406 10.238-7.86 13.008 1.552 2.75 12.429-.946 15.313.387 2.904 1.337 6.893 11.848 10.024 11.248 3.137-.599 2.924-11.848 5.109-14.167 2.186-2.304 13.568-2.864 13.955-6.021.386-3.137-10.431-6.348-12.002-9.118-1.551-2.77 1.338-13.821-1.566-15.158-.347-.154-.719-.114-1.179 0M113.49 103.219c-6.294.872-7.126 23.731-11.71 28.146-4.589 4.415-27.101 4.222-28.221 10.511-1.125 6.273 20.02 14.187 22.805 19.97 2.77 5.748-4.356 27.235 1.239 30.238 5.614 3.018 19.648-14.867 25.936-15.739 6.294-.872 24.485 12.602 29.054 8.187 4.608-4.416-8.013-23.325-6.893-29.619 1.125-6.308 19.494-19.455 16.724-25.183-2.77-5.748-24.504.486-30.099-2.537-5.614-3.018-12.522-24.827-18.835-23.925"/></g><g opacity=".4"><linearGradient id="b" x1=".517" x2=".517" y2="1"><stop offset="0%" stop-color="#fff"/><stop offset="12.5%" stop-opacity=".098" stop-color="#fff"/><stop offset="92.5%" stop-opacity=".098"/><stop offset="100%" stop-opacity=".498"/></linearGradient><path fill="none" stroke="url(#b)" stroke-linecap="round" stroke-linejoin="round" stroke-width="4.077" d="M165.685 11.947c74.055 0 84.639 10.557 84.639 84.544v59.251c0 73.986-10.584 84.543-84.639 84.543h-75.37c-74.055 0-84.639-10.557-84.639-84.543V96.491c0-73.987 10.584-84.544 84.639-84.544h75.37z" vector-effect="non-scaling-stroke"/></g></g></switch> </svg>