<?xml version="1.0" standalone="no"?><!-- Generator: Gravit.io --><svg xmlns="http://www.w3.org/2000/svg" xmlns:xlink="http://www.w3.org/1999/xlink" style="isolation:isolate" viewBox="0 0 256 256" width="256" height="256"><defs><clipPath id="_clipPath_bPTPomppuJolV3hBIEYJwRZxCd0xdwcX"><rect width="256" height="256"/></clipPath></defs><g clip-path="url(#_clipPath_bPTPomppuJolV3hBIEYJwRZxCd0xdwcX)"><rect width="256" height="256" style="fill:rgba(0,0,0,0)"/><g id="icon"><g id="drop shadow"><defs><filter id="FfdcYupFDg2J6XkLjCBgOse82m5U8sdA" x="-200%" y="-200%" width="400%" height="400%"><feGaussianBlur xmlns="http://www.w3.org/2000/svg" stdDeviation="2.32"/></filter></defs><g opacity="0.2" filter="url(#FfdcYupFDg2J6XkLjCBgOse82m5U8sdA)"><path d=" M 165.685 15.849 C 239.741 15.849 250.325 26.407 250.325 100.394 L 250.325 159.645 C 250.325 233.632 239.741 244.189 165.685 244.189 L 90.315 244.189 C 16.259 244.189 5.675 233.632 5.675 159.645 L 5.675 100.394 C 5.675 26.407 16.259 15.849 90.315 15.849 L 165.685 15.849 Z " fill="rgb(0,0,0)"/></g><defs><filter id="NZUrtpiDdWEKC2hfDi0dJYB2Uff94yoo" x="-200%" y="-200%" width="400%" height="400%"><feGaussianBlur xmlns="http://www.w3.org/2000/svg" stdDeviation="1.16"/></filter></defs><g opacity="0.1" filter="url(#NZUrtpiDdWEKC2hfDi0dJYB2Uff94yoo)"><path d=" M 165.685 14.83 C 239.741 14.83 250.325 25.387 250.325 99.374 L 250.325 158.626 C 250.325 232.612 239.741 243.17 165.685 243.17 L 90.315 243.17 C 16.259 243.17 5.675 232.612 5.675 158.626 L 5.675 99.374 C 5.675 25.387 16.259 14.83 90.315 14.83 L 165.685 14.83 Z " fill="rgb(0,0,0)"/></g></g><path d=" M 165.685 13.811 C 239.741 13.811 250.325 24.368 250.325 98.355 L 250.325 157.606 C 250.325 231.593 239.741 242.151 165.685 242.151 L 90.315 242.151 C 16.259 242.151 5.675 231.593 5.675 157.606 L 5.675 98.355 C 5.675 24.368 16.259 13.811 90.315 13.811 L 165.685 13.811 Z " fill="rgb(255,255,255)"/><clipPath id="_clipPath_hE4l2XISZsFwI9rTgxfJiX0X4yzwCqm8"><path d=" M 165.685 13.811 C 239.741 13.811 250.325 24.368 250.325 98.355 L 250.325 157.606 C 250.325 231.593 239.741 242.151 165.685 242.151 L 90.315 242.151 C 16.259 242.151 5.675 231.593 5.675 157.606 L 5.675 98.355 C 5.675 24.368 16.259 13.811 90.315 13.811 L 165.685 13.811 Z " fill="rgb(255,255,255)"/></clipPath><g clip-path="url(#_clipPath_hE4l2XISZsFwI9rTgxfJiX0X4yzwCqm8)"><path d=" M 165.81 13.811 C 239.866 13.811 250.45 24.368 250.45 98.355 L 250.45 157.606 C 250.45 231.593 239.866 242.151 165.81 242.151 L 90.44 242.151 C 16.384 242.151 5.8 231.593 5.8 157.606 L 5.8 98.355 C 5.8 24.368 16.384 13.811 90.44 13.811 L 165.81 13.811 Z " fill="rgb(255,155,89)"/><g id="holds"><g opacity="0.1"><rect x="88.225" y="12.997" width="81.549" height="228.338" transform="matrix(1,0,0,1,0,0)" fill="rgb(255,255,255)"/></g><g opacity="0.1"><path d=" M 6.676 127.167 L 6.676 156.792 C 6.676 230.778 17.26 241.336 91.315 241.336 L 166.685 241.336 C 240.74 241.336 251.324 230.778 251.324 156.792 L 251.324 127.167 L 6.676 127.167 Z " fill="rgb(255,255,255)"/></g></g><g id="antimicro"><path d=" M 95.064 95.105 C 68.863 121.307 57.632 154.997 80.093 177.458 C 91.323 188.688 110.041 192.429 121.271 181.199 C 132.501 169.969 125.188 160.902 128.76 151.251 C 130.698 146.015 132.302 140.225 136.248 136.279 C 140.195 132.332 145.99 130.729 151.22 128.791 C 160.871 125.219 169.938 132.532 181.169 121.302 C 192.399 110.072 188.657 91.354 177.427 80.123 C 154.967 57.663 121.276 68.893 95.074 95.095 L 95.064 95.105 Z " fill="rgb(219,226,227)"/><path d=" M 113.779 136.283 C 122.566 145.07 122.567 159.316 113.78 168.103 C 104.994 176.889 90.748 176.889 81.961 168.102 C 73.174 159.315 73.173 145.068 81.96 136.282 C 90.746 127.495 104.992 127.496 113.779 136.283 Z " fill="rgb(55,69,72)"/><path d=" M 168.06 82.001 C 176.847 90.788 176.847 105.034 168.061 113.82 C 159.274 122.607 145.028 122.607 136.241 113.819 C 127.454 105.032 127.454 90.786 136.24 82 C 145.027 73.213 159.273 73.214 168.06 82.001 Z " fill="rgb(55,69,72)"/><path d=" M 117.525 125.054 L 125.013 117.565 C 127.086 115.492 130.428 115.492 132.501 117.565 C 134.575 119.639 134.575 122.981 132.501 125.054 L 125.013 132.542 C 122.94 134.615 119.598 134.615 117.525 132.542 C 115.452 130.469 115.452 127.127 117.525 125.054 Z " fill="rgb(55,69,72)"/><path d=" M 81.027 139.076 L 84.769 135.335 L 95.999 146.565 L 92.257 150.307 L 81.027 139.076 Z " fill="rgb(204,204,204)"/><path d=" M 110.975 135.345 L 114.717 139.086 L 103.487 150.317 L 99.745 146.575 L 110.975 135.345 Z " fill="rgb(204,204,204)"/><path d=" M 114.717 165.293 L 110.975 169.035 L 99.745 157.805 L 103.487 154.063 L 114.717 165.293 Z " fill="rgb(204,204,204)"/><path d=" M 84.769 169.05 L 81.027 165.308 L 92.257 154.078 L 95.999 157.82 L 84.769 169.05 Z " fill="rgb(204,204,204)"/><path d="M 105.312 122.696 L 112.207 115.334 C 112.78 114.722 113.742 114.69 114.354 115.263 L 116.243 117.032 C 116.854 117.605 116.886 118.567 116.313 119.179 L 109.418 126.541 C 108.845 127.153 107.883 127.185 107.271 126.612 L 105.382 124.843 C 104.771 124.27 104.739 123.308 105.312 122.696 Z" style="stroke:none;fill:#374548;stroke-miterlimit:10;"/><path d="M 115.562 111.946 L 122.457 104.584 C 123.03 103.972 123.992 103.94 124.604 104.513 L 126.493 106.282 C 127.104 106.855 127.136 107.817 126.563 108.429 L 119.668 115.791 C 119.095 116.403 118.133 116.435 117.521 115.862 L 115.632 114.093 C 115.021 113.52 114.989 112.558 115.562 111.946 Z" style="stroke:none;fill:#374548;stroke-miterlimit:10;"/><path d=" M 135.75 108.5 C 135.75 105.189 138.439 102.5 141.75 102.5 C 145.061 102.5 147.75 105.189 147.75 108.5 C 147.75 111.811 145.061 114.5 141.75 114.5 C 138.439 114.5 135.75 111.811 135.75 108.5 Z " fill="rgb(188,25,56)"/><path d=" M 156.5 86.625 C 156.5 83.314 159.189 80.625 162.5 80.625 C 165.811 80.625 168.5 83.314 168.5 86.625 C 168.5 89.936 165.811 92.625 162.5 92.625 C 159.189 92.625 156.5 89.936 156.5 86.625 Z " fill="rgb(188,25,56)"/><path d=" M 134.5 88.625 C 134.5 85.314 137.189 82.625 140.5 82.625 C 143.811 82.625 146.5 85.314 146.5 88.625 C 146.5 91.936 143.811 94.625 140.5 94.625 C 137.189 94.625 134.5 91.936 134.5 88.625 Z " fill="rgb(188,25,56)"/><path d=" M 157.5 108.625 C 157.5 105.314 160.189 102.625 163.5 102.625 C 166.811 102.625 169.5 105.314 169.5 108.625 C 169.5 111.936 166.811 114.625 163.5 114.625 C 160.189 114.625 157.5 111.936 157.5 108.625 Z " fill="rgb(188,25,56)"/></g></g><g id="highlight"><clipPath id="_clipPath_kwzYoYFi3iRgWKEWkk5e15wwf7svNIxT"><path d=" M 165.685 13.811 C 239.741 13.811 250.325 24.368 250.325 98.355 L 250.325 157.606 C 250.325 231.593 239.741 242.151 165.685 242.151 L 90.315 242.151 C 16.259 242.151 5.675 231.593 5.675 157.606 L 5.675 98.355 C 5.675 24.368 16.259 13.811 90.315 13.811 L 165.685 13.811 Z " fill="rgb(255,255,255)"/></clipPath><g clip-path="url(#_clipPath_kwzYoYFi3iRgWKEWkk5e15wwf7svNIxT)"><g opacity="0.4"><linearGradient id="_lgradient_32" x1="51.666666666666686%" y1="0%" x2="51.66666666666666%" y2="100.00000000000003%"><stop offset="0%" stop-opacity="1" style="stop-color:rgb(255,255,255)"/><stop offset="12.5%" stop-opacity="0.09803922" style="stop-color:rgb(255,255,255)"/><stop offset="92.500001%" stop-opacity="0.09803922" style="stop-color:rgb(0,0,0)"/><stop offset="100%" stop-opacity="0.49803922" style="stop-color:rgb(0,0,0)"/></linearGradient><path d=" M 165.685 13.811 C 239.741 13.811 250.325 24.368 250.325 98.355 L 250.325 157.606 C 250.325 231.593 239.741 242.151 165.685 242.151 L 90.315 242.151 C 16.259 242.151 5.675 231.593 5.675 157.606 L 5.675 98.355 C 5.675 24.368 16.259 13.811 90.315 13.811 L 165.685 13.811 Z " fill="none" vector-effect="non-scaling-stroke" stroke-width="4" stroke="url(#_lgradient_32)" stroke-linejoin="round" stroke-linecap="round" stroke-miterlimit="4"/></g></g></g></g></g></svg>