<svg xmlns="http://www.w3.org/2000/svg" style="isolation:isolate" width="256" height="256"><switch><g><defs><filter id="a" width="270.648" height="254.338" x="-7.32" y="2.95" filterUnits="userSpaceOnUse"><feGaussianBlur xmlns="http://www.w3.org/2000/svg" in="SourceGraphic" stdDeviation="4.294"/><feOffset xmlns="http://www.w3.org/2000/svg" dy="4" result="pf_100_offsetBlur"/><feFlood xmlns="http://www.w3.org/2000/svg" flood-opacity=".4"/><feComposite xmlns="http://www.w3.org/2000/svg" in2="pf_100_offsetBlur" operator="in" result="pf_100_dropShadow"/><feBlend xmlns="http://www.w3.org/2000/svg" in="SourceGraphic" in2="pf_100_dropShadow"/></filter></defs><path fill="#C8C4B7" d="M165.685 11.947c74.055 0 84.639 10.557 84.639 84.544v59.251c0 73.986-10.584 84.543-84.639 84.543h-75.37c-74.055 0-84.639-10.557-84.639-84.543V96.491c0-73.987 10.584-84.544 84.639-84.544h75.37z" filter="url(#a)"/><linearGradient id="b" x1="-.033" x2="1.033" y1="-.071" y2=".995" gradientTransform="matrix(115.551 0 0 116.176 70.224 68.912)" gradientUnits="userSpaceOnUse"><stop offset="0%" stop-color="#e72662"/><stop offset="48.272%" stop-color="#ec3c50"/><stop offset="100%" stop-color="#ff7b66"/></linearGradient><path fill="url(#b)" d="M105.713 83.605c20.175-19.982 26.069-19.765 47.164 1.767l16.894 17.243c21.096 21.532 21.223 27.46 1.048 47.442l-20.533 20.337c-20.175 19.982-26.069 19.765-47.164-1.767l-16.895-17.243c-21.095-21.532-21.222-27.46-1.047-47.442l20.533-20.337z"/><path fill="#666" fill-rule="evenodd" d="M99.669 72.901a227.281 227.281 0 0 1 4.344-4.215 143.794 143.794 0 0 1 4.021-3.672 95.937 95.937 0 0 1 3.756-3.137 57.519 57.519 0 0 1 3.544-2.594 35.933 35.933 0 0 1 3.395-2.053 25.695 25.695 0 0 1 3.304-1.497c1.065-.4 2.162-.704 3.272-.923a17.364 17.364 0 0 1 3.273-.31c1.155 0 2.304.116 3.44.342 1.174.239 2.323.581 3.446 1.013a28.024 28.024 0 0 1 3.492 1.659 42.095 42.095 0 0 1 3.608 2.278 63.88 63.88 0 0 1 3.789 2.898 94.817 94.817 0 0 1 4.046 3.505 176.76 176.76 0 0 1 4.363 4.124 332.525 332.525 0 0 1 4.751 4.751l20.614 21.04a324.935 324.935 0 0 1 4.609 4.802 187.442 187.442 0 0 1 4.008 4.415 109.341 109.341 0 0 1 3.414 4.085 65.599 65.599 0 0 1 2.808 3.828 41.764 41.764 0 0 1 2.22 3.633 28.717 28.717 0 0 1 1.613 3.505c.42 1.117.755 2.272.988 3.447.219 1.129.329 2.271.329 3.42 0 1.11-.103 2.221-.316 3.311a20.349 20.349 0 0 1-.93 3.311 27.543 27.543 0 0 1-1.523 3.331 38.886 38.886 0 0 1-2.085 3.407 56.65 56.65 0 0 1-2.646 3.55 84.15 84.15 0 0 1-3.188 3.757 147.32 147.32 0 0 1-3.744 4.027 247.823 247.823 0 0 1-4.298 4.344l-25.055 24.816a269.893 269.893 0 0 1-4.344 4.215 155.484 155.484 0 0 1-4.021 3.672 95.937 95.937 0 0 1-3.756 3.137 57.519 57.519 0 0 1-3.544 2.594 38.22 38.22 0 0 1-3.395 2.053 25.695 25.695 0 0 1-3.304 1.497c-1.065.4-2.162.704-3.279.923-1.078.2-2.168.31-3.266.31-1.155 0-2.304-.116-3.44-.342a20.713 20.713 0 0 1-3.446-1.02 27.84 27.84 0 0 1-3.492-1.652 39.526 39.526 0 0 1-3.608-2.285 63.34 63.34 0 0 1-3.789-2.891 100.07 100.07 0 0 1-4.046-3.505 154.552 154.552 0 0 1-4.363-4.131 272.443 272.443 0 0 1-4.751-4.744l-20.614-21.047a321.182 321.182 0 0 1-4.615-4.795 218.081 218.081 0 0 1-4.008-4.415 115.324 115.324 0 0 1-3.408-4.085 67.797 67.797 0 0 1-2.814-3.828 43.232 43.232 0 0 1-2.214-3.633 29.21 29.21 0 0 1-1.613-3.505 21.483 21.483 0 0 1-.988-3.447 17.934 17.934 0 0 1-.019-6.738c.219-1.123.536-2.226.936-3.304a27.127 27.127 0 0 1 1.523-3.331 36.464 36.464 0 0 1 2.085-3.407 56.65 56.65 0 0 1 2.646-3.55 87.85 87.85 0 0 1 3.188-3.763 156.422 156.422 0 0 1 3.744-4.021 228.617 228.617 0 0 1 4.298-4.344l25.055-24.816zm2.272 2.291a237.055 237.055 0 0 1 4.292-4.163c1.291-1.22 2.601-2.42 3.937-3.595a90.063 90.063 0 0 1 3.621-3.027 54.129 54.129 0 0 1 3.35-2.452 34.316 34.316 0 0 1 3.111-1.885 24.17 24.17 0 0 1 2.911-1.317 17.15 17.15 0 0 1 2.749-.774 14.267 14.267 0 0 1 5.467.026c.994.206 1.962.49 2.904.858 1.065.42 2.098.904 3.092 1.465a38.348 38.348 0 0 1 3.324 2.104 57.887 57.887 0 0 1 3.601 2.75 97.147 97.147 0 0 1 3.924 3.395 167.444 167.444 0 0 1 4.279 4.053 293.158 293.158 0 0 1 4.699 4.698h.006l20.615 21.041v.007a288.683 288.683 0 0 1 4.563 4.75 177.584 177.584 0 0 1 3.937 4.331 101.963 101.963 0 0 1 3.305 3.963 63.458 63.458 0 0 1 2.672 3.633 39.15 39.15 0 0 1 2.052 3.356 26.034 26.034 0 0 1 1.427 3.118c.361.949.639 1.923.839 2.917.181.923.271 1.865.271 2.801 0 .91-.084 1.814-.258 2.705a17.367 17.367 0 0 1-.781 2.781 23.893 23.893 0 0 1-1.336 2.924 36.116 36.116 0 0 1-1.917 3.124 55.27 55.27 0 0 1-2.491 3.356 86.143 86.143 0 0 1-3.086 3.627 147.43 147.43 0 0 1-3.659 3.937 260.053 260.053 0 0 1-4.241 4.292l-25.061 24.817a237.055 237.055 0 0 1-4.292 4.163 149.045 149.045 0 0 1-3.937 3.595 90.063 90.063 0 0 1-3.621 3.027 54.129 54.129 0 0 1-3.35 2.452 35.31 35.31 0 0 1-3.111 1.885 24.17 24.17 0 0 1-2.911 1.317 17.66 17.66 0 0 1-2.756.774c-.877.162-1.768.252-2.659.252-.942 0-1.878-.097-2.801-.284-.994-.2-1.962-.484-2.904-.852a25.634 25.634 0 0 1-3.092-1.465 38.676 38.676 0 0 1-3.33-2.104 62.044 62.044 0 0 1-3.602-2.75 102.837 102.837 0 0 1-3.917-3.395 180.283 180.283 0 0 1-4.286-4.053 325.148 325.148 0 0 1-4.698-4.698l-20.615-21.048a283.636 283.636 0 0 1-4.563-4.75 177.584 177.584 0 0 1-3.937-4.331 101.963 101.963 0 0 1-3.305-3.963 61.241 61.241 0 0 1-2.672-3.64 37.98 37.98 0 0 1-2.052-3.349 26.034 26.034 0 0 1-1.427-3.118 17.79 17.79 0 0 1-.839-2.917 14.585 14.585 0 0 1-.019-5.506c.187-.948.452-1.878.787-2.781a23.893 23.893 0 0 1 1.336-2.924 34.461 34.461 0 0 1 1.917-3.124 55.27 55.27 0 0 1 2.491-3.356 91.535 91.535 0 0 1 3.079-3.627 150.08 150.08 0 0 1 3.666-3.937 238.264 238.264 0 0 1 4.241-4.292l25.061-24.817z"/><path fill="#FFF" d="M5.676 126.116v29.626c0 73.986 10.584 84.543 84.639 84.543h75.37c74.055 0 84.639-10.557 84.639-84.543v-29.626H5.676z" opacity=".1"/><g opacity=".2"><path fill="#FFF" d="M128 11.947v228.338h37.685c74.055 0 84.639-10.557 84.639-84.543V96.491c0-73.987-10.584-84.544-84.639-84.544H128z"/></g><g opacity=".4"><linearGradient id="c" x1=".517" x2=".517" y2="1"><stop offset="0%" stop-color="#fff"/><stop offset="12.5%" stop-opacity=".098" stop-color="#fff"/><stop offset="92.5%" stop-opacity=".098"/><stop offset="100%" stop-opacity=".498"/></linearGradient><path fill="none" stroke="url(#c)" stroke-linecap="round" stroke-linejoin="round" stroke-width="4.077" d="M165.685 11.947c74.055 0 84.639 10.557 84.639 84.544v59.251c0 73.986-10.584 84.543-84.639 84.543h-75.37c-74.055 0-84.639-10.557-84.639-84.543V96.491c0-73.987 10.584-84.544 84.639-84.544h75.37z" vector-effect="non-scaling-stroke"/></g></g></switch> </svg>