<svg xmlns="http://www.w3.org/2000/svg" style="isolation:isolate" width="256" height="256"><defs><filter id="a" width="400%" height="400%" x="-200%" y="-200%" color-interpolation-filters="sRGB" filterUnits="objectBoundingBox"><feGaussianBlur xmlns="http://www.w3.org/2000/svg" in="SourceGraphic" stdDeviation="4.294"/><feOffset xmlns="http://www.w3.org/2000/svg" dy="4" result="pf_100_offsetBlur"/><feFlood xmlns="http://www.w3.org/2000/svg" flood-opacity=".4"/><feComposite xmlns="http://www.w3.org/2000/svg" in2="pf_100_offsetBlur" operator="in" result="pf_100_dropShadow"/><feBlend xmlns="http://www.w3.org/2000/svg" in="SourceGraphic" in2="pf_100_dropShadow"/></filter></defs><g filter="url(#a)"><linearGradient id="b" x1=".25" x2=".75" y1=".036" y2=".902" gradientTransform="matrix(244.6483 0 0 228.3384 5.676 11.947)" gradientUnits="userSpaceOnUse"><stop offset="2.174%" stop-color="#957552"/><stop offset="100%" stop-color="#b29373"/></linearGradient><path fill="url(#b)" d="M165.685 11.947c74.055 0 84.64 10.557 84.64 84.544v59.25c0 73.987-10.585 84.544-84.64 84.544h-75.37c-74.055 0-84.64-10.557-84.64-84.543V96.49c0-73.987 10.585-84.544 84.64-84.544h75.37z"/></g><path fill="#FFF" d="M188.296 194.92c-1.353-.198-2.5-.8-3.428-1.796-2.048-2.197-5.416-8.653-8.18-15.679-1.551-3.943-4.52-12.628-4.52-13.22 0-.188 1.958-1.482 4.353-2.876l4.354-2.536.683.642c2.704 2.537 10.491 14.169 15.031 22.45 1.816 3.312 1.998 3.785 1.99 5.15-.009 1.82-.58 3.09-2.2 4.89-1.94 2.158-5.283 3.388-8.083 2.976zm-129.399-2.16c.082-.223 1.407-6.2 2.945-13.282 1.538-7.082 2.83-12.919 2.87-12.972.139-.178 14.05 9.581 14.048 9.855-.002.148-4.023 3.605-8.936 7.68-11.063 9.176-11.109 9.212-10.927 8.718zm14.734-24.987c-3.877-2.68-7.018-4.986-6.98-5.124.09-.33 33.392-56.702 33.667-56.989.151-.158 14.703 8.992 15.385 9.674.147.147-34.479 57.186-34.753 57.25-.15.035-3.443-2.13-7.32-4.81zm91.4-14.896c-2.657-4.48-4.792-8.174-4.744-8.208.473-.334 10.543-6.123 10.65-6.123.168 0 8.621 16.837 8.497 16.924-1.09.76-9.159 5.572-9.33 5.564-.132-.007-2.415-3.677-5.073-8.157zm-109.285-.845c-.092-.783-.131-7.091-.087-14.019l.08-12.596 13.961.087c7.679.044 13.993.114 14.033.153.039.035-3.656 6.309-8.212 13.935l-8.282 13.866H55.914l-.168-1.426zm41.875 1.021c0-.069 3.792-6.354 8.427-13.96l8.426-13.83h29.911l7.995 13.316c4.397 7.324 8.152 13.606 8.343 13.96l.347.645h-31.724c-17.449 0-31.725-.061-31.725-.13zm81.607-5.9c-1.61-3.318-4.642-9.54-6.736-13.826l-3.807-7.793h10.348c5.691-.001 12.818-.08 15.837-.18l5.49-.177V153.184h-18.204l-2.928-6.031zm-23.104-8.946c-6.13-9.657-12.373-21.003-19.877-36.121-5.953-11.994-11.681-24.392-14.045-30.4-3.426-8.704-4.243-14.115-2.21-14.625 3.252-.816 9.617 6.57 18.677 21.673 7.098 11.832 18.455 32.508 27.121 49.375 1.609 3.131 3.212 6.2 3.562 6.818l.638 1.125-5.401 3.145c-2.971 1.729-5.5 3.144-5.621 3.144-.121 0-1.4-1.86-2.844-4.134zm-46.922-29.923l-7.53-4.965.71-1.126c.392-.619 2.364-3.764 4.383-6.987a899.98 899.98 0 0 1 3.742-5.946c.04-.044 3.431 2.127 7.538 4.83l7.468 4.917-1.112 1.81c-.61.996-2.45 4.007-4.086 6.69-1.637 2.684-3.113 5.074-3.28 5.31-.262.372-1.336-.25-7.833-4.533zm9.61-16.118c-3.902-2.549-7.095-4.755-7.095-4.903 0-1.075 3.226-4.067 4.816-4.466 2.616-.656 6.907 1.022 9.297 3.637 1.847 2.02 2.252 3.009 2.08 5.08-.13 1.561-1.404 5.286-1.807 5.286-.108 0-3.388-2.086-7.29-4.634z"/><g opacity=".4"><linearGradient id="c" x1=".517" x2=".517" y2="1"><stop offset="0%" stop-color="#fff"/><stop offset="12.5%" stop-opacity=".098" stop-color="#fff"/><stop offset="92.5%" stop-opacity=".098"/><stop offset="100%" stop-opacity=".498"/></linearGradient><path fill="none" stroke="url(#c)" stroke-linecap="round" stroke-linejoin="round" stroke-width="4.077" d="M165.685 11.947c74.055 0 84.64 10.557 84.64 84.544v59.25c0 73.987-10.585 84.544-84.64 84.544h-75.37c-74.055 0-84.64-10.557-84.64-84.543V96.49c0-73.987 10.585-84.544 84.64-84.544h75.37z" vector-effect="non-scaling-stroke"/></g></svg>