<?xml version="1.0" encoding="UTF-8" standalone="no"?>
<!-- Created with Inkscape (http://www.inkscape.org/) -->

<svg
   xmlns:dc="http://purl.org/dc/elements/1.1/"
   xmlns:cc="http://creativecommons.org/ns#"
   xmlns:rdf="http://www.w3.org/1999/02/22-rdf-syntax-ns#"
   xmlns:svg="http://www.w3.org/2000/svg"
   xmlns="http://www.w3.org/2000/svg"
   xmlns:xlink="http://www.w3.org/1999/xlink"
   xmlns:sodipodi="http://sodipodi.sourceforge.net/DTD/sodipodi-0.dtd"
   xmlns:inkscape="http://www.inkscape.org/namespaces/inkscape"
   width="256"
   height="256"
   viewBox="0 0 67.733332 67.733335"
   version="1.1"
   id="svg1488"
   inkscape:version="0.92.3 (2405546, 2018-03-11)"
   sodipodi:docname="applications-robotics.svg">
  <defs
     id="defs1482">
    <clipPath
       clipPathUnits="userSpaceOnUse"
       id="clipPath1025">
      <path
         id="path1027"
         d="M 111.94141,84 C 99.359506,84.145 90.1531,83.713998 82.625,87.867188 c -3.7641,2.0768 -6.751838,5.574737 -8.398438,9.960937 C 72.580062,102.21433 72,107.4241 72,114 v 42 h 160 v -26 c 0,-6.5759 -0.57996,-11.78566 -2.22656,-16.17188 -0.205,-0.5455 -0.47919,-1.03993 -0.74219,-1.54296 -0.1,-0.1848 -0.17844,-0.38051 -0.27344,-0.56641 -1.727,-3.38752 -4.25471,-6.14522 -7.38281,-7.87109 C 213.8463,99.694146 204.64049,100.1454 192.05859,100 H 192 151.66797 L 135.45312,84 h -23.49218 z"
         style="color:#000000;font-style:normal;font-variant:normal;font-weight:normal;font-stretch:normal;font-size:medium;line-height:normal;font-family:sans-serif;font-variant-ligatures:none;font-variant-position:normal;font-variant-caps:normal;font-variant-numeric:normal;font-variant-alternates:normal;font-feature-settings:normal;text-indent:0;text-align:start;text-decoration:none;text-decoration-line:none;text-decoration-style:solid;text-decoration-color:#000000;letter-spacing:normal;word-spacing:normal;text-transform:none;writing-mode:lr-tb;direction:ltr;baseline-shift:baseline;text-anchor:start;white-space:normal;shape-padding:0;clip-rule:nonzero;display:inline;overflow:visible;visibility:visible;opacity:1;isolation:auto;mix-blend-mode:normal;color-interpolation:sRGB;color-interpolation-filters:linearRGB;solid-color:#000000;solid-opacity:1;fill:#e3dfd5;fill-opacity:1;fill-rule:nonzero;stroke:none;stroke-width:4.00000048;stroke-linecap:butt;stroke-linejoin:miter;stroke-miterlimit:4;stroke-dasharray:none;stroke-dashoffset:0;stroke-opacity:1;marker:none;color-rendering:auto;image-rendering:auto;shape-rendering:auto;text-rendering:auto;enable-background:accumulate"
         inkscape:connector-curvature="0" />
    </clipPath>
    <linearGradient
       id="linearGradient1013"
       inkscape:collect="always">
      <stop
         id="stop1005"
         offset="0"
         style="stop-color:#ffffff;stop-opacity:1;" />
      <stop
         style="stop-color:#ffffff;stop-opacity:0.09803922"
         offset="0.125"
         id="stop1007" />
      <stop
         style="stop-color:#000000;stop-opacity:0.09803922"
         offset="0.92500001"
         id="stop1009" />
      <stop
         id="stop1011"
         offset="1"
         style="stop-color:#000000;stop-opacity:0.49803922" />
    </linearGradient>
    <clipPath
       clipPathUnits="userSpaceOnUse"
       id="clipPath1082-3">
      <path
         sodipodi:nodetypes="sssssssss"
         inkscape:connector-curvature="0"
         id="path1084-6"
         d="M 361.9375,-212 C 507.2348,-212 528,-191.28677 528,-46.125 V 70.125 C 528,215.28618 507.2348,236 361.9375,236 H 214.0625 C 68.7652,236 48,215.28618 48,70.125 V -46.125 C 48,-191.28677 68.7652,-212 214.0625,-212 Z"
         style="display:inline;opacity:1;fill:#8c59d9;fill-opacity:1;stroke:none;stroke-width:2;stroke-linecap:round;stroke-linejoin:round;stroke-miterlimit:4;stroke-dasharray:none;stroke-dashoffset:0;stroke-opacity:1;enable-background:new" />
    </clipPath>
    <clipPath
       clipPathUnits="userSpaceOnUse"
       id="clipPath1082-3-5">
      <path
         sodipodi:nodetypes="sssssssss"
         inkscape:connector-curvature="0"
         id="path1084-6-6"
         d="M 361.9375,-212 C 507.2348,-212 528,-191.28677 528,-46.125 V 70.125 C 528,215.28618 507.2348,236 361.9375,236 H 214.0625 C 68.7652,236 48,215.28618 48,70.125 V -46.125 C 48,-191.28677 68.7652,-212 214.0625,-212 Z"
         style="display:inline;opacity:1;fill:#8c59d9;fill-opacity:1;stroke:none;stroke-width:2;stroke-linecap:round;stroke-linejoin:round;stroke-miterlimit:4;stroke-dasharray:none;stroke-dashoffset:0;stroke-opacity:1;enable-background:new" />
    </clipPath>
    <filter
       inkscape:collect="always"
       style="color-interpolation-filters:sRGB"
       id="filter4569-2"
       x="-0.0116"
       width="1.0232"
       y="-0.012428571"
       height="1.024857">
      <feGaussianBlur
         inkscape:collect="always"
         stdDeviation="1.16"
         id="feGaussianBlur4571-9" />
    </filter>
    <filter
       inkscape:collect="always"
       style="color-interpolation-filters:sRGB"
       id="filter913"
       x="-0.0232"
       width="1.0464"
       y="-0.024857143"
       height="1.0497143">
      <feGaussianBlur
         inkscape:collect="always"
         stdDeviation="2.32"
         id="feGaussianBlur915" />
    </filter>
    <linearGradient
       inkscape:collect="always"
       xlink:href="#linearGradient1013"
       id="linearGradient906"
       gradientUnits="userSpaceOnUse"
       x1="296"
       y1="-212"
       x2="296"
       y2="236" />
    <filter
       inkscape:collect="always"
       style="color-interpolation-filters:sRGB"
       id="filter1537"
       x="-0.071965931"
       width="1.1439319"
       y="-0.072034101"
       height="1.1440682">
      <feGaussianBlur
         inkscape:collect="always"
         stdDeviation="1.428074"
         id="feGaussianBlur1539" />
    </filter>
    <filter
       inkscape:collect="always"
       style="color-interpolation-filters:sRGB"
       id="filter926"
       x="-1.053462"
       width="3.106924"
       y="-1.053462"
       height="3.106924">
      <feGaussianBlur
         inkscape:collect="always"
         stdDeviation="0.3484106"
         id="feGaussianBlur928" />
    </filter>
    <filter
       inkscape:collect="always"
       style="color-interpolation-filters:sRGB"
       id="filter930"
       x="-0.45148371"
       width="1.9029674"
       y="-0.45148371"
       height="1.9029674">
      <feGaussianBlur
         inkscape:collect="always"
         stdDeviation="0.3484106"
         id="feGaussianBlur932" />
    </filter>
    <filter
       inkscape:collect="always"
       style="color-interpolation-filters:sRGB"
       id="filter934"
       x="-0.3160386"
       width="1.6320772"
       y="-0.3160386"
       height="1.6320772">
      <feGaussianBlur
         inkscape:collect="always"
         stdDeviation="0.3484106"
         id="feGaussianBlur936" />
    </filter>
    <filter
       inkscape:collect="always"
       style="color-interpolation-filters:sRGB"
       id="filter938"
       x="-0.3160386"
       width="1.6320772"
       y="-0.3160386"
       height="1.6320772">
      <feGaussianBlur
         inkscape:collect="always"
         stdDeviation="0.3484106"
         id="feGaussianBlur940" />
    </filter>
    <filter
       inkscape:collect="always"
       style="color-interpolation-filters:sRGB"
       id="filter942"
       x="-1.5801931"
       width="4.1603861"
       y="-1.5801931"
       height="4.1603861">
      <feGaussianBlur
         inkscape:collect="always"
         stdDeviation="0.3484106"
         id="feGaussianBlur944" />
    </filter>
    <filter
       inkscape:collect="always"
       style="color-interpolation-filters:sRGB"
       id="filter946"
       x="-0.45148371"
       width="1.9029674"
       y="-0.45148371"
       height="1.9029674">
      <feGaussianBlur
         inkscape:collect="always"
         stdDeviation="0.3484106"
         id="feGaussianBlur948" />
    </filter>
    <filter
       inkscape:collect="always"
       style="color-interpolation-filters:sRGB"
       id="filter950"
       x="-0.63207721"
       width="2.2641544"
       y="-0.63207721"
       height="2.2641544">
      <feGaussianBlur
         inkscape:collect="always"
         stdDeviation="0.3484106"
         id="feGaussianBlur952" />
    </filter>
    <filter
       inkscape:collect="always"
       style="color-interpolation-filters:sRGB"
       id="filter954"
       x="-0.39504826"
       width="1.7900965"
       y="-0.39504826"
       height="1.7900965">
      <feGaussianBlur
         inkscape:collect="always"
         stdDeviation="0.3484106"
         id="feGaussianBlur956" />
    </filter>
  </defs>
  <sodipodi:namedview
     id="base"
     pagecolor="#ffffff"
     bordercolor="#666666"
     borderopacity="1.0"
     inkscape:pageopacity="0.0"
     inkscape:pageshadow="2"
     inkscape:zoom="4.5796213"
     inkscape:cx="25.385158"
     inkscape:cy="188.16411"
     inkscape:document-units="px"
     inkscape:current-layer="layer1"
     showgrid="false"
     units="px"
     inkscape:window-width="1920"
     inkscape:window-height="1009"
     inkscape:window-x="0"
     inkscape:window-y="34"
     inkscape:window-maximized="1">
    <inkscape:grid
       type="xygrid"
       id="grid2168" />
  </sodipodi:namedview>
  <metadata
     id="metadata1485">
    <rdf:RDF>
      <cc:Work
         rdf:about="">
        <dc:format>image/svg+xml</dc:format>
        <dc:type
           rdf:resource="http://purl.org/dc/dcmitype/StillImage" />
        <dc:title />
      </cc:Work>
    </rdf:RDF>
  </metadata>
  <g
     inkscape:label="Livello 1"
     inkscape:groupmode="layer"
     id="layer1"
     transform="translate(0,-229.26666)">
    <path
       style="display:inline;opacity:0.2;fill:#000000;fill-opacity:1;stroke:none;stroke-width:2;stroke-linecap:round;stroke-linejoin:round;stroke-miterlimit:4;stroke-dasharray:none;stroke-dashoffset:0;stroke-opacity:1;filter:url(#filter913);enable-background:new"
       d="m 188.96876,45.999995 c 72.64865,0 83.03125,10.356615 83.03125,82.937505 v 58.125 c 0,72.58059 -10.3826,82.9375 -83.03125,82.9375 h -73.9375 C 42.382606,270 32.000006,259.64309 32.000006,187.0625 v -58.125 c 0,-72.58089 10.3826,-82.937505 83.031254,-82.937505 z"
       id="path899"
       inkscape:connector-curvature="0"
       sodipodi:nodetypes="sssssssss"
       transform="matrix(0.26970778,0,0,0.26970778,-7.1289177,220.56049)" />
    <path
       sodipodi:nodetypes="sssssssss"
       inkscape:connector-curvature="0"
       id="path4567-1"
       d="m 188.96876,43.999995 c 72.64865,0 83.03125,10.356615 83.03125,82.937505 v 58.125 c 0,72.58059 -10.3826,82.9375 -83.03125,82.9375 h -73.9375 C 42.382606,268 32.000006,257.64309 32.000006,185.0625 v -58.125 c 0,-72.58089 10.3826,-82.937505 83.031254,-82.937505 z"
       style="display:inline;opacity:0.1;fill:#000000;fill-opacity:1;stroke:none;stroke-width:2;stroke-linecap:round;stroke-linejoin:round;stroke-miterlimit:4;stroke-dasharray:none;stroke-dashoffset:0;stroke-opacity:1;filter:url(#filter4569-2);enable-background:new"
       transform="matrix(0.26970778,0,0,0.26970778,-7.1289177,220.56049)" />
    <path
       style="display:inline;opacity:1;fill:#072837;fill-opacity:1;stroke:none;stroke-width:0.5394156;stroke-linecap:round;stroke-linejoin:round;stroke-miterlimit:4;stroke-dasharray:none;stroke-dashoffset:0;stroke-opacity:1;enable-background:new"
       d="m 23.895905,232.42763 c -9.797337,0 -15.3941297,0.69699 -18.5445167,3.84334 -3.150381,3.14634 -3.849657,8.73736 -3.849657,18.52555 v 15.67677 c 0,9.78815 0.699276,15.3792 3.849657,18.52555 3.150387,3.14636 8.7471787,3.84333 18.5445167,3.84333 h 19.94152 c 9.797339,0 15.394134,-0.69697 18.544517,-3.84333 3.150384,-3.14635 3.849659,-8.7374 3.849659,-18.52555 v -15.67677 c 0,-9.78819 -0.699275,-15.37921 -3.849659,-18.52555 -3.150383,-3.14635 -8.74718,-3.84334 -18.544517,-3.84334 z"
       id="rect877-2"
       inkscape:connector-curvature="0" />
    <path
       sodipodi:nodetypes="sssssssss"
       inkscape:connector-curvature="0"
       id="path1068-7"
       d="M 361.9375,-212 C 507.2348,-212 528,-191.28677 528,-46.125 V 70.125 C 528,215.28618 507.2348,236 361.9375,236 H 214.0625 C 68.7652,236 48,215.28618 48,70.125 V -46.125 C 48,-191.28677 68.7652,-212 214.0625,-212 Z"
       style="display:inline;opacity:0.4;fill:none;fill-opacity:1;stroke:url(#linearGradient906);stroke-width:8;stroke-linecap:round;stroke-linejoin:round;stroke-miterlimit:4;stroke-dasharray:none;stroke-dashoffset:0;stroke-opacity:1;enable-background:new"
       clip-path="url(#clipPath1082-3-5)"
       transform="matrix(0.13485389,0,0,0.13485389,-4.9712557,260.6234)" />
    <path
       style="display:inline;opacity:0.2;fill:#131313;fill-opacity:1;stroke:none;stroke-width:0.5394156;stroke-linecap:round;stroke-linejoin:round;stroke-miterlimit:4;stroke-dasharray:none;stroke-dashoffset:0;stroke-opacity:1;enable-background:new"
       d="m 1.5017313,269.93387 v 0.53942 c 0,9.78815 0.699276,15.3792 3.849657,18.52555 3.150387,3.14636 8.7471787,3.84333 18.5445167,3.84333 h 19.94152 c 9.797339,0 15.394134,-0.69697 18.544517,-3.84333 3.150384,-3.14635 3.849659,-8.7374 3.849659,-18.52555 v -0.53942 c 0,9.78815 -0.699275,15.3792 -3.849659,18.52555 -3.150383,3.14636 -8.747178,3.84334 -18.544517,3.84334 h -19.94152 c -9.797338,0 -15.3941297,-0.69698 -18.5445167,-3.84334 -3.150381,-3.14635 -3.849657,-8.7374 -3.849657,-18.52555 z"
       id="path917"
       inkscape:connector-curvature="0" />
    <path
       inkscape:connector-curvature="0"
       id="path1507"
       d="m 40.043488,285.98345 c -2.853201,-0.31723 -5.463384,-1.06879 -8.010249,-2.30643 -7.684425,-3.73419 -12.678078,-11.12675 -13.364628,-19.78487 l -0.06201,-0.78206 h 23.8125 23.8125 l -0.06587,0.87686 c -0.05809,0.77331 -0.210349,1.93707 -0.396894,3.03347 l -0.06048,0.35548 h -3.969022 -3.969023 v 0.85317 0.85316 h 1.706327 1.706324 v 0.85316 0.85316 h -3.412651 -3.412649 v 0.85316 0.85317 h -1.706327 -1.706324 v 0.85316 0.85316 h 2.559486 2.55949 v 0.85317 0.85316 h 1.710015 1.710018 l -0.02739,0.82946 -0.02739,0.82947 -0.825825,0.0273 -0.825826,0.0273 -0.02734,0.82582 -0.02734,0.82583 -2.532121,0.0252 -2.532121,0.0252 -0.02737,0.82793 -0.02737,0.82792 -0.829464,0.0274 -0.829463,0.0274 v 0.80052 0.80053 l -2.535791,0.0252 -2.535787,0.0252 -0.02726,0.87687 -0.02726,0.87686 h 0.856719 0.85672 v 0.55429 0.55429 l -0.924258,0.15931 c -0.508344,0.0876 -1.244195,0.19946 -1.635229,0.24854 -0.678848,0.0852 -4.232929,0.1053 -4.929385,0.0279 z M 18.668611,260.6217 c 0.253464,-3.19645 1.016216,-5.99513 2.409178,-8.83972 3.295359,-6.7295 9.383409,-11.41833 16.737997,-12.89109 3.101787,-0.62114 6.576372,-0.58221 9.716574,0.10884 1.336019,0.29401 3.288591,0.92754 4.33691,1.40713 l 0.782066,0.35779 v 1.36135 1.36135 h -0.853162 -0.853162 v 0.85097 0.85098 l 1.682626,0.0259 1.682625,0.0259 0.02739,0.82946 0.02739,0.82947 h -0.856856 -0.856853 v 0.85097 0.85098 l 1.682626,0.0259 1.682628,0.0259 0.02739,0.82946 0.02739,0.82947 h 0.849471 0.849471 v 0.85316 0.85316 h -2.559487 -2.559489 v 0.85316 0.85317 h 3.412652 3.412651 v 0.85316 0.85316 H 57.77031 56.063986 v 0.85316 0.85317 h 4.822184 4.822185 l 0.06048,0.35548 c 0.186545,1.0964 0.338807,2.26015 0.396894,3.03347 l 0.06587,0.87676 h -23.8125 -23.8125 z m 17.346054,-3.8092 c 2.112409,-0.71229 3.633307,-2.23065 4.374257,-4.36694 0.238676,-0.68815 0.263093,-0.88125 0.263705,-2.08551 5.82e-4,-1.19068 -0.02555,-1.40512 -0.254409,-2.08551 -0.369491,-1.09851 -0.865077,-1.88693 -1.735144,-2.76041 -0.626519,-0.62899 -0.930031,-0.84993 -1.660149,-1.20855 -0.491406,-0.24137 -1.170742,-0.50907 -1.509637,-0.59489 -0.80313,-0.20338 -2.307733,-0.20083 -3.173042,0.005 -2.416838,0.57595 -4.459117,2.61823 -5.035066,5.03507 -0.206208,0.86531 -0.208758,2.36991 -0.0054,3.17304 0.08582,0.3389 0.35352,1.01823 0.594886,1.50964 0.717874,1.46154 2.13461,2.73857 3.641717,3.2826 1.396655,0.50416 3.17536,0.54215 4.498258,0.0961 z"
       style="fill:#ffffff;stroke-width:0.09479585;fill-opacity:1;filter:url(#filter1537);opacity:0.3" />
    <path
       style="fill:#000000;stroke-width:0.09479585"
       d="m 40.043488,285.98345 c -2.853201,-0.31723 -5.463384,-1.06879 -8.010249,-2.30643 -7.684425,-3.73419 -12.678078,-11.12675 -13.364628,-19.78487 l -0.06201,-0.78206 h 23.8125 23.8125 l -0.06587,0.87686 c -0.05809,0.77331 -0.210349,1.93707 -0.396894,3.03347 l -0.06048,0.35548 h -3.969022 -3.969023 v 0.85317 0.85316 h 1.706327 1.706324 v 0.85316 0.85316 h -3.412651 -3.412649 v 0.85316 0.85317 h -1.706327 -1.706324 v 0.85316 0.85316 h 2.559486 2.55949 v 0.85317 0.85316 h 1.710015 1.710018 l -0.02739,0.82946 -0.02739,0.82947 -0.825825,0.0273 -0.825826,0.0273 -0.02734,0.82582 -0.02734,0.82583 -2.532121,0.0252 -2.532121,0.0252 -0.02737,0.82793 -0.02737,0.82792 -0.829464,0.0274 -0.829463,0.0274 v 0.80052 0.80053 l -2.535791,0.0252 -2.535787,0.0252 -0.02726,0.87687 -0.02726,0.87686 h 0.856719 0.85672 v 0.55429 0.55429 l -0.924258,0.15931 c -0.508344,0.0876 -1.244195,0.19946 -1.635229,0.24854 -0.678848,0.0852 -4.232929,0.1053 -4.929385,0.0279 z M 18.668611,260.6217 c 0.253464,-3.19645 1.016216,-5.99513 2.409178,-8.83972 3.295359,-6.7295 9.383409,-11.41833 16.737997,-12.89109 3.101787,-0.62114 6.576372,-0.58221 9.716574,0.10884 1.336019,0.29401 3.288591,0.92754 4.33691,1.40713 l 0.782066,0.35779 v 1.36135 1.36135 h -0.853162 -0.853162 v 0.85097 0.85098 l 1.682626,0.0259 1.682625,0.0259 0.02739,0.82946 0.02739,0.82947 h -0.856856 -0.856853 v 0.85097 0.85098 l 1.682626,0.0259 1.682628,0.0259 0.02739,0.82946 0.02739,0.82947 h 0.849471 0.849471 v 0.85316 0.85316 h -2.559487 -2.559489 v 0.85316 0.85317 h 3.412652 3.412651 v 0.85316 0.85316 H 57.77031 56.063986 v 0.85316 0.85317 h 4.822184 4.822185 l 0.06048,0.35548 c 0.186545,1.0964 0.338807,2.26015 0.396894,3.03347 l 0.06587,0.87676 h -23.8125 -23.8125 z m 17.346054,-3.8092 c 2.112409,-0.71229 3.633307,-2.23065 4.374257,-4.36694 0.238676,-0.68815 0.263093,-0.88125 0.263705,-2.08551 5.82e-4,-1.19068 -0.02555,-1.40512 -0.254409,-2.08551 -0.369491,-1.09851 -0.865077,-1.88693 -1.735144,-2.76041 -0.626519,-0.62899 -0.930031,-0.84993 -1.660149,-1.20855 -0.491406,-0.24137 -1.170742,-0.50907 -1.509637,-0.59489 -0.80313,-0.20338 -2.307733,-0.20083 -3.173042,0.005 -2.416838,0.57595 -4.459117,2.61823 -5.035066,5.03507 -0.206208,0.86531 -0.208758,2.36991 -0.0054,3.17304 0.08582,0.3389 0.35352,1.01823 0.594886,1.50964 0.717874,1.46154 2.13461,2.73857 3.641717,3.2826 1.396655,0.50416 3.17536,0.54215 4.498258,0.0961 z"
       id="path817"
       inkscape:connector-curvature="0" />
    <circle
       r="0.92604166"
       cy="238.75023"
       cx="8.8514423"
       id="circle1557"
       style="opacity:1;fill:#ffffff;fill-opacity:1;stroke:none;stroke-width:1.35081887;stroke-linecap:round;stroke-linejoin:round;stroke-miterlimit:4;stroke-dasharray:none;stroke-opacity:1;filter:url(#filter930)" />
    <circle
       style="opacity:1;fill:#ffffff;fill-opacity:1;stroke:none;stroke-width:1.92974126;stroke-linecap:round;stroke-linejoin:round;stroke-miterlimit:4;stroke-dasharray:none;stroke-opacity:1;filter:url(#filter934)"
       id="circle1559"
       cx="10.452367"
       cy="246.14836"
       r="1.3229166" />
    <circle
       r="0.39687499"
       cy="238.2916"
       cx="17.639217"
       id="circle1561"
       style="opacity:1;fill:#ffffff;fill-opacity:1;stroke:none;stroke-width:0.57892239;stroke-linecap:round;stroke-linejoin:round;stroke-miterlimit:4;stroke-dasharray:none;stroke-opacity:1;filter:url(#filter926)" />
    <circle
       style="opacity:1;fill:#ffffff;fill-opacity:1;stroke:none;stroke-width:0.96487063;stroke-linecap:round;stroke-linejoin:round;stroke-miterlimit:4;stroke-dasharray:none;stroke-opacity:1;filter:url(#filter950)"
       id="circle1563"
       cx="9.4130135"
       cy="261.24149"
       r="0.66145831" />
    <circle
       r="0.92604166"
       cy="277.41132"
       cx="13.444173"
       id="circle1565"
       style="opacity:1;fill:#ffffff;fill-opacity:1;stroke:none;stroke-width:1.35081887;stroke-linecap:round;stroke-linejoin:round;stroke-miterlimit:4;stroke-dasharray:none;stroke-opacity:1;filter:url(#filter946)" />
    <circle
       style="opacity:1;fill:#ffffff;fill-opacity:1;stroke:none;stroke-width:1.54379296;stroke-linecap:round;stroke-linejoin:round;stroke-miterlimit:4;stroke-dasharray:none;stroke-opacity:1;filter:url(#filter954)"
       id="circle1567"
       cx="7.0093007"
       cy="269.15759"
       r="1.0583333" />
    <circle
       r="0.26458332"
       cy="280.46423"
       cx="8.308012"
       id="circle1569"
       style="opacity:1;fill:#ffffff;fill-opacity:1;stroke:none;stroke-width:0.38594824;stroke-linecap:round;stroke-linejoin:round;stroke-miterlimit:4;stroke-dasharray:none;stroke-opacity:1;filter:url(#filter942)" />
    <circle
       style="opacity:1;fill:#ffffff;fill-opacity:1;stroke:none;stroke-width:1.92974126;stroke-linecap:round;stroke-linejoin:round;stroke-miterlimit:4;stroke-dasharray:none;stroke-opacity:1;filter:url(#filter938)"
       id="circle1571"
       cx="19.606098"
       cy="284.87061"
       r="1.3229166" />
  </g>
</svg>
