<?xml version="1.0" encoding="UTF-8" standalone="no"?>
<svg
   xmlns:dc="http://purl.org/dc/elements/1.1/"
   xmlns:cc="http://creativecommons.org/ns#"
   xmlns:rdf="http://www.w3.org/1999/02/22-rdf-syntax-ns#"
   xmlns:svg="http://www.w3.org/2000/svg"
   xmlns="http://www.w3.org/2000/svg"
   xmlns:xlink="http://www.w3.org/1999/xlink"
   xmlns:sodipodi="http://sodipodi.sourceforge.net/DTD/sodipodi-0.dtd"
   xmlns:inkscape="http://www.inkscape.org/namespaces/inkscape"
   viewBox="0 0 256 256"
   version="1.1"
   id="svg16"
   sodipodi:docname="applications-architecture.svg"
   width="256"
   height="256"
   inkscape:version="0.92.3 (2405546, 2018-03-11)">
  <metadata
     id="metadata20">
    <rdf:RDF>
      <cc:Work
         rdf:about="">
        <dc:format>image/svg+xml</dc:format>
        <dc:type
           rdf:resource="http://purl.org/dc/dcmitype/StillImage" />
        <dc:title />
      </cc:Work>
    </rdf:RDF>
  </metadata>
  <sodipodi:namedview
     pagecolor="#ffffff"
     bordercolor="#666666"
     borderopacity="1"
     objecttolerance="10"
     gridtolerance="10"
     guidetolerance="10"
     inkscape:pageopacity="0"
     inkscape:pageshadow="2"
     inkscape:window-width="1920"
     inkscape:window-height="1009"
     id="namedview18"
     showgrid="false"
     inkscape:zoom="3.2382812"
     inkscape:cx="117.63042"
     inkscape:cy="90.943303"
     inkscape:window-x="0"
     inkscape:window-y="34"
     inkscape:window-maximized="1"
     inkscape:current-layer="svg16" />
  <defs
     id="defs3">
    <path
       id="a"
       d="M 44.5,20 H 24 v 8.5 H 35.8 C 34.7,33.9 30.1,37 24,37 16.8,37 11,31.2 11,24 c 0,-7.2 5.8,-13 13,-13 3.1,0 5.9,1.1 8.1,2.9 L 38.5,7.5 C 34.6,4.1 29.6,2 24,2 11.8,2 2,11.8 2,24 c 0,12.2 9.8,22 22,22 11,0 21,-8 21,-22 0,-1.3 -0.2,-2.7 -0.5,-4 z"
       inkscape:connector-curvature="0" />
    <linearGradient
       inkscape:collect="always"
       xlink:href="#linearGradient1013"
       id="linearGradient1108"
       x1="296"
       y1="-212"
       x2="296"
       y2="236"
       gradientUnits="userSpaceOnUse" />
    <linearGradient
       id="linearGradient1013"
       inkscape:collect="always">
      <stop
         id="stop1005"
         offset="0"
         style="stop-color:#ffffff;stop-opacity:1;" />
      <stop
         style="stop-color:#ffffff;stop-opacity:0.09803922"
         offset="0.125"
         id="stop1007" />
      <stop
         style="stop-color:#000000;stop-opacity:0.09803922"
         offset="0.92500001"
         id="stop1009" />
      <stop
         id="stop1011"
         offset="1"
         style="stop-color:#000000;stop-opacity:0.49803922" />
    </linearGradient>
    <clipPath
       clipPathUnits="userSpaceOnUse"
       id="clipPath1082-3-361">
      <path
         sodipodi:nodetypes="sssssssss"
         inkscape:connector-curvature="0"
         id="path1084-6-29"
         d="M 361.9375,-212 C 507.2348,-212 528,-191.28677 528,-46.125 V 70.125 C 528,215.28618 507.2348,236 361.9375,236 H 214.0625 C 68.7652,236 48,215.28618 48,70.125 V -46.125 C 48,-191.28677 68.7652,-212 214.0625,-212 Z"
         style="display:inline;opacity:1;fill:#8c59d9;fill-opacity:1;stroke:none;stroke-width:2;stroke-linecap:round;stroke-linejoin:round;stroke-miterlimit:4;stroke-dasharray:none;stroke-dashoffset:0;stroke-opacity:1;enable-background:new" />
    </clipPath>
    <filter
       inkscape:collect="always"
       style="color-interpolation-filters:sRGB"
       id="filter4569"
       x="-0.0116"
       width="1.0232"
       y="-0.012428571"
       height="1.024857">
      <feGaussianBlur
         inkscape:collect="always"
         stdDeviation="1.16"
         id="feGaussianBlur4571" />
    </filter>
    <filter
       inkscape:collect="always"
       style="color-interpolation-filters:sRGB"
       id="filter939"
       x="-0.0232"
       width="1.0464"
       y="-0.024857143"
       height="1.0497143">
      <feGaussianBlur
         inkscape:collect="always"
         stdDeviation="2.32"
         id="feGaussianBlur941" />
    </filter>
    <linearGradient
       id="linearGradient4235"
       inkscape:collect="always">
      <stop
         id="stop4237"
         offset="0"
         style="stop-color:#ffffff;stop-opacity:1;" />
      <stop
         id="stop4240"
         offset="1"
         style="stop-color:#ffffff;stop-opacity:0;" />
    </linearGradient>
    <clipPath
       clipPathUnits="userSpaceOnUse"
       id="clipPath1083">
      <path
         sodipodi:nodetypes="sssssssss"
         inkscape:connector-curvature="0"
         id="path1085"
         d="M 188.96875,44 C 261.6174,44 272,54.356615 272,126.9375 v 58.125 C 272,257.64309 261.6174,268 188.96875,268 h -73.9375 C 42.3826,268 32,257.64309 32,185.0625 v -58.125 C 32,54.356615 42.3826,44 115.03125,44 Z"
         style="opacity:1;fill:#46a926;fill-opacity:1;stroke:none;stroke-width:2;stroke-linecap:round;stroke-linejoin:round;stroke-miterlimit:4;stroke-dasharray:none;stroke-dashoffset:0;stroke-opacity:1" />
    </clipPath>
    <linearGradient
       inkscape:collect="always"
       xlink:href="#linearGradient4235"
       id="linearGradient2729"
       gradientUnits="userSpaceOnUse"
       gradientTransform="matrix(0.5,0,0,0.5,24,38)"
       x1="247.24121"
       y1="358.57486"
       x2="296.8931"
       y2="524" />
    <filter
       inkscape:collect="always"
       style="color-interpolation-filters:sRGB"
       id="filter2786"
       x="-0.045765148"
       width="1.0915303"
       y="-0.050464327"
       height="1.1009287">
      <feGaussianBlur
         inkscape:collect="always"
         stdDeviation="3.4323862"
         id="feGaussianBlur2788" />
    </filter>
    <filter
       inkscape:collect="always"
       style="color-interpolation-filters:sRGB"
       id="filter2804"
       x="-0.041157006"
       width="1.082314"
       y="-0.057572291"
       height="1.1151446">
      <feGaussianBlur
         inkscape:collect="always"
         stdDeviation="0.85743622"
         id="feGaussianBlur2806" />
    </filter>
  </defs>
  <clipPath
     id="b">
    <use
       xlink:href="#a"
       overflow="visible"
       id="use5"
       style="overflow:visible"
       x="0"
       y="0"
       width="100%"
       height="100%" />
  </clipPath>
  <path
     style="display:inline;opacity:0.2;fill:#000000;fill-opacity:1;stroke:none;stroke-width:2;stroke-linecap:round;stroke-linejoin:round;stroke-miterlimit:4;stroke-dasharray:none;stroke-dashoffset:0;stroke-opacity:1;filter:url(#filter939);enable-background:new"
     d="m 162.53675,5.5680001 c 72.64865,0 83.03125,10.3566149 83.03125,82.9375049 v 58.125005 c 0,72.58059 -10.3826,82.9375 -83.03125,82.9375 H 88.599254 C 15.9506,229.56801 5.568,219.2111 5.568,146.63051 V 88.505505 c 0,-72.58089 10.3826,-82.9375049 83.031254,-82.9375049 z"
     id="path937"
     inkscape:connector-curvature="0"
     sodipodi:nodetypes="sssssssss"
     transform="matrix(1.019368,0,0,1.019368,-7.2181772e-8,8.3098661)" />
  <path
     sodipodi:nodetypes="sssssssss"
     inkscape:connector-curvature="0"
     id="path4558"
     d="m 165.68477,11.946967 c 74.05571,0 84.6394,10.557203 84.6394,84.543835 v 59.250778 c 0,73.98633 -10.58369,84.54383 -84.6394,84.54383 H 90.315249 c -74.055717,0 -84.6394076,-10.5575 -84.6394076,-84.54383 V 96.490802 c 0,-73.986632 10.5836906,-84.543835 84.6394076,-84.543835 z"
     style="display:inline;opacity:0.1;fill:none;fill-opacity:1;stroke:#000000;stroke-width:4.07747173;stroke-linecap:round;stroke-linejoin:round;stroke-miterlimit:4;stroke-dasharray:none;stroke-dashoffset:0;stroke-opacity:1;enable-background:new" />
  <path
     sodipodi:nodetypes="sssssssss"
     inkscape:connector-curvature="0"
     id="path4567"
     d="m 162.53675,3.5680001 c 72.64865,0 83.03125,10.3566149 83.03125,82.9375049 v 58.125005 c 0,72.58059 -10.3826,82.9375 -83.03125,82.9375 H 88.599254 C 15.9506,227.56801 5.568,217.2111 5.568,144.63051 V 86.505505 c 0,-72.58089 10.3826,-82.9375049 83.031254,-82.9375049 z"
     style="display:inline;opacity:0.1;fill:#000000;fill-opacity:1;stroke:none;stroke-width:2;stroke-linecap:round;stroke-linejoin:round;stroke-miterlimit:4;stroke-dasharray:none;stroke-dashoffset:0;stroke-opacity:1;filter:url(#filter4569);enable-background:new"
     transform="matrix(1.019368,0,0,1.019368,-7.2181772e-8,8.3098661)" />
  <path
     style="display:inline;opacity:1;fill:#d28628;fill-opacity:1;stroke:none;stroke-width:2.03873587;stroke-linecap:round;stroke-linejoin:round;stroke-miterlimit:4;stroke-dasharray:none;stroke-dashoffset:0;stroke-opacity:1;enable-background:new"
     d="m 165.68476,11.946967 c 74.05571,0 84.6394,10.557203 84.6394,84.543835 v 59.250778 c 0,73.98633 -10.58369,84.54383 -84.6394,84.54383 H 90.315238 c -74.055712,0 -84.6394026,-10.5575 -84.6394026,-84.54383 V 96.490802 c 0,-73.986632 10.5836906,-84.543835 84.6394026,-84.543835 z"
     id="rect877"
     inkscape:connector-curvature="0"
     sodipodi:nodetypes="sssssssss" />
  <path
     sodipodi:nodetypes="sssssssss"
     inkscape:connector-curvature="0"
     id="path1068"
     d="M 361.9375,-212 C 507.2348,-212 528,-191.28677 528,-46.125 V 70.125 C 528,215.28618 507.2348,236 361.9375,236 H 214.0625 C 68.7652,236 48,215.28618 48,70.125 V -46.125 C 48,-191.28677 68.7652,-212 214.0625,-212 Z"
     style="display:inline;opacity:0.4;fill:none;fill-opacity:1;stroke:url(#linearGradient1108);stroke-width:8;stroke-linecap:round;stroke-linejoin:round;stroke-miterlimit:4;stroke-dasharray:none;stroke-dashoffset:0;stroke-opacity:1;enable-background:new"
     clip-path="url(#clipPath1082-3-361)"
     transform="matrix(0.50968403,0,0,0.50968403,-18.788999,120)" />
  <g
     transform="matrix(2.372035,0,0,2.372035,-20.736914,115.42106)"
     id="g983" />
  <path
     style="display:inline;opacity:0.2;fill:#ffffff;fill-opacity:1;stroke:none;stroke-width:2.02584362;stroke-linecap:round;stroke-linejoin:round;stroke-miterlimit:4;stroke-dasharray:none;stroke-dashoffset:0;stroke-opacity:1;enable-background:new"
     d="M 129.54217,11.946967 V 240.28541 h 37.20966 c 73.12207,0 83.57233,-10.5575 83.57233,-84.54383 V 96.490802 c 0,-73.986632 -10.45026,-84.543835 -83.57233,-84.543835 z"
     id="path1099"
     inkscape:connector-curvature="0" />
  <path
     style="display:inline;opacity:0.25;fill:#ffffff;fill-opacity:1;stroke:none;stroke-width:2.03873587;stroke-linecap:round;stroke-linejoin:round;stroke-miterlimit:4;stroke-dasharray:none;stroke-dashoffset:0;stroke-opacity:1;enable-background:new"
     d="m 90.315238,240.28541 c -74.055712,0 -84.6394026,-10.5572 -84.6394026,-84.54383 V 126.11621 H 250.32416 v 29.62537 c 0,73.98663 -10.58369,84.54383 -84.6394,84.54383 z"
     id="path1107"
     inkscape:connector-curvature="0" />
  <path
     style="opacity:0.3;fill:#fffaee;fill-opacity:1;stroke:none;stroke-width:0.84875506;stroke-linecap:butt;stroke-linejoin:round;stroke-miterlimit:4;stroke-dasharray:none;stroke-opacity:1"
     d="m 9.2169938,204.1941 c 0.33812,1.44382 0.631327,2.97389 1.0292972,4.30859 0.73623,2.46913 1.578113,4.75548 2.539063,6.87107 0.960949,2.11563 2.04046,4.05978 3.251953,5.84768 1.211492,1.78787 2.555108,3.41832 4.042967,4.90428 1.487861,1.48596 3.120104,2.82728 4.910158,4.0371 1.790053,1.20987 3.737398,2.28851 5.855467,3.24805 2.11807,0.95959 4.406998,1.80008 6.878907,2.53516 2.471909,0.73512 5.12694,1.36592 7.978514,1.90235 2.851578,0.53646 5.899185,0.98014 9.15625,1.34377 3.257068,0.36359 6.72373,0.64668 10.41211,0.86328 7.376761,0.43317 15.641473,0.59766 24.898435,0.59766 h 75.371105 c 9.25696,0 17.52167,-0.16441 24.89843,-0.59766 3.68838,-0.21657 7.15505,-0.49969 10.4121,-0.86328 3.25708,-0.36359 6.30469,-0.80731 9.15626,-1.34377 2.85158,-0.53643 5.50661,-1.16723 7.97852,-1.90235 2.47191,-0.73508 4.76084,-1.57557 6.87891,-2.53516 2.11807,-0.95954 4.06541,-2.03818 5.85546,-3.24805 1.79006,-1.20982 3.42229,-2.55114 4.91015,-4.0371 1.48786,-1.48596 2.83149,-3.11641 4.04298,-4.90428 1.21149,-1.7879 2.29099,-3.73205 3.25195,-5.84768 0.96095,-2.11559 1.80282,-4.40194 2.53906,-6.87107 0.73623,-2.46917 1.36696,-5.12217 1.9043,-7.97072 0.53734,-2.84852 0.98143,-5.89278 1.3457,-9.14646 0.36428,-3.25372 0.64822,-6.71569 0.86524,-10.40039 0.43403,-7.36943 0.5996,-15.62672 0.5996,-24.875 v -16.31448 a 23.903614,25.6 0 0 0 -23.0703,20.17187 15.267471,17.580724 0 0 0 -4.41016,-0.75583 15.267471,17.580724 0 0 0 -14.53516,12.26366 l -19.22851,4.73242 -0.084,0.0506 a 23.903614,25.6 0 0 0 -22.28711,-16.42968 23.903614,25.6 0 0 0 -23.68554,22.33595 23.903614,25.6 0 0 0 -5.61524,-0.74608 23.903614,25.6 0 0 0 -23.9043,25.59961 23.903614,25.6 0 0 0 3.13086,12.63084 l -0.12696,0.0763 -11.75975,13.48441 c 0,0 -1.49766,0.56379 -1.64844,0.62109 a 43.951804,25.6 0 0 0 -25.212872,-15.94328 23.903614,25.6 0 0 0 -23.447267,-20.73827 23.903614,25.6 0 0 0 -0.339855,0.0151 23.903614,25.6 0 0 0 -21.25195,-13.89452 23.903614,25.6 0 0 0 -23.4863282,20.9258 z"
     id="path1011"
     inkscape:connector-curvature="0" />
  <g
     id="g909"
     transform="translate(-2.9822091e-6,21.248718)">
    <path
       inkscape:connector-curvature="0"
       id="path2087"
       d="m 75.432057,150.77465 c -1.76914,-0.27562 -4.23622,-1.45462 -4.23622,-2.02445 0,-0.17761 -0.34919,-0.69361 -0.90979,-1.34443 -1.10601,-1.284 -1.65,-2.31005 -1.92648,-3.63364 -0.11501,-0.5506 -0.24384,-1.04248 -0.2863,-1.09307 -0.0424,-0.0506 -0.46939,-0.22931 -0.94875,-0.39716 -0.75865,-0.26562 -0.89717,-0.28208 -1.06913,-0.127 -0.25334,0.22847 -0.57648,0.22509 -1.25149,-0.0131 -0.60523,-0.21353 -0.86598,-0.17012 -0.86598,0.14421 0,0.30735 -0.57923,1.01766 -1.01262,1.24178 -0.34317,0.17746 -0.44545,0.17317 -1.24109,-0.052 -0.4769,-0.13495 -0.97238,-0.21784 -1.10107,-0.18419 -0.31651,0.0828 -3.96582,-1.1464 -4.25139,-1.43196 -0.1251,-0.1251 -0.5373,-0.32492 -0.91601,-0.44404 -0.51883,-0.16319 -0.74571,-0.31333 -0.92044,-0.60914 -0.25708,-0.43519 -0.29574,-1.30101 -0.0764,-1.71084 0.12458,-0.23279 0.0907,-0.28106 -0.31662,-0.45125 -0.25087,-0.10482 -0.52118,-0.19058 -0.6007,-0.19058 -0.26229,0 -0.70081,-0.38547 -0.70081,-0.61602 0,-0.16728 -0.23696,-0.31266 -0.90724,-0.55662 -0.49899,-0.18162 -0.94732,-0.32994 -0.99629,-0.32961 -0.049,3.8e-4 -0.34721,0.25151 -0.66274,0.55816 -1.08773,1.05716 -2.88109,1.89223 -4.59024,2.13741 -0.3286,0.0471 -0.6813,0.18857 -0.8015,0.32139 -0.59987,0.66286 -3.84973,-0.12747 -5.91304,-1.43797 -0.40924,-0.25993 -0.52835,-0.40541 -0.48079,-0.58725 0.045,-0.17212 -0.13594,-0.44571 -0.6284,-0.95012 -0.38039,-0.38961 -0.8855,-1.01149 -1.12248,-1.38194 -0.51473,-0.80466 -1.16352,-2.3514 -1.16968,-2.78858 -0.002,-0.17206 -0.0871,-0.42215 -0.18813,-0.55575 -0.21405,-0.283 -0.24137,-0.97978 -0.0523,-1.33312 0.0723,-0.13511 0.15289,-0.57835 0.17908,-0.98499 0.0438,-0.67976 0.21877,-1.2254 0.44282,-1.38078 0.0496,-0.0344 0.32928,-0.45675 0.62148,-0.93853 0.65534,-1.08052 1.23901,-1.81958 2.06055,-2.60913 0.6569,-0.63133 2.02948,-1.51017 2.57116,-1.64628 0.21506,-0.054 0.44972,-0.31948 0.75082,-0.84931 0.58383,-1.02738 2.16328,-2.68896 2.60474,-2.7402 0.34844,-0.0404 0.32008,-5.7e-4 2.0947,-2.94517 0.38271,-0.63502 0.74089,-1.18242 0.79595,-1.21646 0.0551,-0.034 0.29088,-0.007 0.52404,0.0597 0.36114,0.10357 0.45181,0.0849 0.61221,-0.1263 0.10357,-0.13633 0.36419,-0.28275 0.57916,-0.32538 0.3176,-0.063 0.42901,-0.0231 0.5944,0.21308 0.11194,0.15982 0.20354,0.40841 0.20354,0.55241 0,0.17771 0.14564,0.33128 0.45339,0.47803 0.44611,0.21274 0.45221,0.22567 0.37987,0.80528 -0.0404,0.32399 -0.14112,1.42771 -0.22375,2.45272 -0.13822,1.71485 -0.13321,1.87608 0.0628,2.01942 0.37525,0.27439 0.49252,0.95184 0.50913,2.94125 0.0146,1.75175 0.0427,1.98688 0.28412,2.3776 0.84835,1.3731 1.30502,3.74931 1.07469,5.59188 -0.0825,0.65964 -0.092,1.15409 -0.024,1.23757 0.14356,0.17609 -0.20183,1.03383 -0.45549,1.13117 -0.34152,0.13106 -0.18673,0.2602 0.56452,0.47099 0.5822,0.16335 0.80739,0.17832 1.01459,0.0674 0.20037,-0.10723 0.46574,-0.10489 1.07182,0.009 0.44304,0.0836 0.82206,0.13106 0.84227,0.10547 0.0202,-0.0256 0.12284,-0.27176 0.22808,-0.54706 0.21788,-0.56999 0.84426,-1.06366 1.34961,-1.06366 0.18553,0 0.64177,0.10399 1.01388,0.23109 0.3721,0.1271 0.74802,0.20651 0.83536,0.17648 0.24559,-0.0845 4.1266,1.20609 4.19966,1.3965 0.0356,0.0927 0.3499,0.23697 0.69851,0.3206 0.76295,0.18303 1.23403,0.52983 1.46251,1.07666 0.14423,0.34517 0.14249,0.49694 -0.0115,1.00873 -0.0997,0.33134 -0.1407,0.63738 -0.0911,0.6801 0.0496,0.0427 0.34363,0.17532 0.65334,0.29469 0.6133,0.23636 1.00109,0.52836 1.00109,0.75381 0,0.079 0.26748,0.23946 0.5944,0.35664 0.68311,0.24483 1.15541,0.28478 0.95106,0.0804 -0.17889,-0.17889 0.0674,-1.24513 0.28756,-1.24513 0.0902,0 0.28577,-0.23932 0.43451,-0.53183 0.88861,-1.74754 2.46146,-3.34702 4.04943,-4.11797 0.67857,-0.32945 1.05555,-0.59449 1.17617,-0.82695 0.6426,-1.23842 2.56298,-3.3109 2.97308,-3.20855 0.18646,0.0465 0.44481,-0.28603 1.29426,-1.66612 0.58371,-0.94834 1.17498,-1.90861 1.31393,-2.13392 0.23004,-0.37301 0.2949,-0.40362 0.72502,-0.34215 0.36378,0.052 0.53462,0.01 0.74313,-0.18474 0.14892,-0.13873 0.39219,-0.25225 0.54061,-0.25225 0.34897,0 0.71533,0.40833 0.71533,0.79729 0,0.23304 0.11412,0.3565 0.48345,0.52305 0.45379,0.20462 0.47979,0.24567 0.42388,0.66891 -0.0328,0.24801 -0.11822,1.15481 -0.18989,2.01512 -0.0717,0.86032 -0.16455,1.77863 -0.20639,2.0407 -0.0662,0.4144 -0.0412,0.48561 0.19134,0.54643 0.14708,0.0385 0.26789,0.1056 0.26846,0.14919 6.6e-4,0.0436 0.0772,0.67053 0.17034,1.39319 0.10718,0.83175 0.13511,1.62947 0.0761,2.17376 -0.0877,0.80961 -0.0722,0.89366 0.26646,1.43907 0.49457,0.79655 0.8472,1.85596 0.99755,2.9969 0.14985,1.13717 0.0233,4.52746 -0.18192,4.87335 -0.0774,0.13052 -0.26728,0.42988 -0.42188,0.66523 -0.1546,0.23535 -0.28137,0.56869 -0.28171,0.74076 -6.6e-4,0.34104 -0.49629,1.00109 -0.7517,1.00109 -0.0875,0 -0.39397,0.21645 -0.68098,0.481 -0.287,0.26455 -0.88457,0.68253 -1.32792,0.92885 -0.85631,0.47575 -2.79302,1.09287 -3.42975,1.09287 -0.24648,0 -0.43745,0.0888 -0.5383,0.25028 -0.18343,0.29372 -0.47979,0.30203 -2.04965,0.0574 z"
       style="fill:#231f20;fill-opacity:1;stroke-width:0.12513655" />
    <path
       style="fill:#231f20;fill-opacity:1;stroke-width:0.12513655"
       d="m 75.432057,150.77465 c -1.76914,-0.27562 -4.23622,-1.45462 -4.23622,-2.02445 0,-0.17761 -0.34919,-0.69361 -0.90979,-1.34443 -1.10601,-1.284 -1.65,-2.31005 -1.92648,-3.63364 -0.11501,-0.5506 -0.24384,-1.04248 -0.2863,-1.09307 -0.0424,-0.0506 -0.46939,-0.22931 -0.94875,-0.39716 -0.75865,-0.26562 -0.89717,-0.28208 -1.06913,-0.127 -0.25334,0.22847 -0.57648,0.22509 -1.25149,-0.0131 -0.60523,-0.21353 -0.86598,-0.17012 -0.86598,0.14421 0,0.30735 -0.57923,1.01766 -1.01262,1.24178 -0.34317,0.17746 -0.44545,0.17317 -1.24109,-0.052 -0.4769,-0.13495 -0.97238,-0.21784 -1.10107,-0.18419 -0.31651,0.0828 -3.96582,-1.1464 -4.25139,-1.43196 -0.1251,-0.1251 -0.5373,-0.32492 -0.91601,-0.44404 -0.51883,-0.16319 -0.74571,-0.31333 -0.92044,-0.60914 -0.25708,-0.43519 -0.29574,-1.30101 -0.0764,-1.71084 0.12458,-0.23279 0.0907,-0.28106 -0.31662,-0.45125 -0.25087,-0.10482 -0.52118,-0.19058 -0.6007,-0.19058 -0.26229,0 -0.70081,-0.38547 -0.70081,-0.61602 0,-0.16728 -0.23696,-0.31266 -0.90724,-0.55662 -0.49899,-0.18162 -0.94732,-0.32994 -0.99629,-0.32961 -0.049,3.8e-4 -0.34721,0.25151 -0.66274,0.55816 -1.08773,1.05716 -2.88109,1.89223 -4.59024,2.13741 -0.3286,0.0471 -0.6813,0.18857 -0.8015,0.32139 -0.59987,0.66286 -3.84973,-0.12747 -5.91304,-1.43797 -0.40924,-0.25993 -0.52835,-0.40541 -0.48079,-0.58725 0.045,-0.17212 -0.13594,-0.44571 -0.6284,-0.95012 -0.38039,-0.38961 -0.8855,-1.01149 -1.12248,-1.38194 -0.51473,-0.80466 -1.16352,-2.3514 -1.16968,-2.78858 -0.002,-0.17206 -0.0871,-0.42215 -0.18813,-0.55575 -0.21405,-0.283 -0.24137,-0.97978 -0.0523,-1.33312 0.0723,-0.13511 0.15289,-0.57835 0.17908,-0.98499 0.0438,-0.67976 0.21877,-1.2254 0.44282,-1.38078 0.0496,-0.0344 0.32928,-0.45675 0.62148,-0.93853 0.65534,-1.08052 1.23901,-1.81958 2.06055,-2.60913 0.6569,-0.63133 2.02948,-1.51017 2.57116,-1.64628 0.21506,-0.054 0.44972,-0.31948 0.75082,-0.84931 0.58383,-1.02738 2.16328,-2.68896 2.60474,-2.7402 0.34844,-0.0404 0.32008,-5.7e-4 2.0947,-2.94517 0.38271,-0.63502 0.74089,-1.18242 0.79595,-1.21646 0.0551,-0.034 0.29088,-0.007 0.52404,0.0597 0.36114,0.10357 0.45181,0.0849 0.61221,-0.1263 0.10357,-0.13633 0.36419,-0.28275 0.57916,-0.32538 0.3176,-0.063 0.42901,-0.0231 0.5944,0.21308 0.11194,0.15982 0.20354,0.40841 0.20354,0.55241 0,0.17771 0.14564,0.33128 0.45339,0.47803 0.44611,0.21274 0.45221,0.22567 0.37987,0.80528 -0.0404,0.32399 -0.14112,1.42771 -0.22375,2.45272 -0.13822,1.71485 -0.13321,1.87608 0.0628,2.01942 0.37525,0.27439 0.49252,0.95184 0.50913,2.94125 0.0146,1.75175 0.0427,1.98688 0.28412,2.3776 0.84835,1.3731 1.30502,3.74931 1.07469,5.59188 -0.0825,0.65964 -0.092,1.15409 -0.024,1.23757 0.14356,0.17609 -0.20183,1.03383 -0.45549,1.13117 -0.34152,0.13106 -0.18673,0.2602 0.56452,0.47099 0.5822,0.16335 0.80739,0.17832 1.01459,0.0674 0.20037,-0.10723 0.46574,-0.10489 1.07182,0.009 0.44304,0.0836 0.82206,0.13106 0.84227,0.10547 0.0202,-0.0256 0.12284,-0.27176 0.22808,-0.54706 0.21788,-0.56999 0.84426,-1.06366 1.34961,-1.06366 0.18553,0 0.64177,0.10399 1.01388,0.23109 0.3721,0.1271 0.74802,0.20651 0.83536,0.17648 0.24559,-0.0845 4.1266,1.20609 4.19966,1.3965 0.0356,0.0927 0.3499,0.23697 0.69851,0.3206 0.76295,0.18303 1.23403,0.52983 1.46251,1.07666 0.14423,0.34517 0.14249,0.49694 -0.0115,1.00873 -0.0997,0.33134 -0.1407,0.63738 -0.0911,0.6801 0.0496,0.0427 0.34363,0.17532 0.65334,0.29469 0.6133,0.23636 1.00109,0.52836 1.00109,0.75381 0,0.079 0.26748,0.23946 0.5944,0.35664 0.68311,0.24483 1.15541,0.28478 0.95106,0.0804 -0.17889,-0.17889 0.0674,-1.24513 0.28756,-1.24513 0.0902,0 0.28577,-0.23932 0.43451,-0.53183 0.88861,-1.74754 2.46146,-3.34702 4.04943,-4.11797 0.67857,-0.32945 1.05555,-0.59449 1.17617,-0.82695 0.6426,-1.23842 2.56298,-3.3109 2.97308,-3.20855 0.18646,0.0465 0.44481,-0.28603 1.29426,-1.66612 0.58371,-0.94834 1.17498,-1.90861 1.31393,-2.13392 0.23004,-0.37301 0.2949,-0.40362 0.72502,-0.34215 0.36378,0.052 0.53462,0.01 0.74313,-0.18474 0.14892,-0.13873 0.39219,-0.25225 0.54061,-0.25225 0.34897,0 0.71533,0.40833 0.71533,0.79729 0,0.23304 0.11412,0.3565 0.48345,0.52305 0.45379,0.20462 0.47979,0.24567 0.42388,0.66891 -0.0328,0.24801 -0.11822,1.15481 -0.18989,2.01512 -0.0717,0.86032 -0.16455,1.77863 -0.20639,2.0407 -0.0662,0.4144 -0.0412,0.48561 0.19134,0.54643 0.14708,0.0385 0.26789,0.1056 0.26846,0.14919 6.6e-4,0.0436 0.0772,0.67053 0.17034,1.39319 0.10718,0.83175 0.13511,1.62947 0.0761,2.17376 -0.0877,0.80961 -0.0722,0.89366 0.26646,1.43907 0.49457,0.79655 0.8472,1.85596 0.99755,2.9969 0.14985,1.13717 0.0233,4.52746 -0.18192,4.87335 -0.0774,0.13052 -0.26728,0.42988 -0.42188,0.66523 -0.1546,0.23535 -0.28137,0.56869 -0.28171,0.74076 -6.6e-4,0.34104 -0.49629,1.00109 -0.7517,1.00109 -0.0875,0 -0.39397,0.21645 -0.68098,0.481 -0.287,0.26455 -0.88457,0.68253 -1.32792,0.92885 -0.85631,0.47575 -2.79302,1.09287 -3.42975,1.09287 -0.24648,0 -0.43745,0.0888 -0.5383,0.25028 -0.18343,0.29372 -0.47979,0.30203 -2.04965,0.0574 z"
       id="path2725"
       inkscape:connector-curvature="0" />
    <path
       inkscape:connector-curvature="0"
       id="path2790"
       d="m 75.432057,150.77465 c -1.76914,-0.27562 -4.23622,-1.45462 -4.23622,-2.02445 0,-0.17761 -0.34919,-0.69361 -0.90979,-1.34443 -1.10601,-1.284 -1.65,-2.31005 -1.92648,-3.63364 -0.11501,-0.5506 -0.24384,-1.04248 -0.2863,-1.09307 -0.0424,-0.0506 -0.46939,-0.22931 -0.94875,-0.39716 -0.75865,-0.26562 -0.89717,-0.28208 -1.06913,-0.127 -0.25334,0.22847 -0.57648,0.22509 -1.25149,-0.0131 -0.60523,-0.21353 -0.86598,-0.17012 -0.86598,0.14421 0,0.30735 -0.57923,1.01766 -1.01262,1.24178 -0.34317,0.17746 -0.44545,0.17317 -1.24109,-0.052 -0.4769,-0.13495 -0.97238,-0.21784 -1.10107,-0.18419 -0.31651,0.0828 -3.96582,-1.1464 -4.25139,-1.43196 -0.1251,-0.1251 -0.5373,-0.32492 -0.91601,-0.44404 -0.51883,-0.16319 -0.74571,-0.31333 -0.92044,-0.60914 -0.25708,-0.43519 -0.29574,-1.30101 -0.0764,-1.71084 0.12458,-0.23279 0.0907,-0.28106 -0.31662,-0.45125 -0.25087,-0.10482 -0.52118,-0.19058 -0.6007,-0.19058 -0.26229,0 -0.70081,-0.38547 -0.70081,-0.61602 0,-0.16728 -0.23696,-0.31266 -0.90724,-0.55662 -0.49899,-0.18162 -0.94732,-0.32994 -0.99629,-0.32961 -0.049,3.8e-4 -0.34721,0.25151 -0.66274,0.55816 -1.08773,1.05716 -2.88109,1.89223 -4.59024,2.13741 -0.3286,0.0471 -0.6813,0.18857 -0.8015,0.32139 -0.59987,0.66286 -3.84973,-0.12747 -5.91304,-1.43797 -0.40924,-0.25993 -0.52835,-0.40541 -0.48079,-0.58725 0.045,-0.17212 -0.13594,-0.44571 -0.6284,-0.95012 -0.38039,-0.38961 -0.8855,-1.01149 -1.12248,-1.38194 -0.51473,-0.80466 -1.16352,-2.3514 -1.16968,-2.78858 -0.002,-0.17206 -0.0871,-0.42215 -0.18813,-0.55575 -0.21405,-0.283 -0.24137,-0.97978 -0.0523,-1.33312 0.0723,-0.13511 0.15289,-0.57835 0.17908,-0.98499 0.0438,-0.67976 0.21877,-1.2254 0.44282,-1.38078 0.0496,-0.0344 0.32928,-0.45675 0.62148,-0.93853 0.65534,-1.08052 1.23901,-1.81958 2.06055,-2.60913 0.6569,-0.63133 2.02948,-1.51017 2.57116,-1.64628 0.21506,-0.054 0.44972,-0.31948 0.75082,-0.84931 0.58383,-1.02738 2.16328,-2.68896 2.60474,-2.7402 0.34844,-0.0404 0.32008,-5.7e-4 2.0947,-2.94517 0.38271,-0.63502 0.74089,-1.18242 0.79595,-1.21646 0.0551,-0.034 0.29088,-0.007 0.52404,0.0597 0.36114,0.10357 0.45181,0.0849 0.61221,-0.1263 0.10357,-0.13633 0.36419,-0.28275 0.57916,-0.32538 0.3176,-0.063 0.42901,-0.0231 0.5944,0.21308 0.11194,0.15982 0.20354,0.40841 0.20354,0.55241 0,0.17771 0.14564,0.33128 0.45339,0.47803 0.44611,0.21274 0.45221,0.22567 0.37987,0.80528 -0.0404,0.32399 -0.14112,1.42771 -0.22375,2.45272 -0.13822,1.71485 -0.13321,1.87608 0.0628,2.01942 0.37525,0.27439 0.49252,0.95184 0.50913,2.94125 0.0146,1.75175 0.0427,1.98688 0.28412,2.3776 0.84835,1.3731 1.30502,3.74931 1.07469,5.59188 -0.0825,0.65964 -0.092,1.15409 -0.024,1.23757 0.14356,0.17609 -0.20183,1.03383 -0.45549,1.13117 -0.34152,0.13106 -0.18673,0.2602 0.56452,0.47099 0.5822,0.16335 0.80739,0.17832 1.01459,0.0674 0.20037,-0.10723 0.46574,-0.10489 1.07182,0.009 0.44304,0.0836 0.82206,0.13106 0.84227,0.10547 0.0202,-0.0256 0.12284,-0.27176 0.22808,-0.54706 0.21788,-0.56999 0.84426,-1.06366 1.34961,-1.06366 0.18553,0 0.64177,0.10399 1.01388,0.23109 0.3721,0.1271 0.74802,0.20651 0.83536,0.17648 0.24559,-0.0845 4.1266,1.20609 4.19966,1.3965 0.0356,0.0927 0.3499,0.23697 0.69851,0.3206 0.76295,0.18303 1.23403,0.52983 1.46251,1.07666 0.14423,0.34517 0.14249,0.49694 -0.0115,1.00873 -0.0997,0.33134 -0.1407,0.63738 -0.0911,0.6801 0.0496,0.0427 0.34363,0.17532 0.65334,0.29469 0.6133,0.23636 1.00109,0.52836 1.00109,0.75381 0,0.079 0.26748,0.23946 0.5944,0.35664 0.68311,0.24483 1.15541,0.28478 0.95106,0.0804 -0.17889,-0.17889 0.0674,-1.24513 0.28756,-1.24513 0.0902,0 0.28577,-0.23932 0.43451,-0.53183 0.88861,-1.74754 2.46146,-3.34702 4.04943,-4.11797 0.67857,-0.32945 1.05555,-0.59449 1.17617,-0.82695 0.6426,-1.23842 2.56298,-3.3109 2.97308,-3.20855 0.18646,0.0465 0.44481,-0.28603 1.29426,-1.66612 0.58371,-0.94834 1.17498,-1.90861 1.31393,-2.13392 0.23004,-0.37301 0.2949,-0.40362 0.72502,-0.34215 0.36378,0.052 0.53462,0.01 0.74313,-0.18474 0.14892,-0.13873 0.39219,-0.25225 0.54061,-0.25225 0.34897,0 0.71533,0.40833 0.71533,0.79729 0,0.23304 0.11412,0.3565 0.48345,0.52305 0.45379,0.20462 0.47979,0.24567 0.42388,0.66891 -0.0328,0.24801 -0.11822,1.15481 -0.18989,2.01512 -0.0717,0.86032 -0.16455,1.77863 -0.20639,2.0407 -0.0662,0.4144 -0.0412,0.48561 0.19134,0.54643 0.14708,0.0385 0.26789,0.1056 0.26846,0.14919 6.6e-4,0.0436 0.0772,0.67053 0.17034,1.39319 0.10718,0.83175 0.13511,1.62947 0.0761,2.17376 -0.0877,0.80961 -0.0722,0.89366 0.26646,1.43907 0.49457,0.79655 0.8472,1.85596 0.99755,2.9969 0.14985,1.13717 0.0233,4.52746 -0.18192,4.87335 -0.0774,0.13052 -0.26728,0.42988 -0.42188,0.66523 -0.1546,0.23535 -0.28137,0.56869 -0.28171,0.74076 -6.6e-4,0.34104 -0.49629,1.00109 -0.7517,1.00109 -0.0875,0 -0.39397,0.21645 -0.68098,0.481 -0.287,0.26455 -0.88457,0.68253 -1.32792,0.92885 -0.85631,0.47575 -2.79302,1.09287 -3.42975,1.09287 -0.24648,0 -0.43745,0.0888 -0.5383,0.25028 -0.18343,0.29372 -0.47979,0.30203 -2.04965,0.0574 z"
       style="opacity:0.3;fill:#000000;fill-opacity:1;stroke-width:0.12513655;filter:url(#filter2804)" />
    <path
       style="opacity:0.3;fill:#050200;fill-opacity:1;stroke-width:0.14827019;filter:url(#filter2786)"
       d="m 127.70346,185.89416 c -0.44852,-0.3216 -1.36594,-0.9623 -2.03872,-1.4237 l -1.22323,-0.8389 v -3.7726 -3.7726 l 1.70783,-2.2706 1.70782,-2.2706 -0.08,-7.3159 c -0.044,-4.0237 -0.14697,-14.6219 -0.22884,-23.5514 -0.0819,-8.9296 -0.17779,-18.4374 -0.21316,-21.1285 -0.0354,-2.6911 -0.10968,-9.8788 -0.16512,-15.9727 l -0.1008,-11.079697 -2.00492,-1.5232 c -2.3586,-1.792 -4.17364,-3.1775 -6.17155,-4.711102 -0.79679,-0.6116 -1.67496,-1.2788 -1.95148,-1.4827 -0.27652,-0.2039 -1.9401,-1.4716 -3.69684,-2.8171 -5.03829,-3.859 -4.43388,-3.517 -6.83029,-3.8652 -1.1348,-0.1649 -2.2968,-0.3599 -2.58222,-0.4333 -0.28542,-0.073 -1.25288,-0.2383 -2.14992,-0.3662 -0.89703,-0.1279 -2.331551,-0.3609 -3.187811,-0.5177 -0.856264,-0.1568 -2.090614,-0.3591 -2.743004,-0.4495 -0.65238,-0.09 -1.68657,-0.2612 -2.29818,-0.3796 -0.61162,-0.1184 -1.94605,-0.3461 -2.96541,-0.506 -2.84655,-0.4466 -9.5894,-1.5607 -12.60296,-2.0823 -0.93781,-0.1624 -2.17216,-0.3632 -2.743,-0.4463 -1.21117,-0.1764 -4.93207,-0.799 -6.74629,-1.1289 -0.69317,-0.1261 -2.26112,-0.3876 -3.48435,-0.5812 -1.22323,-0.1936 -3.42504,-0.5523 -4.89292,-0.797 -1.46787,-0.2447 -3.93503,-0.6481 -5.48257,-0.8963 -1.54754,-0.2483 -2.91533,-0.4817 -3.03954,-0.5187 -0.1242,-0.037 -1.32674,-0.2436 -2.67229,-0.4592 -1.34555,-0.2156 -3.38056,-0.5419 -4.52224,-0.725 -1.14168,-0.1831 -3.02656,-0.4919 -4.188629,-0.6863 l -2.11283,-0.3533 v -1.9637 -1.9637 l 1.07496,-1.576 c 0.59123,-0.8669 1.43029,-2.0862 1.86458,-2.7097 0.434289,-0.6235 1.016259,-1.4672 1.293259,-1.875 0.27701,-0.4077 0.71545,-1.0416 0.97432,-1.4086 0.25886,-0.3669 0.8083,-1.1676 1.22096,-1.7792 0.41267,-0.6116 1.00548,-1.4623 1.31735,-1.8904 l 0.56705,-0.7785 h 81.677645 81.67762 l 0.64471,0.8809 c 0.35459,0.4845 1,1.4019 1.43425,2.0387 0.43424,0.6368 1.50439,2.1921 2.37812,3.4561 0.87373,1.264 2.10307,3.0445 2.73188,3.9567 l 1.1433,1.6586 v 1.9767 1.9767 l -1.81632,0.322 c -1.95941,0.3473 -5.61098,1.0007 -8.93327,1.5984 -1.14169,0.2053 -3.21005,0.5726 -4.59637,0.8162 -1.38633,0.2435 -3.62151,0.6461 -4.96706,0.8945 -1.34555,0.2485 -3.38056,0.6142 -4.52224,0.8127 -1.14168,0.1986 -3.21004,0.5667 -4.59637,0.8181 -1.38633,0.2514 -3.58815,0.6488 -4.89292,0.8831 -1.30477,0.2344 -3.53995,0.6362 -4.96705,0.893 -4.47611,0.8055 -7.41307,1.3267 -9.63756,1.7102 -1.18246,0.2039 -2.26843,0.4079 -2.41327,0.4533 -0.14485,0.045 -1.21239,0.2421 -2.37232,0.4371 -1.15994,0.1951 -3.20988,0.5521 -4.55543,0.7935 -4.17064,0.7481 -7.43671,1.3377 -8.67381,1.5658 -0.65239,0.1203 -1.36114,0.2211 -1.575,0.2239 -0.23473,0 -0.74137,0.2843 -1.27823,0.7095 -0.96355,0.763 -6.98411,5.3629 -7.81092,5.9678 -0.50079,0.3664 -1.97271,1.491202 -4.95512,3.786702 -0.84349,0.6492 -1.72036,1.3138 -1.94862,1.4769 -0.22825,0.1631 -0.71596,0.5201 -1.08379,0.7932 l -0.66878,0.4967 -0.0879,1.9498 c -0.0484,1.0724 -0.15477,11.424197 -0.23643,23.004097 -0.0817,11.5799 -0.22429,28.5438 -0.31693,37.6976 l -0.16843,16.6432 0.39107,0.5561 c 0.21509,0.3059 0.60765,0.8398 0.87235,1.1865 0.2647,0.3467 0.87086,1.1631 1.34703,1.8142 l 0.86576,1.1839 -0.10777,3.6281 c -0.12485,4.203 0.17045,3.5382 -2.39876,5.4003 -1.63364,1.184 -1.68057,1.2063 -2.5206,1.1992 -0.7541,-0.01 -0.953,-0.077 -1.67144,-0.5919 z M 51.047775,48.454161 c 0.12232,-0.079 3.74003,-1.9126 8.03936,-4.0751 l 7.81697,-3.9319 h 3.76479 3.76479 l 0.5278,-0.4194 c 0.74575,-0.5927 3.32395,-1.8428 5.07311,-2.4599 4.97197,-1.754 12.40611,-3.2564 20.757825,-4.1951 l 1.03789,-0.1167 0.0406,-2.4835 0.0407,-2.4835 h 1.92392 1.92393 v 2.224 2.2241 h 0.37068 0.37067 v -3.7809 -3.7809 h 0.95501 c 0.52525,0 0.99666,0.067 1.04757,0.1498 0.0509,0.082 0.13036,1.7003 0.17657,3.5955 0.0462,1.8952 0.10857,3.4736 0.13859,3.5076 0.03,0.034 0.0546,-1.2171 0.0546,-2.7801 v -2.8418 h 0.96049 0.96048 l 0.0403,2.78 c 0.0387,2.6678 0.0523,2.7801 0.33688,2.7801 0.28457,0 0.29817,-0.1123 0.33688,-2.7801 l 0.0403,-2.78 h 1.92424 1.92424 v 2.6441 c 0,1.4543 0.03,2.6741 0.0666,2.7108 0.0366,0.037 0.42028,0.031 0.85255,-0.012 l 0.78595,-0.079 0.0419,-1.6681 c 0.0351,-1.3948 0.0798,-1.668 0.27336,-1.668 0.12728,0 0.26632,-0.1335 0.30897,-0.2966 0.0727,-0.2779 0.20225,-0.2965 2.07014,-0.2965 h 1.99258 l -0.0453,1.8904 c -0.0384,1.6017 -0.0113,1.8905 0.17711,1.8905 0.19173,0 0.22783,-0.5982 0.26171,-4.3369 l 0.0393,-4.3369 h 1.40633 c 1.2359,0 1.40779,0.031 1.41842,0.2595 0.007,0.1427 0.002,2.0776 -0.0107,4.2998 l -0.0228,4.0404 h 0.52968 0.52968 v -2.7272 c 0,-2.0511 0.0459,-2.7419 0.18534,-2.7867 0.16298,-0.052 0.61808,-0.049 1.47935,0.01 0.23107,0.016 0.26008,0.2824 0.29654,2.7236 l 0.0404,2.7059 h 0.51895 0.51895 l -0.0444,-2.5206 c -0.0244,-1.3863 -0.003,-2.8709 0.0477,-3.299 0.0877,-0.7408 0.11309,-0.7784 0.52627,-0.7784 h 0.43414 v 3.3361 c 0,3.2372 0.009,3.3361 0.29654,3.3361 0.28123,0 0.29654,-0.099 0.29654,-1.9149 v -1.9149 l 0.97669,-0.05 c 0.53717,-0.027 1.00422,-0.022 1.03789,0.012 0.0337,0.034 0.0612,0.9556 0.0612,2.0481 v 1.9863 l 0.48188,-0.046 0.48188,-0.046 0.0406,-2.5577 0.0406,-2.5576 h 1.40506 1.40507 v 1.0316 1.0317 l 1.14909,0.043 1.14909,0.043 0.0421,1.5939 0.0421,1.5939 h 0.4398 0.43979 v -2.1499 -2.1499 h 1.40857 1.40856 v 2.2349 c 0,2.0486 0.0216,2.2308 0.25948,2.1852 0.22563,-0.043 0.26493,-0.2662 0.30134,-1.7098 l 0.0419,-1.6602 1.14428,-0.043 1.1443,-0.043 0.0407,-2.498 c 0.0357,-2.1899 0.0692,-2.487 0.2716,-2.4094 0.12699,0.049 0.62475,0.089 1.10614,0.089 h 0.87525 l 0.0393,4.3369 0.0393,4.3369 0.33361,0.047 0.33361,0.047 v -2.3713 -2.3714 l 1.18651,-0.048 1.18651,-0.048 v 2.4662 2.4663 l 0.37068,0.071 0.37067,0.071 v -1.907 -1.9069 h 1.18197 1.18199 l 0.0412,2.0387 0.0413,2.0387 1.03789,0.1167 c 6.81305,0.7657 13.73098,2.0463 18.17262,3.364 3.31791,0.9843 6.43735,2.3207 7.6309,3.2692 l 0.55521,0.4412 h 3.75823 3.75823 l 7.95722,4.0011 c 4.37648,2.2006 7.9916,4.0355 8.03358,4.0774 0.042,0.042 -34.64668,0.075 -77.08592,0.074 -49.715125,0 -77.083275,-0.053 -76.939975,-0.1456 z"
       id="path2756"
       inkscape:connector-curvature="0" />
    <path
       inkscape:connector-curvature="0"
       id="path1466"
       d="m 127.70346,185.89416 c -0.44852,-0.3216 -1.36594,-0.9623 -2.03872,-1.4237 l -1.22323,-0.8389 v -3.7726 -3.7726 l 1.70783,-2.2706 1.70782,-2.2706 -0.08,-7.3159 c -0.044,-4.0237 -0.14697,-14.6219 -0.22884,-23.5514 -0.0819,-8.9296 -0.17779,-18.4374 -0.21316,-21.1285 -0.0354,-2.6911 -0.10968,-9.8788 -0.16512,-15.9727 l -0.1008,-11.079697 -2.00492,-1.5232 c -2.3586,-1.792 -4.17364,-3.1775 -6.17155,-4.711102 -0.79679,-0.6116 -1.67496,-1.2788 -1.95148,-1.4827 -0.27652,-0.2039 -1.9401,-1.4716 -3.69684,-2.8171 -5.03829,-3.859 -4.43388,-3.517 -6.83029,-3.8652 -1.1348,-0.1649 -2.2968,-0.3599 -2.58222,-0.4333 -0.28542,-0.073 -1.25288,-0.2383 -2.14992,-0.3662 -0.89703,-0.1279 -2.331551,-0.3609 -3.187811,-0.5177 -0.856264,-0.1568 -2.090614,-0.3591 -2.743004,-0.4495 -0.65238,-0.09 -1.68657,-0.2612 -2.29818,-0.3796 -0.61162,-0.1184 -1.94605,-0.3461 -2.96541,-0.506 -2.84655,-0.4466 -9.5894,-1.5607 -12.60296,-2.0823 -0.93781,-0.1624 -2.17216,-0.3632 -2.743,-0.4463 -1.21117,-0.1764 -4.93207,-0.799 -6.74629,-1.1289 -0.69317,-0.1261 -2.26112,-0.3876 -3.48435,-0.5812 -1.22323,-0.1936 -3.42504,-0.5523 -4.89292,-0.797 -1.46787,-0.2447 -3.93503,-0.6481 -5.48257,-0.8963 -1.54754,-0.2483 -2.91533,-0.4817 -3.03954,-0.5187 -0.1242,-0.037 -1.32674,-0.2436 -2.67229,-0.4592 -1.34555,-0.2156 -3.38056,-0.5419 -4.52224,-0.725 -1.14168,-0.1831 -3.02656,-0.4919 -4.188629,-0.6863 l -2.11283,-0.3533 v -1.9637 -1.9637 l 1.07496,-1.576 c 0.59123,-0.8669 1.43029,-2.0862 1.86458,-2.7097 0.434289,-0.6235 1.016259,-1.4672 1.293259,-1.875 0.27701,-0.4077 0.71545,-1.0416 0.97432,-1.4086 0.25886,-0.3669 0.8083,-1.1676 1.22096,-1.7792 0.41267,-0.6116 1.00548,-1.4623 1.31735,-1.8904 l 0.56705,-0.7785 h 81.677645 81.67762 l 0.64471,0.8809 c 0.35459,0.4845 1,1.4019 1.43425,2.0387 0.43424,0.6368 1.50439,2.1921 2.37812,3.4561 0.87373,1.264 2.10307,3.0445 2.73188,3.9567 l 1.1433,1.6586 v 1.9767 1.9767 l -1.81632,0.322 c -1.95941,0.3473 -5.61098,1.0007 -8.93327,1.5984 -1.14169,0.2053 -3.21005,0.5726 -4.59637,0.8162 -1.38633,0.2435 -3.62151,0.6461 -4.96706,0.8945 -1.34555,0.2485 -3.38056,0.6142 -4.52224,0.8127 -1.14168,0.1986 -3.21004,0.5667 -4.59637,0.8181 -1.38633,0.2514 -3.58815,0.6488 -4.89292,0.8831 -1.30477,0.2344 -3.53995,0.6362 -4.96705,0.893 -4.47611,0.8055 -7.41307,1.3267 -9.63756,1.7102 -1.18246,0.2039 -2.26843,0.4079 -2.41327,0.4533 -0.14485,0.045 -1.21239,0.2421 -2.37232,0.4371 -1.15994,0.1951 -3.20988,0.5521 -4.55543,0.7935 -4.17064,0.7481 -7.43671,1.3377 -8.67381,1.5658 -0.65239,0.1203 -1.36114,0.2211 -1.575,0.2239 -0.23473,0 -0.74137,0.2843 -1.27823,0.7095 -0.96355,0.763 -6.98411,5.3629 -7.81092,5.9678 -0.50079,0.3664 -1.97271,1.491202 -4.95512,3.786702 -0.84349,0.6492 -1.72036,1.3138 -1.94862,1.4769 -0.22825,0.1631 -0.71596,0.5201 -1.08379,0.7932 l -0.66878,0.4967 -0.0879,1.9498 c -0.0484,1.0724 -0.15477,11.424197 -0.23643,23.004097 -0.0817,11.5799 -0.22429,28.5438 -0.31693,37.6976 l -0.16843,16.6432 0.39107,0.5561 c 0.21509,0.3059 0.60765,0.8398 0.87235,1.1865 0.2647,0.3467 0.87086,1.1631 1.34703,1.8142 l 0.86576,1.1839 -0.10777,3.6281 c -0.12485,4.203 0.17045,3.5382 -2.39876,5.4003 -1.63364,1.184 -1.68057,1.2063 -2.5206,1.1992 -0.7541,-0.01 -0.953,-0.077 -1.67144,-0.5919 z M 51.047775,48.454161 c 0.12232,-0.079 3.74003,-1.9126 8.03936,-4.0751 l 7.81697,-3.9319 h 3.76479 3.76479 l 0.5278,-0.4194 c 0.74575,-0.5927 3.32395,-1.8428 5.07311,-2.4599 4.97197,-1.754 12.40611,-3.2564 20.757825,-4.1951 l 1.03789,-0.1167 0.0406,-2.4835 0.0407,-2.4835 h 1.92392 1.92393 v 2.224 2.2241 h 0.37068 0.37067 v -3.7809 -3.7809 h 0.95501 c 0.52525,0 0.99666,0.067 1.04757,0.1498 0.0509,0.082 0.13036,1.7003 0.17657,3.5955 0.0462,1.8952 0.10857,3.4736 0.13859,3.5076 0.03,0.034 0.0546,-1.2171 0.0546,-2.7801 v -2.8418 h 0.96049 0.96048 l 0.0403,2.78 c 0.0387,2.6678 0.0523,2.7801 0.33688,2.7801 0.28457,0 0.29817,-0.1123 0.33688,-2.7801 l 0.0403,-2.78 h 1.92424 1.92424 v 2.6441 c 0,1.4543 0.03,2.6741 0.0666,2.7108 0.0366,0.037 0.42028,0.031 0.85255,-0.012 l 0.78595,-0.079 0.0419,-1.6681 c 0.0351,-1.3948 0.0798,-1.668 0.27336,-1.668 0.12728,0 0.26632,-0.1335 0.30897,-0.2966 0.0727,-0.2779 0.20225,-0.2965 2.07014,-0.2965 h 1.99258 l -0.0453,1.8904 c -0.0384,1.6017 -0.0113,1.8905 0.17711,1.8905 0.19173,0 0.22783,-0.5982 0.26171,-4.3369 l 0.0393,-4.3369 h 1.40633 c 1.2359,0 1.40779,0.031 1.41842,0.2595 0.007,0.1427 0.002,2.0776 -0.0107,4.2998 l -0.0228,4.0404 h 0.52968 0.52968 v -2.7272 c 0,-2.0511 0.0459,-2.7419 0.18534,-2.7867 0.16298,-0.052 0.61808,-0.049 1.47935,0.01 0.23107,0.016 0.26008,0.2824 0.29654,2.7236 l 0.0404,2.7059 h 0.51895 0.51895 l -0.0444,-2.5206 c -0.0244,-1.3863 -0.003,-2.8709 0.0477,-3.299 0.0877,-0.7408 0.11309,-0.7784 0.52627,-0.7784 h 0.43414 v 3.3361 c 0,3.2372 0.009,3.3361 0.29654,3.3361 0.28123,0 0.29654,-0.099 0.29654,-1.9149 v -1.9149 l 0.97669,-0.05 c 0.53717,-0.027 1.00422,-0.022 1.03789,0.012 0.0337,0.034 0.0612,0.9556 0.0612,2.0481 v 1.9863 l 0.48188,-0.046 0.48188,-0.046 0.0406,-2.5577 0.0406,-2.5576 h 1.40506 1.40507 v 1.0316 1.0317 l 1.14909,0.043 1.14909,0.043 0.0421,1.5939 0.0421,1.5939 h 0.4398 0.43979 v -2.1499 -2.1499 h 1.40857 1.40856 v 2.2349 c 0,2.0486 0.0216,2.2308 0.25948,2.1852 0.22563,-0.043 0.26493,-0.2662 0.30134,-1.7098 l 0.0419,-1.6602 1.14428,-0.043 1.1443,-0.043 0.0407,-2.498 c 0.0357,-2.1899 0.0692,-2.487 0.2716,-2.4094 0.12699,0.049 0.62475,0.089 1.10614,0.089 h 0.87525 l 0.0393,4.3369 0.0393,4.3369 0.33361,0.047 0.33361,0.047 v -2.3713 -2.3714 l 1.18651,-0.048 1.18651,-0.048 v 2.4662 2.4663 l 0.37068,0.071 0.37067,0.071 v -1.907 -1.9069 h 1.18197 1.18199 l 0.0412,2.0387 0.0413,2.0387 1.03789,0.1167 c 6.81305,0.7657 13.73098,2.0463 18.17262,3.364 3.31791,0.9843 6.43735,2.3207 7.6309,3.2692 l 0.55521,0.4412 h 3.75823 3.75823 l 7.95722,4.0011 c 4.37648,2.2006 7.9916,4.0355 8.03358,4.0774 0.042,0.042 -34.64668,0.075 -77.08592,0.074 -49.715125,0 -77.083275,-0.053 -76.939975,-0.1456 z"
       style="fill:#29170b;fill-opacity:1;stroke-width:0.14827019" />
  </g>
</svg>
