<svg xmlns="http://www.w3.org/2000/svg" style="isolation:isolate" width="256" height="256"><defs><filter id="a" width="270.648" height="254.338" x="-7.32" y="2.95" filterUnits="userSpaceOnUse"><feGaussianBlur xmlns="http://www.w3.org/2000/svg" in="SourceGraphic" stdDeviation="4.294"/><feOffset xmlns="http://www.w3.org/2000/svg" dy="4" result="pf_100_offsetBlur"/><feFlood xmlns="http://www.w3.org/2000/svg" flood-opacity=".4"/><feComposite xmlns="http://www.w3.org/2000/svg" in2="pf_100_offsetBlur" operator="in" result="pf_100_dropShadow"/><feBlend xmlns="http://www.w3.org/2000/svg" in="SourceGraphic" in2="pf_100_dropShadow"/></filter></defs><g filter="url(#a)"><linearGradient id="b" x1=".5" x2=".5" y2="1" gradientTransform="matrix(244.648 0 0 228.338 5.68 11.95)" gradientUnits="userSpaceOnUse"><stop offset="0%" stop-color="#2a2c2f"/><stop offset="100%" stop-color="#424649"/></linearGradient><path fill="url(#b)" d="M165.689 11.95c74.056 0 84.639 10.557 84.639 84.544v59.251c0 73.986-10.583 84.543-84.639 84.543h-75.37c-74.055 0-84.639-10.557-84.639-84.543V96.494c0-73.987 10.584-84.544 84.639-84.544h75.37z"/></g><g opacity=".4"><linearGradient id="c" x1=".517" x2=".517" y2="1"><stop offset="0%" stop-color="#fff"/><stop offset="12.5%" stop-opacity=".098" stop-color="#fff"/><stop offset="92.5%" stop-opacity=".098"/><stop offset="100%" stop-opacity=".498"/></linearGradient><path fill="none" stroke="url(#c)" stroke-linecap="round" stroke-linejoin="round" stroke-width="4.077" d="M165.685 11.947c74.055 0 84.639 10.557 84.639 84.544v59.251c0 73.986-10.584 84.543-84.639 84.543h-75.37c-74.055 0-84.639-10.557-84.639-84.543V96.491c0-73.987 10.584-84.544 84.639-84.544h75.37z" vector-effect="non-scaling-stroke"/></g><g fill-opacity=".941"><path fill="#FFF" d="M66.874 164.991c3.11 0 5.635 2.551 5.635 5.693v11.622c0 3.143-2.525 5.694-5.635 5.694-3.111 0-5.636-2.551-5.636-5.694v-11.622c0-3.142 2.525-5.693 5.636-5.693zm40.576-27.324c3.11 0 5.635 2.551 5.635 5.693v38.946c0 3.143-2.525 5.694-5.635 5.694s-5.636-2.551-5.636-5.694V143.36c0-3.142 2.526-5.693 5.636-5.693zm-20.288 15.819c3.11 0 5.635 2.551 5.635 5.693v23.127c0 3.143-2.525 5.694-5.635 5.694-3.111 0-5.636-2.551-5.636-5.694v-23.127c0-3.142 2.525-5.693 5.636-5.693zm40.576-1.151c3.11 0 5.635 2.551 5.635 5.694v24.277c0 3.143-2.525 5.694-5.635 5.694s-5.636-2.551-5.636-5.694v-24.277c0-3.143 2.526-5.694 5.636-5.694zm20.288-3.451c3.11 0 5.636 2.551 5.636 5.693v27.729c0 3.143-2.526 5.694-5.636 5.694-3.11 0-5.636-2.551-5.636-5.694v-27.729c0-3.142 2.526-5.693 5.636-5.693zm19.725-18.408c3.11 0 5.635 2.551 5.635 5.694v46.136c0 3.143-2.525 5.694-5.635 5.694-3.111 0-5.636-2.551-5.636-5.694V136.17c0-3.143 2.525-5.694 5.636-5.694zm20.288-20.133c3.11 0 5.635 2.551 5.635 5.694v66.269c0 3.143-2.525 5.694-5.635 5.694-3.111 0-5.636-2.551-5.636-5.694v-66.269c0-3.143 2.525-5.694 5.636-5.694z"/><path fill="#FDC92B" d="M194.117 68.003a6.14 6.14 0 0 0-4.264 1.915l-54.789 55.924-23.796-24.289a6.11 6.11 0 0 0-8.765 0L57.42 147.575a6.414 6.414 0 0 0-1.721 6.168c.565 2.223 2.266 3.958 4.443 4.535a6.118 6.118 0 0 0 6.043-1.756l40.699-41.542 23.795 24.285a6.138 6.138 0 0 0 4.385 1.854 6.138 6.138 0 0 0 4.385-1.854l59.173-60.4c1.833-1.82 2.384-4.601 1.387-7.004-.997-2.403-3.336-3.935-5.892-3.858z"/></g></svg>