<?xml version="1.0" standalone="no"?><!-- Generator: Gravit.io --><svg xmlns="http://www.w3.org/2000/svg" xmlns:xlink="http://www.w3.org/1999/xlink" style="isolation:isolate" viewBox="0 0 256 256" width="256" height="256"><defs><clipPath id="_clipPath_sErJZBYxeC68J7Bviom2gzDMb0gVAKN2"><rect width="256" height="256"/></clipPath></defs><g clip-path="url(#_clipPath_sErJZBYxeC68J7Bviom2gzDMb0gVAKN2)"><rect width="256" height="256" style="fill:rgba(0,0,0,0)"/><g id="icon"><g id="drop shadow"><defs><filter id="CgfHBsNrI2SwLoxSraBsT80gvBsWXUN2" x="-200%" y="-200%" width="400%" height="400%"><feGaussianBlur xmlns="http://www.w3.org/2000/svg" stdDeviation="2.32"/></filter></defs><g opacity="0.2" filter="url(#CgfHBsNrI2SwLoxSraBsT80gvBsWXUN2)"><path d=" M 165.685 15.849 C 239.741 15.849 250.325 26.407 250.325 100.394 L 250.325 159.645 C 250.325 233.632 239.741 244.189 165.685 244.189 L 90.315 244.189 C 16.259 244.189 5.675 233.632 5.675 159.645 L 5.675 100.394 C 5.675 26.407 16.259 15.849 90.315 15.849 L 165.685 15.849 Z " fill="rgb(0,0,0)"/></g><defs><filter id="JcEPTFQa5FwLqUbYr4X0nKU7zuUpKaxA" x="-200%" y="-200%" width="400%" height="400%"><feGaussianBlur xmlns="http://www.w3.org/2000/svg" stdDeviation="1.16"/></filter></defs><g opacity="0.1" filter="url(#JcEPTFQa5FwLqUbYr4X0nKU7zuUpKaxA)"><path d=" M 165.685 14.83 C 239.741 14.83 250.325 25.387 250.325 99.374 L 250.325 158.626 C 250.325 232.612 239.741 243.17 165.685 243.17 L 90.315 243.17 C 16.259 243.17 5.675 232.612 5.675 158.626 L 5.675 99.374 C 5.675 25.387 16.259 14.83 90.315 14.83 L 165.685 14.83 Z " fill="rgb(0,0,0)"/></g></g><path d=" M 165.685 13.811 C 239.741 13.811 250.325 24.368 250.325 98.355 L 250.325 157.606 C 250.325 231.593 239.741 242.151 165.685 242.151 L 90.315 242.151 C 16.259 242.151 5.675 231.593 5.675 157.606 L 5.675 98.355 C 5.675 24.368 16.259 13.811 90.315 13.811 L 165.685 13.811 Z " fill="rgb(255,255,255)"/><clipPath id="_clipPath_9260RRjRqwBjXj7qO1L2rNKRoyRtIMni"><path d=" M 165.685 13.811 C 239.741 13.811 250.325 24.368 250.325 98.355 L 250.325 157.606 C 250.325 231.593 239.741 242.151 165.685 242.151 L 90.315 242.151 C 16.259 242.151 5.675 231.593 5.675 157.606 L 5.675 98.355 C 5.675 24.368 16.259 13.811 90.315 13.811 L 165.685 13.811 Z " fill="rgb(255,255,255)"/></clipPath><g clip-path="url(#_clipPath_9260RRjRqwBjXj7qO1L2rNKRoyRtIMni)"><path d=" M 165.143 13.477 C 239.2 13.477 249.783 24.035 249.783 98.022 L 249.783 157.273 C 249.783 231.26 239.2 241.817 165.143 241.817 L 89.773 241.817 C 15.717 241.817 5.133 231.26 5.133 157.273 L 5.133 98.022 C 5.133 24.035 15.717 13.477 89.773 13.477 L 165.143 13.477 Z " fill="rgb(188,25,56)"/><defs><filter id="g1VHCFajRAA37Scgvii1naAwgeqJ1WXZ" x="-200%" y="-200%" width="400%" height="400%"><feOffset xmlns="http://www.w3.org/2000/svg" in="SourceAlpha" result="offOut" dx="0" dy="2"/><feGaussianBlur xmlns="http://www.w3.org/2000/svg" in="offOut" result="blurOut" stdDeviation="5"/><feComponentTransfer xmlns="http://www.w3.org/2000/svg" in="blurOut" result="opacOut"><feFuncA xmlns="http://www.w3.org/2000/svg" type="table" tableValues="0 0.5"/></feComponentTransfer><feBlend xmlns="http://www.w3.org/2000/svg" in="SourceGraphic" in2="opacOut" mode="normal"/></filter></defs><g filter="url(#g1VHCFajRAA37Scgvii1naAwgeqJ1WXZ)"><linearGradient id="_lgradient_39" x1="45.47623456025458%" y1="99.5833106750701%" x2="45.47623456025459%" y2="-0.29967790691340923%"><stop offset="0%" stop-opacity="1" style="stop-color:rgb(245,245,245)"/><stop offset="100%" stop-opacity="1" style="stop-color:rgb(241,215,233)"/></linearGradient><path d=" M 45.5 128 C 45.5 82.467 82.467 45.5 128 45.5 C 173.533 45.5 210.5 82.467 210.5 128 C 210.5 173.533 173.533 210.5 128 210.5 C 82.467 210.5 45.5 173.533 45.5 128 Z  M 128.01 222.5 C 128.01 222.5 128 222.5 128 222.5 C 115.37 222.51 102.86 219.98 91.22 215.06 C 80 210.31 69.8 203.43 61.19 194.81 C 52.57 186.2 45.69 176 40.94 164.78 C 36.02 153.14 33.49 140.63 33.5 128 C 33.49 115.37 36.02 102.87 40.93 91.23 C 45.69 80 52.57 69.8 61.19 61.19 C 69.8 52.57 80 45.69 91.22 40.94 C 102.86 36.02 115.37 33.49 128 33.5 C 140.63 33.49 153.14 36.02 164.78 40.94 C 176 45.69 186.2 52.57 194.81 61.19 C 203.43 69.8 210.31 80 215.06 91.22 C 219.98 102.86 222.51 115.37 222.5 128 C 222.51 140.63 219.98 153.14 215.06 164.78 C 210.31 176 203.43 186.2 194.81 194.81 C 186.2 203.43 176 210.31 164.78 215.06 C 153.14 219.98 140.63 222.51 128 222.5" fill-rule="evenodd" fill="url(#_lgradient_39)"/></g><g id="Group"><defs><filter id="rAQwsxLIisHAQpoJR1JDfU3Uw7FPo5wB" x="-200%" y="-200%" width="400%" height="400%"><feGaussianBlur xmlns="http://www.w3.org/2000/svg" stdDeviation="9.0640396"/></filter></defs><g opacity="0.4" filter="url(#rAQwsxLIisHAQpoJR1JDfU3Uw7FPo5wB)"><linearGradient id="_lgradient_40" x1="45.476224911185966%" y1="-0.000004166666844884759%" x2="45.47622491118595%" y2="98.75000828125033%"><stop offset="0%" stop-opacity="0" style="stop-color:rgb(0,0,0)"/><stop offset="50.47667%" stop-opacity="1" style="stop-color:rgb(0,0,0)"/><stop offset="100%" stop-opacity="0" style="stop-color:rgb(0,0,0)"/></linearGradient><path d=" M 83.632 67.328 L 83.632 189.652 C 83.632 189.652 145.673 164.577 196.368 128.452 C 196.368 128.441 196.363 128.431 196.356 128.419 C 196.35 128.405 196.342 128.392 196.333 128.379 C 196.323 128.366 196.314 128.352 196.307 128.339 C 196.3 128.325 196.294 128.312 196.294 128.3 C 142.82 91.023 83.632 67.328 83.632 67.328 L 83.632 67.328 Z " fill="url(#_lgradient_40)"/></g><defs><filter id="LPrpNKGlFGQITz0R3o14tfl2fsmGy83V" x="-200%" y="-200%" width="400%" height="400%"><feGaussianBlur xmlns="http://www.w3.org/2000/svg" stdDeviation="1.1330049"/></filter></defs><g opacity="0.1" filter="url(#LPrpNKGlFGQITz0R3o14tfl2fsmGy83V)"><path d=" M 83.632 67.328 L 83.632 189.652 C 83.632 189.652 145.673 164.577 196.368 128.452 C 196.368 128.441 196.363 128.431 196.356 128.419 C 196.35 128.405 196.342 128.392 196.333 128.379 C 196.323 128.366 196.314 128.352 196.307 128.339 C 196.3 128.325 196.294 128.312 196.294 128.3 C 142.82 91.023 83.632 67.328 83.632 67.328 L 83.632 67.328 Z " fill="rgb(0,0,0)"/></g><linearGradient id="_lgradient_41" x1="45.47623456025458%" y1="99.5833106750701%" x2="45.47623456025459%" y2="-0.29967790691340923%"><stop offset="0%" stop-opacity="1" style="stop-color:rgb(245,245,245)"/><stop offset="100%" stop-opacity="1" style="stop-color:rgb(241,215,233)"/></linearGradient><path d=" M 83.632 66.309 L 83.632 188.633 C 83.632 188.633 145.673 163.558 196.368 127.432 C 196.368 127.421 196.362 127.413 196.356 127.398 C 196.35 127.383 196.342 127.372 196.333 127.358 C 196.323 127.343 196.314 127.332 196.307 127.318 C 196.3 127.303 196.294 127.292 196.294 127.28 C 142.82 90.003 83.632 66.309 83.632 66.309 L 83.632 66.309 Z " fill="url(#_lgradient_41)"/><path d=" M 83.631 66.309 L 83.631 67.328 C 83.631 67.328 142.418 90.855 195.708 127.897 C 195.927 127.741 196.149 127.589 196.369 127.432 C 196.369 127.421 196.363 127.413 196.356 127.398 C 196.35 127.383 196.342 127.372 196.333 127.358 C 196.323 127.343 196.314 127.332 196.307 127.318 C 196.3 127.303 196.294 127.292 196.294 127.279 C 142.82 90.003 83.631 66.309 83.631 66.309 L 83.631 66.309 Z " fill="rgb(255,255,255)"/></g></g><g id="highlight"><clipPath id="_clipPath_5sKdxz0n7dy8fttMPz5Wmm2CnM8qxjqM"><path d=" M 165.685 13.811 C 239.741 13.811 250.325 24.368 250.325 98.355 L 250.325 157.606 C 250.325 231.593 239.741 242.151 165.685 242.151 L 90.315 242.151 C 16.259 242.151 5.675 231.593 5.675 157.606 L 5.675 98.355 C 5.675 24.368 16.259 13.811 90.315 13.811 L 165.685 13.811 Z " fill="rgb(255,255,255)"/></clipPath><g clip-path="url(#_clipPath_5sKdxz0n7dy8fttMPz5Wmm2CnM8qxjqM)"><g opacity="0.4"><linearGradient id="_lgradient_42" x1="51.666666666666686%" y1="0%" x2="51.66666666666666%" y2="100.00000000000003%"><stop offset="0%" stop-opacity="1" style="stop-color:rgb(255,255,255)"/><stop offset="12.5%" stop-opacity="0.09803922" style="stop-color:rgb(255,255,255)"/><stop offset="92.500001%" stop-opacity="0.09803922" style="stop-color:rgb(0,0,0)"/><stop offset="100%" stop-opacity="0.49803922" style="stop-color:rgb(0,0,0)"/></linearGradient><path d=" M 165.685 13.811 C 239.741 13.811 250.325 24.368 250.325 98.355 L 250.325 157.606 C 250.325 231.593 239.741 242.151 165.685 242.151 L 90.315 242.151 C 16.259 242.151 5.675 231.593 5.675 157.606 L 5.675 98.355 C 5.675 24.368 16.259 13.811 90.315 13.811 L 165.685 13.811 Z " fill="none" vector-effect="non-scaling-stroke" stroke-width="4" stroke="url(#_lgradient_42)" stroke-linejoin="round" stroke-linecap="round" stroke-miterlimit="4"/></g></g></g></g></g></svg>