<svg xmlns="http://www.w3.org/2000/svg" style="isolation:isolate" width="256" height="256"><defs><filter id="a" width="270.648" height="254.338" x="-7.32" y="2.95" filterUnits="userSpaceOnUse"><feGaussianBlur xmlns="http://www.w3.org/2000/svg" in="SourceGraphic" stdDeviation="4.294"/><feOffset xmlns="http://www.w3.org/2000/svg" dy="4" result="pf_100_offsetBlur"/><feFlood xmlns="http://www.w3.org/2000/svg" flood-opacity=".4"/><feComposite xmlns="http://www.w3.org/2000/svg" in2="pf_100_offsetBlur" operator="in" result="pf_100_dropShadow"/><feBlend xmlns="http://www.w3.org/2000/svg" in="SourceGraphic" in2="pf_100_dropShadow"/></filter></defs><g filter="url(#a)"><linearGradient id="b" x1=".733" x2=".267" y1="1.071" y2=".005" gradientTransform="matrix(244.648 0 0 228.338 5.676 11.947)" gradientUnits="userSpaceOnUse"><stop offset="0%" stop-color="#f37e40"/><stop offset="100%" stop-color="#f34f17"/></linearGradient><path fill="url(#b)" d="M165.685 11.947c74.055 0 84.639 10.557 84.639 84.544v59.251c0 73.986-10.584 84.543-84.639 84.543h-75.37c-74.055 0-84.639-10.557-84.639-84.543V96.491c0-73.987 10.584-84.544 84.639-84.544h75.37z"/></g><path fill="#FFF" d="M5.676 126.116v29.626c0 73.986 10.584 84.543 84.639 84.543h75.37c74.055 0 84.639-10.557 84.639-84.543v-29.626H5.676z" opacity=".1"/><path fill="#FFF" d="M128 11.947v228.338h37.685c74.055 0 84.639-10.557 84.639-84.543V96.491c0-73.987-10.584-84.544-84.639-84.544H128z" opacity=".2"/><g opacity=".4"><linearGradient id="c" x1=".517" x2=".517" y2="1"><stop offset="0%" stop-color="#fff"/><stop offset="12.5%" stop-opacity=".098" stop-color="#fff"/><stop offset="92.5%" stop-opacity=".098"/><stop offset="100%" stop-opacity=".498"/></linearGradient><path fill="none" stroke="url(#c)" stroke-linecap="round" stroke-linejoin="round" stroke-width="4.077" d="M165.685 11.947c74.055 0 84.639 10.557 84.639 84.544v59.251c0 73.986-10.584 84.543-84.639 84.543h-75.37c-74.055 0-84.639-10.557-84.639-84.543V96.491c0-73.987 10.584-84.544 84.639-84.544h75.37z" vector-effect="non-scaling-stroke"/></g><defs><filter id="d" width="186" height="186" x="35" y="39" filterUnits="userSpaceOnUse"><feGaussianBlur xmlns="http://www.w3.org/2000/svg" in="SourceGraphic" stdDeviation="4.294"/><feOffset xmlns="http://www.w3.org/2000/svg" dy="4" result="pf_100_offsetBlur"/><feFlood xmlns="http://www.w3.org/2000/svg" flood-opacity=".4"/><feComposite xmlns="http://www.w3.org/2000/svg" in2="pf_100_offsetBlur" operator="in" result="pf_100_dropShadow"/><feBlend xmlns="http://www.w3.org/2000/svg" in="SourceGraphic" in2="pf_100_dropShadow"/></filter></defs><path fill="#FAF8F6" d="M116.571 48c-2.056 0-3.77 7.944-4.776 19.297a62.845 62.845 0 0 0-15.19 6.384c-8.775-7.354-15.629-11.793-17.087-10.335L63.346 79.518c-1.458 1.458 2.981 8.312 10.335 17.087a62.82 62.82 0 0 0-6.328 15.19C55.968 112.8 48 114.511 48 116.571v22.858c0 2.056 7.944 3.77 19.297 4.776a62.85 62.85 0 0 0 6.361 15.224c-7.337 8.758-11.769 15.597-10.312 17.053l16.172 16.172c1.455 1.455 8.285-2.966 17.031-10.29a62.854 62.854 0 0 0 15.246 6.283C112.8 200.032 114.511 208 116.571 208h22.858c2.056 0 3.77-7.944 4.776-19.297a62.845 62.845 0 0 0 15.19-6.384c8.775 7.354 15.629 11.793 17.087 10.335l16.172-16.172c1.458-1.458-2.981-8.312-10.335-17.087a62.82 62.82 0 0 0 6.328-15.19C200.032 143.2 208 141.489 208 139.429v-22.858c0-2.056-7.944-3.77-19.297-4.776a62.85 62.85 0 0 0-6.361-15.224c7.337-8.758 11.769-15.597 10.312-17.053l-16.172-16.172c-1.455-1.455-8.285 2.966-17.031 10.29a62.854 62.854 0 0 0-15.246-6.283C143.2 55.968 141.489 48 139.429 48h-22.858zM128 99.429c15.78 0 28.571 12.791 28.571 28.571a28.57 28.57 0 1 1-57.142 0c0-15.78 12.791-28.571 28.571-28.571z" filter="url(#d)"/></svg>