<svg xmlns="http://www.w3.org/2000/svg" style="isolation:isolate" width="256" height="256"><defs><clipPath id="a"><path d="M0 0h256v256H0z"/></clipPath></defs><switch><g clip-path="url(#a)"><defs><filter id="b" width="270.648" height="254.338" x="-7.32" y="2.95" filterUnits="userSpaceOnUse"><feGaussianBlur xmlns="http://www.w3.org/2000/svg" in="SourceGraphic" stdDeviation="4.294"/><feOffset xmlns="http://www.w3.org/2000/svg" dy="4" result="pf_100_offsetBlur"/><feFlood xmlns="http://www.w3.org/2000/svg" flood-opacity=".4"/><feComposite xmlns="http://www.w3.org/2000/svg" in2="pf_100_offsetBlur" operator="in" result="pf_100_dropShadow"/><feBlend xmlns="http://www.w3.org/2000/svg" in="SourceGraphic" in2="pf_100_dropShadow"/></filter></defs><path fill="#C8C4B7" d="M165.685 11.947c74.055 0 84.639 10.557 84.639 84.544v59.251c0 73.986-10.584 84.543-84.639 84.543h-75.37c-74.055 0-84.639-10.557-84.639-84.543V96.491c0-73.987 10.584-84.544 84.639-84.544h75.37z" filter="url(#b)"/><path fill="#FFF" d="M87.22 11.83h81.549v228.338H87.22z" opacity=".1"/><path fill="#FFF" d="M5.676 126.116v29.626c0 73.986 10.584 84.543 84.639 84.543h75.37c74.055 0 84.639-10.557 84.639-84.543v-29.626H5.676z" opacity=".1"/><path fill="#1463A5" d="M128.003 43.5c-45.565 0-82.5 36.934-82.5 82.5 0 45.565 36.935 82.5 82.5 82.5 20.187 0 38.813-7.197 53.149-19.229l19.229 19.229 10.116-10.116-19.229-19.229c12.045-14.336 19.229-32.962 19.229-53.149 0-45.565-36.935-82.5-82.5-82.5l.006-.006zm0 12.692c37.017 0 67.25 28.824 69.611 65.245L86.157 70.287c11.677-8.783 26.108-14.082 41.846-14.082v-.013zM72.075 84.356l50.959 111.255c-36.23-2.552-64.851-32.728-64.851-69.611 0-15.631 5.204-30.011 13.885-41.65l.007.006zm18.245 4.163l61.678 29.154-32.524 32.328L90.32 88.519zm75.557 35.501l30.741 15.072c-2.196 11.594-7.305 22.141-14.476 30.937l-12.096-12.096-10.115 10.116 12.095 12.096c-8.846 7.19-19.482 12.299-31.134 14.476l-14.875-30.741 39.86-39.86z"/><g opacity=".4"><linearGradient id="c" x1=".517" x2=".517" y2="1"><stop offset="0%" stop-color="#fff"/><stop offset="12.5%" stop-opacity=".098" stop-color="#fff"/><stop offset="92.5%" stop-opacity=".098"/><stop offset="100%" stop-opacity=".498"/></linearGradient><path fill="none" stroke="url(#c)" stroke-linecap="round" stroke-linejoin="round" stroke-width="4.077" d="M165.685 11.947c74.055 0 84.639 10.557 84.639 84.544v59.251c0 73.986-10.584 84.543-84.639 84.543h-75.37c-74.055 0-84.639-10.557-84.639-84.543V96.491c0-73.987 10.584-84.544 84.639-84.544h75.37z" vector-effect="non-scaling-stroke"/></g></g></switch> </svg>