<svg xmlns="http://www.w3.org/2000/svg" style="isolation:isolate" width="256" height="256"><defs><clipPath id="a"><path d="M0 0h256v256H0z"/></clipPath></defs><switch><g clip-path="url(#a)"><defs><filter id="b" width="270.648" height="254.338" x="-7.32" y="2.95" filterUnits="userSpaceOnUse"><feGaussianBlur xmlns="http://www.w3.org/2000/svg" in="SourceGraphic" stdDeviation="4.294"/><feOffset xmlns="http://www.w3.org/2000/svg" dy="4" result="pf_100_offsetBlur"/><feFlood xmlns="http://www.w3.org/2000/svg" flood-opacity=".4"/><feComposite xmlns="http://www.w3.org/2000/svg" in2="pf_100_offsetBlur" operator="in" result="pf_100_dropShadow"/><feBlend xmlns="http://www.w3.org/2000/svg" in="SourceGraphic" in2="pf_100_dropShadow"/></filter></defs><path fill="#768B94" d="M165.685 11.947c74.055 0 84.639 10.557 84.639 84.544v59.251c0 73.986-10.584 84.543-84.639 84.543h-75.37c-74.055 0-84.639-10.557-84.639-84.543V96.491c0-73.987 10.584-84.544 84.639-84.544h75.37z" filter="url(#b)"/><path d="M102.759 11.85l-3.548 44.308h7.057l-3.082 64.52h-2.482v4.964h2.482l8.249 59.556h-6.264c0 15.699 7.956 40.281 11.336 54.952h18.755c1.42-.154 2.854-.263 4.254-.462 3.315-14.462 10.819-38.99 10.819-54.49h-5.767l8.249-59.556h2.481v-4.964h-2.481l-3.082-64.52h7.057l-3.548-44.308h-50.485zm8.462 44.308h7.981l-1.147 64.52h-9.926l3.092-64.52zm12.944 0h7.673l1.126 64.52h-9.926l1.127-64.52zm12.626 0h7.981l3.062 64.52h-9.926l-1.117-64.52zm-28.642 69.484h9.926l2.745 59.556h-4.422l-8.249-59.556zm14.879 0h9.936l-3.201 59.556h-3.98l-2.755-59.556zm14.89 0h9.926l-8.239 59.556h-4.884l3.197-59.556zm-25.793 69.483h4.963v.948a3.723 3.723 0 1 1-6.204 2.774c0-1.057.451-2.065 1.241-2.774v-.948zm8.928 0h4.963v.938a3.745 3.745 0 0 1 1.241 2.784 3.723 3.723 0 0 1-7.445 0c0-1.057.457-2.06 1.241-2.765v-.957zm8.442 0h4.963v.948a3.723 3.723 0 1 1-6.203 2.774 3.73 3.73 0 0 1 1.24-2.774v-.948zm9.41 0h4.963v.938a3.745 3.745 0 0 1 1.241 2.784 3.723 3.723 0 0 1-7.444 0c0-1.057.456-2.06 1.24-2.765v-.957z" opacity=".1"/><path fill="#B3B3B3" d="M108.15 185.2h39.705v4.963H108.15z"/><path fill="#333" d="M102.362 11.85l-3.151 39.345h57.581l-3.151-39.345h-51.279z"/><path fill="#473527" fill-rule="evenodd" d="M60.95 148.392c.03 1.613-1.459 3.956-1.459 3.956l3.99 2.501c7.47-10.055 8.18-24.244 7.842-37.401l-3.276-2.135 3.872-2.069c-.154-32.93 3.335-41.248 13.236-42.167 5.584-.516 9.768 5.594 10.229 7.286.506 1.861.407 3.43.089 5.038-.387 1.98-2.506 4.074-5.027 4.114-5.097.085-6.239-5.97-4.239-8.432.04 0-4.114-2.01-4.114-2.01-4.005 4.099-3.598 18.785-2.854 39.441l3.385 2.08-3.112 2.114c-.02 24.354-7.181 39.511-18.353 39.675-8.239.124-12.383-4.635-12.557-9.757-.149-4.358 1.514-8.492 6.11-8.572 2.58-.044 6.169 2.313 6.238 6.343v-.005zM195.048 148.392c-.03 1.613 1.459 3.956 1.459 3.956l-3.991 2.501c-7.469-10.055-8.179-24.244-7.841-37.401l3.275-2.135-3.871-2.069c.154-32.93-3.335-41.248-13.236-42.167-5.584-.516-9.768 5.594-10.229 7.286-.506 1.861-.407 3.43-.09 5.038.388 1.98 2.507 4.074 5.028 4.114 5.097.085 6.239-5.97 4.239-8.432-.04 0 4.114-2.01 4.114-2.01 4.005 4.099 3.598 18.785 2.854 39.441l-3.385 2.08 3.112 2.114c.02 24.354 7.181 39.511 18.353 39.675 8.239.124 12.383-4.635 12.557-9.757.149-4.358-1.514-8.492-6.11-8.572-2.581-.044-6.169 2.313-6.238 6.343v-.005z"/><path fill="#E0D57B" d="M100.7 115.72h54.594v4.963H100.7z"/><path fill="#B3B3B3" d="M108.119 11.85l-4.963 103.857v4.963l5.693 41.055 4.884-.546-5.614-40.489v-4.963l4.973-103.877-4.973.001v-.001zM119.887 11.85l-1.812 103.877v4.963l1.851 40.092 4.954-.224-1.842-39.898v-4.963L124.85 11.85l-4.963.001v-.001z"/><path fill="#CD2242" d="M113.757 161.177l-4.893.541 3.256 23.475h4.963l-3.326-24.021v.005zM124.885 160.582l-4.954.223 1.127 24.408h4.963l-1.136-24.631zM130.825 160.532l-1.33 24.652h4.963l1.311-24.419-4.944-.233zM142.245 161.177l-3.325 24.021h4.963l3.256-23.475-4.894-.541v-.005z"/><path fill="#B3B3B3" d="M131.153 11.85l1.811 103.867v4.963l-2.144 39.848 4.944.234 2.164-40.102v-4.963L136.126 11.85l-4.973.001v-.001zM142.881 11.85l4.973 103.867v4.963l-5.614 40.499 4.894.546 5.683-41.055v-4.963L147.854 11.85l-4.973.001v-.001z"/><path fill="#333" d="M105.171 180.235c0 17.51 10.011 44.847 12.383 59.915h20.905c2.273-15.083 11.876-42.4 11.876-59.915h-45.164zm9.435 4.963a2.477 2.477 0 0 1 2.482 2.482v3.429a3.723 3.723 0 1 1-6.204 2.775c0-1.057.451-2.065 1.241-2.775v-3.429a2.476 2.476 0 0 1 2.481-2.482zm8.929 0a2.476 2.476 0 0 1 2.481 2.482v3.42a3.745 3.745 0 0 1 1.241 2.784 3.723 3.723 0 0 1-7.445 0c0-1.057.452-2.06 1.241-2.765v-3.439a2.477 2.477 0 0 1 2.482-2.482zm8.442 0a2.476 2.476 0 0 1 2.481 2.482v3.429a3.723 3.723 0 1 1-4.963 0v-3.429a2.477 2.477 0 0 1 2.482-2.482zm9.4 0a2.476 2.476 0 0 1 2.481 2.482v3.42a3.706 3.706 0 0 1 1.241 2.784 3.723 3.723 0 0 1-7.444 0 3.741 3.741 0 0 1 1.24-2.765v-3.439a2.477 2.477 0 0 1 2.482-2.482z"/><path d="M85.155 71.077c-9.901.919-13.395 9.237-13.241 42.167l-3.868 2.075 3.276 2.132c.009.355-.007.72 0 1.076l.592-.32c-.154-32.93 3.34-41.248 13.241-42.166 5.584-.517 9.765 5.597 10.227 7.289.02.076.01.138.029.214.011-.049.048-.097.058-.146.317-1.608.419-3.17-.087-5.031-.462-1.692-4.644-7.806-10.227-7.29zm85.693 0c-5.584-.516-9.775 5.598-10.237 7.29-.506 1.861-.405 3.423-.087 5.031.01.049.047.097.058.146.019-.075.009-.137.029-.214.462-1.692 4.653-7.805 10.237-7.289 9.901.918 13.385 9.236 13.231 42.166l.601.32c.008-.355-.009-.721 0-1.076l3.267-2.132-3.868-2.075c.154-32.93-3.33-41.248-13.231-42.166v-.001zM85.537 83.718c.087.32.19.629.33.931.109-.205.199-.429.339-.601.007 0-.489-.241-.669-.33zm84.924 0c-.181.089-.676.33-.669.33.14.172.23.396.339.601.139-.303.243-.611.33-.931zm-91.624 19.387c.018 5.432.156 11.397.407 18.369l.233.145c.003-.315.038-.592.039-.911l3.111-2.113-3.383-2.084c-.174-4.842-.322-9.28-.407-13.406zm98.324.019a881.199 881.199 0 0 1-.398 13.387l-3.383 2.084 3.112 2.113c0 .319.036.596.039.911l.232-.145c.251-6.963.38-12.922.398-18.35zM71.318 122.405c-.009 11.679-1.289 23.636-7.832 32.444l-2.54-1.59c.001.034.009.063.01.097v.01c.024 1.612-1.464 3.945-1.464 3.945l3.994 2.501c7.469-10.055 8.18-24.241 7.842-37.398l-.01-.01v.001zm113.377 0l-.01.009c-.338 13.157.363 27.343 7.832 37.398l3.994-2.501s-1.478-2.332-1.454-3.945c.001-.041.018-.076.019-.116l-2.559 1.599c-6.543-8.808-7.815-20.765-7.823-32.444h.001zM54.717 142.053c-4.596.08-6.256 4.212-6.107 8.57.02.607.109 1.203.242 1.793.619-3.004 2.418-5.34 5.864-5.399 1.947-.034 4.471 1.305 5.622 3.693.326-.736.632-1.586.621-2.307v-.01c-.075-4.024-3.664-6.384-6.243-6.339l.001-.001zm146.574 0c-2.579-.044-6.158 2.326-6.233 6.35-.011.727.294 1.586.62 2.326 1.148-2.396 3.664-3.746 5.613-3.712 3.447.059 5.245 2.395 5.865 5.399a9.74 9.74 0 0 0 .242-1.793c.149-4.358-1.511-8.49-6.107-8.57z" opacity=".1"/><g opacity=".4"><linearGradient id="c" x1=".517" x2=".517" y2="1"><stop offset="0%" stop-color="#fff"/><stop offset="12.5%" stop-opacity=".098" stop-color="#fff"/><stop offset="92.5%" stop-opacity=".098"/><stop offset="100%" stop-opacity=".498"/></linearGradient><path fill="none" stroke="url(#c)" stroke-linecap="round" stroke-linejoin="round" stroke-width="4.077" d="M165.685 11.947c74.055 0 84.639 10.557 84.639 84.544v59.251c0 73.986-10.584 84.543-84.639 84.543h-75.37c-74.055 0-84.639-10.557-84.639-84.543V96.491c0-73.987 10.584-84.544 84.639-84.544h75.37z" vector-effect="non-scaling-stroke"/></g></g></switch> </svg>