<?xml version="1.0" standalone="no"?><!-- Generator: Gravit.io --><svg xmlns="http://www.w3.org/2000/svg" xmlns:xlink="http://www.w3.org/1999/xlink" style="isolation:isolate" viewBox="0 0 256 256" width="256" height="256"><defs><filter id="yrPyrBuvtZ4Zln5b61OP5WIJFnCj7utt" x="-7.324" y="2.947" width="270.648" height="254.338" filterUnits="userSpaceOnUse"><feGaussianBlur xmlns="http://www.w3.org/2000/svg" in="SourceGraphic" stdDeviation="4.293609062839028"/><feOffset xmlns="http://www.w3.org/2000/svg" dx="0" dy="4" result="pf_100_offsetBlur"/><feFlood xmlns="http://www.w3.org/2000/svg" flood-color="#000000" flood-opacity="0.4"/><feComposite xmlns="http://www.w3.org/2000/svg" in2="pf_100_offsetBlur" operator="in" result="pf_100_dropShadow"/><feBlend xmlns="http://www.w3.org/2000/svg" in="SourceGraphic" in2="pf_100_dropShadow" mode="normal"/></filter></defs><g filter="url(#yrPyrBuvtZ4Zln5b61OP5WIJFnCj7utt)"><path d=" M 165.685 11.947 C 239.74 11.947 250.324 22.504 250.324 96.491 L 250.324 155.742 C 250.324 229.728 239.74 240.285 165.685 240.285 L 90.315 240.285 C 16.26 240.285 5.676 229.728 5.676 155.742 L 5.676 96.491 C 5.676 22.504 16.26 11.947 90.315 11.947 L 165.685 11.947 Z " id="shape" fill="rgb(102,102,102)"/></g><g id="arista"><path d=" M 83.375 181.75 L 88 77.75 L 86.625 74.375 L 81.625 176.563 L 83.375 181.75 Z " id="Path" fill="rgb(188,25,56)"/><path d=" M 172.563 181.875 L 167.938 77.875 L 169.313 74.5 L 174.313 176.688 L 172.563 181.875 Z " id="Path" fill="rgb(20,99,165)"/><path d=" M 176.813 167.625 L 216.348 176.414 L 214.707 181.884 L 172.584 181.884 L 176.813 167.625 Z " id="path3397" fill="rgb(109,199,241)"/><path d=" M 108.58 176.414 L 147.42 176.414 L 147.42 181.884 L 108.58 181.884 L 108.58 176.414 Z " id="path3399" fill="rgb(166,215,79)"/><path d=" M 81.5 176.375 L 40.199 176.414 L 41.293 181.884 L 83.416 181.884 L 81.5 176.375 Z " id="path3401" fill="rgb(247,99,99)"/><path d=" M 169.302 74.116 L 202.125 74.116 L 216.348 176.414 L 174.225 176.414 L 169.302 74.116 Z " id="path3403" fill="rgb(26,127,212)"/><path d=" M 111.862 74.116 L 144.138 74.116 L 147.42 176.414 L 108.58 176.414 L 111.862 74.116 Z " id="path3405" fill="rgb(70,169,38)"/><path d=" M 86.698 74.116 L 53.875 74.116 L 39.652 176.414 L 81.775 176.414 L 86.698 74.116 Z " id="path3407" fill="rgb(218,22,54)"/></g><g opacity="0.05"><path d=" M 8.476 55.74 C 6.729 66.667 6.158 80.255 6.158 97.205 L 6.158 156.456 C 6.158 230.442 16.742 241 90.798 241 L 166.167 241 C 221.302 241 241.245 235.126 247.842 201.603 L 8.476 55.74 Z " id="left angle highlight" fill="rgb(255,255,255)"/></g><g opacity="0.4"><linearGradient id="_lgradient_266" x1="0.5166666666666668" y1="0" x2="0.5166666666666666" y2="1.0000000000000002"><stop offset="0%" stop-opacity="1" style="stop-color:rgb(255,255,255)"/><stop offset="12.5%" stop-opacity="0.09803922" style="stop-color:rgb(255,255,255)"/><stop offset="92.500001%" stop-opacity="0.09803922" style="stop-color:rgb(0,0,0)"/><stop offset="100%" stop-opacity="0.49803922" style="stop-color:rgb(0,0,0)"/></linearGradient><path d=" M 165.685 11.947 C 239.74 11.947 250.324 22.504 250.324 96.491 L 250.324 155.742 C 250.324 229.728 239.74 240.285 165.685 240.285 L 90.315 240.285 C 16.26 240.285 5.676 229.728 5.676 155.742 L 5.676 96.491 C 5.676 22.504 16.26 11.947 90.315 11.947 L 165.685 11.947 Z " id="highlight" fill="none" vector-effect="non-scaling-stroke" stroke-width="4.077" stroke="url(#_lgradient_266)" stroke-linejoin="round" stroke-linecap="round" stroke-miterlimit="4"/></g></svg>