<?xml version="1.0" encoding="UTF-8" standalone="no"?>
<!-- Created with Inkscape (http://www.inkscape.org/) -->

<svg
   xmlns:dc="http://purl.org/dc/elements/1.1/"
   xmlns:cc="http://creativecommons.org/ns#"
   xmlns:rdf="http://www.w3.org/1999/02/22-rdf-syntax-ns#"
   xmlns:svg="http://www.w3.org/2000/svg"
   xmlns="http://www.w3.org/2000/svg"
   xmlns:xlink="http://www.w3.org/1999/xlink"
   xmlns:sodipodi="http://sodipodi.sourceforge.net/DTD/sodipodi-0.dtd"
   xmlns:inkscape="http://www.inkscape.org/namespaces/inkscape"
   width="256"
   height="256"
   viewBox="0 0 67.733332 67.733335"
   version="1.1"
   id="svg1488"
   inkscape:version="0.92.3 (2405546, 2018-03-11)"
   sodipodi:docname="bash.svg.2018_07_02_14_58_25.0.svg">
  <defs
     id="defs1482">
    <linearGradient
       inkscape:collect="always"
       id="linearGradient2226">
      <stop
         style="stop-color:#2a4b52;stop-opacity:1"
         offset="0"
         id="stop2222" />
      <stop
         style="stop-color:#04151d;stop-opacity:1"
         offset="1"
         id="stop2224" />
    </linearGradient>
    <clipPath
       clipPathUnits="userSpaceOnUse"
       id="clipPath1025">
      <path
         id="path1027"
         d="M 111.94141,84 C 99.359506,84.145 90.1531,83.713998 82.625,87.867188 c -3.7641,2.0768 -6.751838,5.574737 -8.398438,9.960937 C 72.580062,102.21433 72,107.4241 72,114 v 42 h 160 v -26 c 0,-6.5759 -0.57996,-11.78566 -2.22656,-16.17188 -0.205,-0.5455 -0.47919,-1.03993 -0.74219,-1.54296 -0.1,-0.1848 -0.17844,-0.38051 -0.27344,-0.56641 -1.727,-3.38752 -4.25471,-6.14522 -7.38281,-7.87109 C 213.8463,99.694146 204.64049,100.1454 192.05859,100 H 192 151.66797 L 135.45312,84 h -23.49218 z"
         style="color:#000000;font-style:normal;font-variant:normal;font-weight:normal;font-stretch:normal;font-size:medium;line-height:normal;font-family:sans-serif;font-variant-ligatures:none;font-variant-position:normal;font-variant-caps:normal;font-variant-numeric:normal;font-variant-alternates:normal;font-feature-settings:normal;text-indent:0;text-align:start;text-decoration:none;text-decoration-line:none;text-decoration-style:solid;text-decoration-color:#000000;letter-spacing:normal;word-spacing:normal;text-transform:none;writing-mode:lr-tb;direction:ltr;baseline-shift:baseline;text-anchor:start;white-space:normal;shape-padding:0;clip-rule:nonzero;display:inline;overflow:visible;visibility:visible;opacity:1;isolation:auto;mix-blend-mode:normal;color-interpolation:sRGB;color-interpolation-filters:linearRGB;solid-color:#000000;solid-opacity:1;fill:#e3dfd5;fill-opacity:1;fill-rule:nonzero;stroke:none;stroke-width:4.00000048;stroke-linecap:butt;stroke-linejoin:miter;stroke-miterlimit:4;stroke-dasharray:none;stroke-dashoffset:0;stroke-opacity:1;marker:none;color-rendering:auto;image-rendering:auto;shape-rendering:auto;text-rendering:auto;enable-background:accumulate"
         inkscape:connector-curvature="0" />
    </clipPath>
    <clipPath
       clipPathUnits="userSpaceOnUse"
       id="clipPath1082-3">
      <path
         sodipodi:nodetypes="sssssssss"
         inkscape:connector-curvature="0"
         id="path1084-6"
         d="M 361.9375,-212 C 507.2348,-212 528,-191.28677 528,-46.125 V 70.125 C 528,215.28618 507.2348,236 361.9375,236 H 214.0625 C 68.7652,236 48,215.28618 48,70.125 V -46.125 C 48,-191.28677 68.7652,-212 214.0625,-212 Z"
         style="display:inline;opacity:1;fill:#8c59d9;fill-opacity:1;stroke:none;stroke-width:2;stroke-linecap:round;stroke-linejoin:round;stroke-miterlimit:4;stroke-dasharray:none;stroke-dashoffset:0;stroke-opacity:1;enable-background:new" />
    </clipPath>
    <clipPath
       clipPathUnits="userSpaceOnUse"
       id="clipPath1082-3-5">
      <path
         sodipodi:nodetypes="sssssssss"
         inkscape:connector-curvature="0"
         id="path1084-6-6"
         d="M 361.9375,-212 C 507.2348,-212 528,-191.28677 528,-46.125 V 70.125 C 528,215.28618 507.2348,236 361.9375,236 H 214.0625 C 68.7652,236 48,215.28618 48,70.125 V -46.125 C 48,-191.28677 68.7652,-212 214.0625,-212 Z"
         style="display:inline;opacity:1;fill:#8c59d9;fill-opacity:1;stroke:none;stroke-width:2;stroke-linecap:round;stroke-linejoin:round;stroke-miterlimit:4;stroke-dasharray:none;stroke-dashoffset:0;stroke-opacity:1;enable-background:new" />
    </clipPath>
    <clipPath
       clipPathUnits="userSpaceOnUse"
       id="clipPath1082-3-9">
      <path
         sodipodi:nodetypes="sssssssss"
         inkscape:connector-curvature="0"
         id="path1084-6-3"
         d="M 361.9375,-212 C 507.2348,-212 528,-191.28677 528,-46.125 V 70.125 C 528,215.28618 507.2348,236 361.9375,236 H 214.0625 C 68.7652,236 48,215.28618 48,70.125 V -46.125 C 48,-191.28677 68.7652,-212 214.0625,-212 Z"
         style="display:inline;opacity:1;fill:#8c59d9;fill-opacity:1;stroke:none;stroke-width:2;stroke-linecap:round;stroke-linejoin:round;stroke-miterlimit:4;stroke-dasharray:none;stroke-dashoffset:0;stroke-opacity:1;enable-background:new" />
    </clipPath>
    <clipPath
       clipPathUnits="userSpaceOnUse"
       id="clipPath1082-3-3">
      <path
         sodipodi:nodetypes="sssssssss"
         inkscape:connector-curvature="0"
         id="path1084-6-67"
         d="M 361.9375,-212 C 507.2348,-212 528,-191.28677 528,-46.125 V 70.125 C 528,215.28618 507.2348,236 361.9375,236 H 214.0625 C 68.7652,236 48,215.28618 48,70.125 V -46.125 C 48,-191.28677 68.7652,-212 214.0625,-212 Z"
         style="display:inline;opacity:1;fill:#8c59d9;fill-opacity:1;stroke:none;stroke-width:2;stroke-linecap:round;stroke-linejoin:round;stroke-miterlimit:4;stroke-dasharray:none;stroke-dashoffset:0;stroke-opacity:1;enable-background:new" />
    </clipPath>
    <clipPath
       clipPathUnits="userSpaceOnUse"
       id="clipPath1082-3-53">
      <path
         sodipodi:nodetypes="sssssssss"
         inkscape:connector-curvature="0"
         id="path1084-6-5"
         d="M 361.9375,-212 C 507.2348,-212 528,-191.28677 528,-46.125 V 70.125 C 528,215.28618 507.2348,236 361.9375,236 H 214.0625 C 68.7652,236 48,215.28618 48,70.125 V -46.125 C 48,-191.28677 68.7652,-212 214.0625,-212 Z"
         style="display:inline;opacity:1;fill:#8c59d9;fill-opacity:1;stroke:none;stroke-width:2;stroke-linecap:round;stroke-linejoin:round;stroke-miterlimit:4;stroke-dasharray:none;stroke-dashoffset:0;stroke-opacity:1;enable-background:new" />
    </clipPath>
    <clipPath
       clipPathUnits="userSpaceOnUse"
       id="clipPath1082-3-6">
      <path
         sodipodi:nodetypes="sssssssss"
         inkscape:connector-curvature="0"
         id="path1084-6-2"
         d="M 361.9375,-212 C 507.2348,-212 528,-191.28677 528,-46.125 V 70.125 C 528,215.28618 507.2348,236 361.9375,236 H 214.0625 C 68.7652,236 48,215.28618 48,70.125 V -46.125 C 48,-191.28677 68.7652,-212 214.0625,-212 Z"
         style="display:inline;opacity:1;fill:#8c59d9;fill-opacity:1;stroke:none;stroke-width:2;stroke-linecap:round;stroke-linejoin:round;stroke-miterlimit:4;stroke-dasharray:none;stroke-dashoffset:0;stroke-opacity:1;enable-background:new" />
    </clipPath>
    <clipPath
       clipPathUnits="userSpaceOnUse"
       id="clipPath1082-3-91">
      <path
         sodipodi:nodetypes="sssssssss"
         inkscape:connector-curvature="0"
         id="path1084-6-27"
         d="M 361.9375,-212 C 507.2348,-212 528,-191.28677 528,-46.125 V 70.125 C 528,215.28618 507.2348,236 361.9375,236 H 214.0625 C 68.7652,236 48,215.28618 48,70.125 V -46.125 C 48,-191.28677 68.7652,-212 214.0625,-212 Z"
         style="display:inline;opacity:1;fill:#8c59d9;fill-opacity:1;stroke:none;stroke-width:2;stroke-linecap:round;stroke-linejoin:round;stroke-miterlimit:4;stroke-dasharray:none;stroke-dashoffset:0;stroke-opacity:1;enable-background:new" />
    </clipPath>
    <clipPath
       clipPathUnits="userSpaceOnUse"
       id="clipPath1025-0">
      <path
         style="opacity:1;fill:#8c59d9;fill-opacity:1;stroke:none;stroke-width:2;stroke-linecap:round;stroke-linejoin:round;stroke-miterlimit:4;stroke-dasharray:none;stroke-dashoffset:0;stroke-opacity:1"
         d="M 329.9375,32 C 475.2348,32 496,52.71323 496,197.875 v 116.25 C 496,459.28618 475.2348,480 329.9375,480 H 182.0625 C 36.7652,480 16,459.28618 16,314.125 V 197.875 C 16,52.71323 36.7652,32 182.0625,32 Z"
         id="path1027-9"
         inkscape:connector-curvature="0"
         sodipodi:nodetypes="sssssssss" />
    </clipPath>
    <clipPath
       clipPathUnits="userSpaceOnUse"
       id="clipPath4277-8">
      <rect
         style="color:#000000;display:inline;overflow:visible;visibility:visible;opacity:0.81999972;fill:#88b637;fill-opacity:1;fill-rule:nonzero;stroke:none;stroke-width:2;stroke-linecap:butt;stroke-linejoin:miter;stroke-miterlimit:4;stroke-dasharray:none;stroke-dashoffset:0;stroke-opacity:1;marker:none;enable-background:accumulate"
         id="rect4279-6"
         width="512"
         height="512"
         x="5.5999999e-07"
         y="0"
         ry="1" />
    </clipPath>
    <linearGradient
       id="linearGradient3650-7-9">
      <stop
         style="stop-color:#5884f4;stop-opacity:1"
         offset="0"
         id="stop4366" />
      <stop
         id="stop4368"
         offset="1"
         style="stop-color:#80a3fa;stop-opacity:1" />
    </linearGradient>
    <clipPath
       clipPathUnits="userSpaceOnUse"
       id="clipPath1082-3-36">
      <path
         sodipodi:nodetypes="sssssssss"
         inkscape:connector-curvature="0"
         id="path1084-6-0"
         d="M 361.9375,-212 C 507.2348,-212 528,-191.28677 528,-46.125 V 70.125 C 528,215.28618 507.2348,236 361.9375,236 H 214.0625 C 68.7652,236 48,215.28618 48,70.125 V -46.125 C 48,-191.28677 68.7652,-212 214.0625,-212 Z"
         style="display:inline;opacity:1;fill:#8c59d9;fill-opacity:1;stroke:none;stroke-width:2;stroke-linecap:round;stroke-linejoin:round;stroke-miterlimit:4;stroke-dasharray:none;stroke-dashoffset:0;stroke-opacity:1;enable-background:new" />
    </clipPath>
    <clipPath
       clipPathUnits="userSpaceOnUse"
       id="clipPath983">
      <path
         id="path985"
         d="M 115.03125,44 C 42.3826,44 32,54.356615 32,126.9375 v 58.125 C 32,257.64309 42.3826,268 115.03125,268 H 152 V 44 Z"
         style="opacity:1;fill:#4d4d4d;fill-opacity:1;stroke:none;stroke-width:2;stroke-linecap:round;stroke-linejoin:round;stroke-miterlimit:4;stroke-dasharray:none;stroke-dashoffset:0;stroke-opacity:1"
         inkscape:connector-curvature="0" />
    </clipPath>
    <clipPath
       clipPathUnits="userSpaceOnUse"
       id="clipPath1082-3-62">
      <path
         sodipodi:nodetypes="sssssssss"
         inkscape:connector-curvature="0"
         id="path1084-6-61"
         d="M 361.9375,-212 C 507.2348,-212 528,-191.28677 528,-46.125 V 70.125 C 528,215.28618 507.2348,236 361.9375,236 H 214.0625 C 68.7652,236 48,215.28618 48,70.125 V -46.125 C 48,-191.28677 68.7652,-212 214.0625,-212 Z"
         style="display:inline;opacity:1;fill:#8c59d9;fill-opacity:1;stroke:none;stroke-width:2;stroke-linecap:round;stroke-linejoin:round;stroke-miterlimit:4;stroke-dasharray:none;stroke-dashoffset:0;stroke-opacity:1;enable-background:new" />
    </clipPath>
    <clipPath
       clipPathUnits="userSpaceOnUse"
       id="clipPath949">
      <path
         sodipodi:nodetypes="sssssssss"
         inkscape:connector-curvature="0"
         id="path951"
         d="M 329.9375,32 C 475.2348,32 496,52.71323 496,197.875 v 116.25 C 496,459.28618 475.2348,480 329.9375,480 H 182.0625 C 36.7652,480 16,459.28618 16,314.125 V 197.875 C 16,52.71323 36.7652,32 182.0625,32 Z"
         style="opacity:1;fill:#eab305;fill-opacity:1;stroke:none;stroke-width:4;stroke-linecap:round;stroke-linejoin:round;stroke-miterlimit:4;stroke-dasharray:none;stroke-dashoffset:0;stroke-opacity:1" />
    </clipPath>
    <clipPath
       clipPathUnits="userSpaceOnUse"
       id="clipPath954">
      <path
         sodipodi:nodetypes="sssssssss"
         inkscape:connector-curvature="0"
         id="path952"
         d="M 329.9375,32 C 475.2348,32 496,52.71323 496,197.875 v 116.25 C 496,459.28618 475.2348,480 329.9375,480 H 182.0625 C 36.7652,480 16,459.28618 16,314.125 V 197.875 C 16,52.71323 36.7652,32 182.0625,32 Z"
         style="opacity:1;fill:#eab305;fill-opacity:1;stroke:none;stroke-width:4;stroke-linecap:round;stroke-linejoin:round;stroke-miterlimit:4;stroke-dasharray:none;stroke-dashoffset:0;stroke-opacity:1" />
    </clipPath>
    <clipPath
       clipPathUnits="userSpaceOnUse"
       id="clipPath1082-3-8">
      <path
         sodipodi:nodetypes="sssssssss"
         inkscape:connector-curvature="0"
         id="path1084-6-7"
         d="M 361.9375,-212 C 507.2348,-212 528,-191.28677 528,-46.125 V 70.125 C 528,215.28618 507.2348,236 361.9375,236 H 214.0625 C 68.7652,236 48,215.28618 48,70.125 V -46.125 C 48,-191.28677 68.7652,-212 214.0625,-212 Z"
         style="display:inline;opacity:1;fill:#8c59d9;fill-opacity:1;stroke:none;stroke-width:2;stroke-linecap:round;stroke-linejoin:round;stroke-miterlimit:4;stroke-dasharray:none;stroke-dashoffset:0;stroke-opacity:1;enable-background:new" />
    </clipPath>
    <clipPath
       clipPathUnits="userSpaceOnUse"
       id="clipPath1082-3-92">
      <path
         sodipodi:nodetypes="sssssssss"
         inkscape:connector-curvature="0"
         id="path1084-6-02"
         d="M 361.9375,-212 C 507.2348,-212 528,-191.28677 528,-46.125 V 70.125 C 528,215.28618 507.2348,236 361.9375,236 H 214.0625 C 68.7652,236 48,215.28618 48,70.125 V -46.125 C 48,-191.28677 68.7652,-212 214.0625,-212 Z"
         style="display:inline;opacity:1;fill:#8c59d9;fill-opacity:1;stroke:none;stroke-width:2;stroke-linecap:round;stroke-linejoin:round;stroke-miterlimit:4;stroke-dasharray:none;stroke-dashoffset:0;stroke-opacity:1;enable-background:new" />
    </clipPath>
    <clipPath
       clipPathUnits="userSpaceOnUse"
       id="clipPath1082">
      <path
         sodipodi:nodetypes="sssssssss"
         inkscape:connector-curvature="0"
         id="path1084"
         d="M 361.9375,-212 C 507.2348,-212 528,-191.28677 528,-46.125 V 70.125 C 528,215.28618 507.2348,236 361.9375,236 H 214.0625 C 68.7652,236 48,215.28618 48,70.125 V -46.125 C 48,-191.28677 68.7652,-212 214.0625,-212 Z"
         style="display:inline;opacity:1;fill:#8c59d9;fill-opacity:1;stroke:none;stroke-width:2;stroke-linecap:round;stroke-linejoin:round;stroke-miterlimit:4;stroke-dasharray:none;stroke-dashoffset:0;stroke-opacity:1;enable-background:new" />
    </clipPath>
    <clipPath
       clipPathUnits="userSpaceOnUse"
       id="clipPath1082-3-361">
      <path
         sodipodi:nodetypes="sssssssss"
         inkscape:connector-curvature="0"
         id="path1084-6-29"
         d="M 361.9375,-212 C 507.2348,-212 528,-191.28677 528,-46.125 V 70.125 C 528,215.28618 507.2348,236 361.9375,236 H 214.0625 C 68.7652,236 48,215.28618 48,70.125 V -46.125 C 48,-191.28677 68.7652,-212 214.0625,-212 Z"
         style="display:inline;opacity:1;fill:#8c59d9;fill-opacity:1;stroke:none;stroke-width:2;stroke-linecap:round;stroke-linejoin:round;stroke-miterlimit:4;stroke-dasharray:none;stroke-dashoffset:0;stroke-opacity:1;enable-background:new" />
    </clipPath>
    <clipPath
       clipPathUnits="userSpaceOnUse"
       id="clipPath1079">
      <circle
         cx="213.84277"
         cy="146"
         r="55"
         style="color:#000000;display:inline;overflow:visible;visibility:visible;opacity:1;fill:url(#linearGradient1083);fill-opacity:1;fill-rule:nonzero;stroke:none;stroke-width:7.99999952;stroke-linecap:butt;stroke-linejoin:miter;stroke-miterlimit:4;stroke-dasharray:none;stroke-dashoffset:0;stroke-opacity:1;marker:none;enable-background:accumulate"
         id="circle1081"
         transform="scale(-1,1)" />
    </clipPath>
    <clipPath
       clipPathUnits="userSpaceOnUse"
       id="clipPath984">
      <circle
         cx="213.84277"
         cy="146"
         r="55"
         style="color:#000000;display:inline;overflow:visible;visibility:visible;opacity:1;fill:url(#linearGradient1083);fill-opacity:1;fill-rule:nonzero;stroke:none;stroke-width:7.99999952;stroke-linecap:butt;stroke-linejoin:miter;stroke-miterlimit:4;stroke-dasharray:none;stroke-dashoffset:0;stroke-opacity:1;marker:none;enable-background:accumulate"
         id="circle982"
         transform="scale(-1,1)" />
    </clipPath>
    <clipPath
       clipPathUnits="userSpaceOnUse"
       id="clipPath988">
      <circle
         cx="213.84277"
         cy="146"
         r="55"
         style="color:#000000;display:inline;overflow:visible;visibility:visible;opacity:1;fill:url(#linearGradient1083);fill-opacity:1;fill-rule:nonzero;stroke:none;stroke-width:7.99999952;stroke-linecap:butt;stroke-linejoin:miter;stroke-miterlimit:4;stroke-dasharray:none;stroke-dashoffset:0;stroke-opacity:1;marker:none;enable-background:accumulate"
         id="circle986"
         transform="scale(-1,1)" />
    </clipPath>
    <clipPath
       clipPathUnits="userSpaceOnUse"
       id="clipPath992">
      <circle
         cx="213.84277"
         cy="146"
         r="55"
         style="color:#000000;display:inline;overflow:visible;visibility:visible;opacity:1;fill:url(#linearGradient1083);fill-opacity:1;fill-rule:nonzero;stroke:none;stroke-width:7.99999952;stroke-linecap:butt;stroke-linejoin:miter;stroke-miterlimit:4;stroke-dasharray:none;stroke-dashoffset:0;stroke-opacity:1;marker:none;enable-background:accumulate"
         id="circle990"
         transform="scale(-1,1)" />
    </clipPath>
    <clipPath
       clipPathUnits="userSpaceOnUse"
       id="clipPath1082-3-31">
      <path
         sodipodi:nodetypes="sssssssss"
         inkscape:connector-curvature="0"
         id="path1084-6-9"
         d="M 361.9375,-212 C 507.2348,-212 528,-191.28677 528,-46.125 V 70.125 C 528,215.28618 507.2348,236 361.9375,236 H 214.0625 C 68.7652,236 48,215.28618 48,70.125 V -46.125 C 48,-191.28677 68.7652,-212 214.0625,-212 Z"
         style="display:inline;opacity:1;fill:#8c59d9;fill-opacity:1;stroke:none;stroke-width:2;stroke-linecap:round;stroke-linejoin:round;stroke-miterlimit:4;stroke-dasharray:none;stroke-dashoffset:0;stroke-opacity:1;enable-background:new" />
    </clipPath>
    <clipPath
       clipPathUnits="userSpaceOnUse"
       id="clipPath1205">
      <path
         id="path1207"
         d="M 115.03125,44 C 42.3826,44 32,54.356615 32,126.9375 v 58.125 c 0,13.772 0.379014,25.29352 1.482422,34.9375 H 270.51758 C 271.62099,210.35602 272,198.8345 272,185.0625 v -58.125 C 272,54.356615 261.6174,44 188.96875,44 Z"
         style="opacity:1;fill:#f1f0e9;fill-opacity:1;stroke:none;stroke-width:2;stroke-linecap:round;stroke-linejoin:round;stroke-miterlimit:4;stroke-dasharray:none;stroke-dashoffset:0;stroke-opacity:1"
         inkscape:connector-curvature="0" />
    </clipPath>
    <clipPath
       clipPathUnits="userSpaceOnUse"
       id="clipPath1082-3-4">
      <path
         sodipodi:nodetypes="sssssssss"
         inkscape:connector-curvature="0"
         id="path1084-6-78"
         d="M 361.9375,-212 C 507.2348,-212 528,-191.28677 528,-46.125 V 70.125 C 528,215.28618 507.2348,236 361.9375,236 H 214.0625 C 68.7652,236 48,215.28618 48,70.125 V -46.125 C 48,-191.28677 68.7652,-212 214.0625,-212 Z"
         style="display:inline;opacity:1;fill:#8c59d9;fill-opacity:1;stroke:none;stroke-width:2;stroke-linecap:round;stroke-linejoin:round;stroke-miterlimit:4;stroke-dasharray:none;stroke-dashoffset:0;stroke-opacity:1;enable-background:new" />
    </clipPath>
    <clipPath
       clipPathUnits="userSpaceOnUse"
       id="clipPath1082-3-45">
      <path
         sodipodi:nodetypes="sssssssss"
         inkscape:connector-curvature="0"
         id="path1084-6-03"
         d="M 361.9375,-212 C 507.2348,-212 528,-191.28677 528,-46.125 V 70.125 C 528,215.28618 507.2348,236 361.9375,236 H 214.0625 C 68.7652,236 48,215.28618 48,70.125 V -46.125 C 48,-191.28677 68.7652,-212 214.0625,-212 Z"
         style="display:inline;opacity:1;fill:#8c59d9;fill-opacity:1;stroke:none;stroke-width:2;stroke-linecap:round;stroke-linejoin:round;stroke-miterlimit:4;stroke-dasharray:none;stroke-dashoffset:0;stroke-opacity:1;enable-background:new" />
    </clipPath>
    <clipPath
       clipPathUnits="userSpaceOnUse"
       id="clipPath1082-3-61">
      <path
         sodipodi:nodetypes="sssssssss"
         inkscape:connector-curvature="0"
         id="path1084-6-06"
         d="M 361.9375,-212 C 507.2348,-212 528,-191.28677 528,-46.125 V 70.125 C 528,215.28618 507.2348,236 361.9375,236 H 214.0625 C 68.7652,236 48,215.28618 48,70.125 V -46.125 C 48,-191.28677 68.7652,-212 214.0625,-212 Z"
         style="display:inline;opacity:1;fill:#8c59d9;fill-opacity:1;stroke:none;stroke-width:2;stroke-linecap:round;stroke-linejoin:round;stroke-miterlimit:4;stroke-dasharray:none;stroke-dashoffset:0;stroke-opacity:1;enable-background:new" />
    </clipPath>
    <clipPath
       clipPathUnits="userSpaceOnUse"
       id="clipPath1064">
      <path
         style="opacity:1;fill:#a3dbf0;fill-opacity:1;stroke:none;stroke-width:2;stroke-linecap:round;stroke-linejoin:round;stroke-miterlimit:4;stroke-dasharray:none;stroke-dashoffset:0;stroke-opacity:1"
         d="M 115.03125,44 C 42.3826,44 32,54.356615 32,126.9375 v 58.125 c 0,10.16582 0.217657,19.07051 0.767578,26.9375 3.376331,48.30069 19.790377,56 82.263672,56 h 73.9375 c 62.4733,0 78.88734,-7.69931 82.26367,-56 C 271.78234,204.13301 272,195.22832 272,185.0625 v -58.125 C 272,54.356615 261.6174,44 188.96875,44 Z"
         id="path1066"
         inkscape:connector-curvature="0" />
    </clipPath>
    <clipPath
       clipPathUnits="userSpaceOnUse"
       id="clipPath1082-3-32">
      <path
         sodipodi:nodetypes="sssssssss"
         inkscape:connector-curvature="0"
         id="path1084-6-061"
         d="M 361.9375,-212 C 507.2348,-212 528,-191.28677 528,-46.125 V 70.125 C 528,215.28618 507.2348,236 361.9375,236 H 214.0625 C 68.7652,236 48,215.28618 48,70.125 V -46.125 C 48,-191.28677 68.7652,-212 214.0625,-212 Z"
         style="display:inline;opacity:1;fill:#8c59d9;fill-opacity:1;stroke:none;stroke-width:2;stroke-linecap:round;stroke-linejoin:round;stroke-miterlimit:4;stroke-dasharray:none;stroke-dashoffset:0;stroke-opacity:1;enable-background:new" />
    </clipPath>
    <clipPath
       clipPathUnits="userSpaceOnUse"
       id="clipPath947">
      <path
         sodipodi:nodetypes="sssssssss"
         inkscape:connector-curvature="0"
         id="path949"
         d="m 191.43333,45.066672 c 77.49189,0 88.56666,11.047056 88.56666,88.466668 v 62 C 279.99999,272.95263 268.92522,284 191.43333,284 H 112.56666 C 35.074773,284 23.999999,272.95263 23.999999,195.53334 v -62 c 0,-77.419612 11.074774,-88.466668 88.566661,-88.466668 z"
         style="opacity:1;fill:#a4c1f9;fill-opacity:1;stroke:none;stroke-width:2;stroke-linecap:round;stroke-linejoin:round;stroke-miterlimit:4;stroke-dasharray:none;stroke-dashoffset:0;stroke-opacity:1" />
    </clipPath>
    <clipPath
       clipPathUnits="userSpaceOnUse"
       id="clipPath1082-3-55">
      <path
         sodipodi:nodetypes="sssssssss"
         inkscape:connector-curvature="0"
         id="path1084-6-4"
         d="M 361.9375,-212 C 507.2348,-212 528,-191.28677 528,-46.125 V 70.125 C 528,215.28618 507.2348,236 361.9375,236 H 214.0625 C 68.7652,236 48,215.28618 48,70.125 V -46.125 C 48,-191.28677 68.7652,-212 214.0625,-212 Z"
         style="display:inline;opacity:1;fill:#8c59d9;fill-opacity:1;stroke:none;stroke-width:2;stroke-linecap:round;stroke-linejoin:round;stroke-miterlimit:4;stroke-dasharray:none;stroke-dashoffset:0;stroke-opacity:1;enable-background:new" />
    </clipPath>
    <clipPath
       clipPathUnits="userSpaceOnUse"
       id="clipPath991">
      <path
         sodipodi:nodetypes="sssssssss"
         inkscape:connector-curvature="0"
         id="path993"
         d="M 188.96875,44 C 261.6174,44 272,54.356615 272,126.9375 v 58.125 C 272,257.64309 261.6174,268 188.96875,268 h -73.9375 C 42.3826,268 32,257.64309 32,185.0625 v -58.125 C 32,54.356615 42.3826,44 115.03125,44 Z"
         style="opacity:1;fill:#6dc7f1;fill-opacity:1;stroke:none;stroke-width:2;stroke-linecap:round;stroke-linejoin:round;stroke-miterlimit:4;stroke-dasharray:none;stroke-dashoffset:0;stroke-opacity:1" />
    </clipPath>
    <clipPath
       clipPathUnits="userSpaceOnUse"
       id="clipPath978">
      <path
         sodipodi:nodetypes="sssssssss"
         inkscape:connector-curvature="0"
         id="path976"
         d="M 188.96875,44 C 261.6174,44 272,54.356615 272,126.9375 v 58.125 C 272,257.64309 261.6174,268 188.96875,268 h -73.9375 C 42.3826,268 32,257.64309 32,185.0625 v -58.125 C 32,54.356615 42.3826,44 115.03125,44 Z"
         style="opacity:1;fill:#6dc7f1;fill-opacity:1;stroke:none;stroke-width:2;stroke-linecap:round;stroke-linejoin:round;stroke-miterlimit:4;stroke-dasharray:none;stroke-dashoffset:0;stroke-opacity:1" />
    </clipPath>
    <clipPath
       clipPathUnits="userSpaceOnUse"
       id="clipPath942">
      <path
         sodipodi:nodetypes="sssssssss"
         inkscape:connector-curvature="0"
         id="path944"
         d="M 188.96875,44 C 261.6174,44 272,54.356615 272,126.9375 v 58.125 C 272,257.64309 261.6174,268 188.96875,268 h -73.9375 C 42.3826,268 32,257.64309 32,185.0625 v -58.125 C 32,54.356615 42.3826,44 115.03125,44 Z"
         style="display:inline;opacity:1;fill:#46a926;fill-opacity:1;stroke:none;stroke-width:2;stroke-linecap:round;stroke-linejoin:round;stroke-miterlimit:4;stroke-dasharray:none;stroke-dashoffset:0;stroke-opacity:1;enable-background:new" />
    </clipPath>
    <clipPath
       clipPathUnits="userSpaceOnUse"
       id="clipPath1082-3-7">
      <path
         sodipodi:nodetypes="sssssssss"
         inkscape:connector-curvature="0"
         id="path1084-6-65"
         d="M 361.9375,-212 C 507.2348,-212 528,-191.28677 528,-46.125 V 70.125 C 528,215.28618 507.2348,236 361.9375,236 H 214.0625 C 68.7652,236 48,215.28618 48,70.125 V -46.125 C 48,-191.28677 68.7652,-212 214.0625,-212 Z"
         style="display:inline;opacity:1;fill:#8c59d9;fill-opacity:1;stroke:none;stroke-width:2;stroke-linecap:round;stroke-linejoin:round;stroke-miterlimit:4;stroke-dasharray:none;stroke-dashoffset:0;stroke-opacity:1;enable-background:new" />
    </clipPath>
    <radialGradient
       id="radialGradient3322"
       gradientUnits="userSpaceOnUse"
       cy="-2.0645001"
       cx="26.617001"
       gradientTransform="matrix(-4.8906e-8,-2.8515,3.7557,0,674.00149,398.26285)"
       r="23">
      <stop
         id="stop2749"
         style="stop-color:#d280b9;stop-opacity:1"
         offset="0" />
      <stop
         offset="0.52913231"
         style="stop-color:#b549b5;stop-opacity:1"
         id="stop4269" />
      <stop
         id="stop2755"
         style="stop-color:#8940a8;stop-opacity:1"
         offset="1" />
    </radialGradient>
    <clipPath
       clipPathUnits="userSpaceOnUse"
       id="clipPath942-3">
      <path
         sodipodi:nodetypes="sssssssss"
         inkscape:connector-curvature="0"
         id="path944-6"
         d="M 188.96875,44 C 261.6174,44 272,54.356615 272,126.9375 v 58.125 C 272,257.64309 261.6174,268 188.96875,268 h -73.9375 C 42.3826,268 32,257.64309 32,185.0625 v -58.125 C 32,54.356615 42.3826,44 115.03125,44 Z"
         style="display:inline;opacity:1;fill:#46a926;fill-opacity:1;stroke:none;stroke-width:2;stroke-linecap:round;stroke-linejoin:round;stroke-miterlimit:4;stroke-dasharray:none;stroke-dashoffset:0;stroke-opacity:1;enable-background:new" />
    </clipPath>
    <clipPath
       clipPathUnits="userSpaceOnUse"
       id="clipPath1082-3-75">
      <path
         sodipodi:nodetypes="sssssssss"
         inkscape:connector-curvature="0"
         id="path1084-6-35"
         d="M 361.9375,-212 C 507.2348,-212 528,-191.28677 528,-46.125 V 70.125 C 528,215.28618 507.2348,236 361.9375,236 H 214.0625 C 68.7652,236 48,215.28618 48,70.125 V -46.125 C 48,-191.28677 68.7652,-212 214.0625,-212 Z"
         style="display:inline;opacity:1;fill:#8c59d9;fill-opacity:1;stroke:none;stroke-width:2;stroke-linecap:round;stroke-linejoin:round;stroke-miterlimit:4;stroke-dasharray:none;stroke-dashoffset:0;stroke-opacity:1;enable-background:new" />
    </clipPath>
    <radialGradient
       id="radialGradient3322-6"
       gradientUnits="userSpaceOnUse"
       cy="-2.0645001"
       cx="26.617001"
       gradientTransform="matrix(-4.8906e-8,-2.8515,3.7557,0,674.00149,398.26285)"
       r="23">
      <stop
         id="stop2749-2"
         style="stop-color:#d280b9;stop-opacity:1"
         offset="0" />
      <stop
         offset="0.52913231"
         style="stop-color:#b549b5;stop-opacity:1"
         id="stop4269-9" />
      <stop
         id="stop2755-1"
         style="stop-color:#8940a8;stop-opacity:1"
         offset="1" />
    </radialGradient>
    <linearGradient
       inkscape:collect="always"
       xlink:href="#linearGradient1013"
       id="linearGradient1108"
       x1="296"
       y1="-212"
       x2="296"
       y2="236"
       gradientUnits="userSpaceOnUse" />
    <linearGradient
       id="linearGradient1013"
       inkscape:collect="always">
      <stop
         id="stop1005"
         offset="0"
         style="stop-color:#ffffff;stop-opacity:1;" />
      <stop
         style="stop-color:#ffffff;stop-opacity:0.09803922"
         offset="0.125"
         id="stop1007" />
      <stop
         style="stop-color:#000000;stop-opacity:0.09803922"
         offset="0.92500001"
         id="stop1009" />
      <stop
         id="stop1011"
         offset="1"
         style="stop-color:#000000;stop-opacity:0.49803922" />
    </linearGradient>
    <clipPath
       clipPathUnits="userSpaceOnUse"
       id="clipPath1082-3-2">
      <path
         sodipodi:nodetypes="sssssssss"
         inkscape:connector-curvature="0"
         id="path1084-6-70"
         d="M 361.9375,-212 C 507.2348,-212 528,-191.28677 528,-46.125 V 70.125 C 528,215.28618 507.2348,236 361.9375,236 H 214.0625 C 68.7652,236 48,215.28618 48,70.125 V -46.125 C 48,-191.28677 68.7652,-212 214.0625,-212 Z"
         style="display:inline;opacity:1;fill:#8c59d9;fill-opacity:1;stroke:none;stroke-width:2;stroke-linecap:round;stroke-linejoin:round;stroke-miterlimit:4;stroke-dasharray:none;stroke-dashoffset:0;stroke-opacity:1;enable-background:new" />
    </clipPath>
    <filter
       inkscape:collect="always"
       style="color-interpolation-filters:sRGB"
       id="filter4569"
       x="-0.0116"
       width="1.0232"
       y="-0.012428571"
       height="1.024857">
      <feGaussianBlur
         inkscape:collect="always"
         stdDeviation="1.16"
         id="feGaussianBlur4571" />
    </filter>
    <filter
       inkscape:collect="always"
       style="color-interpolation-filters:sRGB"
       id="filter913"
       x="-0.0232"
       width="1.0464"
       y="-0.024857143"
       height="1.0497143">
      <feGaussianBlur
         inkscape:collect="always"
         stdDeviation="2.32"
         id="feGaussianBlur915" />
    </filter>
    <linearGradient
       inkscape:collect="always"
       xlink:href="#linearGradient2226"
       id="linearGradient2230"
       gradientUnits="userSpaceOnUse"
       x1="1.9234736"
       y1="233.97971"
       x2="64.673012"
       y2="292.21533" />
    <filter
       inkscape:collect="always"
       style="color-interpolation-filters:sRGB"
       id="filter1020"
       x="-0.037690166"
       width="1.0753803"
       y="-0.088826506"
       height="1.177653">
      <feGaussianBlur
         inkscape:collect="always"
         stdDeviation="3.3076433"
         id="feGaussianBlur1022" />
    </filter>
    <filter
       inkscape:collect="always"
       style="color-interpolation-filters:sRGB"
       id="filter1024"
       x="-0.17853438"
       width="1.3570688"
       y="-0.12742861"
       height="1.2548572">
      <feGaussianBlur
         inkscape:collect="always"
         stdDeviation="0.87514727"
         id="feGaussianBlur1026" />
    </filter>
  </defs>
  <sodipodi:namedview
     id="base"
     pagecolor="#ffffff"
     bordercolor="#666666"
     borderopacity="1.0"
     inkscape:pageopacity="0.0"
     inkscape:pageshadow="2"
     inkscape:zoom="3.2382812"
     inkscape:cx="67.474064"
     inkscape:cy="128"
     inkscape:document-units="px"
     inkscape:current-layer="layer1"
     showgrid="false"
     units="px"
     inkscape:window-width="1920"
     inkscape:window-height="1009"
     inkscape:window-x="0"
     inkscape:window-y="34"
     inkscape:window-maximized="1">
    <inkscape:grid
       type="xygrid"
       id="grid2168" />
  </sodipodi:namedview>
  <metadata
     id="metadata1485">
    <rdf:RDF>
      <cc:Work
         rdf:about="">
        <dc:format>image/svg+xml</dc:format>
        <dc:type
           rdf:resource="http://purl.org/dc/dcmitype/StillImage" />
        <dc:title />
      </cc:Work>
    </rdf:RDF>
  </metadata>
  <g
     inkscape:label="Livello 1"
     inkscape:groupmode="layer"
     id="layer1"
     transform="translate(0,-229.26666)">
    <path
       style="display:inline;opacity:0.2;fill:#000000;fill-opacity:1;stroke:none;stroke-width:2;stroke-linecap:round;stroke-linejoin:round;stroke-miterlimit:4;stroke-dasharray:none;stroke-dashoffset:0;stroke-opacity:1;filter:url(#filter913);enable-background:new"
       d="m 162.53675,5.5680001 c 72.64865,0 83.03125,10.3566149 83.03125,82.9375049 v 58.125005 c 0,72.58059 -10.3826,82.9375 -83.03125,82.9375 H 88.599254 C 15.9506,229.56801 5.568,219.2111 5.568,146.63051 V 88.505505 c 0,-72.58089 10.3826,-82.9375049 83.031254,-82.9375049 z"
       id="path899"
       inkscape:connector-curvature="0"
       sodipodi:nodetypes="sssssssss"
       transform="matrix(0.26458333,0,0,0.26458333,-1.8735229e-8,232.67026)" />
    <path
       sodipodi:nodetypes="sssssssss"
       inkscape:connector-curvature="0"
       id="path4567"
       d="m 162.53675,3.5680001 c 72.64865,0 83.03125,10.3566149 83.03125,82.9375049 v 58.125005 c 0,72.58059 -10.3826,82.9375 -83.03125,82.9375 H 88.599254 C 15.9506,227.56801 5.568,217.2111 5.568,144.63051 V 86.505505 c 0,-72.58089 10.3826,-82.9375049 83.031254,-82.9375049 z"
       style="display:inline;opacity:0.1;fill:#000000;fill-opacity:1;stroke:none;stroke-width:2;stroke-linecap:round;stroke-linejoin:round;stroke-miterlimit:4;stroke-dasharray:none;stroke-dashoffset:0;stroke-opacity:1;filter:url(#filter4569);enable-background:new"
       transform="matrix(0.26458333,0,0,0.26458333,-1.8735229e-8,232.67026)" />
    <path
       style="display:inline;opacity:1;fill:url(#linearGradient2230);fill-opacity:1;stroke:none;stroke-width:0.52916664;stroke-linecap:round;stroke-linejoin:round;stroke-miterlimit:4;stroke-dasharray:none;stroke-dashoffset:0;stroke-opacity:1;enable-background:new"
       d="m 23.441882,233.61429 c -9.611188,0 -15.1016409,0.68375 -18.19217,3.77032 -3.090525,3.08656 -3.776514,8.57135 -3.776514,18.17356 v 15.37891 c 0,9.60218 0.68599,15.087 3.776514,18.17357 3.0905286,3.08658 8.580982,3.77031 18.19217,3.77031 h 19.562631 c 9.61119,0 15.101644,-0.68373 18.19217,-3.77031 3.090527,-3.08657 3.776515,-8.57139 3.776515,-18.17357 v -15.37891 c 0,-9.60221 -0.685988,-15.087 -3.776515,-18.17356 -3.090526,-3.08657 -8.580982,-3.77032 -18.19217,-3.77032 z"
       id="rect877"
       inkscape:connector-curvature="0" />
    <path
       style="display:inline;opacity:0.2;fill:#131313;fill-opacity:1;stroke:none;stroke-width:0.52916664;stroke-linecap:round;stroke-linejoin:round;stroke-miterlimit:4;stroke-dasharray:none;stroke-dashoffset:0;stroke-opacity:1;enable-background:new"
       d="m 1.473198,270.40792 v 0.52916 c 0,9.60218 0.68599,15.087 3.776514,18.17357 3.0905286,3.08658 8.580982,3.77031 18.19217,3.77031 h 19.562631 c 9.61119,0 15.101644,-0.68373 18.19217,-3.77031 3.090527,-3.08657 3.776515,-8.57139 3.776515,-18.17357 v -0.52916 c 0,9.60217 -0.685988,15.08699 -3.776515,18.17356 -3.090526,3.08658 -8.58098,3.77032 -18.19217,3.77032 H 23.441882 c -9.611188,0 -15.1016414,-0.68374 -18.19217,-3.77032 -3.090524,-3.08657 -3.776514,-8.57139 -3.776514,-18.17356 z"
       id="path917"
       inkscape:connector-curvature="0" />
    <path
       sodipodi:nodetypes="sssssssss"
       inkscape:connector-curvature="0"
       id="path1068"
       d="M 361.9375,-212 C 507.2348,-212 528,-191.28677 528,-46.125 V 70.125 C 528,215.28618 507.2348,236 361.9375,236 H 214.0625 C 68.7652,236 48,215.28618 48,70.125 V -46.125 C 48,-191.28677 68.7652,-212 214.0625,-212 Z"
       style="display:inline;opacity:0.4;fill:none;fill-opacity:1;stroke:url(#linearGradient1108);stroke-width:8;stroke-linecap:round;stroke-linejoin:round;stroke-miterlimit:4;stroke-dasharray:none;stroke-dashoffset:0;stroke-opacity:1;enable-background:new"
       clip-path="url(#clipPath1082-3-2)"
       transform="matrix(0.13229167,0,0,0.13229167,-4.876802,261.66013)" />
    <path
       inkscape:connector-curvature="0"
       style="display:inline;opacity:0.05;fill:#ffffff;fill-opacity:1;stroke:none;stroke-width:0.52916664;stroke-linecap:round;stroke-linejoin:round;stroke-miterlimit:4;stroke-dasharray:none;stroke-dashoffset:0;stroke-opacity:1;enable-background:new"
       d="m 1.473198,261.13096 v 9.80612 c 0,9.60218 0.68599,15.087 3.776514,18.17357 3.0905286,3.08658 8.580982,3.77031 18.19217,3.77031 h 19.562631 c 9.61119,0 15.101644,-0.68373 18.19217,-3.77031 3.090527,-3.08657 3.776515,-8.57139 3.776515,-18.17357 v -9.80612 z"
       id="path897" />
    <path
       style="fill:#01ffff;stroke-width:0.40160203;fill-opacity:1"
       d="M 160.43555 79.072266 C 159.48957 79.171322 157.89662 80.497178 157.39062 81.71875 C 156.62006 83.579071 157.59261 84.970206 160.80664 86.601562 C 164.28335 88.366224 167.70403 91.735325 169.16016 94.830078 C 170.38605 97.435495 171.57054 98.931238 172.83008 99.466797 C 174.18575 100.04321 177.64844 99.736272 177.64844 99.039062 C 177.64844 98.625319 177.08305 98.367222 175.8418 98.216797 C 173.15173 97.890472 172.54811 97.385086 170.89258 94.080078 C 169.01944 90.340651 166.17803 87.449592 162.25391 85.289062 C 160.63405 84.397208 159.20255 83.390183 159.07227 83.050781 C 158.92242 82.66028 159.30315 82.042199 160.10938 81.369141 C 161.49176 80.215062 161.72117 79.463895 160.79688 79.109375 C 160.69323 79.0696 160.57069 79.058115 160.43555 79.072266 z M 175.99805 86.339844 C 175.8189 86.316645 175.67677 86.319847 175.58398 86.355469 C 174.368 86.822089 175.13331 87.828537 177.54883 88.939453 C 178.92932 89.574414 180.41956 90.469202 180.86133 90.927734 C 181.30307 91.386304 181.98257 91.773818 182.36914 91.785156 C 183.52316 91.82435 183.18747 90.373387 181.76562 89.171875 C 180.36559 87.988765 177.25207 86.502236 175.99805 86.339844 z M 155.26367 87.183594 C 155.07574 87.204939 154.93721 87.252244 154.85938 87.330078 C 154.10203 88.08742 154.88906 88.916195 156.63672 89.201172 C 161.40285 89.97881 165.82942 94.372981 166.4668 98.958984 C 166.58037 99.776043 166.74808 100.68409 166.83984 100.97852 C 167.20128 102.13891 168.01686 101.08962 168.13281 99.314453 C 168.35212 95.957288 165.85283 91.751973 162.27344 89.455078 C 160.58105 88.369069 157.60663 87.366017 155.96289 87.195312 C 155.68894 87.166862 155.4516 87.162248 155.26367 87.183594 z M 139.58008 89.113281 C 137.16552 89.124731 132.54652 89.985975 126.10352 91.650391 C 117.93627 93.760236 112.74986 95.613835 106.45508 98.675781 C 97.657961 102.95492 95.358376 105.66876 97.318359 109.45898 C 98.523307 111.7891 103.07137 114.82592 109.125 117.3418 C 111.81286 118.45887 111.77375 118.45265 112.31641 117.79883 C 112.94038 117.04697 112.43628 116.55769 110.17969 115.72461 C 106.50034 114.36628 102.70775 112.2669 100.86719 110.57031 C 98.54055 108.4257 98.115197 107.36354 98.992188 105.87891 C 101.5117 101.61371 119.25816 94.466551 133.875 91.832031 C 141.43488 90.469474 141.50586 90.45086 141.50586 89.800781 C 141.50586 89.461228 141.15549 89.248703 140.47852 89.160156 C 140.22465 89.126951 139.92501 89.111646 139.58008 89.113281 z M 150.0293 90.1875 C 149.84277 90.1759 149.65378 90.182455 149.4668 90.208984 C 148.96818 90.279729 148.47859 90.490624 148.0625 90.867188 C 146.6729 92.124711 147.37987 94.481243 149.33594 95.111328 C 150.71128 95.554327 152.54883 94.1645 152.54883 92.681641 C 152.54883 91.251367 151.335 90.268701 150.0293 90.1875 z M 149.93945 91.808594 C 150.27412 91.808594 150.54102 92.16707 150.54102 92.613281 C 150.54102 93.059719 150.27413 93.416016 149.93945 93.416016 C 149.6048 93.416016 149.33594 93.05953 149.33594 92.613281 C 149.33594 92.166881 149.60481 91.808594 149.93945 91.808594 z M 155.49805 95.113281 C 155.36348 95.11565 155.24984 95.131937 155.16602 95.164062 C 154.06677 95.585858 154.52746 96.52913 156.14844 97.177734 C 158.20486 98.000538 158.69688 98.81586 160.01562 103.58789 C 161.32049 108.30969 162.20025 109.72335 164.59766 110.94531 C 166.5671 111.94908 167.14227 111.95821 167.33008 110.99023 C 167.40921 110.58227 166.73821 109.96775 165.4375 109.25977 C 163.24597 108.06698 163.28566 108.14601 161.01562 100.36914 C 160.14158 97.37466 159.35648 96.413701 156.99023 95.433594 C 156.48944 95.226097 155.90176 95.106174 155.49805 95.113281 z M 126.12109 108.67383 C 124.98142 108.66804 123.81984 109.31402 123.29492 110.7207 C 122.87507 111.84583 123.35566 113.45779 124.33203 114.19922 C 126.21819 115.63151 129.01562 114.13243 129.01562 111.68945 C 129.01562 109.98035 127.88576 108.93332 126.60547 108.7168 C 126.44543 108.68973 126.2839 108.67465 126.12109 108.67383 z M 59.601562 114.41602 C 44.733616 114.41602 32.642578 126.50702 32.642578 141.375 C 32.642578 156.24294 44.733616 168.32617 59.601562 168.32617 C 70.801501 168.32617 80.423314 161.46711 84.490234 151.72852 C 82.829827 151.18053 82.529624 151.08774 81.162109 150.64453 C 77.574393 158.99469 69.282865 164.82617 59.601562 164.82617 C 46.625157 164.82617 36.148437 154.3514 36.148438 141.375 C 36.148438 128.39856 46.625157 117.91406 59.601562 117.91406 C 68.471169 117.91406 76.173631 122.81464 80.162109 130.05859 L 83.039062 128.07422 C 78.397233 119.92479 69.63451 114.41602 59.601562 114.41602 z M 216.30469 114.52539 C 205.10474 114.52539 195.48294 121.38445 191.41602 131.12305 C 193.07644 131.67104 193.37663 131.76381 194.74414 132.20703 C 198.33186 123.85688 206.62339 118.02539 216.30469 118.02539 C 229.28109 118.02539 239.75781 128.50016 239.75781 141.47656 C 239.75781 154.453 229.28109 164.9375 216.30469 164.9375 C 207.43508 164.9375 199.73264 160.03689 195.74414 152.79297 L 192.86719 154.77734 C 197.50901 162.92676 206.27174 168.43555 216.30469 168.43555 C 231.17263 168.43555 243.26367 156.34454 243.26367 141.47656 C 243.26367 126.60862 231.17263 114.52539 216.30469 114.52539 z M 172.1582 115.50391 C 169.78073 115.50391 168.99481 118.61086 170.92188 120.39062 C 173.66816 122.92707 179.15897 125.89599 184.55273 127.76172 L 184.55273 127.75977 C 187.61641 128.81992 188.0918 128.81802 188.0918 127.73828 C 188.0918 127.16413 187.37997 126.73924 185.07812 125.93945 C 180.85137 124.47084 178.55228 123.33722 174.73828 120.83789 C 171.38549 118.64081 170.7695 117.77361 172.22852 117.31055 C 173.34806 116.95523 173.29126 115.50391 172.1582 115.50391 z M 132.91211 118.0957 C 131.7519 118.07688 131.10345 118.51857 131.36914 119.21094 C 131.53162 119.6344 133.00634 119.91715 136.94922 120.27734 C 153.58239 121.79637 164.69764 125.68898 170.38867 131.98828 C 174.30046 136.31815 176.39082 143.78736 177.49219 157.37109 C 177.91463 162.58091 178.0587 163.29492 178.68164 163.29492 C 179.6729 163.29492 179.70508 163.03718 179.37305 157.75586 C 178.57833 145.11394 176.27708 136.44186 172.39648 131.46094 C 167.26136 124.86978 155.12044 120.14589 139.69727 118.73828 C 136.93625 118.48634 134.12105 118.21407 133.43945 118.13281 C 133.25399 118.11073 133.07785 118.09839 132.91211 118.0957 z M 139.94336 131.82227 C 139.76415 131.83364 139.58861 131.89399 139.46094 132 C 138.94293 132.42992 137.85112 143.61299 138.23047 144.60156 C 138.50572 145.31888 139.13036 145.41391 139.51172 144.79688 C 139.65634 144.56288 140.04396 141.64704 140.37305 138.31641 C 140.86305 133.35702 140.87741 132.20207 140.44922 131.9375 C 140.30544 131.84849 140.12257 131.81089 139.94336 131.82227 z M 199.75781 131.96875 C 198.52836 131.96875 196.6363 137.34121 197.27734 139.01172 C 197.41396 139.36801 197.84326 139.59789 198.23047 139.52344 C 198.74849 139.42381 199.00006 138.84929 199.18359 137.34961 C 199.32079 136.2286 199.74676 134.83226 200.13086 134.24609 C 200.89487 133.08003 200.71297 131.96875 199.75781 131.96875 z M 149.22461 132.38477 C 149.04245 132.38129 148.85893 132.44863 148.69531 132.57227 C 148.36808 132.81955 148.11926 133.29112 148.10547 133.86523 C 148.09062 134.47956 147.84387 137.24097 147.55859 140.00195 C 147.21715 143.30598 147.17417 145.19311 147.43359 145.52344 C 147.6504 145.79942 147.99259 146.02539 148.19336 146.02539 C 148.76658 146.02539 148.8831 145.40761 149.51367 139.00195 C 149.86048 135.47872 149.95743 132.83243 149.74805 132.62305 C 149.58754 132.46254 149.40676 132.38824 149.22461 132.38477 z M 160.08008 132.77539 C 158.94901 132.77297 159.2685 134.11338 160.57617 134.85742 C 162.15733 135.75714 163.38722 137.85092 163.39062 139.64062 C 163.39251 141.46659 161.99663 143.60328 160.21484 144.49805 C 158.45708 145.38072 158.01258 145.84724 158.375 146.43359 C 158.79888 147.11946 160.86887 146.60999 162.39844 145.44336 C 165.10566 143.37845 165.91134 139.29414 164.24805 136.07031 C 163.3533 134.33611 161.38271 132.77879 160.08008 132.77539 z M 154.85352 133.24023 C 154.58094 133.2092 154.30384 133.2756 154.16406 133.42188 C 153.79228 133.81082 152.6212 145.23662 152.875 145.99805 C 152.96162 146.2577 153.3292 146.41292 153.69336 146.34375 C 154.20872 146.24556 154.45339 145.41758 154.79688 142.60742 C 155.73506 134.93215 155.78332 133.55943 155.11914 133.30469 C 155.03445 133.27218 154.94437 133.25058 154.85352 133.24023 z M 76.75 137.99414 C 76.096263 137.99414 75.913459 138.34714 75.720703 139.97461 C 75.591689 141.06394 75.102184 142.7069 74.632812 143.62695 C 74.163438 144.547 73.87719 145.55336 73.996094 145.86328 C 74.777367 147.8992 77.106516 144.07459 77.378906 140.30859 C 77.53053 138.21243 77.470333 137.99414 76.75 137.99414 z M 115.03906 139.60742 C 112.79929 139.64643 110.89946 140.27341 109.54688 141.45508 C 108.70799 142.18793 107.59732 142.22047 103.75391 141.63086 C 94.713552 140.24404 91.207534 140.10745 87.773438 141.00195 C 85.213019 141.66881 82.269531 143.42475 82.269531 144.28516 C 82.269531 145.17259 83.430714 145.38436 84.246094 144.64648 C 84.654846 144.27658 85.915318 143.62332 87.046875 143.19336 C 90.256397 141.97386 95.242383 142.17734 106.76758 143.99805 C 112.17917 144.85298 117.42379 145.56899 118.42383 145.58789 C 120.81991 145.6354 122.02734 144.7858 122.02734 143.05273 C 122.02734 141.40429 121.139 140.57211 118.80859 140.03516 C 117.84121 139.81226 116.90812 139.67633 116.01953 139.62695 C 115.68631 139.60844 115.35903 139.60185 115.03906 139.60742 z M 115.46094 141.41406 C 118.08353 141.48217 120.88131 142.37715 119.99805 143.44141 C 119.73534 143.75798 119.40621 143.99521 119.26758 143.96875 C 119.12897 143.94154 117.84002 143.76074 116.4043 143.56836 C 114.96857 143.37613 113.18481 143.11527 112.43945 142.98828 L 111.08398 142.75781 L 112.03711 142.08203 C 112.5638 141.70909 113.40928 141.50666 114.35938 141.4375 C 114.71566 141.41157 115.08628 141.40433 115.46094 141.41406 z "
       transform="matrix(0.26458333,0,0,0.26458333,0,229.26666)"
       id="path971" />
    <path
       inkscape:connector-curvature="0"
       id="path1123"
       d="m 13.17635,258.33755 -1.279498,0.0153 v -0.0117 H 1.4825968 l 0.026232,16.47899 H 11.925226 v -0.005 h 1.321791 c -0.464232,-0.24283 -0.904009,-0.5148 -1.321791,-0.80795 v -0.005 h -0.0059 c -2.5321334,-1.77914 -4.1543531,-4.43498 -4.1543529,-7.42997 0,-3.53588 1.5834146,-6.1454 4.9354359,-7.84968 z"
       style="color:#000000;font-style:normal;font-variant:normal;font-weight:normal;font-stretch:normal;font-size:medium;line-height:normal;font-family:sans-serif;font-variant-ligatures:normal;font-variant-position:normal;font-variant-caps:normal;font-variant-numeric:normal;font-variant-alternates:normal;font-feature-settings:normal;text-indent:0;text-align:start;text-decoration:none;text-decoration-line:none;text-decoration-style:solid;text-decoration-color:#000000;letter-spacing:normal;word-spacing:normal;text-transform:none;writing-mode:lr-tb;direction:ltr;text-orientation:mixed;dominant-baseline:auto;baseline-shift:baseline;text-anchor:start;white-space:normal;shape-padding:0;clip-rule:nonzero;display:inline;overflow:visible;visibility:visible;opacity:1;isolation:auto;mix-blend-mode:normal;color-interpolation:sRGB;color-interpolation-filters:linearRGB;solid-color:#000000;solid-opacity:1;vector-effect:none;fill:#01ffff;fill-opacity:0.39215687;fill-rule:nonzero;stroke:none;stroke-width:0.8794269;stroke-linecap:butt;stroke-linejoin:miter;stroke-miterlimit:4;stroke-dasharray:none;stroke-dashoffset:0;stroke-opacity:1;color-rendering:auto;image-rendering:auto;shape-rendering:auto;text-rendering:auto;enable-background:accumulate"
       sodipodi:nodetypes="cccccccccccscc" />
    <path
       style="color:#000000;font-style:normal;font-variant:normal;font-weight:normal;font-stretch:normal;font-size:medium;line-height:normal;font-family:sans-serif;font-variant-ligatures:normal;font-variant-position:normal;font-variant-caps:normal;font-variant-numeric:normal;font-variant-alternates:normal;font-feature-settings:normal;text-indent:0;text-align:start;text-decoration:none;text-decoration-line:none;text-decoration-style:solid;text-decoration-color:#000000;letter-spacing:normal;word-spacing:normal;text-transform:none;writing-mode:lr-tb;direction:ltr;text-orientation:mixed;dominant-baseline:auto;baseline-shift:baseline;text-anchor:start;white-space:normal;shape-padding:0;clip-rule:nonzero;display:inline;overflow:visible;visibility:visible;opacity:1;isolation:auto;mix-blend-mode:normal;color-interpolation:sRGB;color-interpolation-filters:linearRGB;solid-color:#000000;solid-opacity:1;vector-effect:none;fill:#01ffff;fill-opacity:1;fill-rule:nonzero;stroke:none;stroke-width:0.8794269;stroke-linecap:butt;stroke-linejoin:miter;stroke-miterlimit:4;stroke-dasharray:none;stroke-dashoffset:0;stroke-opacity:1;color-rendering:auto;image-rendering:auto;shape-rendering:auto;text-rendering:auto;enable-background:accumulate"
       d="m 13.17635,258.33755 -1.279498,0.0153 v -0.0117 H 1.4825968 v 0.81606 h 9.0582012 c -2.3349559,1.88533 -3.7346337,4.44876 -3.7346337,7.41511 0,2.91493 1.4402898,5.52803 3.7276747,7.42997 H 1.5088292 v 0.81785 H 11.925226 v -0.005 h 1.321791 c -0.464232,-0.24283 -0.904009,-0.5148 -1.321791,-0.80795 v -0.005 h -0.0059 c -2.5321334,-1.77914 -4.1543531,-4.43498 -4.1543529,-7.42997 0,-3.53588 1.5834146,-6.1454 4.9354359,-7.84968 z"
       id="path1102"
       inkscape:connector-curvature="0" />
    <path
       id="path983"
       transform="matrix(0.26458333,0,0,0.26458333,0,229.26666)"
       d="M 160.43555 79.072266 C 159.48957 79.171322 157.89662 80.497178 157.39062 81.71875 C 156.62006 83.579071 157.59261 84.970206 160.80664 86.601562 C 164.28335 88.366224 167.70403 91.735325 169.16016 94.830078 C 170.38605 97.435495 171.57054 98.931238 172.83008 99.466797 C 174.18575 100.04321 177.64844 99.736272 177.64844 99.039062 C 177.64844 98.625319 177.08305 98.367222 175.8418 98.216797 C 173.15173 97.890472 172.54811 97.385086 170.89258 94.080078 C 169.01944 90.340651 166.17803 87.449592 162.25391 85.289062 C 160.63405 84.397208 159.20255 83.390183 159.07227 83.050781 C 158.92242 82.66028 159.30315 82.042199 160.10938 81.369141 C 161.49176 80.215062 161.72117 79.463895 160.79688 79.109375 C 160.69323 79.0696 160.57069 79.058115 160.43555 79.072266 z M 175.99805 86.339844 C 175.8189 86.316645 175.67677 86.319847 175.58398 86.355469 C 174.368 86.822089 175.13331 87.828537 177.54883 88.939453 C 178.92932 89.574414 180.41956 90.469202 180.86133 90.927734 C 181.30307 91.386304 181.98257 91.773818 182.36914 91.785156 C 183.52316 91.82435 183.18747 90.373387 181.76562 89.171875 C 180.36559 87.988765 177.25207 86.502236 175.99805 86.339844 z M 155.26367 87.183594 C 155.07574 87.204939 154.93721 87.252244 154.85938 87.330078 C 154.10203 88.08742 154.88906 88.916195 156.63672 89.201172 C 161.40285 89.97881 165.82942 94.372981 166.4668 98.958984 C 166.58037 99.776043 166.74808 100.68409 166.83984 100.97852 C 167.20128 102.13891 168.01686 101.08962 168.13281 99.314453 C 168.35212 95.957288 165.85283 91.751973 162.27344 89.455078 C 160.58105 88.369069 157.60663 87.366017 155.96289 87.195312 C 155.68894 87.166862 155.4516 87.162248 155.26367 87.183594 z M 139.58008 89.113281 C 137.16552 89.124731 132.54652 89.985975 126.10352 91.650391 C 117.93627 93.760236 112.74986 95.613835 106.45508 98.675781 C 97.657961 102.95492 95.358376 105.66876 97.318359 109.45898 C 98.523307 111.7891 103.07137 114.82592 109.125 117.3418 C 111.81286 118.45887 111.77375 118.45265 112.31641 117.79883 C 112.94038 117.04697 112.43628 116.55769 110.17969 115.72461 C 106.50034 114.36628 102.70775 112.2669 100.86719 110.57031 C 98.54055 108.4257 98.115197 107.36354 98.992188 105.87891 C 101.5117 101.61371 119.25816 94.466551 133.875 91.832031 C 141.43488 90.469474 141.50586 90.45086 141.50586 89.800781 C 141.50586 89.461228 141.15549 89.248703 140.47852 89.160156 C 140.22465 89.126951 139.92501 89.111646 139.58008 89.113281 z M 150.0293 90.1875 C 149.84277 90.1759 149.65378 90.182455 149.4668 90.208984 C 148.96818 90.279729 148.47859 90.490624 148.0625 90.867188 C 146.6729 92.124711 147.37987 94.481243 149.33594 95.111328 C 150.71128 95.554327 152.54883 94.1645 152.54883 92.681641 C 152.54883 91.251367 151.335 90.268701 150.0293 90.1875 z M 149.93945 91.808594 C 150.27412 91.808594 150.54102 92.16707 150.54102 92.613281 C 150.54102 93.059719 150.27413 93.416016 149.93945 93.416016 C 149.6048 93.416016 149.33594 93.05953 149.33594 92.613281 C 149.33594 92.166881 149.60481 91.808594 149.93945 91.808594 z M 155.49805 95.113281 C 155.36348 95.11565 155.24984 95.131937 155.16602 95.164062 C 154.06677 95.585858 154.52746 96.52913 156.14844 97.177734 C 158.20486 98.000538 158.69688 98.81586 160.01562 103.58789 C 161.32049 108.30969 162.20025 109.72335 164.59766 110.94531 C 166.5671 111.94908 167.14227 111.95821 167.33008 110.99023 C 167.40921 110.58227 166.73821 109.96775 165.4375 109.25977 C 163.24597 108.06698 163.28566 108.14601 161.01562 100.36914 C 160.14158 97.37466 159.35648 96.413701 156.99023 95.433594 C 156.48944 95.226097 155.90176 95.106174 155.49805 95.113281 z M 126.12109 108.67383 C 124.98142 108.66804 123.81984 109.31402 123.29492 110.7207 C 122.87507 111.84583 123.35566 113.45779 124.33203 114.19922 C 126.21819 115.63151 129.01562 114.13243 129.01562 111.68945 C 129.01562 109.98035 127.88576 108.93332 126.60547 108.7168 C 126.44543 108.68973 126.2839 108.67465 126.12109 108.67383 z M 59.601562 114.41602 C 44.733616 114.41602 32.642578 126.50702 32.642578 141.375 C 32.642578 156.24294 44.733616 168.32617 59.601562 168.32617 C 70.801501 168.32617 80.423314 161.46711 84.490234 151.72852 C 82.829827 151.18053 82.529624 151.08774 81.162109 150.64453 C 77.574393 158.99469 69.282865 164.82617 59.601562 164.82617 C 46.625157 164.82617 36.148437 154.3514 36.148438 141.375 C 36.148438 128.39856 46.625157 117.91406 59.601562 117.91406 C 68.471169 117.91406 76.173631 122.81464 80.162109 130.05859 L 83.039062 128.07422 C 78.397233 119.92479 69.63451 114.41602 59.601562 114.41602 z M 216.30469 114.52539 C 205.10474 114.52539 195.48294 121.38445 191.41602 131.12305 C 193.07644 131.67104 193.37663 131.76381 194.74414 132.20703 C 198.33186 123.85688 206.62339 118.02539 216.30469 118.02539 C 229.28109 118.02539 239.75781 128.50016 239.75781 141.47656 C 239.75781 154.453 229.28109 164.9375 216.30469 164.9375 C 207.43508 164.9375 199.73264 160.03689 195.74414 152.79297 L 192.86719 154.77734 C 197.50901 162.92676 206.27174 168.43555 216.30469 168.43555 C 231.17263 168.43555 243.26367 156.34454 243.26367 141.47656 C 243.26367 126.60862 231.17263 114.52539 216.30469 114.52539 z M 172.1582 115.50391 C 169.78073 115.50391 168.99481 118.61086 170.92188 120.39062 C 173.66816 122.92707 179.15897 125.89599 184.55273 127.76172 L 184.55273 127.75977 C 187.61641 128.81992 188.0918 128.81802 188.0918 127.73828 C 188.0918 127.16413 187.37997 126.73924 185.07812 125.93945 C 180.85137 124.47084 178.55228 123.33722 174.73828 120.83789 C 171.38549 118.64081 170.7695 117.77361 172.22852 117.31055 C 173.34806 116.95523 173.29126 115.50391 172.1582 115.50391 z M 132.91211 118.0957 C 131.7519 118.07688 131.10345 118.51857 131.36914 119.21094 C 131.53162 119.6344 133.00634 119.91715 136.94922 120.27734 C 153.58239 121.79637 164.69764 125.68898 170.38867 131.98828 C 174.30046 136.31815 176.39082 143.78736 177.49219 157.37109 C 177.91463 162.58091 178.0587 163.29492 178.68164 163.29492 C 179.6729 163.29492 179.70508 163.03718 179.37305 157.75586 C 178.57833 145.11394 176.27708 136.44186 172.39648 131.46094 C 167.26136 124.86978 155.12044 120.14589 139.69727 118.73828 C 136.93625 118.48634 134.12105 118.21407 133.43945 118.13281 C 133.25399 118.11073 133.07785 118.09839 132.91211 118.0957 z M 139.94336 131.82227 C 139.76415 131.83364 139.58861 131.89399 139.46094 132 C 138.94293 132.42992 137.85112 143.61299 138.23047 144.60156 C 138.50572 145.31888 139.13036 145.41391 139.51172 144.79688 C 139.65634 144.56288 140.04396 141.64704 140.37305 138.31641 C 140.86305 133.35702 140.87741 132.20207 140.44922 131.9375 C 140.30544 131.84849 140.12257 131.81089 139.94336 131.82227 z M 199.75781 131.96875 C 198.52836 131.96875 196.6363 137.34121 197.27734 139.01172 C 197.41396 139.36801 197.84326 139.59789 198.23047 139.52344 C 198.74849 139.42381 199.00006 138.84929 199.18359 137.34961 C 199.32079 136.2286 199.74676 134.83226 200.13086 134.24609 C 200.89487 133.08003 200.71297 131.96875 199.75781 131.96875 z M 149.22461 132.38477 C 149.04245 132.38129 148.85893 132.44863 148.69531 132.57227 C 148.36808 132.81955 148.11926 133.29112 148.10547 133.86523 C 148.09062 134.47956 147.84387 137.24097 147.55859 140.00195 C 147.21715 143.30598 147.17417 145.19311 147.43359 145.52344 C 147.6504 145.79942 147.99259 146.02539 148.19336 146.02539 C 148.76658 146.02539 148.8831 145.40761 149.51367 139.00195 C 149.86048 135.47872 149.95743 132.83243 149.74805 132.62305 C 149.58754 132.46254 149.40676 132.38824 149.22461 132.38477 z M 160.08008 132.77539 C 158.94901 132.77297 159.2685 134.11338 160.57617 134.85742 C 162.15733 135.75714 163.38722 137.85092 163.39062 139.64062 C 163.39251 141.46659 161.99663 143.60328 160.21484 144.49805 C 158.45708 145.38072 158.01258 145.84724 158.375 146.43359 C 158.79888 147.11946 160.86887 146.60999 162.39844 145.44336 C 165.10566 143.37845 165.91134 139.29414 164.24805 136.07031 C 163.3533 134.33611 161.38271 132.77879 160.08008 132.77539 z M 154.85352 133.24023 C 154.58094 133.2092 154.30384 133.2756 154.16406 133.42188 C 153.79228 133.81082 152.6212 145.23662 152.875 145.99805 C 152.96162 146.2577 153.3292 146.41292 153.69336 146.34375 C 154.20872 146.24556 154.45339 145.41758 154.79688 142.60742 C 155.73506 134.93215 155.78332 133.55943 155.11914 133.30469 C 155.03445 133.27218 154.94437 133.25058 154.85352 133.24023 z M 76.75 137.99414 C 76.096263 137.99414 75.913459 138.34714 75.720703 139.97461 C 75.591689 141.06394 75.102184 142.7069 74.632812 143.62695 C 74.163438 144.547 73.87719 145.55336 73.996094 145.86328 C 74.777367 147.8992 77.106516 144.07459 77.378906 140.30859 C 77.53053 138.21243 77.470333 137.99414 76.75 137.99414 z M 115.03906 139.60742 C 112.79929 139.64643 110.89946 140.27341 109.54688 141.45508 C 108.70799 142.18793 107.59732 142.22047 103.75391 141.63086 C 94.713552 140.24404 91.207534 140.10745 87.773438 141.00195 C 85.213019 141.66881 82.269531 143.42475 82.269531 144.28516 C 82.269531 145.17259 83.430714 145.38436 84.246094 144.64648 C 84.654846 144.27658 85.915318 143.62332 87.046875 143.19336 C 90.256397 141.97386 95.242383 142.17734 106.76758 143.99805 C 112.17917 144.85298 117.42379 145.56899 118.42383 145.58789 C 120.81991 145.6354 122.02734 144.7858 122.02734 143.05273 C 122.02734 141.40429 121.139 140.57211 118.80859 140.03516 C 117.84121 139.81226 116.90812 139.67633 116.01953 139.62695 C 115.68631 139.60844 115.35903 139.60185 115.03906 139.60742 z M 115.46094 141.41406 C 118.08353 141.48217 120.88131 142.37715 119.99805 143.44141 C 119.73534 143.75798 119.40621 143.99521 119.26758 143.96875 C 119.12897 143.94154 117.84002 143.76074 116.4043 143.56836 C 114.96857 143.37613 113.18481 143.11527 112.43945 142.98828 L 111.08398 142.75781 L 112.03711 142.08203 C 112.5638 141.70909 113.40928 141.50666 114.35938 141.4375 C 114.71566 141.41157 115.08628 141.40433 115.46094 141.41406 z "
       style="fill:#01ffff;stroke-width:0.40160203;fill-opacity:1;filter:url(#filter1020)" />
    <path
       inkscape:connector-curvature="0"
       id="path986"
       d="m 13.17635,258.33755 -1.279498,0.0153 v -0.0117 H 1.4825968 v 0.81606 h 9.0582012 c -2.3349559,1.88533 -3.7346337,4.44876 -3.7346337,7.41511 0,2.91493 1.4402898,5.52803 3.7276747,7.42997 H 1.5088292 v 0.81785 H 11.925226 v -0.005 h 1.321791 c -0.464232,-0.24283 -0.904009,-0.5148 -1.321791,-0.80795 v -0.005 h -0.0059 c -2.5321334,-1.77914 -4.1543531,-4.43498 -4.1543529,-7.42997 0,-3.53588 1.5834146,-6.1454 4.9354359,-7.84968 z"
       style="color:#000000;font-style:normal;font-variant:normal;font-weight:normal;font-stretch:normal;font-size:medium;line-height:normal;font-family:sans-serif;font-variant-ligatures:normal;font-variant-position:normal;font-variant-caps:normal;font-variant-numeric:normal;font-variant-alternates:normal;font-feature-settings:normal;text-indent:0;text-align:start;text-decoration:none;text-decoration-line:none;text-decoration-style:solid;text-decoration-color:#000000;letter-spacing:normal;word-spacing:normal;text-transform:none;writing-mode:lr-tb;direction:ltr;text-orientation:mixed;dominant-baseline:auto;baseline-shift:baseline;text-anchor:start;white-space:normal;shape-padding:0;clip-rule:nonzero;display:inline;overflow:visible;visibility:visible;opacity:1;isolation:auto;mix-blend-mode:normal;color-interpolation:sRGB;color-interpolation-filters:linearRGB;solid-color:#000000;solid-opacity:1;vector-effect:none;fill:#01ffff;fill-opacity:1;fill-rule:nonzero;stroke:none;stroke-width:0.8794269;stroke-linecap:butt;stroke-linejoin:miter;stroke-miterlimit:4;stroke-dasharray:none;stroke-dashoffset:0;stroke-opacity:1;color-rendering:auto;image-rendering:auto;shape-rendering:auto;text-rendering:auto;enable-background:accumulate;filter:url(#filter1024)" />
    <path
       d="m 46.714541,237.41575 h 1.221449 c 0.126761,0 0.230399,0.11161 0.230399,0.24802 v 6.25081 c 0,0.13642 -0.103638,0.24802 -0.230399,0.24802 h -0.829654 l -2.189322,-2.60445 v -1.1907 h 1.567127 v -2.70368 c 0,-0.13641 0.103664,-0.24802 0.2304,-0.24802 z m -3.978222,6.74685 h -1.212163 c -0.125756,0 -0.228652,-0.1116 -0.228652,-0.24802 v -6.25081 c 0,-0.13641 0.102896,-0.24802 0.228652,-0.24802 h 0.823278 l 2.172679,2.60446 v 1.19067 h -1.555115 v 2.7037 c 0,0.13642 -0.102897,0.24802 -0.228679,0.24802 z m -5.647135,-6.86183 c 1.913784,0 3.465248,1.55146 3.465248,3.46522 0,1.91378 -1.551464,3.46522 -3.465248,3.46522 -1.913758,0 -3.465221,-1.55144 -3.465221,-3.46522 0,-1.91376 1.551463,-3.46522 3.465221,-3.46522 z m 0,1.57125 c 1.04603,0 1.893993,0.84796 1.893993,1.89397 0,1.04603 -0.847963,1.89399 -1.893993,1.89399 -1.046005,0 -1.893967,-0.84796 -1.893967,-1.89399 0,-1.04601 0.847963,-1.89397 1.893967,-1.89397 z m -8.473784,1.0101 h 4.391157 c 0.131181,0 0.238522,0.10732 0.238522,0.2385 0,0.90646 -1.475713,1.47306 -1.543208,1.47306 h -0.972239 c 0.01749,0.0136 0.03384,0.0277 0.04852,0.0422 l 2.494518,2.45504 c 0.101996,0.10036 0.09043,0.1824 -0.02566,0.1824 h -1.720189 c -0.116099,0 -0.294375,-0.082 -0.396293,-0.1824 -0.235664,-0.23191 -2.753624,-2.59628 -2.753624,-2.73571 v -1.23457 c 0,-0.13118 0.107315,-0.2385 0.238495,-0.2385 z m -2.275734,0.0519 h 1.165278 c 0.160285,0 0.291307,0.13102 0.291307,0.29128 v 3.73862 c 0,0.16025 -0.131022,0.2913 -0.291307,0.2913 h -1.165278 c -0.160284,0 -0.291306,-0.13105 -0.291306,-0.2913 v -3.73862 c 0,-0.16026 0.131022,-0.29128 0.291306,-0.29128 z m -3.447229,4.22407 h -1.165278 c -0.160258,0 -0.291281,-0.13102 -0.291281,-0.2913 v -5.14914 c 0,-0.0975 0.503608,-1.30828 1.456559,-1.30828 h 8.642322 c 0.702522,0 1.386232,0.70297 1.602238,1.65073 h -9.953255 v 4.80669 c 0,0.16028 -0.131022,0.2913 -0.291305,0.2913 z m -4.321122,-6.7002 h 1.796415 c 0.160258,0 0.291279,0.13102 0.291279,0.29131 v 1.06815 c 0,0.16026 -0.131021,0.29128 -0.291279,0.29128 h -1.796415 c -0.160259,0 -0.291307,-0.13102 -0.291307,-0.29128 v -1.06815 c 0,-0.16029 0.131048,-0.29131 0.291307,-0.29131 z"
       style="fill:none;stroke:#ffffff;stroke-width:0.13229166;stroke-linecap:butt;stroke-linejoin:miter;stroke-dasharray:none"
       id="path238"
       inkscape:connector-curvature="0" />
    <path
       d="m 19.705834,288.86426 v -1.37692 h 0.182695 v 1.21438 h 0.677625 v 0.16254 z m 4.959694,0 v -1.37692 h 0.995389 v 0.16251 h -0.814202 v 0.42187 h 0.762159 v 0.16103 h -0.762159 v 0.46897 h 0.845635 v 0.16254 z m 5.800328,-0.5397 v -0.16253 h 0.582904 v 0.51075 c -0.179256,0.14287 -0.369306,0.21458 -0.569622,0.21458 -0.110463,0 -0.20865,-0.0157 -0.294137,-0.0466 -0.08588,-0.0314 -0.158565,-0.0781 -0.218043,-0.14047 -0.0594,-0.0623 -0.106495,-0.13845 -0.140388,-0.22786 -0.03389,-0.0899 -0.05109,-0.18661 -0.05109,-0.29017 0,-0.20873 0.0594,-0.38108 0.177773,-0.51562 0.118348,-0.13456 0.28874,-0.20227 0.511202,-0.20227 0.310779,0 0.498898,0.1365 0.564224,0.40852 l -0.164042,0.0447 c -0.05744,-0.19835 -0.190579,-0.2976 -0.39878,-0.2976 -0.160046,0 -0.283792,0.0482 -0.371157,0.14536 -0.08694,0.0968 -0.130652,0.23175 -0.130652,0.40561 0,0.19447 0.04911,0.33539 0.147294,0.42233 0.09824,0.0869 0.217567,0.13012 0.357531,0.13012 0.160047,0 0.294138,-0.0476 0.401611,-0.14243 v -0.25635 z m 4.578244,0.5397 0.529352,-1.37692 h 0.195898 l 0.563694,1.37692 h -0.20865 l -0.159597,-0.41738 h -0.575548 l -0.150759,0.41738 z m 0.397272,-0.56521 h 0.467466 l -0.143933,-0.38153 c -0.04808,-0.12771 -0.08054,-0.22243 -0.09771,-0.28485 -0.01717,0.0884 -0.04223,0.17582 -0.07509,0.26176 z m 5.897086,0.082 0.182642,0.0457 c -0.07853,0.30689 -0.269107,0.46064 -0.57105,0.46064 -0.221483,0 -0.384545,-0.0692 -0.489162,-0.20776 -0.104536,-0.13895 -0.157109,-0.31035 -0.157109,-0.51456 0,-0.23183 0.06239,-0.40666 0.187113,-0.52448 0.124725,-0.11737 0.278924,-0.17624 0.462069,-0.17624 0.284771,0 0.465984,0.13348 0.543612,0.40018 l -0.178276,0.0432 c -0.06136,-0.19201 -0.184123,-0.28779 -0.368247,-0.28779 -0.148802,0 -0.262281,0.0476 -0.341339,0.14386 -0.07853,0.0958 -0.117819,0.22989 -0.117819,0.40126 0,0.19836 0.04268,0.34274 0.127212,0.4326 0.08488,0.0893 0.19095,0.13401 0.317156,0.13401 0.218043,0 0.352134,-0.11684 0.403198,-0.35063 z m 4.671378,0.48324 v -0.58291 l -0.530781,-0.79401 h 0.221404 l 0.272097,0.41595 c 0.04268,0.0653 0.08932,0.14243 0.139436,0.23175 0.05355,-0.0923 0.103637,-0.17333 0.149251,-0.24307 l 0.267679,-0.40463 h 0.21164 l -0.549513,0.79401 v 0.58291 z"
       style="fill:#01ffff;fill-rule:evenodd;stroke-width:0.26458332"
       id="path240"
       inkscape:connector-curvature="0" />
  </g>
</svg>
