<?xml version="1.0" standalone="no"?><!-- Generator: Gravit.io --><svg xmlns="http://www.w3.org/2000/svg" xmlns:xlink="http://www.w3.org/1999/xlink" style="isolation:isolate" viewBox="0 0 256 256" width="256" height="256"><defs><clipPath id="_clipPath_xur5l7HHlJeBK6xy6hzbg2N1K1Hen0K5"><rect width="256" height="256"/></clipPath></defs><g clip-path="url(#_clipPath_xur5l7HHlJeBK6xy6hzbg2N1K1Hen0K5)"><rect width="256" height="256" style="fill:rgba(0,0,0,0)"/><g id="icon"><g id="drop shadow"><defs><filter id="JqvPkLIjSnD7VWBkao9gjEhrSBBIUKeh" x="-200%" y="-200%" width="400%" height="400%"><feGaussianBlur xmlns="http://www.w3.org/2000/svg" stdDeviation="2.32"/></filter></defs><g opacity="0.2" filter="url(#JqvPkLIjSnD7VWBkao9gjEhrSBBIUKeh)"><path d=" M 165.685 15.849 C 239.741 15.849 250.325 26.407 250.325 100.394 L 250.325 159.645 C 250.325 233.632 239.741 244.189 165.685 244.189 L 90.315 244.189 C 16.259 244.189 5.675 233.632 5.675 159.645 L 5.675 100.394 C 5.675 26.407 16.259 15.849 90.315 15.849 L 165.685 15.849 Z " fill="rgb(0,0,0)"/></g><defs><filter id="qYFBRLeEdcMdqBGEHpqyggVouAtJi8Lj" x="-200%" y="-200%" width="400%" height="400%"><feGaussianBlur xmlns="http://www.w3.org/2000/svg" stdDeviation="1.16"/></filter></defs><g opacity="0.1" filter="url(#qYFBRLeEdcMdqBGEHpqyggVouAtJi8Lj)"><path d=" M 165.685 14.83 C 239.741 14.83 250.325 25.387 250.325 99.374 L 250.325 158.626 C 250.325 232.612 239.741 243.17 165.685 243.17 L 90.315 243.17 C 16.259 243.17 5.675 232.612 5.675 158.626 L 5.675 99.374 C 5.675 25.387 16.259 14.83 90.315 14.83 L 165.685 14.83 Z " fill="rgb(0,0,0)"/></g></g><path d=" M 165.685 13.811 C 239.741 13.811 250.325 24.368 250.325 98.355 L 250.325 157.606 C 250.325 231.593 239.741 242.151 165.685 242.151 L 90.315 242.151 C 16.259 242.151 5.675 231.593 5.675 157.606 L 5.675 98.355 C 5.675 24.368 16.259 13.811 90.315 13.811 L 165.685 13.811 Z " fill="rgb(255,255,255)"/><clipPath id="_clipPath_jKtsmU38bZiUoA8ibpTkiKyOKif6sdIN"><path d=" M 165.685 13.811 C 239.741 13.811 250.325 24.368 250.325 98.355 L 250.325 157.606 C 250.325 231.593 239.741 242.151 165.685 242.151 L 90.315 242.151 C 16.259 242.151 5.675 231.593 5.675 157.606 L 5.675 98.355 C 5.675 24.368 16.259 13.811 90.315 13.811 L 165.685 13.811 Z " fill="rgb(255,255,255)"/></clipPath><g clip-path="url(#_clipPath_jKtsmU38bZiUoA8ibpTkiKyOKif6sdIN)"><path d=" M 165.685 13.811 C 239.741 13.811 250.325 24.368 250.325 98.355 L 250.325 157.606 C 250.325 231.593 239.741 242.151 165.685 242.151 L 90.315 242.151 C 16.259 242.151 5.675 231.593 5.675 157.606 L 5.675 98.355 C 5.675 24.368 16.259 13.811 90.315 13.811 L 165.685 13.811 Z " fill="rgb(35,77,184)"/><g id="holds"><g opacity="0.1"><rect x="88.225" y="12.997" width="81.549" height="228.338" transform="matrix(1,0,0,1,0,0)" fill="rgb(255,255,255)"/></g><g opacity="0.1"><path d=" M 6.676 127.167 L 6.676 156.792 C 6.676 230.778 17.26 241.336 91.315 241.336 L 166.685 241.336 C 240.74 241.336 251.324 230.778 251.324 156.792 L 251.324 127.167 L 6.676 127.167 Z " fill="rgb(255,255,255)"/></g></g><g id="g37" filter="url(#VRWfs84u1WxDLSW7PbM4PAtHIAHPo7cQ)"><g id="g39"><g id="g41"><path d=" M 164.012 192.193 L 127.735 89.109 L 91.65 192.193 L 73.667 192.193 L 119.639 64.162 L 136.047 64.162 L 182 192.193 L 164.017 192.193" fill="rgb(255,255,255)"/><path d=" M 143.586 133.102 C 137.721 131.428 131.275 131.93 125.736 134.446 C 120.216 136.987 115.562 141.734 113.888 148.313 C 112.888 152.331 113.272 156.659 115.02 160.392 C 116.788 164.144 120.078 167.335 124.598 168.374 C 127.252 168.97 130.079 168.645 132.541 167.394 C 135.023 166.163 137.194 163.78 137.79 160.604 C 138.135 158.777 137.869 156.911 137.002 155.197 C 136.096 153.503 134.368 151.947 132.098 151.602 C 130.808 151.41 129.577 151.642 128.405 152.316 C 127.213 152.991 126.041 154.394 125.883 156.142 L 131.925 156.719 C 131.886 157.142 131.502 157.585 131.389 157.659 C 131.256 157.738 131.349 157.698 131.216 157.679 C 131.408 157.718 131.448 157.738 131.62 158.083 C 131.812 158.427 131.911 159.062 131.832 159.466 C 131.62 160.584 130.965 161.352 129.852 161.909 C 128.72 162.445 127.159 162.623 125.928 162.391 C 123.367 161.795 121.639 160.141 120.521 157.758 C 119.403 155.409 119.137 152.39 119.772 149.854 C 120.964 145.181 124.101 141.951 128.257 140.045 C 132.413 138.139 137.509 137.736 141.951 139.006 C 154.838 142.66 161.845 156.955 160.127 170.093 L 166.149 170.881 C 168.187 155.029 159.821 137.721 143.586 133.102 Z " fill="rgb(255,255,255)"/></g></g></g><defs><filter id="VRWfs84u1WxDLSW7PbM4PAtHIAHPo7cQ" x="-200%" y="-200%" width="400%" height="400%"><feOffset xmlns="http://www.w3.org/2000/svg" in="SourceAlpha" result="offOut" dx="0" dy="2"/><feGaussianBlur xmlns="http://www.w3.org/2000/svg" in="offOut" result="blurOut" stdDeviation="5"/><feComponentTransfer xmlns="http://www.w3.org/2000/svg" in="blurOut" result="opacOut"><feFuncA xmlns="http://www.w3.org/2000/svg" type="table" tableValues="0 0.5"/></feComponentTransfer><feBlend xmlns="http://www.w3.org/2000/svg" in="SourceGraphic" in2="opacOut" mode="normal"/></filter></defs></g><g id="highlight"><clipPath id="_clipPath_kBsyuTnKEeORDQrtO1WA64KAhJ7oSN5y"><path d=" M 165.685 13.811 C 239.741 13.811 250.325 24.368 250.325 98.355 L 250.325 157.606 C 250.325 231.593 239.741 242.151 165.685 242.151 L 90.315 242.151 C 16.259 242.151 5.675 231.593 5.675 157.606 L 5.675 98.355 C 5.675 24.368 16.259 13.811 90.315 13.811 L 165.685 13.811 Z " fill="rgb(255,255,255)"/></clipPath><g clip-path="url(#_clipPath_kBsyuTnKEeORDQrtO1WA64KAhJ7oSN5y)"><g opacity="0.4"><linearGradient id="_lgradient_47" x1="51.666666666666686%" y1="0%" x2="51.66666666666666%" y2="100.00000000000003%"><stop offset="0%" stop-opacity="1" style="stop-color:rgb(255,255,255)"/><stop offset="12.5%" stop-opacity="0.09803922" style="stop-color:rgb(255,255,255)"/><stop offset="92.500001%" stop-opacity="0.09803922" style="stop-color:rgb(0,0,0)"/><stop offset="100%" stop-opacity="0.49803922" style="stop-color:rgb(0,0,0)"/></linearGradient><path d=" M 165.685 13.811 C 239.741 13.811 250.325 24.368 250.325 98.355 L 250.325 157.606 C 250.325 231.593 239.741 242.151 165.685 242.151 L 90.315 242.151 C 16.259 242.151 5.675 231.593 5.675 157.606 L 5.675 98.355 C 5.675 24.368 16.259 13.811 90.315 13.811 L 165.685 13.811 Z " fill="none" vector-effect="non-scaling-stroke" stroke-width="4" stroke="url(#_lgradient_47)" stroke-linejoin="round" stroke-linecap="round" stroke-miterlimit="4"/></g></g></g></g></g></svg>