<svg xmlns="http://www.w3.org/2000/svg" style="isolation:isolate" width="256" height="256"><defs><filter id="a" x="-200%" y="-200%" width="400%" height="400%" filterUnits="objectBoundingBox" color-interpolation-filters="sRGB"><feGaussianBlur xmlns="http://www.w3.org/2000/svg" in="SourceGraphic" stdDeviation="4.294"/><feOffset xmlns="http://www.w3.org/2000/svg" dy="4" result="pf_100_offsetBlur"/><feFlood xmlns="http://www.w3.org/2000/svg" flood-color="#000" flood-opacity=".4"/><feComposite xmlns="http://www.w3.org/2000/svg" in2="pf_100_offsetBlur" operator="in" result="pf_100_dropShadow"/><feBlend xmlns="http://www.w3.org/2000/svg" in="SourceGraphic" in2="pf_100_dropShadow"/></filter></defs><path d="M165.685 11.947c74.055 0 84.639 10.557 84.639 84.544v59.251c0 73.986-10.584 84.543-84.639 84.543h-75.37c-74.055 0-84.639-10.557-84.639-84.543V96.491c0-73.987 10.584-84.544 84.639-84.544h75.37z" fill="#1463A5" filter="url(#a)"/><path d="M5.676 126.116v29.626c0 73.986 10.584 84.543 84.639 84.543h75.37c74.055 0 84.639-10.557 84.639-84.543v-29.626H5.676z" fill="#FFF" opacity=".1"/><path d="M111.46 102.37H80.313l-5.922 17.766H55.5l32.096-86.221h16.462l32.274 86.221h-18.891l-5.981-17.766zM85.108 87.981h21.556L95.826 55.708 85.108 87.981zm95.282 32.155c-.791-1.54-1.362-3.454-1.717-5.744-4.145 4.618-9.535 6.928-16.167 6.928-6.277 0-11.478-1.815-15.603-5.448-4.126-3.632-6.188-8.211-6.188-13.739 0-6.789 2.517-12.001 7.55-15.633 5.034-3.632 12.307-5.468 21.821-5.507h7.876v-3.672c0-2.961-.761-5.329-2.279-7.106-1.52-1.777-3.918-2.664-7.195-2.664-2.882 0-5.142.691-6.78 2.072-1.639 1.382-2.458 3.277-2.458 5.685h-17.114c0-3.711 1.145-7.144 3.435-10.303 2.289-3.159 5.526-5.636 9.711-7.432 4.184-1.796 8.883-2.695 14.094-2.695 7.895 0 14.163 1.984 18.801 5.951 4.639 3.968 6.958 9.544 6.958 16.729v27.773c.04 6.08.889 10.679 2.547 13.798v1.006H180.39v.001zm-14.154-11.903c2.526 0 4.856-.562 6.988-1.687 2.132-1.126 3.711-2.635 4.737-4.53V91.002h-6.395c-8.567 0-13.127 2.96-13.679 8.882l-.059 1.007c0 2.132.749 3.888 2.25 5.27 1.5 1.382 3.553 2.072 6.158 2.072zM87.74 169.312c0-1.56-.075-3.196-.297-4.758h3.865c3.716-1.932 6.541-3.865 9.217-6.317H77.259c-3.344 0-5.426.147-7.731.445v-8.101c2.156.296 4.311.371 7.731.371h27.131c2.824 0 4.237-.075 5.723-.298l3.939 4.98c-1.933 1.635-1.933 1.635-2.973 2.528-5.574 4.832-9.812 7.954-15.238 11.076v.52h19.623c3.568 0 6.616-.149 9.068-.446v8.399c-2.379-.297-5.649-.444-9.068-.444H95.841v13.08c0 6.393-2.452 8.4-10.555 8.4-2.528 0-5.351-.149-8.994-.445-.445-2.899-.743-3.866-2.378-7.88 3.791.52 7.804.892 10.406.892 2.602 0 3.419-.518 3.419-2.007v-12.04H67.298c-3.419 0-6.542.147-9.068.444v-8.399c2.676.297 5.649.446 9.068.446h20.441l.001-.446zm-1.189-32.853c0-2.232-.075-3.867-.372-5.649h9.068c-.297 1.708-.371 3.344-.371 5.649v1.633h20.292c3.792 0 5.649-.074 8.474-.296-.224 1.857-.298 3.42-.298 5.872v6.021c0 2.081.149 3.865.372 5.649h-8.176v-9.886H67.225v9.886h-8.176c.297-1.71.371-3.346.371-5.649v-6.021c0-2.378-.074-4.087-.371-5.872 2.824.222 4.831.296 8.548.296h18.954v-1.633zm73.362 49.726c-4.758 4.162-7.284 5.947-11.373 8.251-4.089 2.305-6.764 3.495-12.191 5.277-1.933-3.789-2.973-5.128-5.5-7.581 5.575-1.263 8.251-2.156 12.116-4.013 3.94-1.858 6.169-3.42 10.481-6.913l6.467 4.979zm-5.5-48.166c0-3.567-.075-4.979-.446-6.763h8.325c-.371 2.007-.445 3.197-.445 6.837v1.859h8.622v-1.859c0-3.79-.075-5.053-.446-6.837h8.4c-.446 2.156-.52 3.42-.52 6.763v1.934h9.663c3.568 0 5.724-.075 7.285-.224-.223 1.561-.298 3.495-.298 6.319v27.206c2.825-.076 4.014-.149 5.947-.447v8.475c-2.379-.298-5.054-.447-8.771-.447h-51.213c-3.643 0-6.467.149-8.697.447v-8.475c1.933.298 3.121.371 5.872.447v-27.28c0-2.603-.074-4.385-.297-6.245 2.156.149 4.014.224 7.21.224h9.811v-1.934h-.002zm0 9.292h-8.697v8.92h8.697v-8.92zm0 16.056h-8.697v9.886h8.697v-9.886zm16.055-7.136v-8.92h-8.622v8.92h8.622zm0 17.022v-9.886h-8.622v9.886h8.622zm6.243 7.952c4.238 3.271 6.393 4.608 10.258 6.466 4.46 2.156 7.508 3.198 13.528 4.535-2.378 2.972-2.899 3.791-4.832 7.879-5.797-1.709-8.919-3.046-13.454-5.574-4.088-2.305-6.54-4.014-11.521-8.176l6.021-5.13zm9.812-24.974v-8.92h-8.622v8.92h8.622zm0 17.022v-9.886h-8.622v9.886h8.622z" fill="#FFF"/><g opacity=".4"><linearGradient id="b" x1=".517" x2=".517" y2="1" gradientTransform="matrix(244.65 0 0 228.34 5.68 11.95)" gradientUnits="userSpaceOnUse"><stop offset="0%" stop-color="#fff"/><stop offset="12.5%" stop-opacity=".098" stop-color="#fff"/><stop offset="92.5%" stop-opacity=".098"/><stop offset="100%" stop-opacity=".498"/></linearGradient><path d="M165.068 11.951c4.328-.01 8.656.04 12.984.138 3.875.078 7.75.226 11.626.452 3.453.196 6.905.481 10.348.854 3.06.335 6.118.786 9.148 1.346a80.47 80.47 0 0 1 8.046 1.916 53.64 53.64 0 0 1 7.023 2.584 40.413 40.413 0 0 1 6.06 3.35 35.176 35.176 0 0 1 5.134 4.215 35.072 35.072 0 0 1 4.22 5.119 41.692 41.692 0 0 1 3.363 6.042 55.982 55.982 0 0 1 2.597 7.005 80.224 80.224 0 0 1 1.918 8.037 124.43 124.43 0 0 1 1.348 9.127c.374 3.439.659 6.878.856 10.326.226 3.861.373 7.732.462 11.593.088 4.323.138 8.646.128 12.96v58.21c.01 4.324-.04 8.637-.128 12.96a325.177 325.177 0 0 1-.462 11.593 200.984 200.984 0 0 1-.856 10.326 124.691 124.691 0 0 1-1.348 9.137 80.687 80.687 0 0 1-1.918 8.027 55.414 55.414 0 0 1-2.597 7.005 41.18 41.18 0 0 1-3.364 6.042 34.559 34.559 0 0 1-4.22 5.119 35.177 35.177 0 0 1-5.134 4.215 40.412 40.412 0 0 1-6.059 3.35 55.138 55.138 0 0 1-7.023 2.594 77.806 77.806 0 0 1-8.046 1.906 120 120 0 0 1-9.148 1.346c-3.443.373-6.895.658-10.348.854-3.875.226-7.75.374-11.626.462-4.328.088-8.656.138-12.984.128H90.942c-4.328.01-8.656-.04-12.984-.128a328.387 328.387 0 0 1-11.626-.462 203.003 203.003 0 0 1-10.348-.854 120 120 0 0 1-9.148-1.346 77.806 77.806 0 0 1-8.046-1.906 55.139 55.139 0 0 1-7.023-2.594 40.413 40.413 0 0 1-6.06-3.35 35.176 35.176 0 0 1-5.134-4.215 34.56 34.56 0 0 1-4.22-5.119 41.183 41.183 0 0 1-3.363-6.042 55.415 55.415 0 0 1-2.597-7.005 80.682 80.682 0 0 1-1.918-8.027 124.688 124.688 0 0 1-1.348-9.137 200.993 200.993 0 0 1-.856-10.326 325.212 325.212 0 0 1-.462-11.593 569.197 569.197 0 0 1-.128-12.96v-58.21c-.01-4.314.04-8.637.128-12.96.089-3.86.236-7.732.462-11.593.197-3.448.482-6.887.856-10.326.335-3.055.787-6.101 1.348-9.127a80.219 80.219 0 0 1 1.918-8.037 55.983 55.983 0 0 1 2.597-7.005 41.695 41.695 0 0 1 3.364-6.042 35.072 35.072 0 0 1 4.22-5.119 35.176 35.176 0 0 1 5.134-4.215 40.413 40.413 0 0 1 6.059-3.35 53.64 53.64 0 0 1 7.023-2.584 80.47 80.47 0 0 1 8.046-1.916 125.11 125.11 0 0 1 9.148-1.346c3.443-.373 6.895-.658 10.348-.854 3.875-.226 7.75-.374 11.626-.452 4.328-.098 8.656-.148 12.984-.138h74.126zm.01 4.009c4.298-.01 8.597.039 12.895.127 3.827.089 7.653.236 11.48.452 3.383.197 6.766.472 10.13.845 2.971.315 5.932.747 8.863 1.297a75.943 75.943 0 0 1 7.653 1.818 50.493 50.493 0 0 1 6.501 2.397 37.038 37.038 0 0 1 5.47 3.026 30.383 30.383 0 0 1 4.524 3.724 31.05 31.05 0 0 1 3.738 4.519 37.271 37.271 0 0 1 3.03 5.443 51.46 51.46 0 0 1 2.4 6.494 75.563 75.563 0 0 1 1.829 7.634c.54 2.928.974 5.875 1.298 8.842.374 3.36.65 6.73.846 10.11.217 3.822.374 7.634.453 11.456.088 4.293.137 8.577.137 12.87v58.212c0 4.293-.049 8.577-.137 12.87a317.503 317.503 0 0 1-.453 11.456c-.196 3.38-.472 6.75-.846 10.12a121.689 121.689 0 0 1-1.298 8.832 75.562 75.562 0 0 1-1.83 7.634 50.902 50.902 0 0 1-2.4 6.494 36.767 36.767 0 0 1-3.03 5.443 30.615 30.615 0 0 1-3.737 4.53 30.938 30.938 0 0 1-4.525 3.713 37.038 37.038 0 0 1-5.469 3.026 49.07 49.07 0 0 1-6.501 2.397 75.942 75.942 0 0 1-7.653 1.818c-2.931.55-5.892.982-8.863 1.306-3.364.364-6.747.649-10.13.836-3.827.216-7.653.373-11.48.452-4.298.098-8.597.137-12.895.137H90.932c-4.298 0-8.597-.04-12.895-.137a320.093 320.093 0 0 1-11.48-.452 193.696 193.696 0 0 1-10.13-.836 116.71 116.71 0 0 1-8.863-1.306 75.942 75.942 0 0 1-7.653-1.818 49.07 49.07 0 0 1-6.501-2.397 37.038 37.038 0 0 1-5.47-3.026 30.938 30.938 0 0 1-4.524-3.714 30.615 30.615 0 0 1-3.738-4.529 36.766 36.766 0 0 1-3.03-5.443 50.903 50.903 0 0 1-2.4-6.494 75.567 75.567 0 0 1-1.829-7.634 121.69 121.69 0 0 1-1.298-8.832c-.374-3.37-.65-6.74-.846-10.12a317.535 317.535 0 0 1-.453-11.456 623.851 623.851 0 0 1-.137-12.87V97.014c0-4.293.049-8.577.137-12.87.079-3.822.236-7.634.453-11.456.197-3.38.472-6.75.846-10.11.324-2.967.757-5.914 1.298-8.842a75.568 75.568 0 0 1 1.83-7.634 51.46 51.46 0 0 1 2.4-6.494 37.27 37.27 0 0 1 3.03-5.443 31.05 31.05 0 0 1 3.737-4.52 30.384 30.384 0 0 1 4.525-3.723 37.039 37.039 0 0 1 5.469-3.026 50.494 50.494 0 0 1 6.501-2.397 75.943 75.943 0 0 1 7.653-1.818c2.931-.55 5.892-.982 8.863-1.297 3.364-.373 6.747-.648 10.13-.845a344.71 344.71 0 0 1 11.48-.452c4.298-.088 8.597-.137 12.895-.127H165.078z" fill-rule="evenodd" fill="url(#b)"/></g></svg>