<?xml version="1.0" standalone="no"?><!-- Generator: Gravit.io --><svg xmlns="http://www.w3.org/2000/svg" xmlns:xlink="http://www.w3.org/1999/xlink" style="isolation:isolate" viewBox="0 0 256 256" width="256" height="256"><defs><clipPath id="_clipPath_ckOuL6YcHXO7D34E9SpSfSMQZHsXEbny"><rect width="256" height="256"/></clipPath></defs><g clip-path="url(#_clipPath_ckOuL6YcHXO7D34E9SpSfSMQZHsXEbny)"><rect width="256" height="256" style="fill:rgba(0,0,0,0)"/><g id="icon"><g id="drop shadow"><defs><filter id="hHDRLMFC366Ch1rsNmDPC9Xl5AFrYd7d" x="-200%" y="-200%" width="400%" height="400%"><feGaussianBlur xmlns="http://www.w3.org/2000/svg" stdDeviation="2.32"/></filter></defs><g opacity="0.2" filter="url(#hHDRLMFC366Ch1rsNmDPC9Xl5AFrYd7d)"><path d=" M 165.685 15.849 C 239.741 15.849 250.325 26.407 250.325 100.394 L 250.325 159.645 C 250.325 233.632 239.741 244.189 165.685 244.189 L 90.315 244.189 C 16.259 244.189 5.675 233.632 5.675 159.645 L 5.675 100.394 C 5.675 26.407 16.259 15.849 90.315 15.849 L 165.685 15.849 Z " fill="rgb(0,0,0)"/></g><defs><filter id="uxZBHdEXL2ZvHHBobvVp9s1Kd7duUgQa" x="-200%" y="-200%" width="400%" height="400%"><feGaussianBlur xmlns="http://www.w3.org/2000/svg" stdDeviation="1.16"/></filter></defs><g opacity="0.1" filter="url(#uxZBHdEXL2ZvHHBobvVp9s1Kd7duUgQa)"><path d=" M 165.685 14.83 C 239.741 14.83 250.325 25.387 250.325 99.374 L 250.325 158.626 C 250.325 232.612 239.741 243.17 165.685 243.17 L 90.315 243.17 C 16.259 243.17 5.675 232.612 5.675 158.626 L 5.675 99.374 C 5.675 25.387 16.259 14.83 90.315 14.83 L 165.685 14.83 Z " fill="rgb(0,0,0)"/></g></g><path d=" M 165.685 13.811 C 239.741 13.811 250.325 24.368 250.325 98.355 L 250.325 157.606 C 250.325 231.593 239.741 242.151 165.685 242.151 L 90.315 242.151 C 16.259 242.151 5.675 231.593 5.675 157.606 L 5.675 98.355 C 5.675 24.368 16.259 13.811 90.315 13.811 L 165.685 13.811 Z " fill="rgb(255,255,255)"/><clipPath id="_clipPath_p9EXfRoPrPXnQkIqri97DYOJ0Hc9tuDm"><path d=" M 165.685 13.811 C 239.741 13.811 250.325 24.368 250.325 98.355 L 250.325 157.606 C 250.325 231.593 239.741 242.151 165.685 242.151 L 90.315 242.151 C 16.259 242.151 5.675 231.593 5.675 157.606 L 5.675 98.355 C 5.675 24.368 16.259 13.811 90.315 13.811 L 165.685 13.811 Z " fill="rgb(255,255,255)"/></clipPath><g clip-path="url(#_clipPath_p9EXfRoPrPXnQkIqri97DYOJ0Hc9tuDm)"><path d=" M 165.685 13.811 C 239.741 13.811 250.325 24.368 250.325 98.355 L 250.325 157.606 C 250.325 231.593 239.741 242.151 165.685 242.151 L 90.315 242.151 C 16.259 242.151 5.675 231.593 5.675 157.606 L 5.675 98.355 C 5.675 24.368 16.259 13.811 90.315 13.811 L 165.685 13.811 Z " fill="rgb(247,247,247)"/></g><g id="highlight"><clipPath id="_clipPath_gwlnHDeBx1pPnElrv8khPMW1rIwZqrjx"><path d=" M 165.685 13.811 C 239.741 13.811 250.325 24.368 250.325 98.355 L 250.325 157.606 C 250.325 231.593 239.741 242.151 165.685 242.151 L 90.315 242.151 C 16.259 242.151 5.675 231.593 5.675 157.606 L 5.675 98.355 C 5.675 24.368 16.259 13.811 90.315 13.811 L 165.685 13.811 Z " fill="rgb(255,255,255)"/></clipPath><g clip-path="url(#_clipPath_gwlnHDeBx1pPnElrv8khPMW1rIwZqrjx)"><g opacity="0.4"><linearGradient id="_lgradient_57" x1="51.666666666666686%" y1="0%" x2="51.66666666666666%" y2="100.00000000000003%"><stop offset="0%" stop-opacity="1" style="stop-color:rgb(255,255,255)"/><stop offset="12.5%" stop-opacity="0.09803922" style="stop-color:rgb(255,255,255)"/><stop offset="92.500001%" stop-opacity="0.09803922" style="stop-color:rgb(0,0,0)"/><stop offset="100%" stop-opacity="0.49803922" style="stop-color:rgb(0,0,0)"/></linearGradient><path d=" M 165.685 13.811 C 239.741 13.811 250.325 24.368 250.325 98.355 L 250.325 157.606 C 250.325 231.593 239.741 242.151 165.685 242.151 L 90.315 242.151 C 16.259 242.151 5.675 231.593 5.675 157.606 L 5.675 98.355 C 5.675 24.368 16.259 13.811 90.315 13.811 L 165.685 13.811 Z " fill="none" vector-effect="non-scaling-stroke" stroke-width="4" stroke="url(#_lgradient_57)" stroke-linejoin="round" stroke-linecap="round" stroke-miterlimit="4"/></g></g></g></g><g id="pictogram"><path d=" M 105.895 110.28 C 105.455 110.665 105.02 111.05 104.595 111.47 C 94.705 121.275 93.615 136.57 101.305 147.63 L 68.005 180.93 L 75.075 188 L 108.355 154.68 C 119.335 162.325 134.525 161.335 144.36 151.565 L 105.895 110.275 L 105.895 110.28 Z " fill="rgb(26,127,212)"/><path d=" M 180.945 68 L 147.635 101.27 C 136.665 93.63 121.47 94.65 111.64 104.415 L 150.105 145.725 C 150.565 145.34 150.985 144.935 151.425 144.515 C 161.295 134.715 162.39 119.415 154.705 108.365 L 187.995 75.055 L 180.945 68.005" fill="rgb(253,201,43)"/></g></g></svg>