<svg xmlns="http://www.w3.org/2000/svg" style="isolation:isolate" width="256" height="256"><switch><g><defs><filter id="a" width="270.648" height="254.338" x="-7.32" y="2.95" filterUnits="userSpaceOnUse"><feGaussianBlur xmlns="http://www.w3.org/2000/svg" in="SourceGraphic" stdDeviation="4.294"/><feOffset xmlns="http://www.w3.org/2000/svg" dy="4" result="pf_100_offsetBlur"/><feFlood xmlns="http://www.w3.org/2000/svg" flood-opacity=".4"/><feComposite xmlns="http://www.w3.org/2000/svg" in2="pf_100_offsetBlur" operator="in" result="pf_100_dropShadow"/><feBlend xmlns="http://www.w3.org/2000/svg" in="SourceGraphic" in2="pf_100_dropShadow"/></filter></defs><g filter="url(#a)"><linearGradient id="b" x1=".233" x2=".933" y1="-.071" y2=".995" gradientTransform="matrix(244.648 0 0 228.338 5.676 11.947)" gradientUnits="userSpaceOnUse"><stop offset="0%" stop-color="#e8e8e8"/><stop offset="100%" stop-color="#f5f5f5"/></linearGradient><path fill="url(#b)" d="M165.685 11.947c74.055 0 84.639 10.557 84.639 84.544v59.251c0 73.986-10.584 84.543-84.639 84.543h-75.37c-74.055 0-84.639-10.557-84.639-84.543V96.491c0-73.987 10.584-84.544 84.639-84.544h75.37z"/></g><path fill="#F47323" d="M163.953 186.615l36.547 10.994-11.588-44.273-24.959 33.279z"/><circle fill="#F47323" r="1" transform="translate(126.96 125.851) scale(71.46)" vector-effect="non-scaling-stroke"/><path fill="#FFF" fill-rule="evenodd" d="M91.332 141.306q2.374 0 4.208-.108 1.835-.108 3.058-.396V129.65q-.719-.36-2.338-.611-1.619-.252-3.921-.252-1.511 0-3.202.216t-3.093.899q-1.403.684-2.339 1.871-.935 1.187-.935 3.129 0 3.598 2.302 5.001 2.303 1.403 6.26 1.403zm-.576-33.528q4.029 0 6.799 1.044 2.77 1.043 4.461 2.949 1.69 1.907 2.41 4.533.719 2.626.719 5.792v23.382q-.863.144-2.41.396-1.547.252-3.489.468-1.943.216-4.209.396-2.266.179-4.497.179-3.165 0-5.827-.647-2.663-.648-4.605-2.051-1.943-1.403-3.022-3.705-1.079-2.302-1.079-5.54 0-3.093 1.259-5.324 1.259-2.23 3.418-3.597 2.158-1.367 5.036-2.015 2.878-.647 6.043-.647 1.008 0 2.087.108 1.079.108 2.05.288.972.179 1.691.323.719.144 1.007.216v-1.87q0-1.655-.36-3.274-.359-1.619-1.295-2.878-.935-1.259-2.554-2.014-1.618-.756-4.209-.756-3.309 0-5.791.468-2.482.467-3.705.971l-.792-5.54q1.295-.575 4.317-1.115 3.022-.54 6.547-.54zm34.175 33.528q4.101 0 6.079-1.08 1.979-1.079 1.979-3.453 0-2.446-1.943-3.885-1.942-1.439-6.403-3.238-2.158-.863-4.137-1.762-1.979-.9-3.417-2.123-1.439-1.223-2.303-2.95-.863-1.726-.863-4.245 0-4.964 3.669-7.878 3.669-2.914 10.001-2.914 1.583 0 3.165.18 1.583.18 2.95.432 1.367.252 2.41.54 1.044.287 1.619.503l-1.223 5.756q-1.079-.576-3.381-1.187-2.303-.612-5.54-.612-2.806 0-4.893 1.115-2.086 1.116-2.086 3.49 0 1.223.468 2.158.467.936 1.438 1.691.972.755 2.411 1.403 1.439.647 3.453 1.367 2.662 1.007 4.749 1.978 2.086.972 3.561 2.267t2.266 3.129q.792 1.835.792 4.497 0 5.18-3.849 7.842-3.85 2.662-10.972 2.662-4.965 0-7.771-.827-2.805-.827-3.813-1.259l1.223-5.756q1.152.432 3.67 1.295 2.518.864 6.691.864zm36.908-15.757q2.159 1.655 4.569 4.101 2.41 2.446 4.748 5.288 2.339 2.842 4.425 5.756 2.087 2.914 3.526 5.432h-7.843q-1.511-2.518-3.489-5.144-1.979-2.626-4.137-5.036-2.158-2.411-4.389-4.425-2.23-2.015-4.245-3.382v17.987h-6.691V91.447l6.691-1.152v34.103l3.814-3.813q2.086-2.087 4.101-4.245 2.014-2.158 3.813-4.137 1.798-1.978 3.093-3.489h7.843q-1.655 1.798-3.598 3.957-1.942 2.158-4.029 4.353-2.086 2.194-4.209 4.388-2.122 2.195-3.993 4.137z"/><g opacity=".4"><linearGradient id="c" x1=".517" x2=".517" y2="1"><stop offset="0%" stop-color="#fff"/><stop offset="12.5%" stop-opacity=".098" stop-color="#fff"/><stop offset="92.5%" stop-opacity=".098"/><stop offset="100%" stop-opacity=".498"/></linearGradient><path fill="none" stroke="url(#c)" stroke-linecap="round" stroke-linejoin="round" stroke-width="4.077" d="M165.685 11.947c74.055 0 84.639 10.557 84.639 84.544v59.251c0 73.986-10.584 84.543-84.639 84.543h-75.37c-74.055 0-84.639-10.557-84.639-84.543V96.491c0-73.987 10.584-84.544 84.639-84.544h75.37z" vector-effect="non-scaling-stroke"/></g></g></switch> </svg>