<svg xmlns="http://www.w3.org/2000/svg" style="isolation:isolate" width="256" height="256"><switch><g><defs><filter id="a" width="270.648" height="254.338" x="-7.32" y="2.95" filterUnits="userSpaceOnUse"><feGaussianBlur xmlns="http://www.w3.org/2000/svg" in="SourceGraphic" stdDeviation="4.294"/><feOffset xmlns="http://www.w3.org/2000/svg" dy="4" result="pf_100_offsetBlur"/><feFlood xmlns="http://www.w3.org/2000/svg" flood-opacity=".4"/><feComposite xmlns="http://www.w3.org/2000/svg" in2="pf_100_offsetBlur" operator="in" result="pf_100_dropShadow"/><feBlend xmlns="http://www.w3.org/2000/svg" in="SourceGraphic" in2="pf_100_dropShadow"/></filter></defs><path fill="#FA9381" d="M165.685 11.947c74.055 0 84.639 10.557 84.639 84.544v59.251c0 73.986-10.584 84.543-84.639 84.543h-75.37c-74.055 0-84.639-10.557-84.639-84.543V96.491c0-73.987 10.584-84.544 84.639-84.544h75.37z" filter="url(#a)"/><g opacity=".4"><linearGradient id="b" x1=".517" x2=".517" y2="1"><stop offset="0%" stop-color="#fff"/><stop offset="12.5%" stop-opacity=".098" stop-color="#fff"/><stop offset="92.5%" stop-opacity=".098"/><stop offset="100%" stop-opacity=".498"/></linearGradient><path fill="none" stroke="url(#b)" stroke-linecap="round" stroke-linejoin="round" stroke-width="4.077" d="M165.685 11.947c74.055 0 84.639 10.557 84.639 84.544v59.251c0 73.986-10.584 84.543-84.639 84.543h-75.37c-74.055 0-84.639-10.557-84.639-84.543V96.491c0-73.987 10.584-84.544 84.639-84.544h75.37z" vector-effect="non-scaling-stroke"/></g><path fill="#BC1938" d="M104.78 61.511c-4.416 0-8.14 8.439.521 6.583 3.374-1.103 2.964-6.583-.521-6.583zm50.911 5.541c-2.577 0-5.02 2.987-3.813 4.677.327.454 2.034.931 3.635 1.042 2.206.149 2.771-.521 2.771-2.771 0-2.078-.715-2.942-2.599-2.942m-37.923 1.734c-5.153-.388-10.971 4.134-11.946 9.37-.626 3.292-.127 5.259-2.942 4.505-1.735-.477-5.713-4.178-8.14-4.505-3.812.565-8.289 4.959-5.541 11.082 2.726 3.181 3.657 5.497 0 5.541-8.223 2.167-11.254 4.006-8.483 13.31.543 1.579.349 3.59-1.906 5.906-3.336 3.486-3.574 3.658-8.661 2.078-7.165-2.205-14.977 6.561-.521 6.406 9.132-1.081 10.129 1.058 2.25 5.197-5.347 2.793-7.054 3.917-7.098 7.098-.045 3.119 1.407 4.112 5.369 5.713 8.744 3.098 12.445 4.267 13.509 15.238 0 3.312-.521 9.004 2.599 10.909 3.031 1.862 3.79 3.181 3.291 5.37-.842 3.85 1.773 4.96 6.926 3.137 5.78-2.056 6.583-.582 2.078 3.463-2.466 2.188-3.635 4.72-3.635 7.275.067 5.691 17.382 9.675 14.545-2.428-1.296-5.496-4.067-9.585 1.929-11.082 3.962-1.474 7.663 4.483 11.082 5.541 7.968 2.444 13.897-1.08 18.701-5.213 2.898-2.511 5.951-2.145 7.768-1.734 6.71 1.385 32.748 3.656 22.857-12.639-4.067-5.929-3.247-7.098 5.02-6.927 6.799.127 7.359-.127 7.791-2.77.26-1.579-.388-4.09-1.385-5.713-1.497-2.427-1.43-3.12.171-3.984 1.513-.82.388-5.197-1.385-9.37-3.657-11.797 7.985-32.404-3.635-36.167-7.015-2.531 2.316-16.295-8.311-13.009-3.076.886-5.237-.693-8.833-3.12-5.153-2.599-6.732-2.704-13.16-2.427-5.474.216-8.051-7.015-14.545-2.25-5.452 5.713-4.134 2.898-11.082-1.557-1.385-1.385-2.942-2.122-4.677-2.249m72.532 44.001c-.864.194-1.645.803-2.598 1.535-2.621 2.033-2.771 2.205-.521 4.326 3.247 3.099 6.732 2.295 7.275-1.733.432-3.158-1.557-4.804-4.156-4.156m-63.378 69.434c-.931.194-1.147 1.235-.864 2.942.26 1.497 1.429 2.772 2.599 2.772 1.257 0 2.166 1.318 2.427 3.291.26 1.84 1.102 3.29 1.734 3.29.648 0 1.474-1.45 1.928-3.29.604-2.621.216-4.783-2.77-6.926-2.405-1.712-4.09-2.273-5.021-2.079m13.138 1.735c-.864-.112-1.734.327-1.734 1.385 0 1.059 1.019 1.906 2.25 1.906 1.213 0 2.033-.565 1.734-1.386-.432-1.101-1.385-1.795-2.25-1.905zm-21.299 2.078c-.782 0-1.951 1.125-1.907 2.942.089 2.943.843 3.53 1.907 1.385 1.645-3.291 1.645-4.327 0-4.327z"/><path fill="#E5E5E5" d="M128.035 172.332v-44.328l-38.46-22.164v44.328"/><path fill="#C1C1C1" d="M166.335 105.84l-38.311 22.164v44.328l38.311-22.164"/><path fill="#F9F9F9" d="M128.035 83.675l-38.46 22.165 38.46 22.164 38.333-22.164"/></g></switch> </svg>