<?xml version="1.0" standalone="no"?><!-- Generator: Gravit.io --><svg xmlns="http://www.w3.org/2000/svg" xmlns:xlink="http://www.w3.org/1999/xlink" style="isolation:isolate" viewBox="0 0 256 256" width="256" height="256"><defs><filter id="BDFPNViVTs1MEWLvT0SqeJKV1yIoylGk" x="-7.324" y="2.947" width="270.648" height="254.338" filterUnits="userSpaceOnUse"><feGaussianBlur xmlns="http://www.w3.org/2000/svg" in="SourceGraphic" stdDeviation="4.293609062839028"/><feOffset xmlns="http://www.w3.org/2000/svg" dx="0" dy="4" result="pf_100_offsetBlur"/><feFlood xmlns="http://www.w3.org/2000/svg" flood-color="#000000" flood-opacity="0.4"/><feComposite xmlns="http://www.w3.org/2000/svg" in2="pf_100_offsetBlur" operator="in" result="pf_100_dropShadow"/><feBlend xmlns="http://www.w3.org/2000/svg" in="SourceGraphic" in2="pf_100_dropShadow" mode="normal"/></filter></defs><g filter="url(#BDFPNViVTs1MEWLvT0SqeJKV1yIoylGk)"><path d=" M 165.685 11.947 C 239.74 11.947 250.324 22.504 250.324 96.491 L 250.324 155.742 C 250.324 229.728 239.74 240.285 165.685 240.285 L 90.315 240.285 C 16.26 240.285 5.676 229.728 5.676 155.742 L 5.676 96.491 C 5.676 22.504 16.26 11.947 90.315 11.947 L 165.685 11.947 Z " id="shape" fill="rgb(93,93,93)"/></g><linearGradient id="_lgradient_57" x1="0.2338120508006286" y1="0.1614206681651238" x2="0.7541937502101261" y2="0.8219064800647997" gradientTransform="matrix(165.704,0,0,165,45.148,44.5)" gradientUnits="userSpaceOnUse"><stop offset="0%" stop-opacity="1" style="stop-color:rgb(222,219,222)"/><stop offset="50%" stop-opacity="1" style="stop-color:rgb(230,230,230)"/><stop offset="100%" stop-opacity="1" style="stop-color:rgb(210,210,210)"/></linearGradient><path d=" M 138.712 44.5 C 139.272 44.608 139.84 44.698 140.391 44.828 C 142.33 49.586 143.756 55.531 145.679 60.318 C 140.356 63.722 135.256 67.261 130.528 71.245 C 130.528 71.595 134.563 74.941 138.308 78.219 L 145.129 84.186 L 136.241 90.085 C 131.506 93.238 128.812 95.043 127.288 95.906 C 126.859 96.149 126.544 96.305 126.285 96.416 C 126.856 96.388 127.416 96.335 128 96.335 C 146.019 96.335 158.313 110.298 158.313 126.648 C 158.313 143.332 145.018 156.961 128 156.961 C 110.648 156.961 97.687 142.995 97.687 126.648 C 97.687 110.759 108.855 97.666 125.488 96.456 C 125.461 96.403 125.431 96.352 125.431 96.266 C 125.431 95.94 126.547 93.097 127.911 90.012 C 129.275 86.927 130.228 84.366 130.043 84.259 C 125.094 79.49 121.917 76.513 116.41 71.245 C 120.459 66.968 123.614 63.445 126.738 59.238 L 119.921 51.042 C 116.529 46.957 116.129 46.608 114.516 44.892 C 75.061 51.293 45.148 85.32 45.148 126.648 C 45.148 172.572 82.076 209.5 128 209.5 C 173.924 209.5 210.852 172.572 210.852 126.648 C 210.852 84.359 179.53 49.721 138.712 44.5 Z " id="broken cd" fill="url(#_lgradient_57)"/><g opacity="0.4"><linearGradient id="_lgradient_58" x1="0.5166666666666668" y1="0" x2="0.5166666666666666" y2="1.0000000000000002"><stop offset="0%" stop-opacity="1" style="stop-color:rgb(255,255,255)"/><stop offset="12.5%" stop-opacity="0.09803922" style="stop-color:rgb(255,255,255)"/><stop offset="92.500001%" stop-opacity="0.09803922" style="stop-color:rgb(0,0,0)"/><stop offset="100%" stop-opacity="0.49803922" style="stop-color:rgb(0,0,0)"/></linearGradient><path d=" M 165.685 11.947 C 239.74 11.947 250.324 22.504 250.324 96.491 L 250.324 155.742 C 250.324 229.728 239.74 240.285 165.685 240.285 L 90.315 240.285 C 16.26 240.285 5.676 229.728 5.676 155.742 L 5.676 96.491 C 5.676 22.504 16.26 11.947 90.315 11.947 L 165.685 11.947 Z " id="highlight" fill="none" vector-effect="non-scaling-stroke" stroke-width="4.077" stroke="url(#_lgradient_58)" stroke-linejoin="round" stroke-linecap="round" stroke-miterlimit="4"/></g><g opacity="0.1"><path d=" M 5.676 126.116 L 5.676 155.742 C 5.676 229.728 16.26 240.285 90.315 240.285 L 165.685 240.285 C 239.74 240.285 250.324 229.728 250.324 155.742 L 250.324 126.116 L 5.676 126.116 Z " id="bottom glass" fill="rgb(255,255,255)"/></g></svg>