<svg xmlns="http://www.w3.org/2000/svg" style="isolation:isolate" width="256" height="256"><defs><filter id="a" width="270.648" height="254.338" x="-7.32" y="2.95" filterUnits="userSpaceOnUse"><feGaussianBlur xmlns="http://www.w3.org/2000/svg" in="SourceGraphic" stdDeviation="4.294"/><feOffset xmlns="http://www.w3.org/2000/svg" dy="4" result="pf_100_offsetBlur"/><feFlood xmlns="http://www.w3.org/2000/svg" flood-opacity=".4"/><feComposite xmlns="http://www.w3.org/2000/svg" in2="pf_100_offsetBlur" operator="in" result="pf_100_dropShadow"/><feBlend xmlns="http://www.w3.org/2000/svg" in="SourceGraphic" in2="pf_100_dropShadow"/></filter></defs><path fill="#5D5D5D" d="M165.685 11.947c74.055 0 84.639 10.557 84.639 84.544v59.251c0 73.986-10.584 84.543-84.639 84.543h-75.37c-74.055 0-84.639-10.557-84.639-84.543V96.491c0-73.987 10.584-84.544 84.639-84.544h75.37z" filter="url(#a)"/><linearGradient id="b" x1=".234" x2=".754" y1=".161" y2=".822" gradientTransform="matrix(165.704 0 0 165 45.148 44.5)" gradientUnits="userSpaceOnUse"><stop offset="0%" stop-color="#dedbde"/><stop offset="50%" stop-color="#e6e6e6"/><stop offset="100%" stop-color="#d2d2d2"/></linearGradient><path fill="url(#b)" d="M138.712 44.5c.56.108 1.128.198 1.679.328 1.939 4.758 3.365 10.703 5.288 15.49-5.323 3.404-10.423 6.943-15.151 10.927 0 .35 4.035 3.696 7.78 6.974l6.821 5.967-8.888 5.899c-4.735 3.153-7.429 4.958-8.953 5.821-.429.243-.744.399-1.003.51.571-.028 1.131-.081 1.715-.081 18.019 0 30.313 13.963 30.313 30.313 0 16.684-13.295 30.313-30.313 30.313-17.352 0-30.313-13.966-30.313-30.313 0-15.889 11.168-28.982 27.801-30.192-.027-.053-.057-.104-.057-.19 0-.326 1.116-3.169 2.48-6.254 1.364-3.085 2.317-5.646 2.132-5.753-4.949-4.769-8.126-7.746-13.633-13.014 4.049-4.277 7.204-7.8 10.328-12.007l-6.817-8.196c-3.392-4.085-3.792-4.434-5.405-6.15-39.455 6.401-69.368 40.428-69.368 81.756 0 45.924 36.928 82.852 82.852 82.852 45.924 0 82.852-36.928 82.852-82.852 0-42.289-31.322-76.927-72.14-82.148z"/><g opacity=".4"><linearGradient id="c" x1=".517" x2=".517" y2="1"><stop offset="0%" stop-color="#fff"/><stop offset="12.5%" stop-opacity=".098" stop-color="#fff"/><stop offset="92.5%" stop-opacity=".098"/><stop offset="100%" stop-opacity=".498"/></linearGradient><path fill="none" stroke="url(#c)" stroke-linecap="round" stroke-linejoin="round" stroke-width="4.077" d="M165.685 11.947c74.055 0 84.639 10.557 84.639 84.544v59.251c0 73.986-10.584 84.543-84.639 84.543h-75.37c-74.055 0-84.639-10.557-84.639-84.543V96.491c0-73.987 10.584-84.544 84.639-84.544h75.37z" vector-effect="non-scaling-stroke"/></g><path fill="#FFF" d="M5.676 126.116v29.626c0 73.986 10.584 84.543 84.639 84.543h75.37c74.055 0 84.639-10.557 84.639-84.543v-29.626H5.676z" opacity=".1"/></svg>