<svg xmlns="http://www.w3.org/2000/svg" style="isolation:isolate" width="256" height="256" viewBox="0 0 256 256">
 <defs>
  <filter id="uEkMsAbkHZP2vpMKpMWu3BtwVcFSd5FI" width="270.648" height="254.338" x="-7.32" y="2.95" filterUnits="userSpaceOnUse">
   <feGaussianBlur xmlns="http://www.w3.org/2000/svg" in="SourceGraphic" stdDeviation="4.294"/>
   <feOffset xmlns="http://www.w3.org/2000/svg" dx="0" dy="4" result="pf_100_offsetBlur"/>
   <feFlood xmlns="http://www.w3.org/2000/svg" flood-opacity=".4"/>
   <feComposite xmlns="http://www.w3.org/2000/svg" in2="pf_100_offsetBlur" operator="in" result="pf_100_dropShadow"/>
   <feBlend xmlns="http://www.w3.org/2000/svg" in="SourceGraphic" in2="pf_100_dropShadow" mode="normal"/>
  </filter>
 </defs>
 <g filter="url(#uEkMsAbkHZP2vpMKpMWu3BtwVcFSd5FI)">
  <path fill="#2B898F" d="M 165.685 11.947 C 239.74 11.947 250.324 22.504 250.324 96.491 L 250.324 155.742 C 250.324 229.728 239.74 240.285 165.685 240.285 L 90.315 240.285 C 16.26 240.285 5.676 229.728 5.676 155.742 L 5.676 96.491 C 5.676 22.504 16.26 11.947 90.315 11.947 L 165.685 11.947 Z"/>
 </g>
 <g opacity=".4">
  <linearGradient id="_lgradient_39" x1=".517" x2=".517" y1="0" y2="1">
   <stop offset="0%" style="stop-color:rgb(255,255,255)"/>
   <stop offset="12.5%" stop-opacity=".098" style="stop-color:rgb(255,255,255)"/>
   <stop offset="92.5%" stop-opacity=".098" style="stop-color:rgb(0,0,0)"/>
   <stop offset="100%" stop-opacity=".498" style="stop-color:rgb(0,0,0)"/>
  </linearGradient>
  <path fill="none" stroke="url(#_lgradient_39)" stroke-linecap="round" stroke-linejoin="round" stroke-width="4.077" d="M 165.685 11.947 C 239.74 11.947 250.324 22.504 250.324 96.491 L 250.324 155.742 C 250.324 229.728 239.74 240.285 165.685 240.285 L 90.315 240.285 C 16.26 240.285 5.676 229.728 5.676 155.742 L 5.676 96.491 C 5.676 22.504 16.26 11.947 90.315 11.947 L 165.685 11.947 Z" vector-effect="non-scaling-stroke"/>
 </g>
 <g>
  <path fill="#FFFFFF" d="M 128.794 56.627 C 126.935 56.642 124.995 56.693 122.958 56.777 C 87.926 58.217 64.68 72.679 56.044 98.406 C 53.636 105.58 53.335 108.207 53.335 122.002 L 53.335 137.525 L 49.335 139.588 C 44.266 142.2 39.335 147.423 36.13 153.57 C 34.077 157.507 32.972 159.89 32.972 167.327 C 32.972 174.763 34.077 177.366 36.13 181.303 C 40.522 189.728 47.672 195.734 56.534 198.439 C 60.444 199.633 69.293 199.585 73.753 198.346 C 80.911 196.357 81.006 194.817 74.403 187.895 C 62.313 175.22 59.765 166.175 59.769 135.969 C 59.773 105.571 62.332 95.826 73.425 83.963 C 80.423 76.478 85.551 73.241 96.558 69.354 C 110.929 64.278 125.013 62.438 137.565 63.996 C 156.993 66.408 170.582 72.22 180.894 82.531 C 193.616 95.254 196.229 104.356 196.233 135.969 C 196.238 166.226 193.912 174.697 182.14 187.281 C 175.889 193.963 175.88 193.981 177.995 196.096 C 179.161 197.262 182.354 198.552 185.093 198.963 C 199.658 201.147 212.778 194.625 219.548 181.836 C 221.96 177.278 222.917 175.184 222.919 167.436 C 222.921 159.996 221.927 157.509 219.874 153.57 C 216.669 147.423 211.736 142.2 206.667 139.588 L 202.667 137.525 L 202.667 122.002 C 202.667 108.274 202.36 105.56 200.003 98.537 C 193.854 80.219 182.824 69.488 162.808 62.344 C 150.938 58.108 141.81 56.512 128.794 56.627 L 128.794 56.627 Z M 65.067 137.037 C 62.446 137.037 62.396 137.198 62.091 146.523 C 61.92 151.741 62.295 158.492 62.925 161.525 C 65.217 172.568 74.783 188.648 80.411 190.922 C 83.271 192.077 83.723 192.112 85.78 191.322 C 88.654 190.219 87.674 187.594 82.243 181.852 C 73.218 172.308 69.469 162.784 68.382 146.637 C 67.752 137.28 67.666 137.037 65.067 137.037 L 65.067 137.037 Z M 190.935 137.037 C 188.336 137.037 188.252 137.28 187.622 146.637 C 186.535 162.784 182.784 172.308 173.759 181.852 C 168.536 187.374 167.358 190.231 169.868 191.285 C 172.72 192.483 176.71 190.66 180.683 186.344 C 185.634 180.963 191.462 169.31 193.065 161.584 C 193.702 158.518 194.082 151.741 193.911 146.523 C 193.606 137.198 193.556 137.037 190.935 137.037 L 190.935 137.037 Z"/>
  <path fill="#FDC92B" d="M 133.093 96.105 C 131.951 96.105 131.407 97.48 131.198 100.906 C 131.037 103.546 129.717 119.268 128.265 135.845 C 126.812 152.422 125.626 166.783 125.626 167.757 C 125.626 171.562 124.155 167.657 120.852 155.085 C 118.576 146.421 116.913 141.972 115.954 141.972 C 114.343 141.972 114.366 141.744 114.089 160.906 C 113.981 168.386 113.509 174.505 113.04 174.505 C 112.222 174.505 111.381 170.845 103.735 133.972 C 101.308 122.266 99.877 117.439 98.833 117.439 C 98.002 117.439 97.448 118.369 97.563 119.572 C 98.527 129.643 102.114 186.64 101.804 186.95 C 101.459 187.295 88.496 155.989 86.823 150.773 C 86.208 148.854 84.528 148.287 83.663 149.706 C 83.395 150.146 83.852 154.061 84.677 158.408 C 85.501 162.754 86.009 166.477 85.806 166.681 C 85.602 166.885 84.529 165.369 83.421 163.312 C 81.234 159.252 80.678 159.005 77.524 160.693 C 75.062 162.011 75.727 163.844 78.427 163.181 C 79.832 162.836 81.299 164.6 84.38 170.339 C 89.124 179.177 91.175 179.161 89.563 170.296 C 89.008 167.241 88.917 165.137 89.36 165.622 C 89.804 166.108 92.948 173.465 96.347 181.972 C 99.746 190.479 102.978 198.034 103.53 198.761 C 104.994 200.689 106.519 199.288 105.911 196.574 C 105.134 193.1 102.023 145.485 102.54 144.968 C 103.108 144.4 104.576 150.604 108.897 171.839 C 110.807 181.226 112.745 189.514 113.204 190.257 C 115.139 193.388 116.033 189.635 116.142 177.909 C 116.205 171.051 116.564 162.606 116.94 159.144 L 117.626 152.847 L 120.77 165.542 C 123.885 178.113 125.152 181.324 126.632 180.409 C 127.052 180.15 128.288 168.858 129.38 155.318 C 130.472 141.777 131.699 131.316 132.104 132.07 C 132.51 132.823 133.018 148.191 133.233 166.222 C 133.538 191.69 133.932 199.126 134.999 199.538 C 136.735 200.21 136.493 201.066 141.192 177.706 C 143.376 166.853 145.568 157.516 146.061 156.958 C 146.56 156.396 147.04 159.482 147.142 163.892 C 147.42 176.011 147.433 176.105 148.981 176.105 C 149.793 176.105 151.282 173.524 152.364 170.24 L 154.296 164.372 L 154.173 177.109 C 154.087 185.985 154.428 189.973 155.298 190.263 C 155.984 190.492 156.996 189.493 157.548 188.042 C 159.516 182.865 173.903 152.618 174.895 151.572 C 175.537 150.895 175.782 152.846 175.565 156.906 L 175.226 163.306 L 178.692 163.64 C 182.546 164.011 183.414 162.248 179.923 161.14 C 177.81 160.469 177.729 159.955 178.436 151.734 C 178.848 146.951 179.254 142.559 179.339 141.972 C 179.423 141.385 178.845 140.906 178.054 140.906 C 177.234 140.906 172.726 149.166 167.579 160.105 C 158.723 178.926 155.628 184.331 156.888 178.773 C 157.691 175.231 158.15 151.207 157.429 150.486 C 156.416 149.473 154.837 152.509 152.841 159.312 C 151.764 162.982 150.655 165.756 150.374 165.476 C 150.093 165.195 149.569 159.791 149.21 153.468 C 148.687 144.25 148.241 141.972 146.958 141.972 C 146.044 141.972 145.228 143.114 145.054 144.638 C 144.53 149.225 138.388 178.131 137.46 180.372 C 136.695 182.221 135.796 156.712 134.905 107.839 C 134.73 98.216 134.405 96.105 133.093 96.105 L 133.093 96.105 Z"/>
 </g>
</svg>
