<?xml version="1.0" standalone="no"?><!-- Generator: Gravit.io --><svg xmlns="http://www.w3.org/2000/svg" xmlns:xlink="http://www.w3.org/1999/xlink" style="isolation:isolate" viewBox="0 0 256 256" width="256" height="256"><defs><filter id="l0SE3RnjCZbDO6Blax5yheB7640E0HhZ" x="-7.324" y="2.947" width="270.648" height="254.338" filterUnits="userSpaceOnUse"><feGaussianBlur xmlns="http://www.w3.org/2000/svg" in="SourceGraphic" stdDeviation="4.293609062839028"/><feOffset xmlns="http://www.w3.org/2000/svg" dx="0" dy="4" result="pf_100_offsetBlur"/><feFlood xmlns="http://www.w3.org/2000/svg" flood-color="#000000" flood-opacity="0.4"/><feComposite xmlns="http://www.w3.org/2000/svg" in2="pf_100_offsetBlur" operator="in" result="pf_100_dropShadow"/><feBlend xmlns="http://www.w3.org/2000/svg" in="SourceGraphic" in2="pf_100_dropShadow" mode="normal"/></filter></defs><g filter="url(#l0SE3RnjCZbDO6Blax5yheB7640E0HhZ)"><path d=" M 165.685 11.947 C 239.74 11.947 250.324 22.504 250.324 96.491 L 250.324 155.742 C 250.324 229.728 239.74 240.285 165.685 240.285 L 90.315 240.285 C 16.26 240.285 5.676 229.728 5.676 155.742 L 5.676 96.491 C 5.676 22.504 16.26 11.947 90.315 11.947 L 165.685 11.947 Z " id="shape" fill="rgb(93,93,93)"/></g><g opacity="0.4"><linearGradient id="_lgradient_0" x1="0.5166666666666668" y1="0" x2="0.5166666666666666" y2="1.0000000000000002"><stop offset="0%" stop-opacity="1" style="stop-color:rgb(255,255,255)"/><stop offset="12.5%" stop-opacity="0.09803922" style="stop-color:rgb(255,255,255)"/><stop offset="92.500001%" stop-opacity="0.09803922" style="stop-color:rgb(0,0,0)"/><stop offset="100%" stop-opacity="0.49803922" style="stop-color:rgb(0,0,0)"/></linearGradient><path d=" M 165.685 11.947 C 239.74 11.947 250.324 22.504 250.324 96.491 L 250.324 155.742 C 250.324 229.728 239.74 240.285 165.685 240.285 L 90.315 240.285 C 16.26 240.285 5.676 229.728 5.676 155.742 L 5.676 96.491 C 5.676 22.504 16.26 11.947 90.315 11.947 L 165.685 11.947 Z " id="highlight" fill="none" vector-effect="non-scaling-stroke" stroke-width="4.077" stroke="url(#_lgradient_0)" stroke-linejoin="round" stroke-linecap="round" stroke-miterlimit="4"/></g><g opacity="0.1"><path d=" M 5.676 126.116 L 5.676 155.742 C 5.676 229.728 16.26 240.285 90.315 240.285 L 165.685 240.285 C 239.74 240.285 250.324 229.728 250.324 155.742 L 250.324 126.116 L 5.676 126.116 Z " id="bottom glass" fill="rgb(255,255,255)"/></g><linearGradient id="_lgradient_1" x1="0.2338121279138866" y1="0.16497973439798674" x2="0.7541938558338116" y2="0.8254655824840482" gradientTransform="matrix(165,0,0,165,45.5,43.5)" gradientUnits="userSpaceOnUse"><stop offset="0%" stop-opacity="1" style="stop-color:rgb(222,219,222)"/><stop offset="50%" stop-opacity="1" style="stop-color:rgb(230,230,230)"/><stop offset="100%" stop-opacity="1" style="stop-color:rgb(210,210,210)"/></linearGradient><path d=" M 210.5 126 C 210.5 80.271 173.729 43.5 128 43.5 C 82.271 43.5 45.5 80.271 45.5 126 C 45.5 171.729 82.271 208.5 128 208.5 C 173.729 208.5 210.5 171.729 210.5 126 Z  M 158.183 126 C 158.183 142.613 144.946 156.183 128 156.183 C 110.722 156.183 97.817 142.277 97.817 126 C 97.817 109.39 110.057 95.817 128 95.817 C 145.943 95.817 158.183 109.719 158.183 126 Z " id="cd" fill="url(#_lgradient_1)"/><g id="audex" filter="url(#Yk5Z2e1qPvwctgJvwLN85Qsw8V8zMICC)"><path d="M 66.9 164.61 L 189.335 164.61 C 195.546 164.61 200.589 169.653 200.589 175.864 L 200.589 206.747 C 200.589 212.958 195.546 218 189.335 218 L 66.9 218 C 60.689 218 55.646 212.958 55.646 206.747 L 55.646 175.864 C 55.646 169.653 60.689 164.61 66.9 164.61 Z" style="stroke:none;fill:#1463A5;stroke-miterlimit:10;"/><g opacity="0.4"><path d=" M 81.139 203.358 L 76.635 203.358 L 88.437 181.617 L 92.568 181.617 L 96.73 203.358 L 92.413 203.358 L 91.605 198.854 L 83.561 198.854 L 81.139 203.358 Z  M 88.779 188.916 L 85.518 195.034 L 90.953 195.034 L 89.866 188.978 L 89.866 188.978 Q 89.835 188.854 89.773 188.45 L 89.773 188.45 L 89.773 188.45 Q 89.711 188.046 89.648 187.72 L 89.648 187.72 L 89.648 187.72 Q 89.586 187.394 89.586 187.239 L 89.586 187.239 L 89.586 187.239 Q 89.245 188.015 88.779 188.916 L 88.779 188.916 Z  M 108.221 203.73 L 108.221 203.73 L 108.221 203.73 Q 104.929 203.73 102.817 201.975 L 102.817 201.975 L 102.817 201.975 Q 100.705 200.221 100.705 196.773 L 100.705 196.773 L 100.705 196.773 Q 100.705 195.531 101.047 193.543 L 101.047 193.543 L 103.19 181.617 L 107.382 181.617 L 105.177 194.32 L 105.177 194.32 Q 104.929 195.717 104.929 196.37 L 104.929 196.37 L 104.929 196.37 Q 104.929 198.109 105.938 198.87 L 105.938 198.87 L 105.938 198.87 Q 106.948 199.631 108.531 199.631 L 108.531 199.631 L 108.531 199.631 Q 110.612 199.631 111.932 198.606 L 111.932 198.606 L 111.932 198.606 Q 113.252 197.581 113.687 195.034 L 113.687 195.034 L 116.047 181.617 L 120.24 181.617 L 117.818 195.407 L 117.818 195.407 Q 117.383 197.86 116.498 199.537 L 116.498 199.537 L 116.498 199.537 Q 115.613 201.215 114.293 202.1 L 114.293 202.1 L 114.293 202.1 Q 112.973 202.985 111.529 203.358 L 111.529 203.358 L 111.529 203.358 Q 110.084 203.73 108.221 203.73 Z  M 120.427 203.358 L 124.247 181.617 L 130.986 181.617 L 130.986 181.617 Q 135.303 181.617 137.555 184.412 L 137.555 184.412 L 137.555 184.412 Q 139.807 187.208 139.807 191.525 L 139.807 191.525 L 139.807 191.525 Q 139.807 193.668 139.139 195.702 L 139.139 195.702 L 139.139 195.702 Q 138.471 197.736 137.151 199.491 L 137.151 199.491 L 137.151 199.491 Q 135.831 201.246 133.533 202.302 L 133.533 202.302 L 133.533 202.302 Q 131.235 203.358 128.284 203.358 L 128.284 203.358 L 120.427 203.358 Z  M 125.241 199.382 L 128.253 199.382 L 128.253 199.382 Q 131.607 199.382 133.44 197.068 L 133.44 197.068 L 133.44 197.068 Q 135.272 194.755 135.272 191.711 L 135.272 191.711 L 135.272 191.711 Q 135.272 188.916 134.045 187.254 L 134.045 187.254 L 134.045 187.254 Q 132.819 185.593 130.427 185.593 L 130.427 185.593 L 127.663 185.593 L 125.241 199.382 Z  M 156.236 203.358 L 141.359 203.358 L 145.18 181.617 L 159.435 181.617 L 158.752 185.593 L 148.751 185.593 L 147.944 190.158 L 153.751 190.158 L 153.037 194.133 L 147.229 194.133 L 146.329 199.382 L 156.95 199.382 L 156.236 203.358 Z  M 163.348 203.358 L 158.193 203.358 L 167.044 191.959 L 162.634 181.617 L 167.355 181.617 L 170.088 188.046 L 175.119 181.617 L 180.275 181.617 L 171.92 192.332 L 176.672 203.358 L 171.951 203.358 L 168.877 196.245 L 163.348 203.358 Z " fill-rule="evenodd" id="Compound Path" fill="rgb(17,17,17)"/></g><path d=" M 80.801 200.873 L 76.298 200.873 L 88.1 179.133 L 92.23 179.133 L 96.392 200.873 L 92.075 200.873 L 91.268 196.37 L 83.224 196.37 L 80.801 200.873 Z  M 88.441 186.431 L 85.18 192.549 L 90.615 192.549 L 89.528 186.493 L 89.528 186.493 Q 89.497 186.369 89.435 185.965 L 89.435 185.965 L 89.435 185.965 Q 89.373 185.561 89.311 185.235 L 89.311 185.235 L 89.311 185.235 Q 89.249 184.909 89.249 184.754 L 89.249 184.754 L 89.249 184.754 Q 88.907 185.53 88.441 186.431 L 88.441 186.431 Z  M 107.883 201.246 L 107.883 201.246 L 107.883 201.246 Q 104.591 201.246 102.479 199.491 L 102.479 199.491 L 102.479 199.491 Q 100.367 197.736 100.367 194.289 L 100.367 194.289 L 100.367 194.289 Q 100.367 193.046 100.709 191.059 L 100.709 191.059 L 102.852 179.133 L 107.045 179.133 L 104.84 191.835 L 104.84 191.835 Q 104.591 193.233 104.591 193.885 L 104.591 193.885 L 104.591 193.885 Q 104.591 195.624 105.601 196.385 L 105.601 196.385 L 105.601 196.385 Q 106.61 197.146 108.194 197.146 L 108.194 197.146 L 108.194 197.146 Q 110.275 197.146 111.595 196.121 L 111.595 196.121 L 111.595 196.121 Q 112.915 195.096 113.35 192.549 L 113.35 192.549 L 115.71 179.133 L 119.903 179.133 L 117.48 192.922 L 117.48 192.922 Q 117.045 195.376 116.16 197.053 L 116.16 197.053 L 116.16 197.053 Q 115.275 198.73 113.955 199.615 L 113.955 199.615 L 113.955 199.615 Q 112.635 200.5 111.191 200.873 L 111.191 200.873 L 111.191 200.873 Q 109.747 201.246 107.883 201.246 Z  M 120.089 200.873 L 123.909 179.133 L 130.649 179.133 L 130.649 179.133 Q 134.966 179.133 137.217 181.928 L 137.217 181.928 L 137.217 181.928 Q 139.469 184.723 139.469 189.04 L 139.469 189.04 L 139.469 189.04 Q 139.469 191.183 138.801 193.217 L 138.801 193.217 L 138.801 193.217 Q 138.134 195.251 136.814 197.006 L 136.814 197.006 L 136.814 197.006 Q 135.494 198.761 133.195 199.817 L 133.195 199.817 L 133.195 199.817 Q 130.897 200.873 127.947 200.873 L 127.947 200.873 L 120.089 200.873 Z  M 124.903 196.898 L 127.916 196.898 L 127.916 196.898 Q 131.27 196.898 133.102 194.584 L 133.102 194.584 L 133.102 194.584 Q 134.935 192.27 134.935 189.226 L 134.935 189.226 L 134.935 189.226 Q 134.935 186.431 133.708 184.769 L 133.708 184.769 L 133.708 184.769 Q 132.481 183.108 130.09 183.108 L 130.09 183.108 L 127.326 183.108 L 124.903 196.898 Z  M 155.899 200.873 L 141.022 200.873 L 144.842 179.133 L 159.097 179.133 L 158.414 183.108 L 148.414 183.108 L 147.606 187.673 L 153.414 187.673 L 152.7 191.649 L 146.892 191.649 L 145.991 196.898 L 156.613 196.898 L 155.899 200.873 Z  M 163.011 200.873 L 157.855 200.873 L 166.707 189.475 L 162.296 179.133 L 167.017 179.133 L 169.75 185.561 L 174.782 179.133 L 179.937 179.133 L 171.583 189.847 L 176.334 200.873 L 171.614 200.873 L 168.539 193.761 L 163.011 200.873 Z " fill-rule="evenodd" id="Compound Path" fill="rgb(231,203,20)"/></g><defs><filter id="Yk5Z2e1qPvwctgJvwLN85Qsw8V8zMICC" x="25.646" y="138.61" width="204.943" height="113.39" filterUnits="userSpaceOnUse"><feGaussianBlur xmlns="http://www.w3.org/2000/svg" in="SourceGraphic" stdDeviation="4.293609062839028"/><feOffset xmlns="http://www.w3.org/2000/svg" dx="0" dy="4" result="pf_100_offsetBlur"/><feFlood xmlns="http://www.w3.org/2000/svg" flood-color="#000000" flood-opacity="0.4"/><feComposite xmlns="http://www.w3.org/2000/svg" in2="pf_100_offsetBlur" operator="in" result="pf_100_dropShadow"/><feBlend xmlns="http://www.w3.org/2000/svg" in="SourceGraphic" in2="pf_100_dropShadow" mode="normal"/></filter></defs></svg>