<svg xmlns="http://www.w3.org/2000/svg" style="isolation:isolate" width="256" height="256"><switch><g><defs><filter id="a" width="270.648" height="254.338" x="-7.32" y="2.95" filterUnits="userSpaceOnUse"><feGaussianBlur xmlns="http://www.w3.org/2000/svg" in="SourceGraphic" stdDeviation="4.294"/><feOffset xmlns="http://www.w3.org/2000/svg" dy="4" result="pf_100_offsetBlur"/><feFlood xmlns="http://www.w3.org/2000/svg" flood-opacity=".4"/><feComposite xmlns="http://www.w3.org/2000/svg" in2="pf_100_offsetBlur" operator="in" result="pf_100_dropShadow"/><feBlend xmlns="http://www.w3.org/2000/svg" in="SourceGraphic" in2="pf_100_dropShadow"/></filter></defs><path fill="#E3DFD5" d="M165.685 11.947c74.055 0 84.639 10.557 84.639 84.544v59.251c0 73.986-10.584 84.543-84.639 84.543h-75.37c-74.055 0-84.639-10.557-84.639-84.543V96.491c0-73.987 10.584-84.544 84.639-84.544h75.37z" filter="url(#a)"/><path fill="#BC1938" d="M165.685 11.947c64.324 0 80.762 7.965 83.971 58.543-5.534-.093-249.79-.86-243.244-1.03C9.78 19.804 26.43 11.947 90.315 11.947h75.37z"/><path fill="#FFF" d="M5.676 126.116v29.626c0 73.986 10.584 84.543 84.639 84.543h75.37c74.055 0 84.639-10.557 84.639-84.543v-29.626H5.676z" opacity=".1"/><g opacity=".4"><linearGradient id="b" x1=".517" x2=".517" y2="1"><stop offset="0%" stop-color="#fff"/><stop offset="12.5%" stop-opacity=".098" stop-color="#fff"/><stop offset="92.5%" stop-opacity=".098"/><stop offset="100%" stop-opacity=".498"/></linearGradient><path fill="none" stroke="url(#b)" stroke-linecap="round" stroke-linejoin="round" stroke-width="4.077" d="M165.685 11.947c74.055 0 84.639 10.557 84.639 84.544v59.251c0 73.986-10.584 84.543-84.639 84.543h-75.37c-74.055 0-84.639-10.557-84.639-84.543V96.491c0-73.987 10.584-84.544 84.639-84.544h75.37z" vector-effect="non-scaling-stroke"/></g><path fill="#AEA795" d="M55 97.069v4.079h145v-4.079H55zm0 16.311v4.077h145v-4.077H55zm0 16.233v4.079h145v-4.079H55zm0 16.31v4.078h145v-4.078H55zm.673 16.31v4.078l144.327.076v-4.078l-144.327-.076zm0 16.311v4.077H200v-4.077H55.673zm0 16.31v4.077h108.246v-4.077H55.673z"/><path fill="#4D4D4D" d="M82.441 137.014v18.433c0 3.868 3.15 7.019 7.017 7.019h11.727v-32.468H89.458c-3.867 0-7.017 3.149-7.017 7.016zm51.742-28.164l-29.224 21.148v32.468l29.224 21.145c1.903 1.374 4.554.032 4.554-2.307v-70.145c-.032-2.34-2.683-3.68-4.554-2.309zm11.541 25.638c-1.248.905-1.528 2.683-.625 3.931a13.24 13.24 0 0 1 0 15.625c-.903 1.248-.623 3.026.625 3.931a2.836 2.836 0 0 0 3.929-.625 18.862 18.862 0 0 0 0-22.237c-.935-1.248-2.681-1.528-3.929-.625zm13.006-7.361a2.83 2.83 0 0 0-3.93-.622 2.828 2.828 0 0 0-.624 3.928 26.867 26.867 0 0 1 0 31.626 2.832 2.832 0 0 0 .624 3.931 2.84 2.84 0 0 0 3.93-.623c8.296-11.448 8.296-26.823 0-38.24zm9.076-5.208a2.832 2.832 0 0 0-3.931-.624 2.832 2.832 0 0 0-.623 3.93c9.138 12.513 9.138 29.5 0 42.013a2.83 2.83 0 0 0 .623 3.929c1.261.9 3.011.622 3.931-.623 10.573-14.485 10.573-34.141 0-48.625z"/></g></switch> </svg>