<?xml version="1.0" standalone="no"?><!-- Generator: Gravit.io --><svg xmlns="http://www.w3.org/2000/svg" xmlns:xlink="http://www.w3.org/1999/xlink" style="isolation:isolate" viewBox="0 0 256 256" width="256" height="256"><defs><filter id="BN1A7CcjzYZV2fryFLi6yO0kNvkCRItU" x="-7.324" y="2.947" width="270.648" height="254.338" filterUnits="userSpaceOnUse"><feGaussianBlur xmlns="http://www.w3.org/2000/svg" in="SourceGraphic" stdDeviation="4.293609062839028"/><feOffset xmlns="http://www.w3.org/2000/svg" dx="0" dy="4" result="pf_100_offsetBlur"/><feFlood xmlns="http://www.w3.org/2000/svg" flood-color="#000000" flood-opacity="0.4"/><feComposite xmlns="http://www.w3.org/2000/svg" in2="pf_100_offsetBlur" operator="in" result="pf_100_dropShadow"/><feBlend xmlns="http://www.w3.org/2000/svg" in="SourceGraphic" in2="pf_100_dropShadow" mode="normal"/></filter></defs><g filter="url(#BN1A7CcjzYZV2fryFLi6yO0kNvkCRItU)"><path d=" M 165.685 11.947 C 239.74 11.947 250.324 22.504 250.324 96.491 L 250.324 155.742 C 250.324 229.728 239.74 240.285 165.685 240.285 L 90.315 240.285 C 16.26 240.285 5.676 229.728 5.676 155.742 L 5.676 96.491 C 5.676 22.504 16.26 11.947 90.315 11.947 L 165.685 11.947 Z " id="shape" fill="rgb(102,102,102)"/></g><path d=" M 165.685 11.947 C 230.009 11.947 246.447 19.912 249.656 70.49 C 244.122 70.397 -0.134 69.63 6.412 69.46 C 9.78 19.804 26.43 11.947 90.315 11.947 L 165.685 11.947 Z " id="shape" fill="rgb(51,51,51)"/><path d=" M 249.54 183.467 C 246.063 232.502 229.271 240.285 165.685 240.285 L 90.315 240.285 C 27.161 240.285 10.167 232.607 6.533 184.46 C 1.218 185.056 245.435 184.311 249.54 183.467 Z " id="shape" fill="rgb(51,51,51)"/><g id="Group"><path d=" M 94.197 82.229 L 94.197 170.689 L 163 126.459" id="path31" fill="rgb(253,164,99)"/><path d=" M 95.595 31.998 L 101.639 41.827 L 95.595 51.656 L 83.5 51.656 L 89.545 41.827 L 83.5 31.998" fill-rule="evenodd" id="path37" fill="rgb(249,249,249)"/><path d=" M 119.553 31.998 L 125.597 41.827 L 119.553 51.656 L 107.458 51.656 L 113.503 41.827 L 107.458 31.998" fill-rule="evenodd" id="path39" fill="rgb(249,249,249)"/><path d=" M 142.71 31.998 L 148.755 41.827 L 142.71 51.656 L 130.615 51.656 L 136.66 41.827 L 130.615 31.998" fill-rule="evenodd" id="path41" fill="rgb(249,249,249)"/><path d=" M 165.896 31.998 L 171.941 41.827 L 165.896 51.656 L 153.802 51.656 L 159.846 41.827 L 153.802 31.998" fill-rule="evenodd" id="path43" fill="rgb(249,249,249)"/><path d=" M 95.595 220.024 L 101.639 210.195 L 95.595 200.366 L 83.5 200.366 L 89.545 210.195 L 83.5 220.024" fill-rule="evenodd" id="path47" fill="rgb(249,249,249)"/><path d=" M 119.553 220.024 L 125.597 210.195 L 119.553 200.366 L 107.458 200.366 L 113.503 210.195 L 107.458 220.024" fill-rule="evenodd" id="path49" fill="rgb(249,249,249)"/><path d=" M 142.71 220.024 L 148.755 210.195 L 142.71 200.366 L 130.615 200.366 L 136.66 210.195 L 130.615 220.024" fill-rule="evenodd" id="path51" fill="rgb(249,249,249)"/><path d=" M 165.896 220.024 L 171.941 210.195 L 165.896 200.366 L 153.802 200.366 L 159.846 210.195 L 153.802 220.024" fill-rule="evenodd" id="path53" fill="rgb(249,249,249)"/></g><g opacity="0.05"><path d=" M 8.476 55.74 C 6.729 66.667 6.158 80.255 6.158 97.205 L 6.158 156.456 C 6.158 230.442 16.742 241 90.798 241 L 166.167 241 C 221.302 241 241.245 235.126 247.842 201.603 L 8.476 55.74 Z " id="left angle highlight" fill="rgb(255,255,255)"/></g><g opacity="0.4"><linearGradient id="_lgradient_267" x1="0.5166666666666668" y1="0" x2="0.5166666666666666" y2="1.0000000000000002"><stop offset="0%" stop-opacity="1" style="stop-color:rgb(255,255,255)"/><stop offset="12.5%" stop-opacity="0.09803922" style="stop-color:rgb(255,255,255)"/><stop offset="92.500001%" stop-opacity="0.09803922" style="stop-color:rgb(0,0,0)"/><stop offset="100%" stop-opacity="0.49803922" style="stop-color:rgb(0,0,0)"/></linearGradient><path d=" M 165.685 11.947 C 239.74 11.947 250.324 22.504 250.324 96.491 L 250.324 155.742 C 250.324 229.728 239.74 240.285 165.685 240.285 L 90.315 240.285 C 16.26 240.285 5.676 229.728 5.676 155.742 L 5.676 96.491 C 5.676 22.504 16.26 11.947 90.315 11.947 L 165.685 11.947 Z " id="highlight" fill="none" vector-effect="non-scaling-stroke" stroke-width="4.077" stroke="url(#_lgradient_267)" stroke-linejoin="round" stroke-linecap="round" stroke-miterlimit="4"/></g></svg>