<svg xmlns="http://www.w3.org/2000/svg" style="isolation:isolate" width="256" height="256"><switch><g><defs><filter id="a" width="270.648" height="254.338" x="-7.32" y="2.95" filterUnits="userSpaceOnUse"><feGaussianBlur xmlns="http://www.w3.org/2000/svg" in="SourceGraphic" stdDeviation="4.294"/><feOffset xmlns="http://www.w3.org/2000/svg" dy="4" result="pf_100_offsetBlur"/><feFlood xmlns="http://www.w3.org/2000/svg" flood-opacity=".4"/><feComposite xmlns="http://www.w3.org/2000/svg" in2="pf_100_offsetBlur" operator="in" result="pf_100_dropShadow"/><feBlend xmlns="http://www.w3.org/2000/svg" in="SourceGraphic" in2="pf_100_dropShadow"/></filter></defs><g filter="url(#a)"><radialGradient id="b" cx=".5" cy=".5" r=".5" fx=".5" fy=".5" gradientTransform="matrix(350 .768 2 290.232 -48 -19.384)" gradientUnits="userSpaceOnUse"><stop offset="1.739%" stop-color="#393939"/><stop offset="96.957%" stop-color="#242424"/></radialGradient><path fill="url(#b)" d="M165.685 11.947c74.055 0 84.639 10.557 84.639 84.544v59.251c0 73.986-10.584 84.543-84.639 84.543h-75.37c-74.055 0-84.639-10.557-84.639-84.543V96.491c0-73.987 10.584-84.544 84.639-84.544h75.37z"/></g><path fill="#FFF" d="M5.676 126.116v29.626c0 73.986 10.584 84.543 84.639 84.543h75.37c74.055 0 84.639-10.557 84.639-84.543v-29.626H5.676z" opacity=".1"/><g opacity=".4"><linearGradient id="c" x1=".517" x2=".517" y2="1"><stop offset="0%" stop-color="#fff"/><stop offset="12.5%" stop-opacity=".098" stop-color="#fff"/><stop offset="92.5%" stop-opacity=".098"/><stop offset="100%" stop-opacity=".498"/></linearGradient><path fill="none" stroke="url(#c)" stroke-linecap="round" stroke-linejoin="round" stroke-width="4.077" d="M165.685 11.947c74.055 0 84.639 10.557 84.639 84.544v59.251c0 73.986-10.584 84.543-84.639 84.543h-75.37c-74.055 0-84.639-10.557-84.639-84.543V96.491c0-73.987 10.584-84.544 84.639-84.544h75.37z" vector-effect="non-scaling-stroke"/></g><path fill="#E54747" d="M45.333 128c0-45.625 37.042-82.667 82.667-82.667S210.667 82.375 210.667 128 173.625 210.667 128 210.667 45.333 173.625 45.333 128z"/><path fill="#F9F9F9" d="M83.911 122.489c.026 22.199 16.553 40.917 38.578 43.692V177.6h-11.022v11.022h33.066V177.6h-11.022v-11.408c22.029-2.775 38.558-21.5 38.578-43.703h-11.022c0 18.262-14.805 33.067-33.067 33.067s-33.067-14.805-33.067-33.067H83.911z"/><path fill="#F9F9F9" d="M128 72.889c12.167 0 22.044 9.878 22.044 22.044V128c0 12.167-9.877 22.044-22.044 22.044s-22.044-9.877-22.044-22.044V94.933c0-12.166 9.877-22.044 22.044-22.044z"/></g></switch> </svg>