<svg xmlns="http://www.w3.org/2000/svg" style="isolation:isolate" width="256" height="256" viewBox="0 0 256 256">
 <defs>
  <filter id="jSgLTrv6pVMju2DfQ9SyeIOIGIIJW4VO" width="270.648" height="254.338" x="-7.32" y="2.95" filterUnits="userSpaceOnUse">
   <feGaussianBlur xmlns="http://www.w3.org/2000/svg" in="SourceGraphic" stdDeviation="4.294"/>
   <feOffset xmlns="http://www.w3.org/2000/svg" dx="0" dy="4" result="pf_100_offsetBlur"/>
   <feFlood xmlns="http://www.w3.org/2000/svg" flood-opacity=".4"/>
   <feComposite xmlns="http://www.w3.org/2000/svg" in2="pf_100_offsetBlur" operator="in" result="pf_100_dropShadow"/>
   <feBlend xmlns="http://www.w3.org/2000/svg" in="SourceGraphic" in2="pf_100_dropShadow" mode="normal"/>
  </filter>
 </defs>
 <g filter="url(#jSgLTrv6pVMju2DfQ9SyeIOIGIIJW4VO)">
  <path fill="#1463A5" d="M 165.685 11.947 C 239.74 11.947 250.324 22.504 250.324 96.491 L 250.324 155.742 C 250.324 229.728 239.74 240.285 165.685 240.285 L 90.315 240.285 C 16.26 240.285 5.676 229.728 5.676 155.742 L 5.676 96.491 C 5.676 22.504 16.26 11.947 90.315 11.947 L 165.685 11.947 Z"/>
 </g>
 <g opacity=".1">
  <path fill="#FFFFFF" d="M 5.676 126.116 L 5.676 155.742 C 5.676 229.728 16.26 240.285 90.315 240.285 L 165.685 240.285 C 239.74 240.285 250.324 229.728 250.324 155.742 L 250.324 126.116 L 5.676 126.116 Z"/>
 </g>
 <g opacity=".4">
  <linearGradient id="_lgradient_156" x1=".517" x2=".517" y1="0" y2="1">
   <stop offset="0%" style="stop-color:rgb(255,255,255)"/>
   <stop offset="12.5%" stop-opacity=".098" style="stop-color:rgb(255,255,255)"/>
   <stop offset="92.5%" stop-opacity=".098" style="stop-color:rgb(0,0,0)"/>
   <stop offset="100%" stop-opacity=".498" style="stop-color:rgb(0,0,0)"/>
  </linearGradient>
  <path fill="none" stroke="url(#_lgradient_156)" stroke-linecap="round" stroke-linejoin="round" stroke-width="4.077" d="M 165.685 11.947 C 239.74 11.947 250.324 22.504 250.324 96.491 L 250.324 155.742 C 250.324 229.728 239.74 240.285 165.685 240.285 L 90.315 240.285 C 16.26 240.285 5.676 229.728 5.676 155.742 L 5.676 96.491 C 5.676 22.504 16.26 11.947 90.315 11.947 L 165.685 11.947 Z" vector-effect="non-scaling-stroke"/>
 </g>
 <path fill="#FFFFFF" d="M 178.492 126.811 L 175.265 110.844 L 172.076 126.625 L 165.771 126.443 C 165.548 126.124 165.258 125.849 164.909 125.647 L 158.186 121.765 L 148.98 77.04 L 141.73 112.264 L 107.955 92.764 L 106.533 87.239 L 105.479 91.336 L 92.722 83.97 C 91.881 83.484 90.845 83.484 90.005 83.97 C 89.164 84.456 88.646 85.353 88.646 86.324 L 88.646 126.489 L 83.44 126.639 L 80.248 110.844 L 77.019 126.825 L 37.511 127.964 L 83.983 129.304 L 88.646 151.955 L 88.646 169.677 C 88.646 170.648 89.164 171.545 90.005 172.031 C 90.425 172.273 90.894 172.395 91.363 172.395 C 91.832 172.395 92.302 172.273 92.722 172.031 L 122.978 154.562 L 128 178.96 L 134.377 147.981 L 160.48 132.91 L 165.633 157.946 L 171.526 129.318 L 218.489 127.964 L 178.492 126.811 Z"/>
</svg>
