<svg xmlns="http://www.w3.org/2000/svg" style="isolation:isolate" width="256" height="256"><switch><g><defs><filter id="a" width="270.648" height="254.338" x="-7.32" y="2.95" filterUnits="userSpaceOnUse"><feGaussianBlur xmlns="http://www.w3.org/2000/svg" in="SourceGraphic" stdDeviation="4.294"/><feOffset xmlns="http://www.w3.org/2000/svg" dy="4" result="pf_100_offsetBlur"/><feFlood xmlns="http://www.w3.org/2000/svg" flood-opacity=".4"/><feComposite xmlns="http://www.w3.org/2000/svg" in2="pf_100_offsetBlur" operator="in" result="pf_100_dropShadow"/><feBlend xmlns="http://www.w3.org/2000/svg" in="SourceGraphic" in2="pf_100_dropShadow"/></filter></defs><path fill="#2DAAAA" d="M165.685 11.947c74.055 0 84.639 10.557 84.639 84.544v59.251c0 73.986-10.584 84.543-84.639 84.543h-75.37c-74.055 0-84.639-10.557-84.639-84.543V96.491c0-73.987 10.584-84.544 84.639-84.544h75.37z" filter="url(#a)"/><path fill="#FFF" d="M5.676 126.116v29.626c0 73.986 10.584 84.543 84.639 84.543h75.37c74.055 0 84.639-10.557 84.639-84.543v-29.626H5.676z" opacity=".1"/><g opacity=".4"><linearGradient id="b" x1=".517" x2=".517" y2="1"><stop offset="0%" stop-color="#fff"/><stop offset="12.5%" stop-opacity=".098" stop-color="#fff"/><stop offset="92.5%" stop-opacity=".098"/><stop offset="100%" stop-opacity=".498"/></linearGradient><path fill="none" stroke="url(#b)" stroke-linecap="round" stroke-linejoin="round" stroke-width="4.077" d="M165.685 11.947c74.055 0 84.639 10.557 84.639 84.544v59.251c0 73.986-10.584 84.543-84.639 84.543h-75.37c-74.055 0-84.639-10.557-84.639-84.543V96.491c0-73.987 10.584-84.544 84.639-84.544h75.37z" vector-effect="non-scaling-stroke"/></g><g fill="#ECECEC"><path d="M103.852 63.675c-2.953.196-6.104 2.815-8.777 8.787-2.869 6.41-3.946 12.846-1.199 25.18l1.207 5.413c-8.964 7.71-20.236 17.574-21.439 31.637-1.513 17.79 17.447 31.007 34.468 26.873l2.416 10.854c1.193 5.354.398 12.719-4.852 16.096-2.6 1.678-11.804 2.825-14.055-1.179l-6.476-8.188c-.825 4.188 3.765 12.891 13.001 13.175 11.165.344 18.295-7.786 14.972-21.053l-2.388-10.506c10.778-4.244 16.123-20.06 9.221-28.36-5.403-6.504-11.717-8.194-17.321-7.211l-3.035-13.319c6.171-6.997 11.398-14.534 13.407-23.951 2.848-13.355-2.659-24.682-9.154-24.244m2.64 9.125c.948-.07 1.706.19 2.137.793.982 1.373 3.353 7.797-3.403 19.303-1.471 2.502-4.489 5.263-8.042 8.342l-.725-3.171c-1.984-8.715-.499-13.452.561-16.268 2.125-5.638 6.63-8.791 9.474-8.999h-.002zm-8.931 41.38l2.591 11.62c-12.489 4.156-19.611 21.781.011 28.147-3.185-2.386-5.355-4.23-5.761-6.486-1.477-8.25 2.488-12.574 7.53-13.667l5.557 24.948c-6.262 1.886-14.377.747-19.892-4.024-7.41-6.404-10.702-18.746-2.454-27.605 4.061-4.364 8.388-8.572 12.42-12.943l-.002.01zm6.968 19.333c7.896-.044 16.545 6.925 11.291 18.637-1.1 2.452-3.207 4.264-5.79 5.529l-5.501-24.164v-.002z"/><path d="M100.72 180.077c-.082 4.195-3.667 7.538-8 7.46-4.333-.077-7.783-3.546-7.701-7.74.083-4.195 3.668-7.537 8.001-7.46 4.333.077 7.783 3.546 7.7 7.74zM160.171 93.6c-14.847 0-22.271 7.548-22.271 24.745h14.847c0-9.898 7.424-9.898 7.424-9.898s7.423 0 7.423 7.424c0 14.629-14.847 2.474-14.847 32.168h14.847c.06-22.27 14.847-10.635 14.847-34.643 0-14.847-7.423-19.796-22.27-19.796zm-7.424 59.388v14.847h14.847v-14.847h-14.847z"/></g></g></switch> </svg>