<?xml version="1.0" standalone="no"?><!-- Generator: Gravit.io --><svg xmlns="http://www.w3.org/2000/svg" xmlns:xlink="http://www.w3.org/1999/xlink" style="isolation:isolate" viewBox="0 0 256 256" width="256" height="256"><defs><clipPath id="_clipPath_gmkftefpmO1hbj2TL5j2q5hO5MlyhhRm"><rect width="256" height="256"/></clipPath></defs><g clip-path="url(#_clipPath_gmkftefpmO1hbj2TL5j2q5hO5MlyhhRm)"><rect width="256" height="256" style="fill:rgba(0,0,0,0)"/><g id="icon"><g id="drop shadow"><defs><filter id="AQZ9ilwjOzV2XukqChhjQ1nA6nZfIQdS" x="-200%" y="-200%" width="400%" height="400%"><feGaussianBlur xmlns="http://www.w3.org/2000/svg" stdDeviation="2.32"/></filter></defs><g opacity="0.2" filter="url(#AQZ9ilwjOzV2XukqChhjQ1nA6nZfIQdS)"><path d=" M 165.685 15.849 C 239.741 15.849 250.325 26.407 250.325 100.394 L 250.325 159.645 C 250.325 233.632 239.741 244.189 165.685 244.189 L 90.315 244.189 C 16.259 244.189 5.675 233.632 5.675 159.645 L 5.675 100.394 C 5.675 26.407 16.259 15.849 90.315 15.849 L 165.685 15.849 Z " fill="rgb(0,0,0)"/></g><defs><filter id="DbAwH3FVF4AUybrpneKQf7BhwA78sBDe" x="-200%" y="-200%" width="400%" height="400%"><feGaussianBlur xmlns="http://www.w3.org/2000/svg" stdDeviation="1.16"/></filter></defs><g opacity="0.1" filter="url(#DbAwH3FVF4AUybrpneKQf7BhwA78sBDe)"><path d=" M 165.685 14.83 C 239.741 14.83 250.325 25.387 250.325 99.374 L 250.325 158.626 C 250.325 232.612 239.741 243.17 165.685 243.17 L 90.315 243.17 C 16.259 243.17 5.675 232.612 5.675 158.626 L 5.675 99.374 C 5.675 25.387 16.259 14.83 90.315 14.83 L 165.685 14.83 Z " fill="rgb(0,0,0)"/></g></g><path d=" M 165.685 13.811 C 239.741 13.811 250.325 24.368 250.325 98.355 L 250.325 157.606 C 250.325 231.593 239.741 242.151 165.685 242.151 L 90.315 242.151 C 16.259 242.151 5.675 231.593 5.675 157.606 L 5.675 98.355 C 5.675 24.368 16.259 13.811 90.315 13.811 L 165.685 13.811 Z " fill="rgb(255,255,255)"/><clipPath id="_clipPath_YQeE6oUjaqNF69vzsGvgRr5SILG2t1It"><path d=" M 165.685 13.811 C 239.741 13.811 250.325 24.368 250.325 98.355 L 250.325 157.606 C 250.325 231.593 239.741 242.151 165.685 242.151 L 90.315 242.151 C 16.259 242.151 5.675 231.593 5.675 157.606 L 5.675 98.355 C 5.675 24.368 16.259 13.811 90.315 13.811 L 165.685 13.811 Z " fill="rgb(255,255,255)"/></clipPath><g clip-path="url(#_clipPath_YQeE6oUjaqNF69vzsGvgRr5SILG2t1It)"><path d=" M 165.685 13.811 C 239.741 13.811 250.325 24.368 250.325 98.355 L 250.325 157.606 C 250.325 231.593 239.741 242.151 165.685 242.151 L 90.315 242.151 C 16.259 242.151 5.675 231.593 5.675 157.606 L 5.675 98.355 C 5.675 24.368 16.259 13.811 90.315 13.811 L 165.685 13.811 Z " fill="rgb(203,230,103)"/><g opacity="0.1"><path d=" M 91.316 242.316 C 17.26 242.316 6.677 231.759 6.677 157.772 L 6.677 128.147 L 251.325 128.147 L 251.325 157.772 C 251.325 231.759 240.741 242.316 166.686 242.316 L 91.316 242.316 Z " fill="rgb(255,255,255)"/></g><g opacity="0.1"><path d=" M 129.001 13.977 L 129.001 242.316 L 166.686 242.316 C 240.741 242.316 251.325 231.758 251.325 157.772 L 251.325 98.521 C 251.325 24.534 240.741 13.977 166.686 13.977 L 129.001 13.977 Z " fill="rgb(255,255,255)"/></g></g><g id="highlight"><clipPath id="_clipPath_PBGXvmf1oD03gewqe41s61SvxU48dcrx"><path d=" M 165.685 13.811 C 239.741 13.811 250.325 24.368 250.325 98.355 L 250.325 157.606 C 250.325 231.593 239.741 242.151 165.685 242.151 L 90.315 242.151 C 16.259 242.151 5.675 231.593 5.675 157.606 L 5.675 98.355 C 5.675 24.368 16.259 13.811 90.315 13.811 L 165.685 13.811 Z " fill="rgb(255,255,255)"/></clipPath><g clip-path="url(#_clipPath_PBGXvmf1oD03gewqe41s61SvxU48dcrx)"><g opacity="0.4"><linearGradient id="_lgradient_12" x1="51.666666666666686%" y1="0%" x2="51.66666666666666%" y2="100.00000000000003%"><stop offset="0%" stop-opacity="1" style="stop-color:rgb(255,255,255)"/><stop offset="12.5%" stop-opacity="0.09803922" style="stop-color:rgb(255,255,255)"/><stop offset="92.500001%" stop-opacity="0.09803922" style="stop-color:rgb(0,0,0)"/><stop offset="100%" stop-opacity="0.49803922" style="stop-color:rgb(0,0,0)"/></linearGradient><path d=" M 165.685 13.811 C 239.741 13.811 250.325 24.368 250.325 98.355 L 250.325 157.606 C 250.325 231.593 239.741 242.151 165.685 242.151 L 90.315 242.151 C 16.259 242.151 5.675 231.593 5.675 157.606 L 5.675 98.355 C 5.675 24.368 16.259 13.811 90.315 13.811 L 165.685 13.811 Z " fill="none" vector-effect="non-scaling-stroke" stroke-width="4" stroke="url(#_lgradient_12)" stroke-linejoin="round" stroke-linecap="round" stroke-miterlimit="4"/></g></g></g></g><g id="pictogram"><g opacity="0.1"><path d=" M 128 52.074 C 76.477 52.074 22.001 210 128 210 C 233.999 210 179.523 52.074 128 52.074 Z " fill-rule="evenodd" fill="rgb(0,0,0)"/></g><path d=" M 128 46 C 76.477 46 22.001 203.926 128 203.926 C 233.999 203.926 179.523 46 128 46 Z " fill-rule="evenodd" fill="rgb(162,194,46)"/><path d=" M 128 52.074 C 81.63 52.074 32.601 197.852 128 197.852 C 223.399 197.852 174.37 52.074 128 52.074 Z " fill-rule="evenodd" fill="rgb(255,230,128)"/><g opacity="0.1"><path d=" M 128 106.741 C 102.239 106.741 75.001 185.704 128 185.704 C 180.999 185.704 153.761 106.741 128 106.741 Z " fill-rule="evenodd" fill="rgb(0,0,0)"/></g><path d=" M 128 100.667 C 102.239 100.667 75.001 179.63 128 179.63 C 180.999 179.63 153.761 100.667 128 100.667 Z " fill-rule="evenodd" fill="rgb(126,80,47)"/></g></g></svg>