<?xml version="1.0" encoding="UTF-8" standalone="no"?>
<!-- Created with Inkscape (http://www.inkscape.org/) -->

<svg
   xmlns:dc="http://purl.org/dc/elements/1.1/"
   xmlns:cc="http://creativecommons.org/ns#"
   xmlns:rdf="http://www.w3.org/1999/02/22-rdf-syntax-ns#"
   xmlns:svg="http://www.w3.org/2000/svg"
   xmlns="http://www.w3.org/2000/svg"
   xmlns:xlink="http://www.w3.org/1999/xlink"
   xmlns:sodipodi="http://sodipodi.sourceforge.net/DTD/sodipodi-0.dtd"
   xmlns:inkscape="http://www.inkscape.org/namespaces/inkscape"
   width="256"
   height="256"
   viewBox="0 0 67.733332 67.733335"
   version="1.1"
   id="svg1488"
   inkscape:version="0.92.3 (2405546, 2018-03-11)"
   sodipodi:docname="avogadro.svg">
  <defs
     id="defs1482">
    <clipPath
       clipPathUnits="userSpaceOnUse"
       id="clipPath1025">
      <path
         id="path1027"
         d="M 111.94141,84 C 99.359506,84.145 90.1531,83.713998 82.625,87.867188 c -3.7641,2.0768 -6.751838,5.574737 -8.398438,9.960937 C 72.580062,102.21433 72,107.4241 72,114 v 42 h 160 v -26 c 0,-6.5759 -0.57996,-11.78566 -2.22656,-16.17188 -0.205,-0.5455 -0.47919,-1.03993 -0.74219,-1.54296 -0.1,-0.1848 -0.17844,-0.38051 -0.27344,-0.56641 -1.727,-3.38752 -4.25471,-6.14522 -7.38281,-7.87109 C 213.8463,99.694146 204.64049,100.1454 192.05859,100 H 192 151.66797 L 135.45312,84 h -23.49218 z"
         style="color:#000000;font-style:normal;font-variant:normal;font-weight:normal;font-stretch:normal;font-size:medium;line-height:normal;font-family:sans-serif;font-variant-ligatures:none;font-variant-position:normal;font-variant-caps:normal;font-variant-numeric:normal;font-variant-alternates:normal;font-feature-settings:normal;text-indent:0;text-align:start;text-decoration:none;text-decoration-line:none;text-decoration-style:solid;text-decoration-color:#000000;letter-spacing:normal;word-spacing:normal;text-transform:none;writing-mode:lr-tb;direction:ltr;baseline-shift:baseline;text-anchor:start;white-space:normal;shape-padding:0;clip-rule:nonzero;display:inline;overflow:visible;visibility:visible;opacity:1;isolation:auto;mix-blend-mode:normal;color-interpolation:sRGB;color-interpolation-filters:linearRGB;solid-color:#000000;solid-opacity:1;fill:#e3dfd5;fill-opacity:1;fill-rule:nonzero;stroke:none;stroke-width:4.00000048;stroke-linecap:butt;stroke-linejoin:miter;stroke-miterlimit:4;stroke-dasharray:none;stroke-dashoffset:0;stroke-opacity:1;marker:none;color-rendering:auto;image-rendering:auto;shape-rendering:auto;text-rendering:auto;enable-background:accumulate"
         inkscape:connector-curvature="0" />
    </clipPath>
    <clipPath
       clipPathUnits="userSpaceOnUse"
       id="clipPath1082-3">
      <path
         sodipodi:nodetypes="sssssssss"
         inkscape:connector-curvature="0"
         id="path1084-6"
         d="M 361.9375,-212 C 507.2348,-212 528,-191.28677 528,-46.125 V 70.125 C 528,215.28618 507.2348,236 361.9375,236 H 214.0625 C 68.7652,236 48,215.28618 48,70.125 V -46.125 C 48,-191.28677 68.7652,-212 214.0625,-212 Z"
         style="display:inline;opacity:1;fill:#8c59d9;fill-opacity:1;stroke:none;stroke-width:2;stroke-linecap:round;stroke-linejoin:round;stroke-miterlimit:4;stroke-dasharray:none;stroke-dashoffset:0;stroke-opacity:1;enable-background:new" />
    </clipPath>
    <clipPath
       clipPathUnits="userSpaceOnUse"
       id="clipPath1082-3-5">
      <path
         sodipodi:nodetypes="sssssssss"
         inkscape:connector-curvature="0"
         id="path1084-6-6"
         d="M 361.9375,-212 C 507.2348,-212 528,-191.28677 528,-46.125 V 70.125 C 528,215.28618 507.2348,236 361.9375,236 H 214.0625 C 68.7652,236 48,215.28618 48,70.125 V -46.125 C 48,-191.28677 68.7652,-212 214.0625,-212 Z"
         style="display:inline;opacity:1;fill:#8c59d9;fill-opacity:1;stroke:none;stroke-width:2;stroke-linecap:round;stroke-linejoin:round;stroke-miterlimit:4;stroke-dasharray:none;stroke-dashoffset:0;stroke-opacity:1;enable-background:new" />
    </clipPath>
    <clipPath
       clipPathUnits="userSpaceOnUse"
       id="clipPath1082-3-9">
      <path
         sodipodi:nodetypes="sssssssss"
         inkscape:connector-curvature="0"
         id="path1084-6-3"
         d="M 361.9375,-212 C 507.2348,-212 528,-191.28677 528,-46.125 V 70.125 C 528,215.28618 507.2348,236 361.9375,236 H 214.0625 C 68.7652,236 48,215.28618 48,70.125 V -46.125 C 48,-191.28677 68.7652,-212 214.0625,-212 Z"
         style="display:inline;opacity:1;fill:#8c59d9;fill-opacity:1;stroke:none;stroke-width:2;stroke-linecap:round;stroke-linejoin:round;stroke-miterlimit:4;stroke-dasharray:none;stroke-dashoffset:0;stroke-opacity:1;enable-background:new" />
    </clipPath>
    <clipPath
       clipPathUnits="userSpaceOnUse"
       id="clipPath1082-3-3">
      <path
         sodipodi:nodetypes="sssssssss"
         inkscape:connector-curvature="0"
         id="path1084-6-67"
         d="M 361.9375,-212 C 507.2348,-212 528,-191.28677 528,-46.125 V 70.125 C 528,215.28618 507.2348,236 361.9375,236 H 214.0625 C 68.7652,236 48,215.28618 48,70.125 V -46.125 C 48,-191.28677 68.7652,-212 214.0625,-212 Z"
         style="display:inline;opacity:1;fill:#8c59d9;fill-opacity:1;stroke:none;stroke-width:2;stroke-linecap:round;stroke-linejoin:round;stroke-miterlimit:4;stroke-dasharray:none;stroke-dashoffset:0;stroke-opacity:1;enable-background:new" />
    </clipPath>
    <clipPath
       clipPathUnits="userSpaceOnUse"
       id="clipPath1082-3-53">
      <path
         sodipodi:nodetypes="sssssssss"
         inkscape:connector-curvature="0"
         id="path1084-6-5"
         d="M 361.9375,-212 C 507.2348,-212 528,-191.28677 528,-46.125 V 70.125 C 528,215.28618 507.2348,236 361.9375,236 H 214.0625 C 68.7652,236 48,215.28618 48,70.125 V -46.125 C 48,-191.28677 68.7652,-212 214.0625,-212 Z"
         style="display:inline;opacity:1;fill:#8c59d9;fill-opacity:1;stroke:none;stroke-width:2;stroke-linecap:round;stroke-linejoin:round;stroke-miterlimit:4;stroke-dasharray:none;stroke-dashoffset:0;stroke-opacity:1;enable-background:new" />
    </clipPath>
    <clipPath
       clipPathUnits="userSpaceOnUse"
       id="clipPath1082-3-6">
      <path
         sodipodi:nodetypes="sssssssss"
         inkscape:connector-curvature="0"
         id="path1084-6-2"
         d="M 361.9375,-212 C 507.2348,-212 528,-191.28677 528,-46.125 V 70.125 C 528,215.28618 507.2348,236 361.9375,236 H 214.0625 C 68.7652,236 48,215.28618 48,70.125 V -46.125 C 48,-191.28677 68.7652,-212 214.0625,-212 Z"
         style="display:inline;opacity:1;fill:#8c59d9;fill-opacity:1;stroke:none;stroke-width:2;stroke-linecap:round;stroke-linejoin:round;stroke-miterlimit:4;stroke-dasharray:none;stroke-dashoffset:0;stroke-opacity:1;enable-background:new" />
    </clipPath>
    <clipPath
       clipPathUnits="userSpaceOnUse"
       id="clipPath1082-3-91">
      <path
         sodipodi:nodetypes="sssssssss"
         inkscape:connector-curvature="0"
         id="path1084-6-27"
         d="M 361.9375,-212 C 507.2348,-212 528,-191.28677 528,-46.125 V 70.125 C 528,215.28618 507.2348,236 361.9375,236 H 214.0625 C 68.7652,236 48,215.28618 48,70.125 V -46.125 C 48,-191.28677 68.7652,-212 214.0625,-212 Z"
         style="display:inline;opacity:1;fill:#8c59d9;fill-opacity:1;stroke:none;stroke-width:2;stroke-linecap:round;stroke-linejoin:round;stroke-miterlimit:4;stroke-dasharray:none;stroke-dashoffset:0;stroke-opacity:1;enable-background:new" />
    </clipPath>
    <clipPath
       clipPathUnits="userSpaceOnUse"
       id="clipPath1025-0">
      <path
         style="opacity:1;fill:#8c59d9;fill-opacity:1;stroke:none;stroke-width:2;stroke-linecap:round;stroke-linejoin:round;stroke-miterlimit:4;stroke-dasharray:none;stroke-dashoffset:0;stroke-opacity:1"
         d="M 329.9375,32 C 475.2348,32 496,52.71323 496,197.875 v 116.25 C 496,459.28618 475.2348,480 329.9375,480 H 182.0625 C 36.7652,480 16,459.28618 16,314.125 V 197.875 C 16,52.71323 36.7652,32 182.0625,32 Z"
         id="path1027-9"
         inkscape:connector-curvature="0"
         sodipodi:nodetypes="sssssssss" />
    </clipPath>
    <clipPath
       clipPathUnits="userSpaceOnUse"
       id="clipPath4277-8">
      <rect
         style="color:#000000;display:inline;overflow:visible;visibility:visible;opacity:0.81999972;fill:#88b637;fill-opacity:1;fill-rule:nonzero;stroke:none;stroke-width:2;stroke-linecap:butt;stroke-linejoin:miter;stroke-miterlimit:4;stroke-dasharray:none;stroke-dashoffset:0;stroke-opacity:1;marker:none;enable-background:accumulate"
         id="rect4279-6"
         width="512"
         height="512"
         x="5.5999999e-07"
         y="0"
         ry="1" />
    </clipPath>
    <linearGradient
       id="linearGradient3650-7-9">
      <stop
         style="stop-color:#5884f4;stop-opacity:1"
         offset="0"
         id="stop4366" />
      <stop
         id="stop4368"
         offset="1"
         style="stop-color:#80a3fa;stop-opacity:1" />
    </linearGradient>
    <clipPath
       clipPathUnits="userSpaceOnUse"
       id="clipPath1082-3-36">
      <path
         sodipodi:nodetypes="sssssssss"
         inkscape:connector-curvature="0"
         id="path1084-6-0"
         d="M 361.9375,-212 C 507.2348,-212 528,-191.28677 528,-46.125 V 70.125 C 528,215.28618 507.2348,236 361.9375,236 H 214.0625 C 68.7652,236 48,215.28618 48,70.125 V -46.125 C 48,-191.28677 68.7652,-212 214.0625,-212 Z"
         style="display:inline;opacity:1;fill:#8c59d9;fill-opacity:1;stroke:none;stroke-width:2;stroke-linecap:round;stroke-linejoin:round;stroke-miterlimit:4;stroke-dasharray:none;stroke-dashoffset:0;stroke-opacity:1;enable-background:new" />
    </clipPath>
    <clipPath
       clipPathUnits="userSpaceOnUse"
       id="clipPath983">
      <path
         id="path985"
         d="M 115.03125,44 C 42.3826,44 32,54.356615 32,126.9375 v 58.125 C 32,257.64309 42.3826,268 115.03125,268 H 152 V 44 Z"
         style="opacity:1;fill:#4d4d4d;fill-opacity:1;stroke:none;stroke-width:2;stroke-linecap:round;stroke-linejoin:round;stroke-miterlimit:4;stroke-dasharray:none;stroke-dashoffset:0;stroke-opacity:1"
         inkscape:connector-curvature="0" />
    </clipPath>
    <clipPath
       clipPathUnits="userSpaceOnUse"
       id="clipPath1082-3-62">
      <path
         sodipodi:nodetypes="sssssssss"
         inkscape:connector-curvature="0"
         id="path1084-6-61"
         d="M 361.9375,-212 C 507.2348,-212 528,-191.28677 528,-46.125 V 70.125 C 528,215.28618 507.2348,236 361.9375,236 H 214.0625 C 68.7652,236 48,215.28618 48,70.125 V -46.125 C 48,-191.28677 68.7652,-212 214.0625,-212 Z"
         style="display:inline;opacity:1;fill:#8c59d9;fill-opacity:1;stroke:none;stroke-width:2;stroke-linecap:round;stroke-linejoin:round;stroke-miterlimit:4;stroke-dasharray:none;stroke-dashoffset:0;stroke-opacity:1;enable-background:new" />
    </clipPath>
    <clipPath
       clipPathUnits="userSpaceOnUse"
       id="clipPath949">
      <path
         sodipodi:nodetypes="sssssssss"
         inkscape:connector-curvature="0"
         id="path951"
         d="M 329.9375,32 C 475.2348,32 496,52.71323 496,197.875 v 116.25 C 496,459.28618 475.2348,480 329.9375,480 H 182.0625 C 36.7652,480 16,459.28618 16,314.125 V 197.875 C 16,52.71323 36.7652,32 182.0625,32 Z"
         style="opacity:1;fill:#eab305;fill-opacity:1;stroke:none;stroke-width:4;stroke-linecap:round;stroke-linejoin:round;stroke-miterlimit:4;stroke-dasharray:none;stroke-dashoffset:0;stroke-opacity:1" />
    </clipPath>
    <clipPath
       clipPathUnits="userSpaceOnUse"
       id="clipPath954">
      <path
         sodipodi:nodetypes="sssssssss"
         inkscape:connector-curvature="0"
         id="path952"
         d="M 329.9375,32 C 475.2348,32 496,52.71323 496,197.875 v 116.25 C 496,459.28618 475.2348,480 329.9375,480 H 182.0625 C 36.7652,480 16,459.28618 16,314.125 V 197.875 C 16,52.71323 36.7652,32 182.0625,32 Z"
         style="opacity:1;fill:#eab305;fill-opacity:1;stroke:none;stroke-width:4;stroke-linecap:round;stroke-linejoin:round;stroke-miterlimit:4;stroke-dasharray:none;stroke-dashoffset:0;stroke-opacity:1" />
    </clipPath>
    <clipPath
       clipPathUnits="userSpaceOnUse"
       id="clipPath1082-3-8">
      <path
         sodipodi:nodetypes="sssssssss"
         inkscape:connector-curvature="0"
         id="path1084-6-7"
         d="M 361.9375,-212 C 507.2348,-212 528,-191.28677 528,-46.125 V 70.125 C 528,215.28618 507.2348,236 361.9375,236 H 214.0625 C 68.7652,236 48,215.28618 48,70.125 V -46.125 C 48,-191.28677 68.7652,-212 214.0625,-212 Z"
         style="display:inline;opacity:1;fill:#8c59d9;fill-opacity:1;stroke:none;stroke-width:2;stroke-linecap:round;stroke-linejoin:round;stroke-miterlimit:4;stroke-dasharray:none;stroke-dashoffset:0;stroke-opacity:1;enable-background:new" />
    </clipPath>
    <clipPath
       clipPathUnits="userSpaceOnUse"
       id="clipPath1082-3-92">
      <path
         sodipodi:nodetypes="sssssssss"
         inkscape:connector-curvature="0"
         id="path1084-6-02"
         d="M 361.9375,-212 C 507.2348,-212 528,-191.28677 528,-46.125 V 70.125 C 528,215.28618 507.2348,236 361.9375,236 H 214.0625 C 68.7652,236 48,215.28618 48,70.125 V -46.125 C 48,-191.28677 68.7652,-212 214.0625,-212 Z"
         style="display:inline;opacity:1;fill:#8c59d9;fill-opacity:1;stroke:none;stroke-width:2;stroke-linecap:round;stroke-linejoin:round;stroke-miterlimit:4;stroke-dasharray:none;stroke-dashoffset:0;stroke-opacity:1;enable-background:new" />
    </clipPath>
    <clipPath
       clipPathUnits="userSpaceOnUse"
       id="clipPath1082">
      <path
         sodipodi:nodetypes="sssssssss"
         inkscape:connector-curvature="0"
         id="path1084"
         d="M 361.9375,-212 C 507.2348,-212 528,-191.28677 528,-46.125 V 70.125 C 528,215.28618 507.2348,236 361.9375,236 H 214.0625 C 68.7652,236 48,215.28618 48,70.125 V -46.125 C 48,-191.28677 68.7652,-212 214.0625,-212 Z"
         style="display:inline;opacity:1;fill:#8c59d9;fill-opacity:1;stroke:none;stroke-width:2;stroke-linecap:round;stroke-linejoin:round;stroke-miterlimit:4;stroke-dasharray:none;stroke-dashoffset:0;stroke-opacity:1;enable-background:new" />
    </clipPath>
    <clipPath
       clipPathUnits="userSpaceOnUse"
       id="clipPath1082-3-361">
      <path
         sodipodi:nodetypes="sssssssss"
         inkscape:connector-curvature="0"
         id="path1084-6-29"
         d="M 361.9375,-212 C 507.2348,-212 528,-191.28677 528,-46.125 V 70.125 C 528,215.28618 507.2348,236 361.9375,236 H 214.0625 C 68.7652,236 48,215.28618 48,70.125 V -46.125 C 48,-191.28677 68.7652,-212 214.0625,-212 Z"
         style="display:inline;opacity:1;fill:#8c59d9;fill-opacity:1;stroke:none;stroke-width:2;stroke-linecap:round;stroke-linejoin:round;stroke-miterlimit:4;stroke-dasharray:none;stroke-dashoffset:0;stroke-opacity:1;enable-background:new" />
    </clipPath>
    <clipPath
       clipPathUnits="userSpaceOnUse"
       id="clipPath1079">
      <circle
         cx="213.84277"
         cy="146"
         r="55"
         style="color:#000000;display:inline;overflow:visible;visibility:visible;opacity:1;fill:url(#linearGradient1083);fill-opacity:1;fill-rule:nonzero;stroke:none;stroke-width:7.99999952;stroke-linecap:butt;stroke-linejoin:miter;stroke-miterlimit:4;stroke-dasharray:none;stroke-dashoffset:0;stroke-opacity:1;marker:none;enable-background:accumulate"
         id="circle1081"
         transform="scale(-1,1)" />
    </clipPath>
    <clipPath
       clipPathUnits="userSpaceOnUse"
       id="clipPath984">
      <circle
         cx="213.84277"
         cy="146"
         r="55"
         style="color:#000000;display:inline;overflow:visible;visibility:visible;opacity:1;fill:url(#linearGradient1083);fill-opacity:1;fill-rule:nonzero;stroke:none;stroke-width:7.99999952;stroke-linecap:butt;stroke-linejoin:miter;stroke-miterlimit:4;stroke-dasharray:none;stroke-dashoffset:0;stroke-opacity:1;marker:none;enable-background:accumulate"
         id="circle982"
         transform="scale(-1,1)" />
    </clipPath>
    <clipPath
       clipPathUnits="userSpaceOnUse"
       id="clipPath988">
      <circle
         cx="213.84277"
         cy="146"
         r="55"
         style="color:#000000;display:inline;overflow:visible;visibility:visible;opacity:1;fill:url(#linearGradient1083);fill-opacity:1;fill-rule:nonzero;stroke:none;stroke-width:7.99999952;stroke-linecap:butt;stroke-linejoin:miter;stroke-miterlimit:4;stroke-dasharray:none;stroke-dashoffset:0;stroke-opacity:1;marker:none;enable-background:accumulate"
         id="circle986"
         transform="scale(-1,1)" />
    </clipPath>
    <clipPath
       clipPathUnits="userSpaceOnUse"
       id="clipPath992">
      <circle
         cx="213.84277"
         cy="146"
         r="55"
         style="color:#000000;display:inline;overflow:visible;visibility:visible;opacity:1;fill:url(#linearGradient1083);fill-opacity:1;fill-rule:nonzero;stroke:none;stroke-width:7.99999952;stroke-linecap:butt;stroke-linejoin:miter;stroke-miterlimit:4;stroke-dasharray:none;stroke-dashoffset:0;stroke-opacity:1;marker:none;enable-background:accumulate"
         id="circle990"
         transform="scale(-1,1)" />
    </clipPath>
    <clipPath
       clipPathUnits="userSpaceOnUse"
       id="clipPath1082-3-31">
      <path
         sodipodi:nodetypes="sssssssss"
         inkscape:connector-curvature="0"
         id="path1084-6-9"
         d="M 361.9375,-212 C 507.2348,-212 528,-191.28677 528,-46.125 V 70.125 C 528,215.28618 507.2348,236 361.9375,236 H 214.0625 C 68.7652,236 48,215.28618 48,70.125 V -46.125 C 48,-191.28677 68.7652,-212 214.0625,-212 Z"
         style="display:inline;opacity:1;fill:#8c59d9;fill-opacity:1;stroke:none;stroke-width:2;stroke-linecap:round;stroke-linejoin:round;stroke-miterlimit:4;stroke-dasharray:none;stroke-dashoffset:0;stroke-opacity:1;enable-background:new" />
    </clipPath>
    <clipPath
       clipPathUnits="userSpaceOnUse"
       id="clipPath1205">
      <path
         id="path1207"
         d="M 115.03125,44 C 42.3826,44 32,54.356615 32,126.9375 v 58.125 c 0,13.772 0.379014,25.29352 1.482422,34.9375 H 270.51758 C 271.62099,210.35602 272,198.8345 272,185.0625 v -58.125 C 272,54.356615 261.6174,44 188.96875,44 Z"
         style="opacity:1;fill:#f1f0e9;fill-opacity:1;stroke:none;stroke-width:2;stroke-linecap:round;stroke-linejoin:round;stroke-miterlimit:4;stroke-dasharray:none;stroke-dashoffset:0;stroke-opacity:1"
         inkscape:connector-curvature="0" />
    </clipPath>
    <clipPath
       clipPathUnits="userSpaceOnUse"
       id="clipPath1082-3-4">
      <path
         sodipodi:nodetypes="sssssssss"
         inkscape:connector-curvature="0"
         id="path1084-6-78"
         d="M 361.9375,-212 C 507.2348,-212 528,-191.28677 528,-46.125 V 70.125 C 528,215.28618 507.2348,236 361.9375,236 H 214.0625 C 68.7652,236 48,215.28618 48,70.125 V -46.125 C 48,-191.28677 68.7652,-212 214.0625,-212 Z"
         style="display:inline;opacity:1;fill:#8c59d9;fill-opacity:1;stroke:none;stroke-width:2;stroke-linecap:round;stroke-linejoin:round;stroke-miterlimit:4;stroke-dasharray:none;stroke-dashoffset:0;stroke-opacity:1;enable-background:new" />
    </clipPath>
    <clipPath
       clipPathUnits="userSpaceOnUse"
       id="clipPath1082-3-45">
      <path
         sodipodi:nodetypes="sssssssss"
         inkscape:connector-curvature="0"
         id="path1084-6-03"
         d="M 361.9375,-212 C 507.2348,-212 528,-191.28677 528,-46.125 V 70.125 C 528,215.28618 507.2348,236 361.9375,236 H 214.0625 C 68.7652,236 48,215.28618 48,70.125 V -46.125 C 48,-191.28677 68.7652,-212 214.0625,-212 Z"
         style="display:inline;opacity:1;fill:#8c59d9;fill-opacity:1;stroke:none;stroke-width:2;stroke-linecap:round;stroke-linejoin:round;stroke-miterlimit:4;stroke-dasharray:none;stroke-dashoffset:0;stroke-opacity:1;enable-background:new" />
    </clipPath>
    <clipPath
       clipPathUnits="userSpaceOnUse"
       id="clipPath1082-3-61">
      <path
         sodipodi:nodetypes="sssssssss"
         inkscape:connector-curvature="0"
         id="path1084-6-06"
         d="M 361.9375,-212 C 507.2348,-212 528,-191.28677 528,-46.125 V 70.125 C 528,215.28618 507.2348,236 361.9375,236 H 214.0625 C 68.7652,236 48,215.28618 48,70.125 V -46.125 C 48,-191.28677 68.7652,-212 214.0625,-212 Z"
         style="display:inline;opacity:1;fill:#8c59d9;fill-opacity:1;stroke:none;stroke-width:2;stroke-linecap:round;stroke-linejoin:round;stroke-miterlimit:4;stroke-dasharray:none;stroke-dashoffset:0;stroke-opacity:1;enable-background:new" />
    </clipPath>
    <clipPath
       clipPathUnits="userSpaceOnUse"
       id="clipPath1064">
      <path
         style="opacity:1;fill:#a3dbf0;fill-opacity:1;stroke:none;stroke-width:2;stroke-linecap:round;stroke-linejoin:round;stroke-miterlimit:4;stroke-dasharray:none;stroke-dashoffset:0;stroke-opacity:1"
         d="M 115.03125,44 C 42.3826,44 32,54.356615 32,126.9375 v 58.125 c 0,10.16582 0.217657,19.07051 0.767578,26.9375 3.376331,48.30069 19.790377,56 82.263672,56 h 73.9375 c 62.4733,0 78.88734,-7.69931 82.26367,-56 C 271.78234,204.13301 272,195.22832 272,185.0625 v -58.125 C 272,54.356615 261.6174,44 188.96875,44 Z"
         id="path1066"
         inkscape:connector-curvature="0" />
    </clipPath>
    <clipPath
       clipPathUnits="userSpaceOnUse"
       id="clipPath1082-3-32">
      <path
         sodipodi:nodetypes="sssssssss"
         inkscape:connector-curvature="0"
         id="path1084-6-061"
         d="M 361.9375,-212 C 507.2348,-212 528,-191.28677 528,-46.125 V 70.125 C 528,215.28618 507.2348,236 361.9375,236 H 214.0625 C 68.7652,236 48,215.28618 48,70.125 V -46.125 C 48,-191.28677 68.7652,-212 214.0625,-212 Z"
         style="display:inline;opacity:1;fill:#8c59d9;fill-opacity:1;stroke:none;stroke-width:2;stroke-linecap:round;stroke-linejoin:round;stroke-miterlimit:4;stroke-dasharray:none;stroke-dashoffset:0;stroke-opacity:1;enable-background:new" />
    </clipPath>
    <clipPath
       clipPathUnits="userSpaceOnUse"
       id="clipPath947">
      <path
         sodipodi:nodetypes="sssssssss"
         inkscape:connector-curvature="0"
         id="path949"
         d="m 191.43333,45.066672 c 77.49189,0 88.56666,11.047056 88.56666,88.466668 v 62 C 279.99999,272.95263 268.92522,284 191.43333,284 H 112.56666 C 35.074773,284 23.999999,272.95263 23.999999,195.53334 v -62 c 0,-77.419612 11.074774,-88.466668 88.566661,-88.466668 z"
         style="opacity:1;fill:#a4c1f9;fill-opacity:1;stroke:none;stroke-width:2;stroke-linecap:round;stroke-linejoin:round;stroke-miterlimit:4;stroke-dasharray:none;stroke-dashoffset:0;stroke-opacity:1" />
    </clipPath>
    <clipPath
       clipPathUnits="userSpaceOnUse"
       id="clipPath1082-3-55">
      <path
         sodipodi:nodetypes="sssssssss"
         inkscape:connector-curvature="0"
         id="path1084-6-4"
         d="M 361.9375,-212 C 507.2348,-212 528,-191.28677 528,-46.125 V 70.125 C 528,215.28618 507.2348,236 361.9375,236 H 214.0625 C 68.7652,236 48,215.28618 48,70.125 V -46.125 C 48,-191.28677 68.7652,-212 214.0625,-212 Z"
         style="display:inline;opacity:1;fill:#8c59d9;fill-opacity:1;stroke:none;stroke-width:2;stroke-linecap:round;stroke-linejoin:round;stroke-miterlimit:4;stroke-dasharray:none;stroke-dashoffset:0;stroke-opacity:1;enable-background:new" />
    </clipPath>
    <clipPath
       clipPathUnits="userSpaceOnUse"
       id="clipPath991">
      <path
         sodipodi:nodetypes="sssssssss"
         inkscape:connector-curvature="0"
         id="path993"
         d="M 188.96875,44 C 261.6174,44 272,54.356615 272,126.9375 v 58.125 C 272,257.64309 261.6174,268 188.96875,268 h -73.9375 C 42.3826,268 32,257.64309 32,185.0625 v -58.125 C 32,54.356615 42.3826,44 115.03125,44 Z"
         style="opacity:1;fill:#6dc7f1;fill-opacity:1;stroke:none;stroke-width:2;stroke-linecap:round;stroke-linejoin:round;stroke-miterlimit:4;stroke-dasharray:none;stroke-dashoffset:0;stroke-opacity:1" />
    </clipPath>
    <clipPath
       clipPathUnits="userSpaceOnUse"
       id="clipPath978">
      <path
         sodipodi:nodetypes="sssssssss"
         inkscape:connector-curvature="0"
         id="path976"
         d="M 188.96875,44 C 261.6174,44 272,54.356615 272,126.9375 v 58.125 C 272,257.64309 261.6174,268 188.96875,268 h -73.9375 C 42.3826,268 32,257.64309 32,185.0625 v -58.125 C 32,54.356615 42.3826,44 115.03125,44 Z"
         style="opacity:1;fill:#6dc7f1;fill-opacity:1;stroke:none;stroke-width:2;stroke-linecap:round;stroke-linejoin:round;stroke-miterlimit:4;stroke-dasharray:none;stroke-dashoffset:0;stroke-opacity:1" />
    </clipPath>
    <clipPath
       clipPathUnits="userSpaceOnUse"
       id="clipPath942">
      <path
         sodipodi:nodetypes="sssssssss"
         inkscape:connector-curvature="0"
         id="path944"
         d="M 188.96875,44 C 261.6174,44 272,54.356615 272,126.9375 v 58.125 C 272,257.64309 261.6174,268 188.96875,268 h -73.9375 C 42.3826,268 32,257.64309 32,185.0625 v -58.125 C 32,54.356615 42.3826,44 115.03125,44 Z"
         style="display:inline;opacity:1;fill:#46a926;fill-opacity:1;stroke:none;stroke-width:2;stroke-linecap:round;stroke-linejoin:round;stroke-miterlimit:4;stroke-dasharray:none;stroke-dashoffset:0;stroke-opacity:1;enable-background:new" />
    </clipPath>
    <clipPath
       clipPathUnits="userSpaceOnUse"
       id="clipPath1082-3-7">
      <path
         sodipodi:nodetypes="sssssssss"
         inkscape:connector-curvature="0"
         id="path1084-6-65"
         d="M 361.9375,-212 C 507.2348,-212 528,-191.28677 528,-46.125 V 70.125 C 528,215.28618 507.2348,236 361.9375,236 H 214.0625 C 68.7652,236 48,215.28618 48,70.125 V -46.125 C 48,-191.28677 68.7652,-212 214.0625,-212 Z"
         style="display:inline;opacity:1;fill:#8c59d9;fill-opacity:1;stroke:none;stroke-width:2;stroke-linecap:round;stroke-linejoin:round;stroke-miterlimit:4;stroke-dasharray:none;stroke-dashoffset:0;stroke-opacity:1;enable-background:new" />
    </clipPath>
    <radialGradient
       id="radialGradient3322"
       gradientUnits="userSpaceOnUse"
       cy="-2.0645001"
       cx="26.617001"
       gradientTransform="matrix(-4.8906e-8,-2.8515,3.7557,0,674.00149,398.26285)"
       r="23">
      <stop
         id="stop2749"
         style="stop-color:#d280b9;stop-opacity:1"
         offset="0" />
      <stop
         offset="0.52913231"
         style="stop-color:#b549b5;stop-opacity:1"
         id="stop4269" />
      <stop
         id="stop2755"
         style="stop-color:#8940a8;stop-opacity:1"
         offset="1" />
    </radialGradient>
    <clipPath
       clipPathUnits="userSpaceOnUse"
       id="clipPath1082-3-69">
      <path
         sodipodi:nodetypes="sssssssss"
         inkscape:connector-curvature="0"
         id="path1084-6-37"
         d="M 361.9375,-212 C 507.2348,-212 528,-191.28677 528,-46.125 V 70.125 C 528,215.28618 507.2348,236 361.9375,236 H 214.0625 C 68.7652,236 48,215.28618 48,70.125 V -46.125 C 48,-191.28677 68.7652,-212 214.0625,-212 Z"
         style="display:inline;opacity:1;fill:#8c59d9;fill-opacity:1;stroke:none;stroke-width:2;stroke-linecap:round;stroke-linejoin:round;stroke-miterlimit:4;stroke-dasharray:none;stroke-dashoffset:0;stroke-opacity:1;enable-background:new" />
    </clipPath>
    <linearGradient
       id="linearGradient4284"
       y2="48.209999"
       gradientUnits="userSpaceOnUse"
       y1="463.79001"
       gradientTransform="translate(-1.6559e-6,2.886)"
       x2="309.45001"
       x1="309.45001">
      <stop
         id="stop4349"
         style="stop-opacity:0"
         offset="0" />
      <stop
         id="stop4355"
         offset=".49620" />
      <stop
         id="stop4351"
         style="stop-opacity:0"
         offset="1" />
    </linearGradient>
    <filter
       id="filter4300"
       style="color-interpolation-filters:sRGB"
       height="1.192"
       width="1.192"
       y="-0.096001998"
       x="-0.095997997">
      <feGaussianBlur
         id="feGaussianBlur4302"
         stdDeviation="16.623603" />
    </filter>
    <filter
       id="filter4315"
       style="color-interpolation-filters:sRGB"
       height="1.024"
       width="1.024"
       y="-0.012"
       x="-0.012">
      <feGaussianBlur
         id="feGaussianBlur4317"
         stdDeviation="2.0779504" />
    </filter>
    <linearGradient
       id="linearGradient4257"
       y2="154.86"
       gradientUnits="userSpaceOnUse"
       y1="460.98001"
       x2="464"
       x1="126.19">
      <stop
         id="stop4273"
         style="stop-color:#d9eabb"
         offset="0" />
      <stop
         id="stop4271"
         style="stop-color:#f0f7e5"
         offset="1" />
    </linearGradient>
    <linearGradient
       id="linearGradient4432"
       y2="255.67"
       gradientUnits="userSpaceOnUse"
       y1="236.42"
       x2="344.64999"
       x1="364.35001">
      <stop
         id="stop4144"
         style="stop-color:#88b637"
         offset="0" />
      <stop
         id="stop4146"
         style="stop-color:#88b637;stop-opacity:0"
         offset="1" />
    </linearGradient>
    <filter
       id="filter4300-5"
       style="color-interpolation-filters:sRGB"
       height="1.192"
       width="1.192"
       y="-0.096001998"
       x="-0.095997997">
      <feGaussianBlur
         id="feGaussianBlur4302-3"
         stdDeviation="16.623603" />
    </filter>
    <filter
       id="filter4315-5"
       style="color-interpolation-filters:sRGB"
       height="1.024"
       width="1.024"
       y="-0.012"
       x="-0.012">
      <feGaussianBlur
         id="feGaussianBlur4317-6"
         stdDeviation="2.0779504" />
    </filter>
    <linearGradient
       id="linearGradient4432-1"
       y2="255.67"
       gradientUnits="userSpaceOnUse"
       y1="236.42"
       x2="344.64999"
       x1="364.35001">
      <stop
         id="stop4144-2"
         style="stop-color:#88b637"
         offset="0" />
      <stop
         id="stop4146-7"
         style="stop-color:#88b637;stop-opacity:0"
         offset="1" />
    </linearGradient>
    <clipPath
       clipPathUnits="userSpaceOnUse"
       id="clipPath1082-3-361-6">
      <path
         sodipodi:nodetypes="sssssssss"
         inkscape:connector-curvature="0"
         id="path1084-6-29-2"
         d="M 361.9375,-212 C 507.2348,-212 528,-191.28677 528,-46.125 V 70.125 C 528,215.28618 507.2348,236 361.9375,236 H 214.0625 C 68.7652,236 48,215.28618 48,70.125 V -46.125 C 48,-191.28677 68.7652,-212 214.0625,-212 Z"
         style="display:inline;opacity:1;fill:#8c59d9;fill-opacity:1;stroke:none;stroke-width:2;stroke-linecap:round;stroke-linejoin:round;stroke-miterlimit:4;stroke-dasharray:none;stroke-dashoffset:0;stroke-opacity:1;enable-background:new" />
    </clipPath>
    <clipPath
       clipPathUnits="userSpaceOnUse"
       id="clipPath936-4">
      <path
         sodipodi:nodetypes="sssssssss"
         inkscape:connector-curvature="0"
         id="path938-4"
         d="M 329.9375,16 C 475.2348,16 496,36.71323 496,181.875 v 116.25 C 496,443.28618 475.2348,464 329.9375,464 H 182.0625 C 36.7652,464 16,443.28618 16,298.125 V 181.875 C 16,36.71323 36.7652,16 182.0625,16 Z"
         style="opacity:1;fill:#438ae9;fill-opacity:1;stroke:none;stroke-width:2;stroke-linecap:round;stroke-linejoin:round;stroke-miterlimit:4;stroke-dasharray:none;stroke-dashoffset:0;stroke-opacity:1" />
    </clipPath>
    <linearGradient
       id="linearGradient2867-449-88-871-390-598-476-591-434-148-57-177-8-3-3-6-4-8-8-8">
      <stop
         id="stop3750-1-0-7-6-6-1-3-9"
         style="stop-color:#ffee55;stop-opacity:1"
         offset="0" />
      <stop
         offset="0.42583728"
         style="stop-color:#feeb46;stop-opacity:1"
         id="stop1654" />
      <stop
         id="stop3752-3-7-4-0-32-8-923-0"
         style="stop-color:#fc8f36;stop-opacity:1"
         offset="0.50877196" />
      <stop
         offset="0.58839363"
         style="stop-color:#ef6422;stop-opacity:1;"
         id="stop1062" />
      <stop
         id="stop3754-1-8-5-2-7-6-7-1"
         style="stop-color:#e23a0e;stop-opacity:1"
         offset="0.6680153" />
      <stop
         offset="0.93725348"
         style="stop-color:#b8017a;stop-opacity:0.97254902"
         id="stop1658" />
      <stop
         id="stop3756-1-6-2-6-6-1-96-6"
         style="stop-color:#b8017a;stop-opacity:1"
         offset="1" />
    </linearGradient>
    <linearGradient
       gradientTransform="matrix(0.3011864,0.00583817,-0.0058295,0.30163426,118.4786,-1.6058194)"
       id="4-6"
       x1="-316.30048"
       y1="93.99012"
       x2="-308.03195"
       y2="120.68974"
       gradientUnits="userSpaceOnUse">
      <stop
         stop-color="#ec3a00"
         id="stop4650-2"
         style="stop-color:#c00e62;stop-opacity:0.91588783" />
      <stop
         style="stop-color:#d63540;stop-opacity:0.95686275;"
         id="stop957"
         stop-color="#ec3a00"
         offset="0.3302111" />
      <stop
         offset="1"
         stop-color="#ffb900"
         stop-opacity=".016"
         id="stop4652-9"
         style="stop-color:#7a5240;stop-opacity:1" />
    </linearGradient>
    <linearGradient
       gradientTransform="matrix(0.22977543,0.01949167,-0.02091519,0.21413666,101.18811,30.479268)"
       id="5-5"
       x1="-226.75"
       x2="-170.39"
       gradientUnits="userSpaceOnUse">
      <stop
         stop-color="#de4000"
         id="stop4645-3" />
      <stop
         offset="1"
         stop-color="#fab600"
         id="stop4647-5" />
    </linearGradient>
    <linearGradient
       id="6-3"
       x1="-258.12738"
       y1="208.63644"
       x2="-181.74777"
       y2="298.31403"
       gradientUnits="userSpaceOnUse"
       gradientTransform="matrix(0.28446436,0,0,0.36122683,111.0341,-12.577201)">
      <stop
         stop-color="#f24d00"
         id="stop4655-6"
         style="stop-color:#961725;stop-opacity:1" />
      <stop
         style="stop-color:#f06824;stop-opacity:1"
         id="stop963"
         stop-color="#f24d00"
         offset="0.19558652" />
      <stop
         id="stop3440"
         stop-color="#f24d00"
         offset="0.54072613"
         style="stop-color:#f06723;stop-opacity:1" />
      <stop
         offset="1"
         stop-color="#ffb000"
         id="stop4657-7" />
    </linearGradient>
    <linearGradient
       gradientUnits="userSpaceOnUse"
       y2="82.480003"
       x2="-268.98999"
       y1="120.49"
       x1="-335.91"
       id="linearGradient1050"
       gradientTransform="matrix(0.29580808,0.0057254,-0.0057254,0.29580808,-23.568013,1.3300176)">
      <stop
         id="stop1046"
         stop-color="#ec3a00"
         style="stop-color:#fee246;stop-opacity:1" />
      <stop
         style="stop-color:#f59b00;stop-opacity:0.50588238"
         stop-color="#ec3a00"
         id="stop1060"
         offset="0.69732404" />
      <stop
         id="stop1048"
         stop-opacity=".016"
         stop-color="#ffb900"
         offset="1" />
    </linearGradient>
    <linearGradient
       gradientTransform="matrix(0.28406639,0.02406136,-0.02585699,0.26433945,-24.455783,13.444752)"
       id="5-5-2"
       x1="-226.75"
       x2="-170.39"
       gradientUnits="userSpaceOnUse">
      <stop
         stop-color="#de4000"
         id="stop4645-3-9" />
      <stop
         offset="1"
         stop-color="#fab600"
         id="stop4647-5-1" />
    </linearGradient>
    <clipPath
       clipPathUnits="userSpaceOnUse"
       id="clipPath1082-3-367">
      <path
         sodipodi:nodetypes="sssssssss"
         inkscape:connector-curvature="0"
         id="path1084-6-53"
         d="M 361.9375,-212 C 507.2348,-212 528,-191.28677 528,-46.125 V 70.125 C 528,215.28618 507.2348,236 361.9375,236 H 214.0625 C 68.7652,236 48,215.28618 48,70.125 V -46.125 C 48,-191.28677 68.7652,-212 214.0625,-212 Z"
         style="display:inline;opacity:1;fill:#8c59d9;fill-opacity:1;stroke:none;stroke-width:2;stroke-linecap:round;stroke-linejoin:round;stroke-miterlimit:4;stroke-dasharray:none;stroke-dashoffset:0;stroke-opacity:1;enable-background:new" />
    </clipPath>
    <clipPath
       clipPathUnits="userSpaceOnUse"
       id="clipPath936">
      <path
         sodipodi:nodetypes="sssssssss"
         inkscape:connector-curvature="0"
         id="path938"
         d="M 329.9375,16 C 475.2348,16 496,36.71323 496,181.875 v 116.25 C 496,443.28618 475.2348,464 329.9375,464 H 182.0625 C 36.7652,464 16,443.28618 16,298.125 V 181.875 C 16,36.71323 36.7652,16 182.0625,16 Z"
         style="opacity:1;fill:#438ae9;fill-opacity:1;stroke:none;stroke-width:2;stroke-linecap:round;stroke-linejoin:round;stroke-miterlimit:4;stroke-dasharray:none;stroke-dashoffset:0;stroke-opacity:1" />
    </clipPath>
    <linearGradient
       inkscape:collect="always"
       xlink:href="#linearGradient1013"
       id="linearGradient1108"
       x1="296"
       y1="-212"
       x2="296"
       y2="202.40001"
       gradientUnits="userSpaceOnUse" />
    <linearGradient
       id="linearGradient1013"
       inkscape:collect="always">
      <stop
         id="stop1005"
         offset="0"
         style="stop-color:#ffffff;stop-opacity:1;" />
      <stop
         style="stop-color:#ffffff;stop-opacity:0.09803922"
         offset="0.13513513"
         id="stop1007" />
      <stop
         style="stop-color:#ffffff;stop-opacity:0"
         offset="1"
         id="stop1009" />
    </linearGradient>
    <clipPath
       clipPathUnits="userSpaceOnUse"
       id="clipPath1082-3-3675">
      <path
         sodipodi:nodetypes="sssssssss"
         inkscape:connector-curvature="0"
         id="path1084-6-35"
         d="M 361.9375,-212 C 507.2348,-212 528,-191.28677 528,-46.125 V 70.125 C 528,215.28618 507.2348,236 361.9375,236 H 214.0625 C 68.7652,236 48,215.28618 48,70.125 V -46.125 C 48,-191.28677 68.7652,-212 214.0625,-212 Z"
         style="display:inline;opacity:1;fill:#8c59d9;fill-opacity:1;stroke:none;stroke-width:2;stroke-linecap:round;stroke-linejoin:round;stroke-miterlimit:4;stroke-dasharray:none;stroke-dashoffset:0;stroke-opacity:1;enable-background:new" />
    </clipPath>
    <filter
       inkscape:collect="always"
       style="color-interpolation-filters:sRGB"
       id="filter910"
       x="-0.0232"
       width="1.0464"
       y="-0.024857143"
       height="1.0497143">
      <feGaussianBlur
         inkscape:collect="always"
         stdDeviation="2.32"
         id="feGaussianBlur912" />
    </filter>
    <filter
       inkscape:collect="always"
       style="color-interpolation-filters:sRGB"
       id="filter4569"
       x="-0.0116"
       width="1.0232"
       y="-0.012428571"
       height="1.024857">
      <feGaussianBlur
         inkscape:collect="always"
         stdDeviation="1.16"
         id="feGaussianBlur4571" />
    </filter>
  </defs>
  <sodipodi:namedview
     id="base"
     pagecolor="#ffffff"
     bordercolor="#666666"
     borderopacity="1.0"
     inkscape:pageopacity="0.0"
     inkscape:pageshadow="2"
     inkscape:zoom="3.2421875"
     inkscape:cx="130.32177"
     inkscape:cy="126.18902"
     inkscape:document-units="px"
     inkscape:current-layer="layer4"
     showgrid="false"
     units="px"
     inkscape:window-width="1920"
     inkscape:window-height="1013"
     inkscape:window-x="0"
     inkscape:window-y="34"
     inkscape:window-maximized="1">
    <inkscape:grid
       type="xygrid"
       id="grid2168" />
  </sodipodi:namedview>
  <metadata
     id="metadata1485">
    <rdf:RDF>
      <cc:Work
         rdf:about="">
        <dc:format>image/svg+xml</dc:format>
        <dc:type
           rdf:resource="http://purl.org/dc/dcmitype/StillImage" />
        <dc:title></dc:title>
      </cc:Work>
    </rdf:RDF>
  </metadata>
  <g
     inkscape:label="Livello 1"
     inkscape:groupmode="layer"
     id="layer1"
     transform="translate(0,-229.26666)">
    <g
       style="enable-background:new"
       id="layer4"
       transform="matrix(0.12974173,0,0,0.12974173,3.8344818,227.85345)">
      <path
         sodipodi:nodetypes="sssssssss"
         inkscape:connector-curvature="0"
         id="path890"
         d="m 301.90773,44.402363 c 148.15296,0 169.32628,21.120327 169.32628,169.135097 v 118.53478 c 0,148.01417 -21.17332,169.1351 -169.32628,169.1351 H 151.12641 c -148.1529701,0 -169.32628,-21.12093 -169.32628,-169.1351 V 213.53746 c 0,-148.01477 21.1733099,-169.135097 169.32628,-169.135097 z"
         style="display:inline;opacity:0.2;fill:none;fill-opacity:1;stroke:#000000;stroke-width:8.15723133;stroke-linecap:round;stroke-linejoin:round;stroke-miterlimit:4;stroke-dasharray:none;stroke-dashoffset:0;stroke-opacity:1;enable-background:new" />
      <path
         sodipodi:nodetypes="sssssssss"
         inkscape:connector-curvature="0"
         id="path4567"
         d="m 162.53675,3.5680001 c 72.64865,0 83.03125,10.3566149 83.03125,82.9375049 v 58.125005 c 0,72.58059 -10.3826,82.9375 -83.03125,82.9375 H 88.599254 C 15.9506,227.56801 5.568,217.2111 5.568,144.63051 V 86.505505 c 0,-72.58089 10.3826,-82.9375049 83.031254,-82.9375049 z"
         style="display:inline;opacity:0.1;fill:#000000;fill-opacity:1;stroke:none;stroke-width:2;stroke-linecap:round;stroke-linejoin:round;stroke-miterlimit:4;stroke-dasharray:none;stroke-dashoffset:0;stroke-opacity:1;filter:url(#filter4569);enable-background:new"
         transform="matrix(2.0393079,0,0,2.0393079,-29.55473,37.126102)" />
      <path
         style="display:inline;opacity:0.2;fill:#000000;fill-opacity:1;stroke:none;stroke-width:2;stroke-linecap:round;stroke-linejoin:round;stroke-miterlimit:4;stroke-dasharray:none;stroke-dashoffset:0;stroke-opacity:1;filter:url(#filter910);enable-background:new"
         d="m 162.53675,5.5680001 c 72.64865,0 83.03125,10.3566149 83.03125,82.9375049 v 58.125005 c 0,72.58059 -10.3826,82.9375 -83.03125,82.9375 H 88.599254 C 15.9506,229.56801 5.568,219.2111 5.568,146.63051 V 88.505505 c 0,-72.58089 10.3826,-82.9375049 83.031254,-82.9375049 z"
         id="path908"
         inkscape:connector-curvature="0"
         sodipodi:nodetypes="sssssssss"
         transform="matrix(2.0393079,0,0,2.0393079,-29.55473,37.126102)" />
      <path
         style="display:inline;opacity:1;fill:#f7f7f7;fill-opacity:1;stroke:none;stroke-width:4.07861567;stroke-linecap:round;stroke-linejoin:round;stroke-miterlimit:4;stroke-dasharray:none;stroke-dashoffset:0;stroke-opacity:1;enable-background:new"
         d="m 301.90773,44.402363 c 148.15296,0 169.32628,21.120327 169.32628,169.135097 v 118.53478 c 0,148.01417 -21.17332,169.1351 -169.32628,169.1351 H 151.12641 c -148.1529701,0 -169.32628,-21.12093 -169.32628,-169.1351 V 213.53746 c 0,-148.01477 21.1733099,-169.135097 169.32628,-169.135097 z"
         id="rect877"
         inkscape:connector-curvature="0"
         sodipodi:nodetypes="sssssssss" />
      <path
         sodipodi:nodetypes="sssssssss"
         inkscape:connector-curvature="0"
         id="path1068"
         d="M 361.9375,-212 C 507.2348,-212 528,-191.28677 528,-46.125 V 70.125 C 528,215.28618 507.2348,236 361.9375,236 H 214.0625 C 68.7652,236 48,215.28618 48,70.125 V -46.125 C 48,-191.28677 68.7652,-212 214.0625,-212 Z"
         style="display:inline;opacity:0.5;fill:none;fill-opacity:1;stroke:url(#linearGradient1108);stroke-width:8;stroke-linecap:round;stroke-linejoin:round;stroke-miterlimit:4;stroke-dasharray:none;stroke-dashoffset:0;stroke-opacity:1;enable-background:new"
         clip-path="url(#clipPath1082-3-3675)"
         transform="matrix(1.0196539,0,0,1.0196539,-67.14326,260.569)" />
      <g
         id="g1885"
         transform="translate(-2.4436538,3.3969149)">
        <path
           inkscape:connector-curvature="0"
           id="path1239"
           d="m 432.89151,270.73792 c 0,-19.65628 -36.30588,-36.5976 -92.18824,-46.318 6.52666,-9.27973 12.37948,-18.31299 17.4476,-26.97738 8.4915,-14.51722 19.99142,-37.20229 20.46224,-54.23407 4.06886,-3.06163 6.71287,-7.91606 6.71287,-13.40002 0,-9.26556 -7.51175,-16.77731 -16.77729,-16.77731 -6.10108,0 -11.42544,3.26734 -14.36205,8.13774 -18.70844,1.49489 -46.91118,15.39145 -78.89639,37.89566 -9.71775,-55.92227 -26.66528,-92.25741 -46.32953,-92.25741 -19.66425,0 -36.61178,36.33514 -46.33042,92.25652 -7.27855,-5.12132 -14.36559,-9.80643 -21.18486,-13.99054 0.6845,-1.82917 1.0764,-3.80198 1.0764,-5.87055 0,-9.26556 -7.51175,-16.77731 -16.7773,-16.77731 -5.61607,0 -10.57514,2.76991 -13.6208,7.00725 -12.40609,-5.45028 -23.17275,-8.40018 -31.64208,-8.40018 -6.780254,0 -12.070044,1.85223 -15.722184,5.50436 -13.89389,13.89389 -0.21545,51.52534 32.402834,97.89211 -55.850439,9.72217 -92.132386,26.65995 -92.132386,46.30913 0,19.65627 36.305887,36.5976 92.188246,46.318 -6.52667,9.27885 -12.3786,18.31299 -17.446724,26.97737 -11.84217,20.24413 -29.540705,56.37624 -15.01108,70.90409 3.65302,3.65301 8.94281,5.50525 15.722184,5.50525 18.60292,0 48.2518,-14.18206 82.14864,-38.03134 9.71775,55.92227 26.66528,92.25742 46.32953,92.25742 13.73606,0 26.1457,-17.73843 35.69409,-47.48929 1.0099,0.18986 2.0473,0.2997 3.11216,0.2997 9.26556,0 16.77731,-7.51175 16.77731,-16.7773 0,-7.45055 -4.86065,-13.75734 -11.57972,-15.94649 0.81572,-3.99794 1.59243,-8.1129 2.32746,-12.34226 33.89685,23.84928 63.54483,38.03132 82.14687,38.03132 6.78025,0 12.07005,-1.8531 15.72306,-5.50524 14.52962,-14.52874 -3.1689,-50.66083 -15.0093,-70.90408 -5.06813,-8.66439 -10.92094,-17.69852 -17.44761,-26.97737 55.88059,-9.72218 92.18647,-26.6644 92.18647,-46.31978 z M 352.24398,125.91247 c -0.29792,1.25197 -0.47259,2.55181 -0.47259,3.89508 0,9.26555 7.51175,16.7773 16.7773,16.7773 1.91518,0 3.74788,-0.33693 5.4618,-0.92743 -1.09415,12.06826 -7.79638,29.07431 -19.75027,49.50907 -5.32524,9.10329 -11.54691,18.62953 -18.4983,28.41821 -16.40488,-2.67417 -34.39513,-4.73652 -53.56374,-6.08601 -1.35037,-19.18811 -3.41539,-37.19433 -6.09398,-53.61253 30.70932,-21.87291 57.80285,-35.66572 76.13978,-37.97369 z m -75.33913,95.81379 c 0.33338,0.0222 0.67032,0.0416 1.00368,0.0638 0.07,1.04712 0.1348,2.09959 0.20047,3.15293 z m -47.13196,-6.05053 c -0.27131,0 -0.54086,-0.002 -0.81217,-0.002 -0.43091,0 -0.85739,0.004 -1.28831,0.004 l 1.04447,-3.14584 z m -68.1448,57.20966 c -0.64194,-0.72793 -1.28653,-1.45676 -1.92227,-2.18383 1.54633,-1.76178 3.12546,-3.52623 4.7046,-5.29066 z m 37.82472,27.76385 26.72203,-80.46044 c 0.92833,-0.004 1.85489,-0.008 2.78588,-0.008 0.77759,0 1.55165,0.006 2.32746,0.008 l 27.0173,80.46224 h -58.85267 z m -19.57113,-76.79856 c 0.0434,-0.68626 0.085,-1.37608 0.13112,-2.0597 0.21633,-0.0143 0.43446,-0.0275 0.65081,-0.0416 z m -5.31108,14.26806 -5.93261,15.93764 c -4.06886,4.40668 -8.04196,8.81513 -11.91044,13.21649 -11.648,-13.49312 -22.19122,-26.77079 -31.41865,-39.46948 15.49786,-2.45249 32.33545,-4.38628 50.1058,-5.69054 -0.33604,5.25342 -0.61889,10.5902 -0.8441,16.00589 z m -14.74596,39.61135 -9.14675,24.57189 c -7.70326,0.19761 -14.10048,5.57883 -15.85074,12.79088 -3.26821,-0.45662 -6.47702,-0.93808 -9.63706,-1.43903 9.32585,-12.83435 19.91872,-26.0934 31.49667,-39.46506 1.03739,1.17838 2.08364,2.35852 3.13788,3.54132 z m 69.2212,62.20774 c -0.0284,0.0249 -0.0567,0.0506 -0.085,0.0755 -0.0283,-0.0249 -0.0567,-0.0506 -0.085,-0.0755 z m 64.02629,-75.02081 c 1.74139,1.94089 3.47568,3.88268 5.1763,5.8209 -0.69337,0.79 -1.4098,1.58179 -2.10936,2.37269 z m 4.85266,12.9638 c 1.10212,-1.23688 2.21132,-2.47289 3.29748,-3.70889 11.58327,13.37698 22.18057,26.64135 31.50996,39.48012 -6.55593,1.03915 -13.35215,1.98433 -20.3585,2.82842 z m -9.11038,-24.33959 -5.42191,-14.48528 c -0.2323,-5.73845 -0.52932,-11.38556 -0.88398,-16.9431 17.81556,1.30781 34.69305,3.24782 50.22371,5.71006 -9.32851,12.83964 -19.92669,26.10402 -31.50996,39.481 -4.02808,-4.58312 -8.16433,-9.17423 -12.40786,-13.76268 z m -11.22862,-36.35111 c -0.81127,-0.0514 -1.6208,-0.10462 -2.43652,-0.15417 L 259.7924,176.00862 c 4.07595,-3.14851 8.10313,-6.16846 12.07978,-9.06517 2.46402,15.53775 4.40491,32.42322 5.71361,50.24677 z M 228.96072,71.314 c 17.33499,0 32.96496,36.54705 42.11348,90.75807 -4.24796,3.05719 -8.5518,6.25181 -12.90882,9.59272 l -6.97443,-18.6313 h -44.94812 l -6.837,18.36619 c -4.23822,-3.24427 -8.42589,-6.35199 -12.56037,-9.32761 9.1503,-54.2119 24.78027,-90.75807 42.11526,-90.75807 z m -42.91146,95.63025 c 3.86491,2.81601 7.77951,5.75084 11.73842,8.80448 l -15.37726,41.30841 c -0.69514,0.0426 -1.38318,0.0895 -2.07477,0.13296 1.3087,-17.82355 3.24959,-34.70902 5.71361,-50.24587 z M 87.946116,129.72332 c 2.77701,-2.77613 6.99394,-4.18412 12.535544,-4.18412 7.91695,0 17.96985,2.72647 29.57085,7.77153 -0.68982,1.83538 -1.08526,3.81616 -1.08526,5.89271 0,9.26555 7.51174,16.7773 16.77729,16.7773 5.62583,0 10.59288,-2.77878 13.63677,-7.02852 7.19609,4.4324 14.69986,9.42604 22.43416,14.93572 -2.67859,16.4182 -4.74361,34.42441 -6.09399,53.61252 -19.12782,1.34595 -37.08171,3.4021 -53.45824,6.06827 C 90.454466,178.81567 75.698745,141.97069 87.946116,129.72332 Z m -58.409321,141.0146 c 0,-17.32082 36.486764,-32.93925 90.624185,-42.09131 9.70001,13.47272 20.94901,27.63174 33.53154,42.11702 -12.37682,14.26896 -23.62848,28.41466 -33.46061,42.07712 -54.176432,-9.14939 -90.695115,-24.77492 -90.695115,-42.10283 z m 70.944865,145.19872 c -5.541604,0 -9.758534,-1.408 -12.535544,-4.18501 -9.049204,-9.04833 -3.32141,-32.90203 15.714204,-65.44316 5.32526,-9.10331 11.54692,-18.62953 18.4983,-28.41821 3.97842,0.64816 8.0526,1.25995 12.21102,1.83538 0.18354,4.64342 2.24678,8.79297 5.45914,11.7207 l -21.21767,56.99778 h 47.23303 c -26.96852,17.42011 -50.112,27.49252 -65.36248,27.49252 z m 70.92802,-31.15708 7.96659,-23.89891 c 0.74568,5.73045 1.55875,11.30663 2.44008,16.70813 -3.52001,2.50747 -6.98862,4.89966 -10.40667,7.19078 z m 11.38998,-34.17082 3.55727,-10.67091 h 35.74817 c 1.14821,1.02055 2.29554,2.03489 3.442,3.04124 -13.49312,11.68524 -26.77611,22.28519 -39.49874,31.55252 -1.21384,-7.66247 -2.30175,-15.65214 -3.2487,-23.92285 z m 85.57911,43.34681 c -0.20481,-0.006 -0.40609,-0.031 -0.61267,-0.031 -9.26556,0 -16.77731,7.51175 -16.77731,16.77729 0,6.60028 3.82061,12.29348 9.36308,15.03324 -8.69365,27.65747 -19.65094,44.42765 -31.39027,44.42765 -17.335,0 -32.96497,-36.54705 -42.11347,-90.75805 13.55785,-9.75676 27.73192,-20.99777 42.11347,-33.45352 14.38244,12.45575 28.55653,23.69676 42.11348,33.45352 -0.84497,5.00516 -1.74494,9.86138 -2.69631,14.55089 z m 3.49341,-19.42396 c -12.72173,-9.2682 -26.00472,-19.86728 -39.49784,-31.55341 1.14646,-1.00636 2.29379,-2.0198 3.44288,-3.04122 h 35.58592 l 3.6876,10.95285 c -0.94073,8.17141 -2.01714,16.0662 -3.21856,23.64178 z m 4.23291,3.05719 c 0.87068,-5.33944 1.67578,-10.85089 2.41436,-16.51217 l 7.97634,23.69143 c -3.41272,-2.2867 -6.87601,-4.67534 -10.3907,-7.17926 z m 78.15603,-31.28031 c 19.03472,32.54113 24.7634,56.39483 15.71419,65.44316 -2.77701,2.77701 -6.99393,4.18501 -12.53642,4.18501 -15.25047,0 -38.39307,-10.07241 -65.36159,-27.49342 h 47.23392 L 314.05039,320.9581 c 7.502,-0.90707 14.75042,-1.93292 21.71421,-3.06784 6.94959,9.78868 13.17125,19.3149 18.49652,28.41821 z m -16.5716,-33.46772 c -9.83834,-13.67133 -21.09709,-27.8259 -33.48276,-42.10283 12.38567,-14.27693 23.64442,-28.43238 33.48276,-42.10284 54.17644,9.15028 90.69512,24.77492 90.69512,42.10284 0,17.32791 -36.51868,32.95344 -90.69512,42.10283 z"
           style="opacity:0.4;stroke-width:0.88665557" />
        <g
           transform="matrix(0.88665561,0,0,0.88665561,1.9768783,41.094108)"
           id="g1265">
          <g
             id="g1257">
            <path
               inkscape:connector-curvature="0"
               id="path1241"
               d="m 333.78,264.056 -2.014,-5.381 -3.459,-9.24 c -3.395,-3.784 -6.857,-7.57 -10.381,-11.354 0.117,5.907 0.177,11.882 0.177,17.919 0,6.037 -0.06,12.012 -0.177,17.919 -0.051,2.558 -0.116,5.098 -0.189,7.63 -0.286,9.987 -0.737,19.762 -1.345,29.292 11.612,-0.853 22.866,-1.945 33.683,-3.249 z"
               style="fill:#393c3d" />
            <path
               inkscape:connector-curvature="0"
               id="path1243"
               d="m 281.539,194.262 c 1.858,1.751 3.716,3.51 5.572,5.292 4.275,4.102 8.546,8.276 12.803,12.532 4.254,4.254 8.419,8.53 12.532,12.812 -0.256,-6.945 -0.595,-13.8 -1.015,-20.547 l -1.358,-3.628 -1.98,-5.289 -17.32,-46.272 c -10.11,7.811 -20.462,16.302 -30.923,25.363 7.207,6.324 14.449,12.914 21.689,19.737 z"
               style="fill:#393c3d" />
            <path
               inkscape:connector-curvature="0"
               id="path1245"
               d="m 288.939,144.261 -7.866,-21.013 h -50.694 l -7.711,20.714 c 10.895,8.34 22.057,17.446 33.332,27.211 11.139,-9.647 22.168,-18.654 32.939,-26.912 z"
               style="fill:#393c3d" />
            <path
               inkscape:connector-curvature="0"
               id="path1247"
               d="m 323.505,236.605 -6.115,-16.337 c 0.136,3.367 0.25,6.765 0.348,10.183 1.934,2.051 3.868,4.102 5.767,6.154 z"
               style="fill:#393c3d" />
            <path
               inkscape:connector-curvature="0"
               id="path1249"
               d="m 351.966,312.64 c -11.474,1.388 -23.478,2.528 -35.922,3.404 -1.027,14.603 -2.423,28.597 -4.15,41.844 l 8.996,26.72 c 2.117,1.419 4.216,2.802 6.294,4.145 h 53.272 z"
               style="fill:#393c3d" />
            <path
               inkscape:connector-curvature="0"
               id="path1251"
               d="m 199.554,224.899 c 4.113,-4.282 8.278,-8.558 12.533,-12.812 4.256,-4.257 8.527,-8.43 12.803,-12.532 1.857,-1.782 3.714,-3.541 5.572,-5.292 7.24,-6.823 14.482,-13.414 21.689,-19.737 -10.595,-9.176 -21.076,-17.763 -31.308,-25.657 l -17.343,46.589 -1.97,5.291 -0.882,2.37 -5.991,16.093 -6.691,17.975 c 2.074,-2.246 4.18,-4.491 6.297,-6.734 1.748,-1.854 3.514,-3.704 5.291,-5.554 z"
               style="fill:#393c3d" />
            <path
               inkscape:connector-curvature="0"
               id="path1253"
               d="m 312.694,279.499 c 0.215,-7.739 0.327,-15.578 0.327,-23.499 0,-7.921 -0.113,-15.76 -0.327,-23.498 -5.332,-5.625 -10.79,-11.239 -16.373,-16.822 -5.598,-5.598 -11.218,-11.049 -16.838,-16.374 -1.856,-1.759 -3.712,-3.505 -5.567,-5.232 C 267.93,188.502 261.95,183.091 256,177.87 c -5.95,5.22 -11.929,10.632 -17.916,16.204 -1.856,1.727 -3.711,3.473 -5.567,5.232 -5.62,5.325 -11.239,10.776 -16.837,16.374 -5.583,5.583 -11.041,11.198 -16.374,16.823 -1.762,1.859 -3.5,3.719 -5.232,5.579 -3.696,3.97 -7.321,7.941 -10.876,11.911 l -3.138,8.429 -2.034,5.463 -10.316,27.713 c 0.165,-0.004 0.325,-0.025 0.491,-0.025 10.339,0 18.728,8.296 18.906,18.592 2.813,0.238 5.644,0.465 8.501,0.675 1.722,0.126 3.451,0.248 5.188,0.364 7.886,0.526 15.929,0.94 24.093,1.241 2.532,0.093 5.073,0.178 7.628,0.248 7.734,0.214 15.568,0.327 23.484,0.327 7.916,0 15.75,-0.112 23.484,-0.327 2.555,-0.071 5.097,-0.155 7.628,-0.248 8.164,-0.301 16.207,-0.714 24.092,-1.241 0.527,-7.889 0.94,-15.935 1.241,-24.103 0.093,-2.522 0.177,-5.056 0.248,-7.602 z m -89.974,10.236 30.138,-90.746 1.69,-5.088 1.178,-3.548 1.191,3.546 1.709,5.088 30.471,90.748 z"
               style="fill:#393c3d" />
            <path
               inkscape:connector-curvature="0"
               id="path1255"
               d="m 273.917,317.926 c -5.906,0.117 -11.881,0.177 -17.917,0.177 -6.036,0 -12.01,-0.06 -17.916,-0.177 -2.556,-0.051 -5.094,-0.116 -7.623,-0.189 -9.99,-0.285 -19.769,-0.738 -29.302,-1.345 -1.743,-0.111 -3.477,-0.227 -5.203,-0.348 -3.187,-0.224 -6.35,-0.463 -9.477,-0.722 -2.137,8.108 -9.498,14.096 -18.277,14.096 -4.908,0 -9.365,-1.884 -12.727,-4.949 l -23.93,64.284 h 53.271 c 2.072,-1.339 4.166,-2.718 6.277,-4.133 l 8.985,-26.954 3.861,-11.584 4.012,-12.035 h 40.318 7.636 0.191 7.637 40.135 l 4.159,12.353 c 1.114,-9.684 2.059,-19.705 2.815,-30.006 -9.532,0.608 -19.311,1.06 -29.301,1.345 -2.53,0.071 -5.069,0.136 -7.624,0.187 z"
               style="fill:#393c3d" />
          </g>
          <g
             id="g1263">
            <path
               inkscape:connector-curvature="0"
               id="path1259"
               d="m 258.625,198.988 -1.709,-5.088 c -0.306,0 -0.61,-0.003 -0.916,-0.003 -0.486,0 -0.967,0.004 -1.453,0.005 l -1.69,5.088 c 1.047,-0.004 2.092,-0.01 3.142,-0.01 0.878,-10e-4 1.751,0.005 2.626,0.008 z"
               style="fill:#ffffff" />
            <path
               inkscape:connector-curvature="0"
               id="path1261"
               d="m 486,256 c 0,-22.169 -40.947,-41.276 -103.973,-52.239 7.361,-10.466 13.962,-20.654 19.678,-30.426 9.577,-16.373 22.547,-41.958 23.078,-61.167 4.589,-3.453 7.571,-8.928 7.571,-15.113 0,-10.45 -8.472,-18.922 -18.922,-18.922 -6.881,0 -12.886,3.685 -16.198,9.178 -21.1,1.686 -52.908,17.359 -88.982,42.74 C 297.292,66.98 278.178,26 256,26 c -22.178,0 -41.292,40.98 -52.253,104.05 -8.209,-5.776 -16.202,-11.06 -23.893,-15.779 0.772,-2.063 1.214,-4.288 1.214,-6.621 0,-10.45 -8.472,-18.922 -18.922,-18.922 -6.334,0 -11.927,3.124 -15.362,7.903 -13.992,-6.147 -26.135,-9.474 -35.687,-9.474 -7.647,0 -13.613,2.089 -17.732,6.208 -15.67,15.67 -0.243,58.112 36.545,110.406 C 66.92,214.736 26,233.839 26,256 c 0,22.169 40.947,41.276 103.973,52.239 -7.361,10.465 -13.961,20.654 -19.677,30.426 -13.356,22.832 -33.317,63.583 -16.93,79.968 4.12,4.12 10.086,6.209 17.732,6.209 20.981,0 54.42,-15.995 92.65,-42.893 C 214.708,445.02 233.822,486 256,486 c 15.492,0 29.488,-20.006 40.257,-53.56 1.139,0.214 2.309,0.338 3.51,0.338 10.45,0 18.922,-8.472 18.922,-18.922 0,-8.403 -5.482,-15.516 -13.06,-17.985 0.92,-4.509 1.796,-9.15 2.625,-13.92 38.23,26.898 71.668,42.893 92.649,42.893 7.647,0 13.613,-2.09 17.733,-6.209 16.387,-16.386 -3.574,-57.137 -16.928,-79.968 -5.716,-9.772 -12.317,-19.961 -19.678,-30.426 C 445.053,297.276 486,278.168 486,256 Z M 395.043,92.661 c -0.336,1.412 -0.533,2.878 -0.533,4.393 0,10.45 8.472,18.922 18.922,18.922 2.16,0 4.227,-0.379 6.16,-1.046 -1.234,13.611 -8.793,32.791 -22.275,55.838 -6.006,10.267 -13.023,21.011 -20.863,32.051 -18.502,-3.016 -38.792,-5.342 -60.411,-6.864 -1.523,-21.641 -3.852,-41.949 -6.873,-60.466 34.635,-24.669 65.192,-40.225 85.873,-42.828 z M 187.107,310.166 c -0.178,-10.297 -8.566,-18.592 -18.906,-18.592 -0.166,0 -0.326,0.021 -0.491,0.025 -8.688,0.223 -15.903,6.292 -17.877,14.426 -3.686,-0.515 -7.305,-1.058 -10.869,-1.623 10.518,-14.475 22.465,-29.429 35.523,-44.51 1.17,1.329 2.35,2.661 3.539,3.994 l 2.034,-5.463 c -0.724,-0.821 -1.451,-1.643 -2.168,-2.463 1.744,-1.987 3.525,-3.977 5.306,-5.967 3.554,-3.97 7.18,-7.941 10.876,-11.911 1.732,-1.861 3.471,-3.721 5.232,-5.579 5.333,-5.625 10.79,-11.24 16.374,-16.823 5.598,-5.598 11.217,-11.049 16.837,-16.374 1.856,-1.759 3.712,-3.505 5.567,-5.232 5.986,-5.572 11.966,-10.983 17.916,-16.204 5.95,5.22 11.929,10.632 17.916,16.204 1.856,1.727 3.711,3.473 5.567,5.232 5.62,5.325 11.239,10.776 16.838,16.374 5.583,5.583 11.041,11.197 16.373,16.822 0.215,7.738 0.327,15.577 0.327,23.498 0,7.921 -0.113,15.76 -0.327,23.499 -0.071,2.547 -0.155,5.08 -0.248,7.603 -0.301,8.168 -0.715,16.214 -1.241,24.103 -7.886,0.526 -15.928,0.94 -24.092,1.241 -2.532,0.093 -5.073,0.178 -7.628,0.248 -7.734,0.214 -15.568,0.327 -23.484,0.327 -7.916,0 -15.75,-0.112 -23.484,-0.327 -2.555,-0.071 -5.096,-0.155 -7.628,-0.248 -8.164,-0.301 -16.207,-0.715 -24.093,-1.241 -1.737,-0.116 -3.466,-0.237 -5.188,-0.364 -2.857,-0.21 -5.688,-0.437 -8.501,-0.675 z m 13.54,-107.047 c 0.049,-0.774 0.096,-1.552 0.148,-2.323 0.244,-0.016 0.49,-0.031 0.734,-0.047 l 1.97,-5.291 c -0.784,0.048 -1.56,0.101 -2.34,0.15 1.476,-20.103 3.665,-39.146 6.444,-56.669 4.359,3.176 8.774,6.486 13.239,9.93 10.233,7.894 20.714,16.481 31.308,25.657 -7.207,6.324 -14.449,12.914 -21.689,19.737 -1.858,1.751 -3.715,3.51 -5.572,5.292 -4.275,4.102 -8.546,8.276 -12.803,12.532 -4.255,4.255 -8.42,8.53 -12.533,12.812 -1.777,1.85 -3.543,3.7 -5.291,5.553 -2.117,2.244 -4.223,4.488 -6.297,6.734 -4.589,4.97 -9.07,9.942 -13.433,14.906 -13.137,-15.218 -25.028,-30.193 -35.435,-44.515 17.479,-2.766 36.469,-4.947 56.511,-6.418 -0.378,5.925 -0.696,11.945 -0.951,18.052 z m 109.426,-2.396 c 0.376,0.025 0.756,0.047 1.132,0.072 0.079,1.181 0.152,2.368 0.226,3.556 0.42,6.747 0.759,13.602 1.015,20.547 -4.112,-4.282 -8.277,-8.557 -12.532,-12.812 -4.256,-4.257 -8.527,-8.43 -12.803,-12.532 -1.857,-1.782 -3.714,-3.541 -5.572,-5.292 -7.24,-6.823 -14.483,-13.414 -21.69,-19.738 10.461,-9.06 20.813,-17.551 30.923,-25.363 4.597,-3.551 9.139,-6.957 13.624,-10.224 2.779,17.523 4.968,36.567 6.444,56.67 -0.915,-0.058 -1.828,-0.118 -2.748,-0.174 z m 7.664,80.826 c 0.072,-2.532 0.138,-5.072 0.189,-7.63 0.117,-5.907 0.177,-11.882 0.177,-17.919 0,-6.037 -0.06,-12.012 -0.177,-17.919 3.523,3.784 6.986,7.57 10.381,11.354 1.964,2.189 3.92,4.379 5.838,6.565 -0.782,0.891 -1.59,1.784 -2.379,2.676 l 2.014,5.381 c 1.243,-1.395 2.494,-2.789 3.719,-4.183 13.064,15.087 25.017,30.047 35.538,44.527 -7.394,1.172 -15.059,2.238 -22.961,3.191 -10.818,1.304 -22.072,2.397 -33.683,3.249 0.607,-9.53 1.059,-19.305 1.344,-29.292 z m 5.768,-44.944 c -1.899,-2.053 -3.832,-4.103 -5.767,-6.154 -0.098,-3.418 -0.212,-6.815 -0.348,-10.183 -0.262,-6.472 -0.597,-12.841 -0.997,-19.109 20.093,1.475 39.128,3.663 56.644,6.44 -10.521,14.481 -22.474,29.441 -35.538,44.528 -4.543,-5.169 -9.208,-10.347 -13.994,-15.522 z M 256,31.083 c 19.551,0 37.179,41.219 47.497,102.36 -4.79,3.448 -9.645,7.051 -14.559,10.819 -10.77,8.258 -21.799,17.265 -32.938,26.912 -11.275,-9.765 -22.436,-18.87 -33.332,-27.211 -4.78,-3.659 -9.503,-7.164 -14.166,-10.52 C 218.821,72.301 236.449,31.083 256,31.083 Z M 96.959,96.959 c 3.132,-3.131 7.888,-4.719 14.138,-4.719 8.929,0 20.267,3.075 33.351,8.765 -0.778,2.07 -1.224,4.304 -1.224,6.646 0,10.45 8.472,18.922 18.922,18.922 6.345,0 11.947,-3.134 15.38,-7.927 8.116,4.999 16.579,10.631 25.302,16.845 -3.021,18.517 -5.35,38.825 -6.873,60.466 -21.573,1.518 -41.822,3.837 -60.292,6.844 C 99.788,152.327 83.146,110.772 96.959,96.959 Z M 31.083,256 c 0,-19.535 41.151,-37.15 102.209,-47.472 10.94,15.195 23.627,31.164 37.818,47.501 -13.959,16.093 -26.649,32.047 -37.738,47.456 C 72.27,293.166 31.083,275.543 31.083,256 Z m 160.009,128.62 c -2.111,1.415 -4.204,2.794 -6.277,4.133 -30.416,19.648 -56.518,31.008 -73.718,31.008 -6.25,0 -11.006,-1.588 -14.138,-4.72 -10.206,-10.205 -3.746,-37.108 17.723,-73.809 6.006,-10.267 13.023,-21.011 20.863,-32.051 4.487,0.731 9.082,1.421 13.772,2.07 0.207,5.237 2.534,9.917 6.157,13.219 3.362,3.065 7.819,4.949 12.727,4.949 8.779,0 16.141,-5.988 18.277,-14.096 3.128,0.259 6.29,0.498 9.477,0.722 1.726,0.121 3.46,0.237 5.203,0.348 9.533,0.608 19.311,1.06 29.302,1.345 2.529,0.072 5.068,0.138 7.623,0.189 5.906,0.117 11.88,0.177 17.916,0.177 6.036,0 12.011,-0.06 17.917,-0.177 2.556,-0.051 5.094,-0.116 7.624,-0.189 9.99,-0.285 19.768,-0.737 29.301,-1.345 -0.756,10.301 -1.701,20.322 -2.815,30.006 -1.06,9.215 -2.274,18.119 -3.629,26.663 -14.348,-10.453 -29.329,-22.407 -44.547,-35.587 1.293,-1.135 2.587,-2.278 3.883,-3.43 h -7.637 c -0.032,0.028 -0.064,0.057 -0.096,0.085 -0.032,-0.028 -0.064,-0.057 -0.096,-0.085 h -7.636 c 1.295,1.151 2.589,2.295 3.882,3.43 -15.218,13.179 -30.199,25.134 -44.548,35.586 -1.37,-8.642 -2.596,-17.653 -3.665,-26.981 l -3.861,11.584 c 0.841,6.463 1.758,12.752 2.752,18.844 -3.969,2.83 -7.881,5.528 -11.736,8.112 z m 109.365,10.349 c -0.231,-0.008 -0.458,-0.035 -0.691,-0.035 -10.45,0 -18.922,8.472 -18.922,18.922 0,7.444 4.309,13.865 10.559,16.955 -9.805,31.193 -22.163,50.107 -35.403,50.107 -19.551,0 -37.179,-41.219 -47.497,-102.36 15.291,-11.004 31.277,-23.682 47.498,-37.73 16.221,14.048 32.207,26.726 47.497,37.73 -0.953,5.645 -1.968,11.122 -3.041,16.411 z m 96.861,-53.738 c 21.468,36.701 27.929,63.604 17.723,73.809 -3.132,3.132 -7.888,4.72 -14.139,4.72 -17.2,0 -43.301,-11.36 -73.717,-31.008 -2.078,-1.342 -4.177,-2.726 -6.294,-4.145 -3.849,-2.58 -7.754,-5.274 -11.718,-8.097 0.982,-6.022 1.89,-12.238 2.723,-18.623 1.728,-13.247 3.123,-27.241 4.15,-41.844 12.443,-0.876 24.448,-2.016 35.922,-3.404 8.461,-1.023 16.636,-2.18 24.49,-3.46 7.837,11.041 14.854,21.785 20.86,32.052 z m -18.69,-37.746 C 367.532,288.066 354.834,272.102 340.865,256 c 13.969,-16.102 26.667,-32.067 37.763,-47.485 61.102,10.32 102.289,27.942 102.289,47.485 0,19.543 -41.187,37.166 -102.289,47.485 z"
               style="fill:#ffffff" />
          </g>
        </g>
      </g>
    </g>
  </g>
</svg>
