<?xml version="1.0" standalone="no"?><!-- Generator: Gravit.io --><svg xmlns="http://www.w3.org/2000/svg" xmlns:xlink="http://www.w3.org/1999/xlink" style="isolation:isolate" viewBox="0 0 256 256" width="256" height="256"><defs><clipPath id="_clipPath_PucMdlSeTcAuRolJE4x7ikJCwwPFkoY8"><rect width="256" height="256"/></clipPath></defs><g clip-path="url(#_clipPath_PucMdlSeTcAuRolJE4x7ikJCwwPFkoY8)"><rect width="256" height="256" style="fill:rgba(0,0,0,0)"/><g id="icon"><g id="drop shadow"><defs><filter id="V5lUqOypiWASEVilXXrq2zo8J6NUerev" x="-200%" y="-200%" width="400%" height="400%"><feGaussianBlur xmlns="http://www.w3.org/2000/svg" stdDeviation="2.32"/></filter></defs><g opacity="0.2" filter="url(#V5lUqOypiWASEVilXXrq2zo8J6NUerev)"><path d=" M 165.685 15.849 C 239.741 15.849 250.325 26.407 250.325 100.394 L 250.325 159.645 C 250.325 233.632 239.741 244.189 165.685 244.189 L 90.315 244.189 C 16.259 244.189 5.675 233.632 5.675 159.645 L 5.675 100.394 C 5.675 26.407 16.259 15.849 90.315 15.849 L 165.685 15.849 Z " fill="rgb(0,0,0)"/></g><defs><filter id="lVhTk8qWJ3x8iVkMtPhvpgsPCWSEnhTi" x="-200%" y="-200%" width="400%" height="400%"><feGaussianBlur xmlns="http://www.w3.org/2000/svg" stdDeviation="1.16"/></filter></defs><g opacity="0.1" filter="url(#lVhTk8qWJ3x8iVkMtPhvpgsPCWSEnhTi)"><path d=" M 165.685 14.83 C 239.741 14.83 250.325 25.387 250.325 99.374 L 250.325 158.626 C 250.325 232.612 239.741 243.17 165.685 243.17 L 90.315 243.17 C 16.259 243.17 5.675 232.612 5.675 158.626 L 5.675 99.374 C 5.675 25.387 16.259 14.83 90.315 14.83 L 165.685 14.83 Z " fill="rgb(0,0,0)"/></g></g><path d=" M 165.685 13.811 C 239.741 13.811 250.325 24.368 250.325 98.355 L 250.325 157.606 C 250.325 231.593 239.741 242.151 165.685 242.151 L 90.315 242.151 C 16.259 242.151 5.675 231.593 5.675 157.606 L 5.675 98.355 C 5.675 24.368 16.259 13.811 90.315 13.811 L 165.685 13.811 Z " fill="rgb(255,255,255)"/><clipPath id="_clipPath_kTwt851mniixBgKFBxRqtk31bjZZyhGS"><path d=" M 165.685 13.811 C 239.741 13.811 250.325 24.368 250.325 98.355 L 250.325 157.606 C 250.325 231.593 239.741 242.151 165.685 242.151 L 90.315 242.151 C 16.259 242.151 5.675 231.593 5.675 157.606 L 5.675 98.355 C 5.675 24.368 16.259 13.811 90.315 13.811 L 165.685 13.811 Z " fill="rgb(255,255,255)"/></clipPath><g clip-path="url(#_clipPath_kTwt851mniixBgKFBxRqtk31bjZZyhGS)"><linearGradient id="_lgradient_17" x1="7.762790380816112%" y1="6.798067939622192%" x2="91.96471149260847%" y2="94.09478920323494%"><stop offset="0%" stop-opacity="1" style="stop-color:rgb(92,135,245)"/><stop offset="100%" stop-opacity="1" style="stop-color:rgb(124,160,249)"/></linearGradient><path d=" M 165.685 13.811 C 239.741 13.811 250.325 24.368 250.325 98.355 L 250.325 157.606 C 250.325 231.593 239.741 242.151 165.685 242.151 L 90.315 242.151 C 16.259 242.151 5.675 231.593 5.675 157.606 L 5.675 98.355 C 5.675 24.368 16.259 13.811 90.315 13.811 L 165.685 13.811 Z " fill="url(#_lgradient_17)"/></g><g id="highlight"><clipPath id="_clipPath_vODTBm2iDk321RJqaiKxJj1XkFMZvvN9"><path d=" M 165.685 13.811 C 239.741 13.811 250.325 24.368 250.325 98.355 L 250.325 157.606 C 250.325 231.593 239.741 242.151 165.685 242.151 L 90.315 242.151 C 16.259 242.151 5.675 231.593 5.675 157.606 L 5.675 98.355 C 5.675 24.368 16.259 13.811 90.315 13.811 L 165.685 13.811 Z " fill="rgb(255,255,255)"/></clipPath><g clip-path="url(#_clipPath_vODTBm2iDk321RJqaiKxJj1XkFMZvvN9)"><g opacity="0.4"><linearGradient id="_lgradient_18" x1="51.666666666666686%" y1="0%" x2="51.66666666666666%" y2="100.00000000000003%"><stop offset="0%" stop-opacity="1" style="stop-color:rgb(255,255,255)"/><stop offset="12.5%" stop-opacity="0.09803922" style="stop-color:rgb(255,255,255)"/><stop offset="92.500001%" stop-opacity="0.09803922" style="stop-color:rgb(0,0,0)"/><stop offset="100%" stop-opacity="0.49803922" style="stop-color:rgb(0,0,0)"/></linearGradient><path d=" M 165.685 13.811 C 239.741 13.811 250.325 24.368 250.325 98.355 L 250.325 157.606 C 250.325 231.593 239.741 242.151 165.685 242.151 L 90.315 242.151 C 16.259 242.151 5.675 231.593 5.675 157.606 L 5.675 98.355 C 5.675 24.368 16.259 13.811 90.315 13.811 L 165.685 13.811 Z " fill="none" vector-effect="non-scaling-stroke" stroke-width="4" stroke="url(#_lgradient_18)" stroke-linejoin="round" stroke-linecap="round" stroke-miterlimit="4"/></g></g></g></g><g id="Group"><defs><filter id="cFVFLhi2fKGsUBhadB1lbLQqSxko1jRf" x="-200%" y="-200%" width="400%" height="400%"><feGaussianBlur xmlns="http://www.w3.org/2000/svg" stdDeviation="2.6000235"/></filter></defs><g opacity="0.1" filter="url(#cFVFLhi2fKGsUBhadB1lbLQqSxko1jRf)"><path d=" M 153.249 147.263 C 155.629 147.233 157.226 147.767 158.047 148.752 C 158.908 149.778 159.351 151.46 159.351 153.799 L 159.351 194.708 C 159.351 197.047 158.908 198.73 158.047 199.756 C 157.226 200.741 155.629 201.245 153.249 201.245 L 102.471 201.245 C 100.092 201.245 98.49 200.741 97.67 199.756 C 96.808 198.73 96.369 197.047 96.369 194.708 L 96.369 153.799 C 96.369 151.46 96.808 149.778 97.67 148.752 C 98.49 147.767 100.092 147.263 102.471 147.263 L 153.249 147.263 Z " fill="rgb(0,0,0)"/></g><path d=" M 153.249 146.138 C 155.629 146.108 157.226 146.642 158.047 147.627 C 158.908 148.653 159.351 150.336 159.351 152.675 L 159.351 193.584 C 159.351 195.923 158.908 197.605 158.047 198.631 C 157.226 199.616 155.629 200.12 153.249 200.12 L 102.471 200.12 C 100.092 200.12 98.49 199.616 97.67 198.631 C 96.808 197.605 96.369 195.923 96.369 193.584 L 96.369 152.675 C 96.369 150.336 96.808 148.653 97.67 147.627 C 98.49 146.642 100.092 146.138 102.471 146.138 L 153.249 146.138 Z " fill="rgb(255,255,255)"/><defs><filter id="Ygl2dhv1tIGLgNHffSobm8yPmFz7JFXq" x="-200%" y="-200%" width="400%" height="400%"><feGaussianBlur xmlns="http://www.w3.org/2000/svg" stdDeviation="2.6000235"/></filter></defs><g opacity="0.1" filter="url(#Ygl2dhv1tIGLgNHffSobm8yPmFz7JFXq)"><path d=" M 221.249 147.263 C 223.629 147.233 225.226 147.767 226.047 148.752 C 226.908 149.778 227.351 151.46 227.351 153.799 L 227.351 194.708 C 227.351 197.047 226.908 198.73 226.047 199.756 C 225.226 200.741 223.629 201.245 221.249 201.245 L 170.471 201.245 C 168.092 201.245 166.49 200.741 165.67 199.756 C 164.808 198.73 164.369 197.047 164.369 194.708 L 164.369 153.799 C 164.369 151.46 164.808 149.778 165.67 148.752 C 166.49 147.767 168.092 147.263 170.471 147.263 L 221.249 147.263 Z " fill="rgb(0,0,0)"/></g><path d=" M 221.249 146.138 C 223.629 146.108 225.226 146.642 226.047 147.627 C 226.908 148.653 227.351 150.336 227.351 152.675 L 227.351 193.584 C 227.351 195.923 226.908 197.605 226.047 198.631 C 225.226 199.616 223.629 200.12 221.249 200.12 L 170.471 200.12 C 168.092 200.12 166.49 199.616 165.67 198.631 C 164.808 197.605 164.369 195.923 164.369 193.584 L 164.369 152.675 C 164.369 150.336 164.808 148.653 165.67 147.627 C 166.49 146.642 168.092 146.138 170.471 146.138 L 221.249 146.138 Z " fill="rgb(255,255,255)"/><defs><filter id="BNFr8mc89wfzjqEr3hHabaVhgzdkdBXS" x="-200%" y="-200%" width="400%" height="400%"><feGaussianBlur xmlns="http://www.w3.org/2000/svg" stdDeviation="2.6000235"/></filter></defs><g opacity="0.1" filter="url(#BNFr8mc89wfzjqEr3hHabaVhgzdkdBXS)"><path d=" M 86.249 147.263 C 88.629 147.233 90.226 147.767 91.047 148.752 C 91.908 149.778 92.351 151.46 92.351 153.799 L 92.351 194.708 C 92.351 197.047 91.908 198.73 91.047 199.756 C 90.226 200.741 88.629 201.245 86.249 201.245 L 35.471 201.245 C 33.092 201.245 31.49 200.741 30.67 199.756 C 29.808 198.73 29.369 197.047 29.369 194.708 L 29.369 153.799 C 29.369 151.46 29.808 149.778 30.67 148.752 C 31.49 147.767 33.092 147.263 35.471 147.263 L 86.249 147.263 Z " fill="rgb(0,0,0)"/></g><path d=" M 86.249 146.138 C 88.629 146.108 90.226 146.642 91.047 147.627 C 91.908 148.653 92.351 150.336 92.351 152.675 L 92.351 193.584 C 92.351 195.923 91.908 197.605 91.047 198.631 C 90.226 199.616 88.629 200.12 86.249 200.12 L 35.471 200.12 C 33.092 200.12 31.49 199.616 30.67 198.631 C 29.808 197.605 29.369 195.923 29.369 193.584 L 29.369 152.675 C 29.369 150.336 29.808 148.653 30.67 147.627 C 31.49 146.642 33.092 146.138 35.471 146.138 L 86.249 146.138 Z " fill="rgb(255,255,255)"/></g></g></svg>