<?xml version="1.0" standalone="no"?><!-- Generator: Gravit.io --><svg xmlns="http://www.w3.org/2000/svg" xmlns:xlink="http://www.w3.org/1999/xlink" style="isolation:isolate" viewBox="0 0 256 256" width="256" height="256"><defs><clipPath id="_clipPath_NNkj0NfTBMlaOItSzw068LfrJm7EljwT"><rect width="256" height="256"/></clipPath></defs><g clip-path="url(#_clipPath_NNkj0NfTBMlaOItSzw068LfrJm7EljwT)"><rect width="256" height="256" style="fill:rgba(0,0,0,0)"/><g id="icon"><g id="drop shadow"><defs><filter id="77y7sEkWfVD6n4jiT5egVAdnP8jiJVla" x="-200%" y="-200%" width="400%" height="400%"><feGaussianBlur xmlns="http://www.w3.org/2000/svg" stdDeviation="2.32"/></filter></defs><g opacity="0.2" filter="url(#77y7sEkWfVD6n4jiT5egVAdnP8jiJVla)"><path d=" M 165.685 15.849 C 239.741 15.849 250.325 26.407 250.325 100.394 L 250.325 159.645 C 250.325 233.632 239.741 244.189 165.685 244.189 L 90.315 244.189 C 16.259 244.189 5.675 233.632 5.675 159.645 L 5.675 100.394 C 5.675 26.407 16.259 15.849 90.315 15.849 L 165.685 15.849 Z " fill="rgb(0,0,0)"/></g><defs><filter id="I1wk35xyVMiutF9aCpxjLVrnMZurHATi" x="-200%" y="-200%" width="400%" height="400%"><feGaussianBlur xmlns="http://www.w3.org/2000/svg" stdDeviation="1.16"/></filter></defs><g opacity="0.1" filter="url(#I1wk35xyVMiutF9aCpxjLVrnMZurHATi)"><path d=" M 165.685 14.83 C 239.741 14.83 250.325 25.387 250.325 99.374 L 250.325 158.626 C 250.325 232.612 239.741 243.17 165.685 243.17 L 90.315 243.17 C 16.259 243.17 5.675 232.612 5.675 158.626 L 5.675 99.374 C 5.675 25.387 16.259 14.83 90.315 14.83 L 165.685 14.83 Z " fill="rgb(0,0,0)"/></g></g><path d=" M 165.685 13.811 C 239.741 13.811 250.325 24.368 250.325 98.355 L 250.325 157.606 C 250.325 231.593 239.741 242.151 165.685 242.151 L 90.315 242.151 C 16.259 242.151 5.675 231.593 5.675 157.606 L 5.675 98.355 C 5.675 24.368 16.259 13.811 90.315 13.811 L 165.685 13.811 Z " fill="rgb(255,255,255)"/><clipPath id="_clipPath_SJpso5rRvLzPv2XAlKcrvITLbgDX5pL4"><path d=" M 165.685 13.811 C 239.741 13.811 250.325 24.368 250.325 98.355 L 250.325 157.606 C 250.325 231.593 239.741 242.151 165.685 242.151 L 90.315 242.151 C 16.259 242.151 5.675 231.593 5.675 157.606 L 5.675 98.355 C 5.675 24.368 16.259 13.811 90.315 13.811 L 165.685 13.811 Z " fill="rgb(255,255,255)"/></clipPath><g clip-path="url(#_clipPath_SJpso5rRvLzPv2XAlKcrvITLbgDX5pL4)"><linearGradient id="_lgradient_15" x1="7.762790380816112%" y1="6.798067939622192%" x2="91.96471149260847%" y2="94.09478920323494%"><stop offset="0%" stop-opacity="1" style="stop-color:rgb(92,135,245)"/><stop offset="100%" stop-opacity="1" style="stop-color:rgb(124,160,249)"/></linearGradient><path d=" M 165.685 13.811 C 239.741 13.811 250.325 24.368 250.325 98.355 L 250.325 157.606 C 250.325 231.593 239.741 242.151 165.685 242.151 L 90.315 242.151 C 16.259 242.151 5.675 231.593 5.675 157.606 L 5.675 98.355 C 5.675 24.368 16.259 13.811 90.315 13.811 L 165.685 13.811 Z " fill="url(#_lgradient_15)"/></g><g id="highlight"><clipPath id="_clipPath_MsUeEc3cCzGIneP6MmqPtGLlSqnajCep"><path d=" M 165.685 13.811 C 239.741 13.811 250.325 24.368 250.325 98.355 L 250.325 157.606 C 250.325 231.593 239.741 242.151 165.685 242.151 L 90.315 242.151 C 16.259 242.151 5.675 231.593 5.675 157.606 L 5.675 98.355 C 5.675 24.368 16.259 13.811 90.315 13.811 L 165.685 13.811 Z " fill="rgb(255,255,255)"/></clipPath><g clip-path="url(#_clipPath_MsUeEc3cCzGIneP6MmqPtGLlSqnajCep)"><g opacity="0.4"><linearGradient id="_lgradient_16" x1="51.666666666666686%" y1="0%" x2="51.66666666666666%" y2="100.00000000000003%"><stop offset="0%" stop-opacity="1" style="stop-color:rgb(255,255,255)"/><stop offset="12.5%" stop-opacity="0.09803922" style="stop-color:rgb(255,255,255)"/><stop offset="92.500001%" stop-opacity="0.09803922" style="stop-color:rgb(0,0,0)"/><stop offset="100%" stop-opacity="0.49803922" style="stop-color:rgb(0,0,0)"/></linearGradient><path d=" M 165.685 13.811 C 239.741 13.811 250.325 24.368 250.325 98.355 L 250.325 157.606 C 250.325 231.593 239.741 242.151 165.685 242.151 L 90.315 242.151 C 16.259 242.151 5.675 231.593 5.675 157.606 L 5.675 98.355 C 5.675 24.368 16.259 13.811 90.315 13.811 L 165.685 13.811 Z " fill="none" vector-effect="non-scaling-stroke" stroke-width="4" stroke="url(#_lgradient_16)" stroke-linejoin="round" stroke-linecap="round" stroke-miterlimit="4"/></g></g></g></g><g id="Group"><defs><filter id="VE8QitC91NZzxF0V2p2l8L7KC0rauiMQ" x="-200%" y="-200%" width="400%" height="400%"><feGaussianBlur xmlns="http://www.w3.org/2000/svg" stdDeviation="2.6000235"/></filter></defs><g opacity="0.1" filter="url(#VE8QitC91NZzxF0V2p2l8L7KC0rauiMQ)"><path d=" M 153.249 147.263 C 155.629 147.233 157.226 147.767 158.047 148.752 C 158.908 149.778 159.351 151.46 159.351 153.799 L 159.351 194.708 C 159.351 197.047 158.908 198.73 158.047 199.756 C 157.226 200.741 155.629 201.245 153.249 201.245 L 102.471 201.245 C 100.092 201.245 98.49 200.741 97.67 199.756 C 96.808 198.73 96.369 197.047 96.369 194.708 L 96.369 153.799 C 96.369 151.46 96.808 149.778 97.67 148.752 C 98.49 147.767 100.092 147.263 102.471 147.263 L 153.249 147.263 Z " fill="rgb(0,0,0)"/></g><path d=" M 153.249 146.138 C 155.629 146.108 157.226 146.642 158.047 147.627 C 158.908 148.653 159.351 150.336 159.351 152.675 L 159.351 193.584 C 159.351 195.923 158.908 197.605 158.047 198.631 C 157.226 199.616 155.629 200.12 153.249 200.12 L 102.471 200.12 C 100.092 200.12 98.49 199.616 97.67 198.631 C 96.808 197.605 96.369 195.923 96.369 193.584 L 96.369 152.675 C 96.369 150.336 96.808 148.653 97.67 147.627 C 98.49 146.642 100.092 146.138 102.471 146.138 L 153.249 146.138 Z " fill="rgb(255,255,255)"/><defs><filter id="auuNkGRW7bS92uEbyjNDnlQiNOgxJE6Q" x="-200%" y="-200%" width="400%" height="400%"><feGaussianBlur xmlns="http://www.w3.org/2000/svg" stdDeviation="2.6000235"/></filter></defs><g opacity="0.1" filter="url(#auuNkGRW7bS92uEbyjNDnlQiNOgxJE6Q)"><path d=" M 221.249 147.263 C 223.629 147.233 225.226 147.767 226.047 148.752 C 226.908 149.778 227.351 151.46 227.351 153.799 L 227.351 194.708 C 227.351 197.047 226.908 198.73 226.047 199.756 C 225.226 200.741 223.629 201.245 221.249 201.245 L 170.471 201.245 C 168.092 201.245 166.49 200.741 165.67 199.756 C 164.808 198.73 164.369 197.047 164.369 194.708 L 164.369 153.799 C 164.369 151.46 164.808 149.778 165.67 148.752 C 166.49 147.767 168.092 147.263 170.471 147.263 L 221.249 147.263 Z " fill="rgb(0,0,0)"/></g><path d=" M 221.249 146.138 C 223.629 146.108 225.226 146.642 226.047 147.627 C 226.908 148.653 227.351 150.336 227.351 152.675 L 227.351 193.584 C 227.351 195.923 226.908 197.605 226.047 198.631 C 225.226 199.616 223.629 200.12 221.249 200.12 L 170.471 200.12 C 168.092 200.12 166.49 199.616 165.67 198.631 C 164.808 197.605 164.369 195.923 164.369 193.584 L 164.369 152.675 C 164.369 150.336 164.808 148.653 165.67 147.627 C 166.49 146.642 168.092 146.138 170.471 146.138 L 221.249 146.138 Z " fill="rgb(255,255,255)"/><g id="g158"><defs><filter id="fQHxzuN2ahcE2GdIJPOUCI4stTAtGJbB" x="-200%" y="-200%" width="400%" height="400%"><feGaussianBlur xmlns="http://www.w3.org/2000/svg" stdDeviation="2.718687"/></filter></defs><g opacity="0.3" filter="url(#fQHxzuN2ahcE2GdIJPOUCI4stTAtGJbB)"><path d=" M 58.318 144.699 C 57.593 144.69 56.871 144.711 56.152 144.762 L 56.152 144.763 C 47.532 145.367 39.513 150.174 35.013 157.969 L 38.55 160.009 C 43.636 151.199 53.98 146.914 63.806 149.547 C 71.239 151.539 76.949 157.108 79.29 164.107 L 71.606 167.064 C 74.062 169.386 76.677 171.706 79.451 174.025 C 82.217 176.314 84.978 178.486 87.734 180.539 C 88.436 177.154 89.044 173.685 89.56 170.132 C 90.062 166.553 90.429 163.086 90.657 159.731 L 83.101 162.639 C 80.293 154.454 73.571 147.936 64.864 145.603 C 62.69 145.021 60.493 144.725 58.318 144.699 Z  M 28.257 161.928 C 27.555 165.313 26.947 168.783 26.431 172.336 C 25.929 175.915 25.562 179.382 25.333 182.737 L 32.888 179.829 C 35.695 188.014 42.419 194.533 51.126 196.866 C 54.024 197.643 56.965 197.907 59.838 197.705 C 68.458 197.101 76.478 192.296 80.979 184.501 L 77.44 182.46 C 72.354 191.271 62.01 195.555 52.184 192.922 C 44.75 190.931 39.041 185.36 36.7 178.36 L 44.384 175.403 C 41.928 173.081 39.313 170.761 36.54 168.442 C 33.773 166.153 31.012 163.981 28.257 161.928 Z " fill="rgb(15,0,0)"/></g><path d=" M 58.318 144.699 C 57.593 144.691 56.871 144.712 56.152 144.762 L 56.152 144.763 C 47.532 145.367 39.513 150.174 35.013 157.969 L 38.55 160.009 C 43.636 151.199 53.98 146.914 63.806 149.547 C 71.239 151.539 76.949 157.108 79.29 164.106 L 71.606 167.064 C 74.062 169.386 76.677 171.706 79.451 174.025 C 82.217 176.314 84.978 178.486 87.734 180.539 C 88.436 177.154 89.044 173.685 89.56 170.132 C 90.062 166.553 90.429 163.086 90.657 159.731 L 83.101 162.639 C 80.293 154.454 73.571 147.936 64.864 145.603 C 62.69 145.021 60.493 144.725 58.318 144.699 L 58.318 144.699 Z  M 28.257 161.928 C 27.555 165.313 26.947 168.783 26.431 172.336 C 25.929 175.915 25.562 179.382 25.333 182.737 L 32.888 179.829 C 35.695 188.014 42.419 194.533 51.126 196.866 C 54.024 197.643 56.965 197.907 59.838 197.705 C 68.458 197.101 76.478 192.296 80.979 184.501 L 77.44 182.46 C 72.354 191.271 62.01 195.555 52.184 192.922 C 44.75 190.931 39.041 185.36 36.7 178.36 L 44.384 175.403 C 41.928 173.081 39.313 170.761 36.54 168.442 C 33.773 166.153 31.012 163.981 28.257 161.928 Z " fill="rgb(255,255,255)"/></g></g></g></svg>