<svg xmlns="http://www.w3.org/2000/svg" style="isolation:isolate" width="256" height="256"><switch><g><defs><filter id="a" width="270.648" height="254.338" x="-7.32" y="2.95" filterUnits="userSpaceOnUse"><feGaussianBlur xmlns="http://www.w3.org/2000/svg" in="SourceGraphic" stdDeviation="4.294"/><feOffset xmlns="http://www.w3.org/2000/svg" dy="4" result="pf_100_offsetBlur"/><feFlood xmlns="http://www.w3.org/2000/svg" flood-opacity=".4"/><feComposite xmlns="http://www.w3.org/2000/svg" in2="pf_100_offsetBlur" operator="in" result="pf_100_dropShadow"/><feBlend xmlns="http://www.w3.org/2000/svg" in="SourceGraphic" in2="pf_100_dropShadow"/></filter></defs><g filter="url(#a)"><linearGradient id="b" x1=".527" x2=".527" y1="-.281" y2="1.227" gradientTransform="matrix(244.648 0 0 228.338 5.676 11.947)" gradientUnits="userSpaceOnUse"><stop offset="0%" stop-color="#5884f4"/><stop offset="100%" stop-color="#80a3fa"/></linearGradient><path fill="url(#b)" d="M165.685 11.947c74.055 0 84.639 10.557 84.639 84.544v59.251c0 73.986-10.584 84.543-84.639 84.543h-75.37c-74.055 0-84.639-10.557-84.639-84.543V96.491c0-73.987 10.584-84.544 84.639-84.544h75.37z"/></g><path fill="#FFF" d="M5.676 126.116v29.626c0 73.986 10.584 84.543 84.639 84.543h75.37c74.055 0 84.639-10.557 84.639-84.543v-29.626H5.676z" opacity=".1"/><g opacity=".4"><linearGradient id="c" x1=".517" x2=".517" y2="1"><stop offset="0%" stop-color="#fff"/><stop offset="12.5%" stop-opacity=".098" stop-color="#fff"/><stop offset="92.5%" stop-opacity=".098"/><stop offset="100%" stop-opacity=".498"/></linearGradient><path fill="none" stroke="url(#c)" stroke-linecap="round" stroke-linejoin="round" stroke-width="4.077" d="M165.685 11.947c74.055 0 84.639 10.557 84.639 84.544v59.251c0 73.986-10.584 84.543-84.639 84.543h-75.37c-74.055 0-84.639-10.557-84.639-84.543V96.491c0-73.987 10.584-84.544 84.639-84.544h75.37z" vector-effect="non-scaling-stroke"/></g><g fill="#FFF"><path d="M146.961 159.402c1.743-.022 2.912.37 3.513 1.091.631.752.956 1.984.956 3.697v29.961c0 1.713-.325 2.946-.956 3.697-.601.721-1.77 1.091-3.513 1.091h-37.19c-1.742 0-2.915-.37-3.516-1.091-.631-.751-.953-1.984-.953-3.697V164.19c0-1.713.322-2.945.953-3.697.601-.721 1.774-1.091 3.516-1.091h37.19zM196.031 159.402c1.743-.022 2.912.37 3.513 1.091.631.752.956 1.984.956 3.697v29.961c0 1.713-.325 2.946-.956 3.697-.601.721-1.77 1.091-3.513 1.091h-37.189c-1.743 0-2.916-.37-3.517-1.091-.631-.751-.952-1.984-.952-3.697V164.19c0-1.713.321-2.945.952-3.697.601-.721 1.774-1.091 3.517-1.091h37.189zM72.569 159.274c-.844.003-1.592.12-2.242.352-.66.242-1.212.562-1.658.962-.445.4-.784.866-1.015 1.398a4.197 4.197 0 0 0-.344 1.702c.001.381.032.721.091 1.023.06.31.128.575.207.796a3.5 3.5 0 0 0 .234.557c.079.142.137.272.176.325l.383.619c.176.286.257.534.242.744-.008.213-.131.393-.372.542a1.596 1.596 0 0 1-.387.165l-12.606.041.028 8.531a1.625 1.625 0 0 0 .165.386c.149.241.33.365.542.372.21.015.459-.066.744-.243l.619-.381c.053-.039.183-.099.325-.177.141-.078.327-.156.557-.235.221-.078.487-.147.797-.206.3-.059.641-.089 1.022-.091a4.177 4.177 0 0 1 1.702.344c.532.231.998.57 1.398 1.015.4.446.719.998.961 1.658.232.649.35 1.397.353 2.242.003.845-.096 1.598-.298 2.259-.21.651-.505 1.201-.884 1.649a3.77 3.77 0 0 1-1.365 1.025 4.344 4.344 0 0 1-1.766.355 7.004 7.004 0 0 1-1.873-.242 5.073 5.073 0 0 1-.6-.202c-.159-.077-.237-.14-.299-.188l-.621-.379c-.287-.175-.536-.254-.746-.237-.212.009-.392.134-.539.376a1.54 1.54 0 0 0-.163.386l.041 12.549 12.606-.041c.06-.016.126-.039.197-.07.072-.029.135-.061.19-.095.241-.149.364-.329.371-.542.015-.21-.065-.459-.242-.744l-.382-.619c-.039-.053-.098-.183-.176-.324a3.548 3.548 0 0 1-.235-.558 5.675 5.675 0 0 1-.207-.796 5.422 5.422 0 0 1-.09-1.023 4.185 4.185 0 0 1 .343-1.701 4 4 0 0 1 1.016-1.398c.445-.401.998-.721 1.658-.962.649-.233 1.397-.35 2.242-.353.845-.002 1.597.096 2.259.298.651.21 1.201.505 1.649.884.448.38.79.834 1.024 1.365.235.531.353 1.119.355 1.766a6.87 6.87 0 0 1-.241 1.874 5.098 5.098 0 0 1-.203.599c-.077.16-.139.237-.187.299l-.379.621c-.175.287-.254.536-.238.747.009.212.135.391.376.538.056.034.119.066.19.095.072.03.137.053.197.068l8.473-.028-.041-12.548c.016-.06.038-.125.068-.196.03-.072.061-.135.095-.191.147-.241.327-.367.539-.376.211-.016.46.063.746.238l.621.379c.062.048.14.111.299.188.16.067.361.135.6.202.24.067.518.125.837.172.318.048.665.071 1.036.07a4.378 4.378 0 0 0 1.766-.355 3.774 3.774 0 0 0 1.366-1.025c.379-.448.673-.998.883-1.649.202-.662.301-1.414.298-2.259-.002-.845-.121-1.593-.353-2.242-.241-.66-.561-1.212-.961-1.658a4.002 4.002 0 0 0-1.398-1.015 4.174 4.174 0 0 0-1.702-.344c-.38.001-.721.032-1.022.091-.31.059-.576.128-.797.206-.23.079-.416.157-.557.235-.141.078-.271.138-.325.176l-.618.382c-.286.177-.534.258-.745.243-.212-.008-.393-.131-.542-.372a1.657 1.657 0 0 1-.165-.386l-.028-8.531-8.473.027a1.524 1.524 0 0 1-.387-.163c-.241-.147-.367-.326-.375-.539-.017-.21.062-.459.237-.746l.379-.621c.049-.062.111-.139.188-.299.067-.16.135-.36.202-.6.068-.239.125-.517.172-.836.048-.319.071-.665.07-1.037a4.351 4.351 0 0 0-.355-1.766 3.768 3.768 0 0 0-1.024-1.365c-.448-.379-.999-.673-1.65-.884-.661-.202-1.414-.301-2.259-.298z"/></g></g></switch> </svg>