<?xml version="1.0" standalone="no"?><!-- Generator: Gravit.io --><svg xmlns="http://www.w3.org/2000/svg" xmlns:xlink="http://www.w3.org/1999/xlink" style="isolation:isolate" viewBox="0 0 256 256" width="256" height="256"><defs><clipPath id="_clipPath_GUeqFX5GnfYT6Shrc2PMZGBEmImhu65D"><rect width="256" height="256"/></clipPath></defs><g clip-path="url(#_clipPath_GUeqFX5GnfYT6Shrc2PMZGBEmImhu65D)"><rect width="256" height="256" style="fill:rgba(0,0,0,0)"/><g id="icon"><g id="drop shadow"><defs><filter id="csGYMUsdre7WrHXzL17nesUOhtqEj1p0" x="-200%" y="-200%" width="400%" height="400%"><feGaussianBlur xmlns="http://www.w3.org/2000/svg" stdDeviation="2.32"/></filter></defs><g opacity="0.2" filter="url(#csGYMUsdre7WrHXzL17nesUOhtqEj1p0)"><path d=" M 165.685 15.849 C 239.741 15.849 250.325 26.407 250.325 100.394 L 250.325 159.645 C 250.325 233.632 239.741 244.189 165.685 244.189 L 90.315 244.189 C 16.259 244.189 5.675 233.632 5.675 159.645 L 5.675 100.394 C 5.675 26.407 16.259 15.849 90.315 15.849 L 165.685 15.849 Z " fill="rgb(0,0,0)"/></g><defs><filter id="DHR0QkYm0hbPWRfz0vrw5nsTIBQmEbQk" x="-200%" y="-200%" width="400%" height="400%"><feGaussianBlur xmlns="http://www.w3.org/2000/svg" stdDeviation="1.16"/></filter></defs><g opacity="0.1" filter="url(#DHR0QkYm0hbPWRfz0vrw5nsTIBQmEbQk)"><path d=" M 165.685 14.83 C 239.741 14.83 250.325 25.387 250.325 99.374 L 250.325 158.626 C 250.325 232.612 239.741 243.17 165.685 243.17 L 90.315 243.17 C 16.259 243.17 5.675 232.612 5.675 158.626 L 5.675 99.374 C 5.675 25.387 16.259 14.83 90.315 14.83 L 165.685 14.83 Z " fill="rgb(0,0,0)"/></g></g><path d=" M 165.685 13.811 C 239.741 13.811 250.325 24.368 250.325 98.355 L 250.325 157.606 C 250.325 231.593 239.741 242.151 165.685 242.151 L 90.315 242.151 C 16.259 242.151 5.675 231.593 5.675 157.606 L 5.675 98.355 C 5.675 24.368 16.259 13.811 90.315 13.811 L 165.685 13.811 Z " fill="rgb(255,255,255)"/><clipPath id="_clipPath_5emdEPwHxPhgNyK7BX3CP7ZaoNEOK2yQ"><path d=" M 165.685 13.811 C 239.741 13.811 250.325 24.368 250.325 98.355 L 250.325 157.606 C 250.325 231.593 239.741 242.151 165.685 242.151 L 90.315 242.151 C 16.259 242.151 5.675 231.593 5.675 157.606 L 5.675 98.355 C 5.675 24.368 16.259 13.811 90.315 13.811 L 165.685 13.811 Z " fill="rgb(255,255,255)"/></clipPath><g clip-path="url(#_clipPath_5emdEPwHxPhgNyK7BX3CP7ZaoNEOK2yQ)"><linearGradient id="_lgradient_13" x1="7.762790380816112%" y1="6.798067939622192%" x2="91.96471149260847%" y2="94.09478920323494%"><stop offset="0%" stop-opacity="1" style="stop-color:rgb(92,135,245)"/><stop offset="100%" stop-opacity="1" style="stop-color:rgb(124,160,249)"/></linearGradient><path d=" M 165.685 13.811 C 239.741 13.811 250.325 24.368 250.325 98.355 L 250.325 157.606 C 250.325 231.593 239.741 242.151 165.685 242.151 L 90.315 242.151 C 16.259 242.151 5.675 231.593 5.675 157.606 L 5.675 98.355 C 5.675 24.368 16.259 13.811 90.315 13.811 L 165.685 13.811 Z " fill="url(#_lgradient_13)"/></g><g id="highlight"><clipPath id="_clipPath_IPJnRE0qUqHlhOoF5KOp2aiMdQZjVJWL"><path d=" M 165.685 13.811 C 239.741 13.811 250.325 24.368 250.325 98.355 L 250.325 157.606 C 250.325 231.593 239.741 242.151 165.685 242.151 L 90.315 242.151 C 16.259 242.151 5.675 231.593 5.675 157.606 L 5.675 98.355 C 5.675 24.368 16.259 13.811 90.315 13.811 L 165.685 13.811 Z " fill="rgb(255,255,255)"/></clipPath><g clip-path="url(#_clipPath_IPJnRE0qUqHlhOoF5KOp2aiMdQZjVJWL)"><g opacity="0.4"><linearGradient id="_lgradient_14" x1="51.666666666666686%" y1="0%" x2="51.66666666666666%" y2="100.00000000000003%"><stop offset="0%" stop-opacity="1" style="stop-color:rgb(255,255,255)"/><stop offset="12.5%" stop-opacity="0.09803922" style="stop-color:rgb(255,255,255)"/><stop offset="92.500001%" stop-opacity="0.09803922" style="stop-color:rgb(0,0,0)"/><stop offset="100%" stop-opacity="0.49803922" style="stop-color:rgb(0,0,0)"/></linearGradient><path d=" M 165.685 13.811 C 239.741 13.811 250.325 24.368 250.325 98.355 L 250.325 157.606 C 250.325 231.593 239.741 242.151 165.685 242.151 L 90.315 242.151 C 16.259 242.151 5.675 231.593 5.675 157.606 L 5.675 98.355 C 5.675 24.368 16.259 13.811 90.315 13.811 L 165.685 13.811 Z " fill="none" vector-effect="non-scaling-stroke" stroke-width="4" stroke="url(#_lgradient_14)" stroke-linejoin="round" stroke-linecap="round" stroke-miterlimit="4"/></g></g></g></g><g id="Group"><defs><filter id="vEIkEfaeDDKnJV5sOLAq4SXk2hnpp5Hk" x="-200%" y="-200%" width="400%" height="400%"><feGaussianBlur xmlns="http://www.w3.org/2000/svg" stdDeviation="2.6000235"/></filter></defs><g opacity="0.1" filter="url(#vEIkEfaeDDKnJV5sOLAq4SXk2hnpp5Hk)"><path d=" M 153.249 147.263 C 155.629 147.233 157.226 147.767 158.047 148.752 C 158.908 149.778 159.351 151.46 159.351 153.799 L 159.351 194.708 C 159.351 197.047 158.908 198.73 158.047 199.756 C 157.226 200.741 155.629 201.245 153.249 201.245 L 102.471 201.245 C 100.092 201.245 98.49 200.741 97.67 199.756 C 96.808 198.73 96.369 197.047 96.369 194.708 L 96.369 153.799 C 96.369 151.46 96.808 149.778 97.67 148.752 C 98.49 147.767 100.092 147.263 102.471 147.263 L 153.249 147.263 Z " fill="rgb(0,0,0)"/></g><path d=" M 153.249 146.138 C 155.629 146.108 157.226 146.642 158.047 147.627 C 158.908 148.653 159.351 150.336 159.351 152.675 L 159.351 193.584 C 159.351 195.923 158.908 197.605 158.047 198.631 C 157.226 199.616 155.629 200.12 153.249 200.12 L 102.471 200.12 C 100.092 200.12 98.49 199.616 97.67 198.631 C 96.808 197.605 96.369 195.923 96.369 193.584 L 96.369 152.675 C 96.369 150.336 96.808 148.653 97.67 147.627 C 98.49 146.642 100.092 146.138 102.471 146.138 L 153.249 146.138 Z " fill="rgb(255,255,255)"/><defs><filter id="s9bWgXgoqR9dtP2cBHd9o4kgafhMmJpE" x="-200%" y="-200%" width="400%" height="400%"><feGaussianBlur xmlns="http://www.w3.org/2000/svg" stdDeviation="2.6000235"/></filter></defs><g opacity="0.1" filter="url(#s9bWgXgoqR9dtP2cBHd9o4kgafhMmJpE)"><path d=" M 221.249 147.263 C 223.629 147.233 225.226 147.767 226.047 148.752 C 226.908 149.778 227.351 151.46 227.351 153.799 L 227.351 194.708 C 227.351 197.047 226.908 198.73 226.047 199.756 C 225.226 200.741 223.629 201.245 221.249 201.245 L 170.471 201.245 C 168.092 201.245 166.49 200.741 165.67 199.756 C 164.808 198.73 164.369 197.047 164.369 194.708 L 164.369 153.799 C 164.369 151.46 164.808 149.778 165.67 148.752 C 166.49 147.767 168.092 147.263 170.471 147.263 L 221.249 147.263 Z " fill="rgb(0,0,0)"/></g><path d=" M 221.249 146.138 C 223.629 146.108 225.226 146.642 226.047 147.627 C 226.908 148.653 227.351 150.336 227.351 152.675 L 227.351 193.584 C 227.351 195.923 226.908 197.605 226.047 198.631 C 225.226 199.616 223.629 200.12 221.249 200.12 L 170.471 200.12 C 168.092 200.12 166.49 199.616 165.67 198.631 C 164.808 197.605 164.369 195.923 164.369 193.584 L 164.369 152.675 C 164.369 150.336 164.808 148.653 165.67 147.627 C 166.49 146.642 168.092 146.138 170.471 146.138 L 221.249 146.138 Z " fill="rgb(255,255,255)"/><defs><filter id="NbWrqmkuY8ASnXXLrrhZlCEoUvvlOV4G" x="-200%" y="-200%" width="400%" height="400%"><feGaussianBlur xmlns="http://www.w3.org/2000/svg" stdDeviation="2.6000235"/></filter></defs><g opacity="0.1" filter="url(#NbWrqmkuY8ASnXXLrrhZlCEoUvvlOV4G)"><path d=" M 53.451 133.042 C 52.026 133.046 50.764 133.244 49.668 133.636 C 48.555 134.043 47.623 134.584 46.871 135.259 C 46.12 135.934 45.548 136.72 45.158 137.618 C 44.768 138.516 44.575 139.473 44.578 140.489 C 44.58 141.131 44.631 141.706 44.731 142.214 C 44.832 142.737 44.948 143.184 45.08 143.558 C 45.212 143.946 45.344 144.259 45.476 144.498 C 45.608 144.737 45.707 144.957 45.773 145.046 L 46.418 146.09 C 46.716 146.572 46.852 146.991 46.826 147.346 C 46.814 147.704 46.606 148.009 46.2 148.259 C 46.107 148.316 46 148.37 45.879 148.421 C 45.759 148.472 45.648 148.511 45.547 148.538 L 24.278 148.607 L 24.325 163 C 24.352 163.1 24.391 163.212 24.442 163.332 C 24.493 163.453 24.547 163.559 24.604 163.652 C 24.855 164.058 25.16 164.267 25.518 164.279 C 25.873 164.305 26.292 164.168 26.774 163.87 L 27.818 163.226 C 27.907 163.16 28.127 163.06 28.366 162.928 C 28.604 162.797 28.918 162.664 29.306 162.532 C 29.679 162.4 30.127 162.284 30.65 162.184 C 31.157 162.084 31.732 162.033 32.375 162.031 C 33.391 162.027 34.348 162.22 35.246 162.61 C 36.143 163.001 36.93 163.572 37.605 164.323 C 38.28 165.075 38.818 166.007 39.226 167.12 C 39.618 168.216 39.817 169.478 39.822 170.903 C 39.827 172.329 39.659 173.599 39.319 174.714 C 38.964 175.813 38.467 176.741 37.827 177.497 C 37.187 178.253 36.42 178.829 35.525 179.225 C 34.63 179.622 33.636 179.821 32.545 179.824 C 31.918 179.826 31.334 179.788 30.796 179.708 C 30.258 179.627 29.788 179.53 29.385 179.417 C 28.981 179.303 28.642 179.19 28.373 179.076 C 28.104 178.946 27.973 178.84 27.868 178.759 L 26.82 178.119 C 26.337 177.824 25.916 177.69 25.562 177.719 C 25.204 177.734 24.9 177.945 24.652 178.353 C 24.595 178.446 24.542 178.553 24.492 178.674 C 24.442 178.794 24.404 178.905 24.377 179.005 L 24.446 200.177 L 45.715 200.107 C 45.816 200.081 45.927 200.042 46.047 199.99 C 46.168 199.94 46.275 199.886 46.368 199.829 C 46.774 199.578 46.982 199.274 46.994 198.915 C 47.02 198.561 46.884 198.141 46.586 197.659 L 45.941 196.616 C 45.875 196.526 45.776 196.306 45.644 196.068 C 45.512 195.829 45.38 195.515 45.248 195.127 C 45.116 194.754 45 194.306 44.899 193.784 C 44.799 193.276 44.748 192.701 44.746 192.058 C 44.743 191.042 44.936 190.085 45.326 189.188 C 45.716 188.29 46.287 187.503 47.039 186.829 C 47.791 186.154 48.723 185.613 49.836 185.206 C 50.932 184.814 52.194 184.616 53.619 184.611 C 55.045 184.607 56.314 184.774 57.43 185.114 C 58.529 185.469 59.457 185.966 60.213 186.606 C 60.969 187.246 61.545 188.013 61.941 188.909 C 62.337 189.804 62.536 190.797 62.54 191.888 C 62.542 192.516 62.503 193.099 62.423 193.638 C 62.343 194.176 62.246 194.645 62.132 195.049 C 62.019 195.452 61.905 195.791 61.791 196.06 C 61.661 196.33 61.556 196.46 61.474 196.565 L 60.835 197.613 C 60.54 198.097 60.406 198.517 60.434 198.872 C 60.449 199.23 60.661 199.533 61.068 199.781 C 61.162 199.838 61.269 199.891 61.389 199.941 C 61.51 199.992 61.62 200.03 61.721 200.056 L 76.016 200.009 L 75.947 178.838 C 75.974 178.737 76.012 178.627 76.062 178.507 C 76.112 178.386 76.165 178.279 76.222 178.185 C 76.47 177.778 76.774 177.566 77.132 177.551 C 77.487 177.523 77.907 177.657 78.39 177.952 L 79.438 178.591 C 79.543 178.673 79.674 178.778 79.943 178.909 C 80.212 179.022 80.551 179.136 80.955 179.249 C 81.359 179.363 81.828 179.46 82.366 179.54 C 82.904 179.62 83.488 179.659 84.115 179.657 C 85.206 179.653 86.2 179.454 87.095 179.058 C 87.99 178.662 88.757 178.086 89.398 177.33 C 90.038 176.574 90.534 175.646 90.889 174.547 C 91.229 173.431 91.397 172.162 91.392 170.736 C 91.388 169.311 91.188 168.049 90.796 166.953 C 90.389 165.84 89.85 164.908 89.175 164.156 C 88.5 163.404 87.714 162.833 86.816 162.443 C 85.918 162.053 84.961 161.86 83.945 161.863 C 83.303 161.865 82.727 161.917 82.22 162.016 C 81.697 162.117 81.249 162.233 80.876 162.365 C 80.488 162.497 80.174 162.629 79.936 162.761 C 79.697 162.893 79.478 162.993 79.388 163.058 L 78.344 163.703 C 77.862 164.001 77.443 164.137 77.088 164.112 C 76.73 164.099 76.425 163.891 76.174 163.485 C 76.117 163.392 76.063 163.285 76.012 163.165 C 75.961 163.045 75.922 162.933 75.895 162.833 L 75.848 148.44 L 61.553 148.486 C 61.452 148.46 61.342 148.422 61.222 148.372 C 61.101 148.321 60.994 148.268 60.9 148.211 C 60.493 147.963 60.281 147.66 60.266 147.302 C 60.238 146.947 60.372 146.527 60.667 146.043 L 61.306 144.995 C 61.388 144.89 61.493 144.76 61.624 144.491 C 61.737 144.221 61.851 143.883 61.964 143.479 C 62.078 143.075 62.175 142.606 62.255 142.068 C 62.335 141.53 62.374 140.946 62.372 140.318 C 62.369 139.228 62.169 138.234 61.773 137.339 C 61.377 136.444 60.801 135.676 60.045 135.036 C 59.289 134.396 58.361 133.9 57.262 133.545 C 56.146 133.204 54.877 133.037 53.451 133.042 L 53.451 133.042 Z " fill="rgb(0,0,0)"/></g><path d=" M 53.451 133.042 C 52.026 133.046 50.764 133.244 49.668 133.636 C 48.555 134.043 47.623 134.584 46.871 135.259 C 46.12 135.934 45.548 136.72 45.158 137.618 C 44.768 138.516 44.575 139.473 44.578 140.489 C 44.58 141.131 44.631 141.706 44.731 142.214 C 44.832 142.737 44.948 143.184 45.08 143.558 C 45.212 143.946 45.344 144.259 45.476 144.498 C 45.608 144.737 45.707 144.957 45.773 145.046 L 46.418 146.09 C 46.716 146.572 46.852 146.991 46.826 147.346 C 46.814 147.704 46.606 148.009 46.2 148.259 C 46.107 148.316 46 148.37 45.879 148.421 C 45.759 148.472 45.648 148.511 45.547 148.538 L 24.278 148.607 L 24.325 163 C 24.352 163.1 24.391 163.212 24.442 163.332 C 24.493 163.453 24.547 163.559 24.604 163.652 C 24.855 164.058 25.16 164.267 25.518 164.279 C 25.873 164.305 26.292 164.168 26.774 163.87 L 27.818 163.226 C 27.907 163.16 28.127 163.06 28.366 162.928 C 28.604 162.797 28.918 162.664 29.306 162.532 C 29.679 162.4 30.127 162.284 30.65 162.184 C 31.157 162.084 31.732 162.033 32.375 162.031 C 33.391 162.027 34.348 162.22 35.246 162.61 C 36.143 163.001 36.93 163.572 37.605 164.323 C 38.28 165.075 38.818 166.007 39.226 167.12 C 39.618 168.216 39.817 169.478 39.822 170.903 C 39.827 172.329 39.659 173.599 39.319 174.714 C 38.964 175.813 38.467 176.741 37.827 177.497 C 37.187 178.253 36.42 178.829 35.525 179.225 C 34.63 179.622 33.636 179.821 32.545 179.824 C 31.918 179.826 31.334 179.788 30.796 179.708 C 30.258 179.627 29.788 179.53 29.385 179.417 C 28.981 179.303 28.642 179.19 28.373 179.076 C 28.104 178.946 27.973 178.84 27.868 178.759 L 26.82 178.119 C 26.337 177.824 25.916 177.69 25.562 177.719 C 25.204 177.734 24.9 177.945 24.652 178.353 C 24.595 178.446 24.542 178.553 24.492 178.674 C 24.442 178.794 24.404 178.905 24.377 179.005 L 24.446 200.177 L 45.715 200.107 C 45.816 200.081 45.927 200.042 46.047 199.99 C 46.168 199.94 46.275 199.886 46.368 199.829 C 46.774 199.578 46.982 199.274 46.994 198.915 C 47.02 198.561 46.884 198.141 46.586 197.659 L 45.941 196.616 C 45.875 196.526 45.776 196.306 45.644 196.068 C 45.512 195.829 45.38 195.515 45.248 195.127 C 45.116 194.754 45 194.306 44.899 193.784 C 44.799 193.276 44.748 192.701 44.746 192.058 C 44.743 191.042 44.936 190.085 45.326 189.188 C 45.716 188.29 46.287 187.503 47.039 186.829 C 47.791 186.154 48.723 185.613 49.836 185.206 C 50.932 184.814 52.194 184.616 53.619 184.611 C 55.045 184.607 56.314 184.774 57.43 185.114 C 58.529 185.469 59.457 185.966 60.213 186.606 C 60.969 187.246 61.545 188.013 61.941 188.909 C 62.337 189.804 62.536 190.797 62.54 191.888 C 62.542 192.516 62.503 193.099 62.423 193.638 C 62.343 194.176 62.246 194.645 62.132 195.049 C 62.019 195.452 61.905 195.791 61.791 196.06 C 61.661 196.33 61.556 196.46 61.474 196.565 L 60.835 197.613 C 60.54 198.097 60.406 198.517 60.434 198.872 C 60.449 199.23 60.661 199.533 61.068 199.781 C 61.162 199.838 61.269 199.891 61.389 199.941 C 61.51 199.992 61.62 200.03 61.721 200.056 L 76.016 200.009 L 75.947 178.838 C 75.974 178.737 76.012 178.627 76.062 178.507 C 76.112 178.386 76.165 178.279 76.222 178.185 C 76.47 177.778 76.774 177.566 77.132 177.551 C 77.487 177.523 77.907 177.657 78.39 177.952 L 79.438 178.591 C 79.543 178.673 79.674 178.778 79.943 178.909 C 80.212 179.022 80.551 179.136 80.955 179.249 C 81.359 179.363 81.828 179.46 82.366 179.54 C 82.904 179.62 83.488 179.659 84.115 179.657 C 85.206 179.653 86.2 179.454 87.095 179.058 C 87.99 178.662 88.757 178.086 89.398 177.33 C 90.038 176.574 90.534 175.646 90.889 174.547 C 91.229 173.431 91.397 172.162 91.392 170.736 C 91.388 169.311 91.188 168.049 90.796 166.953 C 90.389 165.84 89.85 164.908 89.175 164.156 C 88.5 163.404 87.714 162.833 86.816 162.443 C 85.918 162.053 84.961 161.86 83.945 161.863 C 83.303 161.865 82.727 161.917 82.22 162.016 C 81.697 162.117 81.249 162.233 80.876 162.365 C 80.488 162.497 80.174 162.629 79.936 162.761 C 79.697 162.893 79.478 162.993 79.388 163.058 L 78.344 163.703 C 77.862 164.001 77.443 164.137 77.088 164.112 C 76.73 164.099 76.425 163.891 76.174 163.485 C 76.117 163.392 76.063 163.285 76.012 163.165 C 75.961 163.045 75.922 162.933 75.895 162.833 L 75.848 148.44 L 61.553 148.486 C 61.452 148.46 61.342 148.422 61.222 148.372 C 61.101 148.321 60.994 148.268 60.9 148.211 C 60.493 147.963 60.281 147.66 60.266 147.302 C 60.238 146.947 60.372 146.527 60.667 146.043 L 61.306 144.995 C 61.388 144.89 61.493 144.76 61.624 144.491 C 61.737 144.221 61.851 143.883 61.964 143.479 C 62.078 143.075 62.175 142.606 62.255 142.068 C 62.335 141.53 62.374 140.946 62.372 140.318 C 62.369 139.228 62.169 138.234 61.773 137.339 C 61.377 136.444 60.801 135.676 60.045 135.036 C 59.289 134.396 58.361 133.9 57.262 133.545 C 56.146 133.204 54.877 133.037 53.451 133.042 L 53.451 133.042 Z " fill="rgb(255,255,255)"/></g></g></svg>