<svg xmlns="http://www.w3.org/2000/svg" style="isolation:isolate" width="256" height="256"><switch><g><defs><filter id="a" width="270.648" height="254.338" x="-7.32" y="2.95" filterUnits="userSpaceOnUse"><feGaussianBlur xmlns="http://www.w3.org/2000/svg" in="SourceGraphic" stdDeviation="4.294"/><feOffset xmlns="http://www.w3.org/2000/svg" dy="4" result="pf_100_offsetBlur"/><feFlood xmlns="http://www.w3.org/2000/svg" flood-opacity=".4"/><feComposite xmlns="http://www.w3.org/2000/svg" in2="pf_100_offsetBlur" operator="in" result="pf_100_dropShadow"/><feBlend xmlns="http://www.w3.org/2000/svg" in="SourceGraphic" in2="pf_100_dropShadow"/></filter></defs><g filter="url(#a)"><linearGradient id="b" x1=".25" x2=".75" y1=".036" y2=".902" gradientTransform="matrix(244.648 0 0 228.338 5.676 11.947)" gradientUnits="userSpaceOnUse"><stop offset="0%" stop-color="#2f5fdd"/><stop offset="100%" stop-color="#5884f4"/></linearGradient><path fill="url(#b)" d="M165.685 11.947c74.055 0 84.639 10.557 84.639 84.544v59.251c0 73.986-10.584 84.543-84.639 84.543h-75.37c-74.055 0-84.639-10.557-84.639-84.543V96.491c0-73.987 10.584-84.544 84.639-84.544h75.37z"/></g><g opacity=".4"><linearGradient id="c" x1=".517" x2=".517" y2="1"><stop offset="0%" stop-color="#fff"/><stop offset="12.5%" stop-opacity=".098" stop-color="#fff"/><stop offset="92.5%" stop-opacity=".098"/><stop offset="100%" stop-opacity=".498"/></linearGradient><path fill="none" stroke="url(#c)" stroke-linecap="round" stroke-linejoin="round" stroke-width="4.077" d="M165.685 11.947c74.055 0 84.639 10.557 84.639 84.544v59.251c0 73.986-10.584 84.543-84.639 84.543h-75.37c-74.055 0-84.639-10.557-84.639-84.543V96.491c0-73.987 10.584-84.544 84.639-84.544h75.37z" vector-effect="non-scaling-stroke"/></g><g filter="url(#d)"><path fill="#EBEBEB" d="M59.62 53.59h66.658a4.122 4.122 0 0 1 4.12 4.12v92.443a4.122 4.122 0 0 1-4.12 4.119H59.62a4.122 4.122 0 0 1-4.12-4.119V57.71a4.122 4.122 0 0 1 4.12-4.12z"/><path fill="#C8C4B7" d="M70.21 67.29h48.466v6.635H70.21zM62.42 78.54h48.466v6.635H62.42zM71.08 89.8h30.579v6.635H71.08zM71.08 101.05h30.579v6.635H71.08z"/><path fill="#F76363" d="M88.39 111.43h34.041v6.635H88.39z"/><path fill="#C8C4B7" d="M74.83 122.68h38.368v6.635H74.83z"/><path fill="#F76363" d="M74.83 133.93h38.368v6.635H74.83z"/></g><defs><filter id="d" width="222.005" height="235.276" x="-18.58" y="-9.71" filterUnits="userSpaceOnUse"><feGaussianBlur xmlns="http://www.w3.org/2000/svg" in="SourceGraphic" stdDeviation="4.294"/><feOffset xmlns="http://www.w3.org/2000/svg" dy="4" result="pf_100_offsetBlur"/><feFlood xmlns="http://www.w3.org/2000/svg" flood-opacity=".4"/><feComposite xmlns="http://www.w3.org/2000/svg" in2="pf_100_offsetBlur" operator="in" result="pf_100_dropShadow"/><feBlend xmlns="http://www.w3.org/2000/svg" in="SourceGraphic" in2="pf_100_dropShadow"/></filter></defs><g filter="url(#e)"><path fill="#EBEBEB" d="M129.722 96.863h66.658a4.122 4.122 0 0 1 4.12 4.12v92.443a4.122 4.122 0 0 1-4.12 4.119h-66.658a4.122 4.122 0 0 1-4.12-4.119v-92.443a4.122 4.122 0 0 1 4.12-4.12z"/><path fill="#C8C4B7" d="M140.31 110.57h48.466v6.635H140.31zM132.53 121.82h48.466v6.635H132.53zM141.18 133.07h30.579v6.635H141.18zM141.18 144.32h30.579v6.635H141.18z"/><path fill="#76C22B" d="M135.41 154.7h57.12v6.635h-57.12z"/><path fill="#C8C4B7" d="M144.93 165.96h38.368v6.635H144.93z"/><path fill="#76C22B" d="M136.28 177.21h32.887v6.635H136.28z"/></g><defs><filter id="e" width="222.006" height="235.276" x="51.53" y="33.57" filterUnits="userSpaceOnUse"><feGaussianBlur xmlns="http://www.w3.org/2000/svg" in="SourceGraphic" stdDeviation="4.294"/><feOffset xmlns="http://www.w3.org/2000/svg" dy="4" result="pf_100_offsetBlur"/><feFlood xmlns="http://www.w3.org/2000/svg" flood-opacity=".4"/><feComposite xmlns="http://www.w3.org/2000/svg" in2="pf_100_offsetBlur" operator="in" result="pf_100_dropShadow"/><feBlend xmlns="http://www.w3.org/2000/svg" in="SourceGraphic" in2="pf_100_dropShadow"/></filter></defs><path fill="#FFDA64" d="M78.651 149.656L66.463 166.72h7.313v12.189c0 10.701 8.8 19.501 19.501 19.501h21.94v-9.75h-21.94a9.748 9.748 0 0 1-9.75-9.751V166.72h7.313l-12.189-17.064z" filter="url(#f)"/><defs><filter id="f" width="108.754" height="108.754" x="36.46" y="123.66" filterUnits="userSpaceOnUse"><feGaussianBlur xmlns="http://www.w3.org/2000/svg" in="SourceGraphic" stdDeviation="4.294"/><feOffset xmlns="http://www.w3.org/2000/svg" dy="4" result="pf_100_offsetBlur"/><feFlood xmlns="http://www.w3.org/2000/svg" flood-opacity=".4"/><feComposite xmlns="http://www.w3.org/2000/svg" in2="pf_100_offsetBlur" operator="in" result="pf_100_dropShadow"/><feBlend xmlns="http://www.w3.org/2000/svg" in="SourceGraphic" in2="pf_100_dropShadow"/></filter></defs><path fill="#FFDA64" d="M177.458 102.344l12.188-17.063h-7.313v-12.19c0-10.701-8.8-19.501-19.501-19.501h-21.94v9.751h21.94a9.749 9.749 0 0 1 9.751 9.75v12.19h-7.313l12.188 17.063z" filter="url(#g)"/><defs><filter id="g" width="108.754" height="108.754" x="110.89" y="27.59" filterUnits="userSpaceOnUse"><feGaussianBlur xmlns="http://www.w3.org/2000/svg" in="SourceGraphic" stdDeviation="4.294"/><feOffset xmlns="http://www.w3.org/2000/svg" dy="4" result="pf_100_offsetBlur"/><feFlood xmlns="http://www.w3.org/2000/svg" flood-opacity=".4"/><feComposite xmlns="http://www.w3.org/2000/svg" in2="pf_100_offsetBlur" operator="in" result="pf_100_dropShadow"/><feBlend xmlns="http://www.w3.org/2000/svg" in="SourceGraphic" in2="pf_100_dropShadow"/></filter></defs></g></switch> </svg>