<svg xmlns="http://www.w3.org/2000/svg" style="isolation:isolate" width="256" height="256"><switch><g><defs><filter id="a" width="270.648" height="254.338" x="-7.32" y="2.95" filterUnits="userSpaceOnUse"><feGaussianBlur xmlns="http://www.w3.org/2000/svg" in="SourceGraphic" stdDeviation="4.294"/><feOffset xmlns="http://www.w3.org/2000/svg" dy="4" result="pf_100_offsetBlur"/><feFlood xmlns="http://www.w3.org/2000/svg" flood-opacity=".4"/><feComposite xmlns="http://www.w3.org/2000/svg" in2="pf_100_offsetBlur" operator="in" result="pf_100_dropShadow"/><feBlend xmlns="http://www.w3.org/2000/svg" in="SourceGraphic" in2="pf_100_dropShadow"/></filter></defs><g filter="url(#a)"><linearGradient id="b" x1=".5" x2=".5" y1="1" gradientTransform="matrix(244.648 0 0 228.338 5.676 11.947)" gradientUnits="userSpaceOnUse"><stop offset="0%" stop-color="#f37e40"/><stop offset="100%" stop-color="#fac82e"/></linearGradient><path fill="url(#b)" d="M165.685 11.947c74.055 0 84.639 10.557 84.639 84.544v59.251c0 73.986-10.584 84.543-84.639 84.543h-75.37c-74.055 0-84.639-10.557-84.639-84.543V96.491c0-73.987 10.584-84.544 84.639-84.544h75.37z"/></g><g opacity=".65"><path fill="#F1EBDA" d="M23.787 229.01c.468.365.856.806 1.348 1.15a39.24 39.24 0 0 0 5.855 3.365c2.118.994 4.407 1.865 6.879 2.627 2.472.761 5.127 1.415 7.979 1.971 2.851.556 5.899 1.015 9.156 1.392.663.077 1.44.112 2.121.182 21.412-6.07 43.739-9.226 66.539-9.226 23.443 0 46.361 3.409 68.322 9.819 3.14-.211 6.192-.449 9.01-.775 3.257-.377 6.305-.836 9.156-1.392 2.852-.556 5.507-1.21 7.979-1.971 2.472-.762 4.761-1.633 6.879-2.627 1.44-.676 2.695-1.494 3.982-2.289-33.373-14.579-68.808-21.98-105.328-21.98-34.546 0-68.099 6.699-99.877 19.754z" opacity=".65"/><path fill="#F1EBDA" d="M6.932 187.389c.078.837.121 1.782.209 2.594.364 3.371.808 6.525 1.345 9.477.538 2.951 1.168 5.7 1.905 8.258.119.415.287.75.412 1.155 34.58-18.092 72.996-27.727 112.861-27.727 42.682 0 83.671 11.1 120.098 31.754.653-1.666 1.311-3.32 1.847-5.182.737-2.558 1.367-5.307 1.905-8.258.449-2.47.8-5.169 1.127-7.931-6.324-3.402-12.76-6.61-19.366-9.505-33.456-14.661-68.988-22.094-105.611-22.094-36.623 0-72.156 7.433-105.611 22.094-3.78 1.656-7.434 3.542-11.121 5.365z" opacity=".65"/><path fill="#F1EBDA" d="M5.676 138.729v14.706c0 3.306.163 5.827.207 8.893 35.85-19.823 75.995-30.51 117.781-30.51 45.122 0 88.402 12.306 126.342 35.308.109-4.526.318-8.601.318-13.691v-10.298c-6.858-3.759-13.851-7.284-21.049-10.438-33.455-14.661-68.988-22.096-105.611-22.096-36.623 0-72.156 7.435-105.611 22.096-4.216 1.847-8.277 3.974-12.377 6.03z" opacity=".65"/><path fill="#F1EBDA" d="M5.738 89.373c-.003.971-.062 1.678-.062 2.671v21.074c35.903-19.897 76.121-30.625 117.988-30.625 45.246 0 88.646 12.36 126.66 35.484V93.811c-6.858-3.759-13.851-7.286-21.049-10.44-33.455-14.661-68.988-22.094-105.611-22.094-36.623 0-72.156 7.433-105.611 22.094-4.195 1.838-8.235 3.957-12.315 6.002z" opacity=".65"/><path fill="#F1EBDA" d="M10.402 37.731l-.011.03c-.737 2.558-1.367 5.307-1.905 8.258-.537 2.952-.981 6.106-1.345 9.477-.265 2.448-.444 5.144-.629 7.825 35.691-19.598 75.611-30.155 117.152-30.155 45.032 0 88.225 12.263 126.109 35.176-.031-.625-.014-1.457-.048-2.07a212.339 212.339 0 0 0-.866-10.776c-.364-3.371-.808-6.525-1.345-9.477-.232-1.272-.555-2.363-.823-3.561a266.324 266.324 0 0 0-17.416-8.412C195.82 19.384 160.287 11.95 123.664 11.95c-36.623 0-72.156 7.434-105.611 22.096-2.599 1.139-5.095 2.466-7.651 3.685z" opacity=".65"/></g><path fill="#FFF" d="M5.676 126.116v29.626c0 73.986 10.584 84.543 84.639 84.543h75.37c74.055 0 84.639-10.557 84.639-84.543v-29.626H5.676z" opacity=".1"/><g opacity=".4"><linearGradient id="c" x1=".517" x2=".517" y2="1"><stop offset="0%" stop-color="#fff"/><stop offset="12.5%" stop-opacity=".098" stop-color="#fff"/><stop offset="92.5%" stop-opacity=".098"/><stop offset="100%" stop-opacity=".498"/></linearGradient><path fill="none" stroke="url(#c)" stroke-linecap="round" stroke-linejoin="round" stroke-width="4.077" d="M165.685 11.947c74.055 0 84.639 10.557 84.639 84.544v59.251c0 73.986-10.584 84.543-84.639 84.543h-75.37c-74.055 0-84.639-10.557-84.639-84.543V96.491c0-73.987 10.584-84.544 84.639-84.544h75.37z" vector-effect="non-scaling-stroke"/></g></g></switch> </svg>