<?xml version="1.0" encoding="UTF-8" standalone="no"?>
<!-- Created with Inkscape (http://www.inkscape.org/) -->

<svg
   xmlns:dc="http://purl.org/dc/elements/1.1/"
   xmlns:cc="http://creativecommons.org/ns#"
   xmlns:rdf="http://www.w3.org/1999/02/22-rdf-syntax-ns#"
   xmlns:svg="http://www.w3.org/2000/svg"
   xmlns="http://www.w3.org/2000/svg"
   xmlns:xlink="http://www.w3.org/1999/xlink"
   xmlns:sodipodi="http://sodipodi.sourceforge.net/DTD/sodipodi-0.dtd"
   xmlns:inkscape="http://www.inkscape.org/namespaces/inkscape"
   width="256"
   height="256"
   viewBox="0 0 67.733332 67.733335"
   version="1.1"
   id="svg1488"
   inkscape:version="0.92.3 (2405546, 2018-03-11)"
   sodipodi:docname="code_backup.svg">
  <defs
     id="defs1482">
    <clipPath
       clipPathUnits="userSpaceOnUse"
       id="clipPath1025">
      <path
         id="path1027"
         d="M 111.94141,84 C 99.359506,84.145 90.1531,83.713998 82.625,87.867188 c -3.7641,2.0768 -6.751838,5.574737 -8.398438,9.960937 C 72.580062,102.21433 72,107.4241 72,114 v 42 h 160 v -26 c 0,-6.5759 -0.57996,-11.78566 -2.22656,-16.17188 -0.205,-0.5455 -0.47919,-1.03993 -0.74219,-1.54296 -0.1,-0.1848 -0.17844,-0.38051 -0.27344,-0.56641 -1.727,-3.38752 -4.25471,-6.14522 -7.38281,-7.87109 C 213.8463,99.694146 204.64049,100.1454 192.05859,100 H 192 151.66797 L 135.45312,84 h -23.49218 z"
         style="color:#000000;font-style:normal;font-variant:normal;font-weight:normal;font-stretch:normal;font-size:medium;line-height:normal;font-family:sans-serif;font-variant-ligatures:none;font-variant-position:normal;font-variant-caps:normal;font-variant-numeric:normal;font-variant-alternates:normal;font-feature-settings:normal;text-indent:0;text-align:start;text-decoration:none;text-decoration-line:none;text-decoration-style:solid;text-decoration-color:#000000;letter-spacing:normal;word-spacing:normal;text-transform:none;writing-mode:lr-tb;direction:ltr;baseline-shift:baseline;text-anchor:start;white-space:normal;shape-padding:0;clip-rule:nonzero;display:inline;overflow:visible;visibility:visible;opacity:1;isolation:auto;mix-blend-mode:normal;color-interpolation:sRGB;color-interpolation-filters:linearRGB;solid-color:#000000;solid-opacity:1;fill:#e3dfd5;fill-opacity:1;fill-rule:nonzero;stroke:none;stroke-width:4.00000048;stroke-linecap:butt;stroke-linejoin:miter;stroke-miterlimit:4;stroke-dasharray:none;stroke-dashoffset:0;stroke-opacity:1;marker:none;color-rendering:auto;image-rendering:auto;shape-rendering:auto;text-rendering:auto;enable-background:accumulate"
         inkscape:connector-curvature="0" />
    </clipPath>
    <linearGradient
       id="linearGradient1013"
       inkscape:collect="always">
      <stop
         id="stop1005"
         offset="0"
         style="stop-color:#ffffff;stop-opacity:1;" />
      <stop
         style="stop-color:#ffffff;stop-opacity:0.09803922"
         offset="0.125"
         id="stop1007" />
      <stop
         style="stop-color:#000000;stop-opacity:0.09803922"
         offset="0.92500001"
         id="stop1009" />
      <stop
         id="stop1011"
         offset="1"
         style="stop-color:#000000;stop-opacity:0.49803922" />
    </linearGradient>
    <clipPath
       clipPathUnits="userSpaceOnUse"
       id="clipPath1082-3">
      <path
         sodipodi:nodetypes="sssssssss"
         inkscape:connector-curvature="0"
         id="path1084-6"
         d="M 361.9375,-212 C 507.2348,-212 528,-191.28677 528,-46.125 V 70.125 C 528,215.28618 507.2348,236 361.9375,236 H 214.0625 C 68.7652,236 48,215.28618 48,70.125 V -46.125 C 48,-191.28677 68.7652,-212 214.0625,-212 Z"
         style="display:inline;opacity:1;fill:#8c59d9;fill-opacity:1;stroke:none;stroke-width:2;stroke-linecap:round;stroke-linejoin:round;stroke-miterlimit:4;stroke-dasharray:none;stroke-dashoffset:0;stroke-opacity:1;enable-background:new" />
    </clipPath>
    <clipPath
       clipPathUnits="userSpaceOnUse"
       id="clipPath1082-3-5">
      <path
         sodipodi:nodetypes="sssssssss"
         inkscape:connector-curvature="0"
         id="path1084-6-6"
         d="M 361.9375,-212 C 507.2348,-212 528,-191.28677 528,-46.125 V 70.125 C 528,215.28618 507.2348,236 361.9375,236 H 214.0625 C 68.7652,236 48,215.28618 48,70.125 V -46.125 C 48,-191.28677 68.7652,-212 214.0625,-212 Z"
         style="display:inline;opacity:1;fill:#8c59d9;fill-opacity:1;stroke:none;stroke-width:2;stroke-linecap:round;stroke-linejoin:round;stroke-miterlimit:4;stroke-dasharray:none;stroke-dashoffset:0;stroke-opacity:1;enable-background:new" />
    </clipPath>
    <filter
       inkscape:collect="always"
       style="color-interpolation-filters:sRGB"
       id="filter4569-2"
       x="-0.0116"
       width="1.0232"
       y="-0.012428571"
       height="1.024857">
      <feGaussianBlur
         inkscape:collect="always"
         stdDeviation="1.16"
         id="feGaussianBlur4571-9" />
    </filter>
    <filter
       inkscape:collect="always"
       style="color-interpolation-filters:sRGB"
       id="filter913"
       x="-0.0232"
       width="1.0464"
       y="-0.024857143"
       height="1.0497143">
      <feGaussianBlur
         inkscape:collect="always"
         stdDeviation="2.32"
         id="feGaussianBlur915" />
    </filter>
    <linearGradient
       inkscape:collect="always"
       xlink:href="#linearGradient1013"
       id="linearGradient906"
       gradientUnits="userSpaceOnUse"
       x1="296"
       y1="-212"
       x2="296"
       y2="236" />
    <linearGradient
       gradientUnits="userSpaceOnUse"
       gradientTransform="matrix(0.14620093,0,0,0.09746729,8.3839832,234.45793)"
       id="sublime-icon-b"
       x1="193.59095"
       x2="211.4896"
       y1="414.55885"
       y2="324.75415">
      <stop
         offset="0%"
         stop-color="#FF9700"
         id="stop7" />
      <stop
         offset="53%"
         stop-color="#F48E00"
         id="stop9" />
      <stop
         offset="100%"
         stop-color="#CE6E00"
         id="stop11" />
    </linearGradient>
    <linearGradient
       gradientUnits="userSpaceOnUse"
       gradientTransform="matrix(-0.14620093,0,0,-0.09746729,61.796748,288.06735)"
       id="sublime-icon-b-3"
       x1="193.59094"
       x2="211.48959"
       y1="414.55884"
       y2="324.75415">
      <stop
         offset="0%"
         stop-color="#FF9700"
         id="stop7-6" />
      <stop
         offset="53%"
         stop-color="#F48E00"
         id="stop9-7" />
      <stop
         offset="100%"
         stop-color="#CE6E00"
         id="stop11-5" />
    </linearGradient>
    <filter
       inkscape:collect="always"
       style="color-interpolation-filters:sRGB"
       id="filter911"
       x="-0.048031674"
       width="1.0960633"
       y="-0.047968368"
       height="1.0959367">
      <feGaussianBlur
         inkscape:collect="always"
         stdDeviation="5.6323742"
         id="feGaussianBlur913" />
    </filter>
  </defs>
  <sodipodi:namedview
     id="base"
     pagecolor="#ffffff"
     bordercolor="#666666"
     borderopacity="1.0"
     inkscape:pageopacity="0.0"
     inkscape:pageshadow="2"
     inkscape:zoom="2.534196"
     inkscape:cx="-43.205673"
     inkscape:cy="96.345077"
     inkscape:document-units="px"
     inkscape:current-layer="g932"
     showgrid="true"
     units="px"
     inkscape:window-width="1920"
     inkscape:window-height="1009"
     inkscape:window-x="0"
     inkscape:window-y="34"
     inkscape:window-maximized="1">
    <inkscape:grid
       type="xygrid"
       id="grid2168" />
  </sodipodi:namedview>
  <metadata
     id="metadata1485">
    <rdf:RDF>
      <cc:Work
         rdf:about="">
        <dc:format>image/svg+xml</dc:format>
        <dc:type
           rdf:resource="http://purl.org/dc/dcmitype/StillImage" />
        <dc:title></dc:title>
      </cc:Work>
    </rdf:RDF>
  </metadata>
  <g
     inkscape:label="Livello 1"
     inkscape:groupmode="layer"
     id="layer1"
     transform="translate(0,-229.26666)">
    <path
       style="display:inline;opacity:0.2;fill:#000000;fill-opacity:1;stroke:none;stroke-width:2;stroke-linecap:round;stroke-linejoin:round;stroke-miterlimit:4;stroke-dasharray:none;stroke-dashoffset:0;stroke-opacity:1;filter:url(#filter913);enable-background:new"
       d="m 188.96876,45.999995 c 72.64865,0 83.03125,10.356615 83.03125,82.937505 v 58.125 c 0,72.58059 -10.3826,82.9375 -83.03125,82.9375 h -73.9375 C 42.382606,270 32.000006,259.64309 32.000006,187.0625 v -58.125 c 0,-72.58089 10.3826,-82.937505 83.031254,-82.937505 z"
       id="path899"
       inkscape:connector-curvature="0"
       sodipodi:nodetypes="sssssssss"
       transform="matrix(0.26970778,0,0,0.26970778,-7.1289177,220.56049)" />
    <path
       sodipodi:nodetypes="sssssssss"
       inkscape:connector-curvature="0"
       id="path4567-1"
       d="m 188.96876,43.999995 c 72.64865,0 83.03125,10.356615 83.03125,82.937505 v 58.125 c 0,72.58059 -10.3826,82.9375 -83.03125,82.9375 h -73.9375 C 42.382606,268 32.000006,257.64309 32.000006,185.0625 v -58.125 c 0,-72.58089 10.3826,-82.937505 83.031254,-82.937505 z"
       style="display:inline;opacity:0.1;fill:#000000;fill-opacity:1;stroke:none;stroke-width:2;stroke-linecap:round;stroke-linejoin:round;stroke-miterlimit:4;stroke-dasharray:none;stroke-dashoffset:0;stroke-opacity:1;filter:url(#filter4569-2);enable-background:new"
       transform="matrix(0.26970778,0,0,0.26970778,-7.1289177,220.56049)" />
    <path
       style="display:inline;opacity:1;fill:#4d4d4d;fill-opacity:1;stroke:none;stroke-width:0.5394156;stroke-linecap:round;stroke-linejoin:round;stroke-miterlimit:4;stroke-dasharray:none;stroke-dashoffset:0;stroke-opacity:1;enable-background:new"
       d="m 23.895905,232.42763 c -9.797337,0 -15.3941297,0.69699 -18.5445167,3.84334 -3.150381,3.14634 -3.849657,8.73736 -3.849657,18.52555 v 15.67677 c 0,9.78815 0.699276,15.3792 3.849657,18.52555 3.150387,3.14636 8.7471787,3.84333 18.5445167,3.84333 h 19.94152 c 9.797339,0 15.394134,-0.69697 18.544517,-3.84333 3.150384,-3.14635 3.849659,-8.7374 3.849659,-18.52555 v -15.67677 c 0,-9.78819 -0.699275,-15.37921 -3.849659,-18.52555 -3.150383,-3.14635 -8.74718,-3.84334 -18.544517,-3.84334 z"
       id="rect877-2"
       inkscape:connector-curvature="0" />
    <path
       style="display:inline;opacity:0.2;fill:#131313;fill-opacity:1;stroke:none;stroke-width:0.5394156;stroke-linecap:round;stroke-linejoin:round;stroke-miterlimit:4;stroke-dasharray:none;stroke-dashoffset:0;stroke-opacity:1;enable-background:new"
       d="m 1.5017313,269.93387 v 0.53942 c 0,9.78815 0.699276,15.3792 3.849657,18.52555 3.150387,3.14636 8.7471787,3.84333 18.5445167,3.84333 h 19.94152 c 9.797339,0 15.394134,-0.69697 18.544517,-3.84333 3.150384,-3.14635 3.849659,-8.7374 3.849659,-18.52555 v -0.53942 c 0,9.78815 -0.699275,15.3792 -3.849659,18.52555 -3.150383,3.14636 -8.747178,3.84334 -18.544517,3.84334 h -19.94152 c -9.797338,0 -15.3941297,-0.69698 -18.5445167,-3.84334 -3.150381,-3.14635 -3.849657,-8.7374 -3.849657,-18.52555 z"
       id="path917"
       inkscape:connector-curvature="0" />
    <path
       sodipodi:nodetypes="sssssssss"
       inkscape:connector-curvature="0"
       id="path1068-7"
       d="M 361.9375,-212 C 507.2348,-212 528,-191.28677 528,-46.125 V 70.125 C 528,215.28618 507.2348,236 361.9375,236 H 214.0625 C 68.7652,236 48,215.28618 48,70.125 V -46.125 C 48,-191.28677 68.7652,-212 214.0625,-212 Z"
       style="display:inline;opacity:0.4;fill:none;fill-opacity:1;stroke:url(#linearGradient906);stroke-width:8;stroke-linecap:round;stroke-linejoin:round;stroke-miterlimit:4;stroke-dasharray:none;stroke-dashoffset:0;stroke-opacity:1;enable-background:new"
       clip-path="url(#clipPath1082-3-5)"
       transform="matrix(0.13485389,0,0,0.13485389,-4.9712557,261.01666)" />
    <g
       id="g932"
       transform="translate(0.30507984,0.282605)">
      <path
         inkscape:connector-curvature="0"
         style="fill:#247db8;fill-opacity:0;stroke:none;stroke-width:0.2060834"
         d="m 49.944446,288.68479 -1.707119,-9.32753 0.315448,1.98505 -40.6204966,0.41415 41.8078326,7.05417 z"
         id="path3520" />
      <g
         id="g893"
         style="clip-rule:evenodd;fill-rule:evenodd;stroke-linejoin:round;stroke-miterlimit:1.41420996;stroke:none;stroke-opacity:1;fill:#000000;fill-opacity:1;filter:url(#filter911);opacity:0.3"
         transform="matrix(0.16922323,0,0,0.16922323,-9.7598144,219.03101)">
        <path
           id="path889"
           style="fill:#000000;fill-rule:nonzero;stroke:none;stroke-opacity:1;fill-opacity:1"
           d="m 127.357,247.682 c 0.018,-0.274 0.037,-0.547 0.056,-0.821 0.059,-0.851 0.126,-1.7 0.202,-2.547 0.014,-0.157 0.029,-0.314 0.044,-0.471 0.092,-0.991 0.196,-1.979 0.311,-2.965 0.001,-0.01 0.002,-0.019 0.003,-0.029 3.272,-28.033 15.632,-54.157 35.584,-74.691 18.672,-19.218 42.45,-31.92 68.362,-36.807 0.015,-0.003 0.031,-0.006 0.046,-0.009 0.972,-0.183 1.947,-0.355 2.925,-0.515 0.123,-0.02 0.246,-0.042 0.369,-0.062 0.873,-0.141 1.749,-0.271 2.627,-0.395 0.216,-0.03 0.431,-0.063 0.647,-0.093 0.8,-0.108 1.603,-0.206 2.407,-0.3 0.281,-0.033 0.56,-0.069 0.842,-0.1 0.761,-0.084 1.524,-0.156 2.287,-0.226 0.317,-0.029 0.633,-0.063 0.951,-0.09 0.777,-0.066 1.556,-0.119 2.335,-0.171 0.299,-0.02 0.597,-0.046 0.897,-0.064 1.076,-0.064 2.154,-0.117 3.235,-0.154 1.074,-0.037 2.147,-0.059 3.219,-0.07 0.239,-0.002 0.477,10e-4 0.716,0 0.83,-0.004 1.659,-0.003 2.487,0.009 0.296,0.004 0.591,0.014 0.886,0.02 0.77,0.016 1.54,0.037 2.308,0.067 0.312,0.012 0.623,0.029 0.935,0.043 0.755,0.035 1.509,0.075 2.261,0.123 0.304,0.019 0.606,0.042 0.909,0.063 0.769,0.055 1.538,0.115 2.305,0.184 0.272,0.024 0.544,0.05 0.815,0.076 0.815,0.078 1.628,0.163 2.441,0.257 0.213,0.025 0.426,0.049 0.639,0.074 0.905,0.108 1.808,0.227 2.709,0.354 0.111,0.016 0.221,0.03 0.332,0.046 23.902,3.44 46.448,13.535 65.102,29.423 22.141,18.858 37.13,44.379 42.805,72.584 0.093,0.464 0.177,0.93 0.266,1.395 -0.09,-0.471 -0.19,-0.939 -0.285,-1.409 l -43.023,-30.964 -7.005,9.756 52.254,37.59 6.241,4.489 h 0.005 l 5.434,-8.845 c -0.156,-1.641 -0.335,-3.277 -0.547,-4.905 0,-0.002 -0.001,-0.005 -0.001,-0.007 -0.586,-4.467 -1.387,-8.883 -2.388,-13.236 -5.049,-21.961 -15.292,-42.316 -29.859,-59.455 -0.023,-0.027 -0.046,-0.053 -0.069,-0.08 -0.654,-0.768 -1.317,-1.53 -1.988,-2.285 -0.163,-0.183 -0.329,-0.363 -0.493,-0.545 -0.55,-0.612 -1.102,-1.222 -1.663,-1.825 -0.344,-0.369 -0.694,-0.732 -1.042,-1.098 -0.404,-0.425 -0.805,-0.852 -1.214,-1.272 -0.736,-0.754 -1.481,-1.502 -2.235,-2.242 -0.04,-0.039 -0.078,-0.079 -0.117,-0.117 -0.821,-0.804 -1.654,-1.599 -2.497,-2.385 -0.21,-0.196 -0.425,-0.386 -0.636,-0.581 -0.607,-0.56 -1.216,-1.118 -1.831,-1.666 -0.48,-0.427 -0.967,-0.846 -1.453,-1.267 -0.339,-0.294 -0.675,-0.59 -1.016,-0.88 -0.679,-0.576 -1.363,-1.144 -2.051,-1.706 -0.143,-0.117 -0.285,-0.237 -0.429,-0.354 -24.703,-20.038 -55.257,-31.049 -87.015,-31.425 -0.185,-0.002 -0.372,0.001 -0.557,-10e-4 -0.905,-0.007 -1.81,-0.01 -2.716,0 -1.118,0.013 -2.237,0.038 -3.358,0.077 -0.201,0.007 -0.401,0.02 -0.601,0.028 -0.974,0.038 -1.946,0.081 -2.914,0.139 -0.402,0.024 -0.802,0.058 -1.203,0.085 -0.778,0.053 -1.556,0.105 -2.33,0.171 -0.393,0.033 -0.785,0.075 -1.178,0.112 -0.789,0.073 -1.578,0.147 -2.363,0.233 -0.339,0.037 -0.675,0.081 -1.013,0.121 -0.849,0.1 -1.698,0.202 -2.542,0.316 -0.257,0.035 -0.513,0.074 -0.77,0.11 -0.938,0.133 -1.874,0.271 -2.806,0.422 -0.155,0.025 -0.309,0.052 -0.464,0.078 -1.051,0.174 -2.098,0.356 -3.14,0.553 -0.032,0.006 -0.063,0.012 -0.094,0.018 -60.161,11.412 -106.408,61.012 -113.588,121.823 -0.005,0.046 -0.011,0.092 -0.016,0.139 -0.122,1.043 -0.23,2.09 -0.329,3.14 -0.019,0.2 -0.038,0.399 -0.055,0.599 -0.081,0.903 -0.151,1.809 -0.216,2.717 -0.022,0.314 -0.045,0.629 -0.065,0.943 -0.038,0.59 -0.065,1.182 -0.096,1.774 l 12.004,0.032 c 0.02,-0.353 0.046,-0.703 0.068,-1.053 z"
           inkscape:connector-curvature="0" />
        <path
           id="path891"
           style="fill:#000000;fill-rule:nonzero;stroke:none;stroke-opacity:1;fill-opacity:1"
           d="m 384.705,263.264 c -0.008,0.145 -0.017,0.289 -0.025,0.433 -0.044,0.759 -0.098,1.515 -0.156,2.272 -0.02,0.256 -0.037,0.513 -0.058,0.769 -0.068,0.839 -0.148,1.676 -0.232,2.512 -0.017,0.167 -0.032,0.335 -0.05,0.503 -0.097,0.919 -0.205,1.836 -0.321,2.751 -0.01,0.078 -0.019,0.155 -0.029,0.233 -2.91,22.599 -11.741,43.898 -25.8,62.042 -0.471,0.609 -0.943,1.218 -1.426,1.819 -0.119,0.149 -0.244,0.294 -0.364,0.443 -0.546,0.674 -1.097,1.346 -1.658,2.011 -0.138,0.163 -0.28,0.323 -0.419,0.486 -0.545,0.639 -1.093,1.277 -1.652,1.907 -0.199,0.224 -0.404,0.445 -0.604,0.668 -0.5,0.556 -1,1.111 -1.51,1.659 -0.041,0.044 -0.081,0.09 -0.122,0.135 -0.253,0.271 -0.512,0.534 -0.767,0.803 -0.358,0.377 -0.711,0.759 -1.074,1.132 -0.061,0.063 -0.124,0.124 -0.185,0.186 -0.405,0.416 -0.817,0.823 -1.227,1.233 -0.32,0.319 -0.637,0.641 -0.96,0.957 -0.514,0.503 -1.034,0.997 -1.555,1.49 -0.221,0.209 -0.439,0.421 -0.661,0.628 -0.62,0.579 -1.246,1.148 -1.876,1.713 -0.125,0.112 -0.249,0.227 -0.374,0.338 -0.725,0.646 -1.457,1.282 -2.195,1.91 -0.028,0.023 -0.055,0.047 -0.082,0.071 -18.875,16.053 -41.767,26.212 -66.392,29.43 -0.036,0.005 -0.073,0.009 -0.11,0.013 -0.978,0.127 -1.959,0.245 -2.942,0.35 -0.22,0.024 -0.441,0.041 -0.661,0.064 -0.808,0.082 -1.617,0.163 -2.428,0.23 -0.454,0.038 -0.909,0.065 -1.364,0.098 -0.586,0.042 -1.171,0.09 -1.759,0.125 -1.051,0.062 -2.105,0.112 -3.161,0.149 -1.044,0.036 -2.087,0.059 -3.129,0.07 -0.531,0.006 -1.06,0.001 -1.59,0 -0.505,-10e-4 -1.011,0.002 -1.516,-0.005 -0.622,-0.008 -1.242,-0.026 -1.863,-0.043 -0.408,-0.011 -0.816,-0.02 -1.224,-0.035 -0.662,-0.024 -1.322,-0.058 -1.981,-0.092 -0.363,-0.019 -0.726,-0.037 -1.089,-0.059 -0.684,-0.041 -1.366,-0.09 -2.047,-0.142 -0.336,-0.026 -0.673,-0.052 -1.009,-0.08 -0.691,-0.058 -1.381,-0.123 -2.069,-0.192 -0.332,-0.033 -0.664,-0.068 -0.995,-0.104 -0.683,-0.074 -1.364,-0.153 -2.044,-0.238 -0.344,-0.043 -0.688,-0.089 -1.032,-0.135 -0.659,-0.088 -1.317,-0.178 -1.973,-0.276 -0.385,-0.057 -0.769,-0.119 -1.153,-0.18 -0.608,-0.096 -1.217,-0.193 -1.822,-0.298 -0.477,-0.082 -0.953,-0.172 -1.429,-0.26 -0.505,-0.093 -1.012,-0.184 -1.515,-0.284 -0.715,-0.141 -1.428,-0.292 -2.141,-0.445 -0.258,-0.056 -0.518,-0.107 -0.775,-0.164 -20.383,-4.502 -39.488,-13.926 -55.669,-27.708 -22.141,-18.859 -37.13,-44.379 -42.805,-72.584 -0.094,-0.47 -0.18,-0.942 -0.269,-1.414 0.091,0.478 0.193,0.952 0.289,1.428 l 43.023,30.964 7.005,-9.756 -52.253,-37.589 -6.241,-4.49 h -0.005 l -5.431,8.84 c 0.158,1.644 0.339,3.282 0.553,4.908 0.018,0.134 0.031,0.27 0.049,0.404 0.024,0.181 0.052,0.361 0.077,0.541 0.134,0.965 0.274,1.928 0.427,2.887 0.025,0.159 0.054,0.318 0.079,0.477 0.161,0.985 0.329,1.967 0.51,2.945 0.023,0.123 0.047,0.245 0.07,0.368 0.193,1.027 0.395,2.05 0.609,3.068 0.013,0.061 0.026,0.121 0.039,0.182 0.167,0.789 0.348,1.572 0.529,2.356 12.666,54.963 57.431,97.332 112.839,107.085 0.288,0.051 0.577,0.096 0.865,0.144 0.767,0.13 1.536,0.256 2.307,0.374 0.437,0.067 0.876,0.127 1.314,0.19 0.626,0.089 1.253,0.177 1.882,0.258 0.505,0.065 1.011,0.126 1.517,0.185 0.571,0.067 1.143,0.132 1.717,0.192 0.536,0.056 1.072,0.11 1.609,0.16 0.553,0.052 1.108,0.099 1.663,0.145 0.546,0.045 1.092,0.089 1.639,0.127 0.562,0.039 1.125,0.072 1.689,0.105 0.537,0.031 1.073,0.064 1.61,0.089 0.605,0.028 1.213,0.047 1.82,0.068 0.497,0.017 0.994,0.038 1.491,0.049 0.817,0.019 1.637,0.026 2.457,0.031 0.279,0.002 0.557,0.009 0.836,0.009 1.653,0 3.315,-0.028 4.975,-0.087 1.154,-0.04 2.304,-0.095 3.453,-0.163 0.651,-0.038 1.299,-0.091 1.947,-0.138 0.49,-0.036 0.981,-0.065 1.469,-0.105 0.914,-0.076 1.825,-0.166 2.735,-0.26 0.211,-0.022 0.424,-0.039 0.635,-0.061 1.094,-0.117 2.186,-0.247 3.275,-0.39 0.021,-0.003 0.042,-0.005 0.063,-0.008 26.86,-3.523 51.937,-14.639 72.579,-32.172 0.028,-0.024 0.056,-0.049 0.085,-0.073 0.809,-0.688 1.61,-1.386 2.405,-2.093 0.135,-0.121 0.269,-0.244 0.404,-0.365 0.689,-0.618 1.373,-1.241 2.051,-1.873 0.247,-0.23 0.49,-0.465 0.735,-0.698 0.566,-0.535 1.131,-1.072 1.689,-1.618 0.356,-0.348 0.706,-0.703 1.058,-1.055 0.445,-0.444 0.891,-0.887 1.331,-1.338 0.469,-0.481 0.931,-0.971 1.394,-1.46 0.318,-0.335 0.64,-0.668 0.954,-1.005 0.565,-0.607 1.118,-1.221 1.671,-1.837 0.213,-0.237 0.43,-0.47 0.64,-0.708 0.612,-0.691 1.213,-1.389 1.81,-2.089 0.151,-0.177 0.306,-0.351 0.456,-0.528 0.617,-0.731 1.221,-1.469 1.822,-2.21 0.128,-0.158 0.26,-0.312 0.387,-0.471 0.53,-0.659 1.046,-1.326 1.563,-1.993 15.308,-19.772 25.005,-43.091 28.201,-67.834 0.009,-0.071 0.018,-0.143 0.027,-0.214 0.129,-1.012 0.247,-2.026 0.355,-3.042 0.018,-0.175 0.035,-0.351 0.053,-0.527 0.093,-0.917 0.179,-1.835 0.255,-2.756 0.023,-0.287 0.043,-0.574 0.065,-0.861 0.062,-0.816 0.12,-1.634 0.168,-2.453 0.022,-0.375 0.038,-0.751 0.057,-1.126 z"
           inkscape:connector-curvature="0" />
      </g>
      <g
         transform="matrix(0.16922323,0,0,0.16922323,-9.7598144,219.03101)"
         style="clip-rule:evenodd;fill-rule:evenodd;stroke-linejoin:round;stroke-miterlimit:1.41420996"
         id="g8">
        <path
           inkscape:connector-curvature="0"
           d="m 127.357,247.682 c 0.018,-0.274 0.037,-0.547 0.056,-0.821 0.059,-0.851 0.126,-1.7 0.202,-2.547 0.014,-0.157 0.029,-0.314 0.044,-0.471 0.092,-0.991 0.196,-1.979 0.311,-2.965 0.001,-0.01 0.002,-0.019 0.003,-0.029 3.272,-28.033 15.632,-54.157 35.584,-74.691 18.672,-19.218 42.45,-31.92 68.362,-36.807 0.015,-0.003 0.031,-0.006 0.046,-0.009 0.972,-0.183 1.947,-0.355 2.925,-0.515 0.123,-0.02 0.246,-0.042 0.369,-0.062 0.873,-0.141 1.749,-0.271 2.627,-0.395 0.216,-0.03 0.431,-0.063 0.647,-0.093 0.8,-0.108 1.603,-0.206 2.407,-0.3 0.281,-0.033 0.56,-0.069 0.842,-0.1 0.761,-0.084 1.524,-0.156 2.287,-0.226 0.317,-0.029 0.633,-0.063 0.951,-0.09 0.777,-0.066 1.556,-0.119 2.335,-0.171 0.299,-0.02 0.597,-0.046 0.897,-0.064 1.076,-0.064 2.154,-0.117 3.235,-0.154 1.074,-0.037 2.147,-0.059 3.219,-0.07 0.239,-0.002 0.477,10e-4 0.716,0 0.83,-0.004 1.659,-0.003 2.487,0.009 0.296,0.004 0.591,0.014 0.886,0.02 0.77,0.016 1.54,0.037 2.308,0.067 0.312,0.012 0.623,0.029 0.935,0.043 0.755,0.035 1.509,0.075 2.261,0.123 0.304,0.019 0.606,0.042 0.909,0.063 0.769,0.055 1.538,0.115 2.305,0.184 0.272,0.024 0.544,0.05 0.815,0.076 0.815,0.078 1.628,0.163 2.441,0.257 0.213,0.025 0.426,0.049 0.639,0.074 0.905,0.108 1.808,0.227 2.709,0.354 0.111,0.016 0.221,0.03 0.332,0.046 23.902,3.44 46.448,13.535 65.102,29.423 22.141,18.858 37.13,44.379 42.805,72.584 0.093,0.464 0.177,0.93 0.266,1.395 -0.09,-0.471 -0.19,-0.939 -0.285,-1.409 l -43.023,-30.964 -7.005,9.756 52.254,37.59 6.241,4.489 h 0.005 l 5.434,-8.845 c -0.156,-1.641 -0.335,-3.277 -0.547,-4.905 0,-0.002 -0.001,-0.005 -0.001,-0.007 -0.586,-4.467 -1.387,-8.883 -2.388,-13.236 -5.049,-21.961 -15.292,-42.316 -29.859,-59.455 -0.023,-0.027 -0.046,-0.053 -0.069,-0.08 -0.654,-0.768 -1.317,-1.53 -1.988,-2.285 -0.163,-0.183 -0.329,-0.363 -0.493,-0.545 -0.55,-0.612 -1.102,-1.222 -1.663,-1.825 -0.344,-0.369 -0.694,-0.732 -1.042,-1.098 -0.404,-0.425 -0.805,-0.852 -1.214,-1.272 -0.736,-0.754 -1.481,-1.502 -2.235,-2.242 -0.04,-0.039 -0.078,-0.079 -0.117,-0.117 -0.821,-0.804 -1.654,-1.599 -2.497,-2.385 -0.21,-0.196 -0.425,-0.386 -0.636,-0.581 -0.607,-0.56 -1.216,-1.118 -1.831,-1.666 -0.48,-0.427 -0.967,-0.846 -1.453,-1.267 -0.339,-0.294 -0.675,-0.59 -1.016,-0.88 -0.679,-0.576 -1.363,-1.144 -2.051,-1.706 -0.143,-0.117 -0.285,-0.237 -0.429,-0.354 -24.703,-20.038 -55.257,-31.049 -87.015,-31.425 -0.185,-0.002 -0.372,0.001 -0.557,-10e-4 -0.905,-0.007 -1.81,-0.01 -2.716,0 -1.118,0.013 -2.237,0.038 -3.358,0.077 -0.201,0.007 -0.401,0.02 -0.601,0.028 -0.974,0.038 -1.946,0.081 -2.914,0.139 -0.402,0.024 -0.802,0.058 -1.203,0.085 -0.778,0.053 -1.556,0.105 -2.33,0.171 -0.393,0.033 -0.785,0.075 -1.178,0.112 -0.789,0.073 -1.578,0.147 -2.363,0.233 -0.339,0.037 -0.675,0.081 -1.013,0.121 -0.849,0.1 -1.698,0.202 -2.542,0.316 -0.257,0.035 -0.513,0.074 -0.77,0.11 -0.938,0.133 -1.874,0.271 -2.806,0.422 -0.155,0.025 -0.309,0.052 -0.464,0.078 -1.051,0.174 -2.098,0.356 -3.14,0.553 -0.032,0.006 -0.063,0.012 -0.094,0.018 -60.161,11.412 -106.408,61.012 -113.588,121.823 -0.005,0.046 -0.011,0.092 -0.016,0.139 -0.122,1.043 -0.23,2.09 -0.329,3.14 -0.019,0.2 -0.038,0.399 -0.055,0.599 -0.081,0.903 -0.151,1.809 -0.216,2.717 -0.022,0.314 -0.045,0.629 -0.065,0.943 -0.038,0.59 -0.065,1.182 -0.096,1.774 l 12.004,0.032 c 0.02,-0.353 0.046,-0.703 0.068,-1.053 z"
           style="fill:#ffffff;fill-rule:nonzero"
           id="path4" />
        <path
           inkscape:connector-curvature="0"
           d="m 384.705,263.264 c -0.008,0.145 -0.017,0.289 -0.025,0.433 -0.044,0.759 -0.098,1.515 -0.156,2.272 -0.02,0.256 -0.037,0.513 -0.058,0.769 -0.068,0.839 -0.148,1.676 -0.232,2.512 -0.017,0.167 -0.032,0.335 -0.05,0.503 -0.097,0.919 -0.205,1.836 -0.321,2.751 -0.01,0.078 -0.019,0.155 -0.029,0.233 -2.91,22.599 -11.741,43.898 -25.8,62.042 -0.471,0.609 -0.943,1.218 -1.426,1.819 -0.119,0.149 -0.244,0.294 -0.364,0.443 -0.546,0.674 -1.097,1.346 -1.658,2.011 -0.138,0.163 -0.28,0.323 -0.419,0.486 -0.545,0.639 -1.093,1.277 -1.652,1.907 -0.199,0.224 -0.404,0.445 -0.604,0.668 -0.5,0.556 -1,1.111 -1.51,1.659 -0.041,0.044 -0.081,0.09 -0.122,0.135 -0.253,0.271 -0.512,0.534 -0.767,0.803 -0.358,0.377 -0.711,0.759 -1.074,1.132 -0.061,0.063 -0.124,0.124 -0.185,0.186 -0.405,0.416 -0.817,0.823 -1.227,1.233 -0.32,0.319 -0.637,0.641 -0.96,0.957 -0.514,0.503 -1.034,0.997 -1.555,1.49 -0.221,0.209 -0.439,0.421 -0.661,0.628 -0.62,0.579 -1.246,1.148 -1.876,1.713 -0.125,0.112 -0.249,0.227 -0.374,0.338 -0.725,0.646 -1.457,1.282 -2.195,1.91 -0.028,0.023 -0.055,0.047 -0.082,0.071 -18.875,16.053 -41.767,26.212 -66.392,29.43 -0.036,0.005 -0.073,0.009 -0.11,0.013 -0.978,0.127 -1.959,0.245 -2.942,0.35 -0.22,0.024 -0.441,0.041 -0.661,0.064 -0.808,0.082 -1.617,0.163 -2.428,0.23 -0.454,0.038 -0.909,0.065 -1.364,0.098 -0.586,0.042 -1.171,0.09 -1.759,0.125 -1.051,0.062 -2.105,0.112 -3.161,0.149 -1.044,0.036 -2.087,0.059 -3.129,0.07 -0.531,0.006 -1.06,0.001 -1.59,0 -0.505,-10e-4 -1.011,0.002 -1.516,-0.005 -0.622,-0.008 -1.242,-0.026 -1.863,-0.043 -0.408,-0.011 -0.816,-0.02 -1.224,-0.035 -0.662,-0.024 -1.322,-0.058 -1.981,-0.092 -0.363,-0.019 -0.726,-0.037 -1.089,-0.059 -0.684,-0.041 -1.366,-0.09 -2.047,-0.142 -0.336,-0.026 -0.673,-0.052 -1.009,-0.08 -0.691,-0.058 -1.381,-0.123 -2.069,-0.192 -0.332,-0.033 -0.664,-0.068 -0.995,-0.104 -0.683,-0.074 -1.364,-0.153 -2.044,-0.238 -0.344,-0.043 -0.688,-0.089 -1.032,-0.135 -0.659,-0.088 -1.317,-0.178 -1.973,-0.276 -0.385,-0.057 -0.769,-0.119 -1.153,-0.18 -0.608,-0.096 -1.217,-0.193 -1.822,-0.298 -0.477,-0.082 -0.953,-0.172 -1.429,-0.26 -0.505,-0.093 -1.012,-0.184 -1.515,-0.284 -0.715,-0.141 -1.428,-0.292 -2.141,-0.445 -0.258,-0.056 -0.518,-0.107 -0.775,-0.164 -20.383,-4.502 -39.488,-13.926 -55.669,-27.708 -22.141,-18.859 -37.13,-44.379 -42.805,-72.584 -0.094,-0.47 -0.18,-0.942 -0.269,-1.414 0.091,0.478 0.193,0.952 0.289,1.428 l 43.023,30.964 7.005,-9.756 -52.253,-37.589 -6.241,-4.49 h -0.005 l -5.431,8.84 c 0.158,1.644 0.339,3.282 0.553,4.908 0.018,0.134 0.031,0.27 0.049,0.404 0.024,0.181 0.052,0.361 0.077,0.541 0.134,0.965 0.274,1.928 0.427,2.887 0.025,0.159 0.054,0.318 0.079,0.477 0.161,0.985 0.329,1.967 0.51,2.945 0.023,0.123 0.047,0.245 0.07,0.368 0.193,1.027 0.395,2.05 0.609,3.068 0.013,0.061 0.026,0.121 0.039,0.182 0.167,0.789 0.348,1.572 0.529,2.356 12.666,54.963 57.431,97.332 112.839,107.085 0.288,0.051 0.577,0.096 0.865,0.144 0.767,0.13 1.536,0.256 2.307,0.374 0.437,0.067 0.876,0.127 1.314,0.19 0.626,0.089 1.253,0.177 1.882,0.258 0.505,0.065 1.011,0.126 1.517,0.185 0.571,0.067 1.143,0.132 1.717,0.192 0.536,0.056 1.072,0.11 1.609,0.16 0.553,0.052 1.108,0.099 1.663,0.145 0.546,0.045 1.092,0.089 1.639,0.127 0.562,0.039 1.125,0.072 1.689,0.105 0.537,0.031 1.073,0.064 1.61,0.089 0.605,0.028 1.213,0.047 1.82,0.068 0.497,0.017 0.994,0.038 1.491,0.049 0.817,0.019 1.637,0.026 2.457,0.031 0.279,0.002 0.557,0.009 0.836,0.009 1.653,0 3.315,-0.028 4.975,-0.087 1.154,-0.04 2.304,-0.095 3.453,-0.163 0.651,-0.038 1.299,-0.091 1.947,-0.138 0.49,-0.036 0.981,-0.065 1.469,-0.105 0.914,-0.076 1.825,-0.166 2.735,-0.26 0.211,-0.022 0.424,-0.039 0.635,-0.061 1.094,-0.117 2.186,-0.247 3.275,-0.39 0.021,-0.003 0.042,-0.005 0.063,-0.008 26.86,-3.523 51.937,-14.639 72.579,-32.172 0.028,-0.024 0.056,-0.049 0.085,-0.073 0.809,-0.688 1.61,-1.386 2.405,-2.093 0.135,-0.121 0.269,-0.244 0.404,-0.365 0.689,-0.618 1.373,-1.241 2.051,-1.873 0.247,-0.23 0.49,-0.465 0.735,-0.698 0.566,-0.535 1.131,-1.072 1.689,-1.618 0.356,-0.348 0.706,-0.703 1.058,-1.055 0.445,-0.444 0.891,-0.887 1.331,-1.338 0.469,-0.481 0.931,-0.971 1.394,-1.46 0.318,-0.335 0.64,-0.668 0.954,-1.005 0.565,-0.607 1.118,-1.221 1.671,-1.837 0.213,-0.237 0.43,-0.47 0.64,-0.708 0.612,-0.691 1.213,-1.389 1.81,-2.089 0.151,-0.177 0.306,-0.351 0.456,-0.528 0.617,-0.731 1.221,-1.469 1.822,-2.21 0.128,-0.158 0.26,-0.312 0.387,-0.471 0.53,-0.659 1.046,-1.326 1.563,-1.993 15.308,-19.772 25.005,-43.091 28.201,-67.834 0.009,-0.071 0.018,-0.143 0.027,-0.214 0.129,-1.012 0.247,-2.026 0.355,-3.042 0.018,-0.175 0.035,-0.351 0.053,-0.527 0.093,-0.917 0.179,-1.835 0.255,-2.756 0.023,-0.287 0.043,-0.574 0.065,-0.861 0.062,-0.816 0.12,-1.634 0.168,-2.453 0.022,-0.375 0.038,-0.751 0.057,-1.126 z"
           style="fill:#ffffff;fill-rule:nonzero"
           id="path6" />
      </g>
    </g>
    <path
       style="display:inline;opacity:0.05;fill:#ffffff;fill-opacity:1;stroke:none;stroke-width:0.52339339;stroke-linecap:round;stroke-linejoin:round;stroke-miterlimit:4;stroke-dasharray:none;stroke-dashoffset:0;stroke-opacity:1;enable-background:new"
       d="m 1.3229167,262.44541 v 9.39753 c 0,9.20209 0.7002807,14.45838 3.8551904,17.41634 3.1549157,2.95797 8.7597529,3.61321 18.5711739,3.61321 h 19.970185 c 9.811423,0 15.416262,-0.65524 18.571174,-3.61321 3.154913,-2.95796 3.855193,-8.21425 3.855193,-17.41634 v -9.39753 z"
       id="path897"
       inkscape:connector-curvature="0" />
  </g>
</svg>
