<svg xmlns="http://www.w3.org/2000/svg" style="isolation:isolate" width="256" height="256"><switch><g><defs><filter id="a" width="270.648" height="254.338" x="-7.32" y="2.95" filterUnits="userSpaceOnUse"><feGaussianBlur xmlns="http://www.w3.org/2000/svg" in="SourceGraphic" stdDeviation="4.294"/><feOffset xmlns="http://www.w3.org/2000/svg" dy="4" result="pf_100_offsetBlur"/><feFlood xmlns="http://www.w3.org/2000/svg" flood-opacity=".4"/><feComposite xmlns="http://www.w3.org/2000/svg" in2="pf_100_offsetBlur" operator="in" result="pf_100_dropShadow"/><feBlend xmlns="http://www.w3.org/2000/svg" in="SourceGraphic" in2="pf_100_dropShadow"/></filter></defs><g filter="url(#a)"><linearGradient id="b" x1=".5" x2=".5" y1="1" gradientTransform="matrix(244.648 0 0 228.338 5.676 11.947)" gradientUnits="userSpaceOnUse"><stop offset="1.304%" stop-color="#054783"/><stop offset="100%" stop-color="#0268ba"/></linearGradient><path fill="url(#b)" d="M165.685 11.947c74.055 0 84.639 10.557 84.639 84.544v59.251c0 73.986-10.584 84.543-84.639 84.543h-75.37c-74.055 0-84.639-10.557-84.639-84.543V96.491c0-73.987 10.584-84.544 84.639-84.544h75.37z"/></g><g fill="#FFF"><path d="M51.578 121.129a77.313 77.313 0 0 1 .151-1.972l.026-.276c.054-.58.115-1.158.182-1.736l.002-.017c1.918-16.413 9.165-31.709 20.862-43.732 10.947-11.252 24.888-18.69 40.08-21.551l.027-.005a74.896 74.896 0 0 1 3.471-.569l.379-.055c.47-.063.94-.12 1.412-.176.164-.019.328-.04.493-.058.446-.049.894-.091 1.341-.132.186-.017.371-.037.558-.053.455-.039.912-.07 1.369-.1.175-.012.35-.027.526-.038.63-.037 1.262-.068 1.896-.09.63-.022 1.259-.034 1.887-.041h.42c.487-.002.973-.002 1.458.005.174.003.347.009.52.012.451.01.903.022 1.353.039.183.007.365.017.548.026.443.02.885.043 1.326.072.178.011.355.024.533.036a87.75 87.75 0 0 1 1.829.153c.478.045.954.095 1.431.15l.375.043c.53.064 1.06.133 1.588.208l.195.027a75.396 75.396 0 0 1 38.168 17.227c12.981 11.042 21.769 25.985 25.096 42.499.054.272.104.545.156.817-.053-.276-.112-.55-.167-.825l-25.224-18.13-4.107 5.712 30.636 22.01 3.659 2.628h.003l3.186-5.179a85.453 85.453 0 0 0-.321-2.872l-.001-.004a82.137 82.137 0 0 0-1.4-7.75 82.09 82.09 0 0 0-17.506-34.811l-.04-.047c-.384-.45-.772-.896-1.166-1.338-.095-.107-.193-.213-.289-.319a81.698 81.698 0 0 0-.975-1.069c-.201-.216-.407-.428-.611-.643-.236-.248-.472-.498-.711-.744-.432-.442-.869-.88-1.311-1.313l-.068-.069c-.482-.47-.97-.936-1.464-1.396-.123-.115-.249-.226-.373-.34a82.175 82.175 0 0 0-1.074-.976c-.281-.25-.567-.495-.852-.742-.198-.172-.395-.345-.595-.515-.398-.337-.799-.67-1.203-.999l-.251-.207c-14.483-11.732-32.397-18.179-51.016-18.4h-.326a80.986 80.986 0 0 0-3.561.045c-.118.004-.236.012-.353.016-.571.022-1.141.048-1.708.082-.236.014-.47.034-.706.049-.456.031-.912.062-1.366.101-.23.019-.46.043-.69.065a79.26 79.26 0 0 0-1.386.137c-.198.021-.395.047-.594.07-.497.059-.995.119-1.49.185l-.451.065c-.55.078-1.099.158-1.645.247l-.272.046c-.617.101-1.23.208-1.841.323l-.055.011c-35.272 6.682-62.386 35.723-66.595 71.329l-.01.081a85.397 85.397 0 0 0-.193 1.839l-.032.35a93 93 0 0 0-.165 2.143c-.022.346-.038.692-.056 1.039l7.038.019c.011-.207.027-.412.04-.617zM202.457 130.253l-.015.253c-.025.445-.057.887-.091 1.331l-.034.45c-.04.491-.087.981-.136 1.471l-.029.294a78.6 78.6 0 0 1-.189 1.611l-.017.136c-1.706 13.232-6.883 25.703-15.126 36.327a76.61 76.61 0 0 1-.836 1.065c-.07.087-.143.172-.213.259-.32.395-.643.788-.972 1.178l-.246.284c-.32.374-.641.748-.969 1.117-.116.131-.236.26-.354.391-.293.325-.586.65-.885.971l-.071.079c-.149.159-.301.313-.45.47-.21.221-.417.445-.63.663l-.108.109c-.238.244-.479.482-.72.722-.187.187-.373.375-.563.56a74.75 74.75 0 0 1-.911.873c-.13.122-.258.246-.388.367-.363.339-.73.673-1.1 1.003l-.219.198a71.552 71.552 0 0 1-1.335 1.16c-11.066 9.399-24.487 15.348-38.924 17.232a70.56 70.56 0 0 1-1.79.212c-.129.014-.258.024-.387.038-.474.048-.948.095-1.424.135-.266.022-.533.038-.8.057-.343.025-.686.053-1.031.073a75.845 75.845 0 0 1-3.688.128c-.311.004-.621.001-.932 0-.296 0-.592.001-.889-.003-.364-.004-.728-.015-1.092-.025-.239-.006-.478-.011-.717-.02-.389-.014-.775-.034-1.162-.054a68.148 68.148 0 0 1-1.838-.118c-.197-.015-.395-.03-.592-.047a80.32 80.32 0 0 1-1.213-.112c-.195-.019-.389-.04-.583-.061-.401-.043-.8-.09-1.199-.139-.201-.025-.403-.052-.605-.079a89.379 89.379 0 0 1-1.157-.162c-.225-.033-.45-.07-.676-.105-.356-.057-.713-.113-1.068-.175-.279-.048-.558-.101-.838-.152-.296-.055-.593-.108-.888-.166a77.615 77.615 0 0 1-1.255-.261c-.151-.033-.304-.063-.454-.096a75.384 75.384 0 0 1-32.638-16.223c-12.981-11.042-21.769-25.985-25.096-42.499-.055-.275-.106-.552-.158-.828.053.28.113.557.17.836l25.223 18.13 4.107-5.712-30.635-22.009-3.659-2.629h-.003l-3.184 5.176c.093.962.199 1.921.324 2.873.011.079.018.159.029.237.014.106.03.211.045.317.079.565.161 1.129.25 1.69l.047.279c.094.577.193 1.152.299 1.725l.041.215c.113.602.231 1.201.357 1.797l.023.106c.098.462.204.921.31 1.38 7.426 32.181 33.671 56.989 66.156 62.699.169.03.338.056.507.084.449.077.9.15 1.352.219.257.04.514.075.771.112a65.486 65.486 0 0 0 1.993.259c.334.039.67.077 1.006.113a97.267 97.267 0 0 0 1.918.178c.321.026.641.052.961.074.33.023.66.043.991.062.314.018.629.037.944.052.354.016.711.028 1.067.04.291.01.582.022.874.029.479.011.96.015 1.44.018.164.001.327.005.49.005a81.202 81.202 0 0 0 4.942-.146c.381-.023.761-.054 1.141-.081.287-.021.575-.038.861-.062a77.68 77.68 0 0 0 1.604-.152l.372-.036a76.172 76.172 0 0 0 1.92-.228l.037-.005a82.087 82.087 0 0 0 42.552-18.837l.05-.042c.474-.403.944-.812 1.41-1.226l.237-.214c.404-.362.805-.726 1.202-1.096.145-.135.288-.273.431-.409.332-.313.663-.628.99-.947.209-.204.414-.412.621-.618.261-.26.522-.519.78-.784.275-.281.546-.568.817-.854.187-.197.376-.391.56-.589.331-.355.655-.715.979-1.075.125-.139.253-.276.376-.415.358-.405.711-.813 1.061-1.223.088-.104.179-.206.267-.309.362-.428.716-.86 1.068-1.294.075-.093.153-.183.227-.276.311-.386.614-.776.917-1.167 8.974-11.577 14.66-25.23 16.533-39.718l.016-.125c.076-.592.145-1.186.208-1.781l.031-.309a85.47 85.47 0 0 0 .15-1.613l.038-.504c.036-.478.07-.957.099-1.437.012-.219.022-.439.033-.659l-7.043-.016z"/></g><g opacity=".4"><linearGradient id="c" x1=".517" x2=".517" y2="1"><stop offset="0%" stop-color="#fff"/><stop offset="12.5%" stop-opacity=".098" stop-color="#fff"/><stop offset="92.5%" stop-opacity=".098"/><stop offset="100%" stop-opacity=".498"/></linearGradient><path fill="none" stroke="url(#c)" stroke-linecap="round" stroke-linejoin="round" stroke-width="4.077" d="M165.685 11.947c74.055 0 84.639 10.557 84.639 84.544v59.251c0 73.986-10.584 84.543-84.639 84.543h-75.37c-74.055 0-84.639-10.557-84.639-84.543V96.491c0-73.987 10.584-84.544 84.639-84.544h75.37z" vector-effect="non-scaling-stroke"/></g></g></switch> </svg>