<svg xmlns="http://www.w3.org/2000/svg" style="isolation:isolate" width="256" height="256"><switch><g><defs><filter id="a" width="270.648" height="254.338" x="-7.32" y="2.95" filterUnits="userSpaceOnUse"><feGaussianBlur xmlns="http://www.w3.org/2000/svg" in="SourceGraphic" stdDeviation="4.294"/><feOffset xmlns="http://www.w3.org/2000/svg" dy="4" result="pf_100_offsetBlur"/><feFlood xmlns="http://www.w3.org/2000/svg" flood-opacity=".4"/><feComposite xmlns="http://www.w3.org/2000/svg" in2="pf_100_offsetBlur" operator="in" result="pf_100_dropShadow"/><feBlend xmlns="http://www.w3.org/2000/svg" in="SourceGraphic" in2="pf_100_dropShadow"/></filter></defs><path fill="#333" d="M165.685 11.947c74.055 0 84.639 10.557 84.639 84.544v59.251c0 73.986-10.584 84.543-84.639 84.543h-75.37c-74.055 0-84.639-10.557-84.639-84.543V96.491c0-73.987 10.584-84.544 84.639-84.544h75.37z" filter="url(#a)"/><path fill="#FB7C38" d="M126.549 240.384h39.392c9.257 0 17.522-.165 24.899-.598 3.688-.216 7.155-.499 10.412-.863 3.257-.364 6.304-.807 9.156-1.344 2.852-.536 5.507-1.167 7.979-1.902 2.471-.735 4.76-1.576 6.878-2.535a39.58 39.58 0 0 0 5.856-3.248c.971-.657 1.783-1.456 2.664-2.192a93.793 93.793 0 0 0 3.115-2.9c1.12-1.216 2.223-2.446 3.174-3.85a39.5 39.5 0 0 0 3.252-5.847c.961-2.116 1.803-4.402 2.539-6.872.736-2.469 1.367-5.122 1.904-7.97.538-2.849.982-5.893 1.346-9.147.364-3.253.648-6.715.865-10.4.434-7.369.6-15.627.6-24.875v-44.938a92.9 92.9 0 0 0-26.756-28.414 17.393 17.393 0 0 0-1.258-1.056l-75.474-58.057a17.42 17.42 0 0 0-11.338-3.752l-.002.002a17.418 17.418 0 0 0-9.899 31.365l19.797 15.227H49.392a17.417 17.417 0 0 0-15.287 26.196 17.418 17.418 0 0 0 15.287 8.638h43.659l-71.311 51.81a17.42 17.42 0 0 0 2.926 30.318 17.421 17.421 0 0 0 17.541-2.14l36.443-26.48a93.181 93.181 0 0 0-.228 4.547 92.89 92.89 0 0 0 48.127 81.277z"/><circle fill="#FFF" r="1" transform="translate(171.74 158.454) scale(58.056)" vector-effect="non-scaling-stroke"/><circle fill="#37A6E6" r="1" transform="rotate(180 85.537 79.56) scale(23.223)" vector-effect="non-scaling-stroke"/><g opacity=".05"><path fill="#FFF" d="M8.476 55.74C6.729 66.667 6.158 80.255 6.158 97.205v59.251c0 73.986 10.584 84.544 84.64 84.544h75.369c55.135 0 75.078-5.874 81.675-39.397L8.476 55.74z"/></g><g opacity=".4"><linearGradient id="b" x1=".517" x2=".517" y2="1"><stop offset="0%" stop-color="#fff"/><stop offset="12.5%" stop-opacity=".098" stop-color="#fff"/><stop offset="92.5%" stop-opacity=".098"/><stop offset="100%" stop-opacity=".498"/></linearGradient><path fill="none" stroke="url(#b)" stroke-linecap="round" stroke-linejoin="round" stroke-width="4.077" d="M165.685 11.947c74.055 0 84.639 10.557 84.639 84.544v59.251c0 73.986-10.584 84.543-84.639 84.543h-75.37c-74.055 0-84.639-10.557-84.639-84.543V96.491c0-73.987 10.584-84.544 84.639-84.544h75.37z" vector-effect="non-scaling-stroke"/></g></g></switch> </svg>