<?xml version="1.0" encoding="UTF-8" standalone="no"?>
<svg
   xmlns:dc="http://purl.org/dc/elements/1.1/"
   xmlns:cc="http://creativecommons.org/ns#"
   xmlns:rdf="http://www.w3.org/1999/02/22-rdf-syntax-ns#"
   xmlns:svg="http://www.w3.org/2000/svg"
   xmlns="http://www.w3.org/2000/svg"
   xmlns:xlink="http://www.w3.org/1999/xlink"
   xmlns:sodipodi="http://sodipodi.sourceforge.net/DTD/sodipodi-0.dtd"
   xmlns:inkscape="http://www.inkscape.org/namespaces/inkscape"
   viewBox="0 0 256 256"
   version="1.1"
   id="svg16"
   sodipodi:docname="blueradio.svg"
   width="256"
   height="256"
   inkscape:version="0.92.3 (2405546, 2018-03-11)">
  <metadata
     id="metadata20">
    <rdf:RDF>
      <cc:Work
         rdf:about="">
        <dc:format>image/svg+xml</dc:format>
        <dc:type
           rdf:resource="http://purl.org/dc/dcmitype/StillImage" />
        <dc:title></dc:title>
      </cc:Work>
    </rdf:RDF>
  </metadata>
  <sodipodi:namedview
     pagecolor="#ffffff"
     bordercolor="#666666"
     borderopacity="1"
     objecttolerance="10"
     gridtolerance="10"
     guidetolerance="10"
     inkscape:pageopacity="0"
     inkscape:pageshadow="2"
     inkscape:window-width="1920"
     inkscape:window-height="1013"
     id="namedview18"
     showgrid="false"
     inkscape:zoom="3.4586321"
     inkscape:cx="18.852803"
     inkscape:cy="127.84507"
     inkscape:window-x="0"
     inkscape:window-y="34"
     inkscape:window-maximized="1"
     inkscape:current-layer="svg16" />
  <defs
     id="defs3">
    <linearGradient
       inkscape:collect="always"
       id="linearGradient1556">
      <stop
         style="stop-color:#34fffa;stop-opacity:1"
         offset="0"
         id="stop1550" />
      <stop
         id="stop1552"
         offset="0.5"
         style="stop-color:#009bff;stop-opacity:1" />
      <stop
         style="stop-color:#0030ff;stop-opacity:1"
         offset="1"
         id="stop1554" />
    </linearGradient>
    <linearGradient
       inkscape:collect="always"
       id="linearGradient1505">
      <stop
         style="stop-color:#a50000;stop-opacity:1"
         offset="0"
         id="stop1501" />
      <stop
         id="stop1509"
         offset="0.39062297"
         style="stop-color:#ffb700;stop-opacity:1" />
      <stop
         style="stop-color:#feff28;stop-opacity:1"
         offset="1"
         id="stop1503" />
    </linearGradient>
    <path
       id="a"
       d="M 44.5,20 H 24 v 8.5 H 35.8 C 34.7,33.9 30.1,37 24,37 16.8,37 11,31.2 11,24 c 0,-7.2 5.8,-13 13,-13 3.1,0 5.9,1.1 8.1,2.9 L 38.5,7.5 C 34.6,4.1 29.6,2 24,2 11.8,2 2,11.8 2,24 c 0,12.2 9.8,22 22,22 11,0 21,-8 21,-22 0,-1.3 -0.2,-2.7 -0.5,-4 z"
       inkscape:connector-curvature="0" />
    <linearGradient
       inkscape:collect="always"
       xlink:href="#linearGradient1013"
       id="linearGradient1108"
       x1="296"
       y1="-212"
       x2="296"
       y2="236"
       gradientUnits="userSpaceOnUse" />
    <linearGradient
       id="linearGradient1013"
       inkscape:collect="always">
      <stop
         id="stop1005"
         offset="0"
         style="stop-color:#ffffff;stop-opacity:1;" />
      <stop
         style="stop-color:#ffffff;stop-opacity:0.09803922"
         offset="0.125"
         id="stop1007" />
      <stop
         style="stop-color:#000000;stop-opacity:0.09803922"
         offset="0.92500001"
         id="stop1009" />
      <stop
         id="stop1011"
         offset="1"
         style="stop-color:#000000;stop-opacity:0.49803922" />
    </linearGradient>
    <clipPath
       clipPathUnits="userSpaceOnUse"
       id="clipPath1082-3-361">
      <path
         sodipodi:nodetypes="sssssssss"
         inkscape:connector-curvature="0"
         id="path1084-6-29"
         d="M 361.9375,-212 C 507.2348,-212 528,-191.28677 528,-46.125 V 70.125 C 528,215.28618 507.2348,236 361.9375,236 H 214.0625 C 68.7652,236 48,215.28618 48,70.125 V -46.125 C 48,-191.28677 68.7652,-212 214.0625,-212 Z"
         style="display:inline;opacity:1;fill:#8c59d9;fill-opacity:1;stroke:none;stroke-width:2;stroke-linecap:round;stroke-linejoin:round;stroke-miterlimit:4;stroke-dasharray:none;stroke-dashoffset:0;stroke-opacity:1;enable-background:new" />
    </clipPath>
    <linearGradient
       gradientTransform="matrix(1.0193681,0,0,1.0193681,-26.943941,-32.905179)"
       inkscape:collect="always"
       xlink:href="#linearGradient4245"
       id="linearGradient1044"
       x1="88"
       y1="28"
       x2="256"
       y2="284"
       gradientUnits="userSpaceOnUse" />
    <linearGradient
       id="linearGradient4245"
       inkscape:collect="always">
      <stop
         id="stop4241"
         offset="0"
         style="stop-color:#e8e8e8;stop-opacity:1" />
      <stop
         id="stop4243"
         offset="1"
         style="stop-color:#f5f5f5;stop-opacity:1" />
    </linearGradient>
    <filter
       inkscape:collect="always"
       style="color-interpolation-filters:sRGB"
       id="filter4569"
       x="-0.0116"
       width="1.0232"
       y="-0.012428571"
       height="1.024857">
      <feGaussianBlur
         inkscape:collect="always"
         stdDeviation="1.16"
         id="feGaussianBlur4571" />
    </filter>
    <filter
       inkscape:collect="always"
       style="color-interpolation-filters:sRGB"
       id="filter939"
       x="-0.0232"
       width="1.0464"
       y="-0.024857143"
       height="1.0497143">
      <feGaussianBlur
         inkscape:collect="always"
         stdDeviation="2.32"
         id="feGaussianBlur941" />
    </filter>
    <radialGradient
       inkscape:collect="always"
       xlink:href="#linearGradient1556"
       id="radialGradient1548"
       cx="-62.628502"
       cy="121.21446"
       fx="-62.628502"
       fy="121.21446"
       r="98.642578"
       gradientTransform="matrix(0.83298443,0,0,0.82119259,-28.505172,39.486064)"
       gradientUnits="userSpaceOnUse" />
    <radialGradient
       inkscape:collect="always"
       xlink:href="#linearGradient1505"
       id="radialGradient1558"
       gradientUnits="userSpaceOnUse"
       gradientTransform="matrix(0.69769456,-1.0185439,0.26938205,0.18452459,-290.7279,167.68127)"
       cx="64.520027"
       cy="173.2191"
       fx="64.520027"
       fy="173.2191"
       r="48.175785" />
    <linearGradient
       id="SVGID_1_"
       gradientUnits="userSpaceOnUse"
       x1="210.7683"
       y1="256.00009"
       x2="301.23169"
       y2="256.00009">
      <stop
         offset="0"
         style="stop-color:#37AADA"
         id="stop2" />
      <stop
         offset="1"
         style="stop-color:#37AADA"
         id="stop4" />
    </linearGradient>
    <linearGradient
       id="SVGID_2_"
       gradientUnits="userSpaceOnUse"
       x1="178.8741"
       y1="137.8604"
       x2="333.3833"
       y2="137.8604">
      <stop
         offset="0"
         style="stop-color:#37AADA"
         id="stop9" />
      <stop
         offset="1"
         style="stop-color:#37AADA"
         id="stop11" />
    </linearGradient>
    <linearGradient
       id="SVGID_3_"
       gradientUnits="userSpaceOnUse"
       x1="174.0358"
       y1="382.97141"
       x2="338.2309"
       y2="382.97141">
      <stop
         offset="0"
         style="stop-color:#37AADA"
         id="stop16" />
      <stop
         offset="1"
         style="stop-color:#37AADA"
         id="stop18" />
    </linearGradient>
    <linearGradient
       id="SVGID_4_"
       gradientUnits="userSpaceOnUse"
       x1="153.2885"
       y1="95.729698"
       x2="358.84"
       y2="95.729698">
      <stop
         offset="0"
         style="stop-color:#37AADA"
         id="stop23" />
      <stop
         offset="1"
         style="stop-color:#37AADA"
         id="stop25" />
    </linearGradient>
    <linearGradient
       id="SVGID_5_"
       gradientUnits="userSpaceOnUse"
       x1="150.86771"
       y1="420.68839"
       x2="361.26541"
       y2="420.68839">
      <stop
         offset="0"
         style="stop-color:#37AADA"
         id="stop30" />
      <stop
         offset="1"
         style="stop-color:#37AADA"
         id="stop32" />
    </linearGradient>
    <linearGradient
       id="SVGID_6_"
       gradientUnits="userSpaceOnUse"
       x1="127.703"
       y1="53.612701"
       x2="384.297"
       y2="53.612701">
      <stop
         offset="0"
         style="stop-color:#37AADA"
         id="stop37" />
      <stop
         offset="1"
         style="stop-color:#37AADA"
         id="stop39" />
    </linearGradient>
    <linearGradient
       id="SVGID_7_"
       gradientUnits="userSpaceOnUse"
       x1="127.7031"
       y1="458.3873"
       x2="384.29691"
       y2="458.3873">
      <stop
         offset="0"
         style="stop-color:#37AADA"
         id="stop44" />
      <stop
         offset="1"
         style="stop-color:#37AADA"
         id="stop46" />
    </linearGradient>
    <filter
       inkscape:collect="always"
       style="color-interpolation-filters:sRGB"
       id="filter1064"
       x="-0.048"
       width="1.096"
       y="-0.048"
       height="1.096">
      <feGaussianBlur
         inkscape:collect="always"
         stdDeviation="9.2"
         id="feGaussianBlur1066" />
    </filter>
  </defs>
  <clipPath
     id="b">
    <use
       xlink:href="#a"
       overflow="visible"
       id="use5"
       style="overflow:visible"
       x="0"
       y="0"
       width="100%"
       height="100%" />
  </clipPath>
  <path
     style="display:inline;opacity:0.2;fill:#000000;fill-opacity:1;stroke:none;stroke-width:2;stroke-linecap:round;stroke-linejoin:round;stroke-miterlimit:4;stroke-dasharray:none;stroke-dashoffset:0;stroke-opacity:1;filter:url(#filter939);enable-background:new"
     d="m 162.53675,5.5680001 c 72.64865,0 83.03125,10.3566149 83.03125,82.9375049 v 58.125005 c 0,72.58059 -10.3826,82.9375 -83.03125,82.9375 H 88.599254 C 15.9506,229.56801 5.568,219.2111 5.568,146.63051 V 88.505505 c 0,-72.58089 10.3826,-82.9375049 83.031254,-82.9375049 z"
     id="path937"
     inkscape:connector-curvature="0"
     sodipodi:nodetypes="sssssssss"
     transform="matrix(1.019368,0,0,1.019368,-7.2181772e-8,8.3098661)" />
  <path
     sodipodi:nodetypes="sssssssss"
     inkscape:connector-curvature="0"
     id="path4558"
     d="m 165.68477,11.946967 c 74.05571,0 84.6394,10.557203 84.6394,84.543835 v 59.250778 c 0,73.98633 -10.58369,84.54383 -84.6394,84.54383 H 90.315249 c -74.055717,0 -84.6394076,-10.5575 -84.6394076,-84.54383 V 96.490802 c 0,-73.986632 10.5836906,-84.543835 84.6394076,-84.543835 z"
     style="display:inline;opacity:0.1;fill:none;fill-opacity:1;stroke:#000000;stroke-width:4.07747173;stroke-linecap:round;stroke-linejoin:round;stroke-miterlimit:4;stroke-dasharray:none;stroke-dashoffset:0;stroke-opacity:1;enable-background:new" />
  <path
     sodipodi:nodetypes="sssssssss"
     inkscape:connector-curvature="0"
     id="path4567"
     d="m 162.53675,3.5680001 c 72.64865,0 83.03125,10.3566149 83.03125,82.9375049 v 58.125005 c 0,72.58059 -10.3826,82.9375 -83.03125,82.9375 H 88.599254 C 15.9506,227.56801 5.568,217.2111 5.568,144.63051 V 86.505505 c 0,-72.58089 10.3826,-82.9375049 83.031254,-82.9375049 z"
     style="display:inline;opacity:0.1;fill:#000000;fill-opacity:1;stroke:none;stroke-width:2;stroke-linecap:round;stroke-linejoin:round;stroke-miterlimit:4;stroke-dasharray:none;stroke-dashoffset:0;stroke-opacity:1;filter:url(#filter4569);enable-background:new"
     transform="matrix(1.019368,0,0,1.019368,-7.2181772e-8,8.3098661)" />
  <path
     style="display:inline;opacity:1;fill:url(#linearGradient1044);fill-opacity:1;stroke:none;stroke-width:2.03873587;stroke-linecap:round;stroke-linejoin:round;stroke-miterlimit:4;stroke-dasharray:none;stroke-dashoffset:0;stroke-opacity:1;enable-background:new"
     d="m 165.68476,11.946967 c 74.05571,0 84.6394,10.557203 84.6394,84.543835 v 59.250778 c 0,73.98633 -10.58369,84.54383 -84.6394,84.54383 H 90.315238 c -74.055712,0 -84.6394026,-10.5575 -84.6394026,-84.54383 V 96.490802 c 0,-73.986632 10.5836906,-84.543835 84.6394026,-84.543835 z"
     id="rect877"
     inkscape:connector-curvature="0"
     sodipodi:nodetypes="sssssssss" />
  <path
     sodipodi:nodetypes="sssssssss"
     inkscape:connector-curvature="0"
     id="path1068"
     d="M 361.9375,-212 C 507.2348,-212 528,-191.28677 528,-46.125 V 70.125 C 528,215.28618 507.2348,236 361.9375,236 H 214.0625 C 68.7652,236 48,215.28618 48,70.125 V -46.125 C 48,-191.28677 68.7652,-212 214.0625,-212 Z"
     style="display:inline;opacity:0.4;fill:none;fill-opacity:1;stroke:url(#linearGradient1108);stroke-width:8;stroke-linecap:round;stroke-linejoin:round;stroke-miterlimit:4;stroke-dasharray:none;stroke-dashoffset:0;stroke-opacity:1;enable-background:new"
     clip-path="url(#clipPath1082-3-361)"
     transform="matrix(0.50968403,0,0,0.50968403,-18.788999,120)" />
  <g
     transform="matrix(2.372035,0,0,2.372035,-20.736914,115.42106)"
     id="g983" />
  <path
     style="display:inline;opacity:0.1;fill:#463a3a;fill-opacity:1;stroke:none;stroke-width:2.02584362;stroke-linecap:round;stroke-linejoin:round;stroke-miterlimit:4;stroke-dasharray:none;stroke-dashoffset:0;stroke-opacity:1;enable-background:new"
     d="M 129.54217,11.946967 V 240.28541 h 37.20966 c 73.12207,0 83.57233,-10.5575 83.57233,-84.54383 V 96.490802 c 0,-73.986632 -10.45026,-84.543835 -83.57233,-84.543835 z"
     id="path1099"
     inkscape:connector-curvature="0" />
  <path
     style="display:inline;opacity:0.1;fill:#463a3a;fill-opacity:1;stroke:none;stroke-width:2.03873587;stroke-linecap:round;stroke-linejoin:round;stroke-miterlimit:4;stroke-dasharray:none;stroke-dashoffset:0;stroke-opacity:1;enable-background:new"
     d="m 90.315238,240.28541 c -74.055712,0 -84.6394026,-10.5572 -84.6394026,-84.54383 V 126.11621 H 250.32416 v 29.62537 c 0,73.98663 -10.58369,84.54383 -84.6394,84.54383 z"
     id="path1107"
     inkscape:connector-curvature="0" />
  <g
     transform="matrix(0.43478261,0,0,0.43478261,16.69565,15.711652)"
     id="g1050"
     style="fill:#000000;fill-opacity:1;filter:url(#filter1064);opacity:0.3">
    <g
       id="g1034"
       style="fill:#000000;fill-opacity:1">
      <linearGradient
         y2="256.00009"
         x2="301.23169"
         y1="256.00009"
         x1="210.7683"
         gradientUnits="userSpaceOnUse"
         id="linearGradient979">
        <stop
           id="stop975"
           style="stop-color:#37AADA"
           offset="0" />
        <stop
           id="stop977"
           style="stop-color:#37AADA"
           offset="1" />
      </linearGradient>
      <path
         inkscape:connector-curvature="0"
         id="path981"
         d="m 247.92,354.325 v -82.736 l -27.15,26.616 -9.936,-10.136 34.623,-33.941 -34.688,-34.916 10.069,-10.003 27.084,27.261 v -78.795 l 53.31,61.652 -35.635,34.934 35.474,35.706 z m 14.195,-83.429 v 43.952 l 19.821,-24.001 z m 0,-75.106 v 42.008 l 19.66,-19.273 z"
         style="fill:#000000;fill-opacity:1" />
      <g
         id="g1032"
         style="fill:#000000;fill-opacity:1">
        <linearGradient
           y2="137.8604"
           x2="333.3833"
           y1="137.8604"
           x1="178.8741"
           gradientUnits="userSpaceOnUse"
           id="linearGradient987">
          <stop
             id="stop983"
             style="stop-color:#37AADA"
             offset="0" />
          <stop
             id="stop985"
             style="stop-color:#37AADA"
             offset="1" />
        </linearGradient>
        <path
           inkscape:connector-curvature="0"
           id="path989"
           d="m 256.419,137.688 c 24.33,0 47.02,7.098 66.163,19.29 l 10.801,-16.063 c -22.227,-14.268 -48.647,-22.549 -76.964,-22.549 -28.566,0 -55.197,8.433 -77.545,22.932 l 10.796,16.056 c 19.266,-12.422 42.171,-19.666 66.749,-19.666 z"
           style="fill:#000000;fill-opacity:1" />
        <linearGradient
           y2="382.97141"
           x2="338.2309"
           y1="382.97141"
           x1="174.0358"
           gradientUnits="userSpaceOnUse"
           id="linearGradient995">
          <stop
             id="stop991"
             style="stop-color:#37AADA"
             offset="0" />
          <stop
             id="stop993"
             style="stop-color:#37AADA"
             offset="1" />
        </linearGradient>
        <path
           inkscape:connector-curvature="0"
           id="path997"
           d="M 338.231,378.294 327.436,362.24 c -20.108,14.18 -44.597,22.544 -71.017,22.544 -26.669,0 -51.371,-8.522 -71.584,-22.947 l -10.799,16.061 c 23.297,16.5 51.727,26.208 82.383,26.208 30.408,0 58.622,-9.556 81.812,-25.812 z"
           style="fill:#000000;fill-opacity:1" />
        <linearGradient
           y2="95.729698"
           x2="358.84"
           y1="95.729698"
           x1="153.2885"
           gradientUnits="userSpaceOnUse"
           id="linearGradient1003">
          <stop
             id="stop999"
             style="stop-color:#37AADA"
             offset="0" />
          <stop
             id="stop1001"
             style="stop-color:#37AADA"
             offset="1" />
        </linearGradient>
        <path
           inkscape:connector-curvature="0"
           id="path1005"
           d="m 153.289,103.247 10.778,16.029 C 190.5,101.738 222.18,91.505 256.21,91.505 c 33.905,0 65.478,10.159 91.853,27.58 l 10.778,-16.029 C 329.385,83.558 294.103,72.183 256.21,72.183 c -38.018,0 -73.407,11.448 -102.921,31.064 z"
           style="fill:#000000;fill-opacity:1" />
        <linearGradient
           y2="420.68839"
           x2="361.26541"
           y1="420.68839"
           x1="150.86771"
           gradientUnits="userSpaceOnUse"
           id="linearGradient1012">
          <stop
             id="stop1008"
             style="stop-color:#37AADA"
             offset="0" />
          <stop
             id="stop1010"
             style="stop-color:#37AADA"
             offset="1" />
        </linearGradient>
        <path
           inkscape:connector-curvature="0"
           id="path1014"
           d="m 256.209,425.731 c -35.075,0 -67.654,-10.871 -94.563,-29.407 l -10.778,16.029 c 29.991,20.615 66.279,32.7 105.342,32.7 38.938,0 75.121,-12.007 105.056,-32.502 l -10.778,-16.03 c -26.855,18.417 -59.328,29.21 -94.279,29.21 z"
           style="fill:#000000;fill-opacity:1" />
        <linearGradient
           y2="53.612701"
           x2="384.297"
           y1="53.612701"
           x1="127.703"
           gradientUnits="userSpaceOnUse"
           id="linearGradient1020">
          <stop
             id="stop1016"
             style="stop-color:#37AADA"
             offset="0" />
          <stop
             id="stop1018"
             style="stop-color:#37AADA"
             offset="1" />
        </linearGradient>
        <path
           inkscape:connector-curvature="0"
           id="path1022"
           d="m 256,45.322 c 43.481,0 83.926,13.243 117.519,35.903 L 384.297,65.196 C 347.624,40.457 303.469,26 256,26 208.531,26 164.376,40.457 127.703,65.196 l 10.778,16.029 C 172.074,58.565 212.519,45.322 256,45.322 Z"
           style="fill:#000000;fill-opacity:1" />
        <linearGradient
           y2="458.3873"
           x2="384.29691"
           y1="458.3873"
           x1="127.7031"
           gradientUnits="userSpaceOnUse"
           id="linearGradient1028">
          <stop
             id="stop1024"
             style="stop-color:#37AADA"
             offset="0" />
          <stop
             id="stop1026"
             style="stop-color:#37AADA"
             offset="1" />
        </linearGradient>
        <path
           inkscape:connector-curvature="0"
           id="path1030"
           d="m 384.297,446.804 -10.778,-16.029 c -33.592,22.661 -74.038,35.903 -117.519,35.903 -43.481,0 -83.926,-13.243 -117.519,-35.903 l -10.778,16.029 C 164.376,471.543 208.531,486 256,486 c 47.469,0 91.624,-14.457 128.297,-39.196 z"
           style="fill:#000000;fill-opacity:1" />
      </g>
    </g>
    <g
       id="g1048"
       style="fill:#000000;fill-opacity:1">
      <path
         inkscape:connector-curvature="0"
         id="path1036"
         d="m 137.688,255.581 c 0,-24.33 7.098,-47.02 19.29,-66.163 l -16.063,-10.801 c -14.268,22.227 -22.549,48.647 -22.549,76.964 0,28.566 8.433,55.197 22.932,77.545 l 16.056,-10.796 c -12.422,-19.266 -19.666,-42.171 -19.666,-66.749 z"
         style="fill:#000000;fill-opacity:1" />
      <path
         inkscape:connector-curvature="0"
         id="path1038"
         d="m 378.294,173.769 -16.054,10.795 c 14.18,20.108 22.544,44.597 22.544,71.017 0,26.669 -8.522,51.371 -22.947,71.584 l 16.061,10.799 c 16.5,-23.297 26.208,-51.727 26.208,-82.383 0,-30.408 -9.556,-58.622 -25.812,-81.812 z"
         style="fill:#000000;fill-opacity:1" />
      <path
         inkscape:connector-curvature="0"
         id="path1040"
         d="m 103.247,358.712 16.029,-10.778 c -17.538,-26.433 -27.771,-58.113 -27.771,-92.143 0,-33.905 10.159,-65.478 27.58,-91.853 L 103.056,153.16 c -19.498,29.456 -30.873,64.738 -30.873,102.631 0,38.017 11.448,73.406 31.064,102.921 z"
         style="fill:#000000;fill-opacity:1" />
      <path
         inkscape:connector-curvature="0"
         id="path1042"
         d="m 425.731,255.791 c 0,35.075 -10.871,67.654 -29.407,94.563 l 16.029,10.778 c 20.615,-29.991 32.7,-66.279 32.7,-105.342 0,-38.938 -12.007,-75.121 -32.502,-105.056 l -16.03,10.778 c 18.417,26.855 29.21,59.328 29.21,94.279 z"
         style="fill:#000000;fill-opacity:1" />
      <path
         inkscape:connector-curvature="0"
         id="path1044"
         d="m 45.322,256 c 0,-43.481 13.243,-83.926 35.903,-117.519 L 65.196,127.703 C 40.457,164.376 26,208.531 26,256 c 0,47.469 14.457,91.624 39.196,128.297 L 81.225,373.519 C 58.565,339.926 45.322,299.481 45.322,256 Z"
         style="fill:#000000;fill-opacity:1" />
      <path
         inkscape:connector-curvature="0"
         id="path1046"
         d="m 446.804,127.703 -16.029,10.778 c 22.661,33.592 35.903,74.038 35.903,117.519 0,43.481 -13.243,83.926 -35.903,117.519 l 16.029,10.778 C 471.543,347.624 486,303.469 486,256 486,208.531 471.543,164.376 446.804,127.703 Z"
         style="fill:#000000;fill-opacity:1" />
    </g>
  </g>
  <g
     id="g69"
     transform="matrix(0.43478261,0,0,0.43478261,16.69565,15.711652)">
    <g
       id="g53">
      <linearGradient
         id="linearGradient919"
         gradientUnits="userSpaceOnUse"
         x1="210.7683"
         y1="256.00009"
         x2="301.23169"
         y2="256.00009">
        <stop
           offset="0"
           style="stop-color:#37AADA"
           id="stop915" />
        <stop
           offset="1"
           style="stop-color:#37AADA"
           id="stop917" />
      </linearGradient>
      <path
         style="fill:url(#SVGID_1_)"
         d="m 247.92,354.325 v -82.736 l -27.15,26.616 -9.936,-10.136 34.623,-33.941 -34.688,-34.916 10.069,-10.003 27.084,27.261 v -78.795 l 53.31,61.652 -35.635,34.934 35.474,35.706 z m 14.195,-83.429 v 43.952 l 19.821,-24.001 z m 0,-75.106 v 42.008 l 19.66,-19.273 z"
         id="path7"
         inkscape:connector-curvature="0" />
      <g
         id="g51">
        <linearGradient
           id="linearGradient926"
           gradientUnits="userSpaceOnUse"
           x1="178.8741"
           y1="137.8604"
           x2="333.3833"
           y2="137.8604">
          <stop
             offset="0"
             style="stop-color:#37AADA"
             id="stop922" />
          <stop
             offset="1"
             style="stop-color:#37AADA"
             id="stop924" />
        </linearGradient>
        <path
           style="fill:url(#SVGID_2_)"
           d="m 256.419,137.688 c 24.33,0 47.02,7.098 66.163,19.29 l 10.801,-16.063 c -22.227,-14.268 -48.647,-22.549 -76.964,-22.549 -28.566,0 -55.197,8.433 -77.545,22.932 l 10.796,16.056 c 19.266,-12.422 42.171,-19.666 66.749,-19.666 z"
           id="path14"
           inkscape:connector-curvature="0" />
        <linearGradient
           id="linearGradient933"
           gradientUnits="userSpaceOnUse"
           x1="174.0358"
           y1="382.97141"
           x2="338.2309"
           y2="382.97141">
          <stop
             offset="0"
             style="stop-color:#37AADA"
             id="stop929" />
          <stop
             offset="1"
             style="stop-color:#37AADA"
             id="stop931" />
        </linearGradient>
        <path
           style="fill:url(#SVGID_3_)"
           d="M 338.231,378.294 327.436,362.24 c -20.108,14.18 -44.597,22.544 -71.017,22.544 -26.669,0 -51.371,-8.522 -71.584,-22.947 l -10.799,16.061 c 23.297,16.5 51.727,26.208 82.383,26.208 30.408,0 58.622,-9.556 81.812,-25.812 z"
           id="path21"
           inkscape:connector-curvature="0" />
        <linearGradient
           id="linearGradient940"
           gradientUnits="userSpaceOnUse"
           x1="153.2885"
           y1="95.729698"
           x2="358.84"
           y2="95.729698">
          <stop
             offset="0"
             style="stop-color:#37AADA"
             id="stop936" />
          <stop
             offset="1"
             style="stop-color:#37AADA"
             id="stop938" />
        </linearGradient>
        <path
           style="fill:url(#SVGID_4_)"
           d="m 153.289,103.247 10.778,16.029 C 190.5,101.738 222.18,91.505 256.21,91.505 c 33.905,0 65.478,10.159 91.853,27.58 l 10.778,-16.029 C 329.385,83.558 294.103,72.183 256.21,72.183 c -38.018,0 -73.407,11.448 -102.921,31.064 z"
           id="path28"
           inkscape:connector-curvature="0" />
        <linearGradient
           id="linearGradient947"
           gradientUnits="userSpaceOnUse"
           x1="150.86771"
           y1="420.68839"
           x2="361.26541"
           y2="420.68839">
          <stop
             offset="0"
             style="stop-color:#37AADA"
             id="stop943" />
          <stop
             offset="1"
             style="stop-color:#37AADA"
             id="stop945" />
        </linearGradient>
        <path
           style="fill:url(#SVGID_5_)"
           d="m 256.209,425.731 c -35.075,0 -67.654,-10.871 -94.563,-29.407 l -10.778,16.029 c 29.991,20.615 66.279,32.7 105.342,32.7 38.938,0 75.121,-12.007 105.056,-32.502 l -10.778,-16.03 c -26.855,18.417 -59.328,29.21 -94.279,29.21 z"
           id="path35"
           inkscape:connector-curvature="0" />
        <linearGradient
           id="linearGradient954"
           gradientUnits="userSpaceOnUse"
           x1="127.703"
           y1="53.612701"
           x2="384.297"
           y2="53.612701">
          <stop
             offset="0"
             style="stop-color:#37AADA"
             id="stop950" />
          <stop
             offset="1"
             style="stop-color:#37AADA"
             id="stop952" />
        </linearGradient>
        <path
           style="fill:url(#SVGID_6_)"
           d="m 256,45.322 c 43.481,0 83.926,13.243 117.519,35.903 L 384.297,65.196 C 347.624,40.457 303.469,26 256,26 208.531,26 164.376,40.457 127.703,65.196 l 10.778,16.029 C 172.074,58.565 212.519,45.322 256,45.322 Z"
           id="path42"
           inkscape:connector-curvature="0" />
        <linearGradient
           id="linearGradient961"
           gradientUnits="userSpaceOnUse"
           x1="127.7031"
           y1="458.3873"
           x2="384.29691"
           y2="458.3873">
          <stop
             offset="0"
             style="stop-color:#37AADA"
             id="stop957" />
          <stop
             offset="1"
             style="stop-color:#37AADA"
             id="stop959" />
        </linearGradient>
        <path
           style="fill:url(#SVGID_7_)"
           d="m 384.297,446.804 -10.778,-16.029 c -33.592,22.661 -74.038,35.903 -117.519,35.903 -43.481,0 -83.926,-13.243 -117.519,-35.903 l -10.778,16.029 C 164.376,471.543 208.531,486 256,486 c 47.469,0 91.624,-14.457 128.297,-39.196 z"
           id="path49"
           inkscape:connector-curvature="0" />
      </g>
    </g>
    <g
       id="g67">
      <path
         style="fill:#ffffff"
         d="m 137.688,255.581 c 0,-24.33 7.098,-47.02 19.29,-66.163 l -16.063,-10.801 c -14.268,22.227 -22.549,48.647 -22.549,76.964 0,28.566 8.433,55.197 22.932,77.545 l 16.056,-10.796 c -12.422,-19.266 -19.666,-42.171 -19.666,-66.749 z"
         id="path55"
         inkscape:connector-curvature="0" />
      <path
         style="fill:#ffffff"
         d="m 378.294,173.769 -16.054,10.795 c 14.18,20.108 22.544,44.597 22.544,71.017 0,26.669 -8.522,51.371 -22.947,71.584 l 16.061,10.799 c 16.5,-23.297 26.208,-51.727 26.208,-82.383 0,-30.408 -9.556,-58.622 -25.812,-81.812 z"
         id="path57"
         inkscape:connector-curvature="0" />
      <path
         style="fill:#ffffff"
         d="m 103.247,358.712 16.029,-10.778 c -17.538,-26.433 -27.771,-58.113 -27.771,-92.143 0,-33.905 10.159,-65.478 27.58,-91.853 L 103.056,153.16 c -19.498,29.456 -30.873,64.738 -30.873,102.631 0,38.017 11.448,73.406 31.064,102.921 z"
         id="path59"
         inkscape:connector-curvature="0" />
      <path
         style="fill:#ffffff"
         d="m 425.731,255.791 c 0,35.075 -10.871,67.654 -29.407,94.563 l 16.029,10.778 c 20.615,-29.991 32.7,-66.279 32.7,-105.342 0,-38.938 -12.007,-75.121 -32.502,-105.056 l -16.03,10.778 c 18.417,26.855 29.21,59.328 29.21,94.279 z"
         id="path61"
         inkscape:connector-curvature="0" />
      <path
         style="fill:#ffffff"
         d="m 45.322,256 c 0,-43.481 13.243,-83.926 35.903,-117.519 L 65.196,127.703 C 40.457,164.376 26,208.531 26,256 c 0,47.469 14.457,91.624 39.196,128.297 L 81.225,373.519 C 58.565,339.926 45.322,299.481 45.322,256 Z"
         id="path63"
         inkscape:connector-curvature="0" />
      <path
         style="fill:#ffffff"
         d="m 446.804,127.703 -16.029,10.778 c 22.661,33.592 35.903,74.038 35.903,117.519 0,43.481 -13.243,83.926 -35.903,117.519 l 16.029,10.778 C 471.543,347.624 486,303.469 486,256 486,208.531 471.543,164.376 446.804,127.703 Z"
         id="path65"
         inkscape:connector-curvature="0" />
    </g>
  </g>
</svg>
