<svg xmlns="http://www.w3.org/2000/svg" style="isolation:isolate" width="256" height="256"><switch><g><defs><filter id="a" width="270.648" height="254.338" x="-7.32" y="2.95" filterUnits="userSpaceOnUse"><feGaussianBlur xmlns="http://www.w3.org/2000/svg" in="SourceGraphic" stdDeviation="4.294"/><feOffset xmlns="http://www.w3.org/2000/svg" dy="4" result="pf_100_offsetBlur"/><feFlood xmlns="http://www.w3.org/2000/svg" flood-opacity=".4"/><feComposite xmlns="http://www.w3.org/2000/svg" in2="pf_100_offsetBlur" operator="in" result="pf_100_dropShadow"/><feBlend xmlns="http://www.w3.org/2000/svg" in="SourceGraphic" in2="pf_100_dropShadow"/></filter></defs><g filter="url(#a)"><linearGradient id="b" x1=".233" x2=".933" y1="-.071" y2=".995" gradientTransform="matrix(244.648 0 0 228.338 5.676 11.947)" gradientUnits="userSpaceOnUse"><stop offset="0%" stop-color="#e8e8e8"/><stop offset="100%" stop-color="#f5f5f5"/></linearGradient><path fill="url(#b)" d="M165.685 11.947c74.055 0 84.639 10.557 84.639 84.544v59.251c0 73.986-10.584 84.543-84.639 84.543h-75.37c-74.055 0-84.639-10.557-84.639-84.543V96.491c0-73.987 10.584-84.544 84.639-84.544h75.37z"/></g><g opacity=".4"><linearGradient id="c" x1=".517" x2=".517" y2="1"><stop offset="0%" stop-color="#fff"/><stop offset="12.5%" stop-opacity=".098" stop-color="#fff"/><stop offset="92.5%" stop-opacity=".098"/><stop offset="100%" stop-opacity=".498"/></linearGradient><path fill="none" stroke="url(#c)" stroke-linecap="round" stroke-linejoin="round" stroke-width="4.077" d="M165.685 11.947c74.055 0 84.639 10.557 84.639 84.544v59.251c0 73.986-10.584 84.543-84.639 84.543h-75.37c-74.055 0-84.639-10.557-84.639-84.543V96.491c0-73.987 10.584-84.544 84.639-84.544h75.37z" vector-effect="non-scaling-stroke"/></g><g filter="url(#d)"><path fill="#FFCA28" d="M44.5 56.118l7 13 14 2-10 10 2 15-13-7-13 7 2-15-10-10 14-2 7-13z"/><path fill="#F9A825" d="M44.5 77.118l7-8-7-13v21zm21-6l-21 6 11 4 10-10zm-8 25l-13-19v12l13 7zm-24-15l-2 15 13-19-11 4zm-10-10l21 6-7-8-14 2z"/></g><defs><filter id="d" width="54" height="52" x="17.5" y="52.12" filterUnits="userSpaceOnUse"><feGaussianBlur xmlns="http://www.w3.org/2000/svg" in="SourceGraphic" stdDeviation=".429"/><feOffset xmlns="http://www.w3.org/2000/svg" dy="2" result="pf_100_offsetBlur"/><feFlood xmlns="http://www.w3.org/2000/svg" flood-opacity=".1"/><feComposite xmlns="http://www.w3.org/2000/svg" in2="pf_100_offsetBlur" operator="in" result="pf_100_dropShadow"/><feBlend xmlns="http://www.w3.org/2000/svg" in="SourceGraphic" in2="pf_100_dropShadow"/></filter></defs><g filter="url(#e)"><path fill="#FFCA28" d="M44.5 106.118l7 13 14 2-10 10 2 15-13-7-13 7 2-15-10-10 14-2 7-13z"/><path fill="#F9A825" d="M44.5 127.118l7-8-7-13v21zm21-6l-21 6 11 4 10-10zm-8 25l-13-19v12l13 7zm-24-15l-2 15 13-19-11 4zm-10-10l21 6-7-8-14 2z"/></g><defs><filter id="e" width="54" height="52" x="17.5" y="102.12" filterUnits="userSpaceOnUse"><feGaussianBlur xmlns="http://www.w3.org/2000/svg" in="SourceGraphic" stdDeviation=".429"/><feOffset xmlns="http://www.w3.org/2000/svg" dy="2" result="pf_100_offsetBlur"/><feFlood xmlns="http://www.w3.org/2000/svg" flood-opacity=".1"/><feComposite xmlns="http://www.w3.org/2000/svg" in2="pf_100_offsetBlur" operator="in" result="pf_100_dropShadow"/><feBlend xmlns="http://www.w3.org/2000/svg" in="SourceGraphic" in2="pf_100_dropShadow"/></filter></defs><g filter="url(#f)"><path fill="#FFCA28" d="M44.5 156.118l7 13 14 2-10 10 2 15-13-7-13 7 2-15-10-10 14-2 7-13z"/><path fill="#F9A825" d="M44.5 177.118l7-8-7-13v21zm21-6l-21 6 11 4 10-10zm-8 25l-13-19v12l13 7zm-24-15l-2 15 13-19-11 4zm-10-10l21 6-7-8-14 2z"/></g><defs><filter id="f" width="54" height="52" x="17.5" y="152.12" filterUnits="userSpaceOnUse"><feGaussianBlur xmlns="http://www.w3.org/2000/svg" in="SourceGraphic" stdDeviation=".429"/><feOffset xmlns="http://www.w3.org/2000/svg" dy="2" result="pf_100_offsetBlur"/><feFlood xmlns="http://www.w3.org/2000/svg" flood-opacity=".1"/><feComposite xmlns="http://www.w3.org/2000/svg" in2="pf_100_offsetBlur" operator="in" result="pf_100_dropShadow"/><feBlend xmlns="http://www.w3.org/2000/svg" in="SourceGraphic" in2="pf_100_dropShadow"/></filter></defs><path fill="#1A1A1A" fill-rule="evenodd" d="M77.838 88.26q-.418 0-.671-.242-.253-.242-.253-.638V73.63q0-.396.253-.638t.671-.242h4.29q3.718 0 5.753 2.013t2.035 5.731q0 3.718-2.046 5.742t-5.742 2.024h-4.29zm.88-1.54h3.3q6.028 0 6.028-6.226 0-6.204-6.028-6.204h-3.3v12.43zm22.484-.946q.242 0 .418.198t.176.506q0 .55-.77 1.012-.792.462-1.672.693-.88.231-1.716.231-2.486 0-3.927-1.474-1.441-1.474-1.441-4.07 0-1.65.638-2.915.638-1.265 1.793-1.969 1.155-.704 2.629-.704 2.09 0 3.322 1.364 1.232 1.364 1.232 3.696 0 .44-.176.638t-.572.198h-7.084q.198 3.784 3.586 3.784.858 0 1.474-.231t1.32-.627q.572-.33.77-.33zm-3.85-7.106q-1.408 0-2.255.88t-1.001 2.486h6.226q-.044-1.628-.814-2.497-.77-.869-2.156-.869zm14.872-.792q.242-.528.77-.528.33 0 .594.22.264.22.264.55 0 .198-.088.352l-4.29 9.24q-.132.286-.396.451-.264.165-.572.165-.286 0-.55-.165-.264-.165-.418-.451l-4.268-9.24q-.088-.154-.088-.33 0-.33.297-.572.297-.242.649-.242.22 0 .429.132t.319.374l3.674 8.25 3.674-8.206zm4.488 10.494q-.396 0-.649-.231t-.253-.649v-9.284q0-.418.253-.649.253-.231.649-.231t.638.231q.242.231.242.649v9.284q0 .44-.242.66-.242.22-.638.22zm0-13.354q-.528 0-.858-.308-.33-.308-.33-.814 0-.484.33-.792.33-.308.858-.308t.858.308q.33.308.33.792 0 .506-.33.814-.33.308-.858.308zm8.58 2.266q4.026 0 4.026 4.224v5.984q0 .396-.231.638t-.627.242q-.396 0-.638-.242t-.242-.638v-1.056q-.418.946-1.276 1.463-.858.517-1.98.517-1.034 0-1.903-.418t-1.375-1.166q-.506-.748-.506-1.65 0-1.21.616-1.881t2.024-.968q1.408-.297 3.916-.297h.484v-.726q0-1.32-.539-1.936-.539-.616-1.749-.616-1.496 0-3.036.814-.594.374-.836.374-.264 0-.44-.198t-.176-.506q0-.308.187-.539.187-.231.605-.473.77-.44 1.749-.693.979-.253 1.947-.253zm-.726 9.724q1.32 0 2.167-.891.847-.891.847-2.299v-.638h-.396q-1.936 0-2.948.165t-1.441.55q-.429.385-.429 1.133 0 .858.627 1.419t1.573.561zm13.398-9.724q3.85 0 3.85 4.246v5.962q0 .418-.231.649-.231.231-.649.231-.418 0-.66-.231-.242-.231-.242-.649v-5.852q0-1.496-.583-2.178-.583-.682-1.859-.682-1.474 0-2.354.902-.88.902-.88 2.442v5.368q0 .418-.231.649-.231.231-.649.231-.418 0-.66-.231-.242-.231-.242-.649v-9.284q0-.396.242-.638t.66-.242q.396 0 .627.242.231.242.231.616v1.122q.528-.99 1.474-1.507.946-.517 2.156-.517zm12.056 9.68q.77.066.77.704 0 .374-.275.561-.275.187-.825.143l-.594-.044q-1.76-.132-2.596-1.056-.836-.924-.836-2.794v-5.522h-1.474q-.374 0-.583-.187-.209-.187-.209-.495 0-.33.209-.528t.583-.198h1.474V75.06q0-.418.242-.649.242-.231.66-.231.396 0 .638.231t.242.649v2.486h2.442q.352 0 .561.198.209.198.209.528 0 .308-.209.495t-.561.187h-2.442v5.61q0 1.21.495 1.749.495.539 1.485.605l.594.044zm6.908-9.68q4.026 0 4.026 4.224v5.984q0 .396-.231.638t-.627.242q-.396 0-.638-.242t-.242-.638v-1.056q-.418.946-1.276 1.463-.858.517-1.98.517-1.034 0-1.903-.418t-1.375-1.166q-.506-.748-.506-1.65 0-1.21.616-1.881t2.024-.968q1.408-.297 3.916-.297h.484v-.726q0-1.32-.539-1.936-.539-.616-1.749-.616-1.496 0-3.036.814-.594.374-.836.374-.264 0-.44-.198t-.176-.506q0-.308.187-.539.187-.231.605-.473.77-.44 1.749-.693.979-.253 1.947-.253zm-.726 9.724q1.32 0 2.167-.891.847-.891.847-2.299v-.638h-.396q-1.936 0-2.948.165t-1.441.55q-.429.385-.429 1.133 0 .858.627 1.419t1.573.561zm13.31-9.68q.924-.066.924.748 0 .352-.198.561-.198.209-.682.253l-.66.066q-1.474.132-2.189 1.045-.715.913-.715 2.145v5.346q0 .44-.242.66-.242.22-.638.22t-.649-.231q-.253-.231-.253-.649v-9.284q0-.418.264-.649.264-.231.638-.231.352 0 .594.231t.242.627v1.232q.462-.968 1.309-1.474t1.947-.594l.308-.022zm7.414 9.636q.77.066.77.704 0 .374-.275.561-.275.187-.825.143l-.594-.044q-1.76-.132-2.596-1.056-.836-.924-.836-2.794v-5.522h-1.474q-.374 0-.583-.187-.209-.187-.209-.495 0-.33.209-.528t.583-.198h1.474V75.06q0-.418.242-.649.242-.231.66-.231.396 0 .638.231t.242.649v2.486h2.442q.352 0 .561.198.209.198.209.528 0 .308-.209.495t-.561.187h-2.442v5.61q0 1.21.495 1.749.495.539 1.485.605l.594.044z" filter="url(#g)"/><defs><filter id="g" width="112.782" height="27.664" x="70.91" y="68.75" filterUnits="userSpaceOnUse"><feGaussianBlur xmlns="http://www.w3.org/2000/svg" in="SourceGraphic" stdDeviation=".429"/><feOffset xmlns="http://www.w3.org/2000/svg" dy="2" result="pf_100_offsetBlur"/><feFlood xmlns="http://www.w3.org/2000/svg" flood-opacity=".19"/><feComposite xmlns="http://www.w3.org/2000/svg" in2="pf_100_offsetBlur" operator="in" result="pf_100_dropShadow"/><feBlend xmlns="http://www.w3.org/2000/svg" in="SourceGraphic" in2="pf_100_dropShadow"/></filter></defs><path fill="#1A1A1A" fill-rule="evenodd" d="M88.068 136.896q.308.286.308.638 0 .308-.253.561-.253.253-.583.253-.286 0-.594-.264l-8.228-7.194v6.556q0 .418-.242.671-.242.253-.66.253-.418 0-.66-.253-.242-.253-.242-.671v-13.882q0-.418.242-.671.242-.253.66-.253.418 0 .66.253.242.253.242.671v6.314l7.854-6.974q.242-.242.572-.242.33 0 .572.253.242.253.242.561 0 .33-.286.616l-7.106 6.248 7.502 6.556zm7.7-9.57q.924-.066.924.748 0 .352-.198.561-.198.209-.682.253l-.66.066q-1.474.132-2.189 1.045-.715.913-.715 2.145v5.346q0 .44-.242.66-.242.22-.638.22t-.649-.231q-.253-.231-.253-.649v-9.284q0-.418.264-.649.264-.231.638-.231.352 0 .594.231t.242.627v1.232q.462-.968 1.309-1.474t1.947-.594l.308-.022zm10.186.55q.242-.528.77-.528.33 0 .594.22.264.22.264.55 0 .198-.088.352l-6.182 13.332q-.11.242-.319.374-.209.132-.429.132-.33 0-.583-.209-.253-.209-.253-.539 0-.176.088-.352l1.54-3.322L97 128.47q-.088-.154-.088-.33 0-.33.297-.572.297-.242.649-.242.22 0 .429.132t.319.374l3.674 8.25 3.674-8.206zm8.976-.594q1.408 0 2.486.704 1.078.704 1.672 1.969.594 1.265.594 2.937t-.594 2.915q-.594 1.243-1.661 1.925-1.067.682-2.497.682-1.254 0-2.189-.55t-1.419-1.562v5.17q0 .396-.231.627-.231.231-.649.231-.418 0-.66-.242-.242-.242-.242-.616v-13.266q0-.396.242-.638t.66-.242q.418 0 .649.242.231.242.231.638v1.188q.484-1.012 1.419-1.562t2.189-.55zm-.352 9.658q1.562 0 2.42-1.056.858-1.056.858-2.992t-.858-3.025q-.858-1.089-2.42-1.089-1.562 0-2.409 1.056-.847 1.056-.847 3.014 0 1.958.847 3.025t2.409 1.067zm12.716.022q.77.066.77.704 0 .374-.275.561-.275.187-.825.143l-.594-.044q-1.76-.132-2.596-1.056-.836-.924-.836-2.794v-5.522h-1.474q-.374 0-.583-.187-.209-.187-.209-.495 0-.33.209-.528t.583-.198h1.474v-2.486q0-.418.242-.649.242-.231.66-.231.396 0 .638.231t.242.649v2.486h2.442q.352 0 .561.198.209.198.209.528 0 .308-.209.495t-.561.187h-2.442v5.61q0 1.21.495 1.749.495.539 1.485.605l.594.044zm6.974 1.452q-1.518 0-2.673-.682t-1.782-1.947q-.627-1.265-.627-2.937t.627-2.937q.627-1.265 1.782-1.947 1.155-.682 2.673-.682t2.684.682q1.166.682 1.793 1.947.627 1.265.627 2.937t-.627 2.937q-.627 1.265-1.793 1.947-1.166.682-2.684.682zm0-1.474q1.584 0 2.431-1.045t.847-3.047q0-1.958-.858-3.025t-2.42-1.067q-1.562 0-2.42 1.067-.858 1.067-.858 3.025 0 1.98.847 3.036t2.431 1.056zm13.156-9.658q3.85 0 3.85 4.246v5.962q0 .418-.231.649-.231.231-.649.231-.418 0-.66-.231-.242-.231-.242-.649v-5.852q0-1.496-.583-2.178-.583-.682-1.859-.682-1.474 0-2.354.902-.88.902-.88 2.442v5.368q0 .418-.231.649-.231.231-.649.231-.418 0-.66-.231-.242-.231-.242-.649v-9.284q0-.396.242-.638t.66-.242q.396 0 .627.242.231.242.231.616v1.122q.528-.99 1.474-1.507.946-.517 2.156-.517z" filter="url(#h)"/><defs><filter id="h" width="86.36" height="31.69" x="70.91" y="118.64" filterUnits="userSpaceOnUse"><feGaussianBlur xmlns="http://www.w3.org/2000/svg" in="SourceGraphic" stdDeviation=".429"/><feOffset xmlns="http://www.w3.org/2000/svg" dy="2" result="pf_100_offsetBlur"/><feFlood xmlns="http://www.w3.org/2000/svg" flood-opacity=".19"/><feComposite xmlns="http://www.w3.org/2000/svg" in2="pf_100_offsetBlur" operator="in" result="pf_100_dropShadow"/><feBlend xmlns="http://www.w3.org/2000/svg" in="SourceGraphic" in2="pf_100_dropShadow"/></filter></defs><path fill="#1A1A1A" fill-rule="evenodd" d="M133.19 187.226q.088.176.088.374 0 .33-.253.55-.253.22-.605.22-.55 0-.77-.528l-1.562-3.564h-8.294l-1.584 3.564q-.22.528-.77.528-.352 0-.616-.231t-.264-.561q0-.176.088-.352l6.292-13.992q.132-.308.396-.462.264-.154.572-.154.33 0 .594.165.264.165.396.451l6.292 13.992zm-7.26-12.342l-3.476 7.898h6.974l-3.498-7.898zm17.358 2.992q.242-.528.77-.528.33 0 .594.22.264.22.264.55 0 .198-.088.352l-4.29 9.24q-.132.286-.396.451-.264.165-.572.165-.286 0-.55-.165-.264-.165-.418-.451l-4.268-9.24q-.088-.154-.088-.33 0-.33.297-.572.297-.242.649-.242.22 0 .429.132t.319.374l3.674 8.25 3.674-8.206zm11.88 7.898q.242 0 .418.198t.176.506q0 .55-.77 1.012-.792.462-1.672.693-.88.231-1.716.231-2.486 0-3.927-1.474-1.441-1.474-1.441-4.07 0-1.65.638-2.915.638-1.265 1.793-1.969 1.155-.704 2.629-.704 2.09 0 3.322 1.364 1.232 1.364 1.232 3.696 0 .44-.176.638t-.572.198h-7.084q.198 3.784 3.586 3.784.858 0 1.474-.231t1.32-.627q.572-.33.77-.33zm-3.85-7.106q-1.408 0-2.255.88t-1.001 2.486h6.226q-.044-1.628-.814-2.497-.77-.869-2.156-.869zm12.54-1.386q3.85 0 3.85 4.246v5.962q0 .418-.231.649-.231.231-.649.231-.418 0-.66-.231-.242-.231-.242-.649v-5.852q0-1.496-.583-2.178-.583-.682-1.859-.682-1.474 0-2.354.902-.88.902-.88 2.442v5.368q0 .418-.231.649-.231.231-.649.231-.418 0-.66-.231-.242-.231-.242-.649v-9.284q0-.396.242-.638t.66-.242q.396 0 .627.242.231.242.231.616v1.122q.528-.99 1.474-1.507.946-.517 2.156-.517zm15.796.044q.418 0 .66.242.242.242.242.638v9.328q0 2.398-1.232 3.619t-3.652 1.221q-2.354 0-3.916-.924-.792-.44-.792-1.012 0-.308.165-.506t.429-.198q.22 0 .792.308.77.396 1.518.638t1.782.242q1.562 0 2.354-.825t.792-2.409v-1.892q-.462 1.034-1.419 1.584-.957.55-2.255.55-1.408 0-2.497-.66t-1.694-1.87q-.605-1.21-.605-2.794t.605-2.794q.605-1.21 1.694-1.87 1.089-.66 2.497-.66 1.276 0 2.222.55t1.43 1.562v-1.188q0-.396.231-.638t.649-.242zm-4.18 9.13q1.54 0 2.42-1.023.88-1.023.88-2.827 0-1.782-.869-2.805-.869-1.023-2.431-1.023t-2.453 1.023q-.891 1.023-.891 2.805 0 1.804.891 2.827t2.453 1.023zm16.676-.682q.242 0 .418.198t.176.506q0 .55-.77 1.012-.792.462-1.672.693-.88.231-1.716.231-2.486 0-3.927-1.474-1.441-1.474-1.441-4.07 0-1.65.638-2.915.638-1.265 1.793-1.969 1.155-.704 2.629-.704 2.09 0 3.322 1.364 1.232 1.364 1.232 3.696 0 .44-.176.638t-.572.198H185q.198 3.784 3.586 3.784.858 0 1.474-.231t1.32-.627q.572-.33.77-.33zm-3.85-7.106q-1.408 0-2.255.88t-1.001 2.486h6.226q-.044-1.628-.814-2.497-.77-.869-2.156-.869zm12.452-1.342q.924-.066.924.748 0 .352-.198.561-.198.209-.682.253l-.66.066q-1.474.132-2.189 1.045-.715.913-.715 2.145v5.346q0 .44-.242.66-.242.22-.638.22t-.649-.231q-.253-.231-.253-.649v-9.284q0-.418.264-.649.264-.231.638-.231.352 0 .594.231t.242.627v1.232q.462-.968 1.309-1.474t1.947-.594l.308-.022zm6.072 11.088q-1.012 0-1.925-.242t-1.617-.682q-.396-.264-.561-.495-.165-.231-.165-.561 0-.286.165-.473t.429-.187q.264 0 .77.33.66.396 1.309.627.649.231 1.617.231 1.188 0 1.848-.418.66-.418.66-1.21 0-.484-.242-.781-.242-.297-.836-.528-.594-.231-1.738-.473-1.936-.418-2.772-1.122-.836-.704-.836-1.914 0-.946.528-1.672t1.463-1.144q.935-.418 2.123-.418.858 0 1.661.231t1.419.649q.748.528.748 1.1 0 .286-.176.484t-.418.198q-.264 0-.792-.374-.616-.396-1.166-.616-.55-.22-1.364-.22-1.034 0-1.661.462t-.627 1.232q0 .484.231.781.231.297.77.528.539.231 1.551.451 1.496.33 2.321.726.825.396 1.177.968.352.572.352 1.452 0 1.386-1.166 2.233-1.166.847-3.08.847zm-125.246-.044q-.418 0-.671-.253-.253-.253-.253-.671V174.29h-4.73q-.396 0-.616-.198-.22-.198-.22-.572 0-.374.22-.572.22-.198.616-.198H87.21q.396 0 .616.198.22.198.22.572 0 .374-.22.572-.22.198-.616.198h-4.73v13.156q0 .418-.242.671-.242.253-.66.253zm13.64-11.088q1.892 0 2.86 1.067t.968 3.179v5.962q0 .418-.242.649-.242.231-.638.231-.418 0-.66-.231-.242-.231-.242-.649v-5.918q0-1.43-.583-2.112-.583-.682-1.859-.682-1.474 0-2.354.902-.88.902-.88 2.442v5.368q0 .418-.231.649-.231.231-.649.231-.418 0-.66-.231-.242-.231-.242-.649v-13.992q0-.374.253-.616t.649-.242q.418 0 .649.231.231.231.231.627v5.764q.528-.968 1.474-1.474t2.156-.506zm15.378 8.492q.242 0 .418.198t.176.506q0 .55-.77 1.012-.792.462-1.672.693-.88.231-1.716.231-2.486 0-3.927-1.474-1.441-1.474-1.441-4.07 0-1.65.638-2.915.638-1.265 1.793-1.969 1.155-.704 2.629-.704 2.09 0 3.322 1.364 1.232 1.364 1.232 3.696 0 .44-.176.638t-.572.198h-7.084q.198 3.784 3.586 3.784.858 0 1.474-.231t1.32-.627q.572-.33.77-.33zm-3.85-7.106q-1.408 0-2.255.88t-1.001 2.486h6.226q-.044-1.628-.814-2.497-.77-.869-2.156-.869z" filter="url(#i)"/><defs><filter id="i" width="147.982" height="31.756" x="69.09" y="168.62" filterUnits="userSpaceOnUse"><feGaussianBlur xmlns="http://www.w3.org/2000/svg" in="SourceGraphic" stdDeviation=".429"/><feOffset xmlns="http://www.w3.org/2000/svg" dy="2" result="pf_100_offsetBlur"/><feFlood xmlns="http://www.w3.org/2000/svg" flood-opacity=".19"/><feComposite xmlns="http://www.w3.org/2000/svg" in2="pf_100_offsetBlur" operator="in" result="pf_100_dropShadow"/><feBlend xmlns="http://www.w3.org/2000/svg" in="SourceGraphic" in2="pf_100_dropShadow"/></filter></defs><g filter="url(#j)"><path fill="#FEE1C2" d="M143.253 175.744l-51.726 24.138 24.139-51.725 5.173-5.173 27.586 27.587-5.172 5.173z"/><path fill="#5D5D5D" d="M99.205 183.422l-7.678 16.46 16.461-7.678s1.628-.958.773-1.813c-.854-.854-3.425.023-3.425.023s1.709-2.601-.006-4.316c-1.715-1.715-4.316-.006-4.316-.006s.859-2.59-.004-3.452c-.862-.862-1.805.782-1.805.782z"/><linearGradient id="k" x1=".277" x2=".519" y1=".479" y2=".718" gradientTransform="matrix(114.495 0 0 114.496 115.666 61.248)" gradientUnits="userSpaceOnUse"><stop offset="2.174%" stop-color="#f90"/><stop offset="27.391%" stop-color="#f90"/><stop offset="28.696%" stop-color="#c37602"/><stop offset="70.435%" stop-color="#c37602"/><stop offset="72.609%" stop-color="#9f6002"/><stop offset="98.261%" stop-color="#9f6002"/></linearGradient><path fill="url(#k)" d="M115.666 148.157c3.448-3.449 9.483 6.034 4.31 11.207 8.621-8.621 20.691 3.448 12.07 12.069 5.172-5.172 14.655.862 11.207 4.311l86.908-86.909-27.586-27.587-86.909 86.909z"/></g><defs><filter id="j" width="150.634" height="150.634" x="85.53" y="57.25" filterUnits="userSpaceOnUse"><feGaussianBlur xmlns="http://www.w3.org/2000/svg" in="SourceGraphic" stdDeviation=".429"/><feOffset xmlns="http://www.w3.org/2000/svg" dy="2" result="pf_100_offsetBlur"/><feFlood xmlns="http://www.w3.org/2000/svg" flood-opacity=".1"/><feComposite xmlns="http://www.w3.org/2000/svg" in2="pf_100_offsetBlur" operator="in" result="pf_100_dropShadow"/><feBlend xmlns="http://www.w3.org/2000/svg" in="SourceGraphic" in2="pf_100_dropShadow"/></filter></defs><g filter="url(#l)"><linearGradient id="m" x1=".533" x2=".533" y1="-.071" y2="1.071" gradientTransform="matrix(244.648 0 0 48.93 5.676 101.019)" gradientUnits="userSpaceOnUse"><stop offset="0%" stop-color="#2b898f"/><stop offset="100%" stop-color="#5bdbc1"/></linearGradient><path fill="url(#m)" d="M5.676 101.019v48.93h8.155v-48.93H5.676zm236.493 0v48.93h8.155v-48.93h-8.155z"/><path fill="#FFF" d="M5.676 101.019v1.02h8.155v-1.02H5.676zm236.493 0v1.02h8.155v-1.02h-8.155z"/></g><defs><filter id="l" width="256.648" height="60.93" x="-.32" y="97.02" filterUnits="userSpaceOnUse"><feGaussianBlur xmlns="http://www.w3.org/2000/svg" in="SourceGraphic" stdDeviation=".429"/><feOffset xmlns="http://www.w3.org/2000/svg" dy="2" result="pf_100_offsetBlur"/><feFlood xmlns="http://www.w3.org/2000/svg" flood-opacity=".1"/><feComposite xmlns="http://www.w3.org/2000/svg" in2="pf_100_offsetBlur" operator="in" result="pf_100_dropShadow"/><feBlend xmlns="http://www.w3.org/2000/svg" in="SourceGraphic" in2="pf_100_dropShadow"/></filter></defs></g></switch> </svg>