<svg xmlns="http://www.w3.org/2000/svg" style="isolation:isolate" width="256" height="256"><defs><filter id="a" width="270.648" height="254.338" x="-7.32" y="2.95" filterUnits="userSpaceOnUse"><feGaussianBlur xmlns="http://www.w3.org/2000/svg" in="SourceGraphic" stdDeviation="4.294"/><feOffset xmlns="http://www.w3.org/2000/svg" dy="4" result="pf_100_offsetBlur"/><feFlood xmlns="http://www.w3.org/2000/svg" flood-opacity=".4"/><feComposite xmlns="http://www.w3.org/2000/svg" in2="pf_100_offsetBlur" operator="in" result="pf_100_dropShadow"/><feBlend xmlns="http://www.w3.org/2000/svg" in="SourceGraphic" in2="pf_100_dropShadow"/></filter></defs><g filter="url(#a)"><linearGradient id="b" x1="1.003" x2=".003" y1=".01" y2=".93" gradientTransform="matrix(244.648 0 0 228.338 5.676 11.947)" gradientUnits="userSpaceOnUse"><stop offset="0%" stop-color="#d446ff"/><stop offset="100%" stop-color="#a0d8ff"/></linearGradient><path fill="url(#b)" d="M165.685 11.947c74.055 0 84.639 10.557 84.639 84.544v59.251c0 73.986-10.584 84.543-84.639 84.543h-75.37c-74.055 0-84.639-10.557-84.639-84.543V96.491c0-73.987 10.584-84.544 84.639-84.544h75.37z"/></g><path fill="#363433" d="M11.78 211.731c.49 1.379.936 2.823 1.506 4.079a39.591 39.591 0 0 0 3.252 5.847 33.324 33.324 0 0 0 4.043 4.905 33.394 33.394 0 0 0 4.91 4.037 39.722 39.722 0 0 0 5.856 3.248c2.118.959 4.407 1.8 6.879 2.535 2.471.735 5.127 1.366 7.978 1.902 2.852.537 5.899.98 9.156 1.344 3.257.364 6.724.647 10.412.863 4.508.265 10.02.277 15.215.365h9.885c.17-9.317-1.483-48.652-42.051-48.652-19.622 0-30.707 9.102-37.041 19.527z"/><path fill="#F6DAAA" stroke="#363433" stroke-linecap="square" stroke-width="2.409" d="M122.609 124.332c.38 22.481-27.511-9.779-23.928-23.316 2.361-2.317 4.739-4.33 8.818-4.593 3.356.314 12.351 15.043 15.11 27.909z" vector-effect="non-scaling-stroke"/><path fill="none" stroke="#6D6E6E" stroke-linecap="square" stroke-width=".927" d="M63.376 103.885c15.576-39.855 8.62-77.701-5.422-81.421" vector-effect="non-scaling-stroke"/><linearGradient id="c" x1=".214" x2=".099" y1=".79" y2=".919" gradientTransform="matrix(112.459 0 0 97.347 37.761 103.164)" gradientUnits="userSpaceOnUse"><stop offset="0%" stop-color="#f6daaa"/><stop offset="100%" stop-color="#e4bc98"/></linearGradient><path fill="url(#c)" stroke="#363433" stroke-linecap="square" stroke-width="2.409" d="M62.419 103.164c-22.276 2.787-26.129 22.203-24.236 29.267 6.264 22.251 9.204 37.369 9.403 62.759 3.797 4.02 14.379 8.561 20.907 2.033-2.002-15.114 10.6-19.441 29.697-18.039 22.716 1.667 52.03-3.711 52.03-25.279-1.79-13.592-17.482-23.671-41.845-37.673" vector-effect="non-scaling-stroke"/><path fill="none" stroke="#6D6E6E" stroke-linecap="square" stroke-width=".927" d="M68.408 100.24c-.831-18.447 41.024-52.435 55.534-35.229" vector-effect="non-scaling-stroke"/><path fill="#F6DAAA" d="M53.031 113.778C76.074 85.4 97.105 81.847 112.67 128.872"/><radialGradient id="d" cx=".127" cy=".18" r="9.79" fx=".127" fy=".18" gradientTransform="matrix(32.169 42.545 -16.099 85.013 38.972 104.223)" gradientUnits="userSpaceOnUse"><stop offset="0%" stop-color="#e4bc98"/><stop offset="100%" stop-opacity="0" stop-color="#f6daaa"/></radialGradient><path fill="url(#d)" d="M63.534 104.223l-.58.056c-1.027.879-1.085.548-.984.116-.197.026-.386.085-.579.116-.199.227-.43.47-.753.868l-.579.695-.58.232.58-.695c.463-.571.631-.825.695-.985-.156.027-.31.027-.464.056-.576.387-1.062.802-.405.116-9.151 1.834-14.55 6.689-17.608 11.99-3.332 5.774-3.762 12.206-2.954 15.291.004.011-.004.041 0 .055 6.207 22.06 9.193 37.338 9.441 62.381 1.734 1.723 4.98 3.722 8.514 4.459 2.332.487 4.676.448 6.835-.405 1.288-1.316 2.187-3.269 3.128-5.444.351-5.63 3.09-9.755 7.645-12.164.022-.011.036-.048.058-.056l-11.41-76.682z"/><radialGradient id="e" cx=".511" cy=".484" r="5.297" fx=".511" fy=".484" gradientTransform="matrix(30.234 0 0 29.945 117.11 128.376)" gradientUnits="userSpaceOnUse"><stop offset="0%" stop-color="#fff"/><stop offset="100%" stop-opacity="0" stop-color="#fff"/></radialGradient><path fill="url(#e)" d="M127.13 128.376c-5.867 2.208-10.02 7.84-10.02 14.48 0 8.548 6.859 15.465 15.407 15.465 7.012 0 12.927-4.67 14.827-11.063-2.063-3.943-5.427-7.714-10.02-11.526-2.919-2.423-6.356-4.847-10.194-7.356z"/><path fill="#363433" d="M63.997 174.017c-.929 0-2.001 1.702-.347 1.564 8.345-.695 16.394-.522 23.341 4.344l.638-.115.868-1.101.188-.293c-7.604-4.844-15.993-5.275-24.688-4.399z"/><linearGradient id="f" x1=".399" x2=".233" y1=".231" y2=".213"><stop offset="0%" stop-color="#363433"/><stop offset="100%" stop-opacity="0" stop-color="#363433"/></linearGradient><path fill="#FFF" stroke="url(#f)" stroke-linecap="square" stroke-width="1.39" d="M73.962 139.374c-1.686-1.686-11.309-31.651 5.206-36.357 10.581-3.016 23.254 20.24 23.254 29.936 0 9.695-19.788 14.34-28.46 6.421z" vector-effect="non-scaling-stroke"/><path fill="#343231" d="M89.873 116.854c-.013 4.105-1.696 7.834-4.317 9.565-2.621 1.731-5.706 1.152-7.916-1.485-2.209-2.637-3.143-6.857-2.395-10.824.013-4.106 1.696-7.834 4.317-9.566 2.621-1.731 5.707-1.152 7.916 1.485 2.209 2.638 3.143 6.857 2.395 10.825z"/><path fill="#FFF" d="M83.958 112.917c.061 1.664-.537 3.206-1.472 3.794-.935.588-1.984.081-2.58-1.246-.596-1.328-.597-3.16-.003-4.507-.062-1.664.537-3.206 1.472-3.794.934-.588 1.983-.081 2.579 1.246.596 1.328.598 3.16.004 4.507zM81.089 121.518c.04.449.469.825 1.052.923.583.098 1.182-.104 1.471-.497.288-.394.197-.883-.224-1.204-.04-.448-.468-.824-1.052-.922-.583-.099-1.182.104-1.471.497-.288.393-.197.883.224 1.203z"/><path fill="#413F3E" d="M60.119 22.044a2.9 2.9 0 1 1-5.801 0 2.9 2.9 0 0 1 5.801 0zM126.875 65.116a2.902 2.902 0 0 1-4.351 2.514 2.9 2.9 0 0 1-1.449-2.514 2.9 2.9 0 1 1 5.8 0z"/><path fill="#FFF" d="M46.853 193.189c-21.456-.582-35.298 21.102-33.751 21.881 2.571.567 5.322-5.534 16.112-14.628 4.892-4.123 17.835-5.516 17.645-6.963-.003-.1 0-.193-.006-.29z"/><path fill="#E67E71" d="M19.901 225.735c.243.259.43.576.68.827a33.394 33.394 0 0 0 4.91 4.037 39.722 39.722 0 0 0 5.856 3.248c2.118.959 4.407 1.8 6.879 2.535 2.471.735 5.127 1.366 7.978 1.902 2.852.537 5.899.98 9.156 1.344 3.257.364 6.724.647 10.412.863 4.508.265 10.02.277 15.215.365h7.451c-.006-12.089-.704-28.094-18.185-40.601-4.14 3.643-9.49 4.235-13.959 3.303-3.609-.754-6.82-2.329-9.268-4.229-15.369 6.746-23.391 16.2-27.125 26.406z"/><path fill="#363433" d="M112.679 128.897c-3.014-11.963-7.284-20.796-11.903-26.759-4.618-5.963-9.675-9.258-15.001-10.02-5.326-.762-10.815.965-16.391 4.634-5.577 3.668-12.621 11.654-16.363 17.028 6.187-6.15 12.013-11.955 17.347-15.465 5.334-3.509 10.418-5.024 15.175-4.344 4.758.681 9.305 3.558 13.728 9.268 4.422 5.709 9.248 14.08 13.408 25.658z"/><g opacity=".4"><linearGradient id="g" x1=".517" x2=".517" y2="1"><stop offset="0%" stop-color="#fff"/><stop offset="12.5%" stop-opacity=".098" stop-color="#fff"/><stop offset="92.5%" stop-opacity=".098"/><stop offset="100%" stop-opacity=".498"/></linearGradient><path fill="none" stroke="url(#g)" stroke-linecap="round" stroke-linejoin="round" stroke-width="4.077" d="M165.685 11.947c74.055 0 84.639 10.557 84.639 84.544v59.251c0 73.986-10.584 84.543-84.639 84.543h-75.37c-74.055 0-84.639-10.557-84.639-84.543V96.491c0-73.987 10.584-84.544 84.639-84.544h75.37z" vector-effect="non-scaling-stroke"/></g></svg>