<svg xmlns="http://www.w3.org/2000/svg" style="isolation:isolate" width="256" height="256"><switch><g><defs><filter id="a" width="270.648" height="254.338" x="-7.32" y="2.95" filterUnits="userSpaceOnUse"><feGaussianBlur xmlns="http://www.w3.org/2000/svg" in="SourceGraphic" stdDeviation="4.294"/><feOffset xmlns="http://www.w3.org/2000/svg" dy="4" result="pf_100_offsetBlur"/><feFlood xmlns="http://www.w3.org/2000/svg" flood-opacity=".4"/><feComposite xmlns="http://www.w3.org/2000/svg" in2="pf_100_offsetBlur" operator="in" result="pf_100_dropShadow"/><feBlend xmlns="http://www.w3.org/2000/svg" in="SourceGraphic" in2="pf_100_dropShadow"/></filter></defs><path fill="#FB7C38" d="M165.685 11.947c74.055 0 84.639 10.557 84.639 84.544v59.251c0 73.986-10.584 84.543-84.639 84.543h-75.37c-74.055 0-84.639-10.557-84.639-84.543V96.491c0-73.987 10.584-84.544 84.639-84.544h75.37z" filter="url(#a)"/><path fill="#B3B3B3" d="M250.324 155.742c0 73.986-10.584 84.543-84.639 84.543h-75.37c-74.055 0-84.639-10.557-84.639-84.543h244.648z"/><path fill="#F34F17" d="M53.452 177.826c7.044 0 12.941 4.536 15.177 10.793h45.197a8.384 8.384 0 0 1-.012.066 16.157 16.157 0 0 1 15.231-10.825c8.923 0 16.156 7.234 16.157 16.157-.001 8.923-7.234 16.156-16.157 16.156a16.156 16.156 0 0 1-15.227-10.81l.008.049H68.629c-2.236 6.258-8.133 10.795-15.177 10.795a16.156 16.156 0 0 1-16.191-16.19c0-8.97 7.222-16.191 16.191-16.191z"/><path d="M144.183 199.418h45.198c2.236 6.257 8.133 10.793 15.178 10.793 8.969 0 16.19-7.22 16.19-16.19 0-8.969-7.221-16.19-16.19-16.19-7.045 0-12.942 4.536-15.178 10.794h-45.198c1.012 5.396 1.012 5.396 0 10.793z" opacity=".5"/><g opacity=".4"><linearGradient id="b" x1=".517" x2=".517" y2="1"><stop offset="0%" stop-color="#fff"/><stop offset="12.5%" stop-opacity=".098" stop-color="#fff"/><stop offset="92.5%" stop-opacity=".098"/><stop offset="100%" stop-opacity=".498"/></linearGradient><path fill="none" stroke="url(#b)" stroke-linecap="round" stroke-linejoin="round" stroke-width="4.077" d="M165.685 11.947c74.055 0 84.639 10.557 84.639 84.544v59.251c0 73.986-10.584 84.543-84.639 84.543h-75.37c-74.055 0-84.639-10.557-84.639-84.543V96.491c0-73.987 10.584-84.544 84.639-84.544h75.37z" vector-effect="non-scaling-stroke"/></g><path fill="#E6E6E6" d="M178 89.667l-8.812-8.813-34.938 34.875V39.667h-12.5v76.062L86.875 80.792 78 89.667l50 50 50-50z"/></g></switch> </svg>