<svg xmlns="http://www.w3.org/2000/svg" style="isolation:isolate" width="256" height="256"><switch><g><defs><filter id="a" width="270.648" height="254.338" x="-7.32" y="2.95" filterUnits="userSpaceOnUse"><feGaussianBlur xmlns="http://www.w3.org/2000/svg" in="SourceGraphic" stdDeviation="4.294"/><feOffset xmlns="http://www.w3.org/2000/svg" dy="4" result="pf_100_offsetBlur"/><feFlood xmlns="http://www.w3.org/2000/svg" flood-opacity=".4"/><feComposite xmlns="http://www.w3.org/2000/svg" in2="pf_100_offsetBlur" operator="in" result="pf_100_dropShadow"/><feBlend xmlns="http://www.w3.org/2000/svg" in="SourceGraphic" in2="pf_100_dropShadow"/></filter></defs><g filter="url(#a)"><linearGradient id="b" x1=".567" x2=".567" y1="1.071" y2="-.071" gradientTransform="matrix(244.648 0 0 228.338 5.676 11.947)" gradientUnits="userSpaceOnUse"><stop offset="0%" stop-color="#a0a0a0"/><stop offset="100%" stop-color="#dfdfdf"/></linearGradient><path fill="url(#b)" d="M165.685 11.947c74.055 0 84.639 10.557 84.639 84.544v59.251c0 73.986-10.584 84.543-84.639 84.543h-75.37c-74.055 0-84.639-10.557-84.639-84.543V96.491c0-73.987 10.584-84.544 84.639-84.544h75.37z"/></g><path fill="#2DAAAA" d="M35.924 34.701v91.744H5.342v28.978c0 9.249.166 17.506.6 24.875.217 3.685.501 7.147.865 10.401.182 1.619.448 3.035.67 4.552h59.028V34.701H35.924z"/><path fill="#DA1636" d="M66.5 95.86h30.581v99.388H66.5z"/><path fill="#2DAAAA" d="M97.09 80.57h30.581v114.679H97.09zM128 57.3h30.581v137.614H128z"/><path fill="#DA1636" d="M158.58 95.53h30.581v99.388H158.58z"/><path fill="#2DAAAA" d="M189.16 34.37h30.581v160.55H189.16z"/><linearGradient id="c" x1="-277.108" x2="-277.108" y1="2.228" gradientTransform="matrix(1.1 0 0 30.889 249.225 64.949)" gradientUnits="userSpaceOnUse"><stop offset="0%" stop-color="#c61423"/><stop offset="100%" stop-color="#dc2b41"/></linearGradient><path fill="url(#c)" d="M249.225 64.949c.173 1.985.374 3.883.5 6.014.434 7.369.599 15.627.599 24.875V64.949h-1.099z"/><path fill="#DA1636" d="M248.189 194.918c.223-1.517.489-2.933.67-4.553.365-3.253.649-6.715.866-10.4.434-7.369.599-15.627.599-24.875V95.838c0-9.248-.165-17.506-.599-24.875-.126-2.131-.327-4.029-.5-6.014h-29.483v129.969h28.447z"/><path fill="#FB7C38" fill-rule="evenodd" d="M6.082 171.943c.088 2.565.053 5.646.193 8.022.217 3.685.501 7.147.866 10.4.364 3.254.808 6.298 1.345 9.147.538 2.848 1.168 5.501 1.905 7.971.736 2.469 1.578 4.755 2.539 6.871a39.5 39.5 0 0 0 3.252 5.847 33.261 33.261 0 0 0 4.043 4.905 33.279 33.279 0 0 0 4.91 4.037 39.619 39.619 0 0 0 5.855 3.248c2.118.959 4.407 1.8 6.879 2.535 2.472.735 5.127 1.366 7.979 1.902 2.851.537 5.899.98 9.156 1.344 3.257.364 6.724.647 10.412.863 7.377.433 15.641.598 24.898.598h75.372c9.257 0 17.521-.165 24.898-.598 3.688-.216 7.155-.499 10.412-.863 3.257-.364 6.305-.807 9.156-1.344 2.852-.536 5.507-1.167 7.979-1.902 2.472-.735 4.761-1.576 6.879-2.535a39.619 39.619 0 0 0 5.855-3.248 33.279 33.279 0 0 0 4.91-4.037 33.261 33.261 0 0 0 4.043-4.905 39.5 39.5 0 0 0 3.252-5.847c.961-2.116 1.803-4.402 2.539-6.871.737-2.47 1.367-5.123 1.905-7.971.537-2.849.981-5.893 1.345-9.147.365-3.253.649-6.715.866-10.4.434-7.369.599-15.627.599-24.875v-6.045c-15.29 0-15.291-53.516-30.582-53.516-15.29 0-15.289 38.227-30.58 38.227-15.29 0-15.291 15.289-30.582 15.289-15.29 0-15.29-30.58-30.58-30.58-15.291 0-15.29 30.58-30.58 30.58-15.291 0-11.469 30.582-30.582 30.582s-15.29-30.582-30.58-30.582c-15.147 0-15.312 22.474-30.176 22.898z"/><g opacity=".4"><linearGradient id="d" x1=".517" x2=".517" y2="1"><stop offset="0%" stop-color="#fff"/><stop offset="12.5%" stop-opacity=".098" stop-color="#fff"/><stop offset="92.5%" stop-opacity=".098"/><stop offset="100%" stop-opacity=".498"/></linearGradient><path fill="none" stroke="url(#d)" stroke-linecap="round" stroke-linejoin="round" stroke-width="4.077" d="M165.685 11.947c74.055 0 84.639 10.557 84.639 84.544v59.251c0 73.986-10.584 84.543-84.639 84.543h-75.37c-74.055 0-84.639-10.557-84.639-84.543V96.491c0-73.987 10.584-84.544 84.639-84.544h75.37z" vector-effect="non-scaling-stroke"/></g></g></switch> </svg>