<svg xmlns="http://www.w3.org/2000/svg" style="isolation:isolate" width="256" height="256" viewBox="0 0 256 256">
 <defs>
  <filter id="CzYYYIfM5A47jWS1Ft9nCCA6naSskDR5" width="270.648" height="254.338" x="-7.32" y="2.95" filterUnits="userSpaceOnUse">
   <feGaussianBlur xmlns="http://www.w3.org/2000/svg" in="SourceGraphic" stdDeviation="4.294"/>
   <feOffset xmlns="http://www.w3.org/2000/svg" dx="0" dy="4" result="pf_100_offsetBlur"/>
   <feFlood xmlns="http://www.w3.org/2000/svg" flood-opacity=".4"/>
   <feComposite xmlns="http://www.w3.org/2000/svg" in2="pf_100_offsetBlur" operator="in" result="pf_100_dropShadow"/>
   <feBlend xmlns="http://www.w3.org/2000/svg" in="SourceGraphic" in2="pf_100_dropShadow" mode="normal"/>
  </filter>
 </defs>
 <g filter="url(#CzYYYIfM5A47jWS1Ft9nCCA6naSskDR5)">
  <path fill="#111111" d="M 165.685 11.947 C 239.74 11.947 250.324 22.504 250.324 96.491 L 250.324 155.742 C 250.324 229.728 239.74 240.285 165.685 240.285 L 90.315 240.285 C 16.26 240.285 5.676 229.728 5.676 155.742 L 5.676 96.491 C 5.676 22.504 16.26 11.947 90.315 11.947 L 165.685 11.947 Z"/>
 </g>
 <path fill="#FAF8F6" fill-opacity=".1" d="M 200.624 13.368 C 221.96 15.699 234.385 21.407 241.476 34.069 C 232.563 44.458 182.187 113.207 90.315 240.285 C 81.503 240.285 73.59 240.136 66.486 239.748 C 28.292 237.661 13.502 228.679 8.266 198.953 C 22.542 189.23 207.2 13.813 200.624 13.368 Z"/>
 <g>
  <g>
   <g opacity=".1">
    <path fill="none" d="M 165.685 13.831 C 239.74 13.831 250.324 24.388 250.324 98.375 L 250.324 157.625 C 250.324 231.612 239.74 242.169 165.685 242.169 L 90.315 242.169 C 16.26 242.169 5.676 231.612 5.676 157.625 L 5.676 98.375 C 5.676 24.388 16.26 13.831 90.315 13.831 L 165.685 13.831 Z"/>
   </g>
   <circle fill="#FFFFFF" cx="0" cy="0" r="1" transform="matrix(4.077,0,0,4.077,72.954,105.574)" vector-effect="non-scaling-stroke"/>
   <circle fill="#FFFFFF" cx="0" cy="0" r="1" transform="matrix(4.077,0,0,4.077,93.341,187.123)" vector-effect="non-scaling-stroke"/>
   <circle fill="#FFFFFF" cx="0" cy="0" r="1" transform="matrix(4.077,0,0,4.077,154.504,146.349)" vector-effect="non-scaling-stroke"/>
   <circle fill="#FFFFFF" cx="0" cy="0" r="1" transform="matrix(4.077,0,0,4.077,174.891,85.187)" vector-effect="non-scaling-stroke"/>
   <defs>
    <filter id="TfqIL7idKQk75CeG3iDtrF13UaD06pek" width="20.732" height="20.732" x="62.59" y="95.21" filterUnits="userSpaceOnUse">
     <feGaussianBlur xmlns="http://www.w3.org/2000/svg" stdDeviation="2.7"/>
    </filter>
   </defs>
   <g filter="url(#TfqIL7idKQk75CeG3iDtrF13UaD06pek)">
    <circle fill="#FFFFFF" cx="0" cy="0" r="1" transform="matrix(4.077,0,0,4.077,72.954,105.574)" vector-effect="non-scaling-stroke"/>
   </g>
   <defs>
    <filter id="E1xgIuIQZibtcujwRpn36vJ1aXoD0rf5" width="20.732" height="20.732" x="82.98" y="176.76" filterUnits="userSpaceOnUse">
     <feGaussianBlur xmlns="http://www.w3.org/2000/svg" stdDeviation="2.7"/>
    </filter>
   </defs>
   <g filter="url(#E1xgIuIQZibtcujwRpn36vJ1aXoD0rf5)">
    <circle fill="#FFFFFF" cx="0" cy="0" r="1" transform="matrix(4.077,0,0,4.077,93.341,187.123)" vector-effect="non-scaling-stroke"/>
   </g>
   <defs>
    <filter id="0uEdDHpAtEeAgzpPUyZZGRTSO6VMHFyO" width="20.732" height="20.732" x="144.14" y="135.98" filterUnits="userSpaceOnUse">
     <feGaussianBlur xmlns="http://www.w3.org/2000/svg" stdDeviation="2.7"/>
    </filter>
   </defs>
   <g filter="url(#0uEdDHpAtEeAgzpPUyZZGRTSO6VMHFyO)">
    <circle fill="#FFFFFF" cx="0" cy="0" r="1" transform="matrix(4.077,0,0,4.077,154.504,146.349)" vector-effect="non-scaling-stroke"/>
   </g>
   <defs>
    <filter id="A7tfdlyj4oB5kQ8OGHdRKbfuv2MsWBKp" width="20.732" height="20.732" x="164.53" y="74.82" filterUnits="userSpaceOnUse">
     <feGaussianBlur xmlns="http://www.w3.org/2000/svg" stdDeviation="2.7"/>
    </filter>
   </defs>
   <g filter="url(#A7tfdlyj4oB5kQ8OGHdRKbfuv2MsWBKp)">
    <circle fill="#FFFFFF" cx="0" cy="0" r="1" transform="matrix(4.077,0,0,4.077,174.891,85.187)" vector-effect="non-scaling-stroke"/>
   </g>
   <circle fill="#FFFFFF" cx="0" cy="0" r="1" transform="matrix(4.077,0,0,4.077,39.643,65.169)" vector-effect="non-scaling-stroke"/>
   <circle fill="#FFFFFF" cx="0" cy="0" r="1" transform="matrix(4.077,0,0,4.077,60.031,146.719)" vector-effect="non-scaling-stroke"/>
   <circle fill="#FFFFFF" cx="0" cy="0" r="1" transform="matrix(4.077,0,0,4.077,121.193,105.944)" vector-effect="non-scaling-stroke"/>
   <circle fill="#FFFFFF" cx="0" cy="0" r="1" transform="matrix(4.077,0,0,4.077,141.58,44.782)" vector-effect="non-scaling-stroke"/>
   <defs>
    <filter id="wAFo7MP6zZLrJGhTjASR6BVnKXrA10St" width="20.732" height="20.732" x="29.28" y="54.8" filterUnits="userSpaceOnUse">
     <feGaussianBlur xmlns="http://www.w3.org/2000/svg" stdDeviation="2.7"/>
    </filter>
   </defs>
   <g filter="url(#wAFo7MP6zZLrJGhTjASR6BVnKXrA10St)">
    <circle fill="#FFFFFF" cx="0" cy="0" r="1" transform="matrix(4.077,0,0,4.077,39.643,65.169)" vector-effect="non-scaling-stroke"/>
   </g>
   <defs>
    <filter id="DnekZiiOuMu3tR0ziUoFw6ZTvu7wp2yl" width="20.732" height="20.732" x="49.66" y="136.35" filterUnits="userSpaceOnUse">
     <feGaussianBlur xmlns="http://www.w3.org/2000/svg" stdDeviation="2.7"/>
    </filter>
   </defs>
   <g filter="url(#DnekZiiOuMu3tR0ziUoFw6ZTvu7wp2yl)">
    <circle fill="#FFFFFF" cx="0" cy="0" r="1" transform="matrix(4.077,0,0,4.077,60.031,146.719)" vector-effect="non-scaling-stroke"/>
   </g>
   <defs>
    <filter id="UO9NkUeDYhS7mjpG6Rdr4KliBwOenNSP" width="20.732" height="20.732" x="110.83" y="95.58" filterUnits="userSpaceOnUse">
     <feGaussianBlur xmlns="http://www.w3.org/2000/svg" stdDeviation="2.7"/>
    </filter>
   </defs>
   <g filter="url(#UO9NkUeDYhS7mjpG6Rdr4KliBwOenNSP)">
    <circle fill="#FFFFFF" cx="0" cy="0" r="1" transform="matrix(4.077,0,0,4.077,121.193,105.944)" vector-effect="non-scaling-stroke"/>
   </g>
   <defs>
    <filter id="rGc22x1haf7uUB93km2wLCBHLIYUU9kx" width="20.732" height="20.732" x="131.21" y="34.42" filterUnits="userSpaceOnUse">
     <feGaussianBlur xmlns="http://www.w3.org/2000/svg" stdDeviation="2.7"/>
    </filter>
   </defs>
   <g filter="url(#rGc22x1haf7uUB93km2wLCBHLIYUU9kx)">
    <circle fill="#FFFFFF" cx="0" cy="0" r="1" transform="matrix(4.077,0,0,4.077,141.58,44.782)" vector-effect="non-scaling-stroke"/>
   </g>
   <circle fill="#FFFFFF" cx="0" cy="0" r="1" transform="matrix(4.077,0,0,4.077,113.976,129.94)" vector-effect="non-scaling-stroke"/>
   <circle fill="#FFFFFF" cx="0" cy="0" r="1" transform="matrix(4.077,0,0,4.077,134.363,211.49)" vector-effect="non-scaling-stroke"/>
   <circle fill="#FFFFFF" cx="0" cy="0" r="1" transform="matrix(4.077,0,0,4.077,195.525,170.715)" vector-effect="non-scaling-stroke"/>
   <circle fill="#FFFFFF" cx="0" cy="0" r="1" transform="matrix(4.077,0,0,4.077,215.913,109.553)" vector-effect="non-scaling-stroke"/>
   <defs>
    <filter id="u6TS7OIZDrzlwmncIHSNo9y0N1IFzOGd" width="20.732" height="20.732" x="103.61" y="119.57" filterUnits="userSpaceOnUse">
     <feGaussianBlur xmlns="http://www.w3.org/2000/svg" stdDeviation="2.7"/>
    </filter>
   </defs>
   <g filter="url(#u6TS7OIZDrzlwmncIHSNo9y0N1IFzOGd)">
    <circle fill="#FFFFFF" cx="0" cy="0" r="1" transform="matrix(4.077,0,0,4.077,113.976,129.94)" vector-effect="non-scaling-stroke"/>
   </g>
   <defs>
    <filter id="eFfItJRe2Di82v3WsGAYkWJK53QT3qU4" width="20.732" height="20.732" x="124" y="201.12" filterUnits="userSpaceOnUse">
     <feGaussianBlur xmlns="http://www.w3.org/2000/svg" stdDeviation="2.7"/>
    </filter>
   </defs>
   <g filter="url(#eFfItJRe2Di82v3WsGAYkWJK53QT3qU4)">
    <circle fill="#FFFFFF" cx="0" cy="0" r="1" transform="matrix(4.077,0,0,4.077,134.363,211.49)" vector-effect="non-scaling-stroke"/>
   </g>
   <defs>
    <filter id="z5GWslEZzLhPs58Sh4hNPa0PmOdMiPEx" width="20.732" height="20.732" x="185.16" y="160.35" filterUnits="userSpaceOnUse">
     <feGaussianBlur xmlns="http://www.w3.org/2000/svg" stdDeviation="2.7"/>
    </filter>
   </defs>
   <g filter="url(#z5GWslEZzLhPs58Sh4hNPa0PmOdMiPEx)">
    <circle fill="#FFFFFF" cx="0" cy="0" r="1" transform="matrix(4.077,0,0,4.077,195.525,170.715)" vector-effect="non-scaling-stroke"/>
   </g>
   <defs>
    <filter id="CuGlib7aqDZFjhFDwedgqwqWh8F6tYVp" width="20.732" height="20.732" x="205.55" y="99.19" filterUnits="userSpaceOnUse">
     <feGaussianBlur xmlns="http://www.w3.org/2000/svg" stdDeviation="2.7"/>
    </filter>
   </defs>
   <g filter="url(#CuGlib7aqDZFjhFDwedgqwqWh8F6tYVp)">
    <circle fill="#FFFFFF" cx="0" cy="0" r="1" transform="matrix(4.077,0,0,4.077,215.913,109.553)" vector-effect="non-scaling-stroke"/>
   </g>
  </g>
  <g>
   <defs>
    <filter id="Kj335e2z5RWBHw1sYm8AIia2RlUi6iY9" width="112" height="112" x="68.18" y="57.83" filterUnits="userSpaceOnUse">
     <feGaussianBlur xmlns="http://www.w3.org/2000/svg" stdDeviation="4.294"/>
    </filter>
   </defs>
   <g opacity=".4" filter="url(#Kj335e2z5RWBHw1sYm8AIia2RlUi6iY9)">
    <circle fill="#FFFFFF" cx="0" cy="0" r="1" transform="matrix(46,0,0,46,124.176,113.831)" vector-effect="non-scaling-stroke"/>
   </g>
   <circle fill="#FB7C38" cx="0" cy="0" r="1" transform="matrix(46,0,0,46,124.176,113.831)" vector-effect="non-scaling-stroke"/>
   <defs>
    <filter id="rgwj1DNyT0Zt6eVxuRckZuvOI56PjtdR" width="60" height="60" x="78.18" y="68.33" filterUnits="userSpaceOnUse">
     <feGaussianBlur xmlns="http://www.w3.org/2000/svg" stdDeviation="6.44"/>
    </filter>
   </defs>
   <g filter="url(#rgwj1DNyT0Zt6eVxuRckZuvOI56PjtdR)">
    <circle fill="#FDA463" cx="0" cy="0" r="1" transform="matrix(15,0,0,15,108.176,98.331)" vector-effect="non-scaling-stroke"/>
   </g>
   <defs>
    <filter id="NA2DLkvzzucmrIhOxyorLGPT64i8E0cu" width="158.236" height="123.464" x="48.57" y="58.59" filterUnits="userSpaceOnUse">
     <feGaussianBlur xmlns="http://www.w3.org/2000/svg" stdDeviation="1.768"/>
    </filter>
   </defs>
   <g filter="url(#NA2DLkvzzucmrIhOxyorLGPT64i8E0cu)">
    <path fill="#E1E1E1" d="M 83.486 134.2 C 61.856 154.174 49.413 170.833 53.446 176.192 C 59.271 183.933 97.257 165.188 138.242 134.346 C 179.226 103.504 207.762 72.189 201.937 64.448 C 198.025 59.25 179.58 66.033 155.493 80.366 C 156.953 81.281 158.336 82.319 159.679 83.426 C 173.221 76.37 183.057 73.542 185.514 76.807 C 190.05 82.835 167.82 107.222 135.904 131.24 C 103.987 155.258 74.405 169.861 69.869 163.833 C 67.275 160.385 73.457 150.926 85.174 138.972 C 84.518 137.401 83.937 135.812 83.486 134.2 L 83.486 134.2 Z"/>
   </g>
  </g>
 </g>
 <g opacity=".4">
  <linearGradient id="_lgradient_167" x1=".517" x2=".517" y1="0" y2="1">
   <stop offset="0%" style="stop-color:rgb(255,255,255)"/>
   <stop offset="12.5%" stop-opacity=".098" style="stop-color:rgb(255,255,255)"/>
   <stop offset="92.5%" stop-opacity=".098" style="stop-color:rgb(0,0,0)"/>
   <stop offset="100%" stop-opacity=".498" style="stop-color:rgb(0,0,0)"/>
  </linearGradient>
  <path fill="none" stroke="url(#_lgradient_167)" stroke-linecap="round" stroke-linejoin="round" stroke-width="4.077" d="M 165.685 11.947 C 239.74 11.947 250.324 22.504 250.324 96.491 L 250.324 155.742 C 250.324 229.728 239.74 240.285 165.685 240.285 L 90.315 240.285 C 16.26 240.285 5.676 229.728 5.676 155.742 L 5.676 96.491 C 5.676 22.504 16.26 11.947 90.315 11.947 L 165.685 11.947 Z" vector-effect="non-scaling-stroke"/>
 </g>
</svg>
