<svg xmlns="http://www.w3.org/2000/svg" style="isolation:isolate" width="256" height="256"><switch><g><defs><filter id="a" width="400%" height="400%" x="-200%" y="-200%" color-interpolation-filters="sRGB" filterUnits="objectBoundingBox"><feGaussianBlur xmlns="http://www.w3.org/2000/svg" in="SourceGraphic" stdDeviation="4.294"/><feOffset xmlns="http://www.w3.org/2000/svg" dy="4" result="pf_100_offsetBlur"/><feFlood xmlns="http://www.w3.org/2000/svg" flood-opacity=".4"/><feComposite xmlns="http://www.w3.org/2000/svg" in2="pf_100_offsetBlur" operator="in" result="pf_100_dropShadow"/><feBlend xmlns="http://www.w3.org/2000/svg" in="SourceGraphic" in2="pf_100_dropShadow"/></filter></defs><g filter="url(#a)"><radialGradient id="b" cx=".5" cy=".5" r=".5" fx=".5" fy=".5" gradientTransform="matrix(244.6483 0 0 228.3384 5.68 11.95)" gradientUnits="userSpaceOnUse"><stop offset="0%" stop-color="#cbe667"/><stop offset="99.13%" stop-color="#76c22b"/></radialGradient><path fill="url(#b)" d="M165.689 11.95c74.056 0 84.64 10.557 84.64 84.544v59.25c0 73.987-10.584 84.544-84.64 84.544h-75.37c-74.055 0-84.639-10.557-84.639-84.543V96.494c0-73.987 10.584-84.544 84.64-84.544h75.369z"/></g><g opacity=".4"><linearGradient id="c" x1=".517" x2=".517" y2="1"><stop offset="0%" stop-color="#fff"/><stop offset="12.5%" stop-opacity=".098" stop-color="#fff"/><stop offset="92.5%" stop-opacity=".098"/><stop offset="100%" stop-opacity=".498"/></linearGradient><path fill="none" stroke="url(#c)" stroke-linecap="round" stroke-linejoin="round" stroke-width="4.077" d="M165.685 11.947c74.055 0 84.64 10.557 84.64 84.544v59.25c0 73.987-10.585 84.544-84.64 84.544h-75.37c-74.055 0-84.64-10.557-84.64-84.543V96.49c0-73.987 10.585-84.544 84.64-84.544h75.37z" vector-effect="non-scaling-stroke"/></g><path fill="#F22C42" d="M194.339 147.005c-15.604-47.218-51.415-12.568-51.415-12.568s-4.936.38-10.649 2.285c-12.202-11.806-35.053-4.562-35.053-4.562s-42.263-14.107-37.308 33.126c2.273 20.185 17.892 33.134 39.6 33.134 11.038 0 20.559-3.42 27.422-9.133 11.425 10.28 28.19 12.184 44.94 4.567 20.559-9.152 28.953-27.422 22.463-46.849z"/><path fill="#BC1938" d="M149.787 169.094c-1.523-14.86 10.275-41.893 20.185-46.844-13.718-.389-27.048 12.187-27.048 12.187s-4.566.38-10.28 2.285c-.369-.38-.757-.38-1.142-.38 5.34 4.95 8.76 14.083 7.244 28.944-1.146 9.894-5.343 17.9-11.814 23.613 5.713 5.324 19.431 15.234 44.944 4.95-11.814-2.284-20.558-9.901-22.089-24.755z"/><path fill="#FA9381" d="M75.148 167.563c-1.535 0-3.44-1.127-3.809-3.031-3.808-15.623 5.325-22.097 9.133-24.386 1.904-1.143 4.197-.37 4.951 1.535 1.15 1.904.373 4.178-1.53 4.936-3.81 1.904-7.618 6.1-5.325 15.622.388 1.904-.762 4.197-2.666 4.57-.381.754-.381.754-.754.754z"/><path fill="#795548" d="M146.36 127.2c-.382-1.142-.755-1.903-1.143-3.046 0-.388-.389-.762-.389-1.143-.37-.761-.37-1.523-.758-1.904-.369-.761-.369-1.15-.758-1.904-.388-.762-.388-1.15-.388-1.904-.37-.762-.37-1.524-.758-1.905-.37-.761-.37-1.523-.758-2.277 0-.389-.388-.777-.388-1.146-.37-.762-.37-1.535-.37-2.293 0-.37 0-.758-.388-1.143 0-.761-.37-1.52-.37-2.277 0-.389 0-.762-.388-1.147 0-.761-.388-1.515-.388-2.292V85.68c0-.369 0-.757.388-1.515v-.762c0-.38.388-1.143.388-1.531v-.754c0-.758.37-1.143.37-1.904v-.37c0-.777.388-1.146.388-1.904 2.274-8.006 6.083-13.33 7.617-15.234.37 0 .758-.389.758-.389 1.905-.761 2.666-3.046 1.905-4.95-.762-1.905-1.905-3.428-3.809-2.667 0 0-.388 0-.388.389-.37 0-.758 0-1.128.37-.388 0-.388.388-.777.76-52.93 23.987-51.026 81.876-51.026 82.265 0 1.904 1.904 3.808 3.808 3.808a3.809 3.809 0 0 0 3.809-3.808c0-.389-1.516-44.56 35.038-69.315-5.713 14.091-10.283 38.458 7.244 71.22.758 1.142 1.904 1.903 3.42 1.903.762 0 1.143 0 1.904-.388 1.516-.758 2.293-2.274 1.905-3.809 0-.37-.389-1.127-.389-1.515-.758-1.516-1.516-3.047-2.274-4.197v-.37a17.52 17.52 0 0 1-1.904-3.808l-.004-.004z"/><path fill="#28851E" d="M181.398 103.207c-6.856-7.228 11.037-49.51-34.277-49.51-25.898 50.272 34.277 49.51 34.277 49.51z"/></g></switch> </svg>