<?xml version="1.0" encoding="UTF-8" standalone="no"?>
<!-- Created with Inkscape (http://www.inkscape.org/) -->

<svg
   xmlns:dc="http://purl.org/dc/elements/1.1/"
   xmlns:cc="http://creativecommons.org/ns#"
   xmlns:rdf="http://www.w3.org/1999/02/22-rdf-syntax-ns#"
   xmlns:svg="http://www.w3.org/2000/svg"
   xmlns="http://www.w3.org/2000/svg"
   xmlns:xlink="http://www.w3.org/1999/xlink"
   xmlns:sodipodi="http://sodipodi.sourceforge.net/DTD/sodipodi-0.dtd"
   xmlns:inkscape="http://www.inkscape.org/namespaces/inkscape"
   width="256"
   height="256"
   viewBox="0 0 67.733332 67.733335"
   version="1.1"
   id="svg1488"
   inkscape:version="0.92.2 (unknown)"
   sodipodi:docname="bleachbit.svg">
  <defs
     id="defs1482">
    <clipPath
       clipPathUnits="userSpaceOnUse"
       id="clipPath1025">
      <path
         id="path1027"
         d="M 111.94141,84 C 99.359506,84.145 90.1531,83.713998 82.625,87.867188 c -3.7641,2.0768 -6.751838,5.574737 -8.398438,9.960937 C 72.580062,102.21433 72,107.4241 72,114 v 42 h 160 v -26 c 0,-6.5759 -0.57996,-11.78566 -2.22656,-16.17188 -0.205,-0.5455 -0.47919,-1.03993 -0.74219,-1.54296 -0.1,-0.1848 -0.17844,-0.38051 -0.27344,-0.56641 -1.727,-3.38752 -4.25471,-6.14522 -7.38281,-7.87109 C 213.8463,99.694146 204.64049,100.1454 192.05859,100 H 192 151.66797 L 135.45312,84 h -23.49218 z"
         style="color:#000000;font-style:normal;font-variant:normal;font-weight:normal;font-stretch:normal;font-size:medium;line-height:normal;font-family:sans-serif;font-variant-ligatures:none;font-variant-position:normal;font-variant-caps:normal;font-variant-numeric:normal;font-variant-alternates:normal;font-feature-settings:normal;text-indent:0;text-align:start;text-decoration:none;text-decoration-line:none;text-decoration-style:solid;text-decoration-color:#000000;letter-spacing:normal;word-spacing:normal;text-transform:none;writing-mode:lr-tb;direction:ltr;baseline-shift:baseline;text-anchor:start;white-space:normal;shape-padding:0;clip-rule:nonzero;display:inline;overflow:visible;visibility:visible;opacity:1;isolation:auto;mix-blend-mode:normal;color-interpolation:sRGB;color-interpolation-filters:linearRGB;solid-color:#000000;solid-opacity:1;fill:#e3dfd5;fill-opacity:1;fill-rule:nonzero;stroke:none;stroke-width:4.00000048;stroke-linecap:butt;stroke-linejoin:miter;stroke-miterlimit:4;stroke-dasharray:none;stroke-dashoffset:0;stroke-opacity:1;marker:none;color-rendering:auto;image-rendering:auto;shape-rendering:auto;text-rendering:auto;enable-background:accumulate"
         inkscape:connector-curvature="0" />
    </clipPath>
    <clipPath
       clipPathUnits="userSpaceOnUse"
       id="clipPath1082-3">
      <path
         sodipodi:nodetypes="sssssssss"
         inkscape:connector-curvature="0"
         id="path1084-6"
         d="M 361.9375,-212 C 507.2348,-212 528,-191.28677 528,-46.125 V 70.125 C 528,215.28618 507.2348,236 361.9375,236 H 214.0625 C 68.7652,236 48,215.28618 48,70.125 V -46.125 C 48,-191.28677 68.7652,-212 214.0625,-212 Z"
         style="display:inline;opacity:1;fill:#8c59d9;fill-opacity:1;stroke:none;stroke-width:2;stroke-linecap:round;stroke-linejoin:round;stroke-miterlimit:4;stroke-dasharray:none;stroke-dashoffset:0;stroke-opacity:1;enable-background:new" />
    </clipPath>
    <clipPath
       clipPathUnits="userSpaceOnUse"
       id="clipPath1082-3-5">
      <path
         sodipodi:nodetypes="sssssssss"
         inkscape:connector-curvature="0"
         id="path1084-6-6"
         d="M 361.9375,-212 C 507.2348,-212 528,-191.28677 528,-46.125 V 70.125 C 528,215.28618 507.2348,236 361.9375,236 H 214.0625 C 68.7652,236 48,215.28618 48,70.125 V -46.125 C 48,-191.28677 68.7652,-212 214.0625,-212 Z"
         style="display:inline;opacity:1;fill:#8c59d9;fill-opacity:1;stroke:none;stroke-width:2;stroke-linecap:round;stroke-linejoin:round;stroke-miterlimit:4;stroke-dasharray:none;stroke-dashoffset:0;stroke-opacity:1;enable-background:new" />
    </clipPath>
    <clipPath
       clipPathUnits="userSpaceOnUse"
       id="clipPath1082-3-9">
      <path
         sodipodi:nodetypes="sssssssss"
         inkscape:connector-curvature="0"
         id="path1084-6-3"
         d="M 361.9375,-212 C 507.2348,-212 528,-191.28677 528,-46.125 V 70.125 C 528,215.28618 507.2348,236 361.9375,236 H 214.0625 C 68.7652,236 48,215.28618 48,70.125 V -46.125 C 48,-191.28677 68.7652,-212 214.0625,-212 Z"
         style="display:inline;opacity:1;fill:#8c59d9;fill-opacity:1;stroke:none;stroke-width:2;stroke-linecap:round;stroke-linejoin:round;stroke-miterlimit:4;stroke-dasharray:none;stroke-dashoffset:0;stroke-opacity:1;enable-background:new" />
    </clipPath>
    <clipPath
       clipPathUnits="userSpaceOnUse"
       id="clipPath1082-3-3">
      <path
         sodipodi:nodetypes="sssssssss"
         inkscape:connector-curvature="0"
         id="path1084-6-67"
         d="M 361.9375,-212 C 507.2348,-212 528,-191.28677 528,-46.125 V 70.125 C 528,215.28618 507.2348,236 361.9375,236 H 214.0625 C 68.7652,236 48,215.28618 48,70.125 V -46.125 C 48,-191.28677 68.7652,-212 214.0625,-212 Z"
         style="display:inline;opacity:1;fill:#8c59d9;fill-opacity:1;stroke:none;stroke-width:2;stroke-linecap:round;stroke-linejoin:round;stroke-miterlimit:4;stroke-dasharray:none;stroke-dashoffset:0;stroke-opacity:1;enable-background:new" />
    </clipPath>
    <clipPath
       clipPathUnits="userSpaceOnUse"
       id="clipPath1082-3-53">
      <path
         sodipodi:nodetypes="sssssssss"
         inkscape:connector-curvature="0"
         id="path1084-6-5"
         d="M 361.9375,-212 C 507.2348,-212 528,-191.28677 528,-46.125 V 70.125 C 528,215.28618 507.2348,236 361.9375,236 H 214.0625 C 68.7652,236 48,215.28618 48,70.125 V -46.125 C 48,-191.28677 68.7652,-212 214.0625,-212 Z"
         style="display:inline;opacity:1;fill:#8c59d9;fill-opacity:1;stroke:none;stroke-width:2;stroke-linecap:round;stroke-linejoin:round;stroke-miterlimit:4;stroke-dasharray:none;stroke-dashoffset:0;stroke-opacity:1;enable-background:new" />
    </clipPath>
    <clipPath
       clipPathUnits="userSpaceOnUse"
       id="clipPath1082-3-6">
      <path
         sodipodi:nodetypes="sssssssss"
         inkscape:connector-curvature="0"
         id="path1084-6-2"
         d="M 361.9375,-212 C 507.2348,-212 528,-191.28677 528,-46.125 V 70.125 C 528,215.28618 507.2348,236 361.9375,236 H 214.0625 C 68.7652,236 48,215.28618 48,70.125 V -46.125 C 48,-191.28677 68.7652,-212 214.0625,-212 Z"
         style="display:inline;opacity:1;fill:#8c59d9;fill-opacity:1;stroke:none;stroke-width:2;stroke-linecap:round;stroke-linejoin:round;stroke-miterlimit:4;stroke-dasharray:none;stroke-dashoffset:0;stroke-opacity:1;enable-background:new" />
    </clipPath>
    <clipPath
       clipPathUnits="userSpaceOnUse"
       id="clipPath1082-3-91">
      <path
         sodipodi:nodetypes="sssssssss"
         inkscape:connector-curvature="0"
         id="path1084-6-27"
         d="M 361.9375,-212 C 507.2348,-212 528,-191.28677 528,-46.125 V 70.125 C 528,215.28618 507.2348,236 361.9375,236 H 214.0625 C 68.7652,236 48,215.28618 48,70.125 V -46.125 C 48,-191.28677 68.7652,-212 214.0625,-212 Z"
         style="display:inline;opacity:1;fill:#8c59d9;fill-opacity:1;stroke:none;stroke-width:2;stroke-linecap:round;stroke-linejoin:round;stroke-miterlimit:4;stroke-dasharray:none;stroke-dashoffset:0;stroke-opacity:1;enable-background:new" />
    </clipPath>
    <clipPath
       clipPathUnits="userSpaceOnUse"
       id="clipPath1025-0">
      <path
         style="opacity:1;fill:#8c59d9;fill-opacity:1;stroke:none;stroke-width:2;stroke-linecap:round;stroke-linejoin:round;stroke-miterlimit:4;stroke-dasharray:none;stroke-dashoffset:0;stroke-opacity:1"
         d="M 329.9375,32 C 475.2348,32 496,52.71323 496,197.875 v 116.25 C 496,459.28618 475.2348,480 329.9375,480 H 182.0625 C 36.7652,480 16,459.28618 16,314.125 V 197.875 C 16,52.71323 36.7652,32 182.0625,32 Z"
         id="path1027-9"
         inkscape:connector-curvature="0"
         sodipodi:nodetypes="sssssssss" />
    </clipPath>
    <clipPath
       clipPathUnits="userSpaceOnUse"
       id="clipPath4277-8">
      <rect
         style="color:#000000;display:inline;overflow:visible;visibility:visible;opacity:0.81999972;fill:#88b637;fill-opacity:1;fill-rule:nonzero;stroke:none;stroke-width:2;stroke-linecap:butt;stroke-linejoin:miter;stroke-miterlimit:4;stroke-dasharray:none;stroke-dashoffset:0;stroke-opacity:1;marker:none;enable-background:accumulate"
         id="rect4279-6"
         width="512"
         height="512"
         x="5.5999999e-07"
         y="0"
         ry="1" />
    </clipPath>
    <linearGradient
       id="linearGradient3650-7-9">
      <stop
         style="stop-color:#5884f4;stop-opacity:1"
         offset="0"
         id="stop4366" />
      <stop
         id="stop4368"
         offset="1"
         style="stop-color:#80a3fa;stop-opacity:1" />
    </linearGradient>
    <clipPath
       clipPathUnits="userSpaceOnUse"
       id="clipPath1082-3-36">
      <path
         sodipodi:nodetypes="sssssssss"
         inkscape:connector-curvature="0"
         id="path1084-6-0"
         d="M 361.9375,-212 C 507.2348,-212 528,-191.28677 528,-46.125 V 70.125 C 528,215.28618 507.2348,236 361.9375,236 H 214.0625 C 68.7652,236 48,215.28618 48,70.125 V -46.125 C 48,-191.28677 68.7652,-212 214.0625,-212 Z"
         style="display:inline;opacity:1;fill:#8c59d9;fill-opacity:1;stroke:none;stroke-width:2;stroke-linecap:round;stroke-linejoin:round;stroke-miterlimit:4;stroke-dasharray:none;stroke-dashoffset:0;stroke-opacity:1;enable-background:new" />
    </clipPath>
    <clipPath
       clipPathUnits="userSpaceOnUse"
       id="clipPath983">
      <path
         id="path985"
         d="M 115.03125,44 C 42.3826,44 32,54.356615 32,126.9375 v 58.125 C 32,257.64309 42.3826,268 115.03125,268 H 152 V 44 Z"
         style="opacity:1;fill:#4d4d4d;fill-opacity:1;stroke:none;stroke-width:2;stroke-linecap:round;stroke-linejoin:round;stroke-miterlimit:4;stroke-dasharray:none;stroke-dashoffset:0;stroke-opacity:1"
         inkscape:connector-curvature="0" />
    </clipPath>
    <clipPath
       clipPathUnits="userSpaceOnUse"
       id="clipPath1082-3-62">
      <path
         sodipodi:nodetypes="sssssssss"
         inkscape:connector-curvature="0"
         id="path1084-6-61"
         d="M 361.9375,-212 C 507.2348,-212 528,-191.28677 528,-46.125 V 70.125 C 528,215.28618 507.2348,236 361.9375,236 H 214.0625 C 68.7652,236 48,215.28618 48,70.125 V -46.125 C 48,-191.28677 68.7652,-212 214.0625,-212 Z"
         style="display:inline;opacity:1;fill:#8c59d9;fill-opacity:1;stroke:none;stroke-width:2;stroke-linecap:round;stroke-linejoin:round;stroke-miterlimit:4;stroke-dasharray:none;stroke-dashoffset:0;stroke-opacity:1;enable-background:new" />
    </clipPath>
    <clipPath
       clipPathUnits="userSpaceOnUse"
       id="clipPath949">
      <path
         sodipodi:nodetypes="sssssssss"
         inkscape:connector-curvature="0"
         id="path951"
         d="M 329.9375,32 C 475.2348,32 496,52.71323 496,197.875 v 116.25 C 496,459.28618 475.2348,480 329.9375,480 H 182.0625 C 36.7652,480 16,459.28618 16,314.125 V 197.875 C 16,52.71323 36.7652,32 182.0625,32 Z"
         style="opacity:1;fill:#eab305;fill-opacity:1;stroke:none;stroke-width:4;stroke-linecap:round;stroke-linejoin:round;stroke-miterlimit:4;stroke-dasharray:none;stroke-dashoffset:0;stroke-opacity:1" />
    </clipPath>
    <clipPath
       clipPathUnits="userSpaceOnUse"
       id="clipPath954">
      <path
         sodipodi:nodetypes="sssssssss"
         inkscape:connector-curvature="0"
         id="path952"
         d="M 329.9375,32 C 475.2348,32 496,52.71323 496,197.875 v 116.25 C 496,459.28618 475.2348,480 329.9375,480 H 182.0625 C 36.7652,480 16,459.28618 16,314.125 V 197.875 C 16,52.71323 36.7652,32 182.0625,32 Z"
         style="opacity:1;fill:#eab305;fill-opacity:1;stroke:none;stroke-width:4;stroke-linecap:round;stroke-linejoin:round;stroke-miterlimit:4;stroke-dasharray:none;stroke-dashoffset:0;stroke-opacity:1" />
    </clipPath>
    <clipPath
       clipPathUnits="userSpaceOnUse"
       id="clipPath1082-3-8">
      <path
         sodipodi:nodetypes="sssssssss"
         inkscape:connector-curvature="0"
         id="path1084-6-7"
         d="M 361.9375,-212 C 507.2348,-212 528,-191.28677 528,-46.125 V 70.125 C 528,215.28618 507.2348,236 361.9375,236 H 214.0625 C 68.7652,236 48,215.28618 48,70.125 V -46.125 C 48,-191.28677 68.7652,-212 214.0625,-212 Z"
         style="display:inline;opacity:1;fill:#8c59d9;fill-opacity:1;stroke:none;stroke-width:2;stroke-linecap:round;stroke-linejoin:round;stroke-miterlimit:4;stroke-dasharray:none;stroke-dashoffset:0;stroke-opacity:1;enable-background:new" />
    </clipPath>
    <clipPath
       clipPathUnits="userSpaceOnUse"
       id="clipPath1082-3-92">
      <path
         sodipodi:nodetypes="sssssssss"
         inkscape:connector-curvature="0"
         id="path1084-6-02"
         d="M 361.9375,-212 C 507.2348,-212 528,-191.28677 528,-46.125 V 70.125 C 528,215.28618 507.2348,236 361.9375,236 H 214.0625 C 68.7652,236 48,215.28618 48,70.125 V -46.125 C 48,-191.28677 68.7652,-212 214.0625,-212 Z"
         style="display:inline;opacity:1;fill:#8c59d9;fill-opacity:1;stroke:none;stroke-width:2;stroke-linecap:round;stroke-linejoin:round;stroke-miterlimit:4;stroke-dasharray:none;stroke-dashoffset:0;stroke-opacity:1;enable-background:new" />
    </clipPath>
    <clipPath
       clipPathUnits="userSpaceOnUse"
       id="clipPath1082">
      <path
         sodipodi:nodetypes="sssssssss"
         inkscape:connector-curvature="0"
         id="path1084"
         d="M 361.9375,-212 C 507.2348,-212 528,-191.28677 528,-46.125 V 70.125 C 528,215.28618 507.2348,236 361.9375,236 H 214.0625 C 68.7652,236 48,215.28618 48,70.125 V -46.125 C 48,-191.28677 68.7652,-212 214.0625,-212 Z"
         style="display:inline;opacity:1;fill:#8c59d9;fill-opacity:1;stroke:none;stroke-width:2;stroke-linecap:round;stroke-linejoin:round;stroke-miterlimit:4;stroke-dasharray:none;stroke-dashoffset:0;stroke-opacity:1;enable-background:new" />
    </clipPath>
    <linearGradient
       inkscape:collect="always"
       xlink:href="#linearGradient1013"
       id="linearGradient1108"
       x1="296"
       y1="-212"
       x2="296"
       y2="236"
       gradientUnits="userSpaceOnUse" />
    <linearGradient
       id="linearGradient1013"
       inkscape:collect="always">
      <stop
         id="stop1005"
         offset="0"
         style="stop-color:#ffffff;stop-opacity:1;" />
      <stop
         style="stop-color:#ffffff;stop-opacity:0.09803922"
         offset="0.125"
         id="stop1007" />
      <stop
         style="stop-color:#000000;stop-opacity:0.09803922"
         offset="0.92500001"
         id="stop1009" />
      <stop
         id="stop1011"
         offset="1"
         style="stop-color:#000000;stop-opacity:0.49803922" />
    </linearGradient>
    <clipPath
       clipPathUnits="userSpaceOnUse"
       id="clipPath1082-3-361">
      <path
         sodipodi:nodetypes="sssssssss"
         inkscape:connector-curvature="0"
         id="path1084-6-29"
         d="M 361.9375,-212 C 507.2348,-212 528,-191.28677 528,-46.125 V 70.125 C 528,215.28618 507.2348,236 361.9375,236 H 214.0625 C 68.7652,236 48,215.28618 48,70.125 V -46.125 C 48,-191.28677 68.7652,-212 214.0625,-212 Z"
         style="display:inline;opacity:1;fill:#8c59d9;fill-opacity:1;stroke:none;stroke-width:2;stroke-linecap:round;stroke-linejoin:round;stroke-miterlimit:4;stroke-dasharray:none;stroke-dashoffset:0;stroke-opacity:1;enable-background:new" />
    </clipPath>
    <linearGradient
       id="linearGradient4245"
       inkscape:collect="always">
      <stop
         id="stop4241"
         offset="0"
         style="stop-color:#e8e8e8;stop-opacity:1" />
      <stop
         id="stop4243"
         offset="1"
         style="stop-color:#f5f5f5;stop-opacity:1" />
    </linearGradient>
    <clipPath
       clipPathUnits="userSpaceOnUse"
       id="clipPath1079">
      <circle
         cx="213.84277"
         cy="146"
         r="55"
         style="color:#000000;display:inline;overflow:visible;visibility:visible;opacity:1;fill:url(#linearGradient1083);fill-opacity:1;fill-rule:nonzero;stroke:none;stroke-width:7.99999952;stroke-linecap:butt;stroke-linejoin:miter;stroke-miterlimit:4;stroke-dasharray:none;stroke-dashoffset:0;stroke-opacity:1;marker:none;enable-background:accumulate"
         id="circle1081"
         transform="scale(-1,1)" />
    </clipPath>
    <clipPath
       clipPathUnits="userSpaceOnUse"
       id="clipPath984">
      <circle
         cx="213.84277"
         cy="146"
         r="55"
         style="color:#000000;display:inline;overflow:visible;visibility:visible;opacity:1;fill:url(#linearGradient1083);fill-opacity:1;fill-rule:nonzero;stroke:none;stroke-width:7.99999952;stroke-linecap:butt;stroke-linejoin:miter;stroke-miterlimit:4;stroke-dasharray:none;stroke-dashoffset:0;stroke-opacity:1;marker:none;enable-background:accumulate"
         id="circle982"
         transform="scale(-1,1)" />
    </clipPath>
    <clipPath
       clipPathUnits="userSpaceOnUse"
       id="clipPath988">
      <circle
         cx="213.84277"
         cy="146"
         r="55"
         style="color:#000000;display:inline;overflow:visible;visibility:visible;opacity:1;fill:url(#linearGradient1083);fill-opacity:1;fill-rule:nonzero;stroke:none;stroke-width:7.99999952;stroke-linecap:butt;stroke-linejoin:miter;stroke-miterlimit:4;stroke-dasharray:none;stroke-dashoffset:0;stroke-opacity:1;marker:none;enable-background:accumulate"
         id="circle986"
         transform="scale(-1,1)" />
    </clipPath>
    <clipPath
       clipPathUnits="userSpaceOnUse"
       id="clipPath992">
      <circle
         cx="213.84277"
         cy="146"
         r="55"
         style="color:#000000;display:inline;overflow:visible;visibility:visible;opacity:1;fill:url(#linearGradient1083);fill-opacity:1;fill-rule:nonzero;stroke:none;stroke-width:7.99999952;stroke-linecap:butt;stroke-linejoin:miter;stroke-miterlimit:4;stroke-dasharray:none;stroke-dashoffset:0;stroke-opacity:1;marker:none;enable-background:accumulate"
         id="circle990"
         transform="scale(-1,1)" />
    </clipPath>
    <filter
       inkscape:collect="always"
       style="color-interpolation-filters:sRGB"
       id="filter4569"
       x="-0.0116"
       width="1.0232"
       y="-0.012428571"
       height="1.024857">
      <feGaussianBlur
         inkscape:collect="always"
         stdDeviation="1.16"
         id="feGaussianBlur4571" />
    </filter>
    <filter
       inkscape:collect="always"
       style="color-interpolation-filters:sRGB"
       id="filter939"
       x="-0.0232"
       width="1.0464"
       y="-0.024857143"
       height="1.0497143">
      <feGaussianBlur
         inkscape:collect="always"
         stdDeviation="2.32"
         id="feGaussianBlur941" />
    </filter>
    <clipPath
       id="b">
      <use
         xlink:href="#a"
         overflow="visible"
         id="use948" />
    </clipPath>
    <clipPath
       id="clipPath1628">
      <use
         xlink:href="#a"
         overflow="visible"
         id="use1626" />
    </clipPath>
    <clipPath
       id="clipPath1632">
      <use
         xlink:href="#a"
         overflow="visible"
         id="use1630" />
    </clipPath>
    <clipPath
       id="clipPath1636">
      <use
         xlink:href="#a"
         overflow="visible"
         id="use1634" />
    </clipPath>
    <linearGradient
       gradientTransform="matrix(0.26970781,0,0,0.26970781,-14.756369,228.54162)"
       inkscape:collect="always"
       xlink:href="#linearGradient4245"
       id="linearGradient1044-3"
       x1="88"
       y1="28"
       x2="256"
       y2="284"
       gradientUnits="userSpaceOnUse" />
    <linearGradient
       inkscape:collect="always"
       xlink:href="#linearGradient3650-7-9"
       id="linearGradient1049"
       gradientUnits="userSpaceOnUse"
       gradientTransform="matrix(0.26970781,0,0,0.26970781,-106.48115,226.48287)"
       x1="88"
       y1="28"
       x2="256"
       y2="284" />
  </defs>
  <sodipodi:namedview
     id="base"
     pagecolor="#ffffff"
     bordercolor="#666666"
     borderopacity="1.0"
     inkscape:pageopacity="0.0"
     inkscape:pageshadow="2"
     inkscape:zoom="2.8850483"
     inkscape:cx="14.510092"
     inkscape:cy="103.84507"
     inkscape:document-units="px"
     inkscape:current-layer="layer1"
     showgrid="true"
     units="px"
     inkscape:window-width="1920"
     inkscape:window-height="1013"
     inkscape:window-x="0"
     inkscape:window-y="34"
     inkscape:window-maximized="1">
    <inkscape:grid
       type="xygrid"
       id="grid2168" />
  </sodipodi:namedview>
  <metadata
     id="metadata1485">
    <rdf:RDF>
      <cc:Work
         rdf:about="">
        <dc:format>image/svg+xml</dc:format>
        <dc:type
           rdf:resource="http://purl.org/dc/dcmitype/StillImage" />
        <dc:title />
      </cc:Work>
    </rdf:RDF>
  </metadata>
  <g
     inkscape:label="Livello 1"
     inkscape:groupmode="layer"
     id="layer1"
     transform="translate(0,-229.26666)">
    <path
       style="display:inline;opacity:0.2;fill:#000000;fill-opacity:1;stroke:none;stroke-width:2;stroke-linecap:round;stroke-linejoin:round;stroke-miterlimit:4;stroke-dasharray:none;stroke-dashoffset:0;stroke-opacity:1;filter:url(#filter939);enable-background:new"
       d="m 162.53675,5.5680001 c 72.64865,0 83.03125,10.3566149 83.03125,82.9375049 v 58.125005 c 0,72.58059 -10.3826,82.9375 -83.03125,82.9375 H 88.599254 C 15.9506,229.56801 5.568,219.2111 5.568,146.63051 V 88.505505 c 0,-72.58089 10.3826,-82.9375049 83.031254,-82.9375049 z"
       id="path937"
       inkscape:connector-curvature="0"
       sodipodi:nodetypes="sssssssss"
       transform="matrix(0.26970779,0,0,0.26970779,-1.9098094e-8,231.46531)" />
    <path
       sodipodi:nodetypes="sssssssss"
       inkscape:connector-curvature="0"
       id="path4558"
       d="m 43.837429,232.42763 c 19.593907,0 22.394176,2.79326 22.394176,22.36889 v 15.67677 c 0,19.57555 -2.800269,22.36889 -22.394176,22.36889 H 23.89591 c -19.5939088,0 -22.394177,-2.79334 -22.394177,-22.36889 v -15.67677 c 0,-19.57563 2.8002682,-22.36889 22.394177,-22.36889 z"
       style="display:inline;opacity:0.1;fill:none;fill-opacity:1;stroke:#000000;stroke-width:1.07883108;stroke-linecap:round;stroke-linejoin:round;stroke-miterlimit:4;stroke-dasharray:none;stroke-dashoffset:0;stroke-opacity:1;enable-background:new" />
    <path
       sodipodi:nodetypes="sssssssss"
       inkscape:connector-curvature="0"
       id="path4567"
       d="m 162.53675,3.5680001 c 72.64865,0 83.03125,10.3566149 83.03125,82.9375049 v 58.125005 c 0,72.58059 -10.3826,82.9375 -83.03125,82.9375 H 88.599254 C 15.9506,227.56801 5.568,217.2111 5.568,144.63051 V 86.505505 c 0,-72.58089 10.3826,-82.9375049 83.031254,-82.9375049 z"
       style="display:inline;opacity:0.1;fill:#000000;fill-opacity:1;stroke:none;stroke-width:2;stroke-linecap:round;stroke-linejoin:round;stroke-miterlimit:4;stroke-dasharray:none;stroke-dashoffset:0;stroke-opacity:1;filter:url(#filter4569);enable-background:new"
       transform="matrix(0.26970779,0,0,0.26970779,-1.9098094e-8,231.46531)" />
    <g
       id="g1045"
       transform="matrix(0.81666671,0,0,0.81666671,81.416582,49.26523)">
      <path
         style="opacity:1;fill:#2e3436;fill-opacity:1;stroke:none;stroke-width:1.01461756;stroke-linecap:round;stroke-linejoin:miter;stroke-miterlimit:4;stroke-dasharray:none;stroke-opacity:1"
         d="m -308.75391,34.898438 c -0.40033,0.02168 -0.93876,0.008 -1.33398,0.03125 -3.68838,0.216589 -7.15504,0.499672 -10.41211,0.863281 -3.25707,0.363609 -6.30467,0.807305 -9.15625,1.34375 -2.85158,0.536444 -5.5066,1.165293 -7.97852,1.90039 -2.47191,0.735098 -4.76083,1.57559 -6.8789,2.535157 -2.11807,0.959566 -4.06542,2.038195 -5.85547,3.248046 -1.79005,1.209852 -3.4223,2.551156 -4.91016,4.03711 -1.48786,1.485954 -2.83147,3.116424 -4.04297,4.904297 -1.21149,1.787872 -2.291,3.734002 -3.25195,5.849609 -0.96095,2.115607 -1.80283,4.399982 -2.53906,6.869141 -0.73623,2.469159 -1.36696,5.122176 -1.9043,7.970703 -0.53733,2.848527 -0.98144,5.892773 -1.3457,9.146484 -0.1279,1.142427 -0.19598,2.457815 -0.30469,3.652344 h 59.91406 z"
         id="path1086"
         transform="matrix(0.32397958,0,0,0.32397958,21.961898,213.17028)"
         inkscape:connector-curvature="0" />
      <path
         style="opacity:1;fill:#eaeaea;fill-opacity:1;stroke:none;stroke-width:1.01461756;stroke-linecap:round;stroke-linejoin:miter;stroke-miterlimit:4;stroke-dasharray:none;stroke-opacity:1"
         d="m -247.50391,34.330078 h -37.68554 c -8.76101,0 -16.49253,0.185309 -23.56446,0.56836 V 87.25 h 61.25 z"
         id="path1091"
         transform="matrix(0.32397958,0,0,0.32397958,21.961898,213.17028)"
         inkscape:connector-curvature="0" />
      <path
         style="opacity:1;fill:#2e3436;fill-opacity:1;stroke:none;stroke-width:1.01461756;stroke-linecap:round;stroke-linejoin:miter;stroke-miterlimit:4;stroke-dasharray:none;stroke-opacity:1"
         d="m -186.25391,34.898438 c -7.07194,-0.383055 -14.80535,-0.56836 -23.5664,-0.56836 h -37.6836 V 87.25 h 61.25 z"
         id="path1096"
         transform="matrix(0.32397958,0,0,0.32397958,21.961898,213.17028)"
         inkscape:connector-curvature="0" />
      <path
         style="opacity:1;fill:#eaeaea;fill-opacity:1;stroke:none;stroke-width:1.01461756;stroke-linecap:round;stroke-linejoin:miter;stroke-miterlimit:4;stroke-dasharray:none;stroke-opacity:1"
         d="m -126.33984,87.25 c -0.10872,-1.194529 -0.17679,-2.509917 -0.30469,-3.652344 -0.36427,-3.253711 -0.80837,-6.297957 -1.3457,-9.146484 -0.53734,-2.848527 -1.16807,-5.501544 -1.9043,-7.970703 -0.73623,-2.469159 -1.57811,-4.753534 -2.53906,-6.869141 -0.96095,-2.115607 -2.04242,-4.061737 -3.25391,-5.849609 -1.21149,-1.787873 -2.55315,-3.418343 -4.04102,-4.904297 -1.48786,-1.485954 -3.1201,-2.827258 -4.91015,-4.03711 -1.79005,-1.209851 -3.73935,-2.28848 -5.85742,-3.248046 -2.11807,-0.959567 -4.40505,-1.800059 -6.87696,-2.535157 -2.47191,-0.735097 -5.12889,-1.363946 -7.98047,-1.90039 -2.85157,-0.536445 -5.89918,-0.980141 -9.15625,-1.34375 -3.25706,-0.363609 -6.72177,-0.646692 -10.41015,-0.863281 -0.39519,-0.02321 -0.93368,-0.0096 -1.33399,-0.03125 V 87.25 Z"
         id="path1101"
         transform="matrix(0.32397958,0,0,0.32397958,21.961898,213.17028)"
         inkscape:connector-curvature="0" />
      <path
         style="opacity:1;fill:#2e3436;fill-opacity:1;stroke:none;stroke-width:1.01461756;stroke-linecap:round;stroke-linejoin:miter;stroke-miterlimit:4;stroke-dasharray:none;stroke-opacity:1"
         d="m -125.17969,148.5 h 0.17578 V 87.25 h -1.33593 c 0.20091,2.207573 0.41972,4.359045 0.56054,6.75 0.43404,7.36943 0.59961,15.62667 0.59961,24.875 z"
         id="path1109"
         transform="matrix(0.32397958,0,0,0.32397958,21.961898,213.17028)"
         inkscape:connector-curvature="0" />
      <path
         style="opacity:1;fill:#2e3436;fill-opacity:1;stroke:none;stroke-width:1.01461756;stroke-linecap:round;stroke-linejoin:miter;stroke-miterlimit:4;stroke-dasharray:none;stroke-opacity:1"
         d="m -125.17969,148.5 v -29.625 c 0,-9.24833 -0.16557,-17.50557 -0.59961,-24.875 -0.14082,-2.390955 -0.35963,-4.542427 -0.56054,-6.75 h -59.91407 v 61.25 z"
         id="rect1059"
         transform="matrix(0.32397958,0,0,0.32397958,21.961898,213.17028)"
         inkscape:connector-curvature="0" />
      <path
         style="opacity:1;fill:#eaeaea;fill-opacity:1;stroke:none;stroke-width:1.01461756;stroke-linecap:round;stroke-linejoin:miter;stroke-miterlimit:4;stroke-dasharray:none;stroke-opacity:1"
         d="m -368.66797,87.25 c -0.20091,2.207573 -0.41973,4.359045 -0.56055,6.75 -0.43403,7.36943 -0.5996,15.62667 -0.5996,24.875 V 148.5 h 61.07421 V 87.25 Z"
         id="rect1061"
         transform="matrix(0.32397958,0,0,0.32397958,21.961898,213.17028)"
         inkscape:connector-curvature="0" />
      <rect
         style="opacity:1;fill:#2e3436;fill-opacity:1;stroke:none;stroke-width:0.32871535;stroke-linecap:round;stroke-linejoin:miter;stroke-miterlimit:4;stroke-dasharray:none;stroke-opacity:1"
         id="rect1063"
         width="19.84375"
         height="19.84375"
         x="-78.068245"
         y="241.4375" />
      <rect
         y="241.43748"
         x="-58.224499"
         height="19.84375"
         width="19.84375"
         id="rect1065"
         style="opacity:1;fill:#eaeaea;fill-opacity:1;stroke:none;stroke-width:0.32871535;stroke-linecap:round;stroke-linejoin:miter;stroke-miterlimit:4;stroke-dasharray:none;stroke-opacity:1" />
      <path
         style="opacity:1;fill:#2e3436;fill-opacity:1;stroke:none;stroke-width:1.01461756;stroke-linecap:round;stroke-linejoin:miter;stroke-miterlimit:4;stroke-dasharray:none;stroke-opacity:1"
         d="m -369.82812,148.5 v 29.625 c 0,9.24829 0.16557,17.5056 0.5996,24.875 0.14082,2.39095 0.35964,4.54243 0.56055,6.75 h 59.91406 V 148.5 Z"
         id="rect1067"
         transform="matrix(0.32397958,0,0,0.32397958,21.961898,213.17028)"
         inkscape:connector-curvature="0" />
      <rect
         style="opacity:1;fill:#eaeaea;fill-opacity:1;stroke:none;stroke-width:0.32871535;stroke-linecap:round;stroke-linejoin:miter;stroke-miterlimit:4;stroke-dasharray:none;stroke-opacity:1"
         id="rect1069"
         width="19.84375"
         height="19.84375"
         x="-78.068245"
         y="261.28122" />
      <rect
         style="opacity:1;fill:#2e3436;fill-opacity:1;stroke:none;stroke-width:0.32871535;stroke-linecap:round;stroke-linejoin:miter;stroke-miterlimit:4;stroke-dasharray:none;stroke-opacity:1"
         id="rect1071"
         width="19.84375"
         height="19.84375"
         x="-58.224499"
         y="261.28122" />
      <path
         style="opacity:1;fill:#eaeaea;fill-opacity:1;stroke:none;stroke-width:1.01461756;stroke-linecap:round;stroke-linejoin:miter;stroke-miterlimit:4;stroke-dasharray:none;stroke-opacity:1"
         d="m -126.33984,209.75 c 0.20091,-2.20757 0.41972,-4.35905 0.56054,-6.75 0.43404,-7.3694 0.59961,-15.62671 0.59961,-24.875 V 148.5 h -61.07422 v 61.25 z"
         id="rect1073"
         transform="matrix(0.32397958,0,0,0.32397958,21.961898,213.17028)"
         inkscape:connector-curvature="0" />
      <path
         style="opacity:1;fill:#2e3436;fill-opacity:1;stroke:none;stroke-width:1.01461756;stroke-linecap:round;stroke-linejoin:miter;stroke-miterlimit:4;stroke-dasharray:none;stroke-opacity:1"
         d="m -186.25391,262.10156 c 0.40031,-0.0217 0.9388,-0.008 1.33399,-0.0312 3.68838,-0.21659 7.15309,-0.49966 10.41015,-0.86328 3.25707,-0.36361 6.30468,-0.8073 9.15625,-1.34375 2.85158,-0.53645 5.50856,-1.16529 7.98047,-1.90039 2.47191,-0.7351 4.75889,-1.57558 6.87696,-2.53516 2.11807,-0.95957 4.06737,-2.03819 5.85742,-3.24804 1.79005,-1.20986 3.42229,-2.55115 4.91015,-4.03711 1.48787,-1.48596 2.82953,-3.11642 4.04102,-4.9043 1.21149,-1.78787 2.29296,-3.734 3.25391,-5.84961 0.96095,-2.11561 1.80283,-4.40193 2.53906,-6.87109 0.73623,-2.46916 1.36696,-5.12023 1.9043,-7.96875 0.53733,-2.84853 0.98143,-5.89278 1.3457,-9.14649 0.1279,-1.14242 0.19597,-2.45781 0.30469,-3.65234 h -59.91407 z"
         id="rect1075"
         transform="matrix(0.32397958,0,0,0.32397958,21.961898,213.17028)"
         inkscape:connector-curvature="0" />
      <path
         style="opacity:1;fill:#eaeaea;fill-opacity:1;stroke:none;stroke-width:1.01461756;stroke-linecap:round;stroke-linejoin:miter;stroke-miterlimit:4;stroke-dasharray:none;stroke-opacity:1"
         d="m -368.66797,209.75 c 0.10871,1.19453 0.17679,2.50992 0.30469,3.65234 0.36426,3.25371 0.80837,6.29796 1.3457,9.14649 0.53734,2.84852 1.16807,5.49959 1.9043,7.96875 0.73623,2.46916 1.57811,4.75548 2.53906,6.87109 0.96095,2.11561 2.04046,4.06174 3.25195,5.84961 1.2115,1.78788 2.55511,3.41834 4.04297,4.9043 1.48786,1.48596 3.12011,2.82725 4.91016,4.03711 1.79005,1.20985 3.7374,2.28847 5.85547,3.24804 2.11807,0.95958 4.40699,1.80006 6.8789,2.53516 2.47192,0.7351 5.12694,1.36394 7.97852,1.90039 2.85158,0.53645 5.89918,0.98014 9.15625,1.34375 3.25707,0.36362 6.72373,0.64669 10.41211,0.86328 0.39522,0.0232 0.93365,0.01 1.33398,0.0312 V 209.75 Z"
         id="rect1077"
         transform="matrix(0.32397958,0,0,0.32397958,21.961898,213.17028)"
         inkscape:connector-curvature="0" />
      <path
         style="opacity:1;fill:#2e3436;fill-opacity:1;stroke:none;stroke-width:1.01461756;stroke-linecap:round;stroke-linejoin:miter;stroke-miterlimit:4;stroke-dasharray:none;stroke-opacity:1"
         d="m -308.75391,262.10156 c 7.07193,0.38306 14.80345,0.56836 23.56446,0.56836 h 37.68554 V 209.75 h -61.25 z"
         id="rect1079"
         transform="matrix(0.32397958,0,0,0.32397958,21.961898,213.17028)"
         inkscape:connector-curvature="0" />
      <path
         style="opacity:1;fill:#eaeaea;fill-opacity:1;stroke:none;stroke-width:1.01461756;stroke-linecap:round;stroke-linejoin:miter;stroke-miterlimit:4;stroke-dasharray:none;stroke-opacity:1"
         d="m -247.50391,262.66992 h 37.6836 c 8.76105,0 16.49446,-0.1853 23.5664,-0.56836 V 209.75 h -61.25 z"
         id="rect1081"
         transform="matrix(0.32397958,0,0,0.32397958,21.961898,213.17028)"
         inkscape:connector-curvature="0" />
      <path
         transform="matrix(0.32397958,0,0,0.32397958,21.961898,213.17028)"
         id="path1113"
         d="m -125.17969,148.5 v -29.625 c 0,-9.24833 -0.16557,-17.50557 -0.59961,-24.875 -0.14082,-2.390955 -0.35963,-4.542427 -0.56054,-6.75 h -59.91407 v 61.25 z"
         style="opacity:1;fill:#2e3436;fill-opacity:1;stroke:none;stroke-width:1.01461756;stroke-linecap:round;stroke-linejoin:miter;stroke-miterlimit:4;stroke-dasharray:none;stroke-opacity:1"
         inkscape:connector-curvature="0" />
      <path
         transform="matrix(0.32397958,0,0,0.32397958,21.961898,213.17028)"
         id="path1125"
         d="m -186.25391,262.10156 c 0.40031,-0.0217 0.9388,-0.008 1.33399,-0.0312 3.68838,-0.21659 7.15309,-0.49966 10.41015,-0.86328 3.25707,-0.36361 6.30468,-0.8073 9.15625,-1.34375 2.85158,-0.53645 5.50856,-1.16529 7.98047,-1.90039 2.47191,-0.7351 4.75889,-1.57558 6.87696,-2.53516 2.11807,-0.95957 4.06737,-2.03819 5.85742,-3.24804 1.79005,-1.20986 3.42229,-2.55115 4.91015,-4.03711 1.48787,-1.48596 2.82953,-3.11642 4.04102,-4.9043 1.21149,-1.78787 2.29296,-3.734 3.25391,-5.84961 0.96095,-2.11561 1.80283,-4.40193 2.53906,-6.87109 0.73623,-2.46916 1.36696,-5.12023 1.9043,-7.96875 0.53733,-2.84853 0.98143,-5.89278 1.3457,-9.14649 0.1279,-1.14242 0.19597,-2.45781 0.30469,-3.65234 h -59.91407 z"
         style="opacity:1;fill:#2e3436;fill-opacity:1;stroke:none;stroke-width:1.01461756;stroke-linecap:round;stroke-linejoin:miter;stroke-miterlimit:4;stroke-dasharray:none;stroke-opacity:1"
         inkscape:connector-curvature="0" />
    </g>
    <path
       sodipodi:nodetypes="sssssssss"
       inkscape:connector-curvature="0"
       id="path1068"
       d="M 361.9375,-212 C 507.2348,-212 528,-191.28677 528,-46.125 V 70.125 C 528,215.28618 507.2348,236 361.9375,236 H 214.0625 C 68.7652,236 48,215.28618 48,70.125 V -46.125 C 48,-191.28677 68.7652,-212 214.0625,-212 Z"
       style="display:inline;opacity:0.4;fill:none;fill-opacity:1;stroke:url(#linearGradient1108);stroke-width:8;stroke-linecap:round;stroke-linejoin:round;stroke-miterlimit:4;stroke-dasharray:none;stroke-dashoffset:0;stroke-opacity:1;enable-background:new"
       clip-path="url(#clipPath1082-3-361)"
       transform="matrix(0.1348539,0,0,0.1348539,-4.9714768,261.02686)" />
    <path
       style="display:inline;opacity:0.2;fill:#ffffff;fill-opacity:1;stroke:none;stroke-width:0.53941554;stroke-linecap:round;stroke-linejoin:round;stroke-miterlimit:4;stroke-dasharray:none;stroke-dashoffset:0;stroke-opacity:1;enable-background:new"
       d="m 33.866669,232.17708 v 60.41455 h 9.970761 c 19.593905,0 22.394175,-2.79334 22.394175,-22.36889 v -15.67677 c 0,-19.57563 -2.80027,-22.36889 -22.394175,-22.36889 z"
       id="path1099"
       inkscape:connector-curvature="0" />
    <path
       style="display:inline;opacity:0.25;fill:#ffffff;fill-opacity:1;stroke:none;stroke-width:0.53941554;stroke-linecap:round;stroke-linejoin:round;stroke-miterlimit:4;stroke-dasharray:none;stroke-dashoffset:0;stroke-opacity:1;enable-background:new"
       d="m 23.8125,292.84604 c -19.5939079,0 -22.3941759,-2.79326 -22.3941759,-22.36889 v -7.83838 H 66.148195 v 7.83838 c 0,19.57563 -2.800268,22.36889 -22.394175,22.36889 z"
       id="path1107"
       inkscape:connector-curvature="0" />
    <path
       clip-path="url(#b)"
       d="M 0,37 V 11 l 17,13 z"
       id="path951-3"
       inkscape:connector-curvature="0"
       transform="matrix(0.26970779,0,0,0.26970779,3.67534,226.78896)"
       style="fill:#fbbc05" />
    <path
       clip-path="url(#b)"
       d="M 0,11 17,24 24,17.9 48,14 V 0 H 0 Z"
       id="path953"
       inkscape:connector-curvature="0"
       transform="matrix(0.26970779,0,0,0.26970779,3.67534,226.78896)"
       style="fill:#ea4335" />
    <path
       clip-path="url(#b)"
       d="M 0,37 30,14 37.9,15 48,0 V 48 H 0 Z"
       id="path955"
       inkscape:connector-curvature="0"
       transform="matrix(0.26970779,0,0,0.26970779,3.67534,226.78896)"
       style="fill:#34a853" />
    <path
       clip-path="url(#b)"
       d="M 48,48 17,24 13,21 48,11 Z"
       id="path957"
       inkscape:connector-curvature="0"
       transform="matrix(0.26970779,0,0,0.26970779,3.67534,226.78896)"
       style="fill:#4285f4" />
    <path
       inkscape:connector-curvature="0"
       id="path1001"
       style="fill:#4f4f4f;stroke-width:0.21261151"
       d="m 40.780023,248.66629 c 0.06686,0.0334 0.143369,0.0583 0.203613,0.10406 0.115962,0.089 0.22891,0.18408 0.332822,0.28659 0.114153,0.11246 0.232222,0.17621 0.398784,0.21045 0.400288,0.0811 0.636707,0.17097 1.010791,0.3279 0.831904,0.35011 1.38249,1.00961 1.774947,1.80287 0.348183,0.70516 0.354507,1.46956 0.325894,2.23751 -0.05903,1.5844 -1.002891,2.7411 -1.507695,3.96033 H 43.18846 c 0.196982,0 0.373308,0.13246 0.373308,0.29706 v 0.59644 c 0,0.16462 -0.176326,0.38202 -0.373308,0.38202 h 0.280623 c 0.257523,0 0.517908,0.19883 0.517908,0.44589 v 0.80923 c 0,0.24705 -0.260385,0.4459 -0.517908,0.4459 h -4.105969 c -0.257522,0 -0.478799,-0.19885 -0.478799,-0.4459 v -0.80923 c 0,-0.24706 0.221277,-0.44589 0.478799,-0.44589 h 0.28061 c -0.196981,0 -0.334187,-0.2174 -0.334187,-0.38202 v -0.59644 c 0,-0.1646 0.137206,-0.29706 0.334187,-0.29706 h -0.05483 c -0.127706,-0.11848 -0.122117,-0.33071 -0.235969,-0.45186 -0.515948,-0.54591 -0.608114,-1.32072 -0.245776,-1.98421 0.177103,-0.32385 0.426192,-0.58669 0.713532,-0.81142 0.323485,-0.25295 0.657812,-0.49138 0.984013,-0.74051 0.09337,-0.0715 0.08163,-0.15233 0.205723,-0.26426 -0.307521,0.0649 -0.458733,0.1452 -0.706316,0.15769 -0.427397,0.0208 -0.79606,0.20537 -1.138218,0.45421 -0.132225,0.0961 -0.285836,0.17324 -0.44065,0.22681 -0.201198,0.0691 -0.301197,0.0196 -0.421071,-0.16222 -0.03162,-0.0482 -0.05059,-0.10328 -0.08072,-0.1664 -0.238246,0.006 -0.369267,-0.17678 -0.434625,-0.39705 -0.02229,-0.0753 -0.06024,-0.14496 -0.08765,-0.21819 -0.185235,-0.49053 -0.09006,-0.92483 0.26475,-1.30345 0.07921,-0.0866 0.17349,-0.15865 0.256318,-0.2417 0.276498,-0.27622 0.554502,-0.55096 0.824071,-0.83375 0.195778,-0.20568 0.371977,-0.42952 0.569561,-0.63359 0.09789,-0.10056 0.180417,-0.20123 0.225898,-0.33606 0.06867,-0.20205 0.197583,-0.35762 0.385228,-0.46275 0.06657,-0.0376 0.300012,-0.0806 0.348203,-0.11163 0.07741,-0.22551 -0.10602,-0.50762 0.204814,-0.64937 z" />
    <path
       d="m 9.9160454,264.54129 c -0.06686,0.0334 -0.143369,0.0583 -0.203613,0.10406 -0.115962,0.089 -0.22891,0.18408 -0.332822,0.28659 -0.114153,0.11246 -0.232222,0.17621 -0.398784,0.21045 -0.4002883,0.0811 -0.6367073,0.17097 -1.0107913,0.3279 -0.831904,0.35011 -1.38249,1.00961 -1.774947,1.80287 -0.348183,0.70516 -0.354507,1.46956 -0.325894,2.23751 0.05903,1.5844 1.002891,2.7411 1.507695,3.96033 h 0.130719 c -0.196982,0 -0.373308,0.13246 -0.373308,0.29706 v 0.59644 c 0,0.16462 0.176326,0.38202 0.373308,0.38202 h -0.280623 c -0.257523,0 -0.517908,0.19883 -0.517908,0.44589 v 0.80923 c 0,0.24705 0.260385,0.4459 0.517908,0.4459 h 4.1059689 c 0.257522,0 0.478799,-0.19885 0.478799,-0.4459 v -0.80923 c 0,-0.24706 -0.221277,-0.44589 -0.478799,-0.44589 h -0.28061 c 0.196981,0 0.334187,-0.2174 0.334187,-0.38202 v -0.59644 c 0,-0.1646 -0.137206,-0.29706 -0.334187,-0.29706 h 0.05483 c 0.127706,-0.11848 0.122117,-0.33071 0.235969,-0.45186 0.515948,-0.54591 0.608114,-1.32072 0.245776,-1.98421 -0.177103,-0.32385 -0.426192,-0.58669 -0.713532,-0.81142 -0.323485,-0.25295 -0.657812,-0.49138 -0.9840126,-0.74051 -0.09337,-0.0715 -0.08163,-0.15233 -0.205723,-0.26426 0.307521,0.0649 0.4587326,0.1452 0.7063156,0.15769 0.427397,0.0208 0.79606,0.20537 1.138218,0.45421 0.132225,0.0961 0.285836,0.17324 0.44065,0.22681 0.201198,0.0691 0.301197,0.0196 0.421071,-0.16222 0.03162,-0.0482 0.05059,-0.10328 0.08072,-0.1664 0.238246,0.006 0.369267,-0.17678 0.434625,-0.39705 0.02229,-0.0753 0.06024,-0.14496 0.08765,-0.21819 0.185235,-0.49053 0.09006,-0.92483 -0.26475,-1.30345 -0.07921,-0.0866 -0.17349,-0.15865 -0.256318,-0.2417 -0.276498,-0.27622 -0.554502,-0.55096 -0.824071,-0.83375 -0.195778,-0.20568 -0.371977,-0.42952 -0.569561,-0.63359 -0.09789,-0.10056 -0.180417,-0.20123 -0.225898,-0.33606 -0.06867,-0.20205 -0.197583,-0.35762 -0.385228,-0.46275 -0.06657,-0.0376 -0.300012,-0.0806 -0.348203,-0.11163 -0.07741,-0.22551 0.10602,-0.50762 -0.2048136,-0.64937 z"
       style="fill:#eaeaea;fill-opacity:1;stroke-width:0.21261151"
       id="path923"
       inkscape:connector-curvature="0" />
    <g
       id="g930"
       transform="translate(-0.5834212,-0.3227884)">
      <path
         inkscape:connector-curvature="0"
         sodipodi:nodetypes="csscs"
         id="path2226"
         d="m 61.210267,275.13318 c 0,0.67872 -1.108702,1.22957 -2.474783,1.22957 -1.366081,0 -2.474784,-0.55085 -2.474784,-1.22957 0,-2.47623 1.569339,-1.06255 2.474784,-5.82392 0.837671,4.77355 2.474783,3.34171 2.474783,5.82392 z"
         style="fill:#4f4f4f;fill-opacity:1;fill-rule:evenodd;stroke:none;stroke-width:0.35277647;stroke-miterlimit:4;stroke-opacity:1" />
      <path
         inkscape:connector-curvature="0"
         id="path2254"
         d="m 59.442299,270.00916 c 0,0.39218 -0.318161,0.71047 -0.71018,0.71047 -0.392019,0 -0.71018,-0.31829 -0.71018,-0.71047 0,-0.39218 0.318161,-0.71047 0.71018,-0.71047 0.392019,0 0.71018,0.31829 0.71018,0.71047 z"
         style="fill:#4f4f4f;fill-opacity:1;fill-rule:evenodd;stroke:none;stroke-width:0.35277629;stroke-miterlimit:4;stroke-opacity:1" />
      <path
         inkscape:connector-curvature="0"
         id="path1360"
         d="m 60.854167,267.89583 c 0,1.16882 -0.948606,2.11743 -2.117426,2.11743 -1.168819,0 -2.117426,-0.94861 -2.117426,-2.11743 0,-1.16881 0.948607,-2.11742 2.117426,-2.11742 1.16882,0 2.117426,0.94861 2.117426,2.11742 z"
         style="fill:#4f4f4f;fill-opacity:1;fill-rule:evenodd;stroke:none;stroke-width:0.35277653;stroke-miterlimit:4;stroke-opacity:1" />
    </g>
    <g
       transform="translate(-33.072917,-3.2382813e-6)"
       id="g938">
      <path
         style="fill:#4f4f4f;fill-opacity:1;fill-rule:evenodd;stroke:none;stroke-width:0.35277647;stroke-miterlimit:4;stroke-opacity:1"
         d="m 61.210267,275.13318 c 0,0.67872 -1.108702,1.22957 -2.474783,1.22957 -1.366081,0 -2.474784,-0.55085 -2.474784,-1.22957 0,-2.47623 1.569339,-1.06255 2.474784,-5.82392 0.837671,4.77355 2.474783,3.34171 2.474783,5.82392 z"
         id="path932"
         sodipodi:nodetypes="csscs"
         inkscape:connector-curvature="0" />
      <path
         style="fill:#4f4f4f;fill-opacity:1;fill-rule:evenodd;stroke:none;stroke-width:0.35277629;stroke-miterlimit:4;stroke-opacity:1"
         d="m 59.442299,270.00916 c 0,0.39218 -0.318161,0.71047 -0.71018,0.71047 -0.392019,0 -0.71018,-0.31829 -0.71018,-0.71047 0,-0.39218 0.318161,-0.71047 0.71018,-0.71047 0.392019,0 0.71018,0.31829 0.71018,0.71047 z"
         id="path934"
         inkscape:connector-curvature="0" />
      <path
         style="fill:#4f4f4f;fill-opacity:1;fill-rule:evenodd;stroke:none;stroke-width:0.35277653;stroke-miterlimit:4;stroke-opacity:1"
         d="m 60.854167,267.89583 c 0,1.16882 -0.948606,2.11743 -2.117426,2.11743 -1.168819,0 -2.117426,-0.94861 -2.117426,-2.11743 0,-1.16881 0.948607,-2.11742 2.117426,-2.11742 1.16882,0 2.117426,0.94861 2.117426,2.11742 z"
         id="path936"
         inkscape:connector-curvature="0" />
    </g>
    <g
       id="g8"
       transform="matrix(0.01214919,0,0,0.01214919,35.672167,233.91727)"
       style="fill:#eaeaea;fill-opacity:1">
      <g
         transform="matrix(0.1,0,0,-0.1,0,511)"
         id="g6"
         style="fill:#eaeaea;fill-opacity:1">
        <path
           d="M 4568.1,3672.5 C 4347,3597.3 4154.6,3420.4 4044,3192.6 3856,2810 3937.8,2407.5 4269.6,2095.7 c 84,-79.6 199,-161.4 254.3,-185.8 l 103.9,-42 v -132.7 c 0,-188 -55.3,-418 -137.1,-586 -225.6,-460 -858,-703.2 -1444.1,-552.9 -384.8,97.3 -838.1,418 -1167.6,822.7 l -84,103.9 33.2,115 c 66.3,216.7 37.6,508.6 -70.8,716.5 -64.1,126.1 -225.6,267.6 -398.1,349.4 -126.1,59.7 -179.1,70.8 -358.3,77.4 -174.7,6.6 -232.2,0 -338.3,-39.8 C 401.7,2642 174,2356.7 112,2049.3 34.6,1649 339.8,1175.8 757.8,1051.9 c 148.2,-44.2 243.3,-44.2 409.1,0 l 132.7,33.2 130.5,-139.3 c 356,-382.6 654.6,-816 884.6,-1280.4 269.8,-544 409.1,-1061.5 418,-1550.2 l 4.4,-249.9 -126.1,-13.3 c -172.5,-17.7 -258.7,-75.2 -331.7,-216.7 -112.8,-216.7 -70.8,-479.9 97.3,-605.9 232.2,-174.7 811.6,-351.6 1455.1,-444.5 886.8,-130.5 2030.1,-97.3 3007.6,84 634.7,117.2 908.9,214.5 1043.8,362.7 185.8,207.9 161.4,517.5 -61.9,745.3 -121.6,126.1 -212.3,165.9 -380.4,165.9 h -128.3 l 17.7,161.4 c 103.9,906.7 524.1,1924 1103.5,2669.2 238.9,307.4 230,298.5 296.3,269.8 260.9,-119.4 720.9,13.3 962,276.4 148.3,161.4 205.8,318.4 208,559.4 0,333.9 -110.6,572.8 -342.8,732 -249.9,174.7 -610.4,225.6 -871.3,128.3 -174.7,-64.1 -380.4,-260.9 -477.7,-455.6 -68.6,-137.1 -75.2,-168.1 -75.2,-349.4 0,-108.4 8.9,-238.8 17.7,-287.5 15.5,-79.6 8.9,-103.9 -66.3,-232.2 C 7971.6,1220 7564.7,813.1 7348,678.2 6830.5,359.7 6321.9,348.7 5897.3,651.7 c -389.2,278.6 -625.8,709.9 -628,1138.9 v 143.7 l 119.4,70.8 c 400.3,241 537.4,743 329.5,1207.5 -66.3,146 -234.4,314 -393.6,391.4 -236.8,115 -544.2,143.7 -756.5,68.5 z m 2003.6,-4752.4 c 103.9,-77.4 143.7,-152.6 143.7,-276.4 0,-139.3 -57.5,-234.4 -172.5,-289.7 -298.5,-141.5 -586,154.8 -435.7,448.9 86.4,165.8 316.4,225.6 464.5,117.2 z m -2616.1,-68.5 c 103.9,-46.4 185.8,-185.8 185.8,-309.6 0,-249.9 -307.4,-420.2 -510.8,-283.1 -196.8,132.7 -230,356 -79.6,521.9 103.8,112.8 252,139.3 404.6,70.8 z m 1309.2,-115 c 194.6,-95.1 274.2,-318.4 183.5,-517.5 -77.4,-172.5 -225.6,-249.9 -433.4,-227.8 -185.8,22.1 -320.7,190.2 -320.7,402.5 0,291.9 300.8,473.2 570.6,342.8 z"
           id="path4"
           inkscape:connector-curvature="0"
           style="fill:#eaeaea;fill-opacity:1" />
      </g>
    </g>
  </g>
</svg>
