<svg xmlns="http://www.w3.org/2000/svg" style="isolation:isolate" width="256" height="256"><defs><clipPath id="a"><path d="M0 0h256v256H0z"/></clipPath></defs><switch><g clip-path="url(#a)"><defs><filter id="b" width="270.648" height="254.338" x="-7.32" y="2.95" filterUnits="userSpaceOnUse"><feGaussianBlur xmlns="http://www.w3.org/2000/svg" in="SourceGraphic" stdDeviation="4.294"/><feOffset xmlns="http://www.w3.org/2000/svg" dy="4" result="pf_100_offsetBlur"/><feFlood xmlns="http://www.w3.org/2000/svg" flood-opacity=".4"/><feComposite xmlns="http://www.w3.org/2000/svg" in2="pf_100_offsetBlur" operator="in" result="pf_100_dropShadow"/><feBlend xmlns="http://www.w3.org/2000/svg" in="SourceGraphic" in2="pf_100_dropShadow"/></filter></defs><g filter="url(#b)"><linearGradient id="c" x1=".5" x2=".5" y1="-.036" y2="1.036" gradientTransform="matrix(244.648 0 0 228.338 5.676 11.947)" gradientUnits="userSpaceOnUse"><stop offset="0%" stop-color="#4d4d4d"/><stop offset="98.696%" stop-color="#6c6c6c"/></linearGradient><path fill="url(#c)" d="M165.685 11.947c74.055 0 84.639 10.557 84.639 84.544v59.251c0 73.986-10.584 84.543-84.639 84.543h-75.37c-74.055 0-84.639-10.557-84.639-84.543V96.491c0-73.987 10.584-84.544 84.639-84.544h75.37z"/></g><path fill="#FFF" d="M249.643 83.58L44.234 236.61c11.562 2.311 26.426 3.019 45.523 3.019h75.37c74.055 0 84.639-10.558 84.639-84.544V95.834c0-4.303-.041-8.37-.123-12.254z" opacity=".1"/><path fill="#FFF" d="M128 51.001c-.24.003-.479.017-.718.043C86.283 51.436 53 84.91 53 126c0 41.333 33.667 75 75 75 41.08 0 74.548-33.267 74.956-74.253.027-.248.042-.497.044-.747a7.497 7.497 0 0 0-7.5-7.5 7.497 7.497 0 0 0-7.5 7.5c0 33.226-26.774 60-60 60s-60-26.774-60-60 26.774-60 60-60a7.497 7.497 0 0 0 7.5-7.5A7.497 7.497 0 0 0 128 51v.001zm0 30.001a7.479 7.479 0 0 0-.718.026C102.85 81.418 83 101.477 83 125.999c0 24.764 20.236 45 45 45 24.512 0 44.55-19.834 44.956-44.253.027-.248.042-.497.044-.747a7.497 7.497 0 0 0-7.5-7.5 7.497 7.497 0 0 0-7.5 7.5c0 16.657-13.343 30-30 30s-30-13.343-30-30 13.343-30 30-30a7.5 7.5 0 0 0 0-15v.003zm0 30c-8.284 0-15 6.715-15 15 0 8.284 6.716 14.999 15 14.999 8.284 0 15-6.715 15-14.999 0-8.285-6.716-15-15-15z"/><g opacity=".4"><linearGradient id="d" x1=".517" x2=".517" y2="1"><stop offset="0%" stop-color="#fff"/><stop offset="12.5%" stop-opacity=".098" stop-color="#fff"/><stop offset="92.5%" stop-opacity=".098"/><stop offset="100%" stop-opacity=".498"/></linearGradient><path fill="none" stroke="url(#d)" stroke-linecap="round" stroke-linejoin="round" stroke-width="4.077" d="M165.685 11.947c74.055 0 84.639 10.557 84.639 84.544v59.251c0 73.986-10.584 84.543-84.639 84.543h-75.37c-74.055 0-84.639-10.557-84.639-84.543V96.491c0-73.987 10.584-84.544 84.639-84.544h75.37z" vector-effect="non-scaling-stroke"/></g></g></switch> </svg>