<svg xmlns="http://www.w3.org/2000/svg" style="isolation:isolate" width="256" height="256"><defs><clipPath id="a"><path d="M0 0h256v256H0z"/></clipPath></defs><switch><g clip-path="url(#a)"><defs><filter id="b" width="270.648" height="254.338" x="-7.32" y="2.95" filterUnits="userSpaceOnUse"><feGaussianBlur xmlns="http://www.w3.org/2000/svg" in="SourceGraphic" stdDeviation="4.294"/><feOffset xmlns="http://www.w3.org/2000/svg" dy="4" result="pf_100_offsetBlur"/><feFlood xmlns="http://www.w3.org/2000/svg" flood-opacity=".4"/><feComposite xmlns="http://www.w3.org/2000/svg" in2="pf_100_offsetBlur" operator="in" result="pf_100_dropShadow"/><feBlend xmlns="http://www.w3.org/2000/svg" in="SourceGraphic" in2="pf_100_dropShadow"/></filter></defs><path fill="#F47323" d="M165.685 11.947c74.055 0 84.639 10.557 84.639 84.544v59.251c0 73.986-10.584 84.543-84.639 84.543h-75.37c-74.055 0-84.639-10.557-84.639-84.543V96.491c0-73.987 10.584-84.544 84.639-84.544h75.37z" filter="url(#b)"/><path fill="#FFF" d="M249.643 83.58L44.234 236.61c11.562 2.311 26.426 3.019 45.523 3.019h75.37c74.055 0 84.639-10.558 84.639-84.544V95.834c0-4.303-.041-8.37-.123-12.254z" opacity=".1"/><path fill="#FFF9F9" d="M128 54.5c-40.041 0-72.5 32.459-72.5 72.5a72.497 72.497 0 0 0 72.5 72.5 72.497 72.497 0 0 0 72.5-72.5c0-40.041-32.459-72.5-72.5-72.5zm25.933 18.582c.245-.002.491.008.739.016v.002c1.492.094 3.013.492 4.367 1.271 4.805 2.772 6.395 8.99 3.618 13.78-2.767 4.819-8.881 6.427-13.686 3.66-4.814-2.777-6.47-8.881-3.703-13.686 1.736-3.006 4.717-4.789 7.935-5.016.242-.017.485-.029.73-.029v.002zm-25.627 10.666c4.04 0 8.013.633 11.732 1.655a14.062 14.062 0 0 0 6.885 9.94c3.813 2.215 8.161 2.434 11.989.998 7.433 7.311 12.276 17.269 12.986 28.338l-14.25.178c-1.322-15.02-13.991-26.767-29.342-26.767-4.41 0-8.529 1.036-12.287 2.792l-6.979-12.603c5.825-2.89 12.321-4.531 19.266-4.531zm-24.191 7.363l7.362 12.295c-7.552 5.308-12.466 14.074-12.466 24.019 0 9.934 4.914 18.711 12.466 24.019l-7.362 12.381a43.637 43.637 0 0 1-18.003-25.375c3.192-2.604 5.102-6.619 5.102-11.023 0-4.435-1.915-8.307-5.102-10.897 2.723-10.526 9.203-19.544 18.003-25.419zM77.22 117.472c.245-.001.491.008.74.017v.002c1.491.094 3.012.492 4.366 1.271 4.805 2.771 6.395 8.99 3.618 13.779-2.767 4.819-8.881 6.428-13.685 3.66-4.815-2.777-6.472-8.881-3.705-13.685 1.736-3.006 4.718-4.79 7.937-5.017.241-.016.484-.029.729-.029v.002zm80.428 12.617l14.25.212c-.711 11.079-5.554 21.016-12.988 28.336-3.828-1.454-8.164-1.239-11.987.965-3.818 2.215-6.226 5.889-6.887 9.933a44.093 44.093 0 0 1-11.73 1.57c-6.945 0-13.441-1.588-19.266-4.488l6.977-12.509c3.759 1.756 7.874 2.747 12.289 2.747 15.351 0 28.02-11.771 29.342-26.766zm-3.685 31.658c.237 0 .475.013.716.03a9.999 9.999 0 0 1 7.978 5.011c2.777 4.804 1.192 10.92-3.618 13.693-4.809 2.767-10.995 1.151-13.772-3.668-2.768-4.794-1.11-10.887 3.704-13.645 1.351-.784 2.82-1.267 4.275-1.391.242-.021.479-.03.717-.03z"/><g opacity=".4"><linearGradient id="c" x1=".517" x2=".517" y2="1"><stop offset="0%" stop-color="#fff"/><stop offset="12.5%" stop-opacity=".098" stop-color="#fff"/><stop offset="92.5%" stop-opacity=".098"/><stop offset="100%" stop-opacity=".498"/></linearGradient><path fill="none" stroke="url(#c)" stroke-linecap="round" stroke-linejoin="round" stroke-width="4.077" d="M165.685 11.947c74.055 0 84.639 10.557 84.639 84.544v59.251c0 73.986-10.584 84.543-84.639 84.543h-75.37c-74.055 0-84.639-10.557-84.639-84.543V96.491c0-73.987 10.584-84.544 84.639-84.544h75.37z" vector-effect="non-scaling-stroke"/></g></g></switch> </svg>