<svg xmlns="http://www.w3.org/2000/svg" style="isolation:isolate" width="256" height="256"><defs><clipPath id="a"><path d="M0 0h256v256H0z"/></clipPath></defs><switch><g clip-path="url(#a)"><defs><filter id="b" width="270.648" height="254.338" x="-7.32" y="2.95" filterUnits="userSpaceOnUse"><feGaussianBlur xmlns="http://www.w3.org/2000/svg" in="SourceGraphic" stdDeviation="4.294"/><feOffset xmlns="http://www.w3.org/2000/svg" dy="4" result="pf_100_offsetBlur"/><feFlood xmlns="http://www.w3.org/2000/svg" flood-opacity=".4"/><feComposite xmlns="http://www.w3.org/2000/svg" in2="pf_100_offsetBlur" operator="in" result="pf_100_dropShadow"/><feBlend xmlns="http://www.w3.org/2000/svg" in="SourceGraphic" in2="pf_100_dropShadow"/></filter></defs><g filter="url(#b)"><linearGradient id="c" x1=".233" x2=".933" y1="-.071" y2=".995" gradientTransform="matrix(244.648 0 0 228.338 5.676 11.947)" gradientUnits="userSpaceOnUse"><stop offset="0%" stop-color="#e8e8e8"/><stop offset="100%" stop-color="#f5f5f5"/></linearGradient><path fill="url(#c)" d="M165.685 11.947c74.055 0 84.639 10.557 84.639 84.544v59.251c0 73.986-10.584 84.543-84.639 84.543h-75.37c-74.055 0-84.639-10.557-84.639-84.543V96.491c0-73.987 10.584-84.544 84.639-84.544h75.37z"/></g><path fill="#FFF" d="M249.643 83.58L44.234 236.61c11.562 2.311 26.426 3.019 45.523 3.019h75.37c74.055 0 84.639-10.558 84.639-84.544V95.834c0-4.303-.041-8.37-.123-12.254z" opacity=".1"/><defs><filter id="d" width="165" height="171.042" x="45.5" y="48" filterUnits="userSpaceOnUse"><feGaussianBlur xmlns="http://www.w3.org/2000/svg" stdDeviation="4.294"/></filter></defs><path fill-rule="evenodd" d="M127.999 58.001c-1.741 0-3.482.648-4.784 1.95L96.721 86.448c-2.603 2.602-2.599 6.958.004 9.56l26.494 26.497c2.603 2.603 6.961 2.606 9.564.004l26.494-26.498c2.603-2.602 2.603-6.961 0-9.563L132.783 59.95c-1.302-1.301-3.043-1.95-4.784-1.95v.001zm0 84.583c-1.741 0-3.482.649-4.784 1.95l-26.494 26.498c-2.603 2.602-2.599 6.957.004 9.559l26.494 26.498c2.603 2.602 6.961 2.606 9.564.003l26.494-26.498c2.603-2.602 2.603-6.961 0-9.563l-26.494-26.498c-1.302-1.301-3.043-1.95-4.784-1.95v.001zm72.501-9.064c0-1.74-.649-3.482-1.95-4.783l-26.498-26.495c-2.602-2.602-6.957-2.598-9.559.003l-26.498 26.495c-2.602 2.602-2.606 6.961-.003 9.563l26.497 26.495c2.602 2.602 6.961 2.602 9.563 0l26.498-26.495c1.301-1.301 1.95-3.043 1.95-4.784v.001zm-78.542 0c0-1.74-.649-3.482-1.95-4.783l-26.497-26.495c-2.603-2.602-6.958-2.598-9.56.003L57.454 128.74c-2.603 2.602-2.606 6.961-.004 9.563l26.497 26.495c2.602 2.602 6.961 2.602 9.563 0l26.498-26.495c1.301-1.301 1.95-3.043 1.95-4.783z" opacity=".4" filter="url(#d)"/><path fill="#37A6E6" d="M127.999 50.48c-1.741 0-3.482.648-4.784 1.95L96.721 78.927c-2.603 2.602-2.599 6.957.004 9.56l26.494 26.497c2.603 2.602 6.961 2.606 9.564.003l26.494-26.497c2.603-2.602 2.603-6.961 0-9.563l-26.494-26.498c-1.302-1.301-3.043-1.95-4.784-1.95v.001z"/><path fill="#5D5D5D" d="M127.999 135.063c-1.741 0-3.482.649-4.784 1.95l-26.494 26.498c-2.603 2.602-2.599 6.957.004 9.559l26.494 26.498c2.603 2.602 6.961 2.606 9.564.003l26.494-26.498c2.603-2.602 2.603-6.961 0-9.563l-26.494-26.498c-1.302-1.301-3.043-1.95-4.784-1.95v.001z"/><path fill="#FEE581" d="M200.5 125.999c0-1.74-.649-3.482-1.95-4.783l-26.498-26.495c-2.602-2.602-6.957-2.599-9.559.003l-26.498 26.495c-2.602 2.602-2.606 6.961-.003 9.563l26.497 26.495c2.602 2.602 6.961 2.602 9.563 0l26.498-26.495c1.301-1.301 1.95-3.043 1.95-4.784v.001z"/><path fill="#E97CC8" d="M121.958 125.999c0-1.74-.649-3.482-1.95-4.783L93.511 94.721c-2.603-2.602-6.958-2.599-9.56.003l-26.497 26.495c-2.603 2.602-2.606 6.961-.004 9.563l26.497 26.495c2.602 2.602 6.961 2.602 9.563 0l26.498-26.495c1.301-1.301 1.95-3.043 1.95-4.783z"/><g opacity=".4"><linearGradient id="e" x1=".517" x2=".517" y2="1"><stop offset="0%" stop-color="#fff"/><stop offset="12.5%" stop-opacity=".098" stop-color="#fff"/><stop offset="92.5%" stop-opacity=".098"/><stop offset="100%" stop-opacity=".498"/></linearGradient><path fill="none" stroke="url(#e)" stroke-linecap="round" stroke-linejoin="round" stroke-width="4.077" d="M165.685 11.947c74.055 0 84.639 10.557 84.639 84.544v59.251c0 73.986-10.584 84.543-84.639 84.543h-75.37c-74.055 0-84.639-10.557-84.639-84.543V96.491c0-73.987 10.584-84.544 84.639-84.544h75.37z" vector-effect="non-scaling-stroke"/></g></g></switch> </svg>