<svg xmlns="http://www.w3.org/2000/svg" style="isolation:isolate" width="256" height="256"><defs><filter id="a" width="270.648" height="254.338" x="-7.32" y="2.95" filterUnits="userSpaceOnUse"><feGaussianBlur xmlns="http://www.w3.org/2000/svg" in="SourceGraphic" stdDeviation="4.294"/><feOffset xmlns="http://www.w3.org/2000/svg" dy="4" result="pf_100_offsetBlur"/><feFlood xmlns="http://www.w3.org/2000/svg" flood-opacity=".4"/><feComposite xmlns="http://www.w3.org/2000/svg" in2="pf_100_offsetBlur" operator="in" result="pf_100_dropShadow"/><feBlend xmlns="http://www.w3.org/2000/svg" in="SourceGraphic" in2="pf_100_dropShadow"/></filter></defs><path fill="#2E2E2E" d="M165.685 11.947c74.055 0 84.639 10.557 84.639 84.544v59.251c0 73.986-10.584 84.543-84.639 84.543h-75.37c-74.055 0-84.639-10.557-84.639-84.543V96.491c0-73.987 10.584-84.544 84.639-84.544h75.37z" filter="url(#a)"/><path fill="#E4E4E4" d="M145.857 11.831h-35.714v26.768h35.714V11.831z"/><path fill="#A0A0A0" d="M181.572 12.212c-5.126-.161-9.98-.381-15.886-.381h-19.829v26.768h35.715V12.212zM110.143 11.831H90.314c-5.906 0-10.76.22-15.886.381v26.387h35.715V11.831z"/><path fill="#E4E4E4" d="M74.428 12.212c-2.908.091-6.342.06-9.012.217-3.688.216-7.155.499-10.412.863-3.257.364-6.305.807-9.156 1.344a79.848 79.848 0 0 0-7.133 1.701v22.262h35.713V12.212z"/><path fill="#A0A0A0" d="M38.715 16.337c-.266.075-.584.123-.846.201-2.472.735-4.761 1.576-6.879 2.535a39.619 39.619 0 0 0-5.855 3.248 33.279 33.279 0 0 0-4.91 4.037 33.261 33.261 0 0 0-4.043 4.905 39.5 39.5 0 0 0-3.252 5.847c-.208.459-.354 1.014-.551 1.489h26.336V16.337z"/><path fill="#E4E4E4" d="M217.285 16.337a79.848 79.848 0 0 0-7.133-1.701c-2.851-.537-5.899-.98-9.156-1.344a198.576 198.576 0 0 0-10.412-.863c-2.67-.157-6.104-.126-9.012-.217v26.387h35.713V16.337z"/><path fill="#A0A0A0" d="M243.621 38.599c-.197-.475-.343-1.03-.551-1.489a39.5 39.5 0 0 0-3.252-5.847 33.261 33.261 0 0 0-4.043-4.905 33.279 33.279 0 0 0-4.91-4.037 39.619 39.619 0 0 0-5.855-3.248c-2.118-.959-4.407-1.8-6.879-2.535-.262-.078-.58-.126-.846-.201v22.262h26.336z"/><path fill="#E4E4E4" d="M74.43 38.6h35.714v35.714H74.43z"/><path fill="#363636" d="M110.14 38.6h35.714v35.714H110.14z"/><path fill="#F06826" d="M38.71 38.6h35.714v35.714H38.71z"/><path fill="#E4E4E4" d="M12.379 38.599c-.713 1.715-1.412 3.448-1.988 5.382-.737 2.47-1.367 5.123-1.905 7.971-.537 2.849-.981 5.893-1.345 9.147a197.869 197.869 0 0 0-.866 10.4c-.049.833-.026 1.956-.068 2.813h32.508V38.599H12.379zM249.793 74.312c-.042-.857-.019-1.98-.068-2.813a197.869 197.869 0 0 0-.866-10.4c-.364-3.254-.808-6.298-1.345-9.147-.538-2.848-1.168-5.501-1.905-7.971-.576-1.934-1.275-3.667-1.988-5.382h-26.336v35.713h32.508zM145.86 38.6h35.714v35.714H145.86z"/><path fill="#806" d="M181.57 38.6h35.714v35.714H181.57z"/><path fill="#E4E4E4" d="M110.14 74.31h35.714v35.714H110.14z"/><path fill="#F06826" d="M145.86 74.31h35.714v35.714H145.86z"/><path fill="#A0A0A0" d="M74.43 74.31h35.714v35.714H74.43z"/><path fill="#E4E4E4" d="M38.71 74.31h35.714v35.714H38.71z"/><path fill="#A0A0A0" d="M6.207 74.312a440.44 440.44 0 0 0-.531 22.062v13.652h33.039V74.312H6.207z"/><path fill="#E4E4E4" d="M181.57 74.31h35.714v35.714H181.57z"/><path fill="#A0A0A0" d="M250.324 110.026V96.374c0-8.203-.199-15.347-.531-22.062h-32.508v35.714h33.039z"/><path fill="#E4E4E4" d="M74.43 110.03h35.714v35.714H74.43z"/><path fill="#A0A0A0" d="M110.14 110.03h35.714v35.714H110.14z"/><path fill="#806" d="M38.71 110.03h35.714v35.714H38.71z"/><path fill="#E4E4E4" d="M5.676 110.026v35.713h33.039v-35.713H5.676zM250.324 145.739v-35.713h-33.039v35.713h33.039zM145.86 110.03h35.714v35.714H145.86z"/><path fill="#363636" d="M181.57 110.03h35.714v35.714H181.57z"/><path fill="#E4E4E4" d="M110.14 145.74h35.714v35.714H110.14z"/><path fill="#363636" d="M145.86 145.74h35.714v35.714H145.86z"/><path fill="#F06826" d="M74.43 145.74h35.714v35.714H74.43z"/><path fill="#E4E4E4" d="M38.71 145.74h35.714v35.714H38.71z"/><path fill="#A0A0A0" d="M5.676 145.739v9.887c0 9.248.165 17.506.599 24.875.02.338.059.619.08.953h32.36v-35.715H5.676z"/><path fill="#E4E4E4" d="M181.57 145.74h35.714v35.714H181.57z"/><path fill="#A0A0A0" d="M249.645 181.454c.021-.334.06-.615.08-.953.434-7.369.599-15.627.599-24.875v-9.887h-33.039v35.715h32.36z"/><path fill="#E4E4E4" d="M74.43 181.46h35.714v35.714H74.43z"/><path fill="#806" d="M110.14 181.46h35.714v35.714H110.14z"/><path fill="#A0A0A0" d="M38.71 181.46h35.714v35.714H38.71z"/><path fill="#E4E4E4" d="M6.355 181.456c.209 3.309.455 6.49.786 9.445.364 3.254.808 6.298 1.345 9.147.538 2.848 1.168 5.501 1.905 7.971.736 2.469 1.578 4.755 2.539 6.871.374.824.856 1.505 1.267 2.279h24.518v-35.713H6.355zM241.803 217.169c.411-.774.893-1.455 1.267-2.279.961-2.116 1.803-4.402 2.539-6.871.737-2.47 1.367-5.123 1.905-7.971.537-2.849.981-5.893 1.345-9.147.331-2.955.577-6.136.786-9.445h-32.36v35.713h24.518zM145.86 181.46h35.714v35.714H145.86z"/><path fill="#A0A0A0" d="M181.57 181.46h35.714v35.714H181.57z"/><path fill="#E4E4E4" d="M110.143 240.169h35.714v-23h-35.714v23z"/><path fill="#A0A0A0" d="M145.857 240.169h19.829c5.906 0 10.76-.22 15.886-.381v-22.619h-35.715v23zM74.428 239.788c5.126.161 9.98.381 15.886.381h19.829v-23H74.428v22.619z"/><path fill="#E4E4E4" d="M38.715 235.663a79.848 79.848 0 0 0 7.133 1.701c2.851.537 5.899.98 9.156 1.344 3.257.364 6.724.647 10.412.863 2.67.157 6.104.126 9.012.217v-22.619H38.715v18.494z"/><path fill="#A0A0A0" d="M14.197 217.169c.644 1.211 1.245 2.477 1.985 3.568a33.261 33.261 0 0 0 4.043 4.905 33.279 33.279 0 0 0 4.91 4.037 39.619 39.619 0 0 0 5.855 3.248c2.118.959 4.407 1.8 6.879 2.535.262.078.58.126.846.201v-18.494H14.197z"/><path fill="#E4E4E4" d="M181.572 239.788c2.908-.091 6.342-.06 9.012-.217 3.688-.216 7.155-.499 10.412-.863 3.257-.364 6.305-.807 9.156-1.344a79.848 79.848 0 0 0 7.133-1.701v-18.494h-35.713v22.619z"/><path fill="#A0A0A0" d="M217.285 235.663c.266-.075.584-.123.846-.201 2.472-.735 4.761-1.576 6.879-2.535a39.619 39.619 0 0 0 5.855-3.248 33.279 33.279 0 0 0 4.91-4.037 33.261 33.261 0 0 0 4.043-4.905c.74-1.091 1.341-2.357 1.985-3.568h-24.518v18.494z"/><g opacity=".4"><linearGradient id="b" x1=".517" x2=".517" y2="1"><stop offset="0%" stop-color="#fff"/><stop offset="12.5%" stop-opacity=".098" stop-color="#fff"/><stop offset="92.5%" stop-opacity=".098"/><stop offset="100%" stop-opacity=".498"/></linearGradient><path fill="none" stroke="url(#b)" stroke-linecap="round" stroke-linejoin="round" stroke-width="4.077" d="M165.685 11.947c74.055 0 84.639 10.557 84.639 84.544v59.251c0 73.986-10.584 84.543-84.639 84.543h-75.37c-74.055 0-84.639-10.557-84.639-84.543V96.491c0-73.987 10.584-84.544 84.639-84.544h75.37z" vector-effect="non-scaling-stroke"/></g><g opacity=".1"><path fill="#FFF" d="M5.676 126.116v29.626c0 73.986 10.584 84.543 84.639 84.543h75.37c74.055 0 84.639-10.557 84.639-84.543v-29.626H5.676z"/></g><g opacity=".2"><path fill="#FFF" d="M128 11.947v228.338h37.685c74.055 0 84.639-10.557 84.639-84.543V96.491c0-73.987-10.584-84.544-84.639-84.544H128z"/></g></svg>