<svg xmlns="http://www.w3.org/2000/svg" style="isolation:isolate" width="256" height="256"><defs><clipPath id="a"><path d="M0 0h256v256H0z"/></clipPath></defs><switch><g clip-path="url(#a)"><defs><filter id="b" width="270.648" height="254.338" x="-7.32" y="2.95" filterUnits="userSpaceOnUse"><feGaussianBlur xmlns="http://www.w3.org/2000/svg" in="SourceGraphic" stdDeviation="4.294"/><feOffset xmlns="http://www.w3.org/2000/svg" dy="4" result="pf_100_offsetBlur"/><feFlood xmlns="http://www.w3.org/2000/svg" flood-opacity=".4"/><feComposite xmlns="http://www.w3.org/2000/svg" in2="pf_100_offsetBlur" operator="in" result="pf_100_dropShadow"/><feBlend xmlns="http://www.w3.org/2000/svg" in="SourceGraphic" in2="pf_100_dropShadow"/></filter></defs><path fill="#37A6E6" d="M165.685 11.947c74.055 0 84.639 10.557 84.639 84.544v59.251c0 73.986-10.584 84.543-84.639 84.543h-75.37c-74.055 0-84.639-10.557-84.639-84.543V96.491c0-73.987 10.584-84.544 84.639-84.544h75.37z" filter="url(#b)"/><path fill="#ECF0F1" fill-rule="evenodd" d="M134.267 43.5c20.309 17.532 25.387 35.303 25.387 63.229l8.33-21.579c8.77 8.622 14.747 20.047 16.501 32.843.646 9.841-.961 18.553-3.499 26.168 10.359-6.596 23.443-14.133 29.044-26.168-3.738-39.82-35.745-71.448-75.763-74.493zm-14.274.47c-39.82 3.738-71.448 35.745-74.493 75.762 17.533-20.309 35.303-25.386 63.228-25.386l-21.578-8.33c8.622-8.77 20.047-14.747 32.843-16.501 9.841-.645 18.552.961 26.168 3.5-6.595-10.36-14.133-23.445-26.168-29.045zm-44.978 63.869c-10.359 6.595-23.445 14.133-29.045 26.167 3.738 39.821 35.745 71.449 75.763 74.494-20.309-17.532-25.387-35.303-25.387-63.228l-8.33 21.578c-8.77-8.622-14.747-20.047-16.501-32.844-.645-9.84.962-18.551 3.5-26.167zM210.5 132.267c-17.532 20.309-35.303 25.387-63.228 25.387l21.578 8.33c-8.622 8.77-20.047 14.747-32.844 16.501-9.84.645-18.552-.96-26.168-3.499 6.596 10.359 14.134 23.444 26.168 29.044 39.82-3.738 71.449-35.745 74.494-75.763z"/><g opacity=".4"><linearGradient id="c" x1=".517" x2=".517" y2="1"><stop offset="0%" stop-color="#fff"/><stop offset="12.5%" stop-opacity=".098" stop-color="#fff"/><stop offset="92.5%" stop-opacity=".098"/><stop offset="100%" stop-opacity=".498"/></linearGradient><path fill="none" stroke="url(#c)" stroke-linecap="round" stroke-linejoin="round" stroke-width="4.077" d="M165.685 11.947c74.055 0 84.639 10.557 84.639 84.544v59.251c0 73.986-10.584 84.543-84.639 84.543h-75.37c-74.055 0-84.639-10.557-84.639-84.543V96.491c0-73.987 10.584-84.544 84.639-84.544h75.37z" vector-effect="non-scaling-stroke"/></g></g></switch> </svg>