<svg xmlns="http://www.w3.org/2000/svg" style="isolation:isolate" width="256" height="256"><defs><clipPath id="a"><path d="M0 0h256v256H0z"/></clipPath></defs><switch><g clip-path="url(#a)"><defs><filter id="b" width="270.648" height="254.338" x="-7.32" y="2.95" filterUnits="userSpaceOnUse"><feGaussianBlur xmlns="http://www.w3.org/2000/svg" in="SourceGraphic" stdDeviation="4.294"/><feOffset xmlns="http://www.w3.org/2000/svg" dy="4" result="pf_100_offsetBlur"/><feFlood xmlns="http://www.w3.org/2000/svg" flood-opacity=".4"/><feComposite xmlns="http://www.w3.org/2000/svg" in2="pf_100_offsetBlur" operator="in" result="pf_100_dropShadow"/><feBlend xmlns="http://www.w3.org/2000/svg" in="SourceGraphic" in2="pf_100_dropShadow"/></filter></defs><path fill="#5884F4" d="M165.685 11.947c74.055 0 84.639 10.557 84.639 84.544v59.251c0 73.986-10.584 84.543-84.639 84.543h-75.37c-74.055 0-84.639-10.557-84.639-84.543V96.491c0-73.987 10.584-84.544 84.639-84.544h75.37z" filter="url(#b)"/><path fill="#D85ECA" d="M165.685 11.947c64.324 0 80.762 7.965 83.971 58.543-5.534-.093-249.79-.86-243.244-1.03C9.78 19.804 26.43 11.947 90.315 11.947h75.37z"/><circle r="1" transform="translate(95.778 137.722) scale(40.278)" vector-effect="non-scaling-stroke" opacity=".2"/><circle r="1" transform="translate(160.222 137.722) scale(40.278)" vector-effect="non-scaling-stroke" opacity=".2"/><path fill-rule="evenodd" d="M127.951 137.723c-1.978 0-3.991.725-5.631 2.543l-32.289 26.912c-.188.202-.338.427-.502.645-.045.08-.096.113-.138.177-.438.62-.747 1.263-1.014 1.931-.103.266-.165.524-.246.798-.158.523-.312 1.051-.374 1.593-.053.395-.028.797-.028 1.201.003.395-.02.806.028 1.2.063.54.216 1.063.374 1.593.081.274.143.54.246.797.267.669.576 1.319 1.014 1.931.04.082.094.113.138.169.164.21.315.443.502.661l32.289 35.862c1.64 1.819 3.653 2.539 5.631 2.542h.081c1.978 0 3.99-.725 5.63-2.542l32.309-35.862c.188-.201.339-.435.502-.661.044-.081.098-.105.138-.169.438-.612.747-1.263 1.014-1.932.102-.265.166-.523.246-.797.158-.523.302-1.052.364-1.593.051-.395.037-.798.041-1.201 0-.41.011-.805-.041-1.201-.063-.539-.206-1.061-.364-1.592-.081-.274-.143-.54-.246-.798-.267-.668-.576-1.319-1.014-1.932-.042-.08-.092-.105-.138-.169-.164-.217-.314-.435-.502-.644l-32.309-26.912c-1.64-1.82-3.652-2.524-5.63-2.543h-.081v-.007z" opacity=".2"/><circle fill="#FFF" r="1" transform="translate(160.222 133.694) scale(40.278)" vector-effect="non-scaling-stroke"/><circle fill="#FFF" r="1" transform="translate(95.778 133.694) scale(40.278)" vector-effect="non-scaling-stroke"/><path fill="#FDC92B" fill-rule="evenodd" d="M127.951 133.695c-1.978 0-3.991.725-5.631 2.543l-32.289 26.913c-.188.201-.338.427-.502.644-.045.08-.096.113-.138.177-.438.621-.747 1.263-1.014 1.931-.103.266-.165.524-.246.798-.158.523-.312 1.051-.374 1.593-.053.395-.028.798-.028 1.201.003.395-.02.806.028 1.201.063.539.216 1.062.374 1.592.081.274.143.54.246.798.267.668.576 1.318 1.014 1.931.04.081.094.112.138.169.164.209.315.443.502.66l32.289 35.862c1.64 1.819 3.653 2.539 5.631 2.542h.081c1.978 0 3.99-.725 5.63-2.542l32.309-35.862c.188-.201.339-.435.502-.66.044-.081.098-.105.138-.169.438-.613.747-1.263 1.014-1.932.102-.266.166-.524.246-.798.158-.523.302-1.052.364-1.593.051-.395.037-.798.041-1.2 0-.411.011-.806-.041-1.201-.063-.54-.206-1.062-.364-1.593-.081-.274-.143-.54-.246-.797-.267-.669-.576-1.32-1.014-1.932-.042-.081-.092-.105-.138-.169-.164-.218-.314-.435-.502-.645l-32.309-26.912c-1.64-1.82-3.652-2.524-5.63-2.543h-.081v-.007z"/><circle r="1" transform="translate(95.778 137.722) scale(12.083)" vector-effect="non-scaling-stroke" opacity=".6"/><circle r="1" transform="translate(160.222 137.722) scale(12.083)" vector-effect="non-scaling-stroke" opacity=".6"/><g opacity=".1"><path fill="#FFF" d="M249.643 83.58L44.234 236.61c11.562 2.311 26.426 3.019 45.523 3.019h75.37c74.055 0 84.639-10.558 84.639-84.544V95.834c0-4.303-.041-8.37-.123-12.254z"/></g><g opacity=".4"><linearGradient id="c" x1=".517" x2=".517" y2="1"><stop offset="0%" stop-color="#fff"/><stop offset="12.5%" stop-opacity=".098" stop-color="#fff"/><stop offset="92.5%" stop-opacity=".098"/><stop offset="100%" stop-opacity=".498"/></linearGradient><path fill="none" stroke="url(#c)" stroke-linecap="round" stroke-linejoin="round" stroke-width="4.077" d="M165.685 11.947c74.055 0 84.639 10.557 84.639 84.544v59.251c0 73.986-10.584 84.543-84.639 84.543h-75.37c-74.055 0-84.639-10.557-84.639-84.543V96.491c0-73.987 10.584-84.544 84.639-84.544h75.37z" vector-effect="non-scaling-stroke"/></g></g></switch> </svg>