<svg xmlns="http://www.w3.org/2000/svg" style="isolation:isolate" width="256" height="256"><defs><clipPath id="a"><path d="M0 0h256v256H0z"/></clipPath></defs><switch><g clip-path="url(#a)"><defs><filter id="b" width="270.648" height="254.338" x="-7.32" y="2.95" filterUnits="userSpaceOnUse"><feGaussianBlur xmlns="http://www.w3.org/2000/svg" in="SourceGraphic" stdDeviation="4.294"/><feOffset xmlns="http://www.w3.org/2000/svg" dy="4" result="pf_100_offsetBlur"/><feFlood xmlns="http://www.w3.org/2000/svg" flood-opacity=".4"/><feComposite xmlns="http://www.w3.org/2000/svg" in2="pf_100_offsetBlur" operator="in" result="pf_100_dropShadow"/><feBlend xmlns="http://www.w3.org/2000/svg" in="SourceGraphic" in2="pf_100_dropShadow"/></filter></defs><g filter="url(#b)"><linearGradient id="c" x1=".146" x2=".854" y1=".854" y2=".146" gradientTransform="matrix(244.648 0 0 228.338 5.676 11.947)" gradientUnits="userSpaceOnUse"><stop offset="0%" stop-color="#d1313e"/><stop offset="34.838%" stop-color="#a9344f"/><stop offset="100%" stop-color="#6b3274"/></linearGradient><path fill="url(#c)" d="M165.685 11.947c74.055 0 84.639 10.557 84.639 84.544v59.251c0 73.986-10.584 84.543-84.639 84.543h-75.37c-74.055 0-84.639-10.557-84.639-84.543V96.491c0-73.987 10.584-84.544 84.639-84.544h75.37z"/></g><g opacity=".4"><linearGradient id="d" x1=".517" x2=".517" y2="1"><stop offset="0%" stop-color="#fff"/><stop offset="12.5%" stop-opacity=".098" stop-color="#fff"/><stop offset="92.5%" stop-opacity=".098"/><stop offset="100%" stop-opacity=".498"/></linearGradient><path fill="none" stroke="url(#d)" stroke-linecap="round" stroke-linejoin="round" stroke-width="4.077" d="M165.685 11.947c74.055 0 84.639 10.557 84.639 84.544v59.251c0 73.986-10.584 84.543-84.639 84.543h-75.37c-74.055 0-84.639-10.557-84.639-84.543V96.491c0-73.987 10.584-84.544 84.639-84.544h75.37z" vector-effect="non-scaling-stroke"/></g><defs><filter id="e" width="147.938" height="107.283" x="53.8" y="73.01" filterUnits="userSpaceOnUse"><feGaussianBlur xmlns="http://www.w3.org/2000/svg" stdDeviation=".728"/></filter></defs><path fill="#00132B" d="M68.752 74.702h118.044c7.314 0 13.252 5.938 13.252 13.252v77.39c0 7.314-5.938 13.252-13.252 13.252H68.752c-7.314 0-13.252-5.938-13.252-13.252v-77.39c0-7.314 5.938-13.252 13.252-13.252z" opacity=".3" filter="url(#e)"/><g opacity=".7"><linearGradient id="f" x1=".506" x2=".506" y1=".03" y2=".721" gradientTransform="matrix(144.548 0 0 103.894 55.952 74.25)" gradientUnits="userSpaceOnUse"><stop offset="0%" stop-color="#e6eaef"/><stop offset="100%" stop-color="#e6eaef"/></linearGradient><path fill="url(#f)" d="M69.204 74.25h118.044c7.314 0 13.252 5.938 13.252 13.252v77.39c0 7.314-5.938 13.252-13.252 13.252H69.204c-7.314 0-13.252-5.938-13.252-13.252v-77.39c0-7.314 5.938-13.252 13.252-13.252z"/></g><path fill="#FFF" d="M82.968 127.586h89.612a4.855 4.855 0 0 1 4.853 4.853v10.102a4.855 4.855 0 0 1-4.853 4.853H82.968a4.856 4.856 0 0 1-4.853-4.853v-10.102a4.856 4.856 0 0 1 4.853-4.853z" opacity=".7"/><path d="M94.49 104.219h1.366l1.079-4.857c.051-.253.152-.675.219-1.012.051.337.152.776.203 1.029l1.113 4.84h1.349l2.192-8.618h-1.585l-1.147 4.992a12.95 12.95 0 0 0-.169.843c-.05-.304-.084-.573-.151-.843l-1.147-4.992h-1.316l-1.129 4.992c-.068.27-.102.506-.152.792a5.24 5.24 0 0 0-.152-.775l-1.18-5.009h-1.586l2.193 8.618zM111.374 99.514c0-2.834-1.652-4.115-3.659-4.115-2.445 0-4.031 1.669-4.031 4.502 0 2.631 1.501 4.52 4.031 4.52 1.231 0 2.26-.506 2.968-1.214l-.995-1.08a2.705 2.705 0 0 1-1.956.776c-1.299 0-2.108-.91-2.344-2.327h5.936c.05-.422.05-.81.05-1.062zm-6.02-.405c.169-1.366.928-2.226 2.361-2.226.911 0 1.922.556 1.99 2.226h-4.351zM118.748 102.718V92.043h-4.503l.776 1.484h2.041v9.191h-2.479v1.501h6.627v-1.501h-2.462zM128.466 104.421c1.787 0 2.984-.843 3.457-2.361l-1.586-.506c-.269.81-.893 1.282-1.855 1.282-1.366 0-2.091-1.096-2.091-2.918 0-1.787.709-2.934 2.142-2.934.928 0 1.467.472 1.737 1.13l1.585-.557c-.523-1.45-1.686-2.158-3.322-2.158-2.378 0-3.879 1.703-3.879 4.519 0 2.85 1.484 4.503 3.812 4.503zM138.655 104.421c2.496 0 4.081-1.72 4.081-4.52 0-2.782-1.585-4.502-4.081-4.502-2.496 0-4.081 1.737-4.081 4.519 0 2.8 1.585 4.503 4.081 4.503zm0-1.585c-1.534 0-2.361-1.147-2.361-2.918 0-1.838.827-2.934 2.361-2.934 1.552 0 2.378 1.147 2.378 2.917 0 1.788-.86 2.935-2.378 2.935zM151.324 95.399c-.894 0-1.534.607-1.905 1.281-.203-.624-.759-1.281-1.619-1.281-.81 0-1.366.472-1.687 1.332v-1.13h-1.484v8.618h1.585v-5.211c0-1.198.422-2.007 1.164-2.007.708 0 .894.759.894 1.838v5.38h1.585v-5.211c0-1.198.354-2.007 1.096-2.007.725 0 .894.624.894 1.956v5.262h1.585v-5.7c0-2.26-.691-3.12-2.108-3.12zM163.251 99.514c0-2.834-1.653-4.115-3.66-4.115-2.445 0-4.03 1.669-4.03 4.502 0 2.631 1.501 4.52 4.03 4.52 1.232 0 2.26-.506 2.968-1.214l-.994-1.08a2.71 2.71 0 0 1-1.957.776c-1.298 0-2.108-.91-2.344-2.327h5.936c.051-.422.051-.81.051-1.062zm-6.021-.405c.169-1.366.928-2.226 2.361-2.226.911 0 1.923.556 1.99 2.226h-4.351z" opacity=".8"/><g opacity=".8"><path d="M83.961 131.063v13.552h.9v-13.552h-.9z"/></g></g></switch> </svg>