<?xml version="1.0" standalone="no"?><!-- Generator: Gravit.io --><svg xmlns="http://www.w3.org/2000/svg" xmlns:xlink="http://www.w3.org/1999/xlink" style="isolation:isolate" viewBox="0 0 256 256" width="256" height="256"><defs><clipPath id="_clipPath_kp0kzl4N5u5r3blf59N0l0X77d3H1HRq"><rect width="256" height="256"/></clipPath></defs><g clip-path="url(#_clipPath_kp0kzl4N5u5r3blf59N0l0X77d3H1HRq)"><rect width="256" height="256" style="fill:rgba(0,0,0,0)"/><g id="icon"><g id="drop shadow"><defs><filter id="YUfi5Br9yWhB5wk4de0LAVZ9AeDS3ZJx" x="-200%" y="-200%" width="400%" height="400%"><feGaussianBlur xmlns="http://www.w3.org/2000/svg" stdDeviation="2.32"/></filter></defs><g opacity="0.2" filter="url(#YUfi5Br9yWhB5wk4de0LAVZ9AeDS3ZJx)"><path d=" M 165.685 15.849 C 239.741 15.849 250.325 26.407 250.325 100.394 L 250.325 159.645 C 250.325 233.632 239.741 244.189 165.685 244.189 L 90.315 244.189 C 16.259 244.189 5.675 233.632 5.675 159.645 L 5.675 100.394 C 5.675 26.407 16.259 15.849 90.315 15.849 L 165.685 15.849 Z " fill="rgb(0,0,0)"/></g><defs><filter id="PTp1cRyUhGylnsOTDSetqXpLd71OOLqO" x="-200%" y="-200%" width="400%" height="400%"><feGaussianBlur xmlns="http://www.w3.org/2000/svg" stdDeviation="1.16"/></filter></defs><g opacity="0.1" filter="url(#PTp1cRyUhGylnsOTDSetqXpLd71OOLqO)"><path d=" M 165.685 14.83 C 239.741 14.83 250.325 25.387 250.325 99.374 L 250.325 158.626 C 250.325 232.612 239.741 243.17 165.685 243.17 L 90.315 243.17 C 16.259 243.17 5.675 232.612 5.675 158.626 L 5.675 99.374 C 5.675 25.387 16.259 14.83 90.315 14.83 L 165.685 14.83 Z " fill="rgb(0,0,0)"/></g></g><path d=" M 165.685 13.811 C 239.741 13.811 250.325 24.368 250.325 98.355 L 250.325 157.606 C 250.325 231.593 239.741 242.151 165.685 242.151 L 90.315 242.151 C 16.259 242.151 5.675 231.593 5.675 157.606 L 5.675 98.355 C 5.675 24.368 16.259 13.811 90.315 13.811 L 165.685 13.811 Z " fill="rgb(255,255,255)"/><clipPath id="_clipPath_NQfJL7mN88LhW8OABKbK2iiZqS5FqZUl"><path d=" M 165.685 13.811 C 239.741 13.811 250.325 24.368 250.325 98.355 L 250.325 157.606 C 250.325 231.593 239.741 242.151 165.685 242.151 L 90.315 242.151 C 16.259 242.151 5.675 231.593 5.675 157.606 L 5.675 98.355 C 5.675 24.368 16.259 13.811 90.315 13.811 L 165.685 13.811 Z " fill="rgb(255,255,255)"/></clipPath><g clip-path="url(#_clipPath_NQfJL7mN88LhW8OABKbK2iiZqS5FqZUl)"><path d=" M 165.685 13.811 C 239.741 13.811 250.325 24.368 250.325 98.355 L 250.325 157.606 C 250.325 231.593 239.741 242.151 165.685 242.151 L 90.315 242.151 C 16.259 242.151 5.675 231.593 5.675 157.606 L 5.675 98.355 C 5.675 24.368 16.259 13.811 90.315 13.811 L 165.685 13.811 Z " fill="rgb(55,166,230)"/><rect x="52" y="44" width="153.333" height="172" transform="matrix(0.98,-0.2,0.2,0.98,-23.41,28.375)" fill="rgb(253,201,43)"/><rect x="52" y="44" width="153.333" height="172" transform="matrix(1,0,0,1,0,0)" fill="rgb(236,236,236)"/><rect x="3" y="109.333" width="250.667" height="138.667" transform="matrix(1,0,0,1,0,0)" fill="rgb(55,166,230)" fill-opacity="0.5"/><rect x="3" y="109.333" width="250.667" height="14" transform="matrix(1,0,0,1,0,0)" fill="rgb(55,166,230)" fill-opacity="0.5"/><g id="Group"><path d=" M 107.236 182.743 C 106.373 183.097 105.396 183.083 104.533 182.715 C 103.67 182.347 102.991 181.654 102.637 180.791 C 102.284 179.928 102.284 178.951 102.651 178.088 C 103.019 177.225 103.713 176.532 104.59 176.178 C 105.34 175.881 106.061 175.471 106.698 174.961 C 107.462 174.381 108.141 173.716 108.736 172.966 C 109.386 172.146 109.952 171.254 110.419 170.32 C 111.084 169.005 111.636 167.632 112.075 166.231 C 112.443 165 112.697 163.755 112.853 162.482 C 113.065 160.812 113.235 159.143 113.376 157.473 C 113.589 154.841 113.9 152.21 114.31 149.578 C 114.537 148.219 114.82 146.875 115.173 145.545 C 115.527 144.215 115.98 142.914 116.546 141.654 C 117.112 140.367 117.819 139.15 118.654 138.032 C 119.531 136.858 120.593 135.825 121.767 134.962 C 123.04 134.042 124.441 133.349 125.941 132.882 C 127.554 132.372 129.252 132.104 130.95 132.061 C 130.95 132.061 130.964 132.061 130.964 132.061 L 131.869 132.047 C 131.884 132.047 131.884 132.047 131.898 132.047 C 133.044 132.033 134.19 132.118 135.322 132.288 C 136.369 132.443 137.388 132.712 138.378 133.094 C 140.231 133.844 141.844 135.089 143.033 136.688 C 143.585 137.452 144.066 138.258 144.448 139.107 C 144.83 139.956 145.155 140.819 145.438 141.711 C 146.004 143.607 146.514 145.531 146.938 147.47 C 147.334 149.196 147.759 150.922 148.212 152.634 C 148.735 154.629 149.344 156.596 150.009 158.548 C 151.763 163.543 153.999 168.34 156.701 172.881 C 157.182 173.688 157.324 174.65 157.097 175.556 C 156.871 176.461 156.277 177.239 155.47 177.72 C 154.664 178.201 153.701 178.343 152.796 178.117 C 151.89 177.89 151.112 177.296 150.631 176.489 C 147.674 171.551 145.24 166.316 143.33 160.883 C 142.594 158.761 141.944 156.61 141.363 154.445 C 140.896 152.634 140.444 150.837 140.033 149.026 C 139.651 147.257 139.199 145.517 138.675 143.791 C 138.491 143.197 138.265 142.602 138.01 142.036 C 137.826 141.626 137.6 141.244 137.331 140.876 C 136.935 140.338 136.397 139.928 135.775 139.673 C 135.293 139.489 134.798 139.362 134.289 139.277 C 133.525 139.164 132.747 139.122 131.968 139.122 L 131.091 139.136 C 130.058 139.164 129.025 139.32 128.035 139.631 C 127.285 139.871 126.563 140.225 125.927 140.692 C 125.318 141.131 124.767 141.668 124.314 142.263 C 123.804 142.956 123.366 143.706 123.012 144.498 C 122.602 145.432 122.276 146.394 122.007 147.371 C 121.724 148.46 121.484 149.578 121.3 150.696 C 120.918 153.143 120.635 155.591 120.437 158.067 C 120.281 159.822 120.097 161.59 119.871 163.345 C 119.673 165.029 119.333 166.67 118.852 168.297 C 118.286 170.08 117.579 171.82 116.744 173.49 C 116.065 174.862 115.23 176.164 114.282 177.367 C 113.334 178.569 112.23 179.645 111.014 180.578 C 109.853 181.47 108.594 182.191 107.236 182.743 Z " fill="rgb(214,67,16)"/><path d=" M 113.99 148.215 C 113.99 138.714 121.703 131 131.204 131 C 140.705 131 148.419 138.714 148.419 148.215 C 148.419 157.716 140.705 165.43 131.204 165.43 C 121.703 165.43 113.99 157.716 113.99 148.215 Z  M 123.894 148.215 C 123.894 144.18 127.17 140.904 131.204 140.904 C 135.239 140.904 138.515 144.18 138.515 148.215 C 138.515 152.249 135.239 155.525 131.204 155.525 C 127.17 155.525 123.894 152.249 123.894 148.215 Z " fill-rule="evenodd" fill="rgb(255,255,255)"/></g><g opacity="0.1"><path d=" M 129.001 13.977 L 129.001 242.316 L 166.686 242.316 C 240.741 242.316 251.325 231.758 251.325 157.772 L 251.325 98.521 C 251.325 24.534 240.741 13.977 166.686 13.977 L 129.001 13.977 Z " fill="rgb(255,255,255)"/></g></g><g id="highlight"><clipPath id="_clipPath_GmefGXRkLzDnsykDwmH1ioJVBnSRvLaI"><path d=" M 165.685 13.811 C 239.741 13.811 250.325 24.368 250.325 98.355 L 250.325 157.606 C 250.325 231.593 239.741 242.151 165.685 242.151 L 90.315 242.151 C 16.259 242.151 5.675 231.593 5.675 157.606 L 5.675 98.355 C 5.675 24.368 16.259 13.811 90.315 13.811 L 165.685 13.811 Z " fill="rgb(255,255,255)"/></clipPath><g clip-path="url(#_clipPath_GmefGXRkLzDnsykDwmH1ioJVBnSRvLaI)"><g opacity="0.4"><linearGradient id="_lgradient_26" x1="51.666666666666686%" y1="0%" x2="51.66666666666666%" y2="100.00000000000003%"><stop offset="0%" stop-opacity="1" style="stop-color:rgb(255,255,255)"/><stop offset="12.5%" stop-opacity="0.09803922" style="stop-color:rgb(255,255,255)"/><stop offset="92.500001%" stop-opacity="0.09803922" style="stop-color:rgb(0,0,0)"/><stop offset="100%" stop-opacity="0.49803922" style="stop-color:rgb(0,0,0)"/></linearGradient><path d=" M 165.685 13.811 C 239.741 13.811 250.325 24.368 250.325 98.355 L 250.325 157.606 C 250.325 231.593 239.741 242.151 165.685 242.151 L 90.315 242.151 C 16.259 242.151 5.675 231.593 5.675 157.606 L 5.675 98.355 C 5.675 24.368 16.259 13.811 90.315 13.811 L 165.685 13.811 Z " fill="none" vector-effect="non-scaling-stroke" stroke-width="4" stroke="url(#_lgradient_26)" stroke-linejoin="round" stroke-linecap="round" stroke-miterlimit="4"/></g></g></g></g></g></svg>