<svg xmlns="http://www.w3.org/2000/svg" style="isolation:isolate" width="256" height="256"><defs><clipPath id="a"><path d="M0 0h256v256H0z"/></clipPath></defs><switch><g clip-path="url(#a)"><defs><filter id="b" width="270.648" height="254.338" x="-7.32" y="2.95" filterUnits="userSpaceOnUse"><feGaussianBlur xmlns="http://www.w3.org/2000/svg" in="SourceGraphic" stdDeviation="4.294"/><feOffset xmlns="http://www.w3.org/2000/svg" dy="4" result="pf_100_offsetBlur"/><feFlood xmlns="http://www.w3.org/2000/svg" flood-opacity=".4"/><feComposite xmlns="http://www.w3.org/2000/svg" in2="pf_100_offsetBlur" operator="in" result="pf_100_dropShadow"/><feBlend xmlns="http://www.w3.org/2000/svg" in="SourceGraphic" in2="pf_100_dropShadow"/></filter></defs><g filter="url(#b)"><linearGradient id="c" x1="-.256" x2="1.357" y1="1.364" y2="-.361" gradientTransform="matrix(244.648 0 0 228.338 5.676 11.947)" gradientUnits="userSpaceOnUse"><stop offset="37.07%" stop-color="#16b8c3"/><stop offset="74.22%" stop-color="#02aef0"/></linearGradient><path fill="url(#c)" d="M165.685 11.947c74.055 0 84.639 10.557 84.639 84.544v59.251c0 73.986-10.584 84.543-84.639 84.543h-75.37c-74.055 0-84.639-10.557-84.639-84.543V96.491c0-73.987 10.584-84.544 84.639-84.544h75.37z"/></g><g opacity=".4"><linearGradient id="d" x1=".517" x2=".517" y2="1"><stop offset="0%" stop-color="#fff"/><stop offset="12.5%" stop-opacity=".098" stop-color="#fff"/><stop offset="92.5%" stop-opacity=".098"/><stop offset="100%" stop-opacity=".498"/></linearGradient><path fill="none" stroke="url(#d)" stroke-linecap="round" stroke-linejoin="round" stroke-width="4.077" d="M165.685 11.947c74.055 0 84.639 10.557 84.639 84.544v59.251c0 73.986-10.584 84.543-84.639 84.543h-75.37c-74.055 0-84.639-10.557-84.639-84.543V96.491c0-73.987 10.584-84.544 84.639-84.544h75.37z" vector-effect="non-scaling-stroke"/></g><path fill="#FFF" fill-rule="evenodd" d="M45.5 127c0-45.533 36.967-82.5 82.5-82.5s82.5 36.967 82.5 82.5-36.967 82.5-82.5 82.5-82.5-36.967-82.5-82.5zm112.129-65.012c-9.026-4.121-19.059-6.417-29.629-6.417-2.971 0-5.9.182-8.775.534-10.629 14.702-16.137 38.576-15.698 53.201 0 0-.702 21.732 14.194 29.44 0 0 13.388 5.87 22.511-13.111 0 0 6.27-10.711 3.718-34.92 0 0 2.442.43 2.718.816.276.383 5.393 18.638 1.798 34.011 0 0-3.311 18.065-19.585 22.196-16.267 4.132-28.946-5.864-37.554-15.279-6.388-6.987-15.861-25.711-20.566-48.193-8.912 11.918-14.19 26.711-14.19 42.737 0 11.122 2.542 21.65 7.077 31.036 15.617 4.643 56.051 13.934 81.723-4.881 16.903-12.391 14.726-32.233 14.726-32.233-.28-15.093-9.469-30.086-9.469-30.086 35.731 32.325 14.612 68.236 14.612 68.236-9.805 20.027-29.932 32.855-47.578 38.614 3.375.49 6.827.743 10.338.743 39.449 0 71.429-31.979 71.429-71.429 0-16.934-5.893-32.492-15.74-44.735-3.506.242-7.584.385-11.816.246 0 0-19.011.888-29.671 6.205 0 0-7.949 3.545-15.895 9.555 0 0-1.687.843-1.605 3.94.072 3.088-1.618 11.321-7.248 16.146 0 0-4.019 2.066-2.009 5.023 0 0 2.713 3.941 6.536-.198 0 0 9.858-10.142 10.461-26.486 0 0 3.119-2.663 8.044-3.448 0 0 .907 24.518-11.26 36.829 0 0-11.573 12.604-15.292-6.106 0 0-4.527-17.825 18.812-38.994 0 0 15.623-15.603 24.883-22.992zM128 205.575c-43.394 0-78.571-35.178-78.571-78.572 0-43.394 35.178-78.574 78.571-78.574 43.394 0 78.572 35.18 78.572 78.574S171.394 205.575 128 205.575z"/></g></switch> </svg>