<svg xmlns="http://www.w3.org/2000/svg" style="isolation:isolate" width="256" height="256"><defs><clipPath id="a"><path d="M0 0h256v256H0z"/></clipPath></defs><switch><g clip-path="url(#a)"><defs><filter id="b" width="270.648" height="254.338" x="-7.32" y="2.95" filterUnits="userSpaceOnUse"><feGaussianBlur xmlns="http://www.w3.org/2000/svg" in="SourceGraphic" stdDeviation="4.294"/><feOffset xmlns="http://www.w3.org/2000/svg" dy="4" result="pf_100_offsetBlur"/><feFlood xmlns="http://www.w3.org/2000/svg" flood-opacity=".4"/><feComposite xmlns="http://www.w3.org/2000/svg" in2="pf_100_offsetBlur" operator="in" result="pf_100_dropShadow"/><feBlend xmlns="http://www.w3.org/2000/svg" in="SourceGraphic" in2="pf_100_dropShadow"/></filter></defs><g filter="url(#b)"><linearGradient id="c" x1=".51" x2=".512" y1="1.06" y2=".158" gradientTransform="matrix(244.648 0 0 228.338 5.676 11.947)" gradientUnits="userSpaceOnUse"><stop offset="0%" stop-color="#f76363"/><stop offset="100%" stop-color="#e6548b"/></linearGradient><path fill="url(#c)" d="M165.685 11.947c74.055 0 84.639 10.557 84.639 84.544v59.251c0 73.986-10.584 84.543-84.639 84.543h-75.37c-74.055 0-84.639-10.557-84.639-84.543V96.491c0-73.987 10.584-84.544 84.639-84.544h75.37z"/></g><path fill="#FFF" fill-rule="evenodd" d="M132.097 137.709c2.96 0 5.36-2.816 5.36-6.289 0-3.474-2.4-6.289-5.36-6.289h-52.17c-2.96 0-5.36 2.815-5.36 6.289 0 3.473 2.4 6.289 5.36 6.289h52.17z" opacity=".2"/><path fill="#FFF0F0" fill-rule="evenodd" d="M131.053 135.193c2.842 0 6.404-2.816 6.404-6.289s-3.562-6.289-6.404-6.289H80.97c-2.841 0-6.403 2.816-6.403 6.289s3.562 6.289 6.403 6.289h50.083z"/><path fill="#FFF" fill-rule="evenodd" d="M137.457 128.904c0-3.473-3.329-6.289-6.289-6.289H80.856c-2.96 0-6.289 2.816-6.289 6.289 0 0 1.258-3.773 6.289-3.773h50.312c5.031 0 6.289 3.773 6.289 3.773z"/><g><path fill="#FFF" fill-rule="evenodd" d="M70.501 85.994l-37.148 21.67a5.66 5.66 0 0 0 5.704 9.778l45.28-26.414c3.744-2.184 3.744-7.593 0-9.778l-45.28-26.413a5.66 5.66 0 0 0-5.704 9.778l37.148 21.379z" opacity=".2"/><path fill="#FFF0F0" fill-rule="evenodd" d="M70.501 82.221l-37.148 21.67a5.66 5.66 0 1 0 5.704 9.778l45.28-26.414c3.744-2.184 3.744-7.594 0-9.778l-45.28-26.413a5.66 5.66 0 1 0-5.704 9.778l37.148 21.379z"/><path fill="#FFF" fill-rule="evenodd" d="M67.245 84.12l-33.892 19.771a5.661 5.661 0 0 0-2.485 6.777 5.631 5.631 0 0 1 2.485-3.004l37.148-21.67-3.256-1.874zm19.582.133c.842-2.416.012-5.316-2.49-6.776l-45.28-26.413a5.66 5.66 0 0 0-8.189 6.774 5.66 5.66 0 0 1 8.189-3.001l45.28 26.413a5.585 5.585 0 0 1 2.49 3.003z"/></g><g opacity=".4"><linearGradient id="d" x1=".517" x2=".517" y2="1"><stop offset="0%" stop-color="#fff"/><stop offset="12.5%" stop-opacity=".098" stop-color="#fff"/><stop offset="92.5%" stop-opacity=".098"/><stop offset="100%" stop-opacity=".498"/></linearGradient><path fill="none" stroke="url(#d)" stroke-linecap="round" stroke-linejoin="round" stroke-width="4.077" d="M165.685 11.947c74.055 0 84.639 10.557 84.639 84.544v59.251c0 73.986-10.584 84.543-84.639 84.543h-75.37c-74.055 0-84.639-10.557-84.639-84.543V96.491c0-73.987 10.584-84.544 84.639-84.544h75.37z" vector-effect="non-scaling-stroke"/></g></g></switch> </svg>