<?xml version="1.0" standalone="no"?>
<!--Generator: Gravit.io-->
<svg xmlns="http://www.w3.org/2000/svg" xmlns:xlink="http://www.w3.org/1999/xlink" width="256" height="256" style="isolation:isolate" viewBox="0 0 256 256">
    <defs>
        <clipPath id="_clipPath_zYMOQixOH3kJGcJ684lGyHHBmkK29iSA">
            <rect width="256" height="256"/>
        </clipPath>
    </defs>
    <g clip-path="url(#_clipPath_zYMOQixOH3kJGcJ684lGyHHBmkK29iSA)">
        <rect width="256" height="256" style="fill:rgba(0,0,0,0)"/>
        <g id="multimedia-video-player">
            <defs>
                <filter id="MTwioCsyOjznkgxz0tOIj9ArnsDA1F94" width="400%" height="400%" x="-200%" y="-200%">
                    <feGaussianBlur xmlns="http://www.w3.org/2000/svg" stdDeviation="1.16"/>
                </filter>
            </defs>
            <g filter="url(#MTwioCsyOjznkgxz0tOIj9ArnsDA1F94)" opacity="0.1">
                <path fill="rgb(0,0,0)" d=" M 165.509 14.5 C 239.565 14.5 250.148 25.057 250.148 99.044 L 250.148 158.295 C 250.148 232.281 239.565 242.838 165.509 242.838 L 90.139 242.838 C 16.084 242.838 5.5 232.281 5.5 158.295 L 5.5 99.044 C 5.5 25.057 16.084 14.5 90.139 14.5 L 165.509 14.5 Z "/>
            </g>
            <defs>
                <filter id="4iHtxsJBaaW7gm4CJ5caOOasVeHwJMiZ" width="400%" height="400%" x="-200%" y="-200%">
                    <feGaussianBlur xmlns="http://www.w3.org/2000/svg" stdDeviation="2.32"/>
                </filter>
            </defs>
            <g filter="url(#4iHtxsJBaaW7gm4CJ5caOOasVeHwJMiZ)" opacity="0.2">
                <path fill="rgb(0,0,0)" d=" M 165.509 16.539 C 239.565 16.539 250.148 27.096 250.148 101.083 L 250.148 160.333 C 250.148 234.32 239.565 244.877 165.509 244.877 L 90.139 244.877 C 16.084 244.877 5.5 234.32 5.5 160.333 L 5.5 101.083 C 5.5 27.096 16.084 16.539 90.139 16.539 L 165.509 16.539 Z "/>
            </g>
            <linearGradient id="_lgradient_35" x1="-3.3333334311758422%" x2="123.33332873473506%" y1="-7.142853624309575%" y2="128.57143820014193%">
                <stop offset="0%" stop-opacity="1" style="stop-color:rgb(109,199,241)"/>
                <stop offset="52.913231%" stop-opacity="1" style="stop-color:rgb(55,166,230)"/>
                <stop offset="100%" stop-opacity="1" style="stop-color:rgb(26,127,212)"/>
            </linearGradient>
            <path fill="url(#_lgradient_35)" d=" M 165.509 14.5 C 239.565 14.5 250.148 25.057 250.148 99.044 L 250.148 158.295 C 250.148 232.281 239.565 242.838 165.509 242.838 L 90.139 242.838 C 16.084 242.838 5.5 232.281 5.5 158.295 L 5.5 99.044 C 5.5 25.057 16.084 14.5 90.139 14.5 L 165.509 14.5 Z "/>
            <g opacity="0.1">
                <path fill="rgb(255,255,255)" d=" M 5.5 128.669 L 5.5 158.295 C 5.5 232.281 16.084 242.838 90.139 242.838 L 165.509 242.838 C 239.565 242.838 250.148 232.281 250.148 158.295 L 250.148 128.669 L 5.5 128.669 Z "/>
            </g>
            <g opacity="0.05">
                <path fill="none" d=" M 109.125 61.391 L 91.191 97.913 L 91.191 128.112 C 88.673 131.062 85.921 134.035 83.052 136.904 C 73.621 146.335 63.048 154.583 55.975 156.941 L 44.061 145.043 L 7.539 162.977 L 7.539 249.974 L 138.018 249.974 L 138.018 88.117 C 130.16 71.072 121.52 64.712 109.125 61.391 L 109.125 61.391 Z  M 59.399 178.109 C 59.403 178.107 59.411 178.111 59.415 178.109 C 58.084 178.94 56.739 179.753 55.385 180.561 C 56.739 179.753 58.068 178.939 59.399 178.109 L 59.399 178.109 Z  M 47.119 185.276 C 47.123 185.274 47.131 185.278 47.135 185.276 C 45.737 186.04 44.317 186.795 42.898 187.538 C 44.317 186.795 45.721 186.04 47.119 185.276 L 47.119 185.276 Z "/>
            </g>
            <clipPath id="_clipPath_9bKCHv2DqVBSrXzj4F38687ztz4LbFsk">
                <path fill="rgb(255,255,255)" d=" M 165.509 14.5 C 239.565 14.5 250.148 25.057 250.148 99.044 L 250.148 158.295 C 250.148 232.281 239.565 242.838 165.509 242.838 L 90.139 242.838 C 16.084 242.838 5.5 232.281 5.5 158.295 L 5.5 99.044 C 5.5 25.057 16.084 14.5 90.139 14.5 L 165.509 14.5 Z "/>
            </clipPath>
            <g clip-path="url(#_clipPath_9bKCHv2DqVBSrXzj4F38687ztz4LbFsk)">
                <g opacity="0.4">
                    <linearGradient id="_lgradient_36" x1="51.666666666666686%" x2="51.66666666666666%" y1="0%" y2="100.00000000000003%">
                        <stop offset="0%" stop-opacity="1" style="stop-color:rgb(255,255,255)"/>
                        <stop offset="12.5%" stop-opacity="0.09803922" style="stop-color:rgb(255,255,255)"/>
                        <stop offset="92.500001%" stop-opacity="0.09803922" style="stop-color:rgb(0,0,0)"/>
                        <stop offset="100%" stop-opacity="0.49803922" style="stop-color:rgb(0,0,0)"/>
                    </linearGradient>
                    <path fill="none" stroke="url(#_lgradient_36)" stroke-linecap="round" stroke-linejoin="round" stroke-miterlimit="4" stroke-width="4.077" d=" M 165.509 14.5 C 239.565 14.5 250.148 25.057 250.148 99.044 L 250.148 158.295 C 250.148 232.281 239.565 242.838 165.509 242.838 L 90.139 242.838 C 16.084 242.838 5.5 232.281 5.5 158.295 L 5.5 99.044 C 5.5 25.057 16.084 14.5 90.139 14.5 L 165.509 14.5 Z " vector-effect="non-scaling-stroke"/>
                </g>
            </g>
            <defs>
                <filter id="GZNOYztPsO8ZCjStzPcKeFT0y66pWAtt" width="400%" height="400%" x="-200%" y="-200%">
                    <feGaussianBlur xmlns="http://www.w3.org/2000/svg" stdDeviation="9.0640396"/>
                </filter>
            </defs>
            <g filter="url(#GZNOYztPsO8ZCjStzPcKeFT0y66pWAtt)" opacity="0.4">
                <linearGradient id="_lgradient_37" x1="45.476224911185966%" x2="45.47622491118595%" y1="-0.000004166666844884759%" y2="98.75000828125033%">
                    <stop offset="0%" stop-opacity="0" style="stop-color:rgb(0,0,0)"/>
                    <stop offset="50.47667%" stop-opacity="1" style="stop-color:rgb(0,0,0)"/>
                    <stop offset="100%" stop-opacity="0" style="stop-color:rgb(0,0,0)"/>
                </linearGradient>
                <path fill="url(#_lgradient_37)" d=" M 78.895 68.526 L 78.895 190.851 C 78.895 190.851 140.936 165.775 191.631 129.65 C 191.631 129.639 191.626 129.63 191.619 129.617 C 191.613 129.604 191.605 129.59 191.596 129.577 C 191.586 129.564 191.577 129.55 191.57 129.537 C 191.563 129.524 191.557 129.51 191.557 129.498 C 138.083 92.221 78.895 68.527 78.895 68.527 L 78.895 68.526 Z "/>
            </g>
            <defs>
                <filter id="lQnX4nzOy4D047NULtgsp7OmCZyoF4iu" width="400%" height="400%" x="-200%" y="-200%">
                    <feGaussianBlur xmlns="http://www.w3.org/2000/svg" stdDeviation="1.1330049"/>
                </filter>
            </defs>
            <g filter="url(#lQnX4nzOy4D047NULtgsp7OmCZyoF4iu)" opacity="0.1">
                <path fill="rgb(0,0,0)" d=" M 78.895 68.526 L 78.895 190.851 C 78.895 190.851 140.936 165.775 191.631 129.65 C 191.631 129.639 191.626 129.63 191.619 129.617 C 191.613 129.604 191.605 129.59 191.596 129.577 C 191.586 129.564 191.577 129.55 191.57 129.537 C 191.563 129.524 191.557 129.51 191.557 129.498 C 138.083 92.221 78.895 68.527 78.895 68.527 L 78.895 68.526 Z "/>
            </g>
            <linearGradient id="_lgradient_38" x1="45.47623456025458%" x2="45.47623456025459%" y1="99.5833106750701%" y2="-0.29967790691340923%">
                <stop offset="0%" stop-opacity="1" style="stop-color:rgb(245,245,245)"/>
                <stop offset="100%" stop-opacity="1" style="stop-color:rgb(174,227,248)"/>
            </linearGradient>
            <path fill="url(#_lgradient_38)" d=" M 78.895 67.507 L 78.895 189.831 C 78.895 189.831 140.936 164.756 191.631 128.631 C 191.631 128.619 191.625 128.612 191.619 128.597 C 191.613 128.581 191.605 128.57 191.596 128.557 C 191.586 128.541 191.577 128.53 191.57 128.516 C 191.563 128.501 191.557 128.49 191.557 128.478 C 138.083 91.201 78.895 67.507 78.895 67.507 L 78.895 67.507 Z "/>
            <path fill="rgb(255,255,255)" d=" M 78.894 67.507 L 78.894 68.526 C 78.894 68.526 137.681 92.053 190.971 129.095 C 191.191 128.939 191.412 128.787 191.632 128.63 C 191.632 128.619 191.626 128.611 191.619 128.596 C 191.613 128.581 191.605 128.57 191.596 128.556 C 191.586 128.541 191.577 128.53 191.57 128.516 C 191.563 128.501 191.557 128.49 191.557 128.477 C 138.083 91.202 78.894 67.507 78.894 67.507 L 78.894 67.507 Z "/>
            <clipPath id="_clipPath_MIdgWLHP9IxVZRkyixefH3eePUI4qOJt">
                <path fill="rgb(255,255,255)" d=" M 165.509 14.5 C 239.565 14.5 250.148 25.057 250.148 99.044 L 250.148 158.295 C 250.148 232.281 239.565 242.838 165.509 242.838 L 90.139 242.838 C 16.084 242.838 5.5 232.281 5.5 158.295 L 5.5 99.044 C 5.5 25.057 16.084 14.5 90.139 14.5 L 165.509 14.5 Z "/>
            </clipPath>
            <g clip-path="url(#_clipPath_MIdgWLHP9IxVZRkyixefH3eePUI4qOJt)">
                <g opacity="0.3">
                    <linearGradient id="_lgradient_39" x1="0%" x2="3.00894945786599e-15%" y1="49.03846153846154%" y2="-0.10141225961538547%">
                        <stop offset="1.7391304347826086%" stop-opacity="1" style="stop-color:rgb(174,227,248)"/>
                        <stop offset="63.91304347826087%" stop-opacity="1" style="stop-color:rgb(109,199,241)"/>
                        <stop offset="98.69565217391305%" stop-opacity="1" style="stop-color:rgb(174,227,248)"/>
                    </linearGradient>
                    <path fill="url(#_lgradient_39)" d=" M 13.655 22.655 L 13.655 38.965 L 34.042 38.965 L 34.042 22.655 L 13.655 22.655 Z  M 221.606 22.655 L 221.606 38.965 L 241.993 38.965 L 241.993 22.655 L 221.606 22.655 Z  M 13.655 47.12 L 13.655 63.43 L 34.042 63.43 L 34.042 47.12 L 13.655 47.12 Z  M 221.606 47.12 L 221.606 63.43 L 241.993 63.43 L 241.993 47.12 L 221.606 47.12 Z  M 13.655 71.585 L 13.655 87.895 L 34.042 87.895 L 34.042 71.585 L 13.655 71.585 Z  M 221.606 71.585 L 221.606 87.895 L 241.993 87.895 L 241.993 71.585 L 221.606 71.585 Z  M 13.655 96.049 L 13.655 112.359 L 34.042 112.359 L 34.042 96.049 L 13.655 96.049 Z  M 221.606 96.049 L 221.606 112.359 L 241.993 112.359 L 241.993 96.049 L 221.606 96.049 Z  M 13.655 120.514 L 13.655 136.824 L 34.042 136.824 L 34.042 120.514 L 13.655 120.514 Z  M 221.606 120.514 L 221.606 136.824 L 241.993 136.824 L 241.993 120.514 L 221.606 120.514 Z  M 13.655 144.979 L 13.655 161.289 L 34.042 161.289 L 34.042 144.979 L 13.655 144.979 Z  M 221.606 144.979 L 221.606 161.289 L 241.993 161.289 L 241.993 144.979 L 221.606 144.979 Z  M 13.655 169.444 L 13.655 185.754 L 34.042 185.754 L 34.042 169.444 L 13.655 169.444 Z  M 221.606 169.444 L 221.606 185.754 L 241.993 185.754 L 241.993 169.444 L 221.606 169.444 Z  M 13.655 193.909 L 13.655 210.219 L 34.042 210.219 L 34.042 193.909 L 13.655 193.909 Z  M 221.606 193.909 L 221.606 210.219 L 241.993 210.219 L 241.993 193.909 L 221.606 193.909 Z  M 13.655 218.374 L 13.655 234.683 L 34.042 234.683 L 34.042 218.374 L 13.655 218.374 Z  M 221.606 218.374 L 221.606 234.683 L 241.993 234.683 L 241.993 218.374 L 221.606 218.374 Z "/>
                </g>
            </g>
        </g>
    </g>
</svg>
