<?xml version="1.0" encoding="UTF-8" standalone="no"?>
<!-- Generator: Gravit.io -->

<svg
   xmlns:dc="http://purl.org/dc/elements/1.1/"
   xmlns:cc="http://creativecommons.org/ns#"
   xmlns:rdf="http://www.w3.org/1999/02/22-rdf-syntax-ns#"
   xmlns:svg="http://www.w3.org/2000/svg"
   xmlns="http://www.w3.org/2000/svg"
   xmlns:sodipodi="http://sodipodi.sourceforge.net/DTD/sodipodi-0.dtd"
   xmlns:inkscape="http://www.inkscape.org/namespaces/inkscape"
   style="isolation:isolate"
   viewBox="0 0 256 256"
   width="256"
   height="256"
   version="1.1"
   id="svg177"
   sodipodi:docname="deepin-graphics-driver-manager.svg"
   inkscape:version="0.92.2pre0 (973e216, 2017-07-25)">
  <metadata
     id="metadata181">
    <rdf:RDF>
      <cc:Work
         rdf:about="">
        <dc:format>image/svg+xml</dc:format>
        <dc:type
           rdf:resource="http://purl.org/dc/dcmitype/StillImage" />
      </cc:Work>
    </rdf:RDF>
  </metadata>
  <sodipodi:namedview
     pagecolor="#ffffff"
     bordercolor="#666666"
     borderopacity="1"
     objecttolerance="10"
     gridtolerance="10"
     guidetolerance="10"
     inkscape:pageopacity="0"
     inkscape:pageshadow="2"
     inkscape:window-width="1920"
     inkscape:window-height="1009"
     id="namedview179"
     showgrid="false"
     inkscape:zoom="0.921875"
     inkscape:cx="128"
     inkscape:cy="128"
     inkscape:window-x="0"
     inkscape:window-y="0"
     inkscape:window-maximized="1"
     inkscape:current-layer="g175" />
  <defs
     id="defs5">
    <clipPath
       id="_clipPath_GeFkjcdUMfktexKzNw69jbebFs4iRFpd">
      <rect
         width="256"
         height="256"
         id="rect2" />
    </clipPath>
  </defs>
  <g
     clip-path="url(#_clipPath_GeFkjcdUMfktexKzNw69jbebFs4iRFpd)"
     id="g175">
    <g
       id="deepin-graphics-driver-manager">
      <defs
         id="defs12">
        <filter
           id="HhzSPuAhLaPzYuyA5aefBO5JbwsbEEsz"
           x="-200%"
           y="-200%"
           width="400%"
           height="400%">
          <feGaussianBlur
             stdDeviation="1.16"
             id="feGaussianBlur9" />
        </filter>
      </defs>
      <g
         opacity="0.1"
         filter="url(#HhzSPuAhLaPzYuyA5aefBO5JbwsbEEsz)"
         id="g16">
        <path
           d=" M 166.009 14.609 C 240.065 14.609 250.648 25.166 250.648 99.152 L 250.648 158.403 C 250.648 232.39 240.065 242.947 166.009 242.947 L 90.639 242.947 C 16.584 242.947 6 232.39 6 158.403 L 6 99.152 C 6 25.166 16.584 14.609 90.639 14.609 L 166.009 14.609 Z "
           fill="rgb(0,0,0)"
           id="path14" />
      </g>
      <defs
         id="defs21">
        <filter
           id="YbvsyflaWoi6wtoJUkjqAVCFqZu46Fd0"
           x="-200%"
           y="-200%"
           width="400%"
           height="400%">
          <feGaussianBlur
             stdDeviation="2.32"
             id="feGaussianBlur18" />
        </filter>
      </defs>
      <g
         opacity="0.2"
         filter="url(#YbvsyflaWoi6wtoJUkjqAVCFqZu46Fd0)"
         id="g25">
        <path
           d=" M 166.009 16.647 C 240.065 16.647 250.648 27.205 250.648 101.191 L 250.648 160.442 C 250.648 234.428 240.065 244.986 166.009 244.986 L 90.639 244.986 C 16.584 244.986 6 234.428 6 160.442 L 6 101.191 C 6 27.205 16.584 16.647 90.639 16.647 L 166.009 16.647 Z "
           fill="rgb(0,0,0)"
           id="path23" />
      </g>
      <path
         d=" M 166.009 14.609 C 240.065 14.609 250.648 25.166 250.648 99.152 L 250.648 158.403 C 250.648 232.39 240.065 242.947 166.009 242.947 L 90.639 242.947 C 16.584 242.947 6 232.39 6 158.403 L 6 99.152 C 6 25.166 16.584 14.609 90.639 14.609 L 166.009 14.609 Z "
         fill="rgb(71,173,93)"
         id="path27" />
      <clipPath
         id="_clipPath_trbDlLDenXnjVWhQVjqkgF0az7drbZjP">
        <path
           d=" M 166.009 14.609 C 240.065 14.609 250.648 25.166 250.648 99.152 L 250.648 158.403 C 250.648 232.39 240.065 242.947 166.009 242.947 L 90.639 242.947 C 16.584 242.947 6 232.39 6 158.403 L 6 99.152 C 6 25.166 16.584 14.609 90.639 14.609 L 166.009 14.609 Z "
           fill="rgb(255,255,255)"
           id="path29" />
      </clipPath>
      <g
         clip-path="url(#_clipPath_trbDlLDenXnjVWhQVjqkgF0az7drbZjP)"
         id="g45">
        <g
           opacity="0.6"
           id="g43">
          <linearGradient
             id="_lgradient_29"
             x1="51.666666666666686%"
             y1="0%"
             x2="51.66666666666666%"
             y2="100.00000000000003%">
            <stop
               offset="0%"
               stop-opacity="1"
               style="stop-color:rgb(255,255,255)"
               id="stop32" />
            <stop
               offset="12.5%"
               stop-opacity="0.09803922"
               style="stop-color:rgb(255,255,255)"
               id="stop34" />
            <stop
               offset="92.500001%"
               stop-opacity="0.09803922"
               style="stop-color:rgb(0,0,0)"
               id="stop36" />
            <stop
               offset="100%"
               stop-opacity="0.49803922"
               style="stop-color:rgb(0,0,0)"
               id="stop38" />
          </linearGradient>
          <path
             d=" M 166.009 14.609 C 240.065 14.609 250.648 25.166 250.648 99.152 L 250.648 158.403 C 250.648 232.39 240.065 242.947 166.009 242.947 L 90.639 242.947 C 16.584 242.947 6 232.39 6 158.403 L 6 99.152 C 6 25.166 16.584 14.609 90.639 14.609 L 166.009 14.609 Z "
             fill="none"
             vector-effect="non-scaling-stroke"
             stroke-width="4.077"
             stroke="url(#_lgradient_29)"
             stroke-linejoin="round"
             stroke-linecap="round"
             stroke-miterlimit="4"
             id="path41" />
        </g>
      </g>
      <g
         id="g961">
        <g
           opacity="0.1"
           id="g49">
          <path
             d=" M 128.324 14.333 L 128.324 242.672 L 166.009 242.672 C 240.065 242.672 250.648 232.114 250.648 158.128 L 250.648 98.877 C 250.648 24.891 240.065 14.333 166.009 14.333 L 128.324 14.333 Z "
             fill="rgb(255,255,255)"
             id="path47" />
        </g>
        <g
           opacity="0.1"
           id="g53">
          <path
             d=" M 90.639 242.672 C 16.584 242.672 6 232.682 6 162.67 L 6 134.636 L 250.648 134.636 L 250.648 162.67 C 250.648 232.682 240.065 242.672 166.009 242.672 L 90.639 242.672 Z "
             fill="rgb(255,255,255)"
             id="path51" />
        </g>
        <g
           id="g1719"
           style="opacity:0.5;"
           filter="url(#X1wE4poIpFHnZgMxUTyUo3P5Ui6PRscd)">
          <g
             opacity="0.5"
             id="g57">
            <path
               d=" M 132.701 124.568 C 132.701 123.644 132.423 122.913 131.848 122.338 C 131.274 121.781 130.49 121.503 129.48 121.503 L 125.387 121.503 L 125.387 127.614 L 129.48 127.614 C 130.49 127.614 131.273 127.335 131.848 126.778 C 132.423 126.238 132.701 125.49 132.701 124.568 Z "
               fill="rgb(55,65,73)"
               id="path55" />
          </g>
          <path
             d=" M 166.622 73.38 L 90.028 73.38 C 80.412 73.38 72.615 81.177 72.615 90.791 L 72.615 166.763 C 72.615 176.38 80.412 184.174 90.028 184.174 L 166.622 184.174 C 176.238 184.174 184.033 176.38 184.033 166.763 L 184.033 90.791 C 184.033 81.177 176.238 73.38 166.622 73.38 L 166.622 73.38 Z "
             fill="none"
             id="path59" />
          <g
             opacity="0.5"
             id="g63">
            <path
               d=" M 83.387 66.352 L 83.387 66.405 L 84.355 66.405 L 99.913 66.405 L 100.879 66.405 L 100.879 65.438 L 100.879 59.074 L 100.879 58.107 L 99.913 58.107 L 96.915 58.107 C 96.174 58.107 95.574 57.507 95.574 56.766 L 95.574 44.744 L 95.574 43.778 L 94.606 43.778 L 89.654 43.778 L 88.687 43.778 L 88.687 44.744 L 88.687 56.766 C 88.687 57.506 88.086 58.107 87.347 58.107 L 84.355 58.107 L 83.387 58.107 L 83.387 59.074 L 83.387 65.437 L 83.387 66.349 L 83.387 66.352 L 83.387 66.352 Z "
               fill="rgb(55,65,73)"
               id="path61" />
          </g>
          <g
             opacity="0.5"
             id="g67">
            <path
               d=" M 124.04 66.405 L 125.008 66.405 L 125.008 65.438 L 125.008 59.074 L 125.008 58.107 L 124.04 58.107 L 121.052 58.107 C 120.312 58.107 119.712 57.507 119.712 56.766 L 119.712 44.744 L 119.712 43.778 L 118.745 43.778 L 113.791 43.778 L 112.824 43.778 L 112.824 44.744 L 112.824 56.766 C 112.824 57.506 112.224 58.107 111.484 58.107 L 108.481 58.107 L 107.514 58.107 L 107.514 59.074 L 107.514 65.437 L 107.514 66.405 L 108.481 66.405 L 124.04 66.405 L 124.04 66.405 Z "
               fill="rgb(55,65,73)"
               id="path65" />
          </g>
          <g
             opacity="0.5"
             id="g71">
            <path
               d=" M 131.642 66.352 L 131.642 66.405 L 132.608 66.405 L 148.167 66.405 L 149.134 66.405 L 149.134 65.438 L 149.134 59.074 L 149.134 58.107 L 148.167 58.107 L 145.169 58.107 C 144.43 58.107 143.83 57.507 143.83 56.766 L 143.83 44.744 L 143.83 43.778 L 142.862 43.778 L 137.91 43.778 L 136.943 43.778 L 136.943 44.744 L 136.943 56.766 C 136.943 57.506 136.342 58.107 135.602 58.107 L 132.608 58.107 L 131.642 58.107 L 131.642 59.074 L 131.642 65.437 L 131.642 66.349 L 131.642 66.352 L 131.642 66.352 Z "
               fill="rgb(55,65,73)"
               id="path69" />
          </g>
          <g
             opacity="0.5"
             id="g75">
            <path
               d=" M 172.294 66.405 L 173.261 66.405 L 173.261 65.438 L 173.261 59.074 L 173.261 58.107 L 172.294 58.107 L 169.289 58.107 C 168.548 58.107 167.948 57.507 167.948 56.766 L 167.948 44.744 L 167.948 43.778 L 166.982 43.778 L 162.048 43.778 L 161.08 43.778 L 161.08 44.744 L 161.08 56.766 C 161.08 57.506 160.48 58.107 159.741 58.107 L 156.737 58.107 L 155.77 58.107 L 155.77 59.074 L 155.77 65.437 L 155.77 66.405 L 156.737 66.405 L 172.294 66.405 L 172.294 66.405 Z "
               fill="rgb(55,65,73)"
               id="path73" />
          </g>
          <g
             opacity="0.5"
             id="g79">
            <path
               d=" M 156.736 191.149 L 155.769 191.149 L 155.769 192.117 L 155.769 198.481 L 155.769 199.449 L 156.736 199.449 L 159.735 199.449 C 160.474 199.449 161.074 200.048 161.074 200.788 L 161.074 212.81 L 161.074 213.778 L 162.042 213.778 L 166.995 213.778 L 167.961 213.778 L 167.961 212.81 L 167.961 200.789 C 167.961 200.048 168.562 199.449 169.302 199.449 L 172.293 199.449 L 173.202 199.449 L 173.207 199.449 L 173.207 199.449 L 173.261 199.449 L 173.261 198.481 L 173.261 192.117 L 173.261 191.15 L 172.293 191.15 L 156.736 191.15 L 156.736 191.149 Z "
               fill="rgb(55,65,73)"
               id="path77" />
          </g>
          <g
             opacity="0.5"
             id="g83">
            <path
               d=" M 132.608 191.149 L 131.642 191.149 L 131.642 192.117 L 131.642 198.481 L 131.642 199.393 L 131.642 199.395 L 131.642 199.395 L 131.642 199.449 L 132.608 199.449 L 135.596 199.449 C 136.337 199.449 136.937 200.048 136.937 200.788 L 136.937 212.81 L 136.937 213.778 L 137.904 213.778 L 142.857 213.778 L 143.824 213.778 L 143.824 212.81 L 143.824 200.789 C 143.824 200.048 144.425 199.449 145.164 199.449 L 148.167 199.449 L 149.076 199.449 L 149.081 199.449 L 149.081 199.449 L 149.134 199.449 L 149.134 198.481 L 149.134 192.117 L 149.134 191.15 L 148.167 191.15 L 132.608 191.15 L 132.608 191.149 Z "
               fill="rgb(55,65,73)"
               id="path81" />
          </g>
          <g
             opacity="0.5"
             id="g87">
            <path
               d=" M 108.481 191.149 L 107.514 191.149 L 107.514 192.117 L 107.514 198.481 L 107.514 199.449 L 108.481 199.449 L 111.479 199.449 C 112.219 199.449 112.818 200.048 112.818 200.788 L 112.818 212.81 L 112.818 213.778 L 113.786 213.778 L 118.739 213.778 L 119.707 213.778 L 119.707 212.81 L 119.707 200.789 C 119.707 200.048 120.306 199.449 121.046 199.449 L 124.04 199.449 L 124.949 199.449 L 124.954 199.449 L 124.954 199.449 L 125.007 199.449 L 125.007 198.481 L 125.007 192.117 L 125.007 191.15 L 124.04 191.15 L 108.481 191.15 L 108.481 191.149 Z "
               fill="rgb(55,65,73)"
               id="path85" />
          </g>
          <g
             opacity="0.5"
             id="g91">
            <path
               d=" M 84.355 191.149 L 83.387 191.149 L 83.387 192.117 L 83.387 198.481 L 83.387 199.393 L 83.387 199.395 L 83.387 199.395 L 83.387 199.449 L 84.355 199.449 L 87.359 199.449 C 88.1 199.449 88.701 200.048 88.701 200.788 L 88.701 212.81 L 88.701 213.722 L 88.701 213.724 L 88.701 213.724 L 88.701 213.778 L 89.668 213.778 L 94.6 213.778 L 95.568 213.778 L 95.568 212.81 L 95.568 200.789 C 95.568 200.048 96.168 199.449 96.908 199.449 L 99.913 199.449 L 100.82 199.449 L 100.827 199.449 L 100.827 199.449 L 100.879 199.449 L 100.879 198.481 L 100.879 192.117 L 100.879 191.15 L 99.913 191.15 L 84.355 191.15 L 84.355 191.149 Z "
               fill="rgb(55,65,73)"
               id="path89" />
          </g>
          <g
             opacity="0.5"
             id="g95">
            <path
               d=" M 212.357 89.139 L 200.336 89.139 C 199.596 89.139 198.995 88.54 198.995 87.799 L 198.995 84.809 L 198.995 83.841 L 198.029 83.841 L 191.663 83.841 L 190.697 83.841 L 190.697 84.809 L 190.697 100.367 L 190.697 101.335 L 191.663 101.335 L 198.029 101.335 L 198.995 101.335 L 198.995 100.367 L 198.995 97.367 C 198.995 96.627 199.596 96.028 200.336 96.028 L 212.357 96.028 L 213.268 96.028 L 213.271 96.028 L 213.271 96.028 L 213.324 96.028 L 213.324 95.06 L 213.324 90.107 L 213.324 89.139 L 212.357 89.139 L 212.357 89.139 Z "
               fill="rgb(55,65,73)"
               id="path93" />
          </g>
          <g
             opacity="0.5"
             id="g99">
            <path
               d=" M 200.336 113.278 C 199.595 113.278 198.995 112.677 198.995 111.936 L 198.995 108.935 L 198.995 107.968 L 198.029 107.968 L 191.663 107.968 L 190.753 107.968 L 190.749 107.968 L 190.749 107.968 L 190.697 107.968 L 190.697 108.935 L 190.697 124.493 L 190.697 125.46 L 191.663 125.46 L 198.029 125.46 L 198.995 125.46 L 198.995 124.493 L 198.995 121.506 C 198.995 120.765 199.595 120.165 200.336 120.165 L 212.356 120.165 L 213.324 120.165 L 213.324 119.197 L 213.324 114.245 L 213.324 113.277 L 212.357 113.277 L 200.336 113.277 L 200.336 113.278 Z "
               fill="rgb(55,65,73)"
               id="path97" />
          </g>
          <g
             opacity="0.5"
             id="g103">
            <path
               d=" M 200.336 137.396 C 199.595 137.396 198.995 136.796 198.995 136.055 L 198.995 133.062 L 198.995 132.094 L 198.029 132.094 L 191.663 132.094 L 190.697 132.094 L 190.697 133.062 L 190.697 148.621 L 190.697 149.588 L 191.663 149.588 L 198.029 149.588 L 198.995 149.588 L 198.995 148.621 L 198.995 145.623 C 198.995 144.883 199.595 144.282 200.336 144.282 L 212.356 144.282 L 213.268 144.282 L 213.271 144.284 L 213.271 144.282 L 213.324 144.282 L 213.324 143.316 L 213.324 138.364 L 213.324 137.397 L 212.357 137.397 L 200.336 137.397 L 200.336 137.396 Z "
               fill="rgb(55,65,73)"
               id="path101" />
          </g>
          <g
             opacity="0.5"
             id="g107">
            <path
               d=" M 200.336 161.533 C 199.595 161.533 198.995 160.934 198.995 160.194 L 198.995 157.19 L 198.995 156.222 L 198.029 156.222 L 191.663 156.222 L 190.697 156.222 L 190.697 157.19 L 190.697 172.747 L 190.697 173.714 L 191.663 173.714 L 198.029 173.714 L 198.995 173.714 L 198.995 172.747 L 198.995 169.742 C 198.995 169.002 199.595 168.401 200.336 168.401 L 212.356 168.401 L 213.324 168.401 L 213.324 167.434 L 213.324 162.502 L 213.324 161.534 L 212.357 161.534 L 200.336 161.534 L 200.336 161.533 Z "
               fill="rgb(55,65,73)"
               id="path105" />
          </g>
          <g
             opacity="0.5"
             id="g111">
            <path
               d=" M 58.621 156.222 L 57.653 156.222 L 57.653 157.19 L 57.653 160.187 C 57.653 160.927 57.053 161.528 56.312 161.528 L 44.292 161.528 L 43.324 161.528 L 43.324 162.496 L 43.324 167.447 L 43.324 168.415 L 44.292 168.415 L 56.312 168.415 C 57.053 168.415 57.653 169.015 57.653 169.756 L 57.653 172.747 L 57.653 173.713 L 58.621 173.713 L 64.985 173.713 L 65.952 173.713 L 65.952 172.747 L 65.952 157.19 L 65.952 156.222 L 64.985 156.222 L 58.621 156.222 Z "
               fill="rgb(55,65,73)"
               id="path109" />
          </g>
          <g
             opacity="0.5"
             id="g115">
            <path
               d=" M 58.621 132.094 L 57.653 132.094 L 57.653 133.062 L 57.653 136.05 C 57.653 136.79 57.053 137.39 56.312 137.39 L 44.292 137.39 L 43.324 137.39 L 43.324 138.357 L 43.324 143.31 L 43.324 144.278 L 44.292 144.278 L 56.312 144.278 C 57.053 144.278 57.653 144.877 57.653 145.618 L 57.653 148.62 L 57.653 149.588 L 58.621 149.588 L 64.985 149.588 L 65.952 149.588 L 65.952 148.62 L 65.952 133.062 L 65.952 132.094 L 64.985 132.094 L 58.621 132.094 Z "
               fill="rgb(55,65,73)"
               id="path113" />
          </g>
          <g
             opacity="0.5"
             id="g119">
            <path
               d=" M 58.621 107.967 L 57.709 107.967 L 57.707 107.967 L 57.707 107.967 L 57.653 107.967 L 57.653 108.935 L 57.653 111.932 C 57.653 112.673 57.053 113.272 56.312 113.272 L 44.292 113.272 L 43.324 113.272 L 43.324 114.239 L 43.324 119.191 L 43.324 120.159 L 44.292 120.159 L 56.312 120.159 C 57.053 120.159 57.653 120.758 57.653 121.499 L 57.653 124.492 L 57.653 125.459 L 58.621 125.459 L 64.985 125.459 L 65.952 125.459 L 65.952 124.492 L 65.952 108.935 L 65.952 107.967 L 64.985 107.967 L 58.621 107.967 L 58.621 107.967 Z "
               fill="rgb(55,65,73)"
               id="path117" />
          </g>
          <g
             opacity="0.5"
             id="g123">
            <path
               d=" M 58.621 83.841 L 57.653 83.841 L 57.653 84.808 L 57.653 87.813 C 57.653 88.554 57.053 89.153 56.312 89.153 L 44.292 89.153 L 43.324 89.153 L 43.324 90.12 L 43.324 95.054 L 43.324 96.022 L 44.292 96.022 L 56.312 96.022 C 57.053 96.022 57.653 96.621 57.653 97.362 L 57.653 100.366 L 57.653 101.334 L 58.621 101.334 L 64.985 101.334 L 65.952 101.334 L 65.952 100.366 L 65.952 84.808 L 65.952 83.84 L 64.985 83.84 L 58.621 83.84 L 58.621 83.841 Z "
               fill="rgb(55,65,73)"
               id="path121" />
          </g>
        </g>
        <defs
           id="defs129">
          <filter
             id="X1wE4poIpFHnZgMxUTyUo3P5Ui6PRscd"
             x="-200%"
             y="-200%"
             width="400%"
             height="400%">
            <feGaussianBlur
               stdDeviation="10.24"
               id="feGaussianBlur126" />
          </filter>
        </defs>
        <g
           id="g1062">
          <linearGradient
             id="_lgradient_30"
             x1="-1140.052006934258%"
             y1="100.17509001200216%"
             x2="-1140.052006934258%"
             y2="-0.25778103747158276%">
            <stop
               offset="0%"
               stop-opacity="1"
               style="stop-color:rgb(200,200,200)"
               id="stop131" />
            <stop
               offset="100%"
               stop-opacity="1"
               style="stop-color:rgb(234,234,234)"
               id="stop133" />
          </linearGradient>
          <path
             d=" M 166.622 73.38 L 90.028 73.38 C 80.412 73.38 72.615 81.177 72.615 90.791 L 72.615 166.763 C 72.615 176.38 80.412 184.174 90.028 184.174 L 166.622 184.174 C 176.238 184.174 184.033 176.38 184.033 166.763 L 184.033 90.791 C 184.033 81.177 176.238 73.38 166.622 73.38 L 166.622 73.38 Z "
             fill="url(#_lgradient_30)"
             id="path136" />
          <path
             d=" M 83.387 66.352 L 83.387 66.405 L 84.355 66.405 L 99.913 66.405 L 100.879 66.405 L 100.879 65.438 L 100.879 59.074 L 100.879 58.107 L 99.913 58.107 L 96.915 58.107 C 96.174 58.107 95.574 57.507 95.574 56.766 L 95.574 44.744 L 95.574 43.778 L 94.606 43.778 L 89.654 43.778 L 88.687 43.778 L 88.687 44.744 L 88.687 56.766 C 88.687 57.506 88.086 58.107 87.347 58.107 L 84.355 58.107 L 83.387 58.107 L 83.387 59.074 L 83.387 65.437 L 83.387 66.349 L 83.387 66.352 L 83.387 66.352 Z "
             fill="rgb(166,215,79)"
             id="path138" />
          <path
             d=" M 124.04 66.405 L 125.008 66.405 L 125.008 65.438 L 125.008 59.074 L 125.008 58.107 L 124.04 58.107 L 121.052 58.107 C 120.312 58.107 119.712 57.507 119.712 56.766 L 119.712 44.744 L 119.712 43.778 L 118.745 43.778 L 113.791 43.778 L 112.824 43.778 L 112.824 44.744 L 112.824 56.766 C 112.824 57.506 112.224 58.107 111.484 58.107 L 108.481 58.107 L 107.514 58.107 L 107.514 59.074 L 107.514 65.437 L 107.514 66.405 L 108.481 66.405 L 124.04 66.405 L 124.04 66.405 Z "
             fill="rgb(166,215,79)"
             id="path140" />
          <path
             d=" M 131.642 66.352 L 131.642 66.405 L 132.608 66.405 L 148.167 66.405 L 149.134 66.405 L 149.134 65.438 L 149.134 59.074 L 149.134 58.107 L 148.167 58.107 L 145.169 58.107 C 144.43 58.107 143.83 57.507 143.83 56.766 L 143.83 44.744 L 143.83 43.778 L 142.862 43.778 L 137.91 43.778 L 136.943 43.778 L 136.943 44.744 L 136.943 56.766 C 136.943 57.506 136.342 58.107 135.602 58.107 L 132.608 58.107 L 131.642 58.107 L 131.642 59.074 L 131.642 65.437 L 131.642 66.349 L 131.642 66.352 L 131.642 66.352 Z "
             fill="rgb(166,215,79)"
             id="path142" />
          <path
             d=" M 172.294 66.405 L 173.261 66.405 L 173.261 65.438 L 173.261 59.074 L 173.261 58.107 L 172.294 58.107 L 169.289 58.107 C 168.548 58.107 167.948 57.507 167.948 56.766 L 167.948 44.744 L 167.948 43.778 L 166.982 43.778 L 162.048 43.778 L 161.08 43.778 L 161.08 44.744 L 161.08 56.766 C 161.08 57.506 160.48 58.107 159.741 58.107 L 156.737 58.107 L 155.77 58.107 L 155.77 59.074 L 155.77 65.437 L 155.77 66.405 L 156.737 66.405 L 172.294 66.405 L 172.294 66.405 Z "
             fill="rgb(166,215,79)"
             id="path144" />
          <path
             d=" M 156.736 191.149 L 155.769 191.149 L 155.769 192.117 L 155.769 198.481 L 155.769 199.449 L 156.736 199.449 L 159.735 199.449 C 160.474 199.449 161.074 200.048 161.074 200.788 L 161.074 212.81 L 161.074 213.778 L 162.042 213.778 L 166.995 213.778 L 167.961 213.778 L 167.961 212.81 L 167.961 200.789 C 167.961 200.048 168.562 199.449 169.302 199.449 L 172.293 199.449 L 173.202 199.449 L 173.207 199.449 L 173.207 199.449 L 173.261 199.449 L 173.261 198.481 L 173.261 192.117 L 173.261 191.15 L 172.293 191.15 L 156.736 191.15 L 156.736 191.149 Z "
             fill="rgb(166,215,79)"
             id="path146" />
          <path
             d=" M 132.608 191.149 L 131.642 191.149 L 131.642 192.117 L 131.642 198.481 L 131.642 199.393 L 131.642 199.395 L 131.642 199.395 L 131.642 199.449 L 132.608 199.449 L 135.596 199.449 C 136.337 199.449 136.937 200.048 136.937 200.788 L 136.937 212.81 L 136.937 213.778 L 137.904 213.778 L 142.857 213.778 L 143.824 213.778 L 143.824 212.81 L 143.824 200.789 C 143.824 200.048 144.425 199.449 145.164 199.449 L 148.167 199.449 L 149.076 199.449 L 149.081 199.449 L 149.081 199.449 L 149.134 199.449 L 149.134 198.481 L 149.134 192.117 L 149.134 191.15 L 148.167 191.15 L 132.608 191.15 L 132.608 191.149 Z "
             fill="rgb(166,215,79)"
             id="path148" />
          <path
             d=" M 108.481 191.149 L 107.514 191.149 L 107.514 192.117 L 107.514 198.481 L 107.514 199.449 L 108.481 199.449 L 111.479 199.449 C 112.219 199.449 112.818 200.048 112.818 200.788 L 112.818 212.81 L 112.818 213.778 L 113.786 213.778 L 118.739 213.778 L 119.707 213.778 L 119.707 212.81 L 119.707 200.789 C 119.707 200.048 120.306 199.449 121.046 199.449 L 124.04 199.449 L 124.949 199.449 L 124.954 199.449 L 124.954 199.449 L 125.007 199.449 L 125.007 198.481 L 125.007 192.117 L 125.007 191.15 L 124.04 191.15 L 108.481 191.15 L 108.481 191.149 Z "
             fill="rgb(166,215,79)"
             id="path150" />
          <path
             d=" M 84.355 191.149 L 83.387 191.149 L 83.387 192.117 L 83.387 198.481 L 83.387 199.393 L 83.387 199.395 L 83.387 199.395 L 83.387 199.449 L 84.355 199.449 L 87.359 199.449 C 88.1 199.449 88.701 200.048 88.701 200.788 L 88.701 212.81 L 88.701 213.722 L 88.701 213.724 L 88.701 213.724 L 88.701 213.778 L 89.668 213.778 L 94.6 213.778 L 95.568 213.778 L 95.568 212.81 L 95.568 200.789 C 95.568 200.048 96.168 199.449 96.908 199.449 L 99.913 199.449 L 100.82 199.449 L 100.827 199.449 L 100.827 199.449 L 100.879 199.449 L 100.879 198.481 L 100.879 192.117 L 100.879 191.15 L 99.913 191.15 L 84.355 191.15 L 84.355 191.149 Z "
             fill="rgb(166,215,79)"
             id="path152" />
          <path
             d=" M 212.357 89.139 L 200.336 89.139 C 199.596 89.139 198.995 88.54 198.995 87.799 L 198.995 84.809 L 198.995 83.841 L 198.029 83.841 L 191.663 83.841 L 190.697 83.841 L 190.697 84.809 L 190.697 100.367 L 190.697 101.335 L 191.663 101.335 L 198.029 101.335 L 198.995 101.335 L 198.995 100.367 L 198.995 97.367 C 198.995 96.627 199.596 96.028 200.336 96.028 L 212.357 96.028 L 213.268 96.028 L 213.271 96.028 L 213.271 96.028 L 213.324 96.028 L 213.324 95.06 L 213.324 90.107 L 213.324 89.139 L 212.357 89.139 L 212.357 89.139 Z "
             fill="rgb(166,215,79)"
             id="path154" />
          <path
             d=" M 200.336 113.278 C 199.595 113.278 198.995 112.677 198.995 111.936 L 198.995 108.935 L 198.995 107.968 L 198.029 107.968 L 191.663 107.968 L 190.753 107.968 L 190.749 107.968 L 190.749 107.968 L 190.697 107.968 L 190.697 108.935 L 190.697 124.493 L 190.697 125.46 L 191.663 125.46 L 198.029 125.46 L 198.995 125.46 L 198.995 124.493 L 198.995 121.506 C 198.995 120.765 199.595 120.165 200.336 120.165 L 212.356 120.165 L 213.324 120.165 L 213.324 119.197 L 213.324 114.245 L 213.324 113.277 L 212.357 113.277 L 200.336 113.277 L 200.336 113.278 Z "
             fill="rgb(166,215,79)"
             id="path156" />
          <path
             d=" M 200.336 137.396 C 199.595 137.396 198.995 136.796 198.995 136.055 L 198.995 133.062 L 198.995 132.094 L 198.029 132.094 L 191.663 132.094 L 190.697 132.094 L 190.697 133.062 L 190.697 148.621 L 190.697 149.588 L 191.663 149.588 L 198.029 149.588 L 198.995 149.588 L 198.995 148.621 L 198.995 145.623 C 198.995 144.883 199.595 144.282 200.336 144.282 L 212.356 144.282 L 213.268 144.282 L 213.271 144.284 L 213.271 144.282 L 213.324 144.282 L 213.324 143.316 L 213.324 138.364 L 213.324 137.397 L 212.357 137.397 L 200.336 137.397 L 200.336 137.396 Z "
             fill="rgb(166,215,79)"
             id="path158" />
          <path
             d=" M 200.336 161.533 C 199.595 161.533 198.995 160.934 198.995 160.194 L 198.995 157.19 L 198.995 156.222 L 198.029 156.222 L 191.663 156.222 L 190.697 156.222 L 190.697 157.19 L 190.697 172.747 L 190.697 173.714 L 191.663 173.714 L 198.029 173.714 L 198.995 173.714 L 198.995 172.747 L 198.995 169.742 C 198.995 169.002 199.595 168.401 200.336 168.401 L 212.356 168.401 L 213.324 168.401 L 213.324 167.434 L 213.324 162.502 L 213.324 161.534 L 212.357 161.534 L 200.336 161.534 L 200.336 161.533 Z "
             fill="rgb(166,215,79)"
             id="path160" />
          <path
             d=" M 58.621 156.222 L 57.653 156.222 L 57.653 157.19 L 57.653 160.187 C 57.653 160.927 57.053 161.528 56.312 161.528 L 44.292 161.528 L 43.324 161.528 L 43.324 162.496 L 43.324 167.447 L 43.324 168.415 L 44.292 168.415 L 56.312 168.415 C 57.053 168.415 57.653 169.015 57.653 169.756 L 57.653 172.747 L 57.653 173.713 L 58.621 173.713 L 64.985 173.713 L 65.952 173.713 L 65.952 172.747 L 65.952 157.19 L 65.952 156.222 L 64.985 156.222 L 58.621 156.222 Z "
             fill="rgb(166,215,79)"
             id="path162" />
          <path
             d=" M 58.621 132.094 L 57.653 132.094 L 57.653 133.062 L 57.653 136.05 C 57.653 136.79 57.053 137.39 56.312 137.39 L 44.292 137.39 L 43.324 137.39 L 43.324 138.357 L 43.324 143.31 L 43.324 144.278 L 44.292 144.278 L 56.312 144.278 C 57.053 144.278 57.653 144.877 57.653 145.618 L 57.653 148.62 L 57.653 149.588 L 58.621 149.588 L 64.985 149.588 L 65.952 149.588 L 65.952 148.62 L 65.952 133.062 L 65.952 132.094 L 64.985 132.094 L 58.621 132.094 Z "
             fill="rgb(166,215,79)"
             id="path164" />
          <path
             d=" M 58.621 107.967 L 57.709 107.967 L 57.707 107.967 L 57.707 107.967 L 57.653 107.967 L 57.653 108.935 L 57.653 111.932 C 57.653 112.673 57.053 113.272 56.312 113.272 L 44.292 113.272 L 43.324 113.272 L 43.324 114.239 L 43.324 119.191 L 43.324 120.159 L 44.292 120.159 L 56.312 120.159 C 57.053 120.159 57.653 120.758 57.653 121.499 L 57.653 124.492 L 57.653 125.459 L 58.621 125.459 L 64.985 125.459 L 65.952 125.459 L 65.952 124.492 L 65.952 108.935 L 65.952 107.967 L 64.985 107.967 L 58.621 107.967 L 58.621 107.967 Z "
             fill="rgb(166,215,79)"
             id="path166" />
          <path
             d=" M 58.621 83.841 L 57.653 83.841 L 57.653 84.808 L 57.653 87.813 C 57.653 88.554 57.053 89.153 56.312 89.153 L 44.292 89.153 L 43.324 89.153 L 43.324 90.12 L 43.324 95.054 L 43.324 96.022 L 44.292 96.022 L 56.312 96.022 C 57.053 96.022 57.653 96.621 57.653 97.362 L 57.653 100.366 L 57.653 101.334 L 58.621 101.334 L 64.985 101.334 L 65.952 101.334 L 65.952 100.366 L 65.952 84.808 L 65.952 83.84 L 64.985 83.84 L 58.621 83.84 L 58.621 83.841 Z "
             fill="rgb(166,215,79)"
             id="path168" />
        </g>
        <path
           d=" M 104.97 144.547 L 104.97 144.547 L 104.97 144.547 Q 101.423 144.547 98.929 142.462 L 98.929 142.462 L 98.929 142.462 Q 96.435 140.377 95.325 137.279 L 95.325 137.279 L 95.325 137.279 Q 94.214 134.181 94.214 130.44 L 94.214 130.44 L 94.214 130.44 Q 94.214 126.894 95.364 123.757 L 95.364 123.757 L 95.364 123.757 Q 96.513 120.62 99.027 118.477 L 99.027 118.477 L 99.027 118.477 Q 101.54 116.333 104.97 116.333 L 104.97 116.333 L 104.97 116.333 Q 108.126 116.333 110.055 117.814 L 110.055 117.814 L 110.055 117.814 Q 111.984 119.295 113.387 121.828 L 113.387 121.828 L 109.295 124.166 L 109.295 124.166 Q 107.463 120.737 104.97 120.737 L 104.97 120.737 L 104.97 120.737 Q 102.904 120.737 101.521 122.315 L 101.521 122.315 L 101.521 122.315 Q 100.137 123.893 99.592 125.978 L 99.592 125.978 L 99.592 125.978 Q 99.046 128.063 99.046 130.44 L 99.046 130.44 L 99.046 130.44 Q 99.046 134.454 100.566 137.298 L 100.566 137.298 L 100.566 137.298 Q 102.086 140.143 104.97 140.143 L 104.97 140.143 L 104.97 140.143 Q 107.074 140.143 108.184 138.74 L 108.184 138.74 L 108.184 138.74 Q 109.295 137.337 109.295 135.077 L 109.295 135.077 L 109.295 134.493 L 104.541 134.493 L 104.541 130.128 L 114.049 130.128 L 114.049 133.908 L 114.049 133.908 Q 114.049 138.935 111.516 141.741 L 111.516 141.741 L 111.516 141.741 Q 108.983 144.547 104.97 144.547 Z  M 124.142 144.079 L 119.505 144.079 L 119.505 116.801 L 129.13 116.801 L 129.13 116.801 Q 133.845 116.801 136.047 119.256 L 136.047 119.256 L 136.047 119.256 Q 138.249 121.711 138.249 125.257 L 138.249 125.257 L 138.249 125.257 Q 138.249 128.608 135.95 131.161 L 135.95 131.161 L 135.95 131.161 Q 133.65 133.713 129.13 133.713 L 129.13 133.713 L 124.142 133.713 L 124.142 144.079 Z  M 124.142 121.165 L 124.142 129.349 L 129.364 129.349 L 129.364 129.349 Q 131.468 129.349 132.501 128.141 L 132.501 128.141 L 132.501 128.141 Q 133.534 126.933 133.534 125.257 L 133.534 125.257 L 133.534 125.257 Q 133.534 123.659 132.54 122.412 L 132.54 122.412 L 132.54 122.412 Q 131.546 121.165 129.364 121.165 L 129.364 121.165 L 124.142 121.165 Z  M 152.55 144.547 L 152.55 144.547 L 152.55 144.547 Q 148.498 144.547 145.926 141.955 L 145.926 141.955 L 145.926 141.955 Q 143.354 139.364 143.354 133.674 L 143.354 133.674 L 143.354 116.801 L 147.952 116.801 L 147.952 133.674 L 147.952 133.674 Q 147.952 137.221 149.16 138.682 L 149.16 138.682 L 149.16 138.682 Q 150.368 140.143 152.55 140.143 L 152.55 140.143 L 152.55 140.143 Q 157.149 140.143 157.149 133.674 L 157.149 133.674 L 157.149 116.801 L 161.786 116.801 L 161.786 133.674 L 161.786 133.674 Q 161.786 139.286 159.214 141.916 L 159.214 141.916 L 159.214 141.916 Q 156.642 144.547 152.55 144.547 Z "
           fill-rule="evenodd"
           fill="rgb(51,51,51)"
           id="path171" />
      </g>
    </g>
  </g>
</svg>
