<svg xmlns="http://www.w3.org/2000/svg" style="isolation:isolate" width="256" height="256"><defs><clipPath id="a"><path d="M0 0h256v256H0z"/></clipPath></defs><switch><g clip-path="url(#a)"><defs><filter id="b" width="270.648" height="254.338" x="-7.32" y="2.95" filterUnits="userSpaceOnUse"><feGaussianBlur xmlns="http://www.w3.org/2000/svg" in="SourceGraphic" stdDeviation="4.294"/><feOffset xmlns="http://www.w3.org/2000/svg" dy="4" result="pf_100_offsetBlur"/><feFlood xmlns="http://www.w3.org/2000/svg" flood-opacity=".4"/><feComposite xmlns="http://www.w3.org/2000/svg" in2="pf_100_offsetBlur" operator="in" result="pf_100_dropShadow"/><feBlend xmlns="http://www.w3.org/2000/svg" in="SourceGraphic" in2="pf_100_dropShadow"/></filter></defs><g filter="url(#b)"><linearGradient id="c" x1=".51" x2=".512" y1="1.06" y2=".158" gradientTransform="matrix(244.648 0 0 228.338 5.676 11.947)" gradientUnits="userSpaceOnUse"><stop offset="0%" stop-color="#00d2ff"/><stop offset="100%" stop-color="#928dab"/></linearGradient><path fill="url(#c)" d="M165.685 11.947c74.055 0 84.639 10.557 84.639 84.544v59.251c0 73.986-10.584 84.543-84.639 84.543h-75.37c-74.055 0-84.639-10.557-84.639-84.543V96.491c0-73.987 10.584-84.544 84.639-84.544h75.37z"/></g><path fill="#FFF" d="M6.357 83.58l205.409 153.03c-11.562 2.311-26.426 3.019-45.523 3.019h-75.37c-74.055 0-84.639-10.558-84.639-84.544V95.834c0-4.303.041-8.37.123-12.254z" opacity=".1"/><g opacity=".4"><linearGradient id="d" x1=".517" x2=".517" y2="1"><stop offset="0%" stop-color="#fff"/><stop offset="12.5%" stop-opacity=".098" stop-color="#fff"/><stop offset="92.5%" stop-opacity=".098"/><stop offset="100%" stop-opacity=".498"/></linearGradient><path fill="none" stroke="url(#d)" stroke-linecap="round" stroke-linejoin="round" stroke-width="4.077" d="M165.685 11.947c74.055 0 84.639 10.557 84.639 84.544v59.251c0 73.986-10.584 84.543-84.639 84.543h-75.37c-74.055 0-84.639-10.557-84.639-84.543V96.491c0-73.987 10.584-84.544 84.639-84.544h75.37z" vector-effect="non-scaling-stroke"/></g><path fill="#FFF" fill-rule="evenodd" d="M60.333 127c0-37.346 30.321-67.667 67.667-67.667 37.346 0 67.667 30.321 67.667 67.667 0 37.346-30.321 67.667-67.667 67.667-37.346 0-67.667-30.321-67.667-67.667zm91.969-53.323c-7.403-3.38-15.632-5.263-24.302-5.263-2.437 0-4.839.149-7.197.438-8.718 12.058-13.236 31.64-12.876 43.635 0 0-.576 17.825 11.642 24.147 0 0 10.981 4.815 18.464-10.754 0 0 5.142-8.785 3.049-28.641 0 0 2.003.353 2.23.669.226.314 4.423 15.287 1.474 27.896 0 0-2.715 14.817-16.063 18.205-13.343 3.389-23.742-4.809-30.802-12.532-5.24-5.73-13.009-21.088-16.869-39.528a58.336 58.336 0 0 0-11.638 35.053c0 9.123 2.085 17.758 5.804 25.456 12.809 3.808 45.974 11.429 67.03-4.003 13.864-10.163 12.078-26.438 12.078-26.438-.23-12.379-7.766-24.676-7.766-24.676 29.306 26.513 11.984 55.967 11.984 55.967-8.042 16.426-24.55 26.948-39.023 31.671a58.97 58.97 0 0 0 8.479.61c32.356 0 58.586-26.23 58.586-58.587a58.336 58.336 0 0 0-12.91-36.691c-2.875.198-6.22.316-9.691.201 0 0-15.593.729-24.336 5.09 0 0-6.52 2.907-13.038 7.837 0 0-1.383.691-1.316 3.231.059 2.533-1.327 9.286-5.945 13.243 0 0-3.296 1.695-1.648 4.12 0 0 2.226 3.233 5.361-.162 0 0 8.086-8.319 8.58-21.724 0 0 2.559-2.184 6.598-2.828 0 0 .744 20.11-9.235 30.207 0 0-9.493 10.338-12.543-5.008 0 0-3.713-14.62 15.43-31.983 0 0 12.814-12.798 20.409-18.858zM128 191.447c-35.592 0-64.444-28.853-64.444-64.445 0-35.591 28.853-64.446 64.444-64.446 35.592 0 64.445 28.855 64.445 64.446 0 35.592-28.853 64.445-64.445 64.445z"/><g fill="#FFF"><path d="M229.654 127.672a8.924 8.924 0 0 0-7.632-4.357h-9.928c-2.45-44.317-39.173-79.648-84.094-79.648a83.771 83.771 0 0 0-59.53 24.602l6.616 6.634A74.476 74.476 0 0 1 128 53.037c39.754 0 73.064 30.064 75.5 69.213 1 11.25-1.5 23.75-6.006 34.754l2.269 3.684a8.98 8.98 0 0 0 7.885 4.793c3.35 0 6.409-1.907 7.805-4.661l14.548-23.665a9.745 9.745 0 0 0-.347-9.483zM128 202.963c-39.754 0-72.287-31.129-74.724-70.278-1.019-12.405.566-23.927 4.545-34.777l-1.485-2.409a8.986 8.986 0 0 0-7.984-4.98c-3.284 0-6.283 1.832-7.885 4.793L25.999 118.84a9.745 9.745 0 0 0 .347 9.483c1.663 2.727 4.516 4.357 7.627 4.357h9.928c2.455 44.322 39.178 79.653 84.099 79.653a83.771 83.771 0 0 0 59.53-24.602l-6.616-6.634A74.476 74.476 0 0 1 128 202.963z"/></g></g></switch> </svg>