<?xml version="1.0" encoding="UTF-8" standalone="no"?>
<!-- Generator: Gravit.io -->

<svg
   xmlns:dc="http://purl.org/dc/elements/1.1/"
   xmlns:cc="http://creativecommons.org/ns#"
   xmlns:rdf="http://www.w3.org/1999/02/22-rdf-syntax-ns#"
   xmlns:svg="http://www.w3.org/2000/svg"
   xmlns="http://www.w3.org/2000/svg"
   xmlns:sodipodi="http://sodipodi.sourceforge.net/DTD/sodipodi-0.dtd"
   xmlns:inkscape="http://www.inkscape.org/namespaces/inkscape"
   style="isolation:isolate"
   viewBox="0 0 256 256"
   width="256"
   height="256"
   version="1.1"
   id="svg133"
   sodipodi:docname="deepin-font-installer.svg"
   inkscape:version="0.92.2pre0 (973e216, 2017-07-25)">
  <metadata
     id="metadata137">
    <rdf:RDF>
      <cc:Work
         rdf:about="">
        <dc:format>image/svg+xml</dc:format>
        <dc:type
           rdf:resource="http://purl.org/dc/dcmitype/StillImage" />
      </cc:Work>
    </rdf:RDF>
  </metadata>
  <sodipodi:namedview
     pagecolor="#ffffff"
     bordercolor="#666666"
     borderopacity="1"
     objecttolerance="10"
     gridtolerance="10"
     guidetolerance="10"
     inkscape:pageopacity="0"
     inkscape:pageshadow="2"
     inkscape:window-width="1920"
     inkscape:window-height="1009"
     id="namedview135"
     showgrid="false"
     inkscape:zoom="0.921875"
     inkscape:cx="128"
     inkscape:cy="128"
     inkscape:window-x="0"
     inkscape:window-y="0"
     inkscape:window-maximized="1"
     inkscape:current-layer="g131" />
  <defs
     id="defs5">
    <clipPath
       id="_clipPath_FhenaSz9meeBvBYbxKVqAThj6LpWJJU4">
      <rect
         width="256"
         height="256"
         id="rect2" />
    </clipPath>
  </defs>
  <g
     clip-path="url(#_clipPath_FhenaSz9meeBvBYbxKVqAThj6LpWJJU4)"
     id="g131">
    <g
       id="icon">
      <g
         id="drop shadow">
        <defs
           id="defs12">
          <filter
             id="5nn2wGMOfpnVtCRbaUPZBRRW0iAMGXhL"
             x="-200%"
             y="-200%"
             width="400%"
             height="400%">
            <feGaussianBlur
               stdDeviation="2.32"
               id="feGaussianBlur9" />
          </filter>
        </defs>
        <g
           opacity="0.2"
           filter="url(#5nn2wGMOfpnVtCRbaUPZBRRW0iAMGXhL)"
           id="g16">
          <path
             d=" M 165.352 16.516 C 239.408 16.516 249.992 27.073 249.992 101.06 L 249.992 160.312 C 249.992 234.298 239.408 244.856 165.352 244.856 L 89.982 244.856 C 15.925 244.856 5.342 234.298 5.342 160.312 L 5.342 101.06 C 5.342 27.073 15.925 16.516 89.982 16.516 L 165.352 16.516 Z "
             fill="rgb(0,0,0)"
             id="path14" />
        </g>
        <defs
           id="defs21">
          <filter
             id="9yxK1hXYislwKXRLSDCfHz2htKVAYoo5"
             x="-200%"
             y="-200%"
             width="400%"
             height="400%">
            <feGaussianBlur
               stdDeviation="1.16"
               id="feGaussianBlur18" />
          </filter>
        </defs>
        <g
           opacity="0.1"
           filter="url(#9yxK1hXYislwKXRLSDCfHz2htKVAYoo5)"
           id="g25">
          <path
             d=" M 165.352 15.497 C 239.408 15.497 249.992 26.054 249.992 100.041 L 249.992 159.292 C 249.992 233.279 239.408 243.837 165.352 243.837 L 89.982 243.837 C 15.925 243.837 5.342 233.279 5.342 159.292 L 5.342 100.041 C 5.342 26.054 15.925 15.497 89.982 15.497 L 165.352 15.497 Z "
             fill="rgb(0,0,0)"
             id="path23" />
        </g>
      </g>
      <path
         d=" M 165.352 14.477 C 239.408 14.477 249.992 25.035 249.992 99.022 L 249.992 158.273 C 249.992 232.26 239.408 242.817 165.352 242.817 L 89.982 242.817 C 15.925 242.817 5.342 232.26 5.342 158.273 L 5.342 99.022 C 5.342 25.035 15.925 14.477 89.982 14.477 L 165.352 14.477 Z "
         fill="rgb(255,255,255)"
         id="path28" />
      <clipPath
         id="_clipPath_xXxm6gePZg18T87UgHRLIXpMwg1TR1Ai">
        <path
           d=" M 165.352 14.477 C 239.408 14.477 249.992 25.035 249.992 99.022 L 249.992 158.273 C 249.992 232.26 239.408 242.817 165.352 242.817 L 89.982 242.817 C 15.925 242.817 5.342 232.26 5.342 158.273 L 5.342 99.022 C 5.342 25.035 15.925 14.477 89.982 14.477 L 165.352 14.477 Z "
           fill="rgb(255,255,255)"
           id="path30" />
      </clipPath>
      <g
         clip-path="url(#_clipPath_xXxm6gePZg18T87UgHRLIXpMwg1TR1Ai)"
         id="g109">
        <path
           d=" M 165.352 14.477 C 239.408 14.477 249.992 25.035 249.992 99.022 L 249.992 158.273 C 249.992 232.26 239.408 242.817 165.352 242.817 L 89.982 242.817 C 15.925 242.817 5.342 232.26 5.342 158.273 L 5.342 99.022 C 5.342 25.035 15.925 14.477 89.982 14.477 L 165.352 14.477 Z "
           fill="rgb(55,166,230)"
           id="path33" />
        <g
           opacity="0.1"
           id="g37">
          <path
             d=" M 90.983 242.982 C 16.927 242.982 6.343 232.425 6.343 158.439 L 6.343 128.813 L 250.992 128.813 L 250.992 158.439 C 250.992 232.425 240.408 242.982 166.352 242.982 L 90.983 242.982 Z "
             fill="rgb(255,255,255)"
             id="path35" />
        </g>
        <g
           opacity="0.1"
           id="g41">
          <path
             d=" M 128.667 14.644 L 128.667 242.982 L 166.352 242.982 C 240.408 242.982 250.992 232.425 250.992 158.439 L 250.992 99.188 C 250.992 25.201 240.408 14.644 166.352 14.644 L 128.667 14.644 Z "
             fill="rgb(255,255,255)"
             id="path39" />
        </g>
        <g
           id="deepin-font-installer"
           filter="url(#zCFdGkBL7TbkZhPKeHR1uQsfuIadUSXx)">
          <path
             d=" M 185.515 102.808 L 188.92 102.808 C 190.896 102.808 193.15 104.274 193.951 106.071 L 205.382 131.721 C 206.185 133.523 205.228 134.983 203.254 134.983 L 192.665 134.983 L 192.665 195.747 C 192.665 197.727 191.061 199.333 189.089 199.333 L 67.542 199.333 C 65.566 199.333 63.965 197.72 63.965 195.747 L 63.965 134.983 L 53.079 134.983 C 51.101 134.983 50.149 133.517 50.947 131.721 L 62.347 106.071 C 63.148 104.269 65.401 102.808 67.373 102.808 L 71.115 102.808 L 71.115 59.908 C 71.115 57.835 72.461 56.333 74.69 56.333 L 149.801 56.333 L 185.515 92.083 L 185.515 102.808 Z "
             fill="rgb(0,0,0)"
             id="path43" />
          <path
             d=" M 185.515 102.808 L 188.92 102.808 C 190.896 102.808 193.15 104.274 193.951 106.071 L 205.382 131.721 C 206.185 133.523 205.228 134.983 203.254 134.983 L 192.665 134.983 L 192.665 195.747 C 192.665 197.727 191.061 199.333 189.089 199.333 L 67.542 199.333 C 65.566 199.333 63.965 197.72 63.965 195.747 L 63.965 134.983 L 53.079 134.983 C 51.101 134.983 50.149 133.517 50.947 131.721 L 62.347 106.071 C 63.148 104.269 65.401 102.808 67.373 102.808 L 71.115 102.808 L 71.115 59.908 C 71.115 57.835 72.461 56.333 74.69 56.333 L 149.801 56.333 L 185.515 92.083 L 185.515 102.808 Z "
             fill="rgb(0,0,0)"
             id="path45" />
          <path
             d=" M 181.944 195.758 L 74.69 195.758 C 72.461 195.758 71.115 194.057 71.115 192.183 L 71.115 59.908 C 71.115 57.835 72.461 56.333 74.69 56.333 L 149.801 56.333 L 185.515 92.083 L 185.515 192.183 C 185.401 195.758 181.944 195.758 181.944 195.758 Z "
             fill-rule="evenodd"
             fill="rgb(146,215,0)"
             id="path47" />
          <path
             d=" M 181.944 195.758 L 74.69 195.758 C 72.461 195.758 71.115 194.057 71.115 192.183 L 71.115 59.908 C 71.115 57.835 72.461 56.333 74.69 56.333 L 149.801 56.333 L 185.515 92.083 L 185.515 192.183 C 185.401 195.758 181.944 195.758 181.944 195.758 Z "
             fill-rule="evenodd"
             fill="rgb(234,179,5)"
             id="path49" />
          <g
             opacity="0.1"
             id="g53">
            <path
               d=" M 71.115 192.183 C 71.115 194.057 72.461 195.758 74.69 195.758 L 181.944 195.758 C 181.944 195.758 185.401 195.758 185.515 192.183 L 185.515 190.396 C 185.401 193.971 181.944 193.971 181.944 193.971 L 74.69 193.971 C 72.461 193.971 71.115 192.269 71.115 190.396 L 71.115 192.183 Z "
               fill-rule="evenodd"
               fill="rgb(0,0,0)"
               id="path51" />
          </g>
          <g
             opacity="0.196711754"
             id="g57">
            <path
               d=" M 71.115 59.908 C 71.115 57.835 72.461 56.333 74.69 56.333 L 149.801 56.333 L 149.801 58.121 L 74.69 58.121 C 72.461 58.121 71.115 59.622 71.115 61.696 L 71.115 126.94 L 71.115 59.908 Z "
               fill-rule="evenodd"
               fill="rgb(255,255,255)"
               id="path55" />
          </g>
          <path
             d=" M 137.214 126.046 L 118.644 126.046 L 118.644 123.815 C 120.278 123.71 121.635 123.501 122.713 123.187 C 123.792 122.872 124.332 122.485 124.332 122.024 C 124.332 121.835 124.311 121.605 124.269 121.333 C 124.227 121.06 124.164 120.819 124.08 120.61 L 120.373 110.618 L 104.756 110.618 C 104.17 112.084 103.693 113.362 103.327 114.452 C 102.96 115.541 102.63 116.546 102.337 117.468 C 102.065 118.369 101.876 119.102 101.771 119.667 C 101.667 120.233 101.614 120.694 101.614 121.05 C 101.614 121.888 102.274 122.537 103.594 122.998 C 104.913 123.459 106.401 123.731 108.056 123.815 L 108.056 126.046 L 91.277 126.046 L 91.277 123.815 C 91.821 123.773 92.502 123.653 93.319 123.454 C 94.136 123.255 94.806 122.988 95.33 122.652 C 96.168 122.087 96.817 121.495 97.278 120.877 C 97.739 120.259 98.189 119.406 98.629 118.316 C 100.871 112.723 103.342 106.439 106.045 99.464 C 108.747 92.488 111.156 86.277 113.271 80.831 L 115.785 80.831 L 130.647 119.29 C 130.961 120.107 131.317 120.767 131.715 121.27 C 132.113 121.773 132.669 122.265 133.381 122.747 C 133.863 123.04 134.491 123.286 135.266 123.485 C 136.041 123.684 136.69 123.794 137.214 123.815 L 137.214 126.046 Z  M 119.241 107.822 L 112.486 90.54 L 105.856 107.822 L 119.241 107.822 Z  M 167.347 125.48 C 166.362 125.836 165.498 126.124 164.755 126.344 C 164.011 126.564 163.168 126.674 162.225 126.674 C 160.591 126.674 159.287 126.292 158.313 125.527 C 157.339 124.763 156.716 123.647 156.444 122.181 L 156.255 122.181 C 154.894 123.689 153.433 124.841 151.872 125.637 C 150.311 126.433 148.431 126.831 146.232 126.831 C 143.907 126.831 141.995 126.119 140.498 124.695 C 139 123.27 138.251 121.406 138.251 119.102 C 138.251 117.908 138.419 116.84 138.754 115.897 C 139.089 114.954 139.592 114.106 140.262 113.352 C 140.786 112.723 141.477 112.163 142.336 111.671 C 143.195 111.179 144.001 110.786 144.755 110.492 C 145.698 110.136 147.609 109.477 150.489 108.513 C 153.37 107.549 155.313 106.795 156.318 106.251 L 156.318 103.14 C 156.318 102.868 156.26 102.344 156.145 101.569 C 156.03 100.794 155.784 100.061 155.407 99.369 C 154.988 98.594 154.396 97.919 153.632 97.343 C 152.867 96.767 151.783 96.479 150.379 96.479 C 149.416 96.479 148.52 96.641 147.693 96.966 C 146.866 97.29 146.284 97.631 145.949 97.987 C 145.949 98.406 146.049 99.024 146.248 99.841 C 146.447 100.658 146.546 101.412 146.546 102.103 C 146.546 102.836 146.216 103.507 145.556 104.114 C 144.897 104.722 143.98 105.025 142.807 105.025 C 141.76 105.025 140.99 104.653 140.498 103.91 C 140.005 103.166 139.759 102.334 139.759 101.412 C 139.759 100.448 140.1 99.527 140.78 98.647 C 141.461 97.767 142.346 96.982 143.435 96.29 C 144.378 95.704 145.52 95.206 146.86 94.798 C 148.201 94.389 149.51 94.185 150.788 94.185 C 152.548 94.185 154.082 94.305 155.391 94.546 C 156.7 94.787 157.889 95.306 158.957 96.102 C 160.026 96.877 160.837 97.929 161.392 99.26 C 161.948 100.59 162.225 102.302 162.225 104.397 C 162.225 107.392 162.194 110.047 162.131 112.362 C 162.068 114.677 162.037 117.206 162.037 119.95 C 162.037 120.767 162.178 121.416 162.461 121.898 C 162.744 122.38 163.178 122.789 163.765 123.124 C 164.079 123.312 164.576 123.417 165.257 123.438 C 165.938 123.459 166.635 123.469 167.347 123.469 L 167.347 125.48 Z  M 156.381 108.89 C 154.6 109.414 153.04 109.927 151.699 110.43 C 150.359 110.932 149.112 111.561 147.96 112.315 C 146.913 113.027 146.085 113.87 145.478 114.844 C 144.87 115.818 144.567 116.976 144.567 118.316 C 144.567 120.055 145.022 121.333 145.933 122.15 C 146.845 122.967 148.002 123.375 149.405 123.375 C 150.893 123.375 152.202 123.014 153.333 122.291 C 154.464 121.568 155.417 120.715 156.192 119.73 L 156.381 108.89 Z "
             fill-rule="evenodd"
             fill="rgb(205,161,0)"
             id="path59" />
          <path
             d=" M 137.214 124.258 L 118.644 124.258 L 118.644 122.027 C 120.278 121.923 121.635 121.713 122.713 121.399 C 123.792 121.085 124.332 120.697 124.332 120.236 C 124.332 120.048 124.311 119.818 124.269 119.545 C 124.227 119.273 124.164 119.032 124.08 118.823 L 120.373 108.831 L 104.756 108.831 C 104.17 110.297 103.693 111.575 103.327 112.664 C 102.96 113.753 102.63 114.759 102.337 115.68 C 102.065 116.581 101.876 117.314 101.771 117.88 C 101.667 118.445 101.614 118.906 101.614 119.262 C 101.614 120.1 102.274 120.75 103.594 121.211 C 104.913 121.671 106.401 121.944 108.056 122.027 L 108.056 124.258 L 91.277 124.258 L 91.277 122.027 C 91.821 121.986 92.502 121.865 93.319 121.666 C 94.136 121.467 94.806 121.2 95.33 120.865 C 96.168 120.299 96.817 119.708 97.278 119.09 C 97.739 118.472 98.189 117.618 98.629 116.529 C 100.871 110.936 103.342 104.652 106.045 97.676 C 108.747 90.701 111.156 84.49 113.271 79.044 L 115.785 79.044 L 130.647 117.503 C 130.961 118.32 131.317 118.98 131.715 119.482 C 132.113 119.985 132.669 120.477 133.381 120.959 C 133.863 121.252 134.491 121.499 135.266 121.698 C 136.041 121.897 136.69 122.007 137.214 122.027 L 137.214 124.258 Z  M 119.241 106.034 L 112.486 88.753 L 105.856 106.034 L 119.241 106.034 Z  M 167.347 123.693 C 166.362 124.049 165.498 124.337 164.755 124.557 C 164.011 124.777 163.168 124.887 162.225 124.887 C 160.591 124.887 159.287 124.504 158.313 123.74 C 157.339 122.975 156.716 121.86 156.444 120.394 L 156.255 120.394 C 154.894 121.902 153.433 123.054 151.872 123.85 C 150.311 124.646 148.431 125.044 146.232 125.044 C 143.907 125.044 141.995 124.332 140.498 122.907 C 139 121.483 138.251 119.619 138.251 117.314 C 138.251 116.12 138.419 115.052 138.754 114.109 C 139.089 113.167 139.592 112.318 140.262 111.564 C 140.786 110.936 141.477 110.376 142.336 109.883 C 143.195 109.391 144.001 108.998 144.755 108.705 C 145.698 108.349 147.609 107.689 150.489 106.725 C 153.37 105.762 155.313 105.008 156.318 104.463 L 156.318 101.352 C 156.318 101.08 156.26 100.557 156.145 99.781 C 156.03 99.006 155.784 98.273 155.407 97.582 C 154.988 96.807 154.396 96.131 153.632 95.555 C 152.867 94.979 151.783 94.691 150.379 94.691 C 149.416 94.691 148.52 94.854 147.693 95.178 C 146.866 95.503 146.284 95.843 145.949 96.199 C 145.949 96.618 146.049 97.236 146.248 98.053 C 146.447 98.87 146.546 99.624 146.546 100.316 C 146.546 101.049 146.216 101.719 145.556 102.327 C 144.897 102.934 143.98 103.238 142.807 103.238 C 141.76 103.238 140.99 102.866 140.498 102.122 C 140.005 101.379 139.759 100.546 139.759 99.624 C 139.759 98.661 140.1 97.739 140.78 96.859 C 141.461 95.98 142.346 95.194 143.435 94.503 C 144.378 93.916 145.52 93.419 146.86 93.01 C 148.201 92.602 149.51 92.398 150.788 92.398 C 152.548 92.398 154.082 92.518 155.391 92.759 C 156.7 93 157.889 93.518 158.957 94.314 C 160.026 95.089 160.837 96.142 161.392 97.472 C 161.948 98.802 162.225 100.515 162.225 102.609 C 162.225 105.605 162.194 108.26 162.131 110.575 C 162.068 112.889 162.037 115.419 162.037 118.163 C 162.037 118.98 162.178 119.629 162.461 120.111 C 162.744 120.593 163.178 121.001 163.765 121.336 C 164.079 121.525 164.576 121.629 165.257 121.65 C 165.938 121.671 166.635 121.682 167.347 121.682 L 167.347 123.693 Z  M 156.381 107.103 C 154.6 107.626 153.04 108.139 151.699 108.642 C 150.359 109.145 149.112 109.773 147.96 110.527 C 146.913 111.24 146.085 112.083 145.478 113.057 C 144.87 114.031 144.567 115.188 144.567 116.529 C 144.567 118.267 145.022 119.545 145.933 120.362 C 146.845 121.179 148.002 121.588 149.405 121.588 C 150.893 121.588 152.202 121.226 153.333 120.504 C 154.464 119.781 155.417 118.927 156.192 117.943 L 156.381 107.103 Z "
             fill-rule="evenodd"
             fill="rgb(255,255,255)"
             id="path61" />
          <path
             d=" M 153.086 92.183 C 151.113 92.183 149.765 90.482 149.765 88.508 L 149.765 56.333 L 185.515 92.083 L 153.086 92.183 Z "
             fill-rule="evenodd"
             fill="rgb(255,218,100)"
             id="path63" />
          <path
             d="M 67.54 106.383 L 189.09 106.383 C 191.063 106.383 192.665 107.985 192.665 109.958 L 192.665 195.758 C 192.665 197.731 191.063 199.333 189.09 199.333 L 67.54 199.333 C 65.567 199.333 63.965 197.731 63.965 195.758 L 63.965 109.958 C 63.965 107.985 65.567 106.383 67.54 106.383 Z"
             style="stroke:none;fill:#AEA795;stroke-miterlimit:10;"
             id="path65" />
          <path
             d=" M 63.965 109.957 C 63.965 107.983 65.569 106.383 67.542 106.383 L 189.089 106.383 C 191.064 106.383 192.665 107.985 192.665 109.957 L 192.665 193.972 C 192.665 195.946 191.061 197.546 189.089 197.546 L 67.542 197.546 C 65.566 197.546 63.965 195.944 63.965 193.972 L 63.965 109.957 Z "
             fill-rule="evenodd"
             fill="rgb(227,223,213)"
             id="path67" />
          <linearGradient
             id="_lgradient_27"
             x1="0%"
             y1="50%"
             x2="6.123233995736766e-15%"
             y2="150%">
            <stop
               offset="0.6944444439999999%"
               stop-opacity="1"
               style="stop-color:rgb(255,255,255)"
               id="stop69" />
            <stop
               offset="26.956521739130434%"
               stop-opacity="1"
               style="stop-color:rgb(174,167,149)"
               id="stop71" />
          </linearGradient>
          <path
             d=" M 205.382 131.721 C 206.185 133.523 205.228 134.983 203.254 134.983 L 53.079 134.983 C 51.101 134.983 50.149 133.517 50.947 131.721 L 62.347 106.071 C 63.148 104.269 65.401 102.808 67.373 102.808 L 188.92 102.808 C 190.896 102.808 193.15 104.274 193.951 106.071 L 205.382 131.721 Z "
             fill-rule="evenodd"
             fill="url(#_lgradient_27)"
             id="path74" />
          <path
             d=" M 189.753 104.682 C 190.743 104.682 191.871 105.415 192.273 106.317 L 203.512 131.536 C 203.914 132.438 203.458 133.17 202.452 133.171 L 53.838 133.261 C 52.85 133.262 52.377 132.526 52.77 131.64 L 64.063 106.232 C 64.461 105.336 65.593 104.61 66.576 104.611 L 189.753 104.682 Z "
             fill-rule="evenodd"
             fill="rgb(227,223,213)"
             id="path76" />
          <path
             d=" M 117.419 161.178 C 117.156 161.178 110.002 161.179 110.002 161.179 C 110.002 161.179 110.003 160.102 110.003 159.938 C 110.003 159.516 110.401 159.102 110.832 159.1 C 111.231 159.099 116.605 159.1 117.019 159.1 C 117.392 159.1 117.825 159.523 117.823 159.932 C 117.822 160.256 117.817 160.454 117.817 160.763 C 117.817 160.763 117.817 161.178 117.419 161.178 Z  M 119.463 166.992 C 119.888 166.992 119.891 166.609 119.891 166.57 C 119.89 166.426 119.888 165.481 119.888 165.336 C 119.888 164.92 119.47 164.914 119.47 164.914 C 119.47 164.914 111.342 164.907 110.818 164.907 C 109.989 164.907 110.002 164.096 110.002 164.096 C 109.991 164.044 110.002 163.251 110.002 163.251 L 118.238 163.251 C 120.525 163.251 120.293 161.588 120.293 161.588 L 120.293 159.94 C 120.293 159.94 120.516 157.015 117.418 157.015 L 110.479 157.015 C 107.326 157.015 107.539 159.901 107.539 159.901 C 107.539 161.464 107.54 162.023 107.54 164.079 C 107.54 166.992 110.426 166.979 110.426 166.979 L 119.463 166.992 Z  M 104.232 164.508 C 104.232 164.508 104.239 164.913 103.82 164.913 C 103.372 164.913 101.18 164.919 99.834 164.915 C 98.487 164.91 96.836 164.612 96.835 162.036 C 96.834 159.46 98.669 159.103 99.814 159.103 C 100.959 159.103 104.23 159.108 104.23 159.108 C 104.23 159.108 104.232 164.139 104.232 164.508 Z  M 106.292 153.274 C 106.116 153.275 104.827 153.275 104.651 153.274 C 104.651 153.274 104.239 153.274 104.239 153.703 C 104.239 153.737 104.237 157.015 104.237 157.015 C 102.504 157.015 100.709 157.016 98.905 157.015 C 95.031 157.014 94.349 160.402 94.352 162.01 C 94.356 163.617 95.049 166.985 98.966 166.981 C 102.884 166.978 102.994 166.986 104.652 166.986 C 106.706 166.986 106.709 164.92 106.709 164.92 L 106.709 153.69 C 106.709 153.274 106.292 153.274 106.292 153.274 Z  M 149.933 155.768 L 148.287 155.768 C 148.059 155.768 147.875 155.582 147.875 155.353 L 147.875 153.69 C 147.875 153.46 148.059 153.274 148.287 153.274 L 149.933 153.274 C 150.161 153.274 150.345 153.46 150.345 153.69 L 150.345 155.353 C 150.345 155.582 150.161 155.768 149.933 155.768 Z  M 149.933 166.992 L 148.287 166.992 C 148.059 166.992 147.875 166.806 147.875 166.576 L 147.875 157.431 C 147.875 157.202 148.059 157.015 148.287 157.015 L 149.933 157.015 C 150.161 157.015 150.345 157.202 150.345 157.431 L 150.345 166.576 C 150.345 166.806 150.161 166.992 149.933 166.992 Z  M 157.755 157.018 C 154.731 157.014 151.168 157.017 151.168 157.017 L 151.168 166.57 C 151.168 166.758 151.288 167.036 151.661 166.988 C 152.064 166.987 152.697 166.984 153.099 166.983 C 153.666 167.065 153.65 166.563 153.65 166.563 L 153.638 159.1 C 153.638 159.1 156.65 159.097 157.752 159.097 C 157.821 159.097 159.415 159.129 159.415 161.172 L 159.403 166.577 C 159.402 166.807 159.587 166.994 159.815 166.994 L 161.46 166.992 C 161.688 166.992 161.872 166.806 161.872 166.577 L 161.872 160.983 C 161.872 158.679 160.779 157.022 157.755 157.018 Z  M 137.172 159.494 C 137.172 159.494 137.166 159.088 137.584 159.088 C 138.033 159.088 140.224 159.083 141.571 159.087 C 142.917 159.091 144.569 159.39 144.57 161.966 C 144.57 164.541 142.735 164.898 141.59 164.898 C 140.445 164.898 137.174 164.894 137.174 164.894 C 137.174 164.894 137.172 159.863 137.172 159.494 Z  M 135.115 170.728 C 135.291 170.727 136.578 170.727 136.754 170.728 C 136.754 170.728 137.166 170.728 137.166 170.299 C 137.166 170.265 137.167 166.987 137.167 166.987 C 138.9 166.987 140.695 166.986 142.499 166.987 C 146.373 166.988 147.055 163.6 147.052 161.992 C 147.048 160.385 146.355 157.016 142.438 157.02 C 138.52 157.024 138.413 157.015 136.755 157.015 C 134.701 157.015 134.702 159.082 134.702 159.082 L 134.702 170.312 C 134.702 170.728 135.115 170.728 135.115 170.728 Z  M 131.004 161.178 C 130.741 161.178 123.587 161.179 123.587 161.179 C 123.587 161.179 123.588 160.102 123.588 159.938 C 123.588 159.516 123.986 159.102 124.417 159.1 C 124.816 159.099 130.19 159.1 130.604 159.1 C 130.977 159.1 131.41 159.523 131.408 159.932 C 131.407 160.256 131.402 160.454 131.402 160.763 C 131.402 160.763 131.402 161.178 131.004 161.178 Z  M 133.048 166.992 C 133.473 166.992 133.476 166.609 133.476 166.57 C 133.475 166.426 133.473 165.481 133.473 165.336 C 133.473 164.92 133.055 164.914 133.055 164.914 C 133.055 164.914 124.927 164.907 124.403 164.907 C 123.574 164.907 123.587 164.096 123.587 164.096 C 123.576 164.044 123.587 163.251 123.587 163.251 L 131.823 163.251 C 134.11 163.251 133.878 161.588 133.878 161.588 L 133.878 159.94 C 133.878 159.94 134.101 157.015 131.003 157.015 L 124.064 157.015 C 120.911 157.015 121.124 159.901 121.124 159.901 C 121.124 161.464 121.125 162.023 121.125 164.079 C 121.125 166.992 124.011 166.979 124.011 166.979 L 133.048 166.992 Z "
             fill-rule="evenodd"
             fill="rgb(255,255,255)"
             vector-effect="non-scaling-stroke"
             stroke-width="6"
             stroke="rgb(255,255,255)"
             stroke-linejoin="miter"
             stroke-linecap="square"
             stroke-miterlimit="3"
             id="path78" />
          <g
             id="Group">
            <path
               d=" M 117.419 161.178 C 117.156 161.178 110.002 161.179 110.002 161.179 C 110.002 161.179 110.003 160.102 110.003 159.938 C 110.003 159.516 110.401 159.102 110.832 159.1 C 111.231 159.099 116.605 159.1 117.019 159.1 C 117.392 159.1 117.825 159.523 117.823 159.932 C 117.822 160.256 117.817 160.454 117.817 160.763 C 117.817 160.763 117.817 161.178 117.419 161.178 Z  M 119.463 166.992 C 119.888 166.992 119.891 166.609 119.891 166.57 C 119.89 166.426 119.888 165.481 119.888 165.336 C 119.888 164.92 119.47 164.914 119.47 164.914 C 119.47 164.914 111.342 164.907 110.818 164.907 C 109.989 164.907 110.002 164.096 110.002 164.096 C 109.991 164.044 110.002 163.251 110.002 163.251 L 118.238 163.251 C 120.525 163.251 120.293 161.588 120.293 161.588 L 120.293 159.94 C 120.293 159.94 120.516 157.015 117.418 157.015 L 110.479 157.015 C 107.326 157.015 107.539 159.901 107.539 159.901 C 107.539 161.464 107.54 162.023 107.54 164.079 C 107.54 166.992 110.426 166.979 110.426 166.979 L 119.463 166.992 Z "
               fill-rule="evenodd"
               fill="rgb(16,172,255)"
               id="path80" />
            <path
               d=" M 104.232 164.508 C 104.232 164.508 104.239 164.913 103.82 164.913 C 103.372 164.913 101.18 164.919 99.834 164.915 C 98.487 164.91 96.836 164.612 96.835 162.036 C 96.834 159.46 98.669 159.103 99.814 159.103 C 100.959 159.103 104.23 159.108 104.23 159.108 C 104.23 159.108 104.232 164.139 104.232 164.508 Z  M 106.292 153.274 C 106.116 153.275 104.827 153.275 104.651 153.274 C 104.651 153.274 104.239 153.274 104.239 153.703 C 104.239 153.737 104.237 157.015 104.237 157.015 C 102.504 157.015 100.709 157.016 98.905 157.015 C 95.031 157.014 94.349 160.402 94.352 162.01 C 94.356 163.617 95.049 166.985 98.966 166.981 C 102.884 166.978 102.994 166.986 104.652 166.986 C 106.706 166.986 106.709 164.92 106.709 164.92 L 106.709 153.69 C 106.709 153.274 106.292 153.274 106.292 153.274 Z "
               fill-rule="evenodd"
               fill="rgb(16,172,255)"
               id="path82" />
            <path
               d=" M 149.933 155.768 L 148.287 155.768 C 148.059 155.768 147.875 155.582 147.875 155.353 L 147.875 153.69 C 147.875 153.46 148.059 153.274 148.287 153.274 L 149.933 153.274 C 150.161 153.274 150.345 153.46 150.345 153.69 L 150.345 155.353 C 150.345 155.582 150.161 155.768 149.933 155.768 Z "
               fill-rule="evenodd"
               fill="rgb(16,172,255)"
               id="path84" />
            <path
               d=" M 149.933 166.992 L 148.287 166.992 C 148.059 166.992 147.875 166.806 147.875 166.576 L 147.875 157.431 C 147.875 157.202 148.059 157.015 148.287 157.015 L 149.933 157.015 C 150.161 157.015 150.345 157.202 150.345 157.431 L 150.345 166.576 C 150.345 166.806 150.161 166.992 149.933 166.992 Z "
               fill-rule="evenodd"
               fill="rgb(16,172,255)"
               id="path86" />
            <path
               d=" M 157.755 157.018 C 154.731 157.014 151.168 157.017 151.168 157.017 L 151.168 166.57 C 151.168 166.758 151.288 167.036 151.661 166.988 C 152.064 166.987 152.697 166.984 153.099 166.983 C 153.666 167.065 153.65 166.563 153.65 166.563 L 153.638 159.1 C 153.638 159.1 156.65 159.097 157.752 159.097 C 157.821 159.097 159.415 159.129 159.415 161.172 L 159.403 166.577 C 159.402 166.807 159.587 166.994 159.815 166.994 L 161.46 166.992 C 161.688 166.992 161.872 166.806 161.872 166.577 L 161.872 160.983 C 161.872 158.679 160.779 157.022 157.755 157.018 Z "
               fill-rule="evenodd"
               fill="rgb(16,172,255)"
               id="path88" />
            <path
               d=" M 137.172 159.494 C 137.172 159.494 137.166 159.088 137.584 159.088 C 138.033 159.088 140.224 159.083 141.571 159.087 C 142.917 159.091 144.569 159.39 144.57 161.966 C 144.57 164.541 142.735 164.898 141.59 164.898 C 140.445 164.898 137.174 164.894 137.174 164.894 C 137.174 164.894 137.172 159.863 137.172 159.494 Z  M 135.115 170.728 C 135.291 170.727 136.578 170.727 136.754 170.728 C 136.754 170.728 137.166 170.728 137.166 170.299 C 137.166 170.265 137.167 166.987 137.167 166.987 C 138.9 166.987 140.695 166.986 142.499 166.987 C 146.373 166.988 147.055 163.6 147.052 161.992 C 147.048 160.385 146.355 157.016 142.438 157.02 C 138.52 157.024 138.413 157.015 136.755 157.015 C 134.701 157.015 134.702 159.082 134.702 159.082 L 134.702 170.312 C 134.702 170.728 135.115 170.728 135.115 170.728 Z "
               fill-rule="evenodd"
               fill="rgb(16,172,255)"
               id="path90" />
            <path
               d=" M 131.004 161.178 C 130.741 161.178 123.587 161.179 123.587 161.179 C 123.587 161.179 123.588 160.102 123.588 159.938 C 123.588 159.516 123.986 159.102 124.417 159.1 C 124.816 159.099 130.19 159.1 130.604 159.1 C 130.977 159.1 131.41 159.523 131.408 159.932 C 131.407 160.256 131.402 160.454 131.402 160.763 C 131.402 160.763 131.402 161.178 131.004 161.178 Z  M 133.048 166.992 C 133.473 166.992 133.476 166.609 133.476 166.57 C 133.475 166.426 133.473 165.481 133.473 165.336 C 133.473 164.92 133.055 164.914 133.055 164.914 C 133.055 164.914 124.927 164.907 124.403 164.907 C 123.574 164.907 123.587 164.096 123.587 164.096 C 123.576 164.044 123.587 163.251 123.587 163.251 L 131.823 163.251 C 134.11 163.251 133.878 161.588 133.878 161.588 L 133.878 159.94 C 133.878 159.94 134.101 157.015 131.003 157.015 L 124.064 157.015 C 120.911 157.015 121.124 159.901 121.124 159.901 C 121.124 161.464 121.125 162.023 121.125 164.079 C 121.125 166.992 124.011 166.979 124.011 166.979 L 133.048 166.992 Z "
               fill-rule="evenodd"
               fill="rgb(16,172,255)"
               id="path92" />
          </g>
        </g>
        <defs
           id="defs107">
          <filter
             id="zCFdGkBL7TbkZhPKeHR1uQsfuIadUSXx"
             x="-200%"
             y="-200%"
             width="400%"
             height="400%">
            <feOffset
               in="SourceAlpha"
               result="offOut"
               dx="0"
               dy="4"
               id="feOffset96" />
            <feGaussianBlur
               in="offOut"
               result="blurOut"
               stdDeviation="5"
               id="feGaussianBlur98" />
            <feComponentTransfer
               in="blurOut"
               result="opacOut"
               id="feComponentTransfer102">
              <feFuncA
                 type="table"
                 tableValues="0 0.5"
                 id="feFuncA100" />
            </feComponentTransfer>
            <feBlend
               in="SourceGraphic"
               in2="opacOut"
               mode="normal"
               id="feBlend104" />
          </filter>
        </defs>
      </g>
      <g
         id="highlight">
        <clipPath
           id="_clipPath_LlM6G4XNEFrQdY0GB9lzg4x9ucXovDj0">
          <path
             d=" M 165.352 14.477 C 239.408 14.477 249.992 25.035 249.992 99.022 L 249.992 158.273 C 249.992 232.26 239.408 242.817 165.352 242.817 L 89.982 242.817 C 15.925 242.817 5.342 232.26 5.342 158.273 L 5.342 99.022 C 5.342 25.035 15.925 14.477 89.982 14.477 L 165.352 14.477 Z "
             fill="rgb(255,255,255)"
             id="path111" />
        </clipPath>
        <g
           clip-path="url(#_clipPath_LlM6G4XNEFrQdY0GB9lzg4x9ucXovDj0)"
           id="g127">
          <g
             opacity="0.4"
             id="g125">
            <linearGradient
               id="_lgradient_28"
               x1="51.666666666666686%"
               y1="0%"
               x2="51.66666666666666%"
               y2="100.00000000000003%">
              <stop
                 offset="0%"
                 stop-opacity="1"
                 style="stop-color:rgb(255,255,255)"
                 id="stop114" />
              <stop
                 offset="12.5%"
                 stop-opacity="0.09803922"
                 style="stop-color:rgb(255,255,255)"
                 id="stop116" />
              <stop
                 offset="92.500001%"
                 stop-opacity="0.09803922"
                 style="stop-color:rgb(0,0,0)"
                 id="stop118" />
              <stop
                 offset="100%"
                 stop-opacity="0.49803922"
                 style="stop-color:rgb(0,0,0)"
                 id="stop120" />
            </linearGradient>
            <path
               d=" M 165.352 14.477 C 239.408 14.477 249.992 25.035 249.992 99.022 L 249.992 158.273 C 249.992 232.26 239.408 242.817 165.352 242.817 L 89.982 242.817 C 15.925 242.817 5.342 232.26 5.342 158.273 L 5.342 99.022 C 5.342 25.035 15.925 14.477 89.982 14.477 L 165.352 14.477 Z "
               fill="none"
               vector-effect="non-scaling-stroke"
               stroke-width="4"
               stroke="url(#_lgradient_28)"
               stroke-linejoin="round"
               stroke-linecap="round"
               stroke-miterlimit="4"
               id="path123" />
          </g>
        </g>
      </g>
    </g>
  </g>
</svg>
