<svg xmlns="http://www.w3.org/2000/svg" style="isolation:isolate" width="256" height="256"><defs><clipPath id="a"><path d="M0 0h256v256H0z"/></clipPath></defs><switch><g clip-path="url(#a)"><defs><filter id="b" width="270.648" height="254.338" x="-7.32" y="2.95" filterUnits="userSpaceOnUse"><feGaussianBlur xmlns="http://www.w3.org/2000/svg" in="SourceGraphic" stdDeviation="4.294"/><feOffset xmlns="http://www.w3.org/2000/svg" dy="4" result="pf_100_offsetBlur"/><feFlood xmlns="http://www.w3.org/2000/svg" flood-opacity=".4"/><feComposite xmlns="http://www.w3.org/2000/svg" in2="pf_100_offsetBlur" operator="in" result="pf_100_dropShadow"/><feBlend xmlns="http://www.w3.org/2000/svg" in="SourceGraphic" in2="pf_100_dropShadow"/></filter></defs><path fill="#ECECEC" d="M165.685 11.947c74.055 0 84.639 10.557 84.639 84.544v59.251c0 73.986-10.584 84.543-84.639 84.543h-75.37c-74.055 0-84.639-10.557-84.639-84.543V96.491c0-73.987 10.584-84.544 84.639-84.544h75.37z" filter="url(#b)"/><linearGradient id="c" x1="55.745" x2="52.13" y1="-263.008" y2="-263.008" gradientTransform="matrix(57.408 0 0 25.135 69.67 11.95)" gradientUnits="userSpaceOnUse"><stop offset="0%" stop-color="#8d47ff"/><stop offset="100%" stop-color="#6671ff"/></linearGradient><path fill="url(#c)" fill-rule="evenodd" d="M127.078 11.95H90.319c-7.677 0-14.277.21-20.649.496l14.227 24.639c13.043-6.358 27.695-9.926 43.181-9.926V11.95z"/><linearGradient id="d" x1="43.379" x2="41.191" y1="-104.921" y2="-102.353" gradientTransform="matrix(69.027 0 0 62.777 7.914 12.929)" gradientUnits="userSpaceOnUse"><stop offset="0%" stop-color="#7366ff"/><stop offset="100%" stop-color="#1696ff"/></linearGradient><path fill="url(#d)" fill-rule="evenodd" d="M60.834 12.929c-1.955.155-4.003.278-5.826.482-3.257.364-6.305.807-9.156 1.344-2.852.536-5.507 1.167-7.979 1.902-2.472.735-4.76 1.576-6.879 2.535a39.619 39.619 0 0 0-5.855 3.248 33.33 33.33 0 0 0-4.91 4.037 33.261 33.261 0 0 0-4.043 4.905 39.5 39.5 0 0 0-3.252 5.847c-.961 2.116-1.803 4.402-2.539 6.871-.736 2.47-1.367 5.123-1.904 7.971-.231 1.221-.379 2.626-.577 3.92l34.149 19.715a99.172 99.172 0 0 1 34.879-34.879L60.834 12.929z"/><linearGradient id="e" x1="83.971" x2="85.263" y1="-100.733" y2="-105.117" gradientTransform="matrix(32.639 0 0 61.34 5.68 64.505)" gradientUnits="userSpaceOnUse"><stop offset="0%" stop-color="#30ced6"/><stop offset="31.564%" stop-color="#28bce3"/><stop offset="100%" stop-color="#1696ff"/></linearGradient><path fill="url(#e)" fill-rule="evenodd" d="M6.871 64.505c-.215 2.316-.443 4.593-.591 7.113-.434 7.369-.6 15.627-.6 24.875v29.352h22.715c0-15.487 3.566-30.141 9.924-43.184L6.871 64.505z"/><linearGradient id="f" x1="75.531" x2="75.01" y1="-96.065" y2="-100.549" gradientTransform="matrix(36.568 0 0 62.391 5.68 133.739)" gradientUnits="userSpaceOnUse"><stop offset="0%" stop-color="#7ee22c"/><stop offset="100%" stop-color="#30d6b2"/></linearGradient><path fill="url(#f)" fill-rule="evenodd" d="M5.68 133.739v22.006c0 9.248.166 17.506.6 24.875.217 3.685.501 7.147.865 10.4.203 1.818.496 3.42.752 5.11l34.351-19.834a98.08 98.08 0 0 1-13.543-42.557H5.68z"/><linearGradient id="g" x1="43.205" x2="40.83" y1="-104.482" y2="-106.447" gradientTransform="matrix(69.883 0 0 56.619 9.485 182.921)" gradientUnits="userSpaceOnUse"><stop offset="0%" stop-color="#c1ea55"/><stop offset="100%" stop-color="#74e126"/></linearGradient><path fill="url(#g)" fill-rule="evenodd" d="M9.485 204.331c.304 1.264.558 2.627.91 3.807.736 2.469 1.578 4.755 2.539 6.871a39.5 39.5 0 0 0 3.252 5.847 33.261 33.261 0 0 0 4.043 4.905 33.394 33.394 0 0 0 4.91 4.037 39.619 39.619 0 0 0 5.855 3.248c2.119.959 4.407 1.8 6.879 2.535 2.472.735 5.127 1.366 7.979 1.902 2.851.537 5.899.98 9.156 1.344 2.691.3 5.619.514 8.604.713l15.755-27.291a99.168 99.168 0 0 1-32.8-29.328l-37.082 21.41z"/><linearGradient id="h" x1="58.627" x2="54.803" y1="-241.295" y2="-241.295" gradientTransform="matrix(54.537 0 0 24.492 72.541 215.796)" gradientUnits="userSpaceOnUse"><stop offset="0%" stop-color="#fbef4d"/><stop offset="100%" stop-color="#b9ea56"/></linearGradient><path fill="url(#h)" fill-rule="evenodd" d="M72.541 239.862c5.636.206 11.168.426 17.778.426h36.759v-15.76c-14.489 0-28.248-3.124-40.642-8.732l-13.895 24.066z"/><linearGradient id="i" x1="59.9" x2="56.136" y1="-211.22" y2="-209.91" gradientTransform="matrix(56.061 0 0 28.217 134.973 212.071)" gradientUnits="userSpaceOnUse"><stop offset="0%" stop-color="#ffd600"/><stop offset="100%" stop-color="#ffed58"/></linearGradient><path fill="url(#i)" fill-rule="evenodd" d="M134.973 240.288h30.717c9.257 0 17.521-.165 24.898-.598.158-.009.289-.027.446-.037l-15.924-27.582a98.07 98.07 0 0 1-40.137 12.147v16.07z"/><linearGradient id="j" x1="53.698" x2="51.583" y1="-104.073" y2="-101.512" gradientTransform="matrix(65.131 0 0 58.32 181.846 180.612)" gradientUnits="userSpaceOnUse"><stop offset="0%" stop-color="#ffc134"/><stop offset="100%" stop-color="#fbe04d"/></linearGradient><path fill="url(#j)" fill-rule="evenodd" d="M199.735 238.932c.402-.041.869-.061 1.265-.105 3.257-.364 6.305-.807 9.157-1.344 2.851-.536 5.506-1.167 7.978-1.902 2.472-.735 4.761-1.576 6.879-2.535a39.619 39.619 0 0 0 5.855-3.248 33.35 33.35 0 0 0 4.911-4.037 33.388 33.388 0 0 0 4.043-4.905 39.591 39.591 0 0 0 3.252-5.847c.96-2.116 1.802-4.402 2.539-6.871.527-1.768.94-3.746 1.363-5.706l-37.793-21.82a99.217 99.217 0 0 1-27.338 27.336l17.889 30.984z"/><linearGradient id="k" x1="95.348" x2="96.281" y1="-99.576" y2="-103.849" gradientTransform="matrix(37.023 0 0 60.4 213.305 133.739)" gradientUnits="userSpaceOnUse"><stop offset="0%" stop-color="#f5b543"/><stop offset="100%" stop-color="#ef7640"/></linearGradient><path fill="url(#k)" fill-rule="evenodd" d="M248.405 194.139c.143-1.061.334-2.009.459-3.119.364-3.253.648-6.715.865-10.4.434-7.369.599-15.627.599-24.875v-22.006h-24.877a98.068 98.068 0 0 1-12.146 40.137l35.1 20.263z"/><linearGradient id="l" x1="105.304" x2="104.618" y1="-104.29" y2="-107.972" gradientTransform="matrix(33.297 0 0 59.279 217.032 66.565)" gradientUnits="userSpaceOnUse"><stop offset="0%" stop-color="#ef7640"/><stop offset="100%" stop-color="#fb563f"/></linearGradient><path fill="url(#l)" fill-rule="evenodd" d="M250.328 125.845V96.493c0-9.248-.165-17.506-.599-24.875-.106-1.79-.281-3.366-.42-5.053L217.032 85.2c5.608 12.394 8.732 26.156 8.732 40.645h24.564z"/><linearGradient id="m" x1="54.533" x2="52.153" y1="-98.856" y2="-101.667" gradientTransform="matrix(64.23 0 0 64.508 184.157 13.626)" gradientUnits="userSpaceOnUse"><stop offset="0%" stop-color="#fb563f"/><stop offset="100%" stop-color="#da377b"/></linearGradient><path fill="url(#m)" fill-rule="evenodd" d="M248.387 57.981c-.273-2.008-.522-4.069-.869-5.91-.537-2.848-1.168-5.501-1.904-7.971-.737-2.469-1.579-4.755-2.539-6.871a39.591 39.591 0 0 0-3.252-5.847 33.388 33.388 0 0 0-4.043-4.905 33.287 33.287 0 0 0-4.911-4.037 39.619 39.619 0 0 0-5.855-3.248c-2.118-.959-4.407-1.8-6.879-2.535-2.472-.735-5.127-1.366-7.978-1.902-2.397-.451-5.014-.802-7.696-1.129l-18.304 31.705a99.179 99.179 0 0 1 29.328 32.803l34.902-20.153z"/><linearGradient id="n" x1="57.649" x2="53.379" y1="-227.179" y2="-227.692" gradientTransform="matrix(58.84 0 0 29.064 134.973 11.95)" gradientUnits="userSpaceOnUse"><stop offset="0%" stop-color="#da377b"/><stop offset="100%" stop-color="#894cec"/></linearGradient><path fill="url(#n)" fill-rule="evenodd" d="M193.813 12.815c-1.1-.08-2.083-.2-3.225-.267-7.377-.434-15.641-.598-24.898-.598h-30.717v15.521a98.092 98.092 0 0 1 42.559 13.543l16.281-28.199z"/><circle fill="#4E4E4E" r="1" transform="matrix(-76.453 0 0 76.453 127.189 125.186)" vector-effect="non-scaling-stroke"/><g><defs><filter id="o" width="129.523" height="82.637" x="19.04" y="108.74" filterUnits="userSpaceOnUse"><feGaussianBlur xmlns="http://www.w3.org/2000/svg" stdDeviation="2.321"/></filter></defs><path d="M24.443 185.969s97.73-67.566 103.145-70.558c5.414-2.992 11.905-.509 14.498 5.546 2.593 6.055.306 13.389-5.109 16.381-5.414 2.992-112.534 48.631-112.534 48.631z" opacity=".2" filter="url(#o)"/><path fill="#FFF" d="M130.059 113.568a12.178 12.178 0 0 0-5.817 1.531c-5.911 3.27-111.824 75.832-111.824 75.832s117.754-51.154 123.666-54.424c5.912-3.27 8.053-10.713 4.783-16.625a12.23 12.23 0 0 0-10.808-6.314zm-.071 8.158a4.076 4.076 0 1 1-1.926 7.566 4.074 4.074 0 0 1-1.391-5.597 4.08 4.08 0 0 1 3.317-1.969z"/></g><g opacity=".4"><linearGradient id="p" x1=".517" x2=".517" y2="1"><stop offset="0%" stop-color="#fff"/><stop offset="12.5%" stop-opacity=".098" stop-color="#fff"/><stop offset="92.5%" stop-opacity=".098"/><stop offset="100%" stop-opacity=".498"/></linearGradient><path fill="none" stroke="url(#p)" stroke-linecap="round" stroke-linejoin="round" stroke-width="4.077" d="M165.685 11.947c74.055 0 84.639 10.557 84.639 84.544v59.251c0 73.986-10.584 84.543-84.639 84.543h-75.37c-74.055 0-84.639-10.557-84.639-84.543V96.491c0-73.987 10.584-84.544 84.639-84.544h75.37z" vector-effect="non-scaling-stroke"/></g></g></switch> </svg>