<?xml version="1.0" encoding="UTF-8" standalone="no"?>
<svg
   xmlns:dc="http://purl.org/dc/elements/1.1/"
   xmlns:cc="http://creativecommons.org/ns#"
   xmlns:rdf="http://www.w3.org/1999/02/22-rdf-syntax-ns#"
   xmlns:svg="http://www.w3.org/2000/svg"
   xmlns="http://www.w3.org/2000/svg"
   xmlns:xlink="http://www.w3.org/1999/xlink"
   xmlns:sodipodi="http://sodipodi.sourceforge.net/DTD/sodipodi-0.dtd"
   xmlns:inkscape="http://www.inkscape.org/namespaces/inkscape"
   height="256"
   style="clip-rule:evenodd;fill-rule:evenodd;image-rendering:optimizeQuality;shape-rendering:geometricPrecision;text-rendering:geometricPrecision"
   viewBox="0 0 256 256"
   width="256"
   xml:space="preserve"
   version="1.1"
   id="svg17"
   sodipodi:docname="org.gnome.ChromeGnomeShell.svg"
   inkscape:version="0.92.3 (2405546, 2018-03-11)"><metadata
     id="metadata21"><rdf:RDF><cc:Work
         rdf:about=""><dc:format>image/svg+xml</dc:format><dc:type
           rdf:resource="http://purl.org/dc/dcmitype/StillImage" /><dc:title></dc:title></cc:Work></rdf:RDF></metadata><sodipodi:namedview
     pagecolor="#ffffff"
     bordercolor="#666666"
     borderopacity="1"
     objecttolerance="10"
     gridtolerance="10"
     guidetolerance="10"
     inkscape:pageopacity="0"
     inkscape:pageshadow="2"
     inkscape:window-width="1917"
     inkscape:window-height="961"
     id="namedview19"
     showgrid="false"
     inkscape:zoom="3.0390625"
     inkscape:cx="120.17387"
     inkscape:cy="128"
     inkscape:window-x="0"
     inkscape:window-y="34"
     inkscape:window-maximized="0"
     inkscape:current-layer="svg17"><inkscape:grid
       type="xygrid"
       id="grid843" /></sodipodi:namedview><defs
     id="defs4"><style
       type="text/css"
       id="style2"><![CDATA[
    .fil5 {fill:none}
    .fil1 {fill:#196FBA}
    .fil0 {fill:#25B2EE}
    .fil4 {fill:#793C7C}
    .fil3 {fill:#8C508C}
    .fil2 {fill:white}
   ]]></style><filter
       inkscape:collect="always"
       style="color-interpolation-filters:sRGB"
       id="filter939"
       x="-0.0232"
       width="1.0464"
       y="-0.024857143"
       height="1.0497143"><feGaussianBlur
         inkscape:collect="always"
         stdDeviation="2.32"
         id="feGaussianBlur941" /></filter><filter
       inkscape:collect="always"
       style="color-interpolation-filters:sRGB"
       id="filter4569"
       x="-0.0116"
       width="1.0232"
       y="-0.012428571"
       height="1.024857"><feGaussianBlur
         inkscape:collect="always"
         stdDeviation="1.16"
         id="feGaussianBlur4571" /></filter><linearGradient
       inkscape:collect="always"
       xlink:href="#linearGradient1013"
       id="linearGradient1108"
       x1="296"
       y1="-212"
       x2="296"
       y2="236"
       gradientUnits="userSpaceOnUse" /><linearGradient
       id="linearGradient1013"
       inkscape:collect="always"><stop
         id="stop1005"
         offset="0"
         style="stop-color:#ffffff;stop-opacity:1;" /><stop
         style="stop-color:#ffffff;stop-opacity:0.09803922"
         offset="0.125"
         id="stop1007" /><stop
         style="stop-color:#000000;stop-opacity:0.09803922"
         offset="0.92500001"
         id="stop1009" /><stop
         id="stop1011"
         offset="1"
         style="stop-color:#000000;stop-opacity:0.49803922" /></linearGradient><clipPath
       clipPathUnits="userSpaceOnUse"
       id="clipPath1082-3-361"><path
         sodipodi:nodetypes="sssssssss"
         inkscape:connector-curvature="0"
         id="path1084-6-29"
         d="M 361.9375,-212 C 507.2348,-212 528,-191.28677 528,-46.125 V 70.125 C 528,215.28618 507.2348,236 361.9375,236 H 214.0625 C 68.7652,236 48,215.28618 48,70.125 V -46.125 C 48,-191.28677 68.7652,-212 214.0625,-212 Z"
         style="display:inline;opacity:1;fill:#8c59d9;fill-opacity:1;stroke:none;stroke-width:2;stroke-linecap:round;stroke-linejoin:round;stroke-miterlimit:4;stroke-dasharray:none;stroke-dashoffset:0;stroke-opacity:1;enable-background:new" /></clipPath><linearGradient
       id="linearGradient4958"><stop
         style="stop-color:#8d91db;stop-opacity:1;"
         offset="0"
         id="stop4960" /><stop
         style="stop-color:#1f225f;stop-opacity:1;"
         offset="1"
         id="stop4962" /></linearGradient><radialGradient
       gradientTransform="matrix(1.165761,-1.2668566,3.8886482,4.2258738,-1653.0964,-1252.7344)"
       gradientUnits="userSpaceOnUse"
       xlink:href="#linearGradient3755"
       id="radialGradient3033"
       fy="395.04871"
       fx="182.9837"
       r="148.95309"
       cy="395.04871"
       cx="182.9837" /><linearGradient
       id="linearGradient3755"><stop
         offset="0"
         style="stop-color:#008cbe;stop-opacity:1"
         id="stop3757" /><stop
         offset="1"
         style="stop-color:#b2ffff;stop-opacity:1"
         id="stop3759" /></linearGradient><filter
       inkscape:collect="always"
       style="color-interpolation-filters:sRGB"
       id="filter1479"
       x="-0.055202701"
       width="1.1104054"
       y="-0.04245994"
       height="1.0849199"><feGaussianBlur
         inkscape:collect="always"
         stdDeviation="2.8306627"
         id="feGaussianBlur1481" /></filter></defs><path
     style="display:inline;opacity:0.2;fill:#000000;fill-opacity:1;stroke:none;stroke-width:2;stroke-linecap:round;stroke-linejoin:round;stroke-miterlimit:4;stroke-dasharray:none;stroke-dashoffset:0;stroke-opacity:1;filter:url(#filter939);enable-background:new"
     d="m 162.53675,5.5680001 c 72.64865,0 83.03125,10.3566149 83.03125,82.9375049 v 58.125005 c 0,72.58059 -10.3826,82.9375 -83.03125,82.9375 H 88.599254 C 15.9506,229.56801 5.568,219.2111 5.568,146.63051 V 88.505505 c 0,-72.58089 10.3826,-82.9375049 83.031254,-82.9375049 z"
     id="path937"
     inkscape:connector-curvature="0"
     sodipodi:nodetypes="sssssssss"
     transform="matrix(1.019368,0,0,1.019368,-7.2181772e-8,8.3098661)" /><path
     sodipodi:nodetypes="sssssssss"
     inkscape:connector-curvature="0"
     id="path4558"
     d="m 165.68477,11.946967 c 74.05571,0 84.6394,10.557203 84.6394,84.543835 v 59.250778 c 0,73.98633 -10.58369,84.54383 -84.6394,84.54383 H 90.315249 c -74.055717,0 -84.639408,-10.5575 -84.639408,-84.54383 V 96.490802 c 0,-73.986632 10.583691,-84.543835 84.639408,-84.543835 z"
     style="display:inline;opacity:0.1;fill:none;fill-opacity:1;stroke:#000000;stroke-width:4.07747173;stroke-linecap:round;stroke-linejoin:round;stroke-miterlimit:4;stroke-dasharray:none;stroke-dashoffset:0;stroke-opacity:1;enable-background:new" /><path
     sodipodi:nodetypes="sssssssss"
     inkscape:connector-curvature="0"
     id="path4567"
     d="m 162.53675,3.5680001 c 72.64865,0 83.03125,10.3566149 83.03125,82.9375049 v 58.125005 c 0,72.58059 -10.3826,82.9375 -83.03125,82.9375 H 88.599254 C 15.9506,227.56801 5.568,217.2111 5.568,144.63051 V 86.505505 c 0,-72.58089 10.3826,-82.9375049 83.031254,-82.9375049 z"
     style="display:inline;opacity:0.1;fill:#000000;fill-opacity:1;stroke:none;stroke-width:2;stroke-linecap:round;stroke-linejoin:round;stroke-miterlimit:4;stroke-dasharray:none;stroke-dashoffset:0;stroke-opacity:1;filter:url(#filter4569);enable-background:new"
     transform="matrix(1.019368,0,0,1.019368,-7.2181772e-8,8.3098661)" /><path
     style="display:inline;opacity:1;fill:#a3dbf0;fill-opacity:1;stroke:none;stroke-width:2.03873587;stroke-linecap:round;stroke-linejoin:round;stroke-miterlimit:4;stroke-dasharray:none;stroke-dashoffset:0;stroke-opacity:1;enable-background:new"
     d="m 165.68476,11.946967 c 74.05571,0 84.6394,10.557203 84.6394,84.543835 v 59.250778 c 0,73.98633 -10.58369,84.54383 -84.6394,84.54383 H 90.315236 c -74.055712,0 -84.6394035,-10.5575 -84.6394035,-84.54383 V 96.490802 c 0,-73.986632 10.5836915,-84.543835 84.6394035,-84.543835 z"
     id="rect877"
     inkscape:connector-curvature="0"
     sodipodi:nodetypes="sssssssss" /><g
     transform="matrix(2.372035,0,0,2.372035,-20.736914,115.42106)"
     id="g983" /><path
     style="display:inline;opacity:0.1;fill:#ffffff;fill-opacity:1;stroke:none;stroke-width:2.0765779;stroke-linecap:round;stroke-linejoin:round;stroke-miterlimit:4;stroke-dasharray:none;stroke-dashoffset:0;stroke-opacity:1;enable-background:new"
     d="m 90.315238,240.28541 c -74.055712,0 -84.639403,-10.95275 -84.639403,-87.71148 V 121.83858 H 250.32416 v 30.73535 c 0,76.75873 -10.58369,87.71148 -84.6394,87.71148 z"
     id="path1107"
     inkscape:connector-curvature="0" /><path
     style="display:inline;opacity:0.1;fill:#ffffff;fill-opacity:1;stroke:none;stroke-width:2.04694557;stroke-linecap:round;stroke-linejoin:round;stroke-miterlimit:4;stroke-dasharray:none;stroke-dashoffset:0;stroke-opacity:1;enable-background:new"
     d="M 127.01285,11.946967 V 240.28541 h 37.98888 c 74.65333,0 85.32243,-10.5575 85.32243,-84.54383 V 96.490802 c 0,-73.986632 -10.6691,-84.543835 -85.32243,-84.543835 z"
     id="path1099"
     inkscape:connector-curvature="0" /><g
     id="g880"
     transform="matrix(1.0102788,0,0,1.0102788,-3.7837245,4.3104746)" /><path
     sodipodi:nodetypes="sssssssss"
     inkscape:connector-curvature="0"
     id="path1068"
     d="M 361.9375,-212 C 507.2348,-212 528,-191.28677 528,-46.125 V 70.125 C 528,215.28618 507.2348,236 361.9375,236 H 214.0625 C 68.7652,236 48,215.28618 48,70.125 V -46.125 C 48,-191.28677 68.7652,-212 214.0625,-212 Z"
     style="display:inline;opacity:0.4;fill:none;fill-opacity:1;stroke:url(#linearGradient1108);stroke-width:8;stroke-linecap:round;stroke-linejoin:round;stroke-miterlimit:4;stroke-dasharray:none;stroke-dashoffset:0;stroke-opacity:1;enable-background:new"
     clip-path="url(#clipPath1082-3-361)"
     transform="matrix(0.50968403,0,0,0.50968403,-18.788999,120)" /><path
     id="path1461"
     d="m 176.64528,46.116189 c -31.25257,0 -37.11532,47.4776 -19.53132,47.4776 17.576,0 50.78732,-47.4776 19.53132,-47.4776 z m -48.12503,7.299086 c -0.49257,-0.0023 -1.03086,-0.0026 -1.5848,0.114285 -17.70972,2.236572 -11.48206,32.209029 -2.0536,32.767886 9.12914,0.548572 19.10811,-32.804571 3.61611,-32.857143 z M 97.805953,64.486703 c -1.08343,-0.114285 -2.2808,0.144 -3.61611,0.692572 -14.23543,5.844571 -2.16549,29.969943 5.80366,28.348229 7.233257,-1.469715 8.273377,-28.360229 -2.18755,-29.040229 z m -23.23657,19.732115 c -1.23726,0 -2.56777,0.385143 -3.99554,1.450971 -11.3944,8.504 3.83108,29.055661 10.53566,25.870521 5.86457,-2.78972 2.1232,-27.008349 -6.54012,-27.321492 z M 141.86848,103.8171 c -24.68915,-0.42285 -57.256007,12.10755 -62.812577,37.27669 -6.01235,27.23086 24.764217,65.0224 56.875087,65.0224 15.79657,0 34.0216,-14.44091 37.43303,-32.7232 2.60309,-13.94057 -30.65749,-8.3512 -29.46434,0.87086 1.43383,11.05714 -7.99966,16.52411 -17.2544,9.39726 -29.459437,-22.69143 48.77714,-34.02229 43.616,-65.02229 -1.60617,-9.65029 -13.57909,-14.56777 -28.3928,-14.82149 z"
     class="ColorScheme-Text"
     style="opacity:0.3;fill:#808080;fill-opacity:1;stroke-width:11.4285717;filter:url(#filter1479)"
     inkscape:connector-curvature="0" /><path
     inkscape:connector-curvature="0"
     style="opacity:1;fill:#808080;fill-opacity:1;stroke-width:11.4285717"
     class="ColorScheme-Text"
     d="m 176.64528,46.116189 c -31.25257,0 -37.11532,47.4776 -19.53132,47.4776 17.576,0 50.78732,-47.4776 19.53132,-47.4776 z m -48.12503,7.299086 c -0.49257,-0.0023 -1.03086,-0.0026 -1.5848,0.114285 -17.70972,2.236572 -11.48206,32.209029 -2.0536,32.767886 9.12914,0.548572 19.10811,-32.804571 3.61611,-32.857143 z M 97.805953,64.486703 c -1.08343,-0.114285 -2.2808,0.144 -3.61611,0.692572 -14.23543,5.844571 -2.16549,29.969943 5.80366,28.348229 7.233257,-1.469715 8.273377,-28.360229 -2.18755,-29.040229 z m -23.23657,19.732115 c -1.23726,0 -2.56777,0.385143 -3.99554,1.450971 -11.3944,8.504 3.83108,29.055661 10.53566,25.870521 5.86457,-2.78972 2.1232,-27.008349 -6.54012,-27.321492 z M 141.86848,103.8171 c -24.68915,-0.42285 -57.256007,12.10755 -62.812577,37.27669 -6.01235,27.23086 24.764217,65.0224 56.875087,65.0224 15.79657,0 34.0216,-14.44091 37.43303,-32.7232 2.60309,-13.94057 -30.65749,-8.3512 -29.46434,0.87086 1.43383,11.05714 -7.99966,16.52411 -17.2544,9.39726 -29.459437,-22.69143 48.77714,-34.02229 43.616,-65.02229 -1.60617,-9.65029 -13.57909,-14.56777 -28.3928,-14.82149 z"
     id="path5" /></svg>