<svg xmlns="http://www.w3.org/2000/svg" style="isolation:isolate" width="256" height="256"><defs><filter id="a" width="270.648" height="254.338" x="-7.32" y="2.95" filterUnits="userSpaceOnUse"><feGaussianBlur xmlns="http://www.w3.org/2000/svg" in="SourceGraphic" stdDeviation="4.294"/><feOffset xmlns="http://www.w3.org/2000/svg" dy="4" result="pf_100_offsetBlur"/><feFlood xmlns="http://www.w3.org/2000/svg" flood-opacity=".4"/><feComposite xmlns="http://www.w3.org/2000/svg" in2="pf_100_offsetBlur" operator="in" result="pf_100_dropShadow"/><feBlend xmlns="http://www.w3.org/2000/svg" in="SourceGraphic" in2="pf_100_dropShadow"/></filter></defs><path fill="#5D5D5D" d="M165.685 11.947c74.055 0 84.639 10.557 84.639 84.544v59.251c0 73.986-10.584 84.543-84.639 84.543h-75.37c-74.055 0-84.639-10.557-84.639-84.543V96.491c0-73.987 10.584-84.544 84.639-84.544h75.37z" filter="url(#a)"/><g opacity=".4"><linearGradient id="b" x1=".517" x2=".517" y2="1"><stop offset="0%" stop-color="#fff"/><stop offset="12.5%" stop-opacity=".098" stop-color="#fff"/><stop offset="92.5%" stop-opacity=".098"/><stop offset="100%" stop-opacity=".498"/></linearGradient><path fill="none" stroke="url(#b)" stroke-linecap="round" stroke-linejoin="round" stroke-width="4.077" d="M165.685 11.947c74.055 0 84.639 10.557 84.639 84.544v59.251c0 73.986-10.584 84.543-84.639 84.543h-75.37c-74.055 0-84.639-10.557-84.639-84.543V96.491c0-73.987 10.584-84.544 84.639-84.544h75.37z" vector-effect="non-scaling-stroke"/></g><path fill="#FFF" d="M5.676 126.116v29.626c0 73.986 10.584 84.543 84.639 84.543h75.37c74.055 0 84.639-10.557 84.639-84.543v-29.626H5.676z" opacity=".1"/><linearGradient id="c" x1=".234" x2=".754" y1=".165" y2=".825" gradientTransform="matrix(165 0 0 165 45.5 43.5)" gradientUnits="userSpaceOnUse"><stop offset="0%" stop-color="#dedbde"/><stop offset="50%" stop-color="#e6e6e6"/><stop offset="100%" stop-color="#d2d2d2"/></linearGradient><path fill="url(#c)" d="M210.5 126c0-45.729-36.771-82.5-82.5-82.5S45.5 80.271 45.5 126s36.771 82.5 82.5 82.5 82.5-36.771 82.5-82.5zm-52.317 0c0 16.613-13.237 30.183-30.183 30.183-17.278 0-30.183-13.906-30.183-30.183 0-16.61 12.24-30.183 30.183-30.183 17.943 0 30.183 13.902 30.183 30.183z"/><defs><filter id="d" width="171" height="75.333" x="42" y="161.5" filterUnits="userSpaceOnUse"><feGaussianBlur xmlns="http://www.w3.org/2000/svg" in="SourceGraphic" stdDeviation="4.294"/><feOffset xmlns="http://www.w3.org/2000/svg" dy="4" result="pf_100_offsetBlur"/><feFlood xmlns="http://www.w3.org/2000/svg" flood-opacity=".4"/><feComposite xmlns="http://www.w3.org/2000/svg" in2="pf_100_offsetBlur" operator="in" result="pf_100_dropShadow"/><feBlend xmlns="http://www.w3.org/2000/svg" in="SourceGraphic" in2="pf_100_dropShadow"/></filter></defs><path d="M63.311 170.5h128.378a8.315 8.315 0 0 1 8.311 8.311v32.712c0 4.586-3.724 8.31-8.311 8.31H63.311c-4.587 0-8.311-3.724-8.311-8.31v-32.712a8.315 8.315 0 0 1 8.311-8.311z" fill="#46a926" filter="url(#d)"/><path fill="#F7F7F7" fill-rule="evenodd" d="M63.45 207.207v-24.5h8.26q3.08 0 5.442 1.032 2.363 1.033 3.728 2.818 1.365 1.785 2.03 3.902.665 2.118.665 4.498 0 1.75-.367 3.43-.368 1.68-1.278 3.307-.91 1.628-2.24 2.835-1.33 1.208-3.43 1.943-2.1.735-4.69.735h-8.12zm4.725-4.48h3.955q3.325 0 4.935-2.328 1.61-2.327 1.61-5.442 0-3.185-1.575-5.478-1.575-2.292-4.585-2.292h-4.34v15.54zm27.44 4.9q-3.885 0-6.125-2.485t-2.24-6.895q0-4.305 2.258-6.825 2.257-2.52 6.107-2.52 3.5 0 5.705 2.152 2.205 2.153 2.205 6.283 0 1.715-.14 2.695H91.73q.14 1.68 1.243 2.642 1.102.963 2.642.963 2.38 0 3.85-1.855l2.8 2.835q-2.485 3.01-6.65 3.01zm-3.85-11.445h7.315q-.21-1.54-1.137-2.415-.928-.875-2.328-.875-3.43 0-3.85 3.29zm27.615 11.025h-4.55l-8.68-24.5h5.11l5.39 16.03q.21.63.49 1.68.14-.63.455-1.68l5.39-16.03h5.04l-8.645 24.5zm19.81.42q-3.885 0-6.125-2.485t-2.24-6.895q0-4.305 2.257-6.825 2.258-2.52 6.108-2.52 3.5 0 5.705 2.152 2.205 2.153 2.205 6.283 0 1.715-.14 2.695h-11.655q.14 1.68 1.243 2.642 1.102.963 2.642.963 2.38 0 3.85-1.855l2.8 2.835q-2.485 3.01-6.65 3.01zm-3.85-11.445h7.315q-.21-1.54-1.138-2.415-.927-.875-2.327-.875-3.43 0-3.85 3.29zm16.135 11.025v-24.5h8.26q3.08 0 5.443 1.032 2.362 1.033 3.727 2.818 1.365 1.785 2.03 3.902.665 2.118.665 4.498 0 1.75-.367 3.43-.368 1.68-1.278 3.307-.91 1.628-2.24 2.835-1.33 1.208-3.43 1.943-2.1.735-4.69.735h-8.12zm4.725-4.48h3.955q3.325 0 4.935-2.328 1.61-2.327 1.61-5.442 0-3.185-1.575-5.478-1.575-2.292-4.585-2.292h-4.34v15.54zm27.44 4.9q-3.885 0-6.125-2.485t-2.24-6.895q0-4.305 2.257-6.825 2.258-2.52 6.108-2.52 3.5 0 5.705 2.152 2.205 2.153 2.205 6.283 0 1.715-.14 2.695h-11.655q.14 1.68 1.243 2.642 1.102.963 2.642.963 2.38 0 3.85-1.855l2.8 2.835q-2.485 3.01-6.65 3.01zm-3.85-11.445h7.315q-.21-1.54-1.138-2.415-.927-.875-2.327-.875-3.43 0-3.85 3.29z"/></svg>