<?xml version="1.0" standalone="no"?><!-- Generator: Gravit.io --><svg xmlns="http://www.w3.org/2000/svg" xmlns:xlink="http://www.w3.org/1999/xlink" style="isolation:isolate" viewBox="0 0 256 256" width="256" height="256"><defs><filter id="iGgTJIXSTwyZXnXeKO32a3CE1qsm8DBi" x="-7.324" y="2.947" width="270.648" height="254.338" filterUnits="userSpaceOnUse"><feGaussianBlur xmlns="http://www.w3.org/2000/svg" in="SourceGraphic" stdDeviation="4.293609062839028"/><feOffset xmlns="http://www.w3.org/2000/svg" dx="0" dy="4" result="pf_100_offsetBlur"/><feFlood xmlns="http://www.w3.org/2000/svg" flood-color="#000000" flood-opacity="0.4"/><feComposite xmlns="http://www.w3.org/2000/svg" in2="pf_100_offsetBlur" operator="in" result="pf_100_dropShadow"/><feBlend xmlns="http://www.w3.org/2000/svg" in="SourceGraphic" in2="pf_100_dropShadow" mode="normal"/></filter></defs><g filter="url(#iGgTJIXSTwyZXnXeKO32a3CE1qsm8DBi)"><linearGradient id="_lgradient_33" x1="-0.03333333745301813" y1="-0.0714285362430962" x2="1.0333332929604209" y2="0.9952380941703431" gradientTransform="matrix(244.648,0,0,228.338,5.676,11.947)" gradientUnits="userSpaceOnUse"><stop offset="0%" stop-opacity="1" style="stop-color:rgb(231,38,98)"/><stop offset="48.271722%" stop-opacity="1" style="stop-color:rgb(236,60,80)"/><stop offset="100%" stop-opacity="1" style="stop-color:rgb(255,123,102)"/></linearGradient><path d=" M 165.685 11.947 C 239.74 11.947 250.324 22.504 250.324 96.491 L 250.324 155.742 C 250.324 229.728 239.74 240.285 165.685 240.285 L 90.315 240.285 C 16.26 240.285 5.676 229.728 5.676 155.742 L 5.676 96.491 C 5.676 22.504 16.26 11.947 90.315 11.947 L 165.685 11.947 Z " id="shape" fill="url(#_lgradient_33)"/></g><path d=" M 50.617 238.279 C 12.4 232.693 4.841 213.275 5.676 155.742 L 5.676 96.491 C 5.676 38.576 12.161 19.527 50.498 13.983 C 50.463 15.001 50.784 242.511 50.617 238.279 Z " id="shape" fill="rgb(51,51,51)"/><path d=" M 220 183.75 Q 239 183.875 249.519 183.76 C 247.341 213.908 240.071 228.383 219.848 235.041 Q 219.875 228.25 220 183.75 Z " id="shape 1" fill="rgb(241,240,233)"/><path d=" M 219.867 183.929 L 219.875 126.375 L 250.413 126.255 L 250.386 156.045 C 250.376 166.629 250.152 175.921 249.561 184.076 Q 238.722 183.947 219.867 183.929 Z " id="shape 2" fill="rgb(253,201,43)"/><path d=" M 219.875 126.125 L 219.875 69.25 Q 219.937 66.25 219.937 64.5 Q 246.366 54.478 249.582 69.361 C 250.123 77.29 250.324 86.287 250.324 96.491 L 250.324 126.116 L 219.875 126.125 Z " id="shape 3" fill="rgb(118,194,43)"/><path d=" M 219.875 68.75 Q 219.875 25.125 219.871 17.199 C 240.152 23.885 247.396 38.444 249.543 68.809 Q 244 68.625 219.875 68.75 Z " id="shape 4" fill="rgb(242,44,66)"/><g opacity="0.4"><linearGradient id="_lgradient_34" x1="0.5166666666666668" y1="0" x2="0.5166666666666666" y2="1.0000000000000002"><stop offset="0%" stop-opacity="1" style="stop-color:rgb(255,255,255)"/><stop offset="12.5%" stop-opacity="0.09803922" style="stop-color:rgb(255,255,255)"/><stop offset="92.500001%" stop-opacity="0.09803922" style="stop-color:rgb(0,0,0)"/><stop offset="100%" stop-opacity="0.49803922" style="stop-color:rgb(0,0,0)"/></linearGradient><path d=" M 165.685 11.947 C 239.74 11.947 250.324 22.504 250.324 96.491 L 250.324 155.742 C 250.324 229.728 239.74 240.285 165.685 240.285 L 90.315 240.285 C 16.26 240.285 5.676 229.728 5.676 155.742 L 5.676 96.491 C 5.676 22.504 16.26 11.947 90.315 11.947 L 165.685 11.947 Z " id="highlight" fill="none" vector-effect="non-scaling-stroke" stroke-width="4.077" stroke="url(#_lgradient_34)" stroke-linejoin="round" stroke-linecap="round" stroke-miterlimit="4"/></g><path d=" M 91 184.5 L 91 68 L 133.939 68 L 133.939 68 Q 148.584 68 159.901 72.91 L 159.901 72.91 L 159.901 72.91 Q 171.219 77.819 177.793 86.224 L 177.793 86.224 L 177.793 86.224 Q 184.366 94.629 187.612 104.781 L 187.612 104.781 L 187.612 104.781 Q 190.857 114.933 190.857 126.25 L 190.857 126.25 L 190.857 126.25 Q 190.857 134.571 189.026 142.477 L 189.026 142.477 L 189.026 142.477 Q 187.196 150.382 182.869 158.121 L 182.869 158.121 L 182.869 158.121 Q 178.541 165.86 172.051 171.602 L 172.051 171.602 L 172.051 171.602 Q 165.56 177.344 155.574 180.922 L 155.574 180.922 L 155.574 180.922 Q 145.589 184.5 133.273 184.5 L 133.273 184.5 L 91 184.5 Z  M 116.297 160.368 L 135.936 160.368 L 135.936 160.368 Q 150.249 160.368 157.405 150.133 L 157.405 150.133 L 157.405 150.133 Q 164.561 139.897 164.561 126.25 L 164.561 126.25 L 164.561 126.25 Q 164.561 112.603 157.655 102.284 L 157.655 102.284 L 157.655 102.284 Q 150.748 91.966 137.766 91.966 L 137.766 91.966 L 116.297 91.966 L 116.297 160.368 Z " fill-rule="evenodd" id="Compound Path" fill="rgb(247,247,247)"/></svg>