<svg xmlns="http://www.w3.org/2000/svg" style="isolation:isolate" width="256" height="256"><defs><filter id="a" width="270.648" height="254.338" x="-7.32" y="2.95" filterUnits="userSpaceOnUse"><feGaussianBlur xmlns="http://www.w3.org/2000/svg" in="SourceGraphic" stdDeviation="4.294"/><feOffset xmlns="http://www.w3.org/2000/svg" dy="4" result="pf_100_offsetBlur"/><feFlood xmlns="http://www.w3.org/2000/svg" flood-opacity=".4"/><feComposite xmlns="http://www.w3.org/2000/svg" in2="pf_100_offsetBlur" operator="in" result="pf_100_dropShadow"/><feBlend xmlns="http://www.w3.org/2000/svg" in="SourceGraphic" in2="pf_100_dropShadow"/></filter></defs><g filter="url(#a)"><linearGradient id="b" x1="-.033" x2="1.033" y1="-.071" y2=".995" gradientTransform="matrix(244.648 0 0 228.338 5.676 11.947)" gradientUnits="userSpaceOnUse"><stop offset="0%" stop-color="#e72662"/><stop offset="48.272%" stop-color="#ec3c50"/><stop offset="100%" stop-color="#ff7b66"/></linearGradient><path fill="url(#b)" d="M165.685 11.947c74.055 0 84.639 10.557 84.639 84.544v59.251c0 73.986-10.584 84.543-84.639 84.543h-75.37c-74.055 0-84.639-10.557-84.639-84.543V96.491c0-73.987 10.584-84.544 84.639-84.544h75.37z"/></g><path fill="#333" d="M50.617 238.279C12.4 232.693 4.841 213.275 5.676 155.742V96.491c0-57.915 6.485-76.964 44.822-82.508-.035 1.018.286 228.528.119 224.296z"/><path fill="#F1F0E9" d="M220 183.75q19 .125 29.519.01c-2.178 30.148-9.448 44.623-29.671 51.281q.027-6.791.152-51.291z"/><path fill="#FDC92B" d="M219.867 183.929l.008-57.554 30.538-.12-.027 29.79c-.01 10.584-.234 19.876-.825 28.031q-10.839-.129-29.694-.147z"/><path fill="#76C22B" d="M219.875 126.125V69.25q.062-3 .062-4.75 26.429-10.022 29.645 4.861c.541 7.929.742 16.926.742 27.13v29.625l-30.449.009z"/><path fill="#F22C42" d="M219.875 68.75q0-43.625-.004-51.551c20.281 6.686 27.525 21.245 29.672 51.61q-5.543-.184-29.668-.059z"/><g opacity=".4"><linearGradient id="c" x1=".517" x2=".517" y2="1"><stop offset="0%" stop-color="#fff"/><stop offset="12.5%" stop-opacity=".098" stop-color="#fff"/><stop offset="92.5%" stop-opacity=".098"/><stop offset="100%" stop-opacity=".498"/></linearGradient><path fill="none" stroke="url(#c)" stroke-linecap="round" stroke-linejoin="round" stroke-width="4.077" d="M165.685 11.947c74.055 0 84.639 10.557 84.639 84.544v59.251c0 73.986-10.584 84.543-84.639 84.543h-75.37c-74.055 0-84.639-10.557-84.639-84.543V96.491c0-73.987 10.584-84.544 84.639-84.544h75.37z" vector-effect="non-scaling-stroke"/></g><path fill="#F7F7F7" fill-rule="evenodd" d="M91 184.5V68h42.939q14.645 0 25.962 4.91 11.318 4.909 17.892 13.314 6.573 8.405 9.819 18.557 3.245 10.152 3.245 21.469 0 8.321-1.831 16.227-1.83 7.905-6.157 15.644-4.328 7.739-10.818 13.481-6.491 5.742-16.477 9.32-9.985 3.578-22.301 3.578H91zm25.297-24.132h19.639q14.313 0 21.469-10.235 7.156-10.236 7.156-23.883 0-13.647-6.906-23.966-6.907-10.318-19.889-10.318h-21.469v68.402z"/></svg>