<svg xmlns="http://www.w3.org/2000/svg" style="isolation:isolate" width="256" height="256"><defs><clipPath id="a"><path d="M0 0h256v256H0z"/></clipPath></defs><switch><g clip-path="url(#a)"><defs><filter id="b" width="270.648" height="254.338" x="-7.32" y="2.95" filterUnits="userSpaceOnUse"><feGaussianBlur xmlns="http://www.w3.org/2000/svg" in="SourceGraphic" stdDeviation="4.294"/><feOffset xmlns="http://www.w3.org/2000/svg" dy="4" result="pf_100_offsetBlur"/><feFlood xmlns="http://www.w3.org/2000/svg" flood-opacity=".4"/><feComposite xmlns="http://www.w3.org/2000/svg" in2="pf_100_offsetBlur" operator="in" result="pf_100_dropShadow"/><feBlend xmlns="http://www.w3.org/2000/svg" in="SourceGraphic" in2="pf_100_dropShadow"/></filter></defs><g filter="url(#b)"><linearGradient id="c" x1=".533" x2=".533" y1="1" gradientTransform="matrix(244.648 0 0 228.338 5.676 11.947)" gradientUnits="userSpaceOnUse"><stop offset="0%" stop-color="#325fd1"/><stop offset="100%" stop-color="#6e98ff"/></linearGradient><path fill="url(#c)" d="M165.685 11.947c74.055 0 84.639 10.557 84.639 84.544v59.251c0 73.986-10.584 84.543-84.639 84.543h-75.37c-74.055 0-84.639-10.557-84.639-84.543V96.491c0-73.987 10.584-84.544 84.639-84.544h75.37z"/></g><g opacity=".4"><linearGradient id="d" x1=".517" x2=".517" y2="1"><stop offset="0%" stop-color="#fff"/><stop offset="12.5%" stop-opacity=".098" stop-color="#fff"/><stop offset="92.5%" stop-opacity=".098"/><stop offset="100%" stop-opacity=".498"/></linearGradient><path fill="none" stroke="url(#d)" stroke-linecap="round" stroke-linejoin="round" stroke-width="4.077" d="M165.685 11.947c74.055 0 84.639 10.557 84.639 84.544v59.251c0 73.986-10.584 84.543-84.639 84.543h-75.37c-74.055 0-84.639-10.557-84.639-84.543V96.491c0-73.987 10.584-84.544 84.639-84.544h75.37z" vector-effect="non-scaling-stroke"/></g><defs><filter id="e" width="56.803" height="56.803" x="90.09" y="52.59" filterUnits="userSpaceOnUse"><feGaussianBlur xmlns="http://www.w3.org/2000/svg" stdDeviation="4.294"/></filter></defs><g filter="url(#e)"><radialGradient id="f" cx=".5" cy=".5" r="7.245" fx="29.095" fy="31.602" gradientTransform="rotate(30 -54.19 239.84) scale(31.872)" gradientUnits="userSpaceOnUse"><stop offset="0%" stop-color="#ffe375"/><stop offset="100%" stop-color="#ffa600"/></radialGradient><path fill="url(#f)" d="M118.493 99.398l-2.082-16.32-16.32-2.082 16.32-2.082 2.082-16.319 2.081 16.319 16.32 2.082-16.32 2.082-2.081 16.32z"/></g><radialGradient id="g" cx=".5" cy=".5" r="7.245" fx="29.095" fy="31.602" gradientTransform="rotate(30 -54.19 239.84) scale(31.872)" gradientUnits="userSpaceOnUse"><stop offset="0%" stop-color="#ffe375"/><stop offset="100%" stop-color="#ffa600"/></radialGradient><path fill="url(#g)" d="M118.493 99.398l-2.082-16.32-16.32-2.082 16.32-2.082 2.082-16.319 2.081 16.319 16.32 2.082-16.32 2.082-2.081 16.32z"/><g><defs><filter id="h" width="56.803" height="56.803" x="163.7" y="144.6" filterUnits="userSpaceOnUse"><feGaussianBlur xmlns="http://www.w3.org/2000/svg" stdDeviation="4.294"/></filter></defs><g filter="url(#h)"><radialGradient id="i" cx=".5" cy=".5" r="7.245" fx="29.095" fy="31.602" gradientTransform="rotate(30 -189.077 423.193) scale(31.872)" gradientUnits="userSpaceOnUse"><stop offset="0%" stop-color="#ffe375"/><stop offset="100%" stop-color="#ffa600"/></radialGradient><path fill="url(#i)" d="M192.099 191.405l-2.082-16.319-16.32-2.082 16.32-2.082 2.082-16.32 2.081 16.32 16.32 2.082-16.32 2.082-2.081 16.319z"/></g><radialGradient id="j" cx=".5" cy=".5" r="7.245" fx="29.095" fy="31.602" gradientTransform="rotate(30 -189.077 423.193) scale(31.872)" gradientUnits="userSpaceOnUse"><stop offset="0%" stop-color="#ffe375"/><stop offset="100%" stop-color="#ffa600"/></radialGradient><path fill="url(#j)" d="M192.099 191.405l-2.082-16.319-16.32-2.082 16.32-2.082 2.082-16.32 2.081 16.32 16.32 2.082-16.32 2.082-2.081 16.319z"/></g><g><defs><filter id="k" width="75.204" height="75.204" x="127.2" y="79.89" filterUnits="userSpaceOnUse"><feGaussianBlur xmlns="http://www.w3.org/2000/svg" stdDeviation="4.294"/></filter></defs><g filter="url(#k)"><radialGradient id="l" cx=".5" cy=".5" r="7.245" fx="29.095" fy="31.602" gradientTransform="rotate(30 -80.286 333.618) scale(47.808)" gradientUnits="userSpaceOnUse"><stop offset="0%" stop-color="#ffe375"/><stop offset="100%" stop-color="#ffa600"/></radialGradient><path fill="url(#l)" d="M164.803 145.095l-3.123-24.48-24.479-3.122 24.479-3.123 3.123-24.48 3.123 24.48 24.479 3.123-24.479 3.122-3.123 24.48z"/></g><radialGradient id="m" cx=".5" cy=".5" r="7.245" fx="29.095" fy="31.602" gradientTransform="rotate(30 -80.286 333.618) scale(47.808)" gradientUnits="userSpaceOnUse"><stop offset="0%" stop-color="#ffe375"/><stop offset="100%" stop-color="#ffa600"/></radialGradient><path fill="url(#m)" d="M164.803 145.095l-3.123-24.48-24.479-3.122 24.479-3.123 3.123-24.48 3.123 24.48 24.479 3.123-24.479 3.122-3.123 24.48z"/></g><g><defs><filter id="n" width="93.606" height="93.606" x="35.5" y="97.98" filterUnits="userSpaceOnUse"><feGaussianBlur xmlns="http://www.w3.org/2000/svg" stdDeviation="4.294"/></filter></defs><g filter="url(#n)"><radialGradient id="o" cx=".5" cy=".5" r="7.245" fx="29.095" fy="31.602" gradientTransform="rotate(30 -153.617 182.435) scale(63.744)" gradientUnits="userSpaceOnUse"><stop offset="0%" stop-color="#ffe375"/><stop offset="100%" stop-color="#ffa600"/></radialGradient><path fill="url(#o)" d="M82.303 181.591l-4.164-32.639-32.639-4.164 32.639-4.164 4.164-32.639 4.164 32.639 32.639 4.164-32.639 4.164-4.164 32.639z"/></g><radialGradient id="p" cx=".5" cy=".5" r="7.245" fx="29.095" fy="31.602" gradientTransform="rotate(30 -153.617 182.435) scale(63.744)" gradientUnits="userSpaceOnUse"><stop offset="0%" stop-color="#ffe375"/><stop offset="100%" stop-color="#ffa600"/></radialGradient><path fill="url(#p)" d="M82.303 181.591l-4.164-32.639-32.639-4.164 32.639-4.164 4.164-32.639 4.164 32.639 32.639 4.164-32.639 4.164-4.164 32.639z"/></g></g></switch> </svg>