<?xml version="1.0" encoding="UTF-8" standalone="no"?>
<!-- Created with Inkscape (http://www.inkscape.org/) -->

<svg
   xmlns:dc="http://purl.org/dc/elements/1.1/"
   xmlns:cc="http://creativecommons.org/ns#"
   xmlns:rdf="http://www.w3.org/1999/02/22-rdf-syntax-ns#"
   xmlns:svg="http://www.w3.org/2000/svg"
   xmlns="http://www.w3.org/2000/svg"
   xmlns:xlink="http://www.w3.org/1999/xlink"
   xmlns:sodipodi="http://sodipodi.sourceforge.net/DTD/sodipodi-0.dtd"
   xmlns:inkscape="http://www.inkscape.org/namespaces/inkscape"
   width="256"
   height="256"
   viewBox="0 0 67.733332 67.733335"
   version="1.1"
   id="svg1488"
   inkscape:version="0.92.3 (2405546, 2018-03-11)"
   sodipodi:docname="distributor-logo-kali.svg">
  <defs
     id="defs1482">
    <clipPath
       clipPathUnits="userSpaceOnUse"
       id="clipPath1025">
      <path
         id="path1027"
         d="M 111.94141,84 C 99.359506,84.145 90.1531,83.713998 82.625,87.867188 c -3.7641,2.0768 -6.751838,5.574737 -8.398438,9.960937 C 72.580062,102.21433 72,107.4241 72,114 v 42 h 160 v -26 c 0,-6.5759 -0.57996,-11.78566 -2.22656,-16.17188 -0.205,-0.5455 -0.47919,-1.03993 -0.74219,-1.54296 -0.1,-0.1848 -0.17844,-0.38051 -0.27344,-0.56641 -1.727,-3.38752 -4.25471,-6.14522 -7.38281,-7.87109 C 213.8463,99.694146 204.64049,100.1454 192.05859,100 H 192 151.66797 L 135.45312,84 h -23.49218 z"
         style="color:#000000;font-style:normal;font-variant:normal;font-weight:normal;font-stretch:normal;font-size:medium;line-height:normal;font-family:sans-serif;font-variant-ligatures:none;font-variant-position:normal;font-variant-caps:normal;font-variant-numeric:normal;font-variant-alternates:normal;font-feature-settings:normal;text-indent:0;text-align:start;text-decoration:none;text-decoration-line:none;text-decoration-style:solid;text-decoration-color:#000000;letter-spacing:normal;word-spacing:normal;text-transform:none;writing-mode:lr-tb;direction:ltr;baseline-shift:baseline;text-anchor:start;white-space:normal;shape-padding:0;clip-rule:nonzero;display:inline;overflow:visible;visibility:visible;opacity:1;isolation:auto;mix-blend-mode:normal;color-interpolation:sRGB;color-interpolation-filters:linearRGB;solid-color:#000000;solid-opacity:1;fill:#e3dfd5;fill-opacity:1;fill-rule:nonzero;stroke:none;stroke-width:4.00000048;stroke-linecap:butt;stroke-linejoin:miter;stroke-miterlimit:4;stroke-dasharray:none;stroke-dashoffset:0;stroke-opacity:1;marker:none;color-rendering:auto;image-rendering:auto;shape-rendering:auto;text-rendering:auto;enable-background:accumulate"
         inkscape:connector-curvature="0" />
    </clipPath>
    <clipPath
       clipPathUnits="userSpaceOnUse"
       id="clipPath1082-3">
      <path
         sodipodi:nodetypes="sssssssss"
         inkscape:connector-curvature="0"
         id="path1084-6"
         d="M 361.9375,-212 C 507.2348,-212 528,-191.28677 528,-46.125 V 70.125 C 528,215.28618 507.2348,236 361.9375,236 H 214.0625 C 68.7652,236 48,215.28618 48,70.125 V -46.125 C 48,-191.28677 68.7652,-212 214.0625,-212 Z"
         style="display:inline;opacity:1;fill:#8c59d9;fill-opacity:1;stroke:none;stroke-width:2;stroke-linecap:round;stroke-linejoin:round;stroke-miterlimit:4;stroke-dasharray:none;stroke-dashoffset:0;stroke-opacity:1;enable-background:new" />
    </clipPath>
    <clipPath
       clipPathUnits="userSpaceOnUse"
       id="clipPath1082-3-5">
      <path
         sodipodi:nodetypes="sssssssss"
         inkscape:connector-curvature="0"
         id="path1084-6-6"
         d="M 361.9375,-212 C 507.2348,-212 528,-191.28677 528,-46.125 V 70.125 C 528,215.28618 507.2348,236 361.9375,236 H 214.0625 C 68.7652,236 48,215.28618 48,70.125 V -46.125 C 48,-191.28677 68.7652,-212 214.0625,-212 Z"
         style="display:inline;opacity:1;fill:#8c59d9;fill-opacity:1;stroke:none;stroke-width:2;stroke-linecap:round;stroke-linejoin:round;stroke-miterlimit:4;stroke-dasharray:none;stroke-dashoffset:0;stroke-opacity:1;enable-background:new" />
    </clipPath>
    <clipPath
       clipPathUnits="userSpaceOnUse"
       id="clipPath1082-3-9">
      <path
         sodipodi:nodetypes="sssssssss"
         inkscape:connector-curvature="0"
         id="path1084-6-3"
         d="M 361.9375,-212 C 507.2348,-212 528,-191.28677 528,-46.125 V 70.125 C 528,215.28618 507.2348,236 361.9375,236 H 214.0625 C 68.7652,236 48,215.28618 48,70.125 V -46.125 C 48,-191.28677 68.7652,-212 214.0625,-212 Z"
         style="display:inline;opacity:1;fill:#8c59d9;fill-opacity:1;stroke:none;stroke-width:2;stroke-linecap:round;stroke-linejoin:round;stroke-miterlimit:4;stroke-dasharray:none;stroke-dashoffset:0;stroke-opacity:1;enable-background:new" />
    </clipPath>
    <clipPath
       clipPathUnits="userSpaceOnUse"
       id="clipPath1082-3-3">
      <path
         sodipodi:nodetypes="sssssssss"
         inkscape:connector-curvature="0"
         id="path1084-6-67"
         d="M 361.9375,-212 C 507.2348,-212 528,-191.28677 528,-46.125 V 70.125 C 528,215.28618 507.2348,236 361.9375,236 H 214.0625 C 68.7652,236 48,215.28618 48,70.125 V -46.125 C 48,-191.28677 68.7652,-212 214.0625,-212 Z"
         style="display:inline;opacity:1;fill:#8c59d9;fill-opacity:1;stroke:none;stroke-width:2;stroke-linecap:round;stroke-linejoin:round;stroke-miterlimit:4;stroke-dasharray:none;stroke-dashoffset:0;stroke-opacity:1;enable-background:new" />
    </clipPath>
    <clipPath
       clipPathUnits="userSpaceOnUse"
       id="clipPath1082-3-53">
      <path
         sodipodi:nodetypes="sssssssss"
         inkscape:connector-curvature="0"
         id="path1084-6-5"
         d="M 361.9375,-212 C 507.2348,-212 528,-191.28677 528,-46.125 V 70.125 C 528,215.28618 507.2348,236 361.9375,236 H 214.0625 C 68.7652,236 48,215.28618 48,70.125 V -46.125 C 48,-191.28677 68.7652,-212 214.0625,-212 Z"
         style="display:inline;opacity:1;fill:#8c59d9;fill-opacity:1;stroke:none;stroke-width:2;stroke-linecap:round;stroke-linejoin:round;stroke-miterlimit:4;stroke-dasharray:none;stroke-dashoffset:0;stroke-opacity:1;enable-background:new" />
    </clipPath>
    <clipPath
       clipPathUnits="userSpaceOnUse"
       id="clipPath1082-3-6">
      <path
         sodipodi:nodetypes="sssssssss"
         inkscape:connector-curvature="0"
         id="path1084-6-2"
         d="M 361.9375,-212 C 507.2348,-212 528,-191.28677 528,-46.125 V 70.125 C 528,215.28618 507.2348,236 361.9375,236 H 214.0625 C 68.7652,236 48,215.28618 48,70.125 V -46.125 C 48,-191.28677 68.7652,-212 214.0625,-212 Z"
         style="display:inline;opacity:1;fill:#8c59d9;fill-opacity:1;stroke:none;stroke-width:2;stroke-linecap:round;stroke-linejoin:round;stroke-miterlimit:4;stroke-dasharray:none;stroke-dashoffset:0;stroke-opacity:1;enable-background:new" />
    </clipPath>
    <clipPath
       clipPathUnits="userSpaceOnUse"
       id="clipPath1082-3-91">
      <path
         sodipodi:nodetypes="sssssssss"
         inkscape:connector-curvature="0"
         id="path1084-6-27"
         d="M 361.9375,-212 C 507.2348,-212 528,-191.28677 528,-46.125 V 70.125 C 528,215.28618 507.2348,236 361.9375,236 H 214.0625 C 68.7652,236 48,215.28618 48,70.125 V -46.125 C 48,-191.28677 68.7652,-212 214.0625,-212 Z"
         style="display:inline;opacity:1;fill:#8c59d9;fill-opacity:1;stroke:none;stroke-width:2;stroke-linecap:round;stroke-linejoin:round;stroke-miterlimit:4;stroke-dasharray:none;stroke-dashoffset:0;stroke-opacity:1;enable-background:new" />
    </clipPath>
    <clipPath
       clipPathUnits="userSpaceOnUse"
       id="clipPath1025-0">
      <path
         style="opacity:1;fill:#8c59d9;fill-opacity:1;stroke:none;stroke-width:2;stroke-linecap:round;stroke-linejoin:round;stroke-miterlimit:4;stroke-dasharray:none;stroke-dashoffset:0;stroke-opacity:1"
         d="M 329.9375,32 C 475.2348,32 496,52.71323 496,197.875 v 116.25 C 496,459.28618 475.2348,480 329.9375,480 H 182.0625 C 36.7652,480 16,459.28618 16,314.125 V 197.875 C 16,52.71323 36.7652,32 182.0625,32 Z"
         id="path1027-9"
         inkscape:connector-curvature="0"
         sodipodi:nodetypes="sssssssss" />
    </clipPath>
    <clipPath
       clipPathUnits="userSpaceOnUse"
       id="clipPath4277-8">
      <rect
         style="color:#000000;display:inline;overflow:visible;visibility:visible;opacity:0.81999972;fill:#88b637;fill-opacity:1;fill-rule:nonzero;stroke:none;stroke-width:2;stroke-linecap:butt;stroke-linejoin:miter;stroke-miterlimit:4;stroke-dasharray:none;stroke-dashoffset:0;stroke-opacity:1;marker:none;enable-background:accumulate"
         id="rect4279-6"
         width="512"
         height="512"
         x="5.5999999e-07"
         y="0"
         ry="1" />
    </clipPath>
    <linearGradient
       id="linearGradient3650-7-9">
      <stop
         style="stop-color:#5884f4;stop-opacity:1"
         offset="0"
         id="stop4366" />
      <stop
         id="stop4368"
         offset="1"
         style="stop-color:#80a3fa;stop-opacity:1" />
    </linearGradient>
    <clipPath
       clipPathUnits="userSpaceOnUse"
       id="clipPath1082-3-36">
      <path
         sodipodi:nodetypes="sssssssss"
         inkscape:connector-curvature="0"
         id="path1084-6-0"
         d="M 361.9375,-212 C 507.2348,-212 528,-191.28677 528,-46.125 V 70.125 C 528,215.28618 507.2348,236 361.9375,236 H 214.0625 C 68.7652,236 48,215.28618 48,70.125 V -46.125 C 48,-191.28677 68.7652,-212 214.0625,-212 Z"
         style="display:inline;opacity:1;fill:#8c59d9;fill-opacity:1;stroke:none;stroke-width:2;stroke-linecap:round;stroke-linejoin:round;stroke-miterlimit:4;stroke-dasharray:none;stroke-dashoffset:0;stroke-opacity:1;enable-background:new" />
    </clipPath>
    <clipPath
       clipPathUnits="userSpaceOnUse"
       id="clipPath983">
      <path
         id="path985"
         d="M 115.03125,44 C 42.3826,44 32,54.356615 32,126.9375 v 58.125 C 32,257.64309 42.3826,268 115.03125,268 H 152 V 44 Z"
         style="opacity:1;fill:#4d4d4d;fill-opacity:1;stroke:none;stroke-width:2;stroke-linecap:round;stroke-linejoin:round;stroke-miterlimit:4;stroke-dasharray:none;stroke-dashoffset:0;stroke-opacity:1"
         inkscape:connector-curvature="0" />
    </clipPath>
    <clipPath
       clipPathUnits="userSpaceOnUse"
       id="clipPath1082-3-62">
      <path
         sodipodi:nodetypes="sssssssss"
         inkscape:connector-curvature="0"
         id="path1084-6-61"
         d="M 361.9375,-212 C 507.2348,-212 528,-191.28677 528,-46.125 V 70.125 C 528,215.28618 507.2348,236 361.9375,236 H 214.0625 C 68.7652,236 48,215.28618 48,70.125 V -46.125 C 48,-191.28677 68.7652,-212 214.0625,-212 Z"
         style="display:inline;opacity:1;fill:#8c59d9;fill-opacity:1;stroke:none;stroke-width:2;stroke-linecap:round;stroke-linejoin:round;stroke-miterlimit:4;stroke-dasharray:none;stroke-dashoffset:0;stroke-opacity:1;enable-background:new" />
    </clipPath>
    <clipPath
       clipPathUnits="userSpaceOnUse"
       id="clipPath949">
      <path
         sodipodi:nodetypes="sssssssss"
         inkscape:connector-curvature="0"
         id="path951"
         d="M 329.9375,32 C 475.2348,32 496,52.71323 496,197.875 v 116.25 C 496,459.28618 475.2348,480 329.9375,480 H 182.0625 C 36.7652,480 16,459.28618 16,314.125 V 197.875 C 16,52.71323 36.7652,32 182.0625,32 Z"
         style="opacity:1;fill:#eab305;fill-opacity:1;stroke:none;stroke-width:4;stroke-linecap:round;stroke-linejoin:round;stroke-miterlimit:4;stroke-dasharray:none;stroke-dashoffset:0;stroke-opacity:1" />
    </clipPath>
    <clipPath
       clipPathUnits="userSpaceOnUse"
       id="clipPath954">
      <path
         sodipodi:nodetypes="sssssssss"
         inkscape:connector-curvature="0"
         id="path952"
         d="M 329.9375,32 C 475.2348,32 496,52.71323 496,197.875 v 116.25 C 496,459.28618 475.2348,480 329.9375,480 H 182.0625 C 36.7652,480 16,459.28618 16,314.125 V 197.875 C 16,52.71323 36.7652,32 182.0625,32 Z"
         style="opacity:1;fill:#eab305;fill-opacity:1;stroke:none;stroke-width:4;stroke-linecap:round;stroke-linejoin:round;stroke-miterlimit:4;stroke-dasharray:none;stroke-dashoffset:0;stroke-opacity:1" />
    </clipPath>
    <clipPath
       clipPathUnits="userSpaceOnUse"
       id="clipPath1082-3-8">
      <path
         sodipodi:nodetypes="sssssssss"
         inkscape:connector-curvature="0"
         id="path1084-6-7"
         d="M 361.9375,-212 C 507.2348,-212 528,-191.28677 528,-46.125 V 70.125 C 528,215.28618 507.2348,236 361.9375,236 H 214.0625 C 68.7652,236 48,215.28618 48,70.125 V -46.125 C 48,-191.28677 68.7652,-212 214.0625,-212 Z"
         style="display:inline;opacity:1;fill:#8c59d9;fill-opacity:1;stroke:none;stroke-width:2;stroke-linecap:round;stroke-linejoin:round;stroke-miterlimit:4;stroke-dasharray:none;stroke-dashoffset:0;stroke-opacity:1;enable-background:new" />
    </clipPath>
    <clipPath
       clipPathUnits="userSpaceOnUse"
       id="clipPath1082-3-92">
      <path
         sodipodi:nodetypes="sssssssss"
         inkscape:connector-curvature="0"
         id="path1084-6-02"
         d="M 361.9375,-212 C 507.2348,-212 528,-191.28677 528,-46.125 V 70.125 C 528,215.28618 507.2348,236 361.9375,236 H 214.0625 C 68.7652,236 48,215.28618 48,70.125 V -46.125 C 48,-191.28677 68.7652,-212 214.0625,-212 Z"
         style="display:inline;opacity:1;fill:#8c59d9;fill-opacity:1;stroke:none;stroke-width:2;stroke-linecap:round;stroke-linejoin:round;stroke-miterlimit:4;stroke-dasharray:none;stroke-dashoffset:0;stroke-opacity:1;enable-background:new" />
    </clipPath>
    <clipPath
       clipPathUnits="userSpaceOnUse"
       id="clipPath1082">
      <path
         sodipodi:nodetypes="sssssssss"
         inkscape:connector-curvature="0"
         id="path1084"
         d="M 361.9375,-212 C 507.2348,-212 528,-191.28677 528,-46.125 V 70.125 C 528,215.28618 507.2348,236 361.9375,236 H 214.0625 C 68.7652,236 48,215.28618 48,70.125 V -46.125 C 48,-191.28677 68.7652,-212 214.0625,-212 Z"
         style="display:inline;opacity:1;fill:#8c59d9;fill-opacity:1;stroke:none;stroke-width:2;stroke-linecap:round;stroke-linejoin:round;stroke-miterlimit:4;stroke-dasharray:none;stroke-dashoffset:0;stroke-opacity:1;enable-background:new" />
    </clipPath>
    <clipPath
       clipPathUnits="userSpaceOnUse"
       id="clipPath1082-3-361">
      <path
         sodipodi:nodetypes="sssssssss"
         inkscape:connector-curvature="0"
         id="path1084-6-29"
         d="M 361.9375,-212 C 507.2348,-212 528,-191.28677 528,-46.125 V 70.125 C 528,215.28618 507.2348,236 361.9375,236 H 214.0625 C 68.7652,236 48,215.28618 48,70.125 V -46.125 C 48,-191.28677 68.7652,-212 214.0625,-212 Z"
         style="display:inline;opacity:1;fill:#8c59d9;fill-opacity:1;stroke:none;stroke-width:2;stroke-linecap:round;stroke-linejoin:round;stroke-miterlimit:4;stroke-dasharray:none;stroke-dashoffset:0;stroke-opacity:1;enable-background:new" />
    </clipPath>
    <clipPath
       clipPathUnits="userSpaceOnUse"
       id="clipPath1079">
      <circle
         cx="213.84277"
         cy="146"
         r="55"
         style="color:#000000;display:inline;overflow:visible;visibility:visible;opacity:1;fill:url(#linearGradient1083);fill-opacity:1;fill-rule:nonzero;stroke:none;stroke-width:7.99999952;stroke-linecap:butt;stroke-linejoin:miter;stroke-miterlimit:4;stroke-dasharray:none;stroke-dashoffset:0;stroke-opacity:1;marker:none;enable-background:accumulate"
         id="circle1081"
         transform="scale(-1,1)" />
    </clipPath>
    <clipPath
       clipPathUnits="userSpaceOnUse"
       id="clipPath984">
      <circle
         cx="213.84277"
         cy="146"
         r="55"
         style="color:#000000;display:inline;overflow:visible;visibility:visible;opacity:1;fill:url(#linearGradient1083);fill-opacity:1;fill-rule:nonzero;stroke:none;stroke-width:7.99999952;stroke-linecap:butt;stroke-linejoin:miter;stroke-miterlimit:4;stroke-dasharray:none;stroke-dashoffset:0;stroke-opacity:1;marker:none;enable-background:accumulate"
         id="circle982"
         transform="scale(-1,1)" />
    </clipPath>
    <clipPath
       clipPathUnits="userSpaceOnUse"
       id="clipPath988">
      <circle
         cx="213.84277"
         cy="146"
         r="55"
         style="color:#000000;display:inline;overflow:visible;visibility:visible;opacity:1;fill:url(#linearGradient1083);fill-opacity:1;fill-rule:nonzero;stroke:none;stroke-width:7.99999952;stroke-linecap:butt;stroke-linejoin:miter;stroke-miterlimit:4;stroke-dasharray:none;stroke-dashoffset:0;stroke-opacity:1;marker:none;enable-background:accumulate"
         id="circle986"
         transform="scale(-1,1)" />
    </clipPath>
    <clipPath
       clipPathUnits="userSpaceOnUse"
       id="clipPath992">
      <circle
         cx="213.84277"
         cy="146"
         r="55"
         style="color:#000000;display:inline;overflow:visible;visibility:visible;opacity:1;fill:url(#linearGradient1083);fill-opacity:1;fill-rule:nonzero;stroke:none;stroke-width:7.99999952;stroke-linecap:butt;stroke-linejoin:miter;stroke-miterlimit:4;stroke-dasharray:none;stroke-dashoffset:0;stroke-opacity:1;marker:none;enable-background:accumulate"
         id="circle990"
         transform="scale(-1,1)" />
    </clipPath>
    <clipPath
       clipPathUnits="userSpaceOnUse"
       id="clipPath1082-3-31">
      <path
         sodipodi:nodetypes="sssssssss"
         inkscape:connector-curvature="0"
         id="path1084-6-9"
         d="M 361.9375,-212 C 507.2348,-212 528,-191.28677 528,-46.125 V 70.125 C 528,215.28618 507.2348,236 361.9375,236 H 214.0625 C 68.7652,236 48,215.28618 48,70.125 V -46.125 C 48,-191.28677 68.7652,-212 214.0625,-212 Z"
         style="display:inline;opacity:1;fill:#8c59d9;fill-opacity:1;stroke:none;stroke-width:2;stroke-linecap:round;stroke-linejoin:round;stroke-miterlimit:4;stroke-dasharray:none;stroke-dashoffset:0;stroke-opacity:1;enable-background:new" />
    </clipPath>
    <clipPath
       clipPathUnits="userSpaceOnUse"
       id="clipPath1205">
      <path
         id="path1207"
         d="M 115.03125,44 C 42.3826,44 32,54.356615 32,126.9375 v 58.125 c 0,13.772 0.379014,25.29352 1.482422,34.9375 H 270.51758 C 271.62099,210.35602 272,198.8345 272,185.0625 v -58.125 C 272,54.356615 261.6174,44 188.96875,44 Z"
         style="opacity:1;fill:#f1f0e9;fill-opacity:1;stroke:none;stroke-width:2;stroke-linecap:round;stroke-linejoin:round;stroke-miterlimit:4;stroke-dasharray:none;stroke-dashoffset:0;stroke-opacity:1"
         inkscape:connector-curvature="0" />
    </clipPath>
    <clipPath
       clipPathUnits="userSpaceOnUse"
       id="clipPath1082-3-4">
      <path
         sodipodi:nodetypes="sssssssss"
         inkscape:connector-curvature="0"
         id="path1084-6-78"
         d="M 361.9375,-212 C 507.2348,-212 528,-191.28677 528,-46.125 V 70.125 C 528,215.28618 507.2348,236 361.9375,236 H 214.0625 C 68.7652,236 48,215.28618 48,70.125 V -46.125 C 48,-191.28677 68.7652,-212 214.0625,-212 Z"
         style="display:inline;opacity:1;fill:#8c59d9;fill-opacity:1;stroke:none;stroke-width:2;stroke-linecap:round;stroke-linejoin:round;stroke-miterlimit:4;stroke-dasharray:none;stroke-dashoffset:0;stroke-opacity:1;enable-background:new" />
    </clipPath>
    <linearGradient
       inkscape:collect="always"
       xlink:href="#linearGradient1013"
       id="linearGradient1108"
       x1="296"
       y1="-212"
       x2="296"
       y2="236"
       gradientUnits="userSpaceOnUse" />
    <linearGradient
       id="linearGradient1013"
       inkscape:collect="always">
      <stop
         id="stop1005"
         offset="0"
         style="stop-color:#ffffff;stop-opacity:1;" />
      <stop
         style="stop-color:#ffffff;stop-opacity:0.09803922"
         offset="0.125"
         id="stop1007" />
      <stop
         style="stop-color:#000000;stop-opacity:0.09803922"
         offset="0.92500001"
         id="stop1009" />
      <stop
         id="stop1011"
         offset="1"
         style="stop-color:#000000;stop-opacity:0.49803922" />
    </linearGradient>
    <clipPath
       clipPathUnits="userSpaceOnUse"
       id="clipPath1082-3-45">
      <path
         sodipodi:nodetypes="sssssssss"
         inkscape:connector-curvature="0"
         id="path1084-6-03"
         d="M 361.9375,-212 C 507.2348,-212 528,-191.28677 528,-46.125 V 70.125 C 528,215.28618 507.2348,236 361.9375,236 H 214.0625 C 68.7652,236 48,215.28618 48,70.125 V -46.125 C 48,-191.28677 68.7652,-212 214.0625,-212 Z"
         style="display:inline;opacity:1;fill:#8c59d9;fill-opacity:1;stroke:none;stroke-width:2;stroke-linecap:round;stroke-linejoin:round;stroke-miterlimit:4;stroke-dasharray:none;stroke-dashoffset:0;stroke-opacity:1;enable-background:new" />
    </clipPath>
    <linearGradient
       inkscape:collect="always"
       xlink:href="#linearGradient4195"
       id="linearGradient878"
       x1="32"
       y1="156"
       x2="272"
       y2="156"
       gradientUnits="userSpaceOnUse"
       gradientTransform="matrix(0,0.26970778,-0.26970778,0,75.941077,221.63932)" />
    <filter
       inkscape:collect="always"
       style="color-interpolation-filters:sRGB"
       id="filter938"
       x="-0.0232"
       width="1.0464"
       y="-0.024857143"
       height="1.0497143">
      <feGaussianBlur
         inkscape:collect="always"
         stdDeviation="2.32"
         id="feGaussianBlur940" />
    </filter>
    <filter
       inkscape:collect="always"
       style="color-interpolation-filters:sRGB"
       id="filter4569"
       x="-0.0116"
       width="1.0232"
       y="-0.012428571"
       height="1.024857">
      <feGaussianBlur
         inkscape:collect="always"
         stdDeviation="1.16"
         id="feGaussianBlur4571" />
    </filter>
    <linearGradient
       inkscape:collect="always"
       id="linearGradient4195">
      <stop
         style="stop-color:#527d97;stop-opacity:1"
         offset="0"
         id="stop4197" />
      <stop
         style="stop-color:#527d97;stop-opacity:1"
         offset="1"
         id="stop4199" />
    </linearGradient>
    <filter
       inkscape:collect="always"
       style="color-interpolation-filters:sRGB"
       id="filter921"
       x="-0.043489983"
       width="1.08698"
       y="-0.053553643"
       height="1.1071073">
      <feGaussianBlur
         inkscape:collect="always"
         stdDeviation="0.95889363"
         id="feGaussianBlur923" />
    </filter>
    <filter
       inkscape:collect="always"
       style="color-interpolation-filters:sRGB"
       id="filter952"
       x="-0.036102858"
       width="1.0722057"
       y="-0.071592065"
       height="1.1431841">
      <feGaussianBlur
         inkscape:collect="always"
         stdDeviation="0.39800894"
         id="feGaussianBlur954" />
    </filter>
  </defs>
  <sodipodi:namedview
     id="base"
     pagecolor="#ffffff"
     bordercolor="#666666"
     borderopacity="1.0"
     inkscape:pageopacity="0.0"
     inkscape:pageshadow="2"
     inkscape:zoom="3.2958436"
     inkscape:cx="45.241441"
     inkscape:cy="127.84507"
     inkscape:document-units="px"
     inkscape:current-layer="layer1"
     showgrid="true"
     units="px"
     inkscape:window-width="1920"
     inkscape:window-height="1009"
     inkscape:window-x="0"
     inkscape:window-y="34"
     inkscape:window-maximized="1"
     showguides="false">
    <inkscape:grid
       type="xygrid"
       id="grid2168" />
  </sodipodi:namedview>
  <metadata
     id="metadata1485">
    <rdf:RDF>
      <cc:Work
         rdf:about="">
        <dc:format>image/svg+xml</dc:format>
        <dc:type
           rdf:resource="http://purl.org/dc/dcmitype/StillImage" />
        <dc:title />
      </cc:Work>
    </rdf:RDF>
  </metadata>
  <g
     inkscape:label="Livello 1"
     inkscape:groupmode="layer"
     id="layer1"
     transform="translate(0,-229.26666)">
    <path
       sodipodi:nodetypes="sssssssss"
       inkscape:connector-curvature="0"
       id="path4567"
       d="m 188.96876,43.999995 c 72.64865,0 83.03125,10.356615 83.03125,82.937505 v 58.125 c 0,72.58059 -10.3826,82.9375 -83.03125,82.9375 h -73.9375 C 42.382606,268 32.000006,257.64309 32.000006,185.0625 v -58.125 c 0,-72.58089 10.3826,-82.937505 83.031254,-82.937505 z"
       style="display:inline;opacity:0.1;fill:#000000;fill-opacity:1;stroke:none;stroke-width:2;stroke-linecap:round;stroke-linejoin:round;stroke-miterlimit:4;stroke-dasharray:none;stroke-dashoffset:0;stroke-opacity:1;filter:url(#filter4569);enable-background:new"
       transform="matrix(0.26970778,0,0,0.26970778,-7.1289177,220.56049)" />
    <path
       style="display:inline;opacity:0.2;fill:#000000;fill-opacity:1;stroke:none;stroke-width:2;stroke-linecap:round;stroke-linejoin:round;stroke-miterlimit:4;stroke-dasharray:none;stroke-dashoffset:0;stroke-opacity:1;filter:url(#filter938);enable-background:new"
       d="m 188.96876,45.999995 c 72.64865,0 83.03125,10.356615 83.03125,82.937505 v 58.125 c 0,72.58059 -10.3826,82.9375 -83.03125,82.9375 h -73.9375 C 42.382606,270 32.000006,259.64309 32.000006,187.0625 v -58.125 c 0,-72.58089 10.3826,-82.937505 83.031254,-82.937505 z"
       id="path936"
       inkscape:connector-curvature="0"
       sodipodi:nodetypes="sssssssss"
       transform="matrix(0.26970778,0,0,0.26970778,-7.1289177,220.56049)" />
    <path
       style="display:inline;opacity:1;fill:url(#linearGradient878);fill-opacity:1.0;stroke:none;stroke-width:0.5394156;stroke-linecap:round;stroke-linejoin:round;stroke-miterlimit:4;stroke-dasharray:none;stroke-dashoffset:0;stroke-opacity:1;enable-background:new"
       d="m 43.837425,232.42763 c 19.593907,0 22.394175,2.79326 22.394175,22.36889 v 15.67677 c 0,19.57555 -2.800268,22.36888 -22.394175,22.36888 h -19.94152 c -19.5939057,0 -22.3941738,-2.79333 -22.3941738,-22.36888 v -15.67677 c 0,-19.57563 2.8002681,-22.36889 22.3941738,-22.36889 z"
       id="rect877"
       inkscape:connector-curvature="0" />
    <path
       sodipodi:nodetypes="sssssssss"
       inkscape:connector-curvature="0"
       id="path1068"
       d="M 361.9375,-212 C 507.2348,-212 528,-191.28677 528,-46.125 V 70.125 C 528,215.28618 507.2348,236 361.9375,236 H 214.0625 C 68.7652,236 48,215.28618 48,70.125 V -46.125 C 48,-191.28677 68.7652,-212 214.0625,-212 Z"
       style="display:inline;opacity:0.4;fill:none;fill-opacity:1;stroke:url(#linearGradient1108);stroke-width:8;stroke-linecap:round;stroke-linejoin:round;stroke-miterlimit:4;stroke-dasharray:none;stroke-dashoffset:0;stroke-opacity:1;enable-background:new"
       clip-path="url(#clipPath1082-3-45)"
       transform="matrix(0.13485389,0,0,0.13485389,-4.9712557,261.01666)" />
    <path
       inkscape:connector-curvature="0"
       style="fill:#000000;stroke-width:0.12343823;filter:url(#filter921);opacity:0.3"
       d="m 12.330393,241.14925 c -0.283767,0.001 -0.566774,0.004 -0.848575,0.007 -2.1017764,0.0305 -3.356292,0.0968 -3.5094932,0.18551 -0.191107,0.11059 0.017224,0.15209 1.0492848,0.20939 10.5743544,0.5871 14.4993824,1.02693 19.0010494,2.12913 1.94667,0.47663 4.755707,1.37644 5.654895,1.81144 l 0.565055,0.27339 0.214811,1.2961 c 0.251338,1.51731 0.704881,3.02675 1.296644,4.31485 l 0.422933,0.92036 -0.59019,0.48822 c -2.39622,1.98252 -3.261521,3.56942 -3.437525,6.30348 -0.262705,4.08088 2.014068,7.08728 6.118691,8.07948 0.577074,0.1395 1.771279,0.33924 2.653862,0.44408 5.272175,0.62631 7.408425,1.54206 10.347836,4.43565 1.137362,1.11962 2.661388,2.91101 3.391417,3.98648 1.194012,1.759 2.267733,4.49242 2.705755,6.88808 l 0.219152,1.19936 0.03543,-1.26102 c 0.123349,-4.40417 -2.410009,-9.43169 -6.640712,-13.17872 -0.670891,-0.59419 -1.166308,-1.09912 -1.100818,-1.12216 0.26829,-0.0944 2.479953,0.64456 3.63263,1.21365 2.661385,1.31398 4.755985,3.50658 6.197164,6.48756 0.311516,0.64435 0.584805,1.15322 0.607367,1.13065 0.08993,-0.0899 -0.605911,-2.42729 -0.981659,-3.29757 -1.362686,-3.15616 -4.040095,-5.30857 -8.049463,-6.47092 -1.565076,-0.45373 -3.226472,-0.7608 -7.031278,-1.29954 -1.900947,-0.26917 -3.990545,-0.62533 -4.643581,-0.79163 -3.077494,-0.78367 -4.687761,-2.1499 -5.155474,-4.37361 -0.196958,-0.93641 -0.170228,-2.65185 0.05334,-3.42089 0.529757,-1.8223 2.172806,-3.31221 4.489885,-4.07147 1.470077,-0.48171 3.969779,0.0611 8.557922,1.85844 l 2.437785,0.95507 7e-4,0.50648 c 7e-4,0.82325 0.315494,1.17214 1.737114,1.92571 0.828698,0.43927 1.565067,0.946 2.086095,1.43551 l 0.805181,0.75654 0.648053,-0.58114 c 0.356426,-0.31966 0.648049,-0.61412 0.648049,-0.65438 0,-0.0402 -0.193847,-0.1373 -0.430889,-0.21554 -0.237046,-0.0782 -0.767807,-0.39021 -1.179476,-0.69326 -0.586578,-0.43181 -0.732296,-0.60214 -0.673362,-0.78782 0.1034,-0.3258 -1.295973,-2.40751 -1.689201,-2.51282 -0.15709,-0.0421 -0.457283,-0.0771 -0.667036,-0.0781 -0.31864,-0.001 -0.474907,-0.12234 -0.950559,-0.73485 -0.313108,-0.40319 -0.6831,-0.79404 -0.822178,-0.86847 -0.2327,-0.12453 -0.252964,-0.10047 -0.252964,0.30106 0,0.24001 -0.04029,0.43649 -0.08951,0.43649 -0.04921,0 -0.465819,-0.3735 -0.925785,-0.82995 -0.78946,-0.7834 -0.836283,-0.81112 -0.836283,-0.49381 0,0.18488 -0.04716,0.33614 -0.104871,0.33614 -0.140392,0 -1.024365,-0.64675 -1.237155,-0.90518 -0.203766,-0.24743 -0.386059,-0.26704 -0.386059,-0.0415 0,0.1153 -0.211107,0.0608 -0.70971,-0.18316 -1.020381,-0.49925 -2.844799,-0.95101 -4.413037,-1.09286 -2.6165,-0.23666 -3.748766,-0.84646 -4.558596,-2.4546 -0.394275,-0.78294 -0.56397,-1.67952 -0.56397,-2.9797 v -1.10281 l -0.586392,-0.29544 C 30.764699,242.61674 21.12716,241.12147 12.33038,241.14892 Z m 21.608442,4.6387 -4.099861,0.0849 c -7.581988,0.15724 -13.176844,0.66752 -19.282943,1.75864 -2.1587444,0.38575 -2.5112732,0.48132 -2.8081015,0.76107 -0.1867,0.17595 -0.3395753,0.36502 -0.3395753,0.42021 0,0.13658 -0.027423,0.13944 1.9868254,-0.20179 3.5489444,-0.60121 7.5123104,-1.03609 11.9618154,-1.31256 1.841143,-0.11435 10.672664,-0.16677 12.467201,-0.074 0.420945,0.0218 0.430893,0.0118 0.390566,-0.39852 -0.02276,-0.23146 -0.09405,-0.55968 -0.158576,-0.72942 z m 0.04738,2.03583 c -0.191985,-0.001 -0.492726,0.0415 -0.986362,0.10741 -6.36823,0.85032 -12.970222,3.08521 -18.740671,6.34381 -1.222654,0.69045 -1.542918,0.95307 -1.542918,1.26573 0,0.0888 0.05075,0.16165 0.112836,0.16165 0.06208,0 0.964842,-0.44052 2.005992,-0.97894 5.406252,-2.79587 11.136022,-4.557 17.075884,-5.2486 2.91147,-0.339 2.801989,-0.31919 2.734145,-0.49599 -0.03446,-0.0898 -0.130971,-0.3913 -0.214451,-0.66993 -0.106388,-0.35511 -0.124475,-0.48243 -0.444449,-0.48513 z m 7.543716,1.13174 c -0.0079,-3.5e-4 -0.01302,6.9e-4 -0.01519,0.002 -0.02805,0.0281 0.965749,0.57607 2.208508,1.2178 3.720067,1.92095 5.770481,3.25703 7.003793,4.56385 0.371472,0.3936 0.709063,0.71567 0.750216,0.71567 0.04115,0 0.17408,-0.0725 0.295273,-0.16111 0.201922,-0.14764 0.154709,-0.22188 -0.562884,-0.88691 -1.44492,-1.33909 -3.559517,-2.7793 -5.535373,-3.77005 -0.964437,-0.4836 -3.898869,-1.67124 -4.144343,-1.68197 z m 10.679094,7.91113 0.702658,0.8229 -0.124404,0.0755 c 0,0 -0.149293,-0.0106 -0.222406,-0.025 -0.09695,-0.0197 -0.201184,-0.0309 -0.284605,-0.0841 -0.05668,-0.0361 -0.112753,-0.0872 -0.133446,-0.15117 -0.0658,-0.20337 0.0622,-0.6381 0.0622,-0.6381 z"
       id="path817" />
    <path
       id="path899"
       d="m 12.330393,241.14925 c -0.283767,0.001 -0.566774,0.004 -0.848575,0.007 -2.1017764,0.0305 -3.356292,0.0968 -3.5094932,0.18551 -0.191107,0.11059 0.017224,0.15209 1.0492848,0.20939 10.5743544,0.5871 14.4993824,1.02693 19.0010494,2.12913 1.94667,0.47663 4.755707,1.37644 5.654895,1.81144 l 0.565055,0.27339 0.214811,1.2961 c 0.251338,1.51731 0.704881,3.02675 1.296644,4.31485 l 0.422933,0.92036 -0.59019,0.48822 c -2.39622,1.98252 -3.261521,3.56942 -3.437525,6.30348 -0.262705,4.08088 2.014068,7.08728 6.118691,8.07948 0.577074,0.1395 1.771279,0.33924 2.653862,0.44408 5.272175,0.62631 7.408425,1.54206 10.347836,4.43565 1.137362,1.11962 2.661388,2.91101 3.391417,3.98648 1.194012,1.759 2.267733,4.49242 2.705755,6.88808 l 0.219152,1.19936 0.03543,-1.26102 c 0.123349,-4.40417 -2.410009,-9.43169 -6.640712,-13.17872 -0.670891,-0.59419 -1.166308,-1.09912 -1.100818,-1.12216 0.26829,-0.0944 2.479953,0.64456 3.63263,1.21365 2.661385,1.31398 4.755985,3.50658 6.197164,6.48756 0.311516,0.64435 0.584805,1.15322 0.607367,1.13065 0.08993,-0.0899 -0.605911,-2.42729 -0.981659,-3.29757 -1.362686,-3.15616 -4.040095,-5.30857 -8.049463,-6.47092 -1.565076,-0.45373 -3.226472,-0.7608 -7.031278,-1.29954 -1.900947,-0.26917 -3.990545,-0.62533 -4.643581,-0.79163 -3.077494,-0.78367 -4.687761,-2.1499 -5.155474,-4.37361 -0.196958,-0.93641 -0.170228,-2.65185 0.05334,-3.42089 0.529757,-1.8223 2.172806,-3.31221 4.489885,-4.07147 1.470077,-0.48171 3.969779,0.0611 8.557922,1.85844 l 2.437785,0.95507 7e-4,0.50648 c 7e-4,0.82325 0.315494,1.17214 1.737114,1.92571 0.828698,0.43927 1.565067,0.946 2.086095,1.43551 l 0.805181,0.75654 0.648053,-0.58114 c 0.356426,-0.31966 0.648049,-0.61412 0.648049,-0.65438 0,-0.0402 -0.193847,-0.1373 -0.430889,-0.21554 -0.237046,-0.0782 -0.767807,-0.39021 -1.179476,-0.69326 -0.586578,-0.43181 -0.732296,-0.60214 -0.673362,-0.78782 0.1034,-0.3258 -1.295973,-2.40751 -1.689201,-2.51282 -0.15709,-0.0421 -0.457283,-0.0771 -0.667036,-0.0781 -0.31864,-0.001 -0.474907,-0.12234 -0.950559,-0.73485 -0.313108,-0.40319 -0.6831,-0.79404 -0.822178,-0.86847 -0.2327,-0.12453 -0.252964,-0.10047 -0.252964,0.30106 0,0.24001 -0.04029,0.43649 -0.08951,0.43649 -0.04921,0 -0.465819,-0.3735 -0.925785,-0.82995 -0.78946,-0.7834 -0.836283,-0.81112 -0.836283,-0.49381 0,0.18488 -0.04716,0.33614 -0.104871,0.33614 -0.140392,0 -1.024365,-0.64675 -1.237155,-0.90518 -0.203766,-0.24743 -0.386059,-0.26704 -0.386059,-0.0415 0,0.1153 -0.211107,0.0608 -0.70971,-0.18316 -1.020381,-0.49925 -2.844799,-0.95101 -4.413037,-1.09286 -2.6165,-0.23666 -3.748766,-0.84646 -4.558596,-2.4546 -0.394275,-0.78294 -0.56397,-1.67952 -0.56397,-2.9797 v -1.10281 l -0.586392,-0.29544 C 30.764699,242.61674 21.12716,241.12147 12.33038,241.14892 Z m 21.608442,4.6387 -4.099861,0.0849 c -7.581988,0.15724 -13.176844,0.66752 -19.282943,1.75864 -2.1587444,0.38575 -2.5112732,0.48132 -2.8081015,0.76107 -0.1867,0.17595 -0.3395753,0.36502 -0.3395753,0.42021 0,0.13658 -0.027423,0.13944 1.9868254,-0.20179 3.5489444,-0.60121 7.5123104,-1.03609 11.9618154,-1.31256 1.841143,-0.11435 10.672664,-0.16677 12.467201,-0.074 0.420945,0.0218 0.430893,0.0118 0.390566,-0.39852 -0.02276,-0.23146 -0.09405,-0.55968 -0.158576,-0.72942 z m 0.04738,2.03583 c -0.191985,-0.001 -0.492726,0.0415 -0.986362,0.10741 -6.36823,0.85032 -12.970222,3.08521 -18.740671,6.34381 -1.222654,0.69045 -1.542918,0.95307 -1.542918,1.26573 0,0.0888 0.05075,0.16165 0.112836,0.16165 0.06208,0 0.964842,-0.44052 2.005992,-0.97894 5.406252,-2.79587 11.136022,-4.557 17.075884,-5.2486 2.91147,-0.339 2.801989,-0.31919 2.734145,-0.49599 -0.03446,-0.0898 -0.130971,-0.3913 -0.214451,-0.66993 -0.106388,-0.35511 -0.124475,-0.48243 -0.444449,-0.48513 z m 7.543716,1.13174 c -0.0079,-3.5e-4 -0.01302,6.9e-4 -0.01519,0.002 -0.02805,0.0281 0.965749,0.57607 2.208508,1.2178 3.720067,1.92095 5.770481,3.25703 7.003793,4.56385 0.371472,0.3936 0.709063,0.71567 0.750216,0.71567 0.04115,0 0.17408,-0.0725 0.295273,-0.16111 0.201922,-0.14764 0.154709,-0.22188 -0.562884,-0.88691 -1.44492,-1.33909 -3.559517,-2.7793 -5.535373,-3.77005 -0.964437,-0.4836 -3.898869,-1.67124 -4.144343,-1.68197 z m 10.679094,7.91113 0.702658,0.8229 -0.124404,0.0755 c 0,0 -0.149293,-0.0106 -0.222406,-0.025 -0.09695,-0.0197 -0.201184,-0.0309 -0.284605,-0.0841 -0.05668,-0.0361 -0.112753,-0.0872 -0.133446,-0.15117 -0.0658,-0.20337 0.0622,-0.6381 0.0622,-0.6381 z"
       style="fill:#e6e6e6;stroke-width:0.12343823;fill-opacity:1"
       inkscape:connector-curvature="0" />
    <g
       transform="translate(6.305535,0.92035011)"
       id="g926"
       style="fill:#101010;fill-opacity:1;filter:url(#filter952);opacity:0.3">
      <path
         inkscape:connector-curvature="0"
         style="color:#000000;text-indent:0;text-decoration:none;text-decoration-line:none;text-decoration-style:solid;text-decoration-color:#000000;text-transform:none;white-space:normal;isolation:auto;mix-blend-mode:normal;solid-color:#000000;fill:#101010;fill-opacity:1;fill-rule:evenodd;stroke-width:0.20258921;color-rendering:auto;image-rendering:auto;shape-rendering:auto"
         d="m 2.0371246,270.13996 c -0.3586639,3.9e-4 -0.7142079,0.40559 -0.7142079,0.71342 v 11.91751 c 0,0.35573 0.355544,0.71184 0.7145929,0.71143 h 3.1709262 v -0.81035 H 2.372187 c -0.118616,-6.2e-4 -0.2389135,-0.11994 -0.2389135,-0.23784 v -11.24492 c 0,-0.11837 0.1202975,-0.23946 0.2393794,-0.23905 H 26.731978 c 0.121081,-4e-4 0.238995,0.12068 0.23938,0.23899 v 11.24492 c -4.06e-4,0.11791 -0.118308,0.23741 -0.23938,0.2378 H 6.3515048 v 0.81035 H 27.066251 c 0.310205,4.1e-4 0.714614,-0.35573 0.714999,-0.71143 v -11.91792 c 0,-0.30753 -0.403153,-0.71271 -0.713115,-0.71311 z"
         id="path916" />
      <path
         style="fill:#101010;fill-opacity:1;stroke-width:0.20258921"
         inkscape:connector-curvature="0"
         d="m 5.238966,280.24916 v -6.6591 h 1.0311791 v 3.30179 l 2.7388036,-3.30179 h 1.2635493 l -2.4772615,2.85873 2.5226415,3.80037 H 9.1434881 l -2.1371137,-3.12028 -0.7362496,0.8124 v 2.3079 z"
         id="path918" />
      <path
         style="fill:#101010;fill-opacity:1;stroke-width:0.20258921"
         inkscape:connector-curvature="0"
         d="m 14.163831,274.49968 -0.935983,2.9339 1.937361,-6e-5 z m -0.625616,-0.90962 h 1.255851 l 2.515347,6.6591 h -1.249448 l -0.625434,-1.77225 h -2.609956 l -0.625434,1.77225 h -1.180913 z"
         id="path920" />
      <path
         style="fill:#101010;fill-opacity:1;stroke-width:0.20258921"
         inkscape:connector-curvature="0"
         d="m 18.077854,273.59006 h 0.973684 v 5.77784 h 2.88487 v 0.81643 h -3.858513 z"
         id="path922" />
      <path
         style="fill:#101010;fill-opacity:1;stroke-width:0.20258921"
         inkscape:connector-curvature="0"
         d="m 22.815607,273.59006 h 0.97654 v 6.59427 h -0.97654 z"
         id="path924" />
    </g>
    <g
       id="g914"
       transform="translate(6.305535,0.92035011)">
      <path
         id="path4"
         d="m 2.0371246,270.13996 c -0.3586639,3.9e-4 -0.7142079,0.40559 -0.7142079,0.71342 v 11.91751 c 0,0.35573 0.355544,0.71184 0.7145929,0.71143 h 3.1709262 v -0.81035 H 2.372187 c -0.118616,-6.2e-4 -0.2389135,-0.11994 -0.2389135,-0.23784 v -11.24492 c 0,-0.11837 0.1202975,-0.23946 0.2393794,-0.23905 H 26.731978 c 0.121081,-4e-4 0.238995,0.12068 0.23938,0.23899 v 11.24492 c -4.06e-4,0.11791 -0.118308,0.23741 -0.23938,0.2378 H 6.3515048 v 0.81035 H 27.066251 c 0.310205,4.1e-4 0.714614,-0.35573 0.714999,-0.71143 v -11.91792 c 0,-0.30753 -0.403153,-0.71271 -0.713115,-0.71311 z"
         style="color:#000000;text-indent:0;text-decoration:none;text-decoration-line:none;text-decoration-style:solid;text-decoration-color:#000000;text-transform:none;white-space:normal;isolation:auto;mix-blend-mode:normal;solid-color:#000000;fill:#ffffff;fill-opacity:1;fill-rule:evenodd;stroke-width:0.20258921;color-rendering:auto;image-rendering:auto;shape-rendering:auto"
         inkscape:connector-curvature="0" />
      <path
         id="path6"
         d="m 5.238966,280.24916 v -6.6591 h 1.0311791 v 3.30179 l 2.7388036,-3.30179 h 1.2635493 l -2.4772615,2.85873 2.5226415,3.80037 H 9.1434881 l -2.1371137,-3.12028 -0.7362496,0.8124 v 2.3079 z"
         inkscape:connector-curvature="0"
         style="fill:#ffffff;fill-opacity:1;stroke-width:0.20258921" />
      <path
         id="path8"
         d="m 14.163831,274.49968 -0.935983,2.9339 1.937361,-6e-5 z m -0.625616,-0.90962 h 1.255851 l 2.515347,6.6591 h -1.249448 l -0.625434,-1.77225 h -2.609956 l -0.625434,1.77225 h -1.180913 z"
         inkscape:connector-curvature="0"
         style="fill:#ffffff;fill-opacity:1;stroke-width:0.20258921" />
      <path
         id="path10"
         d="m 18.077854,273.59006 h 0.973684 v 5.77784 h 2.88487 v 0.81643 h -3.858513 z"
         inkscape:connector-curvature="0"
         style="fill:#ffffff;fill-opacity:1;stroke-width:0.20258921" />
      <path
         id="path12"
         d="m 22.815607,273.59006 h 0.97654 v 6.59427 h -0.97654 z"
         inkscape:connector-curvature="0"
         style="fill:#ffffff;fill-opacity:1;stroke-width:0.20258921" />
    </g>
  </g>
</svg>
