<?xml version="1.0" standalone="no"?><!-- Generator: Gravit.io --><svg xmlns="http://www.w3.org/2000/svg" xmlns:xlink="http://www.w3.org/1999/xlink" style="isolation:isolate" viewBox="0 0 256 256" width="256" height="256"><defs><filter id="iCR7eHEg8Fye31B5ckZHIgpufsmaUq1R" x="-7.324" y="2.947" width="270.648" height="254.338" filterUnits="userSpaceOnUse"><feGaussianBlur xmlns="http://www.w3.org/2000/svg" in="SourceGraphic" stdDeviation="4.293609062839028"/><feOffset xmlns="http://www.w3.org/2000/svg" dx="0" dy="4" result="pf_100_offsetBlur"/><feFlood xmlns="http://www.w3.org/2000/svg" flood-color="#000000" flood-opacity="0.4"/><feComposite xmlns="http://www.w3.org/2000/svg" in2="pf_100_offsetBlur" operator="in" result="pf_100_dropShadow"/><feBlend xmlns="http://www.w3.org/2000/svg" in="SourceGraphic" in2="pf_100_dropShadow" mode="normal"/></filter></defs><g filter="url(#iCR7eHEg8Fye31B5ckZHIgpufsmaUq1R)"><linearGradient id="_lgradient_206" x1="0.5666666542561158" y1="1.0714286580680756" x2="0.566666654256116" y2="-0.07142853624309575" gradientTransform="matrix(244.648,0,0,228.338,5.676,11.947)" gradientUnits="userSpaceOnUse"><stop offset="0%" stop-opacity="1" style="stop-color:rgb(160,160,160)"/><stop offset="100%" stop-opacity="1" style="stop-color:rgb(223,223,223)"/></linearGradient><path d=" M 165.685 11.947 C 239.74 11.947 250.324 22.504 250.324 96.491 L 250.324 155.742 C 250.324 229.728 239.74 240.285 165.685 240.285 L 90.315 240.285 C 16.26 240.285 5.676 229.728 5.676 155.742 L 5.676 96.491 C 5.676 22.504 16.26 11.947 90.315 11.947 L 165.685 11.947 Z " id="shape" fill="url(#_lgradient_206)"/></g><g id="dri"><path d=" M 55.6 160.733 L 55.6 95.267 L 77.672 95.267 L 77.672 95.267 Q 85.902 95.267 92.214 98.026 L 92.214 98.026 L 92.214 98.026 Q 98.527 100.785 102.175 105.554 L 102.175 105.554 L 102.175 105.554 Q 105.822 110.324 107.599 115.982 L 107.599 115.982 L 107.599 115.982 Q 109.376 121.64 109.376 128 L 109.376 128 L 109.376 128 Q 109.376 132.676 108.394 137.165 L 108.394 137.165 L 108.394 137.165 Q 107.412 141.654 104.98 146.003 L 104.98 146.003 L 104.98 146.003 Q 102.549 150.352 98.995 153.579 L 98.995 153.579 L 98.995 153.579 Q 95.441 156.805 89.83 158.769 L 89.83 158.769 L 89.83 158.769 Q 84.218 160.733 77.297 160.733 L 77.297 160.733 L 55.6 160.733 Z  M 68.226 148.762 L 78.794 148.762 L 78.794 148.762 Q 87.678 148.762 91.981 142.543 L 91.981 142.543 L 91.981 142.543 Q 96.283 136.324 96.283 128 L 96.283 128 L 96.283 128 Q 96.283 119.489 92.074 113.364 L 92.074 113.364 L 92.074 113.364 Q 87.866 107.238 79.823 107.238 L 79.823 107.238 L 68.226 107.238 L 68.226 148.762 Z " fill-rule="evenodd" id="D" fill="rgb(218,22,54)"/><path d=" M 134.627 160.733 L 122.002 160.733 L 122.002 95.267 L 152.397 95.267 L 152.397 95.267 Q 163.9 95.267 169.091 101.019 L 169.091 101.019 L 169.091 101.019 Q 174.281 106.77 174.281 115.748 L 174.281 115.748 L 174.281 115.748 Q 174.281 121.734 170.961 127.112 L 170.961 127.112 L 170.961 127.112 Q 167.641 132.489 161.562 134.64 L 161.562 134.64 L 174.281 160.733 L 160.066 160.733 L 147.814 136.324 L 134.627 136.324 L 134.627 160.733 Z  M 134.627 107.238 L 134.627 124.353 L 152.584 124.353 L 152.584 124.353 Q 157.073 124.353 159.13 121.921 L 159.13 121.921 L 159.13 121.921 Q 161.188 119.489 161.188 115.748 L 161.188 115.748 L 161.188 115.748 Q 161.188 112.101 159.177 109.669 L 159.177 109.669 L 159.177 109.669 Q 157.166 107.238 152.584 107.238 L 152.584 107.238 L 134.627 107.238 Z " fill-rule="evenodd" id="R" fill="rgb(70,169,38)"/><path d=" M 200 160.733 L 187.374 160.733 L 187.374 95.267 L 200 95.267 L 200 160.733 Z " id="I" fill="rgb(26,127,212)"/></g><g opacity="0.4"><linearGradient id="_lgradient_207" x1="0.5166666666666668" y1="0" x2="0.5166666666666666" y2="1.0000000000000002"><stop offset="0%" stop-opacity="1" style="stop-color:rgb(255,255,255)"/><stop offset="12.5%" stop-opacity="0.09803922" style="stop-color:rgb(255,255,255)"/><stop offset="92.500001%" stop-opacity="0.09803922" style="stop-color:rgb(0,0,0)"/><stop offset="100%" stop-opacity="0.49803922" style="stop-color:rgb(0,0,0)"/></linearGradient><path d=" M 165.685 11.947 C 239.74 11.947 250.324 22.504 250.324 96.491 L 250.324 155.742 C 250.324 229.728 239.74 240.285 165.685 240.285 L 90.315 240.285 C 16.26 240.285 5.676 229.728 5.676 155.742 L 5.676 96.491 C 5.676 22.504 16.26 11.947 90.315 11.947 L 165.685 11.947 Z " id="highlight" fill="none" vector-effect="non-scaling-stroke" stroke-width="4.077" stroke="url(#_lgradient_207)" stroke-linejoin="round" stroke-linecap="round" stroke-miterlimit="4"/></g></svg>