<svg xmlns="http://www.w3.org/2000/svg" style="isolation:isolate" width="256" height="256"><defs><filter id="a" width="270.648" height="254.338" x="-7.32" y="2.95" filterUnits="userSpaceOnUse"><feGaussianBlur xmlns="http://www.w3.org/2000/svg" in="SourceGraphic" stdDeviation="4.294"/><feOffset xmlns="http://www.w3.org/2000/svg" dy="4" result="pf_100_offsetBlur"/><feFlood xmlns="http://www.w3.org/2000/svg" flood-opacity=".4"/><feComposite xmlns="http://www.w3.org/2000/svg" in2="pf_100_offsetBlur" operator="in" result="pf_100_dropShadow"/><feBlend xmlns="http://www.w3.org/2000/svg" in="SourceGraphic" in2="pf_100_dropShadow"/></filter></defs><path fill="#5D5D5D" d="M165.685 11.947c74.055 0 84.639 10.557 84.639 84.544v59.251c0 73.986-10.584 84.543-84.639 84.543h-75.37c-74.055 0-84.639-10.557-84.639-84.543V96.491c0-73.987 10.584-84.544 84.639-84.544h75.37z" filter="url(#a)"/><g opacity=".4"><linearGradient id="b" x1=".517" x2=".517" y2="1"><stop offset="0%" stop-color="#fff"/><stop offset="12.5%" stop-opacity=".098" stop-color="#fff"/><stop offset="92.5%" stop-opacity=".098"/><stop offset="100%" stop-opacity=".498"/></linearGradient><path fill="none" stroke="url(#b)" stroke-linecap="round" stroke-linejoin="round" stroke-width="4.077" d="M165.685 11.947c74.055 0 84.639 10.557 84.639 84.544v59.251c0 73.986-10.584 84.543-84.639 84.543h-75.37c-74.055 0-84.639-10.557-84.639-84.543V96.491c0-73.987 10.584-84.544 84.639-84.544h75.37z" vector-effect="non-scaling-stroke"/></g><path fill="#FFF" d="M5.676 126.116v29.626c0 73.986 10.584 84.543 84.639 84.543h75.37c74.055 0 84.639-10.557 84.639-84.543v-29.626H5.676z" opacity=".1"/><g filter="url(#c)"><linearGradient id="d" x1=".745" x2=".992" y1=".049" y2=".395" gradientTransform="matrix(165 0 0 165 45.667 43.667)" gradientUnits="userSpaceOnUse"><stop offset="0%" stop-color="#5ba1a2"/><stop offset="48%" stop-color="#cbd24b"/><stop offset="66.901%" stop-color="#bb9a43"/><stop offset="100%" stop-opacity=".988" stop-color="#849555"/></linearGradient><path fill="url(#d)" d="M210.667 126.167c0-45.729-36.771-82.5-82.5-82.5s-82.5 36.771-82.5 82.5 36.771 82.5 82.5 82.5 82.5-36.771 82.5-82.5zm-52.317 0c0 16.613-13.238 30.183-30.183 30.183-17.278 0-30.183-13.906-30.183-30.183 0-16.61 12.24-30.183 30.183-30.183 17.943 0 30.183 13.902 30.183 30.183z"/><path fill="none" d="M128.167 95.984c-16.661 0-30.183 13.522-30.183 30.183s13.522 30.183 30.183 30.183 30.183-13.522 30.183-30.183-13.522-30.183-30.183-30.183zm0 15.091c8.33 0 15.091 6.761 15.091 15.092 0 8.33-6.761 15.091-15.091 15.091-8.331 0-15.092-6.761-15.092-15.091 0-8.331 6.761-15.092 15.092-15.092z"/></g><defs><filter id="c" width="225" height="225" x="15.67" y="17.67" filterUnits="userSpaceOnUse"><feGaussianBlur xmlns="http://www.w3.org/2000/svg" in="SourceGraphic" stdDeviation="4.294"/><feOffset xmlns="http://www.w3.org/2000/svg" dy="4" result="pf_100_offsetBlur"/><feFlood xmlns="http://www.w3.org/2000/svg" flood-opacity=".4"/><feComposite xmlns="http://www.w3.org/2000/svg" in2="pf_100_offsetBlur" operator="in" result="pf_100_dropShadow"/><feBlend xmlns="http://www.w3.org/2000/svg" in="SourceGraphic" in2="pf_100_dropShadow"/></filter></defs><g filter="url(#e)"><linearGradient id="f" x1=".778" x2=".953" y1=".062" y2=".258" gradientTransform="translate(127.667 126) scale(85.333)" gradientUnits="userSpaceOnUse"><stop offset="0%" stop-color="#236363"/><stop offset="50%" stop-color="#52b7b7"/><stop offset="100%" stop-color="#276666"/></linearGradient><path fill="url(#f)" d="M213 168.667A42.558 42.558 0 0 0 170.333 126a42.558 42.558 0 0 0-42.666 42.667 42.557 42.557 0 0 0 42.666 42.666A42.558 42.558 0 0 0 213 168.667zm-27.057 0c0 8.592-6.846 15.609-15.61 15.609-8.935 0-15.609-7.191-15.609-15.609 0-8.59 6.33-15.61 15.609-15.61 9.28 0 15.61 7.19 15.61 15.61z"/><path fill="none" d="M170.333 153.057c-8.616 0-15.609 6.993-15.609 15.61 0 8.616 6.993 15.609 15.609 15.609 8.617 0 15.61-6.993 15.61-15.609 0-8.617-6.993-15.61-15.61-15.61zm0 7.805a7.807 7.807 0 0 1 7.805 7.805 7.808 7.808 0 0 1-7.805 7.805 7.808 7.808 0 0 1-7.805-7.805 7.808 7.808 0 0 1 7.805-7.805z"/></g><defs><filter id="e" width="145.333" height="145.333" x="97.67" y="100" filterUnits="userSpaceOnUse"><feGaussianBlur xmlns="http://www.w3.org/2000/svg" in="SourceGraphic" stdDeviation="4.294"/><feOffset xmlns="http://www.w3.org/2000/svg" dy="4" result="pf_100_offsetBlur"/><feFlood xmlns="http://www.w3.org/2000/svg" flood-opacity=".4"/><feComposite xmlns="http://www.w3.org/2000/svg" in2="pf_100_offsetBlur" operator="in" result="pf_100_dropShadow"/><feBlend xmlns="http://www.w3.org/2000/svg" in="SourceGraphic" in2="pf_100_dropShadow"/></filter></defs></svg>