<svg xmlns="http://www.w3.org/2000/svg" style="isolation:isolate" width="256" height="256" viewBox="0 0 256 256">
 <defs>
  <filter id="ewC7m4yI5I4n645YXdPKyPMjVDTIjkuJ" width="270.648" height="254.338" x="-7.32" y="2.95" filterUnits="userSpaceOnUse">
   <feGaussianBlur xmlns="http://www.w3.org/2000/svg" in="SourceGraphic" stdDeviation="4.294"/>
   <feOffset xmlns="http://www.w3.org/2000/svg" dx="0" dy="4" result="pf_100_offsetBlur"/>
   <feFlood xmlns="http://www.w3.org/2000/svg" flood-opacity=".4"/>
   <feComposite xmlns="http://www.w3.org/2000/svg" in2="pf_100_offsetBlur" operator="in" result="pf_100_dropShadow"/>
   <feBlend xmlns="http://www.w3.org/2000/svg" in="SourceGraphic" in2="pf_100_dropShadow" mode="normal"/>
  </filter>
 </defs>
 <g filter="url(#ewC7m4yI5I4n645YXdPKyPMjVDTIjkuJ)">
  <path fill="#5D5D5D" d="M 165.685 11.947 C 239.74 11.947 250.324 22.504 250.324 96.491 L 250.324 155.742 C 250.324 229.728 239.74 240.285 165.685 240.285 L 90.315 240.285 C 16.26 240.285 5.676 229.728 5.676 155.742 L 5.676 96.491 C 5.676 22.504 16.26 11.947 90.315 11.947 L 165.685 11.947 Z"/>
 </g>
 <g opacity=".4">
  <linearGradient id="_lgradient_8" x1=".517" x2=".517" y1="0" y2="1">
   <stop offset="0%" style="stop-color:rgb(255,255,255)"/>
   <stop offset="12.5%" stop-opacity=".098" style="stop-color:rgb(255,255,255)"/>
   <stop offset="92.5%" stop-opacity=".098" style="stop-color:rgb(0,0,0)"/>
   <stop offset="100%" stop-opacity=".498" style="stop-color:rgb(0,0,0)"/>
  </linearGradient>
  <path fill="none" stroke="url(#_lgradient_8)" stroke-linecap="round" stroke-linejoin="round" stroke-width="4.077" d="M 165.685 11.947 C 239.74 11.947 250.324 22.504 250.324 96.491 L 250.324 155.742 C 250.324 229.728 239.74 240.285 165.685 240.285 L 90.315 240.285 C 16.26 240.285 5.676 229.728 5.676 155.742 L 5.676 96.491 C 5.676 22.504 16.26 11.947 90.315 11.947 L 165.685 11.947 Z" vector-effect="non-scaling-stroke"/>
 </g>
 <g opacity=".1">
  <path fill="#FFFFFF" d="M 5.676 126.116 L 5.676 155.742 C 5.676 229.728 16.26 240.285 90.315 240.285 L 165.685 240.285 C 239.74 240.285 250.324 229.728 250.324 155.742 L 250.324 126.116 L 5.676 126.116 Z"/>
 </g>
 <g>
  <g filter="url(#5JM8e1phsw3f234Fm5aghWH9K2sLfLzA)">
   <linearGradient id="_lgradient_9" x1=".745" x2=".992" y1=".049" y2=".395" gradientTransform="matrix(165,0,0,165,45.667,43.667)" gradientUnits="userSpaceOnUse">
    <stop offset="0%" style="stop-color:rgb(91,161,162)"/>
    <stop offset="48%" style="stop-color:rgb(203,210,75)"/>
    <stop offset="66.901%" style="stop-color:rgb(187,154,67)"/>
    <stop offset="100%" stop-opacity=".988" style="stop-color:rgb(132,149,85)"/>
   </linearGradient>
   <path fill="url(#_lgradient_9)" d="M 210.667 126.167 C 210.667 80.438 173.896 43.667 128.167 43.667 C 82.438 43.667 45.667 80.438 45.667 126.167 C 45.667 171.896 82.438 208.667 128.167 208.667 C 173.896 208.667 210.667 171.896 210.667 126.167 Z M 158.35 126.167 C 158.35 142.78 145.112 156.35 128.167 156.35 C 110.889 156.35 97.984 142.444 97.984 126.167 C 97.984 109.557 110.224 95.984 128.167 95.984 C 146.11 95.984 158.35 109.886 158.35 126.167 Z"/>
   <path fill="none" d="M 128.167 95.984 C 111.506 95.984 97.984 109.506 97.984 126.167 C 97.984 142.828 111.506 156.35 128.167 156.35 C 144.828 156.35 158.35 142.828 158.35 126.167 C 158.35 109.506 144.828 95.984 128.167 95.984 Z M 128.167 111.075 C 136.497 111.075 143.258 117.836 143.258 126.167 C 143.258 134.497 136.497 141.258 128.167 141.258 C 119.836 141.258 113.075 134.497 113.075 126.167 C 113.075 117.836 119.836 111.075 128.167 111.075 Z"/>
  </g>
  <defs>
   <filter id="5JM8e1phsw3f234Fm5aghWH9K2sLfLzA" width="225" height="225" x="15.67" y="17.67" filterUnits="userSpaceOnUse">
    <feGaussianBlur xmlns="http://www.w3.org/2000/svg" in="SourceGraphic" stdDeviation="4.294"/>
    <feOffset xmlns="http://www.w3.org/2000/svg" dx="0" dy="4" result="pf_100_offsetBlur"/>
    <feFlood xmlns="http://www.w3.org/2000/svg" flood-opacity=".4"/>
    <feComposite xmlns="http://www.w3.org/2000/svg" in2="pf_100_offsetBlur" operator="in" result="pf_100_dropShadow"/>
    <feBlend xmlns="http://www.w3.org/2000/svg" in="SourceGraphic" in2="pf_100_dropShadow" mode="normal"/>
   </filter>
  </defs>
  <g filter="url(#JgZANdB8CKSUKmDAMqqzPNGdliCcc1wE)">
   <linearGradient id="_lgradient_10" x1=".778" x2=".953" y1=".062" y2=".258" gradientTransform="matrix(85.333,0,0,85.333,127.667,126)" gradientUnits="userSpaceOnUse">
    <stop offset="0%" style="stop-color:rgb(35,99,99)"/>
    <stop offset="50%" style="stop-color:rgb(82,183,183)"/>
    <stop offset="100%" style="stop-color:rgb(39,102,102)"/>
   </linearGradient>
   <path fill="url(#_lgradient_10)" d="M 213 168.667 C 213 145.017 193.983 126 170.333 126 C 146.684 126 127.667 145.017 127.667 168.667 C 127.667 192.316 146.684 211.333 170.333 211.333 C 193.983 211.333 213 192.316 213 168.667 Z M 185.943 168.667 C 185.943 177.259 179.097 184.276 170.333 184.276 C 161.398 184.276 154.724 177.085 154.724 168.667 C 154.724 160.077 161.054 153.057 170.333 153.057 C 179.613 153.057 185.943 160.247 185.943 168.667 Z"/>
   <path fill="none" d="M 170.333 153.057 C 161.717 153.057 154.724 160.05 154.724 168.667 C 154.724 177.283 161.717 184.276 170.333 184.276 C 178.95 184.276 185.943 177.283 185.943 168.667 C 185.943 160.05 178.95 153.057 170.333 153.057 Z M 170.333 160.862 C 174.642 160.862 178.138 164.358 178.138 168.667 C 178.138 172.975 174.642 176.472 170.333 176.472 C 166.025 176.472 162.528 172.975 162.528 168.667 C 162.528 164.358 166.025 160.862 170.333 160.862 Z"/>
  </g>
  <defs>
   <filter id="JgZANdB8CKSUKmDAMqqzPNGdliCcc1wE" width="145.333" height="145.333" x="97.67" y="100" filterUnits="userSpaceOnUse">
    <feGaussianBlur xmlns="http://www.w3.org/2000/svg" in="SourceGraphic" stdDeviation="4.294"/>
    <feOffset xmlns="http://www.w3.org/2000/svg" dx="0" dy="4" result="pf_100_offsetBlur"/>
    <feFlood xmlns="http://www.w3.org/2000/svg" flood-opacity=".4"/>
    <feComposite xmlns="http://www.w3.org/2000/svg" in2="pf_100_offsetBlur" operator="in" result="pf_100_dropShadow"/>
    <feBlend xmlns="http://www.w3.org/2000/svg" in="SourceGraphic" in2="pf_100_dropShadow" mode="normal"/>
   </filter>
  </defs>
 </g>
</svg>
