<?xml version="1.0" standalone="no"?><!-- Generator: Gravit.io --><svg xmlns="http://www.w3.org/2000/svg" xmlns:xlink="http://www.w3.org/1999/xlink" style="isolation:isolate" viewBox="0 0 256 256" width="256" height="256"><g id="Group" filter="url(#9WeI2y2P0bl9MoytmExwRTxwT97B3RKC)"><linearGradient id="_lgradient_40" x1="0.51" y1="1.06" x2="0.512" y2="0.21813382492395328" gradientTransform="matrix(244.648,0,0,228.338,5.676,11.947)" gradientUnits="userSpaceOnUse"><stop offset="0%" stop-opacity="1" style="stop-color:rgb(0,154,86)"/><stop offset="100%" stop-opacity="1" style="stop-color:rgb(70,169,38)"/></linearGradient><path d=" M 165.685 11.947 C 239.74 11.947 250.324 22.504 250.324 96.491 L 250.324 155.742 C 250.324 229.728 239.74 240.285 165.685 240.285 L 90.315 240.285 C 16.26 240.285 5.676 229.728 5.676 155.742 L 5.676 96.491 C 5.676 22.504 16.26 11.947 90.315 11.947 L 165.685 11.947 L 165.685 11.947 Z " id="Path" fill="url(#_lgradient_40)"/></g><defs><filter id="9WeI2y2P0bl9MoytmExwRTxwT97B3RKC" x="-200%" y="-200%" width="400%" height="400%" filterUnits="objectBoundingBox" color-interpolation-filters="sRGB"><feGaussianBlur xmlns="http://www.w3.org/2000/svg" in="SourceGraphic" stdDeviation="4.294"/><feOffset xmlns="http://www.w3.org/2000/svg" dx="0" dy="4" result="pf_100_offsetBlur"/><feFlood xmlns="http://www.w3.org/2000/svg" flood-color="#000000" flood-opacity="0.4"/><feComposite xmlns="http://www.w3.org/2000/svg" in2="pf_100_offsetBlur" operator="in" result="pf_100_dropShadow"/><feBlend xmlns="http://www.w3.org/2000/svg" in="SourceGraphic" in2="pf_100_dropShadow" mode="normal"/></filter></defs><g opacity="0.9"><path d=" M 5.263 128.002 L 5.263 155.609 C 5.263 177.94 6.271 194.412 9.653 206.64 C 10.475 207.759 11.12 208.938 12.013 210.033 C 14.673 213.299 17.649 216.459 20.938 219.511 C 24.228 222.564 27.831 225.509 31.749 228.347 C 35.667 231.186 39.9 233.918 44.446 236.543 C 44.989 236.856 45.55 237.138 46.097 237.445 C 57.409 239.5 71.723 240.154 89.903 240.154 L 123.309 240.154 L 130.891 227.025 C 124.348 226.859 118.06 226.389 112.028 225.615 C 109.012 225.228 106.059 224.765 103.171 224.226 C 100.32798 223.696907 97.501678 223.081624 94.696 222.381 C 91.966 221.681 89.295 220.905 86.684 220.054 C 84.074 219.204 81.523 218.278 79.032 217.277 C 76.564353 216.286499 74.131884 215.210516 71.739 214.051 C 69.384839 212.908862 67.072355 211.682742 64.806 210.375 C 62.017 208.765 59.473 207.087 57.175 205.342 C 54.876 203.596 52.823 201.783 51.015 199.902 C 49.206 198.021 47.642 196.071 46.323 194.054 C 45.030795 192.089725 43.950427 189.994019 43.1 187.802 C 42.27389 185.660035 41.694162 183.431034 41.372 181.158 C 41.046996 178.831611 40.975578 176.476809 41.159 174.135 C 41.34 171.73 41.774 169.262 42.46 166.73 C 43.146 164.199 44.084 161.602 45.274 158.943 L 145.296 216.689 L 152.343 204.502 C 153.83761 201.918243 155.230347 199.276881 156.518 196.584 C 157.747536 194.012197 158.865248 191.388411 159.868 188.72 C 160.830904 186.159465 161.673491 183.555285 162.393 180.916 C 163.089065 178.362628 163.657107 175.77607 164.095 173.166 C 164.524 170.592 164.817 168.029 164.972 165.474 C 165.283519 160.391855 165.041766 155.290904 164.251 150.261 C 163.852302 147.726894 163.319555 145.215704 162.655 142.738 C 162.00232 140.267167 161.218883 137.832739 160.308 135.445 C 159.405473 133.081179 158.375975 130.767812 157.224 128.515 C 156.06828 126.260283 154.791414 124.069748 153.399 121.953 C 151.987943 119.807701 150.464485 117.738481 148.835 115.754 C 147.16711 113.721532 145.397866 111.774397 143.534 109.92 C 141.607438 108.003036 139.591531 106.178009 137.493 104.451 C 135.308192 102.653083 133.046398 100.950815 130.714 99.349 C 128.27147 97.67113 125.763509 96.09056 123.196 94.611 C 120.384154 92.984809 117.51534 91.459177 114.595 90.037 C 111.818841 88.684731 108.990298 87.442761 106.116 86.314 C 103.375062 85.237544 100.588784 84.280313 97.765 83.445 C 95.055126 82.644901 92.309086 81.972824 89.536 81.431 C 86.856217 80.908368 84.151782 80.52121 81.433 80.271 C 78.780609 80.028082 76.117205 79.925938 73.454 79.965 C 70.815 80.005 68.196 80.187 65.599 80.512 C 62.998955 80.836657 60.418727 81.304029 57.87 81.912 C 55.344864 82.520348 52.855381 83.268161 50.413 84.152 C 45.562836 85.91294 40.926846 88.215504 36.593 91.016 C 34.388724 92.438962 32.263577 93.980912 30.227 95.635 C 28.135487 97.335589 26.132841 99.142643 24.227 101.049 C 22.250306 103.026129 20.369483 105.096837 18.591 107.254 C 16.732219 109.509172 14.973197 111.844747 13.319 114.254 C 11.580116 116.784474 9.942165 119.382845 8.409 122.043 C 7.255 124.042 6.253 126.022 5.263 128.002 L 5.263 128.002 Z  M 88.227 117.638 C 89.737521 117.623389 91.247031 117.721327 92.743 117.931 C 94.282561 118.149281 95.80471 118.476435 97.298 118.91 C 98.823 119.35 100.354 119.903 101.893 120.572 C 103.482814 121.266372 105.03167 122.050983 106.532 122.922 C 108.367155 123.971572 110.104157 125.184126 111.722 126.545 C 113.228684 127.815947 114.599667 129.239544 115.813 130.793 C 116.987788 132.300812 117.992539 133.933701 118.809 135.662 C 119.635698 137.419353 120.272955 139.259724 120.71 141.152 C 121.188797 143.055605 121.465659 145.004366 121.536 146.966 C 121.603459 148.940052 121.464708 150.915754 121.122 152.861 C 120.760273 154.899707 120.206472 156.899618 119.468 158.834 C 118.66646 160.926856 117.696966 162.951456 116.569 164.888 L 61.001 132.799 C 62.503991 130.880437 64.138602 129.068732 65.893 127.377 C 67.499268 125.829189 69.231211 124.417344 71.071 123.156 C 72.790996 121.978285 74.618853 120.966418 76.53 120.134 C 78.377918 119.33343 80.302495 118.722953 82.274 118.312 C 84.23044 117.886628 86.224982 117.660805 88.227 117.638 L 88.227 117.638 Z " id="Compound Path" fill="rgb(255,255,255)"/></g><g opacity="0.1"><path d=" M 136.554 32.13 C 141.408 37.085 141.328 45.038 136.372 49.894 C 131.417 54.749 123.464 54.668 118.609 49.712 C 113.754 44.757 113.835 36.804 118.79 31.949 C 123.745 27.094 131.698 27.175 136.554 32.13 Z  M 143.895 24.937 C 135.082 15.942 120.593 15.794 111.598 24.607 C 102.603 33.421 102.455 47.909 111.269 56.904 C 120.082 65.899 134.571 66.047 143.566 57.234 C 152.561 48.42 152.709 33.932 143.895 24.937 L 143.895 24.937 Z " id="Compound Path" fill="rgb(0,0,0)"/></g><g opacity="0.3"><path d=" M 132.884 35.726 C 137.738 40.681 137.658 48.634 132.702 53.49 C 127.747 58.345 119.794 58.264 114.939 53.308 C 110.084 48.353 110.165 40.4 115.12 35.545 C 120.075 30.69 128.028 30.771 132.884 35.726 L 132.884 35.726 Z  M 139.001 29.732 C 130.849 21.412 117.446 21.275 109.126 29.427 C 100.806 37.579 100.669 50.982 108.821 59.302 C 116.974 67.623 130.377 67.759 138.696 59.607 C 147.016 51.454 147.153 38.052 139.001 29.732 Z " id="Compound Path" fill="rgb(0,0,0)"/></g><linearGradient id="_lgradient_41" x1="-0.004622723820501662" y1="0.9947278652173406" x2="1.0054464074839113" y2="0.005042384308093784" gradientTransform="matrix(42.231224,0,0,42.231594,106.465388,19.805388)" gradientUnits="userSpaceOnUse"><stop offset="0%" stop-opacity="1" style="stop-color:rgb(119,119,119)"/><stop offset="20.68%" stop-opacity="1" style="stop-color:rgb(124,124,124)"/><stop offset="43.94%" stop-opacity="1" style="stop-color:rgb(137,137,137)"/><stop offset="68.45%" stop-opacity="1" style="stop-color:rgb(160,160,160)"/><stop offset="93.68%" stop-opacity="1" style="stop-color:rgb(191,191,191)"/><stop offset="100%" stop-opacity="1" style="stop-color:rgb(200,200,200)"/></linearGradient><path d=" M 136.554 32.13 C 141.408 37.085 141.328 45.038 136.372 49.894 C 131.417 54.749 123.464 54.668 118.609 49.712 C 113.754 44.757 113.835 36.804 118.79 31.949 C 123.745 27.094 131.698 27.175 136.554 32.13 Z  M 142.671 26.136 C 134.519 17.816 121.117 17.679 112.796 25.831 C 104.476 33.983 104.339 47.386 112.491 55.706 C 120.644 64.027 134.047 64.163 142.366 56.011 C 150.686 47.858 150.823 34.456 142.671 26.136 Z " id="Compound Path" fill="url(#_lgradient_41)"/><path d=" M 134.371 34.268 C 138.045 38.018 137.983 44.036 134.234 47.71 C 130.485 51.383 124.466 51.323 120.792 47.574 C 117.118 43.824 117.18 37.804 120.929 34.131 C 124.678 30.457 130.696 30.518 134.371 34.268 Z  M 139 29.733 C 132.831 23.436 122.689 23.333 116.393 29.502 C 110.097 35.671 109.993 45.813 116.162 52.11 C 122.331 58.406 132.474 58.509 138.77 52.34 C 145.065 46.17 145.169 36.028 139 29.733 Z " id="Compound Path" fill="rgb(233,230,221)"/><linearGradient id="_lgradient_42" x1="-0.004868877276728245" y1="0.9949707282070949" x2="1.0052593940334449" y2="0.005261855916108615" gradientTransform="matrix(31.957558,0,0,31.958298,111.602281,24.941911)" gradientUnits="userSpaceOnUse"><stop offset="0%" stop-opacity="1" style="stop-color:rgb(200,200,200)"/><stop offset="6.32%" stop-opacity="1" style="stop-color:rgb(191,191,191)"/><stop offset="31.55%" stop-opacity="1" style="stop-color:rgb(160,160,160)"/><stop offset="56.06%" stop-opacity="1" style="stop-color:rgb(137,137,137)"/><stop offset="79.32%" stop-opacity="1" style="stop-color:rgb(124,124,124)"/><stop offset="100%" stop-opacity="1" style="stop-color:rgb(119,119,119)"/></linearGradient><path d=" M 134.371 34.268 C 138.045 38.018 137.983 44.036 134.234 47.71 C 130.485 51.383 124.466 51.323 120.792 47.574 C 117.118 43.824 117.18 37.804 120.929 34.131 C 124.678 30.457 130.696 30.518 134.371 34.268 Z  M 139 29.733 C 132.831 23.436 122.689 23.333 116.393 29.502 C 110.097 35.671 109.993 45.813 116.162 52.11 C 122.331 58.406 132.474 58.509 138.77 52.34 C 145.065 46.17 145.169 36.028 139 29.733 Z " id="Compound Path" fill="url(#_lgradient_42)"/><g opacity="0.6"><path d=" M 138.77 52.339 L 139.118 51.893 C 139.331 51.594 139.713 51.195 140.061 50.611 L 140.664 49.67 L 141.276 48.503 C 141.486 48.084 141.65 47.61 141.854 47.131 C 142.044 46.644 142.18 46.11 142.358 45.569 C 142.62 44.458 142.845 43.243 142.871 41.945 C 142.95 40.65 142.767 39.288 142.502 37.917 C 142.218 36.54 141.659 35.197 141.009 33.89 C 140.331 32.61 139.377 31.379 138.42 30.359 C 137.254 29.22 136.182 28.376 134.883 27.639 C 133.588 26.964 132.258 26.375 130.886 26.065 C 129.521 25.772 128.163 25.561 126.868 25.613 C 125.571 25.613 124.351 25.814 123.235 26.052 C 122.691 26.219 122.154 26.344 121.664 26.524 C 121.18 26.718 120.703 26.872 120.28 27.073 L 119.101 27.661 L 118.144 28.247 C 117.548 28.587 117.151 28.952 116.846 29.159 L 116.392 29.499 L 116.783 29.09 C 117.052 28.84 117.383 28.39 117.938 27.974 L 118.831 27.242 L 119.972 26.493 C 120.387 26.235 120.861 26.019 121.348 25.758 C 121.841 25.512 122.396 25.336 122.959 25.108 C 123.538 24.935 124.148 24.75 124.788 24.609 C 125.435 24.505 126.105 24.355 126.806 24.335 C 128.203 24.193 129.698 24.308 131.209 24.591 C 132.721 24.888 134.236 25.435 135.676 26.188 C 137.086 26.945 138.496 28.05 139.578 29.101 C 140.763 30.374 141.708 31.665 142.471 33.123 C 143.192 34.579 143.709 36.104 143.975 37.622 C 144.227 39.138 144.311 40.635 144.141 42.029 C 144.106 42.73 143.943 43.396 143.825 44.041 C 143.671 44.678 143.474 45.284 143.29 45.859 C 143.05 46.417 142.864 46.968 142.607 47.457 C 142.336 47.938 142.111 48.407 141.844 48.817 C 141.569 49.219 141.31 49.594 141.071 49.942 L 140.319 50.825 C 139.887 51.375 139.44 51.687 139.183 51.953 C 138.915 52.206 138.77 52.339 138.77 52.339 L 138.77 52.339 Z " id="Path" fill="rgb(255,255,255)"/></g><g opacity="0.4"><linearGradient id="_lgradient_43" x1="0.5166666666666668" y1="0" x2="0.5166666666666666" y2="1.0000000000000002" gradientTransform="matrix(244.65,0,0,228.34,5.68,11.95)" gradientUnits="userSpaceOnUse"><stop offset="0%" stop-opacity="1" style="stop-color:rgb(255,255,255)"/><stop offset="12.5%" stop-opacity="0.09803922" style="stop-color:rgb(255,255,255)"/><stop offset="92.500001%" stop-opacity="0.09803922" style="stop-color:rgb(0,0,0)"/><stop offset="100%" stop-opacity="0.49803922" style="stop-color:rgb(0,0,0)"/></linearGradient><path d=" M 165.06803 11.951234 C 169.395994 11.941409 173.723944 11.990533 178.051908 12.088781 C 181.927398 12.167379 185.802873 12.31475 189.678362 12.540721 C 193.1309 12.737216 196.583423 13.022134 200.026115 13.395476 C 203.085193 13.729518 206.144271 14.181458 209.173842 14.741469 C 211.888645 15.242533 214.57394 15.881143 217.219897 16.6573 C 219.619947 17.354858 221.970814 18.219439 224.242988 19.241215 C 226.357793 20.184394 228.384061 21.304417 230.302129 22.591462 C 232.141505 23.829383 233.862851 25.244151 235.436659 26.80629 C 237.000621 28.378252 238.417046 30.087764 239.656409 31.924995 C 240.944972 33.840824 242.066305 35.864728 243.020409 37.967229 C 244.043389 40.246576 244.908985 42.584873 245.617197 44.972292 C 246.394255 47.615155 247.033606 50.297317 247.535265 53.008956 C 248.095924 56.034984 248.548399 59.080665 248.882828 62.13617 C 249.256611 65.574836 249.541856 69.013506 249.738578 72.462003 C 249.964823 76.323139 250.112361 80.194101 250.200884 84.055237 C 250.289421 88.378131 250.338591 92.701032 250.32876 97.014106 L 250.32876 155.225886 C 250.338591 159.54878 250.289421 163.861854 250.200884 168.184747 C 250.112361 172.05571 249.964823 175.916853 249.738578 179.777981 C 249.541856 183.226485 249.256611 186.674975 248.882828 190.103826 C 248.548399 193.15933 248.095924 196.214835 247.535265 199.240851 C 247.033606 201.942664 246.394255 204.624837 245.617197 207.267703 C 244.908985 209.655115 244.043389 212.003235 243.020409 214.272755 C 242.066305 216.38509 240.944972 218.399156 239.656409 220.314999 C 238.417046 222.152226 237.000621 223.871561 235.436659 225.433697 C 233.862851 226.995832 232.141505 228.410601 230.302129 229.648532 C 228.384061 230.935575 226.357793 232.055598 224.242988 232.998768 C 221.970814 234.020552 219.619947 234.885137 217.219897 235.592507 C 214.57394 236.368672 211.888645 237.007276 209.173842 237.498515 C 206.144271 238.068354 203.085193 238.510465 200.026115 238.844519 C 196.583423 239.21785 193.1309 239.502777 189.678362 239.699269 C 185.802873 239.925235 181.927398 240.072615 178.051908 240.161035 C 173.723944 240.249454 169.395994 240.298581 165.06803 240.288762 L 90.941963 240.288762 C 86.614006 240.298581 82.286049 240.249454 77.9581 240.161035 C 74.08261 240.072615 70.20712 239.925235 66.331638 239.699269 C 62.879108 239.502777 59.426578 239.21785 55.983886 238.844519 C 52.924808 238.510465 49.865733 238.068354 46.836162 237.498515 C 44.121356 237.007276 41.436057 236.368672 38.7901 235.592507 C 36.390053 234.885137 34.039187 234.020552 31.767009 232.998768 C 29.652213 232.055598 27.625943 230.935575 25.707871 229.648532 C 23.868489 228.410601 22.147143 226.995832 20.573343 225.433697 C 19.009377 223.871561 17.592955 222.152226 16.353586 220.314999 C 15.065036 218.399156 13.943701 216.38509 12.989584 214.272755 C 11.966612 212.003235 11.101021 209.655115 10.392811 207.267703 C 9.615746 204.624837 8.976389 201.942664 8.47474 199.240851 C 7.914072 196.214835 7.461604 193.15933 7.127172 190.103826 C 6.753394 186.674975 6.468142 183.226485 6.271417 179.777981 C 6.045183 175.916853 5.897639 172.05571 5.809112 168.184747 C 5.720586 163.861854 5.671405 159.54878 5.681241 155.225886 L 5.681241 97.014106 C 5.671405 92.701032 5.720586 88.378131 5.809112 84.055237 C 5.897639 80.194101 6.045183 76.323139 6.271417 72.462003 C 6.468142 69.013506 6.753394 65.574836 7.127172 62.13617 C 7.461604 59.080665 7.914072 56.034984 8.47474 53.008956 C 8.976389 50.297317 9.615746 47.615155 10.392811 44.972292 C 11.101021 42.584873 11.966612 40.246576 12.989584 37.967229 C 13.943701 35.864728 15.065036 33.840824 16.353586 31.924995 C 17.592955 30.087764 19.009377 28.378252 20.573343 26.80629 C 22.147143 25.244151 23.868489 23.829383 25.707871 22.591462 C 27.625943 21.304417 29.652213 20.184394 31.767009 19.241215 C 34.039187 18.219439 36.390053 17.354858 38.7901 16.6573 C 41.436057 15.881143 44.121356 15.242533 46.836162 14.741469 C 49.865733 14.181458 52.924808 13.729518 55.983886 13.395476 C 59.426578 13.022134 62.879108 12.737216 66.331638 12.540721 C 70.20712 12.31475 74.08261 12.167379 77.9581 12.088781 C 82.286049 11.990533 86.614006 11.941409 90.941963 11.951234 L 165.06803 11.951234 Z  M 165.077876 15.959741 C 169.376317 15.949916 173.674759 15.99904 177.973216 16.087463 C 181.799522 16.175886 185.625827 16.323257 189.452133 16.539402 C 192.835809 16.735898 196.219486 17.010992 199.583486 17.384332 C 202.554026 17.698726 205.514751 18.131016 208.445953 18.681203 C 211.023049 19.152792 213.580483 19.761928 216.098564 20.498786 C 218.321569 21.147221 220.495374 21.952852 222.600334 22.896029 C 224.508571 23.750785 226.338116 24.762737 228.069293 25.922059 C 229.692286 27.012609 231.207063 28.260355 232.59398 29.645648 C 233.980897 31.030941 235.230091 32.543956 236.331763 34.165043 C 237.492434 35.894202 238.505568 37.711787 239.361333 39.607968 C 240.305606 41.720292 241.112187 43.891565 241.761369 46.102139 C 242.508934 48.617282 243.108947 51.161898 243.590914 53.735987 C 244.131912 56.663768 244.564709 59.6112 244.889308 62.578282 C 245.263091 65.938355 245.538505 69.308252 245.735227 72.687976 C 245.951626 76.509812 246.10901 80.321821 246.187687 84.143656 C 246.276225 88.437084 246.325394 92.720685 246.325394 97.014106 C 246.325394 97.014106 246.325394 97.014106 246.325394 97.014106 L 246.325394 155.225886 C 246.325394 155.225886 246.325394 155.225886 246.325394 155.225886 C 246.325394 159.519306 246.276225 163.802907 246.187687 168.096328 C 246.10901 171.918164 245.951626 175.739999 245.735227 179.552015 C 245.538505 182.931739 245.263091 186.301629 244.889308 189.671533 C 244.564709 192.628784 244.131912 195.576216 243.590914 198.503994 C 243.108947 201.078094 242.508934 203.622706 241.761369 206.137845 C 241.112187 208.358253 240.305606 210.5197 239.361333 212.63202 C 238.505568 214.528209 237.492434 216.355617 236.331763 218.074952 C 235.230091 219.705853 233.980897 221.218876 232.59398 222.604172 C 231.207063 223.979634 229.692286 225.227385 228.069293 226.317935 C 226.338116 227.477251 224.508571 228.489201 222.600334 229.343951 C 220.495374 230.296956 218.321569 231.092775 216.098564 231.741198 C 213.580483 232.478056 211.023049 233.087202 208.445953 233.558787 C 205.514751 234.108972 202.554026 234.541264 199.583486 234.865483 C 196.219486 235.228995 192.835809 235.513922 189.452133 235.70058 C 185.625827 235.916726 181.799522 236.073926 177.973216 236.152526 C 173.674759 236.25078 169.376317 236.290072 165.077876 236.290072 C 165.077876 236.290072 165.077876 236.290072 165.06803 236.290072 L 90.941963 236.290072 C 90.932125 236.290072 90.932125 236.290072 90.932125 236.290072 C 86.633683 236.290072 82.335234 236.25078 78.036784 236.152526 C 74.210479 236.073926 70.384173 235.916726 66.557868 235.70058 C 63.174195 235.513922 59.790522 235.228995 56.426518 234.865483 C 53.455967 234.541264 50.495253 234.108972 47.564048 233.558787 C 44.986944 233.087202 42.429517 232.478056 39.911433 231.741198 C 37.688439 231.092775 35.514626 230.296956 33.409665 229.343951 C 31.501429 228.489201 29.671886 227.477251 27.940703 226.317935 C 26.31772 225.227385 24.802935 223.979634 23.416022 222.604172 C 22.029109 221.218876 20.779904 219.705853 19.678243 218.074952 C 18.517564 216.355617 17.504428 214.528209 16.648674 212.63202 C 15.704392 210.5197 14.897819 208.358253 14.248626 206.137845 C 13.50107 203.622706 12.901057 201.078094 12.419081 198.503994 C 11.878086 195.576216 11.445291 192.628784 11.120694 189.671533 C 10.746916 186.301629 10.471501 182.931739 10.274776 179.552015 C 10.058378 175.739999 9.900997 171.918164 9.822307 168.096328 C 9.733781 163.802907 9.6846 159.519306 9.6846 155.225886 C 9.6846 155.225886 9.6846 155.225886 9.6846 155.225886 L 9.6846 97.014106 C 9.6846 97.014106 9.6846 97.014106 9.6846 97.014106 C 9.6846 92.720685 9.733781 88.437084 9.822307 84.143656 C 9.900997 80.321821 10.058378 76.509812 10.274776 72.687976 C 10.471501 69.308252 10.746916 65.938355 11.120694 62.578282 C 11.445291 59.6112 11.878086 56.663768 12.419081 53.735987 C 12.901057 51.161898 13.50107 48.617282 14.248626 46.102139 C 14.897819 43.891565 15.704392 41.720292 16.648674 39.607968 C 17.504428 37.711787 18.517564 35.894202 19.678243 34.165043 C 20.779904 32.543956 22.029109 31.030941 23.416022 29.645648 C 24.802935 28.260355 26.31772 27.012609 27.940703 25.922059 C 29.671886 24.762737 31.501429 23.750785 33.409665 22.896029 C 35.514626 21.952852 37.688439 21.147221 39.911433 20.498786 C 42.429517 19.761928 44.986944 19.152792 47.564048 18.681203 C 50.495253 18.131016 53.455967 17.698726 56.426518 17.384332 C 59.790522 17.010992 63.174195 16.735898 66.557868 16.539402 C 70.384173 16.323257 74.210479 16.175886 78.036784 16.087463 C 82.335234 15.99904 86.633683 15.949916 90.932125 15.959741 C 90.932125 15.959741 90.932125 15.959741 90.941963 15.959741 L 165.06803 15.959741 C 165.077876 15.959741 165.077876 15.959741 165.077876 15.959741 Z " fill-rule="evenodd" id="highlight" fill="url(#_lgradient_43)"/></g></svg>