<?xml version="1.0" standalone="no"?><!-- Generator: Gravit.io --><svg xmlns="http://www.w3.org/2000/svg" xmlns:xlink="http://www.w3.org/1999/xlink" style="isolation:isolate" viewBox="0 0 256 256" width="256" height="256"><defs><filter id="r9LcTERnztGwqQLT1mflo0hQanRumXKp" x="-7.324" y="2.947" width="270.648" height="254.338" filterUnits="userSpaceOnUse"><feGaussianBlur xmlns="http://www.w3.org/2000/svg" in="SourceGraphic" stdDeviation="4.293609062839028"/><feOffset xmlns="http://www.w3.org/2000/svg" dx="0" dy="4" result="pf_100_offsetBlur"/><feFlood xmlns="http://www.w3.org/2000/svg" flood-color="#000000" flood-opacity="0.4"/><feComposite xmlns="http://www.w3.org/2000/svg" in2="pf_100_offsetBlur" operator="in" result="pf_100_dropShadow"/><feBlend xmlns="http://www.w3.org/2000/svg" in="SourceGraphic" in2="pf_100_dropShadow" mode="normal"/></filter></defs><g filter="url(#r9LcTERnztGwqQLT1mflo0hQanRumXKp)"><linearGradient id="_lgradient_111" x1="0.5666666542561158" y1="1.0714286580680756" x2="0.566666654256116" y2="-0.07142853624309575" gradientTransform="matrix(244.648,0,0,228.338,5.676,11.947)" gradientUnits="userSpaceOnUse"><stop offset="0%" stop-opacity="1" style="stop-color:rgb(160,160,160)"/><stop offset="100%" stop-opacity="1" style="stop-color:rgb(223,223,223)"/></linearGradient><path d=" M 165.685 11.947 C 239.74 11.947 250.324 22.504 250.324 96.491 L 250.324 155.742 C 250.324 229.728 239.74 240.285 165.685 240.285 L 90.315 240.285 C 16.26 240.285 5.676 229.728 5.676 155.742 L 5.676 96.491 C 5.676 22.504 16.26 11.947 90.315 11.947 L 165.685 11.947 Z " id="shape" fill="url(#_lgradient_111)"/></g><g id="easylife"><path d=" M 5.68 124 L 5.68 155.746 C 5.68 164.994 5.846 173.252 6.28 180.621 C 6.497 184.306 6.781 187.768 7.145 191.021 C 7.509 194.275 7.953 197.319 8.491 200.168 C 9.028 203.017 9.659 205.67 10.395 208.139 C 11.131 210.608 11.973 212.894 12.934 215.01 C 13.895 217.125 14.974 219.07 16.186 220.858 C 17.397 222.645 18.741 224.276 20.229 225.762 C 21.717 227.248 23.349 228.589 25.139 229.799 C 26.929 231.009 28.877 232.088 30.995 233.047 C 33.113 234.007 35.402 234.847 37.874 235.582 C 40.345 236.317 43.001 236.948 45.852 237.485 C 48.704 238.021 51.751 238.465 55.008 238.828 C 58.266 239.192 61.732 239.475 65.421 239.692 C 72.797 240.125 81.062 240.289 90.319 240.289 L 99.97 240.289 C 114.999 229.654 124.335 214.082 128.39 198.113 L 106.429 189.937 C 102.554 203.658 95.401 212.581 85.411 218.828 C 67.522 230.015 49.406 222.858 35.319 202.91 L 117.097 151.769 C 114.569 144.791 111.602 138.773 109.667 134.847 C 87.998 90.883 55.428 85.234 27.782 102.523 C 18.461 108.352 11.102 115.637 5.68 124 Z  M 55.094 120.931 C 64.692 121.218 75.011 127.12 83.573 142.949 L 23.633 180.433 C 15.509 157.784 19.386 137.9 39.133 125.55 C 43.838 122.608 49.336 120.759 55.094 120.931 Z " id="path1625" fill="rgb(41,47,123)"/><path d=" M 130.618 11.95 L 99.313 11.95 L 184.042 183.851 L 250.33 142.398 L 250.33 108.505 L 195.201 142.98 L 130.618 11.95 Z " id="path987" fill="rgb(0,0,0)"/><g opacity="0.25"><path d=" M 98.731 11.95 L 90.319 11.95 C 81.062 11.95 72.797 12.115 65.421 12.548 C 61.732 12.764 58.266 13.047 55.008 13.411 C 51.751 13.775 48.704 14.218 45.852 14.755 C 43.001 15.291 40.346 15.922 37.874 16.657 C 35.402 17.392 33.113 18.233 30.995 19.192 C 28.877 20.152 26.929 21.23 25.139 22.44 C 23.349 23.65 21.717 24.991 20.229 26.477 C 18.741 27.963 17.397 29.594 16.186 31.382 C 14.974 33.17 13.895 35.114 12.934 37.229 C 11.973 39.345 11.131 41.631 10.395 44.101 C 9.659 46.57 9.028 49.223 8.491 52.071 C 7.953 54.92 7.509 57.964 7.145 61.218 C 6.781 64.472 6.497 67.934 6.28 71.618 C 5.846 78.988 5.68 87.245 5.68 96.494 L 5.68 155.746 C 5.68 164.994 5.846 173.252 6.28 180.621 C 6.497 184.306 6.781 187.768 7.145 191.021 C 7.509 194.275 7.953 197.319 8.491 200.168 C 9.028 203.017 9.659 205.67 10.395 208.139 C 11.131 210.608 11.973 212.894 12.934 215.01 C 13.895 217.126 14.974 219.07 16.186 220.858 C 17.397 222.645 18.741 224.276 20.229 225.762 C 21.717 227.248 23.349 228.589 25.139 229.799 C 26.929 231.009 28.877 232.088 30.995 233.047 C 33.113 234.007 35.402 234.847 37.874 235.582 C 40.346 236.317 43.001 236.948 45.852 237.485 C 48.704 238.021 51.751 238.465 55.008 238.828 C 58.266 239.192 61.732 239.475 65.421 239.692 C 72.797 240.125 81.062 240.289 90.319 240.289 L 165.691 240.289 C 174.948 240.289 183.213 240.125 190.589 239.692 C 194.278 239.475 197.744 239.192 201.002 238.828 C 204.259 238.465 207.306 238.021 210.158 237.485 C 210.595 237.402 210.954 237.28 211.382 237.194 L 98.731 11.95 Z " id="path1009" fill="rgb(255,255,255)"/></g></g><g opacity="0.4"><linearGradient id="_lgradient_112" x1="0.5166666666666668" y1="0" x2="0.5166666666666666" y2="1.0000000000000002"><stop offset="0%" stop-opacity="1" style="stop-color:rgb(255,255,255)"/><stop offset="12.5%" stop-opacity="0.09803922" style="stop-color:rgb(255,255,255)"/><stop offset="92.500001%" stop-opacity="0.09803922" style="stop-color:rgb(0,0,0)"/><stop offset="100%" stop-opacity="0.49803922" style="stop-color:rgb(0,0,0)"/></linearGradient><path d=" M 165.685 11.947 C 239.74 11.947 250.324 22.504 250.324 96.491 L 250.324 155.742 C 250.324 229.728 239.74 240.285 165.685 240.285 L 90.315 240.285 C 16.26 240.285 5.676 229.728 5.676 155.742 L 5.676 96.491 C 5.676 22.504 16.26 11.947 90.315 11.947 L 165.685 11.947 Z " id="highlight" fill="none" vector-effect="non-scaling-stroke" stroke-width="4.077" stroke="url(#_lgradient_112)" stroke-linejoin="round" stroke-linecap="round" stroke-miterlimit="4"/></g></svg>