<svg xmlns="http://www.w3.org/2000/svg" style="isolation:isolate" width="256" height="256"><defs><clipPath id="a"><path d="M0 0h256v256H0z"/></clipPath></defs><switch><g clip-path="url(#a)"><defs><filter id="b" width="270.648" height="254.338" x="-7.32" y="2.95" filterUnits="userSpaceOnUse"><feGaussianBlur xmlns="http://www.w3.org/2000/svg" in="SourceGraphic" stdDeviation="4.294"/><feOffset xmlns="http://www.w3.org/2000/svg" dy="4" result="pf_100_offsetBlur"/><feFlood xmlns="http://www.w3.org/2000/svg" flood-opacity=".4"/><feComposite xmlns="http://www.w3.org/2000/svg" in2="pf_100_offsetBlur" operator="in" result="pf_100_dropShadow"/><feBlend xmlns="http://www.w3.org/2000/svg" in="SourceGraphic" in2="pf_100_dropShadow"/></filter></defs><g filter="url(#b)"><linearGradient id="c" x2="1" y1=".5" y2=".5" gradientTransform="matrix(244.648 0 0 228.338 5.676 11.947)" gradientUnits="userSpaceOnUse"><stop offset="0%" stop-color="#d4aa6b"/><stop offset="100%" stop-color="#ffcea1"/></linearGradient><path fill="url(#c)" d="M165.685 11.947c74.055 0 84.639 10.557 84.639 84.544v59.251c0 73.986-10.584 84.543-84.639 84.543h-75.37c-74.055 0-84.639-10.557-84.639-84.543V96.491c0-73.987 10.584-84.544 84.639-84.544h75.37z"/></g><path fill="#FB5630" fill-opacity=".555" d="M156.531 240.281c25.532.094 45.907-.968 47.75-2.031-1.306-1.474-6.282-6.131-7.892-7.506-16.391-13.996-34.76-21.906-56.002-24.112-5.967-.619-19.295-.24-24.834.707-5.23.894-8.782 1.636-11.209 2.338-4.278 1.238-6.917 2.056-7.592 2.354-.398.176-2.594 1.107-4.881 2.07-8.808 3.708-16.169 8.101-23.638 14.104-3.554 2.856-9.253 8.187-11.483 10.764.549.384 10.643.932 24.063 1.187 17.127.326 39.279.291 49.687.063 8.812.094 17.648.102 26.031.062z"/><path fill="#FF3B22" fill-opacity=".553" d="M138.46 239.29c-2.833-7.499-8.056-13.771-10.578-21.352-.563-1.785-1.598-6.157-1.833-7.745-.16-1.085-.094-1.604.232-1.81.251-.159 1.974-.292 3.828-.295l3.371-.004v1.168c.483 5.817 3.265 11.369 5.897 16.121 3.65 6.538 5.121 9.425 5.976 11.731.507 1.367.96 2.967.96 3.146q0 .184-7.657 0l-.196-.96z"/><defs><filter id="d" width="184.39" height="184.39" x="35.8" y="43.34" filterUnits="userSpaceOnUse"><feGaussianBlur xmlns="http://www.w3.org/2000/svg" stdDeviation="4.294"/></filter><linearGradient id="e" x1=".5" x2=".5" y1=".079" y2="1.874"><stop offset="0%" stop-color="#fefefe"/><stop offset="100%" stop-color="transparent"/></linearGradient></defs><path d="M120.252 53.34h15.496c41.089 0 74.447 33.358 74.447 74.447v15.496c0 41.089-33.358 74.447-74.447 74.447h-15.496c-41.089 0-74.447-33.358-74.447-74.447v-15.496c0-41.089 33.358-74.447 74.447-74.447z" fill="url(#e)" opacity=".192" filter="url(#d)"/><path d="M198.558 239.098q6.93-.671 8.43-1.04l-.943-1.107a104.007 104.007 0 0 0-2.354-2.673c-13.494-14.804-30.675-25.081-50.359-30.095-5.434-1.384-14.4-2.738-18.129-2.738-1.386 0-1.985-.142-2.123-.5-.105-.275-.201-6.778-.213-14.453l-.023-13.955 1.451-2.389a418.735 418.735 0 0 0 2.086-3.469c.349-.593 3.576-5.897 7.172-11.783 3.595-5.887 6.701-11.014 6.9-11.397.346-.661 2.028-1.403 18.086-7.976 3.951-1.617 5.536-1.935 18.002-3.602 1.863-.248 1.868-.252 1.17-.951-.621-.621-.75-1.718-.318-2.711.241-.555.164-.62-.541-.459-2.159.493-11.542 1.707-11.731 1.518-.173-.173 5.356-6.59 6.797-7.889.208-.187 1.423-1.524 2.701-2.972l2.324-2.633h-1.152c-1.278 0-1.967-.501-1.967-1.428 0-.336-.115-.601-.256-.59-.14.012-2.778 2.841-5.861 6.287-10.012 11.189-7.736 9.449-17.773 13.59-4.824 1.99-8.828 3.562-8.901 3.486-.072-.072.071-2.867.319-6.211l.449-6.08 2.252-2.185c1.238-1.202 2.25-2.243 2.25-2.319 0-.076-.275-.134-.612-.134-.882 0-1.427-.673-1.427-1.766 0-.523-.091-.951-.201-.951-.111 0-1.058.764-2.106 1.699-1.048.934-1.991 1.697-2.094 1.695-.103-.001-.949-1.396-1.88-3.099-1.675-3.063-1.697-3.085-1.92-1.992-.264 1.287-.838 1.764-1.907 1.582-.42-.073-.765-.007-.765.146s.776 1.622 1.726 3.266l1.729 2.988-.559 7.979-.558 7.976-3.424 5.613a26102.66 26102.66 0 0 1-6.69 10.965 1837.565 1837.565 0 0 0-4.625 7.617c-.747 1.246-1.512 2.307-1.699 2.364-.187.054-.885-.697-1.551-1.67-.665-.974-4.962-7.045-9.549-13.492l-8.337-11.723-.389-6.709c-.214-3.691-.556-9.655-.76-13.252l-.371-6.541 1.426-3.906c.784-2.149 1.697-4.75 2.029-5.778.332-1.027 1.309-3.835 2.172-6.24.863-2.405 1.568-4.519 1.568-4.699 0-.186-.43-.232-.976-.111-.974.214-1.824-.277-2.174-1.258-.085-.234-.226-.356-.314-.262-.089.094-1.589 4.267-3.332 9.274-2.503 7.185-3.258 9.01-3.579 8.664-.223-.242-3.064-4.632-6.312-9.756-3.248-5.124-6.001-9.46-6.117-9.633-.116-.174-.881.114-1.7.639-.818.525-1.537.985-1.599 1.023-.198.123.602 1.44 6.672 10.986 3.272 5.148 6.236 9.839 6.586 10.424.539.903.737 2.692 1.3 11.723.366 5.861.668 11.3.67 12.088l.004 1.431-1.443-.625c-.794-.344-2.514-1.12-3.822-1.726-4.974-2.304-11.342-5.202-14.66-6.672l-3.448-1.527-5.215-8.086c-5.158-8-5.218-8.076-5.556-7.03-.282.872-.56 1.087-1.573 1.227l-1.228.17.771 1.189c7.888 12.149 8.028 12.394 7.04 12.489-.514.047-3.648-.109-6.965-.346-3.317-.234-6.032-.387-6.032-.33 0 .056.24.47.534.918.437.667.459.956.119 1.601-.228.433-.556.881-.731.995-.454.297 2.098.573 9.082.984 3.364.198 6.485.439 6.934.537.449.098 2.512.951 4.586 1.895 6.28 2.858 11.856 5.399 13.113 5.974l5.098 2.334 3.906 1.789 9.797 13.695c5.388 7.533 10.09 14.154 10.447 14.715.614.962.649 1.817.651 15.2l.002 14.177-.766.155c-.421.084-2.354.243-4.299.351-12.566.699-26.971 4.862-39.271 11.348-11.551 6.09-22.829 15.333-30.916 25.305 2.518.389 5.318.741 8.37 1.026l2.331-2.359c3.244-3.284 7.489-7.152 9.351-8.521 4.811-3.538 6.923-4.983 10.78-7.367 3.806-2.354 11.689-5.953 16.728-7.639 22.067-7.385 44.611-6.738 66.254 1.902 3.204 1.28 10.23 4.798 11.775 5.897.496.353.999.643 1.118.643.342 0 6.259 4.036 8.683 5.923 3.795 2.955 7.574 6.379 11.199 10.143l1.156 1.2z"/><path fill="#00B980" d="M168.212 122.635c1.531-.348 2.591-1.066 2.591-1.753 0-.462-1.015-1.449-2.001-1.946-1.128-.568-4.283-1.298-5.822-1.347-1.088-.034-1.597.073-2.277.478-1.161 1.039-4.082 1.855-4.613 2.744 0 .203 2.677 1.304 3.93 1.615 2.026.504 6.406.616 8.192.209zm-13.214-5.742c1.091-1.265 2.296-2.31 2.925-3.159.199-.199.785-1.082.91-4.317.126-3.272-.049-4.406-.851-5.521-3.42-2.284-4.738 8.515-4.605 10.643.076 1.008.278 2.166.449 2.573l.311.74.861-.959z"/><path fill="#FF5E34" d="M159.342 119.904c1.274-.654 2.368-1.261 2.433-1.349.064-.087.59-.521 1.168-.963 2.514-1.922 4.671-4.903 4.671-6.456 0-2.065-2.186-2.272-5.67-.537-4.194 2.088-8.343 6.589-8.343 9.05 0 1.013.639 1.445 2.14 1.445 1.088 0 1.643-.184 3.601-1.19z"/><path fill="#00B980" d="M55.459 112.966c-1.448-.609-2.368-1.5-2.249-2.177.081-.454 1.253-1.251 2.31-1.568 1.208-.364 4.443-.535 5.967-.316 1.078.155 1.56.349 2.159.866.964 1.224 3.698 2.536 4.066 3.503-.035.2-2.862.82-4.15.909-2.083.144-6.416-.507-8.103-1.217zm14.009-3.361c-.854-1.434-1.86-2.673-2.332-3.619-.161-.23-.585-1.201-.146-4.409.444-3.244.813-4.33 1.797-5.289 3.764-1.656 3.187 9.208 2.686 11.281-.249.98-.649 2.085-.888 2.456l-.435.675-.682-1.095z"/><path fill="#FF5E34" d="M64.667 111.816c-1.14-.865-2.113-1.653-2.161-1.75-.048-.098-.491-.616-.983-1.151-2.142-2.33-3.748-5.641-3.479-7.17.359-2.034 2.547-1.858 5.677.455 3.767 2.786 7.072 7.938 6.644 10.362-.176.998-.88 1.312-2.358 1.051-1.071-.189-1.586-.466-3.34-1.797z"/><path fill="#00B980" d="M131.658 118.638c-1.496-.481-2.489-1.288-2.43-1.973.041-.46 1.139-1.355 2.164-1.764 1.173-.468 4.38-.92 5.917-.834 1.087.06 1.585.211 2.227.674 1.066 1.136 3.904 2.204 4.356 3.135-.018.203-2.781 1.066-4.056 1.267-2.062.326-6.435.055-8.178-.505zm13.663-4.569c-.976-1.355-2.086-2.502-2.638-3.402-.181-.216-.688-1.146-.531-4.38.16-3.27.433-4.385 1.33-5.426 3.605-1.978 3.977 8.895 3.659 11.004-.163.998-.465 2.134-.671 2.524l-.375.71-.774-1.03z"/><path fill="#FF5E34" d="M140.731 116.69c-1.212-.763-2.249-1.463-2.306-1.556-.056-.093-.542-.57-1.079-1.061-2.337-2.134-4.226-5.292-4.09-6.839.18-2.057 2.374-2.073 5.694-.041 3.996 2.446 7.737 7.291 7.523 9.743-.089 1.009-.763 1.383-2.258 1.253-1.084-.095-1.621-.326-3.484-1.499z"/><path fill="#00B980" d="M53.084 138.019c-1.464.567-2.744.565-3.129-.005-.258-.382.032-1.769.571-2.732.617-1.101 2.826-3.471 4.074-4.372.883-.637 1.364-.833 2.155-.877 1.543.211 4.421-.745 5.358-.305.114.169-1.49 2.578-2.354 3.537-1.398 1.55-4.967 4.092-6.675 4.754zm7.744-12.15c-1.612-.438-3.196-.631-4.192-.983-.276-.054-1.256-.458-3.168-3.07-1.934-2.642-2.423-3.68-2.381-5.053 1.557-3.806 8.688 4.41 9.769 6.249.5.877.98 1.95 1.066 2.383l.156.788-1.25-.314z"/><path fill="#FF5E34" d="M58.91 130.795c-1.422.17-2.668.278-2.771.242-.102-.037-.78-.102-1.507-.145-3.158-.188-6.614-1.454-7.482-2.741-1.155-1.712.541-3.106 4.399-3.616 4.645-.614 10.602.797 11.978 2.838.567.84.278 1.555-.966 2.394-.902.608-1.465.767-3.651 1.028z"/><g><path fill="#00B980" d="M198.618 115.46c1.458-.584 2.393-1.459 2.286-2.138-.073-.456-1.231-1.272-2.282-1.608-1.202-.385-4.433-.612-5.961-.42-1.08.136-1.566.321-2.174.828-.984 1.208-3.741 2.471-4.126 3.431.031.202 2.848.87 4.133.982 2.081.18 6.424-.394 8.124-1.075zm-13.949-3.605c.879-1.42 1.906-2.641 2.395-3.578.165-.228.606-1.191.223-4.406-.387-3.251-.737-4.344-1.705-5.319-3.734-1.722-3.346 9.15-2.882 11.232.232.984.613 2.095.845 2.471l.424.682.7-1.082z"/><path fill="#FF5E34" d="M189.431 114.149c1.155-.845 2.141-1.616 2.191-1.712.05-.097.501-.607 1.003-1.134 2.182-2.292 3.846-5.574 3.603-7.108-.323-2.04-2.513-1.902-5.683.356-3.816 2.72-7.21 7.814-6.825 10.244.159 1.001.857 1.328 2.34 1.093 1.074-.17 1.594-.439 3.371-1.739z"/></g><g><path fill="#00B980" d="M197 139.81c1.464.567 2.745.565 3.129-.005.258-.382-.032-1.769-.571-2.732-.617-1.101-2.825-3.471-4.074-4.372-.883-.637-1.364-.833-2.154-.877-1.544.211-4.422-.744-5.359-.305-.113.169 1.49 2.578 2.354 3.537 1.399 1.551 4.967 4.092 6.675 4.754zm-7.743-12.15c1.611-.438 3.195-.631 4.191-.983.276-.054 1.256-.458 3.168-3.07 1.934-2.642 2.424-3.68 2.382-5.053-1.558-3.806-8.689 4.41-9.769 6.249-.501.878-.981 1.95-1.067 2.383l-.156.788 1.251-.314z"/><path fill="#FF5E34" d="M191.174 132.586c1.422.17 2.669.279 2.771.242.102-.037.781-.102 1.507-.145 3.159-.188 6.614-1.454 7.482-2.741 1.155-1.712-.54-3.106-4.399-3.616-4.645-.613-10.601.798-11.978 2.838-.566.84-.278 1.555.967 2.394.901.609 1.464.767 3.65 1.028z"/></g><g><path fill="#00B980" d="M127.068 89.585c1.273-.92 1.969-1.994 1.7-2.627-.18-.425-1.501-.937-2.602-1.009-1.26-.082-4.45.479-5.886 1.035-1.015.394-1.441.691-1.909 1.329-.663 1.41-3.032 3.303-3.174 4.328.08.188 2.974.155 4.248-.048 2.063-.328 6.138-1.936 7.623-3.008zm-14.407-.123c.51-1.591 1.211-3.024 1.458-4.051.106-.261.3-1.302-.849-4.33-1.162-3.06-1.766-4.036-2.941-4.748-4.04-.768-1.034 9.688-.08 11.596.464.898 1.102 1.885 1.419 2.192l.575.56.418-1.219z"/><path fill="#FF5E34" d="M117.837 90.536c.916-1.1 1.686-2.086 1.711-2.192.025-.106.34-.71.699-1.343 1.563-2.751 2.384-6.339 1.777-7.768-.807-1.901-2.899-1.238-5.428 1.721-3.045 3.561-5.106 9.325-4.144 11.59.396.933 1.153 1.081 2.534.494 1.001-.425 1.441-.811 2.851-2.502z"/></g><g><path fill="#00B980" d="M63.408 84.166c-2.117-.6-3.548-1.681-3.498-2.643.034-.646 1.528-1.953 2.943-2.576 1.619-.712 6.089-1.502 8.245-1.457 1.525.031 2.229.218 3.15.835 1.549 1.538 5.575 2.895 6.253 4.177-.015.285-3.841 1.629-5.616 1.972-2.872.557-9.009.392-11.477-.308zm18.909-7.065c-1.433-1.85-3.043-3.401-3.861-4.635-.264-.293-1.02-1.571-.957-6.107.064-4.587.392-6.161 1.597-7.662 4.951-2.946 6.003 12.261 5.662 15.229-.18 1.405-.548 3.01-.817 3.567l-.49 1.013-1.134-1.405z"/><path fill="#FF5E34" d="M76.018 80.995c-1.734-1.009-3.221-1.938-3.305-2.066-.083-.127-.787-.772-1.563-1.433-3.377-2.873-6.176-7.203-6.062-9.376.151-2.889 3.224-3.019 7.971-.336 5.716 3.23 11.191 9.831 11.01 13.275-.074 1.418-1 1.975-3.1 1.864-1.522-.079-2.286-.377-4.951-1.928z"/></g><g opacity=".4"><linearGradient id="f" x1=".517" x2=".517" y2="1"><stop offset="0%" stop-color="#fff"/><stop offset="12.5%" stop-opacity=".098" stop-color="#fff"/><stop offset="92.5%" stop-opacity=".098"/><stop offset="100%" stop-opacity=".498"/></linearGradient><path fill="none" stroke="url(#f)" stroke-linecap="round" stroke-linejoin="round" stroke-width="4.077" d="M165.685 11.947c74.055 0 84.639 10.557 84.639 84.544v59.251c0 73.986-10.584 84.543-84.639 84.543h-75.37c-74.055 0-84.639-10.557-84.639-84.543V96.491c0-73.987 10.584-84.544 84.639-84.544h75.37z" vector-effect="non-scaling-stroke"/></g></g></switch> </svg>