<?xml version="1.0" standalone="no"?><!-- Generator: Gravit.io --><svg xmlns="http://www.w3.org/2000/svg" xmlns:xlink="http://www.w3.org/1999/xlink" style="isolation:isolate" viewBox="0 0 256 256" width="256" height="256"><defs><filter id="42rmTDNhH9PXSjaPam83ciH19dY6TVuS" x="-7.324" y="2.947" width="270.648" height="254.338" filterUnits="userSpaceOnUse"><feGaussianBlur xmlns="http://www.w3.org/2000/svg" in="SourceGraphic" stdDeviation="4.293609062839028"/><feOffset xmlns="http://www.w3.org/2000/svg" dx="0" dy="4" result="pf_100_offsetBlur"/><feFlood xmlns="http://www.w3.org/2000/svg" flood-color="#000000" flood-opacity="0.4"/><feComposite xmlns="http://www.w3.org/2000/svg" in2="pf_100_offsetBlur" operator="in" result="pf_100_dropShadow"/><feBlend xmlns="http://www.w3.org/2000/svg" in="SourceGraphic" in2="pf_100_dropShadow" mode="normal"/></filter></defs><g filter="url(#42rmTDNhH9PXSjaPam83ciH19dY6TVuS)"><path d=" M 165.685 11.947 C 239.74 11.947 250.324 22.504 250.324 96.491 L 250.324 155.742 C 250.324 229.728 239.74 240.285 165.685 240.285 L 90.315 240.285 C 16.26 240.285 5.676 229.728 5.676 155.742 L 5.676 96.491 C 5.676 22.504 16.26 11.947 90.315 11.947 L 165.685 11.947 Z " id="shape" fill="rgb(242,242,242)"/></g><g opacity="0.4"><linearGradient id="_lgradient_229" x1="0.5166666666666668" y1="0" x2="0.5166666666666666" y2="1.0000000000000002"><stop offset="0%" stop-opacity="1" style="stop-color:rgb(255,255,255)"/><stop offset="12.5%" stop-opacity="0.09803922" style="stop-color:rgb(255,255,255)"/><stop offset="92.500001%" stop-opacity="0.09803922" style="stop-color:rgb(0,0,0)"/><stop offset="100%" stop-opacity="0.49803922" style="stop-color:rgb(0,0,0)"/></linearGradient><path d=" M 165.685 11.947 C 239.74 11.947 250.324 22.504 250.324 96.491 L 250.324 155.742 C 250.324 229.728 239.74 240.285 165.685 240.285 L 90.315 240.285 C 16.26 240.285 5.676 229.728 5.676 155.742 L 5.676 96.491 C 5.676 22.504 16.26 11.947 90.315 11.947 L 165.685 11.947 Z " id="highlight" fill="none" vector-effect="non-scaling-stroke" stroke-width="4.077" stroke="url(#_lgradient_229)" stroke-linejoin="round" stroke-linecap="round" stroke-miterlimit="4"/></g><g id="g1153"><g id="g1008" style="opacity:0.3;" filter="url(#xzFcP87yLRWxkuF7Ox5iJRSdR5TKuv5t)"><path d=" M 75.552 183.974 C 75.552 183.974 73.153 180.375 72.753 179.576 C 72.353 178.776 65.756 153.584 67.355 145.187 C 68.955 136.79 69.554 130.392 70.954 128.593 C 72.353 126.794 80.351 116.797 81.35 116.197 C 82.35 115.597 86.549 108.8 89.148 108.8 C 91.747 108.8 110.341 117.197 112.74 116.797 C 115.139 116.397 125.535 116.397 126.335 115.797 C 127.135 115.197 130.134 112.798 130.134 112.798 L 132.933 111.199 C 132.933 111.199 139.331 110.599 140.53 110.599 C 141.73 110.599 149.327 114.997 151.327 117.197 C 153.326 119.396 165.922 133.791 165.722 141.389 C 165.522 148.986 165.722 154.984 164.922 157.183 C 164.122 159.383 161.923 167.18 161.323 169.379 C 160.723 171.578 159.524 176.177 159.324 177.976 C 159.124 179.776 156.925 181.575 156.125 182.375 C 155.325 183.175 144.929 184.774 142.93 185.574 C 140.93 186.373 134.732 190.772 132.933 191.572 C 131.133 192.371 127.135 195.17 127.135 195.17 C 127.135 195.17 121.537 200.768 120.337 201.368 C 119.138 201.968 108.941 203.967 105.342 201.768 C 101.743 199.569 97.745 195.77 95.945 193.571 C 94.146 191.372 90.147 187.173 88.748 185.974 C 87.348 184.774 75.552 184.374 75.552 183.974 L 75.552 183.974 Z " fill-rule="evenodd" id="path989" fill="rgb(34,34,34)"/><path d=" M 76.442 183.02 C 76.442 183.02 72.197 170.814 72.064 160.996 C 71.931 151.178 71.401 145.472 73.258 138.042 C 75.116 130.613 75.116 129.684 75.116 129.684 L 77.73 123.094 L 67.369 128.583 C 67.369 128.583 64.103 156.087 63.971 156.883 C 63.838 157.679 65.165 172.273 65.165 172.273 L 66.624 177.315 L 69.809 182.357 L 71.666 184.082 L 76.442 183.02 Z " fill-rule="evenodd" id="path991" fill="rgb(34,34,34)"/><path d=" M 154.846 183.286 C 154.846 183.286 159.092 171.079 159.224 161.261 C 159.357 151.443 159.888 145.738 158.03 138.308 C 156.173 130.878 153.69 122.727 153.69 122.727 L 164.739 131.317 L 165.725 148.259 C 165.725 148.259 167.185 156.352 167.318 157.148 C 167.45 157.944 166.123 172.539 166.123 172.539 L 164.664 177.581 L 161.48 182.622 L 159.622 184.347 L 154.846 183.286 Z " fill-rule="evenodd" id="path994" fill="rgb(34,34,34)"/><path d=" M 114.939 45.925 C 110.849 45.948 106.72 46.484 102.637 47.554 C 86.819 51.697 73.238 64.333 68.326 79.476 C 66.78 84.243 66.489 86.031 66.031 93.625 C 64.91 112.177 60.894 119.555 44.952 132.348 C 39.358 136.837 37.299 138.836 33.918 143.061 C 31.005 146.699 30.226 148.497 30.514 150.917 C 30.712 152.576 30.971 153.015 32.057 153.534 C 33.541 154.242 33.972 154.07 41.402 149.789 C 49.037 145.39 53.814 143.408 54.685 144.279 C 54.942 144.536 55.285 146.785 55.447 149.276 C 56.143 159.977 59.429 169.521 65.65 178.913 C 68.144 182.679 68.961 183.606 69.628 183.431 C 70.782 183.13 71.666 184.082 69.736 180.3 C 68.64 176.328 67.858 174.307 67.339 170.281 C 66.141 165.212 65.519 160.667 65.501 155.772 C 65.504 140.986 72.452 127.004 84.381 117.776 C 85.807 116.388 87.279 115.182 88.779 114.185 L 90.225 113.224 C 89.738 112.696 88.436 110.782 85.096 105.02 C 83.598 101.969 82.465 97.179 82.465 93.898 C 82.465 86.97 86.309 78.884 91.103 75.728 C 98.677 70.741 107.853 73.953 112.418 83.189 C 114.255 86.908 115.079 91.69 113.797 91.198 C 113.31 91.011 113.069 91.152 113.069 91.623 C 113.069 92.223 110.982 93.206 110.717 92.731 C 110.666 92.64 110.176 91.925 109.628 91.142 C 109.08 90.359 108.631 89.51 108.631 89.256 C 108.631 88.209 107.303 88.905 106.338 90.459 C 105.49 91.821 105.305 92.725 105.313 95.451 C 105.32 97.514 106.111 98.31 107.301 98.507 C 107.943 99.456 108.764 100.276 109.64 100.78 C 110.436 101.299 111.283 101.622 112.092 101.646 C 112.451 101.657 112.899 101.074 113.302 100.228 C 113.379 100.083 113.454 99.933 113.524 99.777 C 113.748 99.285 113.932 98.685 114.072 98.05 C 114.11 97.899 114.147 97.748 114.179 97.597 C 114.292 97.586 114.405 97.586 114.516 97.586 C 115.419 98.145 114.502 99.917 114.198 100.676 L 112.354 105.31 C 112.354 105.31 114.249 104.616 115.782 104.692 C 117.315 104.768 120.31 105.204 120.31 105.204 L 118.873 103.511 L 118.642 103.108 C 118.851 102.579 118.782 102.02 118.698 101.884 C 118.549 101.643 121.465 103.202 121.491 103.048 C 121.607 102.373 121.816 101.718 122.074 101.081 C 122.03 101.066 121.986 101.055 121.941 101.035 C 121.987 101.046 122.033 101.058 122.078 101.073 C 122.077 101.073 122.075 101.084 122.073 101.084 C 122.977 101.378 123.645 101.15 124.112 100.409 C 124.148 100.353 124.183 100.295 124.216 100.232 C 125.03 98.711 125.465 96.307 125.182 94.892 C 125.144 94.705 125.103 94.547 125.053 94.41 L 125.053 94.409 C 125.202 93.281 124.922 92.181 123.859 91.082 C 122.689 89.871 122.529 89.785 123.227 90.741 C 124.399 92.345 124.395 92.633 123.192 93.277 C 122.345 93.731 122.093 93.635 121.198 92.516 C 120.64 91.82 120.304 91.123 120.214 90.588 C 120.053 90.837 119.864 91.116 119.654 91.416 C 119.588 91.327 119.523 91.241 119.461 91.164 C 119.165 90.798 118.919 90.57 118.796 90.57 C 118.228 90.57 117.438 92.479 117.163 94.245 C 117.149 94.331 117.139 94.416 117.128 94.501 C 116.852 94.748 116.625 94.89 116.485 94.864 L 118.326 89.017 L 119.369 87.474 C 120.946 85.141 124.41 82.756 127.812 81.663 C 130.269 80.873 131.47 80.733 133.988 80.944 C 142.093 81.624 148.273 87.512 148.283 94.564 C 148.289 98.081 146.892 101.949 144.768 104.301 C 142.194 107.149 136.522 109.633 132.56 109.646 C 132.157 109.646 131.86 109.657 131.639 109.687 C 133.332 110.239 134.993 110.877 136.615 111.6 C 138.296 111.831 139.916 112.725 142.441 114.659 C 157.042 123.546 165.914 139.069 165.938 155.772 C 165.917 161.505 165.008 166.472 163.262 172.723 C 162.561 175.974 161.306 178.94 160.771 180.592 C 160.616 183.35 159.691 182.855 160.616 183.35 C 161.162 183.642 161.666 183.682 161.828 183.446 C 167.765 174.766 170.875 168.728 172.743 162.25 C 174.159 157.343 175.191 151.144 175.193 147.536 C 175.194 145.807 175.411 144.637 175.789 144.324 C 176.722 143.55 181.054 145.23 187.191 148.746 C 195.288 153.385 196.791 154.081 198.032 153.769 C 199.652 153.363 200.221 152.406 200.167 150.179 C 200.077 146.4 194.451 139.471 185.938 132.654 C 169.688 119.642 165.594 112.262 164.561 94.119 C 163.738 79.671 159.992 70.649 150.896 61.213 C 141.261 51.217 128.302 45.846 114.939 45.925 L 114.939 45.925 Z  M 120.215 90.587 C 120.587 90.013 120.806 89.615 120.724 89.624 C 120.284 89.669 120.124 90.047 120.215 90.587 Z  M 90.225 113.224 C 90.655 113.691 90.449 113.075 90.449 113.075 L 90.225 113.224 Z  M 113.413 93.036 C 113.728 93.036 113.908 93.144 114.042 93.356 C 114.293 93.751 114.398 94.545 114.381 95.477 C 114.352 93.172 114.012 92.779 112.349 93.234 C 112.818 93.103 113.161 93.035 113.413 93.036 L 113.413 93.036 Z  M 106.027 95.432 C 106.059 95.639 106.103 95.849 106.158 96.059 C 106.103 95.85 106.059 95.64 106.027 95.432 Z  M 58.332 122.359 C 58.341 122.359 58.35 122.359 58.357 122.359 C 58.519 122.39 58.32 122.876 57.85 123.761 C 56.748 125.837 31.86 150.357 31.865 149.363 C 31.879 146.412 38.05 139.336 46.283 132.829 C 49.212 130.515 53.156 127.103 55.047 125.247 C 57.046 123.287 58.055 122.369 58.332 122.358 L 58.332 122.359 Z  M 172.245 122.403 C 172.545 122.426 173.655 123.436 175.971 125.684 C 178.107 127.756 181.652 130.82 183.848 132.494 C 188.688 136.181 192.792 140.069 195.444 143.478 C 197.121 145.636 198.714 148.497 198.714 149.353 C 198.714 149.483 198.563 149.589 198.378 149.589 C 197.852 149.589 173.129 124.634 172.579 123.548 C 172.216 122.83 172.064 122.429 172.218 122.404 C 172.227 122.404 172.235 122.404 172.245 122.403 L 172.245 122.403 Z  M 30.266 149.972 C 30.266 149.972 30.266 149.972 30.265 149.972 C 30.25 149.983 30.268 149.971 30.242 149.983 C 30.203 150.156 30.115 150.771 30.221 150.219 C 30.266 149.988 30.264 149.987 30.262 149.992 C 30.262 149.992 30.262 150.004 30.268 149.973 C 30.268 149.973 30.267 149.973 30.266 149.974 C 30.265 149.974 30.265 149.973 30.266 149.974 L 30.266 149.972 Z  M 30.272 149.972 C 30.272 149.972 30.269 149.972 30.269 149.972 C 30.269 149.972 30.27 149.971 30.272 149.972 Z  M 110.653 204.16 C 110.397 205.513 109.852 206.548 108.942 207.589 L 107.522 209.212 L 109.519 207.756 C 111.497 206.312 111.553 206.301 115.565 206.502 C 119.145 206.682 119.814 206.851 121.334 207.967 L 123.053 209.23 L 121.664 207.699 C 120.723 206.663 120.085 205.491 119.726 204.235 C 118.393 204.345 117.057 204.404 115.72 204.411 C 114.027 204.41 112.337 204.326 110.653 204.16 L 110.653 204.16 Z " id="path996" fill="rgb(34,34,34)"/><ellipse vector-effect="non-scaling-stroke" cx="0" cy="0" rx="1" ry="1" transform="matrix(16.096,0,0,15.064,132.411,95.152)" id="ellipse998" fill="rgb(34,34,34)"/><ellipse vector-effect="non-scaling-stroke" cx="0" cy="0" rx="1" ry="1" transform="matrix(16.715,0,0,21.564,98.363,94.43)" id="ellipse1000" fill="rgb(34,34,34)"/><ellipse vector-effect="non-scaling-stroke" cx="0" cy="0" rx="1" ry="1" transform="matrix(5.262,0,0,8.048,109.609,95.152)" id="ellipse1002" fill="rgb(34,34,34)"/><ellipse vector-effect="non-scaling-stroke" cx="0" cy="0" rx="1" ry="1" transform="matrix(4.333,0,0,6.603,120.649,95.978)" id="ellipse1004" fill="rgb(34,34,34)"/><path d=" M 115.461 104.635 C 112.269 104.658 109.667 105.098 106.918 106.122 C 104.701 106.947 102.487 108.149 100.928 109.929 C 100.584 110.321 100.268 111.35 100.268 111.35 C 100.268 111.35 100.065 112.061 100.166 112.568 C 100.268 113.076 100.166 113.533 100.42 113.939 C 100.674 114.345 112.451 127.392 112.451 127.392 C 112.451 127.392 113.213 128.61 114.583 128.458 C 115.954 128.305 116.411 128.153 116.817 127.899 C 117.223 127.646 127.122 117.696 127.122 117.696 L 130.624 113.228 C 130.624 113.228 130.878 112.162 130.777 111.198 C 130.675 110.233 129.102 108.66 129.102 108.66 C 129.102 108.66 127.579 107.644 127.173 107.492 C 126.767 107.34 120.726 104.751 116.868 104.649 C 116.385 104.638 115.917 104.63 115.461 104.638 L 115.461 104.635 Z  M 149.001 181.898 C 142.309 181.876 137.365 182.932 131.823 185.582 C 121.003 190.754 115.912 202.149 121.878 207.844 C 122.768 208.694 124.096 209.597 124.828 209.852 C 126.644 210.483 170.823 210.546 173.073 209.921 C 175.189 209.333 177.368 207.496 178.14 205.649 C 179.763 201.764 178.295 195.93 174.707 192.004 C 171.902 188.934 168.869 186.931 163.622 184.681 C 158.276 182.389 155.836 181.925 149.001 181.898 L 149.001 181.898 Z  M 80.28 182.039 C 74.149 182.02 70.873 182.759 65.915 185.04 C 56.647 189.305 52.315 194.269 51.921 201.08 C 51.647 205.812 53.143 208.361 57.002 209.737 C 58.362 210.222 63.349 210.348 81.562 210.355 C 102.799 210.367 104.542 210.307 106.209 209.55 C 108.457 208.529 110.282 206.397 110.668 204.338 C 111.214 201.427 110.607 197.339 109.262 194.868 C 106.688 190.139 100.704 185.817 93.543 183.515 C 90.329 182.482 88.784 182.272 83.096 182.092 C 82.09 182.062 81.156 182.042 80.28 182.039 L 80.28 182.039 Z  M 155.972 185.115 C 159.175 185.115 162.533 185.557 164.657 186.382 C 173.531 189.829 176.705 198.878 170.786 203.857 L 169.358 205.06 L 162.403 204.992 C 158.577 204.954 152.561 204.776 149.033 204.596 L 142.617 204.269 L 141.183 202.703 C 135.978 197.024 140.528 188.337 150.059 185.757 C 151.661 185.324 153.78 185.116 155.972 185.116 L 155.972 185.115 Z  M 78.304 185.156 C 83.096 185.144 86.589 186.122 89.829 188.334 C 95.516 192.216 96.89 199.062 92.759 202.94 C 91.572 204.055 91.344 204.089 81.739 204.569 C 66.312 205.34 65.043 205.291 63.339 203.857 C 60.221 201.234 59.475 197.049 61.428 193.13 C 63.875 188.219 69.117 185.506 76.774 185.19 C 77.299 185.171 77.809 185.156 78.304 185.156 Z " id="path1006" fill="rgb(34,34,34)"/></g><defs><filter id="xzFcP87yLRWxkuF7Ox5iJRSdR5TKuv5t" x="26.049" y="41.802" width="178.244" height="172.678" filterUnits="userSpaceOnUse"><feGaussianBlur xmlns="http://www.w3.org/2000/svg" stdDeviation="0.8848588"/></filter></defs><path d=" M 30.272 149.972 L 35.014 142.651 L 39.634 137.958 L 46.926 131.533 L 52.774 126.334 C 52.774 126.334 57.755 120.992 58.261 120.848 C 58.766 120.703 58.357 122.359 58.357 122.359 L 59.344 126.118 L 33.137 151.026 L 30.272 149.972 L 30.272 149.972" id="path1030" fill="rgb(255,255,255)"/><path d=" M 199.124 150.612 L 191.803 145.871 L 187.11 141.25 L 180.685 133.958 L 175.487 128.11 C 175.487 128.11 170.144 123.129 170 122.623 C 169.856 122.118 171.512 122.528 171.512 122.528 L 172.166 120.891 L 194.835 141.755 L 198.362 147.286 L 199.124 150.612 L 199.124 150.612 Z " id="path1032" fill="rgb(255,255,255)"/><g id="penguin shadow" style="opacity:0.3;" filter="url(#wWbWVJmrD3an1pXa63thNvbLlww4M9mB)"><path d=" M 75.552 183.974 C 75.552 183.974 73.153 180.375 72.753 179.576 C 72.353 178.776 65.756 153.584 67.355 145.187 C 68.955 136.79 69.554 130.392 70.954 128.593 C 72.353 126.794 80.351 116.797 81.35 116.197 C 82.35 115.597 86.549 108.8 89.148 108.8 C 91.747 108.8 110.341 117.197 112.74 116.797 C 115.139 116.397 125.535 116.397 126.335 115.797 C 127.135 115.197 130.134 112.798 130.134 112.798 L 132.933 111.199 C 132.933 111.199 139.331 110.599 140.53 110.599 C 141.73 110.599 149.327 114.997 151.327 117.197 C 153.326 119.396 165.922 133.791 165.722 141.389 C 165.522 148.986 165.722 154.984 164.922 157.183 C 164.122 159.383 161.923 167.18 161.323 169.379 C 160.723 171.578 159.524 176.177 159.324 177.976 C 159.124 179.776 156.925 181.575 156.125 182.375 C 155.325 183.175 144.929 184.774 142.93 185.574 C 140.93 186.373 134.732 190.772 132.933 191.572 C 131.133 192.371 127.135 195.17 127.135 195.17 C 127.135 195.17 121.537 200.768 120.337 201.368 C 119.138 201.968 108.941 203.967 105.342 201.768 C 101.743 199.569 97.745 195.77 95.945 193.571 C 94.146 191.372 90.147 187.173 88.748 185.974 C 87.348 184.774 75.552 184.374 75.552 183.974 L 75.552 183.974 Z " fill-rule="evenodd" id="path1155" fill="rgb(41,37,37)"/><path d=" M 76.442 183.02 C 76.442 183.02 72.197 170.814 72.064 160.996 C 71.931 151.178 71.401 145.472 73.258 138.042 C 75.116 130.613 75.116 129.684 75.116 129.684 L 77.73 123.094 L 67.369 128.583 C 67.369 128.583 64.103 156.087 63.971 156.883 C 63.838 157.679 65.165 172.273 65.165 172.273 L 66.624 177.315 L 69.809 182.357 L 71.666 184.082 L 76.442 183.02 Z " fill-rule="evenodd" id="path1157" fill="rgb(41,37,37)"/><path d=" M 154.846 183.286 C 154.846 183.286 159.092 171.079 159.224 161.261 C 159.357 151.443 159.888 145.738 158.03 138.308 C 156.173 130.878 153.69 122.727 153.69 122.727 L 164.739 131.317 L 165.725 148.259 C 165.725 148.259 167.185 156.352 167.318 157.148 C 167.45 157.944 166.123 172.539 166.123 172.539 L 164.664 177.581 L 161.48 182.622 L 159.622 184.347 L 154.846 183.286 Z " fill-rule="evenodd" id="path1159" fill="rgb(41,37,37)"/><path d=" M 114.939 45.925 C 110.849 45.948 106.72 46.484 102.637 47.554 C 86.819 51.697 73.238 64.333 68.326 79.476 C 66.78 84.243 66.489 86.031 66.031 93.625 C 64.91 112.177 60.894 119.555 44.952 132.348 C 39.358 136.837 37.299 138.836 33.918 143.061 C 31.005 146.699 30.226 148.497 30.514 150.917 C 30.712 152.576 30.971 153.015 32.057 153.534 C 33.541 154.242 33.972 154.07 41.402 149.789 C 49.037 145.39 53.814 143.408 54.685 144.279 C 54.942 144.536 55.285 146.785 55.447 149.276 C 56.143 159.977 59.429 169.521 65.65 178.913 C 68.144 182.679 68.961 183.606 69.628 183.431 C 70.782 183.13 71.666 184.082 69.736 180.3 C 68.64 176.328 67.858 174.307 67.339 170.281 C 66.141 165.212 65.519 160.667 65.501 155.772 C 65.504 140.986 72.452 127.004 84.381 117.776 C 85.807 116.388 87.279 115.182 88.779 114.185 L 90.225 113.224 C 89.738 112.696 88.436 110.782 85.096 105.02 C 83.598 101.969 82.465 97.179 82.465 93.898 C 82.465 86.97 86.309 78.884 91.103 75.728 C 98.677 70.741 107.853 73.953 112.418 83.189 C 114.255 86.908 115.079 91.69 113.797 91.198 C 113.31 91.011 113.069 91.152 113.069 91.623 C 113.069 92.223 110.982 93.206 110.717 92.731 C 110.666 92.64 110.176 91.925 109.628 91.142 C 109.08 90.359 108.631 89.51 108.631 89.256 C 108.631 88.209 107.303 88.905 106.338 90.459 C 105.49 91.821 105.305 92.725 105.313 95.451 C 105.32 97.514 106.111 98.31 107.301 98.507 C 107.943 99.456 108.764 100.276 109.64 100.78 C 110.436 101.299 111.283 101.622 112.092 101.646 C 112.451 101.657 112.899 101.074 113.302 100.228 C 113.379 100.083 113.454 99.933 113.524 99.777 C 113.748 99.285 113.932 98.685 114.072 98.05 C 114.11 97.899 114.147 97.748 114.179 97.597 C 114.292 97.586 114.405 97.586 114.516 97.586 C 115.419 98.145 114.502 99.917 114.198 100.676 L 112.354 105.31 C 112.354 105.31 114.249 104.616 115.782 104.692 C 117.315 104.768 120.31 105.204 120.31 105.204 L 118.873 103.511 L 118.642 103.108 C 118.851 102.579 118.782 102.02 118.698 101.884 C 118.549 101.643 121.465 103.202 121.491 103.048 C 121.607 102.373 121.816 101.718 122.074 101.081 C 122.03 101.066 121.986 101.055 121.941 101.035 C 121.987 101.046 122.033 101.058 122.078 101.073 C 122.077 101.073 122.075 101.084 122.073 101.084 C 122.977 101.378 123.645 101.15 124.112 100.409 C 124.148 100.353 124.183 100.295 124.216 100.232 C 125.03 98.711 125.465 96.307 125.182 94.892 C 125.144 94.705 125.103 94.547 125.053 94.41 L 125.053 94.409 C 125.202 93.281 124.922 92.181 123.859 91.082 C 122.689 89.871 122.529 89.785 123.227 90.741 C 124.399 92.345 124.395 92.633 123.192 93.277 C 122.345 93.731 122.093 93.635 121.198 92.516 C 120.64 91.82 120.304 91.123 120.214 90.588 C 120.053 90.837 119.864 91.116 119.654 91.416 C 119.588 91.327 119.523 91.241 119.461 91.164 C 119.165 90.798 118.919 90.57 118.796 90.57 C 118.228 90.57 117.438 92.479 117.163 94.245 C 117.149 94.331 117.139 94.416 117.128 94.501 C 116.852 94.748 116.625 94.89 116.485 94.864 L 118.326 89.017 L 119.369 87.474 C 120.946 85.141 124.41 82.756 127.812 81.663 C 130.269 80.873 131.47 80.733 133.988 80.944 C 142.093 81.624 148.273 87.512 148.283 94.564 C 148.289 98.081 146.892 101.949 144.768 104.301 C 142.194 107.149 136.522 109.633 132.56 109.646 C 132.157 109.646 131.86 109.657 131.639 109.687 C 133.332 110.239 134.993 110.877 136.615 111.6 C 138.296 111.831 139.916 112.725 142.441 114.659 C 157.042 123.546 165.914 139.069 165.938 155.772 C 165.917 161.505 165.008 166.472 163.262 172.723 C 162.561 175.974 161.306 178.94 160.771 180.592 C 160.616 183.35 159.691 182.855 160.616 183.35 C 161.162 183.642 161.666 183.682 161.828 183.446 C 167.765 174.766 170.875 168.728 172.743 162.25 C 174.159 157.343 175.191 151.144 175.193 147.536 C 175.194 145.807 175.411 144.637 175.789 144.324 C 176.722 143.55 181.054 145.23 187.191 148.746 C 195.288 153.385 196.791 154.081 198.032 153.769 C 199.652 153.363 200.221 152.406 200.167 150.179 C 200.077 146.4 194.451 139.471 185.938 132.654 C 169.688 119.642 165.594 112.262 164.561 94.119 C 163.738 79.671 159.992 70.649 150.896 61.213 C 141.261 51.217 128.302 45.846 114.939 45.925 L 114.939 45.925 Z  M 120.215 90.587 C 120.587 90.013 120.806 89.615 120.724 89.624 C 120.284 89.669 120.124 90.047 120.215 90.587 Z  M 90.225 113.224 C 90.655 113.691 90.449 113.075 90.449 113.075 L 90.225 113.224 Z  M 113.413 93.036 C 113.728 93.036 113.908 93.144 114.042 93.356 C 114.293 93.751 114.398 94.545 114.381 95.477 C 114.352 93.172 114.012 92.779 112.349 93.234 C 112.818 93.103 113.161 93.035 113.413 93.036 L 113.413 93.036 Z  M 106.027 95.432 C 106.059 95.639 106.103 95.849 106.158 96.059 C 106.103 95.85 106.059 95.64 106.027 95.432 Z  M 58.332 122.359 C 58.341 122.359 58.35 122.359 58.357 122.359 C 58.519 122.39 58.32 122.876 57.85 123.761 C 56.748 125.837 31.86 150.357 31.865 149.363 C 31.879 146.412 38.05 139.336 46.283 132.829 C 49.212 130.515 53.156 127.103 55.047 125.247 C 57.046 123.287 58.055 122.369 58.332 122.358 L 58.332 122.359 Z  M 172.245 122.403 C 172.545 122.426 173.655 123.436 175.971 125.684 C 178.107 127.756 181.652 130.82 183.848 132.494 C 188.688 136.181 192.792 140.069 195.444 143.478 C 197.121 145.636 198.714 148.497 198.714 149.353 C 198.714 149.483 198.563 149.589 198.378 149.589 C 197.852 149.589 173.129 124.634 172.579 123.548 C 172.216 122.83 172.064 122.429 172.218 122.404 C 172.227 122.404 172.235 122.404 172.245 122.403 L 172.245 122.403 Z  M 30.266 149.972 C 30.266 149.972 30.266 149.972 30.265 149.972 C 30.25 149.983 30.268 149.971 30.242 149.983 C 30.203 150.156 30.115 150.771 30.221 150.219 C 30.266 149.988 30.264 149.987 30.262 149.992 C 30.262 149.992 30.262 150.004 30.268 149.973 C 30.268 149.973 30.267 149.973 30.266 149.974 C 30.265 149.974 30.265 149.973 30.266 149.974 L 30.266 149.972 Z  M 30.272 149.972 C 30.272 149.972 30.269 149.972 30.269 149.972 C 30.269 149.972 30.27 149.971 30.272 149.972 Z  M 110.653 204.16 C 110.397 205.513 109.852 206.548 108.942 207.589 L 107.522 209.212 L 109.519 207.756 C 111.497 206.312 111.553 206.301 115.565 206.502 C 119.145 206.682 119.814 206.851 121.334 207.967 L 123.053 209.23 L 121.664 207.699 C 120.723 206.663 120.085 205.491 119.726 204.235 C 118.393 204.345 117.057 204.404 115.72 204.411 C 114.027 204.41 112.337 204.326 110.653 204.16 L 110.653 204.16 Z " id="path1161" fill="rgb(41,37,37)"/><ellipse vector-effect="non-scaling-stroke" cx="0" cy="0" rx="1" ry="1" transform="matrix(16.096,0,0,15.064,132.411,95.152)" id="ellipse1163" fill="rgb(41,37,37)"/><ellipse vector-effect="non-scaling-stroke" cx="0" cy="0" rx="1" ry="1" transform="matrix(16.715,0,0,21.564,98.363,94.43)" id="ellipse1165" fill="rgb(41,37,37)"/><ellipse vector-effect="non-scaling-stroke" cx="0" cy="0" rx="1" ry="1" transform="matrix(5.262,0,0,8.048,109.609,95.152)" id="ellipse1167" fill="rgb(41,37,37)"/><ellipse vector-effect="non-scaling-stroke" cx="0" cy="0" rx="1" ry="1" transform="matrix(4.333,0,0,6.603,120.649,95.978)" id="ellipse1169" fill="rgb(41,37,37)"/><path d=" M 115.461 104.635 C 112.269 104.658 109.667 105.098 106.918 106.122 C 104.701 106.947 102.487 108.149 100.928 109.929 C 100.584 110.321 100.268 111.35 100.268 111.35 C 100.268 111.35 100.065 112.061 100.166 112.568 C 100.268 113.076 100.166 113.533 100.42 113.939 C 100.674 114.345 112.451 127.392 112.451 127.392 C 112.451 127.392 113.213 128.61 114.583 128.458 C 115.954 128.305 116.411 128.153 116.817 127.899 C 117.223 127.646 127.122 117.696 127.122 117.696 L 130.624 113.228 C 130.624 113.228 130.878 112.162 130.777 111.198 C 130.675 110.233 129.102 108.66 129.102 108.66 C 129.102 108.66 127.579 107.644 127.173 107.492 C 126.767 107.34 120.726 104.751 116.868 104.649 C 116.385 104.638 115.917 104.63 115.461 104.638 L 115.461 104.635 Z  M 149.001 181.898 C 142.309 181.876 137.365 182.932 131.823 185.582 C 121.003 190.754 115.912 202.149 121.878 207.844 C 122.768 208.694 124.096 209.597 124.828 209.852 C 126.644 210.483 170.823 210.546 173.073 209.921 C 175.189 209.333 177.368 207.496 178.14 205.649 C 179.763 201.764 178.295 195.93 174.707 192.004 C 171.902 188.934 168.869 186.931 163.622 184.681 C 158.276 182.389 155.836 181.925 149.001 181.898 L 149.001 181.898 Z  M 80.28 182.039 C 74.149 182.02 70.873 182.759 65.915 185.04 C 56.647 189.305 52.315 194.269 51.921 201.08 C 51.647 205.812 53.143 208.361 57.002 209.737 C 58.362 210.222 63.349 210.348 81.562 210.355 C 102.799 210.367 104.542 210.307 106.209 209.55 C 108.457 208.529 110.282 206.397 110.668 204.338 C 111.214 201.427 110.607 197.339 109.262 194.868 C 106.688 190.139 100.704 185.817 93.543 183.515 C 90.329 182.482 88.784 182.272 83.096 182.092 C 82.09 182.062 81.156 182.042 80.28 182.039 L 80.28 182.039 Z  M 155.972 185.115 C 159.175 185.115 162.533 185.557 164.657 186.382 C 173.531 189.829 176.705 198.878 170.786 203.857 L 169.358 205.06 L 162.403 204.992 C 158.577 204.954 152.561 204.776 149.033 204.596 L 142.617 204.269 L 141.183 202.703 C 135.978 197.024 140.528 188.337 150.059 185.757 C 151.661 185.324 153.78 185.116 155.972 185.116 L 155.972 185.115 Z  M 78.304 185.156 C 83.096 185.144 86.589 186.122 89.829 188.334 C 95.516 192.216 96.89 199.062 92.759 202.94 C 91.572 204.055 91.344 204.089 81.739 204.569 C 66.312 205.34 65.043 205.291 63.339 203.857 C 60.221 201.234 59.475 197.049 61.428 193.13 C 63.875 188.219 69.117 185.506 76.774 185.19 C 77.299 185.171 77.809 185.156 78.304 185.156 Z " id="path1171" fill="rgb(41,37,37)"/></g><defs><filter id="wWbWVJmrD3an1pXa63thNvbLlww4M9mB" x="26.049" y="41.802" width="178.244" height="172.678" filterUnits="userSpaceOnUse"><feGaussianBlur xmlns="http://www.w3.org/2000/svg" stdDeviation="0.8848588"/></filter></defs><g id="penguin"><path d=" M 75.552 183.974 C 75.552 183.974 73.153 180.375 72.753 179.576 C 72.353 178.776 65.756 153.584 67.355 145.187 C 68.955 136.79 69.554 130.392 70.954 128.593 C 72.353 126.794 80.351 116.797 81.35 116.197 C 82.35 115.597 86.549 108.8 89.148 108.8 C 91.747 108.8 110.341 117.197 112.74 116.797 C 115.139 116.397 125.535 116.397 126.335 115.797 C 127.135 115.197 130.134 112.798 130.134 112.798 L 132.933 111.199 C 132.933 111.199 139.331 110.599 140.53 110.599 C 141.73 110.599 149.327 114.997 151.327 117.197 C 153.326 119.396 165.922 133.791 165.722 141.389 C 165.522 148.986 165.722 154.984 164.922 157.183 C 164.122 159.383 161.923 167.18 161.323 169.379 C 160.723 171.578 159.524 176.177 159.324 177.976 C 159.124 179.776 156.925 181.575 156.125 182.375 C 155.325 183.175 144.929 184.774 142.93 185.574 C 140.93 186.373 134.732 190.772 132.933 191.572 C 131.133 192.371 127.135 195.17 127.135 195.17 C 127.135 195.17 121.537 200.768 120.337 201.368 C 119.138 201.968 108.941 203.967 105.342 201.768 C 101.743 199.569 97.745 195.77 95.945 193.571 C 94.146 191.372 90.147 187.173 88.748 185.974 C 87.348 184.774 75.552 184.374 75.552 183.974 L 75.552 183.974 Z " fill-rule="evenodd" id="path17935" fill="rgb(251,251,251)"/><path d=" M 76.442 183.02 C 76.442 183.02 72.197 170.814 72.064 160.996 C 71.931 151.178 71.401 145.472 73.258 138.042 C 75.116 130.613 75.116 129.684 75.116 129.684 L 77.73 123.094 L 67.369 128.583 C 67.369 128.583 64.103 156.087 63.971 156.883 C 63.838 157.679 65.165 172.273 65.165 172.273 L 66.624 177.315 L 69.809 182.357 L 71.666 184.082 L 76.442 183.02 Z " fill-rule="evenodd" id="path6184" fill="rgb(204,204,204)"/><path d=" M 154.846 183.286 C 154.846 183.286 159.092 171.079 159.224 161.261 C 159.357 151.443 159.888 145.738 158.03 138.308 C 156.173 130.878 153.69 122.727 153.69 122.727 L 164.739 131.317 L 165.725 148.259 C 165.725 148.259 167.185 156.352 167.318 157.148 C 167.45 157.944 166.123 172.539 166.123 172.539 L 164.664 177.581 L 161.48 182.622 L 159.622 184.347 L 154.846 183.286 Z " fill-rule="evenodd" id="path4226" fill="rgb(204,204,204)"/><path d=" M 114.939 45.925 C 110.849 45.948 106.72 46.484 102.637 47.554 C 86.819 51.697 73.238 64.333 68.326 79.476 C 66.78 84.243 66.489 86.031 66.031 93.625 C 64.91 112.177 60.894 119.555 44.952 132.348 C 39.358 136.837 37.299 138.836 33.918 143.061 C 31.005 146.699 30.226 148.497 30.514 150.917 C 30.712 152.576 30.971 153.015 32.057 153.534 C 33.541 154.242 33.972 154.07 41.402 149.789 C 49.037 145.39 53.814 143.408 54.685 144.279 C 54.942 144.536 55.285 146.785 55.447 149.276 C 56.143 159.977 59.429 169.521 65.65 178.913 C 68.144 182.679 68.961 183.606 69.628 183.431 C 70.782 183.13 71.666 184.082 69.736 180.3 C 68.64 176.328 67.858 174.307 67.339 170.281 C 66.141 165.212 65.519 160.667 65.501 155.772 C 65.504 140.986 72.452 127.004 84.381 117.776 C 85.807 116.388 87.279 115.182 88.779 114.185 L 90.225 113.224 C 89.738 112.696 88.436 110.782 85.096 105.02 C 83.598 101.969 82.465 97.179 82.465 93.898 C 82.465 86.97 86.309 78.884 91.103 75.728 C 98.677 70.741 107.853 73.953 112.418 83.189 C 114.255 86.908 115.079 91.69 113.797 91.198 C 113.31 91.011 113.069 91.152 113.069 91.623 C 113.069 92.223 110.982 93.206 110.717 92.731 C 110.666 92.64 110.176 91.925 109.628 91.142 C 109.08 90.359 108.631 89.51 108.631 89.256 C 108.631 88.209 107.303 88.905 106.338 90.459 C 105.49 91.821 105.305 92.725 105.313 95.451 C 105.32 97.514 106.111 98.31 107.301 98.507 C 107.943 99.456 108.764 100.276 109.64 100.78 C 110.436 101.299 111.283 101.622 112.092 101.646 C 112.451 101.657 112.899 101.074 113.302 100.228 C 113.379 100.083 113.454 99.933 113.524 99.777 C 113.748 99.285 113.932 98.685 114.072 98.05 C 114.11 97.899 114.147 97.748 114.179 97.597 C 114.292 97.586 114.405 97.586 114.516 97.586 C 115.419 98.145 114.502 99.917 114.198 100.676 L 112.354 105.31 C 112.354 105.31 114.249 104.616 115.782 104.692 C 117.315 104.768 120.31 105.204 120.31 105.204 L 118.873 103.511 L 118.642 103.108 C 118.851 102.579 118.782 102.02 118.698 101.884 C 118.549 101.643 121.465 103.202 121.491 103.048 C 121.607 102.373 121.816 101.718 122.074 101.081 C 122.03 101.066 121.986 101.055 121.941 101.035 C 121.987 101.046 122.033 101.058 122.078 101.073 C 122.077 101.073 122.075 101.084 122.073 101.084 C 122.977 101.378 123.645 101.15 124.112 100.409 C 124.148 100.353 124.183 100.295 124.216 100.232 C 125.03 98.711 125.465 96.307 125.182 94.892 C 125.144 94.705 125.103 94.547 125.053 94.41 L 125.053 94.409 C 125.202 93.281 124.922 92.181 123.859 91.082 C 122.689 89.871 122.529 89.785 123.227 90.741 C 124.399 92.345 124.395 92.633 123.192 93.277 C 122.345 93.731 122.093 93.635 121.198 92.516 C 120.64 91.82 120.304 91.123 120.214 90.588 C 120.053 90.837 119.864 91.116 119.654 91.416 C 119.588 91.327 119.523 91.241 119.461 91.164 C 119.165 90.798 118.919 90.57 118.796 90.57 C 118.228 90.57 117.438 92.479 117.163 94.245 C 117.149 94.331 117.139 94.416 117.128 94.501 C 116.852 94.748 116.625 94.89 116.485 94.864 L 118.326 89.017 L 119.369 87.474 C 120.946 85.141 124.41 82.756 127.812 81.663 C 130.269 80.873 131.47 80.733 133.988 80.944 C 142.093 81.624 148.273 87.512 148.283 94.564 C 148.289 98.081 146.892 101.949 144.768 104.301 C 142.194 107.149 136.522 109.633 132.56 109.646 C 132.157 109.646 131.86 109.657 131.639 109.687 C 133.332 110.239 134.993 110.877 136.615 111.6 C 138.296 111.831 139.916 112.725 142.441 114.659 C 157.042 123.546 165.914 139.069 165.938 155.772 C 165.917 161.505 165.008 166.472 163.262 172.723 C 162.561 175.974 161.306 178.94 160.771 180.592 C 160.616 183.35 159.691 182.855 160.616 183.35 C 161.162 183.642 161.666 183.682 161.828 183.446 C 167.765 174.766 170.875 168.728 172.743 162.25 C 174.159 157.343 175.191 151.144 175.193 147.536 C 175.194 145.807 175.411 144.637 175.789 144.324 C 176.722 143.55 181.054 145.23 187.191 148.746 C 195.288 153.385 196.791 154.081 198.032 153.769 C 199.652 153.363 200.221 152.406 200.167 150.179 C 200.077 146.4 194.451 139.471 185.938 132.654 C 169.688 119.642 165.594 112.262 164.561 94.119 C 163.738 79.671 159.992 70.649 150.896 61.213 C 141.261 51.217 128.302 45.846 114.939 45.925 L 114.939 45.925 Z  M 120.215 90.587 C 120.587 90.013 120.806 89.615 120.724 89.624 C 120.284 89.669 120.124 90.047 120.215 90.587 Z  M 90.225 113.224 C 90.655 113.691 90.449 113.075 90.449 113.075 L 90.225 113.224 Z  M 113.413 93.036 C 113.728 93.036 113.908 93.144 114.042 93.356 C 114.293 93.751 114.398 94.545 114.381 95.477 C 114.352 93.172 114.012 92.779 112.349 93.234 C 112.818 93.103 113.161 93.035 113.413 93.036 L 113.413 93.036 Z  M 106.027 95.432 C 106.059 95.639 106.103 95.849 106.158 96.059 C 106.103 95.85 106.059 95.64 106.027 95.432 Z  M 58.332 122.359 C 58.341 122.359 58.35 122.359 58.357 122.359 C 58.519 122.39 58.32 122.876 57.85 123.761 C 56.748 125.837 31.86 150.357 31.865 149.363 C 31.879 146.412 38.05 139.336 46.283 132.829 C 49.212 130.515 53.156 127.103 55.047 125.247 C 57.046 123.287 58.055 122.369 58.332 122.358 L 58.332 122.359 Z  M 172.245 122.403 C 172.545 122.426 173.655 123.436 175.971 125.684 C 178.107 127.756 181.652 130.82 183.848 132.494 C 188.688 136.181 192.792 140.069 195.444 143.478 C 197.121 145.636 198.714 148.497 198.714 149.353 C 198.714 149.483 198.563 149.589 198.378 149.589 C 197.852 149.589 173.129 124.634 172.579 123.548 C 172.216 122.83 172.064 122.429 172.218 122.404 C 172.227 122.404 172.235 122.404 172.245 122.403 L 172.245 122.403 Z  M 30.266 149.972 C 30.266 149.972 30.266 149.972 30.265 149.972 C 30.25 149.983 30.268 149.971 30.242 149.983 C 30.203 150.156 30.115 150.771 30.221 150.219 C 30.266 149.988 30.264 149.987 30.262 149.992 C 30.262 149.992 30.262 150.004 30.268 149.973 C 30.268 149.973 30.267 149.973 30.266 149.974 C 30.265 149.974 30.265 149.973 30.266 149.974 L 30.266 149.972 Z  M 30.272 149.972 C 30.272 149.972 30.269 149.972 30.269 149.972 C 30.269 149.972 30.27 149.971 30.272 149.972 Z  M 110.653 204.16 C 110.397 205.513 109.852 206.548 108.942 207.589 L 107.522 209.212 L 109.519 207.756 C 111.497 206.312 111.553 206.301 115.565 206.502 C 119.145 206.682 119.814 206.851 121.334 207.967 L 123.053 209.23 L 121.664 207.699 C 120.723 206.663 120.085 205.491 119.726 204.235 C 118.393 204.345 117.057 204.404 115.72 204.411 C 114.027 204.41 112.337 204.326 110.653 204.16 L 110.653 204.16 Z " id="path2225" fill="rgb(5,4,0)"/><ellipse vector-effect="non-scaling-stroke" cx="0" cy="0" rx="1" ry="1" transform="matrix(16.096,0,0,15.064,132.411,95.152)" id="ellipse882" fill="rgb(255,255,255)"/><ellipse vector-effect="non-scaling-stroke" cx="0" cy="0" rx="1" ry="1" transform="matrix(16.715,0,0,21.564,98.363,94.43)" id="path878" fill="rgb(255,255,255)"/><ellipse vector-effect="non-scaling-stroke" cx="0" cy="0" rx="1" ry="1" transform="matrix(5.262,0,0,8.048,109.609,95.152)" id="ellipse880" fill="rgb(18,0,0)"/><ellipse vector-effect="non-scaling-stroke" cx="0" cy="0" rx="1" ry="1" transform="matrix(4.333,0,0,6.603,120.649,95.978)" id="ellipse884" fill="rgb(18,0,0)"/><path d=" M 115.461 104.635 C 112.269 104.658 109.667 105.098 106.918 106.122 C 104.701 106.947 102.487 108.149 100.928 109.929 C 100.584 110.321 100.268 111.35 100.268 111.35 C 100.268 111.35 100.065 112.061 100.166 112.568 C 100.268 113.076 100.166 113.533 100.42 113.939 C 100.674 114.345 112.451 127.392 112.451 127.392 C 112.451 127.392 113.213 128.61 114.583 128.458 C 115.954 128.305 116.411 128.153 116.817 127.899 C 117.223 127.646 127.122 117.696 127.122 117.696 L 130.624 113.228 C 130.624 113.228 130.878 112.162 130.777 111.198 C 130.675 110.233 129.102 108.66 129.102 108.66 C 129.102 108.66 127.579 107.644 127.173 107.492 C 126.767 107.34 120.726 104.751 116.868 104.649 C 116.385 104.638 115.917 104.63 115.461 104.638 L 115.461 104.635 Z  M 149.001 181.898 C 142.309 181.876 137.365 182.932 131.823 185.582 C 121.003 190.754 115.912 202.149 121.878 207.844 C 122.768 208.694 124.096 209.597 124.828 209.852 C 126.644 210.483 170.823 210.546 173.073 209.921 C 175.189 209.333 177.368 207.496 178.14 205.649 C 179.763 201.764 178.295 195.93 174.707 192.004 C 171.902 188.934 168.869 186.931 163.622 184.681 C 158.276 182.389 155.836 181.925 149.001 181.898 L 149.001 181.898 Z  M 80.28 182.039 C 74.149 182.02 70.873 182.759 65.915 185.04 C 56.647 189.305 52.315 194.269 51.921 201.08 C 51.647 205.812 53.143 208.361 57.002 209.737 C 58.362 210.222 63.349 210.348 81.562 210.355 C 102.799 210.367 104.542 210.307 106.209 209.55 C 108.457 208.529 110.282 206.397 110.668 204.338 C 111.214 201.427 110.607 197.339 109.262 194.868 C 106.688 190.139 100.704 185.817 93.543 183.515 C 90.329 182.482 88.784 182.272 83.096 182.092 C 82.09 182.062 81.156 182.042 80.28 182.039 L 80.28 182.039 Z " id="path2227" fill="rgb(255,207,0)"/></g><g id="pen"><path d=" M 191.074 97.739 L 199.541 71.015 L 186.334 66.39 C 186.334 66.39 186.435 66.697 185.782 67.819 C 185.13 68.941 173.256 94.969 173.256 94.969 L 176.836 102.757 L 183.136 104.319 L 190.197 101.966 L 191.074 97.739 Z " id="path3122-3" fill="rgb(173,173,173)"/><path d=" M 223.609 53.017 C 218.965 52.51 215.924 54.596 210.54 61.979 C 205.804 68.474 203.116 70.902 199.182 72.239 C 195.585 73.461 192.726 73.184 189.535 71.302 C 182.194 66.973 182.134 58.263 189.396 51.142 C 196.339 44.333 206.813 42.905 216.78 47.407 C 220.382 49.035 225.581 52.249 225.828 53.001 C 225.876 53.148 224.878 53.156 223.609 53.017 Z  M 192.325 103.079 C 192.64 106.738 192.068 113.411 191.234 115.812 C 190.871 116.858 190.621 117.856 190.679 118.031 C 190.736 118.206 190.324 119.64 189.763 121.218 C 189.202 122.795 188.404 125.143 187.99 126.435 C 187.052 129.359 174.601 153.205 169.85 161.175 C 168.435 163.548 155.924 187.141 150.665 197.352 C 144.534 209.254 143.038 211.237 140.22 211.186 C 138.118 211.148 136.235 209.376 135.94 207.16 C 135.821 206.261 136.159 203.883 136.691 201.875 C 138.658 194.448 145.858 165.406 148.182 155.52 C 149.502 149.906 150.955 143.777 151.412 141.9 C 152.774 136.296 154.849 126.838 154.77 126.596 C 154.656 126.248 156.902 118.91 157.998 116.051 C 157.998 116.051 158.71 113.505 161.512 107.908 C 163.462 104.84 165.216 101.729 167.123 99.451 C 167.627 98.77 170.948 93.983 172.556 93.088 C 173.037 92.82 173.326 92.607 173.596 92.337 C 175.684 91.449 173.358 93.292 173.998 94.088 C 175.533 97.189 179.326 99.201 182.367 100.115 C 185.13 100.884 186.158 100.919 188.025 100.306 C 189.846 99.707 190.487 99.242 190.799 98.211 C 191.183 96.939 191.394 97.3 191.586 98.627 C 191.86 99.536 192.193 101.539 192.325 103.079 Z " id="path3090-5" fill="rgb(107,107,107)"/><path d=" M 223.609 53.017 C 218.965 52.51 215.924 54.596 210.54 61.979 C 205.804 68.474 203.116 70.902 199.182 72.239 C 195.585 73.461 192.726 73.184 189.535 71.302 C 182.194 66.973 182.134 58.263 189.396 51.142 C 196.339 44.333 206.813 42.905 216.78 47.407 C 220.382 49.035 225.581 52.249 225.828 53.001 C 225.876 53.148 224.878 53.156 223.609 53.017 Z " id="path990" fill="rgb(222,44,44)"/></g></g></svg>