<?xml version="1.0" standalone="no"?><!-- Generator: Gravit.io --><svg xmlns="http://www.w3.org/2000/svg" xmlns:xlink="http://www.w3.org/1999/xlink" style="isolation:isolate" viewBox="0 0 256 256" width="256" height="256"><defs><filter id="XSlPtATjc0xWazzPO6Yijt13YgnjlFkZ" x="-7.324" y="2.947" width="270.648" height="254.338" filterUnits="userSpaceOnUse"><feGaussianBlur xmlns="http://www.w3.org/2000/svg" in="SourceGraphic" stdDeviation="4.293609062839028"/><feOffset xmlns="http://www.w3.org/2000/svg" dx="0" dy="4" result="pf_100_offsetBlur"/><feFlood xmlns="http://www.w3.org/2000/svg" flood-color="#000000" flood-opacity="0.4"/><feComposite xmlns="http://www.w3.org/2000/svg" in2="pf_100_offsetBlur" operator="in" result="pf_100_dropShadow"/><feBlend xmlns="http://www.w3.org/2000/svg" in="SourceGraphic" in2="pf_100_dropShadow" mode="normal"/></filter></defs><g filter="url(#XSlPtATjc0xWazzPO6Yijt13YgnjlFkZ)"><path d=" M 165.685 11.947 C 239.74 11.947 250.324 22.504 250.324 96.491 L 250.324 155.742 C 250.324 229.728 239.74 240.285 165.685 240.285 L 90.315 240.285 C 16.26 240.285 5.676 229.728 5.676 155.742 L 5.676 96.491 C 5.676 22.504 16.26 11.947 90.315 11.947 L 165.685 11.947 Z " id="shape" fill="rgb(20,99,165)"/></g><g opacity="0.1"><path d=" M 5.676 126.116 L 5.676 155.742 C 5.676 229.728 16.26 240.285 90.315 240.285 L 165.685 240.285 C 239.74 240.285 250.324 229.728 250.324 155.742 L 250.324 126.116 L 5.676 126.116 Z " id="bottom glass" fill="rgb(255,255,255)"/></g><g opacity="0.2"><path d=" M 128 11.947 L 128 240.285 L 165.685 240.285 C 239.74 240.285 250.324 229.728 250.324 155.742 L 250.324 96.491 C 250.324 22.504 239.74 11.947 165.685 11.947 L 128 11.947 Z " id="left glass" fill="rgb(255,255,255)"/></g><g id="fedora"><g opacity="0.3"><path d=" M 129.046 44.554 C 123.113 44.488 121.037 44.708 120.203 51.882 L 119.884 54.418 C 119.152 59.07 119.013 61.177 114.611 62.317 C 114.316 62.383 114.022 62.449 113.728 62.519 C 113.659 62.531 113.597 62.548 113.526 62.564 L 113.534 62.568 C 112.423 62.836 111.323 63.133 110.234 63.457 L 110.247 63.445 C 110.065 63.507 109.898 63.555 109.726 63.609 C 109.561 63.659 109.395 63.709 109.231 63.761 C 104.807 65.002 103.637 63.246 100.666 59.569 L 99.121 57.533 C 96.966 54.635 95.415 53.397 93.761 53.263 C 93.555 53.246 93.344 53.246 93.133 53.263 C 91.655 53.378 90.034 54.286 87.801 55.608 C 82.63 58.518 80.943 59.744 83.807 66.374 L 84.798 68.728 C 86.62 73.461 87.568 75.293 83.364 78.965 L 83.476 78.94 C 82.607 79.764 81.762 80.611 80.939 81.48 L 80.964 81.368 C 77.293 85.571 75.46 84.623 70.727 82.801 L 68.373 81.808 C 66.301 80.913 64.756 80.462 63.524 80.424 C 60.811 80.339 59.608 82.247 57.608 85.802 C 54.584 90.907 53.734 92.815 59.53 97.124 L 61.568 98.669 C 65.245 101.641 67.001 102.811 65.76 107.234 C 65.708 107.399 65.658 107.565 65.608 107.73 C 65.554 107.902 65.508 108.066 65.446 108.248 L 65.456 108.236 C 65.133 109.325 64.835 110.423 64.567 111.534 L 64.565 111.526 C 64.551 111.597 64.533 111.659 64.518 111.728 C 64.449 112.022 64.384 112.316 64.318 112.611 C 63.178 117.014 61.07 117.154 56.417 117.887 L 53.881 118.205 C 46.708 119.039 46.487 121.113 46.553 127.046 C 46.487 132.979 46.708 135.055 53.881 135.89 L 56.417 136.208 C 61.07 136.94 63.178 137.081 64.318 141.483 C 64.384 141.778 64.449 142.073 64.518 142.366 C 64.533 142.435 64.551 142.495 64.565 142.566 L 64.567 142.558 C 64.835 143.67 65.133 144.769 65.456 145.859 L 65.444 145.846 C 65.506 146.028 65.554 146.195 65.608 146.367 C 65.659 146.532 65.706 146.696 65.758 146.86 C 66.999 151.284 65.245 152.456 61.568 155.427 L 59.532 156.97 C 53.736 161.28 54.584 163.185 57.608 168.29 C 60.517 173.461 61.743 175.148 68.373 172.284 L 70.73 171.293 C 75.462 169.471 77.293 168.523 80.964 172.726 L 80.939 172.615 C 81.762 173.483 82.61 174.329 83.478 175.152 L 83.367 175.128 C 87.57 178.799 86.622 180.629 84.8 185.362 L 83.807 187.716 C 80.943 194.346 82.63 195.575 87.801 198.484 C 92.906 201.508 94.813 202.355 99.123 196.56 L 100.668 194.524 C 103.64 190.847 104.809 189.091 109.233 190.332 C 109.397 190.383 109.561 190.431 109.726 190.481 C 109.898 190.535 110.065 190.586 110.247 190.648 L 110.236 190.636 C 111.325 190.959 112.425 191.257 113.537 191.525 L 113.526 191.527 C 113.597 191.539 113.659 191.556 113.728 191.574 C 114.022 191.643 114.316 191.708 114.611 191.774 C 119.013 192.914 119.154 195.023 119.887 199.675 L 120.205 202.211 C 121.039 209.385 123.113 209.605 129.046 209.539 C 134.979 209.605 137.055 209.385 137.89 202.211 L 138.208 199.675 C 138.94 195.023 139.081 192.914 143.483 191.774 C 143.778 191.708 144.071 191.643 144.364 191.574 C 144.433 191.561 144.495 191.545 144.566 191.527 L 144.558 191.525 C 145.669 191.257 146.769 190.959 147.858 190.636 L 147.848 190.648 C 148.03 190.586 148.194 190.535 148.366 190.481 C 148.531 190.431 148.697 190.384 148.862 190.332 C 153.285 189.091 154.455 190.847 157.427 194.524 L 158.972 196.56 C 163.281 202.355 165.186 201.505 170.291 198.482 C 175.462 195.573 177.15 194.346 174.285 187.716 L 173.295 185.362 C 171.473 180.629 170.525 178.799 174.728 175.128 L 174.616 175.152 C 175.485 174.329 176.33 173.481 177.154 172.613 L 177.13 172.724 C 180.802 168.521 182.632 169.469 187.365 171.291 L 189.719 172.284 C 196.349 175.148 197.575 173.461 200.485 168.29 C 203.508 163.185 204.358 161.278 198.562 156.968 L 196.527 155.423 C 192.849 152.451 191.094 151.279 192.335 146.856 C 192.386 146.691 192.434 146.528 192.484 146.363 C 192.538 146.191 192.587 146.024 192.649 145.842 L 192.636 145.854 C 192.96 144.765 193.257 143.665 193.525 142.554 L 193.527 142.562 C 193.542 142.491 193.559 142.431 193.574 142.362 C 193.644 142.068 193.71 141.774 193.776 141.479 C 194.916 137.077 197.023 136.936 201.675 136.203 L 204.211 135.885 C 211.385 135.051 211.605 132.977 211.539 127.044 C 211.605 121.111 211.385 119.035 204.211 118.201 L 201.675 117.882 C 197.023 117.15 194.916 117.009 193.776 112.607 C 193.71 112.312 193.644 112.018 193.574 111.724 C 193.559 111.655 193.542 111.595 193.527 111.524 L 193.525 111.532 C 193.257 110.421 192.96 109.321 192.636 108.231 L 192.651 108.244 C 192.588 108.062 192.538 107.895 192.484 107.723 C 192.434 107.558 192.386 107.395 192.334 107.23 C 191.094 102.806 192.849 101.635 196.526 98.663 L 198.562 97.118 C 204.358 92.808 203.508 90.903 200.484 85.798 C 198.484 82.243 197.281 80.335 194.568 80.419 C 193.336 80.456 191.791 80.909 189.719 81.804 L 187.365 82.795 C 182.632 84.617 180.801 85.565 177.13 81.361 L 177.156 81.473 C 176.332 80.604 175.485 79.759 174.616 78.936 L 174.728 78.96 C 170.525 75.289 171.473 73.458 173.295 68.726 L 174.287 66.372 C 177.151 59.742 175.464 58.516 170.293 55.606 C 167.741 54.094 165.987 53.124 164.333 53.258 C 162.68 53.392 161.126 54.63 158.971 57.528 L 157.427 59.564 C 154.455 63.241 153.285 64.997 148.861 63.756 C 148.697 63.704 148.531 63.657 148.366 63.606 C 148.194 63.553 148.03 63.504 147.848 63.442 L 147.858 63.454 C 146.769 63.131 145.669 62.833 144.558 62.565 L 144.566 62.563 C 144.495 62.55 144.433 62.534 144.364 62.518 C 144.07 62.448 143.776 62.382 143.481 62.316 C 139.079 61.176 138.94 59.07 138.208 54.417 L 137.889 51.881 C 137.055 44.708 134.979 44.488 129.046 44.554 L 129.046 44.554 Z  M 157.802 70.912 C 158.908 70.938 159.989 71.241 160.947 71.795 C 164.103 73.618 165.183 77.655 163.36 80.811 C 161.537 83.966 157.502 85.048 154.346 83.226 C 151.19 81.403 150.109 77.368 151.93 74.212 C 153.053 72.266 155.09 71.024 157.334 70.918 C 157.49 70.91 157.646 70.907 157.802 70.91 L 157.802 70.912 Z  M 129.033 78.648 L 129.046 78.648 C 130.439 78.649 131.821 78.708 133.188 78.825 C 134.554 78.943 135.907 79.12 137.243 79.35 C 139.914 79.811 142.518 80.493 145.034 81.376 C 146.01 84.567 148.157 87.27 151.045 88.942 C 153.931 90.601 157.338 91.108 160.582 90.362 C 161.077 90.788 161.565 91.224 162.042 91.669 C 162.52 92.114 162.988 92.57 163.448 93.035 C 166.667 96.286 169.439 99.999 171.647 104.085 C 172.277 105.252 172.862 106.45 173.398 107.676 C 173.666 108.289 173.922 108.908 174.165 109.535 C 174.409 110.163 174.64 110.795 174.859 111.436 C 175.077 112.076 175.282 112.722 175.474 113.375 C 175.526 113.552 175.569 113.734 175.62 113.913 C 175.939 115.047 176.226 116.197 176.465 117.367 C 176.499 117.537 176.526 117.706 176.541 117.875 C 176.555 118.043 176.56 118.211 176.555 118.376 C 176.537 119.038 176.369 119.67 176.081 120.235 C 175.937 120.518 175.762 120.785 175.563 121.03 C 175.363 121.274 175.136 121.498 174.888 121.696 C 174.516 121.991 174.094 122.23 173.634 122.393 C 173.35 122.495 173.05 122.563 172.74 122.604 C 172.548 122.629 172.355 122.646 172.155 122.646 L 158.537 122.646 C 158.051 122.646 157.579 122.568 157.136 122.419 C 156.914 122.344 156.699 122.253 156.493 122.145 C 156.288 122.037 156.093 121.912 155.907 121.774 C 155.722 121.636 155.548 121.485 155.387 121.319 C 155.225 121.153 155.075 120.972 154.94 120.781 C 154.67 120.399 154.459 119.97 154.32 119.504 C 154.112 118.804 153.875 118.118 153.614 117.447 C 152.933 115.697 152.062 114.062 151.056 112.532 C 150.904 112.302 150.765 112.061 150.607 111.837 C 150.204 111.264 149.779 110.71 149.334 110.174 C 148.888 109.637 148.423 109.12 147.938 108.623 C 147.454 108.125 146.952 107.648 146.432 107.191 C 145.389 106.278 144.276 105.448 143.104 104.709 C 142.518 104.339 141.918 103.993 141.304 103.67 C 138.231 102.056 134.816 101.038 131.23 100.74 C 131.229 100.74 131.228 100.74 131.227 100.74 C 130.51 100.681 129.787 100.65 129.057 100.65 C 128.031 100.658 127.007 100.72 125.99 100.843 C 124.973 100.967 123.963 101.151 122.966 101.393 C 121.542 101.739 120.076 101.349 119.02 100.42 C 118.668 100.11 118.362 99.74 118.118 99.317 L 111.319 87.547 C 111.145 87.246 111.013 86.933 110.917 86.617 C 110.437 85.036 110.899 83.333 112.044 82.206 C 112.273 81.981 112.53 81.779 112.811 81.605 C 113.093 81.432 113.399 81.286 113.728 81.175 C 114.345 80.968 114.966 80.774 115.589 80.592 C 116.836 80.227 118.096 79.912 119.366 79.649 C 120 79.518 120.638 79.401 121.277 79.296 C 121.278 79.295 121.279 79.296 121.28 79.296 C 122.558 79.084 123.846 78.923 125.139 78.815 C 125.785 78.761 126.435 78.721 127.084 78.693 C 127.733 78.664 128.383 78.65 129.033 78.648 L 129.033 78.648 Z  M 100.096 89.753 C 100.658 89.778 101.199 89.913 101.696 90.137 C 101.697 90.137 101.697 90.137 101.698 90.137 C 102.029 90.286 102.341 90.476 102.626 90.702 C 102.768 90.815 102.904 90.938 103.032 91.069 C 103.16 91.199 103.281 91.337 103.393 91.484 C 103.393 91.484 103.392 91.485 103.393 91.486 C 103.504 91.633 103.607 91.787 103.7 91.95 L 110.5 103.72 C 110.621 103.931 110.723 104.147 110.807 104.37 C 110.831 104.434 110.843 104.501 110.864 104.566 C 110.98 104.924 111.053 105.291 111.075 105.66 C 111.077 105.688 111.085 105.714 111.085 105.742 C 111.085 105.743 111.085 105.743 111.085 105.744 C 111.094 105.975 111.085 106.206 111.058 106.435 C 111.058 106.436 111.058 106.436 111.058 106.437 C 111.031 106.667 110.986 106.894 110.923 107.116 C 110.86 107.34 110.78 107.559 110.681 107.772 C 110.583 107.984 110.466 108.188 110.333 108.385 C 110.2 108.582 110.05 108.77 109.882 108.948 C 109.592 109.253 109.31 109.566 109.037 109.883 C 108.327 110.709 107.678 111.577 107.079 112.476 C 106.986 112.615 106.888 112.751 106.799 112.891 C 106.798 112.891 106.799 112.893 106.799 112.893 C 106.575 113.243 106.36 113.596 106.154 113.955 C 106.153 113.956 106.154 113.956 106.154 113.957 C 105.948 114.316 105.748 114.679 105.559 115.047 C 105.559 115.048 105.56 115.048 105.559 115.049 C 105.371 115.417 105.191 115.788 105.02 116.164 C 105.02 116.165 105.02 116.165 105.02 116.166 C 104.969 116.279 104.924 116.395 104.874 116.508 C 104.637 117.049 104.417 117.598 104.217 118.154 C 104.179 118.259 104.136 118.362 104.099 118.468 C 103.422 120.423 102.974 122.458 102.771 124.537 C 102.69 125.369 102.648 126.208 102.647 127.05 C 102.649 129.156 102.903 131.237 103.393 133.252 C 103.589 134.058 103.822 134.854 104.093 135.636 C 104.768 137.592 105.671 139.467 106.788 141.219 C 107.235 141.92 107.718 142.6 108.232 143.259 C 108.746 143.918 109.292 144.554 109.872 145.167 C 110.039 145.343 110.189 145.53 110.323 145.727 C 110.323 145.728 110.322 145.729 110.323 145.729 C 110.987 146.712 111.221 147.916 110.991 149.061 C 110.991 149.062 110.991 149.063 110.991 149.064 C 110.945 149.292 110.88 149.519 110.797 149.74 C 110.797 149.741 110.797 149.741 110.797 149.742 C 110.713 149.964 110.61 150.181 110.489 150.391 L 103.711 162.135 C 103.363 162.737 102.899 163.223 102.366 163.583 C 102.1 163.763 101.814 163.911 101.519 164.028 C 101.225 164.143 100.918 164.228 100.607 164.278 C 99.983 164.38 99.338 164.349 98.718 164.177 C 98.099 164.005 97.505 163.692 96.984 163.231 C 91.925 158.757 87.925 153.328 85.15 147.333 C 84.595 146.134 84.088 144.913 83.632 143.672 C 82.949 141.811 82.379 139.906 81.927 137.967 C 81.776 137.321 81.64 136.671 81.516 136.018 C 81.515 136.018 81.515 136.018 81.514 136.018 C 83.78 133.58 85.042 130.376 85.046 127.048 C 85.04 123.721 83.778 120.518 81.512 118.082 C 81.513 118.082 81.513 118.082 81.514 118.082 C 81.886 116.122 82.376 114.192 82.983 112.301 C 83.185 111.671 83.4 111.044 83.628 110.423 C 84.083 109.182 84.589 107.96 85.143 106.76 C 85.421 106.16 85.71 105.567 86.012 104.979 C 86.615 103.803 87.267 102.65 87.965 101.525 C 89.014 99.838 90.168 98.213 91.424 96.659 C 91.842 96.141 92.271 95.632 92.712 95.131 C 93.593 94.128 94.52 93.159 95.489 92.226 C 95.974 91.76 96.469 91.302 96.975 90.854 C 97.833 90.095 98.953 89.701 100.097 89.754 L 100.096 89.753 Z  M 71.846 120.446 C 73.597 120.446 75.276 121.141 76.514 122.379 C 77.752 123.617 78.448 125.296 78.447 127.047 C 78.447 128.797 77.751 130.476 76.513 131.714 C 75.276 132.951 73.597 133.646 71.846 133.646 C 68.202 133.645 65.248 130.691 65.247 127.047 C 65.247 123.402 68.201 120.447 71.846 120.446 L 71.846 120.446 Z  M 158.548 131.448 L 172.108 131.448 C 172.63 131.448 173.128 131.537 173.588 131.7 C 175.581 132.41 176.873 134.511 176.42 136.727 C 176.006 138.756 175.468 140.734 174.814 142.654 C 174.379 143.933 173.892 145.186 173.356 146.411 C 172.552 148.25 171.64 150.025 170.627 151.729 C 170.289 152.297 169.939 152.857 169.579 153.409 C 168.14 155.618 166.529 157.696 164.765 159.628 C 164.325 160.111 163.874 160.584 163.415 161.048 C 162.955 161.513 162.486 161.969 162.009 162.414 C 161.531 162.86 161.045 163.295 160.55 163.721 C 159.496 163.478 158.416 163.365 157.334 163.386 C 155.123 163.438 152.961 164.044 151.045 165.15 C 148.166 166.819 146.023 169.515 145.047 172.697 C 144.418 172.919 143.784 173.129 143.144 173.325 C 141.864 173.717 140.564 174.058 139.245 174.345 C 137.926 174.632 136.587 174.864 135.234 175.041 C 133.881 175.217 132.514 175.338 131.133 175.399 C 130.442 175.428 129.747 175.445 129.05 175.446 L 129.029 175.446 C 128.379 175.443 127.728 175.429 127.08 175.399 C 125.782 175.342 124.488 175.232 123.202 175.07 C 121.272 174.829 119.359 174.47 117.471 173.998 C 116.212 173.682 114.965 173.316 113.732 172.9 C 113.403 172.788 113.097 172.644 112.816 172.47 C 112.535 172.296 112.279 172.094 112.05 171.869 C 111.594 171.419 111.247 170.875 111.024 170.286 C 110.801 169.696 110.703 169.057 110.748 168.417 C 110.759 168.256 110.779 168.097 110.809 167.936 C 110.838 167.776 110.877 167.618 110.925 167.46 C 111.021 167.144 111.154 166.833 111.327 166.533 L 118.114 154.777 C 118.236 154.565 118.374 154.366 118.525 154.182 C 118.676 153.998 118.842 153.829 119.018 153.674 C 120.074 152.745 121.541 152.355 122.963 152.701 C 123.961 152.943 124.972 153.127 125.99 153.251 C 127.008 153.375 128.032 153.439 129.059 153.444 C 130.519 153.443 131.957 153.322 133.362 153.09 C 134.608 152.884 135.822 152.576 137.008 152.201 C 141.173 150.883 144.932 148.571 147.949 145.473 C 148.918 144.479 149.811 143.403 150.617 142.257 C 151.424 141.111 152.142 139.895 152.765 138.613 C 153.076 137.973 153.363 137.318 153.625 136.647 C 153.886 135.976 154.122 135.29 154.331 134.59 C 154.817 132.958 156.192 131.775 157.831 131.504 C 158.066 131.468 158.305 131.448 158.548 131.448 L 158.548 131.448 Z  M 157.49 169.985 C 159.902 169.929 162.153 171.193 163.36 173.283 C 165.182 176.439 164.101 180.474 160.947 182.297 C 159.431 183.173 157.629 183.41 155.938 182.957 C 154.247 182.504 152.806 181.398 151.93 179.882 C 150.109 176.726 151.19 172.69 154.346 170.868 C 155.303 170.315 156.384 170.011 157.49 169.985 L 157.49 169.985 Z " id="gear" fill="rgb(17,17,17)"/></g><g id="fedora logo"><path d=" M 155.604 63.435 C 135.741 63.435 119.641 79.536 119.641 99.398 C 119.641 99.405 119.641 99.415 119.641 99.423 L 119.641 118.458 L 100.665 118.458 C 100.663 118.458 100.663 118.458 100.66 118.458 C 80.798 118.458 64.698 134.48 64.698 154.341 C 64.698 174.205 80.799 190.306 100.66 190.306 C 120.52 190.306 136.621 174.205 136.621 154.341 C 136.621 154.334 136.621 154.327 136.621 154.317 L 136.621 135.203 L 155.596 135.203 C 155.601 135.203 155.603 135.203 155.603 135.203 C 175.462 135.203 191.563 119.259 191.563 99.398 C 191.563 79.536 175.462 63.435 155.603 63.435 L 155.604 63.435 Z  M 119.641 154.375 C 119.627 164.841 111.132 173.325 100.66 173.325 C 90.178 173.325 81.602 164.827 81.602 154.344 C 81.602 143.858 90.178 135.203 100.66 135.203 C 100.669 135.203 100.677 135.203 100.685 135.203 L 116.949 135.203 C 116.954 135.203 116.958 135.203 116.961 135.203 C 118.442 135.203 119.643 136.401 119.643 137.879 C 119.643 137.881 119.641 137.881 119.641 137.886 L 119.641 154.376 L 119.64 154.376 L 119.641 154.375 Z  M 155.602 118.458 C 155.595 118.458 155.59 118.458 155.583 118.458 L 139.308 118.458 C 139.303 118.458 139.301 118.458 139.299 118.458 C 137.818 118.458 136.62 117.26 136.62 115.778 L 136.62 115.777 L 136.62 99.367 C 136.639 88.896 145.129 80.415 155.601 80.415 C 166.084 80.415 174.662 88.914 174.662 99.398 C 174.662 109.881 166.084 118.458 155.601 118.458 L 155.602 118.458 Z " id="f-script-path" fill="rgb(55,166,230)"/><path d=" M 119.641 118.458 L 119.641 99.423 C 119.641 99.413 119.641 99.404 119.641 99.398 C 119.641 79.536 135.741 63.435 155.604 63.435 C 158.617 63.435 160.758 63.774 163.547 64.504 C 167.614 65.571 170.936 68.903 170.937 72.781 C 170.939 77.47 167.536 80.879 162.449 80.879 C 160.026 80.879 159.15 80.415 155.602 80.415 C 145.13 80.415 136.639 88.896 136.621 99.368 L 136.621 115.777 L 136.621 115.777 C 136.621 117.259 137.819 118.457 139.299 118.457 C 139.301 118.457 139.306 118.457 139.308 118.457 L 151.772 118.457 C 156.417 118.457 160.168 122.176 160.172 126.833 C 160.172 131.492 156.416 135.203 151.772 135.203 L 136.62 135.203 L 136.62 154.316 C 136.62 154.328 136.62 154.335 136.62 154.345 C 136.62 174.205 120.519 190.305 100.66 190.305 C 97.646 190.305 95.505 189.966 92.716 189.235 C 88.649 188.169 85.326 184.836 85.324 180.958 C 85.324 176.27 88.725 172.861 93.814 172.861 C 96.235 172.861 97.113 173.325 100.66 173.325 C 111.132 173.325 119.625 164.843 119.642 154.376 C 119.642 154.376 119.642 137.883 119.642 137.88 C 119.642 136.401 118.441 135.203 116.96 135.203 C 116.958 135.203 116.955 135.203 116.953 135.203 L 104.49 135.203 C 99.844 135.203 96.09 131.497 96.09 126.836 C 96.089 122.15 99.883 118.458 104.578 118.458 L 119.64 118.458 L 119.64 118.458 L 119.641 118.458 Z " id="blue-inifity-connectors" fill="rgb(255,255,255)"/></g></g><g opacity="0.4"><linearGradient id="_lgradient_231" x1="0.5166666666666668" y1="0" x2="0.5166666666666666" y2="1.0000000000000002"><stop offset="0%" stop-opacity="1" style="stop-color:rgb(255,255,255)"/><stop offset="12.5%" stop-opacity="0.09803922" style="stop-color:rgb(255,255,255)"/><stop offset="92.500001%" stop-opacity="0.09803922" style="stop-color:rgb(0,0,0)"/><stop offset="100%" stop-opacity="0.49803922" style="stop-color:rgb(0,0,0)"/></linearGradient><path d=" M 165.685 11.947 C 239.74 11.947 250.324 22.504 250.324 96.491 L 250.324 155.742 C 250.324 229.728 239.74 240.285 165.685 240.285 L 90.315 240.285 C 16.26 240.285 5.676 229.728 5.676 155.742 L 5.676 96.491 C 5.676 22.504 16.26 11.947 90.315 11.947 L 165.685 11.947 Z " id="highlight" fill="none" vector-effect="non-scaling-stroke" stroke-width="4.077" stroke="url(#_lgradient_231)" stroke-linejoin="round" stroke-linecap="round" stroke-miterlimit="4"/></g></svg>