<svg xmlns="http://www.w3.org/2000/svg" style="isolation:isolate" width="256" height="256"><defs><clipPath id="a"><path d="M0 0h256v256H0z"/></clipPath></defs><switch><g clip-path="url(#a)"><defs><filter id="b" width="270.648" height="254.338" x="-7.32" y="2.95" filterUnits="userSpaceOnUse"><feGaussianBlur xmlns="http://www.w3.org/2000/svg" in="SourceGraphic" stdDeviation="4.294"/><feOffset xmlns="http://www.w3.org/2000/svg" dy="4" result="pf_100_offsetBlur"/><feFlood xmlns="http://www.w3.org/2000/svg" flood-opacity=".4"/><feComposite xmlns="http://www.w3.org/2000/svg" in2="pf_100_offsetBlur" operator="in" result="pf_100_dropShadow"/><feBlend xmlns="http://www.w3.org/2000/svg" in="SourceGraphic" in2="pf_100_dropShadow"/></filter></defs><g filter="url(#b)"><linearGradient id="c" x1=".233" x2=".933" y1="-.071" y2=".995" gradientTransform="matrix(244.648 0 0 228.338 5.676 11.947)" gradientUnits="userSpaceOnUse"><stop offset="0%" stop-color="#e8e8e8"/><stop offset="100%" stop-color="#f5f5f5"/></linearGradient><path fill="url(#c)" d="M165.685 11.947c74.055 0 84.639 10.557 84.639 84.544v59.251c0 73.986-10.584 84.543-84.639 84.543h-75.37c-74.055 0-84.639-10.557-84.639-84.543V96.491c0-73.987 10.584-84.544 84.639-84.544h75.37z"/></g><g opacity=".4"><linearGradient id="d" x1=".517" x2=".517" y2="1"><stop offset="0%" stop-color="#fff"/><stop offset="12.5%" stop-opacity=".098" stop-color="#fff"/><stop offset="92.5%" stop-opacity=".098"/><stop offset="100%" stop-opacity=".498"/></linearGradient><path fill="none" stroke="url(#d)" stroke-linecap="round" stroke-linejoin="round" stroke-width="4.077" d="M165.685 11.947c74.055 0 84.639 10.557 84.639 84.544v59.251c0 73.986-10.584 84.543-84.639 84.543h-75.37c-74.055 0-84.639-10.557-84.639-84.543V96.491c0-73.987 10.584-84.544 84.639-84.544h75.37z" vector-effect="non-scaling-stroke"/></g><linearGradient id="e" x1=".5" x2=".5" y1="-.036" y2="1.036" gradientTransform="matrix(150 0 0 150 53 53)" gradientUnits="userSpaceOnUse"><stop offset="0%" stop-color="#da1636"/><stop offset="100%" stop-color="#f22c42"/></linearGradient><path fill="url(#e)" d="M63.714 53a10.66 10.66 0 0 0-10.658 9.822c4.409.031 7.98 3.619 7.98 8.036 0 4.436-3.6 8.035-8.036 8.035v12.501a8.037 8.037 0 0 1 8.036 8.034c0 4.436-3.6 8.036-8.036 8.036v12.501A8.038 8.038 0 0 1 61.036 128c0 4.436-3.6 8.036-8.036 8.036v12.5c4.436 0 8.036 3.6 8.036 8.036s-3.6 8.036-8.036 8.036v12.499a8.04 8.04 0 0 1 8.036 8.037c0 4.416-3.571 8.004-7.98 8.034A10.66 10.66 0 0 0 63.714 203c0-4.436 3.6-8.036 8.036-8.036s8.036 3.6 8.036 8.036h12.5c0-4.436 3.6-8.036 8.036-8.036s8.034 3.6 8.034 8.036h12.501a8.038 8.038 0 0 1 8.035-8.036c4.436 0 8.036 3.6 8.036 8.036h12.5c0-4.436 3.6-8.036 8.036-8.036s8.036 3.6 8.036 8.036H178c0-4.436 3.6-8.036 8.036-8.036 4.379 0 7.945 3.512 8.036 7.869a10.623 10.623 0 0 0 8.872-9.655c-4.409-.031-7.98-3.618-7.98-8.034a8.04 8.04 0 0 1 8.036-8.037v-12.499a8.039 8.039 0 0 1-8.036-8.036c0-4.436 3.6-8.036 8.036-8.036v-12.5a8.039 8.039 0 0 1-8.036-8.036c0-4.436 3.6-8.035 8.036-8.035v-12.501a8.039 8.039 0 0 1-8.036-8.036c0-4.436 3.6-8.034 8.036-8.034V78.893a8.038 8.038 0 0 1-8.036-8.035 8.04 8.04 0 0 1 7.98-8.036 10.623 10.623 0 0 0-8.872-9.655c-.091 4.357-3.657 7.869-8.036 7.869A8.039 8.039 0 0 1 178 53h-12.5c0 4.436-3.6 8.036-8.036 8.036A8.039 8.039 0 0 1 149.428 53h-12.5c0 4.436-3.6 8.036-8.036 8.036A8.038 8.038 0 0 1 120.857 53h-12.501a8.037 8.037 0 0 1-8.034 8.036A8.039 8.039 0 0 1 92.286 53h-12.5c0 4.436-3.6 8.036-8.036 8.036A8.039 8.039 0 0 1 63.714 53zM99.14 80.256h61.106l-3.113 14.804h-45.388l-4.458 17.767h69.249l-3.587 14.804-33.06 27.731c11.547.404 16.677 10.6 32.89-.828l2.95 14.984c-14.856 8.489-22.017 6.245-29.634 4.15-7.829-2.153-12.157-5.228-22.476.032l-5.457 2.786-10.654-12.161 40.868-36.265h-43.639l-9.287 38.72H79.464L99.14 80.256z"/></g></switch> </svg>