<?xml version="1.0" encoding="UTF-8" standalone="no"?>
<!-- Created with Inkscape (http://www.inkscape.org/) -->

<svg
   xmlns:dc="http://purl.org/dc/elements/1.1/"
   xmlns:cc="http://creativecommons.org/ns#"
   xmlns:rdf="http://www.w3.org/1999/02/22-rdf-syntax-ns#"
   xmlns:svg="http://www.w3.org/2000/svg"
   xmlns="http://www.w3.org/2000/svg"
   xmlns:xlink="http://www.w3.org/1999/xlink"
   xmlns:sodipodi="http://sodipodi.sourceforge.net/DTD/sodipodi-0.dtd"
   xmlns:inkscape="http://www.inkscape.org/namespaces/inkscape"
   width="256"
   height="256"
   viewBox="0 0 67.733332 67.733335"
   version="1.1"
   id="svg1488"
   inkscape:version="0.92.3 (2405546, 2018-03-11)"
   sodipodi:docname="firestorm_48.svg">
  <defs
     id="defs1482">
    <clipPath
       clipPathUnits="userSpaceOnUse"
       id="clipPath1025">
      <path
         id="path1027"
         d="M 111.94141,84 C 99.359506,84.145 90.1531,83.713998 82.625,87.867188 c -3.7641,2.0768 -6.751838,5.574737 -8.398438,9.960937 C 72.580062,102.21433 72,107.4241 72,114 v 42 h 160 v -26 c 0,-6.5759 -0.57996,-11.78566 -2.22656,-16.17188 -0.205,-0.5455 -0.47919,-1.03993 -0.74219,-1.54296 -0.1,-0.1848 -0.17844,-0.38051 -0.27344,-0.56641 -1.727,-3.38752 -4.25471,-6.14522 -7.38281,-7.87109 C 213.8463,99.694146 204.64049,100.1454 192.05859,100 H 192 151.66797 L 135.45312,84 h -23.49218 z"
         style="color:#000000;font-style:normal;font-variant:normal;font-weight:normal;font-stretch:normal;font-size:medium;line-height:normal;font-family:sans-serif;font-variant-ligatures:none;font-variant-position:normal;font-variant-caps:normal;font-variant-numeric:normal;font-variant-alternates:normal;font-feature-settings:normal;text-indent:0;text-align:start;text-decoration:none;text-decoration-line:none;text-decoration-style:solid;text-decoration-color:#000000;letter-spacing:normal;word-spacing:normal;text-transform:none;writing-mode:lr-tb;direction:ltr;baseline-shift:baseline;text-anchor:start;white-space:normal;shape-padding:0;clip-rule:nonzero;display:inline;overflow:visible;visibility:visible;opacity:1;isolation:auto;mix-blend-mode:normal;color-interpolation:sRGB;color-interpolation-filters:linearRGB;solid-color:#000000;solid-opacity:1;fill:#e3dfd5;fill-opacity:1;fill-rule:nonzero;stroke:none;stroke-width:4.00000048;stroke-linecap:butt;stroke-linejoin:miter;stroke-miterlimit:4;stroke-dasharray:none;stroke-dashoffset:0;stroke-opacity:1;marker:none;color-rendering:auto;image-rendering:auto;shape-rendering:auto;text-rendering:auto;enable-background:accumulate"
         inkscape:connector-curvature="0" />
    </clipPath>
    <clipPath
       clipPathUnits="userSpaceOnUse"
       id="clipPath1082-3">
      <path
         sodipodi:nodetypes="sssssssss"
         inkscape:connector-curvature="0"
         id="path1084-6"
         d="M 361.9375,-212 C 507.2348,-212 528,-191.28677 528,-46.125 V 70.125 C 528,215.28618 507.2348,236 361.9375,236 H 214.0625 C 68.7652,236 48,215.28618 48,70.125 V -46.125 C 48,-191.28677 68.7652,-212 214.0625,-212 Z"
         style="display:inline;opacity:1;fill:#8c59d9;fill-opacity:1;stroke:none;stroke-width:2;stroke-linecap:round;stroke-linejoin:round;stroke-miterlimit:4;stroke-dasharray:none;stroke-dashoffset:0;stroke-opacity:1;enable-background:new" />
    </clipPath>
    <clipPath
       clipPathUnits="userSpaceOnUse"
       id="clipPath1082-3-5">
      <path
         sodipodi:nodetypes="sssssssss"
         inkscape:connector-curvature="0"
         id="path1084-6-6"
         d="M 361.9375,-212 C 507.2348,-212 528,-191.28677 528,-46.125 V 70.125 C 528,215.28618 507.2348,236 361.9375,236 H 214.0625 C 68.7652,236 48,215.28618 48,70.125 V -46.125 C 48,-191.28677 68.7652,-212 214.0625,-212 Z"
         style="display:inline;opacity:1;fill:#8c59d9;fill-opacity:1;stroke:none;stroke-width:2;stroke-linecap:round;stroke-linejoin:round;stroke-miterlimit:4;stroke-dasharray:none;stroke-dashoffset:0;stroke-opacity:1;enable-background:new" />
    </clipPath>
    <clipPath
       clipPathUnits="userSpaceOnUse"
       id="clipPath1082-3-9">
      <path
         sodipodi:nodetypes="sssssssss"
         inkscape:connector-curvature="0"
         id="path1084-6-3"
         d="M 361.9375,-212 C 507.2348,-212 528,-191.28677 528,-46.125 V 70.125 C 528,215.28618 507.2348,236 361.9375,236 H 214.0625 C 68.7652,236 48,215.28618 48,70.125 V -46.125 C 48,-191.28677 68.7652,-212 214.0625,-212 Z"
         style="display:inline;opacity:1;fill:#8c59d9;fill-opacity:1;stroke:none;stroke-width:2;stroke-linecap:round;stroke-linejoin:round;stroke-miterlimit:4;stroke-dasharray:none;stroke-dashoffset:0;stroke-opacity:1;enable-background:new" />
    </clipPath>
    <clipPath
       clipPathUnits="userSpaceOnUse"
       id="clipPath1082-3-3">
      <path
         sodipodi:nodetypes="sssssssss"
         inkscape:connector-curvature="0"
         id="path1084-6-67"
         d="M 361.9375,-212 C 507.2348,-212 528,-191.28677 528,-46.125 V 70.125 C 528,215.28618 507.2348,236 361.9375,236 H 214.0625 C 68.7652,236 48,215.28618 48,70.125 V -46.125 C 48,-191.28677 68.7652,-212 214.0625,-212 Z"
         style="display:inline;opacity:1;fill:#8c59d9;fill-opacity:1;stroke:none;stroke-width:2;stroke-linecap:round;stroke-linejoin:round;stroke-miterlimit:4;stroke-dasharray:none;stroke-dashoffset:0;stroke-opacity:1;enable-background:new" />
    </clipPath>
    <clipPath
       clipPathUnits="userSpaceOnUse"
       id="clipPath1082-3-53">
      <path
         sodipodi:nodetypes="sssssssss"
         inkscape:connector-curvature="0"
         id="path1084-6-5"
         d="M 361.9375,-212 C 507.2348,-212 528,-191.28677 528,-46.125 V 70.125 C 528,215.28618 507.2348,236 361.9375,236 H 214.0625 C 68.7652,236 48,215.28618 48,70.125 V -46.125 C 48,-191.28677 68.7652,-212 214.0625,-212 Z"
         style="display:inline;opacity:1;fill:#8c59d9;fill-opacity:1;stroke:none;stroke-width:2;stroke-linecap:round;stroke-linejoin:round;stroke-miterlimit:4;stroke-dasharray:none;stroke-dashoffset:0;stroke-opacity:1;enable-background:new" />
    </clipPath>
    <clipPath
       clipPathUnits="userSpaceOnUse"
       id="clipPath1082-3-6">
      <path
         sodipodi:nodetypes="sssssssss"
         inkscape:connector-curvature="0"
         id="path1084-6-2"
         d="M 361.9375,-212 C 507.2348,-212 528,-191.28677 528,-46.125 V 70.125 C 528,215.28618 507.2348,236 361.9375,236 H 214.0625 C 68.7652,236 48,215.28618 48,70.125 V -46.125 C 48,-191.28677 68.7652,-212 214.0625,-212 Z"
         style="display:inline;opacity:1;fill:#8c59d9;fill-opacity:1;stroke:none;stroke-width:2;stroke-linecap:round;stroke-linejoin:round;stroke-miterlimit:4;stroke-dasharray:none;stroke-dashoffset:0;stroke-opacity:1;enable-background:new" />
    </clipPath>
    <clipPath
       clipPathUnits="userSpaceOnUse"
       id="clipPath1082-3-91">
      <path
         sodipodi:nodetypes="sssssssss"
         inkscape:connector-curvature="0"
         id="path1084-6-27"
         d="M 361.9375,-212 C 507.2348,-212 528,-191.28677 528,-46.125 V 70.125 C 528,215.28618 507.2348,236 361.9375,236 H 214.0625 C 68.7652,236 48,215.28618 48,70.125 V -46.125 C 48,-191.28677 68.7652,-212 214.0625,-212 Z"
         style="display:inline;opacity:1;fill:#8c59d9;fill-opacity:1;stroke:none;stroke-width:2;stroke-linecap:round;stroke-linejoin:round;stroke-miterlimit:4;stroke-dasharray:none;stroke-dashoffset:0;stroke-opacity:1;enable-background:new" />
    </clipPath>
    <clipPath
       clipPathUnits="userSpaceOnUse"
       id="clipPath1025-0">
      <path
         style="opacity:1;fill:#8c59d9;fill-opacity:1;stroke:none;stroke-width:2;stroke-linecap:round;stroke-linejoin:round;stroke-miterlimit:4;stroke-dasharray:none;stroke-dashoffset:0;stroke-opacity:1"
         d="M 329.9375,32 C 475.2348,32 496,52.71323 496,197.875 v 116.25 C 496,459.28618 475.2348,480 329.9375,480 H 182.0625 C 36.7652,480 16,459.28618 16,314.125 V 197.875 C 16,52.71323 36.7652,32 182.0625,32 Z"
         id="path1027-9"
         inkscape:connector-curvature="0"
         sodipodi:nodetypes="sssssssss" />
    </clipPath>
    <clipPath
       clipPathUnits="userSpaceOnUse"
       id="clipPath4277-8">
      <rect
         style="color:#000000;display:inline;overflow:visible;visibility:visible;opacity:0.81999972;fill:#88b637;fill-opacity:1;fill-rule:nonzero;stroke:none;stroke-width:2;stroke-linecap:butt;stroke-linejoin:miter;stroke-miterlimit:4;stroke-dasharray:none;stroke-dashoffset:0;stroke-opacity:1;marker:none;enable-background:accumulate"
         id="rect4279-6"
         width="512"
         height="512"
         x="5.5999999e-07"
         y="0"
         ry="1" />
    </clipPath>
    <linearGradient
       id="linearGradient3650-7-9">
      <stop
         style="stop-color:#5884f4;stop-opacity:1"
         offset="0"
         id="stop4366" />
      <stop
         id="stop4368"
         offset="1"
         style="stop-color:#80a3fa;stop-opacity:1" />
    </linearGradient>
    <clipPath
       clipPathUnits="userSpaceOnUse"
       id="clipPath1082-3-36">
      <path
         sodipodi:nodetypes="sssssssss"
         inkscape:connector-curvature="0"
         id="path1084-6-0"
         d="M 361.9375,-212 C 507.2348,-212 528,-191.28677 528,-46.125 V 70.125 C 528,215.28618 507.2348,236 361.9375,236 H 214.0625 C 68.7652,236 48,215.28618 48,70.125 V -46.125 C 48,-191.28677 68.7652,-212 214.0625,-212 Z"
         style="display:inline;opacity:1;fill:#8c59d9;fill-opacity:1;stroke:none;stroke-width:2;stroke-linecap:round;stroke-linejoin:round;stroke-miterlimit:4;stroke-dasharray:none;stroke-dashoffset:0;stroke-opacity:1;enable-background:new" />
    </clipPath>
    <clipPath
       clipPathUnits="userSpaceOnUse"
       id="clipPath983">
      <path
         id="path985"
         d="M 115.03125,44 C 42.3826,44 32,54.356615 32,126.9375 v 58.125 C 32,257.64309 42.3826,268 115.03125,268 H 152 V 44 Z"
         style="opacity:1;fill:#4d4d4d;fill-opacity:1;stroke:none;stroke-width:2;stroke-linecap:round;stroke-linejoin:round;stroke-miterlimit:4;stroke-dasharray:none;stroke-dashoffset:0;stroke-opacity:1"
         inkscape:connector-curvature="0" />
    </clipPath>
    <clipPath
       clipPathUnits="userSpaceOnUse"
       id="clipPath1082-3-62">
      <path
         sodipodi:nodetypes="sssssssss"
         inkscape:connector-curvature="0"
         id="path1084-6-61"
         d="M 361.9375,-212 C 507.2348,-212 528,-191.28677 528,-46.125 V 70.125 C 528,215.28618 507.2348,236 361.9375,236 H 214.0625 C 68.7652,236 48,215.28618 48,70.125 V -46.125 C 48,-191.28677 68.7652,-212 214.0625,-212 Z"
         style="display:inline;opacity:1;fill:#8c59d9;fill-opacity:1;stroke:none;stroke-width:2;stroke-linecap:round;stroke-linejoin:round;stroke-miterlimit:4;stroke-dasharray:none;stroke-dashoffset:0;stroke-opacity:1;enable-background:new" />
    </clipPath>
    <clipPath
       clipPathUnits="userSpaceOnUse"
       id="clipPath949">
      <path
         sodipodi:nodetypes="sssssssss"
         inkscape:connector-curvature="0"
         id="path951"
         d="M 329.9375,32 C 475.2348,32 496,52.71323 496,197.875 v 116.25 C 496,459.28618 475.2348,480 329.9375,480 H 182.0625 C 36.7652,480 16,459.28618 16,314.125 V 197.875 C 16,52.71323 36.7652,32 182.0625,32 Z"
         style="opacity:1;fill:#eab305;fill-opacity:1;stroke:none;stroke-width:4;stroke-linecap:round;stroke-linejoin:round;stroke-miterlimit:4;stroke-dasharray:none;stroke-dashoffset:0;stroke-opacity:1" />
    </clipPath>
    <clipPath
       clipPathUnits="userSpaceOnUse"
       id="clipPath954">
      <path
         sodipodi:nodetypes="sssssssss"
         inkscape:connector-curvature="0"
         id="path952"
         d="M 329.9375,32 C 475.2348,32 496,52.71323 496,197.875 v 116.25 C 496,459.28618 475.2348,480 329.9375,480 H 182.0625 C 36.7652,480 16,459.28618 16,314.125 V 197.875 C 16,52.71323 36.7652,32 182.0625,32 Z"
         style="opacity:1;fill:#eab305;fill-opacity:1;stroke:none;stroke-width:4;stroke-linecap:round;stroke-linejoin:round;stroke-miterlimit:4;stroke-dasharray:none;stroke-dashoffset:0;stroke-opacity:1" />
    </clipPath>
    <clipPath
       clipPathUnits="userSpaceOnUse"
       id="clipPath1082-3-8">
      <path
         sodipodi:nodetypes="sssssssss"
         inkscape:connector-curvature="0"
         id="path1084-6-7"
         d="M 361.9375,-212 C 507.2348,-212 528,-191.28677 528,-46.125 V 70.125 C 528,215.28618 507.2348,236 361.9375,236 H 214.0625 C 68.7652,236 48,215.28618 48,70.125 V -46.125 C 48,-191.28677 68.7652,-212 214.0625,-212 Z"
         style="display:inline;opacity:1;fill:#8c59d9;fill-opacity:1;stroke:none;stroke-width:2;stroke-linecap:round;stroke-linejoin:round;stroke-miterlimit:4;stroke-dasharray:none;stroke-dashoffset:0;stroke-opacity:1;enable-background:new" />
    </clipPath>
    <clipPath
       clipPathUnits="userSpaceOnUse"
       id="clipPath1082-3-92">
      <path
         sodipodi:nodetypes="sssssssss"
         inkscape:connector-curvature="0"
         id="path1084-6-02"
         d="M 361.9375,-212 C 507.2348,-212 528,-191.28677 528,-46.125 V 70.125 C 528,215.28618 507.2348,236 361.9375,236 H 214.0625 C 68.7652,236 48,215.28618 48,70.125 V -46.125 C 48,-191.28677 68.7652,-212 214.0625,-212 Z"
         style="display:inline;opacity:1;fill:#8c59d9;fill-opacity:1;stroke:none;stroke-width:2;stroke-linecap:round;stroke-linejoin:round;stroke-miterlimit:4;stroke-dasharray:none;stroke-dashoffset:0;stroke-opacity:1;enable-background:new" />
    </clipPath>
    <clipPath
       clipPathUnits="userSpaceOnUse"
       id="clipPath1082">
      <path
         sodipodi:nodetypes="sssssssss"
         inkscape:connector-curvature="0"
         id="path1084"
         d="M 361.9375,-212 C 507.2348,-212 528,-191.28677 528,-46.125 V 70.125 C 528,215.28618 507.2348,236 361.9375,236 H 214.0625 C 68.7652,236 48,215.28618 48,70.125 V -46.125 C 48,-191.28677 68.7652,-212 214.0625,-212 Z"
         style="display:inline;opacity:1;fill:#8c59d9;fill-opacity:1;stroke:none;stroke-width:2;stroke-linecap:round;stroke-linejoin:round;stroke-miterlimit:4;stroke-dasharray:none;stroke-dashoffset:0;stroke-opacity:1;enable-background:new" />
    </clipPath>
    <linearGradient
       inkscape:collect="always"
       xlink:href="#linearGradient1013"
       id="linearGradient1108"
       x1="296"
       y1="-212"
       x2="296"
       y2="236"
       gradientUnits="userSpaceOnUse" />
    <linearGradient
       id="linearGradient1013"
       inkscape:collect="always">
      <stop
         id="stop1005"
         offset="0"
         style="stop-color:#ffffff;stop-opacity:1;" />
      <stop
         style="stop-color:#ffffff;stop-opacity:0.09803922"
         offset="0.125"
         id="stop1007" />
      <stop
         style="stop-color:#000000;stop-opacity:0.09803922"
         offset="0.92500001"
         id="stop1009" />
      <stop
         id="stop1011"
         offset="1"
         style="stop-color:#000000;stop-opacity:0.49803922" />
    </linearGradient>
    <clipPath
       clipPathUnits="userSpaceOnUse"
       id="clipPath1082-3-361">
      <path
         sodipodi:nodetypes="sssssssss"
         inkscape:connector-curvature="0"
         id="path1084-6-29"
         d="M 361.9375,-212 C 507.2348,-212 528,-191.28677 528,-46.125 V 70.125 C 528,215.28618 507.2348,236 361.9375,236 H 214.0625 C 68.7652,236 48,215.28618 48,70.125 V -46.125 C 48,-191.28677 68.7652,-212 214.0625,-212 Z"
         style="display:inline;opacity:1;fill:#8c59d9;fill-opacity:1;stroke:none;stroke-width:2;stroke-linecap:round;stroke-linejoin:round;stroke-miterlimit:4;stroke-dasharray:none;stroke-dashoffset:0;stroke-opacity:1;enable-background:new" />
    </clipPath>
    <clipPath
       clipPathUnits="userSpaceOnUse"
       id="clipPath1079">
      <circle
         cx="213.84277"
         cy="146"
         r="55"
         style="color:#000000;display:inline;overflow:visible;visibility:visible;opacity:1;fill:url(#linearGradient1083);fill-opacity:1;fill-rule:nonzero;stroke:none;stroke-width:7.99999952;stroke-linecap:butt;stroke-linejoin:miter;stroke-miterlimit:4;stroke-dasharray:none;stroke-dashoffset:0;stroke-opacity:1;marker:none;enable-background:accumulate"
         id="circle1081"
         transform="scale(-1,1)" />
    </clipPath>
    <clipPath
       clipPathUnits="userSpaceOnUse"
       id="clipPath984">
      <circle
         cx="213.84277"
         cy="146"
         r="55"
         style="color:#000000;display:inline;overflow:visible;visibility:visible;opacity:1;fill:url(#linearGradient1083);fill-opacity:1;fill-rule:nonzero;stroke:none;stroke-width:7.99999952;stroke-linecap:butt;stroke-linejoin:miter;stroke-miterlimit:4;stroke-dasharray:none;stroke-dashoffset:0;stroke-opacity:1;marker:none;enable-background:accumulate"
         id="circle982"
         transform="scale(-1,1)" />
    </clipPath>
    <clipPath
       clipPathUnits="userSpaceOnUse"
       id="clipPath988">
      <circle
         cx="213.84277"
         cy="146"
         r="55"
         style="color:#000000;display:inline;overflow:visible;visibility:visible;opacity:1;fill:url(#linearGradient1083);fill-opacity:1;fill-rule:nonzero;stroke:none;stroke-width:7.99999952;stroke-linecap:butt;stroke-linejoin:miter;stroke-miterlimit:4;stroke-dasharray:none;stroke-dashoffset:0;stroke-opacity:1;marker:none;enable-background:accumulate"
         id="circle986"
         transform="scale(-1,1)" />
    </clipPath>
    <clipPath
       clipPathUnits="userSpaceOnUse"
       id="clipPath992">
      <circle
         cx="213.84277"
         cy="146"
         r="55"
         style="color:#000000;display:inline;overflow:visible;visibility:visible;opacity:1;fill:url(#linearGradient1083);fill-opacity:1;fill-rule:nonzero;stroke:none;stroke-width:7.99999952;stroke-linecap:butt;stroke-linejoin:miter;stroke-miterlimit:4;stroke-dasharray:none;stroke-dashoffset:0;stroke-opacity:1;marker:none;enable-background:accumulate"
         id="circle990"
         transform="scale(-1,1)" />
    </clipPath>
    <filter
       inkscape:collect="always"
       style="color-interpolation-filters:sRGB"
       id="filter4569"
       x="-0.0116"
       width="1.0232"
       y="-0.012428571"
       height="1.024857">
      <feGaussianBlur
         inkscape:collect="always"
         stdDeviation="1.16"
         id="feGaussianBlur4571" />
    </filter>
    <filter
       inkscape:collect="always"
       style="color-interpolation-filters:sRGB"
       id="filter939"
       x="-0.0232"
       width="1.0464"
       y="-0.024857143"
       height="1.0497143">
      <feGaussianBlur
         inkscape:collect="always"
         stdDeviation="2.32"
         id="feGaussianBlur941" />
    </filter>
    <clipPath
       clipPathUnits="userSpaceOnUse"
       id="clipPath1082-37">
      <path
         sodipodi:nodetypes="sssssssss"
         inkscape:connector-curvature="0"
         id="path1084-5"
         d="M 361.9375,-212 C 507.2348,-212 528,-191.28677 528,-46.125 V 70.125 C 528,215.28618 507.2348,236 361.9375,236 H 214.0625 C 68.7652,236 48,215.28618 48,70.125 V -46.125 C 48,-191.28677 68.7652,-212 214.0625,-212 Z"
         style="display:inline;opacity:1;fill:#8c59d9;fill-opacity:1;stroke:none;stroke-width:2;stroke-linecap:round;stroke-linejoin:round;stroke-miterlimit:4;stroke-dasharray:none;stroke-dashoffset:0;stroke-opacity:1;enable-background:new" />
    </clipPath>
    <linearGradient
       id="linearGradient4632-92-3-0-8-1-7-1">
      <stop
         id="stop4634-68-8-0-2-9-4-3"
         style="stop-color:#fafafa;stop-opacity:1"
         offset="0" />
      <stop
         id="stop4636-8-21-7-1-4-0-5"
         style="stop-color:#e1e1e1;stop-opacity:1"
         offset="1" />
    </linearGradient>
    <filter
       inkscape:collect="always"
       style="color-interpolation-filters:sRGB"
       id="filter1786"
       x="-0.055948677"
       width="1.1118974"
       y="-0.042028915"
       height="1.0840578">
      <feGaussianBlur
         inkscape:collect="always"
         stdDeviation="1.0315473"
         id="feGaussianBlur1788" />
    </filter>
  </defs>
  <sodipodi:namedview
     id="base"
     pagecolor="#ffffff"
     bordercolor="#666666"
     borderopacity="1.0"
     inkscape:pageopacity="0.0"
     inkscape:pageshadow="2"
     inkscape:zoom="3.1341856"
     inkscape:cx="65.463821"
     inkscape:cy="135.1647"
     inkscape:document-units="px"
     inkscape:current-layer="layer1"
     showgrid="false"
     units="px"
     inkscape:window-width="1920"
     inkscape:window-height="1008"
     inkscape:window-x="0"
     inkscape:window-y="34"
     inkscape:window-maximized="1">
    <inkscape:grid
       type="xygrid"
       id="grid2168" />
  </sodipodi:namedview>
  <metadata
     id="metadata1485">
    <rdf:RDF>
      <cc:Work
         rdf:about="">
        <dc:format>image/svg+xml</dc:format>
        <dc:type
           rdf:resource="http://purl.org/dc/dcmitype/StillImage" />
        <dc:title />
      </cc:Work>
    </rdf:RDF>
  </metadata>
  <g
     inkscape:label="Livello 1"
     inkscape:groupmode="layer"
     id="layer1"
     transform="translate(0,-229.26666)">
    <path
       style="display:inline;opacity:0.2;fill:#000000;fill-opacity:1;stroke:none;stroke-width:2;stroke-linecap:round;stroke-linejoin:round;stroke-miterlimit:4;stroke-dasharray:none;stroke-dashoffset:0;stroke-opacity:1;filter:url(#filter939);enable-background:new"
       d="m 162.53675,5.5680001 c 72.64865,0 83.03125,10.3566149 83.03125,82.9375049 v 58.125005 c 0,72.58059 -10.3826,82.9375 -83.03125,82.9375 H 88.599254 C 15.9506,229.56801 5.568,219.2111 5.568,146.63051 V 88.505505 c 0,-72.58089 10.3826,-82.9375049 83.031254,-82.9375049 z"
       id="path937"
       inkscape:connector-curvature="0"
       sodipodi:nodetypes="sssssssss"
       transform="matrix(0.26970779,0,0,0.26970779,-1.9098094e-8,231.46531)" />
    <path
       sodipodi:nodetypes="sssssssss"
       inkscape:connector-curvature="0"
       id="path4558"
       d="m 43.837429,232.42763 c 19.593907,0 22.394176,2.79326 22.394176,22.36889 v 15.67677 c 0,19.57555 -2.800269,22.36889 -22.394176,22.36889 H 23.89591 c -19.5939088,0 -22.394177,-2.79334 -22.394177,-22.36889 v -15.67677 c 0,-19.57563 2.8002682,-22.36889 22.394177,-22.36889 z"
       style="display:inline;opacity:0.1;fill:none;fill-opacity:1;stroke:#000000;stroke-width:1.07883108;stroke-linecap:round;stroke-linejoin:round;stroke-miterlimit:4;stroke-dasharray:none;stroke-dashoffset:0;stroke-opacity:1;enable-background:new" />
    <path
       sodipodi:nodetypes="sssssssss"
       inkscape:connector-curvature="0"
       id="path4567"
       d="m 162.53675,3.5680001 c 72.64865,0 83.03125,10.3566149 83.03125,82.9375049 v 58.125005 c 0,72.58059 -10.3826,82.9375 -83.03125,82.9375 H 88.599254 C 15.9506,227.56801 5.568,217.2111 5.568,144.63051 V 86.505505 c 0,-72.58089 10.3826,-82.9375049 83.031254,-82.9375049 z"
       style="display:inline;opacity:0.1;fill:#000000;fill-opacity:1;stroke:none;stroke-width:2;stroke-linecap:round;stroke-linejoin:round;stroke-miterlimit:4;stroke-dasharray:none;stroke-dashoffset:0;stroke-opacity:1;filter:url(#filter4569);enable-background:new"
       transform="matrix(0.26970779,0,0,0.26970779,-1.9098094e-8,231.46531)" />
    <path
       style="display:inline;opacity:1;fill:#9b2c21;fill-opacity:1;stroke:none;stroke-width:0.53941554;stroke-linecap:round;stroke-linejoin:round;stroke-miterlimit:4;stroke-dasharray:none;stroke-dashoffset:0;stroke-opacity:1;enable-background:new"
       d="m 43.837427,232.42763 c 19.593907,0 22.394175,2.79326 22.394175,22.36889 v 15.67677 c 0,19.57555 -2.800268,22.36889 -22.394175,22.36889 h -19.94152 c -19.5939074,0 -22.3941756,-2.79334 -22.3941756,-22.36889 v -15.67677 c 0,-19.57563 2.8002682,-22.36889 22.3941756,-22.36889 z"
       id="rect877"
       inkscape:connector-curvature="0"
       sodipodi:nodetypes="sssssssss" />
    <path
       style="display:inline;opacity:0.1;fill:#ffffff;fill-opacity:1;stroke:none;stroke-width:0.53941554;stroke-linecap:round;stroke-linejoin:round;stroke-miterlimit:4;stroke-dasharray:none;stroke-dashoffset:0;stroke-opacity:1;enable-background:new"
       d="m 33.866666,232.42763 v 60.41455 h 9.970761 c 19.593907,0 22.394175,-2.79334 22.394175,-22.36889 v -15.67677 c 0,-19.57563 -2.800268,-22.36889 -22.394175,-22.36889 z"
       id="path1099"
       inkscape:connector-curvature="0" />
    <path
       style="display:inline;opacity:0.1;fill:#ffffff;fill-opacity:1;stroke:none;stroke-width:0.53941554;stroke-linecap:round;stroke-linejoin:round;stroke-miterlimit:4;stroke-dasharray:none;stroke-dashoffset:0;stroke-opacity:1;enable-background:new"
       d="m 23.895907,292.84218 c -19.5939074,0 -22.3941756,-2.79326 -22.3941756,-22.36889 v -7.83838 H 66.231602 v 7.83838 c 0,19.57563 -2.800268,22.36889 -22.394175,22.36889 z"
       id="path1107"
       inkscape:connector-curvature="0" />
    <g
       transform="translate(-1.8592152,0.52916667)"
       id="g1772"
       style="fill:#ff0017;fill-opacity:1;filter:url(#filter1786);opacity:0.6">
      <g
         id="g1762"
         style="fill:#ff0017;fill-opacity:1">
        <path
           inkscape:connector-curvature="0"
           transform="matrix(0.26458333,0,0,0.26458333,0,229.26666)"
           id="path1752"
           d="m 62.677734,191.13477 c -2.25888,0 -5.919369,5.44619 -7.478515,11.1289 -0.684284,2.49404 -0.311967,4.54259 1.833984,10.07813 0.779611,2.01105 2.979062,1.61328 4.53125,-0.82032 1.195948,-1.87513 1.308594,-2.66763 1.308594,-9.16796 0,-3.91314 0.216456,-8.03726 0.482422,-9.16602 0.438856,-1.86259 0.3774,-2.05273 -0.677735,-2.05273 z"
           style="fill:#ff0017;fill-opacity:1;stroke-width:0.55431098" />
        <path
           inkscape:connector-curvature="0"
           transform="matrix(0.26458333,0,0,0.26458333,0,229.26666)"
           id="path1754"
           d="m 202.90234,109.04102 c -1.36095,0 -6.69811,10.35306 -7.09179,13.75781 -0.18471,1.59749 0.1189,3.68609 0.88672,6.10937 0.70362,2.22085 1.03419,4.33105 0.83203,5.31641 -0.40337,1.96611 0.50192,2.17112 1.91601,0.43359 0.53735,-0.66017 2.28796,-2.57491 3.89063,-4.25586 4.76722,-5.00005 5.03052,-6.58774 2.0664,-12.43554 -1.69945,-3.35286 -1.98859,-4.42597 -1.75195,-6.47266 0.24468,-2.11616 0.14201,-2.45312 -0.74805,-2.45312 z"
           style="fill:#ff0017;fill-opacity:1;stroke-width:0.55431098" />
        <path
           inkscape:connector-curvature="0"
           transform="matrix(0.26458333,0,0,0.26458333,0,229.26666)"
           id="path1756"
           d="m 99.927734,47.650391 c -1.514615,0.241285 -6.774197,5.329016 -7.90039,7.642578 -0.919964,1.889839 -0.757607,4.717116 0.390625,6.808593 0.825815,1.504215 1.630267,1.182654 4.496093,-1.792968 3.216768,-3.340007 4.548168,-6.471282 4.310548,-10.132813 -0.15284,-2.35559 -0.31906,-2.681107 -1.296876,-2.52539 z"
           style="fill:#ff0017;fill-opacity:1;stroke-width:0.55431098" />
        <path
           inkscape:connector-curvature="0"
           transform="matrix(0.26458333,0,0,0.26458333,0,229.26666)"
           id="path1758"
           d="m 138.77539,15.773438 c -1.43789,0.434834 -1.89567,1.083594 -3.64062,5.154296 -2.24704,5.241941 -2.2197,6.898993 0.19726,12.103516 1.1722,2.524195 2.1933,5.630533 2.26953,6.902344 0.0762,1.271811 0.32834,2.610326 0.56055,2.976562 0.30483,0.480832 0.5887,0.37782 1.02344,-0.371094 0.33113,-0.57033 2.118,-2.447654 3.9707,-4.171874 l 3.36914,-3.134766 -0.0176,-3.205078 c -0.0155,-2.80664 -0.3423,-3.75057 -2.62109,-7.564453 -1.43176,-2.396221 -2.8901,-5.414421 -3.24024,-6.708985 -0.56034,-2.071332 -0.78507,-2.308909 -1.87109,-1.980468 z"
           style="fill:#ff0017;fill-opacity:1;stroke-width:0.55431098" />
        <path
           style="fill:#ff0017;fill-opacity:1;stroke-width:0.55431098"
           d="M 54.238281 238.71094 C 54.507758 238.74247 54.731511 238.79381 55.003906 238.82422 C 58.260972 239.18783 61.727635 239.47091 65.416016 239.6875 C 72.792777 240.12069 81.057489 240.28516 90.314453 240.28516 L 165.68555 240.28516 C 174.94251 240.28516 183.20722 240.12069 190.58398 239.6875 C 194.27236 239.47091 197.73903 239.18783 200.99609 238.82422 C 202.68023 238.6362 204.15641 238.36146 205.73047 238.12891 C 206.76832 234.64663 207.29654 231.16681 207.3457 226.52148 C 207.4099 220.45126 207.30921 219.88087 204.47461 210.45117 C 200.30577 196.58314 200.45245 195.1307 206.73242 188.11133 C 208.72243 185.887 210.64123 183.53704 210.99609 182.89062 C 212.41078 180.31388 211.21747 174.8004 209.47266 175.85156 C 209.11261 176.06847 208.32427 177.18847 207.7207 178.3418 C 206.29813 181.06003 203.76662 182.5405 199.35938 183.23242 C 194.95522 183.92381 194.07861 184.52814 191.12109 188.89648 C 189.68245 191.02141 188.35524 191.43232 186.33984 190.38086 C 185.53612 189.96156 185.25391 189.22999 185.25391 187.5625 C 185.25391 185.18038 185.7017 184.65159 193.82422 177.48047 C 199.29797 172.64785 199.79546 169.16502 196.54297 158.44141 C 193.46948 148.308 193.51526 147.28715 197.21289 143.47852 C 198.15828 142.50476 198.77061 141.55098 198.57422 141.35938 C 197.93272 140.73401 192.23915 141.72144 190.48438 142.76172 C 189.5125 143.33791 188.59922 144.45071 188.37305 145.33398 C 187.4928 148.77158 183.88043 150.08835 182.2207 147.57617 C 180.63718 145.17938 180.6106 142.74211 182.12109 138.13086 C 182.90931 135.72455 183.55872 132.69944 183.5625 131.4082 C 183.5705 128.83778 182.12907 125.60327 180.22852 123.92773 C 178.52718 122.42779 177.04224 123.36715 177.29883 125.78125 C 177.53596 128.01174 175.62309 130.83237 172.83594 132.35938 C 170.26282 133.76893 166.64033 133.79277 163.54297 132.42188 C 157.89198 129.92073 158.93287 125.63367 167.09766 117.78125 C 177.00176 108.25608 177.08082 101.58219 167.375 93.980469 C 158.59695 87.105319 157.52689 85.534135 159.99023 83.132812 C 161.66947 81.495637 161.41103 80.795229 159.28711 81.222656 C 155.82552 81.919223 153.47882 83.925957 151.60547 87.791016 C 150.19086 90.70968 149.47136 91.565873 147.88281 92.212891 C 145.16689 93.319121 142.43787 92.520333 138.12695 89.361328 C 132.31457 85.102141 132.35136 84.325245 138.70508 77.019531 C 143.43056 71.586082 144.5074 69.27857 143.77539 66.166016 C 142.827 62.133373 141.61593 60.677554 134.53711 55.056641 C 132.3377 53.310197 131.91797 52.673629 131.91797 51.087891 C 131.91797 49.200961 131.2605 48.755437 129.80469 49.65625 C 129.41394 49.898102 128.74102 51.897203 128.31055 54.099609 C 127.25788 59.485096 125.89528 60.331228 123.82812 56.880859 C 122.76711 55.109886 122.7662 54.968746 123.76562 50.013672 C 125.38266 41.996576 124.26533 38.359013 118.75977 33.708984 C 114.76603 30.335832 108.34433 26.216356 107.07617 26.214844 C 105.99048 26.213644 105.7364 27.575743 106.71289 28.164062 C 107.97332 28.923445 109.43675 33.111091 109.44922 35.992188 C 109.46062 38.697647 109.29065 39.087166 107.30078 40.917969 C 106.11245 42.01131 103.97548 43.708262 102.55078 44.6875 C 98.578032 47.418209 97.764264 51.935822 100.37305 56.792969 C 100.95908 57.884118 102.48582 60.699814 103.76562 63.048828 C 105.56049 66.343216 106.09375 67.918792 106.09375 69.941406 C 106.09375 73.431762 104.81061 74.592937 100.9375 74.626953 C 98.47135 74.645733 97.940346 74.448036 96.916016 73.123047 C 95.689166 71.536061 95.379724 68.164439 96.240234 65.755859 C 96.559444 64.862341 96.464654 64.523437 95.896484 64.523438 C 94.509064 64.523438 87.324328 68.169888 86.048828 69.521484 C 83.782332 71.923147 82.281938 76.007883 82.255859 79.847656 C 82.233319 83.166346 82.414694 83.689419 84.939453 87.642578 C 86.529534 90.132304 87.570595 92.367533 87.464844 93.060547 C 87.053431 95.755048 83.575153 95.741533 80.796875 93.033203 C 79.030074 91.31091 77.547728 86.969284 77.326172 82.863281 C 77.129232 79.213694 75.882407 78.957371 73.554688 82.089844 C 69.643648 87.352874 69.163133 93.707299 72.046875 102.05469 C 74.630458 109.53324 75.042201 110.1943 80.455078 115.55469 C 84.466823 119.5275 85.984809 120.6154 90.177734 122.5332 C 97.228306 125.75805 98.224052 126.304 100.88477 128.38867 C 104.76812 131.43123 105.40821 135.5105 102.48438 138.58594 C 100.404 140.77421 97.240746 140.59603 92.017578 137.99609 C 86.908979 135.45323 85.750997 133.98159 85.427734 129.625 C 85.232862 126.9988 85.009803 126.36553 84.363281 126.60742 C 83.91329 126.77599 83.331693 126.91211 83.072266 126.91211 C 82.81284 126.91211 81.823503 128.42908 80.873047 130.2832 C 79.535222 132.893 79.144531 134.37707 79.144531 136.85156 C 79.144531 140.36267 78.502582 140.89778 77.210938 138.46289 C 75.766203 135.73944 75.604395 132.7951 76.625 127.78125 C 77.157203 125.16691 77.444409 122.88316 77.263672 122.70703 C 76.035454 121.50971 68.716851 127.8591 65.304688 133.08203 C 61.932322 138.24407 61.494957 146.80506 64.322266 152.30469 C 67.092063 157.6924 73.419206 164.48872 80.267578 169.43359 C 84.42541 172.43579 86.587871 174.75883 86.349609 175.96484 C 85.79087 178.79303 78.829012 179.10887 76.451172 176.41406 C 75.365963 175.18402 75.150761 174.4576 75.380859 172.78516 C 75.640157 170.90049 75.544212 170.69531 74.408203 170.69531 C 72.990872 170.69531 72.05007 172.273 71.513672 175.54297 C 71.26067 177.08532 71.618691 178.86708 72.912109 182.48242 C 73.869252 185.15776 74.652344 187.86374 74.652344 188.49609 C 74.652344 189.76579 72.859485 191.53127 69.078125 193.98438 C 67.710552 194.87152 65.503017 197.03713 64.171875 198.79688 C 59.811192 204.56162 59.048827 210.11483 61.453125 218.58789 C 63.107314 224.41747 63.15895 225.29339 61.933594 226.61328 C 59.633959 229.09038 52.10141 226.75033 48.714844 222.50781 C 46.523458 219.76028 46.068227 219.42125 45.089844 219.78711 C 44.027433 220.18456 44.1761 223.11539 45.390625 225.69727 C 46.187893 227.39218 50.32941 233.33404 54.238281 238.71094 z "
           id="path1760"
           transform="matrix(0.26458333,0,0,0.26458333,1.8592152,228.73749)" />
      </g>
      <g
         id="g1766"
         transform="matrix(0.58374451,0,0,0.58374451,15.504232,122.03419)"
         style="fill:#ff0017;fill-opacity:1">
        <path
           transform="matrix(0.45325194,0,0,0.45325194,-23.374981,182.7911)"
           id="path1764"
           d="M 87.035156 240.20703 C 88.220186 240.21299 89.095252 240.28516 90.314453 240.28516 L 165.68555 240.28516 C 169.46226 240.28516 172.39018 240.10294 175.84375 240.04102 C 176.38366 238.115 176.68378 236.16733 176.71094 233.60156 C 176.74841 230.0581 176.68984 229.72524 175.03516 224.2207 C 172.60162 216.12532 172.68762 215.27721 176.35352 211.17969 C 177.51517 209.88125 178.63465 208.51016 178.8418 208.13281 C 179.66761 206.62864 178.97165 203.40983 177.95312 204.02344 C 177.74295 204.15006 177.28202 204.80331 176.92969 205.47656 C 176.09927 207.06331 174.62154 207.92813 172.04883 208.33203 C 169.47792 208.73563 168.96667 209.08868 167.24023 211.63867 C 166.40044 212.87909 165.6257 213.11769 164.44922 212.50391 C 163.98005 212.25914 163.81445 211.83276 163.81445 210.85938 C 163.81445 209.46883 164.07688 209.16071 168.81836 204.97461 C 172.01363 202.15359 172.30292 200.11922 170.4043 193.85938 C 168.61016 187.94405 168.63645 187.34827 170.79492 185.125 C 171.34679 184.55657 171.70449 184.00053 171.58984 183.88867 C 171.21537 183.52362 167.89154 184.09977 166.86719 184.70703 C 166.29986 185.04338 165.76679 185.69338 165.63477 186.20898 C 165.12092 188.21566 163.01378 188.98405 162.04492 187.51758 C 161.12055 186.11847 161.10459 184.6957 161.98633 182.00391 C 162.44645 180.59924 162.82592 178.83383 162.82812 178.08008 C 162.83279 176.57961 161.99029 174.69098 160.88086 173.71289 C 159.88771 172.83731 159.02209 173.3857 159.17188 174.79492 C 159.3103 176.09696 158.19339 177.74338 156.56641 178.63477 C 155.06436 179.45759 152.94869 179.47214 151.14062 178.67188 C 147.84189 177.21184 148.45065 174.70881 153.2168 170.125 C 158.99826 164.56473 159.04463 160.66793 153.37891 156.23047 C 148.25477 152.21714 147.62845 151.3002 149.06641 149.89844 C 150.04665 148.94274 149.89608 148.53369 148.65625 148.7832 C 146.63557 149.18982 145.26543 150.36098 144.17188 152.61719 C 143.3461 154.32094 142.92731 154.82153 142 155.19922 C 140.4146 155.84497 138.82116 155.37921 136.30469 153.53516 C 132.91174 151.04888 132.93363 150.59475 136.64258 146.33008 C 139.40105 143.15833 140.02887 141.81108 139.60156 139.99414 C 139.04795 137.64011 138.34121 136.79094 134.20898 133.50977 C 132.92509 132.49029 132.67969 132.11903 132.67969 131.19336 C 132.67969 130.09187 132.29709 129.83158 131.44727 130.35742 C 131.21917 130.4986 130.8255 131.66553 130.57422 132.95117 C 129.95973 136.09492 129.16372 136.58835 127.95703 134.57422 C 127.33766 133.54042 127.33846 133.4589 127.92188 130.56641 C 128.86581 125.88647 128.21384 123.76326 125 121.04883 C 122.66868 119.07977 118.91997 116.67471 118.17969 116.67383 C 117.54592 116.67313 117.39678 117.46712 117.9668 117.81055 C 118.70257 118.25383 119.55717 120.69903 119.56445 122.38086 C 119.57111 123.96016 119.47212 124.18714 118.31055 125.25586 C 117.61687 125.89409 116.36877 126.88541 115.53711 127.45703 C 113.21804 129.05107 112.74276 131.6881 114.26562 134.52344 C 114.60772 135.16039 115.49901 136.80456 116.24609 138.17578 C 117.29384 140.09886 117.60547 141.01853 117.60547 142.19922 C 117.60547 144.23669 116.85661 144.91374 114.5957 144.93359 C 113.1561 144.94456 112.84599 144.8301 112.24805 144.05664 C 111.53188 143.13025 111.3512 141.16185 111.85352 139.75586 C 112.03985 139.23427 111.98401 139.03516 111.65234 139.03516 C 110.84244 139.03516 106.64886 141.16414 105.9043 141.95312 C 104.58124 143.35508 103.70468 145.73902 103.68945 147.98047 C 103.6763 149.91774 103.78205 150.22362 105.25586 152.53125 C 106.18406 153.98461 106.7922 155.28882 106.73047 155.69336 C 106.49031 157.26626 104.4597 157.25871 102.83789 155.67773 C 101.80653 154.67236 100.94183 152.13904 100.8125 149.74219 C 100.69754 147.61176 99.970122 147.4605 98.611328 149.28906 C 96.32828 152.36133 96.0471 156.07257 97.730469 160.94531 C 99.238621 165.31087 99.478935 165.69512 102.63867 168.82422 C 104.98051 171.14332 105.86686 171.77893 108.31445 172.89844 C 112.43019 174.78093 113.01128 175.09949 114.56445 176.31641 C 116.83134 178.09248 117.20483 180.47426 115.49805 182.26953 C 114.28364 183.54692 112.43767 183.44348 109.38867 181.92578 C 106.40656 180.4414 105.72972 179.5822 105.54102 177.03906 C 105.42726 175.50603 105.29733 175.13614 104.91992 175.27734 C 104.65724 175.37575 104.31745 175.45508 104.16602 175.45508 C 104.01458 175.45508 103.43764 176.33954 102.88281 177.42188 C 102.10186 178.94533 101.875 179.81334 101.875 181.25781 C 101.875 183.3074 101.50009 183.61862 100.74609 182.19727 C 99.902738 180.60747 99.806571 178.8897 100.40234 175.96289 C 100.71301 174.43678 100.88089 173.10281 100.77539 173 C 100.05843 172.30107 95.786754 176.00778 93.794922 179.05664 C 91.826322 182.06995 91.570277 187.06696 93.220703 190.27734 C 94.837557 193.42239 98.531597 197.3908 102.5293 200.27734 C 104.95641 202.02986 106.21916 203.38584 106.08008 204.08984 C 105.75392 205.74078 101.69079 205.92464 100.30273 204.35156 C 99.66925 203.63353 99.543416 203.2087 99.677734 202.23242 C 99.829098 201.13226 99.772514 201.01367 99.109375 201.01367 C 98.282016 201.01367 97.733041 201.93297 97.419922 203.8418 C 97.272233 204.74214 97.481302 205.7841 98.236328 207.89453 C 98.795055 209.45625 99.251953 211.03517 99.251953 211.4043 C 99.251953 212.14548 98.205395 213.17543 95.998047 214.60742 C 95.199734 215.1253 93.911812 216.39072 93.134766 217.41797 C 90.589241 220.78312 90.143379 224.0246 91.546875 228.9707 C 92.512499 232.37369 92.54342 232.88382 91.828125 233.6543 C 90.485726 235.10029 86.088217 233.73436 84.111328 231.25781 C 82.832119 229.65396 82.565266 229.45635 81.994141 229.66992 C 81.373964 229.90193 81.46095 231.61198 82.169922 233.11914 C 82.590047 234.01229 84.970619 237.33511 87.035156 240.20703 z "
           style="fill:#ff0017;fill-opacity:1;stroke-width:0.32357597" />
      </g>
      <g
         style="fill:#ff0017;fill-opacity:1"
         transform="matrix(0.30843508,0,0,0.30843508,25.339905,202.56507)"
         id="g1770">
        <path
           transform="matrix(0.85782504,0,0,0.85782504,-76.128467,84.855534)"
           id="path1768"
           d="M 106.93359 240.28516 L 154.47656 240.28516 C 154.65597 239.45645 154.85378 238.67796 154.86523 237.5957 C 154.88504 235.72343 154.85476 235.54712 153.98047 232.63867 C 152.69465 228.36128 152.74077 227.91307 154.67773 225.74805 C 155.29152 225.06199 155.88274 224.33805 155.99219 224.13867 C 156.42853 223.34391 156.05964 221.64258 155.52148 221.9668 C 155.41043 222.0337 155.16858 222.3806 154.98242 222.73633 C 154.54365 223.57473 153.7617 224.03073 152.40234 224.24414 C 151.04395 224.45739 150.77353 224.64289 149.86133 225.99023 C 149.4176 226.64564 149.00834 226.77353 148.38672 226.44922 C 148.13882 226.31989 148.05273 226.09439 148.05273 225.58008 C 148.05273 224.84535 148.19004 224.68253 150.69531 222.4707 C 152.38361 220.98015 152.53639 219.90519 151.5332 216.59766 C 150.58523 213.47216 150.59976 213.15714 151.74023 211.98242 C 152.03183 211.68208 152.22073 211.38723 152.16016 211.32812 C 151.9623 211.13524 150.20725 211.44086 149.66602 211.76172 C 149.36625 211.93944 149.08343 212.28226 149.01367 212.55469 C 148.74217 213.61496 147.62911 214.02094 147.11719 213.24609 C 146.62877 212.50684 146.62005 211.75626 147.08594 210.33398 C 147.32905 209.59179 147.53008 208.65803 147.53125 208.25977 C 147.53372 207.46696 147.08815 206.46992 146.50195 205.95312 C 145.9772 205.49049 145.51851 205.77884 145.59766 206.52344 C 145.6708 207.2114 145.08231 208.08175 144.22266 208.55273 C 143.42902 208.9875 142.3108 208.9951 141.35547 208.57227 C 139.61251 207.80082 139.93482 206.4786 142.45312 204.05664 C 145.5079 201.11874 145.53072 199.05948 142.53711 196.71484 C 139.82965 194.59431 139.49999 194.10979 140.25977 193.36914 C 140.7777 192.86418 140.69806 192.64942 140.04297 192.78125 C 138.97529 192.9961 138.25163 193.61452 137.67383 194.80664 C 137.23751 195.70686 137.01536 195.97036 136.52539 196.16992 C 135.68771 196.51112 134.84526 196.26536 133.51562 195.29102 C 131.72288 193.97733 131.7356 193.73771 133.69531 191.48438 C 135.15282 189.80851 135.48359 189.09674 135.25781 188.13672 C 134.9653 186.89291 134.59351 186.44462 132.41016 184.71094 C 131.73178 184.17227 131.60156 183.97543 131.60156 183.48633 C 131.60156 182.90433 131.39824 182.76708 130.94922 183.04492 C 130.8287 183.11952 130.62105 183.73476 130.48828 184.41406 C 130.1636 186.07514 129.74305 186.33765 129.10547 185.27344 C 128.77821 184.72721 128.77963 184.68262 129.08789 183.1543 C 129.58664 180.68154 129.24108 179.55923 127.54297 178.125 C 126.31116 177.0846 124.3306 175.81492 123.93945 175.81445 C 123.60459 175.81408 123.52694 176.23456 123.82812 176.41602 C 124.21689 176.65024 124.66803 177.94145 124.67188 178.83008 C 124.67539 179.66454 124.62156 179.78493 124.00781 180.34961 C 123.64129 180.68683 122.9824 181.20969 122.54297 181.51172 C 121.31763 182.35397 121.06645 183.74798 121.87109 185.24609 C 122.05185 185.58264 122.52323 186.45126 122.91797 187.17578 C 123.47157 188.19189 123.63672 188.67694 123.63672 189.30078 C 123.63672 190.37733 123.24148 190.7356 122.04688 190.74609 C 121.28623 190.75189 121.12258 190.69188 120.80664 190.2832 C 120.42824 189.79372 120.33224 188.75266 120.59766 188.00977 C 120.69611 187.73417 120.66743 187.63086 120.49219 187.63086 C 120.06426 187.63086 117.84653 188.755 117.45312 189.17188 C 116.75406 189.91263 116.29125 191.1731 116.2832 192.35742 C 116.27625 193.38102 116.3326 193.54243 117.11133 194.76172 C 117.60176 195.52964 117.92324 196.21789 117.89062 196.43164 C 117.76373 197.26272 116.6909 197.25917 115.83398 196.42383 C 115.28904 195.89261 114.83201 194.55354 114.76367 193.28711 C 114.70293 192.16145 114.31756 192.08266 113.59961 193.04883 C 112.39331 194.67213 112.24532 196.63045 113.13477 199.20508 C 113.93163 201.51173 114.05899 201.71581 115.72852 203.36914 C 116.96588 204.59449 117.43332 204.92997 118.72656 205.52148 C 120.90121 206.51614 121.20864 206.68514 122.0293 207.32812 C 123.22706 208.26656 123.42526 209.52408 122.52344 210.47266 C 121.88178 211.1476 120.90593 211.09293 119.29492 210.29102 C 117.71925 209.50671 117.36142 209.05271 117.26172 207.70898 C 117.20161 206.89897 117.133 206.70469 116.93359 206.7793 C 116.7948 206.83129 116.61517 206.87305 116.53516 206.87305 C 116.45514 206.87305 116.15058 207.34023 115.85742 207.91211 C 115.44479 208.71706 115.32422 209.17623 115.32422 209.93945 C 115.32422 211.0224 115.1269 211.18655 114.72852 210.43555 C 114.28291 209.59554 114.23208 208.68707 114.54688 207.14062 C 114.71103 206.33427 114.79989 205.6305 114.74414 205.57617 C 114.36532 205.20688 112.10712 207.16446 111.05469 208.77539 C 110.01453 210.36754 109.87991 213.0088 110.75195 214.70508 C 111.60626 216.36684 113.55764 218.46311 115.66992 219.98828 C 116.95234 220.91427 117.62036 221.62998 117.54688 222.00195 C 117.37454 222.87427 115.22755 222.9718 114.49414 222.14062 C 114.15942 221.76124 114.09309 221.53732 114.16406 221.02148 C 114.24404 220.44019 114.21367 220.37695 113.86328 220.37695 C 113.42613 220.37695 113.13615 220.86447 112.9707 221.87305 C 112.89267 222.34876 113.00341 222.89857 113.40234 224.01367 C 113.69756 224.83884 113.93945 225.67215 113.93945 225.86719 C 113.93945 226.25881 113.38505 226.80392 112.21875 227.56055 C 111.79694 227.83418 111.1176 228.50215 110.70703 229.04492 C 109.36204 230.82298 109.12562 232.53505 109.86719 235.14844 C 110.3774 236.94648 110.39357 237.2179 110.01562 237.625 C 109.30634 238.38902 106.98399 237.66596 105.93945 236.35742 C 105.26355 235.50999 105.12208 235.40669 104.82031 235.51953 C 104.49263 235.64212 104.53946 236.54545 104.91406 237.3418 C 105.08851 237.71265 106.11607 239.12124 106.93359 240.28516 z "
           style="fill:#ff0017;fill-opacity:1;stroke-width:0.17096895" />
      </g>
    </g>
    <g
       id="g1708"
       transform="translate(-1.8592152,0.52916667)">
      <g
         id="g1672">
        <path
           style="fill:#ff9f00;fill-opacity:1;stroke-width:0.55431098"
           d="m 62.677734,191.13477 c -2.25888,0 -5.919369,5.44619 -7.478515,11.1289 -0.684284,2.49404 -0.311967,4.54259 1.833984,10.07813 0.779611,2.01105 2.979062,1.61328 4.53125,-0.82032 1.195948,-1.87513 1.308594,-2.66763 1.308594,-9.16796 0,-3.91314 0.216456,-8.03726 0.482422,-9.16602 0.438856,-1.86259 0.3774,-2.05273 -0.677735,-2.05273 z"
           id="path1656"
           transform="matrix(0.26458333,0,0,0.26458333,0,229.26666)"
           inkscape:connector-curvature="0" />
        <path
           style="fill:#ff9f00;fill-opacity:1;stroke-width:0.55431098"
           d="m 202.90234,109.04102 c -1.36095,0 -6.69811,10.35306 -7.09179,13.75781 -0.18471,1.59749 0.1189,3.68609 0.88672,6.10937 0.70362,2.22085 1.03419,4.33105 0.83203,5.31641 -0.40337,1.96611 0.50192,2.17112 1.91601,0.43359 0.53735,-0.66017 2.28796,-2.57491 3.89063,-4.25586 4.76722,-5.00005 5.03052,-6.58774 2.0664,-12.43554 -1.69945,-3.35286 -1.98859,-4.42597 -1.75195,-6.47266 0.24468,-2.11616 0.14201,-2.45312 -0.74805,-2.45312 z"
           id="path1654"
           transform="matrix(0.26458333,0,0,0.26458333,0,229.26666)"
           inkscape:connector-curvature="0" />
        <path
           style="fill:#ff9f00;fill-opacity:1;stroke-width:0.55431098"
           d="m 99.927734,47.650391 c -1.514615,0.241285 -6.774197,5.329016 -7.90039,7.642578 -0.919964,1.889839 -0.757607,4.717116 0.390625,6.808593 0.825815,1.504215 1.630267,1.182654 4.496093,-1.792968 3.216768,-3.340007 4.548168,-6.471282 4.310548,-10.132813 -0.15284,-2.35559 -0.31906,-2.681107 -1.296876,-2.52539 z"
           id="path1652"
           transform="matrix(0.26458333,0,0,0.26458333,0,229.26666)"
           inkscape:connector-curvature="0" />
        <path
           style="fill:#ff9f00;fill-opacity:1;stroke-width:0.55431098"
           d="m 138.77539,15.773438 c -1.43789,0.434834 -1.89567,1.083594 -3.64062,5.154296 -2.24704,5.241941 -2.2197,6.898993 0.19726,12.103516 1.1722,2.524195 2.1933,5.630533 2.26953,6.902344 0.0762,1.271811 0.32834,2.610326 0.56055,2.976562 0.30483,0.480832 0.5887,0.37782 1.02344,-0.371094 0.33113,-0.57033 2.118,-2.447654 3.9707,-4.171874 l 3.36914,-3.134766 -0.0176,-3.205078 c -0.0155,-2.80664 -0.3423,-3.75057 -2.62109,-7.564453 -1.43176,-2.396221 -2.8901,-5.414421 -3.24024,-6.708985 -0.56034,-2.071332 -0.78507,-2.308909 -1.87109,-1.980468 z"
           id="path1650"
           transform="matrix(0.26458333,0,0,0.26458333,0,229.26666)"
           inkscape:connector-curvature="0" />
        <path
           style="fill:#ff9f00;fill-opacity:1;stroke-width:0.55431098"
           d="M 54.238281 238.71094 C 54.507758 238.74247 54.731511 238.79381 55.003906 238.82422 C 58.260972 239.18783 61.727635 239.47091 65.416016 239.6875 C 72.792777 240.12069 81.057489 240.28516 90.314453 240.28516 L 165.68555 240.28516 C 174.94251 240.28516 183.20722 240.12069 190.58398 239.6875 C 194.27236 239.47091 197.73903 239.18783 200.99609 238.82422 C 202.68023 238.6362 204.15641 238.36146 205.73047 238.12891 C 206.76832 234.64663 207.29654 231.16681 207.3457 226.52148 C 207.4099 220.45126 207.30921 219.88087 204.47461 210.45117 C 200.30577 196.58314 200.45245 195.1307 206.73242 188.11133 C 208.72243 185.887 210.64123 183.53704 210.99609 182.89062 C 212.41078 180.31387 211.21747 174.8004 209.47266 175.85156 C 209.11261 176.06847 208.32427 177.18847 207.7207 178.3418 C 206.29813 181.06003 203.76663 182.5405 199.35938 183.23242 C 194.95522 183.92381 194.07861 184.52814 191.12109 188.89648 C 189.68245 191.02141 188.35524 191.43232 186.33984 190.38086 C 185.53612 189.96156 185.25391 189.22999 185.25391 187.5625 C 185.25391 185.18038 185.7017 184.65159 193.82422 177.48047 C 199.29797 172.64785 199.79546 169.16502 196.54297 158.44141 C 193.46948 148.308 193.51526 147.28715 197.21289 143.47852 C 198.15828 142.50476 198.77061 141.55099 198.57422 141.35938 C 197.93272 140.73401 192.23916 141.72144 190.48438 142.76172 C 189.5125 143.33791 188.59922 144.45071 188.37305 145.33398 C 187.4928 148.77158 183.88043 150.08835 182.2207 147.57617 C 180.63718 145.17938 180.6106 142.74211 182.12109 138.13086 C 182.90931 135.72455 183.55872 132.69944 183.5625 131.4082 C 183.5705 128.83778 182.12907 125.60327 180.22852 123.92773 C 178.52718 122.42779 177.04224 123.36715 177.29883 125.78125 C 177.53596 128.01174 175.62309 130.83237 172.83594 132.35938 C 170.26282 133.76894 166.64033 133.79278 163.54297 132.42188 C 157.89198 129.92073 158.93287 125.63367 167.09766 117.78125 C 177.00176 108.25608 177.08082 101.58219 167.375 93.980469 C 158.59695 87.105319 157.52689 85.534135 159.99023 83.132812 C 161.66947 81.495636 161.41103 80.795229 159.28711 81.222656 C 155.82552 81.919223 153.47882 83.925957 151.60547 87.791016 C 150.19086 90.70968 149.47136 91.565873 147.88281 92.212891 C 145.16689 93.319121 142.43787 92.520333 138.12695 89.361328 C 132.31457 85.102141 132.35136 84.325245 138.70508 77.019531 C 143.43056 71.586082 144.5074 69.27857 143.77539 66.166016 C 142.827 62.133373 141.61593 60.677554 134.53711 55.056641 C 132.3377 53.310197 131.91797 52.673629 131.91797 51.087891 C 131.91797 49.200961 131.2605 48.755437 129.80469 49.65625 C 129.41394 49.898102 128.74102 51.897203 128.31055 54.099609 C 127.25788 59.485096 125.89528 60.331228 123.82812 56.880859 C 122.7671 55.109886 122.76619 54.968746 123.76562 50.013672 C 125.38266 41.996576 124.26533 38.359013 118.75977 33.708984 C 114.76603 30.335832 108.34433 26.216356 107.07617 26.214844 C 105.99048 26.213644 105.7364 27.575742 106.71289 28.164062 C 107.97332 28.923445 109.43675 33.111091 109.44922 35.992188 C 109.46062 38.697648 109.29065 39.087166 107.30078 40.917969 C 106.11245 42.01131 103.97548 43.708262 102.55078 44.6875 C 98.578031 47.418209 97.764267 51.935822 100.37305 56.792969 C 100.95908 57.884118 102.48581 60.699814 103.76562 63.048828 C 105.56049 66.343216 106.09375 67.918792 106.09375 69.941406 C 106.09375 73.431762 104.81061 74.592937 100.9375 74.626953 C 98.47135 74.645733 97.940346 74.448036 96.916016 73.123047 C 95.689166 71.536061 95.379724 68.164439 96.240234 65.755859 C 96.559444 64.862341 96.464654 64.523438 95.896484 64.523438 C 94.509064 64.523438 87.324328 68.169888 86.048828 69.521484 C 83.782332 71.923147 82.281938 76.007883 82.255859 79.847656 C 82.233319 83.166346 82.414694 83.689419 84.939453 87.642578 C 86.529534 90.132304 87.570595 92.367533 87.464844 93.060547 C 87.053431 95.755048 83.575153 95.741533 80.796875 93.033203 C 79.030074 91.31091 77.547728 86.969284 77.326172 82.863281 C 77.129232 79.213694 75.882408 78.957371 73.554688 82.089844 C 69.643648 87.352874 69.163133 93.707301 72.046875 102.05469 C 74.630458 109.53324 75.042201 110.1943 80.455078 115.55469 C 84.466823 119.5275 85.984809 120.6154 90.177734 122.5332 C 97.228306 125.75805 98.224056 126.304 100.88477 128.38867 C 104.76812 131.43123 105.40822 135.5105 102.48438 138.58594 C 100.404 140.77421 97.240746 140.59603 92.017578 137.99609 C 86.908979 135.45323 85.750997 133.98159 85.427734 129.625 C 85.232862 126.9988 85.009803 126.36553 84.363281 126.60742 C 83.91329 126.77599 83.331693 126.91211 83.072266 126.91211 C 82.81284 126.91211 81.823503 128.42908 80.873047 130.2832 C 79.535222 132.893 79.144531 134.37707 79.144531 136.85156 C 79.144531 140.36267 78.502583 140.89778 77.210938 138.46289 C 75.766203 135.73944 75.604395 132.7951 76.625 127.78125 C 77.157203 125.16691 77.444409 122.88316 77.263672 122.70703 C 76.035454 121.50971 68.716852 127.8591 65.304688 133.08203 C 61.932322 138.24407 61.494957 146.80506 64.322266 152.30469 C 67.092063 157.6924 73.419206 164.48872 80.267578 169.43359 C 84.42541 172.43579 86.587871 174.75883 86.349609 175.96484 C 85.79087 178.79303 78.829012 179.10887 76.451172 176.41406 C 75.365963 175.18402 75.150761 174.4576 75.380859 172.78516 C 75.640157 170.90049 75.544212 170.69531 74.408203 170.69531 C 72.990872 170.69531 72.05007 172.273 71.513672 175.54297 C 71.26067 177.08532 71.618691 178.86708 72.912109 182.48242 C 73.869252 185.15776 74.652344 187.86374 74.652344 188.49609 C 74.652344 189.76579 72.859485 191.53127 69.078125 193.98438 C 67.710552 194.87153 65.503017 197.03713 64.171875 198.79688 C 59.811192 204.56163 59.048827 210.11483 61.453125 218.58789 C 63.107314 224.41747 63.15895 225.29339 61.933594 226.61328 C 59.633959 229.09038 52.10141 226.75033 48.714844 222.50781 C 46.523458 219.76028 46.068227 219.42125 45.089844 219.78711 C 44.027433 220.18456 44.1761 223.11539 45.390625 225.69727 C 46.187893 227.39218 50.32941 233.33404 54.238281 238.71094 z "
           id="path1628"
           transform="matrix(0.26458333,0,0,0.26458333,1.8592152,228.73749)" />
      </g>
      <g
         style="fill:#ffe488;fill-opacity:1"
         transform="matrix(0.58374451,0,0,0.58374451,15.504232,122.03419)"
         id="g1684">
        <path
           style="fill:#ffe488;fill-opacity:1;stroke-width:0.32357597"
           d="M 87.035156 240.20703 C 88.220186 240.21299 89.095252 240.28516 90.314453 240.28516 L 165.68555 240.28516 C 169.46226 240.28516 172.39018 240.10294 175.84375 240.04102 C 176.38366 238.115 176.68378 236.16733 176.71094 233.60156 C 176.74841 230.0581 176.68984 229.72524 175.03516 224.2207 C 172.60162 216.12532 172.68762 215.27721 176.35352 211.17969 C 177.51517 209.88125 178.63465 208.51016 178.8418 208.13281 C 179.66761 206.62864 178.97165 203.40983 177.95312 204.02344 C 177.74295 204.15006 177.28202 204.80331 176.92969 205.47656 C 176.09927 207.06331 174.62154 207.92813 172.04883 208.33203 C 169.47792 208.73563 168.96667 209.08868 167.24023 211.63867 C 166.40044 212.87909 165.6257 213.11769 164.44922 212.50391 C 163.98005 212.25914 163.81445 211.83276 163.81445 210.85938 C 163.81445 209.46883 164.07688 209.16071 168.81836 204.97461 C 172.01363 202.15359 172.30292 200.11922 170.4043 193.85938 C 168.61016 187.94405 168.63645 187.34827 170.79492 185.125 C 171.34679 184.55657 171.70449 184.00053 171.58984 183.88867 C 171.21537 183.52362 167.89154 184.09977 166.86719 184.70703 C 166.29986 185.04338 165.76679 185.69338 165.63477 186.20898 C 165.12092 188.21566 163.01378 188.98405 162.04492 187.51758 C 161.12055 186.11847 161.10459 184.6957 161.98633 182.00391 C 162.44645 180.59924 162.82592 178.83383 162.82812 178.08008 C 162.83279 176.57961 161.99029 174.69098 160.88086 173.71289 C 159.88771 172.83731 159.02209 173.3857 159.17188 174.79492 C 159.3103 176.09696 158.19339 177.74338 156.56641 178.63477 C 155.06436 179.45759 152.94869 179.47214 151.14062 178.67188 C 147.84189 177.21184 148.45065 174.70881 153.2168 170.125 C 158.99826 164.56473 159.04463 160.66793 153.37891 156.23047 C 148.25477 152.21714 147.62845 151.3002 149.06641 149.89844 C 150.04665 148.94274 149.89608 148.53369 148.65625 148.7832 C 146.63557 149.18982 145.26543 150.36098 144.17188 152.61719 C 143.3461 154.32094 142.92731 154.82153 142 155.19922 C 140.4146 155.84497 138.82116 155.37921 136.30469 153.53516 C 132.91174 151.04888 132.93363 150.59475 136.64258 146.33008 C 139.40105 143.15833 140.02887 141.81108 139.60156 139.99414 C 139.04795 137.64011 138.34121 136.79094 134.20898 133.50977 C 132.92509 132.49029 132.67969 132.11903 132.67969 131.19336 C 132.67969 130.09187 132.29709 129.83158 131.44727 130.35742 C 131.21917 130.4986 130.8255 131.66553 130.57422 132.95117 C 129.95973 136.09492 129.16372 136.58835 127.95703 134.57422 C 127.33766 133.54042 127.33846 133.4589 127.92188 130.56641 C 128.86581 125.88647 128.21384 123.76326 125 121.04883 C 122.66868 119.07977 118.91997 116.67471 118.17969 116.67383 C 117.54592 116.67313 117.39678 117.46712 117.9668 117.81055 C 118.70257 118.25383 119.55717 120.69903 119.56445 122.38086 C 119.57111 123.96016 119.47212 124.18714 118.31055 125.25586 C 117.61687 125.89409 116.36877 126.88541 115.53711 127.45703 C 113.21804 129.05107 112.74276 131.6881 114.26562 134.52344 C 114.60772 135.16039 115.49901 136.80456 116.24609 138.17578 C 117.29384 140.09886 117.60547 141.01853 117.60547 142.19922 C 117.60547 144.23669 116.85661 144.91374 114.5957 144.93359 C 113.1561 144.94456 112.84599 144.8301 112.24805 144.05664 C 111.53188 143.13025 111.3512 141.16185 111.85352 139.75586 C 112.03985 139.23427 111.98401 139.03516 111.65234 139.03516 C 110.84244 139.03516 106.64886 141.16414 105.9043 141.95312 C 104.58124 143.35508 103.70468 145.73902 103.68945 147.98047 C 103.6763 149.91774 103.78205 150.22362 105.25586 152.53125 C 106.18406 153.98461 106.7922 155.28882 106.73047 155.69336 C 106.49031 157.26626 104.4597 157.25871 102.83789 155.67773 C 101.80653 154.67236 100.94183 152.13904 100.8125 149.74219 C 100.69754 147.61176 99.970122 147.4605 98.611328 149.28906 C 96.32828 152.36133 96.0471 156.07257 97.730469 160.94531 C 99.238621 165.31087 99.478935 165.69512 102.63867 168.82422 C 104.98051 171.14332 105.86686 171.77893 108.31445 172.89844 C 112.43019 174.78093 113.01128 175.09949 114.56445 176.31641 C 116.83134 178.09248 117.20483 180.47426 115.49805 182.26953 C 114.28364 183.54692 112.43767 183.44348 109.38867 181.92578 C 106.40656 180.4414 105.72972 179.5822 105.54102 177.03906 C 105.42726 175.50603 105.29733 175.13614 104.91992 175.27734 C 104.65724 175.37575 104.31745 175.45508 104.16602 175.45508 C 104.01458 175.45508 103.43764 176.33954 102.88281 177.42188 C 102.10186 178.94533 101.875 179.81334 101.875 181.25781 C 101.875 183.3074 101.50009 183.61862 100.74609 182.19727 C 99.902738 180.60747 99.806571 178.8897 100.40234 175.96289 C 100.71301 174.43678 100.88089 173.10281 100.77539 173 C 100.05843 172.30107 95.786754 176.00778 93.794922 179.05664 C 91.826322 182.06995 91.570277 187.06696 93.220703 190.27734 C 94.837557 193.42239 98.531597 197.3908 102.5293 200.27734 C 104.95641 202.02986 106.21916 203.38584 106.08008 204.08984 C 105.75392 205.74078 101.69079 205.92464 100.30273 204.35156 C 99.66925 203.63353 99.543416 203.2087 99.677734 202.23242 C 99.829098 201.13226 99.772514 201.01367 99.109375 201.01367 C 98.282016 201.01367 97.733041 201.93297 97.419922 203.8418 C 97.272233 204.74214 97.481302 205.7841 98.236328 207.89453 C 98.795055 209.45625 99.251953 211.03517 99.251953 211.4043 C 99.251953 212.14548 98.205395 213.17543 95.998047 214.60742 C 95.199734 215.1253 93.911812 216.39072 93.134766 217.41797 C 90.589241 220.78312 90.143379 224.0246 91.546875 228.9707 C 92.512499 232.37369 92.54342 232.88382 91.828125 233.6543 C 90.485726 235.10029 86.088217 233.73436 84.111328 231.25781 C 82.832119 229.65396 82.565266 229.45635 81.994141 229.66992 C 81.373964 229.90193 81.46095 231.61198 82.169922 233.11914 C 82.590047 234.01229 84.970619 237.33511 87.035156 240.20703 z "
           id="path1682"
           transform="matrix(0.45325194,0,0,0.45325194,-23.374981,182.7911)" />
      </g>
      <g
         id="g1696"
         transform="matrix(0.30843508,0,0,0.30843508,25.339905,202.56507)"
         style="fill:#fbffc6;fill-opacity:1">
        <path
           style="fill:#fbffc6;fill-opacity:1;stroke-width:0.17096895"
           d="M 106.93359 240.28516 L 154.47656 240.28516 C 154.65597 239.45645 154.85378 238.67796 154.86523 237.5957 C 154.88504 235.72343 154.85476 235.54712 153.98047 232.63867 C 152.69465 228.36128 152.74077 227.91307 154.67773 225.74805 C 155.29152 225.06199 155.88274 224.33805 155.99219 224.13867 C 156.42853 223.34391 156.05964 221.64258 155.52148 221.9668 C 155.41043 222.0337 155.16858 222.3806 154.98242 222.73633 C 154.54365 223.57473 153.7617 224.03073 152.40234 224.24414 C 151.04395 224.45739 150.77353 224.64289 149.86133 225.99023 C 149.4176 226.64564 149.00834 226.77353 148.38672 226.44922 C 148.13882 226.31989 148.05273 226.09439 148.05273 225.58008 C 148.05273 224.84535 148.19004 224.68253 150.69531 222.4707 C 152.38361 220.98015 152.53639 219.90519 151.5332 216.59766 C 150.58523 213.47216 150.59976 213.15714 151.74023 211.98242 C 152.03183 211.68208 152.22073 211.38723 152.16016 211.32812 C 151.9623 211.13524 150.20725 211.44086 149.66602 211.76172 C 149.36625 211.93944 149.08343 212.28226 149.01367 212.55469 C 148.74217 213.61496 147.62911 214.02094 147.11719 213.24609 C 146.62877 212.50684 146.62005 211.75626 147.08594 210.33398 C 147.32905 209.59179 147.53008 208.65803 147.53125 208.25977 C 147.53372 207.46696 147.08815 206.46992 146.50195 205.95312 C 145.9772 205.49049 145.51851 205.77884 145.59766 206.52344 C 145.6708 207.2114 145.08231 208.08175 144.22266 208.55273 C 143.42902 208.9875 142.3108 208.9951 141.35547 208.57227 C 139.61251 207.80082 139.93482 206.4786 142.45312 204.05664 C 145.5079 201.11874 145.53072 199.05948 142.53711 196.71484 C 139.82965 194.59431 139.49999 194.10979 140.25977 193.36914 C 140.7777 192.86418 140.69806 192.64942 140.04297 192.78125 C 138.97529 192.9961 138.25163 193.61452 137.67383 194.80664 C 137.23751 195.70686 137.01536 195.97036 136.52539 196.16992 C 135.68771 196.51112 134.84526 196.26536 133.51562 195.29102 C 131.72288 193.97733 131.7356 193.73771 133.69531 191.48438 C 135.15282 189.80851 135.48359 189.09674 135.25781 188.13672 C 134.9653 186.89291 134.59351 186.44462 132.41016 184.71094 C 131.73178 184.17227 131.60156 183.97543 131.60156 183.48633 C 131.60156 182.90433 131.39824 182.76708 130.94922 183.04492 C 130.8287 183.11952 130.62105 183.73476 130.48828 184.41406 C 130.1636 186.07514 129.74305 186.33765 129.10547 185.27344 C 128.77821 184.72721 128.77963 184.68262 129.08789 183.1543 C 129.58664 180.68154 129.24108 179.55923 127.54297 178.125 C 126.31116 177.0846 124.3306 175.81492 123.93945 175.81445 C 123.60459 175.81408 123.52694 176.23456 123.82812 176.41602 C 124.21689 176.65024 124.66803 177.94145 124.67188 178.83008 C 124.67539 179.66454 124.62156 179.78493 124.00781 180.34961 C 123.64129 180.68683 122.9824 181.20969 122.54297 181.51172 C 121.31763 182.35397 121.06645 183.74798 121.87109 185.24609 C 122.05185 185.58264 122.52323 186.45126 122.91797 187.17578 C 123.47157 188.19189 123.63672 188.67694 123.63672 189.30078 C 123.63672 190.37733 123.24148 190.7356 122.04688 190.74609 C 121.28623 190.75189 121.12258 190.69188 120.80664 190.2832 C 120.42824 189.79372 120.33224 188.75266 120.59766 188.00977 C 120.69611 187.73417 120.66743 187.63086 120.49219 187.63086 C 120.06426 187.63086 117.84653 188.755 117.45312 189.17188 C 116.75406 189.91263 116.29125 191.1731 116.2832 192.35742 C 116.27625 193.38102 116.3326 193.54243 117.11133 194.76172 C 117.60176 195.52964 117.92324 196.21789 117.89062 196.43164 C 117.76373 197.26272 116.6909 197.25917 115.83398 196.42383 C 115.28904 195.89261 114.83201 194.55354 114.76367 193.28711 C 114.70293 192.16145 114.31756 192.08266 113.59961 193.04883 C 112.39331 194.67213 112.24532 196.63045 113.13477 199.20508 C 113.93163 201.51173 114.05899 201.71581 115.72852 203.36914 C 116.96588 204.59449 117.43332 204.92997 118.72656 205.52148 C 120.90121 206.51614 121.20864 206.68514 122.0293 207.32812 C 123.22706 208.26656 123.42526 209.52408 122.52344 210.47266 C 121.88178 211.1476 120.90593 211.09293 119.29492 210.29102 C 117.71925 209.50671 117.36142 209.05271 117.26172 207.70898 C 117.20161 206.89897 117.133 206.70469 116.93359 206.7793 C 116.7948 206.83129 116.61517 206.87305 116.53516 206.87305 C 116.45514 206.87305 116.15058 207.34023 115.85742 207.91211 C 115.44479 208.71706 115.32422 209.17623 115.32422 209.93945 C 115.32422 211.0224 115.1269 211.18655 114.72852 210.43555 C 114.28291 209.59554 114.23208 208.68707 114.54688 207.14062 C 114.71103 206.33427 114.79989 205.6305 114.74414 205.57617 C 114.36532 205.20688 112.10712 207.16446 111.05469 208.77539 C 110.01453 210.36754 109.87991 213.0088 110.75195 214.70508 C 111.60626 216.36684 113.55764 218.46311 115.66992 219.98828 C 116.95234 220.91427 117.62036 221.62998 117.54688 222.00195 C 117.37454 222.87427 115.22755 222.9718 114.49414 222.14062 C 114.15942 221.76124 114.09309 221.53732 114.16406 221.02148 C 114.24404 220.44019 114.21367 220.37695 113.86328 220.37695 C 113.42613 220.37695 113.13615 220.86447 112.9707 221.87305 C 112.89267 222.34876 113.00341 222.89857 113.40234 224.01367 C 113.69756 224.83884 113.93945 225.67215 113.93945 225.86719 C 113.93945 226.25881 113.38505 226.80392 112.21875 227.56055 C 111.79694 227.83418 111.1176 228.50215 110.70703 229.04492 C 109.36204 230.82298 109.12562 232.53505 109.86719 235.14844 C 110.3774 236.94648 110.39357 237.2179 110.01562 237.625 C 109.30634 238.38902 106.98399 237.66596 105.93945 236.35742 C 105.26355 235.50999 105.12208 235.40669 104.82031 235.51953 C 104.49263 235.64212 104.53946 236.54545 104.91406 237.3418 C 105.08851 237.71265 106.11607 239.12124 106.93359 240.28516 z "
           id="path1694"
           transform="matrix(0.85782504,0,0,0.85782504,-76.128467,84.855534)" />
      </g>
    </g>
    <path
       sodipodi:nodetypes="sssssssss"
       inkscape:connector-curvature="0"
       id="path1068"
       d="M 361.9375,-212 C 507.2348,-212 528,-191.28677 528,-46.125 V 70.125 C 528,215.28618 507.2348,236 361.9375,236 H 214.0625 C 68.7652,236 48,215.28618 48,70.125 V -46.125 C 48,-191.28677 68.7652,-212 214.0625,-212 Z"
       style="display:inline;opacity:0.4;fill:none;fill-opacity:1;stroke:url(#linearGradient1108);stroke-width:8;stroke-linecap:round;stroke-linejoin:round;stroke-miterlimit:4;stroke-dasharray:none;stroke-dashoffset:0;stroke-opacity:1;enable-background:new"
       clip-path="url(#clipPath1082-3-361)"
       transform="matrix(0.1348539,0,0,0.1348539,-4.9712559,261.01666)" />
  </g>
</svg>
