<svg xmlns="http://www.w3.org/2000/svg" xmlns:xlink="http://www.w3.org/1999/xlink" style="isolation:isolate" width="256" height="256"><defs><clipPath id="h"><path d="M0 0h256v256H0z"/></clipPath><linearGradient id="a"><stop offset="0" stop-color="#fe5"/><stop offset=".426" stop-color="#feeb46"/><stop offset=".509" stop-color="#fc8f36"/><stop offset=".588" stop-color="#ef6422"/><stop offset=".668" stop-color="#e23a0e"/><stop offset=".937" stop-color="#b8017a" stop-opacity=".973"/><stop offset="1" stop-color="#b8017a"/></linearGradient><linearGradient id="b" x1="-316.3" x2="-308.032" y1="93.99" y2="120.69" gradientTransform="matrix(.30119 .00584 -.00583 .30163 118.479 -1.606)" gradientUnits="userSpaceOnUse"><stop stop-color="#c00e62" stop-opacity=".916"/><stop offset=".33" stop-color="#d63540" stop-opacity=".957"/><stop offset="1" stop-color="#7a5240" stop-opacity=".016"/></linearGradient><linearGradient id="c" x1="-258.127" x2="-181.748" y1="208.636" y2="298.314" gradientTransform="matrix(.28446 0 0 .36123 111.034 -12.577)" gradientUnits="userSpaceOnUse"><stop stop-color="#961725"/><stop offset=".196" stop-color="#f06824"/><stop offset=".541" stop-color="#f06723"/><stop offset="1" stop-color="#ffb000"/></linearGradient><linearGradient id="f" x1="-335.91" x2="-268.99" y1="120.49" y2="82.48" gradientTransform="matrix(.2958 .00573 -.00573 .2958 -23.568 1.33)" gradientUnits="userSpaceOnUse"><stop stop-color="#fee246"/><stop offset=".697" stop-color="#f59b00" stop-opacity=".506"/><stop offset="1" stop-color="#ffb900" stop-opacity=".016"/></linearGradient><radialGradient id="p" cx="71.144" cy="56.087" r="54.181" fx="71.144" fy="56.087" gradientTransform="matrix(1.36536 -.00043 0 1.39295 -20.745 -15.254)" gradientUnits="userSpaceOnUse" xlink:href="#a"/><radialGradient id="q" cx="19.076" cy="29.852" r="5.912" fx="19.076" fy="29.852" gradientTransform="matrix(1.42134 3.04377 -4.31628 2.01557 121.434 -78.019)" gradientUnits="userSpaceOnUse" xlink:href="#b"/><linearGradient id="r" x1="-226.75" x2="-170.39" gradientTransform="matrix(.22978 .0195 -.02092 .21414 101.188 30.48)" gradientUnits="userSpaceOnUse"><stop stop-color="#de4000"/><stop offset="1" stop-color="#fab600"/></linearGradient><linearGradient id="s" x1="-258.127" x2="-181.748" y1="208.636" y2="298.314" gradientTransform="matrix(.22599 0 0 .28697 95.992 11.95)" gradientUnits="userSpaceOnUse" xlink:href="#c"/><linearGradient id="t" x1="96.495" x2="106.134" y1="22.964" y2="21.464" gradientTransform="matrix(.79444 0 0 .79444 7.783 21.941)" gradientUnits="userSpaceOnUse" xlink:href="#d"/><linearGradient id="d"><stop offset="0" stop-color="#ffa200"/><stop offset="1" stop-color="#fffd00" stop-opacity="0"/></linearGradient><linearGradient id="u" x1="96.103" x2="103.022" y1="65.32" y2="96.216" gradientTransform="matrix(.80888 0 0 .81008 6.858 19.938)" gradientUnits="userSpaceOnUse" xlink:href="#e"/><linearGradient id="e"><stop offset="0" stop-color="#ffa200"/><stop offset="1" stop-color="#dca21c" stop-opacity="0"/></linearGradient><linearGradient id="v" x1="82.97" x2="107.648" y1="30.088" y2="73.27" gradientTransform="matrix(.79444 0 0 .79444 7.783 21.941)" gradientUnits="userSpaceOnUse" xlink:href="#f"/><linearGradient id="w" x1="116.796" x2="119.169" y1="64.772" y2="64.772" gradientTransform="rotate(2.374 -782.922 952.565) scale(.54766)" gradientUnits="userSpaceOnUse" xlink:href="#g"/><linearGradient id="g" x1="-226.75" x2="-170.39" gradientTransform="matrix(.28407 .02406 -.02586 .26434 -24.456 13.445)" gradientUnits="userSpaceOnUse"><stop stop-color="#de4000"/><stop offset="1" stop-color="#fab600"/></linearGradient><radialGradient id="x" cx="71.144" cy="56.087" r="54.181" fx="71.144" fy="56.087" gradientTransform="matrix(1.36536 -.00043 0 1.39295 -20.745 -15.254)" gradientUnits="userSpaceOnUse" xlink:href="#c"/></defs><g clip-path="url(#h)"><defs><filter id="i" width="270.648" height="254.338" x="-7.32" y="2.95" filterUnits="userSpaceOnUse"><feGaussianBlur in="SourceGraphic" stdDeviation="4.294"/><feOffset dy="4" result="pf_100_offsetBlur"/><feFlood flood-opacity=".4"/><feComposite in2="pf_100_offsetBlur" operator="in" result="pf_100_dropShadow"/><feBlend in="SourceGraphic" in2="pf_100_dropShadow"/></filter></defs><g filter="url(#i)"><linearGradient id="j" x1="-.033" x2="1.033" y1="-.071" y2=".995" gradientTransform="matrix(244.648 0 0 228.338 5.676 11.947)" gradientUnits="userSpaceOnUse"><stop offset="0%" stop-color="#5884f4"/><stop offset="100%" stop-color="#80a3fa"/></linearGradient><path fill="url(#j)" d="M165.685 11.947c74.055 0 84.639 10.557 84.639 84.544v59.251c0 73.986-10.584 84.543-84.639 84.543h-75.37c-74.055 0-84.639-10.557-84.639-84.543V96.491c0-73.987 10.584-84.544 84.639-84.544h75.37z"/></g><path fill="none" d="M166.444 11.95c74.406 0 85.04 10.557 85.04 84.544v59.251c0 73.986-10.634 84.543-85.04 84.543H90.719c-74.405 0-85.039-10.557-85.039-84.543V96.494c0-73.987 10.634-84.544 85.039-84.544h75.725z"/><path fill="#F7F7F7" fill-opacity=".5" d="M64.121 239.56c.55.036 1.021.098 1.581.131.435.025 1.027.011 1.468.035l-.039-7.592 26.629-24.465v-8.156l12.29-12.233v-6.115l6.144-6.117v-16.309l-8.193-8.156H87.614l-8.193-8.154H58.938l-8.195 8.154v20.389l16.443 14.34-.055 18.279-6.144 6.117v26.502l3.134 3.35zM99.904 81.267l-6.144 6.117h6.144l2.049 2.039h2.048l2.049-2.039-6.146-6.117zM177.742 109.809h-24.58l-14.338 14.271v20.388l10.241 10.194h14.339l6.145 6.116v6.116l4.097 4.077v24.465l15.556 16.365 25.688-25.567-.277-23.418 20.484-20.387h-8.194l-20.483-20.387v-8.155h-24.581l-4.097-4.078z"/><path fill="#F7F7F7" fill-opacity=".5" d="M251.484 117.964V96.493c0-9.248-.167-17.505-.603-24.875a197.93 197.93 0 0 0-.869-10.4c-.366-3.254-.812-6.298-1.352-9.147-.54-2.848-1.174-5.501-1.914-7.97-.739-2.469-1.585-4.756-2.551-6.871-.614-1.347-1.365-2.511-2.08-3.723l-2.922 2.908h-12.29l-12.29 12.233-8.193-8.155h-24.58l-12.29 12.233v10.193h12.29v-6.117h8.193v8.156l-4.098 4.076-16.385.276-6.146 5.841h-8.193v8.155l-6.146 6.117v12.23h12.29l8.195-8.154h8.193v4.078l8.192 8.155h4.098v-4.079l-8.193-8.154h8.193l8.192 8.154h10.242l-6.144-6.115 6.144-6.115h6.146l6.144 6.115h-6.144l-6.146 6.115 6.034 6.006.112 6.227h-8.193l24.581 24.465h4.095l4.097-4.076 8.193-8.157-8.193-8.154h12.291z"/><path fill="#F7F7F7" fill-opacity=".5" d="M157.259 71.073v-6.116l6.145-6.116v12.232h-6.145zM220.758 191.359v-12.784l8.194-7.604v20.388h-8.194zM136.775 11.95H90.718c-.789 0-1.348.049-2.123.051l-7.125 8.104 12.29 12.232V45.12l14.339 15.76h8.193v-8.154l12.29-12.233v-8.156l8.193-8.154V11.95zM126.533 56.802h6.146l6.145 6.116h-12.291v-6.116zM71.228 124.08h-6.145l-6.146 6.117h12.291v-6.117z"/><path fill="#F7F7F7" fill-opacity=".5" d="M16.585 30.96c-.107.152-.245.268-.35.422a39.514 39.514 0 0 0-3.267 5.848c-.965 2.115-1.811 4.402-2.551 6.871-.74 2.469-1.373 5.122-1.913 7.97-.54 2.849-.986 5.893-1.352 9.147a197.89 197.89 0 0 0-.87 10.4c-.436 7.37-.602 15.627-.602 24.875v21.471l8.193 8.154h12.29l20.485 20.389v-24.465l12.29-12.232h8.193l12.29-12.233h12.29l-6.144-6.117 12.29-14.269-12.29-12.233H67.131v16.309h-8.193l-8.195-8.155v-8.154l12.291-12.232h10.243v-8.157l-12.29-12.232H40.502v12.232H30.26L16.585 30.96zM67.131 12.515c-.429.023-1.005.008-1.429.033-3.705.217-7.189.5-10.461.863-3.272.364-6.334.808-9.199 1.344a80.758 80.758 0 0 0-7.159 1.699l7.765 7.729h20.483V12.515z"/><g><circle fill="#FFF" r="1" transform="translate(72.959 103.694) scale(4.078)" vector-effect="non-scaling-stroke"/><circle fill="#FFF" r="1" transform="translate(93.346 185.244) scale(4.078)" vector-effect="non-scaling-stroke"/><circle fill="#FFF" r="1" transform="translate(154.509 144.469) scale(4.078)" vector-effect="non-scaling-stroke"/><circle fill="#FFF" r="1" transform="translate(174.896 83.306) scale(4.078)" vector-effect="non-scaling-stroke"/><path fill="none" fill-rule="evenodd" stroke="#FFF" stroke-width="2" d="M5.68 138.353c68.415-49.089 150.868-57.085 244.65-59.124M7.252 59.908c20.973 15.048 41.693 29.384 65.226 43.833 53.234 32.684 112.819 59.511 177.852 60.924M155.018 141.411c20.097-43.077 32.367-78.596 27.252-129.117M140.057 239.946C70.119 187.607 64.499 114.679 76.551 12.294" vector-effect="non-scaling-stroke" opacity=".5"/><defs><filter id="k" width="20.732" height="20.732" x="62.59" y="93.33" filterUnits="userSpaceOnUse"><feGaussianBlur stdDeviation="2.7"/></filter></defs><circle fill="#FFF" r="1" transform="translate(72.959 103.694) scale(4.078)" vector-effect="non-scaling-stroke" filter="url(#k)"/><defs><filter id="l" width="20.732" height="20.732" x="82.98" y="174.88" filterUnits="userSpaceOnUse"><feGaussianBlur stdDeviation="2.7"/></filter></defs><circle fill="#FFF" r="1" transform="translate(93.346 185.244) scale(4.078)" vector-effect="non-scaling-stroke" filter="url(#l)"/><defs><filter id="m" width="20.732" height="20.732" x="144.14" y="134.1" filterUnits="userSpaceOnUse"><feGaussianBlur stdDeviation="2.7"/></filter></defs><circle fill="#FFF" r="1" transform="translate(154.509 144.469) scale(4.078)" vector-effect="non-scaling-stroke" filter="url(#m)"/><defs><filter id="n" width="20.732" height="20.732" x="164.53" y="72.94" filterUnits="userSpaceOnUse"><feGaussianBlur stdDeviation="2.7"/></filter></defs><circle fill="#FFF" r="1" transform="translate(174.896 83.306) scale(4.078)" vector-effect="non-scaling-stroke" filter="url(#n)"/><path fill="none" fill-rule="evenodd" stroke="#FFF" stroke-width="2" d="M153.937 144.278c-44.396 55.549-135.478 57.02-146.659 50.023" vector-effect="non-scaling-stroke" opacity=".5"/></g><g opacity=".4"><linearGradient id="o" x1=".517" x2=".517" y2="1"><stop offset="0%" stop-color="#fff"/><stop offset="12.5%" stop-opacity=".098" stop-color="#fff"/><stop offset="92.5%" stop-opacity=".098"/><stop offset="100%" stop-opacity=".498"/></linearGradient><path fill="none" stroke="url(#o)" stroke-linecap="round" stroke-linejoin="round" stroke-width="4.077" d="M165.685 11.947c74.055 0 84.639 10.557 84.639 84.544v59.251c0 73.986-10.584 84.543-84.639 84.543h-75.37c-74.055 0-84.639-10.557-84.639-84.543V96.491c0-73.987 10.584-84.544 84.639-84.544h75.37z" vector-effect="non-scaling-stroke"/></g><g style="isolation:isolate" enable-background="new"><path d="M153.07 52.19c-2.198-.01-9.194 12.61-11.327 20.433-3.994 14.65 1.153 26.707 16.453 38.543 10.243 7.924 14.013 11.464 16.838 15.815 3.428 5.278 3.887 7.148.717 2.915-3.567-4.763-12.687-12.21-12.659-10.338.005.304.517 2.106 1.138 4.007 1.635 5 1.455 14.08-.393 19.629-2.565 7.705-7.925 13.93-14.698 18.131-.031.19-5.59 5.162-5.59 5.162l-11.882 38.901c1.458-.09 3.13-.246 5.525-.48 14.207-1.388 22.232-4.317 29.3-10.696 2.507-2.263 7.202-5.556 10.43-7.319 3.23-1.762 7.576-4.626 9.661-6.366 4.941-4.12 9.225-11.923 9.47-17.248.13-2.836 1.044-5.39 3.738-10.468 2.389-4.503 4.051-8.91 5.044-13.373 2.175-9.779 1.917-19.33-.481-19.925-.273.543-.122 1.784-.273 1.863-.374.196-.782-1.761-.782-2.787 0-2.925-2.585-11.142-5.218-16.586-2.515-5.2-7.696-12.572-13.74-19.55-4.478-5.17-6.458-8.471-8.189-13.657l-1.198-3.585-1.112 3.694c-.612 2.033-1.32 3.697-1.573 3.697-.254 0-3.906-3.116-8.113-6.924-5.393-4.882-8.078-7.892-9.103-10.204-.8-1.804-1.69-3.282-1.983-3.283z" opacity=".2"/><path d="M73.596 64.56l-2.199 2.585c-4.33 5.09-8.187 15.379-8.187 21.836 0 1.481-1.245 4.149-3.496 7.495-3.165 4.707-7.747 14.6-8.978 19.384-.453 1.762-.409 1.748.743-.253.674-1.171 1.352-2.006 1.505-1.855.152.15-.403 2.797-1.235 5.88-1.62 6.005-2.781 17.274-1.505 14.607.495-1.033.736-1.15.777-.375.256 4.843 1.802 15.205 2.825 18.993l51.309 5.983c-.61-.693-.964-1.232-.785-1.408.152-.151 1.618.093 3.257.54 1.638.447 5.922.674 9.52.504 6.008-.284 7.139-.607 13.826-3.932 4.767-2.37 7.845-3.475 8.91-3.2 2.484.642 3.754-.178 3.754-2.426 0-3.865-6.014-7.556-12.292-7.544-2.211.004-5.697.512-7.746 1.126-5.884 1.765-11.084 1.466-14.567-.833-9.364-6.183-12.132-12.468-7.647-17.367 1.931-2.109 3.54-2.133 6.165-.091 2.761 2.147 3.518 1.187 3.695-4.68l.145-4.793 7.527-3.752c7.532-3.753 9.823-5.78 10.707-9.47.409-1.703.157-2.078-1.869-2.776-1.288-.444-4.473-1.036-7.077-1.317-2.604-.282-5.622-.957-6.708-1.5-2.237-1.118-4.477-4.137-4.477-6.036 0-2.213 4.688-8.598 8.494-11.572l3.664-2.864-3.351-.495c-4.529-.672-10.814 1.214-15.282 4.585-2.375 1.793-3.95 2.495-4.79 2.134-.69-.296-5.01-.742-9.6-.99l-8.347-.452-2.822-4.125c-1.85-2.706-3-5.404-3.342-7.837z" opacity=".182"/><path d="M121.292 209.859c-32.806-3.141-61.669-26.996-70.279-58.086-1.022-3.692-2.596-14.236-2.855-19.128-.04-.775-.283-.658-.778.375-1.276 2.666-.116-8.602 1.504-14.607.832-3.083 1.388-5.729 1.235-5.88-.152-.15-.829.684-1.503 1.855-1.151 2.001-1.196 2.016-.742.254 1.23-4.785 5.812-14.678 8.978-19.385 2.25-3.347 3.494-6.015 3.494-7.496 0-6.457 3.858-16.747 8.188-21.837l2.2-2.584.52 3.71c.342 2.433 1.492 5.129 3.342 7.835l2.822 4.126 8.346.452c4.59.248 8.91.693 9.6.989.84.36 2.415-.34 4.79-2.133 4.468-3.37 10.755-5.258 15.283-4.586l3.349.496-3.664 2.864c-3.806 2.974-8.492 9.36-8.492 11.574 0 1.899 2.238 4.916 4.476 6.035 1.085.542 4.104 1.216 6.708 1.498 2.604.281 5.789.875 7.077 1.319 2.026.698 2.279 1.073 1.87 2.776-.884 3.691-3.176 5.718-10.707 9.47l-7.527 3.751-.145 4.794c-.177 5.866-.936 6.827-3.697 4.68-2.625-2.042-4.234-2.018-6.164.09-4.486 4.9-1.718 11.185 7.646 17.368 3.483 2.3 8.684 2.596 14.57.831 2.048-.614 5.534-1.12 7.745-1.125 6.277-.012 12.292 3.679 12.292 7.543 0 2.249-1.27 3.07-3.755 2.427-1.065-.275-4.142.831-8.91 3.202-6.686 3.324-7.818 3.646-13.825 3.93-3.598.17-7.883-.057-9.521-.504-1.639-.447-3.104-.69-3.257-.539-.818.81 8.296 8.43 12.285 10.272 20.109 9.288 44.723-1.453 51.257-22.368 1.847-5.913 2.03-15.588.394-20.917-.621-2.026-1.133-3.948-1.138-4.272-.028-1.995 9.09 5.94 12.658 11.017 3.17 4.512 2.71 2.52-.718-3.106-2.826-4.637-6.595-8.41-16.837-16.854-15.3-12.614-20.447-25.463-16.453-41.076 2.133-8.339 9.128-21.787 11.327-21.776.292.002 1.185 1.576 1.985 3.498 1.025 2.464 3.71 5.67 9.103 10.874 4.207 4.059 7.856 7.38 8.11 7.38.254 0 .962-1.773 1.575-3.939l1.113-3.938 1.196 3.82c1.731 5.527 3.712 9.047 8.19 14.558 6.044 7.435 11.224 15.29 13.74 20.833 2.632 5.802 5.217 14.559 5.217 17.676 0 1.093.408 3.179.782 2.97.15-.085 0-1.406.273-1.984 2.398.635 2.655 10.811.48 21.233-.993 4.756-2.655 9.454-5.044 14.252-2.693 5.412-3.605 8.134-3.735 11.157-.245 5.675-4.53 13.99-9.47 18.382-2.086 1.853-6.433 4.906-9.662 6.785-3.23 1.878-7.923 5.388-10.43 7.8-7.068 6.798-15.095 9.921-29.302 11.4-7.857.819-8.24.818-17.11-.031z" opacity=".3" fill="#020202"/><path d="M55.955 117.056C38.06 115.343 22.317 102.33 17.62 85.372c-.558-2.013-1.416-7.765-1.558-10.433-.022-.423-.154-.359-.424.205-.696 1.454-.063-4.692.82-7.968.454-1.681.757-3.125.674-3.207-.083-.082-.452.373-.82 1.012-.628 1.091-.652 1.1-.405.138.671-2.61 3.17-8.006 4.897-10.573 1.228-1.826 1.906-3.281 1.906-4.09 0-3.521 2.105-9.134 4.467-11.91l1.2-1.41.283 2.024c.187 1.327.814 2.798 1.823 4.274l1.54 2.25 4.552.247c2.504.135 4.86.378 5.236.54.458.196 1.318-.186 2.613-1.164 2.437-1.839 5.866-2.868 8.336-2.502l1.827.271-1.999 1.562c-2.076 1.622-4.632 5.106-4.632 6.313 0 1.036 1.22 2.682 2.441 3.292.593.296 2.24.664 3.66.817 1.42.153 3.157.477 3.86.72 1.105.38 1.243.585 1.02 1.514-.483 2.013-1.733 3.119-5.84 5.166l-4.106 2.045-.08 2.615c-.096 3.2-.51 3.724-2.016 2.553-1.432-1.114-2.31-1.101-3.362.05-2.447 2.672-.937 6.1 4.17 9.472 1.9 1.254 4.738 1.416 7.947.454 1.118-.335 3.02-.612 4.225-.614 3.424-.006 6.705 2.006 6.705 4.115 0 1.226-.693 1.674-2.048 1.323-.58-.15-2.26.454-4.86 1.746-3.647 1.814-4.264 1.99-7.54 2.144-1.964.093-4.3-.03-5.194-.274-.894-.244-1.694-.377-1.777-.294-.446.44 4.525 4.597 6.701 5.602 10.969 5.066 24.394-.792 27.958-12.2 1.008-3.226 1.108-8.503.216-11.41-.34-1.105-.619-2.153-.621-2.33-.015-1.088 4.958 3.24 6.904 6.01 1.73 2.46 1.478 1.374-.392-1.695-1.54-2.529-3.597-4.587-9.183-9.193-8.346-6.88-11.153-13.889-8.975-22.405 1.164-4.548 4.98-11.884 6.179-11.877.159 0 .646.859 1.082 1.907.56 1.344 2.023 3.093 4.965 5.932 2.295 2.213 4.286 4.025 4.424 4.025.139 0 .525-.967.859-2.149l.607-2.148.653 2.084c.944 3.015 2.024 4.935 4.467 7.94 3.296 4.057 6.122 8.341 7.494 11.364 1.436 3.165 2.846 7.941 2.846 9.642 0 .596.223 1.734.426 1.62.083-.047 0-.767.15-1.083 1.308.347 1.448 5.898.261 11.582-.541 2.594-1.448 5.157-2.75 7.774-1.47 2.952-1.967 4.437-2.038 6.086-.134 3.095-2.47 7.63-5.166 10.026-1.137 1.011-3.509 2.676-5.27 3.7-1.761 1.025-4.321 2.94-5.69 4.256-3.854 3.708-8.232 5.411-15.982 6.218-4.285.446-4.494.446-9.332-.017z" fill="url(#p)" transform="matrix(1.83333 0 0 1.83333 20.342 -6.377)"/><path d="M22.63 51.131c2.34-4.134 4.769-4.718 9.393-5.447-2.544-2.525-3.386-6-3.646-8.548-3.252 3.767-5.68 8.57-5.748 13.994" fill="url(#q)" fill-rule="evenodd" transform="matrix(1.83333 0 0 1.83333 20.342 -6.377)"/><path d="M49.54 64.336c1.894-1.557 11.371-4.22 9.18-8.532-3.51-1.186-8.687.299-10.847-4.606-2.576 6.686-.914 10.302 1.119 13.307" opacity=".65" fill="url(#r)" fill-rule="evenodd" transform="matrix(1.83333 0 0 1.83333 20.342 -6.377)"/><path d="M44.082 69.02c-10.685 1.336-9.269 7.495-8.511 14.723l2.736-2.871c1.92 7.03 13.253 5.906 19.537 3.446 2.862-1.12 5.236-.585 6.344-.014 3.177 1.192 2.383-1.986 2.383-1.986-2.383-3.972-8.739-3.635-11.037-2.52-1.419.69-3.978.898-6.328.12-2.98-.986-5.674-3.955-6.856-6.733-.149-.282-.062-.936-.017-1.221.123-.795.405-1.562 1.749-2.944" opacity=".45" fill="url(#s)" fill-rule="evenodd" transform="matrix(1.83333 0 0 1.83333 20.342 -6.377)"/><path d="M85.886 35.864l-1.444 4.32 2.99 2.01 2.14 1.853-1.532-2.387-.653-1.371-.736-2.091z" fill="url(#t)" transform="matrix(1.83333 0 0 1.83333 20.342 -6.377)"/><path d="M199.06 162.454l-12.958 16.757s3.41-1.774 5.483-3.26c1.86-1.334 3.607-2.82 4.74-4.973 1.526-2.901 2.549-7.54 2.549-7.54" opacity=".8" fill="#de3518"/><path d="M170.886 195.26l-19.743 7.633s4.336.197 6.845-.263c2.67-.49 5.166-1.248 7.248-2.505 2.804-1.692 4.982-4.119 4.982-4.119" opacity=".8" fill="#ab135f" fill-opacity=".976"/><path d="M80.297 67.456l3.12 2.7s1.986 1.988 3.015 3.423c1.502 2.147 1.06 1.085 1.06 1.085.28.678-.235-.266.617 1.142.795 1.314.8 1.63 1.133 2.52 1.033 2.759 2.111 6.36 2.116 7.195.755 2.993-1.028 7.362-1.029 7.366-.88 2.856-2.409 5.574-2.966 6.147-.557.574-1.306 2.097-2.049 2.969-1.13 1.325-3.507 3.667-3.507 3.667l-4.923 4.142s-5.804-9.087-4.911-9.89c.893-.804 7.159-3.069 9.003-5.55 1.534-2.065 3.253-4.145 3.976-6.615.753-2.57.632-5.384.23-8.033-.363-2.392-2.176-6.33-2.352-6.867-.294-.9-3.21-5.4-3.21-5.4z" fill="url(#u)" transform="matrix(1.83333 0 0 1.83333 20.342 -6.377)"/><path d="M73.868 28.39s-2.742 5.398-3.49 8.306c-.606 2.348-.905 4.81-.774 7.231.127 2.335 1.014 6.156 1.495 6.852.59.697 2.034 3.458 3.37 4.936 2.427 2.681 5.494 4.707 8.306 6.98 1.423 1.152 2.781 2.053 4.333 3.371 1.552 1.319 3.506 2.846 4.936 4.574 1.688 2.042 3.24 4.276 4.212 6.74 1.42 3.6 2.222 11.394 2.222 11.394l-.416.948-.485 1.768-4.21 3.344s-2.474-11.841-3.61-15.166c-1.137-3.325-2.266-5.004-2.266-5.004l-1.802-3.272-1.943-2.505-2.461-2.346s-2.55-2.3-3.673-3.222c-1.123-.92-3.865-3.379-3.865-3.379l-2.166-2.42s-1.673-2.363-2.231-3.349c-.56-.986-.827-1.612-1.175-2.524-.348-.911-.816-2.95-.816-2.95s-.19-1.183-.253-2.431c-.031-.608-.05-.954.012-2.008.031-.54.145-1.16.223-1.771.083-.646.242-1.402.386-1.968.084-.331.124-.481.19-.76.15-.634.507-1.52.772-2.248.292-.805.952-2.404.952-2.404s1.503-3.324 2.542-4.79c.168-.238.364-.599.611-.924.178-.233.296-.374.458-.55.274-.295.616-.452.616-.452z" opacity=".35" fill="url(#v)" transform="matrix(1.83333 0 0 1.83333 20.342 -6.377)"/><path d="M101.922 67.431l-.818 7.918s.807-1.42 1.082-2.338c.292-.979.465-1.944.4-2.856-.088-1.228-.529-2.373-.529-2.373" opacity=".8" fill="url(#w)" transform="matrix(1.83333 0 0 1.83333 20.342 -6.377)"/><path d="M38.308 80.872l-1.651 1.732 6.984 6.015 2.392.41c-.62-.616-1.005-1.101-.872-1.234.084-.082.883.05 1.777.294.894.244 3.23.367 5.193.274 3.277-.154 3.896-.33 7.543-2.144 2.6-1.293 4.278-1.896 4.858-1.746.411.107.754.13 1.043.09-.347.032-.798-.038-1.387-.259-1.108-.57-3.482-1.106-6.344.014-6.283 2.46-17.616 3.584-19.536-3.446zm27.509 3.643a1.336 1.336 0 0 1-.199.042c.069-.011.138-.022.199-.042z" opacity=".758" fill="url(#x)" transform="matrix(1.83333 0 0 1.83333 20.342 -6.377)"/></g></g></svg>