<svg xmlns="http://www.w3.org/2000/svg" xmlns:xlink="http://www.w3.org/1999/xlink" width="256" height="256" style="isolation:isolate"><defs><clipPath id="b"><path d="M0 0h256v256H0z"/></clipPath><linearGradient id="k" x1="-14694.371" x2="-14431.129" y1="-8233.56" y2="-8233.56" gradientTransform="matrix(.12455 .00556 -.00817 .18306 1919.98 2470.61)" gradientUnits="userSpaceOnUse"><stop offset="0" stop-color="#0083ff"/><stop offset=".098" stop-color="#0092f8"/><stop offset=".306" stop-color="#00abeb"/><stop offset=".521" stop-color="#00bee1"/><stop offset=".747" stop-color="#00c8dc"/><stop offset=".999" stop-color="#00ccda"/></linearGradient><linearGradient id="a" x1="575.987" x2="384.549" y1="731.188" y2="104.96" gradientTransform="translate(1)" gradientUnits="userSpaceOnUse"><stop offset="0" stop-color="#000f43" stop-opacity=".4"/><stop offset=".485" stop-color="#001962" stop-opacity=".173"/><stop offset="1" stop-color="#002079" stop-opacity="0"/></linearGradient><linearGradient id="m" x1="576.987" x2="385.549" y1="731.188" y2="104.96" xlink:href="#a"/><linearGradient id="d" x1="-8290.06" x2="-8405.305" y1="-6383.717" y2="-6392.613" gradientTransform="rotate(5.757 -22929.945 18221.073) scale(.20025)" gradientUnits="userSpaceOnUse"><stop offset="0" stop-color="#812cc9"/><stop offset="1" stop-color="#005fe7"/></linearGradient><linearGradient id="n" x1="-8375.033" x2="-8267.083" y1="-6548.775" y2="-6660.898" gradientTransform="rotate(5.757 -22929.945 18221.073) scale(.20025)" gradientUnits="userSpaceOnUse"><stop offset=".049" stop-color="#005fe7"/><stop offset=".177" stop-color="#065de6"/><stop offset=".353" stop-color="#1856e1"/><stop offset=".557" stop-color="#354adb"/><stop offset=".78" stop-color="#5d3ad1"/><stop offset=".951" stop-color="#812cc9"/></linearGradient><linearGradient id="o" x1="-8575.321" x2="-8344.433" y1="-6281.033" y2="-6280.491" gradientTransform="rotate(5.757 -22929.945 18221.073) scale(.20025)" gradientUnits="userSpaceOnUse"><stop offset="0" stop-color="#002079"/><stop offset=".995" stop-color="#a238ff"/></linearGradient><linearGradient id="q" x1="-7424.608" x2="-7496.699" y1="-8151.933" y2="-7341.604" gradientTransform="translate(1652.102 2442.825) scale(.20022)" gradientUnits="userSpaceOnUse"><stop offset="0" stop-color="#00ec00"/><stop offset=".096" stop-color="#00e244"/><stop offset=".219" stop-color="#00d694"/><stop offset=".306" stop-color="#00cfc7"/><stop offset=".348" stop-color="#00ccda"/><stop offset=".422" stop-color="#0bc2dd" stop-opacity=".923"/><stop offset=".567" stop-color="#29a7e4" stop-opacity=".723"/><stop offset=".77" stop-color="#597df0" stop-opacity=".401"/><stop offset="1" stop-color="#9448ff" stop-opacity="0"/></linearGradient><linearGradient id="r" x1="-8848.495" x2="-8712.027" y1="-6716.143" y2="-6716.143" gradientTransform="rotate(5.67 -90364.99 106952.151) scale(1.225)" gradientUnits="userSpaceOnUse"><stop offset="0" stop-color="#005fe7"/><stop offset=".464" stop-color="#0071f3" stop-opacity=".508"/><stop offset=".833" stop-color="#007efc" stop-opacity=".143"/><stop offset="1" stop-color="#0083ff" stop-opacity="0"/></linearGradient><linearGradient id="t" x1="271.573" x2="153.751" y1="-1032.953" y2="-1284.791" gradientTransform="rotate(5.741 -10369.09 539.966) scale(.16345)" gradientUnits="userSpaceOnUse"><stop offset=".187" stop-color="#4a1475" stop-opacity=".5"/><stop offset=".617" stop-color="#2277ac" stop-opacity=".23"/><stop offset=".944" stop-color="#00ccda" stop-opacity="0"/></linearGradient><linearGradient id="u" x1="23.351" x2="117.458" y1="718.695" y2="825.582" gradientTransform="rotate(5.741 -7785.818 1193.552) scale(.16345)" gradientUnits="userSpaceOnUse"><stop offset=".005" stop-color="#002079" stop-opacity=".5"/><stop offset="1" stop-color="#0083ff" stop-opacity="0"/></linearGradient><linearGradient id="v" x1="201.417" x2="201.465" y1="902.047" y2="848.624" gradientTransform="rotate(5.741 -7785.818 1193.552) scale(.16345)" gradientUnits="userSpaceOnUse"><stop offset=".005" stop-color="#4a1475" stop-opacity=".9"/><stop offset=".184" stop-color="#6720a2" stop-opacity=".603"/><stop offset=".382" stop-color="#812acb" stop-opacity=".341"/><stop offset=".575" stop-color="#9332e8" stop-opacity=".152"/><stop offset=".759" stop-color="#9e36f9" stop-opacity=".039"/><stop offset=".926" stop-color="#a238ff" stop-opacity="0"/></linearGradient><linearGradient id="w" x1="656.848" x2="962.504" y1="38.12" y2="721.615" gradientTransform="translate(30.382 824.841) scale(.16345)" gradientUnits="userSpaceOnUse"><stop offset="0" stop-color="#00ec00" stop-opacity="0"/><stop offset=".28" stop-color="#00dc6d" stop-opacity=".499"/><stop offset=".499" stop-color="#00d1bb" stop-opacity=".859"/><stop offset=".598" stop-color="#00ccda"/><stop offset=".677" stop-color="#04c9db"/><stop offset=".753" stop-color="#0fc1df"/><stop offset=".828" stop-color="#23b2e6"/><stop offset=".902" stop-color="#3e9ef0"/><stop offset=".975" stop-color="#6184fc"/><stop offset=".985" stop-color="#6680fe"/></linearGradient><linearGradient id="x" x1="717.202" x2="572.416" y1="431.21" y2="819.96" gradientTransform="translate(30.382 824.841) scale(.16345)" gradientUnits="userSpaceOnUse"><stop offset="0" stop-color="#0083ff"/><stop offset=".036" stop-color="#0083ff" stop-opacity=".923"/><stop offset=".145" stop-color="#0083ff" stop-opacity=".709"/><stop offset=".258" stop-color="#0083ff" stop-opacity=".52"/><stop offset=".372" stop-color="#0083ff" stop-opacity=".36"/><stop offset=".489" stop-color="#0083ff" stop-opacity=".23"/><stop offset=".607" stop-color="#0083ff" stop-opacity=".129"/><stop offset=".73" stop-color="#0083ff" stop-opacity=".057"/><stop offset=".857" stop-color="#0083ff" stop-opacity=".014"/><stop offset="1" stop-color="#0083ff" stop-opacity="0"/></linearGradient><linearGradient id="l" x1="575.987" x2="384.549" y1="731.188" y2="104.96" gradientTransform="translate(1)" gradientUnits="userSpaceOnUse" xlink:href="#a"/><radialGradient id="p" cx="680.431" cy="386.174" r="793.95" fx="821.363" fy="257.029" gradientTransform="translate(30.382 824.841) scale(.16345)" gradientUnits="userSpaceOnUse"><stop offset=".203" stop-color="#00fdff"/><stop offset=".264" stop-color="#0af1ff"/><stop offset=".372" stop-color="#23d2ff"/><stop offset=".517" stop-color="#4da0ff"/><stop offset=".689" stop-color="#855bff"/><stop offset=".77" stop-color="#a238ff"/><stop offset=".809" stop-color="#a738fd"/><stop offset=".855" stop-color="#b539f9"/><stop offset=".905" stop-color="#cd39f1"/><stop offset=".956" stop-color="#ee3ae6"/><stop offset=".979" stop-color="#ff3be0"/></radialGradient><radialGradient id="s" cx="-8836.504" cy="-6769.718" r="165.973" gradientTransform="rotate(5.67 -90364.99 106952.151) scale(1.225)" gradientUnits="userSpaceOnUse"><stop offset=".625" stop-color="#ffe302" stop-opacity="0"/><stop offset=".67" stop-color="#ffe302" stop-opacity=".051"/><stop offset=".751" stop-color="#ffe302" stop-opacity=".185"/><stop offset=".862" stop-color="#ffe302" stop-opacity=".403"/><stop offset=".995" stop-color="#ffe302" stop-opacity=".7"/></radialGradient></defs><g clip-path="url(#b)"><defs><filter id="c" width="270.648" height="254.338" x="-7.32" y="2.95" filterUnits="userSpaceOnUse"><feGaussianBlur in="SourceGraphic" stdDeviation="4.294"/><feOffset dy="4" result="pf_100_offsetBlur"/><feFlood flood-opacity=".4"/><feComposite in2="pf_100_offsetBlur" operator="in" result="pf_100_dropShadow"/><feBlend in="SourceGraphic" in2="pf_100_dropShadow"/></filter></defs><g filter="url(#c)"><linearGradient id="e" x1=".51" x2=".512" y1="1.06" y2=".158" gradientTransform="matrix(244.648 0 0 228.338 5.676 11.947)" gradientUnits="userSpaceOnUse" spreadMethod="reflect" xlink:href="#d"><stop offset="0" stop-color="#6755fb"/><stop offset="100" stop-color="#ab9cd1"/></linearGradient><path fill="url(#e)" d="M165.685 11.947c74.055 0 84.639 10.557 84.639 84.544v59.251c0 73.986-10.584 84.543-84.639 84.543h-75.37c-74.055 0-84.639-10.557-84.639-84.543V96.491c0-73.987 10.584-84.544 84.639-84.544h75.37z" fill-rule="evenodd"/></g><path fill="none" d="M166.444 11.95c74.406 0 85.04 10.557 85.04 84.544v59.251c0 73.986-10.634 84.543-85.04 84.543H90.719c-74.405 0-85.039-10.557-85.039-84.543V96.494c0-73.987 10.634-84.544 85.039-84.544h75.725z"/><path fill="#F7F7F7" fill-opacity=".5" d="M64.121 239.56c.55.036 1.021.098 1.581.131.435.025 1.027.011 1.468.035l-.039-7.592 26.629-24.465v-8.156l12.29-12.233v-6.115l6.144-6.117v-16.309l-8.193-8.156H87.614l-8.193-8.154H58.938l-8.195 8.154v20.389l16.443 14.34-.055 18.279-6.144 6.117v26.502l3.134 3.35zM99.904 81.267l-6.144 6.117h6.144l2.049 2.039h2.048l2.049-2.039-6.146-6.117zm77.838 28.542h-24.58l-14.338 14.271v20.388l10.241 10.194h14.339l6.145 6.116v6.116l4.097 4.077v24.465l15.556 16.365 25.688-25.567-.277-23.418 20.484-20.387h-8.194l-20.483-20.387v-8.155h-24.581l-4.097-4.078z"/><path fill="#F7F7F7" fill-opacity=".5" d="M251.484 117.964V96.493c0-9.248-.167-17.505-.603-24.875a197.93 197.93 0 0 0-.869-10.4c-.366-3.254-.812-6.298-1.352-9.147-.54-2.848-1.174-5.501-1.914-7.97-.739-2.469-1.585-4.756-2.551-6.871-.614-1.347-1.365-2.511-2.08-3.723l-2.922 2.908h-12.29l-12.29 12.233-8.193-8.155h-24.58l-12.29 12.233v10.193h12.29v-6.117h8.193v8.156l-4.098 4.076-16.385.276-6.146 5.841h-8.193v8.155l-6.146 6.117v12.23h12.29l8.195-8.154h8.193v4.078l8.192 8.155h4.098v-4.079l-8.193-8.154h8.193l8.192 8.154h10.242l-6.144-6.115 6.144-6.115h6.146l6.144 6.115h-6.144l-6.146 6.115 6.034 6.006.112 6.227h-8.193l24.581 24.465h4.095l4.097-4.076 8.193-8.157-8.193-8.154h12.291z"/><path fill="#F7F7F7" fill-opacity=".5" d="M157.259 71.073v-6.116l6.145-6.116v12.232h-6.145zm63.499 120.286v-12.784l8.194-7.604v20.388h-8.194zM136.775 11.95H90.718c-.789 0-1.348.049-2.123.051l-7.125 8.104 12.29 12.232V45.12l14.339 15.76h8.193v-8.154l12.29-12.233v-8.156l8.193-8.154V11.95zm-10.242 44.852h6.146l6.145 6.116h-12.291v-6.116zM71.228 124.08h-6.145l-6.146 6.117h12.291v-6.117z"/><path fill="#F7F7F7" fill-opacity=".5" d="M16.585 30.96c-.107.152-.245.268-.35.422a39.514 39.514 0 0 0-3.267 5.848c-.965 2.115-1.811 4.402-2.551 6.871-.74 2.469-1.373 5.122-1.913 7.97-.54 2.849-.986 5.893-1.352 9.147a197.89 197.89 0 0 0-.87 10.4c-.436 7.37-.602 15.627-.602 24.875v21.471l8.193 8.154h12.29l20.485 20.389v-24.465l12.29-12.232h8.193l12.29-12.233h12.29l-6.144-6.117 12.29-14.269-12.29-12.233H67.131v16.309h-8.193l-8.195-8.155v-8.154l12.291-12.232h10.243v-8.157l-12.29-12.232H40.502v12.232H30.26L16.585 30.96zm50.546-18.445c-.429.023-1.005.008-1.429.033-3.705.217-7.189.5-10.461.863-3.272.364-6.334.808-9.199 1.344a80.758 80.758 0 0 0-7.159 1.699l7.765 7.729h20.483V12.515z"/><circle fill="#FFF" r="1" transform="translate(72.959 103.694) scale(4.078)" vector-effect="non-scaling-stroke"/><circle fill="#FFF" r="1" transform="translate(93.346 185.244) scale(4.078)" vector-effect="non-scaling-stroke"/><circle fill="#FFF" r="1" transform="translate(154.509 144.469) scale(4.078)" vector-effect="non-scaling-stroke"/><circle fill="#FFF" r="1" transform="translate(174.896 83.306) scale(4.078)" vector-effect="non-scaling-stroke"/><path fill="none" fill-rule="evenodd" stroke="#FFF" stroke-width="2" d="M5.68 138.353c68.415-49.089 150.868-57.085 244.65-59.124M7.252 59.908c20.973 15.048 41.693 29.384 65.226 43.833 53.234 32.684 112.819 59.511 177.852 60.924m-95.312-23.254c20.097-43.077 32.367-78.596 27.252-129.117m-42.213 227.652C70.119 187.607 64.499 114.679 76.551 12.294" vector-effect="non-scaling-stroke" opacity=".5"/><defs><filter id="f" width="20.732" height="20.732" x="62.59" y="93.33" filterUnits="userSpaceOnUse"><feGaussianBlur stdDeviation="2.7"/></filter></defs><circle fill="#FFF" r="1" transform="translate(72.959 103.694) scale(4.078)" vector-effect="non-scaling-stroke" filter="url(#f)"/><defs><filter id="g" width="20.732" height="20.732" x="82.98" y="174.88" filterUnits="userSpaceOnUse"><feGaussianBlur stdDeviation="2.7"/></filter></defs><circle fill="#FFF" r="1" transform="translate(93.346 185.244) scale(4.078)" vector-effect="non-scaling-stroke" filter="url(#g)"/><defs><filter id="h" width="20.732" height="20.732" x="144.14" y="134.1" filterUnits="userSpaceOnUse"><feGaussianBlur stdDeviation="2.7"/></filter></defs><circle fill="#FFF" r="1" transform="translate(154.509 144.469) scale(4.078)" vector-effect="non-scaling-stroke" filter="url(#h)"/><defs><filter id="i" width="20.732" height="20.732" x="164.53" y="72.94" filterUnits="userSpaceOnUse"><feGaussianBlur stdDeviation="2.7"/></filter></defs><circle fill="#FFF" r="1" transform="translate(174.896 83.306) scale(4.078)" vector-effect="non-scaling-stroke" filter="url(#i)"/><path fill="none" fill-rule="evenodd" stroke="#FFF" stroke-width="2" d="M153.937 144.278c-44.396 55.549-135.478 57.02-146.659 50.023" vector-effect="non-scaling-stroke" opacity=".5"/><g opacity=".4"><linearGradient id="j" x1=".517" x2=".517" y2="1"><stop offset="0%" stop-color="#fff"/><stop offset="12.5%" stop-opacity=".098" stop-color="#fff"/><stop offset="92.5%" stop-opacity=".098"/><stop offset="100%" stop-opacity=".498"/></linearGradient><path fill="none" stroke="url(#j)" stroke-linecap="round" stroke-linejoin="round" stroke-width="4.077" d="M165.685 11.947c74.055 0 84.639 10.557 84.639 84.544v59.251c0 73.986-10.584 84.543-84.639 84.543h-75.37c-74.055 0-84.639-10.557-84.639-84.543V96.491c0-73.987 10.584-84.544 84.639-84.544h75.37z" vector-effect="non-scaling-stroke"/></g><g enable-background="new"><path d="M121.757 209.867c-31.813-3.103-59.8-26.664-68.15-57.372-.991-3.647-2.517-14.061-2.768-18.893-.04-.766-.275-.65-.755.37-1.238 2.634-.113-8.496 1.459-14.427.806-3.045 1.345-5.658 1.197-5.808-.148-.149-.804.676-1.457 1.832-1.117 1.977-1.16 1.992-.72.251 1.193-4.725 5.636-14.497 8.705-19.146 2.183-3.306 3.389-5.941 3.389-7.404 0-6.378 3.741-16.54 7.94-21.568l2.133-2.553.505 3.664c.33 2.404 1.446 5.066 3.24 7.74l2.736 4.074 8.094.446c4.451.246 8.64.686 9.308.978.815.356 2.343-.336 4.646-2.107 4.332-3.33 10.428-5.193 14.82-4.53l3.247.49-3.553 2.829c-3.69 2.937-8.234 9.246-8.234 11.432 0 1.875 2.17 4.855 4.34 5.96 1.052.536 3.98 1.202 6.505 1.48s5.613.864 6.862 1.303c1.965.69 2.21 1.06 1.814 2.742-.858 3.645-3.08 5.647-10.383 9.354l-7.299 3.705-.14 4.735c-.172 5.794-.908 6.742-3.586 4.621-2.545-2.016-4.105-1.993-5.977.09-4.35 4.84-1.666 11.048 7.415 17.154 3.377 2.271 8.42 2.564 14.127.821 1.987-.607 5.367-1.107 7.512-1.111 6.086-.012 11.92 3.633 11.92 7.45 0 2.221-1.233 3.032-3.643 2.398-1.032-.272-4.016.82-8.639 3.161-6.484 3.284-7.581 3.602-13.406 3.883-3.49.168-7.644-.056-9.233-.498-1.59-.442-3.01-.681-3.158-.532-.794.799 8.044 8.325 11.913 10.145 19.499 9.174 43.367-1.435 49.703-22.093 1.791-5.84 1.968-15.396.383-20.66-.603-2-1.1-3.899-1.104-4.219-.027-1.971 8.815 5.868 12.274 10.881 3.074 4.457 2.628 2.489-.696-3.067-2.74-4.58-6.395-8.307-16.327-16.647-14.836-12.46-19.827-25.15-15.954-40.572 2.068-8.235 8.852-21.519 10.984-21.507.283.001 1.148 1.556 1.924 3.454.994 2.434 3.597 5.602 8.827 10.74 4.08 4.01 7.619 7.29 7.865 7.29.246 0 .933-1.751 1.527-3.89l1.08-3.89 1.16 3.773c1.678 5.459 3.598 8.935 7.941 14.379 5.86 7.344 10.884 15.103 13.323 20.577 2.553 5.73 5.06 14.38 5.06 17.458 0 1.08.395 3.14.757 2.933.147-.083.001-1.388.265-1.96 2.326.628 2.575 10.68.466 20.973-.963 4.698-2.575 9.338-4.89 14.078-2.613 5.344-3.497 8.033-3.623 11.019-.238 5.605-4.392 13.818-9.183 18.156-2.022 1.83-6.239 4.846-9.37 6.701-3.13 1.855-7.682 5.322-10.114 7.705-6.853 6.714-14.637 9.799-28.413 11.26-7.619.808-7.99.807-16.591-.031z" opacity=".3" fill="#020202"/><path d="M162.219 840.133c-3.914 4.557-5.737 14.815-1.769 25.213 3.97 10.398 10.053 8.14 13.844 18.743 5.006 13.99 2.676 32.785 2.676 32.785s6.017 17.425 10.21-1.084c9.28-34.766-24.961-67.096-24.961-75.657z" fill="url(#k)" transform="matrix(1 0 0 1.01857 14.3 -794.993)"/><path d="M846.993 805.636a246.888 246.888 0 0 1-30.123 18.183 704 704 0 0 0 38.3-62.961c9.46-10.47 18.126-20.648 25.188-31.653 3.437-5.407 7.313-12.079 11.416-19.819 24.921-44.9 52.4-117.563 53.179-192.2v-.18c.018-1.837.029-3.675.014-5.515a257.6 257.6 0 0 0-5.712-55.748c.2 1.431.376 2.861.556 4.291-.221-1.1-.407-2.212-.644-3.314.366 2.034.66 4 .976 5.983 5.094 43.217 1.466 85.372-16.682 116.45-.286.454-.58.879-.869 1.323 9.41-47.234 12.558-99.387 2.088-151.6 0 0-4.187-25.383-35.376-102.441-17.952-44.353-49.833-80.716-78-107.207-24.69-30.546-47.114-51.045-59.475-64.06-25.829-27.197-36.65-47.577-41.094-60.875-3.853-1.932-53.135-49.807-57.05-51.631-21.511 33.353-89.162 137.675-56.985 235.147 14.584 44.172 51.467 90.017 90.067 115.736 1.695 1.936 22.969 25.042 33.086 77.157 10.453 53.848 4.958 95.862-16.543 157.989-25.286 54.505-90.067 108.388-150.724 113.9-129.672 11.782-177.145-65.107-177.145-65.107 46.336 18.525 97.568 14.65 128.724-4.556 31.4-19.425 50.394-33.827 65.81-28.148 15.2 5.653 27.3-10.756 16.442-27.767a78.5 78.5 0 0 0-79.4-34.573c-31.433 5.109-60.226 30.009-101.412 5.894a85.528 85.528 0 0 1-7.729-5.062c-2.715-1.785 8.826 2.717 6.133.688-8.015-4.354-22.2-13.842-25.88-17.217-.613-.562 6.219 2.179 5.606 1.616-38.51-31.712-33.7-53.134-32.49-66.57.969-10.749 7.964-24.523 19.751-30.11 5.693 3.107 9.24 5.479 9.24 5.479s-2.428-4.961-3.741-7.576c.46-.2.9-.147 1.358-.342 4.664 2.251 14.977 8.1 20.407 11.667 7.072 4.988 9.326 9.436 9.326 9.436s1.862-1.025.485-5.375c-.5-1.784-2.647-7.453-9.652-13.174l.438.049a81.2 81.2 0 0 1 11.867 8.241c1.975-7.181 5.527-14.679 4.746-28.092-.477-9.431-.257-11.873-1.919-15.515-1.488-3.128.834-4.348 3.418-1.1a32.826 32.826 0 0 0-2.208-7.4l.022-.244c3.225-11.236 68.248-40.461 72.981-43.877a67.355 67.355 0 0 0 19.132-20.8c3.617-5.763 6.337-13.848 7-26.112.355-8.844-3.759-14.734-69.507-21.618-17.981-1.771-28.531-14.8-34.526-26.823-1.094-2.59-2.209-4.937-3.325-7.282a58 58 0 0 1-2.558-8.431c10.749-30.873 28.81-56.977 55.367-76.7 1.447-1.318-5.782.338-4.336-.98 1.687-1.538 12.706-5.977 14.787-6.977 2.542-1.2-10.882-6.9-22.732-5.512-12.069 1.36-14.632 2.8-21.073 5.531 2.673-2.661 11.173-6.149 9.18-6.126-13.011 1.995-29.179 9.558-43 18.124a10.731 10.731 0 0 1 .827-4.35c-6.441 2.732-22.26 13.788-26.865 23.142a44.329 44.329 0 0 0 .266-5.4 84.483 84.483 0 0 0-13.193 13.819l-.241.219c-37.358-15.05-70.233-16.024-98.053-9.276-6.086-6.112-9.059-1.644-22.907-32.069-.941-1.832.722 1.809 0 0-2.278-5.9 1.389 7.872 0 0-23.284 18.372-53.92 39.193-68.626 53.89-.182.586 17.156-4.9 0 0-6.008 1.716-5.6 5.281-6.513 37.5-.22 2.443-.025 5.179-.223 7.378-11.748 14.968-19.749 27.643-22.775 34.211-15.193 26.18-31.926 66.992-48.146 131.551a334.364 334.364 0 0 1 25.784-50.407c-13.488 34.267-26.527 88.078-29.134 170.945a483.614 483.614 0 0 1 12.533-50.66 473.038 473.038 0 0 0 34.74 201.061c9.329 22.821 24.76 57.455 51.029 95.4 82.533 86.839 198.945 140.9 327.852 140.9 134.581.008 255.425-58.871 338.465-152.368z" fill="url(#l)" transform="matrix(.16345 0 0 .16648 44.683 45.167)"/><path d="M846.993 805.636a246.888 246.888 0 0 1-30.123 18.183 704 704 0 0 0 38.3-62.961c9.46-10.47 18.126-20.648 25.188-31.653 3.437-5.407 7.313-12.079 11.416-19.819 24.921-44.9 52.4-117.563 53.179-192.2v-.18c.018-1.837.029-3.675.014-5.515a257.6 257.6 0 0 0-5.712-55.748c.2 1.431.376 2.861.556 4.291-.221-1.1-.407-2.212-.644-3.314.366 2.034.66 4 .976 5.983 5.094 43.217 1.466 85.372-16.682 116.45-.286.454-.58.879-.869 1.323 9.41-47.234 12.558-99.387 2.088-151.6 0 0-4.187-25.383-35.376-102.441-17.952-44.353-49.833-80.716-78-107.207-24.69-30.546-47.114-51.045-59.475-64.06-25.829-27.197-36.65-47.577-41.094-60.875-3.853-1.932-53.135-49.807-57.05-51.631-21.511 33.353-89.162 137.675-56.985 235.147 14.584 44.172 51.467 90.017 90.067 115.736 1.695 1.936 22.969 25.042 33.086 77.157 10.453 53.848 4.958 95.862-16.543 157.989-25.286 54.505-90.067 108.388-150.724 113.9-129.672 11.782-177.145-65.107-177.145-65.107 46.336 18.525 97.568 14.65 128.724-4.556 31.4-19.425 50.394-33.827 65.81-28.148 15.2 5.653 27.3-10.756 16.442-27.767a78.5 78.5 0 0 0-79.4-34.573c-31.433 5.109-60.226 30.009-101.412 5.894a85.528 85.528 0 0 1-7.729-5.062c-2.715-1.785 8.826 2.717 6.133.688-8.015-4.354-22.2-13.842-25.88-17.217-.613-.562 6.219 2.179 5.606 1.616-38.51-31.712-33.7-53.134-32.49-66.57.969-10.749 7.964-24.523 19.751-30.11 5.693 3.107 9.24 5.479 9.24 5.479s-2.428-4.961-3.741-7.576c.46-.2.9-.147 1.358-.342 4.664 2.251 14.977 8.1 20.407 11.667 7.072 4.988 9.326 9.436 9.326 9.436s1.862-1.025.485-5.375c-.5-1.784-2.647-7.453-9.652-13.174l.438.049a81.2 81.2 0 0 1 11.867 8.241c1.975-7.181 5.527-14.679 4.746-28.092-.477-9.431-.257-11.873-1.919-15.515-1.488-3.128.834-4.348 3.418-1.1a32.826 32.826 0 0 0-2.208-7.4l.022-.244c3.225-11.236 68.248-40.461 72.981-43.877a67.355 67.355 0 0 0 19.132-20.8c3.617-5.763 6.337-13.848 7-26.112.355-8.844-3.759-14.734-69.507-21.618-17.981-1.771-28.531-14.8-34.526-26.823-1.094-2.59-2.209-4.937-3.325-7.282a58 58 0 0 1-2.558-8.431c10.749-30.873 28.81-56.977 55.367-76.7 1.447-1.318-5.782.338-4.336-.98 1.687-1.538 12.706-5.977 14.787-6.977 2.542-1.2-10.882-6.9-22.732-5.512-12.069 1.36-14.632 2.8-21.073 5.531 2.673-2.661 11.173-6.149 9.18-6.126-13.011 1.995-29.179 9.558-43 18.124a10.731 10.731 0 0 1 .827-4.35c-6.441 2.732-22.26 13.788-26.865 23.142a44.329 44.329 0 0 0 .266-5.4 84.483 84.483 0 0 0-13.193 13.819l-.241.219c-37.358-15.05-70.233-16.024-98.053-9.276-6.086-6.112-9.059-1.644-22.907-32.069-.941-1.832.722 1.809 0 0-2.278-5.9 1.389 7.872 0 0-23.284 18.372-53.92 39.193-68.626 53.89-.182.586 17.156-4.9 0 0-6.008 1.716-5.6 5.281-6.513 37.5-.22 2.443-.025 5.179-.223 7.378-11.748 14.968-19.749 27.643-22.775 34.211-15.193 26.18-31.926 66.992-48.146 131.551a334.364 334.364 0 0 1 25.784-50.407c-13.488 34.267-26.527 88.078-29.134 170.945a483.614 483.614 0 0 1 12.533-50.66 473.038 473.038 0 0 0 34.74 201.061c9.329 22.821 24.76 57.455 51.029 95.4 82.533 86.839 198.945 140.9 327.852 140.9 134.581.008 255.425-58.871 338.465-152.368z" fill="url(#m)" transform="matrix(.16345 0 0 .16648 44.683 45.167)"/><path d="M152.545 966.83c26.621-3.084 38.405-30.517 23.272-31.056-13.67-.437-35.881 32.51-23.272 31.055z" fill="url(#d)" transform="matrix(1 0 0 1.01857 14.3 -794.993)"/><path d="M177.734 930.17c18.315-10.659 13.54-33.683 13.54-33.683s-7.069 8.212-11.87 21.3c-4.745 12.962-12.682 18.821-1.67 12.383z" fill="url(#n)" transform="matrix(1 0 0 1.01857 14.3 -794.993)"/><path d="M119.59 980.453c25.535 8.148 47.482-11.968 33.954-18.685-12.3-6.059-46.073 14.832-33.954 18.685z" fill="url(#o)" transform="matrix(1 0 0 1.01857 14.3 -794.993)"/><path d="M140.693 828.669l.086-.094a.292.292 0 0 0-.086.094zm38.944 111.277c.621-.876 1.461-3.683 2.204-4.938 4.507-7.277 4.539-13.08 4.539-13.212 2.723-13.602 2.476-19.156.8-29.428-1.348-8.27-7.243-20.119-12.35-25.824-5.264-5.879-1.556-3.963-6.652-8.257-4.466-4.952-8.797-9.855-11.156-11.827-17.043-14.249-16.658-17.275-16.33-17.791-.055.06-.136.15-.24.268a43.434 43.434 0 0 1-.345-1.48s-9.316 9.316-11.278 24.843c-1.28 10.137 2.515 20.705 8.01 27.46a62.333 62.333 0 0 0 9.643 9.48v-.005c4.151 5.962 6.436 13.32 6.436 21.234 0 19.817-16.073 35.881-35.901 35.881a36.033 36.033 0 0 1-8.032-.9c-9.355-1.784-14.757-6.503-17.451-9.707-1.544-1.836-2.2-3.174-2.2-3.174 8.381 3.002 17.65 2.374 23.285-.739 5.68-3.149 9.116-5.483 11.905-4.562 2.75.916 4.938-1.744 2.975-4.501-1.924-2.753-6.93-6.697-14.363-5.604-5.687.828-10.895 4.864-18.346.955a15.742 15.742 0 0 1-1.398-.82c-.491-.29 1.597.44 1.11.111-1.45-.706-4.017-2.244-4.682-2.79-.111-.091 1.125.353 1.013.261-6.966-5.14-6.096-8.613-5.877-10.79.175-1.743 1.44-3.975 3.573-4.881 1.03.504 1.67.888 1.67.888s-.438-.804-.676-1.228c.083-.032.163-.024.245-.055.844.364 2.71 1.312 3.692 1.89 1.28.81 1.687 1.53 1.687 1.53s.337-.166.088-.87c-.091-.29-.48-1.209-1.746-2.136l.079.008a14.85 14.85 0 0 1 2.147 1.336c.357-1.164 1-2.38.858-4.554-.086-1.529-.046-1.925-.347-2.515-.27-.506.151-.705.618-.178a4.91 4.91 0 0 0-.4-1.2l.005-.04c.583-1.82 12.346-6.558 13.202-7.111a11.492 11.492 0 0 0 3.461-3.372c.654-.935 1.146-2.245 1.266-4.233.04-.896-.235-1.604-3.35-2.282-1.87-.407-4.762-.803-9.224-1.222-3.253-.287-5.161-2.399-6.246-4.348-.198-.42-.4-.8-.601-1.18a8.68 8.68 0 0 1-.463-1.367 25.902 25.902 0 0 1 10.016-12.432c.261-.214-1.046.055-.785-.159.306-.249 2.299-.969 2.676-1.13.46-.194-1.969-1.119-4.113-.894-2.183.22-2.647.454-3.812.897.484-.432 2.021-.997 1.661-.993-2.354.323-5.28 1.549-7.78 2.937a1.582 1.582 0 0 1 .151-.704c-1.165.442-4.027 2.235-4.86 3.75a6.454 6.454 0 0 0 .05-.875 14.494 14.494 0 0 0-2.386 2.24l-.044.035c-6.758-2.44-12.705-2.597-17.738-1.504-1.1-.99-2.87-2.488-5.376-7.42-.17-.297-.261.614-.392.32-.973-2.257-1.561-5.956-1.465-8.506 0 0-2.013.917-3.68 4.75a23.416 23.416 0 0 1-.706 1.448c-.09.111.207-1.258.16-1.184-.29.49-1.04 1.176-1.369 2.063-.226.657-.543 1.025-.746 1.845l-.047.075c-.016-.242.06-.994.004-.84a38.59 38.59 0 0 0-2.011 4.878c-.898 2.95-1.942 6.964-2.108 12.187-.04.396-.004.84-.04 1.196-2.125 2.426-3.573 4.48-4.12 5.546-2.748 4.244-5.776 10.86-8.71 21.324a52.163 52.163 0 0 1 4.664-8.17c-2.44 5.554-4.799 14.276-5.27 27.708a71.675 71.675 0 0 1 2.267-8.211c-.421 8.957.622 20.061 6.285 32.59 3.362 7.37 11.101 22.335 30.012 34.013l-.002.001s6.434 4.79 17.492 8.379c.817.296 1.645.588 2.49.871a16.42 16.42 0 0 1-.77-.335A79.253 79.253 0 0 0 116.777 986c28.633.025 37.077-11.474 37.077-11.474l-.084.062q.607-.57 1.168-1.186c-4.518 4.266-14.827 4.549-18.682 4.241 6.574-1.93 10.9-3.564 19.315-6.786q1.477-.549 3.02-1.25c.112-.049.224-.102.336-.153.204-.095.406-.185.612-.285a57.077 57.077 0 0 0 11.484-7.19c8.45-6.75 10.29-13.33 11.25-17.668-.134.416-.551 1.385-.845 2.013-2.176 4.655-7.002 7.512-12.243 9.962a112.614 112.614 0 0 0 6.927-10.206c1.713-1.695 2.246-4.35 3.524-6.134z" fill="url(#p)" transform="matrix(1 0 0 1.01857 14.3 -794.993)"/><path d="M169.351 956.086c3.446-3.798 6.54-8.143 8.884-13.07 6.03-12.68 15.356-33.765 8.011-55.786-5.804-17.404-13.774-26.92-23.893-36.217-16.433-15.097-21.023-21.837-21.023-25.845 0 0-18.974 21.151-10.745 43.212 8.229 22.061 25.083 21.252 36.233 44.274 13.12 27.09-10.616 56.653-30.245 64.928 1.201-.267 43.635-9.87 45.865-34.142-.05.447-1.006 7.16-13.087 12.646z" fill="url(#q)" transform="matrix(1 0 0 1.01857 14.3 -794.993)"/><path d="M513.91 321.373c.393-8.77-4.156-14.66-76.682-21.463-29.839-2.755-41.265-30.334-44.748-41.941-10.61 27.565-14.991 56.49-12.636 91.477 1.61 22.92 17.009 47.521 24.37 61.965 0 0 1.636-2.126 2.391-2.912 13.861-14.431 71.936-36.419 77.392-39.541 6.014-3.799 28.903-20.523 29.913-47.585z" fill="url(#r)" transform="matrix(.16345 0 0 .16648 44.683 45.167)"/><path d="M513.91 321.373c.393-8.77-4.156-14.66-76.682-21.463-29.839-2.755-41.265-30.334-44.748-41.941-10.61 27.565-14.991 56.49-12.636 91.477 1.61 22.92 17.009 47.521 24.37 61.965 0 0 1.636-2.126 2.391-2.912 13.861-14.431 71.936-36.419 77.392-39.541 6.014-3.799 28.903-20.523 29.913-47.585z" opacity=".5" fill="url(#s)" transform="matrix(.16345 0 0 .16648 44.683 45.167)"/><path d="M62.194 850.743c-.17-.297-.261.613-.392.32-.974-2.258-1.566-5.917-1.426-8.503 0 0-2.013.918-3.68 4.75-.309.689-.507 1.069-.705 1.45-.091.11.206-1.26.159-1.185-.29.49-1.039 1.176-1.364 2.023-.27.693-.548 1.065-.754 1.924-.064.233.064-1.034.008-.88-3.875 7.49-4.615 18.816-4.207 18.337 8.251-8.81 17.706-10.9 17.706-10.9-1.006-.74-3.192-2.88-5.345-7.336z" fill="url(#t)" transform="matrix(1 0 0 1.01857 14.3 -794.993)"/><path d="M93.5 942.866c-11.397-4.865-24.353-11.728-23.864-27.318.666-20.531 19.146-16.473 19.146-16.473-.698.17-2.562 1.497-3.223 2.912-.699 1.77-1.973 5.766 1.888 9.954 6.062 6.57-12.455 15.586 16.126 32.619.72.392-6.7-.234-10.075-1.693z" fill="url(#u)" transform="matrix(1 0 0 1.01857 14.3 -794.993)"/><path d="M89.45 932.635c8.082 2.812 17.496 2.319 23.132-.794 3.773-2.1 8.614-5.465 11.592-4.635-2.579-1.019-4.532-1.495-6.881-1.612-.4 0-.88-.009-1.316-.052a22.266 22.266 0 0 0-2.575.141c-1.455.134-3.067 1.052-4.533.904-.08-.008 1.422-.616 1.3-.589-.777.162-1.62.197-2.513.308-.566.063-1.054.134-1.616.157-16.832 1.427-31.058-9.123-31.058-9.123-1.21 4.078 5.42 12.145 14.469 15.295z" opacity=".5" fill="url(#v)" transform="matrix(1 0 0 1.01857 14.3 -794.993)"/><path d="M169.321 956.195c17.026-16.716 25.638-37.035 21.998-59.825 0 0 1.454 11.687-4.062 23.64 2.65-11.67 2.959-26.171-4.082-41.188-9.397-20.043-24.852-30.59-30.752-34.99-8.94-6.667-12.646-13.455-12.712-14.856-2.67 5.472-10.75 24.223-.868 40.372 9.257 15.13 23.841 19.62 34.05 33.498 18.809 25.566-3.572 53.349-3.572 53.349z" fill="url(#w)" transform="matrix(1 0 0 1.01857 14.3 -794.993)"/><path d="M166.882 912.702c-5.95-12.29-13.376-17.652-20.4-23.463.817 1.144 1.018 1.549 1.47 2.289 6.183 6.59 15.3 22.663 8.681 42.84-12.459 37.981-62.297 20.096-67.521 15.072 2.113 21.982 38.906 32.5 62.861 18.246 13.632-12.904 24.66-34.84 14.91-54.984z" fill="url(#x)" transform="matrix(1 0 0 1.01857 14.3 -794.993)"/></g></g></svg>