<?xml version="1.0" standalone="no"?><!-- Generator: Gravit.io --><svg xmlns="http://www.w3.org/2000/svg" xmlns:xlink="http://www.w3.org/1999/xlink" style="isolation:isolate" viewBox="0 0 256 256" width="256" height="256"><defs><filter id="o0CnQO9cvC3HynvYxbA5LZYpL73jmxxX" x="-7.324" y="2.947" width="270.648" height="254.338" filterUnits="userSpaceOnUse"><feGaussianBlur xmlns="http://www.w3.org/2000/svg" in="SourceGraphic" stdDeviation="4.293609062839028"/><feOffset xmlns="http://www.w3.org/2000/svg" dx="0" dy="4" result="pf_100_offsetBlur"/><feFlood xmlns="http://www.w3.org/2000/svg" flood-color="#000000" flood-opacity="0.4"/><feComposite xmlns="http://www.w3.org/2000/svg" in2="pf_100_offsetBlur" operator="in" result="pf_100_dropShadow"/><feBlend xmlns="http://www.w3.org/2000/svg" in="SourceGraphic" in2="pf_100_dropShadow" mode="normal"/></filter></defs><g filter="url(#o0CnQO9cvC3HynvYxbA5LZYpL73jmxxX)"><path d=" M 165.685 11.947 C 239.74 11.947 250.324 22.504 250.324 96.491 L 250.324 155.742 C 250.324 229.728 239.74 240.285 165.685 240.285 L 90.315 240.285 C 16.26 240.285 5.676 229.728 5.676 155.742 L 5.676 96.491 C 5.676 22.504 16.26 11.947 90.315 11.947 L 165.685 11.947 Z " id="shape" fill="rgb(118,139,148)"/></g><g opacity="0.1"><path d=" M 5.676 126.116 L 5.676 155.742 C 5.676 229.728 16.26 240.285 90.315 240.285 L 165.685 240.285 C 239.74 240.285 250.324 229.728 250.324 155.742 L 250.324 126.116 L 5.676 126.116 Z " id="bottom glass" fill="rgb(255,255,255)"/></g><g opacity="0.2"><path d=" M 128 11.947 L 128 240.285 L 165.685 240.285 C 239.74 240.285 250.324 229.728 250.324 155.742 L 250.324 96.491 C 250.324 22.504 239.74 11.947 165.685 11.947 L 128 11.947 Z " id="left glass" fill="rgb(255,255,255)"/></g><g id="fontypython"><path d=" M 180.463 61.386 C 183.584 61.395 186.678 61.956 189.6 63.05 C 192.468 64.109 195.136 65.647 197.479 67.601 C 199.813 69.518 201.74 71.88 203.151 74.548 C 204.599 77.289 205.359 80.338 205.368 83.432 C 205.368 84.499 205.277 85.557 205.096 86.616 L 198.664 124.646 C 197.769 130.038 196.168 135.284 193.906 140.26 C 192.803 142.666 191.518 144.982 190.071 147.198 C 188.641 149.369 187.04 151.423 185.276 153.323 C 183.53 155.204 181.603 156.923 179.541 158.443 C 177.46 159.971 175.226 161.283 172.883 162.36 C 170.476 163.454 167.953 164.287 165.374 164.847 C 162.652 165.426 159.883 165.716 157.106 165.707 L 121.826 165.707 L 132.139 125.795 L 151.335 125.795 L 156.5 106.002 L 137.313 106.002 L 148.919 61.386 L 180.454 61.386 C 180.463 61.386 180.463 61.386 180.463 61.386 Z  M 180.454 67.827 C 182.806 67.836 185.149 68.261 187.357 69.084 C 189.546 69.889 191.581 71.065 193.372 72.558 C 195.046 73.942 196.439 75.643 197.461 77.561 C 198.411 79.379 198.918 81.396 198.927 83.441 C 198.927 84.146 198.873 84.843 198.755 85.53 C 198.755 85.53 198.755 85.539 198.755 85.539 L 192.314 123.579 C 192.314 123.579 192.305 123.588 192.305 123.588 C 191.509 128.418 190.08 133.122 188.044 137.582 C 187.076 139.69 185.955 141.725 184.679 143.67 C 183.458 145.543 182.074 147.307 180.554 148.944 C 179.079 150.527 177.46 151.975 175.723 153.259 C 173.995 154.526 172.15 155.611 170.205 156.498 C 168.224 157.402 166.152 158.09 164.017 158.551 C 161.756 159.031 159.44 159.275 157.115 159.266 C 157.115 159.266 157.115 159.266 157.106 159.266 L 130.139 159.266 L 137.132 132.227 L 156.31 132.227 L 164.832 99.561 L 145.645 99.561 L 153.895 67.827 L 180.454 67.827 Z " fill-rule="evenodd" id="Compound Path" fill="rgb(254,254,254)"/><path d=" M 116.522 64.605 C 99.515 64.605 85.118 75.645 80.093 90.971 L 80.026 90.971 L 79.891 91.508 C 79.518 92.709 79.208 93.95 78.952 95.198 L 54.8 187.781 L 103.171 187.781 L 109.746 162.488 L 125.981 162.488 L 134.636 129.011 L 118.467 129.011 L 125.311 102.779 L 141.479 102.779 L 151.408 64.605 L 116.522 64.605 Z " id="path4071" fill="rgb(0,0,0)"/><path d=" M 155.577 61.386 L 143.971 106.002 L 127.796 106.002 L 122.64 125.795 L 138.797 125.795 L 128.475 165.707 L 112.237 165.707 L 105.66 191 L 50.632 191 L 75.817 94.468 C 76.079 93.183 76.405 91.899 76.785 90.641 L 77.509 87.747 L 77.834 87.747 C 80.702 80.446 85.578 74.096 91.91 69.446 C 99.039 64.208 107.669 61.377 116.525 61.386 L 155.577 61.386 Z  M 83 92.369 C 83.054 92.243 83.108 92.107 83.153 91.98 C 85.433 85.033 89.83 78.963 95.719 74.639 C 101.752 70.206 109.035 67.818 116.516 67.827 C 116.516 67.827 116.525 67.827 116.525 67.827 L 147.246 67.827 L 138.987 99.561 L 122.821 99.561 L 114.3 132.227 L 130.474 132.227 L 123.49 159.266 L 107.253 159.266 L 100.685 184.559 L 58.964 184.559 L 82.068 96.015 C 82.086 95.951 82.095 95.897 82.113 95.834 C 82.339 94.694 82.629 93.572 82.972 92.46 C 82.982 92.423 82.991 92.396 83 92.369 Z " fill-rule="evenodd" id="Compound Path" fill="rgb(254,254,254)"/></g><g opacity="0.4"><linearGradient id="_lgradient_159" x1="0.5166666666666668" y1="0" x2="0.5166666666666666" y2="1.0000000000000002"><stop offset="0%" stop-opacity="1" style="stop-color:rgb(255,255,255)"/><stop offset="12.5%" stop-opacity="0.09803922" style="stop-color:rgb(255,255,255)"/><stop offset="92.500001%" stop-opacity="0.09803922" style="stop-color:rgb(0,0,0)"/><stop offset="100%" stop-opacity="0.49803922" style="stop-color:rgb(0,0,0)"/></linearGradient><path d=" M 165.685 11.947 C 239.74 11.947 250.324 22.504 250.324 96.491 L 250.324 155.742 C 250.324 229.728 239.74 240.285 165.685 240.285 L 90.315 240.285 C 16.26 240.285 5.676 229.728 5.676 155.742 L 5.676 96.491 C 5.676 22.504 16.26 11.947 90.315 11.947 L 165.685 11.947 Z " id="highlight" fill="none" vector-effect="non-scaling-stroke" stroke-width="4.077" stroke="url(#_lgradient_159)" stroke-linejoin="round" stroke-linecap="round" stroke-miterlimit="4"/></g></svg>