<svg xmlns="http://www.w3.org/2000/svg" style="isolation:isolate" width="256" height="256"><defs><filter id="a" width="270.648" height="254.338" x="-7.32" y="2.95" filterUnits="userSpaceOnUse"><feGaussianBlur xmlns="http://www.w3.org/2000/svg" in="SourceGraphic" stdDeviation="4.294"/><feOffset xmlns="http://www.w3.org/2000/svg" dy="4" result="pf_100_offsetBlur"/><feFlood xmlns="http://www.w3.org/2000/svg" flood-opacity=".4"/><feComposite xmlns="http://www.w3.org/2000/svg" in2="pf_100_offsetBlur" operator="in" result="pf_100_dropShadow"/><feBlend xmlns="http://www.w3.org/2000/svg" in="SourceGraphic" in2="pf_100_dropShadow"/></filter></defs><g filter="url(#a)"><linearGradient id="b" x1=".533" x2=".533" y1="1" gradientTransform="matrix(244.648 0 0 228.338 5.676 11.947)" gradientUnits="userSpaceOnUse"><stop offset="0%" stop-color="#7d4698"/><stop offset="100%" stop-color="#c483e4"/></linearGradient><path fill="url(#b)" d="M165.685 11.947c74.055 0 84.639 10.557 84.639 84.544v59.251c0 73.986-10.584 84.543-84.639 84.543h-75.37c-74.055 0-84.639-10.557-84.639-84.543V96.491c0-73.987 10.584-84.544 84.639-84.544h75.37z"/></g><path fill="#FFF" d="M5.676 126.116v29.626c0 73.986 10.584 84.543 84.639 84.543h75.37c74.055 0 84.639-10.557 84.639-84.543v-29.626H5.676z" opacity=".4"/><path fill="#FFF" d="M128 11.947v228.338h37.685c74.055 0 84.639-10.557 84.639-84.543V96.491c0-73.987-10.584-84.544-84.639-84.544H128z" opacity=".2"/><linearGradient id="c" x1="1.071" x2="-.071" y1=".833" y2=".262" gradientTransform="matrix(161.609 0 0 138.526 43.54 55.231)" gradientUnits="userSpaceOnUse"><stop offset="0%" stop-color="#5884f4"/><stop offset="100%" stop-color="#80a3fa"/></linearGradient><path fill="url(#c)" d="M205.149 83.315c0-25.465-2.616-28.205-28.133-28.081H71.672C46.156 55.109 43.54 57.85 43.54 83.315v82.361c0 25.465 2.615 28.08 28.132 28.08h105.344c25.517 0 28.133-2.615 28.133-28.08V83.315z"/><path fill="#FFF" d="M107.101 106.911L71.12 175.873h86.953l-26.594-50.972-7.496 14.368-16.882-32.358zM161.692 76.961c-9.375 0-16.976 7.601-16.976 16.976s7.601 16.976 16.976 16.976 16.976-7.601 16.976-16.976-7.601-16.976-16.976-16.976z" opacity=".6"/><linearGradient id="d" x1=".567" x2=".567" y1="1.071" y2="-.071" gradientTransform="matrix(190.128 0 0 177.452 29.28 41.318)" gradientUnits="userSpaceOnUse"><stop offset="0%" stop-color="#e6eaef"/><stop offset="100%" stop-color="#e6eaef"/></linearGradient><path fill="url(#d)" d="M95.058 41.318c-57.552 0-65.778 8.203-65.778 65.702v46.046c0 57.498 8.226 65.704 65.778 65.704h58.572c57.552 0 65.778-8.206 65.778-65.704V107.02c0-57.499-8.226-65.702-65.778-65.702H95.058zm5.856 17.744h46.86c46.042 0 52.621 5.382 52.621 43.099v30.205c0 37.716-6.579 43.098-52.621 43.098h-46.86c-46.041 0-52.621-5.382-52.621-43.098v-30.205c0-37.717 6.58-43.099 52.621-43.099z"/><path fill="#353635" d="M99.069 41.6l-8.263-5.932-3.696-5.664-4.561-2.895L78.561 18l-2.299 2.067 4.049 6.632 4.56 2.896 3.696 5.664 6.491 6.059-59.167 51.417-3.663-6.097-6.358-4.964-3.53-7.826-3.523-2.128-2.614 2.35 5.874 2.427 3.448 8.3 6.503 4.234 4.555 6.867c.001.001 26.04-30.158 62.486-54.298z" opacity=".25"/><path fill="#FFF5CB" d="M18.818 71.721l3.523 2.128 3.529 7.826 6.358 4.964 3.663 6.096 59.168-51.417-6.492-6.058-3.695-5.665-4.561-2.896-4.049-6.632-.779-1.275-59.168 51.417 2.503 1.512z" opacity=".8"/><g><path fill="#353635" d="M239.797 183.702l-8.263-5.931-3.696-5.664-4.56-2.896-3.989-9.109-2.299 2.067 4.049 6.633 4.56 2.895 3.696 5.664 6.491 6.059-59.167 51.417-3.663-6.096-6.358-4.965-3.53-7.825-3.523-2.129-2.614 2.351 5.875 2.426 3.447 8.301 6.503 4.233 4.555 6.867c.001.001 26.04-30.158 62.486-54.298z" opacity=".25"/><path fill="#FFF5CB" d="M166.599 223.777l6.358 4.964 3.662 6.097 59.168-51.417-6.491-6.059-3.696-5.664-4.56-2.896-4.05-6.633-.779-1.275-59.167 51.417 2.502 1.512 3.523 2.128 3.53 7.826z" opacity=".8"/></g><g opacity=".4"><linearGradient id="e" x1=".517" x2=".517" y2="1"><stop offset="0%" stop-color="#fff"/><stop offset="12.5%" stop-opacity=".098" stop-color="#fff"/><stop offset="92.5%" stop-opacity=".098"/><stop offset="100%" stop-opacity=".498"/></linearGradient><path fill="none" stroke="url(#e)" stroke-linecap="round" stroke-linejoin="round" stroke-width="4.077" d="M165.685 11.947c74.055 0 84.639 10.557 84.639 84.544v59.251c0 73.986-10.584 84.543-84.639 84.543h-75.37c-74.055 0-84.639-10.557-84.639-84.543V96.491c0-73.987 10.584-84.544 84.639-84.544h75.37z" vector-effect="non-scaling-stroke"/></g></svg>