<svg xmlns="http://www.w3.org/2000/svg" style="isolation:isolate" width="256" height="256"><defs><clipPath id="a"><path d="M0 0h256v256H0z"/></clipPath></defs><g clip-path="url(#a)"><defs><filter id="b" width="270.648" height="254.338" x="-6.66" y="4.28" filterUnits="userSpaceOnUse"><feGaussianBlur xmlns="http://www.w3.org/2000/svg" in="SourceGraphic" stdDeviation="4.294"/><feOffset xmlns="http://www.w3.org/2000/svg" dy="4" result="pf_100_offsetBlur"/><feFlood xmlns="http://www.w3.org/2000/svg" flood-opacity=".4"/><feComposite xmlns="http://www.w3.org/2000/svg" in2="pf_100_offsetBlur" operator="in" result="pf_100_dropShadow"/><feBlend xmlns="http://www.w3.org/2000/svg" in="SourceGraphic" in2="pf_100_dropShadow"/></filter></defs><path fill="#6DC7F1" d="M166.351 13.28c74.056 0 84.64 10.557 84.64 84.544v59.251c0 73.986-10.584 84.544-84.64 84.544H90.982c-74.056 0-84.639-10.558-84.639-84.544V97.824c0-73.987 10.583-84.544 84.639-84.544h75.369z" filter="url(#b)"/><path fill="#FFF" d="M5.676 126.116v29.626c0 73.986 10.584 84.543 84.639 84.543h75.37c74.055 0 84.639-10.557 84.639-84.543v-29.626H5.676z" opacity=".1"/><path fill="#FFF" d="M8.476 55.74C6.729 66.667 6.158 80.255 6.158 97.205v59.251c0 73.986 10.584 84.544 84.64 84.544h75.369c55.135 0 75.078-5.874 81.675-39.397L8.476 55.74z" opacity=".05"/><g opacity=".4"><linearGradient id="c" x1=".517" x2=".517" y2="1"><stop offset="0%" stop-color="#fff"/><stop offset="12.5%" stop-opacity=".098" stop-color="#fff"/><stop offset="92.5%" stop-opacity=".098"/><stop offset="100%" stop-opacity=".498"/></linearGradient><path fill="none" stroke="url(#c)" stroke-linecap="round" stroke-linejoin="round" stroke-width="4.077" d="M165.685 11.947c74.055 0 84.639 10.557 84.639 84.544v59.251c0 73.986-10.584 84.543-84.639 84.543h-75.37c-74.055 0-84.639-10.557-84.639-84.543V96.491c0-73.987 10.584-84.544 84.639-84.544h75.37z" vector-effect="non-scaling-stroke"/></g><path fill="#196FBA" fill-rule="evenodd" class="fil1" d="M130.698 104.224c0 20.902-16.946 37.848-37.85 37.848-20.902 0-37.848-16.946-37.848-37.848 0-20.904 16.946-37.85 37.848-37.85 20.904 0 37.85 16.946 37.85 37.85z"/><path fill="#196FBA" fill-rule="evenodd" class="fil1" d="M133.472 166.061l62.929-54.908V74.37l-60.039 66.636-15.093-28.787-20.34 22.39 32.543 31.452z"/><path fill="#196FBA" fill-rule="evenodd" class="fil1" d="M193.728 71.961l-.199.221-31.574 35.044-24.326-24.327-49.879 58.659 49.879 50.091 53.841-54.908-8.817-8.817L200 112.789V65l-5.519 6.125-.753.836zm-26.677 40.36l10.501 10.502-10.501-10.502z"/><path fill="#FFF" fill-rule="evenodd" d="M196.401 111.153V74.37l-58.807 66.747-18.424-28.898-20.69 22.39 39.072 33.685 58.849-57.141z"/><path fill="#8C508C" fill-rule="evenodd" class="fil3" d="M127.499 103.957c0 18.842-15.274 34.117-34.117 34.117-18.842 0-34.118-15.275-34.118-34.117 0-18.843 15.276-34.118 34.118-34.118 18.843 0 34.117 15.275 34.117 34.118z"/><path fill="#793C7C" fill-rule="evenodd" class="fil4" d="M101.118 75.948c8.605 5.044 14.387 14.382 14.387 25.076 0 16.046-13.008 29.054-29.053 29.054-2.297 0-4.528-.276-6.671-.779a28.908 28.908 0 0 0 14.667 3.977c16.046 0 29.053-13.007 29.053-29.053 0-13.749-9.553-25.259-22.382-28.275h-.001z"/></g></svg>