<svg xmlns="http://www.w3.org/2000/svg" style="isolation:isolate" width="256" height="256"><defs><clipPath id="a"><path d="M0 0h256v256H0z"/></clipPath></defs><g clip-path="url(#a)"><defs><filter id="b" width="270.648" height="254.338" x="-7.32" y="2.95" filterUnits="userSpaceOnUse"><feGaussianBlur xmlns="http://www.w3.org/2000/svg" in="SourceGraphic" stdDeviation="4.294"/><feOffset xmlns="http://www.w3.org/2000/svg" dy="4" result="pf_100_offsetBlur"/><feFlood xmlns="http://www.w3.org/2000/svg" flood-opacity=".4"/><feComposite xmlns="http://www.w3.org/2000/svg" in2="pf_100_offsetBlur" operator="in" result="pf_100_dropShadow"/><feBlend xmlns="http://www.w3.org/2000/svg" in="SourceGraphic" in2="pf_100_dropShadow"/></filter></defs><path fill="#D9D9D9" d="M165.685 11.947c74.055 0 84.639 10.557 84.639 84.544v59.251c0 73.986-10.584 84.543-84.639 84.543h-75.37c-74.055 0-84.639-10.557-84.639-84.543V96.491c0-73.987 10.584-84.544 84.639-84.544h75.37z" filter="url(#b)"/><g opacity=".4"><linearGradient id="c" x1=".517" x2=".517" y2="1"><stop offset="0%" stop-color="#fff"/><stop offset="12.5%" stop-opacity=".098" stop-color="#fff"/><stop offset="92.5%" stop-opacity=".098"/><stop offset="100%" stop-opacity=".498"/></linearGradient><path fill="none" stroke="url(#c)" stroke-linecap="round" stroke-linejoin="round" stroke-width="4.077" d="M165.685 11.947c74.055 0 84.639 10.557 84.639 84.544v59.251c0 73.986-10.584 84.543-84.639 84.543h-75.37c-74.055 0-84.639-10.557-84.639-84.543V96.491c0-73.987 10.584-84.544 84.639-84.544h75.37z" vector-effect="non-scaling-stroke"/></g><g filter="url(#d)" fill-rule="evenodd"><path fill="#EAB305" d="M81.47 181.063c0 7.165-5.804 12.976-12.97 12.985-7.165.008-12.983-5.789-13-12.955-.017-7.165 5.774-12.99 12.939-13.015 7.166-.026 12.997 5.758 13.031 12.924"/><path fill="#F34F17" d="M121.147 181.063c0 7.165-5.805 12.976-12.97 12.985-7.166.008-12.984-5.789-13-12.955-.017-7.165 5.774-12.99 12.939-13.015 7.165-.026 12.997 5.758 13.031 12.924m39.676.061c0 7.165-5.804 12.976-12.969 12.985-7.166.008-12.984-5.789-13.001-12.955-.017-7.165 5.774-12.99 12.94-13.015 7.165-.026 12.997 5.758 13.03 12.924"/><path fill="#EAB305" d="M200.5 181.063c0 7.165-5.804 12.976-12.97 12.985-7.165.008-12.983-5.789-13-12.955-.017-7.165 5.774-12.99 12.939-13.015 7.166-.026 12.997 5.758 13.031 12.924"/><path fill="#F34F17" d="M81.47 145.366c0 7.165-5.804 12.977-12.97 12.985-7.165.008-12.983-5.789-13-12.955-.017-7.165 5.774-12.99 12.939-13.015 7.166-.025 12.997 5.759 13.031 12.924"/><path fill="#EAB305" d="M121.147 145.366c0 7.165-5.805 12.977-12.97 12.985-7.166.008-12.984-5.789-13-12.955-.017-7.165 5.774-12.99 12.939-13.015 7.165-.025 12.997 5.759 13.031 12.924"/><path fill="#F34F17" d="M160.823 145.366c0 7.165-5.804 12.977-12.969 12.985-7.166.008-12.984-5.789-13.001-12.955-.017-7.165 5.774-12.99 12.94-13.015 7.165-.025 12.997 5.759 13.03 12.924"/><path fill="#EAB305" d="M200.5 145.366c0 7.165-5.804 12.977-12.97 12.985-7.165.008-12.983-5.789-13-12.955-.017-7.165 5.774-12.99 12.939-13.015 7.166-.025 12.997 5.759 13.031 12.924"/><path fill="#4D4D4D" d="M81.47 110.634c0 7.166-5.804 12.977-12.97 12.985-7.165.009-12.983-5.789-13-12.954-.017-7.166 5.774-12.991 12.939-13.016 7.166-.025 12.997 5.759 13.031 12.924"/><path fill="#F34F17" d="M121.147 110.634c0 7.166-5.805 12.977-12.97 12.985-7.166.009-12.984-5.789-13-12.954-.017-7.166 5.774-12.991 12.939-13.016 7.165-.025 12.997 5.759 13.031 12.924"/><path fill="#EAB305" d="M160.823 110.634c0 7.166-5.804 12.977-12.969 12.985-7.166.009-12.984-5.789-13.001-12.954-.017-7.166 5.774-12.991 12.94-13.016 7.165-.025 12.997 5.759 13.03 12.924"/><path fill="#F34F17" d="M200.5 110.634c0 7.166-5.804 12.977-12.97 12.985-7.165.009-12.983-5.789-13-12.954-.017-7.166 5.774-12.991 12.939-13.016 7.166-.025 12.997 5.759 13.031 12.924"/><path fill="#4D4D4D" d="M81.47 74.937c0 7.166-5.804 12.977-12.97 12.985-7.165.009-12.983-5.789-13-12.954-.017-7.166 5.774-12.99 12.939-13.016 7.166-.025 12.997 5.759 13.031 12.924m39.677.061c0 7.166-5.805 12.977-12.97 12.985-7.166.009-12.984-5.789-13-12.954-.017-7.166 5.774-12.99 12.939-13.016 7.165-.025 12.997 5.759 13.031 12.924m39.676.061c0 7.166-5.804 12.977-12.969 12.985-7.166.009-12.984-5.789-13.001-12.954-.017-7.166 5.774-12.99 12.94-13.016 7.165-.025 12.997 5.759 13.03 12.924"/><path fill="#EAB305" d="M200.5 74.937c0 7.166-5.804 12.977-12.97 12.985-7.165.009-12.983-5.789-13-12.954-.017-7.166 5.774-12.99 12.939-13.016 7.166-.025 12.997 5.759 13.031 12.924"/></g><defs><filter id="d" width="205" height="192.095" x="25.5" y="35.95" filterUnits="userSpaceOnUse"><feGaussianBlur xmlns="http://www.w3.org/2000/svg" in="SourceGraphic" stdDeviation="4.294"/><feOffset xmlns="http://www.w3.org/2000/svg" dy="4" result="pf_100_offsetBlur"/><feFlood xmlns="http://www.w3.org/2000/svg" flood-opacity=".4"/><feComposite xmlns="http://www.w3.org/2000/svg" in2="pf_100_offsetBlur" operator="in" result="pf_100_dropShadow"/><feBlend xmlns="http://www.w3.org/2000/svg" in="SourceGraphic" in2="pf_100_dropShadow"/></filter></defs></g></svg>