<svg xmlns="http://www.w3.org/2000/svg" style="isolation:isolate" width="256" height="256"><defs><filter id="a" width="270.648" height="254.338" x="-7.32" y="2.95" filterUnits="userSpaceOnUse"><feGaussianBlur xmlns="http://www.w3.org/2000/svg" in="SourceGraphic" stdDeviation="4.294"/><feOffset xmlns="http://www.w3.org/2000/svg" dy="4" result="pf_100_offsetBlur"/><feFlood xmlns="http://www.w3.org/2000/svg" flood-opacity=".4"/><feComposite xmlns="http://www.w3.org/2000/svg" in2="pf_100_offsetBlur" operator="in" result="pf_100_dropShadow"/><feBlend xmlns="http://www.w3.org/2000/svg" in="SourceGraphic" in2="pf_100_dropShadow"/></filter></defs><path fill="#5884F4" d="M165.685 11.947c74.055 0 84.639 10.557 84.639 84.544v59.251c0 73.986-10.584 84.543-84.639 84.543h-75.37c-74.055 0-84.639-10.557-84.639-84.543V96.491c0-73.987 10.584-84.544 84.639-84.544h75.37z" filter="url(#a)"/><g opacity=".4"><linearGradient id="b" x1=".517" x2=".517" y2="1"><stop offset="0%" stop-color="#fff"/><stop offset="12.5%" stop-opacity=".098" stop-color="#fff"/><stop offset="92.5%" stop-opacity=".098"/><stop offset="100%" stop-opacity=".498"/></linearGradient><path fill="none" stroke="url(#b)" stroke-linecap="round" stroke-linejoin="round" stroke-width="4.077" d="M165.685 11.947c74.055 0 84.639 10.557 84.639 84.544v59.251c0 73.986-10.584 84.543-84.639 84.543h-75.37c-74.055 0-84.639-10.557-84.639-84.543V96.491c0-73.987 10.584-84.544 84.639-84.544h75.37z" vector-effect="non-scaling-stroke"/></g><path fill="#FFF" d="M249.643 83.58L44.234 236.61c11.562 2.311 26.426 3.019 45.523 3.019h75.37c74.055 0 84.639-10.558 84.639-84.544V95.834c0-4.303-.041-8.37-.123-12.254z" opacity=".1"/><defs><filter id="c" width="163.156" height="99.221" x="46.42" y="78.39" filterUnits="userSpaceOnUse"><feGaussianBlur xmlns="http://www.w3.org/2000/svg" stdDeviation=".678"/></filter></defs><path d="M72.527 173.345c-3.689-2.585-10.019-12.622-8.756-13.885.327-.327 8.228-.139 17.559.418l16.965 1.013v5.495c0 3.023-.941 6.438-2.092 7.588-3.037 3.038-19.049 2.612-23.676-.629zm88.866.629c-1.151-1.151-2.092-4.681-2.092-7.844v-5.752l10.023-.074c5.512-.043 13.356-.721 17.43-1.509 4.364-.845 7.408-.778 7.408.163 0 3.299-5.353 11.769-9.093 14.389-4.627 3.241-20.639 3.666-23.676.629v-.002zm-95.052-24.811c-10.065-2.705-17.528-7.88-18.244-12.651-.47-3.134.461-3.464 9.587-3.397 12.608.095 18.923-3.066 33.052-16.532 11.837-11.282 13.714-11.774 27.886-7.307 8.72 2.749 9.89 2.749 18.609 0 5.117-1.613 11.007-2.932 13.09-2.932 2.264 0 8.966 4.803 16.677 11.953 14.031 13.009 23.664 17.077 35.281 14.897 5.692-1.067 6.086-.859 5.542 2.935-1.238 8.622-18.888 15.533-39.671 15.533-12.24 0-22.071-3.242-32.465-10.706l-7.758-5.572-7.759 5.572c-4.268 3.065-11.033 6.727-15.035 8.139-8.829 3.115-27.335 3.148-38.792.064v.004zm-3.632-45.81c.657-12.256 1.523-22.653 1.926-23.105 1.506-1.689 3.819 4.426 5.869 15.517 1.163 6.298 3.253 13.697 4.643 16.444 2.891 5.711 2.149 6.84-7.007 10.662l-6.624 2.766 1.193-22.284zm123.18 18.728l-7.401-3.36 3.284-5.753c1.807-3.164 4.219-10.905 5.361-17.203 2.005-11.06 4.316-17.22 5.822-15.517 1.384 1.567 2.998 45.269 1.67 45.231-.734-.023-4.665-1.55-8.736-3.398z" opacity=".3" filter="url(#c)"/><path fill="#FFF" d="M72.527 173.345c-3.689-2.585-10.019-12.622-8.756-13.885.327-.327 8.228-.139 17.559.418l16.965 1.013v5.495c0 3.023-.941 6.438-2.092 7.588-3.037 3.038-19.049 2.612-23.676-.629zm88.866.629c-1.151-1.151-2.092-4.681-2.092-7.844v-5.752l10.023-.074c5.512-.043 13.356-.721 17.43-1.509 4.364-.845 7.408-.778 7.408.163 0 3.299-5.353 11.769-9.093 14.389-4.627 3.241-20.639 3.666-23.676.629v-.002zm-95.052-24.811c-10.065-2.705-17.528-7.88-18.244-12.651-.47-3.134.461-3.464 9.587-3.397 12.608.095 18.923-3.066 33.052-16.532 11.837-11.282 13.714-11.774 27.886-7.307 8.72 2.749 9.89 2.749 18.609 0 5.117-1.613 11.007-2.932 13.09-2.932 2.264 0 8.966 4.803 16.677 11.953 14.031 13.009 23.664 17.077 35.281 14.897 5.692-1.067 6.086-.859 5.542 2.935-1.238 8.622-18.888 15.533-39.671 15.533-12.24 0-22.071-3.242-32.465-10.706l-7.758-5.572-7.759 5.572c-4.268 3.065-11.033 6.727-15.035 8.139-8.829 3.115-27.335 3.148-38.792.064v.004zm-3.632-45.81c.657-12.256 1.523-22.653 1.926-23.105 1.506-1.689 3.819 4.426 5.869 15.517 1.163 6.298 3.253 13.697 4.643 16.444 2.891 5.711 2.149 6.84-7.007 10.662l-6.624 2.766 1.193-22.284zm123.18 18.728l-7.401-3.36 3.284-5.753c1.807-3.164 4.219-10.905 5.361-17.203 2.005-11.06 4.316-17.22 5.822-15.517 1.384 1.567 2.998 45.269 1.67 45.231-.734-.023-4.665-1.55-8.736-3.398z"/></svg>