<?xml version="1.0" encoding="UTF-8" standalone="no"?>
<!-- Created with Inkscape (http://www.inkscape.org/) -->

<svg
   xmlns:dc="http://purl.org/dc/elements/1.1/"
   xmlns:cc="http://creativecommons.org/ns#"
   xmlns:rdf="http://www.w3.org/1999/02/22-rdf-syntax-ns#"
   xmlns:svg="http://www.w3.org/2000/svg"
   xmlns="http://www.w3.org/2000/svg"
   xmlns:xlink="http://www.w3.org/1999/xlink"
   xmlns:sodipodi="http://sodipodi.sourceforge.net/DTD/sodipodi-0.dtd"
   xmlns:inkscape="http://www.inkscape.org/namespaces/inkscape"
   width="256"
   height="256"
   viewBox="0 0 67.733332 67.733335"
   version="1.1"
   id="svg1488"
   inkscape:version="0.92.3 (2405546, 2018-03-11)"
   sodipodi:docname="44.svg">
  <defs
     id="defs1482">
    <clipPath
       clipPathUnits="userSpaceOnUse"
       id="clipPath1025">
      <path
         id="path1027"
         d="M 111.94141,84 C 99.359506,84.145 90.1531,83.713998 82.625,87.867188 c -3.7641,2.0768 -6.751838,5.574737 -8.398438,9.960937 C 72.580062,102.21433 72,107.4241 72,114 v 42 h 160 v -26 c 0,-6.5759 -0.57996,-11.78566 -2.22656,-16.17188 -0.205,-0.5455 -0.47919,-1.03993 -0.74219,-1.54296 -0.1,-0.1848 -0.17844,-0.38051 -0.27344,-0.56641 -1.727,-3.38752 -4.25471,-6.14522 -7.38281,-7.87109 C 213.8463,99.694146 204.64049,100.1454 192.05859,100 H 192 151.66797 L 135.45312,84 h -23.49218 z"
         style="color:#000000;font-style:normal;font-variant:normal;font-weight:normal;font-stretch:normal;font-size:medium;line-height:normal;font-family:sans-serif;font-variant-ligatures:none;font-variant-position:normal;font-variant-caps:normal;font-variant-numeric:normal;font-variant-alternates:normal;font-feature-settings:normal;text-indent:0;text-align:start;text-decoration:none;text-decoration-line:none;text-decoration-style:solid;text-decoration-color:#000000;letter-spacing:normal;word-spacing:normal;text-transform:none;writing-mode:lr-tb;direction:ltr;baseline-shift:baseline;text-anchor:start;white-space:normal;shape-padding:0;clip-rule:nonzero;display:inline;overflow:visible;visibility:visible;opacity:1;isolation:auto;mix-blend-mode:normal;color-interpolation:sRGB;color-interpolation-filters:linearRGB;solid-color:#000000;solid-opacity:1;fill:#e3dfd5;fill-opacity:1;fill-rule:nonzero;stroke:none;stroke-width:4.00000048;stroke-linecap:butt;stroke-linejoin:miter;stroke-miterlimit:4;stroke-dasharray:none;stroke-dashoffset:0;stroke-opacity:1;marker:none;color-rendering:auto;image-rendering:auto;shape-rendering:auto;text-rendering:auto;enable-background:accumulate"
         inkscape:connector-curvature="0" />
    </clipPath>
    <clipPath
       clipPathUnits="userSpaceOnUse"
       id="clipPath1082-3">
      <path
         sodipodi:nodetypes="sssssssss"
         inkscape:connector-curvature="0"
         id="path1084-6"
         d="M 361.9375,-212 C 507.2348,-212 528,-191.28677 528,-46.125 V 70.125 C 528,215.28618 507.2348,236 361.9375,236 H 214.0625 C 68.7652,236 48,215.28618 48,70.125 V -46.125 C 48,-191.28677 68.7652,-212 214.0625,-212 Z"
         style="display:inline;opacity:1;fill:#8c59d9;fill-opacity:1;stroke:none;stroke-width:2;stroke-linecap:round;stroke-linejoin:round;stroke-miterlimit:4;stroke-dasharray:none;stroke-dashoffset:0;stroke-opacity:1;enable-background:new" />
    </clipPath>
    <clipPath
       clipPathUnits="userSpaceOnUse"
       id="clipPath1082-3-5">
      <path
         sodipodi:nodetypes="sssssssss"
         inkscape:connector-curvature="0"
         id="path1084-6-6"
         d="M 361.9375,-212 C 507.2348,-212 528,-191.28677 528,-46.125 V 70.125 C 528,215.28618 507.2348,236 361.9375,236 H 214.0625 C 68.7652,236 48,215.28618 48,70.125 V -46.125 C 48,-191.28677 68.7652,-212 214.0625,-212 Z"
         style="display:inline;opacity:1;fill:#8c59d9;fill-opacity:1;stroke:none;stroke-width:2;stroke-linecap:round;stroke-linejoin:round;stroke-miterlimit:4;stroke-dasharray:none;stroke-dashoffset:0;stroke-opacity:1;enable-background:new" />
    </clipPath>
    <clipPath
       clipPathUnits="userSpaceOnUse"
       id="clipPath1082-3-9">
      <path
         sodipodi:nodetypes="sssssssss"
         inkscape:connector-curvature="0"
         id="path1084-6-3"
         d="M 361.9375,-212 C 507.2348,-212 528,-191.28677 528,-46.125 V 70.125 C 528,215.28618 507.2348,236 361.9375,236 H 214.0625 C 68.7652,236 48,215.28618 48,70.125 V -46.125 C 48,-191.28677 68.7652,-212 214.0625,-212 Z"
         style="display:inline;opacity:1;fill:#8c59d9;fill-opacity:1;stroke:none;stroke-width:2;stroke-linecap:round;stroke-linejoin:round;stroke-miterlimit:4;stroke-dasharray:none;stroke-dashoffset:0;stroke-opacity:1;enable-background:new" />
    </clipPath>
    <clipPath
       clipPathUnits="userSpaceOnUse"
       id="clipPath1082-3-3">
      <path
         sodipodi:nodetypes="sssssssss"
         inkscape:connector-curvature="0"
         id="path1084-6-67"
         d="M 361.9375,-212 C 507.2348,-212 528,-191.28677 528,-46.125 V 70.125 C 528,215.28618 507.2348,236 361.9375,236 H 214.0625 C 68.7652,236 48,215.28618 48,70.125 V -46.125 C 48,-191.28677 68.7652,-212 214.0625,-212 Z"
         style="display:inline;opacity:1;fill:#8c59d9;fill-opacity:1;stroke:none;stroke-width:2;stroke-linecap:round;stroke-linejoin:round;stroke-miterlimit:4;stroke-dasharray:none;stroke-dashoffset:0;stroke-opacity:1;enable-background:new" />
    </clipPath>
    <clipPath
       clipPathUnits="userSpaceOnUse"
       id="clipPath1082-3-53">
      <path
         sodipodi:nodetypes="sssssssss"
         inkscape:connector-curvature="0"
         id="path1084-6-5"
         d="M 361.9375,-212 C 507.2348,-212 528,-191.28677 528,-46.125 V 70.125 C 528,215.28618 507.2348,236 361.9375,236 H 214.0625 C 68.7652,236 48,215.28618 48,70.125 V -46.125 C 48,-191.28677 68.7652,-212 214.0625,-212 Z"
         style="display:inline;opacity:1;fill:#8c59d9;fill-opacity:1;stroke:none;stroke-width:2;stroke-linecap:round;stroke-linejoin:round;stroke-miterlimit:4;stroke-dasharray:none;stroke-dashoffset:0;stroke-opacity:1;enable-background:new" />
    </clipPath>
    <clipPath
       clipPathUnits="userSpaceOnUse"
       id="clipPath1082-3-6">
      <path
         sodipodi:nodetypes="sssssssss"
         inkscape:connector-curvature="0"
         id="path1084-6-2"
         d="M 361.9375,-212 C 507.2348,-212 528,-191.28677 528,-46.125 V 70.125 C 528,215.28618 507.2348,236 361.9375,236 H 214.0625 C 68.7652,236 48,215.28618 48,70.125 V -46.125 C 48,-191.28677 68.7652,-212 214.0625,-212 Z"
         style="display:inline;opacity:1;fill:#8c59d9;fill-opacity:1;stroke:none;stroke-width:2;stroke-linecap:round;stroke-linejoin:round;stroke-miterlimit:4;stroke-dasharray:none;stroke-dashoffset:0;stroke-opacity:1;enable-background:new" />
    </clipPath>
    <clipPath
       clipPathUnits="userSpaceOnUse"
       id="clipPath1082-3-91">
      <path
         sodipodi:nodetypes="sssssssss"
         inkscape:connector-curvature="0"
         id="path1084-6-27"
         d="M 361.9375,-212 C 507.2348,-212 528,-191.28677 528,-46.125 V 70.125 C 528,215.28618 507.2348,236 361.9375,236 H 214.0625 C 68.7652,236 48,215.28618 48,70.125 V -46.125 C 48,-191.28677 68.7652,-212 214.0625,-212 Z"
         style="display:inline;opacity:1;fill:#8c59d9;fill-opacity:1;stroke:none;stroke-width:2;stroke-linecap:round;stroke-linejoin:round;stroke-miterlimit:4;stroke-dasharray:none;stroke-dashoffset:0;stroke-opacity:1;enable-background:new" />
    </clipPath>
    <clipPath
       clipPathUnits="userSpaceOnUse"
       id="clipPath1025-0">
      <path
         style="opacity:1;fill:#8c59d9;fill-opacity:1;stroke:none;stroke-width:2;stroke-linecap:round;stroke-linejoin:round;stroke-miterlimit:4;stroke-dasharray:none;stroke-dashoffset:0;stroke-opacity:1"
         d="M 329.9375,32 C 475.2348,32 496,52.71323 496,197.875 v 116.25 C 496,459.28618 475.2348,480 329.9375,480 H 182.0625 C 36.7652,480 16,459.28618 16,314.125 V 197.875 C 16,52.71323 36.7652,32 182.0625,32 Z"
         id="path1027-9"
         inkscape:connector-curvature="0"
         sodipodi:nodetypes="sssssssss" />
    </clipPath>
    <clipPath
       clipPathUnits="userSpaceOnUse"
       id="clipPath4277-8">
      <rect
         style="color:#000000;display:inline;overflow:visible;visibility:visible;opacity:0.81999972;fill:#88b637;fill-opacity:1;fill-rule:nonzero;stroke:none;stroke-width:2;stroke-linecap:butt;stroke-linejoin:miter;stroke-miterlimit:4;stroke-dasharray:none;stroke-dashoffset:0;stroke-opacity:1;marker:none;enable-background:accumulate"
         id="rect4279-6"
         width="512"
         height="512"
         x="5.5999999e-07"
         y="0"
         ry="1" />
    </clipPath>
    <linearGradient
       id="linearGradient3650-7-9">
      <stop
         style="stop-color:#5884f4;stop-opacity:1"
         offset="0"
         id="stop4366" />
      <stop
         id="stop4368"
         offset="1"
         style="stop-color:#80a3fa;stop-opacity:1" />
    </linearGradient>
    <clipPath
       clipPathUnits="userSpaceOnUse"
       id="clipPath1082-3-36">
      <path
         sodipodi:nodetypes="sssssssss"
         inkscape:connector-curvature="0"
         id="path1084-6-0"
         d="M 361.9375,-212 C 507.2348,-212 528,-191.28677 528,-46.125 V 70.125 C 528,215.28618 507.2348,236 361.9375,236 H 214.0625 C 68.7652,236 48,215.28618 48,70.125 V -46.125 C 48,-191.28677 68.7652,-212 214.0625,-212 Z"
         style="display:inline;opacity:1;fill:#8c59d9;fill-opacity:1;stroke:none;stroke-width:2;stroke-linecap:round;stroke-linejoin:round;stroke-miterlimit:4;stroke-dasharray:none;stroke-dashoffset:0;stroke-opacity:1;enable-background:new" />
    </clipPath>
    <clipPath
       clipPathUnits="userSpaceOnUse"
       id="clipPath983">
      <path
         id="path985"
         d="M 115.03125,44 C 42.3826,44 32,54.356615 32,126.9375 v 58.125 C 32,257.64309 42.3826,268 115.03125,268 H 152 V 44 Z"
         style="opacity:1;fill:#4d4d4d;fill-opacity:1;stroke:none;stroke-width:2;stroke-linecap:round;stroke-linejoin:round;stroke-miterlimit:4;stroke-dasharray:none;stroke-dashoffset:0;stroke-opacity:1"
         inkscape:connector-curvature="0" />
    </clipPath>
    <clipPath
       clipPathUnits="userSpaceOnUse"
       id="clipPath1082-3-62">
      <path
         sodipodi:nodetypes="sssssssss"
         inkscape:connector-curvature="0"
         id="path1084-6-61"
         d="M 361.9375,-212 C 507.2348,-212 528,-191.28677 528,-46.125 V 70.125 C 528,215.28618 507.2348,236 361.9375,236 H 214.0625 C 68.7652,236 48,215.28618 48,70.125 V -46.125 C 48,-191.28677 68.7652,-212 214.0625,-212 Z"
         style="display:inline;opacity:1;fill:#8c59d9;fill-opacity:1;stroke:none;stroke-width:2;stroke-linecap:round;stroke-linejoin:round;stroke-miterlimit:4;stroke-dasharray:none;stroke-dashoffset:0;stroke-opacity:1;enable-background:new" />
    </clipPath>
    <clipPath
       clipPathUnits="userSpaceOnUse"
       id="clipPath949">
      <path
         sodipodi:nodetypes="sssssssss"
         inkscape:connector-curvature="0"
         id="path951"
         d="M 329.9375,32 C 475.2348,32 496,52.71323 496,197.875 v 116.25 C 496,459.28618 475.2348,480 329.9375,480 H 182.0625 C 36.7652,480 16,459.28618 16,314.125 V 197.875 C 16,52.71323 36.7652,32 182.0625,32 Z"
         style="opacity:1;fill:#eab305;fill-opacity:1;stroke:none;stroke-width:4;stroke-linecap:round;stroke-linejoin:round;stroke-miterlimit:4;stroke-dasharray:none;stroke-dashoffset:0;stroke-opacity:1" />
    </clipPath>
    <clipPath
       clipPathUnits="userSpaceOnUse"
       id="clipPath954">
      <path
         sodipodi:nodetypes="sssssssss"
         inkscape:connector-curvature="0"
         id="path952"
         d="M 329.9375,32 C 475.2348,32 496,52.71323 496,197.875 v 116.25 C 496,459.28618 475.2348,480 329.9375,480 H 182.0625 C 36.7652,480 16,459.28618 16,314.125 V 197.875 C 16,52.71323 36.7652,32 182.0625,32 Z"
         style="opacity:1;fill:#eab305;fill-opacity:1;stroke:none;stroke-width:4;stroke-linecap:round;stroke-linejoin:round;stroke-miterlimit:4;stroke-dasharray:none;stroke-dashoffset:0;stroke-opacity:1" />
    </clipPath>
    <clipPath
       clipPathUnits="userSpaceOnUse"
       id="clipPath1082-3-8">
      <path
         sodipodi:nodetypes="sssssssss"
         inkscape:connector-curvature="0"
         id="path1084-6-7"
         d="M 361.9375,-212 C 507.2348,-212 528,-191.28677 528,-46.125 V 70.125 C 528,215.28618 507.2348,236 361.9375,236 H 214.0625 C 68.7652,236 48,215.28618 48,70.125 V -46.125 C 48,-191.28677 68.7652,-212 214.0625,-212 Z"
         style="display:inline;opacity:1;fill:#8c59d9;fill-opacity:1;stroke:none;stroke-width:2;stroke-linecap:round;stroke-linejoin:round;stroke-miterlimit:4;stroke-dasharray:none;stroke-dashoffset:0;stroke-opacity:1;enable-background:new" />
    </clipPath>
    <clipPath
       clipPathUnits="userSpaceOnUse"
       id="clipPath1082-3-92">
      <path
         sodipodi:nodetypes="sssssssss"
         inkscape:connector-curvature="0"
         id="path1084-6-02"
         d="M 361.9375,-212 C 507.2348,-212 528,-191.28677 528,-46.125 V 70.125 C 528,215.28618 507.2348,236 361.9375,236 H 214.0625 C 68.7652,236 48,215.28618 48,70.125 V -46.125 C 48,-191.28677 68.7652,-212 214.0625,-212 Z"
         style="display:inline;opacity:1;fill:#8c59d9;fill-opacity:1;stroke:none;stroke-width:2;stroke-linecap:round;stroke-linejoin:round;stroke-miterlimit:4;stroke-dasharray:none;stroke-dashoffset:0;stroke-opacity:1;enable-background:new" />
    </clipPath>
    <clipPath
       clipPathUnits="userSpaceOnUse"
       id="clipPath1082">
      <path
         sodipodi:nodetypes="sssssssss"
         inkscape:connector-curvature="0"
         id="path1084"
         d="M 361.9375,-212 C 507.2348,-212 528,-191.28677 528,-46.125 V 70.125 C 528,215.28618 507.2348,236 361.9375,236 H 214.0625 C 68.7652,236 48,215.28618 48,70.125 V -46.125 C 48,-191.28677 68.7652,-212 214.0625,-212 Z"
         style="display:inline;opacity:1;fill:#8c59d9;fill-opacity:1;stroke:none;stroke-width:2;stroke-linecap:round;stroke-linejoin:round;stroke-miterlimit:4;stroke-dasharray:none;stroke-dashoffset:0;stroke-opacity:1;enable-background:new" />
    </clipPath>
    <linearGradient
       inkscape:collect="always"
       xlink:href="#linearGradient1013"
       id="linearGradient1108"
       x1="296"
       y1="-212"
       x2="296"
       y2="236"
       gradientUnits="userSpaceOnUse" />
    <linearGradient
       id="linearGradient1013"
       inkscape:collect="always">
      <stop
         id="stop1005"
         offset="0"
         style="stop-color:#ffffff;stop-opacity:1;" />
      <stop
         style="stop-color:#ffffff;stop-opacity:0.09803922"
         offset="0.125"
         id="stop1007" />
      <stop
         style="stop-color:#000000;stop-opacity:0.09803922"
         offset="0.92500001"
         id="stop1009" />
      <stop
         id="stop1011"
         offset="1"
         style="stop-color:#000000;stop-opacity:0.49803922" />
    </linearGradient>
    <clipPath
       clipPathUnits="userSpaceOnUse"
       id="clipPath1082-3-361">
      <path
         sodipodi:nodetypes="sssssssss"
         inkscape:connector-curvature="0"
         id="path1084-6-29"
         d="M 361.9375,-212 C 507.2348,-212 528,-191.28677 528,-46.125 V 70.125 C 528,215.28618 507.2348,236 361.9375,236 H 214.0625 C 68.7652,236 48,215.28618 48,70.125 V -46.125 C 48,-191.28677 68.7652,-212 214.0625,-212 Z"
         style="display:inline;opacity:1;fill:#8c59d9;fill-opacity:1;stroke:none;stroke-width:2;stroke-linecap:round;stroke-linejoin:round;stroke-miterlimit:4;stroke-dasharray:none;stroke-dashoffset:0;stroke-opacity:1;enable-background:new" />
    </clipPath>
    <clipPath
       clipPathUnits="userSpaceOnUse"
       id="clipPath1079">
      <circle
         cx="213.84277"
         cy="146"
         r="55"
         style="color:#000000;display:inline;overflow:visible;visibility:visible;opacity:1;fill:url(#linearGradient1083);fill-opacity:1;fill-rule:nonzero;stroke:none;stroke-width:7.99999952;stroke-linecap:butt;stroke-linejoin:miter;stroke-miterlimit:4;stroke-dasharray:none;stroke-dashoffset:0;stroke-opacity:1;marker:none;enable-background:accumulate"
         id="circle1081"
         transform="scale(-1,1)" />
    </clipPath>
    <clipPath
       clipPathUnits="userSpaceOnUse"
       id="clipPath984">
      <circle
         cx="213.84277"
         cy="146"
         r="55"
         style="color:#000000;display:inline;overflow:visible;visibility:visible;opacity:1;fill:url(#linearGradient1083);fill-opacity:1;fill-rule:nonzero;stroke:none;stroke-width:7.99999952;stroke-linecap:butt;stroke-linejoin:miter;stroke-miterlimit:4;stroke-dasharray:none;stroke-dashoffset:0;stroke-opacity:1;marker:none;enable-background:accumulate"
         id="circle982"
         transform="scale(-1,1)" />
    </clipPath>
    <clipPath
       clipPathUnits="userSpaceOnUse"
       id="clipPath988">
      <circle
         cx="213.84277"
         cy="146"
         r="55"
         style="color:#000000;display:inline;overflow:visible;visibility:visible;opacity:1;fill:url(#linearGradient1083);fill-opacity:1;fill-rule:nonzero;stroke:none;stroke-width:7.99999952;stroke-linecap:butt;stroke-linejoin:miter;stroke-miterlimit:4;stroke-dasharray:none;stroke-dashoffset:0;stroke-opacity:1;marker:none;enable-background:accumulate"
         id="circle986"
         transform="scale(-1,1)" />
    </clipPath>
    <clipPath
       clipPathUnits="userSpaceOnUse"
       id="clipPath992">
      <circle
         cx="213.84277"
         cy="146"
         r="55"
         style="color:#000000;display:inline;overflow:visible;visibility:visible;opacity:1;fill:url(#linearGradient1083);fill-opacity:1;fill-rule:nonzero;stroke:none;stroke-width:7.99999952;stroke-linecap:butt;stroke-linejoin:miter;stroke-miterlimit:4;stroke-dasharray:none;stroke-dashoffset:0;stroke-opacity:1;marker:none;enable-background:accumulate"
         id="circle990"
         transform="scale(-1,1)" />
    </clipPath>
    <linearGradient
       gradientTransform="matrix(0.26970781,0,0,0.26970781,-7.1289179,220.5605)"
       inkscape:collect="always"
       xlink:href="#linearGradient4632-92-3-0-8-1-9"
       id="linearGradient1044"
       x1="88"
       y1="28"
       x2="256"
       y2="284"
       gradientUnits="userSpaceOnUse" />
    <filter
       inkscape:collect="always"
       style="color-interpolation-filters:sRGB"
       id="filter4569"
       x="-0.0116"
       width="1.0232"
       y="-0.012428571"
       height="1.024857">
      <feGaussianBlur
         inkscape:collect="always"
         stdDeviation="1.16"
         id="feGaussianBlur4571" />
    </filter>
    <filter
       inkscape:collect="always"
       style="color-interpolation-filters:sRGB"
       id="filter939"
       x="-0.0232"
       width="1.0464"
       y="-0.024857143"
       height="1.0497143">
      <feGaussianBlur
         inkscape:collect="always"
         stdDeviation="2.32"
         id="feGaussianBlur941" />
    </filter>
    <clipPath
       clipPathUnits="userSpaceOnUse"
       id="clipPath1082-6">
      <path
         sodipodi:nodetypes="sssssssss"
         inkscape:connector-curvature="0"
         id="path1084-7"
         d="M 361.9375,-212 C 507.2348,-212 528,-191.28677 528,-46.125 V 70.125 C 528,215.28618 507.2348,236 361.9375,236 H 214.0625 C 68.7652,236 48,215.28618 48,70.125 V -46.125 C 48,-191.28677 68.7652,-212 214.0625,-212 Z"
         style="display:inline;opacity:1;fill:#8c59d9;fill-opacity:1;stroke:none;stroke-width:2;stroke-linecap:round;stroke-linejoin:round;stroke-miterlimit:4;stroke-dasharray:none;stroke-dashoffset:0;stroke-opacity:1;enable-background:new" />
    </clipPath>
    <linearGradient
       y2="113"
       x2="64"
       y1="3"
       x1="64"
       gradientUnits="userSpaceOnUse"
       id="linearGradient4246">
      <stop
         id="stop4248"
         style="stop-color:#29ABE2"
         offset="0" />
      <stop
         id="stop4250"
         style="stop-color:#28A9E1"
         offset="0.4757" />
      <stop
         id="stop4252"
         style="stop-color:#23A2DC"
         offset="0.6639" />
      <stop
         id="stop4254"
         style="stop-color:#1A96D4"
         offset="0.8012" />
      <stop
         id="stop4256"
         style="stop-color:#0E85C9"
         offset="0.913" />
      <stop
         id="stop4258"
         style="stop-color:#0071BC"
         offset="1" />
    </linearGradient>
    <radialGradient
       r="27.5"
       fy="4.3419166"
       fx="31.999998"
       cy="4.3419166"
       cx="31.999998"
       gradientTransform="matrix(0,0.8911539,-0.89115384,0,-209.06923,117.80048)"
       gradientUnits="userSpaceOnUse"
       id="radialGradient3044-5"
       xlink:href="#linearGradient4632-92-3-0-8-1-9" />
    <linearGradient
       id="linearGradient4632-92-3-0-8-1-9">
      <stop
         offset="0"
         style="stop-color:#fafafa;stop-opacity:1"
         id="stop4634-68-8-0-2-9-4" />
      <stop
         offset="1"
         style="stop-color:#e1e1e1;stop-opacity:1"
         id="stop4636-8-21-7-1-4-8" />
    </linearGradient>
    <filter
       inkscape:collect="always"
       style="color-interpolation-filters:sRGB"
       id="filter970"
       x="-0.04827947"
       width="1.0965589"
       y="-0.047723747"
       height="1.0954475">
      <feGaussianBlur
         inkscape:collect="always"
         stdDeviation="0.64363143"
         id="feGaussianBlur972" />
    </filter>
  </defs>
  <sodipodi:namedview
     id="base"
     pagecolor="#ffffff"
     bordercolor="#666666"
     borderopacity="1.0"
     inkscape:pageopacity="0.0"
     inkscape:pageshadow="2"
     inkscape:zoom="3.2382812"
     inkscape:cx="128"
     inkscape:cy="128"
     inkscape:document-units="px"
     inkscape:current-layer="g935"
     showgrid="false"
     units="px"
     inkscape:window-width="1920"
     inkscape:window-height="1009"
     inkscape:window-x="0"
     inkscape:window-y="34"
     inkscape:window-maximized="1">
    <inkscape:grid
       type="xygrid"
       id="grid2168" />
  </sodipodi:namedview>
  <metadata
     id="metadata1485">
    <rdf:RDF>
      <cc:Work
         rdf:about="">
        <dc:format>image/svg+xml</dc:format>
        <dc:type
           rdf:resource="http://purl.org/dc/dcmitype/StillImage" />
        <dc:title></dc:title>
      </cc:Work>
    </rdf:RDF>
  </metadata>
  <g
     inkscape:label="Livello 1"
     inkscape:groupmode="layer"
     id="layer1"
     transform="translate(0,-229.26666)">
    <path
       style="display:inline;opacity:0.2;fill:#000000;fill-opacity:1;stroke:none;stroke-width:2;stroke-linecap:round;stroke-linejoin:round;stroke-miterlimit:4;stroke-dasharray:none;stroke-dashoffset:0;stroke-opacity:1;filter:url(#filter939);enable-background:new"
       d="m 162.53675,5.5680001 c 72.64865,0 83.03125,10.3566149 83.03125,82.9375049 v 58.125005 c 0,72.58059 -10.3826,82.9375 -83.03125,82.9375 H 88.599254 C 15.9506,229.56801 5.568,219.2111 5.568,146.63051 V 88.505505 c 0,-72.58089 10.3826,-82.9375049 83.031254,-82.9375049 z"
       id="path937"
       inkscape:connector-curvature="0"
       sodipodi:nodetypes="sssssssss"
       transform="matrix(0.26970779,0,0,0.26970779,-1.9098094e-8,231.46531)" />
    <path
       sodipodi:nodetypes="sssssssss"
       inkscape:connector-curvature="0"
       id="path4558"
       d="m 43.837429,232.42763 c 19.593907,0 22.394176,2.79326 22.394176,22.36889 v 15.67677 c 0,19.57555 -2.800269,22.36889 -22.394176,22.36889 H 23.89591 c -19.5939088,0 -22.394177,-2.79334 -22.394177,-22.36889 v -15.67677 c 0,-19.57563 2.8002682,-22.36889 22.394177,-22.36889 z"
       style="display:inline;opacity:0.1;fill:none;fill-opacity:1;stroke:#000000;stroke-width:1.07883108;stroke-linecap:round;stroke-linejoin:round;stroke-miterlimit:4;stroke-dasharray:none;stroke-dashoffset:0;stroke-opacity:1;enable-background:new" />
    <path
       sodipodi:nodetypes="sssssssss"
       inkscape:connector-curvature="0"
       id="path4567"
       d="m 162.53675,3.5680001 c 72.64865,0 83.03125,10.3566149 83.03125,82.9375049 v 58.125005 c 0,72.58059 -10.3826,82.9375 -83.03125,82.9375 H 88.599254 C 15.9506,227.56801 5.568,217.2111 5.568,144.63051 V 86.505505 c 0,-72.58089 10.3826,-82.9375049 83.031254,-82.9375049 z"
       style="display:inline;opacity:0.1;fill:#000000;fill-opacity:1;stroke:none;stroke-width:2;stroke-linecap:round;stroke-linejoin:round;stroke-miterlimit:4;stroke-dasharray:none;stroke-dashoffset:0;stroke-opacity:1;filter:url(#filter4569);enable-background:new"
       transform="matrix(0.26970779,0,0,0.26970779,-1.9098094e-8,231.46531)" />
    <path
       style="display:inline;opacity:1;fill:url(#linearGradient1044);fill-opacity:1;stroke:none;stroke-width:0.53941554;stroke-linecap:round;stroke-linejoin:round;stroke-miterlimit:4;stroke-dasharray:none;stroke-dashoffset:0;stroke-opacity:1;enable-background:new"
       d="m 43.837427,232.42763 c 19.593907,0 22.394175,2.79326 22.394175,22.36889 v 15.67677 c 0,19.57555 -2.800268,22.36889 -22.394175,22.36889 h -19.94152 c -19.5939074,0 -22.3941756,-2.79334 -22.3941756,-22.36889 v -15.67677 c 0,-19.57563 2.8002682,-22.36889 22.3941756,-22.36889 z"
       id="rect877"
       inkscape:connector-curvature="0"
       sodipodi:nodetypes="sssssssss" />
    <path
       sodipodi:nodetypes="sssssssss"
       inkscape:connector-curvature="0"
       id="path1068"
       d="M 361.9375,-212 C 507.2348,-212 528,-191.28677 528,-46.125 V 70.125 C 528,215.28618 507.2348,236 361.9375,236 H 214.0625 C 68.7652,236 48,215.28618 48,70.125 V -46.125 C 48,-191.28677 68.7652,-212 214.0625,-212 Z"
       style="display:inline;opacity:0.4;fill:none;fill-opacity:1;stroke:url(#linearGradient1108);stroke-width:8;stroke-linecap:round;stroke-linejoin:round;stroke-miterlimit:4;stroke-dasharray:none;stroke-dashoffset:0;stroke-opacity:1;enable-background:new"
       clip-path="url(#clipPath1082-3-361)"
       transform="matrix(0.1348539,0,0,0.1348539,-4.9712559,261.01678)" />
    <path
       style="display:inline;opacity:0.1;fill:#070707;fill-opacity:1;stroke:none;stroke-width:0.53941554;stroke-linecap:round;stroke-linejoin:round;stroke-miterlimit:4;stroke-dasharray:none;stroke-dashoffset:0;stroke-opacity:1;enable-background:new"
       d="m 33.866666,232.42763 v 60.41455 h 9.970761 c 19.593907,0 22.394175,-2.79334 22.394175,-22.36889 v -15.67677 c 0,-19.57563 -2.800268,-22.36889 -22.394175,-22.36889 z"
       id="path1099"
       inkscape:connector-curvature="0" />
    <path
       style="display:inline;opacity:0.1;fill:#070707;fill-opacity:1;stroke:none;stroke-width:0.54212564;stroke-linecap:round;stroke-linejoin:round;stroke-miterlimit:4;stroke-dasharray:none;stroke-dashoffset:0;stroke-opacity:1;enable-background:new"
       d="m 23.895907,292.84218 c -19.5939074,0 -22.3941756,-2.8214 -22.3941756,-22.59422 v -7.91734 H 66.231602 v 7.91734 c 0,19.77282 -2.800268,22.59422 -22.394175,22.59422 z"
       id="path1107"
       inkscape:connector-curvature="0" />
    <g
       transform="matrix(1.2404171,0,0,1.2404171,-8.9757152,-61.254162)"
       id="g944"
       style="fill:#000000;fill-opacity:1;filter:url(#filter970);opacity:0.3">
      <path
         inkscape:connector-curvature="0"
         id="path938"
         d="m 24.367542,250.08941 c -2.101338,2.3954 -4.564176,5.51755 -4.696773,6.12047 -0.155373,0.70641 -0.105189,0.78643 0.467093,0.74791 0.352537,-0.0234 1.124307,-0.49086 1.715158,-1.03832 0.645302,-0.59799 1.436495,-1.0369 1.981719,-1.09909 0.846844,-0.0967 1.093159,0.0583 3.675655,2.31521 0.335212,0.29295 0.525915,0.46585 0.776931,0.68787 -0.01482,0.084 -0.02697,0.1693 -0.0329,0.25675 -0.02886,0.42675 0.04888,0.84855 -0.06017,1.44628 -0.125658,0.68855 -0.306073,1.1652 -0.455737,1.51647 -0.607656,1.4262 -0.905708,2.38031 -1.160672,3.25371 -0.205647,0.70451 -0.342992,1.36658 -0.409328,2.27695 -0.121731,1.6706 -0.07827,3.07144 0.902252,3.93307 l -3.41e-4,3.9e-4 0.0014,9.3e-4 c 6.56e-4,5.7e-4 0.0014,9.4e-4 0.0023,0.002 6.62e-4,5.8e-4 0.0014,9.3e-4 0.0023,0.002 3.99e-4,3.5e-4 7.53e-4,6.7e-4 0.0014,9.4e-4 l 3.4e-4,-4e-4 c 0.985229,0.85622 2.379256,0.71166 4.018487,0.36723 0.893284,-0.18768 1.530992,-0.4125 2.201591,-0.71067 0.831372,-0.36967 1.736953,-0.79286 3.068887,-1.5861 0.328061,-0.19537 0.776237,-0.43801 1.441753,-0.65478 0.57772,-0.18817 1.006154,-0.1676 1.425185,-0.25337 0.05325,-0.0105 0.103574,-0.0273 0.15505,-0.0415 0.496516,0.39209 1.137906,0.92511 1.857343,1.55384 3.395657,2.96751 3.49971,3.21952 2.166514,5.2397 -1.574157,2.38528 -1.172794,3.32727 0.787114,1.84632 1.499357,-1.13297 7.112169,-7.90157 7.314236,-8.8203 0.155369,-0.70641 0.10558,-0.78609 -0.46671,-0.74757 -0.352534,0.0234 -1.124691,0.49051 -1.715543,1.03798 -0.645298,0.59798 -1.436492,1.0369 -1.98172,1.09909 -0.846837,0.0967 -1.093158,-0.0583 -3.675654,-2.31521 -0.854627,-0.74688 -1.42323,-1.2491 -1.834065,-1.64331 0.01207,-0.0736 0.02335,-0.14784 0.02849,-0.22422 0.02886,-0.42674 -0.04891,-0.84856 0.06016,-1.44629 0.125659,-0.68855 0.306074,-1.16519 0.455738,-1.51647 0.607656,-1.42619 0.905716,-2.3803 1.160679,-3.2537 0.205648,-0.7045 0.342992,-1.36659 0.409328,-2.27695 0.121732,-1.6706 0.07826,-3.07145 -0.902251,-3.93308 l 3.4e-4,-3.8e-4 -0.0015,-9.3e-4 c -0.0015,-9.4e-4 -0.0023,-0.002 -0.0038,-0.003 l -0.0015,-9.4e-4 -3.4e-4,3.9e-4 c -0.985237,-0.85623 -2.379256,-0.71166 -4.018488,-0.36723 -0.893277,0.18769 -1.530993,0.4125 -2.201592,0.71067 -0.831371,0.36967 -1.73696,0.79285 -3.068894,1.58609 -0.32806,0.19538 -0.776236,0.43802 -1.441753,0.65478 -0.57772,0.18817 -1.006147,0.16761 -1.425178,0.25338 -0.06359,0.0131 -0.12425,0.0317 -0.185281,0.0495 -0.264244,-0.22176 -0.466472,-0.37815 -0.764833,-0.63889 -3.395657,-2.9675 -3.50006,-3.21912 -2.166855,-5.2393 1.574154,-2.38528 1.172796,-3.32728 -0.787113,-1.84633 -0.374867,0.28322 -1.006998,0.9186 -1.747212,1.7268 -0.277897,0.30279 -0.570419,0.63052 -0.870642,0.97269 z m 5.426445,8.1009 c 2.187561,-2.50318 6.917323,-3.37209 9.227947,-1.3528 2.310623,2.01928 2.410389,5.68546 0.222832,8.18864 -2.18756,2.50318 -5.834059,2.89545 -8.144683,0.87616 -2.310623,-2.01928 -3.493652,-5.20883 -1.306096,-7.712 z"
         style="opacity:1;fill:#000000;fill-opacity:1;stroke:none;stroke-width:1.13566422;stroke-linecap:round;stroke-linejoin:round;stroke-miterlimit:4;stroke-dasharray:none;stroke-opacity:1"
         sodipodi:nodetypes="cccccscccscsccccccccccccccccscccscccccscccccccccccccccccccscsc" />
      <path
         sodipodi:nodetypes="cccccscccccsccscscccccccsccccccsccccsccscccscccccscccccsssss"
         inkscape:connector-curvature="0"
         id="path940"
         d="m 36.519796,245.66279 c -3.186459,-0.006 -7.158032,0.19403 -7.699272,0.49093 -0.634162,0.34786 -0.661389,0.4383 -0.255799,0.84387 0.249841,0.24983 1.109448,0.52358 1.910477,0.60823 0.874911,0.0924 1.726043,0.39933 2.131652,0.76895 0.630021,0.57407 0.675413,0.86152 0.675413,4.29121 0,0.44518 -0.0047,0.70255 -0.0067,1.03766 -0.07299,0.0441 -0.145224,0.0911 -0.214974,0.14418 -0.340326,0.25908 -0.606764,0.59521 -1.128615,0.9064 -0.601159,0.35848 -1.078782,0.53628 -1.441772,0.65474 -1.473761,0.48094 -2.388325,0.88436 -3.213757,1.26711 -0.6658,0.30874 -1.254715,0.641 -1.983858,1.19011 -1.338034,1.00766 -2.364241,1.9622 -2.367814,3.2675 h -5.17e-4 v 0.002 c 0,8.7e-4 -1e-6,0.002 0,0.003 -1e-6,8.8e-4 0,0.002 0,0.003 v 0.002 h 5.17e-4 c 0.0036,1.30529 1.02978,2.25984 2.367814,3.2675 0.729143,0.54912 1.318058,0.88137 1.983858,1.19011 0.825432,0.38275 1.739996,0.78616 3.213757,1.2671 0.36299,0.11846 0.840613,0.29626 1.441772,0.65474 0.527564,0.27146 1.189519,0.49022 1.261939,0.99581 0.0392,0.34079 0.05219,1.46559 0.05219,2.42104 0,4.50961 -0.121285,4.75379 -2.519744,5.07928 -2.831935,0.3843 -3.277125,1.30639 -0.872296,1.80764 1.839743,0.38345 10.629841,0.15578 11.454598,-0.29663 0.634156,-0.34786 0.661387,-0.43778 0.255796,-0.84336 -0.249835,-0.24983 -1.109445,-0.52409 -1.910477,-0.60874 -0.874903,-0.0924 -1.726038,-0.39933 -2.131652,-0.76895 -0.630013,-0.57407 -0.675413,-0.86152 -0.675413,-4.29121 0,-1.13499 -0.03771,-1.8971 0.03049,-2.46238 0.252068,-0.59605 1.032507,-0.86468 1.316199,-1.0325 0.60116,-0.35848 1.078783,-0.53628 1.441773,-0.65474 1.473761,-0.48094 2.388325,-0.88435 3.213756,-1.2671 0.6658,-0.30874 1.254715,-0.641 1.983859,-1.19011 1.338035,-1.00766 2.36424,-1.9622 2.367814,-3.2675 h 5.16e-4 v -0.002 c 0,-0.002 3e-6,-0.003 0,-0.005 v -0.002 h -5.16e-4 c -0.0036,-1.3053 -1.029779,-2.25984 -2.367814,-3.2675 -0.729144,-0.54911 -1.318059,-0.88137 -1.983859,-1.19011 -0.825431,-0.38275 -1.739995,-0.78617 -3.213756,-1.26711 -0.36299,-0.11846 -0.840613,-0.29626 -1.441773,-0.65474 -0.521851,-0.31119 -0.788289,-0.64732 -1.128615,-0.9064 -0.05167,-0.0393 -0.105629,-0.0727 -0.159162,-0.10697 -0.0069,-0.3449 -0.02222,-0.60008 -0.02222,-0.99632 0,-4.50961 0.120764,-4.7538 2.519225,-5.07928 2.83193,-0.3843 3.277129,-1.30639 0.872299,-1.80764 -0.459936,-0.0959 -1.35433,-0.15378 -2.449981,-0.17932 -0.410868,-0.01 -0.850138,-0.0146 -1.305345,-0.0155 z m -1.457278,9.91877 c 3.324352,0 6.019271,2.48762 6.019271,5.55625 0,3.06863 -2.694919,5.55625 -6.019271,5.55625 -3.324351,0 -6.01927,-2.48762 -6.01927,-5.55625 0,-3.06863 2.694919,-5.55625 6.01927,-5.55625 z"
         style="opacity:1;fill:#000000;fill-opacity:1;stroke:none;stroke-width:1.13566422;stroke-linecap:round;stroke-linejoin:round;stroke-miterlimit:4;stroke-dasharray:none;stroke-opacity:1" />
      <path
         style="opacity:1;fill:#000000;fill-opacity:1;stroke:none;stroke-width:1.13566422;stroke-linecap:round;stroke-linejoin:round;stroke-miterlimit:4;stroke-dasharray:none;stroke-opacity:1"
         d="m 35.990113,245.65379 c -3.186459,-0.006 -7.158032,0.19403 -7.699272,0.49093 -0.634162,0.34786 -0.661389,0.4383 -0.255799,0.84387 0.249841,0.24983 1.109448,0.52358 1.910477,0.60823 0.874911,0.0924 1.726043,0.39933 2.131652,0.76895 0.630021,0.57407 0.675413,0.86152 0.675413,4.29121 0,0.44518 -0.0047,0.70255 -0.0067,1.03766 -0.07299,0.0441 -0.145224,0.0911 -0.214974,0.14418 -0.340326,0.25908 -0.606764,0.59521 -1.128615,0.9064 -0.601159,0.35848 -1.078782,0.53628 -1.441772,0.65474 -1.473761,0.48094 -2.388325,0.88436 -3.213757,1.26711 -0.6658,0.30874 -1.254715,0.641 -1.983858,1.19011 -1.338034,1.00766 -2.364241,1.9622 -2.367814,3.2675 h -5.17e-4 v 0.002 c 0,8.7e-4 -1e-6,0.002 0,0.003 -1e-6,8.8e-4 0,0.002 0,0.003 v 0.002 h 5.17e-4 c 0.0036,1.30529 1.02978,2.25984 2.367814,3.2675 0.729143,0.54912 1.318058,0.88137 1.983858,1.19011 0.825432,0.38275 1.739996,0.78616 3.213757,1.2671 0.36299,0.11846 0.840613,0.29626 1.441772,0.65474 0.527564,0.27146 1.189519,0.49022 1.261939,0.99581 0.0392,0.34079 0.05219,1.46559 0.05219,2.42104 0,4.50961 -0.121285,4.75379 -2.519744,5.07928 -2.831935,0.3843 -3.277125,1.30639 -0.872296,1.80764 1.839743,0.38345 10.629841,0.15578 11.454598,-0.29663 0.634156,-0.34786 0.661387,-0.43778 0.255796,-0.84336 -0.249835,-0.24983 -1.109445,-0.52409 -1.910477,-0.60874 -0.874903,-0.0924 -1.726038,-0.39933 -2.131652,-0.76895 -0.630013,-0.57407 -0.675413,-0.86152 -0.675413,-4.29121 0,-1.13499 -0.03771,-1.8971 0.03049,-2.46238 0.252068,-0.59605 1.032507,-0.86468 1.316199,-1.0325 0.60116,-0.35848 1.078783,-0.53628 1.441773,-0.65474 1.473761,-0.48094 2.388325,-0.88435 3.213756,-1.2671 0.6658,-0.30874 1.254715,-0.641 1.983859,-1.19011 1.338035,-1.00766 2.36424,-1.9622 2.367814,-3.2675 h 5.16e-4 v -0.002 c 0,-0.002 3e-6,-0.003 0,-0.005 v -0.002 h -5.16e-4 c -0.0036,-1.3053 -1.029779,-2.25984 -2.367814,-3.2675 -0.729144,-0.54911 -1.318059,-0.88137 -1.983859,-1.19011 -0.825431,-0.38275 -1.739995,-0.78617 -3.213756,-1.26711 -0.36299,-0.11846 -0.840613,-0.29626 -1.441773,-0.65474 -0.521851,-0.31119 -0.788289,-0.64732 -1.128615,-0.9064 -0.05167,-0.0393 -0.105629,-0.0727 -0.159162,-0.10697 -0.0069,-0.3449 -0.02222,-0.60008 -0.02222,-0.99632 0,-4.50961 0.120764,-4.7538 2.519225,-5.07928 2.83193,-0.3843 3.277129,-1.30639 0.872299,-1.80764 -0.459936,-0.0959 -1.35433,-0.15378 -2.449981,-0.17932 -0.410868,-0.01 -0.850138,-0.0146 -1.305345,-0.0155 z m -1.457278,9.91877 c 3.324352,0 6.019271,2.48762 6.019271,5.55625 0,3.06863 -2.694919,5.55625 -6.019271,5.55625 -3.324351,0 -6.01927,-2.48762 -6.01927,-5.55625 0,-3.06863 2.694919,-5.55625 6.01927,-5.55625 z"
         id="path942"
         inkscape:connector-curvature="0"
         sodipodi:nodetypes="cccccscccccsccscscccccccsccccccsccccsccscccscccccscccccsssss" />
    </g>
    <g
       id="g935"
       transform="matrix(1.2404171,0,0,1.2404171,-8.9757152,-61.254162)">
      <path
         sodipodi:nodetypes="cccccscccscsccccccccccccccccscccscccccscccccccccccccccccccscsc"
         style="opacity:1;fill:#7ad5ff;fill-opacity:1;stroke:none;stroke-width:1.13566422;stroke-linecap:round;stroke-linejoin:round;stroke-miterlimit:4;stroke-dasharray:none;stroke-opacity:1"
         d="m 24.367542,250.08941 c -2.101338,2.3954 -4.564176,5.51755 -4.696773,6.12047 -0.155373,0.70641 -0.105189,0.78643 0.467093,0.74791 0.352537,-0.0234 1.124307,-0.49086 1.715158,-1.03832 0.645302,-0.59799 1.436495,-1.0369 1.981719,-1.09909 0.846844,-0.0967 1.093159,0.0583 3.675655,2.31521 0.335212,0.29295 0.525915,0.46585 0.776931,0.68787 -0.01482,0.084 -0.02697,0.1693 -0.0329,0.25675 -0.02886,0.42675 0.04888,0.84855 -0.06017,1.44628 -0.125658,0.68855 -0.306073,1.1652 -0.455737,1.51647 -0.607656,1.4262 -0.905708,2.38031 -1.160672,3.25371 -0.205647,0.70451 -0.342992,1.36658 -0.409328,2.27695 -0.121731,1.6706 -0.07827,3.07144 0.902252,3.93307 l -3.41e-4,3.9e-4 0.0014,9.3e-4 c 6.56e-4,5.7e-4 0.0014,9.4e-4 0.0023,0.002 6.62e-4,5.8e-4 0.0014,9.3e-4 0.0023,0.002 3.99e-4,3.5e-4 7.53e-4,6.7e-4 0.0014,9.4e-4 l 3.4e-4,-4e-4 c 0.985229,0.85622 2.379256,0.71166 4.018487,0.36723 0.893284,-0.18768 1.530992,-0.4125 2.201591,-0.71067 0.831372,-0.36967 1.736953,-0.79286 3.068887,-1.5861 0.328061,-0.19537 0.776237,-0.43801 1.441753,-0.65478 0.57772,-0.18817 1.006154,-0.1676 1.425185,-0.25337 0.05325,-0.0105 0.103574,-0.0273 0.15505,-0.0415 0.496516,0.39209 1.137906,0.92511 1.857343,1.55384 3.395657,2.96751 3.49971,3.21952 2.166514,5.2397 -1.574157,2.38528 -1.172794,3.32727 0.787114,1.84632 1.499357,-1.13297 7.112169,-7.90157 7.314236,-8.8203 0.155369,-0.70641 0.10558,-0.78609 -0.46671,-0.74757 -0.352534,0.0234 -1.124691,0.49051 -1.715543,1.03798 -0.645298,0.59798 -1.436492,1.0369 -1.98172,1.09909 -0.846837,0.0967 -1.093158,-0.0583 -3.675654,-2.31521 -0.854627,-0.74688 -1.42323,-1.2491 -1.834065,-1.64331 0.01207,-0.0736 0.02335,-0.14784 0.02849,-0.22422 0.02886,-0.42674 -0.04891,-0.84856 0.06016,-1.44629 0.125659,-0.68855 0.306074,-1.16519 0.455738,-1.51647 0.607656,-1.42619 0.905716,-2.3803 1.160679,-3.2537 0.205648,-0.7045 0.342992,-1.36659 0.409328,-2.27695 0.121732,-1.6706 0.07826,-3.07145 -0.902251,-3.93308 l 3.4e-4,-3.8e-4 -0.0015,-9.3e-4 c -0.0015,-9.4e-4 -0.0023,-0.002 -0.0038,-0.003 l -0.0015,-9.4e-4 -3.4e-4,3.9e-4 c -0.985237,-0.85623 -2.379256,-0.71166 -4.018488,-0.36723 -0.893277,0.18769 -1.530993,0.4125 -2.201592,0.71067 -0.831371,0.36967 -1.73696,0.79285 -3.068894,1.58609 -0.32806,0.19538 -0.776236,0.43802 -1.441753,0.65478 -0.57772,0.18817 -1.006147,0.16761 -1.425178,0.25338 -0.06359,0.0131 -0.12425,0.0317 -0.185281,0.0495 -0.264244,-0.22176 -0.466472,-0.37815 -0.764833,-0.63889 -3.395657,-2.9675 -3.50006,-3.21912 -2.166855,-5.2393 1.574154,-2.38528 1.172796,-3.32728 -0.787113,-1.84633 -0.374867,0.28322 -1.006998,0.9186 -1.747212,1.7268 -0.277897,0.30279 -0.570419,0.63052 -0.870642,0.97269 z m 5.426445,8.1009 c 2.187561,-2.50318 6.917323,-3.37209 9.227947,-1.3528 2.310623,2.01928 2.410389,5.68546 0.222832,8.18864 -2.18756,2.50318 -5.834059,2.89545 -8.144683,0.87616 -2.310623,-2.01928 -3.493652,-5.20883 -1.306096,-7.712 z"
         id="path919"
         inkscape:connector-curvature="0" />
      <path
         style="opacity:1;fill:#272727;fill-opacity:1;stroke:none;stroke-width:1.13566422;stroke-linecap:round;stroke-linejoin:round;stroke-miterlimit:4;stroke-dasharray:none;stroke-opacity:1"
         d="m 36.416717,245.65379 c -3.186459,-0.006 -7.158032,0.19403 -7.699272,0.49093 -0.634162,0.34786 -0.661389,0.4383 -0.255799,0.84387 0.249841,0.24983 1.109448,0.52358 1.910477,0.60823 0.874911,0.0924 1.726043,0.39933 2.131652,0.76895 0.630021,0.57407 0.675413,0.86152 0.675413,4.29121 0,0.44518 0.0054,0.59518 -0.08904,1.03766 -0.137065,0.64206 -0.855986,0.80386 -1.261253,1.05058 -0.601159,0.35848 -1.078782,0.53628 -1.441772,0.65474 -1.473761,0.48094 -2.388325,0.88436 -3.213757,1.26711 -0.6658,0.30874 -1.254715,0.641 -1.983858,1.19011 -1.338034,1.00766 -2.364241,1.9622 -2.367814,3.2675 h -5.17e-4 v 0.002 c 0,8.7e-4 -10e-7,0.002 0,0.003 -10e-7,8.8e-4 0,0.002 0,0.003 v 0.002 h 5.17e-4 c 0.0036,1.30529 1.02978,2.25984 2.367814,3.2675 0.729143,0.54912 1.318058,0.88137 1.983858,1.19011 0.825432,0.38275 1.739996,0.78616 3.213757,1.2671 0.36299,0.11846 0.840613,0.29626 1.441772,0.65474 0.527564,0.27146 1.189519,0.49022 1.261939,0.99581 0.0392,0.34079 0.05219,1.46559 0.05219,2.42104 0,4.50961 -0.121285,4.75379 -2.519744,5.07928 -2.831935,0.3843 -3.277125,1.30639 -0.872296,1.80764 1.839743,0.38345 10.629841,0.15578 11.454598,-0.29663 0.634156,-0.34786 0.661387,-0.43778 0.255796,-0.84336 -0.249835,-0.24983 -1.109445,-0.52409 -1.910477,-0.60874 -0.874903,-0.0924 -1.726038,-0.39933 -2.131652,-0.76895 -0.630013,-0.57407 -0.675413,-0.86152 -0.675413,-4.29121 0,-1.13499 -0.03771,-1.8971 0.03049,-2.46238 0.252068,-0.59605 1.032507,-0.86468 1.316199,-1.0325 0.60116,-0.35848 1.078783,-0.53628 1.441773,-0.65474 1.473761,-0.48094 2.388325,-0.88435 3.213756,-1.2671 0.6658,-0.30874 1.254715,-0.641 1.983859,-1.19011 1.338035,-1.00766 2.36424,-1.9622 2.367814,-3.2675 h 5.16e-4 v -0.002 c 0,-0.002 3e-6,-0.003 0,-0.005 v -0.002 h -5.16e-4 c -0.0036,-1.3053 -1.029779,-2.25984 -2.367814,-3.2675 -0.729144,-0.54911 -1.318059,-0.88137 -1.983859,-1.19011 -0.825431,-0.38275 -2.728028,-1.37898 -4.201789,-1.85992 -1.078273,-0.52864 -1.314654,-0.68217 -1.560378,-1.25644 -0.21209,-0.49567 -0.153957,-0.81415 -0.153957,-1.21039 0,-4.50961 0.07136,-4.35859 2.469823,-4.68407 2.83193,-0.3843 3.277129,-1.30639 0.872299,-1.80764 -0.459936,-0.0959 -1.35433,-0.15378 -2.449981,-0.17932 -0.410868,-0.01 -0.850138,-0.0146 -1.305345,-0.0155 z m -1.457278,9.91877 c 3.324352,0 6.019271,2.48762 6.019271,5.55625 0,3.06863 -2.694919,5.55625 -6.019271,5.55625 -3.324351,0 -6.01927,-2.48762 -6.01927,-5.55625 0,-3.06863 2.694919,-5.55625 6.01927,-5.55625 z"
         id="path1002"
         inkscape:connector-curvature="0"
         sodipodi:nodetypes="cccccsscccsccscscccccccsccccccsccccsccscccsccsscccccsssss" />
      <path
         sodipodi:nodetypes="cccccsscccsccscscccccccsccccccsccccsccscccsccsscccccsssss"
         inkscape:connector-curvature="0"
         id="path1527"
         d="m 35.990113,245.65379 c -3.186459,-0.006 -7.158032,0.19403 -7.699272,0.49093 -0.634162,0.34786 -0.661389,0.4383 -0.255799,0.84387 0.249841,0.24983 1.109448,0.52358 1.910477,0.60823 0.874911,0.0924 1.726043,0.39933 2.131652,0.76895 0.630021,0.57407 0.675413,0.86152 0.675413,4.29121 0,0.44518 0.0054,0.59518 -0.08904,1.03766 -0.137065,0.64206 -0.855986,0.80386 -1.261253,1.05058 -0.601159,0.35848 -1.078782,0.53628 -1.441772,0.65474 -1.473761,0.48094 -2.388325,0.88436 -3.213757,1.26711 -0.6658,0.30874 -1.254715,0.641 -1.983858,1.19011 -1.338034,1.00766 -2.364241,1.9622 -2.367814,3.2675 h -5.17e-4 v 0.002 c 0,8.7e-4 -1e-6,0.002 0,0.003 -1e-6,8.8e-4 0,0.002 0,0.003 v 0.002 h 5.17e-4 c 0.0036,1.30529 1.02978,2.25984 2.367814,3.2675 0.729143,0.54912 1.318058,0.88137 1.983858,1.19011 0.825432,0.38275 1.739996,0.78616 3.213757,1.2671 0.36299,0.11846 0.840613,0.29626 1.441772,0.65474 0.527564,0.27146 1.189519,0.49022 1.261939,0.99581 0.0392,0.34079 0.05219,1.46559 0.05219,2.42104 0,4.50961 -0.121285,4.75379 -2.519744,5.07928 -2.831935,0.3843 -3.277125,1.30639 -0.872296,1.80764 1.839743,0.38345 10.629841,0.15578 11.454598,-0.29663 0.634156,-0.34786 0.661387,-0.43778 0.255796,-0.84336 -0.249835,-0.24983 -1.109445,-0.52409 -1.910477,-0.60874 -0.874903,-0.0924 -1.726038,-0.39933 -2.131652,-0.76895 -0.630013,-0.57407 -0.675413,-0.86152 -0.675413,-4.29121 0,-1.13499 -0.03771,-1.8971 0.03049,-2.46238 0.252068,-0.59605 1.032507,-0.86468 1.316199,-1.0325 0.60116,-0.35848 1.078783,-0.53628 1.441773,-0.65474 1.473761,-0.48094 2.388325,-0.88435 3.213756,-1.2671 0.6658,-0.30874 1.254715,-0.641 1.983859,-1.19011 1.338035,-1.00766 2.36424,-1.9622 2.367814,-3.2675 h 5.16e-4 v -0.002 c 0,-0.002 3e-6,-0.003 0,-0.005 v -0.002 h -5.16e-4 c -0.0036,-1.3053 -1.029779,-2.25984 -2.367814,-3.2675 -0.729144,-0.54911 -1.318059,-0.88137 -1.983859,-1.19011 -0.825431,-0.38275 -2.728028,-1.37898 -4.201789,-1.85992 -1.078273,-0.52864 -1.314654,-0.68217 -1.560378,-1.25644 -0.21209,-0.49567 -0.153957,-0.81415 -0.153957,-1.21039 0,-4.50961 0.07136,-4.35859 2.469823,-4.68407 2.83193,-0.3843 3.277129,-1.30639 0.872299,-1.80764 -0.459936,-0.0959 -1.35433,-0.15378 -2.449981,-0.17932 -0.410868,-0.01 -0.850138,-0.0146 -1.305345,-0.0155 z m -1.457278,9.91877 c 3.324352,0 6.019271,2.48762 6.019271,5.55625 0,3.06863 -2.694919,5.55625 -6.019271,5.55625 -3.324351,0 -6.01927,-2.48762 -6.01927,-5.55625 0,-3.06863 2.694919,-5.55625 6.01927,-5.55625 z"
         style="opacity:1;fill:#236dff;fill-opacity:1;stroke:none;stroke-width:1.13566422;stroke-linecap:round;stroke-linejoin:round;stroke-miterlimit:4;stroke-dasharray:none;stroke-opacity:1" />
    </g>
  </g>
</svg>
