<svg xmlns="http://www.w3.org/2000/svg" style="isolation:isolate" width="256" height="256"><defs><filter id="a" width="270.648" height="254.338" x="-7.32" y="2.95" filterUnits="userSpaceOnUse"><feGaussianBlur xmlns="http://www.w3.org/2000/svg" in="SourceGraphic" stdDeviation="4.294"/><feOffset xmlns="http://www.w3.org/2000/svg" dy="4" result="pf_100_offsetBlur"/><feFlood xmlns="http://www.w3.org/2000/svg" flood-opacity=".4"/><feComposite xmlns="http://www.w3.org/2000/svg" in2="pf_100_offsetBlur" operator="in" result="pf_100_dropShadow"/><feBlend xmlns="http://www.w3.org/2000/svg" in="SourceGraphic" in2="pf_100_dropShadow"/></filter></defs><g filter="url(#a)"><linearGradient id="b" x1=".25" x2=".75" y1=".036" y2=".902" gradientTransform="matrix(244.648 0 0 228.338 5.676 11.947)" gradientUnits="userSpaceOnUse"><stop offset="0%" stop-color="#2f5fdd"/><stop offset="100%" stop-color="#5884f4"/></linearGradient><path fill="url(#b)" d="M165.685 11.947c74.055 0 84.639 10.557 84.639 84.544v59.251c0 73.986-10.584 84.543-84.639 84.543h-75.37c-74.055 0-84.639-10.557-84.639-84.543V96.491c0-73.987 10.584-84.544 84.639-84.544h75.37z"/></g><g opacity=".4"><linearGradient id="c" x1=".517" x2=".517" y2="1"><stop offset="0%" stop-color="#fff"/><stop offset="12.5%" stop-opacity=".098" stop-color="#fff"/><stop offset="92.5%" stop-opacity=".098"/><stop offset="100%" stop-opacity=".498"/></linearGradient><path fill="none" stroke="url(#c)" stroke-linecap="round" stroke-linejoin="round" stroke-width="4.077" d="M165.685 11.947c74.055 0 84.639 10.557 84.639 84.544v59.251c0 73.986-10.584 84.543-84.639 84.543h-75.37c-74.055 0-84.639-10.557-84.639-84.543V96.491c0-73.987 10.584-84.544 84.639-84.544h75.37z" vector-effect="non-scaling-stroke"/></g><path fill="#FFF" d="M128 11.947v228.338h37.685c74.055 0 84.639-10.557 84.639-84.543V96.491c0-73.987-10.584-84.544-84.639-84.544H128z" opacity=".2"/><path fill="#221B1B" d="M76.823 205.732c-4.589 7.801-15.239 4.179-9.285-7.925 10.459-23.215 33.974-81.095 46.709-109.634 3.71-8.642 13.584-3.082 10.646 4.171-14.764 34.155-34.586 85.432-48.07 113.388zM140.768 171.042c-4.028 6.676-14.676 1.93-8.722-10.174 10.459-23.215 33.974-81.093 46.709-109.633 3.71-8.643 13.584-3.082 10.646 4.171-14.764 34.154-35.149 87.679-48.633 115.636M116.191 166.677c-4.028 8.924-14.114 4.74-8.159-7.363 10.457-23.215 14.859-37.243 27.594-65.782 3.71-8.643 13.584-3.082 10.646 4.171-14.764 34.153-16.597 41.017-30.081 68.974zM5.721 96.501c-.002.685-.045 1.177-.045 1.873v12.59c12.703 4.029 31.221 9.558 42.797 17.66-8.916 6.28-21.324 12.328-42.797 17.311v11.691c0 2.013.114 3.494.131 5.414 20.795-4.922 37.559-13.578 56.357-25.449 5.536 4.348 9.015 8.074 13.443 12.584 1.44-2.651 4.919-10.122 6.184-12.09-4.631-4.516-6.554-7.161-10.24-9.83 4.436-3.178 4.499-4.077 15.099-13.43-2.213-4.184-3.427-8.292-5.642-12.367-5.13 5.513-9.01 9.942-20.069 17.271-15.118-7.945-29.095-15.948-55.218-23.228zM94.524 109.519c1.822-4.139 2.97-6.928 5.69-13.097C89.785 75.835 88.29 67.063 78.649 49.527c-4.11-6.99-13.357-2-9.812 4.662 9.743 19.691 15.589 33.692 25.687 55.33M250.273 159.724c.003-.766.051-1.318.051-2.098v-12.977c-12.608-3.988-31.039-9.385-42.713-17.556 8.904-6.272 21.294-12.313 42.713-17.291V98.374c0-2.109-.118-3.665-.137-5.672-20.752 4.926-37.497 13.571-56.267 25.424-5.536-4.349-9.015-8.076-13.443-12.586-1.44 2.651-4.919 10.124-6.184 12.092 4.631 4.515 6.554 7.159 10.24 9.828-4.436 3.178-4.499 4.077-15.099 13.43 2.213 4.184 3.427 8.291 5.642 12.367 5.13-5.513 9.01-9.941 20.069-17.272 15.3 8.043 28.437 16.375 55.128 23.739z" opacity=".3"/><path fill="#221B1B" d="M250.273 159.724c.003-.766.051-1.318.051-2.098v-12.977c-12.608-3.988-31.039-9.385-42.713-17.556 8.904-6.272 21.294-12.313 42.713-17.291V98.374c0-2.109-.118-3.665-.137-5.672-20.752 4.926-37.497 13.571-56.267 25.424-5.536-4.349-9.015-8.076-13.443-12.586-1.44 2.651-4.919 10.124-6.184 12.092 4.631 4.515 6.554 7.159 10.24 9.828-4.436 3.178-4.499 4.077-15.099 13.43 2.213 4.184 3.427 8.291 5.642 12.367 5.13-5.513 9.01-9.941 20.069-17.272 15.3 8.043 28.437 16.375 55.128 23.739zM161.084 143.505c-1.822 4.139-2.971 6.928-5.691 13.098 10.43 20.586 11.925 29.358 21.566 46.894 4.11 6.99 13.357 2 9.812-4.662-9.743-19.691-15.589-33.692-25.687-55.33zM76.823 205.732c-4.589 7.801-15.239 4.179-9.285-7.925 10.459-23.215 33.974-81.095 46.709-109.634 3.71-8.642 13.584-3.082 10.646 4.171-14.764 34.155-34.586 85.432-48.07 113.388zM140.768 171.042c-4.028 6.676-14.676 1.93-8.722-10.174 10.459-23.215 33.974-81.093 46.709-109.633 3.71-8.643 13.584-3.082 10.646 4.171-14.764 34.154-35.149 87.679-48.633 115.636M116.191 166.677c-4.028 8.924-14.114 4.74-8.159-7.363 10.457-23.215 14.859-37.243 27.594-65.782 3.71-8.643 13.584-3.082 10.646 4.171-14.764 34.153-16.597 41.017-30.081 68.974zM5.721 96.501c-.002.685-.045 1.177-.045 1.873v12.59c12.703 4.029 31.221 9.558 42.797 17.66-8.916 6.28-21.324 12.328-42.797 17.311v11.691c0 2.013.114 3.494.131 5.414 20.795-4.922 37.559-13.578 56.357-25.449 5.536 4.348 9.015 8.074 13.443 12.584 1.44-2.651 4.919-10.122 6.184-12.09-4.631-4.516-6.554-7.161-10.24-9.83 4.436-3.178 4.499-4.077 15.099-13.43-2.213-4.184-3.427-8.292-5.642-12.367-5.13 5.513-9.01 9.942-20.069 17.271-15.118-7.945-29.095-15.948-55.218-23.228zM94.524 109.519c1.822-4.139 2.97-6.928 5.69-13.097C89.785 75.835 88.29 67.063 78.649 49.527c-4.11-6.99-13.357-2-9.812 4.662 9.743 19.691 15.589 33.692 25.687 55.33" opacity=".3"/><path fill="#221B1B" d="M161.084 143.505c-1.822 4.139-2.971 6.928-5.691 13.098 10.43 20.586 11.925 29.358 21.566 46.894 4.11 6.99 13.357 2 9.812-4.662-9.743-19.691-15.589-33.692-25.687-55.33z" opacity=".3"/><path fill="#FFF" d="M76.823 205.732c-4.589 7.801-15.239 4.179-9.285-7.925 10.459-23.215 33.974-81.095 46.709-109.634 3.71-8.642 13.584-3.082 10.646 4.171-14.764 34.155-34.586 85.432-48.07 113.388zM140.768 171.042c-4.028 6.676-14.676 1.93-8.722-10.174 10.459-23.215 33.974-81.093 46.709-109.633 3.71-8.643 13.584-3.082 10.646 4.171-14.764 34.154-35.149 87.679-48.633 115.636M116.191 166.677c-4.028 8.924-14.114 4.74-8.159-7.363 10.457-23.215 14.859-37.243 27.594-65.782 3.71-8.643 13.584-3.082 10.646 4.171-14.764 34.153-16.597 41.017-30.081 68.974zM5.721 96.501c-.002.685-.045 1.177-.045 1.873v12.59c12.703 4.029 31.221 9.558 42.797 17.66-8.916 6.28-21.324 12.328-42.797 17.311v11.691c0 2.013.114 3.494.131 5.414 20.795-4.922 37.559-13.578 56.357-25.449 5.536 4.348 9.015 8.074 13.443 12.584 1.44-2.651 4.919-10.122 6.184-12.09-4.631-4.516-6.554-7.161-10.24-9.83 4.436-3.178 4.499-4.077 15.099-13.43-2.213-4.184-3.427-8.292-5.642-12.367-5.13 5.513-9.01 9.942-20.069 17.271-15.118-7.945-29.095-15.948-55.218-23.228zM94.524 109.519c1.822-4.139 2.97-6.928 5.69-13.097C89.785 75.835 88.29 67.063 78.649 49.527c-4.11-6.99-13.357-2-9.812 4.662 9.743 19.691 15.589 33.692 25.687 55.33M250.273 159.724c.003-.766.051-1.318.051-2.098v-12.977c-12.608-3.988-31.039-9.385-42.713-17.556 8.904-6.272 21.294-12.313 42.713-17.291V98.374c0-2.109-.118-3.665-.137-5.672-20.752 4.926-37.497 13.571-56.267 25.424-5.536-4.349-9.015-8.076-13.443-12.586-1.44 2.651-4.919 10.124-6.184 12.092 4.631 4.515 6.554 7.159 10.24 9.828-4.436 3.178-4.499 4.077-15.099 13.43 2.213 4.184 3.427 8.291 5.642 12.367 5.13-5.513 9.01-9.941 20.069-17.272 15.3 8.043 28.437 16.375 55.128 23.739z"/><path fill="#FFF" d="M250.273 159.724c.003-.766.051-1.318.051-2.098v-12.977c-12.608-3.988-31.039-9.385-42.713-17.556 8.904-6.272 21.294-12.313 42.713-17.291V98.374c0-2.109-.118-3.665-.137-5.672-20.752 4.926-37.497 13.571-56.267 25.424-5.536-4.349-9.015-8.076-13.443-12.586-1.44 2.651-4.919 10.124-6.184 12.092 4.631 4.515 6.554 7.159 10.24 9.828-4.436 3.178-4.499 4.077-15.099 13.43 2.213 4.184 3.427 8.291 5.642 12.367 5.13-5.513 9.01-9.941 20.069-17.272 15.3 8.043 28.437 16.375 55.128 23.739zM161.084 143.505c-1.822 4.139-2.971 6.928-5.691 13.098 10.43 20.586 11.925 29.358 21.566 46.894 4.11 6.99 13.357 2 9.812-4.662-9.743-19.691-15.589-33.692-25.687-55.33zM76.823 205.732c-4.589 7.801-15.239 4.179-9.285-7.925 10.459-23.215 33.974-81.095 46.709-109.634 3.71-8.642 13.584-3.082 10.646 4.171-14.764 34.155-34.586 85.432-48.07 113.388zM140.768 171.042c-4.028 6.676-14.676 1.93-8.722-10.174 10.459-23.215 33.974-81.093 46.709-109.633 3.71-8.643 13.584-3.082 10.646 4.171-14.764 34.154-35.149 87.679-48.633 115.636M116.191 166.677c-4.028 8.924-14.114 4.74-8.159-7.363 10.457-23.215 14.859-37.243 27.594-65.782 3.71-8.643 13.584-3.082 10.646 4.171-14.764 34.153-16.597 41.017-30.081 68.974zM5.721 96.501c-.002.685-.045 1.177-.045 1.873v12.59c12.703 4.029 31.221 9.558 42.797 17.66-8.916 6.28-21.324 12.328-42.797 17.311v11.691c0 2.013.114 3.494.131 5.414 20.795-4.922 37.559-13.578 56.357-25.449 5.536 4.348 9.015 8.074 13.443 12.584 1.44-2.651 4.919-10.122 6.184-12.09-4.631-4.516-6.554-7.161-10.24-9.83 4.436-3.178 4.499-4.077 15.099-13.43-2.213-4.184-3.427-8.292-5.642-12.367-5.13 5.513-9.01 9.942-20.069 17.271-15.118-7.945-29.095-15.948-55.218-23.228zM94.524 109.519c1.822-4.139 2.97-6.928 5.69-13.097C89.785 75.835 88.29 67.063 78.649 49.527c-4.11-6.99-13.357-2-9.812 4.662 9.743 19.691 15.589 33.692 25.687 55.33"/><path fill="#FFF" d="M161.084 143.505c-1.822 4.139-2.971 6.928-5.691 13.098 10.43 20.586 11.925 29.358 21.566 46.894 4.11 6.99 13.357 2 9.812-4.662-9.743-19.691-15.589-33.692-25.687-55.33z"/></svg>