<svg xmlns="http://www.w3.org/2000/svg" style="isolation:isolate" width="256" height="256"><defs><clipPath id="a"><path d="M0 0h256v256H0z"/></clipPath></defs><switch><g clip-path="url(#a)"><defs><filter id="b" width="270.648" height="254.338" x="-7.32" y="2.95" filterUnits="userSpaceOnUse"><feGaussianBlur xmlns="http://www.w3.org/2000/svg" in="SourceGraphic" stdDeviation="4.294"/><feOffset xmlns="http://www.w3.org/2000/svg" dy="4" result="pf_100_offsetBlur"/><feFlood xmlns="http://www.w3.org/2000/svg" flood-opacity=".4"/><feComposite xmlns="http://www.w3.org/2000/svg" in2="pf_100_offsetBlur" operator="in" result="pf_100_dropShadow"/><feBlend xmlns="http://www.w3.org/2000/svg" in="SourceGraphic" in2="pf_100_dropShadow"/></filter></defs><path fill="#333" d="M165.685 11.947c74.055 0 84.639 10.557 84.639 84.544v59.251c0 73.986-10.584 84.543-84.639 84.543h-75.37c-74.055 0-84.639-10.557-84.639-84.543V96.491c0-73.987 10.584-84.544 84.639-84.544h75.37z" filter="url(#b)"/><path fill="#F22C42" d="M240.5 32.375c-7.937-12.625-23.187-16.562-30.875-17.75L91.126 240.54h40.244L240.5 32.375z"/><path fill="#FDC92B" d="M131.37 240.54h32.933c2.752 0 4.821-.147 7.403-.178L250.188 91c.728-20.155-2.375-48.812-9.813-58.375L131.37 240.54z"/><path fill="#76C22B" d="M171.706 240.362c6.224-.076 12.558-.118 17.845-.428 3.74-.219 7.253-.507 10.556-.875 3.302-.369 6.393-.817 9.285-1.361 1.616-.304 3.027-.712 4.521-1.077l36.212-68.683c.11-4.427.07-75.796.063-77.125l-78.482 149.549z"/><path fill="#31C6B7" d="M213.913 236.621c26.572-5.372 35.837-22.871 36.15-68.808l-36.15 68.808z"/><path fill="#FFF" d="M80.795 43.528l16.9 27.041-16.9 27.041h13.52l10.141-16.228 10.14 16.228h13.52l-16.9-27.041 16.9-27.041h-13.52l-10.14 16.228-10.141-16.228h-13.52zm-54.082 0h47.322v6.76L43.613 87.47h30.422v10.14H26.713v-6.76l30.421-37.182H26.713v-10.14z"/><g opacity=".4"><linearGradient id="c" x1=".517" x2=".517" y2="1"><stop offset="0%" stop-color="#fff"/><stop offset="12.5%" stop-opacity=".098" stop-color="#fff"/><stop offset="92.5%" stop-opacity=".098"/><stop offset="100%" stop-opacity=".498"/></linearGradient><path fill="none" stroke="url(#c)" stroke-linecap="round" stroke-linejoin="round" stroke-width="4.077" d="M165.685 11.947c74.055 0 84.639 10.557 84.639 84.544v59.251c0 73.986-10.584 84.543-84.639 84.543h-75.37c-74.055 0-84.639-10.557-84.639-84.543V96.491c0-73.987 10.584-84.544 84.639-84.544h75.37z" vector-effect="non-scaling-stroke"/></g></g></switch> </svg>