<svg xmlns="http://www.w3.org/2000/svg" style="isolation:isolate" width="256" height="256" viewBox="0 0 256 256">
 <defs>
  <filter id="EqjMyYgICiGKeqMtD31gq6ZOj3ApWRVR" width="270.648" height="254.338" x="-7.32" y="2.95" filterUnits="userSpaceOnUse">
   <feGaussianBlur xmlns="http://www.w3.org/2000/svg" in="SourceGraphic" stdDeviation="4.294"/>
   <feOffset xmlns="http://www.w3.org/2000/svg" dx="0" dy="4" result="pf_100_offsetBlur"/>
   <feFlood xmlns="http://www.w3.org/2000/svg" flood-opacity=".4"/>
   <feComposite xmlns="http://www.w3.org/2000/svg" in2="pf_100_offsetBlur" operator="in" result="pf_100_dropShadow"/>
   <feBlend xmlns="http://www.w3.org/2000/svg" in="SourceGraphic" in2="pf_100_dropShadow" mode="normal"/>
  </filter>
 </defs>
 <g filter="url(#EqjMyYgICiGKeqMtD31gq6ZOj3ApWRVR)">
  <path fill="#E6E6E6" d="M 165.685 11.947 C 239.74 11.947 250.324 22.504 250.324 96.491 L 250.324 155.742 C 250.324 229.728 239.74 240.285 165.685 240.285 L 90.315 240.285 C 16.26 240.285 5.676 229.728 5.676 155.742 L 5.676 96.491 C 5.676 22.504 16.26 11.947 90.315 11.947 L 165.685 11.947 Z"/>
 </g>
 <g opacity=".4">
  <line x1="250.324" x2="172.926" y1="163.827" y2="240.285"/>
 </g>
 <g opacity=".4">
  <linearGradient id="_lgradient_76" x1=".517" x2=".517" y1="0" y2="1">
   <stop offset="0%" style="stop-color:rgb(255,255,255)"/>
   <stop offset="12.5%" stop-opacity=".098" style="stop-color:rgb(255,255,255)"/>
   <stop offset="92.5%" stop-opacity=".098" style="stop-color:rgb(0,0,0)"/>
   <stop offset="100%" stop-opacity=".498" style="stop-color:rgb(0,0,0)"/>
  </linearGradient>
  <path fill="none" stroke="url(#_lgradient_76)" stroke-linecap="round" stroke-linejoin="round" stroke-width="4.077" d="M 165.685 11.947 C 239.74 11.947 250.324 22.504 250.324 96.491 L 250.324 155.742 C 250.324 229.728 239.74 240.285 165.685 240.285 L 90.315 240.285 C 16.26 240.285 5.676 229.728 5.676 155.742 L 5.676 96.491 C 5.676 22.504 16.26 11.947 90.315 11.947 L 165.685 11.947 Z" vector-effect="non-scaling-stroke"/>
 </g>
 <g opacity=".2">
  <path fill="#FFFFFF" d="M 128 11.947 L 128 240.285 L 165.685 240.285 C 239.74 240.285 250.324 229.728 250.324 155.742 L 250.324 96.491 C 250.324 22.504 239.74 11.947 165.685 11.947 L 128 11.947 Z"/>
 </g>
 <g>
  <g opacity=".75">
   <path fill="#CDCDCD" d="M 42.373 45.451 L 42.373 49.528 L 205.472 49.528 L 205.472 45.451 L 42.373 45.451 Z M 42.373 57.683 L 42.373 61.76 L 205.472 61.76 L 205.472 57.683 L 42.373 57.683 Z M 42.373 69.915 L 42.373 73.993 L 205.472 73.993 L 205.472 69.915 L 42.373 69.915 Z M 42.373 82.148 L 42.373 86.225 L 205.472 86.225 L 205.472 82.148 L 42.373 82.148 Z M 42.373 94.38 L 42.373 98.458 L 205.472 98.458 L 205.472 94.38 L 42.373 94.38 Z M 42.373 106.613 L 42.373 110.69 L 205.472 110.69 L 205.472 106.613 L 42.373 106.613 Z M 42.373 118.845 L 42.373 122.923 L 205.472 122.923 L 205.472 118.845 L 42.373 118.845 Z M 42.373 131.077 L 42.373 135.155 L 205.472 135.155 L 205.472 131.077 L 42.373 131.077 Z M 42.373 143.31 L 42.373 147.387 L 205.472 147.387 L 205.472 143.31 L 42.373 143.31 Z M 42.373 155.542 L 42.373 159.62 L 205.472 159.62 L 205.472 155.542 L 42.373 155.542 Z M 42.373 167.775 L 42.373 171.852 L 205.472 171.852 L 205.472 167.775 L 42.373 167.775 Z M 42.373 180.007 L 42.373 184.085 L 205.472 184.085 L 205.472 180.007 L 42.373 180.007 Z M 42.373 192.24 L 42.373 196.317 L 205.585 196.317 L 205.585 192.24 L 42.373 192.24 Z M 42.373 204.472 L 42.373 208.549 L 75.106 208.549 L 75.106 204.472 L 42.373 204.472 Z"/>
  </g>
  <g>
   <path fill="#FEE1C2" d="M 126.718 184.411 L 74.993 208.549 L 99.131 156.824 L 104.304 151.651 L 131.891 179.238 L 126.718 184.411 Z"/>
   <path fill="#5D5D5D" d="M 82.671 192.089 L 74.993 208.549 L 91.453 200.871 C 91.453 200.871 93.081 199.913 92.227 199.059 C 91.373 198.204 88.802 199.082 88.802 199.082 C 88.802 199.082 90.511 196.48 88.796 194.765 C 87.081 193.05 84.479 194.759 84.479 194.759 C 84.479 194.759 85.338 192.17 84.476 191.308 C 83.614 190.446 82.671 192.089 82.671 192.089 Z"/>
   <linearGradient id="_lgradient_77" x1="0" x2="1" y1="1.22" y2="1.22" gradientTransform="matrix(27.587,27.587,-90.357,90.357,186.04,69.915)" gradientUnits="userSpaceOnUse">
    <stop offset="0%" style="stop-color:rgb(88,132,244)"/>
    <stop offset="27.8%" style="stop-color:rgb(88,132,244)"/>
    <stop offset="27.8%" style="stop-color:rgb(47,95,221)"/>
    <stop offset="70.735%" style="stop-color:rgb(47,95,221)"/>
    <stop offset="70.936%" style="stop-color:rgb(35,77,184)"/>
    <stop offset="100%" style="stop-color:rgb(35,77,184)"/>
   </linearGradient>
   <path fill="url(#_lgradient_77)" d="M 99.131 156.824 C 102.58 153.376 108.614 162.859 103.442 168.031 C 112.063 159.41 124.132 171.48 115.511 180.1 C 120.684 174.928 130.167 180.963 126.718 184.411 L 213.627 97.502 L 186.04 69.915 L 99.131 156.824 Z"/>
  </g>
 </g>
</svg>
