<svg xmlns="http://www.w3.org/2000/svg" style="isolation:isolate" width="256" height="256"><defs><clipPath id="a"><path d="M0 0h256v256H0z"/></clipPath></defs><g clip-path="url(#a)"><defs><filter id="b" width="270.648" height="254.338" x="-7.32" y="2.95" filterUnits="userSpaceOnUse"><feGaussianBlur xmlns="http://www.w3.org/2000/svg" in="SourceGraphic" stdDeviation="4.294"/><feOffset xmlns="http://www.w3.org/2000/svg" dy="4" result="pf_100_offsetBlur"/><feFlood xmlns="http://www.w3.org/2000/svg" flood-opacity=".4"/><feComposite xmlns="http://www.w3.org/2000/svg" in2="pf_100_offsetBlur" operator="in" result="pf_100_dropShadow"/><feBlend xmlns="http://www.w3.org/2000/svg" in="SourceGraphic" in2="pf_100_dropShadow"/></filter></defs><g filter="url(#b)"><linearGradient id="c" x1=".51" x2=".512" y1="1.06" y2=".158" gradientTransform="matrix(244.648 0 0 228.338 5.676 11.947)" gradientUnits="userSpaceOnUse"><stop offset="0%" stop-color="#f76363"/><stop offset="100%" stop-color="#e6548b"/></linearGradient><path fill="url(#c)" d="M165.685 11.947c74.055 0 84.639 10.557 84.639 84.544v59.251c0 73.986-10.584 84.543-84.639 84.543h-75.37c-74.055 0-84.639-10.557-84.639-84.543V96.491c0-73.987 10.584-84.544 84.639-84.544h75.37z"/></g><path fill="#FFF" d="M5.676 126.116v29.626c0 73.986 10.584 84.543 84.639 84.543h75.37c74.055 0 84.639-10.557 84.639-84.543v-29.626H5.676z" opacity=".1"/><path fill="#FFF" d="M128 11.947v228.338h37.685c74.055 0 84.639-10.557 84.639-84.543V96.491c0-73.987-10.584-84.544-84.639-84.544H128z" opacity=".2"/><g opacity=".4"><linearGradient id="d" x1=".517" x2=".517" y2="1"><stop offset="0%" stop-color="#fff"/><stop offset="12.5%" stop-opacity=".098" stop-color="#fff"/><stop offset="92.5%" stop-opacity=".098"/><stop offset="100%" stop-opacity=".498"/></linearGradient><path fill="none" stroke="url(#d)" stroke-linecap="round" stroke-linejoin="round" stroke-width="4.077" d="M165.685 11.947c74.055 0 84.639 10.557 84.639 84.544v59.251c0 73.986-10.584 84.543-84.639 84.543h-75.37c-74.055 0-84.639-10.557-84.639-84.543V96.491c0-73.987 10.584-84.544 84.639-84.544h75.37z" vector-effect="non-scaling-stroke"/></g><path fill="#FFF" d="M159.9 88c-22.423 0-40.6 17.909-40.6 40 0 10.609 4.277 20.783 11.891 28.284C138.805 163.786 149.132 168 159.9 168c22.423 0 40.6-17.909 40.6-40s-18.177-40-40.6-40zM84.5 99.429c-16.016 0-29 12.791-29 28.571 0 7.578 3.055 14.845 8.494 20.203 5.438 5.358 12.815 8.369 20.506 8.369 7.691 0 15.068-3.011 20.506-8.369 5.439-5.358 8.494-12.625 8.494-20.203 0-15.78-12.984-28.571-29-28.571zm75.4 0c16.016 0 29 12.791 29 28.571 0 7.578-3.055 14.845-8.494 20.203-5.438 5.358-12.815 8.369-20.506 8.369-7.691 0-15.068-3.011-20.506-8.369-5.439-5.358-8.494-12.625-8.494-20.203 0-15.78 12.984-28.571 29-28.571zm-75.4 11.428c9.61 0 17.4 7.675 17.4 17.143 0 4.547-1.833 8.907-5.096 12.122a17.533 17.533 0 0 1-12.304 5.021 17.533 17.533 0 0 1-12.304-5.021A17.015 17.015 0 0 1 67.1 128c0-9.468 7.79-17.143 17.4-17.143z"/></g></svg>