<svg xmlns="http://www.w3.org/2000/svg" style="isolation:isolate" width="256" height="256"><defs><clipPath id="a"><path d="M0 0h256v256H0z"/></clipPath></defs><g clip-path="url(#a)"><defs><filter id="b" width="270.648" height="254.338" x="-7.32" y="2.95" filterUnits="userSpaceOnUse"><feGaussianBlur xmlns="http://www.w3.org/2000/svg" in="SourceGraphic" stdDeviation="4.294"/><feOffset xmlns="http://www.w3.org/2000/svg" dy="4" result="pf_100_offsetBlur"/><feFlood xmlns="http://www.w3.org/2000/svg" flood-opacity=".4"/><feComposite xmlns="http://www.w3.org/2000/svg" in2="pf_100_offsetBlur" operator="in" result="pf_100_dropShadow"/><feBlend xmlns="http://www.w3.org/2000/svg" in="SourceGraphic" in2="pf_100_dropShadow"/></filter></defs><g filter="url(#b)"><linearGradient id="c" x1=".233" x2=".933" y1="-.071" y2=".995" gradientTransform="matrix(244.648 0 0 228.338 5.676 11.947)" gradientUnits="userSpaceOnUse"><stop offset="0%" stop-color="#e8e8e8"/><stop offset="100%" stop-color="#f5f5f5"/></linearGradient><path fill="url(#c)" d="M165.685 11.947c74.055 0 84.639 10.557 84.639 84.544v59.251c0 73.986-10.584 84.543-84.639 84.543h-75.37c-74.055 0-84.639-10.557-84.639-84.543V96.491c0-73.987 10.584-84.544 84.639-84.544h75.37z"/></g><g opacity=".4"><linearGradient id="d" x1=".517" x2=".517" y2="1"><stop offset="0%" stop-color="#fff"/><stop offset="12.5%" stop-opacity=".098" stop-color="#fff"/><stop offset="92.5%" stop-opacity=".098"/><stop offset="100%" stop-opacity=".498"/></linearGradient><path fill="none" stroke="url(#d)" stroke-linecap="round" stroke-linejoin="round" stroke-width="4.077" d="M165.685 11.947c74.055 0 84.639 10.557 84.639 84.544v59.251c0 73.986-10.584 84.543-84.639 84.543h-75.37c-74.055 0-84.639-10.557-84.639-84.543V96.491c0-73.987 10.584-84.544 84.639-84.544h75.37z" vector-effect="non-scaling-stroke"/></g><path fill="#666" fill-rule="evenodd" d="M98.83 74.71c6.61-3.84 13.7-6.8 21.07-8.82a81.629 81.629 0 0 1 21.37-2.91c5.39-.02 10.77.57 16.03 1.75a63.67 63.67 0 0 1 14.77 5.29 56.01 56.01 0 0 1 12.75 8.84 52.636 52.636 0 0 1 15.21 25.46 55.43 55.43 0 0 1 1.73 13.87c-.02 6.25-.98 12.45-2.85 18.42a72.72 72.72 0 0 1-8.09 17.46 82.12 82.12 0 0 1-12.79 15.58A88.7 88.7 0 0 1 161 182.39a88.858 88.858 0 0 1-21.06 8.81 81.352 81.352 0 0 1-21.38 2.92 72.64 72.64 0 0 1-16.03-1.76 63.402 63.402 0 0 1-14.76-5.28 56.167 56.167 0 0 1-12.76-8.84 52.636 52.636 0 0 1-15.21-25.47 55.43 55.43 0 0 1-1.73-13.87c.02-6.24.98-12.45 2.85-18.41a72.789 72.789 0 0 1 8.09-17.47c3.61-5.69 7.9-10.93 12.79-15.58a88.96 88.96 0 0 1 17.03-12.73zm8 13.85a72.774 72.774 0 0 1 17.3-7.24c5.6-1.54 11.38-2.33 17.18-2.34 4.21-.01 8.4.45 12.5 1.37 3.83.85 7.54 2.18 11.05 3.95 3.31 1.67 6.37 3.8 9.1 6.31 2.7 2.5 5 5.38 6.84 8.56 1.65 2.86 2.91 5.94 3.73 9.14.83 3.21 1.24 6.51 1.23 9.83a46.43 46.43 0 0 1-2.12 13.7c-1.5 4.81-3.63 9.41-6.33 13.66-2.91 4.6-6.37 8.82-10.31 12.57a72.98 72.98 0 0 1-14 10.46 72.947 72.947 0 0 1-17.3 7.24 65.662 65.662 0 0 1-17.18 2.35c-4.21.01-8.4-.45-12.5-1.37-3.83-.86-7.54-2.19-11.04-3.96a39.757 39.757 0 0 1-9.11-6.31 36.503 36.503 0 0 1-10.57-17.69c-.83-3.21-1.24-6.52-1.23-9.83.02-4.65.73-9.27 2.12-13.71 1.5-4.81 3.63-9.4 6.33-13.66 2.91-4.59 6.37-8.81 10.31-12.57 4.23-4.03 8.93-7.54 14-10.46z"/><circle fill="#A7A7F1" r="1" transform="translate(128 73.283) scale(12.038)" vector-effect="non-scaling-stroke"/><circle fill="#A7A7F1" r="1" transform="translate(188.462 96.264) scale(12.038)" vector-effect="non-scaling-stroke"/><circle fill="#A7A7F1" r="1" transform="translate(173.689 163.566) scale(12.038)" vector-effect="non-scaling-stroke"/><circle fill="#A7A7F1" r="1" transform="translate(98.726 182.717) scale(12.038)" vector-effect="non-scaling-stroke"/><circle fill="#A7A7F1" r="1" transform="translate(67.538 126.906) scale(12.038)" vector-effect="non-scaling-stroke"/><path fill="#666" fill-rule="evenodd" d="M112.67 73.28c0-4.06 1.61-7.97 4.49-10.84 2.87-2.87 6.77-4.49 10.84-4.49s7.97 1.62 10.84 4.49a15.31 15.31 0 0 1 4.49 10.84A15.333 15.333 0 0 1 128 88.62a15.333 15.333 0 0 1-15.33-15.34zm6.59 0c0-2.31.92-4.54 2.56-6.18a8.734 8.734 0 0 1 6.18-2.56c2.32 0 4.54.92 6.18 2.56a8.751 8.751 0 0 1 2.56 6.18c0 2.32-.92 4.55-2.56 6.18a8.734 8.734 0 0 1-6.18 2.56c-2.32 0-4.54-.92-6.18-2.56a8.717 8.717 0 0 1-2.56-6.18zm53.87 22.98a15.328 15.328 0 0 1 15.33-15.33c4.07 0 7.97 1.62 10.85 4.49a15.37 15.37 0 0 1 4.49 10.84c0 4.07-1.62 7.97-4.49 10.85a15.376 15.376 0 0 1-10.85 4.49c-4.06 0-7.97-1.62-10.84-4.49a15.333 15.333 0 0 1-4.49-10.85zm6.59 0c0-2.31.92-4.54 2.56-6.18a8.734 8.734 0 0 1 6.18-2.56c2.32 0 4.54.92 6.18 2.56a8.751 8.751 0 0 1 2.56 6.18c0 2.32-.92 4.55-2.56 6.18a8.744 8.744 0 0 1-6.18 2.57c-2.32 0-4.54-.93-6.18-2.57a8.717 8.717 0 0 1-2.56-6.18zm-21.37 67.31a15.343 15.343 0 0 1 15.34-15.34c4.06 0 7.97 1.62 10.84 4.49 2.88 2.88 4.49 6.78 4.49 10.85a15.328 15.328 0 0 1-15.33 15.33c-4.07 0-7.97-1.62-10.84-4.49-2.88-2.88-4.5-6.78-4.5-10.84zm6.6 0c0-2.32.92-4.55 2.56-6.18a8.734 8.734 0 0 1 6.18-2.56c2.32 0 4.54.92 6.18 2.56a8.717 8.717 0 0 1 2.56 6.18c0 2.31-.92 4.54-2.56 6.18a8.734 8.734 0 0 1-6.18 2.56c-2.32 0-4.54-.92-6.18-2.56a8.751 8.751 0 0 1-2.56-6.18zm-81.56 19.15c0-4.07 1.62-7.97 4.49-10.85 2.88-2.87 6.78-4.49 10.85-4.49 4.06 0 7.96 1.62 10.84 4.49 2.87 2.88 4.49 6.78 4.49 10.85 0 4.06-1.62 7.97-4.49 10.84a15.37 15.37 0 0 1-10.84 4.49c-4.07 0-7.97-1.62-10.85-4.49a15.352 15.352 0 0 1-4.49-10.84zm6.6 0c0-2.32.92-4.55 2.56-6.18a8.717 8.717 0 0 1 6.18-2.56c2.31 0 4.54.92 6.18 2.56a8.717 8.717 0 0 1 2.56 6.18c0 2.31-.92 4.54-2.56 6.18a8.751 8.751 0 0 1-6.18 2.56c-2.32 0-4.55-.92-6.18-2.56a8.751 8.751 0 0 1-2.56-6.18zM52.2 126.91c0-4.07 1.62-7.97 4.49-10.85 2.88-2.87 6.78-4.49 10.85-4.49 4.06 0 7.97 1.62 10.84 4.49 2.88 2.88 4.49 6.78 4.49 10.85a15.328 15.328 0 0 1-15.33 15.33c-4.07 0-7.97-1.62-10.85-4.49a15.37 15.37 0 0 1-4.49-10.84zm6.6 0c0-2.32.92-4.55 2.56-6.19a8.776 8.776 0 0 1 6.18-2.56c2.32 0 4.54.93 6.18 2.56a8.751 8.751 0 0 1 0 12.37 8.734 8.734 0 0 1-6.18 2.56c-2.32 0-4.54-.92-6.18-2.56a8.751 8.751 0 0 1-2.56-6.18z"/></g></svg>