<svg xmlns="http://www.w3.org/2000/svg" style="isolation:isolate" width="256" height="256"><defs><clipPath id="a"><path d="M0 0h256v256H0z"/></clipPath></defs><switch><g clip-path="url(#a)"><defs><filter id="b" width="270.648" height="254.338" x="-7.32" y="2.95" filterUnits="userSpaceOnUse"><feGaussianBlur xmlns="http://www.w3.org/2000/svg" in="SourceGraphic" stdDeviation="4.294"/><feOffset xmlns="http://www.w3.org/2000/svg" dy="4" result="pf_100_offsetBlur"/><feFlood xmlns="http://www.w3.org/2000/svg" flood-opacity=".4"/><feComposite xmlns="http://www.w3.org/2000/svg" in2="pf_100_offsetBlur" operator="in" result="pf_100_dropShadow"/><feBlend xmlns="http://www.w3.org/2000/svg" in="SourceGraphic" in2="pf_100_dropShadow"/></filter></defs><path fill="#333" d="M165.685 11.947c74.055 0 84.639 10.557 84.639 84.544v59.251c0 73.986-10.584 84.543-84.639 84.543h-75.37c-74.055 0-84.639-10.557-84.639-84.543V96.491c0-73.987 10.584-84.544 84.639-84.544h75.37z" filter="url(#b)"/><path fill="#FFF" d="M5.676 126.116v29.626c0 73.986 10.584 84.543 84.639 84.543h75.37c74.055 0 84.639-10.557 84.639-84.543v-29.626H5.676z" opacity=".1"/><path fill="#FFF" d="M104.384 240.327h58.791c.034-12.529.071-27.293.071-36.922 0-11.348-4.693-18.774-8.944-22.531 26.408-3.011 54.133-13.309 54.133-60.061 0-13.283-3.694-24.149-11.293-32.65 1.216-3.078 5.295-15.46-1.176-32.209 0 0-.623-.206-1.908-.266h-.01c-3.855-.179-14.717 1.107-31.695 12.918-9.498-2.864-20.34-3.924-31.643-3.896-10.339.015-21.062.871-31.484 3.896-16.983-11.81-25.662-13.09-29.522-12.908-1.286.068-1.908.256-1.908.256-6.456 16.749-2.373 29.139-1.15 32.217-7.585 8.501-12.033 19.359-12.033 32.642 0 46.632 30.214 57.078 56.543 60.149-3.385 3.04-5.515 9.326-6.592 17.185-6.755 3.115-24.875 10.74-35.451-7.855 0 0-6.257-11.689-18.159-12.547 0 0-11.57-.154-.804 7.396 0 0 7.772 3.745 13.166 17.805 0 0 8.011 21.402 40.992 14.051.028 4.998.051 14.311.076 23.33z"/><g opacity=".4"><linearGradient id="c" x1=".517" x2=".517" y2="1"><stop offset="0%" stop-color="#fff"/><stop offset="12.5%" stop-opacity=".098" stop-color="#fff"/><stop offset="92.5%" stop-opacity=".098"/><stop offset="100%" stop-opacity=".498"/></linearGradient><path fill="none" stroke="url(#c)" stroke-linecap="round" stroke-linejoin="round" stroke-width="4.077" d="M165.685 11.947c74.055 0 84.639 10.557 84.639 84.544v59.251c0 73.986-10.584 84.543-84.639 84.543h-75.37c-74.055 0-84.639-10.557-84.639-84.543V96.491c0-73.987 10.584-84.544 84.639-84.544h75.37z" vector-effect="non-scaling-stroke"/></g></g></switch> </svg>