<svg xmlns="http://www.w3.org/2000/svg" style="isolation:isolate" width="256" height="256"><defs><clipPath id="a"><path d="M0 0h256v256H0z"/></clipPath></defs><switch><g clip-path="url(#a)"><defs><filter id="b" width="270.648" height="254.338" x="-7.32" y="2.95" filterUnits="userSpaceOnUse"><feGaussianBlur xmlns="http://www.w3.org/2000/svg" in="SourceGraphic" stdDeviation="4.294"/><feOffset xmlns="http://www.w3.org/2000/svg" dy="4" result="pf_100_offsetBlur"/><feFlood xmlns="http://www.w3.org/2000/svg" flood-opacity=".4"/><feComposite xmlns="http://www.w3.org/2000/svg" in2="pf_100_offsetBlur" operator="in" result="pf_100_dropShadow"/><feBlend xmlns="http://www.w3.org/2000/svg" in="SourceGraphic" in2="pf_100_dropShadow"/></filter></defs><g filter="url(#b)"><linearGradient id="c" x1=".5" x2=".5" y1="-.036" y2="1.036" gradientTransform="matrix(244.648 0 0 228.338 5.676 11.947)" gradientUnits="userSpaceOnUse"><stop offset="0%" stop-color="#4d4d4d"/><stop offset="98.696%" stop-color="#6c6c6c"/></linearGradient><path fill="url(#c)" d="M165.685 11.947c74.055 0 84.639 10.557 84.639 84.544v59.251c0 73.986-10.584 84.543-84.639 84.543h-75.37c-74.055 0-84.639-10.557-84.639-84.543V96.491c0-73.987 10.584-84.544 84.639-84.544h75.37z"/></g><path fill="#FFF" d="M5.676 126.116v29.626c0 73.986 10.584 84.543 84.639 84.543h75.37c74.055 0 84.639-10.557 84.639-84.543v-29.626H5.676z" opacity=".1"/><defs><filter id="d" width="196.731" height="176.001" x="29.64" y="50" filterUnits="userSpaceOnUse"><feGaussianBlur xmlns="http://www.w3.org/2000/svg" in="SourceGraphic" stdDeviation="4.294"/><feOffset xmlns="http://www.w3.org/2000/svg" dy="4" result="pf_100_offsetBlur"/><feFlood xmlns="http://www.w3.org/2000/svg" flood-opacity=".4"/><feComposite xmlns="http://www.w3.org/2000/svg" in2="pf_100_offsetBlur" operator="in" result="pf_100_dropShadow"/><feBlend xmlns="http://www.w3.org/2000/svg" in="SourceGraphic" in2="pf_100_dropShadow"/></filter></defs><path fill="#3FB2AB" fill-rule="evenodd" d="M144.772 149.688a5.56 5.56 0 1 0-.001 11.12 5.56 5.56 0 0 0 .001-11.12zM128 171.943c-.027.044-.053.073-.077.074h-.029c-1.382-.04-2.762-.108-3.692-.087v-.015h-.007V209c-46.874-2.936-81.544-41.802-81.56-88.773.023-7.507 1.001-15.175 2.903-22.437q2.188-6.751 5.674-6.677 7.689.164 5.822 6.677c-2.162 7.217-3.267 14.903-3.28 22.437.089 36.502 23.669 68.049 59.319 75.87v-11.331c-3.455-.89-6.834-1.966-10.049-3.366l-1.072-.522c-22.99-10.514-37.069-33.635-37.069-60.658 0-20.004 8.758-36.172 22.611-48.383v.008q20.371-16.823 25.579-11.614 5.604 6.858-5.662 11.614c-18.601 8.975-31.408 26.27-31.408 48.382 0 20.653 9.322 38.569 25.949 48.162l.009-7.58c-2.012 0-3.708-3.707-3.708-7.414s1.599-7.414 3.708-7.414c-1.539-7.822-.362-13.346-6.907-19.281-3.83-2.544-4.221-3.251-4.221-7.675 0-6.673 4.674-16.276 13.726-28.164 4.999-6.32 12.229-19.02 23.35-19.02.03 0 .061.001.091.004a.883.883 0 0 1 .089-.004c11.122 0 18.353 12.7 23.351 19.02 9.052 11.888 13.728 21.491 13.728 28.164 0 4.424-.392 5.131-4.222 7.675-6.545 5.935-5.37 11.459-6.907 19.281 2.108 0 3.707 3.707 3.707 7.414s-1.696 7.414-3.707 7.414l.007 7.58c16.627-9.593 25.95-27.509 25.95-48.162 0-22.112-12.808-39.407-31.409-48.382q-11.264-4.756-5.662-11.614 5.209-5.209 25.58 11.614v-.008c13.853 12.211 22.612 28.379 22.612 48.383 0 27.023-14.08 50.144-37.071 60.658l-1.072.522c-3.213 1.4-6.594 2.476-10.049 3.366v11.331c35.651-7.821 59.233-39.368 59.319-75.87-.011-7.534-1.116-15.22-3.28-22.437q-1.867-6.513 5.823-6.677 3.487-.074 5.674 6.677c1.901 7.262 2.88 14.93 2.904 22.437-.018 46.971-34.686 85.837-81.561 88.773v-37.085h-.008v.015c-.929-.021-2.309.047-3.692.087h-.029c-.023-.001-.048-.03-.075-.074zm-16.773-22.255a5.559 5.559 0 0 0-5.559 5.56 5.559 5.559 0 1 0 11.12 0 5.561 5.561 0 0 0-5.561-5.56z" filter="url(#d)"/><path fill="#FFF" d="M139.211 155.248a5.563 5.563 0 0 1 5.561-5.56 5.562 5.562 0 0 1 5.56 5.56 5.563 5.563 0 0 1-5.56 5.561 5.564 5.564 0 0 1-5.561-5.561z"/><path fill="#2E2E2E" d="M140.571 154.662a2.638 2.638 0 1 1 5.275.001 2.638 2.638 0 0 1-5.275-.001z"/><g><path fill="#FFF" d="M105.668 155.248c0-3.069 2.49-5.56 5.559-5.56a5.563 5.563 0 0 1 5.561 5.56 5.564 5.564 0 0 1-5.561 5.561 5.562 5.562 0 0 1-5.559-5.561z"/><path fill="#2E2E2E" d="M107.027 154.662a2.638 2.638 0 0 1 5.275 0 2.639 2.639 0 0 1-2.637 2.638 2.64 2.64 0 0 1-2.638-2.638z"/></g><g opacity=".4"><linearGradient id="e" x1=".517" x2=".517" y2="1"><stop offset="0%" stop-color="#fff"/><stop offset="12.5%" stop-opacity=".098" stop-color="#fff"/><stop offset="92.5%" stop-opacity=".098"/><stop offset="100%" stop-opacity=".498"/></linearGradient><path fill="none" stroke="url(#e)" stroke-linecap="round" stroke-linejoin="round" stroke-width="4.077" d="M165.685 11.947c74.055 0 84.639 10.557 84.639 84.544v59.251c0 73.986-10.584 84.543-84.639 84.543h-75.37c-74.055 0-84.639-10.557-84.639-84.543V96.491c0-73.987 10.584-84.544 84.639-84.544h75.37z" vector-effect="non-scaling-stroke"/></g></g></switch> </svg>