<?xml version="1.0" standalone="no"?><!-- Generator: Gravit.io --><svg xmlns="http://www.w3.org/2000/svg" xmlns:xlink="http://www.w3.org/1999/xlink" style="isolation:isolate" viewBox="0 0 256 256" width="256" height="256"><g id="Group" filter="url(#OJ8GJ6AkIiCkDhj1Hkrq5xGAQpeFhNSQ)"><linearGradient id="_lgradient_158" x1="0.5100000000000001" y1="1.0599953577794423" x2="0.5120000000000001" y2="0.21812918270339554" gradientTransform="matrix(244.648,0,0,228.339,6.343,13.28)" gradientUnits="userSpaceOnUse"><stop offset="0.8699999999999999%" stop-opacity="1" style="stop-color:rgb(247,99,99)"/><stop offset="99.565%" stop-opacity="1" style="stop-color:rgb(233,85,141)"/><stop offset="100%" stop-opacity="1" style="stop-color:rgb(230,84,139)"/></linearGradient><path d=" M 166.351 13.28 C 240.407 13.28 250.991 23.837 250.991 97.824 L 250.991 157.075 C 250.991 231.061 240.407 241.619 166.351 241.619 L 90.982 241.619 C 16.926 241.619 6.343 231.061 6.343 157.075 L 6.343 97.824 C 6.343 23.837 16.926 13.28 90.982 13.28 L 166.351 13.28 L 166.351 13.28 Z " id="Path" fill="url(#_lgradient_158)"/></g><defs><filter id="OJ8GJ6AkIiCkDhj1Hkrq5xGAQpeFhNSQ" x="-200%" y="-200%" width="400%" height="400%" filterUnits="objectBoundingBox" color-interpolation-filters="sRGB"><feGaussianBlur xmlns="http://www.w3.org/2000/svg" in="SourceGraphic" stdDeviation="4.294"/><feOffset xmlns="http://www.w3.org/2000/svg" dx="0" dy="4" result="pf_100_offsetBlur"/><feFlood xmlns="http://www.w3.org/2000/svg" flood-color="#000000" flood-opacity="0.4"/><feComposite xmlns="http://www.w3.org/2000/svg" in2="pf_100_offsetBlur" operator="in" result="pf_100_dropShadow"/><feBlend xmlns="http://www.w3.org/2000/svg" in="SourceGraphic" in2="pf_100_dropShadow" mode="normal"/></filter></defs><g opacity="0.05"><path d=" M 8.476 55.74 C 6.729 66.667 6.158 80.255 6.158 97.205 L 6.158 156.456 C 6.158 230.442 16.742 241 90.798 241 L 166.167 241 C 221.302 241 241.245 235.126 247.842 201.603 L 8.476 55.74 L 8.476 55.74 Z " id="Path" fill="rgb(255,255,255)"/></g><g opacity="0.3"><linearGradient id="_lgradient_159" x1="0.5000027594428135" y1="1.0000050431186644" x2="0.01800009933994129" y2="1.0000050431186644" gradientTransform="matrix(181.196,0,0,198.29,42.103,28.855)" gradientUnits="userSpaceOnUse"><stop offset="0%" stop-opacity="0.972" style="stop-color:rgb(255,255,255)"/><stop offset="64.572%" stop-opacity="0.916" style="stop-color:rgb(255,255,255)"/><stop offset="100%" stop-opacity="0" style="stop-color:rgb(255,255,255)"/></linearGradient><path d=" M 42.103 224.059 C 43.09617 225.174441 44.179132 226.206566 45.341 227.145 L 52.359 227.145 L 52.359 210.051 L 42.103 210.051 L 42.103 224.059 L 42.103 224.059 Z  M 42.103 45.949 L 52.359 45.949 L 52.359 28.855 L 45.341 28.855 C 44.179132 29.793434 43.09617 30.825559 42.103 31.941 L 42.103 45.949 L 42.103 45.949 Z  M 59.197 227.145 L 69.453 227.145 L 69.453 210.051 L 59.197 210.051 L 59.197 227.145 L 59.197 227.145 Z  M 59.197 45.949 L 69.453 45.949 L 69.453 28.855 L 59.197 28.855 L 59.197 45.949 L 59.197 45.949 Z  M 76.291 227.145 L 86.547 227.145 L 86.547 210.051 L 76.291 210.051 L 76.291 227.145 L 76.291 227.145 Z  M 76.291 45.949 L 86.547 45.949 L 86.547 28.855 L 76.291 28.855 L 76.291 45.949 L 76.291 45.949 Z  M 93.385 227.145 L 103.641 227.145 L 103.641 210.051 L 93.385 210.051 L 93.385 227.145 L 93.385 227.145 Z  M 93.385 45.949 L 103.641 45.949 L 103.641 28.855 L 93.385 28.855 L 93.385 45.949 L 93.385 45.949 Z  M 110.479 227.145 L 120.735 227.145 L 120.735 210.051 L 110.479 210.051 L 110.479 227.145 L 110.479 227.145 Z  M 110.479 45.949 L 120.735 45.949 L 120.735 28.855 L 110.479 28.855 L 110.479 45.949 L 110.479 45.949 Z  M 127.573 227.145 L 137.829 227.145 L 137.829 210.051 L 127.573 210.051 L 127.573 227.145 L 127.573 227.145 Z  M 127.573 45.949 L 137.829 45.949 L 137.829 28.855 L 127.573 28.855 L 127.573 45.949 L 127.573 45.949 Z  M 144.667 227.145 L 154.923 227.145 L 154.923 210.051 L 144.667 210.051 L 144.667 227.145 L 144.667 227.145 Z  M 144.667 45.949 L 154.923 45.949 L 154.923 28.855 L 144.667 28.855 L 144.667 45.949 L 144.667 45.949 Z  M 161.761 227.145 L 172.017 227.145 L 172.017 210.051 L 161.761 210.051 L 161.761 227.145 L 161.761 227.145 Z  M 161.761 45.949 L 172.017 45.949 L 172.017 28.855 L 161.761 28.855 L 161.761 45.949 L 161.761 45.949 Z  M 178.855 227.145 L 189.111 227.145 L 189.111 210.051 L 178.855 210.051 L 178.855 227.145 L 178.855 227.145 Z  M 178.855 45.949 L 189.111 45.949 L 189.111 28.855 L 178.855 28.855 L 178.855 45.949 L 178.855 45.949 Z  M 195.949 227.145 L 206.205 227.145 L 206.205 210.051 L 195.949 210.051 L 195.949 227.145 L 195.949 227.145 Z  M 195.949 45.949 L 206.205 45.949 L 206.205 28.855 L 195.949 28.855 L 195.949 45.949 L 195.949 45.949 Z  M 213.043 227.145 L 220.061 227.145 C 221.222868 226.206566 222.30583 225.174441 223.299 224.059 L 223.299 210.051 L 213.043 210.051 L 213.043 227.145 L 213.043 227.145 Z  M 213.043 45.949 L 223.299 45.949 L 223.299 31.941 C 222.30583 30.825559 221.222868 29.793434 220.061 28.855 L 213.043 28.855 L 213.043 45.949 L 213.043 45.949 Z " id="Compound Path" fill="url(#_lgradient_159)"/></g><g id="Group" style="opacity:0.2;" filter="url(#SmLTGGWrt9k12fkwOXhFaBYjqnVCs49K)"><g opacity="0.2"><linearGradient id="_lgradient_160" x1="0.639" y1="0.9959980689664302" x2="0.14399999999999996" y2="0.46730268965608524" gradientTransform="matrix(145,0,0,107.973209,55.201,71.243)" gradientUnits="userSpaceOnUse"><stop offset="14.256132491577958%" stop-opacity="1" style="stop-color:rgb(0,0,0)"/><stop offset="61.84450022760828%" stop-opacity="1" style="stop-color:rgb(0,0,0)"/><stop offset="85.2559948375785%" stop-opacity="1" style="stop-color:rgb(0,0,0)"/></linearGradient><path d=" M 183.587 179.213 C 190.066 179.294 194.419 177.839 196.653 175.159 C 198.999 172.366 200.201 167.784 200.201 161.417 L 200.201 103.363 C 200.201 96.996 198.999 92.415 196.653 89.622 C 194.419 86.941 190.066 85.567 183.587 85.567 L 168.201 85.567 L 147.908 71.243 L 127.616 85.567 L 71.814 85.567 C 65.336 85.567 60.983 86.941 58.749 89.622 C 56.403 92.415 55.201 96.996 55.201 103.363 L 55.201 161.417 C 55.201 167.784 56.403 172.366 58.749 175.159 C 60.983 177.839 65.336 179.213 71.814 179.213 L 183.587 179.213 L 183.587 179.213 Z " id="Path" fill="url(#_lgradient_160)"/></g></g><defs><filter id="SmLTGGWrt9k12fkwOXhFaBYjqnVCs49K" x="-200%" y="-200%" width="400%" height="400%" filterUnits="objectBoundingBox" color-interpolation-filters="sRGB"><feGaussianBlur xmlns="http://www.w3.org/2000/svg" stdDeviation="10.766"/></filter></defs><defs><filter id="7IfeCSQF4vyB6ehWSqyVmuSUWgTWIXTo" x="-200%" y="-200%" width="400%" height="400%" filterUnits="objectBoundingBox" color-interpolation-filters="sRGB"><feGaussianBlur xmlns="http://www.w3.org/2000/svg" stdDeviation="1.346"/></filter></defs><g opacity="0.1" filter="url(#7IfeCSQF4vyB6ehWSqyVmuSUWgTWIXTo)"><path d=" M 183.587 179.213 C 190.066 179.294 194.419 177.839 196.653 175.159 C 198.999 172.366 200.201 167.784 200.201 161.417 L 200.201 103.363 C 200.201 96.996 198.999 92.415 196.653 89.622 C 194.419 86.941 190.066 85.567 183.587 85.567 L 168.201 85.567 L 147.908 71.243 L 127.616 85.567 L 71.814 85.567 C 65.336 85.567 60.983 86.941 58.749 89.622 C 56.403 92.415 55.201 96.996 55.201 103.363 L 55.201 161.417 C 55.201 167.784 56.403 172.366 58.749 175.159 C 60.983 177.839 65.336 179.213 71.814 179.213 L 183.587 179.213 L 183.587 179.213 Z " id="Path" fill="rgb(0,0,0)"/></g><linearGradient id="_lgradient_161" x1="0.369" y1="0.22499999999999987" x2="0.364" y2="0.573066000000002" gradientTransform="matrix(145,0,0,79.605,55.201,72.149)" gradientUnits="userSpaceOnUse"><stop offset="1.7390000000000003%" stop-opacity="0.996" style="stop-color:rgb(242,208,221)"/><stop offset="98.696%" stop-opacity="1" style="stop-color:rgb(247,237,241)"/></linearGradient><path d=" M 200.201 151.754 L 200.201 104.269 C 200.201 97.902 198.999 93.321 196.654 90.529 C 194.42 87.848 190.066 86.474 183.587 86.474 L 168.201 86.474 L 147.909 72.149 L 127.616 86.474 L 71.814 86.474 C 65.336 86.474 60.982 87.848 58.748 90.529 C 56.402 93.321 55.201 97.902 55.201 104.269 L 55.201 151.754 L 200.201 151.754 L 200.201 151.754 Z " id="Path" fill="url(#_lgradient_161)"/><linearGradient id="_lgradient_162" x1="0.639" y1="0.989999511460466" x2="0.6390000000000001" y2="0.033008884220834034" gradientTransform="matrix(145,0,0,108.608064,55.201,72.149)" gradientUnits="userSpaceOnUse"><stop offset="2.174%" stop-opacity="1" style="stop-color:rgb(252,250,251)"/><stop offset="100%" stop-opacity="1" style="stop-color:rgb(240,223,229)"/></linearGradient><path d=" M 183.587 180.754 C 190.066 180.835 194.419 179.306 196.653 176.625 C 198.999 173.832 200.201 169.251 200.201 162.884 L 200.201 106.503 L 168.201 86.473 L 147.908 72.149 L 127.616 86.473 L 55.201 141.46 L 55.201 162.884 C 55.201 169.251 56.403 173.832 58.749 176.625 C 60.983 179.306 65.335 180.754 71.814 180.754 L 183.587 180.754 L 183.587 180.754 Z " id="Path" fill="url(#_lgradient_162)"/><g opacity="0.1"><linearGradient id="_lgradient_163" x1="0.388" y1="0.6349999999999993" x2="0.2859999999999999" y2="0.5340088931851128" gradientTransform="matrix(72.415,0,0,54.987,55.201,86.473)" gradientUnits="userSpaceOnUse"><stop offset="0%" stop-opacity="1" style="stop-color:rgb(245,130,174)"/><stop offset="100%" stop-opacity="0" style="stop-color:rgb(131,185,245)"/></linearGradient><path d=" M 55.201 141.46 L 127.616 86.473 L 71.814 86.473 C 65.335 86.473 60.983 87.847 58.749 90.528 C 56.403 93.321 55.201 97.902 55.201 104.269 L 55.201 141.46 L 55.201 141.46 Z " id="Path" fill="url(#_lgradient_163)"/></g><g opacity="0.1"><linearGradient id="_lgradient_164" x1="0.6319999999999997" y1="0.89500447351785" x2="0.8220000000000001" y2="0.7385784735178502" gradientTransform="matrix(32,0,0,20.18486,168.201,86.31814)" gradientUnits="userSpaceOnUse"><stop offset="1.7390000000000003%" stop-opacity="1" style="stop-color:rgb(245,130,174)"/><stop offset="100%" stop-opacity="0" style="stop-color:rgb(131,185,245)"/></linearGradient><path d=" M 200.201 106.503 L 200.201 104.269 C 200.201 97.902 198.999 93.321 196.653 90.528 C 194.419 87.847 190.022 85.715 183.587 86.473 L 168.201 86.473 L 200.201 106.503 L 200.201 106.503 Z " id="Path" fill="url(#_lgradient_164)"/></g><path d=" M 171.201 151.754 L 171.201 144.504 L 84.201 144.504 L 84.201 151.754 L 171.201 151.754 L 171.201 151.754 Z  M 171.201 130.004 L 171.201 122.754 L 127.701 122.754 L 127.701 130.004 L 171.201 130.004 L 171.201 130.004 Z " id="Compound Path" fill="rgb(245,130,174)"/><path d=" M 183.587 180.754 C 190.066 180.835 194.42 179.305 196.654 176.624 C 198.999 173.832 200.201 169.25 200.201 162.883 L 200.201 161.071 C 200.201 167.438 198.999 172.019 196.654 174.812 C 194.42 177.492 190.066 179.022 183.587 178.941 L 71.814 178.941 C 65.336 178.941 60.982 177.492 58.748 174.812 C 56.402 172.019 55.201 167.438 55.201 161.071 L 55.201 162.883 C 55.201 169.251 56.402 173.832 58.748 176.624 C 60.982 179.305 65.336 180.754 71.814 180.754 L 183.587 180.754 L 183.587 180.754 Z " id="Path" fill="rgb(255,255,255)"/></svg>