<svg xmlns="http://www.w3.org/2000/svg" style="isolation:isolate" width="256" height="256"><defs><clipPath id="a"><path d="M0 0h256v256H0z"/></clipPath></defs><g clip-path="url(#a)"><defs><filter id="b" width="270.648" height="254.338" x="-6.66" y="4.28" filterUnits="userSpaceOnUse"><feGaussianBlur xmlns="http://www.w3.org/2000/svg" in="SourceGraphic" stdDeviation="4.294"/><feOffset xmlns="http://www.w3.org/2000/svg" dy="4" result="pf_100_offsetBlur"/><feFlood xmlns="http://www.w3.org/2000/svg" flood-opacity=".4"/><feComposite xmlns="http://www.w3.org/2000/svg" in2="pf_100_offsetBlur" operator="in" result="pf_100_dropShadow"/><feBlend xmlns="http://www.w3.org/2000/svg" in="SourceGraphic" in2="pf_100_dropShadow"/></filter></defs><path fill="#8F76E4" d="M166.351 13.28c74.056 0 84.64 10.557 84.64 84.544v59.251c0 73.986-10.584 84.544-84.64 84.544H90.982c-74.056 0-84.639-10.558-84.639-84.544V97.824c0-73.987 10.583-84.544 84.639-84.544h75.369z" filter="url(#b)"/><path fill="#37A6E6" d="M166.351 13.28c40.756 0 62.288 3.198 73.412 18.406q4.544 6.213-109.096 95.981Q12.051 40.513 15.888 34.207C26.465 16.826 48.065 13.28 90.982 13.28h75.369z"/><path fill="#F22C42" d="M131 127.5Q20.457 227.946 20.891 227.092C8.988 215.204 6.343 194.068 6.343 157.075V97.824c0-36.993 2.645-58.129 14.548-70.017Q49 54 131 127.5z"/><path fill="#76C22B" d="M129.667 127.333q106.876 100.613 106.442 99.759c11.903-11.888 14.548-33.024 14.548-70.017V97.824c0-36.993-2.645-58.129-14.548-70.017Q208 54 129.667 127.333z"/><path fill="#FFF" d="M8.476 55.74C6.729 66.667 6.158 80.255 6.158 97.205v59.251c0 73.986 10.584 84.544 84.64 84.544h75.369c55.135 0 75.078-5.874 81.675-39.397L8.476 55.74z" opacity=".05"/><g opacity=".4"><linearGradient id="c" x1=".517" x2=".517" y2="1"><stop offset="0%" stop-color="#fff"/><stop offset="12.5%" stop-opacity=".098" stop-color="#fff"/><stop offset="92.5%" stop-opacity=".098"/><stop offset="100%" stop-opacity=".498"/></linearGradient><path fill="none" stroke="url(#c)" stroke-linecap="round" stroke-linejoin="round" stroke-width="4.077" d="M165.685 11.947c74.055 0 84.639 10.557 84.639 84.544v59.251c0 73.986-10.584 84.543-84.639 84.543h-75.37c-74.055 0-84.639-10.557-84.639-84.543V96.491c0-73.987 10.584-84.544 84.639-84.544h75.37z" vector-effect="non-scaling-stroke"/></g><circle fill="#EBEBEB" cx="128" cy="127" r="15" vector-effect="non-scaling-stroke"/><circle fill="#B3B3B3" cx="128" cy="127" r="10.333" vector-effect="non-scaling-stroke"/><path fill="#ECECEC" d="M55.3 144.6H31q0-5.15 1.65-9.1 1.65-3.95 4.15-6.35 2.5-2.4 6.2-4.45 2.15-1.15 3.325-2.3 1.175-1.15 1.175-2.75 0-3.45-3.7-3.45-3.6 0-5.45 3.5l-6.8-3.05q1.6-3.55 4.875-5.6T43.55 109q5.3 0 8.375 2.95t3.075 7.4q0 4.15-1.825 6.55-1.825 2.4-5.575 4.55-3.65 2.2-5.25 3.575T39.9 137.3h15.4v7.3zm156.117 0q-6.5 0-10.95-3.45l3.95-5.95q3.5 2.2 7 2.2 2.75 0 4.35-1.35 1.6-1.35 1.6-3.9 0-2-1.05-3.225t-3.05-1.225q-3 0-5.2 2.5l-6.6-3.45.75-17.75h20.5v7.3h-13.5l-.2 4.95q2.4-.75 4.3-.75 5.55 0 8.575 3.3 3.025 3.3 3.025 8.45 0 5.65-3.8 9-3.8 3.35-9.7 3.35z"/><path fill="#ECECEC" fill-rule="evenodd" d="M128.6 68.033q-6.2 0-9.65-3.75t-3.45-9.7q0-8.9 5.2-14.975 5.2-6.075 16.05-7.775v7.2q-4.05.6-7.375 2.4-3.325 1.8-4.775 5 2.1-1.3 4.95-1.3 5.15 0 8.475 3.2 3.325 3.2 3.325 8.25 0 5.1-3.575 8.275-3.575 3.175-9.175 3.175zm0-7.2q2.3 0 3.75-1.15 1.45-1.15 1.45-3.1 0-1.9-1.475-3.1-1.475-1.2-3.725-1.2-2.3 0-3.775 1.225t-1.475 3.075q0 2 1.45 3.125t3.8 1.125z"/><path fill="#ECECEC" d="M129.95 219.433h-7.5q.05-8.45 2.1-15.1 2.05-6.65 6.35-12.6h-15.4v-7.3h24.4v6.1q-4.8 5.35-7.375 13.9t-2.575 15z"/></g></svg>