<svg xmlns="http://www.w3.org/2000/svg" style="isolation:isolate" width="256" height="256"><defs><filter id="a" x="-200%" y="-200%" width="400%" height="400%" filterUnits="objectBoundingBox" color-interpolation-filters="sRGB"><feGaussianBlur xmlns="http://www.w3.org/2000/svg" in="SourceGraphic" stdDeviation="4.294"/><feOffset xmlns="http://www.w3.org/2000/svg" dy="4" result="pf_100_offsetBlur"/><feFlood xmlns="http://www.w3.org/2000/svg" flood-color="#000" flood-opacity=".4"/><feComposite xmlns="http://www.w3.org/2000/svg" in2="pf_100_offsetBlur" operator="in" result="pf_100_dropShadow"/><feBlend xmlns="http://www.w3.org/2000/svg" in="SourceGraphic" in2="pf_100_dropShadow"/></filter></defs><path d="M166.351 13.28c74.056 0 84.64 10.557 84.64 84.544v59.251c0 73.986-10.584 84.544-84.64 84.544H90.982c-74.056 0-84.639-10.558-84.639-84.544V97.824c0-73.987 10.583-84.544 84.639-84.544h75.369z" fill="#EAB305" filter="url(#a)"/><path d="M8.476 55.74C6.729 66.667 6.158 80.255 6.158 97.205v59.251c0 73.986 10.584 84.544 84.64 84.544h75.369c55.135 0 75.078-5.874 81.675-39.397L8.476 55.74z" fill="#FFF" opacity=".15"/><path d="M30.984 101.601v25.309H5.676v8.436h33.745v-25.309h8.436v50.617h25.308v-25.308h50.617v-25.309h8.436v50.617h25.308v-25.308h42.181v-25.309h8.436v50.617h25.309v-25.308h16.872v-8.436h-25.308v25.308h-8.437v-50.617h-25.308v25.309H149.09v25.308h-8.436v-50.617h-25.308v25.309H64.729v25.308h-8.436v-50.617H30.984z" fill-rule="evenodd" fill="#EEEEEC" opacity=".9"/><path d="M225.02 185.96h8.436v8.436h-8.436v-8.436zm-16.88-8.43h8.436v16.872h-8.436V177.53zm-16.87-8.44h8.436v25.308h-8.436V169.09zm-16.87 8.44h8.436v16.872H174.4V177.53zm-16.87 8.43h8.436v8.436h-8.436v-8.436z" fill="#EEEEEC"/></svg>