<svg xmlns="http://www.w3.org/2000/svg" style="isolation:isolate" width="256" height="256"><defs><clipPath id="a"><path d="M0 0h256v256H0z"/></clipPath></defs><switch><g clip-path="url(#a)"><defs><filter id="b" width="270.648" height="254.338" x="-6.66" y="4.28" filterUnits="userSpaceOnUse"><feGaussianBlur xmlns="http://www.w3.org/2000/svg" in="SourceGraphic" stdDeviation="4.294"/><feOffset xmlns="http://www.w3.org/2000/svg" dy="4" result="pf_100_offsetBlur"/><feFlood xmlns="http://www.w3.org/2000/svg" flood-opacity=".4"/><feComposite xmlns="http://www.w3.org/2000/svg" in2="pf_100_offsetBlur" operator="in" result="pf_100_dropShadow"/><feBlend xmlns="http://www.w3.org/2000/svg" in="SourceGraphic" in2="pf_100_dropShadow"/></filter></defs><g filter="url(#b)"><linearGradient id="c" x1=".5" x2=".5" y1="-.036" y2="1.036" gradientTransform="matrix(244.648 0 0 228.338 6.343 13.28)" gradientUnits="userSpaceOnUse"><stop offset="0%" stop-color="#da1636"/><stop offset="100%" stop-color="#f22c42"/></linearGradient><path fill="url(#c)" d="M166.351 13.28c74.056 0 84.64 10.557 84.64 84.544v59.251c0 73.986-10.584 84.544-84.64 84.544H90.982c-74.056 0-84.639-10.558-84.639-84.544V97.824c0-73.987 10.583-84.544 84.639-84.544h75.369z"/></g><path fill="#FFF" d="M8.476 55.74C6.729 66.667 6.158 80.255 6.158 97.205v59.251c0 73.986 10.584 84.544 84.64 84.544h75.369c55.135 0 75.078-5.874 81.675-39.397L8.476 55.74z" opacity=".05"/><g opacity=".4"><linearGradient id="d" x1=".517" x2=".517" y2="1"><stop offset="0%" stop-color="#fff"/><stop offset="12.5%" stop-opacity=".098" stop-color="#fff"/><stop offset="92.5%" stop-opacity=".098"/><stop offset="100%" stop-opacity=".498"/></linearGradient><path fill="none" stroke="url(#d)" stroke-linecap="round" stroke-linejoin="round" stroke-width="4.077" d="M165.685 11.947c74.055 0 84.639 10.557 84.639 84.544v59.251c0 73.986-10.584 84.543-84.639 84.543h-75.37c-74.055 0-84.639-10.557-84.639-84.543V96.491c0-73.987 10.584-84.544 84.639-84.544h75.37z" vector-effect="non-scaling-stroke"/></g><defs><filter id="e" width="40.064" height="40" x="47.97" y="48" filterUnits="userSpaceOnUse"><feOffset xmlns="http://www.w3.org/2000/svg" in="SourceGraphic"/><feGaussianBlur xmlns="http://www.w3.org/2000/svg" result="pf_100_offsetBlur" stdDeviation="4.294"/><feComposite xmlns="http://www.w3.org/2000/svg" in="SourceGraphic" in2="pf_100_offsetBlur" operator="out" result="pf_100_inverse"/><feFlood xmlns="http://www.w3.org/2000/svg" flood-opacity=".4" result="pf_100_color"/><feComposite xmlns="http://www.w3.org/2000/svg" in="pf_100_color" in2="pf_100_inverse" operator="in" result="pf_100_shadow"/><feComposite xmlns="http://www.w3.org/2000/svg" in="pf_100_shadow" in2="SourceGraphic"/></filter></defs><g filter="url(#e)"><radialGradient id="f" cx=".5" cy=".5" r="8" fx=".5" fy=".813" gradientTransform="matrix(0 -40 40.064 0 47.968 48)" gradientUnits="userSpaceOnUse"><stop offset="0%" stop-color="#fff"/><stop offset="81.419%" stop-color="#e5e5e5"/><stop offset="100%" stop-color="#c8c8c8"/></radialGradient><path fill="url(#f)" d="M68 48a20 20 0 1 1 0 40 20 20 0 1 1 0-40z"/></g><defs><filter id="g" width="40.064" height="40" x="167.97" y="48" filterUnits="userSpaceOnUse"><feOffset xmlns="http://www.w3.org/2000/svg" in="SourceGraphic"/><feGaussianBlur xmlns="http://www.w3.org/2000/svg" result="pf_100_offsetBlur" stdDeviation="4.294"/><feComposite xmlns="http://www.w3.org/2000/svg" in="SourceGraphic" in2="pf_100_offsetBlur" operator="out" result="pf_100_inverse"/><feFlood xmlns="http://www.w3.org/2000/svg" flood-opacity=".4" result="pf_100_color"/><feComposite xmlns="http://www.w3.org/2000/svg" in="pf_100_color" in2="pf_100_inverse" operator="in" result="pf_100_shadow"/><feComposite xmlns="http://www.w3.org/2000/svg" in="pf_100_shadow" in2="SourceGraphic"/></filter></defs><g filter="url(#g)"><radialGradient id="h" cx=".5" cy=".5" r="8" fx=".5" fy=".813" gradientTransform="matrix(0 -40 40.064 0 167.968 48)" gradientUnits="userSpaceOnUse"><stop offset="0%" stop-color="#fff"/><stop offset="81.419%" stop-color="#e5e5e5"/><stop offset="100%" stop-color="#c8c8c8"/></radialGradient><path fill="url(#h)" d="M188 48a20 20 0 1 1 0 40 20 20 0 1 1 0-40z"/></g><defs><filter id="i" width="40.064" height="40" x="47.97" y="168" filterUnits="userSpaceOnUse"><feOffset xmlns="http://www.w3.org/2000/svg" in="SourceGraphic"/><feGaussianBlur xmlns="http://www.w3.org/2000/svg" result="pf_100_offsetBlur" stdDeviation="4.294"/><feComposite xmlns="http://www.w3.org/2000/svg" in="SourceGraphic" in2="pf_100_offsetBlur" operator="out" result="pf_100_inverse"/><feFlood xmlns="http://www.w3.org/2000/svg" flood-opacity=".4" result="pf_100_color"/><feComposite xmlns="http://www.w3.org/2000/svg" in="pf_100_color" in2="pf_100_inverse" operator="in" result="pf_100_shadow"/><feComposite xmlns="http://www.w3.org/2000/svg" in="pf_100_shadow" in2="SourceGraphic"/></filter></defs><g filter="url(#i)"><radialGradient id="j" cx=".5" cy=".5" r="8" fx=".5" fy=".812" gradientTransform="matrix(0 -40 40.064 0 47.968 168)" gradientUnits="userSpaceOnUse"><stop offset="0%" stop-color="#fff"/><stop offset="81.419%" stop-color="#e5e5e5"/><stop offset="100%" stop-color="#c8c8c8"/></radialGradient><path fill="url(#j)" d="M68 168a20 20 0 1 1 0 40 20 20 0 1 1 0-40z"/></g><defs><filter id="k" width="40.064" height="40" x="167.97" y="168" filterUnits="userSpaceOnUse"><feOffset xmlns="http://www.w3.org/2000/svg" in="SourceGraphic"/><feGaussianBlur xmlns="http://www.w3.org/2000/svg" result="pf_100_offsetBlur" stdDeviation="4.294"/><feComposite xmlns="http://www.w3.org/2000/svg" in="SourceGraphic" in2="pf_100_offsetBlur" operator="out" result="pf_100_inverse"/><feFlood xmlns="http://www.w3.org/2000/svg" flood-opacity=".4" result="pf_100_color"/><feComposite xmlns="http://www.w3.org/2000/svg" in="pf_100_color" in2="pf_100_inverse" operator="in" result="pf_100_shadow"/><feComposite xmlns="http://www.w3.org/2000/svg" in="pf_100_shadow" in2="SourceGraphic"/></filter></defs><g filter="url(#k)"><radialGradient id="l" cx=".5" cy=".5" r="8" fx=".5" fy=".812" gradientTransform="matrix(0 -40 40.064 0 167.968 168)" gradientUnits="userSpaceOnUse"><stop offset="0%" stop-color="#fff"/><stop offset="81.419%" stop-color="#e5e5e5"/><stop offset="100%" stop-color="#c8c8c8"/></radialGradient><path fill="url(#l)" d="M188 168a20 20 0 1 1 0 40 20 20 0 1 1 0-40z"/></g><defs><filter id="m" width="40.064" height="40" x="107.97" y="108" filterUnits="userSpaceOnUse"><feOffset xmlns="http://www.w3.org/2000/svg" in="SourceGraphic"/><feGaussianBlur xmlns="http://www.w3.org/2000/svg" result="pf_100_offsetBlur" stdDeviation="4.294"/><feComposite xmlns="http://www.w3.org/2000/svg" in="SourceGraphic" in2="pf_100_offsetBlur" operator="out" result="pf_100_inverse"/><feFlood xmlns="http://www.w3.org/2000/svg" flood-opacity=".4" result="pf_100_color"/><feComposite xmlns="http://www.w3.org/2000/svg" in="pf_100_color" in2="pf_100_inverse" operator="in" result="pf_100_shadow"/><feComposite xmlns="http://www.w3.org/2000/svg" in="pf_100_shadow" in2="SourceGraphic"/></filter></defs><g filter="url(#m)"><radialGradient id="n" cx=".5" cy=".5" r="8" fx=".5" fy=".812" gradientTransform="matrix(0 -40 40.064 0 107.968 108)" gradientUnits="userSpaceOnUse"><stop offset="0%" stop-color="#fff"/><stop offset="81.419%" stop-color="#e5e5e5"/><stop offset="100%" stop-color="#c8c8c8"/></radialGradient><path fill="url(#n)" d="M128 108a20 20 0 1 1 0 40 20 20 0 1 1 0-40z"/></g></g></switch> </svg>