<?xml version="1.0" standalone="no"?><!-- Generator: Gravit.io --><svg xmlns="http://www.w3.org/2000/svg" xmlns:xlink="http://www.w3.org/1999/xlink" style="isolation:isolate" viewBox="0 0 256 256" width="256" height="256"><defs><filter id="Y9rI29f9UHciVtat592H6YV8iqyymdsv" x="-200%" y="-200%" width="400%" height="400%" filterUnits="objectBoundingBox" color-interpolation-filters="sRGB"><feGaussianBlur xmlns="http://www.w3.org/2000/svg" in="SourceGraphic" stdDeviation="4.293609062839028"/><feOffset xmlns="http://www.w3.org/2000/svg" dx="0" dy="4" result="pf_100_offsetBlur"/><feFlood xmlns="http://www.w3.org/2000/svg" flood-color="#000000" flood-opacity="0.4"/><feComposite xmlns="http://www.w3.org/2000/svg" in2="pf_100_offsetBlur" operator="in" result="pf_100_dropShadow"/><feBlend xmlns="http://www.w3.org/2000/svg" in="SourceGraphic" in2="pf_100_dropShadow" mode="normal"/></filter></defs><g filter="url(#Y9rI29f9UHciVtat592H6YV8iqyymdsv)"><linearGradient id="_lgradient_9" x1="0.499185679437509" y1="0.002183000908786133" x2="0.4998624862486249" y2="0.9973597359746823" gradientTransform="matrix(244.648,0,0,228.338,5.68,11.95)" gradientUnits="userSpaceOnUse"><stop offset="0%" stop-opacity="1" style="stop-color:rgb(245,90,52)"/><stop offset="100%" stop-opacity="1" style="stop-color:rgb(244,73,32)"/></linearGradient><path d=" M 165.689 11.95 C 239.745 11.95 250.328 22.507 250.328 96.494 L 250.328 155.745 C 250.328 229.731 239.745 240.288 165.689 240.288 L 90.319 240.288 C 16.264 240.288 5.68 229.731 5.68 155.745 L 5.68 96.494 C 5.68 22.507 16.264 11.95 90.319 11.95 L 165.689 11.95 Z " fill="url(#_lgradient_9)"/></g><g filter="url(#NWfT9HDACmpmaMJyn63tPzTNSUGavOek)"><g><circle vector-effect="non-scaling-stroke" cx="128" cy="127.99766678921915" r="82.49766678921915" fill="rgb(254,229,129)"/><linearGradient id="_lgradient_10" x1="0.49946857853951004" y1="-0.005180973552211601" x2="0.4994685785395099" y2="0.9967544459644321" gradientTransform="matrix(164.995,0,0,163.735,45.502,46.765)" gradientUnits="userSpaceOnUse"><stop offset="0%" stop-opacity="0.94" style="stop-color:rgb(255,209,25)"/><stop offset="100%" stop-opacity="1" style="stop-color:rgb(250,199,24)"/></linearGradient><ellipse vector-effect="non-scaling-stroke" cx="128" cy="128.63230012160977" rx="82.49766678921915" ry="81.86769987839023" fill="url(#_lgradient_10)"/><circle vector-effect="non-scaling-stroke" cx="127.99999999999999" cy="127.99766678921911" r="78.04123419779972" fill="rgb(254,229,129)"/><linearGradient id="_lgradient_11" x1="0" y1="0.5" x2="6.123233995736766e-17" y2="1.5" gradientTransform="matrix(148.271,0,0,148.271,53.865,53.862)" gradientUnits="userSpaceOnUse"><stop offset="100%" stop-opacity="0.94" style="stop-color:rgb(255,209,25)"/><stop offset="100%" stop-opacity="0.940189755781147" style="stop-color:rgb(255,209,25)"/></linearGradient><circle vector-effect="non-scaling-stroke" cx="128" cy="127.99766678921915" r="74.13543935066036" fill="url(#_lgradient_11)"/><circle vector-effect="non-scaling-stroke" cx="127.99999999999999" cy="127.99766678921917" r="69.525014847705" fill="rgb(254,229,129)"/><linearGradient id="_lgradient_12" x1="0" y1="0.5" x2="6.123233995736766e-17" y2="1.5" gradientTransform="matrix(131.238,0,0,131.238,62.381,62.378)" gradientUnits="userSpaceOnUse"><stop offset="100%" stop-opacity="0.94" style="stop-color:rgb(255,209,25)"/><stop offset="100%" stop-opacity="0.9402139669035993" style="stop-color:rgb(255,209,25)"/></linearGradient><circle vector-effect="non-scaling-stroke" cx="127.99999999999999" cy="127.99766678921911" r="65.61922000056563" fill="url(#_lgradient_12)"/><circle vector-effect="non-scaling-stroke" cx="128" cy="127.99766678921915" r="60.71481093922341" fill="rgb(254,229,129)"/><linearGradient id="_lgradient_13" x1="0" y1="0.5" x2="6.123233995736766e-17" y2="1.5" gradientTransform="matrix(113.749,0,0,113.749,71.126,71.123)" gradientUnits="userSpaceOnUse"><stop offset="100%" stop-opacity="0.94" style="stop-color:rgb(255,209,25)"/><stop offset="100%" stop-opacity="0.9402474916719052" style="stop-color:rgb(255,209,25)"/></linearGradient><circle vector-effect="non-scaling-stroke" cx="128.0000000000001" cy="127.99766678921915" r="56.8743459939478" fill="url(#_lgradient_13)"/><linearGradient id="_lgradient_14" x1="0.2500000380462092" y1="0.03605778365647458" x2="0.750000029712876" y2="0.9020831730071567" gradientTransform="matrix(103.931,0,0,103.931,76.035,76.032)" gradientUnits="userSpaceOnUse"><stop offset="0%" stop-opacity="1" style="stop-color:rgb(246,17,17)"/><stop offset="48.271722%" stop-opacity="1" style="stop-color:rgb(255,79,79)"/><stop offset="100%" stop-opacity="1" style="stop-color:rgb(255,122,85)"/></linearGradient><circle vector-effect="non-scaling-stroke" cx="128" cy="127.99766678921915" r="51.96527051104386" fill="url(#_lgradient_14)"/></g><g><g><path d=" M 110.557 103.634 L 154.664 94.642 L 154.664 106.966 L 110.557 115.958 L 110.557 103.634 Z " fill="rgb(255,255,255)"/><rect x="110.557" y="103.625" width="7.102" height="45.978" transform="matrix(1,0,0,1,0,0)" fill="rgb(255,255,255)"/><path d=" M 94.566 153.912 C 93.298 149.18 97.391 143.966 103.7 142.276 C 110.009 140.585 116.16 143.054 117.428 147.786 C 118.696 152.518 114.603 157.732 108.294 159.422 C 101.985 161.112 95.834 158.643 94.566 153.912 Z " fill="rgb(255,255,255)"/><rect x="147.562" y="96.117" width="7.102" height="45.978" transform="matrix(1,0,0,1,0,0)" fill="rgb(255,255,255)"/><path d=" M 131.571 146.401 C 130.304 141.669 134.396 136.455 140.705 134.765 C 147.014 133.074 153.165 135.543 154.433 140.275 C 155.701 145.007 151.608 150.221 145.299 151.911 C 138.991 153.602 132.839 151.132 131.571 146.401 Z " fill="rgb(255,255,255)"/></g></g><g><linearGradient id="_lgradient_15" x1="0" y1="0.5" x2="6.123233995736766e-17" y2="1.5" gradientTransform="matrix(68.648,0,0,130.361,47.607,75.948)" gradientUnits="userSpaceOnUse"><stop offset="100%" stop-opacity="0.94" style="stop-color:rgb(255,209,25)"/><stop offset="100%" stop-opacity="0.9401712691932107" style="stop-color:rgb(255,209,25)"/></linearGradient><path d=" M 66.231 75.948 L 86.357 93.074 L 81.224 101.446 L 76.357 112.696 L 74.233 121.073 L 73.734 128.572 L 73.982 134.965 L 75.484 141.339 L 80.981 154.461 L 85.503 163.07 L 92.629 169.566 L 103.002 176.318 L 113.627 180.192 L 116.255 181.316 L 110.328 206.31 L 99.129 203.818 L 89.857 198.941 C 89.857 198.941 79.483 193.192 79.357 192.567 C 79.357 192.567 71.858 185.068 71.858 185.068 L 59.838 170.943 L 52.609 157.443 L 48.232 139.818 L 47.607 122.552 L 49.982 110.555 L 53.715 96.929 L 58.214 88.179 L 62.087 82.178 L 66.231 75.948 Z " fill="url(#_lgradient_15)"/><linearGradient id="_lgradient_16" x1="0" y1="0.5" x2="6.123233995736766e-17" y2="1.5" gradientTransform="matrix(68.615,0,0,130.361,139.451,50.456)" gradientUnits="userSpaceOnUse"><stop offset="100%" stop-opacity="0.94" style="stop-color:rgb(255,209,25)"/><stop offset="100%" stop-opacity="0.9401704567730146" style="stop-color:rgb(255,209,25)"/></linearGradient><path d=" M 189.443 180.817 L 169.321 163.691 L 174.454 155.32 L 179.298 144.069 L 181.426 135.693 L 181.925 128.194 L 181.673 121.819 L 180.175 115.445 L 174.692 102.3 L 170.194 93.676 L 163.068 87.176 L 152.699 80.447 L 142.074 76.574 L 139.451 75.444 L 145.345 50.456 L 156.568 52.948 L 165.821 57.824 C 165.821 57.824 176.195 63.568 176.321 64.198 C 176.447 64.828 183.82 71.697 183.82 71.697 L 195.817 85.823 L 203.069 99.323 L 207.441 116.943 L 208.066 134.209 L 205.691 146.206 L 201.958 159.832 L 197.441 168.563 L 193.568 174.564 L 189.443 180.817 Z " fill="url(#_lgradient_16)"/></g></g><defs><filter id="NWfT9HDACmpmaMJyn63tPzTNSUGavOek" x="-200%" y="-200%" width="400%" height="400%" filterUnits="objectBoundingBox" color-interpolation-filters="sRGB"><feGaussianBlur xmlns="http://www.w3.org/2000/svg" in="SourceGraphic" stdDeviation="4.293609062839028"/><feOffset xmlns="http://www.w3.org/2000/svg" dx="0" dy="0" result="pf_100_offsetBlur"/><feFlood xmlns="http://www.w3.org/2000/svg" flood-color="#000000" flood-opacity="0.4"/><feComposite xmlns="http://www.w3.org/2000/svg" in2="pf_100_offsetBlur" operator="in" result="pf_100_dropShadow"/><feBlend xmlns="http://www.w3.org/2000/svg" in="SourceGraphic" in2="pf_100_dropShadow" mode="normal"/></filter></defs><g opacity="0.1"><path d=" M 249.643 83.58 L 44.234 236.61 C 55.796 238.921 70.66 239.629 89.757 239.629 L 165.127 239.629 C 239.182 239.629 249.766 229.071 249.766 155.085 L 249.766 95.834 C 249.766 91.531 249.725 87.464 249.643 83.58 L 249.643 83.58 Z " fill="rgb(255,255,255)"/></g><g opacity="0.4"><linearGradient id="_lgradient_17" x1="0.5166666666666668" y1="0" x2="0.5166666666666666" y2="1.0000000000000002"><stop offset="0%" stop-opacity="1" style="stop-color:rgb(255,255,255)"/><stop offset="12.5%" stop-opacity="0.09803922" style="stop-color:rgb(255,255,255)"/><stop offset="92.500001%" stop-opacity="0.09803922" style="stop-color:rgb(0,0,0)"/><stop offset="100%" stop-opacity="0.49803922" style="stop-color:rgb(0,0,0)"/></linearGradient><path d=" M 165.685 11.947 C 239.74 11.947 250.324 22.504 250.324 96.491 L 250.324 155.742 C 250.324 229.728 239.74 240.285 165.685 240.285 L 90.315 240.285 C 16.26 240.285 5.676 229.728 5.676 155.742 L 5.676 96.491 C 5.676 22.504 16.26 11.947 90.315 11.947 L 165.685 11.947 Z " fill="none" vector-effect="non-scaling-stroke" stroke-width="4.077" stroke="url(#_lgradient_17)" stroke-linejoin="round" stroke-linecap="round" stroke-miterlimit="4"/></g></svg>