<svg xmlns="http://www.w3.org/2000/svg" style="isolation:isolate" width="256" height="256"><defs><filter id="a" width="270.648" height="254.338" x="-6.66" y="4.28" filterUnits="userSpaceOnUse"><feGaussianBlur xmlns="http://www.w3.org/2000/svg" in="SourceGraphic" stdDeviation="4.294"/><feOffset xmlns="http://www.w3.org/2000/svg" dy="4" result="pf_100_offsetBlur"/><feFlood xmlns="http://www.w3.org/2000/svg" flood-opacity=".4"/><feComposite xmlns="http://www.w3.org/2000/svg" in2="pf_100_offsetBlur" operator="in" result="pf_100_dropShadow"/><feBlend xmlns="http://www.w3.org/2000/svg" in="SourceGraphic" in2="pf_100_dropShadow"/></filter></defs><g filter="url(#a)"><linearGradient id="b" x1=".053" x2=".928" y1="-.027" y2=".986" gradientTransform="matrix(244.648 0 0 228.338 6.343 13.28)" gradientUnits="userSpaceOnUse"><stop offset="0%" stop-color="#8c59d9"/><stop offset="100%" stop-color="#a7a7f1"/></linearGradient><path fill="url(#b)" d="M166.351 13.28c74.056 0 84.64 10.557 84.64 84.544v59.251c0 73.986-10.584 84.544-84.64 84.544H90.982c-74.056 0-84.639-10.558-84.639-84.544V97.824c0-73.987 10.583-84.544 84.639-84.544h75.369z"/></g><path fill="#FFF" d="M249.643 83.58L44.234 236.61c11.562 2.311 26.426 3.019 45.523 3.019h75.37c74.055 0 84.639-10.558 84.639-84.544V95.834c0-4.303-.041-8.37-.123-12.254z" opacity=".1"/><g opacity=".4"><linearGradient id="c" x1=".517" x2=".517" y2="1"><stop offset="0%" stop-color="#fff"/><stop offset="12.5%" stop-opacity=".098" stop-color="#fff"/><stop offset="92.5%" stop-opacity=".098"/><stop offset="100%" stop-opacity=".498"/></linearGradient><path fill="none" stroke="url(#c)" stroke-linecap="round" stroke-linejoin="round" stroke-width="4.077" d="M165.685 11.947c74.055 0 84.639 10.557 84.639 84.544v59.251c0 73.986-10.584 84.543-84.639 84.543h-75.37c-74.055 0-84.639-10.557-84.639-84.543V96.491c0-73.987 10.584-84.544 84.639-84.544h75.37z" vector-effect="non-scaling-stroke"/></g><path fill="#FFF" d="M127.5 45c45.563 0 82.5 36.936 82.5 82.5 0 45.563-36.937 82.5-82.5 82.5S45 173.063 45 127.5C45 81.936 81.937 45 127.5 45z" opacity=".1"/><circle fill="#FFF" r="1" transform="translate(127.407 127.664) scale(59.678)" vector-effect="non-scaling-stroke" opacity=".2"/><circle fill="#8F76E4" r="1" transform="translate(127.407 125.633) scale(47.742)" vector-effect="non-scaling-stroke" opacity=".3"/><circle fill="#7839B7" r="1" transform="translate(127.407 120.3) scale(32.505)" vector-effect="non-scaling-stroke" opacity=".4"/><path fill="#7839B7" d="M113.463 147.891c-1.139-9.151-3.45-59.013 10.011-59.522 13.462-.509 17.049 45.512 18.356 57.67 1.306 12.158-3.012 23.064 25.942 16.394 12.862-2.963 20.127-10.077 19.239 7.659-.887 17.736-32.945 18.255-48.091 19.479-40.67 2.312-71.594-1.206-71.187-11.256.407-10.051.925-14.258 8.398-12.893 49.958 9.127 38.439-8.634 37.332-17.531z"/><radialGradient id="d" cx=".5" cy=".5" r="13.861" fx=".5" fy=".5" gradientTransform="matrix(2 0 0 2 -1 -1)" gradientUnits="userSpaceOnUse"><stop offset="0%" stop-color="#fff"/><stop offset="100%" stop-color="#e5e5e5"/></radialGradient><ellipse fill="url(#d)" rx="1" ry="1" transform="matrix(14.275 .677 -1.307 26.904 110.379 128.554)" vector-effect="non-scaling-stroke"/><ellipse rx="1" ry="1" transform="matrix(4.949 .235 -.475 9.783 109.323 137.337)" vector-effect="non-scaling-stroke"/><radialGradient id="e" cx=".5" cy=".5" r="13.861" fx=".5" fy=".5" gradientTransform="matrix(2 0 0 2 -1 -1)" gradientUnits="userSpaceOnUse"><stop offset="0%" stop-color="#fff"/><stop offset="100%" stop-color="#e5e5e5"/></radialGradient><ellipse fill="url(#e)" rx="1" ry="1" transform="matrix(14.22 -1.417 2.731 26.799 146.144 126.998)" vector-effect="non-scaling-stroke"/><ellipse rx="1" ry="1" transform="matrix(4.909 .659 -1.335 9.704 148.28 136.186)" vector-effect="non-scaling-stroke"/></svg>