<svg xmlns="http://www.w3.org/2000/svg" style="isolation:isolate" width="256" height="256"><defs><filter id="a" width="270.648" height="254.338" x="-7.32" y="2.95" filterUnits="userSpaceOnUse"><feGaussianBlur xmlns="http://www.w3.org/2000/svg" in="SourceGraphic" stdDeviation="4.294"/><feOffset xmlns="http://www.w3.org/2000/svg" dy="4" result="pf_100_offsetBlur"/><feFlood xmlns="http://www.w3.org/2000/svg" flood-opacity=".4"/><feComposite xmlns="http://www.w3.org/2000/svg" in2="pf_100_offsetBlur" operator="in" result="pf_100_dropShadow"/><feBlend xmlns="http://www.w3.org/2000/svg" in="SourceGraphic" in2="pf_100_dropShadow"/></filter></defs><path fill="#333" d="M165.685 11.947c74.055 0 84.639 10.557 84.639 84.544v59.251c0 73.986-10.584 84.543-84.639 84.543h-75.37c-74.055 0-84.639-10.557-84.639-84.543V96.491c0-73.987 10.584-84.544 84.639-84.544h75.37z" filter="url(#a)"/><path fill="#C63166" d="M5.989 83.662c.33-.297.664-.558.955-.827 4.541-4.189 15.281-13.707 18.428-16.334 1.543-1.287 7.542-6.564 13.33-11.719 5.787-5.154 13.268-11.745 16.625-14.648 3.356-2.903 10.317-9.234 15.469-14.063 3.156-2.959 9.74-8.818 15.547-14.025-5.112.031-9.738.172-14.231.342-25.536 25.126-45.32 44.809-65.987 65.649-.068 1.771-.092 3.758-.136 5.625zM192.267 12.686c-.583-.038-1.083-.103-1.678-.138-7.376-.433-15.641-.598-24.898-.598h-64.766c-4.958 7.679-9.643 14.934-17.063 26.44a335437.046 335437.046 0 0 1-29.795 46.188c-5.583 8.652-17.923 27.783-27.422 42.51-7.201 11.164-14.548 22.544-20.875 32.346.043 7.629.14 14.911.51 21.187.217 3.685.501 7.147.865 10.401.364 3.254.808 6.298 1.346 9.147.537 2.848 1.166 5.501 1.902 7.97.736 2.469 1.58 4.754 2.541 6.87a39.523 39.523 0 0 0 3.252 5.849 33.282 33.282 0 0 0 4.045 4.906 33.274 33.274 0 0 0 4.91 4.038 39.61 39.61 0 0 0 5.858 3.25c2.118.959 4.405 1.8 6.877 2.535 2.471.735 5.127 1.364 7.978 1.9 2.851.536 5.9.979 9.156 1.342 3.257.363 6.722.647 10.411.863 7.376.433 15.641.598 24.898.598h41.534c14.619-66.366 30-156.312 60.414-227.604z"/><path fill="#B8DA6C" d="M72.112 12.388c-2.113.079-4.709.043-6.691.16-3.689.216-7.154.5-10.411.863-3.256.363-6.305.805-9.156 1.342-2.851.536-5.507 1.165-7.978 1.9-2.472.735-4.759 1.576-6.877 2.535a39.61 39.61 0 0 0-5.858 3.25 33.274 33.274 0 0 0-4.91 4.038 33.282 33.282 0 0 0-4.045 4.906 39.523 39.523 0 0 0-3.252 5.849c-.961 2.116-1.805 4.401-2.541 6.87-.736 2.469-1.365 5.122-1.902 7.97-.538 2.849-.982 5.893-1.346 9.147a199.123 199.123 0 0 0-.865 10.401c-.112 1.897-.077 4.388-.155 6.406 20.657-20.827 40.476-40.54 65.987-65.637zM100.925 11.95H90.319c-1.478 0-2.548.087-3.976.096-5.807 5.207-12.391 11.066-15.547 14.025-5.152 4.829-12.113 11.16-15.469 14.063-3.357 2.903-10.839 9.494-16.627 14.648-5.788 5.155-11.787 10.431-13.33 11.719-3.147 2.627-13.887 12.145-18.428 16.334-.291.268-.624.529-.953.825-.103 4.258-.309 8.062-.309 12.834v59.252c0 1.371.08 2.359.088 3.686 6.327-9.802 13.676-21.182 20.877-32.346 9.499-14.727 21.839-33.858 27.422-42.51 5.583-8.653 18.991-29.436 29.795-46.188 7.42-11.505 12.105-18.759 17.063-26.438z"/><path fill="#778B3C" d="M180.699 239.931c3.217-.094 6.96-.067 9.89-.239 3.689-.216 7.154-.5 10.411-.863 3.256-.363 6.305-.806 9.156-1.342 2.851-.536 5.507-1.165 7.978-1.9 2.472-.735 4.759-1.576 6.877-2.535a39.61 39.61 0 0 0 5.858-3.25 33.274 33.274 0 0 0 4.91-4.038 33.282 33.282 0 0 0 4.045-4.906 39.523 39.523 0 0 0 3.252-5.849c.961-2.116 1.805-4.401 2.541-6.87.736-2.469 1.365-5.122 1.902-7.97.538-2.849.982-5.893 1.346-9.147.364-3.254.648-6.716.865-10.401.174-2.951.146-6.719.241-9.963l-69.272 69.273z"/><path fill="#EDDF36" d="M249.971 170.66c.141-4.854.359-9.369.359-14.914V96.494c0-9.249-.166-17.506-.6-24.875a199.123 199.123 0 0 0-.865-10.401c-.364-3.254-.808-6.298-1.346-9.147-.537-2.848-1.166-5.501-1.902-7.97-.736-2.469-1.58-4.754-2.541-6.87a39.523 39.523 0 0 0-3.252-5.849 33.282 33.282 0 0 0-4.045-4.906 33.274 33.274 0 0 0-4.91-4.038 39.61 39.61 0 0 0-5.858-3.25c-2.118-.959-4.405-1.8-6.877-2.535-2.471-.735-5.127-1.364-7.978-1.9-2.851-.537-5.9-.979-9.156-1.342a199.53 199.53 0 0 0-10.411-.863c-1.471-.087-3.423-.054-4.966-.119-35.127 77.193-57.876 158.397-63.852 227.861h43.92c5.58 0 10.127-.217 15.01-.359l69.27-69.271z"/><g opacity=".1"><path fill="#FFF" d="M5.676 126.116v29.626c0 73.986 10.584 84.543 84.639 84.543h75.37c74.055 0 84.639-10.557 84.639-84.543v-29.626H5.676z"/></g><g opacity=".4"><linearGradient id="b" x1=".517" x2=".517" y2="1"><stop offset="0%" stop-color="#fff"/><stop offset="12.5%" stop-opacity=".098" stop-color="#fff"/><stop offset="92.5%" stop-opacity=".098"/><stop offset="100%" stop-opacity=".498"/></linearGradient><path fill="none" stroke="url(#b)" stroke-linecap="round" stroke-linejoin="round" stroke-width="4.077" d="M165.685 11.947c74.055 0 84.639 10.557 84.639 84.544v59.251c0 73.986-10.584 84.543-84.639 84.543h-75.37c-74.055 0-84.639-10.557-84.639-84.543V96.491c0-73.987 10.584-84.544 84.639-84.544h75.37z" vector-effect="non-scaling-stroke"/></g></svg>