<?xml version="1.0" encoding="UTF-8" standalone="no"?>
<!-- Created with Inkscape (http://www.inkscape.org/) -->

<svg
   xmlns:dc="http://purl.org/dc/elements/1.1/"
   xmlns:cc="http://creativecommons.org/ns#"
   xmlns:rdf="http://www.w3.org/1999/02/22-rdf-syntax-ns#"
   xmlns:svg="http://www.w3.org/2000/svg"
   xmlns="http://www.w3.org/2000/svg"
   xmlns:xlink="http://www.w3.org/1999/xlink"
   xmlns:sodipodi="http://sodipodi.sourceforge.net/DTD/sodipodi-0.dtd"
   xmlns:inkscape="http://www.inkscape.org/namespaces/inkscape"
   width="256"
   height="256"
   viewBox="0 0 67.733332 67.733335"
   version="1.1"
   id="svg1488"
   inkscape:version="0.92.3 (2405546, 2018-03-11)"
   sodipodi:docname="griffith.svg">
  <defs
     id="defs1482">
    <clipPath
       clipPathUnits="userSpaceOnUse"
       id="clipPath1025">
      <path
         id="path1027"
         d="M 111.94141,84 C 99.359506,84.145 90.1531,83.713998 82.625,87.867188 c -3.7641,2.0768 -6.751838,5.574737 -8.398438,9.960937 C 72.580062,102.21433 72,107.4241 72,114 v 42 h 160 v -26 c 0,-6.5759 -0.57996,-11.78566 -2.22656,-16.17188 -0.205,-0.5455 -0.47919,-1.03993 -0.74219,-1.54296 -0.1,-0.1848 -0.17844,-0.38051 -0.27344,-0.56641 -1.727,-3.38752 -4.25471,-6.14522 -7.38281,-7.87109 C 213.8463,99.694146 204.64049,100.1454 192.05859,100 H 192 151.66797 L 135.45312,84 h -23.49218 z"
         style="color:#000000;font-style:normal;font-variant:normal;font-weight:normal;font-stretch:normal;font-size:medium;line-height:normal;font-family:sans-serif;font-variant-ligatures:none;font-variant-position:normal;font-variant-caps:normal;font-variant-numeric:normal;font-variant-alternates:normal;font-feature-settings:normal;text-indent:0;text-align:start;text-decoration:none;text-decoration-line:none;text-decoration-style:solid;text-decoration-color:#000000;letter-spacing:normal;word-spacing:normal;text-transform:none;writing-mode:lr-tb;direction:ltr;baseline-shift:baseline;text-anchor:start;white-space:normal;shape-padding:0;clip-rule:nonzero;display:inline;overflow:visible;visibility:visible;opacity:1;isolation:auto;mix-blend-mode:normal;color-interpolation:sRGB;color-interpolation-filters:linearRGB;solid-color:#000000;solid-opacity:1;fill:#e3dfd5;fill-opacity:1;fill-rule:nonzero;stroke:none;stroke-width:4.00000048;stroke-linecap:butt;stroke-linejoin:miter;stroke-miterlimit:4;stroke-dasharray:none;stroke-dashoffset:0;stroke-opacity:1;marker:none;color-rendering:auto;image-rendering:auto;shape-rendering:auto;text-rendering:auto;enable-background:accumulate"
         inkscape:connector-curvature="0" />
    </clipPath>
    <linearGradient
       id="linearGradient1013"
       inkscape:collect="always">
      <stop
         id="stop1005"
         offset="0"
         style="stop-color:#ffffff;stop-opacity:1;" />
      <stop
         style="stop-color:#ffffff;stop-opacity:0.09803922"
         offset="0.125"
         id="stop1007" />
      <stop
         style="stop-color:#000000;stop-opacity:0.09803922"
         offset="0.92500001"
         id="stop1009" />
      <stop
         id="stop1011"
         offset="1"
         style="stop-color:#000000;stop-opacity:0.49803922" />
    </linearGradient>
    <clipPath
       clipPathUnits="userSpaceOnUse"
       id="clipPath1082-3">
      <path
         sodipodi:nodetypes="sssssssss"
         inkscape:connector-curvature="0"
         id="path1084-6"
         d="M 361.9375,-212 C 507.2348,-212 528,-191.28677 528,-46.125 V 70.125 C 528,215.28618 507.2348,236 361.9375,236 H 214.0625 C 68.7652,236 48,215.28618 48,70.125 V -46.125 C 48,-191.28677 68.7652,-212 214.0625,-212 Z"
         style="display:inline;opacity:1;fill:#8c59d9;fill-opacity:1;stroke:none;stroke-width:2;stroke-linecap:round;stroke-linejoin:round;stroke-miterlimit:4;stroke-dasharray:none;stroke-dashoffset:0;stroke-opacity:1;enable-background:new" />
    </clipPath>
    <clipPath
       clipPathUnits="userSpaceOnUse"
       id="clipPath1082-3-5">
      <path
         sodipodi:nodetypes="sssssssss"
         inkscape:connector-curvature="0"
         id="path1084-6-6"
         d="M 361.9375,-212 C 507.2348,-212 528,-191.28677 528,-46.125 V 70.125 C 528,215.28618 507.2348,236 361.9375,236 H 214.0625 C 68.7652,236 48,215.28618 48,70.125 V -46.125 C 48,-191.28677 68.7652,-212 214.0625,-212 Z"
         style="display:inline;opacity:1;fill:#8c59d9;fill-opacity:1;stroke:none;stroke-width:2;stroke-linecap:round;stroke-linejoin:round;stroke-miterlimit:4;stroke-dasharray:none;stroke-dashoffset:0;stroke-opacity:1;enable-background:new" />
    </clipPath>
    <filter
       inkscape:collect="always"
       style="color-interpolation-filters:sRGB"
       id="filter4569-2"
       x="-0.0116"
       width="1.0232"
       y="-0.012428571"
       height="1.024857">
      <feGaussianBlur
         inkscape:collect="always"
         stdDeviation="1.16"
         id="feGaussianBlur4571-9" />
    </filter>
    <filter
       inkscape:collect="always"
       style="color-interpolation-filters:sRGB"
       id="filter913"
       x="-0.0232"
       width="1.0464"
       y="-0.024857143"
       height="1.0497143">
      <feGaussianBlur
         inkscape:collect="always"
         stdDeviation="2.32"
         id="feGaussianBlur915" />
    </filter>
    <linearGradient
       inkscape:collect="always"
       xlink:href="#linearGradient1013"
       id="linearGradient906"
       gradientUnits="userSpaceOnUse"
       x1="296"
       y1="-212"
       x2="296"
       y2="236" />
    <linearGradient
       gradientUnits="userSpaceOnUse"
       gradientTransform="matrix(0.14620093,0,0,0.09746729,8.3839832,234.45793)"
       id="sublime-icon-b"
       x1="193.59095"
       x2="211.4896"
       y1="414.55885"
       y2="324.75415">
      <stop
         offset="0%"
         stop-color="#FF9700"
         id="stop7" />
      <stop
         offset="53%"
         stop-color="#F48E00"
         id="stop9" />
      <stop
         offset="100%"
         stop-color="#CE6E00"
         id="stop11" />
    </linearGradient>
    <linearGradient
       gradientUnits="userSpaceOnUse"
       gradientTransform="matrix(-0.14620093,0,0,-0.09746729,61.796748,288.06735)"
       id="sublime-icon-b-3"
       x1="193.59094"
       x2="211.48959"
       y1="414.55884"
       y2="324.75415">
      <stop
         offset="0%"
         stop-color="#FF9700"
         id="stop7-6" />
      <stop
         offset="53%"
         stop-color="#F48E00"
         id="stop9-7" />
      <stop
         offset="100%"
         stop-color="#CE6E00"
         id="stop11-5" />
    </linearGradient>
    <clipPath
       clipPathUnits="userSpaceOnUse"
       id="clipPath1082-3-452">
      <path
         sodipodi:nodetypes="sssssssss"
         inkscape:connector-curvature="0"
         id="path1084-6-54"
         d="M 361.9375,-212 C 507.2348,-212 528,-191.28677 528,-46.125 V 70.125 C 528,215.28618 507.2348,236 361.9375,236 H 214.0625 C 68.7652,236 48,215.28618 48,70.125 V -46.125 C 48,-191.28677 68.7652,-212 214.0625,-212 Z"
         style="display:inline;opacity:1;fill:#8c59d9;fill-opacity:1;stroke:none;stroke-width:2;stroke-linecap:round;stroke-linejoin:round;stroke-miterlimit:4;stroke-dasharray:none;stroke-dashoffset:0;stroke-opacity:1;enable-background:new" />
    </clipPath>
    <linearGradient
       gradientTransform="matrix(-0.19921875,0,0,0.19921875,119.49533,-55.370508)"
       inkscape:collect="always"
       xlink:href="#linearGradient4210"
       id="linearGradient4216"
       x1="56"
       y1="288"
       x2="56"
       y2="83.578125"
       gradientUnits="userSpaceOnUse"
       spreadMethod="reflect" />
    <linearGradient
       inkscape:collect="always"
       id="linearGradient4210">
      <stop
         style="stop-color:#ffffff;stop-opacity:0.97196263"
         offset="0"
         id="stop4212" />
      <stop
         id="stop4218"
         offset="0.64572346"
         style="stop-color:#ffffff;stop-opacity:0.91588783" />
      <stop
         style="stop-color:#ffffff;stop-opacity:0"
         offset="1"
         id="stop4214" />
    </linearGradient>
    <linearGradient
       id="linearGradient2192">
      <stop
         id="stop2194"
         offset="0.0000000"
         style="stop-color:#ffffff;stop-opacity:1.0000000;" />
      <stop
         id="stop2196"
         offset="1.0000000"
         style="stop-color:#ffffff;stop-opacity:0.0000000;" />
    </linearGradient>
    <radialGradient
       cx="7.4956999"
       cy="8.4497995"
       r="20"
       id="radialGradient4304"
       xlink:href="#linearGradient2208"
       gradientUnits="userSpaceOnUse"
       gradientTransform="matrix(1.3646027e-7,6.2515279,-5.7654346,0,112.42702,-95.368228)" />
    <linearGradient
       id="linearGradient2208">
      <stop
         id="stop2210"
         offset="0.0000000"
         style="stop-color:#000522;stop-opacity:1.0000000;" />
      <stop
         id="stop2212"
         offset="1.0000000"
         style="stop-color:#134a96;stop-opacity:1.0000000;" />
    </linearGradient>
  </defs>
  <sodipodi:namedview
     id="base"
     pagecolor="#ffffff"
     bordercolor="#666666"
     borderopacity="1.0"
     inkscape:pageopacity="0.0"
     inkscape:pageshadow="2"
     inkscape:zoom="1"
     inkscape:cx="71.261758"
     inkscape:cy="58.369671"
     inkscape:document-units="px"
     inkscape:current-layer="layer1"
     showgrid="false"
     units="px"
     inkscape:window-width="1920"
     inkscape:window-height="1008"
     inkscape:window-x="0"
     inkscape:window-y="34"
     inkscape:window-maximized="1">
    <inkscape:grid
       type="xygrid"
       id="grid2168" />
  </sodipodi:namedview>
  <metadata
     id="metadata1485">
    <rdf:RDF>
      <cc:Work
         rdf:about="">
        <dc:format>image/svg+xml</dc:format>
        <dc:type
           rdf:resource="http://purl.org/dc/dcmitype/StillImage" />
        <dc:title />
      </cc:Work>
    </rdf:RDF>
  </metadata>
  <g
     inkscape:label="Livello 1"
     inkscape:groupmode="layer"
     id="layer1"
     transform="translate(0,-229.26666)">
    <path
       style="display:inline;opacity:0.2;fill:#000000;fill-opacity:1;stroke:none;stroke-width:2;stroke-linecap:round;stroke-linejoin:round;stroke-miterlimit:4;stroke-dasharray:none;stroke-dashoffset:0;stroke-opacity:1;filter:url(#filter913);enable-background:new"
       d="m 188.96876,45.999995 c 72.64865,0 83.03125,10.356615 83.03125,82.937505 v 58.125 c 0,72.58059 -10.3826,82.9375 -83.03125,82.9375 h -73.9375 C 42.382606,270 32.000006,259.64309 32.000006,187.0625 v -58.125 c 0,-72.58089 10.3826,-82.937505 83.031254,-82.937505 z"
       id="path899"
       inkscape:connector-curvature="0"
       sodipodi:nodetypes="sssssssss"
       transform="matrix(0.26970778,0,0,0.26970778,-7.1289177,220.56049)" />
    <path
       sodipodi:nodetypes="sssssssss"
       inkscape:connector-curvature="0"
       id="path4567-1"
       d="m 188.96876,43.999995 c 72.64865,0 83.03125,10.356615 83.03125,82.937505 v 58.125 c 0,72.58059 -10.3826,82.9375 -83.03125,82.9375 h -73.9375 C 42.382606,268 32.000006,257.64309 32.000006,185.0625 v -58.125 c 0,-72.58089 10.3826,-82.937505 83.031254,-82.937505 z"
       style="display:inline;opacity:0.1;fill:#000000;fill-opacity:1;stroke:none;stroke-width:2;stroke-linecap:round;stroke-linejoin:round;stroke-miterlimit:4;stroke-dasharray:none;stroke-dashoffset:0;stroke-opacity:1;filter:url(#filter4569-2);enable-background:new"
       transform="matrix(0.26970778,0,0,0.26970778,-7.1289177,220.56049)" />
    <path
       style="display:inline;opacity:1;fill:#4d4d4d;fill-opacity:1;stroke:none;stroke-width:0.5394156;stroke-linecap:round;stroke-linejoin:round;stroke-miterlimit:4;stroke-dasharray:none;stroke-dashoffset:0;stroke-opacity:1;enable-background:new"
       d="m 23.895906,232.42763 c -9.797337,0 -15.39413,0.69699 -18.544517,3.84334 -3.150381,3.14634 -3.849657,8.73736 -3.849657,18.52555 v 15.67677 c 0,9.78815 0.699276,15.3792 3.849657,18.52555 3.150387,3.14636 8.747179,3.84333 18.544517,3.84333 h 19.94152 c 9.797339,0 15.394134,-0.69697 18.544517,-3.84333 3.150384,-3.14635 3.849659,-8.7374 3.849659,-18.52555 v -15.67677 c 0,-9.78819 -0.699275,-15.37921 -3.849659,-18.52555 -3.150383,-3.14635 -8.74718,-3.84334 -18.544517,-3.84334 z"
       id="rect877-2"
       inkscape:connector-curvature="0" />
    <g
       id="g1020"
       transform="matrix(0.5675661,0,0,0.5675661,-1.3907281,261.49722)">
      <path
         inkscape:connector-curvature="0"
         id="path4282"
         d="m 106.90019,-40.229888 c 0.52006,0.46294 0.99865,0.96523 1.43889,1.50971 v 3.27154 h -7.96875 v -4.78125 z m -83.029856,0 v 4.78125 h -7.96875 v -3.27154 c 0.44024,-0.54448 0.91883,-1.04677 1.43889,-1.50971 z m 84.468746,7.96875 v 4.78125 h -7.96875 v -4.78125 z m -84.468746,0 v 4.78125 h -7.96875 v -4.78125 z m 84.468746,7.96875 v 4.78125 h -7.96875 v -4.78125 z m -84.468746,0 v 4.78125 h -7.96875 v -4.78125 z m 84.468746,7.96876 v 4.78125 h -7.96875 v -4.78125 z m -84.468746,0 v 4.78125 h -7.96875 v -4.78125 z m 84.468746,7.9687505 v 4.781251 h -7.96875 v -4.781251 z m -84.468746,0 v 4.781251 h -7.96875 v -4.781251 z m 84.468746,7.96875099 V 4.3951235 h -7.96875 v -4.78125001 z m -84.468746,0 V 4.3951235 h -7.96875 V -0.38612651 Z M 108.33908,7.5826235 v 4.7812485 h -7.96875 V 7.5826235 Z m -84.468746,0 v 4.7812485 h -7.96875 V 7.5826235 Z m 84.468746,7.9687485 v 4.78125 h -7.96875 v -4.78125 z m -84.468746,0 v 4.78125 h -7.96875 v -4.78125 z m 84.468746,7.968741 v 4.78125 h -7.96875 v -4.78125 z m -84.468746,0 v 4.78125 h -7.96875 v -4.78125 z m 84.468746,7.96875 v 4.781252 h -7.96875 v -4.781252 z m -84.468746,0 v 4.781252 h -7.96875 v -4.781252 z m 84.468746,7.968752 v 3.27155 c -0.44024,0.54449 -0.91883,1.04677 -1.43889,1.5097 h -6.52986 v -4.78125 z m -84.468746,0 v 4.78125 h -6.52986 c -0.52006,-0.46293 -0.99865,-0.96522 -1.43889,-1.5097 v -3.27155 z"
         style="color:#000000;display:inline;overflow:visible;visibility:visible;opacity:0.6;fill:url(#linearGradient4216);fill-opacity:1;fill-rule:nonzero;stroke:none;stroke-width:0.3984375;stroke-linecap:butt;stroke-linejoin:miter;stroke-miterlimit:4;stroke-dasharray:none;stroke-dashoffset:0;stroke-opacity:1;marker:none;enable-background:accumulate" />
      <path
         sodipodi:nodetypes="cccsccccccccccccccc"
         style="color:#000000;display:inline;overflow:visible;visibility:visible;opacity:0.05;fill:#ff0000;fill-opacity:0;fill-rule:nonzero;stroke:none;stroke-width:7.96875;marker:none;enable-background:accumulate"
         d="m 57.401328,-25.782479 -7.01001,14.27527 V 0.29651126 c -0.98412,1.15307004 -2.05977,2.31501004 -3.18127,3.43652004 -3.68617,3.6861599 -7.81888,6.9102597 -10.5835,7.8317897 L 31.969813,6.9143012 17.694553,13.924311 v 34.00415 h 50.999985 v -63.2644 c -3.07128,-6.6626 -6.44834,-9.14836 -11.29321,-10.44654 z m -19.43628,45.6211 c 10e-4,-0.001 0.005,0.001 0.006,0 -0.52011,0.3248 -1.0461,0.64281 -1.57507,0.95874 0.52911,-0.31588 1.04862,-0.63399 1.56885,-0.95874 z m -4.799915,2.80151 c 0.002,-7.9e-4 0.005,8e-4 0.006,0 -0.54622,0.29865 -1.1014,0.59378 -1.656,0.88404 0.55467,-0.29023 1.10348,-0.58542 1.64979,-0.88404 z"
         id="path4505-6"
         inkscape:connector-curvature="0" />
      <path
         style="color:#000000;fill:#527eb2;fill-opacity:1;fill-rule:nonzero;stroke:none;stroke-width:2.0447669;stroke-linecap:round;stroke-linejoin:round;stroke-miterlimit:4;stroke-dasharray:none;stroke-dashoffset:0;stroke-opacity:1;enable-background:accumulate"
         d="m 91.585216,-50.783555 c -0.635378,-0.04881 -1.214051,-0.116613 -1.880169,-0.155694 -3.43867,-0.201746 -7.291445,-0.27861 -11.606946,-0.27861 H 42.962218 c -3.832095,0 -7.170333,0.09283 -10.306768,0.247654 V 54.979183 c 3.136436,0.154816 6.474672,0.247654 10.306768,0.247654 h 35.135883 c 4.315506,0 8.168272,-0.07687 11.606946,-0.278612 0.666118,-0.03908 1.244791,-0.106884 1.880169,-0.155692 z"
         id="path1155"
         inkscape:connector-curvature="0" />
      <g
         aria-label="G"
         transform="matrix(1.0866037,0,0,0.92029873,-1.3505112,2.781361)"
         style="font-style:normal;font-weight:normal;font-size:24.38490868px;line-height:0%;font-family:'Bitstream Vera Sans';fill:#ffbf00;fill-opacity:1;stroke:none;stroke-width:2.03207564"
         id="text2282">
        <path
           d="M 73.168678,16.54049 V 3.4489567 H 62.395097 V -1.9704809 H 79.698121 V 18.956384 q -3.819724,2.709719 -8.422981,4.113549 -4.603258,1.371183 -9.826812,1.371183 -11.426525,0 -17.890674,-6.660032 -6.431501,-6.692679 -6.431501,-18.60891243 0,-11.94888057 6.431501,-18.60891257 6.464149,-6.692679 17.890674,-6.692679 4.766493,0 9.043278,1.1753 4.309433,1.1753 7.933274,3.460605 v 7.019151 q -3.656488,-3.101486 -7.770037,-4.668552 -4.11355,-1.567066 -8.651512,-1.567066 -8.945337,0 -13.450653,4.995024 -4.472668,4.995023 -4.472668,14.88712957 0,9.85945883 4.472668,14.85448243 4.505316,4.995024 13.450653,4.995024 3.493252,0 6.235618,-0.58765 2.742366,-0.620297 4.929729,-1.893538 z"
           style="font-size:66.86149597px;line-height:1.25;stroke-width:2.03207564"
           id="path908"
           inkscape:connector-curvature="0" />
      </g>
      <path
         style="opacity:0.1;fill:#ffffff;fill-opacity:1;stroke:none;stroke-width:0.46576172"
         d="M 250.32422 153.73047 L 250.32422 96.490234 C 250.32422 87.241551 250.15843 78.984496 249.72461 71.615234 C 249.5077 67.930603 249.22354 64.468429 248.85938 61.214844 C 248.49521 57.961258 248.05095 54.916773 247.51367 52.068359 C 246.9764 49.219946 246.34758 46.566771 245.61133 44.097656 C 244.87507 41.628541 244.03141 39.344206 243.07031 37.228516 C 242.10922 35.112826 241.03016 33.167045 239.81836 31.378906 C 238.60656 29.590768 237.26181 27.959116 235.77344 26.472656 C 234.28507 24.986192 232.65355 23.645653 230.86328 22.435547 C 229.07302 21.225441 227.12392 20.145166 225.00586 19.185547 C 222.8878 18.225928 220.60065 17.385394 218.12891 16.650391 C 215.65716 15.915387 213.00173 15.286259 210.15039 14.75 C 207.29905 14.213741 204.25096 13.77159 200.99414 13.408203 C 197.73732 13.044816 194.27219 12.761308 190.58398 12.544922 C 183.20758 12.112149 174.94287 11.947266 165.68555 11.947266 L 90.314453 11.947266 C 81.057127 11.947266 72.792424 12.112149 65.416016 12.544922 C 61.727812 12.761308 58.26268 13.044816 55.005859 13.408203 C 51.749038 13.77159 48.700945 14.213741 45.849609 14.75 C 42.998274 15.286259 40.342842 15.915387 37.871094 16.650391 C 35.399346 17.385394 33.112199 18.225928 30.994141 19.185547 C 28.876082 20.145166 26.926985 21.225441 25.136719 22.435547 C 23.346453 23.645653 21.714934 24.986192 20.226562 26.472656 C 18.738194 27.959116 17.393441 29.590768 16.181641 31.378906 C 14.96984 33.167045 13.890783 35.112826 12.929688 37.228516 C 11.968592 39.344206 11.124925 41.628541 10.388672 44.097656 C 9.6524184 46.566771 9.0236037 49.219946 8.4863281 52.068359 C 7.9490526 54.916773 7.5047862 57.961258 7.140625 61.214844 C 6.7764638 64.468429 6.4923012 67.930603 6.2753906 71.615234 C 5.8415695 78.984496 5.6757812 87.241551 5.6757812 96.490234 L 5.6757812 155.74219 C 5.6757812 158.18941 5.8089371 160.01391 5.8339844 162.32422 C 19.574675 222.4752 143.51487 69.557852 250.32422 153.73047 z "
         id="path875"
         transform="matrix(0.46617184,0,0,0.46617184,2.4503368,-56.787324)" />
    </g>
    <path
       sodipodi:nodetypes="sssssssss"
       inkscape:connector-curvature="0"
       id="path1068-7"
       d="M 361.9375,-212 C 507.2348,-212 528,-191.28677 528,-46.125 V 70.125 C 528,215.28618 507.2348,236 361.9375,236 H 214.0625 C 68.7652,236 48,215.28618 48,70.125 V -46.125 C 48,-191.28677 68.7652,-212 214.0625,-212 Z"
       style="display:inline;opacity:0.4;fill:none;fill-opacity:1;stroke:url(#linearGradient906);stroke-width:8;stroke-linecap:round;stroke-linejoin:round;stroke-miterlimit:4;stroke-dasharray:none;stroke-dashoffset:0;stroke-opacity:1;enable-background:new"
       clip-path="url(#clipPath1082-3-5)"
       transform="matrix(0.13485389,0,0,0.13485389,-4.9712557,261.01666)" />
  </g>
</svg>
