<svg xmlns="http://www.w3.org/2000/svg" style="isolation:isolate" width="256" height="256"><defs><filter id="a" width="270.648" height="254.338" x="-6.66" y="4.28" filterUnits="userSpaceOnUse"><feGaussianBlur xmlns="http://www.w3.org/2000/svg" in="SourceGraphic" stdDeviation="4.294"/><feOffset xmlns="http://www.w3.org/2000/svg" dy="4" result="pf_100_offsetBlur"/><feFlood xmlns="http://www.w3.org/2000/svg" flood-opacity=".4"/><feComposite xmlns="http://www.w3.org/2000/svg" in2="pf_100_offsetBlur" operator="in" result="pf_100_dropShadow"/><feBlend xmlns="http://www.w3.org/2000/svg" in="SourceGraphic" in2="pf_100_dropShadow"/></filter></defs><g filter="url(#a)"><linearGradient id="b" x1=".51" x2=".512" y1="1.06" y2=".158" gradientTransform="matrix(244.648 0 0 228.338 6.343 13.28)" gradientUnits="userSpaceOnUse"><stop offset="0%" stop-color="#f98d8d"/><stop offset="100%" stop-color="#fbdada"/></linearGradient><path fill="url(#b)" d="M166.351 13.28c74.056 0 84.64 10.557 84.64 84.544v59.251c0 73.986-10.584 84.544-84.64 84.544H90.982c-74.056 0-84.639-10.558-84.639-84.544V97.824c0-73.987 10.583-84.544 84.639-84.544h75.369z"/></g><g opacity=".4"><linearGradient id="c" x1=".517" x2=".517" y2="1"><stop offset="0%" stop-color="#fff"/><stop offset="12.5%" stop-opacity=".098" stop-color="#fff"/><stop offset="92.5%" stop-opacity=".098"/><stop offset="100%" stop-opacity=".498"/></linearGradient><path fill="none" stroke="url(#c)" stroke-linecap="round" stroke-linejoin="round" stroke-width="4.077" d="M165.685 11.947c74.055 0 84.639 10.557 84.639 84.544v59.251c0 73.986-10.584 84.543-84.639 84.543h-75.37c-74.055 0-84.639-10.557-84.639-84.543V96.491c0-73.987 10.584-84.544 84.639-84.544h75.37z" vector-effect="non-scaling-stroke"/></g><g filter="url(#d)"><path fill="#FF717D" d="M88.231 83.768c-.217.006-.435.017-.652.032l.15 17.491c-9.499 5.205-16.642 14.024-19.541 24.598H55.5v27.927h12.688c4.001 14.594 16.088 25.855 31.288 28.869V199h18.176v-15.514h16.975V199h18.176v-16.164c18.759-3.311 32.991-19.121 33.546-38.426H200.5v-9.503h-14.161c-.827-21.566-18.729-38.687-40.854-38.687h-37.829c-1.039 0-2.064.05-3.084.124-1.924-7.396-8.643-12.566-16.341-12.576z"/><ellipse fill="#E21B4E" rx="1" ry="1" transform="matrix(5.408 0 0 5.366 87.293 124.833)" vector-effect="non-scaling-stroke"/><path fill="#E21B4E" d="M145.971 103.099v9.502h-39.09v-9.502z"/></g><defs><filter id="d" width="205" height="175.232" x="25.5" y="57.77" filterUnits="userSpaceOnUse"><feGaussianBlur xmlns="http://www.w3.org/2000/svg" in="SourceGraphic" stdDeviation="4.294"/><feOffset xmlns="http://www.w3.org/2000/svg" dy="4" result="pf_100_offsetBlur"/><feFlood xmlns="http://www.w3.org/2000/svg" flood-opacity=".4"/><feComposite xmlns="http://www.w3.org/2000/svg" in2="pf_100_offsetBlur" operator="in" result="pf_100_dropShadow"/><feBlend xmlns="http://www.w3.org/2000/svg" in="SourceGraphic" in2="pf_100_dropShadow"/></filter></defs><g filter="url(#e)"><ellipse fill="#EAB305" rx="1" ry="1" transform="matrix(16.9 0 0 16.768 128 81.768)" vector-effect="non-scaling-stroke"/><ellipse fill="#FDC92B" rx="1" ry="1" transform="matrix(13.375 0 0 13.271 128 81.768)" vector-effect="non-scaling-stroke"/><path fill="#EAB305" d="M128.768 91.768q-5.635 0-6.878-6.326h-2.57l1.105-2.542h1.133q-.028-.386-.028-1.077 0-.469.028-.801h-2.21l1.077-2.569h1.465q.607-2.956 2.361-4.82 1.755-1.865 4.793-1.865 2.763 0 5.166 1.74l-1.216 3.011q-1.933-1.657-3.95-1.657-2.817 0-3.757 3.591h6.906l-1.049 2.569h-6.216q-.027.332-.027.746 0 .773.027 1.132h5.497l-1.077 2.57h-4.005q.773 3.176 3.425 3.176 1.934 0 3.26-1.961l2.652 1.63q-2.072 3.453-5.912 3.453z"/></g><defs><filter id="e" width="93.799" height="93.536" x="81.1" y="39" filterUnits="userSpaceOnUse"><feGaussianBlur xmlns="http://www.w3.org/2000/svg" in="SourceGraphic" stdDeviation="4.294"/><feOffset xmlns="http://www.w3.org/2000/svg" dy="4" result="pf_100_offsetBlur"/><feFlood xmlns="http://www.w3.org/2000/svg" flood-opacity=".4"/><feComposite xmlns="http://www.w3.org/2000/svg" in2="pf_100_offsetBlur" operator="in" result="pf_100_dropShadow"/><feBlend xmlns="http://www.w3.org/2000/svg" in="SourceGraphic" in2="pf_100_dropShadow"/></filter></defs></svg>