<?xml version="1.0" standalone="no"?><!-- Generator: Gravit.io --><svg xmlns="http://www.w3.org/2000/svg" xmlns:xlink="http://www.w3.org/1999/xlink" style="isolation:isolate" viewBox="0 0 256 256" width="256" height="256"><defs><clipPath id="_clipPath_2bhVPmI2qLbqTZRbJPWGzWuYwQaD6O4w"><rect width="256" height="256"/></clipPath></defs><g clip-path="url(#_clipPath_2bhVPmI2qLbqTZRbJPWGzWuYwQaD6O4w)"><g id="Group"><g opacity="0.2"><path d=" M 165.685 11.718 C 239.74 11.718 250.324 22.276 250.324 96.262 L 250.324 155.513 C 250.324 229.499 239.74 240.057 165.685 240.057 L 90.315 240.057 C 16.26 240.057 5.676 229.499 5.676 155.513 L 5.676 96.262 C 5.676 22.276 16.26 11.718 90.315 11.718 L 165.685 11.718 Z " fill="none" vector-effect="non-scaling-stroke" stroke-width="4.077" stroke="rgb(0,0,0)" stroke-linejoin="round" stroke-linecap="round" stroke-miterlimit="4"/></g><defs><filter id="fapip5WKBnnqA2wbcFe5Enh3QfNgz1xw" x="-200%" y="-200%" width="400%" height="400%"><feGaussianBlur xmlns="http://www.w3.org/2000/svg" stdDeviation="2.32"/></filter></defs><g opacity="0.2" filter="url(#fapip5WKBnnqA2wbcFe5Enh3QfNgz1xw)"><path d=" M 165.685 13.757 C 239.74 13.757 250.324 24.314 250.324 98.301 L 250.324 157.552 C 250.324 231.538 239.74 242.095 165.685 242.095 L 90.315 242.095 C 16.26 242.095 5.676 231.538 5.676 157.552 L 5.676 98.301 C 5.676 24.314 16.26 13.757 90.315 13.757 L 165.685 13.757 Z " fill="rgb(0,0,0)"/></g><path d=" M 165.685 11.718 C 239.74 11.718 250.324 22.276 250.324 96.262 L 250.324 155.513 C 250.324 229.499 239.74 240.057 165.685 240.057 L 90.315 240.057 C 16.26 240.057 5.676 229.499 5.676 155.513 L 5.676 96.262 C 5.676 22.276 16.26 11.718 90.315 11.718 L 165.685 11.718 Z " fill="rgb(241,240,233)"/><g id="g918"><rect x="38" y="39.543" width="180" height="24.67" transform="matrix(-1,0,0,-1,256,103.757)" fill="rgb(234,84,32)"/><path d=" M 136.182 88.958 L 136.182 80.735 L 218 80.735 L 218 88.958 L 136.182 88.958 Z " fill="rgb(132,125,106)" fill-opacity="0.99738566"/><path d=" M 136.182 105.405 L 136.182 97.181 L 177.091 97.181 L 177.091 105.405 L 136.182 105.405 Z " fill="rgb(132,125,106)" fill-opacity="0.99738566"/><g opacity="0.5"><path d=" M 136.182 121.776 L 136.182 113.628 L 218 113.628 L 218 121.776 L 136.182 121.776 Z " fill="rgb(174,167,149)" fill-opacity="0.99607843"/></g><g opacity="0.5"><path d=" M 38 179.339 L 38 171.115 L 218 171.115 L 218 179.339 L 38 179.339 Z " fill="rgb(174,167,149)" fill-opacity="0.99607843"/></g><g opacity="0.5"><path d=" M 136.182 138.222 L 136.182 130.074 L 218 130.074 L 218 138.222 L 136.182 138.222 Z " fill="rgb(174,167,149)" fill-opacity="0.99607843"/></g><g opacity="0.5"><path d=" M 136.182 154.669 L 136.182 146.521 L 177.091 146.521 L 177.091 154.669 L 136.182 154.669 Z " fill="rgb(174,167,149)" fill-opacity="0.99607843"/></g><g opacity="0.5"><path d=" M 38 195.785 L 38 187.562 L 218 187.562 L 218 195.785 L 38 195.785 Z " fill="rgb(174,167,149)" fill-opacity="0.99607843"/></g><g opacity="0.5"><path d=" M 38 212.232 L 38 204.008 L 218 204.008 L 218 212.232 L 38 212.232 Z " fill="rgb(174,167,149)" fill-opacity="0.99607843"/></g></g><path d=" M 89.692 155.981 C 87.501 155.66 86.02 155.218 84.286 154.364 C 81.299 152.894 79.026 150.801 77.747 148.343 L 77.359 147.597 L 77.109 148.127 C 76.759 148.865 76.679 148.916 76.201 148.7 C 75.591 148.425 74.824 147.6 74.389 146.75 C 73.922 145.838 73.611 144.867 73.282 143.286 C 72.993 141.902 72.907 141.635 72.766 141.682 C 72.711 141.7 72.491 142.05 72.278 142.459 C 71.811 143.355 71.656 143.417 71.111 142.924 C 70.267 142.16 69.795 140.996 69.508 138.968 C 69.248 137.137 69.238 137.09 69.103 137.09 C 69.035 137.09 68.843 137.405 68.675 137.79 C 68.507 138.175 68.314 138.49 68.245 138.49 C 68.053 138.49 67.214 136.676 66.993 135.783 C 66.711 134.648 66.648 132.548 66.851 131.069 C 66.936 130.453 67.03 129.868 67.06 129.768 C 67.095 129.652 66.842 129.814 66.365 130.212 C 63.439 132.657 58.31 134.492 54.369 134.505 C 52.621 134.51 51.738 134.224 51.462 133.562 C 51.245 133.042 51.476 132.542 52.462 131.396 C 54.001 129.606 54.983 127.957 55.769 125.843 C 56.061 125.058 56.956 121.712 57.15 120.686 L 57.207 120.382 L 56.393 120.381 C 53.995 120.376 51.253 119.769 49.237 118.796 C 44.707 116.612 41.726 112.246 40.531 106.047 C 39.35 99.915 40.139 94.792 42.903 90.655 C 45.946 86.099 51.276 83.019 57.628 82.145 C 59.06 81.948 61.823 81.952 63.112 82.153 C 65.173 82.475 66.454 82.976 68.078 84.097 C 68.637 84.483 69.315 84.909 69.585 85.045 C 70.325 85.418 71.614 85.82 72.45 85.939 C 73.614 86.105 73.801 86.184 73.801 86.513 C 73.801 87.6 72.356 88.34 69.625 88.652 C 68.703 88.758 67.857 88.749 64.015 88.593 C 62.799 88.544 62.394 88.565 61.451 88.725 C 58.621 89.208 56.094 90.527 53.998 92.615 C 52.095 94.51 50.874 96.555 50.241 98.908 C 50.035 99.677 50.001 99.998 49.997 101.202 C 49.994 102.494 50.013 102.659 50.251 103.348 C 51.377 106.613 54.688 107.757 58.097 106.059 C 59.694 105.264 61.149 103.942 62.574 101.994 C 65.47 98.034 67.103 96.387 69.658 94.85 C 74.214 92.11 79.316 92.539 83.476 96.013 C 83.997 96.449 84.083 96.49 84.234 96.379 C 84.328 96.311 84.671 96.059 84.998 95.82 C 87.227 94.186 90 93.472 92.534 93.88 C 94.07 94.128 96.138 95.04 97.707 96.163 C 99.325 97.321 100.446 98.479 103.314 101.955 C 105.301 104.365 106.544 105.499 108.005 106.237 C 108.891 106.684 109.541 106.872 110.234 106.884 C 112.842 106.928 114.903 103.217 114.902 98.483 C 114.901 95.752 114.168 93.449 112.858 92.067 C 111.47 90.601 109.787 89.735 107.58 89.35 C 107.15 89.274 105.947 89.169 104.908 89.117 C 102.522 88.995 101.491 88.868 100.771 88.607 C 99.714 88.223 98.782 87.548 98.449 86.924 C 98.277 86.601 98.275 86.575 98.427 86.463 C 98.529 86.387 99.076 86.322 99.918 86.284 C 102.503 86.167 104.542 85.732 108.099 84.538 C 110.724 83.657 111.516 83.517 112.909 83.688 C 115.127 83.961 117.074 84.972 119.039 86.871 C 122.524 90.24 124.697 95.183 124.845 100.082 C 124.937 103.134 124.492 104.729 122.356 109 C 120.661 112.388 119.148 114.129 116.967 115.199 C 115.761 115.79 114.542 116.121 112.456 116.423 C 111.802 116.518 111.267 116.631 111.267 116.674 C 111.267 116.919 112.462 118.503 113.223 119.266 C 114.237 120.283 114.966 120.719 116.16 121.024 C 116.911 121.215 117.325 121.506 117.325 121.84 C 117.325 122.363 116.372 123.127 115.17 123.566 C 114 123.993 112.92 124.145 111.454 124.088 C 108.549 123.975 106.025 122.806 103.765 120.526 C 103.201 119.958 102.635 119.336 102.507 119.145 C 102.378 118.953 102.248 118.797 102.217 118.796 C 102.187 118.796 102.136 119.163 102.105 119.612 C 102.073 120.062 101.879 121.121 101.673 121.966 L 101.298 123.503 L 101.599 123.816 C 102.684 124.943 104.261 125.44 105.765 125.128 C 106.511 124.974 106.884 125.074 107.445 125.579 C 108.262 126.314 108.688 127.43 108.688 128.829 C 108.688 130.479 108.221 131.468 106.796 132.836 C 105.24 134.33 104.851 134.76 104.603 135.259 C 104.181 136.108 104.329 136.607 105.246 137.418 C 106.009 138.093 106.157 138.457 105.92 139.079 C 105.834 139.304 105.616 139.661 105.435 139.873 C 105.039 140.337 103.676 141.267 102.954 141.566 L 102.432 141.783 L 102.699 142.153 C 103.312 143.001 103.514 144.235 103.208 145.268 C 102.916 146.25 101.937 147.263 101.134 147.414 C 100.901 147.457 100.608 147.415 100.178 147.277 C 99.451 147.042 98.95 147.024 98.416 147.213 C 97.825 147.422 97.41 147.791 97.136 148.351 C 96.903 148.83 96.889 148.933 96.902 150.069 C 96.927 152.158 96.531 153.364 95.477 154.404 C 94.443 155.423 93.055 155.93 91.136 155.987 C 90.495 156.006 89.845 156.004 89.692 155.981 L 89.692 155.981 Z  M 91.396 152.514 C 90.551 150.85 90.479 149.713 91.13 148.32 C 91.448 147.641 92.204 146.828 92.805 146.521 C 93.782 146.022 95.68 145.771 98.499 145.769 C 101.185 145.768 101.984 145.474 102.234 144.395 C 102.342 143.928 102.136 143.218 101.761 142.764 C 101.597 142.566 101.208 142.287 100.85 142.111 C 100.239 141.81 100.2 141.803 99.013 141.807 C 97.801 141.811 97.799 141.812 96.402 142.291 C 94.622 142.901 94.001 143.008 92.636 142.941 C 91.334 142.878 90.73 142.723 89.505 142.138 C 87.295 141.084 85.229 138.959 84.519 137.011 C 84.282 136.362 84.203 135.943 84.23 135.48 C 84.248 135.168 84.411 135.32 84.782 135.993 C 86.213 138.59 88.564 140.708 90.722 141.344 C 91.372 141.535 92.437 141.554 93.233 141.389 C 93.541 141.325 94.608 141.045 95.605 140.767 C 96.603 140.489 97.777 140.192 98.215 140.107 C 99.08 139.939 100.826 139.893 101.947 140.008 C 103.187 140.136 103.962 139.68 103.942 138.833 C 103.931 138.334 103.673 137.837 103.067 137.145 C 102.527 136.529 102.413 136.297 102.413 135.806 C 102.413 135.043 103.04 134.313 105.294 132.448 C 106.612 131.358 107.05 130.394 106.958 128.783 C 106.902 127.805 106.639 127.144 106.117 126.672 L 105.742 126.333 L 105.126 126.407 C 104.788 126.448 104.154 126.484 103.718 126.486 C 103.034 126.489 102.852 126.453 102.379 126.224 C 100.916 125.514 99.492 123.57 98.641 121.123 C 98.17 119.768 97.568 118.67 96.273 116.8 C 94.625 114.423 94.515 114.169 94.817 113.446 C 94.893 113.262 94.983 112.752 95.017 112.311 C 95.051 111.87 95.108 111.491 95.144 111.469 C 95.18 111.446 95.31 111.583 95.433 111.773 C 95.786 112.317 95.949 112.358 96.942 112.15 C 98.182 111.889 99.289 111.946 100.037 112.309 C 100.344 112.458 100.634 112.598 100.68 112.62 C 100.897 112.724 100.628 111.354 100.142 109.875 C 99.853 108.999 99.617 108.168 99.617 108.029 C 99.617 107.452 100.211 107.698 100.927 108.572 C 101.774 109.606 102.065 110.291 102.749 112.869 C 103.546 115.871 104.154 117.37 105.066 118.584 C 105.851 119.631 106.297 119.78 106.955 119.216 C 107.165 119.036 107.374 118.889 107.42 118.889 C 107.466 118.889 107.922 119.299 108.433 119.799 C 109.858 121.195 110.84 121.688 112.339 121.758 C 112.989 121.789 113.22 121.766 113.364 121.657 C 113.546 121.52 113.544 121.514 113.271 121.414 C 112.311 121.061 111.403 120.204 110.423 118.726 C 109.677 117.603 108.369 114.988 107.631 113.149 C 106.684 110.787 105.822 109.365 104.489 107.962 C 102.303 105.661 100.062 104.591 97.427 104.59 C 96.005 104.59 95.37 104.761 93.89 105.543 C 92.456 106.301 91.774 106.557 90.996 106.63 C 90.229 106.701 89.633 106.529 87.433 105.599 C 83.812 104.069 82.099 103.643 79.533 103.634 C 77.799 103.627 77.511 103.703 74.393 104.986 C 73.154 105.496 71.749 106.02 71.27 106.151 C 67.936 107.064 66.384 107.892 64.572 109.729 C 61.776 112.562 60.295 116.376 59.681 122.327 C 59.46 124.472 59.023 125.645 57.47 128.269 C 57.136 128.834 56.771 129.478 56.659 129.7 C 56.108 130.79 56.817 130.826 58.941 129.817 C 60.801 128.933 61.679 128.195 62.886 126.499 C 63.953 125.001 64.143 124.904 64.614 125.616 C 65.058 126.287 65.134 126.174 65.831 123.814 C 66.298 122.232 66.764 121.193 67.028 121.144 C 67.121 121.127 67.275 121.183 67.37 121.269 C 67.475 121.365 67.616 121.403 67.728 121.367 C 68.038 121.269 68.647 120.527 69.009 119.806 C 69.803 118.228 70.046 117.213 70.169 114.969 C 70.271 113.103 70.536 111.94 71.136 110.722 C 72.111 108.743 74.042 107.416 76.191 107.248 C 77.016 107.184 77.343 107.256 77.343 107.502 C 77.343 107.726 77.07 107.912 76.401 108.143 C 75.569 108.429 75.174 108.669 74.7 109.178 C 73.857 110.08 73.5 111.196 73.282 113.616 C 72.701 120.059 72.589 120.618 71.362 123.206 L 70.776 124.443 L 70.784 125.516 C 70.793 126.705 70.95 127.336 71.237 127.336 C 71.343 127.336 71.546 127.1 71.799 126.683 C 72.278 125.89 72.886 125.236 73.142 125.236 C 73.407 125.236 73.478 125.606 73.349 126.311 C 73.118 127.562 73.293 129.671 73.852 132.388 C 74.232 134.234 74.71 135.783 74.9 135.783 C 74.947 135.783 75.136 135.478 75.323 135.106 C 75.927 133.898 76.88 132.766 77.152 132.934 C 77.206 132.967 77.249 133.133 77.249 133.302 C 77.249 133.472 77.397 134.446 77.577 135.467 C 78.767 142.222 80.577 146.412 83.489 149.156 C 85.179 150.747 87.401 151.87 89.785 152.336 C 91.075 152.588 91.455 152.63 91.396 152.514 L 91.396 152.514 Z  M 92.594 132.913 C 92.569 132.823 92.52 132.572 92.487 132.355 C 92.41 131.859 92.092 131.379 91.764 131.263 C 91.551 131.188 91.449 131.221 91.09 131.479 C 90.857 131.647 90.535 131.821 90.374 131.867 C 89.433 132.138 88.093 131.003 88.291 130.102 C 88.487 129.207 90.219 128.662 91.302 129.155 C 92.207 129.566 93.466 131.348 93.466 132.219 C 93.466 132.78 92.723 133.371 92.594 132.913 L 92.594 132.913 Z  M 87.044 132.264 C 86.178 131.213 85.938 129.124 86.536 127.845 C 87.256 126.303 89.097 125.331 91.064 125.453 C 92.993 125.573 95.17 126.724 97.245 128.723 C 97.96 129.412 98.034 129.515 98.034 129.833 C 98.033 130.501 97.407 130.774 96.857 130.347 C 96.709 130.233 96.106 129.703 95.517 129.17 C 92.785 126.703 90.995 126.046 89.22 126.86 C 87.68 127.566 86.983 129.385 87.321 131.819 C 87.376 132.213 87.402 132.554 87.379 132.577 C 87.355 132.6 87.205 132.459 87.044 132.264 L 87.044 132.264 Z  M 81.574 117.965 C 80.717 117.442 80.207 116.574 80.153 115.547 C 80.108 114.681 80.296 114.158 80.875 113.539 C 81.369 113.009 81.95 112.69 82.77 112.496 C 83.414 112.344 84.926 112.314 85.478 112.442 C 85.787 112.514 85.847 112.499 85.96 112.323 C 86.031 112.213 86.139 111.86 86.201 111.539 C 86.269 111.191 86.362 110.955 86.432 110.955 C 86.567 110.955 86.608 111.1 86.758 112.117 C 86.834 112.634 86.935 112.947 87.091 113.153 C 87.449 113.622 87.355 114.234 86.899 114.408 C 86.731 114.471 86.511 114.417 85.949 114.171 C 85.106 113.802 84.607 113.76 84.333 114.036 C 83.951 114.418 84.222 115.156 84.744 115.156 C 85.108 115.156 85.278 115.052 85.403 114.754 L 85.52 114.474 L 85.636 114.825 C 85.855 115.49 85.569 116.29 84.963 116.711 C 84.637 116.937 84.491 116.976 83.961 116.976 C 83.453 116.976 83.278 116.933 82.996 116.742 C 82.627 116.492 82.189 115.741 82.189 115.358 C 82.189 114.928 82.406 114.406 82.72 114.082 C 83.014 113.779 83.019 113.763 82.798 113.848 C 82.021 114.144 81.514 114.638 81.345 115.267 C 81.164 115.942 81.42 116.845 82.001 117.58 C 82.155 117.776 82.282 117.982 82.282 118.039 C 82.282 118.2 81.892 118.16 81.574 117.965 L 81.574 117.965 Z  M 100.641 122.019 C 100.69 121.892 100.856 120.915 101.012 119.846 C 101.519 116.37 101.357 114.842 100.4 114.052 C 100.117 113.818 99.564 113.547 99.75 113.732 C 99.781 113.764 99.68 113.843 99.525 113.908 C 98.822 114.204 99.062 115.212 99.818 115.139 C 100.043 115.117 100.179 115.027 100.331 114.8 L 100.539 114.49 L 100.602 114.829 C 100.826 116.024 100.06 117.022 98.918 117.022 C 97.94 117.022 97.194 116.267 97.194 115.275 C 97.194 114.45 97.82 113.702 98.604 113.589 L 99.012 113.53 L 98.592 113.463 C 98.362 113.426 97.837 113.393 97.427 113.389 C 96.581 113.382 96.12 113.552 95.897 113.954 C 95.649 114.403 95.935 114.888 97.22 116.193 C 98.534 117.527 98.755 117.904 99.295 119.729 C 99.832 121.549 100.146 122.249 100.423 122.249 C 100.495 122.249 100.593 122.146 100.641 122.019 L 100.641 122.019 Z  M 51.477 115.459 C 51.28 114.988 50.878 113.713 50.776 113.232 C 50.594 112.376 50.606 111.184 50.798 110.992 C 51.042 110.747 51.372 110.941 52.269 111.856 C 54.135 113.759 55.558 114.459 57.785 114.567 L 58.872 114.62 L 59.402 113.797 C 62.103 109.604 65.583 106.569 69.188 105.261 C 70.257 104.873 70.696 104.651 70.809 104.44 C 70.938 104.199 70.843 104.098 70.117 103.7 C 69.761 103.505 69.456 103.279 69.441 103.197 C 69.361 102.785 71.655 102.254 74.826 101.95 C 76.536 101.787 76.971 101.723 76.967 101.635 C 76.966 101.602 76.622 101.407 76.202 101.202 C 74.994 100.61 74.947 100.292 76.02 99.973 C 76.734 99.761 78.748 99.765 79.952 99.98 C 81.888 100.327 84.017 101.224 86.241 102.631 C 89.225 104.519 89.733 104.778 90.849 104.98 C 92.082 105.204 93.167 104.732 94.716 103.297 C 95.97 102.135 96.66 101.759 97.103 101.996 C 97.244 102.072 97.287 102.192 97.287 102.506 C 97.287 102.733 97.34 102.951 97.404 102.993 C 97.468 103.034 98.165 103.068 98.954 103.068 C 100.488 103.068 100.379 103.037 100.621 103.544 C 100.66 103.626 100.985 103.787 101.343 103.902 C 102.101 104.145 102.993 104.584 103.718 105.072 C 104.458 105.568 104.507 105.594 104.415 105.44 C 102.925 102.929 99.981 99.544 97.986 98.046 C 97.021 97.322 95.373 96.473 94.491 96.247 C 93.626 96.025 92.278 96.044 91.509 96.289 C 90.808 96.512 89.881 97.038 89.568 97.391 C 89.375 97.608 89.367 97.65 89.493 97.776 C 89.619 97.902 89.702 97.893 90.269 97.694 C 90.79 97.51 91.087 97.47 91.928 97.469 C 93.59 97.468 93.715 97.659 92.259 97.976 C 90.662 98.324 89.582 99.024 88.972 100.105 C 88.82 100.375 88.678 100.595 88.658 100.595 C 88.637 100.595 88.364 100.388 88.051 100.135 C 85.074 97.733 82.019 96.151 79.174 95.537 C 78.408 95.372 77.935 95.335 76.69 95.339 C 75.279 95.344 75.06 95.368 74.034 95.635 C 72.576 96.015 70.834 96.871 69.562 97.832 C 67.851 99.127 66.164 100.943 64.136 103.675 C 62.274 106.184 60.133 107.855 57.766 108.647 C 55.639 109.359 53.718 109.186 52.119 108.141 C 51.175 107.524 50.93 107.409 50.564 107.409 C 50.165 107.409 50.067 107.525 49.934 108.162 C 49.876 108.441 49.797 108.703 49.758 108.745 C 49.572 108.945 48.734 107.659 48.413 106.68 C 48.046 105.56 47.953 104.808 48.014 103.448 C 48.163 100.07 49.549 96.809 52.276 93.415 C 53.193 92.273 54.741 90.786 55.632 90.191 C 56.641 89.518 56.745 89.41 56.745 89.048 C 56.745 88.787 56.657 88.65 56.233 88.25 C 55.951 87.984 55.72 87.737 55.72 87.7 C 55.72 87.589 55.992 87.536 57.351 87.385 C 58.069 87.305 59.746 87.215 61.079 87.185 C 63.668 87.126 64.885 87.2 66.898 87.541 C 68.329 87.783 70.375 87.752 71.141 87.477 L 71.603 87.31 L 70.82 87.103 C 70.277 86.959 69.321 86.534 67.702 85.718 C 65.083 84.396 64.345 84.151 62.462 83.976 C 61.48 83.884 59.038 83.988 58.899 84.127 C 58.876 84.15 59.032 84.319 59.246 84.502 C 59.46 84.686 59.635 84.911 59.635 85.004 C 59.635 85.37 59.494 85.401 56.619 85.66 C 54.601 85.841 52.057 86.501 50.378 87.278 C 49.141 87.85 49.143 87.87 50.426 87.824 C 51.657 87.78 52.437 87.9 52.681 88.17 C 52.821 88.325 52.82 88.349 52.667 88.488 C 52.576 88.57 51.894 88.854 51.152 89.118 C 47.568 90.392 45.915 91.584 44.616 93.828 C 43.451 95.84 42.485 99.602 42.486 102.121 C 42.487 104.35 43.129 107.113 44.276 109.835 C 44.637 110.69 45.181 111.702 45.28 111.702 C 45.307 111.702 45.314 111.261 45.297 110.722 C 45.246 109.153 45.62 107.71 46.173 107.348 C 46.5 107.134 46.658 107.364 46.953 108.482 C 47.64 111.093 48.74 113.28 50.029 114.596 C 50.802 115.385 51.662 115.897 51.477 115.459 L 51.477 115.459 Z  M 115.681 111.863 C 116.365 111.538 117.219 110.907 117.782 110.311 C 117.956 110.126 118.491 109.483 118.97 108.881 C 119.885 107.732 120.206 107.443 120.46 107.54 C 120.588 107.59 120.603 107.688 120.553 108.134 C 120.52 108.428 120.466 108.942 120.433 109.275 L 120.373 109.882 L 120.587 109.695 C 121.184 109.173 122.518 106.656 123.055 105.037 C 123.608 103.368 123.787 102.064 123.728 100.128 C 123.671 98.281 123.47 97.216 122.872 95.601 C 121.725 92.503 119.433 89.569 116.71 87.713 C 114.824 86.427 113.223 85.83 111.64 85.823 C 110.841 85.819 110.673 85.851 109.916 86.15 C 108.138 86.852 105.951 87.286 102.926 87.538 L 101.528 87.655 L 101.947 87.842 C 102.318 88.008 102.656 88.038 104.837 88.098 C 107.369 88.168 108.171 88.249 109.42 88.562 C 111.155 88.997 113.108 89.861 114.602 90.855 C 115.561 91.492 116.855 92.747 117.416 93.584 C 118.216 94.777 118.91 96.592 118.91 97.49 C 118.91 97.846 118.887 97.888 118.69 97.888 C 118.566 97.888 118.285 97.725 118.047 97.515 C 117.527 97.057 117.404 97.042 117.481 97.445 C 117.56 97.858 118.252 99.885 118.685 100.968 C 119.014 101.792 119.04 101.924 119.044 102.835 C 119.048 103.572 119.007 103.925 118.879 104.259 C 118.651 104.851 118.455 104.84 118.117 104.217 C 117.972 103.95 117.638 103.509 117.374 103.237 C 116.641 102.478 116.484 102.547 116.151 103.775 C 116.02 104.259 115.708 105.089 115.457 105.619 C 114.674 107.272 113.464 108.259 111.884 108.534 C 110.733 108.734 109.13 108.448 107.655 107.778 L 107.032 107.495 L 107.309 107.786 C 107.72 108.219 108.633 108.887 109.216 109.181 C 110.335 109.747 110.887 109.859 112.851 109.919 L 114.667 109.975 L 114.796 110.244 C 114.962 110.592 114.827 111.09 114.383 111.771 C 114.207 112.039 114.063 112.298 114.063 112.346 C 114.063 112.478 114.936 112.218 115.681 111.863 L 115.681 111.863 Z " fill="rgb(197,194,183)"/><g opacity="0.5"><linearGradient id="_lgradient_3" x1="51.666666666666686%" y1="0%" x2="51.66666666666666%" y2="100.00000000000003%"><stop offset="0%" stop-opacity="1" style="stop-color:rgb(255,255,255)"/><stop offset="12.5%" stop-opacity="0.09803922" style="stop-color:rgb(255,255,255)"/><stop offset="92.500001%" stop-opacity="0.09803922" style="stop-color:rgb(0,0,0)"/><stop offset="100%" stop-opacity="0.49803922" style="stop-color:rgb(0,0,0)"/></linearGradient><path d=" M 165.685 11.718 C 239.74 11.718 250.324 22.275 250.324 96.262 L 250.324 155.513 C 250.324 229.499 239.74 240.057 165.685 240.057 L 90.315 240.057 C 16.26 240.057 5.676 229.499 5.676 155.513 L 5.676 96.262 C 5.676 22.275 16.26 11.718 90.315 11.718 L 165.685 11.718 Z " fill="none" vector-effect="non-scaling-stroke" stroke-width="4.077" stroke="url(#_lgradient_3)" stroke-linejoin="round" stroke-linecap="round" stroke-miterlimit="4"/></g><g opacity="0.05"><path d=" M 90.315 11.718 C 16.26 11.718 5.676 22.276 5.676 96.262 L 5.676 155.513 C 5.676 229.499 16.26 240.057 90.315 240.057 L 128 240.057 L 128 162.637 L 128 89.139 L 128 11.718 L 90.315 11.718 Z " fill="rgb(2,23,31)"/></g></g></g></svg>