<svg xmlns="http://www.w3.org/2000/svg" style="isolation:isolate" width="256" height="256"><switch><g><defs><filter id="a" width="270.648" height="254.338" x="-6.66" y="4.28" filterUnits="userSpaceOnUse"><feGaussianBlur xmlns="http://www.w3.org/2000/svg" in="SourceGraphic" stdDeviation="4.294"/><feOffset xmlns="http://www.w3.org/2000/svg" dy="4" result="pf_100_offsetBlur"/><feFlood xmlns="http://www.w3.org/2000/svg" flood-opacity=".4"/><feComposite xmlns="http://www.w3.org/2000/svg" in2="pf_100_offsetBlur" operator="in" result="pf_100_dropShadow"/><feBlend xmlns="http://www.w3.org/2000/svg" in="SourceGraphic" in2="pf_100_dropShadow"/></filter></defs><path fill="#D06C48" d="M166.351 13.28c74.056 0 84.64 10.557 84.64 84.544v59.251c0 73.986-10.584 84.544-84.64 84.544H90.982c-74.056 0-84.639-10.558-84.639-84.544V97.824c0-73.987 10.583-84.544 84.639-84.544h75.369z" filter="url(#a)"/><path fill="#FFF" d="M103.504 162.96c-1.692 7.788 1.542 17.194 3.259 24.584.871 3.807 1.991 8.485 4.852 10.873 1.667 1.443 3.608 1.916 5.599 2.041 4.006.199 7.887 1.194 9.977-4.081.573-1.418 1.593-3.782 3.135-2.389 1.419 1.319.921 3.608 2.563 4.877 5.076 3.832 13.113 2.588 15.9-4.429 3.16-8.012 3.882-16.198 5.275-24.658l-6.942-11.123-19.383-5.722-24.235 10.027z"/><g fill="#2F2F2F"><path d="M68.395 98.316c-.025 12.79-8.186 23.091-18.089 23.066-9.953-.099-18.015-10.475-17.965-23.339.099-12.765 8.211-23.116 18.164-23.041 9.903.05 17.965 10.525 17.89 23.314zM187.605 98.316c.025 12.79 8.161 23.091 18.089 23.066 9.953-.099 18.015-10.475 17.965-23.339-.099-12.765-8.236-23.116-18.164-23.041-9.928.05-17.965 10.525-17.89 23.314z"/></g><path fill="#2F2F2F" d="M178.05 157.884c-2.314-4.503-9.007-.621-12.515.298-2.563.647-5.325.448-8.037.448-5.275 0-10.675-.274-15.601-2.339-1.767-.747-4.255-1.916-5.375-3.608-3.483-5.151 1.02-15.999-5.573-19.184-3.658-1.767-7.714.075-8.535 3.633-.348 1.567-.647 3.359-.597 4.976.099 1.667-.274 2.737-.523 4.429-.174 1.194-.174 2.065-.547 3.11-.597 1.717-2.065 3.708-3.658 4.827-3.633 2.588-7.713 4.156-12.018 4.952-4.628.821-9.604.572-13.984-.697-3.01-.871-6.32-3.832-9.405-3.856-2.837-.031-4.504 2.438-4.305 5.051.498 6.145 6.768 8.186 11.745 9.753 7.39 2.314 15.7 2.339 23.041-.273 4.453-1.593 9.106-3.658 13.909-4.479 4.702-.797 7.439 1.244 11.744 2.438 4.728 1.344 9.181 3.26 14.108 3.807 5.076.572 10.276.031 15.178-1.493 3.956-1.244 12.74-4.329 11.521-10.176a7.678 7.678 0 0 0-.573-1.618v.001z"/><path fill="#2F2F2F" d="M107.734 118.62c-4.853-.03-7.888 1.842-4.653 8.709 6.693 14.183 25.678 20.627 39.139 12.192 2.19-1.368 5.026-2.961 6.868-4.752 2.289-2.19 3.906-5.972 4.951-8.908 1.319-3.608 1.543-8.41-3.16-9.231-3.682-.647-7.34 2.388-10.799 3.209-4.603 1.145-10.351 1.643-15.078 1.643-2.862.03-11.347-2.812-17.268-2.862z"/><g opacity=".1"><path fill="#FFF" d="M249.643 83.58L44.234 236.61c11.562 2.311 26.426 3.019 45.523 3.019h75.37c74.055 0 84.639-10.558 84.639-84.544V95.834c0-4.303-.041-8.37-.123-12.254z"/></g><g opacity=".4"><linearGradient id="b" x1=".517" x2=".517" y2="1"><stop offset="0%" stop-color="#fff"/><stop offset="12.5%" stop-opacity=".098" stop-color="#fff"/><stop offset="92.5%" stop-opacity=".098"/><stop offset="100%" stop-opacity=".498"/></linearGradient><path fill="none" stroke="url(#b)" stroke-linecap="round" stroke-linejoin="round" stroke-width="4.077" d="M165.685 11.947c74.055 0 84.639 10.557 84.639 84.544v59.251c0 73.986-10.584 84.543-84.639 84.543h-75.37c-74.055 0-84.639-10.557-84.639-84.543V96.491c0-73.987 10.584-84.544 84.639-84.544h75.37z" vector-effect="non-scaling-stroke"/></g></g></switch> </svg>