<svg xmlns="http://www.w3.org/2000/svg" style="isolation:isolate" width="256" height="256"><defs><clipPath id="a"><path d="M0 0h256v256H0z"/></clipPath></defs><switch><g clip-path="url(#a)"><defs><filter id="b" width="270.648" height="254.338" x="-7.32" y="2.95" filterUnits="userSpaceOnUse"><feGaussianBlur xmlns="http://www.w3.org/2000/svg" in="SourceGraphic" stdDeviation="4.294"/><feOffset xmlns="http://www.w3.org/2000/svg" dy="4" result="pf_100_offsetBlur"/><feFlood xmlns="http://www.w3.org/2000/svg" flood-opacity=".4"/><feComposite xmlns="http://www.w3.org/2000/svg" in2="pf_100_offsetBlur" operator="in" result="pf_100_dropShadow"/><feBlend xmlns="http://www.w3.org/2000/svg" in="SourceGraphic" in2="pf_100_dropShadow"/></filter></defs><path fill="#333" d="M165.685 11.947c74.055 0 84.639 10.557 84.639 84.544v59.251c0 73.986-10.584 84.543-84.639 84.543h-75.37c-74.055 0-84.639-10.557-84.639-84.543V96.491c0-73.987 10.584-84.544 84.639-84.544h75.37z" filter="url(#b)"/><g opacity=".4"><linearGradient id="c" x1=".517" x2=".517" y2="1"><stop offset="0%" stop-color="#fff"/><stop offset="12.5%" stop-opacity=".098" stop-color="#fff"/><stop offset="92.5%" stop-opacity=".098"/><stop offset="100%" stop-opacity=".498"/></linearGradient><path fill="none" stroke="url(#c)" stroke-linecap="round" stroke-linejoin="round" stroke-width="4.077" d="M165.685 11.947c74.055 0 84.639 10.557 84.639 84.544v59.251c0 73.986-10.584 84.543-84.639 84.543h-75.37c-74.055 0-84.639-10.557-84.639-84.543V96.491c0-73.987 10.584-84.544 84.639-84.544h75.37z" vector-effect="non-scaling-stroke"/></g><path fill="#EAB305" d="M174.407 99.384a9.784 9.784 0 0 0-9.627 8.061c.193.003.497 0 .687.003 2.456.041 2.592.127 4.3.185a4.891 4.891 0 0 1 8.101-1.926 4.892 4.892 0 0 1-3.461 8.351 4.885 4.885 0 0 1-2.568-.735c-.243.246-.206.23-.458.485-1.19 1.201-1.859 1.99-2.943 3.103a9.785 9.785 0 0 0 5.969 2.04 9.783 9.783 0 0 0 9.784-9.784c0-5.403-4.38-9.784-9.784-9.784v.001z"/><path fill="#EAB305" d="M174.407 83.076c-13.697 0-25.062 10.592-26.026 24.255 1.176.003 2.136.018 3.287.024.944-11.861 10.841-21.008 22.739-21.017a22.826 22.826 0 0 1 22.832 22.831 22.827 22.827 0 0 1-22.832 22.829 22.827 22.827 0 0 1-14.96-5.605c-.234.26-.606.622-.834.879-.497.558-.816 1.029-1.289 1.572a26.094 26.094 0 0 0 17.083 6.416 26.093 26.093 0 1 0 0-52.184z"/><path fill="#FFF" d="M136.319 190.545c-3.605-.338-10.631-1.585-10.998-1.952-.242-.242.349-.878 1.092-1.176.439-.175 1.665-.451 2.726-.614 7.052-1.078 9.831-2.728 11.006-6.533.846-2.739 1.406-12.233 1.378-23.356-.022-8.714-.201-12.172-.736-14.227-.152-.585-.253-1.087-.224-1.116.029-.027.525.074 1.102.229 1.104.297 2.782.229 3.473-.141.208-.111.422-.159.476-.105.053.053-.044.717-.216 1.474-.468 2.056-.668 6.325-.673 14.37-.007 9.211.544 19.634 1.176 22.274.25 1.047.928 2.46 1.604 3.347 1.312 1.719 4.435 3.003 9.034 3.713 2.734.422 4.058.875 4.395 1.504.187.351.136.411-.509.59-1.496.416-5.391 1.155-7.687 1.458-2.777.366-13.482.536-16.419.261zm5.793-49.446c-1.602-.321-2.227-.817-3.894-3.09-4.533-6.179-9.579-11.892-19.397-21.957-3.204-3.285-5.905-6.119-6.003-6.298-.136-.248-.081-.379.23-.545 1.408-.753 58.683-.757 60.091-.003.226.12.41.32.41.443s-2.131 2.375-4.735 5.005c-9.531 9.625-15.185 15.976-20.151 22.633-1.76 2.359-2.211 2.844-3.052 3.28-1.119.58-2.336.765-3.499.533v-.001z" opacity=".75"/><path fill="#9C4B4B" d="M142.112 141.099c-1.602-.321-2.227-.817-3.894-3.09-4.533-6.179-9.579-11.892-19.397-21.958-3.204-3.284-5.905-6.118-6.003-6.297-.136-.248-.081-.379.23-.545 1.408-.753 58.683-.757 60.091-.003.226.12.41.32.41.443 0 .122-2.131 2.375-4.735 5.005-9.531 9.625-15.185 15.975-20.151 22.633-1.76 2.359-2.211 2.844-3.052 3.28-1.189.452-2.446.729-3.499.532z"/><path fill="#EAB305" d="M82.334 188.966c-3.727-.949-6.653-2.256-8.537-3.814-.951-.786-1.753-1.545-1.783-1.686-.029-.141.531-.533 1.245-.871 1.626-.77 4.7-3.307 6.533-5.392 1.609-1.83 4.816-6.813 5.968-9.274.434-.926 1.277-2.655 1.873-3.842 1.205-2.398 5.764-12.831 6.125-14.016l.231-.755 4.151.224c4.687.255 9.305.657 9.291.811-.006.056-.491.988-1.08 2.07-.588 1.082-1.665 3.449-2.393 5.26a401.08 401.08 0 0 1-2.296 5.587 108.836 108.836 0 0 0-1.996 5.212c-1.534 4.372-4.472 11.153-5.646 13.032-2.045 3.272-4.728 6.1-7.147 7.534-1.156.684-1.568.677-4.539-.08zm12.371-.545c3.122-3.428 6.022-9.101 9.243-18.078 1.922-5.359 5.47-13.77 7.092-16.813l1.493-2.803 1.771.166c.974.091 3.143.37 4.82.619l3.048.452-.527 3.991c-.795 6.021-2.405 12.139-4.455 16.933-1.747 4.086-5.295 9.488-7.51 11.435-1.399 1.229-5.035 3.26-7.406 4.136-1.928.712-7.443 1.777-8.672 1.675-.311-.027-.019-.481 1.103-1.713zm-27.867-10.825c-.67-1.023-1.214-1.908-1.209-1.966.006-.058.518-.115 1.138-.127 1.728-.03 3.672-.902 5.836-2.611 2.189-1.727 3.145-3.144 3.876-5.741.915-3.253.447-8.174-.998-10.492-1.099-1.763-3.019-3.319-4.934-3.998-2.026-.719-5.289-.688-7.461.07-.794.277-1.486.5-1.538.495-.357-.034.905-6.36 1.364-6.841.301-.315 13.258.846 22.019 1.972l4.508.579-2.815 6.391c-1.548 3.515-3.534 7.85-4.413 9.632-4.203 8.524-9.113 13.774-13.466 14.399-.619.089-.81-.087-1.907-1.762zm3.448-10.288c.243-2.873-.731-4.7-2.95-5.53-1.336-.499-3.535-.482-4.933.039-1.213.452-1.518.296-1.436-.735.022-.274 0-.729-.048-1.012-.117-.687 2.056-2.573 3.522-3.057 1.702-.561 3.809-.533 5.027.068 2.099 1.036 2.993 2.923 2.982 6.293-.007 2.119-.688 4.185-1.702 5.162l-.616.593.154-1.821zm3.151-24.707c-8.493-.862-9.139-.958-9.094-1.359.115-1.042 2.13-5.729 3.423-7.964l1.413-2.441 12.896 1.21c7.427.697 12.887 1.304 12.875 1.432-.035.375-3.346 9.586-3.699 10.29l-.33.66-4.171-.451a3069.43 3069.43 0 0 0-13.313-1.378v.001zm22.47 2.091c.014-.153.871-2.661 1.904-5.573a719.507 719.507 0 0 0 1.882-5.338c.002-.024 3.173.215 7.045.533 7.021.577 7.046.577 8.973.053a93.272 93.272 0 0 1 2.332-.613c.275-.059.571.317.954 1.21.305.713.545 1.398.534 1.523-.012.125-.405.327-.874.448-1.507.391-4.797 3.404-6.926 6.344l-1.934 2.671-4.516-.422c-2.484-.233-5.615-.453-6.958-.49-1.733-.047-2.435-.148-2.416-.346zm21.595 2.043c-1.194-.158-2.165-.352-2.157-.431.047-.501 2.243-3.008 3.488-3.983 1.574-1.231 2.125-1.375 2.436-.633.186.447 1.059 5.125 1.025 5.496-.01.103-.603.108-1.32.013-.716-.094-2.279-.303-3.472-.461v-.001zm-44.87-21.145c2.28-3.337 6.484-6.892 10.119-8.556 3.419-1.566 8.497-2.465 12.011-2.127 4.258.41 6.585 1.168 10.614 3.456l2.95 1.675-1.297.292c-3.296.743-6.946 3.555-8.923 6.876l-1.027 1.727-12.561-1.179-12.56-1.179.674-.985zm29.502 3.588c.034-.356 2.047-2.379 3.191-3.207.57-.413 1.42-.87 1.888-1.016 1.007-.314 4.094-.069 5.748.456 1.047.333 1.279.552 2.214 2.094.574.948.968 1.824.874 1.948-.093.124-.927.384-1.851.577-1.462.305-2.362.287-6.883-.137-2.96-.278-5.193-.586-5.181-.714v-.001z"/><path fill="#46A926" d="M102.646 116.709c-.708-.427-.656-.711.694-3.798 2.537-5.805 5.622-9.847 10.095-13.229 3.788-2.864 7.45-4.551 12.495-5.757l2.582-.617-2.251-.101c-2.873-.129-6.048.468-9.548 1.796-4.943 1.875-7.945 5.052-14.086 14.902-1.623 2.604-2.83 3.829-3.693 3.748-.983-.092-1.497-.583-1.707-1.632l-.196-.979-.638.528c-1.282 1.063-2.413.43-3.223-1.803-.794-2.188-2.501-9.974-3.607-16.457-1.181-6.919-1.541-9.675-1.807-13.857-.322-5.054-.463-5.99-.824-5.467-.392.568-.711 7.055-.484 9.829.289 3.526.674 5.135 4.567 19.049.605 2.162.477 4.526-.282 5.221-.648.594-1.952.516-2.603-.155-.258-.266-1.259-1.97-2.224-3.787-2.732-5.147-4.827-7.358-9.29-9.806-2.337-1.282-3.836-1.723-6.793-2.001-3.871-.363-7.617.247-9.549 1.555l-.667.452 1.104.242c.608.133 2.108.394 3.333.581 4.522.688 10.003 2.697 13.456 4.93 3.74 2.419 7.336 6.998 9.016 11.482.845 2.256.751 2.843-.484 3.033-.947.145-1.313-.227-2.177-2.215-2.282-5.251-5.529-8.932-9.825-11.138-3.828-1.966-8.524-3.294-13.22-3.74-3.874-.365-4.753-.697-5.137-1.928-.262-.841-.244-1.018.172-1.714.574-.96 3.041-2.588 5.122-3.379 2.828-1.075 4.435-1.212 9.113-.773 4.393.412 5.119.626 8.766 2.584.394.212.419.176.213-.315-.516-1.227-3.224-3.409-8.156-6.573-2.823-1.81-5.35-3.582-5.616-3.938-.525-.701-.413-1.46.319-2.161.62-.594 5.786-.081 8.322.827 3.937 1.41 7.968 4.828 9.74 8.258.368.711.715 1.256.771 1.209.055-.046-.015-.65-.157-1.343-.682-3.317-.822-6.807-.446-11.07.418-4.735.777-5.981 2.017-7.008.565-.469 1.016-.619 1.676-.557 1.831.172 2.522 2.165 2.876 8.307.108 1.875.318 4.486.465 5.804.393 3.501 2.441 15.135 3.398 19.296.801 3.481.835 3.563 1.088 2.613.144-.539.537-3.049.873-5.578l.611-4.598-1.061-.342c-.848-.273-1.074-.468-1.126-.975-.037-.349-.245-.958-.463-1.355-.426-.776-.895-6.013-.949-10.601-.017-1.501.232-4.977.574-7.983.543-4.785.674-5.462 1.297-6.696 1.652-3.272 4.231-2.85 5.254.859.42 1.52.416 1.935-.056 6.969-.276 2.944-.664 6.185-.862 7.202l-.359 1.85.816-2.01c.997-2.454 1.696-3.577 2.703-4.345 1.643-1.253 3.273-.747 3.872 1.2.251.815.285 2.046.128 4.652-.239 3.974-.675 6.054-2.191 10.436-.558 1.613-1.019 3.011-1.024 3.106-.005.095.598-1.023 1.339-2.484 2.821-5.562 5.591-9.176 9.583-12.505 3.503-2.92 5.479-3.658 6.422-2.396 1.138 1.521.002 3.573-5.661 10.226-1.681 1.974-3.02 3.634-2.975 3.688.044.055.542-.155 1.105-.465 2.444-1.346 7.628-2.829 10.844-3.101 2.326-.198 5.125.041 6.002.512.941.505 1.65 1.845 1.548 2.927-.124 1.32-1.228 2-4.29 2.643-3.506.736-6.038 1.631-8.655 3.059-2.533 1.383-5.83 3.972-7.64 5.999-2.066 2.315-4.354 6.228-5.674 9.707-.33.867-.727 1.648-.883 1.735-.397.22-1.18.097-1.812-.285v.001zm-1.503-10.141c-.071-.143.095-.831.368-1.529.325-.829.46-1.577.388-2.158l-.109-.889-.39 1.219c-.215.671-.538 2.053-.72 3.072-.317 1.781-.312 1.827.131 1.199.254-.359.403-.771.332-.914zM86.257 96.221c-1.269-4.534-1.29-4.582-1.516-3.489l-.23 1.109-1.123-.024c-.618-.013-1.21.089-1.315.228-.109.143.407.799 1.188 1.509 1.336 1.215 4.031 4.793 3.984 5.289-.013.134.05.184.138.111.089-.073-.418-2.202-1.126-4.731v-.002zm14.396.622c.946-2.681 1.986-5.845 2.31-7.033.592-2.173 1.181-7.396.967-8.583-.101-.564-.19-.474-.795.804-1.491 3.149-2.607 7.435-3.414 13.111a226.392 226.392 0 0 1-.759 4.952c-.175 1.02-.254 1.802-.174 1.738.079-.064.919-2.309 1.865-4.989zm9.014-4.283c.684-.834 2.495-3.015 4.024-4.848 1.529-1.833 2.729-3.394 2.667-3.468-.181-.219-3.183 2.82-4.793 4.852-1.496 1.89-2.494 3.365-3.076 4.549-.403.819-.333.755 1.178-1.085zm-28.536-3.067c-.928-1.73-3.124-4.021-5.11-5.332-1.3-.857-4.512-2.123-4.795-1.889-.073.061.973.798 2.324 1.638 3.288 2.045 6.071 4.321 7.241 5.92.528.721 1.002 1.28 1.054 1.24.052-.039-.269-.749-.714-1.577zm16.595-13.999c.44-4.36.346-6.756-.244-6.262-.537.449-1.1 4.3-1.355 9.254-.145 2.819-.197 5.357-.115 5.64.272.938 1.242-3.945 1.714-8.632z"/></g></switch> </svg>