<?xml version="1.0" encoding="UTF-8" standalone="no"?>
<!-- Created with Inkscape (http://www.inkscape.org/) -->

<svg
   xmlns:dc="http://purl.org/dc/elements/1.1/"
   xmlns:cc="http://creativecommons.org/ns#"
   xmlns:rdf="http://www.w3.org/1999/02/22-rdf-syntax-ns#"
   xmlns:svg="http://www.w3.org/2000/svg"
   xmlns="http://www.w3.org/2000/svg"
   xmlns:xlink="http://www.w3.org/1999/xlink"
   xmlns:sodipodi="http://sodipodi.sourceforge.net/DTD/sodipodi-0.dtd"
   xmlns:inkscape="http://www.inkscape.org/namespaces/inkscape"
   width="256"
   height="256"
   viewBox="0 0 67.733332 67.733335"
   version="1.1"
   id="svg1488"
   inkscape:version="0.92.3 (2405546, 2018-03-11)"
   sodipodi:docname="hexchat.svg">
  <defs
     id="defs1482">
    <linearGradient
       inkscape:collect="always"
       id="linearGradient864">
      <stop
         style="stop-color:#09aeff;stop-opacity:1"
         offset="0"
         id="stop860" />
      <stop
         style="stop-color:#206f95;stop-opacity:0.99215686"
         offset="1"
         id="stop862" />
    </linearGradient>
    <clipPath
       clipPathUnits="userSpaceOnUse"
       id="clipPath1025">
      <path
         id="path1027"
         d="M 111.94141,84 C 99.359506,84.145 90.1531,83.713998 82.625,87.867188 c -3.7641,2.0768 -6.751838,5.574737 -8.398438,9.960937 C 72.580062,102.21433 72,107.4241 72,114 v 42 h 160 v -26 c 0,-6.5759 -0.57996,-11.78566 -2.22656,-16.17188 -0.205,-0.5455 -0.47919,-1.03993 -0.74219,-1.54296 -0.1,-0.1848 -0.17844,-0.38051 -0.27344,-0.56641 -1.727,-3.38752 -4.25471,-6.14522 -7.38281,-7.87109 C 213.8463,99.694146 204.64049,100.1454 192.05859,100 H 192 151.66797 L 135.45312,84 h -23.49218 z"
         style="color:#000000;font-style:normal;font-variant:normal;font-weight:normal;font-stretch:normal;font-size:medium;line-height:normal;font-family:sans-serif;font-variant-ligatures:none;font-variant-position:normal;font-variant-caps:normal;font-variant-numeric:normal;font-variant-alternates:normal;font-feature-settings:normal;text-indent:0;text-align:start;text-decoration:none;text-decoration-line:none;text-decoration-style:solid;text-decoration-color:#000000;letter-spacing:normal;word-spacing:normal;text-transform:none;writing-mode:lr-tb;direction:ltr;baseline-shift:baseline;text-anchor:start;white-space:normal;shape-padding:0;clip-rule:nonzero;display:inline;overflow:visible;visibility:visible;opacity:1;isolation:auto;mix-blend-mode:normal;color-interpolation:sRGB;color-interpolation-filters:linearRGB;solid-color:#000000;solid-opacity:1;fill:#e3dfd5;fill-opacity:1;fill-rule:nonzero;stroke:none;stroke-width:4.00000048;stroke-linecap:butt;stroke-linejoin:miter;stroke-miterlimit:4;stroke-dasharray:none;stroke-dashoffset:0;stroke-opacity:1;marker:none;color-rendering:auto;image-rendering:auto;shape-rendering:auto;text-rendering:auto;enable-background:accumulate"
         inkscape:connector-curvature="0" />
    </clipPath>
    <linearGradient
       id="linearGradient1013"
       inkscape:collect="always">
      <stop
         id="stop1005"
         offset="0"
         style="stop-color:#ffffff;stop-opacity:1;" />
      <stop
         style="stop-color:#ffffff;stop-opacity:0.09803922"
         offset="0.125"
         id="stop1007" />
      <stop
         style="stop-color:#000000;stop-opacity:0.09803922"
         offset="0.92500001"
         id="stop1009" />
      <stop
         id="stop1011"
         offset="1"
         style="stop-color:#000000;stop-opacity:0.49803922" />
    </linearGradient>
    <clipPath
       clipPathUnits="userSpaceOnUse"
       id="clipPath1082-3">
      <path
         sodipodi:nodetypes="sssssssss"
         inkscape:connector-curvature="0"
         id="path1084-6"
         d="M 361.9375,-212 C 507.2348,-212 528,-191.28677 528,-46.125 V 70.125 C 528,215.28618 507.2348,236 361.9375,236 H 214.0625 C 68.7652,236 48,215.28618 48,70.125 V -46.125 C 48,-191.28677 68.7652,-212 214.0625,-212 Z"
         style="display:inline;opacity:1;fill:#8c59d9;fill-opacity:1;stroke:none;stroke-width:2;stroke-linecap:round;stroke-linejoin:round;stroke-miterlimit:4;stroke-dasharray:none;stroke-dashoffset:0;stroke-opacity:1;enable-background:new" />
    </clipPath>
    <clipPath
       clipPathUnits="userSpaceOnUse"
       id="clipPath1082-3-5">
      <path
         sodipodi:nodetypes="sssssssss"
         inkscape:connector-curvature="0"
         id="path1084-6-6"
         d="M 361.9375,-212 C 507.2348,-212 528,-191.28677 528,-46.125 V 70.125 C 528,215.28618 507.2348,236 361.9375,236 H 214.0625 C 68.7652,236 48,215.28618 48,70.125 V -46.125 C 48,-191.28677 68.7652,-212 214.0625,-212 Z"
         style="display:inline;opacity:1;fill:#8c59d9;fill-opacity:1;stroke:none;stroke-width:2;stroke-linecap:round;stroke-linejoin:round;stroke-miterlimit:4;stroke-dasharray:none;stroke-dashoffset:0;stroke-opacity:1;enable-background:new" />
    </clipPath>
    <filter
       inkscape:collect="always"
       style="color-interpolation-filters:sRGB"
       id="filter4569-2"
       x="-0.0116"
       width="1.0232"
       y="-0.012428571"
       height="1.024857">
      <feGaussianBlur
         inkscape:collect="always"
         stdDeviation="1.16"
         id="feGaussianBlur4571-9" />
    </filter>
    <filter
       inkscape:collect="always"
       style="color-interpolation-filters:sRGB"
       id="filter913"
       x="-0.0232"
       width="1.0464"
       y="-0.024857143"
       height="1.0497143">
      <feGaussianBlur
         inkscape:collect="always"
         stdDeviation="2.32"
         id="feGaussianBlur915" />
    </filter>
    <linearGradient
       inkscape:collect="always"
       xlink:href="#linearGradient1013"
       id="linearGradient906"
       gradientUnits="userSpaceOnUse"
       x1="296"
       y1="-212"
       x2="296"
       y2="236" />
    <linearGradient
       id="b"
       x2="23.747913"
       x1="23.747913"
       y2="47.234066"
       gradientTransform="matrix(2.4972273,0,0,1.1461579,2.0499405,37.362662)"
       y1="7.3803473"
       gradientUnits="userSpaceOnUse">
      <stop
         stop-color="#EFEFEE"
         offset="0"
         id="stop7" />
      <stop
         stop-color="#84827E"
         offset="1"
         id="stop9" />
    </linearGradient>
    <radialGradient
       inkscape:collect="always"
       xlink:href="#linearGradient864"
       id="radialGradient866"
       cx="33.785057"
       cy="256.4277"
       fx="33.785057"
       fy="256.4277"
       r="21.70617"
       gradientTransform="matrix(1,0,0,1.0912065,3.3226671e-7,-23.954008)"
       gradientUnits="userSpaceOnUse" />
    <linearGradient
       id="linearGradient3176">
      <stop
         id="stop3178"
         offset="0"
         style="stop-color:#005693;stop-opacity:1;" />
      <stop
         style="stop-color:#1d96dc;stop-opacity:1;"
         offset="0.64838707"
         id="stop3365" />
      <stop
         id="stop3180"
         offset="1"
         style="stop-color:#3cc1ff;stop-opacity:0.75539571;" />
    </linearGradient>
    <linearGradient
       id="linearGradient3172">
      <stop
         style="stop-color:#005c9b;stop-opacity:1;"
         offset="0"
         id="stop3174" />
      <stop
         style="stop-color:#55baff;stop-opacity:1;"
         offset="1"
         id="stop3176" />
    </linearGradient>
    <linearGradient
       id="linearGradient3223">
      <stop
         id="stop3225"
         offset="0"
         style="stop-color:#003e69;stop-opacity:1;" />
      <stop
         id="stop3227"
         offset="1"
         style="stop-color:#17a3ff;stop-opacity:1;" />
    </linearGradient>
    <linearGradient
       y2="62.054249"
       x2="1.4691781"
       y1="6.6843181"
       x1="1.4691781"
       id="hexchatGradient"
       gradientTransform="matrix(0.76455492,0,0,0.64975277,11.576734,240.30333)"
       gradientUnits="userSpaceOnUse">
      <stop
         style="stop-color: #FFD600"
         offset="0"
         id="hgYellowStop" />
      <stop
         style="stop-color: #FF2600"
         offset="1"
         id="hgRedStop" />
    </linearGradient>
    <filter
       inkscape:collect="always"
       style="color-interpolation-filters:sRGB"
       id="filter2337"
       x="-0.044396235"
       width="1.0887925"
       y="-0.052240507"
       height="1.104481">
      <feGaussianBlur
         inkscape:collect="always"
         stdDeviation="0.78310026"
         id="feGaussianBlur2339" />
    </filter>
  </defs>
  <sodipodi:namedview
     id="base"
     pagecolor="#ffffff"
     bordercolor="#666666"
     borderopacity="1.0"
     inkscape:pageopacity="0.0"
     inkscape:pageshadow="2"
     inkscape:zoom="3.2382812"
     inkscape:cx="11.816292"
     inkscape:cy="128"
     inkscape:document-units="px"
     inkscape:current-layer="layer1"
     showgrid="false"
     units="px"
     inkscape:window-width="1920"
     inkscape:window-height="1009"
     inkscape:window-x="0"
     inkscape:window-y="34"
     inkscape:window-maximized="1">
    <inkscape:grid
       type="xygrid"
       id="grid2168" />
  </sodipodi:namedview>
  <metadata
     id="metadata1485">
    <rdf:RDF>
      <cc:Work
         rdf:about="">
        <dc:format>image/svg+xml</dc:format>
        <dc:type
           rdf:resource="http://purl.org/dc/dcmitype/StillImage" />
        <dc:title></dc:title>
      </cc:Work>
    </rdf:RDF>
  </metadata>
  <g
     inkscape:label="Livello 1"
     inkscape:groupmode="layer"
     id="layer1"
     transform="translate(0,-229.26666)">
    <path
       style="display:inline;opacity:0.2;fill:#000000;fill-opacity:1;stroke:none;stroke-width:2;stroke-linecap:round;stroke-linejoin:round;stroke-miterlimit:4;stroke-dasharray:none;stroke-dashoffset:0;stroke-opacity:1;filter:url(#filter913);enable-background:new"
       d="m 188.96876,45.999995 c 72.64865,0 83.03125,10.356615 83.03125,82.937505 v 58.125 c 0,72.58059 -10.3826,82.9375 -83.03125,82.9375 h -73.9375 C 42.382606,270 32.000006,259.64309 32.000006,187.0625 v -58.125 c 0,-72.58089 10.3826,-82.937505 83.031254,-82.937505 z"
       id="path899"
       inkscape:connector-curvature="0"
       sodipodi:nodetypes="sssssssss"
       transform="matrix(0.26970778,0,0,0.26970778,-7.1289177,220.56049)" />
    <path
       sodipodi:nodetypes="sssssssss"
       inkscape:connector-curvature="0"
       id="path4567-1"
       d="m 188.96876,43.999995 c 72.64865,0 83.03125,10.356615 83.03125,82.937505 v 58.125 c 0,72.58059 -10.3826,82.9375 -83.03125,82.9375 h -73.9375 C 42.382606,268 32.000006,257.64309 32.000006,185.0625 v -58.125 c 0,-72.58089 10.3826,-82.937505 83.031254,-82.937505 z"
       style="display:inline;opacity:0.1;fill:#000000;fill-opacity:1;stroke:none;stroke-width:2;stroke-linecap:round;stroke-linejoin:round;stroke-miterlimit:4;stroke-dasharray:none;stroke-dashoffset:0;stroke-opacity:1;filter:url(#filter4569-2);enable-background:new"
       transform="matrix(0.26970778,0,0,0.26970778,-7.1289177,220.56049)" />
    <path
       style="display:inline;opacity:1;fill:#4d4d4d;fill-opacity:1;stroke:none;stroke-width:0.5394156;stroke-linecap:round;stroke-linejoin:round;stroke-miterlimit:4;stroke-dasharray:none;stroke-dashoffset:0;stroke-opacity:1;enable-background:new"
       d="m 23.895904,232.42763 c -9.797337,0 -15.3941292,0.69699 -18.5445162,3.84334 -3.150381,3.14634 -3.849657,8.73736 -3.849657,18.52555 v 15.67677 c 0,9.78815 0.699276,15.3792 3.849657,18.52555 3.150387,3.14636 8.7471782,3.84333 18.5445162,3.84333 h 19.94152 c 9.797339,0 15.394134,-0.69697 18.544517,-3.84333 3.150384,-3.14635 3.849659,-8.7374 3.849659,-18.52555 v -15.67677 c 0,-9.78819 -0.699275,-15.37921 -3.849659,-18.52555 -3.150383,-3.14635 -8.74718,-3.84334 -18.544517,-3.84334 z"
       id="rect877-2"
       inkscape:connector-curvature="0" />
    <path
       style="display:inline;opacity:0.2;fill:#131313;fill-opacity:1;stroke:none;stroke-width:0.5394156;stroke-linecap:round;stroke-linejoin:round;stroke-miterlimit:4;stroke-dasharray:none;stroke-dashoffset:0;stroke-opacity:1;enable-background:new"
       d="m 1.5017313,269.93387 v 0.53942 c 0,9.78815 0.699276,15.3792 3.849657,18.52555 3.150387,3.14636 8.7471787,3.84333 18.5445167,3.84333 h 19.94152 c 9.797339,0 15.394134,-0.69697 18.544517,-3.84333 3.150384,-3.14635 3.849659,-8.7374 3.849659,-18.52555 v -0.53942 c 0,9.78815 -0.699275,15.3792 -3.849659,18.52555 -3.150383,3.14636 -8.747178,3.84334 -18.544517,3.84334 h -19.94152 c -9.797338,0 -15.3941297,-0.69698 -18.5445167,-3.84334 -3.150381,-3.14635 -3.849657,-8.7374 -3.849657,-18.52555 z"
       id="path917"
       inkscape:connector-curvature="0" />
    <path
       sodipodi:nodetypes="sssssssss"
       inkscape:connector-curvature="0"
       id="path1068-7"
       d="M 361.9375,-212 C 507.2348,-212 528,-191.28677 528,-46.125 V 70.125 C 528,215.28618 507.2348,236 361.9375,236 H 214.0625 C 68.7652,236 48,215.28618 48,70.125 V -46.125 C 48,-191.28677 68.7652,-212 214.0625,-212 Z"
       style="display:inline;opacity:0.4;fill:none;fill-opacity:1;stroke:url(#linearGradient906);stroke-width:8;stroke-linecap:round;stroke-linejoin:round;stroke-miterlimit:4;stroke-dasharray:none;stroke-dashoffset:0;stroke-opacity:1;enable-background:new"
       clip-path="url(#clipPath1082-3-5)"
       transform="matrix(0.13485389,0,0,0.13485389,-4.9712557,261.01666)" />
    <g
       id="g1684"
       transform="translate(0.56179351,-0.10035668)" />
    <path
       inkscape:connector-curvature="0"
       style="fill:#000000;fill-opacity:1;stroke-width:0.70481932;filter:url(#filter2337);opacity:0.3"
       d="m 33.668436,244.653 c -4.833012,0.0459 -9.661167,0.33056 -10.572306,0.83698 -1.822241,1.01281 -10.417479,15.34341 -10.396092,17.33417 0.02125,1.99074 8.926894,16.15798 10.770546,17.13593 1.843636,0.97794 19.344374,0.83661 21.166614,-0.17613 1.822241,-1.01282 10.417487,-15.34344 10.396094,-17.33418 -0.02148,-1.99075 -8.926878,-16.18002 -10.770525,-17.15797 -0.921823,-0.48896 -5.761317,-0.68469 -10.594331,-0.63873 z m 0.04413,3.56814 c 3.77924,-0.0368 7.538782,0.13544 8.259613,0.52862 0.04328,0.0235 0.101361,0.09 0.154178,0.13205 l -7.95131,8.87634 -0.35241,0.37442 -0.33038,-0.37442 -8.28165,-8.67812 c 0.07685,-0.0696 0.160892,-0.14222 0.220266,-0.17613 0.712477,-0.4073 4.502405,-0.64583 8.281634,-0.6828 z m 12.730801,6.67378 c 2.032592,3.2854 3.955839,6.80355 3.964612,7.64288 0.0095,0.90946 -2.160057,4.99545 -4.294995,8.52391 l -7.819152,-6.98212 -0.374432,-0.33038 0.35241,-0.33037 z m -25.219344,0.0226 7.642901,8.50189 0.308352,0.33038 -0.330379,0.30835 -7.246443,6.98213 c -2.147536,-3.42968 -4.26373,-7.30739 -4.272993,-8.19352 -0.009,-0.85714 1.895438,-4.54749 3.898535,-7.92921 z m 12.598664,12.53257 0.308354,0.30837 8.700121,8.1715 c -0.224155,0.25751 -0.413732,0.45035 -0.550644,0.5286 -1.424932,0.81461 -15.099582,0.98482 -16.54125,0.19829 -0.160847,-0.0877 -0.424124,-0.33705 -0.704824,-0.66078 l 8.457808,-8.23752 z"
       id="path2307" />
    <path
       id="coloredX"
       d="m 33.668436,244.653 c -4.833012,0.0459 -9.661167,0.33056 -10.572306,0.83698 -1.822241,1.01281 -10.417479,15.34341 -10.396092,17.33417 0.02125,1.99074 8.926894,16.15798 10.770546,17.13593 1.843636,0.97794 19.344374,0.83661 21.166614,-0.17613 1.822241,-1.01282 10.417487,-15.34344 10.396094,-17.33418 -0.02148,-1.99075 -8.926878,-16.18002 -10.770525,-17.15797 -0.921823,-0.48896 -5.761317,-0.68469 -10.594331,-0.63873 z m 0.04413,3.56814 c 3.77924,-0.0368 7.538782,0.13544 8.259613,0.52862 0.04328,0.0235 0.101361,0.09 0.154178,0.13205 l -7.95131,8.87634 -0.35241,0.37442 -0.33038,-0.37442 -8.28165,-8.67812 c 0.07685,-0.0696 0.160892,-0.14222 0.220266,-0.17613 0.712477,-0.4073 4.502405,-0.64583 8.281634,-0.6828 z m 12.730801,6.67378 c 2.032592,3.2854 3.955839,6.80355 3.964612,7.64288 0.0095,0.90946 -2.160057,4.99545 -4.294995,8.52391 l -7.819152,-6.98212 -0.374432,-0.33038 0.35241,-0.33037 z m -25.219344,0.0226 7.642901,8.50189 0.308352,0.33038 -0.330379,0.30835 -7.246443,6.98213 c -2.147536,-3.42968 -4.26373,-7.30739 -4.272993,-8.19352 -0.009,-0.85714 1.895438,-4.54749 3.898535,-7.92921 z m 12.598664,12.53257 0.308354,0.30837 8.700121,8.1715 c -0.224155,0.25751 -0.413732,0.45035 -0.550644,0.5286 -1.424932,0.81461 -15.099582,0.98482 -16.54125,0.19829 -0.160847,-0.0877 -0.424124,-0.33705 -0.704824,-0.66078 l 8.457808,-8.23752 z"
       style="fill:url(#hexchatGradient);fill-opacity:1;stroke-width:0.70481932"
       inkscape:connector-curvature="0" />
    <path
       style="clip-rule:evenodd;display:inline;opacity:0.1;fill:#ffffff;fill-opacity:1;fill-rule:evenodd;stroke:none;stroke-width:0.53941554;stroke-linecap:round;stroke-linejoin:round;stroke-miterlimit:4;stroke-dasharray:none;stroke-dashoffset:0;stroke-opacity:1;image-rendering:optimizeQuality;shape-rendering:geometricPrecision;text-rendering:geometricPrecision;enable-background:new"
       d="m 23.813194,292.71765 c -19.593907,0 -22.3941753,-2.79326 -22.3941753,-22.36889 v -7.83838 H 66.148887 v 7.83838 c 0,19.57563 -2.800268,22.36889 -22.394172,22.36889 z"
       id="path1107"
       inkscape:connector-curvature="0" />
    <path
       style="clip-rule:evenodd;display:inline;opacity:0.1;fill:#ffffff;fill-opacity:1;fill-rule:evenodd;stroke:none;stroke-width:0.53941554;stroke-linecap:round;stroke-linejoin:round;stroke-miterlimit:4;stroke-dasharray:none;stroke-dashoffset:0;stroke-opacity:1;image-rendering:optimizeQuality;shape-rendering:geometricPrecision;text-rendering:geometricPrecision;enable-background:new"
       d="m 33.783956,232.3031 v 60.41455 h 9.970757 c 19.593906,0 22.394174,-2.79334 22.394174,-22.36889 v -15.67677 c 0,-19.57563 -2.800268,-22.36889 -22.394174,-22.36889 z"
       id="path1099"
       inkscape:connector-curvature="0" />
  </g>
</svg>
