<svg xmlns="http://www.w3.org/2000/svg" style="isolation:isolate" width="256" height="256"><defs><filter id="a" width="270.648" height="254.338" x="-6.66" y="4.28" filterUnits="userSpaceOnUse"><feGaussianBlur xmlns="http://www.w3.org/2000/svg" in="SourceGraphic" stdDeviation="4.294"/><feOffset xmlns="http://www.w3.org/2000/svg" dy="4" result="pf_100_offsetBlur"/><feFlood xmlns="http://www.w3.org/2000/svg" flood-opacity=".4"/><feComposite xmlns="http://www.w3.org/2000/svg" in2="pf_100_offsetBlur" operator="in" result="pf_100_dropShadow"/><feBlend xmlns="http://www.w3.org/2000/svg" in="SourceGraphic" in2="pf_100_dropShadow"/></filter></defs><g filter="url(#a)"><linearGradient id="b" x1=".03" x2=".873" y1="1.037" y2=".194" gradientTransform="matrix(244.648 0 0 228.338 6.343 13.28)" gradientUnits="userSpaceOnUse"><stop offset="37.07%" stop-color="#16b8c3"/><stop offset="74.22%" stop-color="#02aef0"/></linearGradient><path fill="url(#b)" d="M166.351 13.28c74.056 0 84.64 10.557 84.64 84.544v59.251c0 73.986-10.584 84.544-84.64 84.544H90.982c-74.056 0-84.639-10.558-84.639-84.544V97.824c0-73.987 10.583-84.544 84.639-84.544h75.369z"/></g><path fill="#FFF" d="M249.643 83.58L44.234 236.61c11.562 2.311 26.426 3.019 45.523 3.019h75.37c74.055 0 84.639-10.558 84.639-84.544V95.834c0-4.303-.041-8.37-.123-12.254z" opacity=".1"/><g opacity=".4"><linearGradient id="c" x1=".517" x2=".517" y2="1"><stop offset="0%" stop-color="#fff"/><stop offset="12.5%" stop-opacity=".098" stop-color="#fff"/><stop offset="92.5%" stop-opacity=".098"/><stop offset="100%" stop-opacity=".498"/></linearGradient><path fill="none" stroke="url(#c)" stroke-linecap="round" stroke-linejoin="round" stroke-width="4.077" d="M165.685 11.947c74.055 0 84.639 10.557 84.639 84.544v59.251c0 73.986-10.584 84.543-84.639 84.543h-75.37c-74.055 0-84.639-10.557-84.639-84.543V96.491c0-73.987 10.584-84.544 84.639-84.544h75.37z" vector-effect="non-scaling-stroke"/></g><path d="M137.063 140.062V195.5c0 2.208 1.792 4 4 4H196.5c2.208 0 4-1.792 4-4v-55.438c0-2.207-1.792-4-4-4h-55.437c-2.208 0-4 1.793-4 4zm11.062 5.063h41.313c1.103 0 2 .896 2 2v41.312c0 1.104-.897 2-2 2h-41.313a2 2 0 0 1-2-2v-41.312a2 2 0 0 1 2-2zM55.5 140.062V195.5c0 2.208 1.792 4 4 4h55.438c2.207 0 4-1.792 4-4v-55.438c0-2.207-1.793-4-4-4H59.5c-2.208 0-4 1.793-4 4zm13.063 5.063h37.312c2.208 0 4 1.792 4 4v37.312c0 2.208-1.792 4-4 4H68.563c-2.208 0-4-1.792-4-4v-37.312c0-2.208 1.792-4 4-4zm68.5-86.625v55.438c0 2.207 1.792 4 4 4H196.5c2.208 0 4-1.793 4-4V58.5c0-2.208-1.792-4-4-4h-55.437c-2.208 0-4 1.792-4 4zm13.062 5.062h37.313c2.207 0 4 1.793 4 4v37.313c0 2.208-1.793 4-4 4h-37.313c-2.208 0-4-1.792-4-4V67.562c0-2.207 1.792-4 4-4zM55.5 58.5v55.438c0 2.207 1.792 4 4 4h55.438c2.207 0 4-1.793 4-4V58.5c0-2.208-1.793-4-4-4H59.5c-2.208 0-4 1.792-4 4zm13.063 5.062h37.312c2.208 0 4 1.793 4 4v37.313c0 2.208-1.792 4-4 4H68.563c-2.208 0-4-1.792-4-4V67.562c0-2.207 1.792-4 4-4z" filter="url(#d)" fill="#FFF"/><defs><filter id="d" width="205" height="205" x="25.5" y="28.5" filterUnits="userSpaceOnUse"><feGaussianBlur xmlns="http://www.w3.org/2000/svg" in="SourceGraphic" stdDeviation="4.294"/><feOffset xmlns="http://www.w3.org/2000/svg" dy="4" result="pf_100_offsetBlur"/><feFlood xmlns="http://www.w3.org/2000/svg" flood-opacity=".4"/><feComposite xmlns="http://www.w3.org/2000/svg" in2="pf_100_offsetBlur" operator="in" result="pf_100_dropShadow"/><feBlend xmlns="http://www.w3.org/2000/svg" in="SourceGraphic" in2="pf_100_dropShadow"/></filter></defs></svg>