<svg xmlns="http://www.w3.org/2000/svg" style="isolation:isolate" width="256" height="256"><defs><filter id="a" width="270.648" height="254.338" x="-7.32" y="2.95" filterUnits="userSpaceOnUse"><feGaussianBlur xmlns="http://www.w3.org/2000/svg" in="SourceGraphic" stdDeviation="4.294"/><feOffset xmlns="http://www.w3.org/2000/svg" dy="4" result="pf_100_offsetBlur"/><feFlood xmlns="http://www.w3.org/2000/svg" flood-opacity=".4"/><feComposite xmlns="http://www.w3.org/2000/svg" in2="pf_100_offsetBlur" operator="in" result="pf_100_dropShadow"/><feBlend xmlns="http://www.w3.org/2000/svg" in="SourceGraphic" in2="pf_100_dropShadow"/></filter></defs><path fill="#ECECEC" d="M165.685 11.947c74.055 0 84.639 10.557 84.639 84.544v59.251c0 73.986-10.584 84.543-84.639 84.543h-75.37c-74.055 0-84.639-10.557-84.639-84.543V96.491c0-73.987 10.584-84.544 84.639-84.544h75.37z" filter="url(#a)"/><g filter="url(#b)"><path fill="#234DB8" d="M64.047 58h-8.75v43.75h8.75v-4.375h-4.375v-35h4.375V58zM64.047 106.125h-8.75v43.75h8.75V145.5h-4.375v-35h4.375v-4.375zM64.047 154.25h-8.75V198h8.75v-4.375h-4.375v-35h4.375v-4.375M190.922 58h8.75v43.75h-8.75v-4.375h4.375v-35h-4.375V58zM190.922 106.125h8.75v43.75h-8.75V145.5h4.375v-35h-4.375v-4.375zM190.922 154.25h8.75V198h-8.75v-4.375h4.375v-35h-4.375v-4.375M72.797 58h-4.375v43.75h4.375V62.375"/><path fill="#76C22B" d="M86.797 58h-4.375v43.75h4.375V62.375M100.797 58h-4.375v43.75h4.375V62.375M158.547 58h-4.375v43.75h4.375V62.375M172.547 58h-4.375v43.75h4.375V62.375M186.547 58h-4.375v43.75h4.375V62.375M72.797 154.25h-4.375V198h4.375v-39.375M86.797 154.25h-4.375V198h4.375v-39.375M100.797 154.25h-4.375V198h4.375v-39.375M158.547 154.25h-4.375V198h4.375v-39.375M172.547 154.25h-4.375V198h4.375v-39.375M186.547 154.25h-4.375V198h4.375v-39.375M72.797 106.125h-4.375v43.75h4.375V110.5M86.797 106.125h-4.375v43.75h4.375V110.5M100.797 106.125h-4.375v43.75h4.375V110.5M158.547 106.125h-4.375v43.75h4.375V110.5M172.547 106.125h-4.375v43.75h4.375V110.5M186.547 106.125h-4.375v43.75h4.375V110.5M114.797 106.125h-4.375v43.75h4.375V110.5M128.797 106.125h-4.375v43.75h4.375V110.5M142.797 106.125h-4.375v43.75h4.375V110.5"/></g><defs><filter id="b" width="156.375" height="152" x="49.3" y="54" filterUnits="userSpaceOnUse"><feGaussianBlur xmlns="http://www.w3.org/2000/svg" in="SourceGraphic" stdDeviation=".429"/><feOffset xmlns="http://www.w3.org/2000/svg" dy="2" result="pf_100_offsetBlur"/><feFlood xmlns="http://www.w3.org/2000/svg" flood-opacity=".1"/><feComposite xmlns="http://www.w3.org/2000/svg" in2="pf_100_offsetBlur" operator="in" result="pf_100_dropShadow"/><feBlend xmlns="http://www.w3.org/2000/svg" in="SourceGraphic" in2="pf_100_dropShadow"/></filter></defs><g opacity=".4"><linearGradient id="c" x1=".517" x2=".517" y2="1"><stop offset="0%" stop-color="#fff"/><stop offset="12.5%" stop-opacity=".098" stop-color="#fff"/><stop offset="92.5%" stop-opacity=".098"/><stop offset="100%" stop-opacity=".498"/></linearGradient><path fill="none" stroke="url(#c)" stroke-linecap="round" stroke-linejoin="round" stroke-width="4.077" d="M165.685 11.947c74.055 0 84.639 10.557 84.639 84.544v59.251c0 73.986-10.584 84.543-84.639 84.543h-75.37c-74.055 0-84.639-10.557-84.639-84.543V96.491c0-73.987 10.584-84.544 84.639-84.544h75.37z" vector-effect="non-scaling-stroke"/></g></svg>