<svg xmlns="http://www.w3.org/2000/svg" style="isolation:isolate" width="256" height="256"><switch><g><defs><filter id="a" width="270.648" height="254.338" x="-6.66" y="4.28" filterUnits="userSpaceOnUse"><feGaussianBlur xmlns="http://www.w3.org/2000/svg" in="SourceGraphic" stdDeviation="4.294"/><feOffset xmlns="http://www.w3.org/2000/svg" dy="4" result="pf_100_offsetBlur"/><feFlood xmlns="http://www.w3.org/2000/svg" flood-opacity=".4"/><feComposite xmlns="http://www.w3.org/2000/svg" in2="pf_100_offsetBlur" operator="in" result="pf_100_dropShadow"/><feBlend xmlns="http://www.w3.org/2000/svg" in="SourceGraphic" in2="pf_100_dropShadow"/></filter></defs><g filter="url(#a)"><linearGradient id="b" x1=".03" x2=".873" y1="1.037" y2=".194" gradientTransform="matrix(244.648 0 0 228.338 6.343 13.28)" gradientUnits="userSpaceOnUse"><stop offset="37.07%" stop-color="#16b8c3"/><stop offset="74.22%" stop-color="#02aef0"/></linearGradient><path fill="url(#b)" d="M166.351 13.28c74.056 0 84.64 10.557 84.64 84.544v59.251c0 73.986-10.584 84.544-84.64 84.544H90.982c-74.056 0-84.639-10.558-84.639-84.544V97.824c0-73.987 10.583-84.544 84.639-84.544h75.369z"/></g><defs><filter id="c" width="171" height="171" x="42" y="46" filterUnits="userSpaceOnUse"><feGaussianBlur xmlns="http://www.w3.org/2000/svg" in="SourceGraphic" stdDeviation="4.294"/><feOffset xmlns="http://www.w3.org/2000/svg" dy="4" result="pf_100_offsetBlur"/><feFlood xmlns="http://www.w3.org/2000/svg" flood-opacity=".4"/><feComposite xmlns="http://www.w3.org/2000/svg" in2="pf_100_offsetBlur" operator="in" result="pf_100_dropShadow"/><feBlend xmlns="http://www.w3.org/2000/svg" in="SourceGraphic" in2="pf_100_dropShadow"/></filter></defs><path fill="#FFF" d="M171.009 55c-3.478 9.554-7.526 18.727-12.163 27.087H116.53v15.724h15.069v22.219c0 3.582-.196 6.044-.581 9.228h-14.965v15.724h13.802c-2.318 21.098-10.235 35.716-23.759 46.066L118.035 200c15.843-11.943 25.109-29.542 27.814-55.018h23.625v54.419h15.263v-54.419H200v-15.724h-15.263V97.811H200V82.087h-28.991c4.25-6.768 8.508-14.752 12.759-23.509L171.009 55zm-34.774 1.78l-11.597 3.593c4.25 5.573 7.534 11.937 9.853 19.102l12.177-4.177c-2.318-6.767-5.797-12.929-10.433-18.503v-.015zm-58.34 1.72v23.586H55V97.81h22.895v31.141c-7.342 3.185-14.394 6.366-22.895 9.551l4.054 12.545c6.956-2.787 12.658-5.567 18.841-8.353v37.62c0 4.777-.855 7.156-2.787 7.156-5.411 0-9.868-.787-14.891-2.38l2.31 12.53c4.638 1.194 9.66 1.798 15.07 1.798 4.636 0 10.573-1.189 12.505-3.578 1.932-2.389 3.056-6.574 3.056-12.545v-46.573l16.292-8.369-1.744-10.748v-.015c-5.024 2.389-9.525 3.801-14.548 6.587V97.812h15.263V82.088H93.158V58.503L77.895 58.5zm69.116 39.31h22.463v31.447H146.43c.386-2.787.581-4.66.581-7.447v-24z" filter="url(#c)"/><path fill="#FFF" d="M6.357 83.58l205.409 153.03c-11.562 2.311-26.426 3.019-45.523 3.019h-75.37c-74.055 0-84.639-10.558-84.639-84.544V95.834c0-4.303.041-8.37.123-12.254z" opacity=".1"/><g opacity=".4"><linearGradient id="d" x1=".517" x2=".517" y2="1"><stop offset="0%" stop-color="#fff"/><stop offset="12.5%" stop-opacity=".098" stop-color="#fff"/><stop offset="92.5%" stop-opacity=".098"/><stop offset="100%" stop-opacity=".498"/></linearGradient><path fill="none" stroke="url(#d)" stroke-linecap="round" stroke-linejoin="round" stroke-width="4.077" d="M165.685 11.947c74.055 0 84.639 10.557 84.639 84.544v59.251c0 73.986-10.584 84.543-84.639 84.543h-75.37c-74.055 0-84.639-10.557-84.639-84.543V96.491c0-73.987 10.584-84.544 84.639-84.544h75.37z" vector-effect="non-scaling-stroke"/></g></g></switch> </svg>