<svg xmlns="http://www.w3.org/2000/svg" style="isolation:isolate" width="256" height="256"><switch><g><defs><filter id="a" width="270.648" height="254.338" x="-6.66" y="4.28" filterUnits="userSpaceOnUse"><feGaussianBlur xmlns="http://www.w3.org/2000/svg" in="SourceGraphic" stdDeviation="4.294"/><feOffset xmlns="http://www.w3.org/2000/svg" dy="4" result="pf_100_offsetBlur"/><feFlood xmlns="http://www.w3.org/2000/svg" flood-opacity=".4"/><feComposite xmlns="http://www.w3.org/2000/svg" in2="pf_100_offsetBlur" operator="in" result="pf_100_dropShadow"/><feBlend xmlns="http://www.w3.org/2000/svg" in="SourceGraphic" in2="pf_100_dropShadow"/></filter></defs><path fill="#E6E6E6" d="M166.351 13.28c74.056 0 84.64 10.557 84.64 84.544v59.251c0 73.986-10.584 84.544-84.64 84.544H90.982c-74.056 0-84.639-10.558-84.639-84.544V97.824c0-73.987 10.583-84.544 84.639-84.544h75.369z" filter="url(#a)"/><g opacity=".4"><linearGradient id="b" x1=".517" x2=".517" y2="1"><stop offset="0%" stop-color="#fff"/><stop offset="12.5%" stop-opacity=".098" stop-color="#fff"/><stop offset="92.5%" stop-opacity=".098"/><stop offset="100%" stop-opacity=".498"/></linearGradient><path fill="none" stroke="url(#b)" stroke-linecap="round" stroke-linejoin="round" stroke-width="4.077" d="M165.685 11.947c74.055 0 84.639 10.557 84.639 84.544v59.251c0 73.986-10.584 84.543-84.639 84.543h-75.37c-74.055 0-84.639-10.557-84.639-84.543V96.491c0-73.987 10.584-84.544 84.639-84.544h75.37z" vector-effect="non-scaling-stroke"/></g><path fill="#76C22B" d="M119.304 208.505c-5.146-1.974-10.798-7.697-12.48-12.634-2.557-7.508-2.22-8.944 8.996-38.276 5.578-14.587 10.066-26.596 9.975-26.688-.092-.091-5.554 11.735-12.139 26.28-13.136 29.017-13.574 29.716-20.698 32.967-4.247 1.938-10.343 2.367-15.175 1.066-8.372-2.253-15.642-11.958-15.642-20.882 0-3.21 1.815-9.228 3.546-11.762 3.263-4.775 4.761-5.633 28.801-16.507 13.282-6.008 24.043-11.029 23.914-11.158-.129-.129-11.101 3.847-24.381 8.836-22.016 8.269-24.538 9.071-28.578 9.077-7.645.012-14.865-4.658-18.904-12.228-1.295-2.427-1.54-3.903-1.539-9.272.001-5.61.218-6.795 1.787-9.772.982-1.863 3.197-4.688 4.922-6.277 4.307-3.968 8.405-5.673 13.794-5.74 4.059-.05 6.169.631 29.527 9.527 13.836 5.269 25.257 9.48 25.38 9.357.122-.122-10.957-5.292-24.621-11.487-22.423-10.167-25.114-11.558-27.624-14.28-6.767-7.337-7.698-17.097-2.464-25.822 5.691-9.489 17.52-13.094 27.691-8.44 6.791 3.108 7.694 4.546 19.808 31.554 6.078 13.55 11.147 24.54 11.264 24.423.117-.118-4.077-11.529-9.322-25.36-10.446-27.549-10.744-28.836-8.347-36.05 1.468-4.416 6.183-9.746 10.748-12.149 3.029-1.595 4.188-1.808 9.822-1.808 5.635 0 6.793.213 9.823 1.808 4.565 2.403 9.28 7.733 10.747 12.149 2.374 7.143 2.042 8.596-8.012 35.052-5.048 13.281-9.077 24.248-8.955 24.371.123.122 5.184-10.701 11.248-24.053 12.046-26.524 12.19-26.748 19.411-30.087 2.946-1.363 4.795-1.728 8.805-1.74 4.395-.012 5.676.281 9.564 2.194 7.571 3.726 11.998 10.618 12.105 18.848.085 6.502-1.63 10.98-5.821 15.199-3.205 3.225-5.181 4.244-28.779 14.836-13.936 6.256-25.254 11.458-25.15 11.562.103.103 11.916-4.226 26.25-9.621 14.334-5.394 27.036-9.966 28.227-10.159 2.851-.463 9.774 1.348 13.045 3.412 9.323 5.882 12.799 18.238 7.93 28.186-3.47 7.088-11.198 12.037-18.822 12.053-3.69.008-6.854-1.025-29.999-9.788-14.23-5.389-25.942-9.729-26.026-9.645-.084.084 11.207 5.282 25.09 11.551 20.154 9.102 25.764 11.915 27.833 13.957 8.404 8.293 8.362 22.181-.093 30.632-8.454 8.449-22.344 8.493-30.647.096-2.045-2.069-4.776-7.513-13.62-27.155-6.084-13.512-11.154-24.475-11.267-24.362-.113.113 4.066 11.52 9.286 25.349 8.649 22.912 9.489 25.523 9.466 29.431-.019 3.409-.453 5.16-2.115 8.534-5.111 10.377-16.85 15.014-27.585 10.895zm2.01-78.492c.554-.359.706-.652.336-.652-.37 0-1.127.293-1.681.652-.555.358-.706.651-.337.651.37 0 1.127-.293 1.682-.651zm2.017-4.705c-.555-.358-1.311-.652-1.681-.652-.37 0-.219.294.336.652.555.358 1.311.652 1.681.652.37 0 .218-.294-.336-.652zm7.376-5.713c0-.369-.294-.218-.652.336-.359.555-.652 1.311-.652 1.681 0 .369.293.218.652-.337.358-.554.652-1.31.652-1.68z"/><path fill="#F22C42" d="M94.021 139.747c-22.016 8.269-24.538 9.071-28.578 9.077-7.645.012-14.865-4.658-18.904-12.228-1.295-2.427-1.54-3.903-1.539-9.272.001-5.61.218-6.795 1.787-9.772.982-1.863 3.197-4.688 4.922-6.277 4.307-3.968 8.405-5.673 13.794-5.74 4.059-.05 6.169.631 29.527 9.527 7.796 3.108 17.335 6.16 23.637 8.831 2.081.883 5.187 2.931 6.387 3.72.705.464.29-.065.003.084-3.102 1.609-6.655 3.098-11.035 4.693-5.611 2.042-13.445 5.084-20.002 7.357h.001z"/><circle fill="#FFDA64" r="1" transform="translate(127.5 127.5) scale(24.75)" vector-effect="non-scaling-stroke"/></g></switch> </svg>