<svg xmlns="http://www.w3.org/2000/svg" style="isolation:isolate" width="256" height="256"><defs><filter id="a" width="270.648" height="254.338" x="-7.32" y="2.95" filterUnits="userSpaceOnUse"><feGaussianBlur xmlns="http://www.w3.org/2000/svg" in="SourceGraphic" stdDeviation="4.294"/><feOffset xmlns="http://www.w3.org/2000/svg" dy="4" result="pf_100_offsetBlur"/><feFlood xmlns="http://www.w3.org/2000/svg" flood-opacity=".4"/><feComposite xmlns="http://www.w3.org/2000/svg" in2="pf_100_offsetBlur" operator="in" result="pf_100_dropShadow"/><feBlend xmlns="http://www.w3.org/2000/svg" in="SourceGraphic" in2="pf_100_dropShadow"/></filter></defs><g filter="url(#a)"><linearGradient id="b" x1="-.033" x2="1.033" y1="-.071" y2=".995" gradientTransform="matrix(244.648 0 0 228.338 5.676 11.947)" gradientUnits="userSpaceOnUse"><stop offset="0%" stop-color="#5884f4"/><stop offset="100%" stop-color="#80a3fa"/></linearGradient><path fill="url(#b)" d="M165.685 11.947c74.055 0 84.639 10.557 84.639 84.544v59.251c0 73.986-10.584 84.543-84.639 84.543h-75.37c-74.055 0-84.639-10.557-84.639-84.543V96.491c0-73.987 10.584-84.544 84.639-84.544h75.37z"/></g><path fill="#FFF" d="M128 11.947v228.338h37.685c74.055 0 84.639-10.557 84.639-84.543V96.491c0-73.987-10.584-84.544-84.639-84.544H128z" opacity=".2"/><linearGradient id="c" x1="-.223" x2="1.426" y1="1.683" y2="1.002" gradientTransform="matrix(244.648 0 0 86.828 5.676 84.586)" gradientUnits="userSpaceOnUse"><stop offset="0%" stop-color="#2f3943"/><stop offset="100%" stop-color="#808c9b"/></linearGradient><path fill="url(#c)" d="M5.852 84.586c-.032 2.554-.176 4.601-.176 7.324v59.252c0 7.46.215 13.84.484 20.065l243.676.187c.275-6.271.488-12.722.488-20.252V91.91c0-2.654-.142-4.645-.172-7.139l-244.3-.185z"/><path fill="#37A6E6" d="M172.206 106.885l-.032 41.724 62.587.048.046-41.739-62.601-.033z"/><path fill="#AEE3F8" d="M98.442 106.829l-.032 41.724 62.585.046.047-41.736-62.6-.034z"/><path fill="#A2BCFE" d="M24.677 106.774l-.034 41.723 62.587.048.046-41.74-62.599-.031z"/><path fill="#37A6E6" d="M250.324 148.67v-41.725l-4.351-.004-.032 41.725 4.383.004z"/><path fill="#A2BCFE" d="M5.676 106.76v41.72l7.789.006.031-41.72-7.82-.006z"/><path fill="#DA1636" d="M70.711 110.154a6.724 6.724 0 1 0 .002 13.448 6.724 6.724 0 0 0-.002-13.448zM46.058 121.36l-13.447 24.654H68.47l-11.206-20.171-4.482 6.723-6.724-11.206z"/><path fill="#46A926" d="M143.645 110.154a6.724 6.724 0 1 0 0 13.448 6.724 6.724 0 0 0 0-13.448zm-24.654 11.206l-13.447 24.654h35.86l-11.207-20.171-4.482 6.723-6.724-11.206z"/><path fill="#FDC92B" d="M218.723 110.154a6.724 6.724 0 1 0 .002 13.448 6.724 6.724 0 0 0-.002-13.448zM194.07 121.36l-13.447 24.654h35.859l-11.206-20.171-4.482 6.723-6.724-11.206z"/><g opacity=".4"><linearGradient id="d" x1=".517" x2=".517" y2="1"><stop offset="0%" stop-color="#fff"/><stop offset="12.5%" stop-opacity=".098" stop-color="#fff"/><stop offset="92.5%" stop-opacity=".098"/><stop offset="100%" stop-opacity=".498"/></linearGradient><path fill="none" stroke="url(#d)" stroke-linecap="round" stroke-linejoin="round" stroke-width="4.077" d="M165.685 11.947c74.055 0 84.639 10.557 84.639 84.544v59.251c0 73.986-10.584 84.543-84.639 84.543h-75.37c-74.055 0-84.639-10.557-84.639-84.543V96.491c0-73.987 10.584-84.544 84.639-84.544h75.37z" vector-effect="non-scaling-stroke"/></g></svg>