<svg xmlns="http://www.w3.org/2000/svg" style="isolation:isolate" width="256" height="256"><switch><g><defs><filter id="a" width="270.648" height="254.338" x="-6.66" y="4.28" filterUnits="userSpaceOnUse"><feGaussianBlur xmlns="http://www.w3.org/2000/svg" in="SourceGraphic" stdDeviation="4.294"/><feOffset xmlns="http://www.w3.org/2000/svg" dy="4" result="pf_100_offsetBlur"/><feFlood xmlns="http://www.w3.org/2000/svg" flood-opacity=".4"/><feComposite xmlns="http://www.w3.org/2000/svg" in2="pf_100_offsetBlur" operator="in" result="pf_100_dropShadow"/><feBlend xmlns="http://www.w3.org/2000/svg" in="SourceGraphic" in2="pf_100_dropShadow"/></filter></defs><g filter="url(#a)"><linearGradient id="b" x1=".007" x2=".995" y1=".006" y2=".923" gradientTransform="matrix(244.648 0 0 228.338 6.343 13.28)" gradientUnits="userSpaceOnUse"><stop offset="0%" stop-color="#2a4b52"/><stop offset="100%" stop-color="#04151d"/></linearGradient><path fill="url(#b)" d="M166.351 13.28c74.056 0 84.64 10.557 84.64 84.544v59.251c0 73.986-10.584 84.544-84.64 84.544H90.982c-74.056 0-84.639-10.558-84.639-84.544V97.824c0-73.987 10.583-84.544 84.639-84.544h75.369z"/></g><path fill="#FAD505" d="M156.608 241.602h9.445c9.257 0 17.522-.164 24.899-.597 3.688-.217 7.155-.5 10.412-.864 3.257-.363 6.304-.807 9.156-1.343 2.852-.537 5.507-1.168 7.978-1.903 2.472-.735 4.761-1.575 6.879-2.535a39.54 39.54 0 0 0 5.856-3.248 33.33 33.33 0 0 0 4.91-4.037 33.253 33.253 0 0 0 4.043-4.904 39.552 39.552 0 0 0 3.252-5.848c.961-2.116 1.803-4.402 2.539-6.871.736-2.469 1.367-5.122 1.904-7.971.538-2.848.982-5.893 1.346-9.146.364-3.254.648-6.716.865-10.401.424-7.198.579-15.308.586-24.297-2.264 2.019-4.945 4.449-6.81 5.997-14.797 12.279-23.94 13.415-40.092 3.498-12.101-7.431-24.646-13.332-38.512-16.565-21.079-4.914-40.685-12.636-55.029-30.041-2.78-3.373-7.054-6.427-10.996-5.93-19.328 2.439-34.517-6.722-49.69-16.343-1.749 14.442 6.349 25.3 13.744 36.127 14.784 21.641 35.008 38.604 51.653 58.517 13.593 16.262 37.916 24.994 41.662 48.705z"/><path fill="#DC922C" d="M250.668 158.018c.001-.353.024-.602.024-.959V116.43c-7.261-3.275-14.568-6.356-22.365-8.265-13.882-3.4-24.301-10.851-32.762-22.965-10.939-15.663-30.8-20.561-49.139-12.082-4.201 1.942-8.137 6.192-12.972 4.467-26.098-9.315-49.169 6.786-73.934 8.476-6.636.453-10.998 4.566-9.971 12.188 15.172 9.625 30.362 18.785 49.69 16.347 3.942-.497 8.216 2.557 10.996 5.93 14.344 17.405 33.948 25.128 55.027 30.041 13.866 3.233 26.413 9.134 38.514 16.565 16.152 9.917 25.293 8.782 40.09-3.496 2.165-1.798 4.603-3.801 6.802-5.618z"/><circle fill="#3E535D" r="1" transform="translate(164.874 106.801) scale(31.869)" vector-effect="non-scaling-stroke"/><path fill="#FFF" d="M164.874 106.801c-3.121 14.027 8.376 28.519-5.651 25.397-14.027-3.121-22.867-17.022-19.746-31.049 3.122-14.026 17.023-22.867 31.05-19.745 14.026 3.121-2.531 11.371-5.653 25.397z"/><g opacity=".4"><linearGradient id="c" x1=".517" x2=".517" y2="1"><stop offset="0%" stop-color="#fff"/><stop offset="12.5%" stop-opacity=".098" stop-color="#fff"/><stop offset="92.5%" stop-opacity=".098"/><stop offset="100%" stop-opacity=".498"/></linearGradient><path fill="none" stroke="url(#c)" stroke-linecap="round" stroke-linejoin="round" stroke-width="4.077" d="M165.685 11.947c74.055 0 84.639 10.557 84.639 84.544v59.251c0 73.986-10.584 84.543-84.639 84.543h-75.37c-74.055 0-84.639-10.557-84.639-84.543V96.491c0-73.987 10.584-84.544 84.639-84.544h75.37z" vector-effect="non-scaling-stroke"/></g></g></switch> </svg>