<svg xmlns="http://www.w3.org/2000/svg" style="isolation:isolate" width="256" height="256"><switch><g><defs><filter id="a" width="270.648" height="254.338" x="-6.66" y="4.28" filterUnits="userSpaceOnUse"><feGaussianBlur xmlns="http://www.w3.org/2000/svg" in="SourceGraphic" stdDeviation="4.294"/><feOffset xmlns="http://www.w3.org/2000/svg" dy="4" result="pf_100_offsetBlur"/><feFlood xmlns="http://www.w3.org/2000/svg" flood-opacity=".4"/><feComposite xmlns="http://www.w3.org/2000/svg" in2="pf_100_offsetBlur" operator="in" result="pf_100_dropShadow"/><feBlend xmlns="http://www.w3.org/2000/svg" in="SourceGraphic" in2="pf_100_dropShadow"/></filter></defs><g filter="url(#a)"><linearGradient id="b" x2="0" y1=".5" y2="1.5" gradientTransform="matrix(244.648 0 0 228.338 6.343 13.28)" gradientUnits="userSpaceOnUse"><stop offset="0%" stop-color="#07b3ff"/><stop offset="100%" stop-color="#007de8"/></linearGradient><path fill="url(#b)" d="M166.351 13.28c74.056 0 84.64 10.557 84.64 84.544v59.251c0 73.986-10.584 84.544-84.64 84.544H90.982c-74.056 0-84.639-10.558-84.639-84.544V97.824c0-73.987 10.583-84.544 84.639-84.544h75.369z"/></g><g opacity=".4"><linearGradient id="c" x1=".517" x2=".517" y2="1"><stop offset="0%" stop-color="#fff"/><stop offset="12.5%" stop-opacity=".098" stop-color="#fff"/><stop offset="92.5%" stop-opacity=".098"/><stop offset="100%" stop-opacity=".498"/></linearGradient><path fill="none" stroke="url(#c)" stroke-linecap="round" stroke-linejoin="round" stroke-width="4.077" d="M165.685 11.947c74.055 0 84.639 10.557 84.639 84.544v59.251c0 73.986-10.584 84.543-84.639 84.543h-75.37c-74.055 0-84.639-10.557-84.639-84.543V96.491c0-73.987 10.584-84.544 84.639-84.544h75.37z" vector-effect="non-scaling-stroke"/></g><g filter="url(#d)"><path fill="#F2F2F2" d="M55.5 147.102h10.409v-38.204H55.5v-5.633h27.569v5.633H72.66v38.204h10.409v5.633H55.5v-5.633zM95.506 103.265h14.499q8.247 0 12.603 3.744 2.229 1.955 3.259 4.771 1.032 2.783 1.032 6.295 0 7.29-4.257 11.035-4.223 3.744-12.637 3.744h-7.781v19.881h-6.718v-49.47zm14.499 24.089q2.494 0 4.29-.663 1.796-.663 2.993-1.789 2.594-2.453 2.594-6.859 0-4.408-2.594-6.859-2.527-2.419-7.283-2.419h-7.781v18.589h7.781z"/><path fill="#A6D74F" d="M136.854 109.244h8.741v2.938h-4.947v31.636h4.947v2.937h-8.741v-37.511z"/><path fill="#F2F2F2" d="M163.306 138.954q-1.608 4.108-3.134 5.361-1.525 1.253-4.082 1.253h-3.031v-3.164h2.227q1.567 0 2.433-.739.866-.74 1.917-3.492l.68-1.726-9.34-22.638h4.021l7.216 17.996 7.217-17.996h4.02l-10.144 25.145z"/><path fill="#A6D74F" d="M187.552 109.244v37.511h-8.742v-2.937h4.928v-31.636h-4.928v-2.938h8.742zM196.15 133.659h4.35v5.218h-4.35v-5.218zm0-16.537h4.35v5.218h-4.35v-5.218z"/></g><defs><filter id="d" width="205" height="109.47" x="25.5" y="77.27" filterUnits="userSpaceOnUse"><feGaussianBlur xmlns="http://www.w3.org/2000/svg" in="SourceGraphic" stdDeviation="4.294"/><feOffset xmlns="http://www.w3.org/2000/svg" dy="4" result="pf_100_offsetBlur"/><feFlood xmlns="http://www.w3.org/2000/svg" flood-opacity=".4"/><feComposite xmlns="http://www.w3.org/2000/svg" in2="pf_100_offsetBlur" operator="in" result="pf_100_dropShadow"/><feBlend xmlns="http://www.w3.org/2000/svg" in="SourceGraphic" in2="pf_100_dropShadow"/></filter></defs></g></switch> </svg>