<?xml version="1.0" encoding="UTF-8" standalone="no"?>
<!-- Created with Inkscape (http://www.inkscape.org/) -->

<svg
   xmlns:dc="http://purl.org/dc/elements/1.1/"
   xmlns:cc="http://creativecommons.org/ns#"
   xmlns:rdf="http://www.w3.org/1999/02/22-rdf-syntax-ns#"
   xmlns:svg="http://www.w3.org/2000/svg"
   xmlns="http://www.w3.org/2000/svg"
   xmlns:xlink="http://www.w3.org/1999/xlink"
   xmlns:sodipodi="http://sodipodi.sourceforge.net/DTD/sodipodi-0.dtd"
   xmlns:inkscape="http://www.inkscape.org/namespaces/inkscape"
   width="256"
   height="256"
   viewBox="0 0 67.733332 67.733335"
   version="1.1"
   id="svg1488"
   inkscape:version="0.92.2 (unknown)"
   sodipodi:docname="isomaster.svg">
  <defs
     id="defs1482">
    <clipPath
       clipPathUnits="userSpaceOnUse"
       id="clipPath1025">
      <path
         id="path1027"
         d="M 111.94141,84 C 99.359506,84.145 90.1531,83.713998 82.625,87.867188 c -3.7641,2.0768 -6.751838,5.574737 -8.398438,9.960937 C 72.580062,102.21433 72,107.4241 72,114 v 42 h 160 v -26 c 0,-6.5759 -0.57996,-11.78566 -2.22656,-16.17188 -0.205,-0.5455 -0.47919,-1.03993 -0.74219,-1.54296 -0.1,-0.1848 -0.17844,-0.38051 -0.27344,-0.56641 -1.727,-3.38752 -4.25471,-6.14522 -7.38281,-7.87109 C 213.8463,99.694146 204.64049,100.1454 192.05859,100 H 192 151.66797 L 135.45312,84 h -23.49218 z"
         style="color:#000000;font-style:normal;font-variant:normal;font-weight:normal;font-stretch:normal;font-size:medium;line-height:normal;font-family:sans-serif;font-variant-ligatures:none;font-variant-position:normal;font-variant-caps:normal;font-variant-numeric:normal;font-variant-alternates:normal;font-feature-settings:normal;text-indent:0;text-align:start;text-decoration:none;text-decoration-line:none;text-decoration-style:solid;text-decoration-color:#000000;letter-spacing:normal;word-spacing:normal;text-transform:none;writing-mode:lr-tb;direction:ltr;baseline-shift:baseline;text-anchor:start;white-space:normal;shape-padding:0;clip-rule:nonzero;display:inline;overflow:visible;visibility:visible;opacity:1;isolation:auto;mix-blend-mode:normal;color-interpolation:sRGB;color-interpolation-filters:linearRGB;solid-color:#000000;solid-opacity:1;fill:#e3dfd5;fill-opacity:1;fill-rule:nonzero;stroke:none;stroke-width:4.00000048;stroke-linecap:butt;stroke-linejoin:miter;stroke-miterlimit:4;stroke-dasharray:none;stroke-dashoffset:0;stroke-opacity:1;marker:none;color-rendering:auto;image-rendering:auto;shape-rendering:auto;text-rendering:auto;enable-background:accumulate"
         inkscape:connector-curvature="0" />
    </clipPath>
    <linearGradient
       id="linearGradient1013"
       inkscape:collect="always">
      <stop
         id="stop1005"
         offset="0"
         style="stop-color:#ffffff;stop-opacity:1;" />
      <stop
         style="stop-color:#ffffff;stop-opacity:0.09803922"
         offset="0.125"
         id="stop1007" />
      <stop
         style="stop-color:#000000;stop-opacity:0.09803922"
         offset="0.92500001"
         id="stop1009" />
      <stop
         id="stop1011"
         offset="1"
         style="stop-color:#000000;stop-opacity:0.49803922" />
    </linearGradient>
    <clipPath
       clipPathUnits="userSpaceOnUse"
       id="clipPath1082-3">
      <path
         sodipodi:nodetypes="sssssssss"
         inkscape:connector-curvature="0"
         id="path1084-6"
         d="M 361.9375,-212 C 507.2348,-212 528,-191.28677 528,-46.125 V 70.125 C 528,215.28618 507.2348,236 361.9375,236 H 214.0625 C 68.7652,236 48,215.28618 48,70.125 V -46.125 C 48,-191.28677 68.7652,-212 214.0625,-212 Z"
         style="display:inline;opacity:1;fill:#8c59d9;fill-opacity:1;stroke:none;stroke-width:2;stroke-linecap:round;stroke-linejoin:round;stroke-miterlimit:4;stroke-dasharray:none;stroke-dashoffset:0;stroke-opacity:1;enable-background:new" />
    </clipPath>
    <clipPath
       clipPathUnits="userSpaceOnUse"
       id="clipPath1082-3-5">
      <path
         sodipodi:nodetypes="sssssssss"
         inkscape:connector-curvature="0"
         id="path1084-6-6"
         d="M 361.9375,-212 C 507.2348,-212 528,-191.28677 528,-46.125 V 70.125 C 528,215.28618 507.2348,236 361.9375,236 H 214.0625 C 68.7652,236 48,215.28618 48,70.125 V -46.125 C 48,-191.28677 68.7652,-212 214.0625,-212 Z"
         style="display:inline;opacity:1;fill:#8c59d9;fill-opacity:1;stroke:none;stroke-width:2;stroke-linecap:round;stroke-linejoin:round;stroke-miterlimit:4;stroke-dasharray:none;stroke-dashoffset:0;stroke-opacity:1;enable-background:new" />
    </clipPath>
    <filter
       inkscape:collect="always"
       style="color-interpolation-filters:sRGB"
       id="filter4569-2"
       x="-0.0116"
       width="1.0232"
       y="-0.012428571"
       height="1.024857">
      <feGaussianBlur
         inkscape:collect="always"
         stdDeviation="1.16"
         id="feGaussianBlur4571-9" />
    </filter>
    <filter
       inkscape:collect="always"
       style="color-interpolation-filters:sRGB"
       id="filter913"
       x="-0.0232"
       width="1.0464"
       y="-0.024857143"
       height="1.0497143">
      <feGaussianBlur
         inkscape:collect="always"
         stdDeviation="2.32"
         id="feGaussianBlur915" />
    </filter>
    <linearGradient
       inkscape:collect="always"
       xlink:href="#linearGradient1013"
       id="linearGradient906"
       gradientUnits="userSpaceOnUse"
       x1="296"
       y1="-212"
       x2="296"
       y2="236" />
    <linearGradient
       x1="12.2744"
       y1="32.4165"
       x2="35.391201"
       y2="14.2033"
       id="linearGradient2658"
       xlink:href="#linearGradient3263"
       gradientUnits="userSpaceOnUse"
       gradientTransform="matrix(0,2.2857343,-2.2857343,0,114.17591,10.346275)" />
    <linearGradient
       x1="12.2744"
       y1="32.4165"
       x2="35.391201"
       y2="14.2033"
       id="linearGradient3263"
       gradientUnits="userSpaceOnUse">
      <stop
         id="stop3265"
         style="stop-color:#dedbde;stop-opacity:1"
         offset="0" />
      <stop
         id="stop3267"
         style="stop-color:#e6e6e6;stop-opacity:1"
         offset="0.5" />
      <stop
         id="stop3269"
         style="stop-color:#d2d2d2;stop-opacity:1"
         offset="1" />
    </linearGradient>
    <linearGradient
       id="linearGradient23419">
      <stop
         id="stop23421"
         style="stop-color:#000000;stop-opacity:1"
         offset="0" />
      <stop
         id="stop23423"
         style="stop-color:#000000;stop-opacity:0"
         offset="1" />
    </linearGradient>
    <radialGradient
       gradientTransform="matrix(4.7516602,-0.41212984,0.41212984,4.7516602,12.493005,-9.8255983)"
       cx="5.9628973"
       cy="10.957597"
       r="1.5017668"
       fx="5.9628973"
       fy="10.957597"
       id="radialGradient3300-7"
       xlink:href="#linearGradient3293"
       gradientUnits="userSpaceOnUse" />
    <linearGradient
       id="linearGradient3293">
      <stop
         id="stop3296"
         style="stop-color:#ffc64e;stop-opacity:1"
         offset="0" />
      <stop
         id="stop3839"
         style="stop-color:#f3af00;stop-opacity:0.83137256"
         offset="0.30000001" />
      <stop
         id="stop3302"
         style="stop-color:#fbbe00;stop-opacity:0.47450981"
         offset="0.43782738" />
      <stop
         id="stop3298"
         style="stop-color:#ffb700;stop-opacity:0"
         offset="1" />
    </linearGradient>
    <linearGradient
       id="linearGradient2867-449-88-871-390-598-476-591-434-148-57-177-1-6">
      <stop
         id="stop3750-4-7"
         style="stop-color:#90b9ec;stop-opacity:1;"
         offset="0" />
      <stop
         id="stop3752-1-5"
         style="stop-color:#0c2771;stop-opacity:1;"
         offset="0.26238" />
      <stop
         id="stop3754-4-3"
         style="stop-color:#11225b;stop-opacity:1;"
         offset="0.704952" />
      <stop
         id="stop3756-7-5"
         style="stop-color:#030629;stop-opacity:1;"
         offset="1" />
    </linearGradient>
    <mask
       id="circle2">
      <g
         id="g">
        <g
           id="shape29">
          <path
             style="fill:#ffffff;fill-opacity:1"
             inkscape:connector-curvature="0"
             id="path20"
             d="m 969.75,392.05 c -1.1,-4.35 -2.35,-9 -3.65,-13.6 -2.5,-8.75 -5.35,-17.6 -8.45,-26.35 -6.45,-18.25 -14.15,-36.05 -23.15,-53.65 -3.8,-7.4 -7.95,-14.95 -12.3,-22.4 -20.3,-34.5 -45.8,-67.2 -76.35,-97.75 C 773.25,105.7 688.7,61.65 592.2,46.25 c -16.25,-2.6 -32.8,-4.4 -50.05,-5.35 -9.7,-0.55 -19.85,-0.85 -30.1,-0.85 -9.35,0 -18.6,0.25 -27.9,0.75 C 365.8,46.9 263.85,92.75 178.3,178.3 Q 40.05,316.55 40.05,512.05 c 0,130.35 46.1,241.65 138.25,333.8 70.4,70.35 151.9,113.85 243.95,130.4 20.45,3.65 40.9,6 61.9,7.1 0.15,0 0.25,0 0.4,0 8.5,0.45 16.6,0.7 24.5,0.7 1.2,0 2.1,0 3,0 10.3,0 20.5,-0.3 30.1,-0.8 2.5,-0.15 4.75,-0.3 6.95,-0.45 20.2,-1.45 39.9,-4.05 58.7,-7.7 7.95,-1.55 15.8,-3.3 23.4,-5.15 80.8,-20.3 152.15,-61.6 214.65,-124.1 48.6,-48.6 84.4,-102.5 107.35,-161.8 18.45,-47.65 28.65,-98.8 30.55,-153.5 0.2,-6.05 0.3,-12.25 0.3,-18.5 0,-0.65 0,-1.35 0,-2 0,-0.35 0,-0.65 0,-1 -0.1,-19.9 -1.25,-39.35 -3.55,-58.55 -2.4,-19.8 -5.95,-39.3 -10.75,-58.45 z" />
        </g>
      </g>
    </mask>
  </defs>
  <sodipodi:namedview
     id="base"
     pagecolor="#ffffff"
     bordercolor="#666666"
     borderopacity="1.0"
     inkscape:pageopacity="0.0"
     inkscape:pageshadow="2"
     inkscape:zoom="3.4544602"
     inkscape:cx="128"
     inkscape:cy="127.84507"
     inkscape:document-units="px"
     inkscape:current-layer="layer1"
     showgrid="false"
     units="px"
     inkscape:window-width="1920"
     inkscape:window-height="1008"
     inkscape:window-x="0"
     inkscape:window-y="34"
     inkscape:window-maximized="1">
    <inkscape:grid
       type="xygrid"
       id="grid2168" />
  </sodipodi:namedview>
  <metadata
     id="metadata1485">
    <rdf:RDF>
      <cc:Work
         rdf:about="">
        <dc:format>image/svg+xml</dc:format>
        <dc:type
           rdf:resource="http://purl.org/dc/dcmitype/StillImage" />
        <dc:title></dc:title>
      </cc:Work>
    </rdf:RDF>
  </metadata>
  <g
     inkscape:label="Livello 1"
     inkscape:groupmode="layer"
     id="layer1"
     transform="translate(0,-229.26666)">
    <path
       style="display:inline;opacity:0.2;fill:#000000;fill-opacity:1;stroke:none;stroke-width:2;stroke-linecap:round;stroke-linejoin:round;stroke-miterlimit:4;stroke-dasharray:none;stroke-dashoffset:0;stroke-opacity:1;filter:url(#filter913);enable-background:new"
       d="m 188.96876,45.999995 c 72.64865,0 83.03125,10.356615 83.03125,82.937505 v 58.125 c 0,72.58059 -10.3826,82.9375 -83.03125,82.9375 h -73.9375 C 42.382606,270 32.000006,259.64309 32.000006,187.0625 v -58.125 c 0,-72.58089 10.3826,-82.937505 83.031254,-82.937505 z"
       id="path899"
       inkscape:connector-curvature="0"
       sodipodi:nodetypes="sssssssss"
       transform="matrix(0.26970778,0,0,0.26970778,-7.1289177,220.56049)" />
    <path
       sodipodi:nodetypes="sssssssss"
       inkscape:connector-curvature="0"
       id="path4567-1"
       d="m 188.96876,43.999995 c 72.64865,0 83.03125,10.356615 83.03125,82.937505 v 58.125 c 0,72.58059 -10.3826,82.9375 -83.03125,82.9375 h -73.9375 C 42.382606,268 32.000006,257.64309 32.000006,185.0625 v -58.125 c 0,-72.58089 10.3826,-82.937505 83.031254,-82.937505 z"
       style="display:inline;opacity:0.1;fill:#000000;fill-opacity:1;stroke:none;stroke-width:2;stroke-linecap:round;stroke-linejoin:round;stroke-miterlimit:4;stroke-dasharray:none;stroke-dashoffset:0;stroke-opacity:1;filter:url(#filter4569-2);enable-background:new"
       transform="matrix(0.26970778,0,0,0.26970778,-7.1289177,220.56049)" />
    <path
       style="display:inline;opacity:1;fill:#4d4d4d;fill-opacity:1;stroke:none;stroke-width:0.5394156;stroke-linecap:round;stroke-linejoin:round;stroke-miterlimit:4;stroke-dasharray:none;stroke-dashoffset:0;stroke-opacity:1;enable-background:new"
       d="m 24.300553,232.42763 c -9.797337,0 -15.3941298,0.69699 -18.5445168,3.84334 -3.150381,3.14634 -3.849657,8.73736 -3.849657,18.52555 v 15.67677 c 0,9.78815 0.699276,15.3792 3.849657,18.52555 3.150387,3.14636 8.7471788,3.84333 18.5445168,3.84333 h 19.94152 c 9.797339,0 15.394134,-0.69697 18.544517,-3.84333 3.150384,-3.14635 3.849659,-8.7374 3.849659,-18.52555 v -15.67677 c 0,-9.78819 -0.699275,-15.37921 -3.849659,-18.52555 -3.150383,-3.14635 -8.74718,-3.84334 -18.544517,-3.84334 z"
       id="rect877-2"
       inkscape:connector-curvature="0" />
    <path
       style="display:inline;opacity:0.2;fill:#131313;fill-opacity:1;stroke:none;stroke-width:0.5394156;stroke-linecap:round;stroke-linejoin:round;stroke-miterlimit:4;stroke-dasharray:none;stroke-dashoffset:0;stroke-opacity:1;enable-background:new"
       d="m 1.5017313,269.93387 v 0.53942 c 0,9.78815 0.699276,15.3792 3.849657,18.52555 3.150387,3.14636 8.7471787,3.84333 18.5445167,3.84333 h 19.94152 c 9.797339,0 15.394134,-0.69697 18.544517,-3.84333 3.150384,-3.14635 3.849659,-8.7374 3.849659,-18.52555 v -0.53942 c 0,9.78815 -0.699275,15.3792 -3.849659,18.52555 -3.150383,3.14636 -8.747178,3.84334 -18.544517,3.84334 h -19.94152 c -9.797338,0 -15.3941297,-0.69698 -18.5445167,-3.84334 -3.150381,-3.14635 -3.849657,-8.7374 -3.849657,-18.52555 z"
       id="path917"
       inkscape:connector-curvature="0" />
    <path
       style="display:inline;opacity:0.05;fill:#ffffff;fill-opacity:1;stroke:none;stroke-width:0.52139008;stroke-linecap:round;stroke-linejoin:round;stroke-miterlimit:4;stroke-dasharray:none;stroke-dashoffset:0;stroke-opacity:1;enable-background:new"
       d="m 1.5017313,262.60416 v 9.33914 c 0,9.14491 0.699276,14.36853 3.849657,17.30811 3.150387,2.93959 8.7471787,3.59076 18.5445167,3.59076 h 19.94152 c 9.797339,0 15.394134,-0.65117 18.544517,-3.59076 3.150384,-2.93958 3.849659,-8.1632 3.849659,-17.30811 v -9.33914 z"
       id="path897"
       inkscape:connector-curvature="0" />
    <g
       id="g1930"
       transform="matrix(0.52916667,0,0,0.52916667,1.3888314,228.13117)">
      <path
         style="fill:url(#linearGradient2658);fill-rule:nonzero;stroke:none;stroke-width:0.72072083;stroke-miterlimit:4;stroke-opacity:1"
         id="path2781"
         d="m 101.37543,65.203913 c 0,-22.17163 -17.82837,-39.999999 -39.999997,-39.999999 -22.171632,0 -39.999998,17.82837 -39.999998,39.999999 -3e-6,22.171628 17.828369,39.999997 39.999998,39.999997 22.171624,-10e-6 39.999997,-17.828367 39.999997,-39.999997 z m -25.365851,0 c 0,8.054886 -6.418087,14.634146 -14.634146,14.634146 -8.377229,0 -14.634146,-6.742074 -14.634146,-14.634146 0,-8.053274 5.93457,-14.634146 14.634146,-14.634146 8.699575,0 14.634146,6.740428 14.634146,14.634146 z"
         inkscape:connector-curvature="0" />
      <path
         style="display:inline;overflow:visible;visibility:visible;fill:none;stroke:none;stroke-width:0.72072083;stroke-linecap:butt;stroke-linejoin:round;stroke-miterlimit:4;stroke-dasharray:none;stroke-dashoffset:0;stroke-opacity:1;marker:none;enable-background:accumulate"
         id="path3418"
         d="m 61.375433,50.569767 c -8.078048,0 -14.634146,6.556097 -14.634146,14.634146 0,8.078048 6.556098,14.634146 14.634146,14.634146 8.078047,0 14.634146,-6.556098 14.634146,-14.634146 0,-8.078049 -6.556099,-14.634146 -14.634146,-14.634146 z m 0,7.317072 c 4.039024,0 7.317073,3.278049 7.317073,7.317074 0,4.039024 -3.278049,7.317072 -7.317073,7.317072 -4.039024,0 -7.317073,-3.278048 -7.317073,-7.317072 0,-4.039025 3.278049,-7.317074 7.317073,-7.317074 z"
         inkscape:connector-curvature="0" />
      <g
         id="g935"
         transform="matrix(1.4810728,0,0,1.4810728,22.500165,-338.78264)">
        <g
           mask="url(#circle2)"
           id="masked"
           transform="matrix(0.0797781,0,0,0.0797781,-2.6891497,223.82168)">
          <g
             id="Calque.__209">
            <g
               id="shape16"
               transform="matrix(1.0716202,0,0,1.0986416,-44.089108,-36.709858)">
              <path
                 style="fill:#59639a;fill-opacity:1;stroke-width:0.25641215"
                 d="M 230.6582 21.472656 C 229.33181 20.67512 228.02777 19.860912 226.53711 19.185547 C 224.41905 18.225928 222.12995 17.385394 219.6582 16.650391 C 217.18645 15.915387 214.53102 15.286259 211.67969 14.75 C 208.82835 14.213741 205.78026 13.77159 202.52344 13.408203 C 201.83356 13.331228 201.02714 13.294531 200.31836 13.224609 L 188.29102 39.976562 C 187.16411 42.494923 187.82287 44.33881 190.2793 45.494141 L 239.02734 68.535156 C 240.52146 69.236143 241.77416 69.262349 242.78711 68.613281 L 215.31055 55.617188 L 230.6582 21.472656 z "
                 id="path932"
                 transform="matrix(3.9488353,0,0,3.8517125,-125.8293,106.07446)" />
              <path
                 style="fill:#212d74;fill-opacity:1;stroke-width:0.25641215"
                 d="M 249.5 55.171875 C 249.33861 54.159688 249.22528 53.03488 249.04297 52.068359 C 248.50569 49.219946 247.87688 46.566771 247.14062 44.097656 C 246.40437 41.628541 245.56071 39.344206 244.59961 37.228516 C 243.63851 35.112826 242.55946 33.167045 241.34766 31.378906 C 240.13586 29.590768 238.7911 27.959116 237.30273 26.472656 C 235.81436 24.986192 234.18284 23.645653 232.39258 22.435547 C 231.86227 22.077095 231.21647 21.808331 230.6582 21.472656 L 215.31055 55.617188 L 242.78711 68.613281 C 243.42021 68.171919 243.96503 67.482668 244.4082 66.496094 L 249.5 55.171875 z "
                 id="path937"
                 transform="matrix(3.9488353,0,0,3.8517125,-125.8293,106.07446)" />
            </g>
          </g>
          <g
             id="Calque.__210">
            <g
               id="shape20">
              <path
                 style="fill:#4b5483;fill-opacity:1;stroke-width:0.23631436"
                 d="M 249.85938 57.615234 C 249.59908 55.740659 249.3688 53.79579 249.04297 52.068359 C 248.50569 49.219946 247.87688 46.566771 247.14062 44.097656 C 246.93358 43.403293 246.64988 42.831693 246.42578 42.166016 C 245.40605 41.727348 244.68452 41.325517 244.63672 41.003906 L 224.91992 31.919922 L 200 86 L 225.46289 97.734375 L 228.54688 99.150391 C 230.82731 100.20199 232.50505 99.589026 233.55664 97.308594 L 246.27148 69.699219 C 246.25557 66.713029 248.0638 62.109055 249.85938 57.615234 z "
                 id="path13"
                 transform="matrix(4.2316516,0,0,4.2316516,-178.93033,79.827955)" />
              <path
                 d="M 775.15,493.4 667.4,443.75 v 0 L 504.2,797.95 560.86839,748.09386 730.05,599.25 c 13.65,-11.95 24.45,-26.75 32.6,-44.45 9.36667,-20.26667 13.53333,-40.73333 12.5,-61.4 z"
                 id="path15"
                 inkscape:connector-curvature="0"
                 style="fill:#c3c24b;fill-opacity:1"
                 sodipodi:nodetypes="cccccccc" />
              <path
                 d="m 772.85,214.9 -120.8,-55.7 c -9.65,-4.45 -16.7,-1.85 -21.2,7.8 L 538.8,366.85 c -4.45,9.65 -1.85,16.75 7.8,21.2 l 13.1,6.05 107.7,49.65 z"
                 id="path14"
                 inkscape:connector-curvature="0"
                 style="fill:#7580be;fill-opacity:1" />
              <path
                 style="fill:#ede667;fill-opacity:1;stroke-width:0.23631434"
                 d="M 172.37695 145.95117 L 161.83789 141.73438 L 161.43359 169.70312 L 172.37695 145.95117 z "
                 id="path968"
                 transform="matrix(4.2316516,0,0,4.2316516,-178.93033,79.827955)" />
              <path
                 style="fill:#ede667;fill-opacity:1;stroke-width:0.23631434"
                 d="M 174.54883 74.267578 C 170.66146 77.256955 167.62555 81.144322 165.41602 85.929688 C 163.44279 90.218793 162.44932 94.519003 162.4375 98.867188 C 162.4375 98.91445 162.4374 98.9626 162.44922 98.998047 C 162.4374 99.139835 162.44922 99.268271 162.44922 99.421875 L 161.83789 141.73438 L 172.37695 145.95117 L 200 86 L 174.54883 74.267578 z "
                 id="path19"
                 transform="matrix(4.2316516,0,0,4.2316516,-178.93033,79.827955)" />
            </g>
          </g>
          <g
             transform="translate(0.59356775,1.0718589)"
             id="g993" />
        </g>
      </g>
    </g>
    <path
       sodipodi:nodetypes="sssssssss"
       inkscape:connector-curvature="0"
       id="path1068-7"
       d="M 361.9375,-212 C 507.2348,-212 528,-191.28677 528,-46.125 V 70.125 C 528,215.28618 507.2348,236 361.9375,236 H 214.0625 C 68.7652,236 48,215.28618 48,70.125 V -46.125 C 48,-191.28677 68.7652,-212 214.0625,-212 Z"
       style="display:inline;opacity:0.4;fill:none;fill-opacity:1;stroke:url(#linearGradient906);stroke-width:8;stroke-linecap:round;stroke-linejoin:round;stroke-miterlimit:4;stroke-dasharray:none;stroke-dashoffset:0;stroke-opacity:1;enable-background:new"
       clip-path="url(#clipPath1082-3-5)"
       transform="matrix(0.13485389,0,0,0.13485389,-4.9712557,261.01666)" />
    <path
       style="fill:#363636;fill-opacity:1;stroke:none;stroke-width:0.26458332px;stroke-linecap:butt;stroke-linejoin:miter;stroke-opacity:1"
       d="m 42.712613,274.16712 5.774955,-5.07024 -5.66796,-2.32967 z"
       id="path963"
       inkscape:connector-curvature="0"
       sodipodi:nodetypes="cccc" />
  </g>
</svg>
