<?xml version="1.0" encoding="UTF-8" standalone="no"?>
<svg
   xmlns:dc="http://purl.org/dc/elements/1.1/"
   xmlns:cc="http://creativecommons.org/ns#"
   xmlns:rdf="http://www.w3.org/1999/02/22-rdf-syntax-ns#"
   xmlns:svg="http://www.w3.org/2000/svg"
   xmlns="http://www.w3.org/2000/svg"
   xmlns:xlink="http://www.w3.org/1999/xlink"
   xmlns:sodipodi="http://sodipodi.sourceforge.net/DTD/sodipodi-0.dtd"
   xmlns:inkscape="http://www.inkscape.org/namespaces/inkscape"
   viewBox="0 0 256 256"
   version="1.1"
   id="svg16"
   sodipodi:docname="33.svg"
   width="256"
   height="256"
   inkscape:version="0.92.3 (2405546, 2018-03-11)">
  <metadata
     id="metadata20">
    <rdf:RDF>
      <cc:Work
         rdf:about="">
        <dc:format>image/svg+xml</dc:format>
        <dc:type
           rdf:resource="http://purl.org/dc/dcmitype/StillImage" />
        <dc:title></dc:title>
      </cc:Work>
    </rdf:RDF>
  </metadata>
  <sodipodi:namedview
     pagecolor="#ffffff"
     bordercolor="#666666"
     borderopacity="1"
     objecttolerance="10"
     gridtolerance="10"
     guidetolerance="10"
     inkscape:pageopacity="0"
     inkscape:pageshadow="2"
     inkscape:window-width="1920"
     inkscape:window-height="1009"
     id="namedview18"
     showgrid="false"
     inkscape:zoom="3.2421875"
     inkscape:cx="124.44594"
     inkscape:cy="120.73064"
     inkscape:window-x="0"
     inkscape:window-y="34"
     inkscape:window-maximized="1"
     inkscape:current-layer="svg16" />
  <defs
     id="defs3">
    <path
       id="a"
       d="M 44.5,20 H 24 v 8.5 H 35.8 C 34.7,33.9 30.1,37 24,37 16.8,37 11,31.2 11,24 c 0,-7.2 5.8,-13 13,-13 3.1,0 5.9,1.1 8.1,2.9 L 38.5,7.5 C 34.6,4.1 29.6,2 24,2 11.8,2 2,11.8 2,24 c 0,12.2 9.8,22 22,22 11,0 21,-8 21,-22 0,-1.3 -0.2,-2.7 -0.5,-4 z"
       inkscape:connector-curvature="0" />
    <clipPath
       clipPathUnits="userSpaceOnUse"
       id="clipPath1082-3-361">
      <path
         sodipodi:nodetypes="sssssssss"
         inkscape:connector-curvature="0"
         id="path1084-6-29"
         d="M 361.9375,-212 C 507.2348,-212 528,-191.28677 528,-46.125 V 70.125 C 528,215.28618 507.2348,236 361.9375,236 H 214.0625 C 68.7652,236 48,215.28618 48,70.125 V -46.125 C 48,-191.28677 68.7652,-212 214.0625,-212 Z"
         style="display:inline;opacity:1;fill:#8c59d9;fill-opacity:1;stroke:none;stroke-width:2;stroke-linecap:round;stroke-linejoin:round;stroke-miterlimit:4;stroke-dasharray:none;stroke-dashoffset:0;stroke-opacity:1;enable-background:new" />
    </clipPath>
    <filter
       inkscape:collect="always"
       style="color-interpolation-filters:sRGB"
       id="filter939"
       x="-0.0232"
       width="1.0464"
       y="-0.024857143"
       height="1.0497143">
      <feGaussianBlur
         inkscape:collect="always"
         stdDeviation="2.32"
         id="feGaussianBlur941" />
    </filter>
    <filter
       inkscape:collect="always"
       style="color-interpolation-filters:sRGB"
       id="filter4569"
       x="-0.0116"
       width="1.0232"
       y="-0.012428571"
       height="1.024857">
      <feGaussianBlur
         inkscape:collect="always"
         stdDeviation="1.16"
         id="feGaussianBlur4571" />
    </filter>
    <linearGradient
       gradientTransform="matrix(1.0193681,0,0,1.0193681,-26.94392,-32.90518)"
       inkscape:collect="always"
       xlink:href="#linearGradient4245"
       id="linearGradient1044"
       x1="88"
       y1="28"
       x2="256"
       y2="284"
       gradientUnits="userSpaceOnUse" />
    <linearGradient
       id="linearGradient4245"
       inkscape:collect="always">
      <stop
         id="stop4241"
         offset="0"
         style="stop-color:#e8e8e8;stop-opacity:1" />
      <stop
         id="stop4243"
         offset="1"
         style="stop-color:#f5f5f5;stop-opacity:1" />
    </linearGradient>
    <linearGradient
       inkscape:collect="always"
       xlink:href="#linearGradient1013"
       id="linearGradient1108"
       x1="296"
       y1="-212"
       x2="296"
       y2="236"
       gradientUnits="userSpaceOnUse" />
    <linearGradient
       id="linearGradient1013"
       inkscape:collect="always">
      <stop
         id="stop1005"
         offset="0"
         style="stop-color:#ffffff;stop-opacity:1;" />
      <stop
         style="stop-color:#ffffff;stop-opacity:0.09803922"
         offset="0.125"
         id="stop1007" />
      <stop
         style="stop-color:#000000;stop-opacity:0.09803922"
         offset="0.92500001"
         id="stop1009" />
      <stop
         id="stop1011"
         offset="1"
         style="stop-color:#000000;stop-opacity:0.49803922" />
    </linearGradient>
    <clipPath
       clipPathUnits="userSpaceOnUse"
       id="clipPath1082-3-361-3">
      <path
         sodipodi:nodetypes="sssssssss"
         inkscape:connector-curvature="0"
         id="path1084-6-29-6"
         d="M 361.9375,-212 C 507.2348,-212 528,-191.28677 528,-46.125 V 70.125 C 528,215.28618 507.2348,236 361.9375,236 H 214.0625 C 68.7652,236 48,215.28618 48,70.125 V -46.125 C 48,-191.28677 68.7652,-212 214.0625,-212 Z"
         style="display:inline;opacity:1;fill:#8c59d9;fill-opacity:1;stroke:none;stroke-width:2;stroke-linecap:round;stroke-linejoin:round;stroke-miterlimit:4;stroke-dasharray:none;stroke-dashoffset:0;stroke-opacity:1;enable-background:new" />
    </clipPath>
  </defs>
  <clipPath
     id="b">
    <use
       xlink:href="#a"
       overflow="visible"
       id="use5"
       style="overflow:visible"
       x="0"
       y="0"
       width="100%"
       height="100%" />
  </clipPath>
  <g
     transform="matrix(2.372035,0,0,2.372035,-20.736914,115.42106)"
     id="g983" />
  <path
     style="display:inline;opacity:0.2;fill:#000000;fill-opacity:1;stroke:none;stroke-width:2;stroke-linecap:round;stroke-linejoin:round;stroke-miterlimit:4;stroke-dasharray:none;stroke-dashoffset:0;stroke-opacity:1;filter:url(#filter939);enable-background:new"
     d="m 162.53675,5.5680001 c 72.64865,0 83.03125,10.3566149 83.03125,82.9375049 v 58.125005 c 0,72.58059 -10.3826,82.9375 -83.03125,82.9375 H 88.599254 C 15.9506,229.56801 5.568,219.2111 5.568,146.63051 V 88.505505 c 0,-72.58089 10.3826,-82.9375049 83.031254,-82.9375049 z"
     id="path937"
     inkscape:connector-curvature="0"
     sodipodi:nodetypes="sssssssss"
     transform="matrix(1.019368,0,0,1.019368,-7.218177e-8,8.3098661)" />
  <path
     sodipodi:nodetypes="sssssssss"
     inkscape:connector-curvature="0"
     id="path4558"
     d="m 165.68476,11.946973 c 74.05572,0 84.63942,10.557203 84.63942,84.543837 v 59.25074 c 0,73.98633 -10.5837,84.54384 -84.63942,84.54384 H 90.315243 c -74.055724,0 -84.6393841,-10.55751 -84.6393841,-84.54384 V 96.49081 c 0,-73.986634 10.5836601,-84.543837 84.6393841,-84.543837 z"
     style="display:inline;opacity:0.1;fill:none;fill-opacity:1;stroke:#000000;stroke-width:4.07747173;stroke-linecap:round;stroke-linejoin:round;stroke-miterlimit:4;stroke-dasharray:none;stroke-dashoffset:0;stroke-opacity:1;enable-background:new" />
  <path
     sodipodi:nodetypes="sssssssss"
     inkscape:connector-curvature="0"
     id="path4567"
     d="m 162.53675,3.5680001 c 72.64865,0 83.03125,10.3566149 83.03125,82.9375049 v 58.125005 c 0,72.58059 -10.3826,82.9375 -83.03125,82.9375 H 88.599254 C 15.9506,227.56801 5.568,217.2111 5.568,144.63051 V 86.505505 c 0,-72.58089 10.3826,-82.9375049 83.031254,-82.9375049 z"
     style="display:inline;opacity:0.1;fill:#000000;fill-opacity:1;stroke:none;stroke-width:2;stroke-linecap:round;stroke-linejoin:round;stroke-miterlimit:4;stroke-dasharray:none;stroke-dashoffset:0;stroke-opacity:1;filter:url(#filter4569);enable-background:new"
     transform="matrix(1.019368,0,0,1.019368,-7.218177e-8,8.3098661)" />
  <path
     style="display:inline;opacity:1;fill:url(#linearGradient1044);fill-opacity:1;stroke:none;stroke-width:2.03873587;stroke-linecap:round;stroke-linejoin:round;stroke-miterlimit:4;stroke-dasharray:none;stroke-dashoffset:0;stroke-opacity:1;enable-background:new"
     d="m 165.68476,11.946973 c 74.05572,0 84.63938,10.557203 84.63938,84.543837 v 59.25074 c 0,73.98633 -10.58366,84.54384 -84.63938,84.54384 H 90.315243 c -74.055724,0 -84.6394221,-10.55751 -84.6394221,-84.54384 V 96.49081 c 0,-73.986634 10.5836981,-84.543837 84.6394221,-84.543837 z"
     id="rect877"
     inkscape:connector-curvature="0"
     sodipodi:nodetypes="sssssssss" />
  <path
     sodipodi:nodetypes="sssssssss"
     inkscape:connector-curvature="0"
     id="path1068"
     d="M 361.9375,-212 C 507.2348,-212 528,-191.28677 528,-46.125 V 70.125 C 528,215.28618 507.2348,236 361.9375,236 H 214.0625 C 68.7652,236 48,215.28618 48,70.125 V -46.125 C 48,-191.28677 68.7652,-212 214.0625,-212 Z"
     style="display:inline;opacity:0.4;fill:none;fill-opacity:1;stroke:url(#linearGradient1108);stroke-width:8;stroke-linecap:round;stroke-linejoin:round;stroke-miterlimit:4;stroke-dasharray:none;stroke-dashoffset:0;stroke-opacity:1;enable-background:new"
     clip-path="url(#clipPath1082-3-361-3)"
     transform="matrix(0.50968403,0,0,0.50968403,-18.78898,120)" />
  <g
     transform="matrix(0.82404106,0,0,0.82404106,18.91763,14.242536)"
     style="stroke-miterlimit:10"
     id="g3120">
    <g
       id="g1714">
      <path
         style="fill:#9a9a9a;stroke:none;stroke-width:2"
         id="ellipse12"
         d="m 164.64492,135.76222 c 0,17.82223 -14.44777,32.27 -32.27,32.27 -17.82223,0 -32.27,-14.44777 -32.27,-32.27 0,-17.82223 14.44777,-32.27 32.27,-32.27 17.82223,0 32.27,14.44777 32.27,32.27 z"
         inkscape:connector-curvature="0" />
    </g>
  </g>
  <path
     style="display:inline;opacity:0.2;fill:#ffffff;fill-opacity:1;stroke:none;stroke-width:2.04130435;stroke-linecap:round;stroke-linejoin:round;stroke-miterlimit:4;stroke-dasharray:none;stroke-dashoffset:0;stroke-opacity:1;enable-background:new"
     d="M 127.69156,11.946973 V 240.28539 h 37.77977 c 74.24243,0 84.85281,-10.55751 84.85281,-84.54384 V 96.49081 c 0,-73.986634 -10.61038,-84.543837 -84.85281,-84.543837 z"
     id="path1099"
     inkscape:connector-curvature="0" />
  <path
     style="display:inline;opacity:0.25;fill:#ffffff;fill-opacity:1;stroke:none;stroke-width:2.03873587;stroke-linecap:round;stroke-linejoin:round;stroke-miterlimit:4;stroke-dasharray:none;stroke-dashoffset:0;stroke-opacity:1;enable-background:new"
     d="m 90.315243,240.28539 c -74.055724,0 -84.6394221,-10.55721 -84.6394221,-84.54384 V 126.11623 H 250.32414 v 29.62532 c 0,73.98663 -10.58366,84.54384 -84.63938,84.54384 z"
     id="path1107"
     inkscape:connector-curvature="0" />
  <g
     id="g2468"
     transform="matrix(3.7795276,0,0,3.7795276,798.79121,-362.05903)">
    <path
       style="fill:#dadada;fill-opacity:1;stroke:none;stroke-width:0.21802753;stroke-miterlimit:10"
       id="ellipse22"
       d="m -171.04524,150.10761 c 0,1.50516 -1.22018,2.72534 -2.72534,2.72534 -1.50517,0 -2.72535,-1.22018 -2.72535,-2.72534 0,-1.50517 1.22018,-2.72535 2.72535,-2.72535 1.50516,0 2.72534,1.22018 2.72534,2.72535 z"
       inkscape:connector-curvature="0" />
    <path
       style="fill:#ca0202;stroke-width:0.21802753;stroke-miterlimit:10"
       id="ellipse24"
       d="m -172.86577,146.1068 c 0,2.7093 -2.19632,4.90562 -4.90562,4.90562 -2.7093,0 -4.90562,-2.19632 -4.90562,-4.90562 0,-2.7093 2.19632,-4.90562 4.90562,-4.90562 2.7093,0 4.90562,2.19632 4.90562,4.90562 z"
       inkscape:connector-curvature="0" />
    <path
       style="fill:#dadada;fill-opacity:1;stroke:none;stroke-width:0.21802753;stroke-miterlimit:10"
       id="ellipse26"
       d="m -178.46254,150.10761 c 0,1.50516 -1.22017,2.72534 -2.72534,2.72534 -1.50517,0 -2.72534,-1.22018 -2.72534,-2.72534 0,-1.50517 1.22017,-2.72535 2.72534,-2.72535 1.50517,0 2.72534,1.22018 2.72534,2.72535 z"
       inkscape:connector-curvature="0" />
    <path
       inkscape:connector-curvature="0"
       d="m -185.34321,108.64589 c -0.0634,-1.50383 1.10425,-2.77434 2.60808,-2.83777 1.50383,-0.0634 2.77434,1.10425 2.83777,2.60808 0.0634,1.50383 -1.10425,2.77434 -2.60808,2.83777 -1.50383,0.0634 -2.77434,-1.10425 -2.83777,-2.60808 z"
       id="ellipse2611"
       style="fill:#dadada;fill-opacity:1;stroke:none;stroke-width:0.21802753;stroke-miterlimit:10" />
    <path
       inkscape:connector-curvature="0"
       d="m -183.3557,112.56643 c -0.11417,-2.70689 1.98765,-4.99381 4.69454,-5.10798 2.70689,-0.11417 4.99381,1.98765 5.10798,4.69454 0.11417,2.70689 -1.98765,4.99381 -4.69454,5.10798 -2.70689,0.11417 -4.99381,-1.98765 -5.10798,-4.69454 z"
       id="ellipse2613"
       style="fill:#ca0202;stroke-width:0.21802753;stroke-miterlimit:10" />
    <path
       inkscape:connector-curvature="0"
       d="m -177.9325,108.33333 c -0.0634,-1.50383 1.10425,-2.77434 2.60808,-2.83777 1.50383,-0.0634 2.77434,1.10425 2.83777,2.60808 0.0634,1.50383 -1.10425,2.77434 -2.60808,2.83777 -1.50383,0.0634 -2.77434,-1.10425 -2.83777,-2.60808 z"
       id="ellipse2615"
       style="fill:#dadada;fill-opacity:1;stroke:none;stroke-width:0.21802753;stroke-miterlimit:10" />
    <path
       style="fill:#dadada;fill-opacity:1;stroke:none;stroke-width:0.21802753;stroke-miterlimit:10"
       id="ellipse2640"
       d="m -155.53667,134.77021 c 1.20258,0.90516 1.44368,2.61383 0.53852,3.81641 -0.90517,1.20258 -2.61384,1.44368 -3.81642,0.53851 -1.20258,-0.90517 -1.44368,-2.61383 -0.53851,-3.81641 0.90517,-1.20258 2.61383,-1.44368 3.81641,-0.53851 z"
       inkscape:connector-curvature="0" />
    <path
       style="fill:#ca0202;stroke-width:0.21802753;stroke-miterlimit:10"
       id="ellipse2642"
       d="m -159.828,133.81877 c 2.16464,1.62931 2.59862,4.7049 0.96932,6.86955 -1.6293,2.16464 -4.7049,2.59862 -6.86955,0.96932 -2.16464,-1.6293 -2.59862,-4.7049 -0.96932,-6.86954 1.6293,-2.16465 4.7049,-2.59863 6.86955,-0.96933 z"
       inkscape:connector-curvature="0" />
    <path
       style="fill:#dadada;fill-opacity:1;stroke:none;stroke-width:0.21802753;stroke-miterlimit:10"
       id="ellipse2644"
       d="m -159.99724,140.69639 c 1.20258,0.90517 1.44368,2.61384 0.53852,3.81641 -0.90517,1.20258 -2.61384,1.44368 -3.81642,0.53852 -1.20258,-0.90517 -1.44368,-2.61384 -0.53851,-3.81642 0.90517,-1.20258 2.61383,-1.44368 3.81641,-0.53851 z"
       inkscape:connector-curvature="0" />
    <path
       style="fill:#dadada;fill-opacity:1;stroke:none;stroke-width:0.21802753;stroke-miterlimit:10"
       id="ellipse2691"
       d="m -163.48643,109.49275 c 1.30322,-0.75309 2.97019,-0.30712 3.72328,0.99609 0.75309,1.30322 0.30713,2.97019 -0.99609,3.72328 -1.30322,0.75309 -2.97019,0.30713 -3.72328,-0.99609 -0.75309,-1.30322 -0.30713,-2.97018 0.99609,-3.72328 z"
       inkscape:connector-curvature="0" />
    <path
       style="fill:#ca0202;stroke-width:0.21802753;stroke-miterlimit:10"
       id="ellipse2693"
       d="m -166.03957,113.07078 c 2.3458,-1.35557 5.34634,-0.55283 6.7019,1.79296 1.35557,2.3458 0.55283,5.34634 -1.79296,6.70191 -2.34579,1.35556 -5.34634,0.55283 -6.7019,-1.79297 -1.35557,-2.34579 -0.55283,-5.34633 1.79296,-6.7019 z"
       inkscape:connector-curvature="0" />
    <path
       style="fill:#dadada;fill-opacity:1;stroke:none;stroke-width:0.21802753;stroke-miterlimit:10"
       id="ellipse2695"
       d="m -159.77527,115.91487 c 1.30322,-0.75309 2.97019,-0.30712 3.72328,0.99609 0.75309,1.30322 0.30712,2.97019 -0.9961,3.72328 -1.30321,0.75309 -2.97018,0.30713 -3.72327,-0.99609 -0.75309,-1.30322 -0.30713,-2.97018 0.99609,-3.72328 z"
       inkscape:connector-curvature="0" />
    <path
       style="fill:#dadada;fill-opacity:1;stroke:none;stroke-width:0.21802753;stroke-miterlimit:10"
       id="ellipse2731"
       d="m -192.89578,144.24163 c -1.34153,0.68251 -2.98234,0.14826 -3.66485,-1.19327 -0.68251,-1.34153 -0.14827,-2.98234 1.19326,-3.66485 1.34153,-0.68251 2.98234,-0.14826 3.66485,1.19327 0.68251,1.34153 0.14827,2.98234 -1.19326,3.66485 z"
       inkscape:connector-curvature="0" />
    <path
       style="fill:#ca0202;stroke-width:0.21802753;stroke-miterlimit:10"
       id="ellipse2733"
       d="m -190.15544,140.80487 c -2.41475,1.22852 -5.36821,0.26688 -6.59672,-2.14787 -1.22852,-2.41476 -0.26689,-5.36822 2.14787,-6.59673 2.41476,-1.22852 5.36821,-0.26689 6.59673,2.14787 1.22852,2.41476 0.26688,5.36821 -2.14788,6.59673 z"
       inkscape:connector-curvature="0" />
    <path
       style="fill:#dadada;fill-opacity:1;stroke:none;stroke-width:0.21802753;stroke-miterlimit:10"
       id="ellipse2735"
       d="m -196.25912,137.6307 c -1.34153,0.68251 -2.98234,0.14827 -3.66485,-1.19326 -0.68251,-1.34153 -0.14826,-2.98234 1.19327,-3.66485 1.34153,-0.68251 2.98234,-0.14827 3.66485,1.19326 0.68251,1.34154 0.14826,2.98234 -1.19327,3.66485 z"
       inkscape:connector-curvature="0" />
    <path
       style="fill:#dadada;fill-opacity:1;stroke:none;stroke-width:0.21802753;stroke-miterlimit:10"
       id="ellipse2771"
       d="m -199.3127,123.93153 c -1.24632,-0.84393 -1.57251,-2.53841 -0.72858,-3.78473 0.84393,-1.24631 2.53841,-1.57251 3.78473,-0.72858 1.24631,0.84394 1.57251,2.53842 0.72858,3.78473 -0.84393,1.24632 -2.53841,1.57251 -3.78473,0.72858 z"
       inkscape:connector-curvature="0" />
    <path
       style="fill:#ca0202;stroke-width:0.21802753;stroke-miterlimit:10"
       id="ellipse2773"
       d="m -194.97917,124.6673 c -2.24337,-1.51908 -2.83053,-4.56914 -1.31145,-6.81251 1.51908,-2.24337 4.56914,-2.83053 6.81251,-1.31145 2.24337,1.51908 2.83052,4.56914 1.31145,6.81251 -1.51908,2.24337 -4.56915,2.83053 -6.81251,1.31145 z"
       inkscape:connector-curvature="0" />
    <path
       style="fill:#dadada;fill-opacity:1;stroke:none;stroke-width:0.21802753;stroke-miterlimit:10"
       id="ellipse2775"
       d="m -195.15389,117.78982 c -1.24632,-0.84393 -1.57252,-2.53841 -0.72859,-3.78473 0.84394,-1.24632 2.53842,-1.57251 3.78473,-0.72858 1.24632,0.84393 1.57252,2.53841 0.72858,3.78473 -0.84393,1.24631 -2.53841,1.57251 -3.78472,0.72858 z"
       inkscape:connector-curvature="0" />
  </g>
</svg>
