<svg xmlns="http://www.w3.org/2000/svg" style="isolation:isolate" width="256" height="256"><switch><g><defs><filter id="a" width="270.648" height="254.338" x="-6.66" y="4.28" filterUnits="userSpaceOnUse"><feGaussianBlur xmlns="http://www.w3.org/2000/svg" in="SourceGraphic" stdDeviation="4.294"/><feOffset xmlns="http://www.w3.org/2000/svg" dy="4" result="pf_100_offsetBlur"/><feFlood xmlns="http://www.w3.org/2000/svg" flood-opacity=".4"/><feComposite xmlns="http://www.w3.org/2000/svg" in2="pf_100_offsetBlur" operator="in" result="pf_100_dropShadow"/><feBlend xmlns="http://www.w3.org/2000/svg" in="SourceGraphic" in2="pf_100_dropShadow"/></filter></defs><g filter="url(#a)"><linearGradient id="b" x1=".233" x2=".933" y1="-.071" y2=".995" gradientTransform="matrix(244.648 0 0 228.338 6.343 13.28)" gradientUnits="userSpaceOnUse"><stop offset="0%" stop-color="#e8e8e8"/><stop offset="100%" stop-color="#f5f5f5"/></linearGradient><path fill="url(#b)" d="M166.351 13.28c74.056 0 84.64 10.557 84.64 84.544v59.251c0 73.986-10.584 84.544-84.64 84.544H90.982c-74.056 0-84.639-10.558-84.639-84.544V97.824c0-73.987 10.583-84.544 84.639-84.544h75.369z"/></g><g opacity=".4"><linearGradient id="c" x1=".517" x2=".517" y2="1"><stop offset="0%" stop-color="#fff"/><stop offset="12.5%" stop-opacity=".098" stop-color="#fff"/><stop offset="92.5%" stop-opacity=".098"/><stop offset="100%" stop-opacity=".498"/></linearGradient><path fill="none" stroke="url(#c)" stroke-linecap="round" stroke-linejoin="round" stroke-width="4.077" d="M165.685 11.947c74.055 0 84.639 10.557 84.639 84.544v59.251c0 73.986-10.584 84.543-84.639 84.543h-75.37c-74.055 0-84.639-10.557-84.639-84.543V96.491c0-73.987 10.584-84.544 84.639-84.544h75.37z" vector-effect="non-scaling-stroke"/></g><g filter="url(#d)"><path fill="#9A9A9A" d="M149.09 127.5c0 11.902-9.648 21.55-21.55 21.55-11.902 0-21.55-9.648-21.55-21.55 0-11.902 9.648-21.55 21.55-21.55 11.902 0 21.55 9.648 21.55 21.55z"/><path fill="#999" d="M147.25 191.652a8.347 8.347 0 1 1-16.695 0 8.347 8.347 0 0 1 8.347-8.347 8.347 8.347 0 0 1 8.348 8.347z"/><path fill="#BC1938" d="M141.944 179.398c0 8.299-6.727 15.026-15.026 15.026-8.298 0-15.025-6.727-15.025-15.026 0-8.298 6.727-15.026 15.025-15.026 8.299 0 15.026 6.728 15.026 15.026z"/><path fill="#999" d="M124.531 191.652a8.347 8.347 0 1 1-8.347-8.347 8.347 8.347 0 0 1 8.347 8.347zM103.456 64.657a8.348 8.348 0 1 1 16.68-.704 8.348 8.348 0 0 1-16.68.704z"/><path fill="#BC1938" d="M109.814 76.665c-.35-8.291 6.088-15.296 14.379-15.645 8.291-.35 15.296 6.088 15.646 14.379.349 8.291-6.089 15.296-14.38 15.646-8.291.349-15.296-6.089-15.645-14.38z"/><path fill="#999" d="M126.155 63.7a8.347 8.347 0 0 1 7.988-8.692 8.348 8.348 0 1 1-7.988 8.692zM194.752 140.675a8.348 8.348 0 1 1-10.04 13.337 8.348 8.348 0 0 1 10.04-13.337z"/><path fill="#BC1938" d="M181.878 137.76c6.63 4.991 7.96 14.411 2.969 21.042-4.99 6.63-14.411 7.959-21.041 2.968-6.63-4.99-7.959-14.41-2.969-21.041 4.99-6.63 14.411-7.959 21.041-2.969z"/><path fill="#999" d="M181.09 158.826a8.348 8.348 0 1 1-10.041 13.34 8.348 8.348 0 0 1 10.041-13.34zM173.402 78.251a8.348 8.348 0 1 1 8.354 14.456 8.348 8.348 0 0 1-8.354-14.456z"/><path fill="#BC1938" d="M165.852 89.21c7.185-4.152 16.376-1.693 20.528 5.492 4.152 7.185 1.693 16.376-5.492 20.528-7.185 4.152-16.375 1.693-20.527-5.492-4.152-7.185-1.694-16.376 5.491-20.528z"/><path fill="#999" d="M184.77 97.921a8.349 8.349 0 0 1 8.353 14.456 8.348 8.348 0 0 1-8.353-14.456zM80.323 173.685a8.347 8.347 0 0 1-11.225-3.655 8.348 8.348 0 1 1 11.225 3.655z"/><path fill="#BC1938" d="M88.986 163.159c-7.396 3.762-16.442.817-20.205-6.579-3.763-7.397-.817-16.443 6.579-20.206 7.396-3.763 16.442-.817 20.205 6.579 3.763 7.396.818 16.443-6.579 20.206z"/><path fill="#999" d="M70.021 153.436a8.347 8.347 0 0 1-11.225-3.655 8.347 8.347 0 0 1 3.655-11.225 8.348 8.348 0 0 1 7.57 14.88zM60.668 111.476a8.348 8.348 0 1 1 11.592-2.231 8.347 8.347 0 0 1-11.592 2.231z"/><path fill="#BC1938" d="M74.212 113.73c-6.872-4.653-8.67-13.995-4.017-20.867 4.653-6.871 13.995-8.669 20.866-4.017 6.871 4.653 8.67 13.996 4.017 20.867s-13.995 8.67-20.866 4.017z"/><path fill="#999" d="M73.406 92.664a8.347 8.347 0 0 1-2.231-11.592 8.348 8.348 0 1 1 2.231 11.592z"/></g><defs><filter id="d" width="161.08" height="165" x="47" y="47" filterUnits="userSpaceOnUse"><feGaussianBlur xmlns="http://www.w3.org/2000/svg" in="SourceGraphic" stdDeviation=".429"/><feOffset xmlns="http://www.w3.org/2000/svg" dy="2" result="pf_100_offsetBlur"/><feFlood xmlns="http://www.w3.org/2000/svg" flood-opacity=".2"/><feComposite xmlns="http://www.w3.org/2000/svg" in2="pf_100_offsetBlur" operator="in" result="pf_100_dropShadow"/><feBlend xmlns="http://www.w3.org/2000/svg" in="SourceGraphic" in2="pf_100_dropShadow"/></filter></defs></g></switch> </svg>