<svg xmlns="http://www.w3.org/2000/svg" style="isolation:isolate" width="256" height="256"><switch><g><defs><filter id="a" width="270.648" height="254.338" x="-6.66" y="4.28" filterUnits="userSpaceOnUse"><feGaussianBlur xmlns="http://www.w3.org/2000/svg" in="SourceGraphic" stdDeviation="4.294"/><feOffset xmlns="http://www.w3.org/2000/svg" dy="4" result="pf_100_offsetBlur"/><feFlood xmlns="http://www.w3.org/2000/svg" flood-opacity=".4"/><feComposite xmlns="http://www.w3.org/2000/svg" in2="pf_100_offsetBlur" operator="in" result="pf_100_dropShadow"/><feBlend xmlns="http://www.w3.org/2000/svg" in="SourceGraphic" in2="pf_100_dropShadow"/></filter></defs><g filter="url(#a)"><linearGradient id="b" x1=".533" x2=".533" y1="1" gradientTransform="matrix(244.648 0 0 228.338 6.343 13.28)" gradientUnits="userSpaceOnUse"><stop offset="0%" stop-color="#527d97"/><stop offset="100%" stop-color="#527d97"/></linearGradient><path fill="url(#b)" d="M166.351 13.28c74.056 0 84.64 10.557 84.64 84.544v59.251c0 73.986-10.584 84.544-84.64 84.544H90.982c-74.056 0-84.639-10.558-84.639-84.544V97.824c0-73.987 10.583-84.544 84.639-84.544h75.369z"/></g><path fill="#FFF" d="M128 11.947v228.338h37.685c74.055 0 84.639-10.557 84.639-84.543V96.491c0-73.987-10.584-84.544-84.639-84.544H128z" opacity=".2"/><g opacity=".4"><linearGradient id="c" x1=".517" x2=".517" y2="1"><stop offset="0%" stop-color="#fff"/><stop offset="12.5%" stop-opacity=".098" stop-color="#fff"/><stop offset="92.5%" stop-opacity=".098"/><stop offset="100%" stop-opacity=".498"/></linearGradient><path fill="none" stroke="url(#c)" stroke-linecap="round" stroke-linejoin="round" stroke-width="4.077" d="M165.685 11.947c74.055 0 84.639 10.557 84.639 84.544v59.251c0 73.986-10.584 84.543-84.639 84.543h-75.37c-74.055 0-84.639-10.557-84.639-84.543V96.491c0-73.987 10.584-84.544 84.639-84.544h75.37z" vector-effect="non-scaling-stroke"/></g><path fill="#020202" d="M250.33 147.58v10h-63.04a4.99 4.99 0 0 1-4.56-2.94 92.23 92.23 0 0 1-2.36-5.74c-1.91-4.98-3.59-10.05-5.06-15.17-2.13-7.35-3.82-14.81-5.06-22.35-1.52-9-2.29-18.12-2.32-27.25 0-5.26.29-10.52.87-15.75.6-5.44 1.57-10.84 2.89-16.15 1.37-5.52 3.17-10.92 5.37-16.17 1.09-2.6 2.29-5.15 3.58-7.65-3.36.28-6.71.69-10.04 1.24-5.69.94-11.29 2.32-16.75 4.14a99.603 99.603 0 0 0-27.45 14.2c-3.9 2.87-7.59 6.01-11.05 9.4-3.36 3.29-6.52 6.79-9.45 10.48-2.86 3.59-5.52 7.34-7.98 11.22-2.39 3.77-4.6 7.65-6.62 11.62-3.77 7.4-6.98 15.06-9.63 22.93-2.23 6.57-4.1 13.26-5.61 20.03-1.05 4.68-1.92 9.39-2.6 14.14-.25 1.73-.46 3.47-.61 5.21-.11 1.24-.68 2.4-1.6 3.25-.93.84-2.13 1.31-3.38 1.31l-61.432-.142v-10l56.962.142a187.706 187.706 0 0 1 2.9-16.09 206.47 206.47 0 0 1 5.89-21.05C75 102.11 78.4 94 82.39 86.17c2.16-4.25 4.53-8.39 7.08-12.42 2.65-4.19 5.52-8.23 8.6-12.11 3.19-4.01 6.63-7.82 10.29-11.4 3.79-3.71 7.84-7.15 12.11-10.3 9.2-6.75 19.39-12.03 30.22-15.64 5.96-1.98 12.08-3.49 18.28-4.52 9.95-1.63 20.04-2.17 30.1-1.6a94.166 94.166 0 0 0-12.79 21.75c-2 4.77-3.64 9.69-4.88 14.71a111.73 111.73 0 0 0-2.66 14.84c-.54 4.86-.81 9.75-.81 14.63.03 8.59.76 17.16 2.18 25.63a183.4 183.4 0 0 0 4.81 21.22c1.39 4.87 2.99 9.67 4.8 14.4.28.75.57 1.49.87 2.22h59.74z" opacity=".2"/><path fill="#FFF9F9" d="M250.33 150.03v10h-63.04c-1.97 0-3.76-1.16-4.56-2.95a94.54 94.54 0 0 1-2.36-5.73 184.94 184.94 0 0 1-5.06-15.18c-2.13-7.34-3.82-14.8-5.06-22.34-1.52-9.01-2.29-18.12-2.32-27.25 0-5.26.29-10.53.87-15.76.6-5.44 1.57-10.83 2.89-16.15 1.37-5.51 3.17-10.92 5.37-16.16 1.09-2.6 2.29-5.16 3.58-7.66-3.36.28-6.71.7-10.04 1.25-5.69.93-11.29 2.32-16.75 4.14a99.332 99.332 0 0 0-27.45 14.2c-3.9 2.87-7.59 6.01-11.05 9.39-3.36 3.3-6.52 6.8-9.45 10.48-2.86 3.6-5.52 7.35-7.98 11.23-2.39 3.77-4.6 7.64-6.62 11.61-3.77 7.4-6.98 15.06-9.63 22.93-2.23 6.58-4.1 13.26-5.61 20.04-1.05 4.67-1.92 9.39-2.6 14.13-.25 1.73-.46 3.47-.61 5.21a5.003 5.003 0 0 1-4.98 4.57l-61.557.033v-10l57.087-.033c.05-.41.11-.81.17-1.22.71-4.99 1.62-9.96 2.73-14.88 1.59-7.12 3.56-14.14 5.89-21.05 2.81-8.32 6.21-16.44 10.2-24.27 2.16-4.24 4.53-8.39 7.08-12.42 2.65-4.18 5.52-8.22 8.6-12.1 3.19-4.01 6.63-7.82 10.29-11.4 3.79-3.72 7.84-7.16 12.11-10.31 9.2-6.75 19.39-12.02 30.22-15.63 5.96-1.99 12.08-3.5 18.28-4.52 9.95-1.63 20.04-2.17 30.1-1.61a94.44 94.44 0 0 0-12.79 21.76c-2 4.77-3.64 9.69-4.88 14.71-1.22 4.88-2.11 9.84-2.66 14.84-.54 4.86-.81 9.74-.81 14.63.03 8.58.76 17.15 2.18 25.62 1.18 7.16 2.79 14.25 4.81 21.23 1.39 4.86 2.99 9.67 4.8 14.4.28.74.57 1.48.87 2.22h59.74z" opacity=".2"/><path fill="#ECECEC" d="M250.33 148.58v10h-63.04c-1.97 0-3.76-1.15-4.56-2.95a89.51 89.51 0 0 1-2.36-5.73c-1.91-4.98-3.59-10.05-5.06-15.18-2.13-7.34-3.82-14.8-5.06-22.34-1.52-9-2.29-18.12-2.32-27.25 0-5.26.29-10.52.87-15.75.6-5.44 1.57-10.84 2.89-16.15 1.37-5.52 3.17-10.92 5.37-16.17 1.09-2.6 2.29-5.15 3.58-7.65-3.36.28-6.71.69-10.04 1.24-5.69.94-11.29 2.32-16.75 4.14a99.603 99.603 0 0 0-27.45 14.2c-3.9 2.87-7.59 6.01-11.05 9.4-3.36 3.29-6.52 6.79-9.45 10.48-2.86 3.59-5.52 7.34-7.98 11.22-2.39 3.77-4.6 7.65-6.62 11.62-3.77 7.4-6.98 15.06-9.63 22.93-2.23 6.57-4.1 13.26-5.61 20.03-1.05 4.68-1.92 9.39-2.6 14.14-.25 1.73-.46 3.46-.61 5.21-.11 1.24-.68 2.4-1.6 3.25-.93.84-2.13 1.31-3.38 1.31l-61.495.108v-10l57.025-.108a188.788 188.788 0 0 1 2.9-16.1 207.01 207.01 0 0 1 5.89-21.04C75 103.11 78.4 95 82.39 87.17c2.16-4.25 4.53-8.39 7.08-12.42 2.65-4.19 5.52-8.23 8.6-12.11 3.19-4.01 6.63-7.82 10.29-11.4 3.79-3.71 7.84-7.16 12.11-10.3 9.2-6.75 19.39-12.03 30.22-15.64 5.96-1.98 12.08-3.49 18.28-4.52 9.95-1.63 20.04-2.17 30.1-1.6a94.166 94.166 0 0 0-12.79 21.75c-2 4.77-3.64 9.69-4.88 14.71-1.22 4.88-2.11 9.84-2.66 14.84-.54 4.86-.81 9.75-.81 14.63.03 8.59.76 17.16 2.18 25.63a183.4 183.4 0 0 0 4.81 21.22c1.39 4.87 2.99 9.67 4.8 14.4.28.75.57 1.49.87 2.22h59.74z"/></g></switch> </svg>