<?xml version="1.0" standalone="no"?><!-- Generator: Gravit.io --><svg xmlns="http://www.w3.org/2000/svg" xmlns:xlink="http://www.w3.org/1999/xlink" style="isolation:isolate" viewBox="0 0 256 256" width="256" height="256"><defs><filter id="pMvUn8IAPy39Reqqs2Z3ArVkTSZl7uzS" x="-7.324" y="2.947" width="270.648" height="254.338" filterUnits="userSpaceOnUse"><feGaussianBlur xmlns="http://www.w3.org/2000/svg" in="SourceGraphic" stdDeviation="4.293609062839028"/><feOffset xmlns="http://www.w3.org/2000/svg" dx="0" dy="4" result="pf_100_offsetBlur"/><feFlood xmlns="http://www.w3.org/2000/svg" flood-color="#000000" flood-opacity="0.4"/><feComposite xmlns="http://www.w3.org/2000/svg" in2="pf_100_offsetBlur" operator="in" result="pf_100_dropShadow"/><feBlend xmlns="http://www.w3.org/2000/svg" in="SourceGraphic" in2="pf_100_dropShadow" mode="normal"/></filter></defs><g filter="url(#pMvUn8IAPy39Reqqs2Z3ArVkTSZl7uzS)"><path d=" M 165.685 11.947 C 239.74 11.947 250.324 22.504 250.324 96.491 L 250.324 155.742 C 250.324 229.728 239.74 240.285 165.685 240.285 L 90.315 240.285 C 16.26 240.285 5.676 229.728 5.676 155.742 L 5.676 96.491 C 5.676 22.504 16.26 11.947 90.315 11.947 L 165.685 11.947 Z " id="shape" fill="rgb(82,125,151)"/></g><g opacity="0.2"><path d=" M 128 11.947 L 128 240.285 L 165.685 240.285 C 239.74 240.285 250.324 229.728 250.324 155.742 L 250.324 96.491 C 250.324 22.504 239.74 11.947 165.685 11.947 L 128 11.947 Z " id="left glass" fill="rgb(255,255,255)"/></g><g id="eye"><defs><filter id="mjiTDlTQEcrnDTPJMklQIq6XvIWK7FEC" x="42.564" y="70.613" width="169.861" height="114.773" filterUnits="userSpaceOnUse"><feGaussianBlur xmlns="http://www.w3.org/2000/svg" stdDeviation="0.83105427"/></filter></defs><g opacity="0.3" filter="url(#mjiTDlTQEcrnDTPJMklQIq6XvIWK7FEC)"><path d=" M 127.495 72.554 C 112.186 72.342 97.128 78.522 85.761 88.453 C 71.207 100.048 57.287 112.472 44.5 126.002 C 59.025 143.146 74.934 159.277 92.812 172.927 C 115.355 188.644 148.45 186.603 168.628 167.835 C 183.885 155.272 197.76 141.103 210.49 126.002 C 195.251 110.079 178.669 95.165 160.923 82.272 C 151.028 75.883 139.264 72.533 127.495 72.554 L 127.495 72.554 Z " id="path988" fill="rgb(0,0,0)"/></g><path d=" M 127.495 72.554 C 112.186 72.342 97.128 78.522 85.761 88.453 C 71.207 100.048 57.287 112.472 44.5 126.002 C 59.025 143.146 74.934 159.277 92.812 172.927 C 115.355 188.644 148.45 186.603 168.628 167.835 C 183.885 155.272 197.76 141.103 210.49 126.002 C 195.251 110.079 178.669 95.165 160.923 82.272 C 151.028 75.883 139.264 72.533 127.495 72.554 L 127.495 72.554 Z " id="path7338" fill="rgb(240,243,244)"/><circle vector-effect="non-scaling-stroke" cx="0" cy="0" r="1" transform="matrix(34.997,0,0,34.997,114.924,135.26)" id="path7317" fill="rgb(60,166,224)"/><circle vector-effect="non-scaling-stroke" cx="0" cy="0" r="1" transform="matrix(14.692,0,0,14.692,107.702,140.075)" id="path7319" fill="rgb(52,73,94)"/><ellipse vector-effect="non-scaling-stroke" cx="0" cy="0" rx="1" ry="1" transform="matrix(5.401,4.775,-2.743,0.736,132.995,114.733)" id="path7341" fill="rgb(248,247,247)"/></g><g opacity="0.4"><linearGradient id="_lgradient_133" x1="0.5166666666666668" y1="0" x2="0.5166666666666666" y2="1.0000000000000002"><stop offset="0%" stop-opacity="1" style="stop-color:rgb(255,255,255)"/><stop offset="12.5%" stop-opacity="0.09803922" style="stop-color:rgb(255,255,255)"/><stop offset="92.500001%" stop-opacity="0.09803922" style="stop-color:rgb(0,0,0)"/><stop offset="100%" stop-opacity="0.49803922" style="stop-color:rgb(0,0,0)"/></linearGradient><path d=" M 165.685 11.947 C 239.74 11.947 250.324 22.504 250.324 96.491 L 250.324 155.742 C 250.324 229.728 239.74 240.285 165.685 240.285 L 90.315 240.285 C 16.26 240.285 5.676 229.728 5.676 155.742 L 5.676 96.491 C 5.676 22.504 16.26 11.947 90.315 11.947 L 165.685 11.947 Z " id="highlight" fill="none" vector-effect="non-scaling-stroke" stroke-width="4.077" stroke="url(#_lgradient_133)" stroke-linejoin="round" stroke-linecap="round" stroke-miterlimit="4"/></g></svg>