<svg xmlns="http://www.w3.org/2000/svg" style="isolation:isolate" width="256" height="256" viewBox="0 0 256 256">
 <defs>
  <filter id="pMvUn8IAPy39Reqqs2Z3ArVkTSZl7uzS" width="270.648" height="254.338" x="-7.32" y="2.95" filterUnits="userSpaceOnUse">
   <feGaussianBlur xmlns="http://www.w3.org/2000/svg" in="SourceGraphic" stdDeviation="4.294"/>
   <feOffset xmlns="http://www.w3.org/2000/svg" dx="0" dy="4" result="pf_100_offsetBlur"/>
   <feFlood xmlns="http://www.w3.org/2000/svg" flood-opacity=".4"/>
   <feComposite xmlns="http://www.w3.org/2000/svg" in2="pf_100_offsetBlur" operator="in" result="pf_100_dropShadow"/>
   <feBlend xmlns="http://www.w3.org/2000/svg" in="SourceGraphic" in2="pf_100_dropShadow" mode="normal"/>
  </filter>
 </defs>
 <g filter="url(#pMvUn8IAPy39Reqqs2Z3ArVkTSZl7uzS)">
  <path fill="#527D97" d="M 165.685 11.947 C 239.74 11.947 250.324 22.504 250.324 96.491 L 250.324 155.742 C 250.324 229.728 239.74 240.285 165.685 240.285 L 90.315 240.285 C 16.26 240.285 5.676 229.728 5.676 155.742 L 5.676 96.491 C 5.676 22.504 16.26 11.947 90.315 11.947 L 165.685 11.947 Z"/>
 </g>
 <g opacity=".2">
  <path fill="#FFFFFF" d="M 128 11.947 L 128 240.285 L 165.685 240.285 C 239.74 240.285 250.324 229.728 250.324 155.742 L 250.324 96.491 C 250.324 22.504 239.74 11.947 165.685 11.947 L 128 11.947 Z"/>
 </g>
 <g>
  <defs>
   <filter id="mjiTDlTQEcrnDTPJMklQIq6XvIWK7FEC" width="169.861" height="114.773" x="42.56" y="70.61" filterUnits="userSpaceOnUse">
    <feGaussianBlur xmlns="http://www.w3.org/2000/svg" stdDeviation=".831"/>
   </filter>
  </defs>
  <g opacity=".3" filter="url(#mjiTDlTQEcrnDTPJMklQIq6XvIWK7FEC)">
   <path d="M 127.495 72.554 C 112.186 72.342 97.128 78.522 85.761 88.453 C 71.207 100.048 57.287 112.472 44.5 126.002 C 59.025 143.146 74.934 159.277 92.812 172.927 C 115.355 188.644 148.45 186.603 168.628 167.835 C 183.885 155.272 197.76 141.103 210.49 126.002 C 195.251 110.079 178.669 95.165 160.923 82.272 C 151.028 75.883 139.264 72.533 127.495 72.554 L 127.495 72.554 Z"/>
  </g>
  <path fill="#F0F3F4" d="M 127.495 72.554 C 112.186 72.342 97.128 78.522 85.761 88.453 C 71.207 100.048 57.287 112.472 44.5 126.002 C 59.025 143.146 74.934 159.277 92.812 172.927 C 115.355 188.644 148.45 186.603 168.628 167.835 C 183.885 155.272 197.76 141.103 210.49 126.002 C 195.251 110.079 178.669 95.165 160.923 82.272 C 151.028 75.883 139.264 72.533 127.495 72.554 L 127.495 72.554 Z"/>
  <circle fill="#3CA6E0" cx="0" cy="0" r="1" transform="matrix(34.997,0,0,34.997,114.924,135.26)" vector-effect="non-scaling-stroke"/>
  <circle fill="#34495E" cx="0" cy="0" r="1" transform="matrix(14.692,0,0,14.692,107.702,140.075)" vector-effect="non-scaling-stroke"/>
  <ellipse fill="#F8F7F7" cx="0" cy="0" rx="1" ry="1" transform="matrix(5.401,4.775,-2.743,0.736,132.995,114.733)" vector-effect="non-scaling-stroke"/>
 </g>
 <g opacity=".4">
  <linearGradient id="_lgradient_133" x1=".517" x2=".517" y1="0" y2="1">
   <stop offset="0%" style="stop-color:rgb(255,255,255)"/>
   <stop offset="12.5%" stop-opacity=".098" style="stop-color:rgb(255,255,255)"/>
   <stop offset="92.5%" stop-opacity=".098" style="stop-color:rgb(0,0,0)"/>
   <stop offset="100%" stop-opacity=".498" style="stop-color:rgb(0,0,0)"/>
  </linearGradient>
  <path fill="none" stroke="url(#_lgradient_133)" stroke-linecap="round" stroke-linejoin="round" stroke-width="4.077" d="M 165.685 11.947 C 239.74 11.947 250.324 22.504 250.324 96.491 L 250.324 155.742 C 250.324 229.728 239.74 240.285 165.685 240.285 L 90.315 240.285 C 16.26 240.285 5.676 229.728 5.676 155.742 L 5.676 96.491 C 5.676 22.504 16.26 11.947 90.315 11.947 L 165.685 11.947 Z" vector-effect="non-scaling-stroke"/>
 </g>
</svg>
