<svg xmlns="http://www.w3.org/2000/svg" style="isolation:isolate" width="256" height="256"><switch><g><defs><filter id="a" width="270.648" height="254.338" x="-6.66" y="4.28" filterUnits="userSpaceOnUse"><feGaussianBlur xmlns="http://www.w3.org/2000/svg" in="SourceGraphic" stdDeviation="4.294"/><feOffset xmlns="http://www.w3.org/2000/svg" dy="4" result="pf_100_offsetBlur"/><feFlood xmlns="http://www.w3.org/2000/svg" flood-opacity=".4"/><feComposite xmlns="http://www.w3.org/2000/svg" in2="pf_100_offsetBlur" operator="in" result="pf_100_dropShadow"/><feBlend xmlns="http://www.w3.org/2000/svg" in="SourceGraphic" in2="pf_100_dropShadow"/></filter></defs><g filter="url(#a)"><linearGradient id="b" x1=".51" x2=".512" y1="1.06" y2=".158" gradientTransform="matrix(244.648 0 0 228.338 6.343 13.28)" gradientUnits="userSpaceOnUse"><stop offset="0%" stop-color="#f76363"/><stop offset="100%" stop-color="#e6548b"/></linearGradient><path fill="url(#b)" d="M166.351 13.28c74.056 0 84.64 10.557 84.64 84.544v59.251c0 73.986-10.584 84.544-84.64 84.544H90.982c-74.056 0-84.639-10.558-84.639-84.544V97.824c0-73.987 10.583-84.544 84.639-84.544h75.369z"/></g><g opacity=".4"><linearGradient id="c" x1=".517" x2=".517" y2="1"><stop offset="0%" stop-color="#fff"/><stop offset="12.5%" stop-opacity=".098" stop-color="#fff"/><stop offset="92.5%" stop-opacity=".098"/><stop offset="100%" stop-opacity=".498"/></linearGradient><path fill="none" stroke="url(#c)" stroke-linecap="round" stroke-linejoin="round" stroke-width="4.077" d="M165.685 11.947c74.055 0 84.639 10.557 84.639 84.544v59.251c0 73.986-10.584 84.543-84.639 84.543h-75.37c-74.055 0-84.639-10.557-84.639-84.543V96.491c0-73.987 10.584-84.544 84.639-84.544h75.37z" vector-effect="non-scaling-stroke"/></g><g opacity=".3"><linearGradient id="d" x1=".5" x2=".982" gradientTransform="matrix(181.197 0 0 198.291 37.479 28)" gradientUnits="userSpaceOnUse"><stop offset="0%" stop-color="#fff"/><stop offset="64.572%" stop-color="#f7f7f7"/><stop offset="100%" stop-opacity="0" stop-color="#fff"/></linearGradient><path fill="url(#d)" d="M218.676 31.087A27.258 27.258 0 0 0 215.437 28h-7.018v17.094h10.257V31.087zm0 178.11h-10.257v17.094h7.018a27.338 27.338 0 0 0 3.239-3.087v-14.007zM201.582 28h-10.257v17.094h10.257V28zm0 181.197h-10.257v17.094h10.257v-17.094zM184.488 28h-10.257v17.094h10.257V28zm0 181.197h-10.257v17.094h10.257v-17.094zM167.394 28h-10.257v17.094h10.257V28zm0 181.197h-10.257v17.094h10.257v-17.094zM150.3 28h-10.257v17.094H150.3V28zm0 181.197h-10.257v17.094H150.3v-17.094zM133.206 28h-10.257v17.094h10.257V28zm0 181.197h-10.257v17.094h10.257v-17.094zM116.112 28h-10.257v17.094h10.257V28zm0 181.197h-10.257v17.094h10.257v-17.094zM99.018 28H88.761v17.094h10.257V28zm0 181.197H88.761v17.094h10.257v-17.094zM81.924 28H71.667v17.094h10.257V28zm0 181.197H71.667v17.094h10.257v-17.094zM64.83 28H54.573v17.094H64.83V28zm0 181.197H54.573v17.094H64.83v-17.094zM47.736 28h-7.018a27.258 27.258 0 0 0-3.239 3.087v14.007h10.257V28zm0 181.197H37.479v14.007a27.338 27.338 0 0 0 3.239 3.087h7.018v-17.094z"/></g><path fill="#E97CC8" d="M171.905 77.145v11.111h11.111V77.145h-11.111zm22.222 0v11.111h11.111V77.145h-11.111zm22.222 0v11.111h11.111V77.145h-11.111zm-44.444 22.222v11.111h11.111V99.367h-11.111zm22.222 0v11.111h11.111V99.367h-11.111zm22.222 0v11.111h11.111V99.367h-11.111zm-44.444 22.223v11.111h11.111V121.59h-11.111zm22.222 0v11.111h11.111V121.59h-11.111zm22.222 0v11.111h11.111V121.59h-11.111zm-44.444 22.222v11.111h11.111v-11.111h-11.111zm22.222 0v11.111h11.111v-11.111h-11.111zm22.222 0v11.111h11.111v-11.111h-11.111zm-44.444 22.222v11.111h11.111v-11.111h-11.111zm22.222 0v11.111h11.111v-11.111h-11.111zm22.222 0v11.111h11.111v-11.111h-11.111z" opacity=".645"/><circle fill="#F2F2F2" r="1" transform="matrix(0 -48.828 -48.828 0 76.828 126.59)" vector-effect="non-scaling-stroke"/><circle fill="#FFF" r="1" transform="matrix(0 -44.389 -44.389 0 76.828 127.145)" vector-effect="non-scaling-stroke"/><circle fill="#46444A" r="1" transform="matrix(0 -44.389 -44.389 0 76.828 126.59)" vector-effect="non-scaling-stroke"/><g opacity=".1"><radialGradient id="e" cx=".5" cy=".5" r="96" fx=".5" fy=".5" gradientTransform="matrix(0 88.779 -88.778 0 32.439 82.201)" gradientUnits="userSpaceOnUse"><stop offset="0%" stop-opacity="0"/><stop offset="89.867%" stop-opacity="0"/><stop offset="94.933%" stop-opacity=".262"/><stop offset="100%"/></radialGradient><path fill="url(#e)" d="M76.828 82.201c-24.516 0-44.389 19.874-44.389 44.389 0 24.516 19.873 44.39 44.389 44.39a44.392 44.392 0 0 0 44.389-44.39 44.39 44.39 0 0 0-44.389-44.389zm0 15.881c15.744 0 28.508 12.764 28.508 28.508 0 15.745-12.764 28.508-28.508 28.508-15.745 0-28.508-12.763-28.508-28.508 0-15.744 12.763-28.508 28.508-28.508z"/></g><circle fill="#A7A7F1" r="1" transform="scale(35.511) rotate(-90 2.864 .7)" vector-effect="non-scaling-stroke"/><circle fill="#8F76E4" r="1" transform="matrix(0 -33.292 -33.292 0 76.828 126.59)" vector-effect="non-scaling-stroke"/><circle fill="#8C59D9" r="1" transform="matrix(0 -22.195 -22.195 0 76.828 126.59)" vector-effect="non-scaling-stroke"/><circle fill="#7839B7" r="1" transform="scale(-11.097 11.097) rotate(-82.002 3.097 9.689)" vector-effect="non-scaling-stroke"/><circle fill="#FFF" r="1" transform="scale(3.33) rotate(-8 274.748 -156.325)" vector-effect="non-scaling-stroke" opacity=".3"/><circle fill="#FFF" r="1" transform="matrix(1.099 -.154 .154 1.099 72.389 131.029)" vector-effect="non-scaling-stroke" opacity=".3"/><circle fill="#FFF" r="1" transform="translate(91.255 112.164) scale(13.317)" vector-effect="non-scaling-stroke" opacity=".2"/><path fill="#FFF" d="M76.828 77.762A48.83 48.83 0 0 0 28 126.59c.007.154.014.307.023.461.355-26.704 22.098-48.169 48.805-48.179 26.779.011 48.553 21.589 48.805 48.368.01-.217.017-.433.023-.65a48.826 48.826 0 0 0-48.828-48.828z" opacity=".4"/></g></switch> </svg>