<svg xmlns="http://www.w3.org/2000/svg" style="isolation:isolate" width="256" height="256"><switch><g><defs><filter id="a" width="270.648" height="254.338" x="-6.66" y="4.28" filterUnits="userSpaceOnUse"><feGaussianBlur xmlns="http://www.w3.org/2000/svg" in="SourceGraphic" stdDeviation="4.294"/><feOffset xmlns="http://www.w3.org/2000/svg" dy="4" result="pf_100_offsetBlur"/><feFlood xmlns="http://www.w3.org/2000/svg" flood-opacity=".4"/><feComposite xmlns="http://www.w3.org/2000/svg" in2="pf_100_offsetBlur" operator="in" result="pf_100_dropShadow"/><feBlend xmlns="http://www.w3.org/2000/svg" in="SourceGraphic" in2="pf_100_dropShadow"/></filter></defs><g filter="url(#a)"><linearGradient id="b" x1=".5" x2=".5" y1="-.036" y2="1.036" gradientTransform="matrix(244.648 0 0 228.338 6.343 13.28)" gradientUnits="userSpaceOnUse"><stop offset="0%" stop-color="#4d4d4d"/><stop offset="98.696%" stop-color="#6c6c6c"/></linearGradient><path fill="url(#b)" d="M166.351 13.28c74.056 0 84.64 10.557 84.64 84.544v59.251c0 73.986-10.584 84.544-84.64 84.544H90.982c-74.056 0-84.639-10.558-84.639-84.544V97.824c0-73.987 10.583-84.544 84.639-84.544h75.369z"/></g><g opacity=".4"><linearGradient id="c" x1=".517" x2=".517" y2="1"><stop offset="0%" stop-color="#fff"/><stop offset="12.5%" stop-opacity=".098" stop-color="#fff"/><stop offset="92.5%" stop-opacity=".098"/><stop offset="100%" stop-opacity=".498"/></linearGradient><path fill="none" stroke="url(#c)" stroke-linecap="round" stroke-linejoin="round" stroke-width="4.077" d="M165.685 11.947c74.055 0 84.639 10.557 84.639 84.544v59.251c0 73.986-10.584 84.543-84.639 84.543h-75.37c-74.055 0-84.639-10.557-84.639-84.543V96.491c0-73.987 10.584-84.544 84.639-84.544h75.37z" vector-effect="non-scaling-stroke"/></g><g opacity=".3"><linearGradient id="d" x1=".5" x2=".018" y1="1" y2="1" gradientTransform="matrix(161.741 0 0 177 47.129 37.5)" gradientUnits="userSpaceOnUse"><stop offset="0%" stop-opacity=".972" stop-color="#fff"/><stop offset="64.572%" stop-opacity=".916" stop-color="#fff"/><stop offset="100%" stop-opacity="0" stop-color="#fff"/></linearGradient><path fill="url(#d)" d="M47.129 211.745a24.46 24.46 0 0 0 2.891 2.755h6.264v-15.259h-9.155v12.504zm0-158.986h9.155V37.5H50.02a24.46 24.46 0 0 0-2.891 2.755v12.504zM62.388 214.5h9.155v-15.259h-9.155V214.5zm0-161.741h9.155V37.5h-9.155v15.259zM77.647 214.5h9.155v-15.259h-9.155V214.5zm0-161.741h9.155V37.5h-9.155v15.259zM92.905 214.5h9.155v-15.259h-9.155V214.5zm0-161.741h9.155V37.5h-9.155v15.259zM108.164 214.5h9.155v-15.259h-9.155V214.5zm0-161.741h9.155V37.5h-9.155v15.259zM123.422 214.5h9.156v-15.259h-9.156V214.5zm0-161.741h9.156V37.5h-9.156v15.259zM138.681 214.5h9.155v-15.259h-9.155V214.5zm0-161.741h9.155V37.5h-9.155v15.259zM153.94 214.5h9.155v-15.259h-9.155V214.5zm0-161.741h9.155V37.5h-9.155v15.259zM169.198 214.5h9.155v-15.259h-9.155V214.5zm0-161.741h9.155V37.5h-9.155v15.259zM184.457 214.5h9.155v-15.259h-9.155V214.5zm0-161.741h9.155V37.5h-9.155v15.259zM199.716 214.5h6.264a24.383 24.383 0 0 0 2.891-2.755v-12.504h-9.155V214.5zm0-161.741h9.155V40.255a24.46 24.46 0 0 0-2.891-2.755h-6.264v15.259z"/></g><path fill="#FA9381" d="M122.376 61.731l.21 133.894h10.502V61.731h-10.712z"/><path fill="#A2BCFE" fill-rule="evenodd" d="M100.953 83.154v8.033h10.712v-8.033h-10.712zM90.242 99.221v8.034h21.423v-8.034H90.242zm-21.423 16.067v8.034h42.846v-8.034H68.819zm-10.712 16.068v8.033h53.558v-8.033H58.107zm10.712 16.067v8.034h42.846v-8.034H68.819zm21.423 16.067v8.034h21.423v-8.034H90.242z"/><path fill="#F76363" d="M149.155 56.375h-42.846l10.712 16.067 10.711 16.068 10.712-16.068 10.711-16.067z"/><path fill="#5884F4" d="M147.964 97.619c-1.972.107-4.096 1.841-4.091 3.763l-.073 56.735c0 2.563 3.771 4.792 5.928 3.27l40.647-28.465c2.171-1.503 2.166-5.03 0-6.54l-40.571-28.27c-.542-.377-1.18-.528-1.838-.493h-.002z"/></g></switch> </svg>