<?xml version="1.0" standalone="no"?><!-- Generator: Gravit.io --><svg xmlns="http://www.w3.org/2000/svg" xmlns:xlink="http://www.w3.org/1999/xlink" style="isolation:isolate" viewBox="0 0 256 256" width="256" height="256"><defs><clipPath id="_clipPath_C8Oy1JDCkf5iKTvJgTApWn2SwdwQlbTV"><rect width="256" height="256"/></clipPath></defs><g clip-path="url(#_clipPath_C8Oy1JDCkf5iKTvJgTApWn2SwdwQlbTV)"><g id="kdesvn"><g opacity="0.2"><path d=" M 165.685 13.986 C 239.74 13.986 250.324 24.543 250.324 98.53 L 250.324 157.78 C 250.324 231.767 239.74 242.324 165.685 242.324 L 90.315 242.324 C 16.26 242.324 5.676 231.767 5.676 157.78 L 5.676 98.53 C 5.676 24.543 16.26 13.986 90.315 13.986 L 165.685 13.986 Z " fill="rgb(0,0,0)"/></g><g opacity="0.1"><path d=" M 165.685 11.947 C 239.74 11.947 250.324 22.504 250.324 96.491 L 250.324 155.742 C 250.324 229.728 239.74 240.285 165.685 240.285 L 90.315 240.285 C 16.26 240.285 5.676 229.728 5.676 155.742 L 5.676 96.491 C 5.676 22.504 16.26 11.947 90.315 11.947 L 165.685 11.947 Z " fill="rgb(0,0,0)"/></g><linearGradient id="_lgradient_2" x1="25.000005044039124%" y1="3.6057839047050955%" x2="75.00000234049597%" y2="96.39420920953658%"><stop offset="0%" stop-opacity="1" style="stop-color:rgb(26,127,212)"/><stop offset="100%" stop-opacity="1" style="stop-color:rgb(55,166,230)"/></linearGradient><path d=" M 165.685 11.947 C 239.74 11.947 250.324 22.504 250.324 96.491 L 250.324 155.742 C 250.324 229.728 239.74 240.285 165.685 240.285 L 90.315 240.285 C 16.26 240.285 5.676 229.728 5.676 155.742 L 5.676 96.491 C 5.676 22.504 16.26 11.947 90.315 11.947 L 165.685 11.947 Z " fill="url(#_lgradient_2)"/><linearGradient id="_lgradient_3" x1="25.000005044039124%" y1="3.6057839047050955%" x2="75.00000234049597%" y2="96.39420920953658%"><stop offset="0%" stop-opacity="1" style="stop-color:rgb(230,230,230)"/><stop offset="100%" stop-opacity="1" style="stop-color:rgb(242,242,242)"/></linearGradient><path d=" M 248.887 190.765 C 244.196 233.288 225.975 240.285 165.685 240.285 L 90.315 240.285 C 30.286 240.285 11.962 233.348 7.174 191.314 C 18 191 237.333 191 248.887 190.765 Z " fill="url(#_lgradient_3)"/><g id="Group"><path d=" M 133.156 148.187 C 133.156 149.434 132.659 150.625 131.787 151.506 C 130.906 152.378 129.716 152.875 128.469 152.875 C 127.222 152.875 126.031 152.378 125.15 151.506 C 124.278 150.625 123.781 149.434 123.781 148.187 L 123.781 44.125 C 123.781 42.878 124.278 41.687 125.15 40.806 C 126.031 39.934 127.222 39.437 128.469 39.437 C 129.716 39.437 130.906 39.934 131.787 40.806 C 132.659 41.687 133.156 42.878 133.156 44.125 L 133.156 148.187 Z " fill="rgb(249,249,249)"/><path d=" M 78.781 171.625 C 78.781 172.872 78.284 174.062 77.412 174.944 C 76.531 175.816 75.341 176.312 74.094 176.312 C 72.847 176.312 71.656 175.816 70.775 174.944 C 69.903 174.062 69.406 172.872 69.406 171.625 L 69.406 119.125 C 69.406 117.878 69.903 116.687 70.775 115.806 C 71.656 114.934 72.847 114.437 74.094 114.437 C 75.341 114.437 76.531 114.934 77.412 115.806 C 78.284 116.687 78.781 117.878 78.781 119.125 L 78.781 171.625 Z " fill="rgb(249,249,249)"/><path d=" M 80.337 118.403 C 79.287 119.069 78.012 119.284 76.803 119.012 C 75.594 118.731 74.544 117.991 73.878 116.931 C 73.212 115.881 72.997 114.606 73.269 113.397 C 73.55 112.187 74.291 111.137 75.35 110.472 L 125.975 78.597 C 127.025 77.931 128.3 77.716 129.509 77.987 C 130.719 78.269 131.769 79.009 132.434 80.069 C 133.1 81.119 133.316 82.394 133.044 83.603 C 132.762 84.812 132.022 85.862 130.962 86.528 L 80.337 118.403 Z " fill="rgb(249,249,249)"/><path d=" M 181.587 110.472 C 182.647 111.137 183.387 112.187 183.669 113.397 C 183.941 114.606 183.725 115.881 183.059 116.931 C 182.394 117.991 181.344 118.731 180.134 119.012 C 178.925 119.284 177.65 119.069 176.6 118.403 L 125.975 86.528 C 124.916 85.862 124.175 84.812 123.894 83.603 C 123.622 82.394 123.837 81.119 124.503 80.069 C 125.169 79.009 126.219 78.269 127.428 77.987 C 128.637 77.716 129.912 77.931 130.962 78.597 L 181.587 110.472 Z " fill="rgb(249,249,249)"/><path d=" M 119.094 40.375 C 119.094 35.201 123.295 31 128.469 31 C 133.643 31 137.844 35.201 137.844 40.375 C 137.844 45.549 133.643 49.75 128.469 49.75 C 123.295 49.75 119.094 45.549 119.094 40.375 Z " fill="rgb(253,164,99)"/><path d=" M 119.094 151 C 119.094 145.826 123.295 141.625 128.469 141.625 C 133.643 141.625 137.844 145.826 137.844 151 C 137.844 156.174 133.643 160.375 128.469 160.375 C 123.295 160.375 119.094 156.174 119.094 151 Z " fill="rgb(253,164,99)"/><path d=" M 63.781 118.188 C 63.781 113.013 67.982 108.813 73.156 108.813 C 78.33 108.813 82.531 113.013 82.531 118.188 C 82.531 123.362 78.33 127.563 73.156 127.563 C 67.982 127.563 63.781 123.362 63.781 118.188 Z " fill="rgb(253,164,99)"/><path d=" M 64.719 171.625 C 64.719 166.451 68.92 162.25 74.094 162.25 C 79.268 162.25 83.469 166.451 83.469 171.625 C 83.469 176.799 79.268 181 74.094 181 C 68.92 181 64.719 176.799 64.719 171.625 Z " fill="rgb(253,164,99)"/><path d=" M 173.469 118.188 C 173.469 113.013 177.67 108.813 182.844 108.813 C 188.018 108.813 192.219 113.013 192.219 118.188 C 192.219 123.362 188.018 127.563 182.844 127.563 C 177.67 127.563 173.469 123.362 173.469 118.188 Z " fill="rgb(253,164,99)"/></g><path d=" M 55.488 224.686 L 51.275 224.686 L 44.473 212.048 L 40.191 217.227 L 40.191 224.686 L 36.6 224.686 L 36.6 200.514 L 40.191 200.514 L 40.191 212.22 L 49.514 200.514 L 53.658 200.514 L 46.89 209.009 L 55.488 224.686 Z  M 71.487 224.686 L 71.487 200.514 L 78.255 200.514 L 78.255 200.514 Q 81.294 200.514 83.59 201.55 L 83.59 201.55 L 83.59 201.55 Q 85.886 202.586 87.199 204.347 L 87.199 204.347 L 87.199 204.347 Q 88.511 206.108 89.149 208.18 L 89.149 208.18 L 89.149 208.18 Q 89.788 210.252 89.788 212.6 L 89.788 212.6 L 89.788 212.6 Q 89.788 214.844 89.184 216.865 L 89.184 216.865 L 89.184 216.865 Q 88.58 218.885 87.302 220.697 L 87.302 220.697 L 87.302 220.697 Q 86.024 222.51 83.659 223.598 L 83.659 223.598 L 83.659 223.598 Q 81.294 224.686 78.117 224.686 L 78.117 224.686 L 71.487 224.686 Z  M 75.078 221.302 L 78.704 221.302 L 78.704 221.302 Q 80.672 221.302 82.157 220.525 L 82.157 220.525 L 82.157 220.525 Q 83.642 219.748 84.471 218.453 L 84.471 218.453 L 84.471 218.453 Q 85.299 217.158 85.679 215.69 L 85.679 215.69 L 85.679 215.69 Q 86.059 214.223 86.059 212.6 L 86.059 212.6 L 86.059 212.6 Q 86.059 208.974 84.298 206.436 L 84.298 206.436 L 84.298 206.436 Q 82.537 203.898 79.084 203.898 L 79.084 203.898 L 75.078 203.898 L 75.078 221.302 Z  M 122.397 224.686 L 106.651 224.686 L 106.651 200.514 L 121.637 200.514 L 121.637 203.898 L 110.242 203.898 L 110.242 210.528 L 117.597 210.528 L 117.597 213.912 L 110.242 213.912 L 110.242 221.302 L 122.397 221.302 L 122.397 224.686 Z  M 146.338 225.1 L 146.338 225.1 L 146.338 225.1 Q 143.126 225.1 140.778 223.529 L 140.778 223.529 L 140.778 223.529 Q 138.43 221.958 137.532 219.23 L 137.532 219.23 L 140.916 217.987 L 140.916 217.987 Q 141.676 219.679 143.126 220.663 L 143.126 220.663 L 143.126 220.663 Q 144.577 221.647 146.476 221.647 L 146.476 221.647 L 146.476 221.647 Q 148.478 221.647 149.67 220.68 L 149.67 220.68 L 149.67 220.68 Q 150.861 219.713 150.861 217.918 L 150.861 217.918 L 150.861 217.918 Q 150.861 217.158 150.533 216.519 L 150.533 216.519 L 150.533 216.519 Q 150.205 215.88 149.791 215.466 L 149.791 215.466 L 149.791 215.466 Q 149.376 215.052 148.513 214.62 L 148.513 214.62 L 148.513 214.62 Q 147.65 214.188 147.08 213.964 L 147.08 213.964 L 147.08 213.964 Q 146.51 213.74 145.405 213.36 L 145.405 213.36 L 145.405 213.36 Q 144.024 212.876 143.333 212.6 L 143.333 212.6 L 143.333 212.6 Q 142.643 212.324 141.521 211.685 L 141.521 211.685 L 141.521 211.685 Q 140.398 211.046 139.829 210.407 L 139.829 210.407 L 139.829 210.407 Q 139.259 209.769 138.81 208.733 L 138.81 208.733 L 138.81 208.733 Q 138.361 207.697 138.361 206.419 L 138.361 206.419 L 138.361 206.419 Q 138.361 203.76 140.433 201.93 L 140.433 201.93 L 140.433 201.93 Q 142.505 200.1 146.061 200.1 L 146.061 200.1 L 146.061 200.1 Q 149.031 200.1 150.947 201.412 L 150.947 201.412 L 150.947 201.412 Q 152.864 202.724 153.52 204.9 L 153.52 204.9 L 150.205 206.005 L 150.205 206.005 Q 149.722 204.9 148.599 204.226 L 148.599 204.226 L 148.599 204.226 Q 147.477 203.553 145.785 203.553 L 145.785 203.553 L 145.785 203.553 Q 144.059 203.553 143.074 204.313 L 143.074 204.313 L 143.074 204.313 Q 142.09 205.072 142.09 206.454 L 142.09 206.454 L 142.09 206.454 Q 142.09 207.386 142.85 208.111 L 142.85 208.111 L 142.85 208.111 Q 143.61 208.836 144.438 209.181 L 144.438 209.181 L 144.438 209.181 Q 145.267 209.527 146.959 210.114 L 146.959 210.114 L 146.959 210.114 Q 147.995 210.494 148.496 210.684 L 148.496 210.684 L 148.496 210.684 Q 148.996 210.873 149.963 211.322 L 149.963 211.322 L 149.963 211.322 Q 150.93 211.771 151.448 212.134 L 151.448 212.134 L 151.448 212.134 Q 151.966 212.496 152.657 213.118 L 152.657 213.118 L 152.657 213.118 Q 153.347 213.74 153.71 214.378 L 153.71 214.378 L 153.71 214.378 Q 154.072 215.017 154.331 215.932 L 154.331 215.932 L 154.331 215.932 Q 154.59 216.847 154.59 217.883 L 154.59 217.883 L 154.59 217.883 Q 154.59 221.267 152.277 223.184 L 152.277 223.184 L 152.277 223.184 Q 149.963 225.1 146.338 225.1 Z  M 181.432 224.686 L 177.841 224.686 L 169.553 200.514 L 173.421 200.514 L 178.911 217.365 L 178.911 217.365 Q 179.429 218.954 179.671 220.128 L 179.671 220.128 L 179.671 220.128 Q 179.913 218.954 180.431 217.365 L 180.431 217.365 L 185.852 200.514 L 189.685 200.514 L 181.432 224.686 Z  M 223.985 200.514 L 223.985 224.686 L 220.601 224.686 L 210.138 208.284 L 210.138 208.284 Q 209.655 207.524 209.171 206.488 L 209.171 206.488 L 209.171 206.488 Q 209.275 208.146 209.275 208.284 L 209.275 208.284 L 209.275 224.686 L 205.684 224.686 L 205.684 200.514 L 209.309 200.514 L 219.496 216.64 L 219.496 216.64 Q 219.876 217.262 220.497 218.505 L 220.497 218.505 L 220.497 218.505 Q 220.394 217.469 220.394 216.675 L 220.394 216.675 L 220.394 200.514 L 223.985 200.514 Z " fill-rule="evenodd" fill="rgb(26,127,212)"/><g opacity="0.4"><linearGradient id="_lgradient_4" x1="51.666666666666686%" y1="0%" x2="51.66666666666666%" y2="100.00000000000003%"><stop offset="0%" stop-opacity="1" style="stop-color:rgb(255,255,255)"/><stop offset="12.5%" stop-opacity="0.09803922" style="stop-color:rgb(255,255,255)"/><stop offset="92.500001%" stop-opacity="0.09803922" style="stop-color:rgb(0,0,0)"/><stop offset="100%" stop-opacity="0.49803922" style="stop-color:rgb(0,0,0)"/></linearGradient><path d=" M 165.685 11.947 C 239.74 11.947 250.324 22.504 250.324 96.491 L 250.324 155.742 C 250.324 229.728 239.74 240.285 165.685 240.285 L 90.315 240.285 C 16.26 240.285 5.676 229.728 5.676 155.742 L 5.676 96.491 C 5.676 22.504 16.26 11.947 90.315 11.947 L 165.685 11.947 Z " fill="none" vector-effect="non-scaling-stroke" stroke-width="4.077" stroke="url(#_lgradient_4)" stroke-linejoin="round" stroke-linecap="round" stroke-miterlimit="4"/></g></g></g></svg>