<?xml version="1.0" standalone="no"?><!-- Generator: Gravit.io --><svg xmlns="http://www.w3.org/2000/svg" xmlns:xlink="http://www.w3.org/1999/xlink" style="isolation:isolate" viewBox="0 0 256 256" width="256" height="256"><defs><filter id="ITqo4ypOT5lhCVIPR0kyOLBiIaUzdkAA" x="-7.324" y="2.947" width="270.648" height="254.338" filterUnits="userSpaceOnUse"><feGaussianBlur xmlns="http://www.w3.org/2000/svg" in="SourceGraphic" stdDeviation="4.293609062839028"/><feOffset xmlns="http://www.w3.org/2000/svg" dx="0" dy="4" result="pf_100_offsetBlur"/><feFlood xmlns="http://www.w3.org/2000/svg" flood-color="#000000" flood-opacity="0.4"/><feComposite xmlns="http://www.w3.org/2000/svg" in2="pf_100_offsetBlur" operator="in" result="pf_100_dropShadow"/><feBlend xmlns="http://www.w3.org/2000/svg" in="SourceGraphic" in2="pf_100_dropShadow" mode="normal"/></filter></defs><g filter="url(#ITqo4ypOT5lhCVIPR0kyOLBiIaUzdkAA)"><path d=" M 165.685 11.947 C 239.74 11.947 250.324 22.504 250.324 96.491 L 250.324 155.742 C 250.324 229.728 239.74 240.285 165.685 240.285 L 90.315 240.285 C 16.26 240.285 5.676 229.728 5.676 155.742 L 5.676 96.491 C 5.676 22.504 16.26 11.947 90.315 11.947 L 165.685 11.947 Z " id="shape" fill="rgb(128,163,250)"/></g><g opacity="0.05"><path d=" M 8.476 55.74 C 6.729 66.667 6.158 80.255 6.158 97.205 L 6.158 156.456 C 6.158 230.442 16.742 241 90.798 241 L 166.167 241 C 221.302 241 241.245 235.126 247.842 201.603 L 8.476 55.74 Z " id="left angle highlight" fill="rgb(255,255,255)"/></g><g id="kdevelop"><circle vector-effect="non-scaling-stroke" cx="0" cy="0" r="1" transform="matrix(81.573,0,0,-81.573,128,126.073)" id="path4238" fill="rgb(93,93,93)"/><defs><filter id="2awb0mx3fA5nsxvpmg94dlDdqnartz8L" x="36.179" y="36.106" width="183.642" height="183.642" filterUnits="userSpaceOnUse"><feGaussianBlur xmlns="http://www.w3.org/2000/svg" stdDeviation="4.4"/></filter></defs><g opacity="0.2" filter="url(#2awb0mx3fA5nsxvpmg94dlDdqnartz8L)"><path d=" M 128 46.354 C 82.948 46.354 46.427 82.875 46.427 127.927 C 46.427 172.979 82.948 209.5 128 209.5 C 173.052 209.5 209.573 172.979 209.573 127.927 C 209.573 82.875 173.052 46.354 128 46.354 Z " id="path962" fill="none"/></g><defs><filter id="VADm0nUHkpTMzqA8sulKOIZXlYWtPOzw" x="54.984" y="54.91" width="146.033" height="146.033" filterUnits="userSpaceOnUse"><feGaussianBlur xmlns="http://www.w3.org/2000/svg" stdDeviation="1.5000091"/></filter></defs><g opacity="0.2" filter="url(#VADm0nUHkpTMzqA8sulKOIZXlYWtPOzw)"><path d=" M 128 58.41 C 123 58.354 121.251 58.54 120.548 64.586 L 120.28 66.722 C 119.663 70.643 119.545 72.418 115.835 73.379 C 115.587 73.435 115.339 73.49 115.091 73.549 C 115.033 73.561 114.981 73.575 114.921 73.587 L 114.928 73.589 C 113.992 73.815 113.065 74.066 112.148 74.339 L 112.157 74.328 C 112.004 74.38 111.864 74.422 111.719 74.467 C 111.58 74.51 111.441 74.55 111.302 74.594 C 107.575 75.64 106.588 74.16 104.084 71.062 L 102.782 69.345 C 100.966 66.903 99.658 65.861 98.265 65.748 C 98.091 65.734 97.914 65.734 97.736 65.748 C 96.491 65.846 95.125 66.61 93.243 67.725 C 88.885 70.177 87.463 71.21 89.877 76.797 L 90.712 78.782 C 92.247 82.77 93.046 84.313 89.504 87.407 L 89.598 87.385 C 88.866 88.079 88.154 88.793 87.46 89.525 L 87.48 89.431 C 84.386 92.973 82.843 92.174 78.855 90.638 L 76.871 89.802 C 75.125 89.048 73.823 88.669 72.784 88.636 C 70.499 88.564 69.484 90.172 67.798 93.168 C 65.25 97.47 64.535 99.077 69.419 102.709 L 71.135 104.011 C 74.234 106.515 75.713 107.501 74.667 111.229 C 74.624 111.367 74.583 111.506 74.541 111.645 C 74.495 111.791 74.455 111.93 74.403 112.084 L 74.412 112.074 C 74.139 112.992 73.888 113.919 73.662 114.855 L 73.661 114.848 C 73.649 114.908 73.635 114.959 73.623 115.018 C 73.564 115.265 73.508 115.513 73.452 115.762 C 72.492 119.472 70.716 119.59 66.795 120.207 L 64.659 120.475 C 58.613 121.178 58.428 122.927 58.483 127.927 C 58.428 132.926 58.613 134.675 64.659 135.379 L 66.795 135.647 C 70.716 136.264 72.492 136.382 73.452 140.091 C 73.508 140.34 73.564 140.588 73.623 140.835 C 73.635 140.894 73.649 140.946 73.661 141.006 L 73.662 140.998 C 73.888 141.935 74.139 142.861 74.412 143.779 L 74.401 143.77 C 74.454 143.923 74.495 144.063 74.541 144.208 C 74.583 144.347 74.624 144.486 74.667 144.624 C 75.713 148.352 74.234 149.338 71.135 151.843 L 69.419 153.144 C 64.535 156.776 65.25 158.382 67.798 162.684 C 70.25 167.042 71.283 168.463 76.871 166.05 L 78.855 165.215 C 82.843 163.68 84.386 162.881 87.48 166.423 L 87.458 166.328 C 88.152 167.06 88.866 167.773 89.598 168.467 L 89.504 168.447 C 93.046 171.54 92.247 173.083 90.712 177.072 L 89.875 179.056 C 87.462 184.643 88.883 185.678 93.241 188.13 C 97.543 190.678 99.15 191.392 102.782 186.508 L 104.084 184.792 C 106.588 181.693 107.575 180.214 111.302 181.259 C 111.441 181.303 111.58 181.344 111.719 181.386 C 111.864 181.431 112.004 181.473 112.157 181.526 L 112.148 181.515 C 113.065 181.787 113.992 182.038 114.929 182.264 L 114.921 182.266 C 114.981 182.278 115.033 182.292 115.091 182.304 C 115.339 182.363 115.587 182.419 115.835 182.474 C 119.545 183.435 119.663 185.211 120.28 189.131 L 120.548 191.268 C 121.251 197.313 123 197.499 128 197.443 C 133 197.499 134.749 197.313 135.452 191.268 L 135.72 189.131 C 136.337 185.211 136.455 183.435 140.165 182.474 C 140.413 182.419 140.661 182.363 140.909 182.304 C 140.967 182.292 141.019 182.278 141.079 182.266 L 141.072 182.264 C 142.008 182.038 142.935 181.787 143.852 181.515 L 143.843 181.526 C 143.996 181.473 144.136 181.431 144.281 181.386 C 144.42 181.344 144.559 181.303 144.698 181.259 C 148.426 180.214 149.412 181.693 151.916 184.792 L 153.218 186.508 C 156.85 191.392 158.455 190.676 162.757 188.128 C 167.115 185.677 168.537 184.643 166.123 179.056 L 165.288 177.072 C 163.753 173.084 162.954 171.54 166.496 168.447 L 166.402 168.468 C 167.134 167.774 167.846 167.06 168.54 166.328 L 168.52 166.422 C 171.614 162.88 173.157 163.679 177.145 165.215 L 179.129 166.051 C 184.717 168.465 185.75 167.043 188.202 162.686 C 190.75 158.383 191.465 156.776 186.581 153.144 L 184.865 151.843 C 181.766 149.338 180.287 148.352 181.333 144.624 C 181.376 144.486 181.417 144.347 181.46 144.208 C 181.505 144.063 181.545 143.923 181.597 143.77 L 181.588 143.779 C 181.861 142.861 182.111 141.935 182.337 140.998 L 182.339 141.006 C 182.351 140.946 182.365 140.894 182.377 140.835 C 182.436 140.588 182.492 140.34 182.547 140.091 C 183.508 136.382 185.284 136.264 189.205 135.647 L 191.341 135.379 C 197.386 134.675 197.572 132.926 197.516 127.927 C 197.572 122.927 197.386 121.178 191.341 120.475 L 189.205 120.207 C 185.284 119.59 183.508 119.472 182.547 115.762 C 182.492 115.513 182.436 115.265 182.377 115.018 C 182.365 114.959 182.351 114.908 182.339 114.848 L 182.337 114.855 C 182.111 113.919 181.861 112.992 181.588 112.074 L 181.599 112.083 C 181.546 111.93 181.505 111.791 181.459 111.645 C 181.417 111.506 181.376 111.367 181.333 111.229 C 180.287 107.501 181.766 106.515 184.865 104.011 L 186.581 102.709 C 191.465 99.077 190.75 97.472 188.202 93.169 C 186.516 90.173 185.501 88.564 183.215 88.636 C 182.177 88.668 180.875 89.049 179.129 89.804 L 177.145 90.638 C 173.157 92.174 171.613 92.973 168.52 89.431 L 168.541 89.525 C 167.848 88.793 167.134 88.081 166.401 87.387 L 166.496 87.407 C 162.954 84.313 163.753 82.77 165.288 78.782 L 166.124 76.797 C 168.538 71.21 167.117 70.177 162.759 67.725 C 160.608 66.451 159.13 65.635 157.737 65.748 C 156.343 65.861 155.033 66.903 153.218 69.345 L 151.916 71.062 C 149.411 74.16 148.425 75.64 144.697 74.594 C 144.559 74.55 144.42 74.51 144.281 74.467 C 144.136 74.422 143.996 74.382 143.843 74.33 L 143.852 74.339 C 142.934 74.066 142.008 73.815 141.071 73.589 L 141.079 73.587 C 141.019 73.576 140.967 73.561 140.909 73.549 C 140.661 73.491 140.413 73.435 140.164 73.379 C 136.455 72.418 136.337 70.643 135.72 66.722 L 135.452 64.586 C 134.749 58.54 133 58.354 128 58.41 L 128 58.41 Z  M 127.989 87.14 C 127.993 87.14 127.997 87.14 128 87.14 C 132.695 87.141 137.233 87.952 141.474 89.44 C 142.295 92.129 144.105 94.408 146.539 95.816 C 148.971 97.214 151.842 97.642 154.576 97.013 C 161.253 102.752 166.098 110.643 167.961 119.769 C 168.43 122.068 166.674 124.219 164.327 124.219 L 152.852 124.219 C 151.212 124.219 149.767 123.142 149.298 121.57 C 146.486 112.137 137.852 105.695 128.009 105.682 C 126.28 105.691 124.557 105.9 122.876 106.308 C 121.277 106.696 119.613 105.984 118.79 104.559 L 113.062 94.639 C 111.891 92.611 112.871 90.018 115.091 89.271 C 119.248 87.872 123.603 87.153 127.989 87.14 L 127.989 87.14 Z  M 103.604 96.499 C 104.865 96.558 106.01 97.255 106.642 98.349 L 112.37 108.269 C 113.191 109.69 112.98 111.482 111.851 112.674 C 107.945 116.796 105.764 122.251 105.753 127.929 C 105.759 133.61 107.936 139.07 111.841 143.197 C 112.97 144.388 113.181 146.179 112.361 147.6 L 106.649 157.496 C 105.477 159.527 102.737 159.973 100.98 158.419 C 94.16 152.387 89.621 144.294 87.945 135.486 C 89.855 133.432 90.918 130.732 90.921 127.927 C 90.916 125.123 89.853 122.425 87.943 120.372 C 89.616 111.56 94.151 103.462 100.973 97.426 C 101.696 96.786 102.64 96.454 103.604 96.499 L 103.604 96.499 Z  M 152.862 131.635 L 164.289 131.635 C 166.636 131.635 168.392 133.786 167.923 136.085 C 166.061 145.206 161.221 153.094 154.549 158.832 C 153.66 158.628 152.75 158.533 151.839 158.551 C 149.976 158.595 148.153 159.106 146.539 160.038 C 144.113 161.445 142.307 163.716 141.484 166.398 C 137.243 167.893 132.702 168.708 128.004 168.713 C 127.998 168.714 127.992 168.714 127.986 168.713 C 123.601 168.696 119.249 167.971 115.095 166.568 C 112.878 165.819 111.9 163.229 113.069 161.202 L 118.788 151.295 C 119.611 149.87 121.275 149.158 122.875 149.546 C 124.556 149.954 126.28 150.163 128.011 150.172 C 137.856 150.162 146.494 143.72 149.308 134.284 C 149.776 132.712 151.221 131.635 152.862 131.635 L 152.862 131.635 Z " id="path1039" fill="rgb(0,0,0)" fill-opacity="0.71428576"/></g><defs><filter id="q0KzY5EdV4LP8x6B6p8MmGyqZafQNFrt" x="54.984" y="56.764" width="146.033" height="146.033" filterUnits="userSpaceOnUse"><feGaussianBlur xmlns="http://www.w3.org/2000/svg" stdDeviation="1.5000091"/></filter></defs><g opacity="0.2" filter="url(#q0KzY5EdV4LP8x6B6p8MmGyqZafQNFrt)"><linearGradient id="_lgradient_234" x1="0.5000004950364789" y1="0.10000513729903893" x2="0.5000004950364788" y2="0.8466666480898842" gradientTransform="matrix(139.046,0,0,139.046,58.477,60.258)" gradientUnits="userSpaceOnUse"><stop offset="0%" stop-opacity="0" style="stop-color:rgb(0,0,0)"/><stop offset="50%" stop-opacity="1" style="stop-color:rgb(0,0,0)"/><stop offset="100%" stop-opacity="0" style="stop-color:rgb(0,0,0)"/></linearGradient><path d=" M 128 60.264 C 123 60.208 121.251 60.394 120.548 66.439 L 120.28 68.576 C 119.663 72.497 119.545 74.272 115.835 75.233 C 115.587 75.288 115.339 75.344 115.091 75.403 C 115.033 75.415 114.981 75.429 114.921 75.441 L 114.928 75.443 C 113.992 75.669 113.065 75.92 112.148 76.193 L 112.157 76.182 C 112.004 76.234 111.864 76.276 111.719 76.321 C 111.58 76.364 111.441 76.404 111.302 76.448 C 107.575 77.494 106.588 76.014 104.084 72.916 L 102.782 71.199 C 100.966 68.757 99.658 67.715 98.265 67.602 C 98.091 67.588 97.914 67.588 97.736 67.602 C 96.491 67.7 95.125 68.464 93.243 69.579 C 88.885 72.031 87.463 73.064 89.877 78.651 L 90.712 80.635 C 92.247 84.624 93.046 86.167 89.504 89.261 L 89.598 89.239 C 88.866 89.933 88.154 90.647 87.46 91.379 L 87.48 91.285 C 84.386 94.827 82.843 94.028 78.855 92.492 L 76.871 91.656 C 75.125 90.902 73.823 90.522 72.784 90.49 C 70.499 90.418 69.484 92.026 67.798 95.022 C 65.25 99.324 64.535 100.931 69.419 104.563 L 71.135 105.865 C 74.234 108.369 75.713 109.355 74.667 113.083 C 74.624 113.221 74.583 113.36 74.541 113.499 C 74.495 113.645 74.455 113.784 74.403 113.937 L 74.412 113.928 C 74.139 114.846 73.888 115.773 73.662 116.709 L 73.661 116.702 C 73.649 116.762 73.635 116.813 73.623 116.872 C 73.564 117.119 73.508 117.367 73.452 117.616 C 72.492 121.326 70.716 121.444 66.795 122.061 L 64.659 122.329 C 58.613 123.032 58.428 124.781 58.483 129.781 C 58.428 134.78 58.613 136.529 64.659 137.233 L 66.795 137.5 C 70.716 138.118 72.492 138.236 73.452 141.945 C 73.508 142.194 73.564 142.442 73.623 142.689 C 73.635 142.748 73.649 142.8 73.661 142.86 L 73.662 142.852 C 73.888 143.789 74.139 144.715 74.412 145.633 L 74.401 145.624 C 74.454 145.777 74.495 145.917 74.541 146.062 C 74.583 146.201 74.624 146.34 74.667 146.478 C 75.713 150.206 74.234 151.192 71.135 153.697 L 69.419 154.998 C 64.535 158.63 65.25 160.236 67.798 164.538 C 70.25 168.896 71.283 170.317 76.871 167.903 L 78.855 167.069 C 82.843 165.533 84.386 164.734 87.48 168.276 L 87.458 168.182 C 88.152 168.914 88.866 169.627 89.598 170.32 L 89.504 170.301 C 93.046 173.394 92.247 174.937 90.712 178.926 L 89.875 180.91 C 87.462 186.497 88.883 187.532 93.241 189.984 C 97.543 192.532 99.15 193.246 102.782 188.362 L 104.084 186.646 C 106.588 183.547 107.575 182.068 111.302 183.113 C 111.441 183.157 111.58 183.198 111.719 183.24 C 111.864 183.285 112.004 183.327 112.157 183.379 L 112.148 183.369 C 113.065 183.641 113.992 183.892 114.929 184.118 L 114.921 184.12 C 114.981 184.132 115.033 184.146 115.091 184.158 C 115.339 184.217 115.587 184.273 115.835 184.328 C 119.545 185.289 119.663 187.064 120.28 190.985 L 120.548 193.122 C 121.251 199.167 123 199.353 128 199.297 C 133 199.353 134.749 199.167 135.452 193.122 L 135.72 190.985 C 136.337 187.064 136.455 185.289 140.165 184.328 C 140.413 184.273 140.661 184.217 140.909 184.158 C 140.967 184.146 141.019 184.132 141.079 184.12 L 141.072 184.118 C 142.008 183.892 142.935 183.641 143.852 183.369 L 143.843 183.379 C 143.996 183.327 144.136 183.285 144.281 183.24 C 144.42 183.198 144.559 183.157 144.698 183.113 C 148.426 182.068 149.412 183.547 151.916 186.646 L 153.218 188.362 C 156.85 193.246 158.455 192.53 162.757 189.982 C 167.115 187.531 168.537 186.497 166.123 180.91 L 165.288 178.926 C 163.753 174.937 162.954 173.394 166.496 170.301 L 166.402 170.322 C 167.134 169.628 167.846 168.914 168.54 168.182 L 168.52 168.276 C 171.614 164.734 173.157 165.533 177.145 167.069 L 179.129 167.905 C 184.717 170.319 185.75 168.897 188.202 164.54 C 190.75 160.237 191.465 158.63 186.581 154.998 L 184.865 153.697 C 181.766 151.192 180.287 150.206 181.333 146.478 C 181.376 146.34 181.417 146.201 181.46 146.062 C 181.505 145.917 181.545 145.777 181.597 145.624 L 181.588 145.633 C 181.861 144.715 182.111 143.789 182.337 142.852 L 182.339 142.859 C 182.351 142.799 182.365 142.748 182.377 142.689 C 182.436 142.442 182.492 142.194 182.547 141.945 C 183.508 138.236 185.284 138.118 189.205 137.5 L 191.341 137.232 C 197.386 136.529 197.572 134.78 197.516 129.781 C 197.572 124.781 197.386 123.032 191.341 122.329 L 189.205 122.061 C 185.284 121.444 183.508 121.326 182.547 117.616 C 182.492 117.367 182.436 117.119 182.377 116.872 C 182.365 116.813 182.351 116.762 182.339 116.702 L 182.337 116.709 C 182.111 115.772 181.861 114.846 181.588 113.928 L 181.599 113.937 C 181.546 113.784 181.505 113.644 181.459 113.499 C 181.417 113.36 181.376 113.221 181.333 113.083 C 180.287 109.355 181.766 108.369 184.865 105.864 L 186.581 104.563 C 191.465 100.931 190.75 99.325 188.202 95.023 C 186.516 92.027 185.501 90.418 183.215 90.49 C 182.177 90.522 180.875 90.903 179.129 91.658 L 177.145 92.492 C 173.157 94.028 171.613 94.827 168.52 91.285 L 168.541 91.379 C 167.848 90.647 167.134 89.935 166.401 89.241 L 166.496 89.261 C 162.954 86.167 163.753 84.624 165.288 80.635 L 166.124 78.651 C 168.538 73.064 167.117 72.031 162.759 69.579 C 160.608 68.305 159.13 67.489 157.737 67.602 C 156.343 67.715 155.033 68.757 153.218 71.199 L 151.916 72.916 C 149.411 76.014 148.425 77.494 144.697 76.448 C 144.559 76.404 144.42 76.364 144.281 76.321 C 144.136 76.276 143.996 76.236 143.843 76.183 L 143.852 76.193 C 142.934 75.92 142.008 75.669 141.071 75.443 L 141.079 75.441 C 141.019 75.43 140.967 75.415 140.909 75.403 C 140.661 75.344 140.413 75.289 140.164 75.233 C 136.455 74.272 136.337 72.497 135.72 68.576 L 135.452 66.44 C 134.749 60.394 133 60.208 128 60.264 L 128 60.264 Z  M 127.989 88.994 C 127.993 88.994 127.997 88.994 128 88.994 C 132.695 88.995 137.233 89.805 141.474 91.294 C 142.295 93.983 144.105 96.261 146.539 97.67 C 148.971 99.068 151.842 99.496 154.576 98.867 C 161.253 104.606 166.098 112.497 167.961 121.623 C 168.43 123.922 166.674 126.073 164.327 126.073 L 152.852 126.073 C 151.212 126.073 149.767 124.996 149.298 123.424 C 146.486 113.991 137.852 107.549 128.009 107.536 C 126.28 107.545 124.557 107.754 122.876 108.162 C 121.277 108.55 119.613 107.838 118.79 106.413 L 113.062 96.493 C 111.891 94.465 112.871 91.872 115.091 91.125 C 119.248 89.726 123.603 89.006 127.989 88.994 L 127.989 88.994 Z  M 103.604 98.353 C 104.865 98.412 106.01 99.109 106.642 100.203 L 112.37 110.123 C 113.191 111.544 112.98 113.336 111.851 114.528 C 107.945 118.649 105.764 124.105 105.753 129.783 C 105.759 135.464 107.936 140.924 111.841 145.051 C 112.97 146.242 113.181 148.033 112.361 149.454 L 106.649 159.35 C 105.477 161.381 102.737 161.827 100.98 160.273 C 94.16 154.241 89.621 146.148 87.945 137.34 C 89.855 135.285 90.918 132.586 90.921 129.781 C 90.916 126.977 89.853 124.279 87.943 122.226 C 89.616 113.414 94.151 105.316 100.973 99.28 C 101.696 98.64 102.64 98.308 103.604 98.353 L 103.604 98.353 Z  M 152.862 133.489 L 164.289 133.489 C 166.636 133.489 168.392 135.64 167.923 137.939 C 166.061 147.06 161.221 154.948 154.549 160.686 C 153.66 160.482 152.75 160.387 151.839 160.405 C 149.976 160.449 148.153 160.96 146.539 161.892 C 144.113 163.299 142.307 165.57 141.484 168.252 C 137.243 169.747 132.702 170.562 128.004 170.567 C 127.998 170.567 127.992 170.567 127.986 170.567 C 123.601 170.55 119.249 169.825 115.095 168.422 C 112.878 167.673 111.9 165.083 113.069 163.056 L 118.788 153.149 C 119.611 151.724 121.275 151.011 122.875 151.4 C 124.556 151.808 126.28 152.017 128.011 152.026 C 137.856 152.016 146.494 145.574 149.308 136.138 C 149.776 134.566 151.221 133.489 152.862 133.489 L 152.862 133.489 Z " id="path1021" fill="url(#_lgradient_234)"/></g><path d=" M 128 56.556 C 123 56.5 121.251 56.686 120.548 62.732 L 120.28 64.868 C 119.663 68.789 119.545 70.564 115.835 71.525 C 115.587 71.581 115.339 71.636 115.091 71.695 C 115.033 71.706 114.981 71.719 114.921 71.733 L 114.928 71.735 C 113.992 71.961 113.065 72.212 112.147 72.484 L 112.156 72.474 C 112.003 72.526 111.863 72.568 111.718 72.614 C 111.579 72.656 111.44 72.697 111.302 72.74 C 107.574 73.786 106.588 72.307 104.083 69.208 L 102.782 67.492 C 100.966 65.05 99.658 64.008 98.265 63.894 C 98.09 63.881 97.914 63.881 97.736 63.894 C 96.49 63.992 95.124 64.757 93.242 65.872 C 88.885 68.323 87.463 69.357 89.877 74.944 L 90.711 76.928 C 92.247 80.916 93.046 82.46 89.504 85.553 L 89.598 85.533 C 88.866 86.227 88.153 86.941 87.46 87.673 L 87.479 87.578 C 84.386 91.12 82.843 90.321 78.854 88.786 L 76.87 87.95 C 75.124 87.195 73.823 86.816 72.784 86.784 C 70.498 86.712 69.483 88.319 67.798 91.315 C 65.25 95.617 64.534 97.225 69.418 100.857 L 71.134 102.158 C 74.233 104.663 75.712 105.649 74.667 109.377 C 74.623 109.515 74.582 109.654 74.54 109.793 C 74.495 109.938 74.455 110.078 74.402 110.231 L 74.411 110.221 C 74.139 111.139 73.888 112.065 73.662 113.002 L 73.66 112.995 C 73.648 113.055 73.634 113.107 73.622 113.165 C 73.563 113.413 73.507 113.661 73.452 113.909 C 72.491 117.619 70.716 117.737 66.795 118.354 L 64.658 118.622 C 58.613 119.326 58.427 121.074 58.483 126.074 C 58.427 131.074 58.613 132.823 64.658 133.526 L 66.795 133.794 C 70.716 134.411 72.491 134.529 73.452 138.239 C 73.507 138.488 73.563 138.736 73.622 138.983 C 73.634 139.041 73.648 139.093 73.66 139.153 L 73.662 139.146 C 73.888 140.083 74.139 141.009 74.411 141.927 L 74.4 141.917 C 74.453 142.07 74.494 142.21 74.54 142.355 C 74.582 142.494 74.623 142.633 74.666 142.771 C 75.712 146.499 74.233 147.485 71.134 149.99 L 69.419 151.29 C 64.535 154.922 65.25 156.527 67.798 160.83 C 70.25 165.187 71.283 166.609 76.87 164.195 L 78.855 163.361 C 82.843 161.825 84.386 161.026 87.48 164.568 L 87.458 164.474 C 88.152 165.206 88.866 165.918 89.598 166.612 L 89.504 166.592 C 93.046 169.685 92.247 171.228 90.712 175.217 L 89.875 177.201 C 87.462 182.788 88.883 183.823 93.241 186.275 C 97.543 188.823 99.15 189.537 102.782 184.653 L 104.084 182.937 C 106.588 179.838 107.575 178.359 111.302 179.404 C 111.441 179.448 111.58 179.489 111.719 179.531 C 111.864 179.576 112.004 179.618 112.157 179.671 L 112.148 179.66 C 113.066 179.933 113.992 180.184 114.929 180.41 L 114.922 180.412 C 114.982 180.422 115.033 180.436 115.092 180.45 C 115.339 180.509 115.587 180.564 115.836 180.62 C 119.546 181.581 119.664 183.356 120.281 187.277 L 120.549 189.414 C 121.252 195.459 123.001 195.645 128 195.589 C 133 195.645 134.749 195.459 135.452 189.414 L 135.72 187.277 C 136.338 183.356 136.455 181.581 140.165 180.62 C 140.414 180.564 140.662 180.509 140.909 180.45 C 140.968 180.44 141.019 180.426 141.079 180.412 L 141.072 180.41 C 142.009 180.184 142.935 179.933 143.853 179.66 L 143.844 179.671 C 143.997 179.618 144.137 179.577 144.282 179.531 C 144.421 179.489 144.56 179.448 144.698 179.404 C 148.426 178.359 149.412 179.838 151.917 182.937 L 153.218 184.653 C 156.85 189.537 158.456 188.821 162.758 186.273 C 167.116 183.822 168.537 182.788 166.124 177.201 L 165.289 175.217 C 163.754 171.228 162.955 169.685 166.497 166.592 L 166.402 166.612 C 167.134 165.918 167.847 165.204 168.541 164.472 L 168.521 164.566 C 171.614 161.024 173.157 161.823 177.146 163.359 L 179.13 164.195 C 184.717 166.609 185.751 165.187 188.202 160.83 C 190.75 156.527 191.466 154.92 186.582 151.288 L 184.866 149.987 C 181.767 147.482 180.288 146.496 181.333 142.768 C 181.377 142.63 181.418 142.491 181.46 142.352 C 181.505 142.207 181.545 142.067 181.598 141.914 L 181.588 141.924 C 181.861 141.006 182.112 140.08 182.338 139.143 L 182.34 139.15 C 182.352 139.09 182.366 139.038 182.378 138.98 C 182.437 138.732 182.492 138.484 182.548 138.236 C 183.509 134.526 185.284 134.408 189.205 133.791 L 191.342 133.523 C 197.387 132.82 197.573 131.071 197.517 126.071 C 197.573 121.071 197.387 119.322 191.342 118.619 L 189.205 118.351 C 185.284 117.734 183.509 117.616 182.548 113.906 C 182.492 113.658 182.437 113.409 182.378 113.162 C 182.365 113.104 182.352 113.052 182.34 112.992 L 182.338 112.999 C 182.112 112.062 181.861 111.136 181.588 110.218 L 181.599 110.228 C 181.547 110.075 181.505 109.935 181.46 109.79 C 181.418 109.651 181.377 109.512 181.333 109.374 C 180.288 105.646 181.767 104.66 184.866 102.155 L 186.582 100.854 C 191.466 97.222 190.75 95.616 188.202 91.314 C 186.517 88.318 185.502 86.709 183.216 86.781 C 182.177 86.812 180.876 87.194 179.13 87.948 L 177.146 88.783 C 173.157 90.319 171.614 91.117 168.521 87.576 L 168.542 87.67 C 167.848 86.938 167.134 86.225 166.402 85.531 L 166.496 85.552 C 162.954 82.458 163.753 80.915 165.289 76.927 L 166.125 74.943 C 168.539 69.355 167.117 68.322 162.76 65.87 C 160.608 64.596 159.131 63.78 157.737 63.893 C 156.344 64.006 155.034 65.049 153.218 67.491 L 151.917 69.207 C 149.412 72.306 148.426 73.785 144.698 72.739 C 144.56 72.696 144.421 72.655 144.282 72.612 C 144.137 72.567 143.997 72.527 143.844 72.475 L 143.853 72.485 C 142.935 72.212 142.009 71.961 141.072 71.735 L 141.079 71.734 C 141.019 71.723 140.967 71.71 140.909 71.696 C 140.662 71.637 140.414 71.581 140.165 71.526 C 136.455 70.565 136.337 68.789 135.72 64.869 L 135.452 62.732 C 134.749 56.687 133 56.501 128.001 56.557 L 128 56.556 Z  M 127.989 85.287 C 127.993 85.287 127.996 85.287 128 85.287 C 132.695 85.287 137.233 86.098 141.474 87.586 C 142.295 90.275 144.105 92.554 146.539 93.962 C 148.971 95.36 151.842 95.788 154.576 95.159 C 161.253 100.898 166.098 108.789 167.961 117.915 C 168.43 120.214 166.674 122.365 164.327 122.365 L 152.852 122.365 C 151.212 122.365 149.767 121.288 149.298 119.716 C 146.486 110.283 137.852 103.841 128.009 103.828 C 126.28 103.838 124.557 104.046 122.876 104.454 C 121.277 104.842 119.613 104.13 118.79 102.705 L 113.062 92.786 C 111.891 90.757 112.871 88.164 115.091 87.417 C 119.248 86.018 123.603 85.299 127.989 85.287 L 127.989 85.287 Z  M 103.604 94.645 C 104.865 94.704 106.01 95.401 106.642 96.495 L 112.37 106.415 C 113.191 107.836 112.979 109.628 111.85 110.82 C 107.945 114.942 105.764 120.397 105.753 126.075 C 105.759 131.756 107.936 137.216 111.841 141.343 C 112.969 142.534 113.181 144.325 112.361 145.746 L 106.649 155.642 C 105.476 157.673 102.737 158.119 100.98 156.565 C 94.159 150.533 89.621 142.44 87.945 133.632 C 89.854 131.578 90.917 128.878 90.921 126.073 C 90.916 123.269 89.852 120.571 87.943 118.518 C 89.616 109.706 94.151 101.608 100.973 95.572 C 101.696 94.932 102.64 94.6 103.604 94.645 L 103.604 94.645 Z  M 152.861 129.781 L 164.289 129.781 C 166.636 129.781 168.392 131.932 167.923 134.231 C 166.061 143.352 161.221 151.24 154.549 156.978 C 153.66 156.774 152.75 156.679 151.839 156.697 C 149.976 156.741 148.153 157.252 146.539 158.184 C 144.113 159.59 142.307 161.862 141.484 164.544 C 137.243 166.038 132.702 166.854 128.004 166.859 C 127.998 166.859 127.992 166.859 127.985 166.859 C 123.601 166.842 119.249 166.117 115.095 164.714 C 112.877 163.965 111.899 161.375 113.069 159.348 L 118.788 149.441 C 119.611 148.016 121.275 147.303 122.874 147.692 C 124.556 148.1 126.28 148.309 128.011 148.318 C 137.856 148.308 146.494 141.866 149.307 132.43 C 149.776 130.858 151.221 129.781 152.861 129.781 L 152.861 129.781 Z " id="path4356" fill="rgb(128,163,250)"/><g opacity="0.8"><path d=" M 128 77.871 C 105.188 77.871 86.078 93.743 81.083 115.036 C 83.711 115.344 86.143 116.578 87.943 118.518 C 89.616 109.706 94.151 101.608 100.973 95.572 C 101.696 94.932 102.64 94.6 103.604 94.645 C 104.865 94.704 106.01 95.401 106.642 96.495 L 112.37 106.415 C 113.191 107.836 112.98 109.628 111.851 110.82 C 107.945 114.942 105.764 120.397 105.753 126.075 C 105.759 131.756 107.936 137.216 111.841 141.343 C 112.97 142.534 113.181 144.325 112.361 145.746 L 106.649 155.642 C 105.477 157.673 102.737 158.119 100.98 156.565 C 94.16 150.533 89.621 142.44 87.945 133.632 C 86.145 135.571 83.713 136.806 81.085 137.113 C 86.082 158.405 105.19 174.275 128 174.275 C 132.835 174.275 137.501 173.555 141.904 172.229 C 140.854 169.799 140.705 167.074 141.484 164.544 C 137.243 166.039 132.702 166.854 128.004 166.86 C 127.998 166.86 127.992 166.86 127.985 166.86 C 123.601 166.842 119.249 166.117 115.095 164.714 C 112.877 163.966 111.899 161.375 113.069 159.348 L 118.788 149.441 C 119.611 148.016 121.275 147.304 122.874 147.692 C 124.556 148.101 126.28 148.309 128.011 148.318 C 137.856 148.308 146.494 141.866 149.307 132.43 C 149.776 130.858 151.221 129.781 152.861 129.781 L 164.289 129.781 C 166.635 129.781 168.392 131.932 167.923 134.231 C 166.061 143.352 161.221 151.24 154.549 156.978 C 157.134 157.561 159.426 159.048 161.012 161.171 C 170.357 152.378 176.202 139.909 176.202 126.073 C 176.202 112.235 170.354 99.763 161.007 90.97 C 159.428 93.085 157.149 94.57 154.576 95.159 C 161.253 100.898 166.098 108.789 167.961 117.915 C 168.43 120.214 166.673 122.365 164.327 122.365 L 152.852 122.365 C 151.212 122.365 149.767 121.288 149.298 119.716 C 146.486 110.283 137.852 103.841 128.009 103.828 C 126.28 103.838 124.557 104.046 122.876 104.454 C 121.277 104.842 119.613 104.13 118.79 102.705 L 113.062 92.786 C 111.891 90.757 112.871 88.164 115.091 87.417 C 119.248 86.018 123.603 85.299 127.989 85.287 C 127.993 85.287 127.996 85.287 128 85.287 C 132.695 85.287 137.233 86.098 141.474 87.586 C 140.7 85.059 140.851 82.34 141.899 79.915 C 137.497 78.59 132.833 77.871 128 77.871 L 128 77.871 Z  M 128 111.242 C 131.934 111.242 135.706 112.804 138.487 115.586 C 141.269 118.367 142.831 122.14 142.831 126.073 C 142.831 134.264 136.191 140.905 128 140.905 C 119.809 140.905 113.169 134.264 113.169 126.073 C 113.169 122.14 114.731 118.367 117.513 115.586 C 120.294 112.804 124.066 111.242 128 111.242 L 128 111.242 Z " id="path4451" fill="rgb(255,255,255)"/></g><path d=" M 151.839 78.772 C 149.947 78.862 148.232 79.908 147.285 81.548 C 145.75 84.208 146.661 87.609 149.32 89.145 C 151.98 90.68 155.381 89.769 156.917 87.11 C 157.655 85.832 157.855 84.314 157.473 82.889 C 157.092 81.464 156.16 80.249 154.882 79.511 C 153.959 78.978 152.903 78.722 151.839 78.772 Z  M 79.798 120.511 C 78.323 120.511 76.908 121.097 75.865 122.14 C 74.822 123.183 74.236 124.598 74.236 126.073 C 74.236 129.145 76.726 131.635 79.798 131.635 C 82.869 131.635 85.36 129.145 85.36 126.073 C 85.36 124.598 84.774 123.183 83.731 122.14 C 82.688 121.097 81.273 120.511 79.798 120.511 L 79.798 120.511 Z  M 151.971 162.257 C 151.039 162.279 150.127 162.535 149.32 163.001 C 146.661 164.538 145.75 167.938 147.285 170.598 C 148.821 173.258 152.222 174.169 154.882 172.633 C 157.541 171.097 158.452 167.696 156.917 165.036 C 155.9 163.276 154.004 162.21 151.971 162.257 L 151.971 162.257 Z " id="circle1245" fill="rgb(89,89,89)"/></g><g opacity="0.4"><linearGradient id="_lgradient_235" x1="0.5166666666666668" y1="0" x2="0.5166666666666666" y2="1.0000000000000002"><stop offset="0%" stop-opacity="1" style="stop-color:rgb(255,255,255)"/><stop offset="12.5%" stop-opacity="0.09803922" style="stop-color:rgb(255,255,255)"/><stop offset="92.500001%" stop-opacity="0.09803922" style="stop-color:rgb(0,0,0)"/><stop offset="100%" stop-opacity="0.49803922" style="stop-color:rgb(0,0,0)"/></linearGradient><path d=" M 165.685 11.947 C 239.74 11.947 250.324 22.504 250.324 96.491 L 250.324 155.742 C 250.324 229.728 239.74 240.285 165.685 240.285 L 90.315 240.285 C 16.26 240.285 5.676 229.728 5.676 155.742 L 5.676 96.491 C 5.676 22.504 16.26 11.947 90.315 11.947 L 165.685 11.947 Z " id="highlight" fill="none" vector-effect="non-scaling-stroke" stroke-width="4.077" stroke="url(#_lgradient_235)" stroke-linejoin="round" stroke-linecap="round" stroke-miterlimit="4"/></g></svg>