<svg xmlns="http://www.w3.org/2000/svg" style="isolation:isolate" width="256" height="256"><defs><clipPath id="a"><path d="M0 0h256v256H0z"/></clipPath></defs><switch><g clip-path="url(#a)"><defs><filter id="b" width="270.648" height="254.338" x="-6.66" y="4.28" filterUnits="userSpaceOnUse"><feGaussianBlur xmlns="http://www.w3.org/2000/svg" in="SourceGraphic" stdDeviation="4.294"/><feOffset xmlns="http://www.w3.org/2000/svg" dy="4" result="pf_100_offsetBlur"/><feFlood xmlns="http://www.w3.org/2000/svg" flood-opacity=".4"/><feComposite xmlns="http://www.w3.org/2000/svg" in2="pf_100_offsetBlur" operator="in" result="pf_100_dropShadow"/><feBlend xmlns="http://www.w3.org/2000/svg" in="SourceGraphic" in2="pf_100_dropShadow"/></filter></defs><g filter="url(#b)"><linearGradient id="c" x1=".5" x2=".5" y1="-.036" y2="1.036" gradientTransform="matrix(244.648 0 0 228.338 6.343 13.28)" gradientUnits="userSpaceOnUse"><stop offset="0%" stop-color="#da1636"/><stop offset="100%" stop-color="#f22c42"/></linearGradient><path fill="url(#c)" d="M166.351 13.28c74.056 0 84.64 10.557 84.64 84.544v59.251c0 73.986-10.584 84.544-84.64 84.544H90.982c-74.056 0-84.639-10.558-84.639-84.544V97.824c0-73.987 10.583-84.544 84.639-84.544h75.369z"/></g><g opacity=".4"><linearGradient id="d" x1=".517" x2=".517" y2="1"><stop offset="0%" stop-color="#fff"/><stop offset="12.5%" stop-opacity=".098" stop-color="#fff"/><stop offset="92.5%" stop-opacity=".098"/><stop offset="100%" stop-opacity=".498"/></linearGradient><path fill="none" stroke="url(#d)" stroke-linecap="round" stroke-linejoin="round" stroke-width="4.077" d="M165.685 11.947c74.055 0 84.639 10.557 84.639 84.544v59.251c0 73.986-10.584 84.543-84.639 84.543h-75.37c-74.055 0-84.639-10.557-84.639-84.543V96.491c0-73.987 10.584-84.544 84.639-84.544h75.37z" vector-effect="non-scaling-stroke"/></g><defs><filter id="e" width="73.667" height="170.756" x="42.67" y="45.3" filterUnits="userSpaceOnUse"><feGaussianBlur xmlns="http://www.w3.org/2000/svg" in="SourceGraphic" stdDeviation="4.294"/><feOffset xmlns="http://www.w3.org/2000/svg" dy="4" result="pf_100_offsetBlur"/><feFlood xmlns="http://www.w3.org/2000/svg" flood-opacity=".4"/><feComposite xmlns="http://www.w3.org/2000/svg" in2="pf_100_offsetBlur" operator="in" result="pf_100_dropShadow"/><feBlend xmlns="http://www.w3.org/2000/svg" in="SourceGraphic" in2="pf_100_dropShadow"/></filter></defs><path fill="#E6E6E6" fill-rule="evenodd" d="M98.617 181.651v-24.185H87.578V152.8c.903-.151 1.255-.402 1.305-.903l-7.025-.402v5.971h-4.867V152.8c.903-.151 1.255-.402 1.305-.903l-6.924-.402v5.971H60.985v24.185h-5.017v5.669h14.3c-3.312 2.559-9.233 5.67-14.25 7.276 1.555 1.204 3.713 3.211 4.867 4.465 5.268-1.856 11.641-5.368 14.902-8.028.502-.05.853-.15 1.004-.351l-5.169-3.362h15.153l-3.713 3.412c5.169 2.509 10.838 6.021 13.999 8.329l5.771-4.214c-3.262-2.058-8.731-5.068-13.849-7.527h14.2v-5.669h-4.566zm-16.759-12.143h-4.867v-6.473h4.867v6.473zm-4.867 12.143v-6.573h4.867v6.573h-4.867zm-5.619-12.143h-4.566v-6.473h4.566v6.473zm0 5.57v6.573h-4.566v-6.573h4.566zm21.174-5.57h-4.968v-6.473h4.968v6.473zm0 5.57v6.573h-4.968v-6.573h4.968zm10.787-53.638h-6.472a63.668 63.668 0 0 0 3.211-7.125c.702 0 1.154-.201 1.355-.602l-4.014-1.154h5.318v-5.469h-9.734v-4.265c.954-.151 1.355-.452 1.405-1.004l-7.526-.351v5.62h-8.58v5.469h5.971l-3.964 1.204c1.003 2.308 1.957 5.419 2.258 7.677h-4.817v-5.268h-7.828v-7.376c.753-.151 1.155-.351 1.255-.753 1.907-.552 3.663-1.154 5.168-1.806.15.05.301.05.452.05.401 0 .702-.1.853-.201l-4.868-4.666c-4.114 2.057-10.938 4.014-17.109 5.268.702 1.154 1.555 3.262 1.806 4.566a81.523 81.523 0 0 0 6.623-1.354v6.272h-8.178v5.619h8.178v6.423h-6.322v19.869h5.369v-2.86h7.727v1.505h5.67v-18.514h-6.624v-6.423h7.176v5.218h10.135v4.918h-9.182v5.519h9.182v11.34h6.021v-11.34h9.132v-5.519h-9.132v-4.918h10.085v-5.569zm-9.583 0h-8.63l2.759-.903c-.301-2.208-1.304-5.419-2.458-7.978h9.132c-.653 2.609-1.807 5.921-2.86 8.128l2.057.753zm-30.607 18.364v-6.222h7.727v6.222h-7.727zm-.351-41.846h6.221v-3.312h21.576v3.262h6.472V54.305H62.792v43.653zm27.797-26.593H69.013V60.377h21.576v10.988zm-21.576 5.971h21.576v11.239H69.013V77.336z" filter="url(#e)"/></g></switch> </svg>