<svg xmlns="http://www.w3.org/2000/svg" style="isolation:isolate" width="256" height="256"><defs><filter id="a" width="270.648" height="254.338" x="-7.32" y="2.95" filterUnits="userSpaceOnUse"><feGaussianBlur xmlns="http://www.w3.org/2000/svg" in="SourceGraphic" stdDeviation="4.294"/><feOffset xmlns="http://www.w3.org/2000/svg" dy="4" result="pf_100_offsetBlur"/><feFlood xmlns="http://www.w3.org/2000/svg" flood-opacity=".4"/><feComposite xmlns="http://www.w3.org/2000/svg" in2="pf_100_offsetBlur" operator="in" result="pf_100_dropShadow"/><feBlend xmlns="http://www.w3.org/2000/svg" in="SourceGraphic" in2="pf_100_dropShadow"/></filter></defs><g filter="url(#a)"><linearGradient id="b" x1=".736" x2=".267" y1="1.075" y2=".005" gradientTransform="matrix(244.648 0 0 228.338 5.676 11.947)" gradientUnits="userSpaceOnUse"><stop offset="0%" stop-color="#5fb560"/><stop offset="99.13%" stop-color="#129f14"/></linearGradient><path fill="url(#b)" d="M165.685 11.947c74.055 0 84.639 10.557 84.639 84.544v59.251c0 73.986-10.584 84.543-84.639 84.543h-75.37c-74.055 0-84.639-10.557-84.639-84.543V96.491c0-73.987 10.584-84.544 84.639-84.544h75.37z"/></g><g opacity=".4"><linearGradient id="c" x1=".517" x2=".517" y2="1"><stop offset="0%" stop-color="#fff"/><stop offset="12.5%" stop-opacity=".098" stop-color="#fff"/><stop offset="92.5%" stop-opacity=".098"/><stop offset="100%" stop-opacity=".498"/></linearGradient><path fill="none" stroke="url(#c)" stroke-linecap="round" stroke-linejoin="round" stroke-width="4.077" d="M165.685 11.947c74.055 0 84.639 10.557 84.639 84.544v59.251c0 73.986-10.584 84.543-84.639 84.543h-75.37c-74.055 0-84.639-10.557-84.639-84.543V96.491c0-73.987 10.584-84.544 84.639-84.544h75.37z" vector-effect="non-scaling-stroke"/></g><path fill="#FFF" d="M5.676 126.116v29.626c0 73.986 10.584 84.543 84.639 84.543h75.37c74.055 0 84.639-10.557 84.639-84.543v-29.626H5.676z" opacity=".1"/><defs><filter id="d" width="154.956" height="154.615" x="47.77" y="49.45" filterUnits="userSpaceOnUse"><feGaussianBlur xmlns="http://www.w3.org/2000/svg" stdDeviation=".742"/></filter></defs><path d="M125.125 51.211l-47.23 37.838v75.447l47.23 37.837h9.583V51.173h-9.469l-.114.038zm.115 11.666v127.422l-37.875-30.348V93.196l37.875-30.319zm57.097 1.496l-7.3 5.975a104.15 104.15 0 0 1 16.494 56.235 104.155 104.155 0 0 1-16.57 56.169l7.414 6.088A113.604 113.604 0 0 0 201 126.592a113.664 113.664 0 0 0-18.663-62.21M160.18 82.524l-7.395 6.051a75.836 75.836 0 0 1 10.34 38.065 75.8 75.8 0 0 1-10.321 38.064l7.395 6.07a85.383 85.383 0 0 0 12.395-44.106A85.162 85.162 0 0 0 160.18 82.6M49.499 98.602v56.813h18.938V98.602H49.499z" opacity=".3" filter="url(#d)"/><path fill="#FFF" d="M125.125 51.211l-47.23 37.838v75.447l47.23 37.837h9.583V51.173h-9.469l-.114.038zm.115 11.666v127.422l-37.875-30.348V93.196l37.875-30.319zm57.097 1.496l-7.3 5.975a104.15 104.15 0 0 1 16.494 56.235 104.155 104.155 0 0 1-16.57 56.169l7.414 6.088A113.604 113.604 0 0 0 201 126.592a113.664 113.664 0 0 0-18.663-62.21M160.18 82.524l-7.395 6.051a75.836 75.836 0 0 1 10.34 38.065 75.8 75.8 0 0 1-10.321 38.064l7.395 6.07a85.383 85.383 0 0 0 12.395-44.106A85.162 85.162 0 0 0 160.18 82.6M49.499 98.602v56.813h18.938V98.602H49.499z"/></svg>