<?xml version="1.0" encoding="UTF-8" standalone="no"?>
<!-- Created with Inkscape (http://www.inkscape.org/) -->

<svg
   xmlns:dc="http://purl.org/dc/elements/1.1/"
   xmlns:cc="http://creativecommons.org/ns#"
   xmlns:rdf="http://www.w3.org/1999/02/22-rdf-syntax-ns#"
   xmlns:svg="http://www.w3.org/2000/svg"
   xmlns="http://www.w3.org/2000/svg"
   xmlns:xlink="http://www.w3.org/1999/xlink"
   xmlns:sodipodi="http://sodipodi.sourceforge.net/DTD/sodipodi-0.dtd"
   xmlns:inkscape="http://www.inkscape.org/namespaces/inkscape"
   width="256"
   height="256"
   viewBox="0 0 67.733332 67.733335"
   version="1.1"
   id="svg1488"
   inkscape:version="0.92.3 (2405546, 2018-03-11)"
   sodipodi:docname="org.gnome.Contacts.svg">
  <defs
     id="defs1482">
    <clipPath
       clipPathUnits="userSpaceOnUse"
       id="clipPath1025">
      <path
         id="path1027"
         d="M 111.94141,84 C 99.359506,84.145 90.1531,83.713998 82.625,87.867188 c -3.7641,2.0768 -6.751838,5.574737 -8.398438,9.960937 C 72.580062,102.21433 72,107.4241 72,114 v 42 h 160 v -26 c 0,-6.5759 -0.57996,-11.78566 -2.22656,-16.17188 -0.205,-0.5455 -0.47919,-1.03993 -0.74219,-1.54296 -0.1,-0.1848 -0.17844,-0.38051 -0.27344,-0.56641 -1.727,-3.38752 -4.25471,-6.14522 -7.38281,-7.87109 C 213.8463,99.694146 204.64049,100.1454 192.05859,100 H 192 151.66797 L 135.45312,84 h -23.49218 z"
         style="color:#000000;font-style:normal;font-variant:normal;font-weight:normal;font-stretch:normal;font-size:medium;line-height:normal;font-family:sans-serif;font-variant-ligatures:none;font-variant-position:normal;font-variant-caps:normal;font-variant-numeric:normal;font-variant-alternates:normal;font-feature-settings:normal;text-indent:0;text-align:start;text-decoration:none;text-decoration-line:none;text-decoration-style:solid;text-decoration-color:#000000;letter-spacing:normal;word-spacing:normal;text-transform:none;writing-mode:lr-tb;direction:ltr;baseline-shift:baseline;text-anchor:start;white-space:normal;shape-padding:0;clip-rule:nonzero;display:inline;overflow:visible;visibility:visible;opacity:1;isolation:auto;mix-blend-mode:normal;color-interpolation:sRGB;color-interpolation-filters:linearRGB;solid-color:#000000;solid-opacity:1;fill:#e3dfd5;fill-opacity:1;fill-rule:nonzero;stroke:none;stroke-width:4.00000048;stroke-linecap:butt;stroke-linejoin:miter;stroke-miterlimit:4;stroke-dasharray:none;stroke-dashoffset:0;stroke-opacity:1;marker:none;color-rendering:auto;image-rendering:auto;shape-rendering:auto;text-rendering:auto;enable-background:accumulate"
         inkscape:connector-curvature="0" />
    </clipPath>
    <clipPath
       clipPathUnits="userSpaceOnUse"
       id="clipPath1082-3">
      <path
         sodipodi:nodetypes="sssssssss"
         inkscape:connector-curvature="0"
         id="path1084-6"
         d="M 361.9375,-212 C 507.2348,-212 528,-191.28677 528,-46.125 V 70.125 C 528,215.28618 507.2348,236 361.9375,236 H 214.0625 C 68.7652,236 48,215.28618 48,70.125 V -46.125 C 48,-191.28677 68.7652,-212 214.0625,-212 Z"
         style="display:inline;opacity:1;fill:#8c59d9;fill-opacity:1;stroke:none;stroke-width:2;stroke-linecap:round;stroke-linejoin:round;stroke-miterlimit:4;stroke-dasharray:none;stroke-dashoffset:0;stroke-opacity:1;enable-background:new" />
    </clipPath>
    <clipPath
       clipPathUnits="userSpaceOnUse"
       id="clipPath1082-3-5">
      <path
         sodipodi:nodetypes="sssssssss"
         inkscape:connector-curvature="0"
         id="path1084-6-6"
         d="M 361.9375,-212 C 507.2348,-212 528,-191.28677 528,-46.125 V 70.125 C 528,215.28618 507.2348,236 361.9375,236 H 214.0625 C 68.7652,236 48,215.28618 48,70.125 V -46.125 C 48,-191.28677 68.7652,-212 214.0625,-212 Z"
         style="display:inline;opacity:1;fill:#8c59d9;fill-opacity:1;stroke:none;stroke-width:2;stroke-linecap:round;stroke-linejoin:round;stroke-miterlimit:4;stroke-dasharray:none;stroke-dashoffset:0;stroke-opacity:1;enable-background:new" />
    </clipPath>
    <clipPath
       clipPathUnits="userSpaceOnUse"
       id="clipPath1082-3-9">
      <path
         sodipodi:nodetypes="sssssssss"
         inkscape:connector-curvature="0"
         id="path1084-6-3"
         d="M 361.9375,-212 C 507.2348,-212 528,-191.28677 528,-46.125 V 70.125 C 528,215.28618 507.2348,236 361.9375,236 H 214.0625 C 68.7652,236 48,215.28618 48,70.125 V -46.125 C 48,-191.28677 68.7652,-212 214.0625,-212 Z"
         style="display:inline;opacity:1;fill:#8c59d9;fill-opacity:1;stroke:none;stroke-width:2;stroke-linecap:round;stroke-linejoin:round;stroke-miterlimit:4;stroke-dasharray:none;stroke-dashoffset:0;stroke-opacity:1;enable-background:new" />
    </clipPath>
    <clipPath
       clipPathUnits="userSpaceOnUse"
       id="clipPath1082-3-3">
      <path
         sodipodi:nodetypes="sssssssss"
         inkscape:connector-curvature="0"
         id="path1084-6-67"
         d="M 361.9375,-212 C 507.2348,-212 528,-191.28677 528,-46.125 V 70.125 C 528,215.28618 507.2348,236 361.9375,236 H 214.0625 C 68.7652,236 48,215.28618 48,70.125 V -46.125 C 48,-191.28677 68.7652,-212 214.0625,-212 Z"
         style="display:inline;opacity:1;fill:#8c59d9;fill-opacity:1;stroke:none;stroke-width:2;stroke-linecap:round;stroke-linejoin:round;stroke-miterlimit:4;stroke-dasharray:none;stroke-dashoffset:0;stroke-opacity:1;enable-background:new" />
    </clipPath>
    <clipPath
       clipPathUnits="userSpaceOnUse"
       id="clipPath1082-3-53">
      <path
         sodipodi:nodetypes="sssssssss"
         inkscape:connector-curvature="0"
         id="path1084-6-5"
         d="M 361.9375,-212 C 507.2348,-212 528,-191.28677 528,-46.125 V 70.125 C 528,215.28618 507.2348,236 361.9375,236 H 214.0625 C 68.7652,236 48,215.28618 48,70.125 V -46.125 C 48,-191.28677 68.7652,-212 214.0625,-212 Z"
         style="display:inline;opacity:1;fill:#8c59d9;fill-opacity:1;stroke:none;stroke-width:2;stroke-linecap:round;stroke-linejoin:round;stroke-miterlimit:4;stroke-dasharray:none;stroke-dashoffset:0;stroke-opacity:1;enable-background:new" />
    </clipPath>
    <clipPath
       clipPathUnits="userSpaceOnUse"
       id="clipPath1082-3-6">
      <path
         sodipodi:nodetypes="sssssssss"
         inkscape:connector-curvature="0"
         id="path1084-6-2"
         d="M 361.9375,-212 C 507.2348,-212 528,-191.28677 528,-46.125 V 70.125 C 528,215.28618 507.2348,236 361.9375,236 H 214.0625 C 68.7652,236 48,215.28618 48,70.125 V -46.125 C 48,-191.28677 68.7652,-212 214.0625,-212 Z"
         style="display:inline;opacity:1;fill:#8c59d9;fill-opacity:1;stroke:none;stroke-width:2;stroke-linecap:round;stroke-linejoin:round;stroke-miterlimit:4;stroke-dasharray:none;stroke-dashoffset:0;stroke-opacity:1;enable-background:new" />
    </clipPath>
    <clipPath
       clipPathUnits="userSpaceOnUse"
       id="clipPath1082-3-91">
      <path
         sodipodi:nodetypes="sssssssss"
         inkscape:connector-curvature="0"
         id="path1084-6-27"
         d="M 361.9375,-212 C 507.2348,-212 528,-191.28677 528,-46.125 V 70.125 C 528,215.28618 507.2348,236 361.9375,236 H 214.0625 C 68.7652,236 48,215.28618 48,70.125 V -46.125 C 48,-191.28677 68.7652,-212 214.0625,-212 Z"
         style="display:inline;opacity:1;fill:#8c59d9;fill-opacity:1;stroke:none;stroke-width:2;stroke-linecap:round;stroke-linejoin:round;stroke-miterlimit:4;stroke-dasharray:none;stroke-dashoffset:0;stroke-opacity:1;enable-background:new" />
    </clipPath>
    <clipPath
       clipPathUnits="userSpaceOnUse"
       id="clipPath1025-0">
      <path
         style="opacity:1;fill:#8c59d9;fill-opacity:1;stroke:none;stroke-width:2;stroke-linecap:round;stroke-linejoin:round;stroke-miterlimit:4;stroke-dasharray:none;stroke-dashoffset:0;stroke-opacity:1"
         d="M 329.9375,32 C 475.2348,32 496,52.71323 496,197.875 v 116.25 C 496,459.28618 475.2348,480 329.9375,480 H 182.0625 C 36.7652,480 16,459.28618 16,314.125 V 197.875 C 16,52.71323 36.7652,32 182.0625,32 Z"
         id="path1027-9"
         inkscape:connector-curvature="0"
         sodipodi:nodetypes="sssssssss" />
    </clipPath>
    <clipPath
       clipPathUnits="userSpaceOnUse"
       id="clipPath4277-8">
      <rect
         style="color:#000000;display:inline;overflow:visible;visibility:visible;opacity:0.81999972;fill:#88b637;fill-opacity:1;fill-rule:nonzero;stroke:none;stroke-width:2;stroke-linecap:butt;stroke-linejoin:miter;stroke-miterlimit:4;stroke-dasharray:none;stroke-dashoffset:0;stroke-opacity:1;marker:none;enable-background:accumulate"
         id="rect4279-6"
         width="512"
         height="512"
         x="5.5999999e-07"
         y="0"
         ry="1" />
    </clipPath>
    <linearGradient
       id="linearGradient3650-7-9">
      <stop
         style="stop-color:#5884f4;stop-opacity:1"
         offset="0"
         id="stop4366" />
      <stop
         id="stop4368"
         offset="1"
         style="stop-color:#80a3fa;stop-opacity:1" />
    </linearGradient>
    <linearGradient
       inkscape:collect="always"
       xlink:href="#linearGradient1013"
       id="linearGradient1108"
       x1="296"
       y1="-212"
       x2="296"
       y2="236"
       gradientUnits="userSpaceOnUse" />
    <linearGradient
       id="linearGradient1013"
       inkscape:collect="always">
      <stop
         id="stop1005"
         offset="0"
         style="stop-color:#ffffff;stop-opacity:1;" />
      <stop
         style="stop-color:#ffffff;stop-opacity:0.09803922"
         offset="0.125"
         id="stop1007" />
      <stop
         style="stop-color:#000000;stop-opacity:0.09803922"
         offset="0.92500001"
         id="stop1009" />
      <stop
         id="stop1011"
         offset="1"
         style="stop-color:#000000;stop-opacity:0.49803922" />
    </linearGradient>
    <clipPath
       clipPathUnits="userSpaceOnUse"
       id="clipPath1082-3-36">
      <path
         sodipodi:nodetypes="sssssssss"
         inkscape:connector-curvature="0"
         id="path1084-6-7"
         d="M 361.9375,-212 C 507.2348,-212 528,-191.28677 528,-46.125 V 70.125 C 528,215.28618 507.2348,236 361.9375,236 H 214.0625 C 68.7652,236 48,215.28618 48,70.125 V -46.125 C 48,-191.28677 68.7652,-212 214.0625,-212 Z"
         style="display:inline;opacity:1;fill:#8c59d9;fill-opacity:1;stroke:none;stroke-width:2;stroke-linecap:round;stroke-linejoin:round;stroke-miterlimit:4;stroke-dasharray:none;stroke-dashoffset:0;stroke-opacity:1;enable-background:new" />
    </clipPath>
    <clipPath
       clipPathUnits="userSpaceOnUse"
       id="clipPath1025-5">
      <path
         style="opacity:1;fill:#8c59d9;fill-opacity:1;stroke:none;stroke-width:2;stroke-linecap:round;stroke-linejoin:round;stroke-miterlimit:4;stroke-dasharray:none;stroke-dashoffset:0;stroke-opacity:1"
         d="M 329.9375,32 C 475.2348,32 496,52.71323 496,197.875 v 116.25 C 496,459.28618 475.2348,480 329.9375,480 H 182.0625 C 36.7652,480 16,459.28618 16,314.125 V 197.875 C 16,52.71323 36.7652,32 182.0625,32 Z"
         id="path1027-3"
         inkscape:connector-curvature="0"
         sodipodi:nodetypes="sssssssss" />
    </clipPath>
    <clipPath
       clipPathUnits="userSpaceOnUse"
       id="clipPath4277-8-5">
      <rect
         style="color:#000000;display:inline;overflow:visible;visibility:visible;opacity:0.81999972;fill:#88b637;fill-opacity:1;fill-rule:nonzero;stroke:none;stroke-width:2;stroke-linecap:butt;stroke-linejoin:miter;stroke-miterlimit:4;stroke-dasharray:none;stroke-dashoffset:0;stroke-opacity:1;marker:none;enable-background:accumulate"
         id="rect4279-6-6"
         width="512"
         height="512"
         x="5.5999999e-07"
         y="0"
         ry="1" />
    </clipPath>
    <filter
       inkscape:collect="always"
       style="color-interpolation-filters:sRGB"
       id="filter4261"
       x="-0.011828571"
       width="1.0236571"
       y="-0.012176471"
       height="1.0243529">
      <feGaussianBlur
         inkscape:collect="always"
         stdDeviation="2.76"
         id="feGaussianBlur4263" />
    </filter>
    <linearGradient
       inkscape:collect="always"
       xlink:href="#linearGradient4271"
       id="linearGradient4273"
       x1="448"
       y1="256"
       x2="448"
       y2="496"
       gradientUnits="userSpaceOnUse"
       spreadMethod="reflect"
       gradientTransform="matrix(0.50000001,0,0,0.50000001,-2.4320089,0.432)" />
    <linearGradient
       inkscape:collect="always"
       id="linearGradient4271">
      <stop
         style="stop-color:#000000;stop-opacity:1;"
         offset="0"
         id="stop4267" />
      <stop
         style="stop-color:#000000;stop-opacity:0;"
         offset="1"
         id="stop4269" />
    </linearGradient>
    <filter
       inkscape:collect="always"
       style="color-interpolation-filters:sRGB"
       id="filter4275"
       x="-0.094628572"
       width="1.1892571"
       y="-0.097411767"
       height="1.1948235">
      <feGaussianBlur
         inkscape:collect="always"
         stdDeviation="22.08"
         id="feGaussianBlur4277" />
    </filter>
    <linearGradient
       inkscape:collect="always"
       xlink:href="#linearGradient3650-7-9"
       id="linearGradient4285"
       x1="57.714279"
       y1="-34"
       x2="284"
       y2="544"
       gradientUnits="userSpaceOnUse"
       gradientTransform="matrix(0.42424244,0,0,0.47058825,45.083146,0.432)" />
    <filter
       inkscape:collect="always"
       style="color-interpolation-filters:sRGB"
       id="filter4569"
       x="-0.0116"
       width="1.0232"
       y="-0.012428571"
       height="1.024857">
      <feGaussianBlur
         inkscape:collect="always"
         stdDeviation="1.16"
         id="feGaussianBlur4571" />
    </filter>
    <filter
       inkscape:collect="always"
       style="color-interpolation-filters:sRGB"
       id="filter929"
       x="-0.0232"
       width="1.0464"
       y="-0.024857143"
       height="1.0497143">
      <feGaussianBlur
         inkscape:collect="always"
         stdDeviation="2.32"
         id="feGaussianBlur931" />
    </filter>
    <linearGradient
       id="linearGradient3797-5">
      <stop
         id="stop3801"
         offset="0"
         style="stop-color:#e6eaef;stop-opacity:1" />
      <stop
         id="stop3799"
         offset="1"
         style="stop-color:#e6eaef;stop-opacity:1" />
    </linearGradient>
    <linearGradient
       inkscape:collect="always"
       xlink:href="#linearGradient4336-3"
       id="linearGradient4342"
       x1="624.00006"
       y1="369.23853"
       x2="688"
       y2="369.23853"
       gradientUnits="userSpaceOnUse" />
    <linearGradient
       id="linearGradient4336-3">
      <stop
         style="stop-color:#f4be58;stop-opacity:1"
         offset="0"
         id="stop4338-8" />
      <stop
         id="stop4344-3"
         offset="0.27800092"
         style="stop-color:#f4be58;stop-opacity:1" />
      <stop
         style="stop-color:#dd702f;stop-opacity:1"
         offset="0.27800092"
         id="stop4346-3" />
      <stop
         id="stop4350-1"
         offset="0.70735365"
         style="stop-color:#dd702f;stop-opacity:1" />
      <stop
         id="stop4348-6"
         offset="0.70936078"
         style="stop-color:#b82324;stop-opacity:1" />
      <stop
         style="stop-color:#b82324;stop-opacity:1"
         offset="1"
         id="stop4340-0" />
    </linearGradient>
    <filter
       inkscape:collect="always"
       style="color-interpolation-filters:sRGB"
       id="filter1674"
       x="-0.061106586"
       width="1.1222132"
       y="-0.05893278"
       height="1.1178656">
      <feGaussianBlur
         inkscape:collect="always"
         stdDeviation="0.97453946"
         id="feGaussianBlur1676" />
    </filter>
  </defs>
  <sodipodi:namedview
     id="base"
     pagecolor="#ffffff"
     bordercolor="#666666"
     borderopacity="1.0"
     inkscape:pageopacity="0.0"
     inkscape:pageshadow="2"
     inkscape:zoom="3.2421875"
     inkscape:cx="57.362165"
     inkscape:cy="140.33735"
     inkscape:document-units="px"
     inkscape:current-layer="layer1"
     showgrid="true"
     units="px"
     inkscape:window-width="1920"
     inkscape:window-height="1013"
     inkscape:window-x="0"
     inkscape:window-y="34"
     inkscape:window-maximized="1">
    <inkscape:grid
       type="xygrid"
       id="grid2168" />
  </sodipodi:namedview>
  <metadata
     id="metadata1485">
    <rdf:RDF>
      <cc:Work
         rdf:about="">
        <dc:format>image/svg+xml</dc:format>
        <dc:type
           rdf:resource="http://purl.org/dc/dcmitype/StillImage" />
        <dc:title></dc:title>
      </cc:Work>
    </rdf:RDF>
  </metadata>
  <g
     inkscape:label="Livello 1"
     inkscape:groupmode="layer"
     id="layer1"
     transform="translate(0,-229.26666)">
    <path
       style="display:inline;opacity:0.2;fill:#000000;fill-opacity:1;stroke:none;stroke-width:2;stroke-linecap:round;stroke-linejoin:round;stroke-miterlimit:4;stroke-dasharray:none;stroke-dashoffset:0;stroke-opacity:1;filter:url(#filter929);enable-background:new"
       d="m 162.53675,5.5680001 c 72.64865,0 83.03125,10.3566149 83.03125,82.9375049 v 58.125005 c 0,72.58059 -10.3826,82.9375 -83.03125,82.9375 H 88.599254 C 15.9506,229.56801 5.568,219.2111 5.568,146.63051 V 88.505505 c 0,-72.58089 10.3826,-82.9375049 83.031254,-82.9375049 z"
       id="path927"
       inkscape:connector-curvature="0"
       sodipodi:nodetypes="sssssssss"
       transform="matrix(0.26458333,0,0,0.26458333,-1.8735229e-8,232.67026)" />
    <path
       sodipodi:nodetypes="sssssssss"
       inkscape:connector-curvature="0"
       id="path4567"
       d="m 162.53675,3.5680001 c 72.64865,0 83.03125,10.3566149 83.03125,82.9375049 v 58.125005 c 0,72.58059 -10.3826,82.9375 -83.03125,82.9375 H 88.599254 C 15.9506,227.56801 5.568,217.2111 5.568,144.63051 V 86.505505 c 0,-72.58089 10.3826,-82.9375049 83.031254,-82.9375049 z"
       style="display:inline;opacity:0.1;fill:#000000;fill-opacity:1;stroke:none;stroke-width:2;stroke-linecap:round;stroke-linejoin:round;stroke-miterlimit:4;stroke-dasharray:none;stroke-dashoffset:0;stroke-opacity:1;filter:url(#filter4569);enable-background:new"
       transform="matrix(0.26458333,0,0,0.26458333,-1.8735229e-8,232.67026)" />
    <g
       style="display:inline;stroke-width:2;enable-background:new"
       id="g1005"
       transform="matrix(0.13229167,0,0,0.13229167,-0.64346902,229.38096)"
       clip-path="url(#clipPath1025-5)">
      <path
         style="color:#000000;display:inline;overflow:visible;visibility:visible;opacity:1;fill:#f22c42;fill-opacity:1;fill-rule:nonzero;stroke:none;stroke-width:3.99999976;stroke-linecap:butt;stroke-linejoin:miter;stroke-miterlimit:4;stroke-dasharray:none;stroke-dashoffset:0;stroke-opacity:1;marker:none;enable-background:accumulate"
         d="M 246.58398 76.431641 C 246.57832 76.33354 246.58193 76.19935 246.57617 76.101562 C 246.35915 72.41685 246.0752 68.95293 245.71094 65.699219 C 245.34667 62.445507 244.90257 59.401261 244.36523 56.552734 C 243.8279 53.704207 243.19717 51.05119 242.46094 48.582031 C 241.72471 46.112872 240.88282 43.828498 239.92188 41.712891 C 238.96093 39.597283 237.88141 37.651154 236.66992 35.863281 C 235.45843 34.075409 234.11481 32.444938 232.62695 30.958984 C 231.13909 29.473031 229.50685 28.131727 227.7168 26.921875 C 225.92674 25.712023 223.9794 24.633394 221.86133 23.673828 C 219.74326 22.714262 217.45433 21.873769 214.98242 21.138672 C 212.51051 20.403575 209.85548 19.774726 207.00391 19.238281 C 204.15233 18.701837 201.10472 18.25814 197.84766 17.894531 C 194.59059 17.530922 191.12393 17.245886 187.43555 17.029297 C 180.95686 16.648855 173.48761 16.540526 165.56836 16.503906 L 165.56836 76.431641 L 246.58398 76.431641 z "
         id="path1282"
         transform="matrix(2,0,0,2,4.8640177,-0.86399998)" />
      <path
         style="color:#000000;display:inline;overflow:visible;visibility:visible;opacity:1;fill:#76c22b;fill-opacity:1;fill-rule:nonzero;stroke:none;stroke-width:4;stroke-linecap:butt;stroke-linejoin:miter;stroke-miterlimit:4;stroke-dasharray:none;stroke-dashoffset:0;stroke-opacity:1;marker:none;enable-background:accumulate"
         d="M 247.17578 128.43164 L 247.17578 100.97656 C 247.17578 91.850953 247.00525 83.726546 246.58398 76.431641 L 165.56836 76.431641 L 165.56836 128.43164 L 247.17578 128.43164 z "
         id="rect4287"
         transform="matrix(2,0,0,2,4.8640177,-0.86399998)" />
      <path
         style="color:#000000;display:inline;overflow:visible;visibility:visible;opacity:1;fill:#f1f0e9;fill-opacity:1;fill-rule:nonzero;stroke:none;stroke-width:4;stroke-linecap:butt;stroke-linejoin:miter;stroke-miterlimit:4;stroke-dasharray:none;stroke-dashoffset:0;stroke-opacity:1;marker:none;enable-background:accumulate"
         d="M 165.56836 244.69727 C 173.48761 244.66065 180.95686 244.55232 187.43555 244.17188 C 191.12393 243.95528 194.59059 243.67221 197.84766 243.30859 C 201.10472 242.94498 204.15233 242.50129 207.00391 241.96484 C 209.85548 241.42839 212.51051 240.79956 214.98242 240.06445 C 217.45433 239.32935 219.74326 238.48887 221.86133 237.5293 C 223.9794 236.56973 225.92674 235.49111 227.7168 234.28125 C 229.50685 233.07139 231.13909 231.7301 232.62695 230.24414 C 234.11481 228.75818 235.45843 227.12772 236.66992 225.33984 C 237.88141 223.55197 238.96093 221.60584 239.92188 219.49023 C 240.88282 217.37463 241.72471 215.0883 242.46094 212.61914 C 243.19717 210.14998 243.8279 207.49891 244.36523 204.65039 C 244.90257 201.80187 245.34667 198.75566 245.71094 195.50195 C 246.0752 192.24825 246.35915 188.78626 246.57617 185.10156 C 246.79725 181.34801 246.78554 176.65949 246.88086 172.43164 L 165.56836 172.43164 L 165.56836 244.69727 z "
         id="rect4289"
         transform="matrix(2,0,0,2,4.8640177,-0.86399998)" />
      <path
         style="color:#000000;display:inline;overflow:visible;visibility:visible;opacity:1;fill:#fdc92b;fill-opacity:1;fill-rule:nonzero;stroke:none;stroke-width:4;stroke-linecap:butt;stroke-linejoin:miter;stroke-miterlimit:4;stroke-dasharray:none;stroke-dashoffset:0;stroke-opacity:1;marker:none;enable-background:accumulate"
         d="M 246.68945 180.43164 C 246.96302 174.17202 247.17578 167.73861 247.17578 160.22656 L 247.17578 128.43164 L 165.56836 128.43164 L 165.56836 180.43164 L 246.68945 180.43164 z "
         id="rect4327"
         transform="matrix(2,0,0,2,4.8640177,-0.86399998)" />
      <g
         clip-path="url(#clipPath4277-8-5)"
         id="g4275"
         inkscape:groupmode="maskhelper"
         style="stroke-width:2;enable-background:new">
        <g
           id="g4268"
           style="stroke-width:2">
          <path
             style="color:#000000;display:inline;overflow:visible;visibility:visible;opacity:0.1;fill:#000000;fill-opacity:1;fill-rule:nonzero;stroke:none;stroke-width:4;stroke-linecap:butt;stroke-linejoin:miter;stroke-miterlimit:4;stroke-dasharray:none;stroke-dashoffset:0;stroke-opacity:1;marker:none;filter:url(#filter4261);enable-background:accumulate"
             d="M 207.14648 19.271484 C 207.09571 19.26185 207.0548 19.247856 207.00391 19.238281 C 204.15233 18.701837 201.10472 18.25814 197.84766 17.894531 C 194.59059 17.530922 191.12393 17.245886 187.43555 17.029297 C 180.05879 16.596118 171.79407 16.431641 162.53711 16.431641 L 87.167969 16.431641 C 77.911006 16.431641 69.644338 16.596118 62.267578 17.029297 C 58.579198 17.245886 55.114488 17.530922 51.857422 17.894531 C 48.600356 18.25814 45.550795 18.701837 42.699219 19.238281 C 39.847643 19.774726 37.192614 20.403575 34.720703 21.138672 C 32.248792 21.873769 29.96182 22.714262 27.84375 23.673828 C 25.72568 24.633394 23.776381 25.712023 21.986328 26.921875 C 20.196275 28.131727 18.564033 29.473031 17.076172 30.958984 C 15.588311 32.444938 14.244696 34.075409 13.033203 35.863281 C 11.82171 37.651154 10.742199 39.597283 9.78125 41.712891 C 8.8203007 43.828498 7.9784176 46.112872 7.2421875 48.582031 C 6.5059574 51.05119 5.875226 53.704207 5.3378906 56.552734 C 4.8005553 59.401261 4.3564524 62.445507 3.9921875 65.699219 C 3.6279226 68.95293 3.343972 72.41685 3.1269531 76.101562 C 2.6929153 83.470988 2.5273438 91.728233 2.5273438 100.97656 L 2.5273438 160.22656 C 2.5273438 169.47485 2.6929153 177.73216 3.1269531 185.10156 C 3.343972 188.78626 3.6279226 192.24825 3.9921875 195.50195 C 4.3564524 198.75566 4.8005553 201.80187 5.3378906 204.65039 C 5.875226 207.49891 6.5059574 210.14998 7.2421875 212.61914 C 7.9784176 215.0883 8.8203007 217.37463 9.78125 219.49023 C 10.742199 221.60584 11.82171 223.55197 13.033203 225.33984 C 14.244696 227.12772 15.588311 228.75818 17.076172 230.24414 C 18.564033 231.7301 20.196275 233.07139 21.986328 234.28125 C 23.776381 235.49111 25.72568 236.56973 27.84375 237.5293 C 29.96182 238.48887 32.248792 239.32935 34.720703 240.06445 C 37.192614 240.79956 39.847643 241.42839 42.699219 241.96484 C 45.550795 242.50129 48.600356 242.94498 51.857422 243.30859 C 55.114488 243.67221 58.579198 243.95528 62.267578 244.17188 C 69.644338 244.60506 77.911006 244.76953 87.167969 244.76953 L 162.53711 244.76953 C 171.79407 244.76953 180.05879 244.60506 187.43555 244.17188 C 191.12393 243.95528 194.59059 243.67221 197.84766 243.30859 C 201.10472 242.94498 204.15233 242.50129 207.00391 241.96484 C 207.0548 241.95527 207.09571 241.94127 207.14648 241.93164 L 207.14648 19.271484 z "
             id="path1266"
             transform="matrix(2,0,0,2,4.8640177,-0.86399998)" />
          <path
             style="color:#000000;display:inline;overflow:visible;visibility:visible;opacity:0.4;fill:url(#linearGradient4273);fill-opacity:1;fill-rule:nonzero;stroke:none;stroke-width:4;stroke-linecap:butt;stroke-linejoin:miter;stroke-miterlimit:4;stroke-dasharray:none;stroke-dashoffset:0;stroke-opacity:1;marker:none;filter:url(#filter4275);enable-background:accumulate"
             d="M 222.56836 24.066406 C 222.3175 23.947029 222.11714 23.78972 221.86133 23.673828 C 219.74326 22.714262 217.45433 21.873769 214.98242 21.138672 C 212.51051 20.403575 209.85548 19.774726 207.00391 19.238281 C 204.15233 18.701837 201.10472 18.25814 197.84766 17.894531 C 194.59059 17.530922 191.12393 17.245886 187.43555 17.029297 C 180.05879 16.596118 171.79407 16.431641 162.53711 16.431641 L 87.167969 16.431641 C 77.911006 16.431641 69.644338 16.596118 62.267578 17.029297 C 58.579198 17.245886 55.114488 17.530922 51.857422 17.894531 C 48.600356 18.25814 45.550795 18.701837 42.699219 19.238281 C 39.847643 19.774726 37.192614 20.403575 34.720703 21.138672 C 32.248792 21.873769 29.96182 22.714262 27.84375 23.673828 C 25.72568 24.633394 23.776381 25.712023 21.986328 26.921875 C 20.196275 28.131727 18.564033 29.473031 17.076172 30.958984 C 15.588311 32.444938 14.244696 34.075409 13.033203 35.863281 C 11.82171 37.651154 10.742199 39.597283 9.78125 41.712891 C 8.8203007 43.828498 7.9784176 46.112872 7.2421875 48.582031 C 6.5059574 51.05119 5.875226 53.704207 5.3378906 56.552734 C 4.8005553 59.401261 4.3564524 62.445507 3.9921875 65.699219 C 3.6279226 68.95293 3.343972 72.41685 3.1269531 76.101562 C 2.6929153 83.470988 2.5273438 91.728233 2.5273438 100.97656 L 2.5273438 160.22656 C 2.5273438 169.47485 2.6929153 177.73216 3.1269531 185.10156 C 3.343972 188.78626 3.6279226 192.24825 3.9921875 195.50195 C 4.3564524 198.75566 4.8005553 201.80187 5.3378906 204.65039 C 5.875226 207.49891 6.5059574 210.14998 7.2421875 212.61914 C 7.9784176 215.0883 8.8203007 217.37463 9.78125 219.49023 C 10.742199 221.60584 11.82171 223.55197 13.033203 225.33984 C 14.244696 227.12772 15.588311 228.75818 17.076172 230.24414 C 18.564033 231.7301 20.196275 233.07139 21.986328 234.28125 C 23.776381 235.49111 25.72568 236.56973 27.84375 237.5293 C 29.96182 238.48887 32.248792 239.32935 34.720703 240.06445 C 37.192614 240.79956 39.847643 241.42839 42.699219 241.96484 C 45.550795 242.50129 48.600356 242.94498 51.857422 243.30859 C 55.114488 243.67221 58.579198 243.95528 62.267578 244.17188 C 69.644338 244.60506 77.911006 244.76953 87.167969 244.76953 L 162.53711 244.76953 C 171.79407 244.76953 180.05879 244.60506 187.43555 244.17188 C 191.12393 243.95528 194.59059 243.67221 197.84766 243.30859 C 201.10472 242.94498 204.15233 242.50129 207.00391 241.96484 C 209.85548 241.42839 212.51051 240.79956 214.98242 240.06445 C 217.45433 239.32935 219.74326 238.48887 221.86133 237.5293 C 222.11714 237.4134 222.3175 237.2561 222.56836 237.13672 L 222.56836 24.066406 z "
             id="path956"
             transform="matrix(2,0,0,2,4.8640177,-0.86399998)" />
        </g>
      </g>
      <path
         style="color:#000000;display:inline;overflow:visible;visibility:visible;opacity:1;fill:url(#linearGradient4285);fill-opacity:1;fill-rule:nonzero;stroke:none;stroke-width:4;stroke-linecap:butt;stroke-linejoin:miter;stroke-miterlimit:4;stroke-dasharray:none;stroke-dashoffset:0;stroke-opacity:1;marker:none;enable-background:accumulate"
         d="M 221.56836 23.566406 C 219.52653 22.657334 217.34912 21.842481 214.98242 21.138672 C 212.51051 20.403575 209.85548 19.774726 207.00391 19.238281 C 204.15233 18.701837 201.10472 18.25814 197.84766 17.894531 C 194.59059 17.530922 191.12393 17.245886 187.43555 17.029297 C 180.05879 16.596118 171.79407 16.431641 162.53711 16.431641 L 87.167969 16.431641 C 77.911006 16.431641 69.644338 16.596118 62.267578 17.029297 C 58.579198 17.245886 55.114488 17.530922 51.857422 17.894531 C 48.600356 18.25814 45.550795 18.701837 42.699219 19.238281 C 39.847643 19.774726 37.192614 20.403575 34.720703 21.138672 C 32.248792 21.873769 29.96182 22.714262 27.84375 23.673828 C 25.72568 24.633394 23.776381 25.712023 21.986328 26.921875 C 20.196275 28.131727 18.564033 29.473031 17.076172 30.958984 C 15.588311 32.444938 14.244696 34.075409 13.033203 35.863281 C 11.82171 37.651154 10.742199 39.597283 9.78125 41.712891 C 8.8203007 43.828498 7.9784176 46.112872 7.2421875 48.582031 C 6.5059574 51.05119 5.875226 53.704207 5.3378906 56.552734 C 4.8005553 59.401261 4.3564524 62.445507 3.9921875 65.699219 C 3.6279226 68.95293 3.343972 72.41685 3.1269531 76.101562 C 2.6929153 83.470988 2.5273438 91.728233 2.5273438 100.97656 L 2.5273438 160.22656 C 2.5273438 169.47485 2.6929153 177.73216 3.1269531 185.10156 C 3.343972 188.78626 3.6279226 192.24825 3.9921875 195.50195 C 4.3564524 198.75566 4.8005553 201.80187 5.3378906 204.65039 C 5.875226 207.49891 6.5059574 210.14998 7.2421875 212.61914 C 7.9784176 215.0883 8.8203007 217.37463 9.78125 219.49023 C 10.742199 221.60584 11.82171 223.55197 13.033203 225.33984 C 14.244696 227.12772 15.588311 228.75818 17.076172 230.24414 C 18.564033 231.7301 20.196275 233.07139 21.986328 234.28125 C 23.776381 235.49111 25.72568 236.56973 27.84375 237.5293 C 29.96182 238.48887 32.248792 239.32935 34.720703 240.06445 C 37.192614 240.79956 39.847643 241.42839 42.699219 241.96484 C 45.550795 242.50129 48.600356 242.94498 51.857422 243.30859 C 55.114488 243.67221 58.579198 243.95528 62.267578 244.17188 C 69.644338 244.60506 77.911006 244.76953 87.167969 244.76953 L 162.53711 244.76953 C 171.79407 244.76953 180.05879 244.60506 187.43555 244.17188 C 191.12393 243.95528 194.59059 243.67221 197.84766 243.30859 C 201.10472 242.94498 204.15233 242.50129 207.00391 241.96484 C 209.85548 241.42839 212.51051 240.79956 214.98242 240.06445 C 217.34912 239.36064 219.52653 238.5458 221.56836 237.63672 L 221.56836 23.566406 z "
         id="path1250"
         transform="matrix(2,0,0,2,4.8640177,-0.86399998)" />
    </g>
    <path
       sodipodi:nodetypes="sssssssss"
       inkscape:connector-curvature="0"
       id="path1068"
       d="M 361.9375,-212 C 507.2348,-212 528,-191.28677 528,-46.125 V 70.125 C 528,215.28618 507.2348,236 361.9375,236 H 214.0625 C 68.7652,236 48,215.28618 48,70.125 V -46.125 C 48,-191.28677 68.7652,-212 214.0625,-212 Z"
       style="display:inline;opacity:0.5;fill:none;fill-opacity:1;stroke:url(#linearGradient1108);stroke-width:8;stroke-linecap:round;stroke-linejoin:round;stroke-miterlimit:4;stroke-dasharray:none;stroke-dashoffset:0;stroke-opacity:1;enable-background:new"
       clip-path="url(#clipPath1082-3-36)"
       transform="matrix(0.13229167,0,0,0.13229167,-4.876802,261.66013)" />
    <g
       id="g968"
       transform="matrix(0.66666667,0,0,0.66666667,8.511154,77.790833)"
       style="fill:#000000;fill-opacity:1;opacity:0.2">
      <path
         id="path41"
         d="m 20.696894,247.3896 c -0.174428,-0.0107 -0.342857,0.0429 -0.481714,0.18268 l -3.009232,3.00921 c -0.277607,0.2775 -0.277607,0.72456 0,1.00216 l 3.108891,4.88342 c -0.24884,0.50196 -0.464304,1.01994 -0.645033,1.5503 l -5.647497,1.25406 c -0.392625,5e-5 -0.708702,0.31607 -0.708702,0.7088 v 4.25223 c 0,0.39268 0.325447,0.62352 0.708702,0.7087 l 5.650267,1.25684 c 0.175018,0.525 0.384,1.03843 0.625656,1.53643 l -3.11443,4.8945 c -0.210804,0.33107 -0.277608,0.72456 0,1.00216 l 3.006462,3.00922 c 0.277607,0.2775 0.724527,0.2775 1.002155,0 l 4.894497,-3.11716 c 0.506304,0.25232 1.028851,0.47035 1.564137,0.6533 l 1.254075,5.6475 c 0,0.39268 0.316072,0.7087 0.708708,0.7087 h 4.252234 c 0.392625,0 0.623534,-0.32518 0.708707,-0.7087 l 1.256846,-5.65023 c 0.532982,-0.17786 1.053654,-0.39054 1.558597,-0.63675 l 4.87235,3.10334 c 0.277607,0.2775 0.724527,0.2775 1.002156,0 l 3.009232,-3.00922 c 0.277607,-0.2775 0.210803,-0.67093 0,-1.00216 l -1.328824,-2.08736 -0.991083,0.3959 -3.175335,-4.76165 c -1.600228,3.55827 -5.137251,5.8484 -9.038763,5.85236 -5.479701,0 -9.921878,-4.44214 -9.921878,-9.92186 0.0044,-3.82816 2.210846,-7.31229 5.669644,-8.95297 v -3.05073 c -0.476947,0.16339 -0.943752,0.35464 -1.398033,0.57305 l -4.87235,-3.10334 c -0.165643,-0.10553 -0.346018,-0.17464 -0.520447,-0.18268 z"
         style="opacity:1;fill:#000000;fill-opacity:1;stroke:none;stroke-width:2.83482265;stroke-linecap:round;stroke-linejoin:round;stroke-miterlimit:4;stroke-dasharray:none;stroke-opacity:1"
         inkscape:connector-curvature="0" />
      <path
         id="path43"
         d="m 35.992203,240.84515 -7.087059,0.65609 v 27.69215 l 7.087059,-1.41744 v -11.33926 l 8.504468,12.7567 7.087059,-2.83484 -9.213176,-11.92618 9.21871,-12.16983 -7.422031,-1.41739 -8.17503,12.04801 z"
         style="opacity:1;fill:#000000;fill-opacity:1;stroke:none;stroke-width:2.83482265;stroke-linecap:round;stroke-linejoin:round;stroke-miterlimit:4;stroke-dasharray:none;stroke-opacity:1"
         inkscape:connector-curvature="0" />
    </g>
    <g
       style="fill:#000000;fill-opacity:1;opacity:0.2;filter:url(#filter1674)"
       transform="matrix(0.66666667,0,0,0.66666667,8.511154,77.790833)"
       id="g1652">
      <path
         inkscape:connector-curvature="0"
         style="opacity:1;fill:#000000;fill-opacity:1;stroke:none;stroke-width:2.83482265;stroke-linecap:round;stroke-linejoin:round;stroke-miterlimit:4;stroke-dasharray:none;stroke-opacity:1"
         d="m 20.696894,247.3896 c -0.174428,-0.0107 -0.342857,0.0429 -0.481714,0.18268 l -3.009232,3.00921 c -0.277607,0.2775 -0.277607,0.72456 0,1.00216 l 3.108891,4.88342 c -0.24884,0.50196 -0.464304,1.01994 -0.645033,1.5503 l -5.647497,1.25406 c -0.392625,5e-5 -0.708702,0.31607 -0.708702,0.7088 v 4.25223 c 0,0.39268 0.325447,0.62352 0.708702,0.7087 l 5.650267,1.25684 c 0.175018,0.525 0.384,1.03843 0.625656,1.53643 l -3.11443,4.8945 c -0.210804,0.33107 -0.277608,0.72456 0,1.00216 l 3.006462,3.00922 c 0.277607,0.2775 0.724527,0.2775 1.002155,0 l 4.894497,-3.11716 c 0.506304,0.25232 1.028851,0.47035 1.564137,0.6533 l 1.254075,5.6475 c 0,0.39268 0.316072,0.7087 0.708708,0.7087 h 4.252234 c 0.392625,0 0.623534,-0.32518 0.708707,-0.7087 l 1.256846,-5.65023 c 0.532982,-0.17786 1.053654,-0.39054 1.558597,-0.63675 l 4.87235,3.10334 c 0.277607,0.2775 0.724527,0.2775 1.002156,0 l 3.009232,-3.00922 c 0.277607,-0.2775 0.210803,-0.67093 0,-1.00216 l -1.328824,-2.08736 -0.991083,0.3959 -3.175335,-4.76165 c -1.600228,3.55827 -5.137251,5.8484 -9.038763,5.85236 -5.479701,0 -9.921878,-4.44214 -9.921878,-9.92186 0.0044,-3.82816 2.210846,-7.31229 5.669644,-8.95297 v -3.05073 c -0.476947,0.16339 -0.943752,0.35464 -1.398033,0.57305 l -4.87235,-3.10334 c -0.165643,-0.10553 -0.346018,-0.17464 -0.520447,-0.18268 z"
         id="path1648" />
      <path
         inkscape:connector-curvature="0"
         style="opacity:1;fill:#000000;fill-opacity:1;stroke:none;stroke-width:2.83482265;stroke-linecap:round;stroke-linejoin:round;stroke-miterlimit:4;stroke-dasharray:none;stroke-opacity:1"
         d="m 35.992203,240.84515 -7.087059,0.65609 v 27.69215 l 7.087059,-1.41744 v -11.33926 l 8.504468,12.7567 7.087059,-2.83484 -9.213176,-11.92618 9.21871,-12.16983 -7.422031,-1.41739 -8.17503,12.04801 z"
         id="path1650" />
    </g>
    <g
       style="display:inline;stroke-width:2;enable-background:new"
       transform="matrix(0.11404751,0.11404751,-0.12369329,0.12369329,-5.250796,162.56532)"
       id="g4059">
      <path
         style="fill:#fee1c2;fill-opacity:1;stroke:none;stroke-width:2"
         d="m 688.00003,319.35584 -32,81.13762 -31.99999,-81.13762 v -11.06422 h 63.99999 z"
         id="path4112"
         inkscape:connector-curvature="0" />
      <path
         style="color:#000000;display:inline;overflow:visible;visibility:visible;fill:#5d5d5d;fill-opacity:1;fill-rule:nonzero;stroke:none;stroke-width:2;marker:none;enable-background:accumulate"
         d="m 645.81253,374.67694 10.1875,25.81651 10.1875,-25.81651 c 0,0 0.77644,-2.76606 -1.20553,-2.76606 -1.98197,0 -3.94669,3.68807 -3.94669,3.68807 0,0 -1.03528,-4.61009 -5.01377,-4.61009 -3.9785,0 -5.01378,4.61009 -5.01378,4.61009 0,0 -2.00773,-3.68807 -4.00773,-3.68807 -2,0 -1.1875,2.76606 -1.1875,2.76606 z"
         id="rect4114"
         inkscape:connector-curvature="0"
         sodipodi:nodetypes="ccczczczc" />
      <path
         style="fill:url(#linearGradient4342);fill-opacity:1;stroke:none;stroke-width:2"
         d="m 624.00004,319.35583 c 0,-7.37615 17.99999,-3.68808 17.99999,7.37614 0,-18.44036 28,-18.44036 28,0 0,-11.06422 18,-14.75229 18,-7.37614 V 133.45602 h -63.99999 z"
         id="path4092"
         inkscape:connector-curvature="0"
         sodipodi:nodetypes="ccccccc" />
    </g>
  </g>
</svg>
