<?xml version="1.0" encoding="UTF-8" standalone="no"?>
<svg
   xmlns:dc="http://purl.org/dc/elements/1.1/"
   xmlns:cc="http://creativecommons.org/ns#"
   xmlns:rdf="http://www.w3.org/1999/02/22-rdf-syntax-ns#"
   xmlns:svg="http://www.w3.org/2000/svg"
   xmlns="http://www.w3.org/2000/svg"
   xmlns:xlink="http://www.w3.org/1999/xlink"
   xmlns:sodipodi="http://sodipodi.sourceforge.net/DTD/sodipodi-0.dtd"
   xmlns:inkscape="http://www.inkscape.org/namespaces/inkscape"
   viewBox="0 0 256 256"
   version="1.1"
   id="svg16"
   sodipodi:docname="krita.svg"
   width="256"
   height="256"
   inkscape:version="0.92.3 (unknown)">
  <metadata
     id="metadata20">
    <rdf:RDF>
      <cc:Work
         rdf:about="">
        <dc:format>image/svg+xml</dc:format>
        <dc:type
           rdf:resource="http://purl.org/dc/dcmitype/StillImage" />
        <dc:title></dc:title>
      </cc:Work>
    </rdf:RDF>
  </metadata>
  <sodipodi:namedview
     pagecolor="#ffffff"
     bordercolor="#666666"
     borderopacity="1"
     objecttolerance="10"
     gridtolerance="10"
     guidetolerance="10"
     inkscape:pageopacity="0"
     inkscape:pageshadow="2"
     inkscape:window-width="1920"
     inkscape:window-height="1013"
     id="namedview18"
     showgrid="false"
     inkscape:zoom="2.5992675"
     inkscape:cx="264.11287"
     inkscape:cy="112.52218"
     inkscape:window-x="0"
     inkscape:window-y="34"
     inkscape:window-maximized="1"
     inkscape:current-layer="svg16" />
  <defs
     id="defs3">
    <linearGradient
       id="linearGradient2004"
       inkscape:collect="always">
      <stop
         id="stop2000"
         offset="0"
         style="stop-color:#fff06f;stop-opacity:0" />
      <stop
         id="stop2002"
         offset="1"
         style="stop-color:#fff06f;stop-opacity:1" />
    </linearGradient>
    <linearGradient
       inkscape:collect="always"
       id="linearGradient1982">
      <stop
         style="stop-color:#6ffff9;stop-opacity:0.02803738"
         offset="0"
         id="stop1978" />
      <stop
         style="stop-color:#6ffff9;stop-opacity:1"
         offset="1"
         id="stop1980" />
    </linearGradient>
    <path
       id="a"
       d="M 44.5,20 H 24 v 8.5 H 35.8 C 34.7,33.9 30.1,37 24,37 16.8,37 11,31.2 11,24 c 0,-7.2 5.8,-13 13,-13 3.1,0 5.9,1.1 8.1,2.9 L 38.5,7.5 C 34.6,4.1 29.6,2 24,2 11.8,2 2,11.8 2,24 c 0,12.2 9.8,22 22,22 11,0 21,-8 21,-22 0,-1.3 -0.2,-2.7 -0.5,-4 z"
       inkscape:connector-curvature="0" />
    <linearGradient
       inkscape:collect="always"
       xlink:href="#linearGradient1013"
       id="linearGradient1108"
       x1="296"
       y1="-212"
       x2="296"
       y2="236"
       gradientUnits="userSpaceOnUse" />
    <linearGradient
       id="linearGradient1013"
       inkscape:collect="always">
      <stop
         id="stop1005"
         offset="0"
         style="stop-color:#ffffff;stop-opacity:1;" />
      <stop
         style="stop-color:#ffffff;stop-opacity:0.09803922"
         offset="0.125"
         id="stop1007" />
      <stop
         style="stop-color:#000000;stop-opacity:0.09803922"
         offset="0.92500001"
         id="stop1009" />
      <stop
         id="stop1011"
         offset="1"
         style="stop-color:#000000;stop-opacity:0.49803922" />
    </linearGradient>
    <clipPath
       clipPathUnits="userSpaceOnUse"
       id="clipPath1082-3-361">
      <path
         sodipodi:nodetypes="sssssssss"
         inkscape:connector-curvature="0"
         id="path1084-6-29"
         d="M 361.9375,-212 C 507.2348,-212 528,-191.28677 528,-46.125 V 70.125 C 528,215.28618 507.2348,236 361.9375,236 H 214.0625 C 68.7652,236 48,215.28618 48,70.125 V -46.125 C 48,-191.28677 68.7652,-212 214.0625,-212 Z"
         style="display:inline;opacity:1;fill:#8c59d9;fill-opacity:1;stroke:none;stroke-width:2;stroke-linecap:round;stroke-linejoin:round;stroke-miterlimit:4;stroke-dasharray:none;stroke-dashoffset:0;stroke-opacity:1;enable-background:new" />
    </clipPath>
    <linearGradient
       gradientTransform="matrix(1.0193681,0,0,1.0193681,-26.943929,-32.905179)"
       inkscape:collect="always"
       xlink:href="#linearGradient4245"
       id="linearGradient1044"
       x1="152.74057"
       y1="220.21646"
       x2="153.51286"
       y2="43.99995"
       gradientUnits="userSpaceOnUse" />
    <linearGradient
       id="linearGradient4245"
       inkscape:collect="always">
      <stop
         id="stop4241"
         offset="0"
         style="stop-color:#fe50fe;stop-opacity:0" />
      <stop
         id="stop4243"
         offset="1"
         style="stop-color:#fe50fe;stop-opacity:0.89252335" />
    </linearGradient>
    <filter
       inkscape:collect="always"
       style="color-interpolation-filters:sRGB"
       id="filter4569"
       x="-0.0116"
       width="1.0232"
       y="-0.012428571"
       height="1.024857">
      <feGaussianBlur
         inkscape:collect="always"
         stdDeviation="1.16"
         id="feGaussianBlur4571" />
    </filter>
    <filter
       inkscape:collect="always"
       style="color-interpolation-filters:sRGB"
       id="filter939"
       x="-0.0232"
       width="1.0464"
       y="-0.024857143"
       height="1.0497143">
      <feGaussianBlur
         inkscape:collect="always"
         stdDeviation="2.32"
         id="feGaussianBlur941" />
    </filter>
    <linearGradient
       inkscape:collect="always"
       xlink:href="#linearGradient1982"
       id="linearGradient1984"
       gradientUnits="userSpaceOnUse"
       gradientTransform="matrix(1.0193681,0,0,1.0193681,-26.943941,-32.905184)"
       x1="132.03032"
       y1="146.00471"
       x2="32.703049"
       y2="267.49811" />
    <linearGradient
       inkscape:collect="always"
       xlink:href="#linearGradient2004"
       id="linearGradient1990"
       gradientUnits="userSpaceOnUse"
       gradientTransform="matrix(1.0193681,0,0,1.0193681,-26.943945,-32.905164)"
       x1="132.03032"
       y1="146.00471"
       x2="270.87097"
       y2="265.77225" />
    <linearGradient
       inkscape:collect="always"
       id="linearGradient3051">
      <stop
         style="stop-color:#5d99e4;stop-opacity:1"
         offset="0"
         id="stop3047" />
      <stop
         style="stop-color:#5d9ce6;stop-opacity:0.01401869"
         offset="1"
         id="stop3049" />
    </linearGradient>
    <linearGradient
       gradientTransform="matrix(0.62995614,0,0,0.62995614,34.434883,51.558218)"
       inkscape:collect="always"
       xlink:href="#linearGradient3051"
       id="linearGradient3059-3"
       gradientUnits="userSpaceOnUse"
       x1="244.33443"
       y1="219.22598"
       x2="74.574028"
       y2="174.36078" />
  </defs>
  <clipPath
     id="b">
    <use
       xlink:href="#a"
       overflow="visible"
       id="use5"
       style="overflow:visible"
       x="0"
       y="0"
       width="100%"
       height="100%" />
  </clipPath>
  <path
     style="display:inline;opacity:0.2;fill:#000000;fill-opacity:1;stroke:none;stroke-width:2;stroke-linecap:round;stroke-linejoin:round;stroke-miterlimit:4;stroke-dasharray:none;stroke-dashoffset:0;stroke-opacity:1;filter:url(#filter939);enable-background:new"
     d="m 162.53675,5.5680001 c 72.64865,0 83.03125,10.3566149 83.03125,82.9375049 v 58.125005 c 0,72.58059 -10.3826,82.9375 -83.03125,82.9375 H 88.599254 C 15.9506,229.56801 5.568,219.2111 5.568,146.63051 V 88.505505 c 0,-72.58089 10.3826,-82.9375049 83.031254,-82.9375049 z"
     id="path937"
     inkscape:connector-curvature="0"
     sodipodi:nodetypes="sssssssss"
     transform="matrix(1.019368,0,0,1.019368,-7.2181772e-8,8.3098661)" />
  <path
     sodipodi:nodetypes="sssssssss"
     inkscape:connector-curvature="0"
     id="path4558"
     d="m 165.68477,11.946967 c 74.05571,0 84.6394,10.557203 84.6394,84.543835 v 59.250778 c 0,73.98633 -10.58369,84.54383 -84.6394,84.54383 H 90.315249 c -74.055717,0 -84.6394076,-10.5575 -84.6394076,-84.54383 V 96.490802 c 0,-73.986632 10.5836906,-84.543835 84.6394076,-84.543835 z"
     style="display:inline;opacity:0.1;fill:none;fill-opacity:1;stroke:#000000;stroke-width:4.07747173;stroke-linecap:round;stroke-linejoin:round;stroke-miterlimit:4;stroke-dasharray:none;stroke-dashoffset:0;stroke-opacity:1;enable-background:new" />
  <path
     sodipodi:nodetypes="sssssssss"
     inkscape:connector-curvature="0"
     id="path4567"
     d="m 162.53675,3.5680001 c 72.64865,0 83.03125,10.3566149 83.03125,82.9375049 v 58.125005 c 0,72.58059 -10.3826,82.9375 -83.03125,82.9375 H 88.599254 C 15.9506,227.56801 5.568,217.2111 5.568,144.63051 V 86.505505 c 0,-72.58089 10.3826,-82.9375049 83.031254,-82.9375049 z"
     style="display:inline;opacity:0.1;fill:#000000;fill-opacity:1;stroke:none;stroke-width:2;stroke-linecap:round;stroke-linejoin:round;stroke-miterlimit:4;stroke-dasharray:none;stroke-dashoffset:0;stroke-opacity:1;filter:url(#filter4569);enable-background:new"
     transform="matrix(1.019368,0,0,1.019368,-7.2181772e-8,8.3098661)" />
  <path
     style="display:inline;opacity:1;fill:#ffffff;fill-opacity:0.9813084;stroke:none;stroke-width:2.03873587;stroke-linecap:round;stroke-linejoin:round;stroke-miterlimit:4;stroke-dasharray:none;stroke-dashoffset:0;stroke-opacity:1;enable-background:new"
     d="m 165.68476,11.946986 c 74.05571,0 84.6394,10.5572 84.6394,84.543827 V 155.7416 c 0,73.98632 -10.58369,84.54382 -84.6394,84.54382 H 90.315235 c -74.05571,0 -84.6394004,-10.5575 -84.6394004,-84.54382 V 96.490813 c 0,-73.986627 10.5836904,-84.543827 84.6394004,-84.543827 z"
     id="path41"
     inkscape:connector-curvature="0"
     sodipodi:nodetypes="sssssssss" />
  <path
     style="display:inline;opacity:1;fill:url(#linearGradient1044);fill-opacity:1;stroke:none;stroke-width:2.03873587;stroke-linecap:round;stroke-linejoin:round;stroke-miterlimit:4;stroke-dasharray:none;stroke-dashoffset:0;stroke-opacity:1;enable-background:new"
     d="m 165.68477,11.946967 c 74.05571,0 84.6394,10.557203 84.6394,84.543835 v 59.250778 c 0,73.98633 -10.58369,84.54383 -84.6394,84.54383 H 90.31525 c -74.055712,0 -84.6394029,-10.5575 -84.6394029,-84.54383 V 96.490802 c 0,-73.986632 10.5836909,-84.543835 84.6394029,-84.543835 z"
     id="rect877"
     inkscape:connector-curvature="0"
     sodipodi:nodetypes="sssssssss" />
  <g
     transform="matrix(2.372035,0,0,2.372035,-20.736914,115.42106)"
     id="g983" />
  <path
     style="display:inline;opacity:1;fill:url(#linearGradient1984);fill-opacity:1;stroke:none;stroke-width:2.03873587;stroke-linecap:round;stroke-linejoin:round;stroke-miterlimit:4;stroke-dasharray:none;stroke-dashoffset:0;stroke-opacity:1;enable-background:new"
     d="m 165.68477,11.946967 c 74.05571,0 84.6394,10.5572 84.6394,84.54383 v 59.250773 c 0,73.98633 -10.58369,84.54383 -84.6394,84.54383 H 90.31524 c -74.05571,0 -84.639402,-10.5575 -84.639402,-84.54383 V 96.490797 c 0,-73.98663 10.583692,-84.54383 84.639402,-84.54383 z"
     id="path1966"
     inkscape:connector-curvature="0"
     sodipodi:nodetypes="sssssssss" />
  <path
     sodipodi:nodetypes="sssssssss"
     inkscape:connector-curvature="0"
     id="path1986"
     d="m 165.68476,11.946986 c 74.05571,0 84.6394,10.5572 84.6394,84.543827 V 155.7416 c 0,73.98632 -10.58369,84.54382 -84.6394,84.54382 H 90.315235 c -74.05571,0 -84.6394004,-10.5575 -84.6394004,-84.54382 V 96.490813 c 0,-73.986627 10.5836904,-84.543827 84.6394004,-84.543827 z"
     style="display:inline;opacity:1;fill:url(#linearGradient1990);fill-opacity:1;stroke:none;stroke-width:2.03873587;stroke-linecap:round;stroke-linejoin:round;stroke-miterlimit:4;stroke-dasharray:none;stroke-dashoffset:0;stroke-opacity:1;enable-background:new" />
  <path
     sodipodi:nodetypes="sssssssss"
     inkscape:connector-curvature="0"
     id="path1068"
     d="M 361.9375,-212 C 507.2348,-212 528,-191.28677 528,-46.125 V 70.125 C 528,215.28618 507.2348,236 361.9375,236 H 214.0625 C 68.7652,236 48,215.28618 48,70.125 V -46.125 C 48,-191.28677 68.7652,-212 214.0625,-212 Z"
     style="display:inline;opacity:0.4;fill:none;fill-opacity:1;stroke:url(#linearGradient1108);stroke-width:8;stroke-linecap:round;stroke-linejoin:round;stroke-miterlimit:4;stroke-dasharray:none;stroke-dashoffset:0;stroke-opacity:1;enable-background:new"
     clip-path="url(#clipPath1082-3-361)"
     transform="matrix(0.50968403,0,0,0.50968403,-18.788999,120)" />
  <path
     style="opacity:1;fill:url(#linearGradient3059-3);fill-opacity:1;stroke:none;stroke-width:7.28476477;stroke-miterlimit:4;stroke-dasharray:none;stroke-opacity:1"
     d="m 73.127684,148.73099 c -0.0506,0.6147 -0.08957,1.22996 -0.11689,1.84558 5.36e-4,34.06575 34.883586,61.68134 77.914006,61.68157 14.31915,-0.0273 27.60188,-2.52174 39.80711,-8.44982 l 8.36443,-12.952 -9.21392,-13.73546 -7.21792,-7.99274 -3.79776,-5.4596 c -12.44645,10.88689 -32.73103,12.67669 -49.90305,12.68827 -22.46699,-0.0155 -43.431357,-10.38802 -55.836006,-27.6258 z"
     id="path3031-5"
     inkscape:connector-curvature="0"
     sodipodi:nodetypes="cccccccccc" />
  <path
     sodipodi:nodetypes="ccccccccc"
     inkscape:connector-curvature="0"
     id="path3156"
     d="m 148.93329,144.10509 29.93345,21.56343 11.20731,-14.61206 c 0,0 -0.42559,0 -1.56051,-1.27678 -1.13492,-1.27679 -28.79853,-26.81244 -28.79853,-26.81244 l -11.20731,1.27678 -4.53967,7.2351 0.0408,9.79458 z"
     style="opacity:0.5;fill:#000000;fill-opacity:1;stroke:none;stroke-width:1px;stroke-linecap:butt;stroke-linejoin:miter;stroke-opacity:1" />
  <path
     sodipodi:nodetypes="scsccsscssscscccccccsccs"
     inkscape:connector-curvature="0"
     id="path3154"
     d="m 141.74346,143.47705 c -4.70354,-1.10978 -12.81122,-4.56565 -15.47127,-6.59457 -1.15798,-0.88324 -2.30372,-1.60589 -2.54607,-1.60589 -0.24236,0 -1.86589,-1.104 -3.60786,-2.45333 -1.74195,-1.34933 -4.34962,-3.31153 -5.79481,-4.36043 C 111.05318,126.08932 86.355214,100.72734 78.342014,91.514032 75.955894,88.770552 51.599394,63.437733 40.993354,52.668271 28.630693,40.115115 26.766923,37.42943 27.987773,33.927302 c 0.91056,-2.612064 3.89957,-4.23876 6.79167,-3.6962 1.17261,0.219983 4.007241,1.618993 6.299181,3.108912 8.47705,5.510659 41.82898,26.441136 53.23378,33.407614 6.476786,3.956268 13.542376,8.290628 15.701316,9.631914 6.44692,4.005307 17.41846,10.48466 17.75376,10.48466 0.48187,0 8.73343,5.82255 11.8579,8.3673 0,0 2.89029,1.93608 8.73779,7.738178 3.03399,3.69797 6.20338,7.16936 8.2684,10.48874 0.64331,0.91014 5.26541,7.02821 5.72325,9.40554 0.13725,0.71268 0.28479,1.16111 0.51178,1.60953 0.25203,2.97511 -1.09597,-0.68984 -2.35478,-0.21747 -4.50691,0.64563 -8.58095,4.56146 -10.9727,7.98757 -2.09646,3.13936 -2.56189,4.41031 -2.56189,6.99579 0,2.52326 0.31786,3.51501 1.47909,4.32837 1.43299,1.0037 0.89452,1.11794 -0.84285,0.81312 -1.24949,-0.0302 -3.89099,-0.43688 -5.87001,-0.90382 z"
     style="opacity:0.5;fill:#000000;stroke-width:0.65422148" />
  <path
     style="fill:#adadad;fill-opacity:1;stroke:none;stroke-width:1px;stroke-linecap:butt;stroke-linejoin:miter;stroke-opacity:1"
     d="m 148.93329,142.10509 29.93345,21.56343 11.20731,-14.61206 c 0,0 -0.42559,0 -1.56051,-1.27678 -1.13492,-1.27679 -28.79853,-26.81244 -28.79853,-26.81244 l -11.20731,1.27678 -4.53967,7.2351 0.0408,9.79458 z"
     id="path3122-3"
     inkscape:connector-curvature="0"
     sodipodi:nodetypes="ccccccccc" />
  <path
     style="fill:#000000;stroke-width:0.65422148"
     d="m 191.48191,201.15207 c 2.54106,-5.59808 1.18279,-10.25752 -5.8363,-20.02089 -6.17466,-8.58881 -8.10625,-12.94688 -8.16168,-18.41462 -0.0507,-4.99885 1.47107,-8.45952 5.13418,-11.67577 8.42783,-7.39973 19.34119,-3.89708 25.26191,8.10784 5.66006,11.4764 3.14339,25.15819 -6.57945,35.76897 -3.51444,3.83539 -9.66772,9.01492 -10.70973,9.01492 -0.20406,0 0.19692,-1.25121 0.89107,-2.78045 z m -49.73845,-59.67502 c -4.70354,-1.10978 -12.81122,-4.56565 -15.47127,-6.59457 -1.15798,-0.88324 -2.30372,-1.60589 -2.54607,-1.60589 -0.24236,0 -1.86589,-1.104 -3.60786,-2.45333 -1.74195,-1.34933 -4.34962,-3.31153 -5.79481,-4.36043 C 111.05318,124.08932 86.355214,98.727342 78.342014,89.514032 75.955894,86.770552 51.599394,61.437733 40.993354,50.668271 28.630693,38.115115 26.766923,35.42943 27.987773,31.927302 c 0.91056,-2.612064 3.89957,-4.23876 6.79167,-3.6962 1.17261,0.219983 4.007241,1.618993 6.299181,3.108912 8.47705,5.510659 41.82898,26.441136 53.23378,33.407614 6.476786,3.956268 13.542376,8.290628 15.701316,9.631914 6.44692,4.005307 17.41846,10.48466 17.75376,10.48466 0.48187,0 8.73343,5.82255 11.8579,8.3673 0,0 2.89029,1.93608 8.73779,7.738178 3.03399,3.69797 6.20338,7.16936 8.2684,10.48874 0.64331,0.91014 5.26541,7.02821 5.72325,9.40554 0.13725,0.71268 0.28479,1.16111 0.51178,1.60953 0.25203,2.97511 -1.09597,-0.68984 -2.35478,-0.21747 -4.50691,0.64563 -8.58095,4.56146 -10.9727,7.98757 -2.09646,3.13936 -2.56189,4.41031 -2.56189,6.99579 0,2.52326 0.31786,3.51501 1.47909,4.32837 1.43299,1.0037 0.89452,1.11794 -0.84285,0.81312 -1.24949,-0.0302 -3.89099,-0.43688 -5.87001,-0.90382 z"
     id="path3090-5"
     inkscape:connector-curvature="0"
     sodipodi:nodetypes="cccsssscscsccsscssscscccccccsccs" />
</svg>
