<svg xmlns="http://www.w3.org/2000/svg" style="isolation:isolate" width="256" height="256"><defs><clipPath id="a"><path d="M0 0h256v256H0z"/></clipPath></defs><switch><g clip-path="url(#a)"><defs><filter id="b" width="270.648" height="254.338" x="-6.66" y="4.28" filterUnits="userSpaceOnUse"><feGaussianBlur xmlns="http://www.w3.org/2000/svg" in="SourceGraphic" stdDeviation="4.294"/><feOffset xmlns="http://www.w3.org/2000/svg" dy="4" result="pf_100_offsetBlur"/><feFlood xmlns="http://www.w3.org/2000/svg" flood-opacity=".4"/><feComposite xmlns="http://www.w3.org/2000/svg" in2="pf_100_offsetBlur" operator="in" result="pf_100_dropShadow"/><feBlend xmlns="http://www.w3.org/2000/svg" in="SourceGraphic" in2="pf_100_dropShadow"/></filter></defs><path fill="#46A926" d="M166.351 13.28c74.056 0 84.64 10.557 84.64 84.544v59.251c0 73.986-10.584 84.544-84.64 84.544H90.982c-74.056 0-84.639-10.558-84.639-84.544V97.824c0-73.987 10.583-84.544 84.639-84.544h75.369z" filter="url(#b)"/><path fill="#FFF" d="M8.476 55.74C6.729 66.667 6.158 80.255 6.158 97.205v59.251c0 73.986 10.584 84.544 84.64 84.544h75.369c55.135 0 75.078-5.874 81.675-39.397L8.476 55.74z" opacity=".05"/><path fill="#FFF" d="M226.499 22.25L29.956 231.898c12.579 6.593 31.794 8.25 60.948 8.25h74.647c73.345 0 83.828-10.456 83.828-83.733V97.733c0-44.15-3.813-65.489-22.88-75.483z" opacity=".2"/><g opacity=".4"><linearGradient id="c" x1=".517" x2=".517" y2="1"><stop offset="0%" stop-color="#fff"/><stop offset="12.5%" stop-opacity=".098" stop-color="#fff"/><stop offset="92.5%" stop-opacity=".098"/><stop offset="100%" stop-opacity=".498"/></linearGradient><path fill="none" stroke="url(#c)" stroke-linecap="round" stroke-linejoin="round" stroke-width="4.077" d="M165.685 11.947c74.055 0 84.639 10.557 84.639 84.544v59.251c0 73.986-10.584 84.543-84.639 84.543h-75.37c-74.055 0-84.639-10.557-84.639-84.543V96.491c0-73.987 10.584-84.544 84.639-84.544h75.37z" vector-effect="non-scaling-stroke"/></g><g filter="url(#d)"><linearGradient id="e" x1=".181" x2=".898" y1="-.028" y2=".955" gradientTransform="matrix(200 0 0 185 28 34)" gradientUnits="userSpaceOnUse"><stop offset="0%" stop-color="#f2f2f2"/><stop offset="100%" stop-color="#f9f9f9"/></linearGradient><path fill="url(#e)" d="M227.935 74.79l-4.039-2.86-50.145-35.502L170.322 34H84.354c-22.151.684-36.243 3.361-44.444 11.481C30.163 55.132 28 72.281 28 102.304v48.085c0 30.023 2.163 47.171 11.91 56.821C49.657 216.861 66.972 219 97.284 219h61.698c30.312 0 47.627-2.139 57.374-11.79 8.424-8.341 11.05-22.848 11.644-45.862V91.345s-.125-16.526-.065-16.555z"/></g><defs><filter id="d" width="252" height="237" x="2" y="8" filterUnits="userSpaceOnUse"><feGaussianBlur xmlns="http://www.w3.org/2000/svg" in="SourceGraphic" stdDeviation="4.294"/><feOffset xmlns="http://www.w3.org/2000/svg" result="pf_100_offsetBlur"/><feFlood xmlns="http://www.w3.org/2000/svg" flood-opacity=".4"/><feComposite xmlns="http://www.w3.org/2000/svg" in2="pf_100_offsetBlur" operator="in" result="pf_100_dropShadow"/><feBlend xmlns="http://www.w3.org/2000/svg" in="SourceGraphic" in2="pf_100_dropShadow"/></filter></defs><path fill="#A6D74F" d="M177.926 99.592v23.592h-20.221V99.592h-6.741v23.592h-20.222V99.592h-6.74v23.592H100.41v6.74h23.592v20.222H100.41v6.74h23.592v20.222H100.41v6.74h84.257V99.592h-6.741zm0 30.332v20.222h-20.221v-20.222h20.221zm-47.184 0h20.222v20.222h-20.222v-20.222zm0 26.962h20.222v20.222h-20.222v-20.222zm26.963 20.222v-20.222h20.221v20.222h-20.221z"/><path fill="#76C22B" d="M181.296 72.63H73.448v107.848h26.962V99.592h80.886V72.63z"/><path fill="#28851E" d="M70.078 69.259v114.589h33.702v-80.886h80.887V69.259H70.078zm6.74 53.925v-20.222H97.04v20.222H76.818zm20.222 6.74v20.222H76.818v-20.222H97.04zM103.78 76h20.222v20.222H103.78V76zm26.962 0h20.222v20.222h-20.222V76zM97.04 76v20.222H76.818V76H97.04zM76.818 177.108v-20.222H97.04v20.222H76.818zm101.108-80.886h-20.221V76h20.221v20.222z"/><g><path fill="#37474F" d="M161.35 129.333h3.483v62.7h-3.483v-62.7z"/><path fill="#37474F" d="M166.255 177.712l2.462 2.462-17.491 17.487-2.463-2.465 17.492-17.484z"/><path fill="#37474F" d="M177.467 195.21l-2.462 2.463-17.492-17.492 2.463-2.462 17.491 17.491z"/><path fill="#CFD8DC" d="M128.258 134.558h69.667v48.767h-69.667v-48.767z"/><path fill="#607D8B" d="M126.517 132.817h73.15v6.966h-73.15v-6.966zm0 48.766h73.15v3.484h-73.15v-3.484zm52.25 14.804a2.613 2.613 0 1 1-5.226 0 2.613 2.613 0 0 1 5.226 0zm-26.125 0a2.613 2.613 0 1 1-5.226 0 2.613 2.613 0 0 1 5.226 0z"/><path fill="#46A926" d="M176.847 153.539l-10.272 10.45-10.45-10.45-14.111 13.933 3.839 3.839 10.272-10.45 10.45 10.45 14.111-13.933-3.839-3.839z"/><path fill="#46A926" d="M183.992 162.425L171.8 150.233h12.192v12.192z"/></g></g></switch> </svg>