<svg xmlns="http://www.w3.org/2000/svg" style="isolation:isolate" width="256" height="256"><defs><filter id="a" x="-200%" y="-200%" width="400%" height="400%" filterUnits="objectBoundingBox" color-interpolation-filters="sRGB"><feGaussianBlur xmlns="http://www.w3.org/2000/svg" in="SourceGraphic" stdDeviation="4.294"/><feOffset xmlns="http://www.w3.org/2000/svg" dy="4" result="pf_100_offsetBlur"/><feFlood xmlns="http://www.w3.org/2000/svg" flood-color="#000" flood-opacity=".4"/><feComposite xmlns="http://www.w3.org/2000/svg" in2="pf_100_offsetBlur" operator="in" result="pf_100_dropShadow"/><feBlend xmlns="http://www.w3.org/2000/svg" in="SourceGraphic" in2="pf_100_dropShadow"/></filter></defs><path d="M166.351 13.28c74.056 0 84.64 10.557 84.64 84.544v59.251c0 73.986-10.584 84.544-84.64 84.544H90.982c-74.056 0-84.639-10.558-84.639-84.544V97.824c0-73.987 10.583-84.544 84.639-84.544h75.369z" fill="#FB7C38" filter="url(#a)"/><path d="M8.476 55.74C6.729 66.667 6.158 80.255 6.158 97.205v59.251c0 73.986 10.584 84.544 84.64 84.544h75.369c55.135 0 75.078-5.874 81.675-39.397L8.476 55.74z" fill="#FFF" opacity=".05"/><path d="M226.499 22.25L29.956 231.898c12.579 6.593 31.794 8.25 60.948 8.25h74.647c73.345 0 83.828-10.456 83.828-83.733V97.733c0-44.15-3.813-65.489-22.88-75.483z" fill="#FFF" opacity=".2"/><g filter="url(#b)"><linearGradient id="c" x1=".181" y1="-.028" x2=".898" y2=".881" gradientTransform="matrix(200 0 0 185 28 34)" gradientUnits="userSpaceOnUse"><stop offset="0%" stop-color="#f2f2f2"/><stop offset="100%" stop-color="#f9f9f9"/></linearGradient><path d="M227.935 74.79l-4.039-2.86-50.145-35.502L170.322 34H84.354c-22.151.684-36.243 3.361-44.444 11.481C30.163 55.132 28 72.281 28 102.304v48.085c0 30.023 2.163 47.171 11.91 56.821C49.657 216.861 66.972 219 97.284 219h61.698c30.312 0 47.627-2.139 57.374-11.79 8.424-8.341 11.05-22.848 11.644-45.862V91.345s-.125-16.526-.065-16.555z" fill="url(#c)"/><g filter="url(#d)"><path d="M76.93 89.11h103.542v65.753H76.93V89.11z" fill="#F7DABC"/><path d="M76.93 156h103.542v24.858H76.93V156z" fill="#F6F6F6"/><path d="M73.658 86.333h108.833v98H73.658v-98zm4.535 4.538h99.763v88.925H78.193V90.871z" fill-rule="evenodd" fill="#F34F17"/><path d="M178.01 152.83l2.5.01-.02 5-2.5-.01-100.33-.33-2.5-.01.01-5 2.5.01 100.34.33z" fill="#F34F17"/><path d="M101.536 174.166q-.982 0-1.813-.371-.832-.37-1.331-1.005l1.134-1.028q.952.922 2.101.922.559 0 .922-.196.363-.197.363-.59 0-.227-.219-.431t-.507-.34q-.287-.136-.846-.363-.061-.03-.098-.045l-.099-.038-.105-.037q-.56-.242-.832-.371-.272-.128-.657-.363-.386-.234-.56-.445-.173-.212-.309-.537-.136-.325-.136-.733 0-.983.846-1.55.847-.566 2.131-.566 1.799 0 2.887 1.224l-1.163.952q-.832-.695-1.784-.695-.59 0-.945.174t-.355.491q0 .151.121.295.121.143.423.302t.499.242q.196.083.665.265 1.391.559 1.844.906.801.635.816 1.648 0 1.073-.808 1.678-.809.605-2.185.605zm12.607 2.055l-1.738.786v-3.643q-.665.802-1.89.802-1.511 0-2.449-1.081-.937-1.081-.937-2.955 0-1.905.93-2.978.929-1.073 2.502-1.073 1.163 0 1.844.771v-.59h1.738v9.961zm-3.401-3.718q1.118 0 1.663-.771v-3.235q-.514-.771-1.633-.771-.892 0-1.391.658-.498.657-.498 1.746 0 1.148.476 1.761.476.612 1.383.612zm11.382-6.424q1.043 0 1.814.408v2.857h-1.693v-1.648h-.151q-1.194 0-1.844.559-.65.56-.65 1.678v2.524h2.161v1.527h-5.532v-1.527h1.632v-4.67h-1.632v-1.527h3.25v1.24q.317-.666 1.043-1.043.725-.378 1.602-.378zm8.011 8.087q-2.267 0-2.267-2.102v-4.277h-1.617v-1.527h1.617v-2.358l1.738-.831v3.189h2.63v1.527h-2.63v3.945q0 .892 1.089.892.634 0 1.33-.363l-.212 1.557q-.665.348-1.678.348zm11.095 1.783h-.529q-1.542-.03-2.433-.929-.892-.9-.892-2.593v-.952q0-.514-.197-.816-.196-.303-.544-.303h-.393v-1.557h.393q.348 0 .544-.302.197-.302.197-.816v-.922q0-1.693.892-2.593.891-.899 2.433-.944h.529v1.572h-.529q-1.572.06-1.572 1.693v1.028q0 .952-.302 1.42-.302.469-.892.62v.061q1.194.317 1.194 2.04v1.028q0 1.663 1.572 1.708h.529v1.557zm5.004-1.965h-2.011l2.827-4.006-2.63-3.718h1.995l1.209 1.708q.363.544.408.665.318-.529.424-.665l1.209-1.708h1.995l-2.615 3.718 2.812 4.006h-1.996l-1.405-1.98q-.106-.136-.424-.665-.045.121-.408.665l-1.39 1.98zm9.16 1.965h-.529v-1.557h.529q1.572-.045 1.572-1.708v-1.028q0-1.723 1.194-2.04v-.061q-1.194-.317-1.194-2.04v-1.028q0-1.633-1.572-1.693h-.529v-1.572h.529q1.557.045 2.441.937.884.892.884 2.6v.922q0 .514.197.816.196.302.544.302h.393v1.557h-.393q-.348 0-.544.303-.197.302-.197.816v.952q0 1.693-.892 2.593-.892.899-2.433.929z" fill-rule="evenodd" fill="#4D4D4D"/><path d="M123.324 100.343h41.343v8.264h-4.135v-2.755h-33.759l-16.844 39.944h-2.446l-10.317-22.014-4.017 2.105-1.482-5.162 8.337-3.172 8.673 16.928 14.643-34.138" fill="#333" opacity=".8"/><path d="M162.158 114.116h-6.83l-8.395 11.017h-.213l-8.111-11.017h-7.399l11.62 15.447v.197l-12.047 16.036h6.83l8.964-11.934h.214l8.964 11.934h7.399l-12.331-16.298v-.197l11.335-15.185z" fill="#333" opacity=".8"/></g><defs><filter id="d" x="-200%" y="-200%" width="400%" height="400%" filterUnits="objectBoundingBox" color-interpolation-filters="sRGB"><feGaussianBlur xmlns="http://www.w3.org/2000/svg" in="SourceGraphic" stdDeviation="4.294"/><feOffset xmlns="http://www.w3.org/2000/svg" dy="4" result="pf_100_offsetBlur"/><feFlood xmlns="http://www.w3.org/2000/svg" flood-color="#000" flood-opacity=".4"/><feComposite xmlns="http://www.w3.org/2000/svg" in2="pf_100_offsetBlur" operator="in" result="pf_100_dropShadow"/><feBlend xmlns="http://www.w3.org/2000/svg" in="SourceGraphic" in2="pf_100_dropShadow"/></filter></defs></g><defs><filter id="b" x="-200%" y="-200%" width="400%" height="400%" filterUnits="objectBoundingBox" color-interpolation-filters="sRGB"><feGaussianBlur xmlns="http://www.w3.org/2000/svg" in="SourceGraphic" stdDeviation="4.294"/><feOffset xmlns="http://www.w3.org/2000/svg" result="pf_100_offsetBlur"/><feFlood xmlns="http://www.w3.org/2000/svg" flood-color="#000" flood-opacity=".4"/><feComposite xmlns="http://www.w3.org/2000/svg" in2="pf_100_offsetBlur" operator="in" result="pf_100_dropShadow"/><feBlend xmlns="http://www.w3.org/2000/svg" in="SourceGraphic" in2="pf_100_dropShadow"/></filter></defs><g opacity=".4"><linearGradient id="e" x1=".517" x2=".517" y2="1" gradientTransform="matrix(244.65 0 0 228.34 5.68 11.95)" gradientUnits="userSpaceOnUse"><stop offset="0%" stop-color="#fff"/><stop offset="12.5%" stop-opacity=".098" stop-color="#fff"/><stop offset="92.5%" stop-opacity=".098"/><stop offset="100%" stop-opacity=".498"/></linearGradient><path d="M165.068 11.951c4.328-.01 8.656.04 12.984.138 3.875.078 7.75.226 11.626.452 3.453.196 6.905.481 10.348.854 3.06.335 6.118.786 9.148 1.346a80.47 80.47 0 0 1 8.046 1.916 53.64 53.64 0 0 1 7.023 2.584 40.413 40.413 0 0 1 6.06 3.35 35.176 35.176 0 0 1 5.134 4.215 35.072 35.072 0 0 1 4.22 5.119 41.692 41.692 0 0 1 3.363 6.042 55.982 55.982 0 0 1 2.597 7.005 80.224 80.224 0 0 1 1.918 8.037 124.43 124.43 0 0 1 1.348 9.127c.374 3.439.659 6.878.856 10.326.226 3.861.373 7.732.462 11.593.088 4.323.138 8.646.128 12.96v58.21c.01 4.324-.04 8.637-.128 12.96a325.177 325.177 0 0 1-.462 11.593 200.984 200.984 0 0 1-.856 10.326 124.691 124.691 0 0 1-1.348 9.137 80.687 80.687 0 0 1-1.918 8.027 55.414 55.414 0 0 1-2.597 7.005 41.18 41.18 0 0 1-3.364 6.042 34.559 34.559 0 0 1-4.22 5.119 35.177 35.177 0 0 1-5.134 4.215 40.412 40.412 0 0 1-6.059 3.35 55.138 55.138 0 0 1-7.023 2.594 77.806 77.806 0 0 1-8.046 1.906 120 120 0 0 1-9.148 1.346c-3.443.373-6.895.658-10.348.854-3.875.226-7.75.374-11.626.462-4.328.088-8.656.138-12.984.128H90.942c-4.328.01-8.656-.04-12.984-.128a328.387 328.387 0 0 1-11.626-.462 203.003 203.003 0 0 1-10.348-.854 120 120 0 0 1-9.148-1.346 77.806 77.806 0 0 1-8.046-1.906 55.139 55.139 0 0 1-7.023-2.594 40.413 40.413 0 0 1-6.06-3.35 35.176 35.176 0 0 1-5.134-4.215 34.56 34.56 0 0 1-4.22-5.119 41.183 41.183 0 0 1-3.363-6.042 55.415 55.415 0 0 1-2.597-7.005 80.682 80.682 0 0 1-1.918-8.027 124.688 124.688 0 0 1-1.348-9.137 200.993 200.993 0 0 1-.856-10.326 325.212 325.212 0 0 1-.462-11.593 569.197 569.197 0 0 1-.128-12.96v-58.21c-.01-4.314.04-8.637.128-12.96.089-3.86.236-7.732.462-11.593.197-3.448.482-6.887.856-10.326.335-3.055.787-6.101 1.348-9.127a80.219 80.219 0 0 1 1.918-8.037 55.983 55.983 0 0 1 2.597-7.005 41.695 41.695 0 0 1 3.364-6.042 35.072 35.072 0 0 1 4.22-5.119 35.176 35.176 0 0 1 5.134-4.215 40.413 40.413 0 0 1 6.059-3.35 53.64 53.64 0 0 1 7.023-2.584 80.47 80.47 0 0 1 8.046-1.916 125.11 125.11 0 0 1 9.148-1.346c3.443-.373 6.895-.658 10.348-.854 3.875-.226 7.75-.374 11.626-.452 4.328-.098 8.656-.148 12.984-.138h74.126zm.01 4.009c4.298-.01 8.597.039 12.895.127 3.827.089 7.653.236 11.48.452 3.383.197 6.766.472 10.13.845 2.971.315 5.932.747 8.863 1.297a75.943 75.943 0 0 1 7.653 1.818 50.493 50.493 0 0 1 6.501 2.397 37.038 37.038 0 0 1 5.47 3.026 30.383 30.383 0 0 1 4.524 3.724 31.05 31.05 0 0 1 3.738 4.519 37.271 37.271 0 0 1 3.03 5.443 51.46 51.46 0 0 1 2.4 6.494 75.563 75.563 0 0 1 1.829 7.634c.54 2.928.974 5.875 1.298 8.842.374 3.36.65 6.73.846 10.11.217 3.822.374 7.634.453 11.456.088 4.293.137 8.577.137 12.87v58.212c0 4.293-.049 8.577-.137 12.87a317.503 317.503 0 0 1-.453 11.456c-.196 3.38-.472 6.75-.846 10.12a121.689 121.689 0 0 1-1.298 8.832 75.562 75.562 0 0 1-1.83 7.634 50.902 50.902 0 0 1-2.4 6.494 36.767 36.767 0 0 1-3.03 5.443 30.615 30.615 0 0 1-3.737 4.53 30.938 30.938 0 0 1-4.525 3.713 37.038 37.038 0 0 1-5.469 3.026 49.07 49.07 0 0 1-6.501 2.397 75.942 75.942 0 0 1-7.653 1.818c-2.931.55-5.892.982-8.863 1.306-3.364.364-6.747.649-10.13.836-3.827.216-7.653.373-11.48.452-4.298.098-8.597.137-12.895.137H90.932c-4.298 0-8.597-.04-12.895-.137a320.093 320.093 0 0 1-11.48-.452 193.696 193.696 0 0 1-10.13-.836 116.71 116.71 0 0 1-8.863-1.306 75.942 75.942 0 0 1-7.653-1.818 49.07 49.07 0 0 1-6.501-2.397 37.038 37.038 0 0 1-5.47-3.026 30.938 30.938 0 0 1-4.524-3.714 30.615 30.615 0 0 1-3.738-4.529 36.766 36.766 0 0 1-3.03-5.443 50.903 50.903 0 0 1-2.4-6.494 75.567 75.567 0 0 1-1.829-7.634 121.69 121.69 0 0 1-1.298-8.832c-.374-3.37-.65-6.74-.846-10.12a317.535 317.535 0 0 1-.453-11.456 623.851 623.851 0 0 1-.137-12.87V97.014c0-4.293.049-8.577.137-12.87.079-3.822.236-7.634.453-11.456.197-3.38.472-6.75.846-10.11.324-2.967.757-5.914 1.298-8.842a75.568 75.568 0 0 1 1.83-7.634 51.46 51.46 0 0 1 2.4-6.494 37.27 37.27 0 0 1 3.03-5.443 31.05 31.05 0 0 1 3.737-4.52 30.384 30.384 0 0 1 4.525-3.723 37.039 37.039 0 0 1 5.469-3.026 50.494 50.494 0 0 1 6.501-2.397 75.943 75.943 0 0 1 7.653-1.818c2.931-.55 5.892-.982 8.863-1.297 3.364-.373 6.747-.648 10.13-.845a344.71 344.71 0 0 1 11.48-.452c4.298-.088 8.597-.137 12.895-.127H165.078z" fill-rule="evenodd" fill="url(#e)"/></g></svg>