<svg xmlns="http://www.w3.org/2000/svg" style="isolation:isolate" width="256" height="256"><defs><filter id="a" width="270.648" height="254.338" x="-7.32" y="2.95" filterUnits="userSpaceOnUse"><feGaussianBlur xmlns="http://www.w3.org/2000/svg" in="SourceGraphic" stdDeviation="4.294"/><feOffset xmlns="http://www.w3.org/2000/svg" dy="4" result="pf_100_offsetBlur"/><feFlood xmlns="http://www.w3.org/2000/svg" flood-opacity=".4"/><feComposite xmlns="http://www.w3.org/2000/svg" in2="pf_100_offsetBlur" operator="in" result="pf_100_dropShadow"/><feBlend xmlns="http://www.w3.org/2000/svg" in="SourceGraphic" in2="pf_100_dropShadow"/></filter></defs><g filter="url(#a)"><linearGradient id="b" x1=".733" x2=".267" y1="1.071" y2=".005" gradientTransform="matrix(244.648 0 0 228.338 5.676 11.947)" gradientUnits="userSpaceOnUse"><stop offset="0%" stop-color="#f37e40"/><stop offset="100%" stop-color="#f34f17"/></linearGradient><path fill="url(#b)" d="M165.685 11.947c74.055 0 84.639 10.557 84.639 84.544v59.251c0 73.986-10.584 84.543-84.639 84.543h-75.37c-74.055 0-84.639-10.557-84.639-84.543V96.491c0-73.987 10.584-84.544 84.639-84.544h75.37z"/></g><circle fill="#FF6300" r="1" transform="translate(128.004 128.989) scale(80.559)" vector-effect="non-scaling-stroke"/><path fill="#946857" d="M117.379 83.29c10.14 2.399 11.24 15.323 19.397 18.47 10.883 4.421 11.811-9.419 6.192-16.737"/><path fill="#946857" d="M5.963 85.113c-.084 3.935-.283 7.376-.283 11.742v59.252c0 4.052.192 7.218.264 10.898 15.322 38.973 51.81 66.93 95.113 68.1 28.414.768 50.596-10.131 70.055-28.478 2.077-1.734 3.209-2.815 3.209-2.815s24.551-21.658 25.683-39.939c-5.384 8.895-13.773 17.312-27.176 23.908-6.146 2.847-11.78 5.271-17.459 7.185-.363.089-.728.178-1.097.266a88.338 88.338 0 0 1-8.463 1.588c-.358.044-.624.906-.986.951-3.064.388-5.256 1.183-8.525 1.321.073.68-2.678.519-3.017.527-3.224.103-3.403-.409-6.751-.538 1.264 1.729-2.68.561-2.899.554-3.405-.152-2.095.153-5.555-.25-.494-.06-2.418-.767-2.912-.825-3.368-.428-5.714-1.605-9.061-2.275-.541-.103-1.849-.217-2.388-.33-3.276-.696-6.164-2.739-9.351-3.668a129.831 129.831 0 0 1-3.049-.928c-.763-.243-1.528-.477-2.281-.735-1.078-.368-2.128-.765-3.186-1.162-.863-.322-1.732-.637-2.58-.98-.983-.396-1.937-.825-2.899-1.248-.814-.358-1.643-.703-2.441-1.078a92.323 92.323 0 0 1-5.096-2.58 53.14 53.14 0 0 1-3.752-2.28c-2.734-1.825-5.119-3.839-7.257-5.949-11.131-11.359-10.614-24.714-10.03-33.371.737-10.874 9.852-34.732 39.852-47.367 18.535-6.545 40.335-11.121 58.558-5.254 13.709 3.093 23.566 7.59 36.602 12.193 0 0-.106.226 3.496 1.119 25.353 4.016 22.508-16.869 22.508-16.869l-1.988-4.888c-.44-2.576 1.49-4.608 1.49-4.608s-1.562-5.758-1.299-9.564c.267-3.805.052-8.682-.777-15.637-.83-6.956-5.395-12.841-6.875-13.922-1.484-1.08-8.397-6.291-15.02-8.89-6.626-2.6-13.323-4.52-21.572-3.358-.916.133-1.783.271-2.686.406-.16-.044-.286-.104-.459-.162-3.145-.934-5.371-8.368-7.941-8.306a4.49 4.49 0 0 0-.596.045 4.67 4.67 0 0 0-.607.087h-.012c-.208.045-.414.088-.629.149a3.928 3.928 0 0 0-.67.244c-1.504.7-2.426 8.792-2.996 10.518A102.43 102.43 0 0 0 106.578 16.9a91.377 91.377 0 0 0-2.716-.043l-.002.002c-44.138-.034-82.166 28.105-97.897 68.254z"/><path fill="#F2F2F2" d="M149.912 48.156c-11.421-.015-23.802 3.327-32.845 6.473-17.15 6.068-27.843 10.979-41.739 20.91-3.684 2.675-18.165 13.307-26.962 28.132-24.314 42.986-7.111 88.628 24.33 98.999 28.601 10.696 69.625 3.886 101.87-15.746-1.08.272-15.466 6.709-16.562 6.949-1.382.653-2.609.928-4.084 1.179-2.234.679-4.51.964-6.82 1.465-2.31.501-4.65.911-7.012 1.229a91.11 91.11 0 0 1-12.22.818 91.839 91.839 0 0 1-14.284-1.119 88.982 88.982 0 0 1-6.965-1.391 85.804 85.804 0 0 1-6.75-1.924 81.86 81.86 0 0 1-6.47-2.443 77.435 77.435 0 0 1-6.127-2.933 73.093 73.093 0 0 1-5.723-3.399 68.233 68.233 0 0 1-5.258-3.826 63.718 63.718 0 0 1-4.742-4.219 58.983 58.983 0 0 1-4.181-4.566 54.705 54.705 0 0 1-3.577-4.871 51.077 51.077 0 0 1-2.935-5.125 48.1 48.1 0 0 1-2.266-5.328 45.9 45.9 0 0 1-1.574-5.479 44.503 44.503 0 0 1-1.045-9.547c.025-1.323.11-2.645.254-3.963.005-.113-.065-.227-.049-.34.023-.159.077-.315.102-.474.266-1.734.613-3.461 1.101-5.17a44.392 44.392 0 0 1 1.992-5.533 47.917 47.917 0 0 1 2.76-5.364 52.503 52.503 0 0 1 3.504-5.14 58.06 58.06 0 0 1 4.209-4.867c.243-.231.489-.46.736-.688 3.757-5.91 10.101-11.622 21.071-16.242 12.985-4.585 27.554-8.117 41.39-7.856 5.914.112 11.708.845 17.164 2.602 3.133.707 6.023 1.574 8.836 2.5 9.501 3.128 17.705 7.242 27.762 10.793 0 0-.108.224 3.494 1.115a38.38 38.38 0 0 0 4.047.412c21.371 1.125 22.125-18.709 22.125-18.709l-.723-4.064-2.207-5.516-1.052-2.363-.633-1.281s-.183-1.612-.44-3.25c-.485 6.124-2.923 9.449-2.923 9.449-19.705-3.736-23.228-20.726-44.004-27.858-4.391-1.726-9.383-2.425-14.575-2.431z"/><path fill="#946857" d="M45.094 103.457l-.118.974c7.929-.402 17.647 1.315 24.855 6.372 5.589 3.773 10.623 9.404 17.789 6.856 4.898-1.718 5.171-4.627 3.293-9.411-1.586-3.889-4.207-10.606-7.449-13.181-4.669-3.695-16.741-2.405-17.346-10.132-.455-3.653 1.845-6.4 3.886-9.062-.004 0-23.376 5.876-24.91 27.584z"/><path fill="#3F3F3F" d="M208.869 79.224s-.898 2.833-5.115 3.081c-4.216.252-3.487 6.115.169 9.398 3.657 3.284 6.517 4.185 8.955 1.665 2.435-2.516 8.414-6.689-4.009-14.144zm-25.233-10.767c-2.651 3.383-7.55 3.966-10.944 1.308-3.393-2.67-4.001-7.571-1.348-10.956 2.646-3.378 7.549-3.962 10.941-1.301 3.395 2.666 3.995 7.565 1.351 10.949zm30.67.438c-.23 3.007-2.143 5.264-4.272 5.037-2.127-.223-3.664-2.836-3.43-5.849.232-3.003 2.142-5.259 4.268-5.035 2.127.23 3.665 2.842 3.434 5.847z"/><g opacity=".4"><linearGradient id="c" x1=".517" x2=".517" y2="1"><stop offset="0%" stop-color="#fff"/><stop offset="12.5%" stop-opacity=".098" stop-color="#fff"/><stop offset="92.5%" stop-opacity=".098"/><stop offset="100%" stop-opacity=".498"/></linearGradient><path fill="none" stroke="url(#c)" stroke-linecap="round" stroke-linejoin="round" stroke-width="4.077" d="M165.685 11.947c74.055 0 84.639 10.557 84.639 84.544v59.251c0 73.986-10.584 84.543-84.639 84.543h-75.37c-74.055 0-84.639-10.557-84.639-84.543V96.491c0-73.987 10.584-84.544 84.639-84.544h75.37z" vector-effect="non-scaling-stroke"/></g></svg>