<svg xmlns="http://www.w3.org/2000/svg" style="isolation:isolate" width="256" height="256" viewBox="0 0 256 256">
 <defs>
  <filter id="8sF6wOJwrWyTSTQ56HFhbRX7medOoFPs" width="270.648" height="254.338" x="-7.32" y="2.95" filterUnits="userSpaceOnUse">
   <feGaussianBlur xmlns="http://www.w3.org/2000/svg" in="SourceGraphic" stdDeviation="4.294"/>
   <feOffset xmlns="http://www.w3.org/2000/svg" dx="0" dy="4" result="pf_100_offsetBlur"/>
   <feFlood xmlns="http://www.w3.org/2000/svg" flood-opacity=".4"/>
   <feComposite xmlns="http://www.w3.org/2000/svg" in2="pf_100_offsetBlur" operator="in" result="pf_100_dropShadow"/>
   <feBlend xmlns="http://www.w3.org/2000/svg" in="SourceGraphic" in2="pf_100_dropShadow" mode="normal"/>
  </filter>
 </defs>
 <g filter="url(#8sF6wOJwrWyTSTQ56HFhbRX7medOoFPs)">
  <linearGradient id="_lgradient_176" x1=".233" x2=".933" y1="-.071" y2=".995" gradientTransform="matrix(244.648,0,0,228.338,5.676,11.947)" gradientUnits="userSpaceOnUse">
   <stop offset="0%" style="stop-color:rgb(232,232,232)"/>
   <stop offset="100%" style="stop-color:rgb(245,245,245)"/>
  </linearGradient>
  <path fill="url(#_lgradient_176)" d="M 165.685 11.947 C 239.74 11.947 250.324 22.504 250.324 96.491 L 250.324 155.742 C 250.324 229.728 239.74 240.285 165.685 240.285 L 90.315 240.285 C 16.26 240.285 5.676 229.728 5.676 155.742 L 5.676 96.491 C 5.676 22.504 16.26 11.947 90.315 11.947 L 165.685 11.947 Z"/>
 </g>
 <g>
  <path fill="#BC1938" d="M 165.685 11.947 C 226.552 11.947 243.856 18.713 248.333 62.333 C 231 62.333 37.667 62.667 7.019 62.335 C 11.559 19.039 29.617 11.947 90.315 11.947 L 165.685 11.947 Z"/>
  <path fill="#5D5D5D" d="M 70.794 91.483 L 50.423 145.164 L 45.419 145.164 L 45.419 149.293 L 59.871 149.293 L 59.871 145.164 L 55.244 145.164 L 60.071 132.767 L 84.023 132.767 L 88.844 145.164 L 82.593 145.164 L 82.593 149.293 L 103.325 149.293 L 103.325 145.164 L 97.605 145.164 L 77.228 91.483 L 70.794 91.483 Z M 72.047 100.776 L 82.593 128.655 L 61.678 128.655 L 72.047 100.776 Z"/>
  <path fill="#E3DFD5" fill-opacity=".996" d="M 111.488 95.613 L 111.488 99.742 L 210.591 99.742 L 210.591 95.613 L 111.488 95.613 Z M 111.488 112.13 L 111.488 116.26 L 210.591 116.26 L 210.591 112.13 L 111.488 112.13 Z M 111.488 128.571 L 111.488 132.7 L 210.591 132.7 L 210.591 128.571 L 111.488 128.571 Z M 111.488 145.088 L 111.488 149.217 L 210.591 149.217 L 210.591 145.088 L 111.488 145.088 Z M 45.419 161.606 L 45.419 165.735 L 210.591 165.811 L 210.591 161.682 L 45.419 161.606 Z M 45.419 178.123 L 45.419 182.252 L 210.591 182.252 L 210.591 178.123 L 45.419 178.123 Z M 45.419 194.64 L 45.419 198.769 L 169.298 198.769 L 169.298 194.64 L 45.419 194.64 Z"/>
 </g>
 <g opacity=".4">
  <linearGradient id="_lgradient_177" x1=".517" x2=".517" y1="0" y2="1">
   <stop offset="0%" style="stop-color:rgb(255,255,255)"/>
   <stop offset="12.5%" stop-opacity=".098" style="stop-color:rgb(255,255,255)"/>
   <stop offset="92.5%" stop-opacity=".098" style="stop-color:rgb(0,0,0)"/>
   <stop offset="100%" stop-opacity=".498" style="stop-color:rgb(0,0,0)"/>
  </linearGradient>
  <path fill="none" stroke="url(#_lgradient_177)" stroke-linecap="round" stroke-linejoin="round" stroke-width="4.077" d="M 165.685 11.947 C 239.74 11.947 250.324 22.504 250.324 96.491 L 250.324 155.742 C 250.324 229.728 239.74 240.285 165.685 240.285 L 90.315 240.285 C 16.26 240.285 5.676 229.728 5.676 155.742 L 5.676 96.491 C 5.676 22.504 16.26 11.947 90.315 11.947 L 165.685 11.947 Z" vector-effect="non-scaling-stroke"/>
 </g>
 <path fill="#BC1938" d="M 139.849 160.667 L 210.484 160.667 C 215.92 160.667 220.333 165.08 220.333 170.516 L 220.333 200.151 C 220.333 205.587 215.92 210 210.484 210 L 139.849 210 C 134.413 210 130 205.587 130 200.151 L 130 170.516 C 130 165.08 134.413 160.667 139.849 160.667 Z"/>
 <path fill="#F1F1F1" fill-rule="evenodd" d="M 142.393 199.833 L 135.969 199.833 L 135.969 170.25 L 149.07 170.25 L 149.07 170.25 Q 154.353 170.25 156.867 172.997 L 156.867 172.997 L 156.867 172.997 Q 159.382 175.744 159.382 179.759 L 159.382 179.759 L 159.382 179.759 Q 159.382 181.492 158.79 183.119 L 158.79 183.119 L 158.79 183.119 Q 158.199 184.746 157.015 186.14 L 157.015 186.14 L 157.015 186.14 Q 155.832 187.535 153.761 188.38 L 153.761 188.38 L 153.761 188.38 Q 151.69 189.226 149.07 189.226 L 149.07 189.226 L 142.393 189.226 L 142.393 199.833 Z M 142.393 183.182 L 149.324 183.182 L 149.324 183.182 Q 151.014 183.182 151.859 182.168 L 151.859 182.168 L 151.859 182.168 Q 152.704 181.154 152.704 179.759 L 152.704 179.759 L 152.704 179.759 Q 152.704 178.407 151.901 177.371 L 151.901 177.371 L 151.901 177.371 Q 151.099 176.336 149.324 176.336 L 149.324 176.336 L 142.393 176.336 L 142.393 183.182 Z M 163.143 199.833 L 163.143 170.25 L 174.047 170.25 L 174.047 170.25 Q 177.766 170.25 180.64 171.497 L 180.64 171.497 L 180.64 171.497 Q 183.513 172.743 185.183 174.878 L 185.183 174.878 L 185.183 174.878 Q 186.852 177.012 187.676 179.59 L 187.676 179.59 L 187.676 179.59 Q 188.5 182.168 188.5 185.042 L 188.5 185.042 L 188.5 185.042 Q 188.5 187.155 188.035 189.162 L 188.035 189.162 L 188.035 189.162 Q 187.571 191.17 186.472 193.135 L 186.472 193.135 L 186.472 193.135 Q 185.373 195.1 183.725 196.558 L 183.725 196.558 L 183.725 196.558 Q 182.076 198.016 179.541 198.925 L 179.541 198.925 L 179.541 198.925 Q 177.005 199.833 173.878 199.833 L 173.878 199.833 L 163.143 199.833 Z M 169.567 193.705 L 174.554 193.705 L 174.554 193.705 Q 178.188 193.705 180.006 191.106 L 180.006 191.106 L 180.006 191.106 Q 181.823 188.507 181.823 185.042 L 181.823 185.042 L 181.823 185.042 Q 181.823 181.576 180.069 178.956 L 180.069 178.956 L 180.069 178.956 Q 178.315 176.336 175.019 176.336 L 175.019 176.336 L 169.567 176.336 L 169.567 193.705 Z M 200.165 199.833 L 193.741 199.833 L 193.741 170.25 L 214.365 170.25 L 214.365 176.336 L 200.165 176.336 L 200.165 181.534 L 209.082 181.534 L 209.082 187.62 L 200.165 187.62 L 200.165 199.833 Z"/>
</svg>
