<svg xmlns="http://www.w3.org/2000/svg" style="isolation:isolate" width="256" height="256"><defs><filter id="a" width="270.648" height="254.338" x="-7.32" y="2.95" filterUnits="userSpaceOnUse"><feGaussianBlur xmlns="http://www.w3.org/2000/svg" in="SourceGraphic" stdDeviation="4.294"/><feOffset xmlns="http://www.w3.org/2000/svg" dy="4" result="pf_100_offsetBlur"/><feFlood xmlns="http://www.w3.org/2000/svg" flood-opacity=".4"/><feComposite xmlns="http://www.w3.org/2000/svg" in2="pf_100_offsetBlur" operator="in" result="pf_100_dropShadow"/><feBlend xmlns="http://www.w3.org/2000/svg" in="SourceGraphic" in2="pf_100_dropShadow"/></filter></defs><path fill="#8E2D63" d="M165.685 11.947c74.055 0 84.639 10.557 84.639 84.544v59.251c0 73.986-10.584 84.543-84.639 84.543h-75.37c-74.055 0-84.639-10.557-84.639-84.543V96.491c0-73.987 10.584-84.544 84.639-84.544h75.37z" filter="url(#a)"/><path fill="#FFF" d="M5.676 126.116v29.626c0 73.986 10.584 84.543 84.639 84.543h75.37c74.055 0 84.639-10.557 84.639-84.543v-29.626H5.676z" opacity=".1"/><path fill="#FFF" d="M128 11.947v228.338h37.685c74.055 0 84.639-10.557 84.639-84.543V96.491c0-73.987-10.584-84.544-84.639-84.544H128z" opacity=".2"/><g opacity=".4"><linearGradient id="b" x1=".517" x2=".517" y2="1"><stop offset="0%" stop-color="#fff"/><stop offset="12.5%" stop-opacity=".098" stop-color="#fff"/><stop offset="92.5%" stop-opacity=".098"/><stop offset="100%" stop-opacity=".498"/></linearGradient><path fill="none" stroke="url(#b)" stroke-linecap="round" stroke-linejoin="round" stroke-width="4.077" d="M165.685 11.947c74.055 0 84.639 10.557 84.639 84.544v59.251c0 73.986-10.584 84.543-84.639 84.543h-75.37c-74.055 0-84.639-10.557-84.639-84.543V96.491c0-73.987 10.584-84.544 84.639-84.544h75.37z" vector-effect="non-scaling-stroke"/></g><path fill="#494949" d="M247.563 51.003c-.487-2.422-1.011-4.764-1.648-6.903-.736-2.469-1.578-4.755-2.539-6.871a39.591 39.591 0 0 0-3.252-5.847 33.324 33.324 0 0 0-4.043-4.905 33.33 33.33 0 0 0-4.91-4.037 39.63 39.63 0 0 0-5.856-3.248c-2.118-.959-4.407-1.8-6.879-2.535-2.472-.735-5.127-1.366-7.978-1.902-2.852-.537-5.899-.98-9.156-1.344a198.528 198.528 0 0 0-10.413-.863c-7.376-.434-15.641-.598-24.898-.598H90.62c-9.257 0-17.522.164-24.898.598-3.689.216-7.156.499-10.413.863-3.257.364-6.304.807-9.156 1.344-2.851.536-5.506 1.167-7.978 1.902-2.472.735-4.761 1.576-6.879 2.535a39.63 39.63 0 0 0-5.856 3.248 33.33 33.33 0 0 0-4.91 4.037 33.324 33.324 0 0 0-4.043 4.905 39.591 39.591 0 0 0-3.252 5.847c-.961 2.116-1.803 4.402-2.539 6.871-.637 2.139-1.161 4.481-1.648 6.903h238.515z"/><path fill="#FFF" d="M30.31 31h5v5h-5zm0 10h5v5h-5zm10-10h5v5h-5zm0 10h5v5h-5zm164.995-9.997h15l-7.5 11.25-7.5-11.25z"/><g opacity=".7"><linearGradient id="c" x1="1.012" x2="-.009" y1="-.009" y2="1.012" gradientTransform="matrix(-156.639 0 0 156.649 188.328 59.675)" gradientUnits="userSpaceOnUse"><stop offset="0%" stop-color="#f0f0f1"/><stop offset="100%" stop-color="#cdd9cb"/></linearGradient><path fill="url(#c)" fill-rule="evenodd" stroke="#4D4D4D" stroke-width="2" d="M31.689 59.675l156.639 156.65-156.639-.002V59.675zm31.216 72.191v53.243h53.252l-53.252-53.243z" vector-effect="non-scaling-stroke"/><path fill="none" stroke="#4D4D4D" stroke-linecap="round" stroke-width="2" d="M55.101 216.322v-7.807m23.412 7.807v-7.807m23.411 7.807v-7.714m23.412 7.714v-7.807m23.412 7.807v-7.807M31.672 99.266h7.807m-7.807 23.412h7.807m-7.807 23.411h7.714m-7.714 23.412h7.807m-7.807 23.412h7.807" vector-effect="non-scaling-stroke"/></g></svg>