<svg xmlns="http://www.w3.org/2000/svg" style="isolation:isolate" width="256" height="256"><defs><filter id="a" width="270.648" height="254.338" x="-6.66" y="4.28" filterUnits="userSpaceOnUse"><feGaussianBlur xmlns="http://www.w3.org/2000/svg" in="SourceGraphic" stdDeviation="4.294"/><feOffset xmlns="http://www.w3.org/2000/svg" dy="4" result="pf_100_offsetBlur"/><feFlood xmlns="http://www.w3.org/2000/svg" flood-opacity=".4"/><feComposite xmlns="http://www.w3.org/2000/svg" in2="pf_100_offsetBlur" operator="in" result="pf_100_dropShadow"/><feBlend xmlns="http://www.w3.org/2000/svg" in="SourceGraphic" in2="pf_100_dropShadow"/></filter></defs><g filter="url(#a)"><linearGradient id="b" x1=".533" x2=".533" y1="1" gradientTransform="matrix(244.648 0 0 228.338 6.343 13.28)" gradientUnits="userSpaceOnUse"><stop offset="0%" stop-color="#8ac249"/><stop offset="100%" stop-color="#aae961"/></linearGradient><path fill="url(#b)" d="M166.351 13.28c74.056 0 84.64 10.557 84.64 84.544v59.251c0 73.986-10.584 84.544-84.64 84.544H90.982c-74.056 0-84.639-10.558-84.639-84.544V97.824c0-73.987 10.583-84.544 84.639-84.544h75.369z"/></g><g opacity=".4"><linearGradient id="c" x1=".517" x2=".517" y2="1"><stop offset="0%" stop-color="#fff"/><stop offset="12.5%" stop-opacity=".098" stop-color="#fff"/><stop offset="92.5%" stop-opacity=".098"/><stop offset="100%" stop-opacity=".498"/></linearGradient><path fill="none" stroke="url(#c)" stroke-linecap="round" stroke-linejoin="round" stroke-width="4.077" d="M165.685 11.947c74.055 0 84.639 10.557 84.639 84.544v59.251c0 73.986-10.584 84.543-84.639 84.543h-75.37c-74.055 0-84.639-10.557-84.639-84.543V96.491c0-73.987 10.584-84.544 84.639-84.544h75.37z" vector-effect="non-scaling-stroke"/></g><g fill="#FFF"><path fill-rule="evenodd" d="M55 64.852v37.42h18.714v42.539c0 25.656 20.681 46.337 46.328 46.337H200v-79.959c0-25.656-20.681-46.337-46.337-46.337H55zm9.353 9.362v18.705h9.361c4.894 0 9.353 4.459 9.353 9.353v42.539c0 20.626 16.348 36.975 36.975 36.975h70.606v-70.597c0-20.626-16.349-36.975-36.985-36.975h-89.31z"/><path d="M97.095 83.567v65.485a18.671 18.671 0 0 0 18.714 18.705h42.096a18.664 18.664 0 0 0 18.705-18.705v-35.081c0-9.044-7.323-16.376-16.367-16.376-4.595 0-8.718 1.922-11.691 4.976-2.972-3.054-7.105-4.976-11.699-4.976-9.036 0-16.367 7.332-16.367 16.376v28.058h9.352v-28.058c0-3.878 3.145-7.023 7.015-7.023a7.016 7.016 0 0 1 7.014 7.023v28.058h9.361v-28.058a7.016 7.016 0 0 1 7.015-7.023c3.87 0 7.014 3.145 7.014 7.023v35.081a9.335 9.335 0 0 1-9.352 9.353h-42.096a9.343 9.343 0 0 1-9.361-9.353V83.567h-9.353z"/></g></svg>