<svg xmlns="http://www.w3.org/2000/svg" style="isolation:isolate" width="256" height="256"><defs><filter id="a" width="270.648" height="254.338" x="-6.66" y="4.28" filterUnits="userSpaceOnUse"><feGaussianBlur xmlns="http://www.w3.org/2000/svg" in="SourceGraphic" stdDeviation="4.294"/><feOffset xmlns="http://www.w3.org/2000/svg" dy="4" result="pf_100_offsetBlur"/><feFlood xmlns="http://www.w3.org/2000/svg" flood-opacity=".4"/><feComposite xmlns="http://www.w3.org/2000/svg" in2="pf_100_offsetBlur" operator="in" result="pf_100_dropShadow"/><feBlend xmlns="http://www.w3.org/2000/svg" in="SourceGraphic" in2="pf_100_dropShadow"/></filter></defs><g filter="url(#a)"><linearGradient id="b" x1=".533" x2=".533" y1="1" gradientTransform="matrix(244.648 0 0 228.338 6.343 13.28)" gradientUnits="userSpaceOnUse"><stop offset="0%" stop-color="#8ac249"/><stop offset="100%" stop-color="#aae961"/></linearGradient><path fill="url(#b)" d="M166.351 13.28c74.056 0 84.64 10.557 84.64 84.544v59.251c0 73.986-10.584 84.544-84.64 84.544H90.982c-74.056 0-84.639-10.558-84.639-84.544V97.824c0-73.987 10.583-84.544 84.639-84.544h75.369z"/></g><g opacity=".4"><linearGradient id="c" x1=".517" x2=".517" y2="1"><stop offset="0%" stop-color="#fff"/><stop offset="12.5%" stop-opacity=".098" stop-color="#fff"/><stop offset="92.5%" stop-opacity=".098"/><stop offset="100%" stop-opacity=".498"/></linearGradient><path fill="none" stroke="url(#c)" stroke-linecap="round" stroke-linejoin="round" stroke-width="4.077" d="M165.685 11.947c74.055 0 84.639 10.557 84.639 84.544v59.251c0 73.986-10.584 84.543-84.639 84.543h-75.37c-74.055 0-84.639-10.557-84.639-84.543V96.491c0-73.987 10.584-84.544 84.639-84.544h75.37z" vector-effect="non-scaling-stroke"/></g><defs><filter id="d" width="171" height="142" x="42.5" y="61" filterUnits="userSpaceOnUse"><feGaussianBlur xmlns="http://www.w3.org/2000/svg" in="SourceGraphic" stdDeviation="4.294"/><feOffset xmlns="http://www.w3.org/2000/svg" dy="4" result="pf_100_offsetBlur"/><feFlood xmlns="http://www.w3.org/2000/svg" flood-opacity=".4"/><feComposite xmlns="http://www.w3.org/2000/svg" in2="pf_100_offsetBlur" operator="in" result="pf_100_dropShadow"/><feBlend xmlns="http://www.w3.org/2000/svg" in="SourceGraphic" in2="pf_100_dropShadow"/></filter></defs><path fill="#FFF" d="M128.716 70.004a60.529 60.529 0 0 0-4.807.138v.002c-19.134 1.32-36.934 11.826-46.923 28.863l7.85 4.46c11.29-19.257 34.25-28.621 56.061-22.866 16.501 4.352 29.173 16.525 34.37 31.821l-17.055 6.464c5.451 5.076 11.256 10.146 17.413 15.215a458.53 458.53 0 0 0 18.386 14.237 379.301 379.301 0 0 0 4.053-22.746c1.114-7.823 1.929-15.4 2.436-22.733l-16.773 6.357c-6.232-17.89-21.154-32.137-40.481-37.236a59.695 59.695 0 0 0-14.53-1.976zm-66.727 37.658a379.193 379.193 0 0 0-4.053 22.747c-1.114 7.823-1.929 15.4-2.436 22.733l16.769-6.356c6.232 17.891 21.155 32.139 40.483 37.239a59.627 59.627 0 0 0 19.337 1.833c19.134-1.321 36.938-11.823 46.927-28.86l-7.854-4.46c-11.29 19.256-34.25 28.621-56.061 22.866-16.502-4.353-29.174-16.529-34.369-31.827l17.054-6.464a379.287 379.287 0 0 0-17.411-15.215 458.493 458.493 0 0 0-18.386-14.236z" filter="url(#d)"/></svg>