<svg xmlns="http://www.w3.org/2000/svg" style="isolation:isolate" width="256" height="256"><defs><filter id="a" width="270.648" height="254.338" x="-6.66" y="4.28" filterUnits="userSpaceOnUse"><feGaussianBlur xmlns="http://www.w3.org/2000/svg" in="SourceGraphic" stdDeviation="4.294"/><feOffset xmlns="http://www.w3.org/2000/svg" dy="4" result="pf_100_offsetBlur"/><feFlood xmlns="http://www.w3.org/2000/svg" flood-opacity=".4"/><feComposite xmlns="http://www.w3.org/2000/svg" in2="pf_100_offsetBlur" operator="in" result="pf_100_dropShadow"/><feBlend xmlns="http://www.w3.org/2000/svg" in="SourceGraphic" in2="pf_100_dropShadow"/></filter></defs><path fill="#FDA463" d="M166.351 13.28c74.056 0 84.64 10.557 84.64 84.544v59.251c0 73.986-10.584 84.544-84.64 84.544H90.982c-74.056 0-84.639-10.558-84.639-84.544V97.824c0-73.987 10.583-84.544 84.639-84.544h75.369z" filter="url(#a)"/><path fill="#FDC92B" d="M249.54 183.467c-3.477 49.035-20.269 56.818-83.855 56.818h-75.37c-63.154 0-80.148-7.678-83.782-55.825-5.315.596 238.902-.149 243.007-.993z"/><path fill="#DDCDC4" d="M250.488 176.374c.237-5.882.527-11.512.527-18.49V98.632c0-9.249-.165-17.506-.6-24.875a198.04 198.04 0 0 0-.865-10.401c-.364-3.254-.808-6.298-1.345-9.146-.538-2.849-1.169-5.502-1.905-7.971-.736-2.469-1.578-4.756-2.539-6.871a39.461 39.461 0 0 0-3.252-5.848 33.253 33.253 0 0 0-4.043-4.904 33.33 33.33 0 0 0-4.91-4.037 39.528 39.528 0 0 0-5.855-3.248c-2.118-.96-4.407-1.8-6.879-2.535-2.472-.735-5.127-1.366-7.979-1.903a123.99 123.99 0 0 0-9.156-1.343 199.622 199.622 0 0 0-10.412-.864c-7.377-.433-15.642-.597-24.899-.597H104.07C86.523 33.578 75.751 59.287 75.751 87.577c0 50.572 34.173 93.064 80.655 105.92h58.691a109.392 109.392 0 0 0 35.391-17.123z" opacity=".05"/><path fill="#EBEBEB" d="M251.015 131.04V98.632c0-9.249-.165-17.506-.6-24.875a198.04 198.04 0 0 0-.865-10.401c-.364-3.254-.808-6.298-1.345-9.146-.538-2.849-1.169-5.502-1.905-7.971-.736-2.469-1.578-4.756-2.539-6.871a39.461 39.461 0 0 0-3.252-5.848 33.253 33.253 0 0 0-4.043-4.904 33.33 33.33 0 0 0-4.91-4.037 39.528 39.528 0 0 0-5.855-3.248c-2.118-.96-4.407-1.8-6.879-2.535-2.472-.735-5.127-1.366-7.979-1.903a123.99 123.99 0 0 0-9.156-1.343 199.622 199.622 0 0 0-10.412-.864c-7.377-.433-15.642-.597-24.899-.597h-8.472c-29.707 11.21-50.875 39.823-50.875 73.453 0 43.394 35.178 78.572 78.572 78.572 27.302 0 51.332-13.939 65.414-35.074z" opacity=".1"/><circle fill="#FFF" cx="185.601" cy="87.541" r="45.67" vector-effect="non-scaling-stroke" opacity=".15"/><circle fill="#FB7C38" cx="185.775" cy="87.483" r="24.465" vector-effect="non-scaling-stroke"/><g fill="#4D9A05"><path fill-opacity=".893" d="M129.82 75.85c-1.859 1.587-2.895 3.261-4.305 4.202-.633.426-1.947.938-2.252 1.772-.05.14.439.282.689.196 2.44-.853 4.794-1.857 7.188-2.836 2.677-1.096 5.456-1.752 8.265-2.41 2.762-.644 5.505-1.423 8.355-1.538 2.716-.108 5.721.691 8.384.027 2.111-.529 2.967-2.514 4.445-3.894 1.783-1.665 3.933-1.861 6.255-1.526 2.094.303 4.165.782 5.823-.876 1.311-1.309 1.989-3.568 4.163-3.55 2.331.019 4.538 2.089 6.893 1.072 1.012-.437 1.794-1.325 2.67-1.968 1.086-.795 2.288-1.356 3.523-1.877-9.154-1.401-18.422-3.135-27.704-3.297-8.21-.144-15.775 1.82-22.354 6.859-1.893 1.45-3.663 3.056-5.369 4.72-1.839 1.799-3.335 3.95-5.396 5.518m-.375 11.131c2.422-1.131 5.124-1.486 7.707-2.103a75.462 75.462 0 0 1 8.166-1.48c6.002-.749 12.11-.962 18.153-.914 5.083.041 10.757.188 15.011 3.339 4.348 3.222 6.715 8.716 8.61 13.608a75.315 75.315 0 0 1 3.974 14.463c-1.751-1.554-3.531-3.144-5.688-4.117-1.806-.815-4.086-.921-5.68-2.149-1.685-1.298-1.862-3.583-3.114-5.191-1.497-1.921-3.862-1.467-6.01-1.617-2.55-.18-3.542-1.667-4.665-3.767-1.149-2.146-2.521-3.353-5.031-3.456-2.563-.105-4.982.182-7.499-.529-2.599-.735-4.982-2.049-7.479-3.05-2.84-1.142-5.719-1.523-8.764-1.598-1.553-.038-3.11-.032-4.663-.127-.832-.05-2.477.158-3.313-.333-.23-.137.142-1.014.285-.979m-6.579 7.997c.935-.128 1.986.151 2.901.243.966.099 2.054.076 3.032.173.953.097 1.841.484 2.746.706.849.21 1.759.349 2.599.607 1.859.573 3.673 1.277 5.487 1.847 1.883.594 3.749.896 5.428 2.033 1.95 1.321 3.854 2.444 5.241 4.288.21.278.704.447.96.743.308.353.564.753.813 1.149.553.883 1.074 1.774 1.676 2.636 1.058 1.517 2.106 3.07 3.161 4.609 2.102 3.068 4.213 5.979 5.532 9.385.698 1.808 1.517 3.482 2.299 5.299.684 1.589 1.451 3.266 2.138 4.87.516 1.21 1.001 2.527 1.336 3.827.014.053-.692-.162-.774-.229a2.754 2.754 0 0 1-.673-.844c-.27-.518-.552-.857-.887-1.036-.655-.352-1.079-.693-1.811-.914-.716-.215-1.508-.112-2.243-.188-.953-.098-2.04-.003-2.962-.243-1.75-.456-1.686-2.692-2.384-4.027-.916-1.756-2.409-1.982-4.27-2.078-1.537-.08-4.149.141-4.791-1.558-.31-.822-.348-1.764-.649-2.617-.255-.717-.766-1.38-1.262-2.004-.97-1.219-2.462-2.255-3.978-2.683-1.457-.414-3.494-1.003-4.101-2.665-.301-.829-.033-1.842-.308-2.666-.252-.752-.617-1.228-.987-1.846-.469-.778-.718-1.669-1.175-2.452-.72-1.232-1.853-2.254-2.526-3.526-.417-.788-.809-1.57-1.415-2.285-.527-.619-1.085-1.136-1.616-1.771-.495-.59-.999-1.151-1.495-1.773-.527-.66-.974-1.375-1.511-2.064-.521-.666-1.218-1.148-1.875-1.639-.461-.099-1.028-.273-1.421-.491-.303-.169-.957-1.093-.109-.878m-16.017-15.092c.165-.21.286-.404.367-.759.71-3.097-1.308-6.097-2.634-8.755-1.597-3.196-2.176-7.545-.892-10.952 1.181-3.135 3.306-5.488 5.165-8.182.715-1.036 1.961-2.343 3.246-2.591.141 2.087-.453 3.804-.554 5.786-.173 3.43 2.074 6.761 3.308 9.79 1.474 3.613.732 6.896-1.722 9.876-1.845 2.242-4.221 3.796-6.284 5.787zM87.999 84.41c-.716-.915-1.728-1.678-2.609-2.428-.94-.801-1.903-1.575-2.858-2.358-1.742-1.431-3.536-2.798-5.42-4.036a41.153 41.153 0 0 0-5.779-3.191 35.888 35.888 0 0 0-6.195-2.121 38.993 38.993 0 0 0-6.563-.993 49.548 49.548 0 0 0-6.806.031 70.048 70.048 0 0 0-6.896.845c-2.302.39-4.587.875-6.86 1.415a187.25 187.25 0 0 0-6.76 1.754c-2.23.621-4.451 1.268-6.673 1.922l-1.595.469c1.044.426 2.061.883 3.018 1.481.945.594 1.852 1.284 2.913 1.666 1.072.385 2.152.332 3.218-.049 1.071-.384 2.071-.955 3.215-1.099 2.396-.298 3.899 1.38 5.794 2.476.922.534 1.976.869 3.049.701 1.073-.166 1.957-.807 2.919-1.258 1.005-.474 2.079-.643 3.164-.346 1.088.298 2.001.976 2.863 1.679.856.694 1.707 1.395 2.713 1.868 1.037.488 2.162.699 3.3.761 2.472.132 4.965-.149 7.433-.253 2.46-.103 4.97-.153 7.428.013 2.383.161 4.723.822 7.048 1.34 1.249.278 2.471.641 3.712.949.897.225 2.186.599 3.004-.033.197-.153.403-.369.532-.581.197-.335.013-.485-.309-.624"/><path d="M88.389 92.377c-1.002-.12-1.693-.371-2.619-.614-2.128-.558-4.418-.367-6.599-.431-2.45-.073-4.898-.206-7.346-.327-4.895-.245-9.8-.438-14.695-.103-2.771.191-5.539.586-8.243 1.235-4.567 1.097-8.892 3.195-11.965 6.836-3.063 3.632-4.606 8.263-5.596 12.843-1.246 5.757-1.058 8.461-1.625 14.316 1.377-1.96 2.097-.74 3.981-2.253 1.582-1.271 3.498-1.895 5.141-3.04 1.521-1.058 1.857-2.631 2.39-4.3.644-2.015 1.784-3.206 3.867-3.727 1.983-.496 4.439-.388 5.977-1.95 1.339-1.358 1.246-3.411 2.31-4.912 1.183-1.67 3.528-1.63 5.352-1.897 2.389-.349 4.418-1.15 6.338-2.623 2.129-1.633 4.081-3.158 6.662-4.03 3.359-1.134 6.866-1.701 10.325-2.428.89-.188 1.813-.263 2.711-.414 1.161-.194 2.424-.395 3.49-.921.2-.099.412-.221.587-.361.105-.086.228-.182.245-.326.059-.489-.635-.533-.957-.642"/><path fill-opacity=".893" d="M85.425 101.95c-4.695 1.004-9.726 4.315-13.022 7.676-1.17 1.192-2.522 2.297-3.504 3.627-1.124 1.524-2.087 3.097-3.186 4.639-1.226 1.725-2.151 3.707-2.909 5.674-.75 1.947-.957 4.194-1.702 6.148-.801 2.095-1.709 3.401-2.32 5.572-.989 3.514-2.162 3.661-2.712 10.062 2.098-1.738 2.612-1.92 3.156-2.043 1.084-.246 1.637.085 2.665-.123 1.079-.218.957-.389 1.789-1.14.763-.69 1.016-1.875 1.35-2.772.401-1.08.533-1.955 1.586-2.615.895-.56 1.92-.781 2.89-1.156.915-.353 2.021-.573 2.821-1.223.852-.694 1.141-1.595 1.537-2.581.895-2.225 1.451-4.352 3.49-5.707.813-.541 1.783-.934 2.462-1.585.718-.69 1.133-1.696 1.467-2.572 1.481-3.893 2.719-7.92 4.157-11.856.673-1.842 1.682-3.868 3.369-5.114.739-.547 1.655-1.018 2.3-1.819.402-.5 1.58-1.58 1.365-2.288-.338-1.107-2.997-.513-3.717-.21-1.06.45-2.205 1.047-3.332 1.406z"/></g><path d="M103.616 91.261c-.178-.288-.133-.72.295-.853.529-.164.798-.095 1.33-.251.562-.166 1.251-.005 1.824-.134.66-.149 1.923-.395 2.596-.266 1.442.278 1.421 1.431 1.945 2.66.324.756.621 1.528.87 2.311.166.521.766 1.87.304 2.206-.973.711-2.538.533-3.44.49-.867-.041-1.914.335-2.732.035-.423-.155-.8-.411-1.056-1.099-.284-.766-.504-1.005-.862-1.692-.266-.507-.633-1.495-.787-2.043-.148-.532-.331-1.345-.336-1.903m5.524 19.093c-.463-.6-.765-1.258-1.024-1.96-.252-.685-.759-1.26-1.258-1.759-.13-.129-.603-.627-.554-.829.074-.295 1.02-.248 1.283-.276.945-.096 1.938-.055 2.897-.1 1.001-.047 1.973-.048 2.96-.101.432-.023.872-.003 1.306-.025.367-.017.861-.14 1.112.145.55.623 1.014 1.535 1.352 2.295.33.745.56 1.246.974 1.985.395.709.479 1.795.805 2.539.308.701.586 1.585.586 2.399 0 .786.046 1.348-.184 2.07-.247.774-1.311.584-2.03.584-.835 0-1.674.051-2.488.049-.888-.001-1.636-.065-2.446-.319-.593-.188-1.142-.973-1.395-1.521-.663-1.43-1.127-2.943-1.697-4.393-.195-.495-.36-1.167-.673-1.583m4.076 20.866c-.338-1.339-.465-2.468-1.172-3.749-.857-1.552-.141-1.614.134-1.832.547-.428 1.365-.478 2.026-.519.982-.062 1.973-.033 2.955 0 1.538.049 2.583.41 4.18.453 2.128.058 2.357 1.429 2.574 3.927.159 1.842.568 3.665.705 5.507.124 1.645.269 3.379-.022 5.015-.214 1.206.022 2.148-1.301 2.16-1.579.014-4.061-.704-5.503-1.273-1.213-.478-2.017-.923-3.351-1.225-1.543-.351-.99-1.941-.892-5.508.02-.715.044-1.45-.131-2.151-.068-.276-.177-.526-.202-.805-.076-.88.022-.442-.125-.679m-2.018 26.047c0-1.35.229-2.643.17-3.998-.056-1.402-.279-2.858-.282-4.264-.003-1.637.835-1.628 1.993-1.151 1.617.668 3.114 1.534 4.783 2.099 1.877.635 3.167 1.265 5.141 1.566 1.71.263 2.134.721 1.578 4.092-.409 2.485-.821 5.664-1.159 8.169-.202 1.484-1.477 6.684-2.284 6.741-1.7.117-3.756-1.083-5.485-1.772-1.992-.793-3.193-1.405-4.855-1.941-2.743-.887-1.137-1.82-.18-6.501.226-1.102.417-2.14.523-3.265m-9.828 28.466c.747-.631.848-2.233 1.102-3.13.434-1.544.385-3.164.715-4.724.174-.826.633-3.623 1.383-4.166.664-.477 2.364 1.232 3.051 1.467 1.366.464 1.567.619 2.947 1.044 1.682.516 3.455 1.437 5.165 1.846 1.368.324 3.558.666 4.774 1.41 3.128 1.911 1.023 3.829.301 6.477-1.697 6.23-4.364 12.232-8.154 17.475-1.281 1.77-2.377 5.189-4.887 4.497-1.286-.355-3.127-2.162-4.174-2.953-1.356-1.025-2.672-2.108-3.978-3.199-3.351-2.801-5.846-2.988-4.473-5.099.62-.955 1.302-2.58 1.866-3.543.843-1.442 1.729-2.86 2.584-4.296.769-1.298 1.492-2.25 2.029-3.666.027-.073.556-1.246.578-1.317" fill="#A44D2D"/><path fill="#FFDA64" d="M57.7 202.255c0-4.875 19.641-8.833 43.833-8.833 24.193 0 43.834 3.958 43.834 8.833s-87.667 4.875-87.667 0z"/><g opacity=".4"><linearGradient id="b" x1=".517" x2=".517" y2="1"><stop offset="0%" stop-color="#fff"/><stop offset="12.5%" stop-opacity=".098" stop-color="#fff"/><stop offset="92.5%" stop-opacity=".098"/><stop offset="100%" stop-opacity=".498"/></linearGradient><path fill="none" stroke="url(#b)" stroke-linecap="round" stroke-linejoin="round" stroke-width="4.077" d="M165.685 11.947c74.055 0 84.639 10.557 84.639 84.544v59.251c0 73.986-10.584 84.543-84.639 84.543h-75.37c-74.055 0-84.639-10.557-84.639-84.543V96.491c0-73.987 10.584-84.544 84.639-84.544h75.37z" vector-effect="non-scaling-stroke"/></g></svg>