<svg xmlns="http://www.w3.org/2000/svg" style="isolation:isolate" width="256" height="256"><defs><clipPath id="a"><path d="M0 0h256v256H0z"/></clipPath></defs><switch><g clip-path="url(#a)"><defs><filter id="b" width="270.648" height="254.338" x="-7.32" y="2.95" filterUnits="userSpaceOnUse"><feGaussianBlur xmlns="http://www.w3.org/2000/svg" in="SourceGraphic" stdDeviation="4.294"/><feOffset xmlns="http://www.w3.org/2000/svg" dy="4" result="pf_100_offsetBlur"/><feFlood xmlns="http://www.w3.org/2000/svg" flood-opacity=".4"/><feComposite xmlns="http://www.w3.org/2000/svg" in2="pf_100_offsetBlur" operator="in" result="pf_100_dropShadow"/><feBlend xmlns="http://www.w3.org/2000/svg" in="SourceGraphic" in2="pf_100_dropShadow"/></filter></defs><path fill="#2B898F" d="M165.685 11.947c74.055 0 84.639 10.557 84.639 84.544v59.251c0 73.986-10.584 84.543-84.639 84.543h-75.37c-74.055 0-84.639-10.557-84.639-84.543V96.491c0-73.987 10.584-84.544 84.639-84.544h75.37z" filter="url(#b)"/><path fill="#FFF" d="M5.676 126.116v29.626c0 73.986 10.584 84.543 84.639 84.543h75.37c74.055 0 84.639-10.557 84.639-84.543v-29.626H5.676z" opacity=".1"/><path fill="#FFF" d="M128 11.947v228.338h37.685c74.055 0 84.639-10.557 84.639-84.543V96.491c0-73.987-10.584-84.544-84.639-84.544H128z" opacity=".2"/><g opacity=".4"><linearGradient id="c" x1=".517" x2=".517" y2="1"><stop offset="0%" stop-color="#fff"/><stop offset="12.5%" stop-opacity=".098" stop-color="#fff"/><stop offset="92.5%" stop-opacity=".098"/><stop offset="100%" stop-opacity=".498"/></linearGradient><path fill="none" stroke="url(#c)" stroke-linecap="round" stroke-linejoin="round" stroke-width="4.077" d="M165.685 11.947c74.055 0 84.639 10.557 84.639 84.544v59.251c0 73.986-10.584 84.543-84.639 84.543h-75.37c-74.055 0-84.639-10.557-84.639-84.543V96.491c0-73.987 10.584-84.544 84.639-84.544h75.37z" vector-effect="non-scaling-stroke"/></g><defs><filter id="d" width="95.731" height="113.916" x="53.54" y="71.53" filterUnits="userSpaceOnUse"><feGaussianBlur xmlns="http://www.w3.org/2000/svg" stdDeviation=".859"/></filter></defs><path fill="#3A797D" fill-rule="evenodd" d="M100.524 73.535c-19.973.002-45.203 19.081-44.983 48.541.212 28.514 9.688 43.916 16.9 61.375l21.348-8.895c-4.902-10.041-11.203-20.063-13.47-25.033-6.344-13.917-8.662-20.144-8.132-30.751.512-10.255 3.93-16.573 10.166-22.619 6.235-6.045 14.86-9.049 25.16-7.624 21.813 3.022 28.832 19.532 29.353 27.574.428 6.616-4.335 22.907-21.094 22.111-11.618-.553-18.148-6.993-18.933-17.917-.579-8.051 7.212-16.178 19.823-12.072 2.03.661 2.167-2.98-.127-4.829-5.907-4.759-29.306-2.94-29.226 15.757.073 17.327 13.933 28.895 27.32 28.972 28.037.165 33.542-21.967 32.53-37.231-1.122-16.915-22.454-37.362-46.635-37.359z" opacity=".8" filter="url(#d)"/><path fill="#EEEEEC" fill-rule="evenodd" d="M72.488 179.375c-7.212-17.459-16.774-32.846-16.987-61.359-.219-29.46 25.052-48.533 45.024-48.535 24.182-.003 45.458 20.418 46.579 37.332 1.013 15.265-4.419 37.464-32.456 37.299-13.387-.077-27.297-11.723-27.371-29.05-.079-18.697 23.343-20.521 29.25-15.761 2.294 1.849 2.224 5.508.194 4.847-12.611-4.106-20.402 3.987-19.823 12.038.785 10.924 7.266 17.424 18.884 17.976 16.759.796 21.45-15.502 21.022-22.117-.521-8.043-7.533-24.585-29.347-27.607-10.299-1.425-18.836 1.66-25.071 7.705-6.235 6.046-9.74 12.297-10.253 22.552-.529 10.608 1.787 16.831 8.131 30.748 2.266 4.97 8.596 14.998 13.497 25.039l-21.273 8.893z"/><defs><filter id="e" width="95.717" height="113.894" x="106.78" y="72.69" filterUnits="userSpaceOnUse"><feGaussianBlur xmlns="http://www.w3.org/2000/svg" stdDeviation=".859"/></filter></defs><path fill="#2F6D70" fill-rule="evenodd" d="M183.512 74.687c7.212 17.46 16.774 32.846 16.987 61.361.219 29.459-25.052 48.532-45.024 48.533-24.182.004-45.457-20.417-46.579-37.33-1.013-15.266 4.419-37.466 32.456-37.3 13.387.078 27.297 11.724 27.371 29.05.079 18.696-23.343 20.521-29.25 15.761-2.294-1.849-2.224-5.507-.194-4.848 12.611 4.107 20.402-3.987 19.823-12.037-.785-10.924-7.266-17.423-18.884-17.975-16.759-.796-21.45 15.503-21.022 22.117.521 8.042 7.533 24.585 29.347 27.605 10.299 1.426 18.836-1.659 25.071-7.704 6.235-6.046 9.74-12.298 10.252-22.551.53-10.608-1.786-16.832-8.13-30.748-2.266-4.972-8.596-14.998-13.497-25.04l21.273-8.894z" opacity=".8" filter="url(#e)"/><path fill="#96D1D5" fill-rule="evenodd" d="M182.88 69.481c7.213 17.46 16.774 32.846 16.987 61.361.22 29.459-25.051 48.532-45.024 48.533-24.181.004-45.457-20.417-46.579-37.33-1.012-15.266 4.419-37.466 32.456-37.3 13.387.077 27.298 11.723 27.371 29.049.079 18.697-23.343 20.522-29.249 15.762-2.295-1.849-2.225-5.508-.195-4.848 12.611 4.107 20.402-3.987 19.824-12.037-.786-10.925-7.267-17.423-18.884-17.976-16.759-.796-21.451 15.504-21.022 22.117.52 8.043 7.533 24.586 29.346 27.606 10.3 1.426 18.836-1.659 25.071-7.704 6.235-6.047 9.741-12.298 10.253-22.552.53-10.607-1.786-16.831-8.13-30.747-2.266-4.972-8.596-14.998-13.498-25.04l21.273-8.894z"/><path fill="#EEEEEC" fill-rule="evenodd" d="M100.491 69.419c-19.973.002-45.203 19.081-44.983 48.541.213 28.514 9.815 43.916 17.027 61.375l21.221-8.895c-1.894-3.881-3.968-7.596-5.972-11.182h-4.702v-8.514c-1.155-2.081-2.159-3.942-2.795-5.337-6.344-13.917-8.662-20.144-8.133-30.751.512-10.255 4.058-16.446 10.293-22.492 6.235-6.045 14.733-9.176 25.033-7.751 10.315 1.429 17.282 5.908 21.856 11.055h4.321v6.354c1.966 3.797 3.001 7.456 3.176 10.165.191 2.939-.736 7.786-3.176 12.199v15.122c11.589-7.337 14.189-21.683 13.469-32.53-1.122-16.915-22.454-37.362-46.635-37.359z"/></g></switch> </svg>