<svg xmlns="http://www.w3.org/2000/svg" style="isolation:isolate" width="256" height="256"><switch><g><defs><filter id="a" width="270.648" height="254.338" x="-6.66" y="4.28" filterUnits="userSpaceOnUse"><feGaussianBlur xmlns="http://www.w3.org/2000/svg" in="SourceGraphic" stdDeviation="4.294"/><feOffset xmlns="http://www.w3.org/2000/svg" dy="4" result="pf_100_offsetBlur"/><feFlood xmlns="http://www.w3.org/2000/svg" flood-opacity=".4"/><feComposite xmlns="http://www.w3.org/2000/svg" in2="pf_100_offsetBlur" operator="in" result="pf_100_dropShadow"/><feBlend xmlns="http://www.w3.org/2000/svg" in="SourceGraphic" in2="pf_100_dropShadow"/></filter></defs><path fill="#28851E" d="M166.351 13.28c74.056 0 84.64 10.557 84.64 84.544v59.251c0 73.986-10.584 84.544-84.64 84.544H90.982c-74.056 0-84.639-10.558-84.639-84.544V97.824c0-73.987 10.583-84.544 84.639-84.544h75.369z" filter="url(#a)"/><g opacity=".4"><linearGradient id="b" x1=".517" x2=".517" y2="1"><stop offset="0%" stop-color="#fff"/><stop offset="12.5%" stop-opacity=".098" stop-color="#fff"/><stop offset="92.5%" stop-opacity=".098"/><stop offset="100%" stop-opacity=".498"/></linearGradient><path fill="none" stroke="url(#b)" stroke-linecap="round" stroke-linejoin="round" stroke-width="4.077" d="M165.685 11.947c74.055 0 84.639 10.557 84.639 84.544v59.251c0 73.986-10.584 84.543-84.639 84.543h-75.37c-74.055 0-84.639-10.557-84.639-84.543V96.491c0-73.987 10.584-84.544 84.639-84.544h75.37z" vector-effect="non-scaling-stroke"/></g><g fill="#FFF"><path d="M133.78 55c-25.254 4.496-50.52 10.463-75.773 14.878 0 38.415-.016 76.845 0 115.276 25.121 4.398 50.255 10.267 75.327 14.846h7.526V55h-7.08zm-16.856 45.199c-4.398 9.009-8.813 18.02-13.293 26.997 4.529 9.224 9.159 18.381 13.706 27.605-3.971-.23-7.924-.479-11.893-.758-2.8-6.87-6.21-13.506-8.221-20.687-2.24 6.688-5.435 12.995-8.005 19.551-3.607-.049-7.215-.198-10.822-.347 4.232-8.284 8.318-16.637 12.683-24.874-3.706-8.482-7.775-16.799-11.597-25.232 3.624-.214 7.25-.427 10.874-.624 2.455 6.439 5.137 12.796 7.163 19.401 2.174-7 5.42-13.588 8.203-20.358a506.57 506.57 0 0 1 11.202-.674zM146.039 75.714v10.357h15.535v10.358h-15.535v5.178h15.535v10.374h-15.535v5.162h15.535V127.5h-15.535v5.179h15.535v10.357h-15.535v5.178h15.535v10.357h-15.535v5.179h15.535v10.357h-15.535v10.357h51.785V75.714h-51.785zm20.714 10.357h20.714v10.358h-20.714V86.071zm0 15.536h20.714v10.374h-20.714v-10.374zm0 15.536h20.714V127.5h-20.714v-10.357zm0 15.536h20.714v10.357h-20.714v-10.357zm0 15.535h20.714v10.357h-20.714v-10.357zm0 15.536h20.714v10.357h-20.714V163.75z"/></g></g></switch> </svg>