<?xml version="1.0" standalone="no"?><!-- Generator: Gravit.io --><svg xmlns="http://www.w3.org/2000/svg" xmlns:xlink="http://www.w3.org/1999/xlink" style="isolation:isolate" viewBox="0 0 256 256" width="256" height="256"><defs><clipPath id="_clipPath_z0nVKkM2YVHhCedCvixKskqbVjmra4ZC"><rect width="256" height="256"/></clipPath></defs><g clip-path="url(#_clipPath_z0nVKkM2YVHhCedCvixKskqbVjmra4ZC)"><g id="ms"><defs><filter id="x3pM1gpwHfV5NVYdKxDkxWVZboosmI2w" x="-200%" y="-200%" width="400%" height="400%"><feGaussianBlur xmlns="http://www.w3.org/2000/svg" stdDeviation="1.16"/></filter></defs><g opacity="0.1" filter="url(#x3pM1gpwHfV5NVYdKxDkxWVZboosmI2w)"><path d=" M 165.685 11.275 C 239.74 11.275 250.324 21.832 250.324 95.819 L 250.324 155.07 C 250.324 229.056 239.74 239.614 165.685 239.614 L 90.315 239.614 C 16.26 239.614 5.676 229.056 5.676 155.07 L 5.676 95.819 C 5.676 21.832 16.26 11.275 90.315 11.275 L 165.685 11.275 Z " fill="rgb(0,0,0)"/></g><defs><filter id="zkQXqK5P2YjMpCI3ron1wDmrKhRQwoA5" x="-200%" y="-200%" width="400%" height="400%"><feGaussianBlur xmlns="http://www.w3.org/2000/svg" stdDeviation="2.32"/></filter></defs><g opacity="0.2" filter="url(#zkQXqK5P2YjMpCI3ron1wDmrKhRQwoA5)"><path d=" M 165.685 13.314 C 239.74 13.314 250.324 23.871 250.324 97.858 L 250.324 157.109 C 250.324 231.095 239.74 241.652 165.685 241.652 L 90.315 241.652 C 16.26 241.652 5.676 231.095 5.676 157.109 L 5.676 97.858 C 5.676 23.871 16.26 13.314 90.315 13.314 L 165.685 13.314 Z " fill="rgb(0,0,0)"/></g><path d=" M 165.685 11.275 C 239.74 11.275 250.324 21.832 250.324 95.819 L 250.324 155.07 C 250.324 229.056 239.74 239.614 165.685 239.614 L 90.315 239.614 C 16.26 239.614 5.676 229.056 5.676 155.07 L 5.676 95.819 C 5.676 21.832 16.26 11.275 90.315 11.275 L 165.685 11.275 Z " fill="rgb(98,35,124)"/><g opacity="0.1"><path d=" M 128 11 L 128 239.338 L 165.685 239.338 C 239.74 239.338 250.324 228.781 250.324 154.795 L 250.324 95.544 C 250.324 21.557 239.74 11 165.685 11 L 128 11 Z " fill="rgb(255,255,255)"/></g><g opacity="0.1"><path d=" M 90.315 239.338 C 16.26 239.338 5.676 229.348 5.676 159.337 L 5.676 131.303 L 250.324 131.303 L 250.324 159.337 C 250.324 229.348 239.74 239.338 165.685 239.338 L 90.315 239.338 Z " fill="rgb(255,255,255)"/></g><g opacity="0.6"><linearGradient id="_lgradient_17" x1="51.666666666666686%" y1="0%" x2="51.66666666666666%" y2="100.00000000000003%"><stop offset="0%" stop-opacity="1" style="stop-color:rgb(255,255,255)"/><stop offset="12.5%" stop-opacity="0.09803922" style="stop-color:rgb(255,255,255)"/><stop offset="92.500001%" stop-opacity="0.09803922" style="stop-color:rgb(0,0,0)"/><stop offset="100%" stop-opacity="0.49803922" style="stop-color:rgb(0,0,0)"/></linearGradient><path d=" M 165.685 11.275 C 239.74 11.275 250.324 21.832 250.324 95.819 L 250.324 155.07 C 250.324 229.056 239.74 239.614 165.685 239.614 L 90.315 239.614 C 16.26 239.614 5.676 229.056 5.676 155.07 L 5.676 95.819 C 5.676 21.832 16.26 11.275 90.315 11.275 L 165.685 11.275 Z " fill="none" vector-effect="non-scaling-stroke" stroke-width="4.077" stroke="url(#_lgradient_17)" stroke-linejoin="round" stroke-linecap="round" stroke-miterlimit="4"/></g><g id="onenote"><path d=" M 129.865 71.503 C 110.359 74.977 90.843 79.585 71.337 82.995 C 71.337 112.667 71.325 142.352 71.337 172.036 C 90.741 175.433 110.155 179.966 129.521 183.503 L 135.334 183.503 L 135.334 71.503 L 129.865 71.503 Z  M 116.6 107.388 L 116.6 107.388 Q 118.28 107.388 119.27 108.438 L 119.27 108.438 L 119.27 108.438 Q 120.26 109.488 120.26 111.228 L 120.26 111.228 L 120.26 146.448 L 120.26 146.448 Q 120.26 148.188 119.24 149.268 L 119.24 149.268 L 119.24 149.268 Q 118.22 150.348 116.6 150.348 L 116.6 150.348 L 116.6 150.348 Q 114.68 150.348 113.66 148.968 L 113.66 148.968 L 91.76 120.468 L 91.76 146.448 L 91.76 146.448 Q 91.76 148.188 90.8 149.268 L 90.8 149.268 L 90.8 149.268 Q 89.84 150.348 88.16 150.348 L 88.16 150.348 L 88.16 150.348 Q 86.48 150.348 85.52 149.268 L 85.52 149.268 L 85.52 149.268 Q 84.56 148.188 84.56 146.448 L 84.56 146.448 L 84.56 111.228 L 84.56 111.228 Q 84.56 109.488 85.58 108.438 L 85.58 108.438 L 85.58 108.438 Q 86.6 107.388 88.28 107.388 L 88.28 107.388 L 88.28 107.388 Q 90.14 107.388 91.16 108.768 L 91.16 108.768 L 113 137.148 L 113 111.228 L 113 111.228 Q 113 109.488 113.99 108.438 L 113.99 108.438 L 113.99 108.438 Q 114.98 107.388 116.6 107.388 L 116.6 107.388 Z " fill-rule="evenodd" fill="rgb(255,255,255)"/><path d=" M 139.334 87.503 L 139.334 95.503 L 171.334 95.503 L 171.334 119.517 L 139.334 119.517 L 139.334 123.503 L 171.334 123.503 L 171.334 142.503 L 139.334 142.503 L 139.334 146.503 L 171.334 146.503 L 171.334 163.503 L 139.334 163.503 L 139.334 171.503 L 179.334 171.503 L 179.334 87.503 L 139.334 87.503 Z " fill="rgb(255,255,255)"/><path d=" M 160 123.503 L 164 123.503 L 164 166 L 160 166 L 160 123.503 Z " fill="rgb(255,255,255)"/></g></g></g></svg>