<?xml version="1.0" standalone="no"?><!-- Generator: Gravit.io --><svg xmlns="http://www.w3.org/2000/svg" xmlns:xlink="http://www.w3.org/1999/xlink" style="isolation:isolate" viewBox="0 0 256 256" width="256" height="256"><defs><clipPath id="_clipPath_8BGYyALOmboK1vu6BKevkwVEdcxU1S81"><rect width="256" height="256"/></clipPath></defs><g clip-path="url(#_clipPath_8BGYyALOmboK1vu6BKevkwVEdcxU1S81)"><g id="ms"><defs><filter id="zpRqrWWmyMigZgwMD16OC6v34jE2ur5t" x="-200%" y="-200%" width="400%" height="400%"><feGaussianBlur xmlns="http://www.w3.org/2000/svg" stdDeviation="1.16"/></filter></defs><g opacity="0.1" filter="url(#zpRqrWWmyMigZgwMD16OC6v34jE2ur5t)"><path d=" M 165.685 11.275 C 239.74 11.275 250.324 21.832 250.324 95.819 L 250.324 155.07 C 250.324 229.056 239.74 239.614 165.685 239.614 L 90.315 239.614 C 16.26 239.614 5.676 229.056 5.676 155.07 L 5.676 95.819 C 5.676 21.832 16.26 11.275 90.315 11.275 L 165.685 11.275 Z " fill="rgb(0,0,0)"/></g><defs><filter id="JNzTXF0CdnT6tvEVtcRSB6FAG14ILDEU" x="-200%" y="-200%" width="400%" height="400%"><feGaussianBlur xmlns="http://www.w3.org/2000/svg" stdDeviation="2.32"/></filter></defs><g opacity="0.2" filter="url(#JNzTXF0CdnT6tvEVtcRSB6FAG14ILDEU)"><path d=" M 165.685 13.314 C 239.74 13.314 250.324 23.871 250.324 97.858 L 250.324 157.109 C 250.324 231.095 239.74 241.652 165.685 241.652 L 90.315 241.652 C 16.26 241.652 5.676 231.095 5.676 157.109 L 5.676 97.858 C 5.676 23.871 16.26 13.314 90.315 13.314 L 165.685 13.314 Z " fill="rgb(0,0,0)"/></g><path d=" M 165.685 11.275 C 239.74 11.275 250.324 21.832 250.324 95.819 L 250.324 155.07 C 250.324 229.056 239.74 239.614 165.685 239.614 L 90.315 239.614 C 16.26 239.614 5.676 229.056 5.676 155.07 L 5.676 95.819 C 5.676 21.832 16.26 11.275 90.315 11.275 L 165.685 11.275 Z " fill="rgb(188,25,56)"/><g opacity="0.1"><path d=" M 128 11 L 128 239.338 L 165.685 239.338 C 239.74 239.338 250.324 228.781 250.324 154.795 L 250.324 95.544 C 250.324 21.557 239.74 11 165.685 11 L 128 11 Z " fill="rgb(255,255,255)"/></g><g opacity="0.1"><path d=" M 90.315 239.338 C 16.26 239.338 5.676 229.348 5.676 159.337 L 5.676 131.303 L 250.324 131.303 L 250.324 159.337 C 250.324 229.348 239.74 239.338 165.685 239.338 L 90.315 239.338 Z " fill="rgb(255,255,255)"/></g><g opacity="0.6"><linearGradient id="_lgradient_18" x1="51.666666666666686%" y1="0%" x2="51.66666666666666%" y2="100.00000000000003%"><stop offset="0%" stop-opacity="1" style="stop-color:rgb(255,255,255)"/><stop offset="12.5%" stop-opacity="0.09803922" style="stop-color:rgb(255,255,255)"/><stop offset="92.500001%" stop-opacity="0.09803922" style="stop-color:rgb(0,0,0)"/><stop offset="100%" stop-opacity="0.49803922" style="stop-color:rgb(0,0,0)"/></linearGradient><path d=" M 165.685 11.275 C 239.74 11.275 250.324 21.832 250.324 95.819 L 250.324 155.07 C 250.324 229.056 239.74 239.614 165.685 239.614 L 90.315 239.614 C 16.26 239.614 5.676 229.056 5.676 155.07 L 5.676 95.819 C 5.676 21.832 16.26 11.275 90.315 11.275 L 165.685 11.275 Z " fill="none" vector-effect="non-scaling-stroke" stroke-width="4.077" stroke="url(#_lgradient_18)" stroke-linejoin="round" stroke-linecap="round" stroke-miterlimit="4"/></g><path d=" M 68.913 86.291 L 145.379 58.485 L 187.088 68.913 L 187.088 187.088 L 145.379 197.515 L 68.913 169.709 L 145.379 180.136 L 145.379 79.34 L 96.718 89.767 L 96.718 159.282 L 68.913 169.709 L 68.913 86.291 Z " fill="rgb(249,249,249)"/></g></g></svg>