<svg xmlns="http://www.w3.org/2000/svg" style="isolation:isolate" width="256" height="256"><switch><g><defs><filter id="a" width="270.648" height="254.338" x="-6.66" y="4.28" filterUnits="userSpaceOnUse"><feGaussianBlur xmlns="http://www.w3.org/2000/svg" in="SourceGraphic" stdDeviation="4.294"/><feOffset xmlns="http://www.w3.org/2000/svg" dy="4" result="pf_100_offsetBlur"/><feFlood xmlns="http://www.w3.org/2000/svg" flood-opacity=".4"/><feComposite xmlns="http://www.w3.org/2000/svg" in2="pf_100_offsetBlur" operator="in" result="pf_100_dropShadow"/><feBlend xmlns="http://www.w3.org/2000/svg" in="SourceGraphic" in2="pf_100_dropShadow"/></filter></defs><path fill="#7839B7" d="M166.351 13.28c74.056 0 84.64 10.557 84.64 84.544v59.251c0 73.986-10.584 84.544-84.64 84.544H90.982c-74.056 0-84.639-10.558-84.639-84.544V97.824c0-73.987 10.583-84.544 84.639-84.544h75.369z" filter="url(#a)"/><g opacity=".4"><linearGradient id="b" x1=".517" x2=".517" y2="1"><stop offset="0%" stop-color="#fff"/><stop offset="12.5%" stop-opacity=".098" stop-color="#fff"/><stop offset="92.5%" stop-opacity=".098"/><stop offset="100%" stop-opacity=".498"/></linearGradient><path fill="none" stroke="url(#b)" stroke-linecap="round" stroke-linejoin="round" stroke-width="4.077" d="M165.685 11.947c74.055 0 84.639 10.557 84.639 84.544v59.251c0 73.986-10.584 84.543-84.639 84.543h-75.37c-74.055 0-84.639-10.557-84.639-84.543V96.491c0-73.987 10.584-84.544 84.639-84.544h75.37z" vector-effect="non-scaling-stroke"/></g><g fill="#FFF"><path fill-rule="evenodd" d="M133.78 55c-25.254 4.498-50.52 10.463-75.773 14.878 0 38.415-.016 76.846 0 115.276 25.121 4.398 50.255 10.267 75.327 14.846h7.526V55h-7.08zm-17.174 46.458q2.175 0 3.457 1.36 1.282 1.359 1.282 3.612v45.597q0 2.253-1.321 3.651-1.32 1.398-3.418 1.398-2.485 0-3.806-1.786l-28.353-36.898v33.635q0 2.253-1.242 3.651-1.243 1.398-3.418 1.398t-3.418-1.398q-1.243-1.398-1.243-3.651V106.43q0-2.253 1.321-3.612 1.32-1.36 3.495-1.36 2.408 0 3.729 1.787l28.275 36.742V106.43q0-2.253 1.281-3.612 1.282-1.36 3.379-1.36z"/><path d="M146.039 75.714v10.357h41.428v31.09h-41.428v5.16h41.428v24.599h-41.428v5.178h41.428v22.009h-41.428v10.357h51.785V75.714h-51.785z"/><path d="M172.794 122.321h5.178v55.019h-5.178v-55.019z"/></g></g></switch> </svg>