<svg xmlns="http://www.w3.org/2000/svg" style="isolation:isolate" width="256" height="256"><switch><g><defs><filter id="a" width="270.648" height="254.338" x="-6.66" y="4.28" filterUnits="userSpaceOnUse"><feGaussianBlur xmlns="http://www.w3.org/2000/svg" in="SourceGraphic" stdDeviation="4.294"/><feOffset xmlns="http://www.w3.org/2000/svg" dy="4" result="pf_100_offsetBlur"/><feFlood xmlns="http://www.w3.org/2000/svg" flood-opacity=".4"/><feComposite xmlns="http://www.w3.org/2000/svg" in2="pf_100_offsetBlur" operator="in" result="pf_100_dropShadow"/><feBlend xmlns="http://www.w3.org/2000/svg" in="SourceGraphic" in2="pf_100_dropShadow"/></filter></defs><path fill="#F22C42" d="M166.351 13.28c74.056 0 84.64 10.557 84.64 84.544v59.251c0 73.986-10.584 84.544-84.64 84.544H90.982c-74.056 0-84.639-10.558-84.639-84.544V97.824c0-73.987 10.583-84.544 84.639-84.544h75.369z" filter="url(#a)"/><g opacity=".4"><linearGradient id="b" x1=".517" x2=".517" y2="1"><stop offset="0%" stop-color="#fff"/><stop offset="12.5%" stop-opacity=".098" stop-color="#fff"/><stop offset="92.5%" stop-opacity=".098"/><stop offset="100%" stop-opacity=".498"/></linearGradient><path fill="none" stroke="url(#b)" stroke-linecap="round" stroke-linejoin="round" stroke-width="4.077" d="M165.685 11.947c74.055 0 84.639 10.557 84.639 84.544v59.251c0 73.986-10.584 84.543-84.639 84.543h-75.37c-74.055 0-84.639-10.557-84.639-84.543V96.491c0-73.987 10.584-84.544 84.639-84.544h75.37z" vector-effect="non-scaling-stroke"/></g><g fill="#FFF"><path d="M133.78 55c-25.254 4.496-50.52 10.463-75.773 14.878 0 38.415-.016 76.845 0 115.276 25.121 4.398 50.255 10.267 75.327 14.846h7.526V55h-7.08zm-37.998 45.658c4.983-.105 9.763.613 13.647 4.125 7.44 9.027 5.472 25.633-5.558 31.035-3.918 2.003-8.407 1.73-12.671 1.591-.017 6.749-.035 13.497-.017 20.247a1964.34 1964.34 0 0 0-10.269-.862c-.155-18.436-.191-36.037.016-54.472 4.86-.606 9.87-1.558 14.852-1.664zm-.574 10.004c-1.359-.035-2.751.088-4.026.146-.052 5.8-.084 11.582.278 17.364 3.436-.414 7.89-.067 9.858-3.622 1.639-3.488 1.742-7.943-.225-11.326-1.436-1.996-3.619-2.501-5.885-2.562zM146.041 75.714v17.213c2.426-.522 5.064-1.502 7.766-1.664v23.291h23.148c-.822 7.066-3.972 14.327-10.202 18.021-6.111 4.108-13.876 4.161-20.712 2.038.017 3.383-.018 10.217 0 13.601h41.426v5.179h-41.426v10.357h41.426v5.179h-41.426v15.535h51.783V75.714h-51.783zm12.944 12.411c11.01 1.139 20.114 10.266 21.313 21.25h-21.313v-21.25z"/></g></g></switch> </svg>