<svg xmlns="http://www.w3.org/2000/svg" style="isolation:isolate" width="256" height="256"><defs><filter id="a" width="270.648" height="254.338" x="-7.32" y="2.95" filterUnits="userSpaceOnUse"><feGaussianBlur xmlns="http://www.w3.org/2000/svg" in="SourceGraphic" stdDeviation="4.294"/><feOffset xmlns="http://www.w3.org/2000/svg" dy="4" result="pf_100_offsetBlur"/><feFlood xmlns="http://www.w3.org/2000/svg" flood-opacity=".4"/><feComposite xmlns="http://www.w3.org/2000/svg" in2="pf_100_offsetBlur" operator="in" result="pf_100_dropShadow"/><feBlend xmlns="http://www.w3.org/2000/svg" in="SourceGraphic" in2="pf_100_dropShadow"/></filter></defs><g filter="url(#a)"><linearGradient id="b" x1=".233" x2=".933" y1="-.071" y2=".995" gradientTransform="matrix(244.648 0 0 228.338 5.676 11.947)" gradientUnits="userSpaceOnUse"><stop offset="0%" stop-color="#e8e8e8"/><stop offset="100%" stop-color="#f5f5f5"/></linearGradient><path fill="url(#b)" d="M165.685 11.947c74.055 0 84.639 10.557 84.639 84.544v59.251c0 73.986-10.584 84.543-84.639 84.543h-75.37c-74.055 0-84.639-10.557-84.639-84.543V96.491c0-73.987 10.584-84.544 84.639-84.544h75.37z"/></g><g opacity=".4"><linearGradient id="c" x1=".517" x2=".517" y2="1"><stop offset="0%" stop-color="#fff"/><stop offset="12.5%" stop-opacity=".098" stop-color="#fff"/><stop offset="92.5%" stop-opacity=".098"/><stop offset="100%" stop-opacity=".498"/></linearGradient><path fill="none" stroke="url(#c)" stroke-linecap="round" stroke-linejoin="round" stroke-width="4.077" d="M165.685 11.947c74.055 0 84.639 10.557 84.639 84.544v59.251c0 73.986-10.584 84.543-84.639 84.543h-75.37c-74.055 0-84.639-10.557-84.639-84.543V96.491c0-73.987 10.584-84.544 84.639-84.544h75.37z" vector-effect="non-scaling-stroke"/></g><g filter="url(#d)"><linearGradient id="e" x1=".567" x2=".567" y1="1.071" y2="-.071" gradientTransform="matrix(40.248 0 0 -40.618 176.172 187.06)" gradientUnits="userSpaceOnUse"><stop offset="0%" stop-color="#a0a0a0"/><stop offset="100%" stop-color="#dfdfdf"/></linearGradient><path fill="url(#e)" d="M177.687 187.06h37.218c.839 0 1.515-.682 1.515-1.529v-37.56c0-.847-.676-1.529-1.515-1.529h-37.218c-.839 0-1.515.682-1.515 1.529v37.56c0 .847.676 1.529 1.515 1.529z"/><g opacity=".882"><linearGradient id="f" x1=".5" x2=".5" y1="-.036" y2="1.036" gradientTransform="matrix(8.264 0 0 -8.34 184.114 179.045)" gradientUnits="userSpaceOnUse"><stop offset="0%"/><stop offset="100%" stop-color="#333"/></linearGradient><path fill="url(#f)" d="M184.114 179.045h8.264v-8.34h-8.264v8.34z"/></g><g opacity=".882"><linearGradient id="g" x1=".5" x2=".5" y1="-.036" y2="1.036" gradientTransform="matrix(8.264 0 0 -8.34 200.213 179.045)" gradientUnits="userSpaceOnUse"><stop offset="0%"/><stop offset="100%" stop-color="#333"/></linearGradient><path fill="url(#g)" d="M200.213 179.045h8.265v-8.34h-8.265v8.34z"/></g><path fill="#FDA463" d="M172.483 70.622h47.626c2.416 0 4.36 1.958 4.36 4.389v83.29c0 2.431-1.944 4.389-4.36 4.389h-47.626c-2.416 0-4.361-1.958-4.361-4.389v-83.29c0-2.431 1.945-4.389 4.361-4.389z"/></g><defs><filter id="d" width="116.347" height="176.438" x="138.12" y="44.62" filterUnits="userSpaceOnUse"><feGaussianBlur xmlns="http://www.w3.org/2000/svg" in="SourceGraphic" stdDeviation="4.294"/><feOffset xmlns="http://www.w3.org/2000/svg" dy="4" result="pf_100_offsetBlur"/><feFlood xmlns="http://www.w3.org/2000/svg" flood-opacity=".4"/><feComposite xmlns="http://www.w3.org/2000/svg" in2="pf_100_offsetBlur" operator="in" result="pf_100_dropShadow"/><feBlend xmlns="http://www.w3.org/2000/svg" in="SourceGraphic" in2="pf_100_dropShadow"/></filter></defs><g filter="url(#h)"><path fill="#9B33AE" fill-rule="evenodd" d="M77.093 137.771c4.375 12.199-1.969 25.635-14.168 30.01-12.2 4.375-25.636-1.968-30.011-14.168-4.374-12.199 1.969-25.635 14.168-30.01 12.2-4.375 25.636 1.968 30.011 14.168z"/><path fill="#37A6E6" fill-rule="evenodd" d="M113.54 124.701c4.375 12.199-1.968 25.635-14.168 30.01a23.467 23.467 0 0 1-30.01-14.168c-4.375-12.2 1.968-25.636 14.168-30.01a23.465 23.465 0 0 1 30.01 14.168z"/><path fill="#F76363" fill-rule="evenodd" d="M149.987 111.63a23.467 23.467 0 1 1-44.178 15.844 23.467 23.467 0 0 1 44.178-15.844z"/><path fill="#A6D74F" fill-rule="evenodd" d="M186.434 98.561a23.465 23.465 0 0 1-14.168 30.01c-12.199 4.375-25.635-1.968-30.01-14.168a23.465 23.465 0 0 1 14.168-30.01 23.467 23.467 0 0 1 30.01 14.168z"/><path fill="#FFF" fill-rule="evenodd" d="M222.882 85.491c4.374 12.2-1.969 25.636-14.168 30.01-12.2 4.375-25.636-1.968-30.011-14.168a23.47 23.47 0 0 1 14.168-30.01 23.467 23.467 0 0 1 30.011 14.168z"/><path fill="#FAF8F6" d="M35.663 135.488l6.124-2.196 15.162 17.89.38-23.463 6.123-2.196 10.892 30.373-4.008 1.437-9.564-26.67-.362 23.64-4.129 1.481-15.303-18.023 9.564 26.67-3.987 1.43-10.892-30.373z"/><path fill="#FFF" d="M74.257 121.343l4.13-1.481 6.616 18.451q1.751 4.883 4.294 6.404 2.536 1.502 6.503.079 3.947-1.415 4.951-4.186.996-2.791-.755-7.673l-6.616-18.452 4.129-1.481 6.799 18.96q2.131 5.941.268 10.03-1.843 4.081-7.58 6.139-5.757 2.064-9.793.091-4.017-1.981-6.147-7.921l-6.799-18.96zM113.059 107.734l4.109-1.474 9.652 26.914 14.789-5.303 1.24 3.458-18.899 6.777-10.891-30.372zM146.005 95.945l25.694-9.213 1.24 3.458-10.782 3.866 9.651 26.915-4.13 1.481-9.651-26.915-10.782 3.867-1.24-3.459z"/><path d="M193.292 78.963l4.109-1.474 10.892 30.373-4.109 1.473-10.892-30.372z"/></g><defs><filter id="h" width="252.735" height="159.219" x="1.53" y="43.95" filterUnits="userSpaceOnUse"><feGaussianBlur xmlns="http://www.w3.org/2000/svg" in="SourceGraphic" stdDeviation="4.294"/><feOffset xmlns="http://www.w3.org/2000/svg" dy="4" result="pf_100_offsetBlur"/><feFlood xmlns="http://www.w3.org/2000/svg" flood-opacity=".4"/><feComposite xmlns="http://www.w3.org/2000/svg" in2="pf_100_offsetBlur" operator="in" result="pf_100_dropShadow"/><feBlend xmlns="http://www.w3.org/2000/svg" in="SourceGraphic" in2="pf_100_dropShadow"/></filter></defs></svg>