<svg xmlns="http://www.w3.org/2000/svg" style="isolation:isolate" width="256" height="256"><defs><filter id="a" width="400%" height="400%" x="-200%" y="-200%" color-interpolation-filters="sRGB" filterUnits="objectBoundingBox"><feGaussianBlur xmlns="http://www.w3.org/2000/svg" in="SourceGraphic" stdDeviation="4.294"/><feOffset xmlns="http://www.w3.org/2000/svg" dy="4" result="pf_100_offsetBlur"/><feFlood xmlns="http://www.w3.org/2000/svg" flood-opacity=".4"/><feComposite xmlns="http://www.w3.org/2000/svg" in2="pf_100_offsetBlur" operator="in" result="pf_100_dropShadow"/><feBlend xmlns="http://www.w3.org/2000/svg" in="SourceGraphic" in2="pf_100_dropShadow"/></filter></defs><path fill="#E6E6E6" d="M165.689 11.95c74.056 0 84.64 10.557 84.64 84.544v59.25c0 73.987-10.584 84.544-84.64 84.544h-75.37c-74.055 0-84.639-10.557-84.639-84.543V96.494c0-73.987 10.584-84.544 84.64-84.544h75.369z" filter="url(#a)"/><path fill="#FFF" d="M6.357 83.58l205.409 153.03c-11.562 2.311-26.426 3.019-45.523 3.019h-75.37c-74.055 0-84.639-10.558-84.639-84.544v-59.25c0-4.304.041-8.371.123-12.255z" opacity=".1"/><g opacity=".4"><linearGradient id="b" x1=".517" x2=".517" y2="1"><stop offset="0%" stop-color="#fff"/><stop offset="12.5%" stop-opacity=".098" stop-color="#fff"/><stop offset="92.5%" stop-opacity=".098"/><stop offset="100%" stop-opacity=".498"/></linearGradient><path fill="none" stroke="url(#b)" stroke-linecap="round" stroke-linejoin="round" stroke-width="4.077" d="M165.685 11.947c74.055 0 84.64 10.557 84.64 84.544v59.25c0 73.987-10.585 84.544-84.64 84.544h-75.37c-74.055 0-84.64-10.557-84.64-84.543V96.49c0-73.987 10.585-84.544 84.64-84.544h75.37z" vector-effect="non-scaling-stroke"/></g><defs><linearGradient id="c" x1=".533" x2=".533" y1="-.071" y2="1.137"><stop offset="0%" stop-color="#2b898f"/><stop offset="100%" stop-color="#5bdbc1"/></linearGradient></defs><path d="M45.61 54h167.28c2.82 0 5.11 2.29 5.11 5.11v135.78c0 2.82-2.29 5.11-5.11 5.11H45.61c-2.82 0-5.11-2.29-5.11-5.11V59.11c0-2.82 2.29-5.11 5.11-5.11z" fill="url(#c)"/><linearGradient id="d" x1=".25" x2=".75" y1=".036" y2=".902" gradientTransform="matrix(177.5 0 0 39.66667 40.5 160.333)" gradientUnits="userSpaceOnUse"><stop offset="2.174%" stop-color="#957552"/><stop offset="100%" stop-color="#b29373"/></linearGradient><path fill="url(#d)" d="M40.5 160.667l177.5-.334v34.557c0 2.82-2.29 5.11-5.11 5.11H45.61c-2.82 0-5.11-2.29-5.11-5.11v-34.223z"/><path fill="#3B3B3B" d="M146.631 183.742c-9.63.236-16.446 1.922-11.872 3.115 4.927 1.286 15.123 3.143 15.123 3.143h46.22s-2.94-1.571-8.962-3.143c-5.59-1.458-24.46-2.917-35.762-3.119l-16.513-4.31h-4.762l16.528 4.314z" opacity=".7"/><path fill="#3B3B3B" d="M146.056 178H107.96l1.094.286s18.857.571 21.046 1.143c1.312-.002 2.14-.002 4.762 0l12.288-1.143-1.095-.286z" opacity=".7"/><g><path fill="#FFF" d="M125.619 130.148c-10.532-1.962-23.81-16.013-23.81-25.96C101.81 93.474 104.89 78 104.89 78h46.22s3.08 13.093 3.08 26.188c0 12.157-13.279 24.315-23.809 25.994v35.91h-4.762v-35.944zM147.048 178h-38.096v-2.381s16.667-4.762 16.667-9.524c1.319.014 2.147.014 4.762 0l16.667 9.524V178z" opacity=".5"/><path fill="#257479" d="M102.167 97.048a85.128 85.128 0 0 0-.357 7.14c0 10.714 9.523 26.188 26.19 26.19 16.667.003 26.19-13.095 26.19-26.19a97.52 97.52 0 0 0-.283-7.14h-51.74z"/><path fill="#FFF" d="M113.819 97.048c.471-5.308 1.302-10.738 1.91-14.286h-5.82c-.604 3.548-1.438 8.978-1.909 14.286h5.819zM113.819 97.048H108a81.996 81.996 0 0 0-.371 7.14c0 5.857 4.692 14.657 10.847 19.05-3.733-5.207-5.026-13.833-5.026-19.05 0-2.217.15-4.667.369-7.14z" opacity=".7"/></g></svg>