<svg xmlns="http://www.w3.org/2000/svg" style="isolation:isolate" width="256" height="256"><defs><filter id="a" width="400%" height="400%" x="-200%" y="-200%" color-interpolation-filters="sRGB" filterUnits="objectBoundingBox"><feGaussianBlur xmlns="http://www.w3.org/2000/svg" in="SourceGraphic" stdDeviation="4.294"/><feOffset xmlns="http://www.w3.org/2000/svg" dy="4" result="pf_100_offsetBlur"/><feFlood xmlns="http://www.w3.org/2000/svg" flood-opacity=".4"/><feComposite xmlns="http://www.w3.org/2000/svg" in2="pf_100_offsetBlur" operator="in" result="pf_100_dropShadow"/><feBlend xmlns="http://www.w3.org/2000/svg" in="SourceGraphic" in2="pf_100_dropShadow"/></filter></defs><g filter="url(#a)"><linearGradient id="b" x1=".818" x2=".212" y1="-.071" y2="1.14" gradientTransform="matrix(244.648 0 0 228.338 5.68 11.95)" gradientUnits="userSpaceOnUse"><stop offset="0%" stop-color="#f2f2f2"/><stop offset="100%" stop-color="#f9f9f9"/></linearGradient><path fill="url(#b)" d="M165.689 11.95c74.056 0 84.639 10.557 84.639 84.544v59.251c0 73.986-10.583 84.543-84.639 84.543h-75.37c-74.055 0-84.639-10.557-84.639-84.543V96.494c0-73.987 10.584-84.544 84.639-84.544h75.37z"/></g><g opacity=".4"><linearGradient id="c" x1=".517" x2=".517" y2="1"><stop offset="0%" stop-color="#fff"/><stop offset="12.5%" stop-opacity=".098" stop-color="#fff"/><stop offset="92.5%" stop-opacity=".098"/><stop offset="100%" stop-opacity=".498"/></linearGradient><path fill="none" stroke="url(#c)" stroke-linecap="round" stroke-linejoin="round" stroke-width="4.077" d="M165.685 11.947c74.055 0 84.639 10.557 84.639 84.544v59.251c0 73.986-10.584 84.543-84.639 84.543h-75.37c-74.055 0-84.639-10.557-84.639-84.543V96.491c0-73.987 10.584-84.544 84.639-84.544h75.37z" vector-effect="non-scaling-stroke"/></g><g filter="url(#d)"><path fill="#76C22B" d="M106 167.25q2 3.125-.5 4c-9-1.437-5.615-15.927 6.375-10.875 10.375 3 7.75 25.75-3.875 26.5-21.75 5.938-36.062-29.687-32.125-54.812l-6.437 1.312c-.5 4.875-.143 11.844.187 15.125 2.75 26.875 18.375 46 39.875 43.375 19.125-4.25 18.037-30.879 4.375-36.25-9.61-3.465-18 1.375-18.875 9.5-.375 6.75 5.957 11.883 10.5 10.875 6.75-.5 6.75-8.5.5-8.75z"/><path fill="#FFF" d="M196 67c11.375 10.5 2.75 31.625-21.125 39.75C148.574 96.075 174.209 53.71 196 67z"/><ellipse fill="#111" cx="192.25" cy="80.375" rx="4.375" ry="5.25" vector-effect="non-scaling-stroke"/><path fill="#46A926" d="M145.25 122.25c3.22 5.699 7.897 10.584 14 14.625-2.327 1.485-3.692 2.578-4.375 5.75l3.25 1.5c-.073-3.2 1.854-5.232 5.75-7.125 4.75 0 7.634.115 12.75.25q-3.375-3.125-7.5-4.75-3.875.5-8.5 2.75c-2.338-4.838-4.818-10.152-7.5-16l-7.875 3zM158.375 148l4.375-.25q1.25 4 5.375 4 3.625-1.5 4.375-4.125l6.375 1q-4.25 6.375-10.75 6.5-7.5-.75-9.75-7.125zm-49.125-27.75c-.515 3.159-.5 14.25-4.125 17l3.375.125c2.209-3.977 5.053-9.842 5.5-16.375l-4.75-.75z"/><path fill="#FA9381" d="M183.875 137l.063 12.125q11.625.25 26.171-4.363c2.63-.835 2.63-2.189 0-3.022q-15.453-4.896-26.234-4.74z"/><path fill="#333" d="M201.938 139.125c1.125 3.281 1.062 5 .343 7.594q5.853-1.397 8.099-2.143c2.619-.87 2.623-2.295.009-3.18q-2.479-.839-8.451-2.271z"/><path fill="#FDC92B" d="M56.5 137h14.25c-1.172 4.953-1.152 9.015 0 12.125H56.5c-2.354-4.507-2.344-8.539 0-12.125z"/><path fill="#F76363" d="M45.5 137h12.25c-.634 2.682-.919 5.102-.865 7.251.047 1.821.337 3.448.865 4.874H45.5c-1.104 0-2.415-.794-2.926-1.773-1.428-2.734-1.418-6.766-.168-8.678.604-.924 1.99-1.674 3.094-1.674z"/><path fill="#1463A5" d="M66.5 137h119.25c-1.172 4.953-1.152 9.015 0 12.125H66.5c-1.51-4.135-1.48-8.147 0-12.125z"/><path fill="#76C22B" d="M69.25 137q2.125-38 22.125-54.375 18.5-10.875 37.25.125l40.875 14c9.39 1.64 15.691 7.109 18.875 16.375-11.723 9.275-22.588 11.369-30.625 7-8.088 5.32-15.661 6.955-22.75 4.875-10.902 3.608-23.267 2.826-37.125-2.375 1.375-3.875-1.75-4.5-6.125-5.5-6.37-1.379-12.319 6.214-17.812 19.813L69.25 137z"/><path fill="#76C22B" d="M93.625 112c-5.625 7.375-5.865 16.843-1.5 23.125-2.625.708-4.823 2.51-6.625 5.375 2.198 3.572 5.375 5.957 9.5 7.125-7.419-6.931-8.125-10.875 1.75-11.75-5.361-3.796-6.375-10.875-.125-22l-3-1.875zm35.625 4.5c-3.375 10.375 1.252 12.328 4 19.75 1.572 4.247 2.375 14.375 6.75 13.625-3.875-7-3.25-9.75 3.625-13.25q.125-2.375-2-3.25-2.125.75-3.75 3.625c-5.324-1.124-6.772-7.78-4.375-20l-4.25-.5z"/><path fill="#FFF" d="M153.75 104.75c-23.625 0-27.75-40.875-8.875-46.625q20.25-2.625 22.5 23 .375 23.25-13.625 23.625z"/><ellipse fill="#111" cx="145.063" cy="84.313" rx="5.188" ry="5.688" vector-effect="non-scaling-stroke"/></g><defs><filter id="d" width="400%" height="400%" x="-200%" y="-200%" color-interpolation-filters="sRGB" filterUnits="objectBoundingBox"><feGaussianBlur xmlns="http://www.w3.org/2000/svg" in="SourceGraphic" stdDeviation="4.294"/><feOffset xmlns="http://www.w3.org/2000/svg" dy="4" result="pf_100_offsetBlur"/><feFlood xmlns="http://www.w3.org/2000/svg" flood-opacity=".4"/><feComposite xmlns="http://www.w3.org/2000/svg" in2="pf_100_offsetBlur" operator="in" result="pf_100_dropShadow"/><feBlend xmlns="http://www.w3.org/2000/svg" in="SourceGraphic" in2="pf_100_dropShadow"/></filter></defs></svg>