<?xml version="1.0" standalone="no"?><!-- Generator: Gravit.io --><svg xmlns="http://www.w3.org/2000/svg" xmlns:xlink="http://www.w3.org/1999/xlink" style="isolation:isolate" viewBox="0 0 256 256" width="256" height="256"><defs><filter id="FLHOHNetyXIWOPsWaEPwjraSk5p14aiP" x="-200%" y="-200%" width="400%" height="400%" filterUnits="objectBoundingBox" color-interpolation-filters="sRGB"><feGaussianBlur xmlns="http://www.w3.org/2000/svg" in="SourceGraphic" stdDeviation="4.294"/><feOffset xmlns="http://www.w3.org/2000/svg" dx="0" dy="4" result="pf_100_offsetBlur"/><feFlood xmlns="http://www.w3.org/2000/svg" flood-color="#000000" flood-opacity="0.4"/><feComposite xmlns="http://www.w3.org/2000/svg" in2="pf_100_offsetBlur" operator="in" result="pf_100_dropShadow"/><feBlend xmlns="http://www.w3.org/2000/svg" in="SourceGraphic" in2="pf_100_dropShadow" mode="normal"/></filter></defs><g filter="url(#FLHOHNetyXIWOPsWaEPwjraSk5p14aiP)"><path d=" M 166.351 15.28 C 240.407 15.28 250.991 25.837 250.991 99.824 L 250.991 159.075 C 250.991 233.061 240.407 243.619 166.351 243.619 L 90.982 243.619 C 16.926 243.619 6.343 233.061 6.343 159.075 L 6.343 99.824 C 6.343 25.837 16.926 15.28 90.982 15.28 L 166.351 15.28 L 166.351 15.28 Z " id="Path" fill="rgb(59,59,59)"/></g><path d=" M 128.667 15.28 L 166.351 15.28 C 240.407 15.28 250.991 25.837 250.991 99.824 L 250.991 159.075 C 250.991 233.061 240.407 243.619 166.351 243.619 L 128.667 243.619 L 128.667 15.28 L 128.667 15.28 Z " id="Path" fill="rgb(118,194,43)"/><path d=" M 128.296 88.59 C 151.019 87.163 171.7 96.878 190.313 117.711 C 165.935 143.517 144.869 153.902 128.697 149.242 L 128.496 142.213 C 141.948 146.519 157.075 138.628 173.856 118.514 C 160.877 102.314 143.549 94.414 128.496 96.422 L 128.296 88.59 L 128.296 88.59 Z " id="Path" fill="rgb(59,59,59)"/><path d=" M 128.496 105.661 C 140.472 103.987 150.983 108.28 160.007 118.113 L 146.56 129.56 C 142.144 120.623 137.628 114.397 128.597 113.594 L 128.496 105.661 L 128.496 105.661 Z  M 162.716 152.757 C 151.271 157.555 139.791 159.326 128.496 158.28 L 128.496 166.313 C 149.44 167.403 174.7 162.122 199.546 150.246 C 205.376 147.459 209.982 144.322 215 140.707 C 210.474 138.095 204.561 134.387 197.238 129.56 C 186.407 139.58 174.586 147.781 162.716 152.757 Z " id="Compound Path" fill="rgb(59,59,59)"/><path d=" M 128.544 142.172 C 115.044 137.634 110.67 121.824 110.67 121.824 C 110.67 121.824 118.522 112.481 128.544 113.685 L 128.544 105.545 C 109.449 107.612 97.934 120.378 97.934 120.378 C 97.934 120.378 104.599 145.237 128.544 149.508 L 128.544 142.172 L 128.544 142.172 Z " id="Path" fill="rgb(118,194,43)"/><path d=" M 128.544 166.322 L 128.544 158.29 C 96.861 154.302 85.947 119.307 85.947 119.307 C 85.947 119.307 100.206 98.396 128.544 96.228 L 128.544 88.571 C 97.156 91.093 70 117.701 70 117.701 C 70 117.701 85.37 162.245 128.544 166.322 L 128.544 166.322 Z " id="Path" fill="rgb(118,194,43)"/><g opacity="0.4"><linearGradient id="_lgradient_168" x1="0.5166666666666668" y1="0" x2="0.5166666666666666" y2="1.0000000000000002" gradientTransform="matrix(244.65,0,0,228.34,5.68,13.95)" gradientUnits="userSpaceOnUse"><stop offset="0%" stop-opacity="1" style="stop-color:rgb(255,255,255)"/><stop offset="12.5%" stop-opacity="0.09803922" style="stop-color:rgb(255,255,255)"/><stop offset="92.500001%" stop-opacity="0.09803922" style="stop-color:rgb(0,0,0)"/><stop offset="100%" stop-opacity="0.49803922" style="stop-color:rgb(0,0,0)"/></linearGradient><path d=" M 165.06803 13.951234 C 169.395994 13.941409 173.723944 13.990533 178.051908 14.088781 C 181.927398 14.167379 185.802873 14.31475 189.678362 14.540721 C 193.1309 14.737216 196.583423 15.022134 200.026115 15.395476 C 203.085193 15.729518 206.144271 16.181458 209.173842 16.741469 C 211.888645 17.242533 214.57394 17.881143 217.219897 18.6573 C 219.619947 19.354858 221.970814 20.219439 224.242988 21.241215 C 226.357793 22.184394 228.384061 23.304417 230.302129 24.591462 C 232.141505 25.829383 233.862851 27.244151 235.436659 28.80629 C 237.000621 30.378252 238.417046 32.087764 239.656409 33.924995 C 240.944972 35.840824 242.066305 37.864728 243.020409 39.967229 C 244.043389 42.246576 244.908985 44.584873 245.617197 46.972292 C 246.394255 49.615155 247.033606 52.297317 247.535265 55.008956 C 248.095924 58.034984 248.548399 61.080665 248.882828 64.13617 C 249.256611 67.574836 249.541856 71.013506 249.738578 74.462003 C 249.964823 78.323139 250.112361 82.194101 250.200884 86.055237 C 250.289421 90.378131 250.338591 94.701032 250.32876 99.014106 L 250.32876 157.225886 C 250.338591 161.54878 250.289421 165.861854 250.200884 170.184747 C 250.112361 174.05571 249.964823 177.916853 249.738578 181.777981 C 249.541856 185.226485 249.256611 188.674975 248.882828 192.103826 C 248.548399 195.15933 248.095924 198.214835 247.535265 201.240851 C 247.033606 203.942664 246.394255 206.624837 245.617197 209.267703 C 244.908985 211.655115 244.043389 214.003235 243.020409 216.272755 C 242.066305 218.38509 240.944972 220.399156 239.656409 222.314999 C 238.417046 224.152226 237.000621 225.871561 235.436659 227.433697 C 233.862851 228.995832 232.141505 230.410601 230.302129 231.648532 C 228.384061 232.935575 226.357793 234.055598 224.242988 234.998768 C 221.970814 236.020552 219.619947 236.885137 217.219897 237.592507 C 214.57394 238.368672 211.888645 239.007276 209.173842 239.498515 C 206.144271 240.068354 203.085193 240.510465 200.026115 240.844519 C 196.583423 241.21785 193.1309 241.502777 189.678362 241.699269 C 185.802873 241.925235 181.927398 242.072615 178.051908 242.161035 C 173.723944 242.249454 169.395994 242.298581 165.06803 242.288762 L 90.941963 242.288762 C 86.614006 242.298581 82.286049 242.249454 77.9581 242.161035 C 74.08261 242.072615 70.20712 241.925235 66.331638 241.699269 C 62.879108 241.502777 59.426578 241.21785 55.983886 240.844519 C 52.924808 240.510465 49.865733 240.068354 46.836162 239.498515 C 44.121356 239.007276 41.436057 238.368672 38.7901 237.592507 C 36.390053 236.885137 34.039187 236.020552 31.767009 234.998768 C 29.652213 234.055598 27.625943 232.935575 25.707871 231.648532 C 23.868489 230.410601 22.147143 228.995832 20.573343 227.433697 C 19.009377 225.871561 17.592955 224.152226 16.353586 222.314999 C 15.065036 220.399156 13.943701 218.38509 12.989584 216.272755 C 11.966612 214.003235 11.101021 211.655115 10.392811 209.267703 C 9.615746 206.624837 8.976389 203.942664 8.47474 201.240851 C 7.914072 198.214835 7.461604 195.15933 7.127172 192.103826 C 6.753394 188.674975 6.468142 185.226485 6.271417 181.777981 C 6.045183 177.916853 5.897639 174.05571 5.809112 170.184747 C 5.720586 165.861854 5.671405 161.54878 5.681241 157.225886 L 5.681241 99.014106 C 5.671405 94.701032 5.720586 90.378131 5.809112 86.055237 C 5.897639 82.194101 6.045183 78.323139 6.271417 74.462003 C 6.468142 71.013506 6.753394 67.574836 7.127172 64.13617 C 7.461604 61.080665 7.914072 58.034984 8.47474 55.008956 C 8.976389 52.297317 9.615746 49.615155 10.392811 46.972292 C 11.101021 44.584873 11.966612 42.246576 12.989584 39.967229 C 13.943701 37.864728 15.065036 35.840824 16.353586 33.924995 C 17.592955 32.087764 19.009377 30.378252 20.573343 28.80629 C 22.147143 27.244151 23.868489 25.829383 25.707871 24.591462 C 27.625943 23.304417 29.652213 22.184394 31.767009 21.241215 C 34.039187 20.219439 36.390053 19.354858 38.7901 18.6573 C 41.436057 17.881143 44.121356 17.242533 46.836162 16.741469 C 49.865733 16.181458 52.924808 15.729518 55.983886 15.395476 C 59.426578 15.022134 62.879108 14.737216 66.331638 14.540721 C 70.20712 14.31475 74.08261 14.167379 77.9581 14.088781 C 82.286049 13.990533 86.614006 13.941409 90.941963 13.951234 L 165.06803 13.951234 Z  M 165.077876 17.959741 C 169.376317 17.949916 173.674759 17.99904 177.973216 18.087463 C 181.799522 18.175886 185.625827 18.323257 189.452133 18.539402 C 192.835809 18.735898 196.219486 19.010992 199.583486 19.384332 C 202.554026 19.698726 205.514751 20.131016 208.445953 20.681203 C 211.023049 21.152792 213.580483 21.761928 216.098564 22.498786 C 218.321569 23.147221 220.495374 23.952852 222.600334 24.896029 C 224.508571 25.750785 226.338116 26.762737 228.069293 27.922059 C 229.692286 29.012609 231.207063 30.260355 232.59398 31.645648 C 233.980897 33.030941 235.230091 34.543956 236.331763 36.165043 C 237.492434 37.894202 238.505568 39.711787 239.361333 41.607968 C 240.305606 43.720292 241.112187 45.891565 241.761369 48.102139 C 242.508934 50.617282 243.108947 53.161898 243.590914 55.735987 C 244.131912 58.663768 244.564709 61.6112 244.889308 64.578282 C 245.263091 67.938355 245.538505 71.308252 245.735227 74.687976 C 245.951626 78.509812 246.10901 82.321821 246.187687 86.143656 C 246.276225 90.437084 246.325394 94.720685 246.325394 99.014106 C 246.325394 99.014106 246.325394 99.014106 246.325394 99.014106 L 246.325394 157.225886 C 246.325394 157.225886 246.325394 157.225886 246.325394 157.225886 C 246.325394 161.519306 246.276225 165.802907 246.187687 170.096328 C 246.10901 173.918164 245.951626 177.739999 245.735227 181.552015 C 245.538505 184.931739 245.263091 188.301629 244.889308 191.671533 C 244.564709 194.628784 244.131912 197.576216 243.590914 200.503994 C 243.108947 203.078094 242.508934 205.622706 241.761369 208.137845 C 241.112187 210.358253 240.305606 212.5197 239.361333 214.63202 C 238.505568 216.528209 237.492434 218.355617 236.331763 220.074952 C 235.230091 221.705853 233.980897 223.218876 232.59398 224.604172 C 231.207063 225.979634 229.692286 227.227385 228.069293 228.317935 C 226.338116 229.477251 224.508571 230.489201 222.600334 231.343951 C 220.495374 232.296956 218.321569 233.092775 216.098564 233.741198 C 213.580483 234.478056 211.023049 235.087202 208.445953 235.558787 C 205.514751 236.108972 202.554026 236.541264 199.583486 236.865483 C 196.219486 237.228995 192.835809 237.513922 189.452133 237.70058 C 185.625827 237.916726 181.799522 238.073926 177.973216 238.152526 C 173.674759 238.25078 169.376317 238.290072 165.077876 238.290072 C 165.077876 238.290072 165.077876 238.290072 165.06803 238.290072 L 90.941963 238.290072 C 90.932125 238.290072 90.932125 238.290072 90.932125 238.290072 C 86.633683 238.290072 82.335234 238.25078 78.036784 238.152526 C 74.210479 238.073926 70.384173 237.916726 66.557868 237.70058 C 63.174195 237.513922 59.790522 237.228995 56.426518 236.865483 C 53.455967 236.541264 50.495253 236.108972 47.564048 235.558787 C 44.986944 235.087202 42.429517 234.478056 39.911433 233.741198 C 37.688439 233.092775 35.514626 232.296956 33.409665 231.343951 C 31.501429 230.489201 29.671886 229.477251 27.940703 228.317935 C 26.31772 227.227385 24.802935 225.979634 23.416022 224.604172 C 22.029109 223.218876 20.779904 221.705853 19.678243 220.074952 C 18.517564 218.355617 17.504428 216.528209 16.648674 214.63202 C 15.704392 212.5197 14.897819 210.358253 14.248626 208.137845 C 13.50107 205.622706 12.901057 203.078094 12.419081 200.503994 C 11.878086 197.576216 11.445291 194.628784 11.120694 191.671533 C 10.746916 188.301629 10.471501 184.931739 10.274776 181.552015 C 10.058378 177.739999 9.900997 173.918164 9.822307 170.096328 C 9.733781 165.802907 9.6846 161.519306 9.6846 157.225886 C 9.6846 157.225886 9.6846 157.225886 9.6846 157.225886 L 9.6846 99.014106 C 9.6846 99.014106 9.6846 99.014106 9.6846 99.014106 C 9.6846 94.720685 9.733781 90.437084 9.822307 86.143656 C 9.900997 82.321821 10.058378 78.509812 10.274776 74.687976 C 10.471501 71.308252 10.746916 67.938355 11.120694 64.578282 C 11.445291 61.6112 11.878086 58.663768 12.419081 55.735987 C 12.901057 53.161898 13.50107 50.617282 14.248626 48.102139 C 14.897819 45.891565 15.704392 43.720292 16.648674 41.607968 C 17.504428 39.711787 18.517564 37.894202 19.678243 36.165043 C 20.779904 34.543956 22.029109 33.030941 23.416022 31.645648 C 24.802935 30.260355 26.31772 29.012609 27.940703 27.922059 C 29.671886 26.762737 31.501429 25.750785 33.409665 24.896029 C 35.514626 23.952852 37.688439 23.147221 39.911433 22.498786 C 42.429517 21.761928 44.986944 21.152792 47.564048 20.681203 C 50.495253 20.131016 53.455967 19.698726 56.426518 19.384332 C 59.790522 19.010992 63.174195 18.735898 66.557868 18.539402 C 70.384173 18.323257 74.210479 18.175886 78.036784 18.087463 C 82.335234 17.99904 86.633683 17.949916 90.932125 17.959741 C 90.932125 17.959741 90.932125 17.959741 90.941963 17.959741 L 165.06803 17.959741 C 165.077876 17.959741 165.077876 17.959741 165.077876 17.959741 Z " fill-rule="evenodd" id="highlight" fill="url(#_lgradient_168)"/></g></svg>