<svg xmlns="http://www.w3.org/2000/svg" style="isolation:isolate" width="256" height="256"><defs><filter id="a" width="270.648" height="254.338" x="-6.66" y="6.28" filterUnits="userSpaceOnUse"><feGaussianBlur xmlns="http://www.w3.org/2000/svg" in="SourceGraphic" stdDeviation="4.294"/><feOffset xmlns="http://www.w3.org/2000/svg" dy="4" result="pf_100_offsetBlur"/><feFlood xmlns="http://www.w3.org/2000/svg" flood-opacity=".4"/><feComposite xmlns="http://www.w3.org/2000/svg" in2="pf_100_offsetBlur" operator="in" result="pf_100_dropShadow"/><feBlend xmlns="http://www.w3.org/2000/svg" in="SourceGraphic" in2="pf_100_dropShadow"/></filter></defs><path fill="#3B3B3B" d="M166.351 15.28c74.056 0 84.64 10.557 84.64 84.544v59.251c0 73.986-10.584 84.544-84.64 84.544H90.982c-74.056 0-84.639-10.558-84.639-84.544V99.824c0-73.987 10.583-84.544 84.639-84.544h75.369z" filter="url(#a)"/><path fill="#76C22B" d="M128.667 15.28h37.684c74.056 0 84.64 10.557 84.64 84.544v59.251c0 73.986-10.584 84.544-84.64 84.544h-37.684V15.28z"/><g opacity=".4"><linearGradient id="b" x1=".517" x2=".517" y2="1"><stop offset="0%" stop-color="#fff"/><stop offset="12.5%" stop-opacity=".098" stop-color="#fff"/><stop offset="92.5%" stop-opacity=".098"/><stop offset="100%" stop-opacity=".498"/></linearGradient><path fill="none" stroke="url(#b)" stroke-linecap="round" stroke-linejoin="round" stroke-width="4.077" d="M165.685 11.947c74.055 0 84.639 10.557 84.639 84.544v59.251c0 73.986-10.584 84.543-84.639 84.543h-75.37c-74.055 0-84.639-10.557-84.639-84.543V96.491c0-73.987 10.584-84.544 84.639-84.544h75.37z" vector-effect="non-scaling-stroke"/></g><path fill="#3B3B3B" d="M128.296 88.59c22.723-1.427 43.404 8.288 62.017 29.121-24.378 25.806-45.444 36.191-61.616 31.531l-.201-7.029c13.452 4.306 28.579-3.585 45.36-23.699-12.979-16.2-30.307-24.1-45.36-22.092l-.2-7.832z"/><path fill="#3B3B3B" d="M128.496 105.661c11.976-1.674 22.487 2.619 31.511 12.452L146.56 129.56c-4.416-8.937-8.932-15.163-17.963-15.966l-.101-7.933zm34.22 47.096c-11.445 4.798-22.925 6.569-34.22 5.523v8.033c20.944 1.09 46.204-4.191 71.05-16.067 5.83-2.787 10.436-5.924 15.454-9.539-4.526-2.612-10.439-6.32-17.762-11.147-10.831 10.02-22.652 18.221-34.522 23.197z"/><path fill="#76C22B" d="M128.544 142.172c-13.5-4.538-17.874-20.348-17.874-20.348s7.852-9.343 17.874-8.139v-8.14c-19.095 2.067-30.61 14.833-30.61 14.833s6.665 24.859 30.61 29.13v-7.336z"/><path fill="#76C22B" d="M128.544 166.322v-8.032c-31.683-3.988-42.597-38.983-42.597-38.983s14.259-20.911 42.597-23.079v-7.657C97.156 91.093 70 117.701 70 117.701s15.37 44.544 58.544 48.621z"/></svg>