<svg xmlns="http://www.w3.org/2000/svg" style="isolation:isolate" width="256" height="256"><defs><filter id="a" width="270.648" height="254.338" x="-7.32" y="2.95" filterUnits="userSpaceOnUse"><feGaussianBlur xmlns="http://www.w3.org/2000/svg" in="SourceGraphic" stdDeviation="4.294"/><feOffset xmlns="http://www.w3.org/2000/svg" dy="4" result="pf_100_offsetBlur"/><feFlood xmlns="http://www.w3.org/2000/svg" flood-opacity=".4"/><feComposite xmlns="http://www.w3.org/2000/svg" in2="pf_100_offsetBlur" operator="in" result="pf_100_dropShadow"/><feBlend xmlns="http://www.w3.org/2000/svg" in="SourceGraphic" in2="pf_100_dropShadow"/></filter></defs><path fill="#37A6E6" d="M165.685 11.947c74.055 0 84.639 10.557 84.639 84.544v59.251c0 73.986-10.584 84.543-84.639 84.543h-75.37c-74.055 0-84.639-10.557-84.639-84.543V96.491c0-73.987 10.584-84.544 84.639-84.544h75.37z" filter="url(#a)"/><path fill="#FFF" d="M128 11.947v228.338h37.685c74.055 0 84.639-10.557 84.639-84.543V96.491c0-73.987-10.584-84.544-84.639-84.544H128z" opacity=".2"/><defs><filter id="b" width="220" height="169.998" x="18" y="43" filterUnits="userSpaceOnUse"><feGaussianBlur xmlns="http://www.w3.org/2000/svg" stdDeviation="4.294"/></filter></defs><path fill="#111" fill-rule="evenodd" d="M28 147.445l88.888 33.335v22.219L28 169.668v-22.223zm0-44.446l88.888 33.335v22.223L28 125.222v-22.223zm0-44.442l88.888 33.331v22.223L28 80.776V58.557zm111.112 83.332L228 175.224v22.219l-88.888-33.331v-22.223zm0-44.446L228 130.778v22.223l-88.888-33.335V97.443zm0-44.442L228 86.332v22.223L139.112 75.22V53.001z" opacity=".4" filter="url(#b)"/><path d="M28 147.445l88.888 33.335v22.219L28 169.668v-22.223zm0-44.446l88.888 33.335v22.223L28 125.222v-22.223zm0-44.442l88.888 33.331v22.223L28 80.776V58.557zm111.112 83.332L228 175.224v22.219l-88.888-33.331v-22.223zm0-44.446L228 130.778v22.223l-88.888-33.335V97.443zm0-44.442L228 86.332v22.223L139.112 75.22V53.001z" fill="#FFF" fill-rule="evenodd"/><g opacity=".4"><linearGradient id="c" x1=".517" x2=".517" y2="1"><stop offset="0%" stop-color="#fff"/><stop offset="12.5%" stop-opacity=".098" stop-color="#fff"/><stop offset="92.5%" stop-opacity=".098"/><stop offset="100%" stop-opacity=".498"/></linearGradient><path fill="none" stroke="url(#c)" stroke-linecap="round" stroke-linejoin="round" stroke-width="4.077" d="M165.685 11.947c74.055 0 84.639 10.557 84.639 84.544v59.251c0 73.986-10.584 84.543-84.639 84.543h-75.37c-74.055 0-84.639-10.557-84.639-84.543V96.491c0-73.987 10.584-84.544 84.639-84.544h75.37z" vector-effect="non-scaling-stroke"/></g></svg>