<svg xmlns="http://www.w3.org/2000/svg" style="isolation:isolate" width="256" height="256" viewBox="0 0 256 256">
 <defs>
  <filter id="WyRXXnPMwWFHhPRmtDnjrtFcmE9c5ZtM" width="270.648" height="254.338" x="-7.32" y="2.95" filterUnits="userSpaceOnUse">
   <feGaussianBlur xmlns="http://www.w3.org/2000/svg" in="SourceGraphic" stdDeviation="4.294"/>
   <feOffset xmlns="http://www.w3.org/2000/svg" dx="0" dy="4" result="pf_100_offsetBlur"/>
   <feFlood xmlns="http://www.w3.org/2000/svg" flood-opacity=".4"/>
   <feComposite xmlns="http://www.w3.org/2000/svg" in2="pf_100_offsetBlur" operator="in" result="pf_100_dropShadow"/>
   <feBlend xmlns="http://www.w3.org/2000/svg" in="SourceGraphic" in2="pf_100_dropShadow" mode="normal"/>
  </filter>
 </defs>
 <g filter="url(#WyRXXnPMwWFHhPRmtDnjrtFcmE9c5ZtM)">
  <linearGradient id="_lgradient_10" x1=".567" x2=".567" y1="1.071" y2="-.071" gradientTransform="matrix(244.648,0,0,228.338,5.676,11.947)" gradientUnits="userSpaceOnUse">
   <stop offset="0%" style="stop-color:rgb(160,160,160)"/>
   <stop offset="100%" style="stop-color:rgb(223,223,223)"/>
  </linearGradient>
  <path fill="url(#_lgradient_10)" d="M 165.685 11.947 C 239.74 11.947 250.324 22.504 250.324 96.491 L 250.324 155.742 C 250.324 229.728 239.74 240.285 165.685 240.285 L 90.315 240.285 C 16.26 240.285 5.676 229.728 5.676 155.742 L 5.676 96.491 C 5.676 22.504 16.26 11.947 90.315 11.947 L 165.685 11.947 Z"/>
 </g>
 <g>
  <g>
   <path fill="none" d="M 166.444 11.95 C 240.85 11.95 251.484 22.507 251.484 96.494 L 251.484 155.745 C 251.484 229.731 240.85 240.288 166.444 240.288 L 90.719 240.288 C 16.314 240.288 5.68 229.731 5.68 155.745 L 5.68 96.494 C 5.68 22.507 16.314 11.95 90.719 11.95 L 166.444 11.95 Z"/>
   <path fill="#D18991" d="M 64.121 239.56 C 64.671 239.596 65.142 239.658 65.702 239.691 C 66.137 239.716 66.729 239.702 67.17 239.726 L 67.131 232.134 L 93.76 207.669 L 93.76 199.513 L 106.05 187.28 L 106.05 181.165 L 112.194 175.048 L 112.194 158.739 L 104.001 150.583 L 87.614 150.583 L 79.421 142.429 L 58.938 142.429 L 50.743 150.583 L 50.743 170.972 L 67.186 185.312 L 67.131 203.591 L 60.987 209.708 L 60.987 236.21 L 64.121 239.56 Z"/>
   <path fill="#D18991" d="M 99.904 81.267 L 93.76 87.384 L 99.904 87.384 L 101.953 89.423 L 104.001 89.423 L 106.05 87.384 L 99.904 81.267 Z"/>
   <path fill="#D18991" d="M 177.742 109.809 L 153.162 109.809 L 138.824 124.08 L 138.824 144.468 L 149.065 154.662 L 163.404 154.662 L 169.549 160.778 L 169.549 166.894 L 173.646 170.971 L 173.646 195.436 L 189.202 211.801 L 214.89 186.234 L 214.613 162.816 L 235.097 142.429 L 226.903 142.429 L 206.42 122.042 L 206.42 113.887 L 181.839 113.887 L 177.742 109.809 Z"/>
   <path fill="#D18991" d="M 251.484 117.964 L 251.484 96.493 C 251.484 87.245 251.317 78.988 250.881 71.618 C 250.663 67.934 250.378 64.472 250.012 61.218 C 249.646 57.964 249.2 54.92 248.66 52.071 C 248.12 49.223 247.486 46.57 246.746 44.101 C 246.007 41.632 245.161 39.345 244.195 37.23 C 243.581 35.883 242.83 34.719 242.115 33.507 L 239.193 36.415 L 226.903 36.415 L 214.613 48.648 L 206.42 40.493 L 181.84 40.493 L 169.55 52.726 L 169.55 62.919 L 181.84 62.919 L 181.84 56.802 L 190.033 56.802 L 190.033 64.958 L 185.935 69.034 L 169.55 69.31 L 163.404 75.151 L 155.211 75.151 L 155.211 83.306 L 149.065 89.423 L 149.065 101.653 L 161.355 101.653 L 169.55 93.499 L 177.743 93.499 L 177.743 97.577 L 185.935 105.732 L 190.033 105.732 L 190.033 101.653 L 181.84 93.499 L 190.033 93.499 L 198.225 101.653 L 208.467 101.653 L 202.323 95.538 L 208.467 89.423 L 214.613 89.423 L 220.757 95.538 L 214.613 95.538 L 208.467 101.653 L 214.501 107.659 L 214.613 113.886 L 206.42 113.886 L 231.001 138.351 L 235.096 138.351 L 239.193 134.275 L 247.386 126.118 L 239.193 117.964 L 251.484 117.964 Z"/>
   <path fill="#D18991" d="M 157.259 71.073 L 157.259 64.957 L 163.404 58.841 L 163.404 71.073 L 157.259 71.073 Z"/>
   <path fill="#D18991" d="M 220.758 191.359 L 220.758 178.575 L 228.952 170.971 L 228.952 191.359 L 220.758 191.359 Z"/>
   <path fill="#D18991" d="M 136.775 11.95 L 90.718 11.95 C 89.929 11.95 89.37 11.999 88.595 12.001 L 81.47 20.105 L 93.76 32.337 L 93.76 45.12 L 108.099 60.88 L 116.292 60.88 L 116.292 52.726 L 128.582 40.493 L 128.582 32.337 L 136.775 24.183 L 136.775 11.95 Z"/>
   <path fill="#D18991" d="M 126.533 56.802 L 132.679 56.802 L 138.824 62.918 L 126.533 62.918 L 126.533 56.802 Z"/>
   <path fill="#D18991" d="M 71.228 124.08 L 65.083 124.08 L 58.937 130.197 L 71.228 130.197 L 71.228 124.08 Z"/>
   <path fill="#D18991" d="M 16.585 30.96 C 16.478 31.112 16.34 31.228 16.235 31.382 C 15.018 33.17 13.934 35.114 12.968 37.23 C 12.003 39.345 11.157 41.632 10.417 44.101 C 9.677 46.57 9.044 49.223 8.504 52.071 C 7.964 54.92 7.518 57.964 7.152 61.218 C 6.786 64.472 6.5 67.934 6.282 71.618 C 5.846 78.988 5.68 87.245 5.68 96.493 L 5.68 117.964 L 13.873 126.118 L 26.163 126.118 L 46.648 146.507 L 46.648 122.042 L 58.938 109.81 L 67.131 109.81 L 79.421 97.577 L 91.711 97.577 L 85.567 91.46 L 97.857 77.191 L 85.567 64.958 L 67.131 64.958 L 67.131 81.267 L 58.938 81.267 L 50.743 73.112 L 50.743 64.958 L 63.034 52.726 L 73.277 52.726 L 73.277 44.569 L 60.987 32.337 L 40.502 32.337 L 40.502 44.569 L 30.26 44.569 L 16.585 30.96 Z"/>
   <path fill="#D18991" d="M 67.131 12.515 C 66.702 12.538 66.126 12.523 65.702 12.548 C 61.997 12.765 58.513 13.048 55.241 13.411 C 51.969 13.775 48.907 14.219 46.042 14.755 C 43.483 15.234 41.136 15.818 38.883 16.454 L 46.648 24.183 L 67.131 24.183 L 67.131 12.515 Z"/>
  </g>
 </g>
 <g>
  <g>
   <path fill="#E93549" d="M 108.428 108.428 L 201.394 54.606 L 147.572 147.572 L 108.428 108.428 Z"/>
   <g opacity=".5">
    <path fill="#FFFFFF" d="M 201.394 54.606 L 108.429 108.429 L 54.606 201.394 L 56.381 200.367 L 108.429 110.468 L 199.619 57.672 L 201.394 54.606 Z"/>
   </g>
   <path fill="#DFDFDF" d="M 108.428 108.428 L 54.606 201.394 L 147.572 147.572 L 108.428 108.428 Z"/>
   <g opacity=".2">
    <path fill="#FFFFFF" d="M 201.394 54.606 L 108.429 108.429 L 54.606 201.394 L 58.03 199.412 L 128.721 128.721 L 199.412 58.03 L 201.394 54.606 Z"/>
   </g>
  </g>
  <g>
   <path fill="#DFDFDF" d="M 78 127.459 C 78 155.941 97.997 181.879 128.001 181.879 L 128.001 181.879 C 158.008 181.879 178 155.941 178 127.459 L 178 127.459 C 178 95.449 157.419 74.121 128.001 74.121 L 128.001 74.121 C 98.579 74.121 78 95.449 78 127.459 M 148.085 91.253 C 148.085 69.744 111.023 80.993 128.003 80.993 L 128.003 80.993 C 144.981 80.993 148.426 105.006 148.426 126.516 L 148.426 126.516 C 148.426 146.441 150.854 174.89 132.551 174.89 L 160.347 162.328 C 142.042 162.328 160.375 123.407 160.375 103.483"/>
   <g opacity=".3">
    <path d="M 78 127.459 C 78 155.941 97.997 181.879 128.001 181.879 L 128.001 181.879 C 158.008 181.879 178 155.941 178 127.459 L 178 127.459 C 178 95.449 157.419 74.121 128.001 74.121 L 128.001 74.121 C 98.579 74.121 78 95.449 78 127.459 M 107.549 126.263 C 107.549 104.754 111.023 80.993 128.003 80.993 L 128.003 80.993 C 144.981 80.993 148.426 105.006 148.426 126.516 L 148.426 126.516 C 148.426 146.441 146.306 173.59 128.003 173.59 L 128.003 173.59 C 109.698 173.59 107.549 146.186 107.549 126.263 Z"/>
   </g>
   <linearGradient id="_lgradient_11" x1=".5" x2=".5" y1="-.032" y2="1.022" gradientTransform="matrix(100,0,0,-107.758,78,181.879)" gradientUnits="userSpaceOnUse">
    <stop offset="0%" style="stop-color:rgb(168,30,34)"/>
    <stop offset="39.52%" style="stop-color:rgb(208,32,38)"/>
    <stop offset="100%" style="stop-color:rgb(229,30,38)"/>
   </linearGradient>
   <path fill="url(#_lgradient_11)" d="M 78 127.459 C 78 155.941 97.997 181.879 128.001 181.879 L 128.001 181.879 C 158.008 181.879 178 155.941 178 127.459 L 178 127.459 C 178 95.449 157.419 74.121 128.001 74.121 L 128.001 74.121 C 98.579 74.121 78 95.449 78 127.459 M 107.549 126.263 C 107.549 104.754 111.023 80.993 128.003 80.993 L 128.003 80.993 C 144.981 80.993 148.426 105.006 148.426 126.516 L 148.426 126.516 C 148.426 146.441 146.306 173.59 128.003 173.59 L 128.003 173.59 C 109.698 173.59 107.549 146.186 107.549 126.263 Z"/>
  </g>
 </g>
 <g opacity=".4">
  <linearGradient id="_lgradient_12" x1=".517" x2=".517" y1="0" y2="1">
   <stop offset="0%" style="stop-color:rgb(255,255,255)"/>
   <stop offset="12.5%" stop-opacity=".098" style="stop-color:rgb(255,255,255)"/>
   <stop offset="92.5%" stop-opacity=".098" style="stop-color:rgb(0,0,0)"/>
   <stop offset="100%" stop-opacity=".498" style="stop-color:rgb(0,0,0)"/>
  </linearGradient>
  <path fill="none" stroke="url(#_lgradient_12)" stroke-linecap="round" stroke-linejoin="round" stroke-width="4.077" d="M 165.685 11.947 C 239.74 11.947 250.324 22.504 250.324 96.491 L 250.324 155.742 C 250.324 229.728 239.74 240.285 165.685 240.285 L 90.315 240.285 C 16.26 240.285 5.676 229.728 5.676 155.742 L 5.676 96.491 C 5.676 22.504 16.26 11.947 90.315 11.947 L 165.685 11.947 Z" vector-effect="non-scaling-stroke"/>
 </g>
</svg>
