<?xml version="1.0" encoding="UTF-8" standalone="no"?>
<!-- Generator: Adobe Illustrator 16.0.0, SVG Export Plug-In . SVG Version: 6.00 Build 0)  -->

<svg
   xmlns:dc="http://purl.org/dc/elements/1.1/"
   xmlns:cc="http://creativecommons.org/ns#"
   xmlns:rdf="http://www.w3.org/1999/02/22-rdf-syntax-ns#"
   xmlns:svg="http://www.w3.org/2000/svg"
   xmlns="http://www.w3.org/2000/svg"
   xmlns:xlink="http://www.w3.org/1999/xlink"
   xmlns:sodipodi="http://sodipodi.sourceforge.net/DTD/sodipodi-0.dtd"
   xmlns:inkscape="http://www.inkscape.org/namespaces/inkscape"
   version="1.1"
   x="0px"
   y="0px"
   width="256"
   height="256"
   viewBox="0 0 256 256"
   enable-background="new 0 0 256 256"
   xml:space="preserve"
   id="svg158"
   sodipodi:docname="org.musicbrainz.Picard.svg"
   inkscape:version="0.92.3 (2405546, 2018-03-11)"><metadata
     id="metadata164"><rdf:RDF><cc:Work
         rdf:about=""><dc:format>image/svg+xml</dc:format><dc:type
           rdf:resource="http://purl.org/dc/dcmitype/StillImage" /><dc:title></dc:title></cc:Work></rdf:RDF></metadata><defs
     id="defs162"><linearGradient
       gradientTransform="matrix(5.9079062,0,0,5.9079062,-154.62543,475.4013)"
       gradientUnits="userSpaceOnUse"
       xlink:href="#linearGradient3924"
       id="linearGradient4136"
       y2="43"
       x2="23.99999"
       y1="4.999989"
       x1="23.99999" /><linearGradient
       id="linearGradient3924"><stop
         offset="0"
         style="stop-color:#ffffff;stop-opacity:1"
         id="stop3926" /><stop
         offset="0.06316455"
         style="stop-color:#ffffff;stop-opacity:0.23529412"
         id="stop3928" /><stop
         offset="0.95056331"
         style="stop-color:#ffffff;stop-opacity:0.15686275"
         id="stop3930" /><stop
         offset="1"
         style="stop-color:#ffffff;stop-opacity:0.39215687"
         id="stop3932" /></linearGradient><radialGradient
       cx="7.8500957"
       cy="9.9571075"
       r="12.671875"
       fx="7.3198657"
       fy="9.9571075"
       id="radialGradient5521-1"
       xlink:href="#linearGradient2867-449-88-871-390-598-476-591-434-148-57-177-3-8-2"
       gradientUnits="userSpaceOnUse"
       gradientTransform="matrix(0,15.631225,-30.794253,0,372.81652,-140.21816)" /><linearGradient
       id="linearGradient2867-449-88-871-390-598-476-591-434-148-57-177-3-8"><stop
         offset="0"
         style="stop-color:#90dbec;stop-opacity:1"
         id="stop3750-8-9" /><stop
         offset="0.26238"
         style="stop-color:#42baea;stop-opacity:1"
         id="stop3752-3-2" /><stop
         offset="0.704952"
         style="stop-color:#3689e6;stop-opacity:1"
         id="stop3754-7-2" /><stop
         offset="1"
         style="stop-color:#2b63a0;stop-opacity:1"
         id="stop3756-9-3" /></linearGradient><radialGradient
       gradientTransform="matrix(2.003784,0,0,1.4,27.98813,-17.4)"
       gradientUnits="userSpaceOnUse"
       xlink:href="#linearGradient3688-166-749-5"
       id="radialGradient4093"
       fy="43.5"
       fx="4.9929786"
       r="2.5"
       cy="43.5"
       cx="4.9929786" /><linearGradient
       id="linearGradient3688-166-749-5"><stop
         offset="0"
         style="stop-color:#181818;stop-opacity:1"
         id="stop2883-0" /><stop
         offset="1"
         style="stop-color:#181818;stop-opacity:0"
         id="stop2885-5" /></linearGradient><radialGradient
       gradientTransform="matrix(2.003784,0,0,1.4,-20.01187,-104.4)"
       gradientUnits="userSpaceOnUse"
       xlink:href="#linearGradient3688-166-749-5"
       id="radialGradient4095"
       fy="43.5"
       fx="4.9929786"
       r="2.5"
       cy="43.5"
       cx="4.9929786" /><linearGradient
       gradientUnits="userSpaceOnUse"
       xlink:href="#linearGradient3702-501-757-0"
       id="linearGradient4097"
       y2="39.999443"
       x2="25.058096"
       y1="47.027729"
       x1="25.058096" /><linearGradient
       id="linearGradient3702-501-757-0"><stop
         offset="0"
         style="stop-color:#181818;stop-opacity:0"
         id="stop2895-0" /><stop
         offset="0.5"
         style="stop-color:#181818;stop-opacity:1"
         id="stop2897-2" /><stop
         offset="1"
         style="stop-color:#181818;stop-opacity:0"
         id="stop2899-6" /></linearGradient><radialGradient
       gradientTransform="matrix(1.0892559,-1.1117009,0.12127647,0.11882792,159.83846,241.40523)"
       gradientUnits="userSpaceOnUse"
       xlink:href="#linearGradient3811"
       id="radialGradient6276"
       fy="93.467628"
       fx="-4.0287771"
       r="35.338131"
       cy="93.467628"
       cx="-4.0287771" /><linearGradient
       id="linearGradient3811"><stop
         offset="0"
         style="stop-color:#000000;stop-opacity:1"
         id="stop3813" /><stop
         offset="1"
         style="stop-color:#000000;stop-opacity:0"
         id="stop3815" /></linearGradient><radialGradient
       gradientTransform="matrix(1.0892559,-1.1117009,0.12127647,0.11882792,74.157094,330.997)"
       gradientUnits="userSpaceOnUse"
       xlink:href="#linearGradient3811"
       id="radialGradient4377"
       fy="93.467628"
       fx="-4.0287771"
       r="35.338131"
       cy="93.467628"
       cx="-4.0287771" /><radialGradient
       gradientTransform="matrix(2.003784,0,0,1.4,27.98813,-17.4)"
       gradientUnits="userSpaceOnUse"
       xlink:href="#linearGradient3688-166-749-5"
       id="radialGradient2455-1"
       fy="43.5"
       fx="4.9929786"
       r="2.5"
       cy="43.5"
       cx="4.9929786" /><radialGradient
       gradientTransform="matrix(2.003784,0,0,1.4,-20.01187,-104.4)"
       gradientUnits="userSpaceOnUse"
       xlink:href="#linearGradient3688-166-749-5"
       id="radialGradient2457-5"
       fy="43.5"
       fx="4.9929786"
       r="2.5"
       cy="43.5"
       cx="4.9929786" /><linearGradient
       id="linearGradient2867-449-88-871-390-598-476-591-434-148-57-177-3-8-2"><stop
         offset="0"
         style="stop-color:#9fc9d2;stop-opacity:1"
         id="stop3750-8-9-9" /><stop
         offset="0.26238"
         style="stop-color:#1e9bb5;stop-opacity:1"
         id="stop3752-3-2-1" /><stop
         offset="0.704952"
         style="stop-color:#217080;stop-opacity:1"
         id="stop3754-7-2-2" /><stop
         offset="1"
         style="stop-color:#19464f;stop-opacity:1"
         id="stop3756-9-3-7" /></linearGradient><linearGradient
       y2="43.831501"
       x2="67.374496"
       y1="87.669403"
       x1="67.374496"
       gradientUnits="userSpaceOnUse"
       id="SVGID_10_-6"
       gradientTransform="matrix(0.17365486,0.17451669,-0.17365486,0.17451669,33.069077,-14.072648)"><stop
         id="stop112-6"
         style="stop-color:#777777"
         offset="0" /><stop
         id="stop114-8"
         style="stop-color:#7C7C7C"
         offset="0.2068" /><stop
         id="stop116-1"
         style="stop-color:#898989"
         offset="0.4394" /><stop
         id="stop118-9"
         style="stop-color:#A0A0A0"
         offset="0.6845" /><stop
         id="stop120-2"
         style="stop-color:#BFBFBF"
         offset="0.9368" /><stop
         id="stop122-0"
         style="stop-color:#C8C8C8"
         offset="1" /></linearGradient><linearGradient
       y2="49.163601"
       x2="67.374496"
       y1="82.337898"
       x1="67.374496"
       gradientUnits="userSpaceOnUse"
       id="SVGID_11_-9"><stop
         id="stop133-9"
         style="stop-color:#C8C8C8"
         offset="0" /><stop
         id="stop135-1"
         style="stop-color:#BFBFBF"
         offset="0.0632" /><stop
         id="stop137-4"
         style="stop-color:#A0A0A0"
         offset="0.3155" /><stop
         id="stop139-6"
         style="stop-color:#898989"
         offset="0.5606" /><stop
         id="stop141-8"
         style="stop-color:#7C7C7C"
         offset="0.7932" /><stop
         id="stop143-5"
         style="stop-color:#777777"
         offset="1" /></linearGradient><linearGradient
       gradientTransform="matrix(2.7297298,0,0,2.7297298,-256.30907,183.97657)"
       gradientUnits="userSpaceOnUse"
       xlink:href="#linearGradient3924"
       id="linearGradient3159"
       y2="43"
       x2="23.99999"
       y1="4.999989"
       x1="23.99999" /><linearGradient
       id="linearGradient4950-8"><stop
         offset="0"
         style="stop-color:#8cea99;stop-opacity:1"
         id="stop4952-7" /><stop
         offset="0.26238"
         style="stop-color:#3ab247;stop-opacity:1"
         id="stop4954-5" /><stop
         offset="0.66093999"
         style="stop-color:#347c2f;stop-opacity:1"
         id="stop4956-2" /><stop
         offset="1"
         style="stop-color:#215424;stop-opacity:1"
         id="stop4958-4" /></linearGradient><filter
       inkscape:collect="always"
       style="color-interpolation-filters:sRGB"
       id="filter4569"
       x="-0.0116"
       width="1.0232"
       y="-0.012428571"
       height="1.024857"><feGaussianBlur
         inkscape:collect="always"
         stdDeviation="1.16"
         id="feGaussianBlur4571" /></filter><filter
       inkscape:collect="always"
       style="color-interpolation-filters:sRGB"
       id="filter1112"
       x="-0.0232"
       width="1.0464"
       y="-0.024857143"
       height="1.0497143"><feGaussianBlur
         inkscape:collect="always"
         stdDeviation="2.32"
         id="feGaussianBlur1114" /></filter><linearGradient
       inkscape:collect="always"
       xlink:href="#linearGradient1013"
       id="linearGradient1108"
       x1="296"
       y1="-212"
       x2="296"
       y2="236"
       gradientUnits="userSpaceOnUse" /><linearGradient
       id="linearGradient1013"
       inkscape:collect="always"><stop
         id="stop1005"
         offset="0"
         style="stop-color:#ffffff;stop-opacity:1;" /><stop
         style="stop-color:#ffffff;stop-opacity:0.09803922"
         offset="0.125"
         id="stop1007" /><stop
         style="stop-color:#000000;stop-opacity:0.09803922"
         offset="0.92500001"
         id="stop1009" /><stop
         id="stop1011"
         offset="1"
         style="stop-color:#000000;stop-opacity:0.49803922" /></linearGradient><clipPath
       clipPathUnits="userSpaceOnUse"
       id="clipPath1082-3-452"><path
         sodipodi:nodetypes="sssssssss"
         inkscape:connector-curvature="0"
         id="path1084-6-54"
         d="M 361.9375,-212 C 507.2348,-212 528,-191.28677 528,-46.125 V 70.125 C 528,215.28618 507.2348,236 361.9375,236 H 214.0625 C 68.7652,236 48,215.28618 48,70.125 V -46.125 C 48,-191.28677 68.7652,-212 214.0625,-212 Z"
         style="display:inline;opacity:1;fill:#8c59d9;fill-opacity:1;stroke:none;stroke-width:2;stroke-linecap:round;stroke-linejoin:round;stroke-miterlimit:4;stroke-dasharray:none;stroke-dashoffset:0;stroke-opacity:1;enable-background:new" /></clipPath><clipPath
       id="SVGID_6_-3"
       clip-path="url(#SVGID_5_)"><use
         xlink:href="#SVGID_4_"
         overflow="visible"
         id="use26-6"
         style="overflow:visible"
         x="0"
         y="0"
         width="100%"
         height="100%" /></clipPath><clipPath
       id="clipPath1457"
       clip-path="url(#SVGID_5_)"><use
         xlink:href="#SVGID_4_"
         overflow="visible"
         id="use1455"
         style="overflow:visible"
         x="0"
         y="0"
         width="100%"
         height="100%" /></clipPath><clipPath
       id="clipPath1461"
       clip-path="url(#SVGID_5_)"><use
         xlink:href="#SVGID_4_"
         overflow="visible"
         id="use1459"
         style="overflow:visible"
         x="0"
         y="0"
         width="100%"
         height="100%" /></clipPath><linearGradient
       y2="43.831501"
       x2="67.374496"
       y1="87.669403"
       x1="67.374496"
       gradientUnits="userSpaceOnUse"
       id="SVGID_10_-7"><stop
         id="stop104-5"
         style="stop-color:#777777"
         offset="0" /><stop
         id="stop106-3"
         style="stop-color:#7C7C7C"
         offset="0.2068" /><stop
         id="stop108-5"
         style="stop-color:#898989"
         offset="0.4394" /><stop
         id="stop110-6"
         style="stop-color:#A0A0A0"
         offset="0.6845" /><stop
         id="stop112-2"
         style="stop-color:#BFBFBF"
         offset="0.9368" /><stop
         id="stop114-9"
         style="stop-color:#C8C8C8"
         offset="1" /></linearGradient><clipPath
       id="clipPath1472"
       clip-path="url(#SVGID_5_)"><use
         xlink:href="#SVGID_4_"
         overflow="visible"
         id="use1470"
         style="overflow:visible"
         x="0"
         y="0"
         width="100%"
         height="100%" /></clipPath><clipPath
       id="clipPath1483"
       clip-path="url(#SVGID_5_)"><use
         xlink:href="#SVGID_4_"
         overflow="visible"
         id="use1481"
         style="overflow:visible"
         x="0"
         y="0"
         width="100%"
         height="100%" /></clipPath><clipPath
       id="SVGID_6_-6"
       clip-path="url(#SVGID_5_)"><use
         xlink:href="#SVGID_4_"
         overflow="visible"
         id="use26-7"
         style="overflow:visible"
         x="0"
         y="0"
         width="100%"
         height="100%" /></clipPath><clipPath
       id="clipPath1489"
       clip-path="url(#SVGID_5_)"><use
         xlink:href="#SVGID_4_"
         overflow="visible"
         id="use1487"
         style="overflow:visible"
         x="0"
         y="0"
         width="100%"
         height="100%" /></clipPath><clipPath
       id="clipPath1500"
       clip-path="url(#SVGID_5_)"><use
         xlink:href="#SVGID_4_"
         overflow="visible"
         id="use1498"
         style="overflow:visible"
         x="0"
         y="0"
         width="100%"
         height="100%" /></clipPath><clipPath
       id="clipPath1511"
       clip-path="url(#SVGID_5_)"><use
         xlink:href="#SVGID_4_"
         overflow="visible"
         id="use1509"
         style="overflow:visible"
         x="0"
         y="0"
         width="100%"
         height="100%" /></clipPath><clipPath
       clipPathUnits="userSpaceOnUse"
       id="clipPath1082-3-361"><path
         sodipodi:nodetypes="sssssssss"
         inkscape:connector-curvature="0"
         id="path1084-6-29"
         d="M 361.9375,-212 C 507.2348,-212 528,-191.28677 528,-46.125 V 70.125 C 528,215.28618 507.2348,236 361.9375,236 H 214.0625 C 68.7652,236 48,215.28618 48,70.125 V -46.125 C 48,-191.28677 68.7652,-212 214.0625,-212 Z"
         style="display:inline;opacity:1;fill:#8c59d9;fill-opacity:1;stroke:none;stroke-width:2;stroke-linecap:round;stroke-linejoin:round;stroke-miterlimit:4;stroke-dasharray:none;stroke-dashoffset:0;stroke-opacity:1;enable-background:new" /></clipPath><clipPath
       id="SVGID_6_-2"
       clip-path="url(#SVGID_5_)"><use
         xlink:href="#SVGID_4_"
         overflow="visible"
         id="use26-70"
         style="overflow:visible"
         x="0"
         y="0"
         width="100%"
         height="100%" /></clipPath><clipPath
       id="clipPath1079"
       clip-path="url(#SVGID_5_)"><use
         xlink:href="#SVGID_4_"
         overflow="visible"
         id="use1077"
         style="overflow:visible"
         x="0"
         y="0"
         width="100%"
         height="100%" /></clipPath><clipPath
       id="clipPath1083"
       clip-path="url(#SVGID_5_)"><use
         xlink:href="#SVGID_4_"
         overflow="visible"
         id="use1081"
         style="overflow:visible"
         x="0"
         y="0"
         width="100%"
         height="100%" /></clipPath><clipPath
       id="clipPath1095"
       clip-path="url(#SVGID_5_)"><use
         xlink:href="#SVGID_4_"
         overflow="visible"
         id="use1093"
         style="overflow:visible"
         x="0"
         y="0"
         width="100%"
         height="100%" /></clipPath><clipPath
       id="clipPath1107"
       clip-path="url(#SVGID_5_)"><use
         xlink:href="#SVGID_4_"
         overflow="visible"
         id="use1105"
         style="overflow:visible"
         x="0"
         y="0"
         width="100%"
         height="100%" /></clipPath><clipPath
       id="SVGID_6_-6-5"
       clip-path="url(#SVGID_5_)"><use
         xlink:href="#SVGID_4_"
         overflow="visible"
         id="use26-0"
         style="overflow:visible"
         x="0"
         y="0"
         width="100%"
         height="100%" /></clipPath><clipPath
       id="clipPath1113"
       clip-path="url(#SVGID_5_)"><use
         xlink:href="#SVGID_4_"
         overflow="visible"
         id="use1111"
         style="overflow:visible"
         x="0"
         y="0"
         width="100%"
         height="100%" /></clipPath><clipPath
       id="clipPath1132"
       clip-path="url(#SVGID_5_)"><use
         xlink:href="#SVGID_4_"
         overflow="visible"
         id="use1130"
         style="overflow:visible"
         x="0"
         y="0"
         width="100%"
         height="100%" /></clipPath><clipPath
       id="clipPath1151"
       clip-path="url(#SVGID_5_)"><use
         xlink:href="#SVGID_4_"
         overflow="visible"
         id="use1149"
         style="overflow:visible"
         x="0"
         y="0"
         width="100%"
         height="100%" /></clipPath><clipPath
       id="SVGID_6_-8"
       clip-path="url(#SVGID_5_)"><use
         xlink:href="#SVGID_4_"
         overflow="visible"
         id="use26-4"
         style="overflow:visible"
         x="0"
         y="0"
         width="100%"
         height="100%" /></clipPath><clipPath
       id="clipPath1157"
       clip-path="url(#SVGID_5_)"><use
         xlink:href="#SVGID_4_"
         overflow="visible"
         id="use1155"
         style="overflow:visible"
         x="0"
         y="0"
         width="100%"
         height="100%" /></clipPath><clipPath
       id="clipPath1176"
       clip-path="url(#SVGID_5_)"><use
         xlink:href="#SVGID_4_"
         overflow="visible"
         id="use1174"
         style="overflow:visible"
         x="0"
         y="0"
         width="100%"
         height="100%" /></clipPath><linearGradient
       inkscape:collect="always"
       xlink:href="#linearGradient4338"
       id="linearGradient1159"
       x1="196"
       y1="160"
       x2="132"
       y2="160"
       gradientUnits="userSpaceOnUse"
       gradientTransform="matrix(0.71341428,-0.72811482,0.72811482,0.71341428,-79.439125,138.20794)" /><linearGradient
       inkscape:collect="always"
       id="linearGradient4338"><stop
         style="stop-color:#622188;stop-opacity:0.03017241"
         offset="0"
         id="stop4340" /><stop
         id="stop4346"
         offset="1"
         style="stop-color:#622188;stop-opacity:1" /></linearGradient><filter
       inkscape:collect="always"
       style="color-interpolation-filters:sRGB"
       id="filter1178"
       x="-0.013721569"
       width="1.0274431"
       y="-0.010662265"
       height="1.0213245"><feGaussianBlur
         inkscape:collect="always"
         stdDeviation="0.65791054"
         id="feGaussianBlur1180" /></filter><linearGradient
       id="linearGradient6160"><stop
         style="stop-color:#7067d2;stop-opacity:1;"
         offset="0"
         id="stop6162" /><stop
         style="stop-color:#373554;stop-opacity:1;"
         offset="1"
         id="stop6164" /></linearGradient><radialGradient
       inkscape:collect="always"
       xlink:href="#linearGradient6160"
       id="radialGradient1941"
       cx="128"
       cy="126.11621"
       fx="128"
       fy="126.11621"
       r="122.32422"
       gradientTransform="matrix(1,0,0,0.93333068,0,8.408082)"
       gradientUnits="userSpaceOnUse" /></defs><sodipodi:namedview
     pagecolor="#ffffff"
     bordercolor="#666666"
     borderopacity="1"
     objecttolerance="10"
     gridtolerance="10"
     guidetolerance="10"
     inkscape:pageopacity="0"
     inkscape:pageshadow="2"
     inkscape:window-width="1920"
     inkscape:window-height="1008"
     id="namedview160"
     showgrid="false"
     inkscape:zoom="1.5078118"
     inkscape:cx="127.99999"
     inkscape:cy="127.84472"
     inkscape:window-x="0"
     inkscape:window-y="34"
     inkscape:window-maximized="1"
     inkscape:current-layer="Layer_1" /><g
     id="Layer_1"
     transform="rotate(45.584275,128.80128,124.15286)"><defs
       id="defs18"><path
         id="SVGID_3_"
         d="M 245.46,129.523 147.569,32.625 c -5.556,-5.502 -16.222,-11.873 -23.7,-14.16 L 84.351,6.382 C 76.872,4.096 66.255,6.773 60.752,12.33 L 47.311,25.908 c -5.5,5.559 -14.502,14.653 -20.005,20.21 l -13.44,13.579 c -5.5,5.558 -8.07,16.206 -5.706,23.658 l 12.483,39.391 c 2.363,7.456 8.843,18.056 14.399,23.556 l 97.89,96.898 c 5.558,5.502 14.605,5.455 20.105,-0.101 l 36.26,-36.63 c 5.504,-5.559 14.503,-14.651 20.005,-20.209 l 36.259,-36.629 c 5.502,-5.56 5.455,-14.606 -0.101,-20.108 z M 67.375,78.783 c -7.198,0 -13.033,-5.835 -13.033,-13.033 0,-7.197 5.835,-13.033 13.033,-13.033 7.197,0 13.033,5.835 13.033,13.033 -0.001,7.198 -5.836,13.033 -13.033,13.033 z"
         inkscape:connector-curvature="0" /></defs><defs
       id="defs21"><path
         id="SVGID_4_"
         d="M 245.46,129.523 147.569,32.625 c -5.556,-5.502 -16.222,-11.873 -23.7,-14.16 L 84.351,6.382 C 76.872,4.096 66.255,6.773 60.752,12.33 L 47.311,25.908 c -5.5,5.559 -14.502,14.653 -20.005,20.21 l -13.44,13.579 c -5.5,5.558 -8.07,16.206 -5.706,23.658 l 12.483,39.391 c 2.363,7.456 8.843,18.056 14.399,23.556 l 97.89,96.898 c 5.558,5.502 14.605,5.455 20.105,-0.101 l 36.26,-36.63 c 5.504,-5.559 14.503,-14.651 20.005,-20.209 l 36.259,-36.629 c 5.502,-5.56 5.455,-14.606 -0.101,-20.108 z M 67.375,78.783 c -7.198,0 -13.033,-5.835 -13.033,-13.033 0,-7.197 5.835,-13.033 13.033,-13.033 7.197,0 13.033,5.835 13.033,13.033 -0.001,7.198 -5.836,13.033 -13.033,13.033 z"
         inkscape:connector-curvature="0" /></defs><clipPath
       id="SVGID_5_"><use
         xlink:href="#SVGID_3_"
         overflow="visible"
         id="use23"
         style="overflow:visible"
         x="0"
         y="0"
         width="100%"
         height="100%" /></clipPath><clipPath
       id="SVGID_6_"
       clip-path="url(#SVGID_5_)"><use
         xlink:href="#SVGID_4_"
         overflow="visible"
         id="use26"
         style="overflow:visible"
         x="0"
         y="0"
         width="100%"
         height="100%" /></clipPath><linearGradient
       id="SVGID_9_"
       gradientUnits="userSpaceOnUse"
       x1="136.6797"
       y1="229.4668"
       x2="136.6797"
       y2="39.945801"><stop
         offset="0"
         style="stop-color:#E6E7E8"
         id="stop59" /><stop
         offset="1"
         style="stop-color:#FFFFFF"
         id="stop61" /></linearGradient><path
       style="display:inline;opacity:0.1;fill:#000000;fill-opacity:1;stroke:none;stroke-width:2.0387361;stroke-linecap:round;stroke-linejoin:round;stroke-miterlimit:4;stroke-dasharray:none;stroke-dashoffset:0;stroke-opacity:1;filter:url(#filter4569);enable-background:new"
       d="M 90.314453 11.947266 C 16.25874 11.947266 5.675781 22.503597 5.6757812 96.490234 L 5.6757812 155.74219 C 5.6757815 229.72852 16.25874 240.28516 90.314453 240.28516 L 165.68555 240.28516 C 239.74126 240.28516 250.32422 229.72852 250.32422 155.74219 L 250.32422 96.490234 C 250.32422 22.503597 239.74126 11.947265 165.68555 11.947266 L 90.314453 11.947266 z M 127.13477 25.810547 A 14.284756 14.692892 0 0 1 141.41992 40.503906 A 14.284756 14.692892 0 0 1 127.13477 55.197266 A 14.284756 14.692892 0 0 1 112.84961 40.503906 A 14.284756 14.692892 0 0 1 127.13477 25.810547 z "
       transform="rotate(-45.584275,128.80128,124.15286)"
       id="path4567" /><path
       style="display:inline;opacity:0.2;fill:#000000;fill-opacity:1;stroke:none;stroke-width:2.0387361;stroke-linecap:round;stroke-linejoin:round;stroke-miterlimit:4;stroke-dasharray:none;stroke-dashoffset:0;stroke-opacity:1;filter:url(#filter1112);enable-background:new"
       d="M 90.314453 13.986328 C 16.25874 13.986328 5.675781 24.54266 5.6757812 98.529297 L 5.6757812 157.78125 C 5.6757815 231.76758 16.25874 242.32422 90.314453 242.32422 L 165.68555 242.32422 C 239.74126 242.32422 250.32422 231.76758 250.32422 157.78125 L 250.32422 98.529297 C 250.32422 24.54266 239.74126 13.986328 165.68555 13.986328 L 90.314453 13.986328 z M 127.44141 26.832031 A 14.998994 14.488824 0 0 1 142.43945 41.320312 A 14.998994 14.488824 0 0 1 127.44141 55.808594 A 14.998994 14.488824 0 0 1 112.44141 41.320312 A 14.998994 14.488824 0 0 1 127.44141 26.832031 z "
       transform="rotate(-45.584275,128.80128,124.15286)"
       id="path1094" /><path
       style="display:inline;opacity:1;fill:url(#radialGradient1941);fill-opacity:1;stroke:none;stroke-width:2.0387361;stroke-linecap:round;stroke-linejoin:round;stroke-miterlimit:4;stroke-dasharray:none;stroke-dashoffset:0;stroke-opacity:1;enable-background:new"
       d="M 90.314453 11.947266 C 16.258745 11.947271 5.6757797 22.503601 5.6757812 96.490234 L 5.6757812 155.74219 C 5.6757809 229.72852 16.258739 240.28515 90.314453 240.28516 L 165.68555 240.28516 C 239.74125 240.28515 250.32421 229.72852 250.32422 155.74219 L 250.32422 96.490234 C 250.32422 22.503601 239.74126 11.947264 165.68555 11.947266 L 90.314453 11.947266 z M 127.44141 26.832031 A 14.998994 14.488824 0 0 1 142.43945 41.320312 A 14.998994 14.488824 0 0 1 127.44141 55.808594 A 14.998994 14.488824 0 0 1 112.44141 41.320312 A 14.998994 14.488824 0 0 1 127.44141 26.832031 z "
       id="rect877"
       transform="rotate(-45.584275,128.80128,124.15286)" /><path
       style="display:inline;opacity:0.1;fill:#ffffff;fill-opacity:1;stroke:none;stroke-width:2.03873324;stroke-linecap:round;stroke-linejoin:round;stroke-miterlimit:4;stroke-dasharray:none;stroke-dashoffset:0;stroke-opacity:1;enable-background:new"
       d="M 127.72852 11.861328 L 127.72852 26.845703 A 14.998994 14.488824 0 0 1 142.43945 41.320312 A 14.998994 14.488824 0 0 1 127.72852 55.798828 L 127.72852 240.19922 L 165.41406 240.19922 C 239.46967 240.19923 250.05273 229.64056 250.05273 155.6543 L 250.05273 96.404297 C 250.05273 22.417777 239.46967 11.861325 165.41406 11.861328 L 127.72852 11.861328 z "
       transform="rotate(-45.584275,128.80128,124.15286)"
       id="path1099" /><g
       id="g4925"
       transform="matrix(2.1642824,0,0,2.1642824,-153.65004,-354.52236)"><g
         transform="matrix(0.44532753,0,0,0.44532753,72.783889,165.25897)"
         id="g98"
         clip-path="url(#SVGID_6_)"><g
           style="opacity:0.1"
           id="g96"><path
             inkscape:connector-curvature="0"
             id="path94"
             d="m 67.375,52.718 c 7.197,0 13.033,5.835 13.033,13.033 0,7.198 -5.835,13.033 -13.033,13.033 -7.198,0 -13.033,-5.835 -13.033,-13.033 0,-7.198 5.835,-13.033 13.033,-13.033 m 0,-10.664 c -13.066,0 -23.696,10.63 -23.696,23.696 0,13.066 10.63,23.696 23.696,23.696 13.066,0 23.696,-10.63 23.696,-23.696 0,-13.066 -10.63,-23.696 -23.696,-23.696 z" /></g></g><g
         transform="matrix(0.44532753,0,0,0.44532753,72.783889,165.25897)"
         id="g121"
         clip-path="url(#SVGID_6_)"><g
           id="g119"><g
             style="opacity:0.3"
             id="g102"><path
               inkscape:connector-curvature="0"
               id="path100"
               d="m 67.375,58.049 c 7.197,0 13.033,5.835 13.033,13.033 0,7.198 -5.835,13.033 -13.033,13.033 -7.198,0 -13.033,-5.835 -13.033,-13.033 0,-7.197 5.835,-13.033 13.033,-13.033 m 0,-8.886 c -12.086,0 -21.919,9.833 -21.919,21.919 0,12.085 9.833,21.919 21.919,21.919 12.086,0 21.919,-9.834 21.919,-21.919 C 89.293,58.996 79.46,49.163 67.375,49.163 Z" /></g><linearGradient
             y2="43.831501"
             x2="67.374496"
             y1="87.669403"
             x1="67.374496"
             gradientUnits="userSpaceOnUse"
             id="SVGID_10_"><stop
               id="stop104"
               style="stop-color:#777777"
               offset="0" /><stop
               id="stop106"
               style="stop-color:#7C7C7C"
               offset="0.2068" /><stop
               id="stop108"
               style="stop-color:#898989"
               offset="0.4394" /><stop
               id="stop110"
               style="stop-color:#A0A0A0"
               offset="0.6845" /><stop
               id="stop112"
               style="stop-color:#BFBFBF"
               offset="0.9368" /><stop
               id="stop114"
               style="stop-color:#C8C8C8"
               offset="1" /></linearGradient><path
             inkscape:connector-curvature="0"
             style="fill:url(#SVGID_10_)"
             id="path117"
             d="m 67.375,52.718 c 7.197,0 13.033,5.835 13.033,13.033 0,7.198 -5.835,13.033 -13.033,13.033 -7.198,0 -13.033,-5.835 -13.033,-13.033 0,-7.198 5.835,-13.033 13.033,-13.033 m 0,-8.886 c -12.086,0 -21.919,9.833 -21.919,21.919 0,12.085 9.833,21.919 21.919,21.919 12.086,0 21.919,-9.834 21.919,-21.919 C 89.293,53.665 79.46,43.832 67.375,43.832 Z" /></g></g><g
         transform="matrix(0.44532753,0,0,0.44532753,72.783889,165.25897)"
         id="g142"
         clip-path="url(#SVGID_6_)"><path
           style="fill:#e9e6dd"
           inkscape:connector-curvature="0"
           id="path123"
           d="m 67.375,55.888 c 5.447,0 9.862,4.416 9.862,9.862 0,5.446 -4.415,9.863 -9.862,9.863 -5.447,0 -9.863,-4.417 -9.863,-9.863 0,-5.446 4.415,-9.862 9.863,-9.862 m 0,-6.724 c -9.146,0 -16.587,7.441 -16.587,16.587 0,9.145 7.441,16.587 16.587,16.587 9.146,0 16.587,-7.442 16.587,-16.587 C 83.961,56.605 76.52,49.164 67.375,49.164 Z" /><g
           id="g140"><linearGradient
             y2="49.163601"
             x2="67.374496"
             y1="82.337898"
             x1="67.374496"
             gradientUnits="userSpaceOnUse"
             id="SVGID_11_"><stop
               id="stop125"
               style="stop-color:#C8C8C8"
               offset="0" /><stop
               id="stop127"
               style="stop-color:#BFBFBF"
               offset="0.0632" /><stop
               id="stop129"
               style="stop-color:#A0A0A0"
               offset="0.3155" /><stop
               id="stop131"
               style="stop-color:#898989"
               offset="0.5606" /><stop
               id="stop133"
               style="stop-color:#7C7C7C"
               offset="0.7932" /><stop
               id="stop135"
               style="stop-color:#777777"
               offset="1" /></linearGradient><path
             inkscape:connector-curvature="0"
             style="fill:url(#SVGID_11_)"
             id="path138"
             d="m 67.375,55.888 c 5.447,0 9.862,4.416 9.862,9.862 0,5.446 -4.415,9.863 -9.862,9.863 -5.447,0 -9.863,-4.417 -9.863,-9.863 0,-5.446 4.415,-9.862 9.863,-9.862 m 0,-6.724 c -9.146,0 -16.587,7.441 -16.587,16.587 0,9.145 7.441,16.587 16.587,16.587 9.146,0 16.587,-7.442 16.587,-16.587 C 83.961,56.605 76.52,49.164 67.375,49.164 Z" /></g></g><g
         transform="matrix(0.44532753,0,0,0.44532753,72.783889,165.25897)"
         id="g150"
         clip-path="url(#SVGID_6_)"><g
           style="opacity:0.6"
           id="g148"><path
             style="fill:#ffffff"
             inkscape:connector-curvature="0"
             id="path146"
             d="m 83.961,65.75 c 0,0 -0.027,-0.202 -0.078,-0.582 -0.067,-0.375 -0.085,-0.948 -0.265,-1.63 -0.079,-0.341 -0.165,-0.719 -0.26,-1.13 -0.13,-0.402 -0.27,-0.836 -0.42,-1.301 -0.158,-0.459 -0.39,-0.925 -0.597,-1.425 -0.223,-0.494 -0.52,-0.983 -0.792,-1.507 -0.633,-1.001 -1.37,-2.05 -2.313,-3.012 -0.902,-0.999 -2.045,-1.852 -3.253,-2.651 -1.227,-0.79 -2.628,-1.351 -4.069,-1.818 -1.44,-0.427 -3.045,-0.614 -4.496,-0.645 -1.691,0.037 -3.095,0.218 -4.585,0.646 -1.44,0.47 -2.842,1.028 -4.068,1.819 -1.209,0.799 -2.351,1.652 -3.253,2.65 -0.942,0.961 -1.678,2.011 -2.312,3.011 -0.272,0.524 -0.569,1.013 -0.792,1.507 -0.207,0.5 -0.439,0.965 -0.598,1.424 -0.15,0.464 -0.291,0.899 -0.42,1.301 -0.095,0.413 -0.182,0.792 -0.261,1.135 -0.18,0.688 -0.198,1.247 -0.266,1.624 -0.051,0.38 -0.078,0.583 -0.078,0.583 0,0 -0.006,-0.204 -0.019,-0.586 0.01,-0.381 -0.083,-0.953 0.011,-1.667 0.032,-0.36 0.068,-0.759 0.107,-1.193 0.084,-0.429 0.175,-0.894 0.273,-1.39 0.11,-0.495 0.294,-1.003 0.454,-1.553 0.176,-0.544 0.449,-1.083 0.688,-1.666 0.293,-0.555 0.598,-1.141 0.959,-1.718 0.393,-0.555 0.768,-1.16 1.262,-1.694 0.909,-1.139 2.08,-2.163 3.387,-3.077 1.318,-0.905 2.824,-1.631 4.427,-2.151 1.585,-0.495 3.428,-0.738 4.992,-0.777 1.804,0.046 3.447,0.283 5.082,0.777 1.602,0.523 3.108,1.247 4.426,2.152 1.307,0.914 2.477,1.939 3.386,3.077 0.494,0.535 0.87,1.139 1.262,1.695 0.361,0.577 0.666,1.163 0.959,1.717 0.239,0.583 0.513,1.121 0.688,1.666 0.16,0.55 0.344,1.058 0.454,1.553 0.098,0.496 0.188,0.96 0.273,1.39 0.04,0.436 0.076,0.837 0.108,1.199 0.094,0.719 0.001,1.277 0.011,1.661 -0.007,0.382 -0.014,0.586 -0.014,0.586 z" /></g></g></g><path
       sodipodi:nodetypes="sssssssss"
       inkscape:connector-curvature="0"
       id="path1068"
       d="M 361.9375,-212 C 507.2348,-212 528,-191.28677 528,-46.125 V 70.125 C 528,215.28618 507.2348,236 361.9375,236 H 214.0625 C 68.7652,236 48,215.28618 48,70.125 V -46.125 C 48,-191.28677 68.7652,-212 214.0625,-212 Z"
       style="display:inline;opacity:0.4;fill:none;fill-opacity:1;stroke:url(#linearGradient1108);stroke-width:8;stroke-linecap:round;stroke-linejoin:round;stroke-miterlimit:4;stroke-dasharray:none;stroke-dashoffset:0;stroke-opacity:1;enable-background:new"
       clip-path="url(#clipPath1082-3-452)"
       transform="matrix(0.35670713,-0.3640574,0.3640574,0.35670713,22.542533,226.66732)" /><path
       style="display:inline;opacity:0.1;fill:#ffffff;fill-opacity:1;stroke:none;stroke-width:2.03873324;stroke-linecap:round;stroke-linejoin:round;stroke-miterlimit:4;stroke-dasharray:none;stroke-dashoffset:0;stroke-opacity:1;enable-background:new"
       d="m 184.5659,233.05258 c -51.82852,52.89649 -66.77638,53.06768 -119.623553,1.28749 L 43.781573,213.60653 215.00078,38.859198 l 21.16078,20.73354 c 52.84716,51.780192 52.98085,66.728442 1.15233,119.624922 z"
       id="path1107"
       inkscape:connector-curvature="0" /><g
       transform="matrix(1.4369108,-1.2715693,1.3016854,1.4619741,-428.3839,40.707291)"
       id="g4123"
       style="opacity:0.9;fill:#ffdca9;fill-opacity:1"><path
         inkscape:connector-curvature="0"
         d="m 180.977,254.474 c -0.219,3.145 0.219,9.883 -0.438,11.906 -0.656,2.02 -2.408,7.861 -3.281,9.883 -0.307,0.709 -0.584,1.557 -0.867,2.441 l -2.004,-0.117 c 0.127,-0.33 0.27,-0.656 0.463,-0.977 1.094,-1.795 0.877,-4.492 0.877,-4.492 0,0 2.188,-6.514 2.623,-8.535 0.439,-2.021 -0.654,-7.639 -0.436,-9.213 0.221,-1.57 0.875,-2.471 1.969,-5.615 1.094,-3.146 -0.439,-6.963 -0.656,-8.313 -0.219,-1.346 -0.656,-6.289 -1.096,-7.637 -0.436,-1.35 -3.061,-5.393 -3.227,-6.348 -0.164,-0.955 -4.41,-2.137 -4.41,-2.137 -0.221,-2.246 -1.551,-3.873 -1.551,-3.873 0,-2.246 -7.658,-8.537 -7.658,-8.537 -2.406,-1.797 -13.346,-5.615 -16.189,-6.291 -2.847,-0.672 -4.378,1.125 -4.378,1.125 -3.721,-1.797 -7.002,0 -9.189,1.348 -2.187,1.348 -2.406,3.594 -2.406,3.594 -1.314,1.574 -1.094,-2.021 -1.094,-2.021 0,0 0.873,-4.492 4.156,-5.615 3.281,-1.125 8.752,-0.451 8.752,-0.451 7.44,-1.57 19.255,4.27 22.757,6.965 3.5,2.697 11.156,12.355 11.156,12.355 0,0 2.408,2.023 4.594,6.74 2.189,4.719 2.627,14.828 2.408,16.85 -0.219,2.022 -0.657,3.818 -0.875,6.965 z"
         id="path4125"
         style="fill:#ffdca9;fill-opacity:1" /><g
         id="g4127"
         style="fill:#ffdca9;fill-opacity:1"><path
           inkscape:connector-curvature="0"
           d="m 148.453,210.265 c -0.635,-1.088 -3.17,1.086 -5.071,1.086 -1.902,0 -5.389,-1.305 -7.609,-0.869 -2.219,0.436 -5.072,2.176 -5.705,3.697 -0.635,1.521 0.951,7.176 2.854,7.611 0,0 -3.172,3.48 -1.588,4.785 1.588,1.305 2.221,0 2.221,-0.652 0,-0.652 -0.318,-2.393 0.951,-2.828 1.268,-0.434 2.854,-1.957 2.854,-1.957 0,0 -2.537,0 -3.805,-1.305 -1.27,-1.305 -0.635,-3.697 0,-4.785 0.633,-1.088 2.217,-3.045 3.805,-3.045 1.584,0 4.754,1.305 6.976,1.088 2.215,-0.217 4.752,-1.738 4.117,-2.826 z"
           id="path4129"
           style="fill:#ffdca9;fill-opacity:1" /><path
           inkscape:connector-curvature="0"
           d="m 153.525,216.571 c 0,0 3.486,3.914 0,8.48 -3.486,4.568 -3.17,2.611 -3.17,2.611 l 1.268,1.74 c 0,0 2.535,-3.697 4.756,-3.48 2.219,0.217 5.072,2.174 6.023,5.438 0.951,3.262 -1.268,5.873 -4.121,6.307 -2.854,0.436 -13.633,-0.652 -13.633,-0.652 0,0 0.953,0.652 0.635,1.74 -0.316,1.086 -0.949,2.393 -0.949,2.393 0,0 2.535,-2.176 8.875,-1.959 6.34,0.219 8.561,1.305 11.096,5.438 2.535,4.133 0.949,10.221 -0.318,11.744 -1.267,1.523 -6.975,1.959 -7.607,3.48 -0.632,1.521 1.268,3.045 1.586,4.131 0.316,1.088 -0.951,1.959 -0.951,1.959 0,0 3.486,-1.523 6.021,-1.305 2.537,0.217 7.293,2.609 7.293,2.609 0,0 -0.953,0.436 -0.635,1.088 0.318,0.652 0.951,1.305 0.635,1.957 -0.316,0.652 -1.268,1.086 -1.268,1.086 0,0 1.584,0.219 2.535,-1.086 0.951,-1.305 -0.951,-1.523 -0.316,-2.176 0.633,-0.652 1.902,-0.434 1.902,-0.434 0,0 -0.953,-0.219 -2.537,-2.176 -1.584,-1.957 -2.219,-3.045 -4.438,-3.045 -2.221,0 -4.756,0.217 -4.756,0.217 0,0 -2.219,-0.869 -1.268,-2.174 0.951,-1.305 8.242,-2.176 8.242,-2.176 0,0 -2.219,-1.305 -2.219,-2.391 0,-1.088 1.584,-3.264 4.438,-4.785 2.854,-1.523 5.072,-3.916 5.072,-8.482 0,-4.566 1.209,-5.607 3.109,-7.348 l -0.666,-3 c 0,0 -1.809,4.041 -3.711,5.346 l -4.756,-2.176 c 0,0 0.951,2.828 3.488,3.916 0,0 1.9,3.697 0.316,6.307 -1.586,2.609 -5.707,4.566 -5.707,4.566 0,0 -1.268,-6.307 -1.902,-7.611 -0.633,-1.305 -1.902,-2.609 -2.219,-3.48 -0.316,-0.869 1.904,-6.307 1.586,-8.047 -0.318,-1.738 -2.854,-6.959 -7.609,-7.395 10e-4,0.001 -0.633,-7.61 -4.12,-7.175 z"
           id="path4131"
           style="fill:#ffdca9;fill-opacity:1" /><path
           inkscape:connector-curvature="0"
           d="m 146.551,227.444 c 0,0 2.537,-0.65 4.756,0.436 2.219,1.088 3.805,4.35 1.902,6.09 0,0 -0.951,0.652 -1.902,-0.436 0,0 0.316,-4.566 -1.586,-5.002 -1.902,-0.436 -3.17,-1.088 -3.17,-1.088 z"
           id="path4133"
           style="fill:#ffdca9;fill-opacity:1" /><path
           inkscape:connector-curvature="0"
           d="m 149.088,221.573 c 0,0 -3.486,-1.521 -6.657,-0.652 -3.17,0.869 -5.072,4.783 -5.072,4.783 0,0 -1.586,-2.826 1.268,-5 2.854,-2.176 7.608,-0.871 9.827,-0.652 2.218,0.217 2.536,0.433 0.634,1.521 z"
           id="path4135"
           style="fill:#ffdca9;fill-opacity:1" /><path
           inkscape:connector-curvature="0"
           d="m 144.967,219.833 c 0,0 -0.951,-1.74 0.316,-2.174 1.268,-0.436 2.854,-0.871 2.219,-1.523 -0.633,-0.652 -3.803,0.652 -4.755,2.609 -0.951,1.959 -0.951,1.959 -0.951,1.959 z"
           id="path4137"
           style="fill:#ffdca9;fill-opacity:1" /><path
           inkscape:connector-curvature="0"
           d="m 142.431,228.751 c 0,0 -6.023,5.436 -6.023,11.09 0,5.656 2.854,10.223 5.072,10.223 2.22,0 2.222,-1.957 3.804,-1.523 1.586,0.436 3.805,2.395 1.586,2.828 -2.221,0.436 -4.438,1.305 -6.341,0.436 -1.902,-0.871 -4.121,-1.959 -5.391,-3.916 -1.266,-1.957 -0.949,-6.088 -1.266,-8.264 -0.318,-2.176 3.801,-9.787 5.389,-10.873 1.584,-1.089 3.17,-1.96 3.17,-0.001 z"
           id="path4139"
           style="fill:#ffdca9;fill-opacity:1" /><path
           inkscape:connector-curvature="0"
           d="m 156.063,246.149 c 0,0 -2.537,-0.436 -3.488,-1.523 -0.951,-1.086 -1.266,0.219 -0.633,2.393 0.633,2.174 0.951,5.654 0.316,7.178 -0.635,1.521 -3.488,5.654 -7.291,5.219 -3.806,-0.436 -5.073,-1.521 -6.024,-2.826 -0.951,-1.307 -2.852,-1.523 -3.17,-0.219 -0.316,1.305 0.949,2.828 1.586,3.697 0.633,0.869 0.316,0.869 2.219,1.521 1.902,0.654 5.706,1.523 8.876,0.436 3.17,-1.087 6.023,-5.871 6.023,-7.395 0,-1.522 0.634,-6.307 1.586,-8.481 z"
           id="path4141"
           style="fill:#ffdca9;fill-opacity:1" /></g><path
         inkscape:connector-curvature="0"
         d="m 178.826,265.321 c 0,0 -0.344,-8.244 -2.678,-9.91 -2.334,-1.666 -3.008,-1.418 -3.08,-2.137 -0.055,-0.555 -0.109,-0.748 1.555,-0.693 1.332,0.045 4.871,2.406 4.871,2.406 z"
         id="path4143"
         style="fill:#ffdca9;fill-opacity:1" /><path
         inkscape:connector-curvature="0"
         d="m 151.16,207.987 c 0,0 3,1 2.334,2.666 -0.668,1.668 -0.666,2.334 0.666,2.334 1.334,0 2,-2 3.666,-1.334 1.668,0.668 0.334,3.334 2,3.668 1.668,0.332 2.334,-0.002 3.334,0.332 1,0.334 4.666,3 4.334,4.334 -0.334,1.332 -3.668,-2 -4.668,-1.334 -1,0.668 -2.666,1.666 -1.332,2.334 1.332,0.666 5.332,0.666 7,2.334 1.666,1.666 2.092,2.613 3,1.666 0.949,-0.994 -2,-7 -4,-8.666 -2,-1.668 -13,-9.002 -16.334,-8.334 z"
         id="path4145"
         style="fill:#ffdca9;fill-opacity:1" /><path
         inkscape:connector-curvature="0"
         d="m 172.324,236.685 c 0,0 1.689,0.705 2.205,0.518 0.518,-0.189 1.83,-1.361 2.488,-2.629 0.656,-1.268 0.375,-2.254 0.094,-2.91 l 1.408,1.408 0.752,5.115 -0.424,-0.375 c 0,0 -0.141,-1.268 -0.609,-1.221 -0.468,0.047 -1.502,0.939 -1.502,0.939 l -3.004,0.422 -1.455,-0.846 z"
         id="path4147"
         style="fill:#ffdca9;fill-opacity:1" /><path
         inkscape:connector-curvature="0"
         d="m 176.592,253.274 c 0,0 1.055,0.555 1.525,0.334 0.473,-0.223 0.666,-1 0.666,-1 l -0.416,2.109 h -1.109 z"
         id="path4149"
         style="fill:#ffdca9;fill-opacity:1" /><path
         inkscape:connector-curvature="0"
         d="m 137.493,255.821 c -0.869,0.521 -1.693,0.93 -1.525,1.43 0.166,0.5 1.525,13.736 7.526,14.07 6,0.332 11.166,-1.5 14.166,0.5 3,2 -0.334,3.832 -0.334,3.832 0,0 -0.334,2.334 2.334,0.5 0,0 0.832,0.5 1,0 0.166,-0.5 0.334,-3.998 -1.166,-4.832 -1.5,-0.834 -3.668,-1.5 -4.668,-2.168 -1,-0.666 -7.836,0.76 -9.67,0.432 -3.843,-0.691 -3.579,-4.029 -5.079,-6.529 -1.5,-2.5 -1.752,-7.735 -2.584,-7.235 z"
         id="path4151"
         style="fill:#ffdca9;fill-opacity:1" /><path
         inkscape:connector-curvature="0"
         d="m 176.826,269.653 c 0,0 -1.332,3.668 -3.332,3.668 0,0 2.666,1 2.332,2.332 -0.332,1.334 1,-6 1,-6 z"
         id="path4153"
         style="fill:#ffdca9;fill-opacity:1" /><path
         inkscape:connector-curvature="0"
         d="m 159.326,274.999 c 0,0 2.922,-0.893 5.254,-0.797 2.334,0.094 3.338,2.086 3.338,2.086 0,0 -2.432,-0.986 -3.758,-0.967 -1.328,0.02 -3.676,1.023 -3.676,1.023 z"
         id="path4155"
         style="fill:#ffdca9;fill-opacity:1" /><path
         inkscape:connector-curvature="0"
         d="m 144.059,275.64 c 0,0 -1.548,-3.174 -4.548,-3.361 -3,-0.187 -2.559,-0.207 -3.559,-0.395 -1,-0.188 -2.584,-3.418 -3.646,-3.668 -1.062,-0.25 -1.438,-0.625 -1.875,-0.438 -0.437,0.187 -0.188,0.688 0.063,0.813 0.251,0.125 1.188,0.25 1.625,0.5 0.437,0.25 1.25,2.875 3,3.688 1.75,0.813 3.111,0.895 3.799,1.082 0.688,0.187 2.893,1.395 3.955,2.77 -10e-4,-10e-4 1.582,0.591 1.186,-0.991 z"
         id="path4157"
         style="fill:#ffdca9;fill-opacity:1" /></g><path
       sodipodi:nodetypes="cccccccccccsccccccccsccsccccccssccccccccsc"
       inkscape:connector-curvature="0"
       id="path1164"
       d="m 194.32031,83.566406 c -1.87857,-0.0209 -4.37616,0.272105 -7.69922,0.771485 l -53.27148,8.455078 C 119.99932,95.635739 120.04514,96.519984 120,107.79883 V 129.88477 141 199.31445 c -0.55679,-0.39 -1.10598,-0.78219 -1.68164,-1.16797 v 0.004 c -4.24148,-2.84237 -8.76205,-4.86522 -14.83398,-4.86523 -7.605519,0 -12.141098,2.91223 -14.886724,6.74804 -2.745605,3.83581 -3.65625,8.67073 -3.65625,12.40821 0,4.5069 1.538792,9.31691 4.876953,12.98242 3.33817,3.6655 8.470411,6.23232 15.849611,6.23242 8.3328,0 14.19429,-2.32681 17.50781,-6.87109 2.6089,-3.57788 4.05156,-8.35783 4.56641,-14.25391 v -0.01 -0.006 c 0.0721,-0.7153 0.1244,-1.45005 0.16992,-2.20703 0.0699,-1.16546 0.0547,-3.3457 0.0547,-3.3457 v -70.07227 c 0,-10.01023 -4.9e-4,-10.60779 13.35351,-12.89062 l 37.29883,-6.16797 C 191.9972,114.0814 192,115.30873 192,122.81641 V 129 187.12305 c -0.54184,-0.37965 -1.07687,-0.76155 -1.63672,-1.13672 v 0.004 c -4.24148,-2.84237 -8.76009,-4.86521 -14.83203,-4.86523 -7.60555,0 -12.14304,2.91224 -14.88867,6.74805 -2.7456,3.83581 -3.65625,8.6707 -3.65625,12.4082 0,4.50688 1.54074,9.31693 4.8789,12.98242 3.33817,3.6655 8.47036,6.23426 15.84961,6.23438 8.3328,0 14.1943,-2.32877 17.50782,-6.87305 2.6089,-3.57788 4.04961,-8.35586 4.56445,-14.25195 v -0.01 -0.008 c 0.0721,-0.71533 0.12443,-1.44811 0.16992,-2.20508 0.0699,-1.16547 0.0566,-3.34766 0.0566,-3.34766 V 115.30859 95.316406 c 0,-8.77962 -0.0577,-11.68721 -5.69336,-11.75 z"
       style="font-style:normal;font-variant:normal;font-weight:normal;font-stretch:normal;font-size:15px;line-height:125%;font-family:Ubuntu;-inkscape-font-specification:Ubuntu;text-align:center;letter-spacing:0px;word-spacing:0px;writing-mode:lr-tb;text-anchor:middle;display:inline;opacity:0.1;fill:#000000;fill-opacity:1;stroke:none;stroke-width:1.66771364;filter:url(#filter1178);enable-background:new"
       transform="matrix(0.71341428,-0.72811482,0.72811482,0.71341428,-79.439105,138.20796)" /><path
       style="font-style:normal;font-variant:normal;font-weight:normal;font-stretch:normal;font-size:15px;line-height:125%;font-family:Ubuntu;-inkscape-font-specification:Ubuntu;text-align:center;letter-spacing:0px;word-spacing:0px;writing-mode:lr-tb;text-anchor:middle;display:inline;fill:#fef8f8;fill-opacity:1;stroke:none;stroke-width:1.700014;enable-background:new"
       d="m 119.30957,55.6245 c -1.35639,1.351941 -2.92385,3.380488 -4.93101,6.156277 L 82.530215,106.60054 c -7.45444,11.7486 -6.77791,12.34607 1.40218,20.42542 l 16.081105,15.75642 8.09317,7.92978 42.45961,41.60236 c -0.6812,0.12717 -1.35854,0.24726 -2.05012,0.39118 l 0.003,0.003 c -5.09551,1.0605 -9.79342,2.90886 -14.12523,7.32992 -5.42588,5.53769 -6.54119,10.91774 -5.70707,15.65337 0.83416,4.73564 3.70488,8.84801 6.4262,11.51439 3.28153,3.21527 7.88157,5.52639 12.93199,5.71087 5.05039,0.18443 10.58074,-1.72123 15.84525,-7.09405 5.94473,-6.06723 8.43222,-11.99506 7.48737,-17.64965 -0.74388,-4.45207 -3.19502,-8.91258 -7.12074,-13.4938 l -0.008,-0.008 -0.006,-0.006 c -0.46937,-0.56281 -0.96704,-1.12504 -1.48574,-1.69825 -0.79874,-0.88231 -2.39701,-2.42672 -2.39701,-2.42672 l -51.02056,-49.99014 c -7.28857,-7.14142 -7.72402,-7.56738 0.14073,-18.91923 l 22.11853,-31.558156 c 8.26964,-10.98947 9.16527,-10.115911 14.63172,-4.759825 l 4.50236,4.411455 42.32025,41.465826 c -0.66297,0.12368 -1.32273,0.24079 -1.99531,0.38077 l 0.003,0.003 c -5.09549,1.06049 -9.79201,2.90742 -14.12381,7.32848 -5.42592,5.53772 -6.54259,10.91916 -5.70845,15.65482 0.83417,4.73564 3.70484,8.84796 6.42619,11.51436 3.28152,3.21527 7.88298,5.525 12.93336,5.70945 5.0504,0.18443 10.58215,-1.71978 15.84669,-7.09265 5.94473,-6.06723 8.43079,-11.99645 7.48593,-17.65104 -0.74387,-4.45209 -3.19497,-8.90977 -7.1207,-13.49098 l -0.008,-0.008 -0.006,-0.006 c -0.46938,-0.5628 -0.9656,-1.12369 -1.4843,-1.69685 -0.79878,-0.88233 -2.39711,-2.42948 -2.39711,-2.42948 L 146.48052,74.121717 131.92393,59.859028 c -6.39259,-6.263528 -8.5508,-8.295845 -12.61708,-4.237207 z"
       id="path4393"
       inkscape:connector-curvature="0"
       sodipodi:nodetypes="cccccccccccsccccccccsccsccccccssccccccccsc" /><path
       style="font-style:normal;font-variant:normal;font-weight:normal;font-stretch:normal;font-size:15px;line-height:125%;font-family:Ubuntu;-inkscape-font-specification:Ubuntu;text-align:center;letter-spacing:0px;word-spacing:0px;writing-mode:lr-tb;text-anchor:middle;display:inline;opacity:0.1;fill:url(#linearGradient1159);fill-opacity:1;stroke:none;stroke-width:1.700014;enable-background:new"
       d="m 77.391885,117.00231 c -0.35432,3.21827 1.85655,5.39737 6.54051,10.02365 l 16.081105,15.75642 8.09317,7.92978 42.45961,41.60236 c -0.6812,0.12717 -1.35854,0.24726 -2.05012,0.39118 l 0.003,0.003 c -5.09551,1.0605 -9.79342,2.90886 -14.12523,7.32992 -5.42588,5.5377 -6.54119,10.91774 -5.70707,15.65337 0.83416,4.73564 3.70488,8.84801 6.4262,11.51439 3.28153,3.21527 7.88157,5.52639 12.93199,5.71087 5.05039,0.18443 10.58074,-1.72123 15.84525,-7.09405 5.94473,-6.06723 8.43222,-11.99506 7.48737,-17.64965 -0.74388,-4.45207 -3.19502,-8.91258 -7.12074,-13.4938 l -0.008,-0.008 -0.006,-0.006 c -0.46937,-0.56281 -0.96704,-1.12504 -1.48574,-1.69825 -0.79874,-0.88231 -2.39701,-2.42672 -2.39701,-2.42672 l -51.02056,-49.99014 c -7.28857,-7.14142 -7.72402,-7.56738 0.14073,-18.91923 l 22.11853,-31.558156 c 2.10477,-2.797003 3.72782,-4.818243 5.07417,-6.200004 z M 140.91291,81.507876 c 1.55572,0.13982 3.04073,1.574507 5.31982,3.807585 l 4.50236,4.411456 42.32025,41.465823 c -0.66297,0.12368 -1.32273,0.24079 -1.99531,0.38077 l 0.003,0.003 c -5.09549,1.06048 -9.79201,2.90742 -14.12382,7.32849 -5.42591,5.53771 -6.54258,10.91915 -5.70844,15.65481 0.83417,4.73564 3.70487,8.84799 6.42618,11.51436 3.28153,3.21528 7.88299,5.525 12.93337,5.70946 5.0504,0.18443 10.58214,-1.71979 15.84668,-7.09265 5.94474,-6.06724 8.4308,-11.99647 7.48596,-17.65105 -0.74388,-4.45209 -3.19499,-8.90977 -7.12072,-13.49098 l -0.008,-0.008 -0.006,-0.006 c -0.4694,-0.56283 -0.96563,-1.12372 -1.48433,-1.69687 -0.79878,-0.88233 -2.3971,-2.42948 -2.3971,-2.42948 L 149.25832,76.843479 Z"
       id="path1129"
       inkscape:connector-curvature="0" /><path
       style="font-style:normal;font-variant:normal;font-weight:normal;font-stretch:normal;font-size:15px;line-height:125%;font-family:Ubuntu;-inkscape-font-specification:Ubuntu;text-align:center;letter-spacing:0px;word-spacing:0px;writing-mode:lr-tb;text-anchor:middle;display:inline;fill:#ffffff;fill-opacity:1;stroke:none;stroke-width:1.700014;enable-background:new"
       d="m 119.30957,55.6245 c -1.35639,1.351941 -2.92385,3.380488 -4.93101,6.156277 L 82.530215,106.60054 c -7.45444,11.7486 -6.77791,12.34607 1.40218,20.42542 l 1.45624,1.42684 c -8.18009,-8.07934 -8.85662,-8.67682 -1.4022,-20.42545 L 115.8348,63.207617 c 2.00711,-2.775842 3.57559,-4.803384 4.93098,-6.156303 4.0662,-4.058718 6.22452,-2.026295 12.61709,4.237206 l -1.45622,-1.426814 c -6.39259,-6.263527 -8.5508,-8.295845 -12.61708,-4.237206 z m 57.62947,83.28028 c -5.42591,5.53771 -6.54255,10.91918 -5.70844,15.65481 0.83417,4.73564 3.70486,8.84798 6.42618,11.51436 0.20356,0.19945 0.42615,0.38421 0.63948,0.57632 -2.45717,-2.65277 -4.85841,-6.40054 -5.60937,-10.66388 -0.83414,-4.73567 0.28254,-10.1171 5.70845,-15.65482 4.3318,-4.42106 9.02831,-6.268 14.12382,-7.3285 l -0.003,-0.003 c 0.67257,-0.14 1.33235,-0.25709 1.99532,-0.38077 l -1.45621,-1.42681 c -0.663,0.12365 -1.32276,0.24076 -1.99535,0.38074 l 0.003,0.003 c -5.09551,1.0605 -9.79199,2.90745 -14.12383,7.3285 z m -42.54527,61.13362 c -5.42589,5.53769 -6.5412,10.91774 -5.70705,15.6534 0.83416,4.73564 3.70488,8.84801 6.42618,11.51436 0.20355,0.19945 0.42612,0.38418 0.63949,0.57631 -2.45718,-2.65277 -4.85842,-6.40053 -5.60938,-10.66388 -0.83415,-4.73566 0.28116,-10.1157 5.70704,-15.65339 4.33181,-4.42107 9.02972,-6.26943 14.12523,-7.32993 l -0.003,-0.003 c 0.69158,-0.14392 1.36895,-0.26398 2.05012,-0.39118 l -1.45621,-1.42681 c -0.6812,0.12717 -1.35857,0.24724 -2.05012,0.39118 l 0.003,0.003 c -5.09551,1.0605 -9.7934,2.90889 -14.12523,7.32993 z"
       id="path1201"
       inkscape:connector-curvature="0" /></g></svg>