<svg xmlns="http://www.w3.org/2000/svg" style="isolation:isolate" width="256" height="256"><switch><g><defs><filter id="a" width="270.648" height="254.338" x="-7.32" y="2.95" filterUnits="userSpaceOnUse"><feGaussianBlur xmlns="http://www.w3.org/2000/svg" in="SourceGraphic" stdDeviation="4.294"/><feOffset xmlns="http://www.w3.org/2000/svg" dy="4" result="pf_100_offsetBlur"/><feFlood xmlns="http://www.w3.org/2000/svg" flood-opacity=".4"/><feComposite xmlns="http://www.w3.org/2000/svg" in2="pf_100_offsetBlur" operator="in" result="pf_100_dropShadow"/><feBlend xmlns="http://www.w3.org/2000/svg" in="SourceGraphic" in2="pf_100_dropShadow"/></filter></defs><path fill="#F7F7F7" d="M165.689 11.95c74.056 0 84.639 10.557 84.639 84.544v59.251c0 73.986-10.583 84.543-84.639 84.543h-75.37c-74.055 0-84.639-10.557-84.639-84.543V96.494c0-73.987 10.584-84.544 84.639-84.544h75.37z" filter="url(#a)"/><g opacity=".4"><linearGradient id="b" x1=".517" x2=".517" y2="1"><stop offset="0%" stop-color="#fff"/><stop offset="12.5%" stop-opacity=".098" stop-color="#fff"/><stop offset="92.5%" stop-opacity=".098"/><stop offset="100%" stop-opacity=".498"/></linearGradient><path fill="none" stroke="url(#b)" stroke-linecap="round" stroke-linejoin="round" stroke-width="4.077" d="M165.685 11.947c74.055 0 84.639 10.557 84.639 84.544v59.251c0 73.986-10.584 84.543-84.639 84.543h-75.37c-74.055 0-84.639-10.557-84.639-84.543V96.491c0-73.987 10.584-84.544 84.639-84.544h75.37z" vector-effect="non-scaling-stroke"/></g><defs><filter id="c" width="226" height="211" x="15" y="22.5" filterUnits="userSpaceOnUse"><feGaussianBlur xmlns="http://www.w3.org/2000/svg" in="SourceGraphic" stdDeviation="4.294"/><feOffset xmlns="http://www.w3.org/2000/svg" result="pf_100_offsetBlur"/><feFlood xmlns="http://www.w3.org/2000/svg" flood-opacity=".4"/><feComposite xmlns="http://www.w3.org/2000/svg" in2="pf_100_offsetBlur" operator="in" result="pf_100_dropShadow"/><feBlend xmlns="http://www.w3.org/2000/svg" in="SourceGraphic" in2="pf_100_dropShadow"/></filter></defs><path fill="#4D4D4D" d="M97.193 35.5c-30.272 0-47.565 2.134-57.298 11.769C30.161 56.904 28 74.024 28 103.997v48.006c0 29.973 2.161 47.093 11.895 56.728 9.733 9.635 27.026 11.769 57.298 11.769h61.614c30.272 0 47.565-2.134 57.298-11.769 9.734-9.635 11.895-26.755 11.895-56.728v-48.006c0-29.973-2.161-47.093-11.895-56.728-9.733-9.635-27.026-11.769-57.298-11.769H97.193z" filter="url(#c)"/><defs><filter id="d" width="54" height="54" x="155.54" y="157.06" filterUnits="userSpaceOnUse"><feGaussianBlur xmlns="http://www.w3.org/2000/svg" in="SourceGraphic" stdDeviation=".429"/><feOffset xmlns="http://www.w3.org/2000/svg" dy="2" result="pf_100_offsetBlur"/><feFlood xmlns="http://www.w3.org/2000/svg" flood-opacity=".2"/><feComposite xmlns="http://www.w3.org/2000/svg" in2="pf_100_offsetBlur" operator="in" result="pf_100_dropShadow"/><feBlend xmlns="http://www.w3.org/2000/svg" in="SourceGraphic" in2="pf_100_dropShadow"/></filter></defs><path fill="#A6D74F" d="M168.886 157.058h27.319c6.259 0 11.34 5.082 11.34 11.341v27.319c0 6.259-5.081 11.34-11.34 11.34h-27.319c-6.259 0-11.341-5.081-11.341-11.34v-27.319c0-6.259 5.082-11.341 11.341-11.341z" filter="url(#d)"/><defs><filter id="e" width="54" height="54" x="101" y="103" filterUnits="userSpaceOnUse"><feGaussianBlur xmlns="http://www.w3.org/2000/svg" in="SourceGraphic" stdDeviation=".429"/><feOffset xmlns="http://www.w3.org/2000/svg" dy="2" result="pf_100_offsetBlur"/><feFlood xmlns="http://www.w3.org/2000/svg" flood-opacity=".2"/><feComposite xmlns="http://www.w3.org/2000/svg" in2="pf_100_offsetBlur" operator="in" result="pf_100_dropShadow"/><feBlend xmlns="http://www.w3.org/2000/svg" in="SourceGraphic" in2="pf_100_dropShadow"/></filter></defs><path fill="#DA1636" d="M114.34 102.999h27.32c6.259 0 11.34 5.082 11.34 11.34v27.32c0 6.259-5.081 11.34-11.34 11.34h-27.32c-6.259 0-11.34-5.081-11.34-11.34v-27.32c0-6.258 5.081-11.34 11.34-11.34z" filter="url(#e)"/><defs><filter id="f" width="54" height="54" x="155.54" y="103" filterUnits="userSpaceOnUse"><feGaussianBlur xmlns="http://www.w3.org/2000/svg" in="SourceGraphic" stdDeviation=".429"/><feOffset xmlns="http://www.w3.org/2000/svg" dy="2" result="pf_100_offsetBlur"/><feFlood xmlns="http://www.w3.org/2000/svg" flood-opacity=".2"/><feComposite xmlns="http://www.w3.org/2000/svg" in2="pf_100_offsetBlur" operator="in" result="pf_100_dropShadow"/><feBlend xmlns="http://www.w3.org/2000/svg" in="SourceGraphic" in2="pf_100_dropShadow"/></filter></defs><path fill="#E4E2E9" d="M168.886 102.999h27.319c6.259 0 11.34 5.082 11.34 11.34v27.32c0 6.259-5.081 11.34-11.34 11.34h-27.319c-6.259 0-11.341-5.081-11.341-11.34v-27.32c0-6.258 5.082-11.34 11.341-11.34z" filter="url(#f)"/><defs><filter id="g" width="54" height="54" x="46.45" y="48.94" filterUnits="userSpaceOnUse"><feGaussianBlur xmlns="http://www.w3.org/2000/svg" in="SourceGraphic" stdDeviation=".429"/><feOffset xmlns="http://www.w3.org/2000/svg" dy="2" result="pf_100_offsetBlur"/><feFlood xmlns="http://www.w3.org/2000/svg" flood-opacity=".2"/><feComposite xmlns="http://www.w3.org/2000/svg" in2="pf_100_offsetBlur" operator="in" result="pf_100_dropShadow"/><feBlend xmlns="http://www.w3.org/2000/svg" in="SourceGraphic" in2="pf_100_dropShadow"/></filter></defs><path fill="#C3C4C2" d="M59.795 48.942h27.319c6.259 0 11.341 5.081 11.341 11.34v27.319c0 6.259-5.082 11.341-11.341 11.341H59.795c-6.259 0-11.34-5.082-11.34-11.341V60.282c0-6.259 5.081-11.34 11.34-11.34z" filter="url(#g)"/><defs><filter id="h" width="54" height="54" x="101" y="48.94" filterUnits="userSpaceOnUse"><feGaussianBlur xmlns="http://www.w3.org/2000/svg" in="SourceGraphic" stdDeviation=".429"/><feOffset xmlns="http://www.w3.org/2000/svg" dy="2" result="pf_100_offsetBlur"/><feFlood xmlns="http://www.w3.org/2000/svg" flood-opacity=".2"/><feComposite xmlns="http://www.w3.org/2000/svg" in2="pf_100_offsetBlur" operator="in" result="pf_100_dropShadow"/><feBlend xmlns="http://www.w3.org/2000/svg" in="SourceGraphic" in2="pf_100_dropShadow"/></filter></defs><path fill="#F76363" d="M114.34 48.942h27.32c6.259 0 11.34 5.081 11.34 11.34v27.319c0 6.259-5.081 11.341-11.34 11.341h-27.32c-6.259 0-11.34-5.082-11.34-11.341V60.282c0-6.259 5.081-11.34 11.34-11.34z" filter="url(#h)"/><defs><filter id="i" width="54" height="54" x="155.54" y="48.94" filterUnits="userSpaceOnUse"><feGaussianBlur xmlns="http://www.w3.org/2000/svg" in="SourceGraphic" stdDeviation=".429"/><feOffset xmlns="http://www.w3.org/2000/svg" dy="2" result="pf_100_offsetBlur"/><feFlood xmlns="http://www.w3.org/2000/svg" flood-opacity=".2"/><feComposite xmlns="http://www.w3.org/2000/svg" in2="pf_100_offsetBlur" operator="in" result="pf_100_dropShadow"/><feBlend xmlns="http://www.w3.org/2000/svg" in="SourceGraphic" in2="pf_100_dropShadow"/></filter></defs><path fill="#E4E2E9" d="M168.886 48.942h27.319c6.259 0 11.34 5.081 11.34 11.34v27.319c0 6.259-5.081 11.341-11.34 11.341h-27.319c-6.259 0-11.341-5.082-11.341-11.341V60.282c0-6.259 5.082-11.34 11.341-11.34z" filter="url(#i)"/><defs><filter id="j" width="54" height="54" x="46.45" y="103" filterUnits="userSpaceOnUse"><feGaussianBlur xmlns="http://www.w3.org/2000/svg" in="SourceGraphic" stdDeviation=".429"/><feOffset xmlns="http://www.w3.org/2000/svg" dy="2" result="pf_100_offsetBlur"/><feFlood xmlns="http://www.w3.org/2000/svg" flood-opacity=".2"/><feComposite xmlns="http://www.w3.org/2000/svg" in2="pf_100_offsetBlur" operator="in" result="pf_100_dropShadow"/><feBlend xmlns="http://www.w3.org/2000/svg" in="SourceGraphic" in2="pf_100_dropShadow"/></filter></defs><path fill="#E4E2E9" d="M59.795 102.999h27.319c6.259 0 11.341 5.082 11.341 11.34v27.32c0 6.259-5.082 11.34-11.341 11.34H59.795c-6.259 0-11.34-5.081-11.34-11.34v-27.32c0-6.258 5.081-11.34 11.34-11.34z" filter="url(#j)"/><defs><filter id="k" width="54" height="54" x="46.45" y="157.06" filterUnits="userSpaceOnUse"><feGaussianBlur xmlns="http://www.w3.org/2000/svg" in="SourceGraphic" stdDeviation=".429"/><feOffset xmlns="http://www.w3.org/2000/svg" dy="2" result="pf_100_offsetBlur"/><feFlood xmlns="http://www.w3.org/2000/svg" flood-opacity=".2"/><feComposite xmlns="http://www.w3.org/2000/svg" in2="pf_100_offsetBlur" operator="in" result="pf_100_dropShadow"/><feBlend xmlns="http://www.w3.org/2000/svg" in="SourceGraphic" in2="pf_100_dropShadow"/></filter></defs><path fill="#C3C4C2" d="M59.795 157.058h27.319c6.259 0 11.341 5.082 11.341 11.341v27.319c0 6.259-5.082 11.34-11.341 11.34H59.795c-6.259 0-11.34-5.081-11.34-11.34v-27.319c0-6.259 5.081-11.341 11.34-11.341z" filter="url(#k)"/><defs><filter id="l" width="54" height="54" x="101" y="157.06" filterUnits="userSpaceOnUse"><feGaussianBlur xmlns="http://www.w3.org/2000/svg" in="SourceGraphic" stdDeviation=".429"/><feOffset xmlns="http://www.w3.org/2000/svg" dy="2" result="pf_100_offsetBlur"/><feFlood xmlns="http://www.w3.org/2000/svg" flood-opacity=".2"/><feComposite xmlns="http://www.w3.org/2000/svg" in2="pf_100_offsetBlur" operator="in" result="pf_100_dropShadow"/><feBlend xmlns="http://www.w3.org/2000/svg" in="SourceGraphic" in2="pf_100_dropShadow"/></filter></defs><path fill="#E4E2E9" d="M114.34 157.058h27.32c6.259 0 11.34 5.082 11.34 11.341v27.319c0 6.259-5.081 11.34-11.34 11.34h-27.32c-6.259 0-11.34-5.081-11.34-11.34v-27.319c0-6.259 5.081-11.341 11.34-11.341z" filter="url(#l)"/></g></switch> </svg>