<?xml version="1.0" encoding="UTF-8" standalone="no"?>
<!-- Created with Inkscape (http://www.inkscape.org/) -->

<svg
   xmlns:dc="http://purl.org/dc/elements/1.1/"
   xmlns:cc="http://creativecommons.org/ns#"
   xmlns:rdf="http://www.w3.org/1999/02/22-rdf-syntax-ns#"
   xmlns:svg="http://www.w3.org/2000/svg"
   xmlns="http://www.w3.org/2000/svg"
   xmlns:xlink="http://www.w3.org/1999/xlink"
   xmlns:sodipodi="http://sodipodi.sourceforge.net/DTD/sodipodi-0.dtd"
   xmlns:inkscape="http://www.inkscape.org/namespaces/inkscape"
   width="256"
   height="256"
   viewBox="0 0 67.733332 67.733335"
   version="1.1"
   id="svg1488"
   inkscape:version="0.92.2 (unknown)"
   sodipodi:docname="gnome-boxes.svg">
  <defs
     id="defs1482">
    <clipPath
       clipPathUnits="userSpaceOnUse"
       id="clipPath1025">
      <path
         id="path1027"
         d="M 111.94141,84 C 99.359506,84.145 90.1531,83.713998 82.625,87.867188 c -3.7641,2.0768 -6.751838,5.574737 -8.398438,9.960937 C 72.580062,102.21433 72,107.4241 72,114 v 42 h 160 v -26 c 0,-6.5759 -0.57996,-11.78566 -2.22656,-16.17188 -0.205,-0.5455 -0.47919,-1.03993 -0.74219,-1.54296 -0.1,-0.1848 -0.17844,-0.38051 -0.27344,-0.56641 -1.727,-3.38752 -4.25471,-6.14522 -7.38281,-7.87109 C 213.8463,99.694146 204.64049,100.1454 192.05859,100 H 192 151.66797 L 135.45312,84 h -23.49218 z"
         style="color:#000000;font-style:normal;font-variant:normal;font-weight:normal;font-stretch:normal;font-size:medium;line-height:normal;font-family:sans-serif;font-variant-ligatures:none;font-variant-position:normal;font-variant-caps:normal;font-variant-numeric:normal;font-variant-alternates:normal;font-feature-settings:normal;text-indent:0;text-align:start;text-decoration:none;text-decoration-line:none;text-decoration-style:solid;text-decoration-color:#000000;letter-spacing:normal;word-spacing:normal;text-transform:none;writing-mode:lr-tb;direction:ltr;baseline-shift:baseline;text-anchor:start;white-space:normal;shape-padding:0;clip-rule:nonzero;display:inline;overflow:visible;visibility:visible;opacity:1;isolation:auto;mix-blend-mode:normal;color-interpolation:sRGB;color-interpolation-filters:linearRGB;solid-color:#000000;solid-opacity:1;fill:#e3dfd5;fill-opacity:1;fill-rule:nonzero;stroke:none;stroke-width:4.00000048;stroke-linecap:butt;stroke-linejoin:miter;stroke-miterlimit:4;stroke-dasharray:none;stroke-dashoffset:0;stroke-opacity:1;marker:none;color-rendering:auto;image-rendering:auto;shape-rendering:auto;text-rendering:auto;enable-background:accumulate"
         inkscape:connector-curvature="0" />
    </clipPath>
    <linearGradient
       id="linearGradient1013"
       inkscape:collect="always">
      <stop
         id="stop1005"
         offset="0"
         style="stop-color:#ffffff;stop-opacity:1;" />
      <stop
         style="stop-color:#ffffff;stop-opacity:0.09803922"
         offset="0.125"
         id="stop1007" />
      <stop
         style="stop-color:#000000;stop-opacity:0.09803922"
         offset="0.92500001"
         id="stop1009" />
      <stop
         id="stop1011"
         offset="1"
         style="stop-color:#000000;stop-opacity:0.49803922" />
    </linearGradient>
    <clipPath
       clipPathUnits="userSpaceOnUse"
       id="clipPath1082-3">
      <path
         sodipodi:nodetypes="sssssssss"
         inkscape:connector-curvature="0"
         id="path1084-6"
         d="M 361.9375,-212 C 507.2348,-212 528,-191.28677 528,-46.125 V 70.125 C 528,215.28618 507.2348,236 361.9375,236 H 214.0625 C 68.7652,236 48,215.28618 48,70.125 V -46.125 C 48,-191.28677 68.7652,-212 214.0625,-212 Z"
         style="display:inline;opacity:1;fill:#8c59d9;fill-opacity:1;stroke:none;stroke-width:2;stroke-linecap:round;stroke-linejoin:round;stroke-miterlimit:4;stroke-dasharray:none;stroke-dashoffset:0;stroke-opacity:1;enable-background:new" />
    </clipPath>
    <clipPath
       clipPathUnits="userSpaceOnUse"
       id="clipPath1082-3-5">
      <path
         sodipodi:nodetypes="sssssssss"
         inkscape:connector-curvature="0"
         id="path1084-6-6"
         d="M 361.9375,-212 C 507.2348,-212 528,-191.28677 528,-46.125 V 70.125 C 528,215.28618 507.2348,236 361.9375,236 H 214.0625 C 68.7652,236 48,215.28618 48,70.125 V -46.125 C 48,-191.28677 68.7652,-212 214.0625,-212 Z"
         style="display:inline;opacity:1;fill:#8c59d9;fill-opacity:1;stroke:none;stroke-width:2;stroke-linecap:round;stroke-linejoin:round;stroke-miterlimit:4;stroke-dasharray:none;stroke-dashoffset:0;stroke-opacity:1;enable-background:new" />
    </clipPath>
    <filter
       inkscape:collect="always"
       style="color-interpolation-filters:sRGB"
       id="filter4569-2"
       x="-0.0116"
       width="1.0232"
       y="-0.012428571"
       height="1.024857">
      <feGaussianBlur
         inkscape:collect="always"
         stdDeviation="1.16"
         id="feGaussianBlur4571-9" />
    </filter>
    <filter
       inkscape:collect="always"
       style="color-interpolation-filters:sRGB"
       id="filter913"
       x="-0.0232"
       width="1.0464"
       y="-0.024857143"
       height="1.0497143">
      <feGaussianBlur
         inkscape:collect="always"
         stdDeviation="2.32"
         id="feGaussianBlur915" />
    </filter>
    <linearGradient
       inkscape:collect="always"
       xlink:href="#linearGradient1013"
       id="linearGradient906"
       gradientUnits="userSpaceOnUse"
       x1="296"
       y1="-212"
       x2="296"
       y2="236" />
    <filter
       inkscape:collect="always"
       style="color-interpolation-filters:sRGB"
       id="filter1642"
       x="-0.16840296"
       width="1.3368059"
       y="-0.16840296"
       height="1.3368059">
      <feGaussianBlur
         inkscape:collect="always"
         stdDeviation="0.60894042"
         id="feGaussianBlur1644" />
    </filter>
    <filter
       inkscape:collect="always"
       style="color-interpolation-filters:sRGB"
       id="filter1646"
       x="-0.16840296"
       width="1.3368059"
       y="-0.16840296"
       height="1.3368059">
      <feGaussianBlur
         inkscape:collect="always"
         stdDeviation="0.60894042"
         id="feGaussianBlur1648" />
    </filter>
    <filter
       inkscape:collect="always"
       style="color-interpolation-filters:sRGB"
       id="filter1650"
       x="-0.16840296"
       width="1.3368059"
       y="-0.16840296"
       height="1.3368059">
      <feGaussianBlur
         inkscape:collect="always"
         stdDeviation="0.60894042"
         id="feGaussianBlur1652" />
    </filter>
    <filter
       inkscape:collect="always"
       style="color-interpolation-filters:sRGB"
       id="filter1654"
       x="-0.16840296"
       width="1.3368059"
       y="-0.16840296"
       height="1.3368059">
      <feGaussianBlur
         inkscape:collect="always"
         stdDeviation="0.60894042"
         id="feGaussianBlur1656" />
    </filter>
    <filter
       id="a">
      <feGaussianBlur
         in="SourceAlpha"
         stdDeviation=".8"
         id="feGaussianBlur2" />
      <feOffset
         dy=".4"
         id="feOffset4" />
      <feComponentTransfer
         id="feComponentTransfer8">
        <feFuncA
           slope=".3"
           type="linear"
           id="feFuncA6" />
      </feComponentTransfer>
      <feMerge
         id="feMerge14">
        <feMergeNode
           id="feMergeNode10" />
        <feMergeNode
           in="SourceGraphic"
           id="feMergeNode12" />
      </feMerge>
    </filter>
    <filter
       id="filter878">
      <feGaussianBlur
         in="SourceAlpha"
         stdDeviation=".8"
         id="feGaussianBlur864" />
      <feOffset
         dy=".4"
         id="feOffset866" />
      <feComponentTransfer
         id="feComponentTransfer870">
        <feFuncA
           slope=".3"
           type="linear"
           id="feFuncA868" />
      </feComponentTransfer>
      <feMerge
         id="feMerge876">
        <feMergeNode
           id="feMergeNode872" />
        <feMergeNode
           in="SourceGraphic"
           id="feMergeNode874" />
      </feMerge>
    </filter>
    <filter
       id="filter894">
      <feGaussianBlur
         in="SourceAlpha"
         stdDeviation=".8"
         id="feGaussianBlur880" />
      <feOffset
         dy=".4"
         id="feOffset882" />
      <feComponentTransfer
         id="feComponentTransfer886">
        <feFuncA
           slope=".3"
           type="linear"
           id="feFuncA884" />
      </feComponentTransfer>
      <feMerge
         id="feMerge892">
        <feMergeNode
           id="feMergeNode888" />
        <feMergeNode
           in="SourceGraphic"
           id="feMergeNode890" />
      </feMerge>
    </filter>
    <filter
       id="filter910">
      <feGaussianBlur
         in="SourceAlpha"
         stdDeviation=".8"
         id="feGaussianBlur896" />
      <feOffset
         dy=".4"
         id="feOffset898" />
      <feComponentTransfer
         id="feComponentTransfer902">
        <feFuncA
           slope=".3"
           type="linear"
           id="feFuncA900" />
      </feComponentTransfer>
      <feMerge
         id="feMerge908">
        <feMergeNode
           id="feMergeNode904" />
        <feMergeNode
           in="SourceGraphic"
           id="feMergeNode906" />
      </feMerge>
    </filter>
    <filter
       id="filter926">
      <feGaussianBlur
         in="SourceAlpha"
         stdDeviation=".8"
         id="feGaussianBlur912" />
      <feOffset
         dy=".4"
         id="feOffset914" />
      <feComponentTransfer
         id="feComponentTransfer918">
        <feFuncA
           slope=".3"
           type="linear"
           id="feFuncA916" />
      </feComponentTransfer>
      <feMerge
         id="feMerge924">
        <feMergeNode
           id="feMergeNode920" />
        <feMergeNode
           in="SourceGraphic"
           id="feMergeNode922" />
      </feMerge>
    </filter>
    <filter
       id="filter942">
      <feGaussianBlur
         in="SourceAlpha"
         stdDeviation=".8"
         id="feGaussianBlur928" />
      <feOffset
         dy=".4"
         id="feOffset930" />
      <feComponentTransfer
         id="feComponentTransfer934">
        <feFuncA
           slope=".3"
           type="linear"
           id="feFuncA932" />
      </feComponentTransfer>
      <feMerge
         id="feMerge940">
        <feMergeNode
           id="feMergeNode936" />
        <feMergeNode
           in="SourceGraphic"
           id="feMergeNode938" />
      </feMerge>
    </filter>
    <filter
       id="filter958">
      <feGaussianBlur
         in="SourceAlpha"
         stdDeviation=".8"
         id="feGaussianBlur944" />
      <feOffset
         dy=".4"
         id="feOffset946" />
      <feComponentTransfer
         id="feComponentTransfer950">
        <feFuncA
           slope=".3"
           type="linear"
           id="feFuncA948" />
      </feComponentTransfer>
      <feMerge
         id="feMerge956">
        <feMergeNode
           id="feMergeNode952" />
        <feMergeNode
           in="SourceGraphic"
           id="feMergeNode954" />
      </feMerge>
    </filter>
    <filter
       id="filter974">
      <feGaussianBlur
         in="SourceAlpha"
         stdDeviation=".8"
         id="feGaussianBlur960" />
      <feOffset
         dy=".4"
         id="feOffset962" />
      <feComponentTransfer
         id="feComponentTransfer966">
        <feFuncA
           slope=".3"
           type="linear"
           id="feFuncA964" />
      </feComponentTransfer>
      <feMerge
         id="feMerge972">
        <feMergeNode
           id="feMergeNode968" />
        <feMergeNode
           in="SourceGraphic"
           id="feMergeNode970" />
      </feMerge>
    </filter>
    <filter
       inkscape:collect="always"
       style="color-interpolation-filters:sRGB"
       id="filter1057"
       x="-0.048"
       width="1.096"
       y="-0.048"
       height="1.096">
      <feGaussianBlur
         inkscape:collect="always"
         stdDeviation="0.23803606"
         id="feGaussianBlur1059" />
    </filter>
    <filter
       inkscape:collect="always"
       style="color-interpolation-filters:sRGB"
       id="filter1061"
       x="-0.048"
       width="1.096"
       y="-0.048"
       height="1.096">
      <feGaussianBlur
         inkscape:collect="always"
         stdDeviation="0.2619375"
         id="feGaussianBlur1063" />
    </filter>
    <filter
       inkscape:collect="always"
       style="color-interpolation-filters:sRGB"
       id="filter1073"
       x="-0.048"
       width="1.096"
       y="-0.048"
       height="1.096">
      <feGaussianBlur
         inkscape:collect="always"
         stdDeviation="0.2619375"
         id="feGaussianBlur1075" />
    </filter>
    <filter
       inkscape:collect="always"
       style="color-interpolation-filters:sRGB"
       id="filter1079"
       x="-0.048"
       width="1.096"
       y="-0.048"
       height="1.096">
      <feGaussianBlur
         inkscape:collect="always"
         stdDeviation="0.23803606"
         id="feGaussianBlur1081" />
    </filter>
  </defs>
  <sodipodi:namedview
     id="base"
     pagecolor="#ffffff"
     bordercolor="#666666"
     borderopacity="1.0"
     inkscape:pageopacity="0.0"
     inkscape:pageshadow="2"
     inkscape:zoom="3.4628043"
     inkscape:cx="127.71121"
     inkscape:cy="127.84507"
     inkscape:document-units="px"
     inkscape:current-layer="g1037"
     showgrid="false"
     units="px"
     inkscape:window-width="1920"
     inkscape:window-height="1013"
     inkscape:window-x="0"
     inkscape:window-y="34"
     inkscape:window-maximized="1">
    <inkscape:grid
       type="xygrid"
       id="grid2168" />
  </sodipodi:namedview>
  <metadata
     id="metadata1485">
    <rdf:RDF>
      <cc:Work
         rdf:about="">
        <dc:format>image/svg+xml</dc:format>
        <dc:type
           rdf:resource="http://purl.org/dc/dcmitype/StillImage" />
        <dc:title />
      </cc:Work>
    </rdf:RDF>
  </metadata>
  <g
     inkscape:label="Livello 1"
     inkscape:groupmode="layer"
     id="layer1"
     transform="translate(0,-229.26666)">
    <path
       style="display:inline;opacity:0.2;fill:#000000;fill-opacity:1;stroke:none;stroke-width:2;stroke-linecap:round;stroke-linejoin:round;stroke-miterlimit:4;stroke-dasharray:none;stroke-dashoffset:0;stroke-opacity:1;filter:url(#filter913);enable-background:new"
       d="m 188.96876,45.999995 c 72.64865,0 83.03125,10.356615 83.03125,82.937505 v 58.125 c 0,72.58059 -10.3826,82.9375 -83.03125,82.9375 h -73.9375 C 42.382606,270 32.000006,259.64309 32.000006,187.0625 v -58.125 c 0,-72.58089 10.3826,-82.937505 83.031254,-82.937505 z"
       id="path899"
       inkscape:connector-curvature="0"
       sodipodi:nodetypes="sssssssss"
       transform="matrix(0.26970778,0,0,0.26970778,-7.1289177,220.56049)" />
    <path
       sodipodi:nodetypes="sssssssss"
       inkscape:connector-curvature="0"
       id="path4567-1"
       d="m 188.96876,43.999995 c 72.64865,0 83.03125,10.356615 83.03125,82.937505 v 58.125 c 0,72.58059 -10.3826,82.9375 -83.03125,82.9375 h -73.9375 C 42.382606,268 32.000006,257.64309 32.000006,185.0625 v -58.125 c 0,-72.58089 10.3826,-82.937505 83.031254,-82.937505 z"
       style="display:inline;opacity:0.1;fill:#000000;fill-opacity:1;stroke:none;stroke-width:2;stroke-linecap:round;stroke-linejoin:round;stroke-miterlimit:4;stroke-dasharray:none;stroke-dashoffset:0;stroke-opacity:1;filter:url(#filter4569-2);enable-background:new"
       transform="matrix(0.26970778,0,0,0.26970778,-7.1289177,220.56049)" />
    <path
       style="display:inline;opacity:1;fill:#4d4d4d;fill-opacity:1;stroke:none;stroke-width:0.5394156;stroke-linecap:round;stroke-linejoin:round;stroke-miterlimit:4;stroke-dasharray:none;stroke-dashoffset:0;stroke-opacity:1;enable-background:new"
       d="m 23.895905,232.42763 c -9.797337,0 -15.3941297,0.69699 -18.5445167,3.84334 -3.150381,3.14634 -3.849657,8.73736 -3.849657,18.52555 v 15.67677 c 0,9.78815 0.699276,15.3792 3.849657,18.52555 3.150387,3.14636 8.7471787,3.84333 18.5445167,3.84333 h 19.94152 c 9.797339,0 15.394134,-0.69697 18.544517,-3.84333 3.150384,-3.14635 3.849659,-8.7374 3.849659,-18.52555 v -15.67677 c 0,-9.78819 -0.699275,-15.37921 -3.849659,-18.52555 -3.150383,-3.14635 -8.74718,-3.84334 -18.544517,-3.84334 z"
       id="rect877-2"
       inkscape:connector-curvature="0" />
    <path
       style="display:inline;opacity:0.2;fill:#131313;fill-opacity:1;stroke:none;stroke-width:0.5394156;stroke-linecap:round;stroke-linejoin:round;stroke-miterlimit:4;stroke-dasharray:none;stroke-dashoffset:0;stroke-opacity:1;enable-background:new"
       d="m 1.5017313,269.93387 v 0.53942 c 0,9.78815 0.699276,15.3792 3.849657,18.52555 3.150387,3.14636 8.7471787,3.84333 18.5445167,3.84333 h 19.94152 c 9.797339,0 15.394134,-0.69697 18.544517,-3.84333 3.150384,-3.14635 3.849659,-8.7374 3.849659,-18.52555 v -0.53942 c 0,9.78815 -0.699275,15.3792 -3.849659,18.52555 -3.150383,3.14636 -8.747178,3.84334 -18.544517,3.84334 h -19.94152 c -9.797338,0 -15.3941297,-0.69698 -18.5445167,-3.84334 -3.150381,-3.14635 -3.849657,-8.7374 -3.849657,-18.52555 z"
       id="path917"
       inkscape:connector-curvature="0" />
    <path
       sodipodi:nodetypes="sssssssss"
       inkscape:connector-curvature="0"
       id="path1068-7"
       d="M 361.9375,-212 C 507.2348,-212 528,-191.28677 528,-46.125 V 70.125 C 528,215.28618 507.2348,236 361.9375,236 H 214.0625 C 68.7652,236 48,215.28618 48,70.125 V -46.125 C 48,-191.28677 68.7652,-212 214.0625,-212 Z"
       style="display:inline;opacity:0.4;fill:none;fill-opacity:1;stroke:url(#linearGradient906);stroke-width:8;stroke-linecap:round;stroke-linejoin:round;stroke-miterlimit:4;stroke-dasharray:none;stroke-dashoffset:0;stroke-opacity:1;enable-background:new"
       clip-path="url(#clipPath1082-3-5)"
       transform="matrix(0.13485389,0,0,0.13485389,-4.9712557,261.01666)" />
    <g
       id="g1543"
       transform="matrix(0.91264544,0,0,0.91264544,4.3712681,23.368568)">
      <g
         id="g1037"
         transform="translate(2.9109993,-2.1148142)">
        <path
           style="opacity:1;fill:#b0bec5;fill-opacity:1;stroke:none;stroke-width:0.12345384;stroke-opacity:1"
           d="m 6.1959313,292.4309 c -1.0743149,-0.30178 -1.789465,-0.73316 -2.660664,-1.60496 -1.2257565,-1.22658 -1.7836744,-2.53548 -1.7836744,-4.18456 0,-2.0598 1.3174586,-4.2143 3.159374,-5.16669 l 0.7902366,-0.4086 4.561e-4,-16.11958 4.571e-4,-16.11958 -0.6481323,-0.29027 c -0.8623405,-0.38619 -2.2855251,-1.81506 -2.7058262,-2.71664 -1.59871542,-3.42938 0.2563342,-7.37642 3.9146409,-8.32928 2.5506887,-0.66437 5.4058589,0.61611 6.6231379,2.97034 l 0.408602,0.79023 h 16.110727 16.110725 l 0.408602,-0.79023 c 0.734789,-1.42109 2.182132,-2.55052 3.812693,-2.97522 4.20586,-1.0955 8.230222,2.9422 7.132609,7.15622 -0.422704,1.62287 -1.750271,3.27845 -3.140227,3.9161 l -0.621265,0.28501 4.82e-4,16.11146 4.81e-4,16.11144 0.790236,0.4086 c 0.461821,0.23879 1.071345,0.70332 1.466643,1.11775 2.32819,2.44086 2.230122,6.10059 -0.225023,8.39725 -1.861644,1.74148 -4.28771,2.10401 -6.66229,0.99556 -0.820905,-0.38319 -2.278339,-1.84611 -2.663533,-2.67355 l -0.299357,-0.64308 H 29.405328 13.294603 l -0.299363,0.64308 c -0.375341,0.80628 -1.837756,2.28843 -2.633399,2.66892 -1.2860321,0.61501 -2.9421351,0.79401 -4.1658352,0.45028 z m 39.6929307,-8.46891 0.356548,-0.74599 -2.463427,-2.45806 -2.463431,-2.45806 -0.740722,0.25437 c -0.911818,0.31311 -2.068534,0.26592 -2.940911,-0.11998 -0.325223,-0.14385 -0.891333,-0.56886 -1.258026,-0.94444 l -0.66671,-0.68289 h -6.306927 -6.306928 l -0.66671,0.68289 c -0.366694,0.37558 -0.932804,0.80059 -1.258024,0.94444 -0.87238,0.3859 -2.029096,0.43309 -2.940914,0.11998 l -0.740722,-0.25437 -2.46343,2.45806 -2.463428,2.45806 0.356549,0.74599 0.356551,0.74599 H 29.405256 45.53231 Z M 15.80638,276.12793 c -0.520189,-1.51481 -0.125542,-3.03655 1.092428,-4.21236 l 0.654878,-0.63221 v -6.328 -6.328 l -0.654878,-0.6322 c -1.217967,-1.17581 -1.612614,-2.69754 -1.09243,-4.21237 l 0.254361,-0.74072 -2.453176,-2.45855 -2.453174,-2.45854 -0.749252,0.35983 -0.7492529,0.35983 -0.00127,16.11072 -0.00127,16.11073 0.7095079,0.37943 0.70951,0.37943 2.494192,-2.47815 2.494194,-2.47814 -0.254365,-0.74073 z m 33.350492,-11.1768 10e-4,-16.11495 -0.750193,-0.35629 -0.750194,-0.35627 -2.453856,2.45922 -2.453859,2.45923 0.254362,0.74072 c 0.520184,1.51483 0.125537,3.03656 -1.092431,4.21237 l -0.654878,0.6322 v 6.328 6.328 l 0.654878,0.63221 c 1.217797,1.17564 1.612478,2.69716 1.092689,4.21236 l -0.254107,0.74073 2.47228,2.4794 2.472279,2.4794 0.730518,-0.38069 0.730516,-0.38068 10e-4,-16.11496 z m -13.048398,7.54403 c 0.117369,-0.19869 0.434894,-0.53669 0.705611,-0.7511 l 0.492216,-0.38984 v -6.35565 -6.35566 l -0.806116,-0.79429 -0.806115,-0.7943 H 29.405256 23.11644 l -0.806115,0.7943 -0.806115,0.79429 v 6.35566 6.35565 l 0.492215,0.38984 c 0.270717,0.21441 0.588242,0.55241 0.705613,0.7511 l 0.213398,0.36125 h 6.48982 6.489818 z m 0.05086,-19.8156 c 0.551551,-0.85168 1.962667,-1.55103 3.129621,-1.55103 0.338821,0 0.933219,0.11149 1.320886,0.24774 l 0.704847,0.24773 2.488662,-2.48644 2.488662,-2.48644 -0.357155,-0.56318 c -0.196433,-0.30974 -0.357153,-0.63563 -0.357153,-0.72418 0,-0.13156 -2.958221,-0.16102 -16.172453,-0.16102 -13.214236,0 -16.172456,0.0294 -16.172456,0.16102 0,0.0886 -0.160719,0.41444 -0.357154,0.72418 l -0.357155,0.56318 2.488664,2.48644 2.488662,2.48644 0.704845,-0.24773 c 0.387667,-0.13625 0.982065,-0.24774 1.320887,-0.24774 1.166954,0 2.57807,0.69935 3.129621,1.55103 l 0.272758,0.42118 h 6.481328 6.481325 z"
           id="path1477"
           inkscape:connector-curvature="0" />
        <circle
           transform="matrix(0.90875135,0,0,0.90875135,0.03802881,26.701326)"
           r="6.5484376"
           cy="238.26265"
           cx="8.4266548"
           id="circle1578"
           style="opacity:0.3;fill:#000000;fill-opacity:1;stroke:none;stroke-width:0.2619375;stroke-opacity:1;filter:url(#filter1061)" />
        <circle
           style="opacity:1;fill:#d4d4d4;fill-opacity:1;stroke:none;stroke-width:0.23803605;stroke-opacity:1"
           id="path1518"
           cx="7.6957626"
           cy="243.22282"
           r="5.9509015" />
        <circle
           transform="matrix(0.90875135,0,0,0.90875135,0.03802881,26.701326)"
           style="opacity:0.3;fill:#000000;fill-opacity:1;stroke:none;stroke-width:0.2619375;stroke-opacity:1;filter:url(#filter1073)"
           id="circle1580"
           cx="56.210487"
           cy="238.26265"
           r="6.5484376" />
        <circle
           r="5.9509015"
           cy="243.22282"
           cx="51.119385"
           id="circle1520"
           style="opacity:1;fill:#d4d4d4;fill-opacity:1;stroke:none;stroke-width:0.23803605;stroke-opacity:1" />
        <circle
           style="opacity:0.3;fill:#2b2424;fill-opacity:1;stroke:none;stroke-width:0.23803605;stroke-opacity:1;filter:url(#filter1057)"
           id="circle1039"
           cx="7.6957626"
           cy="286.67068"
           r="5.9509015" />
        <circle
           r="5.9509015"
           cy="286.67068"
           cx="7.6957626"
           id="circle1522"
           style="opacity:1;fill:#d4d4d4;fill-opacity:1;stroke:none;stroke-width:0.23803605;stroke-opacity:1" />
        <circle
           r="5.9509015"
           cy="286.67068"
           cx="51.119385"
           id="circle1077"
           style="opacity:0.3;fill:#000000;fill-opacity:1;stroke:none;stroke-width:0.23803605;stroke-opacity:1;filter:url(#filter1079)" />
        <circle
           style="opacity:1;fill:#d4d4d4;fill-opacity:1;stroke:none;stroke-width:0.23803605;stroke-opacity:1"
           id="circle1524"
           cx="51.119385"
           cy="286.67068"
           r="5.9509015" />
        <circle
           transform="matrix(0.90875135,0,0,0.90875135,0.03802881,26.701326)"
           style="opacity:0.4;fill:#000000;fill-opacity:1;stroke:none;stroke-width:0.17356667;stroke-opacity:1;filter:url(#filter1642)"
           id="circle1586"
           cx="43.166"
           cy="273.03329"
           r="4.3391666" />
        <circle
           r="3.9432235"
           cy="274.82071"
           cx="39.26519"
           id="circle1526"
           style="opacity:1;fill:#d4d4d4;fill-opacity:1;stroke:none;stroke-width:0.15772894;stroke-opacity:1" />
        <circle
           transform="matrix(0.90875135,0,0,0.90875135,0.03802881,26.701326)"
           r="4.3391666"
           cy="273.03329"
           cx="21.470146"
           id="circle1588"
           style="opacity:0.4;fill:#000000;fill-opacity:1;stroke:none;stroke-width:0.17356667;stroke-opacity:1;filter:url(#filter1646)" />
        <circle
           style="opacity:1;fill:#d4d4d4;fill-opacity:1;stroke:none;stroke-width:0.15772894;stroke-opacity:1"
           id="circle1528"
           cx="19.549053"
           cy="274.82071"
           r="3.9432235" />
        <circle
           transform="matrix(0.90875135,0,0,0.90875135,0.03802881,26.701326)"
           r="4.3391666"
           cy="251.33714"
           cx="43.166"
           id="circle1590"
           style="opacity:0.4;fill:#000000;fill-opacity:1;stroke:none;stroke-width:0.17356667;stroke-opacity:1;filter:url(#filter1650)" />
        <circle
           style="opacity:1;fill:#d4d4d4;fill-opacity:1;stroke:none;stroke-width:0.15772894;stroke-opacity:1"
           id="circle1530"
           cx="39.26519"
           cy="255.10429"
           r="3.9432235" />
        <circle
           transform="matrix(0.90875135,0,0,0.90875135,0.03802881,26.701326)"
           style="opacity:0.4;fill:#000000;fill-opacity:1;stroke:none;stroke-width:0.17356667;stroke-opacity:1;filter:url(#filter1654)"
           id="circle1592"
           cx="21.470146"
           cy="251.33714"
           r="4.3391666" />
        <circle
           r="3.9432235"
           cy="255.10429"
           cx="19.549053"
           id="circle1532"
           style="opacity:1;fill:#d4d4d4;fill-opacity:1;stroke:none;stroke-width:0.15772894;stroke-opacity:1" />
      </g>
    </g>
    <path
       style="display:inline;opacity:0.05;fill:#ffffff;fill-opacity:1;stroke:none;stroke-width:0.52139008;stroke-linecap:round;stroke-linejoin:round;stroke-miterlimit:4;stroke-dasharray:none;stroke-dashoffset:0;stroke-opacity:1;enable-background:new"
       d="m 1.5017313,262.60416 v 9.33914 c 0,9.14491 0.699276,14.36853 3.849657,17.30811 3.150387,2.93959 8.7471787,3.59076 18.5445167,3.59076 h 19.94152 c 9.797339,0 15.394134,-0.65117 18.544517,-3.59076 3.150384,-2.93958 3.849659,-8.1632 3.849659,-17.30811 v -9.33914 z"
       id="path897"
       inkscape:connector-curvature="0" />
  </g>
</svg>
