<svg xmlns="http://www.w3.org/2000/svg" style="isolation:isolate" width="256" height="256"><defs><filter id="a" width="270.648" height="254.338" x="-7.32" y="2.95" filterUnits="userSpaceOnUse"><feGaussianBlur xmlns="http://www.w3.org/2000/svg" in="SourceGraphic" stdDeviation="4.294"/><feOffset xmlns="http://www.w3.org/2000/svg" dy="4" result="pf_100_offsetBlur"/><feFlood xmlns="http://www.w3.org/2000/svg" flood-opacity=".4"/><feComposite xmlns="http://www.w3.org/2000/svg" in2="pf_100_offsetBlur" operator="in" result="pf_100_dropShadow"/><feBlend xmlns="http://www.w3.org/2000/svg" in="SourceGraphic" in2="pf_100_dropShadow"/></filter></defs><path fill="#4D4D4D" d="M165.685 11.947c74.055 0 84.639 10.557 84.639 84.544v59.251c0 73.986-10.584 84.543-84.639 84.543h-75.37c-74.055 0-84.639-10.557-84.639-84.543V96.491c0-73.987 10.584-84.544 84.639-84.544h75.37z" filter="url(#a)"/><path fill="#CCC" d="M249.841 178.492c-2.724 53.489-18.478 61.793-84.156 61.793h-75.37c-65.463 0-81.329-8.249-84.129-61.268-.376.259 244.005-.119 243.655-.525z"/><g opacity=".4"><linearGradient id="b" x2="0" y1=".5" y2="1.5" gradientTransform="matrix(109.681 0 0 119.008 73.16 35.992)" gradientUnits="userSpaceOnUse"><stop offset="0%" stop-opacity="0"/><stop offset="49.846%"/><stop offset="98.75%" stop-opacity="0"/></linearGradient><path fill="url(#b)" d="M73.16 35.992V155s60.358-24.395 109.68-59.542c0-.009-.006-.019-.013-.031-.005-.013-.013-.026-.021-.039a.22.22 0 0 1-.026-.039.092.092 0 0 1-.012-.038C130.743 59.044 73.16 35.992 73.16 35.992z"/></g><path d="M73.16 35.992V155s60.358-24.395 109.68-59.542c0-.009-.006-.019-.013-.031-.005-.013-.013-.026-.021-.039a.22.22 0 0 1-.026-.039.092.092 0 0 1-.012-.038C130.743 59.044 73.16 35.992 73.16 35.992z" opacity=".1"/><path fill="#E6E6E6" d="M73.16 35v119.008s60.358-24.395 109.68-59.542c0-.01-.006-.018-.013-.033-.005-.014-.013-.024-.021-.039-.01-.013-.02-.025-.026-.038a.088.088 0 0 1-.012-.037C130.743 58.053 73.16 35 73.16 35z"/><path fill="#FFF" d="M73.16 35v.992s57.193 22.889 109.037 58.927c.214-.153.43-.3.643-.453 0-.01-.006-.018-.013-.033-.005-.014-.013-.026-.021-.039-.01-.015-.02-.025-.026-.038a.088.088 0 0 1-.012-.037C130.743 58.053 73.16 35 73.16 35z"/><path fill="#7D7D7D" d="M28 191.56h200v22.449H28z"/><path fill="#F22C42" d="M28 191.56h75.51v22.449H28z"/><path d="M28 191.56h200v2.041H28z" opacity=".3"/><path fill="#FFF" d="M28 214.01h200v2.041H28z" opacity=".5"/><path fill="#FFF" d="M103.51 191.56h32.653v22.449H103.51z" opacity=".2"/><g opacity=".4"><linearGradient id="c" x1=".517" x2=".517" y2="1"><stop offset="0%" stop-color="#fff"/><stop offset="12.5%" stop-opacity=".098" stop-color="#fff"/><stop offset="92.5%" stop-opacity=".098"/><stop offset="100%" stop-opacity=".498"/></linearGradient><path fill="none" stroke="url(#c)" stroke-linecap="round" stroke-linejoin="round" stroke-width="4.077" d="M165.685 11.947c74.055 0 84.639 10.557 84.639 84.544v59.251c0 73.986-10.584 84.543-84.639 84.543h-75.37c-74.055 0-84.639-10.557-84.639-84.543V96.491c0-73.987 10.584-84.544 84.639-84.544h75.37z" vector-effect="non-scaling-stroke"/></g></svg>