<svg xmlns="http://www.w3.org/2000/svg" style="isolation:isolate" width="256" height="256"><defs><filter id="a" width="270.648" height="254.338" x="-7.32" y="2.95" filterUnits="userSpaceOnUse"><feGaussianBlur xmlns="http://www.w3.org/2000/svg" in="SourceGraphic" stdDeviation="4.294"/><feOffset xmlns="http://www.w3.org/2000/svg" dy="4" result="pf_100_offsetBlur"/><feFlood xmlns="http://www.w3.org/2000/svg" flood-opacity=".4"/><feComposite xmlns="http://www.w3.org/2000/svg" in2="pf_100_offsetBlur" operator="in" result="pf_100_dropShadow"/><feBlend xmlns="http://www.w3.org/2000/svg" in="SourceGraphic" in2="pf_100_dropShadow"/></filter></defs><g filter="url(#a)"><linearGradient id="b" x1=".25" x2=".75" y1=".036" y2=".902" gradientTransform="matrix(244.648 0 0 228.338 5.676 11.947)" gradientUnits="userSpaceOnUse"><stop offset="0%" stop-color="#2f5fdd"/><stop offset="100%" stop-color="#5884f4"/></linearGradient><path fill="url(#b)" d="M165.685 11.947c74.055 0 84.639 10.557 84.639 84.544v59.251c0 73.986-10.584 84.543-84.639 84.543h-75.37c-74.055 0-84.639-10.557-84.639-84.543V96.491c0-73.987 10.584-84.544 84.639-84.544h75.37z"/></g><g opacity=".3"><path fill="#191876" d="M28.854 127.815a4.124 4.124 0 0 0-1.074 3.985 4.127 4.127 0 0 0 6.902 1.858l32.602-32.519L85.5 119.401 52.898 151.92a4.13 4.13 0 0 0-.008 5.836L78.2 183.13a4.127 4.127 0 1 0 5.843-5.828l-22.396-22.453L94.25 122.33a4.128 4.128 0 0 0 .007-5.836L70.213 92.389a4.13 4.13 0 0 0-5.836-.008l-35.523 35.434zm53.919-53.783a4.124 4.124 0 0 0-.007 5.836l24.044 24.105a4.13 4.13 0 0 0 5.836.008l34.505-34.418 19.481 19.531-17.377 17.334a4.126 4.126 0 1 0 5.828 5.843l20.299-20.248a4.124 4.124 0 0 0 .007-5.836L150.08 60.813a4.124 4.124 0 0 0-5.836-.007l-34.505 34.417-18.216-18.262 34.505-34.418A4.127 4.127 0 1 0 120.2 36.7L82.773 74.032zm10.665 83.008a4.128 4.128 0 0 0 1.838 6.912 4.127 4.127 0 0 0 3.99-1.069l35.14-35.05 18.216 18.262-35.139 35.051a4.122 4.122 0 0 0-.008 5.835l24.044 24.105a4.13 4.13 0 0 0 5.836.008l38.061-37.964a4.128 4.128 0 0 0-1.838-6.912 4.124 4.124 0 0 0-3.99 1.069l-35.14 35.05-18.216-18.262 35.14-35.051a4.128 4.128 0 0 0 .007-5.835l-24.044-24.105a4.125 4.125 0 0 0-5.836-.008L93.438 157.04zm-1.401 29.178a9.776 9.776 0 0 0-.02 13.856l28.335 28.407a9.781 9.781 0 0 0 13.859.019l5.749-5.734v-4.125l-42.174-38.156-5.749 5.733zm66.151-65.983l42.174 42.28 21.468-21.414a9.778 9.778 0 0 0 .018-13.859l-28.335-28.407a9.776 9.776 0 0 0-13.856-.015l-21.469 17.289v4.126z"/><path fill="#FFF" d="M28.854 123.69a4.123 4.123 0 0 0-1.074 3.984 4.127 4.127 0 0 0 6.902 1.859l32.602-32.52L85.5 115.275l-32.602 32.52a4.124 4.124 0 0 0-.008 5.835l25.31 25.374a4.124 4.124 0 0 0 6.908-1.84 4.128 4.128 0 0 0-1.065-3.988l-22.396-22.452 32.603-32.52a4.128 4.128 0 0 0 .007-5.835L70.213 88.263a4.124 4.124 0 0 0-5.836-.007L28.854 123.69z" opacity=".8"/><path fill="#F8F8F8" d="M82.773 69.907a4.124 4.124 0 0 0-.007 5.835l24.044 24.105a4.125 4.125 0 0 0 5.836.008l34.505-34.418 19.481 19.531-17.377 17.334a4.127 4.127 0 1 0 5.828 5.843l20.299-20.248a4.122 4.122 0 0 0 .007-5.835L150.08 56.688a4.13 4.13 0 0 0-5.836-.008l-34.505 34.418-18.216-18.263 34.505-34.417a4.124 4.124 0 0 0 1.074-3.985 4.127 4.127 0 0 0-6.902-1.858L82.773 69.907z" opacity=".8"/><path fill="#FFF" d="M93.438 152.915a4.126 4.126 0 1 0 5.828 5.843l35.14-35.051 18.216 18.262-35.139 35.051a4.125 4.125 0 0 0-.008 5.835l24.044 24.106a4.124 4.124 0 0 0 5.836.008l38.061-37.965a4.126 4.126 0 1 0-5.828-5.843l-35.14 35.05-18.216-18.262 35.14-35.05a4.128 4.128 0 0 0 .007-5.836l-24.044-24.105a4.13 4.13 0 0 0-5.836-.008l-38.061 37.965zm-1.401 29.177a9.776 9.776 0 0 0-.02 13.856l28.335 28.407a9.78 9.78 0 0 0 13.859.02l5.749-5.734-42.174-42.281-5.749 5.732zm66.151-65.983l42.174 42.281 21.468-21.415a9.777 9.777 0 0 0 .018-13.858L193.513 94.71a9.776 9.776 0 0 0-13.856-.016l-21.469 21.415z" opacity=".8"/></g><g fill="#BFCFF9"><path d="M188.471 105.071v45.888h45.888v-45.888h-45.888zm3.533 3.828h38.822v38.238h-38.822v-38.238zm-53.962-4.401l-2.543 2.373 40.513 45.273 2.543-2.373-40.513-45.273z"/><path d="M176.144 104.608l-40.763 45.038 2.529 2.388 40.763-45.038-2.529-2.388zm-71.995-3.364c-13.353 0-23.968 12.128-23.968 26.756s10.615 26.756 23.968 26.756 23.967-12.128 23.967-26.756-10.614-26.756-23.967-26.756zm0 4.085c10.865 0 19.887 10.002 19.887 22.671 0 12.669-9.022 22.671-19.887 22.671-10.866 0-19.882-10.002-19.882-22.671 0-12.669 9.016-22.671 19.882-22.671zm-56.823-1.694l-1.774 3.496-23.911 47.092h51.374l-25.689-50.588zm0 8.793l19.202 37.811h-38.4l19.198-37.811z"/></g><g opacity=".4"><linearGradient id="c" x1=".517" x2=".517" y2="1"><stop offset="0%" stop-color="#fff"/><stop offset="12.5%" stop-opacity=".098" stop-color="#fff"/><stop offset="92.5%" stop-opacity=".098"/><stop offset="100%" stop-opacity=".498"/></linearGradient><path fill="none" stroke="url(#c)" stroke-linecap="round" stroke-linejoin="round" stroke-width="4.077" d="M165.685 11.947c74.055 0 84.639 10.557 84.639 84.544v59.251c0 73.986-10.584 84.543-84.639 84.543h-75.37c-74.055 0-84.639-10.557-84.639-84.543V96.491c0-73.987 10.584-84.544 84.639-84.544h75.37z" vector-effect="non-scaling-stroke"/></g></svg>