<svg xmlns="http://www.w3.org/2000/svg" style="isolation:isolate" width="256" height="256"><defs><filter id="a" width="270.648" height="254.338" x="-7.32" y="2.95" filterUnits="userSpaceOnUse"><feGaussianBlur xmlns="http://www.w3.org/2000/svg" in="SourceGraphic" stdDeviation="4.294"/><feOffset xmlns="http://www.w3.org/2000/svg" dy="4" result="pf_100_offsetBlur"/><feFlood xmlns="http://www.w3.org/2000/svg" flood-opacity=".4"/><feComposite xmlns="http://www.w3.org/2000/svg" in2="pf_100_offsetBlur" operator="in" result="pf_100_dropShadow"/><feBlend xmlns="http://www.w3.org/2000/svg" in="SourceGraphic" in2="pf_100_dropShadow"/></filter></defs><g filter="url(#a)"><linearGradient id="b" x1=".5" x2=".5" y1="-.036" y2="1.036" gradientTransform="matrix(244.648 0 0 228.338 5.676 11.947)" gradientUnits="userSpaceOnUse"><stop offset="0%"/><stop offset="100%" stop-color="#333"/></linearGradient><path fill="url(#b)" d="M165.685 11.947c74.055 0 84.639 10.557 84.639 84.544v59.251c0 73.986-10.584 84.543-84.639 84.543h-75.37c-74.055 0-84.639-10.557-84.639-84.543V96.491c0-73.987 10.584-84.544 84.639-84.544h75.37z"/></g><path fill="#FFF" d="M8.476 55.74C6.729 66.667 6.158 80.255 6.158 97.205v59.251c0 73.986 10.584 84.544 84.64 84.544h75.369c55.135 0 75.078-5.874 81.675-39.397L8.476 55.74z" opacity=".05"/><g fill="#F7F7F7"><path d="M79.262 12.204c-5.847.083-11.904.114-16.916.408-5.544.325-10.104.992-14.706 1.657L33.345 67.618h31.071l14.846-55.414zm115.371.931c-1.647-.134-2.88-.42-4.623-.523-7.524-.442-15.952-.612-25.393-.612h-.608l-14.911 55.644h30.931l14.604-54.509zM137.082 12h-30.467L91.721 67.58h30.467L137.082 12z"/><circle r="1" transform="translate(217.809 59.367) scale(9.661)" vector-effect="non-scaling-stroke"/></g><g opacity=".4"><linearGradient id="c" x1=".517" x2=".517" y2="1"><stop offset="0%" stop-color="#fff"/><stop offset="12.5%" stop-opacity=".098" stop-color="#fff"/><stop offset="92.5%" stop-opacity=".098"/><stop offset="100%" stop-opacity=".498"/></linearGradient><path fill="none" stroke="url(#c)" stroke-linecap="round" stroke-linejoin="round" stroke-width="4.077" d="M165.685 11.947c74.055 0 84.639 10.557 84.639 84.544v59.251c0 73.986-10.584 84.543-84.639 84.543h-75.37c-74.055 0-84.639-10.557-84.639-84.543V96.491c0-73.987 10.584-84.544 84.639-84.544h75.37z" vector-effect="non-scaling-stroke"/></g><ellipse fill="#555753" rx="1" ry="1" transform="matrix(51.471 0 0 51.567 127.263 157.923)" vector-effect="non-scaling-stroke"/><path fill="#CCC" fill-rule="evenodd" d="M179.73 157.92zm0 0c.01 7.03-1.39 13.98-4.12 20.46a52.757 52.757 0 0 1-27.93 27.98 52.257 52.257 0 0 1-20.42 4.13c-7.01.01-13.95-1.4-20.41-4.13a52.628 52.628 0 0 1-16.68-11.27 52.757 52.757 0 0 1-11.25-16.71 52.67 52.67 0 0 1-4.13-20.46c0-7.02 1.4-13.98 4.13-20.45a52.645 52.645 0 0 1 11.25-16.71c4.78-4.8 10.44-8.62 16.68-11.27 6.46-2.73 13.4-4.14 20.41-4.13 7.02-.01 13.96 1.4 20.42 4.13 6.23 2.65 11.9 6.47 16.68 11.27a52.645 52.645 0 0 1 11.25 16.71 52.43 52.43 0 0 1 4.12 20.45zm-2 0c.01 6.76-1.34 13.45-3.97 19.68-2.54 6-6.21 11.46-10.82 16.07-4.6 4.62-10.04 8.3-16.04 10.84a50.18 50.18 0 0 1-19.64 3.98 50.34 50.34 0 0 1-35.68-14.82 50.642 50.642 0 0 1-10.82-16.07 50.763 50.763 0 0 1-3.97-19.68c0-6.75 1.35-13.45 3.97-19.67a50.685 50.685 0 0 1 10.82-16.08c4.6-4.61 10.05-8.29 16.05-10.84a50.158 50.158 0 0 1 19.63-3.97 50.17 50.17 0 0 1 19.64 3.97c6 2.55 11.44 6.23 16.04 10.84a50.685 50.685 0 0 1 10.82 16.08 50.316 50.316 0 0 1 3.97 19.67zm-50.47 50.57"/><path fill="#FFF" fill-rule="evenodd" d="M176.65 157.92c.01 6.61-1.32 13.15-3.88 19.24a49.48 49.48 0 0 1-10.59 15.71c-4.5 4.51-9.83 8.11-15.7 10.6a49.196 49.196 0 0 1-19.22 3.89c-6.6.01-13.13-1.32-19.21-3.89a49.466 49.466 0 0 1-15.7-10.6c-4.51-4.5-8.11-9.84-10.59-15.71a49.284 49.284 0 0 1-3.88-19.24c-.01-6.6 1.31-13.14 3.88-19.23a49.469 49.469 0 0 1 10.59-15.72c4.5-4.51 9.83-8.11 15.7-10.6a49.138 49.138 0 0 1 19.21-3.88c6.6-.01 13.14 1.31 19.22 3.88 5.87 2.49 11.2 6.09 15.7 10.6 4.51 4.51 8.1 9.85 10.59 15.72a49.416 49.416 0 0 1 3.88 19.23zm-2 0zm0 0c.01 6.34-1.26 12.62-3.73 18.46a47.466 47.466 0 0 1-10.16 15.08 47.463 47.463 0 0 1-15.06 10.17 47.073 47.073 0 0 1-18.44 3.73 47.06 47.06 0 0 1-18.43-3.73 47.506 47.506 0 0 1-15.07-10.17 47.798 47.798 0 0 1-10.16-15.08 47.377 47.377 0 0 1-3.72-18.46 47.328 47.328 0 0 1 3.72-18.45 47.574 47.574 0 0 1 10.16-15.08c4.32-4.33 9.44-7.79 15.07-10.17a47.06 47.06 0 0 1 18.43-3.73c6.34-.01 12.61 1.26 18.44 3.73a47.299 47.299 0 0 1 15.06 10.17c4.33 4.32 7.78 9.44 10.16 15.08a47.158 47.158 0 0 1 3.73 18.45z" opacity=".5"/><path fill="#EEEEEC" fill-rule="evenodd" d="M128.12 104.302l.157 57.507 53.097.157s1.753-23.095-15.488-40.547c-17.322-17.534-37.766-17.117-37.766-17.117z" opacity=".7"/><path fill="#F7F7F7" d="M124.454 192.64q-11.377 0-18.034-6.152l5.478-7.752q5.983 4.466 12.556 4.466 5.309 0 8.553-3.034 3.244-3.034 3.244-8.09 0-4.466-2.401-7.205-2.402-2.739-6.7-2.739-5.646 0-9.691 4.467l-9.185-4.045 2.359-29.916h32.191v9.522h-23.089l-1.349 13.147q4.298-2.697 9.438-2.697 8.68 0 13.61 5.52 4.93 5.519 4.93 13.862 0 9.101-6.11 14.874-6.109 5.772-15.8 5.772z"/><path fill="#CCC" d="M128.62 214.52a1.499 1.499 0 0 1-2.56 1.06c-.28-.28-.44-.66-.44-1.06v-9.96a1.499 1.499 0 0 1 2.56-1.06c.28.28.44.66.44 1.06v9.96zm55.16-53.31a1.499 1.499 0 0 1 1.5 1.5c0 .4-.15.78-.44 1.07-.28.28-.66.43-1.06.43h-58.02v-62.73a1.499 1.499 0 0 1 2.56-1.06c.28.28.44.66.44 1.06v59.73h55.02zm-101.6 0c.4 0 .78.16 1.06.44.28.29.44.67.44 1.06 0 .4-.16.78-.44 1.07-.28.28-.66.43-1.06.43h-9.96c-.4 0-.78-.15-1.06-.43-.29-.29-.44-.67-.44-1.07a1.499 1.499 0 0 1 1.5-1.5h9.96z"/></svg>