<svg xmlns="http://www.w3.org/2000/svg" style="isolation:isolate" width="256" height="256"><switch><g><defs><filter id="a" width="270.648" height="254.338" x="-7.32" y="2.95" filterUnits="userSpaceOnUse"><feGaussianBlur xmlns="http://www.w3.org/2000/svg" in="SourceGraphic" stdDeviation="4.294"/><feOffset xmlns="http://www.w3.org/2000/svg" dy="4" result="pf_100_offsetBlur"/><feFlood xmlns="http://www.w3.org/2000/svg" flood-opacity=".4"/><feComposite xmlns="http://www.w3.org/2000/svg" in2="pf_100_offsetBlur" operator="in" result="pf_100_dropShadow"/><feBlend xmlns="http://www.w3.org/2000/svg" in="SourceGraphic" in2="pf_100_dropShadow"/></filter></defs><path fill="#666" d="M165.689 11.95c74.056 0 84.639 10.557 84.639 84.544v59.251c0 73.986-10.583 84.543-84.639 84.543h-75.37c-74.055 0-84.639-10.557-84.639-84.543V96.494c0-73.987 10.584-84.544 84.639-84.544h75.37z" filter="url(#a)"/><g opacity=".4"><linearGradient id="b" x1=".517" x2=".517" y2="1"><stop offset="0%" stop-color="#fff"/><stop offset="12.5%" stop-opacity=".098" stop-color="#fff"/><stop offset="92.5%" stop-opacity=".098"/><stop offset="100%" stop-opacity=".498"/></linearGradient><path fill="none" stroke="url(#b)" stroke-linecap="round" stroke-linejoin="round" stroke-width="4.077" d="M165.685 11.947c74.055 0 84.639 10.557 84.639 84.544v59.251c0 73.986-10.584 84.543-84.639 84.543h-75.37c-74.055 0-84.639-10.557-84.639-84.543V96.491c0-73.987 10.584-84.544 84.639-84.544h75.37z" vector-effect="non-scaling-stroke"/></g><defs><filter id="c" width="218.857" height="206" x="18.57" y="29" filterUnits="userSpaceOnUse"><feGaussianBlur xmlns="http://www.w3.org/2000/svg" in="SourceGraphic" stdDeviation="4.294"/><feOffset xmlns="http://www.w3.org/2000/svg" dy="4" result="pf_100_offsetBlur"/><feFlood xmlns="http://www.w3.org/2000/svg" flood-opacity=".4"/><feComposite xmlns="http://www.w3.org/2000/svg" in2="pf_100_offsetBlur" operator="in" result="pf_100_dropShadow"/><feBlend xmlns="http://www.w3.org/2000/svg" in="SourceGraphic" in2="pf_100_dropShadow"/></filter></defs><g filter="url(#c)"><linearGradient id="d" x1=".5" x2=".5" y2=".622" gradientTransform="matrix(192.857 0 0 180 31.571 38)" gradientUnits="userSpaceOnUse"><stop offset="0%" stop-color="#f37e40"/><stop offset="100%" stop-color="#fac82e"/></linearGradient><path fill="url(#d)" d="M157.707 38c58.378 0 66.722 8.322 66.722 66.646v46.708c0 58.323-8.344 66.646-66.722 66.646H98.293c-58.378 0-66.722-8.323-66.722-66.646v-46.708C31.571 46.322 39.915 38 98.293 38h59.414z"/></g><circle fill="#FEE581" cx="171.222" cy="89.673" r="28.773" vector-effect="non-scaling-stroke" opacity=".2"/><circle fill="#FEE581" cx="171.222" cy="89.673" r="37.707" vector-effect="non-scaling-stroke" opacity=".2"/><circle fill="#FEE581" cx="171.222" cy="89.673" r="19.839" vector-effect="non-scaling-stroke"/><path fill="#1463A5" d="M224.429 139.727v11.627c0 5.62-.078 10.776-.27 15.505l-192.416-2.773a418.787 418.787 0 0 1-.172-12.732v-19.603c5.839-9.078 9.404-22.177 21.537-22.239 18.495-.094 18.131 20.233 34.422 19.971 16.818.262 17.08-28.379 34.423-28.905 15.766 1.314 27.591 44.933 44.933 45.459 17.343-.788 11.562-31.795 28.117-32.058 17.605 0 9.459 28.379 21.547 28.379 3.492 0 5.942-1.085 7.879-2.631z"/><path fill="#37A6E6" d="M224.299 162.595C223.059 210.773 212.107 218 157.707 218H98.293c-54.4 0-65.352-7.227-66.592-55.405-.091.346 192.696.354 192.598 0z"/><g opacity=".6"><ellipse fill="#FEE581" cx="171.222" cy="187.423" rx="28.773" ry="10.727" vector-effect="non-scaling-stroke" opacity=".2"/><ellipse fill="#FEE581" cx="171.222" cy="187.423" rx="37.707" ry="14.058" vector-effect="non-scaling-stroke" opacity=".2"/><ellipse fill="#FEE581" cx="171.222" cy="187.423" rx="19.839" ry="7.396" vector-effect="non-scaling-stroke"/></g><defs><filter id="e" width="171" height="118.266" x="-2.67" y="71.87" filterUnits="userSpaceOnUse"><feGaussianBlur xmlns="http://www.w3.org/2000/svg" in="SourceGraphic" stdDeviation="4.294"/><feOffset xmlns="http://www.w3.org/2000/svg" dy="4" result="pf_100_offsetBlur"/><feFlood xmlns="http://www.w3.org/2000/svg" flood-opacity=".4"/><feComposite xmlns="http://www.w3.org/2000/svg" in2="pf_100_offsetBlur" operator="in" result="pf_100_dropShadow"/><feBlend xmlns="http://www.w3.org/2000/svg" in="SourceGraphic" in2="pf_100_dropShadow"/></filter></defs><g filter="url(#e)"><path fill="#35BF5C" d="M150.594 113.971l-87.533-6.591V86.632c0-2.169-1.055-3.79-3.164-5.405-2.109-.547-4.225-.547-5.8.534-21.618 15.139-42.195 40.501-42.709 41.582-.514 1.028-1.002 2.571-1.028 3.658 0 .02-.027.073-.027.099 0 1.081.514 2.702 1.055 3.243.514 1.081 20.57 26.521 42.709 41.654 2.109 1.088 4.225 1.628 5.8.547 2.109-1.081 3.164-2.702 3.164-4.87v-20.749l87.533-6.591c2.63-2.109 4.739-7.414 4.739-13.234 0-5.253-1.568-11.02-4.739-13.129z"/></g></g></switch> </svg>