<svg xmlns="http://www.w3.org/2000/svg" style="isolation:isolate" width="256" height="256"><defs><filter id="a" width="270.648" height="254.338" x="-7.32" y="2.95" filterUnits="userSpaceOnUse"><feGaussianBlur xmlns="http://www.w3.org/2000/svg" in="SourceGraphic" stdDeviation="4.294"/><feOffset xmlns="http://www.w3.org/2000/svg" dy="4" result="pf_100_offsetBlur"/><feFlood xmlns="http://www.w3.org/2000/svg" flood-opacity=".4"/><feComposite xmlns="http://www.w3.org/2000/svg" in2="pf_100_offsetBlur" operator="in" result="pf_100_dropShadow"/><feBlend xmlns="http://www.w3.org/2000/svg" in="SourceGraphic" in2="pf_100_dropShadow"/></filter></defs><path fill="#2B898F" d="M165.685 11.947c74.055 0 84.639 10.557 84.639 84.544v59.251c0 73.986-10.584 84.543-84.639 84.543h-75.37c-74.055 0-84.639-10.557-84.639-84.543V96.491c0-73.987 10.584-84.544 84.639-84.544h75.37z" filter="url(#a)"/><g opacity=".4"><linearGradient id="b" x1=".517" x2=".517" y2="1"><stop offset="0%" stop-color="#fff"/><stop offset="12.5%" stop-opacity=".098" stop-color="#fff"/><stop offset="92.5%" stop-opacity=".098"/><stop offset="100%" stop-opacity=".498"/></linearGradient><path fill="none" stroke="url(#b)" stroke-linecap="round" stroke-linejoin="round" stroke-width="4.077" d="M165.685 11.947c74.055 0 84.639 10.557 84.639 84.544v59.251c0 73.986-10.584 84.543-84.639 84.543h-75.37c-74.055 0-84.639-10.557-84.639-84.543V96.491c0-73.987 10.584-84.544 84.639-84.544h75.37z" vector-effect="non-scaling-stroke"/></g><path fill="#FFF" d="M249.643 83.58L44.234 236.61c11.562 2.311 26.426 3.019 45.523 3.019h75.37c74.055 0 84.639-10.558 84.639-84.544V95.834c0-4.303-.041-8.37-.123-12.254z" opacity=".1"/><g filter="url(#OpdbqWAeI6ZNJ58VXqRJbUmznBJjXJ1z)"><path fill="#CAECEE" d="M46.451 99.032v53.411c0 7.162 1.351 12.315 3.989 15.456 2.513 3.015 7.41 4.561 14.698 4.561h17.307l22.824 16.113 22.827-16.113h62.766c7.288 0 12.185-1.546 14.698-4.561 2.638-3.141 3.989-8.294 3.989-15.456V99.032H46.451z"/><path fill="#FFF" d="M65.138 66.412c-7.287-.091-12.185 1.629-14.698 4.645-2.638 3.141-3.989 8.294-3.989 15.456v2.038c0-7.161 1.351-12.314 3.989-15.455 2.513-3.016 7.411-4.736 14.698-4.645h125.724c7.288 0 12.185 1.629 14.698 4.645 2.638 3.141 3.989 8.294 3.989 15.455v-2.038c0-7.162-1.351-12.315-3.989-15.456-2.513-3.015-7.41-4.645-14.698-4.645H65.138z" opacity=".5"/><defs><filter id="c" width="247.246" height="205.597" x="4.38" y="26.07" filterUnits="userSpaceOnUse"><feGaussianBlur xmlns="http://www.w3.org/2000/svg" stdDeviation="10.766"/></filter></defs><g opacity=".2" filter="url(#c)"><linearGradient id="d" x1=".361" x2=".856" y1=".004" y2=".714" gradientTransform="matrix(163.099 0 0 121.45 46.451 68.142)" gradientUnits="userSpaceOnUse"><stop offset="0%" stop-opacity="0"/><stop offset="67.026%"/><stop offset="100%" stop-opacity="0"/></linearGradient><path fill="url(#d)" d="M65.138 68.145c-7.287-.091-12.184 1.545-14.697 4.56-2.638 3.142-3.99 8.295-3.99 15.457v65.301c0 7.161 1.352 12.314 3.99 15.455 2.513 3.016 7.409 4.562 14.697 4.562h17.307l22.825 16.111 22.826-16.111h62.766c7.288 0 12.184-1.546 14.697-4.562 2.638-3.141 3.99-8.294 3.99-15.455V88.162c0-7.162-1.352-12.315-3.99-15.457-2.513-3.015-7.409-4.56-14.697-4.56H65.138z"/></g><path fill="#DDFBFD" d="M65.138 66.412c-7.287-.091-12.184 1.629-14.697 4.644-2.638 3.141-3.99 8.295-3.99 15.456v63.419l35.994 22.529 22.825 16.112 22.825-16.112 81.454-61.85V86.512c0-7.161-1.352-12.315-3.99-15.456-2.513-3.015-7.409-4.644-14.696-4.644H65.138z"/><path fill="#FBFDFD" d="M110.245 137.409h6.795l2.165-14.186h9.782l-2.166 14.186h6.795l2.165-14.186h8.288l1.046-6.571h-8.363l1.867-11.872h8.586l.971-6.496h-8.587l2.016-13.141h-6.794l-2.016 13.141h-9.856l2.016-13.141h-6.795l-2.016 13.141h-8.288l-.971 6.496h8.288l-1.792 11.872h-8.512l-1.045 6.571h8.587l-2.166 14.186zm9.931-20.757l1.792-11.872h9.856l-1.867 11.872h-9.781z" opacity=".5"/><path fill="#2B898F" d="M112.245 137.409h6.795l2.165-14.186h9.782l-2.166 14.186h6.795l2.165-14.186h8.288l1.046-6.571h-8.363l1.867-11.872h8.586l.971-6.496h-8.587l2.016-13.141h-6.794l-2.016 13.141h-9.856l2.016-13.141h-6.795l-2.016 13.141h-8.288l-.971 6.496h8.288l-1.792 11.872h-8.512l-1.045 6.571h8.587l-2.166 14.186zm9.931-20.757l1.792-11.872h9.856l-1.867 11.872h-9.781z"/></g><defs><filter id="OpdbqWAeI6ZNJ58VXqRJbUmznBJjXJ1z" width="273.246" height="231.597" x="-8.62" y="17.07" filterUnits="userSpaceOnUse"><feGaussianBlur xmlns="http://www.w3.org/2000/svg" in="SourceGraphic" stdDeviation="4.294"/><feOffset xmlns="http://www.w3.org/2000/svg" dy="4" result="pf_100_offsetBlur"/><feFlood xmlns="http://www.w3.org/2000/svg" flood-opacity=".4"/><feComposite xmlns="http://www.w3.org/2000/svg" in2="pf_100_offsetBlur" operator="in" result="pf_100_dropShadow"/><feBlend xmlns="http://www.w3.org/2000/svg" in="SourceGraphic" in2="pf_100_dropShadow"/></filter></defs></svg>