<svg xmlns="http://www.w3.org/2000/svg" style="isolation:isolate" width="256" height="256"><defs><filter id="a" width="270.648" height="254.338" x="-7.32" y="2.95" filterUnits="userSpaceOnUse"><feGaussianBlur xmlns="http://www.w3.org/2000/svg" in="SourceGraphic" stdDeviation="4.294"/><feOffset xmlns="http://www.w3.org/2000/svg" dy="4" result="pf_100_offsetBlur"/><feFlood xmlns="http://www.w3.org/2000/svg" flood-opacity=".4"/><feComposite xmlns="http://www.w3.org/2000/svg" in2="pf_100_offsetBlur" operator="in" result="pf_100_dropShadow"/><feBlend xmlns="http://www.w3.org/2000/svg" in="SourceGraphic" in2="pf_100_dropShadow"/></filter></defs><path fill="#E3DFD5" d="M165.689 11.95c74.056 0 84.639 10.557 84.639 84.544v59.251c0 73.986-10.583 84.543-84.639 84.543h-75.37c-74.055 0-84.639-10.557-84.639-84.543V96.494c0-73.987 10.584-84.544 84.639-84.544h75.37z" filter="url(#a)"/><path fill="#F8C300" d="M63.181 164.346V87.4l66.638-38.473L196.457 87.4v76.946l-66.638 38.476-66.638-38.476z"/><path fill="#FB7C38" d="M249.625 182.694c.027-.417.075-.77.1-1.193.434-7.369.599-15.627.599-24.875V97.374c0-9.248-.165-17.506-.599-24.875-.08-1.352-.22-2.523-.319-3.816l-33.179 20.129-.879 73.447 34.277 20.435z"/><path fill="#BC1938" d="M140.75 241.169h24.936c9.257 0 17.521-.165 24.898-.598 3.688-.216 7.155-.499 10.412-.863 3.257-.364 6.305-.807 9.156-1.344 2.852-.536 5.507-1.167 7.979-1.902 2.472-.735 4.761-1.576 6.879-2.535a39.619 39.619 0 0 0 5.855-3.248 33.279 33.279 0 0 0 4.91-4.037 33.261 33.261 0 0 0 4.043-4.905 39.5 39.5 0 0 0 3.252-5.847c.863-1.9 1.599-3.987 2.28-6.17l-40.231-27.547-64.047 35.961-.322 23.035z"/><path fill="#C43AC4" d="M10.824 210.192c.641 1.996 1.309 3.943 2.106 5.698a39.5 39.5 0 0 0 3.252 5.847 33.261 33.261 0 0 0 4.043 4.905 33.279 33.279 0 0 0 4.91 4.037 39.619 39.619 0 0 0 5.855 3.248c2.118.959 4.407 1.8 6.879 2.535 2.472.735 5.127 1.366 7.979 1.902 2.851.537 5.899.98 9.156 1.344 3.257.364 6.724.647 10.412.863 7.377.433 15.641.598 24.898.598h28.399v-21.932l-63.166-37.484-44.723 28.439z"/><path fill="#2F5FDD" d="M6.906 64.909c-.235 2.458-.472 4.901-.631 7.59-.434 7.369-.599 15.627-.599 24.875v59.252c0 9.248.165 17.506.599 24.875.058.971.162 1.801.229 2.742l36.906-21.306.879-73.448-37.383-24.58z"/><path fill="#37A6E6" d="M118.506 12.831H90.314c-9.257 0-17.521.165-24.898.598-3.688.216-7.155.499-10.412.863-3.257.364-6.305.807-9.156 1.344-2.852.536-5.507 1.167-7.979 1.902-2.472.735-4.761 1.576-6.879 2.535a39.619 39.619 0 0 0-5.855 3.248 33.279 33.279 0 0 0-4.91 4.037 33.261 33.261 0 0 0-4.043 4.905 39.5 39.5 0 0 0-3.252 5.847c-.845 1.861-1.563 3.911-2.233 6.043.423.273.74.527 1.18.803L54.52 69.575l64.044-35.961-.058-20.783z"/><path fill="#76C22B" d="M245.871 46.075c-.097-.346-.161-.755-.262-1.094-.736-2.469-1.578-4.755-2.539-6.871a39.5 39.5 0 0 0-3.252-5.847 33.261 33.261 0 0 0-4.043-4.905 33.279 33.279 0 0 0-4.91-4.037 39.619 39.619 0 0 0-5.855-3.248c-2.118-.959-4.407-1.8-6.879-2.535-2.472-.735-5.127-1.366-7.979-1.902-2.851-.537-5.899-.98-9.156-1.344a198.576 198.576 0 0 0-10.412-.863c-7.377-.433-15.641-.598-24.898-.598h-24.963l.201 19.682 63.168 37.482 41.779-23.92z"/><g opacity=".4"><linearGradient id="b" x1=".517" x2=".517" y2="1"><stop offset="0%" stop-color="#fff"/><stop offset="12.5%" stop-opacity=".098" stop-color="#fff"/><stop offset="92.5%" stop-opacity=".098"/><stop offset="100%" stop-opacity=".498"/></linearGradient><path fill="none" stroke="url(#b)" stroke-linecap="round" stroke-linejoin="round" stroke-width="4.077" d="M165.685 11.947c74.055 0 84.639 10.557 84.639 84.544v59.251c0 73.986-10.584 84.543-84.639 84.543h-75.37c-74.055 0-84.639-10.557-84.639-84.543V96.491c0-73.987 10.584-84.544 84.639-84.544h75.37z" vector-effect="non-scaling-stroke"/></g></svg>