<svg xmlns="http://www.w3.org/2000/svg" style="isolation:isolate" width="256" height="256"><switch><g><defs><filter id="a" width="270.648" height="254.338" x="-7.32" y="2.95" filterUnits="userSpaceOnUse"><feGaussianBlur xmlns="http://www.w3.org/2000/svg" in="SourceGraphic" stdDeviation="4.294"/><feOffset xmlns="http://www.w3.org/2000/svg" dy="4" result="pf_100_offsetBlur"/><feFlood xmlns="http://www.w3.org/2000/svg" flood-opacity=".4"/><feComposite xmlns="http://www.w3.org/2000/svg" in2="pf_100_offsetBlur" operator="in" result="pf_100_dropShadow"/><feBlend xmlns="http://www.w3.org/2000/svg" in="SourceGraphic" in2="pf_100_dropShadow"/></filter></defs><g filter="url(#a)"><linearGradient id="b" x1=".146" x2=".854" y1=".854" y2=".146" gradientTransform="matrix(244.648 0 0 228.338 5.68 11.95)" gradientUnits="userSpaceOnUse"><stop offset="0%" stop-color="#d1313e"/><stop offset="34.838%" stop-color="#a9344f"/><stop offset="100%" stop-color="#6b3274"/></linearGradient><path fill="url(#b)" d="M165.689 11.95c74.056 0 84.639 10.557 84.639 84.544v59.251c0 73.986-10.583 84.543-84.639 84.543h-75.37c-74.055 0-84.639-10.557-84.639-84.543V96.494c0-73.987 10.584-84.544 84.639-84.544h75.37z"/></g><g opacity=".4"><linearGradient id="c" x1=".517" x2=".517" y2="1"><stop offset="0%" stop-color="#fff"/><stop offset="12.5%" stop-opacity=".098" stop-color="#fff"/><stop offset="92.5%" stop-opacity=".098"/><stop offset="100%" stop-opacity=".498"/></linearGradient><path fill="none" stroke="url(#c)" stroke-linecap="round" stroke-linejoin="round" stroke-width="4.077" d="M165.685 11.947c74.055 0 84.639 10.557 84.639 84.544v59.251c0 73.986-10.584 84.543-84.639 84.543h-75.37c-74.055 0-84.639-10.557-84.639-84.543V96.491c0-73.987 10.584-84.544 84.639-84.544h75.37z" vector-effect="non-scaling-stroke"/></g><defs><filter id="d" width="146.986" height="148.221" x="54.51" y="53.89" filterUnits="userSpaceOnUse"><feGaussianBlur xmlns="http://www.w3.org/2000/svg" stdDeviation="1.5"/></filter></defs><path fill-opacity=".714" d="M128 57.389c-5.034-.056-6.795.133-7.503 6.273l-.27 2.17c-.621 3.983-.74 5.786-4.475 6.762-.25.056-.5.113-.749.173-.059.012-.111.026-.171.039l.007.001c-.943.23-1.876.485-2.8.762l.009-.011c-.154.053-.295.095-.441.141-.14.043-.28.085-.419.129-3.753 1.062-4.746-.44-7.268-3.588l-1.311-1.743c-1.828-2.481-3.145-3.539-4.548-3.654a3.258 3.258 0 0 0-.532 0c-1.254.099-2.629.876-4.524 2.008-4.388 2.49-5.819 3.54-3.389 9.215l.84 2.016c1.546 4.051 2.351 5.618-1.216 8.76l.095-.022a57.328 57.328 0 0 0-2.153 2.174l.02-.096c-3.114 3.598-4.668 2.787-8.684 1.227l-1.998-.85c-1.758-.766-3.068-1.151-4.114-1.184-2.301-.073-3.323 1.56-5.02 4.603-2.566 4.37-3.286 6.002 1.631 9.691l1.728 1.323c3.12 2.543 4.61 3.545 3.557 7.332-.044.14-.085.281-.128.423-.045.147-.086.289-.138.445l.009-.01a56.66 56.66 0 0 0-.755 2.825l-.002-.008c-.012.061-.026.114-.038.173-.059.251-.115.503-.171.756-.968 3.768-2.755 3.888-6.703 4.515l-2.151.272c-6.087.714-6.274 2.491-6.218 7.569-.056 5.078.131 6.855 6.218 7.569l2.151.272c3.948.627 5.735.747 6.703 4.515.056.253.112.505.171.756.012.059.026.112.038.173l.002-.008c.228.952.48 1.893.755 2.825l-.011-.01c.053.156.095.298.14.445.043.142.084.283.128.423 1.053 3.787-.437 4.789-3.557 7.332l-1.728 1.323c-4.917 3.689-4.197 5.319-1.631 9.689 2.468 4.426 3.509 5.87 9.134 3.419l1.998-.848c4.016-1.56 5.57-2.371 8.684 1.227l-.021-.096a56.563 56.563 0 0 0 2.154 2.172l-.095-.02c3.567 3.142 2.762 4.709 1.216 8.76l-.842 2.016c-2.43 5.675-.999 6.727 3.389 9.217 4.332 2.588 5.95 3.313 9.607-1.648l1.31-1.743c2.522-3.148 3.515-4.65 7.268-3.588.139.044.279.086.419.129.146.046.287.088.441.141l-.009-.011c.924.277 1.857.532 2.8.762l-.007.001c.06.013.112.027.171.039.249.06.499.117.749.173 3.735.976 3.854 2.779 4.475 6.762l.27 2.17c.708 6.14 2.469 6.329 7.503 6.273 5.034.056 6.795-.133 7.503-6.273l.27-2.17c.621-3.983.74-5.786 4.475-6.762.25-.057.5-.113.749-.173.059-.012.111-.026.172-.039l-.008-.001c.943-.23 1.876-.485 2.8-.762l-.009.011c.154-.053.295-.095.441-.141.14-.043.28-.085.419-.129 3.754-1.062 4.747.44 7.268 3.588l1.311 1.743c3.657 4.961 5.273 4.234 9.605 1.646 4.387-2.49 5.819-3.54 3.388-9.215l-.84-2.016c-1.546-4.051-2.35-5.618 1.216-8.76l-.095.022a57.328 57.328 0 0 0 2.153-2.174l-.02.096c3.115-3.598 4.668-2.787 8.684-1.227l1.998.85c5.626 2.451 6.666 1.007 9.135-3.419 2.565-4.37 3.285-6.002-1.632-9.691l-1.728-1.323c-3.12-2.543-4.609-3.545-3.557-7.332.044-.14.085-.281.128-.423.046-.147.086-.289.139-.445l-.01.01a56.66 56.66 0 0 0 .755-2.825l.002.008c.012-.061.026-.114.038-.173.059-.251.115-.503.171-.756.968-3.768 2.755-3.888 6.703-4.515l2.151-.272c6.087-.714 6.274-2.491 6.218-7.569.056-5.078-.131-6.855-6.218-7.569l-2.151-.272c-3.948-.627-5.735-.747-6.703-4.515a59.472 59.472 0 0 0-.171-.756c-.012-.059-.026-.112-.038-.173l-.002.008a56.37 56.37 0 0 0-.755-2.825l.011.01c-.053-.156-.095-.298-.14-.445-.043-.142-.084-.283-.128-.423-1.053-3.787.437-4.789 3.557-7.332l1.728-1.323c4.917-3.689 4.197-5.319 1.631-9.689-1.697-3.043-2.719-4.678-5.02-4.605-1.046.033-2.356.42-4.114 1.186l-1.998.848c-4.016 1.56-5.57 2.371-8.684-1.227l.021.096a56.563 56.563 0 0 0-2.154-2.172l.095.02c-3.567-3.142-2.762-4.709-1.216-8.76l.842-2.016c2.43-5.675.999-6.725-3.389-9.215-2.166-1.294-3.654-2.123-5.057-2.008-1.403.115-2.721 1.173-4.549 3.654l-1.311 1.743c-2.522 3.148-3.515 4.65-7.268 3.588-.139-.044-.279-.086-.419-.129-.146-.046-.287-.086-.441-.139l.009.009a54.712 54.712 0 0 0-2.8-.761l.007-.002c-.06-.012-.112-.027-.171-.039-.249-.06-.499-.116-.749-.173-3.735-.976-3.854-2.779-4.475-6.762l-.27-2.17c-.708-6.14-2.469-6.329-7.503-6.273zm-.011 29.183H128c4.728 0 9.297.824 13.566 2.336a11.286 11.286 0 0 0 5.1 6.476 11.115 11.115 0 0 0 8.092 1.216 41.407 41.407 0 0 1 13.477 23.114c.473 2.335-1.296 4.52-3.659 4.52h-11.553a3.737 3.737 0 0 1-3.578-2.69c-2.832-9.582-11.526-16.125-21.436-16.139a22.23 22.23 0 0 0-5.168.636 3.72 3.72 0 0 1-4.114-1.776l-5.768-10.076c-1.178-2.061-.191-4.694 2.044-5.452a40.708 40.708 0 0 1 12.986-2.165zm-24.552 9.506c1.27.06 2.423.768 3.058 1.879l5.768 10.076a3.792 3.792 0 0 1-.523 4.474 22.702 22.702 0 0 0-6.14 15.495 22.702 22.702 0 0 0 6.131 15.508 3.793 3.793 0 0 1 .523 4.473l-5.751 10.051a3.715 3.715 0 0 1-5.708.938c-6.867-6.126-11.437-14.347-13.125-23.294A11.35 11.35 0 0 0 90.667 128a11.357 11.357 0 0 0-2.998-7.674c1.684-8.95 6.25-17.176 13.119-23.307a3.716 3.716 0 0 1 2.649-.941zm49.595 35.689h11.506c2.363-.001 4.131 2.185 3.659 4.52a41.411 41.411 0 0 1-13.466 23.105 11.042 11.042 0 0 0-2.729-.285c-1.876.044-3.71.563-5.336 1.509a11.28 11.28 0 0 0-5.089 6.461 40.62 40.62 0 0 1-13.573 2.352h-.018a40.723 40.723 0 0 1-12.979-2.18c-2.233-.76-3.218-3.391-2.04-5.45l5.758-10.063a3.722 3.722 0 0 1 4.115-1.777c1.693.415 3.429.627 5.171.637 9.913-.01 18.61-6.554 21.443-16.139a3.737 3.737 0 0 1 3.578-2.69z" opacity=".2" filter="url(#d)"/><defs><filter id="e" width="146.986" height="148.221" x="54.51" y="55.77" filterUnits="userSpaceOnUse"><feGaussianBlur xmlns="http://www.w3.org/2000/svg" stdDeviation="1.5"/></filter></defs><g opacity=".2" filter="url(#e)"><linearGradient id="f" x1=".5" x2=".5" y1=".1" y2=".847" gradientTransform="matrix(139.999 0 0 141.234 58.001 59.266)" gradientUnits="userSpaceOnUse"><stop offset="0%" stop-opacity="0"/><stop offset="50%"/><stop offset="100%" stop-opacity="0"/></linearGradient><path fill="url(#f)" d="M128 59.273c-5.034-.057-6.795.132-7.503 6.272l-.27 2.17c-.621 3.983-.74 5.786-4.475 6.762-.25.057-.5.113-.749.173-.059.012-.111.027-.171.039l.007.001c-.943.23-1.876.485-2.8.762l.009-.011c-.154.053-.295.095-.441.141-.14.044-.28.085-.419.129-3.753 1.062-4.746-.44-7.268-3.588l-1.311-1.743c-1.828-2.48-3.145-3.539-4.548-3.654a3.374 3.374 0 0 0-.532 0c-1.254.099-2.629.876-4.524 2.008-4.388 2.49-5.819 3.54-3.389 9.215l.84 2.016c1.546 4.051 2.351 5.618-1.216 8.761l.095-.023a58.078 58.078 0 0 0-2.153 2.174l.02-.095c-3.114 3.597-4.668 2.786-8.684 1.226l-1.998-.849c-1.758-.767-3.068-1.152-4.114-1.185-2.301-.072-3.323 1.56-5.02 4.603-2.566 4.37-3.286 6.003 1.631 9.692l1.728 1.322c3.12 2.544 4.61 3.545 3.557 7.332-.044.14-.085.282-.128.423-.045.147-.086.289-.138.445l.009-.01a56.952 56.952 0 0 0-.755 2.825l-.002-.008c-.012.061-.026.114-.038.173-.059.252-.115.504-.171.756-.968 3.768-2.755 3.888-6.703 4.515l-2.151.272c-6.087.714-6.274 2.491-6.218 7.569-.056 5.079.131 6.855 6.218 7.569l2.151.272c3.948.627 5.735.747 6.703 4.515.056.253.112.505.171.756.012.059.026.112.038.173l.002-.008c.228.952.48 1.893.755 2.825l-.011-.009c.053.155.095.297.14.445.043.141.084.282.128.423 1.053 3.786-.437 4.788-3.557 7.332l-1.728 1.322c-4.917 3.689-4.197 5.319-1.631 9.689 2.468 4.427 3.509 5.871 9.134 3.419l1.998-.848c4.016-1.559 5.57-2.371 8.684 1.227l-.021-.096a56.563 56.563 0 0 0 2.154 2.172l-.095-.02c3.567 3.142 2.762 4.709 1.216 8.761l-.842 2.015c-2.43 5.675-.999 6.727 3.389 9.217 4.332 2.588 5.95 3.313 9.607-1.648l1.31-1.743c2.522-3.148 3.515-4.65 7.268-3.588.139.044.279.086.419.129.146.046.287.088.441.141l-.009-.011c.924.277 1.857.532 2.8.762l-.007.002c.06.012.112.026.171.038.249.06.499.117.749.173 3.735.976 3.854 2.779 4.475 6.762l.27 2.17c.708 6.141 2.469 6.329 7.503 6.273 5.034.056 6.795-.132 7.503-6.273l.27-2.17c.621-3.983.74-5.786 4.475-6.762.25-.056.5-.113.749-.173.059-.012.111-.026.172-.038l-.008-.002c.943-.23 1.876-.485 2.8-.762l-.009.011c.154-.053.295-.095.441-.141.14-.043.28-.085.419-.129 3.754-1.062 4.747.44 7.268 3.588l1.311 1.743c3.657 4.961 5.273 4.234 9.605 1.646 4.387-2.49 5.819-3.54 3.388-9.215l-.84-2.015c-1.546-4.051-2.35-5.619 1.216-8.761l-.095.022a57.328 57.328 0 0 0 2.153-2.174l-.02.096c3.115-3.598 4.668-2.786 8.684-1.227l1.998.85c5.626 2.451 6.666 1.007 9.135-3.419 2.565-4.37 3.285-6.002-1.632-9.691l-1.728-1.323c-3.12-2.543-4.609-3.545-3.557-7.332.044-.14.085-.281.128-.422.046-.148.086-.29.139-.445l-.01.009a56.37 56.37 0 0 0 .755-2.825l.002.008c.012-.061.026-.114.038-.173.059-.251.115-.503.171-.756.968-3.768 2.755-3.888 6.703-4.515l2.151-.272c6.087-.714 6.274-2.49 6.218-7.569.056-5.078-.131-6.855-6.218-7.569l-2.151-.272c-3.948-.627-5.735-.747-6.703-4.515-.056-.252-.112-.505-.171-.756-.012-.059-.026-.112-.038-.173l-.002.008a56.66 56.66 0 0 0-.755-2.825l.011.01c-.053-.156-.095-.298-.14-.445-.043-.141-.084-.283-.128-.423-1.053-3.787.437-4.789 3.557-7.332l1.728-1.323c4.917-3.688 4.197-5.319 1.631-9.689-1.697-3.043-2.719-4.677-5.02-4.605-1.046.033-2.356.42-4.114 1.186l-1.998.848c-4.016 1.56-5.57 2.371-8.684-1.227l.021.096a56.563 56.563 0 0 0-2.154-2.172l.095.021c-3.567-3.143-2.762-4.71-1.216-8.761l.842-2.016c2.43-5.675.999-6.725-3.389-9.215-2.166-1.294-3.654-2.123-5.057-2.008-1.403.115-2.721 1.174-4.549 3.654l-1.311 1.743c-2.522 3.148-3.515 4.65-7.268 3.588-.139-.044-.279-.085-.419-.129-.146-.046-.287-.086-.441-.139l.009.009a54.712 54.712 0 0 0-2.8-.761l.007-.002c-.06-.012-.112-.027-.171-.039-.249-.06-.499-.116-.749-.173-3.735-.976-3.854-2.779-4.475-6.762l-.27-2.169c-.708-6.141-2.469-6.33-7.503-6.273zm-.011 29.182H128c4.728 0 9.297.824 13.566 2.336a11.283 11.283 0 0 0 5.1 6.476 11.11 11.11 0 0 0 8.092 1.216 41.407 41.407 0 0 1 13.477 23.114c.473 2.335-1.296 4.52-3.659 4.52h-11.553a3.737 3.737 0 0 1-3.578-2.69c-2.832-9.582-11.526-16.125-21.436-16.139-1.741.01-3.476.222-5.168.636a3.72 3.72 0 0 1-4.114-1.776l-5.768-10.076c-1.178-2.061-.191-4.694 2.044-5.452a40.708 40.708 0 0 1 12.986-2.165zm-24.552 9.506c1.27.06 2.423.768 3.058 1.879l5.768 10.076a3.792 3.792 0 0 1-.523 4.474 22.702 22.702 0 0 0-6.14 15.495 22.702 22.702 0 0 0 6.131 15.508 3.793 3.793 0 0 1 .523 4.473l-5.751 10.051a3.715 3.715 0 0 1-5.708.938c-6.867-6.126-11.437-14.347-13.125-23.294a11.348 11.348 0 0 0 2.997-7.678 11.357 11.357 0 0 0-2.998-7.674c1.684-8.95 6.25-17.176 13.119-23.307a3.716 3.716 0 0 1 2.649-.941zm49.595 35.689h11.506c2.363-.001 4.131 2.185 3.659 4.52a41.411 41.411 0 0 1-13.466 23.105 11.042 11.042 0 0 0-2.729-.285c-1.876.044-3.71.563-5.336 1.509a11.28 11.28 0 0 0-5.089 6.461 40.596 40.596 0 0 1-13.573 2.352h-.018a40.75 40.75 0 0 1-12.979-2.179c-2.233-.761-3.218-3.392-2.04-5.451l5.758-10.063a3.72 3.72 0 0 1 4.115-1.776c1.693.415 3.429.626 5.171.636 9.913-.01 18.61-6.554 21.443-16.139a3.738 3.738 0 0 1 3.578-2.69z"/></g><linearGradient id="g" x1=".82" x2=".82" y1="1.247" y2="-.247" gradientTransform="matrix(140 0 0 141.234 58 55.5)" gradientUnits="userSpaceOnUse"><stop offset="0%" stop-color="#e6e6e6"/><stop offset="100%" stop-color="#d3d3d3"/></linearGradient><path fill="url(#g)" d="M128 55.506c-5.034-.056-6.795.132-7.503 6.273l-.27 2.17c-.621 3.983-.74 5.786-4.475 6.762-.25.057-.5.113-.749.173-.059.01-.111.024-.171.038l.007.002a55.76 55.76 0 0 0-2.8.761l.009-.01c-.155.053-.295.096-.441.142-.14.043-.28.084-.42.128-3.753 1.063-4.746-.44-7.267-3.587l-1.311-1.744c-1.828-2.48-3.145-3.539-4.548-3.654a3.375 3.375 0 0 0-.532 0c-1.255.099-2.63.876-4.525 2.008-4.388 2.491-5.819 3.54-3.389 9.215l.841 2.016c1.546 4.051 2.35 5.619-1.216 8.761l.095-.021a56.59 56.59 0 0 0-2.153 2.174l.02-.096c-3.115 3.598-4.669 2.786-8.684 1.226l-1.998-.849c-1.758-.766-3.069-1.151-4.115-1.184-2.301-.073-3.323 1.559-5.02 4.603-2.565 4.369-3.286 6.002 1.632 9.691l1.728 1.322c3.12 2.544 4.609 3.546 3.556 7.332-.044.141-.085.282-.127.423-.046.147-.086.289-.139.445l.009-.01a57.73 57.73 0 0 0-.755 2.824l-.001-.007-.039.173c-.059.252-.115.504-.171.756-.967 3.768-2.755 3.888-6.703 4.515l-2.151.272c-6.087.715-6.274 2.491-6.218 7.569-.056 5.079.131 6.855 6.218 7.57l2.151.272c3.948.627 5.736.747 6.703 4.515.056.252.112.504.171.755.012.06.027.112.039.173l.001-.007c.228.952.481 1.893.755 2.825l-.011-.011c.053.156.095.298.14.445.043.141.084.283.128.423 1.053 3.787-.436 4.789-3.556 7.332l-1.728 1.321c-4.917 3.689-4.197 5.32-1.631 9.69 2.468 4.426 3.509 5.87 9.134 3.418l1.998-.847c4.016-1.56 5.569-2.372 8.684 1.226l-.022-.096a57.327 57.327 0 0 0 2.155 2.172l-.095-.021c3.567 3.143 2.762 4.71 1.216 8.761l-.842 2.016c-2.43 5.675-.999 6.726 3.389 9.217 4.331 2.588 5.95 3.313 9.606-1.648l1.311-1.743c2.522-3.148 3.515-4.65 7.268-3.588.139.044.279.085.419.129.146.045.287.088.441.141l-.009-.01c.924.277 1.857.532 2.8.761l-.007.002c.06.01.113.024.171.039.249.059.499.116.75.173 3.735.975 3.853 2.779 4.475 6.761l.27 2.17c.708 6.141 2.469 6.33 7.503 6.273 5.034.057 6.795-.132 7.503-6.273l.269-2.17c.622-3.982.74-5.786 4.476-6.761.25-.057.5-.114.749-.173.059-.011.111-.025.171-.039l-.007-.002a54.712 54.712 0 0 0 2.8-.761l-.009.01c.154-.053.294-.095.441-.141.14-.043.28-.085.419-.129 3.753-1.062 4.746.44 7.268 3.588l1.31 1.743c3.657 4.961 5.274 4.234 9.605 1.646 4.388-2.491 5.819-3.54 3.389-9.215l-.84-2.016c-1.546-4.051-2.351-5.618 1.216-8.761l-.095.021a58.051 58.051 0 0 0 2.153-2.173l-.021.095c3.115-3.597 4.669-2.786 8.685-1.226l1.998.849c5.625 2.452 6.666 1.008 9.134-3.418 2.566-4.37 3.286-6.003-1.631-9.692l-1.728-1.322c-3.12-2.544-4.61-3.546-3.557-7.332.044-.141.085-.282.128-.423.045-.147.086-.289.138-.445l-.009.011c.274-.933.527-1.874.755-2.825l.001.007.039-.173c.059-.251.115-.503.171-.756.967-3.768 2.755-3.888 6.703-4.514l2.151-.273c6.087-.714 6.274-2.49 6.218-7.569.056-5.078-.131-6.855-6.218-7.569l-2.151-.272c-3.948-.627-5.736-.747-6.703-4.515-.056-.252-.112-.505-.171-.756l-.039-.173-.001.007a57.73 57.73 0 0 0-.755-2.824l.011.01c-.053-.156-.095-.297-.14-.445-.043-.141-.084-.282-.128-.423-1.053-3.786.436-4.788 3.556-7.332l1.729-1.322c4.917-3.689 4.197-5.32 1.631-9.69-1.697-3.043-2.719-4.677-5.02-4.604-1.046.031-2.357.42-4.114 1.186l-1.998.847c-4.016 1.56-5.57 2.372-8.685-1.226l.022.096a56.563 56.563 0 0 0-2.154-2.172l.094.021c-3.566-3.143-2.761-4.71-1.216-8.761l.843-2.016c2.43-5.675.998-6.724-3.389-9.215-2.166-1.294-3.654-2.123-5.057-2.008-1.403.115-2.721 1.174-4.55 3.654l-1.31 1.743c-2.522 3.148-3.515 4.65-7.268 3.588l-.42-.129c-.146-.045-.286-.086-.441-.14l.01.011a54.712 54.712 0 0 0-2.8-.761l.007-.002c-.06-.011-.113-.025-.171-.039a58.545 58.545 0 0 0-.75-.172c-3.735-.976-3.853-2.78-4.475-6.762l-.27-2.17c-.707-6.141-2.468-6.33-7.502-6.273l-.001-.001zm-.011 29.183H128c4.728 0 9.297.824 13.566 2.335a11.285 11.285 0 0 0 5.1 6.477 11.115 11.115 0 0 0 8.092 1.216 41.407 41.407 0 0 1 13.477 23.114c.473 2.335-1.296 4.52-3.659 4.52h-11.553a3.737 3.737 0 0 1-3.578-2.69c-2.832-9.582-11.526-16.125-21.436-16.139a22.23 22.23 0 0 0-5.168.636 3.72 3.72 0 0 1-4.114-1.776l-5.768-10.076c-1.178-2.061-.191-4.694 2.044-5.453a40.735 40.735 0 0 1 12.986-2.164zm-24.552 9.506c1.27.06 2.423.768 3.058 1.879l5.768 10.076a3.792 3.792 0 0 1-.523 4.474 22.702 22.702 0 0 0-6.14 15.495 22.702 22.702 0 0 0 6.131 15.508 3.792 3.792 0 0 1 .523 4.472l-5.751 10.052a3.715 3.715 0 0 1-5.708.938c-6.867-6.127-11.437-14.348-13.125-23.294a11.355 11.355 0 0 0 2.997-7.678 11.355 11.355 0 0 0-2.998-7.674c1.684-8.95 6.25-17.176 13.119-23.307a3.716 3.716 0 0 1 2.649-.941zm49.595 35.688h11.506c2.363 0 4.131 2.186 3.659 4.521a41.405 41.405 0 0 1-13.466 23.104 11.138 11.138 0 0 0-2.729-.285c-1.876.045-3.71.564-5.336 1.51a11.282 11.282 0 0 0-5.089 6.46 40.57 40.57 0 0 1-13.573 2.352h-.019a40.731 40.731 0 0 1-12.979-2.179c-2.232-.76-3.217-3.391-2.039-5.451l5.758-10.062a3.721 3.721 0 0 1 4.114-1.777c1.693.415 3.43.627 5.172.637 9.913-.011 18.61-6.555 21.443-16.139a3.737 3.737 0 0 1 3.578-2.691z"/><path d="M128 77.157c-22.968 0-42.209 16.121-47.238 37.75a11.162 11.162 0 0 1 6.907 3.536c1.684-8.95 6.25-17.176 13.119-23.307a3.716 3.716 0 0 1 2.649-.941c1.27.06 2.423.768 3.058 1.879l5.768 10.076a3.792 3.792 0 0 1-.523 4.474 22.702 22.702 0 0 0-6.14 15.495 22.702 22.702 0 0 0 6.131 15.508 3.792 3.792 0 0 1 .523 4.472l-5.751 10.052a3.715 3.715 0 0 1-5.708.938c-6.867-6.127-11.437-14.348-13.125-23.294a11.162 11.162 0 0 1-6.906 3.536c5.03 21.627 24.269 37.747 47.236 37.747 4.868 0 9.566-.731 14-2.078a11.397 11.397 0 0 1-.423-7.807 40.596 40.596 0 0 1-13.573 2.353h-.019a40.732 40.732 0 0 1-12.979-2.18c-2.232-.76-3.217-3.391-2.039-5.45l5.758-10.063a3.721 3.721 0 0 1 4.114-1.777c1.693.415 3.43.627 5.172.637 9.913-.011 18.61-6.554 21.443-16.139a3.737 3.737 0 0 1 3.578-2.691h11.506c2.362 0 4.131 2.186 3.659 4.521a41.41 41.41 0 0 1-13.466 23.104 11.197 11.197 0 0 1 6.508 4.26c9.408-8.932 15.294-21.597 15.294-35.651 0-14.056-5.888-26.724-15.3-35.656a11.19 11.19 0 0 1-6.475 4.256 41.407 41.407 0 0 1 13.477 23.114c.472 2.335-1.296 4.52-3.659 4.52h-11.553a3.739 3.739 0 0 1-3.579-2.69c-2.831-9.582-11.525-16.125-21.435-16.139a22.23 22.23 0 0 0-5.168.636 3.72 3.72 0 0 1-4.114-1.776l-5.768-10.076c-1.178-2.061-.191-4.694 2.044-5.453a40.73 40.73 0 0 1 12.986-2.164H128c4.728 0 9.297.824 13.566 2.335a11.393 11.393 0 0 1 .428-7.791A48.074 48.074 0 0 0 128 77.157zm0 33.895c3.961 0 7.759 1.588 10.559 4.413a15.13 15.13 0 0 1 4.374 10.652c0 8.32-6.686 15.065-14.933 15.065s-14.933-6.745-14.933-15.065a15.13 15.13 0 0 1 4.374-10.652A14.868 14.868 0 0 1 128 111.052z" opacity=".1"/><path fill="#B3B3B3" d="M152.002 78.072a5.595 5.595 0 0 0-4.584 2.819c-1.546 2.702-.629 6.157 2.048 7.717 2.678 1.559 6.103.634 7.649-2.067a5.694 5.694 0 0 0 .561-4.287 5.643 5.643 0 0 0-2.61-3.431 5.561 5.561 0 0 0-3.064-.751zm-72.535 42.396a5.572 5.572 0 0 0-3.959 1.655 5.673 5.673 0 0 0-1.64 3.994c0 3.12 2.507 5.65 5.599 5.65 3.093 0 5.6-2.53 5.6-5.65 0-1.498-.59-2.935-1.64-3.994a5.572 5.572 0 0 0-3.96-1.655zm72.668 42.403a5.558 5.558 0 0 0-2.669.756c-2.677 1.56-3.594 5.014-2.048 7.716 1.546 2.701 4.97 3.627 7.648 2.067 2.678-1.56 3.595-5.015 2.049-7.716a5.588 5.588 0 0 0-4.98-2.823z"/></g></switch> </svg>