<svg xmlns="http://www.w3.org/2000/svg" style="isolation:isolate" width="256" height="256"><defs><filter id="a" width="270.648" height="254.338" x="-7.32" y="2.95" filterUnits="userSpaceOnUse"><feGaussianBlur xmlns="http://www.w3.org/2000/svg" in="SourceGraphic" stdDeviation="4.294"/><feOffset xmlns="http://www.w3.org/2000/svg" dy="4" result="pf_100_offsetBlur"/><feFlood xmlns="http://www.w3.org/2000/svg" flood-opacity=".4"/><feComposite xmlns="http://www.w3.org/2000/svg" in2="pf_100_offsetBlur" operator="in" result="pf_100_dropShadow"/><feBlend xmlns="http://www.w3.org/2000/svg" in="SourceGraphic" in2="pf_100_dropShadow"/></filter></defs><g filter="url(#a)"><linearGradient id="b" x1=".5" x2=".5" y1=".999" y2="-.814" gradientTransform="matrix(244.648 0 0 228.338 5.68 11.95)" gradientUnits="userSpaceOnUse"><stop offset="0%" stop-color="#ad4f8d"/><stop offset="100%" stop-color="#6b8ccb"/></linearGradient><path fill="url(#b)" d="M165.689 11.95c74.056 0 84.639 10.557 84.639 84.544v59.251c0 73.986-10.583 84.543-84.639 84.543h-75.37c-74.055 0-84.639-10.557-84.639-84.543V96.494c0-73.987 10.584-84.544 84.639-84.544h75.37z"/></g><path fill="none" d="M165.862 11.831c74.406 0 85.04 10.557 85.04 84.544v59.251c0 73.986-10.634 84.543-85.04 84.543H90.137c-74.405 0-85.039-10.557-85.039-84.543V96.375c0-73.987 10.634-84.544 85.039-84.544h75.725z"/><path fill="#F7F7F7" fill-opacity=".5" d="M63.539 239.441c.55.036 1.021.098 1.581.131.435.025 1.027.011 1.468.035l-.039-7.592 26.629-24.465v-8.156l12.29-12.233v-6.115l6.144-6.117V158.62l-8.193-8.156H87.032l-8.193-8.154H58.356l-8.195 8.154v20.389l16.443 14.34-.055 18.279-6.144 6.117v26.502l3.134 3.35zM99.322 81.148l-6.144 6.117h6.144l2.049 2.039h2.048l2.049-2.039-6.146-6.117zm77.838 28.542h-24.58l-14.338 14.271v20.388l10.241 10.194h14.339l6.145 6.116v6.116l4.097 4.077v24.465l15.556 16.365 25.688-25.567-.277-23.418 20.484-20.387h-8.194l-20.483-20.387v-8.155h-24.581l-4.097-4.078z"/><path fill="#F7F7F7" fill-opacity=".5" d="M250.902 117.845V96.374c0-9.248-.167-17.505-.603-24.875a197.93 197.93 0 0 0-.869-10.4c-.366-3.254-.812-6.298-1.352-9.147-.54-2.848-1.174-5.501-1.914-7.97-.739-2.469-1.585-4.756-2.551-6.871-.614-1.347-1.365-2.511-2.08-3.723l-2.922 2.908h-12.29l-12.29 12.233-8.193-8.155h-24.58l-12.29 12.233V62.8h12.29v-6.117h8.193v8.156l-4.098 4.076-16.385.276-6.146 5.841h-8.193v8.155l-6.146 6.117v12.23h12.29l8.195-8.154h8.193v4.078l8.192 8.155h4.098v-4.079l-8.193-8.154h8.193l8.192 8.154h10.242l-6.144-6.115 6.144-6.115h6.146l6.144 6.115h-6.144l-6.146 6.115 6.034 6.006.112 6.227h-8.193l24.581 24.465h4.095l4.097-4.076 8.193-8.157-8.193-8.154h12.291z"/><path fill="#F7F7F7" fill-opacity=".5" d="M156.677 70.954v-6.116l6.145-6.116v12.232h-6.145zm63.499 120.286v-12.784l8.194-7.604v20.388h-8.194zM136.193 11.831H90.136c-.789 0-1.348.049-2.123.051l-7.125 8.104 12.29 12.232v12.783l14.339 15.76h8.193v-8.154L128 40.374v-8.156l8.193-8.154V11.831zm-10.242 44.852h6.146l6.145 6.116h-12.291v-6.116zm-55.305 67.278h-6.145l-6.146 6.117h12.291v-6.117z"/><path fill="#F7F7F7" fill-opacity=".5" d="M16.003 30.841c-.107.152-.245.268-.35.422a39.514 39.514 0 0 0-3.267 5.848c-.965 2.115-1.811 4.402-2.551 6.871-.74 2.469-1.373 5.122-1.913 7.97-.54 2.849-.986 5.893-1.352 9.147a197.89 197.89 0 0 0-.87 10.4c-.436 7.37-.602 15.627-.602 24.875v21.471l8.193 8.154h12.29l20.485 20.389v-24.465l12.29-12.232h8.193l12.29-12.233h12.29l-6.144-6.117 12.29-14.269-12.29-12.233H66.549v16.309h-8.193l-8.195-8.155v-8.154l12.291-12.232h10.243V44.45l-12.29-12.232H39.92V44.45H29.678L16.003 30.841zm50.546-18.445c-.429.023-1.005.008-1.429.033-3.705.217-7.189.5-10.461.863-3.272.364-6.334.808-9.199 1.344a80.758 80.758 0 0 0-7.159 1.699l7.765 7.729h20.483V12.396z"/><circle fill="#FFF" cx="72.377" cy="103.575" r="4.078" vector-effect="non-scaling-stroke"/><circle fill="#FFF" cx="92.764" cy="185.125" r="4.078" vector-effect="non-scaling-stroke"/><circle fill="#FFF" cx="153.927" cy="144.35" r="4.078" vector-effect="non-scaling-stroke"/><circle fill="#FFF" cx="174.314" cy="83.187" r="4.078" vector-effect="non-scaling-stroke"/><path fill="none" stroke="#FFF" stroke-width="2" d="M5.098 138.234c68.415-49.089 150.868-57.085 244.65-59.124M6.67 59.789c20.973 15.048 41.693 29.384 65.226 43.833 53.234 32.684 112.819 59.511 177.852 60.924m-95.312-23.254c20.097-43.077 32.367-78.596 27.252-129.117m-42.213 227.652C69.537 187.488 63.917 114.56 75.969 12.175" vector-effect="non-scaling-stroke" opacity=".5"/><circle fill="#FFF" cx="72.377" cy="103.575" r="4.078" vector-effect="non-scaling-stroke" filter="url(#c)"/><defs><filter id="c" width="33.31" height="33.31" x="55.72" y="86.92" filterUnits="userSpaceOnUse"><feGaussianBlur xmlns="http://www.w3.org/2000/svg" stdDeviation="2.7"/></filter></defs><circle fill="#FFF" cx="92.764" cy="185.125" r="4.078" vector-effect="non-scaling-stroke" filter="url(#d)"/><defs><filter id="d" width="33.31" height="33.31" x="76.11" y="168.47" filterUnits="userSpaceOnUse"><feGaussianBlur xmlns="http://www.w3.org/2000/svg" stdDeviation="2.7"/></filter></defs><circle fill="#FFF" cx="153.927" cy="144.35" r="4.078" vector-effect="non-scaling-stroke" filter="url(#e)"/><defs><filter id="e" width="33.31" height="33.31" x="137.27" y="127.69" filterUnits="userSpaceOnUse"><feGaussianBlur xmlns="http://www.w3.org/2000/svg" stdDeviation="2.7"/></filter></defs><circle fill="#FFF" cx="174.314" cy="83.187" r="4.078" vector-effect="non-scaling-stroke" filter="url(#f)"/><defs><filter id="f" width="33.31" height="33.31" x="157.66" y="66.53" filterUnits="userSpaceOnUse"><feGaussianBlur xmlns="http://www.w3.org/2000/svg" stdDeviation="2.7"/></filter></defs><path fill="none" stroke="#FFF" stroke-width="2" d="M153.355 144.159c-44.396 55.549-135.478 57.02-146.659 50.023" vector-effect="non-scaling-stroke" opacity=".5"/><g opacity=".4"><linearGradient id="g" x1=".517" x2=".517" y2="1"><stop offset="0%" stop-color="#fff"/><stop offset="12.5%" stop-opacity=".098" stop-color="#fff"/><stop offset="92.5%" stop-opacity=".098"/><stop offset="100%" stop-opacity=".498"/></linearGradient><path fill="none" stroke="url(#g)" stroke-linecap="round" stroke-linejoin="round" stroke-width="4.077" d="M165.685 11.947c74.055 0 84.639 10.557 84.639 84.544v59.251c0 73.986-10.584 84.543-84.639 84.543h-75.37c-74.055 0-84.639-10.557-84.639-84.543V96.491c0-73.987 10.584-84.544 84.639-84.544h75.37z" vector-effect="non-scaling-stroke"/></g><defs><filter id="h" width="171" height="171" x="42" y="46" filterUnits="userSpaceOnUse"><feGaussianBlur xmlns="http://www.w3.org/2000/svg" in="SourceGraphic" stdDeviation="4.294"/><feOffset xmlns="http://www.w3.org/2000/svg" dy="4" result="pf_100_offsetBlur"/><feFlood xmlns="http://www.w3.org/2000/svg" flood-opacity=".4"/><feComposite xmlns="http://www.w3.org/2000/svg" in2="pf_100_offsetBlur" operator="in" result="pf_100_dropShadow"/><feBlend xmlns="http://www.w3.org/2000/svg" in="SourceGraphic" in2="pf_100_dropShadow"/></filter></defs><g filter="url(#h)"><path fill="#FFF" fill-rule="evenodd" d="M149.25 95.6a7.25 7.25 0 1 1 0-14.5 7.25 7.25 0 0 1 0 14.5zm20.3 8.7a4.35 4.35 0 1 1 .001-8.701 4.35 4.35 0 0 1-.001 8.701zM144.9 55c-21.109 0-40.316 12.322-49.396 30.842C100.191 84.682 105.063 84 110.1 84c22.11 0 41.447 11.881 52.119 29.557A8.627 8.627 0 0 1 165.2 113a8.7 8.7 0 0 1 8.7 8.7c0 3.454-2.03 6.409-4.944 7.816 1.287 4.927 2.044 10.063 2.044 15.384a60.477 60.477 0 0 1-1.844 14.596C187.678 150.416 200 131.209 200 110.1c0-30.383-24.717-55.1-55.1-55.1zM91.25 165.2a4.35 4.35 0 1 1 .001-8.701 4.35 4.35 0 0 1-.001 8.701zm1.45-20.3a8.7 8.7 0 0 1-8.7-8.7 8.7 8.7 0 0 1 8.7-8.7 8.7 8.7 0 0 1 8.7 8.7 8.7 8.7 0 0 1-8.7 8.7zm21.75 31.9a4.35 4.35 0 1 1 .001-8.701 4.35 4.35 0 0 1-.001 8.701zm5.8-40.6a4.35 4.35 0 1 1 .001-8.701 4.35 4.35 0 0 1-.001 8.701zm11.6 23.2a7.25 7.25 0 1 1 0-14.5 7.25 7.25 0 0 1 0 14.5zM110.1 89.8c-30.383 0-55.1 24.717-55.1 55.1 0 30.383 24.717 55.1 55.1 55.1 30.383 0 55.1-24.717 55.1-55.1 0-30.383-24.717-55.1-55.1-55.1z"/></g></svg>