<svg xmlns="http://www.w3.org/2000/svg" style="isolation:isolate" width="256" height="256"><switch><g><defs><filter id="a" width="270.648" height="254.338" x="-7.32" y="2.95" filterUnits="userSpaceOnUse"><feGaussianBlur xmlns="http://www.w3.org/2000/svg" in="SourceGraphic" stdDeviation="4.294"/><feOffset xmlns="http://www.w3.org/2000/svg" dy="4" result="pf_100_offsetBlur"/><feFlood xmlns="http://www.w3.org/2000/svg" flood-opacity=".4"/><feComposite xmlns="http://www.w3.org/2000/svg" in2="pf_100_offsetBlur" operator="in" result="pf_100_dropShadow"/><feBlend xmlns="http://www.w3.org/2000/svg" in="SourceGraphic" in2="pf_100_dropShadow"/></filter></defs><g filter="url(#a)"><linearGradient id="b" x1=".5" x2=".5" y1=".999" y2="-.814" gradientTransform="matrix(244.648 0 0 228.338 5.68 11.95)" gradientUnits="userSpaceOnUse"><stop offset="0%" stop-color="#ad4f8d"/><stop offset="100%" stop-color="#6b8ccb"/></linearGradient><path fill="url(#b)" d="M165.689 11.95c74.056 0 84.639 10.557 84.639 84.544v59.251c0 73.986-10.583 84.543-84.639 84.543h-75.37c-74.055 0-84.639-10.557-84.639-84.543V96.494c0-73.987 10.584-84.544 84.639-84.544h75.37z"/></g><path fill="none" d="M165.862 11.831c74.406 0 85.04 10.557 85.04 84.544v59.251c0 73.986-10.634 84.543-85.04 84.543H90.137c-74.405 0-85.039-10.557-85.039-84.543V96.375c0-73.987 10.634-84.544 85.039-84.544h75.725z"/><path fill="#F7F7F7" fill-opacity=".5" d="M63.539 239.441c.55.036 1.021.098 1.581.131.435.025 1.027.011 1.468.035l-.039-7.592 26.629-24.465v-8.156l12.29-12.233v-6.115l6.144-6.117V158.62l-8.193-8.156H87.032l-8.193-8.154H58.356l-8.195 8.154v20.389l16.443 14.34-.055 18.279-6.144 6.117v26.502l3.134 3.35zM99.322 81.148l-6.144 6.117h6.144l2.049 2.039h2.048l2.049-2.039-6.146-6.117zM177.16 109.69h-24.58l-14.338 14.271v20.388l10.241 10.194h14.339l6.145 6.116v6.116l4.097 4.077v24.465l15.556 16.365 25.688-25.567-.277-23.418 20.484-20.387h-8.194l-20.483-20.387v-8.155h-24.581l-4.097-4.078z"/><path fill="#F7F7F7" fill-opacity=".5" d="M250.902 117.845V96.374c0-9.248-.167-17.505-.603-24.875a197.93 197.93 0 0 0-.869-10.4c-.366-3.254-.812-6.298-1.352-9.147-.54-2.848-1.174-5.501-1.914-7.97-.739-2.469-1.585-4.756-2.551-6.871-.614-1.347-1.365-2.511-2.08-3.723l-2.922 2.908h-12.29l-12.29 12.233-8.193-8.155h-24.58l-12.29 12.233V62.8h12.29v-6.117h8.193v8.156l-4.098 4.076-16.385.276-6.146 5.841h-8.193v8.155l-6.146 6.117v12.23h12.29l8.195-8.154h8.193v4.078l8.192 8.155h4.098v-4.079l-8.193-8.154h8.193l8.192 8.154h10.242l-6.144-6.115 6.144-6.115h6.146l6.144 6.115h-6.144l-6.146 6.115 6.034 6.006.112 6.227h-8.193l24.581 24.465h4.095l4.097-4.076 8.193-8.157-8.193-8.154h12.291z"/><path fill="#F7F7F7" fill-opacity=".5" d="M156.677 70.954v-6.116l6.145-6.116v12.232h-6.145zM220.176 191.24v-12.784l8.194-7.604v20.388h-8.194zM136.193 11.831H90.136c-.789 0-1.348.049-2.123.051l-7.125 8.104 12.29 12.232v12.783l14.339 15.76h8.193v-8.154L128 40.374v-8.156l8.193-8.154V11.831zM125.951 56.683h6.146l6.145 6.116h-12.291v-6.116zM70.646 123.961h-6.145l-6.146 6.117h12.291v-6.117z"/><path fill="#F7F7F7" fill-opacity=".5" d="M16.003 30.841c-.107.152-.245.268-.35.422a39.514 39.514 0 0 0-3.267 5.848c-.965 2.115-1.811 4.402-2.551 6.871-.74 2.469-1.373 5.122-1.913 7.97-.54 2.849-.986 5.893-1.352 9.147a197.89 197.89 0 0 0-.87 10.4c-.436 7.37-.602 15.627-.602 24.875v21.471l8.193 8.154h12.29l20.485 20.389v-24.465l12.29-12.232h8.193l12.29-12.233h12.29l-6.144-6.117 12.29-14.269-12.29-12.233H66.549v16.309h-8.193l-8.195-8.155v-8.154l12.291-12.232h10.243V44.45l-12.29-12.232H39.92V44.45H29.678L16.003 30.841zM66.549 12.396c-.429.023-1.005.008-1.429.033-3.705.217-7.189.5-10.461.863-3.272.364-6.334.808-9.199 1.344a80.758 80.758 0 0 0-7.159 1.699l7.765 7.729h20.483V12.396z"/><g><circle fill="#FFF" cx="72.377" cy="103.575" r="4.078" vector-effect="non-scaling-stroke"/><circle fill="#FFF" cx="92.764" cy="185.125" r="4.078" vector-effect="non-scaling-stroke"/><circle fill="#FFF" cx="153.927" cy="144.35" r="4.078" vector-effect="non-scaling-stroke"/><circle fill="#FFF" cx="174.314" cy="83.187" r="4.078" vector-effect="non-scaling-stroke"/><path fill="none" fill-rule="evenodd" stroke="#FFF" stroke-width="2" d="M5.098 138.234c68.415-49.089 150.868-57.085 244.65-59.124M6.67 59.789c20.973 15.048 41.693 29.384 65.226 43.833 53.234 32.684 112.819 59.511 177.852 60.924M154.436 141.292c20.097-43.077 32.367-78.596 27.252-129.117M139.475 239.827C69.537 187.488 63.917 114.56 75.969 12.175" vector-effect="non-scaling-stroke" opacity=".5"/><circle fill="#FFF" cx="72.377" cy="103.575" r="4.078" vector-effect="non-scaling-stroke" filter="url(#c)"/><defs><filter id="c" width="33.31" height="33.31" x="55.72" y="86.92" filterUnits="userSpaceOnUse"><feGaussianBlur xmlns="http://www.w3.org/2000/svg" stdDeviation="2.7"/></filter></defs><circle fill="#FFF" cx="92.764" cy="185.125" r="4.078" vector-effect="non-scaling-stroke" filter="url(#d)"/><defs><filter id="d" width="33.31" height="33.31" x="76.11" y="168.47" filterUnits="userSpaceOnUse"><feGaussianBlur xmlns="http://www.w3.org/2000/svg" stdDeviation="2.7"/></filter></defs><circle fill="#FFF" cx="153.927" cy="144.35" r="4.078" vector-effect="non-scaling-stroke" filter="url(#e)"/><defs><filter id="e" width="33.31" height="33.31" x="137.27" y="127.69" filterUnits="userSpaceOnUse"><feGaussianBlur xmlns="http://www.w3.org/2000/svg" stdDeviation="2.7"/></filter></defs><circle fill="#FFF" cx="174.314" cy="83.187" r="4.078" vector-effect="non-scaling-stroke" filter="url(#f)"/><defs><filter id="f" width="33.31" height="33.31" x="157.66" y="66.53" filterUnits="userSpaceOnUse"><feGaussianBlur xmlns="http://www.w3.org/2000/svg" stdDeviation="2.7"/></filter></defs><path fill="none" fill-rule="evenodd" stroke="#FFF" stroke-width="2" d="M153.355 144.159c-44.396 55.549-135.478 57.02-146.659 50.023" vector-effect="non-scaling-stroke" opacity=".5"/></g><g opacity=".4"><linearGradient id="g" x1=".517" x2=".517" y2="1"><stop offset="0%" stop-color="#fff"/><stop offset="12.5%" stop-opacity=".098" stop-color="#fff"/><stop offset="92.5%" stop-opacity=".098"/><stop offset="100%" stop-opacity=".498"/></linearGradient><path fill="none" stroke="url(#g)" stroke-linecap="round" stroke-linejoin="round" stroke-width="4.077" d="M165.685 11.947c74.055 0 84.639 10.557 84.639 84.544v59.251c0 73.986-10.584 84.543-84.639 84.543h-75.37c-74.055 0-84.639-10.557-84.639-84.543V96.491c0-73.987 10.584-84.544 84.639-84.544h75.37z" vector-effect="non-scaling-stroke"/></g><defs><filter id="h" width="146" height="171" x="55" y="46" filterUnits="userSpaceOnUse"><feGaussianBlur xmlns="http://www.w3.org/2000/svg" in="SourceGraphic" stdDeviation="4.294"/><feOffset xmlns="http://www.w3.org/2000/svg" dy="4" result="pf_100_offsetBlur"/><feFlood xmlns="http://www.w3.org/2000/svg" flood-opacity=".4"/><feComposite xmlns="http://www.w3.org/2000/svg" in2="pf_100_offsetBlur" operator="in" result="pf_100_dropShadow"/><feBlend xmlns="http://www.w3.org/2000/svg" in="SourceGraphic" in2="pf_100_dropShadow"/></filter></defs><g filter="url(#h)"><path fill="#FFF" d="M116.409 55.049a5.45 5.45 0 0 0-3.24 1.567l-25.74 26.308H73.455c-3 0-5.455 2.509-5.455 5.575V99.65c0 3.066 2.455 5.575 5.455 5.575h1.363l12.442 76.483v.346c.895 4.404 2.558 8.586 5.629 12.025 3.325 3.729 8.019 5.874 12.955 5.921h44.312c5.182 0 9.846-2.33 12.955-5.748 3.109-3.423 4.816-7.844 5.629-12.371v-.173l12.605-76.483h1.2c3 0 5.455-2.509 5.455-5.575V88.499c0-3.066-2.455-5.575-5.455-5.575h-8.525l-15.338-19.512a4.403 4.403 0 0 0-3.922-1.745 4.573 4.573 0 0 0-1.871.697l-15.682 10.804-16.205-16.552a5.432 5.432 0 0 0-4.587-1.567h-.006zm.682 13.592l13.98 14.283h-27.966l13.986-14.283zm37.331 3.657l8.351 10.626h-16.026l-3.234-3.311 10.909-7.315zm-68.695 32.927h3.753l6.475 6.623-7.844 7.838-2.384-14.461zm11.422 0h5.111l-2.558 2.614-2.553-2.614zm12.611 0h9.207l4.942 5.051L113 121.426l-9.545-9.757 6.305-6.444zm17.045 0h1.877l-.851 1.048-1.026-1.048zm9.715 0h9.207l6.306 6.444-9.546 9.757-10.909-11.323 4.942-4.878zm16.707 0h5.117l-2.564 2.614-2.553-2.614zm12.786 0h4.429l-2.384 14.985-8.356-8.541 6.311-6.444zm-38.357 8.886l11.084 11.15-11.078 11.15-10.909-11.15 10.903-11.15zm-27.949 1.567l9.371 9.583-10.909 11.15-8.864-9.059-.169-.87 10.571-10.804zm56.073 0l10.909 11.15-9.371 9.756-10.909-11.323 9.371-9.583zM113 129.27l10.909 11.15L113 151.57l-10.909-11.15L113 129.27zm29.487 0l11.078 11.15-10.909 11.15-11.072-11.15 10.903-11.15zm22.844 6.968l-1.195 7.315-3.071-3.139 4.266-4.176zm-74.493.519l3.584 3.657-2.558 2.62-1.026-6.277zm7.337 7.493l10.909 11.15-10.909 11.323-3.066-3.133-2.22-13.938 5.286-5.402zm29.492 0l11.073 11.323-10.909 11.15-11.073-11.323 10.909-11.15zm29.657 0l5.798 5.926-2.22 12.711-3.578 3.663-10.909-11.15 10.909-11.15zm-44.319 15.158l10.91 11.15-10.91 11.323-10.909-11.15 10.909-11.323zm29.488 0l10.909 11.15-10.909 11.15-10.909-11.15 10.909-11.15zm-44.149 15.153l10.909 11.15-3.071 3.139h-.344c-2.127 0-3.382-.719-4.767-2.264-1.347-1.505-2.667-3.902-3.24-6.623v-.172l-.682-4.182 1.195-1.048zm29.492 0l10.909 11.15-3.07 3.139h-15.857l-3.071-3.139 11.089-11.15zm29.488 0l1.532 1.572-.681 3.658c0 .066.021.111 0 .172-.508 2.727-1.724 5.141-3.066 6.623-1.364 1.506-2.771 2.264-4.947 2.264h-.682l-3.065-3.139 10.909-11.15z"/></g></g></switch> </svg>