<?xml version="1.0" encoding="UTF-8" standalone="no"?>
<svg
   xmlns:dc="http://purl.org/dc/elements/1.1/"
   xmlns:cc="http://creativecommons.org/ns#"
   xmlns:rdf="http://www.w3.org/1999/02/22-rdf-syntax-ns#"
   xmlns:svg="http://www.w3.org/2000/svg"
   xmlns="http://www.w3.org/2000/svg"
   xmlns:xlink="http://www.w3.org/1999/xlink"
   xmlns:sodipodi="http://sodipodi.sourceforge.net/DTD/sodipodi-0.dtd"
   xmlns:inkscape="http://www.inkscape.org/namespaces/inkscape"
   height="256"
   style="clip-rule:evenodd;fill-rule:evenodd;image-rendering:optimizeQuality;shape-rendering:geometricPrecision;text-rendering:geometricPrecision"
   viewBox="0 0 256 256"
   width="256"
   xml:space="preserve"
   version="1.1"
   id="svg17"
   sodipodi:docname="octave.svg"
   inkscape:version="0.92.3 (2405546, 2018-03-11)"><metadata
     id="metadata21"><rdf:RDF><cc:Work
         rdf:about=""><dc:format>image/svg+xml</dc:format><dc:type
           rdf:resource="http://purl.org/dc/dcmitype/StillImage" /><dc:title></dc:title></cc:Work></rdf:RDF></metadata><sodipodi:namedview
     pagecolor="#ffffff"
     bordercolor="#666666"
     borderopacity="1"
     objecttolerance="10"
     gridtolerance="10"
     guidetolerance="10"
     inkscape:pageopacity="0"
     inkscape:pageshadow="2"
     inkscape:window-width="1917"
     inkscape:window-height="961"
     id="namedview19"
     showgrid="false"
     inkscape:zoom="3.0390625"
     inkscape:cx="4.4421597"
     inkscape:cy="128"
     inkscape:window-x="0"
     inkscape:window-y="34"
     inkscape:window-maximized="0"
     inkscape:current-layer="g866"><inkscape:grid
       type="xygrid"
       id="grid843" /></sodipodi:namedview><defs
     id="defs4"><style
       type="text/css"
       id="style2"><![CDATA[
    .fil5 {fill:none}
    .fil1 {fill:#196FBA}
    .fil0 {fill:#25B2EE}
    .fil4 {fill:#793C7C}
    .fil3 {fill:#8C508C}
    .fil2 {fill:white}
   ]]></style><filter
       inkscape:collect="always"
       style="color-interpolation-filters:sRGB"
       id="filter939"
       x="-0.0232"
       width="1.0464"
       y="-0.024857143"
       height="1.0497143"><feGaussianBlur
         inkscape:collect="always"
         stdDeviation="2.32"
         id="feGaussianBlur941" /></filter><filter
       inkscape:collect="always"
       style="color-interpolation-filters:sRGB"
       id="filter4569"
       x="-0.0116"
       width="1.0232"
       y="-0.012428571"
       height="1.024857"><feGaussianBlur
         inkscape:collect="always"
         stdDeviation="1.16"
         id="feGaussianBlur4571" /></filter><linearGradient
       inkscape:collect="always"
       xlink:href="#linearGradient1013"
       id="linearGradient1108"
       x1="296"
       y1="-212"
       x2="296"
       y2="236"
       gradientUnits="userSpaceOnUse" /><linearGradient
       id="linearGradient1013"
       inkscape:collect="always"><stop
         id="stop1005"
         offset="0"
         style="stop-color:#ffffff;stop-opacity:1;" /><stop
         style="stop-color:#ffffff;stop-opacity:0.09803922"
         offset="0.125"
         id="stop1007" /><stop
         style="stop-color:#000000;stop-opacity:0.09803922"
         offset="0.92500001"
         id="stop1009" /><stop
         id="stop1011"
         offset="1"
         style="stop-color:#000000;stop-opacity:0.49803922" /></linearGradient><clipPath
       clipPathUnits="userSpaceOnUse"
       id="clipPath1082-3-361"><path
         sodipodi:nodetypes="sssssssss"
         inkscape:connector-curvature="0"
         id="path1084-6-29"
         d="M 361.9375,-212 C 507.2348,-212 528,-191.28677 528,-46.125 V 70.125 C 528,215.28618 507.2348,236 361.9375,236 H 214.0625 C 68.7652,236 48,215.28618 48,70.125 V -46.125 C 48,-191.28677 68.7652,-212 214.0625,-212 Z"
         style="display:inline;opacity:1;fill:#8c59d9;fill-opacity:1;stroke:none;stroke-width:2;stroke-linecap:round;stroke-linejoin:round;stroke-miterlimit:4;stroke-dasharray:none;stroke-dashoffset:0;stroke-opacity:1;enable-background:new" /></clipPath><linearGradient
       id="linearGradient4958"><stop
         style="stop-color:#8d91db;stop-opacity:1;"
         offset="0"
         id="stop4960" /><stop
         style="stop-color:#1f225f;stop-opacity:1;"
         offset="1"
         id="stop4962" /></linearGradient><radialGradient
       gradientTransform="matrix(1.165761,-1.2668566,3.8886482,4.2258738,-1653.0964,-1252.7344)"
       gradientUnits="userSpaceOnUse"
       xlink:href="#linearGradient3755"
       id="radialGradient3033"
       fy="395.04871"
       fx="182.9837"
       r="148.95309"
       cy="395.04871"
       cx="182.9837" /><linearGradient
       id="linearGradient3755"><stop
         offset="0"
         style="stop-color:#008cbe;stop-opacity:1"
         id="stop3757" /><stop
         offset="1"
         style="stop-color:#b2ffff;stop-opacity:1"
         id="stop3759" /></linearGradient><filter
       inkscape:collect="always"
       style="color-interpolation-filters:sRGB"
       id="filter1509"
       x="-0.049206728"
       width="1.0984135"
       y="-0.046851042"
       height="1.0937021"><feGaussianBlur
         inkscape:collect="always"
         stdDeviation="2.5769058"
         id="feGaussianBlur1511" /></filter></defs><path
     style="display:inline;opacity:0.2;fill:#000000;fill-opacity:1;stroke:none;stroke-width:2;stroke-linecap:round;stroke-linejoin:round;stroke-miterlimit:4;stroke-dasharray:none;stroke-dashoffset:0;stroke-opacity:1;filter:url(#filter939);enable-background:new"
     d="m 162.53675,5.5680001 c 72.64865,0 83.03125,10.3566149 83.03125,82.9375049 v 58.125005 c 0,72.58059 -10.3826,82.9375 -83.03125,82.9375 H 88.599254 C 15.9506,229.56801 5.568,219.2111 5.568,146.63051 V 88.505505 c 0,-72.58089 10.3826,-82.9375049 83.031254,-82.9375049 z"
     id="path937"
     inkscape:connector-curvature="0"
     sodipodi:nodetypes="sssssssss"
     transform="matrix(1.019368,0,0,1.019368,-7.2181772e-8,8.3098661)" /><path
     sodipodi:nodetypes="sssssssss"
     inkscape:connector-curvature="0"
     id="path4558"
     d="m 165.68477,11.946967 c 74.05571,0 84.6394,10.557203 84.6394,84.543835 v 59.250778 c 0,73.98633 -10.58369,84.54383 -84.6394,84.54383 H 90.315249 c -74.055717,0 -84.639408,-10.5575 -84.639408,-84.54383 V 96.490802 c 0,-73.986632 10.583691,-84.543835 84.639408,-84.543835 z"
     style="display:inline;opacity:0.1;fill:none;fill-opacity:1;stroke:#000000;stroke-width:4.07747173;stroke-linecap:round;stroke-linejoin:round;stroke-miterlimit:4;stroke-dasharray:none;stroke-dashoffset:0;stroke-opacity:1;enable-background:new" /><path
     sodipodi:nodetypes="sssssssss"
     inkscape:connector-curvature="0"
     id="path4567"
     d="m 162.53675,3.5680001 c 72.64865,0 83.03125,10.3566149 83.03125,82.9375049 v 58.125005 c 0,72.58059 -10.3826,82.9375 -83.03125,82.9375 H 88.599254 C 15.9506,227.56801 5.568,217.2111 5.568,144.63051 V 86.505505 c 0,-72.58089 10.3826,-82.9375049 83.031254,-82.9375049 z"
     style="display:inline;opacity:0.1;fill:#000000;fill-opacity:1;stroke:none;stroke-width:2;stroke-linecap:round;stroke-linejoin:round;stroke-miterlimit:4;stroke-dasharray:none;stroke-dashoffset:0;stroke-opacity:1;filter:url(#filter4569);enable-background:new"
     transform="matrix(1.019368,0,0,1.019368,-7.2181772e-8,8.3098661)" /><path
     style="display:inline;opacity:1;fill:#ff7f2a;fill-opacity:1;stroke:none;stroke-width:2.03873587;stroke-linecap:round;stroke-linejoin:round;stroke-miterlimit:4;stroke-dasharray:none;stroke-dashoffset:0;stroke-opacity:1;enable-background:new"
     d="m 165.68476,11.946967 c 74.05571,0 84.6394,10.557203 84.6394,84.543835 v 59.250778 c 0,73.98633 -10.58369,84.54383 -84.6394,84.54383 H 90.315236 c -74.055712,0 -84.6394035,-10.5575 -84.6394035,-84.54383 V 96.490802 c 0,-73.986632 10.5836915,-84.543835 84.6394035,-84.543835 z"
     id="rect877"
     inkscape:connector-curvature="0"
     sodipodi:nodetypes="sssssssss" /><g
     transform="matrix(2.372035,0,0,2.372035,-20.736914,115.42106)"
     id="g983" /><path
     style="display:inline;opacity:0.1;fill:#ffffff;fill-opacity:1;stroke:none;stroke-width:2.0765779;stroke-linecap:round;stroke-linejoin:round;stroke-miterlimit:4;stroke-dasharray:none;stroke-dashoffset:0;stroke-opacity:1;enable-background:new"
     d="m 90.315238,240.28541 c -74.055712,0 -84.639403,-10.95275 -84.639403,-87.71148 V 121.83858 H 250.32416 v 30.73535 c 0,76.75873 -10.58369,87.71148 -84.6394,87.71148 z"
     id="path1107"
     inkscape:connector-curvature="0" /><path
     style="display:inline;opacity:0.1;fill:#ffffff;fill-opacity:1;stroke:none;stroke-width:2.04694557;stroke-linecap:round;stroke-linejoin:round;stroke-miterlimit:4;stroke-dasharray:none;stroke-dashoffset:0;stroke-opacity:1;enable-background:new"
     d="M 127.01285,11.946967 V 240.28541 h 37.98888 c 74.65333,0 85.32243,-10.5575 85.32243,-84.54383 V 96.490802 c 0,-73.986632 -10.6691,-84.543835 -85.32243,-84.543835 z"
     id="path1099"
     inkscape:connector-curvature="0" /><g
     id="g880"
     transform="matrix(1.0102788,0,0,1.0102788,-3.7837245,4.3104746)" /><path
     sodipodi:nodetypes="sssssssss"
     inkscape:connector-curvature="0"
     id="path1068"
     d="M 361.9375,-212 C 507.2348,-212 528,-191.28677 528,-46.125 V 70.125 C 528,215.28618 507.2348,236 361.9375,236 H 214.0625 C 68.7652,236 48,215.28618 48,70.125 V -46.125 C 48,-191.28677 68.7652,-212 214.0625,-212 Z"
     style="display:inline;opacity:0.4;fill:none;fill-opacity:1;stroke:url(#linearGradient1108);stroke-width:8;stroke-linecap:round;stroke-linejoin:round;stroke-miterlimit:4;stroke-dasharray:none;stroke-dashoffset:0;stroke-opacity:1;enable-background:new"
     clip-path="url(#clipPath1082-3-361)"
     transform="matrix(0.50968403,0,0,0.50968403,-18.788999,120)" /><g
     id="g866"
     transform="matrix(1.0081428,0,0,1.0081428,-2.3671382,-1.6976889)"><g
       id="g1515"
       transform="translate(-6.8530411,7.166737)"><path
         transform="matrix(1.0992801,0,0,1.0992801,-5.9852795,-19.753621)"
         inkscape:connector-curvature="0"
         id="path1462"
         d="m 134.66899,186.8143 c -2.35202,-3.54347 -4.2764,-6.94771 -4.2764,-7.56498 0,-0.61729 4.23698,-1.73988 9.41551,-2.49465 16.75705,-2.44236 30.59649,-10.87826 34.23773,-20.86977 5.48897,-15.06167 -4.08168,-30.3019 -21.22313,-33.79557 -2.92764,-0.59669 -3.48595,0.003 -7.54765,8.11179 -5.69064,11.36031 -12.56462,21.47893 -19.94541,29.36 -5.2977,5.65678 -5.83433,6.71876 -5.11249,10.11762 2.47181,11.6389 2.83332,10.70725 -5.48208,14.12789 l -7.55348,3.1072 -0.70278,-3.25181 c -1.21417,-5.61795 -1.99837,-6.09259 -6.17478,-3.73735 -10.074377,5.68132 -22.959527,6.03124 -28.628467,0.77745 -9.88125,-9.15764 -5.17745,-31.81001 9.76226,-47.01275 3.68437,-3.74923 9.72949,-8.74639 13.43361,-11.1048 l 6.734767,-4.28801 0.84952,-9.06566 c 0.46724,-4.98612 0.4711,-9.44331 0.008,-9.90488 -0.46246,-0.46156 -6.955307,-0.64816 -14.428497,-0.41466 l -13.58762,0.42454 -0.0163,-5.18577 c -0.009,-2.85218 -0.3349,-6.37452 -0.72439,-7.82744 -0.70134,-2.61615 -0.5607,-2.64489 14.56111,-2.97577 l 15.269287,-0.3341 1.73543,-11.11691 1.73543,-11.11691 3.50858,0.70172 c 1.92971,0.38594 5.48214,0.70171 7.89428,0.70171 h 4.38572 l -0.97638,9.1129 c -0.53701,5.01209 -0.69789,9.39138 -0.35751,9.73176 0.82357,0.82357 16.33859,-1.49773 30.27496,-4.52963 12.93887,-2.81488 13.12685,-2.71986 13.15491,6.64909 l 0.0183,6.08527 -16.96188,3.13105 c -9.32903,1.72208 -19.64007,3.53967 -22.91342,4.03909 l -5.95154,0.90803 -0.3613,6.98256 c -0.35998,6.95697 -0.35016,6.97976 2.67901,6.21949 1.67217,-0.41969 5.58423,-1.09459 8.69346,-1.49978 6.99204,-0.9112 8.36413,-1.95209 9.32504,-7.07413 0.85079,-4.53512 1.01908,-4.57846 10.43554,-2.68736 l 6.76748,1.3591 -0.73562,3.92117 c -0.71035,3.78652 -0.57828,3.95018 3.84624,4.76607 13.55919,2.50034 27.22295,14.06876 30.68565,25.98 5.25164,18.06502 -1.66191,36.7373 -17.24436,46.57408 -5.89094,3.71878 -17.35,8.33164 -23.21633,9.34576 -2.57842,0.44573 -6.1114,1.09158 -7.85107,1.43522 -2.77375,0.5479 -3.68932,-0.16811 -7.43942,-5.81787 z M 89.826393,168.14727 c 2.23004,-0.63956 6.178172,-2.63448 8.773632,-4.43313 l 4.719025,-3.27028 -0.82012,-11.90762 c -0.45107,-6.54918 -1.10551,-12.18712 -1.45431,-12.52875 -1.045445,-1.02395 -12.896017,12.35968 -15.150307,17.11026 -3.47579,7.32468 -4.05656,16.19237 -1.06048,16.19237 0.51587,0 2.76252,-0.52328 4.99256,-1.16285 z M 122.586,139.24732 c 1.27106,-2.12353 3.81237,-6.74268 5.64737,-10.26476 l 3.33635,-6.40379 -3.86191,0.64535 c -2.12405,0.35495 -5.33492,1.21475 -7.13526,1.91068 -3.14019,1.21385 -3.27334,1.60546 -3.27334,9.62693 0,9.47713 1.52472,10.77079 5.28679,4.48559 z"
         style="opacity:0.3;fill:#000000;stroke-width:1.19030762;filter:url(#filter1509)" /><path
         style="fill:#ffffff;fill-opacity:1;stroke-width:1.30848145"
         d="m 142.05366,185.60762 c -2.58553,-3.89527 -4.70096,-7.63748 -4.70096,-8.31603 0,-0.67858 4.65763,-1.91262 10.35028,-2.74232 18.42069,-2.68484 33.63411,-11.95826 37.63685,-22.94173 6.03392,-16.55699 -4.4869,-33.31027 -23.33016,-37.15079 -3.2183,-0.65593 -3.83203,0.003 -8.29698,8.91713 -6.25561,12.48816 -13.81204,23.61136 -21.92559,32.27486 -5.82366,6.21839 -6.41357,7.3858 -5.62006,11.1221 2.71721,12.79441 3.11461,11.77027 -6.02634,15.53051 l -8.30339,3.41568 -0.77255,-3.57465 c -1.33472,-6.1757 -2.19677,-6.69746 -6.78782,-4.10839 -11.074559,6.24536 -25.238948,6.63002 -31.470701,0.85463 -10.862261,-10.06681 -5.691467,-34.96811 10.731458,-51.68018 4.050155,-4.12145 10.695435,-9.61473 14.7673,-12.20728 l 7.403393,-4.71373 0.93386,-9.9657 c 0.51363,-5.481141 0.51787,-10.380841 0.009,-10.888235 -0.50838,-0.507384 -7.645833,-0.71251 -15.860962,-0.455828 l -14.9366,0.466688 -0.01792,-5.700613 C 75.825676,80.608397 75.46742,76.736359 75.039262,75.139193 74.268293,72.263311 74.422896,72.231718 91.046,71.867988 l 16.78522,-0.367269 1.90773,-12.220598 1.90772,-12.220598 3.85691,0.771387 c 2.12129,0.424256 6.02641,0.771376 8.67803,0.771376 h 4.82113 l -1.07331,10.017629 c -0.59033,5.509691 -0.76718,10.323757 -0.39301,10.69793 0.90534,0.905334 17.96069,-1.646424 33.28066,-4.979332 14.22345,-3.094341 14.43009,-2.989888 14.46093,7.309212 l 0.0201,6.689417 -18.64586,3.4419 c -10.25521,1.893049 -21.58993,3.891089 -25.18826,4.440092 l -6.54241,0.998179 -0.39717,7.675789 c -0.39572,7.647658 -0.38493,7.672708 2.94498,6.836958 1.83818,-0.46135 6.13863,-1.20326 9.55655,-1.64867 7.68621,-1.001669 9.19452,-2.145898 10.25083,-7.776455 0.93526,-4.985367 1.12025,-5.03301 11.47158,-2.954161 l 7.43936,1.494031 -0.80866,4.310464 c -0.78087,4.162446 -0.63569,4.342355 4.2281,5.239251 14.90535,2.74857 29.92565,15.4655 33.73212,28.55929 5.77303,19.85852 -1.8269,40.38458 -18.95638,51.19796 -6.47579,4.08798 -19.07251,9.15881 -25.52125,10.27361 -2.8344,0.48998 -6.71814,1.19995 -8.63052,1.57771 -3.04913,0.60229 -4.0556,-0.1848 -8.17801,-6.39547 z m -49.294575,-20.5203 c 2.451439,-0.70305 6.791542,-2.89603 9.644675,-4.87325 l 5.18753,-3.59495 -0.90154,-13.08981 c -0.49585,-7.19938 -1.21526,-13.39706 -1.59869,-13.77261 -1.14924,-1.1256 -14.176336,13.58675 -16.654432,18.80897 -3.820867,8.05188 -4.459296,17.79995 -1.165765,17.79995 0.567086,0 3.036784,-0.57523 5.488222,-1.2783 z m 36.011985,-31.76914 c 1.39725,-2.33435 4.19086,-7.41209 6.20804,-11.28384 l 3.66758,-7.03956 -4.24532,0.70942 c -2.33492,0.39019 -5.86457,1.33535 -7.84365,2.10037 -3.45195,1.33436 -3.59831,1.76485 -3.59831,10.58269 0,10.41802 1.67609,11.84012 5.81166,4.93092 z"
         id="path1479"
         inkscape:connector-curvature="0" /></g></g></svg>