<?xml version="1.0" standalone="no"?><!-- Generator: Gravit.io --><svg xmlns="http://www.w3.org/2000/svg" xmlns:xlink="http://www.w3.org/1999/xlink" style="isolation:isolate" viewBox="0 0 256 256" width="256" height="256"><defs><filter id="pXu6s7PM3d8jGSssbnODJmRlXClqFmuC" x="-7.324" y="2.947" width="270.648" height="254.338" filterUnits="userSpaceOnUse"><feGaussianBlur xmlns="http://www.w3.org/2000/svg" in="SourceGraphic" stdDeviation="4.293609062839028"/><feOffset xmlns="http://www.w3.org/2000/svg" dx="0" dy="4" result="pf_100_offsetBlur"/><feFlood xmlns="http://www.w3.org/2000/svg" flood-color="#000000" flood-opacity="0.4"/><feComposite xmlns="http://www.w3.org/2000/svg" in2="pf_100_offsetBlur" operator="in" result="pf_100_dropShadow"/><feBlend xmlns="http://www.w3.org/2000/svg" in="SourceGraphic" in2="pf_100_dropShadow" mode="normal"/></filter></defs><g filter="url(#pXu6s7PM3d8jGSssbnODJmRlXClqFmuC)"><path d=" M 165.685 11.947 C 239.74 11.947 250.324 22.504 250.324 96.491 L 250.324 155.742 C 250.324 229.728 239.74 240.285 165.685 240.285 L 90.315 240.285 C 16.26 240.285 5.676 229.728 5.676 155.742 L 5.676 96.491 C 5.676 22.504 16.26 11.947 90.315 11.947 L 165.685 11.947 Z " id="shape" fill="rgb(77,77,77)"/></g><g opacity="0.3"><linearGradient id="_lgradient_289" x1="0" y1="0.5" x2="6.123233995736766e-17" y2="-0.5" gradientTransform="matrix(228.891,0,0,212.028,13.278,19.986)" gradientUnits="userSpaceOnUse"><stop offset="50.421783549331124%" stop-opacity="1" style="stop-color:rgb(136,242,232)"/><stop offset="81.40126920464049%" stop-opacity="1" style="stop-color:rgb(85,238,223)"/><stop offset="98.27974759615388%" stop-opacity="0" style="stop-color:rgb(136,242,232)"/></linearGradient><path d=" M 29.088 20.108 C 24.406 22.641 19.797 25.223 13.278 36.226 L 34.218 36.296 L 34.218 19.986 C 32.073 19.993 31.533 20.105 29.088 20.108 Z  M 226.313 19.986 L 221.782 19.986 L 221.782 36.296 L 242.169 36.296 L 242.169 35.375 C 238.662 28.35 233.386 23.23 226.313 19.986 Z  M 13.831 44.451 L 13.831 60.76 L 34.218 60.76 L 34.218 44.451 L 13.831 44.451 Z  M 221.782 44.451 L 221.782 60.76 L 242.169 60.76 L 242.169 44.451 L 221.782 44.451 Z  M 13.831 68.915 L 13.831 85.225 L 34.218 85.225 L 34.218 68.915 L 13.831 68.915 Z  M 221.782 68.915 L 221.782 85.225 L 242.169 85.225 L 242.169 68.915 L 221.782 68.915 Z  M 13.831 93.38 L 13.831 109.69 L 34.218 109.69 L 34.218 93.38 L 13.831 93.38 Z  M 221.782 93.38 L 221.782 109.69 L 242.169 109.69 L 242.169 93.38 L 221.782 93.38 Z  M 13.831 117.845 L 13.831 134.155 L 34.218 134.155 L 34.218 117.845 L 13.831 117.845 Z  M 221.782 117.845 L 221.782 134.155 L 242.169 134.155 L 242.169 117.845 L 221.782 117.845 Z  M 13.831 142.31 L 13.831 158.62 L 34.218 158.62 L 34.218 142.31 L 13.831 142.31 Z  M 221.782 142.31 L 221.782 158.62 L 242.169 158.62 L 242.169 142.31 L 221.782 142.31 Z  M 13.831 166.775 L 13.831 183.085 L 34.218 183.085 L 34.218 166.775 L 13.831 166.775 Z  M 221.782 166.775 L 221.782 183.085 L 242.169 183.085 L 242.169 166.775 L 221.782 166.775 Z  M 13.831 191.24 L 13.831 207.549 L 34.218 207.549 L 34.218 191.24 L 13.831 191.24 Z  M 221.782 191.24 L 221.782 207.549 L 242.169 207.549 L 242.169 191.24 L 221.782 191.24 Z  M 13.831 215.704 L 13.831 216.938 C 16.417 222.579 21.4 227.614 28.75 232.014 L 34.218 232.014 L 34.218 215.704 L 13.831 215.704 Z  M 221.782 215.704 L 221.782 232.014 L 227 232.014 C 232.991 229.249 238.058 224.212 242.169 216.875 L 242.169 215.704 L 221.782 215.704 Z " id="Compound Path" fill="url(#_lgradient_289)"/></g><g id="audio"><g opacity="0.4"><linearGradient id="_lgradient_290" x1="0" y1="0.5" x2="6.123233995736766e-17" y2="1.5" gradientTransform="matrix(109.681,0,0,119.008,73.16,65.992)" gradientUnits="userSpaceOnUse"><stop offset="0%" stop-opacity="4.219408933359148e-8" style="stop-color:rgb(0,0,0)"/><stop offset="49.84571374162724%" stop-opacity="1" style="stop-color:rgb(0,0,0)"/><stop offset="98.75000828125036%" stop-opacity="0" style="stop-color:rgb(0,0,0)"/></linearGradient><path d=" M 73.16 65.992 L 73.16 185 C 73.16 185 133.518 160.605 182.84 125.458 C 182.84 125.449 182.834 125.439 182.827 125.427 C 182.822 125.414 182.814 125.401 182.806 125.388 C 182.796 125.375 182.786 125.362 182.78 125.349 C 182.773 125.335 182.768 125.322 182.768 125.311 C 130.743 89.044 73.16 65.992 73.16 65.992 L 73.16 65.992 Z " id="Path" fill="url(#_lgradient_290)"/></g><g opacity="0.1"><path d=" M 73.16 65.992 L 73.16 185 C 73.16 185 133.518 160.605 182.84 125.458 C 182.84 125.449 182.834 125.439 182.827 125.427 C 182.822 125.414 182.814 125.401 182.806 125.388 C 182.796 125.375 182.786 125.362 182.78 125.349 C 182.773 125.335 182.768 125.322 182.768 125.311 C 130.743 89.044 73.16 65.992 73.16 65.992 L 73.16 65.992 Z " id="Path" fill="rgb(0,0,0)"/></g><path d=" M 73.16 65 L 73.16 184.008 C 73.16 184.008 133.518 159.613 182.84 124.466 C 182.84 124.456 182.834 124.448 182.827 124.433 C 182.822 124.419 182.814 124.409 182.806 124.394 C 182.796 124.381 182.786 124.369 182.78 124.356 C 182.773 124.342 182.768 124.33 182.768 124.319 C 130.743 88.053 73.16 65 73.16 65 L 73.16 65 Z " id="Path" fill="rgb(49,198,183)"/><path d=" M 73.16 65 L 73.16 65.992 C 73.16 65.992 130.353 88.881 182.197 124.919 C 182.411 124.766 182.627 124.619 182.84 124.466 C 182.84 124.456 182.834 124.448 182.827 124.433 C 182.822 124.419 182.814 124.407 182.806 124.394 C 182.796 124.379 182.786 124.369 182.78 124.356 C 182.773 124.342 182.768 124.33 182.768 124.319 C 130.743 88.053 73.16 65 73.16 65 L 73.16 65 Z " id="Path" fill="rgb(255,255,255)"/></g><g opacity="0.1"><path d=" M 5.676 126.116 L 5.676 155.742 C 5.676 229.728 16.26 240.285 90.315 240.285 L 165.685 240.285 C 239.74 240.285 250.324 229.728 250.324 155.742 L 250.324 126.116 L 5.676 126.116 Z " id="bottom glass" fill="rgb(255,255,255)"/></g><g opacity="0.4"><linearGradient id="_lgradient_291" x1="0.5166666666666668" y1="0" x2="0.5166666666666666" y2="1.0000000000000002"><stop offset="0%" stop-opacity="1" style="stop-color:rgb(255,255,255)"/><stop offset="12.5%" stop-opacity="0.09803922" style="stop-color:rgb(255,255,255)"/><stop offset="92.500001%" stop-opacity="0.09803922" style="stop-color:rgb(0,0,0)"/><stop offset="100%" stop-opacity="0.49803922" style="stop-color:rgb(0,0,0)"/></linearGradient><path d=" M 165.685 11.947 C 239.74 11.947 250.324 22.504 250.324 96.491 L 250.324 155.742 C 250.324 229.728 239.74 240.285 165.685 240.285 L 90.315 240.285 C 16.26 240.285 5.676 229.728 5.676 155.742 L 5.676 96.491 C 5.676 22.504 16.26 11.947 90.315 11.947 L 165.685 11.947 Z " id="highlight" fill="none" vector-effect="non-scaling-stroke" stroke-width="4.077" stroke="url(#_lgradient_291)" stroke-linejoin="round" stroke-linecap="round" stroke-miterlimit="4"/></g></svg>