<?xml version="1.0" encoding="UTF-8" standalone="no"?>
<!-- Created with Inkscape (http://www.inkscape.org/) -->

<svg
   xmlns:dc="http://purl.org/dc/elements/1.1/"
   xmlns:cc="http://creativecommons.org/ns#"
   xmlns:rdf="http://www.w3.org/1999/02/22-rdf-syntax-ns#"
   xmlns:svg="http://www.w3.org/2000/svg"
   xmlns="http://www.w3.org/2000/svg"
   xmlns:xlink="http://www.w3.org/1999/xlink"
   xmlns:sodipodi="http://sodipodi.sourceforge.net/DTD/sodipodi-0.dtd"
   xmlns:inkscape="http://www.inkscape.org/namespaces/inkscape"
   width="256"
   height="256"
   viewBox="0 0 67.733332 67.733335"
   version="1.1"
   id="svg1488"
   inkscape:version="0.92.3 (2405546, 2018-03-11)"
   sodipodi:docname="firefox-esr.svg">
  <defs
     id="defs1482">
    <clipPath
       clipPathUnits="userSpaceOnUse"
       id="clipPath1025">
      <path
         id="path1027"
         d="M 111.94141,84 C 99.359506,84.145 90.1531,83.713998 82.625,87.867188 c -3.7641,2.0768 -6.751838,5.574737 -8.398438,9.960937 C 72.580062,102.21433 72,107.4241 72,114 v 42 h 160 v -26 c 0,-6.5759 -0.57996,-11.78566 -2.22656,-16.17188 -0.205,-0.5455 -0.47919,-1.03993 -0.74219,-1.54296 -0.1,-0.1848 -0.17844,-0.38051 -0.27344,-0.56641 -1.727,-3.38752 -4.25471,-6.14522 -7.38281,-7.87109 C 213.8463,99.694146 204.64049,100.1454 192.05859,100 H 192 151.66797 L 135.45312,84 h -23.49218 z"
         style="color:#000000;font-style:normal;font-variant:normal;font-weight:normal;font-stretch:normal;font-size:medium;line-height:normal;font-family:sans-serif;font-variant-ligatures:none;font-variant-position:normal;font-variant-caps:normal;font-variant-numeric:normal;font-variant-alternates:normal;font-feature-settings:normal;text-indent:0;text-align:start;text-decoration:none;text-decoration-line:none;text-decoration-style:solid;text-decoration-color:#000000;letter-spacing:normal;word-spacing:normal;text-transform:none;writing-mode:lr-tb;direction:ltr;baseline-shift:baseline;text-anchor:start;white-space:normal;shape-padding:0;clip-rule:nonzero;display:inline;overflow:visible;visibility:visible;opacity:1;isolation:auto;mix-blend-mode:normal;color-interpolation:sRGB;color-interpolation-filters:linearRGB;solid-color:#000000;solid-opacity:1;fill:#e3dfd5;fill-opacity:1;fill-rule:nonzero;stroke:none;stroke-width:4.00000048;stroke-linecap:butt;stroke-linejoin:miter;stroke-miterlimit:4;stroke-dasharray:none;stroke-dashoffset:0;stroke-opacity:1;marker:none;color-rendering:auto;image-rendering:auto;shape-rendering:auto;text-rendering:auto;enable-background:accumulate"
         inkscape:connector-curvature="0" />
    </clipPath>
    <clipPath
       clipPathUnits="userSpaceOnUse"
       id="clipPath1082-3">
      <path
         sodipodi:nodetypes="sssssssss"
         inkscape:connector-curvature="0"
         id="path1084-6"
         d="M 361.9375,-212 C 507.2348,-212 528,-191.28677 528,-46.125 V 70.125 C 528,215.28618 507.2348,236 361.9375,236 H 214.0625 C 68.7652,236 48,215.28618 48,70.125 V -46.125 C 48,-191.28677 68.7652,-212 214.0625,-212 Z"
         style="display:inline;opacity:1;fill:#8c59d9;fill-opacity:1;stroke:none;stroke-width:2;stroke-linecap:round;stroke-linejoin:round;stroke-miterlimit:4;stroke-dasharray:none;stroke-dashoffset:0;stroke-opacity:1;enable-background:new" />
    </clipPath>
    <clipPath
       clipPathUnits="userSpaceOnUse"
       id="clipPath1082-3-5">
      <path
         sodipodi:nodetypes="sssssssss"
         inkscape:connector-curvature="0"
         id="path1084-6-6"
         d="M 361.9375,-212 C 507.2348,-212 528,-191.28677 528,-46.125 V 70.125 C 528,215.28618 507.2348,236 361.9375,236 H 214.0625 C 68.7652,236 48,215.28618 48,70.125 V -46.125 C 48,-191.28677 68.7652,-212 214.0625,-212 Z"
         style="display:inline;opacity:1;fill:#8c59d9;fill-opacity:1;stroke:none;stroke-width:2;stroke-linecap:round;stroke-linejoin:round;stroke-miterlimit:4;stroke-dasharray:none;stroke-dashoffset:0;stroke-opacity:1;enable-background:new" />
    </clipPath>
    <clipPath
       clipPathUnits="userSpaceOnUse"
       id="clipPath1082-3-9">
      <path
         sodipodi:nodetypes="sssssssss"
         inkscape:connector-curvature="0"
         id="path1084-6-3"
         d="M 361.9375,-212 C 507.2348,-212 528,-191.28677 528,-46.125 V 70.125 C 528,215.28618 507.2348,236 361.9375,236 H 214.0625 C 68.7652,236 48,215.28618 48,70.125 V -46.125 C 48,-191.28677 68.7652,-212 214.0625,-212 Z"
         style="display:inline;opacity:1;fill:#8c59d9;fill-opacity:1;stroke:none;stroke-width:2;stroke-linecap:round;stroke-linejoin:round;stroke-miterlimit:4;stroke-dasharray:none;stroke-dashoffset:0;stroke-opacity:1;enable-background:new" />
    </clipPath>
    <clipPath
       clipPathUnits="userSpaceOnUse"
       id="clipPath1082-3-3">
      <path
         sodipodi:nodetypes="sssssssss"
         inkscape:connector-curvature="0"
         id="path1084-6-67"
         d="M 361.9375,-212 C 507.2348,-212 528,-191.28677 528,-46.125 V 70.125 C 528,215.28618 507.2348,236 361.9375,236 H 214.0625 C 68.7652,236 48,215.28618 48,70.125 V -46.125 C 48,-191.28677 68.7652,-212 214.0625,-212 Z"
         style="display:inline;opacity:1;fill:#8c59d9;fill-opacity:1;stroke:none;stroke-width:2;stroke-linecap:round;stroke-linejoin:round;stroke-miterlimit:4;stroke-dasharray:none;stroke-dashoffset:0;stroke-opacity:1;enable-background:new" />
    </clipPath>
    <clipPath
       clipPathUnits="userSpaceOnUse"
       id="clipPath1082-3-53">
      <path
         sodipodi:nodetypes="sssssssss"
         inkscape:connector-curvature="0"
         id="path1084-6-5"
         d="M 361.9375,-212 C 507.2348,-212 528,-191.28677 528,-46.125 V 70.125 C 528,215.28618 507.2348,236 361.9375,236 H 214.0625 C 68.7652,236 48,215.28618 48,70.125 V -46.125 C 48,-191.28677 68.7652,-212 214.0625,-212 Z"
         style="display:inline;opacity:1;fill:#8c59d9;fill-opacity:1;stroke:none;stroke-width:2;stroke-linecap:round;stroke-linejoin:round;stroke-miterlimit:4;stroke-dasharray:none;stroke-dashoffset:0;stroke-opacity:1;enable-background:new" />
    </clipPath>
    <clipPath
       clipPathUnits="userSpaceOnUse"
       id="clipPath1082-3-6">
      <path
         sodipodi:nodetypes="sssssssss"
         inkscape:connector-curvature="0"
         id="path1084-6-2"
         d="M 361.9375,-212 C 507.2348,-212 528,-191.28677 528,-46.125 V 70.125 C 528,215.28618 507.2348,236 361.9375,236 H 214.0625 C 68.7652,236 48,215.28618 48,70.125 V -46.125 C 48,-191.28677 68.7652,-212 214.0625,-212 Z"
         style="display:inline;opacity:1;fill:#8c59d9;fill-opacity:1;stroke:none;stroke-width:2;stroke-linecap:round;stroke-linejoin:round;stroke-miterlimit:4;stroke-dasharray:none;stroke-dashoffset:0;stroke-opacity:1;enable-background:new" />
    </clipPath>
    <clipPath
       clipPathUnits="userSpaceOnUse"
       id="clipPath1082-3-91">
      <path
         sodipodi:nodetypes="sssssssss"
         inkscape:connector-curvature="0"
         id="path1084-6-27"
         d="M 361.9375,-212 C 507.2348,-212 528,-191.28677 528,-46.125 V 70.125 C 528,215.28618 507.2348,236 361.9375,236 H 214.0625 C 68.7652,236 48,215.28618 48,70.125 V -46.125 C 48,-191.28677 68.7652,-212 214.0625,-212 Z"
         style="display:inline;opacity:1;fill:#8c59d9;fill-opacity:1;stroke:none;stroke-width:2;stroke-linecap:round;stroke-linejoin:round;stroke-miterlimit:4;stroke-dasharray:none;stroke-dashoffset:0;stroke-opacity:1;enable-background:new" />
    </clipPath>
    <clipPath
       clipPathUnits="userSpaceOnUse"
       id="clipPath1025-0">
      <path
         style="opacity:1;fill:#8c59d9;fill-opacity:1;stroke:none;stroke-width:2;stroke-linecap:round;stroke-linejoin:round;stroke-miterlimit:4;stroke-dasharray:none;stroke-dashoffset:0;stroke-opacity:1"
         d="M 329.9375,32 C 475.2348,32 496,52.71323 496,197.875 v 116.25 C 496,459.28618 475.2348,480 329.9375,480 H 182.0625 C 36.7652,480 16,459.28618 16,314.125 V 197.875 C 16,52.71323 36.7652,32 182.0625,32 Z"
         id="path1027-9"
         inkscape:connector-curvature="0"
         sodipodi:nodetypes="sssssssss" />
    </clipPath>
    <clipPath
       clipPathUnits="userSpaceOnUse"
       id="clipPath4277-8">
      <rect
         style="color:#000000;display:inline;overflow:visible;visibility:visible;opacity:0.81999972;fill:#88b637;fill-opacity:1;fill-rule:nonzero;stroke:none;stroke-width:2;stroke-linecap:butt;stroke-linejoin:miter;stroke-miterlimit:4;stroke-dasharray:none;stroke-dashoffset:0;stroke-opacity:1;marker:none;enable-background:accumulate"
         id="rect4279-6"
         width="512"
         height="512"
         x="5.5999999e-07"
         y="0"
         ry="1" />
    </clipPath>
    <linearGradient
       id="linearGradient3650-7-9">
      <stop
         style="stop-color:#5884f4;stop-opacity:1"
         offset="0"
         id="stop4366" />
      <stop
         id="stop4368"
         offset="1"
         style="stop-color:#80a3fa;stop-opacity:1" />
    </linearGradient>
    <clipPath
       clipPathUnits="userSpaceOnUse"
       id="clipPath1082-3-36">
      <path
         sodipodi:nodetypes="sssssssss"
         inkscape:connector-curvature="0"
         id="path1084-6-0"
         d="M 361.9375,-212 C 507.2348,-212 528,-191.28677 528,-46.125 V 70.125 C 528,215.28618 507.2348,236 361.9375,236 H 214.0625 C 68.7652,236 48,215.28618 48,70.125 V -46.125 C 48,-191.28677 68.7652,-212 214.0625,-212 Z"
         style="display:inline;opacity:1;fill:#8c59d9;fill-opacity:1;stroke:none;stroke-width:2;stroke-linecap:round;stroke-linejoin:round;stroke-miterlimit:4;stroke-dasharray:none;stroke-dashoffset:0;stroke-opacity:1;enable-background:new" />
    </clipPath>
    <clipPath
       clipPathUnits="userSpaceOnUse"
       id="clipPath983">
      <path
         id="path985"
         d="M 115.03125,44 C 42.3826,44 32,54.356615 32,126.9375 v 58.125 C 32,257.64309 42.3826,268 115.03125,268 H 152 V 44 Z"
         style="opacity:1;fill:#4d4d4d;fill-opacity:1;stroke:none;stroke-width:2;stroke-linecap:round;stroke-linejoin:round;stroke-miterlimit:4;stroke-dasharray:none;stroke-dashoffset:0;stroke-opacity:1"
         inkscape:connector-curvature="0" />
    </clipPath>
    <clipPath
       clipPathUnits="userSpaceOnUse"
       id="clipPath1082-3-62">
      <path
         sodipodi:nodetypes="sssssssss"
         inkscape:connector-curvature="0"
         id="path1084-6-61"
         d="M 361.9375,-212 C 507.2348,-212 528,-191.28677 528,-46.125 V 70.125 C 528,215.28618 507.2348,236 361.9375,236 H 214.0625 C 68.7652,236 48,215.28618 48,70.125 V -46.125 C 48,-191.28677 68.7652,-212 214.0625,-212 Z"
         style="display:inline;opacity:1;fill:#8c59d9;fill-opacity:1;stroke:none;stroke-width:2;stroke-linecap:round;stroke-linejoin:round;stroke-miterlimit:4;stroke-dasharray:none;stroke-dashoffset:0;stroke-opacity:1;enable-background:new" />
    </clipPath>
    <clipPath
       clipPathUnits="userSpaceOnUse"
       id="clipPath949">
      <path
         sodipodi:nodetypes="sssssssss"
         inkscape:connector-curvature="0"
         id="path951"
         d="M 329.9375,32 C 475.2348,32 496,52.71323 496,197.875 v 116.25 C 496,459.28618 475.2348,480 329.9375,480 H 182.0625 C 36.7652,480 16,459.28618 16,314.125 V 197.875 C 16,52.71323 36.7652,32 182.0625,32 Z"
         style="opacity:1;fill:#eab305;fill-opacity:1;stroke:none;stroke-width:4;stroke-linecap:round;stroke-linejoin:round;stroke-miterlimit:4;stroke-dasharray:none;stroke-dashoffset:0;stroke-opacity:1" />
    </clipPath>
    <clipPath
       clipPathUnits="userSpaceOnUse"
       id="clipPath954">
      <path
         sodipodi:nodetypes="sssssssss"
         inkscape:connector-curvature="0"
         id="path952"
         d="M 329.9375,32 C 475.2348,32 496,52.71323 496,197.875 v 116.25 C 496,459.28618 475.2348,480 329.9375,480 H 182.0625 C 36.7652,480 16,459.28618 16,314.125 V 197.875 C 16,52.71323 36.7652,32 182.0625,32 Z"
         style="opacity:1;fill:#eab305;fill-opacity:1;stroke:none;stroke-width:4;stroke-linecap:round;stroke-linejoin:round;stroke-miterlimit:4;stroke-dasharray:none;stroke-dashoffset:0;stroke-opacity:1" />
    </clipPath>
    <clipPath
       clipPathUnits="userSpaceOnUse"
       id="clipPath1082-3-8">
      <path
         sodipodi:nodetypes="sssssssss"
         inkscape:connector-curvature="0"
         id="path1084-6-7"
         d="M 361.9375,-212 C 507.2348,-212 528,-191.28677 528,-46.125 V 70.125 C 528,215.28618 507.2348,236 361.9375,236 H 214.0625 C 68.7652,236 48,215.28618 48,70.125 V -46.125 C 48,-191.28677 68.7652,-212 214.0625,-212 Z"
         style="display:inline;opacity:1;fill:#8c59d9;fill-opacity:1;stroke:none;stroke-width:2;stroke-linecap:round;stroke-linejoin:round;stroke-miterlimit:4;stroke-dasharray:none;stroke-dashoffset:0;stroke-opacity:1;enable-background:new" />
    </clipPath>
    <clipPath
       clipPathUnits="userSpaceOnUse"
       id="clipPath1082-3-92">
      <path
         sodipodi:nodetypes="sssssssss"
         inkscape:connector-curvature="0"
         id="path1084-6-02"
         d="M 361.9375,-212 C 507.2348,-212 528,-191.28677 528,-46.125 V 70.125 C 528,215.28618 507.2348,236 361.9375,236 H 214.0625 C 68.7652,236 48,215.28618 48,70.125 V -46.125 C 48,-191.28677 68.7652,-212 214.0625,-212 Z"
         style="display:inline;opacity:1;fill:#8c59d9;fill-opacity:1;stroke:none;stroke-width:2;stroke-linecap:round;stroke-linejoin:round;stroke-miterlimit:4;stroke-dasharray:none;stroke-dashoffset:0;stroke-opacity:1;enable-background:new" />
    </clipPath>
    <clipPath
       clipPathUnits="userSpaceOnUse"
       id="clipPath1082">
      <path
         sodipodi:nodetypes="sssssssss"
         inkscape:connector-curvature="0"
         id="path1084"
         d="M 361.9375,-212 C 507.2348,-212 528,-191.28677 528,-46.125 V 70.125 C 528,215.28618 507.2348,236 361.9375,236 H 214.0625 C 68.7652,236 48,215.28618 48,70.125 V -46.125 C 48,-191.28677 68.7652,-212 214.0625,-212 Z"
         style="display:inline;opacity:1;fill:#8c59d9;fill-opacity:1;stroke:none;stroke-width:2;stroke-linecap:round;stroke-linejoin:round;stroke-miterlimit:4;stroke-dasharray:none;stroke-dashoffset:0;stroke-opacity:1;enable-background:new" />
    </clipPath>
    <clipPath
       clipPathUnits="userSpaceOnUse"
       id="clipPath1082-3-361">
      <path
         sodipodi:nodetypes="sssssssss"
         inkscape:connector-curvature="0"
         id="path1084-6-29"
         d="M 361.9375,-212 C 507.2348,-212 528,-191.28677 528,-46.125 V 70.125 C 528,215.28618 507.2348,236 361.9375,236 H 214.0625 C 68.7652,236 48,215.28618 48,70.125 V -46.125 C 48,-191.28677 68.7652,-212 214.0625,-212 Z"
         style="display:inline;opacity:1;fill:#8c59d9;fill-opacity:1;stroke:none;stroke-width:2;stroke-linecap:round;stroke-linejoin:round;stroke-miterlimit:4;stroke-dasharray:none;stroke-dashoffset:0;stroke-opacity:1;enable-background:new" />
    </clipPath>
    <clipPath
       clipPathUnits="userSpaceOnUse"
       id="clipPath1079">
      <circle
         cx="213.84277"
         cy="146"
         r="55"
         style="color:#000000;display:inline;overflow:visible;visibility:visible;opacity:1;fill:url(#linearGradient1083);fill-opacity:1;fill-rule:nonzero;stroke:none;stroke-width:7.99999952;stroke-linecap:butt;stroke-linejoin:miter;stroke-miterlimit:4;stroke-dasharray:none;stroke-dashoffset:0;stroke-opacity:1;marker:none;enable-background:accumulate"
         id="circle1081"
         transform="scale(-1,1)" />
    </clipPath>
    <clipPath
       clipPathUnits="userSpaceOnUse"
       id="clipPath984">
      <circle
         cx="213.84277"
         cy="146"
         r="55"
         style="color:#000000;display:inline;overflow:visible;visibility:visible;opacity:1;fill:url(#linearGradient1083);fill-opacity:1;fill-rule:nonzero;stroke:none;stroke-width:7.99999952;stroke-linecap:butt;stroke-linejoin:miter;stroke-miterlimit:4;stroke-dasharray:none;stroke-dashoffset:0;stroke-opacity:1;marker:none;enable-background:accumulate"
         id="circle982"
         transform="scale(-1,1)" />
    </clipPath>
    <clipPath
       clipPathUnits="userSpaceOnUse"
       id="clipPath988">
      <circle
         cx="213.84277"
         cy="146"
         r="55"
         style="color:#000000;display:inline;overflow:visible;visibility:visible;opacity:1;fill:url(#linearGradient1083);fill-opacity:1;fill-rule:nonzero;stroke:none;stroke-width:7.99999952;stroke-linecap:butt;stroke-linejoin:miter;stroke-miterlimit:4;stroke-dasharray:none;stroke-dashoffset:0;stroke-opacity:1;marker:none;enable-background:accumulate"
         id="circle986"
         transform="scale(-1,1)" />
    </clipPath>
    <clipPath
       clipPathUnits="userSpaceOnUse"
       id="clipPath992">
      <circle
         cx="213.84277"
         cy="146"
         r="55"
         style="color:#000000;display:inline;overflow:visible;visibility:visible;opacity:1;fill:url(#linearGradient1083);fill-opacity:1;fill-rule:nonzero;stroke:none;stroke-width:7.99999952;stroke-linecap:butt;stroke-linejoin:miter;stroke-miterlimit:4;stroke-dasharray:none;stroke-dashoffset:0;stroke-opacity:1;marker:none;enable-background:accumulate"
         id="circle990"
         transform="scale(-1,1)" />
    </clipPath>
    <clipPath
       clipPathUnits="userSpaceOnUse"
       id="clipPath1082-3-31">
      <path
         sodipodi:nodetypes="sssssssss"
         inkscape:connector-curvature="0"
         id="path1084-6-9"
         d="M 361.9375,-212 C 507.2348,-212 528,-191.28677 528,-46.125 V 70.125 C 528,215.28618 507.2348,236 361.9375,236 H 214.0625 C 68.7652,236 48,215.28618 48,70.125 V -46.125 C 48,-191.28677 68.7652,-212 214.0625,-212 Z"
         style="display:inline;opacity:1;fill:#8c59d9;fill-opacity:1;stroke:none;stroke-width:2;stroke-linecap:round;stroke-linejoin:round;stroke-miterlimit:4;stroke-dasharray:none;stroke-dashoffset:0;stroke-opacity:1;enable-background:new" />
    </clipPath>
    <clipPath
       clipPathUnits="userSpaceOnUse"
       id="clipPath1205">
      <path
         id="path1207"
         d="M 115.03125,44 C 42.3826,44 32,54.356615 32,126.9375 v 58.125 c 0,13.772 0.379014,25.29352 1.482422,34.9375 H 270.51758 C 271.62099,210.35602 272,198.8345 272,185.0625 v -58.125 C 272,54.356615 261.6174,44 188.96875,44 Z"
         style="opacity:1;fill:#f1f0e9;fill-opacity:1;stroke:none;stroke-width:2;stroke-linecap:round;stroke-linejoin:round;stroke-miterlimit:4;stroke-dasharray:none;stroke-dashoffset:0;stroke-opacity:1"
         inkscape:connector-curvature="0" />
    </clipPath>
    <clipPath
       clipPathUnits="userSpaceOnUse"
       id="clipPath1082-3-4">
      <path
         sodipodi:nodetypes="sssssssss"
         inkscape:connector-curvature="0"
         id="path1084-6-78"
         d="M 361.9375,-212 C 507.2348,-212 528,-191.28677 528,-46.125 V 70.125 C 528,215.28618 507.2348,236 361.9375,236 H 214.0625 C 68.7652,236 48,215.28618 48,70.125 V -46.125 C 48,-191.28677 68.7652,-212 214.0625,-212 Z"
         style="display:inline;opacity:1;fill:#8c59d9;fill-opacity:1;stroke:none;stroke-width:2;stroke-linecap:round;stroke-linejoin:round;stroke-miterlimit:4;stroke-dasharray:none;stroke-dashoffset:0;stroke-opacity:1;enable-background:new" />
    </clipPath>
    <clipPath
       clipPathUnits="userSpaceOnUse"
       id="clipPath1082-3-45">
      <path
         sodipodi:nodetypes="sssssssss"
         inkscape:connector-curvature="0"
         id="path1084-6-03"
         d="M 361.9375,-212 C 507.2348,-212 528,-191.28677 528,-46.125 V 70.125 C 528,215.28618 507.2348,236 361.9375,236 H 214.0625 C 68.7652,236 48,215.28618 48,70.125 V -46.125 C 48,-191.28677 68.7652,-212 214.0625,-212 Z"
         style="display:inline;opacity:1;fill:#8c59d9;fill-opacity:1;stroke:none;stroke-width:2;stroke-linecap:round;stroke-linejoin:round;stroke-miterlimit:4;stroke-dasharray:none;stroke-dashoffset:0;stroke-opacity:1;enable-background:new" />
    </clipPath>
    <clipPath
       clipPathUnits="userSpaceOnUse"
       id="clipPath1082-3-61">
      <path
         sodipodi:nodetypes="sssssssss"
         inkscape:connector-curvature="0"
         id="path1084-6-06"
         d="M 361.9375,-212 C 507.2348,-212 528,-191.28677 528,-46.125 V 70.125 C 528,215.28618 507.2348,236 361.9375,236 H 214.0625 C 68.7652,236 48,215.28618 48,70.125 V -46.125 C 48,-191.28677 68.7652,-212 214.0625,-212 Z"
         style="display:inline;opacity:1;fill:#8c59d9;fill-opacity:1;stroke:none;stroke-width:2;stroke-linecap:round;stroke-linejoin:round;stroke-miterlimit:4;stroke-dasharray:none;stroke-dashoffset:0;stroke-opacity:1;enable-background:new" />
    </clipPath>
    <clipPath
       clipPathUnits="userSpaceOnUse"
       id="clipPath1064">
      <path
         style="opacity:1;fill:#a3dbf0;fill-opacity:1;stroke:none;stroke-width:2;stroke-linecap:round;stroke-linejoin:round;stroke-miterlimit:4;stroke-dasharray:none;stroke-dashoffset:0;stroke-opacity:1"
         d="M 115.03125,44 C 42.3826,44 32,54.356615 32,126.9375 v 58.125 c 0,10.16582 0.217657,19.07051 0.767578,26.9375 3.376331,48.30069 19.790377,56 82.263672,56 h 73.9375 c 62.4733,0 78.88734,-7.69931 82.26367,-56 C 271.78234,204.13301 272,195.22832 272,185.0625 v -58.125 C 272,54.356615 261.6174,44 188.96875,44 Z"
         id="path1066"
         inkscape:connector-curvature="0" />
    </clipPath>
    <clipPath
       clipPathUnits="userSpaceOnUse"
       id="clipPath1082-3-32">
      <path
         sodipodi:nodetypes="sssssssss"
         inkscape:connector-curvature="0"
         id="path1084-6-061"
         d="M 361.9375,-212 C 507.2348,-212 528,-191.28677 528,-46.125 V 70.125 C 528,215.28618 507.2348,236 361.9375,236 H 214.0625 C 68.7652,236 48,215.28618 48,70.125 V -46.125 C 48,-191.28677 68.7652,-212 214.0625,-212 Z"
         style="display:inline;opacity:1;fill:#8c59d9;fill-opacity:1;stroke:none;stroke-width:2;stroke-linecap:round;stroke-linejoin:round;stroke-miterlimit:4;stroke-dasharray:none;stroke-dashoffset:0;stroke-opacity:1;enable-background:new" />
    </clipPath>
    <clipPath
       clipPathUnits="userSpaceOnUse"
       id="clipPath947">
      <path
         sodipodi:nodetypes="sssssssss"
         inkscape:connector-curvature="0"
         id="path949"
         d="m 191.43333,45.066672 c 77.49189,0 88.56666,11.047056 88.56666,88.466668 v 62 C 279.99999,272.95263 268.92522,284 191.43333,284 H 112.56666 C 35.074773,284 23.999999,272.95263 23.999999,195.53334 v -62 c 0,-77.419612 11.074774,-88.466668 88.566661,-88.466668 z"
         style="opacity:1;fill:#a4c1f9;fill-opacity:1;stroke:none;stroke-width:2;stroke-linecap:round;stroke-linejoin:round;stroke-miterlimit:4;stroke-dasharray:none;stroke-dashoffset:0;stroke-opacity:1" />
    </clipPath>
    <clipPath
       clipPathUnits="userSpaceOnUse"
       id="clipPath1082-3-55">
      <path
         sodipodi:nodetypes="sssssssss"
         inkscape:connector-curvature="0"
         id="path1084-6-4"
         d="M 361.9375,-212 C 507.2348,-212 528,-191.28677 528,-46.125 V 70.125 C 528,215.28618 507.2348,236 361.9375,236 H 214.0625 C 68.7652,236 48,215.28618 48,70.125 V -46.125 C 48,-191.28677 68.7652,-212 214.0625,-212 Z"
         style="display:inline;opacity:1;fill:#8c59d9;fill-opacity:1;stroke:none;stroke-width:2;stroke-linecap:round;stroke-linejoin:round;stroke-miterlimit:4;stroke-dasharray:none;stroke-dashoffset:0;stroke-opacity:1;enable-background:new" />
    </clipPath>
    <clipPath
       clipPathUnits="userSpaceOnUse"
       id="clipPath991">
      <path
         sodipodi:nodetypes="sssssssss"
         inkscape:connector-curvature="0"
         id="path993"
         d="M 188.96875,44 C 261.6174,44 272,54.356615 272,126.9375 v 58.125 C 272,257.64309 261.6174,268 188.96875,268 h -73.9375 C 42.3826,268 32,257.64309 32,185.0625 v -58.125 C 32,54.356615 42.3826,44 115.03125,44 Z"
         style="opacity:1;fill:#6dc7f1;fill-opacity:1;stroke:none;stroke-width:2;stroke-linecap:round;stroke-linejoin:round;stroke-miterlimit:4;stroke-dasharray:none;stroke-dashoffset:0;stroke-opacity:1" />
    </clipPath>
    <clipPath
       clipPathUnits="userSpaceOnUse"
       id="clipPath978">
      <path
         sodipodi:nodetypes="sssssssss"
         inkscape:connector-curvature="0"
         id="path976"
         d="M 188.96875,44 C 261.6174,44 272,54.356615 272,126.9375 v 58.125 C 272,257.64309 261.6174,268 188.96875,268 h -73.9375 C 42.3826,268 32,257.64309 32,185.0625 v -58.125 C 32,54.356615 42.3826,44 115.03125,44 Z"
         style="opacity:1;fill:#6dc7f1;fill-opacity:1;stroke:none;stroke-width:2;stroke-linecap:round;stroke-linejoin:round;stroke-miterlimit:4;stroke-dasharray:none;stroke-dashoffset:0;stroke-opacity:1" />
    </clipPath>
    <clipPath
       clipPathUnits="userSpaceOnUse"
       id="clipPath942">
      <path
         sodipodi:nodetypes="sssssssss"
         inkscape:connector-curvature="0"
         id="path944"
         d="M 188.96875,44 C 261.6174,44 272,54.356615 272,126.9375 v 58.125 C 272,257.64309 261.6174,268 188.96875,268 h -73.9375 C 42.3826,268 32,257.64309 32,185.0625 v -58.125 C 32,54.356615 42.3826,44 115.03125,44 Z"
         style="display:inline;opacity:1;fill:#46a926;fill-opacity:1;stroke:none;stroke-width:2;stroke-linecap:round;stroke-linejoin:round;stroke-miterlimit:4;stroke-dasharray:none;stroke-dashoffset:0;stroke-opacity:1;enable-background:new" />
    </clipPath>
    <clipPath
       clipPathUnits="userSpaceOnUse"
       id="clipPath1082-3-7">
      <path
         sodipodi:nodetypes="sssssssss"
         inkscape:connector-curvature="0"
         id="path1084-6-65"
         d="M 361.9375,-212 C 507.2348,-212 528,-191.28677 528,-46.125 V 70.125 C 528,215.28618 507.2348,236 361.9375,236 H 214.0625 C 68.7652,236 48,215.28618 48,70.125 V -46.125 C 48,-191.28677 68.7652,-212 214.0625,-212 Z"
         style="display:inline;opacity:1;fill:#8c59d9;fill-opacity:1;stroke:none;stroke-width:2;stroke-linecap:round;stroke-linejoin:round;stroke-miterlimit:4;stroke-dasharray:none;stroke-dashoffset:0;stroke-opacity:1;enable-background:new" />
    </clipPath>
    <radialGradient
       id="radialGradient3322"
       gradientUnits="userSpaceOnUse"
       cy="-2.0645001"
       cx="26.617001"
       gradientTransform="matrix(-4.8906e-8,-2.8515,3.7557,0,674.00149,398.26285)"
       r="23">
      <stop
         id="stop2749"
         style="stop-color:#d280b9;stop-opacity:1"
         offset="0" />
      <stop
         offset="0.52913231"
         style="stop-color:#b549b5;stop-opacity:1"
         id="stop4269" />
      <stop
         id="stop2755"
         style="stop-color:#8940a8;stop-opacity:1"
         offset="1" />
    </radialGradient>
    <clipPath
       clipPathUnits="userSpaceOnUse"
       id="clipPath1082-3-69">
      <path
         sodipodi:nodetypes="sssssssss"
         inkscape:connector-curvature="0"
         id="path1084-6-37"
         d="M 361.9375,-212 C 507.2348,-212 528,-191.28677 528,-46.125 V 70.125 C 528,215.28618 507.2348,236 361.9375,236 H 214.0625 C 68.7652,236 48,215.28618 48,70.125 V -46.125 C 48,-191.28677 68.7652,-212 214.0625,-212 Z"
         style="display:inline;opacity:1;fill:#8c59d9;fill-opacity:1;stroke:none;stroke-width:2;stroke-linecap:round;stroke-linejoin:round;stroke-miterlimit:4;stroke-dasharray:none;stroke-dashoffset:0;stroke-opacity:1;enable-background:new" />
    </clipPath>
    <linearGradient
       id="linearGradient4284"
       y2="48.209999"
       gradientUnits="userSpaceOnUse"
       y1="463.79001"
       gradientTransform="translate(-1.6559e-6,2.886)"
       x2="309.45001"
       x1="309.45001">
      <stop
         id="stop4349"
         style="stop-opacity:0"
         offset="0" />
      <stop
         id="stop4355"
         offset=".49620" />
      <stop
         id="stop4351"
         style="stop-opacity:0"
         offset="1" />
    </linearGradient>
    <filter
       id="filter4300"
       style="color-interpolation-filters:sRGB"
       height="1.192"
       width="1.192"
       y="-0.096001998"
       x="-0.095997997">
      <feGaussianBlur
         id="feGaussianBlur4302"
         stdDeviation="16.623603" />
    </filter>
    <filter
       id="filter4315"
       style="color-interpolation-filters:sRGB"
       height="1.024"
       width="1.024"
       y="-0.012"
       x="-0.012">
      <feGaussianBlur
         id="feGaussianBlur4317"
         stdDeviation="2.0779504" />
    </filter>
    <linearGradient
       id="linearGradient4257"
       y2="154.86"
       gradientUnits="userSpaceOnUse"
       y1="460.98001"
       x2="464"
       x1="126.19">
      <stop
         id="stop4273"
         style="stop-color:#d9eabb"
         offset="0" />
      <stop
         id="stop4271"
         style="stop-color:#f0f7e5"
         offset="1" />
    </linearGradient>
    <linearGradient
       id="linearGradient4432"
       y2="255.67"
       gradientUnits="userSpaceOnUse"
       y1="236.42"
       x2="344.64999"
       x1="364.35001">
      <stop
         id="stop4144"
         style="stop-color:#88b637"
         offset="0" />
      <stop
         id="stop4146"
         style="stop-color:#88b637;stop-opacity:0"
         offset="1" />
    </linearGradient>
    <filter
       id="filter4300-5"
       style="color-interpolation-filters:sRGB"
       height="1.192"
       width="1.192"
       y="-0.096001998"
       x="-0.095997997">
      <feGaussianBlur
         id="feGaussianBlur4302-3"
         stdDeviation="16.623603" />
    </filter>
    <filter
       id="filter4315-5"
       style="color-interpolation-filters:sRGB"
       height="1.024"
       width="1.024"
       y="-0.012"
       x="-0.012">
      <feGaussianBlur
         id="feGaussianBlur4317-6"
         stdDeviation="2.0779504" />
    </filter>
    <linearGradient
       id="linearGradient4432-1"
       y2="255.67"
       gradientUnits="userSpaceOnUse"
       y1="236.42"
       x2="344.64999"
       x1="364.35001">
      <stop
         id="stop4144-2"
         style="stop-color:#88b637"
         offset="0" />
      <stop
         id="stop4146-7"
         style="stop-color:#88b637;stop-opacity:0"
         offset="1" />
    </linearGradient>
    <clipPath
       clipPathUnits="userSpaceOnUse"
       id="clipPath1082-3-361-6">
      <path
         sodipodi:nodetypes="sssssssss"
         inkscape:connector-curvature="0"
         id="path1084-6-29-2"
         d="M 361.9375,-212 C 507.2348,-212 528,-191.28677 528,-46.125 V 70.125 C 528,215.28618 507.2348,236 361.9375,236 H 214.0625 C 68.7652,236 48,215.28618 48,70.125 V -46.125 C 48,-191.28677 68.7652,-212 214.0625,-212 Z"
         style="display:inline;opacity:1;fill:#8c59d9;fill-opacity:1;stroke:none;stroke-width:2;stroke-linecap:round;stroke-linejoin:round;stroke-miterlimit:4;stroke-dasharray:none;stroke-dashoffset:0;stroke-opacity:1;enable-background:new" />
    </clipPath>
    <clipPath
       clipPathUnits="userSpaceOnUse"
       id="clipPath936-4">
      <path
         sodipodi:nodetypes="sssssssss"
         inkscape:connector-curvature="0"
         id="path938-4"
         d="M 329.9375,16 C 475.2348,16 496,36.71323 496,181.875 v 116.25 C 496,443.28618 475.2348,464 329.9375,464 H 182.0625 C 36.7652,464 16,443.28618 16,298.125 V 181.875 C 16,36.71323 36.7652,16 182.0625,16 Z"
         style="opacity:1;fill:#438ae9;fill-opacity:1;stroke:none;stroke-width:2;stroke-linecap:round;stroke-linejoin:round;stroke-miterlimit:4;stroke-dasharray:none;stroke-dashoffset:0;stroke-opacity:1" />
    </clipPath>
    <linearGradient
       id="linearGradient2867-449-88-871-390-598-476-591-434-148-57-177-8-3-3-6-4-8-8-8">
      <stop
         id="stop3750-1-0-7-6-6-1-3-9"
         style="stop-color:#ffee55;stop-opacity:1"
         offset="0" />
      <stop
         offset="0.42583728"
         style="stop-color:#feeb46;stop-opacity:1"
         id="stop1654" />
      <stop
         id="stop3752-3-7-4-0-32-8-923-0"
         style="stop-color:#fc8f36;stop-opacity:1"
         offset="0.50877196" />
      <stop
         offset="0.58839363"
         style="stop-color:#ef6422;stop-opacity:1;"
         id="stop1062" />
      <stop
         id="stop3754-1-8-5-2-7-6-7-1"
         style="stop-color:#e23a0e;stop-opacity:1"
         offset="0.6680153" />
      <stop
         offset="0.93725348"
         style="stop-color:#b8017a;stop-opacity:0.97254902"
         id="stop1658" />
      <stop
         id="stop3756-1-6-2-6-6-1-96-6"
         style="stop-color:#b8017a;stop-opacity:1"
         offset="1" />
    </linearGradient>
    <linearGradient
       gradientTransform="matrix(0.3011864,0.00583817,-0.0058295,0.30163426,118.4786,-1.6058194)"
       id="4-6"
       x1="-316.30048"
       y1="93.99012"
       x2="-308.03195"
       y2="120.68974"
       gradientUnits="userSpaceOnUse">
      <stop
         stop-color="#ec3a00"
         id="stop4650-2"
         style="stop-color:#c00e62;stop-opacity:0.91588783" />
      <stop
         style="stop-color:#d63540;stop-opacity:0.95686275;"
         id="stop957"
         stop-color="#ec3a00"
         offset="0.3302111" />
      <stop
         offset="1"
         stop-color="#ffb900"
         stop-opacity=".016"
         id="stop4652-9"
         style="stop-color:#7a5240;stop-opacity:1" />
    </linearGradient>
    <linearGradient
       gradientTransform="matrix(0.22977543,0.01949167,-0.02091519,0.21413666,101.18811,30.479268)"
       id="5-5"
       x1="-226.75"
       x2="-170.39"
       gradientUnits="userSpaceOnUse">
      <stop
         stop-color="#de4000"
         id="stop4645-3" />
      <stop
         offset="1"
         stop-color="#fab600"
         id="stop4647-5" />
    </linearGradient>
    <linearGradient
       id="6-3"
       x1="-258.12738"
       y1="208.63644"
       x2="-181.74777"
       y2="298.31403"
       gradientUnits="userSpaceOnUse"
       gradientTransform="matrix(0.28446436,0,0,0.36122683,111.0341,-12.577201)">
      <stop
         stop-color="#f24d00"
         id="stop4655-6"
         style="stop-color:#961725;stop-opacity:1" />
      <stop
         style="stop-color:#f06824;stop-opacity:1"
         id="stop963"
         stop-color="#f24d00"
         offset="0.19558652" />
      <stop
         id="stop3440"
         stop-color="#f24d00"
         offset="0.54072613"
         style="stop-color:#f06723;stop-opacity:1" />
      <stop
         offset="1"
         stop-color="#ffb000"
         id="stop4657-7" />
    </linearGradient>
    <linearGradient
       gradientUnits="userSpaceOnUse"
       y2="82.480003"
       x2="-268.98999"
       y1="120.49"
       x1="-335.91"
       id="linearGradient1050"
       gradientTransform="matrix(0.29580808,0.0057254,-0.0057254,0.29580808,-23.568013,1.3300176)">
      <stop
         id="stop1046"
         stop-color="#ec3a00"
         style="stop-color:#fee246;stop-opacity:1" />
      <stop
         style="stop-color:#f59b00;stop-opacity:0.50588238"
         stop-color="#ec3a00"
         id="stop1060"
         offset="0.69732404" />
      <stop
         id="stop1048"
         stop-opacity=".016"
         stop-color="#ffb900"
         offset="1" />
    </linearGradient>
    <linearGradient
       gradientTransform="matrix(0.28406639,0.02406136,-0.02585699,0.26433945,-24.455783,13.444752)"
       id="5-5-2"
       x1="-226.75"
       x2="-170.39"
       gradientUnits="userSpaceOnUse">
      <stop
         stop-color="#de4000"
         id="stop4645-3-9" />
      <stop
         offset="1"
         stop-color="#fab600"
         id="stop4647-5-1" />
    </linearGradient>
    <linearGradient
       inkscape:collect="always"
       xlink:href="#linearGradient1013"
       id="linearGradient1108"
       x1="296"
       y1="-212"
       x2="296"
       y2="236"
       gradientUnits="userSpaceOnUse" />
    <linearGradient
       id="linearGradient1013"
       inkscape:collect="always">
      <stop
         id="stop1005"
         offset="0"
         style="stop-color:#ffffff;stop-opacity:1;" />
      <stop
         style="stop-color:#ffffff;stop-opacity:0.09803922"
         offset="0.125"
         id="stop1007" />
      <stop
         style="stop-color:#000000;stop-opacity:0.09803922"
         offset="0.92500001"
         id="stop1009" />
      <stop
         id="stop1011"
         offset="1"
         style="stop-color:#000000;stop-opacity:0.49803922" />
    </linearGradient>
    <clipPath
       clipPathUnits="userSpaceOnUse"
       id="clipPath1082-3-367">
      <path
         sodipodi:nodetypes="sssssssss"
         inkscape:connector-curvature="0"
         id="path1084-6-53"
         d="M 361.9375,-212 C 507.2348,-212 528,-191.28677 528,-46.125 V 70.125 C 528,215.28618 507.2348,236 361.9375,236 H 214.0625 C 68.7652,236 48,215.28618 48,70.125 V -46.125 C 48,-191.28677 68.7652,-212 214.0625,-212 Z"
         style="display:inline;opacity:1;fill:#8c59d9;fill-opacity:1;stroke:none;stroke-width:2;stroke-linecap:round;stroke-linejoin:round;stroke-miterlimit:4;stroke-dasharray:none;stroke-dashoffset:0;stroke-opacity:1;enable-background:new" />
    </clipPath>
    <clipPath
       clipPathUnits="userSpaceOnUse"
       id="clipPath936">
      <path
         sodipodi:nodetypes="sssssssss"
         inkscape:connector-curvature="0"
         id="path938"
         d="M 329.9375,16 C 475.2348,16 496,36.71323 496,181.875 v 116.25 C 496,443.28618 475.2348,464 329.9375,464 H 182.0625 C 36.7652,464 16,443.28618 16,298.125 V 181.875 C 16,36.71323 36.7652,16 182.0625,16 Z"
         style="opacity:1;fill:#438ae9;fill-opacity:1;stroke:none;stroke-width:2;stroke-linecap:round;stroke-linejoin:round;stroke-miterlimit:4;stroke-dasharray:none;stroke-dashoffset:0;stroke-opacity:1" />
    </clipPath>
    <linearGradient
       gradientTransform="matrix(2.0393079,0,0,2.0393079,-83.45773,-45.327184)"
       inkscape:collect="always"
       xlink:href="#linearGradient4195"
       id="linearGradient1048"
       x1="24"
       y1="28"
       x2="280"
       y2="284"
       gradientUnits="userSpaceOnUse" />
    <linearGradient
       inkscape:collect="always"
       id="linearGradient4195">
      <stop
         style="stop-color:#325fd1;stop-opacity:1"
         offset="0"
         id="stop4197" />
      <stop
         style="stop-color:#6e98ff;stop-opacity:1"
         offset="1"
         id="stop4199" />
    </linearGradient>
    <filter
       inkscape:collect="always"
       style="color-interpolation-filters:sRGB"
       id="filter989"
       x="-0.0232"
       width="1.0464"
       y="-0.024857143"
       height="1.0497143">
      <feGaussianBlur
         inkscape:collect="always"
         stdDeviation="2.32"
         id="feGaussianBlur991" />
    </filter>
    <filter
       inkscape:collect="always"
       style="color-interpolation-filters:sRGB"
       id="filter4569"
       x="-0.0116"
       width="1.0232"
       y="-0.012428571"
       height="1.024857">
      <feGaussianBlur
         inkscape:collect="always"
         stdDeviation="1.16"
         id="feGaussianBlur4571" />
    </filter>
    <linearGradient
       gradientTransform="matrix(2.0788054,0,0,2.0788054,-79.614265,-58.502735)"
       inkscape:collect="always"
       xlink:href="#linearGradient945"
       id="linearGradient955"
       x1="200"
       y1="268"
       x2="200"
       y2="44"
       gradientUnits="userSpaceOnUse" />
    <linearGradient
       inkscape:collect="always"
       id="linearGradient945">
      <stop
         id="stop943"
         offset="0"
         style="stop-color:#e6e6e6;stop-opacity:1" />
      <stop
         id="stop941"
         offset="1"
         style="stop-color:#d3d3d3;stop-opacity:1;" />
    </linearGradient>
    <linearGradient
       gradientTransform="translate(-26.432006,-40.431995)"
       inkscape:collect="always"
       xlink:href="#linearGradient1033"
       id="linearGradient1035"
       x1="152"
       y1="100"
       x2="152"
       y2="212"
       gradientUnits="userSpaceOnUse" />
    <linearGradient
       inkscape:collect="always"
       id="linearGradient1033">
      <stop
         style="stop-color:#000000;stop-opacity:0"
         offset="0"
         id="stop1029" />
      <stop
         id="stop1037"
         offset="0.5"
         style="stop-color:#000000;stop-opacity:1" />
      <stop
         style="stop-color:#000000;stop-opacity:0;"
         offset="1"
         id="stop1031" />
    </linearGradient>
    <filter
       inkscape:collect="always"
       style="color-interpolation-filters:sRGB"
       id="filter1025"
       x="-0.024000023"
       width="1.048"
       y="-0.023999978"
       height="1.048">
      <feGaussianBlur
         inkscape:collect="always"
         stdDeviation="1.5000091"
         id="feGaussianBlur1027" />
    </filter>
    <linearGradient
       inkscape:collect="always"
       xlink:href="#linearGradient980"
       id="linearGradient982"
       x1="152"
       y1="124"
       x2="152"
       y2="236"
       gradientUnits="userSpaceOnUse" />
    <linearGradient
       inkscape:collect="always"
       id="linearGradient980">
      <stop
         style="stop-color:#000000;stop-opacity:1;"
         offset="0"
         id="stop976" />
      <stop
         style="stop-color:#000000;stop-opacity:0;"
         offset="1"
         id="stop978" />
    </linearGradient>
    <clipPath
       clipPathUnits="userSpaceOnUse"
       id="clipPath999-9">
      <path
         inkscape:connector-curvature="0"
         style="color:#000000;display:inline;overflow:visible;visibility:visible;opacity:1;fill:#5d5d5d;fill-opacity:1;fill-rule:nonzero;stroke:none;stroke-width:3.82599998;stroke-linecap:butt;stroke-linejoin:round;stroke-miterlimit:4;stroke-dasharray:none;stroke-dashoffset:0;stroke-opacity:1;marker:none;enable-background:accumulate"
         d="m 152,68 c -48.60106,0 -88,39.39894 -88,88 0,48.60106 39.39894,88 88,88 48.60106,0 88,-39.39894 88,-88 0,-48.60106 -39.39894,-88 -88,-88 z"
         id="path1001-4"
         sodipodi:nodetypes="sssss" />
    </clipPath>
    <filter
       inkscape:collect="always"
       style="color-interpolation-filters:sRGB"
       id="filter1003"
       x="-0.059999999"
       width="1.12"
       y="-0.059999999"
       height="1.12">
      <feGaussianBlur
         inkscape:collect="always"
         stdDeviation="4.4"
         id="feGaussianBlur1005" />
    </filter>
  </defs>
  <sodipodi:namedview
     id="base"
     pagecolor="#ffffff"
     bordercolor="#666666"
     borderopacity="1.0"
     inkscape:pageopacity="0.0"
     inkscape:pageshadow="2"
     inkscape:zoom="3.2421875"
     inkscape:cx="49.35906"
     inkscape:cy="126.18902"
     inkscape:document-units="px"
     inkscape:current-layer="layer4"
     showgrid="false"
     units="px"
     inkscape:window-width="1920"
     inkscape:window-height="1009"
     inkscape:window-x="0"
     inkscape:window-y="34"
     inkscape:window-maximized="1">
    <inkscape:grid
       type="xygrid"
       id="grid2168" />
  </sodipodi:namedview>
  <metadata
     id="metadata1485">
    <rdf:RDF>
      <cc:Work
         rdf:about="">
        <dc:format>image/svg+xml</dc:format>
        <dc:type
           rdf:resource="http://purl.org/dc/dcmitype/StillImage" />
        <dc:title></dc:title>
      </cc:Work>
    </rdf:RDF>
  </metadata>
  <g
     inkscape:label="Livello 1"
     inkscape:groupmode="layer"
     id="layer1"
     transform="translate(0,-229.26666)">
    <g
       style="enable-background:new"
       id="layer4"
       transform="matrix(0.12974173,0,0,0.12974173,3.8344818,227.85345)">
      <g
         transform="matrix(4.8373097,0,0,4.8373097,-641.70983,256.01947)"
         id="g983" />
      <path
         sodipodi:nodetypes="sssssssss"
         inkscape:connector-curvature="0"
         id="path4567"
         d="m 162.53675,3.5680001 c 72.64865,0 83.03125,10.3566149 83.03125,82.9375049 v 58.125005 c 0,72.58059 -10.3826,82.9375 -83.03125,82.9375 H 88.599254 C 15.9506,227.56801 5.568,217.2111 5.568,144.63051 V 86.505505 c 0,-72.58089 10.3826,-82.9375049 83.031254,-82.9375049 z"
         style="display:inline;opacity:0.1;fill:#000000;fill-opacity:1;stroke:none;stroke-width:2;stroke-linecap:round;stroke-linejoin:round;stroke-miterlimit:4;stroke-dasharray:none;stroke-dashoffset:0;stroke-opacity:1;filter:url(#filter4569);enable-background:new"
         transform="matrix(2.0393079,0,0,2.0393079,-29.55473,37.126102)" />
      <path
         style="display:inline;opacity:0.2;fill:#000000;fill-opacity:1;stroke:none;stroke-width:2;stroke-linecap:round;stroke-linejoin:round;stroke-miterlimit:4;stroke-dasharray:none;stroke-dashoffset:0;stroke-opacity:1;filter:url(#filter989);enable-background:new"
         d="M 5.5683594 101.36914 L 5.5683594 157.49414 C 5.5683594 166.56671 5.7304589 174.6671 6.15625 181.89648 C 6.3691456 185.51118 6.6485155 188.90772 7.0058594 192.09961 C 7.3632033 195.29149 7.7990459 198.27982 8.3261719 201.07422 C 8.8532979 203.86862 9.4711176 206.47033 10.193359 208.89258 C 10.915601 211.31482 11.740902 213.5574 12.683594 215.63281 C 13.626285 217.70822 14.686526 219.61523 15.875 221.36914 C 17.063474 223.12305 18.380252 224.72392 19.839844 226.18164 C 21.299435 227.63937 22.902161 228.95375 24.658203 230.14062 C 26.414245 231.3275 28.324517 232.38678 30.402344 233.32812 C 32.48017 234.26947 34.725446 235.09332 37.150391 235.81445 C 39.575335 236.53559 42.179166 237.15343 44.976562 237.67969 C 47.773959 238.20595 50.763803 238.64134 53.958984 238.99805 C 57.154166 239.35475 60.555527 239.63323 64.173828 239.8457 C 71.41043 240.27066 79.518528 240.43164 88.599609 240.43164 L 162.53711 240.43164 C 171.61819 240.43164 179.72629 240.27066 186.96289 239.8457 C 190.58119 239.63323 193.9806 239.35475 197.17578 238.99805 C 200.37096 238.64134 203.36081 238.20595 206.1582 237.67969 C 208.9556 237.15343 211.56138 236.53559 213.98633 235.81445 C 216.41127 235.09332 218.65655 234.26947 220.73438 233.32812 C 222.8122 232.38678 224.72247 231.3275 226.47852 230.14062 C 228.23456 228.95375 229.83533 227.63937 231.29492 226.18164 C 232.75451 224.72392 234.07324 223.12305 235.26172 221.36914 C 236.45019 219.61523 237.50848 217.70822 238.45117 215.63281 C 239.39386 213.5574 240.22112 211.31482 240.94336 208.89258 C 241.6656 206.47033 242.28342 203.86862 242.81055 201.07422 C 243.33767 198.27982 243.77352 195.29149 244.13086 192.09961 C 244.4882 188.90772 244.76757 185.51118 244.98047 181.89648 C 245.40626 174.6671 245.56836 166.56671 245.56836 157.49414 L 245.56836 101.36914 C 245.56836 28.78825 235.18576 18.431641 162.53711 18.431641 L 88.599609 18.431641 C 15.950955 18.431641 5.5683594 28.78825 5.5683594 101.36914 z "
         id="path979"
         transform="matrix(2.0393079,0,0,2.0393079,-29.55473,10.892486)" />
      <path
         style="display:inline;opacity:1;fill:url(#linearGradient1048);fill-opacity:1;stroke:none;stroke-width:4.07861567;stroke-linecap:round;stroke-linejoin:round;stroke-miterlimit:4;stroke-dasharray:none;stroke-dashoffset:0;stroke-opacity:1;enable-background:new"
         d="m 301.90773,44.402363 c 148.15296,0 169.32628,21.120327 169.32628,169.135107 v 118.53478 c 0,148.01417 -21.17332,169.1351 -169.32628,169.1351 H 151.12641 c -148.1529601,0 -169.32628,-21.12093 -169.32628,-169.1351 V 213.53747 c 0,-148.01478 21.1733199,-169.135107 169.32628,-169.135107 z"
         id="rect877"
         inkscape:connector-curvature="0"
         sodipodi:nodetypes="sssssssss" />
      <g
         transform="matrix(1.0196539,0,0,1.0196539,-34.51434,28.0879)"
         style="display:inline;opacity:0.4;fill:#ffffff;fill-opacity:1;stroke-width:2;enable-background:new"
         inkscape:groupmode="maskhelper"
         id="g4233"
         clip-path="url(#clipPath936)">
        <g
           transform="matrix(1.5675676,0,0,1.5675676,-1030.1622,795.05406)"
           id="g4241"
           style="opacity:0.6;fill:#ffffff;fill-opacity:1;stroke-width:1.2758621">
          <path
             style="color:#000000;display:inline;overflow:visible;visibility:visible;opacity:1;fill:#ffffff;fill-opacity:1;fill-rule:nonzero;stroke:none;stroke-width:64;stroke-linecap:butt;stroke-linejoin:miter;stroke-miterlimit:4;stroke-dasharray:none;stroke-dashoffset:0;stroke-opacity:1;marker:none;enable-background:accumulate"
             d="M 62.628906 239.7168 C 63.166244 239.75199 63.626565 239.81357 64.173828 239.8457 C 64.597985 239.87061 65.175303 239.85774 65.605469 239.88086 L 65.568359 232.43164 L 91.568359 208.43164 L 91.568359 200.43164 L 103.56836 188.43164 L 103.56836 182.43164 L 109.56836 176.43164 L 109.56836 160.43164 L 101.56836 152.43164 L 85.568359 152.43164 L 77.568359 144.43164 L 57.568359 144.43164 L 49.568359 152.43164 L 49.568359 172.43164 L 65.621094 186.5 L 65.568359 204.43164 L 59.568359 210.43164 L 59.568359 236.43164 L 62.628906 239.7168 z "
             id="path4243"
             transform="matrix(1.2758621,0,0,1.2758621,660.27533,-517.9477)" />
          <path
             style="color:#000000;display:inline;overflow:visible;visibility:visible;opacity:1;fill:#ffffff;fill-opacity:1;fill-rule:nonzero;stroke:none;stroke-width:63.99999619;stroke-linecap:butt;stroke-linejoin:miter;stroke-miterlimit:4;stroke-dasharray:none;stroke-dashoffset:0;stroke-opacity:1;marker:none;enable-background:accumulate"
             d="M 97.568359 84.431641 L 91.568359 90.431641 L 97.568359 90.431641 L 99.568359 92.431641 L 101.56836 92.431641 L 103.56836 90.431641 L 97.568359 84.431641 z "
             id="path1030"
             transform="matrix(1.2758621,0,0,1.2758621,660.27533,-517.9477)" />
          <path
             style="color:#000000;display:inline;overflow:visible;visibility:visible;opacity:1;fill:#ffffff;fill-opacity:1;fill-rule:nonzero;stroke:none;stroke-width:63.99999619;stroke-linecap:butt;stroke-linejoin:miter;stroke-miterlimit:4;stroke-dasharray:none;stroke-dashoffset:0;stroke-opacity:1;marker:none;enable-background:accumulate"
             d="M 16.216797 35.080078 C 16.112511 35.228855 15.977361 35.343081 15.875 35.494141 C 14.686526 37.248043 13.626285 39.157011 12.683594 41.232422 C 11.740902 43.307833 10.915601 45.550411 10.193359 47.972656 C 9.4711176 50.394901 8.8532979 52.996611 8.3261719 55.791016 C 7.7990459 58.585421 7.3632033 61.571781 7.0058594 64.763672 C 6.6485155 67.955563 6.3691456 71.352094 6.15625 74.966797 C 5.7304589 82.196203 5.5683594 90.296529 5.5683594 99.369141 L 5.5683594 120.43164 L 13.568359 128.43164 L 25.568359 128.43164 L 45.568359 148.43164 L 45.568359 124.43164 L 57.568359 112.43164 L 65.568359 112.43164 L 77.568359 100.43164 L 89.568359 100.43164 L 83.568359 94.431641 L 95.568359 80.431641 L 83.568359 68.431641 L 65.568359 68.431641 L 65.568359 84.431641 L 57.568359 84.431641 L 49.568359 76.431641 L 49.568359 68.431641 L 61.568359 56.431641 L 71.568359 56.431641 L 71.568359 48.431641 L 59.568359 36.431641 L 39.568359 36.431641 L 39.568359 48.431641 L 29.568359 48.431641 L 16.216797 35.080078 z "
             id="path4245"
             transform="matrix(1.2758621,0,0,1.2758621,660.27533,-517.9477)" />
          <path
             sodipodi:nodetypes="ccccccccccccccccccc"
             inkscape:connector-curvature="0"
             id="path4247"
             d="m 881.72414,-374.5 h -30.62069 l -17.86206,17.86207 v 25.51724 l 12.75862,12.75862 h 17.86207 l 7.65517,7.65518 v 7.65517 l 5.10345,5.10345 v 30.62069 l 19.37931,20.48276 32,-32 -0.34483,-29.31035 25.51724,-25.51724 h -10.2069 l -25.51724,-25.51724 v -10.2069 h -30.62069 z"
             style="color:#000000;display:inline;overflow:visible;visibility:visible;opacity:1;fill:#ffffff;fill-opacity:1;fill-rule:nonzero;stroke:none;stroke-width:81.65517426;stroke-linecap:butt;stroke-linejoin:miter;stroke-miterlimit:4;stroke-dasharray:none;stroke-dashoffset:0;stroke-opacity:1;marker:none;enable-background:accumulate" />
          <path
             style="color:#000000;display:inline;overflow:visible;visibility:visible;opacity:1;fill:#ffffff;fill-opacity:1;fill-rule:nonzero;stroke:none;stroke-width:63.99999619;stroke-linecap:butt;stroke-linejoin:miter;stroke-miterlimit:4;stroke-dasharray:none;stroke-dashoffset:0;stroke-opacity:1;marker:none;enable-background:accumulate"
             d="M 245.56836 120.43164 L 245.56836 99.369141 C 245.56836 90.296529 245.40626 82.196203 244.98047 74.966797 C 244.76757 71.352094 244.4882 67.955563 244.13086 64.763672 C 243.77352 61.571781 243.33767 58.585421 242.81055 55.791016 C 242.28342 52.996611 241.6656 50.394901 240.94336 47.972656 C 240.22112 45.550411 239.39386 43.307833 238.45117 41.232422 C 237.85108 39.911264 237.11775 38.769086 236.41992 37.580078 L 233.56836 40.431641 L 221.56836 40.431641 L 209.56836 52.431641 L 201.56836 44.431641 L 177.56836 44.431641 L 165.56836 56.431641 L 165.56836 66.431641 L 177.56836 66.431641 L 177.56836 60.431641 L 185.56836 60.431641 L 185.56836 68.431641 L 181.56836 72.431641 L 165.56836 72.703125 L 159.56836 78.431641 L 151.56836 78.431641 L 151.56836 86.431641 L 145.56836 92.431641 L 145.56836 104.43164 L 157.56836 104.43164 L 165.56836 96.431641 L 173.56836 96.431641 L 173.56836 100.43164 L 181.56836 108.43164 L 185.56836 108.43164 L 185.56836 104.43164 L 177.56836 96.431641 L 185.56836 96.431641 L 193.56836 104.43164 L 203.56836 104.43164 L 197.56836 98.431641 L 203.56836 92.431641 L 209.56836 92.431641 L 215.56836 98.431641 L 209.56836 98.431641 L 203.56836 104.43164 L 209.45898 110.32422 L 209.56836 116.43164 L 201.56836 116.43164 L 225.56836 140.43164 L 229.56836 140.43164 L 233.56836 136.43164 L 241.56836 128.43164 L 233.56836 120.43164 L 245.56836 120.43164 z "
             id="path4249"
             transform="matrix(1.2758621,0,0,1.2758621,660.27533,-517.9477)" />
          <path
             inkscape:connector-curvature="0"
             id="path4251"
             d="m 856.2069,-422.98275 v -7.65518 l 7.65518,-7.65517 v 15.31035 z"
             style="color:#000000;display:inline;overflow:visible;visibility:visible;opacity:1;fill:#ffffff;fill-opacity:1;fill-rule:nonzero;stroke:none;stroke-width:81.65517426;stroke-linecap:butt;stroke-linejoin:miter;stroke-miterlimit:4;stroke-dasharray:none;stroke-dashoffset:0;stroke-opacity:1;marker:none;enable-background:accumulate"
             sodipodi:nodetypes="ccccc" />
          <path
             style="color:#000000;display:inline;overflow:visible;visibility:visible;opacity:1;fill:#ffffff;fill-opacity:1;fill-rule:nonzero;stroke:none;stroke-width:81.65517426;stroke-linecap:butt;stroke-linejoin:miter;stroke-miterlimit:4;stroke-dasharray:none;stroke-dashoffset:0;stroke-opacity:1;marker:none;enable-background:accumulate"
             d="m 935.31035,-272.43103 v -16 l 10.2069,-9.51724 v 25.51724 z"
             id="path4253"
             inkscape:connector-curvature="0"
             sodipodi:nodetypes="ccccc" />
          <path
             style="color:#000000;display:inline;overflow:visible;visibility:visible;opacity:1;fill:#ffffff;fill-opacity:1;fill-rule:nonzero;stroke:none;stroke-width:64;stroke-linecap:butt;stroke-linejoin:miter;stroke-miterlimit:4;stroke-dasharray:none;stroke-dashoffset:0;stroke-opacity:1;marker:none;enable-background:accumulate"
             d="M 133.56836 16.431641 L 88.599609 16.431641 C 87.828443 16.431641 87.282587 16.480026 86.525391 16.482422 L 79.568359 24.431641 L 91.568359 36.431641 L 91.568359 48.972656 L 105.56836 64.431641 L 113.56836 64.431641 L 113.56836 56.431641 L 125.56836 44.431641 L 125.56836 36.431641 L 133.56836 28.431641 L 133.56836 16.431641 z "
             id="path1037"
             transform="matrix(1.2758621,0,0,1.2758621,660.27533,-517.9477)" />
          <path
             style="color:#000000;display:inline;overflow:visible;visibility:visible;opacity:1;fill:#ffffff;fill-opacity:1;fill-rule:nonzero;stroke:none;stroke-width:64;stroke-linecap:butt;stroke-linejoin:miter;stroke-miterlimit:4;stroke-dasharray:none;stroke-dashoffset:0;stroke-opacity:1;marker:none;enable-background:accumulate"
             d="M 65.568359 16.986328 C 65.149505 17.008893 64.586982 16.99527 64.173828 17.019531 C 60.555527 17.232005 57.154166 17.508534 53.958984 17.865234 C 50.763803 18.221935 47.773959 18.657341 44.976562 19.183594 C 42.477964 19.653636 40.186712 20.225176 37.986328 20.849609 L 45.568359 28.431641 L 65.568359 28.431641 L 65.568359 16.986328 z "
             id="path1033"
             transform="matrix(1.2758621,0,0,1.2758621,660.27533,-517.9477)" />
          <path
             sodipodi:nodetypes="ccccc"
             style="color:#000000;display:inline;overflow:visible;visibility:visible;opacity:1;fill:#ffffff;fill-opacity:1;fill-rule:nonzero;stroke:none;stroke-width:81.65517426;stroke-linecap:butt;stroke-linejoin:miter;stroke-miterlimit:4;stroke-dasharray:none;stroke-dashoffset:0;stroke-opacity:1;marker:none;enable-background:accumulate"
             d="m 817.93104,-440.84482 h 7.65518 l 7.65517,7.65517 -15.31035,10e-6 z"
             id="path13116"
             inkscape:connector-curvature="0" />
          <path
             inkscape:connector-curvature="0"
             id="path13118"
             d="m 749.03449,-356.63794 h -7.65518 l -7.65517,7.65517 15.31035,1e-5 z"
             style="color:#000000;display:inline;overflow:visible;visibility:visible;opacity:1;fill:#ffffff;fill-opacity:1;fill-rule:nonzero;stroke:none;stroke-width:81.65517426;stroke-linecap:butt;stroke-linejoin:miter;stroke-miterlimit:4;stroke-dasharray:none;stroke-dashoffset:0;stroke-opacity:1;marker:none;enable-background:accumulate"
             sodipodi:nodetypes="ccccc" />
        </g>
      </g>
      <g
         id="g1023"
         transform="matrix(1.0196539,0,0,1.0196539,43.999019,82.129559)"
         style="display:inline;stroke-width:2;enable-background:new">
        <rect
           y="-37"
           x="99"
           height="448"
           width="160"
           id="rect4277"
           style="color:#000000;display:inline;overflow:visible;visibility:visible;opacity:0.1;fill:#ffffff;fill-opacity:1;fill-rule:nonzero;stroke:none;stroke-width:4;stroke-linecap:butt;stroke-linejoin:miter;stroke-miterlimit:4;stroke-dasharray:none;stroke-dashoffset:0;stroke-opacity:1;marker:none;enable-background:accumulate" />
      </g>
      <path
         style="display:inline;opacity:0.1;fill:#ffffff;fill-opacity:1;stroke:none;stroke-width:4.07861567;stroke-linecap:round;stroke-linejoin:round;stroke-miterlimit:4;stroke-dasharray:none;stroke-dashoffset:0;stroke-opacity:1;enable-background:new"
         d="m -18.19987,272.80486 v 59.26739 c 0,148.01417 21.1733199,169.1351 169.32628,169.1351 h 150.78132 c 148.15296,0 169.32628,-21.12093 169.32628,-169.1351 v -59.26739 z"
         id="path1026"
         inkscape:connector-curvature="0"
         sodipodi:nodetypes="csssscc" />
      <path
         sodipodi:nodetypes="sssssssss"
         inkscape:connector-curvature="0"
         id="path1068"
         d="M 361.9375,-212 C 507.2348,-212 528,-191.28677 528,-46.125 V 70.125 C 528,215.28618 507.2348,236 361.9375,236 H 214.0625 C 68.7652,236 48,215.28618 48,70.125 V -46.125 C 48,-191.28677 68.7652,-212 214.0625,-212 Z"
         style="display:inline;opacity:0.5;fill:none;fill-opacity:1;stroke:url(#linearGradient1108);stroke-width:8;stroke-linecap:round;stroke-linejoin:round;stroke-miterlimit:4;stroke-dasharray:none;stroke-dashoffset:0;stroke-opacity:1;enable-background:new"
         clip-path="url(#clipPath1082-3-367)"
         transform="matrix(1.0196539,0,0,1.0196539,-67.14326,260.56901)" />
      <g
         id="g1085"
         transform="translate(-9.8470651,7.0140997)">
        <circle
           transform="scale(1,-1)"
           r="182.93486"
           cy="-265.79068"
           cx="236.36412"
           id="path4238"
           style="color:#000000;display:inline;overflow:visible;visibility:visible;opacity:1;fill:#5d5d5d;fill-opacity:1;fill-rule:nonzero;stroke:none;stroke-width:7.95368958;stroke-linecap:butt;stroke-linejoin:miter;stroke-miterlimit:4;stroke-dasharray:23.8610683, 23.8610683;stroke-dashoffset:0;stroke-opacity:1;marker:none;enable-background:accumulate" />
        <path
           inkscape:connector-curvature="0"
           id="circle1007"
           d="M 53.429275,265.79085 A 182.93486,182.93486 0 0 1 236.36414,82.85588 182.93486,182.93486 0 0 1 419.29901,265.79085 Z"
           style="color:#000000;display:inline;overflow:visible;visibility:visible;opacity:0.05;fill:#000000;fill-opacity:1;fill-rule:nonzero;stroke:none;stroke-width:7.95368958;stroke-linecap:butt;stroke-linejoin:miter;stroke-miterlimit:4;stroke-dasharray:23.8610683, 23.8610683;stroke-dashoffset:0;stroke-opacity:1;marker:none;enable-background:accumulate" />
        <path
           sodipodi:nodetypes="sssss"
           inkscape:connector-curvature="0"
           clip-path="url(#clipPath999-9)"
           id="path962"
           d="m 152,70 c -48.60106,0 -88,39.39894 -88,88 0,48.60106 39.39894,88 88,88 48.60106,0 88,-39.39894 88,-88 0,-48.60106 -39.39894,-88 -88,-88 z"
           style="color:#000000;display:inline;overflow:visible;visibility:visible;opacity:0.2;fill:none;fill-opacity:1;fill-rule:nonzero;stroke:url(#linearGradient982);stroke-width:10;stroke-linecap:butt;stroke-linejoin:round;stroke-miterlimit:4;stroke-dasharray:none;stroke-dashoffset:0;stroke-opacity:1;marker:none;filter:url(#filter1003);enable-background:accumulate"
           transform="matrix(2.0788052,0,0,2.0788052,-79.614265,-58.502775)" />
        <path
           transform="matrix(2.0788052,0,0,2.0788052,-24.667266,25.54744)"
           id="path1039"
           d="m 125.56799,42.573864 c -5.39372,-0.05998 -7.28039,0.14029 -8.03906,6.66211 l -0.28906,2.304687 c -0.66573,4.22983 -0.793,6.145174 -4.79493,7.181644 -0.26817,0.0599 -0.53589,0.12007 -0.80273,0.18359 -0.0631,0.013 -0.11886,0.0282 -0.1836,0.041 l 0.008,0.002 c -1.01036,0.24375 -2.00991,0.51443 -3,0.80859 l 0.01,-0.0117 c -0.16537,0.0565 -0.31605,0.10151 -0.47265,0.15039 -0.14986,0.0458 -0.29985,0.0898 -0.44922,0.13672 -4.02147,1.12811 -5.08541,-0.46762 -7.787106,-3.810552 l -1.4043,-1.851563 c -1.95898,-2.634363 -3.36984,-3.758729 -4.87304,-3.880859 -0.18789,-0.01527 -0.37832,-0.01507 -0.57032,0 -1.3439,0.105454 -2.81717,0.930219 -4.84765,2.132813 -4.70108,2.644913 -6.23474,3.759697 -3.63086,9.787111 l 0.90039,2.14062 c 1.65637,4.30254 2.51833,5.96731 -1.30274,9.30469 l 0.10157,-0.0234 c -0.78976,0.74858 -1.55804,1.51883 -2.30665,2.3086 l 0.0215,-0.10157 c -3.33739,3.82107 -5.00215,2.95911 -9.304688,1.30274 l -2.140625,-0.90235 c -1.88356,-0.81371 -3.287448,-1.22275 -4.408203,-1.25781 -2.465666,-0.0772 -3.560523,1.65668 -5.378906,4.88867 -2.748796,4.6411 -3.520685,6.37502 1.748046,10.29297 l 1.851563,1.4043 c 3.342929,2.7017 4.938662,3.76564 3.810547,7.78711 -0.04698,0.14937 -0.09087,0.29936 -0.136719,0.449225 -0.04894,0.1566 -0.09193,0.30729 -0.148437,0.47265 l 0.0098,-0.01 c -0.294163,0.99009 -0.564847,1.98964 -0.808594,3 l -0.002,-0.008 c -0.01271,0.0647 -0.02795,0.12053 -0.04102,0.1836 -0.06352,0.26684 -0.123652,0.53456 -0.183594,0.80273 -1.036464,4.00194 -2.951806,4.1292 -7.181641,4.79493 l -2.304687,0.28906 c -6.52182,0.75868 -6.722082,2.64535 -6.66211,8.03906 -0.05998,5.39372 0.140285,7.2804 6.66211,8.03906 l 2.304687,0.28906 c 4.22983,0.66573 6.145182,0.793 7.181641,4.79493 0.05994,0.26818 0.120069,0.5359 0.183594,0.80273 0.01301,0.0631 0.02824,0.11886 0.04102,0.1836 l 0.002,-0.008 c 0.243747,1.01037 0.514431,2.00991 0.808594,3 l -0.01172,-0.01 c 0.0565,0.16537 0.101472,0.31605 0.150391,0.47265 0.04582,0.14985 0.08974,0.29986 0.136719,0.44922 1.12811,4.02147 -0.467618,5.08542 -3.810547,7.78711 l -1.851563,1.4043 c -5.268726,3.91794 -4.496841,5.6499 -1.748046,10.29101 2.644913,4.70108 3.759708,6.23474 9.787109,3.63086 l 2.140625,-0.90039 c 4.302524,-1.65637 5.967294,-2.51832 9.304684,1.30274 l -0.0234,-0.10157 c 0.74858,0.78976 1.51884,1.55807 2.3086,2.30665 l -0.10157,-0.0215 c 3.82107,3.3374 2.95911,5.00215 1.30274,9.30469 l -0.90235,2.14062 c -2.60388,6.0274 -1.07022,7.14414 3.63086,9.78907 4.6411,2.74879 6.37502,3.51873 10.29297,-1.75 l 1.4043,-1.85157 c 2.701686,-3.34294 3.765646,-4.93865 7.787106,-3.81054 0.14937,0.047 0.29936,0.0909 0.44922,0.13672 0.1566,0.0489 0.30728,0.0938 0.47265,0.15039 l -0.01,-0.0117 c 0.99009,0.29416 1.98964,0.56484 3,0.80859 l -0.008,0.002 c 0.0647,0.0128 0.12053,0.028 0.1836,0.041 0.26684,0.0635 0.53456,0.12365 0.80273,0.18359 4.00193,1.03647 4.12919,2.95182 4.79493,7.18164 l 0.28906,2.30469 c 0.75867,6.52182 2.64534,6.72209 8.03906,6.66211 5.39371,0.06 7.28039,-0.14029 8.03906,-6.66211 l 0.28906,-2.30469 c 0.66576,-4.22983 0.79299,-6.14518 4.79493,-7.18164 0.26817,-0.06 0.5359,-0.12007 0.80273,-0.18359 0.0631,-0.0131 0.11886,-0.0281 0.1836,-0.041 l -0.008,-0.002 c 1.01037,-0.24375 2.0099,-0.51443 3,-0.80859 l -0.01,0.0117 c 0.16536,-0.0565 0.31604,-0.10151 0.47265,-0.15039 0.14985,-0.0458 0.29986,-0.0897 0.44922,-0.13672 4.02147,-1.1281 5.08542,0.46761 7.78711,3.81054 l 1.4043,1.85157 c 3.91794,5.26872 5.6499,4.49685 10.29101,1.74804 4.70108,-2.64491 6.23475,-3.7597 3.63086,-9.78711 l -0.90039,-2.14062 c -1.65641,-4.30248 -2.51833,-5.96729 1.30274,-9.30469 l -0.10157,0.0234 c 0.78977,-0.74858 1.55807,-1.51884 2.30665,-2.3086 l -0.0215,0.10157 c 3.3374,-3.82106 5.00215,-2.95912 9.30469,-1.30274 l 2.14062,0.90235 c 6.0274,2.60387 7.14218,1.07022 9.78711,-3.63086 2.74879,-4.64111 3.5207,-6.37503 -1.74804,-10.29297 l -1.85157,-1.4043 c -3.34293,-2.70168 -4.93866,-3.76564 -3.81054,-7.78711 0.047,-0.14936 0.0908,-0.29937 0.13672,-0.44922 0.0489,-0.1566 0.092,-0.30728 0.14843,-0.47265 l -0.01,0.01 c 0.29416,-0.99009 0.56484,-1.98963 0.80859,-3 l 0.002,0.008 c 0.0128,-0.0647 0.028,-0.12052 0.041,-0.1836 0.0635,-0.26683 0.12365,-0.53455 0.18359,-0.80273 1.03647,-4.00193 2.9518,-4.12919 7.18164,-4.79493 l 2.30469,-0.28906 c 6.52182,-0.75867 6.72209,-2.64534 6.66211,-8.03906 0.06,-5.3937 -0.14028,-7.28038 -6.66211,-8.03906 l -2.30469,-0.28906 c -4.22984,-0.66574 -6.14517,-0.79299 -7.18164,-4.79493 -0.06,-0.26816 -0.12007,-0.53589 -0.18359,-0.80273 -0.0131,-0.0631 -0.0281,-0.11887 -0.041,-0.1836 l -0.002,0.008 c -0.24375,-1.01036 -0.51442,-2.0099 -0.80859,-3 l 0.0117,0.01 c -0.0565,-0.16536 -0.10151,-0.31604 -0.15039,-0.47265 -0.0458,-0.149865 -0.0897,-0.299855 -0.13672,-0.449225 -1.12811,-4.02147 0.46762,-5.08541 3.81054,-7.78711 l 1.85157,-1.4043 c 5.26873,-3.91794 4.49684,-5.6499 1.74804,-10.29101 -1.81838,-3.23199 -2.91322,-4.96776 -5.3789,-4.89063 -1.12074,0.0351 -2.52465,0.44605 -4.40821,1.25977 l -2.14062,0.90039 c -4.30247,1.6564 -5.9673,2.51834 -9.30469,-1.30274 l 0.0234,0.10157 c -0.74858,-0.78977 -1.51883,-1.55806 -2.3086,-2.30665 l 0.10157,0.0215 c -3.82106,-3.33739 -2.95912,-5.00215 -1.30274,-9.30469 l 0.90235,-2.14062 c 2.60387,-6.027406 1.07022,-7.142192 -3.63086,-9.787111 -2.32056,-1.374397 -3.91477,-2.254938 -5.41797,-2.132813 -1.5032,0.12213 -2.91603,1.246496 -4.875,3.880859 l -1.4043,1.851563 c -2.70169,3.342932 -3.76564,4.938652 -7.78711,3.810552 -0.14936,-0.047 -0.29937,-0.0909 -0.44922,-0.13672 -0.15661,-0.0489 -0.30729,-0.0919 -0.47265,-0.14844 l 0.01,0.01 c -0.9901,-0.29416 -1.98963,-0.56485 -3,-0.80859 l 0.008,-0.002 c -0.0647,-0.0127 -0.12052,-0.028 -0.1836,-0.041 -0.26683,-0.0635 -0.53456,-0.12366 -0.80273,-0.1836 -4.00194,-1.03647 -4.12918,-2.95181 -4.79493,-7.18164 l -0.28906,-2.304687 c -0.75844,-6.522064 -2.64512,-6.722331 -8.03883,-6.662354 z m -0.0117,30.994141 c 0.004,-1e-5 0.008,-1e-5 0.0117,0 5.06531,3e-4 9.96082,0.87493 14.53516,2.48047 a 12,12 0 0 0 5.46484,6.87891 12,12 0 0 0 8.66992,1.29101 c 7.20335,6.1907 12.42982,14.70372 14.43946,24.548835 0.50642,2.48002 -1.38873,4.80104 -3.91993,4.80078 h -12.3789 c -1.76926,1.5e-4 -3.32848,-1.16191 -3.83399,-2.85742 -3.03409,-10.17667 -12.3486,-17.126135 -22.96679,-17.140635 -1.86552,0.0101 -3.72427,0.23539 -5.53711,0.67578 -1.72527,0.41898 -3.52028,-0.34928 -4.40821,-1.88671 l -6.17968,-10.70118 c -1.26291,-2.1886 -0.20551,-4.98537 2.18945,-5.79101 4.48467,-1.50955 9.18217,-2.28583 13.91406,-2.29883 z m -26.306636,10.0957 c 1.361096,0.0638 2.596136,0.816 3.277336,1.9961 l 6.17969,10.70117 c 0.88545,1.53347 0.65743,3.4666 -0.56055,4.751955 -4.21283,4.44663 -6.56562,10.3318 -6.57812,16.45703 0.007,6.12872 2.3554,12.01941 6.56836,16.47071 1.21703,1.28501 1.44502,3.21699 0.56055,4.75 l -6.16211,10.67578 c -1.26486,2.19101 -4.220436,2.67243 -6.115236,0.99609 -7.35823,-6.50704 -12.25407,-15.23839 -14.0625,-24.74023 a 12,12 0 0 0 3.21094,-8.1543 12,12 0 0 0 -3.21289,-8.15039 c 1.80449,-9.506155 6.6973,-18.242465 14.05664,-24.753915 0.77978,-0.68994 1.79784,-1.0487 2.83789,-1 z M 152.3883,121.56801 h 12.32813 c 2.53119,-2.4e-4 4.42635,2.32077 3.91992,4.80078 -2.00843,9.83928 -7.23024,18.34896 -14.42774,24.53906 a 12,12 0 0 0 -2.92382,-0.30273 12,12 0 0 0 -5.7168,1.60351 12,12 0 0 0 -5.45312,6.86133 c -4.57562,1.61246 -9.47418,2.49256 -14.54297,2.49805 -0.006,2e-5 -0.0125,2e-5 -0.0195,0 -4.72985,-0.0188 -9.42516,-0.80071 -13.90626,-2.31445 -2.39212,-0.80764 -3.44709,-3.60206 -2.18554,-5.78907 l 6.16992,-10.6875 c 0.88793,-1.53742 2.68293,-2.30568 4.4082,-1.88671 1.81402,0.44068 3.67428,0.66578 5.54102,0.67578 10.62131,-0.0108 19.93962,-6.96097 22.97461,-17.14063 0.50551,-1.6955 2.06472,-2.85757 3.83398,-2.85742 z"
           style="color:#000000;display:inline;overflow:visible;visibility:visible;opacity:0.2;fill:#000000;fill-opacity:0.71428576;fill-rule:nonzero;stroke:none;stroke-width:16.07832336;stroke-linecap:butt;stroke-linejoin:miter;stroke-miterlimit:4;stroke-dasharray:none;stroke-dashoffset:0;stroke-opacity:1;marker:none;filter:url(#filter1025);enable-background:accumulate"
           inkscape:connector-curvature="0" />
        <path
           transform="matrix(2.0788052,0,0,2.0788052,-24.667266,25.54744)"
           inkscape:connector-curvature="0"
           style="color:#000000;display:inline;overflow:visible;visibility:visible;opacity:0.2;fill:url(#linearGradient1035);fill-opacity:1;fill-rule:nonzero;stroke:none;stroke-width:16.07832336;stroke-linecap:butt;stroke-linejoin:miter;stroke-miterlimit:4;stroke-dasharray:none;stroke-dashoffset:0;stroke-opacity:1;marker:none;filter:url(#filter1025);enable-background:accumulate"
           d="m 125.56799,44.573864 c -5.39372,-0.05998 -7.28039,0.14029 -8.03906,6.66211 l -0.28906,2.304687 c -0.66573,4.22983 -0.793,6.145174 -4.79493,7.181644 -0.26817,0.0599 -0.53589,0.12007 -0.80273,0.18359 -0.0631,0.013 -0.11886,0.0282 -0.1836,0.041 l 0.008,0.002 c -1.01036,0.24375 -2.00991,0.51443 -3,0.80859 l 0.01,-0.0117 c -0.16537,0.0565 -0.31605,0.10151 -0.47265,0.15039 -0.14986,0.0458 -0.29985,0.0898 -0.44922,0.13672 -4.02147,1.12811 -5.08541,-0.46762 -7.787106,-3.810552 l -1.4043,-1.851563 c -1.95898,-2.634363 -3.36984,-3.758729 -4.87304,-3.880859 -0.18789,-0.01527 -0.37832,-0.01507 -0.57032,0 -1.3439,0.105454 -2.81717,0.930219 -4.84765,2.132813 -4.70108,2.644913 -6.23474,3.759697 -3.63086,9.787111 l 0.90039,2.14062 c 1.65637,4.30254 2.51833,5.96731 -1.30274,9.30469 l 0.10157,-0.0234 c -0.78976,0.74858 -1.55804,1.51883 -2.30665,2.3086 l 0.0215,-0.10157 c -3.33739,3.82107 -5.00215,2.95911 -9.304688,1.30274 l -2.140625,-0.90235 c -1.88356,-0.81371 -3.287448,-1.22275 -4.408203,-1.25781 -2.465666,-0.0772 -3.560523,1.65668 -5.378906,4.88867 -2.748796,4.6411 -3.520685,6.37502 1.748046,10.29297 l 1.851563,1.4043 c 3.342929,2.7017 4.938662,3.76564 3.810547,7.787115 -0.04698,0.14937 -0.09087,0.29936 -0.136719,0.44922 -0.04894,0.1566 -0.09193,0.30729 -0.148437,0.47265 l 0.0098,-0.01 c -0.294163,0.99009 -0.564847,1.98964 -0.808594,3 l -0.002,-0.008 c -0.01271,0.0647 -0.02795,0.12053 -0.04102,0.1836 -0.06352,0.26684 -0.123652,0.53456 -0.183594,0.80273 -1.036464,4.00194 -2.951806,4.1292 -7.181641,4.79493 l -2.304687,0.28906 c -6.52182,0.75868 -6.722082,2.64535 -6.66211,8.03906 -0.05998,5.39372 0.140285,7.2804 6.66211,8.03906 l 2.304687,0.28906 c 4.22983,0.66573 6.145182,0.793 7.181641,4.79493 0.05994,0.26818 0.120069,0.5359 0.183594,0.80273 0.01301,0.0631 0.02824,0.11886 0.04102,0.1836 l 0.002,-0.008 c 0.243747,1.01037 0.514431,2.00991 0.808594,3 l -0.01172,-0.01 c 0.0565,0.16537 0.101472,0.31605 0.150391,0.47265 0.04582,0.14985 0.08974,0.29986 0.136719,0.44922 1.12811,4.02147 -0.467618,5.08542 -3.810547,7.78711 l -1.851563,1.4043 c -5.268726,3.91794 -4.496841,5.6499 -1.748046,10.29101 2.644913,4.70108 3.759708,6.23474 9.787109,3.63086 l 2.140625,-0.90039 c 4.302524,-1.65637 5.967294,-2.51832 9.304684,1.30274 l -0.0234,-0.10157 c 0.74858,0.78976 1.51884,1.55807 2.3086,2.30665 l -0.10157,-0.0215 c 3.82107,3.3374 2.95911,5.00215 1.30274,9.30469 l -0.90235,2.14062 c -2.60388,6.0274 -1.07022,7.14414 3.63086,9.78907 4.6411,2.74879 6.37502,3.51873 10.29297,-1.75 l 1.4043,-1.85157 c 2.701686,-3.34294 3.765646,-4.93865 7.787106,-3.81054 0.14937,0.047 0.29936,0.0909 0.44922,0.13672 0.1566,0.0489 0.30728,0.0938 0.47265,0.15039 l -0.01,-0.0117 c 0.99009,0.29416 1.98964,0.56484 3,0.80859 l -0.008,0.002 c 0.0647,0.0128 0.12053,0.028 0.1836,0.041 0.26684,0.0635 0.53456,0.12365 0.80273,0.18359 4.00193,1.03647 4.12919,2.95182 4.79493,7.18164 l 0.28906,2.30469 c 0.75867,6.52182 2.64534,6.72209 8.03906,6.66211 5.39371,0.06 7.28039,-0.14029 8.03906,-6.66211 l 0.28906,-2.30469 c 0.66576,-4.22983 0.79299,-6.14518 4.79493,-7.18164 0.26817,-0.06 0.5359,-0.12007 0.80273,-0.18359 0.0631,-0.0131 0.11886,-0.0281 0.1836,-0.041 l -0.008,-0.002 c 1.01037,-0.24375 2.0099,-0.51443 3,-0.80859 l -0.01,0.0117 c 0.16536,-0.0565 0.31604,-0.10151 0.47265,-0.15039 0.14985,-0.0458 0.29986,-0.0897 0.44922,-0.13672 4.02147,-1.1281 5.08542,0.46761 7.78711,3.81054 l 1.4043,1.85157 c 3.91794,5.26872 5.6499,4.49685 10.29101,1.74804 4.70108,-2.64491 6.23475,-3.7597 3.63086,-9.78711 l -0.90039,-2.14062 c -1.65641,-4.30248 -2.51833,-5.96729 1.30274,-9.30469 l -0.10157,0.0234 c 0.78977,-0.74858 1.55807,-1.51884 2.30665,-2.3086 l -0.0215,0.10157 c 3.3374,-3.82106 5.00215,-2.95912 9.30469,-1.30274 l 2.14062,0.90235 c 6.0274,2.60387 7.14218,1.07022 9.78711,-3.63086 2.74879,-4.64111 3.5207,-6.37503 -1.74804,-10.29297 l -1.85157,-1.4043 c -3.34293,-2.70168 -4.93866,-3.76564 -3.81054,-7.78711 0.047,-0.14936 0.0908,-0.29937 0.13672,-0.44922 0.0489,-0.1566 0.092,-0.30728 0.14843,-0.47265 l -0.01,0.01 c 0.29416,-0.99009 0.56484,-1.98963 0.80859,-3 l 0.002,0.008 c 0.0128,-0.0647 0.028,-0.12052 0.041,-0.1836 0.0635,-0.26683 0.12365,-0.53455 0.18359,-0.80273 1.03647,-4.00193 2.9518,-4.12919 7.18164,-4.79493 l 2.30469,-0.28906 c 6.52182,-0.75867 6.72209,-2.64534 6.66211,-8.03906 0.06,-5.3937 -0.14028,-7.28038 -6.66211,-8.03906 l -2.30469,-0.28906 c -4.22984,-0.66574 -6.14517,-0.79299 -7.18164,-4.79493 -0.06,-0.26816 -0.12007,-0.53589 -0.18359,-0.80273 -0.0131,-0.0631 -0.0281,-0.11887 -0.041,-0.1836 l -0.002,0.008 c -0.24375,-1.01036 -0.51442,-2.0099 -0.80859,-3 l 0.0117,0.01 c -0.0565,-0.16536 -0.10151,-0.31604 -0.15039,-0.47265 -0.0458,-0.14986 -0.0897,-0.29985 -0.13672,-0.44922 -1.12811,-4.021475 0.46762,-5.085415 3.81054,-7.787115 l 1.85157,-1.4043 c 5.26873,-3.91794 4.49684,-5.6499 1.74804,-10.29101 -1.81838,-3.23199 -2.91322,-4.96776 -5.3789,-4.89063 -1.12074,0.0351 -2.52465,0.44605 -4.40821,1.25977 l -2.14062,0.90039 c -4.30247,1.6564 -5.9673,2.51834 -9.30469,-1.30274 l 0.0234,0.10157 c -0.74858,-0.78977 -1.51883,-1.55806 -2.3086,-2.30665 l 0.10157,0.0215 c -3.82106,-3.33739 -2.95912,-5.00215 -1.30274,-9.30469 l 0.90235,-2.14062 c 2.60387,-6.027406 1.07022,-7.142192 -3.63086,-9.787111 -2.32056,-1.374397 -3.91477,-2.254938 -5.41797,-2.132813 -1.5032,0.12213 -2.91603,1.246496 -4.875,3.880859 l -1.4043,1.851563 c -2.70169,3.342932 -3.76564,4.938652 -7.78711,3.810552 -0.14936,-0.047 -0.29937,-0.0909 -0.44922,-0.13672 -0.15661,-0.0489 -0.30729,-0.0919 -0.47265,-0.14844 l 0.01,0.01 c -0.9901,-0.29416 -1.98963,-0.56485 -3,-0.80859 l 0.008,-0.002 c -0.0647,-0.0127 -0.12052,-0.028 -0.1836,-0.041 -0.26683,-0.0635 -0.53456,-0.12366 -0.80273,-0.1836 -4.00194,-1.03647 -4.12918,-2.95181 -4.79493,-7.18164 l -0.28906,-2.304687 c -0.75844,-6.522064 -2.64512,-6.722331 -8.03883,-6.662354 z m -0.0117,30.994141 c 0.004,-1e-5 0.008,-1e-5 0.0117,0 5.06531,3e-4 9.96082,0.87493 14.53516,2.48047 a 12,12 0 0 0 5.46484,6.87891 12,12 0 0 0 8.66992,1.29101 c 7.20335,6.1907 12.42982,14.703725 14.43946,24.548835 0.50642,2.48002 -1.38873,4.80104 -3.91993,4.80078 h -12.3789 c -1.76926,1.5e-4 -3.32848,-1.16191 -3.83399,-2.85742 -3.03409,-10.17667 -12.3486,-17.126135 -22.96679,-17.140635 -1.86552,0.0101 -3.72427,0.23539 -5.53711,0.67578 -1.72527,0.41898 -3.52028,-0.34928 -4.40821,-1.88671 l -6.17968,-10.70118 c -1.26291,-2.1886 -0.20551,-4.98537 2.18945,-5.79101 4.48467,-1.50955 9.18217,-2.28583 13.91406,-2.29883 z m -26.306636,10.0957 c 1.361096,0.0638 2.596136,0.816 3.277336,1.9961 l 6.17969,10.70117 c 0.88545,1.53347 0.65743,3.466605 -0.56055,4.751955 -4.21283,4.44663 -6.56562,10.3318 -6.57812,16.45703 0.007,6.12872 2.3554,12.01941 6.56836,16.47071 1.21703,1.28501 1.44502,3.21699 0.56055,4.75 l -6.16211,10.67578 c -1.26486,2.19101 -4.220436,2.67243 -6.115236,0.99609 -7.35823,-6.50704 -12.25407,-15.23839 -14.0625,-24.74023 a 12,12 0 0 0 3.21094,-8.1543 12,12 0 0 0 -3.21289,-8.15039 c 1.80449,-9.50615 6.6973,-18.242465 14.05664,-24.753915 0.77978,-0.68994 1.79784,-1.0487 2.83789,-1 z M 152.3883,123.56801 h 12.32813 c 2.53119,-2.4e-4 4.42635,2.32077 3.91992,4.80078 -2.00843,9.83928 -7.23024,18.34896 -14.42774,24.53906 a 12,12 0 0 0 -2.92382,-0.30273 12,12 0 0 0 -5.7168,1.60351 12,12 0 0 0 -5.45312,6.86133 c -4.57562,1.61246 -9.47418,2.49256 -14.54297,2.49805 -0.006,2e-5 -0.0125,2e-5 -0.0195,0 -4.72985,-0.0188 -9.42516,-0.80071 -13.90626,-2.31445 -2.39212,-0.80764 -3.44709,-3.60206 -2.18554,-5.78907 l 6.16992,-10.6875 c 0.88793,-1.53742 2.68293,-2.30568 4.4082,-1.88671 1.81402,0.44068 3.67428,0.66578 5.54102,0.67578 10.62131,-0.0108 19.93962,-6.96097 22.97461,-17.14063 0.50551,-1.6955 2.06472,-2.85757 3.83398,-2.85742 z"
           id="path1021" />
        <path
           id="path4356"
           d="m 236.36414,109.89259 c -11.21249,-0.12486 -15.13451,0.29135 -16.71164,13.84921 l -0.60089,4.79098 c -1.38392,8.79308 -1.6485,12.77461 -9.96773,14.92935 -0.55742,0.12486 -1.11401,0.24972 -1.66872,0.38153 -0.13118,0.0231 -0.2471,0.054 -0.38168,0.0848 l 0.0161,0.004 c -2.10033,0.50716 -4.1782,1.06935 -6.23641,1.68087 l 0.02,-0.0231 c -0.34376,0.11716 -0.65699,0.21119 -0.98254,0.31293 -0.31154,0.0948 -0.62339,0.18729 -0.93384,0.28441 -8.35985,2.34512 -10.57158,-0.97201 -16.18788,-7.92135 l -2.91926,-3.84903 c -4.07235,-5.47634 -7.00525,-7.81368 -10.13011,-8.06757 -0.39054,-0.0308 -0.78644,-0.0308 -1.18558,0 -2.79371,0.2189 -5.85635,1.93377 -10.07732,4.43366 -9.77263,5.49823 -12.96081,7.81575 -7.54786,20.34549 l 1.87174,4.44992 c 3.44327,8.94415 5.23512,12.40488 -2.70815,19.34273 l 0.21112,-0.0463 c -1.64177,1.55617 -3.23888,3.15727 -4.79508,4.79907 l 0.0447,-0.21119 c -6.9378,7.94325 -10.3985,6.15138 -19.34264,2.70808 l -4.44994,-1.87573 c -3.91556,-1.69159 -6.83397,-2.5419 -9.1638,-2.61481 -5.12564,-0.16031 -7.40163,3.44392 -11.1817,10.16265 -5.714212,9.64794 -7.318817,13.25241 3.63385,21.39705 l 3.84904,2.91934 c 6.9493,5.61623 10.26651,7.82801 7.92138,16.18785 -0.0977,0.31062 -0.18892,0.622 -0.28418,0.93385 -0.10174,0.32527 -0.19106,0.63897 -0.30853,0.98257 l 0.02,-0.0231 c -0.61152,2.05816 -1.1742,4.13614 -1.6809,6.23639 l -0.004,-0.0155 c -0.027,0.1341 -0.0578,0.2505 -0.0852,0.3823 -0.13202,0.55495 -0.25705,1.1112 -0.38168,1.6687 -2.1546,8.31929 -6.13622,8.58382 -14.92923,9.96772 l -4.790995,0.6012 c -13.557596,1.57713 -13.9739,5.49923 -13.849229,16.71166 -0.124703,11.21251 0.291656,15.13453 13.849229,16.71158 l 4.790995,0.6012 c 8.79299,1.3839 12.77464,1.6485 14.92923,9.96773 0.12462,0.55804 0.24965,1.11397 0.38168,1.66871 0.027,0.13112 0.0586,0.24663 0.0852,0.38151 l 0.004,-0.0163 c 0.5067,2.1004 1.0694,4.17823 1.6809,6.23646 l -0.0247,-0.023 c 0.11746,0.34299 0.21096,0.6567 0.31262,0.9825 0.0952,0.31138 0.18651,0.62278 0.28418,0.93386 2.34512,8.35984 -0.97208,10.57161 -7.92138,16.18792 l -3.84758,2.91595 c -10.952649,8.14465 -9.348055,11.74511 -3.63385,21.39305 5.49826,9.77263 7.81571,12.96082 20.3455,7.54791 l 4.44995,-1.8718 c 8.94411,-3.44329 12.40483,-5.23509 19.34262,2.70816 l -0.0486,-0.21119 c 1.55615,1.64172 3.15737,3.23889 4.79912,4.79506 l -0.21111,-0.0463 c 7.94327,6.93779 6.15142,10.39851 2.70815,19.34265 l -1.87581,4.44994 c -5.41297,12.52981 -2.22479,14.85126 7.54785,20.34958 9.64794,5.7142 13.25242,7.31475 21.39708,-3.63792 l 2.91926,-3.84904 c 5.61628,-6.94934 7.82805,-10.26654 16.18788,-7.92142 0.31054,0.0971 0.62232,0.18884 0.93384,0.2844 0.3255,0.10095 0.63873,0.19496 0.98255,0.31293 l -0.02,-0.023 c 2.05821,0.61122 4.13607,1.17417 6.23642,1.68088 l -0.0161,0.004 c 0.13449,0.023 0.25057,0.054 0.38168,0.0857 0.55471,0.13174 1.11125,0.25666 1.66872,0.38153 8.31924,2.15467 8.58378,6.13634 9.96773,14.92928 l 0.60088,4.79097 c 1.57713,13.55763 5.49914,13.97393 16.71164,13.84921 11.21247,0.1248 15.13451,-0.29134 16.71164,-13.84921 l 0.60089,-4.79097 c 1.38398,-8.793 1.64846,-12.77469 9.96772,-14.92928 0.55743,-0.12481 1.11403,-0.24973 1.66873,-0.38153 0.13112,-0.0231 0.2471,-0.0541 0.38167,-0.0857 l -0.0163,-0.004 c 2.10034,-0.50638 4.17817,-1.06944 6.23641,-1.68088 l -0.0208,0.023 c 0.34375,-0.11705 0.65699,-0.21119 0.98254,-0.31293 0.31155,-0.0948 0.6234,-0.1866 0.93384,-0.2844 8.35986,-2.34506 10.57159,0.97208 16.18789,7.92142 l 2.91927,3.84904 c 8.14462,10.95267 11.74504,9.34802 21.39301,3.63382 9.77261,-5.49822 12.96082,-7.81567 7.54784,-20.34548 l -1.87173,-4.44994 c -3.44335,-8.94408 -5.23511,-12.40486 2.70814,-19.34265 l -0.21111,0.0463 c 1.64178,-1.55617 3.23893,-3.15744 4.79508,-4.79914 l -0.0447,0.21117 c 6.93779,-7.94323 10.39849,-6.15151 19.34263,-2.70814 l 4.44994,1.8758 c 12.52979,5.41291 14.8472,2.22474 20.34548,-7.54783 5.71422,-9.64794 7.31887,-13.25248 -3.63382,-21.39713 l -3.84906,-2.91927 c -6.9493,-5.61632 -10.2665,-7.82801 -7.92136,-16.18792 0.0977,-0.31061 0.18863,-0.62201 0.28418,-0.93378 0.10155,-0.32527 0.19128,-0.63896 0.30852,-0.98256 l -0.0208,0.023 c 0.61151,-2.05823 1.1742,-4.13606 1.6809,-6.23645 l 0.004,0.0163 c 0.0269,-0.13419 0.0577,-0.25049 0.0852,-0.38152 0.13195,-0.55495 0.25706,-1.11121 0.38168,-1.6687 2.15461,-8.31923 6.13622,-8.58383 14.92924,-9.96773 l 4.79099,-0.6012 c 13.5576,-1.57705 13.97393,-5.49907 13.84923,-16.71158 0.1248,-11.21243 -0.29165,-15.13453 -13.84923,-16.71166 l -4.79099,-0.6012 c -8.79302,-1.38398 -12.77463,-1.64843 -14.92924,-9.96772 -0.12481,-0.55726 -0.24957,-1.11406 -0.38168,-1.66878 -0.0277,-0.13102 -0.0577,-0.24741 -0.0852,-0.38153 l -0.004,0.0155 c -0.5067,-2.1004 -1.06939,-4.17822 -1.6809,-6.23639 l 0.0247,0.0231 c -0.11747,-0.34376 -0.21103,-0.65669 -0.31263,-0.98249 -0.0952,-0.31139 -0.18639,-0.62278 -0.28418,-0.93393 -2.34512,-8.35977 0.9721,-10.57154 7.92139,-16.18786 l 3.84905,-2.91926 c 10.95268,-8.14464 9.34805,-11.74502 3.63384,-21.39296 -3.78006,-6.71873 -6.05603,-10.32705 -11.1817,-10.16674 -2.32979,0.0694 -5.24825,0.92731 -9.16382,2.61882 l -4.44991,1.87172 c -8.944,3.44338 -12.40487,5.23517 -19.34265,-2.70807 l 0.0485,0.21119 c -1.55613,-1.6418 -3.15734,-3.23882 -4.79912,-4.79507 l 0.21111,0.0463 c -7.94323,-6.93785 -6.15143,-10.39857 -2.70814,-19.34273 l 1.87596,-4.44988 c 5.41293,-12.52974 2.22478,-14.84719 -7.54785,-20.3455 -4.824,-2.85706 -8.13804,-4.68754 -11.26291,-4.43365 -3.12485,0.25358 -6.06186,2.59122 -10.13418,8.06757 l -2.91927,3.84903 c -5.61627,6.94926 -7.82802,10.26647 -16.18788,7.92135 -0.31047,-0.0979 -0.62232,-0.18884 -0.93384,-0.28441 -0.32558,-0.10097 -0.63873,-0.19115 -0.98254,-0.30908 l 0.0208,0.0231 c -2.05823,-0.61121 -4.13604,-1.17425 -6.23641,-1.68088 l 0.0163,-0.004 c -0.1346,-0.0231 -0.25057,-0.054 -0.38168,-0.0848 -0.55471,-0.1318 -1.11124,-0.25666 -1.66872,-0.38153 -8.31925,-2.15458 -8.58376,-6.13619 -9.96773,-14.92919 l -0.60103,-4.79106 c -1.5766,-13.5576 -5.49864,-13.97389 -16.71111,-13.84926 z m -0.0247,64.43077 c 0.009,0 0.0161,0 0.0247,0 10.52979,6.2e-4 20.7066,1.81885 30.21577,5.1564 a 24.945665,24.945665 0 0 0 11.36033,14.29995 24.945665,24.945665 0 0 0 18.02308,2.68379 c 14.97435,12.86918 25.83917,30.56619 30.01682,51.03223 1.05275,5.15547 -2.88689,9.98037 -8.14877,9.97991 h -25.73333 c -3.67793,3e-4 -6.91925,-2.41542 -7.97011,-5.94004 -6.30727,-21.15533 -25.67034,-35.60188 -47.74348,-35.63209 -3.87805,0.0231 -7.74203,0.48943 -11.51058,1.40479 -3.58649,0.87103 -7.31797,-0.72606 -9.16381,-3.92203 l -12.84635,-22.24565 c -2.62534,-4.54973 -0.42715,-10.36367 4.55145,-12.03846 9.32275,-3.138 19.08793,-4.75174 28.92462,-4.7788 z m -54.68639,20.98708 c 2.82946,0.13258 5.39687,1.69629 6.81295,4.14948 l 12.84637,22.24557 c 1.84068,3.1878 1.36667,7.20648 -1.16527,9.8784 -8.75766,9.24367 -13.64865,21.47782 -13.67463,34.21104 0.0147,12.74031 4.89641,24.98595 13.65434,34.23933 2.52997,2.67131 3.00392,6.68752 1.16527,9.8743 l -12.80978,22.19287 c -2.62941,4.55474 -8.77347,5.55557 -12.71239,2.07066 -15.29633,-13.52679 -25.47383,-31.67755 -29.2332,-51.43011 a 24.945665,24.945665 0 0 0 6.67491,-16.95113 24.945665,24.945665 0 0 0 -6.67897,-16.94312 c 3.75118,-19.76142 13.92239,-37.9225 29.22103,-51.45854 1.62101,-1.43424 3.73735,-2.18003 5.89941,-2.07875 z m 110.46489,78.79562 h 25.62811 c 5.26184,-5.4e-4 9.20152,4.82443 8.14874,9.9799 -4.17513,20.45394 -15.03024,38.14394 -29.99246,51.01197 a 24.945665,24.945665 0 0 0 -6.07806,-0.62972 24.945665,24.945665 0 0 0 -11.88411,3.33331 24.945665,24.945665 0 0 0 -11.33598,14.26333 c -9.51181,3.35205 -19.69497,5.18162 -30.23199,5.19302 -0.0122,0 -0.0262,0 -0.0409,0 -9.83244,-0.0385 -19.59308,-1.66455 -28.9084,-4.81132 -4.97276,-1.67888 -7.16584,-7.48789 -4.54332,-12.0343 l 12.82606,-22.21722 c 1.84584,-3.19605 5.57729,-4.79305 9.16379,-3.92216 3.77099,0.91611 7.63812,1.38405 11.5187,1.40486 22.07964,-0.0231 41.45058,-14.47053 47.75975,-35.63202 1.05085,-3.52462 4.29215,-5.94034 7.97008,-5.94004 z"
           style="color:#000000;display:inline;overflow:visible;visibility:visible;opacity:1;fill:url(#linearGradient955);fill-opacity:1;fill-rule:nonzero;stroke:none;stroke-width:33.42370224;stroke-linecap:butt;stroke-linejoin:miter;stroke-miterlimit:4;stroke-dasharray:none;stroke-dashoffset:0;stroke-opacity:1;marker:none;enable-background:accumulate"
           inkscape:connector-curvature="0" />
        <path
           id="path4451"
           d="m 236.36414,157.69294 c -51.15742,0 -94.01307,35.59386 -105.21515,83.34704 a 24.945665,24.945665 0 0 1 15.38397,7.80775 c 3.75118,-19.76142 13.92239,-37.9225 29.22103,-51.45854 1.621,-1.43424 3.73735,-2.18003 5.89941,-2.07875 2.82945,0.13258 5.39686,1.69629 6.81295,4.14948 l 12.84637,22.24557 c 1.84068,3.1878 1.36667,7.20648 -1.16528,9.8784 -8.75765,9.24367 -13.64864,21.47782 -13.67463,34.21104 0.0147,12.74031 4.89642,24.98595 13.65434,34.23933 2.52998,2.67131 3.00392,6.68752 1.16527,9.8743 l -12.80982,22.19287 c -2.6294,4.55474 -8.77346,5.55557 -12.71238,2.07066 -15.29633,-13.52679 -25.47384,-31.67755 -29.23321,-51.43011 a 24.945665,24.945665 0 0 1 -15.38397,7.80774 c 11.20522,47.74895 54.05675,83.33897 105.2111,83.33897 10.84224,0 21.30577,-1.61422 31.18208,-4.58798 a 24.945665,24.945665 0 0 1 -0.94196,-17.23547 c -9.51181,3.35205 -19.69496,5.18161 -30.23199,5.19301 -0.0122,0 -0.0262,0 -0.0409,0 -9.83244,-0.0385 -19.59308,-1.66454 -28.90841,-4.81131 -4.97275,-1.67888 -7.16583,-7.48789 -4.54331,-12.03431 l 12.82606,-22.21722 c 1.84584,-3.19604 5.57729,-4.79304 9.16379,-3.92218 3.77099,0.91614 7.63811,1.38406 11.5187,1.40488 22.07964,-0.023 41.45058,-14.47052 47.75975,-35.63202 1.05086,-3.52462 4.29215,-5.94034 7.97008,-5.94003 h 25.62778 c 5.26187,-5.4e-4 9.20154,4.82443 8.14877,9.9799 -4.17514,20.45394 -15.03025,38.14394 -29.99247,51.01197 a 24.945665,24.945665 0 0 1 14.49481,9.40329 c 20.95562,-19.71872 34.06472,-47.6825 34.06472,-78.71037 0,-31.03412 -13.11397,-59.0033 -34.07697,-78.72263 a 24.945665,24.945665 0 0 1 -14.42172,9.39528 c 14.97437,12.86918 25.83917,30.56619 30.01683,51.03223 1.05276,5.15547 -2.8869,9.98037 -8.14877,9.97991 h -25.73333 c -3.67795,3e-4 -6.91925,-2.41542 -7.97012,-5.94004 -6.30728,-21.15533 -25.67032,-35.60188 -47.74348,-35.63209 -3.87805,0.0231 -7.74203,0.48943 -11.51057,1.40479 -3.5865,0.87103 -7.31797,-0.72606 -9.16381,-3.92203 l -12.8463,-22.24565 c -2.62535,-4.54973 -0.42716,-10.36367 4.55144,-12.03846 9.32275,-3.138 19.08794,-4.75174 28.92462,-4.7788 0.009,0 0.0161,0 0.0247,0 10.5298,6.2e-4 20.70661,1.81885 30.21575,5.1564 a 24.945665,24.945665 0 0 1 0.95413,-17.20287 c -9.87263,-2.97144 -20.33207,-4.58395 -31.16984,-4.58395 z m 0,74.83698 a 33.260883,33.260883 0 0 1 33.26089,33.26093 33.260883,33.260883 0 0 1 -33.26089,33.26085 33.260883,33.260883 0 0 1 -33.26089,-33.26085 33.260883,33.260883 0 0 1 33.26089,-33.26093 z"
           style="color:#000000;display:inline;overflow:visible;visibility:visible;opacity:0.1;fill:#000000;fill-opacity:1;fill-rule:nonzero;stroke:none;stroke-width:8.18305683;stroke-linecap:butt;stroke-linejoin:miter;stroke-miterlimit:4;stroke-dasharray:24.54917201, 24.54917201;stroke-dashoffset:0;stroke-opacity:1;marker:none;enable-background:accumulate"
           inkscape:connector-curvature="0" />
        <path
           id="circle1245"
           d="m 289.82435,159.71488 a 12.472832,12.472832 0 0 0 -10.2113,6.22421 12.472832,12.472832 0 0 0 4.5636,17.03654 12.472832,12.472832 0 0 0 17.03646,-4.56368 12.472832,12.472832 0 0 0 -4.56362,-17.04055 12.472832,12.472832 0 0 0 -6.82514,-1.65652 z m -161.55808,93.60311 a 12.472832,12.472832 0 0 0 -12.47283,12.47286 12.472832,12.472832 0 0 0 12.47283,12.47278 12.472832,12.472832 0 0 0 12.47282,-12.47278 12.472832,12.472832 0 0 0 -12.47282,-12.47286 z m 161.85448,93.61931 a 12.472832,12.472832 0 0 0 -5.9441,1.66876 12.472832,12.472832 0 0 0 -4.5636,17.03638 12.472832,12.472832 0 0 0 17.03644,4.56369 12.472832,12.472832 0 0 0 4.56362,-17.03646 12.472832,12.472832 0 0 0 -11.09236,-6.23237 z"
           style="display:inline;opacity:1;fill:#b3b3b3;fill-opacity:1;stroke:none;stroke-width:6.23641586;stroke-linecap:round;stroke-linejoin:round;stroke-miterlimit:4;stroke-dasharray:none;stroke-dashoffset:0;stroke-opacity:1;enable-background:new"
           inkscape:connector-curvature="0" />
      </g>
    </g>
  </g>
</svg>
