<?xml version="1.0" standalone="no"?><!-- Generator: Gravit.io --><svg xmlns="http://www.w3.org/2000/svg" xmlns:xlink="http://www.w3.org/1999/xlink" style="isolation:isolate" viewBox="0 0 256 256" width="256" height="256"><path d=" M 165.685 11.947 C 239.74 11.947 250.324 22.504 250.324 96.491 L 250.324 155.742 C 250.324 229.728 239.74 240.285 165.685 240.285 L 90.315 240.285 C 16.26 240.285 5.676 229.728 5.676 155.742 L 5.676 96.491 C 5.676 22.504 16.26 11.947 90.315 11.947 L 165.685 11.947 Z " id="shape" fill="rgb(200,185,183)"/><g opacity="0.4"><linearGradient id="_lgradient_19" x1="0.5166666666666668" y1="0" x2="0.5166666666666666" y2="1.0000000000000002"><stop offset="0%" stop-opacity="1" style="stop-color:rgb(255,255,255)"/><stop offset="12.5%" stop-opacity="0.09803922" style="stop-color:rgb(255,255,255)"/><stop offset="92.500001%" stop-opacity="0.09803922" style="stop-color:rgb(0,0,0)"/><stop offset="100%" stop-opacity="0.49803922" style="stop-color:rgb(0,0,0)"/></linearGradient><path d=" M 165.685 11.947 C 239.74 11.947 250.324 22.504 250.324 96.491 L 250.324 155.742 C 250.324 229.728 239.74 240.285 165.685 240.285 L 90.315 240.285 C 16.26 240.285 5.676 229.728 5.676 155.742 L 5.676 96.491 C 5.676 22.504 16.26 11.947 90.315 11.947 L 165.685 11.947 Z " id="highlight" fill="none" vector-effect="non-scaling-stroke" stroke-width="4.077" stroke="url(#_lgradient_19)" stroke-linejoin="round" stroke-linecap="round" stroke-miterlimit="4"/></g><g opacity="0.1"><path d=" M 5.676 126.116 L 5.676 155.742 C 5.676 229.728 16.26 240.285 90.315 240.285 L 165.685 240.285 C 239.74 240.285 250.324 229.728 250.324 155.742 L 250.324 126.116 L 5.676 126.116 Z " id="bottom glass" fill="rgb(255,255,255)"/></g><g id="Group"><defs><filter id="BkfAtOEvmKwNkOr3Wk1EBRiPE7sZYHLG" x="41.867" y="41.333" width="172.266" height="172.266" filterUnits="userSpaceOnUse"><feGaussianBlur xmlns="http://www.w3.org/2000/svg" stdDeviation="1.7599997999999997"/></filter></defs><g opacity="0.1" filter="url(#BkfAtOEvmKwNkOr3Wk1EBRiPE7sZYHLG)"><circle vector-effect="non-scaling-stroke" cx="0" cy="0" r="1" transform="matrix(0,-82.034,-82.034,0,128,127.466)" id="circle4305" fill="rgb(0,0,0)" fill-opacity="0.99607843"/></g><defs><filter id="q2BgpnbCfjqMoietBDMvpdrWTdNjGbQ7" x="13.173" y="12.639" width="229.654" height="229.654" filterUnits="userSpaceOnUse"><feGaussianBlur xmlns="http://www.w3.org/2000/svg" stdDeviation="14.079999000000003"/></filter></defs><g opacity="0.4" filter="url(#q2BgpnbCfjqMoietBDMvpdrWTdNjGbQ7)"><linearGradient id="_lgradient_20" x1="2.8409093966175192e-8" y1="0.4999999999999999" x2="1.0000000113636376" y2="0.4999999999999999" gradientTransform="matrix(2,0,0,2,-1,-1)" gradientUnits="userSpaceOnUse"><stop offset="0%" stop-opacity="0" style="stop-color:rgb(0,0,0)"/><stop offset="49.903455%" stop-opacity="1" style="stop-color:rgb(0,0,0)"/><stop offset="100%" stop-opacity="0" style="stop-color:rgb(0,0,0)"/></linearGradient><circle vector-effect="non-scaling-stroke" cx="0" cy="0" r="1" transform="matrix(0,-82.034,-82.034,0,128,127.466)" id="circle4345" fill="url(#_lgradient_20)"/></g><circle vector-effect="non-scaling-stroke" cx="0" cy="0" r="1" transform="matrix(0,-82.034,-82.034,0,128,126.534)" id="path4389-5" fill="rgb(247,247,247)"/><circle vector-effect="non-scaling-stroke" cx="0" cy="0" r="1" transform="matrix(0,-74.576,-74.576,0,128,127.466)" id="circle4191" fill="rgb(255,255,255)"/><circle vector-effect="non-scaling-stroke" cx="0" cy="0" r="1" transform="matrix(0,-74.576,-74.576,0,128,126.534)" id="circle4371" fill="rgb(254,152,2)"/><path d=" M 128 44.5 C 82.694 44.5 45.966 81.228 45.966 126.534 C 45.978 126.792 45.99 127.05 46.004 127.308 C 46.601 82.443 83.131 46.381 128 46.364 C 172.991 46.383 209.571 82.636 209.996 127.625 C 210.011 127.261 210.024 126.898 210.034 126.534 C 210.034 81.228 173.306 44.5 128 44.5 L 128 44.5 Z " id="circle1021" fill="rgb(255,255,255)"/><path d=" M 126.805 85.859 C 125.695 85.847 124.59 85.88 123.49 85.955 L 123.49 85.956 C 110.295 86.881 98.019 94.24 91.13 106.173 L 96.544 109.296 C 104.33 95.809 120.164 89.25 135.206 93.281 C 146.586 96.329 155.326 104.855 158.909 115.568 L 147.148 120.096 C 150.907 123.651 154.91 127.202 159.157 130.752 C 163.391 134.256 167.618 137.58 171.837 140.723 C 172.91 135.542 173.841 130.231 174.632 124.792 C 175.4 119.313 175.962 114.006 176.312 108.87 L 164.744 113.322 C 160.446 100.793 150.155 90.814 136.826 87.243 C 133.499 86.351 130.135 85.899 126.805 85.859 L 126.805 85.859 Z  M 80.787 112.234 C 79.713 117.415 78.782 122.727 77.991 128.166 C 77.223 133.645 76.661 138.952 76.312 144.088 L 87.877 139.636 C 92.174 152.167 102.466 162.147 115.796 165.718 C 120.233 166.907 124.734 167.311 129.132 167.002 C 142.327 166.077 154.606 158.721 161.495 146.789 L 156.079 143.665 C 148.293 157.152 132.458 163.711 117.416 159.681 C 106.035 156.632 97.296 148.104 93.713 137.389 L 105.475 132.862 C 101.715 129.307 97.713 125.755 93.467 122.205 C 89.232 118.701 85.006 115.377 80.787 112.234 Z " id="rotating arrows" fill="rgb(255,255,255)"/></g></svg>