<svg xmlns="http://www.w3.org/2000/svg" style="isolation:isolate" width="256" height="256"><switch><g><defs><filter id="a" width="270.648" height="254.338" x="-7.32" y="2.95" filterUnits="userSpaceOnUse"><feGaussianBlur xmlns="http://www.w3.org/2000/svg" in="SourceGraphic" stdDeviation="4.294"/><feOffset xmlns="http://www.w3.org/2000/svg" dy="4" result="pf_100_offsetBlur"/><feFlood xmlns="http://www.w3.org/2000/svg" flood-opacity=".4"/><feComposite xmlns="http://www.w3.org/2000/svg" in2="pf_100_offsetBlur" operator="in" result="pf_100_dropShadow"/><feBlend xmlns="http://www.w3.org/2000/svg" in="SourceGraphic" in2="pf_100_dropShadow"/></filter></defs><path fill="#F7F7F7" d="M165.689 11.95c74.056 0 84.639 10.557 84.639 84.544v59.251c0 73.986-10.583 84.543-84.639 84.543h-75.37c-74.055 0-84.639-10.557-84.639-84.543V96.494c0-73.987 10.584-84.544 84.639-84.544h75.37z" filter="url(#a)"/><g opacity=".4"><linearGradient id="b" x1=".517" x2=".517" y2="1"><stop offset="0%" stop-color="#fff"/><stop offset="12.5%" stop-opacity=".098" stop-color="#fff"/><stop offset="92.5%" stop-opacity=".098"/><stop offset="100%" stop-opacity=".498"/></linearGradient><path fill="none" stroke="url(#b)" stroke-linecap="round" stroke-linejoin="round" stroke-width="4.077" d="M165.685 11.947c74.055 0 84.639 10.557 84.639 84.544v59.251c0 73.986-10.584 84.543-84.639 84.543h-75.37c-74.055 0-84.639-10.557-84.639-84.543V96.491c0-73.987 10.584-84.544 84.639-84.544h75.37z" vector-effect="non-scaling-stroke"/></g><path fill="#1450F5" fill-opacity=".3" d="M128 65.5c-40.041 0-72.5 23.216-72.5 51.855 0 28.639 32.459 51.856 72.5 51.856s72.5-23.217 72.5-51.856c0-28.639-32.459-51.855-72.5-51.855zm12.083 18.302c30.031 0 54.375 15.022 54.375 33.553s-24.344 33.554-54.375 33.554c-30.03 0-54.375-15.023-54.375-33.554 0-18.531 24.345-33.553 54.375-33.553z"/><path fill="#3B3B3B" d="M115.709 89.868h26.392v32.276l27.674-32.276h35.073l-31.111 32.218 32.509 53.192h-32.509l-18.003-35.131-13.633 14.274v20.857h-26.392v-85.41z"/></g></switch> </svg>