<svg xmlns="http://www.w3.org/2000/svg" style="isolation:isolate" width="256" height="256"><defs><filter id="a" width="270.648" height="254.338" x="-7.32" y="2.95" filterUnits="userSpaceOnUse"><feGaussianBlur xmlns="http://www.w3.org/2000/svg" in="SourceGraphic" stdDeviation="4.294"/><feOffset xmlns="http://www.w3.org/2000/svg" dy="4" result="pf_100_offsetBlur"/><feFlood xmlns="http://www.w3.org/2000/svg" flood-opacity=".4"/><feComposite xmlns="http://www.w3.org/2000/svg" in2="pf_100_offsetBlur" operator="in" result="pf_100_dropShadow"/><feBlend xmlns="http://www.w3.org/2000/svg" in="SourceGraphic" in2="pf_100_dropShadow"/></filter></defs><g filter="url(#a)"><linearGradient id="b" x1=".5" x2=".5" y1="-.036" y2=".902" gradientTransform="matrix(244.648 0 0 228.338 5.68 11.95)" gradientUnits="userSpaceOnUse"><stop offset="0%" stop-color="#da1636"/><stop offset="100%" stop-color="#f22c42"/></linearGradient><path fill="url(#b)" d="M165.689 11.95c74.056 0 84.639 10.557 84.639 84.544v59.251c0 73.986-10.583 84.543-84.639 84.543h-75.37c-74.055 0-84.639-10.557-84.639-84.543V96.494c0-73.987 10.584-84.544 84.639-84.544h75.37z"/></g><path fill="#F9F9F9" d="M90.5 12.125l15.928 58.941c1.181 4.408 1.854 6.828-3.304 12.977-.876 1.044-1.73 2.093-2.41 3.273-2.723 4.716-3.651 10.459-2.13 16.135 3.041 11.351 14.716 18.096 26.068 15.055 11.351-3.042 18.086-14.717 15.044-26.068-1.521-5.677-5.206-10.192-9.922-12.914-1.179-.681-2.439-1.155-3.719-1.621-7.542-2.746-8.17-5.183-9.351-9.59l-15.089-56.31-11.115.122zm159.85 78.203l-65.24 17.475c-4.408 1.182-6.818 1.865-12.966-3.293-1.044-.876-2.094-1.74-3.273-2.421a21.214 21.214 0 0 0-16.146-2.129c-11.351 3.041-18.086 14.716-15.044 26.068 3.041 11.351 14.706 18.086 26.057 15.043a21.197 21.197 0 0 0 12.915-9.911c.68-1.179 1.165-2.449 1.631-3.731 2.746-7.541 5.171-8.169 9.579-9.35l62.484-16.738V90.328h.003zM95.321 115.793a21.407 21.407 0 0 0-4.26.696 21.201 21.201 0 0 0-12.914 9.911c-.681 1.18-1.165 2.451-1.631 3.731-2.746 7.542-5.171 8.16-9.58 9.341L5.65 155.898v11.013l64.042-17.164c4.408-1.181 6.828-1.855 12.977 3.304 1.044.876 2.084 1.729 3.263 2.41a21.217 21.217 0 0 0 16.145 2.131c11.352-3.042 18.087-14.707 15.045-26.058-2.662-9.932-11.919-16.334-21.798-15.741h-.003zm39.087 22.567a21.29 21.29 0 0 0-4.249.696c-11.352 3.041-18.097 14.707-15.055 26.058a21.235 21.235 0 0 0 9.922 12.925c1.179.68 2.449 1.153 3.73 1.62 7.541 2.746 8.159 5.182 9.34 9.589l13.619 50.853 10.91.024-14.253-53.632c-1.181-4.409-1.854-6.829 3.304-12.978.876-1.043 1.73-2.092 2.41-3.272a21.21 21.21 0 0 0 2.13-16.146c-2.661-9.933-11.928-16.334-21.808-15.74v.003z"/><g opacity=".4"><linearGradient id="c" x1=".517" x2=".517" y2="1"><stop offset="0%" stop-color="#fff"/><stop offset="12.5%" stop-opacity=".098" stop-color="#fff"/><stop offset="92.5%" stop-opacity=".098"/><stop offset="100%" stop-opacity=".498"/></linearGradient><path fill="none" stroke="url(#c)" stroke-linecap="round" stroke-linejoin="round" stroke-width="4.077" d="M165.685 11.947c74.055 0 84.639 10.557 84.639 84.544v59.251c0 73.986-10.584 84.543-84.639 84.543h-75.37c-74.055 0-84.639-10.557-84.639-84.543V96.491c0-73.987 10.584-84.544 84.639-84.544h75.37z" vector-effect="non-scaling-stroke"/></g></svg>