<?xml version="1.0" standalone="no"?>
<!--Generator: Gravit.io-->
<svg xmlns="http://www.w3.org/2000/svg" xmlns:xlink="http://www.w3.org/1999/xlink" width="256" height="256" style="isolation:isolate" viewBox="0 0 256 256">
    <defs>
        <clipPath id="_clipPath_MRqmV65mpqMEWycKjyAhv3jncXwZHyRw">
            <rect width="256" height="256"/>
        </clipPath>
    </defs>
    <g clip-path="url(#_clipPath_MRqmV65mpqMEWycKjyAhv3jncXwZHyRw)">
        <rect width="256" height="256" style="fill:rgba(0,0,0,0)"/>
        <g id="icon">
            <g id="drop shadow">
                <defs>
                    <filter id="HJiagSuwZnWGgWZc0d3ACB249XLyWJSJ" width="400%" height="400%" x="-200%" y="-200%">
                        <feGaussianBlur xmlns="http://www.w3.org/2000/svg" stdDeviation="2.32"/>
                    </filter>
                </defs>
                <g filter="url(#HJiagSuwZnWGgWZc0d3ACB249XLyWJSJ)" opacity="0.2">
                    <path fill="rgb(0,0,0)" d=" M 165.352 16.516 C 239.408 16.516 249.992 27.073 249.992 101.06 L 249.992 160.312 C 249.992 234.298 239.408 244.856 165.352 244.856 L 89.982 244.856 C 15.925 244.856 5.342 234.298 5.342 160.312 L 5.342 101.06 C 5.342 27.073 15.925 16.516 89.982 16.516 L 165.352 16.516 Z "/>
                </g>
                <defs>
                    <filter id="gLK99n6xjoWTI5ZcVFiGZoK0XL5PkMJu" width="400%" height="400%" x="-200%" y="-200%">
                        <feGaussianBlur xmlns="http://www.w3.org/2000/svg" stdDeviation="1.16"/>
                    </filter>
                </defs>
                <g filter="url(#gLK99n6xjoWTI5ZcVFiGZoK0XL5PkMJu)" opacity="0.1">
                    <path fill="rgb(0,0,0)" d=" M 165.352 15.497 C 239.408 15.497 249.992 26.054 249.992 100.041 L 249.992 159.292 C 249.992 233.279 239.408 243.837 165.352 243.837 L 89.982 243.837 C 15.925 243.837 5.342 233.279 5.342 159.292 L 5.342 100.041 C 5.342 26.054 15.925 15.497 89.982 15.497 L 165.352 15.497 Z "/>
                </g>
            </g>
            <path fill="rgb(255,255,255)" d=" M 165.352 14.477 C 239.408 14.477 249.992 25.035 249.992 99.022 L 249.992 158.273 C 249.992 232.26 239.408 242.817 165.352 242.817 L 89.982 242.817 C 15.925 242.817 5.342 232.26 5.342 158.273 L 5.342 99.022 C 5.342 25.035 15.925 14.477 89.982 14.477 L 165.352 14.477 Z "/>
            <clipPath id="_clipPath_6jd9OtUBLegBz1fvYcEDt5JnrJrKQxTp">
                <path fill="rgb(255,255,255)" d=" M 165.352 14.477 C 239.408 14.477 249.992 25.035 249.992 99.022 L 249.992 158.273 C 249.992 232.26 239.408 242.817 165.352 242.817 L 89.982 242.817 C 15.925 242.817 5.342 232.26 5.342 158.273 L 5.342 99.022 C 5.342 25.035 15.925 14.477 89.982 14.477 L 165.352 14.477 Z "/>
            </clipPath>
            <g clip-path="url(#_clipPath_6jd9OtUBLegBz1fvYcEDt5JnrJrKQxTp)">
                <path fill="rgb(188,25,56)" d=" M 165.352 14.477 C 239.408 14.477 249.992 25.035 249.992 99.022 L 249.992 158.273 C 249.992 232.26 239.408 242.817 165.352 242.817 L 89.982 242.817 C 15.925 242.817 5.342 232.26 5.342 158.273 L 5.342 99.022 C 5.342 25.035 15.925 14.477 89.982 14.477 L 165.352 14.477 Z "/>
                <g opacity="0.1">
                    <path fill="rgb(255,255,255)" d=" M 90.983 242.982 C 16.927 242.982 6.343 232.425 6.343 158.439 L 6.343 128.813 L 250.992 128.813 L 250.992 158.439 C 250.992 232.425 240.408 242.982 166.352 242.982 L 90.983 242.982 Z "/>
                </g>
                <g opacity="0.1">
                    <path fill="rgb(255,255,255)" d=" M 128.667 14.644 L 128.667 242.982 L 166.352 242.982 C 240.408 242.982 250.992 232.425 250.992 158.439 L 250.992 99.188 C 250.992 25.201 240.408 14.644 166.352 14.644 L 128.667 14.644 Z "/>
                </g>
                <path fill="rgb(249,249,249)" d=" M 88.568 6.298 L 106.095 71.713 C 107.276 76.121 107.949 78.541 102.791 84.69 C 101.915 85.734 101.061 86.784 100.381 87.963 C 97.658 92.679 96.73 98.423 98.251 104.098 C 101.292 115.449 112.967 122.194 124.319 119.153 C 135.67 116.111 142.405 104.436 139.363 93.085 C 137.842 87.409 134.157 82.893 129.441 80.171 C 128.262 79.49 127.002 79.016 125.722 78.55 C 118.18 75.804 117.552 73.368 116.371 68.96 L 99.581 6.301 L 88.568 6.301 L 88.568 6.298 Z  M 250.017 90.975 L 184.777 108.451 C 180.369 109.632 177.959 110.315 171.811 105.157 C 170.767 104.281 169.717 103.417 168.538 102.736 C 163.822 100.014 158.068 99.086 152.392 100.607 C 141.041 103.648 134.306 115.323 137.348 126.675 C 140.389 138.026 152.054 144.761 163.405 141.719 C 169.081 140.198 173.597 136.523 176.32 131.807 C 177 130.628 177.485 129.358 177.951 128.077 C 180.697 120.535 183.122 119.907 187.53 118.726 L 250.014 101.988 L 250.014 90.975 L 250.017 90.975 Z  M 94.988 116.44 C 93.577 116.525 92.147 116.756 90.728 117.136 C 85.053 118.657 80.537 122.332 77.814 127.048 C 77.133 128.227 76.649 129.498 76.183 130.778 C 73.437 138.32 71.012 138.938 66.603 140.119 L 5.317 156.545 L 5.317 167.558 L 69.359 150.394 C 73.767 149.213 76.187 148.54 82.336 153.698 C 83.38 154.574 84.42 155.428 85.599 156.109 C 90.315 158.831 96.069 159.759 101.744 158.239 C 113.096 155.197 119.831 143.532 116.789 132.181 C 114.127 122.249 104.87 115.847 94.991 116.44 L 94.988 116.44 Z  M 134.075 139.007 C 132.664 139.092 131.244 139.323 129.826 139.703 C 118.474 142.745 111.729 154.41 114.771 165.761 C 116.291 171.436 119.977 175.962 124.693 178.686 C 125.872 179.366 127.142 179.84 128.423 180.306 C 135.964 183.052 136.582 185.488 137.763 189.896 L 154.127 250.997 L 165.151 250.997 L 148.039 187.14 C 146.858 182.732 146.185 180.312 151.343 174.163 C 152.219 173.119 153.073 172.07 153.753 170.89 C 156.476 166.174 157.404 160.42 155.883 154.745 C 153.222 144.812 143.955 138.411 134.075 139.004 L 134.075 139.007 Z "/>
            </g>
            <g id="highlight">
                <clipPath id="_clipPath_AY9kfPYd3jqrc1unA9EygnObThAiRnmm">
                    <path fill="rgb(255,255,255)" d=" M 165.352 14.477 C 239.408 14.477 249.992 25.035 249.992 99.022 L 249.992 158.273 C 249.992 232.26 239.408 242.817 165.352 242.817 L 89.982 242.817 C 15.925 242.817 5.342 232.26 5.342 158.273 L 5.342 99.022 C 5.342 25.035 15.925 14.477 89.982 14.477 L 165.352 14.477 Z "/>
                </clipPath>
                <g clip-path="url(#_clipPath_AY9kfPYd3jqrc1unA9EygnObThAiRnmm)">
                    <g opacity="0.4">
                        <linearGradient id="_lgradient_0" x1="51.666666666666686%" x2="51.66666666666666%" y1="0%" y2="100.00000000000003%">
                            <stop offset="0%" stop-opacity="1" style="stop-color:rgb(255,255,255)"/>
                            <stop offset="12.5%" stop-opacity="0.09803922" style="stop-color:rgb(255,255,255)"/>
                            <stop offset="92.500001%" stop-opacity="0.09803922" style="stop-color:rgb(0,0,0)"/>
                            <stop offset="100%" stop-opacity="0.49803922" style="stop-color:rgb(0,0,0)"/>
                        </linearGradient>
                        <path fill="none" stroke="url(#_lgradient_0)" stroke-linecap="round" stroke-linejoin="round" stroke-miterlimit="4" stroke-width="4" d=" M 165.352 14.477 C 239.408 14.477 249.992 25.035 249.992 99.022 L 249.992 158.273 C 249.992 232.26 239.408 242.817 165.352 242.817 L 89.982 242.817 C 15.925 242.817 5.342 232.26 5.342 158.273 L 5.342 99.022 C 5.342 25.035 15.925 14.477 89.982 14.477 L 165.352 14.477 Z " vector-effect="non-scaling-stroke"/>
                    </g>
                </g>
            </g>
        </g>
    </g>
</svg>
