<svg xmlns="http://www.w3.org/2000/svg" style="isolation:isolate" width="256" height="256"><defs><filter id="a" width="270.648" height="254.338" x="-7.32" y="2.95" filterUnits="userSpaceOnUse"><feGaussianBlur xmlns="http://www.w3.org/2000/svg" in="SourceGraphic" stdDeviation="4.294"/><feOffset xmlns="http://www.w3.org/2000/svg" dy="4" result="pf_100_offsetBlur"/><feFlood xmlns="http://www.w3.org/2000/svg" flood-opacity=".4"/><feComposite xmlns="http://www.w3.org/2000/svg" in2="pf_100_offsetBlur" operator="in" result="pf_100_dropShadow"/><feBlend xmlns="http://www.w3.org/2000/svg" in="SourceGraphic" in2="pf_100_dropShadow"/></filter></defs><g filter="url(#a)"><linearGradient id="b" x1="1.003" x2=".003" y1=".01" y2=".93" gradientTransform="matrix(244.648 0 0 228.338 5.68 11.95)" gradientUnits="userSpaceOnUse"><stop offset="0%" stop-color="#d446ff"/><stop offset="100%" stop-color="#a0d8ff"/></linearGradient><path fill="url(#b)" d="M165.689 11.95c74.056 0 84.639 10.557 84.639 84.544v59.251c0 73.986-10.583 84.543-84.639 84.543h-75.37c-74.055 0-84.639-10.557-84.639-84.543V96.494c0-73.987 10.584-84.544 84.639-84.544h75.37z"/></g><g opacity=".4"><linearGradient id="c" x1=".517" x2=".517" y2="1"><stop offset="0%" stop-color="#fff"/><stop offset="12.5%" stop-opacity=".098" stop-color="#fff"/><stop offset="92.5%" stop-opacity=".098"/><stop offset="100%" stop-opacity=".498"/></linearGradient><path fill="none" stroke="url(#c)" stroke-linecap="round" stroke-linejoin="round" stroke-width="4.077" d="M165.685 11.947c74.055 0 84.639 10.557 84.639 84.544v59.251c0 73.986-10.584 84.543-84.639 84.543h-75.37c-74.055 0-84.639-10.557-84.639-84.543V96.491c0-73.987 10.584-84.544 84.639-84.544h75.37z" vector-effect="non-scaling-stroke"/></g><defs><filter id="d" width="175.002" height="175" x="40" y="40" filterUnits="userSpaceOnUse"><feGaussianBlur xmlns="http://www.w3.org/2000/svg" stdDeviation="2.147"/></filter></defs><path fill="#1A2A2E" d="M100.554 45.007c-3.439 0-6.218 2.764-6.218 6.177 0 1.343.51 2.574 1.243 3.587L80.033 72.507c-.622-.168-1.193-.398-1.866-.398-4.182 0-7.67 3.422-7.67 7.572 0 .168.199.245.207.398l-13.681 8.968c-1.009-.698-2.202-1.195-3.524-1.195-3.439 0-6.219 2.765-6.219 6.178 0 2.08 1.107 3.862 2.695 4.982l-2.488 46.232c-1.515.82-2.487 2.548-2.487 4.383 0 2.675 2.279 4.782 4.975 4.782.144 0 .275.014.414 0l33.996 34.475c-.004.072 0 .12 0 .192 0 2.676 2.071 4.982 4.767 4.982.956 0 1.942-.326 2.695-.796l18.656 9.764c-.039.278-.207.509-.207.797 0 3.413 2.78 6.177 6.219 6.177 3.22 0 5.687-2.469 6.011-5.58l49.749-14.539c1.13 1.564 3.096 2.59 5.182 2.59 3.439 0 6.219-2.764 6.219-6.177 0-1.444-.616-2.735-1.451-3.787l21.558-47.228c3.439 0 6.219-2.764 6.219-6.178 0-2.995-2.126-5.411-4.975-5.978l-6.841-22.518c1.073-.888 1.866-2.092 1.866-3.587 0-2.676-2.28-4.783-4.975-4.783-.23 0-.4.168-.622.192l-31.3-37.862c.045-.259.206-.528.206-.797 0-2.675-2.279-4.782-4.975-4.782-1.605 0-2.842.806-3.731 1.993l-48.298-1.794c-.849-2.411-3.086-4.185-5.804-4.185l.001.007zm5.804 8.369l47.469 1.794a4.681 4.681 0 0 0 1.866 2.591l-1.244 5.381c-2.221.515-3.985 2.002-4.975 3.985l-53.066 6.377 3.524-16.341c.233.025.381.192.622.192 2.649 0 4.905-1.671 5.804-3.985v.006zm54.102 4.783l30.471 36.866c-.319.645-.622 1.226-.622 1.993 0 1.339.568 2.511 1.452 3.388l-2.488 6.975-26.533-33.479c.583-1.065 1.037-2.29 1.037-3.587 0-3.249-2.067-5.925-4.975-6.974l1.036-4.982c.214-.072.423-.096.622-.192v-.008zm-63.015.995l-3.317 14.548-10.157 1.194c-.057-.072-.144-.12-.206-.192l13.681-15.543-.001-.007zm52.236 16.54l-15.339 59.385c-.48.12-1.001.215-1.451.398L93.506 91.038l18.449-1.993c.828 1.504 2.504 2.59 4.353 2.59 2.696 0 4.768-2.305 4.768-4.981 0-.37-.127-.65-.207-.996l26.533-9.764 2.28-.192-.001-.008zm-11.401 1.195l-18.448 6.775c-.895-1.065-2.017-1.794-3.524-1.794-2.696 0-4.975 2.109-4.975 4.783 0 .072-.002.143 0 .192l-18.241 2.192 1.451-7.174 43.737-4.982v.008zm19.693.995l28.813 36.667-6.012 16.739-36.068 8.37c-.532-.974-1.241-1.665-2.072-2.392l15.339-59.384zm-65.918 4.384l-1.243 5.779-4.561-5.181 5.804-.597v-.001zm-19.692 1.994c.368.443.784.846 1.244 1.194l-1.037 5.779-13.059 1.595c-.012-.072.013-.144 0-.192l12.852-8.376zm5.39 2.789c.141.007.271 0 .414 0 .142 0 .274.007.414 0l2.903 3.189-4.354.597.622-3.786h.001zm5.596 5.182l5.39 5.978-2.488 10.96c-2.593.12-4.56 2.18-4.56 4.783 0 1.508.775 2.698 1.866 3.587l-16.376 24.71 9.535-49.221 6.633-.797zm-11.193 1.194l-10.365 53.605c-1.837.365-3.28 1.602-4.145 3.189l-2.902-.598c0-2.007-1.15-3.848-2.902-4.583l2.487-45.036c2.754-.377 4.804-2.448 5.182-5.182l12.645-1.396v.001zm18.241 6.975l36.897 41.25c-.072.257-.158.532-.206.796l-59.699 6.377c-.385-.384-.768-.724-1.243-.998l19.07-29.293c.409.12.8.192 1.244.192 2.695 0 4.975-2.106 4.975-4.783 0-1.914-1.28-3.597-2.903-4.384l1.866-9.167-.001.01zm103.229 1.194c.13.048.281-.024.415 0l5.596 19.131-8.706-11.359 2.695-7.772zm-5.389 14.946l8.706 10.96-13.681 3.188 4.975-14.148zm9.328 17.137l-19.693 42.845.415-26.703c2.081-.422 3.731-2.195 3.731-4.384 0-1.775-1.196-3.242-2.695-3.986l1.451-3.786 16.79-3.986h.001zm-19.071 4.584l-1.036 2.591c-2.523 0-4.561 2.079-4.561 4.583 0 2.092 1.377 3.861 3.317 4.384l-.622 30.489c-1.521.466-2.747 1.643-3.524 2.989l-27.154-5.978c0-2.675-2.28-4.782-4.975-4.782-2.625 0-4.864 2.005-4.975 4.583l-6.634 1.595 8.292-25.109c4.536-.096 8.333-3.471 9.121-7.772l32.751-7.572v-.001zm-50.371 10.362a9.864 9.864 0 0 0 2.28 2.79l-9.535 29.095-19.899 4.981-32.13-30.09c.046-.12.168-.274.209-.398l59.077-6.377-.002-.001zm-71.928 5.181l.829.192c.038.245-.067.562 0 .797l-.829-.996v.007zm4.975 4.983c.589.192 1.214.398 1.865.398.139 0 .277.007.415 0l27.154 25.308a5.771 5.771 0 0 0-1.451-.192c-.956 0-1.734.326-2.487.796L61.17 158.795v-.006zm74.208 20.326c.699 1.827 2.474 2.989 4.561 2.989 2.021 0 3.819-1.051 4.56-2.79l23.631 5.181-46.018 13.352 5.597-16.939 7.669-1.793zm-15.132 3.786l-4.974 14.946c-.275.048-.57.12-.83.192l-11.815-10.961 17.619-4.177zm-24.874 5.978l3.109 2.989-4.353-2.391c.006-.12 0-.269 0-.398l1.244-.2z" opacity=".3" filter="url(#d)"/><path fill="#ECF0F1" d="M100.554 45.007c-3.439 0-6.218 2.764-6.218 6.177 0 1.343.51 2.574 1.243 3.587L80.033 72.507c-.622-.168-1.193-.398-1.866-.398-4.182 0-7.67 3.422-7.67 7.572 0 .168.199.245.207.398l-13.681 8.968c-1.009-.698-2.202-1.195-3.524-1.195-3.439 0-6.219 2.765-6.219 6.178 0 2.08 1.107 3.862 2.695 4.982l-2.488 46.232c-1.515.82-2.487 2.548-2.487 4.383 0 2.675 2.279 4.782 4.975 4.782.144 0 .275.014.414 0l33.996 34.475c-.004.072 0 .12 0 .192 0 2.676 2.071 4.982 4.767 4.982.956 0 1.942-.326 2.695-.796l18.656 9.764c-.039.278-.207.509-.207.797 0 3.413 2.78 6.177 6.219 6.177 3.22 0 5.687-2.469 6.011-5.58l49.749-14.539c1.13 1.564 3.096 2.59 5.182 2.59 3.439 0 6.219-2.764 6.219-6.177 0-1.444-.616-2.735-1.451-3.787l21.558-47.228c3.439 0 6.219-2.764 6.219-6.178 0-2.995-2.126-5.411-4.975-5.978l-6.841-22.518c1.073-.888 1.866-2.092 1.866-3.587 0-2.676-2.28-4.783-4.975-4.783-.23 0-.4.168-.622.192l-31.3-37.862c.045-.259.206-.528.206-.797 0-2.675-2.279-4.782-4.975-4.782-1.605 0-2.842.806-3.731 1.993l-48.298-1.794c-.849-2.411-3.086-4.185-5.804-4.185l.001.007zm5.804 8.369l47.469 1.794a4.681 4.681 0 0 0 1.866 2.591l-1.244 5.381c-2.221.515-3.985 2.002-4.975 3.985l-53.066 6.377 3.524-16.341c.233.025.381.192.622.192 2.649 0 4.905-1.671 5.804-3.985v.006zm54.102 4.783l30.471 36.866c-.319.645-.622 1.226-.622 1.993 0 1.339.568 2.511 1.452 3.388l-2.488 6.975-26.533-33.479c.583-1.065 1.037-2.29 1.037-3.587 0-3.249-2.067-5.925-4.975-6.974l1.036-4.982c.214-.072.423-.096.622-.192v-.008zm-63.015.995l-3.317 14.548-10.157 1.194c-.057-.072-.144-.12-.206-.192l13.681-15.543-.001-.007zm52.236 16.54l-15.339 59.385c-.48.12-1.001.215-1.451.398L93.506 91.038l18.449-1.993c.828 1.504 2.504 2.59 4.353 2.59 2.696 0 4.768-2.305 4.768-4.981 0-.37-.127-.65-.207-.996l26.533-9.764 2.28-.192-.001-.008zm-11.401 1.195l-18.448 6.775c-.895-1.065-2.017-1.794-3.524-1.794-2.696 0-4.975 2.109-4.975 4.783 0 .072-.002.143 0 .192l-18.241 2.192 1.451-7.174 43.737-4.982v.008zm19.693.995l28.813 36.667-6.012 16.739-36.068 8.37c-.532-.974-1.241-1.665-2.072-2.392l15.339-59.384zm-65.918 4.384l-1.243 5.779-4.561-5.181 5.804-.597v-.001zm-19.692 1.994c.368.443.784.846 1.244 1.194l-1.037 5.779-13.059 1.595c-.012-.072.013-.144 0-.192l12.852-8.376zm5.39 2.789c.141.007.271 0 .414 0 .142 0 .274.007.414 0l2.903 3.189-4.354.597.622-3.786h.001zm5.596 5.182l5.39 5.978-2.488 10.96c-2.593.12-4.56 2.18-4.56 4.783 0 1.508.775 2.698 1.866 3.587l-16.376 24.71 9.535-49.221 6.633-.797zm-11.193 1.194l-10.365 53.605c-1.837.365-3.28 1.602-4.145 3.189l-2.902-.598c0-2.007-1.15-3.848-2.902-4.583l2.487-45.036c2.754-.377 4.804-2.448 5.182-5.182l12.645-1.396v.001zm18.241 6.975l36.897 41.25c-.072.257-.158.532-.206.796l-59.699 6.377c-.385-.384-.768-.724-1.243-.998l19.07-29.293c.409.12.8.192 1.244.192 2.695 0 4.975-2.106 4.975-4.783 0-1.914-1.28-3.597-2.903-4.384l1.866-9.167-.001.01zm103.229 1.194c.13.048.281-.024.415 0l5.596 19.131-8.706-11.359 2.695-7.772zm-5.389 14.946l8.706 10.96-13.681 3.188 4.975-14.148zm9.328 17.137l-19.693 42.845.415-26.703c2.081-.422 3.731-2.195 3.731-4.384 0-1.775-1.196-3.242-2.695-3.986l1.451-3.786 16.79-3.986h.001zm-19.071 4.584l-1.036 2.591c-2.523 0-4.561 2.079-4.561 4.583 0 2.092 1.377 3.861 3.317 4.384l-.622 30.489c-1.521.466-2.747 1.643-3.524 2.989l-27.154-5.978c0-2.675-2.28-4.782-4.975-4.782-2.625 0-4.864 2.005-4.975 4.583l-6.634 1.595 8.292-25.109c4.536-.096 8.333-3.471 9.121-7.772l32.751-7.572v-.001zm-50.371 10.362a9.864 9.864 0 0 0 2.28 2.79l-9.535 29.095-19.899 4.981-32.13-30.09c.046-.12.168-.274.209-.398l59.077-6.377-.002-.001zm-71.928 5.181l.829.192c.038.245-.067.562 0 .797l-.829-.996v.007zm4.975 4.983c.589.192 1.214.398 1.865.398.139 0 .277.007.415 0l27.154 25.308a5.771 5.771 0 0 0-1.451-.192c-.956 0-1.734.326-2.487.796L61.17 158.795v-.006zm74.208 20.326c.699 1.827 2.474 2.989 4.561 2.989 2.021 0 3.819-1.051 4.56-2.79l23.631 5.181-46.018 13.352 5.597-16.939 7.669-1.793zm-15.132 3.786l-4.974 14.946c-.275.048-.57.12-.83.192l-11.815-10.961 17.619-4.177zm-24.874 5.978l3.109 2.989-4.353-2.391c.006-.12 0-.269 0-.398l1.244-.2z" opacity=".99"/></svg>