<svg xmlns="http://www.w3.org/2000/svg" style="isolation:isolate" width="256" height="256"><defs><filter id="a" width="270.648" height="254.338" x="-7.32" y="2.95" filterUnits="userSpaceOnUse"><feGaussianBlur xmlns="http://www.w3.org/2000/svg" in="SourceGraphic" stdDeviation="4.294"/><feOffset xmlns="http://www.w3.org/2000/svg" dy="4" result="pf_100_offsetBlur"/><feFlood xmlns="http://www.w3.org/2000/svg" flood-opacity=".4"/><feComposite xmlns="http://www.w3.org/2000/svg" in2="pf_100_offsetBlur" operator="in" result="pf_100_dropShadow"/><feBlend xmlns="http://www.w3.org/2000/svg" in="SourceGraphic" in2="pf_100_dropShadow"/></filter></defs><g filter="url(#a)"><linearGradient id="b" x1=".51" x2=".512" y1="1.06" y2=".158" gradientTransform="matrix(244.648 0 0 228.338 5.68 11.95)" gradientUnits="userSpaceOnUse"><stop offset="0%" stop-color="#009a56"/><stop offset="100%" stop-color="#46a926"/></linearGradient><path fill="url(#b)" d="M165.689 11.95c74.056 0 84.639 10.557 84.639 84.544v59.251c0 73.986-10.583 84.543-84.639 84.543h-75.37c-74.055 0-84.639-10.557-84.639-84.543V96.494c0-73.987 10.584-84.544 84.639-84.544h75.37z"/></g><g opacity=".4"><linearGradient id="c" x1=".517" x2=".517" y2="1"><stop offset="0%" stop-color="#fff"/><stop offset="12.5%" stop-opacity=".098" stop-color="#fff"/><stop offset="92.5%" stop-opacity=".098"/><stop offset="100%" stop-opacity=".498"/></linearGradient><path fill="none" stroke="url(#c)" stroke-linecap="round" stroke-linejoin="round" stroke-width="4.077" d="M165.685 11.947c74.055 0 84.639 10.557 84.639 84.544v59.251c0 73.986-10.584 84.543-84.639 84.543h-75.37c-74.055 0-84.639-10.557-84.639-84.543V96.491c0-73.987 10.584-84.544 84.639-84.544h75.37z" vector-effect="non-scaling-stroke"/></g><defs><filter id="d" width="145" height="165" x="53.19" y="41.96" filterUnits="userSpaceOnUse"><feGaussianBlur xmlns="http://www.w3.org/2000/svg" stdDeviation="4.294"/></filter></defs><path d="M63.247 73.224L125.7 51.957l62.452 21.281c0 81.721 3.674 85.974-62.452 123.719-66.812-38.136-62.453-42.012-62.453-123.733z" opacity=".3" filter="url(#d)"/><linearGradient id="e" x1=".737" x2=".006" y1=".874" y2=".145" gradientTransform="matrix(125 0 0 145 63.189 51.957)" gradientUnits="userSpaceOnUse"><stop offset="0%" stop-color="#a0a0a0"/><stop offset="100%" stop-color="#dfdfdf"/></linearGradient><path fill="url(#e)" d="M63.247 73.224L125.7 51.957l62.452 21.281c0 81.721 3.674 85.974-62.452 123.719-66.812-38.136-62.453-42.012-62.453-123.733z"/><path fill="#A6D74F" d="M74.268 81.544l51.432-18.69 51.431 18.681c0 70.824-3.709 73.934-51.431 101.175-44.085-25.164-51.432-30.342-51.432-101.166z"/><path fill="#555761" fill-rule="evenodd" d="M75.59 81.42l50.11-18.35 50.11 18.35c.59.22.98.78.98 1.4.03 7.72-.03 15.44-.16 23.16-.06 3.18-.17 6.36-.31 9.53-.12 2.79-.3 5.57-.53 8.35-.2 2.45-.48 4.89-.83 7.32-.3 2.15-.7 4.3-1.19 6.42-.44 1.92-.98 3.82-1.62 5.68a43.87 43.87 0 0 1-2.13 5.05c-1.6 3.15-3.63 6.07-6.02 8.68a48.097 48.097 0 0 1-3.96 3.86c-1.5 1.3-3.06 2.55-4.66 3.72-1.77 1.3-3.58 2.54-5.42 3.73a202.1 202.1 0 0 1-6.24 3.88 766.4 766.4 0 0 1-15.18 8.8l-2.84 1.62-2.68-1.53c-4.77-2.69-9.51-5.44-14.22-8.25-2.01-1.2-4-2.45-5.96-3.73-1.79-1.16-3.54-2.37-5.26-3.63-1.59-1.17-3.12-2.4-4.6-3.69-1.4-1.22-2.73-2.51-3.99-3.87a42.395 42.395 0 0 1-6.25-8.79c-.88-1.67-1.65-3.39-2.32-5.15-.72-1.9-1.33-3.83-1.84-5.8-.57-2.16-1.04-4.35-1.42-6.55-.43-2.47-.78-4.95-1.05-7.45-.31-2.81-.55-5.64-.73-8.47-.2-3.2-.36-6.41-.46-9.63-.24-7.75-.34-15.5-.32-23.26.01-.62.4-1.18.99-1.4zm2.01 2.46l48.1-17.61 48.1 17.61c.01 7.35-.04 14.7-.17 22.05-.06 3.15-.16 6.3-.3 9.45-.12 2.75-.3 5.49-.53 8.23-.2 2.39-.47 4.77-.81 7.14-.29 2.08-.67 4.14-1.14 6.19-.42 1.81-.93 3.6-1.54 5.36a38.31 38.31 0 0 1-1.97 4.68c-1.48 2.91-3.34 5.6-5.55 8a43.818 43.818 0 0 1-3.72 3.62 69.88 69.88 0 0 1-4.47 3.57 111.85 111.85 0 0 1-5.27 3.63c-2.03 1.31-4.08 2.59-6.15 3.83-5 2.98-10.05 5.9-15.12 8.76h-.01l-1.35.78-1.19-.68-.01-.01c-4.75-2.68-9.48-5.42-14.16-8.21-1.98-1.19-3.94-2.41-5.87-3.67-1.74-1.13-3.44-2.31-5.11-3.54a68.135 68.135 0 0 1-4.41-3.53 49.828 49.828 0 0 1-3.76-3.65c-2.27-2.46-4.22-5.2-5.8-8.16a42.15 42.15 0 0 1-2.16-4.8 53.05 53.05 0 0 1-1.75-5.49c-.54-2.09-1-4.19-1.37-6.31-.41-2.41-.75-4.83-1.02-7.26-.3-2.77-.54-5.55-.72-8.34-.2-3.17-.35-6.35-.45-9.53-.23-7.37-.33-14.74-.32-22.11z" opacity=".5"/><path fill="#28851E" d="M143.137 105.072l7.397 6.582-24.853 32.468-19.231-16.38 6.361-8.337 11.243 9.653 19.083-23.986z"/></svg>