<?xml version="1.0" encoding="UTF-8" standalone="no"?>
<!-- Created with Inkscape (http://www.inkscape.org/) -->

<svg
   xmlns:dc="http://purl.org/dc/elements/1.1/"
   xmlns:cc="http://creativecommons.org/ns#"
   xmlns:rdf="http://www.w3.org/1999/02/22-rdf-syntax-ns#"
   xmlns:svg="http://www.w3.org/2000/svg"
   xmlns="http://www.w3.org/2000/svg"
   xmlns:xlink="http://www.w3.org/1999/xlink"
   xmlns:sodipodi="http://sodipodi.sourceforge.net/DTD/sodipodi-0.dtd"
   xmlns:inkscape="http://www.inkscape.org/namespaces/inkscape"
   width="256"
   height="256"
   viewBox="0 0 67.733332 67.733335"
   version="1.1"
   id="svg1488"
   inkscape:version="0.92.3 (2405546, 2018-03-11)"
   sodipodi:docname="2.svg">
  <defs
     id="defs1482">
    <clipPath
       clipPathUnits="userSpaceOnUse"
       id="clipPath1025">
      <path
         id="path1027"
         d="M 111.94141,84 C 99.359506,84.145 90.1531,83.713998 82.625,87.867188 c -3.7641,2.0768 -6.751838,5.574737 -8.398438,9.960937 C 72.580062,102.21433 72,107.4241 72,114 v 42 h 160 v -26 c 0,-6.5759 -0.57996,-11.78566 -2.22656,-16.17188 -0.205,-0.5455 -0.47919,-1.03993 -0.74219,-1.54296 -0.1,-0.1848 -0.17844,-0.38051 -0.27344,-0.56641 -1.727,-3.38752 -4.25471,-6.14522 -7.38281,-7.87109 C 213.8463,99.694146 204.64049,100.1454 192.05859,100 H 192 151.66797 L 135.45312,84 h -23.49218 z"
         style="color:#000000;font-style:normal;font-variant:normal;font-weight:normal;font-stretch:normal;font-size:medium;line-height:normal;font-family:sans-serif;font-variant-ligatures:none;font-variant-position:normal;font-variant-caps:normal;font-variant-numeric:normal;font-variant-alternates:normal;font-feature-settings:normal;text-indent:0;text-align:start;text-decoration:none;text-decoration-line:none;text-decoration-style:solid;text-decoration-color:#000000;letter-spacing:normal;word-spacing:normal;text-transform:none;writing-mode:lr-tb;direction:ltr;baseline-shift:baseline;text-anchor:start;white-space:normal;shape-padding:0;clip-rule:nonzero;display:inline;overflow:visible;visibility:visible;opacity:1;isolation:auto;mix-blend-mode:normal;color-interpolation:sRGB;color-interpolation-filters:linearRGB;solid-color:#000000;solid-opacity:1;fill:#e3dfd5;fill-opacity:1;fill-rule:nonzero;stroke:none;stroke-width:4.00000048;stroke-linecap:butt;stroke-linejoin:miter;stroke-miterlimit:4;stroke-dasharray:none;stroke-dashoffset:0;stroke-opacity:1;marker:none;color-rendering:auto;image-rendering:auto;shape-rendering:auto;text-rendering:auto;enable-background:accumulate"
         inkscape:connector-curvature="0" />
    </clipPath>
    <linearGradient
       id="linearGradient1013"
       inkscape:collect="always">
      <stop
         id="stop1005"
         offset="0"
         style="stop-color:#ffffff;stop-opacity:1;" />
      <stop
         style="stop-color:#ffffff;stop-opacity:0.09803922"
         offset="0.125"
         id="stop1007" />
      <stop
         style="stop-color:#000000;stop-opacity:0.09803922"
         offset="0.92500001"
         id="stop1009" />
      <stop
         id="stop1011"
         offset="1"
         style="stop-color:#000000;stop-opacity:0.49803922" />
    </linearGradient>
    <clipPath
       clipPathUnits="userSpaceOnUse"
       id="clipPath1082-3">
      <path
         sodipodi:nodetypes="sssssssss"
         inkscape:connector-curvature="0"
         id="path1084-6"
         d="M 361.9375,-212 C 507.2348,-212 528,-191.28677 528,-46.125 V 70.125 C 528,215.28618 507.2348,236 361.9375,236 H 214.0625 C 68.7652,236 48,215.28618 48,70.125 V -46.125 C 48,-191.28677 68.7652,-212 214.0625,-212 Z"
         style="display:inline;opacity:1;fill:#8c59d9;fill-opacity:1;stroke:none;stroke-width:2;stroke-linecap:round;stroke-linejoin:round;stroke-miterlimit:4;stroke-dasharray:none;stroke-dashoffset:0;stroke-opacity:1;enable-background:new" />
    </clipPath>
    <clipPath
       clipPathUnits="userSpaceOnUse"
       id="clipPath1082-3-5">
      <path
         sodipodi:nodetypes="sssssssss"
         inkscape:connector-curvature="0"
         id="path1084-6-6"
         d="M 361.9375,-212 C 507.2348,-212 528,-191.28677 528,-46.125 V 70.125 C 528,215.28618 507.2348,236 361.9375,236 H 214.0625 C 68.7652,236 48,215.28618 48,70.125 V -46.125 C 48,-191.28677 68.7652,-212 214.0625,-212 Z"
         style="display:inline;opacity:1;fill:#8c59d9;fill-opacity:1;stroke:none;stroke-width:2;stroke-linecap:round;stroke-linejoin:round;stroke-miterlimit:4;stroke-dasharray:none;stroke-dashoffset:0;stroke-opacity:1;enable-background:new" />
    </clipPath>
    <filter
       inkscape:collect="always"
       style="color-interpolation-filters:sRGB"
       id="filter4569-2"
       x="-0.0116"
       width="1.0232"
       y="-0.012428571"
       height="1.024857">
      <feGaussianBlur
         inkscape:collect="always"
         stdDeviation="1.16"
         id="feGaussianBlur4571-9" />
    </filter>
    <filter
       inkscape:collect="always"
       style="color-interpolation-filters:sRGB"
       id="filter913"
       x="-0.0232"
       width="1.0464"
       y="-0.024857143"
       height="1.0497143">
      <feGaussianBlur
         inkscape:collect="always"
         stdDeviation="2.32"
         id="feGaussianBlur915" />
    </filter>
    <linearGradient
       inkscape:collect="always"
       xlink:href="#linearGradient1013"
       id="linearGradient906"
       gradientUnits="userSpaceOnUse"
       x1="296"
       y1="-212"
       x2="296"
       y2="236" />
    <linearGradient
       gradientTransform="matrix(0.2204861,0,0,0.2204861,0.35277762,228.23906)"
       inkscape:collect="always"
       xlink:href="#linearGradient3797-5"
       id="linearGradient2059"
       x1="168"
       y1="284"
       x2="168"
       y2="28"
       gradientUnits="userSpaceOnUse" />
    <linearGradient
       id="linearGradient3797-5">
      <stop
         id="stop3801"
         offset="0"
         style="stop-color:#f7f7f7;stop-opacity:1" />
      <stop
         id="stop3799"
         offset="1"
         style="stop-color:#e6e6e6;stop-opacity:1" />
    </linearGradient>
    <filter
       inkscape:collect="always"
       style="color-interpolation-filters:sRGB"
       id="filter895"
       x="-0.0464"
       width="1.0928"
       y="-0.049714286"
       height="1.0994286">
      <feGaussianBlur
         inkscape:collect="always"
         stdDeviation="1.0230556"
         id="feGaussianBlur897" />
    </filter>
  </defs>
  <sodipodi:namedview
     id="base"
     pagecolor="#ffffff"
     bordercolor="#666666"
     borderopacity="1.0"
     inkscape:pageopacity="0.0"
     inkscape:pageshadow="2"
     inkscape:zoom="3.4628043"
     inkscape:cx="103.56292"
     inkscape:cy="127.84507"
     inkscape:document-units="px"
     inkscape:current-layer="layer1"
     showgrid="true"
     units="px"
     inkscape:window-width="1920"
     inkscape:window-height="1013"
     inkscape:window-x="0"
     inkscape:window-y="34"
     inkscape:window-maximized="1">
    <inkscape:grid
       type="xygrid"
       id="grid2168" />
  </sodipodi:namedview>
  <metadata
     id="metadata1485">
    <rdf:RDF>
      <cc:Work
         rdf:about="">
        <dc:format>image/svg+xml</dc:format>
        <dc:type
           rdf:resource="http://purl.org/dc/dcmitype/StillImage" />
        <dc:title></dc:title>
      </cc:Work>
    </rdf:RDF>
  </metadata>
  <g
     inkscape:label="Livello 1"
     inkscape:groupmode="layer"
     id="layer1"
     transform="translate(0,-229.26666)">
    <path
       style="display:inline;opacity:0.2;fill:#000000;fill-opacity:1;stroke:none;stroke-width:2;stroke-linecap:round;stroke-linejoin:round;stroke-miterlimit:4;stroke-dasharray:none;stroke-dashoffset:0;stroke-opacity:1;filter:url(#filter913);enable-background:new"
       d="m 188.96876,45.999995 c 72.64865,0 83.03125,10.356615 83.03125,82.937505 v 58.125 c 0,72.58059 -10.3826,82.9375 -83.03125,82.9375 h -73.9375 C 42.382606,270 32.000006,259.64309 32.000006,187.0625 v -58.125 c 0,-72.58089 10.3826,-82.937505 83.031254,-82.937505 z"
       id="path899"
       inkscape:connector-curvature="0"
       sodipodi:nodetypes="sssssssss"
       transform="matrix(0.26970778,0,0,0.26970778,-7.1289177,220.56049)" />
    <path
       sodipodi:nodetypes="sssssssss"
       inkscape:connector-curvature="0"
       id="path4567-1"
       d="m 188.96876,43.999995 c 72.64865,0 83.03125,10.356615 83.03125,82.937505 v 58.125 c 0,72.58059 -10.3826,82.9375 -83.03125,82.9375 h -73.9375 C 42.382606,268 32.000006,257.64309 32.000006,185.0625 v -58.125 c 0,-72.58089 10.3826,-82.937505 83.031254,-82.937505 z"
       style="display:inline;opacity:0.1;fill:#000000;fill-opacity:1;stroke:none;stroke-width:2;stroke-linecap:round;stroke-linejoin:round;stroke-miterlimit:4;stroke-dasharray:none;stroke-dashoffset:0;stroke-opacity:1;filter:url(#filter4569-2);enable-background:new"
       transform="matrix(0.26970778,0,0,0.26970778,-7.1289177,220.56049)" />
    <path
       style="display:inline;opacity:1;fill:#4d4d4d;fill-opacity:1;stroke:none;stroke-width:0.5394156;stroke-linecap:round;stroke-linejoin:round;stroke-miterlimit:4;stroke-dasharray:none;stroke-dashoffset:0;stroke-opacity:1;enable-background:new"
       d="m 23.895905,232.42763 c -9.797337,0 -15.3941297,0.69699 -18.5445167,3.84334 -3.150381,3.14634 -3.849657,8.73736 -3.849657,18.52555 v 15.67677 c 0,9.78815 0.699276,15.3792 3.849657,18.52555 3.150387,3.14636 8.7471787,3.84333 18.5445167,3.84333 h 19.94152 c 9.797339,0 15.394134,-0.69697 18.544517,-3.84333 3.150384,-3.14635 3.849659,-8.7374 3.849659,-18.52555 v -15.67677 c 0,-9.78819 -0.699275,-15.37921 -3.849659,-18.52555 -3.150383,-3.14635 -8.74718,-3.84334 -18.544517,-3.84334 z"
       id="rect877-2"
       inkscape:connector-curvature="0" />
    <path
       style="display:inline;opacity:0.2;fill:#131313;fill-opacity:1;stroke:none;stroke-width:0.5394156;stroke-linecap:round;stroke-linejoin:round;stroke-miterlimit:4;stroke-dasharray:none;stroke-dashoffset:0;stroke-opacity:1;enable-background:new"
       d="m 1.5017313,269.93387 v 0.53942 c 0,9.78815 0.699276,15.3792 3.849657,18.52555 3.150387,3.14636 8.7471787,3.84333 18.5445167,3.84333 h 19.94152 c 9.797339,0 15.394134,-0.69697 18.544517,-3.84333 3.150384,-3.14635 3.849659,-8.7374 3.849659,-18.52555 v -0.53942 c 0,9.78815 -0.699275,15.3792 -3.849659,18.52555 -3.150383,3.14636 -8.747178,3.84334 -18.544517,3.84334 h -19.94152 c -9.797338,0 -15.3941297,-0.69698 -18.5445167,-3.84334 -3.150381,-3.14635 -3.849657,-8.7374 -3.849657,-18.52555 z"
       id="path917"
       inkscape:connector-curvature="0" />
    <path
       style="display:inline;opacity:0.1;fill:#ffffff;fill-opacity:1;stroke:none;stroke-width:0.53267342;stroke-linecap:round;stroke-linejoin:round;stroke-miterlimit:4;stroke-dasharray:none;stroke-dashoffset:0;stroke-opacity:1;enable-background:new"
       d="m 1.5017313,261.28124 v 9.74773 c 0,9.545 0.699276,14.99716 3.849657,18.06535 3.150387,3.06819 8.7471787,3.74785 18.5445167,3.74785 h 19.94152 c 9.797339,0 15.394134,-0.67966 18.544517,-3.74785 3.150384,-3.06819 3.849659,-8.52035 3.849659,-18.06535 v -9.74773 z"
       id="path897"
       inkscape:connector-curvature="0" />
    <path
       style="display:inline;opacity:0.1;fill:#ffffff;fill-opacity:1;stroke:none;stroke-width:2.07091594;stroke-linecap:round;stroke-linejoin:round;stroke-miterlimit:4;stroke-dasharray:none;stroke-dashoffset:0;stroke-opacity:1;enable-background:new"
       d="M 130 240.28516 L 165.68555 240.28516 C 174.94288 240.28516 183.20757 240.12027 190.58398 239.6875 C 194.27219 239.47112 197.73732 239.1876 200.99414 238.82422 C 204.25096 238.46084 207.29905 238.01868 210.15039 237.48242 C 213.00173 236.94617 215.65716 236.31703 218.12891 235.58203 C 220.60065 234.84703 222.8878 234.00649 225.00586 233.04688 C 227.12392 232.08726 229.07302 231.00698 230.86328 229.79688 C 232.65355 228.58677 234.28507 227.24623 235.77344 225.75977 C 237.26181 224.2733 238.60656 222.64166 239.81836 220.85352 C 241.03016 219.06537 242.10922 217.1196 243.07031 215.00391 C 244.03141 212.88821 244.87507 210.60389 245.61133 208.13477 C 246.34758 205.66564 246.9764 203.01248 247.51367 200.16406 C 248.05095 197.31565 248.49521 194.27116 248.85938 191.01758 C 249.22354 187.76399 249.5077 184.30181 249.72461 180.61719 C 250.15843 173.24794 250.32422 164.99083 250.32422 155.74219 L 250.32422 96.490234 C 250.32422 87.241551 250.15843 78.984496 249.72461 71.615234 C 249.5077 67.930603 249.22354 64.468429 248.85938 61.214844 C 248.49521 57.961258 248.05095 54.916773 247.51367 52.068359 C 246.9764 49.219946 246.34758 46.566771 245.61133 44.097656 C 244.87507 41.628541 244.03141 39.344206 243.07031 37.228516 C 242.10922 35.112826 241.03016 33.167045 239.81836 31.378906 C 238.60656 29.590768 237.26181 27.959116 235.77344 26.472656 C 234.28507 24.986192 232.65355 23.645653 230.86328 22.435547 C 229.07302 21.225441 227.12392 20.145166 225.00586 19.185547 C 222.8878 18.225928 220.60065 17.385394 218.12891 16.650391 C 215.65716 15.915387 213.00173 15.286259 210.15039 14.75 C 207.29905 14.213741 204.25096 13.77159 200.99414 13.408203 C 197.73732 13.044816 194.27219 12.761308 190.58398 12.544922 C 183.20758 12.112149 174.94287 11.947266 165.68555 11.947266 L 130 11.947266 L 130 240.28516 z "
       id="path844"
       transform="matrix(0.26458333,0,0,0.26458333,0,229.26666)" />
    <path
       sodipodi:nodetypes="sssssssss"
       inkscape:connector-curvature="0"
       id="path1068-7"
       d="M 361.9375,-212 C 507.2348,-212 528,-191.28677 528,-46.125 V 70.125 C 528,215.28618 507.2348,236 361.9375,236 H 214.0625 C 68.7652,236 48,215.28618 48,70.125 V -46.125 C 48,-191.28677 68.7652,-212 214.0625,-212 Z"
       style="display:inline;opacity:0.4;fill:none;fill-opacity:1;stroke:url(#linearGradient906);stroke-width:8;stroke-linecap:round;stroke-linejoin:round;stroke-miterlimit:4;stroke-dasharray:none;stroke-dashoffset:0;stroke-opacity:1;enable-background:new"
       clip-path="url(#clipPath1082-3-5)"
       transform="matrix(0.13485389,0,0,0.13485389,-4.9712557,261.01666)" />
    <path
       sodipodi:nodetypes="sssssssss"
       inkscape:connector-curvature="0"
       id="path869"
       d="m 42.017762,237.94045 c 16.018018,0 18.307238,2.28349 18.307238,18.28657 v 12.81575 c 0,16.00302 -2.28922,18.28657 -18.307238,18.28657 H 25.71557 c -16.0180184,0 -18.3072376,-2.28355 -18.3072376,-18.28657 v -12.81575 c 0,-16.00308 2.2892192,-18.28657 18.3072376,-18.28657 z"
       style="display:inline;opacity:0.3;fill:#000000;fill-opacity:1;stroke:none;stroke-width:0.44097221;stroke-linecap:round;stroke-linejoin:round;stroke-miterlimit:4;stroke-dasharray:none;stroke-dashoffset:0;stroke-opacity:1;enable-background:new;filter:url(#filter895)" />
    <path
       style="display:inline;opacity:1;fill:url(#linearGradient2059);fill-opacity:1;stroke:none;stroke-width:0.44097221;stroke-linecap:round;stroke-linejoin:round;stroke-miterlimit:4;stroke-dasharray:none;stroke-dashoffset:0;stroke-opacity:1;enable-background:new"
       d="m 42.017762,237.94045 c 16.018018,0 18.307238,2.28349 18.307238,18.28657 v 12.81575 c 0,16.00302 -2.28922,18.28657 -18.307238,18.28657 H 25.71557 c -16.0180184,0 -18.3072376,-2.28355 -18.3072376,-18.28657 v -12.81575 c 0,-16.00308 2.2892192,-18.28657 18.3072376,-18.28657 z"
       id="rect877"
       inkscape:connector-curvature="0"
       sodipodi:nodetypes="sssssssss" />
    <path
       style="fill:#000000;stroke-width:0.14506495"
       d="m 12.797199,283.80381 c -0.05346,-0.0535 -0.0972,-9.57746 -0.0972,-21.16445 0,-19.07675 0.02168,-21.07557 0.229462,-21.1553 0.346009,-0.13277 41.738871,-0.10137 41.948659,0.0318 0.144629,0.0918 0.174299,4.43083 0.145063,21.21353 l -0.03675,21.09808 -21.046021,0.0368 c -11.575311,0.0202 -21.089758,-0.007 -21.143215,-0.0604 z m 11.725598,-9.26046 v -8.41377 l -5.476202,-0.038 -5.476201,-0.038 v 8.48979 8.48978 l 5.476201,-0.038 5.476202,-0.038 z m -6.237793,1.53111 c -0.601103,-0.24603 -0.87039,-0.72343 -0.87039,-1.54305 0,-1.04335 0.442476,-1.51968 1.506663,-1.62194 0.688468,-0.0661 0.766772,-0.0385 1.245967,0.44074 0.440007,0.44001 0.511332,0.60644 0.511332,1.19314 0,0.58196 -0.07222,0.75403 -0.493221,1.17502 -0.396005,0.39601 -0.603304,0.49141 -1.051721,0.48403 -0.307175,-0.005 -0.689059,-0.0626 -0.84863,-0.12794 z m 1.576151,-0.59872 c 0.308384,-0.24257 0.382226,-0.4227 0.382226,-0.93239 0,-0.50969 -0.07384,-0.68982 -0.382226,-0.9324 -0.866408,-0.68151 -2.083878,-0.13678 -2.083878,0.9324 0,1.06917 1.21747,1.61391 2.083878,0.93239 z m 10.537052,7.37257 c -1.08e-4,-0.0598 -3.18e-4,-3.86235 -3.18e-4,-8.45003 v -8.34123 h -2.466062 -2.466104 v 8.48972 8.48973 l 2.466384,-0.0397 c 1.356513,-0.0218 2.466259,-0.0886 2.466104,-0.1485 z m -3.430619,-6.91616 c -0.966252,-0.58919 -0.970313,-2.18598 -0.007,-2.77332 1.417966,-0.86458 3.04685,0.34786 2.576489,1.91778 -0.307729,1.02712 -1.588617,1.45361 -2.569436,0.85554 z m 1.830933,-0.44219 c 0.396392,-0.39639 0.505134,-0.94419 0.290358,-1.4627 -0.217563,-0.52524 -0.53878,-0.71854 -1.183787,-0.71235 -0.535275,0.005 -0.85781,0.20122 -1.110094,0.67491 -0.259755,0.4877 -0.203433,0.85272 0.206797,1.34025 0.301487,0.3583 0.48746,0.44633 0.942922,0.44633 0.371509,0 0.666246,-0.0989 0.853804,-0.28644 z m 25.390055,5.00017 v -2.53952 l -11.423862,0.0371 -11.423866,0.0371 -0.04011,2.31522 c -0.02206,1.27337 -0.0078,2.39944 0.03171,2.50237 0.0578,0.15063 2.295026,0.18716 11.463969,0.18716 h 11.392149 z m -12.544513,1.19401 c -0.420766,-0.42076 -0.511331,-0.61794 -0.511331,-1.1133 0,-1.15813 0.589016,-1.74808 1.745316,-1.74808 0.426091,0 0.691465,0.10751 1.044895,0.4233 0.427385,0.38187 0.47375,0.50222 0.47375,1.22975 0,1.0728 -0.432183,1.54583 -1.506662,1.64908 -0.688467,0.0661 -0.766773,0.0385 -1.245968,-0.44075 z m 2.0339,-0.31615 c 1.124426,-1.12442 -0.472535,-2.79677 -1.727811,-1.80937 -0.308383,0.24257 -0.382225,0.4227 -0.382225,0.93239 0,0.50969 0.07384,0.68982 0.382225,0.93239 0.530635,0.4174 1.279004,0.3934 1.727811,-0.0554 z m -7.332374,-6.82464 v -2.53864 h -2.450584 c -2.100791,0 -2.463152,0.0328 -2.538636,0.22946 -0.120084,0.31294 -0.112218,4.63023 0.0087,4.7511 0.05319,0.0532 1.195576,0.0967 2.538636,0.0967 h 2.441923 z m -3.430338,1.3888 c -0.966253,-0.58919 -0.970315,-2.18598 -0.007,-2.77332 1.417967,-0.86458 3.046851,0.34786 2.576489,1.91778 -0.307729,1.02712 -1.588617,1.45361 -2.569435,0.85554 z m 1.805513,-0.4499 c 0.8722,-0.81257 0.345662,-2.17195 -0.84128,-2.17195 -0.838058,0 -1.441986,0.74236 -1.244394,1.52963 0.137735,0.54878 0.652902,0.93647 1.244394,0.93647 0.327428,0 0.644578,-0.11089 0.84128,-0.29415 z m 7.572489,-6.88544 v -8.48518 l -8.812697,-0.0374 -8.812695,-0.0374 -0.07253,-2.90129 -0.07253,-2.9013 -2.901299,-0.0725 -2.901299,-0.0725 -0.07253,-2.9013 -0.07253,-2.9013 -2.50237,-0.0397 -2.50237,-0.0397 v 8.48972 8.48973 h 8.767863 c 6.856551,0 8.792813,0.0395 8.882302,0.18133 0.06294,0.0997 0.115752,1.42164 0.117361,2.93756 l 0.0029,2.75624 2.824757,0.0395 c 1.553619,0.0217 2.880733,0.0955 2.949146,0.1639 0.06841,0.0684 0.116939,1.35942 0.107837,2.86891 -0.0091,1.50948 0.02921,2.79027 0.08513,2.8462 0.05592,0.0559 1.200549,0.10168 2.543609,0.10168 h 2.441919 z M 26.770812,263.9029 c -1.108598,-1.1086 -0.369226,-2.92435 1.190073,-2.92258 1.148554,10e-4 1.916798,1.06395 1.580549,2.18625 -0.234701,0.78336 -0.757373,1.1497 -1.640333,1.1497 -0.594747,0 -0.787365,-0.0704 -1.130289,-0.41337 z m 1.807303,-0.11194 c 0.286773,-0.11004 0.659291,-0.79905 0.659291,-1.21942 0,-0.4622 -0.765394,-1.15657 -1.274862,-1.15657 -0.553433,0 -1.144266,0.47134 -1.261837,1.00663 -0.09881,0.44987 0.209813,1.22993 0.539004,1.36238 0.267596,0.10767 1.065181,0.11183 1.338404,0.007 z m 19.662799,7.77856 v -5.51247 h -2.538637 -2.538635 v 5.51247 5.51247 h 2.538635 2.538637 z m -3.289929,1.51385 c -0.593268,-0.30172 -0.976532,-1.09051 -0.864701,-1.77964 0.277389,-1.70936 2.69421,-1.90629 3.244231,-0.26435 0.476081,1.42121 -1.041252,2.72458 -2.37953,2.04399 z m 1.329126,-0.35241 c 0.8968,-0.34096 0.928336,-1.80813 0.04864,-2.26304 -1.298382,-0.67142 -2.470611,0.94803 -1.435492,1.98315 0.449178,0.44917 0.770845,0.51409 1.386848,0.27989 z m 7.908465,-4.13527 v -8.4863 h -2.538635 -2.538637 v 8.4863 8.4863 h 2.538637 2.538635 z m -3.63329,1.26931 c -0.844609,-0.75472 -0.688142,-2.21063 0.292049,-2.71751 0.736508,-0.38086 1.417691,-0.28677 1.977631,0.27317 0.426826,0.42682 0.492787,0.58793 0.489995,1.19679 -0.005,1.08157 -0.597053,1.64648 -1.725729,1.64648 -0.435977,0 -0.702651,-0.10289 -1.033946,-0.39893 z m 2.026795,-0.38745 c 0.478076,-0.50889 0.45207,-1.34708 -0.05533,-1.78353 -0.848656,-0.72998 -2.109862,-0.191 -2.109862,0.90167 0,1.11016 1.410875,1.6848 2.165194,0.88186 z m -4.341167,-7.09065 c 0,-1.98416 0.05071,-2.85046 0.174078,-2.97383 0.123367,-0.12336 0.989666,-0.17407 2.973832,-0.17407 h 2.799752 v -5.50947 -5.50946 l -2.937563,-0.0393 -2.937566,-0.0393 -0.03928,-2.94098 -0.03928,-2.94098 -2.499355,0.0397 -2.499355,0.0397 -0.03926,2.93457 -0.03926,2.93457 -2.93457,0.0393 -2.934571,0.0393 -0.03613,5.4732 -0.03613,5.4732 2.937426,0.0393 2.937425,0.0393 0.03927,2.93756 0.03927,2.93757 h 2.535635 2.535631 z m -3.420586,-7.18462 c -0.923734,-0.58085 -1.029353,-1.93281 -0.208785,-2.67254 0.588639,-0.53065 1.678993,-0.56579 2.25076,-0.0725 0.713237,0.61531 0.7196,1.89934 0.0127,2.56343 -0.496086,0.46605 -1.46603,0.5518 -2.05468,0.18164 z m 1.656686,-0.4024 c 0.479782,-0.33606 0.645038,-0.87024 0.451054,-1.45802 -0.189788,-0.57506 -0.506262,-0.77585 -1.222846,-0.77585 -0.959014,0 -1.488451,0.88292 -1.074383,1.7917 0.29301,0.64309 1.236652,0.86909 1.846175,0.44217 z m -10.131425,1.90048 v -2.53864 H 33.45981 c -2.497631,0 -2.897621,-0.0309 -2.97383,-0.22946 -0.04843,-0.1262 -0.08805,-1.46443 -0.08805,-2.97383 v -2.74437 H 27.499635 24.60134 l -0.03927,-2.93756 -0.03927,-2.93757 -5.476202,-0.038 -5.476201,-0.038 v 2.54038 2.54038 h 2.79975 c 1.984166,0 2.850463,0.0507 2.973831,0.17408 0.123368,0.12337 0.174078,0.98967 0.174078,2.97383 v 2.79975 h 2.799753 c 1.984167,0 2.850463,0.0507 2.973831,0.17408 0.123369,0.12337 0.174079,0.98967 0.174079,2.97383 v 2.79976 h 5.439935 5.439935 z M 24.38738,252.34287 c -0.29643,-0.10191 -0.555753,-0.20763 -0.576272,-0.23494 -0.785934,-1.04591 -0.688731,-2.16856 0.236612,-2.73274 1.157974,-0.70602 2.578518,0.0347 2.578518,1.34446 0,1.30899 -1.014135,2.04426 -2.238858,1.62322 z m 1.477267,-0.68921 c 0.388596,-0.35567 0.440598,-1.18109 0.10463,-1.66075 -0.4406,-0.62905 -1.889465,-0.50393 -2.154226,0.18603 -0.530301,1.38194 0.970869,2.46206 2.049596,1.47472 z m 10.480942,-0.90439 v -2.54206 l -2.502371,0.0397 -2.50237,0.0397 -0.02093,2.39358 c -0.0115,1.31646 0.0087,2.44253 0.04483,2.50236 0.03617,0.0598 1.171649,0.1088 2.523297,0.1088 h 2.457543 z m -3.627114,1.25831 c -1.31815,-1.31815 0.05045,-3.44849 1.790427,-2.78695 0.872279,0.33164 1.285971,1.34108 0.914228,2.23079 -0.287569,0.68825 -0.748006,0.96952 -1.587082,0.96952 -0.580768,0 -0.776663,-0.0725 -1.117573,-0.41336 z m 1.578965,-0.0376 c 0.922601,-0.32162 1.12149,-1.55099 0.349201,-2.15848 -0.537774,-0.42301 -1.141978,-0.37458 -1.648704,0.13214 -0.808081,0.80808 -0.480844,1.67479 0.823635,2.18146 0.008,0.003 0.222182,-0.0667 0.475868,-0.15512 z m 7.995813,-7.16498 v -2.53864 h -8.413769 -8.413765 v 2.53864 2.53863 h 8.413765 8.413769 z m -8.980441,1.6203 c -0.692266,-0.23768 -1.101574,-0.84264 -1.101574,-1.62815 0,-0.52869 0.0821,-0.72146 0.474251,-1.11362 0.406973,-0.40697 0.575399,-0.47425 1.18726,-0.47425 0.58613,0 0.78975,0.0735 1.144256,0.41316 1.327172,1.27151 0.03337,3.39941 -1.704193,2.80286 z m 1.079982,-0.45277 c 1.238508,-0.51748 0.811751,-2.40059 -0.544031,-2.40059 -0.524323,0 -1.2758,0.70005 -1.272724,1.18563 0.0031,0.49692 0.316703,1.0321 0.726045,1.23921 0.454875,0.23016 0.483343,0.22952 1.09071,-0.0243 z m 19.795782,-1.17096 v -2.54206 l -2.502369,0.0397 -2.502371,0.0397 -0.03969,2.50237 -0.03969,2.50237 h 2.542061 2.542061 z m -3.118895,1.61328 c -0.647277,-0.28571 -0.969741,-0.72658 -1.040562,-1.42264 -0.08632,-0.84843 0.321194,-1.49028 1.093013,-1.72152 0.72532,-0.21731 1.250066,-0.0868 1.779447,0.44259 0.346369,0.34637 0.416608,0.53748 0.416608,1.13352 0,0.88124 -0.368123,1.4088 -1.130851,1.62064 -0.648803,0.18019 -0.583324,0.18327 -1.117655,-0.0526 z m 1.158377,-0.43909 c 1.222653,-0.51086 0.732409,-2.39308 -0.625541,-2.40168 -0.478523,-0.003 -1.18563,0.74844 -1.18563,1.26001 0,0.49372 0.346774,1.03151 0.777113,1.20518 0.42998,0.17351 0.473112,0.17087 1.034058,-0.0635 z"
       id="path1451"
       inkscape:connector-curvature="0" />
  </g>
</svg>
