<?xml version="1.0" encoding="UTF-8" standalone="no"?>
<!-- Created with Inkscape (http://www.inkscape.org/) -->

<svg
   xmlns:dc="http://purl.org/dc/elements/1.1/"
   xmlns:cc="http://creativecommons.org/ns#"
   xmlns:rdf="http://www.w3.org/1999/02/22-rdf-syntax-ns#"
   xmlns:svg="http://www.w3.org/2000/svg"
   xmlns="http://www.w3.org/2000/svg"
   xmlns:xlink="http://www.w3.org/1999/xlink"
   xmlns:sodipodi="http://sodipodi.sourceforge.net/DTD/sodipodi-0.dtd"
   xmlns:inkscape="http://www.inkscape.org/namespaces/inkscape"
   width="256"
   height="256"
   viewBox="0 0 67.733332 67.733335"
   version="1.1"
   id="svg1488"
   inkscape:version="0.92.3 (2405546, 2018-03-11)"
   sodipodi:docname="3.svg">
  <defs
     id="defs1482">
    <clipPath
       clipPathUnits="userSpaceOnUse"
       id="clipPath1025">
      <path
         id="path1027"
         d="M 111.94141,84 C 99.359506,84.145 90.1531,83.713998 82.625,87.867188 c -3.7641,2.0768 -6.751838,5.574737 -8.398438,9.960937 C 72.580062,102.21433 72,107.4241 72,114 v 42 h 160 v -26 c 0,-6.5759 -0.57996,-11.78566 -2.22656,-16.17188 -0.205,-0.5455 -0.47919,-1.03993 -0.74219,-1.54296 -0.1,-0.1848 -0.17844,-0.38051 -0.27344,-0.56641 -1.727,-3.38752 -4.25471,-6.14522 -7.38281,-7.87109 C 213.8463,99.694146 204.64049,100.1454 192.05859,100 H 192 151.66797 L 135.45312,84 h -23.49218 z"
         style="color:#000000;font-style:normal;font-variant:normal;font-weight:normal;font-stretch:normal;font-size:medium;line-height:normal;font-family:sans-serif;font-variant-ligatures:none;font-variant-position:normal;font-variant-caps:normal;font-variant-numeric:normal;font-variant-alternates:normal;font-feature-settings:normal;text-indent:0;text-align:start;text-decoration:none;text-decoration-line:none;text-decoration-style:solid;text-decoration-color:#000000;letter-spacing:normal;word-spacing:normal;text-transform:none;writing-mode:lr-tb;direction:ltr;baseline-shift:baseline;text-anchor:start;white-space:normal;shape-padding:0;clip-rule:nonzero;display:inline;overflow:visible;visibility:visible;opacity:1;isolation:auto;mix-blend-mode:normal;color-interpolation:sRGB;color-interpolation-filters:linearRGB;solid-color:#000000;solid-opacity:1;fill:#e3dfd5;fill-opacity:1;fill-rule:nonzero;stroke:none;stroke-width:4.00000048;stroke-linecap:butt;stroke-linejoin:miter;stroke-miterlimit:4;stroke-dasharray:none;stroke-dashoffset:0;stroke-opacity:1;marker:none;color-rendering:auto;image-rendering:auto;shape-rendering:auto;text-rendering:auto;enable-background:accumulate"
         inkscape:connector-curvature="0" />
    </clipPath>
    <linearGradient
       id="linearGradient1013"
       inkscape:collect="always">
      <stop
         id="stop1005"
         offset="0"
         style="stop-color:#ffffff;stop-opacity:1;" />
      <stop
         style="stop-color:#ffffff;stop-opacity:0.09803922"
         offset="0.125"
         id="stop1007" />
      <stop
         style="stop-color:#000000;stop-opacity:0.09803922"
         offset="0.92500001"
         id="stop1009" />
      <stop
         id="stop1011"
         offset="1"
         style="stop-color:#000000;stop-opacity:0.49803922" />
    </linearGradient>
    <clipPath
       clipPathUnits="userSpaceOnUse"
       id="clipPath1082-3">
      <path
         sodipodi:nodetypes="sssssssss"
         inkscape:connector-curvature="0"
         id="path1084-6"
         d="M 361.9375,-212 C 507.2348,-212 528,-191.28677 528,-46.125 V 70.125 C 528,215.28618 507.2348,236 361.9375,236 H 214.0625 C 68.7652,236 48,215.28618 48,70.125 V -46.125 C 48,-191.28677 68.7652,-212 214.0625,-212 Z"
         style="display:inline;opacity:1;fill:#8c59d9;fill-opacity:1;stroke:none;stroke-width:2;stroke-linecap:round;stroke-linejoin:round;stroke-miterlimit:4;stroke-dasharray:none;stroke-dashoffset:0;stroke-opacity:1;enable-background:new" />
    </clipPath>
    <clipPath
       clipPathUnits="userSpaceOnUse"
       id="clipPath1082-3-5">
      <path
         sodipodi:nodetypes="sssssssss"
         inkscape:connector-curvature="0"
         id="path1084-6-6"
         d="M 361.9375,-212 C 507.2348,-212 528,-191.28677 528,-46.125 V 70.125 C 528,215.28618 507.2348,236 361.9375,236 H 214.0625 C 68.7652,236 48,215.28618 48,70.125 V -46.125 C 48,-191.28677 68.7652,-212 214.0625,-212 Z"
         style="display:inline;opacity:1;fill:#8c59d9;fill-opacity:1;stroke:none;stroke-width:2;stroke-linecap:round;stroke-linejoin:round;stroke-miterlimit:4;stroke-dasharray:none;stroke-dashoffset:0;stroke-opacity:1;enable-background:new" />
    </clipPath>
    <filter
       inkscape:collect="always"
       style="color-interpolation-filters:sRGB"
       id="filter4569-2"
       x="-0.0116"
       width="1.0232"
       y="-0.012428571"
       height="1.024857">
      <feGaussianBlur
         inkscape:collect="always"
         stdDeviation="1.16"
         id="feGaussianBlur4571-9" />
    </filter>
    <filter
       inkscape:collect="always"
       style="color-interpolation-filters:sRGB"
       id="filter913"
       x="-0.0232"
       width="1.0464"
       y="-0.024857143"
       height="1.0497143">
      <feGaussianBlur
         inkscape:collect="always"
         stdDeviation="2.32"
         id="feGaussianBlur915" />
    </filter>
    <linearGradient
       inkscape:collect="always"
       xlink:href="#linearGradient1013"
       id="linearGradient906"
       gradientUnits="userSpaceOnUse"
       x1="296"
       y1="-212"
       x2="296"
       y2="236" />
    <linearGradient
       gradientTransform="matrix(0.2204861,0,0,0.2204861,0.35277762,228.23906)"
       inkscape:collect="always"
       xlink:href="#linearGradient3797-5"
       id="linearGradient2059"
       x1="168"
       y1="284"
       x2="168"
       y2="28"
       gradientUnits="userSpaceOnUse" />
    <linearGradient
       id="linearGradient3797-5">
      <stop
         id="stop3801"
         offset="0"
         style="stop-color:#f7f7f7;stop-opacity:1" />
      <stop
         id="stop3799"
         offset="1"
         style="stop-color:#e6e6e6;stop-opacity:1" />
    </linearGradient>
    <filter
       inkscape:collect="always"
       style="color-interpolation-filters:sRGB"
       id="filter895"
       x="-0.0464"
       width="1.0928"
       y="-0.049714286"
       height="1.0994286">
      <feGaussianBlur
         inkscape:collect="always"
         stdDeviation="1.0230556"
         id="feGaussianBlur897" />
    </filter>
  </defs>
  <sodipodi:namedview
     id="base"
     pagecolor="#ffffff"
     bordercolor="#666666"
     borderopacity="1.0"
     inkscape:pageopacity="0.0"
     inkscape:pageshadow="2"
     inkscape:zoom="3.4628043"
     inkscape:cx="103.27414"
     inkscape:cy="127.84507"
     inkscape:document-units="px"
     inkscape:current-layer="layer1"
     showgrid="true"
     units="px"
     inkscape:window-width="1920"
     inkscape:window-height="1013"
     inkscape:window-x="0"
     inkscape:window-y="34"
     inkscape:window-maximized="1">
    <inkscape:grid
       type="xygrid"
       id="grid2168" />
  </sodipodi:namedview>
  <metadata
     id="metadata1485">
    <rdf:RDF>
      <cc:Work
         rdf:about="">
        <dc:format>image/svg+xml</dc:format>
        <dc:type
           rdf:resource="http://purl.org/dc/dcmitype/StillImage" />
        <dc:title></dc:title>
      </cc:Work>
    </rdf:RDF>
  </metadata>
  <g
     inkscape:label="Livello 1"
     inkscape:groupmode="layer"
     id="layer1"
     transform="translate(0,-229.26666)">
    <path
       style="display:inline;opacity:0.2;fill:#000000;fill-opacity:1;stroke:none;stroke-width:2;stroke-linecap:round;stroke-linejoin:round;stroke-miterlimit:4;stroke-dasharray:none;stroke-dashoffset:0;stroke-opacity:1;filter:url(#filter913);enable-background:new"
       d="m 188.96876,45.999995 c 72.64865,0 83.03125,10.356615 83.03125,82.937505 v 58.125 c 0,72.58059 -10.3826,82.9375 -83.03125,82.9375 h -73.9375 C 42.382606,270 32.000006,259.64309 32.000006,187.0625 v -58.125 c 0,-72.58089 10.3826,-82.937505 83.031254,-82.937505 z"
       id="path899"
       inkscape:connector-curvature="0"
       sodipodi:nodetypes="sssssssss"
       transform="matrix(0.26970778,0,0,0.26970778,-7.1289177,220.56049)" />
    <path
       sodipodi:nodetypes="sssssssss"
       inkscape:connector-curvature="0"
       id="path4567-1"
       d="m 188.96876,43.999995 c 72.64865,0 83.03125,10.356615 83.03125,82.937505 v 58.125 c 0,72.58059 -10.3826,82.9375 -83.03125,82.9375 h -73.9375 C 42.382606,268 32.000006,257.64309 32.000006,185.0625 v -58.125 c 0,-72.58089 10.3826,-82.937505 83.031254,-82.937505 z"
       style="display:inline;opacity:0.1;fill:#000000;fill-opacity:1;stroke:none;stroke-width:2;stroke-linecap:round;stroke-linejoin:round;stroke-miterlimit:4;stroke-dasharray:none;stroke-dashoffset:0;stroke-opacity:1;filter:url(#filter4569-2);enable-background:new"
       transform="matrix(0.26970778,0,0,0.26970778,-7.1289177,220.56049)" />
    <path
       style="display:inline;opacity:1;fill:#4d4d4d;fill-opacity:1;stroke:none;stroke-width:0.5394156;stroke-linecap:round;stroke-linejoin:round;stroke-miterlimit:4;stroke-dasharray:none;stroke-dashoffset:0;stroke-opacity:1;enable-background:new"
       d="m 23.895905,232.42763 c -9.797337,0 -15.3941297,0.69699 -18.5445167,3.84334 -3.150381,3.14634 -3.849657,8.73736 -3.849657,18.52555 v 15.67677 c 0,9.78815 0.699276,15.3792 3.849657,18.52555 3.150387,3.14636 8.7471787,3.84333 18.5445167,3.84333 h 19.94152 c 9.797339,0 15.394134,-0.69697 18.544517,-3.84333 3.150384,-3.14635 3.849659,-8.7374 3.849659,-18.52555 v -15.67677 c 0,-9.78819 -0.699275,-15.37921 -3.849659,-18.52555 -3.150383,-3.14635 -8.74718,-3.84334 -18.544517,-3.84334 z"
       id="rect877-2"
       inkscape:connector-curvature="0" />
    <path
       style="display:inline;opacity:0.2;fill:#131313;fill-opacity:1;stroke:none;stroke-width:0.5394156;stroke-linecap:round;stroke-linejoin:round;stroke-miterlimit:4;stroke-dasharray:none;stroke-dashoffset:0;stroke-opacity:1;enable-background:new"
       d="m 1.5017313,269.93387 v 0.53942 c 0,9.78815 0.699276,15.3792 3.849657,18.52555 3.150387,3.14636 8.7471787,3.84333 18.5445167,3.84333 h 19.94152 c 9.797339,0 15.394134,-0.69697 18.544517,-3.84333 3.150384,-3.14635 3.849659,-8.7374 3.849659,-18.52555 v -0.53942 c 0,9.78815 -0.699275,15.3792 -3.849659,18.52555 -3.150383,3.14636 -8.747178,3.84334 -18.544517,3.84334 h -19.94152 c -9.797338,0 -15.3941297,-0.69698 -18.5445167,-3.84334 -3.150381,-3.14635 -3.849657,-8.7374 -3.849657,-18.52555 z"
       id="path917"
       inkscape:connector-curvature="0" />
    <path
       style="display:inline;opacity:0.1;fill:#ffffff;fill-opacity:1;stroke:none;stroke-width:0.53267342;stroke-linecap:round;stroke-linejoin:round;stroke-miterlimit:4;stroke-dasharray:none;stroke-dashoffset:0;stroke-opacity:1;enable-background:new"
       d="m 1.5017313,261.28124 v 9.74773 c 0,9.545 0.699276,14.99716 3.849657,18.06535 3.150387,3.06819 8.7471787,3.74785 18.5445167,3.74785 h 19.94152 c 9.797339,0 15.394134,-0.67966 18.544517,-3.74785 3.150384,-3.06819 3.849659,-8.52035 3.849659,-18.06535 v -9.74773 z"
       id="path897"
       inkscape:connector-curvature="0" />
    <path
       style="display:inline;opacity:0.1;fill:#ffffff;fill-opacity:1;stroke:none;stroke-width:2.07091594;stroke-linecap:round;stroke-linejoin:round;stroke-miterlimit:4;stroke-dasharray:none;stroke-dashoffset:0;stroke-opacity:1;enable-background:new"
       d="M 130 240.28516 L 165.68555 240.28516 C 174.94288 240.28516 183.20757 240.12027 190.58398 239.6875 C 194.27219 239.47112 197.73732 239.1876 200.99414 238.82422 C 204.25096 238.46084 207.29905 238.01868 210.15039 237.48242 C 213.00173 236.94617 215.65716 236.31703 218.12891 235.58203 C 220.60065 234.84703 222.8878 234.00649 225.00586 233.04688 C 227.12392 232.08726 229.07302 231.00698 230.86328 229.79688 C 232.65355 228.58677 234.28507 227.24623 235.77344 225.75977 C 237.26181 224.2733 238.60656 222.64166 239.81836 220.85352 C 241.03016 219.06537 242.10922 217.1196 243.07031 215.00391 C 244.03141 212.88821 244.87507 210.60389 245.61133 208.13477 C 246.34758 205.66564 246.9764 203.01248 247.51367 200.16406 C 248.05095 197.31565 248.49521 194.27116 248.85938 191.01758 C 249.22354 187.76399 249.5077 184.30181 249.72461 180.61719 C 250.15843 173.24794 250.32422 164.99083 250.32422 155.74219 L 250.32422 96.490234 C 250.32422 87.241551 250.15843 78.984496 249.72461 71.615234 C 249.5077 67.930603 249.22354 64.468429 248.85938 61.214844 C 248.49521 57.961258 248.05095 54.916773 247.51367 52.068359 C 246.9764 49.219946 246.34758 46.566771 245.61133 44.097656 C 244.87507 41.628541 244.03141 39.344206 243.07031 37.228516 C 242.10922 35.112826 241.03016 33.167045 239.81836 31.378906 C 238.60656 29.590768 237.26181 27.959116 235.77344 26.472656 C 234.28507 24.986192 232.65355 23.645653 230.86328 22.435547 C 229.07302 21.225441 227.12392 20.145166 225.00586 19.185547 C 222.8878 18.225928 220.60065 17.385394 218.12891 16.650391 C 215.65716 15.915387 213.00173 15.286259 210.15039 14.75 C 207.29905 14.213741 204.25096 13.77159 200.99414 13.408203 C 197.73732 13.044816 194.27219 12.761308 190.58398 12.544922 C 183.20758 12.112149 174.94287 11.947266 165.68555 11.947266 L 130 11.947266 L 130 240.28516 z "
       id="path844"
       transform="matrix(0.26458333,0,0,0.26458333,0,229.26666)" />
    <path
       sodipodi:nodetypes="sssssssss"
       inkscape:connector-curvature="0"
       id="path1068-7"
       d="M 361.9375,-212 C 507.2348,-212 528,-191.28677 528,-46.125 V 70.125 C 528,215.28618 507.2348,236 361.9375,236 H 214.0625 C 68.7652,236 48,215.28618 48,70.125 V -46.125 C 48,-191.28677 68.7652,-212 214.0625,-212 Z"
       style="display:inline;opacity:0.4;fill:none;fill-opacity:1;stroke:url(#linearGradient906);stroke-width:8;stroke-linecap:round;stroke-linejoin:round;stroke-miterlimit:4;stroke-dasharray:none;stroke-dashoffset:0;stroke-opacity:1;enable-background:new"
       clip-path="url(#clipPath1082-3-5)"
       transform="matrix(0.13485389,0,0,0.13485389,-4.9712557,261.01666)" />
    <path
       sodipodi:nodetypes="sssssssss"
       inkscape:connector-curvature="0"
       id="path869"
       d="m 42.017762,237.94045 c 16.018018,0 18.307238,2.28349 18.307238,18.28657 v 12.81575 c 0,16.00302 -2.28922,18.28657 -18.307238,18.28657 H 25.71557 c -16.0180184,0 -18.3072376,-2.28355 -18.3072376,-18.28657 v -12.81575 c 0,-16.00308 2.2892192,-18.28657 18.3072376,-18.28657 z"
       style="display:inline;opacity:0.3;fill:#000000;fill-opacity:1;stroke:none;stroke-width:0.44097221;stroke-linecap:round;stroke-linejoin:round;stroke-miterlimit:4;stroke-dasharray:none;stroke-dashoffset:0;stroke-opacity:1;enable-background:new;filter:url(#filter895)" />
    <path
       style="display:inline;opacity:1;fill:url(#linearGradient2059);fill-opacity:1;stroke:none;stroke-width:0.44097221;stroke-linecap:round;stroke-linejoin:round;stroke-miterlimit:4;stroke-dasharray:none;stroke-dashoffset:0;stroke-opacity:1;enable-background:new"
       d="m 42.017762,237.94045 c 16.018018,0 18.307238,2.28349 18.307238,18.28657 v 12.81575 c 0,16.00302 -2.28922,18.28657 -18.307238,18.28657 H 25.71557 c -16.0180184,0 -18.3072376,-2.28355 -18.3072376,-18.28657 v -12.81575 c 0,-16.00308 2.2892192,-18.28657 18.3072376,-18.28657 z"
       id="rect877"
       inkscape:connector-curvature="0"
       sodipodi:nodetypes="sssssssss" />
    <path
       style="fill:#000000;stroke-width:0.14111112"
       d="m 12.7,262.6349 v -21.16667 h 21.166666 21.166667 v 21.16667 21.16666 H 33.866666 12.7 Z m 13.97,20.53166 c 0,-0.11641 0.09525,-0.21166 0.211666,-0.21166 0.116417,0 0.211667,0.0953 0.211667,0.21166 0,0.18521 0.846667,0.21167 6.773333,0.21167 H 40.64 v -6.77333 -6.77334 H 26.881666 13.123333 v 6.77334 6.77333 h 6.773334 c 5.926666,0 6.773333,-0.0265 6.773333,-0.21167 z m 0,-0.84666 c 0,-0.11642 0.09525,-0.21167 0.211666,-0.21167 0.116417,0 0.211667,0.0953 0.211667,0.21167 0,0.11641 -0.09525,0.21166 -0.211667,0.21166 -0.116416,0 -0.211666,-0.0953 -0.211666,-0.21166 z m 0,-0.84667 c 0,-0.11642 0.09525,-0.21167 0.211666,-0.21167 0.116417,0 0.211667,0.0952 0.211667,0.21167 0,0.11642 -0.09525,0.21167 -0.211667,0.21167 -0.116416,0 -0.211666,-0.0953 -0.211666,-0.21167 z m 0,-0.84667 c 0,-0.11641 0.09525,-0.21166 0.211666,-0.21166 0.116417,0 0.211667,0.0953 0.211667,0.21166 0,0.11642 -0.09525,0.21167 -0.211667,0.21167 -0.116416,0 -0.211666,-0.0953 -0.211666,-0.21167 z m 0,-0.84666 c 0,-0.11642 0.09525,-0.21167 0.211666,-0.21167 0.116417,0 0.211667,0.0952 0.211667,0.21167 0,0.11641 -0.09525,0.21166 -0.211667,0.21166 -0.116416,0 -0.211666,-0.0952 -0.211666,-0.21166 z m 0,-0.84667 c 0,-0.11642 0.09525,-0.21167 0.211666,-0.21167 0.116417,0 0.211667,0.0952 0.211667,0.21167 0,0.11642 -0.09525,0.21167 -0.211667,0.21167 -0.116416,0 -0.211666,-0.0953 -0.211666,-0.21167 z m 0,-0.84667 c 0,-0.11641 0.09525,-0.21166 0.211666,-0.21166 0.116417,0 0.211667,0.0952 0.211667,0.21166 0,0.11642 -0.09525,0.21167 -0.211667,0.21167 -0.116416,0 -0.211666,-0.0952 -0.211666,-0.21167 z m 0,-0.84666 c 0,-0.11642 0.09525,-0.21167 0.211666,-0.21167 0.116417,0 0.211667,0.0953 0.211667,0.21167 0,0.11641 -0.09525,0.21166 -0.211667,0.21166 -0.116416,0 -0.211666,-0.0953 -0.211666,-0.21166 z m 0,-0.84667 c 0,-0.11642 0.09525,-0.21167 0.211666,-0.21167 0.116417,0 0.211667,0.0953 0.211667,0.21167 0,0.11642 -0.09525,0.21167 -0.211667,0.21167 -0.116416,0 -0.211666,-0.0952 -0.211666,-0.21167 z m 0,-0.84667 c 0,-0.11641 0.09525,-0.21166 0.211666,-0.21166 0.116417,0 0.211667,0.0953 0.211667,0.21166 0,0.11642 -0.09525,0.21167 -0.211667,0.21167 -0.116416,0 -0.211666,-0.0953 -0.211666,-0.21167 z m 0,-0.84666 c 0,-0.11642 0.09525,-0.21167 0.211666,-0.21167 0.116417,0 0.211667,0.0953 0.211667,0.21167 0,0.11641 -0.09525,0.21166 -0.211667,0.21166 -0.116416,0 -0.211666,-0.0953 -0.211666,-0.21166 z m 0,-0.84667 c 0,-0.11642 0.09525,-0.21167 0.211666,-0.21167 0.116417,0 0.211667,0.0952 0.211667,0.21167 0,0.11642 -0.09525,0.21167 -0.211667,0.21167 -0.116416,0 -0.211666,-0.0953 -0.211666,-0.21167 z m 0,-0.84667 c 0,-0.11641 0.09525,-0.21166 0.211666,-0.21166 0.116417,0 0.211667,0.0953 0.211667,0.21166 0,0.11642 -0.09525,0.21167 -0.211667,0.21167 -0.116416,0 -0.211666,-0.0953 -0.211666,-0.21167 z m 0,-0.84666 c 0,-0.11642 0.09525,-0.21167 0.211666,-0.21167 0.116417,0 0.211667,0.0952 0.211667,0.21167 0,0.11641 -0.09525,0.21166 -0.211667,0.21166 -0.116416,0 -0.211666,-0.0952 -0.211666,-0.21166 z m -12.276667,-0.49389 c 0,-0.0776 -0.15875,-0.14111 -0.352778,-0.14111 -0.436189,0 -0.444984,-0.19987 -0.03528,-0.8017 0.45272,-0.665 0.76647,-0.61613 0.84372,0.13142 0.03409,0.32985 0.03396,0.6791 -2.91e-4,0.77611 -0.07385,0.20927 -0.455382,0.23883 -0.455382,0.0353 z m 0,-0.64333 c 0,-0.121 -0.0635,-0.18075 -0.141111,-0.13278 -0.07761,0.048 -0.141111,0.14696 -0.141111,0.21999 0,0.073 0.0635,0.13279 0.141111,0.13279 0.07761,0 0.141111,-0.099 0.141111,-0.22 z m 1.552223,0.50222 c 0,-0.15679 -0.09407,-0.28222 -0.211667,-0.28222 -0.116417,0 -0.211667,-0.0635 -0.211667,-0.14112 0,-0.0776 0.09525,-0.14111 0.211667,-0.14111 0.116417,0 0.211667,-0.0952 0.211667,-0.21166 0,-0.11642 0.0635,-0.21167 0.141111,-0.21167 0.07761,0 0.141111,0.0952 0.141111,0.21167 0,0.11641 0.09525,0.21166 0.211666,0.21166 0.116417,0 0.211667,0.0635 0.211667,0.14111 0,0.0776 -0.09525,0.14112 -0.211667,0.14112 -0.117592,0 -0.211666,0.12543 -0.211666,0.28222 0,0.15522 -0.0635,0.28222 -0.141111,0.28222 -0.07761,0 -0.141111,-0.127 -0.141111,-0.28222 z M 26.67,271.31323 c 0,-0.11642 0.09525,-0.21167 0.211666,-0.21167 0.116417,0 0.211667,0.0953 0.211667,0.21167 0,0.11642 -0.09525,0.21167 -0.211667,0.21167 -0.116416,0 -0.211666,-0.0953 -0.211666,-0.21167 z m 0,-0.84667 c 0,-0.11641 0.09525,-0.21166 0.211666,-0.21166 0.116417,0 0.211667,0.0952 0.211667,0.21166 0,0.11642 -0.09525,0.21167 -0.211667,0.21167 -0.116416,0 -0.211666,-0.0952 -0.211666,-0.21167 z m 27.94,6.13834 c 0,-5.92667 -0.02646,-6.77334 -0.211667,-6.77334 -0.116416,0 -0.211666,-0.0953 -0.211666,-0.21166 0,-0.11642 0.09525,-0.21167 0.211666,-0.21167 0.185209,0 0.211667,-0.84667 0.211667,-6.77333 v -6.77334 h -6.773333 -6.773334 v 13.75834 13.75833 H 47.836667 54.61 Z m -13.123333,-6.985 c 0,-0.11642 0.09525,-0.21167 0.211666,-0.21167 0.116417,0 0.211667,0.0953 0.211667,0.21167 0,0.11641 -0.09525,0.21166 -0.211667,0.21166 -0.116416,0 -0.211666,-0.0953 -0.211666,-0.21166 z m 0.846666,0 c 0,-0.11642 0.09525,-0.21167 0.211667,-0.21167 0.116417,0 0.211667,0.0953 0.211667,0.21167 0,0.11641 -0.09525,0.21166 -0.211667,0.21166 -0.116417,0 -0.211667,-0.0953 -0.211667,-0.21166 z m 0.846667,0 c 0,-0.11642 0.09525,-0.21167 0.211667,-0.21167 0.116416,0 0.211666,0.0953 0.211666,0.21167 0,0.11641 -0.09525,0.21166 -0.211666,0.21166 -0.116417,0 -0.211667,-0.0953 -0.211667,-0.21166 z m 0.846667,0 c 0,-0.11642 0.09525,-0.21167 0.211666,-0.21167 0.116417,0 0.211667,0.0953 0.211667,0.21167 0,0.11641 -0.09525,0.21166 -0.211667,0.21166 -0.116416,0 -0.211666,-0.0953 -0.211666,-0.21166 z m 0.846666,0 c 0,-0.11642 0.09525,-0.21167 0.211667,-0.21167 0.116417,0 0.211667,0.0953 0.211667,0.21167 0,0.11641 -0.09525,0.21166 -0.211667,0.21166 -0.116417,0 -0.211667,-0.0953 -0.211667,-0.21166 z m 0.846667,0 c 0,-0.11642 0.09525,-0.21167 0.211667,-0.21167 0.116416,0 0.211666,0.0953 0.211666,0.21167 0,0.11641 -0.09525,0.21166 -0.211666,0.21166 -0.116417,0 -0.211667,-0.0953 -0.211667,-0.21166 z m 0.846667,0 c 0,-0.11642 0.09525,-0.21167 0.211666,-0.21167 0.116417,0 0.211667,0.0953 0.211667,0.21167 0,0.11641 -0.09525,0.21166 -0.211667,0.21166 -0.116416,0 -0.211666,-0.0953 -0.211666,-0.21166 z m 0.846666,0 c 0,-0.11642 0.09525,-0.21167 0.211667,-0.21167 0.116417,0 0.211667,0.0953 0.211667,0.21167 0,0.11641 -0.09525,0.21166 -0.211667,0.21166 -0.116417,0 -0.211667,-0.0953 -0.211667,-0.21166 z m 0.846667,0 c 0,-0.11642 0.09525,-0.21167 0.211667,-0.21167 0.116416,0 0.211666,0.0953 0.211666,0.21167 0,0.11641 -0.09525,0.21166 -0.211666,0.21166 -0.116417,0 -0.211667,-0.0953 -0.211667,-0.21166 z m 0.846667,0 c 0,-0.11642 0.09525,-0.21167 0.211666,-0.21167 0.116417,0 0.211667,0.0953 0.211667,0.21167 0,0.11641 -0.09525,0.21166 -0.211667,0.21166 -0.116416,0 -0.211666,-0.0953 -0.211666,-0.21166 z m 0.846666,0 c 0,-0.11642 0.09525,-0.21167 0.211667,-0.21167 0.116417,0 0.211667,0.0953 0.211667,0.21167 0,0.11641 -0.09525,0.21166 -0.211667,0.21166 -0.116417,0 -0.211667,-0.0953 -0.211667,-0.21166 z m 0.846667,0 c 0,-0.11642 0.09525,-0.21167 0.211667,-0.21167 0.116416,0 0.211666,0.0953 0.211666,0.21167 0,0.11641 -0.09525,0.21166 -0.211666,0.21166 -0.116417,0 -0.211667,-0.0953 -0.211667,-0.21166 z m 0.846667,0 c 0,-0.11642 0.09525,-0.21167 0.211666,-0.21167 0.116417,0 0.211667,0.0953 0.211667,0.21167 0,0.11641 -0.09525,0.21166 -0.211667,0.21166 -0.116416,0 -0.211666,-0.0953 -0.211666,-0.21166 z m 0.846666,0 c 0,-0.11642 0.09525,-0.21167 0.211667,-0.21167 0.116417,0 0.211667,0.0953 0.211667,0.21167 0,0.11641 -0.09525,0.21166 -0.211667,0.21166 -0.116417,0 -0.211667,-0.0953 -0.211667,-0.21166 z m 0.846667,0 c 0,-0.11642 0.09525,-0.21167 0.211667,-0.21167 0.116416,0 0.211666,0.0953 0.211666,0.21167 0,0.11641 -0.09525,0.21166 -0.211666,0.21166 -0.116417,0 -0.211667,-0.0953 -0.211667,-0.21166 z M 41.756809,257.60879 c -0.183481,-0.22303 -0.161772,-0.23511 0.269079,-0.14977 0.396946,0.0786 0.460843,0.0553 0.417552,-0.15259 -0.03339,-0.1603 -0.162333,-0.23322 -0.371769,-0.21023 -0.282432,0.031 -0.315383,-0.0194 -0.276439,-0.42333 0.03888,-0.40317 0.09959,-0.46387 0.502822,-0.50275 0.340699,-0.0328 0.458613,0.0125 0.458613,0.17639 0,0.12653 -0.120349,0.22061 -0.282221,0.22061 -0.155223,0 -0.282223,0.0564 -0.282223,0.12543 0,0.069 0.102336,0.11661 0.227415,0.10583 0.125079,-0.0108 0.299379,0.0915 0.387334,0.22735 0.360571,0.55679 -0.62266,1.10269 -1.050163,0.58306 z m 1.987635,-0.195 c 0,-0.1568 -0.09407,-0.28223 -0.211667,-0.28223 -0.116417,0 -0.211667,-0.0635 -0.211667,-0.14111 0,-0.0776 0.09525,-0.14111 0.211667,-0.14111 0.116417,0 0.211667,-0.0953 0.211667,-0.21167 0,-0.11641 0.0635,-0.21166 0.141113,-0.21166 0.07761,0 0.14111,0.0953 0.14111,0.21166 0,0.11642 0.09525,0.21167 0.211666,0.21167 0.116417,0 0.211667,0.0635 0.211667,0.14111 0,0.0776 -0.09525,0.14111 -0.211667,0.14111 -0.117591,0 -0.211666,0.12543 -0.211666,0.28223 0,0.15522 -0.0635,0.28222 -0.14111,0.28222 -0.07761,0 -0.141113,-0.127 -0.141113,-0.28222 z M 26.67,262.6349 c 0,-5.92667 -0.02646,-6.77334 -0.211667,-6.77334 -0.116417,0 -0.211667,-0.0952 -0.211667,-0.21166 0,-0.11642 0.09525,-0.21167 0.211667,-0.21167 0.185208,0 0.211667,-0.84667 0.211667,-6.77333 v -6.77334 h -6.773333 -6.773334 v 13.75834 13.75833 H 19.896667 26.67 Z m -13.123333,-6.985 c 0,-0.11642 0.09525,-0.21167 0.211666,-0.21167 0.116417,0 0.211667,0.0952 0.211667,0.21167 0,0.11641 -0.09525,0.21166 -0.211667,0.21166 -0.116416,0 -0.211666,-0.0952 -0.211666,-0.21166 z m 0.846666,0 c 0,-0.11642 0.09525,-0.21167 0.211667,-0.21167 0.116417,0 0.211667,0.0952 0.211667,0.21167 0,0.11641 -0.09525,0.21166 -0.211667,0.21166 -0.116417,0 -0.211667,-0.0952 -0.211667,-0.21166 z m 0.846667,0 c 0,-0.11642 0.09525,-0.21167 0.211667,-0.21167 0.116416,0 0.211666,0.0952 0.211666,0.21167 0,0.11641 -0.09525,0.21166 -0.211666,0.21166 -0.116417,0 -0.211667,-0.0952 -0.211667,-0.21166 z m 0.846667,0 c 0,-0.11642 0.09525,-0.21167 0.211666,-0.21167 0.116417,0 0.211667,0.0952 0.211667,0.21167 0,0.11641 -0.09525,0.21166 -0.211667,0.21166 -0.116416,0 -0.211666,-0.0952 -0.211666,-0.21166 z m 0.846666,0 c 0,-0.11642 0.09525,-0.21167 0.211667,-0.21167 0.116417,0 0.211667,0.0952 0.211667,0.21167 0,0.11641 -0.09525,0.21166 -0.211667,0.21166 -0.116417,0 -0.211667,-0.0952 -0.211667,-0.21166 z m 0.846667,0 c 0,-0.11642 0.09525,-0.21167 0.211667,-0.21167 0.116416,0 0.211666,0.0952 0.211666,0.21167 0,0.11641 -0.09525,0.21166 -0.211666,0.21166 -0.116417,0 -0.211667,-0.0952 -0.211667,-0.21166 z m 0.846667,0 c 0,-0.11642 0.09525,-0.21167 0.211666,-0.21167 0.116417,0 0.211667,0.0952 0.211667,0.21167 0,0.11641 -0.09525,0.21166 -0.211667,0.21166 -0.116416,0 -0.211666,-0.0952 -0.211666,-0.21166 z m 0.846666,0 c 0,-0.11642 0.09525,-0.21167 0.211667,-0.21167 0.116417,0 0.211667,0.0952 0.211667,0.21167 0,0.11641 -0.09525,0.21166 -0.211667,0.21166 -0.116417,0 -0.211667,-0.0952 -0.211667,-0.21166 z m 0.846667,0 c 0,-0.11642 0.09525,-0.21167 0.211667,-0.21167 0.116416,0 0.211666,0.0952 0.211666,0.21167 0,0.11641 -0.09525,0.21166 -0.211666,0.21166 -0.116417,0 -0.211667,-0.0952 -0.211667,-0.21166 z m 0.846667,0 c 0,-0.11642 0.09525,-0.21167 0.211666,-0.21167 0.116417,0 0.211667,0.0952 0.211667,0.21167 0,0.11641 -0.09525,0.21166 -0.211667,0.21166 -0.116416,0 -0.211666,-0.0952 -0.211666,-0.21166 z m 0.846666,0 c 0,-0.11642 0.09525,-0.21167 0.211667,-0.21167 0.116417,0 0.211667,0.0952 0.211667,0.21167 0,0.11641 -0.09525,0.21166 -0.211667,0.21166 -0.116417,0 -0.211667,-0.0952 -0.211667,-0.21166 z m 0.846667,0 c 0,-0.11642 0.09525,-0.21167 0.211667,-0.21167 0.116416,0 0.211667,0.0952 0.211667,0.21167 0,0.11641 -0.09525,0.21166 -0.211667,0.21166 -0.116417,0 -0.211667,-0.0952 -0.211667,-0.21166 z m 0.846667,0 c 0,-0.11642 0.09525,-0.21167 0.211666,-0.21167 0.116417,0 0.211667,0.0952 0.211667,0.21167 0,0.11641 -0.09525,0.21166 -0.211667,0.21166 -0.116417,0 -0.211666,-0.0952 -0.211666,-0.21166 z m 0.846666,0 c 0,-0.11642 0.09525,-0.21167 0.211667,-0.21167 0.116416,0 0.211666,0.0952 0.211666,0.21167 0,0.11641 -0.09525,0.21166 -0.211666,0.21166 -0.116417,0 -0.211667,-0.0952 -0.211667,-0.21166 z m 0.846667,0 c 0,-0.11642 0.09525,-0.21167 0.211666,-0.21167 0.116417,0 0.211667,0.0952 0.211667,0.21167 0,0.11641 -0.09525,0.21166 -0.211667,0.21166 -0.116416,0 -0.211666,-0.0952 -0.211666,-0.21166 z M 13.826059,243.65204 c -0.2403,-0.28954 -0.05021,-0.45038 0.284928,-0.24108 0.323559,0.20207 0.57472,-0.0593 0.265147,-0.27592 -0.150391,-0.10523 -0.154488,-0.1523 -0.01808,-0.20765 0.325626,-0.13212 0.184587,-0.36293 -0.167741,-0.2745 -0.482934,0.12121 -0.59611,-0.1603 -0.146757,-0.36504 0.528276,-0.2407 0.836114,-0.005 0.874298,0.66829 0.01685,0.29726 -0.03855,0.62384 -0.123112,0.72573 -0.208167,0.25082 -0.7496,0.23415 -0.968685,-0.0298 z m 2.119497,-0.20825 c 0,-0.1568 -0.09407,-0.28223 -0.211667,-0.28223 -0.116417,0 -0.211667,-0.0635 -0.211667,-0.14111 0,-0.0776 0.09525,-0.14111 0.211667,-0.14111 0.116417,0 0.211667,-0.0953 0.211667,-0.21167 0,-0.11641 0.0635,-0.21166 0.141111,-0.21166 0.07761,0 0.141111,0.0953 0.141111,0.21166 0,0.11642 0.09525,0.21167 0.211666,0.21167 0.116417,0 0.211667,0.0635 0.211667,0.14111 0,0.0776 -0.09525,0.14111 -0.211667,0.14111 -0.117592,0 -0.211666,0.12543 -0.211666,0.28223 0,0.15522 -0.0635,0.28222 -0.141111,0.28222 -0.07761,0 -0.141111,-0.127 -0.141111,-0.28222 z M 40.64,262.6349 c 0,-5.92667 -0.02646,-6.77334 -0.211667,-6.77334 -0.116416,0 -0.211666,-0.0952 -0.211666,-0.21166 0,-0.11642 0.09525,-0.21167 0.211666,-0.21167 0.185209,0 0.211667,-0.84667 0.211667,-6.77333 v -6.77334 h -6.773334 -6.773333 v 13.75834 13.75833 H 33.866666 40.64 Z m -13.123334,-6.985 c 0,-0.11642 0.09525,-0.21167 0.211667,-0.21167 0.116417,0 0.211667,0.0952 0.211667,0.21167 0,0.11641 -0.09525,0.21166 -0.211667,0.21166 -0.116417,0 -0.211667,-0.0952 -0.211667,-0.21166 z m 0.846667,0 c 0,-0.11642 0.09525,-0.21167 0.211667,-0.21167 0.116416,0 0.211666,0.0952 0.211666,0.21167 0,0.11641 -0.09525,0.21166 -0.211666,0.21166 -0.116417,0 -0.211667,-0.0952 -0.211667,-0.21166 z m 0.846667,0 c 0,-0.11642 0.09525,-0.21167 0.211666,-0.21167 0.116417,0 0.211667,0.0952 0.211667,0.21167 0,0.11641 -0.09525,0.21166 -0.211667,0.21166 -0.116416,0 -0.211666,-0.0952 -0.211666,-0.21166 z m 0.846666,0 c 0,-0.11642 0.09525,-0.21167 0.211667,-0.21167 0.116417,0 0.211667,0.0952 0.211667,0.21167 0,0.11641 -0.09525,0.21166 -0.211667,0.21166 -0.116417,0 -0.211667,-0.0952 -0.211667,-0.21166 z m 0.846667,0 c 0,-0.11642 0.09525,-0.21167 0.211667,-0.21167 0.116416,0 0.211666,0.0952 0.211666,0.21167 0,0.11641 -0.09525,0.21166 -0.211666,0.21166 -0.116417,0 -0.211667,-0.0952 -0.211667,-0.21166 z m 0.846667,0 c 0,-0.11642 0.09525,-0.21167 0.211666,-0.21167 0.116417,0 0.211667,0.0952 0.211667,0.21167 0,0.11641 -0.09525,0.21166 -0.211667,0.21166 -0.116416,0 -0.211666,-0.0952 -0.211666,-0.21166 z m 0.846666,0 c 0,-0.11642 0.09525,-0.21167 0.211667,-0.21167 0.116417,0 0.211667,0.0952 0.211667,0.21167 0,0.11641 -0.09525,0.21166 -0.211667,0.21166 -0.116417,0 -0.211667,-0.0952 -0.211667,-0.21166 z m 0.846667,0 c 0,-0.11642 0.09525,-0.21167 0.211667,-0.21167 0.116416,0 0.211666,0.0952 0.211666,0.21167 0,0.11641 -0.09525,0.21166 -0.211666,0.21166 -0.116417,0 -0.211667,-0.0952 -0.211667,-0.21166 z m 0.846667,0 c 0,-0.11642 0.09525,-0.21167 0.211666,-0.21167 0.116417,0 0.211667,0.0952 0.211667,0.21167 0,0.11641 -0.09525,0.21166 -0.211667,0.21166 -0.116416,0 -0.211666,-0.0952 -0.211666,-0.21166 z m 0.846666,0 c 0,-0.11642 0.09525,-0.21167 0.211667,-0.21167 0.116417,0 0.211667,0.0952 0.211667,0.21167 0,0.11641 -0.09525,0.21166 -0.211667,0.21166 -0.116417,0 -0.211667,-0.0952 -0.211667,-0.21166 z m 0.846667,0 c 0,-0.11642 0.09525,-0.21167 0.211667,-0.21167 0.116416,0 0.211666,0.0952 0.211666,0.21167 0,0.11641 -0.09525,0.21166 -0.211666,0.21166 -0.116417,0 -0.211667,-0.0952 -0.211667,-0.21166 z m 0.846667,0 c 0,-0.11642 0.09525,-0.21167 0.211666,-0.21167 0.116417,0 0.211667,0.0952 0.211667,0.21167 0,0.11641 -0.09525,0.21166 -0.211667,0.21166 -0.116416,0 -0.211666,-0.0952 -0.211666,-0.21166 z m 0.846666,0 c 0,-0.11642 0.09525,-0.21167 0.211667,-0.21167 0.116417,0 0.211667,0.0952 0.211667,0.21167 0,0.11641 -0.09525,0.21166 -0.211667,0.21166 -0.116417,0 -0.211667,-0.0952 -0.211667,-0.21166 z m 0.846667,0 c 0,-0.11642 0.09525,-0.21167 0.211667,-0.21167 0.116416,0 0.211666,0.0952 0.211666,0.21167 0,0.11641 -0.09525,0.21166 -0.211666,0.21166 -0.116417,0 -0.211667,-0.0952 -0.211667,-0.21166 z m 0.846667,0 c 0,-0.11642 0.09525,-0.21167 0.211667,-0.21167 0.116416,0 0.211666,0.0952 0.211666,0.21167 0,0.11641 -0.09525,0.21166 -0.211666,0.21166 -0.116417,0 -0.211667,-0.0952 -0.211667,-0.21166 z M 27.793299,243.64871 c -0.172914,-0.20834 -0.149524,-0.22753 0.223745,-0.18352 0.298299,0.0352 0.416845,-0.0111 0.416845,-0.16252 0,-0.13729 -0.114702,-0.19929 -0.326435,-0.17647 -0.28897,0.0312 -0.32136,-0.0174 -0.282223,-0.42333 0.03888,-0.40317 0.09959,-0.46387 0.502825,-0.50275 0.340696,-0.0328 0.45861,0.0125 0.45861,0.17639 0,0.12653 -0.120348,0.22061 -0.282223,0.22061 -0.15522,0 -0.28222,0.0564 -0.28222,0.12543 0,0.069 0.102335,0.11661 0.227414,0.10583 0.125079,-0.0108 0.299379,0.0915 0.387334,0.22735 0.355577,0.54908 -0.620059,1.10341 -1.043672,0.59298 z m 2.263367,-0.20492 c 0,-0.1568 -0.09408,-0.28223 -0.211666,-0.28223 -0.116417,0 -0.211667,-0.0635 -0.211667,-0.14111 0,-0.0776 0.09525,-0.14111 0.211667,-0.14111 0.116416,0 0.211666,-0.0953 0.211666,-0.21167 0,-0.11641 0.0635,-0.21166 0.141113,-0.21166 0.07761,0 0.14111,0.0953 0.14111,0.21166 0,0.11642 0.09525,0.21167 0.211667,0.21167 0.116417,0 0.211667,0.0635 0.211667,0.14111 0,0.0776 -0.09525,0.14111 -0.211667,0.14111 -0.117594,0 -0.211667,0.12543 -0.211667,0.28223 0,0.15522 -0.0635,0.28222 -0.14111,0.28222 -0.07761,0 -0.141113,-0.127 -0.141113,-0.28222 z M 54.61,248.6649 v -6.77334 h -6.773333 -6.773334 v 6.77334 6.77333 H 47.836667 54.61 Z m -12.464814,-4.89186 c -0.05174,-0.0517 -0.09408,-0.27024 -0.09408,-0.48556 0,-0.21531 -0.06453,-0.43137 -0.143412,-0.48012 -0.17935,-0.11084 -0.06473,-0.30555 0.292383,-0.49667 0.257657,-0.13789 0.274365,-0.095 0.274365,0.7048 0,0.78688 -0.09087,0.99595 -0.32926,0.75755 z m 1.458147,-0.32925 c 0,-0.1568 -0.09408,-0.28223 -0.211666,-0.28223 -0.116417,0 -0.211667,-0.0635 -0.211667,-0.14111 0,-0.0776 0.09525,-0.14111 0.211667,-0.14111 0.116416,0 0.211666,-0.0953 0.211666,-0.21167 0,-0.11641 0.0635,-0.21166 0.141111,-0.21166 0.07761,0 0.141113,0.0953 0.141113,0.21166 0,0.11642 0.09525,0.21167 0.211666,0.21167 0.116417,0 0.211667,0.0635 0.211667,0.14111 0,0.0776 -0.09525,0.14111 -0.211667,0.14111 -0.117594,0 -0.211666,0.12543 -0.211666,0.28223 0,0.15522 -0.0635,0.28222 -0.141113,0.28222 -0.07761,0 -0.141111,-0.127 -0.141111,-0.28222 z"
       id="path1476"
       inkscape:connector-curvature="0" />
  </g>
</svg>
