<svg xmlns="http://www.w3.org/2000/svg" width="16" height="16"><defs><style id="current-color-scheme"></style></defs><path d="M11.695 1.342c-.26-.125-.507-.2-.74-.226a1.765 1.765 0 0 0-.652.048 1.37 1.37 0 0 0-.52.278c-.15.128-.269.285-.358.47a1.845 1.845 0 0 0-.19.808c.002.055.001.103.005.126l.025.246a.439.439 0 0 1-.036.264c-.035.064-.1.101-.195.11a.488.488 0 0 1-.143-.006L5.02 1.596l-1.262 2.62a.484.484 0 0 0-.007.143c.01.096.047.16.111.195.062.037.15.048.264.037l.247-.026c.022-.004.07-.003.126-.008.055-.003.124.001.206.012.08.007.17.026.275.055.1.026.21.068.327.124.185.09.342.209.47.359.129.15.221.323.278.52.056.195.072.412.048.65-.026.234-.1.481-.226.74-.125.26-.267.476-.428.649a1.635 1.635 0 0 1-.516.374 1.28 1.28 0 0 1-.571.11 1.493 1.493 0 0 1-.594-.154 2.34 2.34 0 0 1-.693-.504c-.037-.047-.051-.078-.063-.102l-.134-.208a.44.44 0 0 0-.194-.184c-.066-.03-.14-.019-.221.034a.398.398 0 0 0-.057.044c-.02.02-.037.034-.05.05L.5 10.98l3.871 1.864a.477.477 0 0 0 .143.007c.096-.012.16-.048.195-.111a.442.442 0 0 0 .036-.265l-.025-.246c-.004-.023-.002-.07-.005-.126-.003-.055 0-.124.01-.206a1.84 1.84 0 0 1 .18-.602 1.43 1.43 0 0 1 .359-.47 1.37 1.37 0 0 1 .52-.278c.196-.056.413-.072.65-.048.235.027.481.101.74.226.26.125.476.268.649.428.168.161.293.333.374.516.081.183.118.374.111.571a1.486 1.486 0 0 1-.154.595 2.356 2.356 0 0 1-.353.538 1.747 1.747 0 0 1-.151.154c-.048.037-.078.051-.102.064l-.21.134a.442.442 0 0 0-.183.193c-.03.067-.017.14.035.221a.47.47 0 0 0 .044.058c.018.019.034.038.05.05L9.886 15.5l1.856-3.854c.014-.015.03-.034.05-.05a.28.28 0 0 1 .058-.044c.08-.052.154-.064.22-.034a.444.444 0 0 1 .194.184l.134.209c.012.022.026.054.064.102a2.31 2.31 0 0 0 .692.504c.199.096.397.147.594.154.198.008.388-.03.571-.11.183-.082.356-.206.517-.375a2.61 2.61 0 0 0 .428-.648c.125-.26.2-.506.225-.74a1.715 1.715 0 0 0-.048-.651 1.368 1.368 0 0 0-.277-.52 1.43 1.43 0 0 0-.47-.358 1.832 1.832 0 0 0-.603-.18 1.033 1.033 0 0 0-.206-.011c-.055.002-.103.001-.125.007l-.247.027a.434.434 0 0 1-.264-.038c-.064-.034-.101-.099-.11-.195a.48.48 0 0 1 .006-.143l1.261-2.62-2.602-1.253c-.016-.015-.032-.03-.05-.05a.442.442 0 0 1-.044-.057c-.052-.081-.064-.155-.035-.222a.441.441 0 0 1 .184-.193l.208-.134a.475.475 0 0 0 .103-.064 2.355 2.355 0 0 0 .504-.692c.095-.199.147-.397.154-.594a1.278 1.278 0 0 0-.111-.571 1.637 1.637 0 0 0-.374-.517 2.607 2.607 0 0 0-.648-.428z" fill="currentColor" color="#f7f7f7"/></svg>