<svg xmlns="http://www.w3.org/2000/svg" style="isolation:isolate" width="256" height="256"><defs><filter id="a" width="270.648" height="254.338" x="-7.32" y="2.95" filterUnits="userSpaceOnUse"><feGaussianBlur xmlns="http://www.w3.org/2000/svg" in="SourceGraphic" stdDeviation="4.294"/><feOffset xmlns="http://www.w3.org/2000/svg" dy="4" result="pf_100_offsetBlur"/><feFlood xmlns="http://www.w3.org/2000/svg" flood-opacity=".4"/><feComposite xmlns="http://www.w3.org/2000/svg" in2="pf_100_offsetBlur" operator="in" result="pf_100_dropShadow"/><feBlend xmlns="http://www.w3.org/2000/svg" in="SourceGraphic" in2="pf_100_dropShadow"/></filter></defs><g filter="url(#a)"><linearGradient id="b" x1=".51" x2=".512" y1="1.06" y2=".158" gradientTransform="matrix(244.648 0 0 228.338 5.68 11.95)" gradientUnits="userSpaceOnUse"><stop offset="0%" stop-color="#00d2ff"/><stop offset="100%" stop-color="#928dab"/></linearGradient><path fill="url(#b)" d="M165.689 11.95c74.056 0 84.639 10.557 84.639 84.544v59.251c0 73.986-10.583 84.543-84.639 84.543h-75.37c-74.055 0-84.639-10.557-84.639-84.543V96.494c0-73.987 10.584-84.544 84.639-84.544h75.37z"/></g><g opacity=".4"><linearGradient id="c" x1=".517" x2=".517" y2="1"><stop offset="0%" stop-color="#fff"/><stop offset="12.5%" stop-opacity=".098" stop-color="#fff"/><stop offset="92.5%" stop-opacity=".098"/><stop offset="100%" stop-opacity=".498"/></linearGradient><path fill="none" stroke="url(#c)" stroke-linecap="round" stroke-linejoin="round" stroke-width="4.077" d="M165.685 11.947c74.055 0 84.639 10.557 84.639 84.544v59.251c0 73.986-10.584 84.543-84.639 84.543h-75.37c-74.055 0-84.639-10.557-84.639-84.543V96.491c0-73.987 10.584-84.544 84.639-84.544h75.37z" vector-effect="non-scaling-stroke"/></g><path fill="#F4F4F4" d="M183.448 41.009c-24.101.276-61.285 6.934-72.908 20.693h-.036c-9.274 13.396-10.445 65.82-8.036 62.59 19.738-26.614 67.042-59.484 95.298-72.693 15.255-7.164 4.428-10.806-14.317-10.59h-.001zM93.42 70.952c-6.089 1.028-30.532 17.769-24.904 47.85l.012.009c5.342 15.367 39.563 35.805 38.379 31.959-9.72-31.721-13.236-52.252-12.152-79.299.021-.502-.465-.669-1.335-.522v.003zm66.748 13.472c-16.312 1.166-44.995 28.761-40.965 28.603 33.364-1.143 54.204.748 80.235 8.787 3.861 1.19-4.17-34.687-39.27-37.39zm-17.649 28.721c-.849.046-1.214.279-.927.687 19.067 27.212 28.767 45.635 36.106 71.722 1.089 3.869 27.06-22.305 10.286-53.056-8.599-11.364-39.406-19.66-45.453-19.353h-.013.001zm-88.344 5.182c-3.138-.409-10.499 33.639 18.816 50.945 15.158 6.139 53.172-5.954 49.484-7.625-30.427-13.626-48.264-24.538-68.023-43.177a.449.449 0 0 0-.277-.142v-.001zm98.281 16.626c-.188-.045-.322.046-.385.284-8.446 32.09-16.244 51.4-31.425 73.891-2.268 3.319 34.63 5.96 47.258-26.705l.013.009c3.32-14.884-12.632-46.747-15.46-47.482l-.001.003zm-9.276 20.504c-.076-.024-.163-.006-.276.045-30.125 14.313-49.998 20.869-77.119 23.824-4.004.458 17.765 30.176 51.036 18.701l.035-.008c14.03-7.322 28.727-41.964 26.336-42.561h-.012v-.001z" opacity=".05"/><defs><filter id="d" width="132.722" height="146.095" x="61.64" y="54.95" filterUnits="userSpaceOnUse"><feGaussianBlur xmlns="http://www.w3.org/2000/svg" in="SourceGraphic" stdDeviation=".429"/><feOffset xmlns="http://www.w3.org/2000/svg" dy="2" result="pf_100_offsetBlur"/><feFlood xmlns="http://www.w3.org/2000/svg" flood-opacity=".2"/><feComposite xmlns="http://www.w3.org/2000/svg" in2="pf_100_offsetBlur" operator="in" result="pf_100_dropShadow"/><feBlend xmlns="http://www.w3.org/2000/svg" in="SourceGraphic" in2="pf_100_dropShadow"/></filter></defs><path fill="#F4F4F4" d="M174.347 54.96c-20.146.231-51.226 5.796-60.941 17.297h-.03c-7.752 11.197-8.73 55.015-6.717 52.316 16.498-22.246 56.038-49.72 79.655-60.762 12.751-5.987 3.702-9.031-11.967-8.851zM99.096 79.988c-5.089.859-25.521 14.853-20.816 39.995l.01.009c4.466 12.845 33.069 29.928 32.079 26.713-8.124-26.514-11.063-43.674-10.156-66.282.016-.419-.39-.559-1.117-.436v.001zm55.792 11.26c-13.634.976-37.609 24.04-34.241 23.908 27.888-.955 45.306.625 67.064 7.345 3.228.995-3.485-28.993-32.823-31.253zm-14.752 24.007c-.71.038-1.015.233-.775.575 15.937 22.745 24.045 38.143 30.179 59.948.911 3.235 22.619-18.643 8.598-44.347-7.188-9.498-32.938-16.432-37.992-16.176h-.011.001zm-73.843 4.332c-2.623-.342-8.775 28.117 15.728 42.582 12.669 5.131 44.443-4.977 41.361-6.373-25.432-11.39-40.342-20.511-56.858-36.09a.369.369 0 0 0-.231-.119zm82.149 13.897c-.158-.039-.27.037-.322.237-7.06 26.822-13.578 42.963-26.267 61.762-1.896 2.774 28.945 4.981 39.501-22.322l.011.009c2.775-12.441-10.559-39.074-12.922-39.688l-.001.002zm-7.753 17.138c-.065-.021-.137-.006-.232.037-25.179 11.964-41.79 17.444-64.46 19.914-3.347.383 14.849 25.222 42.659 15.631l.03-.009c11.726-6.119 24.011-35.075 22.012-35.574h-.01l.001.001z" opacity=".9" filter="url(#d)"/></svg>