<?xml version="1.0" standalone="no"?><!-- Generator: Gravit.io --><svg xmlns="http://www.w3.org/2000/svg" xmlns:xlink="http://www.w3.org/1999/xlink" style="isolation:isolate" viewBox="0 0 256 256" width="256" height="256"><defs><clipPath id="_clipPath_IrKymh2Msgh0yLJv5A27U1hj1Du9Pj3E"><rect width="256" height="256"/></clipPath></defs><g clip-path="url(#_clipPath_IrKymh2Msgh0yLJv5A27U1hj1Du9Pj3E)"><g id="Group"><g opacity="0.1"><path d=" M 162.537 16.432 C 235.185 16.432 245.568 26.789 245.568 99.369 L 245.568 157.494 C 245.568 230.075 235.185 240.432 162.537 240.432 L 88.599 240.432 C 15.951 240.432 5.568 230.075 5.568 157.494 L 5.568 99.369 C 5.568 26.789 15.951 16.432 88.599 16.432 L 162.537 16.432 Z " fill="none" vector-effect="non-scaling-stroke" stroke-width="4" stroke="rgb(0,0,0)" stroke-linejoin="round" stroke-linecap="round" stroke-miterlimit="4"/></g><defs><filter id="aVr1keP3bZ9awF05u61b7znqPAx6dQTy" x="-200%" y="-200%" width="400%" height="400%"><feGaussianBlur xmlns="http://www.w3.org/2000/svg" stdDeviation="1.16"/></filter></defs><g opacity="0.1" filter="url(#aVr1keP3bZ9awF05u61b7znqPAx6dQTy)"><path d=" M 162.537 16.432 C 235.185 16.432 245.568 26.789 245.568 99.37 L 245.568 157.495 C 245.568 230.075 235.185 240.432 162.537 240.432 L 88.599 240.432 C 15.951 240.432 5.568 230.075 5.568 157.495 L 5.568 99.37 C 5.568 26.789 15.951 16.432 88.599 16.432 L 162.537 16.432 Z " fill="rgb(0,0,0)"/></g><defs><filter id="dFqxmylpzqM5EbDvTzIaXmles7C24eDc" x="-200%" y="-200%" width="400%" height="400%"><feGaussianBlur xmlns="http://www.w3.org/2000/svg" stdDeviation="2.32"/></filter></defs><g opacity="0.2" filter="url(#dFqxmylpzqM5EbDvTzIaXmles7C24eDc)"><path d=" M 162.537 18.432 C 235.185 18.432 245.568 28.789 245.568 101.37 L 245.568 159.495 C 245.568 232.075 235.185 242.432 162.537 242.432 L 88.599 242.432 C 15.951 242.432 5.568 232.075 5.568 159.495 L 5.568 101.37 C 5.568 28.789 15.951 18.432 88.599 18.432 L 162.537 18.432 Z " fill="rgb(0,0,0)"/></g><linearGradient id="_lgradient_0" x1="5.971049556663958%" y1="-5.07494936379409%" x2="89.86328724975388%" y2="93.08117423614421%"><stop offset="0%" stop-opacity="1" style="stop-color:rgb(226,226,226)"/><stop offset="100%" stop-opacity="1" style="stop-color:rgb(251,251,251)"/></linearGradient><path d=" M 162.537 16.432 C 235.185 16.432 245.568 26.789 245.568 99.369 L 245.568 157.494 C 245.568 230.075 235.185 240.432 162.537 240.432 L 88.599 240.432 C 15.951 240.432 5.568 230.075 5.568 157.494 L 5.568 99.369 C 5.568 26.789 15.951 16.432 88.599 16.432 L 162.537 16.432 Z " fill="url(#_lgradient_0)"/><linearGradient id="_lgradient_1" x1="0%" y1="50%" x2="67.53493044438788%" y2="123.7498011514044%"><stop offset="0%" stop-opacity="1" style="stop-color:rgb(90,27,27)"/><stop offset="94.70484186633472%" stop-opacity="1" style="stop-color:rgb(121,44,44)"/></linearGradient><path d=" M 162.537 16.432 C 235.185 16.432 245.568 26.789 245.568 99.369 L 245.568 157.494 C 245.568 230.075 235.185 240.432 162.537 240.432 L 88.599 240.432 C 15.951 240.432 5.568 230.075 5.568 157.494 L 5.568 99.369 C 5.568 26.789 15.951 16.432 88.599 16.432 L 162.537 16.432 Z  M 162.55 26.43 C 166.77 26.43 171 26.47 175.22 26.56 C 178.95 26.64 182.67 26.79 186.39 27 C 189.63 27.19 192.87 27.45 196.09 27.81 C 198.86 28.11 201.61 28.51 204.34 29.02 C 206.65 29.44 208.93 29.99 211.17 30.65 C 213.04 31.19 214.87 31.87 216.64 32.66 C 218.12 33.33 219.55 34.12 220.9 35.02 C 222.09 35.83 223.21 36.74 224.23 37.76 C 225.25 38.78 226.16 39.89 226.97 41.08 C 227.87 42.43 228.67 43.85 229.33 45.33 C 230.13 47.1 230.8 48.93 231.35 50.79 C 232.01 53.04 232.55 55.31 232.98 57.61 C 233.48 60.34 233.89 63.09 234.19 65.85 C 234.54 69.07 234.81 72.3 235 75.54 C 235.21 79.25 235.36 82.97 235.44 86.69 C 235.53 90.92 235.57 95.14 235.57 99.36 C 235.57 99.36 235.57 99.37 235.57 99.37 L 235.57 157.49 C 235.57 157.5 235.57 157.5 235.57 157.51 C 235.57 161.73 235.53 165.95 235.44 170.17 C 235.36 173.89 235.21 177.61 235 181.33 C 234.81 184.56 234.54 187.79 234.19 191.01 C 233.89 193.77 233.48 196.52 232.98 199.25 C 232.55 201.55 232.01 203.83 231.35 206.07 C 230.8 207.94 230.13 209.76 229.33 211.53 C 228.67 213.01 227.87 214.43 226.97 215.78 C 226.16 216.97 225.25 218.09 224.23 219.11 C 223.21 220.12 222.09 221.04 220.9 221.84 C 219.55 222.75 218.12 223.54 216.64 224.2 C 214.87 225 213.04 225.67 211.17 226.22 C 208.93 226.88 206.65 227.42 204.34 227.85 C 201.61 228.35 198.86 228.76 196.09 229.06 C 192.87 229.41 189.63 229.68 186.39 229.86 C 182.67 230.07 178.95 230.22 175.22 230.3 C 171 230.39 166.77 230.44 162.55 230.43 C 162.54 230.43 162.54 230.43 162.54 230.43 L 88.6 230.43 C 88.6 230.43 88.59 230.43 88.59 230.43 C 84.36 230.44 80.14 230.39 75.91 230.3 C 72.19 230.22 68.46 230.07 64.74 229.86 C 61.5 229.68 58.27 229.41 55.04 229.06 C 52.28 228.76 49.53 228.35 46.79 227.85 C 44.49 227.42 42.21 226.88 39.96 226.22 C 38.1 225.67 36.27 225 34.49 224.2 C 33.01 223.54 31.59 222.75 30.24 221.84 C 29.04 221.04 27.93 220.12 26.91 219.11 C 25.89 218.09 24.97 216.97 24.17 215.78 C 23.26 214.43 22.47 213.01 21.8 211.53 C 21.01 209.76 20.33 207.94 19.79 206.07 C 19.13 203.83 18.58 201.55 18.16 199.25 C 17.65 196.52 17.25 193.77 16.95 191.01 C 16.59 187.79 16.32 184.56 16.14 181.33 C 15.93 177.61 15.78 173.89 15.7 170.17 C 15.61 165.95 15.56 161.73 15.57 157.51 C 15.57 157.5 15.57 157.5 15.57 157.49 L 15.57 99.37 C 15.57 99.37 15.57 99.36 15.57 99.36 C 15.56 95.14 15.61 90.92 15.7 86.69 C 15.78 82.97 15.93 79.25 16.14 75.54 C 16.32 72.3 16.59 69.07 16.95 65.85 C 17.25 63.09 17.65 60.34 18.16 57.61 C 18.58 55.31 19.13 53.04 19.79 50.79 C 20.33 48.93 21.01 47.1 21.8 45.33 C 22.47 43.85 23.26 42.43 24.17 41.08 C 24.97 39.89 25.89 38.78 26.91 37.76 C 27.93 36.74 29.04 35.83 30.24 35.02 C 31.59 34.12 33.01 33.33 34.49 32.66 C 36.27 31.87 38.1 31.19 39.96 30.65 C 42.21 29.99 44.49 29.44 46.79 29.02 C 49.53 28.51 52.28 28.11 55.04 27.81 C 58.27 27.45 61.5 27.19 64.74 27 C 68.46 26.79 72.19 26.64 75.91 26.56 C 80.14 26.47 84.36 26.43 88.59 26.43 C 88.59 26.43 88.6 26.43 88.6 26.43 L 162.54 26.43 C 162.54 26.43 162.54 26.43 162.55 26.43 Z " fill-rule="evenodd" fill="url(#_lgradient_1)"/><linearGradient id="_lgradient_2" x1="0%" y1="50%" x2="67.53493044438788%" y2="123.7498011514044%"><stop offset="0%" stop-opacity="1" style="stop-color:rgb(90,27,27)"/><stop offset="94.70484186633472%" stop-opacity="1" style="stop-color:rgb(121,44,44)"/></linearGradient><path d=" M 112.922 158.325 C 116.256 157.143 123.151 158.714 124.423 165.352 C 128.698 159.914 130.598 153.097 122.356 146.75 C 120.237 145.119 117.189 143.409 113.399 142.616 C 107.132 141.305 103.377 141.376 98.242 144.155 C 93.107 146.935 89.201 152.868 88.596 157.084 C 87.616 163.928 90.423 177.756 100.309 186.021 C 110.405 196.263 126.472 196.986 132.001 196.355 C 158.666 193.314 177.518 169.744 158.182 146.75 C 151.398 139.171 140.618 134.929 132.001 130.904 C 116.404 123.618 101.859 118.978 93.419 111.613 C 85.268 104.5 82.65 95.065 83.774 84.743 C 84.8 75.312 90.475 67.273 96.864 62.008 C 111.333 50.081 132.752 50.386 154.737 60.63 L 167.138 57.874 C 168.693 58.351 169.848 59.736 170.583 62.008 C 170.891 63.583 168.977 65.11 169.205 66.59 C 174.823 85.22 170.13 98.356 158.182 101.967 L 154.737 100.589 C 158.843 91.975 158.85 83.714 154.737 75.787 Q 141.166 59.383 124.423 59.941 C 89.582 61.101 91.457 96.735 119.6 104.723 C 123.897 106.904 145.054 114.286 151.981 117.68 Q 166.21 124.652 171.961 132.282 C 183.263 151.308 182.401 175.249 167.138 190.155 C 152.052 204.887 121.041 206.278 96.864 197.733 L 85.152 199.8 C 82.996 199.676 81.625 198.994 81.018 197.733 L 80.329 186.021 C 68.899 160.989 83.873 136.908 104.443 135.727 C 115.193 135.109 128.303 141.395 132.001 150.884 C 135.724 160.436 128.49 173.01 122.356 175.686 C 116.221 178.363 105.492 173.404 107.198 165.352 C 107.884 162.116 110.227 159.28 112.922 158.325 Z " fill="url(#_lgradient_2)"/><g opacity="0.5"><linearGradient id="_lgradient_3" x1="51.666666666666686%" y1="0%" x2="51.66666666666666%" y2="100.00000000000003%"><stop offset="0%" stop-opacity="1" style="stop-color:rgb(255,255,255)"/><stop offset="12.5%" stop-opacity="0.09803922" style="stop-color:rgb(255,255,255)"/><stop offset="92.500001%" stop-opacity="0" style="stop-color:rgb(0,0,0)"/><stop offset="100%" stop-opacity="0" style="stop-color:rgb(0,0,0)"/></linearGradient><path d=" M 162.537 16.432 C 235.185 16.432 245.568 26.789 245.568 99.37 L 245.568 157.495 C 245.568 230.075 235.185 240.432 162.537 240.432 L 88.599 240.432 C 15.951 240.432 5.568 230.075 5.568 157.495 L 5.568 99.37 C 5.568 26.789 15.951 16.432 88.599 16.432 L 162.537 16.432 Z " fill="none" vector-effect="non-scaling-stroke" stroke-width="4" stroke="url(#_lgradient_3)" stroke-linejoin="round" stroke-linecap="round" stroke-miterlimit="4"/></g></g></g></svg>