<?xml version="1.0" standalone="no"?><!-- Generator: Gravit.io --><svg xmlns="http://www.w3.org/2000/svg" xmlns:xlink="http://www.w3.org/1999/xlink" style="isolation:isolate" viewBox="0 0 256 256" width="256" height="256"><defs><clipPath id="_clipPath_mq1NUpz9mGKZ9PjzCmEzP2nMCOQNByoj"><rect width="256" height="256"/></clipPath></defs><g clip-path="url(#_clipPath_mq1NUpz9mGKZ9PjzCmEzP2nMCOQNByoj)"><g id="sigil"><defs><filter id="M3r2jHsuH8EwchHjK28cVGgUgzZYEEck" x="-200%" y="-200%" width="400%" height="400%"><feGaussianBlur xmlns="http://www.w3.org/2000/svg" stdDeviation="1.16"/></filter></defs><g opacity="0.1" filter="url(#M3r2jHsuH8EwchHjK28cVGgUgzZYEEck)"><path d=" M 165.685 11.947 C 239.74 11.947 250.324 22.504 250.324 96.491 L 250.324 155.742 C 250.324 229.728 239.74 240.285 165.685 240.285 L 90.315 240.285 C 16.26 240.285 5.676 229.728 5.676 155.742 L 5.676 96.491 C 5.676 22.504 16.26 11.947 90.315 11.947 L 165.685 11.947 Z " fill="rgb(0,0,0)"/></g><defs><filter id="2GTtqG9YDMWQcolUWTuEuJ9i86HTFmim" x="-200%" y="-200%" width="400%" height="400%"><feGaussianBlur xmlns="http://www.w3.org/2000/svg" stdDeviation="2.32"/></filter></defs><g opacity="0.2" filter="url(#2GTtqG9YDMWQcolUWTuEuJ9i86HTFmim)"><path d=" M 165.685 13.986 C 239.74 13.986 250.324 24.543 250.324 98.53 L 250.324 157.78 C 250.324 231.767 239.74 242.324 165.685 242.324 L 90.315 242.324 C 16.26 242.324 5.676 231.767 5.676 157.78 L 5.676 98.53 C 5.676 24.543 16.26 13.986 90.315 13.986 L 165.685 13.986 Z " fill="rgb(0,0,0)"/></g><path d=" M 90.315 240.285 C 16.26 240.285 5.676 229.728 5.676 155.742 L 5.676 96.491 C 5.676 82.452 6.062 70.707 7.187 60.877 L 248.813 60.877 C 249.938 70.707 250.324 82.452 250.324 96.491 L 250.324 155.742 C 250.324 229.728 239.74 240.285 165.685 240.285 L 90.315 240.285 Z " fill="rgb(241,240,233)"/><clipPath id="_clipPath_5CTGCCyfdzzSlLOnEs83oy45qkz2JquC"><path d=" M 90.315 240.285 C 16.26 240.285 5.676 229.728 5.676 155.742 L 5.676 96.491 C 5.676 82.452 6.062 70.707 7.187 60.877 L 248.813 60.877 C 249.938 70.707 250.324 82.452 250.324 96.491 L 250.324 155.742 C 250.324 229.728 239.74 240.285 165.685 240.285 L 90.315 240.285 Z " fill="rgb(255,255,255)"/></clipPath><g clip-path="url(#_clipPath_5CTGCCyfdzzSlLOnEs83oy45qkz2JquC)"><g id="g1201"><defs><filter id="BiTx7DG2mio7NOOUnnVksDytsS2AilSA" x="-200%" y="-200%" width="400%" height="400%"><feGaussianBlur xmlns="http://www.w3.org/2000/svg" stdDeviation="9.8"/></filter></defs><g opacity="0.4" filter="url(#BiTx7DG2mio7NOOUnnVksDytsS2AilSA)"><linearGradient id="_lgradient_3" x1="-0.7736842105263158%" y1="50%" x2="100.77369078947368%" y2="50%"><stop offset="0%" stop-opacity="0" style="stop-color:rgb(0,0,0)"/><stop offset="49.999997%" stop-opacity="0.89177489" style="stop-color:rgb(0,0,0)"/><stop offset="100%" stop-opacity="0" style="stop-color:rgb(0,0,0)"/></linearGradient><path d=" M -26.944 64.954 L 282.944 64.954 L 282.944 -24.75 L -26.944 -24.75 L -26.944 64.954 Z " fill="url(#_lgradient_3)"/></g><defs><filter id="ziwTwcqh4hqU6pCytCRro6rFHuhDUKAJ" x="-200%" y="-200%" width="400%" height="400%"><feGaussianBlur xmlns="http://www.w3.org/2000/svg" stdDeviation="0.9799999999999999"/></filter></defs><g opacity="0.1" filter="url(#ziwTwcqh4hqU6pCytCRro6rFHuhDUKAJ)"><rect x="-26.944" y="-28.828" width="309.888" height="89.704" transform="matrix(-1,0,0,-1,256,32.049)" fill="rgb(0,0,0)"/></g></g></g><g opacity="0.02000002"><path d=" M 90.315 240.285 C 16.26 240.285 5.676 229.728 5.676 155.742 L 5.676 96.491 C 5.676 82.452 6.062 70.707 7.187 60.877 L 128 60.877 L 128 240.285 L 90.315 240.285 Z " fill="rgb(0,0,0)"/></g><path d=" M 68.159 129.693 C 69.45 129.235 72.121 129.843 72.614 132.415 C 74.27 130.308 75.006 127.667 71.813 125.209 C 70.993 124.577 69.812 123.914 68.344 123.607 C 65.916 123.099 64.461 123.126 62.472 124.203 C 60.482 125.28 58.969 127.579 58.735 129.212 C 58.355 131.863 59.442 137.22 63.272 140.422 C 67.184 144.39 73.408 144.67 75.55 144.426 C 85.88 143.247 93.183 134.116 85.692 125.209 C 83.064 122.273 78.888 120.629 75.55 119.07 C 69.508 116.247 63.873 114.45 60.603 111.596 C 57.446 108.841 56.431 105.185 56.867 101.187 C 57.264 97.533 59.463 94.419 61.938 92.379 C 67.543 87.759 75.841 87.877 84.358 91.845 L 89.162 90.778 C 89.765 90.963 90.212 91.499 90.497 92.379 C 90.616 92.989 89.875 93.581 89.963 94.154 C 92.139 101.372 90.321 106.46 85.692 107.86 L 84.358 107.326 C 85.949 103.988 85.951 100.788 84.358 97.717 Q 79.101 91.362 72.614 91.578 C 59.117 92.028 59.843 105.833 70.746 108.927 C 72.41 109.772 80.607 112.632 83.29 113.947 Q 88.803 116.648 91.031 119.603 C 95.409 126.974 95.075 136.249 89.162 142.024 C 83.318 147.731 71.304 148.27 61.938 144.96 L 57.4 145.76 C 56.565 145.712 56.034 145.448 55.799 144.96 L 55.532 140.422 C 51.104 130.725 56.905 121.396 64.874 120.938 C 69.038 120.699 74.117 123.134 75.55 126.81 C 76.992 130.511 74.19 135.382 71.813 136.419 C 69.437 137.455 65.28 135.534 65.941 132.415 C 66.207 131.162 67.115 130.063 68.159 129.693 Z " fill="rgb(94,29,29)"/><path d=" M 7.211 60.877 C 12.017 18.934 30.336 11.947 90.315 11.947 L 165.685 11.947 C 225.664 11.947 243.983 18.934 248.789 60.877 L 7.211 60.877 Z " fill="rgb(94,29,29)"/><path d=" M 111.69 93.572 L 111.69 97.65 L 209.549 97.65 L 209.549 93.572 L 111.69 93.572 Z  M 111.69 109.882 L 111.69 113.959 L 209.549 113.959 L 209.549 109.882 L 111.69 109.882 Z  M 111.69 126.116 L 111.69 130.194 L 209.549 130.194 L 209.549 126.116 L 111.69 126.116 Z  M 111.69 142.426 L 111.69 146.504 L 209.549 146.504 L 209.549 142.426 L 111.69 142.426 Z  M 46.451 158.736 L 46.451 162.813 L 209.549 162.889 L 209.549 158.812 L 46.451 158.736 Z  M 46.451 175.046 L 46.451 179.123 L 209.549 179.123 L 209.549 175.046 L 46.451 175.046 Z  M 46.451 191.356 L 46.451 195.433 L 168.775 195.433 L 168.775 191.356 L 46.451 191.356 Z " fill="rgb(227,223,213)" fill-opacity="0.99607843"/><g opacity="0.4"><linearGradient id="_lgradient_4" x1="51.666666666666686%" y1="0%" x2="51.66666666666666%" y2="100.00000000000003%"><stop offset="0%" stop-opacity="1" style="stop-color:rgb(255,255,255)"/><stop offset="12.5%" stop-opacity="0.09803922" style="stop-color:rgb(255,255,255)"/><stop offset="92.500001%" stop-opacity="0.09803922" style="stop-color:rgb(0,0,0)"/><stop offset="100%" stop-opacity="0.49803922" style="stop-color:rgb(0,0,0)"/></linearGradient><path d=" M 165.685 11.947 C 239.74 11.947 250.324 22.504 250.324 96.491 L 250.324 155.742 C 250.324 229.728 239.74 240.285 165.685 240.285 L 90.315 240.285 C 16.26 240.285 5.676 229.728 5.676 155.742 L 5.676 96.491 C 5.676 22.504 16.26 11.947 90.315 11.947 L 165.685 11.947 Z " fill="none" vector-effect="non-scaling-stroke" stroke-width="4.077" stroke="url(#_lgradient_4)" stroke-linejoin="round" stroke-linecap="round" stroke-miterlimit="4"/></g></g></g></svg>