<svg xmlns="http://www.w3.org/2000/svg" style="isolation:isolate" width="256" height="256"><switch><g><defs><filter id="a" width="270.648" height="254.338" x="-7.32" y="2.95" filterUnits="userSpaceOnUse"><feGaussianBlur xmlns="http://www.w3.org/2000/svg" in="SourceGraphic" stdDeviation="4.294"/><feOffset xmlns="http://www.w3.org/2000/svg" dy="4" result="pf_100_offsetBlur"/><feFlood xmlns="http://www.w3.org/2000/svg" flood-opacity=".4"/><feComposite xmlns="http://www.w3.org/2000/svg" in2="pf_100_offsetBlur" operator="in" result="pf_100_dropShadow"/><feBlend xmlns="http://www.w3.org/2000/svg" in="SourceGraphic" in2="pf_100_dropShadow"/></filter></defs><g filter="url(#a)"><linearGradient id="b" x1=".5" x2=".5" y1="-.036" y2="1.036" gradientTransform="matrix(244.648 0 0 228.338 5.68 11.95)" gradientUnits="userSpaceOnUse"><stop offset="0%" stop-color="#4d4d4d"/><stop offset="98.696%" stop-color="#6c6c6c"/></linearGradient><path fill="url(#b)" d="M165.689 11.95c74.056 0 84.639 10.557 84.639 84.544v59.251c0 73.986-10.583 84.543-84.639 84.543h-75.37c-74.055 0-84.639-10.557-84.639-84.543V96.494c0-73.987 10.584-84.544 84.639-84.544h75.37z"/></g><g opacity=".4"><linearGradient id="c" x1=".517" x2=".517" y2="1"><stop offset="0%" stop-color="#fff"/><stop offset="12.5%" stop-opacity=".098" stop-color="#fff"/><stop offset="92.5%" stop-opacity=".098"/><stop offset="100%" stop-opacity=".498"/></linearGradient><path fill="none" stroke="url(#c)" stroke-linecap="round" stroke-linejoin="round" stroke-width="4.077" d="M165.685 11.947c74.055 0 84.639 10.557 84.639 84.544v59.251c0 73.986-10.584 84.543-84.639 84.543h-75.37c-74.055 0-84.639-10.557-84.639-84.543V96.491c0-73.987 10.584-84.544 84.639-84.544h75.37z" vector-effect="non-scaling-stroke"/></g><defs><filter id="d" width="191" height="191" x="32.5" y="36.5" filterUnits="userSpaceOnUse"><feGaussianBlur xmlns="http://www.w3.org/2000/svg" in="SourceGraphic" stdDeviation="4.294"/><feOffset xmlns="http://www.w3.org/2000/svg" dy="4" result="pf_100_offsetBlur"/><feFlood xmlns="http://www.w3.org/2000/svg" flood-opacity=".4"/><feComposite xmlns="http://www.w3.org/2000/svg" in2="pf_100_offsetBlur" operator="in" result="pf_100_dropShadow"/><feBlend xmlns="http://www.w3.org/2000/svg" in="SourceGraphic" in2="pf_100_dropShadow"/></filter></defs><g filter="url(#d)"><linearGradient id="e" x1=".1" x2=".882" y1=".225" y2=".825" gradientTransform="matrix(165 0 0 165 45.5 45.5)" gradientUnits="userSpaceOnUse"><stop offset="0%" stop-color="#eff0f1"/><stop offset="100%" stop-color="#bdc3c7"/></linearGradient><path fill="url(#e)" d="M128 45.5c-45.705 0-82.5 36.795-82.5 82.5s36.795 82.5 82.5 82.5 82.5-36.795 82.5-82.5-36.795-82.5-82.5-82.5zm0 12.375c9.141 0 16.5 7.359 16.5 16.5s-7.359 16.5-16.5 16.5-16.5-7.359-16.5-16.5 7.359-16.5 16.5-16.5zM80.401 84.712a16.469 16.469 0 0 1 9.411 2.183 16.466 16.466 0 0 1 6.034 22.542 16.459 16.459 0 0 1-22.534 6.043 16.468 16.468 0 0 1-6.043-22.542 16.457 16.457 0 0 1 13.132-8.226zm95.198 0a16.457 16.457 0 0 1 13.132 8.226 16.468 16.468 0 0 1-6.043 22.542 16.459 16.459 0 0 1-22.534-6.043 16.466 16.466 0 0 1 6.034-22.542 16.469 16.469 0 0 1 9.411-2.183zm-92.885 53.625a16.457 16.457 0 0 1 13.132 8.226 16.466 16.466 0 0 1-6.034 22.542 16.469 16.469 0 0 1-22.543-6.042 16.469 16.469 0 0 1 6.043-22.543 16.438 16.438 0 0 1 9.402-2.183zm90.572 0a16.438 16.438 0 0 1 9.402 2.183 16.469 16.469 0 0 1 6.043 22.543 16.469 16.469 0 0 1-22.543 6.042 16.466 16.466 0 0 1-6.034-22.542 16.457 16.457 0 0 1 13.132-8.226zM128 165.125c9.141 0 16.5 7.359 16.5 16.5s-7.359 16.5-16.5 16.5-16.5-7.359-16.5-16.5 7.359-16.5 16.5-16.5z"/></g><g filter="url(#f)"><linearGradient id="g" x1="-.042" x2="1.055" y1=".281" y2=".736" gradientTransform="matrix(130 0 0 87 63 82.5)" gradientUnits="userSpaceOnUse"><stop offset="0%" stop-color="#2f3943"/><stop offset="100%" stop-color="#808c9b"/></linearGradient><path fill="url(#g)" d="M106.333 82.5l86.667 87h-43.333L63 82.5h43.333z"/><linearGradient id="h" x1=".013" x2="1.055" y1=".027" y2="1.069" gradientTransform="matrix(99.87 0 0 86.713 78.065 82.5)" gradientUnits="userSpaceOnUse"><stop offset="0%" stop-color="#197cf1"/><stop offset="100%" stop-color="#21c9fb"/></linearGradient><path fill="url(#h)" d="M81.754 82.5l-3.689 3.703 15.651 15.711 10.433-10.474-8.906-8.94H81.754zm25.191 11.747l-10.433 10.474 15.65 15.711 10.441-10.474-15.658-15.711zm18.447 18.517l-10.434 10.474 15.65 15.711 10.441-10.474-15.657-15.711zm18.446 18.518l-10.434 10.473 15.651 15.711 10.441-10.474-15.658-15.71zm18.446 18.517l-10.433 10.474 8.906 8.94h13.489l3.689-3.703-15.651-15.711z"/><linearGradient id="i" x1=".463" x2=".402" y1="1.406" y2=".889" gradientTransform="matrix(119.167 0 0 29 73.833 169.5)" gradientUnits="userSpaceOnUse"><stop offset="0%" stop-color="#2f3943"/><stop offset="100%" stop-color="#808c9b"/></linearGradient><path fill="url(#i)" d="M73.833 169.5v29h90.278l28.889-29H73.833z"/><linearGradient id="j" x1="1.323" x2="0" y1="-9.25" y2="-9.25" gradientTransform="matrix(111.944 0 0 14.5 73.833 176.75)" gradientUnits="userSpaceOnUse"><stop offset="0%" stop-color="#197cf1"/><stop offset="100%" stop-color="#21c9fb"/></linearGradient><path fill="url(#j)" d="M73.833 176.75v14.5h14.445v-14.5H73.833zm18.056 0v14.5h21.667v-14.5H91.889zm25.278 0v14.5h21.666v-14.5h-21.666zm25.277 0v14.5h21.667v-14.5h-21.667zm25.278 0v14.5h3.611l14.445-14.5h-18.056z"/><linearGradient id="k" x1=".63" x2=".545" y1="1.715" y2="1.269" gradientTransform="matrix(119.167 0 0 29 63 53.5)" gradientUnits="userSpaceOnUse"><stop offset="0%" stop-color="#2f3943"/><stop offset="100%" stop-color="#808c9b"/></linearGradient><path fill="url(#k)" d="M91.889 53.5L63 82.5h119.167v-29H91.889z"/><linearGradient id="l" x1="-.319" x2="1" y1="-1.5" y2="-1.5" gradientTransform="matrix(111.944 0 0 14.5 70.222 60.75)" gradientUnits="userSpaceOnUse"><stop offset="0%" stop-color="#197cf1"/><stop offset="100%" stop-color="#21c9fb"/></linearGradient><path fill="url(#l)" d="M88.278 60.75h-3.611l-14.445 14.5h18.056v-14.5zm3.611 0v14.5h21.667v-14.5H91.889zm25.278 0v14.5h21.666v-14.5h-21.666zm25.277 0v14.5h21.667v-14.5h-21.667zm25.278 0v14.5h14.445v-14.5h-14.445z"/></g><defs><filter id="f" width="190" height="205" x="33" y="27.5" filterUnits="userSpaceOnUse"><feGaussianBlur xmlns="http://www.w3.org/2000/svg" in="SourceGraphic" stdDeviation="4.294"/><feOffset xmlns="http://www.w3.org/2000/svg" dy="4" result="pf_100_offsetBlur"/><feFlood xmlns="http://www.w3.org/2000/svg" flood-opacity=".4"/><feComposite xmlns="http://www.w3.org/2000/svg" in2="pf_100_offsetBlur" operator="in" result="pf_100_dropShadow"/><feBlend xmlns="http://www.w3.org/2000/svg" in="SourceGraphic" in2="pf_100_dropShadow"/></filter></defs></g></switch> </svg>