<svg xmlns="http://www.w3.org/2000/svg" style="isolation:isolate" width="256" height="256"><defs><filter id="a" width="270.648" height="254.338" x="-7.32" y="2.95" filterUnits="userSpaceOnUse"><feGaussianBlur xmlns="http://www.w3.org/2000/svg" in="SourceGraphic" stdDeviation="4.294"/><feOffset xmlns="http://www.w3.org/2000/svg" dy="4" result="pf_100_offsetBlur"/><feFlood xmlns="http://www.w3.org/2000/svg" flood-opacity=".4"/><feComposite xmlns="http://www.w3.org/2000/svg" in2="pf_100_offsetBlur" operator="in" result="pf_100_dropShadow"/><feBlend xmlns="http://www.w3.org/2000/svg" in="SourceGraphic" in2="pf_100_dropShadow"/></filter></defs><path fill="#FB7C38" d="M165.685 11.947c74.055 0 84.639 10.557 84.639 84.544v59.251c0 73.986-10.584 84.543-84.639 84.543h-75.37c-74.055 0-84.639-10.557-84.639-84.543V96.491c0-73.987 10.584-84.544 84.639-84.544h75.37z" filter="url(#a)"/><path fill="#FFF" d="M5.676 126.116v29.626c0 73.986 10.584 84.543 84.639 84.543h75.37c74.055 0 84.639-10.557 84.639-84.543v-29.626H5.676z" opacity=".1"/><path fill="#FFF" d="M128 11.947v228.338h37.685c74.055 0 84.639-10.557 84.639-84.543V96.491c0-73.987-10.584-84.544-84.639-84.544H128z" opacity=".2"/><g opacity=".4"><linearGradient id="b" x1=".517" x2=".517" y2="1"><stop offset="0%" stop-color="#fff"/><stop offset="12.5%" stop-opacity=".098" stop-color="#fff"/><stop offset="92.5%" stop-opacity=".098"/><stop offset="100%" stop-opacity=".498"/></linearGradient><path fill="none" stroke="url(#b)" stroke-linecap="round" stroke-linejoin="round" stroke-width="4.077" d="M165.685 11.947c74.055 0 84.639 10.557 84.639 84.544v59.251c0 73.986-10.584 84.543-84.639 84.543h-75.37c-74.055 0-84.639-10.557-84.639-84.543V96.491c0-73.987 10.584-84.544 84.639-84.544h75.37z" vector-effect="non-scaling-stroke"/></g><path fill="#FFF" d="M128 36.257c50.668 0 91.743 41.075 91.743 91.743 0 50.668-41.075 91.743-91.743 91.743-50.668 0-91.743-41.075-91.743-91.743 0-50.668 41.075-91.743 91.743-91.743z" opacity=".1"/><path fill="#FFF" d="M127.875 62.439c36.192 0 65.531 29.339 65.531 65.531 0 36.192-29.339 65.531-65.531 65.531-36.192 0-65.531-29.339-65.531-65.531 0-36.192 29.339-65.531 65.531-65.531z" opacity=".1"/><circle fill="#FFF" r="1" transform="translate(127.875 127.97) scale(38.09)" vector-effect="non-scaling-stroke" opacity=".1"/><path fill="#FBFDCE" d="M128 36.257c-50.668 0-91.743 41.075-91.743 91.743 0 50.668 41.075 91.743 91.743 91.743 50.668 0 91.743-41.075 91.743-91.743A91.743 91.743 0 0 0 128 36.257zm3.14 16.532a65.204 65.204 0 0 1 4.244 0c9.017.282 20.58 2.431 24.539 8.441 3.271 4.964-1.033 10.047-3.432 14.08-5.941 9.983-11.173 20.809-16.929 31.009-1.563 2.771-7.355 12.283-11.109 7.535-7.988-10.102-10.337-31.262-11.525-43.693-.379-3.965-1.69-10.138.189-13.835 1.617-3.183 7.402-2.906 10.477-3.273a43.965 43.965 0 0 1 3.546-.264zm-32.809 6.46c1.664.102 3.267.624 4.724 1.717 5.224 3.916 6.748 12.18 8.432 17.975 2.184 7.517 5.171 14.363 6.62 22.153.639 3.43 4.771 11.893.104 13.986-3.373 1.513-8.539-2.248-11.497-3.546-10.379-4.558-21.091-11.585-30.037-18.588-14.158-11.083-3.231-20.189 7.488-27.953 3.644-2.64 9.171-6.05 14.165-5.744h.001zm76.521 9.507c8.566-.841 13.975 8.428 18.466 14.146 3.368 4.289 9.364 14.336 6.13 19.814-2.139 3.623-7.028 4.32-10.61 5.658-9.312 3.481-18.791 7.102-28.566 9.309-3.82.862-19.316 6.407-21.936 2.923-1.282-1.705.699-4.921 1.481-6.488 3.026-6.069 7.529-10.737 11.072-16.382 4.89-7.792 10.858-14.5 16.4-21.747 2.15-2.812 3.515-6.837 7.563-7.233zM64.125 100.877c12.355-.493 27.674 8.973 37.789 14.259 3.681 1.924 8.694 3.153 11.657 6.206 4.883 5.033-3.424 8.395-7.29 9.148-12.459 2.425-25.054 3.835-37.525 6.092-4.05.733-12.013 2.482-15.26-1.028-8.093-8.751-4.296-32.469 8.196-34.441a20.902 20.902 0 0 1 2.433-.236zm133.239 17.353c1.129.046 2.203.26 3.169.707 11.083 5.137 6.058 31.898-4.659 34.885-7.321 2.039-16.056-2.397-22.549-5.357-8.398-3.828-17.202-6.278-25.228-10.978-2.416-1.415-8.02-4.744-6.064-8.167 2.201-3.851 9.23-4.159 12.967-4.97 10.584-2.294 21.308-3.27 32.075-4.63 3.002-.379 6.9-1.639 10.289-1.49zm-88.631 16.343c2.363-.118 4.434.142 5.913.991 5.59 3.207-1.736 11.619-3.584 14.966-5.915 10.713-13.672 21.933-21.163 31.594-2.893 3.731-6.802 8.054-12.071 5.3-8.358-4.37-15.125-15.902-18.654-24.237-1.351-3.19-3.362-7.729-.972-10.884 5.593-7.377 21.15-9.617 29.34-12.231 4.37-1.396 14.101-5.144 21.191-5.499zm31.027 4.763c3.373.401 7.744 3.45 9.733 4.593 10.148 5.833 21.19 11.848 29.754 19.729 1.866 1.717 5.056 2.422 6.517 4.461 2.041 2.85.523 8.977-1.273 11.637-4.552 6.739-25.378 21.874-32.405 12.817-8.413-10.843-10.972-25.955-14.08-39.072-.717-3.024-4.271-11.013-1.16-13.514.776-.624 1.79-.785 2.914-.651zm-14.344 2.99c.339-.055.661-.047.981.03 2.46.577 3.487 4.303 4.423 6.262 3.187 6.671 4.735 13.35 6.158 20.625 1.464 7.48 7.15 22.746 2.98 29.82-3.785 6.423-21.664 3.903-27.623 2.49-4.845-1.148-12.746-2.047-15.532-6.743-2.159-3.64.672-7.255 2.282-10.43 3.987-7.865 8.404-15.403 12.458-23.248 1.781-3.445 8.791-17.989 13.873-18.805v-.001z"/></svg>