<?xml version="1.0" standalone="no"?><!-- Generator: Gravit.io --><svg xmlns="http://www.w3.org/2000/svg" xmlns:xlink="http://www.w3.org/1999/xlink" style="isolation:isolate" viewBox="0 0 256 256" width="256" height="256"><defs><filter id="c4VEnrtHLOjTmaRtR3obCCkMF6Kmuyux" x="-7.324" y="2.947" width="270.648" height="254.338" filterUnits="userSpaceOnUse"><feGaussianBlur xmlns="http://www.w3.org/2000/svg" in="SourceGraphic" stdDeviation="4.293609062839028"/><feOffset xmlns="http://www.w3.org/2000/svg" dx="0" dy="4" result="pf_100_offsetBlur"/><feFlood xmlns="http://www.w3.org/2000/svg" flood-color="#000000" flood-opacity="0.4"/><feComposite xmlns="http://www.w3.org/2000/svg" in2="pf_100_offsetBlur" operator="in" result="pf_100_dropShadow"/><feBlend xmlns="http://www.w3.org/2000/svg" in="SourceGraphic" in2="pf_100_dropShadow" mode="normal"/></filter></defs><g filter="url(#c4VEnrtHLOjTmaRtR3obCCkMF6Kmuyux)"><path d=" M 165.685 11.947 C 239.74 11.947 250.324 22.504 250.324 96.491 L 250.324 155.742 C 250.324 229.728 239.74 240.285 165.685 240.285 L 90.315 240.285 C 16.26 240.285 5.676 229.728 5.676 155.742 L 5.676 96.491 C 5.676 22.504 16.26 11.947 90.315 11.947 L 165.685 11.947 Z " id="shape" fill="rgb(251,124,56)"/></g><g opacity="0.1"><path d=" M 5.676 126.116 L 5.676 155.742 C 5.676 229.728 16.26 240.285 90.315 240.285 L 165.685 240.285 C 239.74 240.285 250.324 229.728 250.324 155.742 L 250.324 126.116 L 5.676 126.116 Z " id="bottom glass" fill="rgb(255,255,255)"/></g><g opacity="0.2"><path d=" M 128 11.947 L 128 240.285 L 165.685 240.285 C 239.74 240.285 250.324 229.728 250.324 155.742 L 250.324 96.491 C 250.324 22.504 239.74 11.947 165.685 11.947 L 128 11.947 Z " id="left glass" fill="rgb(255,255,255)"/></g><g opacity="0.4"><linearGradient id="_lgradient_162" x1="0.5166666666666668" y1="0" x2="0.5166666666666666" y2="1.0000000000000002"><stop offset="0%" stop-opacity="1" style="stop-color:rgb(255,255,255)"/><stop offset="12.5%" stop-opacity="0.09803922" style="stop-color:rgb(255,255,255)"/><stop offset="92.500001%" stop-opacity="0.09803922" style="stop-color:rgb(0,0,0)"/><stop offset="100%" stop-opacity="0.49803922" style="stop-color:rgb(0,0,0)"/></linearGradient><path d=" M 165.685 11.947 C 239.74 11.947 250.324 22.504 250.324 96.491 L 250.324 155.742 C 250.324 229.728 239.74 240.285 165.685 240.285 L 90.315 240.285 C 16.26 240.285 5.676 229.728 5.676 155.742 L 5.676 96.491 C 5.676 22.504 16.26 11.947 90.315 11.947 L 165.685 11.947 Z " id="highlight" fill="none" vector-effect="non-scaling-stroke" stroke-width="4.077" stroke="url(#_lgradient_162)" stroke-linejoin="round" stroke-linecap="round" stroke-miterlimit="4"/></g><g id="orange"><g opacity="0.1"><path d=" M 128 36.257 C 178.668 36.257 219.743 77.332 219.743 128 C 219.743 178.668 178.668 219.743 128 219.743 C 77.332 219.743 36.257 178.668 36.257 128 C 36.257 77.332 77.332 36.257 128 36.257 L 128 36.257 Z " id="path1087" fill="rgb(255,255,255)"/></g><g opacity="0.1"><path d=" M 127.875 62.439 C 164.067 62.439 193.406 91.778 193.406 127.97 C 193.406 164.162 164.067 193.501 127.875 193.501 C 91.683 193.501 62.344 164.162 62.344 127.97 C 62.344 91.778 91.683 62.439 127.875 62.439 Z " id="path4943" fill="rgb(255,255,255)"/></g><g opacity="0.1"><circle vector-effect="non-scaling-stroke" cx="0" cy="0" r="1" transform="matrix(38.09,0,0,38.09,127.875,127.97)" id="circle4945" fill="rgb(255,255,255)"/></g><path d=" M 128 36.257 C 77.332 36.257 36.257 77.332 36.257 128 C 36.257 178.668 77.332 219.743 128 219.743 C 178.668 219.743 219.743 178.668 219.743 128 C 219.743 103.668 210.077 80.333 192.872 63.128 C 175.667 45.923 152.332 36.257 128 36.257 L 128 36.257 Z  M 131.14 52.789 C 132.454 52.743 133.882 52.743 135.384 52.789 C 144.401 53.071 155.964 55.22 159.923 61.23 C 163.194 66.194 158.89 71.277 156.491 75.31 C 150.55 85.293 145.318 96.119 139.562 106.319 C 137.999 109.09 132.207 118.602 128.453 113.854 C 120.465 103.752 118.116 82.592 116.928 70.161 C 116.549 66.196 115.238 60.023 117.117 56.326 C 118.734 53.143 124.519 53.42 127.594 53.053 C 128.627 52.931 129.827 52.836 131.14 52.789 L 131.14 52.789 Z  M 98.331 59.249 C 99.995 59.351 101.598 59.873 103.055 60.966 C 108.279 64.882 109.803 73.146 111.487 78.941 C 113.671 86.458 116.658 93.304 118.107 101.094 C 118.746 104.524 122.878 112.987 118.211 115.08 C 114.838 116.593 109.672 112.832 106.714 111.534 C 96.335 106.976 85.623 99.949 76.677 92.946 C 62.519 81.863 73.446 72.757 84.165 64.993 C 87.809 62.353 93.336 58.943 98.33 59.249 L 98.331 59.249 Z  M 174.852 68.756 C 183.418 67.915 188.827 77.184 193.318 82.902 C 196.686 87.191 202.682 97.238 199.448 102.716 C 197.309 106.339 192.42 107.036 188.838 108.374 C 179.526 111.855 170.047 115.476 160.272 117.683 C 156.452 118.545 140.956 124.09 138.336 120.606 C 137.054 118.901 139.035 115.685 139.817 114.118 C 142.843 108.049 147.346 103.381 150.889 97.736 C 155.779 89.944 161.747 83.236 167.289 75.989 C 169.439 73.177 170.804 69.152 174.852 68.756 L 174.852 68.756 Z  M 64.125 100.877 C 76.48 100.384 91.799 109.85 101.914 115.136 C 105.595 117.06 110.608 118.289 113.571 121.342 C 118.454 126.375 110.147 129.737 106.281 130.49 C 93.822 132.915 81.227 134.325 68.756 136.582 C 64.706 137.315 56.743 139.064 53.496 135.554 C 45.403 126.803 49.2 103.085 61.692 101.113 C 62.487 100.987 63.301 100.91 64.125 100.877 L 64.125 100.877 Z  M 197.364 118.23 C 198.493 118.276 199.567 118.49 200.533 118.937 C 211.616 124.074 206.591 150.835 195.874 153.822 C 188.553 155.861 179.818 151.425 173.325 148.465 C 164.927 144.637 156.123 142.187 148.097 137.487 C 145.681 136.072 140.077 132.743 142.033 129.32 C 144.234 125.469 151.263 125.161 155 124.35 C 165.584 122.056 176.308 121.08 187.075 119.72 C 190.077 119.341 193.975 118.081 197.364 118.23 L 197.364 118.23 Z  M 108.733 134.573 C 111.096 134.455 113.167 134.715 114.646 135.564 C 120.236 138.771 112.91 147.183 111.062 150.53 C 105.147 161.243 97.39 172.463 89.899 182.124 C 87.006 185.855 83.097 190.178 77.828 187.424 C 69.47 183.054 62.703 171.522 59.174 163.187 C 57.823 159.997 55.812 155.458 58.202 152.303 C 63.795 144.926 79.352 142.686 87.542 140.072 C 91.912 138.676 101.643 134.928 108.733 134.573 Z  M 139.76 139.336 C 143.133 139.737 147.504 142.786 149.493 143.929 C 159.641 149.762 170.683 155.777 179.247 163.658 C 181.113 165.375 184.303 166.08 185.764 168.119 C 187.805 170.969 186.287 177.096 184.491 179.756 C 179.939 186.495 159.113 201.63 152.086 192.573 C 143.673 181.73 141.114 166.618 138.006 153.501 C 137.289 150.477 133.735 142.488 136.846 139.987 C 137.622 139.363 138.636 139.202 139.76 139.336 L 139.76 139.336 Z  M 125.416 142.326 C 125.755 142.271 126.077 142.279 126.397 142.356 C 128.857 142.933 129.884 146.659 130.82 148.618 C 134.007 155.289 135.555 161.968 136.978 169.243 C 138.442 176.723 144.128 191.989 139.958 199.063 C 136.173 205.486 118.294 202.966 112.335 201.553 C 107.49 200.405 99.589 199.506 96.803 194.81 C 94.644 191.17 97.475 187.555 99.085 184.38 C 103.072 176.515 107.489 168.977 111.543 161.132 C 113.324 157.687 120.334 143.143 125.416 142.327 L 125.416 142.326 Z " id="path4405" fill="rgb(251,253,206)"/></g></svg>