<svg xmlns="http://www.w3.org/2000/svg" style="isolation:isolate" width="256" height="256"><defs><filter id="a" width="270.648" height="254.338" x="-7.32" y="2.95" filterUnits="userSpaceOnUse"><feGaussianBlur xmlns="http://www.w3.org/2000/svg" in="SourceGraphic" stdDeviation="4.294"/><feOffset xmlns="http://www.w3.org/2000/svg" dy="4" result="pf_100_offsetBlur"/><feFlood xmlns="http://www.w3.org/2000/svg" flood-opacity=".4"/><feComposite xmlns="http://www.w3.org/2000/svg" in2="pf_100_offsetBlur" operator="in" result="pf_100_dropShadow"/><feBlend xmlns="http://www.w3.org/2000/svg" in="SourceGraphic" in2="pf_100_dropShadow"/></filter></defs><g filter="url(#a)"><linearGradient id="b" x1=".5" x2=".5" y1="1" gradientTransform="matrix(244.648 0 0 228.338 5.68 11.95)" gradientUnits="userSpaceOnUse"><stop offset="0%" stop-color="#f37e40"/><stop offset="100%" stop-color="#fac82e"/></linearGradient><path fill="url(#b)" d="M165.689 11.95c74.056 0 84.639 10.557 84.639 84.544v59.251c0 73.986-10.583 84.543-84.639 84.543h-75.37c-74.055 0-84.639-10.557-84.639-84.543V96.494c0-73.987 10.584-84.544 84.639-84.544h75.37z"/></g><g opacity=".4"><linearGradient id="c" x1=".517" x2=".517" y2="1"><stop offset="0%" stop-color="#fff"/><stop offset="12.5%" stop-opacity=".098" stop-color="#fff"/><stop offset="92.5%" stop-opacity=".098"/><stop offset="100%" stop-opacity=".498"/></linearGradient><path fill="none" stroke="url(#c)" stroke-linecap="round" stroke-linejoin="round" stroke-width="4.077" d="M165.685 11.947c74.055 0 84.639 10.557 84.639 84.544v59.251c0 73.986-10.584 84.543-84.639 84.543h-75.37c-74.055 0-84.639-10.557-84.639-84.543V96.491c0-73.987 10.584-84.544 84.639-84.544h75.37z" vector-effect="non-scaling-stroke"/></g><path fill="#FFF" fill-rule="evenodd" d="M52.378 160.181A20.255 20.255 0 0 1 45.5 144.93c0-6.132 2.702-11.559 6.878-15.251v30.502zm13.747 4.802c-2.506 0-3.805.03-6.878-.928v-38.249c3.258-1.019 4.795-.978 6.878-.817v39.994zm13.747 0h-6.869v-38.108l2.125 1.221c.938-3.783 2.609-7.242 4.754-10.319v47.206h-.01zm13.756 0H86.75v-54.246c2.124-1.554 4.393-2.885 6.878-3.803v58.049zm13.747 0h-6.878v-59.562c2.588-.272 3.382-.464 6.878.06v59.502zm13.747 0h-6.879v-57.494l2.609 1.24c1.227-2.088 2.692-3.984 4.27-5.769v62.023zm69.372 0H128V96.918c5.486-3.692 11.962-5.901 18.985-5.901 18.656 0 33.774 15.07 35.176 34.154 13.427-6.436 28.339 3.903 28.339 18.922 0 11.529-8.962 20.89-20.006 20.89z"/></svg>