<svg xmlns="http://www.w3.org/2000/svg" style="isolation:isolate" width="256" height="256" viewBox="0 0 256 256">
 <defs>
  <filter id="RnLgfQ3rBxNFSJsx7t73FdTLlPfndvSJ" width="270.648" height="254.338" x="-7.32" y="2.95" filterUnits="userSpaceOnUse">
   <feGaussianBlur xmlns="http://www.w3.org/2000/svg" in="SourceGraphic" stdDeviation="4.294"/>
   <feOffset xmlns="http://www.w3.org/2000/svg" dx="0" dy="4" result="pf_100_offsetBlur"/>
   <feFlood xmlns="http://www.w3.org/2000/svg" flood-opacity=".4"/>
   <feComposite xmlns="http://www.w3.org/2000/svg" in2="pf_100_offsetBlur" operator="in" result="pf_100_dropShadow"/>
   <feBlend xmlns="http://www.w3.org/2000/svg" in="SourceGraphic" in2="pf_100_dropShadow" mode="normal"/>
  </filter>
 </defs>
 <g filter="url(#RnLgfQ3rBxNFSJsx7t73FdTLlPfndvSJ)">
  <linearGradient id="_lgradient_19" x1=".5" x2=".5" y1="-.036" y2="1.036" gradientTransform="matrix(244.648,0,0,228.338,5.676,11.947)" gradientUnits="userSpaceOnUse">
   <stop offset="0%" style="stop-color:rgb(77,77,77)"/>
   <stop offset="98.696%" style="stop-color:rgb(108,108,108)"/>
  </linearGradient>
  <path fill="url(#_lgradient_19)" d="M 165.685 11.947 C 239.74 11.947 250.324 22.504 250.324 96.491 L 250.324 155.742 C 250.324 229.728 239.74 240.285 165.685 240.285 L 90.315 240.285 C 16.26 240.285 5.676 229.728 5.676 155.742 L 5.676 96.491 C 5.676 22.504 16.26 11.947 90.315 11.947 L 165.685 11.947 Z"/>
 </g>
 <g opacity=".4">
  <linearGradient id="_lgradient_20" x1=".517" x2=".517" y1="0" y2="1">
   <stop offset="0%" style="stop-color:rgb(255,255,255)"/>
   <stop offset="12.5%" stop-opacity=".098" style="stop-color:rgb(255,255,255)"/>
   <stop offset="92.5%" stop-opacity=".098" style="stop-color:rgb(0,0,0)"/>
   <stop offset="100%" stop-opacity=".498" style="stop-color:rgb(0,0,0)"/>
  </linearGradient>
  <path fill="none" stroke="url(#_lgradient_20)" stroke-linecap="round" stroke-linejoin="round" stroke-width="4.077" d="M 165.685 11.947 C 239.74 11.947 250.324 22.504 250.324 96.491 L 250.324 155.742 C 250.324 229.728 239.74 240.285 165.685 240.285 L 90.315 240.285 C 16.26 240.285 5.676 229.728 5.676 155.742 L 5.676 96.491 C 5.676 22.504 16.26 11.947 90.315 11.947 L 165.685 11.947 Z" vector-effect="non-scaling-stroke"/>
 </g>
 <g>
  <g opacity=".9">
   <linearGradient id="_lgradient_21" x1=".523" x2=".564" y1="3.152" y2="-.753" gradientTransform="matrix(40.027,0,0,40.031,134.406,79.809)" gradientUnits="userSpaceOnUse">
    <stop offset="0%" style="stop-color:rgb(160,160,160)"/>
    <stop offset="100%" style="stop-color:rgb(223,223,223)"/>
   </linearGradient>
   <path fill="url(#_lgradient_21)" fill-opacity=".981" d="M 154.412 79.809 C 143.367 79.809 134.406 88.775 134.406 99.83 C 134.406 110.885 143.367 119.84 154.412 119.84 C 165.467 119.84 174.434 110.885 174.434 99.83 C 174.434 88.775 165.467 79.809 154.412 79.809 Z"/>
  </g>
  <g opacity=".9">
   <linearGradient id="_lgradient_22" x1=".567" x2=".567" y1="1.071" y2="-.071" gradientTransform="matrix(188.719,0,0,136.23,5.641,59.885)" gradientUnits="userSpaceOnUse">
    <stop offset="0%" style="stop-color:rgb(160,160,160)"/>
    <stop offset="100%" style="stop-color:rgb(223,223,223)"/>
   </linearGradient>
   <path fill="url(#_lgradient_22)" fill-opacity=".981" d="M 5.641 115.356 L 5.641 151.24 L 58.936 173.274 C 60.944 182.224 67.098 190.086 76.18 193.865 C 91.039 200.066 108.17 193.002 114.355 178.158 C 115.96 174.283 116.713 170.21 116.602 166.149 L 153.465 139.852 C 153.767 139.861 154.07 139.867 154.373 139.867 C 176.427 139.867 194.359 121.92 194.359 99.871 C 194.359 77.822 176.427 59.885 154.373 59.885 C 132.319 59.885 114.381 77.822 114.381 99.871 C 114.381 100.048 114.381 100.224 114.391 100.391 L 88.627 137.748 C 84.454 137.566 80.268 138.293 76.297 139.928 C 74.546 140.639 72.906 141.516 71.367 142.526 L 5.641 115.356 Z M 154.373 73.229 C 169.061 73.229 181.018 85.189 181.018 99.871 C 181.018 114.564 169.061 126.522 154.373 126.522 C 139.685 126.522 127.732 114.564 127.732 99.871 C 127.732 85.189 139.685 73.229 154.373 73.229 Z M 87.648 144.41 C 90.463 144.433 93.319 144.988 96.076 146.133 C 101.636 148.444 105.949 152.788 108.234 158.348 C 110.525 163.908 110.516 170.04 108.205 175.58 C 103.417 187.044 90.218 192.488 78.744 187.715 C 73.451 185.51 69.454 181.478 67.148 176.67 L 80.166 182.059 C 88.627 185.581 98.337 181.573 101.854 173.127 C 105.38 164.676 101.378 154.967 92.922 151.445 L 79.465 145.881 C 82.061 144.897 84.834 144.388 87.648 144.41 Z"/>
  </g>
 </g>
</svg>
