<svg xmlns="http://www.w3.org/2000/svg" style="isolation:isolate" width="256" height="256"><defs><filter id="a" width="270.648" height="254.338" x="-7.32" y="2.95" filterUnits="userSpaceOnUse"><feGaussianBlur xmlns="http://www.w3.org/2000/svg" in="SourceGraphic" stdDeviation="4.294"/><feOffset xmlns="http://www.w3.org/2000/svg" dy="4" result="pf_100_offsetBlur"/><feFlood xmlns="http://www.w3.org/2000/svg" flood-opacity=".4"/><feComposite xmlns="http://www.w3.org/2000/svg" in2="pf_100_offsetBlur" operator="in" result="pf_100_dropShadow"/><feBlend xmlns="http://www.w3.org/2000/svg" in="SourceGraphic" in2="pf_100_dropShadow"/></filter></defs><g filter="url(#a)"><linearGradient id="b" x1=".5" x2=".5" y1="-.036" y2="1.036" gradientTransform="matrix(244.648 0 0 228.338 5.676 11.947)" gradientUnits="userSpaceOnUse"><stop offset="0%"/><stop offset="100%" stop-color="#333"/></linearGradient><path fill="url(#b)" d="M165.685 11.947c74.055 0 84.639 10.557 84.639 84.544v59.251c0 73.986-10.584 84.543-84.639 84.543h-75.37c-74.055 0-84.639-10.557-84.639-84.543V96.491c0-73.987 10.584-84.544 84.639-84.544h75.37z"/></g><g opacity=".4"><linearGradient id="c" x1=".517" x2=".517" y2="1"><stop offset="0%" stop-color="#fff"/><stop offset="12.5%" stop-opacity=".098" stop-color="#fff"/><stop offset="92.5%" stop-opacity=".098"/><stop offset="100%" stop-opacity=".498"/></linearGradient><path fill="none" stroke="url(#c)" stroke-linecap="round" stroke-linejoin="round" stroke-width="4.077" d="M165.685 11.947c74.055 0 84.639 10.557 84.639 84.544v59.251c0 73.986-10.584 84.543-84.639 84.543h-75.37c-74.055 0-84.639-10.557-84.639-84.543V96.491c0-73.987 10.584-84.544 84.639-84.544h75.37z" vector-effect="non-scaling-stroke"/></g><path fill="#FFF" d="M5.676 126.116v29.626c0 73.986 10.584 84.543 84.639 84.543h75.37c74.055 0 84.639-10.557 84.639-84.543v-29.626H5.676z" opacity=".1"/><linearGradient id="d" x1=".567" x2=".567" y1="1.071" y2="-.071" gradientTransform="matrix(165 0 0 165 46.167 42.833)" gradientUnits="userSpaceOnUse"><stop offset="0%" stop-color="#a0a0a0"/><stop offset="100%" stop-color="#dfdfdf"/></linearGradient><path fill="url(#d)" d="M211.167 125.333c0-45.729-36.771-82.5-82.5-82.5s-82.5 36.771-82.5 82.5 36.771 82.5 82.5 82.5 82.5-36.771 82.5-82.5zm-52.317 0c0 16.614-13.238 30.183-30.183 30.183-17.278 0-30.183-13.905-30.183-30.183 0-16.61 12.24-30.183 30.183-30.183 17.943 0 30.183 13.903 30.183 30.183z"/><g filter="url(#Tbp4ee8ya2cRiA8RKhaOif6wW3o0NIU0)"><linearGradient id="e" x1=".146" x2=".854" y1=".146" y2=".854" gradientTransform="matrix(2 0 0 2 -1 -1)" gradientUnits="userSpaceOnUse"><stop offset="0%" stop-color="#f15454"/><stop offset="98.261%" stop-color="#ae2424"/></linearGradient><circle fill="url(#e)" r="1" transform="translate(157.5 155.25) scale(43.25)" vector-effect="non-scaling-stroke"/><path fill="#F6F6F6" d="M168.215 155.003l12.408-12.408c1.949-1.95 1.951-5.141 0-7.09l-3.9-3.901c-1.949-1.949-5.141-1.949-7.091.001l-12.408 12.408-12.408-12.408c-1.95-1.95-5.141-1.95-7.091-.001l-3.899 3.901c-1.95 1.949-1.95 5.14 0 7.089l12.408 12.409-12.408 12.408c-1.95 1.951-1.95 5.142 0 7.091l3.899 3.9c1.95 1.952 5.141 1.951 7.091 0l12.408-12.408 12.407 12.408c1.95 1.951 5.143 1.952 7.091 0l3.9-3.9c1.951-1.949 1.95-5.14 0-7.091l-12.407-12.408z"/></g><defs><filter id="Tbp4ee8ya2cRiA8RKhaOif6wW3o0NIU0" width="146.5" height="146.5" x="84.25" y="86" filterUnits="userSpaceOnUse"><feGaussianBlur xmlns="http://www.w3.org/2000/svg" in="SourceGraphic" stdDeviation="4.294"/><feOffset xmlns="http://www.w3.org/2000/svg" dy="4" result="pf_100_offsetBlur"/><feFlood xmlns="http://www.w3.org/2000/svg" flood-opacity=".4"/><feComposite xmlns="http://www.w3.org/2000/svg" in2="pf_100_offsetBlur" operator="in" result="pf_100_dropShadow"/><feBlend xmlns="http://www.w3.org/2000/svg" in="SourceGraphic" in2="pf_100_dropShadow"/></filter></defs></svg>