<svg xmlns="http://www.w3.org/2000/svg" style="isolation:isolate" width="256" height="256"><defs><filter id="a" width="270.648" height="254.338" x="-7.32" y="2.95" filterUnits="userSpaceOnUse"><feGaussianBlur xmlns="http://www.w3.org/2000/svg" in="SourceGraphic" stdDeviation="4.294"/><feOffset xmlns="http://www.w3.org/2000/svg" dy="4" result="pf_100_offsetBlur"/><feFlood xmlns="http://www.w3.org/2000/svg" flood-opacity=".4"/><feComposite xmlns="http://www.w3.org/2000/svg" in2="pf_100_offsetBlur" operator="in" result="pf_100_dropShadow"/><feBlend xmlns="http://www.w3.org/2000/svg" in="SourceGraphic" in2="pf_100_dropShadow"/></filter></defs><g filter="url(#a)"><linearGradient id="b" x1=".5" x2=".5" y1="-.036" y2="1.036" gradientTransform="matrix(244.648 0 0 228.338 5.676 11.947)" gradientUnits="userSpaceOnUse"><stop offset="0%"/><stop offset="100%" stop-color="#333"/></linearGradient><path fill="url(#b)" d="M165.685 11.947c74.055 0 84.639 10.557 84.639 84.544v59.251c0 73.986-10.584 84.543-84.639 84.543h-75.37c-74.055 0-84.639-10.557-84.639-84.543V96.491c0-73.987 10.584-84.544 84.639-84.544h75.37z"/></g><g opacity=".4"><linearGradient id="c" x1=".517" x2=".517" y2="1"><stop offset="0%" stop-color="#fff"/><stop offset="12.5%" stop-opacity=".098" stop-color="#fff"/><stop offset="92.5%" stop-opacity=".098"/><stop offset="100%" stop-opacity=".498"/></linearGradient><path fill="none" stroke="url(#c)" stroke-linecap="round" stroke-linejoin="round" stroke-width="4.077" d="M165.685 11.947c74.055 0 84.639 10.557 84.639 84.544v59.251c0 73.986-10.584 84.543-84.639 84.543h-75.37c-74.055 0-84.639-10.557-84.639-84.543V96.491c0-73.987 10.584-84.544 84.639-84.544h75.37z" vector-effect="non-scaling-stroke"/></g><path fill="#FFF" d="M5.676 126.116v29.626c0 73.986 10.584 84.543 84.639 84.543h75.37c74.055 0 84.639-10.557 84.639-84.543v-29.626H5.676z" opacity=".1"/><linearGradient id="d" x1=".567" x2=".567" y1="1.071" y2="-.071" gradientTransform="matrix(165 0 0 165 46.167 42.833)" gradientUnits="userSpaceOnUse"><stop offset="0%" stop-color="#a0a0a0"/><stop offset="100%" stop-color="#dfdfdf"/></linearGradient><path fill="url(#d)" d="M211.167 125.333c0-45.729-36.771-82.5-82.5-82.5s-82.5 36.771-82.5 82.5 36.771 82.5 82.5 82.5 82.5-36.771 82.5-82.5zm-52.317 0c0 16.614-13.238 30.183-30.183 30.183-17.278 0-30.183-13.905-30.183-30.183 0-16.61 12.24-30.183 30.183-30.183 17.943 0 30.183 13.903 30.183 30.183z"/><g filter="url(#5HlNYfu8XE3a71BVhpIsNe4X2q5o7JNQ)"><linearGradient id="e" x1=".533" x2=".533" y1="1" gradientTransform="matrix(2 0 0 2 -1 -1)" gradientUnits="userSpaceOnUse"><stop offset="0%" stop-color="#8ac249"/><stop offset="100%" stop-color="#aae961"/></linearGradient><circle fill="url(#e)" r="1" transform="translate(158 155.75) scale(43.25)" vector-effect="non-scaling-stroke"/><path fill="#F6F6F6" d="M165.465 147.702l-.07-17.548c-.01-2.757-2.275-5.006-5.033-4.994l-5.515.022c-2.756.009-5.005 2.276-4.994 5.034l.069 17.547-17.548.069a5.03 5.03 0 0 0-4.995 5.033l.023 5.515c.01 2.757 2.276 5.005 5.033 4.994l17.548-.069.069 17.548c.011 2.758 2.276 5.006 5.033 4.994l5.515-.021c2.759-.009 5.006-2.275 4.994-5.033l-.069-17.548 17.548-.069c2.758-.01 5.008-2.276 4.994-5.033l-.022-5.515c-.009-2.758-2.275-5.005-5.033-4.995l-17.547.069z"/></g><defs><filter id="5HlNYfu8XE3a71BVhpIsNe4X2q5o7JNQ" width="146.5" height="146.5" x="84.75" y="86.5" filterUnits="userSpaceOnUse"><feGaussianBlur xmlns="http://www.w3.org/2000/svg" in="SourceGraphic" stdDeviation="4.294"/><feOffset xmlns="http://www.w3.org/2000/svg" dy="4" result="pf_100_offsetBlur"/><feFlood xmlns="http://www.w3.org/2000/svg" flood-opacity=".4"/><feComposite xmlns="http://www.w3.org/2000/svg" in2="pf_100_offsetBlur" operator="in" result="pf_100_dropShadow"/><feBlend xmlns="http://www.w3.org/2000/svg" in="SourceGraphic" in2="pf_100_dropShadow"/></filter></defs></svg>