<svg xmlns="http://www.w3.org/2000/svg" style="isolation:isolate" width="256" height="256"><defs><filter id="a" width="270.648" height="254.338" x="-7.32" y="2.95" filterUnits="userSpaceOnUse"><feGaussianBlur xmlns="http://www.w3.org/2000/svg" in="SourceGraphic" stdDeviation="4.294"/><feOffset xmlns="http://www.w3.org/2000/svg" dy="4" result="pf_100_offsetBlur"/><feFlood xmlns="http://www.w3.org/2000/svg" flood-opacity=".4"/><feComposite xmlns="http://www.w3.org/2000/svg" in2="pf_100_offsetBlur" operator="in" result="pf_100_dropShadow"/><feBlend xmlns="http://www.w3.org/2000/svg" in="SourceGraphic" in2="pf_100_dropShadow"/></filter></defs><g filter="url(#a)"><linearGradient id="b" x1=".5" x2=".5" y1="-.036" y2="1.036" gradientTransform="matrix(244.648 0 0 228.338 5.68 11.95)" gradientUnits="userSpaceOnUse"><stop offset="0%" stop-color="#4d4d4d"/><stop offset="98.696%" stop-color="#6c6c6c"/></linearGradient><path fill="url(#b)" d="M165.689 11.95c74.056 0 84.639 10.557 84.639 84.544v59.251c0 73.986-10.583 84.543-84.639 84.543h-75.37c-74.055 0-84.639-10.557-84.639-84.543V96.494c0-73.987 10.584-84.544 84.639-84.544h75.37z"/></g><g opacity=".4"><linearGradient id="c" x1=".517" x2=".517" y2="1"><stop offset="0%" stop-color="#fff"/><stop offset="12.5%" stop-opacity=".098" stop-color="#fff"/><stop offset="92.5%" stop-opacity=".098"/><stop offset="100%" stop-opacity=".498"/></linearGradient><path fill="none" stroke="url(#c)" stroke-linecap="round" stroke-linejoin="round" stroke-width="4.077" d="M165.685 11.947c74.055 0 84.639 10.557 84.639 84.544v59.251c0 73.986-10.584 84.543-84.639 84.543h-75.37c-74.055 0-84.639-10.557-84.639-84.543V96.491c0-73.987 10.584-84.544 84.639-84.544h75.37z" vector-effect="non-scaling-stroke"/></g><g filter="url(#d)"><path fill="#5884F4" d="M129.816 35.5v90.668H228V102.64c0-58.757-8.494-67.14-67.936-67.14h-30.248z"/><path fill="#76C22B" d="M126.184 220.5v-90.668H28v23.528c0 58.757 8.494 67.14 67.936 67.14h30.248z"/><path fill="#5884F4" d="M126.184 35.5v90.668H28V102.64c0-58.757 8.494-67.14 67.936-67.14h30.248zm3.632 185v-90.668H228v23.528c0 58.757-8.494 67.14-67.936 67.14h-30.248z"/><defs><filter id="e" width="94" height="94.539" x="32.53" y="37.31" filterUnits="userSpaceOnUse"><feGaussianBlur xmlns="http://www.w3.org/2000/svg" in="SourceGraphic" stdDeviation=".429"/><feOffset xmlns="http://www.w3.org/2000/svg" dy="2" result="pf_100_offsetBlur"/><feFlood xmlns="http://www.w3.org/2000/svg" flood-opacity=".2"/><feComposite xmlns="http://www.w3.org/2000/svg" in2="pf_100_offsetBlur" operator="in" result="pf_100_dropShadow"/><feBlend xmlns="http://www.w3.org/2000/svg" in="SourceGraphic" in2="pf_100_dropShadow"/></filter></defs><path fill="#FFF" fill-rule="evenodd" d="M49.532 84.58a30.415 30.415 0 0 1 8.787-21.399 29.88 29.88 0 0 1 21.217-8.866c7.95 0 15.584 3.192 21.208 8.866a30.416 30.416 0 0 1 8.788 21.399 30.42 30.42 0 0 1-8.788 21.407 29.869 29.869 0 0 1-21.208 8.867 29.877 29.877 0 0 1-21.217-8.867c-5.624-5.675-8.787-13.377-8.787-21.407zm4.506 0a25.833 25.833 0 0 1 7.472-18.188 25.385 25.385 0 0 1 18.026-7.53c6.751 0 13.24 2.71 18.026 7.53a25.863 25.863 0 0 1 7.463 18.188c0 6.82-2.686 13.368-7.463 18.188a25.388 25.388 0 0 1-18.026 7.539c-6.76 0-13.249-2.71-18.026-7.539-4.786-4.82-7.472-11.368-7.472-18.188z" opacity=".5" filter="url(#e)"/><path fill="#FFF" fill-rule="evenodd" d="M146.96 84.58a30.416 30.416 0 0 1 8.788-21.399c5.624-5.674 13.258-8.866 21.207-8.866a29.877 29.877 0 0 1 21.217 8.866 30.416 30.416 0 0 1 8.788 21.399 30.42 30.42 0 0 1-8.788 21.407 29.874 29.874 0 0 1-21.217 8.867c-7.949 0-15.583-3.192-21.207-8.867a30.42 30.42 0 0 1-8.788-21.407zm4.507 0a25.862 25.862 0 0 1 7.462-18.188 25.387 25.387 0 0 1 18.026-7.53c6.76 0 13.25 2.71 18.027 7.53a25.87 25.87 0 0 1 7.471 18.188c0 6.82-2.694 13.368-7.471 18.188a25.359 25.359 0 0 1-18.027 7.539 25.358 25.358 0 0 1-18.026-7.539c-4.777-4.82-7.462-11.368-7.462-18.188z" opacity=".5" filter="url(#G764rtYQuPO6ej89dJ17xHfHfsfxAqHh)"/><defs><filter id="f" width="94" height="94.539" x="129.63" y="123.57" filterUnits="userSpaceOnUse"><feGaussianBlur xmlns="http://www.w3.org/2000/svg" in="SourceGraphic" stdDeviation=".429"/><feOffset xmlns="http://www.w3.org/2000/svg" dy="2" result="pf_100_offsetBlur"/><feFlood xmlns="http://www.w3.org/2000/svg" flood-opacity=".2"/><feComposite xmlns="http://www.w3.org/2000/svg" in2="pf_100_offsetBlur" operator="in" result="pf_100_dropShadow"/><feBlend xmlns="http://www.w3.org/2000/svg" in="SourceGraphic" in2="pf_100_dropShadow"/></filter></defs><path fill="#FFF" fill-rule="evenodd" d="M146.627 170.847c0-8.03 3.163-15.733 8.787-21.408 5.625-5.674 13.259-8.866 21.208-8.866a29.877 29.877 0 0 1 21.217 8.866c5.624 5.675 8.788 13.378 8.788 21.408a30.414 30.414 0 0 1-8.788 21.398 29.874 29.874 0 0 1-21.217 8.867c-7.949 0-15.583-3.192-21.208-8.867a30.413 30.413 0 0 1-8.787-21.398zm4.506 0c0-6.821 2.686-13.368 7.463-18.188a25.357 25.357 0 0 1 18.026-7.539c6.76 0 13.249 2.71 18.026 7.539a25.856 25.856 0 0 1 7.472 18.188 25.889 25.889 0 0 1-7.472 18.188 25.385 25.385 0 0 1-18.026 7.53c-6.76 0-13.249-2.71-18.026-7.53a25.88 25.88 0 0 1-7.463-18.188z" opacity=".5" filter="url(#f)"/><defs><filter id="g" width="94" height="94.539" x="32.53" y="123.02" filterUnits="userSpaceOnUse"><feGaussianBlur xmlns="http://www.w3.org/2000/svg" in="SourceGraphic" stdDeviation=".429"/><feOffset xmlns="http://www.w3.org/2000/svg" dy="2" result="pf_100_offsetBlur"/><feFlood xmlns="http://www.w3.org/2000/svg" flood-opacity=".2"/><feComposite xmlns="http://www.w3.org/2000/svg" in2="pf_100_offsetBlur" operator="in" result="pf_100_dropShadow"/><feBlend xmlns="http://www.w3.org/2000/svg" in="SourceGraphic" in2="pf_100_dropShadow"/></filter></defs><path fill="#FFF" fill-rule="evenodd" d="M49.532 140.018h60v60.539h-60v-60.539zm4.567 4.608h50.865v51.322H54.099v-51.322z" opacity=".5" filter="url(#g)"/></g><defs><filter id="d" width="294" height="279" x="-19" y="-7.5" filterUnits="userSpaceOnUse"><feGaussianBlur xmlns="http://www.w3.org/2000/svg" in="SourceGraphic" stdDeviation="4.294"/><feOffset xmlns="http://www.w3.org/2000/svg" dy="4" result="pf_100_offsetBlur"/><feFlood xmlns="http://www.w3.org/2000/svg" flood-opacity=".4"/><feComposite xmlns="http://www.w3.org/2000/svg" in2="pf_100_offsetBlur" operator="in" result="pf_100_dropShadow"/><feBlend xmlns="http://www.w3.org/2000/svg" in="SourceGraphic" in2="pf_100_dropShadow"/></filter></defs></svg>