<svg xmlns="http://www.w3.org/2000/svg" style="isolation:isolate" width="256" height="256"><defs><filter id="a" width="270.648" height="254.338" x="-7.32" y="2.95" filterUnits="userSpaceOnUse"><feGaussianBlur xmlns="http://www.w3.org/2000/svg" in="SourceGraphic" stdDeviation="4.294"/><feOffset xmlns="http://www.w3.org/2000/svg" dy="4" result="pf_100_offsetBlur"/><feFlood xmlns="http://www.w3.org/2000/svg" flood-opacity=".4"/><feComposite xmlns="http://www.w3.org/2000/svg" in2="pf_100_offsetBlur" operator="in" result="pf_100_dropShadow"/><feBlend xmlns="http://www.w3.org/2000/svg" in="SourceGraphic" in2="pf_100_dropShadow"/></filter></defs><g filter="url(#a)"><linearGradient id="b" x1=".182" x2=".909" y1="-.071" y2="1.071" gradientTransform="matrix(244.648 0 0 228.338 5.68 11.95)" gradientUnits="userSpaceOnUse"><stop offset="2.609%" stop-color="#fff"/><stop offset="97.391%" stop-color="#cacaca"/></linearGradient><path fill="url(#b)" d="M165.689 11.95c74.056 0 84.639 10.557 84.639 84.544v59.251c0 73.986-10.583 84.543-84.639 84.543h-75.37c-74.055 0-84.639-10.557-84.639-84.543V96.494c0-73.987 10.584-84.544 84.639-84.544h75.37z"/></g><g opacity=".4"><linearGradient id="c" x1=".517" x2=".517" y2="1"><stop offset="0%" stop-color="#fff"/><stop offset="12.5%" stop-opacity=".098" stop-color="#fff"/><stop offset="92.5%" stop-opacity=".098"/><stop offset="100%" stop-opacity=".498"/></linearGradient><path fill="none" stroke="url(#c)" stroke-linecap="round" stroke-linejoin="round" stroke-width="4.077" d="M165.685 11.947c74.055 0 84.639 10.557 84.639 84.544v59.251c0 73.986-10.584 84.543-84.639 84.543h-75.37c-74.055 0-84.639-10.557-84.639-84.543V96.491c0-73.987 10.584-84.544 84.639-84.544h75.37z" vector-effect="non-scaling-stroke"/></g><path fill="#C4CCDE" d="M110.839 179.523c-.861-18.511-2.351-96.415-22.285-110.069-2.027-.644-1.389-1.398 1.557-1.84 7.22-1.085 23.463.992 33.353 4.264 20.748 6.865 37.076 22.504 42.182 40.403 1.924 6.745 1.908 18.243-.035 24.467-4.729 15.15-15.869 27.815-31.238 35.514-5.389 2.7-15.033 6.194-20.78 7.529-4.88 1.133-5.026 1.119-2.754-.268z"/><path fill="#8495BA" d="M114.123 158.497c-.818-.819-.222-1.931 1.035-1.931 3.153 0 10.446-6.374 13.677-11.953 6.005-10.37 3.926-21.709-5.65-30.815-2.383-2.265-5.137-4.52-6.121-5.011-.984-.491-1.867-1.43-1.962-2.086-.969-6.69-7.393-20.062-12.98-27.021-2.647-3.297-5.412-4.934-4.776-5.08 1.726-.395 15.003 2.059 20.445 3.853 16.799 5.536 29.857 19.785 31.65 34.534.977 8.046-.747 16.876-4.615 23.629-3.826 6.68-13.34 15.018-21.669 18.99-4.618 2.202-8.486 3.44-9.034 2.891z"/><path fill="#445275" d="M94.831 181.005c-.33-.112-1.641-.379-2.912-.593l-2.311-.388 3.245-3.426c8.157-8.612 11.707-16.899 13.112-30.613 1.692-16.518-3.23-30.309-15.023-42.088l-3.618-3.615-.005-16.149-.004-16.15 3.759 1.977c9.091 4.781 17.966 16.962 22.725 31.187 2.271 6.79 2.27 8.779-.009 12.147-.987 1.458-1.799 3.136-1.805 3.729-.015 1.646 2.094 5.476 7.133 12.946 6.366 9.435 6.855 10.279 6.494 11.222-.175.457-2.066 1.413-4.202 2.125-4.883 1.628-6.091 2.865-5.595 5.733.203 1.175.533 3.065.731 4.201.294 1.678.125 2.213-.902 2.856-1.469.918-1.659 3.036-.369 4.109.785.651.745.955-.321 2.455-1.103 1.551-1.18 2.289-.826 7.914.364 5.77.301 6.317-.908 7.838-.715.9-2.303 1.915-3.528 2.256-2.028.564-13.424.815-14.86.327h-.001z"/><path fill="#354159" d="M102.492 199.934c-2.763-.272-7.143-.935-9.734-1.473-6.184-1.283-17.584-4.85-17.584-5.501 0-1.038 3.507-1.346 6.885-.604a19618 19618 0 0 0 7.559 1.658c15.881 3.481 34.519 2.509 49.44-2.579 12.092-4.123 28.567-14.587 36.304-23.056 6.916-7.572 11.645-16.132 14.222-25.745 2.062-7.693 1.94-19.854-.285-28.275-4.621-17.493-15.326-31.216-32.018-41.045-15.845-9.33-32.402-13.453-51.335-12.783-9.451.334-16.726 1.277-17.791 2.304-.287.277-.49 8.815-.451 18.975l.072 18.472 3.314 3.459c4.771 4.98 6.379 8.934 6.375 15.678-.004 6.475-1.699 10.762-5.919 14.965-5.821 5.797-13.462 7.665-21.436 5.239-3.972-1.208-5.085-1.903-8.446-5.271-2.909-2.915-4.159-4.74-5.028-7.339-1.324-3.959-1.521-10.432-.431-14.189 1.07-3.688 4.256-8.195 7.199-10.187 5.73-3.877 5.619-3.641 8.571-18.079 3.159-15.446 3.935-17.917 6.573-20.927 2.456-2.801 5.377-4.09 12.954-5.716 25.086-5.385 49.843-1.699 69.817 10.394 13.454 8.146 26.584 21.681 32.542 33.546 12.974 25.837 6.615 55.384-16.302 75.743-19.366 17.204-46.186 25.185-75.067 22.336z"/><ellipse fill="#76C22B" cx="75.937" cy="120.178" rx="13.573" ry="13.594" vector-effect="non-scaling-stroke"/></svg>