<?xml version="1.0" standalone="no"?><!-- Generator: Gravit.io --><svg xmlns="http://www.w3.org/2000/svg" xmlns:xlink="http://www.w3.org/1999/xlink" style="isolation:isolate" viewBox="0 0 256 256" width="256" height="256"><defs><filter id="EOIfft66F0GV4SvscLQzH1lRah9jhnwW" x="-7.324" y="2.947" width="270.648" height="254.338" filterUnits="userSpaceOnUse"><feGaussianBlur xmlns="http://www.w3.org/2000/svg" in="SourceGraphic" stdDeviation="4.293609062839028"/><feOffset xmlns="http://www.w3.org/2000/svg" dx="0" dy="4" result="pf_100_offsetBlur"/><feFlood xmlns="http://www.w3.org/2000/svg" flood-color="#000000" flood-opacity="0.4"/><feComposite xmlns="http://www.w3.org/2000/svg" in2="pf_100_offsetBlur" operator="in" result="pf_100_dropShadow"/><feBlend xmlns="http://www.w3.org/2000/svg" in="SourceGraphic" in2="pf_100_dropShadow" mode="normal"/></filter></defs><g filter="url(#EOIfft66F0GV4SvscLQzH1lRah9jhnwW)"><path d=" M 165.685 11.947 C 239.74 11.947 250.324 22.504 250.324 96.491 L 250.324 155.742 C 250.324 229.728 239.74 240.285 165.685 240.285 L 90.315 240.285 C 16.26 240.285 5.676 229.728 5.676 155.742 L 5.676 96.491 C 5.676 22.504 16.26 11.947 90.315 11.947 L 165.685 11.947 Z " id="shape" fill="rgb(55,166,230)"/></g><g opacity="0.4"><linearGradient id="_lgradient_63" x1="0.5166666666666668" y1="0" x2="0.5166666666666666" y2="1.0000000000000002"><stop offset="0%" stop-opacity="1" style="stop-color:rgb(255,255,255)"/><stop offset="12.5%" stop-opacity="0.09803922" style="stop-color:rgb(255,255,255)"/><stop offset="92.500001%" stop-opacity="0.09803922" style="stop-color:rgb(0,0,0)"/><stop offset="100%" stop-opacity="0.49803922" style="stop-color:rgb(0,0,0)"/></linearGradient><path d=" M 165.685 11.947 C 239.74 11.947 250.324 22.504 250.324 96.491 L 250.324 155.742 C 250.324 229.728 239.74 240.285 165.685 240.285 L 90.315 240.285 C 16.26 240.285 5.676 229.728 5.676 155.742 L 5.676 96.491 C 5.676 22.504 16.26 11.947 90.315 11.947 L 165.685 11.947 Z " id="highlight" fill="none" vector-effect="non-scaling-stroke" stroke-width="4.077" stroke="url(#_lgradient_63)" stroke-linejoin="round" stroke-linecap="round" stroke-miterlimit="4"/></g><g opacity="0.1"><path d=" M 249.643 83.58 L 44.234 236.61 C 55.796 238.921 70.66 239.629 89.757 239.629 L 165.127 239.629 C 239.182 239.629 249.766 229.071 249.766 155.085 L 249.766 95.834 C 249.766 91.531 249.725 87.464 249.643 83.58 L 249.643 83.58 Z " id="big highlight mark" fill="rgb(255,255,255)"/></g><g id="telegram"><path d=" M 101.657 186.599 C 97.486 186.599 98.195 185.024 96.757 181.053 L 84.491 140.687 L 178.903 84.678" id="path1013" fill="rgb(200,218,234)"/><path d=" M 101.657 186.599 C 104.876 186.599 106.298 185.127 108.094 183.38 L 125.26 166.689 L 103.848 153.777" id="path1015" fill="rgb(169,201,221)"/><linearGradient id="_lgradient_64" x1="0.6596999572437702" y1="0.4369002618465041" x2="0.8512000089375039" y2="0.7434600490781601" gradientTransform="matrix(140,0,0,117.424,49,76.288)" gradientUnits="userSpaceOnUse"><stop offset="0%" stop-opacity="1" style="stop-color:rgb(239,247,252)"/><stop offset="100%" stop-opacity="1" style="stop-color:rgb(255,255,255)"/></linearGradient><path d=" M 103.846 153.78 L 155.729 192.112 C 161.65 195.379 165.923 193.688 167.397 186.616 L 188.517 87.094 C 190.679 78.425 185.212 74.494 179.548 77.065 L 55.537 124.883 C 47.072 128.279 47.121 133.001 53.994 135.105 L 85.818 145.038 L 159.494 98.557 C 162.972 96.448 166.164 97.582 163.544 99.907" id="path1017" fill="url(#_lgradient_64)"/></g></svg>