<svg xmlns="http://www.w3.org/2000/svg" style="isolation:isolate" width="256" height="256"><switch><g><defs><filter id="a" width="270.648" height="254.338" x="-7.32" y="2.95" filterUnits="userSpaceOnUse"><feGaussianBlur xmlns="http://www.w3.org/2000/svg" in="SourceGraphic" stdDeviation="4.294"/><feOffset xmlns="http://www.w3.org/2000/svg" dy="4" result="pf_100_offsetBlur"/><feFlood xmlns="http://www.w3.org/2000/svg" flood-opacity=".4"/><feComposite xmlns="http://www.w3.org/2000/svg" in2="pf_100_offsetBlur" operator="in" result="pf_100_dropShadow"/><feBlend xmlns="http://www.w3.org/2000/svg" in="SourceGraphic" in2="pf_100_dropShadow"/></filter></defs><path fill="#BC1938" d="M165.689 11.95c74.056 0 84.639 10.557 84.639 84.544v59.251c0 73.986-10.583 84.543-84.639 84.543h-75.37c-74.055 0-84.639-10.557-84.639-84.543V96.494c0-73.987 10.584-84.544 84.639-84.544h75.37z" filter="url(#a)"/><g opacity=".4"><linearGradient id="b" x1=".517" x2=".517" y2="1"><stop offset="0%" stop-color="#fff"/><stop offset="12.5%" stop-opacity=".098" stop-color="#fff"/><stop offset="92.5%" stop-opacity=".098"/><stop offset="100%" stop-opacity=".498"/></linearGradient><path fill="none" stroke="url(#b)" stroke-linecap="round" stroke-linejoin="round" stroke-width="4.077" d="M165.685 11.947c74.055 0 84.639 10.557 84.639 84.544v59.251c0 73.986-10.584 84.543-84.639 84.543h-75.37c-74.055 0-84.639-10.557-84.639-84.543V96.491c0-73.987 10.584-84.544 84.639-84.544h75.37z" vector-effect="non-scaling-stroke"/></g><path fill="#F7F7F7" d="M116.055 112.82c-12.298.98-21.333.321-27.695-.828q-29.888-7.781-22.366-28.393c4.151-4.861 8.084-7.817 14.844-6.606 27.278 4.852 52.435 14.023 74.221 14.192 17.491.134 32.951-7.229 44.542-14.388 2.238-4.478.263-7.265-5.546-7.977-8.709 5.208-16.757 8.057-23.753 8.948-30.087 2.92-68.484-18.475-91.049-14.201Q56.687 67.849 55.5 93.518c2.13 19.623 25.837 28.42 55.344 27.583q-.063.115-.118.222c-7.522 9.144-10.295 21.395-10.884 34.617-.507 11.271 5.447 21.065 13.657 29.363q16.032 11.477 32.851 5.841 28.112-8.948 34.247-38.703-.788-17.887-17.218-20.416-22.176.579-35.634 29.364c.861 5.511 3.036 6.802 7.721 4.665 6.453-15.723 19.992-28.972 28.9-25.277 8.909 3.695 4.55 29.942-20.191 42.781q-15.632 4.666-23.353-5.449-14.328-20.736 8.101-58.629a176.32 176.32 0 0 0 27.324-6.321c3.398-2.564 5.944-1.745 4.204-5.787-1.73-4.034-3.108-1.897-7.567-1.799q-9.968 3.223-18.197 4.79 5.229-7.799 11.863-16.258-4.631-1.887-7.323-1.949-3.96 2.136-11.681 4.665-7.177 9.669-11.491 15.999z"/></g></switch> </svg>