<svg xmlns="http://www.w3.org/2000/svg" style="isolation:isolate" width="256" height="256"><defs><clipPath id="a"><path d="M0 0h256v256H0z"/></clipPath></defs><switch><g clip-path="url(#a)"><defs><filter id="b" width="270.648" height="254.338" x="-6.66" y="4.28" filterUnits="userSpaceOnUse"><feGaussianBlur xmlns="http://www.w3.org/2000/svg" in="SourceGraphic" stdDeviation="4.294"/><feOffset xmlns="http://www.w3.org/2000/svg" dy="4" result="pf_100_offsetBlur"/><feFlood xmlns="http://www.w3.org/2000/svg" flood-opacity=".4"/><feComposite xmlns="http://www.w3.org/2000/svg" in2="pf_100_offsetBlur" operator="in" result="pf_100_dropShadow"/><feBlend xmlns="http://www.w3.org/2000/svg" in="SourceGraphic" in2="pf_100_dropShadow"/></filter></defs><g filter="url(#b)"><linearGradient id="c" x1=".5" x2=".5" y1="-.036" y2="1.036" gradientTransform="matrix(244.648 0 0 228.338 6.343 13.28)" gradientUnits="userSpaceOnUse"><stop offset="0%" stop-color="#da1636"/><stop offset="100%" stop-color="#f22c42"/></linearGradient><path fill="url(#c)" d="M166.351 13.28c74.056 0 84.64 10.557 84.64 84.544v59.251c0 73.986-10.584 84.544-84.64 84.544H90.982c-74.056 0-84.639-10.558-84.639-84.544V97.824c0-73.987 10.583-84.544 84.639-84.544h75.369z"/></g><path fill="#FFF" d="M8.476 55.74C6.729 66.667 6.158 80.255 6.158 97.205v59.251c0 73.986 10.584 84.544 84.64 84.544h75.369c55.135 0 75.078-5.874 81.675-39.397L8.476 55.74z" opacity=".05"/><g fill="#FFF"><path d="M5.68 84.361l36.697 20.98s2.471 1.019 3.32 1.019c.849 0 4.659-1.767 4.659-1.767l68.388-39.184s2.348-1.576 3.685-1.967c1.116-.326 2.343-.531 3.478-.274 3.105.702 8.272 4.776 8.272 4.776s1.705 1.212 1.98 2.146c.236.8-.018 1.739-.427 2.466-.36.639-1.66 1.446-1.66 1.446l-85.579 49.095s-1.736.54-2.631.534c-.841-.004-2.465-.534-2.465-.534L5.68 101.69V84.361z"/><path d="M5.68 119.02l36.697 20.979s2.471 1.02 3.32 1.02c.849 0 4.659-1.767 4.659-1.767l68.388-39.184s2.348-1.576 3.685-1.967c1.116-.327 2.343-.531 3.478-.275 3.105.703 8.272 4.777 8.272 4.777s1.705 1.212 1.98 2.145c.236.801-.018 1.739-.427 2.466-.36.64-1.66 1.447-1.66 1.447l-85.579 49.095s-1.736.539-2.631.533c-.841-.003-2.465-.533-2.465-.533L5.68 136.349V119.02z"/><path d="M5.68 153.678l36.697 20.98s2.471 1.019 3.32 1.019c.849 0 4.659-1.766 4.659-1.766l68.388-39.184s2.348-1.576 3.685-1.967c1.116-.327 2.343-.532 3.478-.275 3.105.703 8.272 4.777 8.272 4.777s1.705 1.212 1.98 2.145c.236.8-.018 1.739-.427 2.466-.36.639-1.66 1.446-1.66 1.446l-85.579 49.095s-1.736.54-2.631.534c-.841-.004-2.465-.534-2.465-.534L5.68 171.008v-17.33z"/></g><g opacity=".4"><linearGradient id="d" x1=".517" x2=".517" y2="1"><stop offset="0%" stop-color="#fff"/><stop offset="12.5%" stop-opacity=".098" stop-color="#fff"/><stop offset="92.5%" stop-opacity=".098"/><stop offset="100%" stop-opacity=".498"/></linearGradient><path fill="none" stroke="url(#d)" stroke-linecap="round" stroke-linejoin="round" stroke-width="4.077" d="M165.685 11.947c74.055 0 84.639 10.557 84.639 84.544v59.251c0 73.986-10.584 84.543-84.639 84.543h-75.37c-74.055 0-84.639-10.557-84.639-84.543V96.491c0-73.987 10.584-84.544 84.639-84.544h75.37z" vector-effect="non-scaling-stroke"/></g></g></switch> </svg>