<svg xmlns="http://www.w3.org/2000/svg" style="isolation:isolate" width="256" height="256"><switch><g><defs><filter id="a" width="270.648" height="254.338" x="-7.32" y="2.95" filterUnits="userSpaceOnUse"><feGaussianBlur xmlns="http://www.w3.org/2000/svg" in="SourceGraphic" stdDeviation="4.294"/><feOffset xmlns="http://www.w3.org/2000/svg" dy="4" result="pf_100_offsetBlur"/><feFlood xmlns="http://www.w3.org/2000/svg" flood-opacity=".4"/><feComposite xmlns="http://www.w3.org/2000/svg" in2="pf_100_offsetBlur" operator="in" result="pf_100_dropShadow"/><feBlend xmlns="http://www.w3.org/2000/svg" in="SourceGraphic" in2="pf_100_dropShadow"/></filter></defs><g filter="url(#a)"><linearGradient id="b" x1=".48" x2=".484" y1=".981" y2=".022" gradientTransform="matrix(244.648 0 0 228.338 5.68 11.95)" gradientUnits="userSpaceOnUse"><stop offset=".435%" stop-color="#bc1938"/><stop offset="100%" stop-color="#f22c42"/></linearGradient><path fill="url(#b)" d="M165.689 11.95c74.056 0 84.639 10.557 84.639 84.544v59.251c0 73.986-10.583 84.543-84.639 84.543h-75.37c-74.055 0-84.639-10.557-84.639-84.543V96.494c0-73.987 10.584-84.544 84.639-84.544h75.37z"/></g><g opacity=".4"><linearGradient id="c" x1=".517" x2=".517" y2="1"><stop offset="0%" stop-color="#fff"/><stop offset="12.5%" stop-opacity=".098" stop-color="#fff"/><stop offset="92.5%" stop-opacity=".098"/><stop offset="100%" stop-opacity=".498"/></linearGradient><path fill="none" stroke="url(#c)" stroke-linecap="round" stroke-linejoin="round" stroke-width="4.077" d="M165.685 11.947c74.055 0 84.639 10.557 84.639 84.544v59.251c0 73.986-10.584 84.543-84.639 84.543h-75.37c-74.055 0-84.639-10.557-84.639-84.543V96.491c0-73.987 10.584-84.544 84.639-84.544h75.37z" vector-effect="non-scaling-stroke"/></g><g filter="url(#d)"><linearGradient id="e" x1=".233" x2=".933" y1="-.071" y2=".995" gradientTransform="matrix(185 0 0 170 35.5 43)" gradientUnits="userSpaceOnUse"><stop offset="0%" stop-color="#fafafa"/><stop offset="100%" stop-color="#e1e1e1"/></linearGradient><path fill="url(#e)" d="M156.497 43c56 0 64.003 7.86 64.003 62.944v44.112c0 55.084-8.003 62.944-64.003 62.944H99.503c-56 0-64.003-7.86-64.003-62.944v-44.112C35.5 50.86 43.503 43 99.503 43h56.994z"/><g opacity=".9"><path fill="#FFF" d="M126.337 65.322l-32.74 33.6h19.644v60.479H93.597L126.337 193l32.741-33.599h-19.644V98.922h19.644l-32.741-33.6z" opacity=".5"/><path fill-opacity=".2" d="M129.663 91.665c-39.217 0-45.838 6.769-45.838 15.119 0 7.375 5.164 13.51 33.406 14.845l2.609 18.755h19.645l2.609-18.755c28.242-1.335 33.406-7.47 33.406-14.845 0-8.35-6.621-15.119-45.837-15.119z" opacity=".9"/><path fill="#424242" d="M126.337 63l-32.74 33.6h19.644v60.479H93.597l32.74 33.599 32.741-33.599h-19.644V96.6h19.644L126.337 63z" opacity=".9"/><path fill="#B3B3B3" d="M113.241 113.399l3.274 23.52h19.645l3.274-23.52h-26.193z" opacity=".9"/><path d="M126.338 63L93.596 96.6h3.146l29.596-30.372L155.933 96.6h3.145L126.338 63zm-32.742 94.078l3.146 3.228h16.499v-3.228H93.596zm45.838 0v3.228h16.499l3.145-3.228h-19.644z" opacity=".3"/><path fill="#BC1938" d="M172.175 103.32c0 8.35-6.569 15.119-45.838 15.119-39.268 0-45.837-6.769-45.837-15.119 0-8.351 6.621-15.12 45.837-15.12 39.217 0 45.838 6.769 45.838 15.12z"/><path d="M116.053 133.599l.462 3.32h19.645l.469-3.374-20.576.054z" opacity=".2"/><path fill="#FFF" d="M126.338 88.2c-39.217 0-45.838 6.769-45.838 15.12 0 .546.03 1.085.094 1.616.91-7.592 9.084-13.508 45.744-13.508 36.659 0 44.833 5.916 45.743 13.508.064-.531.094-1.07.094-1.616 0-8.351-6.621-15.12-45.837-15.12z" opacity=".3"/><path d="M80.536 102.352c-.021.32-.036.642-.036.968 0 8.35 6.57 15.119 45.838 15.119s45.837-6.769 45.837-15.119c0-.325-.015-.646-.036-.965-.533 7.897-8.071 14.148-45.801 14.148-37.736 0-45.271-6.253-45.802-14.151z" opacity=".3"/></g></g><defs><filter id="d" width="245" height="230" x="5.5" y="17" filterUnits="userSpaceOnUse"><feGaussianBlur xmlns="http://www.w3.org/2000/svg" in="SourceGraphic" stdDeviation="4.294"/><feOffset xmlns="http://www.w3.org/2000/svg" dy="4" result="pf_100_offsetBlur"/><feFlood xmlns="http://www.w3.org/2000/svg" flood-opacity=".4"/><feComposite xmlns="http://www.w3.org/2000/svg" in2="pf_100_offsetBlur" operator="in" result="pf_100_dropShadow"/><feBlend xmlns="http://www.w3.org/2000/svg" in="SourceGraphic" in2="pf_100_dropShadow"/></filter></defs></g></switch> </svg>