<?xml version="1.0" standalone="no"?>
<!--Generator: Gravit.io-->
<svg xmlns="http://www.w3.org/2000/svg" xmlns:xlink="http://www.w3.org/1999/xlink" width="256" height="256" style="isolation:isolate" viewBox="0 0 256 256">
    <defs>
        <clipPath id="_clipPath_0vppGBpyHJXVDWTOq9XCcowFQHSfWty6">
            <rect width="256" height="256"/>
        </clipPath>
    </defs>
    <g clip-path="url(#_clipPath_0vppGBpyHJXVDWTOq9XCcowFQHSfWty6)">
        <rect width="256" height="256" style="fill:rgba(0,0,0,0)"/>
        <g id="icon">
            <g id="drop shadow">
                <defs>
                    <filter id="J0fnBSb9nfzZqRDD3JAhVge4li8xsNxg" width="400%" height="400%" x="-200%" y="-200%">
                        <feGaussianBlur xmlns="http://www.w3.org/2000/svg" stdDeviation="2.32"/>
                    </filter>
                </defs>
                <g filter="url(#J0fnBSb9nfzZqRDD3JAhVge4li8xsNxg)" opacity="0.2">
                    <path fill="rgb(0,0,0)" d=" M 165.352 16.516 C 239.408 16.516 249.992 27.073 249.992 101.06 L 249.992 160.312 C 249.992 234.298 239.408 244.856 165.352 244.856 L 89.982 244.856 C 15.925 244.856 5.342 234.298 5.342 160.312 L 5.342 101.06 C 5.342 27.073 15.925 16.516 89.982 16.516 L 165.352 16.516 Z "/>
                </g>
                <defs>
                    <filter id="Mxg3FssZ0gVQjacpTJMfoVPHXnhBf2js" width="400%" height="400%" x="-200%" y="-200%">
                        <feGaussianBlur xmlns="http://www.w3.org/2000/svg" stdDeviation="1.16"/>
                    </filter>
                </defs>
                <g filter="url(#Mxg3FssZ0gVQjacpTJMfoVPHXnhBf2js)" opacity="0.1">
                    <path fill="rgb(0,0,0)" d=" M 165.352 15.497 C 239.408 15.497 249.992 26.054 249.992 100.041 L 249.992 159.292 C 249.992 233.279 239.408 243.837 165.352 243.837 L 89.982 243.837 C 15.925 243.837 5.342 233.279 5.342 159.292 L 5.342 100.041 C 5.342 26.054 15.925 15.497 89.982 15.497 L 165.352 15.497 Z "/>
                </g>
            </g>
            <path fill="rgb(255,255,255)" d=" M 165.352 14.477 C 239.408 14.477 249.992 25.035 249.992 99.022 L 249.992 158.273 C 249.992 232.26 239.408 242.817 165.352 242.817 L 89.982 242.817 C 15.925 242.817 5.342 232.26 5.342 158.273 L 5.342 99.022 C 5.342 25.035 15.925 14.477 89.982 14.477 L 165.352 14.477 Z "/>
            <clipPath id="_clipPath_b8C81KUThuxdryoirGENS2iVGZtXCzys">
                <path fill="rgb(255,255,255)" d=" M 165.352 14.477 C 239.408 14.477 249.992 25.035 249.992 99.022 L 249.992 158.273 C 249.992 232.26 239.408 242.817 165.352 242.817 L 89.982 242.817 C 15.925 242.817 5.342 232.26 5.342 158.273 L 5.342 99.022 C 5.342 25.035 15.925 14.477 89.982 14.477 L 165.352 14.477 Z "/>
            </clipPath>
            <g clip-path="url(#_clipPath_b8C81KUThuxdryoirGENS2iVGZtXCzys)">
                <path fill="rgb(227,223,213)" d=" M 165.352 14.477 C 239.408 14.477 249.992 25.035 249.992 99.022 L 249.992 158.273 C 249.992 232.26 239.408 242.817 165.352 242.817 L 89.982 242.817 C 15.925 242.817 5.342 232.26 5.342 158.273 L 5.342 99.022 C 5.342 25.035 15.925 14.477 89.982 14.477 L 165.352 14.477 Z "/>
                <g opacity="0.1">
                    <path fill="rgb(255,255,255)" d=" M 90.983 242.982 C 16.927 242.982 6.343 232.425 6.343 158.439 L 6.343 128.813 L 250.992 128.813 L 250.992 158.439 C 250.992 232.425 240.408 242.982 166.352 242.982 L 90.983 242.982 Z "/>
                </g>
                <g opacity="0.1">
                    <path fill="rgb(255,255,255)" d=" M 128.667 14.644 L 128.667 242.982 L 166.352 242.982 C 240.408 242.982 250.992 232.425 250.992 158.439 L 250.992 99.188 C 250.992 25.201 240.408 14.644 166.352 14.644 L 128.667 14.644 Z "/>
                </g>
            </g>
            <g id="highlight">
                <clipPath id="_clipPath_6mFd9YExccY5AYa1APDxUQA1oCmARgnf">
                    <path fill="rgb(255,255,255)" d=" M 165.352 14.477 C 239.408 14.477 249.992 25.035 249.992 99.022 L 249.992 158.273 C 249.992 232.26 239.408 242.817 165.352 242.817 L 89.982 242.817 C 15.925 242.817 5.342 232.26 5.342 158.273 L 5.342 99.022 C 5.342 25.035 15.925 14.477 89.982 14.477 L 165.352 14.477 Z "/>
                </clipPath>
                <g clip-path="url(#_clipPath_6mFd9YExccY5AYa1APDxUQA1oCmARgnf)">
                    <g opacity="0.4">
                        <linearGradient id="_lgradient_53" x1="51.666666666666686%" x2="51.66666666666666%" y1="0%" y2="100.00000000000003%">
                            <stop offset="0%" stop-opacity="1" style="stop-color:rgb(255,255,255)"/>
                            <stop offset="12.5%" stop-opacity="0.09803922" style="stop-color:rgb(255,255,255)"/>
                            <stop offset="92.500001%" stop-opacity="0.09803922" style="stop-color:rgb(0,0,0)"/>
                            <stop offset="100%" stop-opacity="0.49803922" style="stop-color:rgb(0,0,0)"/>
                        </linearGradient>
                        <path fill="none" stroke="url(#_lgradient_53)" stroke-linecap="round" stroke-linejoin="round" stroke-miterlimit="4" stroke-width="4" d=" M 165.352 14.477 C 239.408 14.477 249.992 25.035 249.992 99.022 L 249.992 158.273 C 249.992 232.26 239.408 242.817 165.352 242.817 L 89.982 242.817 C 15.925 242.817 5.342 232.26 5.342 158.273 L 5.342 99.022 C 5.342 25.035 15.925 14.477 89.982 14.477 L 165.352 14.477 Z " vector-effect="non-scaling-stroke"/>
                    </g>
                </g>
            </g>
        </g>
        <path fill="rgb(74,58,18)" d=" M 143.905 68.469 L 143.905 175.647 L 143.905 175.647 Q 143.905 179.953 144.688 182.498 L 144.688 182.498 L 144.688 182.498 Q 145.471 185.043 146.891 186.413 L 146.891 186.413 L 146.891 186.413 Q 148.31 187.784 150.17 188.224 L 150.17 188.224 L 150.17 188.224 Q 152.029 188.664 154.183 188.664 L 154.183 188.664 L 162.6 188.664 L 162.6 199.333 L 93.4 199.333 L 93.4 188.664 L 101.817 188.664 L 101.817 188.664 Q 104.069 188.664 105.928 188.224 L 105.928 188.224 L 105.928 188.224 Q 107.788 187.784 109.158 186.413 L 109.158 186.413 L 109.158 186.413 Q 110.529 185.043 111.312 182.498 L 111.312 182.498 L 111.312 182.498 Q 112.095 179.953 112.095 175.647 L 112.095 175.647 L 112.095 68.469 L 96.042 68.469 L 96.042 68.469 Q 91.54 68.469 88.506 69.448 L 88.506 69.448 L 88.506 69.448 Q 85.471 70.426 83.563 72.237 L 83.563 72.237 L 83.563 72.237 Q 81.654 74.048 80.724 76.691 L 80.724 76.691 L 80.724 76.691 Q 79.794 79.333 79.403 82.661 L 79.403 82.661 L 78.033 95.092 L 64.525 95.092 L 65.602 56.234 L 190.496 56.234 L 191.475 95.092 L 178.065 95.092 L 176.597 82.661 L 176.597 82.661 Q 176.206 79.333 175.276 76.691 L 175.276 76.691 L 175.276 76.691 Q 174.346 74.048 172.437 72.237 L 172.437 72.237 L 172.437 72.237 Q 170.529 70.426 167.494 69.448 L 167.494 69.448 L 167.494 69.448 Q 164.46 68.469 159.958 68.469 L 159.958 68.469 L 143.905 68.469 Z "/>
    </g>
</svg>
