<svg xmlns="http://www.w3.org/2000/svg" style="isolation:isolate" width="256" height="256"><switch><g><defs><filter id="a" width="270.648" height="254.338" x="-7.32" y="2.95" filterUnits="userSpaceOnUse"><feGaussianBlur xmlns="http://www.w3.org/2000/svg" in="SourceGraphic" stdDeviation="4.294"/><feOffset xmlns="http://www.w3.org/2000/svg" dy="4" result="pf_100_offsetBlur"/><feFlood xmlns="http://www.w3.org/2000/svg" flood-opacity=".4"/><feComposite xmlns="http://www.w3.org/2000/svg" in2="pf_100_offsetBlur" operator="in" result="pf_100_dropShadow"/><feBlend xmlns="http://www.w3.org/2000/svg" in="SourceGraphic" in2="pf_100_dropShadow"/></filter></defs><path fill="#333" d="M165.689 11.95c74.056 0 84.639 10.557 84.639 84.544v59.251c0 73.986-10.583 84.543-84.639 84.543h-75.37c-74.055 0-84.639-10.557-84.639-84.543V96.494c0-73.987 10.584-84.544 84.639-84.544h75.37z" filter="url(#a)"/><g opacity=".4"><linearGradient id="b" x1=".517" x2=".517" y2="1"><stop offset="0%" stop-color="#fff"/><stop offset="12.5%" stop-opacity=".098" stop-color="#fff"/><stop offset="92.5%" stop-opacity=".098"/><stop offset="100%" stop-opacity=".498"/></linearGradient><path fill="none" stroke="url(#b)" stroke-linecap="round" stroke-linejoin="round" stroke-width="4.077" d="M165.685 11.947c74.055 0 84.639 10.557 84.639 84.544v59.251c0 73.986-10.584 84.543-84.639 84.543h-75.37c-74.055 0-84.639-10.557-84.639-84.543V96.491c0-73.987 10.584-84.544 84.639-84.544h75.37z" vector-effect="non-scaling-stroke"/></g><g filter="url(#c)"><path fill="#FFF" d="M93.432 99.524c-9.223.112-16.902 3.693-16.902 3.693s.386 15.107 14.728 21.906c14.345 6.8 31.396 3.403 31.396 3.403s-.388-17-14.344-25.309c-4.798-2.857-10.046-3.751-14.878-3.693zm69.052 0c-4.831-.058-10.088.836-14.886 3.693-13.954 8.312-14.345 25.309-14.345 25.309s17.062 3.397 31.405-3.403c14.343-6.799 14.729-21.906 14.729-21.906s-7.679-3.581-16.903-3.693z"/><path fill="#76C22B" d="M128 55c-28.699 0-60 26.331-60 64.447S95.663 200 128 200s60-42.437 60-80.553S156.699 55 128 55zM93.302 99.525c4.855-.061 10.129.868 14.951 3.839 14.026 8.645 14.417 26.33 14.417 26.33s-17.136 3.534-31.553-3.54c-14.415-7.074-14.803-22.79-14.803-22.79s7.718-3.723 16.988-3.839zm69.396 0c9.27.116 16.988 3.839 16.988 3.839s-.388 15.716-14.803 22.79c-14.414 7.074-31.561 3.54-31.561 3.54s.392-17.683 14.415-26.33c4.822-2.971 10.106-3.9 14.961-3.839z"/></g><defs><filter id="c" width="180" height="205" x="38" y="29" filterUnits="userSpaceOnUse"><feGaussianBlur xmlns="http://www.w3.org/2000/svg" in="SourceGraphic" stdDeviation="4.294"/><feOffset xmlns="http://www.w3.org/2000/svg" dy="4" result="pf_100_offsetBlur"/><feFlood xmlns="http://www.w3.org/2000/svg" flood-opacity=".4"/><feComposite xmlns="http://www.w3.org/2000/svg" in2="pf_100_offsetBlur" operator="in" result="pf_100_dropShadow"/><feBlend xmlns="http://www.w3.org/2000/svg" in="SourceGraphic" in2="pf_100_dropShadow"/></filter></defs></g></switch> </svg>