<svg xmlns="http://www.w3.org/2000/svg" style="isolation:isolate" width="256" height="256"><switch><g><defs><filter id="a" width="270.648" height="254.338" x="-7.32" y="2.95" filterUnits="userSpaceOnUse"><feGaussianBlur xmlns="http://www.w3.org/2000/svg" in="SourceGraphic" stdDeviation="4.294"/><feOffset xmlns="http://www.w3.org/2000/svg" dy="4" result="pf_100_offsetBlur"/><feFlood xmlns="http://www.w3.org/2000/svg" flood-opacity=".4"/><feComposite xmlns="http://www.w3.org/2000/svg" in2="pf_100_offsetBlur" operator="in" result="pf_100_dropShadow"/><feBlend xmlns="http://www.w3.org/2000/svg" in="SourceGraphic" in2="pf_100_dropShadow"/></filter></defs><path fill="#FEE581" d="M165.689 11.95c74.056 0 84.639 10.557 84.639 84.544v59.251c0 73.986-10.583 84.543-84.639 84.543h-75.37c-74.055 0-84.639-10.557-84.639-84.543V96.494c0-73.987 10.584-84.544 84.639-84.544h75.37z" filter="url(#a)"/><g opacity=".4"><linearGradient id="b" x1=".517" x2=".517" y2="1"><stop offset="0%" stop-color="#fff"/><stop offset="12.5%" stop-opacity=".098" stop-color="#fff"/><stop offset="92.5%" stop-opacity=".098"/><stop offset="100%" stop-opacity=".498"/></linearGradient><path fill="none" stroke="url(#b)" stroke-linecap="round" stroke-linejoin="round" stroke-width="4.077" d="M165.685 11.947c74.055 0 84.639 10.557 84.639 84.544v59.251c0 73.986-10.584 84.543-84.639 84.543h-75.37c-74.055 0-84.639-10.557-84.639-84.543V96.491c0-73.987 10.584-84.544 84.639-84.544h75.37z" vector-effect="non-scaling-stroke"/></g><g fill="#BC1938"><path fill-rule="evenodd" d="M98.75 77.667v6.904H82.5v48.334H63V198.5h78v-65.595H89V91.476h9.75v6.905L115 88.024 98.75 77.667zm-31.064 60.53h68.543v55.549H67.686v-55.549z"/><path fill-rule="evenodd" d="M115 53.5v65.595h52v37.976h-9.75v-6.904L141 160.524l16.25 10.357v-6.905h16.25v-44.881H193V53.5h-78zm4.878 5.078h68.25v55.791h-68.25V58.578z"/><path d="M152.391 63.857c-4.488 0-8.125 3.863-8.125 8.631 0 4.171 2.799 7.609 6.5 8.417v.107l-9.548 9.819 2.236 2.482 7.312-7.554v5.61l-7.007 15.536 2.945 1.512 5.687-12.732 5.688 12.732 2.944-1.512-7.007-15.536v-5.61l7.313 7.554 2.236-2.482-9.549-9.926c3.702-.804 6.5-4.243 6.5-8.417 0-4.768-3.636-8.631-8.125-8.631zm0 3.453c2.691 0 4.875 2.32 4.875 5.178 0 2.859-2.184 5.179-4.875 5.179s-4.875-2.32-4.875-5.179c0-2.858 2.184-5.178 4.875-5.178zM98.747 141.722l-.013 1.571c-4.095.328-8.002 1.346-11.531 3.452-6.01 3.411-10.088 13.306-10.312 20.19.013.628-.127 1.332.113 1.912.572.784 1.937 1.019 2.542.145 1.557-1.909 3.968-3.245 6.497-3.11 2.362-.128 4.546 1.232 5.924 3.055.498.691 1.557.874 2.207.301.783-.781 1.476-1.682 2.438-2.279a6.179 6.179 0 0 1 2.255-.932c.14 5.997-.006 8.641.023 14.638.049.991-.192 1.975-.848 2.734-1.164 1.568-3.452 2.148-5.213 1.24-1.391-.663-2.305-2.113-2.379-3.629-.069-.749-.569-1.519-1.391-1.571-.923-.124-1.739.743-1.612 1.644-.056 3.286 2.574 6.255 5.781 6.877 3.445.766 7.225-1.381 8.314-4.695.617-1.785.286-3.701.39-5.552.026-5.02-.072-6.687.075-11.707 1.891.387 3.422 1.723 4.595 3.169.666.636 1.833.494 2.33-.279 1.112-1.447 2.701-2.603 4.531-2.911 2.363-.479 4.774.446 6.565 1.961.699.466 1.219 1.236 2.005 1.561 1.014.318 2.246-.604 1.986-1.699.032-6.397-3.201-16.012-8.382-19.775-3.591-2.648-7.966-4.146-12.408-4.605-.413-.076-.832-.049-1.196-.156l-.03-1.56c.017-2.382-3.181-2.348-3.25 0m15.795 10.16c2.012 1.63 4.719 7.247 5.382 11.075-1.982-1.239-3.617-1.236-5.989-1.001-2.363.166-4.593 2.196-6.286 3.815-2.038-1.961-4.868-4.039-7.738-3.825-2.506.065-4.882 1.219-6.682 2.903-2.733-2.682-7.023-3.659-10.683-2.403-.796.256-1.631.373-1.706-.348 1.001-5.03 6.614-11.055 8.765-12.36 2.249-1.229 7.033-3.141 11.001-2.99 5.187-.29 11.661 2.918 13.936 5.141"/></g></g></switch> </svg>