<?xml version="1.0" encoding="UTF-8" standalone="no"?>
<!-- Created with Inkscape (http://www.inkscape.org/) -->

<svg
   xmlns:dc="http://purl.org/dc/elements/1.1/"
   xmlns:cc="http://creativecommons.org/ns#"
   xmlns:rdf="http://www.w3.org/1999/02/22-rdf-syntax-ns#"
   xmlns:svg="http://www.w3.org/2000/svg"
   xmlns="http://www.w3.org/2000/svg"
   xmlns:xlink="http://www.w3.org/1999/xlink"
   xmlns:sodipodi="http://sodipodi.sourceforge.net/DTD/sodipodi-0.dtd"
   xmlns:inkscape="http://www.inkscape.org/namespaces/inkscape"
   width="256"
   height="256"
   viewBox="0 0 67.733332 67.733335"
   version="1.1"
   id="svg1488"
   inkscape:version="0.92.3 (2405546, 2018-03-11)"
   sodipodi:docname="covergloobus.svg">
  <defs
     id="defs1482">
    <linearGradient
       inkscape:collect="always"
       id="linearGradient2113">
      <stop
         style="stop-color:#e88720;stop-opacity:1"
         offset="0"
         id="stop2109" />
      <stop
         id="stop2117"
         offset="0.5"
         style="stop-color:#ffe000;stop-opacity:0.98823529" />
      <stop
         style="stop-color:#54ec18;stop-opacity:0.98039216"
         offset="0.75"
         id="stop2119" />
      <stop
         style="stop-color:#1bfdc5;stop-opacity:0.97647059"
         offset="1"
         id="stop2111" />
    </linearGradient>
    <linearGradient
       inkscape:collect="always"
       id="linearGradient864">
      <stop
         style="stop-color:#09aeff;stop-opacity:1"
         offset="0"
         id="stop860" />
      <stop
         style="stop-color:#206f95;stop-opacity:0.99215686"
         offset="1"
         id="stop862" />
    </linearGradient>
    <clipPath
       clipPathUnits="userSpaceOnUse"
       id="clipPath1025">
      <path
         id="path1027"
         d="M 111.94141,84 C 99.359506,84.145 90.1531,83.713998 82.625,87.867188 c -3.7641,2.0768 -6.751838,5.574737 -8.398438,9.960937 C 72.580062,102.21433 72,107.4241 72,114 v 42 h 160 v -26 c 0,-6.5759 -0.57996,-11.78566 -2.22656,-16.17188 -0.205,-0.5455 -0.47919,-1.03993 -0.74219,-1.54296 -0.1,-0.1848 -0.17844,-0.38051 -0.27344,-0.56641 -1.727,-3.38752 -4.25471,-6.14522 -7.38281,-7.87109 C 213.8463,99.694146 204.64049,100.1454 192.05859,100 H 192 151.66797 L 135.45312,84 h -23.49218 z"
         style="color:#000000;font-style:normal;font-variant:normal;font-weight:normal;font-stretch:normal;font-size:medium;line-height:normal;font-family:sans-serif;font-variant-ligatures:none;font-variant-position:normal;font-variant-caps:normal;font-variant-numeric:normal;font-variant-alternates:normal;font-feature-settings:normal;text-indent:0;text-align:start;text-decoration:none;text-decoration-line:none;text-decoration-style:solid;text-decoration-color:#000000;letter-spacing:normal;word-spacing:normal;text-transform:none;writing-mode:lr-tb;direction:ltr;baseline-shift:baseline;text-anchor:start;white-space:normal;shape-padding:0;clip-rule:nonzero;display:inline;overflow:visible;visibility:visible;opacity:1;isolation:auto;mix-blend-mode:normal;color-interpolation:sRGB;color-interpolation-filters:linearRGB;solid-color:#000000;solid-opacity:1;fill:#e3dfd5;fill-opacity:1;fill-rule:nonzero;stroke:none;stroke-width:4.00000048;stroke-linecap:butt;stroke-linejoin:miter;stroke-miterlimit:4;stroke-dasharray:none;stroke-dashoffset:0;stroke-opacity:1;marker:none;color-rendering:auto;image-rendering:auto;shape-rendering:auto;text-rendering:auto;enable-background:accumulate"
         inkscape:connector-curvature="0" />
    </clipPath>
    <linearGradient
       id="linearGradient1013"
       inkscape:collect="always">
      <stop
         id="stop1005"
         offset="0"
         style="stop-color:#ffffff;stop-opacity:1;" />
      <stop
         style="stop-color:#ffffff;stop-opacity:0.09803922"
         offset="0.125"
         id="stop1007" />
      <stop
         style="stop-color:#000000;stop-opacity:0.09803922"
         offset="0.92500001"
         id="stop1009" />
      <stop
         id="stop1011"
         offset="1"
         style="stop-color:#000000;stop-opacity:0.49803922" />
    </linearGradient>
    <clipPath
       clipPathUnits="userSpaceOnUse"
       id="clipPath1082-3">
      <path
         sodipodi:nodetypes="sssssssss"
         inkscape:connector-curvature="0"
         id="path1084-6"
         d="M 361.9375,-212 C 507.2348,-212 528,-191.28677 528,-46.125 V 70.125 C 528,215.28618 507.2348,236 361.9375,236 H 214.0625 C 68.7652,236 48,215.28618 48,70.125 V -46.125 C 48,-191.28677 68.7652,-212 214.0625,-212 Z"
         style="display:inline;opacity:1;fill:#8c59d9;fill-opacity:1;stroke:none;stroke-width:2;stroke-linecap:round;stroke-linejoin:round;stroke-miterlimit:4;stroke-dasharray:none;stroke-dashoffset:0;stroke-opacity:1;enable-background:new" />
    </clipPath>
    <clipPath
       clipPathUnits="userSpaceOnUse"
       id="clipPath1082-3-5">
      <path
         sodipodi:nodetypes="sssssssss"
         inkscape:connector-curvature="0"
         id="path1084-6-6"
         d="M 361.9375,-212 C 507.2348,-212 528,-191.28677 528,-46.125 V 70.125 C 528,215.28618 507.2348,236 361.9375,236 H 214.0625 C 68.7652,236 48,215.28618 48,70.125 V -46.125 C 48,-191.28677 68.7652,-212 214.0625,-212 Z"
         style="display:inline;opacity:1;fill:#8c59d9;fill-opacity:1;stroke:none;stroke-width:2;stroke-linecap:round;stroke-linejoin:round;stroke-miterlimit:4;stroke-dasharray:none;stroke-dashoffset:0;stroke-opacity:1;enable-background:new" />
    </clipPath>
    <filter
       inkscape:collect="always"
       style="color-interpolation-filters:sRGB"
       id="filter4569-2"
       x="-0.0116"
       width="1.0232"
       y="-0.012428571"
       height="1.024857">
      <feGaussianBlur
         inkscape:collect="always"
         stdDeviation="1.16"
         id="feGaussianBlur4571-9" />
    </filter>
    <filter
       inkscape:collect="always"
       style="color-interpolation-filters:sRGB"
       id="filter913"
       x="-0.0232"
       width="1.0464"
       y="-0.024857143"
       height="1.0497143">
      <feGaussianBlur
         inkscape:collect="always"
         stdDeviation="2.32"
         id="feGaussianBlur915" />
    </filter>
    <linearGradient
       inkscape:collect="always"
       xlink:href="#linearGradient1013"
       id="linearGradient906"
       gradientUnits="userSpaceOnUse"
       x1="296"
       y1="-212"
       x2="296"
       y2="236" />
    <linearGradient
       id="b"
       x2="23.747913"
       x1="23.747913"
       y2="47.234066"
       gradientTransform="matrix(2.4972273,0,0,1.1461579,2.0499405,37.362662)"
       y1="7.3803473"
       gradientUnits="userSpaceOnUse">
      <stop
         stop-color="#EFEFEE"
         offset="0"
         id="stop7" />
      <stop
         stop-color="#84827E"
         offset="1"
         id="stop9" />
    </linearGradient>
    <radialGradient
       inkscape:collect="always"
       xlink:href="#linearGradient864"
       id="radialGradient866"
       cx="33.785057"
       cy="256.4277"
       fx="33.785057"
       fy="256.4277"
       r="21.70617"
       gradientTransform="matrix(1,0,0,1.0912065,3.3226671e-7,-23.954008)"
       gradientUnits="userSpaceOnUse" />
    <linearGradient
       id="linearGradient3176">
      <stop
         id="stop3178"
         offset="0"
         style="stop-color:#005693;stop-opacity:1;" />
      <stop
         style="stop-color:#1d96dc;stop-opacity:1;"
         offset="0.64838707"
         id="stop3365" />
      <stop
         id="stop3180"
         offset="1"
         style="stop-color:#3cc1ff;stop-opacity:0.75539571;" />
    </linearGradient>
    <linearGradient
       id="linearGradient3172">
      <stop
         style="stop-color:#005c9b;stop-opacity:1;"
         offset="0"
         id="stop3174" />
      <stop
         style="stop-color:#55baff;stop-opacity:1;"
         offset="1"
         id="stop3176" />
    </linearGradient>
    <linearGradient
       id="linearGradient3223">
      <stop
         id="stop3225"
         offset="0"
         style="stop-color:#003e69;stop-opacity:1;" />
      <stop
         id="stop3227"
         offset="1"
         style="stop-color:#17a3ff;stop-opacity:1;" />
    </linearGradient>
    <linearGradient
       inkscape:collect="always"
       xlink:href="#linearGradient2113"
       id="linearGradient2115"
       x1="12.033336"
       y1="262.63112"
       x2="55.709239"
       y2="262.63112"
       gradientUnits="userSpaceOnUse" />
    <filter
       inkscape:collect="always"
       style="color-interpolation-filters:sRGB"
       id="filter2824"
       x="-0.038981041"
       width="1.0779621"
       y="-0.062448597"
       height="1.1248972">
      <feGaussianBlur
         inkscape:collect="always"
         stdDeviation="0.68781537"
         id="feGaussianBlur2826" />
    </filter>
    <filter
       inkscape:collect="always"
       style="color-interpolation-filters:sRGB"
       id="filter2868"
       x="-0.029235781"
       width="1.0584716"
       y="-0.046836448"
       height="1.0936729">
      <feGaussianBlur
         inkscape:collect="always"
         stdDeviation="0.51586153"
         id="feGaussianBlur2870" />
    </filter>
  </defs>
  <sodipodi:namedview
     id="base"
     pagecolor="#ffffff"
     bordercolor="#666666"
     borderopacity="1.0"
     inkscape:pageopacity="0.0"
     inkscape:pageshadow="2"
     inkscape:zoom="3.2382812"
     inkscape:cx="72.959839"
     inkscape:cy="128"
     inkscape:document-units="px"
     inkscape:current-layer="layer1"
     showgrid="false"
     units="px"
     inkscape:window-width="1920"
     inkscape:window-height="1009"
     inkscape:window-x="0"
     inkscape:window-y="34"
     inkscape:window-maximized="1">
    <inkscape:grid
       type="xygrid"
       id="grid2168" />
  </sodipodi:namedview>
  <metadata
     id="metadata1485">
    <rdf:RDF>
      <cc:Work
         rdf:about="">
        <dc:format>image/svg+xml</dc:format>
        <dc:type
           rdf:resource="http://purl.org/dc/dcmitype/StillImage" />
        <dc:title />
      </cc:Work>
    </rdf:RDF>
  </metadata>
  <g
     inkscape:label="Livello 1"
     inkscape:groupmode="layer"
     id="layer1"
     transform="translate(0,-229.26666)">
    <path
       style="display:inline;opacity:0.2;fill:#000000;fill-opacity:1;stroke:none;stroke-width:2;stroke-linecap:round;stroke-linejoin:round;stroke-miterlimit:4;stroke-dasharray:none;stroke-dashoffset:0;stroke-opacity:1;filter:url(#filter913);enable-background:new"
       d="m 188.96876,45.999995 c 72.64865,0 83.03125,10.356615 83.03125,82.937505 v 58.125 c 0,72.58059 -10.3826,82.9375 -83.03125,82.9375 h -73.9375 C 42.382606,270 32.000006,259.64309 32.000006,187.0625 v -58.125 c 0,-72.58089 10.3826,-82.937505 83.031254,-82.937505 z"
       id="path899"
       inkscape:connector-curvature="0"
       sodipodi:nodetypes="sssssssss"
       transform="matrix(0.26970778,0,0,0.26970778,-7.1289177,220.56049)" />
    <path
       sodipodi:nodetypes="sssssssss"
       inkscape:connector-curvature="0"
       id="path4567-1"
       d="m 188.96876,43.999995 c 72.64865,0 83.03125,10.356615 83.03125,82.937505 v 58.125 c 0,72.58059 -10.3826,82.9375 -83.03125,82.9375 h -73.9375 C 42.382606,268 32.000006,257.64309 32.000006,185.0625 v -58.125 c 0,-72.58089 10.3826,-82.937505 83.031254,-82.937505 z"
       style="display:inline;opacity:0.1;fill:#000000;fill-opacity:1;stroke:none;stroke-width:2;stroke-linecap:round;stroke-linejoin:round;stroke-miterlimit:4;stroke-dasharray:none;stroke-dashoffset:0;stroke-opacity:1;filter:url(#filter4569-2);enable-background:new"
       transform="matrix(0.26970778,0,0,0.26970778,-7.1289177,220.56049)" />
    <path
       style="display:inline;opacity:1;fill:#4d4d4d;fill-opacity:1;stroke:none;stroke-width:0.5394156;stroke-linecap:round;stroke-linejoin:round;stroke-miterlimit:4;stroke-dasharray:none;stroke-dashoffset:0;stroke-opacity:1;enable-background:new"
       d="m 23.895904,232.42763 c -9.797337,0 -15.3941292,0.69699 -18.5445162,3.84334 -3.150381,3.14634 -3.849657,8.73736 -3.849657,18.52555 v 15.67677 c 0,9.78815 0.699276,15.3792 3.849657,18.52555 3.150387,3.14636 8.7471782,3.84333 18.5445162,3.84333 h 19.94152 c 9.797339,0 15.394134,-0.69697 18.544517,-3.84333 3.150384,-3.14635 3.849659,-8.7374 3.849659,-18.52555 v -15.67677 c 0,-9.78819 -0.699275,-15.37921 -3.849659,-18.52555 -3.150383,-3.14635 -8.74718,-3.84334 -18.544517,-3.84334 z"
       id="rect877-2"
       inkscape:connector-curvature="0" />
    <path
       style="display:inline;opacity:0.2;fill:#131313;fill-opacity:1;stroke:none;stroke-width:0.5394156;stroke-linecap:round;stroke-linejoin:round;stroke-miterlimit:4;stroke-dasharray:none;stroke-dashoffset:0;stroke-opacity:1;enable-background:new"
       d="m 1.5017313,269.93387 v 0.53942 c 0,9.78815 0.699276,15.3792 3.849657,18.52555 3.150387,3.14636 8.7471787,3.84333 18.5445167,3.84333 h 19.94152 c 9.797339,0 15.394134,-0.69697 18.544517,-3.84333 3.150384,-3.14635 3.849659,-8.7374 3.849659,-18.52555 v -0.53942 c 0,9.78815 -0.699275,15.3792 -3.849659,18.52555 -3.150383,3.14636 -8.747178,3.84334 -18.544517,3.84334 h -19.94152 c -9.797338,0 -15.3941297,-0.69698 -18.5445167,-3.84334 -3.150381,-3.14635 -3.849657,-8.7374 -3.849657,-18.52555 z"
       id="path917"
       inkscape:connector-curvature="0" />
    <path
       style="clip-rule:evenodd;display:inline;opacity:0.1;fill:#ffffff;fill-opacity:1;fill-rule:evenodd;stroke:none;stroke-width:0.53941554;stroke-linecap:round;stroke-linejoin:round;stroke-miterlimit:4;stroke-dasharray:none;stroke-dashoffset:0;stroke-opacity:1;image-rendering:optimizeQuality;shape-rendering:geometricPrecision;text-rendering:geometricPrecision;enable-background:new"
       d="m 23.813194,292.71765 c -19.593907,0 -22.3941753,-2.79326 -22.3941753,-22.36889 v -7.83838 H 66.148887 v 7.83838 c 0,19.57563 -2.800268,22.36889 -22.394172,22.36889 z"
       id="path1107"
       inkscape:connector-curvature="0" />
    <path
       style="clip-rule:evenodd;display:inline;opacity:0.1;fill:#ffffff;fill-opacity:1;fill-rule:evenodd;stroke:none;stroke-width:0.53941554;stroke-linecap:round;stroke-linejoin:round;stroke-miterlimit:4;stroke-dasharray:none;stroke-dashoffset:0;stroke-opacity:1;image-rendering:optimizeQuality;shape-rendering:geometricPrecision;text-rendering:geometricPrecision;enable-background:new"
       d="m 33.783956,232.3031 v 60.41455 h 9.970757 c 19.593906,0 22.394174,-2.79334 22.394174,-22.36889 v -15.67677 c 0,-19.57563 -2.800268,-22.36889 -22.394174,-22.36889 z"
       id="path1099"
       inkscape:connector-curvature="0" />
    <path
       sodipodi:nodetypes="sssssssss"
       inkscape:connector-curvature="0"
       id="path1068-7"
       d="M 361.9375,-212 C 507.2348,-212 528,-191.28677 528,-46.125 V 70.125 C 528,215.28618 507.2348,236 361.9375,236 H 214.0625 C 68.7652,236 48,215.28618 48,70.125 V -46.125 C 48,-191.28677 68.7652,-212 214.0625,-212 Z"
       style="display:inline;opacity:0.4;fill:none;fill-opacity:1;stroke:url(#linearGradient906);stroke-width:8;stroke-linecap:round;stroke-linejoin:round;stroke-miterlimit:4;stroke-dasharray:none;stroke-dashoffset:0;stroke-opacity:1;enable-background:new"
       clip-path="url(#clipPath1082-3-5)"
       transform="matrix(0.13485389,0,0,0.13485389,-4.9712557,261.01666)" />
    <g
       id="g1684"
       transform="translate(0.56179351,-0.10035668)" />
    <g
       id="g870"
       transform="translate(1.6507515,-1.0818644)">
      <path
         transform="matrix(0.92736204,0,0,0.92736204,0.80259481,20.157361)"
         style="opacity:1;fill:none;fill-opacity:1;stroke:url(#linearGradient2115);stroke-width:1.32291663;stroke-miterlimit:4;stroke-dasharray:none;stroke-opacity:1;filter:url(#filter2868)"
         d="m 19.364125,275.58626 c -2.607664,-0.65818 -4.865401,-2.50031 -5.956484,-4.86 -0.527886,-1.14166 -0.554194,-1.60904 -0.629277,-11.17969 l -0.07836,-9.98822 h 2.450641 2.450642 l 0.07644,9.34381 c 0.06888,8.41953 0.122302,9.42782 0.540038,10.19294 1.028816,1.88439 3.766535,2.49405 5.32205,1.18517 1.39502,-1.17384 1.422263,-1.31709 1.563299,-8.22054 0.12028,-5.88751 0.179511,-6.54809 0.685871,-7.64922 0.830284,-1.80551 2.428349,-3.38631 4.273901,-4.22772 2.892556,-1.31876 6.769604,-0.89448 9.272726,1.01475 0.874482,0.667 0.901593,0.67083 1.337608,0.18904 0.244771,-0.27046 1.045723,-0.76217 1.779898,-1.09267 1.09408,-0.49251 1.77657,-0.60143 3.78359,-0.60379 2.108911,-0.002 2.64546,0.0904 3.866408,0.6697 1.834023,0.87012 3.346332,2.17652 4.187976,3.97109 0,0 0.635186,0.95547 0.667655,2.0214 0.137487,6.65647 0.07458,19.49761 0.07458,19.49761 h -2.593989 -2.59399 l -9.5e-4,-9.4727 c -9.5e-4,-8.99763 -0.02665,-9.51483 -0.513165,-10.31278 -0.634972,-1.04144 -1.943415,-1.8643 -2.965638,-1.86504 -1.116221,-7.3e-4 -2.651667,0.89699 -3.32655,1.90723 -0.578711,0.86628 -0.413815,9.27767 -0.413815,9.27767 l -0.05791,10.46943 -2.679458,-0.004 H 37.47293 v -9.43374 c 0,-8.12944 -0.05725,-9.55439 -0.414083,-10.30636 -1.193182,-2.51444 -4.916802,-2.54974 -6.416572,-0.0608 -0.469194,0.77865 -0.527117,1.44618 -0.644561,7.42842 -0.127978,6.51877 -0.134738,6.58369 -0.821167,7.8849 -1.335904,2.53235 -4.011922,4.17814 -7.094385,4.36313 -0.962669,0.0578 -2.185752,-0.005 -2.717961,-0.13919 z"
         id="path2107"
         inkscape:connector-curvature="0"
         sodipodi:nodetypes="csscccsccscccccccccccccscsccccsssscccc" />
      <path
         transform="matrix(0.92736204,0,0,0.92736204,0.80259481,20.157361)"
         style="opacity:0.3;fill:#030303;fill-opacity:1;stroke:none;stroke-width:0.25776052;stroke-opacity:0.97647059;filter:url(#filter2824)"
         d="m 19.364125,275.58626 c -2.607664,-0.65818 -4.865401,-2.50031 -5.956484,-4.86 -0.527886,-1.14166 -0.554194,-1.60904 -0.629277,-11.17969 l -0.07836,-9.98822 h 2.450641 2.450642 l 0.07644,9.34381 c 0.06888,8.41953 0.122302,9.42782 0.540038,10.19294 1.028816,1.88439 3.766535,2.49405 5.32205,1.18517 1.39502,-1.17384 1.422263,-1.31709 1.563299,-8.22054 0.12028,-5.88751 0.179511,-6.54809 0.685871,-7.64922 0.830284,-1.80551 2.428349,-3.38631 4.273901,-4.22772 2.892556,-1.31876 6.769604,-0.89448 9.272726,1.01475 0.874482,0.667 0.901593,0.67083 1.337608,0.18904 0.244771,-0.27046 1.045723,-0.76217 1.779898,-1.09267 1.09408,-0.49251 1.77657,-0.60143 3.78359,-0.60379 2.108911,-0.002 2.64546,0.0904 3.866408,0.6697 1.834023,0.87012 3.346332,2.17652 4.187976,3.97109 0,0 0.635186,0.95547 0.667655,2.0214 0.137487,6.65647 0.07458,19.49761 0.07458,19.49761 h -2.593989 -2.59399 l -9.5e-4,-9.4727 c -9.5e-4,-8.99763 -0.02665,-9.51483 -0.513165,-10.31278 -0.634972,-1.04144 -1.943415,-1.8643 -2.965638,-1.86504 -1.116221,-7.3e-4 -2.651667,0.89699 -3.32655,1.90723 -0.578711,0.86628 -0.413815,9.27767 -0.413815,9.27767 l -0.05791,10.46943 -2.679458,-0.004 H 37.47293 v -9.43374 c 0,-8.12944 -0.05725,-9.55439 -0.414083,-10.30636 -1.193182,-2.51444 -4.916802,-2.54974 -6.416572,-0.0608 -0.469194,0.77865 -0.527117,1.44618 -0.644561,7.42842 -0.127978,6.51877 -0.134738,6.58369 -0.821167,7.8849 -1.335904,2.53235 -4.011922,4.17814 -7.094385,4.36313 -0.962669,0.0578 -2.185752,-0.005 -2.717961,-0.13919 z"
         id="path2798"
         inkscape:connector-curvature="0"
         sodipodi:nodetypes="csscccsccscccccccccccccscsccccsssscccc" />
      <path
         sodipodi:nodetypes="csscccsccscccccccccccccscsccccsssscccc"
         inkscape:connector-curvature="0"
         id="path2090"
         d="m 18.760149,275.7256 c -2.418248,-0.61037 -4.511988,-2.3187 -5.523817,-4.50698 -0.489541,-1.05874 -0.513938,-1.49217 -0.583568,-10.36762 l -0.07267,-9.2627 h 2.272632 2.272632 l 0.07089,8.6651 c 0.06388,7.80795 0.113418,8.743 0.50081,9.45254 0.954085,1.74751 3.492942,2.31289 4.935468,1.09908 1.293688,-1.08857 1.318952,-1.22142 1.449744,-7.62341 0.111543,-5.45986 0.166471,-6.07245 0.63605,-7.0936 0.769974,-1.67436 2.251959,-3.14034 3.963454,-3.92063 2.682447,-1.22297 6.277874,-0.8295 8.599174,0.94104 0.810961,0.61855 0.836103,0.62211 1.240447,0.17531 0.226991,-0.25081 0.969764,-0.70681 1.65061,-1.0133 1.014608,-0.45673 1.647523,-0.55774 3.508757,-0.55993 1.955724,-0.002 2.4533,0.0838 3.58556,0.62105 1.700804,0.80692 3.103262,2.01843 3.88377,3.68264 0,0 0.664818,1.71953 0.694928,2.70804 0.127501,6.17296 -0.0066,17.24787 -0.0066,17.24787 h -2.405567 -2.405568 l -8.81e-4,-8.78462 c -8.81e-4,-8.34406 -0.02471,-8.82369 -0.475889,-9.56368 -0.588849,-0.96579 -1.80225,-1.72888 -2.75022,-1.72957 -1.035141,-6.7e-4 -2.459056,0.83184 -3.084917,1.7687 -0.536674,0.80335 -0.383756,8.60376 -0.383756,8.60376 l -0.0537,9.70895 -2.484828,-0.004 h -2.23954 v -8.74849 c 0,-7.53894 -0.05309,-8.86038 -0.384004,-9.55773 -1.106512,-2.3318 -4.559656,-2.36453 -5.950486,-0.0564 -0.435112,0.72209 -0.488828,1.34113 -0.597741,6.88883 -0.118682,6.04526 -0.124951,6.10546 -0.761519,7.31216 -1.238867,2.3484 -3.720504,3.87465 -6.579063,4.0462 -0.892743,0.0536 -2.026984,-0.005 -2.520534,-0.12908 z"
         style="opacity:0.9;fill:#ffffff;fill-opacity:1;stroke-width:0.23903732" />
    </g>
  </g>
</svg>
