<?xml version="1.0" encoding="UTF-8" standalone="no"?>
<!-- Created with Inkscape (http://www.inkscape.org/) -->

<svg
   xmlns:dc="http://purl.org/dc/elements/1.1/"
   xmlns:cc="http://creativecommons.org/ns#"
   xmlns:rdf="http://www.w3.org/1999/02/22-rdf-syntax-ns#"
   xmlns:svg="http://www.w3.org/2000/svg"
   xmlns="http://www.w3.org/2000/svg"
   xmlns:xlink="http://www.w3.org/1999/xlink"
   xmlns:sodipodi="http://sodipodi.sourceforge.net/DTD/sodipodi-0.dtd"
   xmlns:inkscape="http://www.inkscape.org/namespaces/inkscape"
   id="svg3336"
   height="256"
   width="256"
   version="1.1"
   sodipodi:docname="multimedia-volume-control.svg"
   inkscape:version="0.92.3 (2405546, 2018-03-11)">
  <sodipodi:namedview
     pagecolor="#ffffff"
     bordercolor="#666666"
     borderopacity="1"
     objecttolerance="10"
     gridtolerance="10"
     guidetolerance="10"
     inkscape:pageopacity="0"
     inkscape:pageshadow="2"
     inkscape:window-width="1920"
     inkscape:window-height="1013"
     id="namedview2073"
     showgrid="true"
     inkscape:zoom="3.2421875"
     inkscape:cx="72.636145"
     inkscape:cy="128"
     inkscape:window-x="0"
     inkscape:window-y="34"
     inkscape:window-maximized="1"
     inkscape:current-layer="use7953">
    <inkscape:grid
       type="xygrid"
       id="grid8119" />
  </sodipodi:namedview>
  <defs
     id="defs3338">
    <linearGradient
       id="linearGradient2390">
      <stop
         offset="0"
         style="stop-color:#e70b22;stop-opacity:1"
         id="stop2386" />
      <stop
         offset="1"
         style="stop-color:#f85858;stop-opacity:1"
         id="stop2388" />
    </linearGradient>
    <linearGradient
       id="linearGradient4382">
      <stop
         id="stop4384"
         style="stop-color:#fff"
         offset="0" />
      <stop
         id="stop4386"
         style="stop-color:#fff;stop-opacity:0"
         offset="1" />
    </linearGradient>
    <linearGradient
       id="linearGradient4293">
      <stop
         id="stop4295"
         offset="0" />
      <stop
         id="stop4297"
         style="stop-opacity:0"
         offset="1" />
    </linearGradient>
    <linearGradient
       id="linearGradient4259">
      <stop
         id="stop4261"
         style="stop-color:#d9d6d0"
         offset="0" />
      <stop
         id="stop4267"
         style="stop-color:#bdb8ad"
         offset=".73611" />
      <stop
         id="stop4263"
         style="stop-color:#938a79"
         offset="1" />
    </linearGradient>
    <linearGradient
       id="linearGradient4043">
      <stop
         id="stop4045"
         style="stop-color:#a4967d"
         offset="0" />
      <stop
         id="stop4047"
         style="stop-color:#cdc6ba"
         offset="1" />
    </linearGradient>
    <linearGradient
       id="linearGradient3838">
      <stop
         id="stop3840"
         style="stop-color:#e7490b"
         offset="0" />
      <stop
         id="stop3842"
         style="stop-color:#f89c58"
         offset="1" />
    </linearGradient>
    <linearGradient
       id="linearGradient3822">
      <stop
         id="stop3824"
         style="stop-color:#d7d3cd"
         offset="0" />
      <stop
         id="stop3826"
         style="stop-color:#f4f3f1"
         offset="1" />
    </linearGradient>
    <linearGradient
       id="linearGradient3797">
      <stop
         id="stop3799"
         style="stop-color:#e5e2dd"
         offset="0" />
      <stop
         id="stop3801"
         style="stop-color:#f2f1ee"
         offset="1" />
    </linearGradient>
    <linearGradient
       id="linearGradient3803"
       xlink:href="#linearGradient3797"
       gradientUnits="userSpaceOnUse"
       x2="263.31"
       y1="476"
       x1="263.31"
       gradientTransform="matrix(0.5,0,0,0.5,990.32203,-96.813558)" />
    <linearGradient
       id="linearGradient3838-0">
      <stop
         id="stop3840-4"
         style="stop-color:#d6d4cf"
         offset="0" />
      <stop
         id="stop3842-9"
         style="stop-color:#fbfaf9"
         offset="1" />
    </linearGradient>
    <clipPath
       id="clipPath4022"
       clipPathUnits="userSpaceOnUse">
      <path
         id="path4024"
         style="color:#000000;fill:#ff00ff"
         d="m 96,92 c -16,0 -24,0 -24,8 0,8 8,8 24,8 h 320 c 16,0 24,0 24,-8 0,-8 -8,-8 -24,-8 z"
         inkscape:connector-curvature="0" />
    </clipPath>
    <filter
       id="filter4030">
      <feGaussianBlur
         id="feGaussianBlur4032"
         stdDeviation="1.04" />
    </filter>
    <linearGradient
       id="linearGradient4077"
       y2="122.95"
       xlink:href="#linearGradient3822"
       gradientUnits="userSpaceOnUse"
       x2="176.64999"
       gradientTransform="matrix(0.5,0,0,0.333335,350.94915,86.310567)"
       y1="75.432999"
       x1="176.64999" />
    <linearGradient
       id="linearGradient4079"
       y2="111.97"
       xlink:href="#linearGradient3838"
       gradientUnits="userSpaceOnUse"
       x2="176.52"
       gradientTransform="matrix(0.499915,0,0,0.332035,350.97088,86.440567)"
       y1="87.921997"
       x1="176.52" />
    <linearGradient
       id="linearGradient4081"
       y2="111.97"
       xlink:href="#linearGradient3838-0"
       gradientUnits="userSpaceOnUse"
       x2="176.52"
       gradientTransform="matrix(0.499915,0,0,0.332035,350.52817,74.487521)"
       y1="87.921997"
       x1="176.52" />
    <linearGradient
       id="linearGradient4083"
       y2="111.97"
       xlink:href="#linearGradient4043"
       gradientUnits="userSpaceOnUse"
       x2="176.52"
       gradientTransform="matrix(0.499915,0,0,0.332035,356.97088,82.440567)"
       y1="87.921997"
       x1="176.52" />
    <linearGradient
       id="linearGradient4182"
       y2="100"
       xlink:href="#linearGradient3797"
       gradientUnits="userSpaceOnUse"
       x2="192"
       y1="148"
       x1="192" />
    <clipPath
       id="clipPath4200"
       clipPathUnits="userSpaceOnUse">
      <rect
         id="rect4202"
         style="color:#000000;fill:#ff00ff"
         height="16"
         width="104"
         y="116"
         x="128" />
    </clipPath>
    <linearGradient
       id="linearGradient4265"
       y2="124"
       xlink:href="#linearGradient4259"
       gradientUnits="userSpaceOnUse"
       x2="176"
       y1="124"
       x1="145.94" />
    <clipPath
       id="clipPath4277"
       clipPathUnits="userSpaceOnUse">
      <path
         id="path4279"
         style="color:#000000;opacity:0.5;fill:#ff00ff"
         d="m 167.47,132 c -7.2639,0.1838 -12.351,0.78573 -15.469,2.6562 -2.1106,1.2663 -3.5148,3.0443 -4.5312,6.0938 -1.0165,3.0495 -1.5312,7.3572 -1.5312,13.25 0,5.8928 0.51476,10.201 1.5312,13.25 1.0165,3.0495 2.4207,4.8274 4.5312,6.0938 3.1659,1.8995 8.3331,2.4852 15.781,2.6562 h 2.22 c 3.324,0 6,-2.676 6,-6 v -32 c 0,-3.324 -2.676,-6 -6,-6 h -2.5312 z"
         inkscape:connector-curvature="0" />
    </clipPath>
    <filter
       id="filter4289">
      <feGaussianBlur
         id="feGaussianBlur4291"
         stdDeviation="1.26" />
    </filter>
    <linearGradient
       id="linearGradient4299"
       y2="162"
       xlink:href="#linearGradient4293"
       gradientUnits="userSpaceOnUse"
       x2="160"
       y1="162"
       x1="176" />
    <linearGradient
       id="linearGradient4314"
       y2="100"
       xlink:href="#linearGradient3838-0"
       gradientUnits="userSpaceOnUse"
       x2="192"
       y1="148"
       x1="192" />
    <linearGradient
       id="linearGradient4388"
       y2="144.81"
       xlink:href="#linearGradient4382"
       gradientUnits="userSpaceOnUse"
       x2="176.67999"
       y1="102.4"
       x1="176.67999" />
    <linearGradient
       id="linearGradient4392"
       y2="144.81"
       xlink:href="#linearGradient4382"
       gradientUnits="userSpaceOnUse"
       x2="176.67999"
       gradientTransform="matrix(-1,0,0,1,360,0)"
       y1="102.4"
       x1="176.67999" />
    <radialGradient
       id="radialGradient4519"
       gradientUnits="userSpaceOnUse"
       cy="122.09"
       cx="177.85001"
       gradientTransform="matrix(1,0,0,7.4015,0,-781.59)"
       r="2.6903999">
      <stop
         id="stop4507"
         style="stop-color:#fff"
         offset="0" />
      <stop
         id="stop4509"
         style="stop-color:#fff;stop-opacity:0"
         offset="1" />
    </radialGradient>
    <filter
       id="filter4525"
       height="1.24"
       width="1.16"
       y="-0.12"
       x="-0.079999998">
      <feGaussianBlur
         id="feGaussianBlur4527"
         stdDeviation="2.4" />
    </filter>
    <filter
       id="filter4533"
       height="1.48"
       width="1.3200001"
       y="-0.23999999"
       x="-0.16">
      <feGaussianBlur
         id="feGaussianBlur4535"
         stdDeviation="4.8" />
    </filter>
    <filter
       id="filter4559">
      <feGaussianBlur
         id="feGaussianBlur4561"
         stdDeviation="0.9" />
    </filter>
    <linearGradient
       id="linearGradient4989"
       y2="99.822998"
       spreadMethod="reflect"
       gradientUnits="userSpaceOnUse"
       x2="192"
       y1="124.34"
       x1="192">
      <stop
         id="stop4985"
         style="stop-color:#f18137"
         offset="0" />
      <stop
         id="stop4991"
         style="stop-color:#f18137;stop-opacity:0.15"
         offset=".5" />
      <stop
         id="stop4987"
         style="stop-color:#f1a737;stop-opacity:0"
         offset="1" />
    </linearGradient>
    <linearGradient
       id="linearGradient5037"
       y2="111.97"
       gradientUnits="userSpaceOnUse"
       x2="176.52"
       gradientTransform="matrix(0.99983,0,0,0.66407,0.043471,33.593)"
       y1="87.921997"
       x1="176.52">
      <stop
         id="stop5269"
         style="stop-color:#a4967d"
         offset="0" />
      <stop
         id="stop5271"
         style="stop-color:#cdc6ba"
         offset="1" />
    </linearGradient>
    <filter
       id="filter4439-1"
       width="1.36"
       y="-0.18000001"
       x="-0.18000001"
       height="1.36"
       style="color-interpolation-filters:sRGB">
      <feGaussianBlur
         id="feGaussianBlur4441-5"
         stdDeviation="1.2" />
    </filter>
    <linearGradient
       id="linearGradient5045-4"
       y2="100"
       xlink:href="#linearGradient4449-7"
       gradientUnits="userSpaceOnUse"
       x2="472"
       gradientTransform="rotate(90,464,100)"
       y1="100"
       x1="456" />
    <linearGradient
       id="linearGradient4449-7">
      <stop
         id="stop4451-1"
         style="stop-color:#aba699"
         offset="0" />
      <stop
         id="stop4453-3"
         style="stop-color:#bcb8ad"
         offset="1" />
    </linearGradient>
    <filter
       id="filter5228"
       height="2.7934999"
       width="1.1014"
       y="-0.89673001"
       x="-0.050714999">
      <feGaussianBlur
         id="feGaussianBlur5230"
         stdDeviation="2.1548236" />
    </filter>
    <filter
       id="filter5228-1"
       width="1.1014"
       y="-0.89673001"
       x="-0.050714999"
       height="2.7934999"
       style="color-interpolation-filters:sRGB">
      <feGaussianBlur
         id="feGaussianBlur5230-7"
         stdDeviation="2.1548236" />
    </filter>
    <filter
       id="filter5228-9"
       width="1.1014"
       y="-0.89673001"
       x="-0.050714999"
       height="2.7934999"
       style="color-interpolation-filters:sRGB">
      <feGaussianBlur
         id="feGaussianBlur5230-6"
         stdDeviation="2.1548236" />
    </filter>
    <linearGradient
       inkscape:collect="always"
       xlink:href="#linearGradient1013"
       id="linearGradient1108"
       x1="296"
       y1="-212"
       x2="296"
       y2="236"
       gradientUnits="userSpaceOnUse" />
    <linearGradient
       id="linearGradient1013"
       inkscape:collect="always">
      <stop
         id="stop1005"
         offset="0"
         style="stop-color:#ffffff;stop-opacity:1;" />
      <stop
         style="stop-color:#ffffff;stop-opacity:0.09803922"
         offset="0.125"
         id="stop1007" />
      <stop
         style="stop-color:#000000;stop-opacity:0.09803922"
         offset="0.92500001"
         id="stop1009" />
      <stop
         id="stop1011"
         offset="1"
         style="stop-color:#000000;stop-opacity:0.49803922" />
    </linearGradient>
    <clipPath
       clipPathUnits="userSpaceOnUse"
       id="clipPath1082">
      <path
         sodipodi:nodetypes="sssssssss"
         inkscape:connector-curvature="0"
         id="path1084"
         d="M 361.9375,-212 C 507.2348,-212 528,-191.28677 528,-46.125 V 70.125 C 528,215.28618 507.2348,236 361.9375,236 H 214.0625 C 68.7652,236 48,215.28618 48,70.125 V -46.125 C 48,-191.28677 68.7652,-212 214.0625,-212 Z"
         style="display:inline;opacity:1;fill:#8c59d9;fill-opacity:1;stroke:none;stroke-width:2;stroke-linecap:round;stroke-linejoin:round;stroke-miterlimit:4;stroke-dasharray:none;stroke-dashoffset:0;stroke-opacity:1;enable-background:new" />
    </clipPath>
    <filter
       inkscape:collect="always"
       style="color-interpolation-filters:sRGB"
       id="filter1015"
       x="-0.0232"
       width="1.0464"
       y="-0.024857143"
       height="1.0497143">
      <feGaussianBlur
         inkscape:collect="always"
         stdDeviation="2.32"
         id="feGaussianBlur1017" />
    </filter>
    <filter
       id="filter4439-1-6"
       width="1.36"
       y="-0.18000001"
       x="-0.18000001"
       height="1.36"
       style="color-interpolation-filters:sRGB">
      <feGaussianBlur
         id="feGaussianBlur4441-5-4"
         stdDeviation="1.2" />
    </filter>
    <filter
       id="filter7692"
       width="1.36"
       y="-0.18000001"
       x="-0.18000001"
       height="1.36"
       style="color-interpolation-filters:sRGB">
      <feGaussianBlur
         id="feGaussianBlur7690"
         stdDeviation="1.2" />
    </filter>
    <filter
       id="filter5228-9-4"
       width="1.1014"
       y="-0.89673001"
       x="-0.050714999"
       height="2.7934999"
       style="color-interpolation-filters:sRGB">
      <feGaussianBlur
         id="feGaussianBlur5230-6-6"
         stdDeviation="2.1548236" />
    </filter>
    <clipPath
       id="clipPath4022-2"
       clipPathUnits="userSpaceOnUse">
      <path
         id="path4024-6"
         style="color:#000000;fill:#ff00ff"
         d="m 96,92 c -16,0 -24,0 -24,8 0,8 8,8 24,8 h 320 c 16,0 24,0 24,-8 0,-8 -8,-8 -24,-8 z"
         inkscape:connector-curvature="0" />
    </clipPath>
    <filter
       id="filter4030-7">
      <feGaussianBlur
         id="feGaussianBlur4032-5"
         stdDeviation="1.04" />
    </filter>
    <linearGradient
       id="linearGradient4079-6"
       y2="111.97"
       xlink:href="#linearGradient3838"
       gradientUnits="userSpaceOnUse"
       x2="176.52"
       gradientTransform="matrix(0.499915,0,0,0.332035,-0.47909973,404.46748)"
       y1="87.921997"
       x1="176.52" />
    <linearGradient
       id="linearGradient4077-0"
       y2="122.95"
       xlink:href="#linearGradient3822"
       gradientUnits="userSpaceOnUse"
       x2="176.64999"
       gradientTransform="matrix(0.5,0,0,0.333335,-0.50082973,404.33748)"
       y1="75.432999"
       x1="176.64999" />
    <clipPath
       id="clipPath4022-0"
       clipPathUnits="userSpaceOnUse">
      <path
         id="path4024-4"
         style="color:#000000;fill:#ff00ff"
         d="m 96,92 c -16,0 -24,0 -24,8 0,8 8,8 24,8 h 320 c 16,0 24,0 24,-8 0,-8 -8,-8 -24,-8 z"
         inkscape:connector-curvature="0" />
    </clipPath>
    <filter
       id="filter4030-8">
      <feGaussianBlur
         id="feGaussianBlur4032-0"
         stdDeviation="1.04" />
    </filter>
    <linearGradient
       id="linearGradient4083-2"
       y2="111.97"
       xlink:href="#linearGradient4043"
       gradientUnits="userSpaceOnUse"
       x2="176.52"
       gradientTransform="matrix(0.499915,0,0,0.332035,-0.4791,404.46749)"
       y1="87.921997"
       x1="176.52" />
    <linearGradient
       inkscape:collect="always"
       xlink:href="#linearGradient3822"
       id="linearGradient7955"
       gradientUnits="userSpaceOnUse"
       gradientTransform="matrix(0.48450005,0,0,0.38317267,-2.2639812,255.71796)"
       x1="176.64999"
       y1="75.432999"
       x2="176.64999"
       y2="122.95" />
    <linearGradient
       inkscape:collect="always"
       xlink:href="#linearGradient4043"
       id="linearGradient7957"
       gradientUnits="userSpaceOnUse"
       gradientTransform="matrix(0.48441767,0,0,0.38167831,-2.2429254,255.86741)"
       x1="176.52"
       y1="87.921997"
       x2="176.52"
       y2="111.97" />
    <linearGradient
       inkscape:collect="always"
       xlink:href="#linearGradient3797"
       id="linearGradient8099"
       gradientUnits="userSpaceOnUse"
       x1="192"
       y1="148"
       x2="192"
       y2="100" />
    <linearGradient
       inkscape:collect="always"
       xlink:href="#linearGradient4259"
       id="linearGradient8101"
       gradientUnits="userSpaceOnUse"
       x1="145.94"
       y1="124"
       x2="176"
       y2="124" />
    <linearGradient
       inkscape:collect="always"
       xlink:href="#linearGradient4293"
       id="linearGradient8103"
       gradientUnits="userSpaceOnUse"
       x1="176"
       y1="162"
       x2="160"
       y2="162" />
    <linearGradient
       inkscape:collect="always"
       xlink:href="#linearGradient3838-0"
       id="linearGradient8105"
       gradientUnits="userSpaceOnUse"
       x1="192"
       y1="148"
       x2="192"
       y2="100" />
    <linearGradient
       inkscape:collect="always"
       xlink:href="#linearGradient4259"
       id="linearGradient8107"
       gradientUnits="userSpaceOnUse"
       x1="145.94"
       y1="124"
       x2="176"
       y2="124" />
    <linearGradient
       inkscape:collect="always"
       xlink:href="#linearGradient4293"
       id="linearGradient8109"
       gradientUnits="userSpaceOnUse"
       x1="176"
       y1="162"
       x2="160"
       y2="162" />
    <linearGradient
       inkscape:collect="always"
       xlink:href="#linearGradient4382"
       id="linearGradient8111"
       gradientUnits="userSpaceOnUse"
       x1="176.67999"
       y1="102.4"
       x2="176.67999"
       y2="144.81" />
    <linearGradient
       inkscape:collect="always"
       xlink:href="#linearGradient4382"
       id="linearGradient8113"
       gradientUnits="userSpaceOnUse"
       gradientTransform="matrix(-1,0,0,1,360,0)"
       x1="176.67999"
       y1="102.4"
       x2="176.67999"
       y2="144.81" />
    <radialGradient
       inkscape:collect="always"
       xlink:href="#radialGradient4519"
       id="radialGradient8115"
       gradientUnits="userSpaceOnUse"
       gradientTransform="matrix(1,0,0,7.4015,0,-781.59)"
       cx="177.85001"
       cy="122.09"
       r="2.6903999" />
  </defs>
  <metadata
     id="metadata3341">
    <rdf:RDF>
      <cc:Work
         rdf:about="">
        <dc:format>image/svg+xml</dc:format>
        <dc:type
           rdf:resource="http://purl.org/dc/dcmitype/StillImage" />
        <dc:title />
      </cc:Work>
    </rdf:RDF>
  </metadata>
  <g
     id="layer2"
     transform="translate(0,-220)">
    <g
       id="g4049"
       transform="matrix(0.5,0,0,0.5,350.94914,207.64406)" />
    <g
       id="g4115"
       transform="translate(0,252)">
      <path
         sodipodi:nodetypes="sssssssss"
         inkscape:connector-curvature="0"
         id="path4558"
         d="m 165.68477,-20.053041 c 74.0557,0 84.63939,10.5572005 84.63939,84.54383 v 59.250741 c 0,73.98633 -10.58369,84.54383 -84.63939,84.54383 H 90.315249 c -74.05571,0 -84.6394003,-10.5575 -84.6394003,-84.54383 V 64.490789 c 0,-73.9866295 10.5836903,-84.54383 84.6394003,-84.54383 z"
         style="display:inline;opacity:0.2;fill:none;fill-opacity:1;stroke:#000000;stroke-width:4.07747221;stroke-linecap:round;stroke-linejoin:round;stroke-miterlimit:4;stroke-dasharray:none;stroke-dashoffset:0;stroke-opacity:1;enable-background:new" />
      <path
         sodipodi:nodetypes="sssssssss"
         inkscape:connector-curvature="0"
         id="path4567"
         d="m 188.96876,45.999995 c 72.64865,0 83.03125,10.356615 83.03125,82.937505 v 58.125 c 0,72.58059 -10.3826,82.9375 -83.03125,82.9375 h -73.9375 C 42.382606,270 32.000006,259.64309 32.000006,187.0625 v -58.125 c 0,-72.58089 10.3826,-82.937505 83.031254,-82.937505 z"
         style="display:inline;opacity:0.2;fill:#000000;fill-opacity:1;stroke:none;stroke-width:2;stroke-linecap:round;stroke-linejoin:round;stroke-miterlimit:4;stroke-dasharray:none;stroke-dashoffset:0;stroke-opacity:1;filter:url(#filter1015);enable-background:new"
         transform="matrix(1.019368,0,0,1.019368,-26.943941,-64.905211)" />
      <path
         style="display:inline;opacity:1;fill:#f1f0e9;fill-opacity:1;stroke:none;stroke-width:2.0387361;stroke-linecap:round;stroke-linejoin:round;stroke-miterlimit:4;stroke-dasharray:none;stroke-dashoffset:0;stroke-opacity:1;enable-background:new"
         d="m 165.68476,-20.053041 c 74.05571,0 84.6394,10.5572005 84.6394,84.54383 v 59.250741 c 0,73.98633 -10.58369,84.54383 -84.6394,84.54383 H 90.315239 c -74.05571,0 -84.6394003,-10.5575 -84.6394003,-84.54383 V 64.490789 c 0,-73.9866295 10.5836903,-84.54383 84.6394003,-84.54383 z"
         id="rect877"
         inkscape:connector-curvature="0"
         sodipodi:nodetypes="sssssssss" />
      <path
         sodipodi:nodetypes="sssssssss"
         inkscape:connector-curvature="0"
         id="path1068"
         d="M 361.9375,-212 C 507.2348,-212 528,-191.28677 528,-46.125 V 70.125 C 528,215.28618 507.2348,236 361.9375,236 H 214.0625 C 68.7652,236 48,215.28618 48,70.125 V -46.125 C 48,-191.28677 68.7652,-212 214.0625,-212 Z"
         style="display:inline;opacity:0.5;fill:none;fill-opacity:1;stroke:url(#linearGradient1108);stroke-width:8;stroke-linecap:round;stroke-linejoin:round;stroke-miterlimit:4;stroke-dasharray:none;stroke-dashoffset:0;stroke-opacity:1;enable-background:new"
         clip-path="url(#clipPath1082)"
         transform="matrix(0.50968399,0,0,0.50968399,-18.788991,87.999959)" />
      <path
         style="display:inline;opacity:0.05;fill:#ffffff;fill-opacity:1;stroke:none;stroke-width:2.03873372;stroke-linecap:round;stroke-linejoin:round;stroke-miterlimit:4;stroke-dasharray:none;stroke-dashoffset:0;stroke-opacity:1;enable-background:new"
         d="m 90.242419,207.99468 c -74.05571,0 -84.6394003,-10.55717 -84.6394003,-84.54365 V 93.825709 H 250.25134 v 29.625321 c 0,73.98648 -10.58369,84.54365 -84.6394,84.54365 z"
         id="path1107"
         inkscape:connector-curvature="0" />
    </g>
    <g
       id="g8259"
       transform="matrix(0.91374269,0,0,0.91374269,18.735359,43.126003)">
      <path
         id="path7923"
         d="M 50.062014,284.83915 H 193.47402 c 17.442,0 21.318,0 21.318,9.19609 0,9.19611 -3.876,9.19611 -21.318,9.19611 H 50.062014 c -17.442002,0 -21.318002,0 -21.318002,-9.19611 0,-9.19609 3.876,-9.19609 21.318002,-9.19609 z"
         style="color:#000000;fill:url(#linearGradient7955);stroke-width:0.52770191"
         inkscape:connector-curvature="0" />
      <path
         id="path7925"
         d="m 28.744012,293.74787 c -9.28e-4,0.0957 0,0.18959 0,0.28737 0,9.19611 3.876,9.19611 21.318002,9.19611 H 193.47402 c 17.442,0 21.318,0 21.318,-9.19611 0,-0.0978 0,-0.19165 0,-0.28737 -0.0827,8.90584 -4.06146,8.90873 -21.318,8.90873 H 50.062014 c -17.256438,0 -21.235152,0 -21.318002,-8.90873 z"
         style="color:#000000;opacity:0.6;fill:#ffffff;stroke-width:0.52770191"
         inkscape:connector-curvature="0" />
      <path
         id="path7927"
         d="m 50.062014,284.83915 c -17.442002,0 -21.318002,0 -21.318002,9.19609 0,0.0979 -9.28e-4,0.19167 0,0.28739 0.08285,-8.90585 4.061564,-8.90873 21.318002,-8.90873 H 193.47402 c 17.25645,0 21.23517,0.002 21.318,8.90873 0,-0.0957 0,-0.18959 0,-0.28739 0,-9.19609 -3.876,-9.19609 -21.318,-9.19609 z"
         style="color:#000000;opacity:0.05;stroke-width:0.52770191"
         inkscape:connector-curvature="0" />
      <path
         id="path7929"
         style="color:#000000;opacity:0.6;fill:url(#linearGradient7957);stroke-width:0.52770191"
         d="m 44.248013,289.4372 c -7.752,0 -11.628001,0 -11.628001,4.59804 0,4.59806 3.876001,4.59806 11.628001,4.59806 H 199.28803 c 7.752,0 11.62799,0 11.62799,-4.59806 0,-4.59804 -3.87599,-4.59804 -11.62799,-4.59804 z"
         inkscape:connector-curvature="0" />
      <path
         id="path7947"
         style="color:#000000;opacity:0.4;filter:url(#filter4030-8)"
         d="m 108,84 c -36,0 -44,0 -44,16 0,16 8,16 44,16 h 296 c 36,0 44,0 44,-16 0,-16 -8,-16 -44,-16 z M 90.375,93 C 92.125,92.984 94,93 96,93 h 320 c 16,0 24,-0.5 24,7.5 0,8 -8,7.5 -24,7.5 H 96 c -16,0 -24,0.5 -24,-7.5 0,-7 6.125,-7.3906 18.375,-7.5 z"
         clip-path="url(#clipPath4022-0)"
         inkscape:connector-curvature="0"
         transform="matrix(0.48450006,0,0,0.57475615,-2.2639917,236.55964)" />
      <path
         id="path7949"
         d="m 37.56609,289.4372 c -3.297388,0.0627 -4.946078,0.57475 -4.946078,4.59804 0,4.59806 2.153395,4.59806 6.460181,4.59806 h 38.91183 v -9.1961 h -38.91183 c -0.538348,0 -1.043048,-0.009 -1.514103,0 z"
         style="color:#000000;fill:#813352;stroke-width:0.39333135;fill-opacity:1"
         inkscape:connector-curvature="0" />
      <path
         id="path7951"
         style="color:#000000;opacity:0.3;fill:#fff229;filter:url(#filter5228-9-4)"
         d="m 180.09,123.42 a 50.987,2.8836 0 1 1 -101.97,0 50.987,2.8836 0 1 1 101.97,0 z"
         transform="matrix(0.41588686,0,0,0.57475615,3.0949593,223.06664)"
         inkscape:connector-curvature="0" />
      <g
         id="use7953"
         transform="matrix(1.2154924,0,0,1.2154924,-97.630639,143.03657)">
        <path
           id="path8067"
           style="color:#000000;opacity:0.4;filter:url(#filter4525)"
           d="m 176,101 h 8 c 24,0 32,0 32,24 0,24 -8,24 -32,24 h -8 c -24,0 -32,0 -32,-24 0,-24 8,-24 32,-24 z"
           inkscape:connector-curvature="0" />
        <path
           id="path8069"
           style="color:#000000;opacity:0.5;stroke:#000000;stroke-width:4;filter:url(#filter4533)"
           d="m 176,100 h 8 c 24,0 32,0 32,24 0,24 -8,24 -32,24 h -8 c -24,0 -32,0 -32,-24 0,-24 8,-24 32,-24 z"
           clip-path="url(#clipPath4200)"
           inkscape:connector-curvature="0" />
        <path
           id="path8073"
           d="m 176,100 h 8 c 24,0 32,0 32,24 0,24 -8,24 -32,24 h -8 c -24,0 -32,0 -32,-24 0,-24 8,-24 32,-24 z"
           style="color:#000000;fill:url(#linearGradient8099)"
           inkscape:connector-curvature="0" />
        <g
           id="g8079"
           style="opacity:0.5">
          <path
             id="path8075"
             style="color:#000000;opacity:0.5;fill:url(#linearGradient8101)"
             d="m 167.47,102 c -7.27,0.18 -12.35,0.79 -15.47,2.66 -2.11,1.26 -3.51,3.04 -4.53,6.09 -1.02,3.05 -1.53,7.36 -1.53,13.25 0,5.89 0.51,10.2 1.53,13.25 1.02,3.05 2.42,4.83 4.53,6.09 3.17,1.9 8.33,2.49 15.78,2.66 H 170 c 3.32,0 6,-2.68 6,-6 v -32 c 0,-3.32 -2.68,-6 -6,-6 z"
             inkscape:connector-curvature="0" />
          <path
             id="path8077"
             style="color:#000000;opacity:0.2;fill:none;stroke:url(#linearGradient8103);filter:url(#filter4289)"
             d="m 164.65,132 c -9.6651,0.1838 -16.434,0.78573 -20.582,2.6562 -2.8082,1.2663 -4.6766,3.0443 -6.0291,6.0938 -1.36,3.05 -2.04,7.36 -2.04,13.25 0,5.8928 0.68492,10.201 2.0374,13.25 1.3525,3.0495 3.2209,4.8274 6.0291,6.0938 4.2124,1.8995 11.088,2.4852 20.998,2.6562 h 2.9522 c 4.43,0 7.99,-2.68 7.99,-6 v -32 c 0,-3.324 -3.5606,-6 -7.9834,-6 h -3.368 z"
             clip-path="url(#clipPath4277)"
             transform="translate(0,-30)"
             inkscape:connector-curvature="0" />
        </g>
        <path
           id="path8081"
           style="color:#000000;fill:url(#linearGradient8105)"
           d="m 176,100 c -24,0 -32,0 -32,24 0,24 8,24 32,24 h 8 c 24,0 32,0 32,-24 0,-24 -8,-24 -32,-24 z m -4.31,0.97 c 1.37,-0.01 2.81,0 4.31,0 h 8 c 12,0 19.89,0.11 24.5,2.87 2.3,1.39 3.87,3.39 4.94,6.6 1.07,3.21 1.59,7.61 1.59,13.56 0,5.95 -0.52,10.35 -1.59,13.56 -1.07,3.21 -2.64,5.21 -4.94,6.6 -4.61,2.76 -12.5,2.87 -24.5,2.87 h -8 c -12,0 -19.89,-0.11 -24.5,-2.87 -2.3,-1.39 -3.87,-3.39 -4.94,-6.6 -1.07,-3.21 -1.59,-7.61 -1.59,-13.56 0,-5.95 0.52,-10.35 1.59,-13.56 1.07,-3.21 2.64,-5.21 4.94,-6.6 4.03,-2.41 10.57,-2.81 20.19,-2.87 z"
           inkscape:connector-curvature="0" />
        <g
           id="g8087"
           style="opacity:0.8"
           transform="matrix(-1,0,0,1,359.94,0)">
          <path
             id="path8083"
             d="m 167.47,102 c -7.2639,0.1838 -12.351,0.78573 -15.469,2.6562 -2.1106,1.2663 -3.5148,3.0443 -4.5312,6.0938 -1.0165,3.0495 -1.5312,7.3572 -1.5312,13.25 0,5.8928 0.51476,10.201 1.5312,13.25 1.0165,3.0495 2.4207,4.8274 4.5312,6.0938 3.1659,1.8995 8.3331,2.4852 15.781,2.6562 h 2.22 c 3.324,0 6,-2.676 6,-6 v -32 c 0,-3.324 -2.676,-6 -6,-6 h -2.5312 z"
             style="color:#000000;opacity:0.5;fill:url(#linearGradient8107)"
             inkscape:connector-curvature="0" />
          <path
             id="path8085"
             style="color:#000000;opacity:0.2;fill:none;stroke:url(#linearGradient8109);filter:url(#filter4289)"
             d="m 164.65,132 c -9.6651,0.1838 -16.434,0.78573 -20.582,2.6562 -2.8082,1.2663 -4.6766,3.0443 -6.0291,6.0938 -1.36,3.05 -2.04,7.36 -2.04,13.25 0,5.8928 0.68492,10.201 2.0374,13.25 1.3525,3.0495 3.2209,4.8274 6.0291,6.0938 4.2124,1.8995 11.088,2.4852 20.998,2.6562 h 2.9522 c 4.43,0 7.99,-2.68 7.99,-6 v -32 c 0,-3.324 -3.5606,-6 -7.9834,-6 h -3.368 z"
             clip-path="url(#clipPath4277)"
             transform="translate(0,-30)"
             inkscape:connector-curvature="0" />
        </g>
        <path
           id="path8089"
           style="color:#000000;opacity:0.8;fill:url(#linearGradient8111)"
           d="m 170,102 c 3.32,0 6,2.68 6,6 v 32 c 0,3.32 -2.68,6 -6,6 h 1 c 3.32,0 6,-2.68 6,-6 v -32 c 0,-3.32 -2.68,-6 -6,-6 z"
           inkscape:connector-curvature="0" />
        <path
           id="path8091"
           style="color:#000000;opacity:0.8;fill:url(#linearGradient8113)"
           d="m 190,102 c -3.324,0 -6,2.676 -6,6 v 32 c 0,3.324 2.676,6 6,6 h -1 c -3.324,0 -6,-2.676 -6,-6 v -32 c 0,-3.324 2.676,-6 6,-6 z"
           inkscape:connector-curvature="0" />
        <path
           id="path8093"
           style="color:#000000;fill:url(#radialGradient8115)"
           d="m 180.05,122.09 a 2.19045,19.413443 0 1 1 -4.3809,0 2.19045,19.413443 0 1 1 4.3809,0 z"
           transform="matrix(0,0.69363,-1,0,298.28,-22.358)"
           inkscape:connector-curvature="0" />
      </g>
      <path
         id="path6077"
         d="m -0.8047775,345.94366 v 1.33945 44.66263 1.33947 H 0.53468287 7.9645025 9.3039628 v -1.33947 -44.66263 -1.33945 H 7.9645025 0.53468287 Z m 29.7611375,0 v 1.33945 37.21189 1.33946 h 1.33946 7.429819 1.339461 V 384.495 347.28311 345.94366 H 37.725639 30.29582 Z m 29.761135,0 v 1.33945 29.78207 1.33947 h 1.339461 7.429818 1.339459 v -1.33947 -29.78207 -1.33945 h -1.339459 -7.429818 z m 29.761133,0 v 1.33945 22.33132 1.33946 h 1.339465 7.429813 1.339465 v -1.33946 -22.33132 -1.33945 h -1.339465 -7.429813 z m 29.761132,0 v 1.33945 44.66263 1.33947 h 1.33947 7.45074 1.33946 v -1.33947 -44.66263 -1.33945 h -1.33946 -7.45074 z m 29.76114,0 v 1.33945 22.33132 1.33946 h 1.33946 7.45075 1.33946 v -1.33946 -22.33132 -1.33945 h -1.33946 -7.45075 z m 29.76113,0 v 1.33945 29.78207 1.33947 h 1.33947 7.45074 1.33946 v -1.33947 -29.78207 -1.33945 h -1.33946 -7.45074 z m 22.33132,0 v 1.33945 37.21189 1.33946 h 1.33946 7.42982 1.33946 v -1.33946 -37.21189 -1.33945 h -1.33946 -7.42982 z m 29.76114,0 v 1.33945 44.66263 1.33947 h 1.33945 7.42982 1.33946 v -1.33947 -44.66263 -1.33945 h -1.33946 -7.42982 z"
         style="color:#000000;font-style:normal;font-variant:normal;font-weight:normal;font-stretch:normal;font-size:medium;line-height:normal;font-family:Sans;-inkscape-font-specification:Sans;text-indent:0;text-align:start;text-decoration:none;text-decoration-line:none;letter-spacing:normal;word-spacing:normal;text-transform:none;writing-mode:lr-tb;direction:ltr;baseline-shift:baseline;text-anchor:start;display:inline;overflow:visible;visibility:visible;fill:#813352;fill-opacity:1;fill-rule:nonzero;stroke:none;stroke-width:2.67892051;marker:none;enable-background:accumulate"
         inkscape:connector-curvature="0" />
    </g>
  </g>
  <g
     id="layer1"
     style="display:none;opacity:0.49550003"
     transform="translate(0,-796.36)">
    <g
       id="layer1-3"
       style="display:inline"
       transform="matrix(3.5556,0,0,3.5522,0,-2685.9)">
      <g
         id="layer1-2"
         transform="translate(0,10)">
        <path
           id="path3774"
           d="m 46.703,908.36 h 50.595 c 40.862,0 46.702,5.84 46.702,46.7 v 40.595 c 0,40.865 -5.8378,46.702 -46.703,46.702 H 46.702 C 5.838,1042.357 0,1036.457 0,995.617 v -40.6 c 0,-40.86 5.8378,-46.7 46.703,-46.7 z"
           style="display:inline"
           inkscape:connector-curvature="0" />
      </g>
    </g>
  </g>
</svg>
