<svg xmlns="http://www.w3.org/2000/svg" style="isolation:isolate" width="256" height="256" viewBox="0 0 256 256">
 <defs>
  <filter id="U8Vpna1b6VB01iBmwXLF8VvquJEJoSwo" width="270.648" height="254.338" x="-7.32" y="2.95" filterUnits="userSpaceOnUse">
   <feGaussianBlur xmlns="http://www.w3.org/2000/svg" in="SourceGraphic" stdDeviation="4.294"/>
   <feOffset xmlns="http://www.w3.org/2000/svg" dx="0" dy="4" result="pf_100_offsetBlur"/>
   <feFlood xmlns="http://www.w3.org/2000/svg" flood-opacity=".4"/>
   <feComposite xmlns="http://www.w3.org/2000/svg" in2="pf_100_offsetBlur" operator="in" result="pf_100_dropShadow"/>
   <feBlend xmlns="http://www.w3.org/2000/svg" in="SourceGraphic" in2="pf_100_dropShadow" mode="normal"/>
  </filter>
 </defs>
 <g filter="url(#U8Vpna1b6VB01iBmwXLF8VvquJEJoSwo)">
  <linearGradient id="_lgradient_11" x1=".25" x2=".75" y1=".036" y2=".902" gradientTransform="matrix(244.648,0,0,228.338,5.676,11.947)" gradientUnits="userSpaceOnUse">
   <stop offset="0%" style="stop-color:rgb(104,193,21)"/>
   <stop offset="100%" style="stop-color:rgb(132,174,92)"/>
  </linearGradient>
  <path fill="url(#_lgradient_11)" d="M 165.685 11.947 C 239.74 11.947 250.324 22.504 250.324 96.491 L 250.324 155.742 C 250.324 229.728 239.74 240.285 165.685 240.285 L 90.315 240.285 C 16.26 240.285 5.676 229.728 5.676 155.742 L 5.676 96.491 C 5.676 22.504 16.26 11.947 90.315 11.947 L 165.685 11.947 Z"/>
 </g>
 <g opacity=".4">
  <linearGradient id="_lgradient_12" x1=".517" x2=".517" y1="0" y2="1">
   <stop offset="0%" style="stop-color:rgb(255,255,255)"/>
   <stop offset="12.5%" stop-opacity=".098" style="stop-color:rgb(255,255,255)"/>
   <stop offset="92.5%" stop-opacity=".098" style="stop-color:rgb(0,0,0)"/>
   <stop offset="100%" stop-opacity=".498" style="stop-color:rgb(0,0,0)"/>
  </linearGradient>
  <path fill="none" stroke="url(#_lgradient_12)" stroke-linecap="round" stroke-linejoin="round" stroke-width="4.077" d="M 165.685 11.947 C 239.74 11.947 250.324 22.504 250.324 96.491 L 250.324 155.742 C 250.324 229.728 239.74 240.285 165.685 240.285 L 90.315 240.285 C 16.26 240.285 5.676 229.728 5.676 155.742 L 5.676 96.491 C 5.676 22.504 16.26 11.947 90.315 11.947 L 165.685 11.947 Z" vector-effect="non-scaling-stroke"/>
 </g>
 <g>
  <path fill="#F7F7F7" d="M 144.157 207.949 L 130.195 176.302 C 138.148 176.348 153.093 175.794 163.158 170.765 C 172.897 165.895 178.512 157.126 181.195 151.751 C 183.799 153.643 187.894 155.886 194.085 157.656 C 196.969 158.48 200.576 158.988 204.854 159.18 C 193.942 184.421 171.198 202.751 144.157 207.949 Z"/>
  <path fill="#F7F7F7" d="M 211.491 131.595 C 207.285 130.775 204.232 129.32 202.562 127.315 C 195.993 119.434 180.257 83.154 174.746 69.841 C 174.115 68.317 172.458 67.474 170.859 67.884 L 144.193 74.551 C 143.239 74.789 142.438 75.433 142.005 76.315 C 141.576 77.197 141.553 78.226 141.95 79.124 C 142.132 79.541 160.296 120.837 163.571 129.02 C 164.362 130.996 163.796 134.857 160.752 139.027 C 155.427 146.318 145.892 150.212 135.238 149.46 C 121.061 148.447 107.842 116.087 100.739 98.705 C 95.527 85.954 93.9 82.236 91.055 81.289 C 85.055 79.284 61.947 84.453 57.643 88.76 C 55.472 90.931 53.587 92.813 97.399 203.516 C 66.221 191.003 45 160.14 45 126.117 C 45 80.166 82.383 42.783 128.333 42.783 C 174.284 42.783 211.667 80.166 211.667 126.117 C 211.667 127.943 211.608 129.776 211.491 131.595 Z"/>
 </g>
</svg>
