<svg xmlns="http://www.w3.org/2000/svg" style="isolation:isolate" width="256" height="256"><defs><filter id="a" width="270.648" height="254.338" x="-7.32" y="2.95" filterUnits="userSpaceOnUse"><feGaussianBlur xmlns="http://www.w3.org/2000/svg" in="SourceGraphic" stdDeviation="4.294"/><feOffset xmlns="http://www.w3.org/2000/svg" dy="4" result="pf_100_offsetBlur"/><feFlood xmlns="http://www.w3.org/2000/svg" flood-opacity=".4"/><feComposite xmlns="http://www.w3.org/2000/svg" in2="pf_100_offsetBlur" operator="in" result="pf_100_dropShadow"/><feBlend xmlns="http://www.w3.org/2000/svg" in="SourceGraphic" in2="pf_100_dropShadow"/></filter></defs><path fill="#46A926" d="M165.689 11.95c74.056 0 84.639 10.557 84.639 84.544v59.251c0 73.986-10.583 84.543-84.639 84.543h-75.37c-74.055 0-84.639-10.557-84.639-84.543V96.494c0-73.987 10.584-84.544 84.639-84.544h75.37z" filter="url(#a)"/><g filter="url(#b)"><path fill="#333" d="M128.011 239.91h32.81l.001-14.186c-.005-2.851-1.438-4.285-4.305-4.28l-56.952-.008c-1.743.004-2.962.533-3.657 1.587l32.103.013v16.874z"/><path d="M95.261 239.91h32.75v-16.874l-32.103-.013c-.418.692-.646 1.575-.645 2.692l-.002 14.195z"/><path fill="#C2A64A" d="M96.136 223.037l31.876-.001-.004-26.724c-4.316.007-7.971-1.496-11.012-4.515-3.052-3.043-4.577-6.684-4.578-10.963.005-4.298 1.523-7.95 4.577-10.967 3.048-3.03 6.697-4.54 11.013-4.547l-.003-46.479c-2.927.003-5.424 1.03-7.493 3.11-2.085 2.044-3.108 4.528-3.105 7.439.003 2.911 1.023 5.4 3.109 7.475.297.29.583.556.953.843l-25.47 52.988a40.467 40.467 0 0 0-.761 1.614c-1.987 4.426-2.958 9.225-2.956 14.431q-.01 8.947 3.854 16.296z"/><path fill="#FFDA64" d="M160.675 192.05c-.023-.048-.045-.097-.074-.128-.056-.151-.13-.279-.203-.436l-25.4-54.139c.168-.15.347-.306.527-.491 2.074-2.069 3.097-4.553 3.094-7.464-.003-2.911-1.023-5.399-3.097-7.45-2.086-2.074-4.584-3.091-7.517-3.101l.003 46.479c4.322.006 7.982 1.52 11.041 4.546 3.028 3.024 4.553 6.665 4.548 10.962.001 4.28-1.517 7.932-4.547 10.968-3.066 3.023-6.721 4.521-11.042 4.516l.004 26.724 31.863.005c2.592-4.909 3.877-10.338 3.882-16.297-.004-5.338-1.025-10.223-3.082-14.694z"/></g><defs><filter id="b" width="131.475" height="181.069" x="66.28" y="84.84" filterUnits="userSpaceOnUse"><feGaussianBlur xmlns="http://www.w3.org/2000/svg" in="SourceGraphic" stdDeviation="4.294"/><feOffset xmlns="http://www.w3.org/2000/svg" dx="4" dy="-4" result="pf_100_offsetBlur"/><feFlood xmlns="http://www.w3.org/2000/svg" flood-opacity=".4"/><feComposite xmlns="http://www.w3.org/2000/svg" in2="pf_100_offsetBlur" operator="in" result="pf_100_dropShadow"/><feBlend xmlns="http://www.w3.org/2000/svg" in="SourceGraphic" in2="pf_100_dropShadow"/></filter></defs><ellipse fill="#37A6E6" cx="194.83" cy="67.506" rx="11.837" ry="11.771" vector-effect="non-scaling-stroke"/><path fill="#FFF" fill-rule="evenodd" d="M181.66 67.506c0-3.473 1.381-6.805 3.858-9.259a13.172 13.172 0 0 1 9.312-3.837c3.493 0 6.843 1.373 9.312 3.837A13.061 13.061 0 0 1 208 67.506c0 3.474-1.39 6.805-3.858 9.26a13.175 13.175 0 0 1-9.312 3.836 13.175 13.175 0 0 1-9.312-3.836 13.026 13.026 0 0 1-3.858-9.26zm2.673 0c0-2.764 1.105-5.423 3.074-7.381a10.535 10.535 0 0 1 7.423-3.057c2.78 0 5.453 1.099 7.423 3.057a10.415 10.415 0 0 1 3.074 7.381c0 2.765-1.105 5.423-3.074 7.381a10.535 10.535 0 0 1-7.423 3.057c-2.78 0-5.453-1.099-7.423-3.057a10.413 10.413 0 0 1-3.074-7.381z"/><ellipse fill="#37A6E6" cx="61.17" cy="67.506" rx="11.837" ry="11.771" vector-effect="non-scaling-stroke"/><path fill="#FFF" fill-rule="evenodd" d="M48 67.506c0-3.473 1.381-6.805 3.858-9.259a13.172 13.172 0 0 1 9.312-3.837c3.493 0 6.843 1.373 9.312 3.837a13.061 13.061 0 0 1 3.858 9.259c0 3.474-1.39 6.805-3.858 9.26a13.175 13.175 0 0 1-9.312 3.836 13.175 13.175 0 0 1-9.312-3.836A13.026 13.026 0 0 1 48 67.506zm2.673 0c0-2.764 1.105-5.423 3.074-7.381a10.535 10.535 0 0 1 7.423-3.057c2.78 0 5.453 1.099 7.423 3.057a10.415 10.415 0 0 1 3.074 7.381c0 2.765-1.105 5.423-3.074 7.381a10.535 10.535 0 0 1-7.423 3.057c-2.78 0-5.453-1.099-7.423-3.057a10.413 10.413 0 0 1-3.074-7.381z"/><path fill="#FFF" fill-opacity=".965" d="M127.95 73.391c-25.311 0-46.466 17.926-51.561 41.795h3.021c5.031-22.26 24.846-38.85 48.54-38.85 23.695 0 43.51 16.59 48.54 38.85h3.022c-5.095-23.869-26.25-41.795-51.562-41.795z"/><path fill="#FFF" d="M184.173 66.177v2.658H71.72v-2.658h112.453z"/><path fill="#37A6E6" d="M168.72 116.77h17.756v17.656H168.72z"/><path fill="#FFF" fill-rule="evenodd" d="M167.385 115.443h20.423v20.318h-20.423v-20.318zm2.673 2.658h15.077v15.001h-15.077v-15.001z"/><path fill="#37A6E6" d="M68.03 116.77h17.756v17.656H68.03z"/><path fill="#FFF" fill-rule="evenodd" d="M66.695 115.443h20.423v20.318H66.695v-20.318zm2.673 2.658h15.077v15.001H69.368v-15.001z"/><path fill="#37A6E6" d="M127.95 52.77l14.795 14.712-14.794 14.71-14.795-14.71z"/><path fill="#FFF" fill-rule="evenodd" d="M127.947 50.91l16.689 16.596-16.689 16.596-16.681-16.596 16.681-16.596zm0 3.766l12.911 12.83-12.911 12.831-12.903-12.831 12.903-12.83z"/><g opacity=".4"><linearGradient id="c" x1=".517" x2=".517" y2="1"><stop offset="0%" stop-color="#fff"/><stop offset="12.5%" stop-opacity=".098" stop-color="#fff"/><stop offset="92.5%" stop-opacity=".098"/><stop offset="100%" stop-opacity=".498"/></linearGradient><path fill="none" stroke="url(#c)" stroke-linecap="round" stroke-linejoin="round" stroke-width="4.077" d="M165.685 11.947c74.055 0 84.639 10.557 84.639 84.544v59.251c0 73.986-10.584 84.543-84.639 84.543h-75.37c-74.055 0-84.639-10.557-84.639-84.543V96.491c0-73.987 10.584-84.544 84.639-84.544h75.37z" vector-effect="non-scaling-stroke"/></g></svg>