<svg xmlns="http://www.w3.org/2000/svg" style="isolation:isolate" width="256" height="256"><defs><filter id="a" width="270.648" height="254.338" x="-7.32" y="2.95" filterUnits="userSpaceOnUse"><feGaussianBlur xmlns="http://www.w3.org/2000/svg" in="SourceGraphic" stdDeviation="4.294"/><feOffset xmlns="http://www.w3.org/2000/svg" dy="4" result="pf_100_offsetBlur"/><feFlood xmlns="http://www.w3.org/2000/svg" flood-opacity=".4"/><feComposite xmlns="http://www.w3.org/2000/svg" in2="pf_100_offsetBlur" operator="in" result="pf_100_dropShadow"/><feBlend xmlns="http://www.w3.org/2000/svg" in="SourceGraphic" in2="pf_100_dropShadow"/></filter></defs><path fill="#4D4D4D" d="M165.689 11.95c74.056 0 84.639 10.557 84.639 84.544v59.251c0 73.986-10.583 84.543-84.639 84.543h-75.37c-74.055 0-84.639-10.557-84.639-84.543V96.494c0-73.987 10.584-84.544 84.639-84.544h75.37z" filter="url(#a)"/><g opacity=".4"><linearGradient id="b" x1=".517" x2=".517" y2="1"><stop offset="0%" stop-color="#fff"/><stop offset="12.5%" stop-opacity=".098" stop-color="#fff"/><stop offset="92.5%" stop-opacity=".098"/><stop offset="100%" stop-opacity=".498"/></linearGradient><path fill="none" stroke="url(#b)" stroke-linecap="round" stroke-linejoin="round" stroke-width="4.077" d="M165.685 11.947c74.055 0 84.639 10.557 84.639 84.544v59.251c0 73.986-10.584 84.543-84.639 84.543h-75.37c-74.055 0-84.639-10.557-84.639-84.543V96.491c0-73.987 10.584-84.544 84.639-84.544h75.37z" vector-effect="non-scaling-stroke"/></g><defs><filter id="c" width="241" height="226" x="7.5" y="13" filterUnits="userSpaceOnUse"><feGaussianBlur xmlns="http://www.w3.org/2000/svg" in="SourceGraphic" stdDeviation="4.294"/><feOffset xmlns="http://www.w3.org/2000/svg" result="pf_100_offsetBlur"/><feFlood xmlns="http://www.w3.org/2000/svg" flood-opacity=".4"/><feComposite xmlns="http://www.w3.org/2000/svg" in2="pf_100_offsetBlur" operator="in" result="pf_100_dropShadow"/><feBlend xmlns="http://www.w3.org/2000/svg" in="SourceGraphic" in2="pf_100_dropShadow"/></filter></defs><g filter="url(#c)"><linearGradient id="d" x1=".374" x2=".374" y1="1.001" y2=".655" gradientTransform="matrix(215 0 0 200 20.5 26)" gradientUnits="userSpaceOnUse"><stop offset="0%" stop-color="#2f5fdd"/><stop offset="99.13%" stop-color="#5884f4"/></linearGradient><path fill="url(#d)" d="M94.882 26c-32.542 0-51.131 2.307-61.595 12.723C22.823 49.139 20.5 67.648 20.5 100.051v51.898c0 32.403 2.323 50.912 12.787 61.328C43.751 223.693 62.34 226 94.882 226h66.236c32.542 0 51.131-2.307 61.595-12.723 10.464-10.416 12.787-28.925 12.787-61.328v-51.898c0-32.403-2.323-50.912-12.787-61.328C212.249 28.307 193.66 26 161.118 26H94.882z"/></g><defs><filter id="e" width="192.136" height="42.915" x="31.93" y="153.48" filterUnits="userSpaceOnUse"><feGaussianBlur xmlns="http://www.w3.org/2000/svg" in="SourceGraphic" stdDeviation="4.294"/><feOffset xmlns="http://www.w3.org/2000/svg" result="pf_100_offsetBlur"/><feFlood xmlns="http://www.w3.org/2000/svg" flood-opacity=".4"/><feComposite xmlns="http://www.w3.org/2000/svg" in2="pf_100_offsetBlur" operator="in" result="pf_100_dropShadow"/><feBlend xmlns="http://www.w3.org/2000/svg" in="SourceGraphic" in2="pf_100_dropShadow"/></filter></defs><g filter="url(#e)"><linearGradient id="f" x1=".293" x2=".293" y1="-.012" y2=".978" gradientTransform="matrix(166.136 0 0 16.915 44.932 166.481)" gradientUnits="userSpaceOnUse"><stop offset="0%" stop-color="#d7d3cd"/><stop offset="100%" stop-color="#f4f3f1"/></linearGradient><path fill="url(#f)" d="M63.968 166.481h128.064c15.575 0 19.036 0 19.036 8.458 0 8.457-3.461 8.457-19.036 8.457H63.968c-15.575 0-19.036 0-19.036-8.457 0-8.458 3.461-8.458 19.036-8.458z"/></g><g opacity=".6"><linearGradient id="g" x1=".284" x2=".284" y1="-.001" y2=".997" gradientTransform="matrix(159.214 0 0 8.458 48.393 170.71)" gradientUnits="userSpaceOnUse"><stop offset="0%" stop-color="#a4967d"/><stop offset="100%" stop-color="#cdc6ba"/></linearGradient><path fill="url(#g)" d="M58.777 170.71c-6.923 0-10.384 0-10.384 4.229s3.461 4.229 10.384 4.229h138.446c6.923 0 10.384 0 10.384-4.229s-3.461-4.229-10.384-4.229H58.777z"/></g><linearGradient id="h" x1=".62" x2=".62" y1="-.001" y2=".997" gradientTransform="matrix(40.516 0 0 8.461 48.393 170.706)" gradientUnits="userSpaceOnUse"><stop offset="0%" stop-color="#e70b22"/><stop offset="100%" stop-color="#f85858"/></linearGradient><path fill="url(#h)" d="M52.81 170.71c-2.945.058-4.417.528-4.417 4.229 0 4.229 1.923 4.229 5.769 4.229h34.747v-8.458H54.162c-.481 0-.932-.008-1.352 0z"/><defs><filter id="i" width="159.214" height="8.458" x="48.39" y="170.71" filterUnits="userSpaceOnUse"><feOffset xmlns="http://www.w3.org/2000/svg" in="SourceGraphic"/><feGaussianBlur xmlns="http://www.w3.org/2000/svg" result="pf_100_offsetBlur" stdDeviation="4.294"/><feComposite xmlns="http://www.w3.org/2000/svg" in="SourceGraphic" in2="pf_100_offsetBlur" operator="out" result="pf_100_inverse"/><feFlood xmlns="http://www.w3.org/2000/svg" flood-opacity=".4" result="pf_100_color"/><feComposite xmlns="http://www.w3.org/2000/svg" in="pf_100_color" in2="pf_100_inverse" operator="in" result="pf_100_shadow"/><feComposite xmlns="http://www.w3.org/2000/svg" in="pf_100_shadow" in2="SourceGraphic"/></filter></defs><path fill="none" d="M58.777 170.71c-6.923 0-10.384 0-10.384 4.229s3.461 4.229 10.384 4.229h138.446c6.923 0 10.384 0 10.384-4.229s-3.461-4.229-10.384-4.229H58.777z" opacity=".6" filter="url(#i)"/><defs><filter id="j" width="104.149" height="79.659" x="75.38" y="134.85" filterUnits="userSpaceOnUse"><feGaussianBlur xmlns="http://www.w3.org/2000/svg" in="SourceGraphic" stdDeviation="4.294"/><feOffset xmlns="http://www.w3.org/2000/svg" result="pf_100_offsetBlur"/><feFlood xmlns="http://www.w3.org/2000/svg" flood-opacity=".4"/><feComposite xmlns="http://www.w3.org/2000/svg" in2="pf_100_offsetBlur" operator="in" result="pf_100_dropShadow"/><feBlend xmlns="http://www.w3.org/2000/svg" in="SourceGraphic" in2="pf_100_dropShadow"/></filter></defs><g filter="url(#j)"><linearGradient id="k" x1=".667" x2=".667" y1="1" gradientTransform="matrix(78.149 0 0 53.659 88.381 147.854)" gradientUnits="userSpaceOnUse"><stop offset="0%" stop-color="#e5e2dd"/><stop offset="100%" stop-color="#f2f1ee"/></linearGradient><path fill="url(#k)" d="M123.114 147.854h8.683c26.05 0 34.733 0 34.733 26.829 0 26.83-8.683 26.83-34.733 26.83h-8.683c-26.05 0-34.733 0-34.733-26.83 0-26.829 8.683-26.829 34.733-26.829z"/></g><g opacity=".5"><linearGradient id="l" x2="1" y1=".5" y2=".5" gradientTransform="matrix(32.627 0 0 49.187 90.486 150.09)" gradientUnits="userSpaceOnUse"><stop offset="0%" stop-color="#d9d6d0"/><stop offset="73.611%" stop-color="#bdb8ad"/><stop offset="100%" stop-color="#938a79"/></linearGradient><path fill="url(#l)" d="M113.855 150.09c-7.891.201-13.405.883-16.791 2.973-2.29 1.409-3.81 3.399-4.917 6.808-1.107 3.41-1.661 8.228-1.661 14.812 0 6.585.554 11.403 1.661 14.812 1.107 3.41 2.627 5.4 4.917 6.808 3.441 2.124 9.041 2.784 17.128 2.974h2.409c3.604 0 6.513-2.996 6.513-6.707v-35.773c0-3.711-2.909-6.707-6.513-6.707h-2.746z"/></g><linearGradient id="m" x1=".667" x2=".667" y1="1" gradientTransform="matrix(78.149 0 0 53.659 88.381 147.854)" gradientUnits="userSpaceOnUse"><stop offset="0%" stop-color="#d6d4cf"/><stop offset="100%" stop-color="#fbfaf9"/></linearGradient><path fill="url(#m)" d="M123.114 147.854c-26.05 0-34.733 0-34.733 26.829 0 26.83 8.683 26.83 34.733 26.83h8.683c26.05 0 34.733 0 34.733-26.83 0-26.829-8.683-26.829-34.733-26.829h-8.683zm-4.678 1.084c1.487-.011 3.05 0 4.678 0h8.683c13.025 0 21.589.123 26.592 3.209 2.497 1.554 4.201 3.789 5.362 7.378 1.162 3.588 1.726 8.507 1.726 15.158 0 6.652-.564 11.57-1.726 15.159-1.161 3.588-2.865 5.824-5.362 7.378-5.003 3.085-13.567 3.208-26.592 3.208h-8.683c-13.025 0-21.589-.123-26.593-3.208-2.496-1.554-4.2-3.79-5.362-7.378-1.161-3.589-1.725-8.507-1.725-15.159 0-6.651.564-11.57 1.725-15.158 1.162-3.589 2.866-5.824 5.362-7.378 4.374-2.694 11.473-3.142 21.915-3.209z"/><g opacity=".5"><linearGradient id="n" x2="1" y1=".5" y2=".5" gradientTransform="matrix(-32.631 0 0 49.187 164.361 150.09)" gradientUnits="userSpaceOnUse"><stop offset="0%" stop-color="#d9d6d0"/><stop offset="73.611%" stop-color="#bdb8ad"/><stop offset="100%" stop-color="#938a79"/></linearGradient><path fill="url(#n)" d="M140.99 150.09c7.885.205 13.406.878 16.79 2.969 2.291 1.416 3.815 3.403 4.919 6.812 1.103 3.409 1.662 8.225 1.662 14.812 0 6.588-.559 11.404-1.662 14.812-1.104 3.409-2.628 5.397-4.919 6.813-3.436 2.123-9.044 2.778-17.128 2.969h-2.41c-3.608 0-6.512-2.992-6.512-6.707v-35.773c0-3.716 2.904-6.707 6.512-6.707h2.748z"/></g><g opacity=".8"><linearGradient id="o" x1=".954" x2=".954" y1=".009" y2=".973" gradientTransform="matrix(7.598 0 0 49.187 116.601 150.09)" gradientUnits="userSpaceOnUse"><stop offset="0%" stop-color="#fff"/><stop offset="100%" stop-opacity="0" stop-color="#fff"/></linearGradient><path fill="url(#o)" d="M116.601 150.09c3.604 0 6.513 2.996 6.513 6.707v35.772c0 3.712-2.909 6.708-6.513 6.708h1.086c3.603 0 6.512-2.996 6.512-6.708v-35.772c0-3.711-2.909-6.707-6.512-6.707h-1.086z"/></g><g opacity=".8"><linearGradient id="p" x1=".046" x2=".046" y1=".009" y2=".973" gradientTransform="matrix(7.598 0 0 49.187 130.711 150.09)" gradientUnits="userSpaceOnUse"><stop offset="0%" stop-color="#fff"/><stop offset="100%" stop-opacity="0" stop-color="#fff"/></linearGradient><path fill="url(#p)" d="M138.309 150.09c-3.608 0-6.512 2.991-6.512 6.707v35.772c0 3.716 2.904 6.708 6.512 6.708h-1.085c-3.608 0-6.513-2.992-6.513-6.708v-35.772c0-3.716 2.905-6.707 6.513-6.707h1.085z"/></g></svg>