<svg xmlns="http://www.w3.org/2000/svg" style="isolation:isolate" width="256" height="256"><switch><g><defs><filter id="a" width="270.648" height="254.338" x="-7.32" y="2.95" filterUnits="userSpaceOnUse"><feGaussianBlur xmlns="http://www.w3.org/2000/svg" in="SourceGraphic" stdDeviation="4.294"/><feOffset xmlns="http://www.w3.org/2000/svg" dy="4" result="pf_100_offsetBlur"/><feFlood xmlns="http://www.w3.org/2000/svg" flood-opacity=".4"/><feComposite xmlns="http://www.w3.org/2000/svg" in2="pf_100_offsetBlur" operator="in" result="pf_100_dropShadow"/><feBlend xmlns="http://www.w3.org/2000/svg" in="SourceGraphic" in2="pf_100_dropShadow"/></filter></defs><g filter="url(#a)"><linearGradient id="b" x2="0" y1=".5" y2="1.5" gradientTransform="matrix(244.648 0 0 228.338 5.68 11.95)" gradientUnits="userSpaceOnUse"><stop offset="0%" stop-color="#07b3ff"/><stop offset="100%" stop-color="#007de8"/></linearGradient><path fill="url(#b)" d="M165.689 11.95c74.056 0 84.639 10.557 84.639 84.544v59.251c0 73.986-10.583 84.543-84.639 84.543h-75.37c-74.055 0-84.639-10.557-84.639-84.543V96.494c0-73.987 10.584-84.544 84.639-84.544h75.37z"/></g><g opacity=".4"><linearGradient id="c" x1=".517" x2=".517" y2="1"><stop offset="0%" stop-color="#fff"/><stop offset="12.5%" stop-opacity=".098" stop-color="#fff"/><stop offset="92.5%" stop-opacity=".098"/><stop offset="100%" stop-opacity=".498"/></linearGradient><path fill="none" stroke="url(#c)" stroke-linecap="round" stroke-linejoin="round" stroke-width="4.077" d="M165.685 11.947c74.055 0 84.639 10.557 84.639 84.544v59.251c0 73.986-10.584 84.543-84.639 84.543h-75.37c-74.055 0-84.639-10.557-84.639-84.543V96.491c0-73.987 10.584-84.544 84.639-84.544h75.37z" vector-effect="non-scaling-stroke"/></g><defs><filter id="d" width="171" height="171" x="42.5" y="42.5" filterUnits="userSpaceOnUse"><feGaussianBlur xmlns="http://www.w3.org/2000/svg" in="SourceGraphic" stdDeviation="4.294"/><feOffset xmlns="http://www.w3.org/2000/svg" result="pf_100_offsetBlur"/><feFlood xmlns="http://www.w3.org/2000/svg" flood-opacity=".4"/><feComposite xmlns="http://www.w3.org/2000/svg" in2="pf_100_offsetBlur" operator="in" result="pf_100_dropShadow"/><feBlend xmlns="http://www.w3.org/2000/svg" in="SourceGraphic" in2="pf_100_dropShadow"/></filter></defs><path fill="#FDC92B" d="M139.44 198.667c-4.788-2.442-6.585-6.891-4.651-11.519 2.09-5.002 6.504-6.457 19.582-6.457 6 0 10.908-.363 10.908-.808 0-.444-3.39-4.196-7.533-8.337l-7.533-7.53h-17.039v-19.802h3.935c4.96 0 6.421-1.47 6.421-6.461v-3.961h20.713V151.041l7.768 7.764 7.767 7.764v-11.211c0-13.647 1.395-17.825 6.695-20.054 3.23-1.358 4.093-1.358 7.324 0 6.084 2.559 6.694 5.458 6.694 31.838 0 34.812 1.484 33.351-33.884 33.349-20.408-.001-24.077-.247-27.167-1.824zm-41.258-36.221c-4.871-2.13-6.434-6.679-6.434-18.719v-9.935h20.713v3.961c0 4.991 1.461 6.461 6.421 6.461h3.935v19.802l-10.615-.043c-6.837-.024-11.828-.57-14.02-1.529v.002zm-36.248-41.688c-5.792-2.532-6.434-5.701-6.434-31.779 0-26.347.614-29.282 6.661-31.825 5.244-2.205 48.748-2.206 53.992-.001 7.57 3.183 7.8 12.677.398 16.452-2.742 1.398-6.161 1.822-14.706 1.824-6.123 0-11.133.342-11.133.758s3.367 4.168 7.483 8.338l7.482 7.58h17.14v19.802h-3.935c-4.96 0-6.421 1.47-6.421 6.461v3.96H91.748V105.08l-7.768-7.764-7.767-7.764v11.211c0 13.62-1.398 17.827-6.661 20.04-4.563.434-3.693.449-7.618-.043v-.002zm81.596-2.39c0-4.991-1.461-6.461-6.421-6.461h-3.935V92.105h17.14l7.482-7.58c4.116-4.17 7.483-7.921 7.483-8.338 0-.416-5.01-.758-11.133-.758-8.545-.002-11.964-.426-14.706-1.824-7.402-3.775-7.172-13.269.399-16.452 5.243-2.205 48.747-2.203 53.991.001 6.047 2.543 6.661 5.478 6.661 31.825 0 26.379-.61 29.279-6.694 31.838-3.231 1.358-4.094 1.358-7.324 0-5.3-2.229-6.695-6.407-6.695-20.054V89.552l-7.767 7.764-7.768 7.764V122.329H143.53v-3.961z" filter="url(#d)"/></g></switch> </svg>