<svg style="isolation:isolate" viewBox="0 0 256 256" xmlns="http://www.w3.org/2000/svg"><defs><filter id="a" x="-7.32" y="2.95" width="270.65" height="254.34" filterUnits="userSpaceOnUse"><feGaussianBlur in="SourceGraphic" stdDeviation="4.294"/><feOffset dy="4" result="pf_100_offsetBlur"/><feFlood flood-opacity=".4"/><feComposite in2="pf_100_offsetBlur" operator="in" result="pf_100_dropShadow"/><feBlend in="SourceGraphic" in2="pf_100_dropShadow"/></filter></defs><g filter="url(#a)"><linearGradient id="b" x1=".5" x2=".5" y1=".999" y2="-.814" gradientTransform="matrix(244.65 0 0 228.34 5.68 11.95)" gradientUnits="userSpaceOnUse"><stop stop-color="#ad4f8d" offset="0"/><stop stop-color="#6b8ccb" offset="1"/></linearGradient><path d="M165.69 11.95c74.056 0 84.639 10.557 84.639 84.544v59.251c0 73.986-10.583 84.543-84.639 84.543H90.32c-74.055 0-84.639-10.557-84.639-84.543V96.494c0-73.987 10.584-84.544 84.639-84.544h75.37z" fill="url(#b)"/></g><path d="M165.86 11.831c74.406 0 85.04 10.557 85.04 84.544v59.251c0 73.986-10.634 84.543-85.04 84.543H90.135c-74.405 0-85.039-10.557-85.039-84.543V96.375c0-73.987 10.634-84.544 85.039-84.544h75.725z" fill="none"/><g fill="#F7F7F7" fill-opacity=".5"><path d="M63.539 239.44c.55.036 1.021.098 1.581.131.435.025 1.027.011 1.468.035l-.039-7.592 26.629-24.465v-8.156l12.29-12.233v-6.115l6.144-6.117v-16.309l-8.193-8.156H87.032l-8.193-8.154H58.356l-8.195 8.154v20.389l16.443 14.34-.055 18.279-6.144 6.117v26.502l3.134 3.35zM99.322 81.148l-6.144 6.117h6.144l2.049 2.039h2.048l2.049-2.039-6.146-6.117zM177.16 109.69h-24.58l-14.338 14.271v20.388l10.241 10.194h14.339l6.145 6.116v6.116l4.097 4.077v24.465l15.556 16.365 25.688-25.567-.277-23.418 20.484-20.387h-8.194l-20.483-20.387v-8.155h-24.581l-4.097-4.078z"/><path d="M250.9 117.84V96.369c0-9.248-.167-17.505-.603-24.875-.218-3.684-.503-7.146-.869-10.4s-.812-6.298-1.352-9.147c-.54-2.848-1.174-5.501-1.914-7.97-.739-2.469-1.585-4.756-2.551-6.871-.614-1.347-1.365-2.511-2.08-3.723l-2.922 2.908h-12.29l-12.29 12.233-8.193-8.155h-24.58l-12.29 12.233v10.193h12.29v-6.117h8.193v8.156l-4.098 4.076-16.385.276-6.146 5.841h-8.193v8.155l-6.146 6.117v12.23h12.29l8.195-8.154h8.193v4.078l8.192 8.155h4.098v-4.079l-8.193-8.154h8.193l8.192 8.154h10.242l-6.144-6.115 6.144-6.115h6.146l6.144 6.115h-6.144l-6.146 6.115 6.034 6.006.112 6.227h-8.193l24.581 24.465h4.095l4.097-4.076 8.193-8.157-8.193-8.154H250.9z"/><path d="M156.68 70.954v-6.116l6.145-6.116v12.232h-6.145zM220.18 191.24v-12.784l8.194-7.604v20.388h-8.194zM136.19 11.831H90.133c-.789 0-1.348.049-2.123.051l-7.125 8.104 12.29 12.232v12.783l14.339 15.76h8.193v-8.154l12.29-12.233v-8.156l8.193-8.154V11.831zM125.95 56.683h6.146l6.145 6.116H125.95v-6.116zM70.646 123.96h-6.145l-6.146 6.117h12.291v-6.117z"/><path d="M16.003 30.841c-.107.152-.245.268-.35.422a39.514 39.514 0 0 0-3.267 5.848c-.965 2.115-1.811 4.402-2.551 6.871s-1.373 5.122-1.913 7.97c-.54 2.849-.986 5.893-1.352 9.147s-.652 6.716-.87 10.4c-.436 7.37-.602 15.627-.602 24.875v21.471l8.193 8.154h12.29l20.485 20.389v-24.465l12.29-12.232h8.193l12.29-12.233h12.29l-6.144-6.117 12.29-14.269-12.29-12.233H66.549v16.309h-8.193l-8.195-8.155v-8.154l12.291-12.232h10.243V44.45l-12.29-12.232H39.92V44.45H29.678L16.003 30.841zM66.549 12.396c-.429.023-1.005.008-1.429.033-3.705.217-7.189.5-10.461.863-3.272.364-6.334.808-9.199 1.344a80.758 80.758 0 0 0-7.159 1.699l7.765 7.729h20.483V12.396z"/></g><g fill="#fff"><circle cx="72.377" cy="103.58" r="4.078" vector-effect="non-scaling-stroke"/><circle cx="92.764" cy="185.12" r="4.078" vector-effect="non-scaling-stroke"/><circle cx="153.93" cy="144.35" r="4.078" vector-effect="non-scaling-stroke"/><circle cx="174.31" cy="83.187" r="4.078" vector-effect="non-scaling-stroke"/></g><path d="M5.098 138.23c68.415-49.089 150.87-57.085 244.65-59.124M6.67 59.789c20.973 15.048 41.693 29.384 65.226 43.833 53.234 32.684 112.82 59.511 177.85 60.924M154.44 141.29c20.097-43.077 32.367-78.596 27.252-129.12M139.48 239.83C69.542 187.491 63.922 114.56 75.974 12.18" fill="none" fill-rule="evenodd" stroke="#fff" stroke-width="2" vector-effect="non-scaling-stroke" opacity=".5"/><circle cx="72.377" cy="103.58" r="4.078" fill="#fff" vector-effect="non-scaling-stroke" filter="url(#c)"/><defs><filter id="c" x="55.72" y="86.92" width="33.31" height="33.31" filterUnits="userSpaceOnUse"><feGaussianBlur stdDeviation="2.7"/></filter></defs><circle cx="92.764" cy="185.12" r="4.078" fill="#fff" vector-effect="non-scaling-stroke" filter="url(#d)"/><defs><filter id="d" x="76.11" y="168.47" width="33.31" height="33.31" filterUnits="userSpaceOnUse"><feGaussianBlur stdDeviation="2.7"/></filter></defs><circle cx="153.93" cy="144.35" r="4.078" fill="#fff" vector-effect="non-scaling-stroke" filter="url(#e)"/><defs><filter id="e" x="137.27" y="127.69" width="33.31" height="33.31" filterUnits="userSpaceOnUse"><feGaussianBlur stdDeviation="2.7"/></filter></defs><circle cx="174.31" cy="83.187" r="4.078" fill="#fff" vector-effect="non-scaling-stroke" filter="url(#f)"/><defs><filter id="f" x="157.66" y="66.53" width="33.31" height="33.31" filterUnits="userSpaceOnUse"><feGaussianBlur stdDeviation="2.7"/></filter></defs><path d="M153.36 144.16C108.964 199.709 17.88 201.18 6.7 194.183" fill="none" fill-rule="evenodd" stroke="#fff" stroke-width="2" vector-effect="non-scaling-stroke" opacity=".5"/><g opacity=".4"><linearGradient id="g" x1=".517" x2=".517" y2="1"><stop stop-color="#fff" offset="0"/><stop stop-color="#fff" stop-opacity=".098" offset=".125"/><stop stop-opacity=".098" offset=".925"/><stop stop-opacity=".498" offset="1"/></linearGradient><path d="M165.68 11.947c74.055 0 84.639 10.557 84.639 84.544v59.251c0 73.986-10.584 84.543-84.639 84.543H90.31c-74.055 0-84.639-10.557-84.639-84.543V96.491c0-73.987 10.584-84.544 84.639-84.544h75.37z" fill="none" stroke="url(#g)" stroke-linecap="round" stroke-linejoin="round" stroke-width="4.077" vector-effect="non-scaling-stroke"/></g><defs><filter id="h" x="75.13" y="42.5" width="106" height="171" filterUnits="userSpaceOnUse"><feGaussianBlur in="SourceGraphic" stdDeviation="4.294"/><feOffset result="pf_100_offsetBlur"/><feFlood flood-opacity=".4"/><feComposite in2="pf_100_offsetBlur" operator="in" result="pf_100_dropShadow"/><feBlend in="SourceGraphic" in2="pf_100_dropShadow"/></filter></defs><path d="M158.69 134.22V86.288c0-17.02-13.671-30.792-30.567-30.792S97.556 69.268 97.556 86.288v47.932c-5.911 7.037-9.433 16.058-9.433 25.981 0 22.253 17.91 40.295 40 40.295s40-18.042 40-40.295c0-9.923-3.522-19.004-9.433-25.981zm-26.925 24.899v13.351c0 1.985-1.612 3.669-3.642 3.669s-3.642-1.624-3.642-3.669v-13.351a7.95 7.95 0 0 1-4.239-7.037c0-4.39 3.523-7.878 7.821-7.878 4.299 0 7.821 3.548 7.821 7.878.06 3.068-1.612 5.714-4.119 7.037zm19.522-31.815c-6.567-4.691-14.507-7.457-23.164-7.457s-16.657 2.766-23.164 7.457V86.228c0-12.87 10.388-23.335 23.164-23.335s23.164 10.465 23.164 23.335v41.076z" fill="#fff" filter="url(#h)"/></svg>