<svg xmlns="http://www.w3.org/2000/svg" style="isolation:isolate" width="256" height="256"><switch><g><defs><filter id="a" width="270.648" height="254.338" x="-7.32" y="2.95" filterUnits="userSpaceOnUse"><feGaussianBlur xmlns="http://www.w3.org/2000/svg" in="SourceGraphic" stdDeviation="4.294"/><feOffset xmlns="http://www.w3.org/2000/svg" dy="4" result="pf_100_offsetBlur"/><feFlood xmlns="http://www.w3.org/2000/svg" flood-opacity=".4"/><feComposite xmlns="http://www.w3.org/2000/svg" in2="pf_100_offsetBlur" operator="in" result="pf_100_dropShadow"/><feBlend xmlns="http://www.w3.org/2000/svg" in="SourceGraphic" in2="pf_100_dropShadow"/></filter></defs><g filter="url(#a)"><linearGradient id="b" x1="-.182" x2="1.04" y1=".503" y2=".497" gradientTransform="matrix(244.648 0 0 228.338 5.68 11.95)" gradientUnits="userSpaceOnUse"><stop offset="25.186%" stop-color="#76c22b"/><stop offset="25.215%" stop-color="#ffda64"/><stop offset="37.975%" stop-color="#ffda64"/><stop offset="38.056%" stop-color="#fb7c38"/><stop offset="49.877%" stop-color="#fb7c38"/><stop offset="50%" stop-color="#f76363"/><stop offset="61.898%" stop-color="#f76363"/><stop offset="61.904%" stop-color="#d85eca"/><stop offset="75%" stop-color="#d85eca"/><stop offset="75%" stop-color="#5884f4"/><stop offset="86.718%" stop-color="#5884f4"/><stop offset="86.786%" stop-color="#31c6b7"/><stop offset="97.87%" stop-color="#31c6b7"/><stop offset="100%" stop-color="#31c6b7"/></linearGradient><path fill="url(#b)" d="M165.689 11.95c74.056 0 84.639 10.557 84.639 84.544v59.251c0 73.986-10.583 84.543-84.639 84.543h-75.37c-74.055 0-84.639-10.557-84.639-84.543V96.494c0-73.987 10.584-84.544 84.639-84.544h75.37z"/></g><g opacity=".4"><linearGradient id="c" x1=".517" x2=".517" y2="1"><stop offset="0%" stop-color="#fff"/><stop offset="12.5%" stop-opacity=".098" stop-color="#fff"/><stop offset="92.5%" stop-opacity=".098"/><stop offset="100%" stop-opacity=".498"/></linearGradient><path fill="none" stroke="url(#c)" stroke-linecap="round" stroke-linejoin="round" stroke-width="4.077" d="M165.685 11.947c74.055 0 84.639 10.557 84.639 84.544v59.251c0 73.986-10.584 84.543-84.639 84.543h-75.37c-74.055 0-84.639-10.557-84.639-84.543V96.491c0-73.987 10.584-84.544 84.639-84.544h75.37z" vector-effect="non-scaling-stroke"/></g><defs><filter id="d" width="171" height="156" x="42.5" y="50" filterUnits="userSpaceOnUse"><feGaussianBlur xmlns="http://www.w3.org/2000/svg" in="SourceGraphic" stdDeviation="4.294"/><feOffset xmlns="http://www.w3.org/2000/svg" result="pf_100_offsetBlur"/><feFlood xmlns="http://www.w3.org/2000/svg" flood-opacity=".4"/><feComposite xmlns="http://www.w3.org/2000/svg" in2="pf_100_offsetBlur" operator="in" result="pf_100_dropShadow"/><feBlend xmlns="http://www.w3.org/2000/svg" in="SourceGraphic" in2="pf_100_dropShadow"/></filter></defs><path fill="#FFF" d="M77.472 183.027L55.727 72.973q-.884-3.918 1.679-6.946Q59.97 63 63.859 63h10.254q4.243 0 7.602 2.849 3.359 2.85 3.89 7.124l12.021 89.041q0 .178.177.178t.177-.178l10.961-89.041q.531-4.274 3.713-7.124Q115.836 63 120.079 63h16.619q4.243 0 7.425 2.849 3.182 2.85 3.713 7.124l10.961 89.041q0 .178.176.178.177 0 .177-.178l12.022-89.041q.53-4.274 3.89-7.124Q178.421 63 182.664 63h9.546q3.89 0 6.365 3.027 2.475 3.028 1.768 6.946l-21.746 110.054q-.884 4.274-4.243 7.124-3.359 2.849-7.778 2.849h-15.028q-4.243 0-7.514-2.849-3.27-2.85-3.801-7.124l-12.021-89.041q0-.178-.177-.178t-.177.178l-12.022 89.041q-.53 4.274-3.801 7.124-3.271 2.849-7.514 2.849H89.494q-4.42 0-7.867-2.849-3.448-2.85-4.155-7.124z" filter="url(#d)"/></g></switch> </svg>