<svg xmlns="http://www.w3.org/2000/svg" style="isolation:isolate" width="256" height="256"><switch><g><defs><filter id="a" width="270.648" height="254.338" x="-7.32" y="2.95" filterUnits="userSpaceOnUse"><feGaussianBlur xmlns="http://www.w3.org/2000/svg" in="SourceGraphic" stdDeviation="4.294"/><feOffset xmlns="http://www.w3.org/2000/svg" dy="4" result="pf_100_offsetBlur"/><feFlood xmlns="http://www.w3.org/2000/svg" flood-opacity=".4"/><feComposite xmlns="http://www.w3.org/2000/svg" in2="pf_100_offsetBlur" operator="in" result="pf_100_dropShadow"/><feBlend xmlns="http://www.w3.org/2000/svg" in="SourceGraphic" in2="pf_100_dropShadow"/></filter></defs><path fill="#FDA463" d="M165.689 11.95c74.056 0 84.639 10.557 84.639 84.544v59.251c0 73.986-10.583 84.543-84.639 84.543h-75.37c-74.055 0-84.639-10.557-84.639-84.543V96.494c0-73.987 10.584-84.544 84.639-84.544h75.37z" filter="url(#a)"/><g opacity=".4"><linearGradient id="b" x1=".517" x2=".517" y2="1"><stop offset="0%" stop-color="#fff"/><stop offset="12.5%" stop-opacity=".098" stop-color="#fff"/><stop offset="92.5%" stop-opacity=".098"/><stop offset="100%" stop-opacity=".498"/></linearGradient><path fill="none" stroke="url(#b)" stroke-linecap="round" stroke-linejoin="round" stroke-width="4.077" d="M165.685 11.947c74.055 0 84.639 10.557 84.639 84.544v59.251c0 73.986-10.584 84.543-84.639 84.543h-75.37c-74.055 0-84.639-10.557-84.639-84.543V96.491c0-73.987 10.584-84.544 84.639-84.544h75.37z" vector-effect="non-scaling-stroke"/></g><defs><filter id="c" width="171" height="171" x="42.5" y="46.5" filterUnits="userSpaceOnUse"><feGaussianBlur xmlns="http://www.w3.org/2000/svg" in="SourceGraphic" stdDeviation="4.294"/><feOffset xmlns="http://www.w3.org/2000/svg" dy="4" result="pf_100_offsetBlur"/><feFlood xmlns="http://www.w3.org/2000/svg" flood-opacity=".4"/><feComposite xmlns="http://www.w3.org/2000/svg" in2="pf_100_offsetBlur" operator="in" result="pf_100_dropShadow"/><feBlend xmlns="http://www.w3.org/2000/svg" in="SourceGraphic" in2="pf_100_dropShadow"/></filter></defs><path fill="#FFF" d="M193.724 55.5c3.413 0 5.32 2.252 5.722 6.755l-2.861 21.208h1.054l2.259-1.571h.602v.471c-3.112 1.99-6.123 7.436-9.034 16.338-1.105 7.646-2.962 14.715-5.571 21.209-2.309 6.702-3.464 12.881-3.464 18.537l-4.366 11.154c0 .942 1.656 1.885 4.969 2.828-.603 2.199-1.506 3.299-2.711 3.299v.628h1.054v.471c0 1.152-1.706 1.728-5.119 1.728l.602.629v2.199h-1.054c.703 2.199 2.209 3.299 4.517 3.299v1.1h-4.517v.628c1.506 0 2.259.943 2.259 2.828l-6.324 2.199.602.629v.471c0 .733-.753 1.1-2.258 1.099v.629c1.907 0 2.86.366 2.86 1.1-2.71.942-6.273 5.603-10.69 13.981-4.517 7.436-8.432 11.154-11.745 11.154h-1.204c-2.51-1.676-4.568-7.226-6.174-16.652-6.424-14.348-9.636-22.779-9.636-25.293 0-6.493-2.058-13.405-6.174-20.736-1.104-3.247-1.857-7.332-2.258-12.254l-2.71-.628c-6.826 10.787-10.39 19.218-10.691 25.292-1.907 3.561-3.413 7.855-4.517 12.882 4.115 1.152.703 2.723-.602 1.571-1.406 2.828-3.263 10.683-5.572 23.565-1.806 5.969-4.065 8.954-6.775 8.954-7.629-2.618-14.003-6.912-19.123-12.882-.803 0-2.108-2.985-3.915-8.954-1.104 0-1.857-2.985-2.258-8.955-3.815-8.483-6.425-18.171-7.83-29.063v-16.338h-.602l-2.71.629v-.629c0-.733.903-1.099 2.71-1.099l-.602-9.426V103.1l-.838-4.517L55.5 79.536V69.482c1.907-6.284 5.22-9.426 9.938-9.426l1.807 1.571-1.807-.472c7.327 8.379 11.644 15.448 12.949 21.208h5.119v1.1h-3.915v1.257c1.506 4.818 2.61 7.226 3.313 7.226h1.205l2.71-.628.602.628.602-.628.603.628v.472c-2.008 1.257-3.363 2.985-4.066 5.184h-.451v1.099h1.054c1.405 17.491 4.015 30.739 7.829 39.746l2.259 1.571h1.204c1.506 0 4.668-6.127 9.486-18.38 3.112-5.551 5.371-10.421 6.776-14.61l-.602-1.728c3.111-4.085 6.324-6.127 9.636-6.127h1.054c2.108 0 3.614 1.152 4.517 3.456 2.811 3.456 5.07 8.64 6.776 15.552l8.432 16.339c1.104 1.152 1.656 2.461 1.656 3.927 3.112 6.179 5.923 10.264 8.432 12.253h1.807c2.108 0 4.919-7.645 8.432-22.936.602 0 2.259-4.084 4.969-12.253v-.629l2.259-2.199c4.316-13.51 8.281-23.983 11.895-31.419 1.204-15.291 2.86-22.936 4.969-22.936l6.775-2.828M62.125 163.111h1.054l1.807 6.127h-1.205l-1.656-5.656v-.471z" filter="url(#c)"/></g></switch> </svg>