<svg xmlns="http://www.w3.org/2000/svg" style="isolation:isolate" width="256" height="256"><switch><g><defs><filter id="a" width="270.648" height="254.338" x="-7.32" y="2.95" filterUnits="userSpaceOnUse"><feGaussianBlur xmlns="http://www.w3.org/2000/svg" in="SourceGraphic" stdDeviation="4.294"/><feOffset xmlns="http://www.w3.org/2000/svg" dy="4" result="pf_100_offsetBlur"/><feFlood xmlns="http://www.w3.org/2000/svg" flood-opacity=".4"/><feComposite xmlns="http://www.w3.org/2000/svg" in2="pf_100_offsetBlur" operator="in" result="pf_100_dropShadow"/><feBlend xmlns="http://www.w3.org/2000/svg" in="SourceGraphic" in2="pf_100_dropShadow"/></filter></defs><path fill="#F7F7F7" d="M165.689 11.95c74.056 0 84.639 10.557 84.639 84.544v59.251c0 73.986-10.583 84.543-84.639 84.543h-75.37c-74.055 0-84.639-10.557-84.639-84.543V96.494c0-73.987 10.584-84.544 84.639-84.544h75.37z" filter="url(#a)"/><g opacity=".4"><linearGradient id="b" x1=".517" x2=".517" y2="1"><stop offset="0%" stop-color="#fff"/><stop offset="12.5%" stop-opacity=".098" stop-color="#fff"/><stop offset="92.5%" stop-opacity=".098"/><stop offset="100%" stop-opacity=".498"/></linearGradient><path fill="none" stroke="url(#b)" stroke-linecap="round" stroke-linejoin="round" stroke-width="4.077" d="M165.685 11.947c74.055 0 84.639 10.557 84.639 84.544v59.251c0 73.986-10.584 84.543-84.639 84.543h-75.37c-74.055 0-84.639-10.557-84.639-84.543V96.491c0-73.987 10.584-84.544 84.639-84.544h75.37z" vector-effect="non-scaling-stroke"/></g><path fill="#1A1A1A" fill-rule="evenodd" d="M157.778 182.712v-32.604l.041-1.477q.124-3.737 1.649-4.997 1.525-1.26 6.595-1.52v-1.695H141v1.695h.206q4.864.304 6.349 1.477l.618.652q1.03 1.433 1.03 5.865v39.537q0 1.086-.041 1.868-.165 3.606-1.69 4.779-1.484 1.173-6.472 1.347v1.694h25.063v-1.694q-.659-.044-1.236-.044-4.37-.304-5.73-1.868-1.319-1.52-1.319-6.082v-3.187l25.195-32.35v35.537q0 1.086-.041 1.868-.165 3.606-1.69 4.779-1.484 1.173-6.472 1.347v1.694h25.063v-1.694q-.659-.044-1.236-.044-4.37-.304-5.73-1.868-1.319-1.52-1.319-6.082v-39.537l.041-1.477q.123-3.737 1.649-4.997 1.525-1.26 6.595-1.52v-1.695H174.77v1.695h.206q4.864.304 6.348 1.477l.619.652q1.03 1.433 1.03 5.865v.249l-25.195 32.355z"/><path fill="#1A1A1A" d="M65.296 140.484c.009 1.319.596 2.064.382 3.225-.668 3.52-2.074 7.07-3.204 10.143-.743 1.984-1.07 4.351-2.262 5.801-.258.163-2.354-.029-2.84-.415-.711-.011-1.414.022-1.872.202v.436c3.175 3.515 6.612 4.711 10.941 6.907-.601 3.57-3.754 5.951-5.289 8.632-.791 0-1.428-.06-1.881-.436-.434.092-.468.114-.754.223.076 3.172 2.39 5.866 4.712 6.471 1.559-1.994 3.507-2.953 5.847-4.087 2.141 2.551 2.761 6.193 3.585 10.335.358 1.809-.228 3.799.187 5.385.724 2.801 2.03 3.637 3.203 5.598h1.322c.83-5.067-1.204-9.99-2.263-14.017-.31-1.716-.625-3.455-.94-5.183-.787-1.476-2.336-1.856-3.399-3.012-.329-.125-.186-.038-.372-.213 2.431-1.438 5.015-3.029 7.542-4.31.677.861 3.82 4.321 4.907 3.661.191-.065.373-.131.559-.213-.062-1.22-.115-2.435-.186-3.661-2.379-2.714-5.881-4.961-9.815-5.811v.213h-.186c.443 1.487 1.892 2.909 3.026 3.661v.649c-2.236.371-4.217 1.611-6.229 2.384-1.378.507-3.042.433-4.162 1.277h-.559c.815-2.61 3.52-4.749 4.907-6.907 2.746-4.229 4.922-9.415 9.247-11.856-.115-1.989-5.134-6.104-6.984-4.747-.463.278-.134-.114-.373.426-.281.784.649 1.752.373 3.022-.363 1.662-3.954 9.484-4.898 10.356v.223c-1.945-.757-3.425-2.849-5.28-3.884.329-1.984 1.782-3.51 2.635-4.96 2.16-3.727 3.895-7.281 7.17-9.717-.028-2.867-4.08-5.855-6.797-5.801zm22.301 2.054a1.692 1.692 0 0 0-.959.33c-.191.077-.377.126-.559.213 0 1.842.802 3.233.373 5.173-.868 3.874-2.804 8.477-4.535 11.654-1.039 1.907-3.299 3.97-3.389 6.695 3.08-.349 3.817-3.984 6.211-4.971.696.736 1.38 1.458 2.076 2.161.987 1.695.807 4.237 1.322 6.46a7829.93 7829.93 0 0 1 2.636 14.017c.119 2.316.248 4.597.381 6.908.501 2.076 2.008 5.703 3.958 6.205.319.185.578.114.94-.213.663-.616.306-1.704.764-2.587 1.058-.866 2.928-.644 4.339-1.085 3.857-1.161 8.359-1.082 12.636-2.161 2.026-.507 5.372.871 6.974-.202.191-.087.392-.142.568-.234-.09-2.817-4.81-4.016-7.365-3.204-1.13.36-2.45 1.163-3.585 1.501-.882.076-1.763.142-2.645.202-.295-3.509-1.809-6.231-1.881-9.898 2.837-.071 6.39-.498 8.288-1.724-.038-1.09-.211-1.092-.559-1.714-2.16-.583-5.869-.68-7.552.639-.476-.022-.692-.022-.931-.213-1.053-1.526-.555-4.64-1.508-6.247v-.863c2.031-.501 5.343-.913 6.406-2.586.148-.223.067-.061.186-.426-.171-.19-.239-.371-.372-.649-2.951-.85-4.233-.266-6.788.862-.797-2.915.163-5.222-2.449-6.034.557-1.107 2.417-1.065 3.585-1.512 1.821-.686 3.888-1.605 5.466-2.575.124-.371.038-.219.195-.437-.105-1.09-.377-1.054-.763-1.724-2.723-.24-4.895.062-6.416 1.724h-.363c.224-1.607 1.104-3.913 1.881-5.172.534-.883 1.518-.76 1.89-1.937h.186v-.234c-.386-.567-.75-1.153-1.127-1.714-.886-.708-2.168-.77-3.017-1.511-1.253-.022-2.454-.022-3.203.425.1.829.425 1.349.568 1.937.52 2.224-1.352 9.097-2.076 10.133-.587.839-7.397 3.66-9.247 3.022-.438-.158-1.719-.889-2.076-1.298-.153-.213-.067-.05-.186-.426 2.674-2.872 4.597-9.266 8.296-10.558.067-.349.129-.721.196-1.075-.809-.953-4.343-5.188-6.77-5.077zm7.347 19.414c.551-.038.971-.016 1.108.085 2.003 1.062 1.286 4.427 2.449 6.471-.396 1.057-4.995 2.652-6.416 2.799-.252-2.283-.584-6.948-1.89-8.185.225-.437 3.096-1.059 4.749-1.171v.001zm3.93 9.355h.195c.363 1.962.565 5.332 1.509 6.907-.677 1.897-4.843 1.726-6.416 2.81-.658-.452-1.528-5.862-1.509-7.333 1.44-.153 5.177-1.572 6.221-2.384zm-21.873 9.483c-.382 1.864 3.625 6.03 4.898 7.131.634.545 1.481 1.784 2.448 1.277.496-.044.65-.098.95-.213.22-.572.549-1.305.187-1.926-.101-2.709-6.247-5.751-8.483-6.269zm24.135.213c.148 2.005 1.228 7.667 2.077 9.057.005.131 0 .295 0 .436-2.274.556-4.639 1.31-7.17 1.299-.391-3.074-1.681-5.782-1.695-9.057 2.894-.06 4.395-1.397 6.788-1.735zm-34.9 2.586c-.286.736-.253 1.927-.558 2.799-1.631 4.578-2.16 5.533.381 9.92 1.13 0 1.276-.203 1.881-.65.749-3.58.871-10.391-1.704-12.069z" opacity=".88"/><path fill="#1A1A1A" d="M182.94 102.708h13.917l3.476-6.958v13.917h-20.875V98.022c7.129-3.073 12.179-10.719 12.179-19.665 0-11.662-8.572-20.784-19.137-20.784-10.571 0-19.137 9.122-19.137 20.778 0 8.952 5.05 16.598 12.179 19.665v11.645h-20.875V95.75l3.482 6.958h13.916v-1.772c-10.201-3.613-17.398-12.36-17.398-22.579C144.667 64.906 157.129 54 172.5 54c15.371 0 27.833 10.906 27.833 24.357 0 10.219-7.197 18.972-17.398 22.585v1.766h.005zM80.888 109.33h3.357l11.208-23.431 9.221 23.431h3.232l19.156-47.495c1.074-2.665 3.167-4.265 5.392-4.627v-2.829h-15.49v2.83c2.055.493 4.237 1.323 5.207 3.66l-14.066 34.963c-2.543-5.827-5.15-12.195-7.638-18.55 2.568-5.88 4.666-11.342 7.817-16.71 1.842-3.158 4.831-3.232 6.372-3.387V54.38H98.19v2.805c2.054 0 6.329.199 4.423 4.516L97.838 72.52 92.78 60.485c-.787-1.874.742-3.123 3.239-3.271l-.018-2.832H77.47v2.805c2.208.078 5.321.066 6.47 2.083 3.538 7.004 5.904 14.28 9.129 21.421l-8.347 16.821-14.029-34.755c-1.581-3.916 2.172-5.178 4.61-5.505l-.027-2.87H55.518v2.805c2.728.972 6.248 5.345 7.23 7.559 7.38 16.635 11.097 27.788 18.141 44.587l-.001-.003z"/></g></switch> </svg>