<?xml version="1.0" encoding="UTF-8" standalone="no"?>
<!-- Created with Inkscape (http://www.inkscape.org/) -->

<svg
   xmlns:dc="http://purl.org/dc/elements/1.1/"
   xmlns:cc="http://creativecommons.org/ns#"
   xmlns:rdf="http://www.w3.org/1999/02/22-rdf-syntax-ns#"
   xmlns:svg="http://www.w3.org/2000/svg"
   xmlns="http://www.w3.org/2000/svg"
   xmlns:xlink="http://www.w3.org/1999/xlink"
   xmlns:sodipodi="http://sodipodi.sourceforge.net/DTD/sodipodi-0.dtd"
   xmlns:inkscape="http://www.inkscape.org/namespaces/inkscape"
   width="256"
   height="256"
   viewBox="0 0 67.733332 67.733335"
   version="1.1"
   id="svg1488"
   inkscape:version="0.92.3 (2405546, 2018-03-11)"
   sodipodi:docname="winetricks.svg">
  <defs
     id="defs1482">
    <clipPath
       clipPathUnits="userSpaceOnUse"
       id="clipPath1025">
      <path
         id="path1027"
         d="M 111.94141,84 C 99.359506,84.145 90.1531,83.713998 82.625,87.867188 c -3.7641,2.0768 -6.751838,5.574737 -8.398438,9.960937 C 72.580062,102.21433 72,107.4241 72,114 v 42 h 160 v -26 c 0,-6.5759 -0.57996,-11.78566 -2.22656,-16.17188 -0.205,-0.5455 -0.47919,-1.03993 -0.74219,-1.54296 -0.1,-0.1848 -0.17844,-0.38051 -0.27344,-0.56641 -1.727,-3.38752 -4.25471,-6.14522 -7.38281,-7.87109 C 213.8463,99.694146 204.64049,100.1454 192.05859,100 H 192 151.66797 L 135.45312,84 h -23.49218 z"
         style="color:#000000;font-style:normal;font-variant:normal;font-weight:normal;font-stretch:normal;font-size:medium;line-height:normal;font-family:sans-serif;font-variant-ligatures:none;font-variant-position:normal;font-variant-caps:normal;font-variant-numeric:normal;font-variant-alternates:normal;font-feature-settings:normal;text-indent:0;text-align:start;text-decoration:none;text-decoration-line:none;text-decoration-style:solid;text-decoration-color:#000000;letter-spacing:normal;word-spacing:normal;text-transform:none;writing-mode:lr-tb;direction:ltr;baseline-shift:baseline;text-anchor:start;white-space:normal;shape-padding:0;clip-rule:nonzero;display:inline;overflow:visible;visibility:visible;opacity:1;isolation:auto;mix-blend-mode:normal;color-interpolation:sRGB;color-interpolation-filters:linearRGB;solid-color:#000000;solid-opacity:1;fill:#e3dfd5;fill-opacity:1;fill-rule:nonzero;stroke:none;stroke-width:4.00000048;stroke-linecap:butt;stroke-linejoin:miter;stroke-miterlimit:4;stroke-dasharray:none;stroke-dashoffset:0;stroke-opacity:1;marker:none;color-rendering:auto;image-rendering:auto;shape-rendering:auto;text-rendering:auto;enable-background:accumulate"
         inkscape:connector-curvature="0" />
    </clipPath>
    <linearGradient
       id="linearGradient1013"
       inkscape:collect="always">
      <stop
         id="stop1005"
         offset="0"
         style="stop-color:#ffffff;stop-opacity:1;" />
      <stop
         style="stop-color:#ffffff;stop-opacity:0.09803922"
         offset="0.125"
         id="stop1007" />
      <stop
         style="stop-color:#000000;stop-opacity:0.09803922"
         offset="0.92500001"
         id="stop1009" />
      <stop
         id="stop1011"
         offset="1"
         style="stop-color:#000000;stop-opacity:0.49803922" />
    </linearGradient>
    <clipPath
       clipPathUnits="userSpaceOnUse"
       id="clipPath1082-3">
      <path
         sodipodi:nodetypes="sssssssss"
         inkscape:connector-curvature="0"
         id="path1084-6"
         d="M 361.9375,-212 C 507.2348,-212 528,-191.28677 528,-46.125 V 70.125 C 528,215.28618 507.2348,236 361.9375,236 H 214.0625 C 68.7652,236 48,215.28618 48,70.125 V -46.125 C 48,-191.28677 68.7652,-212 214.0625,-212 Z"
         style="display:inline;opacity:1;fill:#8c59d9;fill-opacity:1;stroke:none;stroke-width:2;stroke-linecap:round;stroke-linejoin:round;stroke-miterlimit:4;stroke-dasharray:none;stroke-dashoffset:0;stroke-opacity:1;enable-background:new" />
    </clipPath>
    <clipPath
       clipPathUnits="userSpaceOnUse"
       id="clipPath1082-3-5">
      <path
         sodipodi:nodetypes="sssssssss"
         inkscape:connector-curvature="0"
         id="path1084-6-6"
         d="M 361.9375,-212 C 507.2348,-212 528,-191.28677 528,-46.125 V 70.125 C 528,215.28618 507.2348,236 361.9375,236 H 214.0625 C 68.7652,236 48,215.28618 48,70.125 V -46.125 C 48,-191.28677 68.7652,-212 214.0625,-212 Z"
         style="display:inline;opacity:1;fill:#8c59d9;fill-opacity:1;stroke:none;stroke-width:2;stroke-linecap:round;stroke-linejoin:round;stroke-miterlimit:4;stroke-dasharray:none;stroke-dashoffset:0;stroke-opacity:1;enable-background:new" />
    </clipPath>
    <filter
       inkscape:collect="always"
       style="color-interpolation-filters:sRGB"
       id="filter4569-2"
       x="-0.0116"
       width="1.0232"
       y="-0.012428571"
       height="1.024857">
      <feGaussianBlur
         inkscape:collect="always"
         stdDeviation="1.16"
         id="feGaussianBlur4571-9" />
    </filter>
    <filter
       inkscape:collect="always"
       style="color-interpolation-filters:sRGB"
       id="filter913"
       x="-0.0232"
       width="1.0464"
       y="-0.024857143"
       height="1.0497143">
      <feGaussianBlur
         inkscape:collect="always"
         stdDeviation="2.32"
         id="feGaussianBlur915" />
    </filter>
    <linearGradient
       inkscape:collect="always"
       xlink:href="#linearGradient1013"
       id="linearGradient906"
       gradientUnits="userSpaceOnUse"
       x1="296"
       y1="-212"
       x2="296"
       y2="236" />
    <linearGradient
       inkscape:collect="always"
       id="linearGradient903">
      <stop
         style="stop-color:#d3d3d3;stop-opacity:1"
         offset="0"
         id="stop897" />
      <stop
         style="stop-color:#bfbfbf;stop-opacity:1"
         offset="1"
         id="stop901" />
    </linearGradient>
    <radialGradient
       inkscape:collect="always"
       xlink:href="#linearGradient885"
       id="radialGradient879"
       cx="34.114899"
       cy="282.91422"
       fx="34.114899"
       fy="282.91422"
       r="32.387848"
       gradientTransform="matrix(1.2932698,-0.90986591,0.62839875,0.88575001,-187.58788,60.015739)"
       gradientUnits="userSpaceOnUse" />
    <linearGradient
       id="linearGradient885"
       inkscape:collect="always">
      <stop
         id="stop881"
         offset="0"
         style="stop-color:#c55662;stop-opacity:1" />
      <stop
         style="stop-color:#a23440;stop-opacity:1;"
         offset="0.5"
         id="stop887" />
      <stop
         id="stop883"
         offset="1"
         style="stop-color:#ad3743;stop-opacity:1" />
    </linearGradient>
    <filter
       inkscape:collect="always"
       style="color-interpolation-filters:sRGB"
       id="filter887"
       x="-0.59906399"
       width="2.198128"
       y="-0.10591156"
       height="1.2118231">
      <feGaussianBlur
         inkscape:collect="always"
         stdDeviation="2.0297795"
         id="feGaussianBlur889" />
    </filter>
    <clipPath
       clipPathUnits="userSpaceOnUse"
       id="clipPath1082-3-3">
      <path
         sodipodi:nodetypes="sssssssss"
         inkscape:connector-curvature="0"
         id="path1084-6-5"
         d="M 361.9375,-212 C 507.2348,-212 528,-191.28677 528,-46.125 V 70.125 C 528,215.28618 507.2348,236 361.9375,236 H 214.0625 C 68.7652,236 48,215.28618 48,70.125 V -46.125 C 48,-191.28677 68.7652,-212 214.0625,-212 Z"
         style="display:inline;opacity:1;fill:#8c59d9;fill-opacity:1;stroke:none;stroke-width:2;stroke-linecap:round;stroke-linejoin:round;stroke-miterlimit:4;stroke-dasharray:none;stroke-dashoffset:0;stroke-opacity:1;enable-background:new" />
    </clipPath>
    <linearGradient
       inkscape:collect="always"
       xlink:href="#linearGradient903"
       id="linearGradient909"
       x1="18.520834"
       y1="254.66666"
       x2="15.875"
       y2="244.08333"
       gradientUnits="userSpaceOnUse" />
    <linearGradient
       xlink:href="#f"
       id="m"
       gradientUnits="userSpaceOnUse"
       gradientTransform="matrix(1.6859176,0.973365,-0.973365,1.6859176,175.40038,101.54573)"
       x1="9.6969995"
       y1="24.660999"
       x2="33.231998"
       y2="24.660999" />
    <linearGradient
       id="f">
      <stop
         offset="0"
         stop-color="#2e3436"
         id="stop881-7" />
      <stop
         offset="1"
         id="stop883-5" />
    </linearGradient>
    <linearGradient
       xlink:href="#f"
       id="n"
       gradientUnits="userSpaceOnUse"
       gradientTransform="matrix(1.6859176,0.973365,-0.973365,1.6859176,175.40038,101.54573)"
       x1="19.5"
       y1="28.5"
       x2="23.5"
       y2="28.5" />
    <linearGradient
       xlink:href="#e"
       id="o"
       gradientUnits="userSpaceOnUse"
       gradientTransform="matrix(1.6859176,0.973365,-0.973365,1.6859176,175.40038,101.54573)"
       x1="20"
       y1="12"
       x2="23"
       y2="12" />
    <linearGradient
       id="e">
      <stop
         offset="0"
         stop-color="#eeeeec"
         id="stop876" />
      <stop
         offset="1"
         stop-color="#d3d7cf"
         id="stop878" />
    </linearGradient>
    <filter
       inkscape:collect="always"
       style="color-interpolation-filters:sRGB"
       id="filter1739"
       x="-0.37119349"
       width="1.742387"
       y="-0.36258377"
       height="1.7251675">
      <feGaussianBlur
         inkscape:collect="always"
         stdDeviation="1.0320336"
         id="feGaussianBlur1741" />
    </filter>
    <filter
       inkscape:collect="always"
       style="color-interpolation-filters:sRGB"
       id="filter1743"
       x="-0.15604965"
       width="1.3120993"
       y="-0.15604968"
       height="1.3120994">
      <feGaussianBlur
         inkscape:collect="always"
         stdDeviation="1.0320336"
         id="feGaussianBlur1745" />
    </filter>
    <filter
       inkscape:collect="always"
       style="color-interpolation-filters:sRGB"
       id="filter1747"
       x="-0.28367489"
       width="1.5673498"
       y="-0.28216031"
       height="1.5643206">
      <feGaussianBlur
         inkscape:collect="always"
         stdDeviation="1.0320336"
         id="feGaussianBlur1749" />
    </filter>
  </defs>
  <sodipodi:namedview
     id="base"
     pagecolor="#ffffff"
     bordercolor="#666666"
     borderopacity="1.0"
     inkscape:pageopacity="0.0"
     inkscape:pageshadow="2"
     inkscape:zoom="3.2421875"
     inkscape:cx="128"
     inkscape:cy="128"
     inkscape:document-units="px"
     inkscape:current-layer="layer1"
     showgrid="true"
     units="px"
     inkscape:window-width="1920"
     inkscape:window-height="1013"
     inkscape:window-x="0"
     inkscape:window-y="34"
     inkscape:window-maximized="1">
    <inkscape:grid
       type="xygrid"
       id="grid2168" />
  </sodipodi:namedview>
  <metadata
     id="metadata1485">
    <rdf:RDF>
      <cc:Work
         rdf:about="">
        <dc:format>image/svg+xml</dc:format>
        <dc:type
           rdf:resource="http://purl.org/dc/dcmitype/StillImage" />
        <dc:title></dc:title>
      </cc:Work>
    </rdf:RDF>
  </metadata>
  <g
     inkscape:label="Livello 1"
     inkscape:groupmode="layer"
     id="layer1"
     transform="translate(0,-229.26666)">
    <path
       style="display:inline;opacity:0.2;fill:#000000;fill-opacity:1;stroke:none;stroke-width:2;stroke-linecap:round;stroke-linejoin:round;stroke-miterlimit:4;stroke-dasharray:none;stroke-dashoffset:0;stroke-opacity:1;filter:url(#filter913);enable-background:new"
       d="m 188.96876,45.999995 c 72.64865,0 83.03125,10.356615 83.03125,82.937505 v 58.125 c 0,72.58059 -10.3826,82.9375 -83.03125,82.9375 h -73.9375 C 42.382606,270 32.000006,259.64309 32.000006,187.0625 v -58.125 c 0,-72.58089 10.3826,-82.937505 83.031254,-82.937505 z"
       id="path899"
       inkscape:connector-curvature="0"
       sodipodi:nodetypes="sssssssss"
       transform="matrix(0.26970778,0,0,0.26970778,-7.1289177,220.56049)" />
    <path
       sodipodi:nodetypes="sssssssss"
       inkscape:connector-curvature="0"
       id="path4567-1"
       d="m 188.96876,43.999995 c 72.64865,0 83.03125,10.356615 83.03125,82.937505 v 58.125 c 0,72.58059 -10.3826,82.9375 -83.03125,82.9375 h -73.9375 C 42.382606,268 32.000006,257.64309 32.000006,185.0625 v -58.125 c 0,-72.58089 10.3826,-82.937505 83.031254,-82.937505 z"
       style="display:inline;opacity:0.1;fill:#000000;fill-opacity:1;stroke:none;stroke-width:2;stroke-linecap:round;stroke-linejoin:round;stroke-miterlimit:4;stroke-dasharray:none;stroke-dashoffset:0;stroke-opacity:1;filter:url(#filter4569-2);enable-background:new"
       transform="matrix(0.26970778,0,0,0.26970778,-7.1289177,220.56049)" />
    <path
       style="display:inline;opacity:1;fill:url(#linearGradient909);fill-opacity:1;stroke:none;stroke-width:0.5394156;stroke-linecap:round;stroke-linejoin:round;stroke-miterlimit:4;stroke-dasharray:none;stroke-dashoffset:0;stroke-opacity:1;enable-background:new"
       d="m 23.895905,232.42763 c -9.797337,0 -15.3941297,0.69699 -18.5445167,3.84334 -3.150381,3.14634 -3.849657,8.73736 -3.849657,18.52555 v 15.67677 c 0,9.78815 0.699276,15.3792 3.849657,18.52555 3.150387,3.14636 8.7471787,3.84333 18.5445167,3.84333 h 19.94152 c 9.797339,0 15.394134,-0.69697 18.544517,-3.84333 3.150384,-3.14635 3.849659,-8.7374 3.849659,-18.52555 v -15.67677 c 0,-9.78819 -0.699275,-15.37921 -3.849659,-18.52555 -3.150383,-3.14635 -8.74718,-3.84334 -18.544517,-3.84334 z"
       id="rect877-2"
       inkscape:connector-curvature="0" />
    <path
       style="display:inline;opacity:0.2;fill:#131313;fill-opacity:1;stroke:none;stroke-width:0.5394156;stroke-linecap:round;stroke-linejoin:round;stroke-miterlimit:4;stroke-dasharray:none;stroke-dashoffset:0;stroke-opacity:1;enable-background:new"
       d="m 1.5017313,269.93387 v 0.53942 c 0,9.78815 0.699276,15.3792 3.849657,18.52555 3.150387,3.14636 8.7471787,3.84333 18.5445167,3.84333 h 19.94152 c 9.797339,0 15.394134,-0.69697 18.544517,-3.84333 3.150384,-3.14635 3.849659,-8.7374 3.849659,-18.52555 v -0.53942 c 0,9.78815 -0.699275,15.3792 -3.849659,18.52555 -3.150383,3.14636 -8.747178,3.84334 -18.544517,3.84334 h -19.94152 c -9.797338,0 -15.3941297,-0.69698 -18.5445167,-3.84334 -3.150381,-3.14635 -3.849657,-8.7374 -3.849657,-18.52555 z"
       id="path917"
       inkscape:connector-curvature="0" />
    <path
       style="opacity:1;fill:url(#radialGradient879);fill-opacity:1;stroke:none;stroke-width:0.12261389"
       d="m 1.5881508,255.52498 v 15.03725 c 0,2.42967 0.043768,4.59883 0.1581743,6.53476 0.057234,0.96797 0.1321905,1.87751 0.2282567,2.73223 0.09611,0.85472 0.2132625,1.65453 0.3550049,2.40282 0.1417314,0.74829 0.307623,1.44528 0.5018504,2.09392 0.1942284,0.64866 0.4167928,1.24877 0.6703361,1.80456 0.2535433,0.55581 0.5382036,1.06696 0.8578827,1.53672 0.319678,0.46975 0.6744327,0.8984 1.0670754,1.28889 0.3926436,0.3905 0.823045,0.74266 1.2953341,1.06057 0.472279,0.31789 0.9864636,0.60168 1.5452168,0.85378 0.5587643,0.2521 1.1621263,0.47291 1.8141868,0.66599 0.652058,0.1931 1.352575,0.35837 2.104779,0.49925 0.752204,0.14088 1.556305,0.25702 2.415473,0.35249 0.859169,0.0954 1.773297,0.16995 2.74627,0.22679 1.945936,0.11368 4.126213,0.157 6.568359,0.157 h 19.883346 c 2.442143,0 4.62242,-0.0433 6.568371,-0.157 0.972965,-0.0569 1.887085,-0.13132 2.746256,-0.22679 0.859171,-0.0954 1.66327,-0.21161 2.415478,-0.35249 0.752201,-0.14088 1.452714,-0.30615 2.104775,-0.49925 0.652068,-0.19308 1.25543,-0.41389 1.814185,-0.66599 0.558755,-0.2521 1.07294,-0.53589 1.545218,-0.85378 0.472288,-0.31791 0.902688,-0.67007 1.295331,-1.06057 0.392645,-0.39049 0.747398,-0.81914 1.067079,-1.28889 0.319676,-0.46976 0.604335,-0.98091 0.85788,-1.53672 0.253544,-0.55579 0.476108,-1.1559 0.670334,-1.80456 0.19423,-0.64864 0.360121,-1.34563 0.501851,-2.09392 0.141743,-0.74829 0.25894,-1.5481 0.355005,-2.40282 0.09601,-0.85472 0.171036,-1.76426 0.228259,-2.73223 0.114444,-1.93593 0.158174,-4.10509 0.158174,-6.53476 V 254.9965 c 0,-0.6429 0.0517,-3.71549 0.04502,-4.32241 -7.965129,-15.02393 -36.407859,26.96339 -64.5848162,4.85089 z"
       id="path875"
       inkscape:connector-curvature="0"
       sodipodi:nodetypes="cscccccssccsccsssccccscssccccsssccc" />
    <path
       style="color:#000000;font-style:normal;font-variant:normal;font-weight:normal;font-stretch:normal;font-size:medium;line-height:normal;font-family:sans-serif;font-variant-ligatures:normal;font-variant-position:normal;font-variant-caps:normal;font-variant-numeric:normal;font-variant-alternates:normal;font-feature-settings:normal;text-indent:0;text-align:start;text-decoration:none;text-decoration-line:none;text-decoration-style:solid;text-decoration-color:#000000;letter-spacing:normal;word-spacing:normal;text-transform:none;writing-mode:lr-tb;direction:ltr;text-orientation:mixed;dominant-baseline:auto;baseline-shift:baseline;text-anchor:start;white-space:normal;shape-padding:0;clip-rule:nonzero;display:inline;overflow:visible;visibility:visible;opacity:0.87000002;isolation:auto;mix-blend-mode:normal;color-interpolation:sRGB;color-interpolation-filters:linearRGB;solid-color:#000000;solid-opacity:1;vector-effect:none;fill:#ffffff;fill-opacity:1;fill-rule:nonzero;stroke:none;stroke-width:1.37583327;stroke-linecap:butt;stroke-linejoin:miter;stroke-miterlimit:4;stroke-dasharray:none;stroke-dashoffset:0;stroke-opacity:1;filter:url(#filter887);color-rendering:auto;image-rendering:auto;shape-rendering:auto;text-rendering:auto;enable-background:accumulate"
       d="m 16.187126,239.18027 c -0.810682,1.01861 -1.559808,2.17321 -2.236039,3.44321 -2.652032,4.98063 -4.2617583,11.7794 -4.2617583,19.28306 0,7.50366 1.6097263,14.30448 4.2617583,19.28512 0.799346,1.50121 1.700837,2.84061 2.685624,3.98426 l 1.184424,-0.73174 c -0.958797,-1.08295 -1.851448,-2.38962 -2.655135,-3.89899 -2.515582,-4.72438 -4.101561,-11.33294 -4.101561,-18.63865 0,-7.30571 1.585979,-13.9122 4.101561,-18.63659 0.627082,-1.17769 1.307574,-2.23359 2.031917,-3.15537 -0.266594,-0.24564 -0.622323,-0.57574 -1.010791,-0.93431 z"
       id="path852"
       inkscape:connector-curvature="0" />
    <path
       sodipodi:nodetypes="sssssssss"
       inkscape:connector-curvature="0"
       id="path1068-7"
       d="M 361.9375,-212 C 507.2348,-212 528,-191.28677 528,-46.125 V 70.125 C 528,215.28618 507.2348,236 361.9375,236 H 214.0625 C 68.7652,236 48,215.28618 48,70.125 V -46.125 C 48,-191.28677 68.7652,-212 214.0625,-212 Z"
       style="display:inline;opacity:0.4;fill:none;fill-opacity:1;stroke:url(#linearGradient906);stroke-width:8;stroke-linecap:round;stroke-linejoin:round;stroke-miterlimit:4;stroke-dasharray:none;stroke-dashoffset:0;stroke-opacity:1;enable-background:new"
       clip-path="url(#clipPath1082-3-5)"
       transform="matrix(0.13485389,0,0,0.13485389,-4.9712557,261.01666)" />
    <path
       inkscape:connector-curvature="0"
       id="path1629"
       overflow="visible"
       display="block"
       d="m 47.625,250.69791 c -0.170425,0.0712 -1.517556,-1.98343 -1.697699,-2.02603 -0.180144,-0.0421 -2.302962,1.19477 -2.423832,1.05399 -0.120401,-0.13984 1.417066,-2.05612 1.401785,-2.24044 -0.01523,-0.18432 -1.847742,-1.82134 -1.751419,-1.97973 0.09632,-0.15788 2.393728,0.7127 2.564146,0.64091 0.17088,-0.0712 1.16144,-2.32008 1.341582,-2.27749 0.180144,0.0425 0.06205,2.497 0.182922,2.63686 0.120401,0.14037 2.565536,0.38762 2.580357,0.57192 0.01523,0.18477 -2.355293,0.83079 -2.451154,0.9887 -0.09586,0.1584 0.424193,2.55953 0.253312,2.63131 z"
       style="color:#000000;display:block;overflow:visible;isolation:auto;mix-blend-mode:normal;fill:#0b0000;stroke-width:0.17227067;marker:none;enable-background:accumulate;fill-opacity:1;filter:url(#filter1739);opacity:0.3" />
    <path
       style="color:#000000;display:block;overflow:visible;isolation:auto;mix-blend-mode:normal;fill:#a33440;stroke-width:0.17227067;marker:none;enable-background:accumulate;fill-opacity:1"
       d="m 47.625,250.69791 c -0.170425,0.0712 -1.517556,-1.98343 -1.697699,-2.02603 -0.180144,-0.0421 -2.302962,1.19477 -2.423832,1.05399 -0.120401,-0.13984 1.417066,-2.05612 1.401785,-2.24044 -0.01523,-0.18432 -1.847742,-1.82134 -1.751419,-1.97973 0.09632,-0.15788 2.393728,0.7127 2.564146,0.64091 0.17088,-0.0712 1.16144,-2.32008 1.341582,-2.27749 0.180144,0.0425 0.06205,2.497 0.182922,2.63686 0.120401,0.14037 2.565536,0.38762 2.580357,0.57192 0.01523,0.18477 -2.355293,0.83079 -2.451154,0.9887 -0.09586,0.1584 0.424193,2.55953 0.253312,2.63131 z"
       display="block"
       overflow="visible"
       id="path916"
       inkscape:connector-curvature="0" />
    <path
       inkscape:connector-curvature="0"
       id="path1631"
       overflow="visible"
       display="block"
       style="color:#000000;display:block;overflow:visible;isolation:auto;mix-blend-mode:normal;fill:#0b0000;stroke-width:0.51588583;marker:none;enable-background:accumulate;fill-opacity:1;filter:url(#filter1743);opacity:0.3"
       d="m 19.84375,257.31249 c -0.306567,0.30703 -5.054662,-2.95452 -5.483022,-2.88692 -0.428362,0.068 -3.936294,4.63695 -4.322513,4.44013 -0.38622,-0.19682 1.2485,-5.72012 1.051222,-6.10682 -0.196815,-0.38668 -5.626121,-2.31083 -5.558045,-2.73871 0.06761,-0.42884 5.825713,-0.58072 6.132743,-0.8873 0.306568,-0.30657 0.458462,-6.06512 0.887288,-6.13274 0.42836,-0.0681 2.352513,5.36123 2.738732,5.55851 0.38622,0.19681 5.909532,-1.43791 6.106811,-1.05122 0.196815,0.38622 -4.372527,3.89367 -4.440138,4.32204 -0.06808,0.42836 3.193492,5.17647 2.886922,5.48303 z" />
    <path
       d="m 19.84375,257.31249 c -0.306567,0.30703 -5.054662,-2.95452 -5.483022,-2.88692 -0.428362,0.068 -3.936294,4.63695 -4.322513,4.44013 -0.38622,-0.19682 1.2485,-5.72012 1.051222,-6.10682 -0.196815,-0.38668 -5.626121,-2.31083 -5.558045,-2.73871 0.06761,-0.42884 5.825713,-0.58072 6.132743,-0.8873 0.306568,-0.30657 0.458462,-6.06512 0.887288,-6.13274 0.42836,-0.0681 2.352513,5.36123 2.738732,5.55851 0.38622,0.19681 5.909532,-1.43791 6.106811,-1.05122 0.196815,0.38622 -4.372527,3.89367 -4.440138,4.32204 -0.06808,0.42836 3.193492,5.17647 2.886922,5.48303 z"
       style="color:#000000;display:block;overflow:visible;isolation:auto;mix-blend-mode:normal;fill:#a33440;stroke-width:0.51588583;marker:none;enable-background:accumulate;fill-opacity:1"
       display="block"
       overflow="visible"
       id="path920"
       inkscape:connector-curvature="0" />
    <path
       inkscape:connector-curvature="0"
       id="path1633"
       overflow="visible"
       display="block"
       style="color:#000000;display:block;overflow:visible;isolation:auto;mix-blend-mode:normal;fill:#0b0000;stroke-width:0.17227067;marker:none;enable-background:accumulate;fill-opacity:1;filter:url(#filter1747);opacity:0.3"
       d="m 35.71875,257.31249 c -0.166712,0.17222 -2.815607,-1.58192 -3.051784,-1.54071 -0.235252,0.0417 -2.126988,2.5947 -2.341862,2.49006 -0.21534,-0.10517 0.634438,-3.1671 0.52237,-3.37827 -0.112524,-0.21163 -3.125417,-1.22118 -3.092075,-1.45874 0.03334,-0.23619 3.208311,-0.37512 3.374562,-0.54646 0.166241,-0.17221 0.195425,-3.35002 0.431139,-3.39124 0.236177,-0.0417 1.348064,2.93509 1.563402,3.03976 0.214875,0.10518 3.246284,-0.84885 3.358352,-0.63723 0.112067,0.21118 -2.374743,2.18905 -2.408084,2.42569 -0.03382,0.23712 1.81023,2.82488 1.64398,2.99714 z" />
    <path
       d="m 35.71875,257.31249 c -0.166712,0.17222 -2.815607,-1.58192 -3.051784,-1.54071 -0.235252,0.0417 -2.126988,2.5947 -2.341862,2.49006 -0.21534,-0.10517 0.634438,-3.1671 0.52237,-3.37827 -0.112524,-0.21163 -3.125417,-1.22118 -3.092075,-1.45874 0.03334,-0.23619 3.208311,-0.37512 3.374562,-0.54646 0.166241,-0.17221 0.195425,-3.35002 0.431139,-3.39124 0.236177,-0.0417 1.348064,2.93509 1.563402,3.03976 0.214875,0.10518 3.246284,-0.84885 3.358352,-0.63723 0.112067,0.21118 -2.374743,2.18905 -2.408084,2.42569 -0.03382,0.23712 1.81023,2.82488 1.64398,2.99714 z"
       style="color:#000000;display:block;overflow:visible;isolation:auto;mix-blend-mode:normal;fill:#a33440;stroke-width:0.17227067;marker:none;enable-background:accumulate;fill-opacity:1"
       display="block"
       overflow="visible"
       id="path924"
       inkscape:connector-curvature="0" />
  </g>
</svg>
