<svg xmlns="http://www.w3.org/2000/svg" style="isolation:isolate" width="256" height="256"><defs><filter id="a" width="270.648" height="254.338" x="-7.32" y="2.95" filterUnits="userSpaceOnUse"><feGaussianBlur xmlns="http://www.w3.org/2000/svg" in="SourceGraphic" stdDeviation="4.294"/><feOffset xmlns="http://www.w3.org/2000/svg" dy="4" result="pf_100_offsetBlur"/><feFlood xmlns="http://www.w3.org/2000/svg" flood-opacity=".4"/><feComposite xmlns="http://www.w3.org/2000/svg" in2="pf_100_offsetBlur" operator="in" result="pf_100_dropShadow"/><feBlend xmlns="http://www.w3.org/2000/svg" in="SourceGraphic" in2="pf_100_dropShadow"/></filter></defs><path fill="#4D4D4D" d="M165.689 11.95c74.056 0 84.639 10.557 84.639 84.544v59.251c0 73.986-10.583 84.543-84.639 84.543h-75.37c-74.055 0-84.639-10.557-84.639-84.543V96.494c0-73.987 10.584-84.544 84.639-84.544h75.37z" filter="url(#a)"/><g opacity=".4"><linearGradient id="b" x1=".517" x2=".517" y2="1"><stop offset="0%" stop-color="#fff"/><stop offset="12.5%" stop-opacity=".098" stop-color="#fff"/><stop offset="92.5%" stop-opacity=".098"/><stop offset="100%" stop-opacity=".498"/></linearGradient><path fill="none" stroke="url(#b)" stroke-linecap="round" stroke-linejoin="round" stroke-width="4.077" d="M165.685 11.947c74.055 0 84.639 10.557 84.639 84.544v59.251c0 73.986-10.584 84.543-84.639 84.543h-75.37c-74.055 0-84.639-10.557-84.639-84.543V96.491c0-73.987 10.584-84.544 84.639-84.544h75.37z" vector-effect="non-scaling-stroke"/></g><path fill="#FB7C38" fill-rule="evenodd" d="M210.165 165.665c2.402-1.086 4.689-3.362 6.976-6.553-46.661.732-117.465.732-179.897.618.172.366.366.72.549 1.086h12.729c65.28-.114 124.533-.114 159.643 4.861"/><path fill="#FFF" fill-rule="evenodd" d="M46.382 149.082v-7.445h.961l3.065 4.369 3.053-4.369h.961v7.445h-1.167v-5.352l-2.859 4.151-2.848-4.151v5.352h-1.166zm17.12 0v-7.445h6.988v1.086h-5.821v1.865H68.5v1.063h-3.831v2.368h6.153v1.063h-7.32zm15.508-7.434v7.434h3.328c1.236 0 2.208-.331 2.94-.995.732-.675 1.109-1.578 1.109-2.699 0-1.109-.366-2.013-1.109-2.71-.755-.698-1.727-1.03-2.94-1.03H79.01zm1.178 1.064h2.15c.835 0 1.533.24 2.048.743.526.492.812 1.121.812 1.91 0 .812-.264 1.476-.778 1.944-.503.481-1.201.721-2.082.721h-2.15v-5.318zm14.57 6.37v-7.468h1.19v7.468h-1.19zm12.649-7.434l-3.808 7.434h1.235l.972-1.887h3.946l.972 1.887h1.224l-3.797-7.434h-.744zm.378 1.716l1.452 2.825h-2.916l1.464-2.825zm25.641 3.9c-.458.674-.915 1.178-1.716 1.532-.686.355-1.372.526-2.287.526-1.373 0-2.402-.366-3.203-1.109-.914-.743-1.258-1.681-1.258-2.825 0-1.143.344-2.081 1.258-2.836.801-.744 1.83-1.121 3.203-1.121.8 0 1.486.16 2.173.469.686.297 1.258.732 1.601 1.281l-.915.652c-.229-.423-.686-.755-1.144-.984a4.6 4.6 0 0 0-1.715-.343c-.915 0-1.716.274-2.402.824-.572.537-.915 1.223-.915 2.035 0 .824.343 1.51.915 2.047.686.549 1.487.824 2.402.824.686 0 1.258-.126 1.715-.389a3.226 3.226 0 0 0 1.373-1.224l.915.641zm8.463 1.818v-7.445h6.976v1.086h-5.833v1.865h3.889v1.063h-3.889v2.368h6.176v1.063h-7.319zm15.553 0v-7.445h.572l4.803 5.238v-5.238h1.144v7.445h-.686l-4.689-5.215v5.215h-1.144zm17.384 0v-6.416h-3.202v-1.029h7.433v1.029h-3.087v6.416h-1.144zm11.894 0v-7.445h6.976v1.086h-5.718v1.865h3.774v1.063h-3.774v2.368h6.061v1.063h-7.319zm15.554-7.434v7.434h1.143v-3.259h3.317l2.058 3.259h1.258l-2.058-3.259c.572-.114 1.029-.332 1.372-.721.343-.377.458-.835.458-1.361 0-.652-.229-1.189-.686-1.555-.344-.366-.915-.538-1.716-.538h-5.146zm1.143 1.087h4.003c.343 0 .686.114.915.263.229.16.343.412.343.732 0 .332-.114.572-.343.743-.229.183-.572.263-.915.263h-4.003v-2.001z"/><path fill="#A6D74F" d="M93.398 90.323l-1.345 9.269h-8.116c-4.931 0-9.497 1.747-13.696 5.233a24.763 24.763 0 0 0-2.974 2.882 14.565 14.565 0 0 0-1.857-2.882c-2.873-3.486-6.798-5.233-11.729-5.233H43.196c-.375 1.958 0 3.623 1.107 5.004 1.116 1.382 2.644 2.086 4.611 2.086h3.431c2.937 0 5.233 1.052 6.889 3.175 1.656 2.123 2.214 4.666 1.656 7.603-.558 2.946-2.058 5.453-4.519 7.548-2.462 2.086-5.188 3.148-8.116 3.148h-3.431c-1.967 0-3.76.677-5.407 2.058-1.647 1.382-2.662 3.038-3.028 5.005H46.91c4.932 0 9.47-1.72 13.669-5.179a24.064 24.064 0 0 0 2.965-2.891 14.168 14.168 0 0 0 1.893 2.891c2.873 3.459 6.762 5.179 11.693 5.179h10.522c.375-1.967 0-3.623-1.116-5.005-1.117-1.381-2.672-2.058-4.63-2.058h-3.403c-2.946 0-5.252-1.062-6.917-3.148-1.675-2.095-2.233-4.602-1.665-7.548.558-2.937 2.076-5.48 4.547-7.603 2.47-2.123 5.187-3.175 8.124-3.175h3.431c1.912 0 3.669-.686 5.289-2.003l-1.858 12.699c-.741 5.014.43 9.259 3.541 12.772 3.038 3.568 7.127 5.325 12.068 5.325 5.032 0 9.607-1.757 13.724-5.325 4.117-3.513 6.587-7.758 7.319-12.772.732-5.023-.457-9.268-3.477-12.782-3.11-3.486-7.228-5.261-12.26-5.261H99.665l.183-1.399c.366-2.068-.092-3.88-1.464-5.38-1.19-1.501-2.9-2.233-4.986-2.233zm5.169 16.213h10.796c2.928 0 5.307 1.025 7.136 3.147 1.647 2.114 2.288 4.721 1.922 7.695-.458 2.973-1.83 5.517-4.209 7.658-2.379 2.159-5.032 3.257-8.051 3.257-3.02 0-5.398-1.098-7.137-3.257-1.738-2.141-2.378-4.685-2.012-7.658l1.555-10.842z"/><path fill="#F7F7F7" d="M146.326 99.335c-5.032 0-9.607 1.766-13.632 5.289-4.118 3.577-6.588 7.813-7.32 12.836l-2.653 18.015c2.104 0 4.026-.705 5.672-2.205 1.739-1.473 2.745-3.257 3.02-5.371l1.555-10.439c.458-3.001 1.83-5.572 4.209-7.749 2.379-2.123 5.123-3.175 8.051-3.175 3.019 0 5.398 1.052 7.136 3.175 1.739 2.177 2.379 4.748 1.922 7.749l-1.464 10.439c-.366 2.077.183 3.816 1.464 5.316 1.281 1.491 2.928 2.26 5.032 2.26l2.653-18.015c.366-3.001 1.83-5.572 4.209-7.749 2.379-2.123 5.032-3.175 8.051-3.175 2.928 0 5.307 1.052 7.045 3.175 1.738 2.177 2.47 4.748 2.013 7.749l-1.555 10.439c-.275 2.077.183 3.816 1.463 5.316 1.281 1.491 2.928 2.26 5.033 2.26l1.28-8.436c.549 1.107 1.19 2.16 2.105 3.148 3.11 3.522 7.136 5.288 12.077 5.288h10.704c.275-1.985-.183-3.687-1.372-5.096-1.189-1.391-2.836-2.086-4.758-2.086h-3.476c-3.02 0-5.398-1.08-7.137-3.202-1.83-2.114-2.47-4.657-2.104-7.631.457-3.001 1.921-5.572 4.3-7.749 2.379-2.123 5.124-3.175 8.051-3.175h3.477c2.013 0 3.843-.741 5.49-2.141 1.555-1.4 2.47-3.056 2.744-5.06h-10.613c-5.032 0-9.515 1.766-13.632 5.289-2.013 1.756-3.66 3.678-4.849 5.773-.549-2.104-1.647-4.035-3.111-5.773-3.111-3.523-7.136-5.289-12.168-5.289-2.745 0-5.49.65-8.235 1.913-2.745 1.262-5.215 2.955-7.228 5.178a15.938 15.938 0 0 0-5.672-5.233c-2.379-1.226-4.941-1.858-7.777-1.858z"/></svg>