<?xml version="1.0" encoding="UTF-8" standalone="no"?>
<svg
   xmlns:dc="http://purl.org/dc/elements/1.1/"
   xmlns:cc="http://creativecommons.org/ns#"
   xmlns:rdf="http://www.w3.org/1999/02/22-rdf-syntax-ns#"
   xmlns:svg="http://www.w3.org/2000/svg"
   xmlns="http://www.w3.org/2000/svg"
   xmlns:xlink="http://www.w3.org/1999/xlink"
   xmlns:sodipodi="http://sodipodi.sourceforge.net/DTD/sodipodi-0.dtd"
   xmlns:inkscape="http://www.inkscape.org/namespaces/inkscape"
   viewBox="0 0 256 256"
   version="1.1"
   id="svg16"
   sodipodi:docname="11.svg"
   width="256"
   height="256"
   inkscape:version="0.92.3 (2405546, 2018-03-11)">
  <metadata
     id="metadata20">
    <rdf:RDF>
      <cc:Work
         rdf:about="">
        <dc:format>image/svg+xml</dc:format>
        <dc:type
           rdf:resource="http://purl.org/dc/dcmitype/StillImage" />
        <dc:title></dc:title>
      </cc:Work>
    </rdf:RDF>
  </metadata>
  <sodipodi:namedview
     pagecolor="#ffffff"
     bordercolor="#666666"
     borderopacity="1"
     objecttolerance="10"
     gridtolerance="10"
     guidetolerance="10"
     inkscape:pageopacity="0"
     inkscape:pageshadow="2"
     inkscape:window-width="1920"
     inkscape:window-height="1009"
     id="namedview18"
     showgrid="false"
     inkscape:zoom="3.2421875"
     inkscape:cx="130.96172"
     inkscape:cy="128"
     inkscape:window-x="0"
     inkscape:window-y="34"
     inkscape:window-maximized="1"
     inkscape:current-layer="g873" />
  <defs
     id="defs3">
    <path
       id="a"
       d="M 44.5,20 H 24 v 8.5 H 35.8 C 34.7,33.9 30.1,37 24,37 16.8,37 11,31.2 11,24 c 0,-7.2 5.8,-13 13,-13 3.1,0 5.9,1.1 8.1,2.9 L 38.5,7.5 C 34.6,4.1 29.6,2 24,2 11.8,2 2,11.8 2,24 c 0,12.2 9.8,22 22,22 11,0 21,-8 21,-22 0,-1.3 -0.2,-2.7 -0.5,-4 z"
       inkscape:connector-curvature="0" />
    <linearGradient
       inkscape:collect="always"
       xlink:href="#linearGradient1013"
       id="linearGradient1108"
       x1="296"
       y1="-212"
       x2="296"
       y2="236"
       gradientUnits="userSpaceOnUse" />
    <linearGradient
       id="linearGradient1013"
       inkscape:collect="always">
      <stop
         id="stop1005"
         offset="0"
         style="stop-color:#ffffff;stop-opacity:1;" />
      <stop
         style="stop-color:#ffffff;stop-opacity:0.09803922"
         offset="0.125"
         id="stop1007" />
      <stop
         style="stop-color:#000000;stop-opacity:0.09803922"
         offset="0.92500001"
         id="stop1009" />
      <stop
         id="stop1011"
         offset="1"
         style="stop-color:#000000;stop-opacity:0.49803922" />
    </linearGradient>
    <clipPath
       clipPathUnits="userSpaceOnUse"
       id="clipPath1082-3-361">
      <path
         sodipodi:nodetypes="sssssssss"
         inkscape:connector-curvature="0"
         id="path1084-6-29"
         d="M 361.9375,-212 C 507.2348,-212 528,-191.28677 528,-46.125 V 70.125 C 528,215.28618 507.2348,236 361.9375,236 H 214.0625 C 68.7652,236 48,215.28618 48,70.125 V -46.125 C 48,-191.28677 68.7652,-212 214.0625,-212 Z"
         style="display:inline;opacity:1;fill:#8c59d9;fill-opacity:1;stroke:none;stroke-width:2;stroke-linecap:round;stroke-linejoin:round;stroke-miterlimit:4;stroke-dasharray:none;stroke-dashoffset:0;stroke-opacity:1;enable-background:new" />
    </clipPath>
    <linearGradient
       gradientTransform="matrix(1.0193681,0,0,1.0193681,-26.943941,-32.905179)"
       inkscape:collect="always"
       xlink:href="#linearGradient4245"
       id="linearGradient1044"
       x1="88"
       y1="28"
       x2="256"
       y2="284"
       gradientUnits="userSpaceOnUse" />
    <linearGradient
       id="linearGradient4245"
       inkscape:collect="always">
      <stop
         id="stop4241"
         offset="0"
         style="stop-color:#e8e8e8;stop-opacity:1" />
      <stop
         id="stop4243"
         offset="1"
         style="stop-color:#f5f5f5;stop-opacity:1" />
    </linearGradient>
    <filter
       inkscape:collect="always"
       style="color-interpolation-filters:sRGB"
       id="filter4569"
       x="-0.0116"
       width="1.0232"
       y="-0.012428571"
       height="1.024857">
      <feGaussianBlur
         inkscape:collect="always"
         stdDeviation="1.16"
         id="feGaussianBlur4571" />
    </filter>
    <filter
       inkscape:collect="always"
       style="color-interpolation-filters:sRGB"
       id="filter939"
       x="-0.0232"
       width="1.0464"
       y="-0.024857143"
       height="1.0497143">
      <feGaussianBlur
         inkscape:collect="always"
         stdDeviation="2.32"
         id="feGaussianBlur941" />
    </filter>
    <filter
       inkscape:collect="always"
       style="color-interpolation-filters:sRGB"
       id="filter941"
       x="-0.048463674"
       width="1.0969273"
       y="-0.047545114"
       height="1.0950902">
      <feGaussianBlur
         inkscape:collect="always"
         stdDeviation="2.773465"
         id="feGaussianBlur943" />
    </filter>
  </defs>
  <clipPath
     id="b">
    <use
       xlink:href="#a"
       overflow="visible"
       id="use5"
       style="overflow:visible"
       x="0"
       y="0"
       width="100%"
       height="100%" />
  </clipPath>
  <path
     style="display:inline;opacity:0.2;fill:#000000;fill-opacity:1;stroke:none;stroke-width:2;stroke-linecap:round;stroke-linejoin:round;stroke-miterlimit:4;stroke-dasharray:none;stroke-dashoffset:0;stroke-opacity:1;filter:url(#filter939);enable-background:new"
     d="m 162.53675,5.5680001 c 72.64865,0 83.03125,10.3566149 83.03125,82.9375049 v 58.125005 c 0,72.58059 -10.3826,82.9375 -83.03125,82.9375 H 88.599254 C 15.9506,229.56801 5.568,219.2111 5.568,146.63051 V 88.505505 c 0,-72.58089 10.3826,-82.9375049 83.031254,-82.9375049 z"
     id="path937"
     inkscape:connector-curvature="0"
     sodipodi:nodetypes="sssssssss"
     transform="matrix(1.019368,0,0,1.019368,-7.2181772e-8,8.3098661)" />
  <path
     sodipodi:nodetypes="sssssssss"
     inkscape:connector-curvature="0"
     id="path4558"
     d="m 165.68477,11.946967 c 74.05571,0 84.6394,10.557203 84.6394,84.543835 v 59.250778 c 0,73.98633 -10.58369,84.54383 -84.6394,84.54383 H 90.315249 c -74.055717,0 -84.6394076,-10.5575 -84.6394076,-84.54383 V 96.490802 c 0,-73.986632 10.5836906,-84.543835 84.6394076,-84.543835 z"
     style="display:inline;opacity:0.1;fill:none;fill-opacity:1;stroke:#000000;stroke-width:4.07747173;stroke-linecap:round;stroke-linejoin:round;stroke-miterlimit:4;stroke-dasharray:none;stroke-dashoffset:0;stroke-opacity:1;enable-background:new" />
  <path
     sodipodi:nodetypes="sssssssss"
     inkscape:connector-curvature="0"
     id="path4567"
     d="m 162.53675,3.5680001 c 72.64865,0 83.03125,10.3566149 83.03125,82.9375049 v 58.125005 c 0,72.58059 -10.3826,82.9375 -83.03125,82.9375 H 88.599254 C 15.9506,227.56801 5.568,217.2111 5.568,144.63051 V 86.505505 c 0,-72.58089 10.3826,-82.9375049 83.031254,-82.9375049 z"
     style="display:inline;opacity:0.1;fill:#000000;fill-opacity:1;stroke:none;stroke-width:2;stroke-linecap:round;stroke-linejoin:round;stroke-miterlimit:4;stroke-dasharray:none;stroke-dashoffset:0;stroke-opacity:1;filter:url(#filter4569);enable-background:new"
     transform="matrix(1.019368,0,0,1.019368,-7.2181772e-8,8.3098661)" />
  <path
     style="display:inline;opacity:1;fill:url(#linearGradient1044);fill-opacity:1;stroke:none;stroke-width:2.03873587;stroke-linecap:round;stroke-linejoin:round;stroke-miterlimit:4;stroke-dasharray:none;stroke-dashoffset:0;stroke-opacity:1;enable-background:new"
     d="m 165.68476,11.946967 c 74.05571,0 84.6394,10.557203 84.6394,84.543835 v 59.250778 c 0,73.98633 -10.58369,84.54383 -84.6394,84.54383 H 90.315238 c -74.055712,0 -84.6394026,-10.5575 -84.6394026,-84.54383 V 96.490802 c 0,-73.986632 10.5836906,-84.543835 84.6394026,-84.543835 z"
     id="rect877"
     inkscape:connector-curvature="0"
     sodipodi:nodetypes="sssssssss" />
  <path
     sodipodi:nodetypes="sssssssss"
     inkscape:connector-curvature="0"
     id="path1068"
     d="M 361.9375,-212 C 507.2348,-212 528,-191.28677 528,-46.125 V 70.125 C 528,215.28618 507.2348,236 361.9375,236 H 214.0625 C 68.7652,236 48,215.28618 48,70.125 V -46.125 C 48,-191.28677 68.7652,-212 214.0625,-212 Z"
     style="display:inline;opacity:0.4;fill:none;fill-opacity:1;stroke:url(#linearGradient1108);stroke-width:8;stroke-linecap:round;stroke-linejoin:round;stroke-miterlimit:4;stroke-dasharray:none;stroke-dashoffset:0;stroke-opacity:1;enable-background:new"
     clip-path="url(#clipPath1082-3-361)"
     transform="matrix(0.50968403,0,0,0.50968403,-18.788999,120)" />
  <g
     transform="matrix(2.372035,0,0,2.372035,-20.736914,115.42106)"
     id="g983" />
  <path
     style="display:inline;opacity:0.2;fill:#ffffff;fill-opacity:1;stroke:none;stroke-width:2.02584362;stroke-linecap:round;stroke-linejoin:round;stroke-miterlimit:4;stroke-dasharray:none;stroke-dashoffset:0;stroke-opacity:1;enable-background:new"
     d="M 129.23374,11.638533 V 239.97698 h 37.20966 c 73.12207,0 83.57233,-10.5575 83.57233,-84.54383 V 96.182368 c 0,-73.986632 -10.45026,-84.543835 -83.57233,-84.543835 z"
     id="path1099"
     inkscape:connector-curvature="0" />
  <path
     style="display:inline;opacity:0.25;fill:#ffffff;fill-opacity:1;stroke:none;stroke-width:2.03873587;stroke-linecap:round;stroke-linejoin:round;stroke-miterlimit:4;stroke-dasharray:none;stroke-dashoffset:0;stroke-opacity:1;enable-background:new"
     d="m 90.315238,240.28541 c -74.055712,0 -84.6394026,-10.5572 -84.6394026,-84.54383 V 126.11621 H 250.32416 v 29.62537 c 0,73.98663 -10.58369,84.54383 -84.6394,84.54383 z"
     id="path1107"
     inkscape:connector-curvature="0" />
  <g
     id="g873"
     transform="translate(0,0.25160164)">
    <g
       transform="translate(-6.1161003,1.8037866)"
       id="g923"
       style="fill:#1e1d20;fill-opacity:1;filter:url(#filter941);opacity:0.3">
      <path
         transform="matrix(0.96378987,0.62997498,-0.62997498,0.96378987,85.17891,-73.167589)"
         inkscape:transform-center-y="-3.5273409"
         inkscape:transform-center-x="2.3239071"
         d="m 149.28193,137.25302 -15.91022,-6.06088 -7.29467,15.38367 -5.18127,-16.21801 -16.57559,3.88836 9.44928,-14.16264 -13.37475,-10.53496 16.96433,-1.44253 -0.10246,-17.025238 11.7049,12.363848 13.24699,-10.695169 -2.36856,16.859989 16.62118,3.68859 -14.65844,8.66021 z"
         inkscape:randomized="0"
         inkscape:rounded="0"
         inkscape:flatsided="false"
         sodipodi:arg2="1.1887738"
         sodipodi:arg1="0.73997488"
         sodipodi:r2="14.409171"
         sodipodi:r1="28.818342"
         sodipodi:cy="117.82169"
         sodipodi:cx="128"
         sodipodi:sides="7"
         id="path907"
         style="opacity:1;fill:#1e1d20;fill-opacity:1;stroke:none;stroke-width:1;stroke-linecap:butt;stroke-linejoin:round;stroke-miterlimit:4;stroke-dasharray:none;stroke-opacity:1"
         sodipodi:type="star" />
      <path
         sodipodi:type="star"
         style="opacity:1;fill:#1e1d20;fill-opacity:1;stroke:none;stroke-width:1;stroke-linecap:butt;stroke-linejoin:round;stroke-miterlimit:4;stroke-dasharray:none;stroke-opacity:1"
         id="path909"
         sodipodi:sides="7"
         sodipodi:cx="128"
         sodipodi:cy="117.82169"
         sodipodi:r1="28.818342"
         sodipodi:r2="14.409171"
         sodipodi:arg1="0.73997488"
         sodipodi:arg2="1.1887738"
         inkscape:flatsided="false"
         inkscape:rounded="0"
         inkscape:randomized="0"
         d="m 149.28193,137.25302 -15.91022,-6.06088 -7.29467,15.38367 -5.18127,-16.21801 -16.57559,3.88836 9.44928,-14.16264 -13.37475,-10.53496 16.96433,-1.44253 -0.10246,-17.025238 11.7049,12.363848 13.24699,-10.695169 -2.36856,16.859989 16.62118,3.68859 -14.65844,8.66021 z"
         inkscape:transform-center-x="1.5492758"
         inkscape:transform-center-y="-2.3515596"
         transform="matrix(0.64252658,0.41998332,-0.41998332,0.64252658,130.06631,-45.26825)" />
      <path
         transform="matrix(0.64252658,0.41998332,-0.41998332,0.64252658,132.20264,32.425888)"
         inkscape:transform-center-y="-2.3515597"
         inkscape:transform-center-x="1.5492742"
         d="m 149.28193,137.25302 -15.91022,-6.06088 -7.29467,15.38367 -5.18127,-16.21801 -16.57559,3.88836 9.44928,-14.16264 -13.37475,-10.53496 16.96433,-1.44253 -0.10246,-17.025238 11.7049,12.363848 13.24699,-10.695169 -2.36856,16.859989 16.62118,3.68859 -14.65844,8.66021 z"
         inkscape:randomized="0"
         inkscape:rounded="0"
         inkscape:flatsided="false"
         sodipodi:arg2="1.1887738"
         sodipodi:arg1="0.73997488"
         sodipodi:r2="14.409171"
         sodipodi:r1="28.818342"
         sodipodi:cy="117.82169"
         sodipodi:cx="128"
         sodipodi:sides="7"
         id="path911"
         style="opacity:1;fill:#1e1d20;fill-opacity:1;stroke:none;stroke-width:1;stroke-linecap:butt;stroke-linejoin:round;stroke-miterlimit:4;stroke-dasharray:none;stroke-opacity:1"
         sodipodi:type="star" />
      <path
         sodipodi:type="star"
         style="opacity:1;fill:#1e1d20;fill-opacity:1;stroke:none;stroke-width:1;stroke-linecap:butt;stroke-linejoin:round;stroke-miterlimit:4;stroke-dasharray:none;stroke-opacity:1"
         id="path913"
         sodipodi:sides="7"
         sodipodi:cx="128"
         sodipodi:cy="117.82169"
         sodipodi:r1="28.818342"
         sodipodi:r2="14.409171"
         sodipodi:arg1="0.73997488"
         sodipodi:arg2="1.1887738"
         inkscape:flatsided="false"
         inkscape:rounded="0"
         inkscape:randomized="0"
         d="m 149.28193,137.25302 -15.91022,-6.06088 -7.29467,15.38367 -5.18127,-16.21801 -16.57559,3.88836 9.44928,-14.16264 -13.37475,-10.53496 16.96433,-1.44253 -0.10246,-17.025238 11.7049,12.363848 13.24699,-10.695169 -2.36856,16.859989 16.62118,3.68859 -14.65844,8.66021 z"
         inkscape:transform-center-x="1.549276"
         inkscape:transform-center-y="-2.3515603"
         transform="matrix(0.64252658,0.41998332,-0.41998332,0.64252658,55.981077,17.220078)" />
      <path
         transform="matrix(0.64252658,0.41998332,-0.41998332,0.64252658,87.766535,-53.706838)"
         inkscape:transform-center-y="-2.3515601"
         inkscape:transform-center-x="1.5492758"
         d="m 149.28193,137.25302 -15.91022,-6.06088 -7.29467,15.38367 -5.18127,-16.21801 -16.57559,3.88836 9.44928,-14.16264 -13.37475,-10.53496 16.96433,-1.44253 -0.10246,-17.025238 11.7049,12.363848 13.24699,-10.695169 -2.36856,16.859989 16.62118,3.68859 -14.65844,8.66021 z"
         inkscape:randomized="0"
         inkscape:rounded="0"
         inkscape:flatsided="false"
         sodipodi:arg2="1.1887738"
         sodipodi:arg1="0.73997488"
         sodipodi:r2="14.409171"
         sodipodi:r1="28.818342"
         sodipodi:cy="117.82169"
         sodipodi:cx="128"
         sodipodi:sides="7"
         id="path915"
         style="opacity:1;fill:#1e1d20;fill-opacity:1;stroke:none;stroke-width:1;stroke-linecap:butt;stroke-linejoin:round;stroke-miterlimit:4;stroke-dasharray:none;stroke-opacity:1"
         sodipodi:type="star" />
      <path
         sodipodi:type="star"
         style="opacity:1;fill:#1e1d20;fill-opacity:1;stroke:none;stroke-width:1;stroke-linecap:butt;stroke-linejoin:round;stroke-miterlimit:4;stroke-dasharray:none;stroke-opacity:1"
         id="path917"
         sodipodi:sides="7"
         sodipodi:cx="128"
         sodipodi:cy="117.82169"
         sodipodi:r1="28.818342"
         sodipodi:r2="14.409171"
         sodipodi:arg1="0.73997488"
         sodipodi:arg2="1.1887738"
         inkscape:flatsided="false"
         inkscape:rounded="0"
         inkscape:randomized="0"
         d="m 149.28193,137.25302 -15.91022,-6.06088 -7.29467,15.38367 -5.18127,-16.21801 -16.57559,3.88836 9.44928,-14.16264 -13.37475,-10.53496 16.96433,-1.44253 -0.10246,-17.025238 11.7049,12.363848 13.24699,-10.695169 -2.36856,16.859989 16.62118,3.68859 -14.65844,8.66021 z"
         inkscape:transform-center-x="1.5492808"
         inkscape:transform-center-y="-2.35156"
         transform="matrix(0.64252658,0.41998332,-0.41998332,0.64252658,149.84223,-6.935581)" />
      <path
         sodipodi:type="star"
         style="opacity:1;fill:#1e1d20;fill-opacity:1;stroke:none;stroke-width:1;stroke-linecap:butt;stroke-linejoin:round;stroke-miterlimit:4;stroke-dasharray:none;stroke-opacity:1"
         id="path919"
         sodipodi:sides="7"
         sodipodi:cx="128"
         sodipodi:cy="117.82169"
         sodipodi:r1="28.818342"
         sodipodi:r2="14.409171"
         sodipodi:arg1="0.73997488"
         sodipodi:arg2="1.1887738"
         inkscape:flatsided="false"
         inkscape:rounded="0"
         inkscape:randomized="0"
         d="m 149.28193,137.25302 -15.91022,-6.06088 -7.29467,15.38367 -5.18127,-16.21801 -16.57559,3.88836 9.44928,-14.16264 -13.37475,-10.53496 16.96433,-1.44253 -0.10246,-17.025238 11.7049,12.363848 13.24699,-10.695169 -2.36856,16.859989 16.62118,3.68859 -14.65844,8.66021 z"
         inkscape:transform-center-x="1.5492763"
         inkscape:transform-center-y="-2.3515601"
         transform="matrix(0.64252658,0.41998332,-0.41998332,0.64252658,90.430491,43.176168)" />
      <path
         transform="matrix(0.64252658,0.41998332,-0.41998332,0.64252658,54.795506,-25.896916)"
         inkscape:transform-center-y="-2.3515603"
         inkscape:transform-center-x="1.5492762"
         d="m 149.28193,137.25302 -15.91022,-6.06088 -7.29467,15.38367 -5.18127,-16.21801 -16.57559,3.88836 9.44928,-14.16264 -13.37475,-10.53496 16.96433,-1.44253 -0.10246,-17.025238 11.7049,12.363848 13.24699,-10.695169 -2.36856,16.859989 16.62118,3.68859 -14.65844,8.66021 z"
         inkscape:randomized="0"
         inkscape:rounded="0"
         inkscape:flatsided="false"
         sodipodi:arg2="1.1887738"
         sodipodi:arg1="0.73997488"
         sodipodi:r2="14.409171"
         sodipodi:r1="28.818342"
         sodipodi:cy="117.82169"
         sodipodi:cx="128"
         sodipodi:sides="7"
         id="path921"
         style="opacity:1;fill:#1e1d20;fill-opacity:1;stroke:none;stroke-width:1;stroke-linecap:butt;stroke-linejoin:round;stroke-miterlimit:4;stroke-dasharray:none;stroke-opacity:1"
         sodipodi:type="star" />
    </g>
    <g
       id="g905"
       transform="translate(-6.1161003,1.8037866)">
      <path
         sodipodi:type="star"
         style="opacity:1;fill:#b623d2;fill-opacity:1;stroke:none;stroke-width:1;stroke-linecap:butt;stroke-linejoin:round;stroke-miterlimit:4;stroke-dasharray:none;stroke-opacity:1"
         id="path849"
         sodipodi:sides="7"
         sodipodi:cx="128"
         sodipodi:cy="117.82169"
         sodipodi:r1="28.818342"
         sodipodi:r2="14.409171"
         sodipodi:arg1="0.73997488"
         sodipodi:arg2="1.1887738"
         inkscape:flatsided="false"
         inkscape:rounded="0"
         inkscape:randomized="0"
         d="m 149.28193,137.25302 -15.91022,-6.06088 -7.29467,15.38367 -5.18127,-16.21801 -16.57559,3.88836 9.44928,-14.16264 -13.37475,-10.53496 16.96433,-1.44253 -0.10246,-17.025238 11.7049,12.363848 13.24699,-10.695169 -2.36856,16.859989 16.62118,3.68859 -14.65844,8.66021 z"
         inkscape:transform-center-x="2.3239071"
         inkscape:transform-center-y="-3.5273409"
         transform="matrix(0.96378987,0.62997498,-0.62997498,0.96378987,85.17891,-73.167589)" />
      <path
         transform="matrix(0.64252658,0.41998332,-0.41998332,0.64252658,130.06631,-45.26825)"
         inkscape:transform-center-y="-2.3515596"
         inkscape:transform-center-x="1.5492758"
         d="m 149.28193,137.25302 -15.91022,-6.06088 -7.29467,15.38367 -5.18127,-16.21801 -16.57559,3.88836 9.44928,-14.16264 -13.37475,-10.53496 16.96433,-1.44253 -0.10246,-17.025238 11.7049,12.363848 13.24699,-10.695169 -2.36856,16.859989 16.62118,3.68859 -14.65844,8.66021 z"
         inkscape:randomized="0"
         inkscape:rounded="0"
         inkscape:flatsided="false"
         sodipodi:arg2="1.1887738"
         sodipodi:arg1="0.73997488"
         sodipodi:r2="14.409171"
         sodipodi:r1="28.818342"
         sodipodi:cy="117.82169"
         sodipodi:cx="128"
         sodipodi:sides="7"
         id="path875"
         style="opacity:1;fill:#3143ad;fill-opacity:1;stroke:none;stroke-width:1;stroke-linecap:butt;stroke-linejoin:round;stroke-miterlimit:4;stroke-dasharray:none;stroke-opacity:1"
         sodipodi:type="star" />
      <path
         sodipodi:type="star"
         style="opacity:1;fill:#3143ad;fill-opacity:1;stroke:none;stroke-width:1;stroke-linecap:butt;stroke-linejoin:round;stroke-miterlimit:4;stroke-dasharray:none;stroke-opacity:1"
         id="path883"
         sodipodi:sides="7"
         sodipodi:cx="128"
         sodipodi:cy="117.82169"
         sodipodi:r1="28.818342"
         sodipodi:r2="14.409171"
         sodipodi:arg1="0.73997488"
         sodipodi:arg2="1.1887738"
         inkscape:flatsided="false"
         inkscape:rounded="0"
         inkscape:randomized="0"
         d="m 149.28193,137.25302 -15.91022,-6.06088 -7.29467,15.38367 -5.18127,-16.21801 -16.57559,3.88836 9.44928,-14.16264 -13.37475,-10.53496 16.96433,-1.44253 -0.10246,-17.025238 11.7049,12.363848 13.24699,-10.695169 -2.36856,16.859989 16.62118,3.68859 -14.65844,8.66021 z"
         inkscape:transform-center-x="1.5492742"
         inkscape:transform-center-y="-2.3515597"
         transform="matrix(0.64252658,0.41998332,-0.41998332,0.64252658,132.20264,32.425888)" />
      <path
         transform="matrix(0.64252658,0.41998332,-0.41998332,0.64252658,55.981077,17.220078)"
         inkscape:transform-center-y="-2.3515603"
         inkscape:transform-center-x="1.549276"
         d="m 149.28193,137.25302 -15.91022,-6.06088 -7.29467,15.38367 -5.18127,-16.21801 -16.57559,3.88836 9.44928,-14.16264 -13.37475,-10.53496 16.96433,-1.44253 -0.10246,-17.025238 11.7049,12.363848 13.24699,-10.695169 -2.36856,16.859989 16.62118,3.68859 -14.65844,8.66021 z"
         inkscape:randomized="0"
         inkscape:rounded="0"
         inkscape:flatsided="false"
         sodipodi:arg2="1.1887738"
         sodipodi:arg1="0.73997488"
         sodipodi:r2="14.409171"
         sodipodi:r1="28.818342"
         sodipodi:cy="117.82169"
         sodipodi:cx="128"
         sodipodi:sides="7"
         id="path885"
         style="opacity:1;fill:#3143ad;fill-opacity:1;stroke:none;stroke-width:1;stroke-linecap:butt;stroke-linejoin:round;stroke-miterlimit:4;stroke-dasharray:none;stroke-opacity:1"
         sodipodi:type="star" />
      <path
         sodipodi:type="star"
         style="opacity:1;fill:#3143ad;fill-opacity:1;stroke:none;stroke-width:1;stroke-linecap:butt;stroke-linejoin:round;stroke-miterlimit:4;stroke-dasharray:none;stroke-opacity:1"
         id="path887"
         sodipodi:sides="7"
         sodipodi:cx="128"
         sodipodi:cy="117.82169"
         sodipodi:r1="28.818342"
         sodipodi:r2="14.409171"
         sodipodi:arg1="0.73997488"
         sodipodi:arg2="1.1887738"
         inkscape:flatsided="false"
         inkscape:rounded="0"
         inkscape:randomized="0"
         d="m 149.28193,137.25302 -15.91022,-6.06088 -7.29467,15.38367 -5.18127,-16.21801 -16.57559,3.88836 9.44928,-14.16264 -13.37475,-10.53496 16.96433,-1.44253 -0.10246,-17.025238 11.7049,12.363848 13.24699,-10.695169 -2.36856,16.859989 16.62118,3.68859 -14.65844,8.66021 z"
         inkscape:transform-center-x="1.5492758"
         inkscape:transform-center-y="-2.3515601"
         transform="matrix(0.64252658,0.41998332,-0.41998332,0.64252658,87.766535,-53.706838)" />
      <path
         transform="matrix(0.64252658,0.41998332,-0.41998332,0.64252658,149.84223,-6.935581)"
         inkscape:transform-center-y="-2.35156"
         inkscape:transform-center-x="1.5492808"
         d="m 149.28193,137.25302 -15.91022,-6.06088 -7.29467,15.38367 -5.18127,-16.21801 -16.57559,3.88836 9.44928,-14.16264 -13.37475,-10.53496 16.96433,-1.44253 -0.10246,-17.025238 11.7049,12.363848 13.24699,-10.695169 -2.36856,16.859989 16.62118,3.68859 -14.65844,8.66021 z"
         inkscape:randomized="0"
         inkscape:rounded="0"
         inkscape:flatsided="false"
         sodipodi:arg2="1.1887738"
         sodipodi:arg1="0.73997488"
         sodipodi:r2="14.409171"
         sodipodi:r1="28.818342"
         sodipodi:cy="117.82169"
         sodipodi:cx="128"
         sodipodi:sides="7"
         id="path889"
         style="opacity:1;fill:#b623d2;fill-opacity:1;stroke:none;stroke-width:1;stroke-linecap:butt;stroke-linejoin:round;stroke-miterlimit:4;stroke-dasharray:none;stroke-opacity:1"
         sodipodi:type="star" />
      <path
         transform="matrix(0.64252658,0.41998332,-0.41998332,0.64252658,90.430491,43.176168)"
         inkscape:transform-center-y="-2.3515601"
         inkscape:transform-center-x="1.5492763"
         d="m 149.28193,137.25302 -15.91022,-6.06088 -7.29467,15.38367 -5.18127,-16.21801 -16.57559,3.88836 9.44928,-14.16264 -13.37475,-10.53496 16.96433,-1.44253 -0.10246,-17.025238 11.7049,12.363848 13.24699,-10.695169 -2.36856,16.859989 16.62118,3.68859 -14.65844,8.66021 z"
         inkscape:randomized="0"
         inkscape:rounded="0"
         inkscape:flatsided="false"
         sodipodi:arg2="1.1887738"
         sodipodi:arg1="0.73997488"
         sodipodi:r2="14.409171"
         sodipodi:r1="28.818342"
         sodipodi:cy="117.82169"
         sodipodi:cx="128"
         sodipodi:sides="7"
         id="path891"
         style="opacity:1;fill:#3143ad;fill-opacity:1;stroke:none;stroke-width:1;stroke-linecap:butt;stroke-linejoin:round;stroke-miterlimit:4;stroke-dasharray:none;stroke-opacity:1"
         sodipodi:type="star" />
      <path
         sodipodi:type="star"
         style="opacity:1;fill:#3143ad;fill-opacity:1;stroke:none;stroke-width:1;stroke-linecap:butt;stroke-linejoin:round;stroke-miterlimit:4;stroke-dasharray:none;stroke-opacity:1"
         id="path893"
         sodipodi:sides="7"
         sodipodi:cx="128"
         sodipodi:cy="117.82169"
         sodipodi:r1="28.818342"
         sodipodi:r2="14.409171"
         sodipodi:arg1="0.73997488"
         sodipodi:arg2="1.1887738"
         inkscape:flatsided="false"
         inkscape:rounded="0"
         inkscape:randomized="0"
         d="m 149.28193,137.25302 -15.91022,-6.06088 -7.29467,15.38367 -5.18127,-16.21801 -16.57559,3.88836 9.44928,-14.16264 -13.37475,-10.53496 16.96433,-1.44253 -0.10246,-17.025238 11.7049,12.363848 13.24699,-10.695169 -2.36856,16.859989 16.62118,3.68859 -14.65844,8.66021 z"
         inkscape:transform-center-x="1.5492762"
         inkscape:transform-center-y="-2.3515603"
         transform="matrix(0.64252658,0.41998332,-0.41998332,0.64252658,54.795506,-25.896916)" />
    </g>
  </g>
</svg>
