<svg xmlns="http://www.w3.org/2000/svg" style="isolation:isolate" width="256" height="256"><defs><filter id="a" width="270.648" height="254.338" x="-7.32" y="2.95" filterUnits="userSpaceOnUse"><feGaussianBlur xmlns="http://www.w3.org/2000/svg" in="SourceGraphic" stdDeviation="4.294"/><feOffset xmlns="http://www.w3.org/2000/svg" dy="4" result="pf_100_offsetBlur"/><feFlood xmlns="http://www.w3.org/2000/svg" flood-opacity=".4"/><feComposite xmlns="http://www.w3.org/2000/svg" in2="pf_100_offsetBlur" operator="in" result="pf_100_dropShadow"/><feBlend xmlns="http://www.w3.org/2000/svg" in="SourceGraphic" in2="pf_100_dropShadow"/></filter></defs><g filter="url(#a)"><linearGradient id="b" x1=".5" x2=".5" y1=".999" y2="-.001" gradientTransform="matrix(244.648 0 0 228.338 5.676 11.947)" gradientUnits="userSpaceOnUse"><stop offset="1.739%" stop-color="#ad4f8d"/><stop offset="100%" stop-color="#6b8ccb"/></linearGradient><path fill="url(#b)" d="M165.685 11.947c74.055 0 84.639 10.557 84.639 84.544v59.251c0 73.986-10.584 84.543-84.639 84.543h-75.37c-74.055 0-84.639-10.557-84.639-84.543V96.491c0-73.987 10.584-84.544 84.639-84.544h75.37z"/></g><g opacity=".4"><linearGradient id="c" x1=".517" x2=".517" y2="1"><stop offset="0%" stop-color="#fff"/><stop offset="12.5%" stop-opacity=".098" stop-color="#fff"/><stop offset="92.5%" stop-opacity=".098"/><stop offset="100%" stop-opacity=".498"/></linearGradient><path fill="none" stroke="url(#c)" stroke-linecap="round" stroke-linejoin="round" stroke-width="4.077" d="M165.685 11.947c74.055 0 84.639 10.557 84.639 84.544v59.251c0 73.986-10.584 84.543-84.639 84.543h-75.37c-74.055 0-84.639-10.557-84.639-84.543V96.491c0-73.987 10.584-84.544 84.639-84.544h75.37z" vector-effect="non-scaling-stroke"/></g><g filter="url(#v4y3DTtvs7mK5xx5yqHoAI4N78tpp3Hy)" fill="#FEFEFE"><path d="M143.03 127.72c1.23.61 2.41 1.35 3.5 2.19 1.48 1.14 2.85 2.41 4.12 3.78a69.42 69.42 0 0 1 4.5 5.34c1.82 2.39 3.58 4.82 5.28 7.3 1.56 2.27 3.15 4.51 4.78 6.72 1.32 1.81 2.7 3.57 4.12 5.3 1.14 1.39 2.35 2.72 3.63 3.99 1.02 1.03 2.12 1.98 3.28 2.85.98.73 2.03 1.36 3.13 1.89 1.04.5 2.13.9 3.25 1.18 1.21.31 2.45.52 3.7.64 1.47.13 2.95.2 4.42.19 1.4-.01 2.8.04 4.2.14 1.09.08 2.19.22 3.26.45.46.09.9.21 1.34.36.42.15.83.33 1.21.56.46.26.86.62 1.19 1.04.44.58.67 1.3.66 2.03-.03.83-.35 1.63-.9 2.26-.41.48-.89.9-1.42 1.24-.44.27-.92.48-1.43.59-.44.11-.89.2-1.35.25-1.08.12-2.17.17-3.26.16-1.5-.01-2.99-.07-4.49-.18-1.6-.12-3.19-.28-4.78-.5a55.62 55.62 0 0 1-4.44-.76c-1.24-.25-2.46-.6-3.63-1.07-1.75-.74-3.41-1.7-4.94-2.83a39.82 39.82 0 0 1-4.95-4.31 71.698 71.698 0 0 1-5.15-5.86c-1.93-2.43-3.76-4.93-5.5-7.5-1.47-2.15-2.98-4.29-4.52-6.39-1.28-1.75-2.6-3.46-3.98-5.13-1.13-1.38-2.31-2.7-3.56-3.97-1.02-1.04-2.1-2.01-3.25-2.91-.96-.76-1.98-1.43-3.05-2.01-.97-.52-1.99-.94-3.04-1.27-1.07-.33-2.17-.57-3.28-.71-1.24-.15-2.49-.22-3.74-.22s-2.5.07-3.75.22c-1.11.14-2.2.38-3.27.71-1.05.33-2.07.75-3.04 1.27-1.07.58-2.1 1.25-3.06 2.01-1.14.9-2.23 1.87-3.24 2.91a55.713 55.713 0 0 0-3.56 3.97 103.39 103.39 0 0 0-3.98 5.13c-1.54 2.1-3.05 4.23-4.52 6.39-1.75 2.59-3.6 5.11-5.53 7.57-1.59 2.02-3.3 3.95-5.11 5.78a37.704 37.704 0 0 1-4.96 4.23 26.18 26.18 0 0 1-5.06 2.83c-1.25.5-2.53.89-3.85 1.17-1.52.34-3.05.63-4.59.84-1.62.24-3.24.42-4.87.55-1.49.12-2.99.19-4.49.19-1.18.02-2.36-.05-3.52-.21-.5-.07-.98-.19-1.45-.35-.73-.24-1.36-.7-1.8-1.33-.25-.38-.46-.79-.62-1.21-.18-.47-.27-.98-.27-1.49.02-1.19.6-2.3 1.56-3 .39-.28.81-.51 1.25-.68.44-.17.89-.31 1.35-.41 1.07-.23 2.16-.37 3.25-.43 1.44-.09 2.89-.13 4.33-.12 1.46.01 2.92-.06 4.38-.19 1.24-.12 2.47-.34 3.68-.65 1.12-.29 2.21-.69 3.25-1.2 1.11-.54 2.17-1.19 3.16-1.93a31.68 31.68 0 0 0 3.33-2.91c1.3-1.3 2.53-2.66 3.7-4.08 1.46-1.76 2.86-3.56 4.22-5.4 1.67-2.26 3.31-4.54 4.91-6.85 1.64-2.37 3.37-4.67 5.17-6.91a83.46 83.46 0 0 1 4.97-5.66c1.46-1.53 3.03-2.96 4.69-4.28.53-.43 1.08-.83 1.65-1.21-.58-.39-1.13-.8-1.67-1.23a45.85 45.85 0 0 1-4.71-4.32 85.23 85.23 0 0 1-5.01-5.71 127.76 127.76 0 0 1-5.23-7.02c-1.6-2.3-3.23-4.59-4.88-6.86-1.32-1.81-2.68-3.58-4.08-5.32-1.1-1.36-2.27-2.68-3.49-3.94-.96-.99-2-1.91-3.1-2.74-.93-.7-1.92-1.31-2.96-1.82-1.02-.49-2.09-.88-3.18-1.17-1.25-.32-2.52-.57-3.8-.72-1.57-.2-3.14-.34-4.71-.42-1.55-.09-3.09-.2-4.63-.35-1.06-.1-2.12-.26-3.16-.49-.43-.09-.84-.22-1.25-.37-.42-.16-.82-.38-1.18-.65a3.54 3.54 0 0 1-1.45-2.77c-.02-.99.36-1.94 1.07-2.63.63-.56 1.41-.94 2.24-1.1.77-.16 1.56-.26 2.35-.3 1.11-.05 2.23-.08 3.34-.07.76 0 1.52 0 2.28.02 1.77.01 3.52.1 5.28.26 1.59.15 3.17.4 4.73.76 1.49.34 2.94.81 4.34 1.41 1.42.61 2.77 1.34 4.05 2.2 1.36.91 2.64 1.93 3.84 3.05 1.35 1.24 2.63 2.57 3.83 3.95 1.4 1.62 2.74 3.28 4.02 4.98a191.6 191.6 0 0 1 4.46 6.13c1.52 2.18 3.08 4.34 4.67 6.48 1.3 1.76 2.65 3.48 4.04 5.16 1.13 1.37 2.32 2.69 3.56 3.96.99 1.02 2.06 1.98 3.18 2.87.93.73 1.92 1.38 2.95 1.95.93.5 1.91.9 2.92 1.22 1.02.31 2.08.53 3.14.67 1.21.14 2.43.22 3.65.21h.19c1.22.01 2.43-.06 3.64-.2 1.07-.12 2.13-.33 3.16-.62 2.05-.6 3.98-1.56 5.7-2.83 1.03-.76 2-1.58 2.91-2.47 1.09-1.06 2.12-2.17 3.1-3.33 1.17-1.4 2.3-2.84 3.38-4.31 1.29-1.76 2.55-3.54 3.76-5.35 2.07-3.09 4.25-6.1 6.53-9.04 1.88-2.43 3.88-4.76 6.01-6.98 1.73-1.82 3.61-3.49 5.62-5 1.67-1.27 3.5-2.3 5.45-3.08 1.11-.41 2.24-.74 3.39-1 1.25-.28 2.51-.5 3.78-.67 2.6-.36 5.22-.54 7.84-.54 1.03-.01 2.07.03 3.1.11.89.06 1.77.17 2.64.34.8.14 1.57.4 2.29.76.45.24.86.57 1.19.96.47.56.74 1.28.74 2.01a3.56 3.56 0 0 1-1.52 2.88c-.38.26-.78.47-1.21.62-.42.15-.86.27-1.29.36-1.11.23-2.22.39-3.35.48-1.65.15-3.31.26-4.96.35-1.76.08-3.52.21-5.28.39-1.1.1-2.2.28-3.28.54-.77.2-1.52.48-2.23.84-.85.45-1.67.96-2.45 1.52-.7.5-1.36 1.06-1.98 1.66-.92.87-1.8 1.76-2.65 2.69a71.853 71.853 0 0 0-5.38 6.56c-3.62 5.03-7.25 10.05-10.89 15.06a51.295 51.295 0 0 1-5.15 5.97c-.88.88-1.79 1.74-2.74 2.55-.81.71-1.67 1.37-2.57 1.96-.74.45-1.46.93-2.16 1.43z"/><path d="M123.37 127.84c-1.33.18-2.64.47-3.93.86-.04.01-.07.03-.11.04.11-.3.16-.61.17-.92-.01-.29-.06-.58-.15-.85l.09.03c1.28.39 2.6.67 3.93.84zm13.05 0v.01a3.219 3.219 0 0 0 .13.89c-.04-.01-.08-.03-.12-.04-1.3-.4-2.64-.69-3.99-.87 1.23-.16 2.44-.41 3.63-.75.19-.05.37-.1.55-.16-.06.16-.11.33-.15.5-.03.14-.04.28-.05.42z"/></g><defs><filter id="v4y3DTtvs7mK5xx5yqHoAI4N78tpp3Hy" width="209.2" height="160.645" x="23.4" y="51.68" filterUnits="userSpaceOnUse"><feGaussianBlur xmlns="http://www.w3.org/2000/svg" in="SourceGraphic" stdDeviation="4.294"/><feOffset xmlns="http://www.w3.org/2000/svg" dy="4" result="pf_100_offsetBlur"/><feFlood xmlns="http://www.w3.org/2000/svg" flood-opacity=".4"/><feComposite xmlns="http://www.w3.org/2000/svg" in2="pf_100_offsetBlur" operator="in" result="pf_100_dropShadow"/><feBlend xmlns="http://www.w3.org/2000/svg" in="SourceGraphic" in2="pf_100_dropShadow"/></filter></defs></svg>