<svg xmlns="http://www.w3.org/2000/svg" style="isolation:isolate" width="256" height="256"><defs><filter id="a" width="270.648" height="254.338" x="-7.32" y="2.95" filterUnits="userSpaceOnUse"><feGaussianBlur xmlns="http://www.w3.org/2000/svg" in="SourceGraphic" stdDeviation="4.294"/><feOffset xmlns="http://www.w3.org/2000/svg" dy="4" result="pf_100_offsetBlur"/><feFlood xmlns="http://www.w3.org/2000/svg" flood-opacity=".4"/><feComposite xmlns="http://www.w3.org/2000/svg" in2="pf_100_offsetBlur" operator="in" result="pf_100_dropShadow"/><feBlend xmlns="http://www.w3.org/2000/svg" in="SourceGraphic" in2="pf_100_dropShadow"/></filter></defs><g filter="url(#a)"><linearGradient id="b" x1=".233" x2=".933" y1="-.071" y2=".995" gradientTransform="matrix(244.648 0 0 228.338 5.676 11.947)" gradientUnits="userSpaceOnUse"><stop offset="0%" stop-color="#e8e8e8"/><stop offset="100%" stop-color="#f5f5f5"/></linearGradient><path fill="url(#b)" d="M165.685 11.947c74.055 0 84.639 10.557 84.639 84.544v59.251c0 73.986-10.584 84.543-84.639 84.543h-75.37c-74.055 0-84.639-10.557-84.639-84.543V96.491c0-73.987 10.584-84.544 84.639-84.544h75.37z"/></g><path fill="#FFC42E" d="M223.246 233.696c.566-.231 1.221-.404 1.764-.65a39.619 39.619 0 0 0 5.855-3.248 33.342 33.342 0 0 0 4.91-4.037 33.261 33.261 0 0 0 4.043-4.905 39.5 39.5 0 0 0 3.252-5.847c.961-2.116 1.803-4.402 2.539-6.872.737-2.469 1.367-5.122 1.905-7.97.537-2.849.981-5.893 1.345-9.147.365-3.253.649-6.715.866-10.4.434-7.369.599-15.627.599-24.875V96.493c0-9.248-.165-17.506-.599-24.875a197.869 197.869 0 0 0-.866-10.4c-.364-3.254-.808-6.298-1.345-9.147-.538-2.848-1.168-5.501-1.905-7.971-.736-2.469-1.578-4.755-2.539-6.871a39.5 39.5 0 0 0-3.252-5.847 33.261 33.261 0 0 0-4.043-4.905 33.279 33.279 0 0 0-4.91-4.037 39.619 39.619 0 0 0-5.855-3.248c-2.118-.959-4.407-1.8-6.879-2.535-2.472-.735-5.127-1.366-7.979-1.902-2.851-.537-5.899-.98-9.156-1.344a198.576 198.576 0 0 0-10.412-.863c-7.377-.434-15.641-.598-24.898-.598h-35.082C86.761 33.689 52.652 80.462 52.652 128.212c0-16.855 24.045 39.593 37.17 30.642 14.603-9.958 19.298-84.371 38.051-84.371a64.173 64.173 0 0 1 6.443.315c.029.001.056.019.082.019 62.229 3.407 100.932 44.043 100.932 107.121 0 18.592-4.433 36.109-12.084 51.758z"/><path fill="#FF8514" d="M20.156 225.679c.025.025.044.057.069.082a33.342 33.342 0 0 0 4.91 4.037 39.619 39.619 0 0 0 5.855 3.248c2.118.959 4.407 1.8 6.879 2.535 2.472.735 5.127 1.366 7.979 1.902 2.851.537 5.899.98 9.156 1.344 3.257.364 6.724.647 10.412.863 7.377.433 15.641.598 24.898.598h75.372c9.257 0 17.521-.165 24.898-.598 3.688-.216 7.155-.499 10.412-.863 3.257-.364 6.305-.807 9.156-1.344 2.852-.536 5.507-1.167 7.979-1.902 2.472-.735 4.761-1.576 6.879-2.535a39.619 39.619 0 0 0 5.855-3.248 33.342 33.342 0 0 0 4.91-4.037c1.23-1.229 2.303-2.622 3.342-4.055 4.552-12.733 6.959-26.171 6.959-39.768 0-63.1-49.483-114.491-111.74-117.867l.002.002c31.331 3.302 47.264 30.756 47.264 64.139a64.485 64.485 0 0 1-.315 6.443c-.001.019-.02.062-.023.082-3.406 62.228-44.043 100.93-107.121 100.93-18.786 0-36.486-4.501-52.258-12.299a143 143 0 0 0 .818 1.471c-1.025.271-1.682.56-2.547.84z"/><path fill="#FF5757" d="M21.85 25.141c-.525.461-1.133.845-1.625 1.336a33.261 33.261 0 0 0-4.043 4.905 39.5 39.5 0 0 0-3.252 5.847c-.961 2.116-1.803 4.402-2.539 6.871-.737 2.47-1.367 5.123-1.905 7.971-.537 2.849-.981 5.893-1.345 9.147a197.869 197.869 0 0 0-.866 10.4c-.434 7.369-.599 15.627-.599 24.875v59.252c0 9.248.165 17.506.599 24.875.217 3.685.501 7.147.866 10.4.364 3.254.808 6.298 1.345 9.147.538 2.848 1.168 5.501 1.905 7.97.736 2.47 1.578 4.756 2.539 6.872a39.5 39.5 0 0 0 3.252 5.847 33.261 33.261 0 0 0 4.043 4.905 33.342 33.342 0 0 0 4.91 4.037 39.619 39.619 0 0 0 5.855 3.248c2.118.959 4.407 1.8 6.879 2.535 2.472.735 5.127 1.366 7.979 1.902 2.851.537 5.899.98 9.156 1.344 3.257.364 6.724.647 10.412.863 7.377.433 15.641.598 24.898.598h21.102c44.98-14.987 77.918-56.227 80.596-105.611-3.302 31.33-30.756 47.263-64.139 47.263a64.172 64.172 0 0 1-6.443-.314c-.029-.002-.058-.02-.084-.02-62.228-3.406-100.93-44.042-100.93-107.121 0-17.351 1.231-44.88 1.434-49.344z"/><path fill="#BAFF41" d="M160.645 11.95H90.314c-9.257 0-17.521.164-24.898.598-3.688.216-7.155.499-10.412.863-3.257.364-6.305.807-9.156 1.344-2.852.536-5.507 1.167-7.979 1.902-2.472.735-4.761 1.576-6.879 2.535a39.619 39.619 0 0 0-5.855 3.248 33.279 33.279 0 0 0-4.91 4.037c-.112.112-.195.256-.305.369-6.623 15.01-10.249 31.185-10.25 47.639 0 65.282 52.921 118.203 118.203 118.203v-.002c-12.544 0 38.162-9.363 28.604-15.56-17.574-11.395-90.93-25.85-90.93-48.914-.003-2.152-2.047-4.302-1.834-6.444.001-.019.02-.061.023-.082 3.02-55.161 43.763-100.2 96.909-109.736z"/><path fill="#555" d="M197 126.619a68.501 68.501 0 0 1-116.937 48.437 68.501 68.501 0 0 1 96.874-96.874A68.501 68.501 0 0 1 197 126.619z"/><g opacity=".4"><linearGradient id="c" x1=".517" x2=".517" y2="1"><stop offset="0%" stop-color="#fff"/><stop offset="12.5%" stop-opacity=".098" stop-color="#fff"/><stop offset="92.5%" stop-opacity=".098"/><stop offset="100%" stop-opacity=".498"/></linearGradient><path fill="none" stroke="url(#c)" stroke-linecap="round" stroke-linejoin="round" stroke-width="4.077" d="M165.685 11.947c74.055 0 84.639 10.557 84.639 84.544v59.251c0 73.986-10.584 84.543-84.639 84.543h-75.37c-74.055 0-84.639-10.557-84.639-84.543V96.491c0-73.987 10.584-84.544 84.639-84.544h75.37z" vector-effect="non-scaling-stroke"/></g><path fill="#FFF" d="M5.676 126.116v29.626c0 73.986 10.584 84.543 84.639 84.543h75.37c74.055 0 84.639-10.557 84.639-84.543v-29.626H5.676z" opacity=".1"/></svg>