<svg xmlns="http://www.w3.org/2000/svg" style="isolation:isolate" width="256" height="256"><switch><g><defs><filter id="a" width="270.648" height="254.338" x="-7.32" y="2.95" filterUnits="userSpaceOnUse"><feGaussianBlur xmlns="http://www.w3.org/2000/svg" in="SourceGraphic" stdDeviation="4.294"/><feOffset xmlns="http://www.w3.org/2000/svg" dy="4" result="pf_100_offsetBlur"/><feFlood xmlns="http://www.w3.org/2000/svg" flood-opacity=".4"/><feComposite xmlns="http://www.w3.org/2000/svg" in2="pf_100_offsetBlur" operator="in" result="pf_100_dropShadow"/><feBlend xmlns="http://www.w3.org/2000/svg" in="SourceGraphic" in2="pf_100_dropShadow"/></filter></defs><path fill="#4D4D4D" d="M165.689 11.95c74.056 0 84.639 10.557 84.639 84.544v59.251c0 73.986-10.583 84.543-84.639 84.543h-75.37c-74.055 0-84.639-10.557-84.639-84.543V96.494c0-73.987 10.584-84.544 84.639-84.544h75.37z" filter="url(#a)"/><path fill="#FFF" d="M5.676 131.225v24.668c0 9.248.165 17.505.599 24.875.217 3.684.501 7.146.866 10.4.364 3.254.808 6.298 1.345 9.146.538 2.849 1.168 5.502 1.905 7.971.736 2.469 1.578 4.756 2.539 6.871a39.461 39.461 0 0 0 3.252 5.848 33.253 33.253 0 0 0 4.043 4.904 33.279 33.279 0 0 0 4.91 4.037 39.528 39.528 0 0 0 5.855 3.248c2.118.96 4.407 1.8 6.879 2.535 2.472.736 5.127 1.366 7.979 1.903 2.851.536 5.899.98 9.156 1.344 3.257.363 6.724.646 10.412.863 7.377.433 15.641.598 24.898.598h75.372c9.257 0 17.521-.165 24.898-.598 3.688-.217 7.155-.5 10.412-.863 3.257-.364 6.305-.808 9.156-1.344 2.852-.537 5.507-1.167 7.979-1.903 2.472-.735 4.761-1.575 6.879-2.535a39.528 39.528 0 0 0 5.855-3.248 33.279 33.279 0 0 0 4.91-4.037 33.253 33.253 0 0 0 4.043-4.904 39.461 39.461 0 0 0 3.252-5.848c.961-2.115 1.803-4.402 2.539-6.871.737-2.469 1.367-5.122 1.905-7.971.537-2.848.981-5.892 1.345-9.146.365-3.254.649-6.716.866-10.4.434-7.37.599-15.627.599-24.875v-24.666h-63.179a4.814 4.814 0 0 1-.606-.045 4.04 4.04 0 0 1-.769-.194 3.798 3.798 0 0 1-.717-.34 3.828 3.828 0 0 1-.633-.472 3.686 3.686 0 0 1-.277-.282 3.81 3.81 0 0 1-.643-.984 4.036 4.036 0 0 1-.145-.363 4.172 4.172 0 0 1-.173-.764l-.553-4.439-5.162 22.74a3.675 3.675 0 0 1-.225.695 3.61 3.61 0 0 1-.381.686 3.801 3.801 0 0 1-.511.599 4.065 4.065 0 0 1-.967.68 4.038 4.038 0 0 1-4.459-.566 3.8 3.8 0 0 1-.949-1.246 3.686 3.686 0 0 1-.151-.362 3.773 3.773 0 0 1-.191-.759l-8.02-56.258-7.187 30.982a3.463 3.463 0 0 1-.143.445 3.946 3.946 0 0 1-2.9 2.442c-.13.026-.261.047-.393.06a3.74 3.74 0 0 1-.795.008 4.188 4.188 0 0 1-.781-.148 4.175 4.175 0 0 1-1.074-.502 3.683 3.683 0 0 1-.613-.498 3.836 3.836 0 0 1-.995-1.672 3.893 3.893 0 0 1-.089-.381 3.636 3.636 0 0 1-.053-.389l-1.567-23.916-6.543 103.278v.724a3.568 3.568 0 0 1-.187 1.039 3.802 3.802 0 0 1-.772 1.358 4.073 4.073 0 0 1-.273.285 4.331 4.331 0 0 1-.627.478 3.939 3.939 0 0 1-2.275.598 3.942 3.942 0 0 1-1.168-.219 3.943 3.943 0 0 1-1.358-.798 4.094 4.094 0 0 1-.533-.581 4.066 4.066 0 0 1-.402-.673 3.97 3.97 0 0 1-.26-.739 3.604 3.604 0 0 1-.072-.384l-12.35-86.065-6.084 32.432a3.795 3.795 0 0 1-.859 1.703 4.097 4.097 0 0 1-.574.541 4.012 4.012 0 0 1-3.766.615 3.93 3.93 0 0 1-1.361-.793 3.855 3.855 0 0 1-1.088-1.613l-4.426-13.227-8.94 58.705a3.771 3.771 0 0 1-.544 1.377 3.813 3.813 0 0 1-.489.618 3.88 3.88 0 0 1-.603.509 3.887 3.887 0 0 1-.694.381 3.933 3.933 0 0 1-.757.238 3.737 3.737 0 0 1-.789.086 4.014 4.014 0 0 1-1.555-.293 3.762 3.762 0 0 1-1.02-.601 4.088 4.088 0 0 1-.56-.555 3.803 3.803 0 0 1-.602-1.01 3.94 3.94 0 0 1-.131-.369 4.057 4.057 0 0 1-.09-.381L68.063 91.816l-6.266 36.147-.01.049a3.63 3.63 0 0 1-.219.752 3.687 3.687 0 0 1-.166.355 3.713 3.713 0 0 1-.435.652 3.883 3.883 0 0 1-.879.791 4.202 4.202 0 0 1-.701.368 4.496 4.496 0 0 1-.375.131 4.354 4.354 0 0 1-.782.148 4.061 4.061 0 0 1-.398.016H5.676z" opacity=".2"/><path fill="#FFDA64" d="M5.676 123.344v7.881h52.156c1.958.018 3.639-1.365 3.965-3.262l6.266-36.147 15.208 100.832c.347 1.859 1.995 3.21 3.917 3.21 1.923 0 3.571-1.351 3.917-3.21l8.94-58.705 4.426 13.227c.588 1.652 2.22 2.72 3.998 2.615 1.778-.105 3.268-1.358 3.65-3.068l6.084-32.432 12.35 86.065c.268 2.017 2.065 3.496 4.134 3.402 2.068-.095 3.717-1.732 3.793-3.766v-.724l6.543-103.278 1.567 23.916c.152 1.916 1.695 3.44 3.643 3.597 1.948.158 3.724-1.097 4.193-2.962l7.187-30.982 8.02 56.258c.273 1.875 1.874 3.29 3.8 3.357 1.927.067 3.626-1.232 4.034-3.084l5.162-22.74.553 4.439c.242 1.969 1.945 3.448 3.963 3.444h63.179v-7.883h-59.678l-3.041-23.192c-.273-1.875-1.874-3.289-3.801-3.356-1.927-.067-3.625 1.233-4.033 3.085l-5.345 23.463-7.928-55.897c-.246-1.883-1.832-3.322-3.762-3.411-1.93-.09-3.647 1.196-4.072 3.048l-5.898 25.367-3.78-58.705v-.453a3.887 3.887 0 0 0-1.36-2.764 4.028 4.028 0 0 0-2.972-.949v-.006c-1.971.188-3.502 1.771-3.593 3.715v.453l-8.112 127.285-10.23-71.57c-.148-2.012-1.827-3.584-3.879-3.631-2.052-.047-3.804 1.446-4.047 3.449l-7.65 40.86-4.793-14.315c-.559-1.745-2.274-2.877-4.13-2.725-1.855.152-3.355 1.548-3.613 3.36l-7.373 49.012-14.931-98.93c-.324-1.863-1.957-3.233-3.88-3.254-1.923-.022-3.587 1.311-3.954 3.166l-9.953 56.895H5.676z"/><g opacity=".4"><linearGradient id="b" x1=".517" x2=".517" y2="1"><stop offset="0%" stop-color="#fff"/><stop offset="12.5%" stop-opacity=".098" stop-color="#fff"/><stop offset="92.5%" stop-opacity=".098"/><stop offset="100%" stop-opacity=".498"/></linearGradient><path fill="none" stroke="url(#b)" stroke-linecap="round" stroke-linejoin="round" stroke-width="4.077" d="M165.685 11.947c74.055 0 84.639 10.557 84.639 84.544v59.251c0 73.986-10.584 84.543-84.639 84.543h-75.37c-74.055 0-84.639-10.557-84.639-84.543V96.491c0-73.987 10.584-84.544 84.639-84.544h75.37z" vector-effect="non-scaling-stroke"/></g></g></switch> </svg>