<?xml version="1.0" encoding="UTF-8" standalone="no"?>
<!-- Created with Inkscape (http://www.inkscape.org/) -->

<svg
   xmlns:dc="http://purl.org/dc/elements/1.1/"
   xmlns:cc="http://creativecommons.org/ns#"
   xmlns:rdf="http://www.w3.org/1999/02/22-rdf-syntax-ns#"
   xmlns:svg="http://www.w3.org/2000/svg"
   xmlns="http://www.w3.org/2000/svg"
   xmlns:xlink="http://www.w3.org/1999/xlink"
   xmlns:sodipodi="http://sodipodi.sourceforge.net/DTD/sodipodi-0.dtd"
   xmlns:inkscape="http://www.inkscape.org/namespaces/inkscape"
   width="256"
   height="256"
   viewBox="0 0 67.733332 67.733335"
   version="1.1"
   id="svg1488"
   inkscape:version="0.92.3 (2405546, 2018-03-11)"
   sodipodi:docname="xoscope.svg">
  <defs
     id="defs1482">
    <linearGradient
       id="linearGradient1304">
      <stop
         offset="0"
         style="stop-color:#1c1c1c;stop-opacity:1"
         id="stop1300" />
      <stop
         offset="1"
         style="stop-color:#555555;stop-opacity:1"
         id="stop1302" />
    </linearGradient>
    <clipPath
       clipPathUnits="userSpaceOnUse"
       id="clipPath1025">
      <path
         id="path1027"
         d="M 111.94141,84 C 99.359506,84.145 90.1531,83.713998 82.625,87.867188 c -3.7641,2.0768 -6.751838,5.574737 -8.398438,9.960937 C 72.580062,102.21433 72,107.4241 72,114 v 42 h 160 v -26 c 0,-6.5759 -0.57996,-11.78566 -2.22656,-16.17188 -0.205,-0.5455 -0.47919,-1.03993 -0.74219,-1.54296 -0.1,-0.1848 -0.17844,-0.38051 -0.27344,-0.56641 -1.727,-3.38752 -4.25471,-6.14522 -7.38281,-7.87109 C 213.8463,99.694146 204.64049,100.1454 192.05859,100 H 192 151.66797 L 135.45312,84 h -23.49218 z"
         style="color:#000000;font-style:normal;font-variant:normal;font-weight:normal;font-stretch:normal;font-size:medium;line-height:normal;font-family:sans-serif;font-variant-ligatures:none;font-variant-position:normal;font-variant-caps:normal;font-variant-numeric:normal;font-variant-alternates:normal;font-feature-settings:normal;text-indent:0;text-align:start;text-decoration:none;text-decoration-line:none;text-decoration-style:solid;text-decoration-color:#000000;letter-spacing:normal;word-spacing:normal;text-transform:none;writing-mode:lr-tb;direction:ltr;baseline-shift:baseline;text-anchor:start;white-space:normal;shape-padding:0;clip-rule:nonzero;display:inline;overflow:visible;visibility:visible;opacity:1;isolation:auto;mix-blend-mode:normal;color-interpolation:sRGB;color-interpolation-filters:linearRGB;solid-color:#000000;solid-opacity:1;fill:#e3dfd5;fill-opacity:1;fill-rule:nonzero;stroke:none;stroke-width:4.00000048;stroke-linecap:butt;stroke-linejoin:miter;stroke-miterlimit:4;stroke-dasharray:none;stroke-dashoffset:0;stroke-opacity:1;marker:none;color-rendering:auto;image-rendering:auto;shape-rendering:auto;text-rendering:auto;enable-background:accumulate"
         inkscape:connector-curvature="0" />
    </clipPath>
    <clipPath
       clipPathUnits="userSpaceOnUse"
       id="clipPath1082-3">
      <path
         sodipodi:nodetypes="sssssssss"
         inkscape:connector-curvature="0"
         id="path1084-6"
         d="M 361.9375,-212 C 507.2348,-212 528,-191.28677 528,-46.125 V 70.125 C 528,215.28618 507.2348,236 361.9375,236 H 214.0625 C 68.7652,236 48,215.28618 48,70.125 V -46.125 C 48,-191.28677 68.7652,-212 214.0625,-212 Z"
         style="display:inline;opacity:1;fill:#8c59d9;fill-opacity:1;stroke:none;stroke-width:2;stroke-linecap:round;stroke-linejoin:round;stroke-miterlimit:4;stroke-dasharray:none;stroke-dashoffset:0;stroke-opacity:1;enable-background:new" />
    </clipPath>
    <clipPath
       clipPathUnits="userSpaceOnUse"
       id="clipPath1082-3-5">
      <path
         sodipodi:nodetypes="sssssssss"
         inkscape:connector-curvature="0"
         id="path1084-6-6"
         d="M 361.9375,-212 C 507.2348,-212 528,-191.28677 528,-46.125 V 70.125 C 528,215.28618 507.2348,236 361.9375,236 H 214.0625 C 68.7652,236 48,215.28618 48,70.125 V -46.125 C 48,-191.28677 68.7652,-212 214.0625,-212 Z"
         style="display:inline;opacity:1;fill:#8c59d9;fill-opacity:1;stroke:none;stroke-width:2;stroke-linecap:round;stroke-linejoin:round;stroke-miterlimit:4;stroke-dasharray:none;stroke-dashoffset:0;stroke-opacity:1;enable-background:new" />
    </clipPath>
    <clipPath
       clipPathUnits="userSpaceOnUse"
       id="clipPath1082-3-9">
      <path
         sodipodi:nodetypes="sssssssss"
         inkscape:connector-curvature="0"
         id="path1084-6-3"
         d="M 361.9375,-212 C 507.2348,-212 528,-191.28677 528,-46.125 V 70.125 C 528,215.28618 507.2348,236 361.9375,236 H 214.0625 C 68.7652,236 48,215.28618 48,70.125 V -46.125 C 48,-191.28677 68.7652,-212 214.0625,-212 Z"
         style="display:inline;opacity:1;fill:#8c59d9;fill-opacity:1;stroke:none;stroke-width:2;stroke-linecap:round;stroke-linejoin:round;stroke-miterlimit:4;stroke-dasharray:none;stroke-dashoffset:0;stroke-opacity:1;enable-background:new" />
    </clipPath>
    <clipPath
       clipPathUnits="userSpaceOnUse"
       id="clipPath1082-3-3">
      <path
         sodipodi:nodetypes="sssssssss"
         inkscape:connector-curvature="0"
         id="path1084-6-67"
         d="M 361.9375,-212 C 507.2348,-212 528,-191.28677 528,-46.125 V 70.125 C 528,215.28618 507.2348,236 361.9375,236 H 214.0625 C 68.7652,236 48,215.28618 48,70.125 V -46.125 C 48,-191.28677 68.7652,-212 214.0625,-212 Z"
         style="display:inline;opacity:1;fill:#8c59d9;fill-opacity:1;stroke:none;stroke-width:2;stroke-linecap:round;stroke-linejoin:round;stroke-miterlimit:4;stroke-dasharray:none;stroke-dashoffset:0;stroke-opacity:1;enable-background:new" />
    </clipPath>
    <clipPath
       clipPathUnits="userSpaceOnUse"
       id="clipPath1082-3-53">
      <path
         sodipodi:nodetypes="sssssssss"
         inkscape:connector-curvature="0"
         id="path1084-6-5"
         d="M 361.9375,-212 C 507.2348,-212 528,-191.28677 528,-46.125 V 70.125 C 528,215.28618 507.2348,236 361.9375,236 H 214.0625 C 68.7652,236 48,215.28618 48,70.125 V -46.125 C 48,-191.28677 68.7652,-212 214.0625,-212 Z"
         style="display:inline;opacity:1;fill:#8c59d9;fill-opacity:1;stroke:none;stroke-width:2;stroke-linecap:round;stroke-linejoin:round;stroke-miterlimit:4;stroke-dasharray:none;stroke-dashoffset:0;stroke-opacity:1;enable-background:new" />
    </clipPath>
    <clipPath
       clipPathUnits="userSpaceOnUse"
       id="clipPath1082-3-6">
      <path
         sodipodi:nodetypes="sssssssss"
         inkscape:connector-curvature="0"
         id="path1084-6-2"
         d="M 361.9375,-212 C 507.2348,-212 528,-191.28677 528,-46.125 V 70.125 C 528,215.28618 507.2348,236 361.9375,236 H 214.0625 C 68.7652,236 48,215.28618 48,70.125 V -46.125 C 48,-191.28677 68.7652,-212 214.0625,-212 Z"
         style="display:inline;opacity:1;fill:#8c59d9;fill-opacity:1;stroke:none;stroke-width:2;stroke-linecap:round;stroke-linejoin:round;stroke-miterlimit:4;stroke-dasharray:none;stroke-dashoffset:0;stroke-opacity:1;enable-background:new" />
    </clipPath>
    <clipPath
       clipPathUnits="userSpaceOnUse"
       id="clipPath1082-3-91">
      <path
         sodipodi:nodetypes="sssssssss"
         inkscape:connector-curvature="0"
         id="path1084-6-27"
         d="M 361.9375,-212 C 507.2348,-212 528,-191.28677 528,-46.125 V 70.125 C 528,215.28618 507.2348,236 361.9375,236 H 214.0625 C 68.7652,236 48,215.28618 48,70.125 V -46.125 C 48,-191.28677 68.7652,-212 214.0625,-212 Z"
         style="display:inline;opacity:1;fill:#8c59d9;fill-opacity:1;stroke:none;stroke-width:2;stroke-linecap:round;stroke-linejoin:round;stroke-miterlimit:4;stroke-dasharray:none;stroke-dashoffset:0;stroke-opacity:1;enable-background:new" />
    </clipPath>
    <clipPath
       clipPathUnits="userSpaceOnUse"
       id="clipPath1025-0">
      <path
         style="opacity:1;fill:#8c59d9;fill-opacity:1;stroke:none;stroke-width:2;stroke-linecap:round;stroke-linejoin:round;stroke-miterlimit:4;stroke-dasharray:none;stroke-dashoffset:0;stroke-opacity:1"
         d="M 329.9375,32 C 475.2348,32 496,52.71323 496,197.875 v 116.25 C 496,459.28618 475.2348,480 329.9375,480 H 182.0625 C 36.7652,480 16,459.28618 16,314.125 V 197.875 C 16,52.71323 36.7652,32 182.0625,32 Z"
         id="path1027-9"
         inkscape:connector-curvature="0"
         sodipodi:nodetypes="sssssssss" />
    </clipPath>
    <clipPath
       clipPathUnits="userSpaceOnUse"
       id="clipPath4277-8">
      <rect
         style="color:#000000;display:inline;overflow:visible;visibility:visible;opacity:0.81999972;fill:#88b637;fill-opacity:1;fill-rule:nonzero;stroke:none;stroke-width:2;stroke-linecap:butt;stroke-linejoin:miter;stroke-miterlimit:4;stroke-dasharray:none;stroke-dashoffset:0;stroke-opacity:1;marker:none;enable-background:accumulate"
         id="rect4279-6"
         width="512"
         height="512"
         x="5.5999999e-07"
         y="0"
         ry="1" />
    </clipPath>
    <linearGradient
       id="linearGradient3650-7-9">
      <stop
         style="stop-color:#5884f4;stop-opacity:1"
         offset="0"
         id="stop4366" />
      <stop
         id="stop4368"
         offset="1"
         style="stop-color:#80a3fa;stop-opacity:1" />
    </linearGradient>
    <clipPath
       clipPathUnits="userSpaceOnUse"
       id="clipPath1082-3-36">
      <path
         sodipodi:nodetypes="sssssssss"
         inkscape:connector-curvature="0"
         id="path1084-6-0"
         d="M 361.9375,-212 C 507.2348,-212 528,-191.28677 528,-46.125 V 70.125 C 528,215.28618 507.2348,236 361.9375,236 H 214.0625 C 68.7652,236 48,215.28618 48,70.125 V -46.125 C 48,-191.28677 68.7652,-212 214.0625,-212 Z"
         style="display:inline;opacity:1;fill:#8c59d9;fill-opacity:1;stroke:none;stroke-width:2;stroke-linecap:round;stroke-linejoin:round;stroke-miterlimit:4;stroke-dasharray:none;stroke-dashoffset:0;stroke-opacity:1;enable-background:new" />
    </clipPath>
    <clipPath
       clipPathUnits="userSpaceOnUse"
       id="clipPath983">
      <path
         id="path985"
         d="M 115.03125,44 C 42.3826,44 32,54.356615 32,126.9375 v 58.125 C 32,257.64309 42.3826,268 115.03125,268 H 152 V 44 Z"
         style="opacity:1;fill:#4d4d4d;fill-opacity:1;stroke:none;stroke-width:2;stroke-linecap:round;stroke-linejoin:round;stroke-miterlimit:4;stroke-dasharray:none;stroke-dashoffset:0;stroke-opacity:1"
         inkscape:connector-curvature="0" />
    </clipPath>
    <clipPath
       clipPathUnits="userSpaceOnUse"
       id="clipPath1082-3-62">
      <path
         sodipodi:nodetypes="sssssssss"
         inkscape:connector-curvature="0"
         id="path1084-6-61"
         d="M 361.9375,-212 C 507.2348,-212 528,-191.28677 528,-46.125 V 70.125 C 528,215.28618 507.2348,236 361.9375,236 H 214.0625 C 68.7652,236 48,215.28618 48,70.125 V -46.125 C 48,-191.28677 68.7652,-212 214.0625,-212 Z"
         style="display:inline;opacity:1;fill:#8c59d9;fill-opacity:1;stroke:none;stroke-width:2;stroke-linecap:round;stroke-linejoin:round;stroke-miterlimit:4;stroke-dasharray:none;stroke-dashoffset:0;stroke-opacity:1;enable-background:new" />
    </clipPath>
    <clipPath
       clipPathUnits="userSpaceOnUse"
       id="clipPath949">
      <path
         sodipodi:nodetypes="sssssssss"
         inkscape:connector-curvature="0"
         id="path951"
         d="M 329.9375,32 C 475.2348,32 496,52.71323 496,197.875 v 116.25 C 496,459.28618 475.2348,480 329.9375,480 H 182.0625 C 36.7652,480 16,459.28618 16,314.125 V 197.875 C 16,52.71323 36.7652,32 182.0625,32 Z"
         style="opacity:1;fill:#eab305;fill-opacity:1;stroke:none;stroke-width:4;stroke-linecap:round;stroke-linejoin:round;stroke-miterlimit:4;stroke-dasharray:none;stroke-dashoffset:0;stroke-opacity:1" />
    </clipPath>
    <clipPath
       clipPathUnits="userSpaceOnUse"
       id="clipPath954">
      <path
         sodipodi:nodetypes="sssssssss"
         inkscape:connector-curvature="0"
         id="path952"
         d="M 329.9375,32 C 475.2348,32 496,52.71323 496,197.875 v 116.25 C 496,459.28618 475.2348,480 329.9375,480 H 182.0625 C 36.7652,480 16,459.28618 16,314.125 V 197.875 C 16,52.71323 36.7652,32 182.0625,32 Z"
         style="opacity:1;fill:#eab305;fill-opacity:1;stroke:none;stroke-width:4;stroke-linecap:round;stroke-linejoin:round;stroke-miterlimit:4;stroke-dasharray:none;stroke-dashoffset:0;stroke-opacity:1" />
    </clipPath>
    <clipPath
       clipPathUnits="userSpaceOnUse"
       id="clipPath1082-3-8">
      <path
         sodipodi:nodetypes="sssssssss"
         inkscape:connector-curvature="0"
         id="path1084-6-7"
         d="M 361.9375,-212 C 507.2348,-212 528,-191.28677 528,-46.125 V 70.125 C 528,215.28618 507.2348,236 361.9375,236 H 214.0625 C 68.7652,236 48,215.28618 48,70.125 V -46.125 C 48,-191.28677 68.7652,-212 214.0625,-212 Z"
         style="display:inline;opacity:1;fill:#8c59d9;fill-opacity:1;stroke:none;stroke-width:2;stroke-linecap:round;stroke-linejoin:round;stroke-miterlimit:4;stroke-dasharray:none;stroke-dashoffset:0;stroke-opacity:1;enable-background:new" />
    </clipPath>
    <clipPath
       clipPathUnits="userSpaceOnUse"
       id="clipPath1082-3-92">
      <path
         sodipodi:nodetypes="sssssssss"
         inkscape:connector-curvature="0"
         id="path1084-6-02"
         d="M 361.9375,-212 C 507.2348,-212 528,-191.28677 528,-46.125 V 70.125 C 528,215.28618 507.2348,236 361.9375,236 H 214.0625 C 68.7652,236 48,215.28618 48,70.125 V -46.125 C 48,-191.28677 68.7652,-212 214.0625,-212 Z"
         style="display:inline;opacity:1;fill:#8c59d9;fill-opacity:1;stroke:none;stroke-width:2;stroke-linecap:round;stroke-linejoin:round;stroke-miterlimit:4;stroke-dasharray:none;stroke-dashoffset:0;stroke-opacity:1;enable-background:new" />
    </clipPath>
    <clipPath
       clipPathUnits="userSpaceOnUse"
       id="clipPath1082">
      <path
         sodipodi:nodetypes="sssssssss"
         inkscape:connector-curvature="0"
         id="path1084"
         d="M 361.9375,-212 C 507.2348,-212 528,-191.28677 528,-46.125 V 70.125 C 528,215.28618 507.2348,236 361.9375,236 H 214.0625 C 68.7652,236 48,215.28618 48,70.125 V -46.125 C 48,-191.28677 68.7652,-212 214.0625,-212 Z"
         style="display:inline;opacity:1;fill:#8c59d9;fill-opacity:1;stroke:none;stroke-width:2;stroke-linecap:round;stroke-linejoin:round;stroke-miterlimit:4;stroke-dasharray:none;stroke-dashoffset:0;stroke-opacity:1;enable-background:new" />
    </clipPath>
    <linearGradient
       inkscape:collect="always"
       xlink:href="#linearGradient1013"
       id="linearGradient1108"
       x1="296"
       y1="-212"
       x2="296"
       y2="236"
       gradientUnits="userSpaceOnUse" />
    <linearGradient
       id="linearGradient1013"
       inkscape:collect="always">
      <stop
         id="stop1005"
         offset="0"
         style="stop-color:#ffffff;stop-opacity:1;" />
      <stop
         style="stop-color:#ffffff;stop-opacity:0.09803922"
         offset="0.125"
         id="stop1007" />
      <stop
         style="stop-color:#000000;stop-opacity:0.09803922"
         offset="0.92500001"
         id="stop1009" />
      <stop
         id="stop1011"
         offset="1"
         style="stop-color:#000000;stop-opacity:0.49803922" />
    </linearGradient>
    <clipPath
       clipPathUnits="userSpaceOnUse"
       id="clipPath1082-3-361">
      <path
         sodipodi:nodetypes="sssssssss"
         inkscape:connector-curvature="0"
         id="path1084-6-29"
         d="M 361.9375,-212 C 507.2348,-212 528,-191.28677 528,-46.125 V 70.125 C 528,215.28618 507.2348,236 361.9375,236 H 214.0625 C 68.7652,236 48,215.28618 48,70.125 V -46.125 C 48,-191.28677 68.7652,-212 214.0625,-212 Z"
         style="display:inline;opacity:1;fill:#8c59d9;fill-opacity:1;stroke:none;stroke-width:2;stroke-linecap:round;stroke-linejoin:round;stroke-miterlimit:4;stroke-dasharray:none;stroke-dashoffset:0;stroke-opacity:1;enable-background:new" />
    </clipPath>
    <clipPath
       clipPathUnits="userSpaceOnUse"
       id="clipPath1079">
      <circle
         cx="213.84277"
         cy="146"
         r="55"
         style="color:#000000;display:inline;overflow:visible;visibility:visible;opacity:1;fill:url(#linearGradient1083);fill-opacity:1;fill-rule:nonzero;stroke:none;stroke-width:7.99999952;stroke-linecap:butt;stroke-linejoin:miter;stroke-miterlimit:4;stroke-dasharray:none;stroke-dashoffset:0;stroke-opacity:1;marker:none;enable-background:accumulate"
         id="circle1081"
         transform="scale(-1,1)" />
    </clipPath>
    <clipPath
       clipPathUnits="userSpaceOnUse"
       id="clipPath984">
      <circle
         cx="213.84277"
         cy="146"
         r="55"
         style="color:#000000;display:inline;overflow:visible;visibility:visible;opacity:1;fill:url(#linearGradient1083);fill-opacity:1;fill-rule:nonzero;stroke:none;stroke-width:7.99999952;stroke-linecap:butt;stroke-linejoin:miter;stroke-miterlimit:4;stroke-dasharray:none;stroke-dashoffset:0;stroke-opacity:1;marker:none;enable-background:accumulate"
         id="circle982"
         transform="scale(-1,1)" />
    </clipPath>
    <clipPath
       clipPathUnits="userSpaceOnUse"
       id="clipPath988">
      <circle
         cx="213.84277"
         cy="146"
         r="55"
         style="color:#000000;display:inline;overflow:visible;visibility:visible;opacity:1;fill:url(#linearGradient1083);fill-opacity:1;fill-rule:nonzero;stroke:none;stroke-width:7.99999952;stroke-linecap:butt;stroke-linejoin:miter;stroke-miterlimit:4;stroke-dasharray:none;stroke-dashoffset:0;stroke-opacity:1;marker:none;enable-background:accumulate"
         id="circle986"
         transform="scale(-1,1)" />
    </clipPath>
    <clipPath
       clipPathUnits="userSpaceOnUse"
       id="clipPath992">
      <circle
         cx="213.84277"
         cy="146"
         r="55"
         style="color:#000000;display:inline;overflow:visible;visibility:visible;opacity:1;fill:url(#linearGradient1083);fill-opacity:1;fill-rule:nonzero;stroke:none;stroke-width:7.99999952;stroke-linecap:butt;stroke-linejoin:miter;stroke-miterlimit:4;stroke-dasharray:none;stroke-dashoffset:0;stroke-opacity:1;marker:none;enable-background:accumulate"
         id="circle990"
         transform="scale(-1,1)" />
    </clipPath>
    <filter
       inkscape:collect="always"
       style="color-interpolation-filters:sRGB"
       id="filter4569"
       x="-0.0116"
       width="1.0232"
       y="-0.012428571"
       height="1.024857">
      <feGaussianBlur
         inkscape:collect="always"
         stdDeviation="1.16"
         id="feGaussianBlur4571" />
    </filter>
    <filter
       inkscape:collect="always"
       style="color-interpolation-filters:sRGB"
       id="filter939"
       x="-0.0232"
       width="1.0464"
       y="-0.024857143"
       height="1.0497143">
      <feGaussianBlur
         inkscape:collect="always"
         stdDeviation="2.32"
         id="feGaussianBlur941" />
    </filter>
    <clipPath
       clipPathUnits="userSpaceOnUse"
       id="clipPath1082-6">
      <path
         sodipodi:nodetypes="sssssssss"
         inkscape:connector-curvature="0"
         id="path1084-7"
         d="M 361.9375,-212 C 507.2348,-212 528,-191.28677 528,-46.125 V 70.125 C 528,215.28618 507.2348,236 361.9375,236 H 214.0625 C 68.7652,236 48,215.28618 48,70.125 V -46.125 C 48,-191.28677 68.7652,-212 214.0625,-212 Z"
         style="display:inline;opacity:1;fill:#8c59d9;fill-opacity:1;stroke:none;stroke-width:2;stroke-linecap:round;stroke-linejoin:round;stroke-miterlimit:4;stroke-dasharray:none;stroke-dashoffset:0;stroke-opacity:1;enable-background:new" />
    </clipPath>
    <linearGradient
       inkscape:collect="always"
       xlink:href="#linearGradient1304"
       id="linearGradient954"
       x1="7.4999833"
       y1="230.78908"
       x2="64.112228"
       y2="294.50079"
       gradientUnits="userSpaceOnUse"
       gradientTransform="matrix(1.0193681,0,0,1.0193681,0,-5.7113166)" />
    <linearGradient
       x1="167.98311"
       y1="8.50811"
       x2="167.98311"
       y2="54.780239"
       id="linearGradient4840-0"
       xlink:href="#linearGradient5803-2-7"
       gradientUnits="userSpaceOnUse"
       gradientTransform="matrix(0.49976852,0,0,0.49976852,-13.639908,232.6414)" />
    <linearGradient
       id="linearGradient5803-2-7">
      <stop
         id="stop5805-3-6"
         style="stop-color:#fffdf3;stop-opacity:1"
         offset="0" />
      <stop
         id="stop5807-0-0"
         style="stop-color:#fbebeb;stop-opacity:1"
         offset="1" />
    </linearGradient>
    <linearGradient
       x1="32.251034"
       y1="6.1317081"
       x2="32.251034"
       y2="90.238609"
       id="linearGradient3026"
       xlink:href="#ButtonShadow-0"
       gradientUnits="userSpaceOnUse"
       gradientTransform="matrix(1.0238095,0,0,1.0119048,-1.1428571,-98.071429)" />
    <linearGradient
       x1="45.447727"
       y1="92.539597"
       x2="45.447727"
       y2="7.0165396"
       id="ButtonShadow-0"
       gradientUnits="userSpaceOnUse"
       gradientTransform="matrix(1.0058652,0,0,0.994169,100,0)">
      <stop
         id="stop3750-8"
         style="stop-color:#000000;stop-opacity:1"
         offset="0" />
      <stop
         id="stop3752-5"
         style="stop-color:#000000;stop-opacity:0.58823532"
         offset="1" />
    </linearGradient>
    <linearGradient
       x1="32.251034"
       y1="6.1317081"
       x2="32.251034"
       y2="90.238609"
       id="linearGradient3721"
       xlink:href="#ButtonShadow-0"
       gradientUnits="userSpaceOnUse"
       gradientTransform="translate(0,-97)" />
    <linearGradient
       x1="48"
       y1="90"
       x2="48"
       y2="5.9877172"
       id="linearGradient3617"
       xlink:href="#linearGradient3688"
       gradientUnits="userSpaceOnUse" />
    <linearGradient
       id="linearGradient3688">
      <stop
         id="stop3690"
         style="stop-color:#ad0d0d;stop-opacity:1"
         offset="0" />
      <stop
         id="stop3692"
         style="stop-color:#e02f11;stop-opacity:1"
         offset="1" />
    </linearGradient>
    <linearGradient
       x1="36.357143"
       y1="6"
       x2="36.357143"
       y2="63.893143"
       id="linearGradient3188"
       xlink:href="#linearGradient3737"
       gradientUnits="userSpaceOnUse" />
    <linearGradient
       id="linearGradient3737">
      <stop
         id="stop3739"
         style="stop-color:#ffffff;stop-opacity:1"
         offset="0" />
      <stop
         id="stop3741"
         style="stop-color:#ffffff;stop-opacity:0"
         offset="1" />
    </linearGradient>
    <radialGradient
       cx="48"
       cy="90.171875"
       r="42"
       fx="48"
       fy="90.171875"
       id="radialGradient3619"
       xlink:href="#linearGradient3737"
       gradientUnits="userSpaceOnUse"
       gradientTransform="matrix(1.1573129,0,0,0.99590774,-7.5510206,0.19713193)" />
    <linearGradient
       x1="48"
       y1="20.220806"
       x2="48"
       y2="138.66119"
       id="linearGradient3613"
       xlink:href="#linearGradient3737"
       gradientUnits="userSpaceOnUse" />
    <clipPath
       id="clipPath3613">
      <rect
         width="84"
         height="84"
         rx="6"
         ry="6"
         x="6"
         y="6"
         id="rect3615"
         style="fill:#ffffff;fill-opacity:1;fill-rule:nonzero;stroke:none" />
    </clipPath>
    <filter
       style="color-interpolation-filters:sRGB"
       x="-0.192"
       y="-0.192"
       width="1.3839999"
       height="1.3839999"
       id="filter3794">
      <feGaussianBlur
         id="feGaussianBlur3796"
         stdDeviation="5.28" />
    </filter>
    <linearGradient
       x1="-73.494293"
       y1="72.699486"
       x2="-50.243786"
       y2="159.47563"
       id="linearGradient4018"
       xlink:href="#linearGradient3694"
       gradientUnits="userSpaceOnUse"
       gradientTransform="matrix(0.59136097,-0.15844727,-0.15844727,-0.59136097,333.74132,111.22854)" />
    <linearGradient
       id="linearGradient3694">
      <stop
         id="stop3696"
         style="stop-color:#e6e6e6;stop-opacity:1"
         offset="0" />
      <stop
         id="stop3698"
         style="stop-color:#f5f5f5;stop-opacity:1"
         offset="1" />
    </linearGradient>
    <linearGradient
       x1="-73.494293"
       y1="72.699486"
       x2="-50.243786"
       y2="159.47563"
       id="linearGradient4071"
       xlink:href="#linearGradient3694"
       gradientUnits="userSpaceOnUse"
       gradientTransform="matrix(0.59136097,-0.15844727,-0.15844727,-0.59136097,103.35407,109.29989)" />
    <linearGradient
       x1="58"
       y1="19"
       x2="58"
       y2="120"
       id="linearGradient4091"
       xlink:href="#linearGradient4085"
       gradientUnits="userSpaceOnUse" />
    <linearGradient
       id="linearGradient4085">
      <stop
         id="stop4087"
         style="stop-color:#782121;stop-opacity:1"
         offset="0" />
      <stop
         id="stop4089"
         style="stop-color:#782121;stop-opacity:0"
         offset="1" />
    </linearGradient>
  </defs>
  <sodipodi:namedview
     id="base"
     pagecolor="#ffffff"
     bordercolor="#666666"
     borderopacity="1.0"
     inkscape:pageopacity="0.0"
     inkscape:pageshadow="2"
     inkscape:zoom="3.2382812"
     inkscape:cx="68.09168"
     inkscape:cy="128"
     inkscape:document-units="px"
     inkscape:current-layer="layer1"
     showgrid="false"
     units="px"
     inkscape:window-width="1920"
     inkscape:window-height="1009"
     inkscape:window-x="0"
     inkscape:window-y="34"
     inkscape:window-maximized="1">
    <inkscape:grid
       type="xygrid"
       id="grid2168" />
  </sodipodi:namedview>
  <metadata
     id="metadata1485">
    <rdf:RDF>
      <cc:Work
         rdf:about="">
        <dc:format>image/svg+xml</dc:format>
        <dc:type
           rdf:resource="http://purl.org/dc/dcmitype/StillImage" />
        <dc:title />
      </cc:Work>
    </rdf:RDF>
  </metadata>
  <g
     inkscape:label="Livello 1"
     inkscape:groupmode="layer"
     id="layer1"
     transform="translate(0,-229.26666)">
    <path
       style="display:inline;opacity:0.2;fill:#000000;fill-opacity:1;stroke:none;stroke-width:2;stroke-linecap:round;stroke-linejoin:round;stroke-miterlimit:4;stroke-dasharray:none;stroke-dashoffset:0;stroke-opacity:1;filter:url(#filter939);enable-background:new"
       d="m 162.53675,5.5680001 c 72.64865,0 83.03125,10.3566149 83.03125,82.9375049 v 58.125005 c 0,72.58059 -10.3826,82.9375 -83.03125,82.9375 H 88.599254 C 15.9506,229.56801 5.568,219.2111 5.568,146.63051 V 88.505505 c 0,-72.58089 10.3826,-82.9375049 83.031254,-82.9375049 z"
       id="path937"
       inkscape:connector-curvature="0"
       sodipodi:nodetypes="sssssssss"
       transform="matrix(0.26970779,0,0,0.26970779,-1.9098094e-8,231.46531)" />
    <path
       sodipodi:nodetypes="sssssssss"
       inkscape:connector-curvature="0"
       id="path4558"
       d="m 43.837429,232.42763 c 19.593907,0 22.394176,2.79326 22.394176,22.36889 v 15.67677 c 0,19.57555 -2.800269,22.36889 -22.394176,22.36889 H 23.89591 c -19.5939088,0 -22.394177,-2.79334 -22.394177,-22.36889 v -15.67677 c 0,-19.57563 2.8002682,-22.36889 22.394177,-22.36889 z"
       style="display:inline;opacity:0.1;fill:none;fill-opacity:1;stroke:#000000;stroke-width:1.07883108;stroke-linecap:round;stroke-linejoin:round;stroke-miterlimit:4;stroke-dasharray:none;stroke-dashoffset:0;stroke-opacity:1;enable-background:new" />
    <path
       sodipodi:nodetypes="sssssssss"
       inkscape:connector-curvature="0"
       id="path4567"
       d="m 162.53675,3.5680001 c 72.64865,0 83.03125,10.3566149 83.03125,82.9375049 v 58.125005 c 0,72.58059 -10.3826,82.9375 -83.03125,82.9375 H 88.599254 C 15.9506,227.56801 5.568,217.2111 5.568,144.63051 V 86.505505 c 0,-72.58089 10.3826,-82.9375049 83.031254,-82.9375049 z"
       style="display:inline;opacity:0.1;fill:#000000;fill-opacity:1;stroke:none;stroke-width:2;stroke-linecap:round;stroke-linejoin:round;stroke-miterlimit:4;stroke-dasharray:none;stroke-dashoffset:0;stroke-opacity:1;filter:url(#filter4569);enable-background:new"
       transform="matrix(0.26970779,0,0,0.26970779,-1.9098094e-8,231.46531)" />
    <path
       style="display:inline;opacity:1;fill:url(#linearGradient954);fill-opacity:1.0;stroke:none;stroke-width:0.53941554;stroke-linecap:round;stroke-linejoin:round;stroke-miterlimit:4;stroke-dasharray:none;stroke-dashoffset:0;stroke-opacity:1;enable-background:new"
       d="m 43.837427,232.42763 c 19.593907,0 22.394175,2.79326 22.394175,22.36889 v 15.67677 c 0,19.57555 -2.800268,22.36889 -22.394175,22.36889 h -19.94152 c -19.5939074,0 -22.3941756,-2.79334 -22.3941756,-22.36889 v -15.67677 c 0,-19.57563 2.8002682,-22.36889 22.3941756,-22.36889 z"
       id="rect877"
       inkscape:connector-curvature="0"
       sodipodi:nodetypes="sssssssss" />
    <path
       style="display:inline;opacity:0.1;fill:#ffffff;fill-opacity:1;stroke:none;stroke-width:2.61009812;stroke-linecap:round;stroke-linejoin:round;stroke-miterlimit:4;stroke-dasharray:none;stroke-dashoffset:0;stroke-opacity:1;enable-background:new"
       d="M 182.62891 123.19336 L 250.32422 125.91406 L 250.32422 123.19336 L 190.64648 123.19336 L 187.60547 100.00195 C 187.58657 99.872534 187.5612 99.74411 187.5293 99.617188 C 187.49726 99.490376 187.45886 99.365218 187.41406 99.242188 C 187.37008 99.119361 187.31987 98.998768 187.26367 98.880859 C 187.20638 98.763245 187.14312 98.648519 187.07422 98.537109 C 187.0056 98.424791 186.93126 98.315929 186.85156 98.210938 C 186.77208 98.106584 186.68736 98.006196 186.59766 97.910156 C 186.50799 97.813772 186.41345 97.721866 186.31445 97.634766 C 186.21577 97.548404 186.11278 97.466925 186.00586 97.390625 C 185.89826 97.313568 185.78678 97.241861 185.67188 97.175781 C 185.55716 97.110131 185.43917 97.050164 185.31836 96.996094 C 185.19784 96.941912 185.07464 96.893672 184.94922 96.851562 C 184.82352 96.809502 184.69576 96.773651 184.56641 96.744141 C 184.43683 96.714271 184.3058 96.690798 184.17383 96.673828 C 184.04228 96.656928 183.90995 96.646478 183.77734 96.642578 C 183.64445 96.639328 183.51147 96.642544 183.37891 96.652344 C 183.24669 96.661504 183.115 96.677149 182.98438 96.699219 C 182.85344 96.721479 182.72372 96.750156 182.5957 96.785156 C 182.46805 96.819983 182.34224 96.861053 182.21875 96.908203 C 182.09502 96.955601 181.97377 97.009049 181.85547 97.068359 C 181.73699 97.127748 181.62161 97.192932 181.50977 97.263672 C 181.39859 97.33389 181.29103 97.409504 181.1875 97.490234 C 181.08354 97.571861 180.98377 97.65856 180.88867 97.75 C 180.79341 97.840552 180.70279 97.935726 180.61719 98.035156 C 180.53119 98.135272 180.4504 98.23957 180.375 98.347656 C 180.30037 98.455524 180.23127 98.566991 180.16797 98.681641 C 180.10411 98.79591 180.04614 98.913243 179.99414 99.033203 C 179.94308 99.15332 179.89807 99.275868 179.85938 99.400391 C 179.82518 99.509109 179.79588 99.619239 179.77148 99.730469 L 174.42578 123.19336 L 182.62891 123.19336 z "
       id="path975"
       transform="matrix(0.26458333,0,0,0.26458333,0,229.26666)" />
    <path
       style="display:inline;opacity:0.15;fill:#ffffff;fill-opacity:1;stroke:none;stroke-width:2.61009812;stroke-linecap:round;stroke-linejoin:round;stroke-miterlimit:4;stroke-dasharray:none;stroke-dashoffset:0;stroke-opacity:1;enable-background:new"
       d="M 5.6757812 131.07422 L 5.6757812 155.74219 C 5.6757812 164.99048 5.8413528 173.24778 6.2753906 180.61719 C 6.4924096 184.30189 6.77636 187.76387 7.140625 191.01758 C 7.50489 194.27128 7.9489927 197.31554 8.4863281 200.16406 C 9.0236635 203.01259 9.6543948 205.66561 10.390625 208.13477 C 11.126855 210.60392 11.968738 212.89025 12.929688 215.00586 C 13.890637 217.12147 14.970148 219.06564 16.181641 220.85352 C 17.393134 222.64139 18.736749 224.27185 20.224609 225.75781 C 21.71247 227.24377 23.344712 228.58506 25.134766 229.79492 C 26.924819 231.00478 28.872165 232.0834 30.990234 233.04297 C 33.108304 234.00254 35.39723 234.84302 37.869141 235.57812 C 40.341052 236.31323 42.99608 236.94402 45.847656 237.48047 C 48.699233 238.01692 51.74684 238.4606 55.003906 238.82422 C 58.260972 239.18783 61.727635 239.47091 65.416016 239.6875 C 72.792777 240.12069 81.057489 240.28516 90.314453 240.28516 L 165.68555 240.28516 C 174.94251 240.28516 183.20722 240.12069 190.58398 239.6875 C 194.27236 239.47091 197.73903 239.18783 200.99609 238.82422 C 204.25316 238.4606 207.30077 238.01692 210.15234 237.48047 C 213.00392 236.94402 215.65895 236.31323 218.13086 235.57812 C 220.60277 234.84302 222.8917 234.00254 225.00977 233.04297 C 227.12784 232.0834 229.07518 231.00478 230.86523 229.79492 C 232.65529 228.58506 234.28753 227.24377 235.77539 225.75781 C 237.26325 224.27185 238.60687 222.64139 239.81836 220.85352 C 241.02985 219.06564 242.10936 217.12147 243.07031 215.00586 C 244.03126 212.89025 244.87314 210.60392 245.60938 208.13477 C 246.34561 205.66561 246.97634 203.01259 247.51367 200.16406 C 248.05101 197.31554 248.49511 194.27128 248.85938 191.01758 C 249.22364 187.76387 249.50759 184.30189 249.72461 180.61719 C 250.15865 173.24778 250.32422 164.99048 250.32422 155.74219 L 250.32422 131.07617 L 187.14453 131.07617 C 187.07483 131.07601 187.00515 131.07431 186.93555 131.07031 C 186.80281 131.06331 186.67048 131.05085 186.53906 131.03125 C 186.40761 131.01165 186.27724 130.98552 186.14844 130.95312 C 186.02027 130.92093 185.89381 130.88242 185.76953 130.83789 C 185.64462 130.79319 185.52207 130.74228 185.40234 130.68555 C 185.28269 130.62885 185.16601 130.56624 185.05273 130.49805 C 184.93969 130.42985 184.83018 130.35624 184.72461 130.27734 C 184.61884 130.19844 184.51715 130.1143 184.41992 130.02539 C 184.32272 129.93629 184.23019 129.84239 184.14258 129.74414 C 184.05478 129.64604 183.97195 129.54372 183.89453 129.4375 C 183.81743 129.3317 183.74571 129.22219 183.67969 129.10938 C 183.61389 128.99587 183.55392 128.87919 183.5 128.75977 C 183.4457 128.64111 183.39747 128.51986 183.35547 128.39648 C 183.31387 128.27199 183.27867 128.14553 183.25 128.01758 C 183.2207 127.89052 183.19794 127.7621 183.18164 127.63281 L 182.62891 123.19336 L 177.4668 145.93359 C 177.4423 146.04415 177.41301 146.15364 177.37891 146.26172 C 177.33961 146.38628 177.29401 146.50883 177.24219 146.62891 C 177.19099 146.74949 177.13357 146.86748 177.07031 146.98242 C 177.00631 147.09644 176.93657 147.20726 176.86133 147.31445 C 176.78663 147.42249 176.70643 147.5268 176.62109 147.62695 C 176.53549 147.72705 176.44492 147.82286 176.34961 147.91406 C 176.25441 148.00486 176.1547 148.09088 176.05078 148.17188 C 175.9473 148.25327 175.83974 148.32953 175.72852 148.40039 C 175.61663 148.47049 175.50125 148.53501 175.38281 148.59375 C 175.26451 148.65305 175.14326 148.70651 175.01953 148.75391 C 174.89604 148.80111 174.77023 148.84211 174.64258 148.87695 C 174.51456 148.91195 174.38484 148.94069 174.25391 148.96289 C 174.12266 148.98569 173.99033 149.00202 173.85742 149.01172 C 173.72547 149.02072 173.59315 149.02323 173.46094 149.01953 C 173.32768 149.01553 173.1947 149.00518 173.0625 148.98828 C 172.93118 148.97128 172.80081 148.94777 172.67188 148.91797 C 172.54253 148.88847 172.41476 148.85256 172.28906 148.81055 C 172.16364 148.76845 172.04044 148.72015 171.91992 148.66602 C 171.79911 148.61192 171.68113 148.55198 171.56641 148.48633 C 171.4515 148.42023 171.34003 148.34855 171.23242 148.27148 C 171.1255 148.19518 171.02251 148.11369 170.92383 148.02734 C 170.82413 147.94024 170.72897 147.84838 170.63867 147.75195 C 170.54897 147.65595 170.46425 147.55552 170.38477 147.45117 C 170.30577 147.34677 170.2321 147.23856 170.16406 147.12695 C 170.09506 147.0149 170.03184 146.89953 169.97461 146.78125 C 169.91841 146.66334 169.8682 146.54275 169.82422 146.41992 C 169.77942 146.29689 169.74102 146.17173 169.70898 146.04492 C 169.67708 145.918 169.65171 145.78958 169.63281 145.66016 L 161.61328 89.402344 L 154.42578 120.38477 C 154.41978 120.40887 154.41295 120.43293 154.40625 120.45703 C 154.37165 120.58332 154.33055 120.70783 154.2832 120.83008 C 154.2359 120.95177 154.18245 121.07105 154.12305 121.1875 C 154.06375 121.30457 153.9986 121.41865 153.92773 121.5293 C 153.85703 121.63975 153.78077 121.74665 153.69922 121.84961 C 153.61772 121.95276 153.53102 122.05185 153.43945 122.14648 C 153.34765 122.24038 153.25121 122.32965 153.15039 122.41406 C 153.04972 122.49926 152.94477 122.57943 152.83594 122.6543 C 152.72689 122.7288 152.61412 122.7979 152.49805 122.86133 C 152.38194 122.92513 152.26264 122.98312 152.14062 123.03516 C 152.01868 123.08686 151.89417 123.13246 151.76758 123.17188 C 151.64109 123.21137 151.51268 123.24458 151.38281 123.27148 C 151.25306 123.29808 151.12203 123.31823 150.99023 123.33203 C 150.85855 123.34633 150.72622 123.35417 150.59375 123.35547 C 150.46075 123.35647 150.32777 123.35144 150.19531 123.33984 C 150.06292 123.32744 149.93125 123.3085 149.80078 123.2832 C 149.6704 123.259 149.54133 123.22831 149.41406 123.19141 C 149.28688 123.15331 149.16173 123.10901 149.03906 123.05859 C 148.91654 123.00919 148.7966 122.95376 148.67969 122.89258 C 148.56303 122.83048 148.44961 122.76268 148.33984 122.68945 C 148.22919 122.61725 148.12229 122.5397 148.01953 122.45703 C 147.91742 122.37333 147.81964 122.2847 147.72656 122.19141 C 147.63316 122.09881 147.54449 122.00169 147.46094 121.90039 C 147.37754 121.79883 147.29927 121.69323 147.22656 121.58398 C 147.15446 121.47468 147.08799 121.36191 147.02734 121.24609 C 146.96604 121.13038 146.91061 121.01176 146.86133 120.89062 C 146.81203 120.76913 146.76903 120.64527 146.73242 120.51953 C 146.69602 120.39413 146.66598 120.26702 146.64258 120.13867 C 146.61838 120.01006 146.60074 119.88034 146.58984 119.75 L 145.02344 95.833984 L 138.48047 199.11133 L 138.48047 199.83594 C 138.47647 199.92794 138.46948 200.01982 138.45898 200.11133 C 138.44468 200.24118 138.42388 200.37025 138.39648 200.49805 C 138.36838 200.62531 138.33388 200.75112 138.29297 200.875 C 138.25297 200.99958 138.20677 201.12214 138.1543 201.24219 C 138.101 201.36156 138.04169 201.47826 137.97656 201.5918 C 137.91196 201.70588 137.84152 201.81669 137.76562 201.92383 C 137.68953 202.03063 137.60804 202.13362 137.52148 202.23242 C 137.43528 202.33192 137.34398 202.42708 137.24805 202.51758 C 137.15145 202.60708 137.05047 202.69186 136.94531 202.77148 C 136.8411 202.85158 136.73289 202.92656 136.62109 202.99609 C 136.50853 203.06559 136.3925 203.12945 136.27344 203.1875 C 136.15446 203.2462 136.03256 203.299 135.9082 203.3457 C 135.784 203.3916 135.65754 203.4314 135.5293 203.46484 C 135.40121 203.49854 135.27149 203.52598 135.14062 203.54688 C 135.00928 203.56767 134.87695 203.58204 134.74414 203.58984 C 134.61148 203.59784 134.4785 203.59875 134.3457 203.59375 C 134.21306 203.58875 134.08073 203.57815 133.94922 203.56055 C 133.81783 203.54225 133.68746 203.51743 133.55859 203.48633 C 133.42983 203.45543 133.30272 203.41833 133.17773 203.375 C 133.05224 203.3316 132.92904 203.2821 132.80859 203.22656 C 132.68836 203.17116 132.57103 203.10989 132.45703 203.04297 C 132.3434 202.97617 132.23324 202.90379 132.12695 202.82617 C 132.02056 202.74797 131.91822 202.66448 131.82031 202.57617 C 131.72191 202.48837 131.62804 202.39583 131.53906 202.29883 C 131.44996 202.20213 131.36591 202.10107 131.28711 201.99609 C 131.20861 201.89038 131.13565 201.78087 131.06836 201.66797 C 131.00136 201.55581 130.94008 201.44043 130.88477 201.32227 C 130.82917 201.20368 130.77961 201.08243 130.73633 200.95898 C 130.69293 200.83588 130.65573 200.71072 130.625 200.58398 C 130.5944 200.45699 130.57033 200.32858 130.55273 200.19922 L 118.20312 114.13477 L 112.11914 146.56641 C 112.09384 146.6823 112.06324 146.797 112.02734 146.91016 C 111.98734 147.03409 111.94104 147.15599 111.88867 147.27539 C 111.83607 147.39539 111.77742 147.51272 111.71289 147.62695 C 111.64829 147.74102 111.57785 147.85183 111.50195 147.95898 C 111.42655 148.0664 111.34571 148.17005 111.25977 148.26953 C 111.17347 148.36903 111.08226 148.46418 110.98633 148.55469 C 110.89043 148.64489 110.79008 148.73024 110.68555 148.81055 C 110.58138 148.89135 110.47318 148.96695 110.36133 149.03711 C 110.2494 149.10651 110.13402 149.1704 110.01562 149.22852 C 109.89665 149.28722 109.77475 149.34002 109.65039 149.38672 C 109.52622 149.43322 109.39976 149.47372 109.27148 149.50781 C 109.14343 149.54211 109.01371 149.5702 108.88281 149.5918 C 108.75214 149.6132 108.62047 149.62822 108.48828 149.63672 C 108.35565 149.64472 108.22267 149.64698 108.08984 149.64258 C 107.9572 149.63758 107.82487 149.62687 107.69336 149.60938 C 107.56201 149.59168 107.43163 149.56761 107.30273 149.53711 C 107.17331 149.50631 107.04555 149.46911 106.91992 149.42578 C 106.79447 149.38298 106.67127 149.33418 106.55078 149.2793 C 106.43059 149.2245 106.31326 149.16392 106.19922 149.09766 C 106.08493 149.03086 105.97412 148.95853 105.86719 148.88086 C 105.76017 148.80326 105.65718 148.72052 105.55859 148.63281 C 105.46029 148.54571 105.36637 148.45376 105.27734 148.35742 C 105.18824 148.26072 105.10419 148.15966 105.02539 148.05469 C 104.94629 147.94966 104.87267 147.8408 104.80469 147.72852 C 104.73699 147.61577 104.67503 147.49972 104.61914 147.38086 C 104.56364 147.2629 104.51405 147.14232 104.4707 147.01953 L 100.04492 133.79297 L 91.105469 192.49805 C 91.086169 192.6005 91.062706 192.70213 91.035156 192.80273 C 91.001146 192.92899 90.960736 193.05349 90.914062 193.17578 C 90.867403 193.29744 90.814602 193.41672 90.755859 193.5332 C 90.696599 193.65028 90.631419 193.76434 90.560547 193.875 C 90.489857 193.98546 90.413587 194.09236 90.332031 194.19531 C 90.250531 194.29847 90.163839 194.39755 90.072266 194.49219 C 89.980546 194.58669 89.884073 194.67667 89.783203 194.76172 C 89.682527 194.84692 89.577579 194.92708 89.46875 195.00195 C 89.360338 195.07645 89.248219 195.14549 89.132812 195.20898 C 89.016701 195.27278 88.89741 195.33077 88.775391 195.38281 C 88.653477 195.43511 88.528971 195.48141 88.402344 195.52148 C 88.275858 195.56098 88.147442 195.59419 88.017578 195.62109 C 87.887859 195.64829 87.756837 195.66919 87.625 195.68359 C 87.493318 195.69789 87.360992 195.70573 87.228516 195.70703 C 87.095521 195.70803 86.962542 195.70301 86.830078 195.69141 C 86.697722 195.67971 86.566046 195.66142 86.435547 195.63672 C 86.305165 195.61252 86.176098 195.58182 86.048828 195.54492 C 85.921687 195.50752 85.796531 195.46382 85.673828 195.41406 C 85.551302 195.36466 85.431361 195.30922 85.314453 195.24805 C 85.197177 195.18665 85.083102 195.11949 84.972656 195.04688 C 84.86263 194.97398 84.756378 194.89578 84.654297 194.8125 C 84.551572 194.7295 84.453142 194.6415 84.359375 194.54883 C 84.265955 194.45623 84.177304 194.35911 84.09375 194.25781 C 84.01031 194.15625 83.932083 194.05065 83.859375 193.94141 C 83.786625 193.83215 83.719484 193.71938 83.658203 193.60352 C 83.596873 193.48782 83.541464 193.36919 83.492188 193.24805 C 83.442338 193.12722 83.398668 193.00402 83.361328 192.87891 C 83.324948 192.75351 83.294954 192.6264 83.271484 192.49805 L 68.0625 91.666016 L 61.796875 127.8125 C 61.793775 127.8288 61.790509 127.84513 61.787109 127.86133 C 61.763639 127.98968 61.733646 128.11679 61.697266 128.24219 C 61.660636 128.36793 61.617606 128.49178 61.568359 128.61328 C 61.519079 128.73442 61.463675 128.85305 61.402344 128.96875 C 61.341064 129.08461 61.273922 129.19738 61.201172 129.30664 C 61.128412 129.41522 61.050187 129.52016 60.966797 129.62109 C 60.883297 129.72305 60.794642 129.82083 60.701172 129.91406 C 60.607402 130.00676 60.508975 130.09474 60.40625 130.17773 C 60.304169 130.26103 60.197917 130.33924 60.087891 130.41211 C 59.977445 130.48471 59.86337 130.55187 59.746094 130.61328 C 59.629186 130.67448 59.509245 130.72987 59.386719 130.7793 C 59.264016 130.829 59.13886 130.8727 59.011719 130.91016 C 58.884484 130.94776 58.755417 130.97911 58.625 131.00391 C 58.4945 131.02861 58.362825 131.04679 58.230469 131.05859 C 58.098005 131.07029 57.965026 131.07562 57.832031 131.07422 L 5.6757812 131.07422 z "
       id="path973"
       transform="matrix(0.26458333,0,0,0.26458333,0,229.26666)" />
    <path
       style="display:inline;opacity:0.1;fill:#ffffff;fill-opacity:1;stroke:none;stroke-width:2.61009812;stroke-linecap:round;stroke-linejoin:round;stroke-miterlimit:4;stroke-dasharray:none;stroke-dashoffset:0;stroke-opacity:1;enable-background:new"
       d="M 5.6757812 122.66992 L 5.6757812 123.19336 L 54.515625 123.19336 L 5.6757812 122.66992 z "
       id="path955"
       transform="matrix(0.26458333,0,0,0.26458333,0,229.26666)" />
    <path
       style="display:inline;opacity:0.1;fill:#ffffff;fill-opacity:1;stroke:none;stroke-width:2.61009812;stroke-linecap:round;stroke-linejoin:round;stroke-miterlimit:4;stroke-dasharray:none;stroke-dashoffset:0;stroke-opacity:1;enable-background:new"
       d="M 137.85938 83.814453 L 132.94922 160.87695 L 122.71875 89.306641 A 3.9820603 3.914067 0 0 0 122.67188 88.917969 A 3.9820603 3.914067 0 0 0 122.58398 88.537109 A 3.9820603 3.914067 0 0 0 122.45703 88.166016 A 3.9820603 3.914067 0 0 0 122.29492 87.808594 A 3.9820603 3.914067 0 0 0 122.09766 87.46875 A 3.9820603 3.914067 0 0 0 121.86523 87.150391 A 3.9820603 3.914067 0 0 0 121.60156 86.857422 A 3.9820603 3.914067 0 0 0 121.31055 86.589844 A 3.9820603 3.914067 0 0 0 120.99414 86.353516 A 3.9820603 3.914067 0 0 0 120.6543 86.150391 A 3.9820603 3.914067 0 0 0 120.29688 85.980469 A 3.9820603 3.914067 0 0 0 119.92188 85.845703 A 3.9820603 3.914067 0 0 0 119.53711 85.748047 A 3.9820603 3.914067 0 0 0 119.14258 85.691406 A 3.9820603 3.914067 0 0 0 118.74609 85.671875 A 3.9820603 3.914067 0 0 0 118.34766 85.691406 A 3.9820603 3.914067 0 0 0 117.95508 85.75 A 3.9820603 3.914067 0 0 0 117.56836 85.845703 A 3.9820603 3.914067 0 0 0 117.19531 85.980469 A 3.9820603 3.914067 0 0 0 116.83594 86.150391 A 3.9820603 3.914067 0 0 0 116.49805 86.355469 A 3.9820603 3.914067 0 0 0 116.17969 86.59375 A 3.9820603 3.914067 0 0 0 115.88867 86.859375 A 3.9820603 3.914067 0 0 0 115.62695 87.154297 A 3.9820603 3.914067 0 0 0 115.39453 87.472656 A 3.9820603 3.914067 0 0 0 115.19727 87.8125 A 3.9820603 3.914067 0 0 0 115.03516 88.167969 A 3.9820603 3.914067 0 0 0 114.91016 88.541016 A 3.9820603 3.914067 0 0 0 114.82227 88.921875 A 3.9820603 3.914067 0 0 0 114.79297 89.125 L 107.14258 129.98438 L 102.34961 115.66992 A 3.9820603 3.914067 0 0 0 102.21094 115.30273 A 3.9820603 3.914067 0 0 0 102.03711 114.95117 A 3.9820603 3.914067 0 0 0 101.82617 114.61914 A 3.9820603 3.914067 0 0 0 101.58398 114.30859 A 3.9820603 3.914067 0 0 0 101.3125 114.02344 A 3.9820603 3.914067 0 0 0 101.01172 113.76758 A 3.9820603 3.914067 0 0 0 100.68555 113.54102 A 3.9820603 3.914067 0 0 0 100.33984 113.34766 A 3.9820603 3.914067 0 0 0 99.976562 113.18945 A 3.9820603 3.914067 0 0 0 99.597656 113.06836 A 3.9820603 3.914067 0 0 0 99.208984 112.98438 A 3.9820603 3.914067 0 0 0 98.814453 112.93945 A 3.9820603 3.914067 0 0 0 98.416016 112.93359 A 3.9820603 3.914067 0 0 0 98.019531 112.9668 A 3.9820603 3.914067 0 0 0 97.626953 113.03711 A 3.9820603 3.914067 0 0 0 97.246094 113.14844 A 3.9820603 3.914067 0 0 0 96.876953 113.29492 A 3.9820603 3.914067 0 0 0 96.523438 113.47656 A 3.9820603 3.914067 0 0 0 96.191406 113.69141 A 3.9820603 3.914067 0 0 0 95.882812 113.93945 A 3.9820603 3.914067 0 0 0 95.601562 114.21484 A 3.9820603 3.914067 0 0 0 95.349609 114.51758 A 3.9820603 3.914067 0 0 0 95.128906 114.84375 A 3.9820603 3.914067 0 0 0 94.943359 115.18945 A 3.9820603 3.914067 0 0 0 94.792969 115.55273 A 3.9820603 3.914067 0 0 0 94.679688 115.92773 A 3.9820603 3.914067 0 0 0 94.607422 116.30469 L 87.234375 165.31641 L 74.933594 83.814453 L 61.404297 83.814453 L 54.515625 123.19336 L 3.6386719 123.19336 L 3.6386719 131.07422 L 57.832031 131.07422 A 3.9820603 3.914067 0 0 0 58.230469 131.05859 A 3.9820603 3.914067 0 0 0 58.625 131.00391 A 3.9820603 3.914067 0 0 0 59.011719 130.91016 A 3.9820603 3.914067 0 0 0 59.386719 130.7793 A 3.9820603 3.914067 0 0 0 59.746094 130.61328 A 3.9820603 3.914067 0 0 0 60.087891 130.41211 A 3.9820603 3.914067 0 0 0 60.40625 130.17773 A 3.9820603 3.914067 0 0 0 60.701172 129.91406 A 3.9820603 3.914067 0 0 0 60.966797 129.62109 A 3.9820603 3.914067 0 0 0 61.201172 129.30664 A 3.9820603 3.914067 0 0 0 61.402344 128.96875 A 3.9820603 3.914067 0 0 0 61.568359 128.61328 A 3.9820603 3.914067 0 0 0 61.697266 128.24219 A 3.9820603 3.914067 0 0 0 61.787109 127.86133 A 3.9820603 3.914067 0 0 0 61.796875 127.8125 L 68.0625 91.666016 L 83.271484 192.49805 A 3.9820603 3.914067 0 0 0 83.361328 192.87891 A 3.9820603 3.914067 0 0 0 83.492188 193.24805 A 3.9820603 3.914067 0 0 0 83.658203 193.60352 A 3.9820603 3.914067 0 0 0 83.859375 193.94141 A 3.9820603 3.914067 0 0 0 84.09375 194.25781 A 3.9820603 3.914067 0 0 0 84.359375 194.54883 A 3.9820603 3.914067 0 0 0 84.654297 194.8125 A 3.9820603 3.914067 0 0 0 84.972656 195.04688 A 3.9820603 3.914067 0 0 0 85.314453 195.24805 A 3.9820603 3.914067 0 0 0 85.673828 195.41406 A 3.9820603 3.914067 0 0 0 86.048828 195.54492 A 3.9820603 3.914067 0 0 0 86.435547 195.63672 A 3.9820603 3.914067 0 0 0 86.830078 195.69141 A 3.9820603 3.914067 0 0 0 87.228516 195.70703 A 3.9820603 3.914067 0 0 0 87.625 195.68359 A 3.9820603 3.914067 0 0 0 88.017578 195.62109 A 3.9820603 3.914067 0 0 0 88.402344 195.52148 A 3.9820603 3.914067 0 0 0 88.775391 195.38281 A 3.9820603 3.914067 0 0 0 89.132812 195.20898 A 3.9820603 3.914067 0 0 0 89.46875 195.00195 A 3.9820603 3.914067 0 0 0 89.783203 194.76172 A 3.9820603 3.914067 0 0 0 90.072266 194.49219 A 3.9820603 3.914067 0 0 0 90.332031 194.19531 A 3.9820603 3.914067 0 0 0 90.560547 193.875 A 3.9820603 3.914067 0 0 0 90.755859 193.5332 A 3.9820603 3.914067 0 0 0 90.914062 193.17578 A 3.9820603 3.914067 0 0 0 91.035156 192.80273 A 3.9820603 3.914067 0 0 0 91.105469 192.49805 L 100.04492 133.79297 L 104.4707 147.01953 A 3.9820603 3.914067 0 0 0 104.61914 147.38086 A 3.9820603 3.914067 0 0 0 104.80469 147.72852 A 3.9820603 3.914067 0 0 0 105.02539 148.05469 A 3.9820603 3.914067 0 0 0 105.27734 148.35742 A 3.9820603 3.914067 0 0 0 105.55859 148.63281 A 3.9820603 3.914067 0 0 0 105.86719 148.88086 A 3.9820603 3.914067 0 0 0 106.19922 149.09766 A 3.9820603 3.914067 0 0 0 106.55078 149.2793 A 3.9820603 3.914067 0 0 0 106.91992 149.42578 A 3.9820603 3.914067 0 0 0 107.30273 149.53711 A 3.9820603 3.914067 0 0 0 107.69336 149.60938 A 3.9820603 3.914067 0 0 0 108.08984 149.64258 A 3.9820603 3.914067 0 0 0 108.48828 149.63672 A 3.9820603 3.914067 0 0 0 108.88281 149.5918 A 3.9820603 3.914067 0 0 0 109.27148 149.50781 A 3.9820603 3.914067 0 0 0 109.65039 149.38672 A 3.9820603 3.914067 0 0 0 110.01562 149.22852 A 3.9820603 3.914067 0 0 0 110.36133 149.03711 A 3.9820603 3.914067 0 0 0 110.68555 148.81055 A 3.9820603 3.914067 0 0 0 110.98633 148.55469 A 3.9820603 3.914067 0 0 0 111.25977 148.26953 A 3.9820603 3.914067 0 0 0 111.50195 147.95898 A 3.9820603 3.914067 0 0 0 111.71289 147.62695 A 3.9820603 3.914067 0 0 0 111.88867 147.27539 A 3.9820603 3.914067 0 0 0 112.02734 146.91016 A 3.9820603 3.914067 0 0 0 112.11914 146.56641 L 118.20312 114.13477 L 130.55273 200.19922 A 3.9820603 3.914067 0 0 0 130.625 200.58398 A 3.9820603 3.914067 0 0 0 130.73633 200.95898 A 3.9820603 3.914067 0 0 0 130.88477 201.32227 A 3.9820603 3.914067 0 0 0 131.06836 201.66797 A 3.9820603 3.914067 0 0 0 131.28711 201.99609 A 3.9820603 3.914067 0 0 0 131.53906 202.29883 A 3.9820603 3.914067 0 0 0 131.82031 202.57617 A 3.9820603 3.914067 0 0 0 132.12695 202.82617 A 3.9820603 3.914067 0 0 0 132.45703 203.04297 A 3.9820603 3.914067 0 0 0 132.80859 203.22656 A 3.9820603 3.914067 0 0 0 133.17773 203.375 A 3.9820603 3.914067 0 0 0 133.55859 203.48633 A 3.9820603 3.914067 0 0 0 133.94922 203.56055 A 3.9820603 3.914067 0 0 0 134.3457 203.59375 A 3.9820603 3.914067 0 0 0 134.74414 203.58984 A 3.9820603 3.914067 0 0 0 135.14062 203.54688 A 3.9820603 3.914067 0 0 0 135.5293 203.46484 A 3.9820603 3.914067 0 0 0 135.9082 203.3457 A 3.9820603 3.914067 0 0 0 136.27344 203.1875 A 3.9820603 3.914067 0 0 0 136.62109 202.99609 A 3.9820603 3.914067 0 0 0 136.94531 202.77148 A 3.9820603 3.914067 0 0 0 137.24805 202.51758 A 3.9820603 3.914067 0 0 0 137.52148 202.23242 A 3.9820603 3.914067 0 0 0 137.76562 201.92383 A 3.9820603 3.914067 0 0 0 137.97656 201.5918 A 3.9820603 3.914067 0 0 0 138.1543 201.24219 A 3.9820603 3.914067 0 0 0 138.29297 200.875 A 3.9820603 3.914067 0 0 0 138.39648 200.49805 A 3.9820603 3.914067 0 0 0 138.45898 200.11133 A 3.9820603 3.914067 0 0 0 138.48047 199.83594 L 138.48047 199.11133 L 145.02344 95.833984 L 146.58984 119.75 A 3.9820603 3.914067 0 0 0 146.64258 120.13867 A 3.9820603 3.914067 0 0 0 146.73242 120.51953 A 3.9820603 3.914067 0 0 0 146.86133 120.89062 A 3.9820603 3.914067 0 0 0 147.02734 121.24609 A 3.9820603 3.914067 0 0 0 147.22656 121.58398 A 3.9820603 3.914067 0 0 0 147.46094 121.90039 A 3.9820603 3.914067 0 0 0 147.72656 122.19141 A 3.9820603 3.914067 0 0 0 148.01953 122.45703 A 3.9820603 3.914067 0 0 0 148.33984 122.68945 A 3.9820603 3.914067 0 0 0 148.67969 122.89258 A 3.9820603 3.914067 0 0 0 149.03906 123.05859 A 3.9820603 3.914067 0 0 0 149.41406 123.19141 A 3.9820603 3.914067 0 0 0 149.80078 123.2832 A 3.9820603 3.914067 0 0 0 150.19531 123.33984 A 3.9820603 3.914067 0 0 0 150.59375 123.35547 A 3.9820603 3.914067 0 0 0 150.99023 123.33203 A 3.9820603 3.914067 0 0 0 151.38281 123.27148 A 3.9820603 3.914067 0 0 0 151.76758 123.17188 A 3.9820603 3.914067 0 0 0 152.14062 123.03516 A 3.9820603 3.914067 0 0 0 152.49805 122.86133 A 3.9820603 3.914067 0 0 0 152.83594 122.6543 A 3.9820603 3.914067 0 0 0 153.15039 122.41406 A 3.9820603 3.914067 0 0 0 153.43945 122.14648 A 3.9820603 3.914067 0 0 0 153.69922 121.84961 A 3.9820603 3.914067 0 0 0 153.92773 121.5293 A 3.9820603 3.914067 0 0 0 154.12305 121.1875 A 3.9820603 3.914067 0 0 0 154.2832 120.83008 A 3.9820603 3.914067 0 0 0 154.40625 120.45703 A 3.9820603 3.914067 0 0 0 154.42578 120.38477 L 161.61328 89.402344 L 169.63281 145.66016 A 3.9820603 3.914067 0 0 0 169.70898 146.04492 A 3.9820603 3.914067 0 0 0 169.82422 146.41992 A 3.9820603 3.914067 0 0 0 169.97461 146.78125 A 3.9820603 3.914067 0 0 0 170.16406 147.12695 A 3.9820603 3.914067 0 0 0 170.38477 147.45117 A 3.9820603 3.914067 0 0 0 170.63867 147.75195 A 3.9820603 3.914067 0 0 0 170.92383 148.02734 A 3.9820603 3.914067 0 0 0 171.23242 148.27148 A 3.9820603 3.914067 0 0 0 171.56641 148.48633 A 3.9820603 3.914067 0 0 0 171.91992 148.66602 A 3.9820603 3.914067 0 0 0 172.28906 148.81055 A 3.9820603 3.914067 0 0 0 172.67188 148.91797 A 3.9820603 3.914067 0 0 0 173.0625 148.98828 A 3.9820603 3.914067 0 0 0 173.46094 149.01953 A 3.9820603 3.914067 0 0 0 173.85742 149.01172 A 3.9820603 3.914067 0 0 0 174.25391 148.96289 A 3.9820603 3.914067 0 0 0 174.64258 148.87695 A 3.9820603 3.914067 0 0 0 175.01953 148.75391 A 3.9820603 3.914067 0 0 0 175.38281 148.59375 A 3.9820603 3.914067 0 0 0 175.72852 148.40039 A 3.9820603 3.914067 0 0 0 176.05078 148.17188 A 3.9820603 3.914067 0 0 0 176.34961 147.91406 A 3.9820603 3.914067 0 0 0 176.62109 147.62695 A 3.9820603 3.914067 0 0 0 176.86133 147.31445 A 3.9820603 3.914067 0 0 0 177.07031 146.98242 A 3.9820603 3.914067 0 0 0 177.24219 146.62891 A 3.9820603 3.914067 0 0 0 177.37891 146.26172 A 3.9820603 3.914067 0 0 0 177.4668 145.93359 L 182.62891 123.19336 L 183.18164 127.63281 A 3.9820603 3.914067 0 0 0 183.25 128.01758 A 3.9820603 3.914067 0 0 0 183.35547 128.39648 A 3.9820603 3.914067 0 0 0 183.5 128.75977 A 3.9820603 3.914067 0 0 0 183.67969 129.10938 A 3.9820603 3.914067 0 0 0 183.89453 129.4375 A 3.9820603 3.914067 0 0 0 184.14258 129.74414 A 3.9820603 3.914067 0 0 0 184.41992 130.02539 A 3.9820603 3.914067 0 0 0 184.72461 130.27734 A 3.9820603 3.914067 0 0 0 185.05273 130.49805 A 3.9820603 3.914067 0 0 0 185.40234 130.68555 A 3.9820603 3.914067 0 0 0 185.76953 130.83789 A 3.9820603 3.914067 0 0 0 186.14844 130.95312 A 3.9820603 3.914067 0 0 0 186.53906 131.03125 A 3.9820603 3.914067 0 0 0 186.93555 131.07031 A 3.9820603 3.914067 0 0 0 187.14453 131.07617 L 251.38672 131.07617 L 251.38672 123.19336 L 190.64648 123.19336 L 187.60547 100.00195 A 3.9820603 3.914067 0 0 0 187.5293 99.617188 A 3.9820603 3.914067 0 0 0 187.41406 99.242188 A 3.9820603 3.914067 0 0 0 187.26367 98.880859 A 3.9820603 3.914067 0 0 0 187.07422 98.537109 A 3.9820603 3.914067 0 0 0 186.85156 98.210938 A 3.9820603 3.914067 0 0 0 186.59766 97.910156 A 3.9820603 3.914067 0 0 0 186.31445 97.634766 A 3.9820603 3.914067 0 0 0 186.00586 97.390625 A 3.9820603 3.914067 0 0 0 185.67188 97.175781 A 3.9820603 3.914067 0 0 0 185.31836 96.996094 A 3.9820603 3.914067 0 0 0 184.94922 96.851562 A 3.9820603 3.914067 0 0 0 184.56641 96.744141 A 3.9820603 3.914067 0 0 0 184.17383 96.673828 A 3.9820603 3.914067 0 0 0 183.77734 96.642578 A 3.9820603 3.914067 0 0 0 183.37891 96.652344 A 3.9820603 3.914067 0 0 0 182.98438 96.699219 A 3.9820603 3.914067 0 0 0 182.5957 96.785156 A 3.9820603 3.914067 0 0 0 182.21875 96.908203 A 3.9820603 3.914067 0 0 0 181.85547 97.068359 A 3.9820603 3.914067 0 0 0 181.50977 97.263672 A 3.9820603 3.914067 0 0 0 181.1875 97.490234 A 3.9820603 3.914067 0 0 0 180.88867 97.75 A 3.9820603 3.914067 0 0 0 180.61719 98.035156 A 3.9820603 3.914067 0 0 0 180.375 98.347656 A 3.9820603 3.914067 0 0 0 180.16797 98.681641 A 3.9820603 3.914067 0 0 0 179.99414 99.033203 A 3.9820603 3.914067 0 0 0 179.85938 99.400391 A 3.9820603 3.914067 0 0 0 179.77148 99.730469 L 174.42578 123.19336 L 168.83984 83.814453 L 154.73828 83.814453 L 152.76562 92.300781 L 152.21875 83.814453 L 137.85938 83.814453 z "
       id="path1107"
       transform="matrix(0.26458333,0,0,0.26458333,0,229.26666)" />
    <path
       style="color:#000000;font-style:normal;font-variant:normal;font-weight:normal;font-stretch:normal;font-size:medium;line-height:normal;font-family:Sans;-inkscape-font-specification:Sans;text-indent:0;text-align:start;text-decoration:none;text-decoration-line:none;letter-spacing:normal;word-spacing:normal;text-transform:none;writing-mode:lr-tb;direction:ltr;baseline-shift:baseline;text-anchor:start;display:inline;overflow:visible;visibility:visible;fill:#ffef69;fill-opacity:1;stroke:none;stroke-width:7.89504623;marker:none;enable-background:accumulate"
       d="M 5.6757812 123.19336 L 5.6757812 131.07422 L 57.832031 131.07422 A 3.9820603 3.914067 0 0 0 61.796875 127.8125 L 68.0625 91.666016 L 83.271484 192.49805 A 3.9820603 3.914067 0 0 0 91.105469 192.49805 L 100.04492 133.79297 L 104.4707 147.01953 A 3.9820603 3.914067 0 0 0 112.11914 146.56641 L 118.20312 114.13477 L 130.55273 200.19922 A 3.9820603 3.914067 0 0 0 138.48047 199.83594 L 138.48047 199.11133 L 145.02344 95.833984 L 146.58984 119.75 A 3.9820603 3.914067 0 0 0 154.42578 120.38477 L 161.61328 89.402344 L 169.63281 145.66016 A 3.9820603 3.914067 0 0 0 177.4668 145.93359 L 182.62891 123.19336 L 183.18164 127.63281 A 3.9820603 3.914067 0 0 0 187.14453 131.07617 L 250.32422 131.07617 L 250.32422 123.19336 L 190.64648 123.19336 L 187.60547 100.00195 A 3.9820603 3.914067 0 0 0 179.77148 99.730469 L 174.42578 123.19336 L 166.49805 67.296875 A 3.9820603 3.914067 0 0 0 158.66406 66.933594 L 152.76562 92.300781 L 148.98633 33.595703 L 148.98633 33.142578 A 3.9820603 3.914067 0 0 0 144.6543 29.429688 L 144.6543 29.423828 A 3.9820603 3.914067 0 0 0 141.06055 33.138672 L 141.06055 33.591797 L 132.94922 160.87695 L 122.71875 89.306641 A 3.9820603 3.914067 0 0 0 114.79297 89.125 L 107.14258 129.98438 L 102.34961 115.66992 A 3.9820603 3.914067 0 0 0 94.607422 116.30469 L 87.234375 165.31641 L 72.302734 66.386719 A 3.9820603 3.914067 0 0 0 64.46875 66.298828 L 54.515625 123.19336 L 5.6757812 123.19336 z "
       id="path3036"
       transform="matrix(0.26458333,0,0,0.26458333,0,229.26666)" />
    <path
       sodipodi:nodetypes="sssssssss"
       inkscape:connector-curvature="0"
       id="path1068"
       d="M 361.9375,-212 C 507.2348,-212 528,-191.28677 528,-46.125 V 70.125 C 528,215.28618 507.2348,236 361.9375,236 H 214.0625 C 68.7652,236 48,215.28618 48,70.125 V -46.125 C 48,-191.28677 68.7652,-212 214.0625,-212 Z"
       style="display:inline;opacity:0.4;fill:none;fill-opacity:1;stroke:url(#linearGradient1108);stroke-width:8;stroke-linecap:round;stroke-linejoin:round;stroke-miterlimit:4;stroke-dasharray:none;stroke-dashoffset:0;stroke-opacity:1;enable-background:new"
       clip-path="url(#clipPath1082-3-361)"
       transform="matrix(0.1348539,0,0,0.1348539,-4.9712559,261.01666)" />
  </g>
</svg>
