<?xml version="1.0" standalone="no"?><!-- Generator: Gravit.io --><svg xmlns="http://www.w3.org/2000/svg" xmlns:xlink="http://www.w3.org/1999/xlink" style="isolation:isolate" viewBox="0 0 256 256" width="256" height="256"><defs><clipPath id="_clipPath_zKijUh8ECVeKAUKwJyE77qob4GD63WhR"><rect width="256" height="256"/></clipPath></defs><g clip-path="url(#_clipPath_zKijUh8ECVeKAUKwJyE77qob4GD63WhR)"><g id="yaourtgui"><g opacity="0.2"><path d=" M 165.685 13.986 C 239.74 13.986 250.324 24.543 250.324 98.53 L 250.324 157.78 C 250.324 231.767 239.74 242.324 165.685 242.324 L 90.315 242.324 C 16.26 242.324 5.676 231.767 5.676 157.78 L 5.676 98.53 C 5.676 24.543 16.26 13.986 90.315 13.986 L 165.685 13.986 Z " fill="rgb(0,0,0)"/></g><g opacity="0.1"><path d=" M 165.685 11.947 C 239.74 11.947 250.324 22.504 250.324 96.491 L 250.324 155.742 C 250.324 229.728 239.74 240.285 165.685 240.285 L 90.315 240.285 C 16.26 240.285 5.676 229.728 5.676 155.742 L 5.676 96.491 C 5.676 22.504 16.26 11.947 90.315 11.947 L 165.685 11.947 Z " fill="rgb(0,0,0)"/></g><linearGradient id="_lgradient_23" x1="25.000005044039124%" y1="3.6057839047050955%" x2="75.00000234049597%" y2="96.39420920953658%"><stop offset="0%" stop-opacity="1" style="stop-color:rgb(26,127,212)"/><stop offset="100%" stop-opacity="1" style="stop-color:rgb(55,166,230)"/></linearGradient><path d=" M 165.685 11.947 C 239.74 11.947 250.324 22.504 250.324 96.491 L 250.324 155.742 C 250.324 229.728 239.74 240.285 165.685 240.285 L 90.315 240.285 C 16.26 240.285 5.676 229.728 5.676 155.742 L 5.676 96.491 C 5.676 22.504 16.26 11.947 90.315 11.947 L 165.685 11.947 Z " fill="url(#_lgradient_23)"/><path d=" M 111.728 85.759 L 127.677 117.871 L 130.263 117.871 L 146.211 88.56 L 162.375 53 L 188.668 56.879 L 168.841 92.871 L 140.823 147.612 L 143.194 203 L 113.022 203 L 115.177 151.276 L 88.022 96.103 L 67.332 58.388 L 97.72 53 L 111.728 85.759 Z " fill="rgb(242,242,242)"/><g opacity="0.4"><linearGradient id="_lgradient_24" x1="51.666666666666686%" y1="0%" x2="51.66666666666666%" y2="100.00000000000003%"><stop offset="0%" stop-opacity="1" style="stop-color:rgb(255,255,255)"/><stop offset="12.5%" stop-opacity="0.09803922" style="stop-color:rgb(255,255,255)"/><stop offset="92.500001%" stop-opacity="0.09803922" style="stop-color:rgb(0,0,0)"/><stop offset="100%" stop-opacity="0.49803922" style="stop-color:rgb(0,0,0)"/></linearGradient><path d=" M 165.685 11.947 C 239.74 11.947 250.324 22.504 250.324 96.491 L 250.324 155.742 C 250.324 229.728 239.74 240.285 165.685 240.285 L 90.315 240.285 C 16.26 240.285 5.676 229.728 5.676 155.742 L 5.676 96.491 C 5.676 22.504 16.26 11.947 90.315 11.947 L 165.685 11.947 Z " fill="none" vector-effect="non-scaling-stroke" stroke-width="4.077" stroke="url(#_lgradient_24)" stroke-linejoin="round" stroke-linecap="round" stroke-miterlimit="4"/></g></g></g></svg>