<?xml version="1.0" standalone="no"?><!-- Generator: Gravit.io --><svg xmlns="http://www.w3.org/2000/svg" xmlns:xlink="http://www.w3.org/1999/xlink" style="isolation:isolate" viewBox="0 0 256 256" width="256" height="256"><defs><clipPath id="_clipPath_9AWsSC389qVEiSkHG2aiS4khcG9VQ0dz"><rect width="256" height="256"/></clipPath></defs><g clip-path="url(#_clipPath_9AWsSC389qVEiSkHG2aiS4khcG9VQ0dz)"><g id="layer4"><g opacity="0.2"><path d=" M 162.537 16.432 C 235.185 16.432 245.568 26.789 245.568 99.369 L 245.568 157.494 C 245.568 230.075 235.185 240.432 162.537 240.432 L 88.599 240.432 C 15.951 240.432 5.568 230.075 5.568 157.494 L 5.568 99.369 C 5.568 26.789 15.951 16.432 88.599 16.432 L 162.537 16.432 Z " fill="none" vector-effect="non-scaling-stroke" stroke-width="4" stroke="rgb(0,0,0)" stroke-linejoin="round" stroke-linecap="round" stroke-miterlimit="4"/></g><defs><filter id="xJNgITsbsvtekZTBB1leVGF1U0A5gEcE" x="-200%" y="-200%" width="400%" height="400%"><feGaussianBlur xmlns="http://www.w3.org/2000/svg" stdDeviation="1.16"/></filter></defs><g opacity="0.1" filter="url(#xJNgITsbsvtekZTBB1leVGF1U0A5gEcE)"><path d=" M 162.537 16.432 C 235.185 16.432 245.568 26.789 245.568 99.369 L 245.568 157.494 C 245.568 230.075 235.185 240.432 162.537 240.432 L 88.599 240.432 C 15.951 240.432 5.568 230.075 5.568 157.494 L 5.568 99.369 C 5.568 26.789 15.951 16.432 88.599 16.432 L 162.537 16.432 Z " fill="rgb(0,0,0)"/></g><defs><filter id="wNSms6scINvQQuKqoI42vBbhhLG5OBlV" x="-200%" y="-200%" width="400%" height="400%"><feGaussianBlur xmlns="http://www.w3.org/2000/svg" stdDeviation="2.32"/></filter></defs><g opacity="0.2" filter="url(#wNSms6scINvQQuKqoI42vBbhhLG5OBlV)"><path d=" M 162.537 18.432 C 235.185 18.432 245.568 28.789 245.568 101.369 L 245.568 159.494 C 245.568 232.075 235.185 242.432 162.537 242.432 L 88.599 242.432 C 15.951 242.432 5.568 232.075 5.568 159.494 L 5.568 101.369 C 5.568 28.789 15.951 18.432 88.599 18.432 L 162.537 18.432 Z " fill="rgb(0,0,0)"/></g><path d=" M 162.537 16.432 C 235.185 16.432 245.568 26.789 245.568 99.369 L 245.568 157.494 C 245.568 230.075 235.185 240.432 162.537 240.432 L 88.599 240.432 C 15.951 240.432 5.568 230.075 5.568 157.494 L 5.568 99.369 C 5.568 26.789 15.951 16.432 88.599 16.432 L 162.537 16.432 Z " fill="rgb(247,247,247)"/><clipPath id="_clipPath_flj6CVCBUwvfOWRpqkxO7I7ePctHEbD5"><path d=" M 162.537 16.432 C 235.185 16.432 245.568 26.789 245.568 99.369 L 245.568 157.494 C 245.568 230.075 235.185 240.432 162.537 240.432 L 88.599 240.432 C 15.951 240.432 5.568 230.075 5.568 157.494 L 5.568 99.369 C 5.568 26.789 15.951 16.432 88.599 16.432 L 162.537 16.432 Z " fill="rgb(255,255,255)"/></clipPath><g clip-path="url(#_clipPath_flj6CVCBUwvfOWRpqkxO7I7ePctHEbD5)"><g opacity="0.5"><linearGradient id="_lgradient_0" x1="51.666666666666686%" y1="0%" x2="51.66666666666666%" y2="92.50000223214288%"><stop offset="0%" stop-opacity="1" style="stop-color:rgb(255,255,255)"/><stop offset="13.513513%" stop-opacity="0.09803922" style="stop-color:rgb(255,255,255)"/><stop offset="100%" stop-opacity="0" style="stop-color:rgb(255,255,255)"/></linearGradient><path d=" M 162.537 16.432 C 235.185 16.432 245.568 26.789 245.568 99.369 L 245.568 157.494 C 245.568 230.075 235.185 240.432 162.537 240.432 L 88.599 240.432 C 15.951 240.432 5.568 230.075 5.568 157.494 L 5.568 99.369 C 5.568 26.789 15.951 16.432 88.599 16.432 L 162.537 16.432 Z " fill="none" vector-effect="non-scaling-stroke" stroke-width="4" stroke="url(#_lgradient_0)" stroke-linejoin="round" stroke-linecap="round" stroke-miterlimit="4"/></g></g><path d=" M 126.707 191.675 L 126.707 191.675 Q 111.377 191.675 99.879 185.189 L 99.879 185.189 L 99.879 185.189 Q 88.382 178.704 82.191 166.616 L 82.191 166.616 L 82.191 166.616 Q 76 154.529 76 138.315 L 76 138.315 L 76 138.315 Q 76 122.101 82.191 110.087 L 82.191 110.087 L 82.191 110.087 Q 88.382 98.074 99.879 91.588 L 99.879 91.588 L 99.879 91.588 Q 111.377 85.102 126.707 85.102 L 126.707 85.102 L 126.707 85.102 Q 146.017 85.102 160.02 95.715 L 160.02 95.715 L 160.02 95.715 Q 162.231 97.484 163.116 99.253 L 163.116 99.253 L 163.116 99.253 Q 164 101.022 164 103.675 L 164 103.675 L 164 103.675 Q 164 107.508 161.863 110.235 L 161.863 110.235 L 161.863 110.235 Q 159.725 112.961 156.63 112.961 L 156.63 112.961 L 156.63 112.961 Q 154.566 112.961 153.018 112.446 L 153.018 112.446 L 153.018 112.446 Q 151.471 111.93 149.554 110.603 L 149.554 110.603 L 149.554 110.603 Q 143.658 106.771 138.647 105.075 L 138.647 105.075 L 138.647 105.075 Q 133.635 103.38 127.886 103.38 L 127.886 103.38 L 127.886 103.38 Q 113.735 103.38 106.586 112.151 L 106.586 112.151 L 106.586 112.151 Q 99.437 120.921 99.437 138.315 L 99.437 138.315 L 99.437 138.315 Q 99.437 173.397 127.886 173.397 L 127.886 173.397 L 127.886 173.397 Q 133.34 173.397 138.204 171.702 L 138.204 171.702 L 138.204 171.702 Q 143.069 170.007 149.554 166.174 L 149.554 166.174 L 149.554 166.174 Q 151.765 164.848 153.24 164.332 L 153.24 164.332 L 153.24 164.332 Q 154.714 163.816 156.63 163.816 L 156.63 163.816 L 156.63 163.816 Q 159.725 163.816 161.863 166.543 L 161.863 166.543 L 161.863 166.543 Q 164 169.27 164 173.102 L 164 173.102 L 164 173.102 Q 164 175.755 163.042 177.598 L 163.042 177.598 L 163.042 177.598 Q 162.084 179.441 160.02 181.062 L 160.02 181.062 L 160.02 181.062 Q 146.017 191.675 126.707 191.675 L 126.707 191.675 Z  M 116.536 75.963 L 116.536 75.963 Q 114.325 78.174 111.377 78.174 L 111.377 78.174 L 111.377 78.174 Q 108.576 78.174 106.66 76.332 L 106.66 76.332 L 106.66 76.332 Q 104.744 74.489 104.744 71.983 L 104.744 71.983 L 104.744 71.983 Q 104.744 69.183 107.397 66.972 L 107.397 66.972 L 119.189 56.948 L 119.189 56.948 Q 122.58 54 126.707 54 L 126.707 54 L 126.707 54 Q 130.834 54 134.224 56.948 L 134.224 56.948 L 146.017 66.972 L 146.017 66.972 Q 148.67 69.183 148.67 71.983 L 148.67 71.983 L 148.67 71.983 Q 148.67 74.489 146.754 76.332 L 146.754 76.332 L 146.754 76.332 Q 144.838 78.174 142.184 78.174 L 142.184 78.174 L 142.184 78.174 Q 139.236 78.174 136.878 75.963 L 136.878 75.963 L 126.707 66.087 L 116.536 75.963 Z " fill-rule="evenodd" fill="rgb(102,102,102)"/></g></g></svg>