<?xml version="1.0" standalone="no"?><!-- Generator: Gravit.io --><svg xmlns="http://www.w3.org/2000/svg" xmlns:xlink="http://www.w3.org/1999/xlink" style="isolation:isolate" viewBox="5.676 11.947 244.648 228.338" width="244.648" height="228.338"><clipPath id="_clipPath_TT6CuHzywGII1GJJfe3uZqI4YRnJWc3H"><path d=" M 165.685 11.947 C 239.74 11.947 250.324 22.504 250.324 96.491 L 250.324 155.742 C 250.324 229.728 239.74 240.285 165.685 240.285 L 90.315 240.285 C 16.26 240.285 5.676 229.728 5.676 155.742 L 5.676 96.491 C 5.676 22.504 16.26 11.947 90.315 11.947 L 165.685 11.947 Z " fill="rgb(255,255,255)"/></clipPath><g clip-path="url(#_clipPath_TT6CuHzywGII1GJJfe3uZqI4YRnJWc3H)"><defs><filter id="Y7cJHJuIGUvlBQyEHjrg2CDfDKOBUBTz" x="-200%" y="-200%" width="400%" height="400%"><feGaussianBlur xmlns="http://www.w3.org/2000/svg" stdDeviation="2.32"/></filter></defs><g opacity="0.2" filter="url(#Y7cJHJuIGUvlBQyEHjrg2CDfDKOBUBTz)"><path d=" M 165.685 13.986 C 239.74 13.986 250.324 24.543 250.324 98.53 L 250.324 157.78 C 250.324 231.767 239.74 242.324 165.685 242.324 L 90.315 242.324 C 16.26 242.324 5.676 231.767 5.676 157.78 L 5.676 98.53 C 5.676 24.543 16.26 13.986 90.315 13.986 L 165.685 13.986 Z " fill="rgb(0,0,0)"/></g><g opacity="0.1"><path d=" M 165.685 11.947 C 239.74 11.947 250.324 22.504 250.324 96.491 L 250.324 155.742 C 250.324 229.728 239.74 240.285 165.685 240.285 L 90.315 240.285 C 16.26 240.285 5.676 229.728 5.676 155.742 L 5.676 96.491 C 5.676 22.504 16.26 11.947 90.315 11.947 L 165.685 11.947 Z " fill="none" vector-effect="non-scaling-stroke" stroke-width="4.077" stroke="rgb(0,0,0)" stroke-linejoin="round" stroke-linecap="round" stroke-miterlimit="4"/></g><defs><filter id="TVCpgwhQ4SxEotjSXWepgvmH2FXau30O" x="-200%" y="-200%" width="400%" height="400%"><feGaussianBlur xmlns="http://www.w3.org/2000/svg" stdDeviation="1.16"/></filter></defs><g opacity="0.1" filter="url(#TVCpgwhQ4SxEotjSXWepgvmH2FXau30O)"><path d=" M 165.685 11.947 C 239.74 11.947 250.324 22.504 250.324 96.491 L 250.324 155.742 C 250.324 229.728 239.74 240.285 165.685 240.285 L 90.315 240.285 C 16.26 240.285 5.676 229.728 5.676 155.742 L 5.676 96.491 C 5.676 22.504 16.26 11.947 90.315 11.947 L 165.685 11.947 Z " fill="rgb(0,0,0)"/></g><path d=" M 165.685 11.947 C 239.74 11.947 250.324 22.504 250.324 96.491 L 250.324 155.742 C 250.324 229.728 239.74 240.285 165.685 240.285 L 90.315 240.285 C 16.26 240.285 5.676 229.728 5.676 155.742 L 5.676 96.491 C 5.676 22.504 16.26 11.947 90.315 11.947 L 165.685 11.947 Z " fill="rgb(76,86,106)"/><g opacity="0.1"><linearGradient id="_lgradient_3" x1="-0.00608368972621065%" y1="48.85630690183316%" x2="99.99755170649198%" y2="48.85630690183316%"><stop offset="0%" stop-opacity="1" style="stop-color:rgb(0,0,0)"/><stop offset="100%" stop-opacity="0" style="stop-color:rgb(0,0,0)"/></linearGradient><path d=" M 68.15 11.947 C 67.319 11.988 66.228 11.966 65.418 12.013 C 61.73 12.23 58.263 12.513 55.006 12.877 C 54.087 12.979 53.309 13.14 52.424 13.256 L 52.424 237.914 C 53.309 238.029 54.087 238.19 55.006 238.293 C 58.263 238.656 61.73 238.939 65.418 239.156 C 66.228 239.203 67.319 239.181 68.15 239.222 L 68.15 11.947 Z " fill="url(#_lgradient_3)"/></g><path d=" M 53.336 13.121 C 50.735 13.442 48.181 13.782 45.85 14.22 C 42.998 14.757 40.343 15.388 37.871 16.123 C 35.399 16.858 33.11 17.698 30.992 18.658 C 28.874 19.617 26.927 20.696 25.137 21.906 C 23.347 23.116 21.713 24.457 20.225 25.943 C 18.737 27.429 17.395 29.059 16.184 30.847 C 14.972 32.635 13.893 34.579 12.932 36.695 C 11.971 38.811 11.127 41.097 10.391 43.566 C 9.654 46.035 9.026 48.688 8.488 51.537 C 7.951 54.385 7.505 57.43 7.141 60.683 C 6.776 63.937 6.492 67.399 6.275 71.084 C 5.841 78.453 5.676 86.71 5.676 95.959 L 5.676 155.211 C 5.676 164.459 5.841 172.716 6.275 180.086 C 6.492 183.77 6.776 187.232 7.141 190.486 C 7.505 193.74 7.951 196.784 8.488 199.633 C 9.026 202.481 9.654 205.134 10.391 207.603 C 11.127 210.072 11.971 212.359 12.932 214.474 C 13.893 216.59 14.972 218.534 16.184 220.322 C 17.395 222.11 18.737 223.74 20.225 225.226 C 21.713 226.712 23.347 228.054 25.137 229.263 C 26.927 230.473 28.874 231.552 30.992 232.511 C 33.11 233.471 35.399 234.311 37.871 235.047 C 40.343 235.782 42.998 236.412 45.85 236.949 C 48.181 237.388 50.735 237.727 53.336 238.049 L 53.336 13.121 Z " fill="rgb(59,66,82)"/><g opacity="0.05"><path d=" M 235.232 25.498 L 53.336 238.049 C 53.916 238.12 54.412 238.226 55.006 238.293 C 58.263 238.656 61.73 238.939 65.418 239.156 C 72.795 239.589 81.059 239.754 90.316 239.754 L 165.686 239.754 C 174.943 239.754 183.207 239.589 190.584 239.156 C 194.272 238.939 197.739 238.656 200.996 238.293 C 204.253 237.929 207.301 237.485 210.152 236.949 C 213.004 236.412 215.659 235.782 218.131 235.047 C 220.603 234.311 222.892 233.471 225.01 232.511 C 227.128 231.552 229.075 230.473 230.865 229.263 C 232.655 228.054 234.288 226.712 235.775 225.226 C 237.263 223.74 238.607 222.11 239.818 220.322 C 241.03 218.534 242.109 216.59 243.07 214.474 C 244.031 212.359 244.873 210.072 245.609 207.603 C 246.346 205.134 246.976 202.481 247.514 199.633 C 248.051 196.784 248.495 193.74 248.859 190.486 C 249.224 187.232 249.51 183.77 249.727 180.086 C 250.161 172.716 250.324 164.459 250.324 155.211 L 250.324 95.959 C 250.324 86.71 250.161 78.453 249.727 71.084 C 249.51 67.399 249.224 63.937 248.859 60.683 C 248.495 57.43 248.051 54.385 247.514 51.537 C 246.976 48.688 246.346 46.035 245.609 43.566 C 244.873 41.097 244.031 38.811 243.07 36.695 C 242.109 34.579 241.03 32.635 239.818 30.847 C 238.607 29.059 237.263 27.429 235.775 25.943 C 235.611 25.779 235.4 25.658 235.232 25.498 Z " fill="rgb(255,255,255)"/></g><path d=" M 111.802 107.061 L 111.802 107.556 L 111.802 107.556 Q 111.802 107.689 111.772 107.833 L 111.772 107.833 L 111.772 107.833 Q 111.742 107.978 111.633 108.074 L 111.633 108.074 L 111.633 108.074 Q 111.091 108.484 110.458 108.828 L 110.458 108.828 L 110.458 108.828 Q 109.824 109.172 109.089 109.425 L 109.089 109.425 L 109.089 109.425 Q 108.353 109.678 107.503 109.817 L 107.503 109.817 L 107.503 109.817 Q 106.653 109.956 105.676 109.956 L 105.676 109.956 L 105.676 109.956 Q 103.482 109.956 101.673 109.31 L 101.673 109.31 L 101.673 109.31 Q 99.864 108.665 98.568 107.484 L 98.568 107.484 L 98.568 107.484 Q 97.271 106.302 96.56 104.644 L 96.56 104.644 L 96.56 104.644 Q 95.848 102.986 95.848 100.96 L 95.848 100.96 L 95.848 100.96 Q 95.848 99.814 96.144 98.705 L 96.144 98.705 L 96.144 98.705 Q 96.439 97.595 97.006 96.594 L 97.006 96.594 L 97.006 96.594 Q 97.573 95.594 98.405 94.755 L 98.405 94.755 L 98.405 94.755 Q 99.237 93.917 100.304 93.302 L 100.304 93.302 L 100.304 93.302 Q 101.371 92.687 102.655 92.344 L 102.655 92.344 L 102.655 92.344 Q 103.94 92 105.435 92 L 105.435 92 L 105.435 92 Q 106.014 92 106.617 92.054 L 106.617 92.054 L 106.617 92.054 Q 107.22 92.109 107.811 92.211 L 107.811 92.211 L 107.811 92.211 Q 108.402 92.314 108.95 92.458 L 108.95 92.458 L 108.95 92.458 Q 109.499 92.603 109.993 92.784 L 109.993 92.784 L 110.813 95.015 L 110.717 95.063 L 110.717 95.063 Q 110.247 94.641 109.632 94.279 L 109.632 94.279 L 109.632 94.279 Q 109.017 93.917 108.317 93.652 L 108.317 93.652 L 108.317 93.652 Q 107.618 93.387 106.852 93.236 L 106.852 93.236 L 106.852 93.236 Q 106.086 93.085 105.302 93.085 L 105.302 93.085 L 105.302 93.085 Q 103.783 93.085 102.517 93.562 L 102.517 93.562 L 102.517 93.562 Q 101.251 94.038 100.34 94.942 L 100.34 94.942 L 100.34 94.942 Q 99.43 95.847 98.923 97.161 L 98.923 97.161 L 98.923 97.161 Q 98.417 98.476 98.417 100.152 L 98.417 100.152 L 98.417 100.152 Q 98.417 101.997 98.899 103.576 L 98.899 103.576 L 98.899 103.576 Q 99.382 105.156 100.334 106.314 L 100.334 106.314 L 100.334 106.314 Q 101.287 107.471 102.716 108.129 L 102.716 108.129 L 102.716 108.129 Q 104.145 108.786 106.05 108.786 L 106.05 108.786 L 106.05 108.786 Q 106.894 108.786 107.557 108.653 L 107.557 108.653 L 107.557 108.653 Q 108.221 108.521 108.679 108.322 L 108.679 108.322 L 108.679 108.322 Q 109.137 108.123 109.372 107.887 L 109.372 107.887 L 109.372 107.887 Q 109.607 107.652 109.607 107.459 L 109.607 107.459 L 109.607 106.989 L 109.607 106.989 Q 109.607 106.145 109.583 105.53 L 109.583 105.53 L 109.583 105.53 Q 109.559 104.915 109.511 104.463 L 109.511 104.463 L 109.511 104.463 Q 109.463 104.011 109.402 103.685 L 109.402 103.685 L 109.402 103.685 Q 109.342 103.359 109.258 103.082 L 109.258 103.082 L 109.258 103.034 L 112.152 103.034 L 112.152 103.082 L 112.152 103.082 Q 112.079 103.335 112.013 103.679 L 112.013 103.679 L 112.013 103.679 Q 111.947 104.023 111.899 104.493 L 111.899 104.493 L 111.899 104.493 Q 111.85 104.963 111.826 105.596 L 111.826 105.596 L 111.826 105.596 Q 111.802 106.229 111.802 107.061 L 111.802 107.061 Z  M 114.817 92.289 L 115.589 92.289 L 128.009 105.506 L 128.009 97.016 L 128.009 97.016 Q 128.009 95.991 127.985 95.226 L 127.985 95.226 L 127.985 95.226 Q 127.961 94.46 127.913 93.899 L 127.913 93.899 L 127.913 93.899 Q 127.864 93.339 127.798 92.965 L 127.798 92.965 L 127.798 92.965 Q 127.732 92.591 127.659 92.338 L 127.659 92.338 L 127.659 92.289 L 129.806 92.289 L 129.806 92.338 L 129.806 92.338 Q 129.734 92.591 129.673 92.965 L 129.673 92.965 L 129.673 92.965 Q 129.613 93.339 129.565 93.899 L 129.565 93.899 L 129.565 93.899 Q 129.516 94.46 129.492 95.226 L 129.492 95.226 L 129.492 95.226 Q 129.468 95.991 129.468 97.016 L 129.468 97.016 L 129.468 109.823 L 129.046 109.823 L 116.626 96.619 L 116.626 104.867 L 116.626 104.867 Q 116.626 105.892 116.65 106.657 L 116.65 106.657 L 116.65 106.657 Q 116.674 107.423 116.722 107.978 L 116.722 107.978 L 116.722 107.978 Q 116.77 108.533 116.831 108.906 L 116.831 108.906 L 116.831 108.906 Q 116.891 109.28 116.963 109.534 L 116.963 109.534 L 116.963 109.582 L 114.817 109.582 L 114.817 109.534 L 114.817 109.534 Q 114.889 109.28 114.955 108.906 L 114.955 108.906 L 114.955 108.906 Q 115.022 108.533 115.07 107.978 L 115.07 107.978 L 115.07 107.978 Q 115.118 107.423 115.142 106.657 L 115.142 106.657 L 115.142 106.657 Q 115.166 105.892 115.166 104.867 L 115.166 104.867 L 115.166 97.016 L 115.166 97.016 Q 115.166 95.991 115.142 95.226 L 115.142 95.226 L 115.142 95.226 Q 115.118 94.46 115.07 93.899 L 115.07 93.899 L 115.07 93.899 Q 115.022 93.339 114.955 92.965 L 114.955 92.965 L 114.955 92.965 Q 114.889 92.591 114.817 92.338 L 114.817 92.338 L 114.817 92.289 Z  M 145.531 103.781 L 145.531 97.016 L 145.531 97.016 Q 145.531 95.991 145.506 95.226 L 145.506 95.226 L 145.506 95.226 Q 145.482 94.46 145.434 93.899 L 145.434 93.899 L 145.434 93.899 Q 145.386 93.339 145.326 92.965 L 145.326 92.965 L 145.326 92.965 Q 145.265 92.591 145.193 92.338 L 145.193 92.338 L 145.193 92.289 L 147.339 92.289 L 147.339 92.338 L 147.339 92.338 Q 147.267 92.591 147.201 92.965 L 147.201 92.965 L 147.201 92.965 Q 147.134 93.339 147.092 93.899 L 147.092 93.899 L 147.092 93.899 Q 147.05 94.46 147.02 95.226 L 147.02 95.226 L 147.02 95.226 Q 146.99 95.991 146.99 97.016 L 146.99 97.016 L 146.99 103.528 L 146.99 103.528 Q 146.99 105.253 146.495 106.471 L 146.495 106.471 L 146.495 106.471 Q 146.001 107.689 145.121 108.466 L 145.121 108.466 L 145.121 108.466 Q 144.24 109.244 143.01 109.6 L 143.01 109.6 L 143.01 109.6 Q 141.78 109.956 140.321 109.956 L 140.321 109.956 L 140.321 109.956 Q 138.862 109.956 137.602 109.618 L 137.602 109.618 L 137.602 109.618 Q 136.342 109.28 135.407 108.527 L 135.407 108.527 L 135.407 108.527 Q 134.473 107.773 133.942 106.573 L 133.942 106.573 L 133.942 106.573 Q 133.411 105.373 133.411 103.649 L 133.411 103.649 L 133.411 97.016 L 133.411 97.016 Q 133.411 95.991 133.387 95.226 L 133.387 95.226 L 133.387 95.226 Q 133.363 94.46 133.315 93.899 L 133.315 93.899 L 133.315 93.899 Q 133.267 93.339 133.2 92.965 L 133.2 92.965 L 133.2 92.965 Q 133.134 92.591 133.062 92.338 L 133.062 92.338 L 133.062 92.289 L 135.956 92.289 L 135.956 92.338 L 135.956 92.338 Q 135.884 92.591 135.817 92.965 L 135.817 92.965 L 135.817 92.965 Q 135.751 93.339 135.703 93.899 L 135.703 93.899 L 135.703 93.899 Q 135.654 94.46 135.63 95.226 L 135.63 95.226 L 135.63 95.226 Q 135.606 95.991 135.606 97.016 L 135.606 97.016 L 135.606 103.781 L 135.606 103.781 Q 135.606 105.216 136.034 106.151 L 136.034 106.151 L 136.034 106.151 Q 136.462 107.086 137.162 107.634 L 137.162 107.634 L 137.162 107.634 Q 137.861 108.183 138.754 108.4 L 138.754 108.4 L 138.754 108.4 Q 139.646 108.617 140.574 108.617 L 140.574 108.617 L 140.574 108.617 Q 141.503 108.617 142.395 108.4 L 142.395 108.4 L 142.395 108.4 Q 143.288 108.183 143.981 107.634 L 143.981 107.634 L 143.981 107.634 Q 144.674 107.086 145.102 106.151 L 145.102 106.151 L 145.102 106.151 Q 145.531 105.216 145.531 103.781 L 145.531 103.781 Z  M 156.154 97.656 L 156.275 99.657 L 156.106 99.681 L 156.106 99.681 Q 156.022 99.404 155.835 99.091 L 155.835 99.091 L 155.835 99.091 Q 155.648 98.777 155.352 98.512 L 155.352 98.512 L 155.352 98.512 Q 155.057 98.246 154.641 98.072 L 154.641 98.072 L 154.641 98.072 Q 154.225 97.897 153.682 97.897 L 153.682 97.897 L 153.682 97.897 Q 153.309 97.897 152.977 98.005 L 152.977 98.005 L 152.977 98.005 Q 152.645 98.114 152.398 98.325 L 152.398 98.325 L 152.398 98.325 Q 152.151 98.536 152.006 98.849 L 152.006 98.849 L 152.006 98.849 Q 151.861 99.163 151.861 99.585 L 151.861 99.585 L 151.861 99.585 Q 151.861 100.176 152.229 100.712 L 152.229 100.712 L 152.229 100.712 Q 152.597 101.249 153.152 101.774 L 153.152 101.774 L 153.152 101.774 Q 153.706 102.298 154.352 102.829 L 154.352 102.829 L 154.352 102.829 Q 154.997 103.359 155.551 103.938 L 155.551 103.938 L 155.551 103.938 Q 156.106 104.517 156.474 105.174 L 156.474 105.174 L 156.474 105.174 Q 156.842 105.831 156.842 106.591 L 156.842 106.591 L 156.842 106.591 Q 156.842 107.206 156.625 107.791 L 156.625 107.791 L 156.625 107.791 Q 156.408 108.376 155.955 108.834 L 155.955 108.834 L 155.955 108.834 Q 155.503 109.292 154.798 109.576 L 154.798 109.576 L 154.798 109.576 Q 154.092 109.859 153.116 109.859 L 153.116 109.859 L 153.116 109.859 Q 152.537 109.859 152.036 109.751 L 152.036 109.751 L 152.036 109.751 Q 151.536 109.642 151.12 109.479 L 151.12 109.479 L 151.12 109.479 Q 150.704 109.316 150.372 109.117 L 150.372 109.117 L 150.372 109.117 Q 150.041 108.919 149.787 108.738 L 149.787 108.738 L 149.908 106.446 L 150.101 106.446 L 150.101 106.446 Q 150.221 107.013 150.463 107.484 L 150.463 107.484 L 150.463 107.484 Q 150.704 107.954 151.06 108.285 L 151.06 108.285 L 151.06 108.285 Q 151.415 108.617 151.874 108.804 L 151.874 108.804 L 151.874 108.804 Q 152.332 108.991 152.874 108.991 L 152.874 108.991 L 152.874 108.991 Q 153.767 108.991 154.291 108.496 L 154.291 108.496 L 154.291 108.496 Q 154.816 108.002 154.816 107.206 L 154.816 107.206 L 154.816 107.206 Q 154.816 106.567 154.46 106.03 L 154.46 106.03 L 154.46 106.03 Q 154.104 105.494 153.562 104.999 L 153.562 104.999 L 153.562 104.999 Q 153.019 104.505 152.398 104.011 L 152.398 104.011 L 152.398 104.011 Q 151.777 103.516 151.234 102.955 L 151.234 102.955 L 151.234 102.955 Q 150.692 102.395 150.336 101.725 L 150.336 101.725 L 150.336 101.725 Q 149.98 101.056 149.98 100.2 L 149.98 100.2 L 149.98 100.2 Q 149.98 99.501 150.24 98.916 L 150.24 98.916 L 150.24 98.916 Q 150.499 98.331 150.963 97.915 L 150.963 97.915 L 150.963 97.915 Q 151.427 97.499 152.066 97.27 L 152.066 97.27 L 152.066 97.27 Q 152.706 97.041 153.465 97.041 L 153.465 97.041 L 153.465 97.041 Q 154.466 97.041 155.135 97.252 L 155.135 97.252 L 155.135 97.252 Q 155.805 97.463 156.154 97.656 L 156.154 97.656 Z  M 163.932 108.87 L 163.932 108.87 L 163.932 108.87 Q 164.294 108.87 164.65 108.738 L 164.65 108.738 L 164.65 108.738 Q 165.006 108.605 165.337 108.376 L 165.337 108.376 L 165.337 108.376 Q 165.669 108.147 165.976 107.851 L 165.976 107.851 L 165.976 107.851 Q 166.284 107.556 166.549 107.23 L 166.549 107.23 L 166.67 107.291 L 165.886 109.232 L 165.886 109.232 Q 165.741 109.304 165.53 109.407 L 165.53 109.407 L 165.53 109.407 Q 165.319 109.509 165.024 109.6 L 165.024 109.6 L 165.024 109.6 Q 164.728 109.69 164.33 109.757 L 164.33 109.757 L 164.33 109.757 Q 163.932 109.823 163.39 109.823 L 163.39 109.823 L 163.39 109.823 Q 161.774 109.823 160.875 108.949 L 160.875 108.949 L 160.875 108.949 Q 159.977 108.074 159.977 106.217 L 159.977 106.217 L 159.977 98.174 L 157.951 98.246 L 157.951 97.185 L 157.951 97.185 Q 158.325 97.209 158.844 97.221 L 158.844 97.221 L 158.844 97.221 Q 159.362 97.234 159.977 97.234 L 159.977 97.234 L 159.977 97.234 Q 159.965 96.377 159.935 95.72 L 159.935 95.72 L 159.935 95.72 Q 159.905 95.063 159.862 94.575 L 159.862 94.575 L 159.862 94.575 Q 159.82 94.086 159.76 93.749 L 159.76 93.749 L 159.76 93.749 Q 159.7 93.411 159.639 93.182 L 159.639 93.182 L 159.639 93.134 L 162.425 93.134 L 162.425 93.182 L 162.425 93.182 Q 162.353 93.411 162.292 93.749 L 162.292 93.749 L 162.292 93.749 Q 162.232 94.086 162.19 94.569 L 162.19 94.569 L 162.19 94.569 Q 162.148 95.051 162.117 95.708 L 162.117 95.708 L 162.117 95.708 Q 162.087 96.365 162.075 97.234 L 162.075 97.234 L 162.075 97.234 Q 162.835 97.221 163.565 97.203 L 163.565 97.203 L 163.565 97.203 Q 164.294 97.185 164.891 97.155 L 164.891 97.155 L 164.891 97.155 Q 165.488 97.125 165.904 97.095 L 165.904 97.095 L 165.904 97.095 Q 166.32 97.065 166.453 97.041 L 166.453 97.041 L 166.236 98.271 L 166.236 98.271 Q 165.621 98.259 164.945 98.234 L 164.945 98.234 L 164.945 98.234 Q 164.366 98.21 163.619 98.198 L 163.619 98.198 L 163.619 98.198 Q 162.871 98.186 162.075 98.174 L 162.075 98.174 L 162.075 106.471 L 162.075 106.471 Q 162.075 107.218 162.238 107.682 L 162.238 107.682 L 162.238 107.682 Q 162.401 108.147 162.66 108.412 L 162.66 108.412 L 162.66 108.412 Q 162.919 108.677 163.251 108.774 L 163.251 108.774 L 163.251 108.774 Q 163.583 108.87 163.932 108.87 Z  M 174.448 109.799 L 174.448 109.799 L 174.448 109.799 Q 173.109 109.799 171.939 109.377 L 171.939 109.377 L 171.939 109.377 Q 170.77 108.955 169.901 108.141 L 169.901 108.141 L 169.901 108.141 Q 169.033 107.327 168.533 106.127 L 168.533 106.127 L 168.533 106.127 Q 168.032 104.927 168.032 103.384 L 168.032 103.384 L 168.032 103.384 Q 168.032 102.021 168.491 100.857 L 168.491 100.857 L 168.491 100.857 Q 168.949 99.694 169.757 98.837 L 169.757 98.837 L 169.757 98.837 Q 170.565 97.981 171.644 97.499 L 171.644 97.499 L 171.644 97.499 Q 172.723 97.016 173.977 97.016 L 173.977 97.016 L 173.977 97.016 Q 175.219 97.016 176.281 97.445 L 176.281 97.445 L 176.281 97.445 Q 177.342 97.873 178.12 98.687 L 178.12 98.687 L 178.12 98.687 Q 178.897 99.501 179.35 100.7 L 179.35 100.7 L 179.35 100.7 Q 179.802 101.9 179.838 103.432 L 179.838 103.432 L 179.838 103.432 Q 178.475 103.408 177.113 103.396 L 177.113 103.396 L 177.113 103.396 Q 175.75 103.384 174.279 103.384 L 174.279 103.384 L 174.279 103.384 Q 173.23 103.384 172.235 103.396 L 172.235 103.396 L 172.235 103.396 Q 171.24 103.408 170.444 103.432 L 170.444 103.432 L 170.444 103.432 Q 170.516 104.686 170.836 105.699 L 170.836 105.699 L 170.836 105.699 Q 171.156 106.712 171.716 107.429 L 171.716 107.429 L 171.716 107.429 Q 172.277 108.147 173.079 108.533 L 173.079 108.533 L 173.079 108.533 Q 173.881 108.919 174.894 108.919 L 174.894 108.919 L 174.894 108.919 Q 175.593 108.919 176.214 108.756 L 176.214 108.756 L 176.214 108.756 Q 176.835 108.593 177.342 108.304 L 177.342 108.304 L 177.342 108.304 Q 177.848 108.014 178.246 107.622 L 178.246 107.622 L 178.246 107.622 Q 178.644 107.23 178.921 106.772 L 178.921 106.772 L 179.066 106.844 L 178.174 108.991 L 178.174 108.991 Q 177.523 109.329 176.618 109.564 L 176.618 109.564 L 176.618 109.564 Q 175.714 109.799 174.448 109.799 Z  M 172.844 102.443 L 172.844 102.443 L 172.844 102.443 Q 174.05 102.443 175.262 102.437 L 175.262 102.437 L 175.262 102.437 Q 176.473 102.431 177.462 102.395 L 177.462 102.395 L 177.462 102.395 Q 177.354 101.346 177.052 100.514 L 177.052 100.514 L 177.052 100.514 Q 176.751 99.681 176.281 99.103 L 176.281 99.103 L 176.281 99.103 Q 175.81 98.524 175.171 98.21 L 175.171 98.21 L 175.171 98.21 Q 174.532 97.897 173.76 97.897 L 173.76 97.897 L 173.76 97.897 Q 173.061 97.897 172.476 98.204 L 172.476 98.204 L 172.476 98.204 Q 171.891 98.512 171.457 99.091 L 171.457 99.091 L 171.457 99.091 Q 171.023 99.669 170.758 100.507 L 170.758 100.507 L 170.758 100.507 Q 170.492 101.346 170.444 102.419 L 170.444 102.419 L 170.444 102.419 Q 170.987 102.443 171.59 102.443 L 171.59 102.443 L 171.59 102.443 Q 172.193 102.443 172.844 102.443 Z  M 182.431 111.041 L 182.431 101.707 L 182.431 101.707 Q 182.431 100.682 182.4 99.917 L 182.4 99.917 L 182.4 99.917 Q 182.37 99.151 182.328 98.596 L 182.328 98.596 L 182.328 98.596 Q 182.286 98.041 182.22 97.668 L 182.22 97.668 L 182.22 97.668 Q 182.153 97.294 182.081 97.041 L 182.081 97.041 L 182.081 96.992 L 184.866 96.992 L 184.866 97.041 L 184.866 97.041 Q 184.806 97.221 184.758 97.451 L 184.758 97.451 L 184.758 97.451 Q 184.71 97.68 184.673 97.969 L 184.673 97.969 L 184.673 97.969 Q 185.385 97.559 186.247 97.276 L 186.247 97.276 L 186.247 97.276 Q 187.109 96.992 188.158 96.992 L 188.158 96.992 L 188.158 96.992 Q 189.497 96.992 190.6 97.445 L 190.6 97.445 L 190.6 97.445 Q 191.704 97.897 192.494 98.741 L 192.494 98.741 L 192.494 98.741 Q 193.283 99.585 193.718 100.779 L 193.718 100.779 L 193.718 100.779 Q 194.152 101.973 194.152 103.456 L 194.152 103.456 L 194.152 103.456 Q 194.152 104.698 193.724 105.844 L 193.724 105.844 L 193.724 105.844 Q 193.296 106.989 192.47 107.869 L 192.47 107.869 L 192.47 107.869 Q 191.643 108.75 190.438 109.274 L 190.438 109.274 L 190.438 109.274 Q 189.232 109.799 187.664 109.799 L 187.664 109.799 L 187.664 109.799 Q 186.723 109.799 185.952 109.654 L 185.952 109.654 L 185.952 109.654 Q 185.18 109.509 184.529 109.28 L 184.529 109.28 L 184.529 111.041 L 184.529 111.041 Q 184.529 112.066 184.553 112.832 L 184.553 112.832 L 184.553 112.832 Q 184.577 113.597 184.625 114.152 L 184.625 114.152 L 184.625 114.152 Q 184.673 114.707 184.734 115.081 L 184.734 115.081 L 184.734 115.081 Q 184.794 115.454 184.866 115.708 L 184.866 115.708 L 184.866 115.756 L 182.081 115.756 L 182.081 115.708 L 182.081 115.708 Q 182.153 115.454 182.22 115.081 L 182.22 115.081 L 182.22 115.081 Q 182.286 114.707 182.328 114.152 L 182.328 114.152 L 182.328 114.152 Q 182.37 113.597 182.4 112.832 L 182.4 112.832 L 182.4 112.832 Q 182.431 112.066 182.431 111.041 L 182.431 111.041 Z  M 187.736 97.897 L 187.736 97.897 L 187.736 97.897 Q 187.326 97.897 186.898 97.999 L 186.898 97.999 L 186.898 97.999 Q 186.47 98.102 186.054 98.289 L 186.054 98.289 L 186.054 98.289 Q 185.638 98.476 185.258 98.759 L 185.258 98.759 L 185.258 98.759 Q 184.878 99.042 184.577 99.404 L 184.577 99.404 L 184.577 99.404 Q 184.553 99.862 184.541 100.441 L 184.541 100.441 L 184.541 100.441 Q 184.529 101.02 184.529 101.707 L 184.529 101.707 L 184.529 108.026 L 184.529 108.026 Q 184.77 108.207 185.071 108.364 L 185.071 108.364 L 185.071 108.364 Q 185.373 108.521 185.753 108.647 L 185.753 108.647 L 185.753 108.647 Q 186.133 108.774 186.609 108.846 L 186.609 108.846 L 186.609 108.846 Q 187.085 108.919 187.664 108.919 L 187.664 108.919 L 187.664 108.919 Q 188.605 108.919 189.364 108.581 L 189.364 108.581 L 189.364 108.581 Q 190.124 108.243 190.649 107.604 L 190.649 107.604 L 190.649 107.604 Q 191.173 106.965 191.457 106.049 L 191.457 106.049 L 191.457 106.049 Q 191.74 105.132 191.74 103.974 L 191.74 103.974 L 191.74 103.974 Q 191.74 102.672 191.523 101.557 L 191.523 101.557 L 191.523 101.557 Q 191.306 100.441 190.83 99.627 L 190.83 99.627 L 190.83 99.627 Q 190.353 98.813 189.593 98.355 L 189.593 98.355 L 189.593 98.355 Q 188.834 97.897 187.736 97.897 Z " fill-rule="evenodd" fill="rgb(236,239,244)"/><path d=" M 133.714 81.101 L 125.264 81.101 L 125.264 80.978 L 125.264 80.978 Q 125.326 80.824 125.357 80.515 L 125.357 80.515 L 125.357 80.515 Q 125.388 80.207 125.388 79.96 L 125.388 79.96 L 125.388 79.96 Q 125.388 79.004 125.126 77.848 L 125.126 77.848 L 125.126 77.848 Q 124.863 76.692 124.123 74.965 L 124.123 74.965 L 120.392 66.577 L 120.392 66.577 Q 118.665 66.515 115.797 66.515 L 115.797 66.515 L 115.797 66.515 Q 112.93 66.515 109.599 66.515 L 109.599 66.515 L 109.599 66.515 Q 107.163 66.515 104.897 66.515 L 104.897 66.515 L 104.897 66.515 Q 102.63 66.515 100.811 66.577 L 100.811 66.577 L 97.264 74.718 L 97.264 74.718 Q 96.802 75.859 96.278 77.216 L 96.278 77.216 L 96.278 77.216 Q 95.753 78.573 95.753 79.96 L 95.753 79.96 L 95.753 79.96 Q 95.753 80.361 95.815 80.623 L 95.815 80.623 L 95.815 80.623 Q 95.877 80.885 95.938 80.978 L 95.938 80.978 L 95.938 81.101 L 89.648 81.101 L 89.648 80.978 L 89.648 80.978 Q 90.203 80.392 91.035 78.896 L 91.035 78.896 L 91.035 78.896 Q 91.868 77.401 92.855 75.15 L 92.855 75.15 L 110.524 35.956 L 112.991 35.956 L 129.736 73.639 L 129.736 73.639 Q 130.322 74.965 130.954 76.214 L 130.954 76.214 L 130.954 76.214 Q 131.586 77.462 132.141 78.449 L 132.141 78.449 L 132.141 78.449 Q 132.696 79.436 133.128 80.114 L 133.128 80.114 L 133.128 80.114 Q 133.56 80.793 133.714 80.978 L 133.714 80.978 L 133.714 81.101 Z  M 101.952 63.863 L 105.282 63.863 L 105.282 63.863 Q 107.071 63.863 108.952 63.848 L 108.952 63.848 L 108.952 63.848 Q 110.833 63.833 112.637 63.817 L 112.637 63.817 L 112.637 63.817 Q 114.441 63.802 116.106 63.786 L 116.106 63.786 L 116.106 63.786 Q 117.771 63.771 119.128 63.74 L 119.128 63.74 L 110.463 44.159 L 101.952 63.863 Z  M 143.211 47.057 L 143.211 51.097 L 143.211 51.097 Q 145.154 50.048 147.374 49.509 L 147.374 49.509 L 147.374 49.509 Q 149.595 48.969 151.907 48.969 L 151.907 48.969 L 151.907 48.969 Q 155.33 48.969 158.244 50.126 L 158.244 50.126 L 158.244 50.126 Q 161.159 51.282 163.286 53.41 L 163.286 53.41 L 163.286 53.41 Q 165.414 55.537 166.617 58.59 L 166.617 58.59 L 166.617 58.59 Q 167.819 61.643 167.819 65.436 L 167.819 65.436 L 167.819 65.436 Q 167.819 68.612 166.725 71.542 L 166.725 71.542 L 166.725 71.542 Q 165.63 74.471 163.456 76.722 L 163.456 76.722 L 163.456 76.722 Q 161.282 78.973 158.059 80.315 L 158.059 80.315 L 158.059 80.315 Q 154.837 81.656 150.581 81.656 L 150.581 81.656 L 150.581 81.656 Q 150.088 81.656 149.271 81.625 L 149.271 81.625 L 149.271 81.625 Q 148.454 81.595 147.467 81.502 L 147.467 81.502 L 147.467 81.502 Q 146.48 81.41 145.37 81.255 L 145.37 81.255 L 145.37 81.255 Q 144.26 81.101 143.211 80.854 L 143.211 80.854 L 143.211 80.854 Q 141.731 80.515 140.236 80.099 L 140.236 80.099 L 140.236 80.099 Q 138.74 79.683 137.383 79.158 L 137.383 79.158 L 137.383 79.158 Q 137.507 78.696 137.599 77.601 L 137.599 77.601 L 137.599 77.601 Q 137.692 76.506 137.738 75.242 L 137.738 75.242 L 137.738 75.242 Q 137.784 73.978 137.815 72.76 L 137.815 72.76 L 137.815 72.76 Q 137.846 71.542 137.846 70.802 L 137.846 70.802 L 137.846 47.057 L 137.846 47.057 Q 137.846 44.436 137.769 42.478 L 137.769 42.478 L 137.769 42.478 Q 137.692 40.52 137.584 39.101 L 137.584 39.101 L 137.584 39.101 Q 137.476 37.683 137.306 36.727 L 137.306 36.727 L 137.306 36.727 Q 137.137 35.771 136.952 35.123 L 136.952 35.123 L 136.952 35 L 144.075 35 L 144.075 35.123 L 144.075 35.123 Q 143.89 35.771 143.736 36.727 L 143.736 36.727 L 143.736 36.727 Q 143.582 37.683 143.458 39.101 L 143.458 39.101 L 143.458 39.101 Q 143.335 40.52 143.273 42.478 L 143.273 42.478 L 143.273 42.478 Q 143.211 44.436 143.211 47.057 L 143.211 47.057 Z  M 143.211 54.951 L 143.211 70.308 L 143.211 70.308 Q 143.211 72.806 143.258 74.44 L 143.258 74.44 L 143.258 74.44 Q 143.304 76.075 143.396 77.062 L 143.396 77.062 L 143.396 77.062 Q 144.692 78.048 146.912 78.727 L 146.912 78.727 L 146.912 78.727 Q 149.132 79.405 151.784 79.405 L 151.784 79.405 L 151.784 79.405 Q 153.974 79.405 155.793 78.542 L 155.793 78.542 L 155.793 78.542 Q 157.612 77.678 158.907 76.044 L 158.907 76.044 L 158.907 76.044 Q 160.203 74.41 160.927 72.066 L 160.927 72.066 L 160.927 72.066 Q 161.652 69.722 161.652 66.762 L 161.652 66.762 L 161.652 66.762 Q 161.652 63.432 161.035 60.579 L 161.035 60.579 L 161.035 60.579 Q 160.418 57.727 159.123 55.645 L 159.123 55.645 L 159.123 55.645 Q 157.828 53.564 155.824 52.392 L 155.824 52.392 L 155.824 52.392 Q 153.819 51.22 151.044 51.22 L 151.044 51.22 L 151.044 51.22 Q 148.7 51.22 146.665 52.176 L 146.665 52.176 L 146.665 52.176 Q 144.63 53.132 143.211 54.951 L 143.211 54.951 Z  M 199.982 74.348 L 200.352 74.533 L 198.07 80.022 L 198.07 80.022 Q 197.238 80.392 196.158 80.7 L 196.158 80.7 L 196.158 80.7 Q 195.079 81.009 193.923 81.225 L 193.923 81.225 L 193.923 81.225 Q 192.766 81.44 191.595 81.548 L 191.595 81.548 L 191.595 81.548 Q 190.423 81.656 189.374 81.656 L 189.374 81.656 L 189.374 81.656 Q 185.643 81.656 182.482 80.562 L 182.482 80.562 L 182.482 80.562 Q 179.321 79.467 177.024 77.37 L 177.024 77.37 L 177.024 77.37 Q 174.727 75.273 173.432 72.22 L 173.432 72.22 L 173.432 72.22 Q 172.136 69.167 172.136 65.251 L 172.136 65.251 L 172.136 65.251 Q 172.136 61.766 173.478 58.791 L 173.478 58.791 L 173.478 58.791 Q 174.819 55.815 177.209 53.625 L 177.209 53.625 L 177.209 53.625 Q 179.599 51.436 182.837 50.203 L 182.837 50.203 L 182.837 50.203 Q 186.075 48.969 189.868 48.969 L 189.868 48.969 L 189.868 48.969 Q 191.595 48.969 193.568 49.262 L 193.568 49.262 L 193.568 49.262 Q 195.542 49.555 197.084 50.018 L 197.084 50.018 L 199.273 55.26 L 198.903 55.476 L 198.903 55.476 Q 198.132 54.52 197.068 53.733 L 197.068 53.733 L 197.068 53.733 Q 196.004 52.947 194.725 52.392 L 194.725 52.392 L 194.725 52.392 Q 193.445 51.837 192.026 51.529 L 192.026 51.529 L 192.026 51.529 Q 190.608 51.22 189.128 51.22 L 189.128 51.22 L 189.128 51.22 Q 186.722 51.22 184.749 52.068 L 184.749 52.068 L 184.749 52.068 Q 182.775 52.916 181.357 54.52 L 181.357 54.52 L 181.357 54.52 Q 179.938 56.123 179.152 58.451 L 179.152 58.451 L 179.152 58.451 Q 178.366 60.78 178.366 63.74 L 178.366 63.74 L 178.366 63.74 Q 178.366 67.07 179.121 69.938 L 179.121 69.938 L 179.121 69.938 Q 179.877 72.806 181.372 74.918 L 181.372 74.918 L 181.372 74.918 Q 182.868 77.031 185.134 78.218 L 185.134 78.218 L 185.134 78.218 Q 187.401 79.405 190.454 79.405 L 190.454 79.405 L 190.454 79.405 Q 191.872 79.405 193.275 79.051 L 193.275 79.051 L 193.275 79.051 Q 194.678 78.696 195.927 78.033 L 195.927 78.033 L 195.927 78.033 Q 197.176 77.37 198.225 76.445 L 198.225 76.445 L 198.225 76.445 Q 199.273 75.52 199.982 74.348 L 199.982 74.348 Z " fill-rule="evenodd" fill="rgb(236,239,244)"/><g opacity="0.4"><linearGradient id="_lgradient_4" x1="51.666666666666686%" y1="0%" x2="51.66666666666666%" y2="100.00000000000003%"><stop offset="0%" stop-opacity="1" style="stop-color:rgb(255,255,255)"/><stop offset="12.5%" stop-opacity="0.09803922" style="stop-color:rgb(255,255,255)"/><stop offset="92.500001%" stop-opacity="0.09803922" style="stop-color:rgb(0,0,0)"/><stop offset="100%" stop-opacity="0.49803922" style="stop-color:rgb(0,0,0)"/></linearGradient><path d=" M 165.685 11.947 C 239.74 11.947 250.324 22.504 250.324 96.491 L 250.324 155.742 C 250.324 229.728 239.74 240.285 165.685 240.285 L 90.315 240.285 C 16.26 240.285 5.676 229.728 5.676 155.742 L 5.676 96.491 C 5.676 22.504 16.26 11.947 90.315 11.947 L 165.685 11.947 Z " fill="none" vector-effect="non-scaling-stroke" stroke-width="4.077" stroke="url(#_lgradient_4)" stroke-linejoin="round" stroke-linecap="round" stroke-miterlimit="4"/></g></g></svg>