<?xml version="1.0" standalone="no"?><!-- Generator: Gravit.io --><svg xmlns="http://www.w3.org/2000/svg" xmlns:xlink="http://www.w3.org/1999/xlink" style="isolation:isolate" viewBox="0 0 256 256" width="256" height="256"><defs><clipPath id="_clipPath_qIxQngEgcTDK3eDDKX0PMaLatvI9apjY"><rect width="256" height="256"/></clipPath></defs><g clip-path="url(#_clipPath_qIxQngEgcTDK3eDDKX0PMaLatvI9apjY)"><g id="Group"><g opacity="0.1"><path d=" M 162.537 16.432 C 235.185 16.432 245.568 26.789 245.568 99.369 L 245.568 157.494 C 245.568 230.075 235.185 240.432 162.537 240.432 L 88.599 240.432 C 15.951 240.432 5.568 230.075 5.568 157.494 L 5.568 99.369 C 5.568 26.789 15.951 16.432 88.599 16.432 L 162.537 16.432 Z " fill="none" vector-effect="non-scaling-stroke" stroke-width="4" stroke="rgb(0,0,0)" stroke-linejoin="round" stroke-linecap="round" stroke-miterlimit="4"/></g><defs><filter id="hxKywQG0aSrx3Yf4C9Ckt9YdtjECQ8DL" x="-200%" y="-200%" width="400%" height="400%"><feGaussianBlur xmlns="http://www.w3.org/2000/svg" stdDeviation="1.16"/></filter></defs><g opacity="0.1" filter="url(#hxKywQG0aSrx3Yf4C9Ckt9YdtjECQ8DL)"><path d=" M 162.537 16.432 C 235.185 16.432 245.568 26.789 245.568 99.37 L 245.568 157.495 C 245.568 230.075 235.185 240.432 162.537 240.432 L 88.599 240.432 C 15.951 240.432 5.568 230.075 5.568 157.495 L 5.568 99.37 C 5.568 26.789 15.951 16.432 88.599 16.432 L 162.537 16.432 Z " fill="rgb(0,0,0)"/></g><defs><filter id="wsUDpVWT26n3b3bSBlVxFQc6WOYyegGE" x="-200%" y="-200%" width="400%" height="400%"><feGaussianBlur xmlns="http://www.w3.org/2000/svg" stdDeviation="2.32"/></filter></defs><g opacity="0.2" filter="url(#wsUDpVWT26n3b3bSBlVxFQc6WOYyegGE)"><path d=" M 162.537 18.432 C 235.185 18.432 245.568 28.789 245.568 101.37 L 245.568 159.495 C 245.568 232.075 235.185 242.432 162.537 242.432 L 88.599 242.432 C 15.951 242.432 5.568 232.075 5.568 159.495 L 5.568 101.37 C 5.568 28.789 15.951 18.432 88.599 18.432 L 162.537 18.432 Z " fill="rgb(0,0,0)"/></g><linearGradient id="_lgradient_0" x1="3.7829598117400165%" y1="-2.188962097414393%" x2="97.1795240947803%" y2="91.19908523274188%"><stop offset="0%" stop-opacity="1" style="stop-color:rgb(33,201,251)"/><stop offset="100%" stop-opacity="1" style="stop-color:rgb(26,134,242)"/></linearGradient><path d=" M 162.537 16.432 C 235.185 16.432 245.568 26.789 245.568 99.369 L 245.568 157.494 C 245.568 230.075 235.185 240.432 162.537 240.432 L 88.599 240.432 C 15.951 240.432 5.568 230.075 5.568 157.494 L 5.568 99.369 C 5.568 26.789 15.951 16.432 88.599 16.432 L 162.537 16.432 Z " fill="url(#_lgradient_0)"/><linearGradient id="_lgradient_1" x1="5.971049556663958%" y1="-5.07494936379409%" x2="89.86328724975388%" y2="93.08117423614421%"><stop offset="1.7391304347826086%" stop-opacity="1" style="stop-color:rgb(226,226,226)"/><stop offset="100%" stop-opacity="1" style="stop-color:rgb(251,251,251)"/></linearGradient><path d=" M 195.477 209.34 C 193.908 209.109 192.579 208.412 191.502 207.257 C 189.127 204.71 185.223 197.225 182.018 189.079 C 180.219 184.506 176.776 174.437 176.776 173.75 C 176.776 173.533 179.048 172.033 181.824 170.416 L 186.872 167.476 L 187.665 168.22 C 190.799 171.162 199.828 184.648 205.091 194.25 C 207.197 198.09 207.408 198.638 207.4 200.221 C 207.389 202.33 206.725 203.803 204.849 205.89 C 202.6 208.391 198.723 209.819 195.477 209.34 L 195.477 209.34 Z  M 45.449 206.834 C 45.544 206.576 47.08 199.647 48.863 191.436 C 50.646 183.225 52.144 176.457 52.191 176.396 C 52.351 176.189 68.481 187.504 68.478 187.821 C 68.476 187.993 63.814 192.001 58.117 196.726 C 45.291 207.365 45.238 207.407 45.449 206.834 Z  M 62.531 177.865 C 58.037 174.757 54.395 172.083 54.439 171.923 C 54.543 171.54 93.154 106.182 93.473 105.849 C 93.648 105.666 110.52 116.274 111.31 117.065 C 111.481 117.236 71.335 183.369 71.017 183.443 C 70.844 183.483 67.025 180.973 62.531 177.865 Z  M 168.503 160.593 C 165.422 155.399 162.946 151.116 163.003 151.077 C 163.551 150.69 175.226 143.978 175.351 143.978 C 175.545 143.978 185.345 163.5 185.202 163.6 C 183.938 164.482 174.583 170.06 174.385 170.051 C 174.231 170.044 171.584 165.788 168.503 160.593 L 168.503 160.593 Z  M 41.796 159.614 C 41.689 158.707 41.643 151.392 41.694 143.36 L 41.788 128.756 L 57.974 128.857 C 66.877 128.908 74.198 128.989 74.243 129.034 C 74.289 129.074 70.005 136.349 64.723 145.191 L 55.12 161.268 L 48.555 161.268 L 41.991 161.268 L 41.796 159.614 Z  M 90.346 160.798 C 90.346 160.718 94.742 153.431 100.116 144.612 L 109.886 128.577 L 127.226 128.577 L 144.565 128.577 L 153.835 144.016 C 158.933 152.508 163.286 159.791 163.507 160.202 L 163.91 160.949 L 127.128 160.949 C 106.898 160.949 90.346 160.879 90.346 160.798 L 90.346 160.798 Z  M 184.963 153.956 C 183.096 150.11 179.581 142.897 177.153 137.928 L 172.739 128.892 L 184.736 128.891 C 191.335 128.89 199.598 128.8 203.098 128.684 L 209.463 128.478 L 209.463 144.714 L 209.463 160.95 L 198.91 160.95 L 188.358 160.95 L 184.963 153.957 L 184.963 153.956 Z  M 158.176 143.585 C 151.069 132.388 143.83 119.234 135.13 101.705 C 128.228 87.8 121.586 73.425 118.845 66.459 C 114.874 56.367 113.926 50.094 116.283 49.503 C 120.053 48.556 127.433 57.12 137.938 74.631 C 146.167 88.349 159.335 112.321 169.383 131.877 C 171.248 135.507 173.106 139.065 173.513 139.782 L 174.252 141.087 L 167.99 144.732 C 164.545 146.737 161.613 148.378 161.473 148.378 C 161.332 148.378 159.849 146.221 158.176 143.585 L 158.176 143.585 Z  M 103.773 108.891 L 95.042 103.136 L 95.867 101.83 C 96.32 101.112 98.607 97.466 100.948 93.729 C 103.29 89.991 105.242 86.889 105.287 86.835 C 105.332 86.784 109.264 89.301 114.026 92.436 L 122.684 98.135 L 121.396 100.235 C 120.687 101.389 118.555 104.88 116.657 107.991 C 114.76 111.103 113.049 113.873 112.855 114.148 C 112.552 114.579 111.306 113.858 103.773 108.891 L 103.773 108.891 Z  M 114.916 90.204 C 110.391 87.249 106.689 84.691 106.689 84.519 C 106.689 83.273 110.43 79.804 112.273 79.341 C 115.306 78.581 120.281 80.526 123.052 83.558 C 125.194 85.901 125.663 87.047 125.463 89.447 C 125.312 91.258 123.836 95.577 123.368 95.577 C 123.244 95.577 119.44 93.159 114.916 90.204 L 114.916 90.204 Z " fill="url(#_lgradient_1)"/><defs><filter id="4Iu3NiOoobTsK0GbvmEfp2CL9QYwVIjp" x="-200%" y="-200%" width="400%" height="400%"><feGaussianBlur xmlns="http://www.w3.org/2000/svg" stdDeviation="1.5307812"/></filter></defs><g opacity="0.1" filter="url(#4Iu3NiOoobTsK0GbvmEfp2CL9QYwVIjp)"><path d=" M 113.443 55.432 C 78.145 55.432 49.443 84.134 49.443 119.432 C 49.443 154.73 78.145 183.432 113.443 183.432 C 128.895 183.432 143.082 177.93 154.152 168.784 L 161.043 175.674 L 159.629 177.088 L 191.129 208.588 L 202.443 197.276 L 170.943 165.776 L 169.529 167.19 L 162.648 160.309 C 171.88 149.215 177.443 134.964 177.443 119.432 C 177.443 84.134 148.741 55.432 113.443 55.432 L 113.443 55.432 Z  M 113.443 63.569 C 144.344 63.569 169.308 88.531 169.308 119.432 C 169.308 150.333 144.344 175.297 113.443 175.297 C 82.542 175.297 57.578 150.333 57.578 119.432 C 57.578 88.531 82.542 63.569 113.443 63.569 L 113.443 63.569 Z " fill="rgb(0,0,0)"/></g><g id="magnifying glass"><g id="g1131"><line x1="169.286" y1="172.432" x2="157.286" y2="160.432" vector-effect="non-scaling-stroke" stroke-width="12" stroke="rgb(136,136,136)" stroke-linejoin="miter" stroke-linecap="butt" stroke-miterlimit="4"/><line x1="196.786" y1="199.932" x2="165.286" y2="168.432" vector-effect="non-scaling-stroke" stroke-width="16" stroke="rgb(59,59,59)" stroke-linejoin="miter" stroke-linecap="butt" stroke-miterlimit="4"/></g><path d=" M 53.511 116.432 C 53.511 83.355 80.366 56.5 113.443 56.5 C 146.52 56.5 173.375 83.355 173.375 116.432 C 173.375 149.51 146.52 176.365 113.443 176.365 C 80.366 176.365 53.511 149.51 53.511 116.432 Z " fill="rgb(255,255,255)" fill-opacity="0.54292345" vector-effect="non-scaling-stroke" stroke-width="8.136" stroke="rgb(102,102,102)" stroke-linejoin="miter" stroke-linecap="butt" stroke-miterlimit="4"/></g><g opacity="0.5"><linearGradient id="_lgradient_2" x1="51.666666666666686%" y1="0%" x2="51.66666666666666%" y2="100.00000000000003%"><stop offset="0%" stop-opacity="1" style="stop-color:rgb(255,255,255)"/><stop offset="12.5%" stop-opacity="0.09803922" style="stop-color:rgb(255,255,255)"/><stop offset="92.500001%" stop-opacity="0" style="stop-color:rgb(0,0,0)"/><stop offset="100%" stop-opacity="0" style="stop-color:rgb(0,0,0)"/></linearGradient><path d=" M 162.537 16.432 C 235.185 16.432 245.568 26.789 245.568 99.37 L 245.568 157.495 C 245.568 230.075 235.185 240.432 162.537 240.432 L 88.599 240.432 C 15.951 240.432 5.568 230.075 5.568 157.495 L 5.568 99.37 C 5.568 26.789 15.951 16.432 88.599 16.432 L 162.537 16.432 Z " fill="none" vector-effect="non-scaling-stroke" stroke-width="4" stroke="url(#_lgradient_2)" stroke-linejoin="round" stroke-linecap="round" stroke-miterlimit="4"/></g></g></g></svg>