<?xml version="1.0" standalone="no"?><!-- Generator: Gravit.io --><svg xmlns="http://www.w3.org/2000/svg" xmlns:xlink="http://www.w3.org/1999/xlink" style="isolation:isolate" viewBox="0 0 256 256" width="256" height="256"><defs><clipPath id="_clipPath_LmC4hC6brgcrtmjgSJmnt43CfkHhlRuD"><rect width="256" height="256"/></clipPath></defs><g clip-path="url(#_clipPath_LmC4hC6brgcrtmjgSJmnt43CfkHhlRuD)"><g id="Group"><defs><filter id="vxKVSh7h22c7G5QQqAKChtUN7Itzggfm" x="-200%" y="-200%" width="400%" height="400%"><feGaussianBlur xmlns="http://www.w3.org/2000/svg" stdDeviation="1.16"/></filter></defs><g opacity="0.1" filter="url(#vxKVSh7h22c7G5QQqAKChtUN7Itzggfm)"><path d=" M 165.685 11.947 C 239.74 11.947 250.324 22.504 250.324 96.491 L 250.324 155.742 C 250.324 229.728 239.74 240.285 165.685 240.285 L 90.315 240.285 C 16.26 240.285 5.676 229.728 5.676 155.742 L 5.676 96.491 C 5.676 22.504 16.26 11.947 90.315 11.947 L 165.685 11.947 Z " fill="rgb(0,0,0)"/></g><defs><filter id="haLMvLkd8IqoEzGtRpI2LXkrxO4jJjpq" x="-200%" y="-200%" width="400%" height="400%"><feGaussianBlur xmlns="http://www.w3.org/2000/svg" stdDeviation="2.32"/></filter></defs><g opacity="0.2" filter="url(#haLMvLkd8IqoEzGtRpI2LXkrxO4jJjpq)"><path d=" M 165.685 13.986 C 239.74 13.986 250.324 24.543 250.324 98.53 L 250.324 157.78 C 250.324 231.767 239.74 242.324 165.685 242.324 L 90.315 242.324 C 16.26 242.324 5.676 231.767 5.676 157.78 L 5.676 98.53 C 5.676 24.543 16.26 13.986 90.315 13.986 L 165.685 13.986 Z " fill="rgb(0,0,0)"/></g><linearGradient id="_lgradient_0" x1="49.999996477669384%" y1="-3.5714267459455495%" x2="49.99999647766936%" y2="103.5714352207267%"><stop offset="0.8695652173913043%" stop-opacity="1" style="stop-color:rgb(217,200,19)"/><stop offset="97.82608695652173%" stop-opacity="1" style="stop-color:rgb(195,184,84)"/></linearGradient><path d=" M 165.685 11.947 C 239.74 11.947 250.324 22.504 250.324 96.491 L 250.324 155.742 C 250.324 229.728 239.74 240.285 165.685 240.285 L 90.315 240.285 C 16.26 240.285 5.676 229.728 5.676 155.742 L 5.676 96.491 C 5.676 22.504 16.26 11.947 90.315 11.947 L 165.685 11.947 Z " fill="url(#_lgradient_0)"/><g opacity="0.1"><path d=" M 128 11.947 L 128 240.285 L 165.685 240.285 C 239.74 240.285 250.324 229.728 250.324 155.742 L 250.324 96.491 C 250.324 22.504 239.74 11.947 165.685 11.947 L 128 11.947 Z " fill="rgb(255,255,255)"/></g><g opacity="0.1"><path d=" M 128 11.947 L 128 20.102 L 136.155 20.102 L 136.155 11.947 L 128 11.947 Z  M 128 20.102 L 119.845 20.102 L 119.845 28.257 L 128 28.257 L 128 20.102 Z  M 128 28.257 L 128 36.412 L 136.155 36.412 L 136.155 28.257 L 128 28.257 Z  M 128 36.412 L 119.845 36.412 L 119.845 44.567 L 128 44.567 L 128 36.412 Z  M 128 44.567 L 128 52.722 L 136.155 52.722 L 136.155 44.567 L 128 44.567 Z  M 128 52.722 L 119.845 52.722 L 119.845 60.877 L 128 60.877 L 128 52.722 Z  M 128 60.877 L 128 69.032 L 136.155 69.032 L 136.155 60.877 L 128 60.877 Z  M 128 69.032 L 119.845 69.032 L 119.845 77.187 L 128 77.187 L 128 69.032 Z  M 128 77.187 L 128 85.341 L 136.155 85.341 L 136.155 77.187 L 128 77.187 Z  M 128 85.341 L 119.845 85.341 L 119.845 93.496 L 128 93.496 L 128 85.341 Z  M 128 93.496 L 128 101.651 L 136.155 101.651 L 136.155 93.496 L 128 93.496 Z  M 128 101.651 L 119.845 101.651 L 119.845 109.806 L 128 109.806 L 128 101.651 Z  M 128 109.806 L 128 117.961 L 136.155 117.961 L 136.155 109.806 L 128 109.806 Z " fill="rgb(0,0,0)"/></g><defs><filter id="wOjtl8XLiwZbSpmZMr4kG75JVn3WGCsd" x="-200%" y="-200%" width="400%" height="400%"><feGaussianBlur xmlns="http://www.w3.org/2000/svg" stdDeviation="1.8500000000000003"/></filter></defs><g opacity="0.2" filter="url(#wOjtl8XLiwZbSpmZMr4kG75JVn3WGCsd)"><path d=" M 119.845 13.986 L 119.845 22.141 L 128 22.141 L 128 13.986 L 119.845 13.986 Z  M 128 22.141 L 128 30.296 L 136.155 30.296 L 136.155 22.141 L 128 22.141 Z  M 128 30.296 L 119.845 30.296 L 119.845 38.451 L 128 38.451 L 128 30.296 Z  M 128 38.451 L 128 46.605 L 136.155 46.605 L 136.155 38.451 L 128 38.451 Z  M 128 46.605 L 119.845 46.605 L 119.845 54.76 L 128 54.76 L 128 46.605 Z  M 128 54.76 L 128 62.915 L 136.155 62.915 L 136.155 54.76 L 128 54.76 Z  M 128 62.915 L 119.845 62.915 L 119.845 71.07 L 128 71.07 L 128 62.915 Z  M 128 71.07 L 128 79.225 L 136.155 79.225 L 136.155 71.07 L 128 71.07 Z  M 128 79.225 L 119.845 79.225 L 119.845 87.38 L 128 87.38 L 128 79.225 Z  M 128 87.38 L 128 95.535 L 136.155 95.535 L 136.155 87.38 L 128 87.38 Z  M 128 95.535 L 119.845 95.535 L 119.845 103.69 L 128 103.69 L 128 95.535 Z  M 128 103.69 L 128 111.845 L 136.155 111.845 L 136.155 103.69 L 128 103.69 Z  M 128 111.845 L 119.845 111.845 L 119.845 120 L 119.845 150.581 C 119.845 151.71 120.754 152.62 121.884 152.62 L 134.116 152.62 C 135.246 152.62 136.155 151.71 136.155 150.581 L 136.155 120 L 128 120 L 128 111.845 Z  M 123.923 140.387 L 132.077 140.387 L 132.077 148.542 L 123.923 148.542 L 123.923 140.387 Z " fill="rgb(0,0,0)"/></g><path d=" M 119.845 117.961 L 119.845 148.542 C 119.845 149.672 120.754 150.581 121.884 150.581 L 134.116 150.581 C 135.246 150.581 136.155 149.672 136.155 148.542 L 136.155 117.961 L 119.845 117.961 Z  M 123.923 138.349 L 132.077 138.349 L 132.077 146.504 L 123.923 146.504 L 123.923 138.349 Z " fill="rgb(250,248,246)"/><path d=" M 128 11.947 L 128 20.102 L 119.845 20.102 L 119.845 11.947 L 128 11.947 Z  M 128 20.102 L 136.155 20.102 L 136.155 28.257 L 128 28.257 L 128 20.102 Z  M 128 28.257 L 128 36.412 L 119.845 36.412 L 119.845 28.257 L 128 28.257 Z  M 128 36.412 L 136.155 36.412 L 136.155 44.567 L 128 44.567 L 128 36.412 Z  M 128 44.567 L 128 52.722 L 119.845 52.722 L 119.845 44.567 L 128 44.567 Z  M 128 52.722 L 136.155 52.722 L 136.155 60.877 L 128 60.877 L 128 52.722 Z  M 128 60.877 L 128 69.032 L 119.845 69.032 L 119.845 60.877 L 128 60.877 Z  M 128 69.032 L 136.155 69.032 L 136.155 77.187 L 128 77.187 L 128 69.032 Z  M 128 77.187 L 128 85.341 L 119.845 85.341 L 119.845 77.187 L 128 77.187 Z  M 128 85.341 L 136.155 85.341 L 136.155 93.496 L 128 93.496 L 128 85.341 Z  M 128 93.496 L 128 101.651 L 119.845 101.651 L 119.845 93.496 L 128 93.496 Z  M 128 101.651 L 136.155 101.651 L 136.155 109.806 L 128 109.806 L 128 101.651 Z  M 128 109.806 L 128 117.961 L 119.845 117.961 L 119.845 109.806 L 128 109.806 Z " fill="rgb(241,240,233)"/><g opacity="0.4"><linearGradient id="_lgradient_1" x1="51.666666666666686%" y1="0%" x2="51.66666666666666%" y2="100.00000000000003%"><stop offset="0%" stop-opacity="1" style="stop-color:rgb(255,255,255)"/><stop offset="12.5%" stop-opacity="0.09803922" style="stop-color:rgb(255,255,255)"/><stop offset="92.500001%" stop-opacity="0.09803922" style="stop-color:rgb(0,0,0)"/><stop offset="100%" stop-opacity="0.49803922" style="stop-color:rgb(0,0,0)"/></linearGradient><path d=" M 165.685 11.947 C 239.74 11.947 250.324 22.504 250.324 96.491 L 250.324 155.742 C 250.324 229.728 239.74 240.285 165.685 240.285 L 90.315 240.285 C 16.26 240.285 5.676 229.728 5.676 155.742 L 5.676 96.491 C 5.676 22.504 16.26 11.947 90.315 11.947 L 165.685 11.947 Z " fill="none" vector-effect="non-scaling-stroke" stroke-width="4.077" stroke="url(#_lgradient_1)" stroke-linejoin="round" stroke-linecap="round" stroke-miterlimit="4"/></g></g></g></svg>