<svg xmlns="http://www.w3.org/2000/svg" version="1.1" viewBox="0 0 32 32">
 <path style="fill:#2ecc71" d="M 16,4 C 14.541,9.107 10.97,13.498 9.394,17.01 8.843,18.055 8.5,19.228 8.5,20.496 8.5,24.651 11.845,27.996 16,27.996 20.155,27.996 23.5,24.651 23.5,20.496 23.5,19.228 23.158,18.055 22.606,17.01 21.031,13.495 17.459,9.104 16,4 M 19.425,15.575 C 20.982,16.657 22,18.452 22,20.5 22,23.824 19.324,26.5 16,26.5 13.953,26.5 12.157,25.481 11.075,23.925 12.046,24.6 13.223,25 14.5,25 17.824,25 20.5,22.324 20.5,19 20.5,17.723 20.099,16.546 19.425,15.575"/>
</svg>
