<?xml version="1.0" standalone="no"?><!-- Generator: Gravit.io --><svg xmlns="http://www.w3.org/2000/svg" xmlns:xlink="http://www.w3.org/1999/xlink" style="isolation:isolate" viewBox="0 0 256 256" width="256" height="256"><defs><filter id="bXDB3Ub4RAn8r4s3n2clLivDEcvMiZNe" x="-7.324" y="2.947" width="270.648" height="254.338" filterUnits="userSpaceOnUse"><feGaussianBlur xmlns="http://www.w3.org/2000/svg" in="SourceGraphic" stdDeviation="4.293609062839028"/><feOffset xmlns="http://www.w3.org/2000/svg" dx="0" dy="4" result="pf_100_offsetBlur"/><feFlood xmlns="http://www.w3.org/2000/svg" flood-color="#000000" flood-opacity="0.4"/><feComposite xmlns="http://www.w3.org/2000/svg" in2="pf_100_offsetBlur" operator="in" result="pf_100_dropShadow"/><feBlend xmlns="http://www.w3.org/2000/svg" in="SourceGraphic" in2="pf_100_dropShadow" mode="normal"/></filter></defs><g filter="url(#bXDB3Ub4RAn8r4s3n2clLivDEcvMiZNe)"><linearGradient id="_lgradient_35" x1="0.7333333039805784" y1="1.0714286580680752" x2="0.26666665461658845" y2="0.0047620309503841884" gradientTransform="matrix(244.648,0,0,228.338,5.676,11.947)" gradientUnits="userSpaceOnUse"><stop offset="0%" stop-opacity="1" style="stop-color:rgb(243,126,64)"/><stop offset="100%" stop-opacity="1" style="stop-color:rgb(243,79,23)"/></linearGradient><path d=" M 165.685 11.947 C 239.74 11.947 250.324 22.504 250.324 96.491 L 250.324 155.742 C 250.324 229.728 239.74 240.285 165.685 240.285 L 90.315 240.285 C 16.26 240.285 5.676 229.728 5.676 155.742 L 5.676 96.491 C 5.676 22.504 16.26 11.947 90.315 11.947 L 165.685 11.947 Z " id="shape" fill="url(#_lgradient_35)"/></g><g opacity="0.4"><linearGradient id="_lgradient_36" x1="0.5166666666666668" y1="0" x2="0.5166666666666666" y2="1.0000000000000002"><stop offset="0%" stop-opacity="1" style="stop-color:rgb(255,255,255)"/><stop offset="12.5%" stop-opacity="0.09803922" style="stop-color:rgb(255,255,255)"/><stop offset="92.500001%" stop-opacity="0.09803922" style="stop-color:rgb(0,0,0)"/><stop offset="100%" stop-opacity="0.49803922" style="stop-color:rgb(0,0,0)"/></linearGradient><path d=" M 165.685 11.947 C 239.74 11.947 250.324 22.504 250.324 96.491 L 250.324 155.742 C 250.324 229.728 239.74 240.285 165.685 240.285 L 90.315 240.285 C 16.26 240.285 5.676 229.728 5.676 155.742 L 5.676 96.491 C 5.676 22.504 16.26 11.947 90.315 11.947 L 165.685 11.947 Z " id="highlight" fill="none" vector-effect="non-scaling-stroke" stroke-width="4.077" stroke="url(#_lgradient_36)" stroke-linejoin="round" stroke-linecap="round" stroke-miterlimit="4"/></g><g id="application"><defs><filter id="0P5sSc7lrisKDTBM16XR247nMUgAqRDw" x="55.897" y="54.151" width="144.757" height="147.916" filterUnits="userSpaceOnUse"><feGaussianBlur xmlns="http://www.w3.org/2000/svg" stdDeviation="0.67258301"/></filter></defs><g opacity="0.1" filter="url(#0P5sSc7lrisKDTBM16XR247nMUgAqRDw)"><path d=" M 115.753 55.717 C 110.739 66.163 105.934 76.749 101.338 87.474 C 96.741 98.059 92.074 109.202 87.338 120.902 C 82.742 132.602 78.007 144.997 73.133 158.089 C 68.258 171.043 63.035 185.179 57.463 200.5 L 84.951 200.5 L 98.113 163.52 L 169.003 160.805 C 171.231 167.073 173.53 173.479 175.898 180.026 C 178.265 186.572 180.772 193.397 183.418 200.5 L 199.088 200.5 C 193.377 185.458 188.085 171.461 183.21 158.507 C 178.336 145.415 173.531 133.088 168.795 121.528 C 164.199 109.828 159.602 98.616 155.005 87.892 C 150.409 77.167 145.535 66.442 140.382 55.717 L 128 55.717 L 115.753 55.717 Z  M 133.695 72.015 C 138.988 83.993 144.142 96.178 149.156 108.574 C 154.171 120.97 159.323 134.341 164.616 148.687 L 103.964 146.807 C 108.282 134.69 112.6 122.991 116.918 111.71 C 120.476 102.59 124.175 93.795 128 85.297 L 128 85.135 C 129.882 80.737 131.776 76.358 133.695 72.015 L 133.695 72.015 Z " id="path1052" fill="rgb(0,0,0)"/></g><defs><filter id="9QQ0nn55mq8zalof3lnPFgNkq2njk0mk" x="41.799" y="40.053" width="172.954" height="176.112" filterUnits="userSpaceOnUse"><feGaussianBlur xmlns="http://www.w3.org/2000/svg" stdDeviation="6.7258301"/></filter></defs><g opacity="0.4" filter="url(#9QQ0nn55mq8zalof3lnPFgNkq2njk0mk)"><linearGradient id="_lgradient_37" x1="0.9791376140822348" y1="-0.014705882352941124" x2="0.9791376140822345" y2="1.0441176470588236" gradientTransform="matrix(141.624,0,0,144.783,57.463,55.717)" gradientUnits="userSpaceOnUse"><stop offset="0%" stop-opacity="0" style="stop-color:rgb(0,0,0)"/><stop offset="64.066887%" stop-opacity="1" style="stop-color:rgb(0,0,0)"/><stop offset="100%" stop-opacity="0" style="stop-color:rgb(0,0,0)"/></linearGradient><path d=" M 115.753 55.717 C 110.739 66.163 105.934 76.749 101.338 87.474 C 96.741 98.059 92.074 109.202 87.338 120.902 C 82.742 132.602 78.007 144.997 73.133 158.089 C 68.258 171.043 63.035 185.179 57.463 200.5 L 84.951 200.5 L 98.113 163.52 L 169.003 160.805 C 171.231 167.073 173.53 173.479 175.898 180.026 C 178.265 186.572 180.772 193.397 183.418 200.5 L 199.088 200.5 C 193.377 185.458 188.085 171.461 183.21 158.507 C 178.336 145.415 173.531 133.088 168.795 121.528 C 164.199 109.828 159.602 98.616 155.005 87.892 C 150.409 77.167 145.535 66.442 140.382 55.717 L 128 55.717 L 115.753 55.717 Z  M 133.695 72.015 C 138.988 83.993 144.142 96.178 149.156 108.574 C 154.171 120.97 159.323 134.341 164.616 148.687 L 103.964 146.807 C 108.282 134.69 112.6 122.991 116.918 111.71 C 120.476 102.59 124.175 93.795 128 85.297 L 128 85.135 C 129.882 80.737 131.776 76.358 133.695 72.015 L 133.695 72.015 Z " id="path1020" fill="url(#_lgradient_37)"/></g><path d=" M 115.753 53.588 C 110.739 64.034 105.934 74.62 101.338 85.345 C 96.741 95.93 92.074 107.073 87.338 118.773 C 82.742 130.472 78.007 142.868 73.133 155.96 C 68.258 168.913 63.035 183.05 57.463 198.371 L 84.951 198.371 L 98.113 161.391 L 169.003 158.676 C 171.231 164.943 173.53 171.35 175.898 177.896 C 178.265 184.443 180.772 191.268 183.418 198.371 L 199.088 198.371 C 193.377 183.329 188.085 169.331 183.21 156.378 C 178.336 143.286 173.531 130.959 168.795 119.399 C 164.199 107.699 159.602 96.487 155.005 85.763 C 150.409 75.038 145.535 64.313 140.382 53.588 L 128 53.588 L 115.753 53.588 Z  M 133.695 69.885 C 138.988 81.864 144.142 94.049 149.156 106.445 C 154.171 118.841 159.323 132.212 164.616 146.558 L 103.964 144.678 C 108.282 132.561 112.6 120.862 116.918 109.58 C 120.476 100.461 124.175 91.666 128 83.168 L 128 83.005 C 129.882 78.608 131.776 74.228 133.695 69.885 L 133.695 69.885 Z " id="text954" fill="rgb(255,249,242)"/><g opacity="0.1"><path d=" M 140.382 53.588 L 133.695 69.885 L 136.517 76.339 C 140.822 86.236 145.039 96.266 149.156 106.445 C 154.171 118.841 159.323 132.212 164.616 146.558 L 164.616 146.558 L 179.782 147.271 C 176.079 137.535 172.416 128.239 168.795 119.399 C 164.199 107.699 159.602 96.487 155.005 85.763 C 150.409 75.038 145.535 64.313 140.382 53.588 L 140.382 53.588 Z  M 136.517 157.232 L 169.003 158.676 C 171.231 164.943 173.53 171.35 175.898 177.896 C 178.265 184.443 180.772 191.268 183.418 198.371 L 199.088 198.371 C 193.377 183.329 188.085 169.331 183.21 156.378 C 183.136 156.178 183.062 155.987 182.988 155.788 L 136.517 157.232 Z " id="path972" fill="rgb(243,79,23)"/></g><defs><filter id="sOxS8P5rEJrnWuzGQzjymvtvCAja4yQY" x="54.677" y="139.952" width="146.646" height="27.413" filterUnits="userSpaceOnUse"><feGaussianBlur xmlns="http://www.w3.org/2000/svg" stdDeviation="0.4"/></filter></defs><g opacity="0.1" filter="url(#sOxS8P5rEJrnWuzGQzjymvtvCAja4yQY)"><path d=" M 68.384 140.884 L 187.616 140.884 C 194.667 140.884 200.391 146.608 200.391 153.659 L 200.391 153.659 C 200.391 160.709 194.667 166.434 187.616 166.434 L 68.384 166.434 C 61.333 166.434 55.609 160.709 55.609 153.659 L 55.609 153.659 C 55.609 146.608 61.333 140.884 68.384 140.884 Z " id="rect1040" fill="rgb(0,0,0)"/></g><path d=" M 68.384 138.754 L 187.616 138.754 C 194.667 138.754 200.391 144.479 200.391 151.529 L 200.391 151.529 C 200.391 158.58 194.667 164.304 187.616 164.304 L 68.384 164.304 C 61.333 164.304 55.609 158.58 55.609 151.529 L 55.609 151.529 C 55.609 144.479 61.333 138.754 68.384 138.754 Z " id="rect4270" fill="rgb(255,255,255)"/><g opacity="0.2"><path d=" M 110.967 147.271 L 187.616 147.271 C 189.967 147.271 191.875 149.179 191.875 151.529 L 191.875 151.529 C 191.875 153.88 189.967 155.788 187.616 155.788 L 110.967 155.788 C 108.617 155.788 106.708 153.88 106.708 151.529 L 106.708 151.529 C 106.708 149.179 108.617 147.271 110.967 147.271 Z " id="rect4272" fill="rgb(243,79,23)"/></g><path d=" M 68.384 147.271 L 145.033 147.271 C 147.383 147.271 149.292 149.179 149.292 151.529 L 149.292 151.529 C 149.292 153.88 147.383 155.788 145.033 155.788 L 68.384 155.788 C 66.033 155.788 64.125 153.88 64.125 151.529 L 64.125 151.529 C 64.125 149.179 66.033 147.271 68.384 147.271 Z " id="rect4301" fill="rgb(243,79,23)"/></g></svg>