<svg xmlns="http://www.w3.org/2000/svg" style="isolation:isolate" width="256" height="256" viewBox="0 0 256 256">
 <defs>
  <filter id="1xsgbZ6ZQVrnpvDuLHezgIuzYEH5Lv1J" width="270.648" height="254.338" x="-7.32" y="2.95" filterUnits="userSpaceOnUse">
   <feGaussianBlur xmlns="http://www.w3.org/2000/svg" in="SourceGraphic" stdDeviation="4.294"/>
   <feOffset xmlns="http://www.w3.org/2000/svg" dx="0" dy="4" result="pf_100_offsetBlur"/>
   <feFlood xmlns="http://www.w3.org/2000/svg" flood-opacity=".4"/>
   <feComposite xmlns="http://www.w3.org/2000/svg" in2="pf_100_offsetBlur" operator="in" result="pf_100_dropShadow"/>
   <feBlend xmlns="http://www.w3.org/2000/svg" in="SourceGraphic" in2="pf_100_dropShadow" mode="normal"/>
  </filter>
 </defs>
 <g filter="url(#1xsgbZ6ZQVrnpvDuLHezgIuzYEH5Lv1J)">
  <path fill="#37A6E6" d="M 165.685 11.947 C 239.74 11.947 250.324 22.504 250.324 96.491 L 250.324 155.742 C 250.324 229.728 239.74 240.285 165.685 240.285 L 90.315 240.285 C 16.26 240.285 5.676 229.728 5.676 155.742 L 5.676 96.491 C 5.676 22.504 16.26 11.947 90.315 11.947 L 165.685 11.947 Z"/>
 </g>
 <g>
  <defs>
   <filter id="y5LATVOIKPHcB3AHc2edxZ59SnYTDrLy" width="166.64" height="150.33" x="44.01" y="51.01" filterUnits="userSpaceOnUse">
    <feGaussianBlur xmlns="http://www.w3.org/2000/svg" stdDeviation=".76"/>
   </filter>
  </defs>
  <g opacity=".1" filter="url(#y5LATVOIKPHcB3AHc2edxZ59SnYTDrLy)">
   <path d="M 64.462 52.779 C 57.175 52.688 52.279 54.324 49.766 57.34 C 47.127 60.481 45.775 65.634 45.775 72.796 L 45.775 199.565 L 208.875 199.565 L 208.875 72.796 C 208.875 65.634 207.523 60.481 204.884 57.34 C 202.371 54.324 197.4 52.779 190.188 52.779 L 178.025 52.779 L 93.475 52.779 L 64.462 52.779 Z"/>
  </g>
  <path fill="#FAF8F6" d="M 64.462 52.779 C 57.175 52.688 52.279 54.324 49.766 57.34 C 47.127 60.481 45.775 65.634 45.775 72.796 L 45.775 199.565 L 208.875 199.565 L 208.875 72.796 C 208.875 65.634 207.523 60.481 204.884 57.34 C 202.371 54.324 197.4 52.779 190.188 52.779 L 178.025 52.779 L 93.475 52.779 L 64.462 52.779 Z"/>
  <g opacity=".5">
   <path fill="#1A7FD4" d="M 78.395 85.395 L 78.395 93.55 L 176.255 93.55 L 176.255 85.395 L 78.395 85.395 Z M 78.395 109.86 L 78.395 118.015 L 127.325 118.015 L 127.325 109.86 L 78.395 109.86 Z"/>
  </g>
  <path fill="none" d="M 89.64 12 C 15.584 12 5 22.557 5 96.544 L 5 155.796 C 5 229.782 15.584 240.34 89.64 240.34 L 165.01 240.34 C 239.066 240.34 249.65 229.782 249.65 155.796 L 249.65 96.544 C 249.65 22.557 239.066 12 165.01 12 L 89.64 12 Z"/>
  <defs>
   <filter id="KLOFsxSt2E50AFknBpCze26ZjV2Obczb" width="257.216" height="148.398" x="-1.28" y="98.22" filterUnits="userSpaceOnUse">
    <feGaussianBlur xmlns="http://www.w3.org/2000/svg" stdDeviation="2.698"/>
   </filter>
  </defs>
  <g opacity=".2" filter="url(#KLOFsxSt2E50AFknBpCze26ZjV2Obczb)">
   <linearGradient id="_lgradient_12" x1="1.133" x2="-.133" y1=".7" y2=".7" gradientTransform="matrix(244.65,0,0,135.832,5,104.508)" gradientUnits="userSpaceOnUse">
    <stop offset="0%" stop-opacity=".091" style="stop-color:rgb(0,0,0)"/>
    <stop offset="50%" stop-opacity=".848" style="stop-color:rgb(0,0,0)"/>
    <stop offset="100%" stop-opacity="0" style="stop-color:rgb(0,0,0)"/>
   </linearGradient>
   <path fill="url(#_lgradient_12)" fill-rule="evenodd" d="M 5 104.508 L 5 155.795 C 5 165.044 5.166 173.301 5.6 180.67 C 5.817 184.355 6.101 187.817 6.466 191.071 C 6.83 194.325 7.274 197.371 7.812 200.22 C 8.349 203.068 8.979 205.72 9.715 208.19 C 10.451 210.659 11.293 212.945 12.253 215.06 C 13.214 217.176 14.295 219.12 15.507 220.908 C 16.718 222.696 18.06 224.328 19.548 225.814 C 21.036 227.3 22.67 228.639 24.46 229.849 C 26.25 231.059 28.197 232.139 30.316 233.098 C 32.434 234.058 34.722 234.898 37.194 235.633 C 39.666 236.368 42.321 236.998 45.172 237.534 C 48.024 238.071 51.071 238.515 54.329 238.878 C 57.586 239.242 61.053 239.526 64.741 239.742 C 72.118 240.176 80.383 240.34 89.64 240.34 L 165.01 240.34 C 174.267 240.34 182.533 240.176 189.909 239.742 C 193.598 239.526 197.063 239.242 200.32 238.878 C 203.577 238.515 206.625 238.071 209.477 237.534 C 212.328 236.998 214.985 236.368 217.456 235.633 C 219.928 234.898 222.217 234.058 224.335 233.098 C 226.453 232.139 228.401 231.059 230.191 229.849 C 231.981 228.639 233.613 227.3 235.1 225.814 C 236.588 224.328 237.933 222.696 239.144 220.908 C 240.356 219.12 241.434 217.176 242.395 215.06 C 243.356 212.945 244.2 210.659 244.936 208.19 C 245.672 205.72 246.302 203.068 246.839 200.22 C 247.376 197.371 247.821 194.325 248.185 191.071 C 248.549 187.817 248.834 184.355 249.051 180.67 C 249.485 173.301 249.65 165.044 249.65 155.795 L 249.65 104.508 L 127.325 158.79 L 5 104.508 Z"/>
  </g>
  <path fill="#6DC7F1" fill-rule="evenodd" d="M 5 101.45 L 5 155.795 C 5 165.044 5.166 173.301 5.6 180.67 C 5.817 184.355 6.101 187.817 6.466 191.071 C 6.83 194.325 7.274 197.371 7.812 200.22 C 8.349 203.068 8.979 205.72 9.715 208.19 C 10.451 210.659 11.293 212.945 12.253 215.06 C 13.214 217.176 14.295 219.12 15.507 220.908 C 16.718 222.696 18.06 224.328 19.548 225.814 C 21.036 227.3 22.67 228.639 24.46 229.849 C 26.25 231.059 28.197 232.139 30.316 233.098 C 32.434 234.058 34.722 234.898 37.194 235.633 C 39.666 236.368 42.321 236.998 45.172 237.534 C 48.024 238.071 51.071 238.515 54.329 238.878 C 57.586 239.242 61.053 239.526 64.741 239.742 C 72.118 240.176 80.383 240.34 89.64 240.34 L 165.01 240.34 C 174.267 240.34 182.533 240.176 189.909 239.742 C 193.598 239.526 197.063 239.242 200.32 238.878 C 203.577 238.515 206.625 238.071 209.477 237.534 C 212.328 236.998 214.985 236.368 217.456 235.633 C 219.928 234.898 222.217 234.058 224.335 233.098 C 226.453 232.139 228.401 231.059 230.191 229.849 C 231.981 228.639 233.613 227.3 235.1 225.814 C 236.588 224.328 237.933 222.696 239.144 220.908 C 240.356 219.12 241.434 217.176 242.395 215.06 C 243.356 212.945 244.2 210.659 244.936 208.19 C 245.672 205.72 246.302 203.068 246.839 200.22 C 247.376 197.371 247.821 194.325 248.185 191.071 C 248.549 187.817 248.834 184.355 249.051 180.67 C 249.485 173.301 249.65 165.044 249.65 155.795 L 249.65 101.45 L 127.325 158.79 L 5 101.45 Z"/>
  <g opacity=".2">
   <path fill="#FFFFFF" fill-rule="evenodd" d="M 11.483 212.976 C 11.753 213.649 11.962 214.418 12.253 215.06 C 13.214 217.176 14.295 219.12 15.507 220.908 C 16.718 222.696 18.06 224.328 19.548 225.814 C 21.036 227.3 22.67 228.639 24.46 229.849 C 26.25 231.059 28.197 232.139 30.316 233.098 C 32.434 234.058 34.722 234.898 37.194 235.633 C 39.666 236.368 42.321 236.998 45.172 237.534 C 48.024 238.071 51.071 238.515 54.329 238.878 C 57.586 239.242 61.053 239.526 64.741 239.742 C 72.118 240.176 80.383 240.34 89.64 240.34 L 165.01 240.34 C 174.267 240.34 182.533 240.176 189.909 239.742 C 193.598 239.526 197.063 239.242 200.32 238.878 C 203.577 238.515 206.625 238.071 209.477 237.534 C 212.328 236.998 214.985 236.368 217.456 235.633 C 219.928 234.898 222.217 234.058 224.335 233.098 C 226.453 232.139 228.401 231.059 230.191 229.849 C 231.981 228.639 233.613 227.3 235.1 225.814 C 236.588 224.328 237.933 222.696 239.144 220.908 C 240.356 219.12 241.434 217.176 242.395 215.06 C 243.356 212.945 244.2 210.659 244.936 208.19 C 245.672 205.72 246.302 203.068 246.839 200.22 C 247.376 197.371 247.821 194.325 248.185 191.071 C 248.549 187.817 248.834 184.355 249.051 180.67 C 249.485 173.301 249.65 165.044 249.65 155.795 L 249.65 101.8 L 11.483 212.976 Z"/>
  </g>
  <path fill="#37A6E6" d="M 5.383 171.701 C 5.474 174.594 5.443 178.013 5.6 180.67 C 5.817 184.355 6.101 187.817 6.466 191.071 C 6.83 194.325 7.274 197.371 7.812 200.22 C 8.191 202.232 8.679 204.029 9.156 205.85 L 13.155 207.608 L 13.155 175.116 L 5.383 171.701 Z"/>
  <path fill="#ED3146" d="M 5 122.73 L 13.155 126.313 L 13.155 158.806 L 5 155.222 L 5 122.73 Z"/>
  <path fill="#37A6E6" d="M 245.495 205.85 C 245.972 204.029 246.46 202.232 246.839 200.22 C 247.376 197.371 247.821 194.325 248.185 191.071 C 248.549 187.817 248.834 184.355 249.051 180.67 C 249.208 178.013 249.177 174.594 249.268 171.701 L 241.495 175.116 L 241.495 207.608 L 245.495 205.85 Z"/>
  <path fill="#ED3146" d="M 249.65 122.73 L 249.65 155.222 L 241.495 158.806 L 241.495 126.313 L 249.65 122.73 Z"/>
  <path fill="#FFFFFF" d="M 64.462 52.775 C 57.175 52.684 52.278 54.404 49.765 57.42 C 47.126 60.561 45.775 65.714 45.775 72.876 L 45.775 74.915 C 45.775 67.753 47.126 62.6 49.765 59.459 C 52.278 56.443 57.175 54.723 64.462 54.814 L 97.552 54.814 L 178.025 54.814 L 190.188 54.814 C 197.475 54.814 202.372 56.443 204.885 59.459 C 207.524 62.6 208.875 67.753 208.875 74.915 L 208.875 72.876 C 208.875 65.714 207.524 60.561 204.885 57.42 C 202.372 54.404 197.475 52.775 190.188 52.775 L 178.025 52.775 L 97.552 52.775 L 64.462 52.775 Z"/>
 </g>
 <g opacity=".4">
  <linearGradient id="_lgradient_13" x1=".517" x2=".517" y1="0" y2="1">
   <stop offset="0%" style="stop-color:rgb(255,255,255)"/>
   <stop offset="12.5%" stop-opacity=".098" style="stop-color:rgb(255,255,255)"/>
   <stop offset="92.5%" stop-opacity=".098" style="stop-color:rgb(0,0,0)"/>
   <stop offset="100%" stop-opacity=".498" style="stop-color:rgb(0,0,0)"/>
  </linearGradient>
  <path fill="none" stroke="url(#_lgradient_13)" stroke-linecap="round" stroke-linejoin="round" stroke-width="4.077" d="M 165.685 11.947 C 239.74 11.947 250.324 22.504 250.324 96.491 L 250.324 155.742 C 250.324 229.728 239.74 240.285 165.685 240.285 L 90.315 240.285 C 16.26 240.285 5.676 229.728 5.676 155.742 L 5.676 96.491 C 5.676 22.504 16.26 11.947 90.315 11.947 L 165.685 11.947 Z" vector-effect="non-scaling-stroke"/>
 </g>
</svg>
