<?xml version="1.0" standalone="no"?><!-- Generator: Gravit.io --><svg xmlns="http://www.w3.org/2000/svg" xmlns:xlink="http://www.w3.org/1999/xlink" style="isolation:isolate" viewBox="0 0 256 256" width="256" height="256"><defs><filter id="1hdHb0JjADU93mQ56vTdq8gFuPLMT2ON" x="-200%" y="-200%" width="400%" height="400%" filterUnits="objectBoundingBox" color-interpolation-filters="sRGB"><feGaussianBlur xmlns="http://www.w3.org/2000/svg" in="SourceGraphic" stdDeviation="4.294"/><feOffset xmlns="http://www.w3.org/2000/svg" dx="0" dy="4" result="pf_100_offsetBlur"/><feFlood xmlns="http://www.w3.org/2000/svg" flood-color="#000000" flood-opacity="0.4"/><feComposite xmlns="http://www.w3.org/2000/svg" in2="pf_100_offsetBlur" operator="in" result="pf_100_dropShadow"/><feBlend xmlns="http://www.w3.org/2000/svg" in="SourceGraphic" in2="pf_100_dropShadow" mode="normal"/></filter></defs><g filter="url(#1hdHb0JjADU93mQ56vTdq8gFuPLMT2ON)"><path d=" M 165.685 11.947 C 239.74 11.947 250.324 22.504 250.324 96.491 L 250.324 155.742 C 250.324 229.728 239.74 240.285 165.685 240.285 L 90.315 240.285 C 16.26 240.285 5.676 229.728 5.676 155.742 L 5.676 96.491 C 5.676 22.504 16.26 11.947 90.315 11.947 L 165.685 11.947 L 165.685 11.947 Z " id="Path" fill="rgb(88,132,244)"/></g><path d=" M 166.444 11.95 C 240.85 11.95 251.484 22.507 251.484 96.494 L 251.484 155.745 C 251.484 229.731 240.85 240.288 166.444 240.288 L 90.719 240.288 C 16.314 240.288 5.68 229.731 5.68 155.745 L 5.68 96.494 C 5.68 22.507 16.314 11.95 90.719 11.95 L 166.444 11.95 L 166.444 11.95 Z " id="Path" fill="none"/><path d=" M 64.121 239.56 C 64.671 239.596 65.142 239.658 65.702 239.691 C 66.137 239.716 66.729 239.702 67.17 239.726 L 67.131 232.134 L 93.76 207.669 L 93.76 199.513 L 106.05 187.28 L 106.05 181.165 L 112.194 175.048 L 112.194 158.739 L 104.001 150.583 L 87.614 150.583 L 79.421 142.429 L 58.938 142.429 L 50.743 150.583 L 50.743 170.972 L 67.186 185.312 L 67.131 203.591 L 60.987 209.708 L 60.987 236.21 L 64.121 239.56 L 64.121 239.56 Z  M 99.904 81.267 L 93.76 87.384 L 99.904 87.384 L 101.953 89.423 L 104.001 89.423 L 106.05 87.384 L 99.904 81.267 L 99.904 81.267 Z  M 177.742 109.809 L 153.162 109.809 L 138.824 124.08 L 138.824 144.468 L 149.065 154.662 L 163.404 154.662 L 169.549 160.778 L 169.549 166.894 L 173.646 170.971 L 173.646 195.436 L 189.202 211.801 L 214.89 186.234 L 214.613 162.816 L 235.097 142.429 L 226.903 142.429 L 206.42 122.042 L 206.42 113.887 L 181.839 113.887 L 177.742 109.809 L 177.742 109.809 Z " id="Compound Path" fill="rgb(247,247,247)" fill-opacity="0.5"/><path d=" M 251.484 117.964 L 251.484 96.493 C 251.484 87.245 251.317 78.988 250.881 71.618 C 250.682793 68.144298 250.393026 64.676426 250.012 61.218 C 249.646 57.964 249.2 54.92 248.66 52.071 C 248.12 49.223 247.486 46.57 246.746 44.101 C 246.007 41.632 245.161 39.345 244.195 37.23 C 243.581 35.883 242.83 34.719 242.115 33.507 L 239.193 36.415 L 226.903 36.415 L 214.613 48.648 L 206.42 40.493 L 181.84 40.493 L 169.55 52.726 L 169.55 62.919 L 181.84 62.919 L 181.84 56.802 L 190.033 56.802 L 190.033 64.958 L 185.935 69.034 L 169.55 69.31 L 163.404 75.151 L 155.211 75.151 L 155.211 83.306 L 149.065 89.423 L 149.065 101.653 L 161.355 101.653 L 169.55 93.499 L 177.743 93.499 L 177.743 97.577 L 185.935 105.732 L 190.033 105.732 L 190.033 101.653 L 181.84 93.499 L 190.033 93.499 L 198.225 101.653 L 208.467 101.653 L 202.323 95.538 L 208.467 89.423 L 214.613 89.423 L 220.757 95.538 L 214.613 95.538 L 208.467 101.653 L 214.501 107.659 L 214.613 113.886 L 206.42 113.886 L 231.001 138.351 L 235.096 138.351 L 239.193 134.275 L 247.386 126.118 L 239.193 117.964 L 251.484 117.964 L 251.484 117.964 Z " id="Path" fill="rgb(247,247,247)" fill-opacity="0.5"/><path d=" M 157.259 71.073 L 157.259 64.957 L 163.404 58.841 L 163.404 71.073 L 157.259 71.073 L 157.259 71.073 Z  M 220.758 191.359 L 220.758 178.575 L 228.952 170.971 L 228.952 191.359 L 220.758 191.359 L 220.758 191.359 Z  M 136.775 11.95 L 90.718 11.95 C 89.929 11.95 89.37 11.999 88.595 12.001 L 81.47 20.105 L 93.76 32.337 L 93.76 45.12 L 108.099 60.88 L 116.292 60.88 L 116.292 52.726 L 128.582 40.493 L 128.582 32.337 L 136.775 24.183 L 136.775 11.95 L 136.775 11.95 Z  M 126.533 56.802 L 132.679 56.802 L 138.824 62.918 L 126.533 62.918 L 126.533 56.802 L 126.533 56.802 Z  M 71.228 124.08 L 65.083 124.08 L 58.937 130.197 L 71.228 130.197 L 71.228 124.08 L 71.228 124.08 Z " id="Compound Path" fill="rgb(247,247,247)" fill-opacity="0.5"/><path d=" M 16.585 30.96 C 16.478 31.112 16.34 31.228 16.235 31.382 C 14.982433 33.235345 13.889507 35.191707 12.968 37.23 C 12.003 39.345 11.157 41.632 10.417 44.101 C 9.677 46.57 9.044 49.223 8.504 52.071 C 7.964 54.92 7.518 57.964 7.152 61.218 C 6.770622 64.676416 6.480521 68.144288 6.282 71.618 C 5.846 78.988 5.68 87.245 5.68 96.493 L 5.68 117.964 L 13.873 126.118 L 26.163 126.118 L 46.648 146.507 L 46.648 122.042 L 58.938 109.81 L 67.131 109.81 L 79.421 97.577 L 91.711 97.577 L 85.567 91.46 L 97.857 77.191 L 85.567 64.958 L 67.131 64.958 L 67.131 81.267 L 58.938 81.267 L 50.743 73.112 L 50.743 64.958 L 63.034 52.726 L 73.277 52.726 L 73.277 44.569 L 60.987 32.337 L 40.502 32.337 L 40.502 44.569 L 30.26 44.569 L 16.585 30.96 L 16.585 30.96 Z  M 67.131 12.515 C 66.702 12.538 66.126 12.523 65.702 12.548 C 61.997 12.765 58.513 13.048 55.241 13.411 C 51.969 13.775 48.907 14.219 46.042 14.755 C 43.631093 15.212274 41.242281 15.779195 38.883 16.454 L 46.648 24.183 L 67.131 24.183 L 67.131 12.515 L 67.131 12.515 Z " id="Compound Path" fill="rgb(247,247,247)" fill-opacity="0.5"/><g opacity="0.1"><path d=" M 5.676 126.116 L 5.676 155.742 C 5.676 229.728 16.26 240.285 90.315 240.285 L 165.685 240.285 C 239.74 240.285 250.324 229.728 250.324 155.742 L 250.324 126.116 L 5.676 126.116 L 5.676 126.116 Z " id="Path" fill="rgb(255,255,255)"/></g><g id="global"><defs><filter id="ewvmuJLo2sWL4ocHn3rxcBX37p62Q2Gt" x="-200%" y="-200%" width="400%" height="400%" filterUnits="objectBoundingBox" color-interpolation-filters="sRGB"><feGaussianBlur xmlns="http://www.w3.org/2000/svg" stdDeviation="1.288"/></filter></defs><g opacity="0.2" filter="url(#ewvmuJLo2sWL4ocHn3rxcBX37p62Q2Gt)"><path d=" M 128 49 C 83.865 49 48 84.865 48 129 C 48 173.135 83.865 209 128 209 C 172.135 209 208 173.135 208 129 C 208 84.865 172.135 49 128 49 Z  M 128 57 C 128.109 57 128.216 57.007 128.324 57.008 C 140.526 69.518 149.056 83.224 154.162 97 L 101.838 97 C 106.944 83.224 115.473 69.518 127.676 57.008 C 127.784 57.007 127.891 57 128 57 L 128 57 Z  M 115.914 58.025 C 105.388 70.334 97.901 83.609 93.35 97 L 63.482 97 C 73.537 76.735 92.846 61.914 115.914 58.025 Z  M 140.086 58.025 C 163.154 61.914 182.463 76.735 192.518 97 L 162.65 97 C 158.099 83.609 150.612 70.334 140.086 58.025 Z  M 60.102 105 L 90.984 105 C 88.898 113.25 87.907 121.478 88 129.484 C 88.100464 137.415167 89.12777 145.307398 91.061 153 L 60.102 153 C 57.381916 145.29093 55.994747 137.174876 56 129 C 55.994747 120.825124 57.381916 112.70907 60.102 105 L 60.102 105 Z  M 99.26 105 L 156.74 105 C 159.02 113.267 160.092 121.48 160 129.393 C 159.901403 137.370126 158.790865 145.302493 156.695 153 L 99.305 153 C 97.209135 145.302493 96.098597 137.370126 96 129.393 C 95.908 121.48 96.98 113.267 99.26 105 L 99.26 105 Z  M 165.016 105 L 195.898 105 C 198.618084 112.70907 200.005253 120.825124 200 129 C 200.005253 137.174876 198.618084 145.29093 195.898 153 L 164.939 153 C 166.87223 145.307398 167.899536 137.415167 168 129.484 C 168.093 121.478 167.102 113.25 165.016 105 Z  M 63.482 161 L 93.402 161 C 97.895 174.371 105.283 187.574 115.904 199.973 C 92.84 196.081 73.536 181.262 63.482 161 Z  M 101.85 161 L 154.15 161 C 149.125 174.735 140.707 188.308 128.326 200.992 C 128.217 200.993 128.109 201 128 201 C 127.891 201 127.783 200.993 127.674 200.992 C 115.293 188.308 106.875 174.735 101.85 161 L 101.85 161 Z  M 162.598 161 L 192.518 161 C 182.464 181.262 163.16 196.081 140.096 199.973 C 150.717 187.574 158.105 174.371 162.598 161 Z " id="Compound Path" fill="rgb(0,0,0)"/></g><path d=" M 208 127 C 208.009233 137.693191 205.870252 148.279278 201.71 158.13 C 197.680192 167.629759 191.857345 176.263869 184.56 183.56 C 177.263869 190.857345 168.629759 196.680192 159.13 200.71 C 149.279278 204.870252 138.693191 207.009233 128 207 C 117.306809 207.009233 106.720722 204.870252 96.87 200.71 C 87.370241 196.680192 78.736131 190.857345 71.44 183.56 C 64.142655 176.263869 58.319808 167.629759 54.29 158.13 C 50.129748 148.279278 47.990767 137.693191 48 127 C 47.990767 116.306809 50.129748 105.720722 54.29 95.87 C 58.319808 86.370241 64.142655 77.736131 71.44 70.44 C 78.736131 63.142655 87.370241 57.319808 96.87 53.29 C 106.72 49.13 117.31 46.99 128 47 C 138.693191 46.990767 149.279278 49.129748 159.13 53.29 C 168.629759 57.319808 177.263869 63.142655 184.56 70.44 C 191.857345 77.736131 197.680192 86.370241 201.71 95.87 C 205.87 105.72 208.01 116.31 208 127 Z  M 56 127 C 55.992412 117.378562 57.917132 107.85358 61.66 98.99 C 65.287207 90.43832 70.529599 82.666407 77.1 76.1 C 83.666407 69.529599 91.43832 64.287207 99.99 60.66 C 108.85358 56.917132 118.378562 54.992412 128 55 C 137.62 54.99 147.15 56.92 156.01 60.66 C 164.56168 64.287207 172.333593 69.529599 178.9 76.1 C 185.470401 82.666407 190.712793 90.43832 194.34 98.99 C 198.082868 107.85358 200.007588 117.378562 200 127 C 200.01 136.62 198.08 146.15 194.34 155.01 C 190.712793 163.56168 185.470401 171.333593 178.9 177.9 C 172.333593 184.470401 164.56168 189.712793 156.01 193.34 C 147.14642 197.082868 137.621438 199.007588 128 199 C 118.38 199.01 108.85 197.08 99.99 193.34 C 91.43832 189.712793 83.666407 184.470401 77.1 177.9 C 70.529599 171.333593 65.287207 163.56168 61.66 155.01 C 57.917132 146.14642 55.992412 136.621438 56 127 Z " fill-rule="evenodd" id="Compound Path" fill="rgb(255,255,255)"/><path d=" M 200 151 L 200 159 L 56 159 L 56 151 L 200 151 L 200 151 Z " id="Path" fill="rgb(255,255,255)"/><path d=" M 127.18 53.83 L 132.82 48.17 C 138.55 53.87 143.74 60.09 148.34 66.74 C 152.617153 72.9326 156.293807 79.519101 159.32 86.41 C 162.16 92.88 164.35 99.61 165.85 106.52 C 167.268437 113.065577 167.992443 119.742521 168.01 126.44 L 168.01 126.47 L 168 127.46 L 168 127.49 C 167.92 134.22 167.17 140.93 165.76 147.52 C 164.29 154.4 162.13 161.12 159.33 167.58 C 156.34 174.45 152.68 181.01 148.43 187.18 C 143.8 193.86 138.58 200.11 132.82 205.84 L 127.18 200.16 C 132.59 194.78 137.5 188.91 141.85 182.63 C 145.81 176.89 149.21 170.78 151.99 164.39 C 154.582741 158.422414 156.575873 152.211882 157.94 145.85 C 159.229723 139.782384 159.919709 133.602653 160 127.4 L 160.01 126.44 C 159.99 120.31 159.33 114.2 158.03 108.22 C 156.642794 101.833871 154.619359 95.602763 151.99 89.62 C 149.17 83.2 145.75 77.06 141.76 71.29 C 137.44 65.04 132.56 59.2 127.18 53.83 L 127.18 53.83 Z " id="Path" fill="rgb(255,255,255)"/><path d=" M 128.82 200.16 L 123.18 205.84 C 117.421289 200.1065 112.196401 193.860733 107.57 187.18 C 103.32 181.01 99.66 174.45 96.67 167.58 C 93.87 161.12 91.71 154.4 90.24 147.52 C 88.83 140.93 88.08 134.22 88 127.49 L 88 127.46 L 87.99 126.47 L 87.99 126.44 C 88.01 119.74 88.73 113.06 90.15 106.52 C 91.65 99.61 93.84 92.88 96.68 86.41 C 99.71 79.52 103.38 72.93 107.66 66.74 C 112.26 60.09 117.45 53.87 123.18 48.17 L 128.82 53.83 C 123.441296 59.196473 118.56124 65.04049 114.24 71.29 C 110.25 77.06 106.83 83.2 104.01 89.62 C 101.380641 95.602763 99.357206 101.833871 97.97 108.22 C 96.671248 114.206828 96.007577 120.313944 95.99 126.44 L 96 127.4 C 96.08 133.6 96.77 139.78 98.06 145.85 C 99.424127 152.211882 101.417259 158.422414 104.01 164.39 C 106.79 170.78 110.19 176.89 114.15 182.63 C 118.5 188.91 123.41 194.78 128.82 200.16 L 128.82 200.16 Z " id="Path" fill="rgb(255,255,255)"/><path d=" M 200 95 L 200 103 L 56 103 L 56 95 L 200 95 L 200 95 Z " id="Path" fill="rgb(255,255,255)"/></g><g opacity="0.4"><linearGradient id="_lgradient_182" x1="0.5166666666666668" y1="0" x2="0.5166666666666666" y2="1.0000000000000002" gradientTransform="matrix(244.65,0,0,228.34,5.68,11.95)" gradientUnits="userSpaceOnUse"><stop offset="0%" stop-opacity="1" style="stop-color:rgb(255,255,255)"/><stop offset="12.5%" stop-opacity="0.09803922" style="stop-color:rgb(255,255,255)"/><stop offset="92.500001%" stop-opacity="0.09803922" style="stop-color:rgb(0,0,0)"/><stop offset="100%" stop-opacity="0.49803922" style="stop-color:rgb(0,0,0)"/></linearGradient><path d=" M 165.06803 11.951234 C 169.395994 11.941409 173.723944 11.990533 178.051908 12.088781 C 181.927398 12.167379 185.802873 12.31475 189.678362 12.540721 C 193.1309 12.737216 196.583423 13.022134 200.026115 13.395476 C 203.085193 13.729518 206.144271 14.181458 209.173842 14.741469 C 211.888645 15.242533 214.57394 15.881143 217.219897 16.6573 C 219.619947 17.354858 221.970814 18.219439 224.242988 19.241215 C 226.357793 20.184394 228.384061 21.304417 230.302129 22.591462 C 232.141505 23.829383 233.862851 25.244151 235.436659 26.80629 C 237.000621 28.378252 238.417046 30.087764 239.656409 31.924995 C 240.944972 33.840824 242.066305 35.864728 243.020409 37.967229 C 244.043389 40.246576 244.908985 42.584873 245.617197 44.972292 C 246.394255 47.615155 247.033606 50.297317 247.535265 53.008956 C 248.095924 56.034984 248.548399 59.080665 248.882828 62.13617 C 249.256611 65.574836 249.541856 69.013506 249.738578 72.462003 C 249.964823 76.323139 250.112361 80.194101 250.200884 84.055237 C 250.289421 88.378131 250.338591 92.701032 250.32876 97.014106 L 250.32876 155.225886 C 250.338591 159.54878 250.289421 163.861854 250.200884 168.184747 C 250.112361 172.05571 249.964823 175.916853 249.738578 179.777981 C 249.541856 183.226485 249.256611 186.674975 248.882828 190.103826 C 248.548399 193.15933 248.095924 196.214835 247.535265 199.240851 C 247.033606 201.942664 246.394255 204.624837 245.617197 207.267703 C 244.908985 209.655115 244.043389 212.003235 243.020409 214.272755 C 242.066305 216.38509 240.944972 218.399156 239.656409 220.314999 C 238.417046 222.152226 237.000621 223.871561 235.436659 225.433697 C 233.862851 226.995832 232.141505 228.410601 230.302129 229.648532 C 228.384061 230.935575 226.357793 232.055598 224.242988 232.998768 C 221.970814 234.020552 219.619947 234.885137 217.219897 235.592507 C 214.57394 236.368672 211.888645 237.007276 209.173842 237.498515 C 206.144271 238.068354 203.085193 238.510465 200.026115 238.844519 C 196.583423 239.21785 193.1309 239.502777 189.678362 239.699269 C 185.802873 239.925235 181.927398 240.072615 178.051908 240.161035 C 173.723944 240.249454 169.395994 240.298581 165.06803 240.288762 L 90.941963 240.288762 C 86.614006 240.298581 82.286049 240.249454 77.9581 240.161035 C 74.08261 240.072615 70.20712 239.925235 66.331638 239.699269 C 62.879108 239.502777 59.426578 239.21785 55.983886 238.844519 C 52.924808 238.510465 49.865733 238.068354 46.836162 237.498515 C 44.121356 237.007276 41.436057 236.368672 38.7901 235.592507 C 36.390053 234.885137 34.039187 234.020552 31.767009 232.998768 C 29.652213 232.055598 27.625943 230.935575 25.707871 229.648532 C 23.868489 228.410601 22.147143 226.995832 20.573343 225.433697 C 19.009377 223.871561 17.592955 222.152226 16.353586 220.314999 C 15.065036 218.399156 13.943701 216.38509 12.989584 214.272755 C 11.966612 212.003235 11.101021 209.655115 10.392811 207.267703 C 9.615746 204.624837 8.976389 201.942664 8.47474 199.240851 C 7.914072 196.214835 7.461604 193.15933 7.127172 190.103826 C 6.753394 186.674975 6.468142 183.226485 6.271417 179.777981 C 6.045183 175.916853 5.897639 172.05571 5.809112 168.184747 C 5.720586 163.861854 5.671405 159.54878 5.681241 155.225886 L 5.681241 97.014106 C 5.671405 92.701032 5.720586 88.378131 5.809112 84.055237 C 5.897639 80.194101 6.045183 76.323139 6.271417 72.462003 C 6.468142 69.013506 6.753394 65.574836 7.127172 62.13617 C 7.461604 59.080665 7.914072 56.034984 8.47474 53.008956 C 8.976389 50.297317 9.615746 47.615155 10.392811 44.972292 C 11.101021 42.584873 11.966612 40.246576 12.989584 37.967229 C 13.943701 35.864728 15.065036 33.840824 16.353586 31.924995 C 17.592955 30.087764 19.009377 28.378252 20.573343 26.80629 C 22.147143 25.244151 23.868489 23.829383 25.707871 22.591462 C 27.625943 21.304417 29.652213 20.184394 31.767009 19.241215 C 34.039187 18.219439 36.390053 17.354858 38.7901 16.6573 C 41.436057 15.881143 44.121356 15.242533 46.836162 14.741469 C 49.865733 14.181458 52.924808 13.729518 55.983886 13.395476 C 59.426578 13.022134 62.879108 12.737216 66.331638 12.540721 C 70.20712 12.31475 74.08261 12.167379 77.9581 12.088781 C 82.286049 11.990533 86.614006 11.941409 90.941963 11.951234 L 165.06803 11.951234 Z  M 165.077876 15.959741 C 169.376317 15.949916 173.674759 15.99904 177.973216 16.087463 C 181.799522 16.175886 185.625827 16.323257 189.452133 16.539402 C 192.835809 16.735898 196.219486 17.010992 199.583486 17.384332 C 202.554026 17.698726 205.514751 18.131016 208.445953 18.681203 C 211.023049 19.152792 213.580483 19.761928 216.098564 20.498786 C 218.321569 21.147221 220.495374 21.952852 222.600334 22.896029 C 224.508571 23.750785 226.338116 24.762737 228.069293 25.922059 C 229.692286 27.012609 231.207063 28.260355 232.59398 29.645648 C 233.980897 31.030941 235.230091 32.543956 236.331763 34.165043 C 237.492434 35.894202 238.505568 37.711787 239.361333 39.607968 C 240.305606 41.720292 241.112187 43.891565 241.761369 46.102139 C 242.508934 48.617282 243.108947 51.161898 243.590914 53.735987 C 244.131912 56.663768 244.564709 59.6112 244.889308 62.578282 C 245.263091 65.938355 245.538505 69.308252 245.735227 72.687976 C 245.951626 76.509812 246.10901 80.321821 246.187687 84.143656 C 246.276225 88.437084 246.325394 92.720685 246.325394 97.014106 C 246.325394 97.014106 246.325394 97.014106 246.325394 97.014106 L 246.325394 155.225886 C 246.325394 155.225886 246.325394 155.225886 246.325394 155.225886 C 246.325394 159.519306 246.276225 163.802907 246.187687 168.096328 C 246.10901 171.918164 245.951626 175.739999 245.735227 179.552015 C 245.538505 182.931739 245.263091 186.301629 244.889308 189.671533 C 244.564709 192.628784 244.131912 195.576216 243.590914 198.503994 C 243.108947 201.078094 242.508934 203.622706 241.761369 206.137845 C 241.112187 208.358253 240.305606 210.5197 239.361333 212.63202 C 238.505568 214.528209 237.492434 216.355617 236.331763 218.074952 C 235.230091 219.705853 233.980897 221.218876 232.59398 222.604172 C 231.207063 223.979634 229.692286 225.227385 228.069293 226.317935 C 226.338116 227.477251 224.508571 228.489201 222.600334 229.343951 C 220.495374 230.296956 218.321569 231.092775 216.098564 231.741198 C 213.580483 232.478056 211.023049 233.087202 208.445953 233.558787 C 205.514751 234.108972 202.554026 234.541264 199.583486 234.865483 C 196.219486 235.228995 192.835809 235.513922 189.452133 235.70058 C 185.625827 235.916726 181.799522 236.073926 177.973216 236.152526 C 173.674759 236.25078 169.376317 236.290072 165.077876 236.290072 C 165.077876 236.290072 165.077876 236.290072 165.06803 236.290072 L 90.941963 236.290072 C 90.932125 236.290072 90.932125 236.290072 90.932125 236.290072 C 86.633683 236.290072 82.335234 236.25078 78.036784 236.152526 C 74.210479 236.073926 70.384173 235.916726 66.557868 235.70058 C 63.174195 235.513922 59.790522 235.228995 56.426518 234.865483 C 53.455967 234.541264 50.495253 234.108972 47.564048 233.558787 C 44.986944 233.087202 42.429517 232.478056 39.911433 231.741198 C 37.688439 231.092775 35.514626 230.296956 33.409665 229.343951 C 31.501429 228.489201 29.671886 227.477251 27.940703 226.317935 C 26.31772 225.227385 24.802935 223.979634 23.416022 222.604172 C 22.029109 221.218876 20.779904 219.705853 19.678243 218.074952 C 18.517564 216.355617 17.504428 214.528209 16.648674 212.63202 C 15.704392 210.5197 14.897819 208.358253 14.248626 206.137845 C 13.50107 203.622706 12.901057 201.078094 12.419081 198.503994 C 11.878086 195.576216 11.445291 192.628784 11.120694 189.671533 C 10.746916 186.301629 10.471501 182.931739 10.274776 179.552015 C 10.058378 175.739999 9.900997 171.918164 9.822307 168.096328 C 9.733781 163.802907 9.6846 159.519306 9.6846 155.225886 C 9.6846 155.225886 9.6846 155.225886 9.6846 155.225886 L 9.6846 97.014106 C 9.6846 97.014106 9.6846 97.014106 9.6846 97.014106 C 9.6846 92.720685 9.733781 88.437084 9.822307 84.143656 C 9.900997 80.321821 10.058378 76.509812 10.274776 72.687976 C 10.471501 69.308252 10.746916 65.938355 11.120694 62.578282 C 11.445291 59.6112 11.878086 56.663768 12.419081 53.735987 C 12.901057 51.161898 13.50107 48.617282 14.248626 46.102139 C 14.897819 43.891565 15.704392 41.720292 16.648674 39.607968 C 17.504428 37.711787 18.517564 35.894202 19.678243 34.165043 C 20.779904 32.543956 22.029109 31.030941 23.416022 29.645648 C 24.802935 28.260355 26.31772 27.012609 27.940703 25.922059 C 29.671886 24.762737 31.501429 23.750785 33.409665 22.896029 C 35.514626 21.952852 37.688439 21.147221 39.911433 20.498786 C 42.429517 19.761928 44.986944 19.152792 47.564048 18.681203 C 50.495253 18.131016 53.455967 17.698726 56.426518 17.384332 C 59.790522 17.010992 63.174195 16.735898 66.557868 16.539402 C 70.384173 16.323257 74.210479 16.175886 78.036784 16.087463 C 82.335234 15.99904 86.633683 15.949916 90.932125 15.959741 C 90.932125 15.959741 90.932125 15.959741 90.941963 15.959741 L 165.06803 15.959741 C 165.077876 15.959741 165.077876 15.959741 165.077876 15.959741 Z " fill-rule="evenodd" id="highlight" fill="url(#_lgradient_182)"/></g></svg>