<?xml version="1.0" encoding="UTF-8" standalone="no"?>
<!-- Created with Inkscape (http://www.inkscape.org/) -->

<svg
   xmlns:dc="http://purl.org/dc/elements/1.1/"
   xmlns:cc="http://creativecommons.org/ns#"
   xmlns:rdf="http://www.w3.org/1999/02/22-rdf-syntax-ns#"
   xmlns:svg="http://www.w3.org/2000/svg"
   xmlns="http://www.w3.org/2000/svg"
   xmlns:xlink="http://www.w3.org/1999/xlink"
   xmlns:sodipodi="http://sodipodi.sourceforge.net/DTD/sodipodi-0.dtd"
   xmlns:inkscape="http://www.inkscape.org/namespaces/inkscape"
   width="128"
   height="128"
   viewBox="0 0 33.866666 33.866668"
   version="1.1"
   id="svg366"
   inkscape:version="0.92.3 (2405546, 2018-03-11)"
   sodipodi:docname="user-home.svg">
  <defs
     id="defs360">
    <clipPath
       clipPathUnits="userSpaceOnUse"
       id="clipPath977">
      <path
         id="path979"
         d="M 78.994141,52 C 43.625611,52 40,53.999146 40,89.296875 V 140 H 264 V 108.92188 C 264,73.624145 260.37439,68 225.00586,68 H 138 L 122,52 Z"
         style="color:#000000;display:inline;overflow:visible;visibility:visible;fill:#f6531e;fill-opacity:1;fill-rule:nonzero;stroke:none;stroke-width:1;marker:none;enable-background:accumulate"
         inkscape:connector-curvature="0" />
    </clipPath>
    <radialGradient
       inkscape:collect="always"
       xlink:href="#linearGradient1361"
       id="radialGradient1363"
       cx="148"
       cy="39.683556"
       fx="148"
       fy="39.683556"
       r="112"
       gradientTransform="matrix(0.1357708,0,0,0.03450147,-3.7038272,271.43606)"
       gradientUnits="userSpaceOnUse" />
    <linearGradient
       inkscape:collect="always"
       id="linearGradient1361">
      <stop
         style="stop-color:#ffffff;stop-opacity:1;"
         offset="0"
         id="stop1357" />
      <stop
         style="stop-color:#ffffff;stop-opacity:0.20392157"
         offset="1"
         id="stop1359" />
    </linearGradient>
    <radialGradient
       inkscape:collect="always"
       xlink:href="#linearGradient1361"
       id="radialGradient1371"
       cx="152"
       cy="-0.12591045"
       fx="152"
       fy="-0.12591045"
       r="112"
       gradientTransform="matrix(0.1357708,0,0,0.03571371,-3.7038272,267.92195)"
       gradientUnits="userSpaceOnUse" />
    <linearGradient
       gradientUnits="userSpaceOnUse"
       y2="478"
       x2="224"
       y1="86"
       x1="224"
       id="linearGradient4226"
       xlink:href="#linearGradient4338"
       inkscape:collect="always"
       gradientTransform="matrix(0.06152114,0,0,0.06152114,1.183921,265.91059)" />
    <linearGradient
       inkscape:collect="always"
       id="linearGradient4338">
      <stop
         style="stop-color:#76d4fa;stop-opacity:1"
         offset="0"
         id="stop4340" />
      <stop
         style="stop-color:#82d6f8;stop-opacity:1"
         offset="1"
         id="stop4342" />
    </linearGradient>
    <clipPath
       clipPathUnits="userSpaceOnUse"
       id="clipPath977-3">
      <path
         id="path979-6"
         d="M 78.994141,52 C 43.625611,52 40,53.999146 40,89.296875 V 140 H 264 V 108.92188 C 264,73.624145 260.37439,68 225.00586,68 H 138 L 122,52 Z"
         style="color:#000000;display:inline;overflow:visible;visibility:visible;fill:#f6531e;fill-opacity:1;fill-rule:nonzero;stroke:none;stroke-width:1;marker:none;enable-background:accumulate"
         inkscape:connector-curvature="0" />
    </clipPath>
    <filter
       inkscape:collect="always"
       style="color-interpolation-filters:sRGB"
       id="filter989"
       x="-0.053571429"
       width="1.1071429"
       y="-0.06818182"
       height="1.1363636">
      <feGaussianBlur
         inkscape:collect="always"
         stdDeviation="5"
         id="feGaussianBlur991" />
    </filter>
    <linearGradient
       gradientTransform="translate(-27.28,-38.771199)"
       inkscape:collect="always"
       xlink:href="#linearGradient1055"
       id="linearGradient1057"
       x1="264"
       y1="252"
       x2="48"
       y2="52"
       gradientUnits="userSpaceOnUse" />
    <linearGradient
       inkscape:collect="always"
       id="linearGradient1055">
      <stop
         style="stop-color:#000000;stop-opacity:1;"
         offset="0"
         id="stop1051" />
      <stop
         id="stop1059"
         offset="0.1589853"
         style="stop-color:#000000;stop-opacity:0.43290043" />
      <stop
         style="stop-color:#000000;stop-opacity:0.0995671"
         offset="0.19443204"
         id="stop1061" />
      <stop
         style="stop-color:#000000;stop-opacity:0;"
         offset="1"
         id="stop1053" />
    </linearGradient>
    <filter
       inkscape:collect="always"
       style="color-interpolation-filters:sRGB"
       id="filter1067"
       x="-0.056785714"
       width="1.1135714"
       y="-0.063600004"
       height="1.1272">
      <feGaussianBlur
         inkscape:collect="always"
         stdDeviation="5.3"
         id="feGaussianBlur1069" />
    </filter>
    <filter
       inkscape:collect="always"
       style="color-interpolation-filters:sRGB"
       id="filter959"
       x="-0.011357143"
       width="1.0227143"
       y="-0.01272"
       height="1.02544">
      <feGaussianBlur
         inkscape:collect="always"
         stdDeviation="1.06"
         id="feGaussianBlur961" />
    </filter>
    <filter
       inkscape:collect="always"
       style="color-interpolation-filters:sRGB"
       id="filter1344"
       x="-0.011357143"
       width="1.0227143"
       y="-0.01272"
       height="1.02544">
      <feGaussianBlur
         inkscape:collect="always"
         stdDeviation="1.06"
         id="feGaussianBlur1346" />
    </filter>
  </defs>
  <sodipodi:namedview
     id="base"
     pagecolor="#ffffff"
     bordercolor="#666666"
     borderopacity="1.0"
     inkscape:pageopacity="0.0"
     inkscape:pageshadow="2"
     inkscape:zoom="4.8590922"
     inkscape:cx="40.232033"
     inkscape:cy="58.4354"
     inkscape:document-units="mm"
     inkscape:current-layer="layer1"
     showgrid="false"
     units="px"
     inkscape:window-width="1920"
     inkscape:window-height="1013"
     inkscape:window-x="0"
     inkscape:window-y="34"
     inkscape:window-maximized="1" />
  <metadata
     id="metadata363">
    <rdf:RDF>
      <cc:Work
         rdf:about="">
        <dc:format>image/svg+xml</dc:format>
        <dc:type
           rdf:resource="http://purl.org/dc/dcmitype/StillImage" />
        <dc:title></dc:title>
      </cc:Work>
    </rdf:RDF>
  </metadata>
  <g
     inkscape:label="Livello 1"
     inkscape:groupmode="layer"
     id="layer1"
     transform="translate(0,-263.13332)">
    <path
       style="color:#000000;display:inline;overflow:visible;visibility:visible;opacity:0.1;fill:#000000;fill-opacity:1;fill-rule:nonzero;stroke:none;stroke-width:1;marker:none;filter:url(#filter1344);enable-background:accumulate"
       d="M 51.714141,15.228801 C 16.345611,15.228801 12.72,17.227947 12.72,52.525676 v 41.625005 9.078119 73.07812 c 0,35.29774 3.625611,38.92188 38.994141,38.92188 H 197.72586 c 35.36853,0 38.99414,-3.62414 38.99414,-38.92188 v -73.07812 -25.078119 -6 c 0,-35.29774 -3.62561,-40.92188 -38.99414,-40.92188 H 110.72 l -16,-16 z"
       id="path2049"
       inkscape:connector-curvature="0"
       transform="matrix(0.1357708,0,0,0.1357708,-1.2300706e-8,265.0352)" />
    <path
       style="color:#000000;display:inline;overflow:visible;visibility:visible;opacity:0.1;fill:#000000;fill-opacity:1;fill-rule:nonzero;stroke:none;stroke-width:1;marker:none;filter:url(#filter959);enable-background:accumulate"
       d="M 51.714141,14.228801 C 16.345611,14.228801 12.72,16.227947 12.72,51.525676 v 41.625005 60.656239 29.5 c 0,35.29774 3.625611,38.92188 38.994141,38.92188 H 197.72586 c 35.36853,0 38.99414,-3.62414 38.99414,-38.92188 v -29.5 -76.656239 -6 c 0,-35.297735 -3.62561,-40.92188 -38.99414,-40.92188 H 110.72 l -16,-16 z"
       id="path2055"
       inkscape:connector-curvature="0"
       sodipodi:nodetypes="ssccssssccssccs"
       transform="matrix(0.1357708,0,0,0.1357708,-1.2300706e-8,265.0352)" />
    <path
       inkscape:connector-curvature="0"
       id="path2057"
       d="M 51.714141,13.228801 C 16.345611,13.228801 12.72,15.227947 12.72,50.525676 v 41.625005 9.078119 81.07812 c 0,35.29774 3.625611,38.92188 38.994141,38.92188 H 197.72586 c 35.36853,0 38.99414,-3.62414 38.99414,-38.92188 v -81.07812 -25.078119 -6 c 0,-35.29774 -3.62561,-40.92188 -38.99414,-40.92188 H 110.72 l -16,-16 z"
       style="color:#000000;display:inline;overflow:visible;visibility:visible;opacity:0.4;fill:url(#linearGradient1057);fill-opacity:1;fill-rule:nonzero;stroke:none;stroke-width:1;marker:none;filter:url(#filter1067);enable-background:accumulate"
       sodipodi:nodetypes="ssccssssccssccs"
       transform="matrix(0.1357708,0,0,0.1357708,-1.2300706e-8,265.0352)" />
    <path
       style="color:#000000;display:inline;overflow:visible;visibility:visible;fill:#5cbce0;fill-opacity:1;fill-rule:nonzero;stroke:none;stroke-width:0.1357708;marker:none;enable-background:accumulate"
       d="m 7.0212703,266.83128 c -4.8020138,0 -5.2942658,0.27143 -5.2942658,5.06383 v 6.884 H 32.139663 v -4.2195 c 0,-4.7924 -0.492252,-5.556 -5.294265,-5.556 H 15.032543 l -2.172333,-2.17233 z"
       id="path2059"
       inkscape:connector-curvature="0"
       sodipodi:nodetypes="ssccssccs" />
    <path
       sodipodi:nodetypes="ssssssssccs"
       style="color:#000000;display:inline;overflow:visible;visibility:visible;opacity:0.5;fill:#5b8c9e;fill-opacity:1;fill-rule:nonzero;stroke:none;stroke-width:1;marker:none;filter:url(#filter989);enable-background:accumulate"
       d="M 78.99353,92 C 43.625,92 40,95.625 40,130.92273 v 82.15454 C 40,248.375 43.625,252 78.99353,252 H 225.00647 C 260.375,252 264,248.375 264,213.07727 V 114.92273 C 264,79.625 260.375,76 225.00647,76 H 143.75 l -16.00782,16 z"
       id="path2061"
       inkscape:connector-curvature="0"
       clip-path="url(#clipPath977-3)"
       transform="matrix(0.1357708,0,0,0.1357708,-3.7038277,260.85737)" />
    <path
       inkscape:connector-curvature="0"
       id="path2063"
       d="m 7.0211871,273.34828 c -4.8020137,0 -5.2941826,0.49217 -5.2941826,5.28457 v 11.15419 c 0,4.7924 0.4921689,5.28457 5.2941826,5.28457 H 26.845481 c 4.802013,0 5.294182,-0.49217 5.294182,-5.28457 v -13.32652 c 0,-4.7924 -0.492169,-5.28457 -5.294182,-5.28457 H 15.813225 l -2.173395,2.17233 z"
       style="color:#000000;display:inline;overflow:visible;visibility:visible;fill:url(#linearGradient4226);fill-opacity:1;fill-rule:nonzero;stroke:none;stroke-width:0.1357708;marker:none;enable-background:accumulate"
       sodipodi:nodetypes="ssssssssccs" />
    <path
       style="color:#000000;display:inline;overflow:visible;visibility:visible;opacity:0.4;fill:url(#radialGradient1371);fill-opacity:1;fill-rule:nonzero;stroke:none;stroke-width:0.1357708;marker:none;enable-background:accumulate"
       d="m 7.0212703,266.83128 c -4.8020138,0 -5.2942658,0.27143 -5.2942658,5.06383 v 0.27154 c 0,-4.7924 0.492252,-5.06382 5.2942658,-5.06382 H 12.86021 l 2.172333,2.17233 h 11.812855 c 4.802013,0 5.294265,0.76359 5.294265,5.55599 v -0.27154 c 0,-4.7924 -0.492252,-5.556 -5.294265,-5.556 H 15.032543 l -2.172333,-2.17233 z"
       id="path2065"
       inkscape:connector-curvature="0"
       sodipodi:nodetypes="sscsccscssccs" />
    <path
       style="color:#000000;display:inline;overflow:visible;visibility:visible;opacity:0.4;fill:url(#radialGradient1363);fill-opacity:1;fill-rule:nonzero;stroke:none;stroke-width:0.1357708;marker:none;enable-background:accumulate"
       d="m 15.813225,271.17595 -2.173393,2.17233 H 7.0212703 c -4.8020138,0 -5.2942658,0.49205 -5.2942658,5.28445 v 0.27155 c 0,-4.7924 0.492252,-5.28446 5.2942658,-5.28446 h 6.6185617 l 2.173393,-2.17233 h 11.032173 c 4.802013,0 5.294265,0.49205 5.294265,5.28445 v -0.27154 c 0,-4.7924 -0.492252,-5.28445 -5.294265,-5.28445 z"
       id="path2067"
       inkscape:connector-curvature="0"
       sodipodi:nodetypes="ccsscsccscssc" />
    <path
       style="color:#000000;display:inline;overflow:visible;visibility:visible;opacity:0.1;fill:#ffffff;fill-opacity:1;fill-rule:nonzero;stroke:none;stroke-width:0.1357708;marker:none;enable-background:accumulate"
       d="m 32.139663,286.11073 -8.689331,8.68934 h 3.395066 c 4.802013,0 5.294265,-0.49206 5.294265,-5.28446 z"
       id="path2069"
       inkscape:connector-curvature="0"
       sodipodi:nodetypes="ccssc" />
    <path
       style="color:#000000;display:inline;overflow:visible;visibility:visible;opacity:0.2;fill:#491706;fill-opacity:1;fill-rule:nonzero;stroke:none;stroke-width:0.1357708;marker:none;enable-background:accumulate"
       d="m 1.7270045,289.51561 v 0.27154 c 0,4.79241 0.492252,5.28446 5.2942658,5.28446 H 26.845398 c 4.802013,0 5.294265,-0.49205 5.294265,-5.28446 v -0.27154 c 0,4.7924 -0.492252,5.28446 -5.294265,5.28446 H 7.0212703 c -4.8020138,0 -5.2942658,-0.49206 -5.2942658,-5.28446 z"
       id="path2089"
       inkscape:connector-curvature="0" />
    <path
       style="fill:#ffffff;stroke-width:0.03118372;fill-opacity:0.60000002"
       d="m 23.869589,291.05218 c -0.155644,-0.0229 -0.287522,-0.0921 -0.394359,-0.20668 -0.235605,-0.25278 -0.623037,-0.9954 -0.940979,-1.80364 -0.178463,-0.45367 -0.520092,-1.45271 -0.520092,-1.52092 0,-0.0215 0.225376,-0.17035 0.500838,-0.33078 l 0.500838,-0.29169 0.07864,0.0738 c 0.311011,0.29192 1.206842,1.62998 1.729081,2.58264 0.208876,0.38103 0.229885,0.43538 0.229022,0.59249 -0.0011,0.20922 -0.06691,0.35535 -0.253093,0.56243 -0.223165,0.24822 -0.607789,0.38981 -0.929899,0.34234 z M 8.9840025,290.8035 c 0.0094,-0.0256 0.161851,-0.71309 0.338751,-1.52777 0.176901,-0.81467 0.3254972,-1.4862 0.3302142,-1.49229 0.01591,-0.0205 1.6162953,1.10219 1.6159763,1.13364 -1.73e-4,0.0171 -0.462777,0.41473 -1.028009,0.88355 -1.2725985,1.05553 -1.2778335,1.05971 -1.2569325,1.00287 z m 1.6948745,-2.87427 c -0.445927,-0.30835 -0.8072433,-0.57364 -0.8029243,-0.58953 0.01035,-0.038 3.8412963,-6.52279 3.8729043,-6.55575 0.01743,-0.0182 1.691406,1.03435 1.769862,1.1128 0.0169,0.0169 -3.966278,6.57856 -3.997882,6.58589 -0.01715,0.004 -0.396033,-0.24505 -0.84196,-0.55341 z m 10.514384,-1.71366 c -0.30571,-0.51541 -0.551282,-0.94031 -0.545716,-0.94424 0.0544,-0.0384 1.21281,-0.70434 1.22519,-0.70434 0.01925,0 0.991645,1.93694 0.977385,1.94688 -0.125419,0.0875 -1.053585,0.64099 -1.073254,0.64008 -0.01527,-8e-4 -0.277896,-0.42298 -0.583605,-0.93838 z m -12.5717255,-0.0972 c -0.01061,-0.09 -0.01513,-0.81574 -0.01004,-1.61266 l 0.0093,-1.44895 1.6059625,0.01 c 0.883279,0.005 1.609673,0.0131 1.614209,0.0175 0.0045,0.004 -0.42052,0.72579 -0.944569,1.6031 l -0.9528183,1.59511 H 9.2922275 8.6408755 Z m 4.8171005,0.11753 c 0,-0.008 0.436218,-0.73093 0.969374,-1.60596 l 0.969375,-1.59096 h 1.720406 1.720405 l 0.919735,1.53184 c 0.505855,0.84251 0.937724,1.56519 0.959711,1.60596 l 0.03998,0.0741 h -3.649495 c -2.00722,0 -3.649491,-0.007 -3.649491,-0.015 z m 9.387772,-0.67884 c -0.185264,-0.38161 -0.53394,-1.09727 -0.774835,-1.59036 l -0.437991,-0.89654 1.190372,-9e-5 c 0.654704,-3e-5 1.474532,-0.009 1.821841,-0.0205 l 0.63147,-0.0204 v 1.61091 1.61091 h -1.047006 -1.047006 l -0.336845,-0.69384 z M 20.168617,284.528 c -0.705133,-1.11092 -1.42332,-2.41605 -2.286546,-4.15523 -0.68479,-1.37968 -1.343787,-2.80599 -1.615757,-3.49708 -0.394054,-1.00132 -0.488112,-1.6237 -0.254255,-1.6824 0.374111,-0.0939 1.106347,0.75578 2.148603,2.4932 0.816507,1.3611 2.122975,3.73958 3.119903,5.67992 0.185054,0.36017 0.369461,0.7131 0.409793,0.78429 l 0.07333,0.12944 -0.621336,0.36171 c -0.341735,0.19894 -0.632711,0.3617 -0.646614,0.3617 -0.0139,0 -0.16111,-0.214 -0.327125,-0.47555 z m -5.397763,-3.44224 -0.866235,-0.57109 0.08179,-0.12957 c 0.04498,-0.0712 0.271862,-0.43295 0.504174,-0.80376 0.232312,-0.37081 0.42602,-0.67863 0.430463,-0.68403 0.0045,-0.005 0.394642,0.24467 0.867108,0.55572 l 0.859032,0.56554 -0.127818,0.20829 c -0.0703,0.11455 -0.281858,0.46087 -0.470131,0.76959 -0.188273,0.30871 -0.358027,0.5836 -0.377231,0.61086 -0.03013,0.0428 -0.153717,-0.0288 -0.90115,-0.52155 z m 1.105562,-1.85415 c -0.448925,-0.2932 -0.816227,-0.547 -0.816227,-0.56401 0,-0.12368 0.371137,-0.46784 0.554015,-0.51374 0.300965,-0.0755 0.794575,0.11754 1.069512,0.41834 0.212494,0.23248 0.259041,0.34619 0.2392,0.58434 -0.01497,0.1797 -0.161408,0.60815 -0.207855,0.60815 -0.01233,0 -0.38972,-0.23989 -0.838645,-0.53308 z"
       id="path1557"
       inkscape:connector-curvature="0" />
  </g>
</svg>
