<?xml version="1.0" encoding="UTF-8" standalone="no"?>
<!-- Created with Inkscape (http://www.inkscape.org/) -->

<svg
   xmlns:dc="http://purl.org/dc/elements/1.1/"
   xmlns:cc="http://creativecommons.org/ns#"
   xmlns:rdf="http://www.w3.org/1999/02/22-rdf-syntax-ns#"
   xmlns:svg="http://www.w3.org/2000/svg"
   xmlns="http://www.w3.org/2000/svg"
   xmlns:xlink="http://www.w3.org/1999/xlink"
   xmlns:sodipodi="http://sodipodi.sourceforge.net/DTD/sodipodi-0.dtd"
   xmlns:inkscape="http://www.inkscape.org/namespaces/inkscape"
   width="128"
   height="128"
   viewBox="0 0 33.866666 33.866668"
   version="1.1"
   id="svg366"
   inkscape:version="0.92.3 (2405546, 2018-03-11)"
   sodipodi:docname="folder-macos.svg">
  <defs
     id="defs360">
    <clipPath
       clipPathUnits="userSpaceOnUse"
       id="clipPath977">
      <path
         id="path979"
         d="M 78.994141,52 C 43.625611,52 40,53.999146 40,89.296875 V 140 H 264 V 108.92188 C 264,73.624145 260.37439,68 225.00586,68 H 138 L 122,52 Z"
         style="color:#000000;display:inline;overflow:visible;visibility:visible;fill:#f6531e;fill-opacity:1;fill-rule:nonzero;stroke:none;stroke-width:1;marker:none;enable-background:accumulate"
         inkscape:connector-curvature="0" />
    </clipPath>
    <radialGradient
       inkscape:collect="always"
       xlink:href="#linearGradient1361"
       id="radialGradient1363"
       cx="148"
       cy="39.683556"
       fx="148"
       fy="39.683556"
       r="112"
       gradientTransform="matrix(0.1357708,0,0,0.03450147,-3.7038272,271.43606)"
       gradientUnits="userSpaceOnUse" />
    <linearGradient
       inkscape:collect="always"
       id="linearGradient1361">
      <stop
         style="stop-color:#ffffff;stop-opacity:1;"
         offset="0"
         id="stop1357" />
      <stop
         style="stop-color:#ffffff;stop-opacity:0.20392157"
         offset="1"
         id="stop1359" />
    </linearGradient>
    <radialGradient
       inkscape:collect="always"
       xlink:href="#linearGradient1361"
       id="radialGradient1371"
       cx="152"
       cy="-0.12591045"
       fx="152"
       fy="-0.12591045"
       r="112"
       gradientTransform="matrix(0.1357708,0,0,0.03571371,-3.7038272,267.92195)"
       gradientUnits="userSpaceOnUse" />
    <linearGradient
       gradientUnits="userSpaceOnUse"
       y2="478"
       x2="224"
       y1="86"
       x1="224"
       id="linearGradient4226"
       xlink:href="#linearGradient4338"
       inkscape:collect="always"
       gradientTransform="matrix(0.06152114,0,0,0.06152114,1.183921,265.91059)" />
    <linearGradient
       inkscape:collect="always"
       id="linearGradient4338">
      <stop
         style="stop-color:#76d4fa;stop-opacity:1"
         offset="0"
         id="stop4340" />
      <stop
         style="stop-color:#82d6f8;stop-opacity:1"
         offset="1"
         id="stop4342" />
    </linearGradient>
    <clipPath
       clipPathUnits="userSpaceOnUse"
       id="clipPath977-3">
      <path
         id="path979-6"
         d="M 78.994141,52 C 43.625611,52 40,53.999146 40,89.296875 V 140 H 264 V 108.92188 C 264,73.624145 260.37439,68 225.00586,68 H 138 L 122,52 Z"
         style="color:#000000;display:inline;overflow:visible;visibility:visible;fill:#f6531e;fill-opacity:1;fill-rule:nonzero;stroke:none;stroke-width:1;marker:none;enable-background:accumulate"
         inkscape:connector-curvature="0" />
    </clipPath>
    <filter
       inkscape:collect="always"
       style="color-interpolation-filters:sRGB"
       id="filter989"
       x="-0.053571429"
       width="1.1071429"
       y="-0.06818182"
       height="1.1363636">
      <feGaussianBlur
         inkscape:collect="always"
         stdDeviation="5"
         id="feGaussianBlur991" />
    </filter>
    <linearGradient
       gradientTransform="translate(-27.28,-38.771199)"
       inkscape:collect="always"
       xlink:href="#linearGradient1055"
       id="linearGradient1057"
       x1="264"
       y1="252"
       x2="48"
       y2="52"
       gradientUnits="userSpaceOnUse" />
    <linearGradient
       inkscape:collect="always"
       id="linearGradient1055">
      <stop
         style="stop-color:#000000;stop-opacity:1;"
         offset="0"
         id="stop1051" />
      <stop
         id="stop1059"
         offset="0.1589853"
         style="stop-color:#000000;stop-opacity:0.43290043" />
      <stop
         style="stop-color:#000000;stop-opacity:0.0995671"
         offset="0.19443204"
         id="stop1061" />
      <stop
         style="stop-color:#000000;stop-opacity:0;"
         offset="1"
         id="stop1053" />
    </linearGradient>
    <filter
       inkscape:collect="always"
       style="color-interpolation-filters:sRGB"
       id="filter1067"
       x="-0.056785714"
       width="1.1135714"
       y="-0.063600004"
       height="1.1272">
      <feGaussianBlur
         inkscape:collect="always"
         stdDeviation="5.3"
         id="feGaussianBlur1069" />
    </filter>
    <filter
       inkscape:collect="always"
       style="color-interpolation-filters:sRGB"
       id="filter959"
       x="-0.011357143"
       width="1.0227143"
       y="-0.01272"
       height="1.02544">
      <feGaussianBlur
         inkscape:collect="always"
         stdDeviation="1.06"
         id="feGaussianBlur961" />
    </filter>
    <filter
       inkscape:collect="always"
       style="color-interpolation-filters:sRGB"
       id="filter1344"
       x="-0.011357143"
       width="1.0227143"
       y="-0.01272"
       height="1.02544">
      <feGaussianBlur
         inkscape:collect="always"
         stdDeviation="1.06"
         id="feGaussianBlur1346" />
    </filter>
  </defs>
  <sodipodi:namedview
     id="base"
     pagecolor="#ffffff"
     bordercolor="#666666"
     borderopacity="1.0"
     inkscape:pageopacity="0.0"
     inkscape:pageshadow="2"
     inkscape:zoom="4.8590922"
     inkscape:cx="0.3068799"
     inkscape:cy="58.4354"
     inkscape:document-units="mm"
     inkscape:current-layer="layer1"
     showgrid="false"
     units="px"
     inkscape:window-width="1920"
     inkscape:window-height="1013"
     inkscape:window-x="0"
     inkscape:window-y="34"
     inkscape:window-maximized="1" />
  <metadata
     id="metadata363">
    <rdf:RDF>
      <cc:Work
         rdf:about="">
        <dc:format>image/svg+xml</dc:format>
        <dc:type
           rdf:resource="http://purl.org/dc/dcmitype/StillImage" />
        <dc:title></dc:title>
      </cc:Work>
    </rdf:RDF>
  </metadata>
  <g
     inkscape:label="Livello 1"
     inkscape:groupmode="layer"
     id="layer1"
     transform="translate(0,-263.13332)">
    <path
       style="color:#000000;display:inline;overflow:visible;visibility:visible;opacity:0.1;fill:#000000;fill-opacity:1;fill-rule:nonzero;stroke:none;stroke-width:1;marker:none;filter:url(#filter1344);enable-background:accumulate"
       d="M 51.714141,15.228801 C 16.345611,15.228801 12.72,17.227947 12.72,52.525676 v 41.625005 9.078119 73.07812 c 0,35.29774 3.625611,38.92188 38.994141,38.92188 H 197.72586 c 35.36853,0 38.99414,-3.62414 38.99414,-38.92188 v -73.07812 -25.078119 -6 c 0,-35.29774 -3.62561,-40.92188 -38.99414,-40.92188 H 110.72 l -16,-16 z"
       id="path2049"
       inkscape:connector-curvature="0"
       transform="matrix(0.1357708,0,0,0.1357708,-1.2300706e-8,265.0352)" />
    <path
       style="color:#000000;display:inline;overflow:visible;visibility:visible;opacity:0.1;fill:#000000;fill-opacity:1;fill-rule:nonzero;stroke:none;stroke-width:1;marker:none;filter:url(#filter959);enable-background:accumulate"
       d="M 51.714141,14.228801 C 16.345611,14.228801 12.72,16.227947 12.72,51.525676 v 41.625005 60.656239 29.5 c 0,35.29774 3.625611,38.92188 38.994141,38.92188 H 197.72586 c 35.36853,0 38.99414,-3.62414 38.99414,-38.92188 v -29.5 -76.656239 -6 c 0,-35.297735 -3.62561,-40.92188 -38.99414,-40.92188 H 110.72 l -16,-16 z"
       id="path2055"
       inkscape:connector-curvature="0"
       sodipodi:nodetypes="ssccssssccssccs"
       transform="matrix(0.1357708,0,0,0.1357708,-1.2300706e-8,265.0352)" />
    <path
       inkscape:connector-curvature="0"
       id="path2057"
       d="M 51.714141,13.228801 C 16.345611,13.228801 12.72,15.227947 12.72,50.525676 v 41.625005 9.078119 81.07812 c 0,35.29774 3.625611,38.92188 38.994141,38.92188 H 197.72586 c 35.36853,0 38.99414,-3.62414 38.99414,-38.92188 v -81.07812 -25.078119 -6 c 0,-35.29774 -3.62561,-40.92188 -38.99414,-40.92188 H 110.72 l -16,-16 z"
       style="color:#000000;display:inline;overflow:visible;visibility:visible;opacity:0.4;fill:url(#linearGradient1057);fill-opacity:1;fill-rule:nonzero;stroke:none;stroke-width:1;marker:none;filter:url(#filter1067);enable-background:accumulate"
       sodipodi:nodetypes="ssccssssccssccs"
       transform="matrix(0.1357708,0,0,0.1357708,-1.2300706e-8,265.0352)" />
    <path
       style="color:#000000;display:inline;overflow:visible;visibility:visible;fill:#5cbce0;fill-opacity:1;fill-rule:nonzero;stroke:none;stroke-width:0.1357708;marker:none;enable-background:accumulate"
       d="m 7.0212703,266.83128 c -4.8020138,0 -5.2942658,0.27143 -5.2942658,5.06383 v 6.884 H 32.139663 v -4.2195 c 0,-4.7924 -0.492252,-5.556 -5.294265,-5.556 H 15.032543 l -2.172333,-2.17233 z"
       id="path2059"
       inkscape:connector-curvature="0"
       sodipodi:nodetypes="ssccssccs" />
    <path
       sodipodi:nodetypes="ssssssssccs"
       style="color:#000000;display:inline;overflow:visible;visibility:visible;opacity:0.5;fill:#5b8c9e;fill-opacity:1;fill-rule:nonzero;stroke:none;stroke-width:1;marker:none;filter:url(#filter989);enable-background:accumulate"
       d="M 78.99353,92 C 43.625,92 40,95.625 40,130.92273 v 82.15454 C 40,248.375 43.625,252 78.99353,252 H 225.00647 C 260.375,252 264,248.375 264,213.07727 V 114.92273 C 264,79.625 260.375,76 225.00647,76 H 143.75 l -16.00782,16 z"
       id="path2061"
       inkscape:connector-curvature="0"
       clip-path="url(#clipPath977-3)"
       transform="matrix(0.1357708,0,0,0.1357708,-3.7038277,260.85737)" />
    <path
       inkscape:connector-curvature="0"
       id="path2063"
       d="m 7.0211871,273.34828 c -4.8020137,0 -5.2941826,0.49217 -5.2941826,5.28457 v 11.15419 c 0,4.7924 0.4921689,5.28457 5.2941826,5.28457 H 26.845481 c 4.802013,0 5.294182,-0.49217 5.294182,-5.28457 v -13.32652 c 0,-4.7924 -0.492169,-5.28457 -5.294182,-5.28457 H 15.813225 l -2.173395,2.17233 z"
       style="color:#000000;display:inline;overflow:visible;visibility:visible;fill:url(#linearGradient4226);fill-opacity:1;fill-rule:nonzero;stroke:none;stroke-width:0.1357708;marker:none;enable-background:accumulate"
       sodipodi:nodetypes="ssssssssccs" />
    <path
       style="color:#000000;display:inline;overflow:visible;visibility:visible;opacity:0.4;fill:url(#radialGradient1371);fill-opacity:1;fill-rule:nonzero;stroke:none;stroke-width:0.1357708;marker:none;enable-background:accumulate"
       d="m 7.0212703,266.83128 c -4.8020138,0 -5.2942658,0.27143 -5.2942658,5.06383 v 0.27154 c 0,-4.7924 0.492252,-5.06382 5.2942658,-5.06382 H 12.86021 l 2.172333,2.17233 h 11.812855 c 4.802013,0 5.294265,0.76359 5.294265,5.55599 v -0.27154 c 0,-4.7924 -0.492252,-5.556 -5.294265,-5.556 H 15.032543 l -2.172333,-2.17233 z"
       id="path2065"
       inkscape:connector-curvature="0"
       sodipodi:nodetypes="sscsccscssccs" />
    <path
       style="color:#000000;display:inline;overflow:visible;visibility:visible;opacity:0.4;fill:url(#radialGradient1363);fill-opacity:1;fill-rule:nonzero;stroke:none;stroke-width:0.1357708;marker:none;enable-background:accumulate"
       d="m 15.813225,271.17595 -2.173393,2.17233 H 7.0212703 c -4.8020138,0 -5.2942658,0.49205 -5.2942658,5.28445 v 0.27155 c 0,-4.7924 0.492252,-5.28446 5.2942658,-5.28446 h 6.6185617 l 2.173393,-2.17233 h 11.032173 c 4.802013,0 5.294265,0.49205 5.294265,5.28445 v -0.27154 c 0,-4.7924 -0.492252,-5.28445 -5.294265,-5.28445 z"
       id="path2067"
       inkscape:connector-curvature="0"
       sodipodi:nodetypes="ccsscsccscssc" />
    <path
       style="color:#000000;display:inline;overflow:visible;visibility:visible;opacity:0.1;fill:#ffffff;fill-opacity:1;fill-rule:nonzero;stroke:none;stroke-width:0.1357708;marker:none;enable-background:accumulate"
       d="m 32.139663,286.11073 -8.689331,8.68934 h 3.395066 c 4.802013,0 5.294265,-0.49206 5.294265,-5.28446 z"
       id="path2069"
       inkscape:connector-curvature="0"
       sodipodi:nodetypes="ccssc" />
    <path
       style="color:#000000;display:inline;overflow:visible;visibility:visible;opacity:0.2;fill:#491706;fill-opacity:1;fill-rule:nonzero;stroke:none;stroke-width:0.1357708;marker:none;enable-background:accumulate"
       d="m 1.7270045,289.51561 v 0.27154 c 0,4.79241 0.492252,5.28446 5.2942658,5.28446 H 26.845398 c 4.802013,0 5.294265,-0.49205 5.294265,-5.28446 v -0.27154 c 0,4.7924 -0.492252,5.28446 -5.294265,5.28446 H 7.0212703 c -4.8020138,0 -5.2942658,-0.49206 -5.2942658,-5.28446 z"
       id="path2089"
       inkscape:connector-curvature="0" />
    <g
       id="g3187"
       transform="matrix(0.06989414,0,0,0.06989414,1.6147539,267.76531)"
       style="fill:#ffffff;fill-opacity:0.6">
      <path
         class="st1"
         d="m 241.0412,155.1653 h 0.1996 v 6.9268 h 7.9149 v -28.5147 c 0,-2.0619 -0.399,-3.9337 -1.1877,-5.606 -0.7886,-1.6723 -1.9099,-3.0975 -3.3636,-4.2853 -1.4538,-1.1877 -3.2116,-2.0904 -5.264,-2.7365 -2.0524,-0.6461 -4.3423,-0.9597 -6.8698,-0.9597 -2.3469,0 -4.5133,0.3231 -6.5087,0.9597 -1.9954,0.6367 -3.7151,1.5298 -5.1879,2.6795 -1.4728,1.1497 -2.632,2.499 -3.4871,4.0573 -0.8551,1.5583 -1.3113,3.259 -1.3588,5.0929 h 7.7724 c 0.1805,-0.8931 0.5131,-1.7103 0.9977,-2.4324 0.4751,-0.7316 1.0927,-1.3588 1.8339,-1.8813 0.7412,-0.5225 1.5963,-0.9217 2.5655,-1.2067 0.9691,-0.2756 2.0239,-0.4181 3.145,-0.4181 2.7841,0 4.9315,0.6271 6.4517,1.8718 1.5203,1.2448 2.2804,3.0786 2.2804,5.473 v 3.2115 l -11.212,0.6462 c -5.1594,0.3326 -9.0931,1.5298 -11.8107,3.5822 -2.7175,2.0524 -4.0762,4.9028 -4.0762,8.5515 0,1.8624 0.342,3.5536 1.0357,5.0739 0.6841,1.5203 1.6533,2.8126 2.8885,3.8862 1.2352,1.0737 2.708,1.9003 4.4373,2.4894 1.7198,0.5891 3.6107,0.8837 5.682,0.8837 1.4063,0 2.7745,-0.171 4.1143,-0.5131 1.3398,-0.342 2.575,-0.8361 3.7152,-1.4727 1.1307,-0.6366 2.1473,-1.4158 3.0595,-2.3184 0.9027,-0.9028 1.6438,-1.9195 2.2329,-3.0407 z m -3.164,-1.9289 c -0.9692,0.8361 -2.1284,1.4918 -3.4491,1.9573 -1.3207,0.4655 -2.7556,0.7031 -4.2853,0.7031 -2.3945,0 -4.3138,-0.5226 -5.7391,-1.5868 -1.4348,-1.0547 -2.1474,-2.4799 -2.1474,-4.2662 0,-1.8339 0.7222,-3.2686 2.1664,-4.3043 1.4442,-1.0262 3.5916,-1.6343 6.4517,-1.8148 l 10.1003,-0.6936 v 3.2496 c 0,1.3777 -0.2756,2.6415 -0.8267,3.7912 -0.5415,1.1497 -1.3017,2.1379 -2.2708,2.9645 z"
         id="path3177"
         inkscape:connector-curvature="0"
         style="fill:#ffffff;fill-opacity:0.6" />
      <path
         class="st1"
         d="m 295.8567,246.0873 -13.73,-3.4301 c -16.723,-4.2188 -23.5833,-9.6823 -23.5833,-18.9179 0,-11.7062 10.908,-19.8016 26.6619,-19.8016 15.8489,0 26.4908,8.01 27.726,21.0369 h 17.8632 c -0.7031,-21.645 -19.0034,-36.6957 -45.2281,-36.6957 -26.8424,0 -45.6748,14.9652 -45.6748,36.5247 0,17.5117 10.6419,28.1631 34.0542,33.9686 l 16.2859,4.0477 c 16.7135,4.2188 23.9348,10.3854 23.9348,20.5903 0,11.7916 -11.8867,20.4192 -28.4291,20.4192 -17.2457,0 -29.8354,-8.6276 -31.2417,-21.6544 h -18.0438 c 1.3112,22.7946 20.1531,37.3132 47.8697,37.3132 29.7499,0 48.4018,-14.6992 48.4113,-38.2824 0,-18.481 -10.737,-28.7808 -36.8762,-35.1185 z"
         id="path3179"
         inkscape:connector-curvature="0"
         style="fill:#ffffff;fill-opacity:0.6" />
      <path
         class="st1"
         d="m 205.0487,162.1015 v -28.3246 c 0,-2.0714 -0.3231,-3.9527 -0.9597,-5.644 -0.6366,-1.6913 -1.5488,-3.1356 -2.7365,-4.3232 -1.1877,-1.1877 -2.613,-2.0999 -4.2853,-2.7556 -1.6724,-0.6556 -3.5251,-0.9786 -5.5681,-0.9786 -1.4822,0 -2.8885,0.1805 -4.2283,0.5511 -1.3397,0.3706 -2.575,0.9026 -3.6962,1.6058 -1.1212,0.7032 -2.1188,1.5583 -2.9835,2.5465 -0.8647,0.9882 -1.5678,2.1094 -2.0999,3.3636 h -0.1995 c -0.8361,-2.6035 -2.2614,-4.5988 -4.2662,-5.9861 -1.9954,-1.3873 -4.4564,-2.0809 -7.3639,-2.0809 -1.3492,0 -2.6414,0.171 -3.8672,0.5131 -1.2162,0.342 -2.3469,0.8361 -3.3636,1.4918 -1.0262,0.6556 -1.9194,1.4348 -2.6985,2.3564 -0.7792,0.9122 -1.4158,1.9669 -1.9003,3.1356 h -0.152 v -7.0408 h -7.9244 v 41.5606 h 7.8389 V 136.599 c 0,-1.3492 0.6841,-2.6035 1.1022,-3.7437 0.4276,-1.1497 1.0357,-2.1379 1.8148,-2.9835 0.7792,-0.8362 1.7103,-1.4918 2.7935,-1.9669 1.0927,-0.4751 2.2709,-0.7126 3.5441,-0.7126 1.2258,0 2.3279,0.1901 3.3161,0.5606 0.9787,0.3705 1.8243,0.8932 2.5085,1.5868 0.6936,0.6936 1.2162,1.5203 1.5868,2.4894 0.3706,0.9691 0.5606,2.0524 0.5606,3.2496 v 27.0229 h 8.1525 v -25.7972 c 0,-1.3303 0.2186,-2.556 0.6556,-3.6772 0.4276,-1.1212 1.0262,-2.0904 1.7958,-2.8885 0.7601,-0.8076 1.6818,-1.4348 2.7365,-1.8813 1.0642,-0.4466 2.2329,-0.6746 3.5062,-0.6746 2.6035,0 4.6083,0.7506 6.0051,2.2424 1.4062,1.4918 2.1094,3.6107 2.1094,6.3376 v 26.3388 h 8.2665 z"
         id="path3181"
         inkscape:connector-curvature="0"
         style="fill:#ffffff;fill-opacity:0.6" />
      <path
         class="st1"
         d="m 164.7424,188.2788 c -36.3441,0 -59.1387,25.3411 -59.1387,65.6475 0,40.3063 22.7946,65.5619 59.1387,65.5619 36.3441,0 59.0532,-25.2651 59.0532,-65.5619 0,-40.3064 -22.7091,-65.6475 -59.0532,-65.6475 z m 0,115.0089 c -24.9041,0 -40.4774,-19.0984 -40.4774,-49.371 0,-30.358 15.5733,-49.4565 40.4774,-49.4565 24.8185,0 40.4869,19.0984 40.4774,49.4565 0,30.2725 -15.6589,49.371 -40.4774,49.371 z"
         id="path3183"
         inkscape:connector-curvature="0"
         style="fill:#ffffff;fill-opacity:0.6" />
      <path
         class="st1"
         d="m 269.4704,130.8789 c 0.9692,-1.2352 2.1379,-2.1949 3.5062,-2.8695 1.3588,-0.6746 2.8885,-1.0167 4.5703,-1.0167 1.4348,0 2.708,0.1901 3.8482,0.5891 1.1307,0.3896 2.1189,0.9312 2.9645,1.6248 0.8362,0.6936 1.5108,1.5107 2.0239,2.4514 0.5131,0.9407 0.8742,1.9669 1.0737,3.0596 h 7.9149 c -0.1805,-1.9858 -0.7126,-3.8767 -1.6058,-5.663 -0.8931,-1.7863 -2.1093,-3.3446 -3.6391,-4.6843 -1.5298,-1.3398 -3.3541,-2.404 -5.492,-3.1926 -2.1284,-0.7886 -4.5228,-1.1877 -7.1738,-1.1877 -2.936,0 -5.606,0.5035 -8.0005,1.5107 -2.3944,1.0072 -4.4373,2.442 -6.1381,4.3043 -1.7008,1.8623 -3.012,4.1047 -3.9432,6.7177 -0.9312,2.6225 -1.3968,5.549 -1.3778,8.7701 0,3.2971 0.4656,6.2521 1.3968,8.8841 0.9312,2.632 2.2519,4.8649 3.9622,6.6987 1.7103,1.8338 3.7722,3.2496 6.1666,4.2283 2.404,0.9786 5.074,1.4727 8.0385,1.4727 2.499,0 4.7983,-0.3515 6.8887,-1.0356 2.0904,-0.6841 3.9052,-1.6628 5.454,-2.9266 1.5393,-1.2637 2.7935,-2.784 3.7627,-4.5703 0.9692,-1.7863 1.5677,-3.7627 1.7958,-5.9291 h -7.9244 c -0.5131,2.4514 -1.6153,4.3138 -3.3256,5.587 -1.7103,1.2732 -3.9147,1.9098 -6.6227,1.9098 -1.6533,0 -3.1735,-0.3325 -4.5513,-0.9786 -1.3778,-0.6461 -2.5655,-1.5868 -3.5442,-2.8125 -0.9882,-1.2258 -1.7483,-2.7175 -2.2804,-4.4943 -0.5416,-1.7673 -0.8076,-3.7817 -0.8076,-6.0241 0,-2.1664 0.2661,-4.1332 0.8076,-5.9101 0.5321,-1.7674 1.2827,-3.2781 2.2519,-4.5133 z"
         id="path3185"
         inkscape:connector-curvature="0"
         style="fill:#ffffff;fill-opacity:0.6" />
    </g>
  </g>
</svg>
