<?xml version="1.0" standalone="no"?><!-- Generator: Gravit.io -->
<svg xmlns="http://www.w3.org/2000/svg" 
  xmlns:xlink="http://www.w3.org/1999/xlink" style="isolation:isolate" viewBox="0 0 256 256" width="256" height="256">
  <switch>
    <g>
      <g id="folder">
        <path d=" M 53.039 21 C 16.724 21 13 23.055 13 59.371 L 13 111.538 L 243 111.538 L 243 79.563 C 243 43.247 239.276 37.461 202.961 37.461 L 113.625 37.461 L 97.198 21 L 53.039 21 Z " id="orange" fill="#2B898F"/>
        <path d=" M 53.039 70.384 C 16.722 70.384 13 74.114 13 110.429 L 13 194.953 C 13 231.269 16.722 235 53.039 235 L 202.961 235 C 239.278 235 243 231.269 243 194.953 L 243 93.969 C 243 57.653 239.278 53.922 202.961 53.922 L 119.53 53.922 L 103.092 70.384 L 53.039 70.384 Z " id="change-color-easy" fill="#31C6B7"/>
        <linearGradient id="_lgradient_29" x1="0" y1="0.5" x2="2.83276944882399e-16" y2="-0.5" gradientTransform="matrix(230,0,0,181.078,13,53.922)" gradientUnits="userSpaceOnUse">
          <stop offset="0%" stop-opacity="0.07" style="stop-color:rgb(255,255,255)"/>
          <stop offset="67.28219512106674%" stop-opacity="0" style="stop-color:rgb(252,239,232)"/>
        </linearGradient>
        <path d=" M 53.039 70.384 C 16.722 70.384 13 74.114 13 110.429 L 13 194.953 C 13 231.269 16.722 235 53.039 235 L 202.961 235 C 239.278 235 243 231.269 243 194.953 L 243 93.969 C 243 57.653 239.278 53.922 202.961 53.922 L 119.53 53.922 L 103.092 70.384 L 53.039 70.384 Z " id="gradient white" fill="url(#_lgradient_29)"/>
        <g opacity="0.4">
          <radialGradient id="_rgradient_57" fx="0.5000000213726793" fy="0.13577386516315215" cx="0.5" cy="0.5" r="0.27154159375000003" gradientTransform="matrix(230,0,0,60.62,13,21)" gradientUnits="userSpaceOnUse">
            <stop offset="0%" stop-opacity="1" style="stop-color:rgb(255,255,255)"/>
            <stop offset="100%" stop-opacity="0.20392157" style="stop-color:rgb(255,255,255)"/>
          </radialGradient>
          <path d=" M 53.039 21 C 16.724 21 13 23.055 13 59.371 L 13 61.43 C 13 25.114 16.724 23.057 53.039 23.057 L 97.198 23.057 L 113.625 39.518 L 202.961 39.518 C 239.276 39.518 243 45.304 243 81.62 L 243 79.563 C 243 43.247 239.276 37.461 202.961 37.461 L 113.625 37.461 L 97.198 21 L 53.039 21 Z " id="white" fill="url(#_rgradient_57)"/>
        </g>
        <g opacity="0.4">
          <radialGradient id="_rgradient_58" fx="0.48214287810452355" fy="0.2108154047287485" cx="0.5" cy="0.5" r="0.27154159375" gradientTransform="matrix(230,0,0,58.565,13,53.922)" gradientUnits="userSpaceOnUse">
            <stop offset="0%" stop-opacity="1" style="stop-color:rgb(255,255,255)"/>
            <stop offset="100%" stop-opacity="0.20392157" style="stop-color:rgb(255,255,255)"/>
          </radialGradient>
          <path d=" M 119.53 53.922 L 103.092 70.384 L 53.039 70.384 C 16.724 70.384 13 74.112 13 110.427 L 13 112.487 C 13 76.171 16.724 72.441 53.039 72.441 L 103.092 72.441 L 119.53 55.981 L 202.961 55.981 C 239.276 55.981 243 59.708 243 96.024 L 243 93.967 C 243 57.651 239.276 53.922 202.961 53.922 L 119.53 53.922 Z " id="white" fill="url(#_rgradient_58)"/>
        </g>
        <g opacity="0.1">
          <path d=" M 243 167.096 L 177.285 232.941 L 202.961 232.941 C 239.276 232.941 243 229.214 243 192.898 L 243 167.096 Z " id="white" fill="rgb(255,255,255)"/>
        </g>
        <g opacity="0.2">
          <path d=" M 13 192.898 L 13 194.955 C 13 231.271 16.724 235 53.039 235 L 202.961 235 C 239.276 235 243 231.271 243 194.955 L 243 192.898 C 243 229.214 239.276 232.941 202.961 232.941 L 53.039 232.941 C 16.724 232.941 13 229.214 13 192.898 Z " id="dark" fill="rgb(0,0,0)"/>
        </g>
      </g>
      <g opacity="0.62">
        <path d=" M 90.5 102.25 L 90.5 109.942 L 97.956 109.942 C 88.52 110.054 81.614 109.707 75.969 112.902 C 73.146 114.499 70.92 117.205 69.685 120.579 C 68.45 123.954 68 127.961 68 133.019 L 68 179.173 C 68 184.232 68.449 188.239 69.685 191.613 C 70.92 194.987 73.146 197.693 75.969 199.29 C 81.614 202.485 88.52 202.138 97.956 202.25 L 97.986 202.25 L 158.015 202.25 L 158.045 202.25 C 167.482 202.138 174.387 202.485 180.033 199.29 C 182.855 197.693 185.082 194.987 186.317 191.613 C 187.549 188.239 188 184.232 188 179.173 L 188 133.019 C 188 127.961 187.551 123.954 186.315 120.579 C 185.08 117.205 182.854 114.499 180.031 112.902 C 174.386 109.707 167.48 110.054 158.044 109.942 L 158.014 109.942 L 105.5 109.942 L 105.5 102.25 L 90.5 102.25 Z  M 98 117.635 L 158 117.635 C 167.439 117.748 173.654 118.095 176.398 119.648 C 177.774 120.426 178.567 121.284 179.299 123.284 C 180.03 125.283 180.5 128.462 180.5 133.019 L 180.5 179.173 C 180.5 183.73 180.031 186.909 179.299 188.909 C 178.567 190.908 177.774 191.766 176.398 192.544 C 173.654 194.098 167.439 194.445 158 194.558 L 98.044 194.558 L 98 194.558 C 88.561 194.445 82.332 194.098 79.587 192.544 C 78.211 191.766 77.433 190.908 76.701 188.909 C 75.969 186.909 75.5 183.73 75.5 179.173 L 75.5 133.019 C 75.5 128.462 75.969 125.283 76.701 123.284 C 77.433 121.284 78.211 120.426 79.587 119.648 C 82.332 118.095 88.561 117.748 98 117.635 Z  M 128 125.327 C 111.431 125.327 98 139.103 98 156.096 C 98 173.09 111.431 186.865 128 186.865 C 144.569 186.865 158 173.09 158 156.096 C 158 139.103 144.569 125.327 128 125.327 Z  M 169.25 125.327 C 167.179 125.327 165.5 127.049 165.5 129.173 C 165.5 131.297 167.179 133.019 169.25 133.019 C 171.321 133.019 173 131.297 173 129.173 C 173 127.049 171.321 125.327 169.25 125.327 Z  M 128 133.019 C 140.426 133.019 150.5 143.351 150.5 156.096 C 150.5 168.841 140.426 179.173 128 179.173 C 115.574 179.173 105.5 168.841 105.5 156.096 C 105.5 143.351 115.574 133.019 128 133.019 Z  M 127.37 140.742 C 119.344 141.088 113.009 147.857 113 156.096 C 113 164.593 119.716 171.481 128 171.481 C 136.284 171.481 143 164.593 143 156.096 C 142.987 147.907 136.721 141.164 128.747 140.757 C 132.578 141.15 135.497 144.455 135.5 148.404 C 135.5 152.652 132.142 156.096 128 156.096 C 123.858 156.096 120.5 152.652 120.5 148.404 C 120.501 144.407 123.487 141.077 127.37 140.742 L 127.37 140.742 Z " id="photo" fill="#FFFFFF"/>
      </g>
    </g>
  </switch>
</svg>