<?xml version="1.0" standalone="no"?><!-- Generator: Gravit.io -->
<svg xmlns="http://www.w3.org/2000/svg" 
  xmlns:xlink="http://www.w3.org/1999/xlink" style="isolation:isolate" viewBox="0 0 256 256" width="256" height="256">
  <switch>
    <g>
      <g id="folder">
        <path d=" M 53.039 21 C 16.724 21 13 23.055 13 59.371 L 13 111.538 L 243 111.538 L 243 79.563 C 243 43.247 239.276 37.461 202.961 37.461 L 113.625 37.461 L 97.198 21 L 53.039 21 Z " id="orange" fill="#00796B"/>
        <path d=" M 53.039 70.384 C 16.722 70.384 13 74.114 13 110.429 L 13 194.953 C 13 231.269 16.722 235 53.039 235 L 202.961 235 C 239.278 235 243 231.269 243 194.953 L 243 93.969 C 243 57.653 239.278 53.922 202.961 53.922 L 119.53 53.922 L 103.092 70.384 L 53.039 70.384 Z " id="change-color-easy" fill="#26A69A"/>
        <linearGradient id="_lgradient_19" x1="0" y1="0.5" x2="2.83276944882399e-16" y2="-0.5" gradientTransform="matrix(230,0,0,181.078,13,53.922)" gradientUnits="userSpaceOnUse">
          <stop offset="0%" stop-opacity="0.07" style="stop-color:rgb(255,255,255)"/>
          <stop offset="67.28219512106674%" stop-opacity="0" style="stop-color:rgb(252,239,232)"/>
        </linearGradient>
        <path d=" M 53.039 70.384 C 16.722 70.384 13 74.114 13 110.429 L 13 194.953 C 13 231.269 16.722 235 53.039 235 L 202.961 235 C 239.278 235 243 231.269 243 194.953 L 243 93.969 C 243 57.653 239.278 53.922 202.961 53.922 L 119.53 53.922 L 103.092 70.384 L 53.039 70.384 Z " id="gradient white" fill="url(#_lgradient_19)"/>
        <g opacity="0.4">
          <radialGradient id="_rgradient_37" fx="0.5000000213726793" fy="0.13577386516315215" cx="0.5" cy="0.5" r="0.27154159375000003" gradientTransform="matrix(230,0,0,60.62,13,21)" gradientUnits="userSpaceOnUse">
            <stop offset="0%" stop-opacity="1" style="stop-color:rgb(255,255,255)"/>
            <stop offset="100%" stop-opacity="0.20392157" style="stop-color:rgb(255,255,255)"/>
          </radialGradient>
          <path d=" M 53.039 21 C 16.724 21 13 23.055 13 59.371 L 13 61.43 C 13 25.114 16.724 23.057 53.039 23.057 L 97.198 23.057 L 113.625 39.518 L 202.961 39.518 C 239.276 39.518 243 45.304 243 81.62 L 243 79.563 C 243 43.247 239.276 37.461 202.961 37.461 L 113.625 37.461 L 97.198 21 L 53.039 21 Z " id="white" fill="url(#_rgradient_37)"/>
        </g>
        <g opacity="0.4">
          <radialGradient id="_rgradient_38" fx="0.48214287810452355" fy="0.2108154047287485" cx="0.5" cy="0.5" r="0.27154159375" gradientTransform="matrix(230,0,0,58.565,13,53.922)" gradientUnits="userSpaceOnUse">
            <stop offset="0%" stop-opacity="1" style="stop-color:rgb(255,255,255)"/>
            <stop offset="100%" stop-opacity="0.20392157" style="stop-color:rgb(255,255,255)"/>
          </radialGradient>
          <path d=" M 119.53 53.922 L 103.092 70.384 L 53.039 70.384 C 16.724 70.384 13 74.112 13 110.427 L 13 112.487 C 13 76.171 16.724 72.441 53.039 72.441 L 103.092 72.441 L 119.53 55.981 L 202.961 55.981 C 239.276 55.981 243 59.708 243 96.024 L 243 93.967 C 243 57.651 239.276 53.922 202.961 53.922 L 119.53 53.922 Z " id="white" fill="url(#_rgradient_38)"/>
        </g>
        <g opacity="0.1">
          <path d=" M 243 167.096 L 177.285 232.941 L 202.961 232.941 C 239.276 232.941 243 229.214 243 192.898 L 243 167.096 Z " id="white" fill="rgb(255,255,255)"/>
        </g>
        <g opacity="0.2">
          <path d=" M 13 192.898 L 13 194.955 C 13 231.271 16.724 235 53.039 235 L 202.961 235 C 239.276 235 243 231.271 243 194.955 L 243 192.898 C 243 229.214 239.276 232.941 202.961 232.941 L 53.039 232.941 C 16.724 232.941 13 229.214 13 192.898 Z " id="dark" fill="rgb(0,0,0)"/>
        </g>
      </g>
      <g opacity="0.62">
        <path d=" M 134.522 178.358 C 124.916 182.822 115.988 182.774 109.988 182.342 C 102.836 181.826 97.076 179.87 94.55 178.154 C 92.99 177.098 90.872 177.506 89.816 179.066 C 88.76 180.626 89.168 182.744 90.728 183.8 C 94.796 186.554 101.984 188.6 109.496 189.14 C 110.768 189.236 112.166 189.29 113.672 189.29 C 120.212 189.29 128.516 188.666 137.396 184.538 C 139.1 183.74 139.844 181.718 139.046 180.008 C 138.254 178.304 136.226 177.56 134.522 178.358 Z  M 172.406 173.306 C 172.73 143.69 175.778 87.735 119.09 92.259 C 63.122 96.765 77.96 155.888 77.126 175.688 C 76.388 186.164 72.914 198.968 68 212 L 83.126 212 C 84.686 206.48 85.826 201.014 86.318 195.812 C 87.23 196.448 88.208 197.06 89.252 197.648 C 90.944 198.65 92.402 199.976 93.944 201.38 C 97.544 204.662 101.63 208.388 109.61 208.85 C 110.144 208.88 110.684 208.898 111.212 208.898 C 119.288 208.898 124.808 205.364 129.248 202.526 C 131.372 201.164 133.208 199.988 134.936 199.424 C 139.85 197.888 144.14 195.404 147.344 192.248 C 147.848 191.756 148.31 191.246 148.748 190.73 C 150.536 197.276 152.984 204.65 155.696 212 L 188 212 C 180.236 200.024 172.238 188.282 172.406 173.306 Z  M 82.544 157.196 C 82.544 157.196 82.544 157.19 82.544 157.19 C 81.986 147.524 86.612 139.4 92.87 139.034 C 99.128 138.668 104.654 146.21 105.212 155.87 C 105.212 155.876 105.212 155.876 105.212 155.876 C 105.242 156.398 105.254 156.914 105.254 157.424 C 103.274 157.922 101.48 158.648 99.878 159.494 C 99.872 159.422 99.866 159.35 99.86 159.278 L 99.86 159.272 C 99.326 153.788 96.398 149.648 93.314 150.02 C 90.236 150.398 88.172 155.15 88.712 160.634 C 88.712 160.634 88.712 160.634 88.712 160.634 C 88.946 163.028 89.63 165.164 90.59 166.784 C 90.35 166.97 89.678 167.462 88.904 168.032 C 88.322 168.458 87.608 168.974 86.756 169.604 C 84.428 166.544 82.832 162.152 82.544 157.196 Z  M 145.958 181.082 C 145.736 186.188 139.052 190.994 132.884 192.92 L 132.848 192.932 C 130.28 193.766 127.994 195.23 125.57 196.778 C 121.502 199.382 117.29 202.076 111.212 202.076 C 110.81 202.076 110.402 202.064 110 202.04 C 104.432 201.716 101.828 199.346 98.534 196.34 C 96.794 194.756 94.994 193.112 92.678 191.756 L 92.624 191.726 C 87.62 188.9 84.512 185.39 84.314 182.324 C 84.218 180.806 84.896 179.486 86.33 178.412 C 89.45 176.072 91.544 174.542 92.924 173.528 C 94.46 172.406 94.928 172.07 95.27 171.74 C 95.516 171.512 95.78 171.254 96.068 170.972 C 98.93 168.188 103.724 163.526 111.086 163.526 C 115.586 163.526 120.566 165.26 125.87 168.668 C 128.366 170.294 130.544 171.044 133.298 171.998 C 135.188 172.652 137.336 173.39 140.21 174.62 L 140.258 174.644 C 142.934 175.742 146.102 177.752 145.958 181.076 L 145.958 181.082 Z  M 144.482 169.082 C 143.966 168.824 143.426 168.578 142.868 168.344 C 140.276 167.24 138.2 166.484 136.478 165.884 C 137.432 164.024 138.02 161.702 138.074 159.176 L 138.074 159.176 C 138.206 153.038 135.11 148.052 131.162 148.046 C 127.208 148.034 123.902 153.002 123.77 159.14 L 123.77 159.14 C 123.764 159.344 123.764 159.542 123.77 159.74 C 121.334 158.624 118.94 157.808 116.6 157.31 C 116.588 157.076 116.576 156.848 116.57 156.614 L 116.57 156.608 C 116.342 145.43 123.206 136.172 131.894 135.938 C 140.582 135.704 147.812 144.572 148.04 155.756 L 148.04 155.762 C 148.142 160.82 146.792 165.47 144.482 169.082 Z " id="linux" fill="#FFFFFF"/>
      </g>
    </g>
  </switch>
</svg>