<?xml version="1.0" standalone="no"?><!-- Generator: Gravit.io -->
<svg xmlns="http://www.w3.org/2000/svg" 
  xmlns:xlink="http://www.w3.org/1999/xlink" style="isolation:isolate" viewBox="0 0 256 256" width="256" height="256">
  <g id="folder">
    <path d=" M 53.705469 21 C 17.390414 21 13.666667 23.055089 13.666667 59.371035 L 13.666667 111.538229 L 243.666667 111.538229 L 243.666667 79.563042 C 243.666667 43.247098 239.942918 37.460768 203.627861 37.460768 L 114.291921 37.460768 L 97.864201 21 L 53.705469 21 Z " id="orange" fill="#957552"/>
    <path d=" M 53.705469 70.384311 C 17.388415 70.384311 13.666667 74.113541 13.666667 110.429488 L 13.666667 194.952819 C 13.666667 231.268759 17.388415 235 53.705469 235 L 203.627861 235 C 239.944918 235 243.666667 231.268759 243.666667 194.952819 L 243.666667 93.968715 C 243.666667 57.652775 239.944918 53.921534 203.627861 53.921534 L 120.196686 53.921534 L 103.758968 70.384311 L 53.705469 70.384311 Z " id="change-color-easy" fill="#AE8E6C"/>
    <linearGradient id="_lgradient_7" x1="0" y1="0.5" x2="2.83276944882399e-16" y2="-0.5" gradientTransform="matrix(230,0,0,181.078466,13.666667,53.921534)" gradientUnits="userSpaceOnUse">
      <stop offset="0%" stop-opacity="0.07" style="stop-color:rgb(255,255,255)"/>
      <stop offset="67.28219512106674%" stop-opacity="0" style="stop-color:rgb(252,239,232)"/>
    </linearGradient>
    <path d=" M 53.705469 70.384311 C 17.388415 70.384311 13.666667 74.113541 13.666667 110.429488 L 13.666667 194.952819 C 13.666667 231.268759 17.388415 235 53.705469 235 L 203.627861 235 C 239.944918 235 243.666667 231.268759 243.666667 194.952819 L 243.666667 93.968715 C 243.666667 57.652775 239.944918 53.921534 203.627861 53.921534 L 120.196686 53.921534 L 103.758968 70.384311 L 53.705469 70.384311 Z " id="gradient white" fill="url(#_lgradient_7)"/>
    <g opacity="0.4">
      <radialGradient id="_rgradient_14" fx="0.5000000213726793" fy="0.13577386516315215" cx="0.5" cy="0.5" r="0.27154159375000003" gradientTransform="matrix(230,0,0,60.620138,13.666667,21)" gradientUnits="userSpaceOnUse">
        <stop offset="0%" stop-opacity="1" style="stop-color:rgb(255,255,255)"/>
        <stop offset="100%" stop-opacity="0.20392157" style="stop-color:rgb(255,255,255)"/>
      </radialGradient>
      <path d=" M 53.705469 21 C 17.390414 21 13.666667 23.055089 13.666667 59.371035 L 13.666667 61.430128 C 13.666667 25.114188 17.390414 23.057095 53.705469 23.057095 L 97.864201 23.057095 L 114.291921 39.517861 L 203.627861 39.517861 C 239.942918 39.517861 243.666667 45.304195 243.666667 81.620138 L 243.666667 79.563042 C 243.666667 43.247098 239.942918 37.460768 203.627861 37.460768 L 114.291921 37.460768 L 97.864201 21 L 53.705469 21 Z " id="white" fill="url(#_rgradient_14)"/>
    </g>
    <g opacity="0.4">
      <radialGradient id="_rgradient_15" fx="0.48214287810452355" fy="0.2108154047287485" cx="0.5" cy="0.5" r="0.27154159375" gradientTransform="matrix(230,0,0,58.565044,13.666667,53.921534)" gradientUnits="userSpaceOnUse">
        <stop offset="0%" stop-opacity="1" style="stop-color:rgb(255,255,255)"/>
        <stop offset="100%" stop-opacity="0.20392157" style="stop-color:rgb(255,255,255)"/>
      </radialGradient>
      <path d=" M 120.196686 53.921534 L 103.758968 70.384311 L 53.705469 70.384311 C 17.390414 70.384311 13.666667 74.111537 13.666667 110.427484 L 13.666667 112.486577 C 13.666667 76.170637 17.390414 72.4414 53.705469 72.4414 L 103.758968 72.4414 L 120.196686 55.980634 L 203.627861 55.980634 C 239.942918 55.980634 243.666667 59.707868 243.666667 96.023808 L 243.666667 93.966711 C 243.666667 57.650771 239.942918 53.921534 203.627861 53.921534 L 120.196686 53.921534 Z " id="white" fill="url(#_rgradient_15)"/>
    </g>
    <g opacity="0.1">
      <path d=" M 243.666667 167.095832 L 177.951803 232.940899 L 203.627861 232.940899 C 239.942918 232.940899 243.666667 229.213666 243.666667 192.897726 L 243.666667 167.095832 Z " id="white" fill="rgb(255,255,255)"/>
    </g>
    <g opacity="0.2">
      <path d=" M 13.666667 192.897726 L 13.666667 194.954823 C 13.666667 231.270763 17.390414 235 53.705469 235 L 203.627861 235 C 239.942918 235 243.666667 231.270763 243.666667 194.954823 L 243.666667 192.897726 C 243.666667 229.213666 239.942918 232.940899 203.627861 232.940899 L 53.705469 232.940899 C 17.390414 232.940899 13.666667 229.213666 13.666667 192.897726 Z " id="dark" fill="rgb(0,0,0)"/>
    </g>
  </g>
  <g id="mozilla" style="opacity:0.62;">
    <path d=" M 108.962225 149.901835 C 106.216025 149.901835 104.5103 151.940335 104.5103 155.47696 C 104.5103 158.72221 106.00805 161.21881 108.92045 161.21881 C 111.70805 161.21881 113.538575 158.97196 113.538575 155.393485 C 113.538575 151.60756 111.500075 149.901835 108.962225 149.901835 Z " id="Path" fill="#FFFFFF"/>
    <path d=" M 182.5385 159.34636 C 182.5385 160.55266 183.1205 161.51011 184.7435 161.51011 C 186.6575 161.51011 188.696 160.136785 188.8205 157.01641 C 187.9475 156.891535 186.9905 156.76666 186.11675 156.76666 C 184.20275 156.76666 182.5385 157.30741 182.5385 159.34636 Z " id="Path" fill="#FFFFFF"/>
    <path d=" M 192.9395 165.33781 C 190.4435 165.33781 189.07025 163.881385 188.8205 161.59276 C 187.739 163.50691 185.825 165.33781 182.7875 165.33781 C 180.08375 165.33781 177.005 163.881385 177.005 159.970135 C 177.005 155.352085 181.45625 154.270135 185.74175 154.270135 C 186.782 154.270135 187.86425 154.311985 188.8205 154.436785 L 188.8205 153.81256 C 188.8205 151.898485 188.77925 149.61031 185.74175 149.61031 C 184.619 149.61031 183.74525 149.693785 182.87075 150.15106 L 182.26475 152.262685 L 177.97925 151.805035 L 178.7105 147.48871 C 181.99775 146.15716 183.66125 145.78261 186.74075 145.78261 C 190.7765 145.78261 194.18825 147.862885 194.18825 152.14861 L 194.18825 160.303435 C 194.18825 161.385235 194.6045 161.75941 195.47825 161.75941 C 195.728 161.75941 195.977 161.717635 196.26875 161.63461 L 196.31 164.463835 C 195.31175 165.00496 194.105 165.33781 192.9395 165.33781 Z  M 164.141 164.921635 L 172.25375 136.29634 L 177.5375 136.29634 L 169.42475 164.921635 L 164.141 164.921635 Z  M 153.23975 164.921635 L 161.3525 136.29634 L 166.63625 136.29634 L 158.5235 164.921635 L 153.23975 164.921635 Z  M 149.726 152.897485 L 144.10925 152.897485 L 144.10925 146.15701 L 149.726 146.15701 L 149.726 152.897485 Z  M 149.726 164.92171 L 144.10925 164.92171 L 144.10925 158.181235 L 149.726 158.181235 L 149.726 164.92171 Z  M 139.0145 164.92171 L 122.6216 164.92171 L 122.080925 162.092335 L 132.39875 150.23431 L 126.53285 150.23431 L 125.70065 153.14716 L 121.831175 152.730835 L 122.4968 146.156935 L 138.97325 146.156935 L 139.3895 148.986235 L 128.987 160.844335 L 135.062 160.844335 L 135.93575 157.931935 L 140.18 158.347735 L 139.0145 164.92171 Z  M 108.754325 165.33751 C 102.970775 165.33751 98.9765 161.801185 98.9765 155.80981 C 98.9765 150.31771 102.305225 145.782685 109.045325 145.782685 C 115.785425 145.782685 119.07245 150.31771 119.07245 155.560135 C 119.07245 161.55151 114.745325 165.33751 108.754325 165.33751 Z  M 96.64115 164.92171 L 88.7774 164.92171 L 88.7774 154.35346 C 88.7774 151.10821 87.6959 149.860135 85.573925 149.860135 C 82.9943 149.860135 81.9542 151.690735 81.9542 154.312135 L 81.9542 160.844335 L 84.45035 160.844335 L 84.45035 164.92171 L 76.586975 164.92171 L 76.586975 154.35346 C 76.586975 151.10821 75.5051 149.860135 73.383125 149.860135 C 70.8035 149.860135 69.763325 151.690735 69.763325 154.312135 L 69.763325 160.844335 L 73.341725 160.844335 L 73.341725 164.92171 L 61.899575 164.92171 L 61.899575 160.844335 L 64.396175 160.844335 L 64.396175 150.23431 L 61.899575 150.23431 L 61.899575 146.156935 L 69.763325 146.156935 L 69.763325 148.986235 C 70.8866 146.98951 72.842375 145.78276 75.4634 145.78276 C 78.167825 145.78276 80.66435 147.07261 81.57965 149.818435 C 82.61975 147.32191 84.741725 145.78276 87.6959 145.78276 C 91.066025 145.78276 94.145 147.82126 94.145 152.273635 L 94.145 160.844335 L 96.64115 160.844335 L 96.64115 164.92171 Z  M 52.999986 130.844119 L 52.999986 173.733835 L 203 173.733835 L 203 130.844119 L 52.999986 130.844119 Z " id="Compound Path" fill="#FFFFFF"/>
  </g>
</svg>