<?xml version="1.0" standalone="no"?><!-- Generator: Gravit.io -->
<svg xmlns="http://www.w3.org/2000/svg" 
  xmlns:xlink="http://www.w3.org/1999/xlink" style="isolation:isolate" viewBox="0 0 256 256" width="256" height="256">
  <defs>
    <clipPath id="_clipPath_2yGlBrUAwdmMJNef3iSB9cHbQ4VRhfBX">
      <rect width="256" height="256"/>
    </clipPath>
  </defs>
  <g clip-path="url(#_clipPath_2yGlBrUAwdmMJNef3iSB9cHbQ4VRhfBX)">
    <rect width="256" height="256" style="fill:rgb(0,0,0)" fill-opacity="0"/>
    <g id="folder">
      <path d=" M 53.705 21 C 17.39 21 13.667 23.055 13.667 59.371 L 13.667 151.538 L 243.667 151.538 L 243.667 79.563 C 243.667 43.247 239.943 37.461 203.628 37.461 L 114.292 37.461 L 97.864 21 L 53.705 21 Z " id="orange" fill="#value_dark"/>
      <defs>
        <filter id="KFsI3emUHb2xNahctGCJhdyN9sWi8qpz" x="17.333" y="43.667" width="223" height="130.333" filterUnits="userSpaceOnUse">
          <feGaussianBlur xmlns="http://www.w3.org/2000/svg" in="SourceGraphic" stdDeviation="4.293609062839028"/>
          <feOffset xmlns="http://www.w3.org/2000/svg" dx="0" dy="0" result="pf_100_offsetBlur"/>
          <feFlood xmlns="http://www.w3.org/2000/svg" flood-color="#000000" flood-opacity="0.4"/>
          <feComposite xmlns="http://www.w3.org/2000/svg" in2="pf_100_offsetBlur" operator="in" result="pf_100_dropShadow"/>
          <feBlend xmlns="http://www.w3.org/2000/svg" in="SourceGraphic" in2="pf_100_dropShadow" mode="normal"/>
        </filter>
      </defs>
      <g filter="url(#KFsI3emUHb2xNahctGCJhdyN9sWi8qpz)">
        <path d=" M 40.767 56.667 L 216.9 56.667 C 222.658 56.667 227.333 61.342 227.333 67.1 L 227.333 150.567 C 227.333 156.325 222.658 161 216.9 161 L 40.767 161 C 35.008 161 30.333 156.325 30.333 150.567 L 30.333 67.1 C 30.333 61.342 35.008 56.667 40.767 56.667 Z " id="Path" fill="rgb(235,235,235)"/>
      </g>
      <path d=" M 53.705 100.384 C 17.388 100.384 13.667 104.114 13.667 140.429 L 13.667 194.953 C 13.667 231.269 17.388 235 53.705 235 L 203.628 235 C 239.945 235 243.667 231.269 243.667 194.953 L 243.667 123.969 C 243.667 87.653 239.945 83.922 203.628 83.922 L 120.197 83.922 L 103.759 100.384 L 53.705 100.384 Z " id="change-color-easy" fill="#value_light"/>
      <linearGradient id="_lgradient_12" x1="0" y1="0.5" x2="2.83276944882399e-16" y2="-0.5" gradientTransform="matrix(230,0,0,151.078,13.667,83.922)" gradientUnits="userSpaceOnUse">
        <stop offset="0%" stop-opacity="0.07" style="stop-color:rgb(255,255,255)"/>
        <stop offset="67.28219512106674%" stop-opacity="0" style="stop-color:rgb(252,239,232)"/>
      </linearGradient>
      <path d=" M 53.705 100.384 C 17.388 100.384 13.667 104.114 13.667 140.429 L 13.667 194.953 C 13.667 231.269 17.388 235 53.705 235 L 203.628 235 C 239.945 235 243.667 231.269 243.667 194.953 L 243.667 123.969 C 243.667 87.653 239.945 83.922 203.628 83.922 L 120.197 83.922 L 103.759 100.384 L 53.705 100.384 Z " id="gradient white" fill="url(#_lgradient_12)"/>
      <g opacity="0.4">
        <radialGradient id="_rgradient_24" fx="0.5000000213726793" fy="0.13577386516315215" cx="0.5" cy="0.5" r="0.27154159375000003" gradientTransform="matrix(230,0,0,60.62,13.667,21)" gradientUnits="userSpaceOnUse">
          <stop offset="0%" stop-opacity="1" style="stop-color:rgb(255,255,255)"/>
          <stop offset="100%" stop-opacity="0.20392157" style="stop-color:rgb(255,255,255)"/>
        </radialGradient>
        <path d=" M 53.705 21 C 17.39 21 13.667 23.055 13.667 59.371 L 13.667 61.43 C 13.667 25.114 17.39 23.057 53.705 23.057 L 97.864 23.057 L 114.292 39.518 L 203.628 39.518 C 239.943 39.518 243.667 45.304 243.667 81.62 L 243.667 79.563 C 243.667 43.247 239.943 37.461 203.628 37.461 L 114.292 37.461 L 97.864 21 L 53.705 21 Z " id="white" fill="url(#_rgradient_24)"/>
      </g>
      <g opacity="0.4">
        <radialGradient id="_rgradient_25" fx="0.48214287810452355" fy="0.2108154047287485" cx="0.5" cy="0.5" r="0.27154159375" gradientTransform="matrix(230,0,0,58.565,13.667,83.922)" gradientUnits="userSpaceOnUse">
          <stop offset="0%" stop-opacity="1" style="stop-color:rgb(255,255,255)"/>
          <stop offset="100%" stop-opacity="0.20392157" style="stop-color:rgb(255,255,255)"/>
        </radialGradient>
        <path d=" M 120.197 83.922 L 103.759 100.384 L 53.705 100.384 C 17.39 100.384 13.667 104.112 13.667 140.427 L 13.667 142.487 C 13.667 106.171 17.39 102.441 53.705 102.441 L 103.759 102.441 L 120.197 85.981 L 203.628 85.981 C 239.943 85.981 243.667 89.708 243.667 126.024 L 243.667 123.967 C 243.667 87.651 239.943 83.922 203.628 83.922 L 120.197 83.922 Z " id="white" fill="url(#_rgradient_25)"/>
      </g>
      <g opacity="0.1">
        <path d=" M 243.667 167.096 L 177.952 232.941 L 203.628 232.941 C 239.943 232.941 243.667 229.214 243.667 192.898 L 243.667 167.096 Z " id="white" fill="rgb(255,255,255)"/>
      </g>
      <g opacity="0.2">
        <path d=" M 13.667 192.898 L 13.667 194.955 C 13.667 231.271 17.39 235 53.705 235 L 203.628 235 C 239.943 235 243.667 231.271 243.667 194.955 L 243.667 192.898 C 243.667 229.214 239.943 232.941 203.628 232.941 L 53.705 232.941 C 17.39 232.941 13.667 229.214 13.667 192.898 Z " id="dark" fill="rgb(0,0,0)"/>
      </g>
    </g>
  </g>
</svg>