<?xml version="1.0" standalone="no"?><!-- Generator: Gravit.io -->
<svg xmlns="http://www.w3.org/2000/svg" 
  xmlns:xlink="http://www.w3.org/1999/xlink" style="isolation:isolate" viewBox="0 0 256 256" width="256" height="256">
  <switch>
    <g>
      <g id="folder">
        <path d=" M 53.039 21 C 16.724 21 13 23.055 13 59.371 L 13 111.538 L 243 111.538 L 243 79.563 C 243 43.247 239.276 37.461 202.961 37.461 L 113.625 37.461 L 97.198 21 L 53.039 21 Z " id="orange" fill="#000000"/>
        <path d=" M 53.039 70.384 C 16.722 70.384 13 74.114 13 110.429 L 13 194.953 C 13 231.269 16.722 235 53.039 235 L 202.961 235 C 239.278 235 243 231.269 243 194.953 L 243 93.969 C 243 57.653 239.278 53.922 202.961 53.922 L 119.53 53.922 L 103.092 70.384 L 53.039 70.384 Z " id="change-color-easy" fill="#1A1A1A"/>
        <linearGradient id="_lgradient_5" x1="0" y1="0.5" x2="2.83276944882399e-16" y2="-0.5" gradientTransform="matrix(230,0,0,181.078,13,53.922)" gradientUnits="userSpaceOnUse">
          <stop offset="0%" stop-opacity="0.07" style="stop-color:rgb(255,255,255)"/>
          <stop offset="67.28219512106674%" stop-opacity="0" style="stop-color:rgb(252,239,232)"/>
        </linearGradient>
        <path d=" M 53.039 70.384 C 16.722 70.384 13 74.114 13 110.429 L 13 194.953 C 13 231.269 16.722 235 53.039 235 L 202.961 235 C 239.278 235 243 231.269 243 194.953 L 243 93.969 C 243 57.653 239.278 53.922 202.961 53.922 L 119.53 53.922 L 103.092 70.384 L 53.039 70.384 Z " id="gradient white" fill="url(#_lgradient_5)"/>
        <g opacity="0.4">
          <radialGradient id="_rgradient_9" fx="0.5000000213726793" fy="0.13577386516315215" cx="0.5" cy="0.5" r="0.27154159375000003" gradientTransform="matrix(230,0,0,60.62,13,21)" gradientUnits="userSpaceOnUse">
            <stop offset="0%" stop-opacity="1" style="stop-color:rgb(255,255,255)"/>
            <stop offset="100%" stop-opacity="0.20392157" style="stop-color:rgb(255,255,255)"/>
          </radialGradient>
          <path d=" M 53.039 21 C 16.724 21 13 23.055 13 59.371 L 13 61.43 C 13 25.114 16.724 23.057 53.039 23.057 L 97.198 23.057 L 113.625 39.518 L 202.961 39.518 C 239.276 39.518 243 45.304 243 81.62 L 243 79.563 C 243 43.247 239.276 37.461 202.961 37.461 L 113.625 37.461 L 97.198 21 L 53.039 21 Z " id="white" fill="url(#_rgradient_9)"/>
        </g>
        <g opacity="0.4">
          <radialGradient id="_rgradient_10" fx="0.48214287810452355" fy="0.2108154047287485" cx="0.5" cy="0.5" r="0.27154159375" gradientTransform="matrix(230,0,0,58.565,13,53.922)" gradientUnits="userSpaceOnUse">
            <stop offset="0%" stop-opacity="1" style="stop-color:rgb(255,255,255)"/>
            <stop offset="100%" stop-opacity="0.20392157" style="stop-color:rgb(255,255,255)"/>
          </radialGradient>
          <path d=" M 119.53 53.922 L 103.092 70.384 L 53.039 70.384 C 16.724 70.384 13 74.112 13 110.427 L 13 112.487 C 13 76.171 16.724 72.441 53.039 72.441 L 103.092 72.441 L 119.53 55.981 L 202.961 55.981 C 239.276 55.981 243 59.708 243 96.024 L 243 93.967 C 243 57.651 239.276 53.922 202.961 53.922 L 119.53 53.922 Z " id="white" fill="url(#_rgradient_10)"/>
        </g>
        <g opacity="0.1">
          <path d=" M 243 167.096 L 177.285 232.941 L 202.961 232.941 C 239.276 232.941 243 229.214 243 192.898 L 243 167.096 Z " id="white" fill="rgb(255,255,255)"/>
        </g>
        <g opacity="0.2">
          <path d=" M 13 192.898 L 13 194.955 C 13 231.271 16.724 235 53.039 235 L 202.961 235 C 239.276 235 243 231.271 243 194.955 L 243 192.898 C 243 229.214 239.276 232.941 202.961 232.941 L 53.039 232.941 C 16.724 232.941 13 229.214 13 192.898 Z " id="dark" fill="rgb(0,0,0)"/>
        </g>
      </g>
      <path d=" M 180.432 212.932 C 179.256 212.758 178.258 212.236 177.45 211.368 C 175.67 209.458 172.74 203.844 170.338 197.736 C 168.988 194.306 166.406 186.754 166.406 186.238 C 166.406 186.076 168.11 184.95 170.192 183.738 L 173.978 181.534 L 174.572 182.09 C 176.924 184.298 183.694 194.412 187.642 201.614 C 189.222 204.494 189.38 204.904 189.374 206.092 C 189.366 207.674 188.868 208.778 187.46 210.344 C 185.774 212.22 182.866 213.29 180.432 212.932 L 180.432 212.932 Z  M 67.91 211.052 C 67.982 210.858 69.134 205.662 70.472 199.502 C 71.808 193.344 72.932 188.268 72.968 188.222 C 73.088 188.068 85.186 196.554 85.182 196.792 C 85.182 196.922 81.684 199.926 77.412 203.47 C 67.792 211.45 67.752 211.482 67.91 211.052 Z  M 80.722 189.324 C 77.352 186.994 74.62 184.988 74.652 184.868 C 74.732 184.582 103.69 135.562 103.928 135.314 C 104.06 135.176 116.714 143.132 117.306 143.724 C 117.434 143.852 87.326 193.452 87.086 193.508 C 86.958 193.538 84.094 191.656 80.722 189.324 Z  M 160.202 176.37 C 157.89 172.474 156.034 169.264 156.076 169.234 C 156.488 168.944 165.244 163.91 165.338 163.91 C 165.482 163.91 172.834 178.55 172.726 178.626 C 171.778 179.288 164.762 183.472 164.612 183.464 C 164.498 183.458 162.512 180.266 160.202 176.37 L 160.202 176.37 Z  M 65.17 175.636 C 65.09 174.956 65.056 169.47 65.094 163.446 L 65.166 152.494 L 77.304 152.57 C 83.982 152.606 89.472 152.668 89.506 152.702 C 89.54 152.732 86.328 158.188 82.366 164.82 L 75.164 176.876 L 70.24 176.876 L 65.316 176.876 L 65.17 175.636 Z  M 101.584 176.524 C 101.584 176.464 104.88 171 108.91 164.386 L 116.238 152.36 L 129.244 152.36 L 142.248 152.36 L 149.2 163.938 C 153.024 170.306 156.288 175.77 156.454 176.078 L 156.756 176.638 L 129.17 176.638 C 113.998 176.638 101.584 176.584 101.584 176.524 L 101.584 176.524 Z  M 172.546 171.394 C 171.146 168.508 168.51 163.098 166.69 159.372 L 163.378 152.594 L 172.376 152.594 C 177.326 152.594 183.522 152.526 186.148 152.438 L 190.922 152.284 L 190.922 164.462 L 190.922 176.638 L 183.006 176.638 L 175.092 176.638 L 172.546 171.394 L 172.546 171.394 Z  M 152.456 163.614 C 147.126 155.218 141.696 145.352 135.172 132.206 C 129.996 121.776 125.014 110.994 122.958 105.77 C 119.98 98.202 119.268 93.496 121.036 93.054 C 123.864 92.344 129.398 98.766 137.278 111.9 C 143.45 122.188 153.326 140.166 160.86 154.834 C 162.26 157.556 163.654 160.224 163.958 160.762 L 164.512 161.742 L 159.816 164.476 C 157.234 165.978 155.034 167.21 154.928 167.21 C 154.824 167.21 153.71 165.592 152.456 163.614 L 152.456 163.614 Z  M 111.654 137.594 L 105.106 133.278 L 105.724 132.298 C 106.064 131.76 107.78 129.026 109.536 126.222 C 111.292 123.42 112.756 121.092 112.79 121.052 C 112.824 121.014 115.772 122.902 119.344 125.252 L 125.838 129.528 L 124.87 131.102 C 124.34 131.968 122.74 134.586 121.318 136.92 C 119.894 139.252 118.61 141.33 118.466 141.536 C 118.238 141.86 117.304 141.32 111.654 137.594 L 111.654 137.594 Z  M 120.01 123.578 C 116.618 121.362 113.84 119.444 113.84 119.316 C 113.84 118.38 116.646 115.78 118.028 115.432 C 120.304 114.862 124.034 116.32 126.114 118.594 C 127.72 120.352 128.072 121.212 127.922 123.012 C 127.808 124.37 126.702 127.608 126.35 127.608 C 126.256 127.608 123.404 125.796 120.01 123.578 L 120.01 123.578 Z " id="application" fill="#FFFFFF" fill-opacity="0.62"/>
    </g>
  </switch>
</svg>