<?xml version="1.0" encoding="UTF-8" standalone="no"?>
<!-- Created with Inkscape (http://www.inkscape.org/) -->

<svg
   xmlns:dc="http://purl.org/dc/elements/1.1/"
   xmlns:cc="http://creativecommons.org/ns#"
   xmlns:rdf="http://www.w3.org/1999/02/22-rdf-syntax-ns#"
   xmlns:svg="http://www.w3.org/2000/svg"
   xmlns="http://www.w3.org/2000/svg"
   xmlns:xlink="http://www.w3.org/1999/xlink"
   xmlns:sodipodi="http://sodipodi.sourceforge.net/DTD/sodipodi-0.dtd"
   xmlns:inkscape="http://www.inkscape.org/namespaces/inkscape"
   width="256"
   height="256"
   viewBox="0 0 67.733332 67.733335"
   version="1.1"
   id="svg1488"
   inkscape:version="0.92.3 (unknown)"
   sodipodi:docname="input-keyboard.svg">
  <defs
     id="defs1482">
    <clipPath
       clipPathUnits="userSpaceOnUse"
       id="clipPath1025">
      <path
         id="path1027"
         d="M 111.94141,84 C 99.359506,84.145 90.1531,83.713998 82.625,87.867188 c -3.7641,2.0768 -6.751838,5.574737 -8.398438,9.960937 C 72.580062,102.21433 72,107.4241 72,114 v 42 h 160 v -26 c 0,-6.5759 -0.57996,-11.78566 -2.22656,-16.17188 -0.205,-0.5455 -0.47919,-1.03993 -0.74219,-1.54296 -0.1,-0.1848 -0.17844,-0.38051 -0.27344,-0.56641 -1.727,-3.38752 -4.25471,-6.14522 -7.38281,-7.87109 C 213.8463,99.694146 204.64049,100.1454 192.05859,100 H 192 151.66797 L 135.45312,84 h -23.49218 z"
         style="color:#000000;font-style:normal;font-variant:normal;font-weight:normal;font-stretch:normal;font-size:medium;line-height:normal;font-family:sans-serif;font-variant-ligatures:none;font-variant-position:normal;font-variant-caps:normal;font-variant-numeric:normal;font-variant-alternates:normal;font-feature-settings:normal;text-indent:0;text-align:start;text-decoration:none;text-decoration-line:none;text-decoration-style:solid;text-decoration-color:#000000;letter-spacing:normal;word-spacing:normal;text-transform:none;writing-mode:lr-tb;direction:ltr;baseline-shift:baseline;text-anchor:start;white-space:normal;shape-padding:0;clip-rule:nonzero;display:inline;overflow:visible;visibility:visible;opacity:1;isolation:auto;mix-blend-mode:normal;color-interpolation:sRGB;color-interpolation-filters:linearRGB;solid-color:#000000;solid-opacity:1;fill:#e3dfd5;fill-opacity:1;fill-rule:nonzero;stroke:none;stroke-width:4.00000048;stroke-linecap:butt;stroke-linejoin:miter;stroke-miterlimit:4;stroke-dasharray:none;stroke-dashoffset:0;stroke-opacity:1;marker:none;color-rendering:auto;image-rendering:auto;shape-rendering:auto;text-rendering:auto;enable-background:accumulate"
         inkscape:connector-curvature="0" />
    </clipPath>
    <clipPath
       clipPathUnits="userSpaceOnUse"
       id="clipPath1082-3">
      <path
         sodipodi:nodetypes="sssssssss"
         inkscape:connector-curvature="0"
         id="path1084-6"
         d="M 361.9375,-212 C 507.2348,-212 528,-191.28677 528,-46.125 V 70.125 C 528,215.28618 507.2348,236 361.9375,236 H 214.0625 C 68.7652,236 48,215.28618 48,70.125 V -46.125 C 48,-191.28677 68.7652,-212 214.0625,-212 Z"
         style="display:inline;opacity:1;fill:#8c59d9;fill-opacity:1;stroke:none;stroke-width:2;stroke-linecap:round;stroke-linejoin:round;stroke-miterlimit:4;stroke-dasharray:none;stroke-dashoffset:0;stroke-opacity:1;enable-background:new" />
    </clipPath>
    <clipPath
       clipPathUnits="userSpaceOnUse"
       id="clipPath1082-3-5">
      <path
         sodipodi:nodetypes="sssssssss"
         inkscape:connector-curvature="0"
         id="path1084-6-6"
         d="M 361.9375,-212 C 507.2348,-212 528,-191.28677 528,-46.125 V 70.125 C 528,215.28618 507.2348,236 361.9375,236 H 214.0625 C 68.7652,236 48,215.28618 48,70.125 V -46.125 C 48,-191.28677 68.7652,-212 214.0625,-212 Z"
         style="display:inline;opacity:1;fill:#8c59d9;fill-opacity:1;stroke:none;stroke-width:2;stroke-linecap:round;stroke-linejoin:round;stroke-miterlimit:4;stroke-dasharray:none;stroke-dashoffset:0;stroke-opacity:1;enable-background:new" />
    </clipPath>
    <clipPath
       clipPathUnits="userSpaceOnUse"
       id="clipPath1082-3-9">
      <path
         sodipodi:nodetypes="sssssssss"
         inkscape:connector-curvature="0"
         id="path1084-6-3"
         d="M 361.9375,-212 C 507.2348,-212 528,-191.28677 528,-46.125 V 70.125 C 528,215.28618 507.2348,236 361.9375,236 H 214.0625 C 68.7652,236 48,215.28618 48,70.125 V -46.125 C 48,-191.28677 68.7652,-212 214.0625,-212 Z"
         style="display:inline;opacity:1;fill:#8c59d9;fill-opacity:1;stroke:none;stroke-width:2;stroke-linecap:round;stroke-linejoin:round;stroke-miterlimit:4;stroke-dasharray:none;stroke-dashoffset:0;stroke-opacity:1;enable-background:new" />
    </clipPath>
    <clipPath
       clipPathUnits="userSpaceOnUse"
       id="clipPath1082-3-3">
      <path
         sodipodi:nodetypes="sssssssss"
         inkscape:connector-curvature="0"
         id="path1084-6-67"
         d="M 361.9375,-212 C 507.2348,-212 528,-191.28677 528,-46.125 V 70.125 C 528,215.28618 507.2348,236 361.9375,236 H 214.0625 C 68.7652,236 48,215.28618 48,70.125 V -46.125 C 48,-191.28677 68.7652,-212 214.0625,-212 Z"
         style="display:inline;opacity:1;fill:#8c59d9;fill-opacity:1;stroke:none;stroke-width:2;stroke-linecap:round;stroke-linejoin:round;stroke-miterlimit:4;stroke-dasharray:none;stroke-dashoffset:0;stroke-opacity:1;enable-background:new" />
    </clipPath>
    <clipPath
       clipPathUnits="userSpaceOnUse"
       id="clipPath1082-3-53">
      <path
         sodipodi:nodetypes="sssssssss"
         inkscape:connector-curvature="0"
         id="path1084-6-5"
         d="M 361.9375,-212 C 507.2348,-212 528,-191.28677 528,-46.125 V 70.125 C 528,215.28618 507.2348,236 361.9375,236 H 214.0625 C 68.7652,236 48,215.28618 48,70.125 V -46.125 C 48,-191.28677 68.7652,-212 214.0625,-212 Z"
         style="display:inline;opacity:1;fill:#8c59d9;fill-opacity:1;stroke:none;stroke-width:2;stroke-linecap:round;stroke-linejoin:round;stroke-miterlimit:4;stroke-dasharray:none;stroke-dashoffset:0;stroke-opacity:1;enable-background:new" />
    </clipPath>
    <clipPath
       clipPathUnits="userSpaceOnUse"
       id="clipPath1082-3-6">
      <path
         sodipodi:nodetypes="sssssssss"
         inkscape:connector-curvature="0"
         id="path1084-6-2"
         d="M 361.9375,-212 C 507.2348,-212 528,-191.28677 528,-46.125 V 70.125 C 528,215.28618 507.2348,236 361.9375,236 H 214.0625 C 68.7652,236 48,215.28618 48,70.125 V -46.125 C 48,-191.28677 68.7652,-212 214.0625,-212 Z"
         style="display:inline;opacity:1;fill:#8c59d9;fill-opacity:1;stroke:none;stroke-width:2;stroke-linecap:round;stroke-linejoin:round;stroke-miterlimit:4;stroke-dasharray:none;stroke-dashoffset:0;stroke-opacity:1;enable-background:new" />
    </clipPath>
    <clipPath
       clipPathUnits="userSpaceOnUse"
       id="clipPath1082-3-91">
      <path
         sodipodi:nodetypes="sssssssss"
         inkscape:connector-curvature="0"
         id="path1084-6-27"
         d="M 361.9375,-212 C 507.2348,-212 528,-191.28677 528,-46.125 V 70.125 C 528,215.28618 507.2348,236 361.9375,236 H 214.0625 C 68.7652,236 48,215.28618 48,70.125 V -46.125 C 48,-191.28677 68.7652,-212 214.0625,-212 Z"
         style="display:inline;opacity:1;fill:#8c59d9;fill-opacity:1;stroke:none;stroke-width:2;stroke-linecap:round;stroke-linejoin:round;stroke-miterlimit:4;stroke-dasharray:none;stroke-dashoffset:0;stroke-opacity:1;enable-background:new" />
    </clipPath>
    <clipPath
       clipPathUnits="userSpaceOnUse"
       id="clipPath1025-0">
      <path
         style="opacity:1;fill:#8c59d9;fill-opacity:1;stroke:none;stroke-width:2;stroke-linecap:round;stroke-linejoin:round;stroke-miterlimit:4;stroke-dasharray:none;stroke-dashoffset:0;stroke-opacity:1"
         d="M 329.9375,32 C 475.2348,32 496,52.71323 496,197.875 v 116.25 C 496,459.28618 475.2348,480 329.9375,480 H 182.0625 C 36.7652,480 16,459.28618 16,314.125 V 197.875 C 16,52.71323 36.7652,32 182.0625,32 Z"
         id="path1027-9"
         inkscape:connector-curvature="0"
         sodipodi:nodetypes="sssssssss" />
    </clipPath>
    <clipPath
       clipPathUnits="userSpaceOnUse"
       id="clipPath4277-8">
      <rect
         style="color:#000000;display:inline;overflow:visible;visibility:visible;opacity:0.81999972;fill:#88b637;fill-opacity:1;fill-rule:nonzero;stroke:none;stroke-width:2;stroke-linecap:butt;stroke-linejoin:miter;stroke-miterlimit:4;stroke-dasharray:none;stroke-dashoffset:0;stroke-opacity:1;marker:none;enable-background:accumulate"
         id="rect4279-6"
         width="512"
         height="512"
         x="5.5999999e-07"
         y="0"
         ry="1" />
    </clipPath>
    <linearGradient
       id="linearGradient3650-7-9">
      <stop
         style="stop-color:#5884f4;stop-opacity:1"
         offset="0"
         id="stop4366" />
      <stop
         id="stop4368"
         offset="1"
         style="stop-color:#80a3fa;stop-opacity:1" />
    </linearGradient>
    <clipPath
       clipPathUnits="userSpaceOnUse"
       id="clipPath1082-3-36">
      <path
         sodipodi:nodetypes="sssssssss"
         inkscape:connector-curvature="0"
         id="path1084-6-0"
         d="M 361.9375,-212 C 507.2348,-212 528,-191.28677 528,-46.125 V 70.125 C 528,215.28618 507.2348,236 361.9375,236 H 214.0625 C 68.7652,236 48,215.28618 48,70.125 V -46.125 C 48,-191.28677 68.7652,-212 214.0625,-212 Z"
         style="display:inline;opacity:1;fill:#8c59d9;fill-opacity:1;stroke:none;stroke-width:2;stroke-linecap:round;stroke-linejoin:round;stroke-miterlimit:4;stroke-dasharray:none;stroke-dashoffset:0;stroke-opacity:1;enable-background:new" />
    </clipPath>
    <clipPath
       clipPathUnits="userSpaceOnUse"
       id="clipPath983">
      <path
         id="path985"
         d="M 115.03125,44 C 42.3826,44 32,54.356615 32,126.9375 v 58.125 C 32,257.64309 42.3826,268 115.03125,268 H 152 V 44 Z"
         style="opacity:1;fill:#4d4d4d;fill-opacity:1;stroke:none;stroke-width:2;stroke-linecap:round;stroke-linejoin:round;stroke-miterlimit:4;stroke-dasharray:none;stroke-dashoffset:0;stroke-opacity:1"
         inkscape:connector-curvature="0" />
    </clipPath>
    <clipPath
       clipPathUnits="userSpaceOnUse"
       id="clipPath1082-3-62">
      <path
         sodipodi:nodetypes="sssssssss"
         inkscape:connector-curvature="0"
         id="path1084-6-61"
         d="M 361.9375,-212 C 507.2348,-212 528,-191.28677 528,-46.125 V 70.125 C 528,215.28618 507.2348,236 361.9375,236 H 214.0625 C 68.7652,236 48,215.28618 48,70.125 V -46.125 C 48,-191.28677 68.7652,-212 214.0625,-212 Z"
         style="display:inline;opacity:1;fill:#8c59d9;fill-opacity:1;stroke:none;stroke-width:2;stroke-linecap:round;stroke-linejoin:round;stroke-miterlimit:4;stroke-dasharray:none;stroke-dashoffset:0;stroke-opacity:1;enable-background:new" />
    </clipPath>
    <clipPath
       clipPathUnits="userSpaceOnUse"
       id="clipPath949">
      <path
         sodipodi:nodetypes="sssssssss"
         inkscape:connector-curvature="0"
         id="path951"
         d="M 329.9375,32 C 475.2348,32 496,52.71323 496,197.875 v 116.25 C 496,459.28618 475.2348,480 329.9375,480 H 182.0625 C 36.7652,480 16,459.28618 16,314.125 V 197.875 C 16,52.71323 36.7652,32 182.0625,32 Z"
         style="opacity:1;fill:#eab305;fill-opacity:1;stroke:none;stroke-width:4;stroke-linecap:round;stroke-linejoin:round;stroke-miterlimit:4;stroke-dasharray:none;stroke-dashoffset:0;stroke-opacity:1" />
    </clipPath>
    <clipPath
       clipPathUnits="userSpaceOnUse"
       id="clipPath954">
      <path
         sodipodi:nodetypes="sssssssss"
         inkscape:connector-curvature="0"
         id="path952"
         d="M 329.9375,32 C 475.2348,32 496,52.71323 496,197.875 v 116.25 C 496,459.28618 475.2348,480 329.9375,480 H 182.0625 C 36.7652,480 16,459.28618 16,314.125 V 197.875 C 16,52.71323 36.7652,32 182.0625,32 Z"
         style="opacity:1;fill:#eab305;fill-opacity:1;stroke:none;stroke-width:4;stroke-linecap:round;stroke-linejoin:round;stroke-miterlimit:4;stroke-dasharray:none;stroke-dashoffset:0;stroke-opacity:1" />
    </clipPath>
    <clipPath
       clipPathUnits="userSpaceOnUse"
       id="clipPath1082-3-8">
      <path
         sodipodi:nodetypes="sssssssss"
         inkscape:connector-curvature="0"
         id="path1084-6-7"
         d="M 361.9375,-212 C 507.2348,-212 528,-191.28677 528,-46.125 V 70.125 C 528,215.28618 507.2348,236 361.9375,236 H 214.0625 C 68.7652,236 48,215.28618 48,70.125 V -46.125 C 48,-191.28677 68.7652,-212 214.0625,-212 Z"
         style="display:inline;opacity:1;fill:#8c59d9;fill-opacity:1;stroke:none;stroke-width:2;stroke-linecap:round;stroke-linejoin:round;stroke-miterlimit:4;stroke-dasharray:none;stroke-dashoffset:0;stroke-opacity:1;enable-background:new" />
    </clipPath>
    <clipPath
       clipPathUnits="userSpaceOnUse"
       id="clipPath1082-3-92">
      <path
         sodipodi:nodetypes="sssssssss"
         inkscape:connector-curvature="0"
         id="path1084-6-02"
         d="M 361.9375,-212 C 507.2348,-212 528,-191.28677 528,-46.125 V 70.125 C 528,215.28618 507.2348,236 361.9375,236 H 214.0625 C 68.7652,236 48,215.28618 48,70.125 V -46.125 C 48,-191.28677 68.7652,-212 214.0625,-212 Z"
         style="display:inline;opacity:1;fill:#8c59d9;fill-opacity:1;stroke:none;stroke-width:2;stroke-linecap:round;stroke-linejoin:round;stroke-miterlimit:4;stroke-dasharray:none;stroke-dashoffset:0;stroke-opacity:1;enable-background:new" />
    </clipPath>
    <clipPath
       clipPathUnits="userSpaceOnUse"
       id="clipPath1082">
      <path
         sodipodi:nodetypes="sssssssss"
         inkscape:connector-curvature="0"
         id="path1084"
         d="M 361.9375,-212 C 507.2348,-212 528,-191.28677 528,-46.125 V 70.125 C 528,215.28618 507.2348,236 361.9375,236 H 214.0625 C 68.7652,236 48,215.28618 48,70.125 V -46.125 C 48,-191.28677 68.7652,-212 214.0625,-212 Z"
         style="display:inline;opacity:1;fill:#8c59d9;fill-opacity:1;stroke:none;stroke-width:2;stroke-linecap:round;stroke-linejoin:round;stroke-miterlimit:4;stroke-dasharray:none;stroke-dashoffset:0;stroke-opacity:1;enable-background:new" />
    </clipPath>
    <linearGradient
       inkscape:collect="always"
       xlink:href="#linearGradient1013"
       id="linearGradient1108"
       x1="296"
       y1="-212"
       x2="296"
       y2="236"
       gradientUnits="userSpaceOnUse" />
    <linearGradient
       id="linearGradient1013"
       inkscape:collect="always">
      <stop
         id="stop1005"
         offset="0"
         style="stop-color:#ffffff;stop-opacity:1;" />
      <stop
         style="stop-color:#ffffff;stop-opacity:0.09803922"
         offset="0.125"
         id="stop1007" />
      <stop
         style="stop-color:#000000;stop-opacity:0.09803922"
         offset="0.92500001"
         id="stop1009" />
      <stop
         id="stop1011"
         offset="1"
         style="stop-color:#000000;stop-opacity:0.49803922" />
    </linearGradient>
    <clipPath
       clipPathUnits="userSpaceOnUse"
       id="clipPath1082-3-361">
      <path
         sodipodi:nodetypes="sssssssss"
         inkscape:connector-curvature="0"
         id="path1084-6-29"
         d="M 361.9375,-212 C 507.2348,-212 528,-191.28677 528,-46.125 V 70.125 C 528,215.28618 507.2348,236 361.9375,236 H 214.0625 C 68.7652,236 48,215.28618 48,70.125 V -46.125 C 48,-191.28677 68.7652,-212 214.0625,-212 Z"
         style="display:inline;opacity:1;fill:#8c59d9;fill-opacity:1;stroke:none;stroke-width:2;stroke-linecap:round;stroke-linejoin:round;stroke-miterlimit:4;stroke-dasharray:none;stroke-dashoffset:0;stroke-opacity:1;enable-background:new" />
    </clipPath>
    <clipPath
       clipPathUnits="userSpaceOnUse"
       id="clipPath1079">
      <circle
         cx="213.84277"
         cy="146"
         r="55"
         style="color:#000000;display:inline;overflow:visible;visibility:visible;opacity:1;fill:url(#linearGradient1083);fill-opacity:1;fill-rule:nonzero;stroke:none;stroke-width:7.99999952;stroke-linecap:butt;stroke-linejoin:miter;stroke-miterlimit:4;stroke-dasharray:none;stroke-dashoffset:0;stroke-opacity:1;marker:none;enable-background:accumulate"
         id="circle1081"
         transform="scale(-1,1)" />
    </clipPath>
    <clipPath
       clipPathUnits="userSpaceOnUse"
       id="clipPath984">
      <circle
         cx="213.84277"
         cy="146"
         r="55"
         style="color:#000000;display:inline;overflow:visible;visibility:visible;opacity:1;fill:url(#linearGradient1083);fill-opacity:1;fill-rule:nonzero;stroke:none;stroke-width:7.99999952;stroke-linecap:butt;stroke-linejoin:miter;stroke-miterlimit:4;stroke-dasharray:none;stroke-dashoffset:0;stroke-opacity:1;marker:none;enable-background:accumulate"
         id="circle982"
         transform="scale(-1,1)" />
    </clipPath>
    <clipPath
       clipPathUnits="userSpaceOnUse"
       id="clipPath988">
      <circle
         cx="213.84277"
         cy="146"
         r="55"
         style="color:#000000;display:inline;overflow:visible;visibility:visible;opacity:1;fill:url(#linearGradient1083);fill-opacity:1;fill-rule:nonzero;stroke:none;stroke-width:7.99999952;stroke-linecap:butt;stroke-linejoin:miter;stroke-miterlimit:4;stroke-dasharray:none;stroke-dashoffset:0;stroke-opacity:1;marker:none;enable-background:accumulate"
         id="circle986"
         transform="scale(-1,1)" />
    </clipPath>
    <clipPath
       clipPathUnits="userSpaceOnUse"
       id="clipPath992">
      <circle
         cx="213.84277"
         cy="146"
         r="55"
         style="color:#000000;display:inline;overflow:visible;visibility:visible;opacity:1;fill:url(#linearGradient1083);fill-opacity:1;fill-rule:nonzero;stroke:none;stroke-width:7.99999952;stroke-linecap:butt;stroke-linejoin:miter;stroke-miterlimit:4;stroke-dasharray:none;stroke-dashoffset:0;stroke-opacity:1;marker:none;enable-background:accumulate"
         id="circle990"
         transform="scale(-1,1)" />
    </clipPath>
    <linearGradient
       gradientTransform="matrix(0.26970781,0,0,0.26970781,-7.1289179,220.5605)"
       inkscape:collect="always"
       xlink:href="#linearGradient1048"
       id="linearGradient1044"
       x1="88"
       y1="28"
       x2="256"
       y2="284"
       gradientUnits="userSpaceOnUse" />
    <filter
       inkscape:collect="always"
       style="color-interpolation-filters:sRGB"
       id="filter4569"
       x="-0.0116"
       width="1.0232"
       y="-0.012428571"
       height="1.024857">
      <feGaussianBlur
         inkscape:collect="always"
         stdDeviation="1.16"
         id="feGaussianBlur4571" />
    </filter>
    <filter
       inkscape:collect="always"
       style="color-interpolation-filters:sRGB"
       id="filter939"
       x="-0.0232"
       width="1.0464"
       y="-0.024857143"
       height="1.0497143">
      <feGaussianBlur
         inkscape:collect="always"
         stdDeviation="2.32"
         id="feGaussianBlur941" />
    </filter>
    <clipPath
       clipPathUnits="userSpaceOnUse"
       id="clipPath1082-2">
      <path
         sodipodi:nodetypes="sssssssss"
         inkscape:connector-curvature="0"
         id="path1084-7"
         d="M 361.9375,-212 C 507.2348,-212 528,-191.28677 528,-46.125 V 70.125 C 528,215.28618 507.2348,236 361.9375,236 H 214.0625 C 68.7652,236 48,215.28618 48,70.125 V -46.125 C 48,-191.28677 68.7652,-212 214.0625,-212 Z"
         style="display:inline;opacity:1;fill:#8c59d9;fill-opacity:1;stroke:none;stroke-width:2;stroke-linecap:round;stroke-linejoin:round;stroke-miterlimit:4;stroke-dasharray:none;stroke-dashoffset:0;stroke-opacity:1;enable-background:new" />
    </clipPath>
    <linearGradient
       id="linearGradient4220-7">
      <stop
         id="stop4222-7"
         style="stop-color:#7a8498;stop-opacity:1"
         offset="0" />
      <stop
         id="stop4224-0"
         style="stop-color:#34405c;stop-opacity:1"
         offset="1" />
    </linearGradient>
    <clipPath
       clipPathUnits="userSpaceOnUse"
       id="clipPath1082-5">
      <path
         sodipodi:nodetypes="sssssssss"
         inkscape:connector-curvature="0"
         id="path1084-3"
         d="M 361.9375,-212 C 507.2348,-212 528,-191.28677 528,-46.125 V 70.125 C 528,215.28618 507.2348,236 361.9375,236 H 214.0625 C 68.7652,236 48,215.28618 48,70.125 V -46.125 C 48,-191.28677 68.7652,-212 214.0625,-212 Z"
         style="display:inline;opacity:1;fill:#8c59d9;fill-opacity:1;stroke:none;stroke-width:2;stroke-linecap:round;stroke-linejoin:round;stroke-miterlimit:4;stroke-dasharray:none;stroke-dashoffset:0;stroke-opacity:1;enable-background:new" />
    </clipPath>
    <linearGradient
       y2="-0.99998766"
       x2="59.485085"
       y1="35"
       x1="59.485085"
       gradientTransform="matrix(2.8508341,0,0,1.9096506,-100.03016,28.048572)"
       gradientUnits="userSpaceOnUse"
       id="linearGradient4565"
       xlink:href="#linearGradient3680-6-6-6-3-7-1-8-8" />
    <linearGradient
       id="linearGradient3680-6-6-6-3-7-1-8-8">
      <stop
         offset="0"
         style="stop-color:#dcdcdc;stop-opacity:1"
         id="stop3682-4-6-1-3-7-7-4-0" />
      <stop
         offset="1"
         style="stop-color:#ffffff;stop-opacity:1"
         id="stop3684-8-5-8-0-2-6-8-4" />
    </linearGradient>
    <linearGradient
       gradientTransform="matrix(0.26458333,0,0,0.26458333,-8.2020823,220.57313)"
       inkscape:collect="always"
       xlink:href="#linearGradient1637"
       id="linearGradient979"
       x1="152"
       y1="100"
       x2="152"
       y2="212"
       gradientUnits="userSpaceOnUse" />
    <linearGradient
       inkscape:collect="always"
       id="linearGradient1637">
      <stop
         id="stop1635"
         offset="0"
         style="stop-color:#f2f2f2;stop-opacity:1" />
      <stop
         id="stop1633"
         offset="1"
         style="stop-color:#f7f7f7;stop-opacity:1;" />
    </linearGradient>
    <filter
       inkscape:collect="always"
       style="color-interpolation-filters:sRGB"
       id="filter997"
       x="-0.018999999"
       width="1.038"
       y="-0.032571428"
       height="1.0651429">
      <feGaussianBlur
         inkscape:collect="always"
         stdDeviation="1.52"
         id="feGaussianBlur999" />
    </filter>
    <filter
       inkscape:collect="always"
       style="color-interpolation-filters:sRGB"
       id="filter991"
       x="-0.0094999997"
       width="1.0190001"
       y="-0.016285714"
       height="1.0325714">
      <feGaussianBlur
         inkscape:collect="always"
         stdDeviation="0.76"
         id="feGaussianBlur993" />
    </filter>
    <linearGradient
       inkscape:collect="always"
       id="linearGradient1048">
      <stop
         style="stop-color:#505050;stop-opacity:1"
         offset="0"
         id="stop1044" />
      <stop
         style="stop-color:#727272;stop-opacity:1"
         offset="1"
         id="stop1046" />
    </linearGradient>
  </defs>
  <sodipodi:namedview
     id="base"
     pagecolor="#ffffff"
     bordercolor="#666666"
     borderopacity="1.0"
     inkscape:pageopacity="0.0"
     inkscape:pageshadow="2"
     inkscape:zoom="3.2421875"
     inkscape:cx="200.79036"
     inkscape:cy="128"
     inkscape:document-units="px"
     inkscape:current-layer="layer1"
     showgrid="false"
     units="px"
     inkscape:window-width="1920"
     inkscape:window-height="1008"
     inkscape:window-x="0"
     inkscape:window-y="34"
     inkscape:window-maximized="1">
    <inkscape:grid
       type="xygrid"
       id="grid2168" />
  </sodipodi:namedview>
  <metadata
     id="metadata1485">
    <rdf:RDF>
      <cc:Work
         rdf:about="">
        <dc:format>image/svg+xml</dc:format>
        <dc:type
           rdf:resource="http://purl.org/dc/dcmitype/StillImage" />
        <dc:title />
      </cc:Work>
    </rdf:RDF>
  </metadata>
  <g
     inkscape:label="Livello 1"
     inkscape:groupmode="layer"
     id="layer1"
     transform="translate(0,-229.26666)">
    <path
       style="display:inline;opacity:0.2;fill:#000000;fill-opacity:1;stroke:none;stroke-width:2;stroke-linecap:round;stroke-linejoin:round;stroke-miterlimit:4;stroke-dasharray:none;stroke-dashoffset:0;stroke-opacity:1;filter:url(#filter939);enable-background:new"
       d="m 162.53675,5.5680001 c 72.64865,0 83.03125,10.3566149 83.03125,82.9375049 v 58.125005 c 0,72.58059 -10.3826,82.9375 -83.03125,82.9375 H 88.599254 C 15.9506,229.56801 5.568,219.2111 5.568,146.63051 V 88.505505 c 0,-72.58089 10.3826,-82.9375049 83.031254,-82.9375049 z"
       id="path937"
       inkscape:connector-curvature="0"
       sodipodi:nodetypes="sssssssss"
       transform="matrix(0.26970779,0,0,0.26970779,-1.9098094e-8,231.46531)" />
    <path
       sodipodi:nodetypes="sssssssss"
       inkscape:connector-curvature="0"
       id="path4558"
       d="m 43.837429,232.42763 c 19.593907,0 22.394176,2.79326 22.394176,22.36889 v 15.67677 c 0,19.57555 -2.800269,22.36889 -22.394176,22.36889 H 23.89591 c -19.5939088,0 -22.394177,-2.79334 -22.394177,-22.36889 v -15.67677 c 0,-19.57563 2.8002682,-22.36889 22.394177,-22.36889 z"
       style="display:inline;opacity:0.1;fill:none;fill-opacity:1;stroke:#000000;stroke-width:1.07883108;stroke-linecap:round;stroke-linejoin:round;stroke-miterlimit:4;stroke-dasharray:none;stroke-dashoffset:0;stroke-opacity:1;enable-background:new" />
    <path
       sodipodi:nodetypes="sssssssss"
       inkscape:connector-curvature="0"
       id="path4567"
       d="m 162.53675,3.5680001 c 72.64865,0 83.03125,10.3566149 83.03125,82.9375049 v 58.125005 c 0,72.58059 -10.3826,82.9375 -83.03125,82.9375 H 88.599254 C 15.9506,227.56801 5.568,217.2111 5.568,144.63051 V 86.505505 c 0,-72.58089 10.3826,-82.9375049 83.031254,-82.9375049 z"
       style="display:inline;opacity:0.1;fill:#000000;fill-opacity:1;stroke:none;stroke-width:2;stroke-linecap:round;stroke-linejoin:round;stroke-miterlimit:4;stroke-dasharray:none;stroke-dashoffset:0;stroke-opacity:1;filter:url(#filter4569);enable-background:new"
       transform="matrix(0.26970779,0,0,0.26970779,-1.9098094e-8,231.46531)" />
    <path
       style="display:inline;opacity:1;fill:url(#linearGradient1044);fill-opacity:1.0;stroke:none;stroke-width:0.53941554;stroke-linecap:round;stroke-linejoin:round;stroke-miterlimit:4;stroke-dasharray:none;stroke-dashoffset:0;stroke-opacity:1;enable-background:new"
       d="m 43.837427,232.42763 c 19.593907,0 22.394175,2.79326 22.394175,22.36889 v 15.67677 c 0,19.57555 -2.800268,22.36889 -22.394175,22.36889 h -19.94152 c -19.5939074,0 -22.3941756,-2.79334 -22.3941756,-22.36889 v -15.67677 c 0,-19.57563 2.8002682,-22.36889 22.3941756,-22.36889 z"
       id="rect877"
       inkscape:connector-curvature="0"
       sodipodi:nodetypes="sssssssss" />
    <path
       style="display:inline;opacity:0.1;fill:#ffffff;fill-opacity:1;stroke:none;stroke-width:0.53941554;stroke-linecap:round;stroke-linejoin:round;stroke-miterlimit:4;stroke-dasharray:none;stroke-dashoffset:0;stroke-opacity:1;enable-background:new"
       d="m 23.895907,292.84218 c -19.5939074,0 -22.3941756,-2.79326 -22.3941756,-22.36889 v -7.83838 H 66.231602 v 7.83838 c 0,19.57563 -2.800268,22.36889 -22.394175,22.36889 z"
       id="path1107"
       inkscape:connector-curvature="0" />
    <path
       sodipodi:nodetypes="sssssssss"
       inkscape:connector-curvature="0"
       id="path1068"
       d="M 361.9375,-212 C 507.2348,-212 528,-191.28677 528,-46.125 V 70.125 C 528,215.28618 507.2348,236 361.9375,236 H 214.0625 C 68.7652,236 48,215.28618 48,70.125 V -46.125 C 48,-191.28677 68.7652,-212 214.0625,-212 Z"
       style="display:inline;opacity:0.4;fill:none;fill-opacity:1;stroke:url(#linearGradient1108);stroke-width:8;stroke-linecap:round;stroke-linejoin:round;stroke-miterlimit:4;stroke-dasharray:none;stroke-dashoffset:0;stroke-opacity:1;enable-background:new"
       clip-path="url(#clipPath1082-3-361)"
       transform="matrix(0.1348539,0,0,0.1348539,-4.9712559,261.01666)" />
    <g
       id="g192"
       transform="translate(1.8520195,0.280885)">
      <path
         transform="matrix(0.26458333,0,0,0.26458333,5.6493818,246.54887)"
         style="color:#000000;font-style:normal;font-variant:normal;font-weight:normal;font-stretch:normal;font-size:medium;line-height:normal;font-family:sans-serif;font-variant-ligatures:normal;font-variant-position:normal;font-variant-caps:normal;font-variant-numeric:normal;font-variant-alternates:normal;font-feature-settings:normal;text-indent:0;text-align:start;text-decoration:none;text-decoration-line:none;text-decoration-style:solid;text-decoration-color:#000000;letter-spacing:normal;word-spacing:normal;text-transform:none;writing-mode:lr-tb;direction:ltr;text-orientation:mixed;baseline-shift:baseline;text-anchor:start;white-space:normal;shape-padding:0;clip-rule:nonzero;display:inline;overflow:visible;visibility:visible;opacity:0.1;isolation:auto;mix-blend-mode:normal;color-interpolation:sRGB;color-interpolation-filters:linearRGB;solid-color:#000000;solid-opacity:1;fill:#000000;fill-opacity:1;fill-rule:nonzero;stroke:none;stroke-width:9.14285851;stroke-linecap:butt;stroke-linejoin:miter;stroke-miterlimit:4;stroke-dasharray:none;stroke-dashoffset:0;stroke-opacity:1;marker:none;filter:url(#filter991);color-rendering:auto;image-rendering:auto;shape-rendering:auto;text-rendering:auto;enable-background:accumulate"
         d="m 12.776915,1.8239999 c -2.875863,0.0331 -4.980463,-0.0705 -6.701172,0.87891 -0.860365,0.4747 -1.537696,1.27869 -1.914062,2.28125 -0.376343,1.00256 -0.513672,2.1942 -0.513672,3.69726 V 26.96658 c 0,1.50306 0.137421,2.69468 0.513672,3.69726 0.376366,1.00256 1.053697,1.80069 1.914062,2.27539 1.720709,0.94937 3.825309,0.85154 6.701172,0.88477 h 0.0098 13.722656 0.0098 c 2.875862,-0.0331 4.980463,0.0646 6.701172,-0.88477 0.860366,-0.4747 1.537719,-1.27283 1.914062,-2.27539 0.374715,-1.00258 0.513604,-2.1942 0.513604,-3.69726 V 8.6814199 c 0,-1.50306 -0.137421,-2.6947 -0.513672,-3.69726 -0.376343,-1.00256 -1.053697,-1.80655 -1.914062,-2.28125 -1.720709,-0.949371 -3.825309,-0.84568 -6.701172,-0.87891 h -0.0098 -13.722656 z m 40.000004,0 c -2.87586,0.0331 -4.98047,-0.0705 -6.701176,0.87891 -0.860365,0.4747 -1.537696,1.27869 -1.914062,2.28125 -0.376343,1.00256 -0.513672,2.1942 -0.513672,3.69726 V 26.96658 c 0,1.50306 0.137421,2.69468 0.513672,3.69726 0.376366,1.00256 1.053697,1.80069 1.914062,2.27539 1.720706,0.94937 3.825316,0.85154 6.701176,0.88477 h 0.01 13.72266 0.01 c 2.87587,-0.0331 4.98048,0.0646 6.70118,-0.88477 0.86037,-0.4747 1.53772,-1.27283 1.914059,-2.27539 0.37498,-1.00258 0.51367,-2.1942 0.51367,-3.69726 V 8.6814199 c 0,-1.50306 -0.13742,-2.6947 -0.51367,-3.69726 -0.376349,-1.00256 -1.053699,-1.80655 -1.914059,-2.28125 -1.72071,-0.949371 -3.82532,-0.84568 -6.70118,-0.87891 h -0.01 -13.72266 z m 39.999999,0 c -2.87586,0.0331 -4.98047,-0.0705 -6.70118,0.87891 -0.86036,0.4747 -1.53769,1.27869 -1.91406,2.28125 -0.37634,1.00256 -0.51367,2.1942 -0.51367,3.69726 V 26.96658 c 0,1.50306 0.13742,2.69468 0.51367,3.69726 0.37637,1.00256 1.0537,1.80069 1.91406,2.27539 1.72071,0.94937 3.82532,0.85154 6.70118,0.88477 h 0.01 13.722662 0.01 c 2.87587,-0.0331 4.98048,0.0646 6.70118,-0.88477 0.86037,-0.4747 1.53772,-1.27283 1.91406,-2.27539 0.37498,-1.00258 0.51367,-2.1942 0.51367,-3.69726 V 8.6814199 c 0,-1.50306 -0.13742,-2.6947 -0.51367,-3.69726 -0.37635,-1.00256 -1.0537,-1.80655 -1.91406,-2.28125 -1.72071,-0.949371 -3.82532,-0.84568 -6.70118,-0.87891 h -0.01 -13.722662 z m 40.000002,0 c -2.87586,0.0331 -4.98047,-0.0705 -6.70118,0.87891 -0.86036,0.4747 -1.53769,1.27869 -1.91406,2.28125 -0.37634,1.00256 -0.51367,2.1942 -0.51367,3.69726 V 26.96658 c 0,1.50306 0.13742,2.69468 0.51367,3.69726 0.37637,1.00256 1.0537,1.80069 1.91406,2.27539 1.72071,0.94937 3.82532,0.85154 6.70118,0.88477 h 0.01 13.72266 0.01 c 2.87587,-0.0331 4.98048,0.0646 6.70118,-0.88477 0.86037,-0.4747 1.53772,-1.27283 1.91406,-2.27539 0.37498,-1.00258 0.51367,-2.1942 0.51367,-3.69726 V 8.6814199 c 0,-1.50306 -0.13742,-2.6947 -0.51367,-3.69726 -0.37635,-1.00256 -1.0537,-1.80655 -1.91406,-2.28125 -1.72071,-0.949371 -3.82532,-0.84568 -6.70118,-0.87891 h -0.01 -13.72266 z m 40,0 c -2.87586,0.0331 -4.98047,-0.0705 -6.70118,0.87891 -0.86036,0.4747 -1.53769,1.27869 -1.91406,2.28125 -0.37634,1.00256 -0.51367,2.1942 -0.51367,3.69726 V 26.96658 c 0,1.50306 0.13742,2.69468 0.51367,3.69726 0.37637,1.00256 1.0537,1.80069 1.91406,2.27539 1.72071,0.94937 3.82532,0.85154 6.70118,0.88477 h 0.01 13.72266 0.01 c 2.87587,-0.0331 4.98048,0.0646 6.70118,-0.88477 0.86037,-0.4747 1.53772,-1.27283 1.91406,-2.27539 0.37498,-1.00258 0.51367,-2.1942 0.51367,-3.69726 V 8.6814199 c 0,-1.50306 -0.13742,-2.6947 -0.51367,-3.69726 -0.37635,-1.00256 -1.0537,-1.80655 -1.91406,-2.28125 -1.72071,-0.949371 -3.82532,-0.84568 -6.70118,-0.87891 h -0.01 -13.72266 z M 28.776915,41.824 c -2.87586,0.0331 -4.980463,-0.0705 -6.701172,0.87891 -0.860365,0.4747 -1.537696,1.27869 -1.914062,2.28125 -0.376343,1.00256 -0.513672,2.1942 -0.513672,3.69726 v 18.28516 c 0,1.50306 0.137421,2.69468 0.513672,3.69726 0.376366,1.00256 1.053697,1.80069 1.914062,2.27539 1.720709,0.94937 3.825312,0.85154 6.701172,0.88477 h 0.0098 13.722656 0.0098 c 2.87587,-0.0331 4.980472,0.0646 6.701176,-0.88477 0.86037,-0.4747 1.53772,-1.27283 1.91406,-2.27539 0.37498,-1.00258 0.51367,-2.1942 0.51367,-3.69726 V 48.68142 c 0,-1.50306 -0.13742,-2.6947 -0.51367,-3.69726 -0.37635,-1.00256 -1.0537,-1.80655 -1.91406,-2.28125 -1.720782,-0.94937 -3.825384,-0.84568 -6.701244,-0.87891 h -0.0098 -13.722656 z m 40.000004,0 c -2.87586,0.0331 -4.98047,-0.0705 -6.70118,0.87891 -0.86036,0.4747 -1.53769,1.27869 -1.91406,2.28125 -0.37634,1.00256 -0.51367,2.1942 -0.51367,3.69726 v 18.28516 c 0,1.50306 0.13742,2.69468 0.51367,3.69726 0.37637,1.00256 1.0537,1.80069 1.91406,2.27539 1.72071,0.94937 3.82532,0.85154 6.70118,0.88477 h 0.01 13.722659 0.01 c 2.87587,-0.0331 4.98048,0.0646 6.70118,-0.88477 0.86037,-0.4747 1.53772,-1.27283 1.91406,-2.27539 0.37498,-1.00258 0.51367,-2.1942 0.51367,-3.69726 V 48.68142 c 0,-1.50306 -0.13742,-2.6947 -0.51367,-3.69726 -0.37635,-1.00256 -1.0537,-1.80655 -1.91406,-2.28125 -1.72071,-0.94937 -3.82532,-0.84568 -6.70118,-0.87891 h -0.01 -13.722659 z m 40.000001,0 c -2.87586,0.0331 -4.98047,-0.0705 -6.70118,0.87891 -0.86036,0.4747 -1.53769,1.27869 -1.91406,2.28125 -0.376342,1.00256 -0.513672,2.1942 -0.513672,3.69726 v 18.28516 c 0,1.50306 0.13742,2.69468 0.513672,3.69726 0.37637,1.00256 1.0537,1.80069 1.91406,2.27539 1.72071,0.94937 3.82532,0.85154 6.70118,0.88477 h 0.01 13.72266 0.01 c 2.87587,-0.0331 4.98048,0.0646 6.70118,-0.88477 0.86037,-0.4747 1.53772,-1.27283 1.91406,-2.27539 0.37498,-1.00258 0.51367,-2.1942 0.51367,-3.69726 V 48.68142 c 0,-1.50306 -0.13742,-2.6947 -0.51367,-3.69726 -0.37635,-1.00256 -1.0537,-1.80655 -1.91406,-2.28125 -1.72071,-0.94937 -3.82532,-0.84568 -6.70118,-0.87891 h -0.01 -13.72266 z m 40,0 c -2.87586,0.0331 -4.98047,-0.0705 -6.70118,0.87891 -0.86036,0.4747 -1.53769,1.27869 -1.91406,2.28125 -0.37634,1.00256 -0.51367,2.1942 -0.51367,3.69726 v 18.28516 c 0,1.50306 0.13742,2.69468 0.51367,3.69726 0.37637,1.00256 1.0537,1.80069 1.91406,2.27539 1.72071,0.94937 3.82532,0.85154 6.70118,0.88477 h 0.01 13.72266 0.01 c 2.87587,-0.0331 4.98048,0.0646 6.70118,-0.88477 0.86037,-0.4747 1.53772,-1.27283 1.91406,-2.27539 0.37498,-1.00258 0.51367,-2.1942 0.51367,-3.69726 V 48.68142 c 0,-1.50306 -0.13742,-2.6947 -0.51367,-3.69726 -0.37635,-1.00256 -1.0537,-1.80655 -1.91406,-2.28125 -1.72071,-0.94937 -3.82532,-0.84568 -6.70118,-0.87891 h -0.01 -13.72266 z m -136.000005,40 c -2.87586,0.0331 -4.980463,-0.0705 -6.701172,0.87891 -0.860365,0.4747 -1.537696,1.27869 -1.914062,2.28125 -0.376343,1.00256 -0.513672,2.1942 -0.513672,3.69726 v 18.28516 c 0,1.50306 0.137421,2.69468 0.513672,3.69726 0.376366,1.00256 1.053697,1.80069 1.914062,2.27539 1.720709,0.94937 3.825312,0.85154 6.701172,0.88477 h 0.0098 13.722656 0.0098 c 2.87587,-0.0331 4.980472,0.0646 6.701172,-0.88477 0.86037,-0.4747 1.537722,-1.27283 1.914062,-2.27539 0.374912,-1.00258 0.513604,-2.1942 0.513604,-3.69726 V 88.68142 c 0,-1.50306 -0.137422,-2.6947 -0.513672,-3.69726 -0.37635,-1.00256 -1.053702,-1.80655 -1.914062,-2.28125 -1.72071,-0.94937 -3.825312,-0.84568 -6.701172,-0.87891 h -0.0098 -13.722656 z m 40.000004,0 c -2.87586,0.0331 -4.98047,-0.0705 -6.701176,0.87891 -0.86036,0.4747 -1.537692,1.27869 -1.914062,2.28125 -0.37634,1.00256 -0.513672,2.1942 -0.513672,3.69726 v 18.28516 c 0,1.50306 0.137422,2.69468 0.513672,3.69726 0.37637,1.00256 1.053702,1.80069 1.914062,2.27539 1.720706,0.94937 3.825316,0.85154 6.701176,0.88477 h 0.01 93.722661 0.01 c 2.87587,-0.0331 4.98048,0.0646 6.70118,-0.88477 0.86037,-0.4747 1.53772,-1.27283 1.91406,-2.27539 0.37498,-1.00258 0.51367,-2.1942 0.51367,-3.69726 V 88.68142 c 0,-1.50306 -0.13742,-2.6947 -0.51367,-3.69726 -0.37635,-1.00256 -1.0537,-1.80655 -1.91406,-2.28125 -1.72071,-0.94937 -3.82532,-0.84568 -6.70118,-0.87891 h -0.01 -93.722661 z m 120.000001,0 c -2.87586,0.0331 -4.98047,-0.0705 -6.70118,0.87891 -0.86036,0.4747 -1.53769,1.27869 -1.91406,2.28125 -0.37634,1.00256 -0.51367,2.1942 -0.51367,3.69726 v 18.28516 c 0,1.50306 0.13742,2.69468 0.51367,3.69726 0.37637,1.00256 1.0537,1.80069 1.91406,2.27539 1.72071,0.94937 3.82532,0.85154 6.70118,0.88477 h 0.01 13.72266 0.01 c 2.87587,-0.0331 4.98048,0.0646 6.70118,-0.88477 0.86037,-0.4747 1.53772,-1.27283 1.91406,-2.27539 0.37498,-1.00258 0.51367,-2.1942 0.51367,-3.69726 V 88.68142 c 0,-1.50306 -0.13742,-2.6947 -0.51367,-3.69726 -0.37635,-1.00256 -1.0537,-1.80655 -1.91406,-2.28125 -1.72071,-0.94937 -3.82532,-0.84568 -6.70118,-0.87891 h -0.01 -13.72266 z"
         id="path981"
         inkscape:connector-curvature="0" />
      <path
         transform="matrix(0.26458333,0,0,0.26458333,5.6493818,246.54887)"
         inkscape:connector-curvature="0"
         id="path995"
         d="m 12.776915,3.8239999 c -2.875863,0.0331 -4.980463,-0.0705 -6.701172,0.87891 -0.860365,0.4747 -1.537696,1.27869 -1.914062,2.28125 -0.376343,1.00256 -0.513672,2.1942 -0.513672,3.6972601 v 18.28516 c 0,1.50306 0.137421,2.69468 0.513672,3.69726 0.376366,1.00256 1.053697,1.80069 1.914062,2.27539 1.720709,0.94937 3.825309,0.85154 6.701172,0.88477 h 0.0098 13.722656 0.0098 c 2.875862,-0.0331 4.980463,0.0646 6.701172,-0.88477 0.860366,-0.4747 1.537719,-1.27283 1.914062,-2.27539 0.374715,-1.00258 0.513604,-2.1942 0.513604,-3.69726 V 10.68142 c 0,-1.5030601 -0.137421,-2.6947001 -0.513672,-3.6972601 -0.376343,-1.00256 -1.053697,-1.80655 -1.914062,-2.28125 -1.720709,-0.94937 -3.825309,-0.84568 -6.701172,-0.87891 h -0.0098 -13.722656 z m 40.000004,0 c -2.87586,0.0331 -4.98047,-0.0705 -6.701176,0.87891 -0.860365,0.4747 -1.537696,1.27869 -1.914062,2.28125 -0.376343,1.00256 -0.513672,2.1942 -0.513672,3.6972601 v 18.28516 c 0,1.50306 0.137421,2.69468 0.513672,3.69726 0.376366,1.00256 1.053697,1.80069 1.914062,2.27539 1.720706,0.94937 3.825316,0.85154 6.701176,0.88477 h 0.01 13.72266 0.01 c 2.87587,-0.0331 4.98048,0.0646 6.70118,-0.88477 0.86037,-0.4747 1.53772,-1.27283 1.914059,-2.27539 0.37498,-1.00258 0.51367,-2.1942 0.51367,-3.69726 V 10.68142 c 0,-1.5030601 -0.13742,-2.6947001 -0.51367,-3.6972601 -0.376349,-1.00256 -1.053699,-1.80655 -1.914059,-2.28125 -1.72071,-0.94937 -3.82532,-0.84568 -6.70118,-0.87891 h -0.01 -13.72266 z m 39.999999,0 c -2.87586,0.0331 -4.98047,-0.0705 -6.70118,0.87891 -0.86036,0.4747 -1.53769,1.27869 -1.91406,2.28125 -0.37634,1.00256 -0.51367,2.1942 -0.51367,3.6972601 v 18.28516 c 0,1.50306 0.13742,2.69468 0.51367,3.69726 0.37637,1.00256 1.0537,1.80069 1.91406,2.27539 1.72071,0.94937 3.82532,0.85154 6.70118,0.88477 h 0.01 13.722662 0.01 c 2.87587,-0.0331 4.98048,0.0646 6.70118,-0.88477 0.86037,-0.4747 1.53772,-1.27283 1.91406,-2.27539 0.37498,-1.00258 0.51367,-2.1942 0.51367,-3.69726 V 10.68142 c 0,-1.5030601 -0.13742,-2.6947001 -0.51367,-3.6972601 -0.37635,-1.00256 -1.0537,-1.80655 -1.91406,-2.28125 -1.72071,-0.94937 -3.82532,-0.84568 -6.70118,-0.87891 h -0.01 -13.722662 z m 40.000002,0 c -2.87586,0.0331 -4.98047,-0.0705 -6.70118,0.87891 -0.86036,0.4747 -1.53769,1.27869 -1.91406,2.28125 -0.37634,1.00256 -0.51367,2.1942 -0.51367,3.6972601 v 18.28516 c 0,1.50306 0.13742,2.69468 0.51367,3.69726 0.37637,1.00256 1.0537,1.80069 1.91406,2.27539 1.72071,0.94937 3.82532,0.85154 6.70118,0.88477 h 0.01 13.72266 0.01 c 2.87587,-0.0331 4.98048,0.0646 6.70118,-0.88477 0.86037,-0.4747 1.53772,-1.27283 1.91406,-2.27539 0.37498,-1.00258 0.51367,-2.1942 0.51367,-3.69726 V 10.68142 c 0,-1.5030601 -0.13742,-2.6947001 -0.51367,-3.6972601 -0.37635,-1.00256 -1.0537,-1.80655 -1.91406,-2.28125 -1.72071,-0.94937 -3.82532,-0.84568 -6.70118,-0.87891 h -0.01 -13.72266 z m 40,0 c -2.87586,0.0331 -4.98047,-0.0705 -6.70118,0.87891 -0.86036,0.4747 -1.53769,1.27869 -1.91406,2.28125 -0.37634,1.00256 -0.51367,2.1942 -0.51367,3.6972601 v 18.28516 c 0,1.50306 0.13742,2.69468 0.51367,3.69726 0.37637,1.00256 1.0537,1.80069 1.91406,2.27539 1.72071,0.94937 3.82532,0.85154 6.70118,0.88477 h 0.01 13.72266 0.01 c 2.87587,-0.0331 4.98048,0.0646 6.70118,-0.88477 0.86037,-0.4747 1.53772,-1.27283 1.91406,-2.27539 0.37498,-1.00258 0.51367,-2.1942 0.51367,-3.69726 V 10.68142 c 0,-1.5030601 -0.13742,-2.6947001 -0.51367,-3.6972601 -0.37635,-1.00256 -1.0537,-1.80655 -1.91406,-2.28125 -1.72071,-0.94937 -3.82532,-0.84568 -6.70118,-0.87891 h -0.01 -13.72266 z M 28.776915,43.824 c -2.87586,0.0331 -4.980463,-0.0705 -6.701172,0.87891 -0.860365,0.4747 -1.537696,1.27869 -1.914062,2.28125 -0.376343,1.00256 -0.513672,2.1942 -0.513672,3.69726 v 18.28516 c 0,1.50306 0.137421,2.69468 0.513672,3.69726 0.376366,1.00256 1.053697,1.80069 1.914062,2.27539 1.720709,0.94937 3.825312,0.85154 6.701172,0.88477 h 0.0098 13.722656 0.0098 c 2.87587,-0.0331 4.980472,0.0646 6.701178,-0.88477 0.86037,-0.4747 1.53772,-1.27283 1.91406,-2.27539 0.37498,-1.00258 0.51367,-2.1942 0.51367,-3.69726 V 50.68142 c 0,-1.50306 -0.13742,-2.6947 -0.51367,-3.69726 -0.37635,-1.00256 -1.0537,-1.80655 -1.91406,-2.28125 -1.720784,-0.94937 -3.825386,-0.84568 -6.701246,-0.87891 h -0.0098 -13.722656 z m 40.000004,0 c -2.87586,0.0331 -4.98047,-0.0705 -6.70118,0.87891 -0.86036,0.4747 -1.53769,1.27869 -1.91406,2.28125 -0.37634,1.00256 -0.51367,2.1942 -0.51367,3.69726 v 18.28516 c 0,1.50306 0.13742,2.69468 0.51367,3.69726 0.37637,1.00256 1.0537,1.80069 1.91406,2.27539 1.72071,0.94937 3.82532,0.85154 6.70118,0.88477 h 0.01 13.722659 0.01 c 2.87587,-0.0331 4.98048,0.0646 6.70118,-0.88477 0.86037,-0.4747 1.53772,-1.27283 1.91406,-2.27539 0.37498,-1.00258 0.51367,-2.1942 0.51367,-3.69726 V 50.68142 c 0,-1.50306 -0.13742,-2.6947 -0.51367,-3.69726 -0.37635,-1.00256 -1.0537,-1.80655 -1.91406,-2.28125 -1.72071,-0.94937 -3.82532,-0.84568 -6.70118,-0.87891 h -0.01 -13.722659 z m 40.000001,0 c -2.87586,0.0331 -4.98047,-0.0705 -6.70118,0.87891 -0.86036,0.4747 -1.53769,1.27869 -1.91406,2.28125 -0.376342,1.00256 -0.513672,2.1942 -0.513672,3.69726 v 18.28516 c 0,1.50306 0.13742,2.69468 0.513672,3.69726 0.37637,1.00256 1.0537,1.80069 1.91406,2.27539 1.72071,0.94937 3.82532,0.85154 6.70118,0.88477 h 0.01 13.72266 0.01 c 2.87587,-0.0331 4.98048,0.0646 6.70118,-0.88477 0.86037,-0.4747 1.53772,-1.27283 1.91406,-2.27539 0.37498,-1.00258 0.51367,-2.1942 0.51367,-3.69726 V 50.68142 c 0,-1.50306 -0.13742,-2.6947 -0.51367,-3.69726 -0.37635,-1.00256 -1.0537,-1.80655 -1.91406,-2.28125 -1.72071,-0.94937 -3.82532,-0.84568 -6.70118,-0.87891 h -0.01 -13.72266 z m 40,0 c -2.87586,0.0331 -4.98047,-0.0705 -6.70118,0.87891 -0.86036,0.4747 -1.53769,1.27869 -1.91406,2.28125 -0.37634,1.00256 -0.51367,2.1942 -0.51367,3.69726 v 18.28516 c 0,1.50306 0.13742,2.69468 0.51367,3.69726 0.37637,1.00256 1.0537,1.80069 1.91406,2.27539 1.72071,0.94937 3.82532,0.85154 6.70118,0.88477 h 0.01 13.72266 0.01 c 2.87587,-0.0331 4.98048,0.0646 6.70118,-0.88477 0.86037,-0.4747 1.53772,-1.27283 1.91406,-2.27539 0.37498,-1.00258 0.51367,-2.1942 0.51367,-3.69726 V 50.68142 c 0,-1.50306 -0.13742,-2.6947 -0.51367,-3.69726 -0.37635,-1.00256 -1.0537,-1.80655 -1.91406,-2.28125 -1.72071,-0.94937 -3.82532,-0.84568 -6.70118,-0.87891 h -0.01 -13.72266 z m -136.000005,40 c -2.87586,0.0331 -4.980463,-0.0705 -6.701172,0.87891 -0.860365,0.4747 -1.537696,1.27869 -1.914062,2.28125 -0.376343,1.00256 -0.513672,2.1942 -0.513672,3.69726 v 18.28516 c 0,1.50306 0.137421,2.69468 0.513672,3.69726 0.376366,1.00256 1.053697,1.80069 1.914062,2.27539 1.720709,0.94937 3.825312,0.85154 6.701172,0.88477 h 0.0098 13.722656 0.0098 c 2.87587,-0.0331 4.980472,0.0646 6.701172,-0.88477 0.86037,-0.4747 1.537722,-1.27283 1.914062,-2.27539 0.374912,-1.00258 0.513604,-2.1942 0.513604,-3.69726 V 90.68142 c 0,-1.50306 -0.137422,-2.6947 -0.513672,-3.69726 -0.37635,-1.00256 -1.053702,-1.80655 -1.914062,-2.28125 -1.72071,-0.94937 -3.825312,-0.84568 -6.701172,-0.87891 h -0.0098 -13.722656 z m 40.000004,0 c -2.87586,0.0331 -4.98047,-0.0705 -6.701176,0.87891 -0.86036,0.4747 -1.537692,1.27869 -1.914062,2.28125 -0.37634,1.00256 -0.513672,2.1942 -0.513672,3.69726 v 18.28516 c 0,1.50306 0.137422,2.69468 0.513672,3.69726 0.37637,1.00256 1.053702,1.80069 1.914062,2.27539 1.720706,0.94937 3.825316,0.85154 6.701176,0.88477 h 0.01 93.722661 0.01 c 2.87587,-0.0331 4.98048,0.0646 6.70118,-0.88477 0.86037,-0.4747 1.53772,-1.27283 1.91406,-2.27539 0.37498,-1.00258 0.51367,-2.1942 0.51367,-3.69726 V 90.68142 c 0,-1.50306 -0.13742,-2.6947 -0.51367,-3.69726 -0.37635,-1.00256 -1.0537,-1.80655 -1.91406,-2.28125 -1.72071,-0.94937 -3.82532,-0.84568 -6.70118,-0.87891 h -0.01 -93.722661 z m 120.000001,0 c -2.87586,0.0331 -4.98047,-0.0705 -6.70118,0.87891 -0.86036,0.4747 -1.53769,1.27869 -1.91406,2.28125 -0.37634,1.00256 -0.51367,2.1942 -0.51367,3.69726 v 18.28516 c 0,1.50306 0.13742,2.69468 0.51367,3.69726 0.37637,1.00256 1.0537,1.80069 1.91406,2.27539 1.72071,0.94937 3.82532,0.85154 6.70118,0.88477 h 0.01 13.72266 0.01 c 2.87587,-0.0331 4.98048,0.0646 6.70118,-0.88477 0.86037,-0.4747 1.53772,-1.27283 1.91406,-2.27539 0.37498,-1.00258 0.51367,-2.1942 0.51367,-3.69726 V 90.68142 c 0,-1.50306 -0.13742,-2.6947 -0.51367,-3.69726 -0.37635,-1.00256 -1.0537,-1.80655 -1.91406,-2.28125 -1.72071,-0.94937 -3.82532,-0.84568 -6.70118,-0.87891 h -0.01 -13.72266 z"
         style="color:#000000;font-style:normal;font-variant:normal;font-weight:normal;font-stretch:normal;font-size:medium;line-height:normal;font-family:sans-serif;font-variant-ligatures:normal;font-variant-position:normal;font-variant-caps:normal;font-variant-numeric:normal;font-variant-alternates:normal;font-feature-settings:normal;text-indent:0;text-align:start;text-decoration:none;text-decoration-line:none;text-decoration-style:solid;text-decoration-color:#000000;letter-spacing:normal;word-spacing:normal;text-transform:none;writing-mode:lr-tb;direction:ltr;text-orientation:mixed;baseline-shift:baseline;text-anchor:start;white-space:normal;shape-padding:0;clip-rule:nonzero;display:inline;overflow:visible;visibility:visible;opacity:0.1;isolation:auto;mix-blend-mode:normal;color-interpolation:sRGB;color-interpolation-filters:linearRGB;solid-color:#000000;solid-opacity:1;fill:#000000;fill-opacity:1;fill-rule:nonzero;stroke:none;stroke-width:9.14285851;stroke-linecap:butt;stroke-linejoin:miter;stroke-miterlimit:4;stroke-dasharray:none;stroke-dashoffset:0;stroke-opacity:1;marker:none;filter:url(#filter997);color-rendering:auto;image-rendering:auto;shape-rendering:auto;text-rendering:auto;enable-background:accumulate" />
      <path
         id="path2932"
         d="m 9.0299403,247.03147 c -0.7609051,0.009 -1.3177475,-0.0187 -1.7730185,0.23254 -0.2276383,0.1256 -0.4068488,0.33832 -0.5064289,0.60358 -0.099574,0.26526 -0.135909,0.58055 -0.135909,0.97824 v 4.83795 c 0,0.39768 0.036359,0.71296 0.135909,0.97823 0.09958,0.26526 0.2787906,0.47643 0.5064289,0.60203 0.455271,0.25119 1.0121134,0.2253 1.7730185,0.23409 h 0.00259 3.6307857 0.0026 c 0.760905,-0.009 1.317747,0.0171 1.773018,-0.23409 0.22764,-0.1256 0.406856,-0.33677 0.50643,-0.60203 0.09914,-0.26527 0.135891,-0.58055 0.135891,-0.97823 v -4.83795 c 0,-0.39769 -0.03636,-0.71298 -0.135909,-0.97824 -0.09956,-0.26526 -0.278777,-0.47798 -0.506416,-0.60358 -0.455271,-0.25118 -1.012113,-0.22375 -1.773018,-0.23254 h -0.0026 -3.6307856 z m 10.5833337,0 c -0.760904,0.009 -1.317749,-0.0187 -1.773019,0.23254 -0.227638,0.1256 -0.406849,0.33832 -0.506429,0.60358 -0.09957,0.26526 -0.135909,0.58055 -0.135909,0.97824 v 4.83795 c 0,0.39768 0.03636,0.71296 0.135909,0.97823 0.09958,0.26526 0.278791,0.47643 0.506429,0.60203 0.45527,0.25119 1.012115,0.2253 1.773019,0.23409 h 0.0026 3.630787 0.0026 c 0.760907,-0.009 1.317752,0.0171 1.773021,-0.23409 0.227639,-0.1256 0.406856,-0.33677 0.506429,-0.60203 0.09921,-0.26527 0.135908,-0.58055 0.135908,-0.97823 v -4.83795 c 0,-0.39769 -0.03636,-0.71298 -0.135908,-0.97824 -0.09957,-0.26526 -0.278778,-0.47798 -0.506415,-0.60358 -0.455272,-0.25118 -1.012116,-0.22375 -1.773021,-0.23254 h -0.0026 -3.630787 z m 10.583333,0 c -0.760904,0.009 -1.317749,-0.0187 -1.77302,0.23254 -0.227637,0.1256 -0.406847,0.33832 -0.506429,0.60358 -0.09957,0.26526 -0.135908,0.58055 -0.135908,0.97824 v 4.83795 c 0,0.39768 0.03636,0.71296 0.135908,0.97823 0.09958,0.26526 0.278792,0.47643 0.506429,0.60203 0.455271,0.25119 1.012116,0.2253 1.77302,0.23409 h 0.0026 3.630786 0.0026 c 0.760907,-0.009 1.317752,0.0171 1.773021,-0.23409 0.227639,-0.1256 0.406855,-0.33677 0.506428,-0.60203 0.09921,-0.26527 0.135908,-0.58055 0.135908,-0.97823 v -4.83795 c 0,-0.39769 -0.03636,-0.71298 -0.135908,-0.97824 -0.09958,-0.26526 -0.278791,-0.47798 -0.506428,-0.60358 -0.455272,-0.25118 -1.012116,-0.22375 -1.773021,-0.23254 h -0.0026 -3.630786 z m 10.583335,0 c -0.760907,0.009 -1.317752,-0.0187 -1.773023,0.23254 -0.227637,0.1256 -0.406847,0.33832 -0.506426,0.60358 -0.09957,0.26526 -0.135911,0.58055 -0.135911,0.97824 v 4.83795 c 0,0.39768 0.03636,0.71296 0.135911,0.97823 0.09958,0.26526 0.278789,0.47643 0.506426,0.60203 0.455271,0.25119 1.012116,0.2253 1.773023,0.23409 h 0.0026 3.630787 0.0026 c 0.760907,-0.009 1.317752,0.0171 1.773021,-0.23409 0.227639,-0.1256 0.406855,-0.33677 0.506425,-0.60203 0.09921,-0.26527 0.135911,-0.58055 0.135911,-0.97823 v -4.83795 c 0,-0.39769 -0.03636,-0.71298 -0.135911,-0.97824 -0.09958,-0.26526 -0.278789,-0.47798 -0.506425,-0.60358 -0.455272,-0.25118 -1.012116,-0.22375 -1.773021,-0.23254 h -0.0026 -3.630787 z m 10.583331,0 c -0.760902,0.009 -1.317747,-0.0187 -1.773018,0.23254 -0.227637,0.1256 -0.40685,0.33832 -0.506431,0.60358 -0.09957,0.26526 -0.135906,0.58055 -0.135906,0.97824 v 4.83795 c 0,0.39768 0.03636,0.71296 0.135906,0.97823 0.09958,0.26526 0.278794,0.47643 0.506431,0.60203 0.455271,0.25119 1.012116,0.2253 1.773018,0.23409 h 0.0026 3.630787 0.0026 c 0.760907,-0.009 1.317752,0.0171 1.773018,-0.23409 0.227642,-0.1256 0.406857,-0.33677 0.506431,-0.60203 0.09921,-0.26527 0.135905,-0.58055 0.135905,-0.97823 v -4.83795 c 0,-0.39769 -0.03636,-0.71298 -0.135905,-0.97824 -0.09958,-0.26526 -0.278794,-0.47798 -0.506431,-0.60358 -0.455269,-0.25118 -1.012114,-0.22375 -1.773018,-0.23254 h -0.0026 -3.630787 z m -38.1,10.58333 c -0.760904,0.009 -1.317747,-0.0187 -1.773018,0.23255 -0.227638,0.12559 -0.406849,0.33832 -0.506429,0.60358 -0.09957,0.26526 -0.135909,0.58055 -0.135909,0.97823 v 4.83795 c 0,0.39768 0.03636,0.71297 0.135909,0.97823 0.09958,0.26526 0.278791,0.47644 0.506429,0.60203 0.455271,0.25119 1.012114,0.22531 1.773018,0.2341 h 0.0026 3.630786 0.0026 c 0.760907,-0.009 1.31775,0.0171 1.77302,-0.2341 0.227639,-0.12559 0.406855,-0.33677 0.506428,-0.60203 0.09921,-0.26526 0.135909,-0.58055 0.135909,-0.97823 v -4.83795 c 0,-0.39768 -0.03636,-0.71297 -0.135909,-0.97823 -0.09958,-0.26526 -0.278791,-0.47799 -0.506428,-0.60358 -0.455291,-0.25119 -1.012133,-0.22376 -1.773038,-0.23255 h -0.0026 -3.630786 z m 10.583335,0 c -0.760905,0.009 -1.31775,-0.0187 -1.773021,0.23255 -0.227637,0.12559 -0.406847,0.33832 -0.506428,0.60358 -0.09957,0.26526 -0.135909,0.58055 -0.135909,0.97823 v 4.83795 c 0,0.39768 0.03636,0.71297 0.135909,0.97823 0.09958,0.26526 0.278791,0.47644 0.506428,0.60203 0.455271,0.25119 1.012116,0.22531 1.773021,0.2341 h 0.0026 3.630787 0.0026 c 0.760907,-0.009 1.317752,0.0171 1.773021,-0.2341 0.227639,-0.12559 0.406855,-0.33677 0.506428,-0.60203 0.09921,-0.26526 0.135909,-0.58055 0.135909,-0.97823 v -4.83795 c 0,-0.39768 -0.03636,-0.71297 -0.135909,-0.97823 -0.09958,-0.26526 -0.278791,-0.47799 -0.506428,-0.60358 -0.455271,-0.25119 -1.012116,-0.22376 -1.773021,-0.23255 h -0.0026 -3.630787 z m 10.583334,0 c -0.760907,0.009 -1.317752,-0.0187 -1.773023,0.23255 -0.227637,0.12559 -0.406847,0.33832 -0.506426,0.60358 -0.09957,0.26526 -0.13591,0.58055 -0.13591,0.97823 v 4.83795 c 0,0.39768 0.03636,0.71297 0.13591,0.97823 0.09958,0.26526 0.278789,0.47644 0.506426,0.60203 0.455271,0.25119 1.012116,0.22531 1.773023,0.2341 h 0.0026 3.630787 0.0026 c 0.760907,-0.009 1.317752,0.0171 1.773021,-0.2341 0.227639,-0.12559 0.406855,-0.33677 0.506428,-0.60203 0.09921,-0.26526 0.135908,-0.58055 0.135908,-0.97823 v -4.83795 c 0,-0.39768 -0.03636,-0.71297 -0.135908,-0.97823 -0.09958,-0.26526 -0.278792,-0.47799 -0.506428,-0.60358 -0.455272,-0.25119 -1.012116,-0.22376 -1.773021,-0.23255 h -0.0026 -3.630787 z m 10.583331,0 c -0.760905,0.009 -1.317747,-0.0187 -1.773018,0.23255 -0.227637,0.12559 -0.40685,0.33832 -0.506431,0.60358 -0.09957,0.26526 -0.135906,0.58055 -0.135906,0.97823 v 4.83795 c 0,0.39768 0.03636,0.71297 0.135906,0.97823 0.09958,0.26526 0.278794,0.47644 0.506431,0.60203 0.455271,0.25119 1.012113,0.22531 1.773018,0.2341 h 0.0026 3.630787 0.0026 c 0.760907,-0.009 1.317752,0.0171 1.773018,-0.2341 0.227642,-0.12559 0.406857,-0.33677 0.506431,-0.60203 0.09921,-0.26526 0.135908,-0.58055 0.135908,-0.97823 v -4.83795 c 0,-0.39768 -0.03636,-0.71297 -0.135908,-0.97823 -0.09958,-0.26526 -0.278792,-0.47799 -0.506431,-0.60358 -0.455269,-0.25119 -1.012114,-0.22376 -1.773018,-0.23255 h -0.0026 -3.630787 z M 9.0299403,268.19813 c -0.7609041,0.009 -1.3177475,-0.0187 -1.7730185,0.23255 -0.2276383,0.1256 -0.4068488,0.33832 -0.5064289,0.60358 -0.099574,0.26526 -0.135909,0.58055 -0.135909,0.97823 v 4.83795 c 0,0.39769 0.036359,0.71297 0.135909,0.97824 0.09958,0.26526 0.2787906,0.47643 0.5064289,0.60203 0.455271,0.25118 1.0121144,0.2253 1.7730185,0.23409 h 0.00259 3.6307857 0.0026 c 0.760907,-0.009 1.31775,0.0171 1.773018,-0.23409 0.227641,-0.1256 0.406857,-0.33677 0.50643,-0.60203 0.0992,-0.26527 0.135891,-0.58055 0.135891,-0.97824 v -4.83795 c 0,-0.39768 -0.03636,-0.71297 -0.135909,-0.97823 -0.09958,-0.26526 -0.278792,-0.47798 -0.50643,-0.60358 -0.455271,-0.25119 -1.012114,-0.22375 -1.773018,-0.23255 h -0.0026 -3.6307857 z m 10.5833337,0 c -0.760904,0.009 -1.317749,-0.0187 -1.773019,0.23255 -0.227637,0.1256 -0.406848,0.33832 -0.506429,0.60358 -0.09957,0.26526 -0.135909,0.58055 -0.135909,0.97823 v 4.83795 c 0,0.39769 0.03636,0.71297 0.135909,0.97824 0.09958,0.26526 0.278792,0.47643 0.506429,0.60203 0.45527,0.25118 1.012115,0.2253 1.773019,0.23409 h 0.0026 24.797453 0.0026 c 0.760908,-0.009 1.317752,0.0171 1.773021,-0.23409 0.22764,-0.1256 0.406855,-0.33677 0.506426,-0.60203 0.09921,-0.26527 0.135911,-0.58055 0.135911,-0.97824 v -4.83795 c 0,-0.39768 -0.03636,-0.71297 -0.135911,-0.97823 -0.09958,-0.26526 -0.278789,-0.47798 -0.506426,-0.60358 -0.455271,-0.25119 -1.012116,-0.22375 -1.773021,-0.23255 h -0.0026 -24.797453 z m 31.749999,0 c -0.760902,0.009 -1.317747,-0.0187 -1.773018,0.23255 -0.227637,0.1256 -0.40685,0.33832 -0.506431,0.60358 -0.09957,0.26526 -0.135906,0.58055 -0.135906,0.97823 v 4.83795 c 0,0.39769 0.03636,0.71297 0.135906,0.97824 0.09958,0.26526 0.278794,0.47643 0.506431,0.60203 0.455271,0.25118 1.012116,0.2253 1.773018,0.23409 h 0.0026 3.630787 0.0026 c 0.760907,-0.009 1.317752,0.0171 1.773018,-0.23409 0.227642,-0.1256 0.406857,-0.33677 0.506431,-0.60203 0.09921,-0.26527 0.135905,-0.58055 0.135905,-0.97824 v -4.83795 c 0,-0.39768 -0.03636,-0.71297 -0.135905,-0.97823 -0.09958,-0.26526 -0.278794,-0.47798 -0.506431,-0.60358 -0.455269,-0.25119 -1.012114,-0.22375 -1.773018,-0.23255 h -0.0026 -3.630787 z"
         style="color:#000000;font-style:normal;font-variant:normal;font-weight:normal;font-stretch:normal;font-size:medium;line-height:normal;font-family:sans-serif;font-variant-ligatures:normal;font-variant-position:normal;font-variant-caps:normal;font-variant-numeric:normal;font-variant-alternates:normal;font-feature-settings:normal;text-indent:0;text-align:start;text-decoration:none;text-decoration-line:none;text-decoration-style:solid;text-decoration-color:#000000;letter-spacing:normal;word-spacing:normal;text-transform:none;writing-mode:lr-tb;direction:ltr;text-orientation:mixed;baseline-shift:baseline;text-anchor:start;white-space:normal;shape-padding:0;clip-rule:nonzero;display:inline;overflow:visible;visibility:visible;opacity:1;isolation:auto;mix-blend-mode:normal;color-interpolation:sRGB;color-interpolation-filters:linearRGB;solid-color:#000000;solid-opacity:1;fill:url(#linearGradient979);fill-opacity:1;fill-rule:nonzero;stroke:none;stroke-width:2.41904807;stroke-linecap:butt;stroke-linejoin:miter;stroke-miterlimit:4;stroke-dasharray:none;stroke-dashoffset:0;stroke-opacity:1;marker:none;color-rendering:auto;image-rendering:auto;shape-rendering:auto;text-rendering:auto;enable-background:accumulate"
         inkscape:connector-curvature="0" />
      <path
         id="path1001"
         d="m 9.0299403,247.03147 c -0.7609051,0.009 -1.3177475,-0.0187 -1.7730185,0.23254 -0.2276383,0.1256 -0.4068488,0.33832 -0.5064289,0.60358 -0.099574,0.26526 -0.135909,0.58055 -0.135909,0.97824 v 0.52916 c 0,-0.39768 0.036335,-0.71297 0.135909,-0.97823 0.09958,-0.26526 0.2787906,-0.47798 0.5064289,-0.60358 0.455271,-0.2512 1.0121134,-0.22379 1.7730185,-0.23255 h 0.00259 3.6307857 0.0026 c 0.760905,0.009 1.317747,-0.0187 1.773018,0.23255 0.227639,0.1256 0.406856,0.33832 0.50643,0.60358 0.09953,0.26526 0.135891,0.58055 0.135891,0.97823 v -0.52916 c 0,-0.39769 -0.03636,-0.71298 -0.135909,-0.97824 -0.09956,-0.26526 -0.278777,-0.47798 -0.506416,-0.60358 -0.455271,-0.25119 -1.012113,-0.22375 -1.773018,-0.23254 h -0.0026 -3.6307856 z m 10.5833337,0 c -0.760904,0.009 -1.317749,-0.0187 -1.773019,0.23254 -0.227638,0.1256 -0.406849,0.33832 -0.506429,0.60358 -0.09957,0.26526 -0.135909,0.58055 -0.135909,0.97824 v 0.52916 c 0,-0.39768 0.03633,-0.71297 0.135909,-0.97823 0.09958,-0.26526 0.278791,-0.47798 0.506429,-0.60358 0.45527,-0.2512 1.012115,-0.22379 1.773019,-0.23255 h 0.0026 3.630787 0.0026 c 0.760906,0.009 1.317749,-0.0187 1.773021,0.23255 0.227637,0.1256 0.406852,0.33832 0.506429,0.60358 0.09955,0.26526 0.135908,0.58055 0.135908,0.97823 v -0.52916 c 0,-0.39769 -0.03636,-0.71298 -0.135908,-0.97824 -0.09957,-0.26526 -0.278778,-0.47798 -0.506415,-0.60358 -0.455272,-0.25119 -1.012116,-0.22375 -1.773021,-0.23254 h -0.0026 -3.630787 z m 10.583333,0 c -0.760904,0.009 -1.317749,-0.0187 -1.77302,0.23254 -0.227637,0.1256 -0.406847,0.33832 -0.506429,0.60358 -0.09957,0.26526 -0.135908,0.58055 -0.135908,0.97824 v 0.52916 c 0,-0.39768 0.03634,-0.71297 0.135908,-0.97823 0.09958,-0.26526 0.278792,-0.47798 0.506429,-0.60358 0.455271,-0.2512 1.012116,-0.22379 1.77302,-0.23255 h 0.0026 3.630786 0.0026 c 0.760905,0.009 1.317749,-0.0187 1.773021,0.23255 0.227637,0.1256 0.406852,0.33832 0.506428,0.60358 0.09955,0.26526 0.135908,0.58055 0.135908,0.97823 v -0.52916 c 0,-0.39769 -0.03636,-0.71298 -0.135908,-0.97824 -0.09958,-0.26526 -0.278791,-0.47798 -0.506428,-0.60358 -0.455272,-0.25119 -1.012116,-0.22375 -1.773021,-0.23254 h -0.0026 -3.630786 z m 10.583335,0 c -0.760907,0.009 -1.317752,-0.0187 -1.773023,0.23254 -0.227637,0.1256 -0.406847,0.33832 -0.506426,0.60358 -0.09957,0.26526 -0.135911,0.58055 -0.135911,0.97824 v 0.52916 c 0,-0.39768 0.03634,-0.71297 0.135911,-0.97823 0.09958,-0.26526 0.278789,-0.47798 0.506426,-0.60358 0.455271,-0.2512 1.012116,-0.22379 1.773023,-0.23255 h 0.0026 3.630787 0.0026 c 0.760905,0.009 1.317749,-0.0187 1.773021,0.23255 0.227636,0.1256 0.406852,0.33832 0.506425,0.60358 0.09955,0.26526 0.135911,0.58055 0.135911,0.97823 v -0.52916 c 0,-0.39769 -0.03636,-0.71298 -0.135911,-0.97824 -0.09958,-0.26526 -0.278789,-0.47798 -0.506425,-0.60358 -0.455272,-0.25119 -1.012116,-0.22375 -1.773021,-0.23254 h -0.0026 -3.630787 z m 10.583331,0 c -0.760902,0.009 -1.317747,-0.0187 -1.773018,0.23254 -0.227637,0.1256 -0.40685,0.33832 -0.506431,0.60358 -0.09957,0.26526 -0.135906,0.58055 -0.135906,0.97824 v 0.52916 c 0,-0.39768 0.03634,-0.71297 0.135906,-0.97823 0.09958,-0.26526 0.278794,-0.47798 0.506431,-0.60358 0.455271,-0.2512 1.012116,-0.22379 1.773018,-0.23255 h 0.0026 3.630787 0.0026 c 0.760904,0.009 1.317749,-0.0187 1.773018,0.23255 0.227637,0.1256 0.406855,0.33832 0.506431,0.60358 0.09955,0.26526 0.135905,0.58055 0.135905,0.97823 v -0.52916 c 0,-0.39769 -0.03636,-0.71298 -0.135905,-0.97824 -0.09958,-0.26526 -0.278794,-0.47798 -0.506431,-0.60358 -0.455269,-0.25119 -1.012114,-0.22375 -1.773018,-0.23254 h -0.0026 -3.630787 z m -38.1,10.58333 c -0.760904,0.009 -1.317747,-0.0187 -1.773018,0.23255 -0.227638,0.12559 -0.406849,0.33832 -0.506429,0.60358 -0.09957,0.26526 -0.135909,0.58055 -0.135909,0.97823 v 0.52917 c 0,-0.39769 0.03634,-0.71298 0.135909,-0.97824 0.09958,-0.26526 0.278791,-0.47798 0.506429,-0.60358 0.455271,-0.2512 1.012114,-0.22378 1.773018,-0.23254 h 0.0026 3.630786 0.0026 c 0.760905,0.009 1.317728,-0.0187 1.77302,0.23254 0.227637,0.1256 0.406852,0.33832 0.506428,0.60358 0.09955,0.26526 0.135909,0.58055 0.135909,0.97824 v -0.52917 c 0,-0.39768 -0.03636,-0.71297 -0.135909,-0.97823 -0.09958,-0.26526 -0.278791,-0.47799 -0.506428,-0.60358 -0.455292,-0.25119 -1.012133,-0.22376 -1.773038,-0.23255 h -0.0026 -3.630786 z m 10.583335,0 c -0.760905,0.009 -1.31775,-0.0187 -1.773021,0.23255 -0.227637,0.12559 -0.406847,0.33832 -0.506428,0.60358 -0.09957,0.26526 -0.135909,0.58055 -0.135909,0.97823 v 0.52917 c 0,-0.39769 0.03634,-0.71298 0.135909,-0.97824 0.09958,-0.26526 0.278791,-0.47798 0.506428,-0.60358 0.455271,-0.2512 1.012116,-0.22378 1.773021,-0.23254 h 0.0026 3.630787 0.0026 c 0.760905,0.009 1.31775,-0.0187 1.773021,0.23254 0.227637,0.1256 0.406852,0.33832 0.506428,0.60358 0.09955,0.26526 0.135909,0.58055 0.135909,0.97824 v -0.52917 c 0,-0.39768 -0.03636,-0.71297 -0.135909,-0.97823 -0.09958,-0.26526 -0.278791,-0.47799 -0.506428,-0.60358 -0.455271,-0.25119 -1.012116,-0.22376 -1.773021,-0.23255 h -0.0026 -3.630787 z m 10.583334,0 c -0.760907,0.009 -1.317752,-0.0187 -1.773023,0.23255 -0.227637,0.12559 -0.406847,0.33832 -0.506426,0.60358 -0.09957,0.26526 -0.13591,0.58055 -0.13591,0.97823 v 0.52917 c 0,-0.39769 0.03634,-0.71298 0.13591,-0.97824 0.09958,-0.26526 0.278789,-0.47798 0.506426,-0.60358 0.455271,-0.2512 1.012116,-0.22378 1.773023,-0.23254 h 0.0026 3.630787 0.0026 c 0.760905,0.009 1.317749,-0.0187 1.773021,0.23254 0.227636,0.1256 0.406852,0.33832 0.506428,0.60358 0.09955,0.26526 0.135908,0.58055 0.135908,0.97824 v -0.52917 c 0,-0.39768 -0.03636,-0.71297 -0.135908,-0.97823 -0.09958,-0.26526 -0.278792,-0.47799 -0.506428,-0.60358 -0.455272,-0.25119 -1.012116,-0.22376 -1.773021,-0.23255 h -0.0026 -3.630787 z m 10.583331,0 c -0.760905,0.009 -1.317747,-0.0187 -1.773018,0.23255 -0.227637,0.12559 -0.40685,0.33832 -0.506431,0.60358 -0.09957,0.26526 -0.135906,0.58055 -0.135906,0.97823 v 0.52917 c 0,-0.39769 0.03634,-0.71298 0.135906,-0.97824 0.09958,-0.26526 0.278794,-0.47798 0.506431,-0.60358 0.455271,-0.2512 1.012113,-0.22378 1.773018,-0.23254 h 0.0026 3.630787 0.0026 c 0.760904,0.009 1.317749,-0.0187 1.773018,0.23254 0.227639,0.1256 0.406855,0.33832 0.506431,0.60358 0.09955,0.26526 0.135908,0.58055 0.135908,0.97824 v -0.52917 c 0,-0.39768 -0.03636,-0.71297 -0.135908,-0.97823 -0.09958,-0.26526 -0.278792,-0.47799 -0.506431,-0.60358 -0.455269,-0.25119 -1.012114,-0.22376 -1.773018,-0.23255 h -0.0026 -3.630787 z M 9.0299403,268.19813 c -0.7609041,0.009 -1.3177475,-0.0187 -1.7730185,0.23255 -0.2276383,0.1256 -0.4068488,0.33832 -0.5064289,0.60358 -0.099574,0.26526 -0.135909,0.58055 -0.135909,0.97823 v 0.52917 c 0,-0.39768 0.036335,-0.71297 0.135909,-0.97823 0.09958,-0.26526 0.2787906,-0.47799 0.5064289,-0.60358 0.455271,-0.2512 1.0121144,-0.22379 1.7730185,-0.23255 h 0.00259 3.6307857 0.0026 c 0.760904,0.009 1.317747,-0.0186 1.773018,0.23255 0.227638,0.12559 0.406854,0.33832 0.50643,0.60358 0.09953,0.26526 0.135891,0.58055 0.135891,0.97823 v -0.52917 c 0,-0.39768 -0.03636,-0.71297 -0.135909,-0.97823 -0.09958,-0.26526 -0.278792,-0.47798 -0.50643,-0.60358 -0.455271,-0.25119 -1.012114,-0.22375 -1.773018,-0.23255 h -0.0026 -3.6307857 z m 10.5833337,0 c -0.760904,0.009 -1.317749,-0.0187 -1.773019,0.23255 -0.227637,0.1256 -0.406848,0.33832 -0.506429,0.60358 -0.09957,0.26526 -0.135909,0.58055 -0.135909,0.97823 v 0.52917 c 0,-0.39768 0.03634,-0.71297 0.135909,-0.97823 0.09958,-0.26526 0.278792,-0.47799 0.506429,-0.60358 0.45527,-0.2512 1.012115,-0.22379 1.773019,-0.23255 h 0.0026 24.797453 0.0026 c 0.760905,0.009 1.31775,-0.0186 1.773021,0.23255 0.227637,0.12559 0.406852,0.33832 0.506426,0.60358 0.09955,0.26526 0.135911,0.58055 0.135911,0.97823 v -0.52917 c 0,-0.39768 -0.03636,-0.71297 -0.135911,-0.97823 -0.09958,-0.26526 -0.278789,-0.47798 -0.506426,-0.60358 -0.455271,-0.25119 -1.012116,-0.22375 -1.773021,-0.23255 h -0.0026 -24.797453 z m 31.749999,0 c -0.760902,0.009 -1.317747,-0.0187 -1.773018,0.23255 -0.227637,0.1256 -0.40685,0.33832 -0.506431,0.60358 -0.09957,0.26526 -0.135906,0.58055 -0.135906,0.97823 v 0.52917 c 0,-0.39768 0.03634,-0.71297 0.135906,-0.97823 0.09958,-0.26526 0.278794,-0.47799 0.506431,-0.60358 0.455271,-0.2512 1.012116,-0.22379 1.773018,-0.23255 h 0.0026 3.630787 0.0026 c 0.760904,0.009 1.317749,-0.0186 1.773018,0.23255 0.227637,0.12559 0.406855,0.33832 0.506431,0.60358 0.09955,0.26526 0.135905,0.58055 0.135905,0.97823 v -0.52917 c 0,-0.39768 -0.03636,-0.71297 -0.135905,-0.97823 -0.09958,-0.26526 -0.278794,-0.47798 -0.506431,-0.60358 -0.455269,-0.25119 -1.012114,-0.22375 -1.773018,-0.23255 h -0.0026 -3.630787 z"
         style="color:#000000;font-style:normal;font-variant:normal;font-weight:normal;font-stretch:normal;font-size:medium;line-height:normal;font-family:sans-serif;font-variant-ligatures:normal;font-variant-position:normal;font-variant-caps:normal;font-variant-numeric:normal;font-variant-alternates:normal;font-feature-settings:normal;text-indent:0;text-align:start;text-decoration:none;text-decoration-line:none;text-decoration-style:solid;text-decoration-color:#000000;letter-spacing:normal;word-spacing:normal;text-transform:none;writing-mode:lr-tb;direction:ltr;text-orientation:mixed;baseline-shift:baseline;text-anchor:start;white-space:normal;shape-padding:0;clip-rule:nonzero;display:inline;overflow:visible;visibility:visible;opacity:0.4;isolation:auto;mix-blend-mode:normal;color-interpolation:sRGB;color-interpolation-filters:linearRGB;solid-color:#000000;solid-opacity:1;fill:#ffffff;fill-opacity:1;fill-rule:nonzero;stroke:none;stroke-width:2.41904807;stroke-linecap:butt;stroke-linejoin:miter;stroke-miterlimit:4;stroke-dasharray:none;stroke-dashoffset:0;stroke-opacity:1;marker:none;color-rendering:auto;image-rendering:auto;shape-rendering:auto;text-rendering:auto;enable-background:accumulate"
         inkscape:connector-curvature="0" />
      <g
         style="display:inline;opacity:0.2;enable-background:new"
         id="g1088"
         transform="matrix(0.26458333,0,0,0.26458333,-8.2020823,220.57313)">
        <text
           xml:space="preserve"
           style="font-style:normal;font-weight:normal;font-size:40px;line-height:1000%;font-family:sans-serif;text-align:center;letter-spacing:0px;word-spacing:0px;text-anchor:middle;fill:#000000;fill-opacity:1;stroke:none;stroke-width:1px;stroke-linecap:butt;stroke-linejoin:miter;stroke-opacity:1"
           x="71.295998"
           y="120.85742"
           id="text1012"><tspan
             sodipodi:role="line"
             id="tspan1010"
             x="71.295998"
             y="120.85742"
             style="font-style:normal;font-variant:normal;font-weight:normal;font-stretch:normal;font-size:16px;font-family:Ubuntu;-inkscape-font-specification:Ubuntu;text-align:center;text-anchor:middle">Q</tspan></text>
        <text
           id="text1016"
           y="120.85742"
           x="111.296"
           style="font-style:normal;font-weight:normal;font-size:40px;line-height:1000%;font-family:sans-serif;text-align:center;letter-spacing:0px;word-spacing:0px;text-anchor:middle;fill:#000000;fill-opacity:1;stroke:none;stroke-width:1px;stroke-linecap:butt;stroke-linejoin:miter;stroke-opacity:1"
           xml:space="preserve"><tspan
             style="font-style:normal;font-variant:normal;font-weight:normal;font-stretch:normal;font-size:16px;font-family:Ubuntu;-inkscape-font-specification:Ubuntu;text-align:center;text-anchor:middle"
             y="120.85742"
             x="111.296"
             id="tspan1014"
             sodipodi:role="line">W</tspan></text>
        <text
           xml:space="preserve"
           style="font-style:normal;font-weight:normal;font-size:40px;line-height:1000%;font-family:sans-serif;text-align:center;letter-spacing:0px;word-spacing:0px;text-anchor:middle;fill:#000000;fill-opacity:1;stroke:none;stroke-width:1px;stroke-linecap:butt;stroke-linejoin:miter;stroke-opacity:1"
           x="151.29599"
           y="120.85742"
           id="text1020"><tspan
             sodipodi:role="line"
             id="tspan1018"
             x="151.29599"
             y="120.85742"
             style="font-style:normal;font-variant:normal;font-weight:normal;font-stretch:normal;font-size:16px;font-family:Ubuntu;-inkscape-font-specification:Ubuntu;text-align:center;text-anchor:middle">E</tspan></text>
        <text
           id="text1024"
           y="120.85742"
           x="191.29599"
           style="font-style:normal;font-weight:normal;font-size:40px;line-height:1000%;font-family:sans-serif;text-align:center;letter-spacing:0px;word-spacing:0px;text-anchor:middle;fill:#000000;fill-opacity:1;stroke:none;stroke-width:1px;stroke-linecap:butt;stroke-linejoin:miter;stroke-opacity:1"
           xml:space="preserve"><tspan
             style="font-style:normal;font-variant:normal;font-weight:normal;font-stretch:normal;font-size:16px;font-family:Ubuntu;-inkscape-font-specification:Ubuntu;text-align:center;text-anchor:middle"
             y="120.85742"
             x="191.29599"
             id="tspan1022"
             sodipodi:role="line">R</tspan></text>
        <text
           xml:space="preserve"
           style="font-style:normal;font-weight:normal;font-size:40px;line-height:1000%;font-family:sans-serif;text-align:center;letter-spacing:0px;word-spacing:0px;text-anchor:middle;fill:#000000;fill-opacity:1;stroke:none;stroke-width:1px;stroke-linecap:butt;stroke-linejoin:miter;stroke-opacity:1"
           x="231.29599"
           y="120.85742"
           id="text1028"><tspan
             sodipodi:role="line"
             id="tspan1026"
             x="231.29599"
             y="120.85742"
             style="font-style:normal;font-variant:normal;font-weight:normal;font-stretch:normal;font-size:16px;font-family:Ubuntu;-inkscape-font-specification:Ubuntu;text-align:center;text-anchor:middle">T</tspan></text>
        <text
           xml:space="preserve"
           style="font-style:normal;font-weight:normal;font-size:40px;line-height:1000%;font-family:sans-serif;text-align:center;letter-spacing:0px;word-spacing:0px;text-anchor:middle;fill:#000000;fill-opacity:1;stroke:none;stroke-width:1px;stroke-linecap:butt;stroke-linejoin:miter;stroke-opacity:1"
           x="87.295998"
           y="160.85742"
           id="text1032"><tspan
             sodipodi:role="line"
             id="tspan1030"
             x="87.295998"
             y="160.85742"
             style="font-style:normal;font-variant:normal;font-weight:normal;font-stretch:normal;font-size:16px;font-family:Ubuntu;-inkscape-font-specification:Ubuntu;text-align:center;text-anchor:middle">A</tspan></text>
        <text
           id="text1036"
           y="160.85742"
           x="127.29599"
           style="font-style:normal;font-weight:normal;font-size:40px;line-height:1000%;font-family:sans-serif;text-align:center;letter-spacing:0px;word-spacing:0px;text-anchor:middle;fill:#000000;fill-opacity:1;stroke:none;stroke-width:1px;stroke-linecap:butt;stroke-linejoin:miter;stroke-opacity:1"
           xml:space="preserve"><tspan
             style="font-style:normal;font-variant:normal;font-weight:normal;font-stretch:normal;font-size:16px;font-family:Ubuntu;-inkscape-font-specification:Ubuntu;text-align:center;text-anchor:middle"
             y="160.85742"
             x="127.29599"
             id="tspan1034"
             sodipodi:role="line">S</tspan></text>
        <text
           xml:space="preserve"
           style="font-style:normal;font-weight:normal;font-size:40px;line-height:1000%;font-family:sans-serif;text-align:center;letter-spacing:0px;word-spacing:0px;text-anchor:middle;fill:#000000;fill-opacity:1;stroke:none;stroke-width:1px;stroke-linecap:butt;stroke-linejoin:miter;stroke-opacity:1"
           x="167.29599"
           y="160.85742"
           id="text1040"><tspan
             sodipodi:role="line"
             id="tspan1038"
             x="167.29599"
             y="160.85742"
             style="font-style:normal;font-variant:normal;font-weight:normal;font-stretch:normal;font-size:16px;font-family:Ubuntu;-inkscape-font-specification:Ubuntu;text-align:center;text-anchor:middle">D</tspan></text>
        <text
           id="text1044"
           y="160.85742"
           x="207.29599"
           style="font-style:normal;font-weight:normal;font-size:40px;line-height:1000%;font-family:sans-serif;text-align:center;letter-spacing:0px;word-spacing:0px;text-anchor:middle;fill:#000000;fill-opacity:1;stroke:none;stroke-width:1px;stroke-linecap:butt;stroke-linejoin:miter;stroke-opacity:1"
           xml:space="preserve"><tspan
             style="font-style:normal;font-variant:normal;font-weight:normal;font-stretch:normal;font-size:16px;font-family:Ubuntu;-inkscape-font-specification:Ubuntu;text-align:center;text-anchor:middle"
             y="160.85742"
             x="207.29599"
             id="tspan1042"
             sodipodi:role="line">F</tspan></text>
        <text
           id="text1048"
           y="200.85742"
           x="71.295998"
           style="font-style:normal;font-weight:normal;font-size:40px;line-height:1000%;font-family:sans-serif;text-align:center;letter-spacing:0px;word-spacing:0px;text-anchor:middle;fill:#000000;fill-opacity:1;stroke:none;stroke-width:1px;stroke-linecap:butt;stroke-linejoin:miter;stroke-opacity:1"
           xml:space="preserve"><tspan
             style="font-style:normal;font-variant:normal;font-weight:normal;font-stretch:normal;font-size:16px;font-family:Ubuntu;-inkscape-font-specification:Ubuntu;text-align:center;text-anchor:middle"
             y="200.85742"
             x="71.295998"
             id="tspan1046"
             sodipodi:role="line">.</tspan></text>
        <text
           id="text1064"
           y="200.85742"
           x="231.29599"
           style="font-style:normal;font-weight:normal;font-size:40px;line-height:1000%;font-family:sans-serif;text-align:center;letter-spacing:0px;word-spacing:0px;text-anchor:middle;fill:#000000;fill-opacity:1;stroke:none;stroke-width:1px;stroke-linecap:butt;stroke-linejoin:miter;stroke-opacity:1"
           xml:space="preserve"><tspan
             style="font-style:normal;font-variant:normal;font-weight:normal;font-stretch:normal;font-size:16px;font-family:Ubuntu;-inkscape-font-specification:Ubuntu;text-align:center;text-anchor:middle"
             y="200.85742"
             x="231.29599"
             id="tspan1062"
             sodipodi:role="line">/</tspan></text>
      </g>
    </g>
  </g>
</svg>
