<?xml version="1.0" standalone="no"?><!-- Generator: Gravit.io --><svg xmlns="http://www.w3.org/2000/svg" xmlns:xlink="http://www.w3.org/1999/xlink" style="isolation:isolate" viewBox="0 0 256 256" width="256" height="256"><defs><filter id="n19zpQpMw2AJXiPaiv85tt62SHtNRpgM" x="-7.324" y="2.947" width="270.648" height="254.338" filterUnits="userSpaceOnUse"><feGaussianBlur xmlns="http://www.w3.org/2000/svg" in="SourceGraphic" stdDeviation="4.293609062839028"/><feOffset xmlns="http://www.w3.org/2000/svg" dx="0" dy="4" result="pf_100_offsetBlur"/><feFlood xmlns="http://www.w3.org/2000/svg" flood-color="#000000" flood-opacity="0.4"/><feComposite xmlns="http://www.w3.org/2000/svg" in2="pf_100_offsetBlur" operator="in" result="pf_100_dropShadow"/><feBlend xmlns="http://www.w3.org/2000/svg" in="SourceGraphic" in2="pf_100_dropShadow" mode="normal"/></filter></defs><g filter="url(#n19zpQpMw2AJXiPaiv85tt62SHtNRpgM)"><path d=" M 165.685 11.947 C 239.74 11.947 250.324 22.504 250.324 96.491 L 250.324 155.742 C 250.324 229.728 239.74 240.285 165.685 240.285 L 90.315 240.285 C 16.26 240.285 5.676 229.728 5.676 155.742 L 5.676 96.491 C 5.676 22.504 16.26 11.947 90.315 11.947 L 165.685 11.947 Z " id="shape" fill="rgb(103,51,153)"/></g><g id="Group"><g id="g942" style="opacity:0.9;"><g id="g940" style="opacity:0.9;"><g opacity="0.9"><path d=" M 6.055 150.818 L 6.055 156.082 C 6.055 165.331 6.222 173.588 6.656 180.957 C 6.873 184.642 7.156 188.104 7.521 191.358 C 7.885 194.612 8.329 197.656 8.866 200.505 C 9.404 203.353 10.035 206.005 10.772 208.474 C 10.899 208.902 11.078 209.247 11.212 209.663 C 12.223 212.284 13.288 214.902 14.515 217.511 C 15.176 218.765 15.799 220.069 16.561 221.195 C 17.773 222.982 19.117 224.612 20.605 226.098 C 22.093 227.584 23.725 228.926 25.515 230.136 C 27.305 231.346 29.252 232.424 31.37 233.383 C 33.488 234.343 35.777 235.185 38.249 235.92 C 40.721 236.655 43.377 237.283 46.229 237.819 C 47.939 238.141 49.867 238.368 51.722 238.625 C 47.546 234.096 43.637 229.467 41.156 225.802 C 27.268 205.53 22.954 190.521 23.904 166.021 C 24.25 156.102 24.854 152.048 26.578 146.44 C 38.049 108.919 69.19 83.213 103.522 82.869 L 110.596 82.782 L 111.112 77.175 C 111.458 74.07 111.889 69.755 112.235 67.427 L 112.752 63.374 L 104.213 63.459 C 99.469 63.459 92.394 64.236 88.339 65.01 C 64.792 69.928 46.246 81.314 28.907 101.759 C 18.223 114.316 9.703 132.79 6.055 150.818 Z " id="path934" fill="rgb(246,246,246)"/></g><g opacity="0.9"><path d=" M 61.147 239.641 C 62.706 239.765 64.149 239.93 65.796 240.027 C 73.172 240.46 81.438 240.626 90.695 240.626 L 99.877 240.626 C 67.81 227.67 49.263 202.388 49.263 169.472 C 49.263 159.725 49.523 157.911 51.851 151.183 C 56.682 137.122 65.48 125.563 76.951 118.23 C 88.251 110.985 99.121 107.878 112.922 108.051 C 123.014 108.051 131.123 109.691 140.006 113.313 C 143.544 114.78 146.562 115.814 146.648 115.73 C 146.821 115.643 148.718 111.848 150.875 107.447 C 155.447 98.218 155.447 98.218 147.855 95.285 C 136.641 90.886 128.015 89.16 115.506 88.816 C 108.87 88.647 101.537 88.821 99.122 89.165 C 72.035 93.563 48.831 111.074 37.014 136.004 C 26.232 158.603 27.27 187.761 39.69 212.172 C 44.904 222.397 52.318 231.758 61.147 239.641 L 61.147 239.641 Z " id="path936" fill="rgb(246,246,246)"/></g><g opacity="0.9"><path d=" M 126.757 240.626 L 166.064 240.626 C 175.321 240.626 183.588 240.46 190.965 240.027 C 192.849 239.916 194.513 239.732 196.283 239.585 C 201.418 235.909 216.648 221.533 215.92 220.886 C 215.749 220.799 212.467 220.885 208.672 221.316 C 204.878 221.662 192.973 222.44 182.276 222.957 C 141.389 224.854 116.978 220.886 97.223 208.982 C 91.444 205.445 82.387 196.129 79.886 190.954 C 71 172.493 76.089 150.756 91.788 140.232 C 110.333 127.896 135.693 132.642 147.686 150.757 L 149.844 153.948 L 158.126 149.55 C 162.698 147.049 166.58 144.979 166.751 144.806 C 167.787 143.942 163.042 137.299 156.918 131.09 C 151.223 125.225 148.637 123.329 141.824 119.965 C 128.971 113.664 116.547 112.023 102.143 114.784 C 94.551 116.251 81.872 122.203 76.266 126.861 C 62.723 138.075 56.08 153.084 56.08 172.06 C 56.08 183.879 57.46 190.175 62.548 200.268 C 72.468 220.02 93.344 233.477 125.003 240.292 C 125.611 240.43 126.177 240.506 126.757 240.626 L 126.757 240.626 Z " id="path938" fill="rgb(246,246,246)"/></g></g></g><g id="g938"><g opacity="0.15"><circle vector-effect="non-scaling-stroke" cx="0" cy="0" r="1" transform="matrix(46.554,0,0,46.554,114.273,174.228)" id="circle4945" fill="rgb(255,255,255)"/></g><g opacity="0.3"><circle vector-effect="non-scaling-stroke" cx="0" cy="0" r="1" transform="matrix(25.484,0,0,25.484,114.426,174.264)" id="circle900" fill="rgb(255,255,255)"/></g><g opacity="0.45"><circle vector-effect="non-scaling-stroke" cx="0" cy="0" r="1" transform="matrix(12.742,0,0,12.742,114.426,174.264)" id="circle902" fill="rgb(255,255,255)"/></g></g></g><g opacity="0.4"><linearGradient id="_lgradient_0" x1="0.5166666666666668" y1="0" x2="0.5166666666666666" y2="1.0000000000000002"><stop offset="0%" stop-opacity="1" style="stop-color:rgb(255,255,255)"/><stop offset="12.5%" stop-opacity="0.09803922" style="stop-color:rgb(255,255,255)"/><stop offset="92.500001%" stop-opacity="0.09803922" style="stop-color:rgb(0,0,0)"/><stop offset="100%" stop-opacity="0.49803922" style="stop-color:rgb(0,0,0)"/></linearGradient><path d=" M 165.685 11.947 C 239.74 11.947 250.324 22.504 250.324 96.491 L 250.324 155.742 C 250.324 229.728 239.74 240.285 165.685 240.285 L 90.315 240.285 C 16.26 240.285 5.676 229.728 5.676 155.742 L 5.676 96.491 C 5.676 22.504 16.26 11.947 90.315 11.947 L 165.685 11.947 Z " id="highlight" fill="none" vector-effect="non-scaling-stroke" stroke-width="4.077" stroke="url(#_lgradient_0)" stroke-linejoin="round" stroke-linecap="round" stroke-miterlimit="4"/></g></svg>