<svg xmlns="http://www.w3.org/2000/svg" style="isolation:isolate" width="256" height="256"><defs><filter id="a" width="270.648" height="254.338" x="-7.32" y="2.95" filterUnits="userSpaceOnUse"><feGaussianBlur xmlns="http://www.w3.org/2000/svg" in="SourceGraphic" stdDeviation="4.294"/><feOffset xmlns="http://www.w3.org/2000/svg" dy="4" result="pf_100_offsetBlur"/><feFlood xmlns="http://www.w3.org/2000/svg" flood-opacity=".4"/><feComposite xmlns="http://www.w3.org/2000/svg" in2="pf_100_offsetBlur" operator="in" result="pf_100_dropShadow"/><feBlend xmlns="http://www.w3.org/2000/svg" in="SourceGraphic" in2="pf_100_dropShadow"/></filter></defs><g filter="url(#a)"><linearGradient id="b" x1=".5" x2=".5" y1="-.036" y2="1.036" gradientTransform="matrix(244.648 0 0 228.338 5.676 11.947)" gradientUnits="userSpaceOnUse"><stop offset="0%"/><stop offset="100%" stop-color="#333"/></linearGradient><path fill="url(#b)" d="M165.685 11.947c74.055 0 84.639 10.557 84.639 84.544v59.251c0 73.986-10.584 84.543-84.639 84.543h-75.37c-74.055 0-84.639-10.557-84.639-84.543V96.491c0-73.987 10.584-84.544 84.639-84.544h75.37z"/></g><g opacity=".4"><linearGradient id="c" x1=".517" x2=".517" y2="1"><stop offset="0%" stop-color="#fff"/><stop offset="12.5%" stop-opacity=".098" stop-color="#fff"/><stop offset="92.5%" stop-opacity=".098"/><stop offset="100%" stop-opacity=".498"/></linearGradient><path fill="none" stroke="url(#c)" stroke-linecap="round" stroke-linejoin="round" stroke-width="4.077" d="M165.685 11.947c74.055 0 84.639 10.557 84.639 84.544v59.251c0 73.986-10.584 84.543-84.639 84.543h-75.37c-74.055 0-84.639-10.557-84.639-84.543V96.491c0-73.987 10.584-84.544 84.639-84.544h75.37z" vector-effect="non-scaling-stroke"/></g><defs><filter id="d" width="151.187" height="151.347" x="62.54" y="49.86" filterUnits="userSpaceOnUse"><feGaussianBlur xmlns="http://www.w3.org/2000/svg" stdDeviation=".725"/></filter></defs><path d="M125.388 51.547c33.73 0 61.162 27.433 61.162 61.162 0 14.707-5.218 28.216-13.897 38.776l5.83 5.83 1.441-1.442 32.11 32.11-11.533 11.532-32.111-32.11 1.442-1.442-5.848-5.847c-10.534 8.592-23.971 13.756-38.596 13.756-33.73 0-61.162-27.433-61.162-61.163 0-33.729 27.432-61.162 61.162-61.162zm0 8.293c-29.248 0-52.87 23.622-52.87 52.869 0 29.248 23.622 52.87 52.87 52.87 29.248 0 52.87-23.622 52.87-52.87 0-29.247-23.622-52.869-52.87-52.869z" opacity=".1" filter="url(#d)"/><defs><filter id="e" width="164.703" height="164.862" x="55.78" y="43.1" filterUnits="userSpaceOnUse"><feGaussianBlur xmlns="http://www.w3.org/2000/svg" stdDeviation="3.627"/></filter></defs><g opacity=".3" filter="url(#e)"><linearGradient id="f" x1="1.082" x2=".034" y1=".985" y2=".985" gradientTransform="matrix(-147.808 0 0 147.968 212.034 51.547)" gradientUnits="userSpaceOnUse"><stop offset="0%" stop-opacity="0"/><stop offset="47.697%"/><stop offset="100%" stop-opacity="0"/></linearGradient><path fill="url(#f)" d="M125.388 51.547c33.73 0 61.162 27.433 61.162 61.162 0 14.707-5.218 28.216-13.897 38.776l5.83 5.83 1.441-1.442 32.11 32.11-11.533 11.532-32.111-32.11 1.442-1.442-5.848-5.847c-10.534 8.592-23.971 13.756-38.596 13.756-33.73 0-61.162-27.433-61.162-61.163 0-33.729 27.432-61.162 61.162-61.162zm0 8.293c-29.248 0-52.87 23.622-52.87 52.869 0 29.248 23.622 52.87 52.87 52.87 29.248 0 52.87-23.622 52.87-52.87 0-29.247-23.622-52.869-52.87-52.869z"/></g><path fill="#333" d="M161.681 156.793l8.65-8.65 12.23 12.23-8.65 8.65-12.23-12.23z"/><path fill="#FDC92B" d="M168.391 166.383l11.53-11.53 32.11 32.11-11.53 11.53-32.11-32.11z"/><circle fill="#FDFDFD" fill-opacity=".543" r="1" transform="translate(125.888 111.19) scale(57.016)" vector-effect="non-scaling-stroke"/><path fill="#4D4D4D" fill-rule="evenodd" d="M125.39 172.85c-8.18.01-16.27-1.63-23.8-4.81a61.185 61.185 0 0 1-19.44-13.11 61.408 61.408 0 0 1-13.11-19.44 60.977 60.977 0 0 1-4.81-23.8 61.013 61.013 0 0 1 4.81-23.8 61.408 61.408 0 0 1 13.11-19.44 61.185 61.185 0 0 1 19.44-13.11 60.977 60.977 0 0 1 23.8-4.81c8.17-.01 16.27 1.63 23.8 4.81a61.408 61.408 0 0 1 32.55 32.55 60.977 60.977 0 0 1 4.81 23.8c.01 8.18-1.63 16.27-4.81 23.8a61.408 61.408 0 0 1-32.55 32.55 61.013 61.013 0 0 1-23.8 4.81zm0-8.29h-.01c-7.06 0-14.05-1.41-20.56-4.16a53.03 53.03 0 0 1-16.81-11.33 53.225 53.225 0 0 1-11.34-16.81 52.828 52.828 0 0 1-4.15-20.57 52.658 52.658 0 0 1 4.16-20.57 53.03 53.03 0 0 1 28.14-28.14c6.51-2.75 13.5-4.16 20.57-4.16 7.06 0 14.06 1.41 20.57 4.16a52.987 52.987 0 0 1 16.8 11.33 52.894 52.894 0 0 1 11.34 16.81 52.875 52.875 0 0 1 4.16 20.57c0 7.07-1.41 14.06-4.16 20.57a52.894 52.894 0 0 1-11.34 16.81 52.987 52.987 0 0 1-16.8 11.33 52.838 52.838 0 0 1-20.57 4.16z"/><circle fill="#FFF" fill-opacity=".543" r="1" transform="translate(109.078 95.38) scale(20.387)" vector-effect="non-scaling-stroke"/></svg>