<?xml version="1.0" standalone="no"?><!-- Generator: Gravit.io --><svg xmlns="http://www.w3.org/2000/svg" xmlns:xlink="http://www.w3.org/1999/xlink" style="isolation:isolate" viewBox="0 0 256 256" width="256" height="256"><g id="Group" filter="url(#J3VwXL9BxVUHD0fyAfrZaxORGPafEfMa)"><linearGradient id="_lgradient_88" x1="0.49999999999999994" y1="-0.036" x2="0.4999999999999997" y2="1.036" gradientTransform="matrix(244.648,0,0,228.338,5.676,11.947)" gradientUnits="userSpaceOnUse"><stop offset="0%" stop-opacity="1" style="stop-color:rgb(0,0,0)"/><stop offset="100%" stop-opacity="1" style="stop-color:rgb(51,51,51)"/></linearGradient><path d=" M 165.685 11.947 C 239.74 11.947 250.324 22.504 250.324 96.491 L 250.324 155.742 C 250.324 229.728 239.74 240.285 165.685 240.285 L 90.315 240.285 C 16.26 240.285 5.676 229.728 5.676 155.742 L 5.676 96.491 C 5.676 22.504 16.26 11.947 90.315 11.947 L 165.685 11.947 L 165.685 11.947 Z " id="Path" fill="url(#_lgradient_88)"/></g><defs><filter id="J3VwXL9BxVUHD0fyAfrZaxORGPafEfMa" x="-200%" y="-200%" width="400%" height="400%" filterUnits="objectBoundingBox" color-interpolation-filters="sRGB"><feGaussianBlur xmlns="http://www.w3.org/2000/svg" in="SourceGraphic" stdDeviation="4.294"/><feOffset xmlns="http://www.w3.org/2000/svg" dx="0" dy="4" result="pf_100_offsetBlur"/><feFlood xmlns="http://www.w3.org/2000/svg" flood-color="#000000" flood-opacity="0.4"/><feComposite xmlns="http://www.w3.org/2000/svg" in2="pf_100_offsetBlur" operator="in" result="pf_100_dropShadow"/><feBlend xmlns="http://www.w3.org/2000/svg" in="SourceGraphic" in2="pf_100_dropShadow" mode="normal"/></filter></defs><clipPath id="_clipPath_2Qu0YGveVmCPY9Mu3ch7rt6HTCwL8HAj"><path d=" M 165.69 11.95 C 239.746 11.95 250.33 22.506 250.33 96.481 L 250.33 155.722 C 250.33 229.697 239.746 240.253 165.69 240.253 L 90.32 240.253 C 16.264 240.253 5.68 229.697 5.68 155.722 L 5.68 96.481 C 5.68 22.506 16.264 11.95 90.32 11.95 L 165.69 11.95 L 165.69 11.95 Z " id="Path" fill="rgb(255,255,255)"/></clipPath><g clip-path="url(#_clipPath_2Qu0YGveVmCPY9Mu3ch7rt6HTCwL8HAj)"><g id="Group"><path d=" M 208.61 45.406 C 207.799 46.216 242.123 126.049 242.123 126.049 L 208.61 206.693 C 208.61 206.693 127.953 164.065 127.953 126.049 C 127.953 88.034 208.61 45.406 208.61 45.406 Z " id="Path" fill="rgb(70,169,38)"/><path d=" M 47.296 206.693 C 48.107 205.883 13.783 126.049 13.783 126.049 L 47.296 45.406 C 47.296 45.406 127.953 88.034 127.953 126.049 C 127.953 164.065 47.296 206.693 47.296 206.693 Z " id="Path" fill="rgb(242,44,66)"/><path d=" M 208.61 45.406 C 207.799 46.216 127.953 11.898 127.953 11.898 L 47.296 45.406 L 127.953 126.049 L 208.61 45.406 L 208.61 45.406 Z " id="Path" fill="rgb(255,218,100)"/><path d=" M 47.296 206.693 L 127.953 240.097 C 127.953 240.097 207.799 205.883 208.61 206.693 L 127.953 126.049 L 47.296 206.693 L 47.296 206.693 Z " id="Path" fill="rgb(47,95,221)"/><path d=" M 231.317 22.807 C 231.156 22.694 231.034 22.548 230.871 22.438 C 229.014075 21.192723 227.055083 20.106847 225.015 19.192 C 222.897 18.232 220.608 17.391 218.136 16.656 C 215.665 15.921 213.008 15.291 210.157 14.754 C 207.305 14.218 204.257 13.774 201 13.411 C 197.53783 13.032376 194.066295 12.744943 190.589 12.549 C 183.213 12.116 174.947 11.95 165.69 11.95 L 127.956 11.95 C 127.942 41.12 139.11 70.295 161.466 92.646 L 231.317 22.807 L 231.317 22.807 Z " id="Path" fill="rgb(166,215,79)"/><path d=" M 250.33 125.759 L 250.33 96.48 C 250.33 87.233 250.165 78.977 249.731 71.609 C 249.533281 68.135693 249.244515 64.668168 248.865 61.21 C 248.530435 58.145961 248.081455 55.095498 247.519 52.065 C 246.982 49.217 246.352 46.565 245.616 44.097 C 244.88 41.628 244.036 39.342 243.075 37.227 C 242.158644 35.188928 241.071079 33.232249 239.824 31.378 C 238.635393 29.618479 237.281228 27.976671 235.78 26.475 C 234.428 25.125 232.918 23.928 231.317 22.807 L 161.466 92.646 C 185.906 117.083 218.5 128.054 250.33 125.759 L 250.33 125.759 Z " id="Path" fill="rgb(118,194,43)"/><path d=" M 127.852 240.252 L 165.69 240.252 C 174.947 240.252 183.213 240.088 190.589 239.655 C 194.278 239.439 197.743 239.155 201 238.791 C 204.257 238.428 207.305 237.984 210.157 237.448 C 213.008 236.911 215.665 236.282 218.136 235.547 C 220.608 234.812 222.897 233.972 225.015 233.012 C 227.055139 232.096486 229.014131 231.009942 230.871 229.764 C 231.012 229.668 231.119 229.541 231.259 229.443 L 161.362 159.558 C 139.007 181.909 127.839 211.082 127.852 240.252 L 127.852 240.252 Z " id="Path" fill="rgb(20,99,165)"/><path d=" M 231.259 229.443 C 232.884 228.31 234.41 227.097 235.78 225.729 C 237.281246 224.226623 238.635408 222.58415 239.824 220.824 C 241.071075 218.970449 242.158642 217.014434 243.075 214.977 C 244.036 212.862 244.88 210.576 245.616 208.108 C 246.352 205.639 246.982 202.987 247.519 200.139 C 248.056 197.291 248.501 194.245 248.865 190.992 C 249.244515 187.533832 249.533281 184.066307 249.731 180.593 C 250.165 173.225 250.33 164.969 250.33 155.722 L 250.33 126.447 C 218.467 124.12 185.829 135.094 161.362 159.558 L 231.259 229.443 L 231.259 229.443 Z " id="Path" fill="rgb(43,137,143)"/><path d=" M 5.68 126.34 L 5.68 155.722 C 5.68 164.969 5.846 173.225 6.28 180.593 C 6.497 184.277 6.781 187.739 7.146 190.992 C 7.51 194.245 7.954 197.291 8.492 200.139 C 9.029 202.987 9.659 205.639 10.395 208.108 C 11.131 210.576 11.973 212.862 12.933 214.977 C 13.850362 217.014516 14.938933 218.97053 16.187 220.824 C 17.37455 222.584087 18.727711 224.226564 20.228 225.729 C 21.564 227.062 23.059 228.24 24.636 229.35 L 94.543 159.454 C 70.102 135.017 37.511 124.044 5.68 126.34 Z " id="Path" fill="rgb(155,51,174)"/><path d=" M 24.636 229.35 C 24.817 229.477 24.956 229.64 25.14 229.764 C 26.996744 231.010146 28.955754 232.096701 30.996 233.012 C 33.114 233.972 35.402 234.812 37.874 235.547 C 40.346 236.282 43.001 236.911 45.852 237.448 C 48.704 237.984 51.751 238.428 55.009 238.791 C 58.266 239.155 61.733 239.439 65.421 239.655 C 72.798 240.088 81.063 240.252 90.32 240.252 L 128.049 240.252 C 128.089 211.048 116.925 181.832 94.543 159.454 L 24.636 229.35 L 24.636 229.35 Z " id="Path" fill="rgb(120,57,183)"/><path d=" M 128.159 11.95 L 90.32 11.95 C 81.063 11.95 72.798 12.116 65.421 12.549 C 61.733 12.765 58.266 13.047 55.009 13.411 C 51.751 13.774 48.704 14.218 45.852 14.754 C 43.001 15.291 40.346 15.921 37.874 16.656 C 35.402 17.391 33.114 18.232 30.996 19.192 C 28.955807 20.106629 26.996797 21.192514 25.14 22.438 C 24.998 22.534 24.89 22.661 24.75 22.759 L 94.647 92.646 C 117.002 70.295 128.172 41.12 128.159 11.95 Z " id="Path" fill="rgb(253,201,43)"/><path d=" M 24.75 22.759 C 23.125 23.892 21.598 25.108 20.228 26.475 C 18.727734 27.976734 17.37457 29.618546 16.187 31.378 C 14.938928 33.232167 13.85036 35.188846 12.933 37.227 C 11.973 39.342 11.131 41.628 10.395 44.097 C 9.659 46.565 9.029 49.217 8.492 52.065 C 7.954 54.913 7.51 57.957 7.146 61.21 C 6.765988 64.66812 6.477221 68.135658 6.28 71.609 C 5.846 78.977 5.68 87.233 5.68 96.48 L 5.68 125.755 C 37.544 128.082 70.18 117.11 94.647 92.646 L 24.75 22.759 L 24.75 22.759 Z " id="Path" fill="rgb(243,79,23)"/></g></g><g opacity="0.1"><path d=" M 128.161 11.987 C 191.215 11.987 242.331 63.095 242.331 126.139 C 242.331 189.183 191.215 240.29 128.161 240.29 C 65.106 240.29 13.991 189.183 13.991 126.139 C 13.991 63.095 65.106 11.987 128.161 11.987 Z " id="Path" fill="rgb(255,255,255)"/></g><g opacity="0.1"><path d=" M 128.005 44.565 C 173.044 44.565 209.555 81.07 209.555 126.101 C 209.555 171.133 173.044 207.638 128.005 207.638 C 82.966 207.638 46.455 171.133 46.455 126.101 C 46.455 81.07 82.966 44.565 128.005 44.565 Z " id="Path" fill="rgb(255,255,255)"/></g><g opacity="0.1"><ellipse vector-effect="non-scaling-stroke" cx="128.005" cy="126.101" rx="47.40100000000001" ry="47.393" id="Ellipse" fill="rgb(255,255,255)"/></g><linearGradient id="_lgradient_89" x1="0.02195759772203837" y1="0.0630033253545983" x2="0.8713173930917588" y2="0.8285250210638536" gradientTransform="matrix(132.253904,0,0,132.000004,63.001,60.999498)" gradientUnits="userSpaceOnUse"><stop offset="0%" stop-opacity="1" style="stop-color:rgb(235,235,235)"/><stop offset="100%" stop-opacity="1" style="stop-color:rgb(160,175,190)"/></linearGradient><path d=" M 128.998 61 L 128.998 61.002 C 128.282 61.017 127.566 61.044 126.85 61.082 C 126.727 61.068 126.621 61.007 126.494 61.007 L 65.711 61.007 C 65.012196 61.005402 64.341554 61.282294 63.847424 61.776424 C 63.353294 62.270554 63.076402 62.941196 63.078 63.64 L 63.078 125.454 C 63.046 125.969 63.021 126.484 63.001 127 C 63 163.449 92.548 192.998 128.998 192.999 C 152.638549 193.091021 174.522797 180.531751 186.369715 160.073634 C 198.216634 139.615517 198.216634 114.383483 186.369715 93.925366 C 174.522797 73.467249 152.638549 60.907979 128.998 61 L 128.998 61 Z  M 128.998 93.065 C 137.998977 93.063939 146.631603 96.639093 152.996255 103.003745 C 159.360907 109.368397 162.936061 118.001023 162.935 127.002 C 162.932791 145.743487 147.739487 160.935448 128.998 160.936 C 110.258 160.934 95.067 145.742 95.066 127.002 C 95.065 108.261 110.257 93.067 128.998 93.065 L 128.998 93.065 Z " id="Compound Path" fill="url(#_lgradient_89)"/><path d=" M 129.001 93.069 C 110.26 93.071 95.069 108.262 95.068 127.003 C 95.073 127.525 95.09 128.047 95.119 128.569 C 95.699 110.269 110.692 95.728 129.001 95.709 C 147.125 95.719 162.042 109.969 162.881 128.074 C 162.903 127.717 162.921 127.36 162.932 127.003 C 162.931 108.262 147.74 93.071 128.999 93.069 L 129.001 93.069 L 129.001 93.069 Z " id="Path" fill="rgb(0,0,0)" fill-opacity="0.215"/><path d=" M 129.001 163.595 C 110.26 163.594 95.069 148.402 95.068 129.662 C 95.073 129.139 95.09 128.617 95.119 128.095 C 95.699 146.395 110.692 160.936 129.001 160.955 C 147.125 160.945 162.042 146.695 162.881 128.59 C 162.903 128.947 162.921 129.304 162.932 129.662 C 162.931 148.401 147.741 163.593 129.001 163.595 L 129.001 163.595 Z " id="Path" fill="rgb(255,255,255)" fill-opacity="0.597"/><path d=" M 126.998 115.21 L 126.998 125.11 L 117.098 125.11 L 117.098 129.07 L 126.998 129.07 L 126.998 138.97 L 130.958 138.97 L 130.958 129.07 L 140.858 129.07 L 140.858 125.11 L 130.958 125.11 L 130.958 115.21 L 126.998 115.21 L 126.998 115.21 Z " id="Path" fill="rgb(255,255,255)" fill-opacity="0.293"/><g opacity="0.4"><linearGradient id="_lgradient_90" x1="0.5166666666666668" y1="0" x2="0.5166666666666666" y2="1.0000000000000002" gradientTransform="matrix(244.65,0,0,228.34,5.68,11.95)" gradientUnits="userSpaceOnUse"><stop offset="0%" stop-opacity="1" style="stop-color:rgb(255,255,255)"/><stop offset="12.5%" stop-opacity="0.09803922" style="stop-color:rgb(255,255,255)"/><stop offset="92.500001%" stop-opacity="0.09803922" style="stop-color:rgb(0,0,0)"/><stop offset="100%" stop-opacity="0.49803922" style="stop-color:rgb(0,0,0)"/></linearGradient><path d=" M 165.06803 11.951234 C 169.395994 11.941409 173.723944 11.990533 178.051908 12.088781 C 181.927398 12.167379 185.802873 12.31475 189.678362 12.540721 C 193.1309 12.737216 196.583423 13.022134 200.026115 13.395476 C 203.085193 13.729518 206.144271 14.181458 209.173842 14.741469 C 211.888645 15.242533 214.57394 15.881143 217.219897 16.6573 C 219.619947 17.354858 221.970814 18.219439 224.242988 19.241215 C 226.357793 20.184394 228.384061 21.304417 230.302129 22.591462 C 232.141505 23.829383 233.862851 25.244151 235.436659 26.80629 C 237.000621 28.378252 238.417046 30.087764 239.656409 31.924995 C 240.944972 33.840824 242.066305 35.864728 243.020409 37.967229 C 244.043389 40.246576 244.908985 42.584873 245.617197 44.972292 C 246.394255 47.615155 247.033606 50.297317 247.535265 53.008956 C 248.095924 56.034984 248.548399 59.080665 248.882828 62.13617 C 249.256611 65.574836 249.541856 69.013506 249.738578 72.462003 C 249.964823 76.323139 250.112361 80.194101 250.200884 84.055237 C 250.289421 88.378131 250.338591 92.701032 250.32876 97.014106 L 250.32876 155.225886 C 250.338591 159.54878 250.289421 163.861854 250.200884 168.184747 C 250.112361 172.05571 249.964823 175.916853 249.738578 179.777981 C 249.541856 183.226485 249.256611 186.674975 248.882828 190.103826 C 248.548399 193.15933 248.095924 196.214835 247.535265 199.240851 C 247.033606 201.942664 246.394255 204.624837 245.617197 207.267703 C 244.908985 209.655115 244.043389 212.003235 243.020409 214.272755 C 242.066305 216.38509 240.944972 218.399156 239.656409 220.314999 C 238.417046 222.152226 237.000621 223.871561 235.436659 225.433697 C 233.862851 226.995832 232.141505 228.410601 230.302129 229.648532 C 228.384061 230.935575 226.357793 232.055598 224.242988 232.998768 C 221.970814 234.020552 219.619947 234.885137 217.219897 235.592507 C 214.57394 236.368672 211.888645 237.007276 209.173842 237.498515 C 206.144271 238.068354 203.085193 238.510465 200.026115 238.844519 C 196.583423 239.21785 193.1309 239.502777 189.678362 239.699269 C 185.802873 239.925235 181.927398 240.072615 178.051908 240.161035 C 173.723944 240.249454 169.395994 240.298581 165.06803 240.288762 L 90.941963 240.288762 C 86.614006 240.298581 82.286049 240.249454 77.9581 240.161035 C 74.08261 240.072615 70.20712 239.925235 66.331638 239.699269 C 62.879108 239.502777 59.426578 239.21785 55.983886 238.844519 C 52.924808 238.510465 49.865733 238.068354 46.836162 237.498515 C 44.121356 237.007276 41.436057 236.368672 38.7901 235.592507 C 36.390053 234.885137 34.039187 234.020552 31.767009 232.998768 C 29.652213 232.055598 27.625943 230.935575 25.707871 229.648532 C 23.868489 228.410601 22.147143 226.995832 20.573343 225.433697 C 19.009377 223.871561 17.592955 222.152226 16.353586 220.314999 C 15.065036 218.399156 13.943701 216.38509 12.989584 214.272755 C 11.966612 212.003235 11.101021 209.655115 10.392811 207.267703 C 9.615746 204.624837 8.976389 201.942664 8.47474 199.240851 C 7.914072 196.214835 7.461604 193.15933 7.127172 190.103826 C 6.753394 186.674975 6.468142 183.226485 6.271417 179.777981 C 6.045183 175.916853 5.897639 172.05571 5.809112 168.184747 C 5.720586 163.861854 5.671405 159.54878 5.681241 155.225886 L 5.681241 97.014106 C 5.671405 92.701032 5.720586 88.378131 5.809112 84.055237 C 5.897639 80.194101 6.045183 76.323139 6.271417 72.462003 C 6.468142 69.013506 6.753394 65.574836 7.127172 62.13617 C 7.461604 59.080665 7.914072 56.034984 8.47474 53.008956 C 8.976389 50.297317 9.615746 47.615155 10.392811 44.972292 C 11.101021 42.584873 11.966612 40.246576 12.989584 37.967229 C 13.943701 35.864728 15.065036 33.840824 16.353586 31.924995 C 17.592955 30.087764 19.009377 28.378252 20.573343 26.80629 C 22.147143 25.244151 23.868489 23.829383 25.707871 22.591462 C 27.625943 21.304417 29.652213 20.184394 31.767009 19.241215 C 34.039187 18.219439 36.390053 17.354858 38.7901 16.6573 C 41.436057 15.881143 44.121356 15.242533 46.836162 14.741469 C 49.865733 14.181458 52.924808 13.729518 55.983886 13.395476 C 59.426578 13.022134 62.879108 12.737216 66.331638 12.540721 C 70.20712 12.31475 74.08261 12.167379 77.9581 12.088781 C 82.286049 11.990533 86.614006 11.941409 90.941963 11.951234 L 165.06803 11.951234 Z  M 165.077876 15.959741 C 169.376317 15.949916 173.674759 15.99904 177.973216 16.087463 C 181.799522 16.175886 185.625827 16.323257 189.452133 16.539402 C 192.835809 16.735898 196.219486 17.010992 199.583486 17.384332 C 202.554026 17.698726 205.514751 18.131016 208.445953 18.681203 C 211.023049 19.152792 213.580483 19.761928 216.098564 20.498786 C 218.321569 21.147221 220.495374 21.952852 222.600334 22.896029 C 224.508571 23.750785 226.338116 24.762737 228.069293 25.922059 C 229.692286 27.012609 231.207063 28.260355 232.59398 29.645648 C 233.980897 31.030941 235.230091 32.543956 236.331763 34.165043 C 237.492434 35.894202 238.505568 37.711787 239.361333 39.607968 C 240.305606 41.720292 241.112187 43.891565 241.761369 46.102139 C 242.508934 48.617282 243.108947 51.161898 243.590914 53.735987 C 244.131912 56.663768 244.564709 59.6112 244.889308 62.578282 C 245.263091 65.938355 245.538505 69.308252 245.735227 72.687976 C 245.951626 76.509812 246.10901 80.321821 246.187687 84.143656 C 246.276225 88.437084 246.325394 92.720685 246.325394 97.014106 C 246.325394 97.014106 246.325394 97.014106 246.325394 97.014106 L 246.325394 155.225886 C 246.325394 155.225886 246.325394 155.225886 246.325394 155.225886 C 246.325394 159.519306 246.276225 163.802907 246.187687 168.096328 C 246.10901 171.918164 245.951626 175.739999 245.735227 179.552015 C 245.538505 182.931739 245.263091 186.301629 244.889308 189.671533 C 244.564709 192.628784 244.131912 195.576216 243.590914 198.503994 C 243.108947 201.078094 242.508934 203.622706 241.761369 206.137845 C 241.112187 208.358253 240.305606 210.5197 239.361333 212.63202 C 238.505568 214.528209 237.492434 216.355617 236.331763 218.074952 C 235.230091 219.705853 233.980897 221.218876 232.59398 222.604172 C 231.207063 223.979634 229.692286 225.227385 228.069293 226.317935 C 226.338116 227.477251 224.508571 228.489201 222.600334 229.343951 C 220.495374 230.296956 218.321569 231.092775 216.098564 231.741198 C 213.580483 232.478056 211.023049 233.087202 208.445953 233.558787 C 205.514751 234.108972 202.554026 234.541264 199.583486 234.865483 C 196.219486 235.228995 192.835809 235.513922 189.452133 235.70058 C 185.625827 235.916726 181.799522 236.073926 177.973216 236.152526 C 173.674759 236.25078 169.376317 236.290072 165.077876 236.290072 C 165.077876 236.290072 165.077876 236.290072 165.06803 236.290072 L 90.941963 236.290072 C 90.932125 236.290072 90.932125 236.290072 90.932125 236.290072 C 86.633683 236.290072 82.335234 236.25078 78.036784 236.152526 C 74.210479 236.073926 70.384173 235.916726 66.557868 235.70058 C 63.174195 235.513922 59.790522 235.228995 56.426518 234.865483 C 53.455967 234.541264 50.495253 234.108972 47.564048 233.558787 C 44.986944 233.087202 42.429517 232.478056 39.911433 231.741198 C 37.688439 231.092775 35.514626 230.296956 33.409665 229.343951 C 31.501429 228.489201 29.671886 227.477251 27.940703 226.317935 C 26.31772 225.227385 24.802935 223.979634 23.416022 222.604172 C 22.029109 221.218876 20.779904 219.705853 19.678243 218.074952 C 18.517564 216.355617 17.504428 214.528209 16.648674 212.63202 C 15.704392 210.5197 14.897819 208.358253 14.248626 206.137845 C 13.50107 203.622706 12.901057 201.078094 12.419081 198.503994 C 11.878086 195.576216 11.445291 192.628784 11.120694 189.671533 C 10.746916 186.301629 10.471501 182.931739 10.274776 179.552015 C 10.058378 175.739999 9.900997 171.918164 9.822307 168.096328 C 9.733781 163.802907 9.6846 159.519306 9.6846 155.225886 C 9.6846 155.225886 9.6846 155.225886 9.6846 155.225886 L 9.6846 97.014106 C 9.6846 97.014106 9.6846 97.014106 9.6846 97.014106 C 9.6846 92.720685 9.733781 88.437084 9.822307 84.143656 C 9.900997 80.321821 10.058378 76.509812 10.274776 72.687976 C 10.471501 69.308252 10.746916 65.938355 11.120694 62.578282 C 11.445291 59.6112 11.878086 56.663768 12.419081 53.735987 C 12.901057 51.161898 13.50107 48.617282 14.248626 46.102139 C 14.897819 43.891565 15.704392 41.720292 16.648674 39.607968 C 17.504428 37.711787 18.517564 35.894202 19.678243 34.165043 C 20.779904 32.543956 22.029109 31.030941 23.416022 29.645648 C 24.802935 28.260355 26.31772 27.012609 27.940703 25.922059 C 29.671886 24.762737 31.501429 23.750785 33.409665 22.896029 C 35.514626 21.952852 37.688439 21.147221 39.911433 20.498786 C 42.429517 19.761928 44.986944 19.152792 47.564048 18.681203 C 50.495253 18.131016 53.455967 17.698726 56.426518 17.384332 C 59.790522 17.010992 63.174195 16.735898 66.557868 16.539402 C 70.384173 16.323257 74.210479 16.175886 78.036784 16.087463 C 82.335234 15.99904 86.633683 15.949916 90.932125 15.959741 C 90.932125 15.959741 90.932125 15.959741 90.941963 15.959741 L 165.06803 15.959741 C 165.077876 15.959741 165.077876 15.959741 165.077876 15.959741 Z " fill-rule="evenodd" id="highlight" fill="url(#_lgradient_90)"/></g></svg>