<?xml version="1.0" encoding="UTF-8" standalone="no"?>
<!-- Generator: Gravit.io -->

<svg
   xmlns:dc="http://purl.org/dc/elements/1.1/"
   xmlns:cc="http://creativecommons.org/ns#"
   xmlns:rdf="http://www.w3.org/1999/02/22-rdf-syntax-ns#"
   xmlns:svg="http://www.w3.org/2000/svg"
   xmlns="http://www.w3.org/2000/svg"
   xmlns:xlink="http://www.w3.org/1999/xlink"
   xmlns:sodipodi="http://sodipodi.sourceforge.net/DTD/sodipodi-0.dtd"
   xmlns:inkscape="http://www.inkscape.org/namespaces/inkscape"
   style="isolation:isolate"
   viewBox="0 0 256 256"
   width="256"
   height="256"
   version="1.1"
   id="svg35"
   sodipodi:docname="geary.svg"
   inkscape:version="0.92.2 2405546, 2018-03-11">
  <metadata
     id="metadata39">
    <rdf:RDF>
      <cc:Work
         rdf:about="">
        <dc:format>image/svg+xml</dc:format>
        <dc:type
           rdf:resource="http://purl.org/dc/dcmitype/StillImage" />
        <dc:title></dc:title>
      </cc:Work>
    </rdf:RDF>
  </metadata>
  <sodipodi:namedview
     pagecolor="#ffffff"
     bordercolor="#666666"
     borderopacity="1"
     objecttolerance="10"
     gridtolerance="10"
     guidetolerance="10"
     inkscape:pageopacity="0"
     inkscape:pageshadow="2"
     inkscape:window-width="640"
     inkscape:window-height="480"
     id="namedview37"
     showgrid="false"
     inkscape:zoom="1.5703125"
     inkscape:cx="167.78442"
     inkscape:cy="134.09974"
     inkscape:current-layer="svg35" />
  <defs
     id="defs13">
    <linearGradient
       inkscape:collect="always"
       id="linearGradient938">
      <stop
         style="stop-color:#57ceff;stop-opacity:1"
         offset="0"
         id="stop934" />
      <stop
         style="stop-color:#187bf1;stop-opacity:0.99607843"
         offset="1"
         id="stop936" />
    </linearGradient>
    <linearGradient
       inkscape:collect="always"
       id="linearGradient930">
      <stop
         style="stop-color:#1b7ff1;stop-opacity:1"
         offset="0"
         id="stop926" />
      <stop
         style="stop-color:#58d0ff;stop-opacity:0.99607843"
         offset="1"
         id="stop928" />
    </linearGradient>
    <filter
       id="Tzcz4vEdmITS7wQ3AsSx9hYNK6Mdtix6"
       x="-200%"
       y="-200%"
       width="400%"
       height="400%"
       filterUnits="objectBoundingBox"
       color-interpolation-filters="sRGB">
      <feGaussianBlur
         in="SourceGraphic"
         stdDeviation="4.293609062839028"
         id="feGaussianBlur2" />
      <feOffset
         dx="0"
         dy="4"
         result="pf_100_offsetBlur"
         id="feOffset4" />
      <feFlood
         flood-color="#000000"
         flood-opacity="0.4"
         id="feFlood6" />
      <feComposite
         in2="pf_100_offsetBlur"
         operator="in"
         result="pf_100_dropShadow"
         id="feComposite8" />
      <feBlend
         in="SourceGraphic"
         in2="pf_100_dropShadow"
         mode="normal"
         id="feBlend10" />
    </filter>
    <linearGradient
       id="_lgradient_0-2"
       x1="0.5"
       y1="1"
       x2="0.5"
       y2="0"
       gradientTransform="matrix(244.64831,0,0,228.3384,1.3527226,283.64321)"
       gradientUnits="userSpaceOnUse">
      <stop
         offset="0%"
         stop-opacity="1"
         style="stop-color:rgb(77,77,77)"
         id="stop15-9" />
      <stop
         offset="100%"
         stop-opacity="1"
         style="stop-color:rgb(51,51,51)"
         id="stop17-1" />
    </linearGradient>
    <linearGradient
       id="_lgradient_0-2-7"
       x1="0.5"
       y1="1"
       x2="0.5"
       y2="0"
       gradientTransform="matrix(244.64831,0,0,228.3384,1.3527226,283.64321)"
       gradientUnits="userSpaceOnUse">
      <stop
         offset="0%"
         stop-opacity="1"
         style="stop-color:rgb(77,77,77)"
         id="stop15-9-0" />
      <stop
         offset="100%"
         stop-opacity="1"
         style="stop-color:rgb(51,51,51)"
         id="stop17-1-9" />
    </linearGradient>
    <linearGradient
       id="_lgradient_0-2-6"
       x1="0.5"
       y1="1"
       x2="0.5"
       y2="0"
       gradientTransform="matrix(244.64831,0,0,228.3384,1.3527226,283.64321)"
       gradientUnits="userSpaceOnUse">
      <stop
         offset="0%"
         stop-opacity="1"
         style="stop-color:rgb(77,77,77)"
         id="stop15-9-06" />
      <stop
         offset="100%"
         stop-opacity="1"
         style="stop-color:rgb(51,51,51)"
         id="stop17-1-2" />
    </linearGradient>
    <linearGradient
       id="_lgradient_0-2-1"
       x1="0.5"
       y1="1"
       x2="0.5"
       y2="0"
       gradientTransform="matrix(244.64831,0,0,228.3384,1.3527226,283.64321)"
       gradientUnits="userSpaceOnUse">
      <stop
         offset="0%"
         stop-opacity="1"
         style="stop-color:rgb(77,77,77)"
         id="stop15-9-8" />
      <stop
         offset="100%"
         stop-opacity="1"
         style="stop-color:rgb(51,51,51)"
         id="stop17-1-7" />
    </linearGradient>
    <linearGradient
       id="_lgradient_0-2-2"
       x1="0.5"
       y1="1"
       x2="0.5"
       y2="0"
       gradientTransform="matrix(244.64831,0,0,228.3384,1.3527226,283.64321)"
       gradientUnits="userSpaceOnUse">
      <stop
         offset="0%"
         stop-opacity="1"
         style="stop-color:rgb(77,77,77)"
         id="stop15-9-02" />
      <stop
         offset="100%"
         stop-opacity="1"
         style="stop-color:rgb(51,51,51)"
         id="stop17-1-3" />
    </linearGradient>
    <linearGradient
       id="_lgradient_0-2-5"
       x1="0.5"
       y1="1"
       x2="0.5"
       y2="0"
       gradientTransform="matrix(244.64831,0,0,228.3384,1.3527226,283.64321)"
       gradientUnits="userSpaceOnUse">
      <stop
         offset="0%"
         stop-opacity="1"
         style="stop-color:rgb(77,77,77)"
         id="stop15-9-9" />
      <stop
         offset="100%"
         stop-opacity="1"
         style="stop-color:rgb(51,51,51)"
         id="stop17-1-22" />
    </linearGradient>
    <linearGradient
       id="_lgradient_0-2-9"
       x1="0.5"
       y1="1"
       x2="0.5"
       y2="0"
       gradientTransform="matrix(244.64831,0,0,228.3384,1.3527226,283.64321)"
       gradientUnits="userSpaceOnUse">
      <stop
         offset="0%"
         stop-opacity="1"
         style="stop-color:rgb(77,77,77)"
         id="stop15-9-7" />
      <stop
         offset="100%"
         stop-opacity="1"
         style="stop-color:rgb(51,51,51)"
         id="stop17-1-36" />
    </linearGradient>
    <linearGradient
       id="_lgradient_0-2-29"
       x1="0.5"
       y1="1"
       x2="0.5"
       y2="0"
       gradientTransform="matrix(244.64831,0,0,228.3384,1.3527226,283.64321)"
       gradientUnits="userSpaceOnUse">
      <stop
         offset="0%"
         stop-opacity="1"
         style="stop-color:rgb(77,77,77)"
         id="stop15-9-3" />
      <stop
         offset="100%"
         stop-opacity="1"
         style="stop-color:rgb(51,51,51)"
         id="stop17-1-1" />
    </linearGradient>
    <linearGradient
       id="_lgradient_0-5"
       x1="0.5"
       y1="1"
       x2="0.5"
       y2="0"
       gradientTransform="matrix(244.64831,0,0,228.3384,342.3822,39.613412)"
       gradientUnits="userSpaceOnUse">
      <stop
         offset="0%"
         stop-opacity="1"
         style="stop-color:rgb(77,77,77)"
         id="stop15-3" />
      <stop
         offset="100%"
         stop-opacity="1"
         style="stop-color:rgb(51,51,51)"
         id="stop17-5" />
    </linearGradient>
    <linearGradient
       id="_lgradient_0-5-2"
       x1="0.5"
       y1="1"
       x2="0.5"
       y2="0"
       gradientTransform="matrix(244.64831,0,0,228.3384,342.3822,39.61341)"
       gradientUnits="userSpaceOnUse">
      <stop
         offset="0%"
         stop-opacity="1"
         style="stop-color:rgb(77,77,77)"
         id="stop15-3-9" />
      <stop
         offset="100%"
         stop-opacity="1"
         style="stop-color:rgb(51,51,51)"
         id="stop17-5-1" />
    </linearGradient>
    <linearGradient
       id="_lgradient_0-5-7"
       x1="0.5"
       y1="1"
       x2="0.5"
       y2="0"
       gradientTransform="matrix(244.64831,0,0,228.3384,342.3822,39.61341)"
       gradientUnits="userSpaceOnUse">
      <stop
         offset="0%"
         stop-opacity="1"
         style="stop-color:rgb(77,77,77)"
         id="stop15-3-0" />
      <stop
         offset="100%"
         stop-opacity="1"
         style="stop-color:rgb(51,51,51)"
         id="stop17-5-9" />
    </linearGradient>
    <linearGradient
       id="_lgradient_0-5-6"
       x1="0.5"
       y1="1"
       x2="0.5"
       y2="0"
       gradientTransform="matrix(244.64831,0,0,228.3384,342.3822,39.61341)"
       gradientUnits="userSpaceOnUse">
      <stop
         offset="0%"
         stop-opacity="1"
         style="stop-color:rgb(77,77,77)"
         id="stop15-3-06" />
      <stop
         offset="100%"
         stop-opacity="1"
         style="stop-color:rgb(51,51,51)"
         id="stop17-5-2" />
    </linearGradient>
    <linearGradient
       id="_lgradient_0-5-1"
       x1="0.5"
       y1="1"
       x2="0.5"
       y2="0"
       gradientTransform="matrix(244.64831,0,0,228.3384,342.3822,39.61341)"
       gradientUnits="userSpaceOnUse">
      <stop
         offset="0%"
         stop-opacity="1"
         style="stop-color:rgb(77,77,77)"
         id="stop15-3-8" />
      <stop
         offset="100%"
         stop-opacity="1"
         style="stop-color:rgb(51,51,51)"
         id="stop17-5-7" />
    </linearGradient>
    <filter
       style="color-interpolation-filters:sRGB"
       inkscape:label="Drop Shadow"
       id="filter890">
      <feFlood
         flood-opacity="0.498039"
         flood-color="rgb(0,0,0)"
         result="flood"
         id="feFlood880" />
      <feComposite
         in="flood"
         in2="SourceGraphic"
         operator="in"
         result="composite1"
         id="feComposite882" />
      <feGaussianBlur
         in="composite1"
         stdDeviation="5.2"
         result="blur"
         id="feGaussianBlur884" />
      <feOffset
         dx="2.8"
         dy="3"
         result="offset"
         id="feOffset886" />
      <feComposite
         in="SourceGraphic"
         in2="offset"
         operator="over"
         result="composite2"
         id="feComposite888" />
    </filter>
    <linearGradient
       inkscape:collect="always"
       xlink:href="#linearGradient930"
       id="linearGradient932"
       x1="-214.56389"
       y1="216.89354"
       x2="-214.56389"
       y2="119.5315"
       gradientUnits="userSpaceOnUse"
       gradientTransform="matrix(1.2296971,0,0,1.0492516,334.36506,15.258405)" />
    <linearGradient
       inkscape:collect="always"
       xlink:href="#linearGradient938"
       id="linearGradient940"
       x1="-178.05426"
       y1="30.728302"
       x2="-87.002068"
       y2="176.62448"
       gradientUnits="userSpaceOnUse"
       gradientTransform="matrix(1.2296971,0,0,1.0492516,334.36506,15.258405)" />
  </defs>
  <g
     id="g21"
     style="filter:url(#Tzcz4vEdmITS7wQ3AsSx9hYNK6Mdtix6)">
    <linearGradient
       id="_lgradient_0"
       x1="0.5"
       y1="1"
       x2="0.5"
       y2="0"
       gradientTransform="matrix(244.64831,0,0,228.3384,5.68,11.95)"
       gradientUnits="userSpaceOnUse">
      <stop
         offset="0%"
         stop-opacity="1"
         style="stop-color:rgb(77,77,77)"
         id="stop15" />
      <stop
         offset="100%"
         stop-opacity="1"
         style="stop-color:rgb(51,51,51)"
         id="stop17" />
    </linearGradient>
    <path
       d="m 165.68892,11.95 c 74.05571,0 84.63939,10.557198 84.63939,84.54386 v 59.25079 c 0,73.98626 -10.58368,84.54375 -84.63939,84.54375 H 90.319393 C 16.26369,240.2884 5.68,229.73091 5.68,155.74465 V 96.49386 C 5.68,22.507198 16.26369,11.95 90.319393,11.95 Z"
       id="shape"
       style="fill:#43b5fb;fill-opacity:1"
       inkscape:connector-curvature="0" />
  </g>
  <g
     id="g33"
     style="opacity:0.4">
    <linearGradient
       id="_lgradient_1"
       x1="0.51666665"
       y1="0"
       x2="0.51666665"
       y2="1"
       gradientTransform="matrix(244.65,0,0,228.34,5.68,11.95)"
       gradientUnits="userSpaceOnUse">
      <stop
         offset="0%"
         stop-opacity="1"
         style="stop-color:rgb(255,255,255)"
         id="stop23" />
      <stop
         offset="12.5%"
         stop-opacity="0.09803922"
         style="stop-color:rgb(255,255,255)"
         id="stop25" />
      <stop
         offset="92.500001%"
         stop-opacity="0.09803922"
         style="stop-color:rgb(0,0,0)"
         id="stop27" />
      <stop
         offset="100%"
         stop-opacity="0.49803922"
         style="stop-color:rgb(0,0,0)"
         id="stop29" />
    </linearGradient>
    <path
       d="m 165.06803,11.951234 c 4.32796,-0.0098 8.65591,0.0393 12.98388,0.137547 3.87549,0.0786 7.75096,0.225969 11.62645,0.45194 3.45254,0.196495 6.90506,0.481413 10.34775,0.854755 3.05908,0.334042 6.11816,0.785982 9.14773,1.345993 2.7148,0.501064 5.4001,1.139674 8.04606,1.915831 2.40005,0.697558 4.75091,1.562139 7.02309,2.583915 2.1148,0.943179 4.14107,2.063202 6.05914,3.350247 1.83937,1.237921 3.56072,2.652689 5.13453,4.214828 1.56396,1.571962 2.98039,3.281474 4.21975,5.118705 1.28856,1.915829 2.40989,3.939733 3.364,6.042234 1.02298,2.279347 1.88857,4.617644 2.59679,7.005063 0.77705,2.642863 1.41641,5.325025 1.91806,8.036664 0.56066,3.026028 1.01314,6.071709 1.34757,9.127214 0.37378,3.438666 0.65903,6.877336 0.85575,10.325833 0.22624,3.861136 0.37378,7.732098 0.4623,11.593234 0.0885,4.322894 0.13771,8.645795 0.12788,12.958869 v 58.211784 c 0.01,4.32289 -0.0393,8.63596 -0.12788,12.95886 -0.0885,3.87096 -0.23606,7.7321 -0.4623,11.59323 -0.19672,3.4485 -0.48197,6.89699 -0.85575,10.32585 -0.33443,3.0555 -0.78691,6.111 -1.34757,9.13702 -0.50165,2.70181 -1.14101,5.38399 -1.91806,8.02685 -0.70822,2.38741 -1.57381,4.73553 -2.59679,7.00505 -0.95411,2.11234 -2.07544,4.12641 -3.364,6.04225 -1.23936,1.83723 -2.65579,3.55656 -4.21975,5.1187 -1.57381,1.56213 -3.29516,2.9769 -5.13453,4.21483 -1.91807,1.28704 -3.94434,2.40707 -6.05914,3.35024 -2.27218,1.02178 -4.62304,1.88637 -7.02309,2.59374 -2.64596,0.77616 -5.33126,1.41477 -8.04606,1.906 -3.02957,0.56984 -6.08865,1.01195 -9.14773,1.34601 -3.44269,0.37333 -6.89521,0.65826 -10.34775,0.85475 -3.87549,0.22596 -7.75096,0.37335 -11.62645,0.46176 -4.32797,0.0884 -8.65592,0.13755 -12.98388,0.12773 H 90.941963 c -4.327957,0.01 -8.655914,-0.0393 -12.983863,-0.12773 -3.87549,-0.0884 -7.75098,-0.2358 -11.626462,-0.46176 -3.45253,-0.19649 -6.90506,-0.48142 -10.347752,-0.85475 -3.059078,-0.33406 -6.118153,-0.77617 -9.147724,-1.34601 -2.714806,-0.49123 -5.400105,-1.12984 -8.046062,-1.906 -2.400047,-0.70737 -4.750913,-1.57196 -7.023091,-2.59374 -2.114796,-0.94317 -4.141066,-2.0632 -6.059138,-3.35024 -1.839382,-1.23793 -3.560728,-2.6527 -5.134528,-4.21483 -1.563966,-1.56214 -2.980388,-3.28147 -4.219757,-5.1187 -1.28855,-1.91584 -2.409885,-3.92991 -3.364002,-6.04225 -1.022972,-2.26952 -1.888563,-4.61764 -2.596773,-7.00505 C 9.615746,204.62484 8.976389,201.94266 8.47474,199.24085 7.914072,196.21483 7.461604,193.15933 7.127172,190.10383 6.753394,186.67497 6.468142,183.22648 6.271417,179.77798 6.045183,175.91685 5.897639,172.05571 5.809112,168.18475 5.720586,163.86185 5.671405,159.54878 5.681241,155.22589 V 97.014106 C 5.671405,92.701032 5.720586,88.378131 5.809112,84.055237 5.897639,80.194101 6.045183,76.323139 6.271417,72.462003 6.468142,69.013506 6.753394,65.574836 7.127172,62.13617 c 0.334432,-3.055505 0.7869,-6.101186 1.347568,-9.127214 0.501649,-2.711639 1.141006,-5.393801 1.918071,-8.036664 0.70821,-2.387419 1.573801,-4.725716 2.596773,-7.005063 0.954117,-2.102501 2.075452,-4.126405 3.364002,-6.042234 1.239369,-1.837231 2.655791,-3.546743 4.219757,-5.118705 1.5738,-1.562139 3.295146,-2.976907 5.134528,-4.214828 1.918072,-1.287045 3.944342,-2.407068 6.059138,-3.350247 2.272178,-1.021776 4.623044,-1.886357 7.023091,-2.583915 2.645957,-0.776157 5.331256,-1.414767 8.046062,-1.915831 3.029571,-0.560011 6.088646,-1.011951 9.147724,-1.345993 3.442692,-0.373342 6.895222,-0.65826 10.347752,-0.854755 3.875482,-0.225971 7.750972,-0.373342 11.626462,-0.45194 4.327949,-0.09825 8.655906,-0.147372 12.983863,-0.137547 z m 0.01,4.008507 c 4.29844,-0.0098 8.59688,0.0393 12.89534,0.127722 3.8263,0.08842 7.65261,0.235794 11.47891,0.451939 3.38368,0.196496 6.76736,0.47159 10.13136,0.84493 2.97054,0.314394 5.93126,0.746684 8.86246,1.296871 2.5771,0.471589 5.13453,1.080725 7.65261,1.817583 2.22301,0.648435 4.39681,1.454066 6.50177,2.397243 1.90824,0.854756 3.73779,1.866708 5.46896,3.02603 1.623,1.09055 3.13777,2.338296 4.52469,3.723589 1.38692,1.385293 2.63611,2.898308 3.73778,4.519395 1.16067,1.729159 2.17381,3.546744 3.02957,5.442925 0.94428,2.112324 1.75086,4.283597 2.40004,6.494171 0.74756,2.515143 1.34758,5.059759 1.82954,7.633848 0.541,2.927781 0.9738,5.875213 1.2984,8.842295 0.37378,3.360073 0.64919,6.72997 0.84592,10.109694 0.2164,3.821836 0.37378,7.633845 0.45246,11.45568 0.0885,4.293428 0.1377,8.577029 0.1377,12.87045 0,0 0,0 0,0 v 58.211784 c 0,0 0,0 0,0 0,4.29342 -0.0492,8.57702 -0.1377,12.87044 -0.0787,3.82183 -0.23606,7.64367 -0.45246,11.45568 -0.19673,3.37973 -0.47214,6.74962 -0.84592,10.11952 -0.3246,2.95725 -0.7574,5.90469 -1.2984,8.83246 -0.48196,2.5741 -1.08198,5.11872 -1.82954,7.63385 -0.64918,2.22041 -1.45576,4.38186 -2.40004,6.49418 -0.85576,1.89619 -1.8689,3.7236 -3.02957,5.44293 -1.10167,1.6309 -2.35086,3.14393 -3.73778,4.52922 -1.38692,1.37546 -2.90169,2.62321 -4.52469,3.71376 -1.73117,1.15932 -3.56072,2.17127 -5.46896,3.02602 -2.10496,0.95301 -4.27876,1.74882 -6.50177,2.39725 -2.51808,0.73686 -5.07551,1.346 -7.65261,1.81759 -2.9312,0.55018 -5.89192,0.98247 -8.86246,1.30669 -3.364,0.36351 -6.74768,0.64844 -10.13136,0.8351 -3.8263,0.21615 -7.65261,0.37335 -11.47891,0.45195 -4.29846,0.0982 -8.5969,0.13754 -12.89534,0.13754 0,0 0,0 -0.01,0 H 90.941963 c -0.0098,0 -0.0098,0 -0.0098,0 -4.298442,0 -8.596891,-0.0393 -12.895341,-0.13754 -3.826305,-0.0786 -7.652611,-0.2358 -11.478916,-0.45195 -3.383673,-0.18666 -6.767346,-0.47159 -10.13135,-0.8351 -2.970551,-0.32422 -5.931265,-0.75651 -8.86247,-1.30669 -2.577104,-0.47159 -5.134531,-1.08073 -7.652615,-1.81759 -2.222994,-0.64843 -4.396807,-1.44424 -6.501768,-2.39725 -1.908236,-0.85475 -3.737779,-1.8667 -5.468962,-3.02602 -1.622983,-1.09055 -3.137768,-2.3383 -4.524681,-3.71376 -1.386913,-1.38529 -2.636118,-2.89832 -3.737779,-4.52922 -1.160679,-1.71933 -2.173815,-3.54674 -3.029569,-5.44293 -0.944282,-2.11232 -1.750855,-4.27377 -2.400048,-6.49418 -0.747556,-2.51513 -1.347569,-5.05975 -1.829545,-7.63385 -0.540995,-2.92777 -0.97379,-5.87521 -1.298387,-8.83246 -0.373778,-3.3699 -0.649193,-6.73979 -0.845918,-10.11952 C 10.058378,175.74 9.900997,171.91816 9.822307,168.09633 9.733781,163.80291 9.6846,159.51931 9.6846,155.22589 c 0,0 0,0 0,0 V 97.014106 c 0,0 0,0 0,0 0,-4.293421 0.049181,-8.577022 0.137707,-12.87045 0.07869,-3.821835 0.236071,-7.633844 0.452469,-11.45568 0.196725,-3.379724 0.47214,-6.749621 0.845918,-10.109694 0.324597,-2.967082 0.757392,-5.914514 1.298387,-8.842295 0.481976,-2.574089 1.081989,-5.118705 1.829545,-7.633848 0.649193,-2.210574 1.455766,-4.381847 2.400048,-6.494171 0.855754,-1.896181 1.86889,-3.713766 3.029569,-5.442925 1.101661,-1.621087 2.350866,-3.134102 3.737779,-4.519395 1.386913,-1.385293 2.901698,-2.633039 4.524681,-3.723589 1.731183,-1.159322 3.560726,-2.171274 5.468962,-3.02603 2.104961,-0.943177 4.278774,-1.748808 6.501768,-2.397243 2.518084,-0.736858 5.075511,-1.345994 7.652615,-1.817583 2.931205,-0.550187 5.891919,-0.982477 8.86247,-1.296871 3.364004,-0.37334 6.747677,-0.648434 10.13135,-0.84493 3.826305,-0.216145 7.652611,-0.363516 11.478916,-0.451939 4.29845,-0.08842 8.596899,-0.137547 12.895341,-0.127722 0,0 0,0 0.0098,0 h 74.126065 c 0.01,0 0.01,0 0.01,0 z"
       id="highlight"
       inkscape:connector-curvature="0"
       style="fill:url(#_lgradient_1);fill-rule:evenodd" />
  </g>
  <g
     id="g947"
     transform="matrix(1.2296971,0,0,1.0492516,334.36506,15.258405)">
    <path
       style="fill:url(#linearGradient940);fill-opacity:1;stroke:none;stroke-width:1.1358968px;stroke-linecap:butt;stroke-linejoin:miter;stroke-opacity:1"
       d="m 5.6796875,111.58398 -0.9960937,0.51954 0.9960937,0.59179 z"
       id="path982"
       transform="matrix(0.81320839,0,0,0.95306026,-271.90847,-14.542179)"
       inkscape:connector-curvature="0" />
    <path
       style="fill:url(#linearGradient940);fill-opacity:1;stroke:none;stroke-width:1.1358968px;stroke-linecap:butt;stroke-linejoin:miter;stroke-opacity:1"
       d="m 5.6796875,91.58398 v 1.11133 L 214.3418,236.48438 c 1.25932,-0.30303 2.6179,-0.55291 3.79297,-0.90235 2.47191,-0.7351 4.76083,-1.57558 6.8789,-2.53515 2.11807,-0.95958 4.06542,-2.0382 5.85547,-3.24805 1.79005,-1.20986 3.4223,-2.55115 4.91016,-4.03711 1.48786,-1.48596 2.83147,-3.11642 4.04297,-4.9043 1.21149,-1.78787 2.291,-3.734 3.25195,-5.84961 0.96095,-2.1156 1.80283,-4.40194 2.53906,-6.87109 0.73623,-2.46916 1.36696,-5.12023 1.9043,-7.96875 0.53733,-2.84852 0.98144,-5.89278 1.3457,-9.14649 0.36427,-3.2537 0.64822,-6.71764 0.86524,-10.40234 0.43403,-7.3694 0.5996,-15.62672 0.5996,-24.875 V 91.97461 L 127.62891,26 Z"
       id="path909"
       transform="matrix(0.81320839,0,0,0.95306026,-271.90847,-14.542179)"
       inkscape:connector-curvature="0"
       sodipodi:nodetypes="ccccccsccccccsccc" />
    <path
       sodipodi:nodetypes="cssssccc"
       inkscape:connector-curvature="0"
       id="path942"
       d="M -246.02076,92.521776 V 28.369753 c 0,-4.055452 5.40078,-7.655046 9.45623,-7.655046 h 139.141728 c 4.08313,0 7.20475,5.823398 7.20475,9.906531 v 61.900538 l -77.901358,62.560694 z"
       style="fill:#ffffff;fill-opacity:1;stroke:none;stroke-width:1px;stroke-linecap:butt;stroke-linejoin:miter;stroke-opacity:1" />
    <path
       style="fill:url(#linearGradient932);fill-opacity:1;stroke:none;stroke-width:1.1358968px;stroke-linecap:butt;stroke-linejoin:miter;stroke-opacity:1"
       d="m 5.6796875,92.69531 v 63.04883 c 0,9.24828 0.1655713,17.5056 0.5996094,24.875 0.217019,3.6847 0.5009692,7.14864 0.8652343,10.40234 0.3642652,3.25371 0.8083676,6.29797 1.3457032,9.14649 0.5373355,2.84852 1.1680665,5.49959 1.9042966,7.96875 0.736231,2.46915 1.578113,4.75549 2.539063,6.87109 0.960949,2.11561 2.04046,4.06174 3.251953,5.84961 1.211493,1.78788 2.555108,3.41834 4.042969,4.9043 1.487861,1.48596 3.120103,2.82725 4.910156,4.03711 1.790053,1.20985 3.737399,2.28847 5.855469,3.24805 2.118069,0.95957 4.406995,1.80005 6.878906,2.53515 2.471911,0.7351 5.126939,1.36394 7.978515,1.90039 2.851577,0.53645 5.899185,0.98014 9.15625,1.34375 3.257066,0.36362 6.72373,0.64669 10.41211,0.86328 2.114258,0.12416 4.874063,0.0894 7.136719,0.17188 H 183.45117 c 2.26285,-0.0825 5.0223,-0.0477 7.13672,-0.17188 3.68838,-0.21659 7.15504,-0.49966 10.41211,-0.86328 3.25707,-0.36361 6.30467,-0.8073 9.15625,-1.34375 1.49603,-0.28144 2.7957,-0.66362 4.18555,-0.99804 z"
       id="path907"
       transform="matrix(0.81320839,0,0,0.95306026,-271.90847,-14.542179)"
       inkscape:connector-curvature="0"
       sodipodi:nodetypes="csssscccsccssccccccscc" />
  </g>
  <path
     style="fill:none;stroke:#52c7fd;stroke-width:11.39999962;stroke-linecap:round;stroke-linejoin:miter;stroke-miterlimit:4;stroke-dasharray:none;stroke-opacity:1"
     d="M 63.947519,73.970147 H 191.31071"
     id="path949"
     inkscape:connector-curvature="0" />
  <path
     style="isolation:isolate;fill:none;stroke:#52c7fd;stroke-width:11.39999962;stroke-linecap:round;stroke-linejoin:miter;stroke-miterlimit:4;stroke-dasharray:none;stroke-opacity:1"
     d="M 63.947519,99.24378 H 113.31071"
     id="path949-6"
     inkscape:connector-curvature="0"
     sodipodi:nodetypes="cc" />
</svg>
