<?xml version="1.0" standalone="no"?><!-- Generator: Gravit.io --><svg xmlns="http://www.w3.org/2000/svg" xmlns:xlink="http://www.w3.org/1999/xlink" style="isolation:isolate" viewBox="0 0 256 256" width="256" height="256"><g id="Group" filter="url(#EGIBUzFBPGuudFYGr7t4wCBXkMoeztyj)"><linearGradient id="_lgradient_205" x1="0.533" y1="1" x2="0.5330000000000001" y2="0" gradientTransform="matrix(244.648,0,0,228.338,5.676,11.947)" gradientUnits="userSpaceOnUse"><stop offset="0%" stop-opacity="1" style="stop-color:rgb(138,194,73)"/><stop offset="100%" stop-opacity="1" style="stop-color:rgb(170,233,97)"/></linearGradient><path d=" M 165.685 11.947 C 239.74 11.947 250.324 22.504 250.324 96.491 L 250.324 155.742 C 250.324 229.728 239.74 240.285 165.685 240.285 L 90.315 240.285 C 16.26 240.285 5.676 229.728 5.676 155.742 L 5.676 96.491 C 5.676 22.504 16.26 11.947 90.315 11.947 L 165.685 11.947 L 165.685 11.947 Z " id="Path" fill="url(#_lgradient_205)"/></g><defs><filter id="EGIBUzFBPGuudFYGr7t4wCBXkMoeztyj" x="-200%" y="-200%" width="400%" height="400%" filterUnits="objectBoundingBox" color-interpolation-filters="sRGB"><feGaussianBlur xmlns="http://www.w3.org/2000/svg" in="SourceGraphic" stdDeviation="4.294"/><feOffset xmlns="http://www.w3.org/2000/svg" dx="0" dy="4" result="pf_100_offsetBlur"/><feFlood xmlns="http://www.w3.org/2000/svg" flood-color="#000000" flood-opacity="0.4"/><feComposite xmlns="http://www.w3.org/2000/svg" in2="pf_100_offsetBlur" operator="in" result="pf_100_dropShadow"/><feBlend xmlns="http://www.w3.org/2000/svg" in="SourceGraphic" in2="pf_100_dropShadow" mode="normal"/></filter></defs><defs><filter id="ZrRMaCgKqsqySdUvVNN3NFmDsEFmANfw" x="-200%" y="-200%" width="400%" height="400%" filterUnits="objectBoundingBox" color-interpolation-filters="sRGB"><feGaussianBlur xmlns="http://www.w3.org/2000/svg" stdDeviation="4.294"/></filter></defs><g opacity="0.4" filter="url(#ZrRMaCgKqsqySdUvVNN3NFmDsEFmANfw)"><path d=" M 10.5 56.5 L 245 56.5 L 245 79.75 L 10.5 79.75 L 10.5 56.5 Z " id="Path" fill="rgb(0,0,0)"/></g><path d=" M 165.685 11.947 C 230.009 11.947 246.447 19.912 249.656 70.49 C 244.122 70.397 -0.134 69.63 6.412 69.46 C 9.78 19.804 26.43 11.947 90.315 11.947 L 165.685 11.947 L 165.685 11.947 Z " id="Path" fill="rgb(51,51,51)"/><g id="Group"><path d=" M 30.5 44.5 C 30.5 39.2 32.609 34.109 36.355 30.355 C 40.109195 26.608061 45.195895 24.502538 50.5 24.5 C 55.8 24.5 60.891 26.609 64.645 30.355 C 68.391939 34.109195 70.497462 39.195895 70.5 44.5 C 70.5 49.8 68.391 54.891 64.645 58.645 C 60.890805 62.391939 55.804105 64.497462 50.5 64.5 C 45.2 64.5 40.109 62.391 36.355 58.645 C 32.608061 54.890805 30.502538 49.804105 30.5 44.5 Z  M 34.136 44.5 C 34.136 40.164 35.864 36 38.927 32.927 C 41.999167 29.862196 46.160504 28.139482 50.5 28.136 C 54.836 28.136 59 29.864 62.073 32.927 C 65.137804 35.999167 66.860518 40.160504 66.864 44.5 C 66.864 48.836 65.136 53 62.073 56.073 C 59.000833 59.137804 54.839496 60.860518 50.5 60.864 C 46.164 60.864 42 59.136 38.927 56.073 C 35.862196 53.000833 34.139482 48.839496 34.136 44.5 Z " fill-rule="evenodd" id="Compound Path" fill="rgb(235,235,235)"/><circle vector-effect="non-scaling-stroke" cx="50.5" cy="44.5" r="13.635999999999996" id="Ellipse" fill="rgb(235,235,235)"/></g><path d=" M 192.867 24.25 L 211.492 24.25 C 212.592 24.25 213.485 25.143 213.485 26.243 L 213.485 30.136 C 213.485 31.236 212.592 32.129 211.492 32.129 L 192.867 32.129 C 191.767 32.129 190.874 31.236 190.874 30.136 L 190.874 26.243 C 190.874 25.143 191.767 24.25 192.867 24.25 Z  M 192.743 40.21 L 216.757 40.21 C 217.857 40.21 218.75 41.102 218.75 42.202 L 218.75 46.096 C 218.748897 47.196084 217.857085 48.087449 216.757 48.088 L 192.743 48.088 C 191.643 48.088 190.75 47.195 190.75 46.096 L 190.75 42.202 C 190.75 41.102 191.643 40.21 192.743 40.21 Z  M 192.743 56.371 L 208.828 56.371 C 209.928 56.371 210.821 57.264 210.821 58.364 L 210.821 62.257 C 210.821 63.357 209.928 64.25 208.828 64.25 L 192.743 64.25 C 191.643 64.25 190.75 63.357 190.75 62.257 L 190.75 58.364 C 190.75 57.264 191.643 56.371 192.743 56.371 Z " id="Compound Path" fill="rgb(235,235,235)"/><path d=" M 157.095 196.389 L 98.905 196.389 C 96.34 196.389 94.715 193.596 95.879 191.268 L 102.396 180.095 L 153.604 180.095 L 159.889 191.268 C 161.285 193.596 159.66 196.389 157.095 196.389 L 157.095 196.389 Z " id="Path" fill="rgb(69,90,100)"/><path d=" M 169.897 147.509 C 169.897 170.648 151.139 189.406 128 189.406 C 104.861 189.406 86.103 170.648 86.103 147.509 C 86.103 124.37 104.861 105.611 128 105.611 C 151.139 105.611 169.897 124.37 169.897 147.509 Z " id="Path" fill="rgb(120,144,156)"/><path d=" M 128 175.44 C 112.633 175.44 100.068 162.876 100.068 147.509 C 100.068 132.142 112.633 119.577 128 119.577 C 143.367 119.577 155.932 132.142 155.932 147.509 C 155.932 162.876 143.367 175.44 128 175.44 L 128 175.44 Z " id="Path" fill="rgb(69,90,100)"/><path d=" M 148.949 147.509 C 148.949 159.075 139.566 168.457 128 168.457 C 116.434 168.457 107.051 159.075 107.051 147.509 C 107.051 135.943 116.434 126.56 128 126.56 C 139.566 126.56 148.949 135.943 148.949 147.509 L 148.949 147.509 Z " id="Path" fill="rgb(66,165,245)"/><path d=" M 139.173 140.526 C 136.360735 137.288552 132.288311 135.42201 128 135.405 C 123.81 135.405 119.616 137.272 116.827 140.526 C 115.664 141.689 115.896 143.552 117.06 144.715 C 118.224 145.879 120.091 145.646 121.255 144.483 C 124.746 140.526 131.254 140.526 134.745 144.483 C 135.446 145.181 136.147 145.418 137.073 145.418 C 137.774 145.418 138.474 145.181 139.175 144.718 C 140.101 143.78 140.339 141.689 139.175 140.526 L 139.173 140.526 L 139.173 140.526 Z " id="Path" fill="rgb(144,202,249)"/><path d=" M 46 81 L 85.333 81 C 86.437569 81 87.333 81.895431 87.333 83 L 87.333 87.667 C 87.329806 88.773348 86.439268 89.672346 85.333 89.686 L 55.333 89.98 C 54.223787 89.996085 53.328183 90.890804 53.311 92 L 53.023 117.333 C 53.007182 118.439912 52.107021 119.329839 51 119.333 L 46 119.333 C 44.895431 119.333 44 118.437569 44 117.333 L 44 83 C 44 81.895431 44.895431 81 46 81 Z  M 46 219.333 L 85.333 219.333 C 86.437569 219.333 87.333 218.437569 87.333 217.333 L 87.333 212.667 C 87.330352 211.560262 86.439657 210.66066 85.333 210.647 L 55.333 210.353 C 54.223787 210.336915 53.328183 209.442196 53.311 208.333 L 53.023 183 C 53.007182 181.893088 52.107021 181.003161 51 181 L 46 181 C 44.895431 181 44 181.895431 44 183 L 44 217.333 C 44 218.437569 44.895431 219.333 46 219.333 Z  M 209.333 81 L 170 81 C 168.895431 81 168 81.895431 168 83 L 168 87.667 C 168 88.77 168.896 89.675 170 89.686 L 200 89.98 C 201.109163 89.996592 202.004762 90.890863 202.023 92 L 202.311 117.333 C 202.323 118.437 203.23 119.333 204.333 119.333 L 209.333 119.333 C 210.437569 119.333 211.333 118.437569 211.333 117.333 L 211.333 83 C 211.333 81.895431 210.437569 81 209.333 81 Z  M 209.333 219.333 L 170 219.333 C 168.895431 219.333 168 218.437569 168 217.333 L 168 212.667 C 168 211.563 168.896 210.658 170 210.647 L 200 210.353 C 201.109163 210.336408 202.004762 209.442137 202.023 208.333 L 202.311 183 C 202.323 181.896 203.23 181 204.333 181 L 209.333 181 C 210.437569 181 211.333 181.895431 211.333 183 L 211.333 217.333 C 211.333 218.437569 210.437569 219.333 209.333 219.333 L 209.333 219.333 Z " id="Compound Path" fill="rgb(235,235,235)"/><g opacity="0.4"><linearGradient id="_lgradient_206" x1="0.5166666666666668" y1="0" x2="0.5166666666666666" y2="1.0000000000000002" gradientTransform="matrix(244.65,0,0,228.34,5.68,11.95)" gradientUnits="userSpaceOnUse"><stop offset="0%" stop-opacity="1" style="stop-color:rgb(255,255,255)"/><stop offset="12.5%" stop-opacity="0.09803922" style="stop-color:rgb(255,255,255)"/><stop offset="92.500001%" stop-opacity="0.09803922" style="stop-color:rgb(0,0,0)"/><stop offset="100%" stop-opacity="0.49803922" style="stop-color:rgb(0,0,0)"/></linearGradient><path d=" M 165.06803 11.951234 C 169.395994 11.941409 173.723944 11.990533 178.051908 12.088781 C 181.927398 12.167379 185.802873 12.31475 189.678362 12.540721 C 193.1309 12.737216 196.583423 13.022134 200.026115 13.395476 C 203.085193 13.729518 206.144271 14.181458 209.173842 14.741469 C 211.888645 15.242533 214.57394 15.881143 217.219897 16.6573 C 219.619947 17.354858 221.970814 18.219439 224.242988 19.241215 C 226.357793 20.184394 228.384061 21.304417 230.302129 22.591462 C 232.141505 23.829383 233.862851 25.244151 235.436659 26.80629 C 237.000621 28.378252 238.417046 30.087764 239.656409 31.924995 C 240.944972 33.840824 242.066305 35.864728 243.020409 37.967229 C 244.043389 40.246576 244.908985 42.584873 245.617197 44.972292 C 246.394255 47.615155 247.033606 50.297317 247.535265 53.008956 C 248.095924 56.034984 248.548399 59.080665 248.882828 62.13617 C 249.256611 65.574836 249.541856 69.013506 249.738578 72.462003 C 249.964823 76.323139 250.112361 80.194101 250.200884 84.055237 C 250.289421 88.378131 250.338591 92.701032 250.32876 97.014106 L 250.32876 155.225886 C 250.338591 159.54878 250.289421 163.861854 250.200884 168.184747 C 250.112361 172.05571 249.964823 175.916853 249.738578 179.777981 C 249.541856 183.226485 249.256611 186.674975 248.882828 190.103826 C 248.548399 193.15933 248.095924 196.214835 247.535265 199.240851 C 247.033606 201.942664 246.394255 204.624837 245.617197 207.267703 C 244.908985 209.655115 244.043389 212.003235 243.020409 214.272755 C 242.066305 216.38509 240.944972 218.399156 239.656409 220.314999 C 238.417046 222.152226 237.000621 223.871561 235.436659 225.433697 C 233.862851 226.995832 232.141505 228.410601 230.302129 229.648532 C 228.384061 230.935575 226.357793 232.055598 224.242988 232.998768 C 221.970814 234.020552 219.619947 234.885137 217.219897 235.592507 C 214.57394 236.368672 211.888645 237.007276 209.173842 237.498515 C 206.144271 238.068354 203.085193 238.510465 200.026115 238.844519 C 196.583423 239.21785 193.1309 239.502777 189.678362 239.699269 C 185.802873 239.925235 181.927398 240.072615 178.051908 240.161035 C 173.723944 240.249454 169.395994 240.298581 165.06803 240.288762 L 90.941963 240.288762 C 86.614006 240.298581 82.286049 240.249454 77.9581 240.161035 C 74.08261 240.072615 70.20712 239.925235 66.331638 239.699269 C 62.879108 239.502777 59.426578 239.21785 55.983886 238.844519 C 52.924808 238.510465 49.865733 238.068354 46.836162 237.498515 C 44.121356 237.007276 41.436057 236.368672 38.7901 235.592507 C 36.390053 234.885137 34.039187 234.020552 31.767009 232.998768 C 29.652213 232.055598 27.625943 230.935575 25.707871 229.648532 C 23.868489 228.410601 22.147143 226.995832 20.573343 225.433697 C 19.009377 223.871561 17.592955 222.152226 16.353586 220.314999 C 15.065036 218.399156 13.943701 216.38509 12.989584 214.272755 C 11.966612 212.003235 11.101021 209.655115 10.392811 207.267703 C 9.615746 204.624837 8.976389 201.942664 8.47474 199.240851 C 7.914072 196.214835 7.461604 193.15933 7.127172 190.103826 C 6.753394 186.674975 6.468142 183.226485 6.271417 179.777981 C 6.045183 175.916853 5.897639 172.05571 5.809112 168.184747 C 5.720586 163.861854 5.671405 159.54878 5.681241 155.225886 L 5.681241 97.014106 C 5.671405 92.701032 5.720586 88.378131 5.809112 84.055237 C 5.897639 80.194101 6.045183 76.323139 6.271417 72.462003 C 6.468142 69.013506 6.753394 65.574836 7.127172 62.13617 C 7.461604 59.080665 7.914072 56.034984 8.47474 53.008956 C 8.976389 50.297317 9.615746 47.615155 10.392811 44.972292 C 11.101021 42.584873 11.966612 40.246576 12.989584 37.967229 C 13.943701 35.864728 15.065036 33.840824 16.353586 31.924995 C 17.592955 30.087764 19.009377 28.378252 20.573343 26.80629 C 22.147143 25.244151 23.868489 23.829383 25.707871 22.591462 C 27.625943 21.304417 29.652213 20.184394 31.767009 19.241215 C 34.039187 18.219439 36.390053 17.354858 38.7901 16.6573 C 41.436057 15.881143 44.121356 15.242533 46.836162 14.741469 C 49.865733 14.181458 52.924808 13.729518 55.983886 13.395476 C 59.426578 13.022134 62.879108 12.737216 66.331638 12.540721 C 70.20712 12.31475 74.08261 12.167379 77.9581 12.088781 C 82.286049 11.990533 86.614006 11.941409 90.941963 11.951234 L 165.06803 11.951234 Z  M 165.077876 15.959741 C 169.376317 15.949916 173.674759 15.99904 177.973216 16.087463 C 181.799522 16.175886 185.625827 16.323257 189.452133 16.539402 C 192.835809 16.735898 196.219486 17.010992 199.583486 17.384332 C 202.554026 17.698726 205.514751 18.131016 208.445953 18.681203 C 211.023049 19.152792 213.580483 19.761928 216.098564 20.498786 C 218.321569 21.147221 220.495374 21.952852 222.600334 22.896029 C 224.508571 23.750785 226.338116 24.762737 228.069293 25.922059 C 229.692286 27.012609 231.207063 28.260355 232.59398 29.645648 C 233.980897 31.030941 235.230091 32.543956 236.331763 34.165043 C 237.492434 35.894202 238.505568 37.711787 239.361333 39.607968 C 240.305606 41.720292 241.112187 43.891565 241.761369 46.102139 C 242.508934 48.617282 243.108947 51.161898 243.590914 53.735987 C 244.131912 56.663768 244.564709 59.6112 244.889308 62.578282 C 245.263091 65.938355 245.538505 69.308252 245.735227 72.687976 C 245.951626 76.509812 246.10901 80.321821 246.187687 84.143656 C 246.276225 88.437084 246.325394 92.720685 246.325394 97.014106 C 246.325394 97.014106 246.325394 97.014106 246.325394 97.014106 L 246.325394 155.225886 C 246.325394 155.225886 246.325394 155.225886 246.325394 155.225886 C 246.325394 159.519306 246.276225 163.802907 246.187687 168.096328 C 246.10901 171.918164 245.951626 175.739999 245.735227 179.552015 C 245.538505 182.931739 245.263091 186.301629 244.889308 189.671533 C 244.564709 192.628784 244.131912 195.576216 243.590914 198.503994 C 243.108947 201.078094 242.508934 203.622706 241.761369 206.137845 C 241.112187 208.358253 240.305606 210.5197 239.361333 212.63202 C 238.505568 214.528209 237.492434 216.355617 236.331763 218.074952 C 235.230091 219.705853 233.980897 221.218876 232.59398 222.604172 C 231.207063 223.979634 229.692286 225.227385 228.069293 226.317935 C 226.338116 227.477251 224.508571 228.489201 222.600334 229.343951 C 220.495374 230.296956 218.321569 231.092775 216.098564 231.741198 C 213.580483 232.478056 211.023049 233.087202 208.445953 233.558787 C 205.514751 234.108972 202.554026 234.541264 199.583486 234.865483 C 196.219486 235.228995 192.835809 235.513922 189.452133 235.70058 C 185.625827 235.916726 181.799522 236.073926 177.973216 236.152526 C 173.674759 236.25078 169.376317 236.290072 165.077876 236.290072 C 165.077876 236.290072 165.077876 236.290072 165.06803 236.290072 L 90.941963 236.290072 C 90.932125 236.290072 90.932125 236.290072 90.932125 236.290072 C 86.633683 236.290072 82.335234 236.25078 78.036784 236.152526 C 74.210479 236.073926 70.384173 235.916726 66.557868 235.70058 C 63.174195 235.513922 59.790522 235.228995 56.426518 234.865483 C 53.455967 234.541264 50.495253 234.108972 47.564048 233.558787 C 44.986944 233.087202 42.429517 232.478056 39.911433 231.741198 C 37.688439 231.092775 35.514626 230.296956 33.409665 229.343951 C 31.501429 228.489201 29.671886 227.477251 27.940703 226.317935 C 26.31772 225.227385 24.802935 223.979634 23.416022 222.604172 C 22.029109 221.218876 20.779904 219.705853 19.678243 218.074952 C 18.517564 216.355617 17.504428 214.528209 16.648674 212.63202 C 15.704392 210.5197 14.897819 208.358253 14.248626 206.137845 C 13.50107 203.622706 12.901057 201.078094 12.419081 198.503994 C 11.878086 195.576216 11.445291 192.628784 11.120694 189.671533 C 10.746916 186.301629 10.471501 182.931739 10.274776 179.552015 C 10.058378 175.739999 9.900997 171.918164 9.822307 168.096328 C 9.733781 163.802907 9.6846 159.519306 9.6846 155.225886 C 9.6846 155.225886 9.6846 155.225886 9.6846 155.225886 L 9.6846 97.014106 C 9.6846 97.014106 9.6846 97.014106 9.6846 97.014106 C 9.6846 92.720685 9.733781 88.437084 9.822307 84.143656 C 9.900997 80.321821 10.058378 76.509812 10.274776 72.687976 C 10.471501 69.308252 10.746916 65.938355 11.120694 62.578282 C 11.445291 59.6112 11.878086 56.663768 12.419081 53.735987 C 12.901057 51.161898 13.50107 48.617282 14.248626 46.102139 C 14.897819 43.891565 15.704392 41.720292 16.648674 39.607968 C 17.504428 37.711787 18.517564 35.894202 19.678243 34.165043 C 20.779904 32.543956 22.029109 31.030941 23.416022 29.645648 C 24.802935 28.260355 26.31772 27.012609 27.940703 25.922059 C 29.671886 24.762737 31.501429 23.750785 33.409665 22.896029 C 35.514626 21.952852 37.688439 21.147221 39.911433 20.498786 C 42.429517 19.761928 44.986944 19.152792 47.564048 18.681203 C 50.495253 18.131016 53.455967 17.698726 56.426518 17.384332 C 59.790522 17.010992 63.174195 16.735898 66.557868 16.539402 C 70.384173 16.323257 74.210479 16.175886 78.036784 16.087463 C 82.335234 15.99904 86.633683 15.949916 90.932125 15.959741 C 90.932125 15.959741 90.932125 15.959741 90.941963 15.959741 L 165.06803 15.959741 C 165.077876 15.959741 165.077876 15.959741 165.077876 15.959741 Z " fill-rule="evenodd" id="highlight" fill="url(#_lgradient_206)"/></g></svg>