<svg xmlns="http://www.w3.org/2000/svg" style="isolation:isolate" width="256" height="256"><defs><filter id="a" x="-200%" y="-200%" width="400%" height="400%" filterUnits="objectBoundingBox" color-interpolation-filters="sRGB"><feGaussianBlur xmlns="http://www.w3.org/2000/svg" in="SourceGraphic" stdDeviation="4.294"/><feOffset xmlns="http://www.w3.org/2000/svg" dy="4" result="pf_100_offsetBlur"/><feFlood xmlns="http://www.w3.org/2000/svg" flood-color="#000" flood-opacity=".4"/><feComposite xmlns="http://www.w3.org/2000/svg" in2="pf_100_offsetBlur" operator="in" result="pf_100_dropShadow"/><feBlend xmlns="http://www.w3.org/2000/svg" in="SourceGraphic" in2="pf_100_dropShadow"/></filter></defs><path d="M165.685 11.947c74.055 0 84.639 10.557 84.639 84.544v59.251c0 73.986-10.584 84.543-84.639 84.543h-75.37c-74.055 0-84.639-10.557-84.639-84.543V96.491c0-73.987 10.584-84.544 84.639-84.544h75.37z" fill="#BC1938" filter="url(#a)"/><path d="M5.676 126.116v29.626c0 73.986 10.584 84.543 84.639 84.543h75.37c74.055 0 84.639-10.557 84.639-84.543v-29.626H5.676z" fill="#FFF" opacity=".1"/><path d="M128 11.947v228.338h37.685c74.055 0 84.639-10.557 84.639-84.543V96.491c0-73.987-10.584-84.544-84.639-84.544H128z" fill="#FFF" opacity=".2"/><linearGradient id="b" x1=".5" y1="-.036" x2=".5" y2="1.036" gradientTransform="translate(32.625 29.958) scale(193.417)" gradientUnits="userSpaceOnUse"><stop offset="0%"/><stop offset="100%" stop-color="#333"/></linearGradient><path d="M129.333 29.958c-53.383 0-96.708 43.325-96.708 96.709 0 53.383 43.325 96.708 96.708 96.708 53.384 0 96.709-43.325 96.709-96.708 0-53.384-43.325-96.709-96.709-96.709zm0 93.997a2.71 2.71 0 0 1 1.918 4.63 2.71 2.71 0 0 1-3.835 0 2.71 2.71 0 0 1 0-3.836 2.71 2.71 0 0 1 1.917-.794z" fill="url(#b)"/><path d="M128.667 92.129c-19.425 0-35.204 15.779-35.204 35.204s15.779 35.204 35.204 35.204 35.204-15.779 35.204-35.204-15.779-35.204-35.204-35.204zm0 32.885a2.316 2.316 0 0 1 2.319 2.319 2.317 2.317 0 0 1-2.319 2.32 2.318 2.318 0 0 1-2.32-2.32 2.317 2.317 0 0 1 2.32-2.319z" fill="#333" opacity=".9"/><path d="M128.667 31.556c52.879 0 95.777 42.898 95.777 95.777 0 52.88-42.898 95.778-95.777 95.778-52.88 0-95.778-42.898-95.778-95.778 0-52.879 42.898-95.777 95.778-95.777z" fill="none" opacity=".9"/><path d="M128.667 92.146c19.429 0 35.187 15.758 35.187 35.187s-15.758 35.189-35.187 35.189-35.189-15.76-35.189-35.189c0-19.429 15.76-35.187 35.189-35.187z" fill="none" opacity=".9"/><g opacity=".9"><radialGradient id="c" fx="-.5" fy=".5" cx="-.5" cy=".5" r="53.688" gradientTransform="rotate(90 .667 99.94) scale(56.1195)" gradientUnits="userSpaceOnUse"><stop offset="0%" stop-color="#f7f7f7"/><stop offset="100%" stop-color="#e1e1e1"/></radialGradient><path d="M148.512 107.488c-10.953-10.953-28.737-10.953-39.69 0s-10.953 28.737 0 39.69 28.737 10.953 39.69 0 10.953-28.737 0-39.69zm-17.928 17.928a2.712 2.712 0 1 1-3.783 3.887 2.712 2.712 0 0 1 3.783-3.887z" fill="url(#c)"/></g><path d="M151.642 104.358a32.3 32.3 0 0 0-12.695-7.843l-.647 1.94a30.296 30.296 0 0 1 11.887 7.358 30.276 30.276 0 0 1 8.155 14.763l1.998-.45a32.311 32.311 0 0 0-8.698-15.768zm-52.974 17.881l-2.033-.346c-1.692 10.022 1.327 20.687 9.056 28.416 7.709 7.708 18.336 10.73 28.335 9.067l-.335-2.021c-9.37 1.56-19.321-1.279-26.544-8.502-7.242-7.241-10.065-17.223-8.479-26.614z" fill="#FFF" opacity=".743"/><path d="M126.142 99.457c-14.34 1.315-25.322 13.386-25.333 27.848.005 14.466 10.988 26.544 25.333 27.859v-.338a2.11 2.11 0 0 1-.287-.041c-1.96-.303-3.517-.683-5.135-1.251-1.729-.609-4.436-1.853-4.436-2.039 0-.074 1.955-.13 4.344-.13 3.997 0 4.353-.022 4.452-.264.059-.146.107-1.521.107-3.057v-2.792l-.523-.105c-.288-.057-4.076-.142-8.417-.186-4.341-.041-7.954-.121-8.03-.168-.177-.111-1.484-1.961-1.598-2.262-.077-.202.388-.221 3.929-.166 7.968.125 14.392.148 14.488.049.054-.057.131-2.184.17-4.733l.072-4.633-.494-.205a6.052 6.052 0 0 0-1.168-.308c-.37-.058-.976-.199-1.346-.317a36.293 36.293 0 0 0-1.871-.507c-2.289-.56-4.715-1.209-4.863-1.302-.263-.165-.159-.533.188-.666.185-.073.606-.169.935-.217.948-.139 1.891-.365 2.609-.624.366-.132 1.544-.437 2.619-.681 3.234-.73 3.28-.75 3.403-1.449.058-.33.108-2.45.113-4.712.009-3.788-.012-4.119-.253-4.196-.444-.141-20.066-.643-21.463-.549-.092.004.427-1.362.914-2.414l.176-.378 2.905.049 2.904.049.076-.354c.042-.195.104-1.977.138-3.962.057-3.442.075-3.623.38-3.932.271-.274.463-.316 1.253-.278.513.023 1 .112 1.081.192.091.091.129 1.63.1 4.053-.041 3.492-.019 3.933.205 4.16.214.217.541.248 2.218.212l1.968-.041.094-1.059c.051-.583.102-2.44.112-4.128.016-2.632.052-3.082.252-3.159.129-.05.718-.031 1.31.041l1.075.134.075 4.16.074 4.161 2.282.041 2.282.041.006-1.781c.019-5.078.279-13.251.426-13.4.017-.019.074-.03.149-.049v-.226.01zm-23.783 23.72a.42.42 0 0 1 .079.001c.158.019 2.816.073 5.907.125 6.461.115 9.691.273 9.9.485.096.096.079.202-.047.304-.238.194-4.572 1.294-6.702 1.702-.864.166-2.345.474-3.291.684-.947.211-2.692.587-3.879.836-1.187.248-2.214.451-2.282.451-.148 0-.146-2.965.003-3.934.074-.479.141-.637.312-.655v.001zm.085 8.543a.302.302 0 0 1 .128.023c.339.131 3.228.827 7.353 1.771 5.614 1.285 7.774 1.881 7.828 2.162.031.157-.078.272-.299.318-.69.143-3.294.171-8.65.094l-5.461-.082-.409-1.438c-.225-.79-.455-1.772-.51-2.181-.066-.489-.072-.656.021-.673l-.001.006zm21.986 3.157c.128 0 .234.066.234.152 0 .084-.063.152-.141.152-.077 0-.183-.066-.233-.152-.051-.084.012-.152.14-.152z" fill="#DA1636"/><path d="M130.789 101.74h2.489a1.322 1.322 0 0 1 0 2.644h-2.489a1.323 1.323 0 0 1 0-2.644zm0 3.111h10.656a1.168 1.168 0 0 1 0 2.334h-10.656a1.168 1.168 0 0 1 0-2.334zm-.428 3.034h12.445a1.05 1.05 0 1 1 0 2.1h-12.445a1.05 1.05 0 0 1 0-2.1zm.311 3.656h4.667a.895.895 0 0 1 0 1.789h-4.667a.895.895 0 0 1 0-1.789zm10 0h4.667a.895.895 0 0 1 0 1.789h-4.667a.895.895 0 0 1 0-1.789zm-9.417 3.033h13.224a1.323 1.323 0 0 1 0 2.645h-13.224a1.324 1.324 0 0 1 0-2.645zm0 3.423h7.157a1.011 1.011 0 1 1 0 2.022h-7.157a1.011 1.011 0 1 1 0-2.022zm11.302.2h4.589a.895.895 0 0 1 0 1.789h-4.589a.895.895 0 0 1 0-1.789zm-11.263 2.756h6.923a1.128 1.128 0 0 1 0 2.255h-6.923a1.128 1.128 0 0 1 0-2.255zm11.318.622h9.101a1.09 1.09 0 0 1 0 2.178h-9.101a1.09 1.09 0 0 1 0-2.178zm3.509 4.231h6.611a.973.973 0 0 1 0 1.944h-6.611a.973.973 0 0 1 0-1.944zm-15.76 4.481h24.191a1.05 1.05 0 1 1 0 2.1h-24.191a1.05 1.05 0 0 1 0-2.1zm.311 3.5h8.479a.973.973 0 0 1 0 1.945h-8.479a.972.972 0 1 1 0-1.945zm12.353.045h6.222a.973.973 0 0 1 0 1.945h-6.222a.973.973 0 0 1 0-1.945zm-11.342 3.3h16.102a.973.973 0 0 1 0 1.945h-16.102a.973.973 0 0 1 0-1.945zm-.933 2.722h7.467a1.284 1.284 0 0 1 0 2.567h-7.467a1.284 1.284 0 0 1 0-2.567zm12 0h5.467a1.284 1.284 0 0 1 0 2.567h-5.467a1.284 1.284 0 0 1 0-2.567zm-12.156 3.267h16.024a1.05 1.05 0 1 1 0 2.1h-16.024a1.051 1.051 0 0 1 0-2.1zm2.178 3.034h5.29a1.128 1.128 0 0 1 0 2.256h-5.29a1.129 1.129 0 0 1 0-2.256zm-2.761 3.422h5.445a1.168 1.168 0 0 1 0 2.334h-5.445a1.168 1.168 0 0 1 0-2.334z" fill="#666"/><g opacity=".4"><linearGradient id="d" x1=".517" x2=".517" y2="1" gradientTransform="matrix(244.65 0 0 228.34 5.68 11.95)" gradientUnits="userSpaceOnUse"><stop offset="0%" stop-color="#fff"/><stop offset="12.5%" stop-opacity=".098" stop-color="#fff"/><stop offset="92.5%" stop-opacity=".098"/><stop offset="100%" stop-opacity=".498"/></linearGradient><path d="M165.068 11.951c4.328-.01 8.656.04 12.984.138 3.875.078 7.75.226 11.626.452 3.453.196 6.905.481 10.348.854 3.06.335 6.118.786 9.148 1.346a80.47 80.47 0 0 1 8.046 1.916 53.64 53.64 0 0 1 7.023 2.584 40.413 40.413 0 0 1 6.06 3.35 35.176 35.176 0 0 1 5.134 4.215 35.072 35.072 0 0 1 4.22 5.119 41.692 41.692 0 0 1 3.363 6.042 55.982 55.982 0 0 1 2.597 7.005 80.224 80.224 0 0 1 1.918 8.037 124.43 124.43 0 0 1 1.348 9.127c.374 3.439.659 6.878.856 10.326.226 3.861.373 7.732.462 11.593.088 4.323.138 8.646.128 12.96v58.21c.01 4.324-.04 8.637-.128 12.96a325.177 325.177 0 0 1-.462 11.593 200.984 200.984 0 0 1-.856 10.326 124.691 124.691 0 0 1-1.348 9.137 80.687 80.687 0 0 1-1.918 8.027 55.414 55.414 0 0 1-2.597 7.005 41.18 41.18 0 0 1-3.364 6.042 34.559 34.559 0 0 1-4.22 5.119 35.177 35.177 0 0 1-5.134 4.215 40.412 40.412 0 0 1-6.059 3.35 55.138 55.138 0 0 1-7.023 2.594 77.806 77.806 0 0 1-8.046 1.906 120 120 0 0 1-9.148 1.346c-3.443.373-6.895.658-10.348.854-3.875.226-7.75.374-11.626.462-4.328.088-8.656.138-12.984.128H90.942c-4.328.01-8.656-.04-12.984-.128a328.387 328.387 0 0 1-11.626-.462 203.003 203.003 0 0 1-10.348-.854 120 120 0 0 1-9.148-1.346 77.806 77.806 0 0 1-8.046-1.906 55.139 55.139 0 0 1-7.023-2.594 40.413 40.413 0 0 1-6.06-3.35 35.176 35.176 0 0 1-5.134-4.215 34.56 34.56 0 0 1-4.22-5.119 41.183 41.183 0 0 1-3.363-6.042 55.415 55.415 0 0 1-2.597-7.005 80.682 80.682 0 0 1-1.918-8.027 124.688 124.688 0 0 1-1.348-9.137 200.993 200.993 0 0 1-.856-10.326 325.212 325.212 0 0 1-.462-11.593 569.197 569.197 0 0 1-.128-12.96v-58.21c-.01-4.314.04-8.637.128-12.96.089-3.86.236-7.732.462-11.593.197-3.448.482-6.887.856-10.326.335-3.055.787-6.101 1.348-9.127a80.219 80.219 0 0 1 1.918-8.037 55.983 55.983 0 0 1 2.597-7.005 41.695 41.695 0 0 1 3.364-6.042 35.072 35.072 0 0 1 4.22-5.119 35.176 35.176 0 0 1 5.134-4.215 40.413 40.413 0 0 1 6.059-3.35 53.64 53.64 0 0 1 7.023-2.584 80.47 80.47 0 0 1 8.046-1.916 125.11 125.11 0 0 1 9.148-1.346c3.443-.373 6.895-.658 10.348-.854 3.875-.226 7.75-.374 11.626-.452 4.328-.098 8.656-.148 12.984-.138h74.126zm.01 4.009c4.298-.01 8.597.039 12.895.127 3.827.089 7.653.236 11.48.452 3.383.197 6.766.472 10.13.845 2.971.315 5.932.747 8.863 1.297a75.943 75.943 0 0 1 7.653 1.818 50.493 50.493 0 0 1 6.501 2.397 37.038 37.038 0 0 1 5.47 3.026 30.383 30.383 0 0 1 4.524 3.724 31.05 31.05 0 0 1 3.738 4.519 37.271 37.271 0 0 1 3.03 5.443 51.46 51.46 0 0 1 2.4 6.494 75.563 75.563 0 0 1 1.829 7.634c.54 2.928.974 5.875 1.298 8.842.374 3.36.65 6.73.846 10.11.217 3.822.374 7.634.453 11.456.088 4.293.137 8.577.137 12.87v58.212c0 4.293-.049 8.577-.137 12.87a317.503 317.503 0 0 1-.453 11.456c-.196 3.38-.472 6.75-.846 10.12a121.689 121.689 0 0 1-1.298 8.832 75.562 75.562 0 0 1-1.83 7.634 50.902 50.902 0 0 1-2.4 6.494 36.767 36.767 0 0 1-3.03 5.443 30.615 30.615 0 0 1-3.737 4.53 30.938 30.938 0 0 1-4.525 3.713 37.038 37.038 0 0 1-5.469 3.026 49.07 49.07 0 0 1-6.501 2.397 75.942 75.942 0 0 1-7.653 1.818c-2.931.55-5.892.982-8.863 1.306-3.364.364-6.747.649-10.13.836-3.827.216-7.653.373-11.48.452-4.298.098-8.597.137-12.895.137H90.932c-4.298 0-8.597-.04-12.895-.137a320.093 320.093 0 0 1-11.48-.452 193.696 193.696 0 0 1-10.13-.836 116.71 116.71 0 0 1-8.863-1.306 75.942 75.942 0 0 1-7.653-1.818 49.07 49.07 0 0 1-6.501-2.397 37.038 37.038 0 0 1-5.47-3.026 30.938 30.938 0 0 1-4.524-3.714 30.615 30.615 0 0 1-3.738-4.529 36.766 36.766 0 0 1-3.03-5.443 50.903 50.903 0 0 1-2.4-6.494 75.567 75.567 0 0 1-1.829-7.634 121.69 121.69 0 0 1-1.298-8.832c-.374-3.37-.65-6.74-.846-10.12a317.535 317.535 0 0 1-.453-11.456 623.851 623.851 0 0 1-.137-12.87V97.014c0-4.293.049-8.577.137-12.87.079-3.822.236-7.634.453-11.456.197-3.38.472-6.75.846-10.11.324-2.967.757-5.914 1.298-8.842a75.568 75.568 0 0 1 1.83-7.634 51.46 51.46 0 0 1 2.4-6.494 37.27 37.27 0 0 1 3.03-5.443 31.05 31.05 0 0 1 3.737-4.52 30.384 30.384 0 0 1 4.525-3.723 37.039 37.039 0 0 1 5.469-3.026 50.494 50.494 0 0 1 6.501-2.397 75.943 75.943 0 0 1 7.653-1.818c2.931-.55 5.892-.982 8.863-1.297 3.364-.373 6.747-.648 10.13-.845a344.71 344.71 0 0 1 11.48-.452c4.298-.088 8.597-.137 12.895-.127H165.078z" fill-rule="evenodd" fill="url(#d)"/></g></svg>