<?xml version="1.0" encoding="UTF-8" standalone="no"?>
<!-- Generator: Gravit.io -->

<svg
   xmlns:dc="http://purl.org/dc/elements/1.1/"
   xmlns:cc="http://creativecommons.org/ns#"
   xmlns:rdf="http://www.w3.org/1999/02/22-rdf-syntax-ns#"
   xmlns:svg="http://www.w3.org/2000/svg"
   xmlns="http://www.w3.org/2000/svg"
   xmlns:xlink="http://www.w3.org/1999/xlink"
   xmlns:sodipodi="http://sodipodi.sourceforge.net/DTD/sodipodi-0.dtd"
   xmlns:inkscape="http://www.inkscape.org/namespaces/inkscape"
   style="isolation:isolate"
   viewBox="0 0 256 256"
   width="256"
   height="256"
   version="1.1"
   id="svg35"
   sodipodi:docname="rambox.svg"
   inkscape:version="0.92.2 2405546, 2018-03-11">
  <metadata
     id="metadata39">
    <rdf:RDF>
      <cc:Work
         rdf:about="">
        <dc:format>image/svg+xml</dc:format>
        <dc:type
           rdf:resource="http://purl.org/dc/dcmitype/StillImage" />
        <dc:title />
      </cc:Work>
    </rdf:RDF>
  </metadata>
  <sodipodi:namedview
     pagecolor="#ffffff"
     bordercolor="#666666"
     borderopacity="1"
     objecttolerance="10"
     gridtolerance="10"
     guidetolerance="10"
     inkscape:pageopacity="0"
     inkscape:pageshadow="2"
     inkscape:window-width="640"
     inkscape:window-height="480"
     id="namedview37"
     showgrid="false"
     inkscape:zoom="2.2207572"
     inkscape:cx="129.52024"
     inkscape:cy="152.86725"
     inkscape:current-layer="svg35" />
  <defs
     id="defs13">
    <linearGradient
       gradientUnits="userSpaceOnUse"
       gradientTransform="matrix(244.648309,0,0,228.338396,5.68,11.95)"
       y2="0"
       x2="0.49999999999999983"
       y1="1"
       x1="0.5"
       id="linearGradient949">
      <stop
         id="stop945"
         style="stop-color:#280d40;stop-opacity:1"
         stop-opacity="1"
         offset="0%" />
      <stop
         id="stop947"
         style="stop-color:#39bcda;stop-opacity:1"
         stop-opacity="1"
         offset="100%" />
    </linearGradient>
    <filter
       id="Tzcz4vEdmITS7wQ3AsSx9hYNK6Mdtix6"
       x="-200%"
       y="-200%"
       width="400%"
       height="400%"
       filterUnits="objectBoundingBox"
       color-interpolation-filters="sRGB">
      <feGaussianBlur
         in="SourceGraphic"
         stdDeviation="4.293609062839028"
         id="feGaussianBlur2" />
      <feOffset
         dx="0"
         dy="4"
         result="pf_100_offsetBlur"
         id="feOffset4" />
      <feFlood
         flood-color="#000000"
         flood-opacity="0.4"
         id="feFlood6" />
      <feComposite
         in2="pf_100_offsetBlur"
         operator="in"
         result="pf_100_dropShadow"
         id="feComposite8" />
      <feBlend
         in="SourceGraphic"
         in2="pf_100_dropShadow"
         mode="normal"
         id="feBlend10" />
    </filter>
    <linearGradient
       id="_lgradient_0-3"
       x1="0.5"
       y1="1"
       x2="0.5"
       y2="0"
       gradientTransform="matrix(244.64831,0,0,228.3384,-296.13874,-90.072081)"
       gradientUnits="userSpaceOnUse">
      <stop
         offset="0%"
         stop-opacity="1"
         style="stop-color:#e6e6e6;stop-opacity:1"
         id="stop15-6" />
      <stop
         offset="100%"
         stop-opacity="1"
         style="stop-color:#b6b2a5;stop-opacity:1"
         id="stop17-7" />
    </linearGradient>
    <linearGradient
       inkscape:collect="always"
       xlink:href="#linearGradient949"
       id="linearGradient1050"
       gradientUnits="userSpaceOnUse"
       gradientTransform="matrix(244.64831,0,0,228.3384,5.68,11.95)"
       x1="0.043534059"
       y1="0.98816764"
       x2="0.5"
       y2="0" />
  </defs>
  <g
     filter="url(#Tzcz4vEdmITS7wQ3AsSx9hYNK6Mdtix6)"
     id="g21">
    <linearGradient
       id="_lgradient_0"
       x1="0.5"
       y1="1"
       x2="0.5"
       y2="0"
       gradientTransform="matrix(244.64831,0,0,228.3384,5.68,11.95)"
       gradientUnits="userSpaceOnUse"
       xlink:href="#linearGradient949">
      <stop
         offset="0%"
         stop-opacity="1"
         style="stop-color:#e6e6e6;stop-opacity:1"
         id="stop15" />
      <stop
         offset="100%"
         stop-opacity="1"
         style="stop-color:#b6b2a5;stop-opacity:1"
         id="stop17" />
    </linearGradient>
    <path
       d=" M 165.688919 11.95 C 239.744626 11.95 250.328309 22.507198 250.328309 96.493859 L 250.328309 155.744653 C 250.328309 229.73091 239.744626 240.288396 165.688919 240.288396 L 90.319393 240.288396 C 16.26369 240.288396 5.68 229.73091 5.68 155.744653 L 5.68 96.493859 C 5.68 22.507198 16.26369 11.95 90.319393 11.95 L 165.688919 11.95 Z "
       id="shape"
       fill="url(#_lgradient_0)"
       style="fill-opacity:1;fill:url(#linearGradient1050)" />
  </g>
  <g
     opacity="0.4"
     id="g33">
    <linearGradient
       id="_lgradient_1"
       x1="0.5166666666666668"
       y1="0"
       x2="0.5166666666666666"
       y2="1.0000000000000002"
       gradientTransform="matrix(244.65,0,0,228.34,5.68,11.95)"
       gradientUnits="userSpaceOnUse">
      <stop
         offset="0%"
         stop-opacity="1"
         style="stop-color:rgb(255,255,255)"
         id="stop23" />
      <stop
         offset="12.5%"
         stop-opacity="0.09803922"
         style="stop-color:rgb(255,255,255)"
         id="stop25" />
      <stop
         offset="92.500001%"
         stop-opacity="0.09803922"
         style="stop-color:rgb(0,0,0)"
         id="stop27" />
      <stop
         offset="100%"
         stop-opacity="0.49803922"
         style="stop-color:rgb(0,0,0)"
         id="stop29" />
    </linearGradient>
    <path
       d=" M 165.06803 11.951234 C 169.395994 11.941409 173.723944 11.990533 178.051908 12.088781 C 181.927398 12.167379 185.802873 12.31475 189.678362 12.540721 C 193.1309 12.737216 196.583423 13.022134 200.026115 13.395476 C 203.085193 13.729518 206.144271 14.181458 209.173842 14.741469 C 211.888645 15.242533 214.57394 15.881143 217.219897 16.6573 C 219.619947 17.354858 221.970814 18.219439 224.242988 19.241215 C 226.357793 20.184394 228.384061 21.304417 230.302129 22.591462 C 232.141505 23.829383 233.862851 25.244151 235.436659 26.80629 C 237.000621 28.378252 238.417046 30.087764 239.656409 31.924995 C 240.944972 33.840824 242.066305 35.864728 243.020409 37.967229 C 244.043389 40.246576 244.908985 42.584873 245.617197 44.972292 C 246.394255 47.615155 247.033606 50.297317 247.535265 53.008956 C 248.095924 56.034984 248.548399 59.080665 248.882828 62.13617 C 249.256611 65.574836 249.541856 69.013506 249.738578 72.462003 C 249.964823 76.323139 250.112361 80.194101 250.200884 84.055237 C 250.289421 88.378131 250.338591 92.701032 250.32876 97.014106 L 250.32876 155.225886 C 250.338591 159.54878 250.289421 163.861854 250.200884 168.184747 C 250.112361 172.05571 249.964823 175.916853 249.738578 179.777981 C 249.541856 183.226485 249.256611 186.674975 248.882828 190.103826 C 248.548399 193.15933 248.095924 196.214835 247.535265 199.240851 C 247.033606 201.942664 246.394255 204.624837 245.617197 207.267703 C 244.908985 209.655115 244.043389 212.003235 243.020409 214.272755 C 242.066305 216.38509 240.944972 218.399156 239.656409 220.314999 C 238.417046 222.152226 237.000621 223.871561 235.436659 225.433697 C 233.862851 226.995832 232.141505 228.410601 230.302129 229.648532 C 228.384061 230.935575 226.357793 232.055598 224.242988 232.998768 C 221.970814 234.020552 219.619947 234.885137 217.219897 235.592507 C 214.57394 236.368672 211.888645 237.007276 209.173842 237.498515 C 206.144271 238.068354 203.085193 238.510465 200.026115 238.844519 C 196.583423 239.21785 193.1309 239.502777 189.678362 239.699269 C 185.802873 239.925235 181.927398 240.072615 178.051908 240.161035 C 173.723944 240.249454 169.395994 240.298581 165.06803 240.288762 L 90.941963 240.288762 C 86.614006 240.298581 82.286049 240.249454 77.9581 240.161035 C 74.08261 240.072615 70.20712 239.925235 66.331638 239.699269 C 62.879108 239.502777 59.426578 239.21785 55.983886 238.844519 C 52.924808 238.510465 49.865733 238.068354 46.836162 237.498515 C 44.121356 237.007276 41.436057 236.368672 38.7901 235.592507 C 36.390053 234.885137 34.039187 234.020552 31.767009 232.998768 C 29.652213 232.055598 27.625943 230.935575 25.707871 229.648532 C 23.868489 228.410601 22.147143 226.995832 20.573343 225.433697 C 19.009377 223.871561 17.592955 222.152226 16.353586 220.314999 C 15.065036 218.399156 13.943701 216.38509 12.989584 214.272755 C 11.966612 212.003235 11.101021 209.655115 10.392811 207.267703 C 9.615746 204.624837 8.976389 201.942664 8.47474 199.240851 C 7.914072 196.214835 7.461604 193.15933 7.127172 190.103826 C 6.753394 186.674975 6.468142 183.226485 6.271417 179.777981 C 6.045183 175.916853 5.897639 172.05571 5.809112 168.184747 C 5.720586 163.861854 5.671405 159.54878 5.681241 155.225886 L 5.681241 97.014106 C 5.671405 92.701032 5.720586 88.378131 5.809112 84.055237 C 5.897639 80.194101 6.045183 76.323139 6.271417 72.462003 C 6.468142 69.013506 6.753394 65.574836 7.127172 62.13617 C 7.461604 59.080665 7.914072 56.034984 8.47474 53.008956 C 8.976389 50.297317 9.615746 47.615155 10.392811 44.972292 C 11.101021 42.584873 11.966612 40.246576 12.989584 37.967229 C 13.943701 35.864728 15.065036 33.840824 16.353586 31.924995 C 17.592955 30.087764 19.009377 28.378252 20.573343 26.80629 C 22.147143 25.244151 23.868489 23.829383 25.707871 22.591462 C 27.625943 21.304417 29.652213 20.184394 31.767009 19.241215 C 34.039187 18.219439 36.390053 17.354858 38.7901 16.6573 C 41.436057 15.881143 44.121356 15.242533 46.836162 14.741469 C 49.865733 14.181458 52.924808 13.729518 55.983886 13.395476 C 59.426578 13.022134 62.879108 12.737216 66.331638 12.540721 C 70.20712 12.31475 74.08261 12.167379 77.9581 12.088781 C 82.286049 11.990533 86.614006 11.941409 90.941963 11.951234 L 165.06803 11.951234 Z  M 165.077876 15.959741 C 169.376317 15.949916 173.674759 15.99904 177.973216 16.087463 C 181.799522 16.175886 185.625827 16.323257 189.452133 16.539402 C 192.835809 16.735898 196.219486 17.010992 199.583486 17.384332 C 202.554026 17.698726 205.514751 18.131016 208.445953 18.681203 C 211.023049 19.152792 213.580483 19.761928 216.098564 20.498786 C 218.321569 21.147221 220.495374 21.952852 222.600334 22.896029 C 224.508571 23.750785 226.338116 24.762737 228.069293 25.922059 C 229.692286 27.012609 231.207063 28.260355 232.59398 29.645648 C 233.980897 31.030941 235.230091 32.543956 236.331763 34.165043 C 237.492434 35.894202 238.505568 37.711787 239.361333 39.607968 C 240.305606 41.720292 241.112187 43.891565 241.761369 46.102139 C 242.508934 48.617282 243.108947 51.161898 243.590914 53.735987 C 244.131912 56.663768 244.564709 59.6112 244.889308 62.578282 C 245.263091 65.938355 245.538505 69.308252 245.735227 72.687976 C 245.951626 76.509812 246.10901 80.321821 246.187687 84.143656 C 246.276225 88.437084 246.325394 92.720685 246.325394 97.014106 C 246.325394 97.014106 246.325394 97.014106 246.325394 97.014106 L 246.325394 155.225886 C 246.325394 155.225886 246.325394 155.225886 246.325394 155.225886 C 246.325394 159.519306 246.276225 163.802907 246.187687 168.096328 C 246.10901 171.918164 245.951626 175.739999 245.735227 179.552015 C 245.538505 182.931739 245.263091 186.301629 244.889308 189.671533 C 244.564709 192.628784 244.131912 195.576216 243.590914 198.503994 C 243.108947 201.078094 242.508934 203.622706 241.761369 206.137845 C 241.112187 208.358253 240.305606 210.5197 239.361333 212.63202 C 238.505568 214.528209 237.492434 216.355617 236.331763 218.074952 C 235.230091 219.705853 233.980897 221.218876 232.59398 222.604172 C 231.207063 223.979634 229.692286 225.227385 228.069293 226.317935 C 226.338116 227.477251 224.508571 228.489201 222.600334 229.343951 C 220.495374 230.296956 218.321569 231.092775 216.098564 231.741198 C 213.580483 232.478056 211.023049 233.087202 208.445953 233.558787 C 205.514751 234.108972 202.554026 234.541264 199.583486 234.865483 C 196.219486 235.228995 192.835809 235.513922 189.452133 235.70058 C 185.625827 235.916726 181.799522 236.073926 177.973216 236.152526 C 173.674759 236.25078 169.376317 236.290072 165.077876 236.290072 C 165.077876 236.290072 165.077876 236.290072 165.06803 236.290072 L 90.941963 236.290072 C 90.932125 236.290072 90.932125 236.290072 90.932125 236.290072 C 86.633683 236.290072 82.335234 236.25078 78.036784 236.152526 C 74.210479 236.073926 70.384173 235.916726 66.557868 235.70058 C 63.174195 235.513922 59.790522 235.228995 56.426518 234.865483 C 53.455967 234.541264 50.495253 234.108972 47.564048 233.558787 C 44.986944 233.087202 42.429517 232.478056 39.911433 231.741198 C 37.688439 231.092775 35.514626 230.296956 33.409665 229.343951 C 31.501429 228.489201 29.671886 227.477251 27.940703 226.317935 C 26.31772 225.227385 24.802935 223.979634 23.416022 222.604172 C 22.029109 221.218876 20.779904 219.705853 19.678243 218.074952 C 18.517564 216.355617 17.504428 214.528209 16.648674 212.63202 C 15.704392 210.5197 14.897819 208.358253 14.248626 206.137845 C 13.50107 203.622706 12.901057 201.078094 12.419081 198.503994 C 11.878086 195.576216 11.445291 192.628784 11.120694 189.671533 C 10.746916 186.301629 10.471501 182.931739 10.274776 179.552015 C 10.058378 175.739999 9.900997 171.918164 9.822307 168.096328 C 9.733781 163.802907 9.6846 159.519306 9.6846 155.225886 C 9.6846 155.225886 9.6846 155.225886 9.6846 155.225886 L 9.6846 97.014106 C 9.6846 97.014106 9.6846 97.014106 9.6846 97.014106 C 9.6846 92.720685 9.733781 88.437084 9.822307 84.143656 C 9.900997 80.321821 10.058378 76.509812 10.274776 72.687976 C 10.471501 69.308252 10.746916 65.938355 11.120694 62.578282 C 11.445291 59.6112 11.878086 56.663768 12.419081 53.735987 C 12.901057 51.161898 13.50107 48.617282 14.248626 46.102139 C 14.897819 43.891565 15.704392 41.720292 16.648674 39.607968 C 17.504428 37.711787 18.517564 35.894202 19.678243 34.165043 C 20.779904 32.543956 22.029109 31.030941 23.416022 29.645648 C 24.802935 28.260355 26.31772 27.012609 27.940703 25.922059 C 29.671886 24.762737 31.501429 23.750785 33.409665 22.896029 C 35.514626 21.952852 37.688439 21.147221 39.911433 20.498786 C 42.429517 19.761928 44.986944 19.152792 47.564048 18.681203 C 50.495253 18.131016 53.455967 17.698726 56.426518 17.384332 C 59.790522 17.010992 63.174195 16.735898 66.557868 16.539402 C 70.384173 16.323257 74.210479 16.175886 78.036784 16.087463 C 82.335234 15.99904 86.633683 15.949916 90.932125 15.959741 C 90.932125 15.959741 90.932125 15.959741 90.941963 15.959741 L 165.06803 15.959741 C 165.077876 15.959741 165.077876 15.959741 165.077876 15.959741 Z "
       fill-rule="evenodd"
       id="highlight"
       fill="url(#_lgradient_1)" />
  </g>
  <path
     style="fill:#ffffff;fill-opacity:1;stroke-width:0.49090856"
     d="m 5.8924614,173.93998 c 0.8770409,17.72369 1.6961732,39.16637 14.7052226,52.25539 12.160399,11.33845 30.001751,12.61856 45.397234,13.53538 7.37676,0.43318 15.442475,0.55785 24.699435,0.55785 h 13.542967 11.32226 c 0.26011,-1.12182 0.42871,-2.41263 0.7063,-3.33229 1.12086,-3.68027 2.16257,-11.27398 2.16601,-15.78515 0.004,-5.51021 -1.35695,-15.59246 -3.16601,-23.46485 -0.21889,-0.95251 0.0259,-0.98242 8.2207,-0.98242 7.63456,0 8.80116,-0.11421 12.12891,-1.20117 2.58236,-0.84349 4.9288,-1.22653 7.85547,-1.28125 8.77915,-0.16417 15.65781,-5.03584 17.93359,-12.69922 0.44031,-1.48268 1.2624,-2.88351 2.0625,-3.52148 1.16015,-0.92507 1.32254,-1.39664 1.28906,-3.69727 -0.0636,-4.36565 -2.29831,-8.07543 -8.58984,-14.25781 l -5.33203,-5.23828 v -3.62891 c 0,-3.32526 -0.112,-3.73148 -1.34961,-4.88281 -1.96202,-1.82523 -3.6893,-2.07837 -6.29492,-0.92578 -1.21231,0.53626 -2.51082,0.85714 -2.88672,0.71289 -0.88182,-0.33839 -2.23242,-3.71595 -2.23242,-5.58203 0,-1.18688 0.48988,-1.80809 2.7246,-3.45899 2.99129,-2.20979 3.65626,-3.4053 3.65626,-6.56836 0,-3.37106 -3.68878,-7.65039 -6.59571,-7.65039 -0.67481,0 -2.45996,-1.46212 -4.98437,-4.08203 -2.26684,-2.35259 -4.88921,-4.54439 -6.18946,-5.17383 -2.32621,-1.1261 -7.95187,-2.27555 -8.74218,-1.78711 -0.24562,0.15179 -0.8284,-0.44961 -1.29688,-1.33593 -1.31047,-2.47926 -1.17743,-7.86518 0.26953,-10.845716 3.19154,-6.57415 12.53888,-12.02293 23.73633,-13.83398 2.43793,-0.39431 4.53319,-0.8164 4.65625,-0.93946 0.12306,-0.12306 -1.23971,-0.67637 -3.02734,-1.22851 -13.37764,-4.13193 -27.45315,-1.53751 -34.93164,6.4375 -1.1918,1.27093 -2.18305,2.26491 -2.20313,2.20898 -1.16754,-3.2548 1.57968,-11.67484 5.2207,-16.00195 0.72613,-0.86295 1.19739,-1.69129 1.04688,-1.8418 -0.10047,-0.10047 -0.29978,-0.13445 -0.57813,-0.11132 -1.94843,0.16188 -7.78926,3.12515 -10.994138,5.7246 -4.47274,3.62783 -8.78155,10.87728 -10.07812,16.95508 l -0.64453,3.027356 -1.26953,-2.699226 c -1.34636,-2.86459 -2.29269,-7.56305 -2.29883,-11.41406 -0.002,-1.2825 -0.17055,-2.32669 -0.37305,-2.32227 -0.60302,0.0135 -5.3103,8.19959 -7.89844,13.73633 -3.38092,7.232696 -5.47527,12.733746 -8.4082,22.089846 -7.56393,24.129 -10.60493,30.63057 -17.86523,38.19141 -7.10436,7.39846 -21.74601,11.8763 -29.395304,14.17611 -7.649295,2.29982 -12.1887617,2.48085 -15.7144466,2.16693 z"
     id="path886"
     inkscape:connector-curvature="0"
     sodipodi:nodetypes="cccscccccsscsccccscccscsscsccccsccccsccccccccsczc" />
  <path
     style="fill:#ffffff;fill-opacity:1;stroke-width:0.54509956"
     d="M 195.50391 48.845703 C 186.90244 48.801923 178.26018 50.969548 170.37305 55.269531 C 164.80256 58.306499 156.62515 66.513961 154.19727 71.503906 C 151.50416 77.038973 150.56356 81.327526 150.55469 88.130859 C 150.54339 96.818558 152.31548 102.56773 157.05469 109.22656 C 159.50555 112.67015 160.36027 115.79875 160.95117 123.49805 C 161.36076 128.83491 161.62629 130.10415 162.4668 130.71875 C 163.85504 131.73384 167.68644 131.6095 172.27344 130.39844 C 174.37207 129.84436 177.43896 128.84097 179.08789 128.16797 C 181.8346 127.04689 182.8617 126.95156 191.35156 127.04883 C 201.43661 127.16438 205.19807 126.63347 212.3457 124.08203 C 219.48661 121.53299 223.7532 118.97162 228.17578 114.57422 C 237.33943 105.46277 241.15935 91.501165 237.96094 78.814453 C 234.45306 64.900192 225.98945 56.345081 210.77148 51.330078 C 205.81112 49.695418 200.66479 48.871972 195.50391 48.845703 z M 177.92383 82.525391 A 7.5987597 7.5987597 0 0 1 178.68164 82.5625 A 7.5987597 7.5987597 0 0 1 179.43359 82.675781 A 7.5987597 7.5987597 0 0 1 180.16992 82.863281 A 7.5987597 7.5987597 0 0 1 180.88281 83.125 A 7.5987597 7.5987597 0 0 1 181.56641 83.455078 A 7.5987597 7.5987597 0 0 1 182.21484 83.851562 A 7.5987597 7.5987597 0 0 1 182.81836 84.3125 A 7.5987597 7.5987597 0 0 1 183.375 84.830078 A 7.5987597 7.5987597 0 0 1 183.875 85.400391 A 7.5987597 7.5987597 0 0 1 184.31836 86.017578 A 7.5987597 7.5987597 0 0 1 184.69531 86.675781 A 7.5987597 7.5987597 0 0 1 185.00586 87.369141 A 7.5987597 7.5987597 0 0 1 185.24609 88.089844 A 7.5987597 7.5987597 0 0 1 185.41211 88.832031 A 7.5987597 7.5987597 0 0 1 185.50391 89.585938 A 7.5987597 7.5987597 0 0 1 185.52148 90.123047 A 7.5987597 7.5987597 0 0 1 185.48438 90.882812 A 7.5987597 7.5987597 0 0 1 185.37109 91.632812 A 7.5987597 7.5987597 0 0 1 185.18359 92.369141 A 7.5987597 7.5987597 0 0 1 184.92188 93.082031 A 7.5987597 7.5987597 0 0 1 184.5918 93.765625 A 7.5987597 7.5987597 0 0 1 184.19531 94.414062 A 7.5987597 7.5987597 0 0 1 183.73633 95.019531 A 7.5987597 7.5987597 0 0 1 183.2168 95.574219 A 7.5987597 7.5987597 0 0 1 182.64648 96.076172 A 7.5987597 7.5987597 0 0 1 182.0293 96.517578 A 7.5987597 7.5987597 0 0 1 181.37109 96.894531 A 7.5987597 7.5987597 0 0 1 180.67773 97.205078 A 7.5987597 7.5987597 0 0 1 179.95703 97.445312 A 7.5987597 7.5987597 0 0 1 179.21484 97.611328 A 7.5987597 7.5987597 0 0 1 178.46094 97.703125 A 7.5987597 7.5987597 0 0 1 177.92383 97.722656 A 7.5987597 7.5987597 0 0 1 177.16406 97.683594 A 7.5987597 7.5987597 0 0 1 176.41406 97.570312 A 7.5987597 7.5987597 0 0 1 175.67773 97.382812 A 7.5987597 7.5987597 0 0 1 174.96484 97.123047 A 7.5987597 7.5987597 0 0 1 174.28125 96.791016 A 7.5987597 7.5987597 0 0 1 173.63281 96.394531 A 7.5987597 7.5987597 0 0 1 173.02734 95.935547 A 7.5987597 7.5987597 0 0 1 172.47266 95.417969 A 7.5987597 7.5987597 0 0 1 171.9707 94.847656 A 7.5987597 7.5987597 0 0 1 171.5293 94.228516 A 7.5987597 7.5987597 0 0 1 171.15234 93.570312 A 7.5987597 7.5987597 0 0 1 170.8418 92.876953 A 7.5987597 7.5987597 0 0 1 170.60156 92.15625 A 7.5987597 7.5987597 0 0 1 170.43555 91.414062 A 7.5987597 7.5987597 0 0 1 170.34375 90.660156 A 7.5987597 7.5987597 0 0 1 170.32422 90.123047 A 7.5987597 7.5987597 0 0 1 170.36328 89.365234 A 7.5987597 7.5987597 0 0 1 170.47656 88.613281 A 7.5987597 7.5987597 0 0 1 170.66406 87.876953 A 7.5987597 7.5987597 0 0 1 170.92383 87.164062 A 7.5987597 7.5987597 0 0 1 171.25586 86.480469 A 7.5987597 7.5987597 0 0 1 171.65234 85.832031 A 7.5987597 7.5987597 0 0 1 172.11133 85.228516 A 7.5987597 7.5987597 0 0 1 172.62891 84.671875 A 7.5987597 7.5987597 0 0 1 173.19922 84.171875 A 7.5987597 7.5987597 0 0 1 173.81836 83.728516 A 7.5987597 7.5987597 0 0 1 174.47656 83.351562 A 7.5987597 7.5987597 0 0 1 175.16992 83.041016 A 7.5987597 7.5987597 0 0 1 175.89062 82.800781 A 7.5987597 7.5987597 0 0 1 176.63281 82.634766 A 7.5987597 7.5987597 0 0 1 177.38672 82.542969 A 7.5987597 7.5987597 0 0 1 177.92383 82.525391 z M 196.13281 82.525391 C 196.38587 82.525134 196.63879 82.53752 196.89062 82.5625 C 197.14301 82.58769 197.39397 82.62549 197.64258 82.675781 C 197.891 82.725961 198.13675 82.788541 198.37891 82.863281 C 198.62075 82.938581 198.85868 83.025933 199.0918 83.125 C 199.32502 83.22357 199.55317 83.333732 199.77539 83.455078 C 199.99802 83.57634 200.21443 83.708669 200.42383 83.851562 C 200.63256 83.995053 200.83398 84.148892 201.02734 84.3125 C 201.2214 84.475632 201.40718 84.648374 201.58398 84.830078 C 201.76004 85.011741 201.92691 85.202082 202.08398 85.400391 C 202.24197 85.598597 202.38994 85.804583 202.52734 86.017578 C 202.66387 86.230567 202.78968 86.450242 202.9043 86.675781 C 203.01931 86.901579 203.12295 87.132988 203.21484 87.369141 C 203.30694 87.60522 203.38707 87.845754 203.45508 88.089844 C 203.52278 88.334314 203.57818 88.582019 203.62109 88.832031 C 203.66419 89.081646 203.69489 89.333261 203.71289 89.585938 C 203.72509 89.764711 203.73097 89.943859 203.73047 90.123047 C 203.73079 90.376763 203.71836 90.630337 203.69336 90.882812 C 203.66816 91.134542 203.63026 91.384856 203.58008 91.632812 C 203.52988 91.88123 203.46732 92.126978 203.39258 92.369141 C 203.31728 92.610985 203.22993 92.848912 203.13086 93.082031 C 203.03226 93.315253 202.92213 93.543402 202.80078 93.765625 C 202.67952 93.988249 202.54719 94.204665 202.4043 94.414062 C 202.26086 94.623458 202.10702 94.825533 201.94336 95.019531 C 201.78018 95.21293 201.60743 95.398056 201.42578 95.574219 C 201.24417 95.750941 201.05382 95.918468 200.85547 96.076172 C 200.65722 96.233494 200.45123 96.380813 200.23828 96.517578 C 200.02529 96.654108 199.80562 96.779915 199.58008 96.894531 C 199.35428 97.009543 199.12287 97.113188 198.88672 97.205078 C 198.65064 97.297118 198.41011 97.377302 198.16602 97.445312 C 197.92155 97.513002 197.67384 97.568412 197.42383 97.611328 C 197.17421 97.654478 196.9226 97.685105 196.66992 97.703125 C 196.49117 97.715965 196.31202 97.722486 196.13281 97.722656 C 195.87906 97.722329 195.62549 97.709294 195.37305 97.683594 C 195.12132 97.658344 194.87101 97.620536 194.62305 97.570312 C 194.37463 97.520134 194.12888 97.457554 193.88672 97.382812 C 193.64491 97.308154 193.40699 97.221452 193.17383 97.123047 C 192.94057 97.023837 192.71242 96.913026 192.49023 96.791016 C 192.26761 96.669753 192.05119 96.537426 191.8418 96.394531 C 191.63245 96.251728 191.43037 96.098542 191.23633 95.935547 C 191.04293 95.772364 190.8578 95.599623 190.68164 95.417969 C 190.50492 95.236353 190.33739 95.046011 190.17969 94.847656 C 190.02231 94.648772 189.87499 94.442133 189.73828 94.228516 C 189.60175 94.015527 189.47594 93.795853 189.36133 93.570312 C 189.24632 93.344515 189.14267 93.113106 189.05078 92.876953 C 188.95878 92.640874 188.87856 92.400339 188.81055 92.15625 C 188.74285 91.91178 188.68745 91.664075 188.64453 91.414062 C 188.60143 91.164447 188.57073 90.912831 188.55273 90.660156 C 188.53993 90.481406 188.5333 90.302258 188.5332 90.123047 C 188.53359 89.86995 188.54657 89.61703 188.57227 89.365234 C 188.59747 89.11285 188.63527 88.861884 188.68555 88.613281 C 188.73575 88.364865 188.79831 88.119115 188.87305 87.876953 C 188.94775 87.635145 189.03441 87.39722 189.13281 87.164062 C 189.23201 86.930802 189.34283 86.702653 189.46484 86.480469 C 189.5861 86.257845 189.71843 86.041428 189.86133 85.832031 C 190.00419 85.623347 190.15737 85.421925 190.32031 85.228516 C 190.48344 85.034451 190.65619 84.848672 190.83789 84.671875 C 191.01955 84.495819 191.20989 84.328944 191.4082 84.171875 C 191.60704 84.013834 191.81368 83.865862 192.02734 83.728516 C 192.24033 83.591986 192.46001 83.466179 192.68555 83.351562 C 192.91135 83.236552 193.14276 83.132906 193.37891 83.041016 C 193.61499 82.948976 193.85552 82.868793 194.09961 82.800781 C 194.34408 82.733091 194.59179 82.677681 194.8418 82.634766 C 195.09141 82.591616 195.34303 82.560989 195.5957 82.542969 C 195.77447 82.530779 195.95362 82.524921 196.13281 82.525391 z M 214.3418 82.525391 A 7.5987597 7.5987597 0 0 1 215.09961 82.5625 A 7.5987597 7.5987597 0 0 1 215.85156 82.675781 A 7.5987597 7.5987597 0 0 1 216.58594 82.863281 A 7.5987597 7.5987597 0 0 1 217.30078 83.125 A 7.5987597 7.5987597 0 0 1 217.98438 83.455078 A 7.5987597 7.5987597 0 0 1 218.63281 83.851562 A 7.5987597 7.5987597 0 0 1 219.23633 84.3125 A 7.5987597 7.5987597 0 0 1 219.79297 84.830078 A 7.5987597 7.5987597 0 0 1 220.29297 85.400391 A 7.5987597 7.5987597 0 0 1 220.73633 86.017578 A 7.5987597 7.5987597 0 0 1 221.11328 86.675781 A 7.5987597 7.5987597 0 0 1 221.42383 87.369141 A 7.5987597 7.5987597 0 0 1 221.66406 88.089844 A 7.5987597 7.5987597 0 0 1 221.83008 88.832031 A 7.5987597 7.5987597 0 0 1 221.92188 89.585938 A 7.5987597 7.5987597 0 0 1 221.93945 90.123047 A 7.5987597 7.5987597 0 0 1 221.90234 90.882812 A 7.5987597 7.5987597 0 0 1 221.78906 91.632812 A 7.5987597 7.5987597 0 0 1 221.60156 92.369141 A 7.5987597 7.5987597 0 0 1 221.33984 93.082031 A 7.5987597 7.5987597 0 0 1 221.00977 93.765625 A 7.5987597 7.5987597 0 0 1 220.61328 94.414062 A 7.5987597 7.5987597 0 0 1 220.15234 95.019531 A 7.5987597 7.5987597 0 0 1 219.63477 95.574219 A 7.5987597 7.5987597 0 0 1 219.06445 96.076172 A 7.5987597 7.5987597 0 0 1 218.44727 96.517578 A 7.5987597 7.5987597 0 0 1 217.78711 96.894531 A 7.5987597 7.5987597 0 0 1 217.0957 97.205078 A 7.5987597 7.5987597 0 0 1 216.37305 97.445312 A 7.5987597 7.5987597 0 0 1 215.63281 97.611328 A 7.5987597 7.5987597 0 0 1 214.87891 97.703125 A 7.5987597 7.5987597 0 0 1 214.3418 97.722656 A 7.5987597 7.5987597 0 0 1 213.58203 97.683594 A 7.5987597 7.5987597 0 0 1 212.83203 97.570312 A 7.5987597 7.5987597 0 0 1 212.0957 97.382812 A 7.5987597 7.5987597 0 0 1 211.38281 97.123047 A 7.5987597 7.5987597 0 0 1 210.69922 96.791016 A 7.5987597 7.5987597 0 0 1 210.05078 96.394531 A 7.5987597 7.5987597 0 0 1 209.44531 95.935547 A 7.5987597 7.5987597 0 0 1 208.89062 95.417969 A 7.5987597 7.5987597 0 0 1 208.38867 94.847656 A 7.5987597 7.5987597 0 0 1 207.94727 94.228516 A 7.5987597 7.5987597 0 0 1 207.56836 93.570312 A 7.5987597 7.5987597 0 0 1 207.25977 92.876953 A 7.5987597 7.5987597 0 0 1 207.01953 92.15625 A 7.5987597 7.5987597 0 0 1 206.85352 91.414062 A 7.5987597 7.5987597 0 0 1 206.76172 90.660156 A 7.5987597 7.5987597 0 0 1 206.74219 90.123047 A 7.5987597 7.5987597 0 0 1 206.78125 89.365234 A 7.5987597 7.5987597 0 0 1 206.89453 88.613281 A 7.5987597 7.5987597 0 0 1 207.08203 87.876953 A 7.5987597 7.5987597 0 0 1 207.3418 87.164062 A 7.5987597 7.5987597 0 0 1 207.67188 86.480469 A 7.5987597 7.5987597 0 0 1 208.07031 85.832031 A 7.5987597 7.5987597 0 0 1 208.5293 85.228516 A 7.5987597 7.5987597 0 0 1 209.04688 84.671875 A 7.5987597 7.5987597 0 0 1 209.61719 84.171875 A 7.5987597 7.5987597 0 0 1 210.23633 83.728516 A 7.5987597 7.5987597 0 0 1 210.89453 83.351562 A 7.5987597 7.5987597 0 0 1 211.58789 83.041016 A 7.5987597 7.5987597 0 0 1 212.30859 82.800781 A 7.5987597 7.5987597 0 0 1 213.04883 82.634766 A 7.5987597 7.5987597 0 0 1 213.80469 82.542969 A 7.5987597 7.5987597 0 0 1 214.3418 82.525391 z "
     id="path1032" />
  <g
     id="g1080"
     transform="translate(-1.2948967,1.529289)" />
</svg>
