<?xml version="1.0" standalone="no"?><!-- Generator: Gravit.io --><svg xmlns="http://www.w3.org/2000/svg" xmlns:xlink="http://www.w3.org/1999/xlink" style="isolation:isolate" viewBox="0 0 256 256" width="256" height="256"><g id="Group" filter="url(#lFapr11GgjPpITaz3DRTREMLcn3yXHiz)"><linearGradient id="_lgradient_287" x1="-0.033" y1="-0.071" x2="1.033" y2="0.9239327523625782" gradientTransform="matrix(244.648,0,0,228.338,5.676,11.947)" gradientUnits="userSpaceOnUse"><stop offset="0%" stop-opacity="100" style="stop-color:rgb(88,132,244)"/><stop offset="100%" stop-opacity="100" style="stop-color:rgb(128,163,250)"/></linearGradient><path d=" M 165.685 11.947 C 239.74 11.947 250.324 22.504 250.324 96.491 L 250.324 155.742 C 250.324 229.728 239.74 240.285 165.685 240.285 L 90.315 240.285 C 16.26 240.285 5.676 229.728 5.676 155.742 L 5.676 96.491 C 5.676 22.504 16.26 11.947 90.315 11.947 L 165.685 11.947 L 165.685 11.947 Z " id="Path" fill="url(#_lgradient_287)"/></g><defs><filter id="lFapr11GgjPpITaz3DRTREMLcn3yXHiz" x="-200%" y="-200%" width="400%" height="400%" filterUnits="objectBoundingBox" color-interpolation-filters="sRGB"><feGaussianBlur xmlns="http://www.w3.org/2000/svg" in="SourceGraphic" stdDeviation="4.294"/><feOffset xmlns="http://www.w3.org/2000/svg" dx="0" dy="4" result="pf_100_offsetBlur"/><feFlood xmlns="http://www.w3.org/2000/svg" flood-color="#000000" flood-opacity="0.4"/><feComposite xmlns="http://www.w3.org/2000/svg" in2="pf_100_offsetBlur" operator="in" result="pf_100_dropShadow"/><feBlend xmlns="http://www.w3.org/2000/svg" in="SourceGraphic" in2="pf_100_dropShadow" mode="normal"/></filter></defs><g id="Group"><g opacity="0.2"><linearGradient id="_lgradient_288" x1="0.4829991604709476" y1="0.42699999999999994" x2="0.7226636489495244" y2="0.7364485665819922" gradientTransform="matrix(243.716424,0,0,118.493,6.875,121.736)" gradientUnits="userSpaceOnUse"><stop offset="0%" stop-opacity="100" style="stop-color:rgb(255,255,255)"/><stop offset="100%" stop-opacity="0" style="stop-color:rgb(255,255,255)"/></linearGradient><path d=" M 193.625 239.375 C 218.875 237.625 232.814 231.716 239.75 220.875 C 243.159 215.812 245.898 208.296 247.5 199.625 C 252.606 171.991 249.766 132.45 250.107 121.736 C 239.34 123.131 230.421 131.161 228.082 142.006 C 227.681 142.531 227.299 143.071 226.937 143.624 C 225.41 143.008 223.778 142.69 222.131 142.686 C 215.211 142.694 209.524 148.149 209.227 155.063 C 202.424 156.098 195.694 157.571 189.08 159.473 C 185.905 149.877 176.94 143.395 166.833 143.387 C 154.457 143.401 144.222 153.029 143.451 165.38 C 141.818 165.054 140.157 164.889 138.491 164.887 C 124.459 164.888 113.083 176.263 113.083 190.296 C 113.091 194.755 114.272 199.133 116.507 202.99 C 112.339 207.262 108.414 211.764 104.749 216.475 C 96.299 209.976 87.116 204.491 77.388 200.131 C 76.704 189.999 68.287 182.13 58.131 182.128 C 56.878 182.134 55.628 182.262 54.399 182.51 C 51.757 172.996 43.095 166.412 33.221 166.411 C 21.081 166.412 11.24 176.253 11.241 188.393 C 11.244 188.512 11.249 188.632 11.253 188.751 C 10.023 188.861 8.498 188.872 6.875 188.861 C 7.125 191.25 9.375 219.25 22.875 227.875 Q 35.625 239.25 76.125 240.229 L 177.125 240.229 Q 185.434 239.997 193.625 239.375 Z " id="Path" fill="url(#_lgradient_288)"/></g><g opacity="0.3"><linearGradient id="_lgradient_289" x1="0.02899981405488583" y1="0.02300000000000002" x2="0.9709937740446271" y2="0.9639939664016417" gradientTransform="matrix(155.96,0,0,155.959,50.02,32.79)" gradientUnits="userSpaceOnUse"><stop offset="0%" stop-opacity="0" style="stop-color:rgb(0,0,0)"/><stop offset="50.477%" stop-opacity="100" style="stop-color:rgb(0,0,0)"/><stop offset="100%" stop-opacity="0" style="stop-color:rgb(0,0,0)"/></linearGradient><path d=" M 107.105 32.79 L 95.04 53.685 L 70.915 53.685 L 70.915 77.809 L 50.02 89.874 L 62.084 110.769 L 50.02 131.664 L 70.915 143.728 L 70.915 167.854 L 95.042 167.854 L 107.105 188.749 L 128 176.686 L 148.895 188.749 L 160.96 167.854 L 185.085 167.854 L 185.085 143.73 L 205.98 131.664 L 193.916 110.769 L 205.98 89.874 L 185.085 77.811 L 185.085 53.685 L 160.958 53.685 L 148.895 32.79 L 128 44.853 L 107.105 32.79 L 107.105 32.79 Z " id="Path" fill="url(#_lgradient_289)"/></g><rect x="109.908" y="42.22" width="57.084" height="57.084" transform="matrix(0.500011,0.866019,-0.866019,0.500011,130.504779,-84.519994)" id="Rectangle" fill="rgb(254,223,124)"/><rect x="138.448" y="91.656" width="57.084" height="57.084" transform="matrix(0.500011,0.866019,-0.866019,0.500011,187.586651,-84.518867)" id="Rectangle" fill="rgb(249,192,16)"/><rect x="89.012" y="120.196" width="57.084" height="57.084" transform="matrix(0.500011,0.866019,-0.866019,0.500011,187.585524,-27.436995)" id="Rectangle" fill="rgb(251,205,66)"/><rect x="60.472" y="70.76" width="57.084" height="57.084" transform="matrix(0.500011,0.866019,-0.866019,0.500011,130.503652,-27.438122)" id="Rectangle" fill="rgb(250,230,149)"/><rect x="138.449" y="70.759" width="57.084" height="57.084" transform="matrix(-0.500011,0.866019,-0.866019,-0.500011,336.484793,4.335773)" id="Rectangle" fill="rgb(251,205,66)"/><rect x="109.904" y="120.197" width="57.084" height="57.084" transform="matrix(-0.500011,0.866019,-0.866019,-0.500011,336.480615,103.212906)" id="Rectangle" fill="rgb(249,192,16)"/><rect x="60.467" y="91.652" width="57.084" height="57.084" transform="matrix(-0.500011,0.866019,-0.866019,-0.500011,237.603483,103.208727)" id="Rectangle" fill="rgb(254,223,124)"/><rect x="89.012" y="42.214" width="57.084" height="57.084" transform="matrix(-0.500011,0.866019,-0.866019,-0.500011,237.607661,4.331595)" id="Rectangle" fill="rgb(250,230,149)"/><clipPath id="_clipPath_JnnCMpJX2QmAwEElZsZSh8kktZwpP6bU"><path d=" M 107.297 32.487 L 95.344 53.19 L 71.44 53.19 L 71.44 77.094 L 50.737 89.047 L 62.69 109.75 L 50.737 130.453 L 86.595 151.155 L 107.297 187.013 L 128 175.06 L 148.703 187.013 L 169.405 151.155 L 205.263 130.453 L 193.31 109.75 L 205.263 89.047 L 169.405 68.345 L 148.703 32.487 L 128 44.44 L 107.297 32.487 L 107.297 32.487 Z " id="Path" fill="rgb(255,255,255)"/></clipPath><g clip-path="url(#_clipPath_JnnCMpJX2QmAwEElZsZSh8kktZwpP6bU)"><g id="Group"><g id="Group" style="opacity:0.62900002;" filter="url(#wohXEJ0e8F8TGhs0NkEBfgsqtTrsf5Jz)"><g id="Group" style="opacity:0.629;"><g opacity="0.629"><path d=" M 128 53.189 C 96.901 53.198 71.642 78.313 71.456 109.412 L 71.439 109.412 L 71.439 109.75 L 71.439 166.311 L 127.981 166.311 L 127.981 166.31 C 127.987 166.31 127.994 166.31 128 166.311 C 159.099 166.302 184.358 141.187 184.544 110.088 L 184.561 110.088 L 184.561 109.75 L 184.561 53.189 L 128.019 53.189 L 128.019 53.19 C 128.013 53.19 128.006 53.189 128 53.189 L 128 53.189 L 128 53.189 Z " id="Path" fill="rgb(231,177,8)"/></g></g></g><defs><filter id="wohXEJ0e8F8TGhs0NkEBfgsqtTrsf5Jz" x="-200%" y="-200%" width="400%" height="400%" filterUnits="objectBoundingBox" color-interpolation-filters="sRGB"><feGaussianBlur xmlns="http://www.w3.org/2000/svg" stdDeviation="5.549"/></filter></defs></g></g><rect x="70.92" y="52.66" width="57.085" height="53.007" transform="matrix(1,0,0,1,0,0)" id="Rectangle" fill="rgb(251,237,179)"/><rect x="128" y="113.83" width="57.085" height="53.007" transform="matrix(1,0,0,1,0,0)" id="Rectangle" fill="rgb(249,192,16)"/><path d=" M 128 52.665 C 96.612 52.674 71.12 78.022 70.932 109.409 L 70.915 109.409 L 70.915 109.75 L 70.915 166.835 L 127.981 166.835 L 127.981 166.834 C 127.987 166.834 127.994 166.834 128 166.835 C 159.388 166.826 184.88 141.478 185.068 110.091 L 185.085 110.091 L 185.085 109.75 L 185.085 52.665 L 128.019 52.665 L 128.019 52.666 C 128.013 52.666 128.006 52.666 128 52.665 L 128 52.665 L 128 52.665 Z " id="Path" fill="rgb(254,217,101)"/><g opacity="0.8"><path d=" M 128 52.665 C 96.612 52.673 71.118 78.022 70.931 109.41 L 70.915 109.41 L 70.915 109.75 L 70.915 111.448 L 70.931 111.448 C 71.118 80.06 96.612 54.712 128 54.704 C 128.007 54.704 128.013 54.704 128.02 54.704 L 185.085 54.704 L 185.085 52.665 L 128.02 52.665 C 128.013 52.665 128.007 52.665 128 52.665 L 128 52.665 L 128 52.665 Z " id="Path" fill="rgb(255,255,255)"/></g><g opacity="0.3"><path d=" M 166.736 110.769 C 153.426 110.779 141.456 118.876 136.493 131.226 C 124.803 132.115 115.77 141.859 115.768 153.583 C 115.768 165.968 125.808 176.009 138.194 176.009 L 166.626 176.009 L 166.736 176.009 L 187.123 176.009 C 199.509 176.009 209.549 165.968 209.549 153.583 C 209.548 145.403 205.093 137.872 197.924 133.932 C 193.761 120.187 181.097 110.783 166.736 110.769 L 166.736 110.769 L 166.736 110.769 Z " id="Path" fill="rgb(0,0,0)"/></g><path d=" M 166.736 109.75 C 153.426 109.76 141.456 117.856 136.493 130.207 C 124.803 131.096 115.77 140.839 115.768 152.563 C 115.768 164.949 125.808 174.99 138.194 174.99 L 166.626 174.99 L 166.736 174.99 L 187.123 174.99 C 199.509 174.99 209.549 164.949 209.549 152.563 C 209.548 144.383 205.093 136.852 197.924 132.913 C 193.761 119.168 181.097 109.763 166.736 109.75 L 166.736 109.75 L 166.736 109.75 Z " id="Path" fill="rgb(236,249,254)"/><path d=" M 166.736 109.75 C 153.426 109.76 141.456 117.856 136.493 130.207 C 124.803 131.096 115.77 140.839 115.768 152.563 C 115.777 152.897 115.793 153.23 115.817 153.563 C 116.343 142.258 125.21 133.117 136.493 132.246 C 141.456 119.895 153.426 111.799 166.736 111.789 C 181.098 111.802 193.761 121.207 197.924 134.951 C 204.819 138.752 209.215 145.891 209.508 153.758 C 209.532 153.36 209.546 152.962 209.549 152.563 C 209.548 144.383 205.093 136.852 197.924 132.913 C 193.761 119.168 181.098 109.763 166.736 109.75 L 166.736 109.75 L 166.736 109.75 Z " id="Path" fill="rgb(255,255,255)"/></g><g opacity="0.4"><linearGradient id="_lgradient_290" x1="0.5166666666666668" y1="0" x2="0.5166666666666666" y2="1.0000000000000002" gradientTransform="matrix(244.65,0,0,228.34,5.68,11.95)" gradientUnits="userSpaceOnUse"><stop offset="0%" stop-opacity="1" style="stop-color:rgb(255,255,255)"/><stop offset="12.5%" stop-opacity="0.09803922" style="stop-color:rgb(255,255,255)"/><stop offset="92.500001%" stop-opacity="0.09803922" style="stop-color:rgb(0,0,0)"/><stop offset="100%" stop-opacity="0.49803922" style="stop-color:rgb(0,0,0)"/></linearGradient><path d=" M 165.06803 11.951234 C 169.395994 11.941409 173.723944 11.990533 178.051908 12.088781 C 181.927398 12.167379 185.802873 12.31475 189.678362 12.540721 C 193.1309 12.737216 196.583423 13.022134 200.026115 13.395476 C 203.085193 13.729518 206.144271 14.181458 209.173842 14.741469 C 211.888645 15.242533 214.57394 15.881143 217.219897 16.6573 C 219.619947 17.354858 221.970814 18.219439 224.242988 19.241215 C 226.357793 20.184394 228.384061 21.304417 230.302129 22.591462 C 232.141505 23.829383 233.862851 25.244151 235.436659 26.80629 C 237.000621 28.378252 238.417046 30.087764 239.656409 31.924995 C 240.944972 33.840824 242.066305 35.864728 243.020409 37.967229 C 244.043389 40.246576 244.908985 42.584873 245.617197 44.972292 C 246.394255 47.615155 247.033606 50.297317 247.535265 53.008956 C 248.095924 56.034984 248.548399 59.080665 248.882828 62.13617 C 249.256611 65.574836 249.541856 69.013506 249.738578 72.462003 C 249.964823 76.323139 250.112361 80.194101 250.200884 84.055237 C 250.289421 88.378131 250.338591 92.701032 250.32876 97.014106 L 250.32876 155.225886 C 250.338591 159.54878 250.289421 163.861854 250.200884 168.184747 C 250.112361 172.05571 249.964823 175.916853 249.738578 179.777981 C 249.541856 183.226485 249.256611 186.674975 248.882828 190.103826 C 248.548399 193.15933 248.095924 196.214835 247.535265 199.240851 C 247.033606 201.942664 246.394255 204.624837 245.617197 207.267703 C 244.908985 209.655115 244.043389 212.003235 243.020409 214.272755 C 242.066305 216.38509 240.944972 218.399156 239.656409 220.314999 C 238.417046 222.152226 237.000621 223.871561 235.436659 225.433697 C 233.862851 226.995832 232.141505 228.410601 230.302129 229.648532 C 228.384061 230.935575 226.357793 232.055598 224.242988 232.998768 C 221.970814 234.020552 219.619947 234.885137 217.219897 235.592507 C 214.57394 236.368672 211.888645 237.007276 209.173842 237.498515 C 206.144271 238.068354 203.085193 238.510465 200.026115 238.844519 C 196.583423 239.21785 193.1309 239.502777 189.678362 239.699269 C 185.802873 239.925235 181.927398 240.072615 178.051908 240.161035 C 173.723944 240.249454 169.395994 240.298581 165.06803 240.288762 L 90.941963 240.288762 C 86.614006 240.298581 82.286049 240.249454 77.9581 240.161035 C 74.08261 240.072615 70.20712 239.925235 66.331638 239.699269 C 62.879108 239.502777 59.426578 239.21785 55.983886 238.844519 C 52.924808 238.510465 49.865733 238.068354 46.836162 237.498515 C 44.121356 237.007276 41.436057 236.368672 38.7901 235.592507 C 36.390053 234.885137 34.039187 234.020552 31.767009 232.998768 C 29.652213 232.055598 27.625943 230.935575 25.707871 229.648532 C 23.868489 228.410601 22.147143 226.995832 20.573343 225.433697 C 19.009377 223.871561 17.592955 222.152226 16.353586 220.314999 C 15.065036 218.399156 13.943701 216.38509 12.989584 214.272755 C 11.966612 212.003235 11.101021 209.655115 10.392811 207.267703 C 9.615746 204.624837 8.976389 201.942664 8.47474 199.240851 C 7.914072 196.214835 7.461604 193.15933 7.127172 190.103826 C 6.753394 186.674975 6.468142 183.226485 6.271417 179.777981 C 6.045183 175.916853 5.897639 172.05571 5.809112 168.184747 C 5.720586 163.861854 5.671405 159.54878 5.681241 155.225886 L 5.681241 97.014106 C 5.671405 92.701032 5.720586 88.378131 5.809112 84.055237 C 5.897639 80.194101 6.045183 76.323139 6.271417 72.462003 C 6.468142 69.013506 6.753394 65.574836 7.127172 62.13617 C 7.461604 59.080665 7.914072 56.034984 8.47474 53.008956 C 8.976389 50.297317 9.615746 47.615155 10.392811 44.972292 C 11.101021 42.584873 11.966612 40.246576 12.989584 37.967229 C 13.943701 35.864728 15.065036 33.840824 16.353586 31.924995 C 17.592955 30.087764 19.009377 28.378252 20.573343 26.80629 C 22.147143 25.244151 23.868489 23.829383 25.707871 22.591462 C 27.625943 21.304417 29.652213 20.184394 31.767009 19.241215 C 34.039187 18.219439 36.390053 17.354858 38.7901 16.6573 C 41.436057 15.881143 44.121356 15.242533 46.836162 14.741469 C 49.865733 14.181458 52.924808 13.729518 55.983886 13.395476 C 59.426578 13.022134 62.879108 12.737216 66.331638 12.540721 C 70.20712 12.31475 74.08261 12.167379 77.9581 12.088781 C 82.286049 11.990533 86.614006 11.941409 90.941963 11.951234 L 165.06803 11.951234 Z  M 165.077876 15.959741 C 169.376317 15.949916 173.674759 15.99904 177.973216 16.087463 C 181.799522 16.175886 185.625827 16.323257 189.452133 16.539402 C 192.835809 16.735898 196.219486 17.010992 199.583486 17.384332 C 202.554026 17.698726 205.514751 18.131016 208.445953 18.681203 C 211.023049 19.152792 213.580483 19.761928 216.098564 20.498786 C 218.321569 21.147221 220.495374 21.952852 222.600334 22.896029 C 224.508571 23.750785 226.338116 24.762737 228.069293 25.922059 C 229.692286 27.012609 231.207063 28.260355 232.59398 29.645648 C 233.980897 31.030941 235.230091 32.543956 236.331763 34.165043 C 237.492434 35.894202 238.505568 37.711787 239.361333 39.607968 C 240.305606 41.720292 241.112187 43.891565 241.761369 46.102139 C 242.508934 48.617282 243.108947 51.161898 243.590914 53.735987 C 244.131912 56.663768 244.564709 59.6112 244.889308 62.578282 C 245.263091 65.938355 245.538505 69.308252 245.735227 72.687976 C 245.951626 76.509812 246.10901 80.321821 246.187687 84.143656 C 246.276225 88.437084 246.325394 92.720685 246.325394 97.014106 C 246.325394 97.014106 246.325394 97.014106 246.325394 97.014106 L 246.325394 155.225886 C 246.325394 155.225886 246.325394 155.225886 246.325394 155.225886 C 246.325394 159.519306 246.276225 163.802907 246.187687 168.096328 C 246.10901 171.918164 245.951626 175.739999 245.735227 179.552015 C 245.538505 182.931739 245.263091 186.301629 244.889308 189.671533 C 244.564709 192.628784 244.131912 195.576216 243.590914 198.503994 C 243.108947 201.078094 242.508934 203.622706 241.761369 206.137845 C 241.112187 208.358253 240.305606 210.5197 239.361333 212.63202 C 238.505568 214.528209 237.492434 216.355617 236.331763 218.074952 C 235.230091 219.705853 233.980897 221.218876 232.59398 222.604172 C 231.207063 223.979634 229.692286 225.227385 228.069293 226.317935 C 226.338116 227.477251 224.508571 228.489201 222.600334 229.343951 C 220.495374 230.296956 218.321569 231.092775 216.098564 231.741198 C 213.580483 232.478056 211.023049 233.087202 208.445953 233.558787 C 205.514751 234.108972 202.554026 234.541264 199.583486 234.865483 C 196.219486 235.228995 192.835809 235.513922 189.452133 235.70058 C 185.625827 235.916726 181.799522 236.073926 177.973216 236.152526 C 173.674759 236.25078 169.376317 236.290072 165.077876 236.290072 C 165.077876 236.290072 165.077876 236.290072 165.06803 236.290072 L 90.941963 236.290072 C 90.932125 236.290072 90.932125 236.290072 90.932125 236.290072 C 86.633683 236.290072 82.335234 236.25078 78.036784 236.152526 C 74.210479 236.073926 70.384173 235.916726 66.557868 235.70058 C 63.174195 235.513922 59.790522 235.228995 56.426518 234.865483 C 53.455967 234.541264 50.495253 234.108972 47.564048 233.558787 C 44.986944 233.087202 42.429517 232.478056 39.911433 231.741198 C 37.688439 231.092775 35.514626 230.296956 33.409665 229.343951 C 31.501429 228.489201 29.671886 227.477251 27.940703 226.317935 C 26.31772 225.227385 24.802935 223.979634 23.416022 222.604172 C 22.029109 221.218876 20.779904 219.705853 19.678243 218.074952 C 18.517564 216.355617 17.504428 214.528209 16.648674 212.63202 C 15.704392 210.5197 14.897819 208.358253 14.248626 206.137845 C 13.50107 203.622706 12.901057 201.078094 12.419081 198.503994 C 11.878086 195.576216 11.445291 192.628784 11.120694 189.671533 C 10.746916 186.301629 10.471501 182.931739 10.274776 179.552015 C 10.058378 175.739999 9.900997 171.918164 9.822307 168.096328 C 9.733781 163.802907 9.6846 159.519306 9.6846 155.225886 C 9.6846 155.225886 9.6846 155.225886 9.6846 155.225886 L 9.6846 97.014106 C 9.6846 97.014106 9.6846 97.014106 9.6846 97.014106 C 9.6846 92.720685 9.733781 88.437084 9.822307 84.143656 C 9.900997 80.321821 10.058378 76.509812 10.274776 72.687976 C 10.471501 69.308252 10.746916 65.938355 11.120694 62.578282 C 11.445291 59.6112 11.878086 56.663768 12.419081 53.735987 C 12.901057 51.161898 13.50107 48.617282 14.248626 46.102139 C 14.897819 43.891565 15.704392 41.720292 16.648674 39.607968 C 17.504428 37.711787 18.517564 35.894202 19.678243 34.165043 C 20.779904 32.543956 22.029109 31.030941 23.416022 29.645648 C 24.802935 28.260355 26.31772 27.012609 27.940703 25.922059 C 29.671886 24.762737 31.501429 23.750785 33.409665 22.896029 C 35.514626 21.952852 37.688439 21.147221 39.911433 20.498786 C 42.429517 19.761928 44.986944 19.152792 47.564048 18.681203 C 50.495253 18.131016 53.455967 17.698726 56.426518 17.384332 C 59.790522 17.010992 63.174195 16.735898 66.557868 16.539402 C 70.384173 16.323257 74.210479 16.175886 78.036784 16.087463 C 82.335234 15.99904 86.633683 15.949916 90.932125 15.959741 C 90.932125 15.959741 90.932125 15.959741 90.941963 15.959741 L 165.06803 15.959741 C 165.077876 15.959741 165.077876 15.959741 165.077876 15.959741 Z " fill-rule="evenodd" id="highlight" fill="url(#_lgradient_290)"/></g></svg>