<svg xmlns="http://www.w3.org/2000/svg" style="isolation:isolate" width="256" height="256" viewBox="0 0 256 256">
 <defs>
  <filter id="fkoXWc08K9RWcwx7GAaFGTiYpBZ4ut9q" width="270.648" height="254.338" x="-7.32" y="2.95" filterUnits="userSpaceOnUse">
   <feGaussianBlur xmlns="http://www.w3.org/2000/svg" in="SourceGraphic" stdDeviation="4.294"/>
   <feOffset xmlns="http://www.w3.org/2000/svg" dx="0" dy="4" result="pf_100_offsetBlur"/>
   <feFlood xmlns="http://www.w3.org/2000/svg" flood-opacity=".4"/>
   <feComposite xmlns="http://www.w3.org/2000/svg" in2="pf_100_offsetBlur" operator="in" result="pf_100_dropShadow"/>
   <feBlend xmlns="http://www.w3.org/2000/svg" in="SourceGraphic" in2="pf_100_dropShadow" mode="normal"/>
  </filter>
 </defs>
 <g filter="url(#fkoXWc08K9RWcwx7GAaFGTiYpBZ4ut9q)">
  <linearGradient id="_lgradient_70" x1="-.033" x2="1.033" y1="0" y2=".933" gradientTransform="matrix(244.648,0,0,228.338,5.676,11.947)" gradientUnits="userSpaceOnUse">
   <stop offset="0%" style="stop-color:rgb(254,229,129)"/>
   <stop offset="100%" style="stop-color:rgb(255,244,201)"/>
  </linearGradient>
  <path fill="url(#_lgradient_70)" d="M 165.685 11.947 C 239.74 11.947 250.324 22.504 250.324 96.491 L 250.324 155.742 C 250.324 229.728 239.74 240.285 165.685 240.285 L 90.315 240.285 C 16.26 240.285 5.676 229.728 5.676 155.742 L 5.676 96.491 C 5.676 22.504 16.26 11.947 90.315 11.947 L 165.685 11.947 Z"/>
 </g>
 <g>
  <linearGradient id="_lgradient_71" x1="-.033" x2="1.033" y1="0" y2=".933" gradientTransform="matrix(244.648,0,0,228.338,5.676,11.95)" gradientUnits="userSpaceOnUse">
   <stop offset="0%" style="stop-color:rgb(254,229,129)"/>
   <stop offset="100%" style="stop-color:rgb(255,244,201)"/>
  </linearGradient>
  <path fill="url(#_lgradient_71)" d="M 165.685 11.95 C 239.74 11.95 250.324 22.507 250.324 96.494 L 250.324 155.745 C 250.324 229.731 239.74 240.288 165.685 240.288 L 90.315 240.288 C 16.26 240.288 5.676 229.731 5.676 155.745 L 5.676 96.494 C 5.676 22.507 16.26 11.95 90.315 11.95 L 165.685 11.95 Z"/>
  <clipPath id="_clipPath_9XCk3WznjOblSRL8yoRJFCtmV3cdkAKT">
   <path fill="url(#_lgradient_71)" d="M 165.685 11.95 C 239.74 11.95 250.324 22.507 250.324 96.494 L 250.324 155.745 C 250.324 229.731 239.74 240.288 165.685 240.288 L 90.315 240.288 C 16.26 240.288 5.676 229.731 5.676 155.745 L 5.676 96.494 C 5.676 22.507 16.26 11.95 90.315 11.95 L 165.685 11.95 Z"/>
  </clipPath>
  <g clip-path="url(#_clipPath_9XCk3WznjOblSRL8yoRJFCtmV3cdkAKT)">
   <g>
    <g opacity=".1">
     <path fill="#1463A5" fill-opacity=".996" d="M -2.479 116.945 L -2.479 117.964 L 258.683 117.964 L 258.683 116.945 L -2.479 116.945 Z"/>
    </g>
    <g opacity=".1">
     <path fill="#1463A5" fill-opacity=".996" d="M -2.479 141.41 L -2.479 142.429 L 258.683 142.429 L 258.683 141.41 L -2.479 141.41 Z"/>
    </g>
    <g opacity=".1">
     <path fill="#1463A5" fill-opacity=".996" d="M -2.479 190.339 L -2.479 191.359 L 258.683 191.359 L 258.683 190.339 L -2.479 190.339 Z"/>
    </g>
    <g opacity=".3">
     <path fill="#1463A5" fill-opacity=".996" d="M 41.354 60.88 L 42.373 60.88 L 42.373 256.598 L 41.354 256.598 L 41.354 60.88 Z"/>
    </g>
    <g opacity=".1">
     <path fill="#1463A5" fill-opacity=".996" d="M -2.479 92.48 L -2.479 93.499 L 258.683 93.499 L 258.683 92.48 L -2.479 92.48 Z"/>
    </g>
    <g opacity=".1">
     <path fill="#1463A5" fill-opacity=".996" d="M -2.479 214.804 L -2.479 215.824 L 258.683 215.824 L 258.683 214.804 L -2.479 214.804 Z"/>
    </g>
    <g opacity=".1">
     <path fill="#1463A5" fill-opacity=".996" d="M -2.479 165.875 L -2.479 166.894 L 258.683 166.894 L 258.683 165.875 L -2.479 165.875 Z"/>
    </g>
   </g>
  </g>
  <g opacity=".4">
   <path fill="#FAC82E" d="M 13.831 62.918 C 12.705 62.918 11.792 63.831 11.792 64.957 C 11.792 66.083 12.705 66.996 13.831 66.996 C 14.957 66.996 15.87 66.083 15.87 64.957 C 15.87 63.831 14.957 62.918 13.831 62.918 Z M 21.986 62.918 C 20.86 62.918 19.947 63.831 19.947 64.957 C 19.947 66.083 20.86 66.996 21.986 66.996 C 23.112 66.996 24.024 66.083 24.024 64.957 C 24.024 63.831 23.112 62.918 21.986 62.918 Z M 30.141 62.918 C 29.015 62.918 28.102 63.831 28.102 64.957 C 28.102 66.083 29.015 66.996 30.141 66.996 C 31.267 66.996 32.179 66.083 32.179 64.957 C 32.179 63.831 31.267 62.918 30.141 62.918 Z M 38.296 62.918 C 37.17 62.918 36.257 63.831 36.257 64.957 C 36.257 66.083 37.17 66.996 38.296 66.996 C 39.422 66.996 40.334 66.083 40.334 64.957 C 40.334 63.831 39.422 62.918 38.296 62.918 Z M 46.451 62.918 C 45.325 62.918 44.412 63.831 44.412 64.957 C 44.412 66.083 45.325 66.996 46.451 66.996 C 47.577 66.996 48.489 66.083 48.489 64.957 C 48.489 63.831 47.577 62.918 46.451 62.918 Z M 54.606 62.918 C 53.48 62.918 52.567 63.831 52.567 64.957 C 52.567 66.083 53.48 66.996 54.606 66.996 C 55.731 66.996 56.644 66.083 56.644 64.957 C 56.644 63.831 55.731 62.918 54.606 62.918 Z M 62.76 62.918 C 61.634 62.918 60.722 63.831 60.722 64.957 C 60.722 66.083 61.634 66.996 62.76 66.996 C 63.886 66.996 64.799 66.083 64.799 64.957 C 64.799 63.831 63.886 62.918 62.76 62.918 Z M 70.915 62.918 C 69.789 62.918 68.877 63.831 68.877 64.957 C 68.877 66.083 69.789 66.996 70.915 66.996 C 72.041 66.996 72.954 66.083 72.954 64.957 C 72.954 63.831 72.041 62.918 70.915 62.918 Z M 79.07 62.918 C 77.944 62.918 77.032 63.831 77.032 64.957 C 77.032 66.083 77.944 66.996 79.07 66.996 C 80.196 66.996 81.109 66.083 81.109 64.957 C 81.109 63.831 80.196 62.918 79.07 62.918 Z M 87.225 62.918 C 86.099 62.918 85.187 63.831 85.187 64.957 C 85.187 66.083 86.099 66.996 87.225 66.996 C 88.351 66.996 89.264 66.083 89.264 64.957 C 89.264 63.831 88.351 62.918 87.225 62.918 Z M 95.38 62.918 C 94.254 62.918 93.341 63.831 93.341 64.957 C 93.341 66.083 94.254 66.996 95.38 66.996 C 96.506 66.996 97.419 66.083 97.419 64.957 C 97.419 63.831 96.506 62.918 95.38 62.918 Z M 103.535 62.918 C 102.409 62.918 101.496 63.831 101.496 64.957 C 101.496 66.083 102.409 66.996 103.535 66.996 C 104.661 66.996 105.574 66.083 105.574 64.957 C 105.574 63.831 104.661 62.918 103.535 62.918 Z M 111.69 62.918 C 110.564 62.918 109.651 63.831 109.651 64.957 C 109.651 66.083 110.564 66.996 111.69 66.996 C 112.816 66.996 113.729 66.083 113.729 64.957 C 113.729 63.831 112.816 62.918 111.69 62.918 Z M 119.845 62.918 C 118.719 62.918 117.806 63.831 117.806 64.957 C 117.806 66.083 118.719 66.996 119.845 66.996 C 120.971 66.996 121.884 66.083 121.884 64.957 C 121.884 63.831 120.971 62.918 119.845 62.918 Z M 128 62.918 C 126.874 62.918 125.961 63.831 125.961 64.957 C 125.961 66.083 126.874 66.996 128 66.996 C 129.126 66.996 130.039 66.083 130.039 64.957 C 130.039 63.831 129.126 62.918 128 62.918 Z M 136.155 62.918 C 135.029 62.918 134.116 63.831 134.116 64.957 C 134.116 66.083 135.029 66.996 136.155 66.996 C 137.281 66.996 138.194 66.083 138.194 64.957 C 138.194 63.831 137.281 62.918 136.155 62.918 Z M 144.31 62.918 C 143.184 62.918 142.271 63.831 142.271 64.957 C 142.271 66.083 143.184 66.996 144.31 66.996 C 145.436 66.996 146.349 66.083 146.349 64.957 C 146.349 63.831 145.436 62.918 144.31 62.918 Z M 152.465 62.918 C 151.339 62.918 150.426 63.831 150.426 64.957 C 150.426 66.083 151.339 66.996 152.465 66.996 C 153.591 66.996 154.504 66.083 154.504 64.957 C 154.504 63.831 153.591 62.918 152.465 62.918 Z M 160.62 62.918 C 159.494 62.918 158.581 63.831 158.581 64.957 C 158.581 66.083 159.494 66.996 160.62 66.996 C 161.746 66.996 162.659 66.083 162.659 64.957 C 162.659 63.831 161.746 62.918 160.62 62.918 Z M 168.775 62.918 C 167.649 62.918 166.736 63.831 166.736 64.957 C 166.736 66.083 167.649 66.996 168.775 66.996 C 169.901 66.996 170.813 66.083 170.813 64.957 C 170.813 63.831 169.901 62.918 168.775 62.918 Z M 176.93 62.918 C 175.804 62.918 174.891 63.831 174.891 64.957 C 174.891 66.083 175.804 66.996 176.93 66.996 C 178.056 66.996 178.968 66.083 178.968 64.957 C 178.968 63.831 178.056 62.918 176.93 62.918 Z M 185.085 62.918 C 183.959 62.918 183.046 63.831 183.046 64.957 C 183.046 66.083 183.959 66.996 185.085 66.996 C 186.211 66.996 187.123 66.083 187.123 64.957 C 187.123 63.831 186.211 62.918 185.085 62.918 Z M 193.24 62.918 C 192.114 62.918 191.201 63.831 191.201 64.957 C 191.201 66.083 192.114 66.996 193.24 66.996 C 194.366 66.996 195.278 66.083 195.278 64.957 C 195.278 63.831 194.366 62.918 193.24 62.918 Z M 201.394 62.918 C 200.269 62.918 199.356 63.831 199.356 64.957 C 199.356 66.083 200.269 66.996 201.394 66.996 C 202.52 66.996 203.433 66.083 203.433 64.957 C 203.433 63.831 202.52 62.918 201.394 62.918 Z M 209.549 62.918 C 208.423 62.918 207.511 63.831 207.511 64.957 C 207.511 66.083 208.423 66.996 209.549 66.996 C 210.675 66.996 211.588 66.083 211.588 64.957 C 211.588 63.831 210.675 62.918 209.549 62.918 Z M 217.704 62.918 C 216.578 62.918 215.666 63.831 215.666 64.957 C 215.666 66.083 216.578 66.996 217.704 66.996 C 218.83 66.996 219.743 66.083 219.743 64.957 C 219.743 63.831 218.83 62.918 217.704 62.918 Z M 225.859 62.918 C 224.733 62.918 223.821 63.831 223.821 64.957 C 223.821 66.083 224.733 66.996 225.859 66.996 C 226.985 66.996 227.898 66.083 227.898 64.957 C 227.898 63.831 226.985 62.918 225.859 62.918 Z M 234.014 62.918 C 232.888 62.918 231.976 63.831 231.976 64.957 C 231.976 66.083 232.888 66.996 234.014 66.996 C 235.14 66.996 236.053 66.083 236.053 64.957 C 236.053 63.831 235.14 62.918 234.014 62.918 Z M 242.169 62.918 C 241.043 62.918 240.13 63.831 240.13 64.957 C 240.13 66.083 241.043 66.996 242.169 66.996 C 243.295 66.996 244.208 66.083 244.208 64.957 C 244.208 63.831 243.295 62.918 242.169 62.918 Z"/>
  </g>
  <path fill="#FDC92B" d="M 90.315 11.95 C 30.311 11.95 11.982 18.892 7.185 60.88 L 248.815 60.88 C 244.018 18.892 225.689 11.95 165.685 11.95 L 90.315 11.95 Z"/>
  <path fill="#1463A5" d="M 62.76 85.344 L 62.76 93.499 L 193.24 93.499 L 193.24 85.344 L 62.76 85.344 Z M 62.76 109.809 L 62.76 117.964 L 193.24 117.964 L 193.24 109.809 L 62.76 109.809 Z M 62.76 134.274 L 62.76 142.429 L 193.24 142.429 L 193.24 134.274 L 62.76 134.274 Z M 62.76 158.739 L 62.76 166.894 L 128.091 166.894 L 128.091 158.739 L 62.76 158.739 Z"/>
 </g>
 <g opacity=".4">
  <line x1="250.324" x2="172.926" y1="163.827" y2="240.285"/>
 </g>
 <g opacity=".4">
  <linearGradient id="_lgradient_72" x1=".517" x2=".517" y1="0" y2="1">
   <stop offset="0%" style="stop-color:rgb(255,255,255)"/>
   <stop offset="12.5%" stop-opacity=".098" style="stop-color:rgb(255,255,255)"/>
   <stop offset="92.5%" stop-opacity=".098" style="stop-color:rgb(0,0,0)"/>
   <stop offset="100%" stop-opacity=".498" style="stop-color:rgb(0,0,0)"/>
  </linearGradient>
  <path fill="none" stroke="url(#_lgradient_72)" stroke-linecap="round" stroke-linejoin="round" stroke-width="4.077" d="M 165.685 11.947 C 239.74 11.947 250.324 22.504 250.324 96.491 L 250.324 155.742 C 250.324 229.728 239.74 240.285 165.685 240.285 L 90.315 240.285 C 16.26 240.285 5.676 229.728 5.676 155.742 L 5.676 96.491 C 5.676 22.504 16.26 11.947 90.315 11.947 L 165.685 11.947 Z" vector-effect="non-scaling-stroke"/>
 </g>
</svg>
