<?xml version="1.0" standalone="no"?><!-- Generator: Gravit.io --><svg xmlns="http://www.w3.org/2000/svg" xmlns:xlink="http://www.w3.org/1999/xlink" style="isolation:isolate" viewBox="0 0 256 256" width="256" height="256"><defs><filter id="Y3OEBrdnDgLPoj3r0ArMQSIY0aMayGcd" x="-7.324" y="2.947" width="270.648" height="254.338" filterUnits="userSpaceOnUse"><feGaussianBlur xmlns="http://www.w3.org/2000/svg" in="SourceGraphic" stdDeviation="4.293609062839028"/><feOffset xmlns="http://www.w3.org/2000/svg" dx="0" dy="4" result="pf_100_offsetBlur"/><feFlood xmlns="http://www.w3.org/2000/svg" flood-color="#000000" flood-opacity="0.4"/><feComposite xmlns="http://www.w3.org/2000/svg" in2="pf_100_offsetBlur" operator="in" result="pf_100_dropShadow"/><feBlend xmlns="http://www.w3.org/2000/svg" in="SourceGraphic" in2="pf_100_dropShadow" mode="normal"/></filter></defs><g filter="url(#Y3OEBrdnDgLPoj3r0ArMQSIY0aMayGcd)"><path d=" M 165.685 11.947 C 239.74 11.947 250.324 22.504 250.324 96.491 L 250.324 155.742 C 250.324 229.728 239.74 240.285 165.685 240.285 L 90.315 240.285 C 16.26 240.285 5.676 229.728 5.676 155.742 L 5.676 96.491 C 5.676 22.504 16.26 11.947 90.315 11.947 L 165.685 11.947 Z " id="shape" fill="rgb(255,218,100)"/></g><g opacity="0.1"><path d=" M 6.357 83.58 L 211.766 236.61 C 200.204 238.921 185.34 239.629 166.243 239.629 L 90.873 239.629 C 16.818 239.629 6.234 229.071 6.234 155.085 L 6.234 95.834 C 6.234 91.531 6.275 87.464 6.357 83.58 L 6.357 83.58 Z " id="big highlight mark" fill="rgb(255,255,255)"/></g><g opacity="0.4"><linearGradient id="_lgradient_197" x1="0.5166666666666668" y1="0" x2="0.5166666666666666" y2="1.0000000000000002"><stop offset="0%" stop-opacity="1" style="stop-color:rgb(255,255,255)"/><stop offset="12.5%" stop-opacity="0.09803922" style="stop-color:rgb(255,255,255)"/><stop offset="92.500001%" stop-opacity="0.09803922" style="stop-color:rgb(0,0,0)"/><stop offset="100%" stop-opacity="0.49803922" style="stop-color:rgb(0,0,0)"/></linearGradient><path d=" M 165.685 11.947 C 239.74 11.947 250.324 22.504 250.324 96.491 L 250.324 155.742 C 250.324 229.728 239.74 240.285 165.685 240.285 L 90.315 240.285 C 16.26 240.285 5.676 229.728 5.676 155.742 L 5.676 96.491 C 5.676 22.504 16.26 11.947 90.315 11.947 L 165.685 11.947 Z " id="highlight" fill="none" vector-effect="non-scaling-stroke" stroke-width="4.077" stroke="url(#_lgradient_197)" stroke-linejoin="round" stroke-linecap="round" stroke-miterlimit="4"/></g><g id="Group"><g opacity="0.5"><path d=" M 119.845 202.414 L 160.62 112.709 L 136.155 112.709 L 136.155 55.625 L 95.38 145.329 L 119.845 145.329 L 119.845 202.414 Z " id="path926" fill="rgb(255,255,255)"/></g><linearGradient id="_lgradient_198" x1="0.4999999397495991" y1="-0.22222187593980447" x2="0.49999993974959883" y2="1.222222580405953" gradientTransform="matrix(65.24,0,0,146.789,95.38,53.586)" gradientUnits="userSpaceOnUse"><stop offset="0%" stop-opacity="1" style="stop-color:rgb(17,17,17)"/><stop offset="100%" stop-opacity="1" style="stop-color:rgb(77,77,77)"/></linearGradient><path d=" M 119.845 200.375 L 160.62 110.671 L 136.155 110.671 L 136.155 53.586 L 95.38 143.291 L 119.845 143.29 L 119.845 200.375 Z " id="path4212" fill="url(#_lgradient_198)"/></g></svg>