<svg xmlns="http://www.w3.org/2000/svg" style="isolation:isolate" width="256" height="256" viewBox="0 0 256 256">
 <defs>
  <filter id="Y3OEBrdnDgLPoj3r0ArMQSIY0aMayGcd" width="270.648" height="254.338" x="-7.32" y="2.95" filterUnits="userSpaceOnUse">
   <feGaussianBlur xmlns="http://www.w3.org/2000/svg" in="SourceGraphic" stdDeviation="4.294"/>
   <feOffset xmlns="http://www.w3.org/2000/svg" dx="0" dy="4" result="pf_100_offsetBlur"/>
   <feFlood xmlns="http://www.w3.org/2000/svg" flood-opacity=".4"/>
   <feComposite xmlns="http://www.w3.org/2000/svg" in2="pf_100_offsetBlur" operator="in" result="pf_100_dropShadow"/>
   <feBlend xmlns="http://www.w3.org/2000/svg" in="SourceGraphic" in2="pf_100_dropShadow" mode="normal"/>
  </filter>
 </defs>
 <g filter="url(#Y3OEBrdnDgLPoj3r0ArMQSIY0aMayGcd)">
  <path fill="#FFDA64" d="M 165.685 11.947 C 239.74 11.947 250.324 22.504 250.324 96.491 L 250.324 155.742 C 250.324 229.728 239.74 240.285 165.685 240.285 L 90.315 240.285 C 16.26 240.285 5.676 229.728 5.676 155.742 L 5.676 96.491 C 5.676 22.504 16.26 11.947 90.315 11.947 L 165.685 11.947 Z"/>
 </g>
 <g opacity=".1">
  <path fill="#FFFFFF" d="M 6.357 83.58 L 211.766 236.61 C 200.204 238.921 185.34 239.629 166.243 239.629 L 90.873 239.629 C 16.818 239.629 6.234 229.071 6.234 155.085 L 6.234 95.834 C 6.234 91.531 6.275 87.464 6.357 83.58 L 6.357 83.58 Z"/>
 </g>
 <g opacity=".4">
  <linearGradient id="_lgradient_197" x1=".517" x2=".517" y1="0" y2="1">
   <stop offset="0%" style="stop-color:rgb(255,255,255)"/>
   <stop offset="12.5%" stop-opacity=".098" style="stop-color:rgb(255,255,255)"/>
   <stop offset="92.5%" stop-opacity=".098" style="stop-color:rgb(0,0,0)"/>
   <stop offset="100%" stop-opacity=".498" style="stop-color:rgb(0,0,0)"/>
  </linearGradient>
  <path fill="none" stroke="url(#_lgradient_197)" stroke-linecap="round" stroke-linejoin="round" stroke-width="4.077" d="M 165.685 11.947 C 239.74 11.947 250.324 22.504 250.324 96.491 L 250.324 155.742 C 250.324 229.728 239.74 240.285 165.685 240.285 L 90.315 240.285 C 16.26 240.285 5.676 229.728 5.676 155.742 L 5.676 96.491 C 5.676 22.504 16.26 11.947 90.315 11.947 L 165.685 11.947 Z" vector-effect="non-scaling-stroke"/>
 </g>
 <g>
  <g opacity=".5">
   <path fill="#FFFFFF" d="M 119.845 202.414 L 160.62 112.709 L 136.155 112.709 L 136.155 55.625 L 95.38 145.329 L 119.845 145.329 L 119.845 202.414 Z"/>
  </g>
  <linearGradient id="_lgradient_198" x1=".5" x2=".5" y1="-.222" y2="1.222" gradientTransform="matrix(65.24,0,0,146.789,95.38,53.586)" gradientUnits="userSpaceOnUse">
   <stop offset="0%" style="stop-color:rgb(17,17,17)"/>
   <stop offset="100%" style="stop-color:rgb(77,77,77)"/>
  </linearGradient>
  <path fill="url(#_lgradient_198)" d="M 119.845 200.375 L 160.62 110.671 L 136.155 110.671 L 136.155 53.586 L 95.38 143.291 L 119.845 143.29 L 119.845 200.375 Z"/>
 </g>
</svg>
