<svg xmlns="http://www.w3.org/2000/svg" width="256" height="256" version="1.1">
  <defs>
   <linearGradient id="gradients" x1="971.138" x2="975.537" y1="-1487.17" y2="19.037" gradientTransform="matrix(.11988932 0 0 .11988932 3.1009196 232.21778)" gradientUnits="userSpaceOnUse">
    <stop style="stop-color:#fb7c38" offset="0"/>
    <stop style="stop-color:#ad7aa9" offset="1"/>
   </linearGradient>
   <radialGradient id="b" cx=".5" cy=".5" r=".272" fx=".5" fy=".136" gradientTransform="matrix(230 0 0 60.62 13 21)" gradientUnits="userSpaceOnUse">
    <stop offset="0%" stop-color="#ffffff"/>
    <stop offset="100%" stop-color="#ffffff" stop-opacity=".204"/>
   </radialGradient>
   <radialGradient id="c" cx=".5" cy=".5" r=".272" fx=".482" fy=".211" gradientTransform="matrix(230 0 0 58.565 13 53.922)" gradientUnits="userSpaceOnUse">
    <stop offset="0%" stop-color="#ffffff"/>
    <stop offset="100%" stop-color="#ffffff" stop-opacity=".204"/>
   </radialGradient>
  </defs>
  <path fill="#85377d" d="M53.039 21C16.724 21 13 23.055 13 59.371v52.167h230V79.563c0-36.316-3.724-42.102-40.039-42.102h-89.336L97.198 21H53.039z"/>
  <path d="M 53.039,70.384 C 16.722,70.384 13,74.114 13,110.429 v 84.524 C 13,231.269 16.722,235 53.039,235 H 202.961 C 239.278,235 243,231.269 243,194.953 V 93.969 C 243,57.653 239.278,53.922 202.961,53.922 H 119.53 l -16.438,16.462 z" style="fill:url(#gradients)"/>
  <g opacity="0.4">
   <path fill="url(#b)" d="M 53.039,21 C 16.724,21 13,23.055 13,59.371 V 61.43 C 13,25.114 16.724,23.057 53.039,23.057 h 44.159 l 16.427,16.461 h 89.336 C 239.276,39.518 243,45.304 243,81.62 V 79.563 C 243,43.247 239.276,37.461 202.961,37.461 H 113.625 L 97.198,21 Z"/>
  </g>
  <g opacity="0.4">
   <path fill="url(#c)" d="M 119.53,53.922 103.092,70.384 H 53.039 C 16.724,70.384 13,74.112 13,110.427 v 2.06 C 13,76.171 16.724,72.441 53.039,72.441 h 50.053 l 16.438,-16.46 h 83.431 c 36.315,0 40.039,3.727 40.039,40.043 v -2.057 c 0,-36.316 -3.724,-40.045 -40.039,-40.045 z"/>
  </g>
  <path fill="#ffffff" opacity=".1" d="m 243,167.096 -65.715,65.845 h 25.676 c 36.315,0 40.039,-3.727 40.039,-40.043 z"/>
  <path opacity="0.2" d="m 13,192.898 v 2.057 C 13,231.271 16.724,235 53.039,235 H 202.961 C 239.276,235 243,231.271 243,194.955 v -2.057 c 0,36.316 -3.724,40.043 -40.039,40.043 H 53.039 C 16.724,232.941 13,229.214 13,192.898 Z"/>
  <g fill="#fdd1b9">
    <path d="M129.253 101.149c-19.244-.537-37.234 9.541-46.86 26.253-14.468 25.132-5.82 57.361 19.275 71.893 25.095 14.532 57.255 5.954 71.715-19.178 14.467-25.132 5.82-57.384-19.275-71.923a52.259 52.259 0 0 0-24.855-7.045zm-1.365 7.488c24.852 0 45 20.195 45 45.107s-20.148 45.107-45 45.107c-24.853 0-45-20.195-45-45.107s20.147-45.107 45-45.107z"/>
    <path d="M137.803 93l-19.74 2.962v10.172a48.649 48.649 0 0 1 19.74.037V93zm-40.388 8.954L82.37 114.772l7.41 8.856a48.662 48.662 0 0 1 15.128-12.713l-7.493-8.961zm60.96.097l-7.447 8.894c.428.219.853.445 1.275.677a48.69 48.69 0 0 1 13.837 12.058l7.545-9.006-15.21-12.623zM71.3 133.754L68 153.263l11.363 2.007a48.704 48.704 0 0 1 3.412-19.486l-11.475-2.03zm113.145.023l-11.422 2.015a48.73 48.73 0 0 1 3.48 19.478L188 153.241l-3.555-19.464zM81.823 169.066L71.69 174.93l9.975 17.08 10.042-5.811a48.701 48.701 0 0 1-9.884-17.133zm92.257.022a48.686 48.686 0 0 1-4.005 9.134 48.65 48.65 0 0 1-5.805 8.045l10.035 5.803 9.765-17.201-9.99-5.781zm-71.677 26.102l-4.005 11.044 18.6 6.646 3.937-10.864a48.654 48.654 0 0 1-17.273-6.014 49.08 49.08 0 0 1-1.26-.812h.001zm51.105.113a48.67 48.67 0 0 1-18.563 6.751L138.92 213l18.51-6.886-3.922-10.811zM125.248 116.26a37.409 37.409 0 0 0-29.865 18.66c-10.311 18.004-4.154 40.975 13.77 51.377 17.928 10.375 40.853 4.232 51.225-13.728 10.313-17.999 4.154-40.969-13.77-51.362a37.25 37.25 0 0 0-21.36-4.947zm2.64 7.413c16.568 0 30 13.463 30 30.071 0 16.608-13.432 30.072-30 30.072-16.569 0-30-13.464-30-30.072 0-16.608 13.431-30.071 30-30.071z"/>
  </g>
</svg>