<?xml version="1.0" encoding="UTF-8" standalone="no"?>
<svg
   xmlns:osb="http://www.openswatchbook.org/uri/2009/osb"
   xmlns:dc="http://purl.org/dc/elements/1.1/"
   xmlns:cc="http://creativecommons.org/ns#"
   xmlns:rdf="http://www.w3.org/1999/02/22-rdf-syntax-ns#"
   xmlns:svg="http://www.w3.org/2000/svg"
   xmlns="http://www.w3.org/2000/svg"
   xmlns:sodipodi="http://sodipodi.sourceforge.net/DTD/sodipodi-0.dtd"
   xmlns:inkscape="http://www.inkscape.org/namespaces/inkscape"
   height="16.000032"
   id="svg7384"
   version="1.1"
   width="16.000031"
   sodipodi:docname="text-x-r.svg"
   inkscape:version="0.92.2 (unknown)">
  <sodipodi:namedview
     pagecolor="#ffffff"
     bordercolor="#666666"
     borderopacity="1"
     objecttolerance="10"
     gridtolerance="10"
     guidetolerance="10"
     inkscape:pageopacity="0"
     inkscape:pageshadow="2"
     inkscape:window-width="1558"
     inkscape:window-height="893"
     id="namedview16"
     showgrid="false"
     inkscape:zoom="14.74997"
     inkscape:cx="-16.27122"
     inkscape:cy="8.000016"
     inkscape:window-x="0"
     inkscape:window-y="34"
     inkscape:window-maximized="0"
     inkscape:current-layer="svg7384" />
  <metadata
     id="metadata20854">
    <rdf:RDF>
      <cc:Work
         rdf:about="">
        <dc:title />
        <dc:format>image/svg+xml</dc:format>
        <dc:type
           rdf:resource="http://purl.org/dc/dcmitype/StillImage" />
      </cc:Work>
    </rdf:RDF>
  </metadata>
  <defs
     id="defs7386">
    <linearGradient
       id="linearGradient5606"
       osb:paint="solid">
      <stop
         id="stop5608"
         offset="0"
         style="stop-color:#000000;stop-opacity:1;" />
    </linearGradient>
    <linearGradient
       id="linearGradient4526"
       osb:paint="solid">
      <stop
         id="stop4528"
         offset="0"
         style="stop-color:#ffffff;stop-opacity:1;" />
    </linearGradient>
  </defs>
  <g
     id="layer9"
     label="status"
     style="display:inline"
     transform="translate(-513.0002,207)" />
  <g
     id="layer2"
     transform="translate(-272,-160)" />
  <g
     id="layer3"
     style="display:inline"
     transform="translate(-272,-160)" />
  <g
     id="layer1"
     transform="translate(-272,-160)" />
  <path
     sodipodi:nodetypes="csccccccscccccscccccscc"
     style="display:inline;fill:#808080;fill-rule:evenodd;stroke-width:0.15624964;enable-background:new;fill-opacity:1"
     inkscape:connector-curvature="0"
     d="m 10.40084,9.0930813 c 0,0 0.719484,0.2172042 1.13747,0.4286324 0.145027,0.07335 0.395977,0.219685 0.576994,0.412122 0.177307,0.1885023 0.263763,0.3791673 0.263763,0.3791673 l 2.868914,5.185229 -5.227295,0.0018 -2.1415774,-3.936464 c 0,0 -0.4388412,-0.753979 -0.7088619,-0.972599 C 6.9449993,10.40846 6.8489404,10.343618 6.6262369,10.343618 H 5.5373527 L 5.536584,15.497063 H 0.85 V 0.50001369 h 7.2639938 c 2.5796182,0 5.9816702,0.77176601 5.9816702,4.30067931 0,3.5289135 -3.694938,4.2922468 -3.694938,4.2922468 z M 5.5365024,3.3120822 v 3.7492714 h 2.2243273 c 0,0 1.7244209,0 1.8391388,-1.834508 C 9.7196966,3.3124011 7.7597454,3.3140664 7.7597454,3.3140664 Z"
     id="path3649" />
</svg>
