<svg xmlns="http://www.w3.org/2000/svg" style="isolation:isolate" width="256" height="256"><defs><filter id="a" width="270.648" height="254.338" x="-7.32" y="2.95" filterUnits="userSpaceOnUse"><feGaussianBlur xmlns="http://www.w3.org/2000/svg" in="SourceGraphic" stdDeviation="4.294"/><feOffset xmlns="http://www.w3.org/2000/svg" dy="4" result="pf_100_offsetBlur"/><feFlood xmlns="http://www.w3.org/2000/svg" flood-opacity=".4"/><feComposite xmlns="http://www.w3.org/2000/svg" in2="pf_100_offsetBlur" operator="in" result="pf_100_dropShadow"/><feBlend xmlns="http://www.w3.org/2000/svg" in="SourceGraphic" in2="pf_100_dropShadow"/></filter></defs><g filter="url(#a)"><linearGradient id="b" x1=".233" x2=".933" y1="-.071" y2=".995" gradientTransform="matrix(244.648 0 0 228.338 5.676 11.947)" gradientUnits="userSpaceOnUse"><stop offset="0%" stop-color="#e8e8e8"/><stop offset="100%" stop-color="#f5f5f5"/></linearGradient><path fill="url(#b)" d="M165.685 11.947c74.055 0 84.639 10.557 84.639 84.544v59.251c0 73.986-10.584 84.543-84.639 84.543h-75.37c-74.055 0-84.639-10.557-84.639-84.543V96.491c0-73.987 10.584-84.544 84.639-84.544h75.37z"/></g><g opacity=".4"><linearGradient id="c" x1=".517" x2=".517" y2="1"><stop offset="0%" stop-color="#fff"/><stop offset="12.5%" stop-opacity=".098" stop-color="#fff"/><stop offset="92.5%" stop-opacity=".098"/><stop offset="100%" stop-opacity=".498"/></linearGradient><path fill="none" stroke="url(#c)" stroke-linecap="round" stroke-linejoin="round" stroke-width="4.077" d="M165.685 11.947c74.055 0 84.639 10.557 84.639 84.544v59.251c0 73.986-10.584 84.543-84.639 84.543h-75.37c-74.055 0-84.639-10.557-84.639-84.543V96.491c0-73.987 10.584-84.544 84.639-84.544h75.37z" vector-effect="non-scaling-stroke"/></g><path fill="#FFF" d="M95.369 47.47c-4.224 0-7.856.294-10.897.886-2.956.591-5.153 1.224-6.589 1.9l1.14 7.223c1.098-.423 2.83-.971 5.195-1.647 2.365-.675 5.957-1.014 10.771-1.014 3.379 0 6.081.55 8.109 1.648 2.111 1.014 3.717 2.408 4.815 4.182 1.183 1.689 1.942 3.632 2.28 5.828.338 2.112.506 4.307.506 6.587v4.056c-.338-.169-.971-.338-1.9-.507-.845-.253-1.9-.464-3.167-.633a25.85 25.85 0 0 0-3.801-.507 27.8 27.8 0 0 0-3.674-.254c-3.97 0-7.645.38-11.023 1.14-3.379.76-6.294 1.986-8.744 3.676-2.45 1.605-4.35 3.673-5.701 6.207-1.352 2.534-2.028 5.575-2.028 9.123 0 3.717.591 6.886 1.773 9.504 1.267 2.535 2.956 4.646 5.068 6.335 2.196 1.605 4.732 2.787 7.604 3.547 2.956.76 6.166 1.142 9.629 1.142 2.703 0 5.322-.128 7.856-.382 2.619-.169 4.984-.422 7.096-.76 2.111-.338 3.969-.632 5.574-.886 1.605-.338 2.831-.634 3.676-.888V71.671c0-3.463-.423-6.675-1.267-9.631-.845-2.957-2.197-5.49-4.055-7.602-1.859-2.196-4.309-3.885-7.35-5.068-2.956-1.267-6.588-1.9-10.896-1.9zm46.942 33.03v89.649h9.613l2.998-3.869c5.993 3.496 11.986 5.118 18.104 5.118 17.98 0 28.592-13.36 28.592-31.589 0-18.23-7.366-31.091-25.846-31.091-7.117 0-12.985 1.75-18.104 4.372V80.5h-15.357zm-44.408 1.813c3.547 0 6.335.254 8.362.761 2.027.422 3.505.845 4.434 1.267v23.062c-1.689.337-3.758.632-6.207.885-2.366.169-5.153.254-8.363.254-2.618 0-4.983-.211-7.095-.633-2.027-.507-3.802-1.268-5.322-2.282-1.436-1.013-2.577-2.363-3.422-4.053-.76-1.689-1.14-3.76-1.14-6.209 0-2.788.591-5.027 1.774-6.717a12.07 12.07 0 0 1 4.561-3.926c1.859-1.013 3.887-1.649 6.083-1.902a41.648 41.648 0 0 1 6.335-.506v-.001zm74.123 38.891c10.738 0 14.235 7.742 14.235 19.478 0 11.737-5.494 18.605-15.732 18.605-4.995 0-9.24-1.248-12.861-4.119v-30.591c2.996-1.249 8.864-3.373 14.358-3.373zm-73.839 17.059c-6.38 0-12.253 1-17.616 2.998-5.364 1.999-9.991 4.874-13.882 8.625-3.857 3.751-6.873 8.343-9.047 13.777-2.173 5.434-3.26 11.569-3.26 18.405 0 4.277.667 8.168 1.999 11.673 1.333 3.506 3.295 6.503 5.889 8.992 2.595 2.489 5.802 4.419 9.624 5.786 3.821 1.367 8.239 2.05 13.252 2.05a60.61 60.61 0 0 0 7.1-.42 84.857 84.857 0 0 0 6.94-1 89.602 89.602 0 0 0 6.363-1.526 74.943 74.943 0 0 0 5.522-1.734l3.207-16.564h-3.417l-3.787 10.57c-1.087.841-2.384 1.647-3.892 2.418-1.507.737-3.172 1.402-4.995 1.998a38.711 38.711 0 0 1-5.784 1.42 37.962 37.962 0 0 1-6.363.527c-3.751 0-6.959-.578-9.623-1.735-2.665-1.157-4.855-2.752-6.573-4.786-1.718-2.068-2.981-4.524-3.787-7.363-.771-2.84-1.158-5.924-1.158-9.254 0-6.171.826-11.762 2.474-16.776 1.647-5.013 3.925-9.29 6.835-12.831 2.944-3.54 6.433-6.257 10.464-8.15 4.032-1.928 8.433-2.893 13.2-2.893 3.366 0 6.591.421 9.676 1.263 3.085.806 5.713 1.962 7.886 3.47v9.151h3.42l2.366-15.409c-3.12-.701-6.538-1.314-10.254-1.84-3.716-.561-7.976-.842-12.779-.842z"/><path fill="#5D5D5D" d="M95.369 45.431c-4.224 0-7.856.295-10.897.886-2.956.591-5.153 1.225-6.589 1.9l1.14 7.223c1.098-.422 2.83-.971 5.195-1.646 2.365-.676 5.957-1.015 10.771-1.015 3.379 0 6.081.55 8.109 1.648 2.111 1.014 3.717 2.408 4.815 4.182 1.183 1.69 1.942 3.632 2.28 5.829.338 2.111.506 4.306.506 6.587v4.055c-.338-.169-.971-.338-1.9-.507-.845-.253-1.9-.464-3.167-.633a25.853 25.853 0 0 0-3.801-.506 27.806 27.806 0 0 0-3.674-.255c-3.97 0-7.645.38-11.023 1.14-3.379.76-6.294 1.986-8.744 3.676-2.45 1.605-4.35 3.673-5.701 6.208-1.352 2.534-2.028 5.575-2.028 9.122 0 3.717.591 6.886 1.773 9.505 1.267 2.534 2.956 4.645 5.068 6.335 2.196 1.604 4.732 2.786 7.604 3.546 2.956.76 6.166 1.142 9.629 1.142 2.703 0 5.322-.128 7.856-.381 2.619-.169 4.984-.423 7.096-.761 2.111-.338 3.969-.632 5.574-.886 1.605-.337 2.831-.634 3.676-.887V69.632c0-3.463-.423-6.674-1.267-9.631-.845-2.956-2.197-5.49-4.055-7.602-1.859-2.196-4.309-3.885-7.35-5.067-2.956-1.267-6.588-1.901-10.896-1.901zm46.942 33.03v89.65h9.613l2.998-3.87c5.993 3.496 11.986 5.118 18.104 5.118 17.98 0 28.592-13.359 28.592-31.589 0-18.23-7.366-31.091-25.846-31.091-7.117 0-12.985 1.75-18.104 4.372v-32.59h-15.357zm-44.408 1.814c3.547 0 6.335.253 8.362.76 2.027.423 3.505.845 4.434 1.267v23.062c-1.689.338-3.758.632-6.207.885-2.366.169-5.153.255-8.363.255-2.618 0-4.983-.211-7.095-.634-2.027-.507-3.802-1.268-5.322-2.281-1.436-1.014-2.577-2.364-3.422-4.054-.76-1.689-1.14-3.76-1.14-6.209 0-2.788.591-5.027 1.774-6.716a12.052 12.052 0 0 1 4.561-3.926c1.859-1.014 3.887-1.649 6.083-1.903a41.648 41.648 0 0 1 6.335-.506zm74.123 38.89c10.738 0 14.235 7.742 14.235 19.479 0 11.737-5.494 18.605-15.732 18.605-4.995 0-9.24-1.248-12.861-4.12v-30.591c2.996-1.248 8.864-3.373 14.358-3.373zm-73.839 17.06c-6.38 0-12.253.999-17.616 2.998-5.364 1.998-9.991 4.873-13.882 8.624-3.857 3.751-6.873 8.344-9.047 13.777-2.173 5.434-3.26 11.57-3.26 18.406 0 4.277.667 8.167 1.999 11.673 1.333 3.505 3.295 6.502 5.889 8.991 2.595 2.49 5.802 4.419 9.624 5.786 3.821 1.368 8.239 2.05 13.252 2.05 2.349 0 4.716-.139 7.1-.419a84.853 84.853 0 0 0 6.94-1.001 89.613 89.613 0 0 0 6.363-1.525 74.921 74.921 0 0 0 5.522-1.735l3.207-16.564h-3.417l-3.787 10.57c-1.087.841-2.384 1.648-3.892 2.419a39.007 39.007 0 0 1-4.995 1.997 38.711 38.711 0 0 1-5.784 1.42 37.962 37.962 0 0 1-6.363.527c-3.751 0-6.959-.578-9.623-1.735-2.665-1.157-4.855-2.752-6.573-4.785-1.718-2.069-2.981-4.525-3.787-7.364-.771-2.84-1.158-5.924-1.158-9.254 0-6.17.826-11.762 2.474-16.775 1.647-5.014 3.925-9.291 6.835-12.831 2.944-3.541 6.433-6.258 10.464-8.151 4.032-1.928 8.433-2.893 13.2-2.893 3.366 0 6.591.422 9.676 1.263 3.085.806 5.713 1.963 7.886 3.47v9.151h3.42l2.366-15.409c-3.12-.701-6.538-1.314-10.254-1.84-3.716-.561-7.976-.841-12.779-.841z"/></svg>