<svg xmlns="http://www.w3.org/2000/svg" style="isolation:isolate" width="256" height="256" viewBox="0 0 256 256">
 <defs>
  <filter id="u7WbNDedbqqLUXqtfVahsxlqjgKpOw5G" width="270.648" height="254.338" x="-7.32" y="2.95" filterUnits="userSpaceOnUse">
   <feGaussianBlur xmlns="http://www.w3.org/2000/svg" in="SourceGraphic" stdDeviation="4.294"/>
   <feOffset xmlns="http://www.w3.org/2000/svg" dx="0" dy="4" result="pf_100_offsetBlur"/>
   <feFlood xmlns="http://www.w3.org/2000/svg" flood-opacity=".4"/>
   <feComposite xmlns="http://www.w3.org/2000/svg" in2="pf_100_offsetBlur" operator="in" result="pf_100_dropShadow"/>
   <feBlend xmlns="http://www.w3.org/2000/svg" in="SourceGraphic" in2="pf_100_dropShadow" mode="normal"/>
  </filter>
 </defs>
 <g filter="url(#u7WbNDedbqqLUXqtfVahsxlqjgKpOw5G)">
  <path fill="#6DC7F1" d="M 165.685 11.947 C 239.74 11.947 250.324 22.504 250.324 96.491 L 250.324 155.742 C 250.324 229.728 239.74 240.285 165.685 240.285 L 90.315 240.285 C 16.26 240.285 5.676 229.728 5.676 155.742 L 5.676 96.491 C 5.676 22.504 16.26 11.947 90.315 11.947 L 165.685 11.947 Z"/>
 </g>
 <g>
  <path fill="#E3DFD5" d="M 149.116 240.29 L 165.685 240.29 C 174.942 240.29 183.207 240.126 190.584 239.693 C 194.272 239.476 197.738 239.192 200.995 238.829 C 204.252 238.465 207.3 238.021 210.151 237.485 C 213.003 236.948 215.659 236.318 218.131 235.583 C 220.603 234.848 222.892 234.008 225.01 233.049 C 227.128 232.089 229.075 231.009 230.865 229.8 C 232.655 228.59 234.287 227.25 235.775 225.764 C 237.263 224.278 238.607 222.646 239.819 220.858 C 241.03 219.07 242.109 217.126 243.07 215.011 C 244.031 212.895 244.874 210.609 245.61 208.14 C 246.347 205.671 246.976 203.019 247.514 200.17 C 248.051 197.321 248.495 194.275 248.86 191.022 C 249.224 187.768 249.509 184.305 249.726 180.621 C 250.16 173.251 250.325 164.994 250.325 155.746 L 250.325 96.494 C 250.325 87.246 250.16 78.989 249.726 71.619 C 249.509 67.935 249.224 64.472 248.86 61.218 C 248.495 57.965 248.051 54.921 247.514 52.072 C 246.976 49.223 246.347 46.571 245.61 44.102 C 244.874 41.633 244.031 39.347 243.07 37.231 C 242.109 35.116 241.03 33.17 239.819 31.382 C 238.607 29.594 237.263 27.964 235.775 26.478 C 234.287 24.992 232.655 23.65 230.865 22.44 C 229.075 21.231 227.128 20.153 225.01 19.193 C 222.892 18.234 220.603 17.392 218.131 16.657 C 215.659 15.922 213.003 15.292 210.151 14.755 C 207.3 14.219 204.252 13.775 200.995 13.411 C 197.738 13.048 194.272 12.766 190.584 12.549 C 183.207 12.116 174.942 11.95 165.685 11.95 L 140.981 11.95 L 97.267 185.718 L 149.116 240.29 Z"/>
  <path fill="#A6D74F" d="M 242.546 36.292 C 241.707 34.562 240.835 32.882 239.819 31.382 C 238.607 29.594 237.263 27.964 235.775 26.478 C 234.287 24.992 232.655 23.65 230.865 22.44 C 229.075 21.231 227.128 20.153 225.01 19.193 C 222.892 18.234 220.603 17.392 218.131 16.657 C 215.659 15.922 213.003 15.292 210.151 14.755 C 207.3 14.219 204.252 13.775 200.995 13.411 C 197.738 13.048 194.272 12.766 190.584 12.549 C 183.207 12.116 174.942 11.95 165.685 11.95 L 90.315 11.95 C 81.058 11.95 72.793 12.116 65.416 12.549 C 61.728 12.766 58.26 13.048 55.003 13.411 C 51.746 13.775 48.698 14.219 45.847 14.755 C 42.995 15.292 40.341 15.922 37.869 16.657 C 35.397 17.392 33.108 18.234 30.99 19.193 C 28.872 20.153 26.925 21.231 25.135 22.44 C 23.345 23.65 21.711 24.992 20.223 26.478 C 18.735 27.964 17.393 29.594 16.181 31.382 C 14.97 33.17 13.889 35.116 12.928 37.231 C 11.967 39.347 11.126 41.633 10.39 44.102 C 9.653 46.571 9.024 49.223 8.486 52.072 C 7.949 54.921 7.505 57.965 7.14 61.218 C 6.776 64.472 6.491 67.935 6.274 71.619 C 5.933 77.412 5.862 84.231 5.802 91.171 L 100.051 188.196 L 242.546 36.292 Z"/>
  <path fill="#F9F9F9" fill-opacity=".996" d="M 6.151 76.756 C 5.891 82.898 5.675 89.156 5.675 96.494 L 5.675 105.864 L 137.111 240.29 L 165.685 240.29 C 165.817 240.29 165.908 240.282 166.039 240.282 L 6.151 76.756 Z"/>
  <path fill="#FDC92B" d="M 247.169 50.632 C 246.701 48.356 246.214 46.125 245.61 44.102 C 244.874 41.633 244.031 39.347 243.07 37.231 C 242.109 35.116 241.03 33.17 239.819 31.382 C 239.472 30.87 239.03 30.464 238.662 29.978 L 33.56 233.997 C 34.968 234.543 36.321 235.123 37.869 235.583 C 40.341 236.318 42.995 236.948 45.847 237.485 C 48.698 238.021 51.746 238.465 55.003 238.829 C 55.86 238.924 56.857 238.971 57.743 239.056 L 247.169 50.632 Z"/>
  <defs>
   <filter id="mcyB7V6vqfMvzqrQD3L9CA7NXG5LphVy" width="88.054" height="160.413" x="129.14" y="45.93" filterUnits="userSpaceOnUse">
    <feGaussianBlur xmlns="http://www.w3.org/2000/svg" stdDeviation="1.165"/>
   </filter>
  </defs>
  <g opacity=".1" filter="url(#mcyB7V6vqfMvzqrQD3L9CA7NXG5LphVy)">
   <path d="M 173.168 48.648 C 150.352 48.648 131.855 67.144 131.855 89.961 C 131.855 94.491 132.62 98.838 133.967 102.917 C 134.104 103.331 134.213 103.757 134.362 104.165 C 135.415 107.647 150.838 158.252 173.212 203.632 C 173.218 203.632 173.227 203.629 173.234 203.622 C 173.243 203.617 173.251 203.608 173.26 203.599 C 173.268 203.59 173.277 203.581 173.285 203.575 C 173.294 203.569 173.302 203.563 173.309 203.563 C 197.214 154.001 212.409 102.917 212.409 102.917 L 212.396 102.917 C 213.742 98.841 214.481 94.488 214.481 89.961 C 214.481 67.144 195.985 48.648 173.168 48.648 L 173.168 48.648 Z"/>
  </g>
  <defs>
   <filter id="cEg8rxvYJmEqgNdNrjDd7Mav77a7NsJI" width="126.056" height="198.415" x="110.14" y="26.93" filterUnits="userSpaceOnUse">
    <feGaussianBlur xmlns="http://www.w3.org/2000/svg" stdDeviation="9.324"/>
   </filter>
  </defs>
  <g opacity=".4" filter="url(#cEg8rxvYJmEqgNdNrjDd7Mav77a7NsJI)">
   <linearGradient id="_lgradient_30" x1=".599" x2=".599" y1=".005" y2="1" gradientTransform="matrix(82.626,0,0,154.984,131.855,48.648)" gradientUnits="userSpaceOnUse">
    <stop offset="0%" stop-opacity="0" style="stop-color:rgb(0,0,0)"/>
    <stop offset="50.383%" style="stop-color:rgb(0,0,0)"/>
    <stop offset="100%" stop-opacity="0" style="stop-color:rgb(0,0,0)"/>
   </linearGradient>
   <path fill="url(#_lgradient_30)" d="M 173.168 48.648 C 150.352 48.648 131.855 67.144 131.855 89.961 C 131.855 94.491 132.62 98.838 133.967 102.917 C 134.104 103.331 134.213 103.757 134.362 104.165 C 135.415 107.647 150.838 158.252 173.212 203.632 C 173.218 203.632 173.227 203.629 173.234 203.622 C 173.243 203.617 173.251 203.608 173.26 203.599 C 173.268 203.59 173.277 203.581 173.285 203.575 C 173.294 203.569 173.302 203.563 173.309 203.563 C 197.214 154.001 212.409 102.917 212.409 102.917 L 212.396 102.917 C 213.742 98.841 214.481 94.488 214.481 89.961 C 214.481 67.144 195.985 48.648 173.168 48.648 L 173.168 48.648 Z"/>
  </g>
  <path fill="#F22C42" d="M 173.168 47.628 C 150.352 47.628 131.855 66.125 131.855 88.941 C 131.855 93.472 132.62 97.819 133.967 101.897 C 134.104 102.312 134.213 102.737 134.362 103.146 C 135.415 106.628 150.838 157.233 173.212 202.613 C 173.218 202.613 173.227 202.609 173.234 202.602 C 173.243 202.598 173.251 202.589 173.26 202.58 C 173.269 202.57 173.277 202.562 173.285 202.556 C 173.294 202.55 173.302 202.544 173.309 202.544 C 197.214 152.982 212.409 101.898 212.409 101.898 L 212.396 101.898 C 213.742 97.821 214.481 93.469 214.481 88.941 C 214.481 66.125 195.985 47.628 173.168 47.628 L 173.168 47.628 Z"/>
  <circle fill="#BC1938" cx="0" cy="0" r="1" transform="matrix(20.388,0,0,20.388,172.852,89.423)" vector-effect="non-scaling-stroke"/>
  <g opacity=".4">
   <path fill="#FFFFFF" d="M 173.169 47.628 C 150.352 47.628 131.856 66.125 131.856 88.941 C 131.856 89.322 131.867 89.7 131.878 90.078 C 132.359 67.679 150.655 49.667 173.169 49.667 C 195.683 49.667 213.978 67.679 214.459 90.078 C 214.47 89.7 214.481 89.322 214.481 88.941 C 214.481 66.124 195.985 47.628 173.169 47.628 L 173.169 47.628 Z"/>
  </g>
 </g>
 <g opacity=".1">
  <rect fill="#FFFFFF" width="81.549" height="228.338" x="87.22" y="11.83" transform="matrix(1,0,0,1,0,0)"/>
 </g>
 <g opacity=".1">
  <path fill="#FFFFFF" d="M 5.676 126.116 L 5.676 155.742 C 5.676 229.728 16.26 240.285 90.315 240.285 L 165.685 240.285 C 239.74 240.285 250.324 229.728 250.324 155.742 L 250.324 126.116 L 5.676 126.116 Z"/>
 </g>
 <g opacity=".4">
  <linearGradient id="_lgradient_31" x1=".517" x2=".517" y1="0" y2="1">
   <stop offset="0%" style="stop-color:rgb(255,255,255)"/>
   <stop offset="12.5%" stop-opacity=".098" style="stop-color:rgb(255,255,255)"/>
   <stop offset="92.5%" stop-opacity=".098" style="stop-color:rgb(0,0,0)"/>
   <stop offset="100%" stop-opacity=".498" style="stop-color:rgb(0,0,0)"/>
  </linearGradient>
  <path fill="none" stroke="url(#_lgradient_31)" stroke-linecap="round" stroke-linejoin="round" stroke-width="4.077" d="M 165.685 11.947 C 239.74 11.947 250.324 22.504 250.324 96.491 L 250.324 155.742 C 250.324 229.728 239.74 240.285 165.685 240.285 L 90.315 240.285 C 16.26 240.285 5.676 229.728 5.676 155.742 L 5.676 96.491 C 5.676 22.504 16.26 11.947 90.315 11.947 L 165.685 11.947 Z" vector-effect="non-scaling-stroke"/>
 </g>
</svg>
