<?xml version="1.0" standalone="no"?><!-- Generator: Gravit.io --><svg xmlns="http://www.w3.org/2000/svg" xmlns:xlink="http://www.w3.org/1999/xlink" style="isolation:isolate" viewBox="0 0 256 256" width="256" height="256"><defs><filter id="0t7nFHKZmygxvnBrdZnHDXYisxBwny9P" x="-7.324" y="2.947" width="270.648" height="254.338" filterUnits="userSpaceOnUse"><feGaussianBlur xmlns="http://www.w3.org/2000/svg" in="SourceGraphic" stdDeviation="4.293609062839028"/><feOffset xmlns="http://www.w3.org/2000/svg" dx="0" dy="4" result="pf_100_offsetBlur"/><feFlood xmlns="http://www.w3.org/2000/svg" flood-color="#000000" flood-opacity="0.4"/><feComposite xmlns="http://www.w3.org/2000/svg" in2="pf_100_offsetBlur" operator="in" result="pf_100_dropShadow"/><feBlend xmlns="http://www.w3.org/2000/svg" in="SourceGraphic" in2="pf_100_dropShadow" mode="normal"/></filter></defs><g filter="url(#0t7nFHKZmygxvnBrdZnHDXYisxBwny9P)"><path d=" M 165.685 11.947 C 239.74 11.947 250.324 22.504 250.324 96.491 L 250.324 155.742 C 250.324 229.728 239.74 240.285 165.685 240.285 L 90.315 240.285 C 16.26 240.285 5.676 229.728 5.676 155.742 L 5.676 96.491 C 5.676 22.504 16.26 11.947 90.315 11.947 L 165.685 11.947 Z " id="shape" fill="rgb(236,236,236)"/></g><g opacity="0.1"><path d=" M 5.676 126.116 L 5.676 155.742 C 5.676 229.728 16.26 240.285 90.315 240.285 L 165.685 240.285 C 239.74 240.285 250.324 229.728 250.324 155.742 L 250.324 126.116 L 5.676 126.116 Z " id="bottom glass" fill="rgb(255,255,255)"/></g><g opacity="0.2"><path d=" M 128 11.947 L 128 240.285 L 165.685 240.285 C 239.74 240.285 250.324 229.728 250.324 155.742 L 250.324 96.491 C 250.324 22.504 239.74 11.947 165.685 11.947 L 128 11.947 Z " id="left glass" fill="rgb(255,255,255)"/></g><g id="java"><g id="air"><path d=" M 127.243 74.88 C 120.178 79.849 112.17 85.481 107.88 94.799 C 100.427 111.055 123.129 128.788 124.099 129.535 C 124.325 129.708 124.595 129.795 124.864 129.795 C 125.149 129.795 125.436 129.697 125.668 129.503 C 126.119 129.126 126.246 128.485 125.976 127.964 C 125.894 127.806 117.745 111.978 118.048 100.623 C 118.155 96.668 123.69 92.181 129.549 87.431 C 134.916 83.081 140.999 78.15 144.558 72.381 C 152.372 59.684 143.687 47.199 143.599 47.074 C 143.254 46.59 142.617 46.415 142.073 46.653 C 141.529 46.893 141.228 47.481 141.352 48.063 C 141.369 48.146 143.058 56.402 138.359 64.908 C 136.423 68.423 132.169 71.415 127.243 74.88 L 127.243 74.88 Z " id="path971" fill="rgb(233,84,32)"/><path d=" M 157.01 80.478 C 157.508 80.103 157.654 79.418 157.353 78.872 C 157.051 78.325 156.394 78.084 155.811 78.306 C 154.61 78.762 126.419 89.629 126.419 102.759 C 126.419 111.81 130.286 116.591 133.109 120.083 C 134.216 121.452 135.172 122.635 135.487 123.645 C 136.374 126.554 134.273 131.813 133.389 133.595 C 133.134 134.106 133.259 134.727 133.692 135.101 C 133.927 135.303 134.219 135.406 134.512 135.406 C 134.761 135.406 135.011 135.332 135.227 135.181 C 135.712 134.844 147.074 126.811 145.036 117.133 C 144.277 113.455 142.469 110.767 140.874 108.395 C 138.403 104.72 136.618 102.066 139.326 97.163 C 142.498 91.445 156.864 80.587 157.01 80.478 L 157.01 80.478 Z " id="path973" fill="rgb(233,84,32)"/></g><g id="cup"><path d=" M 83.627 135.614 C 83.144 137.061 83.372 138.496 84.286 139.766 C 87.342 144.009 98.167 146.345 114.768 146.345 C 114.769 146.345 114.77 146.345 114.77 146.345 C 117.02 146.345 119.395 146.3 121.827 146.213 C 148.369 145.263 158.213 136.994 158.62 136.643 C 159.062 136.26 159.181 135.622 158.905 135.106 C 158.63 134.59 158.037 134.331 157.47 134.487 C 148.122 137.039 130.667 137.945 118.56 137.945 C 105.013 137.945 98.113 136.969 96.424 136.249 C 97.291 135.059 102.637 132.933 109.261 131.63 C 109.894 131.506 110.329 130.921 110.266 130.279 C 110.204 129.637 109.664 129.147 109.019 129.147 C 105.136 129.147 85.663 129.459 83.627 135.614 L 83.627 135.614 Z " id="path977" fill="rgb(128,163,250)"/><path d=" M 172.442 127.097 C 166.968 127.097 161.776 129.841 161.558 129.957 C 161.052 130.228 160.795 130.809 160.934 131.367 C 161.073 131.924 161.574 132.315 162.148 132.316 C 162.264 132.316 173.826 132.41 174.873 139.016 C 175.8 144.715 163.934 153.948 159.283 157.026 C 158.781 157.358 158.586 158 158.819 158.555 C 159.017 159.028 159.478 159.324 159.974 159.324 C 160.061 159.324 160.148 159.315 160.236 159.296 C 161.339 159.06 187.235 153.354 184.497 138.277 C 182.826 129.037 177.019 127.097 172.442 127.097 L 172.442 127.097 Z " id="path979-3" fill="rgb(128,163,250)"/><path d=" M 154.683 155.181 C 154.773 154.698 154.572 154.206 154.17 153.924 L 147.961 149.575 C 147.659 149.363 147.276 149.296 146.921 149.39 C 146.856 149.407 140.363 151.114 130.936 152.161 C 127.194 152.58 123.004 152.802 118.816 152.802 C 109.392 152.802 103.229 151.694 102.332 150.882 C 102.213 150.654 102.251 150.55 102.272 150.493 C 102.435 150.039 103.309 149.501 103.872 149.287 C 104.494 149.057 104.83 148.382 104.636 147.747 C 104.443 147.112 103.789 146.738 103.143 146.893 C 96.915 148.397 93.869 150.498 94.091 153.14 C 94.484 157.825 105.335 160.229 114.507 160.865 C 115.826 160.955 117.253 161.001 118.747 161.001 C 118.747 161.001 118.748 161.001 118.749 161.001 C 134.002 161.001 153.556 156.215 153.751 156.166 C 154.229 156.05 154.593 155.664 154.683 155.181 L 154.683 155.181 Z " id="path981" fill="rgb(128,163,250)"/><path d=" M 107.872 165.234 C 108.343 164.928 108.551 164.347 108.384 163.811 C 108.218 163.276 107.717 162.924 107.154 162.932 C 106.32 162.954 98.987 163.285 98.473 167.953 C 98.318 169.348 98.718 170.623 99.662 171.742 C 102.295 174.862 109.402 176.717 121.385 177.411 C 122.803 177.496 124.243 177.539 125.666 177.539 C 140.901 177.539 151.162 172.769 151.592 172.566 C 152.009 172.369 152.283 171.959 152.308 171.499 C 152.332 171.039 152.103 170.603 151.71 170.363 L 143.863 165.572 C 143.59 165.406 143.265 165.351 142.954 165.415 C 142.904 165.425 137.922 166.459 130.403 167.48 C 128.98 167.673 127.199 167.771 125.108 167.771 C 117.597 167.771 109.243 166.544 107.641 165.741 C 107.618 165.591 107.647 165.4 107.872 165.234 L 107.872 165.234 Z " id="path983" fill="rgb(128,163,250)"/><path d=" M 118.566 191.942 C 153.463 191.912 172.193 185.706 175.801 181.801 C 177.079 180.419 177.217 179.111 177.108 178.257 C 176.84 176.155 174.925 174.867 174.708 174.728 C 174.184 174.391 173.481 174.479 173.072 174.95 C 172.665 175.421 172.655 176.11 173.064 176.581 C 173.285 176.864 173.412 177.338 172.768 177.982 C 171.326 179.329 156.777 183.419 132.554 184.647 C 129.236 184.82 125.755 184.907 122.21 184.908 C 100.522 184.908 84.649 181.937 82.566 180.206 C 83.369 179.052 88.983 177.209 94.954 176.166 C 95.627 176.049 96.081 175.415 95.977 174.74 C 95.873 174.065 95.251 173.601 94.571 173.689 C 94.402 173.712 93.831 173.746 93.169 173.786 C 83.317 174.388 71.933 175.728 71.339 180.804 C 71.158 182.351 71.618 183.755 72.705 184.977 C 75.366 187.967 83.013 191.941 118.564 191.941 C 118.565 191.942 118.565 191.942 118.566 191.942 L 118.566 191.942 Z " id="path985-3" fill="rgb(128,163,250)"/><path d=" M 182.656 182.901 C 182.163 182.673 181.58 182.789 181.212 183.186 C 181.161 183.241 175.914 188.727 160.138 191.949 C 154.099 193.159 142.762 193.773 126.444 193.773 C 110.094 193.773 94.537 193.13 94.382 193.123 C 93.732 193.092 93.176 193.564 93.088 194.204 C 92.999 194.843 93.411 195.445 94.039 195.595 C 94.201 195.633 110.505 199.453 132.797 199.453 C 143.488 199.453 153.892 198.584 163.72 196.871 C 182.046 193.658 183.329 184.572 183.374 184.187 C 183.438 183.648 183.148 183.13 182.656 182.901 L 182.656 182.901 Z " id="path987" fill="rgb(128,163,250)"/></g></g><g opacity="0.4"><linearGradient id="_lgradient_2" x1="0.5166666666666668" y1="0" x2="0.5166666666666666" y2="1.0000000000000002"><stop offset="0%" stop-opacity="1" style="stop-color:rgb(255,255,255)"/><stop offset="12.5%" stop-opacity="0.09803922" style="stop-color:rgb(255,255,255)"/><stop offset="92.500001%" stop-opacity="0.09803922" style="stop-color:rgb(0,0,0)"/><stop offset="100%" stop-opacity="0.49803922" style="stop-color:rgb(0,0,0)"/></linearGradient><path d=" M 165.685 11.947 C 239.74 11.947 250.324 22.504 250.324 96.491 L 250.324 155.742 C 250.324 229.728 239.74 240.285 165.685 240.285 L 90.315 240.285 C 16.26 240.285 5.676 229.728 5.676 155.742 L 5.676 96.491 C 5.676 22.504 16.26 11.947 90.315 11.947 L 165.685 11.947 Z " id="highlight" fill="none" vector-effect="non-scaling-stroke" stroke-width="4.077" stroke="url(#_lgradient_2)" stroke-linejoin="round" stroke-linecap="round" stroke-miterlimit="4"/></g></svg>