<?xml version="1.0" standalone="no"?><!-- Generator: Gravit.io --><svg xmlns="http://www.w3.org/2000/svg" xmlns:xlink="http://www.w3.org/1999/xlink" style="isolation:isolate" viewBox="0 0 256 256" width="256" height="256"><defs><filter id="VOakDYhSGBqm9VD0hghO6o989cYp49k8" x="-7.324" y="2.947" width="270.648" height="254.338" filterUnits="userSpaceOnUse"><feGaussianBlur xmlns="http://www.w3.org/2000/svg" in="SourceGraphic" stdDeviation="4.293609062839028"/><feOffset xmlns="http://www.w3.org/2000/svg" dx="0" dy="4" result="pf_100_offsetBlur"/><feFlood xmlns="http://www.w3.org/2000/svg" flood-color="#000000" flood-opacity="0.4"/><feComposite xmlns="http://www.w3.org/2000/svg" in2="pf_100_offsetBlur" operator="in" result="pf_100_dropShadow"/><feBlend xmlns="http://www.w3.org/2000/svg" in="SourceGraphic" in2="pf_100_dropShadow" mode="normal"/></filter></defs><g filter="url(#VOakDYhSGBqm9VD0hghO6o989cYp49k8)"><path d=" M 165.685 11.947 C 239.74 11.947 250.324 22.504 250.324 96.491 L 250.324 155.742 C 250.324 229.728 239.74 240.285 165.685 240.285 L 90.315 240.285 C 16.26 240.285 5.676 229.728 5.676 155.742 L 5.676 96.491 C 5.676 22.504 16.26 11.947 90.315 11.947 L 165.685 11.947 Z " id="shape" fill="rgb(236,236,236)"/></g><g opacity="0.1"><path d=" M 5.676 126.116 L 5.676 155.742 C 5.676 229.728 16.26 240.285 90.315 240.285 L 165.685 240.285 C 239.74 240.285 250.324 229.728 250.324 155.742 L 250.324 126.116 L 5.676 126.116 Z " id="bottom glass" fill="rgb(255,255,255)"/></g><g opacity="0.2"><path d=" M 128 11.947 L 128 240.285 L 165.685 240.285 C 239.74 240.285 250.324 229.728 250.324 155.742 L 250.324 96.491 C 250.324 22.504 239.74 11.947 165.685 11.947 L 128 11.947 Z " id="left glass" fill="rgb(255,255,255)"/></g><g id="java"><path d=" M 103.767 67.005 C 106.951 73.673 104.8 120.24 101.072 136.569 C 97.343 152.926 93.614 173.718 92.743 191.218 C 92.362 198.675 93.506 201.615 98.378 201.615 C 106.978 201.615 117.891 183.489 131.581 183.897 C 145.298 184.306 149.653 204.69 156.076 204.554 C 162.499 204.418 167.67 202.187 167.725 182.347 C 167.915 123.124 118.273 75.115 103.767 67.005 Z  M 140.999 111.503 C 149.463 124.702 163.778 154.667 163.37 178.127 C 162.962 201.588 160.43 200.09 156.593 200.226 C 152.755 200.363 146.55 179.544 130.792 179.407 C 115.061 179.271 105.455 197.969 98.706 197.234 C 91.956 196.499 105.21 138.447 107.333 128.051 C 117.158 121.437 129.513 112.237 140.999 111.503 Z " fill-rule="evenodd" id="path972" fill="rgb(77,77,77)"/><path d=" M 146.822 114.333 C 149.843 119.423 157.545 115.504 157.872 109.761 C 158.199 104.019 157.355 96.779 153.626 96.507 C 149.898 96.235 147.231 92.506 143.502 92.234 C 139.773 91.962 135.773 95.69 134.031 90.737 C 132.289 85.784 138.712 83.688 143.502 82.899 C 139.229 78.626 136.725 73.89 134.847 68.964 C 132.969 64.038 131.581 59.52 136.834 57.588 C 142.087 55.656 141.651 65.589 147.666 70.135 C 145.897 63.439 145.244 60.663 145.38 56.771 C 145.516 52.88 145.244 49.913 150.769 50.675 C 156.294 51.437 153.899 62.922 158.199 67.603 C 159.505 63.167 160.294 57.534 163.451 55.22 C 166.608 52.907 173.793 52.852 169.221 62.351 C 164.649 71.849 170.555 76.993 169.167 84.477 C 167.779 91.962 163.479 90.601 161.628 95.418 C 159.777 100.235 162.717 111.204 159.233 116.13 C 155.749 121.056 155.123 128.622 157.382 134.664 C 150.442 128.186 146.822 114.333 146.822 114.333 L 146.822 114.333 Z " fill-rule="evenodd" id="path974" fill="rgb(77,77,77)"/><path d=" M 103.576 120.729 C 100.773 139.944 91.03 142.23 90.54 150.204 C 90.05 158.178 93.125 158.94 92.935 166.316 C 92.744 173.692 86.185 176.685 85.396 180.686 C 84.607 184.687 88.771 185.966 91.193 185.966 C 93.615 185.966 96.037 175.352 97.017 168.602 C 97.997 161.853 93.806 157.879 93.806 153.252 C 93.806 148.626 99.875 140.161 98.759 147.591 C 103.794 139.644 106.189 129.52 103.576 120.729 Z " fill-rule="evenodd" id="path976" fill="rgb(77,77,77)"/><path d=" M 140.895 115.394 C 140.267 108.895 135.449 104.815 129.217 103.817 C 123.197 102.854 116.644 105.707 112.43 109.921 C 107.691 114.66 107.502 121.252 110.82 126.868 C 114.094 132.408 121.346 134.239 127.287 132.853 C 135.416 130.957 141.423 123.848 140.895 115.394 Z " id="path982" fill="rgb(77,77,77)"/><path d=" M 137.901 117.817 C 137.337 123.724 132.629 128.469 126.96 129.846 C 120.961 131.303 114.338 128.993 112.182 122.824 C 111.081 119.675 111.286 116.444 113.179 113.678 C 114.775 111.345 117.349 109.52 119.899 108.361 C 125.163 105.969 132.688 105.704 136.354 111.036 C 137.743 113.057 137.986 115.435 137.901 117.817" id="path1005" fill="rgb(233,84,32)"/></g><g opacity="0.4"><linearGradient id="_lgradient_3" x1="0.5166666666666668" y1="0" x2="0.5166666666666666" y2="1.0000000000000002"><stop offset="0%" stop-opacity="1" style="stop-color:rgb(255,255,255)"/><stop offset="12.5%" stop-opacity="0.09803922" style="stop-color:rgb(255,255,255)"/><stop offset="92.500001%" stop-opacity="0.09803922" style="stop-color:rgb(0,0,0)"/><stop offset="100%" stop-opacity="0.49803922" style="stop-color:rgb(0,0,0)"/></linearGradient><path d=" M 165.685 11.947 C 239.74 11.947 250.324 22.504 250.324 96.491 L 250.324 155.742 C 250.324 229.728 239.74 240.285 165.685 240.285 L 90.315 240.285 C 16.26 240.285 5.676 229.728 5.676 155.742 L 5.676 96.491 C 5.676 22.504 16.26 11.947 90.315 11.947 L 165.685 11.947 Z " id="highlight" fill="none" vector-effect="non-scaling-stroke" stroke-width="4.077" stroke="url(#_lgradient_3)" stroke-linejoin="round" stroke-linecap="round" stroke-miterlimit="4"/></g></svg>