<svg xmlns="http://www.w3.org/2000/svg" width="16" height="16" version="1.1">
 <defs>
  <style id="current-color-scheme" type="text/css">
   .ColorScheme-Text { color:#5c616c; } .ColorScheme-Highlight { color:#5294e2; }
  </style>
  <linearGradient id="arrongin" x1="0%" x2="0%" y1="0%" y2="100%">
   <stop id="stop3" offset="0%" style="stop-color:#dd9b44"/>
   <stop id="stop5" offset="100%" style="stop-color:#ad6c16"/>
  </linearGradient>
  <linearGradient id="aurora" x1="0%" x2="0%" y1="0%" y2="100%">
   <stop id="stop8" offset="0%" style="stop-color:#09D4DF"/>
   <stop id="stop10" offset="100%" style="stop-color:#9269F4"/>
  </linearGradient>
  <linearGradient id="fitdance" x1="0%" x2="0%" y1="0%" y2="100%">
   <stop id="stop13" offset="0%" style="stop-color:#1AD6AB"/>
   <stop id="stop15" offset="100%" style="stop-color:#329DB6"/>
  </linearGradient>
  <linearGradient id="oomox" x1="0%" x2="0%" y1="0%" y2="100%">
   <stop id="stop18" offset="0%" style="stop-color:#efefe7"/>
   <stop id="stop20" offset="100%" style="stop-color:#8f8f8b"/>
  </linearGradient>
  <linearGradient id="rainblue" x1="0%" x2="0%" y1="0%" y2="100%">
   <stop id="stop23" offset="0%" style="stop-color:#00F260"/>
   <stop id="stop25" offset="100%" style="stop-color:#0575E6"/>
  </linearGradient>
  <linearGradient id="sunrise" x1="0%" x2="0%" y1="0%" y2="100%">
   <stop id="stop28" offset="0%" style="stop-color:#FF8501"/>
   <stop id="stop30" offset="100%" style="stop-color:#FFCB01"/>
  </linearGradient>
  <linearGradient id="telinkrin" x1="0%" x2="0%" y1="0%" y2="100%">
   <stop id="stop33" offset="0%" style="stop-color:#b2ced6"/>
   <stop id="stop35" offset="100%" style="stop-color:#6da5b7"/>
  </linearGradient>
  <linearGradient id="60spsycho" x1="0%" x2="0%" y1="0%" y2="100%">
   <stop id="stop38" offset="0%" style="stop-color:#df5940"/>
   <stop id="stop40" offset="25%" style="stop-color:#d8d15f"/>
   <stop id="stop42" offset="50%" style="stop-color:#e9882a"/>
   <stop id="stop44" offset="100%" style="stop-color:#279362"/>
  </linearGradient>
  <linearGradient id="90ssummer" x1="0%" x2="0%" y1="0%" y2="100%">
   <stop id="stop47" offset="0%" style="stop-color:#f618c7"/>
   <stop id="stop49" offset="20%" style="stop-color:#94ffab"/>
   <stop id="stop51" offset="50%" style="stop-color:#fbfd54"/>
   <stop id="stop53" offset="100%" style="stop-color:#0f83ae"/>
  </linearGradient>
  <linearGradient id="cyberneon" x1="0%" x2="0%" y1="0%" y2="100%">
   <stop id="stop56" offset="0" style="stop-color:#0abdc6"/>
   <stop id="stop58" offset="1" style="stop-color:#ea00d9"/>
  </linearGradient>
 </defs>
 <g fill="currentColor" class="ColorScheme-Text" id="Fiction_Book">
  <path id="Book" d="m 1,0 v 16 h 9 0.75 L 15,11.75 V 11 0 Z m 1,1 h 12 v 10 h -4 v 4 H 2 Z" style="fill:currentColor;"/>
  <g id="Sta_Trek">
   <path id="spaceship" fill-rule="evenodd" d="m 2.9953267,11.185585 c -0.019804,0.232325 -0.037789,0.470964 -0.054127,0.716409 0.072445,-0.08714 0.1442349,-0.173656 0.2152074,-0.258937 0.081852,-0.09865 0.1627145,-0.196183 0.2425989,-0.292233 C 5.6609436,8.6319843 7.1372939,7.0085894 8.5540217,9.8399039 8.7706278,10.27324 8.9862438,10.810918 9.2027261,11.465192 9.1309367,10.867855 9.0486263,10.282399 8.9545574,9.7113017 8.4634185,6.7310118 7.6510836,4.146418 6.3181514,2.3526717 6.2280432,2.2313723 6.1355833,2.1138727 6.0408955,1.9999998 5.965269,2.1310403 5.8916601,2.2600881 5.8198706,2.3873287 3.974634,5.6556552 3.2876088,7.7515732 2.9953267,11.185585 Z m 0.471174,-0.564042 C 3.8629147,10.150826 4.2388563,9.7181093 4.5951672,9.347651 5.1864772,8.7332322 5.7779604,8.2304956 6.3773158,8.032629 6.6895999,7.9296482 7.0137665,7.9057102 7.3386757,7.9981329 c 0.3218148,0.091754 0.6093439,0.2876529 0.8682811,0.5654039 0.049758,0.053471 0.099144,0.110531 0.1477873,0.1711807 C 7.8748687,6.3159449 7.1554888,4.2500671 6.0930048,2.750571 5.200996,4.344953 4.5994498,5.645419 4.1848904,6.966345 3.831055,8.093353 3.6100797,9.245908 3.4665007,10.621543 Z"/>
   <path id="star"      clip-rule="evenodd" d="M 6.0722656,3.2265625 5.7890625,5.734375 h -0.00781 -0.00195 -0.00195 l -0.71875,0.2714844 -0.019531,0.00781 0.019531,0.00977 0.6484374,0.3515625 0.00586,0.00195 0.00195,-0.00195 h 0.00195 L 5.6347689,7.095705 5.6542999,7.101565 6.0820342,6.42969 6.531253,7.101565 6.550784,7.095705 6.464847,6.3789081 h 0.023437 0.00195 l 0.00195,-0.00195 0.6875,-0.3535156 0.021484,-0.00977 L 7.177731,6.0058625 6.4082031,5.734375 H 6.40625 6.4042969 6.3886719 L 6.0917969,3.2265625 Z"/>
  </g>
 </g>
</svg>
