<svg xmlns="http://www.w3.org/2000/svg" fill="none" width="256" height="256" viewBox="0 0 256 256">
 <path fill="#B12E00" d="M53.039 21C16.724 21 13 23.055 13 59.371V111.538H243V79.563C243 43.247 239.276 37.461 202.961 37.461H113.625L97.198 21H53.039Z"/>
 <path fill="url(#paint0_linear)" d="M53.039 70.384C16.722 70.384 13 74.114 13 110.429V194.953C13 231.269 16.722 235 53.039 235H202.961C239.278 235 243 231.269 243 194.953V93.969C243 57.653 239.278 53.922 202.961 53.922H119.53L103.092 70.384H53.039Z"/>
 <g opacity=".4">
  <path fill="url(#paint1_radial)" opacity=".4" d="M53.039 21C16.724 21 13 23.055 13 59.371V61.43C13 25.114 16.724 23.057 53.039 23.057H97.198L113.625 39.518H202.961C239.276 39.518 243 45.304 243 81.62V79.563C243 43.247 239.276 37.461 202.961 37.461H113.625L97.198 21H53.039Z"/>
 </g>
 <g opacity=".4">
  <path fill="url(#paint2_radial)" opacity=".4" d="M119.53 53.922L103.092 70.384H53.039C16.724 70.384 13 74.112 13 110.427V112.487C13 76.171 16.724 72.441 53.039 72.441H103.092L119.53 55.981H202.961C239.276 55.981 243 59.708 243 96.024V93.967C243 57.651 239.276 53.922 202.961 53.922H119.53Z"/>
 </g>
 <path fill="#fff" opacity=".1" d="M243 167.096L177.285 232.941H202.961C239.276 232.941 243 229.214 243 192.898V167.096Z"/>
 <path opacity=".2" d="M13 192.898V194.955C13 231.271 16.724 235 53.039 235H202.961C239.276 235 243 231.271 243 194.955V192.898C243 229.214 239.276 232.941 202.961 232.941H53.039C16.724 232.941 13 229.214 13 192.898Z"/>
 <g opacity=".4" filter="url(#filter0_f)">
  <path fill-rule="evenodd" d="M165.51 106.379C171.763 114.936 174.683 126.222 175.179 138.731C175.35 138.767 175.515 138.821 175.672 138.892C179.459 140.611 180.499 146.117 180.499 146.117C180.499 146.117 182.901 170.198 171.214 179.831C168.323 182.209 165.502 183.981 162.853 185.285C155.828 199.774 143.833 210 127.911 210C111.902 210 99.9527 199.84 92.9562 185.425C90.3115 184.099 87.467 182.283 84.4922 179.831C72.783 170.198 75.208 146.117 75.208 146.117C75.208 146.117 76.2239 140.611 80.0116 138.892C80.2103 138.802 80.4213 138.741 80.6428 138.707C81.0491 128.361 83.091 118.85 87.333 111.03C91.0051 104.245 96.34 98.7369 103.661 95.0625C103.782 95.0012 103.911 94.935 104.048 94.8643L104.048 94.8642L104.048 94.8641C106.486 93.6101 111.629 90.9637 122.784 90.1894C124.447 90.074 126.133 90 127.911 90C133.107 90 137.796 90.5242 142.045 91.4919C152.623 93.9146 160.267 99.1757 165.51 106.379Z" clip-rule="evenodd"/>
 </g>
 <path fill="url(#paint3_linear)" fill-rule="evenodd" d="M127.911 100.007C151.145 100.007 169.967 123.596 169.967 152.694C169.967 181.792 154.355 210 127.911 210C101.236 210 85.8318 181.792 85.8318 152.694C85.8318 123.596 104.677 100.007 127.911 100.007Z" clip-rule="evenodd"/>
 <path fill="url(#paint4_linear)" fill-rule="evenodd" opacity=".4" d="M93.4993 157.602C90.8202 156.052 88.8803 154.255 88.5801 152.562C87.841 148.306 86.2705 142.752 86.2705 142.752H88.5338H127.911V142.752H128.35H167.172C167.172 142.752 167.173 142.752 167.173 142.752H170.429C170.429 142.752 168.859 148.306 168.12 152.562C167.796 154.475 165.325 156.523 162.138 158.198V158.198C158.212 160.249 153.154 161.743 149.551 161.743V161.743C143.015 161.743 139.597 158.978 136.664 155.168C135.209 153.26 131.768 152.308 128.35 152.308C128.211 152.308 128.049 152.31 127.911 152.314V152.313C124.631 152.394 121.444 153.345 120.036 155.168C117.126 158.978 113.707 161.743 107.149 161.743C103.199 161.743 97.5409 159.955 93.4993 157.602Z" clip-rule="evenodd"/>
 <path fill="url(#paint5_linear)" fill-rule="evenodd" d="M165.51 124.684V106.379C171.763 114.936 174.683 126.222 175.179 138.731C175.35 138.767 175.515 138.821 175.672 138.892C179.459 140.611 180.499 146.117 180.499 146.117C180.499 146.117 182.901 170.198 171.214 179.831C159.505 189.464 148.928 189.145 146.41 188.09C143.893 187.032 144.032 183.272 144.724 178.454C145.417 173.639 161.93 159.877 161.93 159.877L163.639 146.117C163.639 146.117 165.184 144.446 167.242 142.687H127.911H122.784V90.1894C124.447 90.074 126.133 90 127.911 90C133.107 90 137.796 90.5242 142.045 91.4919V124.684C142.045 131.142 147.311 136.424 153.778 136.424C160.244 136.424 165.51 131.142 165.51 124.684ZM103.661 95.0625V142.687H111.098V92.1779C108.419 92.9515 105.924 93.9146 103.661 95.0625ZM88.4629 142.687H103.661L87.333 111.03C83.091 118.85 81.0491 128.361 80.6428 138.707C80.4213 138.741 80.2103 138.802 80.0116 138.892C76.2239 140.611 75.208 146.117 75.208 146.117C75.208 146.117 72.783 170.198 84.4922 179.831C96.1783 189.464 105.855 189.288 109.296 188.09C112.318 187.028 111.856 184.078 111.23 180.079L111.229 180.079L111.229 180.078L111.229 180.076C111.147 179.553 111.062 179.012 110.982 178.454C110.289 173.639 93.7765 159.877 93.7765 159.877L92.0674 146.117C92.0674 146.117 90.5228 144.446 88.4629 142.687Z" clip-rule="evenodd"/>
 <path fill="url(#paint6_linear)" d="M81.7206 157.163C82.2287 163.094 81.6047 167.99 80.3118 168.098C79.0416 168.209 77.5867 163.489 77.0786 157.558C76.5704 151.627 77.1946 146.731 78.4873 146.622C79.7574 146.514 81.2124 151.232 81.7206 157.163Z"/>
 <path fill="url(#paint7_linear)" d="M178.72 157.523C178.305 163.461 176.942 168.202 175.649 168.112C174.378 168.022 173.663 163.135 174.078 157.198C174.494 151.26 175.88 146.521 177.15 146.608C178.443 146.699 179.136 151.585 178.72 157.523Z"/>
 <path fill="url(#paint8_linear)" d="M111.098 92.1779V142.687H122.784V90.1894C118.534 90.4873 114.631 91.1617 111.098 92.1779Z"/>
 <path fill="url(#paint9_linear)" d="M87.333 111.03L103.661 142.687V95.0625C96.34 98.7369 91.0051 104.245 87.333 111.03"/>
 <path fill="url(#paint10_linear)" d="M153.778 136.424C160.244 136.424 165.51 131.142 165.51 124.684V106.379C160.267 99.1757 152.623 93.9146 142.045 91.4919V124.684C142.045 131.142 147.311 136.424 153.778 136.424"/>
 <path fill="url(#paint11_linear)" d="M153.085 118.904C153.038 118.144 152.831 117.569 152.484 117.04C152.346 116.839 152.276 116.649 152.531 116.502C153.062 116.22 153.339 115.714 153.686 115.287C153.871 115.084 153.986 115.024 154.194 115.299C154.471 115.682 154.818 116.04 155.187 116.352C155.533 116.641 155.51 116.895 155.279 117.211C154.956 117.655 154.909 118.193 154.84 118.761C155.117 118.514 155.371 118.255 155.671 118.024C156.179 117.599 156.318 117.615 156.803 118.114L157.126 118.493L157.035 118.802C155.764 119.521 155.233 120.694 155.095 122.07C155.003 122.819 155.072 123.56 155.441 124.237C156.088 125.364 157.45 125.611 158.536 124.805C160.175 123.599 160.776 121.592 160.106 119.456C159.806 118.514 159.344 117.666 158.79 116.842C159.921 117.542 160.868 118.456 161.515 119.645C162.162 120.844 162.6 122.126 162.647 123.495C162.808 127.447 160.291 131.168 156.041 132.198C151.908 133.195 147.635 131.235 145.88 127.138C144.286 123.366 145.695 118.999 149.067 116.759C149.136 117.068 148.882 117.214 148.766 117.401C148.004 118.553 147.519 119.793 147.496 121.186C147.496 122.398 147.935 123.452 148.72 124.357C149.621 125.408 151.191 125.576 152.069 124.733C152.623 124.184 152.785 123.442 152.831 122.699C152.878 121.417 152.485 120.294 151.561 119.364C151.4 119.177 151.191 119.01 150.96 118.916C150.591 118.765 150.545 118.641 150.869 118.338C151.677 117.565 151.839 117.553 152.624 118.391C152.762 118.523 152.878 118.664 153.086 118.904"/>
 <path fill="url(#paint12_linear)" d="M159.066 185.618C154.955 187.607 150.567 187.069 149.297 184.413C148.004 181.759 150.29 177.992 154.401 176.004C158.512 174.013 162.877 174.551 164.17 177.207C165.464 179.863 163.177 183.628 159.066 185.618"/>
 <path fill="#6B6C73" d="M143.246 192.194L135.394 195.76C134.539 196.148 133.5 195.765 133.131 194.905L131.814 192.013C131.422 191.154 131.814 190.131 132.669 189.741L140.521 186.177C141.376 185.787 142.415 186.17 142.807 187.032L144.101 189.921C144.493 190.78 144.123 191.803 143.246 192.194"/>
 <path fill="#6B6C73" d="M157.034 184.722L138.512 193.117C137.957 193.374 137.288 193.123 137.034 192.561C136.78 192.002 137.034 191.335 137.588 191.08L156.11 182.683C156.664 182.429 157.334 182.681 157.588 183.24C157.842 183.801 157.588 184.468 157.034 184.722"/>
 <path fill="#6B6C73" d="M158.12 185.438C155.672 186.621 153.085 186.3 152.323 184.722C151.56 183.147 152.9 180.912 155.348 179.731C157.796 178.549 160.383 178.87 161.145 180.445C161.907 182.023 160.545 184.256 158.12 185.438Z"/>
 <defs>
  <filter id="filter0_f" width="125.702" height="140" x="65" y="80" color-interpolation-filters="sRGB" filterUnits="userSpaceOnUse">
   <feFlood flood-opacity="0" result="BackgroundImageFix"/>
   <feBlend in="SourceGraphic" in2="BackgroundImageFix" mode="normal" result="shape"/>
   <feGaussianBlur result="effect1_foregroundBlur" stdDeviation="5"/>
  </filter>
  <linearGradient id="paint0_linear" x1="119.53" x2="120.057" y1="53.922" y2="234.5" gradientUnits="userSpaceOnUse">
   <stop stop-color="#FB3E02"/>
   <stop offset="1" stop-color="#47505C"/>
  </linearGradient>
  <radialGradient id="paint1_radial" cx="0" cy="0" r="1" gradientTransform="translate(128 51.31) scale(62.56 16.4886)" gradientUnits="userSpaceOnUse">
   <stop stop-color="#fff"/>
   <stop offset="1" stop-color="#fff" stop-opacity=".204"/>
  </radialGradient>
  <radialGradient id="paint2_radial" cx="0" cy="0" r="1" gradientTransform="translate(128 83.2045) scale(62.56 15.9297)" gradientUnits="userSpaceOnUse">
   <stop stop-color="#fff"/>
   <stop offset="1" stop-color="#fff" stop-opacity=".204"/>
  </radialGradient>
  <linearGradient id="paint3_linear" x1="127.899" x2="127.899" y1="210" y2="100.007" gradientUnits="userSpaceOnUse">
   <stop stop-color="#C58D67" stop-opacity=".996"/>
   <stop offset="1" stop-color="#E6AA81" stop-opacity=".996"/>
  </linearGradient>
  <linearGradient id="paint4_linear" x1="86.27" x2="86.27" y1="142.752" y2="161.743" gradientUnits="userSpaceOnUse">
   <stop offset="0" stop-color="#F7FF57"/>
   <stop offset=".5" stop-color="#FFE251"/>
   <stop offset="1" stop-color="#F5CF0F"/>
  </linearGradient>
  <linearGradient id="paint5_linear" x1="75" x2="75" y1="90" y2="188.664" gradientUnits="userSpaceOnUse">
   <stop offset="0" stop-color="#4C5561"/>
   <stop offset="1" stop-color="#2E3842"/>
  </linearGradient>
  <linearGradient id="paint6_linear" x1="76.902" x2="76.902" y1="146.62" y2="168.1" gradientUnits="userSpaceOnUse">
   <stop offset="0" stop-color="#F40"/>
   <stop offset="1" stop-color="#DC1414"/>
  </linearGradient>
  <linearGradient id="paint7_linear" x1="173.96" x2="173.96" y1="146.607" y2="168.114" gradientUnits="userSpaceOnUse">
   <stop offset="0" stop-color="#F40"/>
   <stop offset="1" stop-color="#DC1414"/>
  </linearGradient>
  <linearGradient id="paint8_linear" x1="111.098" x2="111.098" y1="90.189" y2="142.687" gradientUnits="userSpaceOnUse">
   <stop offset="0" stop-color="#F40"/>
   <stop offset="1" stop-color="#DC1414"/>
  </linearGradient>
  <linearGradient id="paint9_linear" x1="87.333" x2="87.333" y1="95.063" y2="142.687" gradientUnits="userSpaceOnUse">
   <stop offset="0" stop-color="#F40"/>
   <stop offset="1" stop-color="#DC1414"/>
  </linearGradient>
  <linearGradient id="paint10_linear" x1="142.045" x2="142.045" y1="91.492" y2="136.424" gradientUnits="userSpaceOnUse">
   <stop offset="0" stop-color="#BDC3C7"/>
   <stop offset="1" stop-color="#AEAFB3"/>
  </linearGradient>
  <linearGradient id="paint11_linear" x1="145.224" x2="145.224" y1="115.113" y2="132.454" gradientUnits="userSpaceOnUse">
   <stop offset="0" stop-color="#F40"/>
   <stop offset="1" stop-color="#DC1414"/>
  </linearGradient>
  <linearGradient id="paint12_linear" x1="148.935" x2="148.935" y1="174.802" y2="186.818" gradientUnits="userSpaceOnUse">
   <stop offset="0" stop-color="#F40"/>
   <stop offset="1" stop-color="#DC1414"/>
  </linearGradient>
 </defs>
</svg>
