<svg xmlns="http://www.w3.org/2000/svg" style="isolation:isolate" width="256" height="256" viewBox="0 0 256 256">
 <defs>
  <filter id="fQ8CBtWVqG7W9WH73UUw4nBErrXvz7j3" width="270.648" height="254.338" x="-7.32" y="2.95" filterUnits="userSpaceOnUse">
   <feGaussianBlur xmlns="http://www.w3.org/2000/svg" in="SourceGraphic" stdDeviation="4.294"/>
   <feOffset xmlns="http://www.w3.org/2000/svg" dx="0" dy="4" result="pf_100_offsetBlur"/>
   <feFlood xmlns="http://www.w3.org/2000/svg" flood-opacity=".4"/>
   <feComposite xmlns="http://www.w3.org/2000/svg" in2="pf_100_offsetBlur" operator="in" result="pf_100_dropShadow"/>
   <feBlend xmlns="http://www.w3.org/2000/svg" in="SourceGraphic" in2="pf_100_dropShadow" mode="normal"/>
  </filter>
 </defs>
 <g filter="url(#fQ8CBtWVqG7W9WH73UUw4nBErrXvz7j3)">
  <linearGradient id="_lgradient_40" x1="-.033" x2="1.033" y1="-.071" y2=".995" gradientTransform="matrix(244.648,0,0,228.338,5.676,11.947)" gradientUnits="userSpaceOnUse">
   <stop offset="0%" style="stop-color:rgb(88,132,244)"/>
   <stop offset="100%" style="stop-color:rgb(128,163,250)"/>
  </linearGradient>
  <path fill="url(#_lgradient_40)" d="M 165.685 11.947 C 239.74 11.947 250.324 22.504 250.324 96.491 L 250.324 155.742 C 250.324 229.728 239.74 240.285 165.685 240.285 L 90.315 240.285 C 16.26 240.285 5.676 229.728 5.676 155.742 L 5.676 96.491 C 5.676 22.504 16.26 11.947 90.315 11.947 L 165.685 11.947 Z"/>
 </g>
 <g opacity=".4">
  <linearGradient id="_lgradient_41" x1=".517" x2=".517" y1="0" y2="1">
   <stop offset="0%" style="stop-color:rgb(255,255,255)"/>
   <stop offset="12.5%" stop-opacity=".098" style="stop-color:rgb(255,255,255)"/>
   <stop offset="92.5%" stop-opacity=".098" style="stop-color:rgb(0,0,0)"/>
   <stop offset="100%" stop-opacity=".498" style="stop-color:rgb(0,0,0)"/>
  </linearGradient>
  <path fill="none" stroke="url(#_lgradient_41)" stroke-linecap="round" stroke-linejoin="round" stroke-width="4.077" d="M 165.685 11.947 C 239.74 11.947 250.324 22.504 250.324 96.491 L 250.324 155.742 C 250.324 229.728 239.74 240.285 165.685 240.285 L 90.315 240.285 C 16.26 240.285 5.676 229.728 5.676 155.742 L 5.676 96.491 C 5.676 22.504 16.26 11.947 90.315 11.947 L 165.685 11.947 Z" vector-effect="non-scaling-stroke"/>
 </g>
 <g opacity=".1">
  <path fill="#FFFFFF" d="M 5.676 126.116 L 5.676 155.742 C 5.676 229.728 16.26 240.285 90.315 240.285 L 165.685 240.285 C 239.74 240.285 250.324 229.728 250.324 155.742 L 250.324 126.116 L 5.676 126.116 Z"/>
 </g>
 <g>
  <g opacity=".2">
   <rect fill="#FFFFFF" width="146.789" height="122.324" x="42.37" y="54.6" transform="matrix(1,0,0,1,0,0)"/>
  </g>
  <path fill="#FFFFFF" d="M 38.296 50.528 L 38.296 58.683 L 46.451 58.683 L 46.451 50.528 L 38.296 50.528 Z M 62.76 50.528 L 62.76 58.683 L 70.915 58.683 L 70.915 50.528 L 62.76 50.528 Z M 87.225 50.528 L 87.225 58.683 L 95.38 58.683 L 95.38 50.528 L 87.225 50.528 Z M 111.69 50.528 L 111.69 58.683 L 119.845 58.683 L 119.845 50.528 L 111.69 50.528 Z M 136.155 50.528 L 136.155 58.683 L 144.31 58.683 L 144.31 50.528 L 136.155 50.528 Z M 160.62 50.528 L 160.62 58.683 L 168.775 58.683 L 168.775 50.528 L 160.62 50.528 Z M 185.085 50.528 L 185.085 58.683 L 193.24 58.683 L 193.24 50.528 L 185.085 50.528 Z M 38.296 74.993 L 38.296 83.148 L 46.451 83.148 L 46.451 74.993 L 38.296 74.993 Z M 185.085 74.993 L 185.085 83.148 L 193.24 83.148 L 193.24 74.993 L 185.085 74.993 Z M 38.296 99.458 L 38.296 107.613 L 46.451 107.613 L 46.451 99.458 L 38.296 99.458 Z M 185.085 99.458 L 185.085 107.613 L 193.24 107.613 L 193.24 99.458 L 185.085 99.458 Z M 38.296 123.922 L 38.296 132.078 L 46.451 132.078 L 46.451 123.922 L 38.296 123.922 Z M 185.085 123.922 L 185.085 132.078 L 193.24 132.078 L 193.24 123.922 L 185.085 123.922 Z M 38.296 148.387 L 38.296 156.542 L 46.451 156.542 L 46.451 148.387 L 38.296 148.387 Z M 185.085 148.387 L 185.085 172.852 L 160.62 172.852 L 160.62 181.007 L 185.085 181.007 L 185.085 205.472 L 193.24 205.472 L 193.24 181.007 L 217.704 181.007 L 217.704 172.852 L 193.24 172.852 L 193.24 148.387 L 185.085 148.387 Z M 38.296 172.852 L 38.296 181.007 L 46.451 181.007 L 46.451 172.852 L 38.296 172.852 Z M 62.76 172.852 L 62.76 181.007 L 70.915 181.007 L 70.915 172.852 L 62.76 172.852 Z M 87.225 172.852 L 87.225 181.007 L 95.38 181.007 L 95.38 172.852 L 87.225 172.852 Z M 111.69 172.852 L 111.69 181.007 L 119.845 181.007 L 119.845 172.852 L 111.69 172.852 Z M 136.155 172.852 L 136.155 181.007 L 144.31 181.007 L 144.31 172.852 L 136.155 172.852 Z"/>
 </g>
</svg>
