<?xml version="1.0" encoding="UTF-8" standalone="no"?>
<!-- Created with Inkscape (http://www.inkscape.org/) -->

<svg
   xmlns:dc="http://purl.org/dc/elements/1.1/"
   xmlns:cc="http://creativecommons.org/ns#"
   xmlns:rdf="http://www.w3.org/1999/02/22-rdf-syntax-ns#"
   xmlns:svg="http://www.w3.org/2000/svg"
   xmlns="http://www.w3.org/2000/svg"
   xmlns:xlink="http://www.w3.org/1999/xlink"
   xmlns:sodipodi="http://sodipodi.sourceforge.net/DTD/sodipodi-0.dtd"
   xmlns:inkscape="http://www.inkscape.org/namespaces/inkscape"
   width="256"
   height="256"
   viewBox="0 0 67.733332 67.733335"
   version="1.1"
   id="svg1488"
   inkscape:version="0.92.3 (2405546, 2018-03-11)"
   sodipodi:docname="applications-roleplaying.svg">
  <defs
     id="defs1482">
    <clipPath
       clipPathUnits="userSpaceOnUse"
       id="clipPath1025">
      <path
         id="path1027"
         d="M 111.94141,84 C 99.359506,84.145 90.1531,83.713998 82.625,87.867188 c -3.7641,2.0768 -6.751838,5.574737 -8.398438,9.960937 C 72.580062,102.21433 72,107.4241 72,114 v 42 h 160 v -26 c 0,-6.5759 -0.57996,-11.78566 -2.22656,-16.17188 -0.205,-0.5455 -0.47919,-1.03993 -0.74219,-1.54296 -0.1,-0.1848 -0.17844,-0.38051 -0.27344,-0.56641 -1.727,-3.38752 -4.25471,-6.14522 -7.38281,-7.87109 C 213.8463,99.694146 204.64049,100.1454 192.05859,100 H 192 151.66797 L 135.45312,84 h -23.49218 z"
         style="color:#000000;font-style:normal;font-variant:normal;font-weight:normal;font-stretch:normal;font-size:medium;line-height:normal;font-family:sans-serif;font-variant-ligatures:none;font-variant-position:normal;font-variant-caps:normal;font-variant-numeric:normal;font-variant-alternates:normal;font-feature-settings:normal;text-indent:0;text-align:start;text-decoration:none;text-decoration-line:none;text-decoration-style:solid;text-decoration-color:#000000;letter-spacing:normal;word-spacing:normal;text-transform:none;writing-mode:lr-tb;direction:ltr;baseline-shift:baseline;text-anchor:start;white-space:normal;shape-padding:0;clip-rule:nonzero;display:inline;overflow:visible;visibility:visible;opacity:1;isolation:auto;mix-blend-mode:normal;color-interpolation:sRGB;color-interpolation-filters:linearRGB;solid-color:#000000;solid-opacity:1;fill:#e3dfd5;fill-opacity:1;fill-rule:nonzero;stroke:none;stroke-width:4.00000048;stroke-linecap:butt;stroke-linejoin:miter;stroke-miterlimit:4;stroke-dasharray:none;stroke-dashoffset:0;stroke-opacity:1;marker:none;color-rendering:auto;image-rendering:auto;shape-rendering:auto;text-rendering:auto;enable-background:accumulate"
         inkscape:connector-curvature="0" />
    </clipPath>
    <linearGradient
       id="linearGradient1013"
       inkscape:collect="always">
      <stop
         id="stop1005"
         offset="0"
         style="stop-color:#ffffff;stop-opacity:1;" />
      <stop
         style="stop-color:#ffffff;stop-opacity:0.09803922"
         offset="0.125"
         id="stop1007" />
      <stop
         style="stop-color:#000000;stop-opacity:0.09803922"
         offset="0.92500001"
         id="stop1009" />
      <stop
         id="stop1011"
         offset="1"
         style="stop-color:#000000;stop-opacity:0.49803922" />
    </linearGradient>
    <clipPath
       clipPathUnits="userSpaceOnUse"
       id="clipPath1082-3">
      <path
         sodipodi:nodetypes="sssssssss"
         inkscape:connector-curvature="0"
         id="path1084-6"
         d="M 361.9375,-212 C 507.2348,-212 528,-191.28677 528,-46.125 V 70.125 C 528,215.28618 507.2348,236 361.9375,236 H 214.0625 C 68.7652,236 48,215.28618 48,70.125 V -46.125 C 48,-191.28677 68.7652,-212 214.0625,-212 Z"
         style="display:inline;opacity:1;fill:#8c59d9;fill-opacity:1;stroke:none;stroke-width:2;stroke-linecap:round;stroke-linejoin:round;stroke-miterlimit:4;stroke-dasharray:none;stroke-dashoffset:0;stroke-opacity:1;enable-background:new" />
    </clipPath>
    <clipPath
       clipPathUnits="userSpaceOnUse"
       id="clipPath1082-3-5">
      <path
         sodipodi:nodetypes="sssssssss"
         inkscape:connector-curvature="0"
         id="path1084-6-6"
         d="M 361.9375,-212 C 507.2348,-212 528,-191.28677 528,-46.125 V 70.125 C 528,215.28618 507.2348,236 361.9375,236 H 214.0625 C 68.7652,236 48,215.28618 48,70.125 V -46.125 C 48,-191.28677 68.7652,-212 214.0625,-212 Z"
         style="display:inline;opacity:1;fill:#8c59d9;fill-opacity:1;stroke:none;stroke-width:2;stroke-linecap:round;stroke-linejoin:round;stroke-miterlimit:4;stroke-dasharray:none;stroke-dashoffset:0;stroke-opacity:1;enable-background:new" />
    </clipPath>
    <filter
       inkscape:collect="always"
       style="color-interpolation-filters:sRGB"
       id="filter4569-2"
       x="-0.0116"
       width="1.0232"
       y="-0.012428571"
       height="1.024857">
      <feGaussianBlur
         inkscape:collect="always"
         stdDeviation="1.16"
         id="feGaussianBlur4571-9" />
    </filter>
    <filter
       inkscape:collect="always"
       style="color-interpolation-filters:sRGB"
       id="filter913"
       x="-0.0232"
       width="1.0464"
       y="-0.024857143"
       height="1.0497143">
      <feGaussianBlur
         inkscape:collect="always"
         stdDeviation="2.32"
         id="feGaussianBlur915" />
    </filter>
    <linearGradient
       inkscape:collect="always"
       xlink:href="#linearGradient1013"
       id="linearGradient906"
       gradientUnits="userSpaceOnUse"
       x1="296"
       y1="-212"
       x2="296"
       y2="236" />
    <filter
       inkscape:collect="always"
       style="color-interpolation-filters:sRGB"
       id="filter1588"
       x="-0.045763233"
       width="1.0915265"
       y="-0.050466656"
       height="1.1009333">
      <feGaussianBlur
         inkscape:collect="always"
         stdDeviation="0.56614783"
         id="feGaussianBlur1590" />
    </filter>
  </defs>
  <sodipodi:namedview
     id="base"
     pagecolor="#ffffff"
     bordercolor="#666666"
     borderopacity="1.0"
     inkscape:pageopacity="0.0"
     inkscape:pageshadow="2"
     inkscape:zoom="3.2382812"
     inkscape:cx="128"
     inkscape:cy="128"
     inkscape:document-units="px"
     inkscape:current-layer="layer1"
     showgrid="true"
     units="px"
     inkscape:window-width="1920"
     inkscape:window-height="1009"
     inkscape:window-x="0"
     inkscape:window-y="34"
     inkscape:window-maximized="1">
    <inkscape:grid
       type="xygrid"
       id="grid2168" />
  </sodipodi:namedview>
  <metadata
     id="metadata1485">
    <rdf:RDF>
      <cc:Work
         rdf:about="">
        <dc:format>image/svg+xml</dc:format>
        <dc:type
           rdf:resource="http://purl.org/dc/dcmitype/StillImage" />
        <dc:title></dc:title>
      </cc:Work>
    </rdf:RDF>
  </metadata>
  <g
     inkscape:label="Livello 1"
     inkscape:groupmode="layer"
     id="layer1"
     transform="translate(0,-229.26666)">
    <path
       style="display:inline;opacity:0.2;fill:#000000;fill-opacity:1;stroke:none;stroke-width:2;stroke-linecap:round;stroke-linejoin:round;stroke-miterlimit:4;stroke-dasharray:none;stroke-dashoffset:0;stroke-opacity:1;filter:url(#filter913);enable-background:new"
       d="m 188.96876,45.999995 c 72.64865,0 83.03125,10.356615 83.03125,82.937505 v 58.125 c 0,72.58059 -10.3826,82.9375 -83.03125,82.9375 h -73.9375 C 42.382606,270 32.000006,259.64309 32.000006,187.0625 v -58.125 c 0,-72.58089 10.3826,-82.937505 83.031254,-82.937505 z"
       id="path899"
       inkscape:connector-curvature="0"
       sodipodi:nodetypes="sssssssss"
       transform="matrix(0.26970778,0,0,0.26970778,-7.1289177,220.56049)" />
    <path
       sodipodi:nodetypes="sssssssss"
       inkscape:connector-curvature="0"
       id="path4567-1"
       d="m 188.96876,43.999995 c 72.64865,0 83.03125,10.356615 83.03125,82.937505 v 58.125 c 0,72.58059 -10.3826,82.9375 -83.03125,82.9375 h -73.9375 C 42.382606,268 32.000006,257.64309 32.000006,185.0625 v -58.125 c 0,-72.58089 10.3826,-82.937505 83.031254,-82.937505 z"
       style="display:inline;opacity:0.1;fill:#000000;fill-opacity:1;stroke:none;stroke-width:2;stroke-linecap:round;stroke-linejoin:round;stroke-miterlimit:4;stroke-dasharray:none;stroke-dashoffset:0;stroke-opacity:1;filter:url(#filter4569-2);enable-background:new"
       transform="matrix(0.26970778,0,0,0.26970778,-7.1289177,220.56049)" />
    <path
       style="display:inline;opacity:1;fill:#4d4d4d;fill-opacity:1;stroke:none;stroke-width:0.5394156;stroke-linecap:round;stroke-linejoin:round;stroke-miterlimit:4;stroke-dasharray:none;stroke-dashoffset:0;stroke-opacity:1;enable-background:new"
       d="m 23.895905,232.42763 c -9.797337,0 -15.3941297,0.69699 -18.5445167,3.84334 -3.150381,3.14634 -3.849657,8.73736 -3.849657,18.52555 v 15.67677 c 0,9.78815 0.699276,15.3792 3.849657,18.52555 3.150387,3.14636 8.7471787,3.84333 18.5445167,3.84333 h 19.94152 c 9.797339,0 15.394134,-0.69697 18.544517,-3.84333 3.150384,-3.14635 3.849659,-8.7374 3.849659,-18.52555 v -15.67677 c 0,-9.78819 -0.699275,-15.37921 -3.849659,-18.52555 -3.150383,-3.14635 -8.74718,-3.84334 -18.544517,-3.84334 z"
       id="rect877-2"
       inkscape:connector-curvature="0" />
    <path
       style="display:inline;opacity:0.2;fill:#131313;fill-opacity:1;stroke:none;stroke-width:0.5394156;stroke-linecap:round;stroke-linejoin:round;stroke-miterlimit:4;stroke-dasharray:none;stroke-dashoffset:0;stroke-opacity:1;enable-background:new"
       d="m 1.5017313,269.93387 v 0.53942 c 0,9.78815 0.699276,15.3792 3.849657,18.52555 3.150387,3.14636 8.7471787,3.84333 18.5445167,3.84333 h 19.94152 c 9.797339,0 15.394134,-0.69697 18.544517,-3.84333 3.150384,-3.14635 3.849659,-8.7374 3.849659,-18.52555 v -0.53942 c 0,9.78815 -0.699275,15.3792 -3.849659,18.52555 -3.150383,3.14636 -8.747178,3.84334 -18.544517,3.84334 h -19.94152 c -9.797338,0 -15.3941297,-0.69698 -18.5445167,-3.84334 -3.150381,-3.14635 -3.849657,-8.7374 -3.849657,-18.52555 z"
       id="path917"
       inkscape:connector-curvature="0" />
    <path
       sodipodi:nodetypes="sssssssss"
       inkscape:connector-curvature="0"
       id="path1068-7"
       d="M 361.9375,-212 C 507.2348,-212 528,-191.28677 528,-46.125 V 70.125 C 528,215.28618 507.2348,236 361.9375,236 H 214.0625 C 68.7652,236 48,215.28618 48,70.125 V -46.125 C 48,-191.28677 68.7652,-212 214.0625,-212 Z"
       style="display:inline;opacity:0.4;fill:none;fill-opacity:1;stroke:url(#linearGradient906);stroke-width:8;stroke-linecap:round;stroke-linejoin:round;stroke-miterlimit:4;stroke-dasharray:none;stroke-dashoffset:0;stroke-opacity:1;enable-background:new"
       clip-path="url(#clipPath1082-3-5)"
       transform="matrix(0.13485389,0,0,0.13485389,-4.9712557,261.01666)" />
    <g
       id="g1562"
       style="fill:#0c1011;stroke:none;stroke-width:4.54500008;fill-opacity:1;filter:url(#filter1588);opacity:0.3"
       transform="matrix(1.4257983,0,0,1.4257983,13.018524,234.02814)">
      <g
         style="stroke:none;fill:#0c1011;fill-opacity:1"
         id="g1542" />
      <g
         transform="matrix(1.0232511,0,0,1.0232511,-4.8203953,0.62181114)"
         id="g1560"
         style="fill:#0c1011;fill-opacity:1">
        <path
           transform="scale(0.14844)"
           inkscape:connector-curvature="0"
           d="m 69.16,106.24 c 1.632,7.553 2.553,13.237 1.211,20.789 -10.289,8.368 -36.605,12.13 -36.553,20.789 l -3.553,25.974 c 0,8.605 24.553,15.579 54.816,15.579 30.26,0 54.789,-6.974 54.789,-15.579 l -3.526,-25.974 c -0.053,-7.421 -26.526,-12.13 -36.684,-20.789 -0.868,-7 -0.184,-13.789 1.316,-20.789 z"
           id="path1544"
           style="fill:#0c1011;fill-opacity:1;stroke:none;stroke-width:4.54500008" />
        <path
           transform="scale(0.14844)"
           inkscape:connector-curvature="0"
           d="m 84.82,57.55 c -12.553,0 -22.737,9.789 -22.737,21.842 0.105,4.474 0.474,9.789 3.053,21.868 1.5,4.684 15.03,18.11 15.13,19.658 2.947,1.553 7.579,1.553 10.605,0 0,-1.553 12.13,-14.974 13.658,-19.658 2.868,-12.553 2.868,-17.16 3.03,-21.868 0,-12.05 -10.184,-21.842 -22.737,-21.842 z"
           id="path1546"
           style="fill:#0c1011;fill-opacity:1;stroke:none;stroke-width:4.54500008" />
        <g
           style="stroke:none;stroke-linejoin:round;fill:#0c1011;fill-opacity:1"
           id="g1552">
          <path
             inkscape:connector-curvature="0"
             d="M 132.74,71.18 C 125.082,66.627 112.63,34.94 114.56,48.443 l 4.553,31.816 z"
             transform="scale(0.14844)"
             id="path1548"
             style="stroke:none;fill:#0c1011;fill-opacity:1" />
          <path
             inkscape:connector-curvature="0"
             d="m 178,71.18 c 7.684,-4.553 20.11,-36.24 18.18,-22.737 l -4.553,31.816 z"
             transform="scale(0.14844)"
             id="path1550"
             style="stroke:none;fill:#0c1011;fill-opacity:1" />
        </g>
        <g
           id="g1558"
           style="stroke:none;fill:#0c1011;fill-opacity:1">
          <path
             inkscape:connector-curvature="0"
             d="m 134.82,107.55 c 2.105,9.895 3.263,17.368 1.553,27.26 -13.211,10.974 -47.05,15.921 -47,27.26 l -4.553,34.11 c 0,11.289 31.553,20.447 70.45,20.447 38.921,0 70.47,-9.158 70.47,-20.447 l -4.553,-34.11 c -0.053,-9.711 -34.11,-15.895 -47.16,-27.26 -1.132,-9.184 -0.237,-18.08 1.711,-27.26 z"
             transform="scale(0.14844)"
             id="path1554"
             style="stroke:none;fill:#0c1011;fill-opacity:1" />
          <path
             inkscape:connector-curvature="0"
             d="m 155.26,39.37 c -18.816,0 -34.08,14.237 -34.08,31.816 0.158,6.5 0.711,14.237 4.553,31.816 2.263,6.816 22.526,25 22.711,27.26 4.421,2.289 11.368,2.289 15.921,0 0,-2.263 18.18,-20.447 20.447,-27.26 4.316,-18.289 4.316,-25 4.553,-31.816 0,-17.579 -15.263,-31.816 -34.11,-31.816 z"
             transform="scale(0.14844)"
             id="path1556"
             style="stroke:none;fill:#0c1011;fill-opacity:1" />
        </g>
      </g>
    </g>
    <path
       style="display:inline;opacity:0.05;fill:#ffffff;fill-opacity:1;stroke:none;stroke-width:2.23818946;stroke-linecap:round;stroke-linejoin:round;stroke-miterlimit:4;stroke-dasharray:none;stroke-dashoffset:0;stroke-opacity:1;enable-background:new"
       d="M 130.9707 240.28516 L 165.68555 240.28516 C 174.94288 240.28516 183.20757 240.12027 190.58398 239.6875 C 194.27219 239.47112 197.73732 239.1876 200.99414 238.82422 C 204.25096 238.46084 207.29905 238.01868 210.15039 237.48242 C 213.00173 236.94617 215.65716 236.31703 218.12891 235.58203 C 220.60065 234.84703 222.8878 234.00649 225.00586 233.04688 C 227.12392 232.08726 229.07302 231.00698 230.86328 229.79688 C 232.65355 228.58677 234.28507 227.24623 235.77344 225.75977 C 237.26181 224.2733 238.60656 222.64166 239.81836 220.85352 C 241.03016 219.06537 242.10922 217.1196 243.07031 215.00391 C 244.03141 212.88821 244.87507 210.60389 245.61133 208.13477 C 246.34758 205.66564 246.9764 203.01248 247.51367 200.16406 C 248.05095 197.31565 248.49521 194.27116 248.85938 191.01758 C 249.22354 187.76399 249.5077 184.30181 249.72461 180.61719 C 250.15843 173.24794 250.32422 164.99083 250.32422 155.74219 L 250.32422 96.490234 C 250.32422 87.241551 250.15843 78.984496 249.72461 71.615234 C 249.5077 67.930603 249.22354 64.468429 248.85938 61.214844 C 248.49521 57.961258 248.05095 54.916773 247.51367 52.068359 C 246.9764 49.219946 246.34758 46.566771 245.61133 44.097656 C 244.87507 41.628541 244.03141 39.344206 243.07031 37.228516 C 242.10922 35.112826 241.03016 33.167045 239.81836 31.378906 C 238.60656 29.590768 237.26181 27.959116 235.77344 26.472656 C 234.28507 24.986192 232.65355 23.645653 230.86328 22.435547 C 229.07302 21.225441 227.12392 20.145166 225.00586 19.185547 C 222.8878 18.225928 220.60065 17.385394 218.12891 16.650391 C 215.65716 15.915387 213.00173 15.286259 210.15039 14.75 C 207.29905 14.213741 204.25096 13.77159 200.99414 13.408203 C 197.73732 13.044816 194.27219 12.761308 190.58398 12.544922 C 183.20758 12.112149 174.94287 11.947266 165.68555 11.947266 L 130.9707 11.947266 L 130.9707 240.28516 z "
       id="path843"
       transform="matrix(0.26458333,0,0,0.26458333,0,229.26666)" />
    <g
       transform="matrix(1.4257983,0,0,1.4257983,13.018524,234.02814)"
       style="fill:#559ca5;stroke:none;stroke-width:4.54500008"
       id="g924">
      <g
         id="g910"
         style="stroke:none" />
      <g
         id="g1532"
         transform="matrix(1.0232511,0,0,1.0232511,-4.8203953,0.62181114)">
        <path
           style="fill:#64bec9;fill-opacity:1;stroke:none;stroke-width:4.54500008"
           id="path906"
           d="m 69.16,106.24 c 1.632,7.553 2.553,13.237 1.211,20.789 -10.289,8.368 -36.605,12.13 -36.553,20.789 l -3.553,25.974 c 0,8.605 24.553,15.579 54.816,15.579 30.26,0 54.789,-6.974 54.789,-15.579 l -3.526,-25.974 c -0.053,-7.421 -26.526,-12.13 -36.684,-20.789 -0.868,-7 -0.184,-13.789 1.316,-20.789 z"
           inkscape:connector-curvature="0"
           transform="scale(0.14844)" />
        <path
           style="fill:#64bec9;fill-opacity:1;stroke:none;stroke-width:4.54500008"
           id="path908"
           d="m 84.82,57.55 c -12.553,0 -22.737,9.789 -22.737,21.842 0.105,4.474 0.474,9.789 3.053,21.868 1.5,4.684 15.03,18.11 15.13,19.658 2.947,1.553 7.579,1.553 10.605,0 0,-1.553 12.13,-14.974 13.658,-19.658 2.868,-12.553 2.868,-17.16 3.03,-21.868 0,-12.05 -10.184,-21.842 -22.737,-21.842 z"
           inkscape:connector-curvature="0"
           transform="scale(0.14844)" />
        <g
           id="g916"
           style="stroke:none;stroke-linejoin:round">
          <path
             style="stroke:none"
             id="path912"
             transform="scale(0.14844)"
             d="M 132.74,71.18 C 125.082,66.627 112.63,34.94 114.56,48.443 l 4.553,31.816 z"
             inkscape:connector-curvature="0" />
          <path
             style="stroke:none"
             id="path914"
             transform="scale(0.14844)"
             d="m 178,71.18 c 7.684,-4.553 20.11,-36.24 18.18,-22.737 l -4.553,31.816 z"
             inkscape:connector-curvature="0" />
        </g>
        <g
           style="stroke:none"
           id="g922">
          <path
             style="stroke:none"
             id="path918"
             transform="scale(0.14844)"
             d="m 134.82,107.55 c 2.105,9.895 3.263,17.368 1.553,27.26 -13.211,10.974 -47.05,15.921 -47,27.26 l -4.553,34.11 c 0,11.289 31.553,20.447 70.45,20.447 38.921,0 70.47,-9.158 70.47,-20.447 l -4.553,-34.11 c -0.053,-9.711 -34.11,-15.895 -47.16,-27.26 -1.132,-9.184 -0.237,-18.08 1.711,-27.26 z"
             inkscape:connector-curvature="0" />
          <path
             style="stroke:none"
             id="path920"
             transform="scale(0.14844)"
             d="m 155.26,39.37 c -18.816,0 -34.08,14.237 -34.08,31.816 0.158,6.5 0.711,14.237 4.553,31.816 2.263,6.816 22.526,25 22.711,27.26 4.421,2.289 11.368,2.289 15.921,0 0,-2.263 18.18,-20.447 20.447,-27.26 4.316,-18.289 4.316,-25 4.553,-31.816 0,-17.579 -15.263,-31.816 -34.11,-31.816 z"
             inkscape:connector-curvature="0" />
        </g>
      </g>
    </g>
  </g>
</svg>
