<?xml version="1.0" encoding="UTF-8" standalone="no"?>
<!-- Generator: Adobe Illustrator 18.0.0, SVG Export Plug-In . SVG Version: 6.00 Build 0)  -->

<svg
   xmlns:dc="http://purl.org/dc/elements/1.1/"
   xmlns:cc="http://creativecommons.org/ns#"
   xmlns:rdf="http://www.w3.org/1999/02/22-rdf-syntax-ns#"
   xmlns:svg="http://www.w3.org/2000/svg"
   xmlns="http://www.w3.org/2000/svg"
   xmlns:xlink="http://www.w3.org/1999/xlink"
   xmlns:sodipodi="http://sodipodi.sourceforge.net/DTD/sodipodi-0.dtd"
   xmlns:inkscape="http://www.inkscape.org/namespaces/inkscape"
   version="1.1"
   id="图层_1"
   x="0px"
   y="0px"
   viewBox="0 0 256 256"
   enable-background="new 0 0 48 48"
   xml:space="preserve"
   sodipodi:docname="stellarium.svg"
   width="256"
   height="256"
   inkscape:version="0.92.3 (2405546, 2018-03-11)"><metadata
     id="metadata1016"><rdf:RDF><cc:Work
         rdf:about=""><dc:format>image/svg+xml</dc:format><dc:type
           rdf:resource="http://purl.org/dc/dcmitype/StillImage" /><dc:title></dc:title></cc:Work></rdf:RDF></metadata><defs
     id="defs1014"><filter
       inkscape:collect="always"
       style="color-interpolation-filters:sRGB"
       id="filter4569"
       x="-0.0116"
       width="1.0232"
       y="-0.012428571"
       height="1.024857"><feGaussianBlur
         inkscape:collect="always"
         stdDeviation="1.16"
         id="feGaussianBlur4571" /></filter><filter
       inkscape:collect="always"
       style="color-interpolation-filters:sRGB"
       id="filter956"
       x="-0.0232"
       width="1.0464"
       y="-0.024857143"
       height="1.0497143"><feGaussianBlur
         inkscape:collect="always"
         stdDeviation="2.32"
         id="feGaussianBlur958" /></filter><clipPath
       clipPathUnits="userSpaceOnUse"
       id="clipPath1064"><path
         style="opacity:1;fill:#a3dbf0;fill-opacity:1;stroke:none;stroke-width:2;stroke-linecap:round;stroke-linejoin:round;stroke-miterlimit:4;stroke-dasharray:none;stroke-dashoffset:0;stroke-opacity:1"
         d="M 115.03125,44 C 42.3826,44 32,54.356615 32,126.9375 v 58.125 c 0,10.16582 0.217657,19.07051 0.767578,26.9375 3.376331,48.30069 19.790377,56 82.263672,56 h 73.9375 c 62.4733,0 78.88734,-7.69931 82.26367,-56 C 271.78234,204.13301 272,195.22832 272,185.0625 v -58.125 C 272,54.356615 261.6174,44 188.96875,44 Z"
         id="path1066"
         inkscape:connector-curvature="0" /></clipPath><clipPath
       clipPathUnits="userSpaceOnUse"
       id="clipPath1718"><path
         style="opacity:1;fill:#a3dbf0;fill-opacity:1;stroke:none;stroke-width:2;stroke-linecap:round;stroke-linejoin:round;stroke-miterlimit:4;stroke-dasharray:none;stroke-dashoffset:0;stroke-opacity:1"
         d="M 115.03125,44 C 42.3826,44 32,54.356615 32,126.9375 v 58.125 c 0,10.16582 0.217657,19.07051 0.767578,26.9375 3.376331,48.30069 19.790377,56 82.263672,56 h 73.9375 c 62.4733,0 78.88734,-7.69931 82.26367,-56 C 271.78234,204.13301 272,195.22832 272,185.0625 v -58.125 C 272,54.356615 261.6174,44 188.96875,44 Z"
         id="path1716"
         inkscape:connector-curvature="0" /></clipPath><linearGradient
       inkscape:collect="always"
       xlink:href="#linearGradient1013"
       id="linearGradient1108"
       x1="296"
       y1="-212"
       x2="296"
       y2="236"
       gradientUnits="userSpaceOnUse" /><linearGradient
       id="linearGradient1013"
       inkscape:collect="always"><stop
         id="stop1005"
         offset="0"
         style="stop-color:#ffffff;stop-opacity:1;" /><stop
         style="stop-color:#ffffff;stop-opacity:0.09803922"
         offset="0.125"
         id="stop1007" /><stop
         style="stop-color:#000000;stop-opacity:0.09803922"
         offset="0.92500001"
         id="stop1009" /><stop
         id="stop1011"
         offset="1"
         style="stop-color:#000000;stop-opacity:0.49803922" /></linearGradient><clipPath
       clipPathUnits="userSpaceOnUse"
       id="clipPath1082-3-61"><path
         sodipodi:nodetypes="sssssssss"
         inkscape:connector-curvature="0"
         id="path1084-6-06"
         d="M 361.9375,-212 C 507.2348,-212 528,-191.28677 528,-46.125 V 70.125 C 528,215.28618 507.2348,236 361.9375,236 H 214.0625 C 68.7652,236 48,215.28618 48,70.125 V -46.125 C 48,-191.28677 68.7652,-212 214.0625,-212 Z"
         style="display:inline;opacity:1;fill:#8c59d9;fill-opacity:1;stroke:none;stroke-width:2;stroke-linecap:round;stroke-linejoin:round;stroke-miterlimit:4;stroke-dasharray:none;stroke-dashoffset:0;stroke-opacity:1;enable-background:new" /></clipPath><filter
       inkscape:collect="always"
       style="color-interpolation-filters:sRGB"
       id="filter1077"
       x="-0.24"
       width="1.48"
       y="-0.24"
       height="1.48"><feGaussianBlur
         inkscape:collect="always"
         stdDeviation="0.94481926"
         id="feGaussianBlur1079" /></filter></defs><sodipodi:namedview
     pagecolor="#ffffff"
     bordercolor="#666666"
     borderopacity="1"
     objecttolerance="10"
     gridtolerance="10"
     guidetolerance="10"
     inkscape:pageopacity="0"
     inkscape:pageshadow="2"
     inkscape:window-width="1920"
     inkscape:window-height="1009"
     id="namedview1012"
     showgrid="false"
     showguides="true"
     inkscape:guide-bbox="true"
     inkscape:zoom="3.2382812"
     inkscape:cx="128"
     inkscape:cy="128"
     inkscape:window-x="0"
     inkscape:window-y="34"
     inkscape:window-maximized="1"
     inkscape:current-layer="g1009"><sodipodi:guide
       position="-119.84506,195.79507"
       orientation="1,0"
       id="guide1889"
       inkscape:locked="false" /><inkscape:grid
       type="xygrid"
       id="grid1635" /></sodipodi:namedview><g
     id="g1009"
     transform="translate(0,208)"><path
       sodipodi:nodetypes="sssssssss"
       inkscape:connector-curvature="0"
       id="path4567"
       d="m 188.96876,43.999995 c 72.64865,0 83.03125,10.356615 83.03125,82.937505 v 58.125 c 0,72.58059 -10.3826,82.9375 -83.03125,82.9375 h -73.9375 C 42.382606,268 32.000006,257.64309 32.000006,185.0625 v -58.125 c 0,-72.58089 10.3826,-82.937505 83.031254,-82.937505 z"
       style="display:inline;opacity:0.1;fill:#000000;fill-opacity:1;stroke:none;stroke-width:2;stroke-linecap:round;stroke-linejoin:round;stroke-miterlimit:4;stroke-dasharray:none;stroke-dashoffset:0;stroke-opacity:1;filter:url(#filter4569);enable-background:new"
       transform="matrix(1.019368,0,0,1.019368,-26.943941,-240.90521)" /><path
       style="display:inline;opacity:0.2;fill:#000000;fill-opacity:1;stroke:none;stroke-width:2;stroke-linecap:round;stroke-linejoin:round;stroke-miterlimit:4;stroke-dasharray:none;stroke-dashoffset:0;stroke-opacity:1;filter:url(#filter956);enable-background:new"
       d="m 188.96876,45.999995 c 72.64865,0 83.03125,10.356615 83.03125,82.937505 v 58.125 c 0,72.58059 -10.3826,82.9375 -83.03125,82.9375 h -73.9375 C 42.382606,270 32.000006,259.64309 32.000006,187.0625 v -58.125 c 0,-72.58089 10.3826,-82.937505 83.031254,-82.937505 z"
       id="path954"
       inkscape:connector-curvature="0"
       sodipodi:nodetypes="sssssssss"
       transform="matrix(1.019368,0,0,1.019368,-26.943941,-240.90521)" /><g
       style="display:inline;enable-background:new"
       id="g1057"
       clip-path="url(#clipPath1064)"
       transform="matrix(1.019368,0,0,1.019368,-26.954104,-241.03481)"><path
         sodipodi:nodetypes="sssssssss"
         inkscape:connector-curvature="0"
         id="path1111"
         d="m 188.97873,44.127132 c 72.64865,0 83.03125,10.356616 83.03125,82.937508 v 58.12502 c 0,72.58058 -10.3826,82.93747 -83.03125,82.93747 h -73.9375 c -72.648658,0 -83.031258,-10.35688 -83.031258,-82.93747 v -58.12502 c 0,-72.580892 10.3826,-82.937508 83.031258,-82.937508 z"
         style="display:inline;opacity:1;fill:#3c1d66;fill-opacity:1;stroke:none;stroke-width:2.00000024;stroke-linecap:round;stroke-linejoin:round;stroke-miterlimit:4;stroke-dasharray:none;stroke-dashoffset:0;stroke-opacity:1;enable-background:new" /><path
         style="color:#000000;display:inline;overflow:visible;visibility:visible;opacity:0.2;fill:#f0f0f0;fill-opacity:1;fill-rule:nonzero;stroke:none;stroke-width:2.72813439;marker:none;enable-background:accumulate"
         d="m 127.55078,-4.3632812 -8.63281,16.4394532 h 46.77734 c 6.94346,0 12.80469,0.220024 18.67578,0.449219 l 8.86914,-16.8886722 z"
         id="rect4248"
         transform="matrix(0.98100001,0,0,0.98100001,26.432006,32.280011)"
         inkscape:connector-curvature="0" /></g><g
       transform="matrix(1.019368,0,0,1.019368,-26.954104,-241.03481)"
       clip-path="url(#clipPath1064)"
       id="g1836"
       style="display:inline;enable-background:new"><path
         inkscape:connector-curvature="0"
         transform="matrix(0.98100001,0,0,0.98100001,26.432006,32.280011)"
         id="path1834"
         d="m 127.55078,-4.3632812 -8.63281,16.4394532 h 46.77734 c 6.94346,0 12.80469,0.220024 18.67578,0.449219 l 8.86914,-16.8886722 z"
         style="color:#000000;display:inline;overflow:visible;visibility:visible;opacity:0.2;fill:#f0f0f0;fill-opacity:1;fill-rule:nonzero;stroke:none;stroke-width:2.72813439;marker:none;enable-background:accumulate" /></g><g
       transform="matrix(1.019368,0,0,1.019368,-26.954104,-241.03481)"
       clip-path="url(#clipPath1064)"
       id="g885"
       style="display:inline;enable-background:new"><path
         inkscape:connector-curvature="0"
         transform="matrix(0.98100001,0,0,0.98100001,26.432006,32.280011)"
         id="path883"
         d="m 127.55078,-4.3632812 -8.63281,16.4394532 h 46.77734 c 6.94346,0 12.80469,0.220024 18.67578,0.449219 l 8.86914,-16.8886722 z"
         style="color:#000000;display:inline;overflow:visible;visibility:visible;opacity:0.2;fill:#f0f0f0;fill-opacity:1;fill-rule:nonzero;stroke:none;stroke-width:2.72813439;marker:none;enable-background:accumulate" /></g><path
       sodipodi:nodetypes="sssssssss"
       inkscape:connector-curvature="0"
       id="path1068"
       d="M 361.9375,-212 C 507.2348,-212 528,-191.28677 528,-46.125 V 70.125 C 528,215.28618 507.2348,236 361.9375,236 H 214.0625 C 68.7652,236 48,215.28618 48,70.125 V -46.125 C 48,-191.28677 68.7652,-212 214.0625,-212 Z"
       style="display:inline;opacity:0.4;fill:none;fill-opacity:1;stroke:url(#linearGradient1108);stroke-width:8;stroke-linecap:round;stroke-linejoin:round;stroke-miterlimit:4;stroke-dasharray:none;stroke-dashoffset:0;stroke-opacity:1;enable-background:new"
       clip-path="url(#clipPath1082-3-61)"
       transform="matrix(0.50968399,0,0,0.50968399,-18.788997,-88.000002)" /><g
       transform="matrix(1.019368,0,0,1.019368,-26.954104,-241.03481)"
       clip-path="url(#clipPath1064)"
       id="g898"
       style="display:inline;enable-background:new"><path
         inkscape:connector-curvature="0"
         transform="matrix(0.98100001,0,0,0.98100001,26.432006,32.280011)"
         id="path896"
         d="m 127.55078,-4.3632812 -8.63281,16.4394532 h 46.77734 c 6.94346,0 12.80469,0.220024 18.67578,0.449219 l 8.86914,-16.8886722 z"
         style="color:#000000;display:inline;overflow:visible;visibility:visible;opacity:0.2;fill:#f0f0f0;fill-opacity:1;fill-rule:nonzero;stroke:none;stroke-width:2.72813439;marker:none;enable-background:accumulate" /></g><g
       transform="matrix(1.019368,0,0,1.019368,-26.954104,-241.03481)"
       clip-path="url(#clipPath1064)"
       id="g901"
       style="display:inline;enable-background:new"><path
         inkscape:connector-curvature="0"
         transform="matrix(0.98100001,0,0,0.98100001,26.432006,32.280011)"
         id="path899"
         d="m 127.55078,-4.3632812 -8.63281,16.4394532 h 46.77734 c 6.94346,0 12.80469,0.220024 18.67578,0.449219 l 8.86914,-16.8886722 z"
         style="color:#000000;display:inline;overflow:visible;visibility:visible;opacity:0.2;fill:#f0f0f0;fill-opacity:1;fill-rule:nonzero;stroke:none;stroke-width:2.72813439;marker:none;enable-background:accumulate" /></g><g
       transform="matrix(1.019368,0,0,1.019368,-26.954104,-241.03481)"
       clip-path="url(#clipPath1064)"
       id="g937"
       style="display:inline;enable-background:new"><path
         inkscape:connector-curvature="0"
         transform="matrix(0.98100001,0,0,0.98100001,26.432006,32.280011)"
         id="path935"
         d="m 127.55078,-4.3632812 -8.63281,16.4394532 h 46.77734 c 6.94346,0 12.80469,0.220024 18.67578,0.449219 l 8.86914,-16.8886722 z"
         style="color:#000000;display:inline;overflow:visible;visibility:visible;opacity:0.2;fill:#f0f0f0;fill-opacity:1;fill-rule:nonzero;stroke:none;stroke-width:2.72813439;marker:none;enable-background:accumulate" /></g><path
       style="fill:#ffffff;fill-opacity:1;stroke-width:0.32482243"
       d="m 121.52538,-2.0809923 c -12.51531,-1.35327 -23.793979,-5.9724801 -33.256506,-13.6202797 -2.395673,-1.93623 -2.548044,-2.71878 -0.849849,-4.36474 0.625283,-0.60605 1.136878,-1.19821 1.136878,-1.31593 0,-0.11771 -0.963764,-1.22185 -2.141697,-2.45365 -4.143474,-4.33294 -7.771175,-9.64164 -10.33877,-15.129523 -2.689309,-5.748028 -4.972115,-13.976505 -4.151714,-14.96503 0.215422,-0.259566 1.45127,-0.642769 2.746331,-0.851561 5.895732,-0.950525 9.945225,-1.795635 9.792009,-2.043543 -0.09195,-0.148785 -2.979648,-0.270518 -6.417094,-0.270518 -4.427937,0 -6.363532,-0.11363 -6.639689,-0.389787 -0.269041,-0.269041 -0.389787,-1.922124 -0.389787,-5.336368 0,-4.063795 0.09109,-5.037678 0.510436,-5.457017 0.431604,-0.431605 1.563279,-0.510436 7.327675,-0.510436 6.443688,0 8.382316,-0.302338 4.920037,-0.767308 -4.463174,-0.599382 -11.354395,-1.97853 -11.760319,-2.353602 -0.401413,-0.370905 -0.387303,-0.79103 0.10481,-3.120163 0.907872,-4.296926 2.323598,-8.104501 5.469432,-14.709973 1.616569,-3.394394 3.485318,-7.340987 4.152776,-8.770204 1.674762,-3.586145 8.710627,-18.492875 12.341758,-26.148215 1.652424,-3.48372 3.482034,-7.35722 4.065804,-8.60779 5.497359,-11.77662 12.940319,-27.41919 13.327879,-28.01069 0.46882,-0.71551 0.63166,-0.7361 5.82297,-0.7361 4.9477,0 5.36539,0.0462 5.6769,0.62829 0.21511,0.40195 0.33625,5.14129 0.33625,13.15531 v 12.52702 h 3.89787 3.89787 v -12.52702 c 0,-8.01402 0.12114,-12.75336 0.33625,-13.15531 0.31138,-0.58182 0.72883,-0.62829 5.64462,-0.62829 3.85139,0 5.40037,0.11145 5.64355,0.40603 0.34422,0.41697 6.57416,13.54171 25.46816,53.65423 1.67712,3.56057 3.18956,6.51657 3.36097,6.56889 0.17142,0.0523 0.75017,-1.25301 1.28613,-2.90073 l 0.97447,-2.99584 4.22269,-0.17476 c 2.32248,-0.0961 4.40379,-0.11765 4.62513,-0.0478 0.22134,0.0698 0.8045,1.31782 1.29592,2.77334 0.87348,2.58719 0.8955,2.83905 0.9843,11.254211 0.05,4.734287 0.021,8.901457 -0.0644,9.260379 -0.11225,0.472003 -0.79543,0.870554 -2.46885,1.440266 -2.00677,0.683203 -2.29242,0.876693 -2.15358,1.458762 0.088,0.369092 0.63096,2.488438 1.20648,4.709654 l 1.04642,4.038576 -0.7288,0.590144 c -0.40084,0.324579 -1.04768,0.590144 -1.43741,0.590144 -0.38975,0 -2.58362,0.360147 -4.87527,0.80033 -2.29166,0.44018 -5.02616,0.897572 -6.07667,1.016424 -3.97764,0.450016 -1.64516,0.781825 5.49593,0.781825 5.32709,0 7.51537,0.109413 7.79574,0.389787 0.49992,0.499915 0.55328,10.839614 0.0575,11.146006 -0.18274,0.11294 -3.38689,0.189852 -7.12033,0.170915 -4.35579,-0.02209 -6.86237,0.08578 -6.99542,0.301058 -0.11404,0.184519 -0.0891,0.336656 0.0554,0.338088 0.14454,0.0013 3.09934,0.504479 6.56624,1.117886 3.96627,0.701766 6.48843,1.300278 6.80237,1.614212 0.44869,0.44869 0.39812,0.905485 -0.50221,4.536438 -2.42837,9.793383 -7.38832,18.655053 -14.42459,25.771623 l -2.64918,2.67941 1.20189,1.46674 c 0.75762,0.92458 1.16355,1.7306 1.0982,2.18058 -0.2332,1.60556 -9.86274,7.8422396 -16.02833,10.3809097 -7.6723,3.15906 -14.01596,4.47385 -22.4044,4.64352 -3.03709,0.0614 -6.10666,0.0485 -6.82127,-0.0288 z m 12.18084,-2.77411 c 6.09822,-0.67034 12.91938,-2.6734401 18.71041,-5.4944997 2.77132,-1.35003 8.44625,-4.87187 10.65018,-6.60946 0.58093,-0.458 0.2728,-0.88922 -5.75085,-8.04827 -17.29951,-20.560292 -19.7887,-23.488196 -20.05025,-23.584064 -0.15519,-0.05688 -0.90994,0.259166 -1.67721,0.702331 -3.44548,1.990063 -8.96306,2.734085 -12.7655,1.721373 -2.02653,-0.539725 -4.66663,-1.694686 -5.40844,-2.366022 -0.30884,-0.279487 -0.69022,-0.456616 -0.84752,-0.39362 -0.27302,0.109341 -3.92497,4.21242 -16.15512,18.150772 -3.037089,3.46129 -6.760647,7.67059 -8.274573,9.354 l -2.752591,3.06074 1.29089,1.10082 c 3.90558,3.33052 11.504424,7.5447196 17.156404,9.5146896 3.59444,1.2528101 9.33685,2.5873901 12.54549,2.9156501 3.41269,0.34915 10.04072,0.33699 13.32868,-0.0244 z m -9.6477,-11.9495397 c -1.36764,-0.8339 -2.15888,-2.41176 -2.16549,-4.31832 -0.0158,-4.55885 6.24481,-6.55545 8.89317,-2.83617 1.61065,2.26195 1.024,5.52151 -1.2695,7.05367 -1.43297,0.95728 -3.97648,1.00427 -5.45818,0.10082 z m 4.7884,-3.12331 c 0.93112,-1.73983 -0.94916,-3.86788 -2.83237,-3.20559 -0.50303,0.17691 -1.11915,0.7484 -1.36914,1.26999 -1.24381,2.59512 2.84133,4.47712 4.20151,1.9356 z m -17.71586,1.02752 c -4.21687,-1.8742 -3.70865,-8.06884 0.76073,-9.27232 3.17674,-0.8554 6.22295,1.53959 6.22295,4.8926 0,3.32366 -3.88207,5.75824 -6.98368,4.37972 z m 3.58781,-2.93734 c 1.04435,-1.04435 1.02102,-2.27461 -0.0622,-3.2785 -1.04532,-0.96876 -1.71544,-1.00174 -2.81297,-0.13842 -1.06441,0.83726 -1.34214,1.71643 -0.84,2.65904 0.91025,1.70868 2.45022,2.02282 3.71516,0.75788 z m 23.85969,3.03184 c -2.33675,-0.92905 -3.60417,-3.53854 -2.91471,-6.00105 0.44948,-1.6054 1.28265,-2.48833 3.04157,-3.22326 4.56142,-1.90588 8.68238,3.8665 5.47856,7.67402 -1.43129,1.701 -3.66944,2.32 -5.60542,1.55029 z m 3.4254,-3.03184 c 1.0914,-1.0914 1.02186,-2.20422 -0.2021,-3.23411 -0.54966,-0.46251 -1.21868,-0.84093 -1.48669,-0.84093 -0.72817,0 -2.38626,1.79851 -2.38626,2.58836 0,0.95312 1.41953,2.28397 2.43617,2.28397 0.46287,0 1.20036,-0.35878 1.63888,-0.79729 z m -16.82741,-5.83913 c -1.66355,-0.5929 -2.18984,-1.08442 -2.91676,-2.72406 -0.77757,-1.75387 -0.53778,-3.56203 0.66137,-4.987143 2.39485,-2.846111 6.79819,-2.346608 8.25019,0.935878 1.8229,4.120965 -1.83686,8.257235 -5.9948,6.775325 z m 2.69429,-2.62692 c 0.5265,-0.27226 1.04695,-0.86495 1.16197,-1.32325 0.67478,-2.688538 -3.00402,-4.183929 -4.27004,-1.73572 -0.6104,1.18039 -0.40366,2.00738 0.72348,2.89399 1.00248,0.78855 1.15793,0.79931 2.38459,0.16498 z m -14.30361,0.59003 c -1.85205,-0.67146 -3.49611,-3.64665 -3.05333,-5.525496 0.61268,-2.599781 2.39285,-3.991246 5.10621,-3.991246 4.74077,0 6.48225,6.292032 2.4948,9.013822 -1.04024,0.71005 -3.29008,0.95886 -4.54768,0.50292 z m 3.47091,-3.07691 c 1.23861,-1.16362 0.95913,-2.899728 -0.59629,-3.704067 -0.79266,-0.4099 -1.08615,-0.420551 -1.82541,-0.06623 -0.48448,0.232209 -1.07087,0.818595 -1.30308,1.303084 -0.35485,0.740367 -0.34346,1.033153 0.0714,1.835423 0.78377,1.51565 2.41269,1.79734 3.65336,0.63179 z m 17.9342,2.56752 c -4.12487,-2.7556 -2.2134,-9.002333 2.75582,-9.006137 3.0357,-0.0023 4.74827,1.798321 4.74827,4.992477 0,1.44391 -0.15976,1.96759 -0.85075,2.78879 -1.75382,2.0843 -4.58629,2.60575 -6.65334,1.22487 z m 3.91823,-2.17922 c 0.32677,-0.17488 0.7417,-0.74132 0.92207,-1.25874 0.41405,-1.187725 -0.0988,-2.319475 -1.31538,-2.902817 -0.73144,-0.350724 -1.0287,-0.339414 -1.81886,0.06919 -0.51948,0.268638 -1.03532,0.725049 -1.14629,1.014245 -0.83476,2.175322 1.33299,4.162122 3.35846,3.078122 z m 27.02409,6.47283 c 4.74812,-5.16599 7.87445,-9.957506 10.51623,-16.117497 1.3515,-3.151388 3.28162,-9.42866 2.98906,-9.721224 -0.13508,-0.135074 -4.56105,-0.989344 -12.41943,-2.397105 -2.14383,-0.384047 -4.12658,-0.763235 -4.40611,-0.842635 -0.37834,-0.107467 -0.65601,0.333742 -1.08633,1.726145 -1.56907,5.077021 -4.76098,10.461823 -8.53611,14.400548 l -2.04701,2.135714 5.76402,6.859444 c 3.17022,3.7727 5.93487,6.86785 6.14369,6.87811 0.20881,0.0103 1.59571,-1.30441 3.08199,-2.9215 z m -74.344226,1.08907 c 0.575163,-0.66079 2.288195,-2.59945 3.80674,-4.30814 1.518545,-1.70869 3.594077,-4.06269 4.612297,-5.231114 l 1.851299,-2.12441 -2.108629,-2.256447 c -3.845983,-4.115581 -6.917452,-9.279852 -8.441743,-14.193668 -0.384798,-1.240465 -0.750362,-1.865592 -1.088496,-1.86136 -0.280017,0.0035 -2.920927,0.441437 -5.86869,0.973188 -2.947764,0.53175 -6.346219,1.134988 -7.552122,1.340523 -1.714146,0.292164 -2.192551,0.495851 -2.192551,0.933507 0,1.034293 1.946859,7.125461 3.225041,10.090229 2.371792,5.501423 6.25088,11.296242 10.691355,15.971412 0.975682,1.02725 1.82927,1.86772 1.896859,1.86772 0.06759,0 0.593477,-0.54064 1.16864,-1.20144 z m 17.671186,-20.026633 5.23063,-5.961427 -1.03879,-1.312712 c -0.57133,-0.721989 -1.39618,-2.022484 -1.833,-2.889984 -0.43682,-0.867503 -0.94039,-1.684665 -1.11904,-1.815919 -0.58764,-0.431732 -8.15509,-0.258887 -10.926879,0.249577 -6.622045,1.214758 -6.21872,1.069874 -6.001521,2.155869 0.353267,1.766336 2.381628,6.037585 4.167701,8.776189 1.87576,2.876127 5.269039,6.759831 5.906219,6.759831 0.21123,0 2.73784,-2.68264 5.61468,-5.961424 z m 41.87676,4.093695 c 3.25742,-3.420553 6.55022,-8.94066 7.78949,-13.058434 0.23952,-0.79588 0.36743,-1.515118 0.28425,-1.598301 -0.53119,-0.531195 -8.54956,-1.640542 -11.94283,-1.652301 l -3.83493,-0.01329 -0.61505,1.390422 c -0.66743,1.508849 -2.38885,4.067654 -3.14083,4.668699 -0.38869,0.31067 0.38122,1.379462 4.50399,6.252452 2.73505,3.232749 5.01881,5.877895 5.07504,5.878103 0.0562,2.11e-4 0.90261,-0.840098 1.88087,-1.86735 z m -17.95351,-8.93605 c 9.5163,-4.519268 11.56214,-16.567432 4.06058,-23.91308 -1.47821,-1.447484 -4.39813,-3.174256 -6.36143,-3.761999 -0.70937,-0.212359 -0.73085,-0.151669 -0.73085,2.065429 0,1.925898 -0.0986,2.336964 -0.62829,2.620469 -0.81256,0.434869 -0.85598,0.429688 -1.45985,-0.174186 -0.36581,-0.365802 -0.51044,-1.148127 -0.51044,-2.760991 0,-2.184043 -0.024,-2.250554 -0.81205,-2.250554 -0.79367,0 -0.81206,0.0549 -0.81206,2.42474 0,2.064828 -0.0933,2.47465 -0.62829,2.760991 -0.81256,0.434869 -0.85598,0.429688 -1.45985,-0.174186 -0.34924,-0.349236 -0.51044,-1.118598 -0.51044,-2.436168 0,-2.218469 -0.087,-2.259783 -2.43617,-1.156914 -6.31201,2.96331 -9.90802,10.420807 -8.16559,16.934003 1.33648,4.995776 4.73234,8.696315 9.59268,10.453358 1.81036,0.654455 2.62914,0.75999 5.23555,0.674822 2.78137,-0.09089 3.34267,-0.221149 5.6265,-1.305734 z m -8.8785,-7.100671 c -2.20212,-0.875523 -3.89787,-3.578481 -3.89787,-6.213054 0,-3.578461 2.5065,-6.382449 5.96143,-6.668958 4.27017,-0.354115 7.35629,2.408298 7.35629,6.584683 0,2.901353 -1.41034,5.22357 -3.77158,6.210157 -1.23514,0.516078 -4.44489,0.565616 -5.64827,0.08717 z m 4.22031,-2.433897 c 1.75549,-0.702409 2.60096,-1.948896 2.60096,-3.834633 0,-1.25222 -0.18214,-1.696288 -1.11192,-2.710848 -1.03283,-1.127017 -1.24253,-1.213312 -2.94836,-1.213312 -1.70583,0 -1.91553,0.0863 -2.94836,1.213312 -0.88888,0.969939 -1.11192,1.481132 -1.11192,2.548463 0,1.796709 0.86574,3.185761 2.43617,3.90876 1.58923,0.731656 1.48302,0.728616 3.08343,0.08826 z m -46.447225,-1.424756 v -0.974467 h -4.222692 -4.222692 v 0.974467 0.974467 h 4.222692 4.222692 z m 27.772315,-2.273231 v -3.247997 l -12.586869,-3.25e-4 -12.586867,-3.24e-4 v 3.248224 3.248224 l 12.586867,1.53e-4 12.586869,1.49e-4 z m 59.60492,-6.5e-4 v -3.248224 l -12.58687,2.24e-4 -12.58687,2.24e-4 v 3.248043 3.248039 l 12.58687,-4.2e-5 12.58687,-3.9e-5 z m 11.04396,2.273757 v -0.974467 h -4.22269 -4.22269 v 0.974467 0.974468 h 4.22269 4.22269 z m -98.421195,-4.547514 v -0.974467 h -4.222692 -4.222692 v 0.974467 0.974468 h 4.222692 4.222692 z m 98.421195,0 v -0.974467 h -4.22269 -4.22269 v 0.974467 0.974468 h 4.22269 4.22269 z m -68.69994,-6.091814 c 0.71461,-1.383789 1.29929,-2.601603 1.29929,-2.706251 0,-0.200406 -13.374859,-11.340924 -13.615459,-11.340924 -0.33677,0 -3.238537,4.727946 -4.264099,6.947643 -1.112166,2.407138 -2.668816,7.530669 -2.376739,7.82275 0.0828,0.0828 2.116367,0.505157 4.519028,0.938567 3.089049,0.557227 5.652779,0.797709 8.753579,0.821109 l 4.38511,0.03309 z m 43.47909,1.718025 c 2.47523,-0.430812 4.57168,-0.854559 4.65878,-0.94166 0.0871,-0.0871 -0.0754,-0.962433 -0.36109,-1.945186 l -0.51944,-1.786826 -2.51522,0.929161 c -1.38336,0.51104 -4.52471,1.633156 -6.98078,2.493591 -2.45606,0.860435 -4.4659,1.674057 -4.4663,1.808046 -0.002,0.513742 5.88009,0.191986 10.18405,-0.557126 z m -64.920547,-2.528687 c 0.432745,-2.166592 1.920971,-6.331207 3.105017,-8.688999 4.396731,-8.755212 12.36205,-15.578117 21.63519,-18.532208 l 2.32429,-0.740435 0.18685,-1.65126 c 0.10276,-0.90819 0.28299,-4.39195 0.40051,-7.74168 l 0.21367,-6.09042 h -0.78883 c -2.06529,0 -8.90604,2.19222 -13.19037,4.22706 -14.128118,6.71011 -24.705756,19.205412 -28.86641,34.099705 -0.423848,1.517288 -0.770631,2.929242 -0.770631,3.137671 0,0.217855 1.001154,0.545549 2.354962,0.770817 1.29523,0.215516 4.547514,0.80132 7.227299,1.301781 6.246612,1.166587 5.916079,1.171517 6.168453,-0.09203 z m 63.505957,-3.055079 c 5.62755,-2.04464 14.10541,-5.11259 18.8397,-6.817664 4.73429,-1.705074 8.71807,-3.203945 8.85284,-3.330827 0.13478,-0.126882 -0.41994,-0.69942 -1.2327,-1.272303 -1.11158,-0.783514 -1.61794,-0.966581 -2.04354,-0.738806 -0.31119,0.166543 -3.19147,1.272989 -6.40063,2.458767 -3.20916,1.185777 -9.12366,3.376022 -13.14333,4.867214 -4.01968,1.491188 -9.57415,3.54655 -12.34326,4.56747 -2.76911,1.02092 -5.08796,1.904089 -5.153,1.962596 -0.065,0.05851 0.2082,0.634603 0.60721,1.280213 0.52099,0.842976 0.87477,1.112819 1.25514,0.957353 0.29132,-0.119067 5.13402,-1.889372 10.76157,-3.934013 z m 15.9163,2.982205 c 2.23315,-0.422022 5.17588,-0.942703 6.5394,-1.157066 1.36352,-0.214367 2.64946,-0.495033 2.85766,-0.623702 0.44073,-0.272392 -1.18345,-6.495713 -1.75188,-6.712623 -0.29651,-0.113145 -15.32113,5.171179 -15.65651,5.506564 -0.12641,0.126405 0.39087,2.836009 0.71507,3.745667 0.18262,0.512414 1.04269,0.422965 7.29626,-0.75884 z m -22.41275,-6.405494 c 8.36468,-3.089494 18.7921,-6.955816 24.34098,-9.025253 2.22177,-0.828603 4.08348,-1.644125 4.13713,-1.812272 0.0536,-0.168148 -0.41023,-0.634732 -1.03084,-1.036856 l -1.12841,-0.731133 -2.03426,0.798154 c -1.11885,0.438984 -9.33794,3.442955 -18.26466,6.675487 -8.92672,3.232535 -16.29916,5.946095 -16.3832,6.030137 -0.084,0.08404 0.34965,0.580911 0.96375,1.104164 1.31552,1.120914 0.43573,1.30834 9.39951,-2.002428 z m -31.10233,1.831656 c 1.21394,-1.021461 3.8396,-2.372466 5.59231,-2.877458 1.0679,-0.307688 1.32979,-0.540845 1.41353,-1.258476 l 0.10278,-0.88082 h -2.9052 c -2.18527,0 -3.00535,-0.120659 -3.3093,-0.486906 -0.30831,-0.37149 -0.35011,-1.8537 -0.17636,-6.252832 0.12526,-3.171261 0.29209,-6.323354 0.37074,-7.004653 0.0786,-0.681298 0.0607,-1.371952 -0.04,-1.534786 -0.21534,-0.348427 -3.34837,0.783534 -6.33055,2.287212 -2.89893,1.461707 -5.31049,3.148685 -7.72058,5.400842 l -2.04044,1.90673 6.91278,5.742074 c 3.80202,3.158142 6.96476,5.75266 7.02829,5.765598 0.0635,0.01293 0.55943,-0.35 1.10198,-0.806525 z m 18.82826,-3.095196 c 0.94454,-0.37236 5.14801,-1.915 9.34106,-3.428091 4.19304,-1.513088 7.68523,-2.812589 7.76042,-2.887776 0.33785,-0.337857 -2.50309,-3.240704 -5.08138,-5.192095 -2.70638,-2.048349 -7.67612,-4.753678 -9.57191,-5.210574 -1.06445,-0.256538 -1.03523,-0.673496 -0.56846,8.114204 0.22151,4.170272 0.20803,5.944913 -0.0475,6.252832 -0.25197,0.303605 -1.2996,0.429942 -3.56527,0.429942 -3.18543,0 -3.20845,0.0057 -3.20845,0.793177 0,0.663407 0.25242,0.870443 1.5429,1.265469 0.8486,0.259761 1.57404,0.487513 1.61209,0.506112 0.038,0.01861 0.84199,-0.270837 1.78653,-0.6432 z m -7.5401,-1.271914 c 0,-0.476407 -0.21655,-0.649644 -0.81205,-0.649644 -0.59551,0 -0.81206,0.173237 -0.81206,0.649644 0,0.476408 0.21655,0.649645 0.81206,0.649645 0.5955,0 0.81205,-0.173237 0.81205,-0.649645 z m -4.21771,-5.115953 c 0.005,-1.977223 0.18234,-2.479441 0.96949,-2.749599 1.15458,-0.396264 1.62411,0.331523 1.62411,2.51741 0,2.023364 0.0296,2.099918 0.81206,2.099918 0.77146,0 0.8123,-0.09336 0.81703,-1.867729 0.005,-1.977223 0.18234,-2.479441 0.96949,-2.749599 1.15716,-0.397151 1.62411,0.330903 1.62411,2.532251 v 2.114759 l 2.15172,-0.09605 2.15172,-0.09605 -0.0649,-3.735458 c -0.0357,-2.054502 -0.11269,-4.173968 -0.17113,-4.709925 -0.0584,-0.535957 -0.1998,-3.313189 -0.31413,-6.17163 -0.11434,-2.858435 -0.27455,-6.147255 -0.35603,-7.308495 -0.0815,-1.16124 -0.37281,-7.44656 -0.64738,-13.96737 -0.27457,-6.52081 -0.56252,-12.03873 -0.63989,-12.26205 -0.10463,-0.30198 -1.46904,-0.40602 -5.32465,-0.40602 h -5.18398 l -0.17689,1.70531 c -0.0973,0.93793 -0.25584,4.19021 -0.35234,7.2273 -0.0965,3.03709 -0.24338,6.54517 -0.32638,7.79574 -0.15043,2.2667 -0.20304,3.36177 -0.81143,16.890775 -0.17674,3.930349 -0.40781,8.936675 -0.51348,11.125166 l -0.19213,3.979075 h 1.975 1.97501 z m 39.83391,-3.837251 c 4.25419,-1.529936 7.79861,-2.845428 7.8765,-2.923317 0.34105,-0.341054 -2.67829,-4.135198 -5.8133,-7.305059 -3.72463,-3.76605 -8.31335,-7.40613 -8.74315,-6.93565 -0.1477,0.16168 -1.98988,2.70577 -4.09372,5.65354 -2.10385,2.947765 -4.1324,5.700196 -4.5079,6.116514 l -0.68273,0.756944 0.9744,0.681838 c 0.53592,0.37501 2.28992,2.021652 3.8978,3.659206 1.60787,1.637553 3.02101,2.999939 3.14031,3.027527 0.1193,0.02758 3.69761,-1.201606 7.95179,-2.731543 z m 19.27879,-3.895835 v -5.378246 l -1.38049,0.0999 -1.3805,0.0999 -0.0814,4.22269 c -0.0448,2.32248 0.0283,4.37398 0.16241,4.558892 0.3227,0.445026 2.12662,1.751771 2.43634,1.764855 0.13399,0.0057 0.24361,-2.40992 0.24361,-5.367957 z m -5.52198,-1.767847 v -3.573049 h -1.29929 c -1.12606,0 -1.30145,0.0974 -1.3155,0.73085 -0.009,0.40197 -0.0455,1.560463 -0.0812,2.574432 -0.0635,1.799838 -0.0342,1.866745 1.23429,2.819952 0.71461,0.537007 1.33583,0.986382 1.3805,0.998618 0.0447,0.01225 0.0812,-1.585627 0.0812,-3.550803 z m -27.11096,-6.861054 c 5.171,-7.18421 5.14309,-6.26846 0.26256,-8.61322 -3.64765,-1.75245 -10.00478,-3.86928 -12.57848,-4.18844 l -1.90989,-0.23685 0.19674,2.39766 c 0.10821,1.31871 0.29182,4.91409 0.40802,7.98973 l 0.21128,5.592065 1.66428,0.48722 c 0.91536,0.26798 2.83365,1.05775 4.26286,1.75505 1.42922,0.697301 2.6894,1.2169 2.80041,1.154667 0.11099,-0.06223 2.21799,-2.914277 4.68222,-6.337882 z m 18.34076,0.85511 c 0,-0.0875 -1.84651,-4.07067 -4.10334,-8.85142 -11.34954,-24.04221 -13.82232,-29.28286 -18.23787,-38.65213 l -4.78147,-10.14569 -3.65425,-0.005 -3.65425,-0.005 v 11.81624 c 0,9.81833 0.0781,11.88106 0.46184,12.19955 0.6144,0.5099 0.77583,1.80742 0.99277,7.97922 0.27696,7.87954 0.41951,8.90856 1.25729,9.07607 11.90256,2.37997 22.06562,7.48654 29.28311,14.71371 1.7922,1.7946 2.43617,2.29009 2.43617,1.87446 z m -25.37348,-17.81083 c -1.88314,-0.70275 -3.01312,-1.67876 -3.82447,-3.30334 -1.03698,-2.07634 -0.88263,-5.02901 0.36113,-6.90846 1.01392,-1.53214 3.68893,-3.00119 5.46491,-3.00119 2.59676,0 5.07871,1.46076 6.19297,3.6449 0.98435,1.92947 0.77633,5.16775 -0.4511,7.02252 -1.53671,2.32212 -5.15491,3.51157 -7.74344,2.54557 z m 3.87089,-2.623 c 0.97688,-0.50517 1.90597,-1.43743 2.06887,-2.07594 0.0819,-0.32105 -0.78247,-0.43457 -3.70994,-0.48724 -2.0992,-0.0378 -3.8167,0.0506 -3.81667,0.19631 1.5e-4,0.63048 0.76747,1.60284 1.72611,2.18737 1.22214,0.74519 2.51723,0.80748 3.73163,0.1795 z m 2.01324,-5.49862 c 0,-0.94286 -2.31932,-2.49279 -3.73023,-2.49279 -1.49505,0 -3.74068,1.60339 -3.74068,2.67086 0,0.1389 1.68095,0.25254 3.73545,0.25254 2.88556,0 3.73546,-0.098 3.73546,-0.43061 z m -10.05844,-10.85747 c -2.15648,-1.08785 -3.11792,-4.44524 -1.83406,-6.40464 1.27136,-1.94034 4.03184,-2.67562 6.07619,-1.61844 3.06798,1.58651 2.94599,6.81421 -0.18958,8.12434 -1.48253,0.61943 -2.68338,0.58943 -4.05255,-0.10126 z m 3.16489,-2.53529 c 1.32558,-0.92847 0.59336,-3.39222 -1.00816,-3.39222 -1.58934,0 -2.41171,2.08138 -1.30538,3.30386 0.65801,0.72709 1.36318,0.75403 2.31354,0.0884 z m 39.87011,37.94144 c -0.39017,-2.08787 -0.93986,-2.31282 -4.46944,-1.82904 -1.35326,0.18549 -1.49553,0.29563 -1.83186,1.41818 -0.20055,0.6694 -0.36464,1.30975 -0.36464,1.42301 0,0.11327 1.55105,0.20593 3.44678,0.20593 h 3.44679 z m -86.098732,-6.30707 c 6.486922,-4.36189 13.445632,-7.15703 22.150172,-8.8972 0.67238,-0.13441 0.70751,-0.3588 0.9502,-6.06959 0.1386,-3.26151 0.27447,-6.14927 0.30192,-6.41725 0.0275,-0.26798 0.0749,-1.33133 0.10548,-2.36301 0.0497,-1.67785 0.14124,-1.90834 0.86762,-2.18451 l 0.81205,-0.30874 v -11.86406 -11.86406 h -3.69025 -3.69026 l -1.1523,2.51738 c -0.63377,1.38455 -4.98429,10.62981 -9.66784,20.54502 -4.683539,9.9152 -9.133748,19.34317 -9.88934,20.95104 -0.755592,1.60787 -2.418381,5.13774 -3.695083,7.84415 -1.276705,2.70641 -2.321278,5.01289 -2.321278,5.12552 0,0.11262 1.352073,-0.97939 3.004607,-2.4267 1.652534,-1.44732 4.31397,-3.51191 5.914302,-4.58799 z m 11.141822,-10.13406 c -3.0094,-1.12008 -4.53422,-3.24869 -4.53422,-6.32968 0,-3.21903 1.70059,-5.57004 4.7322,-6.54212 2.7745,-0.88963 6.50379,0.57315 7.7866,3.05423 1.67121,3.23229 0.64726,7.46003 -2.21275,9.13611 -1.72536,1.01112 -4.12491,1.29443 -5.77183,0.68146 z m 3.88418,-2.6974 c 2.20772,-1.04763 3.00829,-3.75926 1.72921,-5.85703 -1.20161,-1.9707 -3.52774,-2.57426 -5.43628,-1.41056 -1.43996,0.878 -2.12754,2.0583 -2.10605,3.61524 0.0217,1.57137 0.68549,2.69327 2.10605,3.55944 1.27297,0.77618 2.21732,0.79985 3.70707,0.0929 z m 0.42782,-16.26762 c -2.15648,-1.08785 -3.11791,-4.44524 -1.83406,-6.40464 1.27136,-1.94034 4.03184,-2.67562 6.0762,-1.61844 3.06797,1.58651 2.94598,6.81421 -0.18959,8.12434 -1.48252,0.61943 -2.68338,0.58943 -4.05255,-0.10126 z m 3.1649,-2.53529 c 1.32558,-0.92847 0.59335,-3.39222 -1.00817,-3.39222 -1.70251,0 -2.50354,2.42388 -1.12104,3.39222 0.39706,0.27811 0.87613,0.50565 1.06461,0.50565 0.18847,0 0.66754,-0.22754 1.0646,-0.50565 z"
       id="path1560"
       inkscape:connector-curvature="0" /><path
       inkscape:connector-curvature="0"
       style="opacity:0.82999998;fill:#68a7f8;fill-opacity:1;stroke:none;stroke-width:1.48440635;stroke-linecap:round;stroke-linejoin:round;stroke-miterlimit:4;stroke-dasharray:none;stroke-opacity:1"
       d="m 86.439209,-13.545179 -2.027111,2.285838 A 48.722399,31.825403 0 0 0 127.14857,5.3504982 48.722399,31.825403 0 0 0 169.48536,-10.768736 l -1.84405,-2.115587 A 47.281796,31.825403 0 0 1 127.30662,2.3977062 47.281796,31.825403 0 0 1 86.439209,-13.545179 Z"
       id="path1612" /><path
       style="fill:#eef1f5;stroke:none;stroke-width:1px;stroke-linecap:butt;stroke-linejoin:miter;stroke-opacity:1;fill-opacity:1;opacity:0.1"
       d="M 126.28711 11.947266 L 90.314453 11.947266 C 81.057488 11.947266 72.792777 12.111743 65.416016 12.544922 C 61.727635 12.761511 58.260973 13.044594 55.003906 13.408203 C 51.74684 13.771812 48.699233 14.215508 45.847656 14.751953 C 42.99608 15.288398 40.341052 15.9192 37.869141 16.654297 C 35.39723 17.389394 33.108304 18.229887 30.990234 19.189453 C 28.872164 20.149019 26.924819 21.227648 25.134766 22.4375 C 23.344712 23.647352 21.71247 24.988656 20.224609 26.474609 C 18.736748 27.960563 17.393134 29.591034 16.181641 31.378906 C 14.970148 33.166779 13.890637 35.110955 12.929688 37.226562 C 11.968738 39.34217 11.126855 41.628497 10.390625 44.097656 C 9.6543948 46.566815 9.0236635 49.219832 8.4863281 52.068359 C 7.9489927 54.916887 7.50489 57.961132 7.140625 61.214844 C 6.77636 64.468556 6.4924096 67.930521 6.2753906 71.615234 C 5.8413528 78.98466 5.6757812 87.241905 5.6757812 96.490234 L 5.6757812 155.74219 C 5.6757813 164.99048 5.8413528 173.24778 6.2753906 180.61719 C 6.4924096 184.30189 6.77636 187.76387 7.140625 191.01758 C 7.50489 194.27128 7.9489927 197.31554 8.4863281 200.16406 C 9.0236635 203.01259 9.6543948 205.66561 10.390625 208.13477 C 11.126855 210.60392 11.968738 212.89025 12.929688 215.00586 C 13.890637 217.12147 14.970148 219.06564 16.181641 220.85352 C 17.393134 222.64139 18.736748 224.27186 20.224609 225.75781 C 20.991747 226.52397 21.910049 227.14875 22.755859 227.83984 L 126.28711 11.947266 z "
       id="path1646"
       transform="translate(0,-208)" /><g
       transform="matrix(1.019368,0,0,1.019368,-26.954104,-241.03481)"
       clip-path="url(#clipPath1064)"
       id="g1643"
       style="display:inline;enable-background:new"><path
         inkscape:connector-curvature="0"
         transform="matrix(0.98100001,0,0,0.98100001,26.432006,32.280011)"
         id="path1641"
         d="m 127.55078,-4.3632812 -8.63281,16.4394532 h 46.77734 c 6.94346,0 12.80469,0.220024 18.67578,0.449219 l 8.86914,-16.8886722 z"
         style="color:#000000;display:inline;overflow:visible;visibility:visible;opacity:0.2;fill:#f0f0f0;fill-opacity:1;fill-rule:nonzero;stroke:none;stroke-width:2.72813439;marker:none;enable-background:accumulate" /></g><path
       id="path1648"
       d="m 129.70266,-195.59676 h 35.97265 c 9.25697,0 17.52168,0.16447 24.89844,0.59765 3.68838,0.21659 7.15504,0.49967 10.41211,0.86328 3.25707,0.36361 6.30467,0.80731 9.15625,1.34375 2.85158,0.53645 5.50661,1.16725 7.97852,1.90235 2.47191,0.73509 4.76083,1.57559 6.87891,2.53515 2.11807,0.95957 4.06541,2.0382 5.85547,3.24805 1.79005,1.20985 3.42229,2.55116 4.91015,4.03711 1.48786,1.48595 2.83148,3.11642 4.04297,4.9043 1.21149,1.78787 2.291,3.73205 3.25195,5.84765 0.96095,2.11561 1.80284,4.40194 2.53907,6.8711 0.73623,2.46916 1.36696,5.12217 1.90429,7.9707 0.53734,2.84853 0.98144,5.89277 1.34571,9.14648 0.36426,3.25372 0.64821,6.71568 0.86523,10.40039 0.43404,7.36943 0.59961,15.62668 0.59961,24.875 v 59.251961 c 0,9.24829 -0.16557,17.50559 -0.59961,24.875 -0.21702,3.6847 -0.50097,7.14668 -0.86523,10.40039 -0.36427,3.2537 -0.80837,6.29796 -1.34571,9.14648 -0.53733,2.84853 -1.16806,5.50155 -1.90429,7.97071 -0.73623,2.46915 -1.57812,4.75548 -2.53907,6.87109 -0.96095,2.11561 -2.04046,4.05978 -3.25195,5.84766 -1.21149,1.78787 -2.55511,3.41834 -4.04297,4.90429 -0.76714,0.76616 -1.68544,1.39094 -2.53125,2.08203 z"
       style="opacity:0.1;fill:#eef1f5;fill-opacity:1;stroke:none;stroke-width:1px;stroke-linecap:butt;stroke-linejoin:miter;stroke-opacity:1"
       inkscape:connector-curvature="0" /></g></svg>