<?xml version="1.0" encoding="UTF-8" standalone="no"?>
<!-- Created with Inkscape (http://www.inkscape.org/) -->

<svg
   xmlns:dc="http://purl.org/dc/elements/1.1/"
   xmlns:cc="http://creativecommons.org/ns#"
   xmlns:rdf="http://www.w3.org/1999/02/22-rdf-syntax-ns#"
   xmlns:svg="http://www.w3.org/2000/svg"
   xmlns="http://www.w3.org/2000/svg"
   xmlns:xlink="http://www.w3.org/1999/xlink"
   xmlns:sodipodi="http://sodipodi.sourceforge.net/DTD/sodipodi-0.dtd"
   xmlns:inkscape="http://www.inkscape.org/namespaces/inkscape"
   width="256"
   height="256"
   viewBox="0 0 67.733332 67.733335"
   version="1.1"
   id="svg1488"
   inkscape:version="0.92.3 (2405546, 2018-03-11)"
   sodipodi:docname="2.svg">
  <defs
     id="defs1482">
    <clipPath
       clipPathUnits="userSpaceOnUse"
       id="clipPath1025">
      <path
         id="path1027"
         d="M 111.94141,84 C 99.359506,84.145 90.1531,83.713998 82.625,87.867188 c -3.7641,2.0768 -6.751838,5.574737 -8.398438,9.960937 C 72.580062,102.21433 72,107.4241 72,114 v 42 h 160 v -26 c 0,-6.5759 -0.57996,-11.78566 -2.22656,-16.17188 -0.205,-0.5455 -0.47919,-1.03993 -0.74219,-1.54296 -0.1,-0.1848 -0.17844,-0.38051 -0.27344,-0.56641 -1.727,-3.38752 -4.25471,-6.14522 -7.38281,-7.87109 C 213.8463,99.694146 204.64049,100.1454 192.05859,100 H 192 151.66797 L 135.45312,84 h -23.49218 z"
         style="color:#000000;font-style:normal;font-variant:normal;font-weight:normal;font-stretch:normal;font-size:medium;line-height:normal;font-family:sans-serif;font-variant-ligatures:none;font-variant-position:normal;font-variant-caps:normal;font-variant-numeric:normal;font-variant-alternates:normal;font-feature-settings:normal;text-indent:0;text-align:start;text-decoration:none;text-decoration-line:none;text-decoration-style:solid;text-decoration-color:#000000;letter-spacing:normal;word-spacing:normal;text-transform:none;writing-mode:lr-tb;direction:ltr;baseline-shift:baseline;text-anchor:start;white-space:normal;shape-padding:0;clip-rule:nonzero;display:inline;overflow:visible;visibility:visible;opacity:1;isolation:auto;mix-blend-mode:normal;color-interpolation:sRGB;color-interpolation-filters:linearRGB;solid-color:#000000;solid-opacity:1;fill:#e3dfd5;fill-opacity:1;fill-rule:nonzero;stroke:none;stroke-width:4.00000048;stroke-linecap:butt;stroke-linejoin:miter;stroke-miterlimit:4;stroke-dasharray:none;stroke-dashoffset:0;stroke-opacity:1;marker:none;color-rendering:auto;image-rendering:auto;shape-rendering:auto;text-rendering:auto;enable-background:accumulate"
         inkscape:connector-curvature="0" />
    </clipPath>
    <clipPath
       clipPathUnits="userSpaceOnUse"
       id="clipPath1082-3">
      <path
         sodipodi:nodetypes="sssssssss"
         inkscape:connector-curvature="0"
         id="path1084-6"
         d="M 361.9375,-212 C 507.2348,-212 528,-191.28677 528,-46.125 V 70.125 C 528,215.28618 507.2348,236 361.9375,236 H 214.0625 C 68.7652,236 48,215.28618 48,70.125 V -46.125 C 48,-191.28677 68.7652,-212 214.0625,-212 Z"
         style="display:inline;opacity:1;fill:#8c59d9;fill-opacity:1;stroke:none;stroke-width:2;stroke-linecap:round;stroke-linejoin:round;stroke-miterlimit:4;stroke-dasharray:none;stroke-dashoffset:0;stroke-opacity:1;enable-background:new" />
    </clipPath>
    <clipPath
       clipPathUnits="userSpaceOnUse"
       id="clipPath1082-3-5">
      <path
         sodipodi:nodetypes="sssssssss"
         inkscape:connector-curvature="0"
         id="path1084-6-6"
         d="M 361.9375,-212 C 507.2348,-212 528,-191.28677 528,-46.125 V 70.125 C 528,215.28618 507.2348,236 361.9375,236 H 214.0625 C 68.7652,236 48,215.28618 48,70.125 V -46.125 C 48,-191.28677 68.7652,-212 214.0625,-212 Z"
         style="display:inline;opacity:1;fill:#8c59d9;fill-opacity:1;stroke:none;stroke-width:2;stroke-linecap:round;stroke-linejoin:round;stroke-miterlimit:4;stroke-dasharray:none;stroke-dashoffset:0;stroke-opacity:1;enable-background:new" />
    </clipPath>
    <clipPath
       clipPathUnits="userSpaceOnUse"
       id="clipPath1082-3-9">
      <path
         sodipodi:nodetypes="sssssssss"
         inkscape:connector-curvature="0"
         id="path1084-6-3"
         d="M 361.9375,-212 C 507.2348,-212 528,-191.28677 528,-46.125 V 70.125 C 528,215.28618 507.2348,236 361.9375,236 H 214.0625 C 68.7652,236 48,215.28618 48,70.125 V -46.125 C 48,-191.28677 68.7652,-212 214.0625,-212 Z"
         style="display:inline;opacity:1;fill:#8c59d9;fill-opacity:1;stroke:none;stroke-width:2;stroke-linecap:round;stroke-linejoin:round;stroke-miterlimit:4;stroke-dasharray:none;stroke-dashoffset:0;stroke-opacity:1;enable-background:new" />
    </clipPath>
    <clipPath
       clipPathUnits="userSpaceOnUse"
       id="clipPath1082-3-3">
      <path
         sodipodi:nodetypes="sssssssss"
         inkscape:connector-curvature="0"
         id="path1084-6-67"
         d="M 361.9375,-212 C 507.2348,-212 528,-191.28677 528,-46.125 V 70.125 C 528,215.28618 507.2348,236 361.9375,236 H 214.0625 C 68.7652,236 48,215.28618 48,70.125 V -46.125 C 48,-191.28677 68.7652,-212 214.0625,-212 Z"
         style="display:inline;opacity:1;fill:#8c59d9;fill-opacity:1;stroke:none;stroke-width:2;stroke-linecap:round;stroke-linejoin:round;stroke-miterlimit:4;stroke-dasharray:none;stroke-dashoffset:0;stroke-opacity:1;enable-background:new" />
    </clipPath>
    <clipPath
       clipPathUnits="userSpaceOnUse"
       id="clipPath1082-3-53">
      <path
         sodipodi:nodetypes="sssssssss"
         inkscape:connector-curvature="0"
         id="path1084-6-5"
         d="M 361.9375,-212 C 507.2348,-212 528,-191.28677 528,-46.125 V 70.125 C 528,215.28618 507.2348,236 361.9375,236 H 214.0625 C 68.7652,236 48,215.28618 48,70.125 V -46.125 C 48,-191.28677 68.7652,-212 214.0625,-212 Z"
         style="display:inline;opacity:1;fill:#8c59d9;fill-opacity:1;stroke:none;stroke-width:2;stroke-linecap:round;stroke-linejoin:round;stroke-miterlimit:4;stroke-dasharray:none;stroke-dashoffset:0;stroke-opacity:1;enable-background:new" />
    </clipPath>
    <clipPath
       clipPathUnits="userSpaceOnUse"
       id="clipPath1082-3-6">
      <path
         sodipodi:nodetypes="sssssssss"
         inkscape:connector-curvature="0"
         id="path1084-6-2"
         d="M 361.9375,-212 C 507.2348,-212 528,-191.28677 528,-46.125 V 70.125 C 528,215.28618 507.2348,236 361.9375,236 H 214.0625 C 68.7652,236 48,215.28618 48,70.125 V -46.125 C 48,-191.28677 68.7652,-212 214.0625,-212 Z"
         style="display:inline;opacity:1;fill:#8c59d9;fill-opacity:1;stroke:none;stroke-width:2;stroke-linecap:round;stroke-linejoin:round;stroke-miterlimit:4;stroke-dasharray:none;stroke-dashoffset:0;stroke-opacity:1;enable-background:new" />
    </clipPath>
    <clipPath
       clipPathUnits="userSpaceOnUse"
       id="clipPath1082-3-91">
      <path
         sodipodi:nodetypes="sssssssss"
         inkscape:connector-curvature="0"
         id="path1084-6-27"
         d="M 361.9375,-212 C 507.2348,-212 528,-191.28677 528,-46.125 V 70.125 C 528,215.28618 507.2348,236 361.9375,236 H 214.0625 C 68.7652,236 48,215.28618 48,70.125 V -46.125 C 48,-191.28677 68.7652,-212 214.0625,-212 Z"
         style="display:inline;opacity:1;fill:#8c59d9;fill-opacity:1;stroke:none;stroke-width:2;stroke-linecap:round;stroke-linejoin:round;stroke-miterlimit:4;stroke-dasharray:none;stroke-dashoffset:0;stroke-opacity:1;enable-background:new" />
    </clipPath>
    <clipPath
       clipPathUnits="userSpaceOnUse"
       id="clipPath1025-0">
      <path
         style="opacity:1;fill:#8c59d9;fill-opacity:1;stroke:none;stroke-width:2;stroke-linecap:round;stroke-linejoin:round;stroke-miterlimit:4;stroke-dasharray:none;stroke-dashoffset:0;stroke-opacity:1"
         d="M 329.9375,32 C 475.2348,32 496,52.71323 496,197.875 v 116.25 C 496,459.28618 475.2348,480 329.9375,480 H 182.0625 C 36.7652,480 16,459.28618 16,314.125 V 197.875 C 16,52.71323 36.7652,32 182.0625,32 Z"
         id="path1027-9"
         inkscape:connector-curvature="0"
         sodipodi:nodetypes="sssssssss" />
    </clipPath>
    <clipPath
       clipPathUnits="userSpaceOnUse"
       id="clipPath4277-8">
      <rect
         style="color:#000000;display:inline;overflow:visible;visibility:visible;opacity:0.81999972;fill:#88b637;fill-opacity:1;fill-rule:nonzero;stroke:none;stroke-width:2;stroke-linecap:butt;stroke-linejoin:miter;stroke-miterlimit:4;stroke-dasharray:none;stroke-dashoffset:0;stroke-opacity:1;marker:none;enable-background:accumulate"
         id="rect4279-6"
         width="512"
         height="512"
         x="5.5999999e-07"
         y="0"
         ry="1" />
    </clipPath>
    <linearGradient
       id="linearGradient3650-7-9">
      <stop
         style="stop-color:#5884f4;stop-opacity:1"
         offset="0"
         id="stop4366" />
      <stop
         id="stop4368"
         offset="1"
         style="stop-color:#80a3fa;stop-opacity:1" />
    </linearGradient>
    <clipPath
       clipPathUnits="userSpaceOnUse"
       id="clipPath1082-3-36">
      <path
         sodipodi:nodetypes="sssssssss"
         inkscape:connector-curvature="0"
         id="path1084-6-0"
         d="M 361.9375,-212 C 507.2348,-212 528,-191.28677 528,-46.125 V 70.125 C 528,215.28618 507.2348,236 361.9375,236 H 214.0625 C 68.7652,236 48,215.28618 48,70.125 V -46.125 C 48,-191.28677 68.7652,-212 214.0625,-212 Z"
         style="display:inline;opacity:1;fill:#8c59d9;fill-opacity:1;stroke:none;stroke-width:2;stroke-linecap:round;stroke-linejoin:round;stroke-miterlimit:4;stroke-dasharray:none;stroke-dashoffset:0;stroke-opacity:1;enable-background:new" />
    </clipPath>
    <clipPath
       clipPathUnits="userSpaceOnUse"
       id="clipPath983">
      <path
         id="path985"
         d="M 115.03125,44 C 42.3826,44 32,54.356615 32,126.9375 v 58.125 C 32,257.64309 42.3826,268 115.03125,268 H 152 V 44 Z"
         style="opacity:1;fill:#4d4d4d;fill-opacity:1;stroke:none;stroke-width:2;stroke-linecap:round;stroke-linejoin:round;stroke-miterlimit:4;stroke-dasharray:none;stroke-dashoffset:0;stroke-opacity:1"
         inkscape:connector-curvature="0" />
    </clipPath>
    <clipPath
       clipPathUnits="userSpaceOnUse"
       id="clipPath1082-3-62">
      <path
         sodipodi:nodetypes="sssssssss"
         inkscape:connector-curvature="0"
         id="path1084-6-61"
         d="M 361.9375,-212 C 507.2348,-212 528,-191.28677 528,-46.125 V 70.125 C 528,215.28618 507.2348,236 361.9375,236 H 214.0625 C 68.7652,236 48,215.28618 48,70.125 V -46.125 C 48,-191.28677 68.7652,-212 214.0625,-212 Z"
         style="display:inline;opacity:1;fill:#8c59d9;fill-opacity:1;stroke:none;stroke-width:2;stroke-linecap:round;stroke-linejoin:round;stroke-miterlimit:4;stroke-dasharray:none;stroke-dashoffset:0;stroke-opacity:1;enable-background:new" />
    </clipPath>
    <clipPath
       clipPathUnits="userSpaceOnUse"
       id="clipPath949">
      <path
         sodipodi:nodetypes="sssssssss"
         inkscape:connector-curvature="0"
         id="path951"
         d="M 329.9375,32 C 475.2348,32 496,52.71323 496,197.875 v 116.25 C 496,459.28618 475.2348,480 329.9375,480 H 182.0625 C 36.7652,480 16,459.28618 16,314.125 V 197.875 C 16,52.71323 36.7652,32 182.0625,32 Z"
         style="opacity:1;fill:#eab305;fill-opacity:1;stroke:none;stroke-width:4;stroke-linecap:round;stroke-linejoin:round;stroke-miterlimit:4;stroke-dasharray:none;stroke-dashoffset:0;stroke-opacity:1" />
    </clipPath>
    <clipPath
       clipPathUnits="userSpaceOnUse"
       id="clipPath954">
      <path
         sodipodi:nodetypes="sssssssss"
         inkscape:connector-curvature="0"
         id="path952"
         d="M 329.9375,32 C 475.2348,32 496,52.71323 496,197.875 v 116.25 C 496,459.28618 475.2348,480 329.9375,480 H 182.0625 C 36.7652,480 16,459.28618 16,314.125 V 197.875 C 16,52.71323 36.7652,32 182.0625,32 Z"
         style="opacity:1;fill:#eab305;fill-opacity:1;stroke:none;stroke-width:4;stroke-linecap:round;stroke-linejoin:round;stroke-miterlimit:4;stroke-dasharray:none;stroke-dashoffset:0;stroke-opacity:1" />
    </clipPath>
    <clipPath
       clipPathUnits="userSpaceOnUse"
       id="clipPath1082-3-8">
      <path
         sodipodi:nodetypes="sssssssss"
         inkscape:connector-curvature="0"
         id="path1084-6-7"
         d="M 361.9375,-212 C 507.2348,-212 528,-191.28677 528,-46.125 V 70.125 C 528,215.28618 507.2348,236 361.9375,236 H 214.0625 C 68.7652,236 48,215.28618 48,70.125 V -46.125 C 48,-191.28677 68.7652,-212 214.0625,-212 Z"
         style="display:inline;opacity:1;fill:#8c59d9;fill-opacity:1;stroke:none;stroke-width:2;stroke-linecap:round;stroke-linejoin:round;stroke-miterlimit:4;stroke-dasharray:none;stroke-dashoffset:0;stroke-opacity:1;enable-background:new" />
    </clipPath>
    <clipPath
       clipPathUnits="userSpaceOnUse"
       id="clipPath1082-3-92">
      <path
         sodipodi:nodetypes="sssssssss"
         inkscape:connector-curvature="0"
         id="path1084-6-02"
         d="M 361.9375,-212 C 507.2348,-212 528,-191.28677 528,-46.125 V 70.125 C 528,215.28618 507.2348,236 361.9375,236 H 214.0625 C 68.7652,236 48,215.28618 48,70.125 V -46.125 C 48,-191.28677 68.7652,-212 214.0625,-212 Z"
         style="display:inline;opacity:1;fill:#8c59d9;fill-opacity:1;stroke:none;stroke-width:2;stroke-linecap:round;stroke-linejoin:round;stroke-miterlimit:4;stroke-dasharray:none;stroke-dashoffset:0;stroke-opacity:1;enable-background:new" />
    </clipPath>
    <clipPath
       clipPathUnits="userSpaceOnUse"
       id="clipPath1082">
      <path
         sodipodi:nodetypes="sssssssss"
         inkscape:connector-curvature="0"
         id="path1084"
         d="M 361.9375,-212 C 507.2348,-212 528,-191.28677 528,-46.125 V 70.125 C 528,215.28618 507.2348,236 361.9375,236 H 214.0625 C 68.7652,236 48,215.28618 48,70.125 V -46.125 C 48,-191.28677 68.7652,-212 214.0625,-212 Z"
         style="display:inline;opacity:1;fill:#8c59d9;fill-opacity:1;stroke:none;stroke-width:2;stroke-linecap:round;stroke-linejoin:round;stroke-miterlimit:4;stroke-dasharray:none;stroke-dashoffset:0;stroke-opacity:1;enable-background:new" />
    </clipPath>
    <clipPath
       clipPathUnits="userSpaceOnUse"
       id="clipPath1082-3-361">
      <path
         sodipodi:nodetypes="sssssssss"
         inkscape:connector-curvature="0"
         id="path1084-6-29"
         d="M 361.9375,-212 C 507.2348,-212 528,-191.28677 528,-46.125 V 70.125 C 528,215.28618 507.2348,236 361.9375,236 H 214.0625 C 68.7652,236 48,215.28618 48,70.125 V -46.125 C 48,-191.28677 68.7652,-212 214.0625,-212 Z"
         style="display:inline;opacity:1;fill:#8c59d9;fill-opacity:1;stroke:none;stroke-width:2;stroke-linecap:round;stroke-linejoin:round;stroke-miterlimit:4;stroke-dasharray:none;stroke-dashoffset:0;stroke-opacity:1;enable-background:new" />
    </clipPath>
    <clipPath
       clipPathUnits="userSpaceOnUse"
       id="clipPath1079">
      <circle
         cx="213.84277"
         cy="146"
         r="55"
         style="color:#000000;display:inline;overflow:visible;visibility:visible;opacity:1;fill:url(#linearGradient1083);fill-opacity:1;fill-rule:nonzero;stroke:none;stroke-width:7.99999952;stroke-linecap:butt;stroke-linejoin:miter;stroke-miterlimit:4;stroke-dasharray:none;stroke-dashoffset:0;stroke-opacity:1;marker:none;enable-background:accumulate"
         id="circle1081"
         transform="scale(-1,1)" />
    </clipPath>
    <clipPath
       clipPathUnits="userSpaceOnUse"
       id="clipPath984">
      <circle
         cx="213.84277"
         cy="146"
         r="55"
         style="color:#000000;display:inline;overflow:visible;visibility:visible;opacity:1;fill:url(#linearGradient1083);fill-opacity:1;fill-rule:nonzero;stroke:none;stroke-width:7.99999952;stroke-linecap:butt;stroke-linejoin:miter;stroke-miterlimit:4;stroke-dasharray:none;stroke-dashoffset:0;stroke-opacity:1;marker:none;enable-background:accumulate"
         id="circle982"
         transform="scale(-1,1)" />
    </clipPath>
    <clipPath
       clipPathUnits="userSpaceOnUse"
       id="clipPath988">
      <circle
         cx="213.84277"
         cy="146"
         r="55"
         style="color:#000000;display:inline;overflow:visible;visibility:visible;opacity:1;fill:url(#linearGradient1083);fill-opacity:1;fill-rule:nonzero;stroke:none;stroke-width:7.99999952;stroke-linecap:butt;stroke-linejoin:miter;stroke-miterlimit:4;stroke-dasharray:none;stroke-dashoffset:0;stroke-opacity:1;marker:none;enable-background:accumulate"
         id="circle986"
         transform="scale(-1,1)" />
    </clipPath>
    <clipPath
       clipPathUnits="userSpaceOnUse"
       id="clipPath992">
      <circle
         cx="213.84277"
         cy="146"
         r="55"
         style="color:#000000;display:inline;overflow:visible;visibility:visible;opacity:1;fill:url(#linearGradient1083);fill-opacity:1;fill-rule:nonzero;stroke:none;stroke-width:7.99999952;stroke-linecap:butt;stroke-linejoin:miter;stroke-miterlimit:4;stroke-dasharray:none;stroke-dashoffset:0;stroke-opacity:1;marker:none;enable-background:accumulate"
         id="circle990"
         transform="scale(-1,1)" />
    </clipPath>
    <clipPath
       clipPathUnits="userSpaceOnUse"
       id="clipPath1082-3-31">
      <path
         sodipodi:nodetypes="sssssssss"
         inkscape:connector-curvature="0"
         id="path1084-6-9"
         d="M 361.9375,-212 C 507.2348,-212 528,-191.28677 528,-46.125 V 70.125 C 528,215.28618 507.2348,236 361.9375,236 H 214.0625 C 68.7652,236 48,215.28618 48,70.125 V -46.125 C 48,-191.28677 68.7652,-212 214.0625,-212 Z"
         style="display:inline;opacity:1;fill:#8c59d9;fill-opacity:1;stroke:none;stroke-width:2;stroke-linecap:round;stroke-linejoin:round;stroke-miterlimit:4;stroke-dasharray:none;stroke-dashoffset:0;stroke-opacity:1;enable-background:new" />
    </clipPath>
    <clipPath
       clipPathUnits="userSpaceOnUse"
       id="clipPath1205">
      <path
         id="path1207"
         d="M 115.03125,44 C 42.3826,44 32,54.356615 32,126.9375 v 58.125 c 0,13.772 0.379014,25.29352 1.482422,34.9375 H 270.51758 C 271.62099,210.35602 272,198.8345 272,185.0625 v -58.125 C 272,54.356615 261.6174,44 188.96875,44 Z"
         style="opacity:1;fill:#f1f0e9;fill-opacity:1;stroke:none;stroke-width:2;stroke-linecap:round;stroke-linejoin:round;stroke-miterlimit:4;stroke-dasharray:none;stroke-dashoffset:0;stroke-opacity:1"
         inkscape:connector-curvature="0" />
    </clipPath>
    <clipPath
       clipPathUnits="userSpaceOnUse"
       id="clipPath1082-3-4">
      <path
         sodipodi:nodetypes="sssssssss"
         inkscape:connector-curvature="0"
         id="path1084-6-78"
         d="M 361.9375,-212 C 507.2348,-212 528,-191.28677 528,-46.125 V 70.125 C 528,215.28618 507.2348,236 361.9375,236 H 214.0625 C 68.7652,236 48,215.28618 48,70.125 V -46.125 C 48,-191.28677 68.7652,-212 214.0625,-212 Z"
         style="display:inline;opacity:1;fill:#8c59d9;fill-opacity:1;stroke:none;stroke-width:2;stroke-linecap:round;stroke-linejoin:round;stroke-miterlimit:4;stroke-dasharray:none;stroke-dashoffset:0;stroke-opacity:1;enable-background:new" />
    </clipPath>
    <clipPath
       clipPathUnits="userSpaceOnUse"
       id="clipPath1082-3-45">
      <path
         sodipodi:nodetypes="sssssssss"
         inkscape:connector-curvature="0"
         id="path1084-6-03"
         d="M 361.9375,-212 C 507.2348,-212 528,-191.28677 528,-46.125 V 70.125 C 528,215.28618 507.2348,236 361.9375,236 H 214.0625 C 68.7652,236 48,215.28618 48,70.125 V -46.125 C 48,-191.28677 68.7652,-212 214.0625,-212 Z"
         style="display:inline;opacity:1;fill:#8c59d9;fill-opacity:1;stroke:none;stroke-width:2;stroke-linecap:round;stroke-linejoin:round;stroke-miterlimit:4;stroke-dasharray:none;stroke-dashoffset:0;stroke-opacity:1;enable-background:new" />
    </clipPath>
    <clipPath
       clipPathUnits="userSpaceOnUse"
       id="clipPath1082-3-61">
      <path
         sodipodi:nodetypes="sssssssss"
         inkscape:connector-curvature="0"
         id="path1084-6-06"
         d="M 361.9375,-212 C 507.2348,-212 528,-191.28677 528,-46.125 V 70.125 C 528,215.28618 507.2348,236 361.9375,236 H 214.0625 C 68.7652,236 48,215.28618 48,70.125 V -46.125 C 48,-191.28677 68.7652,-212 214.0625,-212 Z"
         style="display:inline;opacity:1;fill:#8c59d9;fill-opacity:1;stroke:none;stroke-width:2;stroke-linecap:round;stroke-linejoin:round;stroke-miterlimit:4;stroke-dasharray:none;stroke-dashoffset:0;stroke-opacity:1;enable-background:new" />
    </clipPath>
    <clipPath
       clipPathUnits="userSpaceOnUse"
       id="clipPath1064">
      <path
         style="opacity:1;fill:#a3dbf0;fill-opacity:1;stroke:none;stroke-width:2;stroke-linecap:round;stroke-linejoin:round;stroke-miterlimit:4;stroke-dasharray:none;stroke-dashoffset:0;stroke-opacity:1"
         d="M 115.03125,44 C 42.3826,44 32,54.356615 32,126.9375 v 58.125 c 0,10.16582 0.217657,19.07051 0.767578,26.9375 3.376331,48.30069 19.790377,56 82.263672,56 h 73.9375 c 62.4733,0 78.88734,-7.69931 82.26367,-56 C 271.78234,204.13301 272,195.22832 272,185.0625 v -58.125 C 272,54.356615 261.6174,44 188.96875,44 Z"
         id="path1066"
         inkscape:connector-curvature="0" />
    </clipPath>
    <clipPath
       clipPathUnits="userSpaceOnUse"
       id="clipPath1082-3-32">
      <path
         sodipodi:nodetypes="sssssssss"
         inkscape:connector-curvature="0"
         id="path1084-6-061"
         d="M 361.9375,-212 C 507.2348,-212 528,-191.28677 528,-46.125 V 70.125 C 528,215.28618 507.2348,236 361.9375,236 H 214.0625 C 68.7652,236 48,215.28618 48,70.125 V -46.125 C 48,-191.28677 68.7652,-212 214.0625,-212 Z"
         style="display:inline;opacity:1;fill:#8c59d9;fill-opacity:1;stroke:none;stroke-width:2;stroke-linecap:round;stroke-linejoin:round;stroke-miterlimit:4;stroke-dasharray:none;stroke-dashoffset:0;stroke-opacity:1;enable-background:new" />
    </clipPath>
    <clipPath
       clipPathUnits="userSpaceOnUse"
       id="clipPath947">
      <path
         sodipodi:nodetypes="sssssssss"
         inkscape:connector-curvature="0"
         id="path949"
         d="m 191.43333,45.066672 c 77.49189,0 88.56666,11.047056 88.56666,88.466668 v 62 C 279.99999,272.95263 268.92522,284 191.43333,284 H 112.56666 C 35.074773,284 23.999999,272.95263 23.999999,195.53334 v -62 c 0,-77.419612 11.074774,-88.466668 88.566661,-88.466668 z"
         style="opacity:1;fill:#a4c1f9;fill-opacity:1;stroke:none;stroke-width:2;stroke-linecap:round;stroke-linejoin:round;stroke-miterlimit:4;stroke-dasharray:none;stroke-dashoffset:0;stroke-opacity:1" />
    </clipPath>
    <clipPath
       clipPathUnits="userSpaceOnUse"
       id="clipPath1082-3-55">
      <path
         sodipodi:nodetypes="sssssssss"
         inkscape:connector-curvature="0"
         id="path1084-6-4"
         d="M 361.9375,-212 C 507.2348,-212 528,-191.28677 528,-46.125 V 70.125 C 528,215.28618 507.2348,236 361.9375,236 H 214.0625 C 68.7652,236 48,215.28618 48,70.125 V -46.125 C 48,-191.28677 68.7652,-212 214.0625,-212 Z"
         style="display:inline;opacity:1;fill:#8c59d9;fill-opacity:1;stroke:none;stroke-width:2;stroke-linecap:round;stroke-linejoin:round;stroke-miterlimit:4;stroke-dasharray:none;stroke-dashoffset:0;stroke-opacity:1;enable-background:new" />
    </clipPath>
    <clipPath
       clipPathUnits="userSpaceOnUse"
       id="clipPath991">
      <path
         sodipodi:nodetypes="sssssssss"
         inkscape:connector-curvature="0"
         id="path993"
         d="M 188.96875,44 C 261.6174,44 272,54.356615 272,126.9375 v 58.125 C 272,257.64309 261.6174,268 188.96875,268 h -73.9375 C 42.3826,268 32,257.64309 32,185.0625 v -58.125 C 32,54.356615 42.3826,44 115.03125,44 Z"
         style="opacity:1;fill:#6dc7f1;fill-opacity:1;stroke:none;stroke-width:2;stroke-linecap:round;stroke-linejoin:round;stroke-miterlimit:4;stroke-dasharray:none;stroke-dashoffset:0;stroke-opacity:1" />
    </clipPath>
    <clipPath
       clipPathUnits="userSpaceOnUse"
       id="clipPath978">
      <path
         sodipodi:nodetypes="sssssssss"
         inkscape:connector-curvature="0"
         id="path976"
         d="M 188.96875,44 C 261.6174,44 272,54.356615 272,126.9375 v 58.125 C 272,257.64309 261.6174,268 188.96875,268 h -73.9375 C 42.3826,268 32,257.64309 32,185.0625 v -58.125 C 32,54.356615 42.3826,44 115.03125,44 Z"
         style="opacity:1;fill:#6dc7f1;fill-opacity:1;stroke:none;stroke-width:2;stroke-linecap:round;stroke-linejoin:round;stroke-miterlimit:4;stroke-dasharray:none;stroke-dashoffset:0;stroke-opacity:1" />
    </clipPath>
    <clipPath
       clipPathUnits="userSpaceOnUse"
       id="clipPath942">
      <path
         sodipodi:nodetypes="sssssssss"
         inkscape:connector-curvature="0"
         id="path944"
         d="M 188.96875,44 C 261.6174,44 272,54.356615 272,126.9375 v 58.125 C 272,257.64309 261.6174,268 188.96875,268 h -73.9375 C 42.3826,268 32,257.64309 32,185.0625 v -58.125 C 32,54.356615 42.3826,44 115.03125,44 Z"
         style="display:inline;opacity:1;fill:#46a926;fill-opacity:1;stroke:none;stroke-width:2;stroke-linecap:round;stroke-linejoin:round;stroke-miterlimit:4;stroke-dasharray:none;stroke-dashoffset:0;stroke-opacity:1;enable-background:new" />
    </clipPath>
    <clipPath
       clipPathUnits="userSpaceOnUse"
       id="clipPath1082-3-7">
      <path
         sodipodi:nodetypes="sssssssss"
         inkscape:connector-curvature="0"
         id="path1084-6-65"
         d="M 361.9375,-212 C 507.2348,-212 528,-191.28677 528,-46.125 V 70.125 C 528,215.28618 507.2348,236 361.9375,236 H 214.0625 C 68.7652,236 48,215.28618 48,70.125 V -46.125 C 48,-191.28677 68.7652,-212 214.0625,-212 Z"
         style="display:inline;opacity:1;fill:#8c59d9;fill-opacity:1;stroke:none;stroke-width:2;stroke-linecap:round;stroke-linejoin:round;stroke-miterlimit:4;stroke-dasharray:none;stroke-dashoffset:0;stroke-opacity:1;enable-background:new" />
    </clipPath>
    <radialGradient
       id="radialGradient3322"
       gradientUnits="userSpaceOnUse"
       cy="-2.0645001"
       cx="26.617001"
       gradientTransform="matrix(-4.8906e-8,-2.8515,3.7557,0,674.00149,398.26285)"
       r="23">
      <stop
         id="stop2749"
         style="stop-color:#d280b9;stop-opacity:1"
         offset="0" />
      <stop
         offset="0.52913231"
         style="stop-color:#b549b5;stop-opacity:1"
         id="stop4269" />
      <stop
         id="stop2755"
         style="stop-color:#8940a8;stop-opacity:1"
         offset="1" />
    </radialGradient>
    <clipPath
       clipPathUnits="userSpaceOnUse"
       id="clipPath1082-3-69">
      <path
         sodipodi:nodetypes="sssssssss"
         inkscape:connector-curvature="0"
         id="path1084-6-37"
         d="M 361.9375,-212 C 507.2348,-212 528,-191.28677 528,-46.125 V 70.125 C 528,215.28618 507.2348,236 361.9375,236 H 214.0625 C 68.7652,236 48,215.28618 48,70.125 V -46.125 C 48,-191.28677 68.7652,-212 214.0625,-212 Z"
         style="display:inline;opacity:1;fill:#8c59d9;fill-opacity:1;stroke:none;stroke-width:2;stroke-linecap:round;stroke-linejoin:round;stroke-miterlimit:4;stroke-dasharray:none;stroke-dashoffset:0;stroke-opacity:1;enable-background:new" />
    </clipPath>
    <clipPath
       clipPathUnits="userSpaceOnUse"
       id="clipPath1082-3-452">
      <path
         sodipodi:nodetypes="sssssssss"
         inkscape:connector-curvature="0"
         id="path1084-6-54"
         d="M 361.9375,-212 C 507.2348,-212 528,-191.28677 528,-46.125 V 70.125 C 528,215.28618 507.2348,236 361.9375,236 H 214.0625 C 68.7652,236 48,215.28618 48,70.125 V -46.125 C 48,-191.28677 68.7652,-212 214.0625,-212 Z"
         style="display:inline;opacity:1;fill:#8c59d9;fill-opacity:1;stroke:none;stroke-width:2;stroke-linecap:round;stroke-linejoin:round;stroke-miterlimit:4;stroke-dasharray:none;stroke-dashoffset:0;stroke-opacity:1;enable-background:new" />
    </clipPath>
    <clipPath
       clipPathUnits="userSpaceOnUse"
       id="clipPath1082-3-74">
      <path
         sodipodi:nodetypes="sssssssss"
         inkscape:connector-curvature="0"
         id="path1084-6-43"
         d="M 361.9375,-212 C 507.2348,-212 528,-191.28677 528,-46.125 V 70.125 C 528,215.28618 507.2348,236 361.9375,236 H 214.0625 C 68.7652,236 48,215.28618 48,70.125 V -46.125 C 48,-191.28677 68.7652,-212 214.0625,-212 Z"
         style="display:inline;opacity:1;fill:#8c59d9;fill-opacity:1;stroke:none;stroke-width:2;stroke-linecap:round;stroke-linejoin:round;stroke-miterlimit:4;stroke-dasharray:none;stroke-dashoffset:0;stroke-opacity:1;enable-background:new" />
    </clipPath>
    <clipPath
       clipPathUnits="userSpaceOnUse"
       id="clipPath1032">
      <path
         sodipodi:nodetypes="sssssssss"
         inkscape:connector-curvature="0"
         id="path1034"
         d="M 188.96875,44 C 261.6174,44 272,54.356615 272,126.9375 v 58.125 C 272,257.64309 261.6174,268 188.96875,268 h -73.9375 C 42.3826,268 32,257.64309 32,185.0625 v -58.125 C 32,54.356615 42.3826,44 115.03125,44 Z"
         style="opacity:1;fill:#76c22b;fill-opacity:1;stroke:none;stroke-width:2;stroke-linecap:round;stroke-linejoin:round;stroke-miterlimit:4;stroke-dasharray:none;stroke-dashoffset:0;stroke-opacity:1" />
    </clipPath>
    <clipPath
       clipPathUnits="userSpaceOnUse"
       id="clipPath1082-3-0">
      <path
         sodipodi:nodetypes="sssssssss"
         inkscape:connector-curvature="0"
         id="path1084-6-786"
         d="M 361.9375,-212 C 507.2348,-212 528,-191.28677 528,-46.125 V 70.125 C 528,215.28618 507.2348,236 361.9375,236 H 214.0625 C 68.7652,236 48,215.28618 48,70.125 V -46.125 C 48,-191.28677 68.7652,-212 214.0625,-212 Z"
         style="display:inline;opacity:1;fill:#8c59d9;fill-opacity:1;stroke:none;stroke-width:2;stroke-linecap:round;stroke-linejoin:round;stroke-miterlimit:4;stroke-dasharray:none;stroke-dashoffset:0;stroke-opacity:1;enable-background:new" />
    </clipPath>
    <clipPath
       clipPathUnits="userSpaceOnUse"
       id="clipPath1082-3-89">
      <path
         sodipodi:nodetypes="sssssssss"
         inkscape:connector-curvature="0"
         id="path1084-6-26"
         d="M 361.9375,-212 C 507.2348,-212 528,-191.28677 528,-46.125 V 70.125 C 528,215.28618 507.2348,236 361.9375,236 H 214.0625 C 68.7652,236 48,215.28618 48,70.125 V -46.125 C 48,-191.28677 68.7652,-212 214.0625,-212 Z"
         style="display:inline;opacity:1;fill:#8c59d9;fill-opacity:1;stroke:none;stroke-width:2;stroke-linecap:round;stroke-linejoin:round;stroke-miterlimit:4;stroke-dasharray:none;stroke-dashoffset:0;stroke-opacity:1;enable-background:new" />
    </clipPath>
    <clipPath
       clipPathUnits="userSpaceOnUse"
       id="clipPath951">
      <path
         style="opacity:1;fill:#8c59d9;fill-opacity:1;stroke:none;stroke-width:2;stroke-linecap:round;stroke-linejoin:round;stroke-miterlimit:4;stroke-dasharray:none;stroke-dashoffset:0;stroke-opacity:1"
         d="M 188.96875,44 C 261.6174,44 272,54.356615 272,126.9375 v 58.125 C 272,257.64309 261.6174,268 188.96875,268 h -73.9375 C 42.3826,268 32,257.64309 32,185.0625 v -58.125 C 32,54.356615 42.3826,44 115.03125,44 Z"
         id="path953"
         inkscape:connector-curvature="0"
         sodipodi:nodetypes="sssssssss" />
    </clipPath>
    <clipPath
       clipPathUnits="userSpaceOnUse"
       id="clipPath1082-3-64">
      <path
         sodipodi:nodetypes="sssssssss"
         inkscape:connector-curvature="0"
         id="path1084-6-95"
         d="M 361.9375,-212 C 507.2348,-212 528,-191.28677 528,-46.125 V 70.125 C 528,215.28618 507.2348,236 361.9375,236 H 214.0625 C 68.7652,236 48,215.28618 48,70.125 V -46.125 C 48,-191.28677 68.7652,-212 214.0625,-212 Z"
         style="display:inline;opacity:1;fill:#8c59d9;fill-opacity:1;stroke:none;stroke-width:2;stroke-linecap:round;stroke-linejoin:round;stroke-miterlimit:4;stroke-dasharray:none;stroke-dashoffset:0;stroke-opacity:1;enable-background:new" />
    </clipPath>
    <clipPath
       clipPathUnits="userSpaceOnUse"
       id="clipPath1082-3-04">
      <path
         sodipodi:nodetypes="sssssssss"
         inkscape:connector-curvature="0"
         id="path1084-6-8"
         d="M 361.9375,-212 C 507.2348,-212 528,-191.28677 528,-46.125 V 70.125 C 528,215.28618 507.2348,236 361.9375,236 H 214.0625 C 68.7652,236 48,215.28618 48,70.125 V -46.125 C 48,-191.28677 68.7652,-212 214.0625,-212 Z"
         style="display:inline;opacity:1;fill:#8c59d9;fill-opacity:1;stroke:none;stroke-width:2;stroke-linecap:round;stroke-linejoin:round;stroke-miterlimit:4;stroke-dasharray:none;stroke-dashoffset:0;stroke-opacity:1;enable-background:new" />
    </clipPath>
    <clipPath
       clipPathUnits="userSpaceOnUse"
       id="clipPath1082-3-1">
      <path
         sodipodi:nodetypes="sssssssss"
         inkscape:connector-curvature="0"
         id="path1084-6-72"
         d="M 361.9375,-212 C 507.2348,-212 528,-191.28677 528,-46.125 V 70.125 C 528,215.28618 507.2348,236 361.9375,236 H 214.0625 C 68.7652,236 48,215.28618 48,70.125 V -46.125 C 48,-191.28677 68.7652,-212 214.0625,-212 Z"
         style="display:inline;opacity:1;fill:#8c59d9;fill-opacity:1;stroke:none;stroke-width:2;stroke-linecap:round;stroke-linejoin:round;stroke-miterlimit:4;stroke-dasharray:none;stroke-dashoffset:0;stroke-opacity:1;enable-background:new" />
    </clipPath>
    <clipPath
       clipPathUnits="userSpaceOnUse"
       id="clipPath936">
      <path
         sodipodi:nodetypes="sssssssss"
         inkscape:connector-curvature="0"
         id="path938"
         d="M 329.9375,16 C 475.2348,16 496,36.71323 496,181.875 v 116.25 C 496,443.28618 475.2348,464 329.9375,464 H 182.0625 C 36.7652,464 16,443.28618 16,298.125 V 181.875 C 16,36.71323 36.7652,16 182.0625,16 Z"
         style="opacity:1;fill:#438ae9;fill-opacity:1;stroke:none;stroke-width:2;stroke-linecap:round;stroke-linejoin:round;stroke-miterlimit:4;stroke-dasharray:none;stroke-dashoffset:0;stroke-opacity:1" />
    </clipPath>
    <clipPath
       clipPathUnits="userSpaceOnUse"
       id="clipPath989">
      <path
         sodipodi:nodetypes="sssssssss"
         inkscape:connector-curvature="0"
         id="path991"
         d="M 115.03124,43.99999 C 42.382604,44 32.000014,54.35661 32.000004,126.9375 v 58.12499 c 0,72.5806 10.38261,82.9375 83.031236,82.9375 h 73.93752 C 261.6174,267.99999 272,257.64307 272,185.06249 V 126.9375 C 272,54.35661 261.6174,44 188.96875,44 Z"
         style="display:inline;opacity:1;fill:url(#linearGradient993);fill-opacity:1;stroke:none;stroke-width:2;stroke-linecap:round;stroke-linejoin:round;stroke-miterlimit:4;stroke-dasharray:none;stroke-dashoffset:0;stroke-opacity:1;enable-background:new" />
    </clipPath>
    <clipPath
       clipPathUnits="userSpaceOnUse"
       id="clipPath1082-3-72">
      <path
         sodipodi:nodetypes="sssssssss"
         inkscape:connector-curvature="0"
         id="path1084-6-261"
         d="M 361.9375,-212 C 507.2348,-212 528,-191.28677 528,-46.125 V 70.125 C 528,215.28618 507.2348,236 361.9375,236 H 214.0625 C 68.7652,236 48,215.28618 48,70.125 V -46.125 C 48,-191.28677 68.7652,-212 214.0625,-212 Z"
         style="display:inline;opacity:1;fill:#8c59d9;fill-opacity:1;stroke:none;stroke-width:2;stroke-linecap:round;stroke-linejoin:round;stroke-miterlimit:4;stroke-dasharray:none;stroke-dashoffset:0;stroke-opacity:1;enable-background:new" />
    </clipPath>
    <clipPath
       clipPathUnits="userSpaceOnUse"
       id="clipPath1082-3-06">
      <path
         sodipodi:nodetypes="sssssssss"
         inkscape:connector-curvature="0"
         id="path1084-6-1"
         d="M 361.9375,-212 C 507.2348,-212 528,-191.28677 528,-46.125 V 70.125 C 528,215.28618 507.2348,236 361.9375,236 H 214.0625 C 68.7652,236 48,215.28618 48,70.125 V -46.125 C 48,-191.28677 68.7652,-212 214.0625,-212 Z"
         style="display:inline;opacity:1;fill:#8c59d9;fill-opacity:1;stroke:none;stroke-width:2;stroke-linecap:round;stroke-linejoin:round;stroke-miterlimit:4;stroke-dasharray:none;stroke-dashoffset:0;stroke-opacity:1;enable-background:new" />
    </clipPath>
    <clipPath
       clipPathUnits="userSpaceOnUse"
       id="clipPath1082-3-59">
      <path
         sodipodi:nodetypes="sssssssss"
         inkscape:connector-curvature="0"
         id="path1084-6-49"
         d="M 361.9375,-212 C 507.2348,-212 528,-191.28677 528,-46.125 V 70.125 C 528,215.28618 507.2348,236 361.9375,236 H 214.0625 C 68.7652,236 48,215.28618 48,70.125 V -46.125 C 48,-191.28677 68.7652,-212 214.0625,-212 Z"
         style="display:inline;opacity:1;fill:#8c59d9;fill-opacity:1;stroke:none;stroke-width:2;stroke-linecap:round;stroke-linejoin:round;stroke-miterlimit:4;stroke-dasharray:none;stroke-dashoffset:0;stroke-opacity:1;enable-background:new" />
    </clipPath>
    <clipPath
       clipPathUnits="userSpaceOnUse"
       id="clipPath1221">
      <path
         sodipodi:nodetypes="sssssssss"
         inkscape:connector-curvature="0"
         id="path1223"
         d="M 188.96875,44 C 261.6174,44 272,54.356615 272,126.9375 v 58.125 C 272,257.64309 261.6174,268 188.96875,268 h -73.9375 C 42.3826,268 32,257.64309 32,185.0625 v -58.125 C 32,54.356615 42.3826,44 115.03125,44 Z"
         style="display:inline;opacity:0.1;fill:#da1636;fill-opacity:1;stroke:none;stroke-width:2;stroke-linecap:round;stroke-linejoin:round;stroke-miterlimit:4;stroke-dasharray:none;stroke-dashoffset:0;stroke-opacity:1;enable-background:new" />
    </clipPath>
    <clipPath
       clipPathUnits="userSpaceOnUse"
       id="clipPath936-0">
      <path
         sodipodi:nodetypes="sssssssss"
         inkscape:connector-curvature="0"
         id="path938-9"
         d="M 329.9375,16 C 475.2348,16 496,36.71323 496,181.875 v 116.25 C 496,443.28618 475.2348,464 329.9375,464 H 182.0625 C 36.7652,464 16,443.28618 16,298.125 V 181.875 C 16,36.71323 36.7652,16 182.0625,16 Z"
         style="opacity:1;fill:#438ae9;fill-opacity:1;stroke:none;stroke-width:2;stroke-linecap:round;stroke-linejoin:round;stroke-miterlimit:4;stroke-dasharray:none;stroke-dashoffset:0;stroke-opacity:1" />
    </clipPath>
    <clipPath
       clipPathUnits="userSpaceOnUse"
       id="clipPath1082-3-77">
      <path
         sodipodi:nodetypes="sssssssss"
         inkscape:connector-curvature="0"
         id="path1084-6-11"
         d="M 361.9375,-212 C 507.2348,-212 528,-191.28677 528,-46.125 V 70.125 C 528,215.28618 507.2348,236 361.9375,236 H 214.0625 C 68.7652,236 48,215.28618 48,70.125 V -46.125 C 48,-191.28677 68.7652,-212 214.0625,-212 Z"
         style="display:inline;opacity:1;fill:#8c59d9;fill-opacity:1;stroke:none;stroke-width:2;stroke-linecap:round;stroke-linejoin:round;stroke-miterlimit:4;stroke-dasharray:none;stroke-dashoffset:0;stroke-opacity:1;enable-background:new" />
    </clipPath>
    <clipPath
       clipPathUnits="userSpaceOnUse"
       id="clipPath1082-3-597">
      <path
         sodipodi:nodetypes="sssssssss"
         inkscape:connector-curvature="0"
         id="path1084-6-76"
         d="M 361.9375,-212 C 507.2348,-212 528,-191.28677 528,-46.125 V 70.125 C 528,215.28618 507.2348,236 361.9375,236 H 214.0625 C 68.7652,236 48,215.28618 48,70.125 V -46.125 C 48,-191.28677 68.7652,-212 214.0625,-212 Z"
         style="display:inline;opacity:1;fill:#8c59d9;fill-opacity:1;stroke:none;stroke-width:2;stroke-linecap:round;stroke-linejoin:round;stroke-miterlimit:4;stroke-dasharray:none;stroke-dashoffset:0;stroke-opacity:1;enable-background:new" />
    </clipPath>
    <linearGradient
       inkscape:collect="always"
       xlink:href="#linearGradient1013"
       id="linearGradient1108"
       x1="296"
       y1="-212"
       x2="296"
       y2="236"
       gradientUnits="userSpaceOnUse" />
    <linearGradient
       id="linearGradient1013"
       inkscape:collect="always">
      <stop
         id="stop1005"
         offset="0"
         style="stop-color:#ffffff;stop-opacity:1;" />
      <stop
         style="stop-color:#ffffff;stop-opacity:0.09803922"
         offset="0.125"
         id="stop1007" />
      <stop
         style="stop-color:#000000;stop-opacity:0.09803922"
         offset="0.92500001"
         id="stop1009" />
      <stop
         id="stop1011"
         offset="1"
         style="stop-color:#000000;stop-opacity:0.49803922" />
    </linearGradient>
    <clipPath
       clipPathUnits="userSpaceOnUse"
       id="clipPath1082-3-73">
      <path
         sodipodi:nodetypes="sssssssss"
         inkscape:connector-curvature="0"
         id="path1084-6-656"
         d="M 361.9375,-212 C 507.2348,-212 528,-191.28677 528,-46.125 V 70.125 C 528,215.28618 507.2348,236 361.9375,236 H 214.0625 C 68.7652,236 48,215.28618 48,70.125 V -46.125 C 48,-191.28677 68.7652,-212 214.0625,-212 Z"
         style="display:inline;opacity:1;fill:#8c59d9;fill-opacity:1;stroke:none;stroke-width:2;stroke-linecap:round;stroke-linejoin:round;stroke-miterlimit:4;stroke-dasharray:none;stroke-dashoffset:0;stroke-opacity:1;enable-background:new" />
    </clipPath>
    <linearGradient
       id="linearGradient7537">
      <stop
         style="stop-color:#f37e40;stop-opacity:1"
         offset="0"
         id="stop7539" />
      <stop
         style="stop-color:#f34f17;stop-opacity:1"
         offset="1"
         id="stop7541" />
    </linearGradient>
    <filter
       inkscape:collect="always"
       style="color-interpolation-filters:sRGB"
       id="filter971"
       x="-0.0116"
       width="1.0232"
       y="-0.012428571"
       height="1.024857">
      <feGaussianBlur
         inkscape:collect="always"
         stdDeviation="1.16"
         id="feGaussianBlur973" />
    </filter>
    <filter
       inkscape:collect="always"
       style="color-interpolation-filters:sRGB"
       id="filter977"
       x="-0.0232"
       width="1.0464"
       y="-0.024857143"
       height="1.0497143">
      <feGaussianBlur
         inkscape:collect="always"
         stdDeviation="2.32"
         id="feGaussianBlur979" />
    </filter>
    <filter
       inkscape:collect="always"
       style="color-interpolation-filters:sRGB"
       id="filter991"
       x="-0.048315986"
       width="1.096632"
       y="-0.04768812"
       height="1.0953762">
      <feGaussianBlur
         inkscape:collect="always"
         stdDeviation="0.79897445"
         id="feGaussianBlur993" />
    </filter>
    <clipPath
       clipPathUnits="userSpaceOnUse"
       id="clipPath1082-3-61-3">
      <path
         sodipodi:nodetypes="sssssssss"
         inkscape:connector-curvature="0"
         id="path1084-6-06-5"
         d="M 361.9375,-212 C 507.2348,-212 528,-191.28677 528,-46.125 V 70.125 C 528,215.28618 507.2348,236 361.9375,236 H 214.0625 C 68.7652,236 48,215.28618 48,70.125 V -46.125 C 48,-191.28677 68.7652,-212 214.0625,-212 Z"
         style="display:inline;opacity:1;fill:#8c59d9;fill-opacity:1;stroke:none;stroke-width:2;stroke-linecap:round;stroke-linejoin:round;stroke-miterlimit:4;stroke-dasharray:none;stroke-dashoffset:0;stroke-opacity:1;enable-background:new" />
    </clipPath>
  </defs>
  <sodipodi:namedview
     id="base"
     pagecolor="#ffffff"
     bordercolor="#666666"
     borderopacity="1.0"
     inkscape:pageopacity="0.0"
     inkscape:pageshadow="2"
     inkscape:zoom="2.4777994"
     inkscape:cx="144.99063"
     inkscape:cy="119.25979"
     inkscape:document-units="px"
     inkscape:current-layer="layer1"
     showgrid="false"
     units="px"
     inkscape:window-width="1920"
     inkscape:window-height="1009"
     inkscape:window-x="0"
     inkscape:window-y="34"
     inkscape:window-maximized="1">
    <inkscape:grid
       type="xygrid"
       id="grid2168" />
  </sodipodi:namedview>
  <metadata
     id="metadata1485">
    <rdf:RDF>
      <cc:Work
         rdf:about="">
        <dc:format>image/svg+xml</dc:format>
        <dc:type
           rdf:resource="http://purl.org/dc/dcmitype/StillImage" />
        <dc:title></dc:title>
      </cc:Work>
    </rdf:RDF>
  </metadata>
  <g
     inkscape:label="Livello 1"
     inkscape:groupmode="layer"
     id="layer1"
     transform="translate(0,-229.26666)">
    <path
       sodipodi:nodetypes="sssssssss"
       inkscape:connector-curvature="0"
       id="path975"
       d="m 188.96876,45.999995 c 72.64865,0 83.03125,10.356615 83.03125,82.937505 v 58.125 c 0,72.58059 -10.3826,82.9375 -83.03125,82.9375 h -73.9375 C 42.382606,270 32.000006,259.64309 32.000006,187.0625 v -58.125 c 0,-72.58089 10.3826,-82.937505 83.031254,-82.937505 z"
       style="display:inline;opacity:0.02000002;fill:#000000;fill-opacity:1;stroke:none;stroke-width:2;stroke-linecap:round;stroke-linejoin:round;stroke-miterlimit:4;stroke-dasharray:none;stroke-dashoffset:0;stroke-opacity:1;filter:url(#filter977);enable-background:new"
       transform="matrix(0.26970778,0,0,0.26970778,-7.1289177,220.56049)" />
    <path
       style="display:inline;opacity:0.1;fill:#000000;fill-opacity:1;stroke:none;stroke-width:2;stroke-linecap:round;stroke-linejoin:round;stroke-miterlimit:4;stroke-dasharray:none;stroke-dashoffset:0;stroke-opacity:1;filter:url(#filter971);enable-background:new"
       d="m 188.96876,43.999995 c 72.64865,0 83.03125,10.356615 83.03125,82.937505 v 58.125 c 0,72.58059 -10.3826,82.9375 -83.03125,82.9375 h -73.9375 C 42.382606,268 32.000006,257.64309 32.000006,185.0625 v -58.125 c 0,-72.58089 10.3826,-82.937505 83.031254,-82.937505 z"
       id="path4565"
       inkscape:connector-curvature="0"
       sodipodi:nodetypes="sssssssss"
       transform="matrix(0.26970778,0,0,0.26970778,-7.1289177,220.56049)" />
    <path
       style="display:inline;opacity:1;fill:#ff5900;fill-opacity:1;stroke:none;stroke-width:0.5394156;stroke-linecap:round;stroke-linejoin:round;stroke-miterlimit:4;stroke-dasharray:none;stroke-dashoffset:0;stroke-opacity:1;enable-background:new"
       d="m 43.837426,232.42763 c 19.593907,0 22.394175,2.79326 22.394175,22.36889 v 15.67677 c 0,19.57555 -2.800268,22.36888 -22.394175,22.36888 h -19.94152 c -19.5939065,0 -22.3941746,-2.79333 -22.3941746,-22.36888 v -15.67677 c 0,-19.57563 2.8002681,-22.36889 22.3941746,-22.36889 z"
       id="rect877"
       inkscape:connector-curvature="0"
       sodipodi:nodetypes="sssssssss" />
    <path
       style="display:inline;opacity:0.6;fill:#ffad67;fill-opacity:1;stroke:none;stroke-width:0.5394156;stroke-linecap:round;stroke-linejoin:round;stroke-miterlimit:4;stroke-dasharray:none;stroke-dashoffset:0;stroke-opacity:1;enable-background:new"
       d="m 1.5017314,268.02906 v 2.44423 c 0,19.57555 2.8002681,22.36888 22.3941746,22.36888 h 19.94152 c 19.593907,0 22.394175,-2.79333 22.394175,-22.36888 v -2.44423 z"
       id="path973"
       inkscape:connector-curvature="0"
       sodipodi:nodetypes="csssscc" />
    <path
       sodipodi:nodetypes="sssssssss"
       inkscape:connector-curvature="0"
       id="path1068"
       d="M 361.9375,-212 C 507.2348,-212 528,-191.28677 528,-46.125 V 70.125 C 528,215.28618 507.2348,236 361.9375,236 H 214.0625 C 68.7652,236 48,215.28618 48,70.125 V -46.125 C 48,-191.28677 68.7652,-212 214.0625,-212 Z"
       style="display:inline;opacity:0.4;fill:none;fill-opacity:1;stroke:url(#linearGradient1108);stroke-width:8;stroke-linecap:round;stroke-linejoin:round;stroke-miterlimit:4;stroke-dasharray:none;stroke-dashoffset:0;stroke-opacity:1;enable-background:new"
       clip-path="url(#clipPath1082-3-73)"
       transform="matrix(0.13485389,0,0,0.13485389,-4.9712556,261.01666)" />
    <path
       style="fill:#000000;stroke-width:0.01675746;filter:url(#filter991);opacity:0.3"
       d="m 32.687366,282.72617 c 0.05721,-0.008 0.09998,-0.0247 0.114425,-0.044 0.02967,-0.0395 0.01601,-0.15036 -0.02951,-0.23961 -0.03814,-0.0748 -0.04324,-0.12687 -0.01417,-0.14484 0.01082,-0.007 0.114502,-0.0178 0.230415,-0.0246 0.236935,-0.014 0.354751,-0.0457 0.444507,-0.11971 0.133065,-0.10968 0.15511,-0.27711 0.0613,-0.46554 -0.07347,-0.14759 -0.208389,-0.32039 -0.375122,-0.48046 -0.261589,-0.25114 -0.477479,-0.39123 -0.757806,-0.49175 -0.226158,-0.0811 -0.265011,-0.11614 -0.30832,-0.27814 -0.01014,-0.0379 -0.04874,-0.11332 -0.08578,-0.16757 -0.117939,-0.17271 -0.177216,-0.44557 -0.225292,-1.03705 -0.05237,-0.64425 -0.06236,-1.06294 -0.071,-2.97511 l -0.0088,-1.95291 0.100367,-0.20042 c 0.183406,-0.36625 0.350752,-0.73502 0.395134,-0.87073 0.07495,-0.22919 0.11291,-0.46839 0.162212,-1.0222 0.09054,-1.01701 0.189554,-1.33406 0.983882,-3.1504 0.668877,-1.52948 1.098386,-2.58643 1.361942,-3.3515 0.243868,-0.70791 0.445224,-1.12355 0.630803,-1.30207 0.0671,-0.0645 0.164103,-0.11393 0.223798,-0.11393 0.0972,0 0.245828,0.12836 0.368673,0.31839 0.12015,0.18587 0.375716,0.72718 0.542822,1.14975 0.300166,0.75905 0.539527,1.52426 0.762207,2.43671 0.289026,1.1843 0.447878,1.66027 0.802424,2.40433 0.260148,0.54595 0.298721,0.67486 0.355644,1.18846 0.06702,0.60472 0.19673,1.0923 0.396086,1.4889 0.07831,0.15578 0.14189,0.24782 0.257325,0.3725 0.142774,0.15421 0.160072,0.18611 0.218022,0.40218 0.02966,0.1106 0.150376,0.52911 0.26825,0.93004 0.337577,1.14819 0.554272,1.95131 0.802558,2.97444 0.143799,0.59257 0.256599,1.0072 0.364221,1.33878 0.115387,0.35553 0.123161,0.4361 0.07373,0.76429 -0.04135,0.27452 -0.03654,0.44228 0.01836,0.64035 0.100896,0.3641 0.3341,0.58351 0.726466,0.68351 0.301265,0.0768 0.503042,0.0905 1.340964,0.0914 0.823984,7.9e-4 0.930259,-0.006 1.141373,-0.0756 0.122375,-0.0402 0.22774,-0.12545 0.262464,-0.21225 0.01392,-0.0348 0.03075,-0.12146 0.03741,-0.19264 0.01476,-0.15753 0.03027,-0.17494 0.132853,-0.14911 0.08462,0.0213 0.143947,0.006 0.208008,-0.0535 0.1667,-0.15506 0.175566,-0.6229 0.01476,-0.77852 -0.124867,-0.12082 -0.323069,-0.16258 -0.891958,-0.18789 -0.58634,-0.0261 -0.789643,-0.0696 -1.077798,-0.23048 -0.174242,-0.0973 -0.306832,-0.21493 -0.355426,-0.31531 -0.02003,-0.0414 -0.05452,-0.16619 -0.07665,-0.27736 -0.02212,-0.11117 -0.05986,-0.25993 -0.08385,-0.33057 -0.06132,-0.18057 -0.296873,-0.66133 -0.568804,-1.16092 -0.411805,-0.75656 -0.549928,-1.08798 -0.711792,-1.7079 -0.05648,-0.2163 -0.203804,-0.74597 -0.327393,-1.17705 -0.123587,-0.43108 -0.240517,-0.86091 -0.259843,-0.95518 -0.05032,-0.24542 -0.05737,-0.48328 -0.03084,-1.03937 0.02796,-0.58582 0.02812,-1.01357 4.76e-4,-1.18481 -0.01116,-0.0691 -0.05753,-0.25764 -0.103041,-0.41893 -0.121563,-0.43085 -0.139627,-0.56051 -0.140085,-1.00545 -5.55e-4,-0.5096 0.04088,-0.91452 0.22445,-2.19523 0.188099,-1.31229 0.233765,-1.7839 0.245827,-2.53875 0.005,-0.31337 0.01421,-0.5753 0.02045,-0.58208 0.0062,-0.007 0.406966,-0.15119 0.890507,-0.32091 0.483545,-0.16972 0.984743,-0.34744 1.113775,-0.39494 1.120007,-0.4123 1.65169,-0.70586 2.207286,-1.21873 1.274604,-1.17659 2.09082,-2.87031 2.85111,-5.91633 0.372669,-1.49305 0.543592,-2.44653 0.630124,-3.51508 0.01659,-0.20478 0.03735,-0.65842 0.06782,-1.48128 0.03747,-1.01198 0.09367,-1.20802 0.586586,-2.04616 0.20732,-0.35252 0.413817,-0.7468 0.487088,-0.93004 0.02949,-0.0737 0.07138,-0.22455 0.0931,-0.33515 0.02172,-0.1106 0.04673,-0.21768 0.05557,-0.23796 0.01815,-0.0416 0.426723,-0.24681 0.763259,-0.38332 0.251751,-0.10212 0.752264,-0.34981 0.896499,-0.44365 0.05989,-0.039 0.165465,-0.11639 0.234603,-0.17204 0.06914,-0.0557 0.134205,-0.10755 0.14459,-0.11531 0.01143,-0.009 0.100531,0.0228 0.226165,0.0796 0.114007,0.0516 0.27141,0.11355 0.349782,0.13772 0.132027,0.0407 0.165894,0.044 0.460891,0.0447 0.358392,8e-4 0.492848,-0.0239 0.720564,-0.13288 0.252415,-0.12076 0.328372,-0.2156 0.361093,-0.45084 0.03116,-0.22404 -0.0019,-0.34831 -0.143188,-0.5398 -0.03564,-0.0483 -0.01929,-0.0795 0.07836,-0.14964 0.133945,-0.0962 0.156117,-0.16279 0.156117,-0.46865 0,-0.32673 -0.0071,-0.34245 -0.280636,-0.6254 -0.243924,-0.25229 -0.441036,-0.51058 -0.584147,-0.76547 -0.265287,-0.47249 -0.357685,-0.59723 -0.488325,-0.65922 -0.14872,-0.0706 -0.531048,-0.0975 -1.704197,-0.12024 -1.231511,-0.0238 -1.622761,-0.0521 -1.986487,-0.14366 -0.299664,-0.0754 -0.477581,-0.17667 -0.819777,-0.46655 -0.227954,-0.19309 -0.255421,-0.20085 -0.71366,-0.20164 -0.407289,-7.9e-4 -0.651534,0.0202 -1.005449,0.0859 -0.268957,0.0499 -0.428971,0.0541 -0.544615,0.0143 -0.04609,-0.0159 -0.178049,-0.0724 -0.293257,-0.12563 -0.115207,-0.0532 -0.247173,-0.10872 -0.293256,-0.12332 -0.327313,-0.10365 -0.618609,-0.0664 -0.86704,0.11087 -0.227502,0.16235 -0.381431,0.37658 -0.682955,0.95053 -0.104106,0.19815 -0.280128,0.52241 -0.391163,0.72057 -0.424085,0.75683 -0.558075,1.16444 -0.575641,1.75115 -0.01355,0.45226 0.02387,0.63783 0.260742,1.29324 0.128037,0.35427 0.127868,0.35246 0.127804,1.37957 -3.4e-5,0.58845 -0.0077,1.01163 -0.02159,1.18978 -0.07508,0.9645 -0.16374,1.75123 -0.263448,2.33767 -0.103838,0.61073 -0.173852,0.81111 -0.342913,0.98138 -0.212725,0.21426 -0.514652,0.28381 -1.23208,0.28381 -0.606136,0 -0.880859,-0.0439 -1.164939,-0.18611 -0.467767,-0.23417 -1.05297,-0.81625 -1.567954,-1.55958 -0.217842,-0.31444 -0.4117,-0.63184 -0.722711,-1.18328 -0.906466,-1.60724 -1.391159,-2.21909 -2.362811,-2.98268 -0.585472,-0.4601 -0.878547,-0.89778 -1.118988,-1.6711 -0.244509,-0.7864 -0.613101,-1.35064 -1.201124,-1.83868 -0.708171,-0.58775 -1.318584,-0.78861 -2.401911,-0.79033 -0.440671,-7.9e-4 -0.631414,0.0183 -0.917566,0.0914 -0.600405,0.1533 -1.005952,0.46112 -1.250415,0.94911 -0.09345,0.18654 -0.143197,0.38511 -0.322412,1.28691 -0.181,0.9108 -0.280623,1.26161 -0.46636,1.64223 -0.129439,0.26526 -0.270395,0.45993 -0.496659,0.68591 -0.274164,0.27382 -0.463838,0.36779 -0.631037,0.3126 -0.137342,-0.0453 -0.208526,-0.16225 -0.720084,-1.18284 -0.470321,-0.93832 -0.595019,-1.1753 -0.786225,-1.4942 -0.330092,-0.55053 -0.605947,-0.80012 -0.981734,-0.88827 -0.107969,-0.0253 -0.198454,-0.0304 -0.524288,-0.0293 -0.454462,0.002 -0.506428,0.0112 -0.846254,0.15707 -0.891858,0.38292 -1.584775,0.95009 -1.800826,1.47401 -0.114601,0.27792 -0.557072,1.66411 -0.820277,2.56981 -0.150085,0.51645 -0.210558,0.68452 -0.337457,0.93791 -0.160036,0.31955 -0.24401,0.42669 -0.653619,0.83392 -0.268888,0.26733 -0.422807,0.43556 -0.52896,0.57814 -0.387059,0.51985 -0.724324,1.13777 -1.127144,2.06507 -0.611658,1.40805 -0.823878,2.13112 -0.890974,3.03573 -0.02871,0.38711 -0.01151,1.26081 0.04279,2.17193 0.05398,0.90598 0.05181,1.28553 -0.0084,1.47465 -0.04438,0.13932 -0.177101,0.40925 -0.276026,0.56138 -0.132292,0.20345 -0.210283,0.26699 -0.821521,0.66927 -0.21735,0.14305 -0.415983,0.28906 -0.519483,0.38187 -0.434062,0.38923 -0.719926,0.87874 -0.757052,1.29636 -0.01225,0.13788 0.01415,0.22901 0.07049,0.24315 0.10723,0.0269 0.730298,-0.26818 1.497042,-0.70902 0.402198,-0.23125 0.640201,-0.38505 0.938596,-0.60652 0.302146,-0.22426 0.399954,-0.28511 0.478861,-0.29791 0.04674,-0.008 0.05972,-0.003 0.07706,0.0298 0.101753,0.19013 0.511765,1.86457 0.84442,3.44854 0.29812,1.41951 0.360768,1.91168 0.361098,2.83677 2.36e-4,0.72761 -0.04611,1.23883 -0.160676,1.77155 -0.100375,0.46671 -0.112286,0.60019 -0.101862,1.14139 0.0096,0.49603 0.02869,0.77152 0.153078,2.20361 0.119755,1.37877 0.142269,1.95117 0.111051,2.82363 -0.03549,0.99178 -0.174615,3.11846 -0.262007,4.00503 -0.05654,0.57356 -0.09758,0.77531 -0.224575,1.1039 -0.124439,0.32198 -0.169593,0.49051 -0.180153,0.67239 -0.01572,0.27066 0.0455,0.43591 0.229685,0.62009 0.228865,0.22887 0.552868,0.29284 1.281877,0.25312 0.989447,-0.0539 1.146601,-0.099 1.0966,-0.31447 -0.0249,-0.10729 -0.01937,-0.1702 0.01667,-0.18949 0.01783,-0.01 0.09512,-0.0174 0.171763,-0.0174 0.180586,-1.6e-4 0.329536,-0.0251 0.382243,-0.064 0.0231,-0.0171 0.06084,-0.0643 0.08388,-0.10495 0.03441,-0.0607 0.04189,-0.0964 0.04184,-0.1996 0,-0.11161 -0.0066,-0.13787 -0.05865,-0.2346 -0.07006,-0.13025 -0.253211,-0.32025 -0.4524,-0.46934 -0.605206,-0.45296 -1.03037,-0.96044 -1.09691,-1.30928 -0.105952,-0.55546 -0.08939,-2.15813 0.04086,-3.95243 0.07133,-0.98269 0.09792,-1.44967 0.117351,-2.06117 0.02008,-0.63242 0.0329,-0.70372 0.192553,-1.07248 0.08455,-0.19529 0.182301,-0.53721 0.251219,-0.87875 0.08275,-0.41007 0.09848,-0.5403 0.09833,-0.81375 -1.56e-4,-0.28125 -0.03365,-0.46047 -0.130982,-0.70088 -0.08317,-0.20542 -0.09782,-0.31471 -0.07539,-0.56212 0.05725,-0.63129 0.177567,-1.21578 0.360918,-1.75334 0.139888,-0.41014 0.262115,-0.6893 0.556438,-1.27089 0.405495,-0.80127 0.55558,-1.15165 0.613439,-1.43214 0.09918,-0.4808 0.115072,-1.44744 0.03133,-1.90527 -0.01601,-0.0876 -0.02879,-0.23461 -0.02838,-0.32677 5.29e-4,-0.1478 0.0064,-0.18004 0.04875,-0.27316 0.06067,-0.1334 0.17889,-0.24409 0.298709,-0.27967 0.159226,-0.0473 0.248401,-0.0247 0.350935,0.0889 0.126344,0.14002 0.220152,0.37106 0.423715,1.04355 0.210137,0.69423 0.520038,1.64721 0.85507,2.62945 0.748768,2.19522 0.926351,2.89422 1.1303,4.44904 0.160461,1.2233 0.2843,1.69927 0.662712,2.54714 0.12011,0.26911 0.566783,1.15389 0.85444,1.6925 0.588854,1.10256 0.890778,1.8954 1.164625,3.05824 0.170873,0.7256 0.279978,1.06793 0.44061,1.38249 0.07533,0.14751 0.107219,0.18886 0.266405,0.34539 0.200813,0.19747 0.20512,0.20774 0.144255,0.34372 -0.0287,0.0641 -0.03815,0.12359 -0.04386,0.27595 -0.0097,0.25884 0.01664,0.3544 0.123696,0.44864 0.09933,0.0874 0.352731,0.21211 0.499472,0.24576 0.142437,0.0326 0.539782,0.0569 0.942724,0.0576 0.312804,5.3e-4 0.640208,0.0252 0.66536,0.0501 0.02304,0.0228 1.56e-4,0.0703 -0.143006,0.29709 -0.173052,0.27409 -0.214386,0.36254 -0.21459,0.45922 -2.35e-4,0.10255 0.07037,0.2403 0.205132,0.40026 0.292574,0.3473 0.631629,0.49454 1.311253,0.56944 0.392981,0.0433 1.15083,0.0622 1.348163,0.0336 z m -2.595541,-3.27602 c -0.169652,-0.0892 -0.363945,-0.25129 -0.680765,-0.56811 -0.322857,-0.32286 -0.44746,-0.47245 -0.66387,-0.79702 -0.419302,-0.62885 -0.730231,-1.47198 -1.177351,-3.19257 -0.376859,-1.45022 -0.562199,-2.36109 -0.658029,-3.23391 -0.04152,-0.37815 -0.04058,-1.62827 0.0016,-2.17009 0.03748,-0.48116 0.0539,-1.48947 0.02919,-1.79305 -0.01013,-0.12442 -0.02988,-0.34311 -0.0439,-0.48597 -0.07672,-0.78171 -0.05874,-2.11327 0.03209,-2.37697 0.01643,-0.0477 0.03123,-0.0624 0.0669,-0.0667 0.07279,-0.009 0.254124,0.0544 0.574859,0.19987 0.491378,0.22283 0.835883,0.32545 1.236261,0.36825 0.404871,0.0433 0.930536,-0.0371 1.271029,-0.19446 0.07101,-0.0328 0.13539,-0.0558 0.143069,-0.051 0.0267,0.0165 0.03726,0.27083 0.05249,1.26413 0.01935,1.26277 0.0377,1.53452 0.167802,2.4859 0.110673,0.80927 0.122912,0.9521 0.123881,1.44596 9.79e-4,0.49128 -0.01301,0.62785 -0.108062,1.05572 -0.09363,0.42149 -0.117752,0.6482 -0.11763,1.10565 1.56e-4,0.52189 0.04961,0.93822 0.178249,1.50013 0.31892,1.3931 0.356617,2.60776 0.12463,4.01591 -0.09171,0.55665 -0.302961,1.46281 -0.355905,1.52662 -0.02823,0.034 -0.07697,0.0245 -0.196555,-0.0383 z"
       id="path817"
       inkscape:connector-curvature="0" />
    <circle
       style="display:inline;opacity:1;fill:#ffbb00;fill-opacity:1;stroke:none;stroke-width:0.5394156;stroke-linecap:round;stroke-linejoin:round;stroke-miterlimit:4;stroke-dasharray:none;stroke-dashoffset:0;stroke-opacity:1;enable-background:new"
       id="path1076"
       cx="11.203432"
       cy="241.31935"
       r="6.4729862" />
    <path
       inkscape:connector-curvature="0"
       id="path977"
       d="m 32.687366,282.72617 c 0.05721,-0.008 0.09998,-0.0247 0.114425,-0.044 0.02967,-0.0395 0.01601,-0.15036 -0.02951,-0.23961 -0.03814,-0.0748 -0.04324,-0.12687 -0.01417,-0.14484 0.01082,-0.007 0.114502,-0.0178 0.230415,-0.0246 0.236935,-0.014 0.354751,-0.0457 0.444507,-0.11971 0.133065,-0.10968 0.15511,-0.27711 0.0613,-0.46554 -0.07347,-0.14759 -0.208389,-0.32039 -0.375122,-0.48046 -0.261589,-0.25114 -0.477479,-0.39123 -0.757806,-0.49175 -0.226158,-0.0811 -0.265011,-0.11614 -0.30832,-0.27814 -0.01014,-0.0379 -0.04874,-0.11332 -0.08578,-0.16757 -0.117939,-0.17271 -0.177216,-0.44557 -0.225292,-1.03705 -0.05237,-0.64425 -0.06236,-1.06294 -0.071,-2.97511 l -0.0088,-1.95291 0.100367,-0.20042 c 0.183406,-0.36625 0.350752,-0.73502 0.395134,-0.87073 0.07495,-0.22919 0.11291,-0.46839 0.162212,-1.0222 0.09054,-1.01701 0.189554,-1.33406 0.983882,-3.1504 0.668877,-1.52948 1.098386,-2.58643 1.361942,-3.3515 0.243868,-0.70791 0.445224,-1.12355 0.630803,-1.30207 0.0671,-0.0645 0.164103,-0.11393 0.223798,-0.11393 0.0972,0 0.245828,0.12836 0.368673,0.31839 0.12015,0.18587 0.375716,0.72718 0.542822,1.14975 0.300166,0.75905 0.539527,1.52426 0.762207,2.43671 0.289026,1.1843 0.447878,1.66027 0.802424,2.40433 0.260148,0.54595 0.298721,0.67486 0.355644,1.18846 0.06702,0.60472 0.19673,1.0923 0.396086,1.4889 0.07831,0.15578 0.14189,0.24782 0.257325,0.3725 0.142774,0.15421 0.160072,0.18611 0.218022,0.40218 0.02966,0.1106 0.150376,0.52911 0.26825,0.93004 0.337577,1.14819 0.554272,1.95131 0.802558,2.97444 0.143799,0.59257 0.256599,1.0072 0.364221,1.33878 0.115387,0.35553 0.123161,0.4361 0.07373,0.76429 -0.04135,0.27452 -0.03654,0.44228 0.01836,0.64035 0.100896,0.3641 0.3341,0.58351 0.726466,0.68351 0.301265,0.0768 0.503042,0.0905 1.340964,0.0914 0.823984,7.9e-4 0.930259,-0.006 1.141373,-0.0756 0.122375,-0.0402 0.22774,-0.12545 0.262464,-0.21225 0.01392,-0.0348 0.03075,-0.12146 0.03741,-0.19264 0.01476,-0.15753 0.03027,-0.17494 0.132853,-0.14911 0.08462,0.0213 0.143947,0.006 0.208008,-0.0535 0.1667,-0.15506 0.175566,-0.6229 0.01476,-0.77852 -0.124867,-0.12082 -0.323069,-0.16258 -0.891958,-0.18789 -0.58634,-0.0261 -0.789643,-0.0696 -1.077798,-0.23048 -0.174242,-0.0973 -0.306832,-0.21493 -0.355426,-0.31531 -0.02003,-0.0414 -0.05452,-0.16619 -0.07665,-0.27736 -0.02212,-0.11117 -0.05986,-0.25993 -0.08385,-0.33057 -0.06132,-0.18057 -0.296873,-0.66133 -0.568804,-1.16092 -0.411805,-0.75656 -0.549928,-1.08798 -0.711792,-1.7079 -0.05648,-0.2163 -0.203804,-0.74597 -0.327393,-1.17705 -0.123587,-0.43108 -0.240517,-0.86091 -0.259843,-0.95518 -0.05032,-0.24542 -0.05737,-0.48328 -0.03084,-1.03937 0.02796,-0.58582 0.02812,-1.01357 4.76e-4,-1.18481 -0.01116,-0.0691 -0.05753,-0.25764 -0.103041,-0.41893 -0.121563,-0.43085 -0.139627,-0.56051 -0.140085,-1.00545 -5.55e-4,-0.5096 0.04088,-0.91452 0.22445,-2.19523 0.188099,-1.31229 0.233765,-1.7839 0.245827,-2.53875 0.005,-0.31337 0.01421,-0.5753 0.02045,-0.58208 0.0062,-0.007 0.406966,-0.15119 0.890507,-0.32091 0.483545,-0.16972 0.984743,-0.34744 1.113775,-0.39494 1.120007,-0.4123 1.65169,-0.70586 2.207286,-1.21873 1.274604,-1.17659 2.09082,-2.87031 2.85111,-5.91633 0.372669,-1.49305 0.543592,-2.44653 0.630124,-3.51508 0.01659,-0.20478 0.03735,-0.65842 0.06782,-1.48128 0.03747,-1.01198 0.09367,-1.20802 0.586586,-2.04616 0.20732,-0.35252 0.413817,-0.7468 0.487088,-0.93004 0.02949,-0.0737 0.07138,-0.22455 0.0931,-0.33515 0.02172,-0.1106 0.04673,-0.21768 0.05557,-0.23796 0.01815,-0.0416 0.426723,-0.24681 0.763259,-0.38332 0.251751,-0.10212 0.752264,-0.34981 0.896499,-0.44365 0.05989,-0.039 0.165465,-0.11639 0.234603,-0.17204 0.06914,-0.0557 0.134205,-0.10755 0.14459,-0.11531 0.01143,-0.009 0.100531,0.0228 0.226165,0.0796 0.114007,0.0516 0.27141,0.11355 0.349782,0.13772 0.132027,0.0407 0.165894,0.044 0.460891,0.0447 0.358392,8e-4 0.492848,-0.0239 0.720564,-0.13288 0.252415,-0.12076 0.328372,-0.2156 0.361093,-0.45084 0.03116,-0.22404 -0.0019,-0.34831 -0.143188,-0.5398 -0.03564,-0.0483 -0.01929,-0.0795 0.07836,-0.14964 0.133945,-0.0962 0.156117,-0.16279 0.156117,-0.46865 0,-0.32673 -0.0071,-0.34245 -0.280636,-0.6254 -0.243924,-0.25229 -0.441036,-0.51058 -0.584147,-0.76547 -0.265287,-0.47249 -0.357685,-0.59723 -0.488325,-0.65922 -0.14872,-0.0706 -0.531048,-0.0975 -1.704197,-0.12024 -1.231511,-0.0238 -1.622761,-0.0521 -1.986487,-0.14366 -0.299664,-0.0754 -0.477581,-0.17667 -0.819777,-0.46655 -0.227954,-0.19309 -0.255421,-0.20085 -0.71366,-0.20164 -0.407289,-7.9e-4 -0.651534,0.0202 -1.005449,0.0859 -0.268957,0.0499 -0.428971,0.0541 -0.544615,0.0143 -0.04609,-0.0159 -0.178049,-0.0724 -0.293257,-0.12563 -0.115207,-0.0532 -0.247173,-0.10872 -0.293256,-0.12332 -0.327313,-0.10365 -0.618609,-0.0664 -0.86704,0.11087 -0.227502,0.16235 -0.381431,0.37658 -0.682955,0.95053 -0.104106,0.19815 -0.280128,0.52241 -0.391163,0.72057 -0.424085,0.75683 -0.558075,1.16444 -0.575641,1.75115 -0.01355,0.45226 0.02387,0.63783 0.260742,1.29324 0.128037,0.35427 0.127868,0.35246 0.127804,1.37957 -3.4e-5,0.58845 -0.0077,1.01163 -0.02159,1.18978 -0.07508,0.9645 -0.16374,1.75123 -0.263448,2.33767 -0.103838,0.61073 -0.173852,0.81111 -0.342913,0.98138 -0.212725,0.21426 -0.514652,0.28381 -1.23208,0.28381 -0.606136,0 -0.880859,-0.0439 -1.164939,-0.18611 -0.467767,-0.23417 -1.05297,-0.81625 -1.567954,-1.55958 -0.217842,-0.31444 -0.4117,-0.63184 -0.722711,-1.18328 -0.906466,-1.60724 -1.391159,-2.21909 -2.362811,-2.98268 -0.585472,-0.4601 -0.878547,-0.89778 -1.118988,-1.6711 -0.244509,-0.7864 -0.613101,-1.35064 -1.201124,-1.83868 -0.708171,-0.58775 -1.318584,-0.78861 -2.401911,-0.79033 -0.440671,-7.9e-4 -0.631414,0.0183 -0.917566,0.0914 -0.600405,0.1533 -1.005952,0.46112 -1.250415,0.94911 -0.09345,0.18654 -0.143197,0.38511 -0.322412,1.28691 -0.181,0.9108 -0.280623,1.26161 -0.46636,1.64223 -0.129439,0.26526 -0.270395,0.45993 -0.496659,0.68591 -0.274164,0.27382 -0.463838,0.36779 -0.631037,0.3126 -0.137342,-0.0453 -0.208526,-0.16225 -0.720084,-1.18284 -0.470321,-0.93832 -0.595019,-1.1753 -0.786225,-1.4942 -0.330092,-0.55053 -0.605947,-0.80012 -0.981734,-0.88827 -0.107969,-0.0253 -0.198454,-0.0304 -0.524288,-0.0293 -0.454462,0.002 -0.506428,0.0112 -0.846254,0.15707 -0.891858,0.38292 -1.584775,0.95009 -1.800826,1.47401 -0.114601,0.27792 -0.557072,1.66411 -0.820277,2.56981 -0.150085,0.51645 -0.210558,0.68452 -0.337457,0.93791 -0.160036,0.31955 -0.24401,0.42669 -0.653619,0.83392 -0.268888,0.26733 -0.422807,0.43556 -0.52896,0.57814 -0.387059,0.51985 -0.724324,1.13777 -1.127144,2.06507 -0.611658,1.40805 -0.823878,2.13112 -0.890974,3.03573 -0.02871,0.38711 -0.01151,1.26081 0.04279,2.17193 0.05398,0.90598 0.05181,1.28553 -0.0084,1.47465 -0.04438,0.13932 -0.177101,0.40925 -0.276026,0.56138 -0.132292,0.20345 -0.210283,0.26699 -0.821521,0.66927 -0.21735,0.14305 -0.415983,0.28906 -0.519483,0.38187 -0.434062,0.38923 -0.719926,0.87874 -0.757052,1.29636 -0.01225,0.13788 0.01415,0.22901 0.07049,0.24315 0.10723,0.0269 0.730298,-0.26818 1.497042,-0.70902 0.402198,-0.23125 0.640201,-0.38505 0.938596,-0.60652 0.302146,-0.22426 0.399954,-0.28511 0.478861,-0.29791 0.04674,-0.008 0.05972,-0.003 0.07706,0.0298 0.101753,0.19013 0.511765,1.86457 0.84442,3.44854 0.29812,1.41951 0.360768,1.91168 0.361098,2.83677 2.36e-4,0.72761 -0.04611,1.23883 -0.160676,1.77155 -0.100375,0.46671 -0.112286,0.60019 -0.101862,1.14139 0.0096,0.49603 0.02869,0.77152 0.153078,2.20361 0.119755,1.37877 0.142269,1.95117 0.111051,2.82363 -0.03549,0.99178 -0.174615,3.11846 -0.262007,4.00503 -0.05654,0.57356 -0.09758,0.77531 -0.224575,1.1039 -0.124439,0.32198 -0.169593,0.49051 -0.180153,0.67239 -0.01572,0.27066 0.0455,0.43591 0.229685,0.62009 0.228865,0.22887 0.552868,0.29284 1.281877,0.25312 0.989447,-0.0539 1.146601,-0.099 1.0966,-0.31447 -0.0249,-0.10729 -0.01937,-0.1702 0.01667,-0.18949 0.01783,-0.01 0.09512,-0.0174 0.171763,-0.0174 0.180586,-1.6e-4 0.329536,-0.0251 0.382243,-0.064 0.0231,-0.0171 0.06084,-0.0643 0.08388,-0.10495 0.03441,-0.0607 0.04189,-0.0964 0.04184,-0.1996 0,-0.11161 -0.0066,-0.13787 -0.05865,-0.2346 -0.07006,-0.13025 -0.253211,-0.32025 -0.4524,-0.46934 -0.605206,-0.45296 -1.03037,-0.96044 -1.09691,-1.30928 -0.105952,-0.55546 -0.08939,-2.15813 0.04086,-3.95243 0.07133,-0.98269 0.09792,-1.44967 0.117351,-2.06117 0.02008,-0.63242 0.0329,-0.70372 0.192553,-1.07248 0.08455,-0.19529 0.182301,-0.53721 0.251219,-0.87875 0.08275,-0.41007 0.09848,-0.5403 0.09833,-0.81375 -1.56e-4,-0.28125 -0.03365,-0.46047 -0.130982,-0.70088 -0.08317,-0.20542 -0.09782,-0.31471 -0.07539,-0.56212 0.05725,-0.63129 0.177567,-1.21578 0.360918,-1.75334 0.139888,-0.41014 0.262115,-0.6893 0.556438,-1.27089 0.405495,-0.80127 0.55558,-1.15165 0.613439,-1.43214 0.09918,-0.4808 0.115072,-1.44744 0.03133,-1.90527 -0.01601,-0.0876 -0.02879,-0.23461 -0.02838,-0.32677 5.29e-4,-0.1478 0.0064,-0.18004 0.04875,-0.27316 0.06067,-0.1334 0.17889,-0.24409 0.298709,-0.27967 0.159226,-0.0473 0.248401,-0.0247 0.350935,0.0889 0.126344,0.14002 0.220152,0.37106 0.423715,1.04355 0.210137,0.69423 0.520038,1.64721 0.85507,2.62945 0.748768,2.19522 0.926351,2.89422 1.1303,4.44904 0.160461,1.2233 0.2843,1.69927 0.662712,2.54714 0.12011,0.26911 0.566783,1.15389 0.85444,1.6925 0.588854,1.10256 0.890778,1.8954 1.164625,3.05824 0.170873,0.7256 0.279978,1.06793 0.44061,1.38249 0.07533,0.14751 0.107219,0.18886 0.266405,0.34539 0.200813,0.19747 0.20512,0.20774 0.144255,0.34372 -0.0287,0.0641 -0.03815,0.12359 -0.04386,0.27595 -0.0097,0.25884 0.01664,0.3544 0.123696,0.44864 0.09933,0.0874 0.352731,0.21211 0.499472,0.24576 0.142437,0.0326 0.539782,0.0569 0.942724,0.0576 0.312804,5.3e-4 0.640208,0.0252 0.66536,0.0501 0.02304,0.0228 1.56e-4,0.0703 -0.143006,0.29709 -0.173052,0.27409 -0.214386,0.36254 -0.21459,0.45922 -2.35e-4,0.10255 0.07037,0.2403 0.205132,0.40026 0.292574,0.3473 0.631629,0.49454 1.311253,0.56944 0.392981,0.0433 1.15083,0.0622 1.348163,0.0336 z m -2.595541,-3.27602 c -0.169652,-0.0892 -0.363945,-0.25129 -0.680765,-0.56811 -0.322857,-0.32286 -0.44746,-0.47245 -0.66387,-0.79702 -0.419302,-0.62885 -0.730231,-1.47198 -1.177351,-3.19257 -0.376859,-1.45022 -0.562199,-2.36109 -0.658029,-3.23391 -0.04152,-0.37815 -0.04058,-1.62827 0.0016,-2.17009 0.03748,-0.48116 0.0539,-1.48947 0.02919,-1.79305 -0.01013,-0.12442 -0.02988,-0.34311 -0.0439,-0.48597 -0.07672,-0.78171 -0.05874,-2.11327 0.03209,-2.37697 0.01643,-0.0477 0.03123,-0.0624 0.0669,-0.0667 0.07279,-0.009 0.254124,0.0544 0.574859,0.19987 0.491378,0.22283 0.835883,0.32545 1.236261,0.36825 0.404871,0.0433 0.930536,-0.0371 1.271029,-0.19446 0.07101,-0.0328 0.13539,-0.0558 0.143069,-0.051 0.0267,0.0165 0.03726,0.27083 0.05249,1.26413 0.01935,1.26277 0.0377,1.53452 0.167802,2.4859 0.110673,0.80927 0.122912,0.9521 0.123881,1.44596 9.79e-4,0.49128 -0.01301,0.62785 -0.108062,1.05572 -0.09363,0.42149 -0.117752,0.6482 -0.11763,1.10565 1.56e-4,0.52189 0.04961,0.93822 0.178249,1.50013 0.31892,1.3931 0.356617,2.60776 0.12463,4.01591 -0.09171,0.55665 -0.302961,1.46281 -0.355905,1.52662 -0.02823,0.034 -0.07697,0.0245 -0.196555,-0.0383 z"
       style="fill:#ffffff;stroke-width:0.01675746;fill-opacity:1" />
  </g>
</svg>
