<svg width="256" height="256" viewBox="0 0 256 256" fill="none" xmlns="http://www.w3.org/2000/svg">
<path opacity="0.2" d="M78.924 15.5C43.628 15.5 39.83 19.125 40.003 54.494V200.506C39.83 235.875 43.628 239.5 78.924 239.5H177.081C212.378 239.5 216.003 235.875 216.003 200.506V54.494C216.003 19.125 212.378 15.5 177.081 15.5H78.924Z" stroke="black" stroke-width="4"/>
<g opacity="0.1" filter="url(#filter0_f)">
<path d="M78.924 16.5C43.628 16.5 39.83 20.125 40.003 55.494V201.506C39.83 236.875 43.628 240.5 78.924 240.5H177.081C212.378 240.5 215.084 236.863 216.003 201.506V55.494C216.003 20.125 212.378 16.5 177.081 16.5H78.924Z" fill="black"/>
</g>
<path opacity="0.3" d="M78.924 16.5C43.628 16.5 39.83 20.125 40.003 55.494V201.506C39.83 236.875 43.628 240.5 78.924 240.5H177.081C212.378 240.5 216.003 236.875 216.003 201.506V55.494C216.003 20.125 212.378 16.5 177.081 16.5H78.924Z" fill="url(#paint0_linear)"/>
<path d="M78.924 15.5C43.628 15.5 39.83 19.125 40.003 54.494V200.506C39.83 235.875 43.628 239.5 78.924 239.5H177.081C212.378 239.5 216.003 235.875 216.003 200.506V54.494C216.003 19.125 212.378 15.5 177.081 15.5H78.924Z" fill="url(#paint1_linear)"/>
<path d="M45.003 54.494V54.4818L45.0029 54.4695C44.9597 45.6269 45.1739 39.1505 45.9802 34.2997C46.7802 29.487 48.07 26.8935 49.694 25.2733C51.3215 23.6496 53.9289 22.3603 58.7555 21.5501C63.6169 20.734 70.0952 20.5 78.924 20.5H177.081C185.911 20.5 192.377 20.7341 197.224 21.5497C202.033 22.3591 204.623 23.6463 206.24 25.2662C207.858 26.8872 209.145 29.4844 209.954 34.3071C210.769 39.1654 211.003 45.6466 211.003 54.494V200.506C211.003 209.353 210.769 215.835 209.954 220.693C209.145 225.516 207.858 228.113 206.24 229.734C204.623 231.354 202.033 232.641 197.224 233.45C192.377 234.266 185.911 234.5 177.081 234.5H78.924C70.0952 234.5 63.6169 234.266 58.7555 233.45C53.9289 232.64 51.3215 231.35 49.694 229.727C48.07 228.106 46.7802 225.513 45.9802 220.7C45.1739 215.849 44.9597 209.373 45.0029 200.53L45.003 200.518V200.506V54.494Z" stroke="url(#paint2_linear)" stroke-width="10"/>
<path opacity="0.6" d="M78.925 15.5C43.628 15.5 39.83 19.126 40.003 54.494V56.494C39.83 21.126 43.628 17.5 78.925 17.5H177.081C212.378 17.5 216.003 21.126 216.003 56.494V54.494C216.003 19.126 212.378 15.5 177.081 15.5H78.925Z" fill="white"/>
<g opacity="0.4" filter="url(#filter1_f)">
<path d="M118.381 84.202L110.876 96.8843L114.013 102.212L98.9218 128.448L89.5935 133.956L79.6854 150.552L87.5218 163.721L90.2636 163.563L92.5937 167.635L134.428 167.648L137.627 173.031L139.919 173.055L136.761 167.648L169.55 167.657L178 153.87L139.499 86.6059L134.774 86.6951L133.69 84.5314L118.381 84.202ZM134.712 89.7987L147.369 111.61H122.138L134.712 89.7987ZM121.063 113.473H148.452L171.888 153.86L128.563 153.608L113.145 127.207L121.063 113.473ZM111.987 129.216L120.407 143.634H103.675L111.987 129.216ZM102.601 145.498H121.494L130.753 161.353L93.5694 161.163L102.601 145.498Z" fill="black"/>
</g>
<path d="M91.8841 159.961L133.027 88.5965L170.203 152.658L126.454 152.404L131.335 160.162L91.8841 159.961Z" fill="url(#paint3_linear)"/>
<path d="M116.695 83L109.191 95.6823L112.327 101.01L97.2364 127.246L87.9081 132.754L78 149.351L85.8364 162.519L88.5782 162.361L90.9084 166.433L132.743 166.445L135.942 171.829L138.233 171.853L135.076 166.446L167.864 166.455L176.315 152.668L137.813 85.4039L133.088 85.493L132.005 83.3294L116.695 83ZM133.027 88.5966L145.685 110.408H120.453L133.027 88.5966ZM119.378 112.272H146.766L170.203 152.658L126.877 152.406L111.46 126.005L119.378 112.272ZM110.301 128.014L118.721 142.432H101.99L110.301 128.014ZM100.915 144.296H119.809L129.067 160.15L91.884 159.961L100.915 144.296Z" fill="url(#paint4_linear)"/>
<defs>
<filter id="filter0_f" x="35.7576" y="12.26" width="184.485" height="232.48" filterUnits="userSpaceOnUse" color-interpolation-filters="sRGB">
<feFlood flood-opacity="0" result="BackgroundImageFix"/>
<feBlend mode="normal" in="SourceGraphic" in2="BackgroundImageFix" result="shape"/>
<feGaussianBlur stdDeviation="2.12" result="effect1_foregroundBlur"/>
</filter>
<filter id="filter1_f" x="69.6854" y="74.202" width="118.315" height="108.853" filterUnits="userSpaceOnUse" color-interpolation-filters="sRGB">
<feFlood flood-opacity="0" result="BackgroundImageFix"/>
<feBlend mode="normal" in="SourceGraphic" in2="BackgroundImageFix" result="shape"/>
<feGaussianBlur stdDeviation="5" result="effect1_foregroundBlur"/>
</filter>
<linearGradient id="paint0_linear" x1="28.0286" y1="23.444" x2="250.459" y2="198.216" gradientUnits="userSpaceOnUse">
<stop stop-opacity="0.588"/>
<stop offset="0.88" stop-opacity="0"/>
<stop offset="1"/>
</linearGradient>
<linearGradient id="paint1_linear" x1="65.6652" y1="239.5" x2="58.3036" y2="21.5684" gradientUnits="userSpaceOnUse">
<stop stop-color="#BFC1C1"/>
<stop offset="1" stop-color="#F1F2F3"/>
</linearGradient>
<linearGradient id="paint2_linear" x1="39.9976" y1="15.5" x2="39.9976" y2="239.5" gradientUnits="userSpaceOnUse">
<stop offset="1e-07" stop-color="#00A7FD"/>
<stop offset="1" stop-color="#9914DC"/>
</linearGradient>
<linearGradient id="paint3_linear" x1="130.56" y1="88.569" x2="130.723" y2="160.398" gradientUnits="userSpaceOnUse">
<stop stop-color="#1AD6AB"/>
<stop offset="1" stop-color="#329DB6"/>
</linearGradient>
<linearGradient id="paint4_linear" x1="127.157" y1="83.0001" x2="127.157" y2="171.853" gradientUnits="userSpaceOnUse">
<stop stop-color="#49535E"/>
<stop offset="1" stop-color="#2F3943"/>
</linearGradient>
</defs>
</svg>
