<svg width="256" height="256" viewBox="0 0 256 256" fill="none" xmlns="http://www.w3.org/2000/svg">
<g opacity="0.4" filter="url(#filter0_f)">
<path d="M55.0839 15.5636H155.608L216.009 75.7129L216.011 224.609C216.011 233.52 208.749 240.737 199.838 240.737H55.0838C46.1734 240.737 39 233.564 39 224.654V31.6474C39 22.737 46.1734 15.5636 55.0838 15.5636H55.0839Z" fill="black"/>
</g>
<path d="M55.0839 15H155.608L216.009 75.1493L216.011 224.045C216.011 232.956 208.749 240.174 199.838 240.174H55.0838C46.1734 240.174 39 233 39 224.09V31.0838C39 22.1734 46.1734 15 55.0838 15H55.0839Z" fill="url(#paint0_linear)"/>
<path opacity="0.4" d="M199.838 240.174C208.749 240.174 216.011 232.956 216.011 224.046L216.01 186.5H39V224.09C39 233 46.1734 240.174 55.0838 240.174H199.838Z" fill="url(#paint1_linear)"/>
<path fill-rule="evenodd" clip-rule="evenodd" d="M155.609 22.9787H55.0839C50.58 22.9787 46.9787 26.5799 46.9787 31.0838V224.09C46.9787 228.594 50.5799 232.195 55.0838 232.195H199.838C204.371 232.195 208.032 228.521 208.032 224.046V75.1493L155.609 22.9787ZM155.608 15H55.0839C46.1735 15 39 22.1734 39 31.0838V224.09C39 233 46.1734 240.174 55.0838 240.174H199.838C208.749 240.174 216.011 232.956 216.011 224.045L216.009 75.1493L155.608 15Z" fill="url(#paint2_linear)"/>
<path d="M80.935 78.87C91.9448 78.87 100.87 69.9448 100.87 58.935C100.87 47.9252 91.9448 39 80.935 39C69.9252 39 61 47.9252 61 58.935C61 69.9448 69.9252 78.87 80.935 78.87Z" fill="url(#paint3_linear)"/>
<path opacity="0.5" d="M144.96 196.094C145.099 196.097 145.202 196.104 145.237 196.114C145.31 196.131 145.277 196.181 145.166 196.221C145.073 196.255 145.061 196.278 145.131 196.286C145.158 196.289 145.409 196.294 145.691 196.297C146.266 196.303 146.552 196.317 146.77 196.351C147.093 196.401 147.147 196.475 146.919 196.56C146.622 196.655 146.317 196.728 146.009 196.776C145.373 196.888 144.849 196.951 144.169 196.996C143.619 197.033 143.525 197.048 143.419 197.121C143.395 197.138 143.301 197.172 143.212 197.196C142.925 197.274 142.782 197.396 142.665 197.662C142.537 197.952 142.513 198.139 142.492 198.998L142.471 199.875L142.714 199.965C143.16 200.129 143.566 200.295 143.674 200.355C143.856 200.458 143.948 200.565 144.068 200.815C144.288 201.271 144.528 201.413 146.456 202.229C148.08 202.915 149.123 203.39 149.763 203.733C150.355 204.051 150.843 204.238 151.294 204.318C151.457 204.347 151.693 204.369 151.838 204.369C152.074 204.369 152.435 204.312 152.733 204.226C153.182 204.081 153.623 203.909 154.051 203.71C154.705 203.413 155.326 203.046 155.901 202.616C156.603 202.084 156.989 201.871 157.849 201.536C158.481 201.291 158.575 201.234 158.713 201.003C158.875 200.732 159.19 200.513 159.674 200.335C159.864 200.265 160.019 200.223 160.299 200.167C160.646 200.098 160.688 200.084 160.829 199.987C160.9 199.937 161.194 199.749 161.479 199.569C162.15 199.156 162.801 198.71 163.429 198.234C163.777 197.968 164.051 197.782 164.312 197.633C164.592 197.473 164.612 197.437 164.492 197.29C164.392 197.166 164.402 197.091 164.536 197.002C164.781 196.839 165.347 196.74 166.3 196.695C167.031 196.661 167.521 196.655 169.555 196.655C171.555 196.654 171.814 196.657 172.326 196.688C172.624 196.706 172.879 196.745 172.964 196.783C173.002 196.803 173.033 196.833 173.054 196.87C173.09 196.94 173.128 196.949 173.377 196.937C173.582 196.927 173.727 196.934 173.882 196.961C174.287 197.031 174.308 197.241 173.918 197.311C173.615 197.365 173.134 197.383 171.752 197.395C170.329 197.407 169.835 197.426 169.136 197.498C168.713 197.542 168.391 197.595 168.273 197.64C168.205 197.671 168.142 197.713 168.087 197.764C168.024 197.821 167.956 197.871 167.883 197.913C167.734 197.993 167.163 198.21 166.503 198.434C165.503 198.774 165.167 198.922 164.774 199.201C164.637 199.298 164.279 199.536 163.979 199.729C163.679 199.923 163.395 200.116 163.349 200.158C163.226 200.268 163.209 200.375 163.273 200.625C163.341 200.888 163.342 201.08 163.275 201.157C163.197 201.227 163.114 201.29 163.025 201.345C162.729 201.538 162.685 201.596 162.685 201.796C162.683 202.025 162.784 202.206 163.229 202.782C163.686 203.371 163.797 203.582 163.826 203.922C163.838 204.062 163.861 204.18 163.876 204.182C163.891 204.186 164.864 204.251 166.038 204.327L168.742 204.504C171.461 204.689 172.752 204.821 174.101 205.051C177.195 205.58 179.177 206.34 181.023 207.708C181.927 208.378 182.343 208.806 182.553 209.286C182.593 209.378 182.643 209.581 182.717 209.951C182.808 210.405 182.945 210.493 184.141 210.869C184.645 211.028 185.146 211.205 185.324 211.287C185.395 211.32 185.497 211.387 185.55 211.437C185.603 211.487 185.663 211.535 185.685 211.544C185.729 211.563 186.721 211.655 187.538 211.716C188.149 211.762 189.364 211.873 189.714 211.916C190.022 211.953 190.329 211.996 190.635 212.044C190.663 212.048 190.879 212.034 191.185 212.009C191.461 211.986 191.843 211.958 192.033 211.947C192.353 211.929 192.436 211.927 193.153 211.927C194.023 211.927 194.349 211.937 194.902 211.987C195.515 212.041 195.699 212.083 195.778 212.189C195.854 212.289 195.774 212.345 195.431 212.431C195.344 212.453 195.384 212.467 195.621 212.498C195.946 212.542 196 212.572 196 212.708C196 212.856 195.983 212.863 195.319 212.99C194.726 213.103 194.248 213.219 193.9 213.333C193.256 213.545 193.032 213.601 192.715 213.629C192.354 213.661 191.425 213.673 188.577 213.683C185.587 213.693 184.637 213.707 183.755 213.748C183.027 213.782 182.595 213.827 181.765 213.958C181.211 214.044 181.145 214.048 180.032 214.048C179.042 214.048 178.45 214.038 177.591 214.009C176.938 213.987 176.549 213.985 176.268 214.003C176.031 214.02 175.793 214.039 175.556 214.059C175.276 214.083 174.956 214.108 174.844 214.114C174.05 214.161 173.342 214.144 172.739 214.064C172.187 213.992 171.813 213.896 171.081 213.638C170.828 213.549 170.401 213.403 170.131 213.314C169.102 212.974 168.777 212.792 168.734 212.528C168.701 212.325 168.792 212.242 169.367 211.948C169.677 211.788 169.677 211.789 169.677 211.328C169.677 211.064 169.659 210.874 169.625 210.794C169.443 210.361 169.227 210.008 168.985 209.744C168.733 209.47 168.563 209.38 168.153 209.304C167.636 209.208 166.903 209.177 165.162 209.177C163.69 209.177 163.022 209.197 162.333 209.26C161.198 209.365 159.777 209.627 158.527 209.96C157.997 210.101 157.527 210.244 156.772 210.492C154.572 211.213 153.394 211.488 151.035 211.831C149.614 212.037 148.902 212.234 148.319 212.581C147.725 212.934 146.83 213.187 145.403 213.406C143.683 213.67 142.201 213.76 139.571 213.761C138.501 213.761 138.038 213.753 137.343 213.721C135.886 213.651 134.901 213.513 134.308 213.294C134.081 213.21 133.96 213.121 133.525 212.716C133.085 212.307 132.844 212.15 132.393 211.979C132.078 211.859 131.736 211.773 131.187 211.671C130.521 211.548 130.061 211.506 129.655 211.531C129.321 211.551 129.149 211.604 127.907 212.061C126.765 212.483 126.462 212.589 125.997 212.733C125.197 212.98 124.527 213.092 123.614 213.131C123.19 213.145 122.765 213.15 122.341 213.145C121.238 213.144 121.111 213.14 120.287 213.074C118.122 212.902 116.439 212.647 115.915 212.412C115.636 212.288 114.562 211.665 113.923 211.259C113.559 211.027 113.412 210.951 113.103 210.837C112.715 210.694 112.512 210.646 111.517 210.463C111.087 210.388 110.658 210.302 110.233 210.203C109.293 209.97 108.474 209.693 107.496 209.276C106.011 208.644 105.496 208.32 105.333 207.913C105.263 207.74 105.305 207.347 105.437 206.938C105.568 206.532 105.563 206.361 105.417 206.276C105.201 206.173 104.977 206.088 104.747 206.024C104.425 205.933 104.236 205.904 102.752 205.724C102.224 205.66 101.742 205.594 101.491 205.552C100.437 205.378 99.743 205.158 99.653 204.97C99.623 204.908 99.687 204.868 99.823 204.861C100.084 204.849 101.597 204.981 103.459 205.179C104.435 205.283 105.013 205.352 105.737 205.452C106.471 205.552 106.708 205.58 106.9 205.586C107.013 205.589 107.045 205.586 107.087 205.572C107.334 205.487 108.329 204.735 109.137 204.024C109.861 203.387 110.013 203.166 110.014 202.75C110.014 202.424 109.902 202.194 109.624 201.955C109.38 201.745 109.351 201.685 109.376 201.443C109.4 201.22 109.446 201.096 109.748 200.453C110.038 199.834 110.093 199.577 110.018 199.186C109.931 198.74 109.594 197.786 109.381 197.387C109.244 197.13 109.145 197.039 108.836 196.892C108.534 196.747 108.425 196.672 108.399 196.59C108.361 196.468 108.509 196.394 108.957 196.312C109.512 196.209 110.299 196.18 112.069 196.198C114.471 196.222 114.852 196.242 114.731 196.339C114.671 196.387 114.684 196.415 114.771 196.424C114.815 196.429 115.002 196.432 115.189 196.432C115.627 196.432 115.989 196.443 116.117 196.461C116.173 196.468 116.264 196.49 116.32 196.508C116.404 196.535 116.422 196.551 116.422 196.598C116.422 196.648 116.406 196.659 116.279 196.703C116.109 196.761 115.665 196.847 115.181 196.913C113.711 197.117 112.679 197.345 112.518 197.501C112.261 197.751 112.301 198.471 112.618 199.276C112.79 199.716 112.855 199.926 112.902 200.201C112.951 200.485 112.982 200.517 113.37 200.683C113.575 200.77 113.812 200.923 113.98 201.077C114.18 201.261 114.219 201.32 114.218 201.442C114.218 201.569 114.136 201.649 113.9 201.757C113.698 201.849 113.663 201.898 113.717 202.01C113.857 202.293 114.148 202.555 114.593 202.797C114.933 202.981 115.23 203.107 115.944 203.367C116.929 203.727 117.294 203.884 117.434 204.01C117.674 204.226 117.713 204.66 117.51 204.866C117.471 204.905 117.446 204.957 117.44 205.012C117.442 205.079 117.456 205.093 117.56 205.135C117.706 205.195 117.993 205.245 118.284 205.261C118.671 205.281 118.887 205.271 119.136 205.221C119.443 205.158 119.671 205.054 120.166 204.752C120.676 204.44 121.428 204.012 122.241 203.572C124.059 202.586 124.491 202.272 124.985 201.574C125.375 201.025 125.675 200.811 126.595 200.431C126.885 200.31 127.97 199.913 128.669 199.671C130.099 199.176 130.831 198.82 131.496 198.298C131.911 197.972 132.176 197.818 132.566 197.677C132.749 197.611 132.826 197.592 133.213 197.522C133.7 197.433 133.711 197.429 133.563 197.368C133.493 197.338 133.47 197.312 133.456 197.244C133.433 197.128 133.496 197.084 133.756 197.042C133.998 197.003 134.613 196.947 134.969 196.932C135.315 196.917 136.279 196.906 137.259 196.906C138.018 196.906 138.812 196.895 138.873 196.884C138.929 196.874 138.873 196.852 138.526 196.75C138.106 196.627 138.006 196.588 138.006 196.544C138.005 196.498 138.176 196.436 138.503 196.364C139.213 196.208 140.037 196.142 141.687 196.109C142.641 196.089 144.481 196.081 144.96 196.094V196.094ZM138.658 197.564C138.246 197.604 137.775 197.677 137.005 197.82C136.222 197.965 135.919 198.032 135.394 198.177C134.376 198.46 133.621 198.838 132.535 199.611C131.62 200.261 131.17 200.671 130.938 201.063C130.837 201.233 130.839 201.793 130.942 202.037C131.032 202.253 131.072 202.706 131.012 202.842C130.979 202.916 130.944 202.988 130.906 203.06C130.72 203.411 130.763 204.009 130.984 204.127C131.024 204.149 131.06 204.155 131.146 204.157C131.323 204.161 131.763 204.133 132.542 204.067C133.735 203.967 134.572 203.921 135.543 203.902C136.526 203.882 137.803 203.919 138.629 203.989C138.801 204.004 138.958 204.014 138.976 204.012C139.041 204.005 139.066 203.891 139.104 203.445C139.151 202.878 139.195 202.755 139.511 202.329C139.78 201.965 139.81 201.901 139.812 201.679C139.814 201.459 139.78 201.398 139.55 201.206C139.322 201.016 139.264 200.915 139.264 200.709C139.264 200.475 139.384 200.288 139.697 200.036C140.471 199.41 140.563 198.865 139.999 198.233C139.777 197.983 139.264 197.576 139.135 197.547C139.067 197.532 138.948 197.537 138.658 197.565V197.564Z" fill="black"/>
<path d="M144.794 199.71C144.932 199.69 145.036 199.65 145.071 199.604C145.143 199.509 145.111 199.244 145 199.03C144.907 198.85 144.895 198.726 144.965 198.683C144.992 198.666 145.243 198.64 145.525 198.623C146.1 198.59 146.386 198.514 146.604 198.337C146.927 198.074 146.98 197.673 146.753 197.221C146.574 196.868 146.247 196.454 145.842 196.071C145.207 195.468 144.682 195.133 144.002 194.891C143.453 194.697 143.359 194.613 143.254 194.225C143.203 194.083 143.132 193.948 143.045 193.824C142.759 193.41 142.615 192.756 142.498 191.339C142.371 189.795 142.347 188.792 142.326 184.209L142.305 179.529L142.548 179.049C142.994 178.172 143.4 177.289 143.508 176.963C143.69 176.413 143.782 175.841 143.901 174.513C144.121 172.076 144.361 171.317 146.291 166.964C147.914 163.299 148.957 160.766 149.597 158.934C150.189 157.237 150.677 156.241 151.128 155.813C151.291 155.658 151.527 155.54 151.672 155.54C151.908 155.54 152.268 155.848 152.567 156.303C152.858 156.748 153.479 158.045 153.885 159.058C154.613 160.877 155.195 162.711 155.735 164.898C156.437 167.735 156.822 168.876 157.683 170.658C158.315 171.967 158.408 172.276 158.547 173.506C158.709 174.956 159.024 176.124 159.508 177.074C159.698 177.447 159.853 177.668 160.133 177.967C160.48 178.337 160.522 178.413 160.663 178.931C160.734 179.196 161.027 180.198 161.313 181.159C162.133 183.911 162.659 185.835 163.262 188.287C163.612 189.707 163.885 190.7 164.146 191.495C164.426 192.347 164.446 192.54 164.326 193.326C164.225 193.984 164.236 194.386 164.37 194.861C164.615 195.733 165.181 196.259 166.134 196.499C166.865 196.683 167.354 196.716 169.389 196.718C171.389 196.72 171.648 196.703 172.16 196.537C172.457 196.44 172.713 196.236 172.798 196.028C172.831 195.945 172.872 195.737 172.888 195.566C172.924 195.189 172.962 195.147 173.211 195.209C173.299 195.237 173.393 195.24 173.482 195.218C173.571 195.195 173.652 195.148 173.716 195.081C174.121 194.709 174.142 193.588 173.752 193.215C173.449 192.925 172.967 192.825 171.586 192.765C170.163 192.703 169.669 192.598 168.97 192.213C168.546 191.98 168.225 191.698 168.107 191.457C168.058 191.358 167.974 191.059 167.921 190.793C167.867 190.525 167.799 190.261 167.717 190C167.568 189.568 166.997 188.416 166.336 187.219C165.336 185.406 165.001 184.611 164.608 183.126C164.471 182.608 164.113 181.338 163.813 180.306C163.513 179.272 163.229 178.242 163.183 178.016C163.06 177.428 163.043 176.858 163.107 175.526C163.175 174.122 163.176 173.097 163.108 172.686C163.081 172.521 162.968 172.069 162.858 171.683C162.563 170.65 162.519 170.34 162.518 169.273C162.517 168.053 162.618 167.082 163.063 164.013C163.52 160.868 163.631 159.738 163.66 157.93C163.672 157.179 163.694 156.551 163.71 156.535C163.725 156.518 164.698 156.172 165.872 155.765C166.775 155.454 167.676 155.138 168.576 154.819C171.295 153.831 172.586 153.128 173.935 151.899C177.029 149.079 179.011 145.021 180.857 137.722C181.761 134.144 182.177 131.859 182.387 129.299C182.427 128.808 182.477 127.721 182.551 125.749C182.642 123.324 182.778 122.854 183.975 120.846C184.478 120.001 184.98 119.056 185.158 118.617C185.229 118.441 185.331 118.079 185.384 117.814C185.436 117.549 185.497 117.292 185.519 117.244C185.563 117.144 186.555 116.652 187.372 116.325C187.982 116.081 189.198 115.487 189.548 115.262C189.694 115.169 189.95 114.983 190.118 114.85L190.468 114.574C190.497 114.552 190.713 114.628 191.018 114.764C191.295 114.888 191.677 115.036 191.868 115.094C192.188 115.192 192.27 115.2 192.986 115.202C193.856 115.203 194.183 115.144 194.736 114.883C195.348 114.593 195.533 114.366 195.612 113.803C195.688 113.266 195.608 112.968 195.265 112.509C195.178 112.394 195.218 112.319 195.455 112.151C195.78 111.921 195.834 111.761 195.834 111.028C195.834 110.245 195.817 110.208 195.153 109.529C194.56 108.924 194.082 108.306 193.734 107.695C193.09 106.563 192.866 106.264 192.549 106.115C192.188 105.945 191.259 105.881 188.411 105.827C185.421 105.77 184.471 105.702 183.588 105.483C182.861 105.302 182.428 105.059 181.598 104.365C181.045 103.902 180.978 103.883 179.865 103.882C178.877 103.88 178.284 103.93 177.425 104.087C176.771 104.207 176.383 104.217 176.102 104.122C175.861 104.03 175.624 103.929 175.39 103.821C175.11 103.693 174.79 103.561 174.678 103.525C173.884 103.277 173.176 103.365 172.573 103.791C172.021 104.18 171.647 104.693 170.915 106.068C170.662 106.543 170.235 107.32 169.965 107.795C168.935 109.609 168.611 110.585 168.568 111.991C168.535 113.075 168.626 113.52 169.201 115.091C169.511 115.939 169.511 115.935 169.511 118.396C169.511 119.806 169.493 120.82 169.459 121.247C169.277 123.559 169.061 125.444 168.819 126.849C168.567 128.312 168.397 128.793 167.987 129.201C167.47 129.714 166.737 129.881 164.995 129.881C163.524 129.881 162.857 129.776 162.167 129.435C161.031 128.874 159.611 127.479 158.36 125.698C157.831 124.944 157.36 124.183 156.606 122.862C154.405 119.011 153.228 117.545 150.869 115.715C149.448 114.612 148.736 113.563 148.153 111.71C147.559 109.826 146.664 108.474 145.236 107.304C143.517 105.896 142.036 105.414 139.405 105.41C138.335 105.409 137.872 105.454 137.177 105.63C135.72 105.997 134.735 106.734 134.142 107.904C133.915 108.351 133.794 108.827 133.359 110.988C132.919 113.17 132.677 114.011 132.227 114.923C131.912 115.559 131.57 116.025 131.021 116.567C130.355 117.223 129.895 117.447 129.489 117.316C129.155 117.207 128.982 116.926 127.74 114.481C126.599 112.233 126.296 111.665 125.832 110.901C125.03 109.581 124.36 108.983 123.448 108.772C123.186 108.712 122.966 108.699 122.175 108.702C121.072 108.707 120.945 108.729 120.121 109.078C117.955 109.996 116.273 111.355 115.749 112.61C115.47 113.276 114.396 116.598 113.757 118.768C113.393 120.006 113.246 120.408 112.937 121.016C112.549 121.782 112.345 122.038 111.351 123.014C110.698 123.654 110.324 124.058 110.067 124.4C109.127 125.645 108.308 127.126 107.33 129.348C105.845 132.722 105.33 134.455 105.167 136.623C105.097 137.55 105.139 139.643 105.271 141.827C105.402 143.998 105.397 144.907 105.251 145.361C105.143 145.695 104.821 146.341 104.581 146.706C104.259 147.194 104.07 147.346 102.586 148.31C102.058 148.653 101.576 149.002 101.325 149.225C100.271 150.158 99.577 151.331 99.487 152.331C99.457 152.661 99.521 152.88 99.657 152.914C99.918 152.978 101.431 152.271 103.292 151.214C104.269 150.661 104.847 150.292 105.572 149.762C106.305 149.224 106.542 149.078 106.734 149.048C106.847 149.028 106.879 149.04 106.921 149.119C107.168 149.575 108.163 153.587 108.971 157.383C109.695 160.784 109.847 161.963 109.848 164.18C109.848 165.924 109.736 167.15 109.458 168.426C109.214 169.544 109.185 169.864 109.21 171.161C109.234 172.349 109.28 173.009 109.582 176.441C109.872 179.745 109.927 181.117 109.852 183.207C109.765 185.584 109.428 190.68 109.215 192.805C109.078 194.179 108.978 194.662 108.67 195.45C108.368 196.221 108.258 196.625 108.233 197.061C108.195 197.71 108.343 198.106 108.79 198.547C109.346 199.095 110.133 199.249 111.903 199.153C114.305 199.024 114.686 198.916 114.565 198.4C114.505 198.143 114.518 197.992 114.605 197.946C114.649 197.922 114.836 197.904 115.022 197.904C115.461 197.904 115.822 197.844 115.95 197.751C116.032 197.679 116.101 197.594 116.154 197.499C116.238 197.354 116.256 197.269 116.256 197.021C116.256 196.754 116.24 196.691 116.113 196.459C115.943 196.147 115.499 195.691 115.015 195.334C113.545 194.249 112.513 193.033 112.352 192.197C112.095 190.866 112.135 187.025 112.451 182.726C112.624 180.371 112.689 179.252 112.736 177.786C112.785 176.271 112.816 176.1 113.203 175.216C113.409 174.749 113.646 173.929 113.813 173.111C114.014 172.128 114.053 171.816 114.052 171.161C114.052 170.487 113.97 170.057 113.734 169.481C113.532 168.989 113.497 168.727 113.551 168.134C113.69 166.622 113.982 165.221 114.427 163.933C114.767 162.95 115.064 162.281 115.778 160.887C116.763 158.967 117.127 158.127 117.268 157.456C117.508 156.303 117.547 153.987 117.344 152.89C117.3 152.631 117.277 152.369 117.274 152.107C117.276 151.753 117.29 151.676 117.393 151.452C117.54 151.132 117.827 150.868 118.118 150.782C118.505 150.669 118.721 150.723 118.97 150.995C119.277 151.331 119.505 151.885 119.999 153.495C120.657 155.607 121.349 157.708 122.075 159.797C123.893 165.057 124.324 166.732 124.819 170.458C125.209 173.389 125.509 174.53 126.428 176.562C126.72 177.207 127.804 179.327 128.502 180.617C129.932 183.259 130.665 185.159 131.33 187.946C131.745 189.684 132.01 190.505 132.4 191.259C132.583 191.612 132.66 191.711 133.047 192.086C133.534 192.559 133.544 192.584 133.397 192.91C133.327 193.063 133.304 193.206 133.29 193.571C133.267 194.191 133.33 194.421 133.59 194.646C133.832 194.856 134.447 195.155 134.803 195.236C135.149 195.313 136.113 195.371 137.092 195.373C137.852 195.374 138.646 195.433 138.707 195.493C138.763 195.548 138.707 195.662 138.36 196.205C137.94 196.862 137.84 197.074 137.84 197.305C137.839 197.551 138.01 197.881 138.337 198.265C139.047 199.097 139.871 199.45 141.521 199.629C142.475 199.733 144.315 199.779 144.794 199.709V199.71ZM138.492 191.86C138.08 191.646 137.608 191.257 136.839 190.498C136.055 189.724 135.753 189.366 135.227 188.588C134.209 187.081 133.455 185.061 132.369 180.938C131.454 177.463 131.004 175.28 130.772 173.188C130.671 172.282 130.673 169.287 130.775 167.988C130.866 166.835 130.906 164.419 130.846 163.692C130.813 163.303 130.778 162.915 130.74 162.527C130.553 160.654 130.597 157.463 130.818 156.831C130.858 156.717 130.893 156.681 130.98 156.671C131.157 156.65 131.597 156.801 132.376 157.151C133.569 157.684 134.405 157.931 135.377 158.033C136.36 158.136 137.637 157.943 138.463 157.567C138.635 157.488 138.792 157.433 138.81 157.444C138.875 157.484 138.9 158.094 138.938 160.474C138.985 163.5 139.029 164.151 139.345 166.431C139.614 168.37 139.644 168.712 139.645 169.896C139.648 171.073 139.615 171.4 139.384 172.426C139.156 173.436 139.098 173.979 139.098 175.075C139.098 176.325 139.218 177.323 139.531 178.67C140.305 182.008 140.396 184.918 139.833 188.293C139.611 189.627 139.098 191.798 138.969 191.951C138.901 192.032 138.782 192.01 138.492 191.859V191.86Z" fill="white"/>
<path opacity="0.25" d="M155.608 17V61.2306C155.608 70.141 162.867 77.1605 171.777 77.1605L216.009 77.1493V75.1493L155.608 17Z" fill="black"/>
<path d="M155.608 15V59.2306C155.608 68.141 162.867 75.1605 171.777 75.1605L216.009 75.1493L155.608 15Z" fill="url(#paint4_linear)"/>
<defs>
<filter id="filter0_f" x="23.8778" y="0.441412" width="207.255" height="255.418" filterUnits="userSpaceOnUse" color-interpolation-filters="sRGB">
<feFlood flood-opacity="0" result="BackgroundImageFix"/>
<feBlend mode="normal" in="SourceGraphic" in2="BackgroundImageFix" result="shape"/>
<feGaussianBlur stdDeviation="7.5611" result="effect1_foregroundBlur"/>
</filter>
<linearGradient id="paint0_linear" x1="39" y1="15" x2="39" y2="240.174" gradientUnits="userSpaceOnUse">
<stop offset="1e-07" stop-color="#4C5561"/>
<stop offset="1" stop-color="#2E3842"/>
</linearGradient>
<linearGradient id="paint1_linear" x1="39" y1="186.5" x2="39" y2="240.174" gradientUnits="userSpaceOnUse">
<stop offset="1e-07" stop-color="#FFD057"/>
<stop offset="0.5" stop-color="#FFA851"/>
<stop offset="1" stop-color="#F5820F"/>
</linearGradient>
<linearGradient id="paint2_linear" x1="39" y1="15" x2="39" y2="240.174" gradientUnits="userSpaceOnUse">
<stop offset="1e-07" stop-color="#FFD057"/>
<stop offset="0.5" stop-color="#FFA851"/>
<stop offset="1" stop-color="#F5820F"/>
</linearGradient>
<linearGradient id="paint3_linear" x1="61" y1="39" x2="61" y2="78.87" gradientUnits="userSpaceOnUse">
<stop offset="1e-07" stop-color="#F7FF57"/>
<stop offset="0.5" stop-color="#FFE251"/>
<stop offset="1" stop-color="#F5CF0F"/>
</linearGradient>
<linearGradient id="paint4_linear" x1="155.608" y1="15" x2="155.608" y2="75.1605" gradientUnits="userSpaceOnUse">
<stop offset="1e-07" stop-color="#FFD057"/>
<stop offset="0.5" stop-color="#FFA851"/>
<stop offset="1" stop-color="#F5820F"/>
</linearGradient>
</defs>
</svg>
