<svg width="256" height="256" viewBox="0 0 256 256" fill="none" xmlns="http://www.w3.org/2000/svg">
<g opacity="0.4" filter="url(#filter0_f)">
<path d="M55.0839 15.5636H155.608L216.009 75.7129L216.011 224.609C216.011 233.52 208.749 240.737 199.838 240.737H55.0838C46.1734 240.737 39 233.564 39 224.654V31.6474C39 22.737 46.1734 15.5636 55.0838 15.5636H55.0839Z" fill="black"/>
</g>
<path d="M55.0839 15H155.608L216.009 75.1493L216.011 224.045C216.011 232.956 208.749 240.174 199.838 240.174H55.0838C46.1734 240.174 39 233 39 224.09V31.0838C39 22.1734 46.1734 15 55.0838 15H55.0839Z" fill="#ECECEC"/>
<path fill-rule="evenodd" clip-rule="evenodd" d="M155.609 22.9787H55.0839C50.58 22.9787 46.9787 26.5799 46.9787 31.0838V224.09C46.9787 228.594 50.5799 232.195 55.0838 232.195H199.838C204.371 232.195 208.032 228.521 208.032 224.046V75.1493L155.609 22.9787ZM155.608 15H55.0839C46.1735 15 39 22.1734 39 31.0838V224.09C39 233 46.1734 240.174 55.0838 240.174H199.838C208.749 240.174 216.011 232.956 216.011 224.045L216.009 75.1493L155.608 15Z" fill="url(#paint0_linear)"/>
<rect x="80.5" y="69.75" width="95" height="120" fill="url(#paint1_linear)"/>
<rect x="80.5" y="69.75" width="20" height="120" fill="black" fill-opacity="0.4"/>
<path fill-rule="evenodd" clip-rule="evenodd" d="M142.107 110.876L141.648 110.76H137.612V110.398L138.213 109.921V106.312L137.504 106.099L137.714 105.68H141.584L142.043 105.563V107.21L141.693 107.352L140.908 106.17H139.368V107.913H140.129L140.594 107.191H140.952V109.069L140.537 109.282L140.121 108.411H139.368V110.263H140.856L141.757 108.946L142.107 109.095V110.876ZM145.613 110.25L144.967 110.766C144.823 110.801 144.651 110.818 144.45 110.818C144.042 110.818 143.743 110.724 143.553 110.537C143.364 110.35 143.27 110.06 143.27 109.669V107.894H142.58V107.552L143.953 106.041H144.355V107.468H145.504V107.894H144.355V109.624C144.355 109.921 144.521 110.07 144.853 110.07C144.938 110.07 145.022 110.055 145.105 110.027C145.188 109.999 145.293 109.951 145.421 109.881L145.613 110.25ZM148.077 108.126C147.924 108.126 147.77 108.195 147.617 108.333V110.076L148.588 110.334L148.384 110.753H145.963V110.391L146.532 109.908V108.442L145.963 108.081V107.72L147.292 107.151L147.535 107.868L148.115 107.261C148.205 107.227 148.309 107.21 148.429 107.21C148.649 107.21 148.84 107.261 149 107.365C149.16 107.468 149.272 107.61 149.335 107.79L148.722 108.565H148.319C148.315 108.41 148.294 108.299 148.256 108.233C148.218 108.166 148.158 108.132 148.077 108.132V108.126ZM153.804 110.334L153.6 110.753H152.144V110.199L151.455 110.773C151.339 110.807 151.21 110.825 151.065 110.825C150.738 110.825 150.478 110.735 150.286 110.556C150.094 110.378 149.998 110.136 149.998 109.83V108.442L149.431 108.114V107.751L150.682 107.191H151.085V109.346C151.085 109.553 151.114 109.697 151.174 109.779C151.234 109.861 151.34 109.902 151.493 109.902C151.714 109.902 151.932 109.828 152.144 109.682V108.442L151.576 108.114V107.751L152.827 107.191H153.229V110.14L153.804 110.334ZM156.033 109.934C156.033 109.852 155.977 109.769 155.867 109.685C155.756 109.601 155.586 109.495 155.356 109.366C155.13 109.236 154.949 109.126 154.813 109.033C154.677 108.941 154.559 108.835 154.459 108.717C154.359 108.599 154.309 108.471 154.309 108.333C154.309 108.178 154.382 108.012 154.529 107.835C154.676 107.659 154.855 107.511 155.068 107.39C155.281 107.27 155.477 107.21 155.656 107.21C155.873 107.21 156.127 107.234 156.419 107.284C156.711 107.333 156.922 107.388 157.054 107.448V108.526H156.651C156.537 108.311 156.4 108.143 156.24 108.023C156.08 107.902 155.915 107.842 155.745 107.842C155.66 107.842 155.592 107.867 155.541 107.916C155.489 107.966 155.464 108.025 155.464 108.094C155.464 108.184 155.52 108.272 155.633 108.358C155.746 108.445 155.926 108.559 156.173 108.701C156.5 108.882 156.753 109.045 156.93 109.191C157.106 109.338 157.195 109.506 157.195 109.695C157.195 109.854 157.119 110.021 156.968 110.195C156.817 110.369 156.632 110.517 156.412 110.637C156.193 110.758 155.992 110.818 155.809 110.818C155.575 110.818 155.297 110.793 154.975 110.744C154.655 110.694 154.426 110.639 154.289 110.579V109.463H154.691C154.82 109.691 154.977 109.868 155.164 109.995C155.351 110.122 155.536 110.185 155.719 110.185C155.813 110.185 155.889 110.16 155.947 110.111C156.004 110.062 156.033 110.003 156.033 109.934V109.934ZM159.799 107.21C159.999 107.21 160.231 107.234 160.495 107.284C160.759 107.333 160.951 107.388 161.07 107.448V108.649H160.667C160.506 108.429 160.323 108.259 160.119 108.138C159.915 108.018 159.702 107.958 159.48 107.958C159.323 107.958 159.202 108.032 159.119 108.181C159.036 108.329 158.995 108.542 158.995 108.817C158.995 109.165 159.069 109.454 159.216 109.682C159.362 109.91 159.572 110.024 159.844 110.024C160.121 110.024 160.519 109.888 161.038 109.617L161.23 109.986L160.31 110.721C160.068 110.785 159.789 110.818 159.474 110.818C159.163 110.818 158.883 110.744 158.634 110.596C158.385 110.447 158.191 110.244 158.054 109.986C157.915 109.727 157.846 109.441 157.846 109.126C157.846 108.786 157.947 108.469 158.149 108.175C158.351 107.88 158.606 107.645 158.912 107.471C159.219 107.297 159.514 107.21 159.799 107.21V107.21ZM165.712 110.334L165.508 110.753H164.051V110.192L163.33 110.766C163.245 110.801 163.138 110.818 163.011 110.818C162.603 110.818 162.308 110.717 162.126 110.515C161.946 110.312 161.855 110.069 161.855 109.785C161.855 109.617 161.906 109.453 162.009 109.292C162.111 109.13 162.258 108.98 162.449 108.843H164.051V108.733C164.051 108.496 163.988 108.322 163.86 108.21C163.732 108.098 163.562 108.042 163.349 108.042C163.051 108.042 162.662 108.161 162.181 108.397L161.989 108.03L162.877 107.306C163.094 107.242 163.347 107.21 163.637 107.21C164.114 107.21 164.483 107.319 164.744 107.539C165.006 107.758 165.137 108.077 165.137 108.494V110.108L165.712 110.334ZM163.337 109.953C163.553 109.953 163.792 109.863 164.051 109.682V109.268H163.023C162.99 109.32 162.965 109.369 162.951 109.414C162.936 109.459 162.928 109.509 162.928 109.565C162.928 109.673 162.965 109.764 163.04 109.837C163.114 109.91 163.213 109.946 163.337 109.946V109.953ZM168.247 107.21C168.693 107.21 169.039 107.382 169.284 107.726C169.528 108.07 169.646 108.548 169.638 109.159H167.34C167.382 109.421 167.474 109.631 167.614 109.788C167.755 109.946 167.938 110.024 168.164 110.024C168.461 110.024 168.889 109.874 169.447 109.572L169.638 109.94L168.668 110.721C168.417 110.785 168.125 110.818 167.793 110.818C167.482 110.818 167.203 110.744 166.954 110.596C166.705 110.447 166.511 110.244 166.372 109.986C166.234 109.727 166.165 109.441 166.165 109.126C166.165 108.786 166.273 108.469 166.491 108.175C166.708 107.88 166.979 107.645 167.305 107.471C167.63 107.297 167.944 107.21 168.247 107.21ZM167.895 107.958C167.708 107.958 167.568 108.022 167.474 108.149C167.381 108.276 167.329 108.471 167.32 108.733H168.54C168.506 108.466 168.443 108.27 168.352 108.145C168.26 108.02 168.106 107.958 167.888 107.958H167.895ZM110.784 110.869L110.324 110.753H106.25V110.391L106.851 109.914V106.287L106.143 106.099L106.353 105.68H108.613V106.041L108.006 106.519V110.263H109.444L110.433 108.817L110.784 108.965V110.869ZM113.536 110.334L113.325 110.753H111.307V110.391L111.876 109.908V108.411L111.307 108.03V107.668L112.559 107.151H112.962V110.14L113.536 110.334ZM112.412 105.208C112.595 105.208 112.745 105.267 112.862 105.386C112.979 105.504 113.038 105.652 113.038 105.828C113.038 105.952 112.995 106.069 112.91 106.176C112.825 106.284 112.719 106.37 112.591 106.435C112.463 106.499 112.34 106.532 112.22 106.532C112.042 106.532 111.894 106.472 111.777 106.354C111.66 106.236 111.601 106.088 111.601 105.912C111.601 105.787 111.644 105.671 111.729 105.563C111.814 105.456 111.92 105.369 112.045 105.305C112.171 105.24 112.293 105.208 112.412 105.208ZM118.312 110.334L118.101 110.753H116.652V108.688C116.652 108.485 116.621 108.342 116.559 108.259C116.497 108.174 116.39 108.132 116.237 108.132C116.011 108.132 115.787 108.205 115.566 108.352V110.14L116.141 110.334L115.93 110.753H113.913V110.391L114.481 109.908V108.442L113.913 108.081V107.72L115.241 107.151L115.489 107.9L116.282 107.261C116.397 107.227 116.526 107.21 116.671 107.21C116.994 107.21 117.253 107.299 117.447 107.477C117.64 107.656 117.737 107.898 117.737 108.203V110.14L118.312 110.334ZM122.449 107.9H121.792C121.864 108.038 121.9 108.184 121.9 108.339C121.9 108.602 121.79 108.855 121.571 109.098C121.352 109.341 121.08 109.525 120.757 109.649C120.646 109.779 120.591 109.908 120.591 110.037C120.591 110.097 120.638 110.156 120.731 110.215C120.825 110.273 120.972 110.347 121.173 110.437C121.466 110.566 121.691 110.686 121.848 110.795C122.006 110.905 122.085 111.033 122.085 111.179C122.085 111.317 122 111.488 121.83 111.692C121.659 111.897 121.447 112.075 121.194 112.228C120.941 112.381 120.695 112.458 120.457 112.458C120.198 112.458 119.889 112.417 119.531 112.335C119.174 112.253 118.876 112.171 118.638 112.09V110.934H119.039C119.248 111.218 119.46 111.434 119.675 111.583C119.89 111.731 120.133 111.806 120.406 111.806C120.546 111.806 120.664 111.775 120.76 111.713C120.856 111.65 120.904 111.584 120.904 111.515C120.904 111.417 120.847 111.329 120.735 111.254C120.622 111.178 120.449 111.087 120.214 110.979C119.964 110.868 119.774 110.768 119.646 110.679C119.519 110.591 119.455 110.489 119.455 110.373C119.455 110.269 119.532 110.164 119.687 110.056C119.843 109.949 120.03 109.854 120.246 109.772C120.161 109.781 120.097 109.785 120.055 109.785C119.795 109.785 119.558 109.734 119.343 109.63C119.128 109.527 118.959 109.388 118.835 109.214C118.712 109.04 118.65 108.853 118.65 108.655C118.65 108.41 118.74 108.175 118.918 107.952C119.097 107.728 119.329 107.548 119.614 107.413C119.899 107.277 120.191 107.21 120.489 107.21C120.83 107.21 121.13 107.296 121.389 107.468H122.443L122.449 107.9ZM120.431 109.049C120.568 109.049 120.673 109.016 120.747 108.949C120.822 108.883 120.859 108.783 120.859 108.649C120.859 108.438 120.792 108.271 120.658 108.149C120.524 108.026 120.346 107.965 120.125 107.965C119.844 107.965 119.703 108.092 119.703 108.346C119.703 108.552 119.77 108.721 119.905 108.853C120.039 108.984 120.214 109.049 120.431 109.049ZM126.956 110.334L126.752 110.753H125.297V110.199L124.608 110.773C124.492 110.807 124.362 110.825 124.217 110.825C123.89 110.825 123.63 110.735 123.438 110.556C123.247 110.378 123.151 110.136 123.151 109.83V108.442L122.582 108.114V107.751L123.835 107.191H124.237V109.346C124.237 109.553 124.266 109.697 124.326 109.779C124.386 109.861 124.492 109.902 124.645 109.902C124.866 109.902 125.084 109.828 125.297 109.682V108.442L124.728 108.114V107.751L125.979 107.191H126.382V110.14L126.956 110.334ZM131.221 110.334L131.018 110.753H129.561V110.192L128.84 110.766C128.755 110.801 128.649 110.818 128.521 110.818C128.112 110.818 127.817 110.717 127.637 110.515C127.456 110.312 127.365 110.069 127.365 109.785C127.365 109.617 127.416 109.453 127.518 109.292C127.621 109.13 127.768 108.98 127.96 108.843H129.561V108.733C129.561 108.496 129.497 108.322 129.369 108.21C129.242 108.098 129.072 108.042 128.859 108.042C128.561 108.042 128.172 108.161 127.69 108.397L127.499 108.03L128.386 107.306C128.604 107.242 128.857 107.21 129.147 107.21C129.624 107.21 129.993 107.319 130.254 107.539C130.516 107.758 130.647 108.077 130.647 108.494V110.108L131.221 110.334ZM128.846 109.953C129.063 109.953 129.302 109.863 129.561 109.682V109.268H128.534C128.5 109.32 128.475 109.369 128.46 109.414C128.445 109.459 128.438 109.509 128.438 109.565C128.438 109.673 128.475 109.764 128.549 109.837C128.624 109.91 128.723 109.946 128.846 109.946V109.953ZM133.756 107.21C134.203 107.21 134.549 107.382 134.794 107.726C135.038 108.07 135.157 108.548 135.149 109.159H132.849C132.892 109.421 132.984 109.631 133.124 109.788C133.265 109.946 133.448 110.024 133.673 110.024C133.971 110.024 134.399 109.874 134.956 109.572L135.149 109.94L134.178 110.721C133.926 110.785 133.635 110.818 133.303 110.818C132.992 110.818 132.713 110.744 132.463 110.596C132.215 110.447 132.021 110.244 131.883 109.986C131.744 109.727 131.675 109.441 131.675 109.126C131.675 108.786 131.783 108.469 132.001 108.175C132.217 107.88 132.489 107.645 132.814 107.471C133.14 107.297 133.454 107.21 133.756 107.21ZM133.405 107.958C133.218 107.958 133.077 108.022 132.984 108.149C132.89 108.276 132.839 108.471 132.83 108.733H134.05C134.016 108.466 133.953 108.27 133.862 108.145C133.77 108.02 133.616 107.958 133.399 107.958H133.405ZM116.559 92.5918V95.1275L116.058 95.3308L114.771 93.4587H113.923V99.1392L114.945 99.406L114.644 100.006H111.415V99.4891L112.272 98.8074V93.4587H111.461L110.175 95.3308L109.673 95.1275V92.5918L110.329 92.7573H115.903L116.559 92.5918ZM123.464 99.406L123.163 100.006H121.093V97.0547C121.093 96.766 121.049 96.5617 120.96 96.4418C120.872 96.3219 120.718 96.2619 120.499 96.2619C120.177 96.2619 119.858 96.3665 119.542 96.5756V99.1301L120.363 99.406L120.062 100.006H117.179V99.4891L117.991 98.7976V93.7534L117.179 93.21V92.693L118.967 91.9554H119.542V95.8462L120.563 95.0164C120.727 94.968 120.913 94.9438 121.12 94.9438C121.582 94.9438 121.951 95.0713 122.227 95.3262C122.505 95.5812 122.643 95.9268 122.643 96.3632V99.1301L123.464 99.406ZM127.076 94.9438C127.714 94.9438 128.208 95.1897 128.558 95.6815C128.907 96.1732 129.076 96.8555 129.064 97.7281H125.78C125.841 98.1035 125.972 98.4031 126.173 98.6268C126.373 98.8515 126.635 98.9639 126.957 98.9639C127.383 98.9639 127.994 98.7487 128.791 98.3184L129.064 98.8437L127.678 99.96C127.319 100.052 126.902 100.098 126.428 100.098C125.984 100.098 125.584 99.9917 125.229 99.7801C124.873 99.568 124.596 99.2775 124.399 98.9087C124.201 98.5399 124.102 98.131 124.102 97.682C124.102 97.1963 124.257 96.7428 124.568 96.3216C124.877 95.9009 125.265 95.5658 125.73 95.3164C126.195 95.068 126.644 94.9438 127.076 94.9438V94.9438ZM126.574 96.0125C126.306 96.0125 126.106 96.1034 125.972 96.2853C125.838 96.4667 125.765 96.7449 125.753 97.1197H127.495C127.446 96.7388 127.357 96.4589 127.225 96.28C127.095 96.1017 126.875 96.0125 126.565 96.0125H126.574ZM132.639 98.8346C132.639 98.7177 132.56 98.5993 132.402 98.4794C132.244 98.36 132.001 98.2081 131.673 98.0237C131.351 97.8387 131.092 97.6803 130.897 97.5483C130.702 97.4163 130.534 97.2656 130.391 97.0963C130.248 96.927 130.177 96.7444 130.177 96.5484C130.177 96.3267 130.282 96.0896 130.491 95.8371C130.701 95.5857 130.958 95.3738 131.262 95.2015C131.566 95.0297 131.846 94.9438 132.102 94.9438C132.412 94.9438 132.775 94.9788 133.191 95.0489C133.608 95.1199 133.91 95.1985 134.098 95.2847V96.8242H133.524C133.36 96.5169 133.164 96.277 132.936 96.1047C132.708 95.9324 132.472 95.8462 132.229 95.8462C132.108 95.8462 132.01 95.8817 131.937 95.9528C131.864 96.0233 131.828 96.108 131.828 96.2067C131.828 96.3357 131.909 96.4617 132.069 96.5846C132.23 96.7076 132.487 96.8706 132.84 97.0736C133.308 97.3321 133.668 97.5657 133.92 97.7742C134.173 97.9834 134.299 98.2229 134.299 98.493C134.299 98.7208 134.191 98.9593 133.976 99.2087C133.76 99.4572 133.495 99.6675 133.182 99.8398C132.869 100.012 132.582 100.098 132.32 100.098C131.986 100.098 131.589 100.063 131.13 99.9925C130.671 99.9215 130.344 99.8429 130.149 99.7567V98.162H130.724C130.906 98.4875 131.131 98.7409 131.399 98.9223C131.667 99.1042 131.931 99.1951 132.193 99.1951C132.326 99.1951 132.434 99.1596 132.517 99.0886C132.598 99.018 132.639 98.9334 132.639 98.8346ZM140.648 99.406L140.356 100.006H138.276V99.2042L137.246 100.025C137.124 100.073 136.972 100.098 136.789 100.098C136.206 100.098 135.785 99.9532 135.527 99.6645C135.268 99.3753 135.139 99.0279 135.139 98.6223C135.139 98.3829 135.212 98.1479 135.358 97.9171C135.504 97.6863 135.713 97.4727 135.987 97.2762H138.276V97.1197C138.276 96.7816 138.185 96.5327 138.003 96.373C137.82 96.2128 137.577 96.1327 137.273 96.1327C136.847 96.1327 136.29 96.302 135.603 96.6406L135.33 96.1145L136.598 95.0814C136.908 94.9897 137.27 94.9438 137.683 94.9438C138.365 94.9438 138.892 95.1005 139.266 95.4139C139.64 95.7268 139.827 96.1815 139.827 96.7781V99.084L140.648 99.406ZM137.255 98.8626C137.565 98.8626 137.906 98.7334 138.276 98.4749V97.8846H136.807C136.759 97.9587 136.724 98.0279 136.703 98.0924C136.681 98.1569 136.671 98.2292 136.671 98.3094C136.671 98.4625 136.724 98.5915 136.831 98.6963C136.937 98.8011 137.079 98.8535 137.255 98.8535V98.8626ZM147.169 99.406L146.877 100.006H144.798V99.2133L143.813 100.034C143.649 100.083 143.463 100.107 143.256 100.107C142.788 100.107 142.417 99.9799 142.144 99.725C141.87 99.4695 141.733 99.1236 141.733 98.6872V96.704L140.921 96.2339V95.7185L142.709 94.9158H143.283V97.9957C143.283 98.2905 143.326 98.4963 143.411 98.6132C143.496 98.7301 143.649 98.7885 143.868 98.7885C144.184 98.7885 144.494 98.684 144.798 98.4749V96.704L143.986 96.2339V95.7185L145.773 94.9158H146.348V99.1301L147.169 99.406ZM150.727 96.2528C150.508 96.2528 150.289 96.3513 150.069 96.5484V99.0379L151.456 99.406L151.164 100.006H147.707V99.4891L148.519 98.7976V96.704L147.707 96.1878V95.6716L149.604 94.8607L149.951 95.8833L150.781 95.0164C150.909 94.968 151.058 94.9438 151.228 94.9438C151.544 94.9438 151.816 95.0174 152.044 95.1645C152.273 95.3121 152.432 95.5152 152.523 95.7737L151.648 96.8794H151.073C151.067 96.6587 151.036 96.5005 150.981 96.4048C150.927 96.3095 150.842 96.2619 150.727 96.2619V96.2528ZM158.908 99.406L158.616 100.006H156.536V99.2133L155.551 100.034C155.387 100.083 155.202 100.107 154.996 100.107C154.527 100.107 154.156 99.9799 153.883 99.725C153.609 99.4695 153.471 99.1236 153.471 98.6872V96.704L152.66 96.2339V95.7185L154.448 94.9158H155.023V97.9957C155.023 98.2905 155.065 98.4963 155.15 98.6132C155.235 98.7301 155.387 98.7885 155.606 98.7885C155.922 98.7885 156.232 98.684 156.536 98.4749V96.704L155.725 96.2339V95.7185L157.513 94.9158H158.087V99.1301L158.908 99.406ZM162.091 98.8346C162.091 98.7177 162.012 98.5993 161.854 98.4794C161.696 98.36 161.453 98.2081 161.124 98.0237C160.802 97.8387 160.544 97.6803 160.349 97.5483C160.154 97.4163 159.986 97.2656 159.843 97.0963C159.7 96.927 159.628 96.7444 159.628 96.5484C159.628 96.3267 159.733 96.0896 159.944 95.8371C160.153 95.5857 160.41 95.3738 160.714 95.2015C161.018 95.0297 161.297 94.9438 161.553 94.9438C161.863 94.9438 162.226 94.9788 162.642 95.0489C163.059 95.1199 163.362 95.1985 163.55 95.2847V96.8242H162.976C162.811 96.5169 162.615 96.277 162.388 96.1047C162.16 95.9324 161.924 95.8462 161.681 95.8462C161.559 95.8462 161.462 95.8817 161.389 95.9528C161.316 96.0233 161.279 96.108 161.279 96.2067C161.279 96.3357 161.36 96.4617 161.521 96.5846C161.682 96.7076 161.939 96.8706 162.292 97.0736C162.76 97.3321 163.12 97.5657 163.373 97.7742C163.625 97.9834 163.751 98.2229 163.751 98.493C163.751 98.7208 163.643 98.9593 163.428 99.2087C163.212 99.4572 162.947 99.6675 162.634 99.8398C162.321 100.012 162.033 100.098 161.772 100.098C161.437 100.098 161.04 100.063 160.581 99.9925C160.122 99.9215 159.796 99.8429 159.601 99.7567V98.162H160.175C160.358 98.4875 160.583 98.7409 160.851 98.9223C161.118 99.1042 161.383 99.1951 161.644 99.1951C161.778 99.1951 161.886 99.1596 161.968 99.0886C162.05 99.018 162.091 98.9334 162.091 98.8346V98.8346ZM136.742 165.704C136.951 165.704 137.117 165.646 137.239 165.53C137.362 165.415 137.423 165.256 137.423 165.053C137.423 164.765 137.351 164.53 137.207 164.348C137.064 164.165 136.854 164.073 136.579 164.073C136.369 164.073 136.177 164.134 136.005 164.256V167.114L136.722 167.316L136.63 167.502H134.989V167.358L135.425 167.011V164.162L134.943 164.003L135.036 163.816H135.574C135.873 163.816 136.168 163.807 136.458 163.788C136.675 163.775 136.834 163.769 136.936 163.769C137.152 163.769 137.345 163.815 137.513 163.908C137.681 163.999 137.812 164.126 137.905 164.289C137.997 164.451 138.043 164.631 138.043 164.828C138.043 165.046 137.965 165.252 137.808 165.446C137.65 165.64 137.449 165.791 137.205 165.9C136.961 166.009 136.721 166.058 136.487 166.046L136.269 165.886L136.361 165.699H136.737L136.742 165.704ZM141.083 167.311L140.991 167.498H140.11V167.09L139.587 167.507C139.525 167.532 139.448 167.545 139.355 167.545C139.089 167.545 138.896 167.478 138.778 167.344C138.659 167.209 138.599 167.048 138.599 166.861C138.599 166.749 138.64 166.638 138.72 166.528C138.801 166.419 138.915 166.316 139.063 166.219H140.11V165.92C140.11 165.717 140.057 165.573 139.95 165.488C139.844 165.404 139.698 165.362 139.512 165.362C139.321 165.362 139.086 165.479 138.808 165.713L138.669 165.535L139.336 165.001C139.46 164.976 139.608 164.964 139.781 164.964C140.062 164.964 140.28 165.033 140.434 165.172C140.589 165.311 140.666 165.513 140.666 165.779V167.146L141.083 167.311ZM139.503 167.146C139.692 167.146 139.894 167.059 140.11 166.884V166.411H139.29C139.25 166.461 139.221 166.511 139.204 166.561C139.188 166.611 139.179 166.666 139.179 166.725C139.179 166.84 139.208 166.94 139.267 167.022C139.326 167.105 139.404 167.146 139.503 167.146V167.146ZM142.747 167.311L142.654 167.498H141.361V167.353L141.774 167.025V164.144L141.361 163.853V163.708L142.154 163.408H142.33V167.146L142.747 167.311ZM144.456 167.311L144.363 167.498H143.071V167.353L143.484 167.025V164.144L143.071 163.853V163.708L143.864 163.408H144.04V167.146L144.456 167.311ZM146.338 164.964C146.542 164.964 146.725 165.017 146.887 165.125C147.05 165.233 147.176 165.379 147.267 165.564C147.358 165.748 147.404 165.951 147.404 166.173C147.404 166.413 147.331 166.639 147.186 166.849C147.041 167.06 146.859 167.229 146.641 167.355C146.424 167.481 146.213 167.545 146.009 167.545C145.805 167.545 145.622 167.491 145.46 167.384C145.298 167.276 145.171 167.13 145.08 166.946C144.989 166.761 144.944 166.558 144.944 166.337C144.944 166.096 145.016 165.87 145.161 165.66C145.306 165.449 145.488 165.28 145.705 165.153C145.923 165.027 146.134 164.964 146.338 164.964ZM146.069 165.357C145.72 165.357 145.546 165.609 145.546 166.111C145.546 166.408 145.609 166.656 145.735 166.854C145.862 167.052 146.043 167.152 146.278 167.152C146.627 167.152 146.801 166.899 146.801 166.393C146.801 166.099 146.738 165.853 146.611 165.654C146.485 165.456 146.304 165.357 146.069 165.357ZM149.772 167.133L149.303 167.507C149.232 167.532 149.146 167.545 149.044 167.545C148.788 167.545 148.6 167.477 148.481 167.341C148.362 167.205 148.303 166.995 148.303 166.711V165.343H147.802V165.151L148.683 164.116H148.859V165.151H149.693V165.343H148.859V166.767C148.859 167.02 148.98 167.146 149.22 167.146C149.285 167.146 149.348 167.132 149.409 167.105C149.468 167.077 149.543 167.027 149.633 166.955L149.772 167.133ZM151.884 167.133L151.416 167.507C151.346 167.532 151.259 167.545 151.157 167.545C150.9 167.545 150.713 167.477 150.594 167.341C150.475 167.205 150.416 166.995 150.416 166.711V165.343H149.915V165.151L150.796 164.116H150.972V165.151H151.806V165.343H150.972V166.767C150.972 167.02 151.092 167.146 151.333 167.146C151.398 167.146 151.461 167.132 151.521 167.105C151.581 167.077 151.656 167.027 151.745 166.955L151.884 167.133ZM153.595 167.311L153.502 167.498H152.21V167.353L152.622 167.025V165.657L152.21 165.366V165.221L153.001 164.921H153.178V167.146L153.595 167.311ZM152.881 163.516C152.974 163.516 153.05 163.551 153.11 163.619C153.171 163.688 153.201 163.773 153.201 163.877C153.201 163.948 153.179 164.016 153.136 164.081C153.092 164.145 153.038 164.195 152.974 164.233C152.909 164.27 152.846 164.289 152.784 164.289C152.691 164.289 152.615 164.254 152.554 164.186C152.494 164.117 152.465 164.031 152.465 163.928C152.465 163.857 152.486 163.789 152.529 163.724C152.572 163.66 152.626 163.609 152.691 163.572C152.756 163.535 152.819 163.516 152.881 163.516ZM156.973 167.316L156.879 167.502H156V165.924C156 165.752 155.973 165.632 155.92 165.564C155.868 165.495 155.774 165.46 155.638 165.46C155.536 165.46 155.435 165.479 155.334 165.517C155.234 165.554 155.116 165.626 154.98 165.732V167.152L155.397 167.316L155.304 167.502H154.012V167.358L154.424 167.029V165.704L154.012 165.46V165.315L154.804 164.921L154.957 165.53L155.615 165.001C155.679 164.976 155.764 164.964 155.87 164.964C156.08 164.964 156.247 165.028 156.37 165.158C156.494 165.288 156.556 165.464 156.556 165.685V167.146L156.973 167.316ZM158.807 164.964C159.011 164.964 159.194 165.017 159.357 165.125C159.519 165.233 159.646 165.379 159.737 165.564C159.828 165.748 159.873 165.951 159.873 166.173C159.873 166.413 159.801 166.639 159.656 166.849C159.51 167.06 159.329 167.229 159.111 167.355C158.894 167.481 158.683 167.545 158.479 167.545C158.275 167.545 158.092 167.491 157.93 167.384C157.767 167.276 157.64 167.13 157.549 166.946C157.459 166.761 157.413 166.558 157.413 166.337C157.413 166.096 157.486 165.87 157.631 165.66C157.776 165.449 157.957 165.28 158.176 165.153C158.393 165.027 158.604 164.964 158.807 164.964ZM158.539 165.357C158.19 165.357 158.016 165.609 158.016 166.111C158.016 166.408 158.079 166.656 158.205 166.854C158.332 167.052 158.513 167.152 158.748 167.152C159.096 167.152 159.271 166.899 159.271 166.393C159.271 166.099 159.208 165.853 159.081 165.654C158.954 165.456 158.774 165.357 158.539 165.357ZM115.402 167.316L115.31 167.502H113.901V167.358L114.337 167.011V164.419L113.1 167.502H112.845L111.616 164.388V167.067L112.104 167.316L112.01 167.502H110.926V167.358L111.361 167.011V164.265L110.88 164.003L110.973 163.816H111.979L113.137 166.758L114.291 163.816H115.356V163.961L114.916 164.308V167.142L115.402 167.316ZM118.396 167.311L118.304 167.498H117.422V167.09L116.899 167.507C116.837 167.532 116.76 167.545 116.668 167.545C116.402 167.545 116.21 167.478 116.09 167.344C115.972 167.209 115.912 167.048 115.912 166.861C115.912 166.749 115.952 166.638 116.033 166.528C116.113 166.419 116.228 166.316 116.376 166.219H117.422V165.92C117.422 165.717 117.369 165.573 117.263 165.488C117.156 165.404 117.011 165.362 116.826 165.362C116.634 165.362 116.399 165.479 116.121 165.713L115.982 165.535L116.649 165.001C116.773 164.976 116.921 164.964 117.094 164.964C117.375 164.964 117.593 165.033 117.747 165.172C117.901 165.311 117.978 165.513 117.978 165.779V167.146L118.396 167.311ZM116.816 167.146C117.004 167.146 117.206 167.059 117.422 166.884V166.411H116.602C116.562 166.461 116.534 166.511 116.517 166.561C116.5 166.611 116.492 166.666 116.492 166.725C116.492 166.84 116.521 166.94 116.58 167.022C116.639 167.105 116.717 167.146 116.816 167.146ZM120.258 166.992C120.258 166.905 120.211 166.825 120.115 166.751C120.02 166.678 119.873 166.59 119.675 166.487C119.514 166.402 119.385 166.328 119.286 166.266C119.187 166.204 119.102 166.131 119.033 166.048C118.963 165.966 118.929 165.876 118.929 165.779C118.929 165.667 118.975 165.546 119.068 165.418C119.161 165.29 119.275 165.182 119.411 165.095C119.547 165.007 119.673 164.964 119.79 164.964C119.932 164.964 120.097 164.981 120.285 165.017C120.471 165.053 120.606 165.093 120.69 165.137V165.858H120.513C120.415 165.665 120.3 165.514 120.17 165.406C120.041 165.298 119.909 165.244 119.773 165.244C119.677 165.244 119.6 165.27 119.541 165.322C119.482 165.373 119.453 165.438 119.453 165.517C119.453 165.614 119.503 165.7 119.603 165.777C119.703 165.853 119.856 165.943 120.06 166.046C120.217 166.127 120.344 166.197 120.44 166.257C120.536 166.316 120.616 166.385 120.682 166.465C120.749 166.545 120.782 166.633 120.782 166.73C120.782 166.846 120.734 166.967 120.637 167.093C120.539 167.219 120.421 167.326 120.28 167.414C120.139 167.501 120.01 167.545 119.893 167.545C119.742 167.545 119.562 167.527 119.352 167.491C119.144 167.455 118.995 167.415 118.906 167.372V166.651H119.082C119.19 166.843 119.318 166.994 119.467 167.102C119.615 167.21 119.764 167.264 119.915 167.264C120.017 167.264 120.1 167.238 120.163 167.184C120.227 167.131 120.258 167.067 120.258 166.992V166.992ZM122.849 166.992C122.849 166.905 122.801 166.825 122.705 166.751C122.609 166.678 122.463 166.59 122.266 166.487C122.105 166.402 121.975 166.328 121.876 166.266C121.777 166.204 121.693 166.131 121.623 166.048C121.554 165.966 121.519 165.876 121.519 165.779C121.519 165.667 121.566 165.546 121.659 165.418C121.751 165.29 121.865 165.182 122.001 165.095C122.137 165.007 122.264 164.964 122.381 164.964C122.523 164.964 122.688 164.981 122.875 165.017C123.062 165.053 123.197 165.093 123.28 165.137V165.858H123.104C123.005 165.665 122.891 165.514 122.761 165.406C122.631 165.298 122.498 165.244 122.362 165.244C122.267 165.244 122.19 165.27 122.131 165.322C122.072 165.373 122.043 165.438 122.043 165.517C122.043 165.614 122.093 165.7 122.193 165.777C122.294 165.853 122.446 165.943 122.65 166.046C122.808 166.127 122.935 166.197 123.03 166.257C123.125 166.316 123.206 166.385 123.273 166.465C123.34 166.545 123.373 166.633 123.373 166.73C123.373 166.846 123.324 166.967 123.226 167.093C123.129 167.219 123.011 167.326 122.87 167.414C122.729 167.501 122.6 167.545 122.483 167.545C122.332 167.545 122.152 167.527 121.943 167.491C121.735 167.455 121.585 167.415 121.496 167.372V166.651H121.672C121.78 166.843 121.908 166.994 122.056 167.102C122.205 167.21 122.355 167.264 122.506 167.264C122.608 167.264 122.69 167.238 122.754 167.184C122.817 167.131 122.849 167.067 122.849 166.992V166.992ZM125.333 167.311L125.24 167.498H123.947V167.353L124.36 167.025V165.657L123.947 165.366V165.221L124.74 164.921H124.916V167.146L125.333 167.311ZM124.62 163.516C124.712 163.516 124.788 163.551 124.848 163.619C124.909 163.688 124.939 163.773 124.939 163.877C124.939 163.948 124.917 164.016 124.874 164.081C124.831 164.145 124.777 164.195 124.712 164.233C124.647 164.27 124.584 164.289 124.522 164.289C124.429 164.289 124.352 164.254 124.292 164.186C124.232 164.117 124.202 164.031 124.202 163.928C124.202 163.857 124.224 163.789 124.267 163.724C124.31 163.66 124.364 163.609 124.429 163.572C124.494 163.535 124.558 163.516 124.62 163.516ZM130.198 167.311L130.106 167.498H129.225V165.92C129.225 165.748 129.199 165.628 129.147 165.559C129.094 165.49 129 165.456 128.864 165.456C128.768 165.456 128.674 165.473 128.581 165.509C128.489 165.546 128.379 165.617 128.252 165.722V167.146L128.669 167.311L128.576 167.498H127.696V165.92C127.696 165.748 127.67 165.628 127.618 165.559C127.565 165.49 127.471 165.456 127.335 165.456C127.239 165.456 127.145 165.473 127.052 165.509C126.959 165.546 126.85 165.617 126.723 165.722V167.146L127.139 167.311L127.047 167.498H125.754V167.353L126.167 167.025V165.699L125.754 165.456V165.31L126.547 164.917L126.695 165.517L127.311 164.997C127.377 164.972 127.462 164.959 127.566 164.959C127.746 164.959 127.894 165.008 128.011 165.106C128.129 165.205 128.203 165.34 128.234 165.512L128.836 165.001C128.901 164.976 128.986 164.964 129.091 164.964C129.301 164.964 129.468 165.028 129.591 165.158C129.715 165.288 129.777 165.464 129.777 165.685V167.146L130.198 167.311ZM132.028 164.964C132.232 164.964 132.415 165.017 132.578 165.125C132.74 165.233 132.867 165.379 132.958 165.564C133.049 165.748 133.094 165.951 133.094 166.173C133.094 166.413 133.022 166.639 132.877 166.849C132.732 167.06 132.55 167.229 132.332 167.355C132.115 167.481 131.904 167.545 131.7 167.545C131.496 167.545 131.313 167.491 131.151 167.384C130.988 167.276 130.862 167.13 130.771 166.946C130.68 166.761 130.634 166.558 130.634 166.337C130.634 166.096 130.707 165.87 130.852 165.66C130.997 165.449 131.178 165.28 131.396 165.153C131.614 165.027 131.825 164.964 132.028 164.964ZM131.76 165.357C131.411 165.357 131.237 165.609 131.237 166.111C131.237 166.408 131.3 166.656 131.426 166.854C131.553 167.052 131.734 167.152 131.969 167.152C132.317 167.152 132.492 166.899 132.492 166.393C132.492 166.099 132.429 165.853 132.303 165.654C132.176 165.456 131.995 165.357 131.76 165.357Z" fill="white" fill-opacity="0.6"/>
<path d="M147.5 66.25H162.75V108.75L155.125 102.75L147.5 108.75V66.25Z" fill="url(#paint2_linear)"/>
<path opacity="0.25" d="M155.608 17V61.2306C155.608 70.141 162.867 77.1605 171.777 77.1605L216.009 77.1493V75.1493L155.608 17Z" fill="black"/>
<path d="M155.608 15V59.2306C155.608 68.141 162.867 75.1605 171.777 75.1605L216.009 75.1493L155.608 15Z" fill="url(#paint3_linear)"/>
<defs>
<filter id="filter0_f" x="23.8778" y="0.441412" width="207.255" height="255.418" filterUnits="userSpaceOnUse" color-interpolation-filters="sRGB">
<feFlood flood-opacity="0" result="BackgroundImageFix"/>
<feBlend mode="normal" in="SourceGraphic" in2="BackgroundImageFix" result="shape"/>
<feGaussianBlur stdDeviation="7.5611" result="effect1_foregroundBlur"/>
</filter>
<linearGradient id="paint0_linear" x1="39" y1="15" x2="39" y2="240.174" gradientUnits="userSpaceOnUse">
<stop offset="1e-07" stop-color="#EDC268"/>
<stop offset="1" stop-color="#9B7424"/>
</linearGradient>
<linearGradient id="paint1_linear" x1="80.5" y1="69.75" x2="80.5" y2="189.75" gradientUnits="userSpaceOnUse">
<stop offset="1e-07" stop-color="#EDC268"/>
<stop offset="1" stop-color="#9B7424"/>
</linearGradient>
<linearGradient id="paint2_linear" x1="156.193" y1="66.25" x2="157.376" y2="109.147" gradientUnits="userSpaceOnUse">
<stop stop-color="#FFEB00"/>
<stop offset="1" stop-color="#FFA100"/>
</linearGradient>
<linearGradient id="paint3_linear" x1="155.608" y1="15" x2="155.608" y2="75.1605" gradientUnits="userSpaceOnUse">
<stop offset="1e-07" stop-color="#EDC268"/>
<stop offset="1" stop-color="#9B7424"/>
</linearGradient>
</defs>
</svg>
