<?xml version="1.0" standalone="no"?><!-- Generator: Gravit.io --><svg xmlns="http://www.w3.org/2000/svg" xmlns:xlink="http://www.w3.org/1999/xlink" style="isolation:isolate" viewBox="0 0 16 16" width="16" height="16"><g id="bookshelf"><path d=" M 0 11.2 L 0 13.6 L 1.6 13.6 L 1.6 15.2 C 1.6 15.641828 1.958172 16 2.4 16 C 2.841828 16 3.2 15.641828 3.2 15.2 L 3.2 13.6 L 12.8 13.6 L 12.8 15.2 C 12.8 15.641828 13.158172 16 13.6 16 C 14.041828 16 14.4 15.641828 14.4 15.2 L 14.4 13.6 L 16 13.6 L 16 11.2 L 0 11.2 Z " id="shelf" fill="#5c616c"/><g id="book 1"><rect x="0.8" y="2.4" width="3.2" height="5.6" transform="matrix(1,0,0,1,0,0)" id="Rectangle" fill="#5c616c"/><rect x="0.8" y="0" width="3.2" height="1.6" transform="matrix(1,0,0,1,0,0)" id="Rectangle" fill="#5c616c"/><rect x="0.8" y="8.8" width="3.2" height="1.6" transform="matrix(1,0,0,1,0,0)" id="Rectangle" fill="#5c616c"/></g><g id="book 2"><rect x="4.862" y="2.4" width="3.2" height="5.6" transform="matrix(1,0,0,1,0,0)" id="Rectangle" fill="#5c616c"/><rect x="4.8" y="8.8" width="3.2" height="1.6" transform="matrix(1,0,0,1,0,0)" id="Rectangle" fill="#5c616c"/><rect x="4.862" y="0" width="3.2" height="1.6" transform="matrix(1,0,0,1,0,0)" id="Rectangle" fill="#5c616c"/></g><g id="book 3"><rect x="8.8" y="3.2" width="2.4" height="0.8" transform="matrix(1,0,0,1,0,0)" id="Rectangle" fill="#5c616c"/><rect x="8.8" y="9.6" width="2.4" height="0.8" transform="matrix(1,0,0,1,0,0)" id="Rectangle" fill="#5c616c"/><rect x="8.8" y="4.8" width="2.4" height="4" transform="matrix(1,0,0,1,0,0)" id="Rectangle" fill="#5c616c"/></g><g id="book 4"><rect x="12.744" y="4.626" width="2.4" height="4" transform="matrix(0.976699,-0.214616,0.214616,0.976699,-1.097078,3.146942)" id="Rectangle" fill="#5c616c"/><rect x="13.43" y="9.351" width="2.4" height="0.8" transform="matrix(0.976699,-0.214616,0.214616,0.976699,-1.751843,3.367114)" id="Rectangle" fill="#5c616c"/><rect x="12.057" y="3.1" width="2.4" height="0.8" transform="matrix(0.976699,-0.214616,0.214616,0.976699,-0.442268,2.926799)" id="Rectangle" fill="#5c616c"/></g></g></svg>