<svg xmlns="http://www.w3.org/2000/svg" fill="none" width="16" height="16" viewBox="0 0 16 16">
 <defs>
  <style id="current-color-scheme" type="text/css">
   .ColorScheme-Text { color:#5c616c; } .ColorScheme-Highlight { color:#5294e2; }
  </style>
  <linearGradient id="arrongin" x1="0%" x2="0%" y1="0%" y2="100%">
   <stop offset="0%" style="stop-color:#dd9b44"/>
   <stop offset="100%" style="stop-color:#ad6c16"/>
  </linearGradient>
  <linearGradient id="aurora" x1="0%" x2="0%" y1="0%" y2="100%">
   <stop offset="0%" style="stop-color:#09D4DF"/>
   <stop offset="100%" style="stop-color:#9269F4"/>
  </linearGradient>
  <linearGradient id="fitdance" x1="0%" x2="0%" y1="0%" y2="100%">
   <stop offset="0%" style="stop-color:#1AD6AB"/>
   <stop offset="100%" style="stop-color:#329DB6"/>
  </linearGradient>
  <linearGradient id="oomox" x1="0%" x2="0%" y1="0%" y2="100%">
   <stop offset="0%" style="stop-color:#efefe7"/>
   <stop offset="100%" style="stop-color:#8f8f8b"/>
  </linearGradient>
  <linearGradient id="rainblue" x1="0%" x2="0%" y1="0%" y2="100%">
   <stop offset="0%" style="stop-color:#00F260"/>
   <stop offset="100%" style="stop-color:#0575E6"/>
  </linearGradient>
  <linearGradient id="sunrise" x1="0%" x2="0%" y1="0%" y2="100%">
   <stop offset="0%" style="stop-color:#FF8501"/>
   <stop offset="100%" style="stop-color:#FFCB01"/>
  </linearGradient>
  <linearGradient id="telinkrin" x1="0%" x2="0%" y1="0%" y2="100%">
   <stop offset="0%" style="stop-color:#b2ced6"/>
   <stop offset="100%" style="stop-color:#6da5b7"/>
  </linearGradient>
  <linearGradient id="60spsycho" x1="0%" x2="0%" y1="0%" y2="100%">
   <stop offset="0%" style="stop-color:#df5940"/>
   <stop offset="25%" style="stop-color:#d8d15f"/>
   <stop offset="50%" style="stop-color:#e9882a"/>
   <stop offset="100%" style="stop-color:#279362"/>
  </linearGradient>
  <linearGradient id="90ssummer" x1="0%" x2="0%" y1="0%" y2="100%">
   <stop offset="0%" style="stop-color:#f618c7"/>
   <stop offset="20%" style="stop-color:#94ffab"/>
   <stop offset="50%" style="stop-color:#fbfd54"/>
   <stop offset="100%" style="stop-color:#0f83ae"/>
  </linearGradient>
 </defs>
 <path fill="currentColor" class="ColorScheme-Text" fill-rule="evenodd" d="M7.6791 2C7.0884 2 6.4739 2.38014 6.3444 3.01084C6.3292 3.07088 6.3206 3.13362 6.3206 3.20068V3.21958C6.32041 3.22549 6.31949 3.23105 6.31857 3.2366C6.31753 3.24282 6.3165 3.24904 6.3165 3.25574V4.15892C6.3231 4.1474 6.33039 4.13684 6.33768 4.12628L6.33768 4.12627C6.34277 4.11891 6.34785 4.11155 6.3527 4.10386H7.9996V3.68309H9.2619V8.7323H10.945V3.68309H12.2073V4.10386H13.8435C13.8503 4.11308 13.8572 4.1211 13.8642 4.12912L13.8642 4.12913C13.8725 4.13868 13.8808 4.14822 13.8887 4.15974C13.8924 3.80936 13.8945 3.54657 13.8945 3.37162C13.8945 2.63587 13.3463 2 12.3914 2H7.6791ZM3.25276 9.9947C3.18777 9.9947 3.08694 9.9975 2.97088 10.0062C2.93856 10.0084 2.90596 10.012 2.87342 10.0155L2.85336 10.0177C2.82131 10.0217 2.79024 10.0267 2.75556 10.0325C2.3298 10.0932 1.88355 10.2601 1.36586 10.6768C0.94608 10.9989 0.48303 11.4723 0 12.1708L1.55653 13.0074C1.69554 12.9147 1.83427 12.7744 1.98273 12.6243C2.13547 12.4698 2.2985 12.3049 2.48272 12.1708C2.72452 11.9953 3.05549 11.8807 3.25276 11.8807C3.4547 11.8807 3.59309 11.917 3.72202 11.99C3.83692 12.0551 3.93689 12.1378 4.16827 12.3549L4.17731 12.364C4.17751 12.3641 4.17793 12.3638 4.17813 12.364C4.35209 12.5281 4.48392 12.6479 4.60876 12.7469C4.73374 12.846 4.85173 12.9251 4.99748 13.0074C5.4086 13.2404 5.8658 13.3608 6.3929 13.3608C6.5246 13.3608 6.6517 13.3536 6.7751 13.3386C7.0218 13.3087 7.2525 13.2484 7.4703 13.1603C7.5792 13.1163 7.6848 13.0656 7.7876 13.0074C8.0796 12.8428 8.2587 12.6928 8.6077 12.364C8.7279 12.2508 8.813 12.1736 8.8822 12.1166C8.9514 12.0596 9.0051 12.0232 9.0638 11.99C9.1923 11.9175 9.3303 11.8807 9.5323 11.8807C9.7342 11.8807 9.8726 11.9175 10.0015 11.99C10.1186 12.0563 10.2161 12.1377 10.4568 12.364C10.8048 12.6928 10.9855 12.8428 11.277 13.0074C11.3797 13.0657 11.4845 13.117 11.5934 13.1611C11.92 13.2934 12.2767 13.3608 12.6716 13.3608C12.8049 13.3608 12.9332 13.3532 13.0579 13.3378C13.0607 13.3375 13.0633 13.3365 13.0661 13.3362C13.4395 13.2904 13.7836 13.1801 14.0884 13.0074C14.2954 12.9034 14.5005 12.7487 14.6974 12.5776C14.7112 12.5665 14.7249 12.5553 14.7385 12.5439C14.7716 12.5145 14.8038 12.4857 14.8363 12.4552C14.8702 12.4253 14.9037 12.3949 14.9366 12.364L14.9544 12.3423L14.9711 12.322C15.4841 11.8079 15.8757 11.2455 15.9627 11.1205L15.977 11.1L16 11.0721L14.4443 10.2691C14.4808 10.2319 14.461 10.2513 14.4342 10.2774L14.4341 10.2775C14.418 10.2931 14.3995 10.3112 14.3892 10.3209C14.1904 10.584 13.649 11.2039 13.3652 11.3416C13.1942 11.4203 13.0078 11.4598 12.8196 11.4575C12.6572 11.4508 12.4968 11.4197 12.3437 11.3655C12.1203 11.2851 11.9168 11.1576 11.7471 10.9915C11.3986 10.6627 11.2192 10.5132 10.9277 10.348C10.5166 10.1156 10.0594 9.9947 9.5323 9.9947C9.4005 9.9947 9.2727 10.0019 9.1493 10.0168C8.7792 10.0617 8.4456 10.1737 8.1368 10.348C7.8453 10.5137 7.6659 10.6627 7.3175 10.9915C7.0772 11.2178 6.9784 11.2997 6.8614 11.3655C6.7972 11.402 6.7302 11.4293 6.6543 11.4476C6.5784 11.4659 6.4936 11.4748 6.3929 11.4748C6.191 11.4748 6.0521 11.439 5.9237 11.3655C5.8067 11.2997 5.7086 11.2178 5.4684 10.9915C5.11992 10.6627 4.93972 10.5132 4.64821 10.348C4.23709 10.1156 3.77986 9.9947 3.25276 9.9947ZM3.37262 7.4509V7.4523L3.36986 7.4529L3.37264 7.4561C3.37447 8.2752 3.92202 8.7001 4.73258 8.7301C4.73826 8.7315 4.74411 8.7323 4.74998 8.7323H7.9996V7.0502H5.05398L5.0544 7.0483V3.39964C5.0544 3.03296 4.90736 2 3.56056 2H2.52956V3.68309H3.36957L3.37262 7.4509Z" clip-rule="evenodd"/>
</svg>
