<svg xmlns="http://www.w3.org/2000/svg" fill="none" width="16" height="16" viewBox="0 0 16 16">
 <defs>
  <style id="current-color-scheme" type="text/css">
   .ColorScheme-Text { color:#5c616c; } .ColorScheme-Highlight { color:#5294e2; }
  </style>
  <linearGradient id="arrongin" x1="0%" x2="0%" y1="0%" y2="100%">
   <stop offset="0%" style="stop-color:#dd9b44"/>
   <stop offset="100%" style="stop-color:#ad6c16"/>
  </linearGradient>
  <linearGradient id="aurora" x1="0%" x2="0%" y1="0%" y2="100%">
   <stop offset="0%" style="stop-color:#09D4DF"/>
   <stop offset="100%" style="stop-color:#9269F4"/>
  </linearGradient>
  <linearGradient id="fitdance" x1="0%" x2="0%" y1="0%" y2="100%">
   <stop offset="0%" style="stop-color:#1AD6AB"/>
   <stop offset="100%" style="stop-color:#329DB6"/>
  </linearGradient>
  <linearGradient id="oomox" x1="0%" x2="0%" y1="0%" y2="100%">
   <stop offset="0%" style="stop-color:#efefe7"/>
   <stop offset="100%" style="stop-color:#8f8f8b"/>
  </linearGradient>
  <linearGradient id="rainblue" x1="0%" x2="0%" y1="0%" y2="100%">
   <stop offset="0%" style="stop-color:#00F260"/>
   <stop offset="100%" style="stop-color:#0575E6"/>
  </linearGradient>
  <linearGradient id="sunrise" x1="0%" x2="0%" y1="0%" y2="100%">
   <stop offset="0%" style="stop-color:#FF8501"/>
   <stop offset="100%" style="stop-color:#FFCB01"/>
  </linearGradient>
  <linearGradient id="telinkrin" x1="0%" x2="0%" y1="0%" y2="100%">
   <stop offset="0%" style="stop-color:#b2ced6"/>
   <stop offset="100%" style="stop-color:#6da5b7"/>
  </linearGradient>
  <linearGradient id="60spsycho" x1="0%" x2="0%" y1="0%" y2="100%">
   <stop offset="0%" style="stop-color:#df5940"/>
   <stop offset="25%" style="stop-color:#d8d15f"/>
   <stop offset="50%" style="stop-color:#e9882a"/>
   <stop offset="100%" style="stop-color:#279362"/>
  </linearGradient>
  <linearGradient id="90ssummer" x1="0%" x2="0%" y1="0%" y2="100%">
   <stop offset="0%" style="stop-color:#f618c7"/>
   <stop offset="20%" style="stop-color:#94ffab"/>
   <stop offset="50%" style="stop-color:#fbfd54"/>
   <stop offset="100%" style="stop-color:#0f83ae"/>
  </linearGradient>
 </defs>
 <path fill="currentColor" fill-rule="evenodd" class="ColorScheme-Text" d="M8.60574 4.31575C7.84481 4.1743 7.05838 4.30361 6.38281 4.68124C6.02463 4.88146 5.70959 5.14478 5.45117 5.45566L3.12227 3.16645C3.59914 2.63874 4.16202 2.18798 4.79221 1.83571C6.13225 1.08665 7.69218 0.83017 9.20151 1.11074C10.7108 1.3913 12.0744 2.19123 13.0557 3.3718C13.2687 3.62804 13.4608 3.8987 13.631 4.18114C14.245 5.20005 14.5743 6.37236 14.5743 7.57435H16L12.8777 10.7555L9.75547 7.57435H11.3144C11.3144 6.80039 11.0436 6.05084 10.5488 5.45566C10.4309 5.31383 10.3021 5.1829 10.1639 5.06382C9.7223 4.68315 9.18534 4.42349 8.60574 4.31575ZM10.4572 9.79861L10.4584 9.79735L12.8763 11.9838L12.8745 11.9858C12.0686 12.8763 11.0387 13.5242 9.9008 13.8679C9.58512 13.9633 9.26112 14.0352 8.93128 14.0824C7.41158 14.2999 5.86368 13.9786 4.556 13.1744C3.24832 12.3702 2.26331 11.1337 1.77176 9.67934C1.54083 8.99605 1.42566 8.28491 1.42566 7.57435H0L3.12227 4.39322L6.24453 7.57435H4.68558C4.68558 7.93258 4.74364 8.29109 4.86007 8.63557C5.10787 9.36878 5.60446 9.99216 6.26372 10.3976C6.76589 10.7064 7.33832 10.874 7.92122 10.8878C8.10356 10.8922 8.28694 10.8815 8.4695 10.8554C9.23509 10.7458 9.93825 10.372 10.4572 9.79861Z" clip-rule="evenodd"/>
</svg>
