<svg xmlns="http://www.w3.org/2000/svg" width="16" height="16" version="1.2">
 <path style="fill:none" d="M 8,0.50000007 C 3.8617571,0.50000007 0.49999994,3.8617572 0.49999994,8 c 0,4.138243 3.36175716,7.5 7.50000006,7.5 4.138243,0 7.500007,-3.361757 7.5,-7.5 C 15.5,3.8617572 12.138243,0.50000007 8,0.50000007 z"/>
 <path style="fill:#808080" d="M 8.0000001,0 C 3.5858743,0 0,3.5858743 0,8 0,12.414126 3.5858743,16 8.0000001,16 12.414126,16 16.000007,12.414126 16,8 16,3.5858743 12.414126,0 8.0000001,0 Z"/>
 <path d="M 10.847543,3.8202285 12.2857,5.1145785 7.4534786,11.5 3.7142714,8.2785285 4.9510856,6.6390213 7.1370857,8.5373928 10.847543,3.8202285 z"/>
</svg>
