<svg xmlns="http://www.w3.org/2000/svg" xmlns:xlink="http://www.w3.org/1999/xlink" fill="none" width="256" height="256" version="1.1" viewBox="0 0 256 256">
 <g id="shape_with_shadow" filter="url(#filter0_d)">
  <path style="fill:url(#linearGradient1592)" id="shape" d="m 165.685,11.947 c 74.055,0 84.639,10.5572 84.639,84.5438 v 59.2512 c 0,73.986 -10.584,84.543 -84.639,84.543 H 90.3152 c -74.0557,0 -84.63934,-10.557 -84.63934,-84.543 V 96.4908 C 5.67586,22.5042 16.2595,11.947 90.3152,11.947 Z"/>
 </g>
 <path style="fill:url(#linearGradient1600)" id="grindr_logo" class="cls-1" d="m 192.50541,66.471087 a 93.12784,93.12784 0 0 0 -8.39368,-7.30249 4.5745537,4.5745537 0 0 0 -3.56731,-0.83937 350.77174,350.77174 0 0 1 -52.46049,4.65849 350.43599,350.43599 0 0 1 -52.544405,-4.9103 4.5325853,4.5325853 0 0 0 -3.56732,0.83937 93.295714,93.295714 0 0 0 -8.47761,7.5543 4.4486485,4.4486485 0 0 0 -1.55283,2.85385 c 0,3.90306 0,7.13463 0,10.24029 0,3.10566 0,7.21856 0.25181,11.4154 a 278.12447,278.12447 0 0 0 16.53554,83.936763 4.4906169,4.4906169 0 0 0 1.25905,1.84661 C 93.334115,188.38924 114.0665,198 128.08393,198 c 14.01745,0 34.58195,-9.56879 48.01183,-21.236 a 4.4906169,4.4906169 0 0 0 1.25905,-1.84661 278.12447,278.12447 0 0 0 16.45161,-83.936763 c 0,-4.19684 0.25181,-7.89006 0.25181,-11.37343 0,-3.48338 0,-6.3792 0,-10.24029 a 4.4486485,4.4486485 0 0 0 -1.55282,-2.89582 z m -74.40994,79.068443 -0.25181,0.41968 c -5.24605,9.31698 -13.72367,10.4921 -23.250495,6.71494 -9.52682,-3.77715 -17.45885,-11.58327 -14.14334,-22.49505 3.14763,-9.8206 18.46608,-5.83361 25.558745,-4.19684 9.98848,2.47613 17.58475,8.39368 12.25477,19.05365 0.20984,-0.25181 0.29378,-0.33575 -0.16787,0.50362 z m 57.58062,-6.79888 c -2.43417,9.94651 -12.38068,15.15058 -22.20128,16.19979 -9.0232,0.92331 -16.99719,-7.80612 -17.33294,-16.78735 0,0.58756 0,1.13315 0,-0.37771 0,-0.41969 0,-0.41969 0,-0.29378 0.29378,-10.618 15.94799,-12.59052 23.83804,-13.30398 10.40816,-1.00724 18.59199,2.56007 15.69618,14.56303 z"/>
 <path style="fill:url(#paint16_linear)" id="outline" fill-rule="evenodd" opacity=".4" d="m 165.068,11.9512 c 4.328,-0.0098 8.656,0.0393 12.984,0.1376 3.875,0.0786 7.751,0.226 11.626,0.4519 3.453,0.1965 6.905,0.4814 10.348,0.8548 3.059,0.334 6.118,0.786 9.148,1.346 2.715,0.501 5.4,1.1397 8.046,1.9158 2.4,0.6976 4.751,1.5622 7.023,2.5839 2.115,0.9432 4.141,2.0632 6.059,3.3503 1.839,1.2379 3.561,2.6527 5.135,4.2148 1.564,1.572 2.98,3.2815 4.219,5.1187 1.289,1.9158 2.41,3.9397 3.364,6.0422 1.023,2.2794 1.889,4.6177 2.597,7.0051 0.777,2.6429 1.417,5.325 1.918,8.0367 0.561,3.026 1.013,6.0717 1.348,9.1272 0.374,3.4386 0.659,6.8773 0.856,10.3258 0.226,3.8612 0.373,7.7321 0.462,11.5933 0.088,4.3228 0.138,8.6457 0.128,12.9588 v 58.2119 c 0.01,4.323 -0.04,8.636 -0.128,12.959 -0.089,3.871 -0.236,7.732 -0.462,11.593 -0.197,3.449 -0.482,6.897 -0.856,10.326 -0.335,3.055 -0.787,6.111 -1.348,9.137 -0.501,2.702 -1.141,5.384 -1.918,8.027 -0.708,2.387 -1.574,4.735 -2.597,7.005 -0.954,2.112 -2.075,4.126 -3.364,6.042 -1.239,1.837 -2.655,3.557 -4.219,5.119 -1.574,1.562 -3.296,2.977 -5.135,4.215 -1.918,1.287 -3.944,2.407 -6.059,3.35 -2.272,1.022 -4.623,1.886 -7.023,2.594 -2.646,0.776 -5.331,1.414 -8.046,1.906 -3.03,0.569 -6.089,1.011 -9.148,1.346 -3.443,0.373 -6.895,0.658 -10.348,0.854 -3.875,0.226 -7.751,0.374 -11.626,0.462 -4.328,0.088 -8.656,0.138 -12.984,0.128 H 90.942 c -4.328,0.01 -8.656,-0.04 -12.9839,-0.128 -3.8755,-0.088 -7.751,-0.236 -11.6265,-0.462 -3.4525,-0.196 -6.905,-0.481 -10.3477,-0.854 -3.0591,-0.335 -6.1182,-0.777 -9.1477,-1.346 -2.7149,-0.492 -5.4001,-1.13 -8.0461,-1.906 -2.4001,-0.708 -4.7509,-1.572 -7.0231,-2.594 -2.1148,-0.943 -4.1411,-2.063 -6.0591,-3.35 -1.8394,-1.238 -3.5608,-2.653 -5.1346,-4.215 -1.5639,-1.562 -2.9804,-3.282 -4.2197,-5.119 -1.2886,-1.916 -2.4099,-3.93 -3.364,-6.042 -1.023,-2.27 -1.8886,-4.618 -2.5968,-7.005 C 9.61574,204.625 8.97638,201.943 8.47473,199.241 7.91406,196.215 7.4616,193.159 7.12716,190.104 6.75339,186.675 6.46813,183.227 6.27141,179.778 6.04518,175.917 5.89763,172.056 5.8091,168.185 5.72058,163.862 5.6714,159.549 5.68123,155.226 V 97.0141 C 5.6714,92.701 5.72058,88.3781 5.8091,84.0553 5.89763,80.1941 6.04518,76.3232 6.27141,72.462 6.46813,69.0135 6.75339,65.5748 7.12716,62.1362 7.4616,59.0807 7.91406,56.035 8.47473,53.009 c 0.50165,-2.7117 1.14101,-5.3938 1.91807,-8.0367 0.7082,-2.3874 1.5738,-4.7257 2.5968,-7.0051 0.9541,-2.1025 2.0754,-4.1264 3.364,-6.0422 1.2393,-1.8372 2.6558,-3.5467 4.2197,-5.1187 1.5738,-1.5621 3.2952,-2.9769 5.1346,-4.2148 1.918,-1.2871 3.9443,-2.4071 6.0591,-3.3503 2.2722,-1.0217 4.623,-1.8863 7.0231,-2.5839 2.646,-0.7761 5.3312,-1.4148 8.0461,-1.9158 3.0295,-0.56 6.0886,-1.012 9.1477,-1.346 3.4427,-0.3734 6.8952,-0.6583 10.3477,-0.8548 3.8755,-0.2259 7.751,-0.3733 11.6265,-0.4519 4.3279,-0.0983 8.6559,-0.1474 12.9839,-0.1376 z m 0.01,4.0086 c 4.298,-0.0099 8.597,0.0393 12.895,0.1277 3.827,0.0884 7.653,0.2358 11.479,0.4519 3.384,0.1965 6.767,0.4716 10.131,0.8449 2.971,0.3144 5.932,0.7467 8.863,1.2969 2.577,0.4716 5.134,1.0807 7.653,1.8176 2.223,0.6484 4.396,1.4541 6.501,2.3972 1.909,0.8548 3.738,1.8667 5.469,3.0261 1.623,1.0905 3.138,2.3383 4.525,3.7236 1.387,1.3853 2.636,2.8983 3.738,4.5194 1.16,1.7291 2.174,3.5467 3.029,5.4429 0.945,2.1123 1.751,4.2836 2.4,6.4941 0.748,2.5152 1.348,5.0598 1.83,7.6339 0.541,2.9278 0.974,5.8752 1.298,8.8423 0.374,3.3601 0.65,6.73 0.846,10.1097 0.217,3.8218 0.374,7.6338 0.453,11.4557 0.088,4.2934 0.137,8.577 0.137,12.8704 v 58.2119 c 0,4.293 -0.049,8.577 -0.137,12.87 -0.079,3.822 -0.236,7.644 -0.453,11.456 -0.196,3.38 -0.472,6.75 -0.846,10.12 -0.324,2.957 -0.757,5.904 -1.298,8.832 -0.482,2.574 -1.082,5.119 -1.83,7.634 -0.649,2.22 -1.455,4.382 -2.4,6.494 -0.855,1.896 -1.869,3.724 -3.029,5.443 -1.102,1.631 -2.351,3.144 -3.738,4.529 -1.387,1.376 -2.902,2.623 -4.525,3.714 -1.731,1.159 -3.56,2.171 -5.469,3.026 -2.105,0.953 -4.278,1.749 -6.501,2.397 -2.519,0.737 -5.076,1.346 -7.653,1.818 -2.931,0.55 -5.892,0.982 -8.863,1.306 -3.364,0.364 -6.747,0.649 -10.131,0.836 -3.826,0.216 -7.652,0.373 -11.479,0.452 -4.298,0.098 -8.597,0.137 -12.895,0.137 0,0 0,0 -0.01,0 H 90.942 c -0.0099,0 -0.0099,0 -0.0099,0 -4.2984,0 -8.5969,-0.039 -12.8953,-0.137 -3.8263,-0.079 -7.6526,-0.236 -11.4789,-0.452 -3.3837,-0.187 -6.7674,-0.472 -10.1314,-0.836 -2.9705,-0.324 -5.9313,-0.756 -8.8625,-1.306 -2.5771,-0.472 -5.1345,-1.081 -7.6526,-1.818 -2.223,-0.648 -4.3968,-1.444 -6.5017,-2.397 -1.9083,-0.855 -3.7378,-1.867 -5.469,-3.026 -1.623,-1.091 -3.1378,-2.338 -4.5247,-3.714 -1.3869,-1.385 -2.6361,-2.898 -3.7378,-4.529 -1.1606,-1.719 -2.1738,-3.547 -3.0295,-5.443 -0.9443,-2.112 -1.7509,-4.274 -2.4001,-6.494 -0.7475,-2.515 -1.3476,-5.06 -1.8295,-7.634 -0.541,-2.928 -0.9738,-5.875 -1.2984,-8.832 -0.3738,-3.37 -0.6492,-6.74 -0.8459,-10.12 -0.2164,-3.812 -0.37381,-7.634 -0.4525,-11.456 -0.08853,-4.293 -0.13771,-8.577 -0.13771,-12.87 V 97.0141 c 0,-4.2934 0.04918,-8.577 0.13771,-12.8704 0.07869,-3.8219 0.2361,-7.6339 0.4525,-11.4557 0.1967,-3.3797 0.4721,-6.7496 0.8459,-10.1097 0.3246,-2.9671 0.7574,-5.9145 1.2984,-8.8423 0.4819,-2.5741 1.082,-5.1187 1.8295,-7.6339 0.6492,-2.2105 1.4558,-4.3818 2.4001,-6.4941 0.8557,-1.8962 1.8689,-3.7138 3.0295,-5.4429 1.1017,-1.6211 2.3509,-3.1341 3.7378,-4.5194 1.3869,-1.3853 2.9017,-2.6331 4.5247,-3.7236 1.7312,-1.1594 3.5607,-2.1713 5.469,-3.0261 2.1049,-0.9431 4.2787,-1.7488 6.5017,-2.3972 2.5181,-0.7369 5.0755,-1.346 7.6526,-1.8176 2.9312,-0.5502 5.892,-0.9825 8.8625,-1.2969 3.364,-0.3733 6.7477,-0.6484 10.1314,-0.8449 3.8263,-0.2161 7.6526,-0.3635 11.4789,-0.4519 4.2984,-0.0884 8.5969,-0.1376 12.8953,-0.1277 0,0 0,0 0.0099,0 h 74.126 c 0.01,0 0.01,0 0.01,0 z" clip-rule="evenodd"/>
 <defs>
  <filter id="filter0_d" width="264.648" height="248.338" x="-4.32" y="5.95" color-interpolation-filters="sRGB" filterUnits="userSpaceOnUse">
   <feFlood id="feFlood144" flood-opacity="0" result="BackgroundImageFix"/>
   <feColorMatrix id="feColorMatrix146" in="SourceAlpha" type="matrix" values="0 0 0 0 0 0 0 0 0 0 0 0 0 0 0 0 0 0 127 0"/>
   <feOffset id="feOffset148" dy="4"/>
   <feGaussianBlur id="feGaussianBlur150" stdDeviation="5"/>
   <feColorMatrix id="feColorMatrix152" type="matrix" values="0 0 0 0 0 0 0 0 0 0 0 0 0 0 0 0 0 0 0.4 0"/>
   <feBlend id="feBlend154" in2="BackgroundImageFix" mode="normal" result="effect1_dropShadow"/>
   <feBlend id="feBlend156" in="SourceGraphic" in2="effect1_dropShadow" mode="normal" result="shape"/>
  </filter>
  <filter id="filter1_f" width="130.093" height="130.094" x="58.3" y="69.11" color-interpolation-filters="sRGB" filterUnits="userSpaceOnUse">
   <feFlood id="feFlood159" flood-opacity="0" result="BackgroundImageFix"/>
   <feBlend id="feBlend161" in="SourceGraphic" in2="BackgroundImageFix" mode="normal" result="shape"/>
   <feGaussianBlur id="feGaussianBlur163" result="effect1_foregroundBlur" stdDeviation="5"/>
  </filter>
  <filter id="filter2_d" width="166.789" height="166.789" x="45.59" y="46.78" color-interpolation-filters="sRGB" filterUnits="userSpaceOnUse">
   <feFlood id="feFlood166" flood-opacity="0" result="BackgroundImageFix"/>
   <feColorMatrix id="feColorMatrix168" in="SourceAlpha" type="matrix" values="0 0 0 0 0 0 0 0 0 0 0 0 0 0 0 0 0 0 127 0"/>
   <feOffset id="feOffset170" dy="4"/>
   <feGaussianBlur id="feGaussianBlur172" stdDeviation="5"/>
   <feColorMatrix id="feColorMatrix174" type="matrix" values="0 0 0 0 0 0 0 0 0 0 0 0 0 0 0 0 0 0 0.4 0"/>
   <feBlend id="feBlend176" in2="BackgroundImageFix" mode="normal" result="effect1_dropShadow"/>
   <feBlend id="feBlend178" in="SourceGraphic" in2="effect1_dropShadow" mode="normal" result="shape"/>
  </filter>
  <filter id="filter3_d" width="164.333" height="84.677" x="45.67" y="55.74" color-interpolation-filters="sRGB" filterUnits="userSpaceOnUse">
   <feFlood id="feFlood181" flood-opacity="0" result="BackgroundImageFix"/>
   <feColorMatrix id="feColorMatrix183" in="SourceAlpha" type="matrix" values="0 0 0 0 0 0 0 0 0 0 0 0 0 0 0 0 0 0 127 0"/>
   <feOffset id="feOffset185" dy="4"/>
   <feGaussianBlur id="feGaussianBlur187" stdDeviation="5"/>
   <feColorMatrix id="feColorMatrix189" type="matrix" values="0 0 0 0 0 0 0 0 0 0 0 0 0 0 0 0 0 0 0.4 0"/>
   <feBlend id="feBlend191" in2="BackgroundImageFix" mode="normal" result="effect1_dropShadow"/>
   <feBlend id="feBlend193" in="SourceGraphic" in2="effect1_dropShadow" mode="normal" result="shape"/>
  </filter>
  <filter id="filter4_d" width="164.333" height="134.983" x="45.67" y="70.12" color-interpolation-filters="sRGB" filterUnits="userSpaceOnUse">
   <feFlood id="feFlood196" flood-opacity="0" result="BackgroundImageFix"/>
   <feColorMatrix id="feColorMatrix198" in="SourceAlpha" type="matrix" values="0 0 0 0 0 0 0 0 0 0 0 0 0 0 0 0 0 0 127 0"/>
   <feOffset id="feOffset200" dy="4"/>
   <feGaussianBlur id="feGaussianBlur202" stdDeviation="5"/>
   <feColorMatrix id="feColorMatrix204" type="matrix" values="0 0 0 0 0 0 0 0 0 0 0 0 0 0 0 0 0 0 0.4 0"/>
   <feBlend id="feBlend206" in2="BackgroundImageFix" mode="normal" result="effect1_dropShadow"/>
   <feBlend id="feBlend208" in="SourceGraphic" in2="effect1_dropShadow" mode="normal" result="shape"/>
  </filter>
  <filter id="filter5_f" width="142.648" height="134.288" x="116" y="116" color-interpolation-filters="sRGB" filterUnits="userSpaceOnUse">
   <feFlood id="feFlood211" flood-opacity="0" result="BackgroundImageFix"/>
   <feBlend id="feBlend213" in="SourceGraphic" in2="BackgroundImageFix" mode="normal" result="shape"/>
   <feGaussianBlur id="feGaussianBlur215" result="effect1_foregroundBlur" stdDeviation="5"/>
  </filter>
  <linearGradient id="paint16_linear" x1="132.082" x2="132.082" y1="11.95" y2="240.29" gradientUnits="userSpaceOnUse">
   <stop id="stop300" stop-color="#fff"/>
   <stop id="stop302" offset=".125" stop-color="#fff" stop-opacity=".098"/>
   <stop id="stop304" offset=".925" stop-opacity=".098"/>
   <stop id="stop306" offset="1" stop-opacity=".498"/>
  </linearGradient>
  <linearGradient id="paint17_linear" x1="213.985" x2="177.817" y1="151.421" y2="196.272" gradientUnits="userSpaceOnUse">
   <stop id="stop309" offset=".184"/>
   <stop id="stop311" offset=".449"/>
   <stop id="stop313" offset=".724"/>
  </linearGradient>
  <linearGradient id="paint18_linear" x1="238.502" x2="-46.879" y1="227.131" y2="-20.383" gradientUnits="userSpaceOnUse">
   <stop id="stop316" stop-color="#FAF8F6"/>
   <stop id="stop318" offset="1"/>
  </linearGradient>
  <linearGradient id="paint85_linear" x1="478" x2="478" y1="796" y2="846" gradientUnits="userSpaceOnUse">
   <stop id="stop478" offset="0" stop-color="#4C5561"/>
   <stop id="stop480" offset="1" stop-color="#2E3842"/>
  </linearGradient>
  <linearGradient id="paint112_linear" x1="263" x2="263" y1="1086" y2="1036" gradientUnits="userSpaceOnUse">
   <stop id="stop645" stop-color="#FF0056"/>
   <stop id="stop647" offset=".1" stop-color="#FF0C4E"/>
   <stop id="stop649" offset=".2" stop-color="#FF1845"/>
   <stop id="stop651" offset=".3" stop-color="#FF243D"/>
   <stop id="stop653" offset=".4" stop-color="#FF3034"/>
   <stop id="stop655" offset=".5" stop-color="#FF3C2B"/>
   <stop id="stop657" offset=".6" stop-color="#FF4823"/>
   <stop id="stop659" offset=".7" stop-color="#FF541A"/>
   <stop id="stop661" offset=".8" stop-color="#FF6012"/>
   <stop id="stop663" offset=".9" stop-color="#FF6C09"/>
   <stop id="stop665" offset="1" stop-color="#FF7901"/>
  </linearGradient>
  <clipPath id="clip0">
   <rect fill="#fff" width="256" height="256"/>
  </clipPath>
  <style id="style182">
   .cls-1{fill:#231f20;}
  </style>
  <linearGradient id="linearGradient1592" x1="5.676" x2="250.324" y1="126.116" y2="126.116" gradientUnits="userSpaceOnUse" xlink:href="#paint85_linear"/>
  <linearGradient id="linearGradient1600" x1="60.684" x2="188.839" y1="195.528" y2="80.38" gradientUnits="userSpaceOnUse" xlink:href="#paint112_linear"/>
 </defs>
</svg>
