<svg xmlns="http://www.w3.org/2000/svg" fill="none" width="256" height="256" viewBox="0 0 256 256">
 <g clip-path="url(#clip0)">
  <g filter="url(#filter0_d)">
   <path fill="url(#paint0_linear)" d="M250.324 96.4908C250.324 22.5042 239.74 11.947 165.685 11.947H90.3152C16.2595 11.947 5.67586 22.5042 5.67586 96.4908V155.742C5.67586 229.728 16.2595 240.285 90.3152 240.285H165.685C239.74 240.285 250.324 229.728 250.324 155.742V96.4908Z"/>
  </g>
  <path fill="url(#paint1_linear)" fill-rule="evenodd" opacity=".4" d="M165.068 11.9512C169.396 11.9414 173.724 11.9905 178.052 12.0888C181.927 12.1674 185.803 12.3148 189.678 12.5407C193.131 12.7372 196.583 13.0221 200.026 13.3955C203.085 13.7295 206.144 14.1815 209.174 14.7415C211.889 15.2425 214.574 15.8812 217.22 16.6573C219.62 17.3549 221.971 18.2195 224.243 19.2412C226.358 20.1844 228.384 21.3044 230.302 22.5915C232.141 23.8294 233.863 25.2442 235.437 26.8063C237.001 28.3783 238.417 30.0878 239.656 31.925C240.945 33.8408 242.066 35.8647 243.02 37.9672C244.043 40.2466 244.909 42.5849 245.617 44.9723C246.394 47.6152 247.034 50.2973 247.535 53.009C248.096 56.035 248.548 59.0807 248.883 62.1362C249.257 65.5748 249.542 69.0135 249.739 72.462C249.965 76.3232 250.112 80.1941 250.201 84.0553C250.289 88.3781 250.339 92.701 250.329 97.0141V155.226C250.339 159.549 250.289 163.862 250.201 168.185C250.112 172.056 249.965 175.917 249.739 179.778C249.542 183.227 249.257 186.675 248.883 190.104C248.548 193.159 248.096 196.215 247.535 199.241C247.034 201.943 246.394 204.625 245.617 207.268C244.909 209.655 244.043 212.003 243.02 214.273C242.066 216.385 240.945 218.399 239.656 220.315C238.417 222.152 237.001 223.872 235.437 225.434C233.863 226.996 232.141 228.411 230.302 229.649C228.384 230.936 226.358 232.056 224.243 232.999C221.971 234.021 219.62 234.885 217.22 235.593C214.574 236.369 211.889 237.007 209.174 237.499C206.144 238.068 203.085 238.51 200.026 238.845C196.583 239.218 193.131 239.503 189.678 239.699C185.803 239.925 181.927 240.073 178.052 240.161C173.724 240.249 169.396 240.299 165.068 240.289H90.942C86.614 240.299 82.286 240.249 77.9581 240.161C74.0826 240.073 70.2071 239.925 66.3316 239.699C62.8791 239.503 59.4266 239.218 55.9839 238.845C52.9248 238.51 49.8657 238.068 46.8362 237.499C44.1213 237.007 41.4361 236.369 38.7901 235.593C36.39 234.885 34.0392 234.021 31.767 232.999C29.6522 232.056 27.6259 230.936 25.7079 229.649C23.8685 228.411 22.1471 226.996 20.5733 225.434C19.0094 223.872 17.5929 222.152 16.3536 220.315C15.065 218.399 13.9437 216.385 12.9896 214.273C11.9666 212.003 11.101 209.655 10.3928 207.268C9.61574 204.625 8.97638 201.943 8.47473 199.241C7.91406 196.215 7.4616 193.159 7.12716 190.104C6.75339 186.675 6.46813 183.227 6.27141 179.778C6.04518 175.917 5.89763 172.056 5.8091 168.185C5.72058 163.862 5.6714 159.549 5.68123 155.226V97.0141C5.6714 92.701 5.72058 88.3781 5.8091 84.0553C5.89763 80.1941 6.04518 76.3232 6.27141 72.462C6.46813 69.0135 6.75339 65.5748 7.12716 62.1362C7.4616 59.0807 7.91406 56.035 8.47473 53.009C8.97638 50.2973 9.61574 47.6152 10.3928 44.9723C11.101 42.5849 11.9666 40.2466 12.9896 37.9672C13.9437 35.8647 15.065 33.8408 16.3536 31.925C17.5929 30.0878 19.0094 28.3783 20.5733 26.8063C22.1471 25.2442 23.8685 23.8294 25.7079 22.5915C27.6259 21.3044 29.6522 20.1844 31.767 19.2412C34.0392 18.2195 36.39 17.3549 38.7901 16.6573C41.4361 15.8812 44.1213 15.2425 46.8362 14.7415C49.8657 14.1815 52.9248 13.7295 55.9839 13.3955C59.4266 13.0221 62.8791 12.7372 66.3316 12.5407C70.2071 12.3148 74.0826 12.1674 77.9581 12.0888C82.286 11.9905 86.614 11.9414 90.942 11.9512H165.068ZM165.078 15.9598C169.376 15.9499 173.675 15.9991 177.973 16.0875C181.8 16.1759 185.626 16.3233 189.452 16.5394C192.836 16.7359 196.219 17.011 199.583 17.3843C202.554 17.6987 205.515 18.131 208.446 18.6812C211.023 19.1528 213.58 19.7619 216.099 20.4988C218.322 21.1472 220.495 21.9529 222.6 22.896C224.509 23.7508 226.338 24.7627 228.069 25.9221C229.692 27.0126 231.207 28.2604 232.594 29.6457C233.981 31.031 235.23 32.544 236.332 34.1651C237.492 35.8942 238.506 37.7118 239.361 39.608C240.306 41.7203 241.112 43.8916 241.761 46.1021C242.509 48.6173 243.109 51.1619 243.591 53.736C244.132 56.6638 244.565 59.6112 244.889 62.5783C245.263 65.9384 245.539 69.3083 245.735 72.688C245.952 76.5098 246.109 80.3218 246.188 84.1437C246.276 88.4371 246.325 92.7207 246.325 97.0141V155.226C246.325 159.519 246.276 163.803 246.188 168.096C246.109 171.918 245.952 175.74 245.735 179.552C245.539 182.932 245.263 186.302 244.889 189.672C244.565 192.629 244.132 195.576 243.591 198.504C243.109 201.078 242.509 203.623 241.761 206.138C241.112 208.358 240.306 210.52 239.361 212.632C238.506 214.528 237.492 216.356 236.332 218.075C235.23 219.706 233.981 221.219 232.594 222.604C231.207 223.98 229.692 225.227 228.069 226.318C226.338 227.477 224.509 228.489 222.6 229.344C220.495 230.297 218.322 231.093 216.099 231.741C213.58 232.478 211.023 233.087 208.446 233.559C205.515 234.109 202.554 234.541 199.583 234.865C196.219 235.229 192.836 235.514 189.452 235.701C185.626 235.917 181.8 236.074 177.973 236.153C173.675 236.251 169.376 236.29 165.078 236.29C165.078 236.29 165.078 236.29 165.068 236.29H90.942C90.9321 236.29 90.9321 236.29 90.9321 236.29C86.6337 236.29 82.3352 236.251 78.0368 236.153C74.2105 236.074 70.3842 235.917 66.5579 235.701C63.1742 235.514 59.7905 235.229 56.4265 234.865C53.456 234.541 50.4952 234.109 47.564 233.559C44.9869 233.087 42.4295 232.478 39.9114 231.741C37.6884 231.093 35.5146 230.297 33.4097 229.344C31.5014 228.489 29.6719 227.477 27.9407 226.318C26.3177 225.227 24.8029 223.98 23.416 222.604C22.0291 221.219 20.7799 219.706 19.6782 218.075C18.5176 216.356 17.5044 214.528 16.6487 212.632C15.7044 210.52 14.8978 208.358 14.2486 206.138C13.5011 203.623 12.901 201.078 12.4191 198.504C11.8781 195.576 11.4453 192.629 11.1207 189.672C10.7469 186.302 10.4715 182.932 10.2748 179.552C10.0584 175.74 9.90099 171.918 9.8223 168.096C9.73377 163.803 9.68459 159.519 9.68459 155.226V97.0141C9.68459 92.7207 9.73377 88.4371 9.8223 84.1437C9.90099 80.3218 10.0584 76.5098 10.2748 72.688C10.4715 69.3083 10.7469 65.9384 11.1207 62.5783C11.4453 59.6112 11.8781 56.6638 12.4191 53.736C12.901 51.1619 13.5011 48.6173 14.2486 46.1021C14.8978 43.8916 15.7044 41.7203 16.6487 39.608C17.5044 37.7118 18.5176 35.8942 19.6782 34.1651C20.7799 32.544 22.0291 31.031 23.416 29.6457C24.8029 28.2604 26.3177 27.0126 27.9407 25.9221C29.6719 24.7627 31.5014 23.7508 33.4097 22.896C35.5146 21.9529 37.6884 21.1472 39.9114 20.4988C42.4295 19.7619 44.9869 19.1528 47.564 18.6812C50.4952 18.131 53.456 17.6987 56.4265 17.3843C59.7905 17.011 63.1742 16.7359 66.5579 16.5394C70.3842 16.3233 74.2105 16.1759 78.0368 16.0875C82.3352 15.9991 86.6337 15.9499 90.9321 15.9598C90.9321 15.9598 90.9321 15.9598 90.942 15.9598H165.068C165.078 15.9598 165.078 15.9598 165.078 15.9598Z" clip-rule="evenodd"/>
  <path fill="url(#paint2_linear)" opacity=".3" d="M55.9741 48C51.5591 48 48 51.5591 48 55.9741V111.75C48 116.165 51.5591 119.724 55.9741 119.724H111.75C116.165 119.724 119.724 116.165 119.724 111.75V55.9741C119.724 51.5591 116.165 48 111.75 48H55.9741ZM68.8405 64.5517H98.8836C101.261 64.5517 103.172 66.4632 103.172 68.8405V98.8836C103.172 101.261 101.261 103.172 98.8836 103.172H68.8405C66.4632 103.172 64.5517 101.261 64.5517 98.8836V68.8405C64.5517 66.4632 66.4632 64.5517 68.8405 64.5517V64.5517Z"/>
  <path fill="url(#paint3_linear)" opacity=".3" d="M144.25 48C139.835 48 136.276 51.5591 136.276 55.9741V111.75C136.276 116.165 139.835 119.724 144.25 119.724H200.026C204.441 119.724 208 116.165 208 111.75V55.9741C208 51.5591 204.441 48 200.026 48H144.25ZM157.116 64.5517H187.159C189.537 64.5517 191.448 66.4632 191.448 68.8405V98.8836C191.448 101.261 189.537 103.172 187.159 103.172H157.116C154.739 103.172 152.828 101.261 152.828 98.8836V68.8405C152.828 66.4632 154.739 64.5517 157.116 64.5517Z"/>
  <path fill="url(#paint4_linear)" opacity=".3" d="M55.9741 136.276C51.5591 136.276 48 139.835 48 144.25V200.026C48 204.441 51.5591 208 55.9741 208H111.75C116.165 208 119.724 204.441 119.724 200.026V144.25C119.724 139.835 116.165 136.276 111.75 136.276H55.9741ZM68.8405 152.828H98.8836C101.261 152.828 103.172 154.739 103.172 157.116V187.159C103.172 189.537 101.261 191.448 98.8836 191.448H68.8405C66.4632 191.448 64.5517 189.537 64.5517 187.159V157.116C64.5517 154.739 66.4632 152.828 68.8405 152.828V152.828Z"/>
  <path fill="url(#paint5_linear)" opacity=".3" d="M144.25 136.276C139.835 136.276 136.276 139.835 136.276 144.25V200.026C136.276 204.441 139.835 208 144.25 208H200.026C204.441 208 208 204.441 208 200.026V144.25C208 139.835 204.441 136.276 200.026 136.276H144.25ZM157.116 152.828H187.159C189.537 152.828 191.448 154.739 191.448 157.116V187.159C191.448 189.537 189.537 191.448 187.159 191.448H157.116C154.739 191.448 152.828 189.537 152.828 187.159V157.116C152.828 154.739 154.739 152.828 157.116 152.828Z"/>
  <path fill="#0A0202" fill-rule="evenodd" opacity=".1" d="M181.753 77.004C187.14 82.3906 187.14 91.1239 181.753 96.5104L93.7532 184.51C88.3667 189.897 79.6334 189.897 74.2468 184.51C68.8603 179.124 68.8603 170.391 74.2468 165.004L162.247 77.004C167.633 71.6175 176.367 71.6175 181.753 77.004Z" clip-rule="evenodd"/>
  <path fill="url(#paint6_linear)" fill-rule="evenodd" d="M181.753 74.2468C187.14 79.6334 187.14 88.3667 181.753 93.7532L93.7532 181.753C88.3667 187.14 79.6334 187.14 74.2468 181.753C68.8603 176.367 68.8603 167.633 74.2468 162.247L162.247 74.2468C167.633 68.8603 176.367 68.8603 181.753 74.2468Z" clip-rule="evenodd"/>
  <path fill="#0A0202" fill-rule="evenodd" opacity=".1" d="M74.2468 77.004C79.6334 71.6175 88.3667 71.6175 93.7532 77.004L181.753 165.004C187.14 170.391 187.14 179.124 181.753 184.51C176.367 189.897 167.633 189.897 162.247 184.51L74.2468 96.5104C68.8603 91.1239 68.8603 82.3906 74.2468 77.004Z" clip-rule="evenodd"/>
  <path fill="url(#paint7_linear)" fill-rule="evenodd" d="M74.2468 74.2468C79.6334 68.8603 88.3667 68.8603 93.7532 74.2468L181.753 162.247C187.14 167.633 187.14 176.367 181.753 181.753C176.367 187.14 167.633 187.14 162.247 181.753L74.2468 93.7532C68.8603 88.3667 68.8603 79.6334 74.2468 74.2468Z" clip-rule="evenodd"/>
  <path fill="#fff" opacity=".1" d="M83.8513 70.069C81.9274 70.076 80.0262 70.4854 78.2699 71.2709C76.5136 72.0564 74.941 73.2005 73.6532 74.6299C72.3654 76.0593 71.3908 77.7423 70.7921 79.5707C70.1934 81.3991 69.9838 83.3325 70.1767 85.2468C70.5168 81.8522 72.1028 78.704 74.6283 76.4103C77.1538 74.1167 80.4397 72.8403 83.8513 72.8276C85.6978 72.8262 87.5257 73.1956 89.2268 73.9138C90.9279 74.632 92.4675 75.6844 93.7543 77.0086L181.75 165.004C184.115 167.279 185.592 170.322 185.915 173.587C186.127 171.505 185.862 169.401 185.14 167.436C184.419 165.471 183.259 163.696 181.75 162.246L93.7543 74.25C92.4675 72.9258 90.9279 71.8734 89.2268 71.1552C87.5257 70.437 85.6978 70.0676 83.8513 70.069V70.069Z"/>
 </g>
 <defs>
  <filter id="filter0_d" width="264.648" height="248.338" x="-4.32" y="5.95" color-interpolation-filters="sRGB" filterUnits="userSpaceOnUse">
   <feFlood flood-opacity="0" result="BackgroundImageFix"/>
   <feColorMatrix in="SourceAlpha" type="matrix" values="0 0 0 0 0 0 0 0 0 0 0 0 0 0 0 0 0 0 127 0"/>
   <feOffset dy="4"/>
   <feGaussianBlur stdDeviation="5"/>
   <feColorMatrix type="matrix" values="0 0 0 0 0 0 0 0 0 0 0 0 0 0 0 0 0 0 0.4 0"/>
   <feBlend in2="BackgroundImageFix" mode="normal" result="effect1_dropShadow"/>
   <feBlend in="SourceGraphic" in2="effect1_dropShadow" mode="normal" result="shape"/>
  </filter>
  <linearGradient id="paint0_linear" x1="5.676" x2="5.676" y1="11.947" y2="240.285" gradientUnits="userSpaceOnUse">
   <stop offset="0" stop-color="#E0E5E7"/>
   <stop offset="1" stop-color="#C7CED2"/>
  </linearGradient>
  <linearGradient id="paint1_linear" x1="132.082" x2="132.082" y1="11.95" y2="240.29" gradientUnits="userSpaceOnUse">
   <stop stop-color="#fff"/>
   <stop offset=".125" stop-color="#fff" stop-opacity=".098"/>
   <stop offset=".925" stop-opacity=".098"/>
   <stop offset="1" stop-opacity=".498"/>
  </linearGradient>
  <linearGradient id="paint2_linear" x1="48" x2="48" y1="48" y2="119.724" gradientUnits="userSpaceOnUse">
   <stop offset="0" stop-color="#4C5561"/>
   <stop offset="1" stop-color="#2E3842"/>
  </linearGradient>
  <linearGradient id="paint3_linear" x1="136.276" x2="136.276" y1="48" y2="119.724" gradientUnits="userSpaceOnUse">
   <stop offset="0" stop-color="#4C5561"/>
   <stop offset="1" stop-color="#2E3842"/>
  </linearGradient>
  <linearGradient id="paint4_linear" x1="48" x2="48" y1="136.276" y2="208" gradientUnits="userSpaceOnUse">
   <stop offset="0" stop-color="#4C5561"/>
   <stop offset="1" stop-color="#2E3842"/>
  </linearGradient>
  <linearGradient id="paint5_linear" x1="136.276" x2="136.276" y1="136.276" y2="208" gradientUnits="userSpaceOnUse">
   <stop offset="0" stop-color="#4C5561"/>
   <stop offset="1" stop-color="#2E3842"/>
  </linearGradient>
  <linearGradient id="paint6_linear" x1="70.207" x2="70.207" y1="70.207" y2="185.793" gradientUnits="userSpaceOnUse">
   <stop offset="0" stop-color="#FF7B57"/>
   <stop offset=".5" stop-color="#FF5151"/>
   <stop offset="1" stop-color="#F50F0F"/>
  </linearGradient>
  <linearGradient id="paint7_linear" x1="70.207" x2="70.207" y1="70.207" y2="185.793" gradientUnits="userSpaceOnUse">
   <stop offset="0" stop-color="#FFB357"/>
   <stop offset=".5" stop-color="#FF8B51"/>
   <stop offset="1" stop-color="#F55C0F"/>
  </linearGradient>
  <clipPath id="clip0">
   <rect fill="#fff" width="256" height="256"/>
  </clipPath>
 </defs>
</svg>
