<svg xmlns="http://www.w3.org/2000/svg" style="isolation:isolate" width="256" height="256" viewBox="0 0 256 256">
 <defs>
  <filter id="vDqf97rQy09TLgqJwSTqw3CtFYH69VJG" width="270.648" height="254.338" x="-7.32" y="2.95" filterUnits="userSpaceOnUse">
   <feGaussianBlur xmlns="http://www.w3.org/2000/svg" in="SourceGraphic" stdDeviation="4.294"/>
   <feOffset xmlns="http://www.w3.org/2000/svg" dx="0" dy="4" result="pf_100_offsetBlur"/>
   <feFlood xmlns="http://www.w3.org/2000/svg" flood-opacity=".4"/>
   <feComposite xmlns="http://www.w3.org/2000/svg" in2="pf_100_offsetBlur" operator="in" result="pf_100_dropShadow"/>
   <feBlend xmlns="http://www.w3.org/2000/svg" in="SourceGraphic" in2="pf_100_dropShadow" mode="normal"/>
  </filter>
 </defs>
 <g filter="url(#vDqf97rQy09TLgqJwSTqw3CtFYH69VJG)">
  <path fill="#CDCDCD" d="M 165.685 11.947 C 239.74 11.947 250.324 22.504 250.324 96.491 L 250.324 155.742 C 250.324 229.728 239.74 240.285 165.685 240.285 L 90.315 240.285 C 16.26 240.285 5.676 229.728 5.676 155.742 L 5.676 96.491 C 5.676 22.504 16.26 11.947 90.315 11.947 L 165.685 11.947 Z"/>
 </g>
 <g opacity=".4">
  <linearGradient id="_lgradient_94" x1=".517" x2=".517" y1="0" y2="1">
   <stop offset="0%" style="stop-color:rgb(255,255,255)"/>
   <stop offset="12.5%" stop-opacity=".098" style="stop-color:rgb(255,255,255)"/>
   <stop offset="92.5%" stop-opacity=".098" style="stop-color:rgb(0,0,0)"/>
   <stop offset="100%" stop-opacity=".498" style="stop-color:rgb(0,0,0)"/>
  </linearGradient>
  <path fill="none" stroke="url(#_lgradient_94)" stroke-linecap="round" stroke-linejoin="round" stroke-width="4.077" d="M 165.685 11.947 C 239.74 11.947 250.324 22.504 250.324 96.491 L 250.324 155.742 C 250.324 229.728 239.74 240.285 165.685 240.285 L 90.315 240.285 C 16.26 240.285 5.676 229.728 5.676 155.742 L 5.676 96.491 C 5.676 22.504 16.26 11.947 90.315 11.947 L 165.685 11.947 Z" vector-effect="non-scaling-stroke"/>
 </g>
 <g opacity=".05">
  <path fill="#FFFFFF" d="M 8.476 55.74 C 6.729 66.667 6.158 80.255 6.158 97.205 L 6.158 156.456 C 6.158 230.442 16.742 241 90.798 241 L 166.167 241 C 221.302 241 241.245 235.126 247.842 201.603 L 8.476 55.74 Z"/>
 </g>
 <g>
  <circle fill="#5D5D5D" cx="0" cy="0" r="1" transform="matrix(83.625,0,0,-83.625,127.875,126.724)" vector-effect="non-scaling-stroke"/>
  <g opacity=".05">
   <path d="M 44.25 126.724 C 44.25 104.546 53.06 83.275 68.743 67.593 C 84.426 51.91 105.696 43.099 127.875 43.099 C 150.054 43.099 171.324 51.91 187.007 67.593 C 202.69 83.275 211.5 104.546 211.5 126.724 L 44.25 126.724 Z"/>
  </g>
  <defs>
   <filter id="HolsQPVd8n4eaChighvP8x4OdSwzLNrS" width="197.746" height="197.746" x="29" y="29.75" filterUnits="userSpaceOnUse">
    <feGaussianBlur xmlns="http://www.w3.org/2000/svg" stdDeviation="4.4"/>
   </filter>
  </defs>
  <g opacity=".2" filter="url(#HolsQPVd8n4eaChighvP8x4OdSwzLNrS)">
   <linearGradient id="_lgradient_95" x1=".5" x2=".5" y1=".307" y2=".943">
    <stop offset="0%" style="stop-color:rgb(0,0,0)"/>
    <stop offset="100%" stop-opacity="0" style="stop-color:rgb(0,0,0)"/>
   </linearGradient>
   <path fill="none" stroke="url(#_lgradient_95)" stroke-linejoin="round" stroke-width="10" d="M 127.875 45 C 81.69 45 44.25 82.44 44.25 128.625 C 44.25 174.81 81.69 212.25 127.875 212.25 C 174.06 212.25 211.5 174.81 211.5 128.625 C 211.5 82.44 174.06 45 127.875 45 Z" vector-effect="non-scaling-stroke"/>
  </g>
  <defs>
   <filter id="Csyfwt5ZzObfFkB4IBXyOLv1XK7JZ1JD" width="160.01" height="160.01" x="47.87" y="48.62" filterUnits="userSpaceOnUse">
    <feGaussianBlur xmlns="http://www.w3.org/2000/svg" stdDeviation="3.75"/>
   </filter>
  </defs>
  <g opacity=".2" filter="url(#Csyfwt5ZzObfFkB4IBXyOLv1XK7JZ1JD)">
   <path d="M 127.875 199.896 C 88.513 199.896 56.604 167.987 56.604 128.625 C 56.604 89.263 88.513 57.354 127.875 57.354 C 167.237 57.354 199.146 89.263 199.146 128.625 C 199.146 167.987 167.237 199.896 127.875 199.896 Z"/>
  </g>
  <path fill="#F76363" d="M 129.168 197.984 C 94.928 198.606 65.086 174.786 58.101 141.26 C 51.117 107.734 68.965 73.979 100.605 60.876 C 132.246 47.773 168.732 59.026 187.496 87.674 L 127.875 126.725 L 129.168 197.984 Z"/>
  <path fill="#5884F4" d="M 182.472 80.912 C 202.566 104.859 204.709 139.105 187.759 165.371 L 127.875 126.725 L 182.472 80.912 Z"/>
  <path fill="#76C22B" d="M 168.774 185.093 C 151.514 197.187 129.786 201.022 109.428 195.567 L 127.875 126.725 L 168.774 185.093 Z"/>
  <path fill="#FDC92B" d="M 192.469 156.845 C 186.287 170.101 176.177 181.134 163.51 188.447 L 127.875 126.725 L 192.469 156.845 Z"/>
  <g opacity=".2">
   <linearGradient id="_lgradient_96" x1=".5" x2=".5" y1="1" y2="0" gradientTransform="matrix(142.543,0,0,142.543,56.604,55.453)" gradientUnits="userSpaceOnUse">
    <stop offset="0%" style="stop-color:rgb(230,230,230)"/>
    <stop offset="100%" style="stop-color:rgb(242,242,242)"/>
   </linearGradient>
   <path fill="url(#_lgradient_96)" d="M 127.875 55.453 C 88.513 55.453 56.604 87.362 56.604 126.724 C 56.604 166.087 88.513 197.996 127.875 197.996 C 167.237 197.996 199.146 166.087 199.146 126.724 C 199.146 87.362 167.237 55.453 127.875 55.453 Z"/>
  </g>
  <g opacity=".1">
   <path d="M 55.653 50.702 C 53.554 50.702 51.852 52.404 51.852 54.503 C 51.852 55.511 52.253 56.478 52.965 57.191 C 53.678 57.904 54.645 58.304 55.653 58.304 C 56.661 58.304 57.628 57.904 58.341 57.191 C 59.054 56.478 59.454 55.511 59.454 54.503 C 59.454 52.404 57.753 50.702 55.653 50.702 L 55.653 50.702 Z M 200.096 50.702 C 197.997 50.702 196.295 52.404 196.295 54.503 C 196.295 55.511 196.696 56.478 197.409 57.191 C 198.121 57.904 199.088 58.304 200.096 58.304 C 201.105 58.304 202.071 57.904 202.784 57.191 C 203.497 56.478 203.898 55.511 203.898 54.503 C 203.898 52.404 202.196 50.702 200.096 50.702 L 200.096 50.702 Z M 55.653 195.145 C 53.554 195.145 51.852 196.847 51.852 198.946 C 51.852 199.954 52.253 200.921 52.965 201.634 C 53.678 202.347 54.645 202.747 55.653 202.747 C 56.661 202.747 57.628 202.347 58.341 201.634 C 59.054 200.921 59.454 199.954 59.454 198.946 C 59.454 196.847 57.753 195.145 55.653 195.145 L 55.653 195.145 Z M 200.096 195.145 C 197.997 195.145 196.295 196.847 196.295 198.946 C 196.295 199.954 196.696 200.921 197.409 201.634 C 198.121 202.347 199.088 202.747 200.096 202.747 C 201.105 202.747 202.071 202.347 202.784 201.634 C 203.497 200.921 203.898 199.954 203.898 198.946 C 203.898 196.847 202.196 195.145 200.096 195.145 L 200.096 195.145 Z"/>
  </g>
  <g opacity=".2">
   <path fill="#FFFFFF" d="M 127.875 55.453 C 88.513 55.453 56.604 87.362 56.604 126.724 C 56.604 127.043 56.624 127.357 56.628 127.675 C 57.139 88.753 88.832 57.354 127.875 57.354 C 166.918 57.354 198.611 88.753 199.122 127.675 C 199.126 127.357 199.146 127.043 199.146 126.724 C 199.146 87.362 167.237 55.453 127.875 55.453 L 127.875 55.453 Z"/>
  </g>
 </g>
</svg>
