<svg width="1024" height="1024" viewBox="0 0 1024 1024" fill="none" xmlns="http://www.w3.org/2000/svg">
<g filter="url(#filter0_d)">
<path d="M662.74 55.32C958.965 55.32 1001.3 97.549 1001.3 393.498V630.503C1001.3 926.45 958.965 968.68 662.74 968.68H361.26C65.0349 968.68 22.7 926.45 22.7 630.503V393.498C22.7 97.549 65.0349 55.32 361.26 55.32H662.74Z" fill="url(#paint0_linear)"/>
</g>
<path d="M644.031 112C903.491 112 940.571 148.988 940.571 408.205V615.795C940.571 875.011 903.491 912 644.031 912H379.969C120.509 912 83.429 875.011 83.429 615.795V408.205C83.429 148.988 120.509 112 379.969 112H644.031Z" fill="url(#paint1_linear)"/>
<path d="M226.841 320.4C255.241 320.4 277.441 305 277.441 277.8C277.441 247.6 251.241 238.8 230.441 231.8C216.641 227.2 205.041 223.4 205.041 214.6C205.041 206 211.841 201.2 223.641 201.2C236.641 201.2 243.841 207.6 247.641 216L271.841 208C266.641 189.6 250.241 175.6 225.241 175.6C195.041 175.6 177.841 193.2 177.841 214.2C177.841 242 201.441 249.8 221.841 256.6C237.041 261.6 250.241 266 250.241 277.8C250.241 289 241.241 294.8 227.641 294.8C214.041 294.8 203.041 285.8 197.041 272.8L172.441 282C180.441 305.8 200.441 320.4 226.841 320.4Z" fill="#ECECEC"/>
<path d="M364.688 318H390.688V215.8H364.688V272.2C364.688 288.6 357.688 295.4 345.288 295.4C333.088 295.4 327.488 288.2 327.488 271.8V215.8H301.488V280.2C301.488 310.6 319.888 320.4 337.288 320.4C349.088 320.4 358.488 316.2 364.688 308.4V318Z" fill="#ECECEC"/>
<path d="M420.652 318H446.652V261C446.652 243.4 455.252 239 464.252 239C472.252 239 478.052 241.6 482.852 245L486.452 221.2C480.652 216.4 474.252 213.4 465.652 213.4C455.452 213.4 449.652 218.4 446.652 224.8V215.8H420.652V318Z" fill="#ECECEC"/>
<path d="M566.641 318H592.641V215.8H566.641V272.2C566.641 288.6 559.641 295.4 547.241 295.4C535.041 295.4 529.441 288.2 529.441 271.8V215.8H503.441V280.2C503.441 310.6 521.841 320.4 539.241 320.4C551.041 320.4 560.441 316.2 566.641 308.4V318Z" fill="#ECECEC"/>
<path d="M683.605 262H717.605V236.8H683.605V202.4H657.605V236.8H623.605V262H657.605V296.4H683.605V262Z" fill="#ECECEC"/>
<path d="M809.582 262H843.582V236.8H809.582V202.4H783.582V236.8H749.582V262H783.582V296.4H809.582V262Z" fill="#ECECEC"/>
<path d="M514.958 405.531C517.767 405.531 520.264 406.546 522.448 408.574V409.277L520.576 411.734V412.32L523.619 416.065V416.65L523.034 419.81C523.814 419.888 524.204 420.278 524.204 420.981L521.746 422.268C521.746 422.658 521.98 422.853 522.448 422.853C522.448 426.833 511.095 440.058 488.389 462.53L481.601 471.191C493.149 471.191 502.434 469.943 509.457 467.446C512.344 468.538 518.118 470.177 526.779 472.362C533.021 474.937 537.352 479.891 539.77 487.226C544.686 490.971 547.144 496.355 547.144 503.378V507.006C547.144 528.307 531.07 553.276 498.923 581.912C468.57 609.066 442.353 626.622 420.271 634.581C398.112 644.88 379.151 651.864 363.389 655.531V654.361C364.326 654.361 367.408 653.307 372.636 651.201V650.03C369.749 651.279 366.862 652.098 363.975 652.488V651.201C364.755 651.201 368.266 648.743 374.508 643.827C375.054 643.827 380.633 640.745 391.245 634.581V633.879H390.543C388.046 635.517 382.701 638.209 374.508 641.954V641.369L380.711 636.336H380.009C375.64 638.833 373.182 640.082 372.636 640.082V639.497C376.459 634.893 379.736 631.187 382.467 628.378C382.077 628.378 381.882 628.144 381.882 627.675C384.613 626.583 386.251 625.374 386.798 624.047H386.212C384.574 624.827 383.13 625.218 381.882 625.218C386.173 620.926 395.459 613.943 409.738 604.267C418.243 595.606 441.144 574.734 478.441 541.65C490.067 529.4 496.66 517.852 498.221 507.006L497.05 506.421C496.348 506.811 495.529 507.006 494.593 507.006V506.421L493.305 507.006H489.56C480.431 507.006 471.574 509.269 462.991 513.794C455.345 516.291 448.127 518.359 441.339 519.998C441.339 520.544 440.09 521.363 437.593 522.455H434.55C433.146 522.455 432.093 522.26 431.39 521.87C427.177 522.26 422.456 523.08 417.228 524.328V523.158C411.844 524.796 408.528 525.616 407.28 525.616C406.968 525.616 402.208 524.562 393.001 522.455V521.87L393.703 520.7C392.455 520.7 391.83 520.466 391.83 519.998C391.83 519.607 392.65 518.398 394.288 516.369C393.898 515.589 393.703 514.731 393.703 513.794C394.171 513.794 395.81 512.156 398.619 508.879H398.034C392.962 510.517 390.075 511.336 389.372 511.336V510.166C390.621 510.166 391.83 509.347 393.001 507.708H392.416L388.085 509.464V508.879C388.085 507.396 397.995 498.111 417.814 481.023C425.928 475.093 430.883 470.762 432.678 468.031L440.051 459.955H439.466C422.456 469.865 398.112 479.15 366.432 487.811V486.641L370.178 485.353V484.768H369.475L348.525 489.099V487.811L353.441 485.939V485.353H352.856C349.735 486.212 348.057 486.641 347.823 486.641V485.939C349.696 483.13 356.328 478.214 367.72 471.191V470.489C359.137 472.128 353.324 474.195 350.281 476.692H347.238L341.034 477.278C341.034 476.497 340.644 476.107 339.864 476.107H336.119V474.82H337.289V474.234H336.119C336.119 474.625 335.924 474.82 335.534 474.82V474.234L337.991 471.191C337.523 471.191 337.289 470.957 337.289 470.489C338.147 470.099 338.772 469.904 339.162 469.904V469.319H337.991V468.616L345.365 463.701C339.981 462.452 337.289 461.438 337.289 460.658L337.991 459.37C337.055 459.37 336.236 457.732 335.534 454.454C334.675 454.454 334.246 454.025 334.246 453.167L336.704 450.709H335.534V450.124C335.924 448.329 341.073 445.832 350.983 442.633C351.373 439.746 351.997 438.303 352.856 438.303V439.59H353.441V438.303C353.051 438.303 352.856 438.108 352.856 437.718H353.441C357.498 439.746 359.956 440.761 360.814 440.761C361.829 439.122 367.837 437.288 378.839 435.26C422.768 423.712 453.082 417.938 469.78 417.938C493.344 409.667 508.403 405.531 514.958 405.531Z" fill="url(#paint2_linear)"/>
<path d="M659.621 412.086H663.015C670.74 412.086 677.177 416.845 682.327 426.365V427.301H681.624C681.624 427.145 681.39 426.716 680.922 426.013H680.571V426.365C680.571 426.833 682.951 429.291 687.71 433.738C689.739 438.186 690.754 442.048 690.754 445.325C690.754 445.559 690.637 446.457 690.402 448.017H689.817V446.379H689.466V448.368H688.764C688.686 447.354 687.32 445.676 684.667 443.336V443.687C689.895 451.411 692.509 460.424 692.509 470.723C692.509 479.618 689.232 498.852 682.678 528.425C675.187 557.997 667.15 581.444 658.567 598.766C654.666 608.91 651.506 613.982 649.087 613.982C643.937 621.394 639.607 626.817 636.095 630.25H635.861V629.899L637.851 626.856V626.505C637.695 626.505 636.798 627.441 635.159 629.314H634.808C635.276 627.363 635.51 626.232 635.51 625.92H635.159C623.377 634.035 612.492 638.092 602.505 638.092H598.525C587.211 638.092 578.043 635.166 571.02 629.314C569.928 628.846 568.563 628.612 566.924 628.612V628.261C566.924 627.792 567.275 627.558 567.977 627.558V627.207C567.041 627.207 566.339 626.661 565.871 625.569C557.756 619.248 553.113 614.138 551.943 610.236C551.397 609.846 548.939 606.14 544.569 599.117V598.415C545.974 599.742 546.754 600.405 546.91 600.405V600.054C546.91 599.898 546.442 599.234 545.505 598.064V597.713L547.261 598.064H547.612C544.647 588.467 543.165 579.064 543.165 569.857V565.41C543.165 552.847 547.105 535.447 554.986 513.209C555.844 511.415 556.429 510.517 556.741 510.517V511.219C556.273 512.624 556.039 513.521 556.039 513.911V514.263H556.39C556.39 512.936 557.171 511.219 558.731 509.113C563.023 496.394 568.133 484.651 574.064 473.883C579.291 464.052 587.328 452.933 598.174 440.527C607.927 430.383 613.233 425.311 614.092 425.311H614.443C614.443 425.623 613.194 427.106 610.697 429.759V430.11C610.931 430.11 612.297 428.979 614.794 426.716H615.145V426.95C615.145 427.574 611.517 433.231 604.26 443.921C603.558 444.857 601.841 447.705 599.11 452.465V452.816C622.831 425.662 643.001 412.086 659.621 412.086ZM673.431 424.609C673.431 425.155 674.914 425.857 677.879 426.716C676.397 425.311 674.914 424.609 673.431 424.609ZM606.601 486.407L606.835 486.992C606.835 487.928 605.431 489.879 602.622 492.844C599.422 499.476 597.823 503.066 597.823 503.612C598.213 503.69 598.408 503.885 598.408 504.197V504.782L597.589 505.836V506.421C598.525 506.421 598.993 507.006 598.993 508.176C598.603 508.176 598.135 508.84 597.589 510.166L594.429 511.805C590.449 521.714 588.46 532.287 588.46 543.523V545.513C588.46 556.67 592.907 565.995 601.802 573.485C606.328 575.904 609.254 577.114 610.58 577.114C611.517 577.114 612.999 576.841 615.028 576.294V576.528C615.028 577.153 614.677 577.465 613.975 577.465V577.699H614.794C614.872 577.309 615.067 577.114 615.379 577.114H615.613V577.465L614.794 579.103L616.198 579.454H617.018L616.784 578.869L617.018 578.284C616.862 577.972 616.784 577.582 616.784 577.114C616.784 576.958 616.862 576.88 617.018 576.88L616.784 576.294C616.784 576.06 617.525 575.397 619.007 574.305H620.412C620.412 573.29 621.465 572.159 623.572 570.91C629.658 564.434 634.535 560.104 638.202 557.919C644.054 554.252 646.98 551.13 646.98 548.556C649.633 542.782 651.428 538.178 652.364 534.745C652.052 534.745 651.701 534.355 651.311 533.574C651.311 533.184 651.584 532.989 652.13 532.989C651.74 532.287 651.545 531.741 651.545 531.351C654.9 528.073 656.89 524.679 657.514 521.168C658.606 518.749 659.543 514.614 660.323 508.762C664.692 495.653 667.618 484.885 669.101 476.458V473.883C669.101 465.925 667.033 458.512 662.898 451.645C659.23 448.993 655.914 447.549 652.949 447.315C647.253 447.315 642.26 449.227 637.968 453.05C637.968 455.157 636.446 456.561 633.403 457.263C633.403 457.42 632.116 459.019 629.541 462.062C629.541 465.573 625.835 468.694 618.422 471.425C612.648 477.434 608.708 482.427 606.601 486.407Z" fill="url(#paint3_linear)"/>
<path d="M318.641 739.771H340.857C343.657 740.26 345.057 740.96 345.057 741.871V742.799C345.577 742.799 345.838 742.896 345.838 743.092C345.577 743.352 345.447 743.857 345.447 744.605C345.838 744.605 346.342 745.012 346.961 745.826L346.18 746.119C346.18 745.924 346.066 745.826 345.838 745.826V746.705L346.57 747.633C344.292 748.447 343.152 749.456 343.152 750.66C329.513 754.013 317.762 757.838 307.898 762.135C305.001 763.339 301.046 764.755 296.033 766.383V766.676H317.078C319.943 766.676 323.654 766.578 328.211 766.383C333.061 767.457 335.486 768.564 335.486 769.703V771.168H335.877V771.803C334.835 771.803 334.314 771.998 334.314 772.389C334.575 773.463 334.705 774.065 334.705 774.195C334.184 774.879 333.924 775.481 333.924 776.002V776.93C333.077 777.06 326.697 780.283 314.783 786.598C300.916 793.694 277.934 807.887 245.838 829.176C239.295 833.993 231.01 837.411 220.984 839.43C220.984 839.039 220.594 838.844 219.812 838.844V838.551C219.812 837.509 224.793 831.975 234.754 821.949V821.607C234.233 821.607 233.973 821.412 233.973 821.021V817.115C233.973 814.999 235.633 810.458 238.953 803.492C247.384 778.232 254.285 758.31 259.656 743.727L261.951 742.213H264.246L265.369 742.799L267.322 741.578C267.387 742.001 267.632 742.213 268.055 742.213C268.055 741.594 284.917 740.781 318.641 739.771ZM302.918 751.246C281.727 751.702 271.131 752.304 271.131 753.053C271.131 753.541 270.366 755.755 268.836 759.693C269.194 759.693 269.585 760.003 270.008 760.621L269.617 761.207C270.105 761.272 270.35 761.484 270.35 761.842C269.731 762.232 269.227 762.428 268.836 762.428C269.096 762.818 269.227 763.128 269.227 763.355C274.467 762.151 286.202 758.115 304.432 751.246V750.953C303.553 751.148 303.048 751.246 302.918 751.246ZM263.074 776.93C262.586 777.646 258.761 788.925 251.6 810.768H251.99C275.265 795.436 293.396 784.465 306.385 777.857V777.516H289.148C285.535 777.516 276.844 777.32 263.074 776.93Z" fill="url(#paint4_linear)"/>
<path d="M377.381 748.414C377.446 748.707 377.674 748.854 378.064 748.854C378.52 748.691 378.862 748.609 379.09 748.609C381.401 750.107 382.557 752.564 382.557 755.982V756.52C379.822 776.311 378.374 788.421 378.211 792.848C381.01 792.262 382.605 791.969 382.996 791.969C382.996 792.132 382.312 792.49 380.945 793.043H381.287C382.199 792.75 382.996 792.604 383.68 792.604C383.126 793.189 381.043 794.361 377.43 796.119C377.039 800.644 376.827 803.639 376.795 805.104H376.453C376.453 805.234 376.551 805.299 376.746 805.299C373.751 826.23 372.254 837.102 372.254 837.916H371.57V837.525C371.57 836.777 371.489 835.67 371.326 834.205H370.984L370.887 837.916H370.203V837.232C369.552 837.232 369.178 838.551 369.08 841.188H368.396L368.152 838.551H367.811L367.713 840.992H367.029C365.955 839.43 364.913 836.939 363.904 833.521H363.562L363.514 834.205H362.879L362.977 830.689H362.635L362.195 833.326V833.521H361.512C360.633 831.34 360.193 828.053 360.193 823.658C360.193 822.844 360.21 821.982 360.242 821.07H359.559V821.705H358.875L359.266 820.191L359.363 818.189H359.021C358.989 818.515 358.729 819.54 358.24 821.266H357.557V820.68C357.557 819.996 357.361 819.166 356.971 818.189C357.687 810.279 358.077 805.771 358.143 804.664C349.191 809.156 342.648 811.565 338.514 811.891C334.38 817.229 330.734 820.94 327.576 823.023L323.523 822.828H322.156L321.473 823.023C321.277 822.763 321.18 822.47 321.18 822.145L320.496 822.389C318.348 820.533 317.273 819.101 317.273 818.092V817.359C317.436 812.477 327.43 798.691 347.254 776.002C348.523 774.212 354.399 767.717 364.881 756.52C365.011 753.004 367.111 751.246 371.18 751.246L371.521 751.686L371.18 752.125H372.498C372.563 750.855 373.393 749.83 374.988 749.049C375.444 749.212 375.786 749.293 376.014 749.293C376.014 749.065 376.469 748.772 377.381 748.414ZM363.807 758.717C363.807 758.945 363.318 759.742 362.342 761.109V761.305H362.684C362.684 760.979 363.156 760.41 364.1 759.596L364.148 758.717H363.807ZM362.049 780.152C362.016 781.064 357.719 787.33 349.158 798.951C352.576 797.779 355.994 796.9 359.412 796.314V796.119L362.342 780.348L362.391 780.152H362.049Z" fill="url(#paint5_linear)"/>
<path d="M391.395 739.43C392.306 739.56 393.445 739.755 394.812 740.016L397.693 740.602C397.986 740.667 398.263 740.699 398.523 740.699C398.719 740.699 398.898 740.683 399.061 740.65L399.695 740.943C399.923 740.911 400.118 740.895 400.281 740.895C400.444 740.895 400.59 740.911 400.721 740.943L400.623 741.139L406.678 741.676C429.106 745.908 446.326 752.499 458.338 761.451C459.184 763.372 459.607 764.934 459.607 766.139C459.607 766.464 459.575 766.773 459.51 767.066C458.403 771.168 454.643 774.081 448.23 775.807C446.082 778.476 438.172 781.503 424.5 784.889L443.055 808.473C449.077 815.146 453.374 824.13 455.945 835.426C455.913 835.654 455.815 835.768 455.652 835.768C454.611 835.768 450.607 829.794 443.641 817.848L456.922 844.557L450.721 839.771C450.981 840.195 451.111 840.52 451.111 840.748V840.895L450.135 840.699C448.702 840.016 440.223 831.878 424.695 816.285C418.934 809.221 412.667 800.562 405.896 790.309L405.555 790.26C401.29 805.722 396.212 819.182 390.32 830.641C389.246 832.724 387.277 837.33 384.412 844.459L383.777 844.312L385.096 839.479L384.803 839.381L383.826 841.725L383.289 843.58L382.996 843.482C381.271 843.157 379.969 839.885 379.09 833.668C379.122 830.803 379.952 828.199 381.58 825.855L383.24 822.73C383.208 820.842 383.126 819.898 382.996 819.898C382.931 819.898 382.866 820.012 382.801 820.24V819.996C382.508 819.996 380.376 825.53 376.404 836.598C377.902 830.38 378.65 826.93 378.65 826.246V826.1C378.618 826.1 378.569 826.165 378.504 826.295L376.893 822.975C381.938 809.173 384.51 802.044 384.607 801.588L384.9 800.611L384.559 800.514C382.866 806.015 380.799 811.891 378.357 818.141L376.062 822.438C375.346 823.284 374.842 823.707 374.549 823.707C374.321 823.707 374.207 823.495 374.207 823.072C374.207 821.021 376.762 813.909 381.873 801.734C383.403 796.201 385.047 788.551 386.805 778.785C387.846 775.074 388.79 772.486 389.637 771.021V770.924C389.637 770.859 389.555 770.81 389.393 770.777C392.29 765.146 394.78 758.587 396.863 751.1C392.859 749.895 388.465 746.933 383.68 742.213L391.395 739.43ZM420.691 757.105V757.203C422.384 757.496 423.279 757.659 423.377 757.691L423.328 757.936C423.23 757.903 421.977 757.854 419.568 757.789L416.102 757.447L415.613 757.496V758.082C415.613 758.44 415.597 758.733 415.564 758.961L412.684 767.945C412.553 767.945 412.488 767.962 412.488 767.994L412.732 768.043C421.88 767.294 427.316 766.464 429.041 765.553C434.998 764.12 438.042 762.997 438.172 762.184L438.27 761.842C433.908 759.986 428.227 758.424 421.229 757.154L420.691 757.105Z" fill="url(#paint6_linear)"/>
<path d="M485.242 752.711H485.486L503.602 756.227C514.637 759.091 521.277 761.695 523.523 764.039C525.542 766.578 526.551 768.336 526.551 769.312C526.551 769.703 526.632 770.045 526.795 770.338C526.111 770.598 525.77 770.859 525.77 771.119C525.965 771.445 526.062 771.689 526.062 771.852L525.037 772.877H524.549V772.34H524.256V772.877C524.451 774.96 524.549 776.132 524.549 776.393C523.865 777.857 523.019 778.867 522.01 779.42H520.496C519.617 779.42 518.868 779.16 518.25 778.639C517.957 778.834 517.615 778.932 517.225 778.932C517.225 778.671 516.801 778.411 515.955 778.15C515.792 778.15 515.711 778.232 515.711 778.395C511.805 777.385 508.11 776.881 504.627 776.881H504.383L502.625 777.125V776.881L502.088 777.125H501.844C495.203 777.125 487.228 779.143 477.918 783.18C475.053 787.639 473.621 791.334 473.621 794.264V795.533C474.012 801.751 474.695 804.859 475.672 804.859C479.122 806.194 482.817 806.861 486.756 806.861C487.277 806.861 490.467 806.194 496.326 804.859C502.055 804.859 513.465 801.165 530.555 793.775C530.587 793.613 532.02 792.848 534.852 791.48L535.096 792.018C530.506 794.361 528.081 795.533 527.82 795.533L528.064 796.021C527.218 796.477 526.795 796.819 526.795 797.047H527.283L535.877 793.775V794.02C535.551 794.41 532.866 795.663 527.82 797.779L527.283 798.805H527.527C529.676 797.828 531.287 797.161 532.361 796.803V797.047L525.525 800.807H526.062C528.309 800.221 531.32 798.967 535.096 797.047V797.291C534.64 797.975 532.964 798.902 530.066 800.074V800.318H530.311C534.152 798.821 536.43 798.072 537.146 798.072L535.34 799.586H535.633C536.089 799.228 536.674 799.049 537.391 799.049C537.391 799.83 533.777 803.362 526.551 809.645C524.5 811.663 520.04 814.511 513.172 818.189C510.503 819.199 503.113 821.054 491.004 823.756V824H490.76C484.933 824 477.625 821.738 468.836 817.213C464.832 813.762 461.821 810.491 459.803 807.398C457.264 805.803 455.994 802.434 455.994 797.291C455.18 795.663 454.773 793.824 454.773 791.773V790.26C454.773 783.814 457.459 777.841 462.83 772.34H463.074V772.096H462.83C459.152 773.528 456.124 775.204 453.748 777.125C453.748 776.799 453.585 776.637 453.26 776.637C453.26 776.897 452.495 777.564 450.965 778.639L450.721 778.15C454.529 774.798 458.224 771.445 461.805 768.092C462.228 767.734 462.57 767.555 462.83 767.555L462.537 767.066C463.449 765.895 465.304 764.56 468.104 763.062V762.77H467.615L466.59 763.307L466.346 762.77C476.697 758.082 484.673 755.738 490.271 755.738C490.271 755.51 491.362 755.348 493.543 755.25V754.957C488.725 753.785 485.958 753.199 485.242 753.199V752.711ZM460.486 779.859C461.495 779.208 462.081 778.883 462.244 778.883V778.688H462.049C461.072 779.176 460.551 779.566 460.486 779.859Z" fill="url(#paint7_linear)"/>
<path d="M564.246 750.172C566.102 750.204 568.022 750.709 570.008 751.686C578.374 750.937 585.438 750.497 591.199 750.367C600.151 750.725 607.557 750.904 613.416 750.904L613.465 751.295L610.34 751.49V751.686H613.904C613.351 752.271 611.137 752.955 607.264 753.736C605.05 754.518 602.397 755.152 599.305 755.641L599.354 755.836L609.998 756.373L610.096 756.764H607.508C607.15 756.796 606.971 756.91 606.971 757.105V757.154H610.145L610.242 757.545C607.378 758.424 598.784 759.742 584.461 761.5C580.457 761.598 577.055 761.646 574.256 761.646L573.621 761.842C573.23 761.712 572.791 761.646 572.303 761.646H569.422C568.999 761.874 568.364 762.949 567.518 764.869C567.55 765.032 568.315 765.667 569.812 766.773C569.422 766.904 569.113 766.969 568.885 766.969L568.934 767.115L570.057 767.896C567.42 775.709 566.102 779.843 566.102 780.299V780.348L570.838 779.957L570.887 780.152C571.896 779.892 573.784 779.762 576.551 779.762H578.162C579.399 779.762 584.852 780.331 594.52 781.471H594.812L594.91 781.861C594.747 781.861 594.113 781.91 593.006 782.008L593.055 782.203H595.301L595.35 782.594C590.727 783.538 587.7 784.417 586.268 785.23C583.826 785.621 581.157 786.126 578.26 786.744L578.309 786.939H578.943L578.992 787.135C572.352 790.26 566.997 791.822 562.928 791.822C561.398 800.221 559.038 807.643 555.848 814.088L555.896 814.43C559.282 814.072 562.456 813.893 565.418 813.893C577.039 814.12 583.891 814.234 585.975 814.234H588.855L588.953 814.625C588.66 814.625 587.602 814.69 585.779 814.82L585.828 815.016H588.367L588.416 815.211V815.26C588.416 815.455 588.123 815.553 587.537 815.553V815.748L589.539 815.943L589.588 816.334H589.246C588.986 816.334 587.944 816.399 586.121 816.529V816.725C589.279 816.725 592.29 816.79 595.154 816.92L595.203 817.262C593.38 817.392 592.339 817.457 592.078 817.457V817.652H595.301L595.35 818.043C592.452 818.759 586.902 819.752 578.699 821.021C578.276 821.38 573.475 822.519 564.295 824.439C561.919 825.579 554.253 826.767 541.297 828.004C539.507 828.004 538.611 828.297 538.611 828.883V828.98C538.416 829.469 538.156 829.713 537.83 829.713H537.488L537.293 828.785H537L536.854 829.713H536.219C535.372 828.671 534.917 827.988 534.852 827.662L534.559 826.344L533.826 825.758L533.777 825.562L534.021 825.172C532.394 825.172 530.88 824.553 529.48 823.316C529.188 823.316 528.829 823.121 528.406 822.73L528.357 822.34V822.145C528.357 821.461 529.204 820.468 530.896 819.166C531.84 817.831 533.159 816.952 534.852 816.529C537.033 809.107 539.1 800.693 541.053 791.285C544.926 780.706 549.256 770.273 554.041 759.986H553.748C552.413 759.726 551.714 759.465 551.648 759.205L551.795 758.277C550.949 758.277 550.477 758.082 550.379 757.691V757.496C550.379 756.975 550.672 756.357 551.258 755.641C550.997 755.413 550.851 755.169 550.818 754.908H551.746L551.355 754.518L551.307 754.127C552.837 752.63 555.88 751.881 560.438 751.881C561.023 750.872 562 750.367 563.367 750.367C563.367 750.497 563.481 750.562 563.709 750.562C563.709 750.302 563.888 750.172 564.246 750.172ZM549.256 813.111V813.209C549.256 813.6 548.947 814.202 548.328 815.016H549.305C549.695 815.016 549.891 814.902 549.891 814.674V814.625L549.549 813.111H549.256Z" fill="url(#paint8_linear)"/>
<path d="M631.531 739.43H631.727L632.41 739.869L633.436 739.723L633.387 739.869L633.826 739.723H634.217C635.161 740.927 635.633 741.92 635.633 742.701C635.633 742.864 635.617 743.01 635.584 743.141C628.064 762.053 622.075 779.501 617.615 795.484L612.146 814.967C609.868 823.137 607.264 829.452 604.334 833.912H603.943L604.236 832.887H604.041L603.553 833.912H603.162C602.837 833.554 602.674 833.049 602.674 832.398C602.674 832.236 602.69 832.04 602.723 831.812L602.967 831.08H602.771L602.381 832.447H601.99L602.137 830.494H601.746C601.128 832.285 600.737 833.473 600.574 834.059H600.184L600.477 832.301H600.281L599.744 834.205H599.354L599.451 833.912H599.256L597.547 839.967H597.156C597.221 839.739 597.352 838.795 597.547 837.135H597.352L597.059 838.209C596.863 839.413 596.749 840.048 596.717 840.113H596.326C596.001 837.965 595.838 836.142 595.838 834.645C595.838 833.375 595.952 832.333 596.18 831.52C596.44 822.763 597.286 815.813 598.719 810.67L598.67 810.084H598.865L598.768 809.791L599.5 807.154C599.533 807.057 599.549 806.975 599.549 806.91C599.549 806.78 599.516 806.666 599.451 806.568L599.744 806.275C600.525 801.197 601.079 798.089 601.404 796.949L601.99 794.703C602.023 794.605 602.039 794.508 602.039 794.41C602.039 794.312 602.023 794.215 601.99 794.117C602.153 793.954 602.267 793.759 602.332 793.531L603.162 790.602C603.227 790.439 603.26 790.292 603.26 790.162C603.26 790.032 603.227 789.934 603.162 789.869L603.602 788.941L603.992 787.623C604.025 787.493 604.041 787.395 604.041 787.33C604.041 787.232 604.008 787.184 603.943 787.184L604.285 786.598C607.378 775.595 612.505 762.639 619.666 747.73L620.105 747.584H620.496L620.984 747.877H621.375C622.026 746.998 623.003 745.126 624.305 742.262C626.193 741.155 627.202 740.602 627.332 740.602H627.918L628.26 740.748L629.139 740.455C629.334 740.553 629.513 740.602 629.676 740.602C630.132 740.081 630.75 739.69 631.531 739.43Z" fill="url(#paint9_linear)"/>
<path d="M662.146 751.344H664.93C669.389 751.344 673.507 754.404 677.283 760.523C678.162 761.24 679.269 763.648 680.604 767.75C681.938 768.792 683.191 771.721 684.363 776.539H684.607L684.363 776.93C684.363 777.06 684.445 777.125 684.607 777.125L684.363 777.516V779.859C684.363 781.975 684.201 784.579 683.875 787.672L685.389 792.75C685.389 797.6 682.02 804.436 675.281 813.258L669.471 818.141L668.982 817.945C661.854 821.852 657.296 823.805 655.311 823.805V823.414L656.58 823.219V823.023H656.336C653.439 823.674 650.656 824 647.986 824C639.49 824 632.426 819.247 626.795 809.742H626.551V811.5H626.014C626.014 811.174 625.851 810.263 625.525 808.766H625.281V811.109H624.793C623.263 808.928 622.498 804.176 622.498 796.852V796.266C622.498 788.518 625.021 779.339 630.066 768.727C634.559 761.598 640.288 757.04 647.254 755.055C655.034 752.581 659.998 751.344 662.146 751.344ZM638.465 800.416H637.977V800.221C637.846 799.179 637.781 798.528 637.781 798.268H637.537V800.416C637.537 800.839 638.074 801.783 639.148 803.248C639.148 804.42 640.825 806.08 644.178 808.229C645.708 808.456 647.091 808.57 648.328 808.57H648.523C655.229 808.57 661.202 806.08 666.443 801.1C669.503 797.812 671.033 792.848 671.033 786.207V783.717C671.033 783.326 671.115 783.033 671.277 782.838L671.033 781.764V777.516C669.796 774.163 667.957 771.917 665.516 770.777C662.814 769.703 660.6 769.166 658.875 769.166C656.108 769.166 651.6 770.875 645.35 774.293C643.364 775.172 642.371 777.125 642.371 780.152C639.767 791.285 638.465 798.04 638.465 800.416ZM684.9 777.125H685.389V777.516H684.9V777.125ZM625.281 808.18V808.57H625.525V808.18H625.281Z" fill="url(#paint10_linear)"/>
<path d="M735.34 750.123H735.926L735.584 752.076H735.877L736.316 751.1L736.414 750.514H737C737.163 750.514 737.244 751.018 737.244 752.027C737.244 754.762 736.642 761.158 735.438 771.217C734.461 776.62 732.589 786.191 729.822 799.928H729.529L729.725 800.318C729.725 800.449 729.627 800.514 729.432 800.514V800.562C729.432 800.66 729.513 800.709 729.676 800.709C729.155 802.662 728.813 804.094 728.65 805.006L728.504 805.787C728.439 806.08 728.292 806.34 728.064 806.568V806.617C728.064 806.715 728.146 806.764 728.309 806.764C727.82 808.521 727.495 809.824 727.332 810.67L726.307 816.529L725.818 817.701L726.062 818.092C725.9 819.068 724.939 821.217 723.182 824.537L724.109 829.225C723.491 828.932 723.019 828.281 722.693 827.271H722.4L722.352 827.662C722.742 828.248 722.938 828.753 722.938 829.176C722.938 829.273 722.921 829.355 722.889 829.42C721.684 828.443 720.822 827.857 720.301 827.662H719.764L717.273 828.443C713.66 828.443 711.495 826.49 710.779 822.584C710.747 822.031 710.73 821.51 710.73 821.021C710.73 820.077 710.796 819.231 710.926 818.482L711.609 814.381L703.309 795.631H703.016C702.918 796.217 702.755 796.607 702.527 796.803V796.852C702.527 796.949 702.609 796.998 702.771 796.998C702.739 797.258 702.625 797.389 702.43 797.389C701.648 800.676 701.095 803.281 700.77 805.201L699.549 812.037C699.484 812.493 699.288 813.079 698.963 813.795V813.844C698.963 813.941 699.044 813.99 699.207 813.99L698.768 814.967L698.67 815.553C697.726 820.891 696.391 823.561 694.666 823.561C694.503 823.561 693.901 823.626 692.859 823.756L692.664 823.365L692.029 823.561C691.899 823.561 691.297 823.105 690.223 822.193L689.881 822.584L690.613 823.365C690.092 823.43 689.181 824.277 687.879 825.904L685.682 826.686H683.387C680.294 825.969 678.748 824.439 678.748 822.096C678.748 821.77 678.781 821.412 678.846 821.021L679.773 815.748C679.806 815.618 679.92 815.553 680.115 815.553C680.115 815.423 680.018 815.357 679.822 815.357C690.141 785.149 696.359 767.376 698.475 762.037C698.637 762.037 698.768 761.842 698.865 761.451C698.442 760.702 698.23 759.286 698.23 757.203V756.764C698.654 756.764 699.207 756.373 699.891 755.592C700.639 755.592 701.03 755.527 701.062 755.396L700.965 754.42C701.583 754.42 702.202 753.574 702.82 751.881H703.406L703.309 752.467H703.895L703.943 752.076H704.236L707.117 754.029L707.264 753.053H707.85C707.882 753.411 707.898 753.736 707.898 754.029C707.898 754.322 707.882 754.583 707.85 754.811H708.143C708.338 753.639 708.631 753.053 709.021 753.053C709.835 753.704 710.275 757.285 710.34 763.795C714.376 779.42 716.557 788.469 716.883 790.943H717.176L717.615 789.967L720.35 779.42H720.643V779.371C720.643 779.273 720.561 779.225 720.398 779.225C721.863 775.286 723.507 769.687 725.33 762.428H725.916C726.014 761.939 726.502 760.312 727.381 757.545H727.967L727.82 758.326L727.771 760.279H728.064L728.406 758.326C728.504 758.066 728.715 757.936 729.041 757.936H729.334C729.562 759.042 729.676 760.149 729.676 761.256C729.676 762.102 729.611 762.949 729.48 763.795H729.773C730.717 761.712 732.573 757.154 735.34 750.123Z" fill="url(#paint11_linear)"/>
<path d="M786.951 748.414C787.016 748.707 787.244 748.854 787.635 748.854C788.09 748.691 788.432 748.609 788.66 748.609C790.971 750.107 792.127 752.564 792.127 755.982V756.52C789.393 776.311 787.944 788.421 787.781 792.848C790.581 792.262 792.176 791.969 792.566 791.969C792.566 792.132 791.883 792.49 790.516 793.043H790.857C791.769 792.75 792.566 792.604 793.25 792.604C792.697 793.189 790.613 794.361 787 796.119C786.609 800.644 786.398 803.639 786.365 805.104H786.023C786.023 805.234 786.121 805.299 786.316 805.299C783.322 826.23 781.824 837.102 781.824 837.916H781.141V837.525C781.141 836.777 781.059 835.67 780.896 834.205H780.555L780.457 837.916H779.773V837.232C779.122 837.232 778.748 838.551 778.65 841.188H777.967L777.723 838.551H777.381L777.283 840.992H776.6C775.525 839.43 774.484 836.939 773.475 833.521H773.133L773.084 834.205H772.449L772.547 830.689H772.205L771.766 833.326V833.521H771.082C770.203 831.34 769.764 828.053 769.764 823.658C769.764 822.844 769.78 821.982 769.812 821.07H769.129V821.705H768.445L768.836 820.191L768.934 818.189H768.592C768.559 818.515 768.299 819.54 767.811 821.266H767.127V820.68C767.127 819.996 766.932 819.166 766.541 818.189C767.257 810.279 767.648 805.771 767.713 804.664C758.761 809.156 752.218 811.565 748.084 811.891C743.95 817.229 740.304 820.94 737.146 823.023L733.094 822.828H731.727L731.043 823.023C730.848 822.763 730.75 822.47 730.75 822.145L730.066 822.389C727.918 820.533 726.844 819.101 726.844 818.092V817.359C727.007 812.477 737 798.691 756.824 776.002C758.094 774.212 763.969 767.717 774.451 756.52C774.581 753.004 776.681 751.246 780.75 751.246L781.092 751.686L780.75 752.125H782.068C782.133 750.855 782.964 749.83 784.559 749.049C785.014 749.212 785.356 749.293 785.584 749.293C785.584 749.065 786.04 748.772 786.951 748.414ZM773.377 758.717C773.377 758.945 772.889 759.742 771.912 761.109V761.305H772.254C772.254 760.979 772.726 760.41 773.67 759.596L773.719 758.717H773.377ZM771.619 780.152C771.587 781.064 767.29 787.33 758.729 798.951C762.146 797.779 765.564 796.9 768.982 796.314V796.119L771.912 780.348L771.961 780.152H771.619Z" fill="url(#paint12_linear)"/>
<defs>
<filter id="filter0_d" x="12.7" y="49.32" width="998.6" height="933.36" filterUnits="userSpaceOnUse" color-interpolation-filters="sRGB">
<feFlood flood-opacity="0" result="BackgroundImageFix"/>
<feColorMatrix in="SourceAlpha" type="matrix" values="0 0 0 0 0 0 0 0 0 0 0 0 0 0 0 0 0 0 127 0"/>
<feOffset dy="4"/>
<feGaussianBlur stdDeviation="5"/>
<feColorMatrix type="matrix" values="0 0 0 0 0 0 0 0 0 0 0 0 0 0 0 0 0 0 0.4 0"/>
<feBlend mode="normal" in2="BackgroundImageFix" result="effect1_dropShadow"/>
<feBlend mode="normal" in="SourceGraphic" in2="effect1_dropShadow" result="shape"/>
</filter>
<linearGradient id="paint0_linear" x1="512" y1="55.32" x2="512" y2="968.68" gradientUnits="userSpaceOnUse">
<stop stop-color="#DD5714"/>
<stop offset="1" stop-color="#FFEE00"/>
</linearGradient>
<linearGradient id="paint1_linear" x1="512" y1="112" x2="512" y2="912" gradientUnits="userSpaceOnUse">
<stop stop-color="#49535E"/>
<stop offset="1" stop-color="#2F3943"/>
</linearGradient>
<linearGradient id="paint2_linear" x1="466.503" y1="363.584" x2="476.476" y2="985.908" gradientUnits="userSpaceOnUse">
<stop stop-color="#0ABDC6"/>
<stop offset="1" stop-color="#EA00D9"/>
</linearGradient>
<linearGradient id="paint3_linear" x1="466.503" y1="363.584" x2="476.476" y2="985.908" gradientUnits="userSpaceOnUse">
<stop stop-color="#0ABDC6"/>
<stop offset="1" stop-color="#EA00D9"/>
</linearGradient>
<linearGradient id="paint4_linear" x1="474.598" y1="390.531" x2="482.919" y2="909.783" gradientUnits="userSpaceOnUse">
<stop stop-color="#0ABDC6"/>
<stop offset="1" stop-color="#EA00D9"/>
</linearGradient>
<linearGradient id="paint5_linear" x1="474.598" y1="390.531" x2="482.919" y2="909.783" gradientUnits="userSpaceOnUse">
<stop stop-color="#0ABDC6"/>
<stop offset="1" stop-color="#EA00D9"/>
</linearGradient>
<linearGradient id="paint6_linear" x1="474.598" y1="390.531" x2="482.919" y2="909.783" gradientUnits="userSpaceOnUse">
<stop stop-color="#0ABDC6"/>
<stop offset="1" stop-color="#EA00D9"/>
</linearGradient>
<linearGradient id="paint7_linear" x1="474.598" y1="390.531" x2="482.919" y2="909.783" gradientUnits="userSpaceOnUse">
<stop stop-color="#0ABDC6"/>
<stop offset="1" stop-color="#EA00D9"/>
</linearGradient>
<linearGradient id="paint8_linear" x1="474.598" y1="390.531" x2="482.919" y2="909.783" gradientUnits="userSpaceOnUse">
<stop stop-color="#0ABDC6"/>
<stop offset="1" stop-color="#EA00D9"/>
</linearGradient>
<linearGradient id="paint9_linear" x1="474.598" y1="390.531" x2="482.919" y2="909.783" gradientUnits="userSpaceOnUse">
<stop stop-color="#0ABDC6"/>
<stop offset="1" stop-color="#EA00D9"/>
</linearGradient>
<linearGradient id="paint10_linear" x1="474.598" y1="390.531" x2="482.919" y2="909.783" gradientUnits="userSpaceOnUse">
<stop stop-color="#0ABDC6"/>
<stop offset="1" stop-color="#EA00D9"/>
</linearGradient>
<linearGradient id="paint11_linear" x1="474.598" y1="390.531" x2="482.919" y2="909.783" gradientUnits="userSpaceOnUse">
<stop stop-color="#0ABDC6"/>
<stop offset="1" stop-color="#EA00D9"/>
</linearGradient>
<linearGradient id="paint12_linear" x1="474.598" y1="390.531" x2="482.919" y2="909.783" gradientUnits="userSpaceOnUse">
<stop stop-color="#0ABDC6"/>
<stop offset="1" stop-color="#EA00D9"/>
</linearGradient>
</defs>
</svg>
