<?xml version="1.0" standalone="no"?><!-- Generator: Gravit.io --><svg xmlns="http://www.w3.org/2000/svg" xmlns:xlink="http://www.w3.org/1999/xlink" style="isolation:isolate" viewBox="0 0 16 16" width="16" height="16"><defs><clipPath id="_clipPath_fAiBu5Pa1cmkcWo2ehCuLzj7ZEhZBp1Q"><rect width="16" height="16"/></clipPath></defs><g clip-path="url(#_clipPath_fAiBu5Pa1cmkcWo2ehCuLzj7ZEhZBp1Q)"><path d=" M 2.5 2 C 1.678 2 1 2.678 1 3.5 L 1 12.5 C 1 13.323 1.678 14 2.5 14 L 13.5 14 C 14.322 14 15 13.323 15 12.5 L 15 3.5 C 15 2.678 14.322 2 13.5 2 L 2.5 2 Z  M 2.5 3 L 6 3 L 6 7.965 L 7 6.965 L 8 7.965 L 9 7.215 L 10 7.965 L 10 3 L 13.5 3 C 13.786 3 14 3.215 14 3.5 L 14 12.5 C 14 12.786 13.786 13 13.5 13 L 2.5 13 C 2.366 13.003 2.237 12.952 2.143 12.857 C 2.048 12.763 1.997 12.634 2 12.5 L 2 3.5 C 2 3.215 2.214 3 2.5 3 Z  M 7 3 L 9 3 L 9 5.965 L 8.094 6.645 L 7 5.551 L 7 3 Z " fill="rgb(128,128,128)"/><rect x="18.188" y="-0.156" width="4.625" height="3.594" transform="matrix(1,0,0,1,0,0)" fill="rgb(128,128,128)"/></g></svg>