<?xml version="1.0" standalone="no"?><!-- Generator: Gravit.io --><svg xmlns="http://www.w3.org/2000/svg" xmlns:xlink="http://www.w3.org/1999/xlink" style="isolation:isolate" viewBox="0 0 16 16" width="16" height="16"><defs><clipPath id="_clipPath_WbiA6X87nwqfavigs98fb8gQUjd6sTwZ"><rect width="16" height="16"/></clipPath></defs><g clip-path="url(#_clipPath_WbiA6X87nwqfavigs98fb8gQUjd6sTwZ)"><path d=" M 13.761 12.674 C 13.761 12.674 17.597 20.475 15.227 12.181 C 15.227 12.181 13.421 6.163 11.064 2.468 C 11.064 2.468 8.95 -1.876 6.307 0.963 C 6.307 0.963 0.726 6.859 0.041 13.724 C 0.041 13.724 -0.684 17.655 3.982 15.159 L 10.299 12.033 C 10.299 12.033 14.982 9.549 9.629 11.14 L 4.333 13.054 C 4.333 13.054 2.024 14.157 3.025 12.033 C 3.025 12.033 5.226 6.642 6.566 5.206 C 6.566 5.206 8.129 2.202 9.405 5.028 C 9.406 5.027 11.96 8.658 13.761 12.674 Z " fill="rgb(128,128,128)"/><rect x="18.188" y="-0.156" width="4.625" height="3.594" transform="matrix(1,0,0,1,0,0)" fill="rgb(128,128,128)"/></g></svg>