<?xml version="1.0" standalone="no"?><!-- Generator: Gravit.io --><svg xmlns="http://www.w3.org/2000/svg" xmlns:xlink="http://www.w3.org/1999/xlink" style="isolation:isolate" viewBox="0 0 16 16" width="16" height="16"><defs><clipPath id="_clipPath_ZjjNGjwq2mRlCviay5wSRW1jzaSt1HBS"><rect width="16" height="16"/></clipPath></defs><g clip-path="url(#_clipPath_ZjjNGjwq2mRlCviay5wSRW1jzaSt1HBS)"><rect x="18.188" y="-0.156" width="4.625" height="3.594" transform="matrix(1,0,0,1,0,0)" fill="rgb(128,128,128)"/><path d=" M 2 0 C 2 0 0 -0.003 0 2 L 0 14 C 0 15.997 2 16 2 16 L 14 16 C 14.095 15.997 16 15.997 16 14 L 16 2 C 16 2 16 0 14 0 L 2 0 Z  M 4.906 3 L 11.094 3 C 12.15 3 13 3.85 13 4.906 L 13 5.094 C 13 6.15 12.15 7 11.094 7 L 4.906 7 C 3.85 7 3 6.15 3 5.094 L 3 4.906 C 3 3.85 3.85 3 4.906 3 Z  M 5 4 C 4.448 4 4 4.448 4 5 C 4 5.552 4.448 6 5 6 C 5.552 6 6 5.552 6 5 C 6 4.448 5.552 4 5 4 Z  M 4.943 9 L 11.057 9 C 12.133 9 13 9.867 13 10.943 L 13 11.057 C 13 12.133 12.133 13 11.057 13 L 4.943 13 C 3.867 13 3 12.133 3 11.057 L 3 10.943 C 3 9.867 3.867 9 4.943 9 Z  M 11 10 C 10.448 10 10 10.448 10 11 C 10 11.552 10.448 12 11 12 C 11.552 12 12 11.552 12 11 C 12 10.448 11.552 10 11 10 Z " fill="rgb(128,128,128)"/></g></svg>