<?xml version="1.0" standalone="no"?><!-- Generator: Gravit.io --><svg xmlns="http://www.w3.org/2000/svg" xmlns:xlink="http://www.w3.org/1999/xlink" style="isolation:isolate" viewBox="0 0 16 16" width="16" height="16"><defs><clipPath id="_clipPath_crMR4OKRvG4BUO0oeDQCavJbEee8tWWe"><rect width="16" height="16"/></clipPath></defs><g clip-path="url(#_clipPath_crMR4OKRvG4BUO0oeDQCavJbEee8tWWe)"><rect x="18.188" y="-0.156" width="4.625" height="3.594" transform="matrix(1,0,0,1,0,0)" fill="rgb(128,128,128)"/><path d=" M 7.135 0.5 C 6.877 0.5 6.826 0.511 6.722 0.6 C 6.515 0.773 6.397 1.307 6.398 2.084 C 6.399 2.887 6.509 3.651 6.762 4.646 L 6.921 5.266 L 6.772 5.733 C 6.297 7.251 5.608 8.83 4.594 10.723 C 3.056 13.591 1.868 15.097 1.04 15.231 C 0.907 15.253 0.901 15.246 0.901 15.151 C 0.901 14.667 1.818 13.457 2.839 12.594 C 3.361 12.154 2.754 12.448 2.052 12.977 C 1.344 13.509 0.758 14.199 0.577 14.714 C 0.447 15.081 0.475 15.21 0.711 15.33 C 1.134 15.545 1.348 15.553 1.708 15.374 C 2.407 15.028 3.331 13.93 4.359 12.227 C 4.693 11.675 4.798 11.537 4.883 11.537 C 4.913 11.537 5.228 11.449 5.58 11.343 C 6.989 10.919 8.681 10.576 10.34 10.375 L 10.893 10.306 L 11.172 10.445 C 11.899 10.809 12.912 11.163 13.654 11.309 C 14.157 11.407 14.81 11.425 15.03 11.348 C 15.168 11.3 15.457 11.129 15.457 11.073 C 14.893 11.337 14.044 11.01 13.405 10.822 C 12.984 10.689 12.057 10.327 12.005 10.276 C 13.127 10.058 15.232 10.01 15.459 10.787 C 15.525 10.787 15.508 10.475 15.434 10.35 C 15.295 10.116 14.892 9.927 14.312 9.819 C 13.843 9.732 12.73 9.707 11.86 9.764 L 11.088 9.814 L 10.809 9.645 C 9.208 8.675 8.361 7.581 7.594 5.504 C 7.479 5.192 7.471 5.15 7.509 4.953 C 7.643 4.261 7.768 1.923 7.674 1.865 C 7.503 2.631 7.364 3.397 7.19 4.089 C 7.154 4.089 7.049 3.55 6.966 2.922 C 6.876 2.24 6.909 1.316 7.031 1.001 C 7.08 0.875 7.144 0.76 7.175 0.748 C 7.489 0.838 7.663 1.086 7.709 1.468 C 7.753 1.468 7.765 1.395 7.773 1.16 C 7.793 0.643 7.655 0.5 7.135 0.5 L 7.135 0.5 Z  M 7.26 6.2 C 7.278 6.192 7.288 6.234 7.31 6.294 C 7.337 6.37 7.488 6.681 7.644 6.984 C 8.313 8.29 9.053 9.147 10.121 9.849 C 10.175 9.883 10.208 9.925 10.196 9.938 C 10.183 9.949 9.966 9.998 9.717 10.042 C 8.023 10.344 5.914 10.979 4.888 11.492 C 4.871 11.5 4.858 11.484 4.858 11.458 C 4.858 11.432 4.959 11.221 5.087 10.991 C 6.054 9.261 6.704 7.863 7.071 6.712 C 7.187 6.347 7.23 6.21 7.26 6.2 L 7.26 6.2 Z " fill="rgb(128,128,128)"/></g></svg>