<?xml version="1.0" standalone="no"?><!-- Generator: Gravit.io --><svg xmlns="http://www.w3.org/2000/svg" xmlns:xlink="http://www.w3.org/1999/xlink" style="isolation:isolate" viewBox="0 0 16 16" width="16" height="16"><defs><clipPath id="_clipPath_26K433LcHXak67YnvLxuXQy5ua5yiHn1"><rect width="16" height="16"/></clipPath></defs><g clip-path="url(#_clipPath_26K433LcHXak67YnvLxuXQy5ua5yiHn1)"><path d=" M 6.887 4.875 L 1.031 4.875 L 1.031 4.875 L 1.031 14.531 L 15.031 14.531 L 15.031 4.875 L 8.765 4.875 L 11.88 1.89 L 12.24 1.55 L 11.55 0.82 L 11.19 1.17 L 7.82 4.39 L 5.54 2.09 L 5.19 1.73 L 4.48 2.43 L 4.83 2.79 L 6.887 4.875 Z  M 2.03 5.87 L 2.03 13.53 L 14.03 13.53 L 14.03 5.87 L 2.03 5.87 L 2.03 5.87 Z " fill-rule="evenodd" fill="rgb(128,128,128)"/><rect x="17.625" y="-0.281" width="4.625" height="3.594" transform="matrix(1,0,0,1,0,0)" fill="rgb(128,128,128)"/></g></svg>