<?xml version="1.0" standalone="no"?><!-- Generator: Gravit.io --><svg xmlns="http://www.w3.org/2000/svg" xmlns:xlink="http://www.w3.org/1999/xlink" style="isolation:isolate" viewBox="0 0 16 16" width="16" height="16"><path d=" M 1.230769 0 C 0.551034 0 0 0.551034 0 1.230769 L 0 6.153846 C 0 6.833581 0.551034 7.384615 1.230769 7.384615 L 6.153846 7.384615 C 6.833581 7.384615 7.384615 6.833581 7.384615 6.153846 L 7.384615 1.230769 C 7.384615 0.551034 6.833581 0 6.153846 0 L 1.230769 0 Z  M 9.846154 0 C 9.166419 0 8.615385 0.551034 8.615385 1.230769 L 8.615385 6.153846 C 8.615385 6.833581 9.166419 7.384615 9.846154 7.384615 L 14.769231 7.384615 C 15.448966 7.384615 16 6.833581 16 6.153846 L 16 1.230769 C 16 0.551034 15.448966 0 14.769231 0 L 9.846154 0 Z  M 3.076923 1.230769 L 4.307692 1.230769 L 4.307692 3.076923 L 6.153846 3.076923 L 6.153846 4.307692 L 4.307692 4.307692 L 4.307692 6.153846 L 3.076923 6.153846 L 3.076923 4.307692 L 1.230769 4.307692 L 1.230769 3.076923 L 3.076923 3.076923 L 3.076923 1.230769 Z  M 9.846154 3.076923 L 14.769231 3.076923 L 14.769231 4.307692 L 9.846154 4.307692 L 9.846154 3.076923 Z  M 1.230769 8.615385 C 0.551034 8.615385 0 9.166419 0 9.846154 L 0 14.769231 C 0 15.448966 0.551034 16 1.230769 16 L 6.153846 16 C 6.833581 16 7.384615 15.448966 7.384615 14.769231 L 7.384615 9.846154 C 7.384615 9.166419 6.833581 8.615385 6.153846 8.615385 L 1.230769 8.615385 Z  M 9.846154 8.615385 C 9.166419 8.615385 8.615385 9.166419 8.615385 9.846154 L 8.615385 14.769231 C 8.615385 15.448966 9.166419 16 9.846154 16 L 14.769231 16 C 15.448966 16 16 15.448966 16 14.769231 L 16 9.846154 C 16 9.166419 15.448966 8.615385 14.769231 8.615385 L 9.846154 8.615385 Z  M 2.384615 10.134769 L 3.692308 11.442462 L 5 10.134769 L 5.865231 11 L 4.557538 12.307692 L 5.865231 13.615385 L 5 14.480615 L 3.692308 13.172923 L 2.384615 14.480615 L 1.519385 13.615385 L 2.827077 12.307692 L 1.519385 11 L 2.384615 10.134769 Z  M 9.846154 10.461538 L 14.769231 10.461538 L 14.769231 11.692308 L 9.846154 11.692308 L 9.846154 10.461538 Z  M 9.846154 12.923077 L 14.769231 12.923077 L 14.769231 14.153846 L 9.846154 14.153846 L 9.846154 12.923077 Z " id="maths" fill="rgb(128,128,128)"/></svg>