<?xml version="1.0" standalone="no"?><!-- Generator: Gravit.io --><svg xmlns="http://www.w3.org/2000/svg" xmlns:xlink="http://www.w3.org/1999/xlink" style="isolation:isolate" viewBox="0 0 16 16" width="16" height="16"><defs><clipPath id="_clipPath_hHgRsNX8fiwcEiiRXaFkzwXS9WyNoS0e"><rect width="16" height="16"/></clipPath></defs><g clip-path="url(#_clipPath_hHgRsNX8fiwcEiiRXaFkzwXS9WyNoS0e)"><rect x="17.188" y="0.063" width="4.625" height="3.594" transform="matrix(1,0,0,1,0,0)" fill="rgb(128,128,128)"/><path d=" M 5.212 8.609 L 5.212 8.609 L 5.212 8.609 Q 4.962 8.872 4.59 8.872 L 4.59 8.872 L 4.59 8.872 Q 4.219 8.872 3.969 8.609 L 3.969 8.609 L 3.969 8.609 Q 3.719 8.346 3.719 8 L 3.719 8 L 3.719 8 Q 3.719 7.641 3.969 7.385 L 3.969 7.385 L 3.969 7.385 Q 4.219 7.128 4.59 7.128 L 4.59 7.128 L 4.59 7.128 Q 4.962 7.128 5.212 7.385 L 5.212 7.385 L 5.212 7.385 Q 5.462 7.641 5.462 8 L 5.462 8 L 5.462 8 Q 5.462 8.346 5.212 8.609 Z  M 8.622 8.609 L 8.622 8.609 L 8.622 8.609 Q 8.372 8.872 8 8.872 L 8 8.872 L 8 8.872 Q 7.628 8.872 7.378 8.609 L 7.378 8.609 L 7.378 8.609 Q 7.128 8.346 7.128 8 L 7.128 8 L 7.128 8 Q 7.128 7.641 7.378 7.385 L 7.378 7.385 L 7.378 7.385 Q 7.628 7.128 8 7.128 L 8 7.128 L 8 7.128 Q 8.372 7.128 8.622 7.385 L 8.622 7.385 L 8.622 7.385 Q 8.872 7.641 8.872 8 L 8.872 8 L 8.872 8 Q 8.872 8.346 8.622 8.609 Z  M 12.031 8.609 L 12.031 8.609 L 12.031 8.609 Q 11.781 8.872 11.41 8.872 L 11.41 8.872 L 11.41 8.872 Q 11.038 8.872 10.788 8.609 L 10.788 8.609 L 10.788 8.609 Q 10.538 8.346 10.538 8 L 10.538 8 L 10.538 8 Q 10.538 7.641 10.788 7.385 L 10.788 7.385 L 10.788 7.385 Q 11.038 7.128 11.41 7.128 L 11.41 7.128 L 11.41 7.128 Q 11.781 7.128 12.031 7.385 L 12.031 7.385 L 12.031 7.385 Q 12.281 7.641 12.281 8 L 12.281 8 L 12.281 8 Q 12.281 8.346 12.031 8.609 Z  M 5.379 15.259 L 4.914 15.259 L 4.914 15.259 Q 3.345 15.224 2.422 14.207 L 2.422 14.207 L 2.422 14.207 Q 1.5 13.19 1.5 11.259 L 1.5 11.259 L 1.5 10.31 L 1.5 10.31 Q 1.5 9.552 1.19 9.086 L 1.19 9.086 L 1.19 9.086 Q 0.879 8.621 0.345 8.621 L 0.345 8.621 L 0 8.621 L 0 7.362 L 0.345 7.362 L 0.345 7.362 Q 0.879 7.362 1.19 6.897 L 1.19 6.897 L 1.19 6.897 Q 1.5 6.431 1.5 5.672 L 1.5 5.672 L 1.5 4.741 L 1.5 4.741 Q 1.5 2.81 2.422 1.784 L 2.422 1.784 L 2.422 1.784 Q 3.345 0.759 4.914 0.741 L 4.914 0.741 L 5.379 0.741 L 5.379 2.017 L 4.914 2.017 L 4.914 2.017 Q 3.966 2.034 3.474 2.655 L 3.474 2.655 L 3.474 2.655 Q 2.983 3.276 2.983 4.414 L 2.983 4.414 L 2.983 5.448 L 2.983 5.448 Q 2.983 6.776 2.569 7.319 L 2.569 7.319 L 2.569 7.319 Q 2.155 7.862 1.276 7.966 L 1.276 7.966 L 1.276 8.034 L 1.276 8.034 Q 2.172 8.155 2.578 8.672 L 2.578 8.672 L 2.578 8.672 Q 2.983 9.19 2.983 10.552 L 2.983 10.552 L 2.983 11.586 L 2.983 11.586 Q 2.983 12.724 3.474 13.353 L 3.474 13.353 L 3.474 13.353 Q 3.966 13.983 4.914 13.983 L 4.914 13.983 L 5.379 13.983 L 5.379 15.259 Z  M 11.086 15.259 L 10.621 15.259 L 10.621 13.983 L 11.086 13.983 L 11.086 13.983 Q 12.034 13.983 12.526 13.353 L 12.526 13.353 L 12.526 13.353 Q 13.017 12.724 13.017 11.586 L 13.017 11.586 L 13.017 10.552 L 13.017 10.552 Q 13.017 9.19 13.422 8.672 L 13.422 8.672 L 13.422 8.672 Q 13.828 8.155 14.724 8.034 L 14.724 8.034 L 14.724 7.966 L 14.724 7.966 Q 13.862 7.862 13.44 7.319 L 13.44 7.319 L 13.44 7.319 Q 13.017 6.776 13.017 5.448 L 13.017 5.448 L 13.017 4.414 L 13.017 4.414 Q 13.017 3.276 12.526 2.655 L 12.526 2.655 L 12.526 2.655 Q 12.034 2.034 11.086 2.017 L 11.086 2.017 L 10.621 2.017 L 10.621 0.741 L 11.086 0.741 L 11.086 0.741 Q 12.672 0.759 13.586 1.784 L 13.586 1.784 L 13.586 1.784 Q 14.5 2.81 14.5 4.741 L 14.5 4.741 L 14.5 5.672 L 14.5 5.672 Q 14.5 6.431 14.81 6.897 L 14.81 6.897 L 14.81 6.897 Q 15.121 7.362 15.655 7.362 L 15.655 7.362 L 16 7.362 L 16 8.621 L 15.655 8.621 L 15.655 8.621 Q 15.121 8.621 14.81 9.086 L 14.81 9.086 L 14.81 9.086 Q 14.5 9.552 14.5 10.31 L 14.5 10.31 L 14.5 11.259 L 14.5 11.259 Q 14.5 13.19 13.586 14.207 L 13.586 14.207 L 13.586 14.207 Q 12.672 15.224 11.086 15.259 L 11.086 15.259 Z " fill-rule="evenodd" fill="rgb(128,128,128)"/></g></svg>