<?xml version="1.0" encoding="UTF-8" standalone="no"?>
<!-- Created with Inkscape (http://www.inkscape.org/) -->

<svg
   xmlns:dc="http://purl.org/dc/elements/1.1/"
   xmlns:cc="http://creativecommons.org/ns#"
   xmlns:rdf="http://www.w3.org/1999/02/22-rdf-syntax-ns#"
   xmlns:svg="http://www.w3.org/2000/svg"
   xmlns="http://www.w3.org/2000/svg"
   xmlns:sodipodi="http://sodipodi.sourceforge.net/DTD/sodipodi-0.dtd"
   xmlns:inkscape="http://www.inkscape.org/namespaces/inkscape"
   width="16"
   height="16"
   id="svg8385"
   version="1.1"
   inkscape:version="0.92.2 (unknown)"
   sodipodi:docname="dvdisaster-symbolic.svg">
  <defs
     id="defs8387">
    <linearGradient
       id="linearGradient6782">
      <stop
         id="stop6784"
         style="stop-color:#fae751;stop-opacity:1;"
         offset="0" />
      <stop
         id="stop6786"
         style="stop-color:#a5c662;stop-opacity:1;"
         offset="0.69999999" />
      <stop
         id="stop6788"
         style="stop-color:#789d2e;stop-opacity:1;"
         offset="1" />
    </linearGradient>
    <clipPath
       id="clipPath11530">
      <path
         d="m 118.625,209.5 c 2.58333,-0.38773 5.16667,-0.51062 7.75,0.75 0,0 0.28209,5.48132 -1.625,5.625 -2.37827,0.17918 -6.125,-6.375 -6.125,-6.375 z"
         inkscape:connector-curvature="0"
         id="path11532"
         style="fill:none;stroke:#000000;stroke-width:0.0875215;stroke-linecap:butt;stroke-linejoin:miter;stroke-miterlimit:4;stroke-opacity:1;stroke-dasharray:none;stroke-dashoffset:0;marker:none;visibility:visible;display:inline;overflow:visible" />
    </clipPath>
    <linearGradient
       id="linearGradient11579">
      <stop
         id="stop11581"
         style="stop-color:#000000;stop-opacity:1"
         offset="0" />
      <stop
         id="stop11583"
         style="stop-color:#000000;stop-opacity:0"
         offset="1" />
    </linearGradient>
    <linearGradient
       id="linearGradient6499">
      <stop
         id="stop6501"
         style="stop-color:#ffffff;stop-opacity:1"
         offset="0" />
      <stop
         id="stop6503"
         style="stop-color:#ffffff;stop-opacity:0;"
         offset="1" />
    </linearGradient>
    <linearGradient
       id="linearGradient6537">
      <stop
         id="stop6539"
         style="stop-color:#000000;stop-opacity:1"
         offset="0" />
      <stop
         id="stop6541"
         style="stop-color:#000000;stop-opacity:0"
         offset="1" />
    </linearGradient>
    <linearGradient
       id="linearGradient6808">
      <stop
         id="stop6810"
         style="stop-color:#244206;stop-opacity:1"
         offset="0" />
      <stop
         id="stop6812"
         style="stop-color:#000000;stop-opacity:1"
         offset="1" />
    </linearGradient>
    <linearGradient
       id="linearGradient6597">
      <stop
         id="stop6599"
         style="stop-color:#eeeeec;stop-opacity:0"
         offset="0" />
      <stop
         id="stop6605"
         style="stop-color:#ffffff;stop-opacity:1"
         offset="0.52820206" />
      <stop
         id="stop6601"
         style="stop-color:#eeeeec;stop-opacity:0"
         offset="1" />
    </linearGradient>
    <linearGradient
       id="linearGradient4008">
      <stop
         id="stop4010"
         style="stop-color:#fff9e8;stop-opacity:1"
         offset="0" />
      <stop
         id="stop4012"
         style="stop-color:#a7cc5c;stop-opacity:1"
         offset="1" />
    </linearGradient>
    <linearGradient
       id="linearGradient6820">
      <stop
         id="stop6822"
         style="stop-color:#244206;stop-opacity:1"
         offset="0" />
      <stop
         id="stop6824"
         style="stop-color:#000000;stop-opacity:1"
         offset="1" />
    </linearGradient>
    <linearGradient
       id="linearGradient6320">
      <stop
         id="stop6322"
         style="stop-color:#ffffff;stop-opacity:1"
         offset="0" />
      <stop
         id="stop6324"
         style="stop-color:#ffffff;stop-opacity:0"
         offset="1" />
    </linearGradient>
    <linearGradient
       id="linearGradient6814">
      <stop
         id="stop6816"
         style="stop-color:#a7cc5c;stop-opacity:1"
         offset="0" />
      <stop
         id="stop6818"
         style="stop-color:#a7cc5c;stop-opacity:0"
         offset="1" />
    </linearGradient>
    <linearGradient
       id="linearGradient12297">
      <stop
         id="stop12299"
         style="stop-color:#fdfcbc;stop-opacity:1"
         offset="0" />
      <stop
         id="stop12301"
         style="stop-color:#fdfcbc;stop-opacity:0"
         offset="1" />
    </linearGradient>
    <linearGradient
       id="linearGradient12477">
      <stop
         id="stop12479"
         style="stop-color:#616161;stop-opacity:1"
         offset="0" />
      <stop
         id="stop12481"
         style="stop-color:#000000;stop-opacity:1"
         offset="1" />
    </linearGradient>
    <filter
       inkscape:collect="always"
       style="color-interpolation-filters:sRGB"
       id="filter946"
       x="-0.063833959"
       width="1.1276679"
       y="-0.047875471"
       height="1.0957509">
      <feGaussianBlur
         inkscape:collect="always"
         stdDeviation="7.9792452"
         id="feGaussianBlur948" />
    </filter>
  </defs>
  <sodipodi:namedview
     id="base"
     pagecolor="#ffffff"
     bordercolor="#666666"
     borderopacity="1.0"
     inkscape:pageopacity="0.0"
     inkscape:pageshadow="2"
     inkscape:zoom="44.5625"
     inkscape:cx="3.1039015"
     inkscape:cy="8"
     inkscape:document-units="px"
     inkscape:current-layer="g1554"
     showgrid="false"
     fit-margin-top="0"
     fit-margin-left="0"
     fit-margin-right="0"
     fit-margin-bottom="0"
     showguides="false"
     inkscape:window-width="1920"
     inkscape:window-height="1013"
     inkscape:window-x="0"
     inkscape:window-y="34"
     inkscape:window-maximized="1" />
  <metadata
     id="metadata8390">
    <rdf:RDF>
      <cc:Work
         rdf:about="">
        <dc:format>image/svg+xml</dc:format>
        <dc:type
           rdf:resource="http://purl.org/dc/dcmitype/StillImage" />
        <dc:title></dc:title>
      </cc:Work>
    </rdf:RDF>
  </metadata>
  <g
     inkscape:label="Capa 1"
     inkscape:groupmode="layer"
     id="layer1"
     transform="translate(-312,-467.21933)">
    <g
       style="display:inline;enable-background:new"
       id="g6993"
       transform="matrix(0.28455811,0,0,0.28455811,306.34121,461.92639)">
      <g
         id="g6995"
         transform="matrix(2.0151422,0,0,1.9930972,-678.76508,-285.42338)" />
      <g
         style="opacity:0.24630498"
         id="g6997"
         transform="matrix(4.6265244,0,0,5.7118218,-1382.4294,-958.72456)" />
      <g
         id="g7001"
         transform="matrix(1.319247,0,0,1.319247,61.315247,12.817105)">
        <g
           id="g7003"
           transform="matrix(-6.3250506,5.4648949,5.4648949,6.3250506,1037.8937,-2858.9753)">
          <g
             id="g7005"
             transform="matrix(-0.820668,0.571405,0.571405,0.820668,471.332,-148.098)" />
        </g>
        <g
           id="g7015"
           transform="matrix(6.2400607,5.0819736,-5.0819736,6.2400607,-1030.7704,-2721.3999)">
          <g
             id="g7017"
             transform="matrix(-0.820668,0.571405,0.571405,0.820668,471.332,-148.098)" />
        </g>
      </g>
      <g
         id="g7061"
         transform="matrix(1.319247,0,0,1.319247,78.206321,29.578534)">
        <g
           id="g7063"
           transform="matrix(0.300126,0,0,0.1287939,-28.672113,-2.6773104)" />
      </g>
      <g
         id="g7071"
         transform="matrix(1.319247,0,0,1.319247,46.533345,29.578534)">
        <g
           id="g7073"
           transform="matrix(0.300126,0,0,0.1287939,-28.672113,-2.6773104)" />
      </g>
      <g
         transform="matrix(0.13262274,0,0,0.13163119,23.31342,21.781438)"
         id="g1554"
         style="fill:#808080;fill-opacity:1">
        <path
           inkscape:connector-curvature="0"
           d="m 184.87544,-10.354192 c 55.2,0 100,44.8 100,100.000002 0,55.2 -44.8,100 -100,100 -55.2,0 -100,44.8 -100,100 0,55.2 44.8,100 100,100 110.4,0 200,-89.6 200,-200 0,-110.4 -89.6,-200.000002 -200,-200.000002 z m 0,268.750002 c 17.25,0 31.25,14 31.25,31.25 0,17.25 -14,31.25 -31.25,31.25 -17.25,0 -31.25,-14 -31.25,-31.25 0,-17.25 14,-31.25 31.25,-31.25 z"
           id="use1550"
           style="fill:#808080;fill-opacity:1;stroke-width:0.5" />
      </g>
      <g
         id="g1560"
         style="fill:#e1dee1;fill-opacity:1"
         transform="matrix(-0.13262274,0,0,-0.13163119,76.580978,74.794374)">
        <path
           inkscape:connector-curvature="0"
           d="m 214.2399,13.554695 c 55.2,0 100,44.799998 100,99.999995 0,55.2 -44.8,100 -100,100 -55.2,0 -100,44.8 -100,100 0,55.2 44.8,100 100,100 110.4,0 200,-89.6 200,-200 0,-110.4 -89.6,-199.999995 -200,-199.999995 z m 0,268.749995 c 17.25,0 31.25,14 31.25,31.25 0,17.25 -14,31.25 -31.25,31.25 -17.25,0 -31.25,-14 -31.25,-31.25 0,-17.25 14,-31.25 31.25,-31.25 z"
           id="use1556"
           style="fill:#e1dee1;fill-opacity:1;stroke:none;stroke-width:0.5;stroke-opacity:1" />
      </g>
    </g>
  </g>
</svg>
