<?xml version="1.0" encoding="UTF-8" standalone="no"?>
<!-- Created with Inkscape (http://www.inkscape.org/) -->

<svg
   xmlns:dc="http://purl.org/dc/elements/1.1/"
   xmlns:cc="http://creativecommons.org/ns#"
   xmlns:rdf="http://www.w3.org/1999/02/22-rdf-syntax-ns#"
   xmlns:svg="http://www.w3.org/2000/svg"
   xmlns="http://www.w3.org/2000/svg"
   xmlns:sodipodi="http://sodipodi.sourceforge.net/DTD/sodipodi-0.dtd"
   xmlns:inkscape="http://www.inkscape.org/namespaces/inkscape"
   version="1.1"
   id="svg2"
   width="16"
   height="16"
   viewBox="0 0 16 16"
   sodipodi:docname="geogebra-sy,bolic.svg"
   inkscape:version="0.92.2 (unknown)">
  <metadata
     id="metadata8">
    <rdf:RDF>
      <cc:Work
         rdf:about="">
        <dc:format>image/svg+xml</dc:format>
        <dc:type
           rdf:resource="http://purl.org/dc/dcmitype/StillImage" />
        <dc:title></dc:title>
      </cc:Work>
    </rdf:RDF>
  </metadata>
  <defs
     id="defs6" />
  <sodipodi:namedview
     pagecolor="#ffffff"
     bordercolor="#666666"
     borderopacity="1"
     objecttolerance="10"
     gridtolerance="10"
     guidetolerance="10"
     inkscape:pageopacity="0"
     inkscape:pageshadow="2"
     inkscape:window-width="1642"
     inkscape:window-height="920"
     id="namedview4"
     showgrid="false"
     inkscape:zoom="22.890016"
     inkscape:cx="6.3261144"
     inkscape:cy="8.4667471"
     inkscape:window-x="0"
     inkscape:window-y="34"
     inkscape:window-maximized="0"
     inkscape:current-layer="g1201" />
  <g
     id="g1187">
    <g
       id="g1201"
       style="fill:#808080;fill-opacity:1">
      <path
         style="color:#000000;font-style:normal;font-variant:normal;font-weight:normal;font-stretch:normal;font-size:medium;line-height:normal;font-family:sans-serif;font-variant-ligatures:normal;font-variant-position:normal;font-variant-caps:normal;font-variant-numeric:normal;font-variant-alternates:normal;font-feature-settings:normal;text-indent:0;text-align:start;text-decoration:none;text-decoration-line:none;text-decoration-style:solid;text-decoration-color:#000000;letter-spacing:normal;word-spacing:normal;text-transform:none;writing-mode:lr-tb;direction:ltr;text-orientation:mixed;dominant-baseline:auto;baseline-shift:baseline;text-anchor:start;white-space:normal;shape-padding:0;clip-rule:nonzero;display:inline;overflow:visible;visibility:visible;opacity:1;isolation:auto;mix-blend-mode:normal;color-interpolation:sRGB;color-interpolation-filters:linearRGB;solid-color:#000000;solid-opacity:1;vector-effect:none;fill:#808080;fill-opacity:1;fill-rule:nonzero;stroke:none;stroke-width:1.17216122;stroke-linecap:butt;stroke-linejoin:miter;stroke-miterlimit:4;stroke-dasharray:none;stroke-dashoffset:0;stroke-opacity:1;color-rendering:auto;image-rendering:auto;shape-rendering:auto;text-rendering:auto;enable-background:accumulate"
         d="M 8.2109375 0.54492188 A 1.5 1.5 0 0 0 6.7207031 1.8769531 C 6.1403525 2.0703982 5.5666486 2.3202361 5.0117188 2.640625 C 3.4283884 3.5547612 2.2209131 4.8628422 1.5078125 6.3046875 A 1.5 1.5 0 0 0 0.234375 7.7871094 A 1.5 1.5 0 0 0 0.7890625 8.9511719 C 0.72938334 10.021807 0.95195458 11.081624 1.5058594 12.041016 C 2.0175282 12.927252 2.7490563 13.609008 3.6113281 14.089844 A 1.5 1.5 0 0 0 5.0742188 15.265625 A 1.5 1.5 0 0 0 6.0917969 14.867188 C 7.8015563 15.065251 9.6893665 14.694891 11.400391 13.707031 C 11.752601 13.503682 12.078766 13.274583 12.392578 13.035156 A 1.5 1.5 0 0 0 13.103516 13.214844 A 1.5 1.5 0 0 0 14.603516 11.714844 A 1.5 1.5 0 0 0 14.382812 10.931641 C 15.449953 9.3325017 15.876916 7.4819627 15.478516 5.7792969 A 1.5 1.5 0 0 0 16.1875 4.5058594 A 1.5 1.5 0 0 0 14.6875 3.0058594 A 1.5 1.5 0 0 0 14.015625 3.1640625 C 12.883242 2.0473496 11.294234 1.461295 9.578125 1.4296875 A 1.5 1.5 0 0 0 8.2109375 0.54492188 z M 9.6015625 2.6015625 C 11.049438 2.6418443 12.358182 3.1472335 13.253906 4.0605469 A 1.5 1.5 0 0 0 13.1875 4.5058594 A 1.5 1.5 0 0 0 14.316406 5.9570312 C 14.663737 7.3292637 14.332465 8.8815766 13.431641 10.251953 A 1.5 1.5 0 0 0 13.103516 10.214844 A 1.5 1.5 0 0 0 11.603516 11.714844 A 1.5 1.5 0 0 0 11.660156 12.123047 C 11.393545 12.324299 11.115666 12.517501 10.814453 12.691406 C 9.4176308 13.497862 7.9274697 13.828207 6.5742188 13.742188 A 1.5 1.5 0 0 0 5.0742188 12.265625 A 1.5 1.5 0 0 0 3.8710938 12.873047 C 3.3188098 12.506244 2.8546792 12.032188 2.5214844 11.455078 C 2.1366149 10.788465 1.9607479 10.041439 1.9628906 9.2695312 A 1.5 1.5 0 0 0 3.234375 7.7871094 A 1.5 1.5 0 0 0 2.6699219 6.6171875 C 3.2829202 5.474433 4.2730783 4.4209954 5.5976562 3.65625 C 6.0753462 3.3804556 6.5643591 3.1669022 7.0546875 3 A 1.5 1.5 0 0 0 8.2109375 3.5449219 A 1.5 1.5 0 0 0 9.6015625 2.6015625 z "
         id="loop" />
      <g
         id="circles"
         style="fill:#808080;stroke:#000000;stroke-width:8;fill-opacity:1"
         transform="matrix(0.05860806,0,0,0.05860806,-0.46886448,-0.44139232)" />
    </g>
  </g>
</svg>
