<?xml version="1.0" encoding="UTF-8" standalone="no"?>
<!-- Created with Inkscape (http://www.inkscape.org/) -->
<svg id="svg7384" xmlns:rdf="http://www.w3.org/1999/02/22-rdf-syntax-ns#" xmlns="http://www.w3.org/2000/svg" xmlns:osb="http://www.openswatchbook.org/uri/2009/osb" height="16" width="16" version="1.1" xmlns:cc="http://creativecommons.org/ns#" xmlns:dc="http://purl.org/dc/elements/1.1/">
 <metadata id="metadata90">
  <rdf:RDF>
   <cc:Work rdf:about="">
    <dc:format>image/svg+xml</dc:format>
    <dc:type rdf:resource="http://purl.org/dc/dcmitype/StillImage"/>
    <dc:title>Gnome Symbolic Icon Theme</dc:title>
   </cc:Work>
  </rdf:RDF>
 </metadata>
 <title id="title9167">Gnome Symbolic Icon Theme</title>
 <g id="layer9" transform="translate(-463 145)">
  <path id="rect6038-5-6" style="color:#000000;text-indent:0;block-progression:tb;text-decoration-line:none;text-transform:none;fill:#bebebe" d="m464.97-144.97c-1.0895 0-1.9688 0.87926-1.9688 1.9688v12c0 1.0895 0.87926 1.9688 1.9688 1.9688h12.062c1.0895 0 1.9688-0.87926 1.9688-1.9688v-12c0-1.0895-0.87926-1.9688-1.9688-1.9688h-12.062zm0 1h12.062c0.55278 0 0.96875 0.41597 0.96875 0.96875v11.031c0 0.55278-0.41597 0.96875-0.96875 0.96875h-12.062c-0.55278 0-0.96875-0.41597-0.96875-0.96875v-11.031c0-0.60207 0.35439-0.96875 0.96875-0.96875zm0.0312 0.96875v1h1v-1h-1zm2 0v1h1v-1h-1zm3 0v1h1v-1h-1zm2 0v1h1v-1h-1zm2 0v1h1v-1h-1zm2 0v1h1v-1h-1zm-11 2v1h1v-1h-1zm2 0v1h1v-1h-1zm3 0v1h1v-1h-1zm2 0v1h1v-1h-1zm2 0v1h1v-1h-1zm2 0v1h1v-1h-1zm-2 2v1h-1c-0.54535 0-1 0.45465-1 1v1c0 0.54535 0.45465 1 1 1h0.1875 0.8125 1 0.65625 0.34375c0.54535 0 1-0.45465 1-1v-1c0-0.54535-0.45465-1-1-1h-1v-1h-1zm-6 1c-1.6509 0-3 1.3491-3 3s1.3491 3 3 3 3-1.3491 3-3-1.3491-3-3-3zm0 1c1.1105 0 2 0.88951 2 2s-0.88951 2-2 2-2-0.88951-2-2 0.88951-2 2-2zm5 0h3v1h-3v-1zm1 3v2h1v-2h-1z"/>
 </g>
</svg>
