<?xml version="1.0" encoding="UTF-8" standalone="no"?>
<!-- Generator: Gravit.io -->

<svg
   xmlns:dc="http://purl.org/dc/elements/1.1/"
   xmlns:cc="http://creativecommons.org/ns#"
   xmlns:rdf="http://www.w3.org/1999/02/22-rdf-syntax-ns#"
   xmlns:svg="http://www.w3.org/2000/svg"
   xmlns="http://www.w3.org/2000/svg"
   xmlns:sodipodi="http://sodipodi.sourceforge.net/DTD/sodipodi-0.dtd"
   xmlns:inkscape="http://www.inkscape.org/namespaces/inkscape"
   style="isolation:isolate"
   viewBox="0 0 16 16"
   width="16"
   height="16"
   version="1.1"
   id="svg12"
   sodipodi:docname="ipython.svg"
   inkscape:version="0.92.2pre0 (973e216, 2017-07-25)">
  <metadata
     id="metadata16">
    <rdf:RDF>
      <cc:Work
         rdf:about="">
        <dc:format>image/svg+xml</dc:format>
        <dc:type
           rdf:resource="http://purl.org/dc/dcmitype/StillImage" />
      </cc:Work>
    </rdf:RDF>
  </metadata>
  <sodipodi:namedview
     pagecolor="#ffffff"
     bordercolor="#666666"
     borderopacity="1"
     objecttolerance="10"
     gridtolerance="10"
     guidetolerance="10"
     inkscape:pageopacity="0"
     inkscape:pageshadow="2"
     inkscape:window-width="1920"
     inkscape:window-height="1001"
     id="namedview14"
     showgrid="false"
     inkscape:zoom="14.75"
     inkscape:cx="8"
     inkscape:cy="8"
     inkscape:window-x="0"
     inkscape:window-y="0"
     inkscape:window-maximized="1"
     inkscape:current-layer="Group" />
  <defs
     id="defs5">
    <clipPath
       id="_clipPath_lGEsckT6jMTdUG6g5fqPiNOuDK3dTxr2">
      <rect
         width="16"
         height="16"
         id="rect2" />
    </clipPath>
  </defs>
  <g
     clip-path="url(#_clipPath_lGEsckT6jMTdUG6g5fqPiNOuDK3dTxr2)"
     id="g10">
    <g
       id="Group">
      <path
         d=" M 1 9.844 L 2.005 9.844 L 2.005 6.156 L 1 6.156 L 1 5.612 L 3.662 5.612 L 3.662 6.156 L 2.657 6.156 L 2.657 9.844 L 3.662 9.844 L 3.662 10.388 L 1 10.388 L 1 9.844 L 1 9.844 Z  M 4.863 5.612 L 6.263 5.612 Q 7.059 5.612 7.479 5.973 Q 7.695 6.162 7.794 6.434 Q 7.894 6.703 7.894 7.042 Q 7.894 7.746 7.483 8.107 Q 7.075 8.469 6.263 8.469 L 5.511 8.469 L 5.511 10.388 L 4.863 10.388 L 4.863 5.612 L 4.863 5.612 Z  M 6.263 7.938 Q 6.503 7.938 6.677 7.874 Q 6.85 7.81 6.966 7.701 Q 7.216 7.464 7.216 7.039 Q 7.216 6.613 6.966 6.376 Q 6.722 6.143 6.263 6.143 L 5.511 6.143 L 5.511 7.938 L 6.263 7.938 L 6.263 7.938 Z  M 8.855 6.189 L 9.699 6.189 L 9.699 6.473 L 9.221 6.473 L 9.221 9.527 L 9.699 9.527 L 9.699 9.811 L 8.855 9.811 L 8.855 6.189 L 8.855 6.189 Z  M 11.409 9.058 Q 11.254 9.454 11.106 9.575 Q 10.959 9.696 10.712 9.696 L 10.42 9.696 L 10.42 9.391 L 10.634 9.391 Q 10.786 9.391 10.869 9.319 Q 10.953 9.248 11.055 8.982 L 11.12 8.816 L 10.218 6.63 L 10.607 6.63 L 11.303 8.367 L 12 6.63 L 12.388 6.63 L 11.409 9.058 L 11.409 9.058 Z  M 13.75 6.189 L 13.75 9.811 L 12.906 9.811 L 12.906 9.527 L 13.382 9.527 L 13.382 6.473 L 12.906 6.473 L 12.906 6.189 L 13.75 6.189 L 13.75 6.189 Z  M 14.58 8.546 L 15 8.546 L 15 9.05 L 14.58 9.05 L 14.58 8.546 L 14.58 8.546 Z  M 14.58 6.95 L 15 6.95 L 15 7.454 L 14.58 7.454 L 14.58 6.95 L 14.58 6.95 Z "
         fill-rule="evenodd"
         fill="#808080"
         id="path7"
         style="fill:#808080;fill-opacity:1" />
    </g>
  </g>
</svg>
