<?xml version="1.0" encoding="UTF-8" standalone="no"?>
<svg
   xmlns:dc="http://purl.org/dc/elements/1.1/"
   xmlns:cc="http://creativecommons.org/ns#"
   xmlns:rdf="http://www.w3.org/1999/02/22-rdf-syntax-ns#"
   xmlns:svg="http://www.w3.org/2000/svg"
   xmlns="http://www.w3.org/2000/svg"
   xmlns:sodipodi="http://sodipodi.sourceforge.net/DTD/sodipodi-0.dtd"
   xmlns:inkscape="http://www.inkscape.org/namespaces/inkscape"
   height="16"
   version="1.1"
   width="16"
   id="svg6"
   sodipodi:docname="podcast.svg"
   inkscape:version="0.92.2 (unknown)">
  <metadata
     id="metadata12">
    <rdf:RDF>
      <cc:Work
         rdf:about="">
        <dc:format>image/svg+xml</dc:format>
        <dc:type
           rdf:resource="http://purl.org/dc/dcmitype/StillImage" />
      </cc:Work>
    </rdf:RDF>
  </metadata>
  <defs
     id="defs10" />
  <sodipodi:namedview
     pagecolor="#ffffff"
     bordercolor="#666666"
     borderopacity="1"
     objecttolerance="10"
     gridtolerance="10"
     guidetolerance="10"
     inkscape:pageopacity="0"
     inkscape:pageshadow="2"
     inkscape:window-width="1344"
     inkscape:window-height="787"
     id="namedview8"
     showgrid="false"
     inkscape:zoom="14.75"
     inkscape:cx="8"
     inkscape:cy="8"
     inkscape:window-x="0"
     inkscape:window-y="34"
     inkscape:window-maximized="0"
     inkscape:current-layer="svg6" />
  <g
     transform="translate(-781,238.99987)"
     id="g4"
     style="fill-opacity:1;fill:#808080">
    <path
       d="M 2 2 L 2 3 C 2 3.55016 2.45347 4 3 4 C 7.97056 4 12 8.02944 12 13 C 12 13.55016 12.45347 14 13 14 L 14 14 L 14 13 C 14 6.92487 9.07513 2 3 2 L 2 2 z M 2 6 L 2 7 C 2 7.55016 2.45347 8 3 8 C 5.76143 8 8 10.23857 8 13 C 8 13.55016 8.45347 14 9 14 L 10 14 L 10 13 C 10 9.134 6.866 6 3 6 L 2 6 z M 4 10 C 2.8954297 10 2 10.895453 2 12 C 2 13.104547 2.8954297 14 4 14 C 5.1045703 14 6 13.104547 6 12 C 6 10.895453 5.1045703 10 4 10 z"
       transform="translate(781,-238.99987)"
       style="fill:#808080;fill-opacity:1"
       id="path2" />
  </g>
</svg>
