<?xml version="1.0" standalone="no"?><!-- Generator: Gravit.io --><svg xmlns="http://www.w3.org/2000/svg" xmlns:xlink="http://www.w3.org/1999/xlink" style="isolation:isolate" viewBox="0 0 16 16" width="16" height="16"><defs><clipPath id="_clipPath_GQ82Ga66bmJ1aDAVfrLV3B2T1IWDJQtf"><rect width="16" height="16"/></clipPath></defs><g clip-path="url(#_clipPath_GQ82Ga66bmJ1aDAVfrLV3B2T1IWDJQtf)"><path d=" M 9.724 4.153 L 11.57 4.523 L 11.968 5.772 L 12.779 4.809 L 14.803 5.254 L 12.991 7.367 L 14.014 10.512 L 11.836 10.29 L 11.448 8.583 L 10.462 9.986 L 8.766 9.437 L 10.468 6.923 M 4.582 5.852 L 6.696 6.15 L 7.324 7.519 L 8.113 6.336 L 10.242 6.619 L 8.291 9.528 L 7.813 12.308 L 5.837 11.98 L 6.176 9.486 M 3.125 10.968 L 1.025 5.894 L 2.716 5.067 L 2.758 5.011 L 4.121 8.46 L 5.112 7.903 L 5.847 9.486" fill-rule="evenodd" fill="rgb(102,102,102)"/></g></svg>