<?xml version="1.0" encoding="UTF-8" standalone="no"?>
<svg
   xmlns:dc="http://purl.org/dc/elements/1.1/"
   xmlns:cc="http://creativecommons.org/ns#"
   xmlns:rdf="http://www.w3.org/1999/02/22-rdf-syntax-ns#"
   xmlns:svg="http://www.w3.org/2000/svg"
   xmlns="http://www.w3.org/2000/svg"
   xmlns:sodipodi="http://sodipodi.sourceforge.net/DTD/sodipodi-0.dtd"
   xmlns:inkscape="http://www.inkscape.org/namespaces/inkscape"
   width="16"
   height="16"
   version="1.1"
   id="svg1740"
   sodipodi:docname="mysql-workbench.svg"
   inkscape:version="0.92.3 (2405546, 2018-03-11)">
  <metadata
     id="metadata1746">
    <rdf:RDF>
      <cc:Work
         rdf:about="">
        <dc:format>image/svg+xml</dc:format>
        <dc:type
           rdf:resource="http://purl.org/dc/dcmitype/StillImage" />
        <dc:title></dc:title>
      </cc:Work>
    </rdf:RDF>
  </metadata>
  <defs
     id="defs1744" />
  <sodipodi:namedview
     pagecolor="#ffffff"
     bordercolor="#666666"
     borderopacity="1"
     objecttolerance="10"
     gridtolerance="10"
     guidetolerance="10"
     inkscape:pageopacity="0"
     inkscape:pageshadow="2"
     inkscape:window-width="640"
     inkscape:window-height="480"
     id="namedview1742"
     showgrid="false"
     inkscape:zoom="16"
     inkscape:cx="-4.8676"
     inkscape:cy="20.151545"
     inkscape:current-layer="g1738" />
  <g
     transform="translate(-271.99997,-319.99994)"
     id="g1738">
    <g
       transform="matrix(0.09694117,0,0,0.09694117,273.02783,320.73237)"
       style="fill:#5c616c;fill-opacity:1;fill-rule:nonzero;stroke:none;stroke-width:10.10848331;stroke-linecap:butt;stroke-linejoin:miter;stroke-dasharray:none"
       id="g3211">
      <path
         sodipodi:type="inkscape:offset"
         inkscape:radius="3.1264737"
         inkscape:original="M 10.650391 5.1191406 C 7.2041992 5.061558 4.1965625 6.3577875 2.6328125 10.171875 C -0.0001875 16.591775 6.5689688 22.856475 8.9179688 26.109375 C 10.566969 28.391575 12.677469 30.949225 13.855469 33.515625 C 14.630469 35.202225 14.764734 36.892634 15.427734 38.677734 C 17.059734 43.074234 18.478844 47.858375 20.589844 51.921875 C 21.656844 53.977575 22.832641 56.143622 24.181641 57.982422 C 25.008641 59.110422 26.424437 59.607409 26.648438 61.349609 C 25.262438 63.289109 25.183297 66.300712 24.404297 68.757812 C 20.896297 79.819312 22.219266 93.567306 27.322266 101.75391 C 28.888266 104.26691 32.577438 109.65684 37.648438 107.58984 C 42.084437 105.78284 41.092328 100.18394 42.361328 95.244141 C 42.648328 94.123941 42.473156 93.300781 43.035156 92.550781 L 43.035156 92.775391 C 44.382156 95.468791 45.729172 98.162569 47.076172 100.85547 C 50.066172 105.67147 55.372141 110.70361 59.869141 114.09961 C 62.201141 115.86061 64.037734 118.90555 67.052734 119.93555 L 67.052734 119.71094 L 66.828125 119.71094 C 66.244125 118.79994 65.329984 118.42341 64.583984 117.69141 C 62.826984 115.96941 60.874875 113.82847 59.421875 111.85547 C 55.331875 106.30247 51.716828 100.22494 48.423828 93.898438 C 46.850828 90.877938 45.48225 87.54305 44.15625 84.46875 C 43.64525 83.28325 43.652891 81.493106 42.587891 80.878906 C 41.135891 83.131806 38.996047 84.951228 37.873047 87.611328 C 36.077047 91.863328 35.844687 97.050534 35.179688 102.42773 C 34.785688 102.56873 34.961469 102.47039 34.730469 102.65039 C 31.604469 101.89639 30.50475 98.678669 29.34375 95.917969 C 26.40475 88.935569 25.859313 77.69335 28.445312 69.65625 C 29.114313 67.57715 32.138063 61.026369 30.914062 59.105469 C 30.330063 57.188469 28.401266 56.080034 27.322266 54.615234 C 25.987266 52.804634 24.654469 50.420878 23.730469 48.330078 C 21.325469 42.885778 20.203875 36.774384 17.671875 31.271484 C 16.461875 28.640584 14.413422 25.979425 12.732422 23.640625 C 10.871422 21.049825 8.7877031 19.141512 7.3457031 16.007812 C 6.8327031 14.894512 6.1354844 13.111297 6.8964844 11.966797 C 7.1384844 11.194297 7.4801406 10.871141 8.2441406 10.619141 C 9.5461406 9.6152506 13.171344 10.954078 14.527344 11.517578 C 18.127344 13.012678 21.132641 14.437431 24.181641 16.457031 C 25.645641 17.427731 27.125531 19.304619 28.894531 19.824219 L 30.914062 19.824219 C 34.074062 20.550719 37.614406 20.048913 40.566406 20.945312 C 45.784406 22.531312 50.460031 24.998087 54.707031 27.679688 C 67.645031 35.848688 78.222984 47.477609 85.458984 61.349609 C 86.622984 63.583009 87.127344 65.714884 88.152344 68.083984 C 90.221344 72.861384 92.826766 77.777419 94.884766 82.449219 C 96.938766 87.110419 98.94075 91.814459 101.84375 95.693359 C 103.37075 97.732359 109.26631 98.825231 111.94531 99.957031 C 113.82331 100.75103 116.90069 101.57839 118.67969 102.65039 C 122.07769 104.70039 125.36964 107.14172 128.55664 109.38672 C 130.14964 110.50872 135.04506 112.96809 135.28906 114.99609 C 127.39506 114.78209 121.36594 115.51741 116.21094 117.69141 C 114.74594 118.30941 112.40892 118.32416 112.16992 120.16016 C 112.97492 121.00416 113.10023 122.26473 113.74023 123.30273 C 114.97123 125.29473 117.04834 127.96328 118.90234 129.36328 C 120.92834 130.89228 123.01745 132.52952 125.18945 133.85352 C 129.05245 136.20952 133.36594 137.55406 137.08594 139.91406 C 139.27794 141.30506 141.45475 143.05695 143.59375 144.62695 C 144.65075 145.40295 145.36233 146.6097 146.73633 147.0957 L 146.73633 146.87109 C 146.01433 145.95209 145.82706 144.68852 145.16406 143.72852 L 142.24609 140.81055 C 139.39309 137.02355 135.77188 133.69855 131.92188 130.93555 C 128.85188 128.73155 121.98022 125.75464 120.69922 122.18164 C 120.62422 122.10664 120.55061 122.03008 120.47461 121.95508 C 122.65161 121.71008 125.19998 120.92277 127.20898 120.38477 C 130.58398 119.47977 133.60094 119.71445 137.08594 118.81445 C 138.65694 118.36545 140.22683 117.9148 141.79883 117.4668 L 141.79883 116.56836 C 140.03683 114.76036 138.78038 112.36842 136.85938 110.73242 C 131.83337 106.45242 126.34822 102.17693 120.69922 98.611328 C 117.56622 96.633728 113.69305 95.349628 110.37305 93.673828 C 109.25605 93.110328 107.29464 92.816353 106.55664 91.876953 C 104.81264 89.653253 103.86258 86.834041 102.51758 84.244141 C 99.699578 78.818441 96.9335 72.893547 94.4375 67.185547 C 92.7345 63.292947 91.621047 59.453138 89.498047 55.960938 C 79.306047 39.204138 68.336797 29.089837 51.341797 19.148438 C 47.725797 17.034237 43.370531 16.200175 38.769531 15.109375 C 36.301531 14.959975 33.832281 14.809556 31.363281 14.660156 C 29.856281 14.030256 28.287047 12.186469 26.873047 11.292969 C 23.354297 9.07005 16.394043 5.2151116 10.650391 5.1191406 z "
         style="fill:#5c616c;fill-opacity:1;stroke-width:10.10848331"
         id="path3209"
         d="M 10.703125,1.9921875 C 6.4428974,1.9210031 1.7434418,4.1003755 -0.25976562,8.9863281 -2.058128,13.371177 -0.64572338,17.704541 1.2011719,20.894531 c 1.8468952,3.189991 4.2592744,5.767628 5.1816406,7.044922 a 3.1267863,3.1267863 0 0 0 0.00195,0.002 c 1.7412379,2.409856 3.7129814,4.883466 4.6289064,6.878906 0.501277,1.09091 0.643096,2.685463 1.482422,4.945313 1.580265,4.257131 3.008809,9.151963 5.318359,13.597656 1.085781,2.091848 2.316897,4.38486 3.845703,6.46875 0.649002,0.884757 1.127924,1.215597 1.464844,1.501953 -1.171634,2.548766 -1.235817,5.010705 -1.701172,6.478516 -3.80213,11.988957 -2.55978,26.281498 3.246094,35.5957 h -0.002 c 0.835194,1.34026 2.274551,3.60025 4.548828,5.42188 2.274277,1.82162 5.950806,3.14637 9.611328,1.6543 3.338217,-1.35982 4.874389,-4.59856 5.425781,-7.25782 0.06083,-0.29338 0.07466,-0.50498 0.125,-0.79492 a 3.1267863,3.1267863 0 0 0 0.04102,0.0723 c 3.349489,5.39503 8.825965,10.51148 13.564453,14.08984 1.578853,1.19226 3.627357,4.78696 8.058594,6.30078 a 3.1267863,3.1267863 0 0 0 4.136719,-2.95898 v -0.22461 a 3.1267863,3.1267863 0 0 0 -1.708985,-2.78711 3.1267863,3.1267863 0 0 0 -0.002,-0.002 c -0.80964,-0.81609 -1.541417,-1.31189 -1.695312,-1.4629 a 3.1267863,3.1267863 0 0 0 -0.002,0 C 65.11289,113.83343 63.239966,111.76789 61.939453,110.00195 57.973746,104.61771 54.43621,98.677729 51.197266,92.455078 49.716572,89.611827 48.36915,86.341416 47.027344,83.230469 47.000521,83.16824 46.848778,82.5074 46.582031,81.587891 46.315285,80.668382 45.824429,79.135363 44.150391,78.169922 a 3.1267863,3.1267863 0 0 0 -4.191407,1.015625 c -1.109499,1.721482 -3.488999,3.70846 -4.966796,7.208984 -1.291342,3.05723 -1.820626,6.270091 -2.208985,9.5 -0.187262,-0.437423 -0.355756,-0.711778 -0.556641,-1.189453 a 3.1267863,3.1267863 0 0 0 -0.002,0 c -2.527134,-6.003901 -3.089097,-16.985944 -0.802734,-24.091797 0.207072,-0.643533 1.196513,-3.004461 1.945313,-5.335937 0.374399,-1.165738 0.707278,-2.360814 0.871093,-3.59375 0.163815,-1.232937 0.364765,-2.606429 -0.6875,-4.257813 l 0.353516,0.769531 C 32.85896,54.763951 30.310334,53.400434 29.839844,52.761719 a 3.1267863,3.1267863 0 0 0 -0.002,-0.002 C 28.690895,51.204147 27.419675,48.944124 26.589844,47.066406 24.389111,42.084515 23.264586,35.947764 20.511719,29.964844 19.076424,26.844086 16.905925,24.090427 15.271484,21.816406 13.18975,18.91831 11.350919,17.233714 10.185547,14.701172 a 3.1267863,3.1267863 0 0 0 0,-0.002 c -0.1955856,-0.424455 -0.353634,-0.87298 -0.4296876,-1.179688 0.1579076,-0.01981 0.4849596,-0.08693 0.9218746,0.01172 0.934916,0.211099 2.073861,0.633464 2.650391,0.873047 3.519447,1.461646 6.302118,2.789039 9.126953,4.660156 0.726306,0.482992 2.290495,2.799843 5.558594,3.759766 a 3.1267863,3.1267863 0 0 0 0.880859,0.126953 h 1.992188 c 3.66136,0.706543 6.914485,0.423716 8.769531,0.986328 4.852175,1.474808 9.277892,3.796062 13.380859,6.386719 12.455901,7.864604 22.660867,19.071217 29.650391,32.470703 h -0.002 c 0.958204,1.838533 1.449652,3.877848 2.597656,6.53125 2.138553,4.937999 4.748485,9.861407 6.740235,14.382812 2.043295,4.636908 4.100012,9.559776 7.316406,13.857422 a 3.1267863,3.1267863 0 0 0 0.002,0.002 c 1.760083,2.35024 3.985623,2.844831 6.128903,3.562501 2.14328,0.71766 4.34336,1.3207 5.25782,1.70703 v -0.002 c 2.28821,0.96743 5.31223,1.8758 6.33593,2.49218 3.22268,1.94423 6.46067,4.33943 9.69141,6.61524 0.13091,0.0922 0.30492,0.18949 0.44336,0.28125 -4.45485,0.37064 -8.5869,1.06088 -12.20313,2.58594 -0.19215,0.0811 -1.15482,0.25913 -2.40039,0.74414 -0.62278,0.2425 -1.36905,0.59651 -2.08398,1.29492 -0.71493,0.69841 -1.29753,1.80102 -1.44141,2.90625 a 3.1267863,3.1267863 0 0 0 0.83789,2.5625 c -0.15626,-0.16383 0.0321,0.77964 1.16992,2.625 a 3.1267863,3.1267863 0 0 0 0.002,0.004 c 1.40137,2.26769 3.45495,5.03552 5.9375,6.91015 a 3.1267863,3.1267863 0 0 0 0.002,0.002 c 1.99429,1.50506 4.15365,3.20759 6.54297,4.66406 4.29485,2.61938 8.59724,3.96915 11.84766,6.03125 1.97992,1.25642 4.11629,2.96404 6.33398,4.59179 0.35018,0.25709 1.36124,1.98109 3.94922,2.89649 a 3.1267863,3.1267863 0 0 0 4.16992,-2.94727 v -0.22461 a 3.1267863,3.1267863 0 0 0 -0.66797,-1.93164 c -0.0242,-0.0308 -0.22343,-1.19925 -1.45898,-2.98828 a 3.1267863,3.1267863 0 0 0 -0.36133,-0.43359 l -2.91797,-2.91797 0.28711,0.33008 c -3.08827,-4.0993 -6.93803,-7.61921 -10.99805,-10.53321 l -0.002,-0.002 c -1.89071,-1.35701 -4.31535,-2.59101 -6.4043,-3.94531 -0.35404,-0.22953 -0.55981,-0.45138 -0.875,-0.6875 0.47279,-0.13283 1.14028,-0.24697 1.55274,-0.35742 a 3.1267863,3.1267863 0 0 0 0.002,0 c 2.79421,-0.74926 5.81228,-0.52037 9.84766,-1.5625 a 3.1267863,3.1267863 0 0 0 0.0781,-0.0215 c 1.57332,-0.44966 3.14277,-0.90075 4.71094,-1.34765 a 3.1267863,3.1267863 0 0 0 2.26953,-3.00586 v -0.89844 a 3.1267863,3.1267863 0 0 0 -0.88867,-2.18164 c -1.31853,-1.35296 -2.59648,-3.86015 -5.15039,-6.03516 -5.09839,-4.34164 -10.68906,-8.70462 -16.51953,-12.384763 -3.59994,-2.272341 -7.56561,-3.559445 -10.58594,-5.083985 -1.02033,-0.51473 -1.82619,-0.70058 -2.39453,-0.90625 -0.2626,-0.09503 -0.41563,-0.199899 -0.49414,-0.248046 -1.22399,-1.654856 -2.15697,-4.147864 -3.59961,-6.925782 -2.77461,-5.342147 -5.515757,-11.210357 -7.990236,-16.86914 a 3.1267863,3.1267863 0 0 0 0,-0.002 C 95.701775,62.272278 94.569301,58.282764 92.169922,54.335938 81.750621,37.205429 70.206572,26.561221 52.919922,16.449219 48.668917,13.963743 44.008401,13.137568 39.490234,12.066406 a 3.1267863,3.1267863 0 0 0 -0.53125,-0.07813 c -2.214743,-0.134069 -4.431447,-0.268027 -6.648437,-0.402343 -0.23067,-0.14146 -0.609,-0.381686 -1.189453,-0.88086 C 30.415171,10.098004 29.629424,9.3369168 28.542969,8.6503906 24.830181,6.304891 17.802925,2.1108185 10.703125,1.9921875 Z M 10.152344,13.095703 c -0.4436454,0.342067 -0.4884136,0.375039 -0.4121096,0.378906 -0.00461,-0.01991 -0.025727,-0.06194 -0.029297,-0.08008 C 9.6528115,13.099235 9.7777877,13.279489 9.5,13.697266 a 3.1267863,3.1267863 0 0 0 0.1777344,-0.304688 3.1267863,3.1267863 0 0 0 0.4746096,-0.296875 z" />
    </g>
    <g
       transform="matrix(0.09694117,0,0,0.09694117,276.77468,324.38371)"
       style="fill:#5c616c;fill-opacity:1;fill-rule:evenodd;stroke:none;stroke-width:10.10848331;stroke-linecap:butt;stroke-linejoin:miter;stroke-dasharray:none"
       id="g3215">
      <path
         inkscape:connector-curvature="0"
         d="m 4.1030539,-2.5582057 c -2.5496732,-0.046935 -4.35272281,0.2783573 -6.2595561,0.6944218 v 0.3479081 h 0.3485276 C -0.59200047,0.98298981 1.5549297,2.5910189 3.0590201,4.7436803 4.2176808,7.1776424 5.3763415,9.6116041 6.5365512,12.044017 6.6511781,11.928926 6.7689029,11.812595 6.8835298,11.697503 9.036656,10.180247 10.023377,7.7524806 10.012534,4.0478643 9.1497337,3.1401434 9.0227153,2.0011552 8.2745423,0.91793132 7.2800768,-0.52512796 5.3562043,-1.3450198 4.1030539,-2.5582057 Z"
         id="path3213"
         style="fill:#5c616c;fill-opacity:1;stroke-width:10.10848331"
         sodipodi:nodetypes="cccccccccc" />
    </g>
  </g>
</svg>
