<?xml version="1.0" standalone="no"?><!-- Generator: Gravit.io --><svg xmlns="http://www.w3.org/2000/svg" xmlns:xlink="http://www.w3.org/1999/xlink" style="isolation:isolate" viewBox="0 0 16 16" width="16" height="16"><defs><clipPath id="_clipPath_Ze2jqNkMepGZpYC6IZrBrtkcYeOqNqkv"><rect width="16" height="16"/></clipPath></defs><g clip-path="url(#_clipPath_Ze2jqNkMepGZpYC6IZrBrtkcYeOqNqkv)"><rect x="17.094" y="-0.094" width="4.625" height="3.594" transform="matrix(1,0,0,1,0,0)" fill="rgb(128,128,128)"/><g id="Group"><path d=" M 1.97 13.219 L 8.187 13.219 L 10.137 13.219" fill="rgb(0,0,0)" vector-effect="non-scaling-stroke" stroke-width="1.3" stroke="rgb(128,128,128)" stroke-linejoin="miter" stroke-linecap="round" stroke-miterlimit="4"/><path d=" M 2.862 9.443 L 1.47 9.443 L 1.47 1.254 L 4.36 1.254 L 4.36 1.254 Q 5.776 1.254 6.437 1.991 L 6.437 1.991 L 6.437 1.991 Q 7.098 2.728 7.098 3.792 L 7.098 3.792 L 7.098 3.792 Q 7.098 4.799 6.407 5.565 L 6.407 5.565 L 6.407 5.565 Q 5.717 6.331 4.36 6.331 L 4.36 6.331 L 2.862 6.331 L 2.862 9.443 Z  M 2.862 2.564 L 2.862 5.021 L 4.43 5.021 L 4.43 5.021 Q 5.062 5.021 5.372 4.658 L 5.372 4.658 L 5.372 4.658 Q 5.682 4.295 5.682 3.792 L 5.682 3.792 L 5.682 3.792 Q 5.682 3.313 5.384 2.938 L 5.384 2.938 L 5.384 2.938 Q 5.085 2.564 4.43 2.564 L 4.43 2.564 L 2.862 2.564 Z  M 12.426 9.677 L 12.426 9.677 L 12.426 9.677 Q 11.736 9.677 11.18 9.431 L 11.18 9.431 L 11.18 9.431 Q 10.624 9.185 10.256 8.782 L 10.256 8.782 L 10.256 8.782 Q 9.887 8.378 9.642 7.822 L 9.642 7.822 L 9.642 7.822 Q 9.396 7.267 9.291 6.676 L 9.291 6.676 L 9.291 6.676 Q 9.185 6.085 9.185 5.453 L 9.185 5.453 L 9.185 5.453 Q 9.185 4.681 9.367 3.961 L 9.367 3.961 L 9.367 3.961 Q 9.548 3.242 9.922 2.616 L 9.922 2.616 L 9.922 2.616 Q 10.297 1.99 10.94 1.61 L 10.94 1.61 L 10.94 1.61 Q 11.584 1.23 12.426 1.23 L 12.426 1.23 L 12.426 1.23 Q 13.385 1.23 14.029 1.721 L 14.029 1.721 L 14.029 1.721 Q 14.672 2.212 14.965 2.938 L 14.965 2.938 L 13.725 3.534 L 13.725 3.534 Q 13.467 3.043 13.169 2.797 L 13.169 2.797 L 13.169 2.797 Q 12.871 2.552 12.426 2.552 L 12.426 2.552 L 12.426 2.552 Q 11.794 2.552 11.373 3.02 L 11.373 3.02 L 11.373 3.02 Q 10.952 3.488 10.788 4.113 L 10.788 4.113 L 10.788 4.113 Q 10.624 4.739 10.624 5.453 L 10.624 5.453 L 10.624 5.453 Q 10.624 6.611 11.092 7.483 L 11.092 7.483 L 11.092 7.483 Q 11.56 8.355 12.426 8.355 L 12.426 8.355 L 12.426 8.355 Q 13.245 8.355 13.736 7.302 L 13.736 7.302 L 15 7.781 L 15 7.781 Q 14.228 9.677 12.426 9.677 Z " fill-rule="evenodd" fill="rgb(128,128,128)" vector-effect="non-scaling-stroke" stroke-width="1.3" stroke="rgb(128,128,128)" stroke-linejoin="round" stroke-linecap="round" stroke-miterlimit="3"/></g></g></svg>