<?xml version="1.0" encoding="UTF-8" standalone="no"?>
<svg
   xmlns:dc="http://purl.org/dc/elements/1.1/"
   xmlns:cc="http://creativecommons.org/ns#"
   xmlns:rdf="http://www.w3.org/1999/02/22-rdf-syntax-ns#"
   xmlns:svg="http://www.w3.org/2000/svg"
   xmlns="http://www.w3.org/2000/svg"
   xmlns:sodipodi="http://sodipodi.sourceforge.net/DTD/sodipodi-0.dtd"
   xmlns:inkscape="http://www.inkscape.org/namespaces/inkscape"
   width="16"
   height="16"
   viewBox="0 0 16 16"
   version="1.1"
   id="svg7"
   sodipodi:docname="tali-symbolic.svg"
   inkscape:version="0.92.3 (2405546, 2018-03-11)">
  <metadata
     id="metadata11">
    <rdf:RDF>
      <cc:Work
         rdf:about="">
        <dc:format>image/svg+xml</dc:format>
        <dc:type
           rdf:resource="http://purl.org/dc/dcmitype/StillImage" />
        <dc:title></dc:title>
      </cc:Work>
    </rdf:RDF>
  </metadata>
  <sodipodi:namedview
     pagecolor="#ffffff"
     bordercolor="#666666"
     borderopacity="1"
     objecttolerance="10"
     gridtolerance="10"
     guidetolerance="10"
     inkscape:pageopacity="0"
     inkscape:pageshadow="2"
     inkscape:window-width="1103"
     inkscape:window-height="923"
     id="namedview9"
     showgrid="false"
     inkscape:zoom="14.75"
     inkscape:cx="-5.1245965"
     inkscape:cy="8"
     inkscape:window-x="0"
     inkscape:window-y="34"
     inkscape:window-maximized="0"
     inkscape:current-layer="svg7" />
  <defs
     id="defs3">
    <style
       type="text/css"
       id="current-color-scheme">
   .ColorScheme-Text { color:#5c616c; } .ColorScheme-Highlight { color:#5294e2; } .ColorScheme-ButtonBackground { color:#d3dae3; }
  </style>
  </defs>
  <path
     style="opacity:1;fill:#808080;fill-opacity:1;stroke:none;stroke-width:0.42382774;stroke-linecap:square;stroke-linejoin:miter;stroke-miterlimit:4;stroke-dasharray:none;stroke-opacity:1"
     d="M 2.6425787,1.2851555 A 2.1428573,2.1428573 0 0 0 0.50000065,3.4277336 2.1428573,2.1428573 0 0 0 2.6425787,5.5722649 2.1428573,2.1428573 0 0 0 4.7851567,3.4277336 2.1428573,2.1428573 0 0 0 2.6425787,1.2851555 Z m 10.7148443,0 A 2.1428573,2.1428573 0 0 0 11.214845,3.4277336 2.1428573,2.1428573 0 0 0 13.357423,5.5722649 2.1428573,2.1428573 0 0 0 15.500001,3.4277336 2.1428573,2.1428573 0 0 0 13.357423,1.2851555 Z M 8.0429697,6.0097649 A 2.1428573,2.1428573 0 0 0 5.9003917,8.1523426 2.1428573,2.1428573 0 0 0 8.0429697,10.294922 2.1428573,2.1428573 0 0 0 10.185548,8.1523426 2.1428573,2.1428573 0 0 0 8.0429697,6.0097649 Z M 2.6425787,10.714843 A 2.1428573,2.1428573 0 0 0 0.50000065,12.857422 2.1428573,2.1428573 0 0 0 2.6425787,15 2.1428573,2.1428573 0 0 0 4.7851567,12.857422 2.1428573,2.1428573 0 0 0 2.6425787,10.714843 Z m 10.7148443,0 A 2.1428573,2.1428573 0 0 0 11.214845,12.857422 2.1428573,2.1428573 0 0 0 13.357423,15 2.1428573,2.1428573 0 0 0 15.500001,12.857422 2.1428573,2.1428573 0 0 0 13.357423,10.714843 Z"
     id="path939"
     inkscape:connector-curvature="0" />
</svg>
