<?xml version="1.0" standalone="no"?><!-- Generator: Gravit.io --><svg xmlns="http://www.w3.org/2000/svg" xmlns:xlink="http://www.w3.org/1999/xlink" style="isolation:isolate" viewBox="0 0 16 16" width="16" height="16"><path d=" M 10.462973 13.935307 C 10.737316 13.934426 11.000721 14.042811 11.194996 14.236516 C 11.389274 14.430223 11.498431 14.69331 11.498357 14.967653 C 11.498058 15.241517 11.388838 15.504011 11.194782 15.697255 C 11.000434 15.890905 10.737331 15.999749 10.462973 16 L 2.186938 16 C 1.912641 15.99945 1.649647 15.890652 1.455129 15.697255 C 1.261138 15.503969 1.151929 15.2415 1.151554 14.967653 C 1.151639 14.693343 1.260864 14.430339 1.455129 14.236672 C 1.649787 14.043654 1.912808 13.93534 2.186938 13.935307 L 10.462973 13.935307 L 10.462973 13.935307 Z " id="hyphen" fill="rgb(128,128,128)"/><path d=" M 4.602584 5.178937 L 3.881825 8.692206 C 3.823536 8.976329 3.540739 9.206999 3.2507 9.206999 L 2.528119 9.206999 C 2.238081 9.206999 1.968336 8.974032 1.926125 8.68708 L 0.745595 0.661807 C 0.703384 0.374856 0.90459 0.141889 1.194628 0.141889 L 2.210184 0.141889 C 2.500222 0.141889 2.76651 0.375339 2.804464 0.662884 L 3.200777 3.665458 L 3.8608 0.39944 C 3.889526 0.257293 4.030585 0.141889 4.175605 0.141889 L 5.050584 0.141889 C 5.195603 0.141889 5.337017 0.257221 5.366179 0.399278 L 6.017529 3.572179 L 6.353912 0.663922 C 6.387237 0.375804 6.649768 0.141889 6.939806 0.141889 L 8.032875 0.141889 C 8.322913 0.141889 8.523788 0.374808 8.48117 0.661698 L 7.288978 8.687189 C 7.24636 8.97408 6.976284 9.206999 6.686246 9.206999 L 5.964978 9.206999 C 5.674939 9.206999 5.391564 8.976447 5.332565 8.692473 L 4.602584 5.178937 Z  M 12.122685 9.348888 C 12.338146 9.348888 12.553606 9.331808 12.765125 9.29765 C 12.959565 9.266119 13.151376 9.217509 13.337935 9.15182 C 13.515295 9.090072 13.6874 9.011244 13.851623 8.91928 C 14.017161 8.824687 14.173502 8.716958 14.31933 8.596088 C 14.470417 8.471279 14.605736 8.330705 14.725291 8.175678 C 14.840903 8.027221 14.938123 7.86694 15.015636 7.696147 C 15.097092 7.517473 15.157525 7.332229 15.195626 7.140416 C 15.238979 6.927583 15.26 6.712122 15.26 6.495349 C 15.26 6.295653 15.238979 6.097271 15.195626 5.901518 C 15.153584 5.716275 15.090523 5.536286 15.007754 5.364181 C 14.924985 5.194702 14.82251 5.033106 14.702957 4.885963 C 14.578146 4.733564 14.437572 4.594303 14.283859 4.472121 C 14.143284 4.36045 14.000082 4.254032 13.854251 4.151557 C 13.741266 4.071417 13.624339 3.996531 13.506099 3.9269 C 13.387858 3.85727 13.268303 3.791581 13.147435 3.729833 C 12.979271 3.644437 12.808478 3.562982 12.636373 3.485469 C 12.610098 3.474958 12.585136 3.463135 12.55886 3.45131 C 12.497112 3.422407 12.435364 3.394818 12.373616 3.365914 C 12.309242 3.335698 12.244866 3.30548 12.18049 3.275264 C 12.150273 3.262126 12.120057 3.248987 12.08984 3.23585 C 12.066191 3.225339 12.043857 3.216143 12.021523 3.204319 C 11.971599 3.181985 11.922989 3.157023 11.873065 3.133375 C 11.825769 3.109727 11.778472 3.084764 11.732491 3.059803 C 11.71147 3.049293 11.693077 3.037468 11.673369 3.025645 C 11.651035 3.012507 11.628701 2.998055 11.606367 2.983603 C 11.570894 2.959955 11.535423 2.936307 11.499951 2.912659 C 11.474988 2.894266 11.450026 2.875873 11.426379 2.856166 C 11.423751 2.852225 11.41981 2.849598 11.417182 2.845656 C 11.401417 2.82595 11.384337 2.806243 11.368572 2.785222 C 11.350179 2.761574 11.330471 2.737926 11.312078 2.712964 C 11.308137 2.707709 11.304196 2.702454 11.30157 2.695884 C 11.300255 2.693257 11.298942 2.689316 11.297627 2.686688 C 11.295001 2.67355 11.292373 2.661727 11.289744 2.648588 C 11.288431 2.634136 11.287118 2.619686 11.287118 2.605234 C 11.287118 2.561879 11.292373 2.518524 11.300255 2.476483 C 11.306824 2.448893 11.316022 2.421304 11.327845 2.395028 C 11.338356 2.37138 11.352807 2.349046 11.368572 2.329339 C 11.388278 2.304377 11.410612 2.282042 11.435575 2.262336 C 11.463165 2.240001 11.493381 2.220295 11.523598 2.203215 C 11.559071 2.184823 11.594543 2.169058 11.631329 2.157233 C 11.674684 2.142781 11.719352 2.132271 11.764021 2.125703 C 11.824455 2.116506 11.884888 2.112565 11.945323 2.112565 C 12.05174 2.112565 12.158156 2.125703 12.260631 2.154606 C 12.342087 2.17694 12.4196 2.211099 12.491858 2.257081 C 12.568058 2.30569 12.636373 2.366125 12.695495 2.435756 C 12.778262 2.532976 12.847892 2.640706 12.904386 2.755005 C 12.946426 2.8404 13.018685 2.908718 13.106708 2.945504 C 13.194731 2.982289 13.293265 2.984918 13.383917 2.9547 L 14.649091 2.529034 C 14.744997 2.49619 14.825138 2.427872 14.872434 2.337222 C 14.91973 2.247885 14.930241 2.142781 14.901338 2.044248 C 14.859295 1.898418 14.804117 1.756529 14.738428 1.619896 C 14.674053 1.484575 14.597854 1.357139 14.512457 1.234957 C 14.424433 1.110147 14.325899 0.994534 14.21817 0.886804 C 14.10387 0.772505 13.981689 0.667403 13.851623 0.571496 C 13.724186 0.479531 13.590182 0.396762 13.449606 0.324505 C 13.310345 0.254874 13.165828 0.194439 13.016057 0.147143 C 12.862344 0.098534 12.70469 0.061748 12.545722 0.0381 C 12.373616 0.011824 12.201511 0 12.028092 0 C 11.808691 0 11.590602 0.017079 11.373827 0.051237 C 11.183328 0.082768 10.995458 0.131378 10.814155 0.197068 C 10.647304 0.257502 10.487022 0.333701 10.33331 0.424352 C 10.184854 0.513689 10.044278 0.617478 9.914212 0.733092 C 9.778893 0.855274 9.655397 0.990593 9.546354 1.136423 C 9.445192 1.273057 9.358482 1.4202 9.288852 1.575227 C 9.219221 1.727626 9.167984 1.889221 9.133826 2.053444 C 9.098354 2.226864 9.079961 2.404224 9.079961 2.581586 C 9.079961 2.772084 9.099667 2.961269 9.139081 3.147826 C 9.175866 3.319932 9.23236 3.488096 9.307245 3.647065 C 9.383444 3.80866 9.478037 3.959745 9.591023 4.097693 C 9.71189 4.243522 9.84721 4.3749 9.996981 4.4892 C 10.132301 4.592989 10.270249 4.692837 10.412138 4.787429 C 10.518554 4.858373 10.628911 4.924062 10.741897 4.98581 C 10.849628 5.043617 10.958672 5.098796 11.070343 5.152661 C 11.241135 5.234115 11.411927 5.312943 11.585346 5.389142 C 11.841535 5.502127 12.091153 5.626937 12.334204 5.76357 C 12.481348 5.846339 12.623236 5.939618 12.755928 6.043407 C 12.815048 6.089389 12.868913 6.139312 12.917523 6.195805 C 12.949054 6.231278 12.976645 6.270691 12.998979 6.312732 C 13.017372 6.34689 13.030508 6.382363 13.039706 6.420462 C 13.048901 6.455935 13.052842 6.492721 13.052842 6.53082 C 13.052842 6.597824 13.047588 6.66614 13.034449 6.731829 C 13.026567 6.777811 13.01343 6.821167 12.995038 6.864522 C 12.979271 6.89868 12.959565 6.932838 12.937231 6.963056 C 12.914897 6.994586 12.888619 7.022175 12.859718 7.047138 C 12.826873 7.074727 12.792714 7.099689 12.755928 7.120709 C 12.713888 7.144357 12.671846 7.16275 12.627178 7.178516 C 12.574625 7.196909 12.519446 7.210047 12.464268 7.219243 C 12.390696 7.229754 12.315809 7.236323 12.240925 7.236323 C 12.171294 7.236323 12.101664 7.229754 12.033347 7.219243 C 11.966344 7.208732 11.900655 7.192968 11.837592 7.171947 C 11.77059 7.149613 11.704901 7.122023 11.643153 7.089179 C 11.572209 7.052393 11.503892 7.010352 11.438203 6.963056 C 11.310765 6.868463 11.193839 6.759419 11.093992 6.63461 C 10.982319 6.496662 10.887727 6.345576 10.812842 6.185296 C 10.7708 6.095958 10.697229 6.026327 10.605264 5.988228 C 10.5133 5.951441 10.412138 5.948814 10.318858 5.982973 L 9.04186 6.455935 C 8.945954 6.492721 8.867126 6.563665 8.822458 6.656944 C 8.779103 6.750222 8.772536 6.856639 8.80538 6.953859 C 8.867126 7.133847 8.942013 7.30858 9.030036 7.478059 C 9.112805 7.63834 9.208711 7.792053 9.315127 7.937883 C 9.421543 8.081085 9.53847 8.216405 9.665907 8.341216 C 9.795973 8.469966 9.935233 8.588206 10.083692 8.694622 C 10.23215 8.802353 10.389804 8.898259 10.552711 8.981028 C 10.71168 9.061169 10.875903 9.129486 11.044067 9.18335 C 11.21486 9.238528 11.388278 9.279257 11.56564 9.306846 C 11.749569 9.334436 11.936126 9.348888 12.122685 9.348888 Z " fill-rule="evenodd" id="webstorm" fill="rgb(128,128,128)"/></svg>