<?xml version="1.0" encoding="UTF-8" standalone="no"?>
<svg
   xmlns:dc="http://purl.org/dc/elements/1.1/"
   xmlns:cc="http://creativecommons.org/ns#"
   xmlns:rdf="http://www.w3.org/1999/02/22-rdf-syntax-ns#"
   xmlns:svg="http://www.w3.org/2000/svg"
   xmlns="http://www.w3.org/2000/svg"
   xmlns:sodipodi="http://sodipodi.sourceforge.net/DTD/sodipodi-0.dtd"
   xmlns:inkscape="http://www.inkscape.org/namespaces/inkscape"
   id="svg8"
   version="1.1"
   viewBox="0 0 5.2916665 5.2916665"
   height="20"
   width="20"
   sodipodi:docname="checkbox-focused (copia).svg"
   inkscape:version="0.92.2 (unknown)">
  <sodipodi:namedview
     pagecolor="#ffffff"
     bordercolor="#666666"
     borderopacity="1"
     objecttolerance="10"
     gridtolerance="10"
     guidetolerance="10"
     inkscape:pageopacity="0"
     inkscape:pageshadow="2"
     inkscape:window-width="1216"
     inkscape:window-height="847"
     id="namedview8"
     showgrid="false"
     inkscape:zoom="11.8"
     inkscape:cx="10"
     inkscape:cy="10"
     inkscape:window-x="0"
     inkscape:window-y="27"
     inkscape:window-maximized="0"
     inkscape:current-layer="svg8" />
  <defs
     id="defs2" />
  <metadata
     id="metadata5">
    <rdf:RDF>
      <cc:Work
         rdf:about="">
        <dc:format>image/svg+xml</dc:format>
        <dc:type
           rdf:resource="http://purl.org/dc/dcmitype/StillImage" />
        <dc:title />
      </cc:Work>
    </rdf:RDF>
  </metadata>
  <g
     transform="matrix(0.330728,0,0,0.330728,0,-92.9345)"
     id="layer1"
     style="fill:#dd1010;fill-opacity:1">
    <path
       style="opacity:1;fill:#dd1010;fill-opacity:1;stroke:none;stroke-width:0.36973873;stroke-miterlimit:4;stroke-dasharray:none;stroke-opacity:1;paint-order:stroke fill markers"
       d="M 2.3417969,0 C 1.0444651,0 0,1.0852485 0,2.4335938 V 13.566406 C 0,14.914751 1.0444651,16 2.3417969,16 H 13.658203 C 14.955536,16 16,14.914751 16,13.566406 V 2.4335938 C 16,1.0852485 14.955536,0 13.658203,0 Z M 12.714844,3.0058594 c 0.356411,-0.033385 0.70276,0.087446 0.953125,0.3691406 0.500731,0.5633903 0.427613,1.5530334 -0.164063,2.21875 l -6.0937498,6.855469 c -0.1720622,0.193594 -0.3698748,0.330436 -0.5742187,0.423828 -0.1348494,0.07121 -0.2774557,0.113548 -0.4296875,0.125 -0.036998,0.0039 -0.074629,0.0014 -0.1113281,0.002 -0.03668,-6e-4 -0.072373,0.002 -0.109375,-0.002 -0.1522322,-0.01149 -0.2967909,-0.05379 -0.4316407,-0.125 -0.2043446,-0.0934 -0.4021557,-0.230233 -0.5742187,-0.423828 L 2.4960938,9.4277344 C 1.9044183,8.7620186 1.8313003,7.7723748 2.3320312,7.2089844 2.8327618,6.645594 3.7110587,6.7288151 4.3027344,7.3945312 L 6.2949219,9.6367188 11.695312,3.5605469 c 0.295838,-0.3328581 0.663119,-0.521303 1.019532,-0.5546875 z"
       transform="matrix(1.0000035,0,0,1.0000035,0,280.99979)"
       id="rect815" />
    <g
       transform="translate(-0.02403434,0.19180125)"
       id="g855"
       style="fill:#dd1010;fill-opacity:1" />
  </g>
</svg>
