<svg xmlns="http://www.w3.org/2000/svg" width="16" height="16" version="1.1">
 <g transform="translate(-257.00061,35)">
  <path style="fill:#808080" d="m 264.99952,-28.008493 5.01663,0 c -0.003,0.08401 -0.0163,2.202915 -0.0404,3.07033 -0.0806,2.904145 -1.42727,3.948867 -5.39833,4.203788 -1.90862,0 -3.08229,-0.559326 -4.09139,-1.677977 -1.00332,-1.124418 -1.50499,-2.736084 -1.50499,-4.834997 0,-2.041251 0.30444,-3.6532 1.44771,-4.927348 1.08614,-1.210477 2.43522,-1.883521 4.50527,-1.872723 3.35634,0.01751 4.61378,1.761637 4.88823,4.087562 l -2.45242,0.06289 c -0.17878,-1.096307 -0.80827,-2.036276 -2.34819,-2.05125 -2.81473,-0.02737 -3.29876,2.246108 -3.3127,4.565262 -0.0127,2.064878 0.7898,4.323404 2.76022,4.359396 2.54041,-0.04895 3.00363,-0.300863 2.90245,-2.7534 l -2.3721,0 z"/>
 </g>
</svg>
