<svg xmlns="http://www.w3.org/2000/svg" width="16" height="16" version="1.1">
 <g transform="translate(-317.00061,35)">
  <path style="fill:#808080" d="m 319.0002,-27 0,1 12,0 0,-1 z"/>
  <path style="fill:#808080" d="m 321.0002,-33 0,5 2,0 0,-3 2,0 c 1.91811,-0.02664 2,1 2,1.5 0,0.5 -0.0819,1.526644 -2,1.5 l 3.69531,0 c 0.30055,-0.617006 0.31016,-1.29884 0.30469,-1.5 0,-1.5 -1,-3.5 -3,-3.5 l -1,0 -1,0 -3,0 z m 0,8 0,4 3,0 1,0 1,0 c 2.6886,0 3,-2 3,-3.5 0.002,-0.09309 -0.008,-0.278232 -0.041,-0.5 l -2.01953,0 c 0.049,0.184506 0.0606,0.362355 0.0606,0.5 0,0.5 -0.0819,1.52664 -2,1.5 l -2,0 0,-2 -2,0 z"/>
 </g>
</svg>
