<svg xmlns="http://www.w3.org/2000/svg" width="16" height="16" version="1.1">
 <g transform="translate(-277.00061,35)">
  <path style="fill:#808080" d="m 279.00061,-21 0,1 12,0 0,-1 z"/>
  <path style="solid-color:#808080;fill:#808080;fill-rule:evenodd" d="m 284.66798,-33.066904 c -2.49506,-0.0086 -3.86118,1.68806 -3.81426,3.367685 0.0625,2.2375 1.74084,2.66559 2.80468,2.945313 1.66429,0.437603 3.53125,0.345971 3.53125,1.453125 0,0.76802 -0.94672,1.285004 -1.89537,1.38465 -1.20409,0.126478 -2.01137,-0.261635 -2.83314,-0.987821 -0.18795,-0.194251 -0.44651,-0.30416 -0.7168,-0.304688 -0.89793,-0.0032 -1.34486,1.086778 -0.70312,1.714844 1.21683,1.314057 2.63595,1.644224 3.88633,1.600374 4.01554,-0.140821 4.46132,-2.315502 4.46132,-3.40736 -0.0344,-2.3375 -1.8956,-2.985043 -4.40625,-3.169922 -1.4541,-0.107077 -2.09961,-0.408624 -2.09961,-1.228516 0,-0.819891 0.6998,-1.369068 2.03516,-1.359375 1.33536,0.0097 1.97993,0.250604 2.2793,0.654297 0.78507,1.12927 2.45883,-0.112816 1.60546,-1.191406 -0.79472,-1.071663 -1.63989,-1.462583 -4.13495,-1.4712 z"/>
 </g>
</svg>
