<svg xmlns="http://www.w3.org/2000/svg" width="16" height="16" version="1.1">
 <g transform="translate(-31.97559,-220.36218)">
  <path style="fill:#808080" d="M 8 1.75 C 4.5827378 1.75 1.8125 4.551726 1.8125 8 C 1.8125 11.448274 4.5827378 14.25 8 14.25 C 8.0106523 14.25 8.0206103 14.250054 8.03125 14.25 L 8.03125 1.75 C 8.0206103 1.7499457 8.0106523 1.75 8 1.75 z" transform="translate(31.97559,220.36218)"/>
  <path style="fill:#808080" d="m 39.981636,221.62123 c -3.689875,0 -6.68471,3.02481 -6.68471,6.74093 0,3.71613 2.994835,6.74094 6.68471,6.74094 3.689875,0 6.68471,-3.02481 6.68471,-6.74094 0,-3.71612 -2.994835,-6.74093 -6.68471,-6.74093 z m 0,0.99456 c 3.144649,0 5.69029,2.56595 5.69029,5.74637 0,3.18043 -2.545641,5.74637 -5.69029,5.74637 -3.14465,0 -5.690291,-2.56594 -5.690291,-5.74637 0,-3.18042 2.545641,-5.74637 5.690291,-5.74637 z"/>
 </g>
</svg>
