<?xml version="1.0" encoding="UTF-8" standalone="no"?>
<svg
   xmlns:dc="http://purl.org/dc/elements/1.1/"
   xmlns:cc="http://creativecommons.org/ns#"
   xmlns:rdf="http://www.w3.org/1999/02/22-rdf-syntax-ns#"
   xmlns:svg="http://www.w3.org/2000/svg"
   xmlns="http://www.w3.org/2000/svg"
   xmlns:sodipodi="http://sodipodi.sourceforge.net/DTD/sodipodi-0.dtd"
   xmlns:inkscape="http://www.inkscape.org/namespaces/inkscape"
   height="16"
   style="enable-background:new"
   version="1.1"
   width="16"
   id="svg8"
   sodipodi:docname="mail-mark-junk-symbolic.svg"
   inkscape:version="0.92.2 (unknown)">
  <metadata
     id="metadata14">
    <rdf:RDF>
      <cc:Work
         rdf:about="">
        <dc:format>image/svg+xml</dc:format>
        <dc:type
           rdf:resource="http://purl.org/dc/dcmitype/StillImage" />
      </cc:Work>
    </rdf:RDF>
  </metadata>
  <defs
     id="defs12" />
  <sodipodi:namedview
     pagecolor="#ffffff"
     bordercolor="#666666"
     borderopacity="1"
     objecttolerance="10"
     gridtolerance="10"
     guidetolerance="10"
     inkscape:pageopacity="0"
     inkscape:pageshadow="2"
     inkscape:window-width="1432"
     inkscape:window-height="1005"
     id="namedview10"
     showgrid="false"
     inkscape:zoom="14.75"
     inkscape:cx="8"
     inkscape:cy="8"
     inkscape:window-x="0"
     inkscape:window-y="34"
     inkscape:window-maximized="0"
     inkscape:current-layer="svg8" />
  <title
     id="title2">
  Paper Symbolic Icon Theme
 </title>
  <g
     transform="translate(-405.00041,-101)"
     id="g6"
     style="fill:#808080;fill-opacity:1">
    <path
       d="m 410.21895,102 -0.3125,0.28125 -3.625,3.625 -0.28125,0.3125 0,0.40625 0,4.75 0,0.40625 0.28125,0.3125 3.625,3.625 0.3125,0.28125 0.40625,0 4.75,0 0.40625,0 0.3125,-0.28125 3.625,-3.625 0.28125,-0.3125 0,-0.40625 0,-4.75 0,-0.40625 -0.28125,-0.3125 -3.625,-3.625 -0.3125,-0.28125 -0.40625,0 -4.75,0 -0.40625,0 z m 1.78125,3 2,0 0,3 -0.25,2 -1.46875,0 -0.28125,-2 0,-3 z m 1,5.75 c 0.69036,0 1.25,0.55964 1.25,1.25 0,0.69036 -0.55964,1.25 -1.25,1.25 -0.69036,0 -1.25,-0.55964 -1.25,-1.25 0,-0.69036 0.55964,-1.25 1.25,-1.25 z"
       style="fill:#808080;fill-opacity:1"
       id="path4" />
  </g>
</svg>
