<svg xmlns="http://www.w3.org/2000/svg" width="16" height="16" version="1.1">
 <g color="#808080" transform="translate(-1233 315)" style="fill:#808080">
  <path style="fill:#808080" d="M 4 2 L 3.5 2 C 2.67 2 2 2.669 2 3.5 L 2 12.5 C 2 13.331 2.67 14 3.5 14 L 12.5 14 C 13.331 14 14 13.331 14 12.5 L 14 3.5 C 14 2.669 13.331 2 12.5 2 L 12 2 L 12 3 C 12.554 3 13 3.446 13 4 L 13 10 L 10 10 C 10 11.108 9.108 12 8 12 C 6.892 12 6 11.108 6 10 L 3 10 L 3 4 C 3 3.446 3.446 3 4 3 L 4 2 z" transform="translate(1233,-315)"/>
 </g>
 <path d="m 4.5714535,1.0857701 v 0.8571367 h 0.857136 5.1411495 0.858808 V 1.0857701 Z m 0,1.7142733 V 3.65718 h 0.857136 5.1411495 0.858808 V 2.8000434 Z m 0,1.7142733 V 8.8 H 11.428547 V 4.5143167 Z m 0.857136,0.8571367 2.57141,1.285705 2.5697395,-1.285705 v 0.857137 l -2.5697395,1.285705 -2.57141,-1.285705 z" style="fill:#808080"/>
</svg>
