<?xml version="1.0" encoding="UTF-8" standalone="no"?>
<!-- Created with Inkscape (http://www.inkscape.org/) -->

<svg
   xmlns:dc="http://purl.org/dc/elements/1.1/"
   xmlns:cc="http://creativecommons.org/ns#"
   xmlns:rdf="http://www.w3.org/1999/02/22-rdf-syntax-ns#"
   xmlns:svg="http://www.w3.org/2000/svg"
   xmlns="http://www.w3.org/2000/svg"
   xmlns:sodipodi="http://sodipodi.sourceforge.net/DTD/sodipodi-0.dtd"
   xmlns:inkscape="http://www.inkscape.org/namespaces/inkscape"
   width="16"
   height="16"
   id="svg2"
   version="1.1"
   inkscape:version="0.48.4 r9939"
   sodipodi:docname="palette-symbolic.svg">
  <defs
     id="defs4">
    <linearGradient
       id="linearGradient3946">
      <stop
         id="stop3948"
         offset="0"
         style="stop-color:#000000;stop-opacity:0.74698794;" />
      <stop
         id="stop3950"
         offset="1"
         style="stop-color:#000000;stop-opacity:0.02409638;" />
    </linearGradient>
    <linearGradient
       id="linearGradient3830-9">
      <stop
         style="stop-color:#000000;stop-opacity:0.74698794;"
         offset="0"
         id="stop3832-7" />
      <stop
         style="stop-color:#000000;stop-opacity:0.02409638;"
         offset="1"
         id="stop3834-5" />
    </linearGradient>
    <linearGradient
       id="linearGradient3984">
      <stop
         style="stop-color:#f4deba;stop-opacity:1;"
         offset="0"
         id="stop3986" />
      <stop
         style="stop-color:#de9625;stop-opacity:0;"
         offset="1"
         id="stop3988" />
    </linearGradient>
  </defs>
  <sodipodi:namedview
     id="base"
     pagecolor="#555753"
     bordercolor="#666666"
     borderopacity="1.0"
     inkscape:pageopacity="1"
     inkscape:pageshadow="2"
     inkscape:zoom="23.531954"
     inkscape:cx="6.6591249"
     inkscape:cy="5.9522186"
     inkscape:document-units="px"
     inkscape:current-layer="layer1"
     showgrid="true"
     inkscape:snap-grids="false"
     inkscape:window-width="1920"
     inkscape:window-height="1134"
     inkscape:window-x="0"
     inkscape:window-y="27"
     inkscape:window-maximized="1"
     showborder="true"
     fit-margin-top="0"
     fit-margin-right="0"
     fit-margin-left="0"
     fit-margin-bottom="0"
     showguides="true">
    <inkscape:grid
       type="xygrid"
       id="grid7044"
       empspacing="8"
       visible="true"
       enabled="true"
       snapvisiblegridlinesonly="true"
       originx="-31.97559px"
       originy="-816.00002px" />
  </sodipodi:namedview>
  <metadata
     id="metadata7">
    <rdf:RDF>
      <cc:Work
         rdf:about="">
        <dc:format>image/svg+xml</dc:format>
        <dc:type
           rdf:resource="http://purl.org/dc/dcmitype/StillImage" />
        <dc:title />
      </cc:Work>
    </rdf:RDF>
  </metadata>
  <g
     inkscape:label="Livello 1"
     inkscape:groupmode="layer"
     id="layer1"
     transform="translate(-31.97559,-220.36218)">
    <path
       id="path3818"
       d="m 61.840587,221.03647 c -0.04364,4.3e-4 -0.08737,0.002 -0.130679,0.003 -3.988456,0.13754 -6.690726,5.08913 -6.857994,5.75821 -0.2347,0.93879 -0.688902,2.7525 -0.548849,4.13466 0.119477,1.05139 0.978967,3.22543 2.054262,3.27322 1.075295,0.0478 0.454611,-2.8909 2.437934,-3.4405 1.856121,-0.51434 -0.669073,4.7782 0.501805,4.87379 1.170876,0.0956 2.819215,0.31109 5.447715,-2.26962 1.367693,-1.34283 3.570085,-3.41946 3.417497,-6.54751 -0.188176,-3.8341 -3.572042,-5.81556 -6.321691,-5.78539 z m 0.289583,9.58969 c 0.454155,-0.01 0.961562,0.0853 1.109196,0.64084 0.13394,0.504 -0.273114,1.12675 -1.027653,1.31411 -0.700022,0.17382 -1.457473,0.0714 -1.648637,-0.71716 -0.191163,-0.83635 0.765253,-1.17118 1.267056,-1.21897 0.09409,-0.009 0.195232,-0.0166 0.300038,-0.0188 z"
       style="fill:#bebebe;fill-opacity:1;stroke:none"
       inkscape:connector-curvature="0" />
    <path
       transform="matrix(0.03066774,-0.00150667,0.0089403,0.03983513,42.226599,204.27348)"
       d="m 351,612.36218 c 0,16.01626 -20.81876,29 -46.5,29 -25.68124,0 -46.5,-12.98374 -46.5,-29 0,-16.01626 20.81876,-29 46.5,-29 25.68124,0 46.5,12.98374 46.5,29 z"
       sodipodi:ry="29"
       sodipodi:rx="46.5"
       sodipodi:cy="612.36218"
       sodipodi:cx="304.5"
       id="path3820"
       style="fill:#828282;fill-opacity:1;stroke:none"
       sodipodi:type="arc" />
    <path
       transform="matrix(-0.02606513,0.01622926,-0.02718264,-0.03046095,90.373217,241.93668)"
       d="m 351,612.36218 c 0,16.01626 -20.81876,29 -46.5,29 -25.68124,0 -46.5,-12.98374 -46.5,-29 0,-16.01626 20.81876,-29 46.5,-29 25.68124,0 46.5,12.98374 46.5,29 z"
       sodipodi:ry="29"
       sodipodi:rx="46.5"
       sodipodi:cy="612.36218"
       sodipodi:cx="304.5"
       id="path3822"
       style="fill:#828282;fill-opacity:1;stroke:none"
       sodipodi:type="arc" />
    <path
       transform="matrix(0.02245904,0.01984223,-0.03683968,0.02086863,77.58947,204.64333)"
       d="m 351,612.36218 c 0,16.01626 -20.81876,29 -46.5,29 -25.68124,0 -46.5,-12.98374 -46.5,-29 0,-16.01626 20.81876,-29 46.5,-29 25.68124,0 46.5,12.98374 46.5,29 z"
       sodipodi:ry="29"
       sodipodi:rx="46.5"
       sodipodi:cy="612.36218"
       sodipodi:cx="304.5"
       id="path3824"
       style="fill:#828282;fill-opacity:1;stroke:none"
       sodipodi:type="arc" />
    <path
       transform="matrix(-0.01009646,0.03001405,-0.03941126,-0.01336271,92.348332,223.94654)"
       d="m 351,612.36218 c 0,16.01626 -20.81876,29 -46.5,29 -25.68124,0 -46.5,-12.98374 -46.5,-29 0,-16.01626 20.81876,-29 46.5,-29 25.68124,0 46.5,12.98374 46.5,29 z"
       sodipodi:ry="29"
       sodipodi:rx="46.5"
       sodipodi:cy="612.36218"
       sodipodi:cx="304.5"
       id="path3826"
       style="fill:#828282;fill-opacity:1;stroke:none"
       sodipodi:type="arc" />
    <path
       transform="matrix(0.08048987,0,0,0.08155002,30.179984,183.80487)"
       d="m 362,501.86218 c 0,5.79899 -4.47715,10.5 -10,10.5 -5.52285,0 -10,-4.70101 -10,-10.5 0,-5.79899 4.47715,-10.5 10,-10.5 5.52285,0 10,4.70101 10,10.5 z"
       sodipodi:ry="10.5"
       sodipodi:rx="10"
       sodipodi:cy="501.86218"
       sodipodi:cx="352"
       id="path3828"
       style="opacity:0.75925927;fill:#828282;fill-opacity:1;stroke:none"
       sodipodi:type="arc" />
    <path
       id="path3864"
       d="m 23.434931,221.04968 c -3.988456,0.13754 -6.707732,5.08092 -6.875,5.75 -0.2347,0.93879 -0.671303,2.74284 -0.53125,4.125 0.119477,1.05139 0.955955,3.23346 2.03125,3.28125 1.075295,0.0478 0.454177,-2.8879 2.4375,-3.4375 1.856121,-0.51434 -0.670878,4.77941 0.5,4.875 1.170876,0.0956 2.84025,0.29946 5.46875,-2.28125 1.367693,-1.34283 3.558838,-3.4032 3.40625,-6.53125 -0.188176,-3.8341 -3.562851,-5.81142 -6.3125,-5.78125 -0.04364,4.3e-4 -0.08169,-0.001 -0.125,0 z m -0.40625,1.34375 c 0.541987,-0.0771 1.192418,0.0866 1.625,0.46875 0.576776,0.50957 0.558784,1.19701 -0.03125,1.53125 -0.590034,0.33424 -1.548224,0.19707 -2.125,-0.3125 -0.576776,-0.50957 -0.558784,-1.19701 0.03125,-1.53125 0.147508,-0.0836 0.319337,-0.13054 0.5,-0.15625 z m 3.8125,1.0625 c 0.160495,-0.0243 0.310945,0.009 0.46875,0.0625 0.631221,0.21402 0.94679,1.01045 0.6875,1.78125 -0.25929,0.7708 -0.993779,1.21402 -1.625,1 -0.631221,-0.21402 -0.91554,-1.01045 -0.65625,-1.78125 0.194467,-0.5781 0.643515,-0.98971 1.125,-1.0625 z m -6.625,0.40625 c 0.444533,0 0.8125,0.40209 0.8125,0.875 0,0.47291 -0.367967,0.84375 -0.8125,0.84375 -0.444533,0 -0.8125,-0.37084 -0.8125,-0.84375 0,-0.47291 0.367967,-0.875 0.8125,-0.875 z m -1.71875,3.1875 c 0.787585,-0.0387 1.54431,0.45574 1.6875,1.09375 0.14319,0.63801 -0.399915,1.18006 -1.1875,1.21875 -0.787586,0.0387 -1.54431,-0.45574 -1.6875,-1.09375 -0.14319,-0.63801 0.399914,-1.18006 1.1875,-1.21875 z m 9.3125,0.0312 c 0.361988,0.0233 0.688568,0.13106 0.90625,0.375 0.435364,0.48787 0.231885,1.23946 -0.4375,1.65625 -0.669385,0.41679 -1.564636,0.36287 -2,-0.125 -0.435364,-0.48787 -0.231885,-1.23946 0.4375,-1.65625 0.334692,-0.20839 0.731762,-0.27329 1.09375,-0.25 z m -3.96875,3.53125 c 0.454155,-0.01 0.977366,0.10071 1.125,0.65625 0.13394,0.504 -0.276711,1.12514 -1.03125,1.3125 -0.700022,0.17382 -1.465086,0.0698 -1.65625,-0.71875 -0.191163,-0.83635 0.748197,-1.17096 1.25,-1.21875 0.09409,-0.009 0.207694,-0.029 0.3125,-0.0312 z"
       style="fill:#bebebe;fill-opacity:1;stroke:none"
       inkscape:connector-curvature="0" />
    <path
       sodipodi:type="arc"
       style="fill:#bebebe;fill-opacity:0.55144037;stroke:none"
       id="path3866"
       sodipodi:cx="304.5"
       sodipodi:cy="612.36218"
       sodipodi:rx="46.5"
       sodipodi:ry="29"
       d="m 351,612.36218 c 0,16.01626 -20.81876,29 -46.5,29 -25.68124,0 -46.5,-12.98374 -46.5,-29 0,-16.01626 20.81876,-29 46.5,-29 25.68124,0 46.5,12.98374 46.5,29 z"
       transform="matrix(0.03066774,-0.00150667,0.0089403,0.03983513,3.9382349,204.27348)" />
    <path
       sodipodi:type="arc"
       style="fill:#bebebe;fill-opacity:0.55294118;stroke:none"
       id="path3868"
       sodipodi:cx="304.5"
       sodipodi:cy="612.36218"
       sodipodi:rx="46.5"
       sodipodi:ry="29"
       d="m 351,612.36218 c 0,16.01626 -20.81876,29 -46.5,29 -25.68124,0 -46.5,-12.98374 -46.5,-29 0,-16.01626 20.81876,-29 46.5,-29 25.68124,0 46.5,12.98374 46.5,29 z"
       transform="matrix(-0.02606513,0.01622926,-0.02718264,-0.03046095,52.084853,241.93668)" />
    <path
       sodipodi:type="arc"
       style="fill:#bebebe;fill-opacity:0.55294118;stroke:none"
       id="path3870"
       sodipodi:cx="304.5"
       sodipodi:cy="612.36218"
       sodipodi:rx="46.5"
       sodipodi:ry="29"
       d="m 351,612.36218 c 0,16.01626 -20.81876,29 -46.5,29 -25.68124,0 -46.5,-12.98374 -46.5,-29 0,-16.01626 20.81876,-29 46.5,-29 25.68124,0 46.5,12.98374 46.5,29 z"
       transform="matrix(0.02245904,0.01984223,-0.03683968,0.02086863,39.301106,204.64333)" />
    <path
       sodipodi:type="arc"
       style="fill:#bebebe;fill-opacity:0.55294118;stroke:none"
       id="path3872"
       sodipodi:cx="304.5"
       sodipodi:cy="612.36218"
       sodipodi:rx="46.5"
       sodipodi:ry="29"
       d="m 351,612.36218 c 0,16.01626 -20.81876,29 -46.5,29 -25.68124,0 -46.5,-12.98374 -46.5,-29 0,-16.01626 20.81876,-29 46.5,-29 25.68124,0 46.5,12.98374 46.5,29 z"
       transform="matrix(-0.01009646,0.03001405,-0.03941126,-0.01336271,54.059968,223.94654)" />
    <path
       sodipodi:type="arc"
       style="opacity:0.75925927;fill:#bebebe;fill-opacity:0.55294118;stroke:none"
       id="path3874"
       sodipodi:cx="352"
       sodipodi:cy="501.86218"
       sodipodi:rx="10"
       sodipodi:ry="10.5"
       d="m 362,501.86218 c 0,5.79899 -4.47715,10.5 -10,10.5 -5.52285,0 -10,-4.70101 -10,-10.5 0,-5.79899 4.47715,-10.5 10,-10.5 5.52285,0 10,4.70101 10,10.5 z"
       transform="matrix(0.08048987,0,0,0.08155002,-8.1083793,183.80487)" />
    <path
       style="fill:#bebebe;fill-opacity:1;stroke:none"
       d="m 32.591774,235.14279 c 3.259415,-0.86248 2.732543,-3.27515 4.232345,-4.26024 0.690213,-0.45334 1.782228,-0.39668 2.389701,0.2167 3.09233,3.51772 -4.136339,4.67037 -6.622046,4.04354 z"
       id="path3789"
       inkscape:connector-curvature="0"
       sodipodi:nodetypes="cscc" />
    <path
       style="fill:#bebebe;fill-opacity:1;stroke:none"
       d="m 38.711112,229.26545 c 0.82943,0.17093 1.802999,1.17754 2.082276,1.67857 l 6.161834,-8.66907 c 0.08754,-0.92538 -0.828871,-1.23633 -1.338606,-0.97739 z"
       id="path3791"
       inkscape:connector-curvature="0"
       sodipodi:nodetypes="ccccc" />
  </g>
</svg>
