<svg xmlns="http://www.w3.org/2000/svg" width="16" height="16" version="1.1">
 <g transform="translate(-81.00015,-687)">
  <path d="m 89.50018,695.49997 1,-10e-6 c 0.26531,-3e-5 0.53058,-0.0931 0.71876,-0.28124 l 2.99999,-3.00001 0.28126,-0.28125 0,-0.87499 -0.28126,-0.28126 -3,-2.99999 c -0.18818,-0.18821 -0.45347,-0.28121 -0.71876,-0.28121 l -1,-10e-6 0,1 c -4e-5,0.26531 0.0931,0.53059 0.28121,0.71877 l 2.28126,2.28124 -2.28125,2.28125 c -0.18815,0.18817 -0.28125,0.45345 -0.28125,0.71875 l 0,1 z" style="fill:#808080"/>
  <path d="m 92.50019,690.49981 -7,0 0,2 7,0 0,-2 z" style="fill:#808080"/>
  <path d="m 88.5002,701.49997 -1,-10e-6 c -0.26531,-3e-5 -0.53058,-0.0931 -0.71876,-0.28124 l -2.99999,-3.00001 -0.28126,-0.28125 0,-0.87499 0.28126,-0.28126 3,-2.99999 c 0.18818,-0.18821 0.45347,-0.28121 0.71876,-0.28121 l 1,-10e-6 0,1 c 4e-5,0.26531 -0.0931,0.53059 -0.28121,0.71877 l -2.28126,2.28124 2.28125,2.28125 c 0.18815,0.18817 0.28125,0.45345 0.28125,0.71875 l 0,1 z" style="fill:#808080"/>
  <path d="m 92.50019,696.49981 -7,0 0,2 7,0 0,-2 z" style="fill:#808080"/>
 </g>
</svg>
