<svg xmlns="http://www.w3.org/2000/svg" width="16" height="16" version="1.1" viewBox="0 0 16 16">
 <g transform="translate(-201 -807)">
  <path style="fill:#808080" d="m203.71 816.69c0.49379 0.47964 1.0774 0.69712 1.7883 0.69712 0.71086 0 1.2972-0.22349 1.791-0.70313 0.77657 0.27945 1.7052 0.99058 1.7063 2.2326l0.003 2.3167c0 0.42-0.31 0.76-0.7 0.76h-5.6c-0.3878 0-0.7-0.34309-0.7-0.76924v-2.3077c0-1.0667 0.77162-1.966 1.7117-2.2356z"/>
  <circle style="fill:#808080" cx="-205.5" cy="814.31" r="2.308" transform="scale(-1,1)"/>
  <path style="fill:#808080" d="m210.71 812.69c0.49379 0.47964 1.0774 0.69712 1.7883 0.69712 0.71086 0 1.2972-0.22349 1.791-0.70313 0.77657 0.27945 1.7052 0.99058 1.7063 2.2326l-6.9973 0.009c0-1.0667 0.77162-1.966 1.7117-2.2356z"/>
  <circle style="fill:#808080" cx="-212.5" cy="810.31" r="2.308" transform="scale(-1,1)"/>
  <path style="solid-color:#808080;fill:#808080" d="m215.16 821.94h0.83984v-1c0.008-1.6727 0-5 0-5h-6v0.8457c-0.0954 0.61124 0.3814 1.1616 1 1.1543h1.5859l-1.643 1.643-0.64999 0.64998c-0.65409 0.63582-0.18523 1.7437 0.72657 1.7168 0.25979-0.008 0.50637-0.11632 0.6875-0.30273l0.62788-0.62789 1.6651-1.6651v1.5859c0 0.68107 0.4492 1 1.1602 1z"/>
 </g>
</svg>
