<svg xmlns="http://www.w3.org/2000/svg" width="16.029" height="16" version="1.1" viewBox="0 0 16.03 16">
 <g transform="translate(-40.972 -1007)">
  <path style="fill:#808080" d="m43.121 1007c-0.9012 0-2.1489 0.6913-2.1489 1.5746v12.796c0 0.8833 1.2477 1.6103 2.1489 1.6104l4.4922-2.9445c0.70245-0.4555 1.4419-0.7271 1.4419-1.6105v-6.9066c0-0.8834-0.93834-1.22-1.4419-1.6104zm0 1.4367 4.79 2.925c0.06616 0.038 0.09803 0.077 0.09803 0.1575v6.9066c0 0.065-0.04025 0.1113-0.08631 0.1379l-4.8018 2.9445c-0.093-0.0001-0.141-0.042-0.141-0.138v-12.796c-0.00015-0.096 0.0525-0.1367 0.141-0.1379z"/>
  <path style="opacity:.5;fill:#808080" d="m54.851 1007c0.9012 0 2.1489 0.6913 2.1489 1.5746v12.796c0 0.8833-1.2477 1.6103-2.1489 1.6104l-4.3516-2.9445c-0.70245-0.4555-1.4419-0.7271-1.4419-1.6105v-6.9066c0-0.8834 0.93834-1.22 1.4419-1.6104zm0 1.4367-4.7275 2.925c-0.06616 0.038-0.09803 0.077-0.09803 0.1575v6.9066c0 0.065 0.04025 0.1113 0.08631 0.1379l4.7393 2.9445c0.093-0.0001 0.141-0.042 0.141-0.138v-12.796c0.00015-0.096-0.0525-0.1367-0.141-0.1379z"/>
 </g>
</svg>
