<?xml version="1.0" standalone="no"?><!-- Generator: Gravit.io --><svg xmlns="http://www.w3.org/2000/svg" xmlns:xlink="http://www.w3.org/1999/xlink" style="isolation:isolate" viewBox="0 0 16 16" width="16" height="16"><defs><clipPath id="_clipPath_PfHerJXjLDEKhzfQSGKEQCbwYxtfkSvN"><rect width="16" height="16"/></clipPath></defs><g clip-path="url(#_clipPath_PfHerJXjLDEKhzfQSGKEQCbwYxtfkSvN)"><path d=" M 12.5 1.5 C 10.783 1.501 9.321 2.747 9.047 4.441 L 6.568 8.557 C 6.381 8.52 6.191 8.501 6 8.5 C 5.547 8.501 5.1 8.605 4.693 8.803 L 0.268 6.248 C 0.093 6.986 0.004 7.742 0 8.5 C 0.004 8.868 0.028 9.235 0.072 9.6 L 3.008 11.293 C 3.003 11.362 3 11.431 3 11.5 C 3 12.296 3.316 13.059 3.879 13.621 C 4.441 14.184 5.204 14.5 6 14.5 C 7.657 14.5 9 13.157 9 11.5 C 8.999 11.405 8.994 11.311 8.984 11.217 L 13.361 8.387 C 14.911 7.993 15.997 6.599 16 5 C 16 3.067 14.433 1.5 12.5 1.5 L 12.5 1.5 Z  M 12.5 2.5 C 13.881 2.5 15 3.619 15 5 C 15 6.381 13.881 7.5 12.5 7.5 C 11.837 7.5 11.201 7.237 10.732 6.768 C 10.263 6.299 10 5.663 10 5 C 10 4.337 10.263 3.701 10.732 3.232 C 11.201 2.763 11.837 2.5 12.5 2.5 L 12.5 2.5 Z  M 12.5 3.5 C 11.672 3.5 11 4.172 11 5 C 11 5.828 11.672 6.5 12.5 6.5 C 13.328 6.5 14 5.828 14 5 C 14 4.172 13.328 3.5 12.5 3.5 Z  M 6 9.5 C 7.105 9.5 8 10.395 8 11.5 C 8 12.605 7.105 13.5 6 13.5 C 5.046 13.499 4.226 12.824 4.041 11.889 L 4.746 12.297 C 5.466 12.712 6.379 12.468 6.795 11.748 C 7.21 11.028 6.966 10.115 6.246 9.699 L 5.908 9.504 C 5.939 9.502 5.969 9.501 6 9.5 Z " fill="rgb(128,128,128)"/><rect x="18.188" y="-0.156" width="4.625" height="3.594" transform="matrix(1,0,0,1,0,0)" fill="rgb(128,128,128)"/></g></svg>