<?xml version="1.0" standalone="no"?><!-- Generator: Gravit.io --><svg xmlns="http://www.w3.org/2000/svg" xmlns:xlink="http://www.w3.org/1999/xlink" style="isolation:isolate" viewBox="0 0 16 16" width="16" height="16"><defs><clipPath id="_clipPath_yUKQMknRPto3WF5ZoY6GglEEMYLeGVRq"><rect width="16" height="16"/></clipPath></defs><g clip-path="url(#_clipPath_yUKQMknRPto3WF5ZoY6GglEEMYLeGVRq)"><path d=" M 12.238 1 L 11.885 1.36 L 2.916 10.455 L 2.886 10.5 C 2.825 10.599 2.616 10.95 2.303 11.588 C 1.989 12.226 1.603 13.098 1.291 14.08 L 1 15 L 1.92 14.709 C 2.775 14.434 3.607 14.095 4.412 13.697 C 5.05 13.383 5.399 13.177 5.5 13.113 L 5.545 13.084 L 15 3.762 L 12.238 1 Z  M 12 9 L 12 10 L 15 10 L 15 9 L 12 9 Z  M 3.89 10.89 L 5.11 12.11 L 4.932 12.285 C 4.939 12.28 4.553 12.512 3.971 12.799 C 3.757 12.904 3.435 13.021 3.137 13.137 L 2.863 12.863 C 2.979 12.565 3.096 12.243 3.201 12.029 C 3.488 11.447 3.719 11.063 3.715 11.069 L 3.89 10.89 Z  M 10 11 L 10 12 L 15 12 L 15 11 L 10 11 Z  M 8 13 L 8 14 L 15 14 L 15 13 L 8 13 Z " fill="rgb(128,128,128)"/><rect x="18.188" y="-0.156" width="4.625" height="3.594" transform="matrix(1,0,0,1,0,0)" fill="rgb(128,128,128)"/></g></svg>