<?xml version="1.0" standalone="no"?><!-- Generator: Gravit.io --><svg xmlns="http://www.w3.org/2000/svg" xmlns:xlink="http://www.w3.org/1999/xlink" style="isolation:isolate" viewBox="0 0 16 16" width="16" height="16"><defs><clipPath id="_clipPath_WEV8t7igRbtM8Fy013fXhnOfgJ9f48pr"><rect width="16" height="16"/></clipPath></defs><g clip-path="url(#_clipPath_WEV8t7igRbtM8Fy013fXhnOfgJ9f48pr)"><rect x="17.625" y="-0.281" width="4.625" height="3.594" transform="matrix(1,0,0,1,0,0)" fill="rgb(128,128,128)"/><path d=" M 1 1 L 1 3.546 C 7.325 3.546 12.454 8.675 12.454 15 L 15 15 C 15 7.271 8.729 1 1 1 Z  M 1 6.093 L 1 8.639 C 4.509 8.639 7.361 11.491 7.361 15 L 9.907 15 C 9.907 10.078 5.922 6.093 1 6.093 Z  M 1 13.039 C 1 11.956 1.879 11.077 2.961 11.077 C 4.044 11.077 4.923 11.956 4.923 13.039 C 4.923 14.121 4.044 15 2.961 15 C 1.879 15 1 14.121 1 13.039 Z " fill-rule="evenodd" fill="rgb(128,128,128)"/></g></svg>