<?xml version="1.0" encoding="UTF-8" standalone="no"?>
<!-- Created with Inkscape (http://www.inkscape.org/) -->

<svg
   xmlns:dc="http://purl.org/dc/elements/1.1/"
   xmlns:cc="http://creativecommons.org/ns#"
   xmlns:rdf="http://www.w3.org/1999/02/22-rdf-syntax-ns#"
   xmlns:svg="http://www.w3.org/2000/svg"
   xmlns="http://www.w3.org/2000/svg"
   xmlns:xlink="http://www.w3.org/1999/xlink"
   xmlns:sodipodi="http://sodipodi.sourceforge.net/DTD/sodipodi-0.dtd"
   xmlns:inkscape="http://www.inkscape.org/namespaces/inkscape"
   width="16"
   height="16"
   viewBox="0 0 4.2333333 4.2333334"
   version="1.1"
   id="svg1037"
   inkscape:version="0.92.2 (unknown)"
   sodipodi:docname="anjuta-symbolic.svg">
  <defs
     id="defs1031">
    <radialGradient
       cx="5.6491151"
       cy="9.9571075"
       r="12.671875"
       fx="5.118885"
       fy="9.9571075"
       id="radialGradient3107-17"
       xlink:href="#linearGradient2867-449-88-871-390-598-476-591-434-148-57-177-8-3"
       gradientUnits="userSpaceOnUse"
       gradientTransform="matrix(-1.9132589e-7,7.8004159,-9.5764203,-2.3414749e-7,129.08903,164.10192)" />
    <linearGradient
       id="linearGradient2867-449-88-871-390-598-476-591-434-148-57-177-8-3">
      <stop
         offset="0"
         style="stop-color:#90dbec;stop-opacity:1"
         id="stop3750-1-0" />
      <stop
         offset="0.26238"
         style="stop-color:#55c1ec;stop-opacity:1"
         id="stop3752-3-7" />
      <stop
         offset="0.704952"
         style="stop-color:#3689e6;stop-opacity:1"
         id="stop3754-1-8" />
      <stop
         offset="1"
         style="stop-color:#2b63a0;stop-opacity:1"
         id="stop3756-1-6" />
    </linearGradient>
  </defs>
  <sodipodi:namedview
     id="base"
     pagecolor="#ffffff"
     bordercolor="#666666"
     borderopacity="1.0"
     inkscape:pageopacity="0.0"
     inkscape:pageshadow="2"
     inkscape:zoom="51.875041"
     inkscape:cx="7.9999937"
     inkscape:cy="7.9999937"
     inkscape:document-units="px"
     inkscape:current-layer="layer1"
     showgrid="true"
     units="px"
     inkscape:window-width="1920"
     inkscape:window-height="1013"
     inkscape:window-x="0"
     inkscape:window-y="34"
     inkscape:window-maximized="1">
    <inkscape:grid
       type="xygrid"
       id="grid1672" />
  </sodipodi:namedview>
  <metadata
     id="metadata1034">
    <rdf:RDF>
      <cc:Work
         rdf:about="">
        <dc:format>image/svg+xml</dc:format>
        <dc:type
           rdf:resource="http://purl.org/dc/dcmitype/StillImage" />
        <dc:title></dc:title>
      </cc:Work>
    </rdf:RDF>
  </metadata>
  <g
     inkscape:label="Livello 1"
     inkscape:groupmode="layer"
     id="layer1"
     transform="translate(0,-292.76665)">
    <path
       inkscape:connector-curvature="0"
       style="fill:#808080;fill-opacity:1;stroke-width:0.10079491"
       d="m 0.74733373,294.58013 c -0.091883,-0.0274 -0.4033754,0.20158 -0.4033754,0.20158 0.1653456,-0.61175 1.21012637,-1.20904 1.21012637,-1.20904 -0.1009568,-0.0373 -0.60506327,0 -0.60506327,0 0.74399687,-0.72297 1.81520967,-0.40301 1.81520967,-0.40301 0.0274,-0.15783 0.4033755,-0.40301 0.4033755,-0.40301 -0.046055,0.0461 0,0.30226 0,0.30226 0.045948,-0.0836 0.2016876,-0.10068 0.2016876,-0.10068 -0.082618,0.19455 -0.077276,0.58641 -0.077276,0.58641 0.2386991,0.24128 0.5049954,1.07621 0.5049954,1.07621 l 0.1012692,0.14836 c 0.1285681,0.18573 0.076285,0.47694 -0.051124,0.54611 -0.3570507,0.21345 -0.5184613,-0.21193 -0.5184613,-0.21193 -0.3949693,-0.0464 -0.7661514,-0.53318 -0.7661514,-0.53318 -0.5017498,0.28327 0.065869,1.18211 0.2958288,1.48352 0.2953855,0.38634 -0.094131,0.93456 -0.094131,0.93456 0,0 -1.0084386,0.0709 -1.7639663,-0.705 -0.37202858,-0.39853 -0.65636698,-0.84343 -0.25299148,-1.71328 z"
       id="path1850" />
  </g>
</svg>
