<?xml version="1.0" standalone="no"?><!-- Generator: Gravit.io --><svg xmlns="http://www.w3.org/2000/svg" xmlns:xlink="http://www.w3.org/1999/xlink" style="isolation:isolate" viewBox="0 0 16 16" width="16" height="16"><defs><clipPath id="_clipPath_rmmxJUaD6m9MOrhfPz1uLMt57du05RUg"><rect width="16" height="16"/></clipPath></defs><g clip-path="url(#_clipPath_rmmxJUaD6m9MOrhfPz1uLMt57du05RUg)"><rect x="16.375" y="0" width="4.625" height="3.594" transform="matrix(1,0,0,1,0,0)" fill="rgb(128,128,128)"/><path d=" M 0 0.841 L 0 13.841 L 6 13.841 C 6.975 13.841 7.602 14.642 7.602 14.642 L 7.992 15.159 L 8.393 14.649 C 8.393 14.649 9.044 13.856 10.004 13.841 L 16 13.841 L 16 0.841 L 14 0.841 L 14 1.841 L 15 1.841 L 15 12.841 L 9.996 12.841 L 9.992 12.841 C 8.967 12.856 8.368 13.318 8.004 13.665 C 7.64 13.311 7 12.841 6 12.841 L 1 12.841 L 1 1.841 L 6 1.841 C 6.983 1.841 7.6 2.64 7.6 2.64 L 8 3.175 L 8.4 2.64 C 8.4 2.64 9.017 1.841 10 1.841 L 10 8.841 L 13 7.841 L 13 0.841 L 10 0.841 C 8.964 0.841 8.365 1.306 8 1.661 C 7.635 1.306 7.036 0.841 6 0.841 L 0 0.841 Z  M 3 3.841 L 3 4.841 L 6 4.841 L 6 3.841 L 3 3.841 Z  M 3 5.841 L 3 6.841 L 6 6.841 L 6 5.841 L 3 5.841 Z  M 3 7.841 L 3 8.841 L 6 8.841 L 6 7.841 L 3 7.841 Z  M 3 9.841 L 3 10.841 L 6 10.841 L 6 9.841 L 3 9.841 Z " fill="rgb(128,128,128)"/></g></svg>