<?xml version="1.0" standalone="no"?><!-- Generator: Gravit.io --><svg xmlns="http://www.w3.org/2000/svg" xmlns:xlink="http://www.w3.org/1999/xlink" style="isolation:isolate" viewBox="0 0 16 16" width="16" height="16"><defs><clipPath id="_clipPath_KpV308tHCGO7BvFwz9WfCcDdA0dKVS9I"><rect width="16" height="16"/></clipPath></defs><g clip-path="url(#_clipPath_KpV308tHCGO7BvFwz9WfCcDdA0dKVS9I)"><rect x="17.188" y="0.063" width="4.625" height="3.594" transform="matrix(1,0,0,1,0,0)" fill="rgb(128,128,128)"/><path d=" M 8 0 C 3.588 0 0 3.588 0 8 C 0 12.412 3.588 16 8 16 C 12.412 16 16 12.412 16 8 C 16 3.588 12.412 0 8 0 Z  M 8 1 C 11.872 1 15 4.128 15 8 C 15 11.872 11.872 15 8 15 C 4.128 15 1 11.872 1 8 C 1 4.128 4.128 1 8 1 Z  M 7 12.5 L 10.5 7 L 9 7 L 9 2.5 L 5.5 8 L 7 8 L 7 12.5 Z " fill-rule="evenodd" fill="rgb(128,128,128)"/></g></svg>