<?xml version="1.0" encoding="UTF-8" standalone="no"?>
<!-- Created with Inkscape (http://www.inkscape.org/) -->

<svg
   xmlns:osb="http://www.openswatchbook.org/uri/2009/osb"
   xmlns:dc="http://purl.org/dc/elements/1.1/"
   xmlns:cc="http://creativecommons.org/ns#"
   xmlns:rdf="http://www.w3.org/1999/02/22-rdf-syntax-ns#"
   xmlns:svg="http://www.w3.org/2000/svg"
   xmlns="http://www.w3.org/2000/svg"
   xmlns:sodipodi="http://sodipodi.sourceforge.net/DTD/sodipodi-0.dtd"
   xmlns:inkscape="http://www.inkscape.org/namespaces/inkscape"
   sodipodi:docname="cpu-freq.svg"
   height="16"
   id="svg6530"
   version="1.1"
   inkscape:version="0.92.3 (2405546, 2018-03-11)"
   viewBox="0 0 16 16"
   width="16">
  <defs
     id="defs6532">
    <linearGradient
       id="linearGradient5606"
       osb:paint="solid">
      <stop
         id="stop5608"
         offset="0"
         style="stop-color:#000000;stop-opacity:1;" />
    </linearGradient>
  </defs>
  <sodipodi:namedview
     inkscape:bbox-nodes="true"
     bordercolor="#666666"
     borderopacity="1.0"
     inkscape:current-layer="layer3"
     inkscape:cx="8"
     inkscape:cy="8"
     inkscape:document-units="px"
     inkscape:guide-bbox="true"
     id="base"
     inkscape:object-nodes="true"
     inkscape:object-paths="true"
     pagecolor="#727272"
     inkscape:pageopacity="0"
     inkscape:pageshadow="2"
     showgrid="false"
     showguides="true"
     inkscape:snap-bbox="true"
     inkscape:snap-bbox-edge-midpoints="true"
     inkscape:snap-bbox-midpoints="true"
     inkscape:snap-smooth-nodes="true"
     units="px"
     inkscape:window-height="1009"
     inkscape:window-maximized="1"
     inkscape:window-width="1920"
     inkscape:window-x="0"
     inkscape:window-y="34"
     inkscape:zoom="51.6875">
    <inkscape:grid
       empspacing="4"
       id="grid8845"
       originx="-516"
       originy="-76.001587"
       type="xygrid" />
  </sodipodi:namedview>
  <metadata
     id="metadata6535">
    <rdf:RDF>
      <cc:Work
         rdf:about="">
        <dc:format>image/svg+xml</dc:format>
        <dc:type
           rdf:resource="http://purl.org/dc/dcmitype/StillImage" />
        <dc:title />
      </cc:Work>
    </rdf:RDF>
  </metadata>
  <g
     inkscape:groupmode="layer"
     id="layer3"
     inkscape:label="apps"
     transform="translate(-516,-507.99841)">
    <path
       inkscape:connector-curvature="0"
       d="m 520.88889,507.99841 c -0.24622,0 -0.44445,0.19822 -0.44445,0.44444 v 1.47223 c 0.28394,-0.0738 0.58283,-0.13889 0.88889,-0.13889 h 0.88889 v -1.33334 c 0,-0.24622 -0.19822,-0.44444 -0.44444,-0.44444 z m 2.66667,0 c -0.24623,0 -0.44445,0.19822 -0.44445,0.44444 v 1.33334 h 1.77778 v -1.33334 c 0,-0.24622 -0.19822,-0.44444 -0.44445,-0.44444 z m 2.66666,0 c -0.24622,0 -0.44444,0.19822 -0.44444,0.44444 v 1.33334 h 0.88889 c 0.30604,0 0.60497,0.0652 0.88889,0.13889 v -1.47223 c 0,-0.24622 -0.19823,-0.44444 -0.44445,-0.44444 z m -4.88889,2.66667 c -1.47733,0 -2.66666,1.18933 -2.66666,2.66666 v 5.33334 c 0,1.47733 1.18933,2.66666 2.66666,2.66666 h 5.33334 c 1.47733,0 2.66666,-1.18933 2.66666,-2.66666 v -5.33334 c 0,-1.47733 -1.18933,-2.66666 -2.66666,-2.66666 z m -4.88889,1.77777 c -0.24622,0 -0.44444,0.19823 -0.44444,0.44445 v 0.88889 c 0,0.24622 0.19822,0.44444 0.44444,0.44444 h 1.33334 v -0.88889 c 0,-0.30606 0.0652,-0.60495 0.13889,-0.88889 z m 4.88889,0 h 5.33334 c 0.49244,0 0.88889,0.39645 0.88889,0.88889 v 5.33334 c 0,0.49244 -0.39645,0.88889 -0.88889,0.88889 h -5.33334 c -0.49244,0 -0.88889,-0.39645 -0.88889,-0.88889 v -5.33334 c 0,-0.49244 0.39645,-0.88889 0.88889,-0.88889 z m 8.75005,0 c 0.0738,0.28394 0.13884,0.58283 0.13884,0.88889 v 0.88889 h 1.33334 c 0.24622,0 0.44444,-0.19822 0.44444,-0.44444 v -0.88889 c 0,-0.24622 -0.19822,-0.44445 -0.44444,-0.44445 z m -8.75005,0.88889 v 5.33334 h 5.33334 v -5.33334 z m -4.88889,1.77778 c -0.24622,0 -0.44444,0.19822 -0.44444,0.44445 v 0.88888 c 0,0.24623 0.19822,0.44445 0.44444,0.44445 h 1.33334 v -1.77778 z m 13.77778,0 v 1.77778 h 1.33334 c 0.24622,0 0.44444,-0.19822 0.44444,-0.44445 v -0.88888 c 0,-0.24623 -0.19822,-0.44445 -0.44444,-0.44445 z m -13.77778,2.66667 c -0.24622,0 -0.44444,0.19822 -0.44444,0.44444 v 0.88889 c 0,0.24622 0.19822,0.44445 0.44444,0.44445 h 1.47223 c -0.0738,-0.28394 -0.13889,-0.58283 -0.13889,-0.88889 v -0.88889 z m 13.77778,0 v 0.88889 c 0,0.30606 -0.0649,0.60495 -0.13884,0.88889 h 1.47218 c 0.24622,0 0.44444,-0.19823 0.44444,-0.44445 v -0.88889 c 0,-0.24622 -0.19822,-0.44444 -0.44444,-0.44444 z m -9.77778,4.30555 v 1.47223 c 0,0.24621 0.19823,0.44444 0.44445,0.44444 h 0.88889 c 0.24622,0 0.44444,-0.19823 0.44444,-0.44444 v -1.33334 h -0.88889 c -0.30606,0 -0.60495,-0.0652 -0.88889,-0.13889 z m 7.11112,0 c -0.28392,0.0738 -0.58285,0.13889 -0.88889,0.13889 h -0.88889 v 1.33334 c 0,0.24621 0.19822,0.44444 0.44444,0.44444 h 0.88889 c 0.24622,0 0.44445,-0.19823 0.44445,-0.44444 z m -4.44445,0.13889 v 1.33334 c 0,0.24621 0.19822,0.44444 0.44445,0.44444 h 0.88888 c 0.24623,0 0.44445,-0.19823 0.44445,-0.44444 v -1.33334 z"
       id="path4188"
       style="color:#000000;fill:#808080;fill-opacity:1;stroke:none;stroke-width:1.77777779" />
  </g>
  <g
     inkscape:groupmode="layer"
     id="layer1"
     inkscape:label="panel"
     style="display:inline"
     transform="translate(-516,-960.36057)" />
  <g
     inkscape:groupmode="layer"
     id="layer2"
     inkscape:label="animations"
     transform="translate(-516,-507.99841)" />
</svg>
