<?xml version="1.0" encoding="UTF-8" standalone="no"?>
<!-- Created with Inkscape (http://www.inkscape.org/) -->

<svg
   xmlns:dc="http://purl.org/dc/elements/1.1/"
   xmlns:cc="http://creativecommons.org/ns#"
   xmlns:rdf="http://www.w3.org/1999/02/22-rdf-syntax-ns#"
   xmlns:svg="http://www.w3.org/2000/svg"
   xmlns="http://www.w3.org/2000/svg"
   xmlns:xlink="http://www.w3.org/1999/xlink"
   xmlns:sodipodi="http://sodipodi.sourceforge.net/DTD/sodipodi-0.dtd"
   xmlns:inkscape="http://www.inkscape.org/namespaces/inkscape"
   width="16"
   height="16"
   viewBox="0 0 4.2333333 4.2333334"
   version="1.1"
   id="svg1037"
   inkscape:version="0.92.3 (unknown)"
   sodipodi:docname="discord-symbolic.svg">
  <defs
     id="defs1031">
    <radialGradient
       cx="5.6491151"
       cy="9.9571075"
       r="12.671875"
       fx="5.118885"
       fy="9.9571075"
       id="radialGradient3107-17"
       xlink:href="#linearGradient2867-449-88-871-390-598-476-591-434-148-57-177-8-3"
       gradientUnits="userSpaceOnUse"
       gradientTransform="matrix(-1.9132589e-7,7.8004159,-9.5764203,-2.3414749e-7,129.08903,164.10192)" />
    <linearGradient
       id="linearGradient2867-449-88-871-390-598-476-591-434-148-57-177-8-3">
      <stop
         offset="0"
         style="stop-color:#90dbec;stop-opacity:1"
         id="stop3750-1-0" />
      <stop
         offset="0.26238"
         style="stop-color:#55c1ec;stop-opacity:1"
         id="stop3752-3-7" />
      <stop
         offset="0.704952"
         style="stop-color:#3689e6;stop-opacity:1"
         id="stop3754-1-8" />
      <stop
         offset="1"
         style="stop-color:#2b63a0;stop-opacity:1"
         id="stop3756-1-6" />
    </linearGradient>
  </defs>
  <sodipodi:namedview
     id="base"
     pagecolor="#ffffff"
     bordercolor="#666666"
     borderopacity="1.0"
     inkscape:pageopacity="0.0"
     inkscape:pageshadow="2"
     inkscape:zoom="51.875041"
     inkscape:cx="7.9999937"
     inkscape:cy="7.9999937"
     inkscape:document-units="px"
     inkscape:current-layer="layer1"
     showgrid="true"
     units="px"
     inkscape:window-width="1920"
     inkscape:window-height="1013"
     inkscape:window-x="0"
     inkscape:window-y="34"
     inkscape:window-maximized="1">
    <inkscape:grid
       type="xygrid"
       id="grid1672" />
  </sodipodi:namedview>
  <metadata
     id="metadata1034">
    <rdf:RDF>
      <cc:Work
         rdf:about="">
        <dc:format>image/svg+xml</dc:format>
        <dc:type
           rdf:resource="http://purl.org/dc/dcmitype/StillImage" />
        <dc:title></dc:title>
      </cc:Work>
    </rdf:RDF>
  </metadata>
  <g
     inkscape:label="Livello 1"
     inkscape:groupmode="layer"
     id="layer1"
     transform="translate(0,-292.76665)">
    <path
       style="fill:#808080;fill-opacity:1;stroke-width:0.00396875"
       d="m 1.5689225,293.37332 c -0.052606,2.2e-4 -0.4878035,0.0126 -0.94691378,0.35371 0,0 -0.48971705,0.88082 -0.48971705,1.96567 0,0 0.28566369,0.48973 1.03724403,0.51353 0,0 0.1258297,-0.14963 0.2278541,-0.27887 -0.43190364,-0.12923 -0.59514191,-0.39788 -0.59514191,-0.39788 0,0 0.0340153,0.0238 0.0952301,0.0578 0.003403,0 0.006787,0.004 0.0135928,0.007 0.0102028,0.007 0.0204084,0.0102 0.0306103,0.017 0.08502,0.0476 0.17003811,0.085 0.24825691,0.11563 0.1394334,0.0579 0.3060785,0.10883 0.4999249,0.14623 0.2550611,0.0476 0.5543276,0.0646 0.8808059,0.004 0.1598385,-0.0306 0.3230878,-0.0748 0.4931287,-0.14623 0.1190285,-0.0442 0.2516555,-0.10882 0.3910888,-0.20064 0,0 -0.1700379,0.27546 -0.6155447,0.4013 0.1020247,0.12583 0.2244559,0.27205 0.2244559,0.27205 0.7515804,-0.0238 1.0372441,-0.51353 1.0372441,-0.51013 0,-1.08486 -0.4897172,-1.96568 -0.4897172,-1.96568 -0.4863167,-0.36388 -0.952235,-0.35368 -0.952235,-0.35368 l -0.047602,0.0544 c 0.5781388,0.17343 0.8467972,0.42851 0.8467972,0.42851 -0.3536852,-0.19044 -0.7005607,-0.28568 -1.023638,-0.32309 -0.2448588,-0.0272 -0.4795243,-0.0204 -0.6869739,0.007 -0.020405,0 -0.037404,0.004 -0.05781,0.007 -0.1190285,0.0136 -0.4080954,0.0544 -0.77198279,0.21425 -0.12583014,0.0544 -0.20065493,0.0952 -0.20065493,0.0952 0,0 0.278867,-0.26868 0.89101382,-0.44211 l -0.034009,-0.0408 c 0,0 -0.0018,-3e-5 -0.00531,-2e-5 z m -0.086511,1.25493 c 0.1938464,0 0.3502857,0.16664 0.3468851,0.37409 0,0.20745 -0.1530387,0.37409 -0.3468851,0.37409 -0.1904457,0 -0.3468851,-0.16664 -0.3468851,-0.37409 0,-0.20745 0.1530386,-0.37409 0.3468851,-0.37409 z m 1.2412972,0 c 0.1904457,0 0.3468852,0.16664 0.3468852,0.37409 0,0.20745 -0.1530386,0.37409 -0.3468852,0.37409 -0.1904456,0 -0.3468852,-0.16664 -0.3468852,-0.37409 0,-0.20745 0.1530386,-0.37409 0.3468852,-0.37409 z"
       id="path8"
       inkscape:connector-curvature="0" />
  </g>
</svg>
