<?xml version="1.0" standalone="no"?><!-- Generator: Gravit.io --><svg xmlns="http://www.w3.org/2000/svg" xmlns:xlink="http://www.w3.org/1999/xlink" style="isolation:isolate" viewBox="0 0 16 16" width="16" height="16"><defs><clipPath id="_clipPath_WO6jrd9ydv3lvGGeXpfKpJJrAspQQUEp"><rect width="16" height="16"/></clipPath></defs><g clip-path="url(#_clipPath_WO6jrd9ydv3lvGGeXpfKpJJrAspQQUEp)"><path d=" M 3.994 1 C 2.736 1.014 1.815 0.971 1.063 1.387 C 0.686 1.594 0.387 1.944 0.223 2.383 C 0.058 2.821 0 3.342 0 4 L 0 12 C 0 12.658 0.058 13.179 0.223 13.617 C 0.387 14.056 0.686 14.408 1.063 14.615 C 1.815 15.031 2.736 14.985 3.994 15 L 4 15 L 12 15 L 12.006 15 C 13.264 14.986 14.185 15.031 14.938 14.615 C 15.314 14.408 15.613 14.056 15.778 13.617 C 15.942 13.179 16 12.658 16 12 L 16 9 L 16 6 C 16 5.342 15.942 4.821 15.777 4.383 C 15.757 4.328 15.729 4.279 15.703 4.229 C 15.693 4.21 15.685 4.191 15.676 4.172 C 15.503 3.833 15.25 3.557 14.938 3.385 C 14.185 2.969 13.264 3.015 12.006 3 L 12 3 L 8.967 3 L 6.945 1 L 3.996 1 L 3.994 1 Z  M 4.006 2 L 6.535 2 L 8.301 3.746 L 7.033 5 L 4 5 L 3.994 5 C 2.736 5.014 1.815 4.969 1.062 5.385 C 1.04 5.397 1.021 5.414 1 5.428 L 1 4 C 1 3.408 1.062 2.994 1.16 2.734 C 1.258 2.474 1.363 2.363 1.547 2.262 C 1.913 2.059 2.742 2.015 4.006 2 L 4.006 2 Z  M 9.465 4 L 11.992 4 C 13.256 4.015 14.084 4.059 14.451 4.262 C 14.635 4.363 14.74 4.474 14.838 4.734 C 14.936 4.994 15 5.408 15 6 L 15 9 L 15 12 C 15 12.592 14.937 13.006 14.84 13.266 C 14.742 13.526 14.637 13.637 14.453 13.738 C 14.087 13.94 13.26 13.985 12 14 L 11.994 14 L 4 14 C 2.74 13.985 1.913 13.94 1.547 13.738 C 1.363 13.637 1.258 13.526 1.16 13.266 C 1.063 13.006 1 12.592 1 12 L 1 8 C 1 7.408 1.064 6.994 1.162 6.734 C 1.26 6.474 1.365 6.363 1.549 6.262 C 1.916 6.059 2.744 6.015 4.008 6 L 7.443 6 L 9.465 4 Z " fill="rgb(128,128,128)"/><rect x="17.094" y="-0.094" width="4.625" height="3.594" transform="matrix(1,0,0,1,0,0)" fill="rgb(128,128,128)"/></g></svg>