<?xml version="1.0" encoding="UTF-8" standalone="no"?>
<svg
   xmlns:osb="http://www.openswatchbook.org/uri/2009/osb"
   xmlns:dc="http://purl.org/dc/elements/1.1/"
   xmlns:cc="http://creativecommons.org/ns#"
   xmlns:rdf="http://www.w3.org/1999/02/22-rdf-syntax-ns#"
   xmlns:svg="http://www.w3.org/2000/svg"
   xmlns="http://www.w3.org/2000/svg"
   xmlns:sodipodi="http://sodipodi.sourceforge.net/DTD/sodipodi-0.dtd"
   xmlns:inkscape="http://www.inkscape.org/namespaces/inkscape"
   height="16"
   id="svg7384"
   version="1.1"
   width="15.999999"
   sodipodi:docname="sc-apps-gcompris-qt-symbolic.svg"
   inkscape:version="0.92.3 (2405546, 2018-03-11)">
  <sodipodi:namedview
     pagecolor="#ffffff"
     bordercolor="#666666"
     borderopacity="1"
     objecttolerance="10"
     gridtolerance="10"
     guidetolerance="10"
     inkscape:pageopacity="0"
     inkscape:pageshadow="2"
     inkscape:window-width="1691"
     inkscape:window-height="1006"
     id="namedview22"
     showgrid="false"
     inkscape:zoom="14.75"
     inkscape:cx="-5.2881361"
     inkscape:cy="8"
     inkscape:window-x="0"
     inkscape:window-y="34"
     inkscape:window-maximized="0"
     inkscape:current-layer="svg7384" />
  <metadata
     id="metadata20854">
    <rdf:RDF>
      <cc:Work
         rdf:about="">
        <dc:title></dc:title>
        <dc:format>image/svg+xml</dc:format>
        <dc:type
           rdf:resource="http://purl.org/dc/dcmitype/StillImage" />
      </cc:Work>
    </rdf:RDF>
  </metadata>
  <defs
     id="defs7386">
    <linearGradient
       id="linearGradient5606"
       osb:paint="solid">
      <stop
         id="stop5608"
         offset="0"
         style="stop-color:#000000;stop-opacity:1;" />
    </linearGradient>
    <linearGradient
       id="linearGradient4526"
       osb:paint="solid">
      <stop
         id="stop4528"
         offset="0"
         style="stop-color:#ffffff;stop-opacity:1;" />
    </linearGradient>
    <linearGradient
       id="linearGradient3600-4"
       osb:paint="gradient">
      <stop
         id="stop3602-7"
         offset="0"
         style="stop-color:#f4f4f4;stop-opacity:1" />
      <stop
         id="stop3604-6"
         offset="1"
         style="stop-color:#dbdbdb;stop-opacity:1" />
    </linearGradient>
    <clipPath
       id="clipPath16"
       clipPathUnits="userSpaceOnUse">
      <path
         inkscape:connector-curvature="0"
         id="path18"
         d="M 0,512 H 512 V 0 H 0 Z" />
    </clipPath>
    <clipPath
       id="clipPath24"
       clipPathUnits="userSpaceOnUse">
      <path
         inkscape:connector-curvature="0"
         id="path26"
         d="m 18.325,493.744 h 475.4 V 18.2563 h -475.4 z" />
    </clipPath>
    <clipPath
       id="clipPath28"
       clipPathUnits="userSpaceOnUse">
      <path
         inkscape:connector-curvature="0"
         id="path30"
         d="M 448.99,63.029 C 389.293,3.332 122.807,3.332 63.11,63.029 3.413,122.726 3.413,389.312 63.01,449.009 c 59.597,59.696 326.283,59.596 385.98,0 59.697,-59.597 59.597,-326.283 0,-385.98" />
    </clipPath>
    <mask
       id="mask44"
       height="1"
       width="1"
       y="0"
       x="0"
       maskUnits="userSpaceOnUse">
      <g
         id="g46">
        <g
           id="g48">
          <g
             id="g50">
            <g
               id="g52">
              <path
                 inkscape:connector-curvature="0"
                 id="path54"
                 style="fill:url(#radialGradient36);stroke:none"
                 d="M -32768,32767 H 32767 V -32768 H -32768 Z" />
            </g>
          </g>
        </g>
      </g>
    </mask>
    <radialGradient
       id="radialGradient36"
       spreadMethod="pad"
       gradientTransform="matrix(237.72188,0,0,237.72188,256.02499,256)"
       gradientUnits="userSpaceOnUse"
       r="1"
       cy="0"
       cx="0"
       fy="0"
       fx="0">
      <stop
         id="stop38"
         offset="0"
         style="stop-opacity:1;stop-color:#ffffff" />
      <stop
         id="stop40"
         offset="0.8587"
         style="stop-opacity:0.14129854;stop-color:#ffffff" />
      <stop
         id="stop42"
         offset="1"
         style="stop-opacity:0;stop-color:#ffffff" />
    </radialGradient>
    <clipPath
       id="clipPath86"
       clipPathUnits="userSpaceOnUse">
      <path
         inkscape:connector-curvature="0"
         id="path88"
         d="m 18.325,493.744 h 475.4 V 18.2563 h -475.4 z" />
    </clipPath>
    <clipPath
       id="clipPath90"
       clipPathUnits="userSpaceOnUse">
      <path
         inkscape:connector-curvature="0"
         id="path92"
         d="M 448.99,63.029 C 389.293,3.332 122.807,3.332 63.11,63.029 3.413,122.726 3.413,389.312 63.01,449.009 c 59.597,59.696 326.283,59.596 385.98,0 59.697,-59.597 59.597,-326.283 0,-385.98" />
    </clipPath>
    <mask
       id="mask106"
       height="1"
       width="1"
       y="0"
       x="0"
       maskUnits="userSpaceOnUse">
      <g
         id="g108">
        <g
           id="g110">
          <g
             id="g112">
            <g
               id="g114">
              <path
                 inkscape:connector-curvature="0"
                 id="path116"
                 style="fill:url(#radialGradient98);stroke:none"
                 d="M -32768,32767 H 32767 V -32768 H -32768 Z" />
            </g>
          </g>
        </g>
      </g>
    </mask>
    <radialGradient
       id="radialGradient98"
       spreadMethod="pad"
       gradientTransform="matrix(188.25467,188.36119,-130.35883,130.27895,256.02499,256.04376)"
       gradientUnits="userSpaceOnUse"
       r="1"
       cy="0"
       cx="0"
       fy="0"
       fx="0">
      <stop
         id="stop100"
         offset="0"
         style="stop-opacity:1;stop-color:#ffffff" />
      <stop
         id="stop102"
         offset="0.8587"
         style="stop-opacity:0.14129854;stop-color:#ffffff" />
      <stop
         id="stop104"
         offset="1"
         style="stop-opacity:0;stop-color:#ffffff" />
    </radialGradient>
    <clipPath
       id="clipPath148"
       clipPathUnits="userSpaceOnUse">
      <path
         inkscape:connector-curvature="0"
         id="path150"
         d="M 18.275,493.694 H 493.662 V 18.2563 H 18.275 Z" />
    </clipPath>
    <clipPath
       id="clipPath152"
       clipPathUnits="userSpaceOnUse">
      <path
         inkscape:connector-curvature="0"
         id="path154"
         d="m 63.01,63.029 c 59.697,-59.697 326.183,-59.697 385.88,0 59.697,59.697 59.697,326.183 0,385.88 -59.697,59.696 -326.183,59.696 -385.88,0.1 -59.697,-59.597 -59.597,-326.283 0,-385.98" />
    </clipPath>
    <mask
       id="mask168"
       height="1"
       width="1"
       y="0"
       x="0"
       maskUnits="userSpaceOnUse">
      <g
         id="g170">
        <g
           id="g172">
          <g
             id="g174">
            <g
               id="g176">
              <path
                 inkscape:connector-curvature="0"
                 id="path178"
                 style="fill:url(#radialGradient160);stroke:none"
                 d="M -32768,32767 H 32767 V -32768 H -32768 Z" />
            </g>
          </g>
        </g>
      </g>
    </mask>
    <radialGradient
       id="radialGradient160"
       spreadMethod="pad"
       gradientTransform="matrix(-188.28767,188.39421,130.38168,130.30179,255.92499,255.99377)"
       gradientUnits="userSpaceOnUse"
       r="1"
       cy="0"
       cx="0"
       fy="0"
       fx="0">
      <stop
         id="stop162"
         offset="0"
         style="stop-opacity:1;stop-color:#ffffff" />
      <stop
         id="stop164"
         offset="0.8587"
         style="stop-opacity:0.14129854;stop-color:#ffffff" />
      <stop
         id="stop166"
         offset="1"
         style="stop-opacity:0;stop-color:#ffffff" />
    </radialGradient>
  </defs>
  <g
     id="layer9"
     label="status"
     style="display:inline"
     transform="translate(-753.0002,167.00006)" />
  <g
     id="layer2"
     transform="translate(-512,-199.99994)" />
  <g
     id="layer4"
     transform="translate(-512,-199.99994)" />
  <g
     id="g1812"
     style="display:inline"
     transform="translate(-512,-199.99994)" />
  <g
     id="g6217"
     transform="translate(-512,-199.99994)" />
  <g
     id="layer3"
     style="display:inline"
     transform="translate(-512,-199.99994)" />
  <g
     id="layer1"
     transform="translate(-512,-199.99994)" />
  <path
     style="color:#000000;clip-rule:nonzero;display:inline;overflow:visible;visibility:visible;opacity:1;isolation:auto;mix-blend-mode:normal;color-interpolation:sRGB;color-interpolation-filters:linearRGB;solid-color:#000000;solid-opacity:1;fill:#808080;fill-opacity:1;fill-rule:nonzero;stroke:none;stroke-width:0.50108784;stroke-linecap:butt;stroke-linejoin:miter;stroke-miterlimit:4;stroke-dasharray:none;stroke-dashoffset:0;stroke-opacity:1;marker:none;color-rendering:auto;image-rendering:auto;shape-rendering:auto;text-rendering:auto;enable-background:accumulate"
     d="M 3.7746182,0.49998253 2.936894,1.3377008 3.0426492,1.4436306 C 1.890261,2.7986878 1.253268,4.5185335 1.25,6.2996376 c 0,3.9894214 3.107424,7.2524364 7.0337201,7.5025354 v 0.249401 c -2.2532778,0.06053 -4.3656835,0.543094 -4.3656835,1.448444 h 4.8506294 4.850792 c 0,-0.90535 -2.112237,-1.387971 -4.3655114,-1.448444 V 13.800136 C 10.861079,13.694497 12.395137,13.075652 13.6277,12.028664 l 0.07077,0.07072 0.83756,-0.837721 -1.645517,-1.6455204 A 5.3207804,5.320781 0 0 0 14.05714,6.2996966 5.3207804,5.320781 0 0 0 8.7365349,0.97893643 5.3207804,5.320781 0 0 0 5.4167451,2.1423597 Z m 0.144955,1.82039157 0.662678,0.6626723 A 5.3207804,5.320781 0 0 0 3.4156268,6.2996376 5.3207804,5.320781 0 0 0 8.7365699,11.620602 5.3207804,5.320781 0 0 0 12.056019,10.456829 l 0.688238,0.688398 c -1.119529,0.920891 -2.523739,1.42755 -3.9755706,1.429965 -3.465941,0 -6.2755334,-2.8096134 -6.2755334,-6.2755544 C 2.493397,4.8470031 2.9992063,3.4413964 3.9195732,2.3203741 Z M 8.610624,3.2243568 c 1.393411,0.00163 2.207475,0.7911266 2.207475,0.7911266 L 9.475756,5.2492166 c -0.9197091,-0.395346 -1.709145,0.313365 -1.6051592,1.312248 0.10398,0.998883 0.8134563,1.209957 1.6023014,1.105744 0.7888488,-0.104183 0.263835,-0.761879 0.263835,-0.761879 l -0.3154495,0.07857 -0.4989002,-0.526302 2.6562675,-0.837893 c 0.364955,2.628746 -0.63545,3.757393 -2.791293,3.755123 -2.155837,-0.0025 -2.9689295,-1.632977 -2.9671776,-3.052262 0.00169,-1.419284 1.397045,-3.0999007 2.7904523,-3.0981546 z"
     id="rect5300"
     inkscape:connector-curvature="0" />
</svg>
