<?xml version="1.0" encoding="UTF-8" standalone="no"?>
<svg
   xmlns:dc="http://purl.org/dc/elements/1.1/"
   xmlns:cc="http://creativecommons.org/ns#"
   xmlns:rdf="http://www.w3.org/1999/02/22-rdf-syntax-ns#"
   xmlns:svg="http://www.w3.org/2000/svg"
   xmlns="http://www.w3.org/2000/svg"
   xmlns:sodipodi="http://sodipodi.sourceforge.net/DTD/sodipodi-0.dtd"
   xmlns:inkscape="http://www.inkscape.org/namespaces/inkscape"
   height="16.003"
   style="enable-background:new"
   version="1.1"
   width="16"
   id="svg8"
   sodipodi:docname="gnome-control-center.svg"
   inkscape:version="0.92.2 (unknown)">
  <metadata
     id="metadata14">
    <rdf:RDF>
      <cc:Work
         rdf:about="">
        <dc:format>image/svg+xml</dc:format>
        <dc:type
           rdf:resource="http://purl.org/dc/dcmitype/StillImage" />
      </cc:Work>
    </rdf:RDF>
  </metadata>
  <defs
     id="defs12" />
  <sodipodi:namedview
     pagecolor="#ffffff"
     bordercolor="#666666"
     borderopacity="1"
     objecttolerance="10"
     gridtolerance="10"
     guidetolerance="10"
     inkscape:pageopacity="0"
     inkscape:pageshadow="2"
     inkscape:window-width="1838"
     inkscape:window-height="884"
     id="namedview10"
     showgrid="false"
     inkscape:zoom="14.747235"
     inkscape:cx="8"
     inkscape:cy="8.0015001"
     inkscape:window-x="0"
     inkscape:window-y="34"
     inkscape:window-maximized="0"
     inkscape:current-layer="svg8" />
  <title
     id="title2">
  Paper Symbolic Icon Theme
 </title>
  <g
     transform="translate(-256,-75.996643)"
     id="g6"
     style="fill:#808080;fill-opacity:1">
    <path
       d="m 258,76 c 0,0 -2,-0.0034 -2,2 l 0,12 c 0,1.996643 2,2 2,2 l 12,0 c 0.0948,-0.0034 2,-0.0034 2,-2 l 0,-12 c 0,0 0,-2 -2,-2 z m 2.90625,3 6.1875,0 C 268.14981,79 269,79.85019 269,80.90625 l 0,0.1875 C 269,82.14981 268.14981,83 267.09375,83 l -6.1875,0 C 259.85019,83 259,82.14981 259,81.09375 l 0,-0.1875 C 259,79.85019 259.85019,79 260.90625,79 Z m 0.0937,1 c -0.55228,0 -1,0.447715 -1,1 0,0.552285 0.44772,1 1,1 0.55228,0 1,-0.447715 1,-1 0,-0.552285 -0.44772,-1 -1,-1 z m -0.0566,5 6.11328,0 c 1.07668,0 1.94336,0.86668 1.94336,1.94336 l 0,0.11328 c 0,1.07668 -0.86668,1.94336 -1.94336,1.94336 l -6.11328,0 c -1.07668,0 -1.94336,-0.86668 -1.94336,-1.94336 l 0,-0.11328 C 259,85.86668 259.86668,85 260.94335,85 Z m 6.05664,1 c -0.55228,0 -1,0.447715 -1,1 0,0.552285 0.44772,1 1,1 0.55228,0 1,-0.447715 1,-1 0,-0.552285 -0.44772,-1 -1,-1 z"
       style="fill:#808080;fill-opacity:1;enable-background:new"
       id="path4" />
  </g>
</svg>
