<?xml version="1.0" standalone="no"?><!-- Generator: Gravit.io --><svg xmlns="http://www.w3.org/2000/svg" xmlns:xlink="http://www.w3.org/1999/xlink" style="isolation:isolate" viewBox="0 0 16 16" width="16" height="16"><defs><clipPath id="_clipPath_fKe6n4PahiSYkzV8PMgdsNrzl3kjQHKh"><rect width="16" height="16"/></clipPath></defs><g clip-path="url(#_clipPath_fKe6n4PahiSYkzV8PMgdsNrzl3kjQHKh)"><rect x="17.094" y="-0.094" width="4.625" height="3.594" transform="matrix(1,0,0,1,0,0)" fill="rgb(128,128,128)"/><g id="tablet"><path d=" M 3.994 1.5 C 2.736 1.514 1.815 1.469 1.063 1.885 C 0.686 2.092 0.389 2.444 0.225 2.883 C 0.06 3.321 0 3.842 0 4.5 L 0 12.5 C 0 13.158 0.06 13.679 0.225 14.117 C 0.389 14.556 0.686 14.908 1.063 15.115 C 1.815 15.531 2.736 15.485 3.994 15.5 L 3.998 15.5 L 12.002 15.5 L 12.006 15.5 C 13.264 15.486 14.185 15.531 14.938 15.115 C 15.314 14.908 15.611 14.556 15.776 14.117 C 15.94 13.679 16 13.158 16 12.5 L 16 4.5 C 16 3.842 15.94 3.321 15.775 2.883 C 15.77 2.87 15.763 2.86 15.758 2.848 L 14.937 3.654 C 14.975 3.884 15 4.153 15 4.5 L 15 12.5 C 15 13.092 14.937 13.506 14.84 13.766 C 14.742 14.026 14.637 14.137 14.453 14.238 C 14.087 14.44 13.259 14.485 12 14.5 L 4.006 14.5 L 4 14.5 C 2.741 14.485 1.911 14.44 1.545 14.238 C 1.362 14.137 1.258 14.026 1.16 13.766 C 1.063 13.506 1 13.092 1 12.5 L 1 4.5 C 1 3.908 1.063 3.494 1.16 3.234 C 1.258 2.974 1.362 2.863 1.545 2.762 C 1.911 2.56 2.741 2.515 4 2.5 L 7.852 2.5 L 8.834 1.5 L 3.998 1.5 L 3.994 1.5 Z " fill="rgb(128,128,128)"/><path d=" M 11.238 0.5 L 10.885 0.859 L 3.916 7.955 L 3.887 8 C 3.825 8.099 3.617 8.45 3.303 9.088 C 2.989 9.726 2.603 10.597 2.291 11.58 L 2 12.5 L 2.92 12.209 C 3.903 11.897 4.774 11.511 5.412 11.197 C 6.05 10.883 6.399 10.677 6.5 10.613 L 6.545 10.584 L 14 3.262 L 11.238 0.5 Z  M 4.891 8.391 L 6.109 9.609 L 5.932 9.785 C 5.939 9.78 5.553 10.012 4.971 10.299 C 4.756 10.404 4.435 10.521 4.137 10.637 L 3.863 10.363 C 3.979 10.065 4.096 9.744 4.201 9.529 C 4.488 8.947 4.719 8.563 4.715 8.568 L 4.891 8.391 Z  M 4 12.5 L 4 13.5 L 14 13.5 L 14 7.5 L 13 7.5 L 13 12.5 L 4 12.5 Z " fill="rgb(128,128,128)"/></g></g></svg>