<?xml version="1.0" encoding="UTF-8" standalone="no"?>
<svg
   xmlns:dc="http://purl.org/dc/elements/1.1/"
   xmlns:cc="http://creativecommons.org/ns#"
   xmlns:rdf="http://www.w3.org/1999/02/22-rdf-syntax-ns#"
   xmlns:svg="http://www.w3.org/2000/svg"
   xmlns="http://www.w3.org/2000/svg"
   xmlns:xlink="http://www.w3.org/1999/xlink"
   xmlns:sodipodi="http://sodipodi.sourceforge.net/DTD/sodipodi-0.dtd"
   xmlns:inkscape="http://www.inkscape.org/namespaces/inkscape"
   id="svg4389"
   height="16"
   width="16"
   version="1.1"
   sodipodi:docname="openjdk-8.svg"
   inkscape:version="0.92.2 (unknown)">
  <sodipodi:namedview
     pagecolor="#ffffff"
     bordercolor="#666666"
     borderopacity="1"
     objecttolerance="10"
     gridtolerance="10"
     guidetolerance="10"
     inkscape:pageopacity="0"
     inkscape:pageshadow="2"
     inkscape:window-width="1920"
     inkscape:window-height="1013"
     id="namedview48"
     showgrid="false"
     inkscape:zoom="20.363634"
     inkscape:cx="-2.4441903"
     inkscape:cy="6.2438573"
     inkscape:window-x="0"
     inkscape:window-y="34"
     inkscape:window-maximized="1"
     inkscape:current-layer="svg4389" />
  <defs
     id="defs4391">
    <linearGradient
       id="linearGradient3924-1">
      <stop
         offset="0"
         style="stop-color:#ffffff;stop-opacity:1"
         id="stop3926-3" />
      <stop
         offset="0.06316455"
         style="stop-color:#ffffff;stop-opacity:0.23529412"
         id="stop3928-91" />
      <stop
         offset="0.95056331"
         style="stop-color:#ffffff;stop-opacity:0.15686275"
         id="stop3930-6" />
      <stop
         offset="1"
         style="stop-color:#ffffff;stop-opacity:0.39215687"
         id="stop3932-6" />
    </linearGradient>
    <linearGradient
       id="linearGradient4632-92-3-0-8-1-6">
      <stop
         offset="0"
         style="stop-color:#fafafa;stop-opacity:1"
         id="stop4634-68-8-0-2-9-1" />
      <stop
         offset="1"
         style="stop-color:#e1e1e1;stop-opacity:1"
         id="stop4636-8-21-7-1-4-9" />
    </linearGradient>
    <radialGradient
       gradientTransform="matrix(2.003784,0,0,1.4,27.98813,-17.4)"
       gradientUnits="userSpaceOnUse"
       xlink:href="#linearGradient3688-166-749"
       id="radialGradient3013"
       fy="43.5"
       fx="4.9929786"
       r="2.5"
       cy="43.5"
       cx="4.9929786" />
    <linearGradient
       id="linearGradient3688-166-749">
      <stop
         offset="0"
         style="stop-color:#181818;stop-opacity:1"
         id="stop2883" />
      <stop
         offset="1"
         style="stop-color:#181818;stop-opacity:0"
         id="stop2885" />
    </linearGradient>
    <radialGradient
       gradientTransform="matrix(2.003784,0,0,1.4,-20.01187,-104.4)"
       gradientUnits="userSpaceOnUse"
       xlink:href="#linearGradient3688-464-309"
       id="radialGradient3015"
       fy="43.5"
       fx="4.9929786"
       r="2.5"
       cy="43.5"
       cx="4.9929786" />
    <linearGradient
       id="linearGradient3688-464-309">
      <stop
         offset="0"
         style="stop-color:#181818;stop-opacity:1"
         id="stop2889" />
      <stop
         offset="1"
         style="stop-color:#181818;stop-opacity:0"
         id="stop2891" />
    </linearGradient>
    <linearGradient
       id="linearGradient3702-501-757">
      <stop
         offset="0"
         style="stop-color:#181818;stop-opacity:0"
         id="stop2895" />
      <stop
         offset="0.5"
         style="stop-color:#181818;stop-opacity:1"
         id="stop2897" />
      <stop
         offset="1"
         style="stop-color:#181818;stop-opacity:0"
         id="stop2899" />
    </linearGradient>
    <linearGradient
       gradientUnits="userSpaceOnUse"
       xlink:href="#linearGradient3702-501-757"
       id="linearGradient4387"
       y2="39.999443"
       x2="25.058096"
       y1="47.027729"
       x1="25.058096" />
    <linearGradient
       id="linearGradient3104-8-8-97-4-6-2-0-1-4-0-5-8">
      <stop
         offset="0"
         style="stop-color:#000000;stop-opacity:0.32173914"
         id="stop3106-5-4-3-5-0-1-61-9-2-7-3-3" />
      <stop
         offset="1"
         style="stop-color:#000000;stop-opacity:0.27826086"
         id="stop3108-4-3-7-8-2-4-01-9-9-0-6-4" />
    </linearGradient>
    <linearGradient
       y2="5.1757793"
       x2="-95.837799"
       y1="54.199703"
       x1="-95.837799"
       gradientTransform="matrix(0.80749834,0,0,0.83374395,106.87671,-0.0698511)"
       gradientUnits="userSpaceOnUse"
       id="linearGradient3847"
       xlink:href="#linearGradient3104-8-8-97-4-6-2-0-1-4-0-5-8" />
    <linearGradient
       y2="43"
       x2="23.99999"
       y1="4.999989"
       x1="23.99999"
       gradientTransform="translate(4e-6,1.0000062)"
       gradientUnits="userSpaceOnUse"
       id="linearGradient3850"
       xlink:href="#linearGradient3924-1" />
    <radialGradient
       r="27.5"
       fy="4.3419166"
       fx="31.999998"
       cy="4.3419166"
       cx="31.999998"
       gradientTransform="matrix(0,1.6257921,-1.625792,0,31.059051,-46.134567)"
       gradientUnits="userSpaceOnUse"
       id="radialGradient3857"
       xlink:href="#linearGradient4632-92-3-0-8-1-6" />
  </defs>
  <metadata
     id="metadata4394">
    <rdf:RDF>
      <cc:Work
         rdf:about="">
        <dc:format>image/svg+xml</dc:format>
        <dc:type
           rdf:resource="http://purl.org/dc/dcmitype/StillImage" />
        <dc:title></dc:title>
      </cc:Work>
    </rdf:RDF>
  </metadata>
  <g
     id="g1683"
     transform="matrix(0.19869065,0,0,0.19875882,-4.9495683,8.0426527)"
     style="fill:#808080;fill-opacity:1;stroke:#808080;stroke-width:0.50008577;stroke-miterlimit:4;stroke-dasharray:none;stroke-opacity:1">
    <g
       transform="matrix(0.1562502,0,0,0.1562502,24.89158,-40.214798)"
       id="g975"
       style="fill:#808080;fill-opacity:1;stroke:#808080;stroke-width:3.20054483;stroke-miterlimit:4;stroke-dasharray:none;stroke-opacity:1">
      <path
         inkscape:connector-curvature="0"
         id="path971"
         d="m 253.464,94.869 c -23.658,16.639 -50.471,35.498 -64.838,66.699 -24.954,54.435 51.062,113.812 54.311,116.313 0.755,0.581 1.659,0.871 2.56,0.871 0.957,0 1.915,-0.327 2.693,-0.979 1.509,-1.262 1.937,-3.406 1.031,-5.152 -0.275,-0.53 -27.561,-53.53 -26.547,-91.552 0.359,-13.243 18.892,-28.266 38.512,-44.171 17.97,-14.568 38.34,-31.079 50.258,-50.394 26.164,-42.516 -2.916,-84.322 -3.213,-84.74 -1.155,-1.622 -3.287,-2.209 -5.11,-1.41 -1.821,0.804 -2.83,2.773 -2.414,4.72 0.059,0.277 5.714,27.923 -10.022,56.406 -6.482,11.77 -20.726,21.788 -37.221,33.389 z"
         style="fill:#808080;fill-opacity:1;stroke:#808080;stroke-width:3.20054483;stroke-miterlimit:4;stroke-dasharray:none;stroke-opacity:1" />
      <path
         inkscape:connector-curvature="0"
         id="path973"
         d="m 353.137,113.617 c 1.669,-1.257 2.159,-3.55 1.15,-5.38 -1.011,-1.83 -3.211,-2.637 -5.165,-1.895 -4.019,1.528 -98.416,37.915 -98.416,81.88 0,30.307 12.946,46.317 22.399,58.009 3.708,4.586 6.909,8.546 7.964,11.927 2.97,9.743 -4.066,27.353 -7.025,33.317 -0.853,1.714 -0.435,3.792 1.016,5.044 0.784,0.677 1.763,1.021 2.743,1.021 0.834,0 1.672,-0.248 2.396,-0.752 1.623,-1.128 39.667,-28.026 32.844,-60.433 -2.542,-12.318 -8.595,-21.318 -13.936,-29.26 -8.274,-12.305 -14.25,-21.193 -5.184,-37.609 10.622,-19.148 58.727,-55.505 59.214,-55.869 z"
         style="fill:#808080;fill-opacity:1;stroke:#808080;stroke-width:3.20054483;stroke-miterlimit:4;stroke-dasharray:none;stroke-opacity:1" />
    </g>
    <g
       transform="matrix(0.1562502,0,0,0.1562502,24.89158,-40.214798)"
       id="g989"
       style="fill:#808080;fill-opacity:1;stroke:#808080;stroke-width:3.20054483;stroke-miterlimit:4;stroke-dasharray:none;stroke-opacity:1">
      <path
         inkscape:connector-curvature="0"
         id="path977"
         d="m 107.418,298.236 c -1.618,4.845 -0.854,9.651 2.207,13.903 10.233,14.207 46.48,22.029 102.068,22.029 0.003,0 0.005,0 0.007,0 7.532,0 15.484,-0.148 23.629,-0.44 88.875,-3.181 121.839,-30.869 123.199,-32.046 1.482,-1.283 1.878,-3.419 0.957,-5.147 -0.922,-1.727 -2.909,-2.595 -4.808,-2.072 -31.301,8.546 -89.748,11.58 -130.288,11.58 -45.363,0 -68.465,-3.268 -74.121,-5.681 2.902,-3.985 20.802,-11.101 42.983,-15.464 2.12,-0.416 3.577,-2.374 3.367,-4.524 -0.21,-2.15 -2.016,-3.79 -4.177,-3.79 -13.002,0 -78.207,1.044 -85.023,21.652 z"
         style="fill:#808080;fill-opacity:1;stroke:#808080;stroke-width:3.20054483;stroke-miterlimit:4;stroke-dasharray:none;stroke-opacity:1" />
      <path
         inkscape:connector-curvature="0"
         id="path979"
         d="m 404.812,269.718 c -18.331,0 -35.714,9.188 -36.446,9.577 -1.695,0.908 -2.555,2.852 -2.09,4.72 0.467,1.865 2.144,3.176 4.067,3.178 0.389,0 39.102,0.317 42.608,22.436 3.106,19.082 -36.629,50 -52.202,60.304 -1.682,1.113 -2.335,3.263 -1.554,5.123 0.665,1.583 2.206,2.573 3.868,2.573 0.29,0 0.584,-0.03 0.876,-0.092 3.696,-0.791 90.406,-19.899 81.238,-70.384 -5.593,-30.94 -25.039,-37.435 -40.365,-37.435 z"
         style="fill:#808080;fill-opacity:1;stroke:#808080;stroke-width:3.20054483;stroke-miterlimit:4;stroke-dasharray:none;stroke-opacity:1" />
      <path
         inkscape:connector-curvature="0"
         id="path981"
         d="m 345.347,363.755 c 0.302,-1.617 -0.371,-3.262 -1.717,-4.207 l -20.791,-14.563 c -1.014,-0.71 -2.295,-0.933 -3.485,-0.618 -0.217,0.055 -21.959,5.771 -53.525,9.276 -12.528,1.405 -26.56,2.147 -40.582,2.147 -31.558,0 -52.192,-3.708 -55.197,-6.428 -0.398,-0.764 -0.272,-1.111 -0.201,-1.304 0.546,-1.518 3.472,-3.322 5.358,-4.036 2.083,-0.771 3.206,-3.033 2.558,-5.157 -0.646,-2.127 -2.837,-3.378 -4.999,-2.859 -20.856,5.033 -31.054,12.071 -30.312,20.918 1.318,15.686 37.65,23.737 68.365,25.865 4.417,0.302 9.194,0.455 14.195,0.455 0.003,0 0.005,0 0.008,0 51.074,0 116.55,-16.025 117.204,-16.188 1.599,-0.39 2.818,-1.681 3.121,-3.301 z"
         style="fill:#808080;fill-opacity:1;stroke:#808080;stroke-width:3.20054483;stroke-miterlimit:4;stroke-dasharray:none;stroke-opacity:1" />
      <path
         inkscape:connector-curvature="0"
         id="path983"
         d="m 188.602,397.419 c 1.575,-1.024 2.273,-2.971 1.714,-4.764 -0.557,-1.793 -2.234,-2.971 -4.118,-2.946 -2.795,0.074 -27.349,1.182 -29.068,16.815 -0.52,4.672 0.818,8.941 3.979,12.686 8.816,10.448 32.614,16.658 72.741,18.984 4.747,0.285 9.569,0.428 14.334,0.428 51.015,0 85.373,-15.973 86.812,-16.653 1.395,-0.66 2.315,-2.031 2.397,-3.571 0.082,-1.54 -0.687,-3.001 -2.003,-3.806 l -26.275,-16.04 c -0.912,-0.556 -2.003,-0.74 -3.043,-0.527 -0.166,0.035 -16.849,3.495 -42.026,6.913 -4.764,0.648 -10.73,0.977 -17.73,0.977 -25.15,0 -53.124,-4.109 -58.489,-6.8 -0.078,-0.502 0.021,-1.14 0.775,-1.696 z"
         style="fill:#808080;fill-opacity:1;stroke:#808080;stroke-width:3.20054483;stroke-miterlimit:4;stroke-dasharray:none;stroke-opacity:1" />
      <path
         inkscape:connector-curvature="0"
         id="path985"
         d="m 224.408,486.85 c 116.854,-0.099 179.571,-20.88 191.653,-33.957 4.277,-4.626 4.739,-9.006 4.376,-11.867 -0.898,-7.04 -7.311,-11.35 -8.038,-11.818 -1.754,-1.128 -4.108,-0.833 -5.476,0.745 -1.365,1.578 -1.397,3.884 -0.027,5.461 0.737,0.948 1.163,2.535 -0.992,4.692 -4.83,4.511 -53.545,18.204 -134.656,22.318 -11.111,0.577 -22.765,0.871 -34.636,0.873 -72.623,0 -125.772,-9.948 -132.749,-15.744 2.689,-3.864 21.489,-10.037 41.482,-13.529 2.253,-0.393 3.775,-2.516 3.426,-4.776 -0.349,-2.259 -2.432,-3.814 -4.709,-3.519 -0.564,0.077 -2.478,0.191 -4.694,0.327 -32.988,2.014 -71.109,6.503 -73.098,23.5 -0.604,5.179 0.935,9.881 4.576,13.973 8.909,10.01 34.516,23.319 153.558,23.319 0.002,0.002 0.002,0.002 0.004,0.002 z"
         style="fill:#808080;fill-opacity:1;stroke:#808080;stroke-width:3.20054483;stroke-miterlimit:4;stroke-dasharray:none;stroke-opacity:1" />
      <path
         inkscape:connector-curvature="0"
         id="path987"
         d="m 439.013,456.578 c -1.652,-0.764 -3.604,-0.378 -4.836,0.952 -0.171,0.185 -17.74,18.556 -70.564,29.344 -20.223,4.052 -58.183,6.107 -112.826,6.107 -54.745,0 -106.838,-2.154 -107.357,-2.176 -2.176,-0.106 -4.037,1.476 -4.333,3.618 -0.297,2.14 1.083,4.158 3.184,4.658 0.542,0.128 55.135,12.918 129.779,12.918 35.801,0 70.639,-2.907 103.548,-8.645 61.361,-10.757 65.657,-41.183 65.81,-42.473 0.214,-1.803 -0.756,-3.539 -2.405,-4.303 z"
         style="fill:#808080;fill-opacity:1;stroke:#808080;stroke-width:3.20054483;stroke-miterlimit:4;stroke-dasharray:none;stroke-opacity:1" />
    </g>
    <g
       transform="matrix(0.1562502,0,0,0.1562502,24.89158,-40.214798)"
       id="g991"
       style="fill:#808080;fill-opacity:1;stroke:#808080;stroke-width:3.20054483;stroke-miterlimit:4;stroke-dasharray:none;stroke-opacity:1" />
    <g
       transform="matrix(0.1562502,0,0,0.1562502,24.89158,-40.214798)"
       id="g993"
       style="fill:#808080;fill-opacity:1;stroke:#808080;stroke-width:3.20054483;stroke-miterlimit:4;stroke-dasharray:none;stroke-opacity:1" />
    <g
       transform="matrix(0.1562502,0,0,0.1562502,24.89158,-40.214798)"
       id="g995"
       style="fill:#808080;fill-opacity:1;stroke:#808080;stroke-width:3.20054483;stroke-miterlimit:4;stroke-dasharray:none;stroke-opacity:1" />
    <g
       transform="matrix(0.1562502,0,0,0.1562502,24.89158,-40.214798)"
       id="g997"
       style="fill:#808080;fill-opacity:1;stroke:#808080;stroke-width:3.20054483;stroke-miterlimit:4;stroke-dasharray:none;stroke-opacity:1" />
    <g
       transform="matrix(0.1562502,0,0,0.1562502,24.89158,-40.214798)"
       id="g999"
       style="fill:#808080;fill-opacity:1;stroke:#808080;stroke-width:3.20054483;stroke-miterlimit:4;stroke-dasharray:none;stroke-opacity:1" />
    <g
       transform="matrix(0.1562502,0,0,0.1562502,24.89158,-40.214798)"
       id="g1001"
       style="fill:#808080;fill-opacity:1;stroke:#808080;stroke-width:3.20054483;stroke-miterlimit:4;stroke-dasharray:none;stroke-opacity:1" />
    <g
       transform="matrix(0.1562502,0,0,0.1562502,24.89158,-40.214798)"
       id="g1003"
       style="fill:#808080;fill-opacity:1;stroke:#808080;stroke-width:3.20054483;stroke-miterlimit:4;stroke-dasharray:none;stroke-opacity:1" />
    <g
       transform="matrix(0.1562502,0,0,0.1562502,24.89158,-40.214798)"
       id="g1005"
       style="fill:#808080;fill-opacity:1;stroke:#808080;stroke-width:3.20054483;stroke-miterlimit:4;stroke-dasharray:none;stroke-opacity:1" />
    <g
       transform="matrix(0.1562502,0,0,0.1562502,24.89158,-40.214798)"
       id="g1007"
       style="fill:#808080;fill-opacity:1;stroke:#808080;stroke-width:3.20054483;stroke-miterlimit:4;stroke-dasharray:none;stroke-opacity:1" />
    <g
       transform="matrix(0.1562502,0,0,0.1562502,24.89158,-40.214798)"
       id="g1009"
       style="fill:#808080;fill-opacity:1;stroke:#808080;stroke-width:3.20054483;stroke-miterlimit:4;stroke-dasharray:none;stroke-opacity:1" />
    <g
       transform="matrix(0.1562502,0,0,0.1562502,24.89158,-40.214798)"
       id="g1011"
       style="fill:#808080;fill-opacity:1;stroke:#808080;stroke-width:3.20054483;stroke-miterlimit:4;stroke-dasharray:none;stroke-opacity:1" />
    <g
       transform="matrix(0.1562502,0,0,0.1562502,24.89158,-40.214798)"
       id="g1013"
       style="fill:#808080;fill-opacity:1;stroke:#808080;stroke-width:3.20054483;stroke-miterlimit:4;stroke-dasharray:none;stroke-opacity:1" />
    <g
       transform="matrix(0.1562502,0,0,0.1562502,24.89158,-40.214798)"
       id="g1015"
       style="fill:#808080;fill-opacity:1;stroke:#808080;stroke-width:3.20054483;stroke-miterlimit:4;stroke-dasharray:none;stroke-opacity:1" />
    <g
       transform="matrix(0.1562502,0,0,0.1562502,24.89158,-40.214798)"
       id="g1017"
       style="fill:#808080;fill-opacity:1;stroke:#808080;stroke-width:3.20054483;stroke-miterlimit:4;stroke-dasharray:none;stroke-opacity:1" />
    <g
       transform="matrix(0.1562502,0,0,0.1562502,24.89158,-40.214798)"
       id="g1019"
       style="fill:#808080;fill-opacity:1;stroke:#808080;stroke-width:3.20054483;stroke-miterlimit:4;stroke-dasharray:none;stroke-opacity:1" />
  </g>
</svg>
