<?xml version="1.0" standalone="no"?><!-- Generator: Gravit.io --><svg xmlns="http://www.w3.org/2000/svg" xmlns:xlink="http://www.w3.org/1999/xlink" style="isolation:isolate" viewBox="0 0 16 16" width="16" height="16"><defs><clipPath id="_clipPath_b61Deje1vbWTNzweVC24wzOu6OxaTH4Y"><rect width="16" height="16"/></clipPath></defs><g clip-path="url(#_clipPath_b61Deje1vbWTNzweVC24wzOu6OxaTH4Y)"><rect x="17.094" y="-0.094" width="4.625" height="3.594" transform="matrix(1,0,0,1,0,0)" fill="rgb(128,128,128)"/><g id="disk utility"><path d=" M 5.494 0 C 4.236 0.014 3.315 -0.031 2.563 0.385 C 2.186 0.592 1.889 0.944 1.725 1.383 C 1.56 1.821 1.5 2.342 1.5 3 L 1.5 13 C 1.5 13.658 1.56 14.179 1.725 14.617 C 1.889 15.056 2.186 15.408 2.563 15.615 C 3.315 16.031 4.236 15.985 5.494 16 L 5.498 16 L 10.502 16 L 10.506 16 C 11.764 15.986 12.685 16.031 13.438 15.615 C 13.814 15.408 14.111 15.056 14.276 14.617 C 14.44 14.179 14.5 13.658 14.5 13 L 14.5 3 C 14.5 2.342 14.44 1.821 14.275 1.383 C 14.111 0.944 13.814 0.592 13.438 0.385 C 12.685 -0.031 11.764 0.015 10.506 0 L 10.502 0 L 5.498 0 L 5.494 0 Z  M 5.5 1 L 10.5 1 C 11.759 1.015 12.587 1.06 12.953 1.262 C 13.137 1.363 13.242 1.474 13.34 1.734 C 13.437 1.994 13.5 2.408 13.5 3 L 13.5 13 C 13.5 13.592 13.437 14.006 13.34 14.266 C 13.242 14.526 13.137 14.637 12.953 14.738 C 12.587 14.94 11.759 14.985 10.5 15 L 5.506 15 L 5.5 15 C 4.241 14.985 3.411 14.94 3.045 14.738 C 2.862 14.637 2.758 14.526 2.66 14.266 C 2.563 14.006 2.5 13.592 2.5 13 L 2.5 3 C 2.5 2.408 2.563 1.994 2.66 1.734 C 2.758 1.474 2.862 1.363 3.045 1.262 C 3.411 1.06 4.241 1.015 5.5 1 L 5.5 1 Z " fill="rgb(128,128,128)"/><path d=" M 8.295 5.012 C 7.237 4.942 6.156 5.243 5.262 5.93 C 3.473 7.302 2.974 9.797 4.102 11.75 C 5.229 13.703 7.64 14.521 9.723 13.658 C 11.806 12.795 12.933 10.512 12.35 8.334 L 12.219 7.852 L 11.252 8.111 L 11.383 8.594 C 11.838 10.294 10.966 12.059 9.34 12.732 C 7.713 13.406 5.849 12.775 4.969 11.25 C 4.088 9.725 4.472 7.794 5.869 6.723 C 7.13 5.755 8.851 5.776 10.09 6.703 L 9.445 7.348 L 10.152 8.055 L 10.828 7.379 L 10.83 7.379 L 11.184 7.023 L 11.537 6.672 L 11.184 6.318 C 10.386 5.521 9.353 5.081 8.295 5.012 L 8.295 5.012 Z " fill="rgb(128,128,128)"/><path d=" M 8 8 C 7.172 8 6.5 8.672 6.5 9.5 C 6.5 10.328 7.172 11 8 11 C 8.828 11 9.5 10.328 9.5 9.5 C 9.5 8.672 8.828 8 8 8 Z  M 8 9 C 8.276 9 8.5 9.224 8.5 9.5 C 8.5 9.776 8.276 10 8 10 C 7.724 10 7.5 9.776 7.5 9.5 C 7.5 9.224 7.724 9 8 9 Z " fill="rgb(128,128,128)"/></g></g></svg>