<?xml version="1.0" encoding="UTF-8" standalone="no"?>
<svg
   xmlns:dc="http://purl.org/dc/elements/1.1/"
   xmlns:cc="http://creativecommons.org/ns#"
   xmlns:rdf="http://www.w3.org/1999/02/22-rdf-syntax-ns#"
   xmlns:svg="http://www.w3.org/2000/svg"
   xmlns="http://www.w3.org/2000/svg"
   xmlns:sodipodi="http://sodipodi.sourceforge.net/DTD/sodipodi-0.dtd"
   xmlns:inkscape="http://www.inkscape.org/namespaces/inkscape"
   height="16"
   width="16"
   version="1.1"
   id="svg2"
   sodipodi:docname="clementine-symbolic.svg"
   inkscape:version="0.92.2 (unknown)">
  <metadata
     id="metadata9">
    <rdf:RDF>
      <cc:Work
         rdf:about="">
        <dc:format>image/svg+xml</dc:format>
        <dc:type
           rdf:resource="http://purl.org/dc/dcmitype/StillImage" />
        <dc:title></dc:title>
      </cc:Work>
    </rdf:RDF>
  </metadata>
  <sodipodi:namedview
     pagecolor="#ffffff"
     bordercolor="#666666"
     borderopacity="1"
     objecttolerance="10"
     gridtolerance="10"
     guidetolerance="10"
     inkscape:pageopacity="0"
     inkscape:pageshadow="2"
     inkscape:window-width="1897"
     inkscape:window-height="1000"
     id="namedview7"
     showgrid="false"
     inkscape:zoom="9.8333333"
     inkscape:cx="-6.1525424"
     inkscape:cy="12"
     inkscape:window-x="0"
     inkscape:window-y="34"
     inkscape:window-maximized="0"
     inkscape:current-layer="svg2" />
  <defs
     id="defs10">
    <style
       type="text/css"
       id="current-color-scheme">
   .ColorScheme-Text { color:#5c616c; } .ColorScheme-Highlight { color:#5294e2; } .ColorScheme-ButtonBackground { color:#d3dae3; }
  </style>
  </defs>
  <g
     transform="translate(-268.50442,416.69742)"
     id="g4"
     style="fill:#808080;fill-opacity:1">
    <path
       style="color:#d3dae3;fill:#808080;fill-opacity:1"
       d="m 271.64,-416.36 a 9,9 0 0 0 0,12.727 9,9 0 0 0 12.727,0 l -1.4141,-1.4141 a 7,7 0 0 1 -9.8984,0 7,7 0 0 1 0,-9.8984 l -1.4141,-1.4141 z m 2.1035,2.1738 a 6,6 0 0 0 -1.3945,3.3711 h 4.7656 z m -1.4023,4.3711 a 6,6 0 0 0 1.4023,3.3711 l 3.3711,-3.3711 z m 5.4805,0.70703 -3.3711,3.3711 a 6,6 0 0 0 3.3711,1.3945 z m 1,0 v 4.7734 a 6,6 0 0 0 3.3711,-1.4023 z"
       id="path6"
       class="ColorScheme-ButtonBackground"
       inkscape:connector-curvature="0" />
  </g>
</svg>
