<?xml version="1.0" standalone="no"?><!-- Generator: Gravit.io --><svg xmlns="http://www.w3.org/2000/svg" xmlns:xlink="http://www.w3.org/1999/xlink" style="isolation:isolate" viewBox="0 0 16 16" width="16" height="16"><defs><clipPath id="_clipPath_kWqMVTsuZXa3M9EsWtEmovJe3slu0ozV"><rect width="16" height="16"/></clipPath></defs><g clip-path="url(#_clipPath_kWqMVTsuZXa3M9EsWtEmovJe3slu0ozV)"><rect x="17.094" y="-0.094" width="4.625" height="3.594" transform="matrix(1,0,0,1,0,0)" fill="rgb(128,128,128)"/><g id="phpstorm"><line x1="2" y1="13.25" x2="9.929" y2="13.25" vector-effect="non-scaling-stroke" stroke-width="1.5" stroke="rgb(128,128,128)" stroke-linejoin="miter" stroke-linecap="round" stroke-miterlimit="4"/><path d=" M 2.885 9.569 L 1.453 9.569 L 1.453 1.144 L 4.426 1.144 L 4.426 1.144 Q 5.882 1.144 6.562 1.903 L 6.562 1.903 L 6.562 1.903 Q 7.242 2.661 7.242 3.756 L 7.242 3.756 L 7.242 3.756 Q 7.242 4.791 6.532 5.58 L 6.532 5.58 L 6.532 5.58 Q 5.822 6.368 4.426 6.368 L 4.426 6.368 L 2.885 6.368 L 2.885 9.569 L 2.885 9.569 Z  M 2.885 2.492 L 2.885 5.02 L 4.498 5.02 L 4.498 5.02 Q 5.148 5.02 5.466 4.647 L 5.466 4.647 L 5.466 4.647 Q 5.785 4.274 5.785 3.756 L 5.785 3.756 L 5.785 3.756 Q 5.785 3.263 5.479 2.878 L 5.479 2.878 L 5.479 2.878 Q 5.172 2.492 4.498 2.492 L 4.498 2.492 L 2.885 2.492 L 2.885 2.492 Z  M 11.755 9.714 L 11.755 9.714 L 11.755 9.714 Q 10.732 9.714 9.914 9.124 L 9.914 9.124 L 9.914 9.124 Q 9.095 8.534 8.758 7.547 L 8.758 7.547 L 10.058 7.066 L 10.058 7.066 Q 10.335 7.656 10.822 8.011 L 10.822 8.011 L 10.822 8.011 Q 11.31 8.366 11.875 8.366 L 11.875 8.366 L 11.875 8.366 Q 12.429 8.366 12.766 8.077 L 12.766 8.077 L 12.766 8.077 Q 13.103 7.788 13.103 7.246 L 13.103 7.246 L 13.103 7.246 Q 13.103 6.789 12.646 6.434 L 12.646 6.434 L 12.646 6.434 Q 12.188 6.079 11.37 5.718 L 11.37 5.718 L 11.37 5.718 Q 10.852 5.489 10.539 5.321 L 10.539 5.321 L 10.539 5.321 Q 10.227 5.152 9.835 4.851 L 9.835 4.851 L 9.835 4.851 Q 9.444 4.55 9.252 4.141 L 9.252 4.141 L 9.252 4.141 Q 9.059 3.732 9.059 3.227 L 9.059 3.227 L 9.059 3.227 Q 9.059 2.288 9.775 1.644 L 9.775 1.644 L 9.775 1.644 Q 10.491 1 11.659 1 L 11.659 1 L 11.659 1 Q 12.585 1 13.277 1.505 L 13.277 1.505 L 13.277 1.505 Q 13.97 2.011 14.198 2.793 L 14.198 2.793 L 12.91 3.227 L 12.91 3.227 Q 12.477 2.348 11.574 2.348 L 11.574 2.348 L 11.574 2.348 Q 11.105 2.348 10.804 2.589 L 10.804 2.589 L 10.804 2.589 Q 10.503 2.829 10.503 3.251 L 10.503 3.251 L 10.503 3.251 Q 10.503 3.347 10.527 3.437 L 10.527 3.437 L 10.527 3.437 Q 10.551 3.527 10.612 3.606 L 10.612 3.606 L 10.612 3.606 Q 10.672 3.684 10.726 3.75 L 10.726 3.75 L 10.726 3.75 Q 10.78 3.816 10.894 3.895 L 10.894 3.895 L 10.894 3.895 Q 11.009 3.973 11.087 4.021 L 11.087 4.021 L 11.087 4.021 Q 11.165 4.069 11.322 4.147 L 11.322 4.147 L 11.322 4.147 Q 11.478 4.225 11.562 4.262 L 11.562 4.262 L 11.562 4.262 Q 11.647 4.298 11.839 4.388 L 11.839 4.388 L 11.839 4.388 Q 12.032 4.478 12.116 4.514 L 12.116 4.514 L 12.116 4.514 Q 12.622 4.743 12.959 4.942 L 12.959 4.942 L 12.959 4.942 Q 13.296 5.14 13.705 5.465 L 13.705 5.465 L 13.705 5.465 Q 14.114 5.79 14.331 6.235 L 14.331 6.235 L 14.331 6.235 Q 14.547 6.681 14.547 7.21 L 14.547 7.21 L 14.547 7.21 Q 14.547 8.366 13.735 9.04 L 13.735 9.04 L 13.735 9.04 Q 12.922 9.714 11.755 9.714 Z " fill-rule="evenodd" fill="rgb(128,128,128)" vector-effect="non-scaling-stroke" stroke-width="1.3" stroke="rgb(128,128,128)" stroke-linejoin="round" stroke-linecap="round" stroke-miterlimit="3"/></g></g></svg>