<?xml version="1.0" encoding="UTF-8" standalone="no"?>
<svg
   xmlns:dc="http://purl.org/dc/elements/1.1/"
   xmlns:cc="http://creativecommons.org/ns#"
   xmlns:rdf="http://www.w3.org/1999/02/22-rdf-syntax-ns#"
   xmlns:svg="http://www.w3.org/2000/svg"
   xmlns="http://www.w3.org/2000/svg"
   xmlns:sodipodi="http://sodipodi.sourceforge.net/DTD/sodipodi-0.dtd"
   xmlns:inkscape="http://www.inkscape.org/namespaces/inkscape"
   width="16"
   height="16"
   viewBox="0 0 16 16"
   version="1.1"
   id="svg7"
   sodipodi:docname="pinegrow-web-editor-symbolic.svg"
   inkscape:version="0.92.3 (2405546, 2018-03-11)">
  <metadata
     id="metadata11">
    <rdf:RDF>
      <cc:Work
         rdf:about="">
        <dc:format>image/svg+xml</dc:format>
        <dc:type
           rdf:resource="http://purl.org/dc/dcmitype/StillImage" />
        <dc:title></dc:title>
      </cc:Work>
    </rdf:RDF>
  </metadata>
  <sodipodi:namedview
     pagecolor="#ffffff"
     bordercolor="#666666"
     borderopacity="1"
     objecttolerance="10"
     gridtolerance="10"
     guidetolerance="10"
     inkscape:pageopacity="0"
     inkscape:pageshadow="2"
     inkscape:window-width="1483"
     inkscape:window-height="915"
     id="namedview9"
     showgrid="false"
     inkscape:zoom="14.75"
     inkscape:cx="-8.7895788"
     inkscape:cy="8"
     inkscape:window-x="0"
     inkscape:window-y="34"
     inkscape:window-maximized="0"
     inkscape:current-layer="svg7" />
  <defs
     id="defs3">
    <style
       type="text/css"
       id="current-color-scheme">
   .ColorScheme-Text { color:#5c616c; } .ColorScheme-Highlight { color:#5294e2; } .ColorScheme-ButtonBackground { color:#d3dae3; }
  </style>
    <clipPath
       id="_clip1">
      <rect
         x="0"
         y="-0.003"
         width="35.021999"
         height="36.110001"
         id="rect19" />
    </clipPath>
  </defs>
  <g
     id="g28"
     style="clip-rule:evenodd;fill:#808080;fill-opacity:1;fill-rule:evenodd;stroke-linejoin:round;stroke-miterlimit:1.41420996"
     transform="matrix(0.44315191,0,0,0.44315191,0.3,2.8945e-7)">
    <g
       id="g26"
       style="opacity:0.89999402;fill:#808080;fill-opacity:1">
      <clipPath
         id="clipPath873">
        <rect
           x="0"
           y="-0.003"
           width="35.021999"
           height="36.110001"
           id="rect871" />
      </clipPath>
      <g
         clip-path="url(#_clip1)"
         id="g24"
         style="fill:#808080;fill-opacity:1">
        <path
           inkscape:connector-curvature="0"
           d="m 32.959,23.102 -2.029,2.444 c -0.318,0.389 -1.073,0.543 -1.521,0.313 l -6.088,-3.13 c -0.015,-0.01 -0.028,-0.017 -0.041,-0.023 0.013,-0.01 0.026,-0.016 0.041,-0.022 l 5.168,-2.774 c 0.538,-0.287 1.623,-0.287 2.163,-0.003 l 0.564,0.3 c 0.707,0.375 1.641,1.124 2.002,1.605 0.153,0.205 0.129,0.822 -0.259,1.29 m -8.532,10.292 c -0.315,0.384 -1.043,0.521 -1.479,0.284 l -0.264,-0.145 -0.992,-0.551 c -0.074,-0.037 -0.121,-0.076 -0.15,-0.101 0.029,-0.031 0.075,-0.067 0.142,-0.111 l 6.691,-4.128 z m -11.74,0.993 c -0.669,0 -1.673,-0.474 -2.103,-0.993 L 8.759,31.195 C 8.643,31.049 8.592,30.895 8.62,30.756 8.646,30.617 8.751,30.492 8.915,30.407 l 1.214,-0.653 c 0.264,-0.139 0.647,-0.223 1.058,-0.223 0.414,0 0.822,0.09 1.088,0.236 l 8.388,4.62 z m -8.903,-9.197 5.53,2.968 c 0.028,0.016 0.051,0.029 0.07,0.039 -0.019,0.013 -0.042,0.027 -0.07,0.039 l -1.212,0.651 c -0.149,0.078 -0.331,0.121 -0.529,0.121 -0.379,0 -0.76,-0.16 -0.969,-0.411 z M 2.017,21.516 5.668,16.648 c 0.291,-0.39 0.995,-0.555 1.431,-0.327 l 3.047,1.567 c 0.018,0.009 0.033,0.016 0.045,0.024 -0.012,0.009 -0.027,0.019 -0.045,0.025 l -7.019,3.786 c -0.405,0.218 -0.918,0.357 -1.311,0.357 -0.031,0 -0.056,0 -0.082,-0.005 0.031,-0.129 0.111,-0.332 0.283,-0.559 m 5.674,-7.569 2.788,-3.713 c 0.195,-0.258 0.558,-0.426 0.927,-0.426 0.177,0 0.345,0.037 0.485,0.112 l 2.513,1.339 h 10e-4 l 4.04,2.151 c 0.005,0 0.008,0.003 0.012,0.006 0.022,0.009 0.041,0.024 0.055,0.033 -0.016,0.01 -0.037,0.024 -0.061,0.035 l -5.325,2.854 c -0.276,0.145 -0.694,0.233 -1.12,0.233 -0.417,0 -0.806,-0.078 -1.072,-0.213 L 7.887,14.788 C 7.716,14.703 7.604,14.57 7.568,14.418 7.534,14.267 7.578,14.102 7.691,13.947 m 4.834,-6.371 c 1.877,-2.371 4.196,-5.078 5.032,-5.765 0.504,0.355 1.576,1.45 2.496,2.573 0.119,0.144 0.168,0.3 0.138,0.441 -0.026,0.139 -0.133,0.259 -0.295,0.351 l -5.88,3.125 C 13.483,8.459 12.777,8.442 12.465,8.278 12.394,8.238 12.356,8.191 12.341,8.116 12.315,8.001 12.352,7.796 12.525,7.576 m 11.587,2.1 c 0.116,0.155 0.16,0.326 0.126,0.482 -0.035,0.16 -0.146,0.296 -0.317,0.389 l -2.5,1.339 c -0.535,0.29 -1.618,0.29 -2.158,0.006 L 19.261,11.889 15.212,9.735 C 15.188,9.725 15.167,9.713 15.148,9.7 15.167,9.69 15.19,9.676 15.212,9.663 L 20.71,6.701 c 0.425,-0.23 1.114,-0.075 1.404,0.311 z m 5.993,7.987 -1.613,-0.86 c -0.005,0 -0.005,0 -0.006,-0.004 L 22.241,13.478 C 22.24,13.476 22.237,13.476 22.232,13.476 22.21,13.462 22.19,13.453 22.175,13.44 c 0.015,-0.01 0.037,-0.024 0.062,-0.037 l 2.497,-1.34 c 0.426,-0.226 1.117,-0.071 1.407,0.31 z M 21.388,21.4 c -0.413,0 -0.803,-0.078 -1.07,-0.218 l -6.379,-3.28 c -0.015,-0.008 -0.029,-0.014 -0.043,-0.024 0.014,-0.004 0.028,-0.014 0.043,-0.023 l 5.324,-2.853 c 0.538,-0.286 1.622,-0.29 2.163,-0.006 h 0.004 l 6.26,3.335 c 0.02,0.006 0.034,0.015 0.05,0.025 -0.02,0.013 -0.042,0.024 -0.064,0.037 l -5.169,2.772 C 22.232,21.312 21.813,21.4 21.388,21.4 m 6.265,5.491 c 0.05,0.03 0.093,0.056 0.122,0.077 -0.028,0.025 -0.065,0.056 -0.118,0.088 l -6.876,4.248 c -0.498,0.309 -1.535,0.333 -2.049,0.048 l -5.627,-3.096 c -0.032,-0.017 -0.06,-0.032 -0.081,-0.049 0.023,-0.014 0.049,-0.029 0.081,-0.049 l 7.239,-3.879 c 0.541,-0.29 1.644,-0.297 2.189,-0.019 l 2.262,1.163 z M 3.938,23.315 C 3.914,23.307 3.889,23.293 3.872,23.28 3.893,23.267 3.916,23.253 3.942,23.237 l 7.021,-3.782 c 0.538,-0.291 1.644,-0.301 2.186,-0.02 l 6.38,3.281 c 0.016,0.006 0.029,0.013 0.043,0.023 -0.014,0.003 -0.027,0.012 -0.043,0.023 l -7.236,3.878 c -0.54,0.292 -1.625,0.292 -2.164,0 z m 30.659,-2.538 c -0.291,-0.386 -0.787,-0.848 -1.326,-1.269 0,-0.495 -0.333,-0.94 -0.48,-1.139 L 27.518,11.341 C 27.135,10.834 26.574,10.477 25.942,10.323 26.014,9.739 25.86,9.136 25.49,8.641 l -2,-2.665 C 23.105,5.46 22.537,5.105 21.897,4.949 21.952,4.37 21.782,3.776 21.383,3.291 18.684,0 17.796,0 17.507,0 17.091,0 16.321,0 11.175,6.507 10.775,7.015 10.591,7.616 10.631,8.189 10.019,8.354 9.474,8.703 9.1,9.202 l -2.785,3.712 c -0.37,0.496 -0.521,1.092 -0.451,1.673 -0.633,0.161 -1.192,0.517 -1.575,1.029 l -3.651,4.867 c -0.52,0.693 -0.737,1.462 -0.596,2.101 0.032,0.143 0.085,0.27 0.148,0.389 -0.034,0.528 0.352,1.004 0.538,1.227 l 4.551,5.494 c 0.404,0.485 0.986,0.824 1.63,0.966 -0.045,0.574 0.131,1.157 0.528,1.633 l 1.823,2.2 c 0.762,0.921 2.235,1.612 3.427,1.612 h 9.635 c 0.884,0 1.292,-0.294 1.48,-0.616 0.768,-0.079 1.48,-0.429 1.952,-0.992 l 4.361,-5.255 c 0.326,-0.393 0.815,-1.088 0.883,-1.747 0.492,-0.176 0.938,-0.459 1.26,-0.848 L 34.282,24.2 c 0.85,-1.023 0.986,-2.526 0.315,-3.423"
           style="fill:#808080;fill-opacity:1;fill-rule:nonzero"
           id="path22" />
      </g>
    </g>
  </g>
</svg>
