<?xml version="1.0" encoding="UTF-8" standalone="no"?>
<svg
   xmlns:dc="http://purl.org/dc/elements/1.1/"
   xmlns:cc="http://creativecommons.org/ns#"
   xmlns:rdf="http://www.w3.org/1999/02/22-rdf-syntax-ns#"
   xmlns:svg="http://www.w3.org/2000/svg"
   xmlns="http://www.w3.org/2000/svg"
   xmlns:sodipodi="http://sodipodi.sourceforge.net/DTD/sodipodi-0.dtd"
   xmlns:inkscape="http://www.inkscape.org/namespaces/inkscape"
   height="16"
   width="16"
   version="1.1"
   id="svg6"
   sodipodi:docname="polly-symbolic.svg"
   inkscape:version="0.92.3 (unknown)">
  <metadata
     id="metadata12">
    <rdf:RDF>
      <cc:Work
         rdf:about="">
        <dc:format>image/svg+xml</dc:format>
        <dc:type
           rdf:resource="http://purl.org/dc/dcmitype/StillImage" />
        <dc:title></dc:title>
      </cc:Work>
    </rdf:RDF>
  </metadata>
  <defs
     id="defs10" />
  <sodipodi:namedview
     pagecolor="#ffffff"
     bordercolor="#666666"
     borderopacity="1"
     objecttolerance="10"
     gridtolerance="10"
     guidetolerance="10"
     inkscape:pageopacity="0"
     inkscape:pageshadow="2"
     inkscape:window-width="1125"
     inkscape:window-height="809"
     id="namedview8"
     showgrid="false"
     inkscape:zoom="14.75"
     inkscape:cx="7.7112931"
     inkscape:cy="8"
     inkscape:window-x="0"
     inkscape:window-y="34"
     inkscape:window-maximized="0"
     inkscape:current-layer="g4" />
  <g
     color="#bebebe"
     transform="translate(-1088 -74)"
     id="g4">
    <path
       d="m 1096,74 c -4.412,0 -8,3.588 -8,8 0,4.412 3.588,8 8,8 4.412,0 8,-3.588 8,-8 0,-4.412 -3.588,-8 -8,-8 z m 0,1 c 3.872,0 7,3.128 7,7 0,3.872 -3.128,7 -7,7 -3.872,0 -7,-3.128 -7,-7 0,-3.872 3.128,-7 7,-7 z m 2.022,3.496 c -6.6813,7.669333 -3.3407,3.834667 0,0 z m -3.0983,5.368407 1.0848,2.694915 1.339,-2.627119 z"
       overflow="visible"
       style="overflow:visible;fill:#666666;marker:none"
       id="path2"
       inkscape:connector-curvature="0"
       sodipodi:nodetypes="sssssssssscccccc" />
    <g
       id="g828"
       transform="translate(-0.36437988)">
      <circle
         r="1.5"
         cy="80.364403"
         cx="1093.3644"
         id="path822"
         style="opacity:1;fill:#666666;fill-opacity:1;stroke:none;stroke-width:9.52991199;stroke-miterlimit:4;stroke-dasharray:none;stroke-opacity:1" />
      <circle
         style="opacity:1;fill:#666666;fill-opacity:1;stroke:none;stroke-width:9.52991199;stroke-miterlimit:4;stroke-dasharray:none;stroke-opacity:1"
         id="circle824"
         cx="1099.3644"
         cy="80.364403"
         r="1.5" />
    </g>
  </g>
</svg>
