<?xml version="1.0" encoding="UTF-8" standalone="no"?>
<!-- Created with Inkscape (http://www.inkscape.org/) -->

<svg
   xmlns:dc="http://purl.org/dc/elements/1.1/"
   xmlns:cc="http://creativecommons.org/ns#"
   xmlns:rdf="http://www.w3.org/1999/02/22-rdf-syntax-ns#"
   xmlns:svg="http://www.w3.org/2000/svg"
   xmlns="http://www.w3.org/2000/svg"
   xmlns:sodipodi="http://sodipodi.sourceforge.net/DTD/sodipodi-0.dtd"
   xmlns:inkscape="http://www.inkscape.org/namespaces/inkscape"
   id="svg7384"
   height="16"
   width="16"
   version="1.1"
   sodipodi:docname="sweeper-symbolic.svg"
   inkscape:version="0.92.3 (2405546, 2018-03-11)">
  <defs
     id="defs967" />
  <sodipodi:namedview
     pagecolor="#ffffff"
     bordercolor="#666666"
     borderopacity="1"
     objecttolerance="10"
     gridtolerance="10"
     guidetolerance="10"
     inkscape:pageopacity="0"
     inkscape:pageshadow="2"
     inkscape:window-width="1342"
     inkscape:window-height="938"
     id="namedview965"
     showgrid="false"
     inkscape:zoom="14.75"
     inkscape:cx="8"
     inkscape:cy="8"
     inkscape:window-x="0"
     inkscape:window-y="34"
     inkscape:window-maximized="0"
     inkscape:current-layer="layer12" />
  <metadata
     id="metadata90">
    <rdf:RDF>
      <cc:Work
         rdf:about="">
        <dc:format>image/svg+xml</dc:format>
        <dc:type
           rdf:resource="http://purl.org/dc/dcmitype/StillImage" />
        <dc:title>Gnome Symbolic Icon Theme</dc:title>
      </cc:Work>
    </rdf:RDF>
  </metadata>
  <title
     id="title9167">Gnome Symbolic Icon Theme</title>
  <g
     id="layer12"
     transform="translate(-241 -767)">
    <path
       id="path36048"
       style="color-rendering:auto;text-decoration-color:#000000;color:#000000;shape-rendering:auto;solid-color:#000000;text-decoration-line:none;fill:#808080;mix-blend-mode:normal;block-progression:tb;text-indent:0;image-rendering:auto;white-space:normal;text-decoration-style:solid;isolation:auto;enable-background:new;text-transform:none;fill-opacity:1"
       d="m252.09 767.05a1.0001 1.0001 0 0 0 -0.88672 0.50391l-3.3125 5.625a1.0001 1.0001 0 1 0 1.7227 1.0156l3.3125-5.625a1.0001 1.0001 0 0 0 -0.83594 -1.5195z" />
    <path
       id="path36050"
       style="color:#000000;enable-background:new;fill:#808080;fill-opacity:1"
       d="m246.22 772.09 4.9474 3.0538c0.60355 0.31472 0.81997 1.1131 0.16464 1.597l-0.62186 0.21653-6.0192-3.5214 0.0177-0.90733c0.28883-0.58524 0.75466-0.81586 1.5113-0.43864z" />
    <path
       id="path9831"
       style="color-rendering:auto;color:#000000;shape-rendering:auto;solid-color:#000000;fill:#808080;mix-blend-mode:normal;image-rendering:auto;isolation:auto;paint-order:normal;fill-opacity:1"
       d="m244.05 774.49 5.9899 3.4746-1.0446 1.5421c-0.22097 0.24307-0.13258 0.57452 0.0884 0.7071l0.95017 0.81759h-5.3696c-2.1905 0-3.1968-2.0645-2.1434-3.8891z" />
  </g>
</svg>
