<svg xmlns="http://www.w3.org/2000/svg" xmlns:xlink="http://www.w3.org/1999/xlink" width="16" height="16" version="1.1" viewBox="0 0 16 16">
 <defs>
  <linearGradient id="linearGradient4947">
   <stop offset="0" style="stop-color:#dbdee0"/>
   <stop offset="1" style="stop-color:#dbdee0;stop-opacity:0"/>
  </linearGradient>
  <linearGradient id="linearGradient3768">
   <stop offset="0" style="stop-color:#dbdee0"/>
   <stop offset="1" style="stop-color:#dbdee0;stop-opacity:0"/>
  </linearGradient>
  <linearGradient id="linearGradient3816" x1="5.875" x2="3.875" y1="31.125" y2="4.125" gradientTransform="matrix(0.8660254,0.49999999,0.49999999,-0.8660254,467.65344,408.56305)" gradientUnits="userSpaceOnUse" xlink:href="#linearGradient3768"/>
  <linearGradient id="linearGradient3819" x1="12" x2="23" y1="6" y2="10" gradientTransform="matrix(-0.8660254,-0.49999999,0.49999999,-0.8660254,488.3923,420.3923)" gradientUnits="userSpaceOnUse" xlink:href="#linearGradient4947"/>
 </defs>
 <g transform="translate(-476.00351,-395.99646)">
  <g transform="matrix(1.0004414,0,0,1.0004414,-0.21012652,-0.18187131)">
   <path style="fill:url(#linearGradient3819)" d="m 480,410.92821 c 3.81608,2.20321 8.72499,0.88788 10.92821,-2.92821 2.2032,-3.81608 0.88787,-8.72499 -2.92821,-10.9282 l -1,1.73205 c 2.88001,1.66278 3.85892,5.31613 2.19615,8.19615 -1.66278,2.88002 -5.31614,3.85893 -8.19615,2.19616 -0.47829,-0.27615 -1.08988,-0.11227 -1.36602,0.36602 -0.27616,0.47829 -0.11227,1.08988 0.36602,1.36603 z"/>
   <path style="fill:url(#linearGradient3816)" d="m 480,410.92821 c -3.81609,-2.20323 -5.13143,-7.11213 -2.9282,-10.92821 2.20321,-3.81608 7.11211,-5.13142 10.9282,-2.9282 l -1,1.73205 c -2.88002,-1.66278 -6.53337,-0.68386 -8.19616,2.19615 -1.66278,2.88002 -0.68386,6.53337 2.19616,8.19616 z"/>
  </g>
  <rect style="fill:none" width="22" height="22" x="473" y="393"/>
 </g>
</svg>
