<?xml version="1.0" standalone="no"?><!-- Generator: Gravit.io --><svg xmlns="http://www.w3.org/2000/svg" xmlns:xlink="http://www.w3.org/1999/xlink" style="isolation:isolate" viewBox="0 0 256 256" width="256" height="256"><defs><filter id="DERHafmoJmxyZoPdJ71GVweLgSIJUf20" x="-7.324" y="2.947" width="270.648" height="254.338" filterUnits="userSpaceOnUse"><feGaussianBlur xmlns="http://www.w3.org/2000/svg" in="SourceGraphic" stdDeviation="4.293609062839028"/><feOffset xmlns="http://www.w3.org/2000/svg" dx="0" dy="4" result="pf_100_offsetBlur"/><feFlood xmlns="http://www.w3.org/2000/svg" flood-color="#000000" flood-opacity="0.4"/><feComposite xmlns="http://www.w3.org/2000/svg" in2="pf_100_offsetBlur" operator="in" result="pf_100_dropShadow"/><feBlend xmlns="http://www.w3.org/2000/svg" in="SourceGraphic" in2="pf_100_dropShadow" mode="normal"/></filter></defs><g filter="url(#DERHafmoJmxyZoPdJ71GVweLgSIJUf20)"><linearGradient id="_lgradient_207" x1="0.5333333724703392" y1="1.0000002165041373" x2="0.5333333724703393" y2="2.2577342750906837e-7" gradientTransform="matrix(244.648,0,0,228.338,5.676,11.947)" gradientUnits="userSpaceOnUse"><stop offset="0%" stop-opacity="1" style="stop-color:rgb(138,194,73)"/><stop offset="100%" stop-opacity="1" style="stop-color:rgb(170,233,97)"/></linearGradient><path d=" M 165.685 11.947 C 239.74 11.947 250.324 22.504 250.324 96.491 L 250.324 155.742 C 250.324 229.728 239.74 240.285 165.685 240.285 L 90.315 240.285 C 16.26 240.285 5.676 229.728 5.676 155.742 L 5.676 96.491 C 5.676 22.504 16.26 11.947 90.315 11.947 L 165.685 11.947 Z " id="shape" fill="url(#_lgradient_207)"/></g><g opacity="0.4"><linearGradient id="_lgradient_208" x1="0.5166666666666668" y1="0" x2="0.5166666666666666" y2="1.0000000000000002"><stop offset="0%" stop-opacity="1" style="stop-color:rgb(255,255,255)"/><stop offset="12.5%" stop-opacity="0.09803922" style="stop-color:rgb(255,255,255)"/><stop offset="92.500001%" stop-opacity="0.09803922" style="stop-color:rgb(0,0,0)"/><stop offset="100%" stop-opacity="0.49803922" style="stop-color:rgb(0,0,0)"/></linearGradient><path d=" M 165.685 11.947 C 239.74 11.947 250.324 22.504 250.324 96.491 L 250.324 155.742 C 250.324 229.728 239.74 240.285 165.685 240.285 L 90.315 240.285 C 16.26 240.285 5.676 229.728 5.676 155.742 L 5.676 96.491 C 5.676 22.504 16.26 11.947 90.315 11.947 L 165.685 11.947 Z " id="highlight" fill="none" vector-effect="non-scaling-stroke" stroke-width="4.077" stroke="url(#_lgradient_208)" stroke-linejoin="round" stroke-linecap="round" stroke-miterlimit="4"/></g><g id="Group"><path d=" M 71.696 36.731 C 59.639 36.731 49.897 41.117 42.492 49.889 C 34.043 59.884 29.816 73.43 29.816 90.565 C 29.816 103.314 32.261 114.397 37.197 123.78 C 44.697 137.753 56.222 144.72 71.696 144.72 C 75.039 159.651 84.262 167.505 105.954 164.215 L 105.954 153.384 C 95.856 154.315 93.663 148.765 92.876 138.943 L 92.876 138.301 C 95.914 136.363 98.672 133.958 101.14 131 C 109.209 121.311 113.255 107.802 113.255 90.565 C 113.255 77.714 110.679 66.653 105.553 57.27 C 97.958 43.603 86.695 36.731 71.696 36.731 Z  M 152.968 41.064 L 137.725 41.465 L 132.67 65.373 L 121.839 65.373 L 121.839 83.264 L 131.788 83.264 L 131.788 117.522 C 131.788 126.905 133.126 133.485 135.719 137.258 C 138.984 142.256 145.919 144.72 156.578 144.72 C 160.132 144.72 164.534 144.237 169.816 143.115 L 169.816 126.106 C 166.167 126.31 163.457 126.427 161.633 126.427 C 158.656 126.427 156.543 125.923 155.295 124.903 C 153.758 123.679 152.968 120.514 152.968 115.516 L 152.968 83.264 L 168.693 83.264 L 168.693 65.373 L 152.968 65.373 L 152.968 41.064 Z  M 71.696 56.788 C 83.468 56.789 89.346 68.083 89.346 90.725 C 89.346 113.368 83.468 124.743 71.696 124.743 C 59.734 124.743 53.725 113.309 53.725 90.565 C 53.725 89.647 53.725 88.755 53.725 87.837 C 54.294 67.133 60.304 56.789 71.696 56.788 Z " id="path3665" fill="rgb(255,255,255)"/><g id="g4059"><path d=" M 178.155 205.554 L 141.856 222.494 L 158.795 186.195 L 162.425 182.565 L 181.785 201.924 L 178.155 205.554 Z " id="path4112" fill="rgb(254,225,194)"/><path d=" M 147.244 210.942 L 141.856 222.494 L 153.407 217.105 C 153.407 217.105 154.55 216.433 153.95 215.833 C 153.351 215.234 151.546 215.849 151.546 215.849 C 151.546 215.849 152.746 214.024 151.542 212.82 C 150.339 211.617 148.513 212.816 148.513 212.816 C 148.513 212.816 149.116 210.999 148.511 210.394 C 147.906 209.789 147.244 210.942 147.244 210.942 Z " id="rect4114" fill="rgb(93,93,93)"/><linearGradient id="_lgradient_209" x1="3.12500047172648e-7" y1="1.2199267937888805" x2="0.9999995312499248" y2="1.2199267937888805" gradientTransform="matrix(19.359,19.359,-63.409,63.409,219.785,125.205)" gradientUnits="userSpaceOnUse"><stop offset="0%" stop-opacity="1" style="stop-color:rgb(88,132,244)"/><stop offset="27.800092%" stop-opacity="1" style="stop-color:rgb(88,132,244)"/><stop offset="27.800092%" stop-opacity="1" style="stop-color:rgb(47,95,221)"/><stop offset="70.735365%" stop-opacity="1" style="stop-color:rgb(47,95,221)"/><stop offset="70.93607800000001%" stop-opacity="1" style="stop-color:rgb(35,77,184)"/><stop offset="100%" stop-opacity="1" style="stop-color:rgb(35,77,184)"/></linearGradient><path d=" M 158.795 186.195 C 161.215 183.775 165.45 190.429 161.82 194.059 C 167.87 188.009 176.34 196.479 170.29 202.529 C 173.92 198.899 180.575 203.134 178.155 205.554 L 239.144 144.565 L 219.785 125.205 L 158.795 186.195 Z " id="path4092" fill="url(#_lgradient_209)"/></g></g></svg>