<?xml version="1.0" standalone="no"?><!-- Generator: Gravit.io --><svg xmlns="http://www.w3.org/2000/svg" xmlns:xlink="http://www.w3.org/1999/xlink" style="isolation:isolate" viewBox="0 0 256 256" width="256" height="256"><g id="Group" filter="url(#Nv8vWyLmrOKKXTmzmqyJb3BkNa8vcFlf)"><linearGradient id="_lgradient_259" x1="0.533" y1="1" x2="0.5330000000000001" y2="0" gradientTransform="matrix(244.648,0,0,228.338,5.676,11.947)" gradientUnits="userSpaceOnUse"><stop offset="0%" stop-opacity="100" style="stop-color:rgb(138,194,73)"/><stop offset="100%" stop-opacity="100" style="stop-color:rgb(170,233,97)"/></linearGradient><path d=" M 165.685 11.947 C 239.74 11.947 250.324 22.504 250.324 96.491 L 250.324 155.742 C 250.324 229.728 239.74 240.285 165.685 240.285 L 90.315 240.285 C 16.26 240.285 5.676 229.728 5.676 155.742 L 5.676 96.491 C 5.676 22.504 16.26 11.947 90.315 11.947 L 165.685 11.947 L 165.685 11.947 Z " id="Path" fill="url(#_lgradient_259)"/></g><defs><filter id="Nv8vWyLmrOKKXTmzmqyJb3BkNa8vcFlf" x="-200%" y="-200%" width="400%" height="400%" filterUnits="objectBoundingBox" color-interpolation-filters="sRGB"><feGaussianBlur xmlns="http://www.w3.org/2000/svg" in="SourceGraphic" stdDeviation="4.294"/><feOffset xmlns="http://www.w3.org/2000/svg" dx="0" dy="4" result="pf_100_offsetBlur"/><feFlood xmlns="http://www.w3.org/2000/svg" flood-color="#000000" flood-opacity="0.4"/><feComposite xmlns="http://www.w3.org/2000/svg" in2="pf_100_offsetBlur" operator="in" result="pf_100_dropShadow"/><feBlend xmlns="http://www.w3.org/2000/svg" in="SourceGraphic" in2="pf_100_dropShadow" mode="normal"/></filter></defs><g id="Group"><path d=" M 71.696 36.731 C 59.639 36.731 49.897 41.117 42.492 49.889 C 34.043 59.884 29.816 73.43 29.816 90.565 C 29.816 103.314 32.261 114.397 37.197 123.78 C 44.697 137.753 56.222 144.72 71.696 144.72 C 75.039 159.651 84.262 167.505 105.954 164.215 L 105.954 153.384 C 95.856 154.315 93.663 148.765 92.876 138.943 L 92.876 138.301 C 95.914 136.363 98.672 133.958 101.14 131 C 109.209 121.311 113.255 107.802 113.255 90.565 C 113.255 77.714 110.679 66.653 105.553 57.27 C 97.958 43.603 86.695 36.731 71.696 36.731 Z  M 152.968 41.064 L 137.725 41.465 L 132.67 65.373 L 121.839 65.373 L 121.839 83.264 L 131.788 83.264 L 131.788 117.522 C 131.788 126.905 133.126 133.485 135.719 137.258 C 138.984 142.256 145.919 144.72 156.578 144.72 C 160.132 144.72 164.534 144.237 169.816 143.115 L 169.816 126.106 C 166.167 126.31 163.457 126.427 161.633 126.427 C 158.656 126.427 156.543 125.923 155.295 124.903 C 153.758 123.679 152.968 120.514 152.968 115.516 L 152.968 83.264 L 168.693 83.264 L 168.693 65.373 L 152.968 65.373 L 152.968 41.064 L 152.968 41.064 Z  M 71.696 56.788 C 83.468 56.789 89.346 68.083 89.346 90.725 C 89.346 113.368 83.468 124.743 71.696 124.743 C 59.734 124.743 53.725 113.309 53.725 90.565 C 53.725 89.647 53.725 88.755 53.725 87.837 C 54.294 67.133 60.304 56.789 71.696 56.788 Z " id="Compound Path" fill="rgb(255,255,255)"/><g id="Group"><g opacity="0.1"><path d=" M 144.776 158.356 C 140.401 158.302 137.461 159.284 135.953 161.094 C 134.369 162.98 133.557 166.074 133.557 170.374 L 133.557 208.07 L 133.557 209.578 C 133.557 213.878 134.369 216.971 135.953 218.857 C 137.461 220.668 140.401 221.596 144.776 221.596 L 155.167 221.596 L 168.87 231.269 L 182.574 221.596 L 220.257 221.596 C 224.632 221.596 227.571 220.668 229.08 218.857 C 230.664 216.971 231.476 213.878 231.476 209.578 L 231.476 186.356 L 231.476 170.374 C 231.476 166.074 230.664 162.98 229.08 161.094 C 227.571 159.284 224.632 158.356 220.257 158.356 L 212.955 158.356 L 164.642 158.356 L 144.776 158.356 L 144.776 158.356 Z " id="Path" fill="rgb(0,0,0)"/></g><linearGradient id="_lgradient_260" x1="0.631" y1="0.7750144167271236" x2="0.6360000000000001" y2="0.42694538007437816" gradientTransform="matrix(97.919,0,0,53.757,133.557,176.9)" gradientUnits="userSpaceOnUse"><stop offset="0%" stop-opacity="0.996" style="stop-color:rgb(224,243,210)"/><stop offset="100%" stop-opacity="100" style="stop-color:rgb(242,247,238)"/></linearGradient><path d=" M 133.557 176.9 L 133.557 208.966 C 133.557 213.266 134.368 216.359 135.952 218.245 C 137.461 220.056 140.401 220.984 144.776 220.984 L 155.167 220.984 L 168.87 230.657 L 182.574 220.984 L 220.257 220.984 C 224.632 220.984 227.572 220.056 229.081 218.245 C 230.665 216.359 231.476 213.266 231.476 208.966 L 231.476 176.9 L 133.557 176.9 L 133.557 176.9 Z " id="Path" fill="url(#_lgradient_260)"/><linearGradient id="_lgradient_261" x1="0.361" y1="0.010001218854292393" x2="0.3609999999999998" y2="0.9670000406284758" gradientTransform="matrix(97.919,0,0,73.34309,133.557,157.31391)" gradientUnits="userSpaceOnUse"><stop offset="0%" stop-opacity="100" style="stop-color:rgb(251,253,251)"/><stop offset="100%" stop-opacity="100" style="stop-color:rgb(227,240,223)"/></linearGradient><path d=" M 144.776 157.316 C 140.401 157.261 137.461 158.294 135.953 160.104 C 134.368 161.99 133.557 165.084 133.557 169.383 L 133.557 207.458 L 155.166 220.984 L 168.87 230.657 L 182.573 220.984 L 182.573 220.984 L 231.476 183.851 L 231.476 169.383 C 231.476 165.084 230.664 161.99 229.08 160.104 C 227.571 158.294 224.632 157.316 220.257 157.316 L 212.955 157.316 L 164.642 157.316 L 144.776 157.316 L 144.776 157.316 Z " id="Path" fill="url(#_lgradient_261)"/><g opacity="0.1"><linearGradient id="_lgradient_262" x1="0.6120000000000005" y1="0.3650000000000002" x2="0.714" y2="0.46598948939737816" gradientTransform="matrix(48.903,0,0,37.133,182.573,183.851)" gradientUnits="userSpaceOnUse"><stop offset="0%" stop-opacity="0.996" style="stop-color:rgb(118,230,64)"/><stop offset="100%" stop-opacity="0.275" style="stop-color:rgb(134,234,97)"/></linearGradient><path d=" M 231.476 183.851 L 182.573 220.984 L 220.257 220.984 C 224.632 220.984 227.571 220.056 229.08 218.246 C 230.664 216.36 231.476 213.266 231.476 208.966 L 231.476 183.851 L 231.476 183.851 Z " id="Path" fill="url(#_lgradient_262)"/></g><g opacity="0.1"><linearGradient id="_lgradient_263" x1="0.3680170299412282" y1="0.10500301292029945" x2="0.17800823730852855" y2="0.26144190412303914" gradientTransform="matrix(21.609,0,0,13.630609,133.557,207.458)" gradientUnits="userSpaceOnUse"><stop offset="0%" stop-opacity="0.996" style="stop-color:rgb(118,230,64)"/><stop offset="100%" stop-opacity="0.275" style="stop-color:rgb(134,234,97)"/></linearGradient><path d=" M 133.557 207.458 L 133.557 208.966 C 133.557 213.266 134.368 216.36 135.953 218.246 C 137.461 220.056 140.431 221.496 144.776 220.984 L 155.166 220.984 L 133.557 207.458 L 133.557 207.458 Z " id="Path" fill="url(#_lgradient_263)"/></g><path d=" M 144.776 157.316 C 140.401 157.261 137.461 158.294 135.952 160.104 C 134.368 161.99 133.557 165.084 133.557 169.384 L 133.557 170.608 C 133.557 166.308 134.368 163.214 135.952 161.328 C 137.461 159.518 140.401 158.485 144.776 158.54 L 164.642 158.54 L 212.955 158.54 L 220.257 158.54 C 224.632 158.54 227.572 159.518 229.081 161.328 C 230.665 163.214 231.476 166.308 231.476 170.608 L 231.476 169.384 C 231.476 165.084 230.665 161.99 229.081 160.104 C 227.572 158.294 224.632 157.316 220.257 157.316 L 212.955 157.316 L 164.642 157.316 L 144.776 157.316 L 144.776 157.316 Z " id="Path" fill="rgb(255,255,255)"/><path d=" M 151.781 194.608 L 151.781 194.608 L 166.428 194.608 L 166.428 194.608 Q 166.428 195.546 166.277 196.061 L 166.277 196.061 L 168.879 196.061 L 168.879 196.061 Q 168.728 195.516 168.728 194.578 L 168.728 194.578 L 168.728 186.407 L 149.481 186.407 L 149.481 194.517 L 149.481 194.517 Q 149.481 195.576 149.33 196.061 L 149.33 196.061 L 151.932 196.061 L 151.932 196.061 Q 151.781 195.758 151.781 194.608 L 151.781 194.608 L 151.781 194.608 Z  M 166.428 188.707 L 166.428 192.308 L 151.781 192.308 L 151.781 188.707 L 166.428 188.707 L 166.428 188.707 Z  M 147 176.239 L 171.452 176.239 L 171.452 176.239 Q 172.087 176.239 172.571 176.39 L 172.571 176.39 L 172.571 173.788 L 172.571 173.788 Q 171.966 173.939 171.24 173.939 L 171.24 173.939 L 147.09 173.939 L 147.09 173.939 Q 146.183 173.939 145.638 173.818 L 145.638 173.818 L 145.638 176.39 L 145.638 176.39 Q 145.94 176.239 147 176.239 L 147 176.239 L 147 176.239 Z  M 151.721 172.093 L 166.428 172.093 L 166.428 172.093 Q 167.185 172.093 167.79 172.244 L 167.79 172.244 L 167.79 169.672 L 167.79 169.672 Q 167.154 169.823 164.975 169.823 L 164.975 169.823 L 164.975 169.823 Q 162.797 169.823 159.105 169.823 L 159.105 169.823 L 159.105 169.823 Q 155.413 169.823 153.203 169.823 L 153.203 169.823 L 153.203 169.823 Q 150.964 169.823 150.419 169.672 L 150.419 169.672 L 150.419 172.244 L 150.419 172.244 Q 151.055 172.093 151.721 172.093 L 151.721 172.093 L 151.721 172.093 Z  M 149.784 177.903 L 149.784 177.903 L 149.784 180.506 L 149.784 180.506 Q 150.45 180.354 151.176 180.354 L 151.176 180.354 L 167.215 180.354 L 167.215 180.354 Q 168.365 180.445 168.425 180.506 L 168.425 180.506 L 168.425 177.934 L 168.425 177.934 Q 167.76 178.055 167.033 178.055 L 167.033 178.055 L 151.267 178.055 L 151.267 178.055 Q 150.086 178.055 149.784 177.903 L 149.784 177.903 L 149.784 177.903 Z  M 151.176 184.47 L 166.973 184.47 L 166.973 184.47 Q 167.729 184.5 168.425 184.621 L 168.425 184.621 L 168.425 182.049 L 168.425 182.049 Q 167.76 182.2 167.033 182.2 L 167.033 182.2 L 151.236 182.2 L 151.236 182.2 Q 150.359 182.2 149.784 182.049 L 149.784 182.049 L 149.784 184.621 L 149.784 184.621 Q 150.45 184.47 151.176 184.47 L 151.176 184.47 L 151.176 184.47 Z  M 199.263 187.799 L 199.263 192.066 L 190.426 192.066 L 190.426 187.799 L 199.263 187.799 L 199.263 187.799 Z  M 187.975 196.03 L 187.975 196.03 L 190.577 196.03 L 190.577 196.03 Q 190.426 195.425 190.426 194.396 L 190.426 194.396 L 199.263 194.396 L 199.263 194.396 Q 199.263 195.576 199.111 196.03 L 199.111 196.03 L 201.714 196.03 L 201.714 196.03 Q 201.563 195.728 201.563 194.669 L 201.563 194.669 L 201.563 185.499 L 188.126 185.499 L 188.126 194.669 L 188.126 194.669 Q 188.126 195.728 187.975 196.03 L 187.975 196.03 L 187.975 196.03 Z  M 194.148 177.298 L 198.294 177.298 L 198.052 181.172 L 192.635 181.172 L 194.148 177.298 L 194.148 177.298 Z  M 202.138 172.607 L 202.138 172.607 L 202.138 170.005 L 202.138 170.005 Q 201.502 170.156 200.745 170.156 L 200.745 170.156 L 189.397 170.156 L 189.397 170.156 Q 188.61 170.156 188.005 170.005 L 188.005 170.005 L 188.005 172.577 L 188.005 172.577 Q 188.671 172.456 190.063 172.456 L 190.063 172.456 L 193.573 172.456 L 192.575 174.998 L 189.912 174.998 L 189.912 174.998 Q 188.519 174.998 188.368 174.847 L 188.368 174.847 L 188.368 177.449 L 188.368 177.449 Q 189.094 177.298 189.881 177.298 L 189.881 177.298 L 191.667 177.298 L 190.154 181.172 L 188.126 181.172 L 188.126 181.172 Q 187.37 181.172 186.795 181.02 L 186.795 181.02 L 186.795 183.593 L 186.795 183.593 Q 187.43 183.441 188.126 183.441 L 188.126 183.441 L 201.593 183.441 L 201.593 183.441 Q 202.349 183.441 202.985 183.593 L 202.985 183.593 L 202.985 181.02 L 202.985 181.02 Q 202.38 181.172 201.653 181.172 L 201.653 181.172 L 200.352 181.172 L 200.745 174.998 L 195.056 174.998 L 196.055 172.456 L 201.23 172.456 L 201.23 172.456 Q 201.684 172.456 202.138 172.607 Z  M 179.229 184.107 L 184.918 184.107 L 184.918 184.107 Q 185.402 184.107 185.856 184.258 L 185.856 184.258 L 185.856 181.656 L 185.856 181.656 Q 185.191 181.807 183.405 181.807 L 183.405 181.807 L 178.987 181.807 L 178.987 181.807 Q 177.08 181.807 176.626 181.656 L 176.626 181.656 L 176.626 184.228 L 176.626 184.228 Q 177.292 184.107 179.229 184.107 L 179.229 184.107 L 179.229 184.107 Z  M 176.626 177.601 L 176.626 177.601 L 176.626 180.203 L 176.626 180.203 Q 176.778 180.052 178.926 180.052 L 178.926 180.052 L 184.676 180.052 L 184.676 180.052 Q 185.312 180.052 185.856 180.203 L 185.856 180.203 L 185.856 177.601 L 185.856 177.601 Q 185.554 177.752 183.526 177.752 L 183.526 177.752 L 178.866 177.752 L 178.866 177.752 Q 176.778 177.752 176.626 177.601 L 176.626 177.601 L 176.626 177.601 Z  M 179.259 171.942 L 184.071 171.942 L 184.071 171.942 Q 184.827 171.942 185.372 172.093 L 185.372 172.093 L 185.372 169.521 L 185.372 169.521 Q 184.767 169.672 183.193 169.672 L 183.193 169.672 L 178.624 169.672 L 178.624 169.672 Q 178.14 169.672 177.08 169.521 L 177.08 169.521 L 177.08 172.093 L 177.08 172.093 Q 177.686 171.942 179.259 171.942 L 179.259 171.942 L 179.259 171.942 Z  M 175.749 173.545 L 175.749 173.545 L 175.749 176.148 L 175.749 176.148 Q 176.324 175.997 177.02 175.997 L 177.02 175.997 L 185.372 175.997 L 185.372 175.997 Q 186.038 175.997 186.704 176.148 L 186.704 176.148 L 186.704 173.545 L 186.704 173.545 Q 186.401 173.697 183.95 173.697 L 183.95 173.697 L 178.503 173.697 L 178.503 173.697 Q 176.051 173.697 175.749 173.545 L 175.749 173.545 L 175.749 173.545 Z  M 183.799 188.192 L 183.799 192.066 L 178.654 192.066 L 178.654 188.192 L 183.799 188.192 L 183.799 188.192 Z  M 176.203 196.061 L 176.203 196.061 L 178.805 196.061 L 178.805 196.061 Q 178.654 195.486 178.654 194.396 L 178.654 194.396 L 183.799 194.396 L 183.799 194.396 Q 183.799 195.304 183.647 195.546 L 183.647 195.546 L 186.22 195.546 L 186.22 195.546 Q 186.099 195.001 186.099 194.366 L 186.099 194.366 L 186.099 185.892 L 176.354 185.892 L 176.354 194.759 L 176.354 194.759 Q 176.354 195.758 176.203 196.061 Z " fill-rule="evenodd" id="Compound Path" fill="rgb(40,133,30)"/></g></g><g opacity="0.4"><linearGradient id="_lgradient_264" x1="0.5166666666666668" y1="0" x2="0.5166666666666666" y2="1.0000000000000002" gradientTransform="matrix(244.65,0,0,228.34,5.68,11.95)" gradientUnits="userSpaceOnUse"><stop offset="0%" stop-opacity="1" style="stop-color:rgb(255,255,255)"/><stop offset="12.5%" stop-opacity="0.09803922" style="stop-color:rgb(255,255,255)"/><stop offset="92.500001%" stop-opacity="0.09803922" style="stop-color:rgb(0,0,0)"/><stop offset="100%" stop-opacity="0.49803922" style="stop-color:rgb(0,0,0)"/></linearGradient><path d=" M 165.06803 11.951234 C 169.395994 11.941409 173.723944 11.990533 178.051908 12.088781 C 181.927398 12.167379 185.802873 12.31475 189.678362 12.540721 C 193.1309 12.737216 196.583423 13.022134 200.026115 13.395476 C 203.085193 13.729518 206.144271 14.181458 209.173842 14.741469 C 211.888645 15.242533 214.57394 15.881143 217.219897 16.6573 C 219.619947 17.354858 221.970814 18.219439 224.242988 19.241215 C 226.357793 20.184394 228.384061 21.304417 230.302129 22.591462 C 232.141505 23.829383 233.862851 25.244151 235.436659 26.80629 C 237.000621 28.378252 238.417046 30.087764 239.656409 31.924995 C 240.944972 33.840824 242.066305 35.864728 243.020409 37.967229 C 244.043389 40.246576 244.908985 42.584873 245.617197 44.972292 C 246.394255 47.615155 247.033606 50.297317 247.535265 53.008956 C 248.095924 56.034984 248.548399 59.080665 248.882828 62.13617 C 249.256611 65.574836 249.541856 69.013506 249.738578 72.462003 C 249.964823 76.323139 250.112361 80.194101 250.200884 84.055237 C 250.289421 88.378131 250.338591 92.701032 250.32876 97.014106 L 250.32876 155.225886 C 250.338591 159.54878 250.289421 163.861854 250.200884 168.184747 C 250.112361 172.05571 249.964823 175.916853 249.738578 179.777981 C 249.541856 183.226485 249.256611 186.674975 248.882828 190.103826 C 248.548399 193.15933 248.095924 196.214835 247.535265 199.240851 C 247.033606 201.942664 246.394255 204.624837 245.617197 207.267703 C 244.908985 209.655115 244.043389 212.003235 243.020409 214.272755 C 242.066305 216.38509 240.944972 218.399156 239.656409 220.314999 C 238.417046 222.152226 237.000621 223.871561 235.436659 225.433697 C 233.862851 226.995832 232.141505 228.410601 230.302129 229.648532 C 228.384061 230.935575 226.357793 232.055598 224.242988 232.998768 C 221.970814 234.020552 219.619947 234.885137 217.219897 235.592507 C 214.57394 236.368672 211.888645 237.007276 209.173842 237.498515 C 206.144271 238.068354 203.085193 238.510465 200.026115 238.844519 C 196.583423 239.21785 193.1309 239.502777 189.678362 239.699269 C 185.802873 239.925235 181.927398 240.072615 178.051908 240.161035 C 173.723944 240.249454 169.395994 240.298581 165.06803 240.288762 L 90.941963 240.288762 C 86.614006 240.298581 82.286049 240.249454 77.9581 240.161035 C 74.08261 240.072615 70.20712 239.925235 66.331638 239.699269 C 62.879108 239.502777 59.426578 239.21785 55.983886 238.844519 C 52.924808 238.510465 49.865733 238.068354 46.836162 237.498515 C 44.121356 237.007276 41.436057 236.368672 38.7901 235.592507 C 36.390053 234.885137 34.039187 234.020552 31.767009 232.998768 C 29.652213 232.055598 27.625943 230.935575 25.707871 229.648532 C 23.868489 228.410601 22.147143 226.995832 20.573343 225.433697 C 19.009377 223.871561 17.592955 222.152226 16.353586 220.314999 C 15.065036 218.399156 13.943701 216.38509 12.989584 214.272755 C 11.966612 212.003235 11.101021 209.655115 10.392811 207.267703 C 9.615746 204.624837 8.976389 201.942664 8.47474 199.240851 C 7.914072 196.214835 7.461604 193.15933 7.127172 190.103826 C 6.753394 186.674975 6.468142 183.226485 6.271417 179.777981 C 6.045183 175.916853 5.897639 172.05571 5.809112 168.184747 C 5.720586 163.861854 5.671405 159.54878 5.681241 155.225886 L 5.681241 97.014106 C 5.671405 92.701032 5.720586 88.378131 5.809112 84.055237 C 5.897639 80.194101 6.045183 76.323139 6.271417 72.462003 C 6.468142 69.013506 6.753394 65.574836 7.127172 62.13617 C 7.461604 59.080665 7.914072 56.034984 8.47474 53.008956 C 8.976389 50.297317 9.615746 47.615155 10.392811 44.972292 C 11.101021 42.584873 11.966612 40.246576 12.989584 37.967229 C 13.943701 35.864728 15.065036 33.840824 16.353586 31.924995 C 17.592955 30.087764 19.009377 28.378252 20.573343 26.80629 C 22.147143 25.244151 23.868489 23.829383 25.707871 22.591462 C 27.625943 21.304417 29.652213 20.184394 31.767009 19.241215 C 34.039187 18.219439 36.390053 17.354858 38.7901 16.6573 C 41.436057 15.881143 44.121356 15.242533 46.836162 14.741469 C 49.865733 14.181458 52.924808 13.729518 55.983886 13.395476 C 59.426578 13.022134 62.879108 12.737216 66.331638 12.540721 C 70.20712 12.31475 74.08261 12.167379 77.9581 12.088781 C 82.286049 11.990533 86.614006 11.941409 90.941963 11.951234 L 165.06803 11.951234 Z  M 165.077876 15.959741 C 169.376317 15.949916 173.674759 15.99904 177.973216 16.087463 C 181.799522 16.175886 185.625827 16.323257 189.452133 16.539402 C 192.835809 16.735898 196.219486 17.010992 199.583486 17.384332 C 202.554026 17.698726 205.514751 18.131016 208.445953 18.681203 C 211.023049 19.152792 213.580483 19.761928 216.098564 20.498786 C 218.321569 21.147221 220.495374 21.952852 222.600334 22.896029 C 224.508571 23.750785 226.338116 24.762737 228.069293 25.922059 C 229.692286 27.012609 231.207063 28.260355 232.59398 29.645648 C 233.980897 31.030941 235.230091 32.543956 236.331763 34.165043 C 237.492434 35.894202 238.505568 37.711787 239.361333 39.607968 C 240.305606 41.720292 241.112187 43.891565 241.761369 46.102139 C 242.508934 48.617282 243.108947 51.161898 243.590914 53.735987 C 244.131912 56.663768 244.564709 59.6112 244.889308 62.578282 C 245.263091 65.938355 245.538505 69.308252 245.735227 72.687976 C 245.951626 76.509812 246.10901 80.321821 246.187687 84.143656 C 246.276225 88.437084 246.325394 92.720685 246.325394 97.014106 C 246.325394 97.014106 246.325394 97.014106 246.325394 97.014106 L 246.325394 155.225886 C 246.325394 155.225886 246.325394 155.225886 246.325394 155.225886 C 246.325394 159.519306 246.276225 163.802907 246.187687 168.096328 C 246.10901 171.918164 245.951626 175.739999 245.735227 179.552015 C 245.538505 182.931739 245.263091 186.301629 244.889308 189.671533 C 244.564709 192.628784 244.131912 195.576216 243.590914 198.503994 C 243.108947 201.078094 242.508934 203.622706 241.761369 206.137845 C 241.112187 208.358253 240.305606 210.5197 239.361333 212.63202 C 238.505568 214.528209 237.492434 216.355617 236.331763 218.074952 C 235.230091 219.705853 233.980897 221.218876 232.59398 222.604172 C 231.207063 223.979634 229.692286 225.227385 228.069293 226.317935 C 226.338116 227.477251 224.508571 228.489201 222.600334 229.343951 C 220.495374 230.296956 218.321569 231.092775 216.098564 231.741198 C 213.580483 232.478056 211.023049 233.087202 208.445953 233.558787 C 205.514751 234.108972 202.554026 234.541264 199.583486 234.865483 C 196.219486 235.228995 192.835809 235.513922 189.452133 235.70058 C 185.625827 235.916726 181.799522 236.073926 177.973216 236.152526 C 173.674759 236.25078 169.376317 236.290072 165.077876 236.290072 C 165.077876 236.290072 165.077876 236.290072 165.06803 236.290072 L 90.941963 236.290072 C 90.932125 236.290072 90.932125 236.290072 90.932125 236.290072 C 86.633683 236.290072 82.335234 236.25078 78.036784 236.152526 C 74.210479 236.073926 70.384173 235.916726 66.557868 235.70058 C 63.174195 235.513922 59.790522 235.228995 56.426518 234.865483 C 53.455967 234.541264 50.495253 234.108972 47.564048 233.558787 C 44.986944 233.087202 42.429517 232.478056 39.911433 231.741198 C 37.688439 231.092775 35.514626 230.296956 33.409665 229.343951 C 31.501429 228.489201 29.671886 227.477251 27.940703 226.317935 C 26.31772 225.227385 24.802935 223.979634 23.416022 222.604172 C 22.029109 221.218876 20.779904 219.705853 19.678243 218.074952 C 18.517564 216.355617 17.504428 214.528209 16.648674 212.63202 C 15.704392 210.5197 14.897819 208.358253 14.248626 206.137845 C 13.50107 203.622706 12.901057 201.078094 12.419081 198.503994 C 11.878086 195.576216 11.445291 192.628784 11.120694 189.671533 C 10.746916 186.301629 10.471501 182.931739 10.274776 179.552015 C 10.058378 175.739999 9.900997 171.918164 9.822307 168.096328 C 9.733781 163.802907 9.6846 159.519306 9.6846 155.225886 C 9.6846 155.225886 9.6846 155.225886 9.6846 155.225886 L 9.6846 97.014106 C 9.6846 97.014106 9.6846 97.014106 9.6846 97.014106 C 9.6846 92.720685 9.733781 88.437084 9.822307 84.143656 C 9.900997 80.321821 10.058378 76.509812 10.274776 72.687976 C 10.471501 69.308252 10.746916 65.938355 11.120694 62.578282 C 11.445291 59.6112 11.878086 56.663768 12.419081 53.735987 C 12.901057 51.161898 13.50107 48.617282 14.248626 46.102139 C 14.897819 43.891565 15.704392 41.720292 16.648674 39.607968 C 17.504428 37.711787 18.517564 35.894202 19.678243 34.165043 C 20.779904 32.543956 22.029109 31.030941 23.416022 29.645648 C 24.802935 28.260355 26.31772 27.012609 27.940703 25.922059 C 29.671886 24.762737 31.501429 23.750785 33.409665 22.896029 C 35.514626 21.952852 37.688439 21.147221 39.911433 20.498786 C 42.429517 19.761928 44.986944 19.152792 47.564048 18.681203 C 50.495253 18.131016 53.455967 17.698726 56.426518 17.384332 C 59.790522 17.010992 63.174195 16.735898 66.557868 16.539402 C 70.384173 16.323257 74.210479 16.175886 78.036784 16.087463 C 82.335234 15.99904 86.633683 15.949916 90.932125 15.959741 C 90.932125 15.959741 90.932125 15.959741 90.941963 15.959741 L 165.06803 15.959741 C 165.077876 15.959741 165.077876 15.959741 165.077876 15.959741 Z " fill-rule="evenodd" id="highlight" fill="url(#_lgradient_264)"/></g></svg>