<svg xmlns="http://www.w3.org/2000/svg" version="1.1" viewBox="0 0 24 24">
 <defs>
  <style id="current-color-scheme" type="text/css">
   .ColorScheme-Text { color:#808080; }
  </style>
 </defs>
 <path class="ColorScheme-Text" d="M 5,4 V 5 12 14 H 7 V 12 H 6 V 5 H 18 V 12 H 19 V 4 H 6 Z M 9,12 V 14 H 11 V 12 Z M 16.5,14 C 15.669,14 15,14.669 15,15.5 V 17 H 14 V 20 H 19 V 17 H 18 V 15.5 C 18,14.669 17.331,14 16.5,14 M 7,15 V 17 H 9 V 15 Z M 16.5,15 C 16.777,15 17,15.223 17,15.5 V 17 H 16 V 15.5 C 16,15.223 16.223,15 16.5,15 M 5,18 V 20 H 6 7 V 18 Z M 9,18 V 20 H 11 V 18 Z" style="color:#808080;fill:currentColor"/>
</svg>
