<svg xmlns="http://www.w3.org/2000/svg" version="1.1" viewBox="0 0 24 24">
 <defs>
  <style id="current-color-scheme" type="text/css">
   .ColorScheme-Text { color:#808080; }
  </style>
 </defs>
 <path class="ColorScheme-Text" d="M 4,4 V 5 16 H 5 V 11 H 8 V 10.992 L 8.0078,11 10.008,9 H 19 V 16 H 20 V 6 H 13.008 L 11.008,4 11,4.0078 V 4 H 5 4 M 10,17 V 18 H 4 V 19 H 10 V 20 H 14 V 19 H 20 V 18 H 14 V 17 H 10 M 12,17.5 C 12.554,17.5 13,17.946 13,18.5 13,19.054 12.554,19.5 12,19.5 11.446,19.5 11,19.054 11,18.5 11,17.946 11.446,17.5 12,17.5" style="color:#808080;fill:currentColor"/>
</svg>
