<svg xmlns="http://www.w3.org/2000/svg" version="1.1" viewBox="0 0 24 24">
 <defs>
  <style id="current-color-scheme" type="text/css">
   .ColorScheme-Text { color:#808080; }
  </style>
 </defs>
 <path class="ColorScheme-Text" d="M 8.0117,4 C 7.4344,5 7.1336,5 7.7109,6 L 11.252,12.141 9.1934,15.668 C 8.7481,15.257 8.1569,15 7.5,15 6.115,15 5,16.115 5,17.5 5,18.885 6.115,20 7.5,20 8.885,20 10,18.885 10,17.5 10,17.333 9.9822,17.169 9.9512,17.012 L 11.113,14.998 C 11.894,14.997 11.992,14.223 12.447,14.213 L 14.051,16.994 C 14.018,17.157 14,17.327 14,17.5 14,18.885 15.115,20 16.5,20 17.885,20 19,18.885 19,17.5 19,16.115 17.885,15 16.5,15 15.847,15 15.259,15.255 14.814,15.662 L 12.76,12.141 16.301,6 C 16.878,5 16.577,5 16,4 L 12.006,10.848 8.0117,4 M 12,12 C 12.277,12 12.5,12.223 12.5,12.5 12.5,12.777 12.277,13 12,13 11.723,13 11.5,12.777 11.5,12.5 11.5,12.223 11.723,12 12,12 Z M 7.5,16 C 8.331,16 9,16.669 9,17.5 9,18.331 8.331,19 7.5,19 6.669,19 6,18.331 6,17.5 6,16.669 6.669,16 7.5,16 M 16.5,16 C 17.331,16 18,16.669 18,17.5 18,18.331 17.331,19 16.5,19 15.669,19 15,18.331 15,17.5 15,16.669 15.669,16 16.5,16" style="color:#808080;fill:currentColor"/>
</svg>
