<svg xmlns="http://www.w3.org/2000/svg" version="1.1" viewBox="0 0 24 24">
 <defs>
  <style id="current-color-scheme" type="text/css">
   .ColorScheme-Text { color:#808080; }
  </style>
 </defs>
 <path class="ColorScheme-Text" d="M 4,4 V 5 20 H 5 20 V 19 4 H 4 M 5,5 H 19 V 19 H 5 V 5 M 6,6 V 7 8 H 7 V 7 H 8 V 6 H 6 M 12,6 C 10.615,6 9.5,7.115 9.5,8.5 9.5,9.885 10.615,11 12,11 13.385,11 14.5,9.885 14.5,8.5 14.5,7.115 13.385,6 12,6 M 16,6 V 7 H 17 V 8 H 18 V 6 H 16 M 12,7 C 12.831,7 13.5,7.669 13.5,8.5 13.5,9.331 12.831,10 12,10 11.169,10 10.5,9.331 10.5,8.5 10.5,7.669 11.169,7 12,7 M 6,10 V 11 12 H 8 V 11 H 7 V 10 H 6 M 17,10 V 11 H 16 V 12 H 18 V 11 10 H 17 M 12,12 C 9.507,12 7.5,14.007 7.5,16.5 V 17 18 H 7.7754 8.5 8.8457 15.154 16.225 16.5 V 17 16.5 C 16.5,14.007 14.493,12 12,12 M 12,13 C 13.939,13 15.5,14.561 15.5,16.5 V 17 H 8.5 V 16.5 C 8.5,14.561 10.061,13 12,13" style="color:#808080;fill:currentColor"/>
</svg>
