<svg xmlns="http://www.w3.org/2000/svg" version="1.1" viewBox="0 0 24 24">
 <defs>
  <style id="current-color-scheme" type="text/css">
   .ColorScheme-Text { color:#808080; }
  </style>
 </defs>
 <path class="ColorScheme-Text" d="M 4,4 V 5 20 H 5 20 V 19 4 H 4 M 5,5 H 19 V 19 H 5 V 5 M 6,6 V 7 9 H 7 V 7 H 9 V 6 H 6 M 15,6 V 7 H 17 V 9 H 18 V 7 6 H 15 M 11.91,7.7812 C 11.303,7.7812 10.595,7.9168 10.1,8.3105 L 10.346,9.0527 C 10.605,8.884 11.1,8.6133 11.764,8.6133 12.495,8.6133 12.991,8.9167 13.002,9.6367 13.002,10.717 11.438,12.483 11.438,13.766 H 11.91 C 12.731,11.921 13.9,11.055 13.9,9.5586 13.9,8.4111 13.069,7.7813 11.91,7.7813 M 11.752,14.768 C 11.268,14.768 11.021,15.128 11.021,15.488 11.021,15.848 11.268,16.219 11.752,16.219 12.236,16.219 12.484,15.848 12.484,15.488 12.484,15.128 12.236,14.768 11.752,14.768 M 6,15 V 17 18 H 9 V 17 H 7 V 15 H 6 M 17,15 V 17 H 15 V 18 H 18 V 17 15 H 17" style="color:#808080;fill:currentColor"/>
</svg>
