<?xml version="1.0" standalone="no"?><!-- Generator: Gravit.io --><svg xmlns="http://www.w3.org/2000/svg" xmlns:xlink="http://www.w3.org/1999/xlink" style="isolation:isolate" viewBox="0 0 256 256" width="256" height="256"><defs><filter id="xMlt4w6EZFkNnY0FaPP7NGt9C0lhZnyE" x="-7.324" y="2.947" width="270.648" height="254.338" filterUnits="userSpaceOnUse"><feGaussianBlur xmlns="http://www.w3.org/2000/svg" in="SourceGraphic" stdDeviation="4.293609062839028"/><feOffset xmlns="http://www.w3.org/2000/svg" dx="0" dy="4" result="pf_100_offsetBlur"/><feFlood xmlns="http://www.w3.org/2000/svg" flood-color="#000000" flood-opacity="0.4"/><feComposite xmlns="http://www.w3.org/2000/svg" in2="pf_100_offsetBlur" operator="in" result="pf_100_dropShadow"/><feBlend xmlns="http://www.w3.org/2000/svg" in="SourceGraphic" in2="pf_100_dropShadow" mode="normal"/></filter></defs><g filter="url(#xMlt4w6EZFkNnY0FaPP7NGt9C0lhZnyE)"><path d=" M 165.685 11.947 C 239.74 11.947 250.324 22.504 250.324 96.491 L 250.324 155.742 C 250.324 229.728 239.74 240.285 165.685 240.285 L 90.315 240.285 C 16.26 240.285 5.676 229.728 5.676 155.742 L 5.676 96.491 C 5.676 22.504 16.26 11.947 90.315 11.947 L 165.685 11.947 Z " id="shape" fill="rgb(204,204,204)"/></g><g opacity="0.1"><path d=" M 5.676 126.116 L 5.676 155.742 C 5.676 229.728 16.26 240.285 90.315 240.285 L 165.685 240.285 C 239.74 240.285 250.324 229.728 250.324 155.742 L 250.324 126.116 L 5.676 126.116 Z " id="bottom glass" fill="rgb(255,255,255)"/></g><g opacity="0.2"><path d=" M 128 11.947 L 128 240.285 L 165.685 240.285 C 239.74 240.285 250.324 229.728 250.324 155.742 L 250.324 96.491 C 250.324 22.504 239.74 11.947 165.685 11.947 L 128 11.947 Z " id="left glass" fill="rgb(255,255,255)"/></g><g id="notify"><defs><filter id="37BGpQBYRGx0qmwOX9RHcGkcx8rq7BeR" x="77.392" y="75.039" width="132.192" height="134.295" filterUnits="userSpaceOnUse"><feGaussianBlur xmlns="http://www.w3.org/2000/svg" stdDeviation="4.293609062839028"/></filter></defs><g opacity="0.4" filter="url(#37BGpQBYRGx0qmwOX9RHcGkcx8rq7BeR)"><path d=" M 136.86 85.039 C 137.054 86.764 137.507 88.435 137.507 90.212 C 137.507 115.925 116.662 136.77 90.948 136.77 C 89.731 136.77 88.586 136.538 87.392 136.447 L 87.392 159.404 C 87.392 169.792 95.756 178.156 106.145 178.156 L 122.131 178.156 L 142.823 199.333 L 164.162 178.156 L 180.831 178.156 C 191.22 178.156 199.584 169.792 199.584 159.403 L 199.584 103.792 C 199.584 93.403 191.22 85.039 180.831 85.039 L 136.86 85.039 Z " id="path983" fill="rgb(56,43,55)"/></g><defs><filter id="bcW4nOlLUf9jQBgpCwldfPcfQrdnVkFn" x="44.711" y="44" width="92.424" height="92.424" filterUnits="userSpaceOnUse"><feGaussianBlur xmlns="http://www.w3.org/2000/svg" stdDeviation="4.293609062839028"/></filter></defs><g opacity="0.4" filter="url(#bcW4nOlLUf9jQBgpCwldfPcfQrdnVkFn)"><path d=" M 90.923 54 C 70.923 54 54.711 70.213 54.711 90.212 C 54.711 110.211 70.923 126.424 90.923 126.424 C 110.922 126.424 127.135 110.211 127.135 90.212 C 127.135 70.213 110.922 54 90.923 54 Z  M 85.426 64.346 L 96.095 64.346 L 95.448 78.572 C 95.415 78.786 95.415 79.005 95.448 79.219 C 95.44 79.326 95.44 79.434 95.448 79.542 C 95.655 80.151 96.133 80.629 96.742 80.835 C 96.849 80.844 96.957 80.844 97.065 80.835 C 97.279 80.869 97.497 80.869 97.711 80.835 C 97.925 80.869 98.144 80.869 98.358 80.835 C 98.477 80.74 98.585 80.632 98.681 80.512 L 110.643 72.753 L 115.816 82.129 L 103.206 88.595 C 103.099 88.587 102.991 88.587 102.883 88.595 C 102.764 88.691 102.656 88.799 102.561 88.918 C 102.373 89.209 102.262 89.543 102.238 89.887 C 102.204 90.102 102.204 90.32 102.238 90.534 C 102.229 90.641 102.229 90.749 102.238 90.857 C 102.306 91.09 102.416 91.309 102.561 91.504 C 102.656 91.623 102.764 91.731 102.883 91.827 C 102.979 91.945 103.087 92.054 103.206 92.149 L 116.139 98.616 L 110.643 107.992 L 98.68 99.912 C 98.573 99.903 98.465 99.903 98.357 99.912 C 98.163 99.767 97.944 99.658 97.711 99.589 C 97.497 99.555 97.278 99.555 97.064 99.589 C 96.519 99.723 96.052 100.073 95.771 100.558 C 95.652 100.654 95.543 100.762 95.448 100.881 C 95.44 100.988 95.44 101.096 95.448 101.204 C 95.414 101.418 95.414 101.636 95.448 101.85 L 96.095 116.078 L 85.425 116.078 L 86.395 101.851 C 86.371 101.507 86.259 101.173 86.072 100.882 C 86.004 100.649 85.894 100.43 85.749 100.236 C 85.555 100.091 85.336 99.981 85.103 99.913 C 84.908 99.768 84.689 99.658 84.456 99.589 C 84.349 99.581 84.241 99.581 84.133 99.589 C 83.788 99.615 83.455 99.725 83.164 99.913 L 70.878 107.996 L 65.704 98.62 L 78.637 92.153 C 78.757 92.058 78.865 91.949 78.96 91.83 C 79.079 91.734 79.188 91.626 79.283 91.507 C 79.428 91.313 79.537 91.093 79.606 90.86 C 79.614 90.753 79.614 90.645 79.606 90.538 C 79.64 90.324 79.64 90.105 79.606 89.891 C 79.614 89.784 79.614 89.676 79.606 89.568 C 79.537 89.335 79.428 89.117 79.283 88.922 C 79.188 88.802 79.079 88.694 78.96 88.599 C 78.853 88.59 78.745 88.59 78.637 88.599 L 65.704 82.133 L 70.878 72.756 L 83.164 80.516 C 83.259 80.635 83.367 80.743 83.487 80.839 C 83.701 80.873 83.919 80.873 84.133 80.839 C 84.348 80.873 84.566 80.873 84.78 80.839 C 84.887 80.847 84.995 80.847 85.103 80.839 C 85.222 80.743 85.33 80.635 85.425 80.516 C 85.545 80.421 85.653 80.312 85.748 80.193 C 85.868 80.098 85.976 79.989 86.071 79.87 C 86.08 79.763 86.08 79.655 86.071 79.547 C 86.216 79.353 86.325 79.134 86.394 78.901 C 86.402 78.793 86.402 78.685 86.394 78.578 L 85.463 64.3 L 85.426 64.346 Z " id="path986" fill="rgb(56,43,55)"/></g><path d=" M 136.86 85.039 C 137.054 86.764 137.507 88.435 137.507 90.212 C 137.507 115.925 116.662 136.77 90.948 136.77 C 89.731 136.77 88.586 136.538 87.392 136.447 L 87.392 159.404 C 87.392 169.792 95.756 178.156 106.145 178.156 L 122.131 178.156 L 142.823 199.333 L 164.162 178.156 L 180.831 178.156 C 191.22 178.156 199.584 169.792 199.584 159.403 L 199.584 103.792 C 199.584 93.403 191.22 85.039 180.831 85.039 L 136.86 85.039 Z " id="rect68948" fill="rgb(55,166,230)"/><path d=" M 90.923 54 C 70.923 54 54.711 70.213 54.711 90.212 C 54.711 110.211 70.923 126.424 90.923 126.424 C 110.922 126.424 127.135 110.211 127.135 90.212 C 127.135 70.213 110.922 54 90.923 54 Z  M 85.426 64.346 L 96.095 64.346 L 95.448 78.572 C 95.415 78.786 95.415 79.005 95.448 79.219 C 95.44 79.326 95.44 79.434 95.448 79.542 C 95.655 80.151 96.133 80.629 96.742 80.835 C 96.849 80.844 96.957 80.844 97.065 80.835 C 97.279 80.869 97.497 80.869 97.711 80.835 C 97.925 80.869 98.144 80.869 98.358 80.835 C 98.477 80.74 98.585 80.632 98.681 80.512 L 110.643 72.753 L 115.816 82.129 L 103.206 88.595 C 103.099 88.587 102.991 88.587 102.883 88.595 C 102.764 88.691 102.656 88.799 102.561 88.918 C 102.373 89.209 102.262 89.543 102.238 89.887 C 102.204 90.102 102.204 90.32 102.238 90.534 C 102.229 90.641 102.229 90.749 102.238 90.857 C 102.306 91.09 102.416 91.309 102.561 91.504 C 102.656 91.623 102.764 91.731 102.883 91.827 C 102.979 91.945 103.087 92.054 103.206 92.149 L 116.139 98.616 L 110.643 107.992 L 98.68 99.912 C 98.573 99.903 98.465 99.903 98.357 99.912 C 98.163 99.767 97.944 99.658 97.711 99.589 C 97.497 99.555 97.278 99.555 97.064 99.589 C 96.519 99.723 96.052 100.073 95.771 100.558 C 95.652 100.654 95.543 100.762 95.448 100.881 C 95.44 100.988 95.44 101.096 95.448 101.204 C 95.414 101.418 95.414 101.636 95.448 101.85 L 96.095 116.078 L 85.425 116.078 L 86.395 101.851 C 86.371 101.507 86.259 101.173 86.072 100.882 C 86.004 100.649 85.894 100.43 85.749 100.236 C 85.555 100.091 85.336 99.981 85.103 99.913 C 84.908 99.768 84.689 99.658 84.456 99.589 C 84.349 99.581 84.241 99.581 84.133 99.589 C 83.788 99.615 83.455 99.725 83.164 99.913 L 70.878 107.996 L 65.704 98.62 L 78.637 92.153 C 78.757 92.058 78.865 91.949 78.96 91.83 C 79.079 91.734 79.188 91.626 79.283 91.507 C 79.428 91.313 79.537 91.093 79.606 90.86 C 79.614 90.753 79.614 90.645 79.606 90.538 C 79.64 90.324 79.64 90.105 79.606 89.891 C 79.614 89.784 79.614 89.676 79.606 89.568 C 79.537 89.335 79.428 89.117 79.283 88.922 C 79.188 88.802 79.079 88.694 78.96 88.599 C 78.853 88.59 78.745 88.59 78.637 88.599 L 65.704 82.133 L 70.878 72.756 L 83.164 80.516 C 83.259 80.635 83.367 80.743 83.487 80.839 C 83.701 80.873 83.919 80.873 84.133 80.839 C 84.348 80.873 84.566 80.873 84.78 80.839 C 84.887 80.847 84.995 80.847 85.103 80.839 C 85.222 80.743 85.33 80.635 85.425 80.516 C 85.545 80.421 85.653 80.312 85.748 80.193 C 85.868 80.098 85.976 79.989 86.071 79.87 C 86.08 79.763 86.08 79.655 86.071 79.547 C 86.216 79.353 86.325 79.134 86.394 78.901 C 86.402 78.793 86.402 78.685 86.394 78.578 L 85.463 64.3 L 85.426 64.346 Z " id="path68953" fill="rgb(237,49,70)"/></g><g opacity="0.4"><linearGradient id="_lgradient_180" x1="0.5166666666666668" y1="0" x2="0.5166666666666666" y2="1.0000000000000002"><stop offset="0%" stop-opacity="1" style="stop-color:rgb(255,255,255)"/><stop offset="12.5%" stop-opacity="0.09803922" style="stop-color:rgb(255,255,255)"/><stop offset="92.500001%" stop-opacity="0.09803922" style="stop-color:rgb(0,0,0)"/><stop offset="100%" stop-opacity="0.49803922" style="stop-color:rgb(0,0,0)"/></linearGradient><path d=" M 165.685 11.947 C 239.74 11.947 250.324 22.504 250.324 96.491 L 250.324 155.742 C 250.324 229.728 239.74 240.285 165.685 240.285 L 90.315 240.285 C 16.26 240.285 5.676 229.728 5.676 155.742 L 5.676 96.491 C 5.676 22.504 16.26 11.947 90.315 11.947 L 165.685 11.947 Z " id="highlight" fill="none" vector-effect="non-scaling-stroke" stroke-width="4.077" stroke="url(#_lgradient_180)" stroke-linejoin="round" stroke-linecap="round" stroke-miterlimit="4"/></g></svg>