<?xml version="1.0" standalone="no"?><!-- Generator: Gravit.io --><svg xmlns="http://www.w3.org/2000/svg" xmlns:xlink="http://www.w3.org/1999/xlink" style="isolation:isolate" viewBox="0 0 256 256" width="256" height="256"><defs><filter id="a3SvrAlE8SjwgidIRXKpq3FaqVEcZRkS" x="-7.324" y="2.947" width="270.648" height="254.338" filterUnits="userSpaceOnUse"><feGaussianBlur xmlns="http://www.w3.org/2000/svg" in="SourceGraphic" stdDeviation="4.293609062839028"/><feOffset xmlns="http://www.w3.org/2000/svg" dx="0" dy="4" result="pf_100_offsetBlur"/><feFlood xmlns="http://www.w3.org/2000/svg" flood-color="#000000" flood-opacity="0.4"/><feComposite xmlns="http://www.w3.org/2000/svg" in2="pf_100_offsetBlur" operator="in" result="pf_100_dropShadow"/><feBlend xmlns="http://www.w3.org/2000/svg" in="SourceGraphic" in2="pf_100_dropShadow" mode="normal"/></filter></defs><g filter="url(#a3SvrAlE8SjwgidIRXKpq3FaqVEcZRkS)"><linearGradient id="_lgradient_33" x1="0.30606436140977306" y1="-0.14014161924743024" x2="0.7285077053441862" y2="1.056781145998693" gradientTransform="matrix(244.648,0,0,228.338,5.676,11.947)" gradientUnits="userSpaceOnUse"><stop offset="0%" stop-opacity="1" style="stop-color:rgb(88,132,244)"/><stop offset="100%" stop-opacity="1" style="stop-color:rgb(128,163,250)"/></linearGradient><path d=" M 165.685 11.947 C 239.74 11.947 250.324 22.504 250.324 96.491 L 250.324 155.742 C 250.324 229.728 239.74 240.285 165.685 240.285 L 90.315 240.285 C 16.26 240.285 5.676 229.728 5.676 155.742 L 5.676 96.491 C 5.676 22.504 16.26 11.947 90.315 11.947 L 165.685 11.947 Z " id="shape" fill="url(#_lgradient_33)"/></g><path d=" M 220 183.75 Q 239 183.875 249.519 183.76 C 247.341 213.908 240.071 228.383 219.848 235.041 Q 219.875 228.25 220 183.75 Z " id="shape 1" fill="rgb(241,240,233)"/><path d=" M 219.867 183.93 L 219.875 126.375 L 250.413 126.255 L 250.386 156.045 C 250.376 166.629 250.152 175.921 249.561 184.076 Q 238.722 183.947 219.867 183.93 Z " id="shape 2" fill="rgb(253,201,43)"/><path d=" M 219.875 126.125 L 219.875 69.25 Q 219.938 66.25 219.938 64.5 Q 246.366 54.478 249.582 69.361 C 250.123 77.29 250.324 86.287 250.324 96.491 L 250.324 126.116 L 219.875 126.125 Z " id="shape 3" fill="rgb(118,194,43)"/><path d=" M 219.875 68.75 Q 219.875 25.125 219.871 17.199 C 240.152 23.885 247.396 38.444 249.543 68.809 Q 244 68.625 219.875 68.75 Z " id="shape 4" fill="rgb(242,44,66)"/><g opacity="0.4"><linearGradient id="_lgradient_34" x1="0.5166666666666668" y1="0" x2="0.5166666666666666" y2="1.0000000000000002"><stop offset="0%" stop-opacity="1" style="stop-color:rgb(255,255,255)"/><stop offset="12.5%" stop-opacity="0.09803922" style="stop-color:rgb(255,255,255)"/><stop offset="92.500001%" stop-opacity="0.09803922" style="stop-color:rgb(0,0,0)"/><stop offset="100%" stop-opacity="0.49803922" style="stop-color:rgb(0,0,0)"/></linearGradient><path d=" M 165.685 11.947 C 239.74 11.947 250.324 22.504 250.324 96.491 L 250.324 155.742 C 250.324 229.728 239.74 240.285 165.685 240.285 L 90.315 240.285 C 16.26 240.285 5.676 229.728 5.676 155.742 L 5.676 96.491 C 5.676 22.504 16.26 11.947 90.315 11.947 L 165.685 11.947 Z " id="highlight" fill="none" vector-effect="non-scaling-stroke" stroke-width="4.077" stroke="url(#_lgradient_34)" stroke-linejoin="round" stroke-linecap="round" stroke-miterlimit="4"/></g><g id="user"><g opacity="0.4"><rect x="81" y="176.344" width="79.879" height="7.262" transform="matrix(1,0,0,1,0,0)" id="rect4275" fill="rgb(255,255,255)"/></g><g opacity="0.4"><rect x="81" y="190.867" width="79.879" height="7.262" transform="matrix(1,0,0,1,0,0)" id="rect4277" fill="rgb(255,255,255)"/></g><path d=" M 120.94 53.129 C 117.288 53.129 113.807 53.811 110.605 55.197 L 110.604 55.198 C 107.439 56.51 104.634 58.439 102.299 60.925 L 102.288 60.936 L 102.282 60.943 L 102.278 60.947 L 102.262 60.966 C 99.979 63.471 98.225 66.474 96.994 69.869 L 97.035 69.775 C 97.035 69.775 97.008 69.843 96.991 69.884 L 96.993 69.873 C 96.989 69.884 96.986 69.897 96.982 69.908 C 96.982 69.91 96.98 69.914 96.979 69.915 C 96.974 69.933 96.973 69.934 96.978 69.917 L 96.935 70.056 L 96.935 70.056 C 95.725 73.41 95.134 77.062 95.134 80.957 C 95.134 84.977 95.736 88.724 96.995 92.136 C 98.229 95.478 99.984 98.446 102.257 100.943 L 102.258 100.943 L 102.26 100.946 L 102.261 100.948 L 102.277 100.966 L 102.289 100.978 L 102.298 100.989 C 103.241 101.993 104.288 102.857 105.372 103.666 C 104.697 103.876 104.01 104.053 103.355 104.311 C 98.349 106.283 94.095 109.024 90.744 112.559 L 90.735 112.569 L 90.715 112.59 L 90.689 112.62 C 87.419 116.172 84.957 120.363 83.339 125.086 L 83.318 125.131 L 83.294 125.212 C 81.793 129.906 81.058 134.939 81.058 140.264 L 81.058 150.242 L 82.413 151.327 L 82.416 151.33 L 82.46 151.364 C 82.46 151.364 86.004 154.158 92.436 156.73 C 98.86 159.3 108.389 161.82 120.939 161.82 C 133.489 161.82 143.017 159.3 149.441 156.73 C 155.872 154.158 159.417 151.364 159.417 151.364 L 159.461 151.33 L 159.464 151.327 L 159.968 150.922 L 160.82 150.922 L 160.82 140.264 C 160.82 134.932 160.033 129.886 158.436 125.186 C 158.434 125.181 158.433 125.176 158.432 125.172 L 158.41 125.111 L 158.396 125.082 C 156.857 120.335 154.377 116.111 150.998 112.557 L 150.997 112.557 C 148.531 109.955 145.573 107.788 142.192 106.039 L 141.397 105.626 L 140.724 106.218 C 139.41 107.374 137.976 108.404 136.461 109.309 L 134.255 110.627 L 136.617 111.638 C 140.323 113.224 143.28 115.236 145.597 117.68 L 145.605 117.689 C 148.241 120.463 150.13 123.664 151.345 127.452 L 151.367 127.521 L 151.374 127.54 C 152.699 131.422 153.376 135.642 153.376 140.264 L 153.376 146.451 C 152.368 147.141 150.574 148.263 146.676 149.823 C 141.046 152.074 132.497 154.377 120.939 154.377 C 109.382 154.377 100.83 152.074 95.2 149.822 C 91.302 148.262 89.508 147.141 88.5 146.451 L 88.5 140.264 C 88.5 135.635 89.135 131.403 90.375 127.512 C 90.375 127.512 90.375 127.511 90.375 127.51 C 91.685 123.685 93.598 120.448 96.159 117.665 L 96.162 117.662 C 98.677 115.015 101.928 112.869 106.079 111.234 C 110.114 109.644 115.038 108.788 120.888 108.783 C 120.896 108.783 120.924 108.785 120.938 108.785 C 124.56 108.785 128.011 108.144 131.194 106.838 L 131.195 106.84 L 131.254 106.817 L 131.333 106.78 L 131.347 106.773 C 134.482 105.404 137.235 103.452 139.502 100.971 C 141.845 98.474 143.645 95.495 144.884 92.135 C 146.143 88.723 146.745 84.976 146.745 80.956 C 146.745 76.994 146.141 73.282 144.889 69.881 L 144.886 69.872 L 144.859 69.804 L 144.839 69.765 C 143.605 66.401 141.829 63.423 139.505 60.944 C 139.503 60.942 139.503 60.939 139.5 60.938 L 139.464 60.9 L 139.423 60.864 L 139.421 60.863 C 137.153 58.405 134.402 56.493 131.271 55.195 L 131.269 55.194 C 128.195 53.865 124.858 53.202 121.368 53.15 L 121.338 53.13 L 120.939 53.13 L 120.94 53.129 Z  M 120.927 60.572 L 120.95 60.572 C 123.69 60.572 126.104 61.064 128.33 62.029 L 128.335 62.031 L 128.349 62.037 L 128.374 62.048 L 128.395 62.057 C 130.635 62.98 132.46 64.257 134.028 65.978 L 134.03 65.979 L 134.045 65.997 L 134.08 66.032 C 135.698 67.757 136.964 69.842 137.897 72.419 L 137.897 72.42 C 137.897 72.421 137.897 72.421 137.897 72.422 L 137.905 72.444 C 138.821 74.927 139.306 77.741 139.306 80.958 C 139.306 84.239 138.818 87.085 137.905 89.561 C 136.974 92.083 135.707 94.149 134.074 95.888 L 134.05 95.912 L 134.023 95.943 C 132.453 97.665 130.609 98.978 128.359 99.958 C 126.152 100.862 123.746 101.332 121.031 101.342 L 120.942 101.342 C 120.931 101.342 120.919 101.342 120.905 101.342 L 120.904 101.342 L 120.903 101.342 C 118.17 101.337 115.752 100.868 113.533 99.96 C 111.279 98.979 109.39 97.657 107.751 95.919 C 106.169 94.178 104.914 92.099 103.978 89.562 C 103.064 87.086 102.579 84.24 102.579 80.959 C 102.579 77.742 103.061 74.929 103.978 72.446 L 103.994 72.405 C 104.931 69.819 106.183 67.722 107.749 65.998 C 109.381 64.268 111.245 62.983 113.478 62.061 L 113.491 62.056 L 113.524 62.04 L 113.546 62.031 L 113.556 62.026 L 113.558 62.025 C 115.78 61.062 118.191 60.572 120.927 60.571 L 120.927 60.572 Z  M 130.88 105.93 L 131.004 106.229 L 130.876 105.932 L 130.88 105.93 Z " id="path4202" fill="rgb(228,235,254)"/></g></svg>