<svg xmlns="http://www.w3.org/2000/svg" style="isolation:isolate" width="256" height="256" viewBox="0 0 256 256">
 <defs>
  <filter id="V9I180LvF1QARIoRYkU9tKAs5DL3rFd8" width="270.648" height="254.338" x="-7.32" y="2.95" filterUnits="userSpaceOnUse">
   <feGaussianBlur xmlns="http://www.w3.org/2000/svg" in="SourceGraphic" stdDeviation="4.294"/>
   <feOffset xmlns="http://www.w3.org/2000/svg" dx="0" dy="4" result="pf_100_offsetBlur"/>
   <feFlood xmlns="http://www.w3.org/2000/svg" flood-opacity=".4"/>
   <feComposite xmlns="http://www.w3.org/2000/svg" in2="pf_100_offsetBlur" operator="in" result="pf_100_dropShadow"/>
   <feBlend xmlns="http://www.w3.org/2000/svg" in="SourceGraphic" in2="pf_100_dropShadow" mode="normal"/>
  </filter>
 </defs>
 <g filter="url(#V9I180LvF1QARIoRYkU9tKAs5DL3rFd8)">
  <linearGradient id="_lgradient_37" x1=".233" x2=".933" y1="-.071" y2=".995" gradientTransform="matrix(244.648,0,0,228.338,5.676,11.947)" gradientUnits="userSpaceOnUse">
   <stop offset="0%" style="stop-color:rgb(232,232,232)"/>
   <stop offset="100%" style="stop-color:rgb(245,245,245)"/>
  </linearGradient>
  <path fill="url(#_lgradient_37)" d="M 165.685 11.947 C 239.74 11.947 250.324 22.504 250.324 96.491 L 250.324 155.742 C 250.324 229.728 239.74 240.285 165.685 240.285 L 90.315 240.285 C 16.26 240.285 5.676 229.728 5.676 155.742 L 5.676 96.491 C 5.676 22.504 16.26 11.947 90.315 11.947 L 165.685 11.947 Z"/>
 </g>
 <g opacity=".4">
  <linearGradient id="_lgradient_38" x1=".517" x2=".517" y1="0" y2="1">
   <stop offset="0%" style="stop-color:rgb(255,255,255)"/>
   <stop offset="12.5%" stop-opacity=".098" style="stop-color:rgb(255,255,255)"/>
   <stop offset="92.5%" stop-opacity=".098" style="stop-color:rgb(0,0,0)"/>
   <stop offset="100%" stop-opacity=".498" style="stop-color:rgb(0,0,0)"/>
  </linearGradient>
  <path fill="none" stroke="url(#_lgradient_38)" stroke-linecap="round" stroke-linejoin="round" stroke-width="4.077" d="M 165.685 11.947 C 239.74 11.947 250.324 22.504 250.324 96.491 L 250.324 155.742 C 250.324 229.728 239.74 240.285 165.685 240.285 L 90.315 240.285 C 16.26 240.285 5.676 229.728 5.676 155.742 L 5.676 96.491 C 5.676 22.504 16.26 11.947 90.315 11.947 L 165.685 11.947 Z" vector-effect="non-scaling-stroke"/>
 </g>
 <path fill="#F15454" d="M 189.523 121.468 L 179.98 121.468 L 156.055 100.5 L 170.437 100.5 L 189.523 121.468 Z"/>
 <path fill="#333333" fill-rule="evenodd" d="M 201.485 198.887 L 192.748 198.887 L 192.748 192.167 L 192.748 192.167 Q 183.474 200.5 172.587 200.5 L 172.587 200.5 L 172.587 200.5 Q 161.834 200.5 155.517 194.519 L 155.517 194.519 L 155.517 194.519 Q 149.2 188.538 149.2 177.247 L 149.2 177.247 L 149.2 177.247 Q 149.2 166.091 156.391 160.312 L 156.391 160.312 L 156.391 160.312 Q 163.582 154.532 174.2 154.532 L 174.2 154.532 L 174.2 154.532 Q 183.743 154.532 192.748 159.371 L 192.748 159.371 L 192.748 153.591 L 192.748 153.591 Q 192.748 136.79 177.695 136.79 L 177.695 136.79 L 177.695 136.79 Q 168.017 136.79 157.265 144.183 L 157.265 144.183 L 154.576 136.118 L 154.576 136.118 Q 166.404 128.591 178.635 128.591 L 178.635 128.591 L 178.635 128.591 Q 182.802 128.591 186.431 129.599 L 186.431 129.599 L 186.431 129.599 Q 190.06 130.607 193.622 133.094 L 193.622 133.094 L 193.622 133.094 Q 197.184 135.581 199.334 140.487 L 199.334 140.487 L 199.334 140.487 Q 201.485 145.392 201.485 152.382 L 201.485 152.382 L 201.485 198.887 Z M 173.528 192.301 L 173.528 192.301 L 173.528 192.301 Q 184.146 192.301 192.748 181.683 L 192.748 181.683 L 192.748 168.376 L 192.748 168.376 Q 184.281 162.731 175.141 162.731 L 175.141 162.731 L 175.141 162.731 Q 167.748 162.731 162.842 166.427 L 162.842 166.427 L 162.842 166.427 Q 157.937 170.124 157.937 177.247 L 157.937 177.247 L 157.937 177.247 Q 157.937 184.102 162.036 188.202 L 162.036 188.202 L 162.036 188.202 Q 166.135 192.301 173.528 192.301 Z"/>
</svg>
