<?xml version="1.0" standalone="no"?><!-- Generator: Gravit.io --><svg xmlns="http://www.w3.org/2000/svg" xmlns:xlink="http://www.w3.org/1999/xlink" style="isolation:isolate" viewBox="0 0 256 256" width="256" height="256"><defs><filter id="rvDUV7Cfm9vpguD6KhoKXIzuuk75zyfb" x="-7.324" y="2.947" width="270.648" height="254.338" filterUnits="userSpaceOnUse"><feGaussianBlur xmlns="http://www.w3.org/2000/svg" in="SourceGraphic" stdDeviation="4.293609062839028"/><feOffset xmlns="http://www.w3.org/2000/svg" dx="0" dy="4" result="pf_100_offsetBlur"/><feFlood xmlns="http://www.w3.org/2000/svg" flood-color="#000000" flood-opacity="0.4"/><feComposite xmlns="http://www.w3.org/2000/svg" in2="pf_100_offsetBlur" operator="in" result="pf_100_dropShadow"/><feBlend xmlns="http://www.w3.org/2000/svg" in="SourceGraphic" in2="pf_100_dropShadow" mode="normal"/></filter></defs><g filter="url(#rvDUV7Cfm9vpguD6KhoKXIzuuk75zyfb)"><linearGradient id="_lgradient_218" x1="0.23333335660955284" y1="-0.07142834499305195" x2="0.9333333977034091" y2="0.9952383842928247" gradientTransform="matrix(244.648,0,0,228.338,5.676,11.947)" gradientUnits="userSpaceOnUse"><stop offset="0%" stop-opacity="1" style="stop-color:rgb(232,232,232)"/><stop offset="100%" stop-opacity="1" style="stop-color:rgb(245,245,245)"/></linearGradient><path d=" M 165.685 11.947 C 239.74 11.947 250.324 22.504 250.324 96.491 L 250.324 155.742 C 250.324 229.728 239.74 240.285 165.685 240.285 L 90.315 240.285 C 16.26 240.285 5.676 229.728 5.676 155.742 L 5.676 96.491 C 5.676 22.504 16.26 11.947 90.315 11.947 L 165.685 11.947 Z " id="shape" fill="url(#_lgradient_218)"/></g><g opacity="0.4"><linearGradient id="_lgradient_219" x1="0.5166666666666668" y1="0" x2="0.5166666666666666" y2="1.0000000000000002"><stop offset="0%" stop-opacity="1" style="stop-color:rgb(255,255,255)"/><stop offset="12.5%" stop-opacity="0.09803922" style="stop-color:rgb(255,255,255)"/><stop offset="92.500001%" stop-opacity="0.09803922" style="stop-color:rgb(0,0,0)"/><stop offset="100%" stop-opacity="0.49803922" style="stop-color:rgb(0,0,0)"/></linearGradient><path d=" M 165.685 11.947 C 239.74 11.947 250.324 22.504 250.324 96.491 L 250.324 155.742 C 250.324 229.728 239.74 240.285 165.685 240.285 L 90.315 240.285 C 16.26 240.285 5.676 229.728 5.676 155.742 L 5.676 96.491 C 5.676 22.504 16.26 11.947 90.315 11.947 L 165.685 11.947 Z " id="highlight" fill="none" vector-effect="non-scaling-stroke" stroke-width="4.077" stroke="url(#_lgradient_219)" stroke-linejoin="round" stroke-linecap="round" stroke-miterlimit="4"/></g><g id="log"><g opacity="0.5"><path d=" M 43.966 50.528 L 43.966 58.683 L 207.065 58.683 L 207.065 50.528 L 43.966 50.528 Z  M 43.966 74.993 L 43.966 83.148 L 207.065 83.148 L 207.065 74.993 L 43.966 74.993 Z  M 43.966 99.458 L 43.966 107.613 L 207.065 107.613 L 207.065 99.458 L 43.966 99.458 Z  M 43.966 123.923 L 43.966 132.077 L 207.065 132.077 L 207.065 123.923 L 43.966 123.923 Z  M 43.966 148.387 L 43.966 156.542 L 207.065 156.542 L 207.065 148.387 L 43.966 148.387 Z  M 43.966 172.852 L 43.966 181.007 L 207.065 181.007 L 207.065 172.852 L 43.966 172.852 Z  M 43.966 197.317 L 43.966 205.472 L 125.629 205.472 L 125.629 197.317 L 43.966 197.317 Z " id="path4271" fill="rgb(107,143,234)"/></g><defs><filter id="k3E43bOHkjnV8yaMCfQgIOOD5f5qRanC" x="62.536" y="49.858" width="151.187" height="151.347" filterUnits="userSpaceOnUse"><feGaussianBlur xmlns="http://www.w3.org/2000/svg" stdDeviation="0.72539062"/></filter></defs><g opacity="0.1" filter="url(#k3E43bOHkjnV8yaMCfQgIOOD5f5qRanC)"><path d=" M 125.388 51.547 C 159.118 51.547 186.55 78.98 186.55 112.709 C 186.55 127.416 181.332 140.925 172.653 151.485 L 178.483 157.315 L 179.924 155.873 L 212.034 187.983 L 200.501 199.515 L 168.39 167.405 L 169.832 165.963 L 163.984 160.116 C 153.45 168.708 140.013 173.872 125.388 173.872 C 91.658 173.872 64.226 146.439 64.226 112.709 C 64.226 78.98 91.658 51.547 125.388 51.547 Z  M 125.388 59.84 C 96.14 59.84 72.518 83.462 72.518 112.709 C 72.518 141.957 96.14 165.579 125.388 165.579 C 154.636 165.579 178.258 141.957 178.258 112.709 C 178.258 83.462 154.636 59.84 125.388 59.84 Z " id="path1133" fill="rgb(0,0,0)"/></g><defs><filter id="rvreh1vQvEY5lGdjZQxDIHFkuiEWIIgF" x="55.778" y="43.1" width="164.703" height="164.862" filterUnits="userSpaceOnUse"><feGaussianBlur xmlns="http://www.w3.org/2000/svg" stdDeviation="3.6269530999999997"/></filter></defs><g opacity="0.3" filter="url(#rvreh1vQvEY5lGdjZQxDIHFkuiEWIIgF)"><linearGradient id="_lgradient_220" x1="1.081896620689655" y1="0.9851453175457481" x2="0.033620758620689584" y2="0.985145317545748" gradientTransform="matrix(-147.808,0,0,147.968,212.034,51.547)" gradientUnits="userSpaceOnUse"><stop offset="0%" stop-opacity="0" style="stop-color:rgb(0,0,0)"/><stop offset="47.697368000000004%" stop-opacity="1" style="stop-color:rgb(0,0,0)"/><stop offset="100%" stop-opacity="0" style="stop-color:rgb(0,0,0)"/></linearGradient><path d=" M 125.388 51.547 C 159.118 51.547 186.55 78.98 186.55 112.709 C 186.55 127.416 181.332 140.925 172.653 151.485 L 178.483 157.315 L 179.924 155.873 L 212.034 187.983 L 200.501 199.515 L 168.39 167.405 L 169.832 165.963 L 163.984 160.116 C 153.45 168.708 140.013 173.872 125.388 173.872 C 91.658 173.872 64.226 146.439 64.226 112.709 C 64.226 78.98 91.658 51.547 125.388 51.547 Z  M 125.388 59.84 C 96.14 59.84 72.518 83.462 72.518 112.709 C 72.518 141.957 96.14 165.579 125.388 165.579 C 154.636 165.579 178.258 141.957 178.258 112.709 C 178.258 83.462 154.636 59.84 125.388 59.84 Z " id="path1155" fill="url(#_lgradient_220)"/></g><path d=" M 161.681 156.793 L 170.331 148.143 L 182.561 160.373 L 173.911 169.023 L 161.681 156.793 Z " id="Path" fill="rgb(59,99,200)"/><path d=" M 168.391 166.383 L 179.921 154.853 L 212.031 186.963 L 200.501 198.493 L 168.391 166.383 Z " id="Path" fill="rgb(57,87,162)"/><circle vector-effect="non-scaling-stroke" cx="0" cy="0" r="1" transform="matrix(57.016,0,0,57.016,125.388,111.69)" id="path4260" fill="rgb(218,240,249)" fill-opacity="0.54292345"/><path d=" M 125.39 172.85 M 125.39 172.85 M 125.39 172.85 M 125.39 172.85 M 125.39 172.85 C 117.21 172.86 109.12 171.22 101.59 168.04 C 94.32 164.96 87.72 160.51 82.15 154.93 C 76.57 149.35 72.12 142.75 69.04 135.49 C 65.86 127.96 64.22 119.87 64.23 111.69 C 64.22 103.52 65.86 95.42 69.04 87.89 C 72.12 80.63 76.57 74.03 82.15 68.45 C 87.72 62.87 94.32 58.42 101.59 55.34 C 109.12 52.16 117.21 50.52 125.39 50.53 C 133.56 50.52 141.66 52.16 149.19 55.34 C 156.45 58.42 163.05 62.87 168.63 68.45 C 174.21 74.03 178.66 80.63 181.74 87.89 C 184.92 95.42 186.56 103.51 186.55 111.69 C 186.56 119.87 184.92 127.96 181.74 135.49 C 178.66 142.75 174.21 149.35 168.63 154.93 C 163.05 160.51 156.45 164.96 149.19 168.04 C 141.66 171.22 133.56 172.86 125.39 172.85 Z  M 125.39 164.56 L 125.38 164.56 C 118.32 164.56 111.33 163.15 104.82 160.4 C 98.54 157.74 92.83 153.89 88.01 149.07 C 83.19 144.25 79.34 138.54 76.67 132.26 C 73.93 125.75 72.51 118.76 72.52 111.69 C 72.51 104.62 73.93 97.63 76.68 91.12 C 79.34 84.84 83.19 79.13 88.01 74.31 C 92.83 69.49 98.54 65.64 104.82 62.98 C 111.33 60.23 118.32 58.82 125.39 58.82 C 132.45 58.82 139.45 60.23 145.96 62.98 C 152.24 65.64 157.94 69.49 162.76 74.31 C 167.59 79.13 171.44 84.84 174.1 91.12 C 176.85 97.63 178.26 104.63 178.26 111.69 C 178.26 118.76 176.85 125.75 174.1 132.26 C 171.44 138.54 167.59 144.25 162.76 149.07 C 157.94 153.89 152.24 157.74 145.96 160.4 C 139.45 163.15 132.46 164.56 125.39 164.56 C 125.39 164.56 125.39 164.56 125.39 164.56 L 125.39 164.56 Z " fill-rule="evenodd" id="Compound Path" fill="rgb(107,143,234)"/><circle vector-effect="non-scaling-stroke" cx="0" cy="0" r="1" transform="matrix(20.387,0,0,20.387,109.078,95.38)" id="circle4415" fill="rgb(255,255,255)" fill-opacity="0.54292345"/></g></svg>