<svg xmlns="http://www.w3.org/2000/svg" width="16" height="16" version="1.1">
 <g label="status" transform="translate(-1153,167.00027)">
  <path d="m 1159.0002,-167 -1,0.25 v 0.75 h 1 z m 0,1 v 1 h -1 v -1 h -0 -0 c -1.2582,0.0145 -2.1788,-0.0306 -2.9316,0.38477 -0.3764,0.20768 -0.6752,0.55942 -0.8399,0.99804 -0.1643,0.43862 -0.2225,0.95961 -0.2225,1.61719 v 5 3 c 0,0.65759 0.058,1.17856 0.2227,1.61719 0.1646,0.43862 0.4634,0.78841 0.8398,0.99609 0.7528,0.41535 1.6735,0.37218 2.9316,0.38672 h 0 3.0039 v -1 h -2.9941 -0.01 c -1.2599,-0.0147 -2.087,-0.0597 -2.4532,-0.26172 -0.1833,-0.10118 -0.2891,-0.21271 -0.3867,-0.47266 -0.098,-0.25995 -0.1601,-0.67321 -0.1601,-1.26562 v -3 -2 c 0,-0.59241 0.063,-1.00568 0.1601,-1.26562 0.098,-0.25997 0.2034,-0.37148 0.3867,-0.47266 0.3668,-0.20236 1.1955,-0.2471 2.459,-0.26172 h 3.9942 2 c 1.2595,0.0147 2.087,0.0598 2.4531,0.26172 0.1834,0.10118 0.2891,0.21271 0.3867,0.47266 0.098,0.25994 0.1602,1.26562 0.1602,1.26562 v 1 h 1 v -4 c 0,-0.65759 -0.06,-1.17857 -0.2246,-1.61719 -0.1647,-0.43862 -0.4615,-0.79036 -0.8379,-0.99804 -0.7528,-0.41535 -1.6735,-0.37023 -2.9317,-0.38477 h -0 -0 v 1 h -1 v -1 z m 4,0 h 1 v -1 l -1,0.25 z" style="solid-color:#F7F7F7;fill:#F7F7F7"/>
  <path class="error" d="m 1165.5002,-158 a 3.5000003,3.5000004 0 0 0 -3.5,3.5 3.5000003,3.5000004 0 0 0 3.5,3.5 3.5000003,3.5000004 0 0 0 3.5,-3.5 3.5000003,3.5000004 0 0 0 -3.5,-3.5 z m -0.5,1 h 1 v 1.16797 c 0,0.34851 -0.016,0.6673 -0.047,0.95703 -0.031,0.28973 -0.069,0.58107 -0.1152,0.875 h -0.666 c -0.052,-0.29393 -0.094,-0.58527 -0.125,-0.875 -0.031,-0.29393 -0.047,-0.61271 -0.047,-0.95703 z m 0.5,4 a 0.5,0.5 0 0 1 0.5,0.5 0.5,0.5 0 0 1 -0.5,0.5 0.5,0.5 0 0 1 -0.5,-0.5 0.5,0.5 0 0 1 0.5,-0.5 z" style="fill:#f22c42"/>
 </g>
</svg>
