<svg xmlns="http://www.w3.org/2000/svg" width="16" height="16" version="1.1">
 <g style="fill:#F7F7F7;opacity:0.35" transform="translate(-293.00021,252)">
  <path d="m 300.5002,-251 c -1.385,0 -2.5,1.115 -2.5,2.5 l 0,4.5 0,0.5 c 0,1.385 1.115,2.5 2.5,2.5 1.385,0 2.5,-1.115 2.5,-2.5 l 0,-0.5 0,-4.5 c 0,-1.385 -1.115,-2.5 -2.5,-2.5 z m -4,6 c -0.27614,0 -0.5,0.22386 -0.5,0.5 l 0,0.96875 c 0,1.96838 1.25801,3.62455 3,4.25 l 0,1.28125 -0.5,0 c -0.277,0 -0.5,0.223 -0.5,0.5 0,0.277 0.223,0.5 0.5,0.5 l 0.5,0 3,0 0.5,0 c 0.277,0 0.5,-0.223 0.5,-0.5 0,-0.277 -0.223,-0.5 -0.5,-0.5 l -0.5,0 0,-1.28125 c 1.74199,-0.62545 3,-2.28162 3,-4.25 l 0,-0.96875 c 0,-0.27614 -0.22386,-0.5 -0.5,-0.5 -0.27614,0 -0.5,0.22386 -0.5,0.5 0,0.069 0.006,0.12768 0.0312,0.1875 l 0,0.78125 c 0,1.96415 -1.57895,3.53125 -3.53125,3.53125 -1.9523,0 -3.5,-1.5671 -3.5,-3.53125 l 0,-0.96875 c 0,-0.27614 -0.22386,-0.5 -0.5,-0.5 z" style="fill:#F7F7F7"/>
 </g>
</svg>
