<svg xmlns="http://www.w3.org/2000/svg" width="16" height="16">
 <g transform="translate(-1153 87)">
  <path fill="#F7F7F7" opacity=".5" d="M1157.994-86c-1.258.015-2.178-.03-2.931.385a1.88 1.88 0 0 0-.838.998c-.165.438-.225.96-.225 1.617v8c0 .658.06 1.179.225 1.617.165.439.461.789.838.996.753.416 1.673.372 2.931.387h3.002v-2h-4v-5h1v-2c0-1.653 1.347-3 3-3 1.654 0 3 1.347 3 3v2h4v-4c0-.658-.06-1.179-.224-1.617a1.88 1.88 0 0 0-.838-.998c-.753-.416-1.674-.37-2.932-.385h-6.004zm3.006 3c-1.116 0-2 .883-2 2v2h4v-2c0-1.117-.883-2-2-2zm0 5.25l-1 .25v2.5h1z" color="#000" font-family="sans-serif" font-weight="400" overflow="visible"/>
  <path fill="#fdc92b" fill-rule="evenodd" class="warning" d="M1165.48-77.271a.443.443 0 0 0-.36.22l-3.061 5.397a.437.437 0 0 0 .379.654h6.125a.437.437 0 0 0 .379-.654l-3.059-5.397a.442.442 0 0 0-.402-.22zM1165-76h1v.168c0 .348-.016.667-.047.957-.03.29-.069.581-.115.875h-.666a12.898 12.898 0 0 1-.125-.875 9.146 9.146 0 0 1-.047-.957zm.5 3a.5.5 0 1 1 0 1 .5.5 0 0 1 0-1z" color="#000" font-family="sans-serif" font-weight="400" overflow="visible"/>
 </g>
</svg>
