<svg xmlns="http://www.w3.org/2000/svg" width="24" height="24" version="1.1" viewBox="0 0 24 24">
 <g transform="translate(-516,-499.99841)">
  <path d="m 524.5,503 c -0.277,0 -0.5,0.223 -0.5,0.5 l 0,1.65625 C 524.31943,505.07325 524.65568,505 525,505 l 1,0 0,-1.5 c 0,-0.277 -0.223,-0.5 -0.5,-0.5 l -1,0 z m 3,0 c -0.277,0 -0.5,0.223 -0.5,0.5 l 0,1.5 2,0 0,-1.5 c 0,-0.277 -0.223,-0.5 -0.5,-0.5 l -1,0 z m 3,0 c -0.277,0 -0.5,0.223 -0.5,0.5 l 0,1.5 1,0 c 0.3443,0 0.6806,0.0733 1,0.15625 L 532,503.5 c 0,-0.277 -0.223,-0.5 -0.5,-0.5 l -1,0 z m -5.5,3 c -1.662,0 -3,1.338 -3,3 l 0,6 c 0,1.662 1.338,3 3,3 l 6,0 c 1.662,0 3,-1.338 3,-3 l 0,-6 c 0,-1.662 -1.338,-3 -3,-3 l -6,0 z m -5.5,2 c -0.277,0 -0.5,0.223 -0.5,0.5 l 0,1 c 0,0.277 0.223,0.5 0.5,0.5 l 1.5,0 0,-1 c 0,-0.34432 0.0733,-0.68057 0.15625,-1 L 519.5,508 Z m 5.5,0 6,0 c 0.554,0 1,0.446 1,1 l 0,6 c 0,0.554 -0.446,1 -1,1 l -6,0 c -0.554,0 -1,-0.446 -1,-1 l 0,-6 c 0,-0.554 0.446,-1 1,-1 z m 9.8438,0 c 0.083,0.31943 0.1562,0.65568 0.1562,1 l 0,1 1.5,0 c 0.277,0 0.5,-0.223 0.5,-0.5 l 0,-1 c 0,-0.277 -0.223,-0.5 -0.5,-0.5 l -1.6562,0 z m -9.8438,1 0,6 6,0 0,-6 -6,0 z m -5.5,2 c -0.277,0 -0.5,0.223 -0.5,0.5 l 0,1 c 0,0.277 0.223,0.5 0.5,0.5 l 1.5,0 0,-2 -1.5,0 z m 15.5,0 0,2 1.5,0 c 0.277,0 0.5,-0.223 0.5,-0.5 l 0,-1 c 0,-0.277 -0.223,-0.5 -0.5,-0.5 l -1.5,0 z m -15.5,3 c -0.277,0 -0.5,0.223 -0.5,0.5 l 0,1 c 0,0.277 0.223,0.5 0.5,0.5 l 1.65625,0 C 521.07325,515.68057 521,515.34432 521,515 l 0,-1 -1.5,0 z m 15.5,0 0,1 c 0,0.34432 -0.073,0.68057 -0.1562,1 l 1.6562,0 c 0.277,0 0.5,-0.223 0.5,-0.5 l 0,-1 c 0,-0.277 -0.223,-0.5 -0.5,-0.5 l -1.5,0 z m -11,4.84375 0,1.65625 c 0,0.27699 0.223,0.5 0.5,0.5 l 1,0 c 0.277,0 0.5,-0.22301 0.5,-0.5 l 0,-1.5 -1,0 c -0.34432,0 -0.68057,-0.0733 -1,-0.15625 z m 8,0 C 531.6806,518.92675 531.3443,519 531,519 l -1,0 0,1.5 c 0,0.27699 0.223,0.5 0.5,0.5 l 1,0 c 0.277,0 0.5,-0.22301 0.5,-0.5 l 0,-1.65625 z M 527,519 l 0,1.5 c 0,0.27699 0.223,0.5 0.5,0.5 l 1,0 c 0.277,0 0.5,-0.22301 0.5,-0.5 l 0,-1.5 -2,0 z" style="fill:#F7F7F7"/>
 </g>
</svg>
