<svg xmlns="http://www.w3.org/2000/svg" width="24" height="24" version="1.1">
 <defs>
  <style id="current-color-scheme" type="text/css">
   .ColorScheme-Text { color:#F7F7F7; } .ColorScheme-Highlight { color:#5294e2; } .ColorScheme-ButtonBackground { color:#d3dae3; }
  </style>
 </defs>
 <g transform="matrix(1.3332542,0,0,1.3332542,13.03698,-0.39009491)" style="fill:currentColor;" class="ColorScheme-Text">
  <rect width="1.957" height="3.913" x="1.05" y="14.01" style="fill:currentColor;" class="ColorScheme-Text"/>
  <circle cx="2.027" cy="11.723" r=".978" style="fill:currentColor;" class="ColorScheme-Text"/>
  <path d="m 1.7003776,5.5271194 c -3.233954,3e-7 -5.869154,2.6351863 -5.86914,5.8691406 v 0.652344 h 1.304687 V 11.39626 c -1e-5,-2.5290309 2.03542201,-4.5644528 4.564453,-4.5644531 h 0.652344 V 5.5271194 Z" style="solid-color:#F7F7F7;fill:currentColor;" class="ColorScheme-Text"/>
  <path d="m 1.7003776,8.1364944 c -1.79320779,0 -3.259773,1.4665576 -3.259765,3.2597656 v 0.652344 h 1.30468711 V 11.39626 c -4.4e-6,-1.088285 0.8667935,-1.9550781 1.95507789,-1.9550781 h 0.652344 V 8.1364944 Z" style="solid-color:#F7F7F7;fill:currentColor;" class="ColorScheme-Text"/>
  <path d="m 1.7003776,2.9177444 c -4.674684,6e-7 -8.478512,3.8038309 -8.478515,8.4785156 v 0.652344 h 1.304687 V 11.39626 c 3e-6,-3.9697635 3.204065,-7.1738276 7.173828,-7.1738281 h 0.652344 V 2.9177444 Z" style="solid-color:#F7F7F7;fill:currentColor;" class="ColorScheme-Text"/>
  <rect style="fill:currentColor;" class="ColorScheme-Text" width="1.957" height="3.913" x="1.05" y="14.01"/>
  <circle style="fill:currentColor;" class="ColorScheme-Text" cx="2.027" cy="11.723" r=".978"/>
 </g>
 <g transform="matrix(0.75037519,0,0,0.75037519,-954.72762,257.61706)" style="fill:#7ad42b">
  <path d="m 1276.994,-326 c -1.258,0.015 -2.178,-0.03 -2.931,0.385 -0.3894,0.22212 -0.6866,0.57606 -0.838,0.998 -0.165,0.438 -0.225,0.96 -0.225,1.617 v 6 c 0,0.658 0.06,1.179 0.225,1.617 0.165,0.439 0.461,0.79 0.838,0.998 0.753,0.416 1.673,0.37 2.931,0.385 h 8.004 c 1.258,-0.015 2.18,0.03 2.932,-0.385 0.3894,-0.22212 0.6866,-0.57606 0.838,-0.998 0.164,-0.438 0.224,-0.96 0.224,-1.617 v -6 c 0,-0.658 -0.06,-1.179 -0.224,-1.617 -0.1514,-0.42194 -0.4486,-0.77588 -0.838,-0.998 -0.753,-0.416 -1.674,-0.37 -2.932,-0.385 z" font-weight="400" overflow="visible" style="fill:#7ad42b"/>
  <path d="m 1280,-312 3.5,-2.5 -0.5,-0.5 h -6 l -0.5,0.5 z" font-size="15" font-weight="400" letter-spacing="0" word-spacing="0" style="fill:#7ad42b"/>
 </g>
 <path style="fill:currentColor;" class="ColorScheme-Text" d="m 2.0008314,14.4955 v 1.50075 H 11.00533 V 14.4955 Z"/>
 <path style="fill:currentColor;" class="ColorScheme-Text" d="m 2.0008314,16.74662 v 1.50075 H 9.5045315 V 16.74662 H 2.0008314 v 0"/>
</svg>
