<svg xmlns="http://www.w3.org/2000/svg" width="16" height="16">
 <g color="#000" transform="translate(-1093 247)">
  <path fill="#F7F7F7" opacity=".5" d="M1108-246.707l-4.707 4.707h1.414l2.293-2.293V-233h-11.293l4-4h-1.414l-4.146 4.146-.854.854H1108z" font-family="sans-serif" font-weight="400" overflow="visible"/>
  <path fill="#F7F7F7" d="M1096.5-241c-.829 0-1.496.667-1.496 1.496v.016c0 .829.667 1.496 1.496 1.496h.016c.83 0 1.496-.667 1.496-1.496v-.016c0-.829-.667-1.496-1.496-1.496zm4 0c-.829 0-1.496.667-1.496 1.496v.016c0 .829.667 1.496 1.496 1.496h.016c.83 0 1.496-.667 1.496-1.496v-.016c0-.829-.667-1.496-1.496-1.496zm4 0c-.829 0-1.496.667-1.496 1.496v.016c0 .829.667 1.496 1.496 1.496h.016c.83 0 1.496-.667 1.496-1.496v-.016c0-.829-.667-1.496-1.496-1.496z" display="block" overflow="visible"/>
 </g>
</svg>
