<?xml version="1.0" encoding="UTF-8" standalone="no"?>
<!-- Created with Inkscape (http://www.inkscape.org/) -->
<svg id="svg7384" xmlns:rdf="http://www.w3.org/1999/02/22-rdf-syntax-ns#" xmlns="http://www.w3.org/2000/svg" height="16" width="16" version="1.1" xmlns:cc="http://creativecommons.org/ns#" xmlns:dc="http://purl.org/dc/elements/1.1/">
 <metadata id="metadata90">
  <rdf:RDF>
   <cc:Work rdf:about="">
    <dc:format>image/svg+xml</dc:format>
    <dc:type rdf:resource="http://purl.org/dc/dcmitype/StillImage"/>
    <dc:title>Gnome Symbolic Icon Theme</dc:title>
   </cc:Work>
  </rdf:RDF>
 </metadata>
 <title id="title9167">Gnome Symbolic Icon Theme</title>
 <defs id="defs7386">
  <clipPath id="clipPath6254-6" clipPathUnits="userSpaceOnUse">
   <rect id="rect6256-6" style="color:#bebebe;fill:#bebebe" height="4.8783" width="1.8762" y="221.5" x="26.999"/>
  </clipPath>
 </defs>
 <g id="layer9" transform="translate(-181 -177)">
  <path id="path19592-2" style="color:#bebebe;fill:#bebebe" d="m188.85 181.97c1.6424-0.092 3.0955 1.1701 3.1875 2.8125-0.0001 1.4014-0.37771 1.9218-1.5938 2.8438-0.19093 0.14364-0.3256 0.2506-0.375 0.3125-0.0494 0.0621-0.0312 0.0332-0.0312 0.0312 0.007 0.52831-0.47163 1-1 1s-1.007-0.47169-1-1c0-0.50239 0.22424-0.94342 0.46875-1.25 0.24451-0.30663 0.4913-0.51638 0.71875-0.6875 0.20405-0.16056 0.46083-0.38454 0.6875-0.65625 0.0935-0.1121 0.129-0.30766 0.125-0.4375v-0.0312c-0.0316-0.56324-0.49926-0.9691-1.0625-0.9375s-0.9691 0.43676-0.9375 1h-2c-0.092-1.6424 1.1701-2.9079 2.8125-3zm0.1875 8c0.55228 0 1 0.44772 1 1s-0.44772 1-1 1-1-0.44772-1-1 0.44772-1 1-1z"/>
  <path id="path14835" style="opacity:.35;block-progression:tb;text-indent:0;color:#000000;text-transform:none;fill:#bebebe" d="m27.125 221.31a0.3616 0.3616 0 0 0 -0.21875 0.59375 0.3616 0.3616 0 0 0 0.03125 0.0312c1.1066 1.1066 1.1066 2.8934 0 4a0.3616 0.3616 0 1 0 0.5 0.5c1.383-1.383 1.383-3.617 0-5a0.3616 0.3616 0 0 0 -0.3125 -0.125z" clip-path="url(#clipPath6254-6)" transform="matrix(0 -2.6667 2.8685 0 -453.37 255)"/>
  <path id="path14861" style="opacity:.35;fill:#bebebe" d="m186 187h1.0156c0.0239-0.34343 0.13908-0.71932 0.51425-1h-1.5299z"/>
  <path id="path15371" style="opacity:.35;fill:#bebebe" d="m184 185h1.0156c-0.0156-0.68021 0.10253-1.652 0.66407-2.1802-0.58 0.18-1.25 0.68-1.68 1.18z"/>
  <path id="path15375" style="opacity:.35;fill:#bebebe" d="m194 185h-1.0156c0.0156-0.68021-0.10252-1.652-0.66406-2.1802 0.58372 0.18017 1.2471 0.68354 1.6797 1.1802z"/>
 </g>
</svg>
