<svg xmlns="http://www.w3.org/2000/svg" width="16.003" height="16" version="1.1">
 <g label="status" transform="translate(-752.99732,287.00013)">
  <path d="m 761.0002,-285 c -2.61035,-6.3e-4 -5.22032,0.83804 -7.40039,2.51758 l -0.26563,0.20508 0.20508,0.26367 7.45703,9.67187 1.00391,-1.30078 V -276 h 1.01367 c 0.0196,-1.63493 1.34252,-3 2.98633,-3 0.0435,0 0.0839,0.0118 0.12695,0.0137 l 2.53711,-3.28711 -0.26367,-0.20508 c -2.17924,-1.6806 -4.79004,-2.52084 -7.40039,-2.52148 z m 5,7 c -1.108,0 -2,0.91085 -2,2.03125 V -275 h -1 v 4 h 6 v -4 h -1 v -0.96875 c 0,-1.1199 -0.892,-2.03125 -2,-2.03125 z m 0,1 c 0.554,0 1,0.4424 1,1 v 1 h -2 v -1 c 0,-0.5576 0.446,-1 1,-1 z" style="solid-color:#F7F7F7;fill:#F7F7F7"/>
 </g>
</svg>
