<svg xmlns="http://www.w3.org/2000/svg" width="16" height="16" version="1.1">
 <g label="status" transform="translate(-1173.0001,-72.999992)">
  <path d="m 1182.3986,79.91797 c -1.3485,0.002 -2.4936,0.83187 -3.041,2.01953 l -0.039,0.0801 -0.086,0.008 c -1.2463,0.09057 -2.2324,1.16875 -2.2324,2.48026 0,1.37056 1.0723,2.49414 2.3984,2.49414 h 3.002 2.8008 c 0.9944,0 1.7988,-0.8435 1.7988,-1.86719 0,-0.77628 -0.4678,-1.42816 -1.1289,-1.70898 l -0.086,-0.0371 -0.01,-0.0918 c -0.085,-1.87001 -1.5525,-3.37451 -3.375,-3.37695 z m 0,1 v 0 c 1.2729,0.002 2.3166,1.0496 2.3789,2.42187 v 0.0312 l 0.076,0.70508 0.627,0.26758 C 1185.7851,84.47307 1186,84.75742 1186,85.13281 1186,85.6331 1185.6297,86 1185.2012,86 h -2.8008 -3.002 C 1178.6377,86 1178,85.35468 1178,84.50586 c 0,-0.80941 0.5913,-1.43157 1.3027,-1.48438 l 0.6719,-0.0469 0.2891,-0.61523 v -0.004 c 0.3992,-0.86626 1.1932,-1.43521 2.1308,-1.4375 z" style="fill:#F7F7F7"/>
  <path d="m 1182.5002,74 c -1.3573,0.002 -2.5911,0.78806 -3.166,2.01758 -0.111,-0.01118 -0.2225,-0.01705 -0.334,-0.01758 -1.7604,0.002 -3.2457,1.3104 -3.4687,3.05664 -0.898,0.21648 -1.5309,1.0197 -1.5313,1.94336 0,1.10457 0.8954,2 2,2 h 0.2695 a 3.5,3.25 0 0 1 0.711,-1 h -0.9824 c -0.5641,0 -1,-0.43587 -1,-1 2e-4,-0.46713 0.3115,-0.86122 0.7656,-0.9707 l 0.6699,-0.16211 0.088,-0.6836 c 0.1603,-1.25505 1.2114,-2.18249 2.4766,-2.18359 0.078,5e-4 0.1563,0.004 0.2343,0.01172 l 0.7051,0.07226 0.3008,-0.64257 c 0.4114,-0.87978 1.2887,-1.4394 2.2598,-1.44141 v 0 c 1.3909,0.001 2.497,1.10707 2.4981,2.49805 V 77.5 c 0,0.12733 -0.012,0.25327 -0.033,0.37891 l -0.1601,0.96875 0.9648,0.17968 c 0.7176,0.13225 1.2281,0.743 1.2286,1.47266 0,0.84027 -0.6597,1.5 -1.5,1.5 h -0.4981 v 1 h 0.5 c 1.3807,0 2.5,-1.11929 2.5,-2.5 -7e-4,-1.20536 -0.8615,-2.23856 -2.0469,-2.45703 0.03,-0.1795 0.045,-0.36104 0.047,-0.54297 0,-1.933 -1.567,-3.5 -3.5,-3.5 z" style="fill:#F7F7F7"/>
 </g>
</svg>
