<svg xmlns="http://www.w3.org/2000/svg" style="isolation:isolate" width="256" height="256" viewBox="0 0 256 256">
 <defs>
  <filter id="XQlhTZqRgV3RAaYsfhQlHkewJ1hSDS8V" width="270.648" height="254.338" x="-7.32" y="2.95" filterUnits="userSpaceOnUse">
   <feGaussianBlur xmlns="http://www.w3.org/2000/svg" in="SourceGraphic" stdDeviation="4.294"/>
   <feOffset xmlns="http://www.w3.org/2000/svg" dx="0" dy="4" result="pf_100_offsetBlur"/>
   <feFlood xmlns="http://www.w3.org/2000/svg" flood-opacity=".4"/>
   <feComposite xmlns="http://www.w3.org/2000/svg" in2="pf_100_offsetBlur" operator="in" result="pf_100_dropShadow"/>
   <feBlend xmlns="http://www.w3.org/2000/svg" in="SourceGraphic" in2="pf_100_dropShadow" mode="normal"/>
  </filter>
 </defs>
 <g filter="url(#XQlhTZqRgV3RAaYsfhQlHkewJ1hSDS8V)">
  <path fill="#5884F4" d="M 165.685 11.947 C 239.74 11.947 250.324 22.504 250.324 96.491 L 250.324 155.742 C 250.324 229.728 239.74 240.285 165.685 240.285 L 90.315 240.285 C 16.26 240.285 5.676 229.728 5.676 155.742 L 5.676 96.491 C 5.676 22.504 16.26 11.947 90.315 11.947 L 165.685 11.947 Z"/>
 </g>
 <g opacity=".1">
  <path fill="#FFFFFF" d="M 5.676 126.116 L 5.676 155.742 C 5.676 229.728 16.26 240.285 90.315 240.285 L 165.685 240.285 C 239.74 240.285 250.324 229.728 250.324 155.742 L 250.324 126.116 L 5.676 126.116 Z"/>
 </g>
 <g opacity=".2">
  <path fill="#FFFFFF" d="M 128 11.947 L 128 240.285 L 165.685 240.285 C 239.74 240.285 250.324 229.728 250.324 155.742 L 250.324 96.491 C 250.324 22.504 239.74 11.947 165.685 11.947 L 128 11.947 Z"/>
 </g>
 <g opacity=".4">
  <linearGradient id="_lgradient_4" x1=".517" x2=".517" y1="0" y2="1">
   <stop offset="0%" style="stop-color:rgb(255,255,255)"/>
   <stop offset="12.5%" stop-opacity=".098" style="stop-color:rgb(255,255,255)"/>
   <stop offset="92.5%" stop-opacity=".098" style="stop-color:rgb(0,0,0)"/>
   <stop offset="100%" stop-opacity=".498" style="stop-color:rgb(0,0,0)"/>
  </linearGradient>
  <path fill="none" stroke="url(#_lgradient_4)" stroke-linecap="round" stroke-linejoin="round" stroke-width="4.077" d="M 165.685 11.947 C 239.74 11.947 250.324 22.504 250.324 96.491 L 250.324 155.742 C 250.324 229.728 239.74 240.285 165.685 240.285 L 90.315 240.285 C 16.26 240.285 5.676 229.728 5.676 155.742 L 5.676 96.491 C 5.676 22.504 16.26 11.947 90.315 11.947 L 165.685 11.947 Z" vector-effect="non-scaling-stroke"/>
 </g>
 <g>
  <g style="opacity:0.3" filter="url(#6gKW5reTqBPgL5mcs346ilaSKPivClRw)">
   <path fill="#210000" d="M 83.573 77.735 C 82.914 77.694 82.278 77.897 81.753 78.425 L 70.379 89.799 C 69.33 90.848 69.33 92.537 70.379 93.586 L 82.129 112.043 C 81.189 113.941 80.375 115.898 79.691 117.903 L 58.347 122.643 C 56.863 122.643 55.668 123.837 55.668 125.322 L 55.668 141.393 C 55.668 142.877 56.898 143.75 58.347 144.072 L 79.702 148.822 C 80.363 150.806 81.153 152.747 82.067 154.629 L 70.296 173.128 C 69.499 174.379 69.246 175.866 70.296 176.915 L 81.659 188.289 C 82.708 189.338 84.397 189.338 85.446 188.289 L 103.945 176.507 C 105.859 177.461 107.834 178.285 109.857 178.977 L 114.597 200.321 C 114.597 201.806 115.791 203 117.275 203 L 133.347 203 C 134.831 203 135.703 201.771 136.025 200.321 L 140.776 178.966 C 142.79 178.294 144.758 177.49 146.666 176.56 L 165.081 188.289 C 166.131 189.338 167.82 189.338 168.869 188.289 L 180.243 176.915 C 181.292 175.866 181.039 174.38 180.243 173.128 L 175.22 165.238 L 171.474 166.735 L 159.473 148.738 C 153.425 162.187 140.057 170.842 125.311 170.857 C 104.6 170.857 87.811 154.068 87.811 133.357 C 87.828 118.889 96.167 105.72 109.239 99.519 L 109.239 87.989 C 107.437 88.606 105.673 89.329 103.956 90.155 L 85.54 78.426 C 84.914 78.027 84.233 77.765 83.573 77.735 L 83.573 77.735 Z"/>
   <path fill="#210000" d="M 141.382 53 L 114.597 55.48 L 114.597 160.143 L 141.382 154.786 L 141.382 111.929 L 173.525 160.143 L 200.311 149.429 L 165.49 104.353 L 200.332 58.357 L 172.28 53 L 141.382 98.536 L 141.382 53 Z"/>
  </g>
  <defs>
   <filter id="6gKW5reTqBPgL5mcs346ilaSKPivClRw" width="160.664" height="166" x="47.67" y="45" filterUnits="userSpaceOnUse">
    <feGaussianBlur xmlns="http://www.w3.org/2000/svg" stdDeviation="1.717"/>
   </filter>
  </defs>
  <g>
   <path fill="#FFFFFF" d="M 83.573 77.735 C 82.914 77.694 82.278 77.897 81.753 78.425 L 70.379 89.799 C 69.33 90.848 69.33 92.537 70.379 93.586 L 82.129 112.043 C 81.189 113.941 80.375 115.898 79.691 117.903 L 58.347 122.643 C 56.863 122.643 55.668 123.837 55.668 125.322 L 55.668 141.393 C 55.668 142.877 56.898 143.75 58.347 144.072 L 79.702 148.822 C 80.363 150.806 81.153 152.747 82.067 154.629 L 70.296 173.128 C 69.499 174.379 69.246 175.866 70.296 176.915 L 81.659 188.289 C 82.708 189.338 84.397 189.338 85.446 188.289 L 103.945 176.507 C 105.859 177.461 107.834 178.285 109.857 178.977 L 114.597 200.321 C 114.597 201.806 115.791 203 117.275 203 L 133.347 203 C 134.831 203 135.703 201.771 136.025 200.321 L 140.776 178.966 C 142.79 178.294 144.758 177.49 146.666 176.56 L 165.081 188.289 C 166.131 189.338 167.82 189.338 168.869 188.289 L 180.243 176.915 C 181.292 175.866 181.039 174.38 180.243 173.128 L 175.22 165.238 L 171.474 166.735 L 159.473 148.738 C 153.425 162.187 140.057 170.842 125.311 170.857 C 104.6 170.857 87.811 154.068 87.811 133.357 C 87.828 118.889 96.167 105.72 109.239 99.519 L 109.239 87.989 C 107.437 88.606 105.673 89.329 103.956 90.155 L 85.54 78.426 C 84.914 78.027 84.233 77.765 83.573 77.735 L 83.573 77.735 Z"/>
   <path fill="#FFFFFF" d="M 141.382 53 L 114.597 55.48 L 114.597 160.143 L 141.382 154.786 L 141.382 111.929 L 173.525 160.143 L 200.311 149.429 L 165.49 104.353 L 200.332 58.357 L 172.28 53 L 141.382 98.536 L 141.382 53 Z"/>
  </g>
 </g>
</svg>
