<?xml version="1.0" encoding="UTF-8" standalone="no"?>
<svg
   xmlns:dc="http://purl.org/dc/elements/1.1/"
   xmlns:cc="http://creativecommons.org/ns#"
   xmlns:rdf="http://www.w3.org/1999/02/22-rdf-syntax-ns#"
   xmlns:svg="http://www.w3.org/2000/svg"
   xmlns="http://www.w3.org/2000/svg"
   xmlns:sodipodi="http://sodipodi.sourceforge.net/DTD/sodipodi-0.dtd"
   xmlns:inkscape="http://www.inkscape.org/namespaces/inkscape"
   height="16"
   width="16"
   version="1.1"
   id="svg8"
   sodipodi:docname="applications-graphics-symbolic.svg"
   inkscape:version="0.92.3 (2405546, 2018-03-11)">
  <metadata
     id="metadata14">
    <rdf:RDF>
      <cc:Work
         rdf:about="">
        <dc:format>image/svg+xml</dc:format>
        <dc:type
           rdf:resource="http://purl.org/dc/dcmitype/StillImage" />
      </cc:Work>
    </rdf:RDF>
  </metadata>
  <defs
     id="defs12" />
  <sodipodi:namedview
     pagecolor="#ffffff"
     bordercolor="#666666"
     borderopacity="1"
     objecttolerance="10"
     gridtolerance="10"
     guidetolerance="10"
     inkscape:pageopacity="0"
     inkscape:pageshadow="2"
     inkscape:window-width="1291"
     inkscape:window-height="920"
     id="namedview10"
     showgrid="false"
     inkscape:zoom="14.75"
     inkscape:cx="0.47457627"
     inkscape:cy="8"
     inkscape:window-x="0"
     inkscape:window-y="34"
     inkscape:window-maximized="0"
     inkscape:current-layer="svg8" />
  <g
     transform="translate(-911.998 -443.948)"
     id="g6"
     style="fill:#808080;fill-opacity:1">
    <path
       d="M919.89 443.951c-2.11.03-4.945.802-4.897 3.28.05 2.587 2.917 1.662 3.15 2.719.036-.045.089-.082.125-.125.198-.213.395-.388.593-.594.312-.352.636-.679.967-1.03 1.107-1.179 1.154-1.25 3.796-3.25-1.035-.621-2.258-.966-3.297-1-.133-.005-.296-.002-.437 0zm-1.903 1.531c.827 0 1.498.671 1.498 1.5a1.499 1.499 0 1 1-1.498-1.5zm7.27.662c-1.42 2.233-2.368 3.556-3.37 4.587-.64.658-1.163 1.312-1.622 1.781-.84.89-1.938 1.94-3.15 3.093.062 1.47.81 2.747 3.243 3.218 3.898.756 8.027-1.824 7.611-7.06-.178-2.249-1.405-4.282-2.713-5.62zm.342 3.806a1 1 0 0 1 0 2 1 1 0 0 1 0-2zm-.624 3a1 1 0 0 1 0 2 1 1 0 0 1 0-2zm-4.991 2a1 1 0 0 1 0 1.999 1 1 0 0 1 0-2zm2.994 0a1 1 0 0 1 0 1.999 1 1 0 0 1 0-2zM911.998 457.447c1.552.001 1.394-1.787 2.148-2.285.873-.577 1.638.138 1.791.726.193.743-.117 1.632-1.13 1.885-1.073.268-2.662.276-2.809-.326z"
       fill="#666"
       id="path2"
       style="fill:#808080;fill-opacity:1" />
    <path
       d="M926.035 443.951c-1.8 1.299-4.206 3.302-6.114 5.334-.174.184-.341.362-.505.547-.103.107-.212.195-.315.307-.065.077-.126.163-.19.24-1.872 2.07-3.719 4.68-4.916 6.632 2.977-2.297 4.916-4.164 6.146-5.47.24-.246.53-.566.851-.923 1.204-1.335 2.925-3.438 5.043-6.667z"
       fill="#666"
       id="path4"
       style="fill:#808080;fill-opacity:1" />
  </g>
</svg>
