<svg xmlns="http://www.w3.org/2000/svg" style="isolation:isolate" width="256" height="256" viewBox="0 0 256 256">
 <defs>
  <filter id="o0Sp42Gf9B5bv4HkJYCDPdKewpdfJwxR" width="270.648" height="254.338" x="-7.32" y="2.95" filterUnits="userSpaceOnUse">
   <feGaussianBlur xmlns="http://www.w3.org/2000/svg" in="SourceGraphic" stdDeviation="4.294"/>
   <feOffset xmlns="http://www.w3.org/2000/svg" dx="0" dy="4" result="pf_100_offsetBlur"/>
   <feFlood xmlns="http://www.w3.org/2000/svg" flood-opacity=".4"/>
   <feComposite xmlns="http://www.w3.org/2000/svg" in2="pf_100_offsetBlur" operator="in" result="pf_100_dropShadow"/>
   <feBlend xmlns="http://www.w3.org/2000/svg" in="SourceGraphic" in2="pf_100_dropShadow" mode="normal"/>
  </filter>
 </defs>
 <g filter="url(#o0Sp42Gf9B5bv4HkJYCDPdKewpdfJwxR)">
  <linearGradient id="_lgradient_298" x1="-.033" x2="1.033" y1="-.071" y2=".995" gradientTransform="matrix(244.648,0,0,228.338,5.676,11.947)" gradientUnits="userSpaceOnUse">
   <stop offset="0%" style="stop-color:rgb(88,132,244)"/>
   <stop offset="100%" style="stop-color:rgb(128,163,250)"/>
  </linearGradient>
  <path fill="url(#_lgradient_298)" d="M 165.685 11.947 C 239.74 11.947 250.324 22.504 250.324 96.491 L 250.324 155.742 C 250.324 229.728 239.74 240.285 165.685 240.285 L 90.315 240.285 C 16.26 240.285 5.676 229.728 5.676 155.742 L 5.676 96.491 C 5.676 22.504 16.26 11.947 90.315 11.947 L 165.685 11.947 Z"/>
 </g>
 <g opacity=".4">
  <linearGradient id="_lgradient_299" x1=".517" x2=".517" y1="0" y2="1">
   <stop offset="0%" style="stop-color:rgb(255,255,255)"/>
   <stop offset="12.5%" stop-opacity=".098" style="stop-color:rgb(255,255,255)"/>
   <stop offset="92.5%" stop-opacity=".098" style="stop-color:rgb(0,0,0)"/>
   <stop offset="100%" stop-opacity=".498" style="stop-color:rgb(0,0,0)"/>
  </linearGradient>
  <path fill="none" stroke="url(#_lgradient_299)" stroke-linecap="round" stroke-linejoin="round" stroke-width="4.077" d="M 165.685 11.947 C 239.74 11.947 250.324 22.504 250.324 96.491 L 250.324 155.742 C 250.324 229.728 239.74 240.285 165.685 240.285 L 90.315 240.285 C 16.26 240.285 5.676 229.728 5.676 155.742 L 5.676 96.491 C 5.676 22.504 16.26 11.947 90.315 11.947 L 165.685 11.947 Z" vector-effect="non-scaling-stroke"/>
 </g>
 <g>
  <g opacity=".2">
   <linearGradient id="_lgradient_300" x1=".483" x2=".58" y1=".427" y2=".75" gradientTransform="matrix(243.716,0,0,118.493,6.875,121.736)" gradientUnits="userSpaceOnUse">
    <stop offset="0%" style="stop-color:rgb(255,255,255)"/>
    <stop offset="100%" stop-opacity="0" style="stop-color:rgb(255,255,255)"/>
   </linearGradient>
   <path fill="url(#_lgradient_300)" d="M 193.625 239.375 C 218.875 237.625 232.814 231.716 239.75 220.875 C 243.159 215.812 245.898 208.296 247.5 199.625 C 252.606 171.991 249.766 132.45 250.107 121.736 C 239.34 123.131 230.421 131.161 228.082 142.006 C 227.681 142.531 227.299 143.071 226.937 143.624 C 225.41 143.008 223.778 142.69 222.131 142.686 C 215.211 142.694 209.524 148.149 209.227 155.063 C 202.424 156.098 195.694 157.571 189.08 159.473 C 185.905 149.877 176.94 143.395 166.833 143.387 C 154.457 143.401 144.222 153.029 143.451 165.38 C 141.818 165.054 140.157 164.889 138.491 164.887 C 124.459 164.888 113.083 176.263 113.083 190.296 C 113.091 194.755 114.272 199.133 116.507 202.99 C 112.339 207.262 108.414 211.764 104.749 216.475 C 96.299 209.976 87.116 204.491 77.388 200.131 C 76.704 189.999 68.287 182.13 58.131 182.128 C 56.878 182.134 55.628 182.262 54.399 182.51 C 51.757 172.996 43.095 166.412 33.221 166.411 C 21.081 166.412 11.24 176.253 11.241 188.393 C 11.244 188.512 11.249 188.632 11.253 188.751 C 10.023 188.861 8.498 188.872 6.875 188.861 C 7.125 191.25 9.375 219.25 22.875 227.875 Q 35.625 239.25 76.125 240.229 L 177.125 240.229 Q 185.434 239.997 193.625 239.375 Z"/>
  </g>
  <defs>
   <filter id="59WGlss7GpueJ2eH3OmPcyBrSzqc31ce" width="173.776" height="173.776" x="41.11" y="23.88" filterUnits="userSpaceOnUse">
    <feGaussianBlur xmlns="http://www.w3.org/2000/svg" stdDeviation="3.825"/>
   </filter>
  </defs>
  <g opacity=".3" filter="url(#59WGlss7GpueJ2eH3OmPcyBrSzqc31ce)">
   <linearGradient id="_lgradient_301" x1=".029" x2=".971" y1=".023" y2=".964" gradientTransform="matrix(155.959,0,0,155.959,50.02,32.79)" gradientUnits="userSpaceOnUse">
    <stop offset="0%" stop-opacity="0" style="stop-color:rgb(0,0,0)"/>
    <stop offset="50.477%" style="stop-color:rgb(0,0,0)"/>
    <stop offset="100%" stop-opacity="0" style="stop-color:rgb(0,0,0)"/>
   </linearGradient>
   <path fill="url(#_lgradient_301)" d="M 107.105 32.79 L 95.04 53.685 L 70.915 53.685 L 70.915 77.809 L 50.02 89.874 L 62.084 110.769 L 50.02 131.664 L 70.915 143.728 L 70.915 167.854 L 95.042 167.854 L 107.105 188.749 L 128 176.686 L 148.895 188.749 L 160.96 167.854 L 185.085 167.854 L 185.085 143.73 L 205.98 131.664 L 193.916 110.769 L 205.98 89.874 L 185.085 77.811 L 185.085 53.685 L 160.958 53.685 L 148.895 32.79 L 128 44.853 L 107.105 32.79 Z"/>
  </g>
  <g>
   <g>
    <rect fill="#FEDF7C" width="57.085" height="57.085" x="109.91" y="42.22" transform="matrix(0.5,0.866,-0.866,0.5,130.504,-84.519)"/>
    <rect fill="#F9C010" width="57.085" height="57.085" x="138.45" y="91.66" transform="matrix(0.5,0.866,-0.866,0.5,187.589,-84.519)"/>
    <rect fill="#FBCD42" width="57.085" height="57.085" x="89.01" y="120.2" transform="matrix(0.5,0.866,-0.866,0.5,187.589,-27.434)"/>
    <rect fill="#FAE695" width="57.085" height="57.085" x="60.47" y="70.76" transform="matrix(0.5,0.866,-0.866,0.5,130.504,-27.434)"/>
   </g>
   <g>
    <rect fill="#FBCD42" width="57.085" height="57.085" x="138.45" y="70.76" transform="matrix(-0.5,0.866,-0.866,-0.5,336.483,4.337)"/>
    <rect fill="#F9C010" width="57.085" height="57.085" x="109.91" y="120.2" transform="matrix(-0.5,0.866,-0.866,-0.5,336.483,103.21)"/>
    <rect fill="#FEDF7C" width="57.085" height="57.085" x="60.47" y="91.66" transform="matrix(-0.5,0.866,-0.866,-0.5,237.61,103.21)"/>
    <rect fill="#FAE695" width="57.085" height="57.085" x="89.01" y="42.22" transform="matrix(-0.5,0.866,-0.866,-0.5,237.61,4.337)"/>
   </g>
   <clipPath id="_clipPath_AYMQASlJPH5TVuy2C80nHnCD0tsBdLKQ">
    <path fill="#FFFFFF" d="M 107.297 32.487 L 95.344 53.19 L 71.44 53.19 L 71.44 77.094 L 50.737 89.047 L 62.69 109.75 L 50.737 130.453 L 86.595 151.155 L 107.297 187.013 L 128 175.06 L 148.703 187.013 L 169.405 151.155 L 205.263 130.453 L 193.31 109.75 L 205.263 89.047 L 169.405 68.345 L 148.703 32.487 L 128 44.44 L 107.297 32.487 Z"/>
   </clipPath>
   <g clip-path="url(#_clipPath_AYMQASlJPH5TVuy2C80nHnCD0tsBdLKQ)">
    <g style="opacity:0.62900002" filter="url(#PlmHfwJhQYtbqjmEug8q3DH7L3ZYYKsE)">
     <g opacity=".629">
      <path fill="#E7B108" d="M 128 53.189 C 96.901 53.198 71.642 78.313 71.456 109.412 L 71.439 109.412 L 71.439 109.75 L 71.439 166.311 L 127.981 166.311 L 127.981 166.31 C 127.987 166.31 127.994 166.31 128 166.311 C 159.099 166.302 184.358 141.187 184.544 110.088 L 184.561 110.088 L 184.561 109.75 L 184.561 53.189 L 128.019 53.189 L 128.019 53.19 C 128.013 53.19 128.006 53.189 128 53.189 L 128 53.189 Z"/>
     </g>
    </g>
    <defs>
     <filter id="PlmHfwJhQYtbqjmEug8q3DH7L3ZYYKsE" width="164.813" height="164.813" x="45.59" y="27.34" filterUnits="userSpaceOnUse">
      <feGaussianBlur xmlns="http://www.w3.org/2000/svg" stdDeviation="5.549"/>
     </filter>
    </defs>
   </g>
   <rect fill="#FBEDB3" width="57.085" height="53.007" x="70.92" y="52.66" transform="matrix(1,0,0,1,0,0)"/>
   <rect fill="#F9C010" width="57.085" height="53.007" x="128" y="113.83" transform="matrix(1,0,0,1,0,0)"/>
   <path fill="#FED965" d="M 128 52.665 C 96.612 52.674 71.12 78.022 70.932 109.409 L 70.915 109.409 L 70.915 109.75 L 70.915 166.835 L 127.981 166.835 L 127.981 166.834 C 127.987 166.834 127.994 166.834 128 166.835 C 159.388 166.826 184.88 141.478 185.068 110.091 L 185.085 110.091 L 185.085 109.75 L 185.085 52.665 L 128.019 52.665 L 128.019 52.666 C 128.013 52.666 128.006 52.666 128 52.665 L 128 52.665 Z"/>
   <g opacity=".8">
    <path fill="#FFFFFF" d="M 128 52.665 C 96.612 52.673 71.118 78.022 70.931 109.41 L 70.915 109.41 L 70.915 109.75 L 70.915 111.448 L 70.931 111.448 C 71.118 80.06 96.612 54.712 128 54.704 C 128.007 54.704 128.013 54.704 128.02 54.704 L 185.085 54.704 L 185.085 52.665 L 128.02 52.665 C 128.013 52.665 128.007 52.665 128 52.665 L 128 52.665 Z"/>
   </g>
  </g>
  <g>
   <defs>
    <filter id="touR6Bg6EtFY481nCLoYlDIm7fnPV3rv" width="102.865" height="74.323" x="111.23" y="106.23" filterUnits="userSpaceOnUse">
     <feGaussianBlur xmlns="http://www.w3.org/2000/svg" stdDeviation="1.95"/>
    </filter>
   </defs>
   <g opacity=".3" filter="url(#touR6Bg6EtFY481nCLoYlDIm7fnPV3rv)">
    <path d="M 166.736 110.769 C 153.426 110.779 141.456 118.876 136.493 131.226 C 124.803 132.115 115.77 141.859 115.768 153.583 C 115.768 165.968 125.808 176.009 138.194 176.009 L 166.626 176.009 L 166.736 176.009 L 187.123 176.009 C 199.509 176.009 209.549 165.968 209.549 153.583 C 209.548 145.403 205.093 137.872 197.924 133.932 C 193.761 120.187 181.097 110.783 166.736 110.769 L 166.736 110.769 Z"/>
   </g>
   <path fill="#ECF9FE" d="M 166.736 109.75 C 153.426 109.76 141.456 117.856 136.493 130.207 C 124.803 131.096 115.77 140.839 115.768 152.563 C 115.768 164.949 125.808 174.99 138.194 174.99 L 166.626 174.99 L 166.736 174.99 L 187.123 174.99 C 199.509 174.99 209.549 164.949 209.549 152.563 C 209.548 144.383 205.093 136.852 197.924 132.913 C 193.761 119.168 181.097 109.763 166.736 109.75 L 166.736 109.75 Z"/>
   <path fill="#FFFFFF" d="M 166.736 109.75 C 153.426 109.76 141.456 117.856 136.493 130.207 C 124.803 131.096 115.77 140.839 115.768 152.563 C 115.777 152.897 115.793 153.23 115.817 153.563 C 116.343 142.258 125.21 133.117 136.493 132.246 C 141.456 119.895 153.426 111.799 166.736 111.789 C 181.098 111.802 193.761 121.207 197.924 134.951 C 204.819 138.752 209.215 145.891 209.508 153.758 C 209.532 153.36 209.546 152.962 209.549 152.563 C 209.548 144.383 205.093 136.852 197.924 132.913 C 193.761 119.168 181.098 109.763 166.736 109.75 L 166.736 109.75 Z"/>
  </g>
 </g>
</svg>
