<svg xmlns="http://www.w3.org/2000/svg" width="256" height="256" version="1.1">
  <defs>
   <linearGradient id="gradients" x1="971.138" x2="975.537" y1="-1487.17" y2="19.037" gradientTransform="matrix(.11988932 0 0 .11988932 3.1009196 232.21778)" gradientUnits="userSpaceOnUse">
    <stop style="stop-color:#09D4DF" offset="0"/>
    <stop style="stop-color:#9269F4" offset="1"/>
   </linearGradient>
   <radialGradient id="b" cx=".5" cy=".5" r=".272" fx=".5" fy=".136" gradientTransform="matrix(230 0 0 60.62 13 21)" gradientUnits="userSpaceOnUse">
    <stop offset="0%" stop-color="#ffffff"/>
    <stop offset="100%" stop-color="#ffffff" stop-opacity=".204"/>
   </radialGradient>
   <radialGradient id="c" cx=".5" cy=".5" r=".272" fx=".482" fy=".211" gradientTransform="matrix(230 0 0 58.565 13 53.922)" gradientUnits="userSpaceOnUse">
    <stop offset="0%" stop-color="#ffffff"/>
    <stop offset="100%" stop-color="#ffffff" stop-opacity=".204"/>
   </radialGradient>
  </defs>
  <path fill="#AA00FF" d="M53.039 21C16.724 21 13 23.055 13 59.371v52.167h230V79.563c0-36.316-3.724-42.102-40.039-42.102h-89.336L97.198 21H53.039z"/>
  <path d="M 53.039,70.384 C 16.722,70.384 13,74.114 13,110.429 v 84.524 C 13,231.269 16.722,235 53.039,235 H 202.961 C 239.278,235 243,231.269 243,194.953 V 93.969 C 243,57.653 239.278,53.922 202.961,53.922 H 119.53 l -16.438,16.462 z" style="fill:url(#gradients)"/>
  <g opacity="0.4">
   <path fill="url(#b)" d="M 53.039,21 C 16.724,21 13,23.055 13,59.371 V 61.43 C 13,25.114 16.724,23.057 53.039,23.057 h 44.159 l 16.427,16.461 h 89.336 C 239.276,39.518 243,45.304 243,81.62 V 79.563 C 243,43.247 239.276,37.461 202.961,37.461 H 113.625 L 97.198,21 Z"/>
  </g>
  <g opacity="0.4">
   <path fill="url(#c)" d="M 119.53,53.922 103.092,70.384 H 53.039 C 16.724,70.384 13,74.112 13,110.427 v 2.06 C 13,76.171 16.724,72.441 53.039,72.441 h 50.053 l 16.438,-16.46 h 83.431 c 36.315,0 40.039,3.727 40.039,40.043 v -2.057 c 0,-36.316 -3.724,-40.045 -40.039,-40.045 z"/>
  </g>
  <path fill="#ffffff" opacity=".1" d="m 243,167.096 -65.715,65.845 h 25.676 c 36.315,0 40.039,-3.727 40.039,-40.043 z"/>
  <path opacity="0.2" d="m 13,192.898 v 2.057 C 13,231.271 16.724,235 53.039,235 H 202.961 C 239.276,235 243,231.271 243,194.955 v -2.057 c 0,36.316 -3.724,40.043 -40.039,40.043 H 53.039 C 16.724,232.941 13,229.214 13,192.898 Z"/>
  <path fill="#d7cff5" d="M180.432 212.932a4.959 4.959 0 0 1-2.982-1.564c-1.78-1.91-4.71-7.524-7.112-13.632-1.35-3.43-3.932-10.982-3.932-11.498 0-.162 1.704-1.288 3.786-2.5l3.786-2.204.594.556c2.352 2.208 9.122 12.322 13.07 19.524 1.58 2.88 1.738 3.29 1.732 4.478-.008 1.582-.506 2.686-1.914 4.252-1.686 1.876-4.594 2.946-7.028 2.588zm-112.522-1.88c.072-.194 1.224-5.39 2.562-11.55 1.336-6.158 2.46-11.234 2.496-11.28.12-.154 12.218 8.332 12.214 8.57 0 .13-3.498 3.134-7.77 6.678-9.62 7.98-9.66 8.012-9.502 7.582zm12.812-21.728c-3.37-2.33-6.102-4.336-6.07-4.456.08-.286 29.038-49.306 29.276-49.554.132-.138 12.786 7.818 13.378 8.41.128.128-29.98 49.728-30.22 49.784-.128.03-2.992-1.852-6.364-4.184zm79.48-12.954c-2.312-3.896-4.168-7.106-4.126-7.136.412-.29 9.168-5.324 9.262-5.324.144 0 7.496 14.64 7.388 14.716-.948.662-7.964 4.846-8.114 4.838-.114-.006-2.1-3.198-4.41-7.094zm-95.032-.734c-.08-.68-.114-6.166-.076-12.19l.072-10.952 12.138.076c6.678.036 12.168.098 12.202.132.034.03-3.178 5.486-7.14 12.118l-7.202 12.056h-9.848l-.146-1.24zm36.414.888c0-.06 3.296-5.524 7.326-12.138l7.328-12.026H142.248l6.952 11.578c3.824 6.368 7.088 11.832 7.254 12.14l.302.56H129.17c-15.172 0-27.586-.054-27.586-.114zm70.962-5.13c-1.4-2.886-4.036-8.296-5.856-12.022l-3.312-6.778h8.998c4.95 0 11.146-.068 13.772-.156l4.774-.154v24.354h-15.83l-2.546-5.244zm-20.09-7.78c-5.33-8.396-10.76-18.262-17.284-31.408-5.176-10.43-10.158-21.212-12.214-26.436-2.978-7.568-3.69-12.274-1.922-12.716 2.828-.71 8.362 5.712 16.242 18.846 6.172 10.288 16.048 28.266 23.582 42.934 1.4 2.722 2.794 5.39 3.098 5.928l.554.98-4.696 2.734c-2.582 1.502-4.782 2.734-4.888 2.734-.104 0-1.218-1.618-2.472-3.596zm-40.802-26.02l-6.548-4.316.618-.98c.34-.538 2.056-3.272 3.812-6.076a752.93 752.93 0 0 1 3.254-5.17c.034-.038 2.982 1.85 6.554 4.2l6.494 4.276-.968 1.574c-.53.866-2.13 3.484-3.552 5.818-1.424 2.332-2.708 4.41-2.852 4.616-.228.324-1.162-.216-6.812-3.942zm8.356-14.016c-3.392-2.216-6.17-4.134-6.17-4.262 0-.936 2.806-3.536 4.188-3.884 2.276-.57 6.006.888 8.086 3.162 1.606 1.758 1.958 2.618 1.808 4.418-.114 1.358-1.22 4.596-1.572 4.596-.094 0-2.946-1.812-6.34-4.03z"/>
</svg>