<svg xmlns="http://www.w3.org/2000/svg" width="16" height="16" version="1.1" style="enable-background:new">
 <g transform="translate(-545.00018,-81)">
  <path style="fill:#808080" d="m 548.0002,81.99972 c -1.108,-2e-5 -2,0.892 -2,2 l 0,2.99428 2,0.006 0,-3.00014 10,1.4e-4 0,10 -10,0 0,-3 -2,-0.006 0,3.00586 c 0,1.108 0.892,2 2,2 l 10,0 c 1.108,0 2,-0.892 2,-2 l 0,-10 c 0,-1.108 -0.892,-1.99998 -2,-2 z"/>
  <path style="fill:#808080" d="m 552.2117,85.000489 -1.38509,1.385851 1.63493,1.63476 -7.46136,-0.0211 0,2 7.46136,0.0211 -1.63493,1.63439 1.38509,1.38509 4.00086,-4.04061 z"/>
 </g>
</svg>
