<svg xmlns="http://www.w3.org/2000/svg" width="16" height="16">
 <g color="#000" transform="translate(-132 -100)">
  <path fill="#808080" d="M140 103l.001 5c.76-.348 1.535-.737 2.323-1.166a44.09 44.09 0 0 0 2.259-1.334c-.725-.449-1.478-.889-2.26-1.32A43.088 43.088 0 0 0 140 103z" overflow="visible"/>
  <path fill="#808080" d="M136.5 105c-1.93 0-3.5 1.57-3.5 3.5s1.57 3.5 3.5 3.5H147v-1h-10.5a2.484 2.484 0 0 1-2.5-2.5c0-1.394 1.106-2.5 2.5-2.5h4.5v-1h-.5z" font-family="sans-serif" font-weight="400" overflow="visible"/>
 </g>
</svg>
