<svg xmlns="http://www.w3.org/2000/svg" width="16" height="16" version="1.1">
 <g transform="translate(-32,-80)">
  <path style="fill:#808080" d="M 44.238,81 43.885,81.36 34.916,90.455 34.886,90.5 C 34.825,90.599 34.616,90.95 34.303,91.588 33.989,92.226 33.603,93.098 33.291,94.08 L 33,95 33.92,94.709 A 18.163,18.163 0 0 0 36.412,93.697 C 37.05,93.383 37.399,93.177 37.5,93.113 L 37.545,93.084 47,83.762 Z M 44,89 V 90 H 47 V 89 Z M 35.89,90.89 37.11,92.11 36.932,92.285 C 36.939,92.28 36.553,92.512 35.971,92.799 35.757,92.904 35.435,93.021 35.137,93.137 L 34.863,92.863 C 34.979,92.565 35.096,92.243 35.201,92.029 35.488,91.447 35.719,91.063 35.715,91.069 Z M 42,91 V 92 H 47 V 91 Z M 40,93 V 94 H 47 V 93 Z"/>
 </g>
</svg>
