<svg xmlns="http://www.w3.org/2000/svg" width="16" height="16" version="1.1">
 <g style="fill:#808080" transform="translate(-92,-80)">
  <path style="fill:#808080" d="M 105.24,81 104.89,81.36 95.916,90.455 95.886,90.5 C 95.825,90.599 95.616,90.95 95.303,91.588 94.989,92.226 94.603,93.098 94.291,94.08 L 94,95 94.92,94.709 A 18.163,18.163 0 0 0 97.412,93.697 C 98.05,93.383 98.399,93.177 98.5,93.113 L 98.545,93.084 108,83.762 Z M 96.891,90.89 98.109,92.11 97.932,92.285 C 97.939,92.28 97.553,92.512 96.971,92.799 96.757,92.904 96.435,93.021 96.137,93.137 L 95.863,92.863 C 95.979,92.565 96.096,92.243 96.201,92.029 96.488,91.447 96.719,91.063 96.715,91.069 Z"/>
  <path style="fill:#808080" d="M 104,81 H 97.5 C 96,81 95.007,81.64 94.526,82.558 94.044,83.476 94.001,84.576 94.001,85.628 V 86.001 H 92.001 C 92.348,86.761 92.737,87.538 93.167,88.326 93.597,89.106 94.042,89.859 94.501,90.584 94.95,89.859 95.39,89.106 95.821,88.326 A 43.07,43.07 0 0 0 97,86 V 86 H 95 V 85.63 C 95,84.617 95.079,83.655 95.41,83.024 95.74,82.393 96.25,82 97.5,82 H 104 Z"/>
 </g>
</svg>
