<svg xmlns="http://www.w3.org/2000/svg" width="16" height="16" version="1.1">
 <g>
  <g style="enable-background:new" transform="translate(0,-9.7991298e-4)">
   <g transform="translate(-180,60)">
    <g style="fill:#808080" transform="translate(240.98463,-57.969794)">
     <path style="fill:#808080" d="m -54.984835,0.4701882 c -0.133754,-0.003858 -0.263185,0.0475806 -0.357802,0.142198 -0.09462,0.0946175 -0.146056,0.2240483 -0.142198,0.357802 l 0,1 c -0.0039,0.1337537 0.04758,0.2631845 0.142198,0.357802 0.09462,0.094617 0.224048,0.146056 0.357802,0.142198 3.000107,0 2.771516,0.00347 3.625,0.25 0.426742,0.1232654 0.569536,0.264441 0.6875,0.46875 0.117964,0.204309 0.185652,0.5493391 0.1875,1.09375 l 0,0.1875 -2.5,0 c -1.178461,0.022794 -1.475394,0.016591 -2.5625,0.4375 -0.543553,0.2104548 -1.058614,0.5497257 -1.40625,1.0625 -0.347636,0.5127743 -0.53125,1.1789739 -0.53125,2 0,0.7635038 0.03698,1.348337 0.15625,1.84375 0.119266,0.4954128 0.35812,0.9262468 0.75,1.1874998 0.783759,0.522506 0.84375,0.46875 2.59375,0.46875 1.404462,0.01929 2.49198,-0.296984 3.5,-1.125 l 0,0.625 c -0.0039,0.133754 0.04758,0.263185 0.142198,0.357802 0.09462,0.09462 0.224048,0.146056 0.357802,0.142198 l 3,0 c 0.133754,0.0039 0.263185,-0.04758 0.357802,-0.142198 0.09462,-0.09462 0.146056,-0.224048 0.142198,-0.357802 l 0,-0.9999998 c 0.0039,-0.133754 -0.04758,-0.263185 -0.142198,-0.357802 -0.09462,-0.094617 -0.224048,-0.146056 -0.357802,-0.142198 l -1.5,0 0,-4.375 c 0,-1.0602805 -0.115145,-1.8704791 -0.34375,-2.53125 -0.228605,-0.6607709 -0.605172,-1.1848662 -1.125,-1.5 -1.039656,-0.6302677 -1.767285,-0.59375 -2.3125,-0.59375 -1.722754,0.0115436 -1.21625,0 -2.71875,0 z m 4.5,6 0,1.21875 c -0.703863,0.6613073 -2.05152,1.453548 -3.15625,1.65625 -0.584592,0.107264 -1.053007,0.038383 -1.34375,-0.15625 -0.290743,-0.194633 -0.502598,-0.5409526 -0.5,-1.34375 -0.0025,-0.4064377 0.06539,-0.6279229 0.1875,-0.78125 0.122114,-0.1533271 0.339791,-0.304434 0.75,-0.40625 0.7475,-0.1855336 2.132562,-0.1841946 4.0625,-0.1875 z"/>
     <path style="opacity:0.4;fill:#808080" d="m -54.984835,0.9701882 0,1 c 1.190146,-4.095e-4 -0.642107,0.00912 0.71875,0 4.417035,0 4.28125,0.4663672 4.28125,4.125 l 0,4.8749998 2,0 1,0 0,-0.9999998 -2,0 0,-4.875 c 0,-4.122568 -1.789656,-4.125 -4.28125,-4.125 -1.726802,0.0115707 -0.21875,0 -1.71875,0 z m 3,4 c -1.899318,0.036737 -3.972849,0.028937 -4.71875,1.5625 0.983275,-0.526179 2.385547,-0.536713 3.71875,-0.5625 l 2,0 0,-0.6875 c -4.1e-4,-0.1208149 -0.02487,-0.2039587 -0.03125,-0.3125 l -0.96875,0 z"/>
    </g>
    <path style="fill:#ed4737" d="m 195.5,-45.784118 -2.0384,-2.049501 1.96142,-2.147073 -1.41391,-1.329922 -2.01857,2.046035 -2.05948,-2.046035 -1.47106,1.378839 2.05948,2.089411 -2.05948,2.056046 1.47106,1.432225 2.05709,-2.148338 2.06188,2.148338 1.44997,-1.430025 z"/>
   </g>
  </g>
 </g>
</svg>
