<svg xmlns="http://www.w3.org/2000/svg" version="1.1" viewBox="0 0 16 16">
 <defs>
  <style id="current-color-scheme" type="text/css">
   .ColorScheme-Text { color:#808080; } .ColorScheme-Highlight { color:#3daee9; }
  </style>
 </defs>
 <path class="ColorScheme-Text" d="M 3,4 C 2.446,4 2,4.446 2,5 V 10 C 2,10.554 2.446,11 3,11 H 12 C 12.554,11 13,10.554 13,10 V 5 C 13,4.446 12.554,4 12,4 Z M 10,5.5 H 11 V 8.5 H 6 V 9.5 L 4,8 6,6.5 V 7.5 H 10 Z" style="fill:currentColor"/>
 <path class="ColorScheme-Text" d="M 13,5 V 10 C 13,10.554 12.554,11 12,11 H 3 C 3,11.554 3.446,12 4,12 H 13 C 13.554,12 14,11.554 14,11 V 6 C 14,5.446 13.554,5 13,5" style="fill:currentColor;fill-opacity:0.5"/>
</svg>
