<svg xmlns="http://www.w3.org/2000/svg" width="16" height="16" x="0" y="0" version="1.1" viewBox="0 0 16 16" xml:space="preserve">
 <path d="m 12.651015,12.687042 c -1.612899,-0.007 -2.472275,-0.827321 -3.069507,-2.273574 L 9.4106672,10.018822 7.9383047,6.5258603 C 7.4500071,5.2894129 6.2383358,4.4541558 4.871187,4.4541558 c -1.8498513,0 -3.350612,1.5616101 -3.350612,3.4877764 0,1.926095 1.5007305,3.4877098 3.350612,3.4877098 1.2904233,0 2.4124857,-0.759171 2.972549,-1.8723575 l 0.5954171,1.4291565 c -0.8454631,1.072561 -2.1302308,1.755644 -3.5679356,1.755644 -2.5480633,0 -4.61330296,-2.147702 -4.61330296,-4.8001832 0,-2.6512298 2.06523966,-4.8015692 4.61324246,-4.8015692 1.9228874,0 3.4754234,1.0686242 4.2642123,2.9619326 0.059817,0.1468978 0.8340914,2.0310227 1.5095297,3.6345738 0.418348,0.992538 0.77509,1.650792 1.93178,1.691482 1.13664,0.04058 1.916718,-0.679205 1.916718,-1.5892735 0,-0.8889703 -0.594813,-1.1026709 -1.599079,-1.4501182 -1.805182,-0.6188781 -2.73702,-1.2403745 -2.73702,-2.7298548 0,-1.4528265 0.950104,-2.4217601 2.493688,-2.4217601 1.005537,0 1.731481,0.4655054 2.234326,1.3938175 l -0.986758,0.524444 C 13.526753,4.6141041 13.116662,4.400343 12.59552,4.400343 c -0.72446,0 -1.241823,0.5245141 -1.241823,1.222007 0,0.9899895 0.851211,1.1394552 2.041441,1.5459012 1.602224,0.5427911 2.346948,1.1629983 2.346948,2.7115475 6e-5,1.6258683 -1.340806,2.8098633 -3.091071,2.8072433 z" style="fill:#808080"/>
</svg>
