<svg xmlns="http://www.w3.org/2000/svg" width="16" height="16" version="1.1">
 <g transform="translate(-72.000496,-500)">
  <path d="m 76.998047,501 c -0.76042,0.34766 -1.534086,0.73627 -2.322266,1.16602 -0.78078,0.43079 -1.534765,0.8757 -2.259765,1.33398 0.725,0.44911 1.478985,0.88953 2.259765,1.32031 C 75.464401,505.2503 76.23916,505.64307 77,506 v -2 h 4.371094 c 1.01205,0 1.974588,0.0791 2.605468,0.41016 C 84.607462,504.74122 85,505.35773 85,506.5 v 2.5 h 1 v -2.5 c 0,-1.50007 -0.641114,-2.49316 -1.558594,-2.97461 C 83.523936,503.04394 82.423534,503 81.371094,503 H 76.998047 Z M 74,507 v 2.5 c 0,1.50007 0.641114,2.49316 1.558594,2.97461 0.91747,0.48145 2.017872,0.52539 3.070312,0.52539 h 4.373047 v 2 c 0.76042,-0.34766 1.536039,-0.73627 2.324219,-1.16602 0.78078,-0.43079 1.532812,-0.8757 2.257812,-1.33398 -0.725,-0.44911 -1.477032,-0.88953 -2.257812,-1.32031 C 84.537552,510.7497 83.762793,510.35693 83.001953,510 H 83 v 2 h -4.371094 c -1.01205,0 -1.974588,-0.0791 -2.605468,-0.41016 C 75.392538,511.25878 75,510.74999 75,509.5 V 507 Z" style="solid-color:#808080;fill:#808080"/>
 </g>
</svg>
