<svg xmlns="http://www.w3.org/2000/svg" width="16" height="16" version="1.1" viewBox="0 0 16 16">
 <defs>
  <style id="current-color-scheme" type="text/css">
   .ColorScheme-Text { color:#808080; }
  </style>
 </defs>
 <g id="layer1" transform="translate(0 -1036.4)">
  <path class="ColorScheme-Text" d="m5 2v2 5h1v-5h7v5h1v-5-2h-9zm-2.9141 7.3008l-0.707 0.7072 1.4141 1.414-1.4141 1.414 0.707 0.707 1.4141-1.414 1.4141 1.414 0.707-0.707-1.4141-1.414 1.4141-1.414-0.707-0.7072-1.4141 1.4142-1.4141-1.4142zm8.0001 0l-0.7071 0.7072 1.4141 1.414-1.4141 1.414 0.7071 0.707 1.414-1.414 1.414 1.414 0.707-0.707-1.414-1.414 1.414-1.414-0.707-0.7072-1.414 1.4142-1.414-1.4142z" transform="translate(0,1036.4)" style="fill:currentColor"/>
 </g>
</svg>
