<svg xmlns="http://www.w3.org/2000/svg" width="16" height="16" version="1.1" viewBox="0 0 16 16">
 <defs>
  <style id="current-color-scheme" type="text/css">
   .ColorScheme-Text { color:#808080; } .ColorScheme-Highlight { color:#5294e2; } .ColorScheme-ButtonBackground { color:#808080; }
  </style>
 </defs>
 <path style="fill:currentColor" class="ColorScheme-Text" d="m 1.6577039,0.58091733 a 0.49918,0.49918 0 0 0 0.587891,0.48046897 c 1.5948,-0.21799997 3.898828,0.142812 5.7363277,1.257812 1.0488999,0.636 1.9433902,1.506344 2.5253904,2.652344 H 8.3139538 v 5.9999997 h 2.2753912 c -0.577,1.2181 -1.5071162,2.122638 -2.6035162,2.773438 -1.8353999,1.0896 -4.1378219,1.420234 -5.7324219,1.177734 a 0.49918,0.49918 0 0 0 -0.580078,0.523437 0.49918,0.49918 0 0 0 0.429687,0.462891 c 1.8583,0.28265 4.323325,-0.07751 6.3906254,-1.304687 1.1562995,-0.6862 2.1432657,-1.698669 2.8222657,-2.980469 v 1.433594 a 1.5,1.5 0 0 0 -1.001953,1.414062 1.5,1.5 0 0 0 1.5,1.5 1.5,1.5 0 0 0 1.5,-1.5 1.5,1.5 0 0 0 -1,-1.412109 v -2.087891 h 2 V 4.9715423 h -2 v -2.087891 a 1.5,1.5 0 0 0 1,-1.412109 1.5,1.5 0 0 0 -1.5,-1.49999995 1.5,1.5 0 0 0 -1.5,1.49999995 1.5,1.5 0 0 0 1.001953,1.414062 v 1.591797 c -0.678,-1.289 -1.6619062,-2.310718 -2.8164063,-3.011718 C 6.4344009,0.21268335 3.9690289,-0.18089565 2.1108289,0.07310435 a 0.49918,0.49918 0 0 0 -0.453125,0.50781298 z"/>
</svg>
