<?xml version="1.0" encoding="UTF-8" standalone="no"?>
<svg
   xmlns:dc="http://purl.org/dc/elements/1.1/"
   xmlns:cc="http://creativecommons.org/ns#"
   xmlns:rdf="http://www.w3.org/1999/02/22-rdf-syntax-ns#"
   xmlns:svg="http://www.w3.org/2000/svg"
   xmlns="http://www.w3.org/2000/svg"
   xmlns:sodipodi="http://sodipodi.sourceforge.net/DTD/sodipodi-0.dtd"
   xmlns:inkscape="http://www.inkscape.org/namespaces/inkscape"
   width="16"
   height="16"
   viewBox="0 0 16 16"
   version="1.1"
   id="svg7"
   sodipodi:docname="25.svg"
   inkscape:version="0.92.1 unknown">
  <metadata
     id="metadata11">
    <rdf:RDF>
      <cc:Work
         rdf:about="">
        <dc:format>image/svg+xml</dc:format>
        <dc:type
           rdf:resource="http://purl.org/dc/dcmitype/StillImage" />
        <dc:title></dc:title>
      </cc:Work>
    </rdf:RDF>
  </metadata>
  <sodipodi:namedview
     pagecolor="#ffffff"
     bordercolor="#666666"
     borderopacity="1"
     objecttolerance="10"
     gridtolerance="10"
     guidetolerance="10"
     inkscape:pageopacity="0"
     inkscape:pageshadow="2"
     inkscape:window-width="774"
     inkscape:window-height="480"
     id="namedview9"
     showgrid="false"
     inkscape:zoom="14.75"
     inkscape:cx="8"
     inkscape:cy="8"
     inkscape:window-x="10"
     inkscape:window-y="34"
     inkscape:window-maximized="0"
     inkscape:current-layer="svg7" />
  <defs
     id="defs3">
    <style
       type="text/css"
       id="current-color-scheme">
   .ColorScheme-Text { color:#5c616c; } .ColorScheme-Highlight { color:#5294e2; } .ColorScheme-ButtonBackground { color:#d3dae3; }
  </style>
  </defs>
  <path
     style="color:#5c616c;opacity:1;fill:currentColor"
     class="ColorScheme-Text"
     d="M 0.58091722,14.999884 A 0.49918,0.49918 0 0 0 1.0613862,14.411993 c -0.21799998,-1.5948 0.142812,-3.898828 1.257812,-5.7363277 0.636,-1.0488999 1.506344,-1.9433902 2.652344,-2.5253903 V 8.3436341 H 10.971542 V 6.068243 c 1.2181,0.577 2.122638,1.5071161 2.773438,2.6035161 1.0896,1.8353999 1.420234,4.1378219 1.177734,5.7324219 a 0.49918,0.49918 0 0 0 0.523437,0.580078 0.49918,0.49918 0 0 0 0.462891,-0.429687 c 0.28265,-1.8583 -0.07751,-4.323325 -1.304687,-6.3906254 C 13.918155,7.0076471 12.905686,6.020681 11.623886,5.341681 h 1.433594 a 1.5,1.5 0 0 0 1.414062,1.001953 1.5,1.5 0 0 0 1.5,-1.5 1.5,1.5 0 0 0 -1.5,-1.5 1.5,1.5 0 0 0 -1.412109,1 h -2.087891 v -2 H 4.9715422 v 2 h -2.087891 a 1.5,1.5 0 0 0 -1.412109,-1 1.5,1.5 0 0 0 -1.49999999,1.5 1.5,1.5 0 0 0 1.49999999,1.5 1.5,1.5 0 0 0 1.414062,-1.001953 h 1.591797 c -1.289,0.678 -2.310718,1.6619061 -3.011718,2.8164062 -1.25299999,2.0650998 -1.64657899,4.5304718 -1.39257899,6.3886718 a 0.49918,0.49918 0 0 0 0.50781301,0.453125 z"
     id="path5"
     inkscape:connector-curvature="0" />
</svg>
