<svg xmlns="http://www.w3.org/2000/svg" version="1.1" viewBox="0 0 16 16">
 <defs>
  <style id="current-color-scheme" type="text/css">
   .ColorScheme-Text { color:#808080; } .ColorScheme-NegativeText { color:#da4453; }
  </style>
 </defs>
 <g transform="translate(-421.71,-531.79)">
  <path class="ColorScheme-Text" d="M 426.71,533.79 C 426.16,533.79 425.71,534.24 425.71,534.79 V 536.79 H 423.71 V 545.79 H 429.71 V 544.79 H 424.71 V 537.79 H 434.71 V 539.79 H 435.71 V 536.79 H 433.71 V 534.79 C 433.71,534.24 433.26,533.79 432.71,533.79 Z M 426.71,534.79 H 432.71 V 536.79 H 426.71 Z" style="color:#808080;fill:currentColor"/>
  <path class="ColorScheme-NegativeText" d="M 433.21,540.79 A 2.5,2.5 0 0 0 430.71,543.29 2.5,2.5 0 0 0 433.21,545.79 2.5,2.5 0 0 0 435.71,543.29 2.5,2.5 0 0 0 433.21,540.79 M 433.21,541.79 A 1.5,1.5 0 0 1 433.86,541.94 L 431.86,543.94 A 1.5,1.5 0 0 1 431.71,543.29 1.5,1.5 0 0 1 433.21,541.79 M 434.57,542.65 A 1.5,1.5 0 0 1 434.71,543.29 1.5,1.5 0 0 1 433.21,544.79 1.5,1.5 0 0 1 432.57,544.64 Z" style="color:#da4453;fill:currentColor"/>
 </g>
</svg>
