<svg xmlns="http://www.w3.org/2000/svg" version="1.1" viewBox="0 0 16 16">
 <defs>
  <style id="current-color-scheme" type="text/css">
   .ColorScheme-Text { color:#808080; } .ColorScheme-NeutralText { color:#f67400; }
  </style>
 </defs>
 <g transform="translate(-421.71,-531.79)">
  <path class="ColorScheme-Text" d="M 426.71,533.79 C 426.16,533.79 425.71,534.24 425.71,534.79 V 536.79 H 423.71 V 545.79 H 429.71 V 544.79 H 424.71 V 537.79 H 434.71 V 539.79 H 435.71 V 536.79 H 433.71 V 534.79 C 433.71,534.24 433.26,533.79 432.71,533.79 Z M 426.71,534.79 H 432.71 V 536.79 H 426.71 Z" style="fill:currentColor"/>
  <path class="ColorScheme-NeutralText" d="M 433.21,539.79 A 1.5,1.5 0 0 0 431.71,541.29 V 542.79 H 430.71 V 545.79 H 435.71 V 542.79 H 434.71 V 541.29 A 1.5,1.5 0 0 0 433.21,539.79 M 433.21,540.79 A 0.5,0.5 0 0 1 433.71,541.29 V 542.79 H 432.71 V 541.29 A 0.5,0.5 0 0 1 433.21,540.79 M 431.71,543.79 H 434.71 V 544.79 H 431.71 Z" style="fill:currentColor"/>
 </g>
</svg>
