<svg xmlns="http://www.w3.org/2000/svg" width="16" height="16" version="1.1">
 <g transform="translate(-71.999969,-412)">
  <path d="m 85.9086,413.30747 -3.3041,3.30619 c 0.73247,0.27285 1.50133,0.52745 2.30643,0.76438 0.80088,0.23135 1.59244,0.4355 2.37462,0.6118 -0.18236,-0.77612 -0.38932,-1.56486 -0.62067,-2.36574 -0.23708,-0.80553 -0.48909,-1.57756 -0.75607,-2.31642 z" style="fill:#808080"/>
  <path d="m 80.101562,413 c -0.734585,-0.0111 -1.47909,0.0947 -2.207031,0.32422 C 74.982769,414.24229 73,416.94693 73,420 c 0,3.05307 1.982769,5.75771 4.894531,6.67578 2.911763,0.91808 6.088676,-0.15923 7.839844,-2.66016 l 0.287109,-0.41015 -0.820312,-0.57422 -0.28711,0.41016 c -1.503178,2.14676 -4.219333,3.06931 -6.71875,2.28125 C 75.695896,424.93459 74,422.62071 74,420 c 0,-2.62071 1.695896,-4.93459 4.195312,-5.72266 2.499417,-0.78806 5.215572,0.13449 6.71875,2.28125 l 0.28711,0.41016 0.820312,-0.57422 -0.287109,-0.41015 C 84.420999,414.10868 82.305319,413.03314 80.101562,413 Z" style="solid-color:#808080;fill:#808080"/>
 </g>
</svg>
