<?xml version="1.0" encoding="UTF-8" standalone="no"?>
<svg
   xmlns:dc="http://purl.org/dc/elements/1.1/"
   xmlns:cc="http://creativecommons.org/ns#"
   xmlns:rdf="http://www.w3.org/1999/02/22-rdf-syntax-ns#"
   xmlns:svg="http://www.w3.org/2000/svg"
   xmlns="http://www.w3.org/2000/svg"
   xmlns:sodipodi="http://sodipodi.sourceforge.net/DTD/sodipodi-0.dtd"
   xmlns:inkscape="http://www.inkscape.org/namespaces/inkscape"
   viewBox="0 0 22 22"
   version="1.1"
   id="svg5"
   sodipodi:docname="tag-assigned.svg"
   inkscape:version="0.92.3 (2405546, 2018-03-11)">
  <metadata
     id="metadata9">
    <rdf:RDF>
      <cc:Work
         rdf:about="">
        <dc:format>image/svg+xml</dc:format>
        <dc:type
           rdf:resource="http://purl.org/dc/dcmitype/StillImage" />
        <dc:title></dc:title>
      </cc:Work>
    </rdf:RDF>
  </metadata>
  <sodipodi:namedview
     pagecolor="#ffffff"
     bordercolor="#666666"
     borderopacity="1"
     objecttolerance="10"
     gridtolerance="10"
     guidetolerance="10"
     inkscape:pageopacity="0"
     inkscape:pageshadow="2"
     inkscape:window-width="1184"
     inkscape:window-height="810"
     id="namedview7"
     showgrid="false"
     inkscape:zoom="10.727273"
     inkscape:cx="11"
     inkscape:cy="11"
     inkscape:window-x="0"
     inkscape:window-y="34"
     inkscape:window-maximized="0"
     inkscape:current-layer="svg5" />
  <defs
     id="defs3051">
    <style
       type="text/css"
       id="current-color-scheme">
      .ColorScheme-Text {
        color:#4d4d4d;
      }
      </style>
  </defs>
  <path
     style="fill:#808080;fill-opacity:1;stroke:none"
     d="M 3 7 C 2.4459904 7 2 7.4459904 2 8 L 2 14 C 2 14.55401 2.4459904 15 3 15 L 9 15 C 9.55401 15 10 14.55401 10 14 L 10 13 L 12 13 L 12 14 C 12 14.554 12.44599 15 13 15 L 19 15 C 19.55401 15 20 14.554 20 14 L 20 8 C 20 7.446 19.55401 7 19 7 L 13 7 C 12.44599 7 12 7.446 12 8 L 12 9 L 10 9 L 10 8 C 10 7.4459904 9.55401 7 9 7 L 3 7 z M 3 8 L 7 8 L 9 8 L 9 9 C 8.4459904 9 8 9.4459904 8 10 L 8 12 C 8 12.55401 8.4459904 13 9 13 L 9 14 L 7 14 L 3 14 L 3 8 z M 13 8 L 16 8 L 19 8 L 19 14 L 16 14 L 13 14 L 13 13 C 13.55401 13 14 12.55401 14 12 L 14 10 C 14 9.4459904 13.55401 9 13 9 L 13 8 z M 9 10 L 13 10 L 13 12 L 9 12 L 9 10 z "
     id="rect4161"
     class="ColorScheme-Text" />
</svg>
