<svg xmlns="http://www.w3.org/2000/svg" viewBox="0 0 16 16">
 <defs>
  <style id="current-color-scheme" type="text/css">
   .ColorScheme-Text { color:#808080; } .ColorScheme-NegativeText { color:#da4453; }
  </style>
 </defs>
 <g id="layer1" transform="translate(-421.71429,-531.79074)">
  <g id="layer1-0" transform="matrix(0.75,0,0,0.74999813,421.46429,-241.22897)">
   <g id="layer1-6" transform="translate(6.2937501e-7,-2.041003e-4)">
    <path style="fill:currentColor" class="ColorScheme-Text" d="M 8 2 L 2.03125 2.03125 L 2 8 L 8 13.539062 L 8 8 L 13.539062 8 L 8 2 z M 5.5 4 C 6.3284271 4 7 4.6715728 7 5.5 C 7 6.3284272 6.3284271 7 5.5 7 C 4.6715729 7 4 6.3284272 4 5.5 C 4 4.6715728 4.6715729 4 5.5 4 z" transform="matrix(1.3333333,0,0,1.3333367,0.3333327,1030.6957)"/>
    <path style="fill:currentColor" class="ColorScheme-NegativeText" d="m 12.333333,1043.8067 2.222226,2.2223 -2.222226,2.2222 1.111106,1.1111 2.222227,-2.2221 2.222227,2.2221 1.111106,-1.1111 -2.222213,-2.2222 2.222213,-2.2223 -1.111106,-1.1111 -2.222227,2.2223 -2.222227,-2.2223 -1.111106,1.1111 z"/>
   </g>
  </g>
 </g>
</svg>
