<svg xmlns="http://www.w3.org/2000/svg" style="isolation:isolate" width="256" height="256" viewBox="0 0 256 256">
 <defs>
  <filter id="6nFI7mYpYxl2uEVjJljCxrLImdkUNVwE" width="270.648" height="254.338" x="-7.32" y="2.95" filterUnits="userSpaceOnUse">
   <feGaussianBlur xmlns="http://www.w3.org/2000/svg" in="SourceGraphic" stdDeviation="4.294"/>
   <feOffset xmlns="http://www.w3.org/2000/svg" dx="0" dy="4" result="pf_100_offsetBlur"/>
   <feFlood xmlns="http://www.w3.org/2000/svg" flood-opacity=".4"/>
   <feComposite xmlns="http://www.w3.org/2000/svg" in2="pf_100_offsetBlur" operator="in" result="pf_100_dropShadow"/>
   <feBlend xmlns="http://www.w3.org/2000/svg" in="SourceGraphic" in2="pf_100_dropShadow" mode="normal"/>
  </filter>
 </defs>
 <g filter="url(#6nFI7mYpYxl2uEVjJljCxrLImdkUNVwE)">
  <path fill="#E6EAEF" d="M 165.685 11.947 C 239.74 11.947 250.324 22.504 250.324 96.491 L 250.324 155.742 C 250.324 229.728 239.74 240.285 165.685 240.285 L 90.315 240.285 C 16.26 240.285 5.676 229.728 5.676 155.742 L 5.676 96.491 C 5.676 22.504 16.26 11.947 90.315 11.947 L 165.685 11.947 Z"/>
 </g>
 <g>
  <g opacity=".23">
   <path fill="#00000F" fill-opacity=".941" d="M 65.147 55.599 C 59.589 55.529 54.64 56.638 51.431 60.489 C 48.459 64.041 47.6 68.629 47.6 73.942 L 47.6 101.581 C 47.6 106.894 48.459 111.483 51.431 115.035 C 54.674 118.927 59.59 119.924 65.073 119.924 L 190.927 119.924 C 196.41 119.924 201.33 118.934 204.579 115.035 C 207.557 111.476 208.4 106.888 208.4 101.581 L 208.4 73.942 C 208.4 68.636 207.558 64.048 204.579 60.489 C 201.33 56.589 196.41 55.599 190.927 55.599 L 65.147 55.599 Z"/>
  </g>
  <g opacity=".236">
   <path fill="#00000F" fill-opacity=".941" d="M 190.853 136.009 C 196.411 135.939 201.36 137.047 204.569 140.898 C 207.541 144.45 208.4 149.038 208.4 154.351 L 208.4 181.991 C 208.4 187.304 207.541 191.892 204.569 195.444 C 201.326 199.336 196.41 200.333 190.927 200.333 L 65.073 200.333 C 59.59 200.333 54.67 199.343 51.421 195.444 C 48.443 191.885 47.6 187.297 47.6 181.991 L 47.6 154.351 C 47.6 149.045 48.442 144.457 51.421 140.898 C 54.67 136.999 59.59 136.009 65.073 136.009 L 190.853 136.009 Z"/>
  </g>
  <path fill="#FFFFFF" d="M 65.147 53.589 C 59.589 53.519 54.64 54.627 51.431 58.478 C 48.459 62.031 47.6 66.619 47.6 71.932 L 47.6 99.571 C 47.6 104.884 48.459 109.472 51.431 113.024 C 54.674 116.916 59.59 117.914 65.073 117.914 L 190.927 117.914 C 196.41 117.914 201.33 116.924 204.579 113.024 C 207.557 109.466 208.4 104.877 208.4 99.571 L 208.4 71.932 C 208.4 66.625 207.558 62.037 204.579 58.478 C 201.33 54.579 196.41 53.589 190.927 53.589 L 65.147 53.589 Z"/>
  <path fill="#3785D1" d="M 190.853 133.999 C 196.411 133.929 201.36 135.037 204.569 138.888 C 207.541 142.44 208.4 147.028 208.4 152.341 L 208.4 179.981 C 208.4 185.294 207.541 189.882 204.569 193.434 C 201.326 197.326 196.41 198.323 190.927 198.323 L 65.073 198.323 C 59.59 198.323 54.67 197.333 51.421 193.434 C 48.443 189.875 47.6 185.287 47.6 179.981 L 47.6 152.341 C 47.6 147.035 48.442 142.447 51.421 138.888 C 54.67 134.988 59.59 133.999 65.073 133.999 L 190.853 133.999 Z"/>
  <defs>
   <filter id="vB6g8tES7VsCGn7lEMTEyohW23W5IeOq" width="70.664" height="54.581" x="132.87" y="140.88" filterUnits="userSpaceOnUse">
    <feGaussianBlur xmlns="http://www.w3.org/2000/svg" stdDeviation="1.36"/>
   </filter>
  </defs>
  <g opacity=".2" filter="url(#vB6g8tES7VsCGn7lEMTEyohW23W5IeOq)">
   <path d="M 189.462 144.049 C 193.715 143.995 196.57 144.95 198.036 146.711 C 199.576 148.544 200.368 151.552 200.368 155.733 L 200.368 180.608 C 200.368 184.789 199.576 187.797 198.036 189.63 C 196.57 191.391 193.715 192.292 189.462 192.292 L 146.946 192.292 C 142.692 192.292 139.83 191.391 138.363 189.63 C 136.823 187.797 136.039 184.789 136.039 180.608 L 136.039 155.733 C 136.039 151.552 136.823 148.544 138.363 146.711 C 139.83 144.95 142.692 144.049 146.946 144.049 L 189.462 144.049 Z"/>
  </g>
  <path fill="#FFFFFF" d="M 189.462 142.039 C 193.715 141.985 196.57 142.94 198.036 144.7 C 199.576 146.534 200.368 149.542 200.368 153.723 L 200.368 178.598 C 200.368 182.779 199.576 185.787 198.036 187.62 C 196.57 189.381 193.715 190.282 189.462 190.282 L 146.946 190.282 C 142.692 190.282 139.83 189.381 138.363 187.62 C 136.823 185.787 136.039 182.779 136.039 178.598 L 136.039 153.723 C 136.039 149.542 136.823 146.534 138.363 144.7 C 139.83 142.94 142.692 142.039 146.946 142.039 L 189.462 142.039 Z"/>
  <g opacity=".23">
   <path d="M 65.147 53.59 C 59.589 53.52 54.641 54.627 51.432 58.478 C 48.459 62.03 47.6 66.619 47.6 71.931 L 47.6 72.937 C 47.6 67.624 48.459 63.035 51.432 59.483 C 54.641 55.632 59.589 54.525 65.147 54.595 L 190.926 54.595 C 196.409 54.595 201.33 55.584 204.579 59.483 C 207.558 63.042 208.4 67.63 208.4 72.937 L 208.4 71.931 C 208.4 66.625 207.558 62.037 204.579 58.478 C 201.33 54.579 196.409 53.59 190.926 53.59 L 65.147 53.59 Z"/>
  </g>
  <g opacity=".23">
   <path d="M 65.147 133.999 C 59.589 133.93 54.641 135.037 51.432 138.888 C 48.459 142.44 47.6 147.028 47.6 152.341 L 47.6 153.346 C 47.6 148.033 48.459 143.445 51.432 139.893 C 54.641 136.042 59.589 134.935 65.147 135.005 L 190.926 135.005 C 196.409 135.005 201.33 135.993 204.579 139.893 C 207.558 143.452 208.4 148.04 208.4 153.346 L 208.4 152.341 C 208.4 147.035 207.558 142.447 204.579 138.888 C 201.33 134.988 196.409 133.999 190.926 133.999 L 65.147 133.999 Z"/>
  </g>
  <g>
   <path d="M 67.348 99.153 L 71.246 92.916 L 72.626 88.479 L 74.005 92.916 L 77.843 99.153 L 81.981 96.575 L 78.323 90.577 L 75.025 87.219 L 79.702 88.179 L 86.479 88.179 L 86.479 83.321 L 79.702 83.321 L 75.025 84.341 L 78.323 80.922 L 81.981 74.925 L 77.843 72.346 L 74.005 78.583 L 72.626 83.081 L 71.246 78.583 L 67.408 72.346 L 63.27 74.925 L 66.928 80.922 L 70.227 84.341 L 65.549 83.321 L 58.832 83.321 L 58.832 88.179 L 65.549 88.179 L 70.227 87.219 L 66.928 90.577 L 63.27 96.575 L 67.348 99.153 Z"/>
   <path d="M 104.244 99.153 L 108.143 92.916 L 109.522 88.479 L 110.901 92.916 L 114.739 99.153 L 118.877 96.575 L 115.219 90.577 L 111.921 87.219 L 116.598 88.179 L 123.375 88.179 L 123.375 83.321 L 116.598 83.321 L 111.921 84.341 L 115.219 80.922 L 118.877 74.925 L 114.739 72.346 L 110.901 78.583 L 109.522 83.081 L 108.143 78.583 L 104.304 72.346 L 100.166 74.925 L 103.825 80.922 L 107.123 84.341 L 102.445 83.321 L 95.729 83.321 L 95.729 88.179 L 102.445 88.179 L 107.123 87.219 L 103.825 90.577 L 100.166 96.575 L 104.244 99.153 Z"/>
   <path d="M 141.141 99.153 L 145.039 92.916 L 146.418 88.479 L 147.797 92.916 L 151.636 99.153 L 155.774 96.575 L 152.115 90.577 L 148.817 87.219 L 153.495 88.179 L 160.271 88.179 L 160.271 83.321 L 153.495 83.321 L 148.817 84.341 L 152.115 80.922 L 155.774 74.925 L 151.636 72.346 L 147.797 78.583 L 146.418 83.081 L 145.039 78.583 L 141.201 72.346 L 137.063 74.925 L 140.721 80.922 L 144.019 84.341 L 139.342 83.321 L 132.625 83.321 L 132.625 88.179 L 139.342 88.179 L 144.019 87.219 L 140.721 90.577 L 137.063 96.575 L 141.141 99.153 Z"/>
   <path d="M 178.037 99.153 L 181.935 92.916 L 183.314 88.479 L 184.694 92.916 L 188.532 99.153 L 192.67 96.575 L 189.012 90.577 L 185.713 87.219 L 190.391 88.179 L 197.168 88.179 L 197.168 83.321 L 190.391 83.321 L 185.713 84.341 L 189.012 80.922 L 192.67 74.925 L 188.532 72.346 L 184.694 78.583 L 183.314 83.081 L 181.935 78.583 L 178.097 72.346 L 173.959 74.925 L 177.617 80.922 L 180.915 84.341 L 176.238 83.321 L 169.521 83.321 L 169.521 88.179 L 176.238 88.179 L 180.915 87.219 L 177.617 90.577 L 173.959 96.575 L 178.037 99.153 Z"/>
  </g>
 </g>
 <g opacity=".4">
  <linearGradient id="_lgradient_225" x1=".517" x2=".517" y1="0" y2="1">
   <stop offset="0%" style="stop-color:rgb(255,255,255)"/>
   <stop offset="12.5%" stop-opacity=".098" style="stop-color:rgb(255,255,255)"/>
   <stop offset="92.5%" stop-opacity=".098" style="stop-color:rgb(0,0,0)"/>
   <stop offset="100%" stop-opacity=".498" style="stop-color:rgb(0,0,0)"/>
  </linearGradient>
  <path fill="none" stroke="url(#_lgradient_225)" stroke-linecap="round" stroke-linejoin="round" stroke-width="4.077" d="M 165.685 11.947 C 239.74 11.947 250.324 22.504 250.324 96.491 L 250.324 155.742 C 250.324 229.728 239.74 240.285 165.685 240.285 L 90.315 240.285 C 16.26 240.285 5.676 229.728 5.676 155.742 L 5.676 96.491 C 5.676 22.504 16.26 11.947 90.315 11.947 L 165.685 11.947 Z" vector-effect="non-scaling-stroke"/>
 </g>
</svg>
