<svg xmlns="http://www.w3.org/2000/svg" style="enable-background:new" width="16" height="16" version="1.1">
 <g transform="translate(-805.00043,351.03455)">
  <path d="m 808.0002,-350 c -2,0 -2,2 -2,2 l 0,10 c 0,2 2,2 2,2 l 3.07227,0 -0.008,-0.0117 -0.002,-0.004 -0.125,-0.2168 1.63281,-0.94336 c -0.0416,-0.27298 -0.0701,-0.54798 -0.0703,-0.82422 0.002,-0.27569 0.0315,-0.55001 0.0742,-0.82227 l -1.63672,-0.94531 0.125,-0.2168 0.875,-1.51562 0.875,-1.51562 0.125,-0.2168 1.63672,0.94531 c 0.43134,-0.34512 0.91201,-0.62172 1.42578,-0.82422 l 2.4e-4,-1.88859 0.25,0 3.5,0 0.25,0 0,-3 c 0,0 0,-2 -2,-2 l -10,0 z m 10,10 c -1.10457,0 -2,0.89543 -2,2 0,1.10457 0.89543,2 2,2 1.10457,0 2,-0.89543 2,-2 0,-1.10457 -0.89543,-2 -2,-2 z" style="fill:#808080"/>
 </g>
</svg>
