<?xml version="1.0" encoding="UTF-8" standalone="no"?>
<svg
   xmlns:dc="http://purl.org/dc/elements/1.1/"
   xmlns:cc="http://creativecommons.org/ns#"
   xmlns:rdf="http://www.w3.org/1999/02/22-rdf-syntax-ns#"
   xmlns:svg="http://www.w3.org/2000/svg"
   xmlns="http://www.w3.org/2000/svg"
   xmlns:sodipodi="http://sodipodi.sourceforge.net/DTD/sodipodi-0.dtd"
   xmlns:inkscape="http://www.inkscape.org/namespaces/inkscape"
   height="16"
   width="16"
   version="1.1"
   id="svg6"
   sodipodi:docname="text-x-generic-template.svg"
   inkscape:version="0.92.3 (2405546, 2018-03-11)">
  <metadata
     id="metadata12">
    <rdf:RDF>
      <cc:Work
         rdf:about="">
        <dc:format>image/svg+xml</dc:format>
        <dc:type
           rdf:resource="http://purl.org/dc/dcmitype/StillImage" />
        <dc:title></dc:title>
      </cc:Work>
    </rdf:RDF>
  </metadata>
  <defs
     id="defs10" />
  <sodipodi:namedview
     pagecolor="#ffffff"
     bordercolor="#666666"
     borderopacity="1"
     objecttolerance="10"
     gridtolerance="10"
     guidetolerance="10"
     inkscape:pageopacity="0"
     inkscape:pageshadow="2"
     inkscape:window-width="1549"
     inkscape:window-height="723"
     id="namedview8"
     showgrid="true"
     inkscape:zoom="33.75"
     inkscape:cx="8"
     inkscape:cy="8"
     inkscape:window-x="0"
     inkscape:window-y="34"
     inkscape:window-maximized="0"
     inkscape:current-layer="svg6">
    <inkscape:grid
       type="xygrid"
       id="grid822" />
  </sodipodi:namedview>
  <g
     transform="translate(-552 -52)"
     id="g4"
     color="#000">
    <path
       style="marker:none;fill:#808080;fill-opacity:1"
       d="M 4 5 L 4 6 L 12 6 L 12 5 L 4 5 z "
       id="path859"
       transform="translate(552,52)" />
    <path
       style="marker:none;fill:#808080;fill-opacity:1"
       d="M 4 3 L 4 4 L 12 4 L 12 3 L 4 3 z "
       id="path857"
       transform="translate(552,52)" />
    <path
       style="marker:none;fill:#808080;fill-opacity:1"
       d="m 6,9 0.4023339,1 H 7 V 9 Z"
       id="path851"
       transform="translate(552,52)"
       inkscape:connector-curvature="0"
       sodipodi:nodetypes="ccccc" />
    <path
       style="marker:none;fill:#808080;fill-opacity:1"
       d="M 5,7 5.4880003,8 H 12 V 7 Z"
       transform="translate(552,52)"
       id="path847"
       inkscape:connector-curvature="0"
       sodipodi:nodetypes="ccccc" />
    <path
       style="marker:none;fill:#808080;fill-opacity:1"
       d="M 1 0 L 1 2 L 2 2 L 2 1 L 14 1 L 14 11 L 10 11 L 10 13 L 10 15 L 10 16 L 10.75 16 L 15 11.75 L 15 0 L 1 0 z M 1 4 L 1 16 L 1.0039062 16 L 1.0039062 4 L 1 4 z "
       transform="translate(552,52)"
       id="path2" />
  </g>
  <path
     style="color:#000000;font-style:normal;font-variant:normal;font-weight:normal;font-stretch:normal;font-size:medium;line-height:normal;font-family:sans-serif;font-variant-ligatures:normal;font-variant-position:normal;font-variant-caps:normal;font-variant-numeric:normal;font-variant-alternates:normal;font-feature-settings:normal;text-indent:0;text-align:start;text-decoration:none;text-decoration-line:none;text-decoration-style:solid;text-decoration-color:#000000;letter-spacing:normal;word-spacing:normal;text-transform:none;writing-mode:lr-tb;direction:ltr;text-orientation:mixed;dominant-baseline:auto;baseline-shift:baseline;text-anchor:start;white-space:normal;shape-padding:0;clip-rule:nonzero;display:inline;overflow:visible;visibility:visible;opacity:1;isolation:auto;mix-blend-mode:normal;color-interpolation:sRGB;color-interpolation-filters:linearRGB;solid-color:#000000;solid-opacity:1;vector-effect:none;fill:#808080;fill-opacity:1;fill-rule:nonzero;stroke:none;stroke-width:1;stroke-linecap:round;stroke-linejoin:miter;stroke-miterlimit:4;stroke-dasharray:none;stroke-dashoffset:0;stroke-opacity:1;color-rendering:auto;image-rendering:auto;shape-rendering:auto;text-rendering:auto;enable-background:accumulate"
     d="m 1.4948988,2.9921871 a 0.50005,0.50005 0 0 0 -0.01758,0.00195 0.50005,0.50005 0 0 0 -0.04883,0.00391 0.50005,0.50005 0 0 0 -0.01758,0.00391 0.50005,0.50005 0 0 0 -0.02148,0.00391 0.50005,0.50005 0 0 0 -0.01172,0.00195 0.50005,0.50005 0 0 0 -0.0293,0.00977 0.50005,0.50005 0 0 0 -0.03516,0.013672 0.50005,0.50005 0 0 0 -0.01563,0.00586 0.50005,0.50005 0 0 0 -0.01367,0.00586 0.50005,0.50005 0 0 0 -0.02734,0.015625 0.50005,0.50005 0 0 0 -0.01563,0.00781 0.50005,0.50005 0 0 0 -0.02734,0.017578 0.50005,0.50005 0 0 0 -0.03906,0.03125 0.50005,0.50005 0 0 0 -0.06836,0.072257 0.50005,0.50005 0 0 0 -0.0293,0.041016 0.50005,0.50005 0 0 0 -0.07422,0.3183594 V 16 h 8.371106 L 1.9577888,3.287109 a 0.50005,0.50005 0 0 0 -0.332031,-0.2773438 0.50005,0.50005 0 0 0 -0.04883,-0.00977 0.50005,0.50005 0 0 0 -0.04883,-0.00586 0.50005,0.50005 0 0 0 -0.0332,-0.00195 z M 2.002711,5.349609 7.6316173,15 H 2.002711 Z"
     id="path824-3"
     inkscape:connector-curvature="0" />
</svg>
