<svg xmlns="http://www.w3.org/2000/svg" style="isolation:isolate" width="256" height="256" viewBox="0 0 256 256">
 <defs>
  <filter id="NAafPGGauAhSL2DiROJAiNF86d1xI4NW" width="270.648" height="254.338" x="-7.32" y="2.95" filterUnits="userSpaceOnUse">
   <feGaussianBlur xmlns="http://www.w3.org/2000/svg" in="SourceGraphic" stdDeviation="4.294"/>
   <feOffset xmlns="http://www.w3.org/2000/svg" dx="0" dy="4" result="pf_100_offsetBlur"/>
   <feFlood xmlns="http://www.w3.org/2000/svg" flood-opacity=".4"/>
   <feComposite xmlns="http://www.w3.org/2000/svg" in2="pf_100_offsetBlur" operator="in" result="pf_100_dropShadow"/>
   <feBlend xmlns="http://www.w3.org/2000/svg" in="SourceGraphic" in2="pf_100_dropShadow" mode="normal"/>
  </filter>
 </defs>
 <g filter="url(#NAafPGGauAhSL2DiROJAiNF86d1xI4NW)">
  <linearGradient id="_lgradient_47" x1=".5" x2=".5" y1="-.036" y2="1.036" gradientTransform="matrix(244.648,0,0,228.338,5.676,11.947)" gradientUnits="userSpaceOnUse">
   <stop offset="0%" style="stop-color:rgb(0,0,0)"/>
   <stop offset="100%" style="stop-color:rgb(51,51,51)"/>
  </linearGradient>
  <path fill="url(#_lgradient_47)" d="M 165.685 11.947 C 239.74 11.947 250.324 22.504 250.324 96.491 L 250.324 155.742 C 250.324 229.728 239.74 240.285 165.685 240.285 L 90.315 240.285 C 16.26 240.285 5.676 229.728 5.676 155.742 L 5.676 96.491 C 5.676 22.504 16.26 11.947 90.315 11.947 L 165.685 11.947 Z"/>
 </g>
 <g>
  <path fill="#FBFBFB" d="M 204.182 135.053 C 202.9 133.786 200.382 133.786 199.115 135.053 C 189.614 144.522 182.187 149.336 177.025 149.336 C 174.887 149.336 173.05 148.497 171.292 146.771 C 168.521 144 167.887 140.975 169.265 137 C 170.722 132.677 174.443 127.594 180.572 121.45 C 189.139 112.899 194.507 105.345 197.088 98.378 C 200.524 89.066 198.719 80.531 191.91 73.706 C 187.808 69.605 183.2 67.261 178.26 66.754 C 173.968 66.327 169.503 67.229 164.831 69.462 C 157.103 73.152 149.946 79.913 143.897 85.978 C 142.566 87.293 142.566 89.716 143.897 91.046 C 145.163 92.313 147.681 92.313 148.964 91.046 C 154.617 85.408 161.189 79.122 167.903 75.923 C 175.409 72.36 181.284 73.215 186.843 78.773 C 191.657 83.587 192.813 89.193 190.358 95.907 C 188.141 101.893 183.295 108.592 175.488 116.383 C 168.568 123.287 164.309 129.289 162.472 134.689 C 160.223 141.308 161.49 147.088 166.225 151.838 C 169.344 154.942 172.971 156.51 177.009 156.51 C 184.341 156.51 192.987 151.316 204.167 140.12 C 205.513 138.79 205.513 136.367 204.182 135.053 L 204.182 135.053 Z"/>
  <path fill="#FBFBFB" d="M 61.758 117.127 C 46.081 132.804 46.081 158.204 61.758 173.881 C 77.435 189.574 102.851 189.574 118.496 173.881 L 127.634 164.76 L 70.863 108.006 L 61.758 117.127 Z"/>
  <path fill="#FBFBFB" d="M 108.298 120.12 C 106.366 116.208 106.968 111.379 110.23 108.117 L 116.992 101.339 C 120.238 98.093 125.084 97.475 128.995 99.423 L 136.137 92.281 C 120.381 80.135 97.784 81.117 83.342 95.543 L 76.77 102.099 L 101.521 126.866 L 108.298 120.12 Z"/>
  <path fill="#FBFBFB" d="M 135.916 106.834 C 137.357 110.539 136.581 114.926 133.588 117.95 L 126.81 124.728 C 123.801 127.737 119.415 128.513 115.678 127.072 L 108.726 134.039 L 133.556 158.869 L 140.112 152.313 C 154.554 137.887 155.536 115.195 143.311 99.47 L 135.916 106.834 Z"/>
  <path fill="#FBFBFB" d="M 124.356 104.427 C 123.215 104.427 122.123 104.87 121.299 105.694 L 114.538 112.471 C 112.859 114.15 112.859 116.874 114.538 118.536 L 116.39 120.405 C 117.214 121.228 118.275 121.672 119.431 121.672 C 120.587 121.672 121.664 121.212 122.471 120.405 L 129.217 113.643 C 130.041 112.836 130.5 111.743 130.5 110.603 C 130.5 109.463 130.056 108.37 129.233 107.562 L 127.38 105.71 C 126.588 104.87 125.512 104.427 124.356 104.427 L 124.356 104.427 Z"/>
 </g>
 <g opacity=".4">
  <linearGradient id="_lgradient_48" x1=".517" x2=".517" y1="0" y2="1">
   <stop offset="0%" style="stop-color:rgb(255,255,255)"/>
   <stop offset="12.5%" stop-opacity=".098" style="stop-color:rgb(255,255,255)"/>
   <stop offset="92.5%" stop-opacity=".098" style="stop-color:rgb(0,0,0)"/>
   <stop offset="100%" stop-opacity=".498" style="stop-color:rgb(0,0,0)"/>
  </linearGradient>
  <path fill="none" stroke="url(#_lgradient_48)" stroke-linecap="round" stroke-linejoin="round" stroke-width="4.077" d="M 165.685 11.947 C 239.74 11.947 250.324 22.504 250.324 96.491 L 250.324 155.742 C 250.324 229.728 239.74 240.285 165.685 240.285 L 90.315 240.285 C 16.26 240.285 5.676 229.728 5.676 155.742 L 5.676 96.491 C 5.676 22.504 16.26 11.947 90.315 11.947 L 165.685 11.947 Z" vector-effect="non-scaling-stroke"/>
 </g>
</svg>
