<svg xmlns="http://www.w3.org/2000/svg" version="1.1" viewBox="0 0 22 22">
 <defs>
  <style id="current-color-scheme" type="text/css">
   .ColorScheme-Text { color:#808080; }
  </style>
 </defs>
 <path class="ColorScheme-Text" d="M 11,3 C 9.895,3 9,3.8954 9,5 9,5.932 9.637,6.7155 10.5,6.9375 V 9 H 8 V 10 H 10.5 V 17.969 C 7.961,17.806 5.7516,16.457 4.4062,14.469 L 4.5937,14.375 5.5,13.875 5,13 C 5,13 2,14.625 2,14.625 L 2.5,15.5 3.5312,14.938 C 5.1354,17.373 7.8668,19 11,19 14.133,19 16.864,17.373 18.469,14.938 L 19.5,15.5 20,14.625 C 20,14.624 17,13 17,13 L 16.5,13.875 17.406,14.375 17.594,14.469 C 16.248,16.457 14.039,17.806 11.5,17.969 V 10 H 14 V 9 H 11.5 V 6.9375 C 12.363,6.7155 13,5.932 13,5 13,3.8954 12.105,3 11,3 M 11,4 C 11.552,4 12,4.4477 12,5 12,5.5523 11.552,6 11,6 10.448,6 10,5.5523 10,5 10,4.4477 10.448,4 11,4 Z" style="color:#808080;fill:currentColor"/>
</svg>
