<svg xmlns="http://www.w3.org/2000/svg" version="1.1" viewBox="0 0 22 22">
 <defs>
  <style id="current-color-scheme" type="text/css">
   .ColorScheme-Text { color:#808080; }
  </style>
 </defs>
 <path class="ColorScheme-Text" d="M 10.5,3 V 4.8125 H 11.5 V 3 H 10.5 M 5.6875,4.9687 4.9687,5.6875 6.25,7 6.9687,6.25 5.6875,4.9687 M 16.312,4.9687 15.031,6.25 15.75,7 17.031,5.6875 16.312,4.9687 M 11,6 C 8.2386,6 6,8.2386 6,11 6,13.761 8.2386,16 11,16 13.761,16 16,13.761 16,11 16,8.2386 13.761,6 11,6 Z M 11,7 V 15 C 8.7909,15 7,13.209 7,11 7,8.7909 8.7909,7 11,7 M 3,10.5 V 11.5 H 4.8125 V 10.5 H 3 M 17.187,10.5 V 11.5 H 19 V 10.5 Z M 6.25,15.031 4.9687,16.312 5.6875,17.031 6.9687,15.75 6.25,15.031 M 15.75,15.031 15.031,15.75 16.312,17.031 17.031,16.312 15.75,15.031 M 10.5,17.187 V 19 H 11.5 V 17.187 Z" style="color:#808080;fill:currentColor"/>
</svg>
