<svg xmlns="http://www.w3.org/2000/svg" version="1.1" viewBox="0 0 22 22">
 <defs>
  <style id="current-color-scheme" type="text/css">
   .ColorScheme-Text { color:#808080; } .ColorScheme-Highlight { color:#3daee9; }
  </style>
 </defs>
 <g transform="translate(-378.86,-540.08)">
  <path class="ColorScheme-Text" d="M 3,3 V 7 19 H 4 19 V 18 9 H 18 V 18 H 4 V 7 H 13 V 5 3 Z M 9.4277,9 C 8.3616,9 7.9141,9.3522 7.9141,10.254 V 11.477 C 7.9141,12.033 7.8936,12.678 7.3047,12.678 H 7 V 13.322 H 7.3047 C 7.8936,13.322 7.9141,13.967 7.9141,14.523 V 15.746 C 7.9141,16.648 8.3616,17 9.4277,17 V 16.408 C 8.717,16.408 8.707,16.169 8.707,15.303 V 14.295 C 8.707,13.879 8.5834,13.26 7.9844,13.004 8.5834,12.748 8.707,12.13 8.707,11.715 V 10.697 C 8.707,9.831 8.717,9.5918 9.4277,9.5918 Z M 12.564,9 V 9.5918 C 13.275,9.5918 13.293,9.831 13.293,10.697 V 11.715 C 13.293,12.13 13.417,12.748 14.016,13.004 13.417,13.26 13.293,13.879 13.293,14.295 V 15.303 C 13.293,16.169 13.275,16.408 12.564,16.408 V 17 C 13.631,17 14.086,16.648 14.086,15.746 V 14.523 C 14.086,13.967 14.126,13.322 14.705,13.322 H 15 V 12.678 H 14.705 C 14.126,12.678 14.086,12.033 14.086,11.477 V 10.254 C 14.086,9.3522 13.631,9 12.564,9" transform="translate(378.86,540.08)" style="color:#808080;fill:currentColor"/>
  <path d="M 393.86,543.08 395.86,546.08 397.86,543.08 Z" style="fill:#ff6600;fill-rule:evenodd"/>
 </g>
</svg>
