<svg xmlns="http://www.w3.org/2000/svg" version="1.1" viewBox="0 0 22 22">
 <defs>
  <style id="current-color-scheme" type="text/css">
   .ColorScheme-Text { color:#808080; }
  </style>
 </defs>
 <path class="ColorScheme-Text" d="M 11,3 C 8.9724,3 7.1287,3.7567 5.7187,5 5.5925,5.1113 5.4627,5.2248 5.3437,5.3437 L 5,5.7187 C 3.7567,7.1287 3,8.9724 3,11 3,15.418 6.5817,19 11,19 13.028,19 14.871,18.243 16.281,17 L 16.656,16.656 C 16.775,16.537 16.889,16.407 17,16.281 18.243,14.871 19,13.028 19,11 19,6.5817 15.418,3 11,3 M 11,4 C 14.866,4 18,7.134 18,11 18,12.754 17.347,14.334 16.281,15.562 L 6.4375,5.7187 C 7.6657,4.6532 9.246,4 11,4 M 5.7187,6.4375 15.562,16.281 C 14.334,17.347 12.754,18 11,18 7.134,18 4,14.866 4,11 4,9.246 4.6532,7.6657 5.7187,6.4375" style="color:#808080;fill:currentColor"/>
</svg>
