<svg xmlns="http://www.w3.org/2000/svg" version="1.1" viewBox="0 0 22 22">
 <defs>
  <style id="current-color-scheme" type="text/css">
   .ColorScheme-Text { color:#808080; }
  </style>
 </defs>
 <path class="ColorScheme-Text" d="M 4,3 V 4 11 13 H 6 V 11 H 5 V 4 H 17 V 11 H 18 V 3 H 5 Z M 8,11 V 13 H 10 V 11 Z M 15.5,13 C 14.669,13 14,13.669 14,14.5 V 16 H 13 V 19 H 18 V 16 H 17 V 14.5 C 17,13.669 16.331,13 15.5,13 M 6,14 V 16 H 8 V 14 Z M 15.5,14 C 15.777,14 16,14.223 16,14.5 V 16 H 15 V 14.5 C 15,14.223 15.223,14 15.5,14 M 4,17 V 19 H 5 6 V 17 Z M 8,17 V 19 H 10 V 17 Z" style="color:#808080;fill:currentColor"/>
</svg>
