<svg xmlns="http://www.w3.org/2000/svg" version="1.1" viewBox="0 0 22 22">
 <defs>
  <style id="current-color-scheme" type="text/css">
   .ColorScheme-Text { color:#808080; }
  </style>
 </defs>
 <path class="ColorScheme-Text" d="M 3,3 V 4 15 H 4 V 10 H 7 V 9.9922 L 7.0078,10 9.0078,8 H 18 V 15 H 19 V 5 H 12.008 L 10.008,3 10,3.0078 V 3 H 4 3 M 9,16 V 17 H 3 V 18 H 9 V 19 H 13 V 18 H 19 V 17 H 13 V 16 H 9 M 11,16.5 C 11.554,16.5 12,16.946 12,17.5 12,18.054 11.554,18.5 11,18.5 10.446,18.5 10,18.054 10,17.5 10,16.946 10.446,16.5 11,16.5" style="color:#808080;fill:currentColor"/>
</svg>
