<svg xmlns="http://www.w3.org/2000/svg" version="1.1" viewBox="0 0 22 22">
 <defs>
  <style id="current-color-scheme" type="text/css">
   .ColorScheme-Text { color:#808080; }
  </style>
 </defs>
 <path class="ColorScheme-Text" d="M 4,3 V 19 H 5 12 V 18 H 5 V 4 H 17 V 13 H 18 V 3 H 17 5 4 M 13,11 C 11.338,11 10,12.338 10,14 10,15.662 11.338,17 13,17 13.649,17 14.246,16.791 14.736,16.443 L 17.293,19 18,18.293 15.443,15.736 C 15.791,15.246 16,14.649 16,14 16,12.338 14.662,11 13,11 M 13,12 C 14.108,12 15,12.892 15,14 15,15.108 14.108,16 13,16 11.892,16 11,15.108 11,14 11,12.892 11.892,12 13,12" style="color:#808080;fill:currentColor"/>
</svg>
