<svg xmlns="http://www.w3.org/2000/svg" version="1.1" viewBox="0 0 22 22">
 <defs>
  <style id="current-color-scheme" type="text/css">
   .ColorScheme-Text { color:#808080; }
  </style>
 </defs>
 <path class="ColorScheme-Text" d="M 3,3 V 6 H 4 V 13.996 L 3.0039,14.992 H 3 V 19 H 4 6 7.0078 V 18.996 L 8.0078,17.996 H 16 V 19 H 19 V 16 H 16 V 17 H 9.0039 L 19,7.0039 18.998,7.002 19,7 15,3 14.998,3.002 14.996,3 5,12.996 V 6 H 6 V 3 H 3 M 4,4 H 5 V 5 H 4 V 4 M 14.998,4.4121 17.588,7.002 15.588,9.002 8.7949,15.795 8,15 6.2051,13.205 12.998,6.4121 14.998,4.4121 M 17,17 H 18 V 18 H 17 V 17" style="color:#808080;fill:currentColor"/>
</svg>
