<svg xmlns="http://www.w3.org/2000/svg" version="1.1" viewBox="0 0 22 22">
 <defs>
  <style id="current-color-scheme" type="text/css">
   .ColorScheme-Text { color:#808080; }
  </style>
 </defs>
 <path class="ColorScheme-Text" d="M 3,3 V 4 19 H 4 19 V 18 3 H 3 M 4,4 H 18 V 18 H 4 V 4 M 5,5 V 6 8 H 6 V 6 H 8 V 5 H 5 M 14,5 V 6 H 16 V 8 H 17 V 6 5 H 14 M 10.91,6.7812 C 10.303,6.7812 9.5946,6.9168 9.0996,7.3105 L 9.3457,8.0527 C 9.6045,7.884 10.1,7.6133 10.764,7.6133 11.495,7.6133 11.991,7.9167 12.002,8.6367 12.002,9.7167 10.438,11.483 10.438,12.766 H 10.91 C 11.731,10.921 12.9,10.055 12.9,8.5586 12.9,7.4111 12.069,6.7813 10.91,6.7813 M 10.752,13.768 C 10.268,13.768 10.021,14.128 10.021,14.488 10.021,14.848 10.268,15.219 10.752,15.219 11.236,15.219 11.484,14.848 11.484,14.488 11.484,14.128 11.236,13.768 10.752,13.768 M 5,14 V 16 17 H 8 V 16 H 6 V 14 H 5 M 16,14 V 16 H 14 V 17 H 17 V 16 14 H 16" style="color:#808080;fill:currentColor"/>
</svg>
