<svg xmlns="http://www.w3.org/2000/svg" version="1.1" viewBox="0 0 22 22">
 <defs>
  <style id="current-color-scheme" type="text/css">
   .ColorScheme-Text { color:#808080; }
  </style>
 </defs>
 <path class="ColorScheme-Text" d="M 4.5,3 C 3.669,3 3,3.669 3,4.5 3,5.1542 3.4181,5.7022 4,5.9082 V 16 H 3 V 19 H 6 V 18 H 13 V 17 H 6 V 16 H 5 V 5.9082 C 5.4245,5.7579 5.7567,5.4227 5.9082,5 H 16 V 6 H 17 V 13 H 18 V 6 H 19 V 3 H 16 V 4 H 5.9082 C 5.7022,3.4181 5.1542,3 4.5,3 M 4.5,4 C 4.777,4 5,4.223 5,4.5 5,4.777 4.777,5 4.5,5 4.223,5 4,4.777 4,4.5 4,4.223 4.223,4 4.5,4 M 17,4 H 18 V 5 H 17 V 4 M 16,14 V 16 H 14 V 17 H 16 V 19 H 17 V 17 H 19 V 16 H 17 V 14 H 16 M 4,17 H 5 V 18 H 4 V 17" style="color:#808080;fill:currentColor"/>
</svg>
