<svg xmlns="http://www.w3.org/2000/svg" version="1.1" viewBox="0 0 22 22">
 <g transform="translate(-421.71,-525.79)">
  <g style="fill:#da4453">
   <path d="M 432.71,528.79 A 4,4 0 0 0 428.71,532.79 4,4 0 0 0 432.71,536.79 4,4 0 0 0 436.71,532.79 4,4 0 0 0 432.71,528.79 M 432.71,529.79 A 3,3 0 0 1 435.71,532.79 3,3 0 0 1 432.71,535.79 3,3 0 0 1 429.71,532.79 3,3 0 0 1 432.71,529.79"/>
   <path d="M 12,13 A 8,8 0 0 0 4.0723,20 H 5.0801 A 7,7 0 0 1 12,14 7,7 0 0 1 13,14.08 V 13.07 A 8,8 0 0 0 12,13" transform="translate(420.71,524.79)"/>
   <circle cx="437.21" cy="541.29" r="3.5"/>
  </g>
  <path style="fill:#ffffff" d="M 434.71,540.79 H 439.71 V 541.79 H 434.71 Z"/>
 </g>
</svg>
