<?xml version="1.0" encoding="UTF-8" standalone="no"?>
<!-- Created with Inkscape (http://www.inkscape.org/) -->

<svg
   xmlns:dc="http://purl.org/dc/elements/1.1/"
   xmlns:cc="http://creativecommons.org/ns#"
   xmlns:rdf="http://www.w3.org/1999/02/22-rdf-syntax-ns#"
   xmlns:svg="http://www.w3.org/2000/svg"
   xmlns="http://www.w3.org/2000/svg"
   xmlns:sodipodi="http://sodipodi.sourceforge.net/DTD/sodipodi-0.dtd"
   xmlns:inkscape="http://www.inkscape.org/namespaces/inkscape"
   width="16"
   height="16"
   viewBox="0 0 4.2333332 4.2333335"
   version="1.1"
   id="svg8"
   inkscape:version="0.92.2 (unknown)"
   sodipodi:docname="wait.svg">
  <defs
     id="defs2" />
  <sodipodi:namedview
     id="base"
     pagecolor="#ffffff"
     bordercolor="#666666"
     borderopacity="1.0"
     inkscape:pageopacity="0.0"
     inkscape:pageshadow="2"
     inkscape:zoom="51.875"
     inkscape:cx="8"
     inkscape:cy="8"
     inkscape:document-units="mm"
     inkscape:current-layer="layer1"
     showgrid="false"
     units="px"
     inkscape:window-width="1920"
     inkscape:window-height="1013"
     inkscape:window-x="0"
     inkscape:window-y="34"
     inkscape:window-maximized="1" />
  <metadata
     id="metadata5">
    <rdf:RDF>
      <cc:Work
         rdf:about="">
        <dc:format>image/svg+xml</dc:format>
        <dc:type
           rdf:resource="http://purl.org/dc/dcmitype/StillImage" />
        <dc:title></dc:title>
      </cc:Work>
    </rdf:RDF>
  </metadata>
  <g
     inkscape:label="Capa 1"
     inkscape:groupmode="layer"
     id="layer1"
     transform="translate(0,-292.76665)">
    <path
       inkscape:connector-curvature="0"
       id="path4515"
       style="font-style:normal;font-variant:normal;font-weight:normal;font-stretch:normal;font-size:medium;line-height:1.25;font-family:FontAwesome;-inkscape-font-specification:FontAwesome;letter-spacing:0px;word-spacing:0px;fill:#808080;fill-opacity:1;stroke:none;stroke-width:0.03720687"
       d="m 3.5680822,293.18238 q 0,0.57803 -0.2369724,1.02318 -0.2347577,0.44294 -0.5891089,0.6777 0.3543512,0.23476 0.5891089,0.67991 0.2369724,0.44294 0.2369724,1.02098 h 0.2126106 q 0.031006,0 0.050938,0.02 0.019932,0.02 0.019932,0.0509 v 0.14174 q 0,0.031 -0.019932,0.0509 -0.019932,0.02 -0.050938,0.02 H 0.52066167 q -0.0310058,0 -0.0509379,-0.02 -0.0199321,-0.02 -0.0199321,-0.0509 v -0.14174 q 0,-0.031 0.0199321,-0.0509 0.0199321,-0.02 0.0509379,-0.02 h 0.21261076 q 0,-0.57804 0.2347577,-1.02098 0.23697227,-0.44515 0.59132347,-0.67991 -0.3543512,-0.23476 -0.59132347,-0.6777 -0.2347577,-0.44515 -0.2347577,-1.02318 H 0.52066167 q -0.0310058,0 -0.0509379,-0.02 -0.0199321,-0.02 -0.0199321,-0.0509 v -0.14174 q 0,-0.031 0.0199321,-0.0509 0.0199321,-0.02 0.0509379,-0.02 H 3.7806928 q 0.031006,0 0.050938,0.02 0.019932,0.02 0.019932,0.0509 v 0.14174 q 0,0.031 -0.019932,0.0509 -0.019932,0.02 -0.050938,0.02 z m -0.283481,0 H 1.0167534 q 0,0.45622 0.188249,0.85044 h 1.8913497 q 0.1882491,-0.39422 0.1882491,-0.85044 z m -0.1262376,2.69307 Q 3.03877,295.56317 2.8350182,295.34171 2.6334808,295.11802 2.4053672,295.025 H 1.8959873 q -0.2281136,0.093 -0.4318656,0.31671 -0.2015372,0.22146 -0.3211307,0.53374 z" />
  </g>
</svg>
