<?xml version="1.0" standalone="no"?><!-- Generator: Gravit.io --><svg xmlns="http://www.w3.org/2000/svg" xmlns:xlink="http://www.w3.org/1999/xlink" style="isolation:isolate" viewBox="0 0 16 16" width="16" height="16"><defs><clipPath id="_clipPath_bNpBgpoLqwMq5hpSIZ8kEhzkDvawqHuW"><rect width="16" height="16"/></clipPath></defs><g clip-path="url(#_clipPath_bNpBgpoLqwMq5hpSIZ8kEhzkDvawqHuW)"><rect x="18.188" y="-0.156" width="4.625" height="3.594" transform="matrix(1,0,0,1,0,0)" fill="rgb(128,128,128)"/><path d=" M 13 0 L 3 0 C 1.343 0 0 1.343 0 3 L 0 13 C 0 14.657 1.343 16 3 16 L 13 16 C 14.657 16 16 14.657 16 13 L 16 3 C 16 1.343 14.657 0 13 0 L 13 0 Z  M 7.068 5.327 C 7.068 5.37 7.034 5.404 6.99 5.404 L 4.862 5.404 L 4.862 7.041 L 6.813 7.041 C 6.856 7.041 6.89 7.077 6.89 7.118 L 6.89 8.26 C 6.89 8.303 6.857 8.337 6.813 8.337 L 4.86 8.337 L 4.86 11.077 C 4.86 11.12 4.827 11.154 4.783 11.154 L 3.546 11.154 C 3.525 11.154 3.506 11.146 3.491 11.132 C 3.477 11.117 3.469 11.097 3.469 11.077 L 3.469 4.185 C 3.469 4.142 3.502 4.108 3.546 4.108 L 6.99 4.108 C 7.033 4.108 7.067 4.142 7.067 4.185 L 7.068 5.327 Z  M 12.029 11.144 C 12.019 11.178 11.989 11.201 11.954 11.202 L 11.029 11.202 C 10.993 11.202 10.961 11.18 10.954 11.146 L 10.216 8.399 L 10.185 8.161 L 10.159 8.406 L 9.447 11.145 C 9.439 11.179 9.408 11.203 9.372 11.202 L 8.418 11.202 C 8.383 11.202 8.353 11.178 8.344 11.144 L 7.084 6.17 C 7.077 6.149 7.084 6.125 7.097 6.106 C 7.112 6.087 7.134 6.077 7.158 6.077 L 8.428 6.077 C 8.464 6.077 8.495 6.102 8.502 6.137 L 9.036 8.608 L 9.079 9.031 L 9.14 8.606 L 9.743 6.137 C 9.75 6.102 9.781 6.077 9.817 6.077 L 10.692 6.077 C 10.729 6.077 10.757 6.102 10.767 6.135 L 11.457 8.654 L 11.514 9.053 L 11.562 8.656 L 12.026 6.139 C 12.033 6.103 12.065 6.077 12.101 6.077 L 13.166 6.077 C 13.188 6.077 13.212 6.089 13.226 6.106 C 13.241 6.125 13.245 6.149 13.241 6.17 L 12.029 11.144 Z " fill="rgb(128,128,128)"/></g></svg>