<?xml version="1.0" encoding="UTF-8" standalone="no"?>
<!-- Created with Inkscape (http://www.inkscape.org/) -->

<svg
   xmlns:dc="http://purl.org/dc/elements/1.1/"
   xmlns:cc="http://creativecommons.org/ns#"
   xmlns:rdf="http://www.w3.org/1999/02/22-rdf-syntax-ns#"
   xmlns:svg="http://www.w3.org/2000/svg"
   xmlns="http://www.w3.org/2000/svg"
   xmlns:xlink="http://www.w3.org/1999/xlink"
   xmlns:sodipodi="http://sodipodi.sourceforge.net/DTD/sodipodi-0.dtd"
   xmlns:inkscape="http://www.inkscape.org/namespaces/inkscape"
   width="16"
   height="16"
   viewBox="0 0 4.2333333 4.2333334"
   version="1.1"
   id="svg1037"
   inkscape:version="0.92.3 (2405546, 2018-03-11)"
   sodipodi:docname="AdobeReader10-symbolic.svg">
  <defs
     id="defs1031">
    <radialGradient
       cx="5.6491151"
       cy="9.9571075"
       r="12.671875"
       fx="5.118885"
       fy="9.9571075"
       id="radialGradient3107-17"
       xlink:href="#linearGradient2867-449-88-871-390-598-476-591-434-148-57-177-8-3"
       gradientUnits="userSpaceOnUse"
       gradientTransform="matrix(-1.9132589e-7,7.8004159,-9.5764203,-2.3414749e-7,129.08903,164.10192)" />
    <linearGradient
       id="linearGradient2867-449-88-871-390-598-476-591-434-148-57-177-8-3">
      <stop
         offset="0"
         style="stop-color:#90dbec;stop-opacity:1"
         id="stop3750-1-0" />
      <stop
         offset="0.26238"
         style="stop-color:#55c1ec;stop-opacity:1"
         id="stop3752-3-7" />
      <stop
         offset="0.704952"
         style="stop-color:#3689e6;stop-opacity:1"
         id="stop3754-1-8" />
      <stop
         offset="1"
         style="stop-color:#2b63a0;stop-opacity:1"
         id="stop3756-1-6" />
    </linearGradient>
    <linearGradient
       x1="-73.494293"
       y1="72.699486"
       x2="-50.243786"
       y2="159.47563"
       id="linearGradient4018"
       xlink:href="#linearGradient3694"
       gradientUnits="userSpaceOnUse"
       gradientTransform="matrix(0.59136097,-0.15844727,-0.15844727,-0.59136097,333.74132,111.22854)" />
    <linearGradient
       id="linearGradient3694">
      <stop
         id="stop3696"
         style="stop-color:#e6e6e6;stop-opacity:1"
         offset="0" />
      <stop
         id="stop3698"
         style="stop-color:#f5f5f5;stop-opacity:1"
         offset="1" />
    </linearGradient>
  </defs>
  <sodipodi:namedview
     id="base"
     pagecolor="#ffffff"
     bordercolor="#666666"
     borderopacity="1.0"
     inkscape:pageopacity="0.0"
     inkscape:pageshadow="2"
     inkscape:zoom="51.8125"
     inkscape:cx="4.2171291"
     inkscape:cy="8"
     inkscape:document-units="px"
     inkscape:current-layer="layer1"
     showgrid="true"
     units="px"
     inkscape:window-width="1920"
     inkscape:window-height="1009"
     inkscape:window-x="0"
     inkscape:window-y="34"
     inkscape:window-maximized="1">
    <inkscape:grid
       type="xygrid"
       id="grid1672" />
  </sodipodi:namedview>
  <metadata
     id="metadata1034">
    <rdf:RDF>
      <cc:Work
         rdf:about="">
        <dc:format>image/svg+xml</dc:format>
        <dc:type
           rdf:resource="http://purl.org/dc/dcmitype/StillImage" />
        <dc:title></dc:title>
      </cc:Work>
    </rdf:RDF>
  </metadata>
  <g
     inkscape:label="Livello 1"
     inkscape:groupmode="layer"
     id="layer1"
     transform="translate(0,-292.76665)">
    <g
       transform="matrix(0.06614583,0,0,0.06614583,-16.297489,291.51494)"
       id="layer4"
       style="fill:#808080;fill-opacity:1">
      <path
         d="m 305.85087,62.505885 c -0.1751,-0.236936 -0.45245,-0.569994 -0.76469,-0.890194 -3.24854,-3.333638 -5.67484,-7.269718 -6.98197,-11.629467 -0.06,-0.202651 -0.12,-0.405302 -0.17388,-0.608565 -0.0563,-0.204487 -0.1053,-0.413261 -0.1555,-0.620809 -1.04632,-4.426483 -0.91836,-9.050719 0.23326,-13.559854 0,0 0.17571,-0.744482 0.22102,-1.051213 0.96795,-5.69749 -2.53957,-11.298246 -8.23032,-12.823944 -5.80218,-1.554473 -11.74886,1.698962 -13.64618,7.310738 -0.0784,0.209385 -0.23816,0.738359 -0.24,0.746318 -1.24713,4.420361 -3.41384,8.433583 -6.47503,11.718854 -3.47751,3.650164 -7.89849,6.245442 -12.85517,7.573387 -6.03789,1.617534 -9.625,7.834814 -8.00685,13.875157 1.62059,6.039118 7.82808,9.626223 13.87026,8.00624 4.50852,-1.151008 9.13276,-1.281415 13.56108,-0.235712 0.20632,0.05143 0.41387,0.102244 0.61958,0.157958 0.20633,0.0551 0.41081,0.115101 0.6153,0.173263 4.35791,1.308354 8.29828,3.732814 11.62702,6.983194 0.40897,0.40959 0.76223,0.69795 1.09223,0.93121 4.47485,3.41017 10.84213,3.14874 14.92209,-0.93121 4.14118,-4.13873 4.38118,-10.678052 0.76775,-15.125351 z m -27.43747,2.046713 c -5.91116,-1.583861 -9.42051,-7.662163 -7.83665,-13.573323 1.58509,-5.911773 7.66216,-9.421123 13.57333,-7.837263 5.9136,1.585085 9.42173,7.66155 7.83726,13.573323 -1.58448,5.911773 -7.66033,9.421736 -13.57394,7.837263 z"
         inkscape:connector-curvature="0"
         id="path3860"
         style="fill:#808080;fill-opacity:1" />
    </g>
  </g>
</svg>
