<?xml version="1.0" standalone="no"?><!-- Generator: Gravit.io --><svg xmlns="http://www.w3.org/2000/svg" xmlns:xlink="http://www.w3.org/1999/xlink" style="isolation:isolate" viewBox="0 0 16 16" width="16" height="16"><defs><clipPath id="_clipPath_5lqogUTFhbtgZNLQcvrkjL4GRb5n9XLX"><rect width="16" height="16"/></clipPath></defs><g clip-path="url(#_clipPath_5lqogUTFhbtgZNLQcvrkjL4GRb5n9XLX)"><rect x="16.344" y="0.344" width="4.625" height="3.594" transform="matrix(1,0,0,1,0,0)" fill="rgb(128,128,128)"/><g opacity="0.98999999"><path d=" M 10.877 0.5 C 9.735 0.5 8.809 1.428 8.809 2.572 C 8.809 2.942 8.903 3.285 9.073 3.586 L 6.806 5.856 C 6.397 5.69 5.955 5.592 5.486 5.592 C 4.878 5.592 4.302 5.75 3.803 6.022 L 3.209 3.806 C 3.391 3.601 3.506 3.331 3.506 3.035 C 3.506 2.392 2.981 1.878 2.34 1.878 C 1.698 1.878 1.184 2.392 1.184 3.035 C 1.184 3.609 1.596 4.085 2.142 4.181 L 2.846 6.793 C 2.299 7.415 1.965 8.225 1.965 9.119 C 1.965 11.067 3.542 12.646 5.486 12.646 C 6.563 12.646 7.525 12.164 8.171 11.4 L 9.953 12.436 C 9.906 12.626 9.887 12.826 9.887 13.031 C 9.887 14.395 10.99 15.5 12.351 15.5 C 13.712 15.5 14.816 14.395 14.816 13.031 C 14.816 11.668 13.712 10.562 12.351 10.562 C 11.6 10.562 10.922 10.902 10.47 11.433 L 8.754 10.441 C 8.917 10.034 9.007 9.585 9.007 9.119 C 9.007 8.054 8.53 7.109 7.785 6.463 L 9.865 4.379 C 10.163 4.546 10.511 4.644 10.877 4.644 C 12.019 4.644 12.945 3.716 12.945 2.572 C 12.945 1.428 12.019 0.5 10.877 0.5 L 10.877 0.5 Z " fill="rgb(128,128,128)"/></g></g></svg>