<?xml version="1.0" encoding="UTF-8" standalone="no"?>
<svg
   xmlns:dc="http://purl.org/dc/elements/1.1/"
   xmlns:cc="http://creativecommons.org/ns#"
   xmlns:rdf="http://www.w3.org/1999/02/22-rdf-syntax-ns#"
   xmlns:svg="http://www.w3.org/2000/svg"
   xmlns="http://www.w3.org/2000/svg"
   xmlns:sodipodi="http://sodipodi.sourceforge.net/DTD/sodipodi-0.dtd"
   xmlns:inkscape="http://www.inkscape.org/namespaces/inkscape"
   height="16"
   style="enable-background:new"
   version="1.1"
   width="16"
   id="svg8"
   sodipodi:docname="application-x-executable-symbolic.svg"
   inkscape:version="0.92.2 (unknown)">
  <metadata
     id="metadata14">
    <rdf:RDF>
      <cc:Work
         rdf:about="">
        <dc:format>image/svg+xml</dc:format>
        <dc:type
           rdf:resource="http://purl.org/dc/dcmitype/StillImage" />
      </cc:Work>
    </rdf:RDF>
  </metadata>
  <defs
     id="defs12" />
  <sodipodi:namedview
     pagecolor="#ffffff"
     bordercolor="#666666"
     borderopacity="1"
     objecttolerance="10"
     gridtolerance="10"
     guidetolerance="10"
     inkscape:pageopacity="0"
     inkscape:pageshadow="2"
     inkscape:window-width="1344"
     inkscape:window-height="893"
     id="namedview10"
     showgrid="false"
     inkscape:zoom="14.75"
     inkscape:cx="8"
     inkscape:cy="8"
     inkscape:window-x="0"
     inkscape:window-y="34"
     inkscape:window-maximized="0"
     inkscape:current-layer="g6" />
  <title
     id="title2">
  Paper Symbolic Icon Theme
 </title>
  <g
     transform="translate(-805.00043,351.03455)"
     id="g6">
    <path
       d="m 808.0002,-350 c -2,0 -2,2 -2,2 l 0,10 c 0,2 2,2 2,2 l 3.07227,0 -0.008,-0.0117 -0.002,-0.004 -0.125,-0.2168 1.63281,-0.94336 c -0.0416,-0.27298 -0.0701,-0.54798 -0.0703,-0.82422 0.002,-0.27569 0.0315,-0.55001 0.0742,-0.82227 l -1.63672,-0.94531 0.125,-0.2168 0.875,-1.51562 0.875,-1.51562 0.125,-0.2168 1.63672,0.94531 c 0.43134,-0.34512 0.91201,-0.62172 1.42578,-0.82422 l 2.4e-4,-1.88859 0.25,0 3.5,0 0.25,0 0,-3 c 0,0 0,-2 -2,-2 l -10,0 z m 10,10 c -1.10457,0 -2,0.89543 -2,2 0,1.10457 0.89543,2 2,2 1.10457,0 2,-0.89543 2,-2 0,-1.10457 -0.89543,-2 -2,-2 z"
       style="fill:#808080;fill-opacity:1"
       id="path4" />
  </g>
</svg>
