<svg xmlns="http://www.w3.org/2000/svg" style="isolation:isolate" width="16" height="16" viewBox="0 0 16 16">
 <defs>
  <clipPath id="_clipPath_UOTqUnoPHT2kcqTvYP3IxrbdDAidGhiW">
   <rect width="16" height="16"/>
  </clipPath>
 </defs>
 <g clip-path="url(#_clipPath_UOTqUnoPHT2kcqTvYP3IxrbdDAidGhiW)">
  <rect fill="#808080" width="4.625" height="3.594" x="17.09" y="-.09" transform="matrix(1,0,0,1,0,0)"/>
  <path fill="#808080" fill-rule="evenodd" d="M 0 8 C 0 3.585 3.585 0 8 0 C 12.415 0 16 3.585 16 8 C 16 12.415 12.415 16 8 16 C 3.585 16 0 12.415 0 8 Z M 8 2.667 C 9.177 2.667 10.133 3.623 10.133 4.8 L 10.133 8 C 10.133 9.177 9.177 10.133 8 10.133 C 6.823 10.133 5.867 9.177 5.867 8 L 5.867 4.8 C 5.867 3.623 6.823 2.667 8 2.667 Z M 3.733 7.467 C 3.736 9.615 5.335 11.426 7.467 11.695 L 7.467 12.8 L 6.4 12.8 L 6.4 13.867 L 9.6 13.867 L 9.6 12.8 L 8.533 12.8 L 8.533 11.696 C 10.665 11.427 12.265 9.615 12.267 7.467 L 11.2 7.467 C 11.2 9.234 9.767 10.667 8 10.667 C 6.233 10.667 4.8 9.234 4.8 7.467 L 3.733 7.467 Z"/>
 </g>
</svg>
