<?xml version="1.0" encoding="UTF-8" standalone="no"?>
<svg
   xmlns:dc="http://purl.org/dc/elements/1.1/"
   xmlns:cc="http://creativecommons.org/ns#"
   xmlns:rdf="http://www.w3.org/1999/02/22-rdf-syntax-ns#"
   xmlns:svg="http://www.w3.org/2000/svg"
   xmlns="http://www.w3.org/2000/svg"
   xmlns:sodipodi="http://sodipodi.sourceforge.net/DTD/sodipodi-0.dtd"
   xmlns:inkscape="http://www.inkscape.org/namespaces/inkscape"
   height="16"
   width="16"
   version="1.1"
   id="svg6"
   sodipodi:docname="bugzilla-symbolic.svg"
   inkscape:version="0.92.3 (2405546, 2018-03-11)">
  <metadata
     id="metadata12">
    <rdf:RDF>
      <cc:Work
         rdf:about="">
        <dc:format>image/svg+xml</dc:format>
        <dc:type
           rdf:resource="http://purl.org/dc/dcmitype/StillImage" />
      </cc:Work>
    </rdf:RDF>
  </metadata>
  <defs
     id="defs10" />
  <sodipodi:namedview
     pagecolor="#ffffff"
     bordercolor="#666666"
     borderopacity="1"
     objecttolerance="10"
     gridtolerance="10"
     guidetolerance="10"
     inkscape:pageopacity="0"
     inkscape:pageshadow="2"
     inkscape:window-width="1316"
     inkscape:window-height="828"
     id="namedview8"
     showgrid="false"
     inkscape:zoom="14.75"
     inkscape:cx="8"
     inkscape:cy="8"
     inkscape:window-x="0"
     inkscape:window-y="34"
     inkscape:window-maximized="0"
     inkscape:current-layer="g4" />
  <g
     color="#000"
     transform="translate(-832 -464)"
     id="g4">
    <path
       d="M835.997 465a.5.5 0 0 0-.5.5.5.5 0 0 0 .5.5v.01a1.886 2.167 0 0 1 1.483 1.11 4 5 0 0 0-1.266 2.268 6.03 5 0 0 0 .014.01 5.364 5.364 0 0 0-2.745 2.708c-1.2 2.639-.136 5.705 2.377 6.85a.499.499 0 0 0 .662-.249l.893-1.96a4 5.25 0 0 0 2.582 1.253 4 5.25 0 0 0 2.588-1.254l.893 1.961c.114.252.41.363.662.248 2.513-1.144 3.578-4.21 2.377-6.85a5.365 5.365 0 0 0-2.746-2.708 6.03 5 0 0 0 .008-.004 4 5 0 0 0-1.268-2.268 1.886 2.167 0 0 1 1.486-1.115V466a.5.5 0 0 0 .5-.5.5.5 0 0 0-.5-.5.5.5 0 0 0-.17.029 2.886 3.167 0 0 0-2.107 1.463 4 5 0 0 0-1.723-.492 4 5 0 0 0-1.72.496 2.886 3.167 0 0 0-2.11-1.467.5.5 0 0 0-.17-.03zm1.553 5.06a6.03 5 0 0 0 1.633.387l-2.436 5.351-.906 1.99c-1.684-1.056-2.344-3.298-1.447-5.269a4.295 4.295 0 0 1 2.146-2.152c.084-.039.17-.067.256-.1a4.15 4.15 0 0 1 .683-.193l.07-.014zm4.902 0l.047.008c.273.05.54.13.799.235.047.019.096.033.142.054a4.296 4.296 0 0 1 2.166 2.162c.897 1.971.237 4.213-1.447 5.27l-.908-1.996-2.434-5.346a6.03 5 0 0 0 1.635-.387z"
       fill="#666"
       overflow="visible"
       style="isolation:auto;mix-blend-mode:normal;marker:none;fill:#808080;fill-opacity:1"
       id="path2" />
  </g>
</svg>
