<?xml version="1.0" encoding="UTF-8" standalone="no"?>
<!-- Created with Inkscape (http://www.inkscape.org/) -->

<svg
   xmlns:dc="http://purl.org/dc/elements/1.1/"
   xmlns:cc="http://creativecommons.org/ns#"
   xmlns:rdf="http://www.w3.org/1999/02/22-rdf-syntax-ns#"
   xmlns:svg="http://www.w3.org/2000/svg"
   xmlns="http://www.w3.org/2000/svg"
   xmlns:sodipodi="http://sodipodi.sourceforge.net/DTD/sodipodi-0.dtd"
   xmlns:inkscape="http://www.inkscape.org/namespaces/inkscape"
   sodipodi:docname="pick-colour-picker-symbolic.svg"
   height="16"
   id="svg5082"
   version="1.1"
   inkscape:version="0.92.3 (2405546, 2018-03-11)"
   viewBox="0 0 16 16"
   width="16">
  <defs
     id="defs5084" />
  <sodipodi:namedview
     bordercolor="#000000"
     borderopacity="0.34509804"
     inkscape:current-layer="layer1"
     inkscape:cx="-68.215381"
     inkscape:cy="16.295453"
     inkscape:document-units="px"
     inkscape:grid-bbox="true"
     id="base"
     inkscape:object-nodes="true"
     pagecolor="#616161"
     inkscape:pageopacity="0"
     inkscape:pageshadow="2"
     showgrid="false"
     inkscape:window-height="1013"
     inkscape:window-maximized="1"
     inkscape:window-width="1920"
     inkscape:window-x="0"
     inkscape:window-y="34"
     inkscape:zoom="2">
    <inkscape:grid
       empspacing="4"
       id="grid5636"
       originx="-8"
       originy="-176.00213"
       type="xygrid" />
  </sodipodi:namedview>
  <metadata
     id="metadata5087">
    <rdf:RDF>
      <cc:Work
         rdf:about="">
        <dc:format>image/svg+xml</dc:format>
        <dc:type
           rdf:resource="http://purl.org/dc/dcmitype/StillImage" />
        <dc:title />
      </cc:Work>
    </rdf:RDF>
  </metadata>
  <g
     inkscape:groupmode="layer"
     id="layer1"
     inkscape:label="apps"
     transform="translate(-8,176.00213)">
    <path
       inkscape:connector-curvature="0"
       d="M 9.7382812,-175.00195 C 9.4921876,-174.98657 9,-174.86328 9,-174.125 L 9,-168 c 0,3.878 3.122,7 7,7 3.878,0 7,-3.122 7,-7 0,-3.878 -3.122,-7 -7,-7 l -6.125,0 c 0,0 -0.054687,-0.007 -0.1367188,-0.002 z M 10.5,-174 a 0.5,0.5 0 0 1 0.5,0.5 0.5,0.5 0 0 1 -0.5,0.5 0.5,0.5 0 0 1 -0.5,-0.5 0.5,0.5 0 0 1 0.5,-0.5 z m 5.5,1 a 5,5 0 0 1 5,5 5,5 0 0 1 -5,5 5,5 0 0 1 -5,-5 5,5 0 0 1 5,-5 z"
       id="rect4265"
       style="display:inline;fill:#808080;fill-opacity:1;stroke:none;enable-background:new" />
    <rect
       height="2"
       id="rect5115"
       rx="0"
       ry="0"
       style="opacity:0.7;fill:#808080;fill-opacity:1;stroke:none;stroke-width:2;stroke-miterlimit:4;stroke-dasharray:none;stroke-opacity:1"
       transform="scale(-1,-1)"
       width="2"
       x="-15"
       y="171" />
    <rect
       height="2"
       id="rect5117"
       rx="0"
       ry="0"
       style="opacity:0.8;fill:#808080;fill-opacity:1;stroke:none;stroke-width:2;stroke-miterlimit:4;stroke-dasharray:none;stroke-opacity:1"
       transform="scale(-1,-1)"
       width="2"
       x="-13"
       y="171" />
    <rect
       height="2"
       id="rect5119"
       rx="0"
       ry="0"
       style="opacity:0.7;fill:#808080;fill-opacity:1;stroke:none;stroke-width:2;stroke-miterlimit:4;stroke-dasharray:none;stroke-opacity:1"
       transform="scale(-1,-1)"
       width="2"
       x="-13"
       y="169" />
    <rect
       height="2"
       id="rect5121"
       rx="0"
       ry="0"
       style="opacity:0.6;fill:#808080;fill-opacity:1;stroke:none;stroke-width:2;stroke-miterlimit:4;stroke-dasharray:none;stroke-opacity:1"
       transform="scale(-1,-1)"
       width="2"
       x="-17"
       y="171" />
    <rect
       height="2"
       id="rect5123"
       rx="0"
       ry="0"
       style="opacity:0.6;fill:#808080;fill-opacity:1;stroke:none;stroke-width:2;stroke-miterlimit:4;stroke-dasharray:none;stroke-opacity:1"
       transform="scale(-1,-1)"
       width="2"
       x="-15"
       y="169" />
    <rect
       height="2"
       id="rect5125"
       rx="0"
       ry="0"
       style="opacity:0.6;fill:#808080;fill-opacity:1;stroke:none;stroke-width:2;stroke-miterlimit:4;stroke-dasharray:none;stroke-opacity:1"
       transform="scale(-1,-1)"
       width="2"
       x="-13"
       y="167" />
    <rect
       height="2"
       id="rect5127"
       rx="0"
       ry="0"
       style="opacity:0.5;fill:#808080;fill-opacity:1;stroke:none;stroke-width:2;stroke-miterlimit:4;stroke-dasharray:none;stroke-opacity:1"
       transform="scale(-1,-1)"
       width="2"
       x="-19"
       y="171" />
    <rect
       height="2"
       id="rect5129"
       rx="0"
       ry="0"
       style="opacity:0.5;fill:#808080;fill-opacity:1;stroke:none;stroke-width:2;stroke-miterlimit:4;stroke-dasharray:none;stroke-opacity:1"
       transform="scale(-1,-1)"
       width="2"
       x="-17"
       y="169" />
    <rect
       height="2"
       id="rect5131"
       rx="0"
       ry="0"
       style="opacity:0.5;fill:#808080;fill-opacity:1;stroke:none;stroke-width:2;stroke-miterlimit:4;stroke-dasharray:none;stroke-opacity:1"
       transform="scale(-1,-1)"
       width="2"
       x="-15"
       y="167" />
    <rect
       height="2"
       id="rect5133"
       rx="0"
       ry="0"
       style="opacity:0.5;fill:#808080;fill-opacity:1;stroke:none;stroke-width:2;stroke-miterlimit:4;stroke-dasharray:none;stroke-opacity:1"
       transform="scale(-1,-1)"
       width="2"
       x="-13"
       y="165" />
    <rect
       height="2"
       id="rect5135"
       rx="0"
       ry="0"
       style="opacity:0.4;fill:#808080;fill-opacity:1;stroke:none;stroke-width:2;stroke-miterlimit:4;stroke-dasharray:none;stroke-opacity:1"
       transform="scale(-1,-1)"
       width="2"
       x="-21"
       y="171" />
    <rect
       height="2"
       id="rect5137"
       rx="0"
       ry="0"
       style="opacity:0.4;fill:#808080;fill-opacity:1;stroke:none;stroke-width:2;stroke-miterlimit:4;stroke-dasharray:none;stroke-opacity:1"
       transform="scale(-1,-1)"
       width="2"
       x="-19"
       y="169" />
    <rect
       height="2"
       id="rect5139"
       rx="0"
       ry="0"
       style="opacity:0.4;fill:#808080;fill-opacity:1;stroke:none;stroke-width:2;stroke-miterlimit:4;stroke-dasharray:none;stroke-opacity:1"
       transform="scale(-1,-1)"
       width="2"
       x="-17"
       y="167" />
    <rect
       height="2"
       id="rect5141"
       rx="0"
       ry="0"
       style="opacity:0.4;fill:#808080;fill-opacity:1;stroke:none;stroke-width:2;stroke-miterlimit:4;stroke-dasharray:none;stroke-opacity:1"
       transform="scale(-1,-1)"
       width="2"
       x="-15"
       y="165" />
    <rect
       height="2"
       id="rect5143"
       rx="0"
       ry="0"
       style="opacity:0.4;fill:#808080;fill-opacity:1;stroke:none;stroke-width:2;stroke-miterlimit:4;stroke-dasharray:none;stroke-opacity:1"
       transform="scale(-1,-1)"
       width="2"
       x="-13"
       y="163" />
    <rect
       height="2"
       id="rect5147"
       rx="0"
       ry="0"
       style="opacity:0.3;fill:#808080;fill-opacity:1;stroke:none;stroke-width:2;stroke-miterlimit:4;stroke-dasharray:none;stroke-opacity:1"
       transform="scale(-1,-1)"
       width="2"
       x="-21"
       y="169" />
    <rect
       height="2"
       id="rect5149"
       rx="0"
       ry="0"
       style="opacity:0.3;fill:#808080;fill-opacity:1;stroke:none;stroke-width:2;stroke-miterlimit:4;stroke-dasharray:none;stroke-opacity:1"
       transform="scale(-1,-1)"
       width="2"
       x="-19"
       y="167" />
    <rect
       height="2"
       id="rect5151"
       rx="0"
       ry="0"
       style="opacity:0.3;fill:#808080;fill-opacity:1;stroke:none;stroke-width:2;stroke-miterlimit:4;stroke-dasharray:none;stroke-opacity:1"
       transform="scale(-1,-1)"
       width="2"
       x="-17"
       y="165" />
    <rect
       height="2"
       id="rect5153"
       rx="0"
       ry="0"
       style="opacity:0.3;fill:#808080;fill-opacity:1;stroke:none;stroke-width:2;stroke-miterlimit:4;stroke-dasharray:none;stroke-opacity:1"
       transform="scale(-1,-1)"
       width="2"
       x="-15"
       y="163" />
    <rect
       height="2"
       id="rect5161"
       rx="0"
       ry="0"
       style="opacity:0.2;fill:#808080;fill-opacity:1;stroke:none;stroke-width:2;stroke-miterlimit:4;stroke-dasharray:none;stroke-opacity:1"
       transform="scale(-1,-1)"
       width="2"
       x="-21"
       y="167" />
    <rect
       height="2"
       id="rect5163"
       rx="0"
       ry="0"
       style="opacity:0.2;fill:#808080;fill-opacity:1;stroke:none;stroke-width:2;stroke-miterlimit:4;stroke-dasharray:none;stroke-opacity:1"
       transform="scale(-1,-1)"
       width="2"
       x="-19"
       y="165" />
    <rect
       height="2"
       id="rect5165"
       rx="0"
       ry="0"
       style="opacity:0.2;fill:#808080;fill-opacity:1;stroke:none;stroke-width:2;stroke-miterlimit:4;stroke-dasharray:none;stroke-opacity:1"
       transform="scale(-1,-1)"
       width="2"
       x="-17"
       y="163" />
    <rect
       height="2"
       id="rect6128"
       rx="0"
       ry="0"
       style="opacity:0.1;fill:#808080;fill-opacity:1;stroke:none;stroke-width:2;stroke-miterlimit:4;stroke-dasharray:none;stroke-opacity:1"
       transform="scale(-1,-1)"
       width="2"
       x="-21"
       y="165" />
    <rect
       height="2"
       id="rect6130"
       rx="0"
       ry="0"
       style="opacity:0.1;fill:#808080;fill-opacity:1;stroke:none;stroke-width:2;stroke-miterlimit:4;stroke-dasharray:none;stroke-opacity:1"
       transform="scale(-1,-1)"
       width="2"
       x="-19"
       y="163" />
    <rect
       height="2"
       id="rect6132"
       rx="0"
       ry="0"
       style="opacity:0.05;fill:#808080;fill-opacity:1;stroke:none;stroke-width:2;stroke-miterlimit:4;stroke-dasharray:none;stroke-opacity:1"
       transform="scale(-1,-1)"
       width="2"
       x="-21"
       y="163" />
  </g>
</svg>
