<?xml version="1.0" encoding="UTF-8" standalone="no"?>
<svg
   xmlns:dc="http://purl.org/dc/elements/1.1/"
   xmlns:cc="http://creativecommons.org/ns#"
   xmlns:rdf="http://www.w3.org/1999/02/22-rdf-syntax-ns#"
   xmlns:svg="http://www.w3.org/2000/svg"
   xmlns="http://www.w3.org/2000/svg"
   xmlns:sodipodi="http://sodipodi.sourceforge.net/DTD/sodipodi-0.dtd"
   xmlns:inkscape="http://www.inkscape.org/namespaces/inkscape"
   width="16.00025"
   version="1.1"
   id="svg7384"
   height="16"
   sodipodi:docname="evince-symbolic.svg"
   inkscape:version="0.92.3 (unknown)">
  <sodipodi:namedview
     pagecolor="#ffffff"
     bordercolor="#666666"
     borderopacity="1"
     objecttolerance="10"
     gridtolerance="10"
     guidetolerance="10"
     inkscape:pageopacity="0"
     inkscape:pageshadow="2"
     inkscape:window-width="1336"
     inkscape:window-height="798"
     id="namedview9"
     showgrid="false"
     inkscape:zoom="14.75"
     inkscape:cx="8.0001249"
     inkscape:cy="8"
     inkscape:window-x="0"
     inkscape:window-y="34"
     inkscape:window-maximized="0"
     inkscape:current-layer="layer9" />
  <metadata
     id="metadata90">
    <rdf:RDF>
      <cc:Work
         rdf:about="">
        <dc:format>image/svg+xml</dc:format>
        <dc:type
           rdf:resource="http://purl.org/dc/dcmitype/StillImage" />
        <dc:title>Gnome Symbolic Icon Theme</dc:title>
      </cc:Work>
    </rdf:RDF>
  </metadata>
  <title
     id="title9167">Gnome Symbolic Icon Theme</title>
  <defs
     id="defs7386" />
  <g
     transform="translate(-162.99995,-175)"
     style="display:inline"
     id="layer9">
    <path
       style="color:#000000;fill:#808080;fill-opacity:1;fill-rule:nonzero;stroke:none;stroke-width:1;marker:none;visibility:visible;display:inline;overflow:visible;enable-background:accumulate"
       id="path14726"
       d="m 163.49374,187.83932 c 2.62722,-0.74944 5.11151,-1.99669 7.28196,-3.65595 0.73727,-0.56362 1.45357,-1.19229 1.90302,-2.00422 0.22472,-0.40596 0.37854,-0.8547 0.41812,-1.31702 0.0396,-0.46232 -0.0382,-0.93839 -0.25137,-1.35053 -0.18032,-0.34862 -0.45433,-0.64588 -0.77767,-0.86838 -0.32335,-0.22249 -0.69505,-0.37122 -1.07948,-0.45039 -0.76885,-0.15834 -1.57376,-0.039 -2.31825,0.20988 -1.00645,0.33645 -1.94248,0.91913 -2.61909,1.73665 -0.67661,0.81751 -1.07928,1.87723 -1.02559,2.93707 0.0585,1.15341 0.65217,2.2426 1.49737,3.02962 0.84521,0.78703 1.92526,1.2902 3.04278,1.58161 1.63324,0.42589 3.37799,0.41601 5.0063,-0.0283 1.62831,-0.44436 3.13622,-1.32211 4.32673,-2.51858 l -0.0122,-3.10513 c -1.05108,1.62451 -2.6462,2.89024 -4.46707,3.54463 -1.3716,0.49293 -2.89985,0.63848 -4.2914,0.2051 -0.69578,-0.2167 -1.34964,-0.57667 -1.88655,-1.0694 -0.53692,-0.49273 -0.95449,-1.11949 -1.17653,-1.81358 -0.25715,-0.80385 -0.23972,-1.7123 0.14549,-2.46325 0.1926,-0.37547 0.47436,-0.7067 0.82221,-0.94561 0.34785,-0.23891 0.76192,-0.38367 1.1836,-0.39969 0.28215,-0.0107 0.56749,0.0361 0.82742,0.14639 0.25994,0.11026 0.49377,0.28471 0.66525,0.50903 0.19754,0.25841 0.30853,0.57801 0.33645,0.90208 0.0279,0.32406 -0.025,0.65235 -0.13153,0.95967 -0.21312,0.61463 -0.63073,1.13522 -1.06556,1.61908 -1.76211,1.96082 -3.94342,3.54306 -6.35445,4.60926 l -1e-5,0" />
  </g>
</svg>
