<?xml version="1.0" encoding="UTF-8" standalone="no"?>
<!-- Created with Inkscape (http://www.inkscape.org/) -->

<svg
   xmlns:dc="http://purl.org/dc/elements/1.1/"
   xmlns:cc="http://creativecommons.org/ns#"
   xmlns:rdf="http://www.w3.org/1999/02/22-rdf-syntax-ns#"
   xmlns:svg="http://www.w3.org/2000/svg"
   xmlns="http://www.w3.org/2000/svg"
   xmlns:sodipodi="http://sodipodi.sourceforge.net/DTD/sodipodi-0.dtd"
   xmlns:inkscape="http://www.inkscape.org/namespaces/inkscape"
   id="svg7384"
   height="16"
   width="16"
   version="1.1"
   sodipodi:docname="gnome-mahjongg.svg"
   inkscape:version="0.92.2 (unknown)">
  <defs
     id="defs10" />
  <sodipodi:namedview
     pagecolor="#ffffff"
     bordercolor="#666666"
     borderopacity="1"
     objecttolerance="10"
     gridtolerance="10"
     guidetolerance="10"
     inkscape:pageopacity="0"
     inkscape:pageshadow="2"
     inkscape:window-width="1460"
     inkscape:window-height="886"
     id="namedview8"
     showgrid="false"
     inkscape:zoom="14.75"
     inkscape:cx="-4.1016949"
     inkscape:cy="8"
     inkscape:window-x="0"
     inkscape:window-y="34"
     inkscape:window-maximized="0"
     inkscape:current-layer="layer9" />
  <metadata
     id="metadata90">
    <rdf:RDF>
      <cc:Work
         rdf:about="">
        <dc:format>image/svg+xml</dc:format>
        <dc:type
           rdf:resource="http://purl.org/dc/dcmitype/StillImage" />
        <dc:title>Gnome Symbolic Icon Theme</dc:title>
      </cc:Work>
    </rdf:RDF>
  </metadata>
  <title
     id="title9167">Gnome Symbolic Icon Theme</title>
  <g
     id="layer9"
     transform="translate(-423 145)">
    <path
       id="rect6077-4"
       style="opacity:0.3;fill:#808080;fill-opacity:1"
       d="m425-132.03v2c0 0.57131 0.45994 1.0312 1.0312 1.0312h8.9375c0.57131 0 1.0312-0.45994 1.0312-1.0312v-2c0 0.57131-0.45994 1.0312-1.0312 1.0312h-8.9375c-0.57131 0-1.0312-0.45994-1.0312-1.0312z" />
    <path
       id="rect6077"
       style="fill:#808080;fill-opacity:1"
       d="m426.03-145c-0.57131 0-1.0312 0.45994-1.0312 1.0312v11.938c0 0.57131 0.45994 1.0312 1.0312 1.0312h8.9375c0.57131 0 1.0312-0.45994 1.0312-1.0312v-11.938c0-0.57131-0.45994-1.0312-1.0312-1.0312h-8.9375zm2.9688 2h3l-1 1.0625v0.9375h3v0.5 1.6562l-1.8438 1.8438h-1.1562v4l-1 1v-5h-0.65625l-2.7812-2.9062 3.4375-0.96875v-1.0625l-1-1.0625zm2 3v2h0.75l1.25-1.25v-0.75h-2zm-1 0.125-1.5625 0.46875 1.3125 1.4062h0.25v-1.875z" />
  </g>
</svg>
