<?xml version="1.0" standalone="no"?><!-- Generator: Gravit.io --><svg xmlns="http://www.w3.org/2000/svg" xmlns:xlink="http://www.w3.org/1999/xlink" style="isolation:isolate" viewBox="0 0 256 256" width="256" height="256"><defs><filter id="Y5uiIHLHf6hD1XBHmjztzlA540gf1LCn" x="-200%" y="-200%" width="400%" height="400%" filterUnits="objectBoundingBox" color-interpolation-filters="sRGB"><feGaussianBlur xmlns="http://www.w3.org/2000/svg" in="SourceGraphic" stdDeviation="4.293609062839028"/><feOffset xmlns="http://www.w3.org/2000/svg" dx="0" dy="4" result="pf_100_offsetBlur"/><feFlood xmlns="http://www.w3.org/2000/svg" flood-color="#000000" flood-opacity="0.4"/><feComposite xmlns="http://www.w3.org/2000/svg" in2="pf_100_offsetBlur" operator="in" result="pf_100_dropShadow"/><feBlend xmlns="http://www.w3.org/2000/svg" in="SourceGraphic" in2="pf_100_dropShadow" mode="normal"/></filter></defs><g filter="url(#Y5uiIHLHf6hD1XBHmjztzlA540gf1LCn)"><linearGradient id="_lgradient_248" x1="0" y1="0" x2="-1.8369701987210297e-16" y2="1" gradientTransform="matrix(244.648309,0,0,228.338396,5.68,11.95)" gradientUnits="userSpaceOnUse"><stop offset="0.000009999999999999999%" stop-opacity="1" style="stop-color:rgb(22,160,133)"/><stop offset="100%" stop-opacity="1" style="stop-color:rgb(102,53,121)"/></linearGradient><path d=" M 165.688919 11.95 C 239.744626 11.95 250.328309 22.507198 250.328309 96.493859 L 250.328309 155.744653 C 250.328309 229.73091 239.744626 240.288396 165.688919 240.288396 L 90.319393 240.288396 C 16.26369 240.288396 5.68 229.73091 5.68 155.744653 L 5.68 96.493859 C 5.68 22.507198 16.26369 11.95 90.319393 11.95 L 165.688919 11.95 Z " id="shape" fill="url(#_lgradient_248)"/></g><g id="Group"><defs><filter id="euOABXrH9oMdAFX1YWJg017cth0uGKWu" x="-200%" y="-200%" width="400%" height="400%" filterUnits="objectBoundingBox" color-interpolation-filters="sRGB"><feGaussianBlur xmlns="http://www.w3.org/2000/svg" stdDeviation="4.293609062839028"/></filter></defs><g opacity="0.4" filter="url(#euOABXrH9oMdAFX1YWJg017cth0uGKWu)"><path d=" M 183.448091 78.505324 L 115.212727 146.503777 L 72.557938 104.002488 L 55.5 121.006607 L 98.155394 163.501883 L 115.212727 180.5 L 132.270665 163.501287 L 200.5 95.508841 L 183.442062 78.510127 L 183.448091 78.505324 Z " id="Path" fill="rgb(0,0,0)"/></g><path d=" M 183.448091 75.5 L 115.212727 143.498453 L 72.557938 100.997164 L 55.5 118.001283 L 98.155394 160.496559 L 115.212727 177.494676 L 132.270665 160.495963 L 200.5 92.503517 L 183.442062 75.504804 L 183.448091 75.5 Z " id="Path" fill="rgb(255,255,255)"/></g></svg>