<?xml version="1.0" encoding="UTF-8" standalone="no"?>
<!-- Created with Inkscape (http://www.inkscape.org/) -->

<svg
   xmlns:osb="http://www.openswatchbook.org/uri/2009/osb"
   xmlns:dc="http://purl.org/dc/elements/1.1/"
   xmlns:cc="http://creativecommons.org/ns#"
   xmlns:rdf="http://www.w3.org/1999/02/22-rdf-syntax-ns#"
   xmlns:svg="http://www.w3.org/2000/svg"
   xmlns="http://www.w3.org/2000/svg"
   xmlns:sodipodi="http://sodipodi.sourceforge.net/DTD/sodipodi-0.dtd"
   xmlns:inkscape="http://www.inkscape.org/namespaces/inkscape"
   sodipodi:docname="google-keep.svg"
   height="16"
   id="svg6530"
   version="1.1"
   inkscape:version="0.92.2 (unknown)"
   viewBox="0 0 16 16"
   width="16">
  <defs
     id="defs6532">
    <linearGradient
       id="linearGradient5606"
       osb:paint="solid">
      <stop
         id="stop5608"
         offset="0"
         style="stop-color:#000000;stop-opacity:1;" />
    </linearGradient>
  </defs>
  <sodipodi:namedview
     inkscape:bbox-nodes="true"
     bordercolor="#666666"
     borderopacity="1.0"
     inkscape:current-layer="layer3"
     inkscape:cx="1.1180722"
     inkscape:cy="8"
     inkscape:document-units="px"
     inkscape:guide-bbox="true"
     id="base"
     inkscape:object-nodes="true"
     inkscape:object-paths="true"
     pagecolor="#727272"
     inkscape:pageopacity="0"
     inkscape:pageshadow="2"
     showgrid="false"
     showguides="true"
     inkscape:snap-bbox="true"
     inkscape:snap-bbox-edge-midpoints="true"
     inkscape:snap-bbox-midpoints="true"
     inkscape:snap-smooth-nodes="true"
     units="px"
     inkscape:window-height="1013"
     inkscape:window-maximized="1"
     inkscape:window-width="1920"
     inkscape:window-x="0"
     inkscape:window-y="34"
     inkscape:zoom="51.875">
    <inkscape:grid
       empspacing="4"
       id="grid8845"
       originx="-540"
       originy="-100.00162"
       type="xygrid" />
  </sodipodi:namedview>
  <metadata
     id="metadata6535">
    <rdf:RDF>
      <cc:Work
         rdf:about="">
        <dc:format>image/svg+xml</dc:format>
        <dc:type
           rdf:resource="http://purl.org/dc/dcmitype/StillImage" />
        <dc:title />
      </cc:Work>
    </rdf:RDF>
  </metadata>
  <g
     inkscape:groupmode="layer"
     id="layer3"
     inkscape:label="apps"
     transform="translate(-540,-483.99838)">
    <path
       inkscape:connector-curvature="0"
       d="m 547.64286,483.99838 c -2.8404,0 -5.14286,2.30914 -5.14286,5.15571 0,1.68789 0.79443,3.16131 2.04106,4.10143 0.57344,0.43406 1.04787,0.99321 1.04787,1.76464 l 0.0539,0.97822 h 4 l 0.0571,-0.97822 c 0.045,-0.77013 0.4722,-1.33058 1.04461,-1.76464 1.2477,-0.94012 2.0411,-2.41354 2.0411,-4.10143 0,-2.84657 -2.30241,-5.15571 -5.14294,-5.15571 z m 0,2.06035 c 1.70331,0 3.0857,1.38947 3.0857,3.09536 0,0.97457 -0.4438,1.87149 -1.22142,2.45571 -1.16022,0.87789 -1.59994,1.85863 -1.76143,2.67429 h -0.2057 c -0.16047,-0.81566 -0.60069,-1.7964 -1.76143,-2.67429 -0.77554,-0.58474 -1.22144,-1.48165 -1.22144,-2.45571 0,-1.70589 1.38292,-3.09536 3.08572,-3.09536 z m -2,10.93965 v 1 h 4 v -1 z m 1,2 v 1 h 2 v -1 z"
       id="path4766-4"
       sodipodi:nodetypes="sscsccscssscccccssccccccccccc"
       style="fill:#808080;fill-opacity:1;stroke:none" />
  </g>
  <g
     inkscape:groupmode="layer"
     id="layer1"
     inkscape:label="panel"
     style="display:inline"
     transform="translate(-540,-936.36054)" />
  <g
     inkscape:groupmode="layer"
     id="layer2"
     inkscape:label="animations"
     transform="translate(-540,-483.99838)" />
</svg>
