<?xml version="1.0" encoding="UTF-8" standalone="no"?>
<!-- Created with Inkscape (http://www.inkscape.org/) -->

<svg
   xmlns:dc="http://purl.org/dc/elements/1.1/"
   xmlns:cc="http://creativecommons.org/ns#"
   xmlns:rdf="http://www.w3.org/1999/02/22-rdf-syntax-ns#"
   xmlns:svg="http://www.w3.org/2000/svg"
   xmlns="http://www.w3.org/2000/svg"
   xmlns:sodipodi="http://sodipodi.sourceforge.net/DTD/sodipodi-0.dtd"
   xmlns:inkscape="http://www.inkscape.org/namespaces/inkscape"
   version="1.1"
   id="svg2"
   width="16"
   height="16"
   viewBox="0 0 16 16"
   sodipodi:docname="google-play-music-desktop-player-symbolic.svg"
   inkscape:version="0.92.2 (unknown)">
  <metadata
     id="metadata8">
    <rdf:RDF>
      <cc:Work
         rdf:about="">
        <dc:format>image/svg+xml</dc:format>
        <dc:type
           rdf:resource="http://purl.org/dc/dcmitype/StillImage" />
        <dc:title></dc:title>
      </cc:Work>
    </rdf:RDF>
  </metadata>
  <defs
     id="defs6" />
  <sodipodi:namedview
     pagecolor="#ffffff"
     bordercolor="#666666"
     borderopacity="1"
     objecttolerance="10"
     gridtolerance="10"
     guidetolerance="10"
     inkscape:pageopacity="0"
     inkscape:pageshadow="2"
     inkscape:window-width="1642"
     inkscape:window-height="920"
     id="namedview4"
     showgrid="false"
     inkscape:zoom="46.0625"
     inkscape:cx="4.1248304"
     inkscape:cy="8"
     inkscape:window-x="0"
     inkscape:window-y="34"
     inkscape:window-maximized="0"
     inkscape:current-layer="svg2" />
  <path
     style="fill:#808080;stroke-width:0.03055325;fill-opacity:1"
     d="m 2.1691782,15.467757 c -0.08911,-0.025 -0.190771,-0.0609 -0.22592,-0.0797 -0.120514,-0.0645 -0.335236,-0.28432 -0.398412,-0.40788 -0.151109,-0.29553 -0.144806,0.008 -0.144806,-6.9827894 0,-6.99712 -0.0065,-6.68691 0.14586,-6.98486 0.08979,-0.17560997 0.342905,-0.39367997 0.534134,-0.46017997 0.200575,-0.0697 0.582527,-0.0698 0.819476,-1.2e-4 0.103684,0.0305 0.835279,0.43088 1.85629,1.01588997 l 1.685162,0.96556 0.35882,-0.0653 c 2.434987,-0.44328 4.8987108,0.74651 6.1030078,2.94728 0.126586,0.23133 0.380021,0.82739 0.422196,0.99298 0.01526,0.0599 0.128481,0.13856 0.524875,0.36461 0.386196,0.22023 0.545211,0.32993 0.674102,0.46506 0.245423,0.2573 0.303454,0.40245 0.303482,0.7591 2e-5,0.25478 -0.01024,0.31115 -0.08395,0.46124 -0.172424,0.35109 -0.194862,0.36562 -3.353272,2.1716904 -1.6048088,0.917669 -4.1291448,2.361779 -5.6096338,3.209119 -1.493062,0.85454 -2.765247,1.56341 -2.856729,1.59179 -0.242761,0.0753 -0.561556,0.0907 -0.754686,0.0365 z m 4.927826,-3.0992 c 0.583385,-0.33497 1.065027,-0.61339 1.070315,-0.61871 0.0053,-0.005 -0.171389,-0.0106 -0.392615,-0.0118 -0.592284,-0.003 -1.074386,-0.11909 -1.593806,-0.38356 -0.988995,-0.503559 -1.693696,-1.4477394 -1.91274,-2.5627494 -0.05951,-0.3029 -0.05107,-1.03211 0.01555,-1.34434 0.186091,-0.87212 0.667232,-1.63513 1.359467,-2.15589 0.720487,-0.54201 1.606984,-0.79824 2.477673,-0.71613 0.981759,0.0926 1.824348,0.5315 2.4412958,1.2717 0.561774,0.674 0.834237,1.42527 0.835252,2.30305 8.68e-4,0.74996 -0.202287,1.41064 -0.632978,2.0585204 l -0.05839,0.0878 0.107169,-0.0573 c 0.05894,-0.0315 0.548743,-0.3105304 1.088445,-0.6200604 0.687887,-0.39451 0.986597,-0.58178 0.999073,-0.62634 0.0098,-0.035 0.03417,-0.23876 0.05419,-0.45289 0.06099,-0.65253 -0.02289,-1.32683 -0.250313,-2.01214 -1.024506,-3.08726 -4.6013938,-4.45509 -7.4544598,-2.85064 -0.815927,0.45884 -1.625542,1.30864 -2.046273,2.14784 -1.162496,2.31873 -0.432809,5.1474204 1.700816,6.5933494 0.416407,0.28219 0.945397,0.55513 1.081717,0.55812 0.02745,6.1e-4 0.527231,-0.27297 1.110616,-0.60793 z m 0.855983,-2.5906694 c 0.166767,-0.0863 0.347367,-0.26814 0.415606,-0.41839 0.05175,-0.11396 0.05669,-0.21996 0.0573,-1.23224 l 6.72e-4,-1.10755 h 0.397193 0.397192 v -0.44303 -0.44302 h -0.626344 -0.626341 v 1.08464 c 0,0.59655 -0.0051,1.08464 -0.01144,1.08464 -0.0063,0 -0.06989,-0.0206 -0.141331,-0.0458 -0.213295,-0.0752 -0.42129,-0.0594 -0.637164,0.0484 -0.613884,0.30676 -0.608457,1.18988 0.0091,1.48497 0.132788,0.0634 0.188766,0.0722 0.398891,0.0622 0.169444,-0.008 0.281917,-0.031 0.366639,-0.0749 z"
     id="path12"
     inkscape:connector-curvature="0" />
</svg>
