<?xml version="1.0" standalone="no"?><!-- Generator: Gravit.io --><svg xmlns="http://www.w3.org/2000/svg" xmlns:xlink="http://www.w3.org/1999/xlink" style="isolation:isolate" viewBox="0 0 16 16" width="16" height="16"><path d=" M 2 0 C 0.901 0 0 0.901 0 2 L 0 14 C 0 15.099 0.901 16 2 16 L 14 16 C 15.099 16 16 15.099 16 14 L 16 2 C 16 0.901 15.099 0 14 0 L 2 0 Z  M 2 1.333 L 14 1.333 C 14.375 1.333 14.667 1.625 14.667 2 L 14.667 14 C 14.667 14.375 14.375 14.667 14 14.667 L 2 14.667 C 1.823 14.669 1.652 14.599 1.526 14.474 C 1.401 14.348 1.331 14.177 1.333 14 L 1.333 2 C 1.333 1.625 1.625 1.333 2 1.333 Z  M 5.333 4 L 5.333 5.333 L 10.667 5.333 L 10.667 4 L 5.333 4 Z  M 10 8.667 L 9.333 9.333 L 9.333 10.667 L 10.667 10.667 L 10.667 9.333 L 10 8.667 Z  M 12.667 8.667 L 12 9.333 L 12 10.667 L 13.333 10.667 L 13.333 9.333 L 12.667 8.667 Z  M 9.333 12 L 9.333 13.333 L 13.333 13.333 L 13.333 12 L 9.333 12 Z " fill="rgb(92,97,108)"/></svg>