<?xml version="1.0" encoding="UTF-8" standalone="no"?>
<svg
   xmlns:osb="http://www.openswatchbook.org/uri/2009/osb"
   xmlns:dc="http://purl.org/dc/elements/1.1/"
   xmlns:cc="http://creativecommons.org/ns#"
   xmlns:rdf="http://www.w3.org/1999/02/22-rdf-syntax-ns#"
   xmlns:svg="http://www.w3.org/2000/svg"
   xmlns="http://www.w3.org/2000/svg"
   xmlns:sodipodi="http://sodipodi.sourceforge.net/DTD/sodipodi-0.dtd"
   xmlns:inkscape="http://www.inkscape.org/namespaces/inkscape"
   height="16"
   id="svg7384"
   version="1.1"
   width="15.999999"
   sodipodi:docname="lightdm-settings-symbolic.svg"
   inkscape:version="0.92.3 (2405546, 2018-03-11)">
  <sodipodi:namedview
     pagecolor="#ffffff"
     bordercolor="#666666"
     borderopacity="1"
     objecttolerance="10"
     gridtolerance="10"
     guidetolerance="10"
     inkscape:pageopacity="0"
     inkscape:pageshadow="2"
     inkscape:window-width="1798"
     inkscape:window-height="800"
     id="namedview19"
     showgrid="false"
     inkscape:zoom="14.75"
     inkscape:cx="-5.4915259"
     inkscape:cy="8"
     inkscape:window-x="0"
     inkscape:window-y="34"
     inkscape:window-maximized="0"
     inkscape:current-layer="g1833" />
  <metadata
     id="metadata20854">
    <rdf:RDF>
      <cc:Work
         rdf:about="">
        <dc:title />
        <dc:format>image/svg+xml</dc:format>
        <dc:type
           rdf:resource="http://purl.org/dc/dcmitype/StillImage" />
      </cc:Work>
    </rdf:RDF>
  </metadata>
  <defs
     id="defs7386">
    <linearGradient
       id="linearGradient5606"
       osb:paint="solid">
      <stop
         id="stop5608"
         offset="0"
         style="stop-color:#000000;stop-opacity:1;" />
    </linearGradient>
    <linearGradient
       id="linearGradient4526"
       osb:paint="solid">
      <stop
         id="stop4528"
         offset="0"
         style="stop-color:#ffffff;stop-opacity:1;" />
    </linearGradient>
  </defs>
  <g
     id="layer9"
     label="status"
     style="display:inline"
     transform="translate(-573.00017,127.00006)" />
  <g
     id="layer2"
     transform="translate(-331.99997,-239.99994)" />
  <g
     id="layer4"
     transform="translate(-331.99997,-239.99994)" />
  <g
     id="g1812"
     style="display:inline"
     transform="translate(-331.99997,-239.99994)" />
  <g
     id="g6217"
     transform="translate(-331.99997,-239.99994)" />
  <g
     id="layer3"
     style="display:inline"
     transform="translate(-331.99997,-239.99994)" />
  <g
     id="g1833"
     style="display:inline"
     transform="translate(-331.99997,-239.99994)">
    <path
       style="color:#000000;font-style:normal;font-variant:normal;font-weight:normal;font-stretch:normal;font-size:medium;line-height:normal;font-family:sans-serif;font-variant-ligatures:normal;font-variant-position:normal;font-variant-caps:normal;font-variant-numeric:normal;font-variant-alternates:normal;font-feature-settings:normal;text-indent:0;text-align:start;text-decoration:none;text-decoration-line:none;text-decoration-style:solid;text-decoration-color:#000000;letter-spacing:normal;word-spacing:normal;text-transform:none;writing-mode:lr-tb;direction:ltr;text-orientation:mixed;dominant-baseline:auto;baseline-shift:baseline;text-anchor:start;white-space:normal;shape-padding:0;clip-rule:nonzero;display:inline;overflow:visible;visibility:visible;opacity:1;isolation:auto;mix-blend-mode:normal;color-interpolation:sRGB;color-interpolation-filters:linearRGB;solid-color:#000000;solid-opacity:1;vector-effect:none;fill:#808080;fill-opacity:1;fill-rule:nonzero;stroke:none;stroke-width:1.00000012;stroke-linecap:butt;stroke-linejoin:miter;stroke-miterlimit:4;stroke-dasharray:none;stroke-dashoffset:0;stroke-opacity:1;marker:none;color-rendering:auto;image-rendering:auto;shape-rendering:auto;text-rendering:auto;enable-background:accumulate"
       d="M 3.9941406 1 C 2.7359406 1.0145 1.81525 0.96939563 1.0625 1.3847656 C 0.68613 1.5924256 0.38926938 1.9441525 0.22460938 2.3828125 C 0.059939375 2.8214825 0 3.34239 0 4 L 0 12 C 0 12.65761 0.059899375 13.178528 0.22460938 13.617188 C 0.38927938 14.055847 0.68613 14.407584 1.0625 14.615234 C 1.81525 15.030554 2.7359506 14.98543 3.9941406 15 L 3.9980469 15 L 12.001953 15 L 12.005859 15 C 13.264049 14.9855 14.18475 15.030604 14.9375 14.615234 C 15.31387 14.407574 15.610721 14.055847 15.775391 13.617188 C 15.939881 13.178517 16 12.65761 16 12 L 16 4 C 16 3.34239 15.940101 2.8214825 15.775391 2.3828125 C 15.610731 1.9441525 15.31387 1.5924256 14.9375 1.3847656 C 14.18475 0.96942563 13.264059 1.01452 12.005859 1 L 12.001953 1 L 3.9980469 1 L 3.9941406 1 z M 4 2 L 12 2 C 13.25852 2.0147 14.087175 2.0597987 14.453125 2.2617188 C 14.636535 2.3629188 14.742284 2.474455 14.839844 2.734375 C 14.937274 2.994285 15 3.40761 15 4 L 15 12 C 15 12.59239 14.937404 13.005725 14.839844 13.265625 C 14.742244 13.525535 14.636535 13.637091 14.453125 13.738281 C 14.087175 13.940191 13.25852 13.98529 12 14 L 4.0058594 14 L 4 14 C 2.74147 13.9853 1.9108819 13.940201 1.5449219 13.738281 C 1.3615119 13.637091 1.2577162 13.525535 1.1601562 13.265625 C 1.0625862 13.005725 1 12.59239 1 12 L 1 4 C 1 3.40761 1.0625962 2.994275 1.1601562 2.734375 C 1.2577562 2.474465 1.3615119 2.3629088 1.5449219 2.2617188 C 1.9108819 2.0598088 2.74147 2.01471 4 2 z M 4 6.5 A 1.5 1.5 0 0 0 2.5 8 A 1.5 1.5 0 0 0 4 9.5 A 1.5 1.5 0 0 0 5.5 8 A 1.5 1.5 0 0 0 4 6.5 z M 8 6.5 A 1.5 1.5 0 0 0 6.5 8 A 1.5 1.5 0 0 0 8 9.5 A 1.5 1.5 0 0 0 9.5 8 A 1.5 1.5 0 0 0 8 6.5 z M 12 6.5 A 1.5 1.5 0 0 0 10.5 8 A 1.5 1.5 0 0 0 12 9.5 A 1.5 1.5 0 0 0 13.5 8 A 1.5 1.5 0 0 0 12 6.5 z "
       transform="translate(331.99997,239.99994)"
       id="path1975" />
    <g
       id="g833"
       transform="translate(-0.21185303,-0.60163879)"
       style="fill:#808080;fill-opacity:1" />
  </g>
  <g
     id="layer1"
     transform="translate(-331.99997,-239.99994)" />
</svg>
