<svg xmlns="http://www.w3.org/2000/svg" width="16" height="16">
 <g color="#000" transform="translate(-52 -320)">
  <path fill="#5c616c" d="M53 327.92a6.94 6.94 0 0 0 .324 2.201A7.004 7.004 0 0 0 60 335a7.004 7.004 0 0 0 6.676-4.879 6.978 6.978 0 0 0-2.662-7.818l-1.145 1.64a4.96 4.96 0 0 1 1.9 5.575A4.99 4.99 0 0 1 60 333a4.99 4.99 0 0 1-4.77-3.482 4.96 4.96 0 0 1 1.9-5.575l-1.144-1.64A6.985 6.985 0 0 0 53 327.92z" font-family="sans-serif" font-weight="400" overflow="visible"/>
  <path fill="#5c616c" d="M59 321v7h2v-7.25z" font-family="sans-serif" font-weight="400" overflow="visible"/>
 </g>
</svg>
