<?xml version="1.0" encoding="UTF-8" standalone="no"?>
<svg
   xmlns:osb="http://www.openswatchbook.org/uri/2009/osb"
   xmlns:dc="http://purl.org/dc/elements/1.1/"
   xmlns:cc="http://creativecommons.org/ns#"
   xmlns:rdf="http://www.w3.org/1999/02/22-rdf-syntax-ns#"
   xmlns:svg="http://www.w3.org/2000/svg"
   xmlns="http://www.w3.org/2000/svg"
   xmlns:sodipodi="http://sodipodi.sourceforge.net/DTD/sodipodi-0.dtd"
   xmlns:inkscape="http://www.inkscape.org/namespaces/inkscape"
   height="16"
   id="svg7384"
   version="1.1"
   width="16.000031"
   sodipodi:docname="fontforge-symbolic.svg"
   inkscape:version="0.92.3 (2405546, 2018-03-11)">
  <sodipodi:namedview
     pagecolor="#ffffff"
     bordercolor="#666666"
     borderopacity="1"
     objecttolerance="10"
     gridtolerance="10"
     guidetolerance="10"
     inkscape:pageopacity="0"
     inkscape:pageshadow="2"
     inkscape:window-width="1589"
     inkscape:window-height="749"
     id="namedview15"
     showgrid="false"
     inkscape:zoom="14.75"
     inkscape:cx="-5.2881203"
     inkscape:cy="8"
     inkscape:window-x="0"
     inkscape:window-y="34"
     inkscape:window-maximized="0"
     inkscape:current-layer="svg7384" />
  <metadata
     id="metadata20854">
    <rdf:RDF>
      <cc:Work
         rdf:about="">
        <dc:title></dc:title>
        <dc:format>image/svg+xml</dc:format>
        <dc:type
           rdf:resource="http://purl.org/dc/dcmitype/StillImage" />
      </cc:Work>
    </rdf:RDF>
  </metadata>
  <defs
     id="defs7386">
    <linearGradient
       id="linearGradient5606"
       osb:paint="solid">
      <stop
         id="stop5608"
         offset="0"
         style="stop-color:#000000;stop-opacity:1;" />
    </linearGradient>
    <linearGradient
       id="linearGradient4526"
       osb:paint="solid">
      <stop
         id="stop4528"
         offset="0"
         style="stop-color:#ffffff;stop-opacity:1;" />
    </linearGradient>
  </defs>
  <g
     id="layer9"
     label="status"
     style="display:inline"
     transform="translate(-613.00017,187.00006)" />
  <g
     id="layer2"
     transform="translate(-371.99997,-179.99994)" />
  <g
     id="layer3"
     style="display:inline"
     transform="translate(-371.99997,-179.99994)" />
  <g
     id="layer1"
     transform="translate(-371.99997,-179.99994)" />
  <path
     inkscape:connector-curvature="0"
     style="fill:#808080;fill-opacity:1;stroke:none;stroke-width:1.24973381"
     d="M 0.5,0.50000138 V 4.2484047 h 1.25 v 6.2473373 0.139101 l -1.25,1.26655 v 1.718018 1.874202 c 0.7086988,0.01249 1.13537,0.0034 1.875,0 0.662585,-0.0031 1.6796876,0 1.6796876,0 0.00488,2.05e-4 0.9861412,-1.006593 1.2280275,-1.249468 H 5.5000001 11.75 v 1.249468 H 15.5 V 11.74521 H 14.25 13 11.75 v 1.249468 H 6.5131839 C 9.5250668,9.9418024 15.304688,4.0531754 15.304688,4.0531754 L 11.75,0.50000138 3,9.368293 V 4.2484047 H 4.2500001 V 2.9989365 1.7494689 0.50000138 Z M 1.75,1.7494689 H 3 V 2.9989365 H 1.75 Z M 10.851563,3.1941658 12.609375,4.9512302 5.8417963,11.898954 4.0815426,10.15409 Z m 4.609375,6.0521092 c -0.0087,3.75e-5 -0.03701,0.00737 -0.04639,0.00737 h 0.08545 c -0.01513,-0.0025 -0.02356,-0.00487 -0.03906,-0.00737 z M 13,12.994678 h 1.25 v 1.249467 H 13 Z"
     class="ColorScheme-Text"
     id="path871" />
</svg>
