<?xml version="1.0" encoding="UTF-8" standalone="no"?>
<svg
   xmlns:dc="http://purl.org/dc/elements/1.1/"
   xmlns:cc="http://creativecommons.org/ns#"
   xmlns:rdf="http://www.w3.org/1999/02/22-rdf-syntax-ns#"
   xmlns:svg="http://www.w3.org/2000/svg"
   xmlns="http://www.w3.org/2000/svg"
   xmlns:sodipodi="http://sodipodi.sourceforge.net/DTD/sodipodi-0.dtd"
   xmlns:inkscape="http://www.inkscape.org/namespaces/inkscape"
   height="16"
   width="16"
   version="1.1"
   id="svg8"
   sodipodi:docname="vivaldi.svg"
   inkscape:version="0.92.2 (unknown)">
  <metadata
     id="metadata8">
    <rdf:RDF>
      <cc:Work
         rdf:about="">
        <dc:format>image/svg+xml</dc:format>
        <dc:type
           rdf:resource="http://purl.org/dc/dcmitype/StillImage" />
        <dc:title></dc:title>
      </cc:Work>
    </rdf:RDF>
  </metadata>
  <sodipodi:namedview
     pagecolor="#ffffff"
     bordercolor="#666666"
     borderopacity="1"
     objecttolerance="10"
     gridtolerance="10"
     guidetolerance="10"
     inkscape:pageopacity="0"
     inkscape:pageshadow="2"
     inkscape:window-width="1339"
     inkscape:window-height="892"
     id="namedview6"
     showgrid="false"
     inkscape:zoom="9.8333333"
     inkscape:cx="12"
     inkscape:cy="12"
     inkscape:window-x="0"
     inkscape:window-y="34"
     inkscape:window-maximized="0"
     inkscape:current-layer="svg8" />
  <defs
     id="defs3">
    <style
       type="text/css"
       id="current-color-scheme">
   .ColorScheme-Text { color:#5c616c; } .ColorScheme-Highlight { color:#5294e2; } .ColorScheme-ButtonBackground { color:#d3dae3; }
  </style>
  </defs>
  <path
     style="color:#d3dae3;fill:#808080;fill-opacity:1;stroke-width:0.83185655"
     class="ColorScheme-ButtonBackground"
     d="m 13.735344,0.88295621 c -0.974592,0 -1.764656,0.79006339 -1.764656,1.76465599 8.12e-4,0.2357685 0.04886,0.4689837 0.14131,0.6858722 0.01415,0.050942 0.02486,0.1102549 0.04135,0.1533734 0.369163,1.4228486 -0.0071,2.5355509 -0.847058,3.5482681 -1.176378,1.1849939 -2.8666631,1.2059024 -4.0350416,0.048254 L 3.7040332,1.4430276 C 3.3423785,1.0528182 2.8393027,0.91285401 2.3788178,0.91052891 1.3888504,0.89414501 0.70288794,1.6843526 0.54006004,2.5321513 c -0.1202711,0.6784608 -0.175249,0.5608764 3.02266276,6.3710289 2.0185169,3.6673378 2.9773507,5.3587238 3.1346777,5.5248888 0.5572405,0.588693 1.3526364,0.734014 2.0955294,0.384295 0.195327,-0.09196 0.415379,-0.257441 0.556623,-0.417038 C 9.6262199,14.082718 15.258966,3.727643 15.351796,3.3713969 15.462416,3.1344056 15.485919,2.8839882 15.5,2.6476122 15.5,1.6730196 14.709936,0.88295621 13.735344,0.88295621 Z"
     id="path8-3"
     inkscape:connector-curvature="0" />
</svg>
