<svg xmlns="http://www.w3.org/2000/svg" width="16" height="16" version="1.1">
 <g style="fill:#5c616c" transform="translate(-912,-443.95)">
  <path style="fill:#5c616c" d="M 919.89,443.95 C 917.78,443.98 914.94,444.75 914.99,447.23 915.04,449.82 917.91,448.89 918.14,449.95 918.18,449.9 918.23,449.87 918.27,449.82 918.47,449.61 918.66,449.44 918.86,449.23 919.17,448.88 919.5,448.55 919.83,448.2 920.93,447.02 920.98,446.95 923.62,444.95 922.59,444.33 921.37,443.99 920.33,443.95 920.19,443.95 920.03,443.95 919.89,443.95 Z M 917.99,445.48 C 918.81,445.48 919.49,446.15 919.49,446.98 A 1.499,1.499 0 1 1 917.99,445.48 Z M 925.26,446.14 C 923.84,448.38 922.89,449.7 921.89,450.73 921.25,451.39 920.72,452.04 920.26,452.51 919.42,453.4 918.33,454.45 917.12,455.61 917.18,457.08 917.92,458.35 920.36,458.82 924.26,459.58 928.39,457 927.97,451.76 927.79,449.51 926.56,447.48 925.26,446.14 Z M 925.6,449.95 A 1,1 0 0 1 925.6,451.95 1,1 0 0 1 925.6,449.95 Z M 924.97,452.95 A 1,1 0 0 1 924.97,454.95 1,1 0 0 1 924.97,452.95 Z M 919.98,454.95 A 1,1 0 0 1 919.98,456.95 1,1 0 0 1 919.98,454.95 Z M 922.98,454.95 A 1,1 0 0 1 922.98,456.95 1,1 0 0 1 922.98,454.95 Z M 912,457.45 C 913.55,457.45 913.39,455.66 914.15,455.16 915.02,454.58 915.78,455.3 915.94,455.89 916.13,456.63 915.82,457.52 914.81,457.77 913.73,458.04 912.15,458.05 912,457.45 Z"/>
  <path style="fill:#5c616c" d="M 926.03,443.95 C 924.24,445.25 921.83,447.25 919.92,449.29 919.75,449.47 919.58,449.65 919.42,449.83 919.31,449.94 919.2,450.03 919.1,450.14 919.04,450.22 918.97,450.3 918.91,450.38 917.04,452.45 915.19,455.06 913.99,457.01 916.97,454.71 918.91,452.85 920.14,451.54 920.38,451.3 920.67,450.98 920.99,450.62 922.2,449.28 923.92,447.18 926.03,443.95 Z"/>
 </g>
</svg>
