<svg xmlns="http://www.w3.org/2000/svg" fill="none" width="16" height="16" viewBox="0 0 16 16">
 <defs>
  <style id="current-color-scheme" type="text/css">
   .ColorScheme-Text { color:#5c616c; } .ColorScheme-Highlight { color:#5294e2; }
  </style>
  <linearGradient id="arrongin" x1="0%" x2="0%" y1="0%" y2="100%">
   <stop offset="0%" style="stop-color:#dd9b44"/>
   <stop offset="100%" style="stop-color:#ad6c16"/>
  </linearGradient>
  <linearGradient id="aurora" x1="0%" x2="0%" y1="0%" y2="100%">
   <stop offset="0%" style="stop-color:#09D4DF"/>
   <stop offset="100%" style="stop-color:#9269F4"/>
  </linearGradient>
  <linearGradient id="fitdance" x1="0%" x2="0%" y1="0%" y2="100%">
   <stop offset="0%" style="stop-color:#1AD6AB"/>
   <stop offset="100%" style="stop-color:#329DB6"/>
  </linearGradient>
  <linearGradient id="oomox" x1="0%" x2="0%" y1="0%" y2="100%">
   <stop offset="0%" style="stop-color:#efefe7"/>
   <stop offset="100%" style="stop-color:#8f8f8b"/>
  </linearGradient>
  <linearGradient id="rainblue" x1="0%" x2="0%" y1="0%" y2="100%">
   <stop offset="0%" style="stop-color:#00F260"/>
   <stop offset="100%" style="stop-color:#0575E6"/>
  </linearGradient>
  <linearGradient id="sunrise" x1="0%" x2="0%" y1="0%" y2="100%">
   <stop offset="0%" style="stop-color:#FF8501"/>
   <stop offset="100%" style="stop-color:#FFCB01"/>
  </linearGradient>
  <linearGradient id="telinkrin" x1="0%" x2="0%" y1="0%" y2="100%">
   <stop offset="0%" style="stop-color:#b2ced6"/>
   <stop offset="100%" style="stop-color:#6da5b7"/>
  </linearGradient>
  <linearGradient id="60spsycho" x1="0%" x2="0%" y1="0%" y2="100%">
   <stop offset="0%" style="stop-color:#df5940"/>
   <stop offset="25%" style="stop-color:#d8d15f"/>
   <stop offset="50%" style="stop-color:#e9882a"/>
   <stop offset="100%" style="stop-color:#279362"/>
  </linearGradient>
  <linearGradient id="90ssummer" x1="0%" x2="0%" y1="0%" y2="100%">
   <stop offset="0%" style="stop-color:#f618c7"/>
   <stop offset="20%" style="stop-color:#94ffab"/>
   <stop offset="50%" style="stop-color:#fbfd54"/>
   <stop offset="100%" style="stop-color:#0f83ae"/>
  </linearGradient>
 </defs>
 <path fill="currentColor" class="ColorScheme-Text" d="M1.32167 5.92167C1.07972 5.92167 0.868473 5.8657 0.687917 5.75375C0.510973 5.6382 0.37375 5.48473 0.27625 5.29334C0.182361 5.09834 0.111945 4.8907 0.0650001 4.67042C0.0216667 4.45014 0 4.21361 0 3.96083C0 3.78028 0.0108334 3.60514 0.0325 3.43542C0.0577779 3.2657 0.101111 3.09236 0.1625 2.91542C0.223889 2.73486 0.301528 2.57958 0.395417 2.44958C0.492917 2.31958 0.621112 2.21306 0.780001 2.13C0.93889 2.04333 1.11945 2 1.32167 2C1.56361 2 1.77486 2.05778 1.95542 2.17333C2.13597 2.28528 2.2732 2.43875 2.36709 2.63375C2.46459 2.82875 2.535 3.03639 2.57834 3.25667C2.62528 3.47695 2.64875 3.71167 2.64875 3.96083C2.64875 4.19195 2.62709 4.41403 2.58375 4.62709C2.54403 4.83653 2.47722 5.04417 2.38334 5.25C2.28945 5.45223 2.15042 5.61473 1.96625 5.7375C1.7857 5.86028 1.57083 5.92167 1.32167 5.92167ZM1.32167 5.49375C1.48778 5.49375 1.62861 5.44861 1.74417 5.35834C1.86333 5.26445 1.95 5.13806 2.00417 4.97917C2.06195 4.82028 2.10167 4.65959 2.12334 4.49709C2.14861 4.33097 2.16125 4.15222 2.16125 3.96083C2.16125 3.75861 2.14681 3.57264 2.11792 3.40292C2.09264 3.2332 2.04931 3.0725 1.98792 2.92083C1.93014 2.76556 1.84347 2.64458 1.72792 2.55792C1.61597 2.47125 1.48056 2.42792 1.32167 2.42792C1.15556 2.42792 1.01292 2.47486 0.893751 2.56875C0.778195 2.65903 0.691528 2.78542 0.633751 2.94792C0.575973 3.10681 0.534445 3.2675 0.509167 3.43C0.4875 3.5925 0.476667 3.76945 0.476667 3.96083C0.476667 4.16306 0.489306 4.35084 0.514584 4.52417C0.543473 4.69389 0.586806 4.85459 0.644584 5.00625C0.705973 5.15792 0.79264 5.27709 0.904584 5.36375C1.02014 5.45042 1.15917 5.49375 1.32167 5.49375ZM1.57083 4.21542C1.50222 4.28403 1.41917 4.31834 1.32167 4.31834C1.22417 4.31834 1.14111 4.28403 1.0725 4.21542C1.00389 4.1432 0.969584 4.06014 0.969584 3.96625C0.969584 3.86875 1.00389 3.7857 1.0725 3.71708C1.14111 3.64486 1.22417 3.60875 1.32167 3.60875C1.41917 3.60875 1.50222 3.64486 1.57083 3.71708C1.64306 3.7857 1.67917 3.86875 1.67917 3.96625C1.67917 4.06014 1.64306 4.1432 1.57083 4.21542Z"/>
 <path fill="currentColor" class="ColorScheme-Text" d="M3.38115 5.85667L4.4049 4.42667L3.44615 3.08875H3.96073L4.52406 3.87417C4.60712 3.99695 4.65226 4.06556 4.65948 4.08C4.66309 4.07278 4.68115 4.04389 4.71365 3.99333C4.74976 3.93917 4.77684 3.89945 4.7949 3.87417L5.35823 3.08875H5.87281L4.91406 4.42667L5.93781 5.85667H5.42323L4.7949 4.97917C4.77684 4.95389 4.74976 4.91597 4.71365 4.86542C4.68115 4.81125 4.66309 4.78056 4.65948 4.77334C4.64504 4.795 4.62156 4.82931 4.58906 4.87625C4.56017 4.9232 4.53851 4.9575 4.52406 4.97917L3.89573 5.85667H3.38115Z"/>
 <path fill="currentColor" class="ColorScheme-Text" d="M7.99729 5.92167C7.75535 5.92167 7.5441 5.8657 7.36354 5.75375C7.1866 5.6382 7.04937 5.48473 6.95187 5.29334C6.85798 5.09834 6.78757 4.8907 6.74062 4.67042C6.69729 4.45014 6.67562 4.21361 6.67562 3.96083C6.67562 3.78028 6.68646 3.60514 6.70812 3.43542C6.7334 3.2657 6.77674 3.09236 6.83812 2.91542C6.89951 2.73486 6.97715 2.57958 7.07104 2.44958C7.16854 2.31958 7.29674 2.21306 7.45562 2.13C7.61451 2.04333 7.79507 2 7.99729 2C8.23924 2 8.45049 2.05778 8.63104 2.17333C8.8116 2.28528 8.94882 2.43875 9.04271 2.63375C9.14021 2.82875 9.21063 3.03639 9.25396 3.25667C9.3009 3.47695 9.32438 3.71167 9.32438 3.96083C9.32438 4.19195 9.30271 4.41403 9.25938 4.62709C9.21965 4.83653 9.15285 5.04417 9.05896 5.25C8.96507 5.45223 8.82604 5.61473 8.64188 5.7375C8.46132 5.86028 8.24646 5.92167 7.99729 5.92167ZM7.99729 5.49375C8.1634 5.49375 8.30424 5.44861 8.41979 5.35834C8.53896 5.26445 8.62563 5.13806 8.67979 4.97917C8.73757 4.82028 8.77729 4.65959 8.79896 4.49709C8.82424 4.33097 8.83688 4.15222 8.83688 3.96083C8.83688 3.75861 8.82243 3.57264 8.79354 3.40292C8.76827 3.2332 8.72493 3.0725 8.66354 2.92083C8.60576 2.76556 8.5191 2.64458 8.40354 2.55792C8.2916 2.47125 8.15618 2.42792 7.99729 2.42792C7.83118 2.42792 7.68854 2.47486 7.56938 2.56875C7.45382 2.65903 7.36715 2.78542 7.30937 2.94792C7.2516 3.10681 7.21007 3.2675 7.18479 3.43C7.16312 3.5925 7.15229 3.76945 7.15229 3.96083C7.15229 4.16306 7.16493 4.35084 7.19021 4.52417C7.2191 4.69389 7.26243 4.85459 7.32021 5.00625C7.3816 5.15792 7.46826 5.27709 7.58021 5.36375C7.69576 5.45042 7.83479 5.49375 7.99729 5.49375ZM8.24646 4.21542C8.17785 4.28403 8.09479 4.31834 7.99729 4.31834C7.89979 4.31834 7.81674 4.28403 7.74813 4.21542C7.67951 4.1432 7.64521 4.06014 7.64521 3.96625C7.64521 3.86875 7.67951 3.7857 7.74813 3.71708C7.81674 3.64486 7.89979 3.60875 7.99729 3.60875C8.09479 3.60875 8.17785 3.64486 8.24646 3.71708C8.31868 3.7857 8.35479 3.86875 8.35479 3.96625C8.35479 4.06014 8.31868 4.1432 8.24646 4.21542Z"/>
 <path fill="currentColor" class="ColorScheme-Text" d="M11.3351 5.92167C11.0932 5.92167 10.8819 5.8657 10.7014 5.75375C10.5244 5.6382 10.3872 5.48473 10.2897 5.29334C10.1958 5.09834 10.1254 4.8907 10.0784 4.67042C10.0351 4.45014 10.0134 4.21361 10.0134 3.96083C10.0134 3.78028 10.0243 3.60514 10.0459 3.43542C10.0712 3.2657 10.1145 3.09236 10.1759 2.91542C10.2373 2.73486 10.315 2.57958 10.4089 2.44958C10.5064 2.31958 10.6345 2.21306 10.7934 2.13C10.9523 2.04333 11.1329 2 11.3351 2C11.577 2 11.7883 2.05778 11.9689 2.17333C12.1494 2.28528 12.2866 2.43875 12.3805 2.63375C12.478 2.82875 12.5484 3.03639 12.5918 3.25667C12.6387 3.47695 12.6622 3.71167 12.6622 3.96083C12.6622 4.19195 12.6405 4.41403 12.5972 4.62709C12.5575 4.83653 12.4907 5.04417 12.3968 5.25C12.3029 5.45223 12.1639 5.61473 11.9797 5.7375C11.7991 5.86028 11.5843 5.92167 11.3351 5.92167ZM11.3351 5.49375C11.5012 5.49375 11.642 5.44861 11.7576 5.35834C11.8768 5.26445 11.9634 5.13806 12.0176 4.97917C12.0754 4.82028 12.1151 4.65959 12.1368 4.49709C12.162 4.33097 12.1747 4.15222 12.1747 3.96083C12.1747 3.75861 12.1602 3.57264 12.1314 3.40292C12.1061 3.2332 12.0627 3.0725 12.0014 2.92083C11.9436 2.76556 11.8569 2.64458 11.7414 2.55792C11.6294 2.47125 11.494 2.42792 11.3351 2.42792C11.169 2.42792 11.0264 2.47486 10.9072 2.56875C10.7916 2.65903 10.705 2.78542 10.6472 2.94792C10.5894 3.10681 10.5479 3.2675 10.5226 3.43C10.5009 3.5925 10.4901 3.76945 10.4901 3.96083C10.4901 4.16306 10.5027 4.35084 10.528 4.52417C10.5569 4.69389 10.6002 4.85459 10.658 5.00625C10.7194 5.15792 10.8061 5.27709 10.918 5.36375C11.0336 5.45042 11.1726 5.49375 11.3351 5.49375ZM11.5843 4.21542C11.5157 4.28403 11.4326 4.31834 11.3351 4.31834C11.2376 4.31834 11.1545 4.28403 11.0859 4.21542C11.0173 4.1432 10.983 4.06014 10.983 3.96625C10.983 3.86875 11.0173 3.7857 11.0859 3.71708C11.1545 3.64486 11.2376 3.60875 11.3351 3.60875C11.4326 3.60875 11.5157 3.64486 11.5843 3.71708C11.6565 3.7857 11.6926 3.86875 11.6926 3.96625C11.6926 4.06014 11.6565 4.1432 11.5843 4.21542Z"/>
 <path fill="currentColor" class="ColorScheme-Text" d="M14.6729 5.92167C14.431 5.92167 14.2197 5.8657 14.0392 5.75375C13.8622 5.6382 13.725 5.48473 13.6275 5.29334C13.5336 5.09834 13.4632 4.8907 13.4162 4.67042C13.3729 4.45014 13.3512 4.21361 13.3512 3.96083C13.3512 3.78028 13.3621 3.60514 13.3837 3.43542C13.409 3.2657 13.4524 3.09236 13.5137 2.91542C13.5751 2.73486 13.6528 2.57958 13.7467 2.44958C13.8442 2.31958 13.9724 2.21306 14.1312 2.13C14.2901 2.04333 14.4707 2 14.6729 2C14.9149 2 15.1261 2.05778 15.3067 2.17333C15.4872 2.28528 15.6244 2.43875 15.7183 2.63375C15.8158 2.82875 15.8862 3.03639 15.9296 3.25667C15.9765 3.47695 16 3.71167 16 3.96083C16 4.19195 15.9783 4.41403 15.935 4.62709C15.8953 4.83653 15.8285 5.04417 15.7346 5.25C15.6407 5.45223 15.5017 5.61473 15.3175 5.7375C15.1369 5.86028 14.9221 5.92167 14.6729 5.92167ZM14.6729 5.49375C14.839 5.49375 14.9799 5.44861 15.0954 5.35834C15.2146 5.26445 15.3012 5.13806 15.3554 4.97917C15.4132 4.82028 15.4529 4.65959 15.4746 4.49709C15.4999 4.33097 15.5125 4.15222 15.5125 3.96083C15.5125 3.75861 15.4981 3.57264 15.4692 3.40292C15.4439 3.2332 15.4006 3.0725 15.3392 2.92083C15.2814 2.76556 15.1947 2.64458 15.0792 2.55792C14.9672 2.47125 14.8318 2.42792 14.6729 2.42792C14.5068 2.42792 14.3642 2.47486 14.245 2.56875C14.1294 2.65903 14.0428 2.78542 13.985 2.94792C13.9272 3.10681 13.8857 3.2675 13.8604 3.43C13.8387 3.5925 13.8279 3.76945 13.8279 3.96083C13.8279 4.16306 13.8406 4.35084 13.8658 4.52417C13.8947 4.69389 13.9381 4.85459 13.9958 5.00625C14.0572 5.15792 14.1439 5.27709 14.2558 5.36375C14.3714 5.45042 14.5104 5.49375 14.6729 5.49375ZM14.9221 4.21542C14.8535 4.28403 14.7704 4.31834 14.6729 4.31834C14.5754 4.31834 14.4924 4.28403 14.4237 4.21542C14.3551 4.1432 14.3208 4.06014 14.3208 3.96625C14.3208 3.86875 14.3551 3.7857 14.4237 3.71708C14.4924 3.64486 14.5754 3.60875 14.6729 3.60875C14.7704 3.60875 14.8535 3.64486 14.9221 3.71708C14.9943 3.7857 15.0304 3.86875 15.0304 3.96625C15.0304 4.06014 14.9943 4.1432 14.9221 4.21542Z"/>
 <rect fill="currentColor" class="ColorScheme-Text" width="12" height="6" x="2" y="8" rx="1"/>
</svg>
