<svg xmlns="http://www.w3.org/2000/svg" fill="none" width="16" height="16" viewBox="0 0 16 16">
 <defs>
  <style id="current-color-scheme" type="text/css">
   .ColorScheme-Text { color:#5c616c; } .ColorScheme-Highlight { color:#5294e2; }
  </style>
  <linearGradient id="arrongin" x1="0%" x2="0%" y1="0%" y2="100%">
   <stop offset="0%" style="stop-color:#dd9b44"/>
   <stop offset="100%" style="stop-color:#ad6c16"/>
  </linearGradient>
  <linearGradient id="aurora" x1="0%" x2="0%" y1="0%" y2="100%">
   <stop offset="0%" style="stop-color:#09D4DF"/>
   <stop offset="100%" style="stop-color:#9269F4"/>
  </linearGradient>
  <linearGradient id="fitdance" x1="0%" x2="0%" y1="0%" y2="100%">
   <stop offset="0%" style="stop-color:#1AD6AB"/>
   <stop offset="100%" style="stop-color:#329DB6"/>
  </linearGradient>
  <linearGradient id="oomox" x1="0%" x2="0%" y1="0%" y2="100%">
   <stop offset="0%" style="stop-color:#efefe7"/>
   <stop offset="100%" style="stop-color:#8f8f8b"/>
  </linearGradient>
  <linearGradient id="rainblue" x1="0%" x2="0%" y1="0%" y2="100%">
   <stop offset="0%" style="stop-color:#00F260"/>
   <stop offset="100%" style="stop-color:#0575E6"/>
  </linearGradient>
  <linearGradient id="sunrise" x1="0%" x2="0%" y1="0%" y2="100%">
   <stop offset="0%" style="stop-color:#FF8501"/>
   <stop offset="100%" style="stop-color:#FFCB01"/>
  </linearGradient>
  <linearGradient id="telinkrin" x1="0%" x2="0%" y1="0%" y2="100%">
   <stop offset="0%" style="stop-color:#b2ced6"/>
   <stop offset="100%" style="stop-color:#6da5b7"/>
  </linearGradient>
  <linearGradient id="60spsycho" x1="0%" x2="0%" y1="0%" y2="100%">
   <stop offset="0%" style="stop-color:#df5940"/>
   <stop offset="25%" style="stop-color:#d8d15f"/>
   <stop offset="50%" style="stop-color:#e9882a"/>
   <stop offset="100%" style="stop-color:#279362"/>
  </linearGradient>
  <linearGradient id="90ssummer" x1="0%" x2="0%" y1="0%" y2="100%">
   <stop offset="0%" style="stop-color:#f618c7"/>
   <stop offset="20%" style="stop-color:#94ffab"/>
   <stop offset="50%" style="stop-color:#fbfd54"/>
   <stop offset="100%" style="stop-color:#0f83ae"/>
  </linearGradient>
 </defs>
 <path fill="currentColor" class="ColorScheme-Text" fill-rule="evenodd" d="M11.1346 3.70817C9.2661 2.80294 6.9839 2.75048 5.10041 3.63789C3.77869 4.24699 2.68243 5.2951 1.9609 6.5545C2.60702 5.7403 3.38892 5.0188 4.33157 4.5645C6.0171 3.70935 8.0774 3.68718 9.8029 4.44098C11.1126 4.99762 12.2189 6.0008 12.9084 7.245C13.0297 7.18477 13.1511 7.12468 13.2726 7.06458L13.2727 7.0645L13.2729 7.06442L13.2731 7.06432L13.2731 7.0643C13.585 6.90997 13.8969 6.75558 14.2079 6.5986C13.5135 5.3474 12.427 4.32221 11.1346 3.70817ZM3.81771 7.6093C4.74003 6.2231 6.3224 5.2585 8.0097 5.2752C9.6884 5.2556 11.284 6.2094 12.1696 7.6175L10.875 8.2641C10.0805 7.0267 8.6837 6.1828 7.2009 6.1711C5.9264 6.1197 4.71769 6.7289 3.8311 7.616L3.81771 7.6093ZM0 6.9955L9.93092e-06 6.9955C0.000999832 7.37137 0.000999832 7.74723 0.000999832 8.1239V8.124C2.66741 9.4564 5.3334 10.7898 7.9988 12.1242C10.6648 10.7893 13.3314 9.4559 15.9988 8.124C15.9976 7.7485 15.998 7.373 16 6.9975C14.1333 7.93188 12.2662 8.8648 10.3993 9.79758L8 10.9965L6.74491 10.3694L6.74283 10.3684C4.49454 9.24515 2.2465 8.12203 9.93092e-06 6.9955L9.91821e-06 6.9955H0ZM7.7957 7.1915C6.9265 7.2437 6.2119 7.8307 5.7206 8.509C6.1626 8.2268 6.6684 7.9884 7.2078 8.0508C7.9557 8.0941 8.5919 8.5896 8.9927 9.1977C9.18669 9.10003 9.38131 9.00319 9.57597 8.90634C9.81201 8.7889 10.0481 8.67143 10.2832 8.5524C9.7657 7.7091 8.8118 7.086 7.7957 7.1915Z" clip-rule="evenodd"/>
</svg>
