<svg xmlns="http://www.w3.org/2000/svg" width="256" height="256" version="1.1">
  <defs>
   <linearGradient id="gradients" x1="971.138" x2="975.537" y1="-1487.17" y2="19.037" gradientTransform="matrix(.11988932 0 0 .11988932 3.1009196 232.21778)" gradientUnits="userSpaceOnUse">
    <stop style="stop-color:#0abdc6" offset="0"/>
    <stop style="stop-color:#fbfd54" offset="1"/>
   </linearGradient>
   <radialGradient id="b" cx=".5" cy=".5" r=".272" fx=".5" fy=".136" gradientTransform="matrix(230 0 0 60.62 13 21)" gradientUnits="userSpaceOnUse">
    <stop offset="0%" stop-color="#ffffff"/>
    <stop offset="100%" stop-color="#ffffff" stop-opacity=".204"/>
   </radialGradient>
   <radialGradient id="c" cx=".5" cy=".5" r=".272" fx=".482" fy=".211" gradientTransform="matrix(230 0 0 58.565 13 53.922)" gradientUnits="userSpaceOnUse">
    <stop offset="0%" stop-color="#ffffff"/>
    <stop offset="100%" stop-color="#ffffff" stop-opacity=".204"/>
   </radialGradient>
  </defs>
  <path fill="#f618c7" d="M53.039 21C16.724 21 13 23.055 13 59.371v52.167h230V79.563c0-36.316-3.724-42.102-40.039-42.102h-89.336L97.198 21H53.039z"/>
  <path d="M 53.039,70.384 C 16.722,70.384 13,74.114 13,110.429 v 84.524 C 13,231.269 16.722,235 53.039,235 H 202.961 C 239.278,235 243,231.269 243,194.953 V 93.969 C 243,57.653 239.278,53.922 202.961,53.922 H 119.53 l -16.438,16.462 z" style="fill:url(#gradients)"/>
  <g opacity="0.4">
   <path fill="url(#b)" d="M 53.039,21 C 16.724,21 13,23.055 13,59.371 V 61.43 C 13,25.114 16.724,23.057 53.039,23.057 h 44.159 l 16.427,16.461 h 89.336 C 239.276,39.518 243,45.304 243,81.62 V 79.563 C 243,43.247 239.276,37.461 202.961,37.461 H 113.625 L 97.198,21 Z"/>
  </g>
  <g opacity="0.4">
   <path fill="url(#c)" d="M 119.53,53.922 103.092,70.384 H 53.039 C 16.724,70.384 13,74.112 13,110.427 v 2.06 C 13,76.171 16.724,72.441 53.039,72.441 h 50.053 l 16.438,-16.46 h 83.431 c 36.315,0 40.039,3.727 40.039,40.043 v -2.057 c 0,-36.316 -3.724,-40.045 -40.039,-40.045 z"/>
  </g>
  <path fill="#ffffff" opacity=".1" d="m 243,167.096 -65.715,65.845 h 25.676 c 36.315,0 40.039,-3.727 40.039,-40.043 z"/>
  <path opacity="0.2" d="m 13,192.898 v 2.057 C 13,231.271 16.724,235 53.039,235 H 202.961 C 239.276,235 243,231.271 243,194.955 v -2.057 c 0,36.316 -3.724,40.043 -40.039,40.043 H 53.039 C 16.724,232.941 13,229.214 13,192.898 Z"/>
  <path fill="#164daf" d="M127.995 92C94.865 92 68 119.544 68 153.523c0 27.175 17.19 50.234 41.035 58.37 3 .563 4.095-1.333 4.095-2.964 0-1.46-.05-5.331-.08-10.463-16.69 3.717-20.21-8.248-20.21-8.248-2.73-7.105-6.66-8.997-6.66-8.997-5.45-3.82.41-3.737.41-3.737 6.02.435 9.19 6.341 9.19 6.341 5.35 9.402 14.045 6.685 17.46 5.111.545-3.973 2.095-6.685 3.81-8.223-13.325-1.553-27.33-6.828-27.33-30.405 0-6.715 2.34-12.206 6.175-16.507-.615-1.558-2.675-7.813.59-16.281 0 0 5.04-1.656 16.5 6.305a56.248 56.248 0 0 1 15.02-2.071c5.095.026 10.23.707 15.02 2.071 11.455-7.961 16.485-6.305 16.485-6.305 3.275 8.468 1.215 14.723.595 16.281 3.845 4.301 6.165 9.792 6.165 16.507 0 23.633-14.03 28.832-27.395 30.354 2.155 1.897 4.075 5.655 4.075 11.391 0 8.223-.075 14.857-.075 16.876 0 1.646 1.08 3.558 4.125 2.958 23.825-8.156 41-31.194 41-58.364C188 119.544 161.135 92 127.995 92z"/>
</svg>