<svg xmlns="http://www.w3.org/2000/svg" width="256" height="256" version="1.1">
  <defs>
   <linearGradient id="gradients" x1="971.138" x2="975.537" y1="-1487.17" y2="19.037" gradientTransform="matrix(.11988932 0 0 .11988932 3.1009196 232.21778)" gradientUnits="userSpaceOnUse">
    <stop style="stop-color:#0abdc6" offset="0"/>
    <stop style="stop-color:#ea00d9" offset="1"/>
   </linearGradient>
   <radialGradient id="b" cx=".5" cy=".5" r=".272" fx=".5" fy=".136" gradientTransform="matrix(230 0 0 60.62 13 21)" gradientUnits="userSpaceOnUse">
    <stop offset="0%" stop-color="#ffffff"/>
    <stop offset="100%" stop-color="#ffffff" stop-opacity=".204"/>
   </radialGradient>
   <radialGradient id="c" cx=".5" cy=".5" r=".272" fx=".482" fy=".211" gradientTransform="matrix(230 0 0 58.565 13 53.922)" gradientUnits="userSpaceOnUse">
    <stop offset="0%" stop-color="#ffffff"/>
    <stop offset="100%" stop-color="#ffffff" stop-opacity=".204"/>
   </radialGradient>
  </defs>
  <path fill="#133e7c" d="M53.039 21C16.724 21 13 23.055 13 59.371v52.167h230V79.563c0-36.316-3.724-42.102-40.039-42.102h-89.336L97.198 21H53.039z"/>
  <path d="M 53.039,70.384 C 16.722,70.384 13,74.114 13,110.429 v 84.524 C 13,231.269 16.722,235 53.039,235 H 202.961 C 239.278,235 243,231.269 243,194.953 V 93.969 C 243,57.653 239.278,53.922 202.961,53.922 H 119.53 l -16.438,16.462 z" style="fill:url(#gradients)"/>
  <g opacity="0.4">
   <path fill="url(#b)" d="M 53.039,21 C 16.724,21 13,23.055 13,59.371 V 61.43 C 13,25.114 16.724,23.057 53.039,23.057 h 44.159 l 16.427,16.461 h 89.336 C 239.276,39.518 243,45.304 243,81.62 V 79.563 C 243,43.247 239.276,37.461 202.961,37.461 H 113.625 L 97.198,21 Z"/>
  </g>
  <g opacity="0.4">
   <path fill="url(#c)" d="M 119.53,53.922 103.092,70.384 H 53.039 C 16.724,70.384 13,74.112 13,110.427 v 2.06 C 13,76.171 16.724,72.441 53.039,72.441 h 50.053 l 16.438,-16.46 h 83.431 c 36.315,0 40.039,3.727 40.039,40.043 v -2.057 c 0,-36.316 -3.724,-40.045 -40.039,-40.045 z"/>
  </g>
  <path fill="#ffffff" opacity=".1" d="m 243,167.096 -65.715,65.845 h 25.676 c 36.315,0 40.039,-3.727 40.039,-40.043 z"/>
  <path opacity="0.2" d="m 13,192.898 v 2.057 C 13,231.271 16.724,235 53.039,235 H 202.961 C 239.276,235 243,231.271 243,194.955 v -2.057 c 0,36.316 -3.724,40.043 -40.039,40.043 H 53.039 C 16.724,232.941 13,229.214 13,192.898 Z"/>
  <path fill="#d7d7d5" d="M68 163.67l22.56 13.027c-.037.518-.06 1.035-.06 1.553 0 12.427 10.073 22.5 22.5 22.5s22.5-10.073 22.5-22.5a23.165 23.165 0 0 0-.248-3.06l27.285-19.485c14.176-.427 25.448-12.03 25.463-26.205 0-14.497-11.752-26.25-26.25-26.25s-26.257 11.753-26.25 26.355l-17.415 26.76a22.294 22.294 0 0 0-5.085-.615c-3.398.007-6.75.787-9.803 2.272L68 137.705m93.75-26.955c10.358 0 18.75 8.393 18.75 18.75 0 10.358-8.392 18.75-18.75 18.75S143 139.858 143 129.5c0-10.357 8.392-18.75 18.75-18.75zm0 7.5c-6.21 0-11.25 5.04-11.25 11.25s5.04 11.25 11.25 11.25S173 135.71 173 129.5s-5.04-11.25-11.25-11.25zm-48.75 45c8.287 0 15 6.713 15 15 0 8.287-6.713 15-15 15a14.993 14.993 0 0 1-14.692-12.083l5.287 3.061a11.228 11.228 0 0 0 15.368-4.118 11.228 11.228 0 0 0-4.118-15.368l-2.535-1.462c.233-.015.457-.023.69-.03z"/>
</svg>