<svg xmlns="http://www.w3.org/2000/svg" fill="none" width="256" height="256" viewBox="0 0 256 256">
 <g clip-path="url(#clip0)">
  <g filter="url(#filter0_d)">
   <path fill="url(#paint0_linear)" d="M250.324 96.4908C250.324 22.5042 239.74 11.947 165.685 11.947H90.3152C16.2595 11.947 5.67586 22.5042 5.67586 96.4908V155.742C5.67586 229.728 16.2595 240.285 90.3152 240.285H165.685C239.74 240.285 250.324 229.728 250.324 155.742V96.4908Z"/>
  </g>
  <path fill="url(#paint1_linear)" fill-rule="evenodd" opacity=".4" d="M165.068 11.9512C169.396 11.9414 173.724 11.9905 178.052 12.0888C181.927 12.1674 185.803 12.3148 189.678 12.5407C193.131 12.7372 196.583 13.0221 200.026 13.3955C203.085 13.7295 206.144 14.1815 209.174 14.7415C211.889 15.2425 214.574 15.8812 217.22 16.6573C219.62 17.3549 221.971 18.2195 224.243 19.2412C226.358 20.1844 228.384 21.3044 230.302 22.5915C232.141 23.8294 233.863 25.2442 235.437 26.8063C237.001 28.3783 238.417 30.0878 239.656 31.925C240.945 33.8408 242.066 35.8647 243.02 37.9672C244.043 40.2466 244.909 42.5849 245.617 44.9723C246.394 47.6152 247.034 50.2973 247.535 53.009C248.096 56.035 248.548 59.0807 248.883 62.1362C249.257 65.5748 249.542 69.0135 249.739 72.462C249.965 76.3232 250.112 80.1941 250.201 84.0553C250.289 88.3781 250.339 92.701 250.329 97.0141V155.226C250.339 159.549 250.289 163.862 250.201 168.185C250.112 172.056 249.965 175.917 249.739 179.778C249.542 183.227 249.257 186.675 248.883 190.104C248.548 193.159 248.096 196.215 247.535 199.241C247.034 201.943 246.394 204.625 245.617 207.268C244.909 209.655 244.043 212.003 243.02 214.273C242.066 216.385 240.945 218.399 239.656 220.315C238.417 222.152 237.001 223.872 235.437 225.434C233.863 226.996 232.141 228.411 230.302 229.649C228.384 230.936 226.358 232.056 224.243 232.999C221.971 234.021 219.62 234.885 217.22 235.593C214.574 236.369 211.889 237.007 209.174 237.499C206.144 238.068 203.085 238.51 200.026 238.845C196.583 239.218 193.131 239.503 189.678 239.699C185.803 239.925 181.927 240.073 178.052 240.161C173.724 240.249 169.396 240.299 165.068 240.289H90.942C86.614 240.299 82.286 240.249 77.9581 240.161C74.0826 240.073 70.2071 239.925 66.3316 239.699C62.8791 239.503 59.4266 239.218 55.9839 238.845C52.9248 238.51 49.8657 238.068 46.8362 237.499C44.1213 237.007 41.4361 236.369 38.7901 235.593C36.39 234.885 34.0392 234.021 31.767 232.999C29.6522 232.056 27.6259 230.936 25.7079 229.649C23.8685 228.411 22.1471 226.996 20.5733 225.434C19.0094 223.872 17.5929 222.152 16.3536 220.315C15.065 218.399 13.9437 216.385 12.9896 214.273C11.9666 212.003 11.101 209.655 10.3928 207.268C9.61574 204.625 8.97638 201.943 8.47473 199.241C7.91406 196.215 7.4616 193.159 7.12716 190.104C6.75339 186.675 6.46813 183.227 6.27141 179.778C6.04518 175.917 5.89763 172.056 5.8091 168.185C5.72058 163.862 5.6714 159.549 5.68123 155.226V97.0141C5.6714 92.701 5.72058 88.3781 5.8091 84.0553C5.89763 80.1941 6.04518 76.3232 6.27141 72.462C6.46813 69.0135 6.75339 65.5748 7.12716 62.1362C7.4616 59.0807 7.91406 56.035 8.47473 53.009C8.97638 50.2973 9.61574 47.6152 10.3928 44.9723C11.101 42.5849 11.9666 40.2466 12.9896 37.9672C13.9437 35.8647 15.065 33.8408 16.3536 31.925C17.5929 30.0878 19.0094 28.3783 20.5733 26.8063C22.1471 25.2442 23.8685 23.8294 25.7079 22.5915C27.6259 21.3044 29.6522 20.1844 31.767 19.2412C34.0392 18.2195 36.39 17.3549 38.7901 16.6573C41.4361 15.8812 44.1213 15.2425 46.8362 14.7415C49.8657 14.1815 52.9248 13.7295 55.9839 13.3955C59.4266 13.0221 62.8791 12.7372 66.3316 12.5407C70.2071 12.3148 74.0826 12.1674 77.9581 12.0888C82.286 11.9905 86.614 11.9414 90.942 11.9512H165.068ZM165.078 15.9598C169.376 15.9499 173.675 15.9991 177.973 16.0875C181.8 16.1759 185.626 16.3233 189.452 16.5394C192.836 16.7359 196.219 17.011 199.583 17.3843C202.554 17.6987 205.515 18.131 208.446 18.6812C211.023 19.1528 213.58 19.7619 216.099 20.4988C218.322 21.1472 220.495 21.9529 222.6 22.896C224.509 23.7508 226.338 24.7627 228.069 25.9221C229.692 27.0126 231.207 28.2604 232.594 29.6457C233.981 31.031 235.23 32.544 236.332 34.1651C237.492 35.8942 238.506 37.7118 239.361 39.608C240.306 41.7203 241.112 43.8916 241.761 46.1021C242.509 48.6173 243.109 51.1619 243.591 53.736C244.132 56.6638 244.565 59.6112 244.889 62.5783C245.263 65.9384 245.539 69.3083 245.735 72.688C245.952 76.5098 246.109 80.3218 246.188 84.1437C246.276 88.4371 246.325 92.7207 246.325 97.0141V155.226C246.325 159.519 246.276 163.803 246.188 168.096C246.109 171.918 245.952 175.74 245.735 179.552C245.539 182.932 245.263 186.302 244.889 189.672C244.565 192.629 244.132 195.576 243.591 198.504C243.109 201.078 242.509 203.623 241.761 206.138C241.112 208.358 240.306 210.52 239.361 212.632C238.506 214.528 237.492 216.356 236.332 218.075C235.23 219.706 233.981 221.219 232.594 222.604C231.207 223.98 229.692 225.227 228.069 226.318C226.338 227.477 224.509 228.489 222.6 229.344C220.495 230.297 218.322 231.093 216.099 231.741C213.58 232.478 211.023 233.087 208.446 233.559C205.515 234.109 202.554 234.541 199.583 234.865C196.219 235.229 192.836 235.514 189.452 235.701C185.626 235.917 181.8 236.074 177.973 236.153C173.675 236.251 169.376 236.29 165.078 236.29C165.078 236.29 165.078 236.29 165.068 236.29H90.942C90.9321 236.29 90.9321 236.29 90.9321 236.29C86.6337 236.29 82.3352 236.251 78.0368 236.153C74.2105 236.074 70.3842 235.917 66.5579 235.701C63.1742 235.514 59.7905 235.229 56.4265 234.865C53.456 234.541 50.4952 234.109 47.564 233.559C44.9869 233.087 42.4295 232.478 39.9114 231.741C37.6884 231.093 35.5146 230.297 33.4097 229.344C31.5014 228.489 29.6719 227.477 27.9407 226.318C26.3177 225.227 24.8029 223.98 23.416 222.604C22.0291 221.219 20.7799 219.706 19.6782 218.075C18.5176 216.356 17.5044 214.528 16.6487 212.632C15.7044 210.52 14.8978 208.358 14.2486 206.138C13.5011 203.623 12.901 201.078 12.4191 198.504C11.8781 195.576 11.4453 192.629 11.1207 189.672C10.7469 186.302 10.4715 182.932 10.2748 179.552C10.0584 175.74 9.90099 171.918 9.8223 168.096C9.73377 163.803 9.68459 159.519 9.68459 155.226V97.0141C9.68459 92.7207 9.73377 88.4371 9.8223 84.1437C9.90099 80.3218 10.0584 76.5098 10.2748 72.688C10.4715 69.3083 10.7469 65.9384 11.1207 62.5783C11.4453 59.6112 11.8781 56.6638 12.4191 53.736C12.901 51.1619 13.5011 48.6173 14.2486 46.1021C14.8978 43.8916 15.7044 41.7203 16.6487 39.608C17.5044 37.7118 18.5176 35.8942 19.6782 34.1651C20.7799 32.544 22.0291 31.031 23.416 29.6457C24.8029 28.2604 26.3177 27.0126 27.9407 25.9221C29.6719 24.7627 31.5014 23.7508 33.4097 22.896C35.5146 21.9529 37.6884 21.1472 39.9114 20.4988C42.4295 19.7619 44.9869 19.1528 47.564 18.6812C50.4952 18.131 53.456 17.6987 56.4265 17.3843C59.7905 17.011 63.1742 16.7359 66.5579 16.5394C70.3842 16.3233 74.2105 16.1759 78.0368 16.0875C82.3352 15.9991 86.6337 15.9499 90.9321 15.9598C90.9321 15.9598 90.9321 15.9598 90.942 15.9598H165.068C165.078 15.9598 165.078 15.9598 165.078 15.9598Z" clip-rule="evenodd"/>
  <path fill="url(#paint2_linear)" d="M171.627 240.334C178.919 240.286 185.938 240.199 191.963 239.846C195.581 239.633 198.981 239.355 202.176 238.998C205.371 238.641 208.361 238.206 211.158 237.68C213.956 237.153 216.561 236.536 218.986 235.814C221.411 235.093 223.657 234.269 225.734 233.328C227.812 232.387 229.722 231.327 231.479 230.141C233.235 228.954 234.835 227.639 236.295 226.182C237.755 224.724 239.073 223.123 240.262 221.369C241.45 219.615 242.509 217.708 243.451 215.633C244.394 213.557 245.221 211.315 245.943 208.893C246.666 206.47 247.283 203.869 247.811 201.074C248.338 198.28 248.774 195.291 249.131 192.1C249.488 188.908 249.768 185.511 249.98 181.896C250.337 175.85 250.426 168.812 250.473 161.488L171.627 240.334Z"/>
  <path opacity=".1" d="M171.627 240.334C178.919 240.286 185.938 240.199 191.963 239.846C195.581 239.633 198.981 239.355 202.176 238.998C205.371 238.641 208.361 238.206 211.158 237.68C213.956 237.153 216.561 236.536 218.986 235.814C221.411 235.093 223.657 234.269 225.734 233.328C227.812 232.387 229.722 231.327 231.479 230.141C233.235 228.954 234.835 227.639 236.295 226.182C237.755 224.724 239.073 223.123 240.262 221.369C241.45 219.615 242.509 217.708 243.451 215.633C244.394 213.557 245.221 211.315 245.943 208.893C246.666 206.47 247.283 203.869 247.811 201.074C248.338 198.28 248.774 195.291 249.131 192.1C249.488 188.908 249.768 185.511 249.98 181.896C250.337 175.85 250.426 168.812 250.473 161.488L171.627 240.334Z"/>
  <path fill="url(#paint3_linear)" d="M197.882 161.395C183.289 161.395 171.54 173.144 171.54 187.737V240.421L250.566 161.395H197.882Z"/>
  <path fill="#5C616C" d="M49.0537 77.625L48.1309 77.4199C48.0078 76.3809 47.7959 75.5332 47.4951 74.877C46.3604 74.7949 45.2256 74.7539 44.0908 74.7539C43.1201 74.7539 41.6777 74.7949 39.7637 74.877C39.6816 75.1641 39.5244 76.1621 39.292 77.8711L38.4102 77.7891C38.1367 76.3262 38 75.0684 38 74.0156C38 73.9609 38 73.8652 38 73.7285C38.0137 73.5918 38.0205 73.4893 38.0205 73.4209C38.0342 73.4209 38.2598 73.4209 38.6973 73.4209C39.1348 73.4072 39.3604 73.4004 39.374 73.4004C39.7295 72.6758 40.0166 71.8965 40.2354 71.0625C40.4678 70.2148 40.625 69.3125 40.707 68.3555C40.7891 67.3848 40.8438 66.5371 40.8711 65.8125C40.8984 65.0742 40.9121 64.1377 40.9121 63.0029C40.9121 61.8682 40.9189 61.0205 40.9326 60.46C41.8896 60.3916 44.0225 60.3574 47.3311 60.3574L47.7822 73.2158C48.001 73.2432 48.2266 73.2637 48.459 73.2773C48.6914 73.291 48.917 73.3047 49.1357 73.3184C49.0947 73.6055 49.0742 73.9609 49.0742 74.3848C49.0742 74.6035 49.0811 74.9453 49.0947 75.4102C49.1084 75.8887 49.1152 76.2441 49.1152 76.4766C49.1152 76.9414 49.0947 77.3242 49.0537 77.625ZM41.0146 73.2773C41.3838 73.2773 41.9375 73.291 42.6758 73.3184C43.4141 73.332 43.9609 73.3389 44.3164 73.3389C44.8359 73.3389 45.376 73.3184 45.9365 73.2773C45.9639 72.416 45.9775 71.0693 45.9775 69.2373V65.1562C45.9775 63.5293 45.9912 62.3193 46.0186 61.5264C45.6357 61.499 45.3486 61.4853 45.1572 61.4853C44.8428 61.4853 44.3848 61.5059 43.7832 61.5469C43.1953 61.5879 42.7988 61.6152 42.5938 61.6289C42.5527 62.2441 42.5049 63.2148 42.4502 64.541C42.3955 65.8535 42.3408 66.8721 42.2861 67.5967C42.2314 68.3213 42.0947 69.2236 41.876 70.3037C41.6709 71.3701 41.3838 72.3613 41.0146 73.2773Z"/>
  <path fill="#5C616C" d="M51.125 66.1406L50.7148 65.0947C51.0703 64.7393 51.5215 64.459 52.0684 64.2539C52.6152 64.0352 53.1553 63.9258 53.6885 63.9258C55.999 63.9258 57.1543 65.9219 57.1543 69.9141C57.1543 70.4609 57.1201 71.2676 57.0518 72.334C56.9971 73.4004 56.9697 74.2002 56.9697 74.7334C56.8604 75.1572 56.6484 75.3691 56.334 75.3691C56.0879 75.3691 55.8623 75.2461 55.6572 75C55.4521 74.7539 55.3496 74.4805 55.3496 74.1797C55.3496 74.084 55.3564 74.0156 55.3701 73.9746C54.5225 74.7949 53.6201 75.2051 52.6631 75.2051C51.9385 75.2051 51.3027 74.9453 50.7559 74.4258C50.2227 73.8926 49.9561 73.25 49.9561 72.498C49.9561 71.2266 50.4482 70.0781 51.4326 69.0527C52.4307 68.0273 53.5586 67.5146 54.8164 67.5146C54.8711 67.5146 54.9258 67.5215 54.9805 67.5352C55.0352 67.5352 55.0967 67.542 55.165 67.5557C55.2471 67.5693 55.3086 67.5762 55.3496 67.5762C55.2402 65.9766 54.6045 65.1768 53.4424 65.1768C52.7588 65.1768 51.9863 65.498 51.125 66.1406ZM55.4111 72.5596C55.4385 71.6025 55.4521 70.8779 55.4521 70.3857C55.4521 69.9756 55.4385 69.4014 55.4111 68.6631H55.2471C54.2764 68.6768 53.3877 69.0391 52.5811 69.75C51.7881 70.4609 51.3916 71.3223 51.3916 72.334C51.3916 72.7715 51.5215 73.1201 51.7812 73.3799C52.0547 73.6396 52.3828 73.7695 52.7656 73.7695C53.3672 73.7695 54.249 73.3662 55.4111 72.5596Z"/>
  <path fill="#5C616C" d="M64.9473 64.6025L65.8701 64.8076L66.3418 74.7539C66.2188 75.1641 65.9795 75.3691 65.624 75.3691C65.3779 75.3691 65.1387 75.2666 64.9062 75.0615C64.6738 74.8701 64.5303 74.6309 64.4756 74.3437C64.4756 74.3027 64.5371 73.1475 64.6602 70.8779V70.7139C64.2773 70.6865 63.71 70.6728 62.958 70.6728C61.8232 70.6728 60.9688 70.6387 60.3945 70.5703C60.4629 71.3633 60.5518 72.6416 60.6611 74.4053C60.5381 74.8291 60.2988 75.041 59.9434 75.041C59.6973 75.041 59.458 74.9453 59.2256 74.7539C59.0068 74.5488 58.8701 74.3027 58.8154 74.0156C58.8564 73.332 58.877 72.6484 58.877 71.9648C58.877 71.5273 58.8701 70.8711 58.8564 69.9961C58.8428 69.1211 58.8359 68.4717 58.8359 68.0478C58.8359 66.7353 58.877 65.6348 58.959 64.7461L59.8818 64.9717C60.1553 67.9385 60.2988 69.4629 60.3125 69.5449C62.6504 69.668 63.8535 69.7295 63.9219 69.7295C64.4824 69.7295 64.7627 69.6953 64.7627 69.627C64.7627 69.3535 64.79 68.4853 64.8447 67.0225C64.8994 65.5596 64.9336 64.7529 64.9473 64.6025Z"/>
  <path fill="#5C616C" d="M68.0645 64.6025L68.9873 64.8076C69.0146 65.2451 69.0557 65.7578 69.1104 66.3457C69.1787 66.9336 69.2539 67.6035 69.3359 68.3555C69.8828 68.1914 70.4023 68.1094 70.8945 68.1094C71.4824 68.1094 72.0293 68.2256 72.5352 68.458C73.041 68.6768 73.4717 68.9707 73.8271 69.3398C74.1826 69.709 74.4629 70.1328 74.668 70.6113C74.873 71.0762 74.9756 71.5547 74.9756 72.0469C74.9756 72.5254 74.873 72.9629 74.668 73.3594C74.4629 73.7559 74.1895 74.0977 73.8477 74.3848C73.5059 74.6582 73.1094 74.8701 72.6582 75.0205C72.207 75.1846 71.7285 75.2666 71.2227 75.2666C71.127 75.2666 70.915 75.2598 70.5869 75.2461C70.2588 75.2324 69.9102 75.1982 69.541 75.1436C69.1855 75.1025 68.8643 75.041 68.5771 74.959C68.29 74.877 68.1396 74.7607 68.126 74.6103C68.126 74.3779 68.1191 74.0635 68.1055 73.667C68.1055 73.2568 68.0986 72.8057 68.085 72.3135C68.085 71.8213 68.0781 71.3086 68.0645 70.7754C68.0508 70.2285 68.0371 69.7021 68.0234 69.1963C68.0234 68.6904 68.0166 68.2256 68.0029 67.8018C68.0029 67.3779 68.0029 67.043 68.0029 66.7969C68.0029 66.0312 68.0234 65.2998 68.0645 64.6025ZM69.5205 69.627L69.3359 73.749C69.8828 73.9404 70.4023 74.0361 70.8945 74.0361C71.2773 74.0361 71.626 73.9746 71.9404 73.8516C72.2686 73.7148 72.542 73.5439 72.7607 73.3389C72.9795 73.1201 73.1504 72.874 73.2734 72.6006C73.3965 72.3271 73.458 72.04 73.458 71.7393C73.458 71.4385 73.3965 71.1582 73.2734 70.8984C73.1504 70.625 72.9658 70.3857 72.7197 70.1807C72.4736 69.9756 72.1729 69.8184 71.8174 69.709C71.4619 69.5859 71.0586 69.5244 70.6074 69.5244C70.457 69.5244 70.293 69.5381 70.1152 69.5654C69.9375 69.5791 69.7393 69.5996 69.5205 69.627Z"/>
  <path fill="#5C616C" d="M82.1943 74.9385V73.8516C82.5225 73.8105 82.9258 73.7422 83.4043 73.6465C83.8965 73.5508 84.2793 73.4824 84.5527 73.4414C84.5938 72.457 84.6143 71.4658 84.6143 70.4678C84.6143 69.8389 84.6074 68.8955 84.5938 67.6377C84.5801 66.3662 84.5732 65.4092 84.5732 64.7666C84.5732 63.249 84.5938 62.1006 84.6348 61.3213C83.3906 62.0322 82.4814 62.6064 81.9072 63.0439L81.251 62.3672C81.4697 62.1895 81.8457 61.8818 82.3789 61.4443C82.9121 60.9932 83.3906 60.5898 83.8145 60.2344C84.2383 59.8652 84.5664 59.5645 84.7988 59.332C85.0176 59.3594 85.2432 59.3799 85.4756 59.3936C85.708 59.3936 85.9336 59.4072 86.1523 59.4346C86.2344 61.0205 86.2754 63.9258 86.2754 68.1504C86.2754 70.666 86.2959 72.4707 86.3369 73.5645C86.46 73.5781 86.7539 73.6328 87.2188 73.7285C87.6973 73.8105 88.0664 73.8652 88.3262 73.8926L88.6543 74.9795C87.9707 74.9795 87.376 74.9795 86.8701 74.9795C86.3643 74.9795 85.6875 74.9795 84.8398 74.9795C84.0059 74.9795 83.3496 74.9795 82.8711 74.9795C82.4062 74.9658 82.1807 74.9521 82.1943 74.9385Z"/>
  <path fill="#5C616C" d="M89.7207 75.3896L89.3926 74.4668C92.5781 73.1133 94.4717 71.2812 95.0732 68.9707C94.499 69.3398 93.9453 69.5244 93.4121 69.5244C92.2363 69.5244 91.252 68.998 90.459 67.9453C89.6797 66.8789 89.29 65.5186 89.29 63.8643C89.29 62.6885 89.6455 61.7588 90.3564 61.0752C91.0674 60.3779 91.9766 60.0293 93.084 60.0293C94.1367 60.0293 95.0527 60.4121 95.832 61.1777C96.625 61.9297 97.0215 62.9346 97.0215 64.1924C97.0215 64.9853 97.001 65.6758 96.96 66.2637C96.9326 66.8516 96.8574 67.4941 96.7344 68.1914C96.625 68.8887 96.4678 69.5039 96.2627 70.0371C96.0576 70.5566 95.7705 71.1035 95.4014 71.6777C95.0459 72.2383 94.6152 72.7305 94.1094 73.1543C93.6035 73.5781 92.9814 73.9883 92.2432 74.3848C91.5049 74.7676 90.6641 75.1025 89.7207 75.3896ZM95.5449 64.7666C95.5449 63.6318 95.3262 62.7842 94.8887 62.2236C94.4648 61.6494 93.9385 61.3623 93.3096 61.3623C92.6396 61.3623 92.0586 61.5879 91.5664 62.0391C91.0742 62.4902 90.8281 63.1123 90.8281 63.9053C90.8281 65.1084 91.1016 66.1133 91.6484 66.9199C92.1953 67.7266 92.8652 68.1299 93.6582 68.1299C94.0137 68.1299 94.3145 68.0684 94.5605 67.9453C94.8066 67.8086 94.9912 67.6582 95.1143 67.4941C95.2373 67.3301 95.333 67.0771 95.4014 66.7353C95.4697 66.3799 95.5107 66.0859 95.5244 65.8535C95.5381 65.6074 95.5449 65.2451 95.5449 64.7666Z"/>
  <path fill="#5C616C" d="M98.9082 75.3896L98.5801 74.4668C101.766 73.1133 103.659 71.2812 104.261 68.9707C103.687 69.3398 103.133 69.5244 102.6 69.5244C101.424 69.5244 100.439 68.998 99.6465 67.9453C98.8672 66.8789 98.4775 65.5186 98.4775 63.8643C98.4775 62.6885 98.833 61.7588 99.5439 61.0752C100.255 60.3779 101.164 60.0293 102.271 60.0293C103.324 60.0293 104.24 60.4121 105.02 61.1777C105.812 61.9297 106.209 62.9346 106.209 64.1924C106.209 64.9853 106.188 65.6758 106.147 66.2637C106.12 66.8516 106.045 67.4941 105.922 68.1914C105.812 68.8887 105.655 69.5039 105.45 70.0371C105.245 70.5566 104.958 71.1035 104.589 71.6777C104.233 72.2383 103.803 72.7305 103.297 73.1543C102.791 73.5781 102.169 73.9883 101.431 74.3848C100.692 74.7676 99.8516 75.1025 98.9082 75.3896ZM104.732 64.7666C104.732 63.6318 104.514 62.7842 104.076 62.2236C103.652 61.6494 103.126 61.3623 102.497 61.3623C101.827 61.3623 101.246 61.5879 100.754 62.0391C100.262 62.4902 100.016 63.1123 100.016 63.9053C100.016 65.1084 100.289 66.1133 100.836 66.9199C101.383 67.7266 102.053 68.1299 102.846 68.1299C103.201 68.1299 103.502 68.0684 103.748 67.9453C103.994 67.8086 104.179 67.6582 104.302 67.4941C104.425 67.3301 104.521 67.0771 104.589 66.7353C104.657 66.3799 104.698 66.0859 104.712 65.8535C104.726 65.6074 104.732 65.2451 104.732 64.7666Z"/>
  <path fill="#5C616C" d="M107.87 68.1709C107.884 65.2178 108.267 63.0918 109.019 61.793C109.771 60.4805 110.912 59.7832 112.443 59.7012C113.113 59.7012 113.708 59.8857 114.228 60.2549C114.747 60.624 115.157 61.0957 115.458 61.6699C115.772 62.2305 116.032 62.9072 116.237 63.7002C116.442 64.4795 116.579 65.2246 116.647 65.9355C116.729 66.6328 116.784 67.3779 116.812 68.1709C116.812 69.251 116.647 70.3584 116.319 71.4932C116.005 72.6143 115.513 73.5986 114.843 74.4463C114.187 75.2803 113.448 75.6973 112.628 75.6973C109.456 75.6973 107.87 73.1885 107.87 68.1709ZM112.156 61.2803C111.828 61.3486 111.534 61.458 111.274 61.6084C111.015 61.7588 110.796 61.9297 110.618 62.1211C110.454 62.3125 110.311 62.5654 110.188 62.8799C110.064 63.1943 109.969 63.4883 109.9 63.7617C109.846 64.0215 109.791 64.3633 109.736 64.7871C109.695 65.2109 109.668 65.5801 109.654 65.8945C109.641 66.1953 109.62 66.5986 109.593 67.1045C109.579 67.5967 109.559 68 109.531 68.3145C109.531 68.9434 109.565 69.5449 109.634 70.1191C109.702 70.6797 109.825 71.2676 110.003 71.8828C110.194 72.498 110.488 72.9971 110.885 73.3799C111.281 73.7627 111.76 73.9814 112.32 74.0361C113.168 74.0361 113.865 73.4482 114.412 72.2725C114.973 71.0967 115.253 69.9072 115.253 68.7041C115.253 63.8096 114.221 61.335 112.156 61.2803Z"/>
  <path fill="#5C616C" d="M118.288 68.8887L118.062 67.9658L124.892 67.4941C125.233 67.5078 125.521 67.6377 125.753 67.8838C125.999 68.1162 126.122 68.3691 126.122 68.6426C126.122 68.8203 126.054 68.9775 125.917 69.1143C125.78 69.251 125.575 69.333 125.302 69.3603L118.288 68.8887Z"/>
  <path fill="#5C616C" d="M127.414 75.5127L126.532 75.041C126.888 74.1523 127.817 72.4297 129.321 69.873C128.528 68.793 127.626 66.9951 126.614 64.4795H127.517C128.022 65.5459 128.877 66.9336 130.08 68.6426C130.285 68.3555 130.552 67.9111 130.88 67.3096C131.222 66.708 131.55 66.1885 131.864 65.751C132.192 65.3135 132.562 64.9307 132.972 64.6025C133.464 64.876 133.71 65.1973 133.71 65.5664C133.71 65.7715 133.662 65.9697 133.566 66.1611C133.197 66.6123 132.726 67.3232 132.151 68.2939C131.577 69.2646 131.222 69.8525 131.085 70.0576C132.534 72.0811 133.512 73.6055 134.018 74.6309C134.018 75.1504 133.785 75.4102 133.32 75.4102C132.855 75.4102 132.5 75.1846 132.254 74.7334C132.008 73.9131 131.358 72.751 130.306 71.2471C130.073 71.6299 129.595 72.3271 128.87 73.3389C128.159 74.3369 127.674 75.0615 127.414 75.5127Z"/>
  <path fill="#5C616C" d="M141.113 64.4795C141.701 64.4248 142.59 64.3359 143.779 64.2129C144.969 64.0762 145.81 63.9873 146.302 63.9463C146.644 63.96 146.931 64.0898 147.163 64.3359C147.409 64.5684 147.532 64.8213 147.532 65.0947C147.532 65.5049 147.259 65.7373 146.712 65.792C146.206 65.751 145.44 65.6826 144.415 65.5869C143.39 65.4912 142.61 65.4228 142.077 65.3818C142.091 66.2158 142.173 67.5693 142.323 69.4424C142.474 71.3154 142.549 72.7441 142.549 73.7285C142.549 74.5762 142.214 75 141.544 75C140.983 75 140.703 74.6172 140.703 73.8516C140.703 72.9492 140.724 71.9853 140.765 70.96C140.806 69.9209 140.867 68.7383 140.949 67.4121C141.031 66.0723 141.086 65.0947 141.113 64.4795Z"/>
  <path fill="#5C616C" d="M147.45 70.6318C147.45 70.085 147.505 69.4766 147.614 68.8066C147.737 68.1367 147.915 67.4326 148.147 66.6943C148.38 65.9561 148.729 65.3408 149.193 64.8486C149.658 64.3564 150.198 64.1103 150.813 64.1103C152.126 64.1103 153.179 64.7051 153.972 65.8945C154.765 67.0703 155.161 68.3828 155.161 69.832C155.161 70.4473 155.093 71.0625 154.956 71.6777C154.833 72.2793 154.635 72.874 154.361 73.4619C154.088 74.0498 153.691 74.542 153.172 74.9385C152.666 75.3213 152.071 75.54 151.388 75.5947C150.13 75.4307 149.159 74.8975 148.476 73.9951C147.792 73.0791 147.45 71.958 147.45 70.6318ZM150.937 65.1768C150.458 65.2314 150.055 65.6689 149.727 66.4893C149.398 67.3096 149.187 68.1094 149.091 68.8887C148.995 69.6543 148.947 70.3311 148.947 70.9189C148.947 71.6846 149.18 72.3955 149.645 73.0518C150.123 73.6943 150.656 74.0156 151.244 74.0156C151.668 74.0156 152.051 73.8516 152.393 73.5234C152.734 73.1953 153.001 72.792 153.192 72.3135C153.397 71.8213 153.548 71.3291 153.644 70.8369C153.753 70.3447 153.808 69.9072 153.808 69.5244C153.808 68.4033 153.555 67.4258 153.049 66.5918C152.543 65.7578 151.839 65.2861 150.937 65.1768Z"/>
  <path fill="#5C616C" d="M157.068 77.6865L156.146 77.4814C156.146 77.3311 156.118 76.8867 156.063 76.1484C156.009 75.4102 155.981 74.877 155.981 74.5488C155.981 74.2754 156.002 73.9814 156.043 73.667H157.376C157.444 73.4346 157.554 73.0859 157.704 72.6211C157.868 72.1562 157.978 71.8281 158.032 71.6367C158.087 71.4453 158.162 71.165 158.258 70.7959C158.367 70.4131 158.436 70.0918 158.463 69.832C158.504 69.5586 158.538 69.2236 158.565 68.8271C158.606 68.4307 158.627 68.0137 158.627 67.5762C158.627 66.5508 158.586 65.3955 158.504 64.1103C159.27 64.1514 160.076 64.1787 160.924 64.1924C161.785 64.2061 162.489 64.2266 163.036 64.2539C163.583 64.2812 164.144 64.3428 164.718 64.4385C164.759 65.3682 164.8 66.8994 164.841 69.0322C164.896 71.1514 164.943 72.6758 164.984 73.6055H166.584V74.2207C166.584 74.5762 166.591 75.082 166.604 75.7383C166.632 76.3945 166.646 76.832 166.646 77.0508C166.646 77.4609 166.632 77.7754 166.604 77.9941L165.682 77.7891C165.627 77.5977 165.572 77.3516 165.518 77.0508C165.477 76.7637 165.429 76.4492 165.374 76.1074C165.319 75.7656 165.278 75.5195 165.251 75.3691C164.472 75.3281 163.228 75.2461 161.519 75.123C159.823 75 158.497 74.918 157.54 74.877L157.068 77.6865ZM160.227 65.4023C160.213 65.6074 160.199 66.0381 160.186 66.6943C160.172 67.3369 160.151 67.8291 160.124 68.1709C160.11 68.5127 160.069 68.9912 160.001 69.6064C159.946 70.208 159.871 70.7139 159.775 71.124C159.68 71.5205 159.536 71.958 159.345 72.4365C159.167 72.9014 158.955 73.3047 158.709 73.6465H163.2L163.61 65.5664C163.419 65.5527 162.913 65.5322 162.093 65.5049C161.286 65.4775 160.664 65.4434 160.227 65.4023Z"/>
  <path fill="#5C616C" d="M166.994 70.6318C166.994 70.085 167.049 69.4766 167.158 68.8066C167.281 68.1367 167.459 67.4326 167.691 66.6943C167.924 65.9561 168.272 65.3408 168.737 64.8486C169.202 64.3564 169.742 64.1103 170.357 64.1103C171.67 64.1103 172.723 64.7051 173.516 65.8945C174.309 67.0703 174.705 68.3828 174.705 69.832C174.705 70.4473 174.637 71.0625 174.5 71.6777C174.377 72.2793 174.179 72.874 173.905 73.4619C173.632 74.0498 173.235 74.542 172.716 74.9385C172.21 75.3213 171.615 75.54 170.932 75.5947C169.674 75.4307 168.703 74.8975 168.02 73.9951C167.336 73.0791 166.994 71.958 166.994 70.6318ZM170.48 65.1768C170.002 65.2314 169.599 65.6689 169.271 66.4893C168.942 67.3096 168.73 68.1094 168.635 68.8887C168.539 69.6543 168.491 70.3311 168.491 70.9189C168.491 71.6846 168.724 72.3955 169.188 73.0518C169.667 73.6943 170.2 74.0156 170.788 74.0156C171.212 74.0156 171.595 73.8516 171.937 73.5234C172.278 73.1953 172.545 72.792 172.736 72.3135C172.941 71.8213 173.092 71.3291 173.188 70.8369C173.297 70.3447 173.352 69.9072 173.352 69.5244C173.352 68.4033 173.099 67.4258 172.593 66.5918C172.087 65.7578 171.383 65.2861 170.48 65.1768Z"/>
  <path fill="#5C616C" d="M172.921 58.914V59.124C172.753 59.376 172.494 59.705 172.144 60.111C171.794 60.503 171.423 60.902 171.031 61.308C170.625 61.7 170.254 62.022 169.918 62.274H168.7V62.022C168.91 61.756 169.141 61.441 169.393 61.077C169.631 60.713 169.869 60.342 170.107 59.964C170.345 59.572 170.541 59.222 170.695 58.914H172.921Z"/>
  <path fill="#5C616C" d="M176.817 64.4795C178.937 64.0283 180.229 63.8027 180.693 63.8027C182.525 63.8027 183.441 64.5889 183.441 66.1611C183.441 66.708 183.346 67.2412 183.154 67.7607C182.977 68.2666 182.751 68.6016 182.478 68.7656C183.544 69.4902 184.077 70.4883 184.077 71.7598C184.077 72.9629 183.681 73.8994 182.888 74.5693C182.108 75.2393 181.076 75.5742 179.791 75.5742C178.26 75.5742 177.118 75.1641 176.366 74.3437L176.817 64.4795ZM177.986 69.627L178.171 73.79C178.513 73.9541 178.902 74.0361 179.34 74.0361C180.188 74.0361 180.967 73.7695 181.678 73.2363C182.389 72.7031 182.744 72.0811 182.744 71.3701C182.744 70.8779 182.553 70.4268 182.17 70.0166C181.787 69.5928 181.302 69.3809 180.714 69.3809C180.372 69.3809 179.463 69.4629 177.986 69.627ZM177.781 65.4023L177.925 68.5605C178.13 68.5332 178.444 68.5127 178.868 68.499C179.292 68.4853 179.634 68.458 179.894 68.417C180.153 68.3623 180.44 68.2598 180.755 68.1094C181.069 67.9453 181.315 67.665 181.493 67.2686C181.685 66.8721 181.814 66.3525 181.883 65.71C181.746 65.2998 181.329 65.0947 180.632 65.0947C180.317 65.0947 179.825 65.1426 179.155 65.2383C178.485 65.334 178.027 65.3887 177.781 65.4023Z"/>
  <path fill="#5C616C" d="M38.5742 112.831L38.8613 111.683C40.0508 112.325 41.2197 112.646 42.3682 112.646C43.1885 112.646 43.8857 112.482 44.46 112.154C45.0479 111.812 45.3418 111.266 45.3418 110.514C45.3418 109.844 45.0957 109.235 44.6035 108.688C44.1113 108.128 43.5166 107.636 42.8193 107.212C42.1221 106.788 41.4248 106.357 40.7275 105.92C40.0303 105.469 39.4355 104.922 38.9434 104.279C38.4512 103.623 38.2051 102.898 38.2051 102.105C38.2051 101.135 38.5537 100.253 39.251 99.46C39.9482 98.6533 40.7891 98.25 41.7734 98.25C42.5254 98.25 43.3594 98.4004 44.2754 98.7012C45.2051 99.002 45.9844 99.3027 46.6133 99.6035L46.3672 100.424C44.8086 99.8906 43.4961 99.624 42.4297 99.624C41.7734 99.624 41.2129 99.8359 40.748 100.26C40.2832 100.684 40.0508 101.23 40.0508 101.9C40.0508 102.406 40.1807 102.864 40.4404 103.274C40.7002 103.685 41.0352 104.04 41.4453 104.341C41.8691 104.642 42.334 104.936 42.8398 105.223C43.3594 105.51 43.8721 105.817 44.3779 106.146C44.8838 106.474 45.3418 106.829 45.752 107.212C46.1758 107.595 46.5176 108.08 46.7773 108.668C47.0371 109.242 47.167 109.892 47.167 110.616C47.167 111.642 46.8389 112.482 46.1826 113.139C45.5264 113.781 44.6719 114.103 43.6191 114.103C42.7168 114.103 41.7529 113.979 40.7275 113.733C39.7158 113.474 38.998 113.173 38.5742 112.831Z"/>
  <path fill="#5C616C" d="M54.3037 103.705L55.2881 103.89V104.095C55.2881 105.024 55.3428 106.597 55.4521 108.812C55.5752 111.026 55.6846 112.735 55.7803 113.938C55.5068 114.048 55.2471 114.103 55.001 114.103C54.7822 114.103 54.5361 114.068 54.2627 114L54.0986 113.467C53.2236 113.959 52.3896 114.205 51.5967 114.205C51.0088 114.205 50.4961 114.068 50.0586 113.795C49.6348 113.521 49.3066 113.187 49.0742 112.79C48.8418 112.38 48.6572 111.881 48.5205 111.293C48.3838 110.691 48.2949 110.151 48.2539 109.673C48.2266 109.181 48.2129 108.634 48.2129 108.032C48.2129 106.282 48.3223 104.676 48.541 103.213L49.4639 103.418C49.5596 103.869 49.6074 104.361 49.6074 104.895C49.6074 105.195 49.5869 105.715 49.5459 106.453C49.5186 107.191 49.5049 107.752 49.5049 108.135C49.5049 108.805 49.5322 109.386 49.5869 109.878C49.6553 110.356 49.7715 110.828 49.9355 111.293C50.1133 111.744 50.3799 112.093 50.7354 112.339C51.0908 112.585 51.5352 112.708 52.0684 112.708C52.6699 112.708 53.3193 112.571 54.0166 112.298C54.0439 111.792 54.0713 110.5 54.0986 108.422C54.126 106.33 54.1943 104.758 54.3037 103.705Z"/>
  <path fill="#5C616C" d="M64.209 106.187L63.3066 106.125C63.0195 105.359 62.5342 104.977 61.8506 104.977C61.5498 104.977 61.2285 105.045 60.8867 105.182C60.5586 105.318 60.2852 105.462 60.0664 105.612C59.8477 105.749 59.5605 105.954 59.2051 106.228C59.2051 106.419 59.1982 107.041 59.1846 108.094C59.1846 109.146 59.1914 110.315 59.2051 111.601C59.2324 112.886 59.2598 113.576 59.2871 113.672C59.1641 114.082 58.9248 114.287 58.5693 114.287C58.3232 114.287 58.084 114.191 57.8516 114C57.6328 113.795 57.4961 113.549 57.4414 113.262C57.7012 108.873 57.9336 105.558 58.1387 103.315L59.0615 103.521L59.123 104.895C60.0801 104.102 60.9004 103.705 61.584 103.705C62.3359 103.705 62.9648 103.876 63.4707 104.218C63.9902 104.56 64.25 105.059 64.25 105.715C64.25 105.92 64.2363 106.077 64.209 106.187Z"/>
  <path fill="#5C616C" d="M71.1611 103.705L72.1455 103.89V104.095C72.1455 105.024 72.2002 106.597 72.3096 108.812C72.4326 111.026 72.542 112.735 72.6377 113.938C72.3643 114.048 72.1045 114.103 71.8584 114.103C71.6396 114.103 71.3936 114.068 71.1201 114L70.9561 113.467C70.0811 113.959 69.2471 114.205 68.4541 114.205C67.8662 114.205 67.3535 114.068 66.916 113.795C66.4922 113.521 66.1641 113.187 65.9316 112.79C65.6992 112.38 65.5146 111.881 65.3779 111.293C65.2412 110.691 65.1523 110.151 65.1113 109.673C65.084 109.181 65.0703 108.634 65.0703 108.032C65.0703 106.282 65.1797 104.676 65.3984 103.213L66.3213 103.418C66.417 103.869 66.4648 104.361 66.4648 104.895C66.4648 105.195 66.4443 105.715 66.4033 106.453C66.376 107.191 66.3623 107.752 66.3623 108.135C66.3623 108.805 66.3896 109.386 66.4443 109.878C66.5127 110.356 66.6289 110.828 66.793 111.293C66.9707 111.744 67.2373 112.093 67.5928 112.339C67.9482 112.585 68.3926 112.708 68.9258 112.708C69.5273 112.708 70.1768 112.571 70.874 112.298C70.9014 111.792 70.9287 110.5 70.9561 108.422C70.9834 106.33 71.0518 104.758 71.1611 103.705Z"/>
  <path fill="#5C616C" d="M77.1084 102.29L78.0312 102.495C78.0586 102.782 78.1201 103.452 78.2158 104.505C78.3252 105.558 78.3936 106.207 78.4209 106.453L81.5586 106.269C81.9004 106.282 82.1875 106.405 82.4199 106.638C82.666 106.87 82.7891 107.123 82.7891 107.396C82.7891 107.574 82.7207 107.731 82.584 107.868C82.4473 108.005 82.2422 108.087 81.9688 108.114C81.3672 108.087 80.2324 108.019 78.5645 107.909C78.5918 108.21 78.6533 108.777 78.749 109.611C78.8447 110.445 78.9131 111.143 78.9541 111.703C78.8311 112.127 78.5918 112.339 78.2363 112.339C77.9902 112.339 77.751 112.243 77.5186 112.052C77.2998 111.847 77.1631 111.601 77.1084 111.313C77.1221 110.958 77.1289 110.438 77.1289 109.755C77.1289 109.604 77.1152 108.969 77.0879 107.848L73.6631 107.663L73.458 106.74L77.0469 106.535C77.0332 106.166 77.0264 105.619 77.0264 104.895C77.0264 103.938 77.0537 103.069 77.1084 102.29Z"/>
  <path fill="#5C616C" d="M86.4189 102.29L87.3418 102.495C87.3691 102.782 87.4307 103.452 87.5264 104.505C87.6357 105.558 87.7041 106.207 87.7314 106.453L90.8691 106.269C91.2109 106.282 91.498 106.405 91.7305 106.638C91.9766 106.87 92.0996 107.123 92.0996 107.396C92.0996 107.574 92.0312 107.731 91.8945 107.868C91.7578 108.005 91.5527 108.087 91.2793 108.114C90.6777 108.087 89.543 108.019 87.875 107.909C87.9023 108.21 87.9639 108.777 88.0596 109.611C88.1553 110.445 88.2236 111.143 88.2646 111.703C88.1416 112.127 87.9023 112.339 87.5469 112.339C87.3008 112.339 87.0615 112.243 86.8291 112.052C86.6104 111.847 86.4736 111.601 86.4189 111.313C86.4326 110.958 86.4395 110.438 86.4395 109.755C86.4395 109.604 86.4258 108.969 86.3984 107.848L82.9736 107.663L82.7686 106.74L86.3574 106.535C86.3438 106.166 86.3369 105.619 86.3369 104.895C86.3369 103.938 86.3643 103.069 86.4189 102.29Z"/>
  <path fill="#5C616C" d="M108.301 114.328L108.629 115.169C108.014 115.155 107.371 114.957 106.701 114.574C106.031 114.191 105.402 113.713 104.814 113.139C104.24 112.551 103.721 111.963 103.256 111.375C102.805 110.773 102.415 110.186 102.087 109.611L100.467 109.427C100.494 110.425 100.549 111.977 100.631 114.082C100.508 114.506 100.269 114.718 99.9131 114.718C99.667 114.718 99.4277 114.615 99.1953 114.41C98.9766 114.219 98.8398 113.979 98.7852 113.692C98.8262 112.544 98.8672 110.309 98.9082 106.986C98.9629 103.664 99.0312 101.094 99.1133 99.2754L100.036 99.0293C100.036 99.4668 100.043 99.7129 100.057 99.7676C100.836 99.248 101.93 98.9883 103.338 98.9883C104.855 98.9883 105.99 99.4668 106.742 100.424C107.494 101.367 107.87 102.693 107.87 104.402C107.87 105.031 107.795 105.64 107.645 106.228C107.494 106.802 107.269 107.342 106.968 107.848C106.681 108.354 106.277 108.771 105.758 109.099C105.238 109.427 104.644 109.618 103.974 109.673C104.452 110.671 105.095 111.642 105.901 112.585C106.708 113.528 107.508 114.109 108.301 114.328ZM100.241 101.142L100.405 107.54C101.157 107.95 102.025 108.155 103.01 108.155C103.953 108.155 104.753 107.8 105.409 107.089C106.065 106.378 106.394 105.51 106.394 104.484C106.394 103.377 106.052 102.379 105.368 101.49C104.685 100.602 103.83 100.157 102.805 100.157C101.971 100.157 101.116 100.485 100.241 101.142Z"/>
  <path fill="#5C616C" d="M116.955 112.011L117.16 112.913C116.559 113.132 115.663 113.378 114.474 113.651C113.298 113.911 112.423 114.041 111.849 114.041C111.261 114.041 110.748 113.85 110.311 113.467C109.873 113.07 109.545 112.571 109.326 111.97C109.107 111.354 108.943 110.753 108.834 110.165C108.738 109.563 108.69 108.976 108.69 108.401C108.69 104.983 110.235 103.274 113.325 103.274C114.063 103.274 114.713 103.514 115.273 103.992C115.834 104.457 116.114 105.065 116.114 105.817C116.114 106.228 115.998 106.59 115.766 106.904C115.547 107.219 115.273 107.472 114.945 107.663C114.631 107.841 114.221 108.005 113.715 108.155C113.223 108.306 112.785 108.415 112.402 108.483C112.02 108.552 111.562 108.627 111.028 108.709C110.495 108.791 110.126 108.853 109.921 108.894C109.935 109.29 109.955 109.639 109.982 109.939C110.023 110.24 110.092 110.568 110.188 110.924C110.297 111.266 110.434 111.553 110.598 111.785C110.775 112.004 111.015 112.188 111.315 112.339C111.616 112.489 111.972 112.564 112.382 112.564C112.874 112.564 113.476 112.523 114.187 112.441C114.897 112.346 115.526 112.25 116.073 112.154C116.634 112.059 116.928 112.011 116.955 112.011ZM110.003 107.622C111.862 107.089 113.387 106.528 114.576 105.94C114.48 105.489 114.351 105.161 114.187 104.956C114.022 104.751 113.776 104.648 113.448 104.648C112.614 104.648 111.855 104.936 111.172 105.51C110.502 106.084 110.112 106.788 110.003 107.622Z"/>
  <path fill="#5C616C" d="M123.579 105.879C123.634 106.645 123.675 107.554 123.702 108.606C123.729 109.646 123.75 110.698 123.764 111.765C123.791 112.831 123.812 113.556 123.825 113.938C123.524 114.021 123.244 114.062 122.984 114.062C122.779 114.062 122.588 114.027 122.41 113.959C122.369 113.426 122.342 112.817 122.328 112.134C122.314 111.45 122.308 110.849 122.308 110.329C122.308 109.796 122.294 109.242 122.267 108.668C122.253 108.094 122.219 107.602 122.164 107.191C122.109 106.781 122.027 106.405 121.918 106.063C121.809 105.708 121.651 105.435 121.446 105.243C121.255 105.052 121.016 104.949 120.729 104.936C120.441 104.936 120.209 104.997 120.031 105.12C119.854 105.243 119.662 105.469 119.457 105.797V113.918C119.252 114.027 119.006 114.082 118.719 114.082C118.5 114.082 118.254 114.048 117.98 113.979C118.021 113.118 118.049 111.423 118.062 108.894C118.076 106.364 118.131 104.491 118.227 103.274L119.149 103.479L119.211 104.525C119.621 103.883 120.141 103.562 120.77 103.562C121.699 103.562 122.485 103.972 123.128 104.792C123.524 103.972 124.167 103.562 125.056 103.562C125.411 103.562 125.719 103.603 125.979 103.685C127.469 104.108 128.214 106.016 128.214 109.406C128.214 109.898 128.193 110.562 128.152 111.396C128.125 112.216 128.111 112.77 128.111 113.057C128.111 113.439 128.132 113.754 128.173 114C127.462 114.191 127.031 114.287 126.881 114.287C126.744 114.287 126.648 114.273 126.594 114.246C126.539 114.068 126.512 113.74 126.512 113.262C126.512 112.961 126.532 112.346 126.573 111.416C126.614 110.473 126.635 109.734 126.635 109.201C126.635 106.357 126.074 104.922 124.953 104.895C124.693 104.908 124.468 104.99 124.276 105.141C124.085 105.277 123.853 105.523 123.579 105.879Z"/>
  <path fill="#5C616C" d="M130.326 103.459L131.27 103.664C131.379 104.785 131.475 106.549 131.557 108.955C131.639 111.348 131.693 112.831 131.721 113.405C131.598 113.829 131.358 114.041 131.003 114.041C130.757 114.041 130.518 113.945 130.285 113.754C130.066 113.549 129.93 113.303 129.875 113.016C129.902 112.455 129.957 110.999 130.039 108.647C130.121 106.282 130.217 104.553 130.326 103.459ZM130.613 99.7881C130.982 99.7881 131.29 99.9521 131.536 100.28C131.782 100.595 131.905 100.957 131.905 101.367C131.905 101.668 131.83 101.914 131.68 102.105C131.543 102.283 131.352 102.372 131.105 102.372C130.723 102.372 130.422 102.215 130.203 101.9C129.984 101.586 129.875 101.217 129.875 100.793C129.875 100.492 129.937 100.253 130.06 100.075C130.196 99.8838 130.381 99.7881 130.613 99.7881Z"/>
  <path fill="#5C616C" d="M133.628 114.513L132.746 114.041C133.102 113.152 134.031 111.43 135.535 108.873C134.742 107.793 133.84 105.995 132.828 103.479H133.73C134.236 104.546 135.091 105.934 136.294 107.643C136.499 107.355 136.766 106.911 137.094 106.31C137.436 105.708 137.764 105.188 138.078 104.751C138.406 104.313 138.775 103.931 139.186 103.603C139.678 103.876 139.924 104.197 139.924 104.566C139.924 104.771 139.876 104.97 139.78 105.161C139.411 105.612 138.939 106.323 138.365 107.294C137.791 108.265 137.436 108.853 137.299 109.058C138.748 111.081 139.726 112.605 140.231 113.631C140.231 114.15 139.999 114.41 139.534 114.41C139.069 114.41 138.714 114.185 138.468 113.733C138.222 112.913 137.572 111.751 136.52 110.247C136.287 110.63 135.809 111.327 135.084 112.339C134.373 113.337 133.888 114.062 133.628 114.513Z"/>
  <path fill="#5C616C" d="M147.02 113.938V112.852C147.348 112.811 147.751 112.742 148.229 112.646C148.722 112.551 149.104 112.482 149.378 112.441C149.419 111.457 149.439 110.466 149.439 109.468C149.439 108.839 149.433 107.896 149.419 106.638C149.405 105.366 149.398 104.409 149.398 103.767C149.398 102.249 149.419 101.101 149.46 100.321C148.216 101.032 147.307 101.606 146.732 102.044L146.076 101.367C146.295 101.189 146.671 100.882 147.204 100.444C147.737 99.9932 148.216 99.5898 148.64 99.2344C149.063 98.8652 149.392 98.5645 149.624 98.332C149.843 98.3594 150.068 98.3799 150.301 98.3936C150.533 98.3936 150.759 98.4072 150.978 98.4346C151.06 100.021 151.101 102.926 151.101 107.15C151.101 109.666 151.121 111.471 151.162 112.564C151.285 112.578 151.579 112.633 152.044 112.729C152.522 112.811 152.892 112.865 153.151 112.893L153.479 113.979C152.796 113.979 152.201 113.979 151.695 113.979C151.189 113.979 150.513 113.979 149.665 113.979C148.831 113.979 148.175 113.979 147.696 113.979C147.231 113.966 147.006 113.952 147.02 113.938Z"/>
  <path fill="#5C616C" d="M154.546 114.39L154.218 113.467C157.403 112.113 159.297 110.281 159.898 107.971C159.324 108.34 158.771 108.524 158.237 108.524C157.062 108.524 156.077 107.998 155.284 106.945C154.505 105.879 154.115 104.519 154.115 102.864C154.115 101.688 154.471 100.759 155.182 100.075C155.893 99.3779 156.802 99.0293 157.909 99.0293C158.962 99.0293 159.878 99.4121 160.657 100.178C161.45 100.93 161.847 101.935 161.847 103.192C161.847 103.985 161.826 104.676 161.785 105.264C161.758 105.852 161.683 106.494 161.56 107.191C161.45 107.889 161.293 108.504 161.088 109.037C160.883 109.557 160.596 110.104 160.227 110.678C159.871 111.238 159.44 111.73 158.935 112.154C158.429 112.578 157.807 112.988 157.068 113.385C156.33 113.768 155.489 114.103 154.546 114.39ZM160.37 103.767C160.37 102.632 160.151 101.784 159.714 101.224C159.29 100.649 158.764 100.362 158.135 100.362C157.465 100.362 156.884 100.588 156.392 101.039C155.899 101.49 155.653 102.112 155.653 102.905C155.653 104.108 155.927 105.113 156.474 105.92C157.021 106.727 157.69 107.13 158.483 107.13C158.839 107.13 159.14 107.068 159.386 106.945C159.632 106.809 159.816 106.658 159.939 106.494C160.062 106.33 160.158 106.077 160.227 105.735C160.295 105.38 160.336 105.086 160.35 104.854C160.363 104.607 160.37 104.245 160.37 103.767Z"/>
  <path fill="#5C616C" d="M163.733 114.39L163.405 113.467C166.591 112.113 168.484 110.281 169.086 107.971C168.512 108.34 167.958 108.524 167.425 108.524C166.249 108.524 165.265 107.998 164.472 106.945C163.692 105.879 163.303 104.519 163.303 102.864C163.303 101.688 163.658 100.759 164.369 100.075C165.08 99.3779 165.989 99.0293 167.097 99.0293C168.149 99.0293 169.065 99.4121 169.845 100.178C170.638 100.93 171.034 101.935 171.034 103.192C171.034 103.985 171.014 104.676 170.973 105.264C170.945 105.852 170.87 106.494 170.747 107.191C170.638 107.889 170.48 108.504 170.275 109.037C170.07 109.557 169.783 110.104 169.414 110.678C169.059 111.238 168.628 111.73 168.122 112.154C167.616 112.578 166.994 112.988 166.256 113.385C165.518 113.768 164.677 114.103 163.733 114.39ZM169.558 103.767C169.558 102.632 169.339 101.784 168.901 101.224C168.478 100.649 167.951 100.362 167.322 100.362C166.652 100.362 166.071 100.588 165.579 101.039C165.087 101.49 164.841 102.112 164.841 102.905C164.841 104.108 165.114 105.113 165.661 105.92C166.208 106.727 166.878 107.13 167.671 107.13C168.026 107.13 168.327 107.068 168.573 106.945C168.819 106.809 169.004 106.658 169.127 106.494C169.25 106.33 169.346 106.077 169.414 105.735C169.482 105.38 169.523 105.086 169.537 104.854C169.551 104.607 169.558 104.245 169.558 103.767Z"/>
  <path fill="#5C616C" d="M172.695 107.171C172.709 104.218 173.092 102.092 173.844 100.793C174.596 99.4805 175.737 98.7832 177.269 98.7012C177.938 98.7012 178.533 98.8857 179.053 99.2549C179.572 99.624 179.982 100.096 180.283 100.67C180.598 101.23 180.857 101.907 181.062 102.7C181.268 103.479 181.404 104.225 181.473 104.936C181.555 105.633 181.609 106.378 181.637 107.171C181.637 108.251 181.473 109.358 181.145 110.493C180.83 111.614 180.338 112.599 179.668 113.446C179.012 114.28 178.273 114.697 177.453 114.697C174.281 114.697 172.695 112.188 172.695 107.171ZM176.981 100.28C176.653 100.349 176.359 100.458 176.1 100.608C175.84 100.759 175.621 100.93 175.443 101.121C175.279 101.312 175.136 101.565 175.013 101.88C174.89 102.194 174.794 102.488 174.726 102.762C174.671 103.021 174.616 103.363 174.562 103.787C174.521 104.211 174.493 104.58 174.479 104.895C174.466 105.195 174.445 105.599 174.418 106.104C174.404 106.597 174.384 107 174.356 107.314C174.356 107.943 174.391 108.545 174.459 109.119C174.527 109.68 174.65 110.268 174.828 110.883C175.02 111.498 175.313 111.997 175.71 112.38C176.106 112.763 176.585 112.981 177.146 113.036C177.993 113.036 178.69 112.448 179.237 111.272C179.798 110.097 180.078 108.907 180.078 107.704C180.078 102.81 179.046 100.335 176.981 100.28Z"/>
  <path fill="#5C616C" d="M183.113 107.889L182.888 106.966L189.717 106.494C190.059 106.508 190.346 106.638 190.578 106.884C190.824 107.116 190.947 107.369 190.947 107.643C190.947 107.82 190.879 107.978 190.742 108.114C190.605 108.251 190.4 108.333 190.127 108.36L183.113 107.889Z"/>
  <path fill="#5C616C" d="M192.239 114.513L191.357 114.041C191.713 113.152 192.643 111.43 194.146 108.873C193.354 107.793 192.451 105.995 191.439 103.479H192.342C192.848 104.546 193.702 105.934 194.905 107.643C195.11 107.355 195.377 106.911 195.705 106.31C196.047 105.708 196.375 105.188 196.689 104.751C197.018 104.313 197.387 103.931 197.797 103.603C198.289 103.876 198.535 104.197 198.535 104.566C198.535 104.771 198.487 104.97 198.392 105.161C198.022 105.612 197.551 106.323 196.977 107.294C196.402 108.265 196.047 108.853 195.91 109.058C197.359 111.081 198.337 112.605 198.843 113.631C198.843 114.15 198.61 114.41 198.146 114.41C197.681 114.41 197.325 114.185 197.079 113.733C196.833 112.913 196.184 111.751 195.131 110.247C194.898 110.63 194.42 111.327 193.695 112.339C192.984 113.337 192.499 114.062 192.239 114.513Z"/>
 </g>
 <defs>
  <filter id="filter0_d" width="264.648" height="248.338" x="-4.32" y="5.95" color-interpolation-filters="sRGB" filterUnits="userSpaceOnUse">
   <feFlood flood-opacity="0" result="BackgroundImageFix"/>
   <feColorMatrix in="SourceAlpha" type="matrix" values="0 0 0 0 0 0 0 0 0 0 0 0 0 0 0 0 0 0 127 0"/>
   <feOffset dy="4"/>
   <feGaussianBlur stdDeviation="5"/>
   <feColorMatrix type="matrix" values="0 0 0 0 0 0 0 0 0 0 0 0 0 0 0 0 0 0 0.4 0"/>
   <feBlend in2="BackgroundImageFix" mode="normal" result="effect1_dropShadow"/>
   <feBlend in="SourceGraphic" in2="effect1_dropShadow" mode="normal" result="shape"/>
  </filter>
  <linearGradient id="paint0_linear" x1="5.676" x2="5.676" y1="11.947" y2="240.285" gradientUnits="userSpaceOnUse">
   <stop offset="0" stop-color="#F7FF57"/>
   <stop offset=".5" stop-color="#FFE251"/>
   <stop offset="1" stop-color="#F5CF0F"/>
  </linearGradient>
  <linearGradient id="paint1_linear" x1="132.082" x2="132.082" y1="11.95" y2="240.29" gradientUnits="userSpaceOnUse">
   <stop stop-color="#fff"/>
   <stop offset=".125" stop-color="#fff" stop-opacity=".098"/>
   <stop offset=".925" stop-opacity=".098"/>
   <stop offset="1" stop-opacity=".498"/>
  </linearGradient>
  <linearGradient id="paint2_linear" x1="171.627" x2="171.627" y1="161.488" y2="240.334" gradientUnits="userSpaceOnUse">
   <stop offset="0" stop-color="#F7FF57"/>
   <stop offset=".5" stop-color="#FFE251"/>
   <stop offset="1" stop-color="#F5CF0F"/>
  </linearGradient>
  <linearGradient id="paint3_linear" x1="218.5" x2="178.5" y1="206.5" y2="167.5" gradientUnits="userSpaceOnUse">
   <stop stop-color="#DEBD14"/>
   <stop offset=".344" stop-color="#F8FE57"/>
  </linearGradient>
  <clipPath id="clip0">
   <rect fill="#fff" width="256" height="256"/>
  </clipPath>
 </defs>
</svg>
