<?xml version="1.0" encoding="UTF-8" standalone="no"?>
<svg
   xmlns:dc="http://purl.org/dc/elements/1.1/"
   xmlns:cc="http://creativecommons.org/ns#"
   xmlns:rdf="http://www.w3.org/1999/02/22-rdf-syntax-ns#"
   xmlns:svg="http://www.w3.org/2000/svg"
   xmlns="http://www.w3.org/2000/svg"
   xmlns:xlink="http://www.w3.org/1999/xlink"
   xmlns:sodipodi="http://sodipodi.sourceforge.net/DTD/sodipodi-0.dtd"
   xmlns:inkscape="http://www.inkscape.org/namespaces/inkscape"
   sodipodi:docname="Suru++ 25 – 16px Icon Template.svg"
   inkscape:version="1.0alpha (0d6517f328, 2019-04-02, custom)"
   id="svg8"
   version="1.1"
   viewBox="0 0 4.2333332 4.2333335"
   height="16"
   width="16">
  <defs
     id="defs2">
    <linearGradient
       gradientTransform="matrix(0.03023809,0,0,0.03023809,-1.7537988,-1.7538073)"
       id="linearGradient1600"
       x1="60.683998"
       x2="188.839"
       y1="195.528"
       y2="80.379997"
       gradientUnits="userSpaceOnUse"
       xlink:href="#paint112_linear" />
    <linearGradient
       id="paint112_linear"
       x1="263"
       x2="263"
       y1="1086"
       y2="1036"
       gradientUnits="userSpaceOnUse">
      <stop
         id="stop645"
         stop-color="#FF0056" />
      <stop
         id="stop647"
         offset=".1"
         stop-color="#FF0C4E" />
      <stop
         id="stop649"
         offset=".2"
         stop-color="#FF1845" />
      <stop
         id="stop651"
         offset=".3"
         stop-color="#FF243D" />
      <stop
         id="stop653"
         offset=".4"
         stop-color="#FF3034" />
      <stop
         id="stop655"
         offset=".5"
         stop-color="#FF3C2B" />
      <stop
         id="stop657"
         offset=".6"
         stop-color="#FF4823" />
      <stop
         id="stop659"
         offset=".7"
         stop-color="#FF541A" />
      <stop
         id="stop661"
         offset=".8"
         stop-color="#FF6012" />
      <stop
         id="stop663"
         offset=".9"
         stop-color="#FF6C09" />
      <stop
         id="stop665"
         offset="1"
         stop-color="#FF7901" />
    </linearGradient>
    <linearGradient
       gradientTransform="matrix(0.03023809,0,0,0.03023809,-1.7538093,-1.7538088)"
       id="linearGradient1449"
       x1="100.713"
       x2="105.402"
       y1="312.65201"
       y2="137.172"
       gradientUnits="userSpaceOnUse"
       xlink:href="#paint92_linear" />
    <linearGradient
       id="paint92_linear"
       x1="245.29201"
       x2="244"
       y1="926"
       y2="877.33301"
       gradientUnits="userSpaceOnUse">
      <stop
         id="stop617"
         stop-color="#BFC1C1" />
      <stop
         id="stop619"
         offset="1"
         stop-color="#F1F2F3" />
    </linearGradient>
    <linearGradient
       gradientTransform="matrix(0.03020512,0,0,0.03020512,-1.7495888,-1.7493116)"
       id="linearGradient1448"
       x1="111.031"
       x2="150.74899"
       y1="193.80299"
       y2="113.977"
       gradientUnits="userSpaceOnUse"
       xlink:href="#paint112_linear" />
    <linearGradient
       id="linearGradient1415"
       x1="83.935997"
       x2="149.254"
       y1="119.424"
       y2="119.424"
       gradientTransform="matrix(0.06481077,0,0,0.06481077,-5.4399243,-5.6232842)"
       gradientUnits="userSpaceOnUse"
       xlink:href="#paint108_linear" />
    <linearGradient
       id="paint108_linear"
       x1="746.5"
       x2="747"
       y1="956"
       y2="1006.5"
       gradientUnits="userSpaceOnUse">
      <stop
         id="stop711"
         stop-color="#FFEB00" />
      <stop
         id="stop713"
         offset="1"
         stop-color="#FFA100" />
    </linearGradient>
  </defs>
  <sodipodi:namedview
     inkscape:window-maximized="1"
     inkscape:window-y="32"
     inkscape:window-x="0"
     inkscape:window-height="816"
     inkscape:window-width="1600"
     inkscape:lockguides="false"
     units="px"
     showgrid="false"
     inkscape:document-rotation="0"
     inkscape:current-layer="layer1"
     inkscape:document-units="px"
     inkscape:cy="8"
     inkscape:cx="5.5384615"
     inkscape:zoom="20.3125"
     inkscape:pageshadow="2"
     inkscape:pageopacity="0.0"
     borderopacity="1.0"
     bordercolor="#666666"
     pagecolor="#ffffff"
     id="base" />
  <metadata
     id="metadata5">
    <rdf:RDF>
      <cc:Work
         rdf:about="">
        <dc:format>image/svg+xml</dc:format>
        <dc:type
           rdf:resource="http://purl.org/dc/dcmitype/StillImage" />
        <dc:title></dc:title>
      </cc:Work>
    </rdf:RDF>
  </metadata>
  <g
     id="layer1"
     inkscape:groupmode="layer"
     inkscape:label="icon">
    <path
       inkscape:connector-curvature="0"
       id="xda_logo"
       d="m 2.5326797,1.145799 v 0.4407557 h -0.585804 c -0.139279,0 -0.258466,0.038036 -0.344963,0.1183537 -0.08757,0.081312 -0.129515,0.2003192 -0.129515,0.340474 v 0.58167 c -0.0016,0.017439 -0.0027,0.034504 -0.0027,0.050909 0,0.08832 0.02622,0.1718879 0.07648,0.244267 0.05091,0.073312 0.122708,0.1247273 0.207474,0.1474699 0.0493,0.013412 0.111841,0.017836 0.195721,0.017836 h 0.303267 c 0.151467,0 0.275452,-0.034281 0.362266,-0.1126251 0.08681,-0.078345 0.127744,-0.1959459 0.127744,-0.3358083 V 1.1457998 Z M 0.00998367,1.5865547 0.59661467,2.3403217 2.675e-6,3.0875335 h 0.134712995 0.140206 l 0.455697,-0.5769452 0.45091403,0.5769452 h 0.274033 L 0.86491867,2.3377823 1.4434587,1.5865547 H 1.1706657 L 0.73050067,2.1643856 0.28318967,1.5865547 Z m 2.96853003,0 V 1.799048 h 0.816606 c 0.08713,0 0.141169,0.020453 0.174519,0.052917 0.03335,0.032465 0.05368,0.083531 0.05368,0.1674909 v 0.023269 h -0.624782 c -0.123265,0 -0.230919,0.039047 -0.307874,0.1178811 -0.07694,0.077135 -0.114692,0.1844161 -0.114692,0.3073421 v 0.2048156 c 0,0.103801 0.03216,0.1974366 0.09597,0.2699579 0.07974,0.095681 0.197567,0.144812 0.334272,0.144812 h 0.412289 c 0.126326,0 0.234451,-0.03886 0.307106,-0.1198303 0.07314,-0.079608 0.107723,-0.1888254 0.107723,-0.3157283 V 2.0350471 c 0,-0.1395706 -0.03961,-0.2567638 -0.124555,-0.3353356 -0.08494,-0.078572 -0.206806,-0.1131567 -0.355061,-0.1131567 z m -1.034296,0.215033 h 0.588462 v 0.8323154 c 0,0.07839 -0.02021,0.1288016 -0.05835,0.1663095 -0.03788,0.037248 -0.09999,0.064316 -0.1933,0.074709 h -0.02516 l -0.0046,6.515e-4 c -0.01039,0.00148 -0.0178,0.00201 -0.01931,0.00201 h -0.285076 c -0.111964,0 -0.179623,-0.024006 -0.211136,-0.054157 -0.02916,-0.029452 -0.05333,-0.095818 -0.05333,-0.207769 V 2.0505812 c 0,-0.1026991 0.03262,-0.1660295 0.105716,-0.2154464 0.02967,-0.019338 0.0809,-0.033545 0.156092,-0.033545 z m 1.449125,0.45115 h 0.627323 v 0.4200259 c 0,0.079277 -0.01865,0.1272864 -0.0476,0.1568011 -0.02895,0.029515 -0.07489,0.048015 -0.152017,0.048015 h -0.419849 c -0.0032,0 -0.01557,-0.00111 -0.03254,-0.00419 h -2.97e-4 L 3.3682367,2.873264 C 3.2995767,2.861197 3.2562457,2.837597 3.2288577,2.806296 3.2014677,2.774996 3.1859777,2.732441 3.1859777,2.667567 V 2.4652908 c 0,-0.068192 0.01569,-0.1131012 0.04187,-0.1443398 0.02618,-0.031239 0.06624,-0.053397 0.131524,-0.063784 0.02125,-0.00325 0.03782,-0.00443 0.03396,-0.00443 z"
       style="font-variation-settings:normal;inline-size:0;fill:#5c616c;stroke-width:0.0302381;stop-color:#000000" />
  </g>
</svg>
