<svg xmlns="http://www.w3.org/2000/svg" width="24" height="24" version="1.1">
 <g transform="translate(-272,-44)">
  <path d="M 282.92941,48 C 279.10668,48 276,51.106684 276,54.929407 c 0,3.822722 3.10668,6.929406 6.92941,6.929406 a 6.8947596,6.8947596 0 0 0 4.47062,-1.642269 L 291.18233,64 292,63.18233 288.21654,59.400029 a 6.8947596,6.8947596 0 0 0 1.64227,-4.470622 C 289.85881,51.106684 286.75213,48 282.92941,48 Z m 0,1.154901 a 5.7745056,5.7745056 0 0 1 5.7745,5.774506 5.7745056,5.7745056 0 0 1 -5.7745,5.774505 5.7745056,5.7745056 0 0 1 -5.77451,-5.774505 5.7745056,5.7745056 0 0 1 5.77451,-5.774506 z" font-weight="400" overflow="visible" style="fill:#F7F7F7"/>
 </g>
</svg>
