<svg xmlns="http://www.w3.org/2000/svg" width="24" height="24" version="1.1">
 <defs>
  <style id="current-color-scheme" type="text/css">
   .ColorScheme-Text { color:#F7F7F7; } .ColorScheme-Highlight { color:#5294e2; } .ColorScheme-ButtonBackground { color:#d3dae3; }
  </style>
 </defs>
 <path style="fill:currentColor;" class="ColorScheme-ButtonBackground" d="M 6.7978306,2.8259371 1.0113415,6.2978306 5.6405328,9.75167 1,13.232359 6.7978306,16.713511 11.427022,13.241617 5.6405328,9.769724 11.427022,6.2978306 l 5.786489,3.4899474 -5.786489,3.453839 2.056865,1.543836 c 1.05806,-1.678776 2.902503,-2.69824 4.886922,-2.701133 1.243516,0.0035 2.453008,0.40635 3.449326,1.150516 l 0.03391,-0.02037 L 17.21351,9.769771 21.842702,6.2978769 16.056213,2.8259834 11.427022,6.279823 6.7978306,2.8259834 Z M 18.370809,13.241617 c -2.556587,0 -4.629192,2.072605 -4.629192,4.629192 0,2.556586 2.072605,4.629191 4.629192,4.629191 C 20.927395,22.5 23,20.427395 23,17.870809 23,15.314222 20.927395,13.241617 18.370809,13.241617 Z m -6.943787,1.157298 -4.6291914,3.471894 -1.1572978,-0.693928 v 0.693928 l 5.7864892,3.471893 1.708866,-1.023942 c -0.360684,-0.765819 -0.548953,-1.601469 -0.551522,-2.447917 -2.78e-4,-0.776604 0.155772,-1.545339 0.458845,-2.260318 l -1.620217,-1.215163 z m 6.943787,0 a 3.4718934,3.4718934 0 0 1 3.471893,3.471894 h -1.157298 a 2.3145956,2.3145956 0 0 0 -2.314595,-2.314596 z m -3.471894,3.471894 h 1.157298 a 2.3145956,2.3145956 0 0 0 2.314596,2.314595 v 1.157298 a 3.4718934,3.4718934 0 0 1 -3.471894,-3.471893 z"/>
</svg>
