<svg xmlns="http://www.w3.org/2000/svg" width="16" height="16" version="1.1">
 <g transform="translate(-512,-380)">
  <path d="m 515.99414,382 c -1.2582,0.0145 -2.17889,-0.0306 -2.93164,0.38477 -0.37637,0.20766 -0.67323,0.55938 -0.83789,0.99804 C 512.05994,383.82148 512,384.34239 512,385 v 6 c 0,0.65761 0.0599,1.17853 0.22461,1.61719 0.16467,0.43866 0.46152,0.79039 0.83789,0.99804 0.75275,0.41532 1.67345,0.3702 2.93164,0.38477 h 0.004 8.0039 0.004 c 1.25819,-0.0145 2.17889,0.0306 2.93164,-0.38477 0.37637,-0.20766 0.67322,-0.55938 0.83789,-0.99804 C 527.94006,392.17852 528,391.65761 528,391 v -6 c 0,-0.65761 -0.0599,-1.17852 -0.22461,-1.61719 -0.16466,-0.43866 -0.46152,-0.79038 -0.83789,-0.99804 -0.75275,-0.41534 -1.67344,-0.37025 -2.93164,-0.38477 h -0.004 H 523 v 1 h 1 c 1.25852,0.0147 2.08717,0.0598 2.45312,0.26172 0.18341,0.1012 0.28916,0.21274 0.38672,0.47266 C 526.93741,383.99429 527,384.40761 527,385 v 6 c 0,0.59239 -0.0626,1.00572 -0.16016,1.26562 -0.0976,0.25991 -0.20331,0.37147 -0.38672,0.47266 C 526.08717,392.94019 525.25852,392.98529 524,393 H 516.00586 516 c -1.25853,-0.0147 -2.08912,-0.0598 -2.45508,-0.26172 -0.18341,-0.10119 -0.2872,-0.21275 -0.38476,-0.47266 C 513.06259,392.00572 513,391.59239 513,391 v -6 c 0,-0.59239 0.0626,-1.00572 0.16016,-1.26562 0.0976,-0.25991 0.20135,-0.37147 0.38476,-0.47266 C 513.91088,383.05981 514.74147,383.01471 516,383 h 2.5 v -1 h -2.50195 z" style="solid-color:#F7F7F7;fill:#F7F7F7"/>
  <path d="m 517.00001,380 10e-4,5 c 0.76044,-0.34766 1.53457,-0.73665 2.32276,-1.1664 0.78078,-0.43079 1.53391,-0.8751 2.25893,-1.33339 -0.72502,-0.44911 -1.47815,-0.88917 -2.25893,-1.31996 -0.78861,-0.42999 -1.5632,-0.82331 -2.32404,-1.18025 z" style="fill:#F7F7F7"/>
 </g>
</svg>
