<svg xmlns="http://www.w3.org/2000/svg" width="16" height="16" version="1.1">
 <g transform="translate(-592,-380)">
  <path d="m 603,381 v 2 h -11 v 1 h 11 0.002 v 2 c 0.76044,-0.34766 1.53408,-0.73627 2.32227,-1.16602 0.78078,-0.43079 1.53279,-0.87569 2.25781,-1.33398 -0.72502,-0.44911 -1.47703,-0.88952 -2.25781,-1.32031 C 604.53561,381.7497 603.76084,381.35694 603,381 Z m 0,9 v 2 h -11 v 1 h 11 0.002 v 2 c 0.76044,-0.34766 1.53408,-0.73627 2.32227,-1.16602 0.78078,-0.43079 1.53279,-0.87569 2.25781,-1.33398 -0.72502,-0.44911 -1.47703,-0.88952 -2.25781,-1.32031 C 604.53561,390.7497 603.76084,390.35694 603,390 Z" style="fill:#F7F7F7"/>
 </g>
</svg>
