<svg xmlns="http://www.w3.org/2000/svg" width="16" height="16" version="1.1">
 <g transform="translate(-532,-380)">
  <path d="m 537,380 v 2 h -1.00195 -0.004 c -1.2582,0.0145 -2.17889,-0.0306 -2.93164,0.38477 -0.37637,0.20766 -0.67323,0.55938 -0.83789,0.99804 C 532.05994,383.82148 532,384.34239 532,385 v 6 c 0,0.65761 0.0599,1.17853 0.22461,1.61719 0.16467,0.43866 0.46152,0.79039 0.83789,0.99804 0.75275,0.41532 1.67345,0.3702 2.93164,0.38477 h 0.004 8.00586 0.002 c 1.25819,-0.0145 2.17889,0.0306 2.93164,-0.38477 0.37637,-0.20766 0.67322,-0.55938 0.83789,-0.99804 C 547.94006,392.17852 548,391.65761 548,391 v -6 c 0,-0.65761 -0.0599,-1.17852 -0.22461,-1.61719 -0.16466,-0.43866 -0.46152,-0.79038 -0.83789,-0.99804 -0.75275,-0.41534 -1.67344,-0.37025 -2.93164,-0.38477 h -0.002 H 543 v 1 h 1 c 1.25852,0.0147 2.08912,0.0598 2.45508,0.26172 0.18341,0.10119 0.2872,0.21275 0.38476,0.47266 C 546.93744,383.9943 547,384.40761 547,385 v 6 c 0,0.59239 -0.0626,1.00573 -0.16016,1.26562 -0.0976,0.25991 -0.20135,0.37147 -0.38476,0.47266 C 546.08912,392.9402 545.25852,392.98529 544,393 H 536.00586 536 c -1.25853,-0.0147 -2.08718,-0.0598 -2.45312,-0.26172 -0.18341,-0.10119 -0.28916,-0.21274 -0.38672,-0.47266 C 533.06256,392.00572 533,391.59239 533,391 v -6 c 0,-0.59239 0.0626,-1.00571 0.16016,-1.26562 0.0976,-0.25991 0.2033,-0.37147 0.38672,-0.47266 C 533.91282,383.05981 534.74147,383.01471 536,383 h 1.00195 v 2 c 0.76044,-0.34766 1.53408,-0.73627 2.32227,-1.16602 0.78078,-0.43079 1.53279,-0.87569 2.25781,-1.33398 -0.72502,-0.44911 -1.47703,-0.88952 -2.25781,-1.32031 C 538.53561,380.7497 537.76084,380.35694 537,380 Z" style="opacity:0.5;solid-color:#F7F7F7;fill:#F7F7F7"/>
 </g>
</svg>
