<?xml version="1.0" encoding="UTF-8" standalone="no"?>
<svg
   xmlns:dc="http://purl.org/dc/elements/1.1/"
   xmlns:cc="http://creativecommons.org/ns#"
   xmlns:rdf="http://www.w3.org/1999/02/22-rdf-syntax-ns#"
   xmlns:svg="http://www.w3.org/2000/svg"
   xmlns="http://www.w3.org/2000/svg"
   xmlns:sodipodi="http://sodipodi.sourceforge.net/DTD/sodipodi-0.dtd"
   xmlns:inkscape="http://www.inkscape.org/namespaces/inkscape"
   height="16"
   width="16.003"
   version="1.1"
   id="svg6"
   sodipodi:docname="network-offline-symbolic.svg"
   inkscape:version="0.92.2 (unknown)">
  <metadata
     id="metadata12">
    <rdf:RDF>
      <cc:Work
         rdf:about="">
        <dc:format>image/svg+xml</dc:format>
        <dc:type
           rdf:resource="http://purl.org/dc/dcmitype/StillImage" />
        <dc:title></dc:title>
      </cc:Work>
    </rdf:RDF>
  </metadata>
  <defs
     id="defs10" />
  <sodipodi:namedview
     pagecolor="#ffffff"
     bordercolor="#666666"
     borderopacity="1"
     objecttolerance="10"
     gridtolerance="10"
     guidetolerance="10"
     inkscape:pageopacity="0"
     inkscape:pageshadow="2"
     inkscape:window-width="785"
     inkscape:window-height="480"
     id="namedview8"
     showgrid="false"
     inkscape:zoom="14.75"
     inkscape:cx="8.0015001"
     inkscape:cy="8"
     inkscape:window-x="0"
     inkscape:window-y="34"
     inkscape:window-maximized="0"
     inkscape:current-layer="svg6" />
  <g
     color="#000"
     transform="translate(-1072.998 207)"
     id="g4">
    <path
       d="M1079.426-206c-.45.005-.778-.012-1.047.137a.676.676 0 0 0-.3.357c-.06.157-.08.343-.08.578v1.858c0 .235.021.42.08.576a.677.677 0 0 0 .3.357c.269.148.597.132 1.047.137h.572v2h-3.5c-.666 0-1.137.408-1.322.777-.185.37-.178.723-.178.723v1.5h-.572c-.45.005-.778-.012-1.047.137a.676.676 0 0 0-.3.357c-.06.157-.08.343-.08.578v1.858c0 .235.021.42.08.576a.677.677 0 0 0 .3.357c.269.148.597.132 1.047.137h2.144c.45-.005.779.012 1.047-.137.135-.074.24-.2.3-.357.058-.157.08-.341.08-.576v-1.858c0-.235-.022-.421-.08-.578a.673.673 0 0 0-.3-.357c-.268-.15-.597-.132-1.046-.137h-.573v-1.5s.01-.145.072-.275c.065-.131.094-.225.428-.225h8c.333 0 .362.094.428.225.065.13.072.275.072.275v1.5h-.573c-.449.005-.778-.012-1.046.137a.676.676 0 0 0-.301.357c-.06.157-.08.343-.08.578v1.858c0 .235.022.42.08.576a.677.677 0 0 0 .3.357c.27.148.598.132 1.047.137h2.145c.45-.005.778.012 1.047-.137.134-.074.24-.2.299-.357.059-.157.08-.341.08-.576v-1.858c0-.235-.021-.421-.08-.578a.673.673 0 0 0-.3-.357c-.268-.15-.597-.132-1.046-.137h-.572v-1.5s.01-.353-.178-.723a1.485 1.485 0 0 0-1.322-.777h-3.5v-2h.572c.45-.005.778.012 1.047-.137.134-.074.24-.2.299-.357.059-.157.08-.341.08-.576v-1.858c0-.235-.021-.421-.08-.578a.673.673 0 0 0-.3-.357c-.268-.15-.597-.132-1.046-.137zm-.426 1h3v2h-3zm-5 9h3v2h-3zm10 0h3v2h-3z"
       fill="gray"
       font-family="sans-serif"
       font-weight="400"
       opacity=".5"
       overflow="visible"
       style="line-height:normal;font-variant-ligatures:normal;font-variant-position:normal;font-variant-caps:normal;font-variant-numeric:normal;font-variant-alternates:normal;font-feature-settings:normal;text-indent:0;text-align:start;text-decoration-line:none;text-decoration-style:solid;text-decoration-color:#000;text-transform:none;text-orientation:mixed;shape-padding:0;isolation:auto;mix-blend-mode:normal;marker:none"
       white-space="normal"
       id="path2" />
  </g>
</svg>
