<svg xmlns="http://www.w3.org/2000/svg" width="16" height="16" version="1.1">
 <g label="status" transform="translate(-813.00018,227.00006)">
  <path d="m 815.71309,-225 c -1.05789,-0.0133 -1.76797,0.22425 -2.13281,0.66211 -0.38305,0.4561 -0.58008,1.20422 -0.58008,2.24414 v 6.1875 c 0,1.03995 0.19703,1.78803 0.58008,2.24414 0.36484,0.43788 1.07484,0.66211 2.13281,0.66211 h 10.57422 c 1.05797,0 1.76993,-0.22423 2.13477,-0.66211 0.38305,-0.45611 0.57812,-1.20419 0.57812,-2.24414 v -6.1875 c 0,-1.03992 -0.19507,-1.78804 -0.57812,-2.24414 -0.36482,-0.43786 -1.0768,-0.66211 -2.13477,-0.66211 z m 2.99609,2.76562 h 4.36719 v 1.22266 h -2.91211 v 1.26953 h 2.58594 v 1.19531 h -2.58594 v 1.5586 h 3.12696 v 1.22266 h -4.58204 z" style="fill:#F7F7F7"/>
 </g>
</svg>
