<svg xmlns="http://www.w3.org/2000/svg" width="16" height="16" version="1.1">
 <g label="status" transform="translate(-913.0002,147.00006)">
  <path d="m 916.0002,-147 v 4 0.0254 c -0.7495,0.0179 -1.41066,0.0687 -1.9375,0.35938 -0.37637,0.20766 -0.67323,0.55938 -0.83789,0.99804 -0.16467,0.43865 -0.22461,0.95957 -0.22461,1.61718 v 3 c 0,0.65761 0.0599,1.17853 0.22461,1.61719 0.16467,0.43866 0.46152,0.79039 0.83789,0.99804 0.28228,0.15575 0.59904,0.23344 0.9375,0.28711 v -1.02539 c -0.18721,-0.0355 -0.34724,-0.0792 -0.45508,-0.13867 -0.18341,-0.10119 -0.2872,-0.21274 -0.38476,-0.47266 -0.0975,-0.2599 -0.16016,-0.67323 -0.16016,-1.26562 v -3 c 0,-0.59239 0.0626,-1.00573 0.16016,-1.26562 0.0976,-0.25991 0.20135,-0.37147 0.38476,-0.47266 0.36596,-0.20191 1.19655,-0.24701 2.45508,-0.26172 h 8 c 1.25852,0.0147 2.08718,0.0598 2.45312,0.26172 0.18341,0.1012 0.28916,0.21274 0.38672,0.47266 0.0976,0.25991 0.16016,0.67323 0.16016,1.26562 v 3 c 0,0.59239 -0.0626,1.00573 -0.16016,1.26562 -0.0976,0.25991 -0.2033,0.37147 -0.38672,0.47266 -0.10756,0.0593 -0.26682,0.10322 -0.45312,0.13867 v 1.02539 c 0.33846,-0.0537 0.65522,-0.13134 0.9375,-0.28711 0.37637,-0.20766 0.67322,-0.55938 0.83789,-0.99804 0.16469,-0.43867 0.22461,-0.95958 0.22461,-1.61719 v -3 c 0,-0.65761 -0.0599,-1.17852 -0.22461,-1.61719 -0.16466,-0.43866 -0.46152,-0.79038 -0.83789,-0.99804 -0.52684,-0.29069 -1.188,-0.34148 -1.9375,-0.35938 V -143 v -4 z m 1,1 h 8 v 3 h -8 z m 9.5,5 c -0.27614,0 -0.5,0.22386 -0.5,0.5 0,0.27614 0.22386,0.5 0.5,0.5 0.27614,0 0.5,-0.22386 0.5,-0.5 0,-0.27614 -0.22386,-0.5 -0.5,-0.5 z m -6.5,3 v 2 h -1 l 2,3 2,-3 h -1 v -2 z m -4,1 v 0.5 5.5 h 10 v -5.5 -0.5 h -1 v 0.5 4.5 h -8 v -4.5 -0.5 z" style="solid-color:#F7F7F7;fill:#F7F7F7"/>
 </g>
</svg>
