<svg xmlns="http://www.w3.org/2000/svg" width="16" height="16">
 <g color="#000" transform="translate(-1253 307)">
  <path fill="#F7F7F7" opacity=".5" d="M1256.994-306c-1.258.015-2.178-.03-2.931.385a1.88 1.88 0 0 0-.838.998c-.165.438-.225.96-.225 1.617v6c0 .658.06 1.179.225 1.617.165.439.461.79.838.998.753.416 1.673.37 2.931.385h.205l2.801 2 2.801-2h2.197c1.258-.015 2.18.03 2.932-.385a1.88 1.88 0 0 0 .838-.998c.164-.438.224-.96.224-1.617v-6c0-.658-.06-1.179-.224-1.617a1.88 1.88 0 0 0-.838-.998c-.753-.416-1.674-.37-2.932-.385z" font-family="sans-serif" font-weight="400" overflow="visible"/>
 </g>
</svg>
